<?xml version="1.0" encoding="UTF-8" standalone="no"?>
<!--Created with ndjsontosvg (https:https://github.com/thompson318/ndjsontosvg) 
	from the simplified Google quickdraw data set. key_id = 6629333013626880-->
<svg width="600" height="600"
	xmlns="http://www.w3.org/2000/svg">
	xmlns:ndjsontosvg="https://github.com/thompson318/ndjsontosvg"
	xmlns:quickdraw="https://quickdraw.withgoogle.com/data"
	xmlns:scikit-surgery="https://doi.org/10.1007/s11548-020-02180-5">

	<rect width="100%" height="100%" fill="black" />
	<path d = "M 442.97 56.25 L 358.59 51.56 L 316.41 60.94 L 232.03 128.91 L 152.34 157.03 L 25.78 159.38 L 2.34 166.41 L 0.00 128.91 L 14.06 107.81 L 0.00 164.06 L 0.00 257.81 L 2.34 178.12 L 96.09 241.41 L 246.09 290.62 L 435.94 290.62 L 494.53 278.91 L 525.00 260.16" stroke="white" fill="transparent"/>
	<path d = "M 290.62 318.75 L 288.28 290.62 L 283.59 335.16 L 375.00 353.91 L 445.31 351.56 L 529.69 330.47 L 543.75 325.78 L 496.88 309.38 L 450.00 262.50" stroke="white" fill="transparent"/>
	<path d = "M 532.03 267.19 L 597.66 196.88" stroke="white" fill="transparent"/>
	<path d = "M 445.31 23.44 L 532.03 42.19 L 581.25 91.41 L 590.62 126.56 L 595.31 192.19 L 581.25 227.34 L 560.16 239.06" stroke="white" fill="transparent"/>
	<path d = "M 440.62 46.88 L 450.00 161.72 L 492.19 168.75 L 578.91 168.75" stroke="white" fill="transparent"/>
	<path d = "M 562.50 28.12 L 562.50 28.12" stroke="white" fill="transparent"/>
	<path d = "M 367.97 77.34 L 365.62 0.00" stroke="white" fill="transparent"/>
	<path d = "M 377.34 0.00 L 262.50 4.69 L 215.62 18.75 L 255.47 25.78 L 335.16 25.78 L 403.12 14.06 L 473.44 25.78 L 581.25 25.78 L 597.66 23.44 L 581.25 9.38" stroke="white" fill="transparent"/>
</svg>