<?xml version="1.0" encoding="UTF-8" standalone="no"?>
<!--Created with ndjsontosvg (https:https://github.com/thompson318/ndjsontosvg) 
	from the simplified Google quickdraw data set. key_id = 5432838188957696-->
<svg width="600" height="600"
	xmlns="http://www.w3.org/2000/svg">
	xmlns:ndjsontosvg="https://github.com/thompson318/ndjsontosvg"
	xmlns:quickdraw="https://quickdraw.withgoogle.com/data"
	xmlns:scikit-surgery="https://doi.org/10.1007/s11548-020-02180-5">

	<rect width="100%" height="100%" fill="black" />
	<path d = "M 161.72 126.56 L 288.28 100.78 L 475.78 39.84" stroke="white" fill="transparent"/>
	<path d = "M 164.06 131.25 L 213.28 194.53 L 300.00 182.81 L 515.62 79.69 L 515.62 67.97 L 501.56 46.88 L 468.75 35.16" stroke="white" fill="transparent"/>
	<path d = "M 161.72 133.59 L 164.06 173.44" stroke="white" fill="transparent"/>
	<path d = "M 210.94 192.19 L 213.28 208.59" stroke="white" fill="transparent"/>
	<path d = "M 522.66 75.00 L 517.97 105.47" stroke="white" fill="transparent"/>
	<path d = "M 475.78 30.47 L 475.78 30.47" stroke="white" fill="transparent"/>
	<path d = "M 227.34 157.03 L 260.16 142.97" stroke="white" fill="transparent"/>
	<path d = "M 297.66 131.25 L 339.84 105.47" stroke="white" fill="transparent"/>
	<path d = "M 407.81 89.06 L 438.28 70.31" stroke="white" fill="transparent"/>
	<path d = "M 475.78 63.28 L 480.47 63.28" stroke="white" fill="transparent"/>
	<path d = "M 159.38 168.75 L 210.94 210.94 L 281.25 210.94 L 543.75 128.91 L 560.16 119.53 L 576.56 96.09 L 562.50 91.41" stroke="white" fill="transparent"/>
	<path d = "M 164.06 168.75 L 140.62 178.12 L 0.00 178.12 L 16.41 222.66 L 46.88 246.09 L 96.09 255.47 L 171.09 255.47 L 346.88 232.03 L 508.59 189.84 L 578.91 152.34 L 597.66 107.81 L 590.62 77.34 L 578.91 70.31 L 555.47 67.97 L 520.31 77.34" stroke="white" fill="transparent"/>
	<path d = "M 335.16 30.47 L 292.97 4.69 L 264.84 2.34 L 269.53 23.44 L 323.44 49.22" stroke="white" fill="transparent"/>
	<path d = "M 360.94 21.09 L 300.00 42.19 L 253.12 72.66 L 264.84 79.69 L 318.75 82.03 L 346.88 72.66 L 370.31 51.56 L 370.31 35.16 L 360.94 23.44" stroke="white" fill="transparent"/>
	<path d = "M 339.84 79.69 L 339.84 98.44 L 360.94 126.56 L 365.62 100.78 L 356.25 77.34" stroke="white" fill="transparent"/>
</svg>