<?xml version="1.0" encoding="UTF-8" standalone="no"?>
<!--Created with ndjsontosvg (https:https://github.com/thompson318/ndjsontosvg) 
	from the simplified Google quickdraw data set. key_id = 5933288386461696-->
<svg width="600" height="600"
	xmlns="http://www.w3.org/2000/svg">
	xmlns:ndjsontosvg="https://github.com/thompson318/ndjsontosvg"
	xmlns:quickdraw="https://quickdraw.withgoogle.com/data"
	xmlns:scikit-surgery="https://doi.org/10.1007/s11548-020-02180-5">

	<rect width="100%" height="100%" fill="black" />
	<path d = "M 243.75 203.91 L 257.81 194.53 L 302.34 199.22 L 342.19 215.62 L 431.25 232.03 L 550.78 290.62 L 557.81 276.56 L 595.31 269.53 L 597.66 250.78 L 546.09 215.62 L 471.09 185.16 L 426.56 157.03 L 365.62 145.31 L 496.88 150.00 L 541.41 145.31 L 553.12 131.25 L 539.06 2.34 L 485.16 14.06 L 478.12 63.28 L 386.72 60.94 L 323.44 77.34 L 182.81 86.72 L 53.91 103.12 L 37.50 112.50 L 4.69 140.62 L 0.00 152.34 L 18.75 171.09 L 145.31 161.72 L 253.12 171.09" stroke="white" fill="transparent"/>
	<path d = "M 189.84 53.91 L 232.03 42.19 L 321.09 0.00 L 360.94 9.38 L 353.91 35.16 L 262.50 56.25" stroke="white" fill="transparent"/>
</svg>