<?xml version="1.0" encoding="UTF-8" standalone="no"?>
<!--Created with ndjsontosvg (https:https://github.com/thompson318/ndjsontosvg) 
	from the simplified Google quickdraw data set. key_id = 4791135518064640-->
<svg width="600" height="600"
	xmlns="http://www.w3.org/2000/svg">
	xmlns:ndjsontosvg="https://github.com/thompson318/ndjsontosvg"
	xmlns:quickdraw="https://quickdraw.withgoogle.com/data"
	xmlns:scikit-surgery="https://doi.org/10.1007/s11548-020-02180-5">

	<rect width="100%" height="100%" fill="black" />
	<path d = "M 0.00 389.06 L 39.84 337.50 L 124.22 253.12 L 330.47 227.34 L 442.97 225.00 L 578.91 199.22 L 588.28 264.84 L 588.28 337.50 L 583.59 396.09 L 567.19 410.16 L 473.44 403.12 L 65.62 398.44 L 14.06 405.47 L 9.38 417.19" stroke="white" fill="transparent"/>
	<path d = "M 419.53 236.72 L 412.50 220.31 L 419.53 185.16 L 473.44 39.84 L 499.22 7.03 L 567.19 0.00 L 583.59 16.41 L 581.25 203.91" stroke="white" fill="transparent"/>
	<path d = "M 145.31 276.56 L 145.31 255.47 L 159.38 234.38 L 215.62 168.75 L 365.62 42.19 L 372.66 63.28 L 365.62 82.03 L 276.56 260.16" stroke="white" fill="transparent"/>
	<path d = "M 152.34 417.19 L 154.69 431.25 L 206.25 496.88 L 297.66 597.66 L 307.03 576.56 L 307.03 534.38 L 274.22 466.41 L 271.88 419.53" stroke="white" fill="transparent"/>
</svg>