<?xml version="1.0" encoding="UTF-8" standalone="no"?>
<!--Created with ndjsontosvg (https:https://github.com/thompson318/ndjsontosvg) 
	from the simplified Google quickdraw data set. key_id = 5787462469156864-->
<svg width="600" height="600"
	xmlns="http://www.w3.org/2000/svg">
	xmlns:ndjsontosvg="https://github.com/thompson318/ndjsontosvg"
	xmlns:quickdraw="https://quickdraw.withgoogle.com/data"
	xmlns:scikit-surgery="https://doi.org/10.1007/s11548-020-02180-5">

	<rect width="100%" height="100%" fill="black" />
	<path d = "M 168.75 196.88 L 119.53 196.88 L 56.25 210.94 L 23.44 232.03 L 0.00 271.88 L 9.38 292.97 L 21.09 302.34 L 114.84 323.44 L 157.03 342.19 L 175.78 370.31 L 187.50 428.91 L 194.53 506.25 L 96.09 541.41 L 82.03 553.12 L 82.03 569.53 L 168.75 597.66 L 302.34 597.66 L 365.62 581.25 L 417.19 550.78 L 417.19 534.38 L 396.09 522.66 L 349.22 508.59 L 300.00 510.94 L 276.56 363.28 L 309.38 351.56 L 379.69 342.19 L 419.53 323.44 L 473.44 269.53 L 475.78 253.12 L 466.41 227.34 L 424.22 201.56 L 297.66 196.88 L 271.88 187.50 L 290.62 103.12 L 288.28 46.88 L 267.19 14.06 L 246.09 2.34 L 220.31 0.00 L 192.19 2.34 L 168.75 44.53 L 159.38 114.84 L 161.72 206.25" stroke="white" fill="transparent"/>
</svg>