<?xml version="1.0" encoding="UTF-8" standalone="no"?>
<!--Created with ndjsontosvg (https:https://github.com/thompson318/ndjsontosvg) 
	from the simplified Google quickdraw data set. key_id = 4853023782207488-->
<svg width="600" height="600"
	xmlns="http://www.w3.org/2000/svg">
	xmlns:ndjsontosvg="https://github.com/thompson318/ndjsontosvg"
	xmlns:quickdraw="https://quickdraw.withgoogle.com/data"
	xmlns:scikit-surgery="https://doi.org/10.1007/s11548-020-02180-5">

	<rect width="100%" height="100%" fill="black" />
	<path d = "M 107.81 67.97 L 2.34 67.97 L 2.34 82.03 L 23.44 107.81 L 145.31 112.50 L 150.00 105.47" stroke="white" fill="transparent"/>
	<path d = "M 140.62 67.97 L 227.34 63.28 L 288.28 42.19 L 339.84 11.72 L 398.44 0.00 L 480.47 18.75 L 365.62 75.00 L 302.34 91.41" stroke="white" fill="transparent"/>
	<path d = "M 135.94 112.50 L 311.72 126.56" stroke="white" fill="transparent"/>
	<path d = "M 318.75 91.41 L 473.44 82.03 L 539.06 51.56 L 564.84 53.91 L 597.66 63.28 L 574.22 110.16 L 478.12 126.56 L 264.84 126.56" stroke="white" fill="transparent"/>
	<path d = "M 145.31 89.06 L 157.03 119.53 L 185.16 150.00 L 257.81 201.56 L 304.69 217.97 L 403.12 225.00 L 428.91 196.88 L 351.56 182.81 L 295.31 112.50 L 227.34 93.75 L 126.56 91.41" stroke="white" fill="transparent"/>
</svg>