<?xml version="1.0" encoding="UTF-8" standalone="no"?>
<!--Created with ndjsontosvg (https:https://github.com/thompson318/ndjsontosvg) 
	from the simplified Google quickdraw data set. key_id = 4756105961930752-->
<svg width="600" height="600"
	xmlns="http://www.w3.org/2000/svg">
	xmlns:ndjsontosvg="https://github.com/thompson318/ndjsontosvg"
	xmlns:quickdraw="https://quickdraw.withgoogle.com/data"
	xmlns:scikit-surgery="https://doi.org/10.1007/s11548-020-02180-5">

	<rect width="100%" height="100%" fill="black" />
	<path d = "M 321.09 217.97 L 253.12 199.22 L 180.47 192.19 L 86.72 234.38 L 39.84 271.88 L 16.41 304.69 L 0.00 342.19 L 14.06 372.66 L 42.19 389.06 L 159.38 391.41 L 260.16 372.66 L 363.28 360.94 L 517.97 360.94 L 541.41 332.81 L 555.47 281.25 L 555.47 260.16 L 541.41 246.09 L 482.81 222.66 L 410.16 239.06 L 367.97 239.06 L 309.38 215.62" stroke="white" fill="transparent"/>
	<path d = "M 182.81 182.81 L 215.62 58.59 L 215.62 7.03" stroke="white" fill="transparent"/>
	<path d = "M 222.66 0.00 L 222.66 0.00" stroke="white" fill="transparent"/>
	<path d = "M 215.62 4.69 L 241.41 16.41 L 255.47 46.88 L 285.94 213.28" stroke="white" fill="transparent"/>
	<path d = "M 227.34 372.66 L 215.62 459.38 L 217.97 515.62 L 236.72 597.66 L 253.12 588.28 L 278.91 557.81 L 302.34 468.75 L 353.91 358.59" stroke="white" fill="transparent"/>
	<path d = "M 32.81 267.19 L 18.75 185.16 L 16.41 105.47 L 23.44 105.47 L 72.66 164.06 L 103.12 215.62" stroke="white" fill="transparent"/>
	<path d = "M 480.47 250.78 L 480.47 283.59 L 485.16 285.94 L 515.62 283.59 L 517.97 276.56 L 510.94 260.16 L 487.50 250.78" stroke="white" fill="transparent"/>
</svg>