<?xml version="1.0" encoding="UTF-8" standalone="no"?>
<!--Created with ndjsontosvg (https:https://github.com/thompson318/ndjsontosvg) 
	from the simplified Google quickdraw data set. key_id = 6460529109368832-->
<svg width="600" height="600"
	xmlns="http://www.w3.org/2000/svg">
	xmlns:ndjsontosvg="https://github.com/thompson318/ndjsontosvg"
	xmlns:quickdraw="https://quickdraw.withgoogle.com/data"
	xmlns:scikit-surgery="https://doi.org/10.1007/s11548-020-02180-5">

	<rect width="100%" height="100%" fill="black" />
	<path d = "M 14.06 7.03 L 91.41 60.94 L 18.75 77.34 L 0.00 89.06 L 0.00 100.78 L 548.44 67.97 L 595.31 60.94 L 590.62 46.88 L 553.12 32.81 L 492.19 21.09 L 117.19 21.09 L 30.47 14.06" stroke="white" fill="transparent"/>
	<path d = "M 307.03 63.28 L 241.41 110.16 L 173.44 180.47 L 166.41 208.59 L 178.12 217.97 L 203.91 210.94 L 253.12 166.41 L 346.88 105.47 L 375.00 75.00" stroke="white" fill="transparent"/>
	<path d = "M 342.19 21.09 L 269.53 2.34 L 196.88 0.00 L 189.84 2.34 L 192.19 9.38 L 253.12 23.44" stroke="white" fill="transparent"/>
	<path d = "M 513.28 39.84 L 506.25 44.53 L 515.62 49.22 L 522.66 35.16 L 475.78 35.16" stroke="white" fill="transparent"/>
</svg>