<?xml version="1.0" encoding="UTF-8" standalone="no"?>
<!--Created with ndjsontosvg (https:https://github.com/thompson318/ndjsontosvg) 
	from the simplified Google quickdraw data set. key_id = 6097598597300224-->
<svg width="600" height="600"
	xmlns="http://www.w3.org/2000/svg">
	xmlns:ndjsontosvg="https://github.com/thompson318/ndjsontosvg"
	xmlns:quickdraw="https://quickdraw.withgoogle.com/data"
	xmlns:scikit-surgery="https://doi.org/10.1007/s11548-020-02180-5">

	<rect width="100%" height="100%" fill="black" />
	<path d = "M 30.47 98.44 L 4.69 35.16 L 2.34 0.00 L 56.25 11.72 L 98.44 9.38 L 105.47 72.66 L 119.53 100.78 L 262.50 100.78 L 300.00 93.75 L 255.47 46.88 L 213.28 23.44 L 253.12 16.41 L 330.47 14.06 L 351.56 39.84 L 382.03 112.50 L 543.75 114.84 L 597.66 121.88 L 555.47 150.00 L 475.78 175.78 L 342.19 189.84 L 278.91 229.69 L 257.81 255.47 L 217.97 234.38 L 271.88 199.22 L 271.88 189.84 L 63.28 166.41 L 53.91 154.69 L 32.81 96.09" stroke="white" fill="transparent"/>
</svg>