<?xml version="1.0" encoding="UTF-8" standalone="no"?>
<!--Created with ndjsontosvg (https:https://github.com/thompson318/ndjsontosvg) 
	from the simplified Google quickdraw data set. key_id = 5590177542045696-->
<svg width="600" height="600"
	xmlns="http://www.w3.org/2000/svg">
	xmlns:ndjsontosvg="https://github.com/thompson318/ndjsontosvg"
	xmlns:quickdraw="https://quickdraw.withgoogle.com/data"
	xmlns:scikit-surgery="https://doi.org/10.1007/s11548-020-02180-5">

	<rect width="100%" height="100%" fill="black" />
	<path d = "M 192.19 164.06 L 166.41 187.50 L 103.12 269.53 L 67.97 339.84 L 56.25 382.03 L 56.25 461.72 L 72.66 499.22 L 100.78 532.03 L 133.59 560.16 L 178.12 583.59 L 225.00 595.31 L 321.09 597.66 L 403.12 562.50 L 442.97 527.34 L 496.88 445.31 L 510.94 403.12 L 513.28 311.72 L 499.22 267.19 L 473.44 229.69 L 438.28 199.22 L 358.59 166.41 L 295.31 154.69 L 194.53 157.03" stroke="white" fill="transparent"/>
	<path d = "M 271.88 375.00 L 262.50 372.66 L 250.78 386.72 L 257.81 360.94 L 239.06 342.19 L 232.03 225.00" stroke="white" fill="transparent"/>
	<path d = "M 269.53 379.69 L 468.75 403.12" stroke="white" fill="transparent"/>
	<path d = "M 25.78 32.81 L 11.72 49.22 L 2.34 86.72 L 2.34 168.75 L 9.38 187.50 L 44.53 222.66 L 75.00 229.69 L 110.16 229.69 L 147.66 217.97 L 185.16 189.84 L 210.94 157.03 L 222.66 124.22 L 217.97 75.00 L 194.53 53.91 L 128.91 28.12 L 46.88 25.78" stroke="white" fill="transparent"/>
	<path d = "M 433.59 32.81 L 400.78 39.84 L 363.28 60.94 L 339.84 96.09 L 339.84 138.28 L 367.97 173.44 L 389.06 185.16 L 435.94 187.50 L 485.16 159.38 L 513.28 114.84 L 513.28 67.97 L 471.09 28.12 L 438.28 16.41 L 335.16 0.00" stroke="white" fill="transparent"/>
</svg>