<?xml version="1.0" encoding="UTF-8" standalone="no"?>
<!--Created with ndjsontosvg (https:https://github.com/thompson318/ndjsontosvg) 
	from the simplified Google quickdraw data set. key_id = 6476267274633216-->
<svg width="600" height="600"
	xmlns="http://www.w3.org/2000/svg">
	xmlns:ndjsontosvg="https://github.com/thompson318/ndjsontosvg"
	xmlns:quickdraw="https://quickdraw.withgoogle.com/data"
	xmlns:scikit-surgery="https://doi.org/10.1007/s11548-020-02180-5">

	<rect width="100%" height="100%" fill="black" />
	<path d = "M 0.00 110.16 L 2.34 342.19 L 16.41 454.69 L 30.47 457.03 L 295.31 442.97 L 356.25 466.41 L 407.81 468.75 L 487.50 438.28 L 508.59 438.28 L 520.31 445.31 L 522.66 419.53 L 513.28 367.97 L 506.25 232.03 L 485.16 145.31 L 452.34 138.28 L 206.25 138.28 L 96.09 114.84 L 14.06 121.88" stroke="white" fill="transparent"/>
	<path d = "M 49.22 440.62 L 37.50 442.97 L 14.06 459.38 L 7.03 478.12 L 7.03 517.97 L 18.75 555.47 L 44.53 583.59 L 63.28 590.62 L 117.19 597.66 L 145.31 585.94 L 185.16 539.06 L 192.19 475.78 L 171.09 450.00 L 133.59 433.59 L 93.75 438.28 L 56.25 459.38" stroke="white" fill="transparent"/>
	<path d = "M 466.41 457.03 L 431.25 457.03 L 424.22 466.41 L 424.22 525.00 L 433.59 539.06 L 487.50 574.22 L 539.06 576.56 L 553.12 569.53 L 574.22 527.34 L 578.91 494.53 L 539.06 457.03 L 489.84 452.34 L 440.62 480.47" stroke="white" fill="transparent"/>
	<path d = "M 304.69 135.94 L 304.69 117.19 L 318.75 112.50 L 386.72 124.22 L 386.72 131.25" stroke="white" fill="transparent"/>
	<path d = "M 304.69 53.91 L 269.53 35.16" stroke="white" fill="transparent"/>
	<path d = "M 363.28 46.88 L 377.34 0.00" stroke="white" fill="transparent"/>
	<path d = "M 405.47 63.28 L 576.56 63.28" stroke="white" fill="transparent"/>
	<path d = "M 367.97 217.97 L 367.97 314.06 L 377.34 335.16 L 428.91 337.50 L 525.00 311.72" stroke="white" fill="transparent"/>
	<path d = "M 365.62 222.66 L 499.22 217.97" stroke="white" fill="transparent"/>
</svg>