<?xml version="1.0" encoding="UTF-8" standalone="no"?>
<!--Created with ndjsontosvg (https:https://github.com/thompson318/ndjsontosvg) 
	from the simplified Google quickdraw data set. key_id = 5402377609805824-->
<svg width="600" height="600"
	xmlns="http://www.w3.org/2000/svg">
	xmlns:ndjsontosvg="https://github.com/thompson318/ndjsontosvg"
	xmlns:quickdraw="https://quickdraw.withgoogle.com/data"
	xmlns:scikit-surgery="https://doi.org/10.1007/s11548-020-02180-5">

	<rect width="100%" height="100%" fill="black" />
	<path d = "M 595.31 421.88 L 597.66 140.62 L 590.62 133.59 L 468.75 135.94 L 393.75 147.66 L 215.62 164.06 L 135.94 157.03 L 131.25 180.47 L 135.94 316.41 L 0.00 304.69 L 9.38 321.09 L 16.41 393.75 L 18.75 529.69 L 75.00 433.59 L 100.78 410.16 L 121.88 400.78 L 152.34 398.44 L 161.72 405.47 L 194.53 485.16 L 213.28 499.22 L 454.69 459.38 L 548.44 457.03 L 550.78 372.66 L 564.84 356.25 L 576.56 356.25 L 585.94 370.31 L 585.94 421.88" stroke="white" fill="transparent"/>
	<path d = "M 351.56 295.31 L 344.53 225.00" stroke="white" fill="transparent"/>
	<path d = "M 346.88 215.62 L 435.94 194.53 L 421.88 213.28 L 407.81 285.94 L 344.53 283.59" stroke="white" fill="transparent"/>
	<path d = "M 307.03 260.16 L 478.12 213.28 L 478.12 269.53 L 412.50 257.81 L 297.66 255.47" stroke="white" fill="transparent"/>
	<path d = "M 166.41 157.03 L 173.44 84.38 L 192.19 67.97 L 208.59 70.31 L 210.94 150.00" stroke="white" fill="transparent"/>
	<path d = "M 150.00 91.41 L 93.75 25.78" stroke="white" fill="transparent"/>
	<path d = "M 199.22 42.19 L 253.12 0.00" stroke="white" fill="transparent"/>
	<path d = "M 257.81 63.28 L 300.00 25.78" stroke="white" fill="transparent"/>
	<path d = "M 229.69 492.19 L 234.38 379.69 L 222.66 292.97 L 213.28 260.16" stroke="white" fill="transparent"/>
</svg>