<?xml version="1.0" encoding="UTF-8" standalone="no"?>
<!--Created with ndjsontosvg (https:https://github.com/thompson318/ndjsontosvg) 
	from the simplified Google quickdraw data set. key_id = 5555713550057472-->
<svg width="600" height="600"
	xmlns="http://www.w3.org/2000/svg">
	xmlns:ndjsontosvg="https://github.com/thompson318/ndjsontosvg"
	xmlns:quickdraw="https://quickdraw.withgoogle.com/data"
	xmlns:scikit-surgery="https://doi.org/10.1007/s11548-020-02180-5">

	<rect width="100%" height="100%" fill="black" />
	<path d = "M 307.03 77.34 L 400.78 89.06 L 410.16 140.62 L 407.81 192.19 L 447.66 206.25 L 564.84 227.34 L 588.28 239.06 L 597.66 278.91 L 571.88 318.75 L 532.03 332.81 L 241.41 337.50 L 124.22 323.44 L 84.38 297.66 L 63.28 260.16 L 63.28 225.00 L 77.34 171.09 L 107.81 121.88 L 210.94 60.94 L 257.81 58.59 L 321.09 65.62" stroke="white" fill="transparent"/>
	<path d = "M 187.50 335.16 L 171.09 342.19 L 175.78 360.94 L 227.34 367.97 L 241.41 358.59 L 241.41 339.84 L 213.28 332.81" stroke="white" fill="transparent"/>
	<path d = "M 356.25 337.50 L 342.19 339.84 L 344.53 351.56 L 393.75 363.28 L 407.81 342.19 L 382.03 332.81" stroke="white" fill="transparent"/>
	<path d = "M 403.12 180.47 L 356.25 187.50 L 262.50 187.50 L 117.19 166.41 L 2.34 166.41" stroke="white" fill="transparent"/>
	<path d = "M 232.03 192.19 L 215.62 309.38" stroke="white" fill="transparent"/>
	<path d = "M 166.41 260.16 L 309.38 264.84" stroke="white" fill="transparent"/>
	<path d = "M 255.47 53.91 L 220.31 53.91 L 206.25 37.50 L 250.78 28.12 L 337.50 37.50 L 344.53 44.53 L 330.47 60.94 L 257.81 60.94" stroke="white" fill="transparent"/>
	<path d = "M 262.50 28.12 L 262.50 2.34 L 300.00 0.00 L 307.03 28.12" stroke="white" fill="transparent"/>
</svg>