<?xml version="1.0" encoding="UTF-8" standalone="no"?>
<!--Created with ndjsontosvg (https:https://github.com/thompson318/ndjsontosvg) 
	from the simplified Google quickdraw data set. key_id = 5704473865355264-->
<svg width="600" height="600"
	xmlns="http://www.w3.org/2000/svg">
	xmlns:ndjsontosvg="https://github.com/thompson318/ndjsontosvg"
	xmlns:quickdraw="https://quickdraw.withgoogle.com/data"
	xmlns:scikit-surgery="https://doi.org/10.1007/s11548-020-02180-5">

	<rect width="100%" height="100%" fill="black" />
	<path d = "M 0.00 63.28 L 14.06 173.44 L 16.41 435.94 L 264.84 450.00 L 421.88 450.00 L 529.69 440.62 L 536.72 433.59 L 529.69 407.81 L 529.69 321.09 L 517.97 283.59 L 489.84 250.78 L 396.09 234.38 L 372.66 210.94 L 349.22 166.41 L 344.53 86.72 L 302.34 25.78 L 276.56 16.41 L 189.84 11.72 L 98.44 30.47 L 18.75 58.59" stroke="white" fill="transparent"/>
	<path d = "M 421.88 267.19 L 396.09 253.12 L 227.34 234.38 L 196.88 210.94 L 187.50 192.19 L 187.50 131.25 L 213.28 0.00" stroke="white" fill="transparent"/>
	<path d = "M 117.19 300.00 L 86.72 300.00 L 75.00 311.72 L 75.00 337.50 L 89.06 344.53 L 105.47 339.84 L 112.50 302.34 L 133.59 344.53 L 142.97 351.56" stroke="white" fill="transparent"/>
	<path d = "M 154.69 300.00 L 159.38 323.44 L 166.41 300.00 L 175.78 288.28 L 192.19 295.31 L 203.91 325.78 L 210.94 309.38 L 229.69 302.34 L 250.78 335.16" stroke="white" fill="transparent"/>
	<path d = "M 288.28 271.88 L 283.59 344.53 L 281.25 328.12 L 288.28 318.75 L 307.03 311.72 L 314.06 318.75 L 292.97 337.50" stroke="white" fill="transparent"/>
	<path d = "M 342.19 311.72 L 339.84 328.12 L 349.22 318.75" stroke="white" fill="transparent"/>
	<path d = "M 367.97 281.25 L 363.28 358.59" stroke="white" fill="transparent"/>
	<path d = "M 426.56 316.41 L 398.44 335.16 L 382.03 358.59 L 391.41 360.94 L 410.16 321.09 L 426.56 382.03" stroke="white" fill="transparent"/>
	<path d = "M 435.94 321.09 L 440.62 356.25 L 440.62 332.81 L 452.34 321.09 L 471.09 377.34" stroke="white" fill="transparent"/>
	<path d = "M 515.62 316.41 L 501.56 321.09 L 487.50 342.19 L 489.84 356.25 L 515.62 365.62" stroke="white" fill="transparent"/>
	<path d = "M 529.69 342.19 L 546.09 304.69 L 520.31 304.69 L 508.59 325.78 L 515.62 360.94 L 527.34 367.97 L 546.09 365.62" stroke="white" fill="transparent"/>
	<path d = "M 506.25 440.62 L 553.12 454.69 L 578.91 473.44 L 597.66 510.94 L 595.31 529.69 L 585.94 541.41 L 564.84 555.47 L 529.69 562.50 L 492.19 560.16 L 473.44 553.12 L 454.69 522.66 L 450.00 468.75 L 466.41 452.34 L 496.88 450.00" stroke="white" fill="transparent"/>
	<path d = "M 107.81 424.22 L 133.59 440.62 L 154.69 466.41 L 164.06 520.31 L 159.38 539.06 L 131.25 548.44 L 86.72 546.09 L 67.97 536.72 L 32.81 485.16 L 32.81 412.50 L 53.91 398.44 L 121.88 396.09" stroke="white" fill="transparent"/>
</svg>