<?xml version="1.0" encoding="UTF-8" standalone="no"?>
<!--Created with ndjsontosvg (https:https://github.com/thompson318/ndjsontosvg) 
	from the simplified Google quickdraw data set. key_id = 6227023380873216-->
<svg width="600" height="600"
	xmlns="http://www.w3.org/2000/svg">
	xmlns:ndjsontosvg="https://github.com/thompson318/ndjsontosvg"
	xmlns:quickdraw="https://quickdraw.withgoogle.com/data"
	xmlns:scikit-surgery="https://doi.org/10.1007/s11548-020-02180-5">

	<rect width="100%" height="100%" fill="black" />
	<path d = "M 110.16 56.25 L 330.47 56.25 L 421.88 70.31 L 440.62 79.69 L 457.03 100.78 L 464.06 199.22 L 475.78 222.66 L 555.47 241.41 L 571.88 255.47 L 585.94 295.31 L 597.66 391.41 L 571.88 405.47 L 539.06 405.47 L 426.56 360.94 L 412.50 363.28 L 379.69 393.75 L 159.38 389.06 L 154.69 358.59 L 121.88 349.22 L 89.06 351.56 L 67.97 377.34 L 35.16 384.38 L 2.34 356.25 L 0.00 288.28 L 44.53 84.38 L 58.59 70.31 L 86.72 63.28 L 147.66 63.28" stroke="white" fill="transparent"/>
	<path d = "M 185.16 44.53 L 166.41 35.16 L 161.72 18.75 L 166.41 9.38 L 185.16 0.00 L 208.59 16.41 L 213.28 32.81 L 199.22 46.88 L 189.84 39.84" stroke="white" fill="transparent"/>
	<path d = "M 241.41 32.81 L 220.31 32.81 L 210.94 18.75" stroke="white" fill="transparent"/>
</svg>