<?xml version="1.0" encoding="UTF-8" standalone="no"?>
<!--Created with ndjsontosvg (https:https://github.com/thompson318/ndjsontosvg) 
	from the simplified Google quickdraw data set. key_id = 5024225138049024-->
<svg width="600" height="600"
	xmlns="http://www.w3.org/2000/svg">
	xmlns:ndjsontosvg="https://github.com/thompson318/ndjsontosvg"
	xmlns:quickdraw="https://quickdraw.withgoogle.com/data"
	xmlns:scikit-surgery="https://doi.org/10.1007/s11548-020-02180-5">

	<rect width="100%" height="100%" fill="black" />
	<path d = "M 217.97 210.94 L 232.03 217.97 L 304.69 217.97 L 384.38 203.91 L 454.69 206.25 L 459.38 506.25 L 382.03 450.00 L 328.12 450.00 L 309.38 475.78 L 302.34 496.88 L 302.34 560.16 L 311.72 581.25 L 325.78 592.97 L 384.38 597.66 L 417.19 567.19 L 426.56 543.75 L 428.91 478.12 L 414.84 464.06 L 384.38 454.69" stroke="white" fill="transparent"/>
	<path d = "M 304.69 499.22 L 100.78 520.31 L 77.34 496.88 L 53.91 496.88 L 37.50 508.59 L 32.81 520.31 L 35.16 571.88 L 51.56 585.94 L 79.69 595.31 L 124.22 595.31 L 147.66 583.59 L 173.44 548.44 L 178.12 513.28 L 166.41 499.22 L 147.66 482.81 L 86.72 466.41 L 39.84 466.41 L 4.69 496.88" stroke="white" fill="transparent"/>
	<path d = "M 215.62 206.25 L 210.94 222.66 L 210.94 349.22 L 196.88 358.59 L 11.72 353.91 L 0.00 405.47 L 2.34 499.22 L 49.22 501.56" stroke="white" fill="transparent"/>
	<path d = "M 311.72 297.66 L 314.06 398.44" stroke="white" fill="transparent"/>
	<path d = "M 260.16 349.22 L 304.69 349.22 L 365.62 330.47" stroke="white" fill="transparent"/>
	<path d = "M 295.31 229.69 L 290.62 152.34 L 309.38 147.66 L 339.84 154.69 L 356.25 180.47 L 292.97 187.50 L 304.69 194.53 L 342.19 182.81 L 363.28 161.72" stroke="white" fill="transparent"/>
	<path d = "M 311.72 164.06 L 161.72 133.59 L 112.50 105.47" stroke="white" fill="transparent"/>
	<path d = "M 318.75 96.09 L 328.12 46.88 L 349.22 0.00" stroke="white" fill="transparent"/>
</svg>