<?xml version="1.0" encoding="UTF-8" standalone="no"?>
<!--Created with ndjsontosvg (https:https://github.com/thompson318/ndjsontosvg) 
	from the simplified Google quickdraw data set. key_id = 6522532612014080-->
<svg width="600" height="600"
	xmlns="http://www.w3.org/2000/svg">
	xmlns:ndjsontosvg="https://github.com/thompson318/ndjsontosvg"
	xmlns:quickdraw="https://quickdraw.withgoogle.com/data"
	xmlns:scikit-surgery="https://doi.org/10.1007/s11548-020-02180-5">

	<rect width="100%" height="100%" fill="black" />
	<path d = "M 337.50 21.09 L 290.62 2.34 L 234.38 7.03 L 199.22 23.44 L 208.59 39.84 L 250.78 58.59 L 311.72 56.25 L 330.47 49.22 L 346.88 25.78 L 344.53 14.06 L 330.47 14.06" stroke="white" fill="transparent"/>
	<path d = "M 297.66 103.12 L 255.47 100.78 L 227.34 131.25 L 229.69 150.00 L 239.06 168.75 L 262.50 187.50 L 281.25 189.84 L 314.06 178.12 L 323.44 147.66 L 300.00 103.12 L 283.59 98.44 L 267.19 105.47" stroke="white" fill="transparent"/>
	<path d = "M 271.88 175.78 L 229.69 189.84 L 194.53 187.50 L 145.31 142.97 L 44.53 72.66 L 53.91 100.78 L 86.72 135.94 L 150.00 173.44 L 0.00 166.41 L 58.59 199.22 L 171.09 220.31 L 18.75 232.03 L 49.22 246.09 L 142.97 248.44 L 250.78 239.06 L 220.31 365.62" stroke="white" fill="transparent"/>
	<path d = "M 269.53 285.94 L 278.91 278.91 L 290.62 285.94 L 372.66 377.34" stroke="white" fill="transparent"/>
	<path d = "M 288.28 260.16 L 323.44 262.50 L 541.41 185.16 L 459.38 194.53 L 396.09 185.16 L 506.25 138.28 L 597.66 84.38 L 417.19 124.22 L 576.56 0.00 L 485.16 51.56 L 311.72 166.41" stroke="white" fill="transparent"/>
	<path d = "M 260.16 133.59 L 260.16 133.59" stroke="white" fill="transparent"/>
	<path d = "M 292.97 128.91 L 290.62 128.91" stroke="white" fill="transparent"/>
	<path d = "M 262.50 159.38 L 304.69 145.31" stroke="white" fill="transparent"/>
</svg>