<?xml version="1.0" encoding="UTF-8" standalone="no"?>
<!--Created with ndjsontosvg (https:https://github.com/thompson318/ndjsontosvg) 
	from the simplified Google quickdraw data set. key_id = 6472318660378624-->
<svg width="600" height="600"
	xmlns="http://www.w3.org/2000/svg">
	xmlns:ndjsontosvg="https://github.com/thompson318/ndjsontosvg"
	xmlns:quickdraw="https://quickdraw.withgoogle.com/data"
	xmlns:scikit-surgery="https://doi.org/10.1007/s11548-020-02180-5">

	<rect width="100%" height="100%" fill="black" />
	<path d = "M 330.47 126.56 L 318.75 112.50 L 297.66 103.12 L 248.44 100.78 L 225.00 112.50 L 199.22 135.94 L 185.16 185.16 L 185.16 215.62 L 189.84 241.41 L 210.94 260.16 L 250.78 269.53 L 264.84 262.50 L 283.59 248.44 L 316.41 199.22 L 330.47 150.00 L 328.12 119.53 L 314.06 105.47 L 281.25 105.47" stroke="white" fill="transparent"/>
	<path d = "M 250.78 285.94 L 253.12 419.53 L 269.53 543.75 L 274.22 546.09" stroke="white" fill="transparent"/>
	<path d = "M 227.34 344.53 L 213.28 400.78" stroke="white" fill="transparent"/>
	<path d = "M 264.84 356.25 L 288.28 405.47 L 328.12 452.34" stroke="white" fill="transparent"/>
	<path d = "M 260.16 550.78 L 208.59 585.94 L 203.91 597.66" stroke="white" fill="transparent"/>
	<path d = "M 292.97 557.81 L 311.72 578.91 L 375.00 583.59" stroke="white" fill="transparent"/>
	<path d = "M 297.66 16.41 L 229.69 9.38 L 215.62 32.81 L 213.28 67.97 L 241.41 84.38 L 288.28 84.38 L 304.69 75.00 L 318.75 65.62 L 325.78 39.84 L 318.75 2.34 L 257.81 2.34" stroke="white" fill="transparent"/>
	<path d = "M 227.34 302.34 L 196.88 292.97 L 86.72 189.84 L 58.59 173.44 L 44.53 173.44 L 25.78 187.50 L 0.00 232.03 L 0.00 285.94 L 18.75 335.16 L 46.88 372.66 L 60.94 412.50 L 56.25 445.31 L 30.47 468.75 L 96.09 468.75 L 133.59 454.69 L 171.09 426.56 L 199.22 393.75" stroke="white" fill="transparent"/>
	<path d = "M 292.97 292.97 L 300.00 274.22 L 321.09 262.50 L 452.34 199.22 L 494.53 229.69 L 508.59 250.78 L 503.91 288.28 L 487.50 309.38 L 464.06 375.00 L 464.06 412.50 L 471.09 442.97 L 454.69 452.34" stroke="white" fill="transparent"/>
</svg>