<?xml version="1.0" encoding="UTF-8" standalone="no"?>
<!--Created with ndjsontosvg (https:https://github.com/thompson318/ndjsontosvg) 
	from the simplified Google quickdraw data set. key_id = 6726184190607360-->
<svg width="600" height="600"
	xmlns="http://www.w3.org/2000/svg">
	xmlns:ndjsontosvg="https://github.com/thompson318/ndjsontosvg"
	xmlns:quickdraw="https://quickdraw.withgoogle.com/data"
	xmlns:scikit-surgery="https://doi.org/10.1007/s11548-020-02180-5">

	<rect width="100%" height="100%" fill="black" />
	<path d = "M 304.69 210.94 L 292.97 213.28 L 250.78 285.94 L 217.97 386.72 L 215.62 461.72 L 239.06 440.62 L 283.59 375.00 L 323.44 459.38 L 351.56 382.03 L 360.94 424.22 L 377.34 440.62 L 391.41 377.34 L 400.78 370.31 L 426.56 447.66 L 438.28 454.69 L 431.25 353.91 L 417.19 288.28 L 386.72 253.12 L 309.38 203.91" stroke="white" fill="transparent"/>
	<path d = "M 281.25 234.38 L 241.41 281.25 L 210.94 300.00 L 194.53 300.00 L 152.34 269.53 L 70.31 166.41 L 56.25 159.38 L 46.88 164.06 L 14.06 229.69 L 7.03 283.59 L 49.22 255.47 L 11.72 297.66 L 0.00 342.19 L 4.69 356.25 L 23.44 360.94 L 82.03 342.19 L 56.25 389.06 L 63.28 410.16 L 96.09 405.47 L 157.03 370.31 L 243.75 314.06 L 234.38 302.34" stroke="white" fill="transparent"/>
	<path d = "M 426.56 302.34 L 478.12 267.19 L 508.59 234.38 L 536.72 182.81 L 562.50 159.38 L 590.62 145.31 L 595.31 227.34 L 550.78 283.59 L 590.62 274.22 L 597.66 283.59 L 525.00 349.22 L 546.09 342.19 L 571.88 342.19 L 588.28 346.88 L 592.97 360.94 L 553.12 384.38 L 440.62 382.03 L 426.56 377.34 L 421.88 353.91 L 407.81 337.50" stroke="white" fill="transparent"/>
	<path d = "M 302.34 248.44 L 386.72 203.91 L 407.81 171.09 L 407.81 142.97 L 396.09 119.53 L 346.88 89.06 L 304.69 82.03 L 255.47 91.41 L 225.00 114.84 L 217.97 131.25 L 217.97 166.41 L 227.34 208.59 L 271.88 232.03 L 349.22 239.06 L 351.56 227.34" stroke="white" fill="transparent"/>
	<path d = "M 267.19 168.75 L 281.25 180.47 L 335.16 178.12" stroke="white" fill="transparent"/>
	<path d = "M 187.50 16.41 L 225.00 2.34 L 255.47 0.00 L 353.91 18.75 L 410.16 53.91 L 393.75 70.31" stroke="white" fill="transparent"/>
</svg>