<?xml version="1.0" encoding="UTF-8" standalone="no"?>
<!--Created with ndjsontosvg (https:https://github.com/thompson318/ndjsontosvg) 
	from the simplified Google quickdraw data set. key_id = 6363276029984768-->
<svg width="600" height="600"
	xmlns="http://www.w3.org/2000/svg">
	xmlns:ndjsontosvg="https://github.com/thompson318/ndjsontosvg"
	xmlns:quickdraw="https://quickdraw.withgoogle.com/data"
	xmlns:scikit-surgery="https://doi.org/10.1007/s11548-020-02180-5">

	<rect width="100%" height="100%" fill="black" />
	<path d = "M 337.50 0.00 L 208.59 25.78 L 178.12 39.84 L 168.75 51.56 L 173.44 89.06 L 213.28 131.25 L 264.84 133.59 L 323.44 105.47 L 335.16 89.06 L 339.84 39.84 L 314.06 14.06" stroke="white" fill="transparent"/>
	<path d = "M 234.38 154.69 L 239.06 346.88" stroke="white" fill="transparent"/>
	<path d = "M 239.06 346.88 L 117.19 522.66 L 91.41 597.66" stroke="white" fill="transparent"/>
	<path d = "M 208.59 370.31 L 269.53 466.41 L 314.06 595.31" stroke="white" fill="transparent"/>
	<path d = "M 208.59 250.78 L 192.19 248.44 L 152.34 271.88 L 16.41 323.44 L 4.69 332.81" stroke="white" fill="transparent"/>
	<path d = "M 260.16 253.12 L 384.38 346.88 L 412.50 389.06" stroke="white" fill="transparent"/>
	<path d = "M 2.34 325.78 L 0.00 75.00 L 196.88 194.53 L 220.31 229.69" stroke="white" fill="transparent"/>
	<path d = "M 257.81 243.75 L 494.53 150.00 L 513.28 135.94 L 520.31 154.69 L 506.25 225.00 L 506.25 346.88 L 496.88 405.47" stroke="white" fill="transparent"/>
	<path d = "M 421.88 363.28 L 419.53 377.34 L 435.94 391.41 L 539.06 450.00" stroke="white" fill="transparent"/>
	<path d = "M 210.94 79.69 L 222.66 93.75 L 274.22 100.78" stroke="white" fill="transparent"/>
	<path d = "M 250.78 42.19 L 253.12 42.19" stroke="white" fill="transparent"/>
	<path d = "M 292.97 46.88 L 292.97 46.88" stroke="white" fill="transparent"/>
</svg>