<?xml version="1.0" encoding="UTF-8" standalone="no"?>
<!--Created with ndjsontosvg (https:https://github.com/thompson318/ndjsontosvg) 
	from the simplified Google quickdraw data set. key_id = 5718352922148864-->
<svg width="600" height="600"
	xmlns="http://www.w3.org/2000/svg">
	xmlns:ndjsontosvg="https://github.com/thompson318/ndjsontosvg"
	xmlns:quickdraw="https://quickdraw.withgoogle.com/data"
	xmlns:scikit-surgery="https://doi.org/10.1007/s11548-020-02180-5">

	<rect width="100%" height="100%" fill="black" />
	<path d = "M 0.00 187.50 L 32.81 192.19 L 119.53 168.75 L 168.75 203.91 L 185.16 201.56 L 232.03 171.09 L 250.78 173.44 L 295.31 194.53" stroke="white" fill="transparent"/>
	<path d = "M 53.91 459.38 L 91.41 450.00 L 117.19 426.56 L 142.97 386.72 L 168.75 367.97 L 194.53 375.00 L 232.03 433.59 L 248.44 435.94 L 278.91 419.53 L 321.09 414.84" stroke="white" fill="transparent"/>
	<path d = "M 382.03 72.66 L 396.09 96.09 L 438.28 77.34 L 454.69 79.69 L 475.78 98.44 L 539.06 91.41 L 564.84 98.44" stroke="white" fill="transparent"/>
	<path d = "M 442.97 358.59 L 501.56 295.31 L 515.62 297.66 L 532.03 321.09 L 597.66 323.44" stroke="white" fill="transparent"/>
	<path d = "M 39.84 0.00 L 60.94 18.75 L 121.88 2.34 L 157.03 44.53 L 194.53 46.88" stroke="white" fill="transparent"/>
</svg>