<?xml version="1.0" encoding="UTF-8" standalone="no"?>
<!--Created with ndjsontosvg (https:https://github.com/thompson318/ndjsontosvg) 
	from the simplified Google quickdraw data set. key_id = 6515309248774144-->
<svg width="600" height="600"
	xmlns="http://www.w3.org/2000/svg">
	xmlns:ndjsontosvg="https://github.com/thompson318/ndjsontosvg"
	xmlns:quickdraw="https://quickdraw.withgoogle.com/data"
	xmlns:scikit-surgery="https://doi.org/10.1007/s11548-020-02180-5">

	<rect width="100%" height="100%" fill="black" />
	<path d = "M 187.50 126.56 L 152.34 119.53 L 128.91 131.25 L 119.53 173.44 L 131.25 192.19 L 171.09 196.88 L 189.84 178.12 L 196.88 142.97 L 178.12 121.88" stroke="white" fill="transparent"/>
	<path d = "M 147.66 196.88 L 161.72 225.00 L 192.19 239.06 L 203.91 253.12 L 203.91 264.84 L 185.16 276.56 L 173.44 278.91 L 164.06 269.53 L 164.06 288.28" stroke="white" fill="transparent"/>
	<path d = "M 234.38 269.53 L 225.00 292.97 L 187.50 304.69 L 182.81 318.75" stroke="white" fill="transparent"/>
	<path d = "M 274.22 274.22 L 255.47 302.34 L 246.09 335.16" stroke="white" fill="transparent"/>
	<path d = "M 309.38 281.25 L 295.31 325.78" stroke="white" fill="transparent"/>
	<path d = "M 201.56 246.09 L 269.53 278.91 L 328.12 288.28 L 339.84 285.94 L 351.56 267.19 L 356.25 229.69 L 332.81 201.56 L 222.66 178.12 L 194.53 159.38" stroke="white" fill="transparent"/>
	<path d = "M 360.94 262.50 L 379.69 260.16" stroke="white" fill="transparent"/>
	<path d = "M 67.97 124.22 L 37.50 93.75" stroke="white" fill="transparent"/>
	<path d = "M 4.69 133.59 L 2.34 89.06 L 14.06 70.31 L 44.53 67.97 L 58.59 77.34" stroke="white" fill="transparent"/>
	<path d = "M 35.16 30.47 L 65.62 18.75 L 98.44 21.09" stroke="white" fill="transparent"/>
	<path d = "M 79.69 0.00 L 121.88 2.34 L 154.69 18.75 L 152.34 35.16 L 119.53 70.31" stroke="white" fill="transparent"/>
	<path d = "M 206.25 28.12 L 271.88 32.81" stroke="white" fill="transparent"/>
	<path d = "M 288.28 16.41 L 314.06 35.16 L 311.72 53.91 L 292.97 67.97" stroke="white" fill="transparent"/>
	<path d = "M 372.66 53.91 L 403.12 18.75 L 426.56 37.50 L 464.06 37.50 L 513.28 14.06 L 571.88 4.69 L 597.66 44.53 L 562.50 126.56 L 548.44 187.50 L 536.72 196.88 L 489.84 208.59 L 452.34 194.53 L 431.25 152.34 L 407.81 140.62 L 342.19 157.03 L 309.38 147.66 L 300.00 114.84 L 375.00 32.81" stroke="white" fill="transparent"/>
</svg>