<?xml version="1.0" encoding="UTF-8" standalone="no"?>
<!--Created with ndjsontosvg (https:https://github.com/thompson318/ndjsontosvg) 
	from the simplified Google quickdraw data set. key_id = 4670425860669440-->
<svg width="600" height="600"
	xmlns="http://www.w3.org/2000/svg">
	xmlns:ndjsontosvg="https://github.com/thompson318/ndjsontosvg"
	xmlns:quickdraw="https://quickdraw.withgoogle.com/data"
	xmlns:scikit-surgery="https://doi.org/10.1007/s11548-020-02180-5">

	<rect width="100%" height="100%" fill="black" />
	<path d = "M 44.53 185.16 L 35.16 178.12 L 28.12 180.47 L 9.38 227.34 L 0.00 283.59 L 16.41 290.62 L 53.91 248.44 L 67.97 217.97 L 82.03 164.06 L 58.59 161.72 L 11.72 189.84" stroke="white" fill="transparent"/>
	<path d = "M 98.44 210.94 L 77.34 222.66 L 67.97 241.41 L 58.59 267.19 L 53.91 321.09 L 60.94 342.19 L 75.00 356.25 L 110.16 356.25 L 128.91 337.50 L 154.69 269.53 L 150.00 239.06 L 112.50 229.69 L 77.34 241.41" stroke="white" fill="transparent"/>
	<path d = "M 63.28 349.22 L 44.53 377.34 L 37.50 426.56" stroke="white" fill="transparent"/>
	<path d = "M 140.62 342.19 L 152.34 400.78" stroke="white" fill="transparent"/>
	<path d = "M 180.47 267.19 L 182.81 307.03 L 203.91 328.12" stroke="white" fill="transparent"/>
	<path d = "M 28.12 314.06 L 18.75 325.78 L 9.38 367.97" stroke="white" fill="transparent"/>
	<path d = "M 564.84 0.00 L 494.53 16.41 L 475.78 37.50 L 464.06 60.94 L 466.41 89.06 L 478.12 89.06 L 494.53 84.38 L 503.91 67.97 L 508.59 30.47 L 499.22 21.09 L 471.09 11.72" stroke="white" fill="transparent"/>
	<path d = "M 574.22 60.94 L 562.50 49.22 L 539.06 53.91 L 489.84 103.12 L 480.47 121.88 L 478.12 168.75 L 489.84 180.47 L 503.91 180.47 L 534.38 138.28 L 553.12 75.00 L 553.12 58.59 L 548.44 56.25 L 508.59 86.72" stroke="white" fill="transparent"/>
	<path d = "M 450.00 138.28 L 440.62 232.03" stroke="white" fill="transparent"/>
	<path d = "M 543.75 140.62 L 555.47 199.22" stroke="white" fill="transparent"/>
	<path d = "M 588.28 100.78 L 595.31 107.81 L 597.66 180.47" stroke="white" fill="transparent"/>
	<path d = "M 499.22 159.38 L 494.53 171.09 L 499.22 271.88" stroke="white" fill="transparent"/>
</svg>