<?xml version="1.0" encoding="UTF-8" standalone="no"?>
<!--Created with ndjsontosvg (https:https://github.com/thompson318/ndjsontosvg) 
	from the simplified Google quickdraw data set. key_id = 5431497672622080-->
<svg width="600" height="600"
	xmlns="http://www.w3.org/2000/svg">
	xmlns:ndjsontosvg="https://github.com/thompson318/ndjsontosvg"
	xmlns:quickdraw="https://quickdraw.withgoogle.com/data"
	xmlns:scikit-surgery="https://doi.org/10.1007/s11548-020-02180-5">

	<rect width="100%" height="100%" fill="black" />
	<path d = "M 145.31 7.03 L 121.88 7.03 L 67.97 25.78 L 9.38 86.72 L 0.00 119.53 L 4.69 142.97 L 16.41 157.03 L 65.62 187.50 L 131.25 196.88 L 173.44 189.84 L 206.25 145.31 L 220.31 119.53 L 217.97 86.72 L 208.59 67.97 L 161.72 21.09 L 124.22 0.00" stroke="white" fill="transparent"/>
	<path d = "M 283.59 44.53 L 229.69 56.25 L 225.00 135.94 L 311.72 138.28 L 375.00 117.19 L 421.88 84.38 L 419.53 49.22 L 403.12 30.47 L 349.22 11.72 L 222.66 11.72 L 201.56 18.75" stroke="white" fill="transparent"/>
	<path d = "M 492.19 21.09 L 440.62 21.09 L 353.91 42.19 L 335.16 56.25 L 328.12 70.31 L 339.84 105.47 L 356.25 114.84 L 403.12 126.56 L 482.81 124.22 L 510.94 117.19 L 597.66 42.19 L 567.19 28.12 L 431.25 30.47" stroke="white" fill="transparent"/>
	<path d = "M 53.91 175.78 L 75.00 239.06" stroke="white" fill="transparent"/>
	<path d = "M 103.12 192.19 L 112.50 241.41" stroke="white" fill="transparent"/>
	<path d = "M 255.47 142.97 L 274.22 229.69" stroke="white" fill="transparent"/>
</svg>