<?xml version="1.0" encoding="UTF-8" standalone="no"?>
<!--Created with ndjsontosvg (https:https://github.com/thompson318/ndjsontosvg) 
	from the simplified Google quickdraw data set. key_id = 4910417677647872-->
<svg width="600" height="600"
	xmlns="http://www.w3.org/2000/svg">
	xmlns:ndjsontosvg="https://github.com/thompson318/ndjsontosvg"
	xmlns:quickdraw="https://quickdraw.withgoogle.com/data"
	xmlns:scikit-surgery="https://doi.org/10.1007/s11548-020-02180-5">

	<rect width="100%" height="100%" fill="black" />
	<path d = "M 285.94 185.16 L 255.47 185.16 L 227.34 196.88 L 220.31 227.34 L 246.09 288.28 L 278.91 309.38 L 309.38 309.38 L 339.84 297.66 L 365.62 262.50 L 365.62 199.22 L 356.25 180.47" stroke="white" fill="transparent"/>
	<path d = "M 349.22 281.25 L 377.34 283.59 L 468.75 339.84 L 517.97 379.69 L 592.97 503.91 L 597.66 532.03 L 560.16 522.66 L 532.03 501.56 L 440.62 426.56 L 365.62 351.56 L 281.25 314.06" stroke="white" fill="transparent"/>
	<path d = "M 419.53 478.12 L 431.25 543.75" stroke="white" fill="transparent"/>
	<path d = "M 248.44 407.81 L 250.78 487.50" stroke="white" fill="transparent"/>
	<path d = "M 246.09 375.00 L 215.62 367.97 L 175.78 417.19" stroke="white" fill="transparent"/>
	<path d = "M 360.94 499.22 L 330.47 506.25" stroke="white" fill="transparent"/>
	<path d = "M 217.97 124.22 L 274.22 124.22 L 300.00 89.06 L 309.38 18.75" stroke="white" fill="transparent"/>
	<path d = "M 171.09 117.19 L 93.75 42.19 L 0.00 0.00" stroke="white" fill="transparent"/>
</svg>