<?xml version="1.0" encoding="UTF-8" standalone="no"?>
<!--Created with ndjsontosvg (https:https://github.com/thompson318/ndjsontosvg) 
	from the simplified Google quickdraw data set. key_id = 4999117493239808-->
<svg width="600" height="600"
	xmlns="http://www.w3.org/2000/svg">
	xmlns:ndjsontosvg="https://github.com/thompson318/ndjsontosvg"
	xmlns:quickdraw="https://quickdraw.withgoogle.com/data"
	xmlns:scikit-surgery="https://doi.org/10.1007/s11548-020-02180-5">

	<rect width="100%" height="100%" fill="black" />
	<path d = "M 283.59 187.50 L 302.34 246.09 L 346.88 255.47 L 414.84 255.47 L 466.41 243.75 L 529.69 215.62 L 569.53 182.81 L 597.66 91.41 L 590.62 51.56 L 541.41 35.16 L 405.47 39.84 L 330.47 75.00 L 290.62 119.53 L 283.59 147.66" stroke="white" fill="transparent"/>
	<path d = "M 154.69 4.69 L 28.12 107.81 L 4.69 154.69 L 0.00 255.47 L 39.84 283.59 L 131.25 290.62 L 232.03 267.19 L 330.47 222.66 L 342.19 171.09 L 295.31 131.25 L 229.69 103.12 L 135.94 79.69 L 159.38 0.00" stroke="white" fill="transparent"/>
	<path d = "M 135.94 353.91 L 142.97 435.94 L 175.78 454.69" stroke="white" fill="transparent"/>
	<path d = "M 482.81 318.75 L 494.53 426.56 L 506.25 450.00" stroke="white" fill="transparent"/>
	<path d = "M 393.75 278.91 L 393.75 351.56 L 426.56 393.75" stroke="white" fill="transparent"/>
	<path d = "M 267.19 267.19 L 278.91 363.28" stroke="white" fill="transparent"/>
</svg>