<?xml version="1.0" encoding="UTF-8" standalone="no"?>
<!--Created with ndjsontosvg (https:https://github.com/thompson318/ndjsontosvg) 
	from the simplified Google quickdraw data set. key_id = 6486342143836160-->
<svg width="600" height="600"
	xmlns="http://www.w3.org/2000/svg">
	xmlns:ndjsontosvg="https://github.com/thompson318/ndjsontosvg"
	xmlns:quickdraw="https://quickdraw.withgoogle.com/data"
	xmlns:scikit-surgery="https://doi.org/10.1007/s11548-020-02180-5">

	<rect width="100%" height="100%" fill="black" />
	<path d = "M 44.53 37.50 L 23.44 53.91 L 11.72 82.03 L 11.72 131.25 L 23.44 150.00 L 75.00 168.75 L 159.38 161.72 L 213.28 131.25 L 217.97 103.12 L 203.91 70.31 L 150.00 9.38 L 121.88 0.00 L 46.88 9.38 L 7.03 28.12 L 0.00 37.50 L 2.34 49.22" stroke="white" fill="transparent"/>
	<path d = "M 321.09 72.66 L 264.84 72.66 L 246.09 86.72 L 227.34 112.50 L 222.66 189.84 L 241.41 208.59 L 264.84 215.62 L 316.41 215.62 L 344.53 208.59 L 386.72 187.50 L 412.50 150.00 L 417.19 110.16 L 393.75 75.00 L 351.56 56.25 L 339.84 77.34" stroke="white" fill="transparent"/>
	<path d = "M 550.78 117.19 L 496.88 89.06 L 478.12 89.06 L 461.72 105.47 L 440.62 152.34 L 431.25 208.59 L 431.25 276.56 L 438.28 292.97 L 471.09 295.31 L 527.34 274.22 L 578.91 239.06 L 595.31 213.28 L 597.66 171.09 L 571.88 131.25 L 529.69 107.81 L 475.78 96.09" stroke="white" fill="transparent"/>
	<path d = "M 201.56 157.03 L 63.28 248.44" stroke="white" fill="transparent"/>
	<path d = "M 225.00 150.00 L 253.12 243.75 L 285.94 314.06" stroke="white" fill="transparent"/>
	<path d = "M 435.94 201.56 L 288.28 307.03 L 255.47 337.50 L 281.25 328.12" stroke="white" fill="transparent"/>
	<path d = "M 452.34 201.56 L 487.50 271.88 L 510.94 332.81 L 506.25 335.16" stroke="white" fill="transparent"/>
</svg>