<?xml version="1.0" encoding="UTF-8" standalone="no"?>
<!--Created with ndjsontosvg (https:https://github.com/thompson318/ndjsontosvg) 
	from the simplified Google quickdraw data set. key_id = 4590248384266240-->
<svg width="600" height="600"
	xmlns="http://www.w3.org/2000/svg">
	xmlns:ndjsontosvg="https://github.com/thompson318/ndjsontosvg"
	xmlns:quickdraw="https://quickdraw.withgoogle.com/data"
	xmlns:scikit-surgery="https://doi.org/10.1007/s11548-020-02180-5">

	<rect width="100%" height="100%" fill="black" />
	<path d = "M 225.00 4.69 L 159.38 4.69 L 114.84 21.09 L 77.34 49.22 L 77.34 77.34 L 82.03 86.72 L 93.75 93.75 L 199.22 91.41 L 229.69 82.03" stroke="white" fill="transparent"/>
	<path d = "M 201.56 7.03 L 517.97 0.00 L 562.50 9.38 L 585.94 25.78 L 597.66 56.25 L 574.22 93.75 L 539.06 103.12 L 454.69 93.75" stroke="white" fill="transparent"/>
	<path d = "M 194.53 91.41 L 185.16 93.75 L 227.34 128.91 L 234.38 145.31 L 220.31 187.50 L 220.31 243.75 L 206.25 248.44 L 175.78 241.41 L 152.34 260.16 L 152.34 283.59 L 180.47 292.97 L 304.69 288.28 L 438.28 267.19 L 515.62 267.19 L 520.31 243.75 L 492.19 140.62 L 438.28 96.09 L 442.97 93.75" stroke="white" fill="transparent"/>
	<path d = "M 140.62 7.03 L 135.94 21.09 L 117.19 32.81 L 37.50 60.94 L 0.00 82.03 L 28.12 98.44 L 175.78 93.75" stroke="white" fill="transparent"/>
</svg>