<?xml version="1.0" encoding="UTF-8" standalone="no"?>
<!--Created with ndjsontosvg (https:https://github.com/thompson318/ndjsontosvg) 
	from the simplified Google quickdraw data set. key_id = 6458241716322304-->
<svg width="600" height="600"
	xmlns="http://www.w3.org/2000/svg">
	xmlns:ndjsontosvg="https://github.com/thompson318/ndjsontosvg"
	xmlns:quickdraw="https://quickdraw.withgoogle.com/data"
	xmlns:scikit-surgery="https://doi.org/10.1007/s11548-020-02180-5">

	<rect width="100%" height="100%" fill="black" />
	<path d = "M 138.28 14.06 L 578.91 14.06 L 597.66 56.25 L 578.91 84.38 L 548.44 103.12 L 314.06 159.38 L 135.94 159.38 L 32.81 135.94 L 7.03 124.22 L 0.00 110.16 L 2.34 93.75 L 18.75 67.97 L 89.06 16.41 L 131.25 2.34 L 173.44 0.00" stroke="white" fill="transparent"/>
	<path d = "M 210.94 173.44 L 185.16 307.03 L 105.47 363.28 L 86.72 382.03 L 84.38 391.41 L 138.28 398.44 L 464.06 396.09 L 487.50 377.34 L 489.84 356.25 L 417.19 304.69 L 400.78 239.06 L 393.75 112.50" stroke="white" fill="transparent"/>
	<path d = "M 131.25 77.34 L 128.91 124.22 L 112.50 182.81 L 91.41 213.28 L 65.62 215.62" stroke="white" fill="transparent"/>
	<path d = "M 25.78 128.91 L 107.81 199.22 L 157.03 208.59 L 173.44 196.88" stroke="white" fill="transparent"/>
</svg>