<?xml version="1.0" encoding="UTF-8" standalone="no"?>
<!--Created with ndjsontosvg (https:https://github.com/thompson318/ndjsontosvg) 
	from the simplified Google quickdraw data set. key_id = 4627022749892608-->
<svg width="600" height="600"
	xmlns="http://www.w3.org/2000/svg">
	xmlns:ndjsontosvg="https://github.com/thompson318/ndjsontosvg"
	xmlns:quickdraw="https://quickdraw.withgoogle.com/data"
	xmlns:scikit-surgery="https://doi.org/10.1007/s11548-020-02180-5">

	<rect width="100%" height="100%" fill="black" />
	<path d = "M 253.12 457.03 L 271.88 487.50 L 271.88 541.41 L 255.47 564.84 L 210.94 583.59 L 138.28 597.66 L 70.31 597.66 L 32.81 536.72 L 14.06 480.47 L 0.00 414.84 L 0.00 335.16 L 25.78 307.03 L 75.00 290.62 L 103.12 290.62 L 124.22 297.66 L 150.00 321.09 L 192.19 255.47 L 229.69 239.06 L 328.12 234.38 L 382.03 253.12 L 424.22 309.38 L 428.91 471.09 L 400.78 494.53 L 339.84 508.59 L 260.16 508.59 L 239.06 503.91 L 234.38 489.84" stroke="white" fill="transparent"/>
	<path d = "M 140.62 290.62 L 126.56 264.84 L 121.88 222.66 L 107.81 196.88 L 56.25 0.00" stroke="white" fill="transparent"/>
	<path d = "M 107.81 215.62 L 117.19 178.12 L 135.94 145.31 L 187.50 93.75 L 220.31 75.00 L 267.19 65.62 L 285.94 89.06 L 288.28 117.19 L 274.22 150.00 L 196.88 236.72 L 131.25 285.94" stroke="white" fill="transparent"/>
</svg>