<?xml version="1.0" encoding="UTF-8" standalone="no"?>
<!--Created with ndjsontosvg (https:https://github.com/thompson318/ndjsontosvg) 
	from the simplified Google quickdraw data set. key_id = 5128114923372544-->
<svg width="600" height="600"
	xmlns="http://www.w3.org/2000/svg">
	xmlns:ndjsontosvg="https://github.com/thompson318/ndjsontosvg"
	xmlns:quickdraw="https://quickdraw.withgoogle.com/data"
	xmlns:scikit-surgery="https://doi.org/10.1007/s11548-020-02180-5">

	<rect width="100%" height="100%" fill="black" />
	<path d = "M 257.81 239.06 L 274.22 213.28 L 292.97 196.88 L 335.16 187.50 L 393.75 189.84 L 440.62 213.28 L 478.12 253.12 L 492.19 292.97 L 492.19 332.81 L 454.69 403.12 L 379.69 489.84 L 339.84 571.88 L 325.78 588.28 L 297.66 588.28 L 262.50 569.53 L 180.47 597.66 L 96.09 583.59 L 51.56 548.44 L 18.75 503.91 L 4.69 461.72 L 2.34 360.94 L 28.12 269.53 L 49.22 232.03 L 84.38 196.88 L 117.19 178.12 L 157.03 168.75 L 182.81 168.75 L 208.59 187.50 L 227.34 208.59 L 246.09 250.78 L 246.09 227.34 L 283.59 145.31 L 290.62 79.69 L 264.84 25.78 L 236.72 0.00 L 232.03 7.03 L 250.78 60.94 L 250.78 96.09 L 227.34 157.03 L 227.34 208.59 L 234.38 232.03 L 248.44 229.69 L 318.75 145.31 L 344.53 96.09 L 351.56 60.94 L 323.44 98.44 L 262.50 220.31" stroke="white" fill="transparent"/>
</svg>