<?xml version="1.0" encoding="UTF-8" standalone="no"?>
<!--Created with ndjsontosvg (https:https://github.com/thompson318/ndjsontosvg) 
	from the simplified Google quickdraw data set. key_id = 6170452214939648-->
<svg width="600" height="600"
	xmlns="http://www.w3.org/2000/svg">
	xmlns:ndjsontosvg="https://github.com/thompson318/ndjsontosvg"
	xmlns:quickdraw="https://quickdraw.withgoogle.com/data"
	xmlns:scikit-surgery="https://doi.org/10.1007/s11548-020-02180-5">

	<rect width="100%" height="100%" fill="black" />
	<path d = "M 0.00 220.31 L 147.66 168.75 L 386.72 135.94" stroke="white" fill="transparent"/>
	<path d = "M 25.78 337.50 L 180.47 337.50 L 283.59 283.59 L 414.84 201.56" stroke="white" fill="transparent"/>
	<path d = "M 377.34 131.25 L 377.34 82.03 L 384.38 65.62 L 440.62 14.06 L 452.34 79.69 L 450.00 100.78 L 452.34 67.97 L 461.72 44.53 L 489.84 14.06 L 517.97 0.00 L 522.66 37.50 L 501.56 84.38 L 550.78 49.22 L 557.81 58.59 L 550.78 84.38 L 522.66 117.19 L 576.56 86.72 L 590.62 82.03 L 597.66 89.06 L 592.97 126.56 L 583.59 138.28 L 560.16 150.00 L 510.94 157.03 L 560.16 171.09 L 560.16 182.81 L 546.09 192.19 L 454.69 203.91 L 389.06 189.84" stroke="white" fill="transparent"/>
</svg>