<?xml version="1.0" encoding="UTF-8" standalone="no"?>
<!--Created with ndjsontosvg (https:https://github.com/thompson318/ndjsontosvg) 
	from the simplified Google quickdraw data set. key_id = 4772144984621056-->
<svg width="600" height="600"
	xmlns="http://www.w3.org/2000/svg">
	xmlns:ndjsontosvg="https://github.com/thompson318/ndjsontosvg"
	xmlns:quickdraw="https://quickdraw.withgoogle.com/data"
	xmlns:scikit-surgery="https://doi.org/10.1007/s11548-020-02180-5">

	<rect width="100%" height="100%" fill="black" />
	<path d = "M 0.00 0.00 L 42.19 44.53 L 114.84 91.41 L 232.03 157.03 L 302.34 180.47 L 262.50 189.84 L 257.81 210.94 L 264.84 217.97 L 342.19 234.38 L 382.03 234.38 L 389.06 227.34 L 379.69 222.66 L 358.59 222.66 L 358.59 232.03 L 428.91 253.12 L 464.06 253.12 L 473.44 241.41 L 468.75 213.28 L 438.28 210.94 L 581.25 217.97 L 581.25 210.94 L 555.47 187.50 L 499.22 154.69 L 445.31 147.66 L 578.91 147.66 L 592.97 138.28 L 546.09 91.41 L 529.69 84.38 L 459.38 84.38 L 562.50 82.03 L 592.97 75.00 L 597.66 60.94 L 536.72 32.81 L 454.69 30.47" stroke="white" fill="transparent"/>
</svg>