<?xml version="1.0" encoding="UTF-8" standalone="no"?>
<!--Created with ndjsontosvg (https:https://github.com/thompson318/ndjsontosvg) 
	from the simplified Google quickdraw data set. key_id = 6163534314471424-->
<svg width="600" height="600"
	xmlns="http://www.w3.org/2000/svg">
	xmlns:ndjsontosvg="https://github.com/thompson318/ndjsontosvg"
	xmlns:quickdraw="https://quickdraw.withgoogle.com/data"
	xmlns:scikit-surgery="https://doi.org/10.1007/s11548-020-02180-5">

	<rect width="100%" height="100%" fill="black" />
	<path d = "M 16.41 592.97 L 18.75 499.22 L 0.00 384.38 L 49.22 110.16 L 51.56 0.00 L 65.62 30.47 L 75.00 96.09 L 77.34 342.19 L 93.75 389.06 L 96.09 424.22 L 96.09 485.16 L 84.38 578.91 L 79.69 574.22" stroke="white" fill="transparent"/>
	<path d = "M 46.88 210.94 L 42.19 288.28 L 46.88 346.88" stroke="white" fill="transparent"/>
	<path d = "M 67.97 391.41 L 65.62 492.19" stroke="white" fill="transparent"/>
	<path d = "M 67.97 527.34 L 72.66 569.53" stroke="white" fill="transparent"/>
	<path d = "M 96.09 365.62 L 96.09 314.06 L 107.81 253.12 L 173.44 89.06 L 222.66 0.00 L 227.34 42.19 L 196.88 257.81 L 196.88 349.22 L 182.81 464.06 L 126.56 592.97 L 117.19 597.66 L 105.47 574.22" stroke="white" fill="transparent"/>
	<path d = "M 133.59 255.47 L 142.97 285.94 L 138.28 342.19" stroke="white" fill="transparent"/>
	<path d = "M 150.00 412.50 L 150.00 417.19" stroke="white" fill="transparent"/>
	<path d = "M 140.62 478.12 L 117.19 541.41" stroke="white" fill="transparent"/>
</svg>