<?xml version="1.0" encoding="UTF-8" standalone="no"?>
<!--Created with ndjsontosvg (https:https://github.com/thompson318/ndjsontosvg) 
	from the simplified Google quickdraw data set. key_id = 6064946959876096-->
<svg width="600" height="600"
	xmlns="http://www.w3.org/2000/svg">
	xmlns:ndjsontosvg="https://github.com/thompson318/ndjsontosvg"
	xmlns:quickdraw="https://quickdraw.withgoogle.com/data"
	xmlns:scikit-surgery="https://doi.org/10.1007/s11548-020-02180-5">

	<rect width="100%" height="100%" fill="black" />
	<path d = "M 56.25 133.59 L 65.62 173.44 L 84.38 372.66 L 70.31 597.66 L 91.41 590.62 L 98.44 578.91 L 126.56 564.84 L 131.25 553.12 L 128.91 346.88 L 110.16 281.25 L 98.44 185.16 L 105.47 150.00 L 84.38 96.09 L 60.94 96.09 L 44.53 112.50" stroke="white" fill="transparent"/>
	<path d = "M 79.69 213.28 L 135.94 164.06" stroke="white" fill="transparent"/>
	<path d = "M 114.84 290.62 L 114.84 281.25 L 154.69 257.81 L 171.09 262.50" stroke="white" fill="transparent"/>
	<path d = "M 7.03 0.00 L 2.34 77.34 L 25.78 126.56 L 46.88 119.53 L 72.66 89.06 L 77.34 53.91 L 58.59 14.06 L 0.00 2.34" stroke="white" fill="transparent"/>
</svg>