<?xml version="1.0" encoding="UTF-8" standalone="no"?>
<!--Created with ndjsontosvg (https:https://github.com/thompson318/ndjsontosvg) 
	from the simplified Google quickdraw data set. key_id = 5191404533841920-->
<svg width="600" height="600"
	xmlns="http://www.w3.org/2000/svg">
	xmlns:ndjsontosvg="https://github.com/thompson318/ndjsontosvg"
	xmlns:quickdraw="https://quickdraw.withgoogle.com/data"
	xmlns:scikit-surgery="https://doi.org/10.1007/s11548-020-02180-5">

	<rect width="100%" height="100%" fill="black" />
	<path d = "M 79.69 128.91 L 67.97 262.50 L 30.47 485.16 L 9.38 562.50 L 2.34 567.19 L 0.00 553.12" stroke="white" fill="transparent"/>
	<path d = "M 77.34 128.91 L 70.31 107.81 L 63.28 114.84 L 63.28 110.16 L 93.75 32.81 L 105.47 30.47 L 126.56 4.69 L 131.25 49.22 L 161.72 14.06 L 185.16 0.00 L 187.50 25.78 L 171.09 70.31 L 147.66 86.72 L 128.91 89.06 L 91.41 107.81 L 75.00 142.97" stroke="white" fill="transparent"/>
	<path d = "M 135.94 86.72 L 128.91 164.06 L 91.41 278.91 L 75.00 351.56 L 63.28 529.69 L 39.84 592.97 L 28.12 597.66 L 4.69 585.94" stroke="white" fill="transparent"/>
</svg>