<?xml version="1.0" encoding="UTF-8" standalone="no"?>
<!--Created with ndjsontosvg (https:https://github.com/thompson318/ndjsontosvg) 
	from the simplified Google quickdraw data set. key_id = 5231316192722944-->
<svg width="600" height="600"
	xmlns="http://www.w3.org/2000/svg">
	xmlns:ndjsontosvg="https://github.com/thompson318/ndjsontosvg"
	xmlns:quickdraw="https://quickdraw.withgoogle.com/data"
	xmlns:scikit-surgery="https://doi.org/10.1007/s11548-020-02180-5">

	<rect width="100%" height="100%" fill="black" />
	<path d = "M 243.75 0.00 L 213.28 28.12 L 222.66 58.59 L 311.72 161.72 L 365.62 199.22 L 485.16 316.41 L 522.66 377.34 L 557.81 375.00 L 585.94 358.59 L 597.66 339.84 L 574.22 330.47 L 529.69 285.94 L 396.09 187.50 L 314.06 103.12 L 271.88 35.16 L 246.09 7.03" stroke="white" fill="transparent"/>
	<path d = "M 215.62 37.50 L 192.19 65.62 L 124.22 96.09 L 2.34 96.09 L 4.69 117.19 L 44.53 173.44 L 107.81 236.72 L 187.50 283.59 L 206.25 285.94 L 213.28 274.22 L 213.28 210.94 L 232.03 171.09 L 292.97 133.59" stroke="white" fill="transparent"/>
</svg>