<?xml version="1.0" encoding="UTF-8" standalone="no"?>
<!--Created with ndjsontosvg (https:https://github.com/thompson318/ndjsontosvg) 
	from the simplified Google quickdraw data set. key_id = 4630149033099264-->
<svg width="600" height="600"
	xmlns="http://www.w3.org/2000/svg">
	xmlns:ndjsontosvg="https://github.com/thompson318/ndjsontosvg"
	xmlns:quickdraw="https://quickdraw.withgoogle.com/data"
	xmlns:scikit-surgery="https://doi.org/10.1007/s11548-020-02180-5">

	<rect width="100%" height="100%" fill="black" />
	<path d = "M 119.53 367.97 L 128.91 243.75 L 138.28 213.28 L 171.09 168.75 L 210.94 133.59 L 276.56 98.44 L 358.59 96.09 L 405.47 112.50 L 447.66 150.00 L 501.56 283.59 L 506.25 386.72 L 487.50 421.88 L 433.59 473.44 L 367.97 496.88 L 295.31 499.22 L 274.22 482.81 L 173.44 440.62 L 135.94 375.00 L 133.59 288.28" stroke="white" fill="transparent"/>
	<path d = "M 173.44 403.12 L 185.16 332.81 L 217.97 264.84 L 290.62 196.88 L 335.16 196.88 L 358.59 206.25 L 419.53 302.34" stroke="white" fill="transparent"/>
	<path d = "M 428.91 351.56 L 438.28 393.75" stroke="white" fill="transparent"/>
	<path d = "M 442.97 421.88 L 440.62 424.22" stroke="white" fill="transparent"/>
	<path d = "M 426.56 302.34 L 414.84 318.75 L 433.59 323.44 L 438.28 295.31 L 457.03 276.56 L 475.78 285.94 L 478.12 314.06 L 435.94 311.72" stroke="white" fill="transparent"/>
	<path d = "M 196.88 133.59 L 164.06 58.59 L 142.97 42.19 L 110.16 37.50 L 77.34 44.53 L 53.91 58.59 L 16.41 124.22 L 4.69 187.50 L 0.00 344.53 L 14.06 396.09 L 42.19 412.50 L 63.28 379.69 L 70.31 220.31 L 89.06 164.06 L 126.56 114.84 L 133.59 117.19 L 159.38 168.75" stroke="white" fill="transparent"/>
	<path d = "M 412.50 107.81 L 433.59 53.91 L 452.34 32.81 L 515.62 2.34 L 564.84 0.00 L 576.56 9.38 L 590.62 39.84 L 597.66 77.34 L 597.66 152.34 L 578.91 267.19 L 546.09 351.56" stroke="white" fill="transparent"/>
</svg>