<?xml version="1.0" encoding="UTF-8" standalone="no"?>
<!--Created with ndjsontosvg (https:https://github.com/thompson318/ndjsontosvg) 
	from the simplified Google quickdraw data set. key_id = 6113728967737344-->
<svg width="600" height="600"
	xmlns="http://www.w3.org/2000/svg">
	xmlns:ndjsontosvg="https://github.com/thompson318/ndjsontosvg"
	xmlns:quickdraw="https://quickdraw.withgoogle.com/data"
	xmlns:scikit-surgery="https://doi.org/10.1007/s11548-020-02180-5">

	<rect width="100%" height="100%" fill="black" />
	<path d = "M 98.44 93.75 L 96.09 248.44 L 126.56 454.69 L 157.03 503.91 L 208.59 527.34 L 332.81 527.34 L 396.09 510.94 L 405.47 489.84 L 405.47 370.31 L 353.91 194.53 L 316.41 135.94 L 248.44 89.06 L 168.75 56.25 L 133.59 60.94 L 114.84 82.03 L 112.50 96.09" stroke="white" fill="transparent"/>
	<path d = "M 152.34 225.00 L 175.78 232.03 L 248.44 232.03 L 264.84 225.00" stroke="white" fill="transparent"/>
	<path d = "M 199.22 400.78 L 295.31 393.75 L 307.03 389.06 L 307.03 377.34" stroke="white" fill="transparent"/>
	<path d = "M 157.03 39.84 L 157.03 21.09 L 187.50 21.09 L 196.88 28.12 L 206.25 60.94" stroke="white" fill="transparent"/>
	<path d = "M 292.97 107.81 L 295.31 63.28 L 304.69 39.84 L 337.50 9.38 L 360.94 0.00 L 426.56 0.00 L 452.34 7.03 L 494.53 46.88 L 585.94 208.59 L 597.66 241.41 L 595.31 307.03 L 569.53 410.16 L 503.91 412.50 L 417.19 386.72" stroke="white" fill="transparent"/>
	<path d = "M 103.12 72.66 L 98.44 51.56 L 72.66 21.09 L 39.84 9.38 L 18.75 7.03 L 0.00 63.28 L 0.00 112.50 L 63.28 281.25 L 77.34 302.34 L 110.16 321.09" stroke="white" fill="transparent"/>
</svg>