<?xml version="1.0" encoding="UTF-8" standalone="no"?>
<!--Created with ndjsontosvg (https:https://github.com/thompson318/ndjsontosvg) 
	from the simplified Google quickdraw data set. key_id = 6180733175463936-->
<svg width="600" height="600"
	xmlns="http://www.w3.org/2000/svg">
	xmlns:ndjsontosvg="https://github.com/thompson318/ndjsontosvg"
	xmlns:quickdraw="https://quickdraw.withgoogle.com/data"
	xmlns:scikit-surgery="https://doi.org/10.1007/s11548-020-02180-5">

	<rect width="100%" height="100%" fill="black" />
	<path d = "M 447.66 147.66 L 517.97 117.19 L 581.25 42.19 L 592.97 35.16 L 597.66 133.59 L 560.16 236.72" stroke="white" fill="transparent"/>
	<path d = "M 447.66 154.69 L 372.66 175.78 L 246.09 178.12 L 196.88 171.09 L 86.72 138.28" stroke="white" fill="transparent"/>
	<path d = "M 560.16 239.06 L 485.16 241.41 L 393.75 255.47 L 124.22 257.81 L 65.62 229.69 L 18.75 189.84" stroke="white" fill="transparent"/>
	<path d = "M 30.47 185.16 L 7.03 100.78 L 2.34 51.56" stroke="white" fill="transparent"/>
	<path d = "M 79.69 135.94 L 65.62 126.56 L 53.91 105.47 L 35.16 21.09" stroke="white" fill="transparent"/>
	<path d = "M 4.69 18.75 L 0.00 30.47 L 4.69 42.19 L 35.16 37.50 L 42.19 4.69 L 32.81 0.00 L 25.78 0.00 L 21.09 11.72 L 25.78 25.78" stroke="white" fill="transparent"/>
</svg>