<?xml version="1.0" encoding="UTF-8" standalone="no"?>
<!--Created with ndjsontosvg (https:https://github.com/thompson318/ndjsontosvg) 
	from the simplified Google quickdraw data set. key_id = 4757329171972096-->
<svg width="600" height="600"
	xmlns="http://www.w3.org/2000/svg">
	xmlns:ndjsontosvg="https://github.com/thompson318/ndjsontosvg"
	xmlns:quickdraw="https://quickdraw.withgoogle.com/data"
	xmlns:scikit-surgery="https://doi.org/10.1007/s11548-020-02180-5">

	<rect width="100%" height="100%" fill="black" />
	<path d = "M 53.91 39.84 L 140.62 28.12 L 274.22 25.78 L 525.00 0.00 L 574.22 30.47 L 590.62 60.94 L 597.66 131.25 L 571.88 166.41 L 532.03 182.81 L 468.75 189.84 L 281.25 199.22 L 18.75 194.53 L 0.00 173.44 L 23.44 86.72 L 23.44 42.19 L 35.16 35.16 L 63.28 35.16" stroke="white" fill="transparent"/>
	<path d = "M 236.72 53.91 L 375.00 56.25 L 379.69 147.66 L 370.31 164.06 L 288.28 166.41 L 222.66 154.69 L 220.31 119.53 L 246.09 51.56" stroke="white" fill="transparent"/>
	<path d = "M 100.78 58.59 L 91.41 60.94" stroke="white" fill="transparent"/>
	<path d = "M 154.69 70.31 L 157.03 65.62 L 164.06 70.31" stroke="white" fill="transparent"/>
	<path d = "M 121.88 119.53 L 96.09 133.59 L 112.50 140.62" stroke="white" fill="transparent"/>
</svg>