<?xml version="1.0" encoding="UTF-8" standalone="no"?>
<!--Created with ndjsontosvg (https:https://github.com/thompson318/ndjsontosvg) 
	from the simplified Google quickdraw data set. key_id = 5763855814754304-->
<svg width="600" height="600"
	xmlns="http://www.w3.org/2000/svg">
	xmlns:ndjsontosvg="https://github.com/thompson318/ndjsontosvg"
	xmlns:quickdraw="https://quickdraw.withgoogle.com/data"
	xmlns:scikit-surgery="https://doi.org/10.1007/s11548-020-02180-5">

	<rect width="100%" height="100%" fill="black" />
	<path d = "M 103.12 23.44 L 51.56 28.12 L 14.06 49.22 L 0.00 89.06 L 4.69 135.94 L 150.00 159.38 L 274.22 189.84 L 414.84 192.19 L 520.31 222.66 L 585.94 222.66 L 595.31 208.59 L 597.66 185.16 L 550.78 133.59 L 525.00 114.84 L 412.50 75.00 L 267.19 46.88 L 128.91 0.00" stroke="white" fill="transparent"/>
	<path d = "M 262.50 39.84 L 215.62 58.59 L 194.53 84.38 L 194.53 138.28 L 206.25 161.72 L 225.00 164.06" stroke="white" fill="transparent"/>
	<path d = "M 335.16 75.00 L 335.16 140.62 L 325.78 168.75 L 288.28 206.25 L 274.22 213.28" stroke="white" fill="transparent"/>
</svg>