<?xml version="1.0" encoding="UTF-8" standalone="no"?>
<!--Created with ndjsontosvg (https:https://github.com/thompson318/ndjsontosvg) 
	from the simplified Google quickdraw data set. key_id = 5681562513309696-->
<svg width="600" height="600"
	xmlns="http://www.w3.org/2000/svg">
	xmlns:ndjsontosvg="https://github.com/thompson318/ndjsontosvg"
	xmlns:quickdraw="https://quickdraw.withgoogle.com/data"
	xmlns:scikit-surgery="https://doi.org/10.1007/s11548-020-02180-5">

	<rect width="100%" height="100%" fill="black" />
	<path d = "M 250.78 152.34 L 250.78 152.34" stroke="white" fill="transparent"/>
	<path d = "M 121.88 189.84 L 229.69 239.06 L 461.72 250.78 L 506.25 239.06 L 583.59 178.12 L 597.66 159.38 L 466.41 63.28 L 391.41 37.50 L 330.47 25.78 L 103.12 25.78 L 63.28 42.19 L 35.16 60.94 L 2.34 98.44 L 0.00 114.84 L 2.34 131.25 L 91.41 194.53" stroke="white" fill="transparent"/>
	<path d = "M 274.22 203.91 L 271.88 91.41 L 278.91 18.75 L 276.56 234.38" stroke="white" fill="transparent"/>
	<path d = "M 410.16 241.41 L 405.47 227.34 L 405.47 14.06 L 391.41 0.00" stroke="white" fill="transparent"/>
	<path d = "M 300.00 194.53 L 300.00 194.53" stroke="white" fill="transparent"/>
	<path d = "M 349.22 168.75 L 349.22 168.75" stroke="white" fill="transparent"/>
</svg>