<?xml version="1.0" encoding="UTF-8" standalone="no"?>
<!--Created with ndjsontosvg (https:https://github.com/thompson318/ndjsontosvg) 
	from the simplified Google quickdraw data set. key_id = 5070314134306816-->
<svg width="600" height="600"
	xmlns="http://www.w3.org/2000/svg">
	xmlns:ndjsontosvg="https://github.com/thompson318/ndjsontosvg"
	xmlns:quickdraw="https://quickdraw.withgoogle.com/data"
	xmlns:scikit-surgery="https://doi.org/10.1007/s11548-020-02180-5">

	<rect width="100%" height="100%" fill="black" />
	<path d = "M 356.25 14.06 L 220.31 14.06 L 145.31 2.34 L 65.62 30.47 L 14.06 39.84 L 0.00 58.59 L 14.06 96.09 L 32.81 107.81 L 75.00 112.50 L 510.94 114.84 L 555.47 105.47 L 583.59 84.38 L 597.66 49.22 L 597.66 30.47 L 581.25 7.03 L 370.31 0.00 L 295.31 21.09" stroke="white" fill="transparent"/>
	<path d = "M 107.81 4.69 L 110.16 72.66 L 119.53 105.47 L 124.22 114.84 L 152.34 117.19" stroke="white" fill="transparent"/>
	<path d = "M 480.47 0.00 L 454.69 79.69 L 454.69 112.50" stroke="white" fill="transparent"/>
	<path d = "M 236.72 39.84 L 220.31 72.66 L 232.03 82.03 L 377.34 82.03 L 389.06 77.34 L 393.75 63.28 L 386.72 32.81 L 375.00 23.44 L 339.84 25.78" stroke="white" fill="transparent"/>
</svg>