<?xml version="1.0" encoding="UTF-8" standalone="no"?>
<!--Created with ndjsontosvg (https:https://github.com/thompson318/ndjsontosvg) 
	from the simplified Google quickdraw data set. key_id = 6574569747906560-->
<svg width="600" height="600"
	xmlns="http://www.w3.org/2000/svg">
	xmlns:ndjsontosvg="https://github.com/thompson318/ndjsontosvg"
	xmlns:quickdraw="https://quickdraw.withgoogle.com/data"
	xmlns:scikit-surgery="https://doi.org/10.1007/s11548-020-02180-5">

	<rect width="100%" height="100%" fill="black" />
	<path d = "M 18.75 7.03 L 21.09 339.84 L 30.47 475.78" stroke="white" fill="transparent"/>
	<path d = "M 9.38 18.75 L 210.94 18.75 L 377.34 4.69 L 578.91 46.88 L 588.28 53.91 L 557.81 150.00 L 548.44 220.31 L 548.44 255.47 L 581.25 424.22 L 98.44 475.78" stroke="white" fill="transparent"/>
	<path d = "M 0.00 44.53 L 14.06 70.31 L 178.12 269.53" stroke="white" fill="transparent"/>
	<path d = "M 135.94 0.00 L 178.12 65.62 L 271.88 175.78" stroke="white" fill="transparent"/>
	<path d = "M 553.12 44.53 L 494.53 86.72 L 358.59 152.34 L 304.69 194.53" stroke="white" fill="transparent"/>
	<path d = "M 597.66 147.66 L 475.78 239.06 L 417.19 292.97 L 377.34 344.53" stroke="white" fill="transparent"/>
	<path d = "M 147.66 290.62 L 161.72 318.75 L 217.97 386.72 L 307.03 468.75" stroke="white" fill="transparent"/>
	<path d = "M 267.19 288.28 L 332.81 389.06 L 372.66 431.25" stroke="white" fill="transparent"/>
	<path d = "M 128.91 337.50 L 84.38 419.53 L 60.94 447.66" stroke="white" fill="transparent"/>
	<path d = "M 210.94 351.56 L 199.22 382.03 L 140.62 461.72 L 126.56 499.22" stroke="white" fill="transparent"/>
</svg>