<?xml version="1.0" encoding="UTF-8" standalone="no"?>
<!--Created with ndjsontosvg (https:https://github.com/thompson318/ndjsontosvg) 
	from the simplified Google quickdraw data set. key_id = 5841690290028544-->
<svg width="600" height="600"
	xmlns="http://www.w3.org/2000/svg">
	xmlns:ndjsontosvg="https://github.com/thompson318/ndjsontosvg"
	xmlns:quickdraw="https://quickdraw.withgoogle.com/data"
	xmlns:scikit-surgery="https://doi.org/10.1007/s11548-020-02180-5">

	<rect width="100%" height="100%" fill="black" />
	<path d = "M 323.44 431.25 L 314.06 426.56" stroke="white" fill="transparent"/>
	<path d = "M 28.12 140.62 L 32.81 255.47 L 16.41 421.88 L 18.75 450.00 L 28.12 461.72 L 138.28 461.72 L 335.16 440.62 L 527.34 433.59 L 536.72 178.12 L 532.03 128.91 L 517.97 107.81 L 496.88 98.44 L 433.59 96.09 L 250.78 100.78 L 65.62 126.56 L 39.84 135.94" stroke="white" fill="transparent"/>
	<path d = "M 0.00 201.56 L 56.25 112.50 L 157.03 7.03" stroke="white" fill="transparent"/>
	<path d = "M 597.66 243.75 L 426.56 0.00" stroke="white" fill="transparent"/>
	<path d = "M 187.50 457.03 L 178.12 438.28 L 175.78 377.34 L 194.53 292.97 L 232.03 246.09 L 271.88 229.69 L 325.78 239.06 L 360.94 269.53 L 393.75 346.88 L 405.47 431.25" stroke="white" fill="transparent"/>
</svg>