<?xml version="1.0" encoding="UTF-8" standalone="no"?>
<!--Created with ndjsontosvg (https:https://github.com/thompson318/ndjsontosvg) 
	from the simplified Google quickdraw data set. key_id = 5662036484685824-->
<svg width="600" height="600"
	xmlns="http://www.w3.org/2000/svg">
	xmlns:ndjsontosvg="https://github.com/thompson318/ndjsontosvg"
	xmlns:quickdraw="https://quickdraw.withgoogle.com/data"
	xmlns:scikit-surgery="https://doi.org/10.1007/s11548-020-02180-5">

	<rect width="100%" height="100%" fill="black" />
	<path d = "M 42.19 574.22 L 39.84 447.66 L 56.25 344.53 L 58.59 276.56" stroke="white" fill="transparent"/>
	<path d = "M 84.38 592.97 L 271.88 564.84 L 328.12 564.84 L 452.34 597.66 L 475.78 597.66 L 482.81 585.94 L 464.06 525.00 L 457.03 360.94 L 438.28 217.97 L 403.12 91.41 L 382.03 53.91 L 351.56 28.12 L 309.38 18.75 L 276.56 21.09 L 236.72 37.50 L 185.16 77.34 L 79.69 222.66 L 60.94 262.50 L 39.84 281.25 L 0.00 339.84 L 105.47 175.78 L 42.19 260.16 L 103.12 159.38 L 140.62 110.16 L 91.41 180.47 L 7.03 330.47 L 140.62 133.59 L 77.34 210.94 L 246.09 0.00 L 234.38 14.06 L 248.44 18.75 L 314.06 23.44 L 360.94 42.19 L 421.88 79.69 L 386.72 39.84 L 407.81 51.56 L 440.62 91.41 L 461.72 135.94 L 435.94 114.84 L 510.94 217.97 L 541.41 285.94" stroke="white" fill="transparent"/>
	<path d = "M 119.53 543.75 L 112.50 353.91 L 119.53 285.94 L 126.56 281.25 L 396.09 267.19 L 447.66 389.06 L 457.03 464.06 L 442.97 496.88 L 309.38 522.66 L 112.50 529.69" stroke="white" fill="transparent"/>
	<path d = "M 135.94 525.00 L 168.75 412.50 L 222.66 309.38 L 229.69 285.94" stroke="white" fill="transparent"/>
	<path d = "M 124.22 285.94 L 232.03 419.53 L 274.22 487.50 L 302.34 517.97 L 302.34 464.06 L 389.06 285.94" stroke="white" fill="transparent"/>
</svg>