<?xml version="1.0" encoding="UTF-8" standalone="no"?>
<!--Created with ndjsontosvg (https:https://github.com/thompson318/ndjsontosvg) 
	from the simplified Google quickdraw data set. key_id = 6534132702117888-->
<svg width="600" height="600"
	xmlns="http://www.w3.org/2000/svg">
	xmlns:ndjsontosvg="https://github.com/thompson318/ndjsontosvg"
	xmlns:quickdraw="https://quickdraw.withgoogle.com/data"
	xmlns:scikit-surgery="https://doi.org/10.1007/s11548-020-02180-5">

	<rect width="100%" height="100%" fill="black" />
	<path d = "M 309.38 557.81 L 309.38 557.81" stroke="white" fill="transparent"/>
	<path d = "M 77.34 548.44 L 241.41 574.22 L 517.97 576.56 L 473.44 426.56 L 457.03 335.16 L 445.31 166.41 L 445.31 175.78 L 452.34 175.78 L 464.06 164.06 L 475.78 142.97 L 478.12 117.19 L 457.03 72.66 L 426.56 42.19 L 403.12 30.47 L 278.91 4.69 L 145.31 2.34 L 60.94 35.16 L 23.44 98.44 L 4.69 142.97 L 0.00 201.56 L 11.72 206.25 L 82.03 152.34 L 93.75 150.00 L 96.09 217.97 L 70.31 276.56 L 65.62 370.31 L 65.62 440.62 L 82.03 482.81 L 89.06 536.72" stroke="white" fill="transparent"/>
	<path d = "M 178.12 557.81 L 154.69 520.31 L 145.31 482.81 L 142.97 398.44 L 152.34 360.94 L 201.56 269.53 L 246.09 229.69 L 274.22 217.97 L 318.75 217.97 L 356.25 269.53 L 424.22 407.81 L 433.59 527.34" stroke="white" fill="transparent"/>
	<path d = "M 278.91 234.38 L 281.25 398.44 L 292.97 471.09 L 292.97 585.94 L 297.66 597.66 L 300.00 590.62" stroke="white" fill="transparent"/>
</svg>