<?xml version="1.0" encoding="UTF-8" standalone="no"?>
<!--Created with ndjsontosvg (https:https://github.com/thompson318/ndjsontosvg) 
	from the simplified Google quickdraw data set. key_id = 4645516929400832-->
<svg width="600" height="600"
	xmlns="http://www.w3.org/2000/svg">
	xmlns:ndjsontosvg="https://github.com/thompson318/ndjsontosvg"
	xmlns:quickdraw="https://quickdraw.withgoogle.com/data"
	xmlns:scikit-surgery="https://doi.org/10.1007/s11548-020-02180-5">

	<rect width="100%" height="100%" fill="black" />
	<path d = "M 30.47 318.75 L 2.34 330.47 L 0.00 346.88 L 56.25 414.84 L 65.62 389.06 L 58.59 363.28 L 67.97 353.91 L 178.12 300.00 L 269.53 248.44 L 344.53 222.66 L 487.50 213.28 L 546.09 185.16 L 578.91 152.34 L 597.66 56.25 L 571.88 14.06 L 534.38 0.00 L 499.22 0.00 L 400.78 39.84 L 328.12 82.03 L 260.16 133.59 L 100.78 210.94 L 79.69 241.41 L 60.94 288.28 L 35.16 311.72 L 86.72 300.00 L 131.25 262.50 L 210.94 217.97 L 304.69 135.94 L 379.69 86.72 L 412.50 39.84 L 433.59 28.12 L 466.41 35.16" stroke="white" fill="transparent"/>
</svg>