<?xml version="1.0" encoding="UTF-8" standalone="no"?>
<!--Created with ndjsontosvg (https:https://github.com/thompson318/ndjsontosvg) 
	from the simplified Google quickdraw data set. key_id = 5234257158995968-->
<svg width="600" height="600"
	xmlns="http://www.w3.org/2000/svg">
	xmlns:ndjsontosvg="https://github.com/thompson318/ndjsontosvg"
	xmlns:quickdraw="https://quickdraw.withgoogle.com/data"
	xmlns:scikit-surgery="https://doi.org/10.1007/s11548-020-02180-5">

	<rect width="100%" height="100%" fill="black" />
	<path d = "M 166.41 9.38 L 203.91 0.00 L 264.84 21.09 L 307.03 51.56 L 346.88 110.16 L 386.72 222.66 L 407.81 323.44 L 375.00 494.53 L 332.81 555.47 L 290.62 585.94 L 210.94 585.94 L 138.28 541.41 L 51.56 454.69 L 14.06 377.34 L 0.00 309.38 L 0.00 241.41 L 16.41 171.09 L 53.91 121.88 L 86.72 91.41 L 119.53 77.34 L 178.12 75.00" stroke="white" fill="transparent"/>
	<path d = "M 360.94 213.28 L 307.03 217.97 L 274.22 239.06 L 222.66 316.41 L 187.50 417.19 L 182.81 457.03 L 185.16 525.00 L 210.94 597.66" stroke="white" fill="transparent"/>
	<path d = "M 353.91 335.16 L 314.06 295.31 L 150.00 189.84" stroke="white" fill="transparent"/>
	<path d = "M 321.09 461.72 L 189.84 400.78 L 126.56 353.91" stroke="white" fill="transparent"/>
	<path d = "M 288.28 541.41 L 250.78 534.38 L 145.31 464.06" stroke="white" fill="transparent"/>
</svg>