<?xml version="1.0" encoding="UTF-8" standalone="no"?>
<!--Created with ndjsontosvg (https:https://github.com/thompson318/ndjsontosvg) 
	from the simplified Google quickdraw data set. key_id = 4512892986589184-->
<svg width="600" height="600"
	xmlns="http://www.w3.org/2000/svg">
	xmlns:ndjsontosvg="https://github.com/thompson318/ndjsontosvg"
	xmlns:quickdraw="https://quickdraw.withgoogle.com/data"
	xmlns:scikit-surgery="https://doi.org/10.1007/s11548-020-02180-5">

	<rect width="100%" height="100%" fill="black" />
	<path d = "M 304.69 2.34 L 194.53 7.03 L 110.16 53.91 L 60.94 107.81 L 14.06 178.12 L 0.00 246.09 L 7.03 314.06 L 28.12 382.03 L 96.09 485.16 L 152.34 529.69 L 208.59 550.78 L 236.72 550.78 L 342.19 532.03 L 391.41 506.25 L 440.62 457.03 L 478.12 398.44 L 499.22 309.38 L 473.44 175.78 L 459.38 138.28 L 431.25 96.09 L 365.62 46.88 L 321.09 25.78 L 225.00 0.00 L 189.84 7.03" stroke="white" fill="transparent"/>
	<path d = "M 150.00 25.78 L 213.28 330.47 L 229.69 597.66 L 241.41 550.78" stroke="white" fill="transparent"/>
	<path d = "M 264.84 14.06 L 290.62 128.91" stroke="white" fill="transparent"/>
	<path d = "M 316.41 450.00 L 316.41 499.22" stroke="white" fill="transparent"/>
</svg>