<?xml version="1.0" encoding="UTF-8" standalone="no"?>
<!--Created with ndjsontosvg (https:https://github.com/thompson318/ndjsontosvg) 
	from the simplified Google quickdraw data set. key_id = 5856841839935488-->
<svg width="600" height="600"
	xmlns="http://www.w3.org/2000/svg">
	xmlns:ndjsontosvg="https://github.com/thompson318/ndjsontosvg"
	xmlns:quickdraw="https://quickdraw.withgoogle.com/data"
	xmlns:scikit-surgery="https://doi.org/10.1007/s11548-020-02180-5">

	<rect width="100%" height="100%" fill="black" />
	<path d = "M 278.91 2.34 L 147.66 0.00 L 84.38 18.75 L 32.81 124.22 L 0.00 295.31 L 0.00 384.38 L 23.44 424.22 L 173.44 473.44 L 217.97 501.56 L 276.56 508.59 L 384.38 508.59 L 419.53 475.78 L 543.75 428.91 L 585.94 396.09 L 597.66 349.22 L 597.66 290.62 L 574.22 217.97 L 522.66 121.88 L 428.91 51.56 L 328.12 7.03" stroke="white" fill="transparent"/>
	<path d = "M 110.16 23.44 L 138.28 138.28 L 140.62 328.12 L 126.56 405.47 L 103.12 435.94" stroke="white" fill="transparent"/>
	<path d = "M 398.44 67.97 L 398.44 335.16 L 431.25 424.22 L 457.03 447.66" stroke="white" fill="transparent"/>
</svg>