<?xml version="1.0" encoding="UTF-8" standalone="no"?>
<!--Created with ndjsontosvg (https:https://github.com/thompson318/ndjsontosvg) 
	from the simplified Google quickdraw data set. key_id = 5560524953616384-->
<svg width="600" height="600"
	xmlns="http://www.w3.org/2000/svg">
	xmlns:ndjsontosvg="https://github.com/thompson318/ndjsontosvg"
	xmlns:quickdraw="https://quickdraw.withgoogle.com/data"
	xmlns:scikit-surgery="https://doi.org/10.1007/s11548-020-02180-5">

	<rect width="100%" height="100%" fill="black" />
	<path d = "M 316.41 30.47 L 229.69 56.25 L 161.72 98.44 L 79.69 201.56 L 14.06 307.03 L 0.00 351.56 L 11.72 419.53 L 39.84 468.75 L 75.00 506.25 L 154.69 541.41 L 271.88 543.75 L 372.66 503.91 L 419.53 478.12 L 555.47 358.59 L 592.97 283.59 L 597.66 196.88 L 574.22 140.62 L 534.38 84.38 L 475.78 37.50 L 419.53 2.34 L 375.00 0.00 L 300.00 23.44 L 241.41 30.47 L 210.94 42.19 L 171.09 70.31" stroke="white" fill="transparent"/>
	<path d = "M 239.06 51.56 L 274.22 182.81 L 274.22 337.50 L 225.00 452.34 L 187.50 496.88 L 142.97 527.34" stroke="white" fill="transparent"/>
	<path d = "M 478.12 39.84 L 435.94 353.91 L 421.88 398.44 L 417.19 478.12" stroke="white" fill="transparent"/>
</svg>