<?xml version="1.0" encoding="UTF-8" standalone="no"?>
<!--Created with ndjsontosvg (https:https://github.com/thompson318/ndjsontosvg) 
	from the simplified Google quickdraw data set. key_id = 6543960052858880-->
<svg width="600" height="600"
	xmlns="http://www.w3.org/2000/svg">
	xmlns:ndjsontosvg="https://github.com/thompson318/ndjsontosvg"
	xmlns:quickdraw="https://quickdraw.withgoogle.com/data"
	xmlns:scikit-surgery="https://doi.org/10.1007/s11548-020-02180-5">

	<rect width="100%" height="100%" fill="black" />
	<path d = "M 332.81 107.81 L 316.41 72.66 L 283.59 42.19 L 229.69 25.78 L 178.12 21.09 L 128.91 25.78 L 98.44 42.19 L 70.31 63.28 L 37.50 105.47 L 14.06 187.50 L 16.41 248.44 L 28.12 283.59 L 79.69 375.00 L 128.91 426.56 L 159.38 445.31 L 194.53 461.72 L 274.22 471.09 L 316.41 471.09 L 398.44 450.00 L 438.28 433.59 L 501.56 386.72 L 543.75 337.50 L 562.50 290.62 L 562.50 236.72 L 543.75 187.50 L 508.59 142.97 L 461.72 103.12 L 407.81 75.00 L 351.56 60.94 L 222.66 49.22" stroke="white" fill="transparent"/>
	<path d = "M 152.34 35.16 L 154.69 189.84 L 173.44 450.00" stroke="white" fill="transparent"/>
	<path d = "M 321.09 0.00 L 292.97 185.16 L 292.97 459.38" stroke="white" fill="transparent"/>
	<path d = "M 431.25 89.06 L 426.56 274.22 L 410.16 442.97" stroke="white" fill="transparent"/>
	<path d = "M 0.00 168.75 L 9.38 164.06 L 75.00 159.38 L 180.47 161.72 L 541.41 225.00 L 597.66 229.69" stroke="white" fill="transparent"/>
</svg>