<?xml version="1.0" encoding="UTF-8" standalone="no"?>
<!--Created with ndjsontosvg (https:https://github.com/thompson318/ndjsontosvg) 
	from the simplified Google quickdraw data set. key_id = 5931754072309760-->
<svg width="600" height="600"
	xmlns="http://www.w3.org/2000/svg">
	xmlns:ndjsontosvg="https://github.com/thompson318/ndjsontosvg"
	xmlns:quickdraw="https://quickdraw.withgoogle.com/data"
	xmlns:scikit-surgery="https://doi.org/10.1007/s11548-020-02180-5">

	<rect width="100%" height="100%" fill="black" />
	<path d = "M 250.78 257.81 L 82.03 281.25 L 58.59 292.97 L 30.47 344.53 L 11.72 407.81 L 0.00 501.56 L 16.41 555.47 L 25.78 567.19 L 98.44 597.66 L 140.62 597.66 L 332.81 569.53 L 398.44 546.09 L 421.88 532.03 L 447.66 480.47 L 450.00 457.03 L 431.25 346.88 L 414.84 337.50 L 316.41 316.41 L 271.88 281.25 L 213.28 262.50" stroke="white" fill="transparent"/>
	<path d = "M 56.25 283.59 L 79.69 220.31 L 84.38 185.16 L 126.56 126.56 L 157.03 39.84 L 185.16 7.03 L 222.66 0.00 L 262.50 18.75 L 285.94 49.22 L 375.00 217.97 L 393.75 283.59 L 414.84 309.38" stroke="white" fill="transparent"/>
</svg>