<?xml version="1.0" encoding="UTF-8" standalone="no"?>
<!--Created with ndjsontosvg (https:https://github.com/thompson318/ndjsontosvg) 
	from the simplified Google quickdraw data set. key_id = 4749242553860096-->
<svg width="600" height="600"
	xmlns="http://www.w3.org/2000/svg">
	xmlns:ndjsontosvg="https://github.com/thompson318/ndjsontosvg"
	xmlns:quickdraw="https://quickdraw.withgoogle.com/data"
	xmlns:scikit-surgery="https://doi.org/10.1007/s11548-020-02180-5">

	<rect width="100%" height="100%" fill="black" />
	<path d = "M 11.72 316.41 L 53.91 342.19 L 154.69 339.84 L 309.38 295.31 L 431.25 269.53 L 445.31 257.81" stroke="white" fill="transparent"/>
	<path d = "M 2.34 311.72 L 2.34 342.19 L 44.53 468.75 L 63.28 510.94 L 89.06 548.44 L 124.22 576.56 L 168.75 592.97 L 269.53 597.66 L 316.41 583.59 L 396.09 525.00 L 445.31 471.09 L 461.72 445.31 L 468.75 419.53 L 473.44 351.56 L 442.97 264.84" stroke="white" fill="transparent"/>
	<path d = "M 14.06 344.53 L 11.72 321.09 L 70.31 187.50 L 112.50 107.81 L 159.38 56.25 L 185.16 37.50 L 213.28 21.09 L 276.56 0.00 L 339.84 7.03 L 384.38 44.53 L 421.88 114.84 L 450.00 260.16" stroke="white" fill="transparent"/>
	<path d = "M 44.53 332.81 L 82.03 225.00 L 142.97 124.22 L 178.12 89.06 L 217.97 67.97 L 253.12 60.94 L 295.31 63.28 L 342.19 100.78 L 398.44 182.81 L 431.25 278.91" stroke="white" fill="transparent"/>
</svg>