<?xml version="1.0" encoding="UTF-8" standalone="no"?>
<!--Created with ndjsontosvg (https:https://github.com/thompson318/ndjsontosvg) 
	from the simplified Google quickdraw data set. key_id = 5722593057308672-->
<svg width="600" height="600"
	xmlns="http://www.w3.org/2000/svg">
	xmlns:ndjsontosvg="https://github.com/thompson318/ndjsontosvg"
	xmlns:quickdraw="https://quickdraw.withgoogle.com/data"
	xmlns:scikit-surgery="https://doi.org/10.1007/s11548-020-02180-5">

	<rect width="100%" height="100%" fill="black" />
	<path d = "M 208.59 14.06 L 110.16 107.81 L 53.91 192.19 L 18.75 278.91 L 0.00 386.72 L 0.00 433.59 L 63.28 525.00 L 128.91 578.91 L 185.16 592.97 L 318.75 597.66 L 382.03 571.88 L 478.12 485.16 L 522.66 419.53 L 543.75 356.25 L 546.09 297.66 L 487.50 215.62 L 438.28 119.53 L 398.44 82.03 L 274.22 25.78 L 147.66 4.69" stroke="white" fill="transparent"/>
	<path d = "M 220.31 0.00 L 229.69 49.22 L 229.69 332.81 L 246.09 585.94" stroke="white" fill="transparent"/>
	<path d = "M 105.47 138.28 L 126.56 229.69 L 131.25 391.41 L 112.50 478.12 L 53.91 541.41" stroke="white" fill="transparent"/>
	<path d = "M 414.84 124.22 L 365.62 332.81 L 358.59 450.00 L 398.44 508.59 L 431.25 534.38" stroke="white" fill="transparent"/>
</svg>