<?xml version="1.0" encoding="UTF-8" standalone="no"?>
<!--Created with ndjsontosvg (https:https://github.com/thompson318/ndjsontosvg) 
	from the simplified Google quickdraw data set. key_id = 4760065871446016-->
<svg width="600" height="600"
	xmlns="http://www.w3.org/2000/svg">
	xmlns:ndjsontosvg="https://github.com/thompson318/ndjsontosvg"
	xmlns:quickdraw="https://quickdraw.withgoogle.com/data"
	xmlns:scikit-surgery="https://doi.org/10.1007/s11548-020-02180-5">

	<rect width="100%" height="100%" fill="black" />
	<path d = "M 382.03 51.56 L 171.09 4.69 L 63.28 0.00 L 39.84 16.41 L 16.41 63.28 L 0.00 131.25 L 0.00 234.38 L 21.09 292.97 L 46.88 330.47 L 117.19 389.06 L 285.94 414.84 L 461.72 414.84 L 529.69 398.44 L 571.88 372.66 L 585.94 337.50 L 588.28 283.59 L 560.16 210.94 L 525.00 152.34 L 464.06 89.06 L 410.16 60.94 L 330.47 37.50" stroke="white" fill="transparent"/>
	<path d = "M 189.84 7.03 L 217.97 180.47 L 227.34 189.84 L 227.34 236.72 L 196.88 323.44 L 159.38 356.25" stroke="white" fill="transparent"/>
	<path d = "M 398.44 37.50 L 386.72 44.53 L 379.69 63.28 L 365.62 164.06 L 370.31 257.81 L 433.59 353.91 L 454.69 372.66" stroke="white" fill="transparent"/>
	<path d = "M 107.81 21.09 L 128.91 82.03 L 145.31 206.25 L 138.28 253.12 L 82.03 309.38 L 79.69 321.09" stroke="white" fill="transparent"/>
	<path d = "M 445.31 75.00 L 435.94 98.44 L 431.25 161.72 L 442.97 232.03 L 485.16 335.16 L 536.72 407.81 L 496.88 382.03" stroke="white" fill="transparent"/>
	<path d = "M 7.03 96.09 L 16.41 96.09 L 39.84 112.50 L 217.97 168.75 L 288.28 166.41 L 407.81 138.28 L 496.88 133.59 L 475.78 140.62" stroke="white" fill="transparent"/>
	<path d = "M 16.41 248.44 L 98.44 269.53 L 297.66 290.62 L 597.66 302.34" stroke="white" fill="transparent"/>
</svg>