<?xml version="1.0" encoding="UTF-8" standalone="no"?>
<!--Created with ndjsontosvg (https:https://github.com/thompson318/ndjsontosvg) 
	from the simplified Google quickdraw data set. key_id = 5070334560567296-->
<svg width="600" height="600"
	xmlns="http://www.w3.org/2000/svg">
	xmlns:ndjsontosvg="https://github.com/thompson318/ndjsontosvg"
	xmlns:quickdraw="https://quickdraw.withgoogle.com/data"
	xmlns:scikit-surgery="https://doi.org/10.1007/s11548-020-02180-5">

	<rect width="100%" height="100%" fill="black" />
	<path d = "M 51.56 11.72 L 44.53 171.09 L 91.41 358.59 L 133.59 419.53 L 189.84 468.75 L 243.75 485.16 L 314.06 489.84 L 389.06 475.78 L 450.00 452.34 L 485.16 428.91 L 536.72 358.59 L 557.81 307.03 L 567.19 248.44 L 583.59 100.78 L 581.25 4.69 L 571.88 0.00 L 517.97 0.00 L 349.22 9.38 L 114.84 7.03 L 4.69 18.75" stroke="white" fill="transparent"/>
	<path d = "M 0.00 42.19 L 382.03 53.91 L 597.66 39.84" stroke="white" fill="transparent"/>
	<path d = "M 53.91 70.31 L 107.81 89.06 L 152.34 126.56 L 227.34 250.78 L 363.28 365.62 L 398.44 403.12 L 421.88 452.34" stroke="white" fill="transparent"/>
	<path d = "M 138.28 407.81 L 159.38 389.06 L 180.47 342.19 L 278.91 208.59 L 363.28 119.53 L 424.22 67.97 L 461.72 49.22" stroke="white" fill="transparent"/>
	<path d = "M 267.19 60.94 L 269.53 126.56 L 260.16 295.31 L 267.19 459.38 L 267.19 471.09 L 260.16 471.09" stroke="white" fill="transparent"/>
	<path d = "M 44.53 229.69 L 166.41 236.72 L 419.53 274.22 L 581.25 285.94" stroke="white" fill="transparent"/>
	<path d = "M 562.50 96.09 L 525.00 107.81 L 450.00 178.12 L 389.06 246.09 L 316.41 349.22 L 234.38 424.22 L 182.81 494.53" stroke="white" fill="transparent"/>
	<path d = "M 171.09 98.44 L 215.62 192.19 L 234.38 267.19 L 269.53 360.94 L 304.69 428.91 L 309.38 447.66 L 297.66 466.41" stroke="white" fill="transparent"/>
	<path d = "M 70.31 311.72 L 114.84 288.28 L 405.47 225.00 L 492.19 187.50 L 529.69 161.72" stroke="white" fill="transparent"/>
	<path d = "M 513.28 75.00 L 494.53 215.62 L 428.91 389.06" stroke="white" fill="transparent"/>
</svg>