<?xml version="1.0" encoding="UTF-8" standalone="no"?>
<!--Created with ndjsontosvg (https:https://github.com/thompson318/ndjsontosvg) 
	from the simplified Google quickdraw data set. key_id = 4557271596007424-->
<svg width="600" height="600"
	xmlns="http://www.w3.org/2000/svg">
	xmlns:ndjsontosvg="https://github.com/thompson318/ndjsontosvg"
	xmlns:quickdraw="https://quickdraw.withgoogle.com/data"
	xmlns:scikit-surgery="https://doi.org/10.1007/s11548-020-02180-5">

	<rect width="100%" height="100%" fill="black" />
	<path d = "M 65.62 140.62 L 93.75 89.06 L 135.94 49.22 L 222.66 11.72 L 269.53 2.34 L 321.09 0.00 L 365.62 9.38 L 421.88 42.19 L 475.78 89.06 L 510.94 131.25 L 529.69 206.25 L 520.31 588.28 L 513.28 595.31 L 471.09 590.62 L 353.91 557.81 L 262.50 553.12 L 208.59 557.81 L 79.69 597.66 L 58.59 590.62 L 53.91 508.59 L 89.06 227.34 L 86.72 173.44 L 70.31 117.19" stroke="white" fill="transparent"/>
	<path d = "M 103.12 206.25 L 246.09 213.28 L 496.88 201.56 L 560.16 208.59" stroke="white" fill="transparent"/>
	<path d = "M 194.53 213.28 L 196.88 295.31 L 178.12 595.31" stroke="white" fill="transparent"/>
	<path d = "M 344.53 194.53 L 328.12 581.25" stroke="white" fill="transparent"/>
	<path d = "M 520.31 166.41 L 499.22 269.53 L 480.47 435.94 L 464.06 532.03 L 454.69 550.78" stroke="white" fill="transparent"/>
	<path d = "M 0.00 344.53 L 424.22 288.28 L 536.72 283.59" stroke="white" fill="transparent"/>
	<path d = "M 56.25 419.53 L 506.25 384.38 L 515.62 379.69 L 508.59 375.00 L 482.81 365.62" stroke="white" fill="transparent"/>
	<path d = "M 35.16 510.94 L 140.62 487.50 L 241.41 473.44 L 536.72 461.72" stroke="white" fill="transparent"/>
</svg>