<?xml version="1.0" encoding="UTF-8" standalone="no"?>
<!--Created with ndjsontosvg (https:https://github.com/thompson318/ndjsontosvg) 
	from the simplified Google quickdraw data set. key_id = 4617454489698304-->
<svg width="600" height="600"
	xmlns="http://www.w3.org/2000/svg">
	xmlns:ndjsontosvg="https://github.com/thompson318/ndjsontosvg"
	xmlns:quickdraw="https://quickdraw.withgoogle.com/data"
	xmlns:scikit-surgery="https://doi.org/10.1007/s11548-020-02180-5">

	<rect width="100%" height="100%" fill="black" />
	<path d = "M 121.88 152.34 L 93.75 182.81 L 77.34 239.06 L 79.69 342.19 L 93.75 360.94 L 147.66 377.34 L 278.91 389.06 L 450.00 417.19 L 501.56 405.47 L 539.06 360.94 L 557.81 295.31 L 557.81 222.66 L 532.03 145.31 L 517.97 135.94 L 438.28 131.25 L 138.28 145.31" stroke="white" fill="transparent"/>
	<path d = "M 157.03 140.62 L 37.50 196.88 L 0.00 241.41 L 28.12 239.06 L 84.38 192.19 L 159.38 159.38" stroke="white" fill="transparent"/>
	<path d = "M 503.91 147.66 L 569.53 192.19 L 585.94 227.34 L 595.31 271.88 L 597.66 227.34 L 588.28 192.19 L 562.50 154.69 L 546.09 145.31" stroke="white" fill="transparent"/>
	<path d = "M 171.09 142.97 L 213.28 56.25 L 271.88 23.44 L 323.44 4.69 L 360.94 0.00 L 382.03 0.00 L 435.94 25.78 L 466.41 60.94 L 492.19 142.97 L 435.94 112.50 L 384.38 51.56 L 360.94 42.19 L 330.47 42.19 L 278.91 91.41 L 229.69 180.47" stroke="white" fill="transparent"/>
	<path d = "M 330.47 154.69 L 297.66 384.38" stroke="white" fill="transparent"/>
	<path d = "M 417.19 145.31 L 405.47 229.69 L 398.44 365.62" stroke="white" fill="transparent"/>
	<path d = "M 487.50 135.94 L 485.16 257.81 L 466.41 384.38" stroke="white" fill="transparent"/>
	<path d = "M 532.03 161.72 L 515.62 253.12 L 506.25 417.19" stroke="white" fill="transparent"/>
	<path d = "M 304.69 152.34 L 269.53 393.75" stroke="white" fill="transparent"/>
	<path d = "M 117.19 159.38 L 119.53 389.06" stroke="white" fill="transparent"/>
	<path d = "M 56.25 253.12 L 360.94 227.34 L 421.88 227.34 L 546.09 246.09" stroke="white" fill="transparent"/>
	<path d = "M 77.34 285.94 L 346.88 302.34 L 522.66 321.09" stroke="white" fill="transparent"/>
	<path d = "M 105.47 323.44 L 457.03 349.22 L 539.06 367.97" stroke="white" fill="transparent"/>
</svg>