<?xml version="1.0" encoding="UTF-8" standalone="no"?>
<!--Created with ndjsontosvg (https:https://github.com/thompson318/ndjsontosvg) 
	from the simplified Google quickdraw data set. key_id = 6019670593241088-->
<svg width="600" height="600"
	xmlns="http://www.w3.org/2000/svg">
	xmlns:ndjsontosvg="https://github.com/thompson318/ndjsontosvg"
	xmlns:quickdraw="https://quickdraw.withgoogle.com/data"
	xmlns:scikit-surgery="https://doi.org/10.1007/s11548-020-02180-5">

	<rect width="100%" height="100%" fill="black" />
	<path d = "M 0.00 77.34 L 152.34 107.81 L 321.09 119.53 L 553.12 124.22 L 590.62 119.53 L 597.66 103.12 L 592.97 93.75 L 557.81 67.97 L 475.78 42.19 L 126.56 0.00 L 72.66 0.00 L 46.88 11.72 L 18.75 51.56 L 4.69 96.09" stroke="white" fill="transparent"/>
	<path d = "M 56.25 103.12 L 72.66 339.84 L 93.75 421.88" stroke="white" fill="transparent"/>
	<path d = "M 555.47 126.56 L 506.25 370.31" stroke="white" fill="transparent"/>
	<path d = "M 121.88 377.34 L 227.34 370.31 L 541.41 370.31" stroke="white" fill="transparent"/>
	<path d = "M 93.75 131.25 L 145.31 267.19 L 178.12 321.09 L 199.22 335.16" stroke="white" fill="transparent"/>
	<path d = "M 187.50 103.12 L 201.56 196.88 L 236.72 295.31 L 253.12 323.44 L 269.53 337.50 L 283.59 337.50" stroke="white" fill="transparent"/>
	<path d = "M 311.72 135.94 L 309.38 168.75 L 337.50 288.28 L 370.31 370.31 L 384.38 382.03 L 391.41 377.34" stroke="white" fill="transparent"/>
	<path d = "M 452.34 196.88 L 447.66 262.50 L 461.72 321.09 L 496.88 414.84" stroke="white" fill="transparent"/>
	<path d = "M 351.56 147.66 L 318.75 154.69 L 288.28 175.78 L 246.09 220.31 L 133.59 370.31" stroke="white" fill="transparent"/>
	<path d = "M 407.81 133.59 L 349.22 271.88 L 302.34 358.59 L 288.28 375.00" stroke="white" fill="transparent"/>
	<path d = "M 548.44 199.22 L 494.53 323.44 L 466.41 360.94 L 440.62 372.66" stroke="white" fill="transparent"/>
	<path d = "M 182.81 164.06 L 142.97 178.12 L 117.19 203.91 L 93.75 250.78 L 75.00 309.38" stroke="white" fill="transparent"/>
</svg>