<?xml version="1.0" encoding="UTF-8" standalone="no"?>
<!--Created with ndjsontosvg (https:https://github.com/thompson318/ndjsontosvg) 
	from the simplified Google quickdraw data set. key_id = 6147613374021632-->
<svg width="600" height="600"
	xmlns="http://www.w3.org/2000/svg">
	xmlns:ndjsontosvg="https://github.com/thompson318/ndjsontosvg"
	xmlns:quickdraw="https://quickdraw.withgoogle.com/data"
	xmlns:scikit-surgery="https://doi.org/10.1007/s11548-020-02180-5">

	<rect width="100%" height="100%" fill="black" />
	<path d = "M 84.38 196.88 L 370.31 227.34 L 471.09 229.69 L 496.88 225.00 L 548.44 185.16 L 574.22 145.31 L 590.62 100.78 L 597.66 18.75 L 592.97 9.38 L 576.56 7.03 L 379.69 0.00 L 189.84 21.09 L 164.06 37.50 L 124.22 98.44 L 93.75 217.97" stroke="white" fill="transparent"/>
	<path d = "M 178.12 23.44 L 166.41 23.44 L 142.97 42.19 L 46.88 138.28" stroke="white" fill="transparent"/>
	<path d = "M 105.47 194.53 L 18.75 311.72 L 2.34 342.19 L 2.34 353.91" stroke="white" fill="transparent"/>
	<path d = "M 63.28 105.47 L 7.03 330.47 L 9.38 349.22" stroke="white" fill="transparent"/>
	<path d = "M 525.00 227.34 L 515.62 229.69 L 438.28 309.38 L 358.59 403.12" stroke="white" fill="transparent"/>
	<path d = "M 14.06 335.16 L 281.25 398.44 L 370.31 398.44 L 435.94 375.00" stroke="white" fill="transparent"/>
	<path d = "M 112.50 241.41 L 356.25 250.78 L 438.28 264.84 L 464.06 278.91 L 475.78 290.62" stroke="white" fill="transparent"/>
	<path d = "M 103.12 262.50 L 229.69 307.03 L 389.06 339.84 L 414.84 351.56 L 403.12 358.59" stroke="white" fill="transparent"/>
	<path d = "M 63.28 323.44 L 63.28 323.44" stroke="white" fill="transparent"/>
</svg>