<?xml version="1.0" encoding="UTF-8" standalone="no"?>
<!--Created with ndjsontosvg (https:https://github.com/thompson318/ndjsontosvg) 
	from the simplified Google quickdraw data set. key_id = 5599625543155712-->
<svg width="600" height="600"
	xmlns="http://www.w3.org/2000/svg">
	xmlns:ndjsontosvg="https://github.com/thompson318/ndjsontosvg"
	xmlns:quickdraw="https://quickdraw.withgoogle.com/data"
	xmlns:scikit-surgery="https://doi.org/10.1007/s11548-020-02180-5">

	<rect width="100%" height="100%" fill="black" />
	<path d = "M 351.56 77.34 L 307.03 65.62 L 236.72 70.31 L 217.97 84.38 L 208.59 105.47 L 206.25 145.31 L 269.53 159.38 L 335.16 159.38 L 417.19 147.66 L 433.59 138.28 L 433.59 107.81 L 379.69 91.41" stroke="white" fill="transparent"/>
	<path d = "M 300.00 93.75 L 300.00 96.09" stroke="white" fill="transparent"/>
	<path d = "M 353.91 100.78 L 353.91 100.78" stroke="white" fill="transparent"/>
	<path d = "M 332.81 105.47 L 332.81 105.47" stroke="white" fill="transparent"/>
	<path d = "M 342.19 96.09 L 342.19 96.09" stroke="white" fill="transparent"/>
	<path d = "M 342.19 96.09 L 344.53 100.78" stroke="white" fill="transparent"/>
	<path d = "M 292.97 119.53 L 332.81 126.56" stroke="white" fill="transparent"/>
	<path d = "M 391.41 93.75 L 578.91 30.47 L 597.66 35.16 L 592.97 65.62 L 576.56 84.38 L 548.44 100.78 L 539.06 84.38 L 527.34 150.00 L 503.91 119.53 L 487.50 112.50 L 438.28 171.09 L 414.84 140.62" stroke="white" fill="transparent"/>
	<path d = "M 225.00 77.34 L 2.34 0.00 L 11.72 84.38 L 25.78 89.06 L 82.03 30.47 L 89.06 168.75 L 117.19 126.56 L 126.56 124.22 L 168.75 171.09 L 189.84 180.47 L 227.34 145.31 L 243.75 112.50" stroke="white" fill="transparent"/>
	<path d = "M 255.47 65.62 L 274.22 11.72 L 281.25 16.41 L 300.00 63.28" stroke="white" fill="transparent"/>
	<path d = "M 337.50 65.62 L 351.56 63.28 L 398.44 30.47 L 400.78 91.41" stroke="white" fill="transparent"/>
</svg>