<?xml version="1.0" encoding="UTF-8" standalone="no"?>
<!--Created with ndjsontosvg (https:https://github.com/thompson318/ndjsontosvg) 
	from the simplified Google quickdraw data set. key_id = 5808313440665600-->
<svg width="600" height="600"
	xmlns="http://www.w3.org/2000/svg">
	xmlns:ndjsontosvg="https://github.com/thompson318/ndjsontosvg"
	xmlns:quickdraw="https://quickdraw.withgoogle.com/data"
	xmlns:scikit-surgery="https://doi.org/10.1007/s11548-020-02180-5">

	<rect width="100%" height="100%" fill="black" />
	<path d = "M 30.47 210.94 L 70.31 131.25 L 91.41 112.50 L 114.84 107.81 L 131.25 145.31 L 145.31 250.78 L 189.84 145.31 L 203.91 131.25 L 229.69 121.88 L 243.75 133.59 L 250.78 159.38 L 269.53 220.31 L 271.88 281.25 L 278.91 283.59 L 363.28 131.25 L 375.00 142.97 L 414.84 232.03 L 431.25 260.16 L 494.53 142.97 L 534.38 229.69 L 550.78 241.41 L 585.94 206.25 L 597.66 145.31 L 588.28 103.12 L 546.09 65.62 L 501.56 53.91 L 433.59 49.22 L 384.38 60.94 L 360.94 77.34 L 337.50 14.06 L 330.47 9.38 L 314.06 39.84 L 288.28 11.72 L 278.91 25.78 L 271.88 21.09 L 260.16 0.00 L 232.03 72.66 L 187.50 56.25 L 107.81 65.62 L 63.28 82.03 L 39.84 100.78 L 11.72 138.28 L 0.00 168.75 L 7.03 220.31 L 30.47 206.25" stroke="white" fill="transparent"/>
</svg>