<?xml version="1.0" encoding="UTF-8" standalone="no"?>
<!--Created with ndjsontosvg (https:https://github.com/thompson318/ndjsontosvg) 
	from the simplified Google quickdraw data set. key_id = 6064938290249728-->
<svg width="600" height="600"
	xmlns="http://www.w3.org/2000/svg">
	xmlns:ndjsontosvg="https://github.com/thompson318/ndjsontosvg"
	xmlns:quickdraw="https://quickdraw.withgoogle.com/data"
	xmlns:scikit-surgery="https://doi.org/10.1007/s11548-020-02180-5">

	<rect width="100%" height="100%" fill="black" />
	<path d = "M 248.44 105.47 L 257.81 51.56 L 300.00 84.38 L 330.47 39.84 L 363.28 110.16" stroke="white" fill="transparent"/>
	<path d = "M 250.78 121.88 L 131.25 84.38 L 157.03 147.66 L 67.97 112.50 L 39.84 110.16 L 42.19 138.28 L 86.72 215.62 L 2.34 192.19 L 2.34 201.56 L 72.66 339.84 L 82.03 342.19 L 189.84 271.88 L 269.53 210.94 L 288.28 206.25" stroke="white" fill="transparent"/>
	<path d = "M 379.69 114.84 L 435.94 23.44 L 482.81 91.41 L 534.38 2.34 L 541.41 60.94 L 595.31 0.00 L 590.62 271.88 L 541.41 257.81 L 438.28 206.25 L 386.72 196.88 L 346.88 201.56" stroke="white" fill="transparent"/>
	<path d = "M 283.59 208.59 L 288.28 201.56 L 342.19 206.25 L 363.28 192.19" stroke="white" fill="transparent"/>
	<path d = "M 302.34 213.28 L 302.34 250.78 L 307.03 199.22" stroke="white" fill="transparent"/>
</svg>