<?xml version="1.0" encoding="UTF-8" standalone="no"?>
<!--Created with ndjsontosvg (https:https://github.com/thompson318/ndjsontosvg) 
	from the simplified Google quickdraw data set. key_id = 6655805535289344-->
<svg width="600" height="600"
	xmlns="http://www.w3.org/2000/svg">
	xmlns:ndjsontosvg="https://github.com/thompson318/ndjsontosvg"
	xmlns:quickdraw="https://quickdraw.withgoogle.com/data"
	xmlns:scikit-surgery="https://doi.org/10.1007/s11548-020-02180-5">

	<rect width="100%" height="100%" fill="black" />
	<path d = "M 217.97 44.53 L 220.31 201.56 L 232.03 227.34 L 257.81 232.03 L 276.56 220.31 L 283.59 196.88 L 283.59 16.41 L 269.53 2.34 L 222.66 0.00 L 208.59 14.06 L 206.25 44.53" stroke="white" fill="transparent"/>
	<path d = "M 281.25 39.84 L 316.41 14.06 L 351.56 2.34 L 560.16 9.38 L 574.22 18.75 L 597.66 98.44 L 583.59 124.22 L 550.78 126.56 L 520.31 96.09 L 515.62 84.38 L 499.22 150.00 L 482.81 164.06 L 461.72 138.28 L 442.97 98.44 L 379.69 194.53 L 365.62 178.12 L 339.84 119.53 L 311.72 168.75 L 281.25 114.84" stroke="white" fill="transparent"/>
	<path d = "M 215.62 35.16 L 168.75 49.22 L 46.88 56.25 L 18.75 72.66 L 0.00 100.78 L 0.00 128.91 L 11.72 142.97 L 35.16 140.62 L 53.91 117.19 L 53.91 180.47 L 63.28 215.62 L 103.12 131.25 L 105.47 185.16 L 117.19 215.62 L 145.31 131.25 L 166.41 206.25 L 178.12 222.66 L 201.56 133.59" stroke="white" fill="transparent"/>
</svg>