<?xml version="1.0" encoding="UTF-8" standalone="no"?>
<!--Created with ndjsontosvg (https:https://github.com/thompson318/ndjsontosvg) 
	from the simplified Google quickdraw data set. key_id = 5968789491417088-->
<svg width="600" height="600"
	xmlns="http://www.w3.org/2000/svg">
	xmlns:ndjsontosvg="https://github.com/thompson318/ndjsontosvg"
	xmlns:quickdraw="https://quickdraw.withgoogle.com/data"
	xmlns:scikit-surgery="https://doi.org/10.1007/s11548-020-02180-5">

	<rect width="100%" height="100%" fill="black" />
	<path d = "M 278.91 152.34 L 246.09 135.94 L 110.16 91.41 L 9.38 32.81 L 0.00 63.28 L 7.03 107.81 L 67.97 203.91 L 14.06 229.69 L 14.06 236.72 L 58.59 292.97 L 131.25 330.47 L 131.25 337.50 L 91.41 349.22 L 142.97 393.75 L 213.28 412.50 L 250.78 412.50 L 316.41 398.44 L 314.06 363.28" stroke="white" fill="transparent"/>
	<path d = "M 407.81 140.62 L 445.31 135.94 L 501.56 105.47 L 588.28 16.41 L 597.66 42.19 L 581.25 145.31 L 543.75 189.84 L 553.12 194.53 L 595.31 185.16 L 595.31 196.88 L 576.56 246.09 L 543.75 290.62 L 595.31 295.31 L 595.31 302.34 L 567.19 339.84 L 532.03 370.31 L 431.25 410.16" stroke="white" fill="transparent"/>
	<path d = "M 414.84 410.16 L 405.47 330.47" stroke="white" fill="transparent"/>
	<path d = "M 274.22 133.59 L 248.44 39.84 L 253.12 0.00 L 276.56 28.12 L 304.69 42.19 L 335.16 16.41 L 377.34 42.19 L 400.78 42.19 L 419.53 32.81 L 424.22 63.28 L 412.50 166.41" stroke="white" fill="transparent"/>
	<path d = "M 311.72 393.75 L 318.75 468.75 L 325.78 478.12 L 353.91 471.09 L 382.03 485.16 L 414.84 445.31 L 428.91 442.97 L 426.56 323.44" stroke="white" fill="transparent"/>
</svg>