<?xml version="1.0" encoding="UTF-8" standalone="no"?>
<!--Created with ndjsontosvg (https:https://github.com/thompson318/ndjsontosvg) 
	from the simplified Google quickdraw data set. key_id = 6547660083298304-->
<svg width="600" height="600"
	xmlns="http://www.w3.org/2000/svg">
	xmlns:ndjsontosvg="https://github.com/thompson318/ndjsontosvg"
	xmlns:quickdraw="https://quickdraw.withgoogle.com/data"
	xmlns:scikit-surgery="https://doi.org/10.1007/s11548-020-02180-5">

	<rect width="100%" height="100%" fill="black" />
	<path d = "M 459.38 234.38 L 342.19 243.75 L 128.91 234.38 L 72.66 248.44 L 23.44 278.91 L 7.03 309.38 L 0.00 372.66 L 23.44 464.06 L 39.84 480.47 L 72.66 494.53 L 178.12 520.31 L 321.09 532.03 L 372.66 527.34 L 403.12 513.28 L 464.06 468.75 L 482.81 431.25 L 492.19 360.94 L 478.12 269.53 L 457.03 232.03" stroke="white" fill="transparent"/>
	<path d = "M 86.72 503.91 L 58.59 567.19 L 63.28 590.62 L 89.06 597.66 L 110.16 585.94 L 117.19 569.53 L 112.50 534.38" stroke="white" fill="transparent"/>
	<path d = "M 379.69 536.72 L 421.88 583.59 L 452.34 585.94 L 464.06 557.81 L 459.38 492.19" stroke="white" fill="transparent"/>
	<path d = "M 461.72 239.06 L 471.09 182.81 L 471.09 114.84 L 459.38 79.69 L 431.25 46.88 L 365.62 11.72 L 307.03 0.00 L 274.22 14.06 L 257.81 44.53 L 253.12 65.62" stroke="white" fill="transparent"/>
	<path d = "M 232.03 72.66 L 206.25 119.53" stroke="white" fill="transparent"/>
	<path d = "M 243.75 105.47 L 260.16 135.94" stroke="white" fill="transparent"/>
	<path d = "M 260.16 98.44 L 276.56 114.84" stroke="white" fill="transparent"/>
	<path d = "M 288.28 96.09 L 309.38 105.47" stroke="white" fill="transparent"/>
</svg>