<?xml version="1.0" encoding="UTF-8" standalone="no"?>
<!--Created with ndjsontosvg (https:https://github.com/thompson318/ndjsontosvg) 
	from the simplified Google quickdraw data set. key_id = 5568616164491264-->
<svg width="600" height="600"
	xmlns="http://www.w3.org/2000/svg">
	xmlns:ndjsontosvg="https://github.com/thompson318/ndjsontosvg"
	xmlns:quickdraw="https://quickdraw.withgoogle.com/data"
	xmlns:scikit-surgery="https://doi.org/10.1007/s11548-020-02180-5">

	<rect width="100%" height="100%" fill="black" />
	<path d = "M 35.16 250.78 L 77.34 459.38 L 82.03 478.12 L 107.81 499.22 L 166.41 513.28 L 276.56 522.66 L 555.47 529.69 L 583.59 520.31 L 597.66 494.53 L 597.66 475.78 L 585.94 382.03 L 578.91 365.62 L 543.75 337.50 L 290.62 278.91 L 53.91 248.44" stroke="white" fill="transparent"/>
	<path d = "M 124.22 508.59 L 128.91 543.75 L 147.66 567.19 L 166.41 560.16 L 178.12 541.41 L 175.78 522.66" stroke="white" fill="transparent"/>
	<path d = "M 515.62 529.69 L 529.69 569.53 L 550.78 592.97 L 560.16 592.97 L 571.88 576.56 L 571.88 532.03" stroke="white" fill="transparent"/>
	<path d = "M 39.84 241.41 L 53.91 126.56 L 63.28 89.06 L 72.66 70.31 L 107.81 42.19 L 135.94 44.53 L 157.03 70.31 L 192.19 180.47 L 201.56 187.50 L 229.69 182.81 L 232.03 159.38 L 203.91 58.59 L 157.03 4.69 L 98.44 2.34 L 23.44 35.16 L 7.03 70.31 L 0.00 117.19" stroke="white" fill="transparent"/>
</svg>