<?xml version="1.0" encoding="UTF-8" standalone="no"?>
<!--Created with ndjsontosvg (https:https://github.com/thompson318/ndjsontosvg) 
	from the simplified Google quickdraw data set. key_id = 6447709382770688-->
<svg width="600" height="600"
	xmlns="http://www.w3.org/2000/svg">
	xmlns:ndjsontosvg="https://github.com/thompson318/ndjsontosvg"
	xmlns:quickdraw="https://quickdraw.withgoogle.com/data"
	xmlns:scikit-surgery="https://doi.org/10.1007/s11548-020-02180-5">

	<rect width="100%" height="100%" fill="black" />
	<path d = "M 522.66 210.94 L 187.50 210.94 L 105.47 199.22 L 51.56 185.16 L 82.03 377.34 L 89.06 403.12 L 105.47 424.22 L 161.72 450.00 L 260.16 464.06 L 346.88 450.00 L 421.88 419.53 L 471.09 384.38 L 494.53 349.22 L 510.94 276.56 L 503.91 196.88" stroke="white" fill="transparent"/>
	<path d = "M 445.31 382.03 L 501.56 440.62 L 517.97 445.31 L 543.75 433.59 L 583.59 435.94 L 597.66 450.00 L 592.97 466.41 L 576.56 480.47 L 548.44 485.16 L 468.75 475.78 L 435.94 447.66 L 428.91 414.84" stroke="white" fill="transparent"/>
	<path d = "M 126.56 421.88 L 7.03 426.56 L 0.00 445.31 L 7.03 471.09 L 44.53 501.56 L 98.44 501.56 L 121.88 487.50 L 142.97 450.00" stroke="white" fill="transparent"/>
	<path d = "M 503.91 196.88 L 515.62 185.16 L 520.31 152.34 L 522.66 67.97 L 515.62 14.06 L 466.41 0.00 L 442.97 4.69 L 410.16 39.84 L 405.47 72.66" stroke="white" fill="transparent"/>
	<path d = "M 391.41 96.09 L 339.84 157.03" stroke="white" fill="transparent"/>
	<path d = "M 400.78 145.31 L 407.81 175.78" stroke="white" fill="transparent"/>
</svg>