<?xml version="1.0" encoding="UTF-8" standalone="no"?>
<!--Created with ndjsontosvg (https:https://github.com/thompson318/ndjsontosvg) 
	from the simplified Google quickdraw data set. key_id = 5031769650757632-->
<svg width="600" height="600"
	xmlns="http://www.w3.org/2000/svg">
	xmlns:ndjsontosvg="https://github.com/thompson318/ndjsontosvg"
	xmlns:quickdraw="https://quickdraw.withgoogle.com/data"
	xmlns:scikit-surgery="https://doi.org/10.1007/s11548-020-02180-5">

	<rect width="100%" height="100%" fill="black" />
	<path d = "M 21.09 192.19 L 63.28 199.22 L 105.47 168.75 L 121.88 192.19 L 147.66 196.88 L 192.19 171.09 L 206.25 180.47 L 239.06 185.16 L 281.25 164.06 L 288.28 189.84 L 302.34 201.56 L 321.09 201.56 L 351.56 189.84 L 389.06 157.03 L 396.09 180.47 L 433.59 194.53 L 466.41 182.81 L 496.88 154.69 L 496.88 171.09 L 515.62 180.47 L 536.72 178.12 L 567.19 147.66 L 567.19 157.03" stroke="white" fill="transparent"/>
	<path d = "M 525.00 9.38 L 478.12 42.19 L 468.75 65.62 L 468.75 91.41 L 475.78 103.12 L 503.91 117.19 L 548.44 107.81 L 567.19 91.41 L 583.59 60.94 L 588.28 25.78 L 581.25 7.03 L 536.72 0.00 L 489.84 28.12" stroke="white" fill="transparent"/>
	<path d = "M 471.09 49.22 L 431.25 21.09" stroke="white" fill="transparent"/>
	<path d = "M 450.00 103.12 L 414.84 112.50" stroke="white" fill="transparent"/>
	<path d = "M 527.34 124.22 L 508.59 161.72" stroke="white" fill="transparent"/>
	<path d = "M 578.91 96.09 L 597.66 145.31" stroke="white" fill="transparent"/>
	<path d = "M 0.00 142.97 L 65.62 150.00 L 133.59 105.47 L 150.00 154.69 L 171.09 164.06 L 215.62 142.97 L 257.81 107.81 L 288.28 131.25 L 309.38 131.25 L 342.19 121.88 L 375.00 98.44 L 389.06 135.94 L 421.88 142.97 L 457.03 138.28" stroke="white" fill="transparent"/>
</svg>