<?xml version="1.0" encoding="UTF-8" standalone="no"?>
<!--Created with ndjsontosvg (https:https://github.com/thompson318/ndjsontosvg) 
	from the simplified Google quickdraw data set. key_id = 4663076836081664-->
<svg width="600" height="600"
	xmlns="http://www.w3.org/2000/svg">
	xmlns:ndjsontosvg="https://github.com/thompson318/ndjsontosvg"
	xmlns:quickdraw="https://quickdraw.withgoogle.com/data"
	xmlns:scikit-surgery="https://doi.org/10.1007/s11548-020-02180-5">

	<rect width="100%" height="100%" fill="black" />
	<path d = "M 295.31 110.16 L 0.00 112.50 L 124.22 135.94 L 154.69 133.59 L 110.16 135.94" stroke="white" fill="transparent"/>
	<path d = "M 325.78 114.84 L 351.56 114.84 L 440.62 150.00 L 506.25 187.50" stroke="white" fill="transparent"/>
	<path d = "M 393.75 133.59 L 414.84 133.59 L 431.25 145.31 L 452.34 128.91 L 459.38 142.97 L 499.22 138.28 L 515.62 147.66 L 546.09 145.31 L 564.84 133.59 L 588.28 138.28 L 592.97 128.91 L 597.66 135.94" stroke="white" fill="transparent"/>
	<path d = "M 560.16 72.66 L 541.41 72.66 L 534.38 60.94 L 536.72 28.12 L 546.09 18.75 L 557.81 18.75 L 576.56 39.84 L 576.56 67.97 L 555.47 75.00 L 527.34 67.97" stroke="white" fill="transparent"/>
	<path d = "M 536.72 32.81 L 515.62 11.72" stroke="white" fill="transparent"/>
	<path d = "M 560.16 23.44 L 557.81 7.03 L 569.53 0.00" stroke="white" fill="transparent"/>
	<path d = "M 562.50 28.12 L 597.66 25.78" stroke="white" fill="transparent"/>
	<path d = "M 571.88 37.50 L 590.62 49.22 L 585.94 63.28" stroke="white" fill="transparent"/>
	<path d = "M 569.53 58.59 L 557.81 84.38" stroke="white" fill="transparent"/>
	<path d = "M 543.75 58.59 L 501.56 77.34" stroke="white" fill="transparent"/>
	<path d = "M 534.38 37.50 L 494.53 39.84" stroke="white" fill="transparent"/>
</svg>