<?xml version="1.0" encoding="UTF-8" standalone="no"?>
<!--Created with ndjsontosvg (https:https://github.com/thompson318/ndjsontosvg) 
	from the simplified Google quickdraw data set. key_id = 6531292923428864-->
<svg width="600" height="600"
	xmlns="http://www.w3.org/2000/svg">
	xmlns:ndjsontosvg="https://github.com/thompson318/ndjsontosvg"
	xmlns:quickdraw="https://quickdraw.withgoogle.com/data"
	xmlns:scikit-surgery="https://doi.org/10.1007/s11548-020-02180-5">

	<rect width="100%" height="100%" fill="black" />
	<path d = "M 210.94 0.00 L 100.78 51.56 L 51.56 91.41 L 16.41 147.66 L 0.00 210.94 L 4.69 262.50 L 42.19 318.75 L 91.41 363.28 L 168.75 389.06 L 236.72 389.06 L 292.97 370.31 L 339.84 337.50 L 356.25 311.72 L 360.94 220.31 L 302.34 100.78 L 278.91 65.62 L 236.72 28.12 L 196.88 7.03 L 161.72 4.69" stroke="white" fill="transparent"/>
	<path d = "M 44.53 337.50 L 84.38 510.94 L 93.75 595.31 L 154.69 536.72 L 178.12 581.25 L 194.53 597.66 L 232.03 539.06 L 246.09 499.22 L 264.84 527.34 L 311.72 562.50 L 323.44 557.81 L 342.19 501.56 L 363.28 400.78 L 372.66 234.38" stroke="white" fill="transparent"/>
	<path d = "M 67.97 370.31 L 86.72 435.94 L 98.44 349.22 L 161.72 499.22 L 168.75 450.00 L 175.78 471.09 L 185.16 468.75 L 201.56 447.66 L 210.94 450.00 L 234.38 412.50 L 243.75 417.19 L 283.59 478.12 L 208.59 482.81 L 154.69 501.56 L 138.28 501.56 L 147.66 489.84 L 189.84 480.47" stroke="white" fill="transparent"/>
</svg>