<?xml version="1.0" encoding="UTF-8" standalone="no"?>
<!--Created with ndjsontosvg (https:https://github.com/thompson318/ndjsontosvg) 
	from the simplified Google quickdraw data set. key_id = 5322211978117120-->
<svg width="600" height="600"
	xmlns="http://www.w3.org/2000/svg">
	xmlns:ndjsontosvg="https://github.com/thompson318/ndjsontosvg"
	xmlns:quickdraw="https://quickdraw.withgoogle.com/data"
	xmlns:scikit-surgery="https://doi.org/10.1007/s11548-020-02180-5">

	<rect width="100%" height="100%" fill="black" />
	<path d = "M 173.44 0.00 L 82.03 32.81 L 46.88 53.91 L 37.50 72.66 L 0.00 253.12 L 2.34 372.66 L 21.09 419.53 L 105.47 494.53 L 182.81 503.91 L 217.97 499.22 L 255.47 475.78 L 307.03 431.25 L 382.03 318.75 L 407.81 257.81 L 396.09 217.97 L 330.47 133.59 L 236.72 91.41 L 180.47 79.69 L 63.28 79.69 L 37.50 96.09" stroke="white" fill="transparent"/>
	<path d = "M 42.19 379.69 L 44.53 379.69" stroke="white" fill="transparent"/>
	<path d = "M 121.88 379.69 L 142.97 379.69" stroke="white" fill="transparent"/>
	<path d = "M 217.97 377.34 L 250.78 377.34" stroke="white" fill="transparent"/>
	<path d = "M 276.56 377.34 L 276.56 377.34" stroke="white" fill="transparent"/>
	<path d = "M 60.94 417.19 L 70.31 419.53" stroke="white" fill="transparent"/>
	<path d = "M 124.22 438.28 L 187.50 445.31" stroke="white" fill="transparent"/>
	<path d = "M 232.03 440.62 L 232.03 440.62" stroke="white" fill="transparent"/>
	<path d = "M 248.44 419.53 L 253.12 405.47" stroke="white" fill="transparent"/>
	<path d = "M 18.75 403.12 L 14.06 417.19 L 89.06 557.81 L 114.84 564.84 L 154.69 560.16 L 232.03 496.88 L 262.50 442.97 L 302.34 393.75 L 325.78 344.53 L 335.16 302.34 L 304.69 417.19 L 295.31 431.25 L 290.62 419.53 L 267.19 466.41 L 243.75 492.19 L 229.69 496.88 L 229.69 466.41 L 227.34 513.28 L 215.62 534.38 L 208.59 520.31 L 194.53 520.31 L 138.28 597.66 L 124.22 527.34 L 121.88 541.41 L 63.28 461.72 L 63.28 485.16 L 46.88 442.97 L 25.78 414.84 L 49.22 459.38 L 75.00 475.78 L 105.47 421.88 L 128.91 323.44 L 140.62 342.19 L 150.00 457.03 L 164.06 414.84 L 164.06 457.03 L 222.66 372.66 L 227.34 457.03 L 243.75 398.44 L 274.22 356.25 L 267.19 433.59 L 267.19 417.19 L 253.12 412.50 L 227.34 435.94 L 166.41 468.75 L 91.41 496.88 L 67.97 492.19 L 46.88 459.38 L 35.16 360.94 L 46.88 372.66" stroke="white" fill="transparent"/>
</svg>