<?xml version="1.0" encoding="UTF-8" standalone="no"?>
<!--Created with ndjsontosvg (https:https://github.com/thompson318/ndjsontosvg) 
	from the simplified Google quickdraw data set. key_id = 4558093943832576-->
<svg width="600" height="600"
	xmlns="http://www.w3.org/2000/svg">
	xmlns:ndjsontosvg="https://github.com/thompson318/ndjsontosvg"
	xmlns:quickdraw="https://quickdraw.withgoogle.com/data"
	xmlns:scikit-surgery="https://doi.org/10.1007/s11548-020-02180-5">

	<rect width="100%" height="100%" fill="black" />
	<path d = "M 0.00 56.25 L 16.41 18.75 L 39.84 7.03 L 75.00 0.00 L 133.59 2.34 L 187.50 44.53 L 253.12 39.84 L 358.59 56.25 L 391.41 56.25 L 417.19 32.81 L 454.69 21.09 L 515.62 18.75 L 569.53 30.47 L 578.91 37.50 L 597.66 84.38 L 588.28 175.78 L 557.81 220.31 L 496.88 255.47 L 471.09 260.16 L 316.41 262.50 L 150.00 257.81 L 117.19 248.44 L 51.56 192.19 L 21.09 140.62 L 21.09 65.62" stroke="white" fill="transparent"/>
	<path d = "M 274.22 171.09 L 267.19 175.78 L 271.88 178.12 L 285.94 168.75 L 274.22 171.09 L 269.53 187.50 L 232.03 215.62 L 269.53 173.44 L 278.91 194.53 L 290.62 192.19" stroke="white" fill="transparent"/>
	<path d = "M 138.28 166.41 L 138.28 124.22 L 154.69 84.38 L 187.50 67.97 L 201.56 98.44 L 196.88 126.56 L 178.12 164.06 L 157.03 173.44 L 138.28 157.03" stroke="white" fill="transparent"/>
	<path d = "M 140.62 145.31 L 150.00 112.50 L 171.09 98.44 L 185.16 103.12 L 185.16 133.59" stroke="white" fill="transparent"/>
</svg>