<?xml version="1.0" encoding="UTF-8" standalone="no"?>
<!--Created with ndjsontosvg (https:https://github.com/thompson318/ndjsontosvg) 
	from the simplified Google quickdraw data set. key_id = 5216394318708736-->
<svg width="600" height="600"
	xmlns="http://www.w3.org/2000/svg">
	xmlns:ndjsontosvg="https://github.com/thompson318/ndjsontosvg"
	xmlns:quickdraw="https://quickdraw.withgoogle.com/data"
	xmlns:scikit-surgery="https://doi.org/10.1007/s11548-020-02180-5">

	<rect width="100%" height="100%" fill="black" />
	<path d = "M 16.41 147.66 L 39.84 67.97 L 56.25 44.53 L 79.69 30.47 L 208.59 25.78 L 335.16 44.53 L 424.22 46.88 L 452.34 37.50 L 468.75 9.38 L 499.22 0.00 L 527.34 0.00 L 595.31 16.41 L 595.31 35.16 L 581.25 46.88 L 576.56 63.28 L 574.22 117.19 L 550.78 147.66 L 496.88 178.12 L 466.41 253.12 L 438.28 250.78 L 419.53 215.62 L 410.16 182.81 L 405.47 232.03 L 377.34 257.81 L 330.47 215.62 L 314.06 194.53 L 309.38 173.44 L 285.94 168.75 L 185.16 171.09 L 173.44 185.16 L 159.38 236.72 L 140.62 253.12 L 126.56 250.78 L 114.84 232.03 L 107.81 206.25 L 112.50 175.78 L 93.75 222.66 L 65.62 229.69 L 23.44 229.69 L 7.03 217.97 L 0.00 194.53 L 32.81 114.84" stroke="white" fill="transparent"/>
</svg>