<?xml version="1.0" encoding="UTF-8" standalone="no"?>
<!--Created with ndjsontosvg (https:https://github.com/thompson318/ndjsontosvg) 
	from the simplified Google quickdraw data set. key_id = 5768178581897216-->
<svg width="600" height="600"
	xmlns="http://www.w3.org/2000/svg">
	xmlns:ndjsontosvg="https://github.com/thompson318/ndjsontosvg"
	xmlns:quickdraw="https://quickdraw.withgoogle.com/data"
	xmlns:scikit-surgery="https://doi.org/10.1007/s11548-020-02180-5">

	<rect width="100%" height="100%" fill="black" />
	<path d = "M 37.50 208.59 L 28.12 189.84 L 25.78 166.41 L 30.47 189.84 L 14.06 222.66 L 0.00 302.34 L 0.00 405.47 L 11.72 461.72 L 42.19 510.94 L 112.50 569.53 L 208.59 597.66 L 339.84 597.66 L 412.50 555.47 L 468.75 487.50 L 503.91 412.50 L 510.94 304.69 L 501.56 274.22 L 459.38 217.97 L 417.19 173.44 L 335.16 117.19 L 292.97 96.09 L 208.59 75.00 L 161.72 75.00 L 105.47 121.88 L 56.25 227.34" stroke="white" fill="transparent"/>
	<path d = "M 396.09 121.88 L 450.00 44.53 L 489.84 35.16 L 513.28 49.22 L 529.69 77.34 L 534.38 142.97 L 473.44 203.91" stroke="white" fill="transparent"/>
	<path d = "M 140.62 121.88 L 140.62 77.34 L 124.22 39.84 L 96.09 14.06 L 25.78 0.00 L 4.69 21.09 L 0.00 114.84 L 9.38 133.59 L 67.97 166.41" stroke="white" fill="transparent"/>
	<path d = "M 180.47 227.34 L 185.16 246.09 L 192.19 227.34" stroke="white" fill="transparent"/>
	<path d = "M 309.38 215.62 L 321.09 239.06 L 339.84 239.06" stroke="white" fill="transparent"/>
	<path d = "M 241.41 412.50 L 241.41 412.50" stroke="white" fill="transparent"/>
	<path d = "M 241.41 412.50 L 264.84 386.72 L 307.03 386.72 L 321.09 407.81 L 246.09 445.31" stroke="white" fill="transparent"/>
</svg>