<?xml version="1.0" encoding="UTF-8" standalone="no"?>
<!--Created with ndjsontosvg (https:https://github.com/thompson318/ndjsontosvg) 
	from the simplified Google quickdraw data set. key_id = 6196427271176192-->
<svg width="600" height="600"
	xmlns="http://www.w3.org/2000/svg">
	xmlns:ndjsontosvg="https://github.com/thompson318/ndjsontosvg"
	xmlns:quickdraw="https://quickdraw.withgoogle.com/data"
	xmlns:scikit-surgery="https://doi.org/10.1007/s11548-020-02180-5">

	<rect width="100%" height="100%" fill="black" />
	<path d = "M 307.03 0.00 L 431.25 93.75 L 494.53 180.47 L 506.25 290.62 L 501.56 356.25 L 452.34 433.59 L 403.12 454.69 L 325.78 466.41 L 138.28 468.75 L 112.50 459.38 L 75.00 431.25 L 56.25 412.50 L 35.16 367.97 L 30.47 227.34 L 56.25 133.59 L 98.44 82.03 L 208.59 53.91 L 297.66 4.69 L 328.12 4.69 L 363.28 16.41" stroke="white" fill="transparent"/>
	<path d = "M 459.38 278.91 L 459.38 403.12 L 450.00 450.00 L 419.53 480.47 L 405.47 482.81 L 384.38 457.03 L 360.94 297.66 L 356.25 431.25 L 335.16 496.88 L 318.75 510.94 L 288.28 494.53 L 232.03 297.66 L 227.34 393.75 L 206.25 473.44 L 178.12 482.81 L 154.69 457.03 L 103.12 342.19 L 77.34 464.06 L 53.91 494.53 L 35.16 487.50 L 18.75 457.03 L 4.69 400.78 L 51.56 499.22 L 75.00 513.28 L 175.78 454.69 L 236.72 450.00 L 309.38 468.75 L 337.50 485.16 L 360.94 471.09 L 375.00 426.56 L 396.09 405.47 L 489.84 417.19 L 529.69 454.69 L 410.16 405.47 L 367.97 344.53 L 356.25 337.50 L 386.72 412.50 L 403.12 513.28 L 386.72 555.47 L 314.06 541.41 L 229.69 452.34 L 222.66 386.72 L 229.69 473.44 L 206.25 501.56 L 164.06 499.22 L 124.22 468.75 L 103.12 424.22 L 51.56 489.84 L 0.00 492.19 L 100.78 597.66 L 271.88 478.12 L 314.06 475.78 L 325.78 506.25 L 325.78 532.03 L 346.88 510.94" stroke="white" fill="transparent"/>
</svg>