<?xml version="1.0" encoding="UTF-8" standalone="no"?>
<!--Created with ndjsontosvg (https:https://github.com/thompson318/ndjsontosvg) 
	from the simplified Google quickdraw data set. key_id = 4789813205008384-->
<svg width="600" height="600"
	xmlns="http://www.w3.org/2000/svg">
	xmlns:ndjsontosvg="https://github.com/thompson318/ndjsontosvg"
	xmlns:quickdraw="https://quickdraw.withgoogle.com/data"
	xmlns:scikit-surgery="https://doi.org/10.1007/s11548-020-02180-5">

	<rect width="100%" height="100%" fill="black" />
	<path d = "M 2.34 67.97 L 2.34 126.56 L 16.41 161.72 L 93.75 285.94 L 152.34 367.97 L 189.84 391.41 L 283.59 431.25 L 332.81 433.59 L 391.41 393.75 L 426.56 353.91 L 461.72 276.56 L 536.72 168.75 L 557.81 126.56 L 560.16 91.41 L 522.66 21.09 L 508.59 2.34 L 492.19 0.00" stroke="white" fill="transparent"/>
	<path d = "M 46.88 288.28 L 51.56 267.19 L 100.78 234.38 L 189.84 220.31 L 213.28 222.66 L 227.34 243.75 L 236.72 323.44 L 269.53 278.91 L 323.44 257.81 L 351.56 257.81 L 370.31 295.31 L 370.31 278.91 L 382.03 276.56 L 445.31 276.56 L 461.72 285.94 L 459.38 447.66 L 435.94 532.03 L 412.50 578.91 L 358.59 595.31 L 302.34 595.31 L 285.94 583.59 L 239.06 571.88 L 173.44 534.38 L 150.00 515.62" stroke="white" fill="transparent"/>
</svg>