<?xml version="1.0" encoding="UTF-8" standalone="no"?>
<!--Created with ndjsontosvg (https:https://github.com/thompson318/ndjsontosvg) 
	from the simplified Google quickdraw data set. key_id = 5952173391216640-->
<svg width="600" height="600"
	xmlns="http://www.w3.org/2000/svg">
	xmlns:ndjsontosvg="https://github.com/thompson318/ndjsontosvg"
	xmlns:quickdraw="https://quickdraw.withgoogle.com/data"
	xmlns:scikit-surgery="https://doi.org/10.1007/s11548-020-02180-5">

	<rect width="100%" height="100%" fill="black" />
	<path d = "M 342.19 25.78 L 225.00 142.97 L 173.44 217.97 L 0.00 433.59 L 128.91 496.88 L 201.56 515.62 L 257.81 464.06 L 574.22 84.38 L 501.56 42.19 L 365.62 0.00" stroke="white" fill="transparent"/>
	<path d = "M 372.66 65.62 L 351.56 72.66 L 288.28 119.53 L 264.84 157.03 L 264.84 171.09 L 375.00 213.28 L 433.59 119.53 L 438.28 100.78 L 403.12 79.69 L 342.19 67.97" stroke="white" fill="transparent"/>
	<path d = "M 232.03 487.50 L 225.00 506.25 L 225.00 574.22 L 234.38 597.66" stroke="white" fill="transparent"/>
	<path d = "M 23.44 417.19 L 32.81 578.91" stroke="white" fill="transparent"/>
	<path d = "M 541.41 142.97 L 548.44 171.09 L 548.44 276.56" stroke="white" fill="transparent"/>
	<path d = "M 466.41 250.78 L 464.06 300.00" stroke="white" fill="transparent"/>
</svg>