<?xml version="1.0" encoding="UTF-8" standalone="no"?>
<!--Created with ndjsontosvg (https:https://github.com/thompson318/ndjsontosvg) 
	from the simplified Google quickdraw data set. key_id = 6750187609391104-->
<svg width="600" height="600"
	xmlns="http://www.w3.org/2000/svg">
	xmlns:ndjsontosvg="https://github.com/thompson318/ndjsontosvg"
	xmlns:quickdraw="https://quickdraw.withgoogle.com/data"
	xmlns:scikit-surgery="https://doi.org/10.1007/s11548-020-02180-5">

	<rect width="100%" height="100%" fill="black" />
	<path d = "M 557.81 86.72 L 555.47 140.62 L 571.88 260.16 L 571.88 339.84 L 560.16 459.38" stroke="white" fill="transparent"/>
	<path d = "M 597.66 454.69 L 346.88 445.31 L 208.59 417.19 L 82.03 410.16 L 39.84 400.78 L 44.53 138.28 L 30.47 72.66 L 30.47 11.72 L 14.06 0.00" stroke="white" fill="transparent"/>
	<path d = "M 0.00 18.75 L 23.44 11.72 L 138.28 4.69" stroke="white" fill="transparent"/>
	<path d = "M 114.84 4.69 L 124.22 21.09 L 121.88 243.75" stroke="white" fill="transparent"/>
	<path d = "M 124.22 241.41 L 494.53 253.12 L 503.91 239.06 L 508.59 203.91 L 510.94 105.47 L 525.00 93.75 L 571.88 86.72" stroke="white" fill="transparent"/>
	<path d = "M 135.94 168.75 L 421.88 161.72 L 482.81 164.06 L 501.56 171.09" stroke="white" fill="transparent"/>
	<path d = "M 128.91 128.91 L 260.16 121.88 L 271.88 140.62 L 271.88 157.03" stroke="white" fill="transparent"/>
</svg>