<?xml version="1.0" encoding="UTF-8" standalone="no"?>
<!--Created with ndjsontosvg (https:https://github.com/thompson318/ndjsontosvg) 
	from the simplified Google quickdraw data set. key_id = 5105866963419136-->
<svg width="600" height="600"
	xmlns="http://www.w3.org/2000/svg">
	xmlns:ndjsontosvg="https://github.com/thompson318/ndjsontosvg"
	xmlns:quickdraw="https://quickdraw.withgoogle.com/data"
	xmlns:scikit-surgery="https://doi.org/10.1007/s11548-020-02180-5">

	<rect width="100%" height="100%" fill="black" />
	<path d = "M 126.56 187.50 L 243.75 168.75 L 468.75 161.72 L 576.56 135.94 L 583.59 154.69 L 592.97 332.81 L 590.62 375.00 L 581.25 384.38 L 452.34 384.38 L 281.25 396.09 L 110.16 391.41 L 100.78 351.56 L 124.22 161.72" stroke="white" fill="transparent"/>
	<path d = "M 417.19 161.72 L 431.25 103.12 L 459.38 49.22 L 482.81 18.75 L 513.28 4.69 L 541.41 11.72 L 560.16 44.53 L 562.50 154.69" stroke="white" fill="transparent"/>
	<path d = "M 389.06 49.22 L 358.59 39.84 L 339.84 44.53 L 328.12 53.91 L 316.41 79.69 L 318.75 100.78 L 337.50 128.91 L 372.66 138.28 L 396.09 121.88 L 403.12 103.12 L 393.75 70.31 L 372.66 51.56" stroke="white" fill="transparent"/>
	<path d = "M 314.06 114.84 L 255.47 105.47 L 53.91 100.78" stroke="white" fill="transparent"/>
	<path d = "M 271.88 9.38 L 239.06 79.69 L 234.38 124.22" stroke="white" fill="transparent"/>
	<path d = "M 77.34 114.84 L 16.41 0.00" stroke="white" fill="transparent"/>
	<path d = "M 63.28 124.22 L 0.00 164.06" stroke="white" fill="transparent"/>
	<path d = "M 119.53 173.44 L 208.59 161.72 L 482.81 171.09 L 562.50 166.41 L 574.22 178.12 L 583.59 269.53 L 574.22 396.09 L 560.16 405.47 L 459.38 396.09 L 321.09 400.78 L 112.50 384.38 L 105.47 370.31 L 110.16 323.44 L 154.69 133.59" stroke="white" fill="transparent"/>
	<path d = "M 414.84 150.00 L 433.59 82.03 L 466.41 39.84 L 506.25 16.41 L 539.06 14.06 L 555.47 23.44 L 564.84 49.22 L 574.22 164.06" stroke="white" fill="transparent"/>
	<path d = "M 597.66 208.59 L 597.66 196.88" stroke="white" fill="transparent"/>
</svg>