<?xml version="1.0" encoding="UTF-8" standalone="no"?>
<!--Created with ndjsontosvg (https:https://github.com/thompson318/ndjsontosvg) 
	from the simplified Google quickdraw data set. key_id = 6606215301824512-->
<svg width="600" height="600"
	xmlns="http://www.w3.org/2000/svg">
	xmlns:ndjsontosvg="https://github.com/thompson318/ndjsontosvg"
	xmlns:quickdraw="https://quickdraw.withgoogle.com/data"
	xmlns:scikit-surgery="https://doi.org/10.1007/s11548-020-02180-5">

	<rect width="100%" height="100%" fill="black" />
	<path d = "M 9.38 89.06 L 28.12 157.03 L 30.47 213.28 L 39.84 217.97 L 89.06 220.31 L 189.84 203.91 L 344.53 196.88 L 339.84 9.38 L 328.12 0.00 L 192.19 25.78 L 2.34 49.22 L 14.06 93.75" stroke="white" fill="transparent"/>
	<path d = "M 138.28 35.16 L 142.97 86.72 L 114.84 171.09 L 103.12 182.81 L 75.00 178.12 L 30.47 159.38 L 30.47 147.66 L 79.69 126.56 L 100.78 126.56" stroke="white" fill="transparent"/>
	<path d = "M 241.41 18.75 L 229.69 25.78 L 213.28 63.28 L 217.97 100.78 L 236.72 126.56 L 290.62 157.03 L 321.09 164.06 L 335.16 159.38 L 351.56 133.59 L 349.22 100.78 L 337.50 89.06 L 304.69 91.41" stroke="white" fill="transparent"/>
	<path d = "M 49.22 206.25 L 46.88 213.28" stroke="white" fill="transparent"/>
	<path d = "M 21.09 234.38 L 105.47 302.34 L 278.91 466.41 L 412.50 564.84" stroke="white" fill="transparent"/>
	<path d = "M 323.44 178.12 L 398.44 236.72 L 487.50 328.12 L 564.84 375.00 L 597.66 405.47 L 571.88 431.25 L 435.94 513.28 L 403.12 541.41" stroke="white" fill="transparent"/>
	<path d = "M 77.34 271.88 L 51.56 328.12" stroke="white" fill="transparent"/>
</svg>