<?xml version="1.0" encoding="UTF-8" standalone="no"?>
<!--Created with ndjsontosvg (https:https://github.com/thompson318/ndjsontosvg) 
	from the simplified Google quickdraw data set. key_id = 6215258135855104-->
<svg width="600" height="600"
	xmlns="http://www.w3.org/2000/svg">
	xmlns:ndjsontosvg="https://github.com/thompson318/ndjsontosvg"
	xmlns:quickdraw="https://quickdraw.withgoogle.com/data"
	xmlns:scikit-surgery="https://doi.org/10.1007/s11548-020-02180-5">

	<rect width="100%" height="100%" fill="black" />
	<path d = "M 60.94 16.41 L 271.88 0.00 L 574.22 30.47 L 595.31 37.50 L 597.66 46.88 L 576.56 133.59 L 513.28 112.50 L 412.50 128.91 L 255.47 114.84 L 98.44 114.84 L 4.69 103.12 L 4.69 79.69 L 35.16 18.75 L 89.06 0.00" stroke="white" fill="transparent"/>
	<path d = "M 53.91 75.00 L 51.56 75.00" stroke="white" fill="transparent"/>
	<path d = "M 121.88 79.69 L 126.56 79.69" stroke="white" fill="transparent"/>
	<path d = "M 196.88 75.00 L 199.22 75.00" stroke="white" fill="transparent"/>
	<path d = "M 295.31 65.62 L 297.66 65.62" stroke="white" fill="transparent"/>
	<path d = "M 377.34 70.31 L 391.41 72.66" stroke="white" fill="transparent"/>
	<path d = "M 508.59 72.66 L 513.28 72.66" stroke="white" fill="transparent"/>
	<path d = "M 571.88 93.75 L 576.56 93.75" stroke="white" fill="transparent"/>
	<path d = "M 215.62 49.22 L 215.62 86.72 L 281.25 89.06 L 285.94 82.03 L 246.09 42.19 L 208.59 44.53" stroke="white" fill="transparent"/>
	<path d = "M 300.00 30.47 L 295.31 103.12 L 372.66 103.12 L 372.66 25.78 L 304.69 35.16" stroke="white" fill="transparent"/>
</svg>