<?xml version="1.0" encoding="UTF-8" standalone="no"?>
<!--Created with ndjsontosvg (https:https://github.com/thompson318/ndjsontosvg) 
	from the simplified Google quickdraw data set. key_id = 5929691363934208-->
<svg width="600" height="600"
	xmlns="http://www.w3.org/2000/svg">
	xmlns:ndjsontosvg="https://github.com/thompson318/ndjsontosvg"
	xmlns:quickdraw="https://quickdraw.withgoogle.com/data"
	xmlns:scikit-surgery="https://doi.org/10.1007/s11548-020-02180-5">

	<rect width="100%" height="100%" fill="black" />
	<path d = "M 0.00 227.34 L 75.00 281.25 L 168.75 337.50 L 203.91 353.91 L 271.88 367.97 L 323.44 365.62 L 421.88 344.53 L 473.44 323.44 L 515.62 297.66 L 543.75 274.22 L 571.88 222.66 L 578.91 182.81 L 574.22 128.91 L 548.44 96.09 L 482.81 51.56 L 442.97 30.47 L 344.53 0.00 L 220.31 4.69 L 173.44 25.78 L 110.16 75.00 L 77.34 114.84 L 51.56 166.41 L 51.56 192.19 L 105.47 255.47" stroke="white" fill="transparent"/>
	<path d = "M 276.56 365.62 L 281.25 400.78 L 311.72 428.91 L 391.41 419.53 L 396.09 398.44 L 386.72 363.28" stroke="white" fill="transparent"/>
	<path d = "M 403.12 417.19 L 442.97 405.47 L 517.97 363.28 L 578.91 314.06 L 597.66 260.16 L 595.31 180.47 L 583.59 150.00" stroke="white" fill="transparent"/>
	<path d = "M 283.59 417.19 L 145.31 356.25 L 56.25 307.03 L 28.12 271.88 L 14.06 234.38 L 16.41 225.00 L 32.81 215.62" stroke="white" fill="transparent"/>
</svg>