<?xml version="1.0" encoding="UTF-8" standalone="no"?>
<!--Created with ndjsontosvg (https:https://github.com/thompson318/ndjsontosvg) 
	from the simplified Google quickdraw data set. key_id = 4986316930416640-->
<svg width="600" height="600"
	xmlns="http://www.w3.org/2000/svg">
	xmlns:ndjsontosvg="https://github.com/thompson318/ndjsontosvg"
	xmlns:quickdraw="https://quickdraw.withgoogle.com/data"
	xmlns:scikit-surgery="https://doi.org/10.1007/s11548-020-02180-5">

	<rect width="100%" height="100%" fill="black" />
	<path d = "M 16.41 161.72 L 126.56 77.34 L 194.53 46.88 L 353.91 2.34 L 454.69 2.34 L 485.16 11.72 L 534.38 42.19 L 569.53 82.03 L 595.31 138.28 L 592.97 185.16 L 564.84 227.34 L 534.38 253.12 L 478.12 271.88 L 328.12 285.94 L 164.06 290.62 L 110.16 283.59 L 67.97 267.19 L 35.16 246.09 L 2.34 206.25 L 2.34 171.09 L 35.16 147.66" stroke="white" fill="transparent"/>
	<path d = "M 229.69 35.16 L 239.06 70.31 L 274.22 67.97 L 337.50 53.91 L 332.81 23.44" stroke="white" fill="transparent"/>
	<path d = "M 274.22 30.47 L 276.56 42.19 L 278.91 28.12" stroke="white" fill="transparent"/>
	<path d = "M 276.56 46.88 L 365.62 37.50 L 292.97 35.16" stroke="white" fill="transparent"/>
	<path d = "M 382.03 2.34 L 382.03 2.34" stroke="white" fill="transparent"/>
	<path d = "M 44.53 187.50 L 159.38 112.50 L 260.16 70.31 L 356.25 51.56 L 421.88 51.56 L 464.06 60.94 L 508.59 84.38 L 553.12 131.25 L 574.22 178.12 L 574.22 208.59 L 562.50 222.66 L 536.72 239.06 L 503.91 246.09 L 217.97 250.78" stroke="white" fill="transparent"/>
</svg>