<?xml version="1.0" encoding="UTF-8" standalone="no"?>
<!--Created with ndjsontosvg (https:https://github.com/thompson318/ndjsontosvg) 
	from the simplified Google quickdraw data set. key_id = 5902061956759552-->
<svg width="600" height="600"
	xmlns="http://www.w3.org/2000/svg">
	xmlns:ndjsontosvg="https://github.com/thompson318/ndjsontosvg"
	xmlns:quickdraw="https://quickdraw.withgoogle.com/data"
	xmlns:scikit-surgery="https://doi.org/10.1007/s11548-020-02180-5">

	<rect width="100%" height="100%" fill="black" />
	<path d = "M 271.88 7.03 L 262.50 2.34 L 201.56 7.03 L 138.28 32.81 L 75.00 82.03 L 35.16 128.91 L 9.38 180.47 L 0.00 260.16 L 14.06 276.56 L 93.75 295.31 L 285.94 302.34 L 346.88 309.38 L 473.44 309.38 L 546.09 281.25 L 564.84 262.50 L 571.88 243.75 L 574.22 192.19 L 557.81 157.03 L 522.66 110.16 L 501.56 89.06 L 457.03 63.28 L 346.88 37.50 L 269.53 0.00" stroke="white" fill="transparent"/>
	<path d = "M 2.34 257.81 L 2.34 335.16 L 28.12 358.59 L 51.56 370.31 L 180.47 386.72 L 513.28 386.72 L 560.16 370.31 L 590.62 323.44 L 597.66 253.12 L 583.59 220.31" stroke="white" fill="transparent"/>
	<path d = "M 232.03 311.72 L 232.03 391.41 L 363.28 396.09 L 370.31 356.25 L 356.25 309.38" stroke="white" fill="transparent"/>
</svg>