<?xml version="1.0" encoding="UTF-8" standalone="no"?>
<!--Created with ndjsontosvg (https:https://github.com/thompson318/ndjsontosvg) 
	from the simplified Google quickdraw data set. key_id = 5801949930717184-->
<svg width="600" height="600"
	xmlns="http://www.w3.org/2000/svg">
	xmlns:ndjsontosvg="https://github.com/thompson318/ndjsontosvg"
	xmlns:quickdraw="https://quickdraw.withgoogle.com/data"
	xmlns:scikit-surgery="https://doi.org/10.1007/s11548-020-02180-5">

	<rect width="100%" height="100%" fill="black" />
	<path d = "M 0.00 44.53 L 37.50 56.25 L 142.97 60.94 L 597.66 11.72" stroke="white" fill="transparent"/>
	<path d = "M 0.00 46.88 L 11.72 121.88 L 51.56 135.94 L 96.09 138.28 L 482.81 117.19 L 513.28 107.81 L 562.50 75.00" stroke="white" fill="transparent"/>
	<path d = "M 578.91 0.00 L 574.22 86.72" stroke="white" fill="transparent"/>
	<path d = "M 208.59 49.22 L 213.28 103.12 L 225.00 133.59" stroke="white" fill="transparent"/>
	<path d = "M 311.72 39.84 L 325.78 65.62 L 339.84 124.22" stroke="white" fill="transparent"/>
	<path d = "M 225.00 93.75 L 370.31 84.38" stroke="white" fill="transparent"/>
	<path d = "M 196.88 89.06 L 225.00 103.12 L 246.09 105.47" stroke="white" fill="transparent"/>
	<path d = "M 225.00 65.62 L 234.38 89.06 L 276.56 128.91 L 314.06 131.25 L 337.50 114.84" stroke="white" fill="transparent"/>
	<path d = "M 262.50 46.88 L 264.84 79.69 L 285.94 103.12" stroke="white" fill="transparent"/>
</svg>