<?xml version="1.0" encoding="UTF-8" standalone="no"?>
<!--Created with ndjsontosvg (https:https://github.com/thompson318/ndjsontosvg) 
	from the simplified Google quickdraw data set. key_id = 4587117621542912-->
<svg width="600" height="600"
	xmlns="http://www.w3.org/2000/svg">
	xmlns:ndjsontosvg="https://github.com/thompson318/ndjsontosvg"
	xmlns:quickdraw="https://quickdraw.withgoogle.com/data"
	xmlns:scikit-surgery="https://doi.org/10.1007/s11548-020-02180-5">

	<rect width="100%" height="100%" fill="black" />
	<path d = "M 42.19 142.97 L 4.69 145.31 L 2.34 157.03 L 2.34 185.16 L 21.09 217.97 L 126.56 309.38 L 164.06 335.16 L 185.16 339.84 L 206.25 302.34 L 215.62 248.44 L 161.72 194.53 L 65.62 121.88" stroke="white" fill="transparent"/>
	<path d = "M 126.56 145.31 L 548.44 150.00 L 471.09 199.22 L 433.59 260.16 L 459.38 281.25 L 555.47 285.94 L 597.66 255.47 L 597.66 210.94 L 583.59 171.09 L 560.16 145.31 L 532.03 128.91 L 431.25 126.56" stroke="white" fill="transparent"/>
	<path d = "M 321.09 138.28 L 328.12 105.47 L 328.12 16.41 L 318.75 25.78 L 278.91 37.50 L 367.97 11.72 L 487.50 2.34" stroke="white" fill="transparent"/>
	<path d = "M 311.72 138.28 L 311.72 138.28" stroke="white" fill="transparent"/>
</svg>