<?xml version="1.0" encoding="UTF-8" standalone="no"?>
<!--Created with ndjsontosvg (https:https://github.com/thompson318/ndjsontosvg) 
	from the simplified Google quickdraw data set. key_id = 5894515212681216-->
<svg width="600" height="600"
	xmlns="http://www.w3.org/2000/svg">
	xmlns:ndjsontosvg="https://github.com/thompson318/ndjsontosvg"
	xmlns:quickdraw="https://quickdraw.withgoogle.com/data"
	xmlns:scikit-surgery="https://doi.org/10.1007/s11548-020-02180-5">

	<rect width="100%" height="100%" fill="black" />
	<path d = "M 65.62 128.91 L 39.84 126.56 L 16.41 145.31 L 7.03 166.41 L 0.00 227.34 L 11.72 246.09 L 42.19 264.84 L 46.88 278.91 L 60.94 274.22 L 67.97 288.28 L 93.75 292.97 L 112.50 292.97 L 159.38 253.12 L 171.09 213.28 L 168.75 154.69 L 154.69 124.22 L 128.91 110.16 L 72.66 110.16 L 39.84 126.56" stroke="white" fill="transparent"/>
	<path d = "M 475.78 98.44 L 403.12 98.44 L 365.62 119.53 L 356.25 222.66 L 356.25 264.84 L 367.97 288.28 L 410.16 316.41 L 471.09 323.44 L 539.06 292.97 L 578.91 260.16 L 588.28 243.75 L 597.66 154.69 L 588.28 131.25 L 560.16 100.78 L 506.25 86.72 L 450.00 89.06 L 431.25 100.78" stroke="white" fill="transparent"/>
	<path d = "M 138.28 166.41 L 285.94 154.69 L 424.22 161.72" stroke="white" fill="transparent"/>
	<path d = "M 424.22 150.00 L 412.50 0.00" stroke="white" fill="transparent"/>
	<path d = "M 391.41 2.34 L 431.25 2.34" stroke="white" fill="transparent"/>
</svg>