<?xml version="1.0" encoding="UTF-8" standalone="no"?>
<!--Created with ndjsontosvg (https:https://github.com/thompson318/ndjsontosvg) 
	from the simplified Google quickdraw data set. key_id = 5816147494567936-->
<svg width="600" height="600"
	xmlns="http://www.w3.org/2000/svg">
	xmlns:ndjsontosvg="https://github.com/thompson318/ndjsontosvg"
	xmlns:quickdraw="https://quickdraw.withgoogle.com/data"
	xmlns:scikit-surgery="https://doi.org/10.1007/s11548-020-02180-5">

	<rect width="100%" height="100%" fill="black" />
	<path d = "M 201.56 173.44 L 189.84 168.75 L 173.44 173.44 L 107.81 206.25 L 49.22 246.09 L 21.09 269.53 L 4.69 300.00 L 0.00 337.50 L 14.06 360.94 L 35.16 372.66 L 98.44 377.34 L 135.94 367.97 L 182.81 335.16 L 229.69 217.97 L 227.34 185.16 L 196.88 152.34" stroke="white" fill="transparent"/>
	<path d = "M 592.97 220.31 L 529.69 196.88 L 485.16 192.19 L 454.69 208.59 L 431.25 232.03 L 405.47 274.22 L 386.72 316.41 L 382.03 349.22 L 403.12 403.12 L 435.94 438.28 L 464.06 447.66 L 517.97 447.66 L 557.81 438.28 L 581.25 412.50 L 595.31 382.03 L 597.66 316.41 L 590.62 262.50 L 571.88 210.94" stroke="white" fill="transparent"/>
	<path d = "M 522.66 248.44 L 501.56 220.31 L 475.78 154.69 L 466.41 91.41" stroke="white" fill="transparent"/>
	<path d = "M 203.91 215.62 L 330.47 16.41" stroke="white" fill="transparent"/>
	<path d = "M 330.47 0.00 L 346.88 30.47 L 393.75 67.97 L 452.34 79.69 L 478.12 75.00" stroke="white" fill="transparent"/>
	<path d = "M 452.34 79.69 L 576.56 21.09" stroke="white" fill="transparent"/>
</svg>