<?xml version="1.0" encoding="UTF-8" standalone="no"?>
<!--Created with ndjsontosvg (https:https://github.com/thompson318/ndjsontosvg) 
	from the simplified Google quickdraw data set. key_id = 5839963176304640-->
<svg width="600" height="600"
	xmlns="http://www.w3.org/2000/svg">
	xmlns:ndjsontosvg="https://github.com/thompson318/ndjsontosvg"
	xmlns:quickdraw="https://quickdraw.withgoogle.com/data"
	xmlns:scikit-surgery="https://doi.org/10.1007/s11548-020-02180-5">

	<rect width="100%" height="100%" fill="black" />
	<path d = "M 210.94 222.66 L 117.19 199.22 L 51.56 199.22 L 35.16 210.94 L 18.75 260.16 L 16.41 321.09 L 28.12 344.53 L 65.62 367.97 L 105.47 375.00 L 182.81 372.66 L 203.91 356.25 L 220.31 328.12 L 220.31 250.78 L 192.19 201.56 L 178.12 192.19" stroke="white" fill="transparent"/>
	<path d = "M 597.66 215.62 L 450.00 201.56 L 410.16 215.62 L 349.22 255.47 L 323.44 292.97 L 325.78 344.53 L 365.62 382.03 L 410.16 398.44 L 468.75 398.44 L 494.53 377.34 L 527.34 330.47 L 548.44 271.88 L 553.12 217.97 L 536.72 210.94 L 499.22 210.94" stroke="white" fill="transparent"/>
	<path d = "M 457.03 297.66 L 450.00 288.28 L 438.28 288.28 L 419.53 309.38 L 426.56 314.06" stroke="white" fill="transparent"/>
	<path d = "M 86.72 311.72 L 93.75 290.62 L 84.38 290.62" stroke="white" fill="transparent"/>
	<path d = "M 75.00 192.19 L 84.38 377.34" stroke="white" fill="transparent"/>
	<path d = "M 0.00 302.34 L 189.84 283.59 L 210.94 276.56" stroke="white" fill="transparent"/>
	<path d = "M 189.84 220.31 L 84.38 290.62 L 11.72 358.59" stroke="white" fill="transparent"/>
	<path d = "M 46.88 222.66 L 39.84 246.09 L 60.94 278.91 L 192.19 356.25" stroke="white" fill="transparent"/>
	<path d = "M 473.44 206.25 L 485.16 208.59 L 485.16 241.41 L 475.78 262.50 L 379.69 421.88" stroke="white" fill="transparent"/>
	<path d = "M 283.59 295.31 L 318.75 283.59 L 431.25 316.41 L 546.09 318.75 L 574.22 314.06" stroke="white" fill="transparent"/>
	<path d = "M 548.44 262.50 L 323.44 344.53" stroke="white" fill="transparent"/>
	<path d = "M 438.28 222.66 L 433.59 271.88 L 452.34 379.69" stroke="white" fill="transparent"/>
	<path d = "M 147.66 206.25 L 145.31 173.44 L 128.91 128.91 L 103.12 112.50 L 35.16 86.72" stroke="white" fill="transparent"/>
	<path d = "M 2.34 46.88 L 4.69 67.97 L 25.78 86.72 L 100.78 103.12 L 131.25 103.12 L 175.78 84.38 L 201.56 63.28 L 234.38 0.00" stroke="white" fill="transparent"/>
</svg>