<?xml version="1.0" encoding="UTF-8" standalone="no"?>
<!--Created with ndjsontosvg (https:https://github.com/thompson318/ndjsontosvg) 
	from the simplified Google quickdraw data set. key_id = 4868404395638784-->
<svg width="600" height="600"
	xmlns="http://www.w3.org/2000/svg">
	xmlns:ndjsontosvg="https://github.com/thompson318/ndjsontosvg"
	xmlns:quickdraw="https://quickdraw.withgoogle.com/data"
	xmlns:scikit-surgery="https://doi.org/10.1007/s11548-020-02180-5">

	<rect width="100%" height="100%" fill="black" />
	<path d = "M 63.28 271.88 L 124.22 267.19 L 168.75 278.91 L 180.47 292.97 L 196.88 332.81 L 201.56 377.34 L 161.72 421.88 L 107.81 435.94 L 46.88 428.91 L 9.38 344.53 L 0.00 278.91 L 14.06 267.19 L 79.69 250.78 L 86.72 250.78 L 89.06 262.50" stroke="white" fill="transparent"/>
	<path d = "M 147.66 264.84 L 372.66 234.38 L 351.56 260.16 L 342.19 290.62 L 344.53 325.78 L 358.59 353.91 L 382.03 363.28 L 454.69 414.84 L 489.84 428.91 L 569.53 431.25 L 578.91 426.56 L 592.97 398.44 L 597.66 302.34 L 578.91 264.84 L 546.09 234.38 L 452.34 178.12 L 332.81 175.78 L 318.75 187.50 L 314.06 203.91 L 351.56 239.06 L 342.19 239.06" stroke="white" fill="transparent"/>
	<path d = "M 257.81 241.41 L 260.16 269.53 L 267.19 274.22 L 253.12 267.19" stroke="white" fill="transparent"/>
	<path d = "M 431.25 161.72 L 428.91 131.25 L 417.19 114.84 L 473.44 79.69 L 529.69 60.94 L 217.97 135.94 L 288.28 117.19 L 450.00 58.59 L 513.28 23.44 L 506.25 32.81 L 445.31 51.56 L 349.22 65.62 L 332.81 65.62 L 372.66 46.88 L 480.47 7.03 L 539.06 0.00" stroke="white" fill="transparent"/>
</svg>