<?xml version="1.0" encoding="UTF-8" standalone="no"?>
<!--Created with ndjsontosvg (https:https://github.com/thompson318/ndjsontosvg) 
	from the simplified Google quickdraw data set. key_id = 5025684499988480-->
<svg width="600" height="600"
	xmlns="http://www.w3.org/2000/svg">
	xmlns:ndjsontosvg="https://github.com/thompson318/ndjsontosvg"
	xmlns:quickdraw="https://quickdraw.withgoogle.com/data"
	xmlns:scikit-surgery="https://doi.org/10.1007/s11548-020-02180-5">

	<rect width="100%" height="100%" fill="black" />
	<path d = "M 128.91 304.69 L 93.75 304.69 L 53.91 290.62 L 11.72 253.12 L 0.00 225.00 L 39.84 192.19 L 93.75 164.06 L 157.03 150.00 L 206.25 147.66 L 222.66 154.69 L 246.09 178.12 L 246.09 203.91 L 232.03 234.38 L 142.97 281.25 L 112.50 290.62 L 58.59 290.62" stroke="white" fill="transparent"/>
	<path d = "M 515.62 290.62 L 496.88 281.25 L 468.75 250.78 L 457.03 213.28 L 459.38 194.53 L 501.56 150.00 L 557.81 147.66 L 581.25 168.75 L 597.66 206.25 L 597.66 234.38 L 576.56 264.84 L 529.69 281.25 L 428.91 281.25" stroke="white" fill="transparent"/>
	<path d = "M 534.38 164.06 L 494.53 32.81" stroke="white" fill="transparent"/>
	<path d = "M 140.62 135.94 L 128.91 107.81 L 128.91 53.91" stroke="white" fill="transparent"/>
	<path d = "M 25.78 0.00 L 112.50 30.47 L 194.53 44.53 L 414.84 44.53" stroke="white" fill="transparent"/>
</svg>