<?xml version="1.0" encoding="UTF-8" standalone="no"?>
<!--Created with ndjsontosvg (https:https://github.com/thompson318/ndjsontosvg) 
	from the simplified Google quickdraw data set. key_id = 5649778601885696-->
<svg width="600" height="600"
	xmlns="http://www.w3.org/2000/svg">
	xmlns:ndjsontosvg="https://github.com/thompson318/ndjsontosvg"
	xmlns:quickdraw="https://quickdraw.withgoogle.com/data"
	xmlns:scikit-surgery="https://doi.org/10.1007/s11548-020-02180-5">

	<rect width="100%" height="100%" fill="black" />
	<path d = "M 51.56 126.56 L 0.00 161.72 L 150.00 297.66 L 166.41 281.25 L 173.44 248.44 L 147.66 180.47 L 91.41 131.25 L 49.22 119.53 L 14.06 124.22" stroke="white" fill="transparent"/>
	<path d = "M 421.88 119.53 L 379.69 135.94 L 363.28 152.34 L 346.88 189.84 L 342.19 248.44 L 358.59 295.31 L 400.78 332.81 L 468.75 346.88 L 532.03 339.84 L 567.19 323.44 L 585.94 304.69 L 597.66 269.53 L 585.94 215.62 L 548.44 159.38 L 501.56 112.50 L 464.06 103.12 L 440.62 112.50 L 403.12 152.34 L 386.72 178.12" stroke="white" fill="transparent"/>
	<path d = "M 89.06 220.31 L 114.84 157.03 L 124.22 91.41 L 142.97 18.75 L 150.00 11.72" stroke="white" fill="transparent"/>
	<path d = "M 450.00 236.72 L 370.31 58.59 L 332.81 0.00" stroke="white" fill="transparent"/>
</svg>