<?xml version="1.0" encoding="UTF-8" standalone="no"?>
<!--Created with ndjsontosvg (https:https://github.com/thompson318/ndjsontosvg) 
	from the simplified Google quickdraw data set. key_id = 4555226449182720-->
<svg width="600" height="600"
	xmlns="http://www.w3.org/2000/svg">
	xmlns:ndjsontosvg="https://github.com/thompson318/ndjsontosvg"
	xmlns:quickdraw="https://quickdraw.withgoogle.com/data"
	xmlns:scikit-surgery="https://doi.org/10.1007/s11548-020-02180-5">

	<rect width="100%" height="100%" fill="black" />
	<path d = "M 208.59 117.19 L 98.44 119.53 L 58.59 138.28 L 32.81 175.78 L 7.03 236.72 L 0.00 297.66 L 11.72 335.16 L 39.84 351.56 L 117.19 360.94 L 215.62 358.59 L 283.59 337.50 L 297.66 314.06 L 295.31 276.56 L 257.81 194.53 L 225.00 142.97" stroke="white" fill="transparent"/>
	<path d = "M 128.91 114.84 L 121.88 173.44 L 133.59 360.94" stroke="white" fill="transparent"/>
	<path d = "M 72.66 229.69 L 105.47 236.72 L 349.22 232.03" stroke="white" fill="transparent"/>
	<path d = "M 203.91 157.03 L 128.91 257.81 L 75.00 311.72 L 39.84 335.16" stroke="white" fill="transparent"/>
	<path d = "M 16.41 180.47 L 93.75 229.69 L 217.97 328.12 L 257.81 349.22" stroke="white" fill="transparent"/>
	<path d = "M 539.06 140.62 L 478.12 145.31 L 454.69 175.78 L 440.62 210.94 L 435.94 271.88 L 445.31 297.66 L 492.19 318.75 L 529.69 323.44 L 539.06 316.41 L 557.81 292.97 L 581.25 239.06 L 590.62 171.09 L 581.25 133.59 L 546.09 100.78" stroke="white" fill="transparent"/>
	<path d = "M 597.66 142.97 L 536.72 187.50 L 428.91 288.28" stroke="white" fill="transparent"/>
	<path d = "M 461.72 142.97 L 468.75 173.44 L 496.88 236.72 L 532.03 295.31 L 539.06 307.03 L 546.09 302.34" stroke="white" fill="transparent"/>
	<path d = "M 564.84 142.97 L 541.41 189.84 L 452.34 297.66" stroke="white" fill="transparent"/>
	<path d = "M 473.44 159.38 L 485.16 225.00 L 515.62 285.94 L 550.78 321.09 L 597.66 339.84" stroke="white" fill="transparent"/>
	<path d = "M 494.53 140.62 L 337.50 135.94 L 264.84 147.66 L 243.75 145.31" stroke="white" fill="transparent"/>
	<path d = "M 342.19 133.59 L 339.84 11.72 L 292.97 7.03 L 367.97 0.00" stroke="white" fill="transparent"/>
	<path d = "M 475.78 126.56 L 489.84 86.72 L 522.66 25.78" stroke="white" fill="transparent"/>
</svg>