<?xml version="1.0" encoding="UTF-8" standalone="no"?>
<!--Created with ndjsontosvg (https:https://github.com/thompson318/ndjsontosvg) 
	from the simplified Google quickdraw data set. key_id = 5463373095370752-->
<svg width="600" height="600"
	xmlns="http://www.w3.org/2000/svg">
	xmlns:ndjsontosvg="https://github.com/thompson318/ndjsontosvg"
	xmlns:quickdraw="https://quickdraw.withgoogle.com/data"
	xmlns:scikit-surgery="https://doi.org/10.1007/s11548-020-02180-5">

	<rect width="100%" height="100%" fill="black" />
	<path d = "M 159.38 248.44 L 16.41 250.78 L 7.03 262.50 L 0.00 367.97 L 2.34 379.69 L 21.09 391.41 L 117.19 410.16 L 161.72 410.16 L 210.94 367.97 L 234.38 307.03 L 234.38 267.19 L 210.94 250.78 L 154.69 225.00 L 60.94 215.62 L 44.53 222.66 L 25.78 269.53" stroke="white" fill="transparent"/>
	<path d = "M 485.16 260.16 L 412.50 267.19 L 379.69 295.31 L 351.56 337.50 L 349.22 435.94 L 360.94 461.72 L 403.12 478.12 L 536.72 475.78 L 569.53 457.03 L 578.91 428.91 L 578.91 318.75 L 541.41 285.94 L 487.50 262.50 L 450.00 255.47" stroke="white" fill="transparent"/>
	<path d = "M 131.25 232.03 L 133.59 215.62 L 175.78 159.38" stroke="white" fill="transparent"/>
	<path d = "M 175.78 159.38 L 225.00 117.19 L 281.25 138.28 L 419.53 150.00 L 426.56 189.84 L 450.00 236.72 L 468.75 257.81" stroke="white" fill="transparent"/>
	<path d = "M 428.91 152.34 L 461.72 91.41 L 494.53 49.22" stroke="white" fill="transparent"/>
	<path d = "M 496.88 49.22 L 426.56 0.00 L 515.62 65.62 L 597.66 107.81" stroke="white" fill="transparent"/>
	<path d = "M 250.78 124.22 L 253.12 114.84 L 269.53 107.81 L 307.03 110.16 L 318.75 119.53 L 311.72 135.94 L 250.78 159.38" stroke="white" fill="transparent"/>
</svg>