<?xml version="1.0" encoding="UTF-8" standalone="no"?>
<!--Created with ndjsontosvg (https:https://github.com/thompson318/ndjsontosvg) 
	from the simplified Google quickdraw data set. key_id = 6010147342123008-->
<svg width="600" height="600"
	xmlns="http://www.w3.org/2000/svg">
	xmlns:ndjsontosvg="https://github.com/thompson318/ndjsontosvg"
	xmlns:quickdraw="https://quickdraw.withgoogle.com/data"
	xmlns:scikit-surgery="https://doi.org/10.1007/s11548-020-02180-5">

	<rect width="100%" height="100%" fill="black" />
	<path d = "M 79.69 365.62 L 63.28 386.72 L 63.28 459.38 L 84.38 501.56 L 105.47 525.00 L 124.22 534.38 L 140.62 534.38 L 215.62 466.41 L 262.50 396.09 L 283.59 328.12 L 281.25 253.12 L 260.16 239.06 L 208.59 241.41 L 103.12 269.53 L 79.69 281.25 L 37.50 318.75 L 0.00 365.62" stroke="white" fill="transparent"/>
	<path d = "M 515.62 365.62 L 496.88 353.91 L 440.62 365.62 L 384.38 412.50 L 353.91 464.06 L 339.84 513.28 L 339.84 548.44 L 365.62 564.84 L 442.97 571.88 L 503.91 527.34 L 517.97 501.56 L 529.69 459.38 L 525.00 398.44 L 510.94 375.00 L 468.75 339.84" stroke="white" fill="transparent"/>
	<path d = "M 65.62 300.00 L 56.25 274.22 L 56.25 154.69 L 84.38 18.75" stroke="white" fill="transparent"/>
	<path d = "M 248.44 295.31 L 302.34 63.28 L 328.12 0.00" stroke="white" fill="transparent"/>
	<path d = "M 403.12 353.91 L 398.44 325.78 L 464.06 210.94 L 471.09 72.66" stroke="white" fill="transparent"/>
	<path d = "M 513.28 384.38 L 501.56 346.88 L 506.25 325.78 L 583.59 119.53 L 597.66 119.53" stroke="white" fill="transparent"/>
</svg>