<?xml version="1.0" encoding="UTF-8" standalone="no"?>
<!--Created with ndjsontosvg (https:https://github.com/thompson318/ndjsontosvg) 
	from the simplified Google quickdraw data set. key_id = 5912763379482624-->
<svg width="600" height="600"
	xmlns="http://www.w3.org/2000/svg">
	xmlns:ndjsontosvg="https://github.com/thompson318/ndjsontosvg"
	xmlns:quickdraw="https://quickdraw.withgoogle.com/data"
	xmlns:scikit-surgery="https://doi.org/10.1007/s11548-020-02180-5">

	<rect width="100%" height="100%" fill="black" />
	<path d = "M 142.97 274.22 L 58.59 304.69 L 42.19 321.09 L 7.03 384.38 L 0.00 473.44 L 30.47 546.09 L 63.28 581.25 L 96.09 597.66 L 152.34 585.94 L 220.31 525.00 L 243.75 487.50 L 253.12 442.97 L 253.12 393.75 L 234.38 358.59 L 201.56 332.81 L 178.12 328.12 L 138.28 330.47 L 72.66 356.25" stroke="white" fill="transparent"/>
	<path d = "M 527.34 274.22 L 435.94 290.62 L 403.12 307.03 L 367.97 349.22 L 349.22 417.19 L 349.22 487.50 L 377.34 539.06 L 426.56 562.50 L 471.09 562.50 L 527.34 525.00 L 562.50 478.12 L 578.91 433.59 L 574.22 358.59 L 527.34 304.69 L 503.91 292.97 L 482.81 292.97" stroke="white" fill="transparent"/>
	<path d = "M 250.78 400.78 L 344.53 389.06" stroke="white" fill="transparent"/>
	<path d = "M 250.78 400.78 L 250.78 400.78" stroke="white" fill="transparent"/>
	<path d = "M 250.78 400.78 L 250.78 400.78" stroke="white" fill="transparent"/>
	<path d = "M 23.44 478.12 L 11.72 384.38 L 11.72 229.69 L 23.44 75.00" stroke="white" fill="transparent"/>
	<path d = "M 269.53 386.72 L 267.19 309.38 L 236.72 124.22 L 175.78 0.00" stroke="white" fill="transparent"/>
</svg>