<?xml version="1.0" encoding="UTF-8" standalone="no"?>
<!--Created with ndjsontosvg (https:https://github.com/thompson318/ndjsontosvg) 
	from the simplified Google quickdraw data set. key_id = 4930007560355840-->
<svg width="600" height="600"
	xmlns="http://www.w3.org/2000/svg">
	xmlns:ndjsontosvg="https://github.com/thompson318/ndjsontosvg"
	xmlns:quickdraw="https://quickdraw.withgoogle.com/data"
	xmlns:scikit-surgery="https://doi.org/10.1007/s11548-020-02180-5">

	<rect width="100%" height="100%" fill="black" />
	<path d = "M 9.38 325.78 L 2.34 396.09 L 16.41 487.50 L 37.50 529.69 L 82.03 553.12 L 140.62 539.06 L 192.19 466.41 L 201.56 363.28 L 187.50 316.41 L 171.09 285.94 L 147.66 269.53 L 107.81 257.81 L 70.31 260.16 L 39.84 274.22 L 18.75 288.28 L 0.00 325.78" stroke="white" fill="transparent"/>
	<path d = "M 255.47 278.91 L 225.00 318.75 L 199.22 407.81 L 210.94 478.12 L 232.03 515.62 L 288.28 546.09 L 323.44 539.06 L 351.56 513.28 L 377.34 459.38 L 386.72 389.06 L 379.69 328.12 L 365.62 278.91 L 328.12 232.03 L 297.66 217.97 L 232.03 217.97 L 194.53 246.09" stroke="white" fill="transparent"/>
	<path d = "M 35.16 246.09 L 117.19 182.81 L 217.97 121.88 L 321.09 72.66 L 414.84 39.84" stroke="white" fill="transparent"/>
	<path d = "M 119.53 304.69 L 321.09 154.69 L 466.41 65.62" stroke="white" fill="transparent"/>
	<path d = "M 353.91 442.97 L 414.84 356.25 L 553.12 110.16" stroke="white" fill="transparent"/>
	<path d = "M 435.94 0.00 L 515.62 82.03 L 597.66 145.31" stroke="white" fill="transparent"/>
</svg>