<?xml version="1.0" encoding="UTF-8" standalone="no"?>
<!--Created with ndjsontosvg (https:https://github.com/thompson318/ndjsontosvg) 
	from the simplified Google quickdraw data set. key_id = 5426891743821824-->
<svg width="600" height="600"
	xmlns="http://www.w3.org/2000/svg">
	xmlns:ndjsontosvg="https://github.com/thompson318/ndjsontosvg"
	xmlns:quickdraw="https://quickdraw.withgoogle.com/data"
	xmlns:scikit-surgery="https://doi.org/10.1007/s11548-020-02180-5">

	<rect width="100%" height="100%" fill="black" />
	<path d = "M 105.47 180.47 L 72.66 175.78 L 56.25 182.81 L 35.16 196.88 L 7.03 241.41 L 0.00 267.19 L 2.34 311.72 L 16.41 335.16 L 35.16 344.53 L 84.38 339.84 L 126.56 295.31 L 145.31 250.78 L 142.97 215.62 L 119.53 182.81 L 96.09 168.75 L 67.97 173.44" stroke="white" fill="transparent"/>
	<path d = "M 152.34 257.81 L 192.19 257.81 L 246.09 269.53" stroke="white" fill="transparent"/>
	<path d = "M 288.28 147.66 L 274.22 182.81 L 264.84 262.50 L 264.84 309.38 L 281.25 325.78 L 302.34 332.81 L 337.50 330.47 L 375.00 307.03 L 389.06 274.22 L 389.06 232.03 L 363.28 199.22 L 302.34 145.31 L 269.53 142.97 L 248.44 150.00 L 232.03 171.09 L 227.34 257.81 L 236.72 281.25 L 257.81 304.69 L 309.38 328.12 L 346.88 332.81 L 379.69 318.75 L 389.06 304.69 L 389.06 285.94 L 367.97 201.56 L 297.66 140.62 L 267.19 121.88 L 246.09 121.88" stroke="white" fill="transparent"/>
	<path d = "M 2.34 260.16 L 18.75 206.25 L 63.28 135.94 L 150.00 63.28 L 246.09 30.47 L 393.75 16.41 L 424.22 0.00" stroke="white" fill="transparent"/>
	<path d = "M 400.78 241.41 L 461.72 166.41 L 597.66 44.53" stroke="white" fill="transparent"/>
</svg>