<?xml version="1.0" encoding="UTF-8" standalone="no"?>
<!--Created with ndjsontosvg (https:https://github.com/thompson318/ndjsontosvg) 
	from the simplified Google quickdraw data set. key_id = 6292488178368512-->
<svg width="600" height="600"
	xmlns="http://www.w3.org/2000/svg">
	xmlns:ndjsontosvg="https://github.com/thompson318/ndjsontosvg"
	xmlns:quickdraw="https://quickdraw.withgoogle.com/data"
	xmlns:scikit-surgery="https://doi.org/10.1007/s11548-020-02180-5">

	<rect width="100%" height="100%" fill="black" />
	<path d = "M 182.81 480.47 L 98.44 480.47 L 56.25 492.19 L 28.12 508.59 L 2.34 541.41 L 2.34 564.84 L 16.41 585.94 L 65.62 595.31 L 98.44 597.66 L 180.47 581.25 L 203.91 567.19 L 199.22 532.03 L 220.31 473.44 L 227.34 424.22 L 229.69 96.09" stroke="white" fill="transparent"/>
	<path d = "M 0.00 541.41 L 14.06 520.31 L 44.53 421.88 L 100.78 175.78 L 107.81 98.44 L 121.88 63.28 L 220.31 30.47 L 232.03 30.47 L 243.75 56.25 L 234.38 164.06 L 227.34 175.78 L 196.88 180.47 L 185.16 173.44 L 140.62 131.25 L 131.25 79.69" stroke="white" fill="transparent"/>
	<path d = "M 534.38 496.88 L 421.88 499.22 L 396.09 515.62 L 375.00 550.78 L 377.34 562.50 L 412.50 574.22 L 478.12 555.47 L 499.22 520.31 L 503.91 482.81 L 520.31 435.94 L 525.00 389.06 L 515.62 206.25 L 499.22 119.53 L 492.19 7.03 L 480.47 0.00 L 457.03 2.34 L 428.91 14.06 L 396.09 44.53 L 396.09 56.25 L 442.97 67.97 L 506.25 60.94 L 372.66 84.38 L 358.59 135.94" stroke="white" fill="transparent"/>
</svg>