<?xml version="1.0" encoding="UTF-8" standalone="no"?>
<!--Created with ndjsontosvg (https:https://github.com/thompson318/ndjsontosvg) 
	from the simplified Google quickdraw data set. key_id = 5266868120059904-->
<svg width="600" height="600"
	xmlns="http://www.w3.org/2000/svg">
	xmlns:ndjsontosvg="https://github.com/thompson318/ndjsontosvg"
	xmlns:quickdraw="https://quickdraw.withgoogle.com/data"
	xmlns:scikit-surgery="https://doi.org/10.1007/s11548-020-02180-5">

	<rect width="100%" height="100%" fill="black" />
	<path d = "M 196.88 2.34 L 138.28 2.34 L 79.69 56.25 L 77.34 84.38 L 82.03 98.44 L 107.81 117.19 L 138.28 121.88 L 175.78 119.53 L 229.69 70.31 L 234.38 35.16 L 222.66 11.72 L 213.28 2.34 L 182.81 2.34" stroke="white" fill="transparent"/>
	<path d = "M 142.97 35.16 L 142.97 35.16" stroke="white" fill="transparent"/>
	<path d = "M 140.62 65.62 L 154.69 53.91 L 159.38 63.28" stroke="white" fill="transparent"/>
	<path d = "M 105.47 67.97 L 58.59 84.38 L 0.00 121.88 L 114.84 121.88" stroke="white" fill="transparent"/>
	<path d = "M 215.62 96.09 L 424.22 91.41 L 454.69 103.12 L 478.12 128.91 L 487.50 145.31 L 475.78 168.75 L 309.38 206.25 L 199.22 215.62 L 171.09 206.25 L 159.38 192.19 L 140.62 140.62" stroke="white" fill="transparent"/>
	<path d = "M 457.03 107.81 L 510.94 91.41 L 581.25 42.19 L 595.31 39.84 L 597.66 58.59 L 525.00 166.41 L 508.59 173.44 L 424.22 180.47" stroke="white" fill="transparent"/>
</svg>