<?xml version="1.0" encoding="UTF-8" standalone="no"?>
<!--Created with ndjsontosvg (https:https://github.com/thompson318/ndjsontosvg) 
	from the simplified Google quickdraw data set. key_id = 5368472269750272-->
<svg width="600" height="600"
	xmlns="http://www.w3.org/2000/svg">
	xmlns:ndjsontosvg="https://github.com/thompson318/ndjsontosvg"
	xmlns:quickdraw="https://quickdraw.withgoogle.com/data"
	xmlns:scikit-surgery="https://doi.org/10.1007/s11548-020-02180-5">

	<rect width="100%" height="100%" fill="black" />
	<path d = "M 75.00 119.53 L 0.00 152.34 L 0.00 159.38 L 67.97 201.56" stroke="white" fill="transparent"/>
	<path d = "M 84.38 121.88 L 77.34 150.00 L 82.03 199.22" stroke="white" fill="transparent"/>
	<path d = "M 75.00 114.84 L 72.66 91.41 L 82.03 63.28 L 100.78 37.50 L 133.59 14.06 L 192.19 0.00 L 236.72 23.44 L 290.62 93.75 L 302.34 135.94 L 283.59 206.25 L 246.09 269.53 L 248.44 285.94 L 314.06 330.47 L 475.78 360.94 L 489.84 382.03 L 501.56 426.56 L 492.19 450.00 L 468.75 473.44" stroke="white" fill="transparent"/>
	<path d = "M 75.00 210.94 L 46.88 257.81 L 49.22 302.34 L 91.41 386.72 L 133.59 428.91 L 201.56 468.75 L 278.91 492.19 L 386.72 494.53 L 445.31 478.12" stroke="white" fill="transparent"/>
	<path d = "M 180.47 292.97 L 103.12 375.00 L 124.22 377.34 L 213.28 358.59 L 182.81 431.25 L 182.81 454.69 L 215.62 452.34 L 285.94 426.56 L 302.34 454.69 L 330.47 461.72 L 344.53 452.34 L 356.25 417.19" stroke="white" fill="transparent"/>
	<path d = "M 182.81 309.38 L 274.22 351.56 L 391.41 435.94" stroke="white" fill="transparent"/>
	<path d = "M 121.88 124.22 L 124.22 114.84" stroke="white" fill="transparent"/>
	<path d = "M 229.69 508.59 L 229.69 534.38 L 175.78 562.50" stroke="white" fill="transparent"/>
	<path d = "M 232.03 548.44 L 241.41 595.31" stroke="white" fill="transparent"/>
	<path d = "M 234.38 548.44 L 285.94 560.16" stroke="white" fill="transparent"/>
	<path d = "M 393.75 487.50 L 403.12 539.06" stroke="white" fill="transparent"/>
	<path d = "M 405.47 557.81 L 367.97 581.25" stroke="white" fill="transparent"/>
	<path d = "M 417.19 567.19 L 431.25 597.66" stroke="white" fill="transparent"/>
	<path d = "M 433.59 564.84 L 480.47 576.56" stroke="white" fill="transparent"/>
</svg>