<?xml version="1.0" encoding="UTF-8" standalone="no"?>
<!--Created with ndjsontosvg (https:https://github.com/thompson318/ndjsontosvg) 
	from the simplified Google quickdraw data set. key_id = 4504257485078528-->
<svg width="600" height="600"
	xmlns="http://www.w3.org/2000/svg">
	xmlns:ndjsontosvg="https://github.com/thompson318/ndjsontosvg"
	xmlns:quickdraw="https://quickdraw.withgoogle.com/data"
	xmlns:scikit-surgery="https://doi.org/10.1007/s11548-020-02180-5">

	<rect width="100%" height="100%" fill="black" />
	<path d = "M 157.03 11.72 L 96.09 44.53 L 79.69 63.28 L 44.53 126.56 L 39.84 173.44 L 51.56 210.94 L 86.72 248.44 L 126.56 262.50 L 187.50 262.50 L 253.12 239.06 L 300.00 192.19 L 314.06 164.06 L 323.44 100.78 L 311.72 58.59 L 285.94 28.12 L 262.50 11.72 L 196.88 0.00 L 142.97 16.41" stroke="white" fill="transparent"/>
	<path d = "M 23.44 185.16 L 2.34 215.62 L 0.00 232.03 L 56.25 225.00 L 72.66 234.38" stroke="white" fill="transparent"/>
	<path d = "M 321.09 140.62 L 321.09 201.56 L 339.84 225.00 L 391.41 229.69 L 494.53 215.62 L 541.41 236.72 L 567.19 257.81 L 592.97 309.38 L 595.31 360.94 L 578.91 396.09 L 541.41 428.91 L 421.88 475.78 L 367.97 485.16 L 297.66 480.47 L 243.75 461.72 L 192.19 433.59 L 135.94 382.03 L 96.09 307.03 L 96.09 281.25 L 110.16 274.22" stroke="white" fill="transparent"/>
	<path d = "M 346.88 248.44 L 375.00 239.06 L 417.19 236.72 L 475.78 267.19 L 508.59 302.34 L 534.38 351.56 L 546.09 400.78 L 543.75 438.28 L 539.06 447.66 L 515.62 438.28 L 482.81 447.66 L 435.94 431.25 L 398.44 403.12 L 328.12 328.12" stroke="white" fill="transparent"/>
	<path d = "M 414.84 482.81 L 424.22 510.94" stroke="white" fill="transparent"/>
	<path d = "M 421.88 525.00 L 391.41 541.41" stroke="white" fill="transparent"/>
	<path d = "M 431.25 529.69 L 412.50 557.81 L 410.16 562.50 L 419.53 557.81" stroke="white" fill="transparent"/>
	<path d = "M 424.22 562.50 L 424.22 562.50" stroke="white" fill="transparent"/>
	<path d = "M 461.72 480.47 L 468.75 517.97" stroke="white" fill="transparent"/>
	<path d = "M 471.09 527.34 L 461.72 539.06 L 471.09 548.44 L 468.75 567.19" stroke="white" fill="transparent"/>
	<path d = "M 482.81 546.09 L 482.81 546.09" stroke="white" fill="transparent"/>
</svg>