<?xml version="1.0" encoding="UTF-8" standalone="no"?>
<!--Created with ndjsontosvg (https:https://github.com/thompson318/ndjsontosvg) 
	from the simplified Google quickdraw data set. key_id = 6546659238477824-->
<svg width="600" height="600"
	xmlns="http://www.w3.org/2000/svg">
	xmlns:ndjsontosvg="https://github.com/thompson318/ndjsontosvg"
	xmlns:quickdraw="https://quickdraw.withgoogle.com/data"
	xmlns:scikit-surgery="https://doi.org/10.1007/s11548-020-02180-5">

	<rect width="100%" height="100%" fill="black" />
	<path d = "M 208.59 173.44 L 208.59 100.78 L 220.31 44.53 L 248.44 14.06 L 269.53 2.34 L 309.38 0.00 L 321.09 4.69 L 328.12 107.81 L 339.84 121.88 L 384.38 119.53 L 419.53 44.53 L 454.69 25.78 L 541.41 28.12 L 557.81 42.19 L 553.12 70.31 L 597.66 82.03 L 557.81 98.44 L 553.12 117.19 L 541.41 126.56 L 410.16 185.16 L 405.47 229.69 L 384.38 260.16 L 330.47 290.62 L 220.31 283.59 L 150.00 309.38 L 112.50 246.09 L 105.47 187.50 L 82.03 180.47 L 21.09 131.25 L 0.00 103.12 L 9.38 98.44 L 72.66 89.06 L 93.75 77.34 L 114.84 131.25 L 201.56 154.69 L 210.94 164.06" stroke="white" fill="transparent"/>
	<path d = "M 227.34 271.88 L 217.97 367.97" stroke="white" fill="transparent"/>
	<path d = "M 213.28 351.56 L 208.59 365.62 L 175.78 393.75" stroke="white" fill="transparent"/>
	<path d = "M 225.00 351.56 L 215.62 386.72" stroke="white" fill="transparent"/>
	<path d = "M 220.31 342.19 L 262.50 398.44" stroke="white" fill="transparent"/>
</svg>