<?xml version="1.0" encoding="UTF-8" standalone="no"?>
<!--Created with ndjsontosvg (https:https://github.com/thompson318/ndjsontosvg) 
	from the simplified Google quickdraw data set. key_id = 6418984226258944-->
<svg width="600" height="600"
	xmlns="http://www.w3.org/2000/svg">
	xmlns:ndjsontosvg="https://github.com/thompson318/ndjsontosvg"
	xmlns:quickdraw="https://quickdraw.withgoogle.com/data"
	xmlns:scikit-surgery="https://doi.org/10.1007/s11548-020-02180-5">

	<rect width="100%" height="100%" fill="black" />
	<path d = "M 96.09 131.25 L 93.75 257.81 L 79.69 323.44 L 100.78 332.81 L 440.62 363.28 L 452.34 304.69 L 454.69 168.75 L 440.62 159.38 L 367.97 147.66 L 276.56 145.31 L 192.19 121.88 L 84.38 128.91" stroke="white" fill="transparent"/>
	<path d = "M 142.97 117.19 L 142.97 60.94 L 147.66 56.25 L 171.09 56.25 L 171.09 105.47" stroke="white" fill="transparent"/>
	<path d = "M 208.59 77.34 L 208.59 131.25" stroke="white" fill="transparent"/>
	<path d = "M 210.94 77.34 L 281.25 82.03 L 271.88 124.22" stroke="white" fill="transparent"/>
	<path d = "M 239.06 79.69 L 236.72 51.56" stroke="white" fill="transparent"/>
	<path d = "M 236.72 51.56 L 215.62 37.50 L 213.28 18.75 L 262.50 0.00 L 243.75 21.09 L 239.06 51.56" stroke="white" fill="transparent"/>
	<path d = "M 367.97 75.00 L 365.62 147.66" stroke="white" fill="transparent"/>
	<path d = "M 93.75 262.50 L 42.19 267.19 L 4.69 314.06 L 2.34 349.22 L 32.81 372.66 L 70.31 391.41 L 201.56 428.91 L 358.59 454.69 L 454.69 461.72 L 585.94 428.91 L 597.66 414.84 L 597.66 391.41 L 569.53 321.09 L 527.34 274.22 L 482.81 255.47 L 431.25 260.16" stroke="white" fill="transparent"/>
</svg>