<?xml version="1.0" encoding="UTF-8" standalone="no"?>
<!--Created with ndjsontosvg (https:https://github.com/thompson318/ndjsontosvg) 
	from the simplified Google quickdraw data set. key_id = 5316761698172928-->
<svg width="600" height="600"
	xmlns="http://www.w3.org/2000/svg">
	xmlns:ndjsontosvg="https://github.com/thompson318/ndjsontosvg"
	xmlns:quickdraw="https://quickdraw.withgoogle.com/data"
	xmlns:scikit-surgery="https://doi.org/10.1007/s11548-020-02180-5">

	<rect width="100%" height="100%" fill="black" />
	<path d = "M 91.41 267.19 L 86.72 196.88 L 93.75 164.06 L 105.47 150.00 L 147.66 133.59 L 189.84 128.91 L 339.84 133.59 L 442.97 147.66 L 459.38 178.12 L 464.06 199.22 L 471.09 285.94 L 459.38 292.97" stroke="white" fill="transparent"/>
	<path d = "M 84.38 234.38 L 46.88 236.72 L 7.03 278.91 L 0.00 304.69 L 30.47 330.47 L 82.03 342.19 L 253.12 358.59 L 393.75 360.94 L 546.09 332.81 L 581.25 314.06 L 595.31 297.66 L 597.66 276.56 L 569.53 255.47 L 527.34 234.38 L 459.38 220.31" stroke="white" fill="transparent"/>
	<path d = "M 168.75 126.56 L 157.03 91.41 L 157.03 58.59 L 173.44 53.91 L 180.47 63.28 L 180.47 103.12 L 175.78 103.12" stroke="white" fill="transparent"/>
	<path d = "M 157.03 44.53 L 161.72 11.72 L 175.78 0.00 L 178.12 46.88 L 185.16 56.25" stroke="white" fill="transparent"/>
	<path d = "M 246.09 110.16 L 243.75 63.28" stroke="white" fill="transparent"/>
	<path d = "M 243.75 63.28 L 267.19 63.28 L 269.53 110.16 L 278.91 112.50 L 292.97 103.12" stroke="white" fill="transparent"/>
	<path d = "M 342.19 67.97 L 353.91 114.84 L 353.91 96.09" stroke="white" fill="transparent"/>
</svg>