<?xml version="1.0" encoding="UTF-8" standalone="no"?>
<!--Created with ndjsontosvg (https:https://github.com/thompson318/ndjsontosvg) 
	from the simplified Google quickdraw data set. key_id = 6054026623844352-->
<svg width="600" height="600"
	xmlns="http://www.w3.org/2000/svg">
	xmlns:ndjsontosvg="https://github.com/thompson318/ndjsontosvg"
	xmlns:quickdraw="https://quickdraw.withgoogle.com/data"
	xmlns:scikit-surgery="https://doi.org/10.1007/s11548-020-02180-5">

	<rect width="100%" height="100%" fill="black" />
	<path d = "M 18.75 168.75 L 18.75 246.09 L 39.84 337.50 L 46.88 419.53 L 60.94 428.91 L 194.53 426.56 L 386.72 468.75 L 471.09 459.38 L 583.59 457.03 L 597.66 421.88 L 585.94 196.88 L 574.22 185.16 L 283.59 185.16 L 168.75 203.91 L 98.44 203.91 L 0.00 185.16" stroke="white" fill="transparent"/>
	<path d = "M 131.25 192.19 L 82.03 110.16 L 72.66 32.81" stroke="white" fill="transparent"/>
	<path d = "M 342.19 171.09 L 323.44 114.84 L 309.38 4.69" stroke="white" fill="transparent"/>
	<path d = "M 480.47 192.19 L 480.47 98.44 L 471.09 35.16" stroke="white" fill="transparent"/>
	<path d = "M 466.41 39.84 L 438.28 23.44 L 440.62 0.00" stroke="white" fill="transparent"/>
</svg>