<?xml version="1.0" encoding="UTF-8" standalone="no"?>
<!--Created with ndjsontosvg (https:https://github.com/thompson318/ndjsontosvg) 
	from the simplified Google quickdraw data set. key_id = 4675791365341184-->
<svg width="600" height="600"
	xmlns="http://www.w3.org/2000/svg">
	xmlns:ndjsontosvg="https://github.com/thompson318/ndjsontosvg"
	xmlns:quickdraw="https://quickdraw.withgoogle.com/data"
	xmlns:scikit-surgery="https://doi.org/10.1007/s11548-020-02180-5">

	<rect width="100%" height="100%" fill="black" />
	<path d = "M 454.69 292.97 L 159.38 276.56 L 100.78 292.97 L 63.28 321.09 L 11.72 375.00 L 0.00 407.81 L 4.69 421.88 L 72.66 435.94 L 278.91 438.28 L 318.75 424.22 L 461.72 353.91 L 471.09 337.50 L 473.44 300.00 L 457.03 269.53" stroke="white" fill="transparent"/>
	<path d = "M 121.88 257.81 L 112.50 239.06 L 114.84 189.84 L 133.59 121.88 L 182.81 0.00" stroke="white" fill="transparent"/>
	<path d = "M 292.97 321.09 L 283.59 290.62 L 283.59 185.16 L 300.00 112.50 L 318.75 84.38" stroke="white" fill="transparent"/>
	<path d = "M 412.50 344.53 L 414.84 276.56 L 438.28 161.72 L 501.56 53.91" stroke="white" fill="transparent"/>
	<path d = "M 67.97 363.28 L 60.94 379.69 L 58.59 517.97" stroke="white" fill="transparent"/>
	<path d = "M 70.31 532.03 L 187.50 581.25 L 419.53 597.66" stroke="white" fill="transparent"/>
	<path d = "M 473.44 567.19 L 468.75 513.28 L 475.78 297.66" stroke="white" fill="transparent"/>
</svg>