<?xml version="1.0" encoding="UTF-8" standalone="no"?>
<!--Created with ndjsontosvg (https:https://github.com/thompson318/ndjsontosvg) 
	from the simplified Google quickdraw data set. key_id = 6733680640786432-->
<svg width="600" height="600"
	xmlns="http://www.w3.org/2000/svg">
	xmlns:ndjsontosvg="https://github.com/thompson318/ndjsontosvg"
	xmlns:quickdraw="https://quickdraw.withgoogle.com/data"
	xmlns:scikit-surgery="https://doi.org/10.1007/s11548-020-02180-5">

	<rect width="100%" height="100%" fill="black" />
	<path d = "M 597.66 166.41 L 590.62 386.72 L 578.91 398.44 L 543.75 412.50 L 478.12 407.81 L 356.25 384.38 L 131.25 384.38 L 18.75 400.78 L 9.38 389.06 L 14.06 246.09 L 0.00 175.78 L 0.00 164.06 L 14.06 159.38 L 138.28 150.00 L 332.81 175.78 L 459.38 166.41 L 571.88 182.81 L 597.66 175.78" stroke="white" fill="transparent"/>
	<path d = "M 482.81 0.00 L 482.81 84.38 L 492.19 164.06 L 492.19 175.78 L 482.81 164.06" stroke="white" fill="transparent"/>
	<path d = "M 379.69 14.06 L 367.97 164.06" stroke="white" fill="transparent"/>
	<path d = "M 246.09 23.44 L 234.38 150.00" stroke="white" fill="transparent"/>
	<path d = "M 128.91 28.12 L 119.53 166.41" stroke="white" fill="transparent"/>
</svg>