<?xml version="1.0" encoding="UTF-8" standalone="no"?>
<!--Created with ndjsontosvg (https:https://github.com/thompson318/ndjsontosvg) 
	from the simplified Google quickdraw data set. key_id = 4977175444848640-->
<svg width="600" height="600"
	xmlns="http://www.w3.org/2000/svg">
	xmlns:ndjsontosvg="https://github.com/thompson318/ndjsontosvg"
	xmlns:quickdraw="https://quickdraw.withgoogle.com/data"
	xmlns:scikit-surgery="https://doi.org/10.1007/s11548-020-02180-5">

	<rect width="100%" height="100%" fill="black" />
	<path d = "M 0.00 571.88 L 180.47 592.97 L 389.06 597.66 L 398.44 592.97 L 407.81 536.72 L 459.38 365.62 L 461.72 307.03 L 217.97 260.16 L 75.00 257.81 L 53.91 269.53 L 28.12 414.84 L 28.12 478.12 L 4.69 550.78 L 18.75 532.03" stroke="white" fill="transparent"/>
	<path d = "M 58.59 264.84 L 75.00 335.16 L 105.47 339.84 L 131.25 335.16 L 142.97 360.94 L 154.69 363.28 L 220.31 349.22 L 262.50 330.47 L 285.94 353.91 L 440.62 358.59 L 447.66 337.50 L 428.91 321.09" stroke="white" fill="transparent"/>
	<path d = "M 239.06 255.47 L 255.47 236.72 L 292.97 147.66 L 269.53 135.94 L 239.06 75.00 L 332.81 79.69 L 349.22 18.75 L 370.31 0.00 L 370.31 44.53 L 377.34 53.91 L 370.31 67.97 L 227.34 124.22 L 215.62 135.94 L 227.34 142.97 L 307.03 138.28" stroke="white" fill="transparent"/>
	<path d = "M 304.69 138.28 L 307.03 232.03 L 304.69 241.41 L 290.62 255.47 L 297.66 241.41" stroke="white" fill="transparent"/>
	<path d = "M 302.34 121.88 L 353.91 126.56 L 370.31 121.88 L 377.34 105.47 L 377.34 72.66 L 351.56 70.31 L 330.47 79.69" stroke="white" fill="transparent"/>
</svg>