<?xml version="1.0" encoding="UTF-8" standalone="no"?>
<!--Created with ndjsontosvg (https:https://github.com/thompson318/ndjsontosvg) 
	from the simplified Google quickdraw data set. key_id = 6055188550909952-->
<svg width="600" height="600"
	xmlns="http://www.w3.org/2000/svg">
	xmlns:ndjsontosvg="https://github.com/thompson318/ndjsontosvg"
	xmlns:quickdraw="https://quickdraw.withgoogle.com/data"
	xmlns:scikit-surgery="https://doi.org/10.1007/s11548-020-02180-5">

	<rect width="100%" height="100%" fill="black" />
	<path d = "M 4.69 358.59 L 7.03 525.00 L 0.00 578.91 L 56.25 592.97 L 161.72 597.66 L 255.47 597.66 L 403.12 581.25 L 410.16 567.19 L 412.50 473.44 L 426.56 353.91 L 227.34 335.16 L 49.22 335.16 L 23.44 346.88" stroke="white" fill="transparent"/>
	<path d = "M 96.09 356.25 L 75.00 206.25 L 84.38 199.22 L 297.66 189.84 L 300.00 393.75" stroke="white" fill="transparent"/>
	<path d = "M 157.03 201.56 L 157.03 112.50 L 234.38 112.50 L 229.69 166.41 L 217.97 215.62 L 203.91 217.97 L 161.72 199.22" stroke="white" fill="transparent"/>
	<path d = "M 168.75 114.84 L 154.69 70.31 L 175.78 51.56 L 189.84 0.00" stroke="white" fill="transparent"/>
	<path d = "M 225.00 152.34 L 236.72 60.94" stroke="white" fill="transparent"/>
</svg>