<?xml version="1.0" encoding="UTF-8" standalone="no"?>
<!--Created with ndjsontosvg (https:https://github.com/thompson318/ndjsontosvg) 
	from the simplified Google quickdraw data set. key_id = 5973230907031552-->
<svg width="600" height="600"
	xmlns="http://www.w3.org/2000/svg">
	xmlns:ndjsontosvg="https://github.com/thompson318/ndjsontosvg"
	xmlns:quickdraw="https://quickdraw.withgoogle.com/data"
	xmlns:scikit-surgery="https://doi.org/10.1007/s11548-020-02180-5">

	<rect width="100%" height="100%" fill="black" />
	<path d = "M 227.34 178.12 L 288.28 187.50" stroke="white" fill="transparent"/>
	<path d = "M 323.44 192.19 L 386.72 194.53" stroke="white" fill="transparent"/>
	<path d = "M 424.22 203.91 L 546.09 257.81 L 595.31 290.62 L 595.31 325.78 L 583.59 367.97 L 562.50 386.72 L 487.50 414.84 L 356.25 421.88 L 220.31 400.78 L 105.47 365.62 L 0.00 314.06" stroke="white" fill="transparent"/>
	<path d = "M 203.91 180.47 L 314.06 168.75 L 370.31 178.12 L 461.72 222.66 L 482.81 225.00 L 457.03 229.69 L 403.12 215.62 L 379.69 201.56" stroke="white" fill="transparent"/>
	<path d = "M 215.62 182.81 L 107.81 199.22 L 77.34 232.03 L 51.56 246.09 L 35.16 278.91 L 4.69 307.03" stroke="white" fill="transparent"/>
	<path d = "M 166.41 171.09 L 199.22 67.97" stroke="white" fill="transparent"/>
	<path d = "M 314.06 154.69 L 330.47 86.72" stroke="white" fill="transparent"/>
	<path d = "M 412.50 196.88 L 433.59 133.59" stroke="white" fill="transparent"/>
	<path d = "M 487.50 217.97 L 499.22 154.69" stroke="white" fill="transparent"/>
	<path d = "M 546.09 262.50 L 581.25 187.50" stroke="white" fill="transparent"/>
	<path d = "M 112.50 180.47 L 131.25 124.22" stroke="white" fill="transparent"/>
	<path d = "M 128.91 126.56 L 142.97 35.16" stroke="white" fill="transparent"/>
	<path d = "M 142.97 11.72 L 142.97 11.72" stroke="white" fill="transparent"/>
	<path d = "M 145.31 0.00 L 133.59 7.03 L 138.28 9.38" stroke="white" fill="transparent"/>
	<path d = "M 150.00 2.34 L 147.66 7.03" stroke="white" fill="transparent"/>
	<path d = "M 196.88 46.88 L 203.91 46.88" stroke="white" fill="transparent"/>
	<path d = "M 203.91 44.53 L 203.91 44.53" stroke="white" fill="transparent"/>
	<path d = "M 203.91 44.53 L 199.22 44.53" stroke="white" fill="transparent"/>
</svg>