<?xml version="1.0" encoding="UTF-8" standalone="no"?>
<!--Created with ndjsontosvg (https:https://github.com/thompson318/ndjsontosvg) 
	from the simplified Google quickdraw data set. key_id = 5731852486705152-->
<svg width="600" height="600"
	xmlns="http://www.w3.org/2000/svg">
	xmlns:ndjsontosvg="https://github.com/thompson318/ndjsontosvg"
	xmlns:quickdraw="https://quickdraw.withgoogle.com/data"
	xmlns:scikit-surgery="https://doi.org/10.1007/s11548-020-02180-5">

	<rect width="100%" height="100%" fill="black" />
	<path d = "M 0.00 276.56 L 11.72 461.72 L 16.41 468.75 L 35.16 473.44 L 288.28 473.44 L 386.72 487.50 L 588.28 499.22 L 597.66 489.84 L 595.31 431.25 L 534.38 257.81 L 508.59 229.69 L 44.53 217.97 L 11.72 241.41 L 11.72 278.91" stroke="white" fill="transparent"/>
	<path d = "M 96.09 213.28 L 32.81 11.72 L 60.94 0.00 L 72.66 14.06 L 72.66 39.84 L 51.56 58.59" stroke="white" fill="transparent"/>
	<path d = "M 187.50 201.56 L 178.12 142.97 L 138.28 119.53 L 135.94 112.50 L 142.97 93.75 L 178.12 98.44 L 185.16 133.59 L 178.12 140.62" stroke="white" fill="transparent"/>
	<path d = "M 290.62 208.59 L 290.62 145.31 L 281.25 133.59" stroke="white" fill="transparent"/>
	<path d = "M 260.16 128.91 L 260.16 128.91" stroke="white" fill="transparent"/>
</svg>