<?xml version="1.0" encoding="UTF-8" standalone="no"?>
<!--Created with ndjsontosvg (https:https://github.com/thompson318/ndjsontosvg) 
	from the simplified Google quickdraw data set. key_id = 5852307830865920-->
<svg width="600" height="600"
	xmlns="http://www.w3.org/2000/svg">
	xmlns:ndjsontosvg="https://github.com/thompson318/ndjsontosvg"
	xmlns:quickdraw="https://quickdraw.withgoogle.com/data"
	xmlns:scikit-surgery="https://doi.org/10.1007/s11548-020-02180-5">

	<rect width="100%" height="100%" fill="black" />
	<path d = "M 276.56 0.00 L 217.97 53.91 L 201.56 138.28 L 201.56 203.91 L 243.75 217.97 L 288.28 217.97 L 349.22 171.09 L 372.66 135.94 L 382.03 100.78 L 382.03 39.84 L 344.53 25.78 L 307.03 35.16 L 257.81 86.72 L 220.31 147.66 L 201.56 203.91 L 196.88 262.50 L 236.72 276.56 L 288.28 269.53 L 328.12 241.41 L 353.91 210.94 L 363.28 175.78 L 363.28 121.88 L 337.50 84.38 L 257.81 77.34 L 203.91 119.53 L 152.34 182.81 L 119.53 243.75 L 105.47 290.62 L 105.47 323.44 L 110.16 342.19 L 131.25 349.22 L 178.12 349.22 L 210.94 335.16 L 229.69 290.62 L 220.31 255.47 L 182.81 229.69 L 105.47 229.69 L 65.62 278.91 L 32.81 339.84 L 18.75 391.41 L 14.06 487.50 L 21.09 520.31 L 42.19 532.03 L 63.28 532.03 L 100.78 517.97 L 133.59 480.47 L 164.06 433.59 L 159.38 339.84 L 131.25 325.78 L 100.78 323.44 L 56.25 363.28 L 18.75 424.22 L 4.69 473.44 L 0.00 553.12 L 16.41 571.88 L 42.19 578.91 L 75.00 576.56 L 164.06 499.22 L 171.09 428.91 L 138.28 419.53 L 91.41 421.88 L 56.25 466.41 L 44.53 503.91 L 37.50 585.94 L 56.25 597.66 L 138.28 578.91 L 283.59 471.09 L 309.38 433.59 L 314.06 384.38 L 288.28 346.88 L 246.09 328.12 L 206.25 328.12 L 161.72 367.97 L 124.22 433.59 L 112.50 487.50 L 112.50 564.84 L 145.31 583.59 L 196.88 583.59 L 267.19 557.81 L 332.81 520.31 L 356.25 487.50 L 360.94 435.94 L 344.53 363.28 L 309.38 323.44 L 276.56 316.41 L 220.31 330.47 L 164.06 403.12 L 135.94 466.41 L 135.94 534.38 L 159.38 557.81 L 248.44 557.81 L 440.62 471.09 L 454.69 435.94 L 452.34 375.00 L 426.56 307.03 L 389.06 281.25 L 358.59 281.25 L 302.34 302.34 L 267.19 346.88 L 248.44 386.72 L 243.75 452.34 L 255.47 480.47 L 292.97 485.16 L 367.97 480.47 L 473.44 447.66 L 480.47 417.19 L 478.12 356.25 L 454.69 321.09 L 428.91 314.06 L 384.38 318.75 L 342.19 367.97 L 318.75 414.84 L 309.38 459.38 L 318.75 529.69 L 342.19 536.72 L 396.09 536.72 L 445.31 520.31 L 459.38 494.53 L 473.44 440.62 L 466.41 335.16 L 454.69 309.38 L 433.59 300.00 L 412.50 302.34 L 389.06 342.19 L 382.03 398.44 L 391.41 419.53 L 473.44 419.53 L 513.28 391.41 L 527.34 351.56 L 527.34 276.56 L 517.97 215.62 L 489.84 180.47 L 473.44 171.09 L 445.31 171.09 L 405.47 203.91 L 379.69 243.75 L 367.97 269.53 L 367.97 314.06 L 389.06 323.44 L 433.59 328.12 L 454.69 300.00 L 454.69 248.44 L 433.59 201.56 L 412.50 175.78 L 365.62 157.03 L 386.72 171.09 L 440.62 171.09 L 445.31 145.31 L 396.09 112.50 L 307.03 110.16" stroke="white" fill="transparent"/>
</svg>