<?xml version="1.0" encoding="UTF-8" standalone="no"?>
<!--Created with ndjsontosvg (https:https://github.com/thompson318/ndjsontosvg) 
	from the simplified Google quickdraw data set. key_id = 5201003638947840-->
<svg width="600" height="600"
	xmlns="http://www.w3.org/2000/svg">
	xmlns:ndjsontosvg="https://github.com/thompson318/ndjsontosvg"
	xmlns:quickdraw="https://quickdraw.withgoogle.com/data"
	xmlns:scikit-surgery="https://doi.org/10.1007/s11548-020-02180-5">

	<rect width="100%" height="100%" fill="black" />
	<path d = "M 351.56 246.09 L 288.28 405.47 L 267.19 480.47 L 342.19 468.75 L 417.19 426.56 L 468.75 384.38 L 414.84 351.56 L 276.56 330.47" stroke="white" fill="transparent"/>
	<path d = "M 597.66 246.09 L 532.03 278.91 L 447.66 384.38 L 417.19 447.66 L 489.84 480.47 L 543.75 405.47 L 555.47 309.38" stroke="white" fill="transparent"/>
	<path d = "M 447.66 117.19 L 414.84 182.81 L 351.56 267.19 L 330.47 330.47 L 396.09 372.66 L 447.66 309.38 L 447.66 255.47 L 372.66 234.38" stroke="white" fill="transparent"/>
	<path d = "M 276.56 363.28 L 213.28 396.09 L 96.09 468.75 L 147.66 501.56 L 201.56 501.56 L 203.91 396.09 L 180.47 384.38" stroke="white" fill="transparent"/>
	<path d = "M 447.66 0.00 L 351.56 105.47 L 288.28 236.72 L 278.91 288.28 L 351.56 288.28 L 372.66 267.19" stroke="white" fill="transparent"/>
	<path d = "M 42.19 234.38 L 11.72 288.28 L 0.00 480.47 L 63.28 501.56 L 96.09 414.84 L 96.09 351.56 L 107.81 276.56" stroke="white" fill="transparent"/>
</svg>