<?xml version="1.0" encoding="UTF-8" standalone="no"?>
<!--Created with ndjsontosvg (https:https://github.com/thompson318/ndjsontosvg) 
	from the simplified Google quickdraw data set. key_id = 5397794678374400-->
<svg width="600" height="600"
	xmlns="http://www.w3.org/2000/svg">
	xmlns:ndjsontosvg="https://github.com/thompson318/ndjsontosvg"
	xmlns:quickdraw="https://quickdraw.withgoogle.com/data"
	xmlns:scikit-surgery="https://doi.org/10.1007/s11548-020-02180-5">

	<rect width="100%" height="100%" fill="black" />
	<path d = "M 56.25 234.38 L 23.44 241.41 L 7.03 314.06 L 51.56 339.84 L 86.72 339.84 L 159.38 309.38 L 203.91 276.56 L 222.66 234.38 L 222.66 203.91 L 208.59 166.41 L 180.47 142.97 L 140.62 135.94 L 91.41 142.97 L 14.06 182.81 L 0.00 215.62 L 25.78 246.09 L 56.25 264.84" stroke="white" fill="transparent"/>
	<path d = "M 75.00 332.81 L 44.53 344.53 L 18.75 386.72 L 37.50 424.22 L 79.69 450.00 L 150.00 454.69 L 185.16 438.28 L 215.62 393.75 L 208.59 363.28 L 180.47 328.12 L 147.66 307.03 L 110.16 309.38 L 56.25 325.78" stroke="white" fill="transparent"/>
	<path d = "M 234.38 276.56 L 297.66 314.06 L 346.88 314.06 L 389.06 302.34 L 442.97 246.09 L 454.69 208.59 L 445.31 173.44 L 412.50 142.97 L 363.28 135.94 L 307.03 142.97 L 203.91 189.84" stroke="white" fill="transparent"/>
	<path d = "M 412.50 30.47 L 375.00 37.50 L 344.53 53.91 L 314.06 91.41" stroke="white" fill="transparent"/>
	<path d = "M 314.06 117.19 L 344.53 140.62 L 417.19 147.66 L 536.72 128.91 L 574.22 110.16 L 597.66 67.97 L 597.66 37.50 L 560.16 7.03 L 522.66 0.00 L 468.75 7.03 L 393.75 42.19" stroke="white" fill="transparent"/>
	<path d = "M 370.31 290.62 L 332.81 335.16 L 325.78 370.31 L 339.84 407.81" stroke="white" fill="transparent"/>
</svg>