<?xml version="1.0" encoding="UTF-8" standalone="no"?>
<!--Created with ndjsontosvg (https:https://github.com/thompson318/ndjsontosvg) 
	from the simplified Google quickdraw data set. key_id = 5029206742269952-->
<svg width="600" height="600"
	xmlns="http://www.w3.org/2000/svg">
	xmlns:ndjsontosvg="https://github.com/thompson318/ndjsontosvg"
	xmlns:quickdraw="https://quickdraw.withgoogle.com/data"
	xmlns:scikit-surgery="https://doi.org/10.1007/s11548-020-02180-5">

	<rect width="100%" height="100%" fill="black" />
	<path d = "M 96.09 4.69 L 67.97 0.00 L 44.53 16.41 L 23.44 46.88 L 11.72 86.72 L 9.38 171.09 L 21.09 201.56 L 46.88 220.31 L 126.56 225.00 L 161.72 206.25 L 192.19 178.12 L 208.59 147.66 L 217.97 82.03 L 192.19 58.59 L 119.53 35.16 L 44.53 35.16 L 23.44 39.84 L 18.75 46.88" stroke="white" fill="transparent"/>
	<path d = "M 332.81 11.72 L 248.44 46.88 L 206.25 96.09 L 194.53 161.72 L 194.53 185.16 L 203.91 203.91 L 281.25 208.59 L 360.94 140.62 L 379.69 98.44 L 384.38 63.28 L 377.34 37.50 L 339.84 16.41 L 250.78 16.41 L 217.97 32.81 L 201.56 58.59" stroke="white" fill="transparent"/>
	<path d = "M 471.09 39.84 L 363.28 79.69 L 337.50 135.94 L 332.81 168.75 L 332.81 196.88 L 356.25 222.66 L 400.78 234.38 L 452.34 234.38 L 503.91 217.97 L 541.41 178.12 L 562.50 140.62 L 562.50 103.12 L 546.09 70.31 L 508.59 51.56 L 426.56 35.16 L 391.41 35.16 L 367.97 46.88" stroke="white" fill="transparent"/>
	<path d = "M 161.72 236.72 L 121.88 250.78 L 121.88 302.34 L 154.69 358.59 L 180.47 372.66 L 213.28 372.66 L 246.09 339.84 L 274.22 297.66 L 285.94 262.50 L 288.28 227.34 L 281.25 199.22 L 257.81 182.81 L 206.25 178.12 L 182.81 189.84 L 178.12 213.28" stroke="white" fill="transparent"/>
	<path d = "M 367.97 241.41 L 335.16 217.97 L 309.38 246.09 L 297.66 276.56 L 297.66 314.06 L 300.00 344.53 L 321.09 363.28 L 349.22 367.97 L 379.69 351.56 L 403.12 311.72 L 414.84 274.22 L 414.84 241.41 L 403.12 217.97 L 370.31 206.25 L 304.69 201.56 L 281.25 222.66" stroke="white" fill="transparent"/>
	<path d = "M 246.09 372.66 L 217.97 384.38 L 206.25 417.19 L 213.28 471.09 L 267.19 487.50 L 292.97 487.50 L 311.72 475.78 L 328.12 450.00 L 337.50 384.38 L 300.00 351.56 L 274.22 344.53 L 264.84 351.56" stroke="white" fill="transparent"/>
	<path d = "M 56.25 194.53 L 30.47 206.25 L 0.00 257.81 L 0.00 332.81 L 32.81 367.97 L 72.66 372.66 L 98.44 360.94 L 131.25 311.72 L 138.28 246.09 L 105.47 225.00 L 79.69 225.00 L 58.59 241.41" stroke="white" fill="transparent"/>
	<path d = "M 82.03 372.66 L 35.16 396.09 L 9.38 438.28 L 7.03 489.84 L 21.09 510.94 L 44.53 522.66 L 117.19 522.66 L 150.00 501.56 L 173.44 478.12 L 189.84 426.56 L 185.16 407.81 L 135.94 389.06 L 91.41 384.38 L 79.69 400.78" stroke="white" fill="transparent"/>
	<path d = "M 323.44 412.50 L 300.00 426.56 L 304.69 478.12 L 358.59 517.97 L 396.09 527.34 L 426.56 527.34 L 447.66 510.94 L 454.69 480.47 L 454.69 419.53 L 435.94 396.09 L 407.81 379.69 L 382.03 375.00 L 363.28 375.00 L 349.22 398.44 L 349.22 414.84" stroke="white" fill="transparent"/>
	<path d = "M 466.41 288.28 L 438.28 304.69 L 435.94 360.94 L 468.75 389.06 L 529.69 391.41 L 557.81 379.69 L 590.62 321.09 L 597.66 260.16 L 546.09 236.72 L 515.62 236.72 L 487.50 246.09 L 466.41 264.84 L 459.38 292.97" stroke="white" fill="transparent"/>
</svg>