<?xml version="1.0" encoding="UTF-8" standalone="no"?>
<!--Created with ndjsontosvg (https:https://github.com/thompson318/ndjsontosvg) 
	from the simplified Google quickdraw data set. key_id = 5535890157862912-->
<svg width="600" height="600"
	xmlns="http://www.w3.org/2000/svg">
	xmlns:ndjsontosvg="https://github.com/thompson318/ndjsontosvg"
	xmlns:quickdraw="https://quickdraw.withgoogle.com/data"
	xmlns:scikit-surgery="https://doi.org/10.1007/s11548-020-02180-5">

	<rect width="100%" height="100%" fill="black" />
	<path d = "M 105.47 363.28 L 82.03 367.97 L 46.88 403.12 L 46.88 421.88 L 93.75 421.88 L 124.22 377.34 L 124.22 358.59 L 75.00 367.97 L 58.59 379.69" stroke="white" fill="transparent"/>
	<path d = "M 292.97 344.53 L 274.22 344.53 L 262.50 363.28 L 262.50 391.41 L 281.25 393.75 L 283.59 328.12 L 236.72 323.44 L 222.66 332.81" stroke="white" fill="transparent"/>
	<path d = "M 206.25 187.50 L 164.06 215.62 L 159.38 239.06 L 182.81 253.12 L 206.25 239.06 L 217.97 220.31 L 210.94 196.88 L 152.34 187.50" stroke="white" fill="transparent"/>
	<path d = "M 157.03 492.19 L 126.56 527.34 L 147.66 539.06 L 168.75 534.38 L 171.09 489.84 L 152.34 473.44 L 93.75 468.75" stroke="white" fill="transparent"/>
	<path d = "M 398.44 229.69 L 375.00 220.31 L 370.31 246.09 L 393.75 257.81 L 410.16 239.06 L 393.75 210.94 L 358.59 203.91 L 297.66 203.91 L 285.94 215.62" stroke="white" fill="transparent"/>
	<path d = "M 297.66 440.62 L 316.41 440.62 L 292.97 452.34 L 288.28 433.59 L 304.69 428.91" stroke="white" fill="transparent"/>
	<path d = "M 433.59 405.47 L 445.31 386.72 L 464.06 414.84 L 464.06 433.59 L 457.03 391.41 L 480.47 379.69" stroke="white" fill="transparent"/>
	<path d = "M 309.38 597.66 L 304.69 578.91 L 285.94 590.62" stroke="white" fill="transparent"/>
	<path d = "M 23.44 168.75 L 35.16 187.50 L 11.72 199.22 L 0.00 187.50" stroke="white" fill="transparent"/>
	<path d = "M 253.12 46.88 L 253.12 9.38 L 262.50 0.00" stroke="white" fill="transparent"/>
</svg>