<?xml version="1.0" encoding="UTF-8" standalone="no"?>
<!--Created with ndjsontosvg (https:https://github.com/thompson318/ndjsontosvg) 
	from the simplified Google quickdraw data set. key_id = 5741011290554368-->
<svg width="600" height="600"
	xmlns="http://www.w3.org/2000/svg">
	xmlns:ndjsontosvg="https://github.com/thompson318/ndjsontosvg"
	xmlns:quickdraw="https://quickdraw.withgoogle.com/data"
	xmlns:scikit-surgery="https://doi.org/10.1007/s11548-020-02180-5">

	<rect width="100%" height="100%" fill="black" />
	<path d = "M 450.00 23.44 L 353.91 0.00 L 93.75 0.00 L 21.09 16.41 L 7.03 37.50 L 0.00 110.16 L 14.06 232.03 L 39.84 314.06 L 49.22 466.41 L 75.00 560.16 L 96.09 571.88 L 236.72 595.31 L 393.75 597.66 L 480.47 583.59 L 503.91 560.16 L 520.31 515.62 L 515.62 398.44 L 496.88 346.88 L 473.44 217.97 L 459.38 7.03" stroke="white" fill="transparent"/>
	<path d = "M 471.09 246.09 L 468.75 255.47 L 435.94 260.16 L 220.31 264.84 L 25.78 295.31" stroke="white" fill="transparent"/>
	<path d = "M 421.88 304.69 L 419.53 304.69" stroke="white" fill="transparent"/>
	<path d = "M 290.62 297.66 L 290.62 297.66" stroke="white" fill="transparent"/>
	<path d = "M 285.94 297.66 L 283.59 297.66" stroke="white" fill="transparent"/>
	<path d = "M 217.97 304.69 L 215.62 304.69" stroke="white" fill="transparent"/>
	<path d = "M 171.09 307.03 L 171.09 307.03" stroke="white" fill="transparent"/>
	<path d = "M 152.34 314.06 L 152.34 318.75" stroke="white" fill="transparent"/>
	<path d = "M 114.84 344.53 L 119.53 346.88" stroke="white" fill="transparent"/>
	<path d = "M 175.78 370.31 L 175.78 370.31" stroke="white" fill="transparent"/>
	<path d = "M 217.97 356.25 L 295.31 360.94" stroke="white" fill="transparent"/>
	<path d = "M 337.50 356.25 L 337.50 356.25" stroke="white" fill="transparent"/>
	<path d = "M 365.62 353.91 L 405.47 353.91" stroke="white" fill="transparent"/>
	<path d = "M 412.50 351.56 L 412.50 351.56" stroke="white" fill="transparent"/>
	<path d = "M 452.34 356.25 L 445.31 365.62 L 400.78 382.03 L 405.47 384.38 L 417.19 386.72 L 445.31 351.56" stroke="white" fill="transparent"/>
	<path d = "M 318.75 393.75 L 255.47 405.47" stroke="white" fill="transparent"/>
	<path d = "M 199.22 412.50 L 187.50 412.50" stroke="white" fill="transparent"/>
</svg>