<?xml version="1.0" encoding="UTF-8" standalone="no"?>
<!--Created with ndjsontosvg (https:https://github.com/thompson318/ndjsontosvg) 
	from the simplified Google quickdraw data set. key_id = 4589875695190016-->
<svg width="600" height="600"
	xmlns="http://www.w3.org/2000/svg">
	xmlns:ndjsontosvg="https://github.com/thompson318/ndjsontosvg"
	xmlns:quickdraw="https://quickdraw.withgoogle.com/data"
	xmlns:scikit-surgery="https://doi.org/10.1007/s11548-020-02180-5">

	<rect width="100%" height="100%" fill="black" />
	<path d = "M 150.00 16.41 L 332.81 203.91 L 358.59 248.44 L 356.25 267.19 L 337.50 295.31 L 260.16 349.22 L 215.62 363.28 L 182.81 353.91 L 150.00 321.09 L 0.00 126.56 L 4.69 103.12 L 21.09 72.66 L 126.56 0.00" stroke="white" fill="transparent"/>
	<path d = "M 142.97 39.84 L 210.94 110.16 L 213.28 131.25 L 194.53 154.69 L 114.84 213.28 L 89.06 222.66 L 30.47 147.66 L 28.12 112.50 L 138.28 30.47" stroke="white" fill="transparent"/>
	<path d = "M 246.09 145.31 L 253.12 168.75 L 234.38 175.78 L 229.69 171.09 L 234.38 147.66 L 248.44 145.31" stroke="white" fill="transparent"/>
	<path d = "M 189.84 178.12 L 199.22 199.22 L 175.78 210.94 L 180.47 185.16 L 196.88 182.81" stroke="white" fill="transparent"/>
	<path d = "M 133.59 229.69 L 135.94 253.12 L 114.84 253.12 L 138.28 217.97" stroke="white" fill="transparent"/>
	<path d = "M 135.94 225.00 L 142.97 213.28 L 154.69 215.62 L 159.38 232.03 L 142.97 236.72 L 142.97 215.62" stroke="white" fill="transparent"/>
	<path d = "M 222.66 178.12 L 248.44 164.06 L 253.12 173.44 L 236.72 178.12 L 222.66 161.72" stroke="white" fill="transparent"/>
	<path d = "M 271.88 159.38 L 290.62 173.44 L 295.31 189.84 L 290.62 203.91 L 271.88 201.56 L 264.84 171.09 L 283.59 166.41" stroke="white" fill="transparent"/>
	<path d = "M 215.62 199.22 L 255.47 203.91 L 253.12 213.28 L 236.72 225.00 L 220.31 225.00 L 215.62 210.94 L 222.66 213.28" stroke="white" fill="transparent"/>
	<path d = "M 187.50 248.44 L 173.44 243.75 L 168.75 229.69 L 199.22 229.69 L 206.25 246.09 L 201.56 255.47 L 175.78 253.12 L 171.09 241.41" stroke="white" fill="transparent"/>
	<path d = "M 180.47 250.78 L 161.72 271.88 L 142.97 269.53 L 145.31 255.47 L 154.69 260.16 L 150.00 274.22" stroke="white" fill="transparent"/>
	<path d = "M 173.44 300.00 L 189.84 295.31 L 192.19 309.38 L 185.16 314.06 L 171.09 309.38 L 171.09 292.97 L 189.84 288.28 L 220.31 290.62 L 222.66 307.03 L 199.22 314.06 L 192.19 304.69 L 201.56 295.31 L 234.38 295.31" stroke="white" fill="transparent"/>
	<path d = "M 227.34 276.56 L 239.06 276.56 L 229.69 267.19 L 243.75 250.78 L 267.19 246.09 L 271.88 253.12 L 250.78 255.47 L 246.09 232.03 L 271.88 215.62 L 288.28 227.34 L 278.91 222.66 L 283.59 203.91" stroke="white" fill="transparent"/>
	<path d = "M 321.09 232.03 L 302.34 250.78 L 281.25 248.44 L 292.97 257.81 L 285.94 276.56 L 274.22 288.28 L 253.12 290.62" stroke="white" fill="transparent"/>
	<path d = "M 232.03 288.28 L 210.94 309.38 L 189.84 302.34" stroke="white" fill="transparent"/>
	<path d = "M 562.50 142.97 L 583.59 150.00 L 595.31 164.06 L 597.66 182.81 L 588.28 189.84 L 562.50 187.50 L 553.12 173.44 L 555.47 145.31 L 578.91 147.66 L 592.97 173.44 L 592.97 185.16 L 583.59 192.19 L 569.53 189.84 L 548.44 161.72 L 555.47 135.94 L 571.88 140.62 L 581.25 178.12 L 562.50 173.44 L 548.44 147.66" stroke="white" fill="transparent"/>
	<path d = "M 539.06 114.84 L 557.81 128.91 L 553.12 142.97 L 532.03 145.31 L 522.66 128.91 L 520.31 98.44 L 536.72 89.06 L 546.09 103.12 L 550.78 140.62 L 539.06 147.66 L 527.34 140.62 L 515.62 93.75 L 525.00 138.28" stroke="white" fill="transparent"/>
	<path d = "M 454.69 51.56 L 459.38 44.53 L 473.44 51.56" stroke="white" fill="transparent"/>
</svg>