<?xml version="1.0" encoding="UTF-8" standalone="no"?>
<!--Created with ndjsontosvg (https:https://github.com/thompson318/ndjsontosvg) 
	from the simplified Google quickdraw data set. key_id = 6349120354648064-->
<svg width="600" height="600"
	xmlns="http://www.w3.org/2000/svg">
	xmlns:ndjsontosvg="https://github.com/thompson318/ndjsontosvg"
	xmlns:quickdraw="https://quickdraw.withgoogle.com/data"
	xmlns:scikit-surgery="https://doi.org/10.1007/s11548-020-02180-5">

	<rect width="100%" height="100%" fill="black" />
	<path d = "M 0.00 161.72 L 32.81 220.31 L 51.56 239.06 L 91.41 260.16 L 117.19 260.16 L 142.97 210.94 L 142.97 168.75 L 133.59 142.97 L 93.75 121.88 L 65.62 121.88 L 37.50 128.91 L 32.81 145.31" stroke="white" fill="transparent"/>
	<path d = "M 337.50 16.41 L 316.41 53.91 L 323.44 98.44 L 337.50 117.19 L 349.22 72.66 L 342.19 9.38 L 325.78 0.00" stroke="white" fill="transparent"/>
	<path d = "M 574.22 126.56 L 541.41 138.28 L 546.09 159.38 L 564.84 182.81 L 585.94 185.16 L 592.97 157.03 L 590.62 110.16 L 560.16 105.47" stroke="white" fill="transparent"/>
	<path d = "M 292.97 297.66 L 304.69 321.09 L 332.81 314.06 L 356.25 285.94 L 365.62 250.78 L 358.59 189.84 L 332.81 175.78 L 269.53 175.78 L 255.47 187.50" stroke="white" fill="transparent"/>
	<path d = "M 297.66 466.41 L 300.00 487.50 L 321.09 454.69 L 323.44 410.16 L 288.28 393.75 L 248.44 403.12" stroke="white" fill="transparent"/>
	<path d = "M 72.66 464.06 L 84.38 492.19 L 105.47 482.81 L 100.78 375.00 L 79.69 344.53 L 53.91 325.78 L 39.84 330.47" stroke="white" fill="transparent"/>
	<path d = "M 597.66 358.59 L 581.25 389.06 L 588.28 410.16 L 581.25 382.03 L 541.41 332.81" stroke="white" fill="transparent"/>
</svg>