<?xml version="1.0" encoding="UTF-8" standalone="no"?>
<!--Created with ndjsontosvg (https:https://github.com/thompson318/ndjsontosvg) 
	from the simplified Google quickdraw data set. key_id = 5552818284920832-->
<svg width="600" height="600"
	xmlns="http://www.w3.org/2000/svg">
	xmlns:ndjsontosvg="https://github.com/thompson318/ndjsontosvg"
	xmlns:quickdraw="https://quickdraw.withgoogle.com/data"
	xmlns:scikit-surgery="https://doi.org/10.1007/s11548-020-02180-5">

	<rect width="100%" height="100%" fill="black" />
	<path d = "M 192.19 63.28 L 145.31 63.28 L 103.12 82.03 L 21.09 142.97 L 2.34 175.78 L 0.00 290.62 L 46.88 389.06 L 96.09 447.66 L 154.69 487.50 L 199.22 510.94 L 323.44 553.12 L 353.91 560.16 L 433.59 555.47 L 506.25 527.34 L 553.12 482.81 L 571.88 450.00 L 590.62 400.78 L 597.66 346.88 L 597.66 288.28 L 585.94 236.72 L 529.69 157.03 L 466.41 112.50 L 353.91 79.69 L 168.75 79.69" stroke="white" fill="transparent"/>
	<path d = "M 164.06 105.47 L 157.03 9.38 L 173.44 0.00 L 220.31 9.38 L 229.69 28.12 L 220.31 58.59 L 262.50 16.41 L 309.38 7.03 L 314.06 53.91 L 297.66 67.97 L 360.94 63.28 L 367.97 79.69 L 351.56 89.06 L 178.12 86.72 L 185.16 93.75" stroke="white" fill="transparent"/>
	<path d = "M 396.09 510.94 L 396.09 510.94" stroke="white" fill="transparent"/>
</svg>