<?xml version="1.0" encoding="UTF-8" standalone="no"?>
<!--Created with ndjsontosvg (https:https://github.com/thompson318/ndjsontosvg) 
	from the simplified Google quickdraw data set. key_id = 5670141557735424-->
<svg width="600" height="600"
	xmlns="http://www.w3.org/2000/svg">
	xmlns:ndjsontosvg="https://github.com/thompson318/ndjsontosvg"
	xmlns:quickdraw="https://quickdraw.withgoogle.com/data"
	xmlns:scikit-surgery="https://doi.org/10.1007/s11548-020-02180-5">

	<rect width="100%" height="100%" fill="black" />
	<path d = "M 515.62 7.03 L 450.00 21.09 L 431.25 35.16 L 405.47 67.97 L 386.72 126.56 L 386.72 166.41 L 400.78 182.81 L 492.19 182.81 L 527.34 150.00 L 590.62 65.62 L 597.66 30.47 L 585.94 11.72 L 548.44 0.00" stroke="white" fill="transparent"/>
	<path d = "M 152.34 65.62 L 114.84 63.28 L 96.09 77.34 L 44.53 140.62 L 18.75 208.59 L 21.09 255.47 L 65.62 274.22 L 126.56 269.53 L 166.41 227.34 L 225.00 126.56 L 225.00 110.16 L 203.91 96.09 L 147.66 72.66" stroke="white" fill="transparent"/>
	<path d = "M 473.44 349.22 L 405.47 337.50 L 372.66 353.91 L 349.22 410.16 L 358.59 464.06 L 382.03 478.12 L 428.91 480.47 L 461.72 461.72 L 489.84 433.59 L 513.28 391.41 L 510.94 344.53 L 457.03 337.50" stroke="white" fill="transparent"/>
	<path d = "M 145.31 98.44 L 124.22 110.16 L 107.81 110.16 L 93.75 105.47 L 84.38 91.41 L 128.91 72.66" stroke="white" fill="transparent"/>
	<path d = "M 482.81 18.75 L 471.09 32.81 L 492.19 42.19 L 527.34 30.47 L 536.72 16.41 L 499.22 9.38" stroke="white" fill="transparent"/>
	<path d = "M 452.34 307.03 L 424.22 323.44 L 424.22 351.56 L 438.28 365.62 L 452.34 365.62 L 461.72 337.50 L 457.03 332.81" stroke="white" fill="transparent"/>
	<path d = "M 86.72 372.66 L 53.91 375.00 L 21.09 410.16 L 0.00 459.38 L 4.69 499.22 L 21.09 515.62 L 46.88 529.69 L 107.81 534.38 L 135.94 527.34 L 173.44 492.19 L 178.12 450.00 L 171.09 417.19 L 105.47 349.22" stroke="white" fill="transparent"/>
</svg>