<?xml version="1.0" encoding="UTF-8" standalone="no"?>
<!--Created with ndjsontosvg (https:https://github.com/thompson318/ndjsontosvg) 
	from the simplified Google quickdraw data set. key_id = 5898183584514048-->
<svg width="600" height="600"
	xmlns="http://www.w3.org/2000/svg">
	xmlns:ndjsontosvg="https://github.com/thompson318/ndjsontosvg"
	xmlns:quickdraw="https://quickdraw.withgoogle.com/data"
	xmlns:scikit-surgery="https://doi.org/10.1007/s11548-020-02180-5">

	<rect width="100%" height="100%" fill="black" />
	<path d = "M 53.91 173.44 L 39.84 182.81 L 37.50 220.31 L 60.94 236.72 L 84.38 239.06 L 91.41 192.19 L 49.22 182.81" stroke="white" fill="transparent"/>
	<path d = "M 145.31 189.84 L 138.28 232.03 L 164.06 239.06 L 173.44 222.66 L 166.41 208.59 L 142.97 203.91" stroke="white" fill="transparent"/>
	<path d = "M 232.03 210.94 L 241.41 241.41 L 253.12 253.12 L 267.19 248.44 L 269.53 229.69" stroke="white" fill="transparent"/>
	<path d = "M 89.06 227.34 L 171.09 382.03 L 175.78 440.62 L 166.41 473.44 L 138.28 506.25 L 77.34 548.44 L 44.53 560.16" stroke="white" fill="transparent"/>
	<path d = "M 225.00 288.28 L 217.97 396.09 L 187.50 527.34 L 189.84 578.91 L 222.66 597.66" stroke="white" fill="transparent"/>
	<path d = "M 192.19 316.41 L 135.94 262.50 L 107.81 248.44" stroke="white" fill="transparent"/>
	<path d = "M 152.34 339.84 L 154.69 290.62 L 121.88 232.03" stroke="white" fill="transparent"/>
	<path d = "M 175.78 367.97 L 175.78 171.09 L 187.50 140.62" stroke="white" fill="transparent"/>
	<path d = "M 210.94 124.22 L 241.41 196.88 L 318.75 316.41 L 328.12 349.22 L 323.44 370.31 L 314.06 379.69 L 241.41 433.59" stroke="white" fill="transparent"/>
	<path d = "M 281.25 506.25 L 307.03 492.19 L 325.78 461.72 L 325.78 438.28" stroke="white" fill="transparent"/>
	<path d = "M 0.00 285.94 L 0.00 288.28" stroke="white" fill="transparent"/>
	<path d = "M 189.84 379.69 L 173.44 330.47 L 124.22 253.12 L 84.38 206.25" stroke="white" fill="transparent"/>
	<path d = "M 185.16 419.53 L 166.41 382.03 L 161.72 288.28" stroke="white" fill="transparent"/>
	<path d = "M 243.75 358.59 L 253.12 283.59" stroke="white" fill="transparent"/>
	<path d = "M 253.12 351.56 L 253.12 288.28" stroke="white" fill="transparent"/>
	<path d = "M 281.25 246.09 L 285.94 267.19 L 309.38 288.28 L 358.59 314.06 L 386.72 316.41 L 412.50 257.81 L 412.50 210.94 L 372.66 182.81 L 330.47 175.78 L 309.38 187.50 L 302.34 215.62" stroke="white" fill="transparent"/>
	<path d = "M 375.00 236.72 L 365.62 285.94 L 384.38 290.62 L 353.91 290.62" stroke="white" fill="transparent"/>
	<path d = "M 281.25 356.25 L 274.22 363.28 L 271.88 414.84 L 288.28 435.94 L 339.84 466.41 L 414.84 485.16 L 440.62 482.81 L 452.34 459.38 L 450.00 367.97 L 410.16 300.00 L 360.94 236.72 L 262.50 168.75 L 217.97 154.69 L 175.78 152.34 L 152.34 164.06 L 145.31 178.12" stroke="white" fill="transparent"/>
	<path d = "M 89.06 241.41 L 89.06 292.97 L 107.81 328.12 L 131.25 353.91 L 213.28 360.94 L 243.75 346.88 L 267.19 316.41 L 271.88 232.03 L 248.44 185.16 L 182.81 135.94 L 96.09 105.47 L 75.00 110.16 L 79.69 182.81 L 98.44 220.31" stroke="white" fill="transparent"/>
	<path d = "M 257.81 70.31 L 250.78 70.31 L 250.78 110.16 L 262.50 131.25 L 353.91 142.97 L 365.62 107.81 L 360.94 63.28 L 337.50 32.81 L 267.19 2.34 L 267.19 49.22 L 304.69 107.81" stroke="white" fill="transparent"/>
	<path d = "M 440.62 110.16 L 428.91 105.47 L 412.50 114.84 L 405.47 138.28 L 410.16 182.81 L 440.62 203.91 L 482.81 213.28 L 522.66 213.28 L 548.44 201.56" stroke="white" fill="transparent"/>
	<path d = "M 454.69 260.16 L 445.31 323.44 L 442.97 410.16 L 454.69 407.81 L 487.50 379.69 L 499.22 349.22 L 496.88 304.69 L 440.62 243.75 L 360.94 194.53 L 297.66 175.78 L 281.25 175.78 L 276.56 182.81 L 276.56 210.94 L 297.66 246.09 L 417.19 391.41" stroke="white" fill="transparent"/>
	<path d = "M 400.78 485.16 L 386.72 522.66 L 386.72 562.50 L 398.44 576.56 L 440.62 585.94 L 480.47 574.22 L 494.53 550.78 L 501.56 499.22 L 487.50 468.75" stroke="white" fill="transparent"/>
</svg>