<?xml version="1.0" encoding="UTF-8" standalone="no"?>
<!--Created with ndjsontosvg (https:https://github.com/thompson318/ndjsontosvg) 
	from the simplified Google quickdraw data set. key_id = 4542844377235456-->
<svg width="600" height="600"
	xmlns="http://www.w3.org/2000/svg">
	xmlns:ndjsontosvg="https://github.com/thompson318/ndjsontosvg"
	xmlns:quickdraw="https://quickdraw.withgoogle.com/data"
	xmlns:scikit-surgery="https://doi.org/10.1007/s11548-020-02180-5">

	<rect width="100%" height="100%" fill="black" />
	<path d = "M 215.62 124.22 L 285.94 96.09 L 335.16 103.12 L 372.66 131.25 L 386.72 152.34 L 419.53 241.41 L 419.53 290.62 L 377.34 316.41 L 314.06 321.09 L 271.88 302.34 L 222.66 267.19 L 199.22 215.62 L 201.56 178.12 L 250.78 145.31" stroke="white" fill="transparent"/>
	<path d = "M 382.03 150.00 L 363.28 114.84 L 360.94 79.69 L 421.88 18.75 L 499.22 0.00 L 522.66 7.03 L 550.78 39.84 L 583.59 135.94 L 597.66 248.44 L 588.28 267.19 L 562.50 288.28 L 522.66 307.03 L 480.47 300.00 L 454.69 288.28 L 435.94 269.53 L 419.53 229.69 L 412.50 196.88 L 400.78 178.12" stroke="white" fill="transparent"/>
	<path d = "M 166.41 225.00 L 117.19 225.00 L 96.09 208.59 L 86.72 168.75 L 96.09 63.28 L 142.97 58.59 L 229.69 93.75 L 255.47 152.34 L 276.56 269.53 L 274.22 351.56 L 257.81 396.09 L 236.72 412.50 L 164.06 431.25 L 67.97 412.50 L 30.47 396.09 L 16.41 377.34 L 0.00 229.69 L 35.16 84.38" stroke="white" fill="transparent"/>
</svg>