<?xml version="1.0" encoding="UTF-8" standalone="no"?>
<!--Created with ndjsontosvg (https:https://github.com/thompson318/ndjsontosvg) 
	from the simplified Google quickdraw data set. key_id = 4661627892793344-->
<svg width="600" height="600"
	xmlns="http://www.w3.org/2000/svg">
	xmlns:ndjsontosvg="https://github.com/thompson318/ndjsontosvg"
	xmlns:quickdraw="https://quickdraw.withgoogle.com/data"
	xmlns:scikit-surgery="https://doi.org/10.1007/s11548-020-02180-5">

	<rect width="100%" height="100%" fill="black" />
	<path d = "M 56.25 67.97 L 164.06 135.94 L 267.19 222.66 L 309.38 246.09 L 571.88 42.19 L 581.25 37.50 L 588.28 51.56 L 588.28 96.09 L 569.53 192.19 L 569.53 307.03 L 585.94 445.31 L 597.66 480.47 L 492.19 482.81 L 349.22 452.34 L 84.38 555.47 L 11.72 569.53 L 2.34 569.53 L 0.00 560.16 L 0.00 356.25 L 11.72 196.88 L 28.12 96.09 L 44.53 51.56 L 49.22 51.56" stroke="white" fill="transparent"/>
	<path d = "M 267.19 243.75 L 278.91 471.09" stroke="white" fill="transparent"/>
	<path d = "M 339.84 210.94 L 349.22 325.78 L 365.62 417.19 L 379.69 438.28" stroke="white" fill="transparent"/>
	<path d = "M 91.41 35.16 L 117.19 70.31 L 145.31 96.09 L 189.84 124.22 L 239.06 140.62 L 314.06 192.19 L 353.91 124.22 L 414.84 53.91 L 454.69 30.47 L 482.81 30.47 L 522.66 16.41 L 550.78 16.41 L 550.78 28.12 L 466.41 91.41 L 328.12 152.34 L 302.34 168.75 L 459.38 46.88 L 539.06 0.00 L 534.38 14.06 L 478.12 75.00 L 396.09 142.97 L 316.41 192.19 L 332.81 187.50" stroke="white" fill="transparent"/>
</svg>