<?xml version="1.0" encoding="UTF-8" standalone="no"?>
<!--Created with ndjsontosvg (https:https://github.com/thompson318/ndjsontosvg) 
	from the simplified Google quickdraw data set. key_id = 5513805238894592-->
<svg width="600" height="600"
	xmlns="http://www.w3.org/2000/svg">
	xmlns:ndjsontosvg="https://github.com/thompson318/ndjsontosvg"
	xmlns:quickdraw="https://quickdraw.withgoogle.com/data"
	xmlns:scikit-surgery="https://doi.org/10.1007/s11548-020-02180-5">

	<rect width="100%" height="100%" fill="black" />
	<path d = "M 25.78 42.19 L 28.12 131.25 L 0.00 307.03 L 267.19 330.47 L 271.88 208.59 L 288.28 96.09 L 292.97 18.75 L 42.19 23.44 L 14.06 42.19" stroke="white" fill="transparent"/>
	<path d = "M 288.28 11.72 L 597.66 0.00 L 595.31 49.22 L 564.84 241.41 L 564.84 332.81 L 555.47 360.94 L 506.25 360.94 L 250.78 328.12" stroke="white" fill="transparent"/>
	<path d = "M 60.94 60.94 L 201.56 51.56 L 255.47 58.59" stroke="white" fill="transparent"/>
	<path d = "M 100.78 89.06 L 185.16 84.38 L 217.97 91.41" stroke="white" fill="transparent"/>
	<path d = "M 56.25 128.91 L 121.88 126.56 L 171.09 140.62 L 236.72 138.28" stroke="white" fill="transparent"/>
	<path d = "M 51.56 175.78 L 100.78 173.44 L 194.53 194.53" stroke="white" fill="transparent"/>
	<path d = "M 60.94 215.62 L 166.41 243.75 L 192.19 243.75" stroke="white" fill="transparent"/>
</svg>