<?xml version="1.0" encoding="UTF-8" standalone="no"?>
<!--Created with ndjsontosvg (https:https://github.com/thompson318/ndjsontosvg) 
	from the simplified Google quickdraw data set. key_id = 5590433524613120-->
<svg width="600" height="600"
	xmlns="http://www.w3.org/2000/svg">
	xmlns:ndjsontosvg="https://github.com/thompson318/ndjsontosvg"
	xmlns:quickdraw="https://quickdraw.withgoogle.com/data"
	xmlns:scikit-surgery="https://doi.org/10.1007/s11548-020-02180-5">

	<rect width="100%" height="100%" fill="black" />
	<path d = "M 16.41 18.75 L 30.47 56.25 L 35.16 173.44 L 56.25 182.81 L 337.50 182.81 L 534.38 173.44 L 534.38 159.38 L 510.94 112.50 L 510.94 65.62 L 527.34 7.03 L 510.94 0.00 L 473.44 0.00 L 110.16 56.25 L 0.00 58.59 L 63.28 44.53" stroke="white" fill="transparent"/>
	<path d = "M 234.38 16.41 L 246.09 44.53 L 246.09 159.38" stroke="white" fill="transparent"/>
	<path d = "M 311.72 25.78 L 311.72 128.91 L 300.00 182.81" stroke="white" fill="transparent"/>
	<path d = "M 82.03 72.66 L 100.78 63.28 L 168.75 58.59" stroke="white" fill="transparent"/>
	<path d = "M 103.12 77.34 L 189.84 79.69" stroke="white" fill="transparent"/>
	<path d = "M 117.19 105.47 L 152.34 91.41 L 239.06 91.41" stroke="white" fill="transparent"/>
	<path d = "M 103.12 140.62 L 180.47 124.22" stroke="white" fill="transparent"/>
	<path d = "M 358.59 56.25 L 424.22 32.81 L 496.88 25.78 L 592.97 0.00" stroke="white" fill="transparent"/>
	<path d = "M 389.06 56.25 L 506.25 51.56" stroke="white" fill="transparent"/>
	<path d = "M 400.78 121.88 L 588.28 89.06" stroke="white" fill="transparent"/>
	<path d = "M 457.03 128.91 L 457.03 128.91" stroke="white" fill="transparent"/>
</svg>