<?xml version="1.0" encoding="UTF-8" standalone="no"?>
<!--Created with ndjsontosvg (https:https://github.com/thompson318/ndjsontosvg) 
	from the simplified Google quickdraw data set. key_id = 4952924398551040-->
<svg width="600" height="600"
	xmlns="http://www.w3.org/2000/svg">
	xmlns:ndjsontosvg="https://github.com/thompson318/ndjsontosvg"
	xmlns:quickdraw="https://quickdraw.withgoogle.com/data"
	xmlns:scikit-surgery="https://doi.org/10.1007/s11548-020-02180-5">

	<rect width="100%" height="100%" fill="black" />
	<path d = "M 25.78 28.12 L 7.03 239.06 L 0.00 454.69 L 4.69 539.06 L 173.44 529.69 L 318.75 503.91 L 419.53 496.88 L 386.72 459.38 L 360.94 403.12 L 335.16 297.66 L 304.69 208.59 L 290.62 67.97 L 297.66 9.38 L 281.25 4.69 L 121.88 39.84 L 18.75 49.22" stroke="white" fill="transparent"/>
	<path d = "M 276.56 35.16 L 473.44 11.72 L 508.59 0.00 L 595.31 14.06 L 588.28 161.72 L 595.31 499.22 L 578.91 534.38 L 557.81 548.44 L 541.41 510.94 L 539.06 480.47" stroke="white" fill="transparent"/>
	<path d = "M 576.56 499.22 L 414.84 482.81" stroke="white" fill="transparent"/>
	<path d = "M 46.88 128.91 L 67.97 128.91 L 142.97 105.47 L 159.38 114.84" stroke="white" fill="transparent"/>
	<path d = "M 185.16 147.66 L 222.66 133.59 L 253.12 105.47" stroke="white" fill="transparent"/>
	<path d = "M 67.97 227.34 L 103.12 232.03 L 126.56 229.69 L 180.47 189.84 L 225.00 222.66 L 283.59 248.44" stroke="white" fill="transparent"/>
	<path d = "M 77.34 370.31 L 114.84 379.69 L 159.38 372.66 L 175.78 360.94 L 196.88 325.78 L 227.34 339.84 L 292.97 344.53" stroke="white" fill="transparent"/>
	<path d = "M 107.81 482.81 L 135.94 485.16 L 225.00 454.69 L 264.84 485.16 L 281.25 492.19 L 300.00 489.84" stroke="white" fill="transparent"/>
	<path d = "M 356.25 117.19 L 400.78 131.25 L 431.25 126.56 L 459.38 114.84 L 501.56 77.34 L 529.69 93.75 L 541.41 119.53" stroke="white" fill="transparent"/>
	<path d = "M 435.94 234.38 L 435.94 234.38" stroke="white" fill="transparent"/>
</svg>