<?xml version="1.0" encoding="UTF-8" standalone="no"?>
<!--Created with ndjsontosvg (https:https://github.com/thompson318/ndjsontosvg) 
	from the simplified Google quickdraw data set. key_id = 6441676480446464-->
<svg width="600" height="600"
	xmlns="http://www.w3.org/2000/svg">
	xmlns:ndjsontosvg="https://github.com/thompson318/ndjsontosvg"
	xmlns:quickdraw="https://quickdraw.withgoogle.com/data"
	xmlns:scikit-surgery="https://doi.org/10.1007/s11548-020-02180-5">

	<rect width="100%" height="100%" fill="black" />
	<path d = "M 330.47 100.78 L 314.06 77.34 L 276.56 51.56 L 208.59 23.44 L 178.12 23.44 L 142.97 37.50 L 93.75 44.53 L 56.25 60.94 L 7.03 110.16 L 0.00 128.91 L 37.50 208.59 L 70.31 321.09 L 82.03 337.50 L 185.16 290.62 L 220.31 283.59 L 321.09 283.59 L 356.25 295.31 L 375.00 316.41 L 372.66 269.53 L 335.16 96.09 L 360.94 56.25 L 447.66 0.00 L 536.72 0.00 L 583.59 14.06 L 597.66 288.28 L 564.84 276.56 L 473.44 269.53 L 405.47 292.97 L 382.03 314.06 L 412.50 351.56 L 426.56 342.19 L 461.72 335.16 L 553.12 328.12 L 569.53 332.81" stroke="white" fill="transparent"/>
</svg>