<?xml version="1.0" encoding="UTF-8" standalone="no"?>
<!--Created with ndjsontosvg (https:https://github.com/thompson318/ndjsontosvg) 
	from the simplified Google quickdraw data set. key_id = 6317673396830208-->
<svg width="600" height="600"
	xmlns="http://www.w3.org/2000/svg">
	xmlns:ndjsontosvg="https://github.com/thompson318/ndjsontosvg"
	xmlns:quickdraw="https://quickdraw.withgoogle.com/data"
	xmlns:scikit-surgery="https://doi.org/10.1007/s11548-020-02180-5">

	<rect width="100%" height="100%" fill="black" />
	<path d = "M 457.03 269.53 L 417.19 232.03 L 285.94 147.66 L 208.59 84.38 L 187.50 63.28 L 173.44 30.47 L 173.44 9.38 L 178.12 7.03 L 213.28 0.00 L 335.16 4.69 L 489.84 58.59 L 527.34 86.72 L 571.88 135.94 L 595.31 180.47 L 592.97 217.97 L 567.19 269.53 L 492.19 353.91 L 459.38 379.69 L 117.19 480.47 L 2.34 482.81 L 2.34 473.44 L 21.09 464.06 L 220.31 403.12 L 346.88 351.56 L 384.38 330.47 L 403.12 307.03 L 447.66 295.31 L 480.47 260.16" stroke="white" fill="transparent"/>
	<path d = "M 438.28 248.44 L 403.12 243.75 L 360.94 203.91 L 269.53 138.28 L 161.72 67.97 L 112.50 18.75 L 150.00 14.06 L 295.31 42.19 L 421.88 42.19" stroke="white" fill="transparent"/>
	<path d = "M 360.94 157.03 L 487.50 72.66" stroke="white" fill="transparent"/>
	<path d = "M 351.56 356.25 L 379.69 349.22 L 435.94 302.34 L 485.16 243.75 L 527.34 173.44 L 534.38 171.09" stroke="white" fill="transparent"/>
</svg>