<?xml version="1.0" encoding="UTF-8" standalone="no"?>
<!--Created with ndjsontosvg (https:https://github.com/thompson318/ndjsontosvg) 
	from the simplified Google quickdraw data set. key_id = 5311479664345088-->
<svg width="600" height="600"
	xmlns="http://www.w3.org/2000/svg">
	xmlns:ndjsontosvg="https://github.com/thompson318/ndjsontosvg"
	xmlns:quickdraw="https://quickdraw.withgoogle.com/data"
	xmlns:scikit-surgery="https://doi.org/10.1007/s11548-020-02180-5">

	<rect width="100%" height="100%" fill="black" />
	<path d = "M 232.03 16.41 L 215.62 7.03 L 131.25 0.00 L 63.28 58.59 L 18.75 147.66 L 2.34 203.91 L 0.00 307.03 L 9.38 358.59 L 37.50 396.09 L 70.31 421.88 L 114.84 440.62 L 173.44 447.66 L 248.44 445.31 L 316.41 426.56 L 375.00 396.09 L 440.62 325.78 L 459.38 278.91 L 459.38 171.09 L 433.59 114.84 L 398.44 82.03 L 349.22 65.62 L 285.94 60.94 L 203.91 72.66 L 126.56 112.50" stroke="white" fill="transparent"/>
	<path d = "M 157.03 11.72 L 157.03 84.38 L 180.47 37.50 L 194.53 28.12 L 220.31 72.66 L 234.38 58.59 L 241.41 37.50 L 267.19 63.28 L 283.59 58.59 L 297.66 39.84 L 311.72 37.50 L 314.06 86.72 L 346.88 84.38 L 396.09 58.59 L 435.94 49.22 L 424.22 98.44 L 525.00 96.09 L 522.66 110.16 L 508.59 135.94 L 532.03 140.62 L 553.12 135.94 L 557.81 164.06 L 541.41 187.50 L 555.47 199.22 L 569.53 199.22 L 569.53 215.62 L 503.91 323.44 L 487.50 339.84 L 492.19 325.78 L 398.44 419.53 L 389.06 457.03 L 363.28 499.22 L 342.19 510.94 L 311.72 510.94 L 257.81 588.28 L 236.72 590.62 L 201.56 569.53 L 185.16 576.56 L 168.75 592.97 L 142.97 597.66 L 98.44 557.81 L 72.66 555.47" stroke="white" fill="transparent"/>
</svg>