<?xml version="1.0" encoding="UTF-8" standalone="no"?>
<!--Created with ndjsontosvg (https:https://github.com/thompson318/ndjsontosvg) 
	from the simplified Google quickdraw data set. key_id = 4946591653822464-->
<svg width="600" height="600"
	xmlns="http://www.w3.org/2000/svg">
	xmlns:ndjsontosvg="https://github.com/thompson318/ndjsontosvg"
	xmlns:quickdraw="https://quickdraw.withgoogle.com/data"
	xmlns:scikit-surgery="https://doi.org/10.1007/s11548-020-02180-5">

	<rect width="100%" height="100%" fill="black" />
	<path d = "M 67.97 46.88 L 194.53 2.34 L 243.75 0.00 L 276.56 18.75 L 307.03 72.66 L 309.38 91.41 L 253.12 84.38 L 243.75 100.78 L 215.62 114.84 L 196.88 112.50 L 164.06 77.34 L 142.97 126.56 L 121.88 147.66 L 103.12 157.03 L 77.34 154.69 L 32.81 114.84 L 18.75 131.25 L 2.34 133.59 L 0.00 96.09 L 60.94 51.56 L 112.50 35.16" stroke="white" fill="transparent"/>
	<path d = "M 37.50 112.50 L 63.28 206.25 L 79.69 311.72 L 79.69 328.12 L 63.28 349.22 L 46.88 403.12 L 46.88 459.38 L 77.34 592.97 L 93.75 597.66" stroke="white" fill="transparent"/>
	<path d = "M 220.31 128.91 L 225.00 166.41 L 243.75 206.25 L 278.91 227.34 L 384.38 239.06 L 407.81 271.88 L 433.59 335.16 L 503.91 433.59" stroke="white" fill="transparent"/>
</svg>