<?xml version="1.0" encoding="UTF-8" standalone="no"?>
<!--Created with ndjsontosvg (https:https://github.com/thompson318/ndjsontosvg) 
	from the simplified Google quickdraw data set. key_id = 5135210863656960-->
<svg width="600" height="600"
	xmlns="http://www.w3.org/2000/svg">
	xmlns:ndjsontosvg="https://github.com/thompson318/ndjsontosvg"
	xmlns:quickdraw="https://quickdraw.withgoogle.com/data"
	xmlns:scikit-surgery="https://doi.org/10.1007/s11548-020-02180-5">

	<rect width="100%" height="100%" fill="black" />
	<path d = "M 37.50 39.84 L 98.44 16.41 L 180.47 0.00 L 288.28 2.34 L 471.09 32.81 L 529.69 51.56 L 567.19 86.72 L 557.81 126.56 L 485.16 161.72 L 426.56 166.41 L 267.19 161.72 L 131.25 138.28 L 72.66 103.12 L 63.28 49.22 L 75.00 28.12" stroke="white" fill="transparent"/>
	<path d = "M 56.25 44.53 L 28.12 56.25 L 2.34 107.81 L 2.34 133.59 L 25.78 164.06 L 105.47 217.97 L 227.34 253.12 L 393.75 250.78 L 494.53 206.25 L 588.28 145.31 L 597.66 114.84" stroke="white" fill="transparent"/>
	<path d = "M 53.91 110.16 L 42.19 178.12" stroke="white" fill="transparent"/>
	<path d = "M 126.56 128.91 L 124.22 201.56" stroke="white" fill="transparent"/>
	<path d = "M 246.09 161.72 L 236.72 234.38" stroke="white" fill="transparent"/>
	<path d = "M 370.31 189.84 L 370.31 262.50" stroke="white" fill="transparent"/>
	<path d = "M 464.06 154.69 L 492.19 203.91 L 501.56 203.91" stroke="white" fill="transparent"/>
	<path d = "M 576.56 119.53 L 578.91 142.97" stroke="white" fill="transparent"/>
</svg>