<?xml version="1.0" encoding="UTF-8" standalone="no"?>
<!--Created with ndjsontosvg (https:https://github.com/thompson318/ndjsontosvg) 
	from the simplified Google quickdraw data set. key_id = 5287843381379072-->
<svg width="600" height="600"
	xmlns="http://www.w3.org/2000/svg">
	xmlns:ndjsontosvg="https://github.com/thompson318/ndjsontosvg"
	xmlns:quickdraw="https://quickdraw.withgoogle.com/data"
	xmlns:scikit-surgery="https://doi.org/10.1007/s11548-020-02180-5">

	<rect width="100%" height="100%" fill="black" />
	<path d = "M 0.00 482.81 L 11.72 377.34 L 56.25 119.53 L 114.84 257.81 L 154.69 391.41 L 75.00 400.78 L 46.88 410.16 L 0.00 442.97" stroke="white" fill="transparent"/>
	<path d = "M 243.75 353.91 L 182.81 384.38 L 157.03 419.53 L 161.72 428.91 L 182.81 433.59 L 229.69 428.91 L 239.06 424.22 L 248.44 405.47 L 248.44 384.38 L 232.03 358.59" stroke="white" fill="transparent"/>
	<path d = "M 260.16 370.31 L 353.91 297.66 L 503.91 203.91 L 513.28 199.22 L 522.66 206.25 L 534.38 384.38 L 534.38 595.31 L 525.00 597.66 L 494.53 562.50 L 384.38 489.84 L 295.31 452.34 L 253.12 421.88" stroke="white" fill="transparent"/>
	<path d = "M 152.34 0.00 L 126.56 18.75 L 103.12 58.59 L 103.12 79.69 L 126.56 112.50 L 196.88 117.19 L 229.69 103.12 L 248.44 67.97 L 246.09 49.22 L 239.06 35.16 L 213.28 14.06" stroke="white" fill="transparent"/>
	<path d = "M 475.78 63.28 L 393.75 103.12 L 356.25 131.25 L 353.91 147.66 L 363.28 159.38 L 386.72 166.41 L 452.34 161.72 L 468.75 147.66 L 478.12 119.53 L 473.44 93.75 L 459.38 84.38" stroke="white" fill="transparent"/>
</svg>