<?xml version="1.0" encoding="UTF-8" standalone="no"?>
<!--Created with ndjsontosvg (https:https://github.com/thompson318/ndjsontosvg) 
	from the simplified Google quickdraw data set. key_id = 6538042632306688-->
<svg width="600" height="600"
	xmlns="http://www.w3.org/2000/svg">
	xmlns:ndjsontosvg="https://github.com/thompson318/ndjsontosvg"
	xmlns:quickdraw="https://quickdraw.withgoogle.com/data"
	xmlns:scikit-surgery="https://doi.org/10.1007/s11548-020-02180-5">

	<rect width="100%" height="100%" fill="black" />
	<path d = "M 35.16 192.19 L 23.44 210.94 L 23.44 241.41 L 75.00 541.41 L 84.38 543.75 L 161.72 438.28 L 213.28 351.56 L 248.44 271.88 L 0.00 175.78" stroke="white" fill="transparent"/>
	<path d = "M 250.78 285.94 L 269.53 351.56 L 295.31 393.75 L 311.72 414.84 L 353.91 433.59 L 391.41 435.94 L 400.78 424.22 L 407.81 384.38 L 405.47 311.72 L 370.31 269.53 L 321.09 246.09 L 262.50 239.06 L 246.09 243.75 L 241.41 262.50" stroke="white" fill="transparent"/>
	<path d = "M 442.97 356.25 L 433.59 339.84 L 433.59 241.41 L 447.66 161.72 L 475.78 70.31 L 515.62 0.00 L 557.81 98.44 L 578.91 180.47 L 597.66 403.12 L 597.66 489.84 L 560.16 489.84 L 494.53 452.34 L 419.53 382.03 L 349.22 328.12" stroke="white" fill="transparent"/>
	<path d = "M 421.88 304.69 L 421.88 304.69" stroke="white" fill="transparent"/>
</svg>