<?xml version="1.0" encoding="UTF-8" standalone="no"?>
<!--Created with ndjsontosvg (https:https://github.com/thompson318/ndjsontosvg) 
	from the simplified Google quickdraw data set. key_id = 4783576522424320-->
<svg width="600" height="600"
	xmlns="http://www.w3.org/2000/svg">
	xmlns:ndjsontosvg="https://github.com/thompson318/ndjsontosvg"
	xmlns:quickdraw="https://quickdraw.withgoogle.com/data"
	xmlns:scikit-surgery="https://doi.org/10.1007/s11548-020-02180-5">

	<rect width="100%" height="100%" fill="black" />
	<path d = "M 7.03 65.62 L 44.53 325.78 L 110.16 494.53 L 135.94 520.31 L 208.59 534.38 L 234.38 522.66 L 255.47 499.22 L 276.56 428.91 L 290.62 335.16 L 285.94 260.16 L 276.56 232.03 L 248.44 187.50 L 178.12 131.25 L 110.16 98.44 L 0.00 60.94" stroke="white" fill="transparent"/>
	<path d = "M 360.94 213.28 L 337.50 225.00 L 300.00 307.03 L 295.31 344.53 L 314.06 363.28 L 365.62 360.94 L 410.16 344.53 L 435.94 323.44 L 461.72 285.94 L 398.44 234.38 L 346.88 208.59" stroke="white" fill="transparent"/>
	<path d = "M 534.38 2.34 L 571.88 131.25 L 583.59 192.19 L 583.59 353.91 L 597.66 482.81 L 578.91 503.91 L 564.84 506.25 L 527.34 475.78 L 510.94 447.66 L 485.16 370.31 L 447.66 311.72 L 414.84 276.56 L 450.00 194.53 L 478.12 70.31 L 539.06 0.00" stroke="white" fill="transparent"/>
</svg>