<?xml version="1.0" encoding="UTF-8" standalone="no"?>
<!--Created with ndjsontosvg (https:https://github.com/thompson318/ndjsontosvg) 
	from the simplified Google quickdraw data set. key_id = 5815195588886528-->
<svg width="600" height="600"
	xmlns="http://www.w3.org/2000/svg">
	xmlns:ndjsontosvg="https://github.com/thompson318/ndjsontosvg"
	xmlns:quickdraw="https://quickdraw.withgoogle.com/data"
	xmlns:scikit-surgery="https://doi.org/10.1007/s11548-020-02180-5">

	<rect width="100%" height="100%" fill="black" />
	<path d = "M 269.53 239.06 L 229.69 222.66 L 201.56 227.34 L 157.03 337.50 L 164.06 365.62 L 185.16 367.97 L 208.59 358.59 L 227.34 330.47 L 236.72 276.56 L 276.56 185.16 L 276.56 201.56" stroke="white" fill="transparent"/>
	<path d = "M 248.44 253.12 L 419.53 140.62 L 440.62 114.84 L 478.12 25.78 L 510.94 0.00 L 525.00 4.69 L 569.53 51.56 L 597.66 138.28 L 597.66 234.38 L 548.44 419.53 L 501.56 522.66 L 482.81 536.72 L 440.62 539.06 L 328.12 525.00 L 302.34 513.28 L 302.34 410.16 L 292.97 382.03 L 257.81 367.97 L 215.62 339.84" stroke="white" fill="transparent"/>
	<path d = "M 192.19 232.03 L 159.38 213.28 L 114.84 206.25 L 51.56 225.00 L 32.81 239.06 L 21.09 267.19 L 0.00 346.88 L 0.00 407.81 L 9.38 421.88 L 35.16 431.25 L 67.97 417.19 L 117.19 377.34 L 168.75 307.03 L 189.84 262.50" stroke="white" fill="transparent"/>
	<path d = "M 189.84 260.16 L 98.44 295.31" stroke="white" fill="transparent"/>
	<path d = "M 239.06 297.66 L 246.09 288.28 L 283.59 276.56" stroke="white" fill="transparent"/>
</svg>