<?xml version="1.0" encoding="UTF-8" standalone="no"?>
<!--Created with ndjsontosvg (https:https://github.com/thompson318/ndjsontosvg) 
	from the simplified Google quickdraw data set. key_id = 5697057060814848-->
<svg width="600" height="600"
	xmlns="http://www.w3.org/2000/svg">
	xmlns:ndjsontosvg="https://github.com/thompson318/ndjsontosvg"
	xmlns:quickdraw="https://quickdraw.withgoogle.com/data"
	xmlns:scikit-surgery="https://doi.org/10.1007/s11548-020-02180-5">

	<rect width="100%" height="100%" fill="black" />
	<path d = "M 0.00 28.12 L 0.00 246.09" stroke="white" fill="transparent"/>
	<path d = "M 119.53 114.84 L 351.56 323.44" stroke="white" fill="transparent"/>
	<path d = "M 23.44 35.16 L 161.72 154.69 L 58.59 192.19 L 4.69 225.00" stroke="white" fill="transparent"/>
	<path d = "M 227.34 46.88 L 217.97 51.56 L 203.91 77.34 L 194.53 145.31 L 257.81 168.75 L 342.19 168.75 L 382.03 157.03 L 393.75 145.31 L 393.75 117.19 L 365.62 89.06 L 285.94 67.97 L 182.81 72.66" stroke="white" fill="transparent"/>
	<path d = "M 377.34 107.81 L 576.56 0.00 L 578.91 91.41 L 597.66 274.22 L 574.22 278.91 L 525.00 253.12 L 496.88 227.34 L 452.34 159.38 L 414.84 142.97" stroke="white" fill="transparent"/>
</svg>