<?xml version="1.0" encoding="UTF-8" standalone="no"?>
<!--Created with ndjsontosvg (https:https://github.com/thompson318/ndjsontosvg) 
	from the simplified Google quickdraw data set. key_id = 6289764766449664-->
<svg width="600" height="600"
	xmlns="http://www.w3.org/2000/svg">
	xmlns:ndjsontosvg="https://github.com/thompson318/ndjsontosvg"
	xmlns:quickdraw="https://quickdraw.withgoogle.com/data"
	xmlns:scikit-surgery="https://doi.org/10.1007/s11548-020-02180-5">

	<rect width="100%" height="100%" fill="black" />
	<path d = "M 337.50 46.88 L 269.53 35.16 L 213.28 37.50 L 138.28 63.28 L 103.12 84.38 L 49.22 131.25 L 25.78 166.41 L 9.38 213.28 L 2.34 264.84 L 0.00 323.44 L 11.72 412.50 L 35.16 466.41 L 65.62 503.91 L 140.62 555.47 L 187.50 571.88 L 260.16 583.59 L 300.00 578.91 L 335.16 567.19 L 372.66 550.78 L 440.62 496.88 L 499.22 410.16 L 520.31 356.25 L 532.03 302.34 L 529.69 192.19 L 517.97 145.31 L 471.09 56.25 L 419.53 14.06 L 379.69 0.00 L 309.38 0.00 L 239.06 16.41 L 161.72 44.53 L 117.19 79.69 L 82.03 128.91 L 65.62 171.09 L 46.88 241.41 L 39.84 335.16 L 56.25 396.09 L 82.03 454.69 L 124.22 513.28 L 189.84 571.88 L 255.47 595.31 L 297.66 597.66 L 339.84 592.97 L 410.16 569.53 L 475.78 525.00 L 506.25 487.50 L 527.34 433.59 L 532.03 365.62 L 525.00 302.34 L 482.81 171.09 L 452.34 96.09 L 424.22 56.25 L 382.03 32.81 L 311.72 23.44 L 269.53 28.12 L 229.69 49.22" stroke="white" fill="transparent"/>
</svg>