<?xml version="1.0" encoding="UTF-8" standalone="no"?>
<!--Created with ndjsontosvg (https:https://github.com/thompson318/ndjsontosvg) 
	from the simplified Google quickdraw data set. key_id = 6028091497381888-->
<svg width="600" height="600"
	xmlns="http://www.w3.org/2000/svg">
	xmlns:ndjsontosvg="https://github.com/thompson318/ndjsontosvg"
	xmlns:quickdraw="https://quickdraw.withgoogle.com/data"
	xmlns:scikit-surgery="https://doi.org/10.1007/s11548-020-02180-5">

	<rect width="100%" height="100%" fill="black" />
	<path d = "M 39.84 70.31 L 98.44 44.53 L 292.97 4.69 L 442.97 0.00 L 492.19 14.06 L 550.78 56.25 L 588.28 110.16 L 595.31 133.59 L 597.66 208.59 L 553.12 262.50 L 522.66 278.91 L 398.44 311.72 L 243.75 314.06 L 187.50 304.69 L 58.59 246.09 L 35.16 220.31 L 7.03 173.44 L 0.00 107.81 L 39.84 72.66 L 93.75 46.88" stroke="white" fill="transparent"/>
	<path d = "M 107.81 77.34 L 145.31 56.25 L 229.69 39.84 L 292.97 39.84 L 442.97 75.00 L 487.50 100.78 L 513.28 133.59 L 508.59 178.12 L 487.50 201.56 L 450.00 225.00 L 356.25 250.78 L 295.31 255.47 L 84.38 187.50 L 72.66 166.41 L 75.00 140.62 L 138.28 63.28" stroke="white" fill="transparent"/>
</svg>