<?xml version="1.0" encoding="UTF-8" standalone="no"?>
<!--Created with ndjsontosvg (https:https://github.com/thompson318/ndjsontosvg) 
	from the simplified Google quickdraw data set. key_id = 5927947896619008-->
<svg width="600" height="600"
	xmlns="http://www.w3.org/2000/svg">
	xmlns:ndjsontosvg="https://github.com/thompson318/ndjsontosvg"
	xmlns:quickdraw="https://quickdraw.withgoogle.com/data"
	xmlns:scikit-surgery="https://doi.org/10.1007/s11548-020-02180-5">

	<rect width="100%" height="100%" fill="black" />
	<path d = "M 300.00 72.66 L 271.88 58.59 L 248.44 58.59 L 168.75 117.19 L 126.56 154.69 L 96.09 196.88 L 58.59 274.22 L 53.91 358.59 L 60.94 407.81 L 103.12 485.16 L 128.91 510.94 L 157.03 527.34 L 363.28 492.19 L 405.47 445.31 L 445.31 384.38 L 492.19 281.25 L 499.22 217.97 L 489.84 185.16 L 466.41 152.34 L 438.28 121.88 L 396.09 98.44 L 264.84 58.59 L 267.19 51.56" stroke="white" fill="transparent"/>
	<path d = "M 178.12 37.50 L 89.06 72.66 L 39.84 110.16 L 16.41 147.66 L 4.69 208.59 L 0.00 426.56 L 4.69 457.03 L 21.09 482.81 L 67.97 532.03 L 133.59 569.53 L 210.94 590.62 L 370.31 597.66 L 428.91 576.56 L 485.16 541.41 L 532.03 485.16 L 560.16 428.91 L 564.84 311.72 L 485.16 82.03 L 461.72 46.88 L 426.56 18.75 L 339.84 0.00 L 232.03 0.00 L 103.12 25.78" stroke="white" fill="transparent"/>
</svg>