<?xml version="1.0" encoding="UTF-8" standalone="no"?>
<!--Created with ndjsontosvg (https:https://github.com/thompson318/ndjsontosvg) 
	from the simplified Google quickdraw data set. key_id = 4615332071211008-->
<svg width="600" height="600"
	xmlns="http://www.w3.org/2000/svg">
	xmlns:ndjsontosvg="https://github.com/thompson318/ndjsontosvg"
	xmlns:quickdraw="https://quickdraw.withgoogle.com/data"
	xmlns:scikit-surgery="https://doi.org/10.1007/s11548-020-02180-5">

	<rect width="100%" height="100%" fill="black" />
	<path d = "M 140.62 35.16 L 84.38 56.25 L 37.50 86.72 L 7.03 128.91 L 0.00 290.62 L 23.44 346.88 L 58.59 396.09 L 166.41 482.81 L 215.62 503.91 L 271.88 510.94 L 344.53 510.94 L 435.94 499.22 L 508.59 482.81 L 555.47 452.34 L 571.88 426.56 L 585.94 384.38 L 597.66 302.34 L 597.66 208.59 L 583.59 159.38 L 555.47 126.56 L 494.53 84.38 L 435.94 56.25 L 358.59 7.03 L 325.78 0.00 L 292.97 2.34 L 217.97 37.50 L 140.62 42.19" stroke="white" fill="transparent"/>
	<path d = "M 154.69 63.28 L 126.56 75.00 L 89.06 112.50 L 53.91 208.59 L 53.91 248.44 L 63.28 300.00 L 93.75 372.66 L 138.28 414.84 L 227.34 466.41 L 445.31 473.44 L 480.47 461.72 L 517.97 435.94 L 574.22 330.47 L 578.91 267.19 L 548.44 171.09 L 527.34 152.34 L 442.97 112.50 L 323.44 70.31 L 283.59 60.94 L 180.47 58.59" stroke="white" fill="transparent"/>
</svg>