<?xml version="1.0" encoding="UTF-8" standalone="no"?>
<!--Created with ndjsontosvg (https:https://github.com/thompson318/ndjsontosvg) 
	from the simplified Google quickdraw data set. key_id = 6466038608691200-->
<svg width="600" height="600"
	xmlns="http://www.w3.org/2000/svg">
	xmlns:ndjsontosvg="https://github.com/thompson318/ndjsontosvg"
	xmlns:quickdraw="https://quickdraw.withgoogle.com/data"
	xmlns:scikit-surgery="https://doi.org/10.1007/s11548-020-02180-5">

	<rect width="100%" height="100%" fill="black" />
	<path d = "M 307.03 18.75 L 260.16 14.06 L 227.34 28.12 L 79.69 140.62 L 49.22 173.44 L 14.06 225.00 L 0.00 316.41 L 0.00 412.50 L 9.38 447.66 L 32.81 503.91 L 75.00 550.78 L 114.84 578.91 L 159.38 592.97 L 213.28 597.66 L 292.97 592.97 L 363.28 560.16 L 428.91 494.53 L 489.84 382.03 L 510.94 307.03 L 510.94 208.59 L 499.22 142.97 L 480.47 84.38 L 452.34 46.88 L 410.16 23.44 L 346.88 11.72" stroke="white" fill="transparent"/>
	<path d = "M 323.44 60.94 L 292.97 60.94 L 250.78 89.06 L 187.50 152.34 L 133.59 222.66 L 93.75 292.97 L 75.00 344.53 L 72.66 424.22 L 105.47 464.06 L 142.97 478.12 L 189.84 485.16 L 271.88 482.81 L 339.84 457.03 L 398.44 393.75 L 433.59 330.47 L 450.00 281.25 L 454.69 234.38 L 447.66 147.66 L 424.22 107.81 L 398.44 79.69 L 332.81 42.19" stroke="white" fill="transparent"/>
	<path d = "M 318.75 0.00 L 297.66 21.09 L 304.69 51.56 L 328.12 60.94 L 335.16 58.59 L 342.19 35.16 L 342.19 18.75 L 318.75 14.06 L 307.03 28.12 L 307.03 39.84 L 316.41 42.19" stroke="white" fill="transparent"/>
</svg>