<?xml version="1.0" encoding="UTF-8" standalone="no"?>
<!--Created with ndjsontosvg (https:https://github.com/thompson318/ndjsontosvg) 
	from the simplified Google quickdraw data set. key_id = 5675039921799168-->
<svg width="600" height="600"
	xmlns="http://www.w3.org/2000/svg">
	xmlns:ndjsontosvg="https://github.com/thompson318/ndjsontosvg"
	xmlns:quickdraw="https://quickdraw.withgoogle.com/data"
	xmlns:scikit-surgery="https://doi.org/10.1007/s11548-020-02180-5">

	<rect width="100%" height="100%" fill="black" />
	<path d = "M 128.91 60.94 L 53.91 72.66 L 18.75 91.41 L 0.00 126.56 L 0.00 157.03 L 30.47 171.09 L 100.78 171.09 L 140.62 152.34 L 157.03 121.88 L 147.66 91.41 L 98.44 79.69" stroke="white" fill="transparent"/>
	<path d = "M 236.72 49.22 L 232.03 110.16 L 243.75 140.62 L 274.22 145.31 L 297.66 117.19 L 292.97 49.22 L 262.50 23.44 L 171.09 0.00" stroke="white" fill="transparent"/>
	<path d = "M 396.09 79.69 L 335.16 79.69 L 274.22 121.88 L 269.53 152.34 L 328.12 201.56 L 365.62 213.28 L 396.09 220.31 L 419.53 189.84 L 419.53 128.91 L 396.09 98.44 L 384.38 98.44" stroke="white" fill="transparent"/>
	<path d = "M 464.06 206.25 L 431.25 201.56 L 407.81 236.72 L 407.81 274.22 L 421.88 304.69 L 457.03 311.72 L 487.50 304.69 L 499.22 229.69 L 494.53 175.78" stroke="white" fill="transparent"/>
	<path d = "M 482.81 342.19 L 445.31 323.44 L 417.19 328.12 L 396.09 365.62 L 391.41 426.56 L 450.00 457.03 L 482.81 457.03 L 510.94 433.59 L 529.69 403.12 L 536.72 358.59 L 525.00 323.44 L 494.53 304.69" stroke="white" fill="transparent"/>
	<path d = "M 377.34 377.34 L 346.88 377.34 L 318.75 414.84 L 304.69 475.78 L 311.72 536.72 L 342.19 536.72 L 370.31 517.97 L 405.47 466.41 L 407.81 426.56 L 377.34 407.81 L 365.62 407.81" stroke="white" fill="transparent"/>
	<path d = "M 220.31 414.84 L 189.84 414.84 L 159.38 426.56 L 140.62 457.03 L 145.31 525.00 L 201.56 585.94 L 232.03 597.66 L 260.16 590.62 L 262.50 560.16 L 243.75 499.22 L 206.25 438.28 L 182.81 433.59" stroke="white" fill="transparent"/>
	<path d = "M 84.38 421.88 L 53.91 421.88 L 23.44 433.59 L 7.03 492.19 L 7.03 525.00" stroke="white" fill="transparent"/>
</svg>