<?xml version="1.0" encoding="UTF-8" standalone="no"?>
<!--Created with ndjsontosvg (https:https://github.com/thompson318/ndjsontosvg) 
	from the simplified Google quickdraw data set. key_id = 6221482168418304-->
<svg width="600" height="600"
	xmlns="http://www.w3.org/2000/svg">
	xmlns:ndjsontosvg="https://github.com/thompson318/ndjsontosvg"
	xmlns:quickdraw="https://quickdraw.withgoogle.com/data"
	xmlns:scikit-surgery="https://doi.org/10.1007/s11548-020-02180-5">

	<rect width="100%" height="100%" fill="black" />
	<path d = "M 192.19 595.31 L 185.16 576.56 L 58.59 419.53 L 28.12 365.62 L 9.38 309.38 L 0.00 243.75 L 11.72 171.09 L 75.00 82.03 L 124.22 56.25 L 234.38 49.22 L 328.12 70.31 L 403.12 103.12 L 450.00 142.97 L 487.50 187.50 L 522.66 255.47 L 534.38 302.34 L 539.06 377.34 L 534.38 405.47 L 503.91 461.72 L 428.91 536.72 L 346.88 581.25 L 297.66 595.31 L 232.03 592.97 L 171.09 571.88 L 128.91 543.75" stroke="white" fill="transparent"/>
	<path d = "M 107.81 58.59 L 187.50 23.44 L 295.31 0.00 L 330.47 2.34 L 457.03 58.59 L 550.78 159.38 L 569.53 203.91 L 585.94 302.34 L 576.56 389.06 L 548.44 457.03 L 457.03 560.16" stroke="white" fill="transparent"/>
</svg>