<?xml version="1.0" encoding="UTF-8" standalone="no"?>
<!--Created with ndjsontosvg (https:https://github.com/thompson318/ndjsontosvg) 
	from the simplified Google quickdraw data set. key_id = 6361832103084032-->
<svg width="600" height="600"
	xmlns="http://www.w3.org/2000/svg">
	xmlns:ndjsontosvg="https://github.com/thompson318/ndjsontosvg"
	xmlns:quickdraw="https://quickdraw.withgoogle.com/data"
	xmlns:scikit-surgery="https://doi.org/10.1007/s11548-020-02180-5">

	<rect width="100%" height="100%" fill="black" />
	<path d = "M 363.28 86.72 L 318.75 86.72 L 274.22 100.78 L 217.97 131.25 L 159.38 180.47 L 131.25 213.28 L 93.75 276.56 L 82.03 314.06 L 79.69 375.00 L 110.16 426.56 L 168.75 464.06 L 203.91 475.78 L 288.28 487.50 L 407.81 485.16 L 475.78 464.06 L 522.66 433.59 L 539.06 414.84 L 555.47 375.00 L 553.12 300.00 L 534.38 246.09 L 506.25 196.88 L 471.09 147.66 L 428.91 110.16 L 367.97 82.03 L 328.12 82.03 L 297.66 98.44" stroke="white" fill="transparent"/>
	<path d = "M 260.16 98.44 L 302.34 14.06" stroke="white" fill="transparent"/>
	<path d = "M 323.44 75.00 L 384.38 7.03" stroke="white" fill="transparent"/>
	<path d = "M 377.34 91.41 L 431.25 37.50 L 459.38 25.78" stroke="white" fill="transparent"/>
	<path d = "M 454.69 145.31 L 539.06 93.75 L 557.81 93.75" stroke="white" fill="transparent"/>
	<path d = "M 503.91 225.00 L 534.38 222.66 L 590.62 199.22 L 595.31 215.62" stroke="white" fill="transparent"/>
	<path d = "M 553.12 337.50 L 597.66 414.84" stroke="white" fill="transparent"/>
	<path d = "M 532.03 452.34 L 536.72 503.91 L 527.34 529.69" stroke="white" fill="transparent"/>
	<path d = "M 496.88 468.75 L 421.88 562.50" stroke="white" fill="transparent"/>
	<path d = "M 421.88 482.81 L 386.72 513.28 L 302.34 567.19" stroke="white" fill="transparent"/>
	<path d = "M 339.84 482.81 L 295.31 508.59 L 199.22 522.66" stroke="white" fill="transparent"/>
	<path d = "M 239.06 454.69 L 142.97 482.81 L 91.41 480.47 L 75.00 471.09" stroke="white" fill="transparent"/>
	<path d = "M 128.91 393.75 L 39.84 396.09 L 0.00 382.03" stroke="white" fill="transparent"/>
	<path d = "M 119.53 276.56 L 70.31 243.75 L 46.88 206.25 L 49.22 199.22" stroke="white" fill="transparent"/>
	<path d = "M 157.03 203.91 L 128.91 150.00 L 114.84 103.12" stroke="white" fill="transparent"/>
	<path d = "M 180.47 145.31 L 161.72 56.25" stroke="white" fill="transparent"/>
	<path d = "M 292.97 9.38 L 271.88 18.75 L 264.84 37.50 L 269.53 46.88 L 285.94 44.53 L 314.06 11.72 L 297.66 7.03 L 281.25 16.41" stroke="white" fill="transparent"/>
	<path d = "M 365.62 4.69 L 356.25 11.72 L 353.91 28.12 L 367.97 35.16 L 382.03 35.16 L 391.41 21.09 L 386.72 4.69 L 377.34 0.00 L 372.66 7.03" stroke="white" fill="transparent"/>
	<path d = "M 440.62 14.06 L 428.91 25.78 L 426.56 53.91 L 445.31 53.91 L 464.06 35.16 L 457.03 14.06 L 442.97 11.72 L 442.97 16.41" stroke="white" fill="transparent"/>
	<path d = "M 534.38 86.72 L 536.72 124.22 L 557.81 133.59 L 578.91 114.84 L 595.31 82.03 L 588.28 72.66 L 567.19 77.34 L 541.41 98.44 L 532.03 114.84" stroke="white" fill="transparent"/>
</svg>