<?xml version="1.0" encoding="UTF-8" standalone="no"?>
<!--Created with ndjsontosvg (https:https://github.com/thompson318/ndjsontosvg) 
	from the simplified Google quickdraw data set. key_id = 5578163121815552-->
<svg width="600" height="600"
	xmlns="http://www.w3.org/2000/svg">
	xmlns:ndjsontosvg="https://github.com/thompson318/ndjsontosvg"
	xmlns:quickdraw="https://quickdraw.withgoogle.com/data"
	xmlns:scikit-surgery="https://doi.org/10.1007/s11548-020-02180-5">

	<rect width="100%" height="100%" fill="black" />
	<path d = "M 454.69 51.56 L 307.03 32.81 L 246.09 35.16 L 182.81 56.25 L 121.88 96.09 L 65.62 159.38 L 21.09 236.72 L 0.00 367.97 L 63.28 468.75 L 133.59 515.62 L 250.78 539.06 L 438.28 520.31 L 553.12 435.94 L 583.59 396.09 L 597.66 323.44 L 574.22 159.38 L 492.19 63.28 L 440.62 25.78 L 307.03 0.00" stroke="white" fill="transparent"/>
	<path d = "M 419.53 107.81 L 297.66 103.12 L 243.75 112.50 L 110.16 161.72 L 56.25 243.75 L 46.88 281.25 L 39.84 314.06 L 46.88 356.25 L 75.00 405.47 L 105.47 428.91 L 161.72 461.72 L 229.69 487.50 L 285.94 492.19 L 321.09 485.16 L 353.91 468.75 L 452.34 389.06 L 473.44 353.91 L 510.94 246.09 L 513.28 225.00 L 503.91 203.91 L 424.22 131.25 L 403.12 119.53 L 370.31 119.53 L 335.16 133.59" stroke="white" fill="transparent"/>
	<path d = "M 527.34 91.41 L 489.84 124.22" stroke="white" fill="transparent"/>
	<path d = "M 471.09 30.47 L 407.81 82.03" stroke="white" fill="transparent"/>
	<path d = "M 271.88 103.12 L 267.19 110.16" stroke="white" fill="transparent"/>
	<path d = "M 180.47 7.03 L 164.06 114.84" stroke="white" fill="transparent"/>
</svg>