<?xml version="1.0" encoding="UTF-8" standalone="no"?>
<!--Created with ndjsontosvg (https:https://github.com/thompson318/ndjsontosvg) 
	from the simplified Google quickdraw data set. key_id = 5698230945841152-->
<svg width="600" height="600"
	xmlns="http://www.w3.org/2000/svg">
	xmlns:ndjsontosvg="https://github.com/thompson318/ndjsontosvg"
	xmlns:quickdraw="https://quickdraw.withgoogle.com/data"
	xmlns:scikit-surgery="https://doi.org/10.1007/s11548-020-02180-5">

	<rect width="100%" height="100%" fill="black" />
	<path d = "M 9.38 227.34 L 0.00 208.59 L 14.06 171.09 L 28.12 152.34 L 65.62 133.59 L 77.34 98.44 L 91.41 79.69 L 112.50 63.28 L 171.09 53.91 L 225.00 9.38 L 246.09 0.00 L 269.53 0.00 L 330.47 39.84 L 403.12 46.88 L 440.62 58.59 L 588.28 147.66 L 595.31 159.38 L 595.31 201.56 L 520.31 274.22 L 414.84 330.47 L 405.47 321.09 L 321.09 325.78 L 236.72 297.66 L 178.12 297.66 L 98.44 269.53 L 42.19 255.47 L 9.38 236.72 L 7.03 217.97 L 16.41 206.25" stroke="white" fill="transparent"/>
</svg>