<?xml version="1.0" encoding="UTF-8" standalone="no"?>
<!--Created with ndjsontosvg (https:https://github.com/thompson318/ndjsontosvg) 
	from the simplified Google quickdraw data set. key_id = 4560862218027008-->
<svg width="600" height="600"
	xmlns="http://www.w3.org/2000/svg">
	xmlns:ndjsontosvg="https://github.com/thompson318/ndjsontosvg"
	xmlns:quickdraw="https://quickdraw.withgoogle.com/data"
	xmlns:scikit-surgery="https://doi.org/10.1007/s11548-020-02180-5">

	<rect width="100%" height="100%" fill="black" />
	<path d = "M 86.72 421.88 L 138.28 440.62 L 192.19 438.28 L 257.81 396.09 L 297.66 379.69 L 323.44 379.69 L 367.97 410.16 L 389.06 414.84 L 442.97 412.50 L 478.12 384.38 L 489.84 382.03 L 567.19 391.41 L 581.25 377.34 L 595.31 342.19 L 597.66 276.56 L 595.31 246.09 L 574.22 199.22 L 543.75 164.06 L 513.28 150.00 L 506.25 79.69 L 468.75 58.59 L 433.59 58.59 L 412.50 25.78 L 386.72 7.03 L 311.72 0.00 L 285.94 30.47 L 283.59 44.53 L 199.22 44.53 L 124.22 79.69 L 93.75 114.84 L 82.03 164.06 L 84.38 199.22 L 32.81 229.69 L 4.69 260.16 L 0.00 283.59 L 4.69 335.16 L 39.84 375.00 L 49.22 414.84 L 86.72 438.28" stroke="white" fill="transparent"/>
	<path d = "M 93.75 206.25 L 152.34 206.25 L 154.69 250.78 L 192.19 276.56 L 210.94 300.00 L 215.62 349.22 L 201.56 372.66 L 222.66 372.66 L 239.06 384.38 L 239.06 417.19" stroke="white" fill="transparent"/>
	<path d = "M 487.50 135.94 L 459.38 128.91 L 421.88 157.03 L 403.12 194.53 L 400.78 222.66 L 367.97 262.50 L 367.97 328.12 L 351.56 342.19 L 349.22 363.28 L 353.91 379.69 L 379.69 393.75" stroke="white" fill="transparent"/>
	<path d = "M 239.06 157.03 L 262.50 126.56 L 304.69 121.88 L 307.03 159.38 L 276.56 189.84 L 269.53 232.03" stroke="white" fill="transparent"/>
	<path d = "M 271.88 304.69 L 271.88 304.69" stroke="white" fill="transparent"/>
	<path d = "M 281.25 307.03 L 281.25 307.03" stroke="white" fill="transparent"/>
	<path d = "M 276.56 288.28 L 283.59 300.00" stroke="white" fill="transparent"/>
</svg>