<?xml version="1.0" encoding="UTF-8" standalone="no"?>
<!--Created with ndjsontosvg (https:https://github.com/thompson318/ndjsontosvg) 
	from the simplified Google quickdraw data set. key_id = 5357391455453184-->
<svg width="600" height="600"
	xmlns="http://www.w3.org/2000/svg">
	xmlns:ndjsontosvg="https://github.com/thompson318/ndjsontosvg"
	xmlns:quickdraw="https://quickdraw.withgoogle.com/data"
	xmlns:scikit-surgery="https://doi.org/10.1007/s11548-020-02180-5">

	<rect width="100%" height="100%" fill="black" />
	<path d = "M 335.16 103.12 L 337.50 79.69 L 281.25 35.16 L 255.47 25.78 L 150.00 21.09 L 117.19 35.16 L 39.84 107.81 L 2.34 171.09 L 0.00 232.03 L 11.72 248.44 L 63.28 271.88 L 166.41 271.88 L 290.62 250.78 L 391.41 250.78 L 442.97 262.50 L 496.88 262.50 L 525.00 253.12 L 560.16 220.31 L 595.31 142.97 L 597.66 65.62 L 564.84 18.75 L 527.34 4.69 L 379.69 0.00 L 285.94 32.81 L 262.50 56.25" stroke="white" fill="transparent"/>
	<path d = "M 86.72 72.66 L 96.09 89.06 L 93.75 206.25 L 140.62 227.34 L 147.66 241.41 L 182.81 255.47" stroke="white" fill="transparent"/>
	<path d = "M 196.88 46.88 L 213.28 42.19 L 217.97 105.47 L 232.03 119.53 L 236.72 147.66 L 199.22 208.59 L 199.22 222.66 L 213.28 241.41 L 262.50 241.41 L 304.69 257.81" stroke="white" fill="transparent"/>
	<path d = "M 403.12 9.38 L 384.38 21.09 L 367.97 53.91 L 367.97 72.66 L 391.41 89.06 L 393.75 201.56 L 414.84 217.97 L 445.31 227.34 L 457.03 248.44" stroke="white" fill="transparent"/>
	<path d = "M 496.88 60.94 L 532.03 86.72 L 532.03 119.53 L 478.12 222.66 L 480.47 250.78 L 562.50 269.53" stroke="white" fill="transparent"/>
	<path d = "M 304.69 276.56 L 269.53 304.69 L 248.44 367.97 L 253.12 414.84 L 292.97 433.59 L 330.47 410.16 L 353.91 375.00 L 353.91 351.56 L 337.50 332.81 L 318.75 323.44 L 316.41 304.69 L 349.22 271.88" stroke="white" fill="transparent"/>
</svg>