<?xml version="1.0" encoding="UTF-8" standalone="no"?>
<!--Created with ndjsontosvg (https:https://github.com/thompson318/ndjsontosvg) 
	from the simplified Google quickdraw data set. key_id = 5731863878434816-->
<svg width="600" height="600"
	xmlns="http://www.w3.org/2000/svg">
	xmlns:ndjsontosvg="https://github.com/thompson318/ndjsontosvg"
	xmlns:quickdraw="https://quickdraw.withgoogle.com/data"
	xmlns:scikit-surgery="https://doi.org/10.1007/s11548-020-02180-5">

	<rect width="100%" height="100%" fill="black" />
	<path d = "M 473.44 178.12 L 412.50 194.53 L 138.28 199.22 L 49.22 180.47 L 4.69 150.00 L 0.00 117.19 L 11.72 86.72 L 37.50 65.62 L 103.12 35.16 L 398.44 0.00 L 564.84 9.38 L 583.59 23.44 L 597.66 46.88 L 595.31 82.03 L 571.88 131.25 L 482.81 173.44 L 421.88 180.47" stroke="white" fill="transparent"/>
	<path d = "M 103.12 56.25 L 119.53 56.25 L 154.69 72.66 L 189.84 112.50" stroke="white" fill="transparent"/>
	<path d = "M 182.81 63.28 L 201.56 60.94 L 257.81 77.34 L 309.38 119.53" stroke="white" fill="transparent"/>
	<path d = "M 288.28 51.56 L 346.88 56.25 L 375.00 70.31 L 403.12 100.78" stroke="white" fill="transparent"/>
	<path d = "M 391.41 28.12 L 414.84 25.78" stroke="white" fill="transparent"/>
</svg>