<?xml version="1.0" encoding="UTF-8" standalone="no"?>
<!--Created with ndjsontosvg (https:https://github.com/thompson318/ndjsontosvg) 
	from the simplified Google quickdraw data set. key_id = 5567770894794752-->
<svg width="600" height="600"
	xmlns="http://www.w3.org/2000/svg">
	xmlns:ndjsontosvg="https://github.com/thompson318/ndjsontosvg"
	xmlns:quickdraw="https://quickdraw.withgoogle.com/data"
	xmlns:scikit-surgery="https://doi.org/10.1007/s11548-020-02180-5">

	<rect width="100%" height="100%" fill="black" />
	<path d = "M 110.16 262.50 L 501.56 246.09" stroke="white" fill="transparent"/>
	<path d = "M 77.34 403.12 L 142.97 403.12 L 328.12 379.69 L 466.41 372.66 L 503.91 365.62" stroke="white" fill="transparent"/>
	<path d = "M 105.47 269.53 L 110.16 140.62 L 135.94 82.03 L 213.28 18.75 L 278.91 0.00 L 351.56 2.34 L 403.12 37.50 L 461.72 142.97 L 494.53 234.38" stroke="white" fill="transparent"/>
	<path d = "M 84.38 400.78 L 110.16 246.09 L 145.31 142.97 L 161.72 119.53 L 206.25 86.72 L 262.50 70.31 L 346.88 77.34 L 377.34 93.75 L 412.50 126.56 L 473.44 255.47 L 485.16 339.84" stroke="white" fill="transparent"/>
	<path d = "M 0.00 539.06 L 58.59 447.66 L 84.38 424.22 L 114.84 410.16 L 164.06 410.16 L 196.88 419.53 L 300.00 501.56 L 344.53 522.66 L 370.31 525.00 L 419.53 520.31 L 450.00 508.59 L 480.47 485.16 L 529.69 419.53" stroke="white" fill="transparent"/>
	<path d = "M 82.03 592.97 L 103.12 557.81 L 135.94 532.03 L 175.78 515.62 L 225.00 508.59 L 262.50 515.62 L 346.88 574.22 L 386.72 592.97 L 489.84 595.31 L 520.31 571.88 L 541.41 520.31" stroke="white" fill="transparent"/>
</svg>