<?xml version="1.0" encoding="UTF-8" standalone="no"?>
<!--Created with ndjsontosvg (https:https://github.com/thompson318/ndjsontosvg) 
	from the simplified Google quickdraw data set. key_id = 6579594792534016-->
<svg width="600" height="600"
	xmlns="http://www.w3.org/2000/svg">
	xmlns:ndjsontosvg="https://github.com/thompson318/ndjsontosvg"
	xmlns:quickdraw="https://quickdraw.withgoogle.com/data"
	xmlns:scikit-surgery="https://doi.org/10.1007/s11548-020-02180-5">

	<rect width="100%" height="100%" fill="black" />
	<path d = "M 0.00 311.72 L 16.41 171.09 L 49.22 37.50 L 100.78 7.03 L 178.12 0.00 L 243.75 2.34 L 332.81 23.44 L 424.22 53.91 L 457.03 75.00 L 506.25 135.94 L 543.75 201.56 L 597.66 328.12" stroke="white" fill="transparent"/>
	<path d = "M 86.72 314.06 L 98.44 222.66 L 112.50 175.78 L 164.06 133.59 L 292.97 173.44 L 358.59 220.31 L 445.31 309.38" stroke="white" fill="transparent"/>
	<path d = "M 28.12 241.41 L 32.81 168.75" stroke="white" fill="transparent"/>
	<path d = "M 56.25 147.66 L 86.72 114.84 L 103.12 112.50" stroke="white" fill="transparent"/>
	<path d = "M 168.75 110.16 L 246.09 126.56" stroke="white" fill="transparent"/>
	<path d = "M 360.94 161.72 L 440.62 208.59" stroke="white" fill="transparent"/>
</svg>