<?xml version="1.0" encoding="UTF-8" standalone="no"?>
<!--Created with ndjsontosvg (https:https://github.com/thompson318/ndjsontosvg) 
	from the simplified Google quickdraw data set. key_id = 5927599094104064-->
<svg width="600" height="600"
	xmlns="http://www.w3.org/2000/svg">
	xmlns:ndjsontosvg="https://github.com/thompson318/ndjsontosvg"
	xmlns:quickdraw="https://quickdraw.withgoogle.com/data"
	xmlns:scikit-surgery="https://doi.org/10.1007/s11548-020-02180-5">

	<rect width="100%" height="100%" fill="black" />
	<path d = "M 0.00 217.97 L 58.59 161.72 L 173.44 82.03 L 304.69 51.56 L 410.16 44.53 L 485.16 65.62 L 550.78 119.53 L 567.19 138.28 L 590.62 194.53 L 597.66 232.03" stroke="white" fill="transparent"/>
	<path d = "M 100.78 246.09 L 147.66 171.09 L 171.09 147.66 L 248.44 100.78 L 283.59 91.41 L 356.25 82.03 L 417.19 82.03 L 461.72 91.41 L 489.84 128.91 L 515.62 142.97 L 560.16 236.72" stroke="white" fill="transparent"/>
	<path d = "M 285.94 105.47 L 288.28 135.94 L 318.75 175.78 L 332.81 283.59 L 358.59 316.41 L 353.91 335.16" stroke="white" fill="transparent"/>
	<path d = "M 407.81 93.75 L 405.47 161.72 L 466.41 253.12 L 471.09 316.41" stroke="white" fill="transparent"/>
	<path d = "M 255.47 37.50 L 260.16 37.50 L 250.78 0.00" stroke="white" fill="transparent"/>
</svg>