<?xml version="1.0" encoding="UTF-8" standalone="no"?>
<!--Created with ndjsontosvg (https:https://github.com/thompson318/ndjsontosvg) 
	from the simplified Google quickdraw data set. key_id = 6401038758182912-->
<svg width="600" height="600"
	xmlns="http://www.w3.org/2000/svg">
	xmlns:ndjsontosvg="https://github.com/thompson318/ndjsontosvg"
	xmlns:quickdraw="https://quickdraw.withgoogle.com/data"
	xmlns:scikit-surgery="https://doi.org/10.1007/s11548-020-02180-5">

	<rect width="100%" height="100%" fill="black" />
	<path d = "M 225.00 527.34 L 222.66 494.53 L 246.09 389.06 L 243.75 307.03 L 222.66 302.34 L 89.06 351.56 L 77.34 342.19 L 70.31 325.78 L 60.94 267.19 L 67.97 213.28 L 107.81 159.38 L 133.59 135.94 L 168.75 119.53 L 206.25 126.56 L 213.28 145.31 L 189.84 178.12 L 164.06 199.22 L 124.22 208.59 L 82.03 187.50 L 72.66 166.41 L 75.00 140.62 L 114.84 86.72 L 185.16 53.91 L 262.50 53.91 L 304.69 70.31 L 309.38 91.41 L 281.25 124.22 L 227.34 171.09 L 171.09 203.91 L 121.88 232.03 L 79.69 243.75 L 21.09 246.09 L 4.69 243.75 L 0.00 234.38 L 70.31 187.50 L 210.94 124.22 L 262.50 114.84 L 311.72 121.88 L 316.41 159.38 L 288.28 203.91 L 164.06 346.88 L 117.19 382.03 L 96.09 382.03 L 72.66 370.31 L 49.22 344.53 L 39.84 302.34 L 51.56 262.50 L 70.31 227.34 L 128.91 178.12 L 168.75 180.47 L 208.59 201.56 L 217.97 239.06 L 206.25 283.59 L 161.72 365.62 L 147.66 375.00 L 124.22 372.66 L 98.44 360.94 L 82.03 339.84 L 70.31 309.38 L 91.41 260.16 L 133.59 206.25 L 182.81 159.38 L 232.03 128.91 L 288.28 114.84 L 311.72 128.91 L 316.41 164.06 L 297.66 199.22 L 208.59 264.84 L 166.41 278.91 L 131.25 281.25 L 82.03 250.78 L 70.31 220.31 L 75.00 189.84 L 142.97 105.47 L 225.00 28.12 L 297.66 0.00 L 337.50 16.41 L 351.56 65.62 L 335.16 100.78 L 288.28 161.72 L 255.47 189.84 L 241.41 189.84 L 246.09 154.69 L 271.88 124.22 L 335.16 77.34 L 384.38 60.94 L 400.78 63.28 L 412.50 75.00 L 426.56 103.12 L 412.50 164.06 L 377.34 206.25 L 330.47 225.00 L 300.00 203.91 L 283.59 152.34 L 290.62 121.88 L 358.59 70.31 L 438.28 51.56 L 487.50 67.97 L 501.56 89.06 L 508.59 117.19 L 471.09 178.12 L 407.81 222.66 L 375.00 229.69 L 342.19 225.00 L 307.03 194.53 L 297.66 168.75 L 300.00 147.66 L 314.06 128.91 L 344.53 110.16 L 391.41 100.78 L 433.59 103.12 L 473.44 112.50 L 510.94 159.38 L 508.59 215.62 L 489.84 236.72 L 457.03 257.81 L 417.19 262.50 L 377.34 260.16 L 316.41 241.41 L 281.25 222.66 L 290.62 213.28 L 421.88 210.94 L 466.41 229.69 L 473.44 246.09 L 464.06 264.84 L 389.06 307.03 L 297.66 323.44 L 260.16 321.09 L 234.38 316.41 L 208.59 292.97 L 208.59 271.88 L 220.31 248.44 L 250.78 222.66 L 290.62 199.22 L 351.56 185.16 L 370.31 194.53 L 393.75 222.66 L 396.09 243.75 L 379.69 262.50 L 344.53 281.25 L 307.03 288.28 L 248.44 278.91 L 222.66 257.81 L 225.00 239.06 L 260.16 222.66 L 346.88 213.28 L 384.38 220.31 L 414.84 239.06 L 414.84 283.59 L 349.22 307.03 L 300.00 292.97 L 278.91 271.88 L 278.91 255.47 L 300.00 236.72 L 375.00 206.25" stroke="white" fill="transparent"/>
	<path d = "M 300.00 367.97 L 278.91 525.00 L 295.31 581.25 L 314.06 597.66" stroke="white" fill="transparent"/>
</svg>