<?xml version="1.0" encoding="UTF-8" standalone="no"?>
<!--Created with ndjsontosvg (https:https://github.com/thompson318/ndjsontosvg) 
	from the simplified Google quickdraw data set. key_id = 5503763873792000-->
<svg width="600" height="600"
	xmlns="http://www.w3.org/2000/svg">
	xmlns:ndjsontosvg="https://github.com/thompson318/ndjsontosvg"
	xmlns:quickdraw="https://quickdraw.withgoogle.com/data"
	xmlns:scikit-surgery="https://doi.org/10.1007/s11548-020-02180-5">

	<rect width="100%" height="100%" fill="black" />
	<path d = "M 229.69 440.62 L 236.72 541.41 L 225.00 578.91 L 227.34 588.28 L 239.06 595.31 L 292.97 592.97 L 332.81 569.53 L 335.16 546.09 L 314.06 515.62 L 295.31 426.56 L 220.31 426.56 L 199.22 433.59" stroke="white" fill="transparent"/>
	<path d = "M 232.03 431.25 L 196.88 426.56 L 166.41 412.50 L 100.78 349.22 L 75.00 346.88 L 65.62 353.91 L 77.34 323.44 L 79.69 285.94 L 39.84 196.88 L 100.78 157.03 L 133.59 124.22 L 157.03 70.31 L 178.12 96.09 L 215.62 107.81 L 248.44 107.81 L 335.16 70.31 L 358.59 32.81 L 356.25 2.34 L 349.22 0.00 L 349.22 44.53 L 367.97 75.00 L 391.41 93.75 L 435.94 91.41 L 454.69 75.00 L 428.91 142.97 L 426.56 239.06 L 447.66 295.31 L 461.72 311.72 L 489.84 325.78 L 508.59 311.72 L 501.56 285.94 L 485.16 285.94 L 442.97 314.06 L 428.91 335.16 L 414.84 382.03 L 414.84 445.31 L 421.88 433.59 L 419.53 400.78 L 407.81 386.72 L 360.94 379.69 L 335.16 379.69 L 281.25 407.81 L 243.75 450.00 L 243.75 461.72 L 239.06 398.44 L 225.00 386.72 L 189.84 382.03 L 159.38 400.78 L 152.34 428.91 L 161.72 433.59" stroke="white" fill="transparent"/>
	<path d = "M 206.25 435.94 L 192.19 405.47 L 145.31 375.00 L 124.22 405.47 L 124.22 417.19 L 150.00 412.50 L 166.41 386.72 L 168.75 363.28 L 103.12 292.97 L 39.84 285.94 L 0.00 297.66 L 0.00 316.41 L 9.38 332.81 L 51.56 346.88 L 135.94 239.06 L 98.44 187.50 L 70.31 173.44 L 32.81 227.34 L 56.25 248.44 L 131.25 257.81 L 166.41 208.59 L 157.03 135.94 L 100.78 86.72" stroke="white" fill="transparent"/>
</svg>