<?xml version="1.0" encoding="UTF-8" standalone="no"?>
<!--Created with ndjsontosvg (https:https://github.com/thompson318/ndjsontosvg) 
	from the simplified Google quickdraw data set. key_id = 4939050546888704-->
<svg width="600" height="600"
	xmlns="http://www.w3.org/2000/svg">
	xmlns:ndjsontosvg="https://github.com/thompson318/ndjsontosvg"
	xmlns:quickdraw="https://quickdraw.withgoogle.com/data"
	xmlns:scikit-surgery="https://doi.org/10.1007/s11548-020-02180-5">

	<rect width="100%" height="100%" fill="black" />
	<path d = "M 248.44 285.94 L 248.44 503.91 L 260.16 571.88 L 267.19 590.62 L 281.25 597.66 L 325.78 597.66 L 316.41 525.00 L 316.41 433.59 L 325.78 349.22 L 344.53 309.38 L 358.59 302.34 L 414.84 304.69 L 435.94 307.03 L 473.44 328.12 L 494.53 316.41 L 494.53 304.69 L 482.81 290.62 L 417.19 262.50 L 358.59 253.12 L 358.59 241.41 L 389.06 217.97 L 428.91 199.22 L 431.25 187.50 L 349.22 159.38 L 325.78 164.06 L 314.06 173.44 L 302.34 239.06 L 292.97 248.44 L 201.56 192.19 L 166.41 185.16 L 243.75 262.50 L 255.47 297.66" stroke="white" fill="transparent"/>
	<path d = "M 217.97 264.84 L 178.12 283.59 L 168.75 260.16 L 180.47 253.12 L 173.44 264.84 L 147.66 283.59 L 138.28 269.53 L 157.03 241.41 L 103.12 267.19 L 70.31 269.53 L 60.94 260.16 L 75.00 241.41 L 121.88 225.00 L 157.03 180.47 L 210.94 157.03 L 236.72 154.69 L 246.09 166.41 L 248.44 201.56 L 241.41 229.69 L 210.94 260.16 L 161.72 271.88 L 154.69 246.09 L 173.44 217.97 L 135.94 229.69 L 135.94 208.59 L 189.84 159.38 L 213.28 145.31 L 260.16 135.94 L 243.75 150.00 L 199.22 157.03 L 131.25 154.69 L 100.78 140.62 L 82.03 107.81 L 82.03 82.03 L 110.16 51.56 L 194.53 0.00 L 199.22 21.09 L 159.38 70.31 L 117.19 107.81 L 110.16 96.09 L 140.62 77.34 L 145.31 98.44 L 138.28 110.16 L 84.38 150.00 L 171.09 145.31 L 196.88 159.38 L 201.56 196.88 L 175.78 243.75 L 147.66 264.84 L 117.19 274.22 L 105.47 262.50 L 100.78 192.19 L 86.72 168.75 L 49.22 168.75 L 0.00 187.50" stroke="white" fill="transparent"/>
	<path d = "M 386.72 180.47 L 386.72 161.72 L 466.41 56.25 L 513.28 25.78 L 536.72 28.12 L 546.09 60.94 L 541.41 133.59 L 515.62 175.78 L 473.44 213.28 L 400.78 253.12 L 339.84 262.50 L 318.75 243.75 L 314.06 194.53 L 330.47 147.66 L 375.00 72.66 L 426.56 30.47 L 450.00 23.44 L 445.31 42.19 L 410.16 70.31 L 370.31 91.41 L 367.97 70.31 L 389.06 42.19 L 445.31 9.38 L 492.19 9.38 L 510.94 32.81 L 513.28 70.31 L 480.47 135.94 L 414.84 192.19 L 382.03 206.25 L 360.94 206.25 L 375.00 175.78 L 424.22 135.94 L 454.69 128.91 L 452.34 154.69 L 410.16 201.56 L 363.28 232.03 L 375.00 208.59 L 419.53 168.75 L 475.78 140.62 L 487.50 140.62 L 473.44 154.69 L 414.84 178.12 L 360.94 185.16 L 424.22 182.81 L 466.41 199.22 L 496.88 232.03 L 517.97 276.56 L 525.00 304.69" stroke="white" fill="transparent"/>
</svg>