<?xml version="1.0" encoding="UTF-8" standalone="no"?>
<!--Created with ndjsontosvg (https:https://github.com/thompson318/ndjsontosvg) 
	from the simplified Google quickdraw data set. key_id = 5411744799260672-->
<svg width="600" height="600"
	xmlns="http://www.w3.org/2000/svg">
	xmlns:ndjsontosvg="https://github.com/thompson318/ndjsontosvg"
	xmlns:quickdraw="https://quickdraw.withgoogle.com/data"
	xmlns:scikit-surgery="https://doi.org/10.1007/s11548-020-02180-5">

	<rect width="100%" height="100%" fill="black" />
	<path d = "M 250.78 236.72 L 250.78 571.88" stroke="white" fill="transparent"/>
	<path d = "M 292.97 250.78 L 297.66 597.66 L 274.22 567.19 L 232.03 536.72" stroke="white" fill="transparent"/>
	<path d = "M 239.06 220.31 L 213.28 243.75 L 187.50 253.12 L 105.47 255.47 L 46.88 227.34 L 7.03 196.88 L 0.00 180.47 L 37.50 126.56 L 65.62 112.50 L 105.47 117.19 L 107.81 135.94 L 91.41 157.03 L 72.66 171.09 L 72.66 119.53 L 105.47 65.62 L 117.19 67.97 L 119.53 79.69 L 168.75 63.28 L 180.47 89.06 L 199.22 53.91 L 210.94 44.53 L 225.00 51.56 L 257.81 7.03 L 271.88 0.00 L 274.22 30.47 L 285.94 32.81 L 281.25 171.09 L 295.31 232.03" stroke="white" fill="transparent"/>
	<path d = "M 314.06 72.66 L 300.00 46.88 L 300.00 32.81 L 311.72 21.09 L 325.78 35.16 L 375.00 32.81 L 407.81 72.66 L 414.84 98.44 L 426.56 91.41 L 435.94 105.47 L 450.00 107.81 L 464.06 161.72 L 459.38 206.25 L 452.34 220.31 L 424.22 234.38 L 410.16 234.38 L 389.06 210.94 L 363.28 227.34 L 288.28 236.72 L 276.56 236.72 L 267.19 220.31" stroke="white" fill="transparent"/>
	<path d = "M 187.50 96.09 L 152.34 96.09 L 128.91 114.84 L 138.28 206.25 L 152.34 210.94 L 185.16 206.25 L 255.47 166.41" stroke="white" fill="transparent"/>
</svg>