<?xml version="1.0" encoding="UTF-8" standalone="no"?>
<!--Created with ndjsontosvg (https:https://github.com/thompson318/ndjsontosvg) 
	from the simplified Google quickdraw data set. key_id = 5496461032685568-->
<svg width="600" height="600"
	xmlns="http://www.w3.org/2000/svg">
	xmlns:ndjsontosvg="https://github.com/thompson318/ndjsontosvg"
	xmlns:quickdraw="https://quickdraw.withgoogle.com/data"
	xmlns:scikit-surgery="https://doi.org/10.1007/s11548-020-02180-5">

	<rect width="100%" height="100%" fill="black" />
	<path d = "M 133.59 297.66 L 196.88 400.78 L 217.97 496.88 L 222.66 588.28 L 304.69 597.66 L 318.75 553.12 L 314.06 302.34 L 323.44 283.59 L 339.84 271.88 L 367.97 234.38 L 389.06 159.38 L 375.00 131.25 L 351.56 112.50 L 339.84 112.50 L 335.16 98.44 L 344.53 32.81 L 328.12 23.44 L 281.25 21.09 L 199.22 30.47 L 135.94 4.69 L 100.78 0.00 L 86.72 7.03 L 79.69 39.84 L 82.03 121.88 L 103.12 206.25 L 63.28 173.44 L 37.50 175.78 L 21.09 189.84 L 2.34 239.06 L 4.69 304.69 L 14.06 335.16 L 35.16 349.22 L 121.88 342.19 L 159.38 314.06" stroke="white" fill="transparent"/>
</svg>