<?xml version="1.0" encoding="UTF-8" standalone="no"?>
<!--Created with ndjsontosvg (https:https://github.com/thompson318/ndjsontosvg) 
	from the simplified Google quickdraw data set. key_id = 4834508543098880-->
<svg width="600" height="600"
	xmlns="http://www.w3.org/2000/svg">
	xmlns:ndjsontosvg="https://github.com/thompson318/ndjsontosvg"
	xmlns:quickdraw="https://quickdraw.withgoogle.com/data"
	xmlns:scikit-surgery="https://doi.org/10.1007/s11548-020-02180-5">

	<rect width="100%" height="100%" fill="black" />
	<path d = "M 131.25 281.25 L 75.00 281.25 L 30.47 262.50 L 14.06 248.44 L 0.00 213.28 L 7.03 194.53 L 30.47 178.12 L 75.00 161.72 L 103.12 159.38 L 89.06 135.94 L 89.06 119.53 L 98.44 84.38 L 121.88 56.25 L 152.34 49.22 L 189.84 65.62 L 234.38 14.06 L 276.56 0.00 L 300.00 9.38 L 304.69 35.16 L 302.34 46.88 L 351.56 35.16 L 377.34 44.53 L 403.12 67.97 L 426.56 119.53 L 440.62 100.78 L 478.12 82.03 L 508.59 79.69 L 520.31 89.06 L 527.34 107.81 L 515.62 138.28 L 489.84 168.75 L 431.25 199.22 L 447.66 189.84 L 480.47 185.16 L 492.19 199.22 L 478.12 217.97 L 428.91 262.50 L 384.38 288.28 L 396.09 283.59 L 358.59 330.47 L 321.09 353.91 L 257.81 358.59 L 262.50 344.53 L 288.28 335.16 L 274.22 356.25 L 232.03 365.62 L 208.59 356.25 L 194.53 342.19 L 196.88 330.47 L 210.94 323.44 L 173.44 335.16 L 114.84 323.44 L 100.78 311.72 L 98.44 300.00 L 117.19 262.50" stroke="white" fill="transparent"/>
	<path d = "M 208.59 375.00 L 215.62 597.66" stroke="white" fill="transparent"/>
	<path d = "M 255.47 370.31 L 260.16 433.59" stroke="white" fill="transparent"/>
</svg>