<?xml version="1.0" encoding="UTF-8" standalone="no"?>
<!--Created with ndjsontosvg (https:https://github.com/thompson318/ndjsontosvg) 
	from the simplified Google quickdraw data set. key_id = 6562959717302272-->
<svg width="600" height="600"
	xmlns="http://www.w3.org/2000/svg">
	xmlns:ndjsontosvg="https://github.com/thompson318/ndjsontosvg"
	xmlns:quickdraw="https://quickdraw.withgoogle.com/data"
	xmlns:scikit-surgery="https://doi.org/10.1007/s11548-020-02180-5">

	<rect width="100%" height="100%" fill="black" />
	<path d = "M 67.97 367.97 L 70.31 292.97 L 86.72 180.47 L 128.91 25.78 L 150.00 0.00 L 157.03 30.47 L 157.03 110.16 L 142.97 199.22 L 117.19 290.62 L 105.47 372.66 L 93.75 379.69 L 70.31 372.66 L 67.97 382.03 L 75.00 389.06 L 93.75 389.06 L 58.59 396.09 L 23.44 447.66 L 0.00 555.47 L 0.00 564.84 L 9.38 546.09 L 21.09 557.81 L 30.47 592.97 L 37.50 583.59 L 49.22 592.97 L 75.00 574.22 L 84.38 588.28 L 93.75 581.25 L 121.88 597.66 L 121.88 534.38 L 110.16 421.88 L 100.78 398.44" stroke="white" fill="transparent"/>
</svg>