<?xml version="1.0" encoding="UTF-8" standalone="no"?>
<!--Created with ndjsontosvg (https:https://github.com/thompson318/ndjsontosvg) 
	from the simplified Google quickdraw data set. key_id = 6170156013191168-->
<svg width="600" height="600"
	xmlns="http://www.w3.org/2000/svg">
	xmlns:ndjsontosvg="https://github.com/thompson318/ndjsontosvg"
	xmlns:quickdraw="https://quickdraw.withgoogle.com/data"
	xmlns:scikit-surgery="https://doi.org/10.1007/s11548-020-02180-5">

	<rect width="100%" height="100%" fill="black" />
	<path d = "M 44.53 403.12 L 32.81 419.53 L 39.84 428.91 L 91.41 433.59 L 180.47 431.25 L 187.50 421.88 L 182.81 414.84 L 114.84 386.72 L 79.69 384.38 L 56.25 407.81" stroke="white" fill="transparent"/>
	<path d = "M 79.69 391.41 L 79.69 0.00" stroke="white" fill="transparent"/>
	<path d = "M 51.56 428.91 L 39.84 461.72 L 0.00 536.72 L 91.41 405.47 L 96.09 595.31 L 89.06 595.31 L 39.84 513.28 L 21.09 447.66 L 46.88 522.66 L 44.53 567.19 L 70.31 473.44 L 79.69 583.59 L 93.75 478.12 L 142.97 597.66 L 124.22 487.50 L 171.09 569.53 L 171.09 555.47 L 117.19 412.50 L 159.38 461.72" stroke="white" fill="transparent"/>
</svg>