<?xml version="1.0" encoding="UTF-8" standalone="no"?>
<!--Created with ndjsontosvg (https:https://github.com/thompson318/ndjsontosvg) 
	from the simplified Google quickdraw data set. key_id = 5702713096536064-->
<svg width="600" height="600"
	xmlns="http://www.w3.org/2000/svg">
	xmlns:ndjsontosvg="https://github.com/thompson318/ndjsontosvg"
	xmlns:quickdraw="https://quickdraw.withgoogle.com/data"
	xmlns:scikit-surgery="https://doi.org/10.1007/s11548-020-02180-5">

	<rect width="100%" height="100%" fill="black" />
	<path d = "M 0.00 0.00 L 72.66 140.62 L 182.81 393.75 L 236.72 546.09" stroke="white" fill="transparent"/>
	<path d = "M 189.84 405.47 L 201.56 489.84" stroke="white" fill="transparent"/>
	<path d = "M 178.12 391.41 L 194.53 496.88 L 185.16 588.28" stroke="white" fill="transparent"/>
	<path d = "M 175.78 393.75 L 178.12 520.31 L 171.09 567.19" stroke="white" fill="transparent"/>
	<path d = "M 178.12 428.91 L 173.44 510.94 L 154.69 571.88" stroke="white" fill="transparent"/>
	<path d = "M 168.75 396.09 L 171.09 560.16" stroke="white" fill="transparent"/>
	<path d = "M 171.09 396.09 L 213.28 464.06 L 253.12 567.19 L 255.47 597.66" stroke="white" fill="transparent"/>
	<path d = "M 182.81 417.19 L 264.84 546.09" stroke="white" fill="transparent"/>
	<path d = "M 168.75 370.31 L 281.25 508.59" stroke="white" fill="transparent"/>
	<path d = "M 196.88 417.19 L 250.78 466.41 L 297.66 525.00" stroke="white" fill="transparent"/>
	<path d = "M 180.47 393.75 L 250.78 461.72 L 288.28 513.28" stroke="white" fill="transparent"/>
	<path d = "M 185.16 403.12 L 253.12 543.75" stroke="white" fill="transparent"/>
	<path d = "M 168.75 400.78 L 208.59 508.59 L 210.94 560.16" stroke="white" fill="transparent"/>
	<path d = "M 178.12 410.16 L 185.16 510.94 L 182.81 557.81" stroke="white" fill="transparent"/>
	<path d = "M 171.09 419.53 L 154.69 522.66" stroke="white" fill="transparent"/>
	<path d = "M 164.06 398.44 L 164.06 428.91 L 140.62 522.66" stroke="white" fill="transparent"/>
</svg>