<?xml version="1.0" encoding="UTF-8" standalone="no"?>
<!--Created with ndjsontosvg (https:https://github.com/thompson318/ndjsontosvg) 
	from the simplified Google quickdraw data set. key_id = 5895485304864768-->
<svg width="600" height="600"
	xmlns="http://www.w3.org/2000/svg">
	xmlns:ndjsontosvg="https://github.com/thompson318/ndjsontosvg"
	xmlns:quickdraw="https://quickdraw.withgoogle.com/data"
	xmlns:scikit-surgery="https://doi.org/10.1007/s11548-020-02180-5">

	<rect width="100%" height="100%" fill="black" />
	<path d = "M 75.00 372.66 L 63.28 328.12 L 60.94 194.53 L 70.31 2.34 L 82.03 11.72 L 89.06 79.69 L 79.69 255.47 L 91.41 382.03 L 37.50 405.47 L 14.06 445.31 L 0.00 496.88 L 4.69 567.19 L 161.72 583.59 L 173.44 576.56 L 168.75 464.06 L 150.00 417.19 L 112.50 393.75 L 84.38 391.41 L 65.62 398.44" stroke="white" fill="transparent"/>
	<path d = "M 35.16 487.50 L 37.50 583.59" stroke="white" fill="transparent"/>
	<path d = "M 37.50 567.19 L 51.56 496.88" stroke="white" fill="transparent"/>
	<path d = "M 63.28 487.50 L 58.59 527.34 L 63.28 574.22" stroke="white" fill="transparent"/>
	<path d = "M 91.41 473.44 L 91.41 564.84" stroke="white" fill="transparent"/>
	<path d = "M 124.22 466.41 L 124.22 562.50" stroke="white" fill="transparent"/>
	<path d = "M 152.34 473.44 L 157.03 597.66" stroke="white" fill="transparent"/>
	<path d = "M 23.44 466.41 L 18.75 555.47" stroke="white" fill="transparent"/>
	<path d = "M 79.69 450.00 L 84.38 567.19" stroke="white" fill="transparent"/>
</svg>