<?xml version="1.0" encoding="UTF-8" standalone="no"?>
<!--Created with ndjsontosvg (https:https://github.com/thompson318/ndjsontosvg) 
	from the simplified Google quickdraw data set. key_id = 5677607402078208-->
<svg width="600" height="600"
	xmlns="http://www.w3.org/2000/svg">
	xmlns:ndjsontosvg="https://github.com/thompson318/ndjsontosvg"
	xmlns:quickdraw="https://quickdraw.withgoogle.com/data"
	xmlns:scikit-surgery="https://doi.org/10.1007/s11548-020-02180-5">

	<rect width="100%" height="100%" fill="black" />
	<path d = "M 65.62 349.22 L 86.72 379.69 L 128.91 393.75 L 175.78 396.09 L 215.62 382.03 L 257.81 351.56 L 269.53 323.44 L 269.53 297.66 L 257.81 267.19 L 215.62 236.72 L 178.12 220.31 L 79.69 215.62 L 23.44 246.09 L 14.06 269.53 L 14.06 297.66 L 60.94 372.66 L 51.56 438.28 L 51.56 581.25 L 91.41 597.66 L 267.19 585.94 L 285.94 534.38 L 285.94 339.84 L 276.56 292.97" stroke="white" fill="transparent"/>
	<path d = "M 262.50 285.94 L 262.50 187.50 L 234.38 77.34 L 187.50 21.09 L 140.62 2.34 L 84.38 0.00 L 21.09 21.09 L 0.00 70.31 L 0.00 147.66 L 25.78 234.38 L 35.16 304.69" stroke="white" fill="transparent"/>
</svg>