<?xml version="1.0" encoding="UTF-8" standalone="no"?>
<!--Created with ndjsontosvg (https:https://github.com/thompson318/ndjsontosvg) 
	from the simplified Google quickdraw data set. key_id = 6256742641958912-->
<svg width="600" height="600"
	xmlns="http://www.w3.org/2000/svg">
	xmlns:ndjsontosvg="https://github.com/thompson318/ndjsontosvg"
	xmlns:quickdraw="https://quickdraw.withgoogle.com/data"
	xmlns:scikit-surgery="https://doi.org/10.1007/s11548-020-02180-5">

	<rect width="100%" height="100%" fill="black" />
	<path d = "M 0.00 248.44 L 89.06 302.34 L 147.66 309.38 L 173.44 292.97 L 185.16 274.22 L 187.50 234.38 L 126.56 201.56 L 105.47 196.88 L 42.19 201.56 L 23.44 213.28 L 14.06 234.38 L 7.03 311.72 L 7.03 428.91 L 23.44 550.78 L 37.50 576.56 L 63.28 597.66 L 96.09 595.31 L 133.59 553.12 L 173.44 475.78 L 192.19 410.16 L 187.50 98.44 L 173.44 58.59 L 138.28 7.03 L 100.78 0.00 L 84.38 9.38 L 63.28 46.88 L 37.50 124.22 L 32.81 206.25" stroke="white" fill="transparent"/>
</svg>