<?xml version="1.0" encoding="UTF-8" standalone="no"?>
<!--Created with ndjsontosvg (https:https://github.com/thompson318/ndjsontosvg) 
	from the simplified Google quickdraw data set. key_id = 4877513429876736-->
<svg width="600" height="600"
	xmlns="http://www.w3.org/2000/svg">
	xmlns:ndjsontosvg="https://github.com/thompson318/ndjsontosvg"
	xmlns:quickdraw="https://quickdraw.withgoogle.com/data"
	xmlns:scikit-surgery="https://doi.org/10.1007/s11548-020-02180-5">

	<rect width="100%" height="100%" fill="black" />
	<path d = "M 93.75 239.06 L 56.25 274.22 L 14.06 349.22 L 0.00 398.44 L 7.03 485.16 L 44.53 546.09 L 79.69 567.19 L 121.88 578.91 L 236.72 595.31 L 405.47 595.31 L 489.84 576.56 L 534.38 555.47 L 557.81 496.88 L 562.50 393.75 L 550.78 321.09 L 536.72 292.97 L 510.94 271.88" stroke="white" fill="transparent"/>
	<path d = "M 107.81 239.06 L 124.22 229.69 L 405.47 232.03 L 485.16 257.81 L 496.88 307.03 L 473.44 323.44 L 417.19 323.44 L 356.25 311.72 L 185.16 257.81 L 96.09 255.47" stroke="white" fill="transparent"/>
	<path d = "M 72.66 250.78 L 65.62 232.03 L 67.97 175.78 L 93.75 114.84 L 124.22 77.34 L 178.12 42.19 L 248.44 11.72 L 363.28 0.00 L 445.31 32.81 L 475.78 58.59 L 503.91 98.44 L 527.34 199.22 L 503.91 262.50" stroke="white" fill="transparent"/>
</svg>