<?xml version="1.0" encoding="UTF-8" standalone="no"?>
<!--Created with ndjsontosvg (https:https://github.com/thompson318/ndjsontosvg) 
	from the simplified Google quickdraw data set. key_id = 6442488032133120-->
<svg width="600" height="600"
	xmlns="http://www.w3.org/2000/svg">
	xmlns:ndjsontosvg="https://github.com/thompson318/ndjsontosvg"
	xmlns:quickdraw="https://quickdraw.withgoogle.com/data"
	xmlns:scikit-surgery="https://doi.org/10.1007/s11548-020-02180-5">

	<rect width="100%" height="100%" fill="black" />
	<path d = "M 196.88 182.81 L 142.97 182.81 L 67.97 246.09 L 44.53 292.97 L 44.53 325.78 L 63.28 342.19 L 117.19 353.91 L 271.88 353.91 L 307.03 342.19 L 351.56 314.06 L 372.66 288.28 L 389.06 232.03 L 391.41 213.28 L 379.69 196.88 L 344.53 187.50 L 260.16 187.50 L 194.53 206.25" stroke="white" fill="transparent"/>
	<path d = "M 23.44 309.38 L 28.12 440.62 L 46.88 510.94 L 89.06 583.59 L 112.50 597.66 L 232.03 597.66 L 309.38 588.28 L 339.84 567.19 L 363.28 534.38 L 365.62 285.94 L 384.38 274.22" stroke="white" fill="transparent"/>
	<path d = "M 9.38 302.34 L 0.00 274.22 L 0.00 187.50 L 30.47 124.22 L 98.44 51.56 L 133.59 25.78 L 199.22 4.69 L 304.69 0.00 L 323.44 4.69 L 342.19 21.09 L 372.66 60.94 L 393.75 114.84 L 398.44 199.22" stroke="white" fill="transparent"/>
</svg>