<?xml version="1.0" encoding="UTF-8" standalone="no"?>
<!--Created with ndjsontosvg (https:https://github.com/thompson318/ndjsontosvg) 
	from the simplified Google quickdraw data set. key_id = 5013500067840000-->
<svg width="600" height="600"
	xmlns="http://www.w3.org/2000/svg">
	xmlns:ndjsontosvg="https://github.com/thompson318/ndjsontosvg"
	xmlns:quickdraw="https://quickdraw.withgoogle.com/data"
	xmlns:scikit-surgery="https://doi.org/10.1007/s11548-020-02180-5">

	<rect width="100%" height="100%" fill="black" />
	<path d = "M 103.12 253.12 L 112.50 262.50 L 288.28 297.66 L 375.00 295.31 L 353.91 351.56 L 295.31 454.69 L 264.84 461.72 L 150.00 464.06 L 0.00 435.94 L 96.09 283.59" stroke="white" fill="transparent"/>
	<path d = "M 121.88 253.12 L 199.22 203.91" stroke="white" fill="transparent"/>
	<path d = "M 351.56 285.94 L 370.31 283.59 L 426.56 232.03" stroke="white" fill="transparent"/>
	<path d = "M 220.31 187.50 L 239.06 84.38 L 253.12 46.88 L 274.22 21.09 L 335.16 0.00 L 424.22 16.41 L 454.69 35.16 L 482.81 70.31 L 485.16 164.06 L 494.53 196.88 L 454.69 213.28 L 375.00 225.00 L 297.66 213.28 L 229.69 189.84" stroke="white" fill="transparent"/>
	<path d = "M 489.84 199.22 L 487.50 225.00 L 496.88 243.75 L 583.59 349.22 L 597.66 375.00 L 567.19 398.44 L 494.53 424.22 L 457.03 431.25 L 414.84 426.56 L 414.84 407.81 L 433.59 367.97 L 442.97 356.25 L 473.44 349.22 L 501.56 363.28 L 527.34 386.72 L 543.75 457.03 L 534.38 412.50 L 534.38 318.75 L 525.00 309.38 L 494.53 321.09 L 452.34 358.59 L 414.84 419.53 L 407.81 459.38 L 424.22 475.78 L 447.66 473.44 L 475.78 457.03 L 520.31 384.38 L 517.97 358.59 L 499.22 337.50 L 473.44 335.16 L 447.66 346.88 L 421.88 386.72 L 424.22 410.16 L 445.31 433.59 L 478.12 445.31 L 517.97 438.28 L 543.75 405.47 L 534.38 365.62 L 517.97 344.53 L 485.16 328.12 L 447.66 332.81 L 419.53 358.59 L 410.16 379.69 L 414.84 410.16 L 431.25 433.59 L 450.00 442.97 L 489.84 442.97 L 513.28 428.91 L 527.34 410.16 L 527.34 379.69 L 515.62 356.25 L 499.22 339.84 L 468.75 332.81 L 440.62 342.19 L 414.84 377.34 L 410.16 405.47 L 421.88 431.25" stroke="white" fill="transparent"/>
	<path d = "M 410.16 412.50 L 330.47 412.50" stroke="white" fill="transparent"/>
</svg>