<?xml version="1.0" encoding="UTF-8" standalone="no"?>
<!--Created with ndjsontosvg (https:https://github.com/thompson318/ndjsontosvg) 
	from the simplified Google quickdraw data set. key_id = 5775976015331328-->
<svg width="600" height="600"
	xmlns="http://www.w3.org/2000/svg">
	xmlns:ndjsontosvg="https://github.com/thompson318/ndjsontosvg"
	xmlns:quickdraw="https://quickdraw.withgoogle.com/data"
	xmlns:scikit-surgery="https://doi.org/10.1007/s11548-020-02180-5">

	<rect width="100%" height="100%" fill="black" />
	<path d = "M 51.56 135.94 L 75.00 133.59 L 110.16 152.34 L 126.56 178.12 L 126.56 217.97 L 86.72 278.91 L 0.00 349.22 L 42.19 344.53 L 72.66 325.78 L 107.81 274.22 L 121.88 232.03 L 126.56 192.19 L 114.84 171.09 L 77.34 138.28 L 46.88 131.25" stroke="white" fill="transparent"/>
	<path d = "M 131.25 185.16 L 168.75 182.81" stroke="white" fill="transparent"/>
	<path d = "M 140.62 180.47 L 175.78 164.06 L 196.88 135.94 L 208.59 60.94 L 206.25 21.09 L 274.22 21.09 L 403.12 0.00 L 431.25 203.91 L 445.31 255.47 L 454.69 267.19" stroke="white" fill="transparent"/>
	<path d = "M 447.66 257.81 L 597.66 196.88 L 581.25 213.28 L 550.78 302.34 L 525.00 323.44 L 487.50 335.16 L 372.66 339.84 L 166.41 328.12 L 147.66 311.72 L 145.31 234.38 L 152.34 203.91" stroke="white" fill="transparent"/>
	<path d = "M 128.91 328.12 L 133.59 307.03 L 152.34 281.25 L 196.88 267.19 L 213.28 269.53 L 229.69 288.28 L 234.38 328.12 L 217.97 353.91 L 194.53 367.97 L 140.62 379.69 L 119.53 363.28 L 112.50 342.19 L 112.50 323.44 L 131.25 309.38" stroke="white" fill="transparent"/>
	<path d = "M 471.09 349.22 L 461.72 342.19 L 461.72 323.44 L 471.09 300.00 L 494.53 278.91 L 522.66 274.22 L 546.09 292.97 L 560.16 323.44 L 560.16 360.94 L 543.75 382.03 L 496.88 396.09 L 457.03 393.75 L 433.59 370.31 L 431.25 339.84" stroke="white" fill="transparent"/>
	<path d = "M 72.66 145.31 L 103.12 161.72 L 117.19 175.78 L 119.53 227.34 L 98.44 269.53 L 58.59 314.06 L 35.16 332.81 L 9.38 335.16" stroke="white" fill="transparent"/>
</svg>