<?xml version="1.0" encoding="UTF-8" standalone="no"?>
<!--Created with ndjsontosvg (https:https://github.com/thompson318/ndjsontosvg) 
	from the simplified Google quickdraw data set. key_id = 6264087614849024-->
<svg width="600" height="600"
	xmlns="http://www.w3.org/2000/svg">
	xmlns:ndjsontosvg="https://github.com/thompson318/ndjsontosvg"
	xmlns:quickdraw="https://quickdraw.withgoogle.com/data"
	xmlns:scikit-surgery="https://doi.org/10.1007/s11548-020-02180-5">

	<rect width="100%" height="100%" fill="black" />
	<path d = "M 475.78 152.34 L 349.22 189.84 L 250.78 210.94 L 257.81 302.34 L 292.97 377.34 L 379.69 431.25 L 438.28 428.91" stroke="white" fill="transparent"/>
	<path d = "M 459.38 135.94 L 461.72 203.91 L 489.84 274.22 L 536.72 316.41 L 597.66 323.44" stroke="white" fill="transparent"/>
	<path d = "M 581.25 328.12 L 457.03 353.91 L 342.19 398.44 L 285.94 407.81" stroke="white" fill="transparent"/>
	<path d = "M 396.09 159.38 L 398.44 140.62 L 372.66 46.88 L 328.12 0.00 L 49.22 7.03 L 11.72 14.06 L 21.09 260.16 L 0.00 349.22 L 187.50 386.72 L 264.84 389.06" stroke="white" fill="transparent"/>
	<path d = "M 372.66 138.28 L 384.38 140.62 L 377.34 147.66 L 325.78 171.09 L 185.16 187.50 L 180.47 196.88 L 213.28 255.47 L 225.00 342.19" stroke="white" fill="transparent"/>
</svg>