<?xml version="1.0" encoding="UTF-8" standalone="no"?>
<!--Created with ndjsontosvg (https:https://github.com/thompson318/ndjsontosvg) 
	from the simplified Google quickdraw data set. key_id = 5819784543338496-->
<svg width="600" height="600"
	xmlns="http://www.w3.org/2000/svg">
	xmlns:ndjsontosvg="https://github.com/thompson318/ndjsontosvg"
	xmlns:quickdraw="https://quickdraw.withgoogle.com/data"
	xmlns:scikit-surgery="https://doi.org/10.1007/s11548-020-02180-5">

	<rect width="100%" height="100%" fill="black" />
	<path d = "M 187.50 4.69 L 529.69 0.00" stroke="white" fill="transparent"/>
	<path d = "M 171.09 11.72 L 178.12 82.03 L 112.50 91.41 L 56.25 112.50 L 53.91 227.34 L 421.88 248.44 L 597.66 239.06" stroke="white" fill="transparent"/>
	<path d = "M 536.72 4.69 L 534.38 250.78" stroke="white" fill="transparent"/>
	<path d = "M 255.47 16.41 L 255.47 65.62 L 189.84 58.59" stroke="white" fill="transparent"/>
	<path d = "M 56.25 138.28 L 285.94 128.91 L 529.69 138.28" stroke="white" fill="transparent"/>
	<path d = "M 67.97 140.62 L 150.00 154.69 L 304.69 161.72 L 431.25 161.72 L 534.38 147.66 L 539.06 152.34" stroke="white" fill="transparent"/>
	<path d = "M 553.12 234.38 L 525.00 225.00 L 478.12 222.66 L 454.69 253.12 L 457.03 276.56 L 466.41 281.25 L 522.66 278.91 L 557.81 246.09 L 546.09 217.97 L 510.94 208.59" stroke="white" fill="transparent"/>
	<path d = "M 77.34 220.31 L 25.78 217.97 L 0.00 241.41 L 16.41 285.94 L 100.78 285.94 L 117.19 278.91 L 145.31 255.47 L 145.31 241.41 L 138.28 227.34 L 98.44 199.22 L 82.03 194.53" stroke="white" fill="transparent"/>
	<path d = "M 185.16 225.00 L 185.16 248.44 L 173.44 278.91 L 126.56 288.28" stroke="white" fill="transparent"/>
	<path d = "M 417.19 241.41 L 424.22 271.88 L 438.28 295.31 L 475.78 288.28" stroke="white" fill="transparent"/>
	<path d = "M 281.25 35.16 L 283.59 185.16" stroke="white" fill="transparent"/>
	<path d = "M 281.25 39.84 L 382.03 32.81 L 384.38 140.62 L 398.44 203.91 L 290.62 178.12" stroke="white" fill="transparent"/>
	<path d = "M 328.12 32.81 L 332.81 180.47" stroke="white" fill="transparent"/>
</svg>