<?xml version="1.0" encoding="UTF-8" standalone="no"?>
<!--Created with ndjsontosvg (https:https://github.com/thompson318/ndjsontosvg) 
	from the simplified Google quickdraw data set. key_id = 6664349798105088-->
<svg width="600" height="600"
	xmlns="http://www.w3.org/2000/svg">
	xmlns:ndjsontosvg="https://github.com/thompson318/ndjsontosvg"
	xmlns:quickdraw="https://quickdraw.withgoogle.com/data"
	xmlns:scikit-surgery="https://doi.org/10.1007/s11548-020-02180-5">

	<rect width="100%" height="100%" fill="black" />
	<path d = "M 110.16 133.59 L 70.31 168.75 L 58.59 189.84 L 58.59 206.25 L 77.34 215.62 L 96.09 215.62 L 103.12 208.59 L 112.50 140.62" stroke="white" fill="transparent"/>
	<path d = "M 100.78 175.78 L 161.72 187.50 L 384.38 206.25 L 492.19 206.25" stroke="white" fill="transparent"/>
	<path d = "M 527.34 185.16 L 494.53 201.56 L 492.19 220.31 L 515.62 239.06 L 534.38 241.41 L 541.41 236.72 L 546.09 213.28 L 543.75 189.84 L 536.72 180.47" stroke="white" fill="transparent"/>
	<path d = "M 548.44 210.94 L 571.88 201.56 L 578.91 187.50 L 595.31 42.19 L 370.31 2.34 L 86.72 0.00 L 67.97 7.03 L 39.84 44.53 L 0.00 124.22 L 7.03 135.94 L 32.81 150.00 L 86.72 159.38" stroke="white" fill="transparent"/>
</svg>