<?xml version="1.0" encoding="UTF-8" standalone="no"?>
<!--Created with ndjsontosvg (https:https://github.com/thompson318/ndjsontosvg) 
	from the simplified Google quickdraw data set. key_id = 5671167249612800-->
<svg width="600" height="600"
	xmlns="http://www.w3.org/2000/svg">
	xmlns:ndjsontosvg="https://github.com/thompson318/ndjsontosvg"
	xmlns:quickdraw="https://quickdraw.withgoogle.com/data"
	xmlns:scikit-surgery="https://doi.org/10.1007/s11548-020-02180-5">

	<rect width="100%" height="100%" fill="black" />
	<path d = "M 11.72 410.16 L 4.69 396.09 L 0.00 253.12 L 7.03 241.41 L 23.44 232.03 L 89.06 232.03 L 110.16 253.12 L 112.50 271.88 L 98.44 283.59 L 75.00 283.59 L 65.62 276.56 L 56.25 201.56 L 79.69 142.97 L 117.19 91.41 L 175.78 37.50 L 194.53 28.12 L 229.69 25.78 L 248.44 60.94 L 248.44 98.44 L 255.47 70.31 L 295.31 28.12 L 342.19 2.34 L 363.28 0.00 L 391.41 2.34 L 400.78 16.41 L 400.78 49.22 L 372.66 93.75 L 503.91 91.41 L 522.66 98.44 L 532.03 159.38 L 513.28 222.66 L 585.94 234.38 L 597.66 248.44 L 597.66 283.59 L 557.81 337.50 L 515.62 365.62 L 457.03 386.72" stroke="white" fill="transparent"/>
	<path d = "M 147.66 363.28 L 128.91 342.19 L 84.38 232.03" stroke="white" fill="transparent"/>
	<path d = "M 208.59 311.72 L 194.53 292.97 L 159.38 105.47" stroke="white" fill="transparent"/>
	<path d = "M 250.78 196.88 L 255.47 150.00" stroke="white" fill="transparent"/>
	<path d = "M 255.47 213.28 L 316.41 168.75 L 344.53 159.38" stroke="white" fill="transparent"/>
	<path d = "M 241.41 159.38 L 180.47 147.66 L 142.97 119.53" stroke="white" fill="transparent"/>
	<path d = "M 173.44 182.81 L 152.34 182.81 L 142.97 175.78" stroke="white" fill="transparent"/>
	<path d = "M 386.72 269.53 L 407.81 220.31" stroke="white" fill="transparent"/>
</svg>