<?xml version="1.0" encoding="UTF-8" standalone="no"?>
<!--Created with ndjsontosvg (https:https://github.com/thompson318/ndjsontosvg) 
	from the simplified Google quickdraw data set. key_id = 5257383943077888-->
<svg width="600" height="600"
	xmlns="http://www.w3.org/2000/svg">
	xmlns:ndjsontosvg="https://github.com/thompson318/ndjsontosvg"
	xmlns:quickdraw="https://quickdraw.withgoogle.com/data"
	xmlns:scikit-surgery="https://doi.org/10.1007/s11548-020-02180-5">

	<rect width="100%" height="100%" fill="black" />
	<path d = "M 220.31 145.31 L 171.09 150.00 L 154.69 173.44 L 159.38 187.50 L 189.84 213.28 L 222.66 220.31" stroke="white" fill="transparent"/>
	<path d = "M 217.97 142.97 L 192.19 103.12 L 208.59 67.97 L 220.31 58.59 L 234.38 56.25 L 234.38 77.34 L 227.34 82.03 L 222.66 70.31 L 236.72 44.53 L 274.22 32.81 L 285.94 35.16 L 297.66 53.91 L 292.97 44.53 L 297.66 25.78 L 316.41 9.38 L 330.47 7.03 L 363.28 21.09 L 363.28 39.84 L 356.25 39.84 L 367.97 18.75 L 403.12 0.00 L 419.53 4.69 L 445.31 28.12 L 447.66 46.88 L 438.28 56.25 L 442.97 39.84 L 473.44 37.50 L 499.22 65.62 L 494.53 84.38 L 492.19 77.34 L 510.94 70.31 L 550.78 79.69 L 562.50 98.44 L 541.41 105.47 L 555.47 98.44 L 574.22 103.12 L 590.62 114.84 L 597.66 133.59 L 576.56 152.34 L 550.78 150.00 L 569.53 154.69 L 581.25 171.09 L 529.69 173.44 L 527.34 196.88 L 508.59 208.59 L 471.09 215.62 L 440.62 206.25 L 459.38 213.28 L 450.00 220.31 L 379.69 234.38 L 199.22 255.47" stroke="white" fill="transparent"/>
	<path d = "M 98.44 164.06 L 39.84 171.09 L 18.75 182.81 L 21.09 194.53 L 32.81 194.53 L 4.69 213.28 L 0.00 227.34 L 4.69 243.75 L 28.12 248.44 L 51.56 236.72" stroke="white" fill="transparent"/>
	<path d = "M 96.09 145.31 L 28.12 107.81" stroke="white" fill="transparent"/>
</svg>