<?xml version="1.0" encoding="UTF-8" standalone="no"?>
<!--Created with ndjsontosvg (https:https://github.com/thompson318/ndjsontosvg) 
	from the simplified Google quickdraw data set. key_id = 5420125962371072-->
<svg width="600" height="600"
	xmlns="http://www.w3.org/2000/svg">
	xmlns:ndjsontosvg="https://github.com/thompson318/ndjsontosvg"
	xmlns:quickdraw="https://quickdraw.withgoogle.com/data"
	xmlns:scikit-surgery="https://doi.org/10.1007/s11548-020-02180-5">

	<rect width="100%" height="100%" fill="black" />
	<path d = "M 274.22 288.28 L 260.16 196.88 L 267.19 150.00" stroke="white" fill="transparent"/>
	<path d = "M 307.03 300.00 L 292.97 217.97 L 295.31 189.84" stroke="white" fill="transparent"/>
	<path d = "M 285.94 166.41 L 243.75 166.41 L 269.53 164.06 L 316.41 128.91 L 316.41 107.81 L 295.31 96.09 L 255.47 100.78 L 210.94 128.91 L 194.53 154.69 L 199.22 164.06 L 220.31 164.06 L 267.19 140.62 L 288.28 124.22 L 295.31 107.81 L 281.25 91.41 L 243.75 93.75 L 201.56 105.47 L 159.38 135.94 L 157.03 154.69 L 180.47 166.41 L 285.94 150.00 L 346.88 126.56 L 382.03 105.47 L 382.03 91.41 L 365.62 75.00 L 321.09 65.62 L 271.88 70.31 L 199.22 89.06 L 140.62 124.22 L 121.88 147.66 L 140.62 164.06 L 267.19 145.31 L 370.31 114.84 L 405.47 96.09 L 421.88 79.69 L 403.12 60.94 L 365.62 46.88 L 278.91 42.19 L 194.53 60.94 L 135.94 93.75 L 124.22 114.84 L 145.31 133.59 L 227.34 128.91 L 302.34 110.16 L 475.78 46.88 L 494.53 25.78 L 468.75 2.34 L 360.94 7.03 L 246.09 42.19 L 161.72 89.06 L 128.91 121.88 L 121.88 142.97 L 124.22 150.00 L 142.97 164.06 L 241.41 152.34 L 396.09 114.84 L 520.31 75.00 L 539.06 65.62 L 536.72 53.91 L 520.31 42.19 L 487.50 32.81 L 400.78 32.81 L 288.28 49.22 L 213.28 77.34 L 157.03 107.81 L 114.84 147.66 L 119.53 161.72 L 128.91 171.09 L 152.34 173.44 L 239.06 166.41 L 546.09 114.84 L 555.47 105.47 L 548.44 100.78 L 501.56 86.72 L 412.50 79.69 L 328.12 86.72 L 243.75 103.12 L 194.53 121.88 L 168.75 145.31 L 194.53 157.03 L 375.00 140.62 L 557.81 112.50 L 557.81 105.47 L 527.34 93.75 L 457.03 84.38 L 356.25 84.38 L 239.06 100.78 L 154.69 126.56 L 105.47 154.69 L 86.72 175.78 L 98.44 189.84 L 117.19 194.53 L 227.34 185.16 L 445.31 138.28 L 506.25 119.53 L 510.94 112.50 L 508.59 100.78 L 442.97 77.34 L 346.88 65.62 L 199.22 75.00 L 89.06 98.44 L 53.91 117.19 L 63.28 133.59 L 135.94 135.94 L 525.00 100.78 L 555.47 91.41 L 555.47 82.03 L 546.09 75.00 L 379.69 32.81 L 278.91 25.78 L 206.25 28.12 L 117.19 46.88 L 112.50 63.28 L 150.00 96.09 L 260.16 112.50 L 536.72 103.12 L 548.44 96.09 L 546.09 89.06 L 501.56 70.31 L 328.12 42.19 L 171.09 46.88 L 96.09 58.59 L 23.44 82.03 L 0.00 105.47 L 7.03 126.56 L 39.84 145.31 L 100.78 152.34 L 239.06 145.31 L 529.69 107.81 L 583.59 96.09 L 595.31 86.72 L 590.62 75.00 L 536.72 82.03 L 407.81 72.66 L 314.06 75.00 L 135.94 93.75 L 70.31 119.53 L 56.25 135.94 L 79.69 147.66 L 154.69 152.34 L 583.59 117.19 L 595.31 112.50 L 595.31 100.78 L 527.34 114.84 L 171.09 84.38 L 35.16 98.44 L 14.06 107.81 L 16.41 119.53 L 46.88 133.59 L 89.06 142.97 L 182.81 145.31 L 360.94 133.59" stroke="white" fill="transparent"/>
</svg>