<?xml version="1.0" encoding="UTF-8" standalone="no"?>
<!--Created with ndjsontosvg (https:https://github.com/thompson318/ndjsontosvg) 
	from the simplified Google quickdraw data set. key_id = 5407917115179008-->
<svg width="600" height="600"
	xmlns="http://www.w3.org/2000/svg">
	xmlns:ndjsontosvg="https://github.com/thompson318/ndjsontosvg"
	xmlns:quickdraw="https://quickdraw.withgoogle.com/data"
	xmlns:scikit-surgery="https://doi.org/10.1007/s11548-020-02180-5">

	<rect width="100%" height="100%" fill="black" />
	<path d = "M 42.19 117.19 L 44.53 91.41 L 63.28 42.19 L 82.03 16.41 L 107.81 2.34 L 124.22 0.00 L 135.94 14.06 L 171.09 114.84 L 215.62 49.22 L 248.44 18.75 L 281.25 2.34 L 318.75 0.00 L 332.81 11.72 L 344.53 42.19 L 349.22 105.47 L 360.94 121.88 L 445.31 39.84 L 480.47 25.78 L 513.28 25.78 L 532.03 46.88 L 532.03 145.31 L 576.56 131.25 L 595.31 131.25 L 597.66 140.62 L 597.66 182.81 L 581.25 257.81 L 546.09 323.44 L 532.03 335.16 L 525.00 321.09 L 496.88 316.41 L 471.09 302.34 L 468.75 285.94 L 480.47 283.59 L 480.47 321.09 L 464.06 363.28 L 419.53 410.16 L 396.09 419.53 L 342.19 414.84 L 316.41 400.78 L 290.62 349.22 L 283.59 318.75 L 283.59 349.22 L 271.88 372.66 L 248.44 386.72 L 217.97 386.72 L 189.84 367.97 L 161.72 318.75 L 145.31 271.88 L 142.97 229.69 L 119.53 297.66 L 96.09 335.16 L 67.97 351.56 L 35.16 346.88 L 21.09 330.47 L 7.03 285.94 L 0.00 185.16 L 32.81 103.12 L 60.94 67.97 L 86.72 56.25" stroke="white" fill="transparent"/>
</svg>