<?xml version="1.0" encoding="UTF-8" standalone="no"?>
<!--Created with ndjsontosvg (https:https://github.com/thompson318/ndjsontosvg) 
	from the simplified Google quickdraw data set. key_id = 6636917577744384-->
<svg width="600" height="600"
	xmlns="http://www.w3.org/2000/svg">
	xmlns:ndjsontosvg="https://github.com/thompson318/ndjsontosvg"
	xmlns:quickdraw="https://quickdraw.withgoogle.com/data"
	xmlns:scikit-surgery="https://doi.org/10.1007/s11548-020-02180-5">

	<rect width="100%" height="100%" fill="black" />
	<path d = "M 164.06 2.34 L 131.25 18.75 L 98.44 65.62 L 98.44 114.84 L 112.50 119.53 L 128.91 105.47 L 112.50 121.88 L 114.84 138.28 L 178.12 135.94 L 173.44 159.38 L 182.81 166.41 L 217.97 164.06 L 255.47 147.66 L 255.47 166.41 L 274.22 168.75 L 328.12 145.31 L 332.81 124.22 L 330.47 138.28 L 353.91 126.56 L 330.47 131.25 L 365.62 70.31 L 342.19 72.66 L 335.16 58.59 L 325.78 67.97 L 335.16 51.56 L 330.47 37.50 L 285.94 53.91 L 262.50 35.16 L 222.66 35.16 L 227.34 14.06 L 201.56 16.41 L 180.47 25.78 L 187.50 9.38 L 166.41 7.03 L 161.72 0.00 L 140.62 16.41 L 150.00 25.78" stroke="white" fill="transparent"/>
	<path d = "M 161.72 154.69 L 93.75 150.00 L 0.00 194.53" stroke="white" fill="transparent"/>
	<path d = "M 358.59 159.38 L 532.03 147.66 L 597.66 133.59" stroke="white" fill="transparent"/>
</svg>