<?xml version="1.0" encoding="UTF-8" standalone="no"?>
<!--Created with ndjsontosvg (https:https://github.com/thompson318/ndjsontosvg) 
	from the simplified Google quickdraw data set. key_id = 6545262048706560-->
<svg width="600" height="600"
	xmlns="http://www.w3.org/2000/svg">
	xmlns:ndjsontosvg="https://github.com/thompson318/ndjsontosvg"
	xmlns:quickdraw="https://quickdraw.withgoogle.com/data"
	xmlns:scikit-surgery="https://doi.org/10.1007/s11548-020-02180-5">

	<rect width="100%" height="100%" fill="black" />
	<path d = "M 9.38 372.66 L 9.38 372.66" stroke="white" fill="transparent"/>
	<path d = "M 37.50 330.47 L 37.50 330.47" stroke="white" fill="transparent"/>
	<path d = "M 72.66 264.84 L 72.66 264.84" stroke="white" fill="transparent"/>
	<path d = "M 75.00 173.44 L 0.00 316.41 L 0.00 332.81 L 46.88 339.84 L 23.44 393.75 L 21.09 426.56 L 39.84 433.59 L 56.25 426.56 L 63.28 407.81 L 49.22 419.53 L 44.53 438.28 L 46.88 466.41 L 58.59 475.78 L 98.44 478.12 L 121.88 471.09 L 140.62 452.34 L 154.69 417.19 L 152.34 438.28 L 182.81 471.09 L 217.97 480.47 L 253.12 475.78 L 281.25 438.28 L 304.69 379.69 L 323.44 407.81 L 367.97 433.59 L 426.56 435.94 L 489.84 412.50 L 510.94 393.75 L 534.38 339.84 L 536.72 292.97 L 525.00 262.50 L 510.94 250.78 L 546.09 241.41 L 571.88 213.28 L 588.28 178.12 L 595.31 138.28 L 592.97 75.00 L 560.16 39.84 L 541.41 35.16 L 494.53 37.50 L 457.03 65.62 L 442.97 89.06 L 445.31 103.12 L 457.03 91.41 L 452.34 42.19 L 426.56 11.72 L 384.38 0.00 L 349.22 2.34 L 330.47 14.06 L 330.47 63.28 L 351.56 100.78 L 346.88 70.31 L 311.72 32.81 L 255.47 18.75 L 213.28 21.09 L 180.47 39.84 L 159.38 77.34 L 159.38 103.12 L 168.75 107.81 L 168.75 86.72 L 131.25 60.94 L 89.06 56.25 L 63.28 63.28 L 39.84 91.41 L 37.50 121.88 L 44.53 142.97 L 96.09 187.50 L 147.66 196.88 L 142.97 161.72 L 124.22 145.31 L 100.78 133.59 L 56.25 131.25 L 35.16 138.28 L 18.75 152.34 L 14.06 192.19 L 25.78 206.25" stroke="white" fill="transparent"/>
	<path d = "M 309.38 400.78 L 285.94 412.50 L 269.53 433.59 L 253.12 485.16 L 253.12 532.03 L 281.25 569.53 L 325.78 588.28 L 365.62 585.94 L 379.69 553.12 L 379.69 539.06 L 360.94 532.03 L 349.22 534.38 L 332.81 553.12" stroke="white" fill="transparent"/>
</svg>