<?xml version="1.0" encoding="UTF-8" standalone="no"?>
<!--Created with ndjsontosvg (https:https://github.com/thompson318/ndjsontosvg) 
	from the simplified Google quickdraw data set. key_id = 5422961441898496-->
<svg width="600" height="600"
	xmlns="http://www.w3.org/2000/svg">
	xmlns:ndjsontosvg="https://github.com/thompson318/ndjsontosvg"
	xmlns:quickdraw="https://quickdraw.withgoogle.com/data"
	xmlns:scikit-surgery="https://doi.org/10.1007/s11548-020-02180-5">

	<rect width="100%" height="100%" fill="black" />
	<path d = "M 147.66 382.03 L 67.97 346.88 L 28.12 314.06 L 0.00 253.12 L 0.00 220.31 L 11.72 164.06 L 39.84 150.00 L 75.00 145.31 L 72.66 166.41 L 93.75 89.06 L 124.22 79.69 L 192.19 0.00 L 344.53 79.69 L 360.94 67.97 L 386.72 28.12 L 480.47 32.81 L 550.78 7.03 L 597.66 72.66 L 597.66 117.19 L 583.59 196.88 L 583.59 276.56 L 576.56 307.03 L 539.06 337.50 L 489.84 393.75 L 431.25 433.59 L 360.94 459.38 L 304.69 464.06 L 250.78 457.03 L 239.06 442.97 L 229.69 410.16 L 208.59 398.44 L 157.03 391.41 L 145.31 382.03" stroke="white" fill="transparent"/>
</svg>