<?xml version="1.0" encoding="UTF-8" standalone="no"?>
<!--Created with ndjsontosvg (https:https://github.com/thompson318/ndjsontosvg) 
	from the simplified Google quickdraw data set. key_id = 6329540471160832-->
<svg width="600" height="600"
	xmlns="http://www.w3.org/2000/svg">
	xmlns:ndjsontosvg="https://github.com/thompson318/ndjsontosvg"
	xmlns:quickdraw="https://quickdraw.withgoogle.com/data"
	xmlns:scikit-surgery="https://doi.org/10.1007/s11548-020-02180-5">

	<rect width="100%" height="100%" fill="black" />
	<path d = "M 330.47 154.69 L 300.00 178.12 L 267.19 217.97 L 241.41 292.97 L 225.00 435.94 L 243.75 529.69 L 250.78 532.03 L 295.31 487.50 L 325.78 384.38 L 349.22 232.03 L 344.53 161.72 L 332.81 159.38" stroke="white" fill="transparent"/>
	<path d = "M 283.59 189.84 L 267.19 135.94 L 241.41 84.38 L 173.44 28.12 L 135.94 7.03 L 105.47 0.00 L 65.62 2.34 L 46.88 21.09 L 11.72 98.44 L 0.00 168.75 L 0.00 358.59 L 28.12 499.22 L 39.84 520.31 L 70.31 534.38 L 168.75 536.72 L 225.00 508.59 L 241.41 487.50 L 243.75 468.75" stroke="white" fill="transparent"/>
	<path d = "M 346.88 192.19 L 358.59 178.12 L 452.34 128.91 L 494.53 119.53 L 539.06 121.88 L 557.81 140.62 L 585.94 206.25 L 597.66 295.31 L 581.25 360.94 L 534.38 468.75 L 510.94 503.91 L 468.75 541.41 L 414.84 560.16 L 372.66 557.81 L 318.75 515.62 L 311.72 499.22 L 316.41 466.41" stroke="white" fill="transparent"/>
</svg>