<?xml version="1.0" encoding="UTF-8" standalone="no"?>
<!--Created with ndjsontosvg (https:https://github.com/thompson318/ndjsontosvg) 
	from the simplified Google quickdraw data set. key_id = 6678120541192192-->
<svg width="600" height="600"
	xmlns="http://www.w3.org/2000/svg">
	xmlns:ndjsontosvg="https://github.com/thompson318/ndjsontosvg"
	xmlns:quickdraw="https://quickdraw.withgoogle.com/data"
	xmlns:scikit-surgery="https://doi.org/10.1007/s11548-020-02180-5">

	<rect width="100%" height="100%" fill="black" />
	<path d = "M 234.38 105.47 L 255.47 417.19" stroke="white" fill="transparent"/>
	<path d = "M 246.09 93.75 L 363.28 0.00" stroke="white" fill="transparent"/>
	<path d = "M 210.94 105.47 L 203.91 77.34 L 168.75 39.84 L 147.66 2.34" stroke="white" fill="transparent"/>
	<path d = "M 241.41 161.72 L 243.75 135.94 L 292.97 89.06 L 384.38 44.53 L 450.00 30.47 L 525.00 28.12 L 546.09 35.16 L 578.91 60.94 L 595.31 91.41 L 597.66 126.56 L 574.22 161.72 L 485.16 215.62 L 450.00 243.75 L 522.66 307.03 L 541.41 351.56 L 543.75 377.34 L 517.97 393.75 L 377.34 417.19 L 283.59 414.84" stroke="white" fill="transparent"/>
	<path d = "M 257.81 421.88 L 121.88 421.88 L 30.47 393.75 L 0.00 351.56 L 0.00 300.00 L 145.31 243.75 L 39.84 131.25 L 35.16 110.16 L 39.84 96.09 L 145.31 91.41 L 264.84 117.19" stroke="white" fill="transparent"/>
</svg>