<?xml version="1.0" encoding="UTF-8" standalone="no"?>
<!--Created with ndjsontosvg (https:https://github.com/thompson318/ndjsontosvg) 
	from the simplified Google quickdraw data set. key_id = 5730612906295296-->
<svg width="600" height="600"
	xmlns="http://www.w3.org/2000/svg">
	xmlns:ndjsontosvg="https://github.com/thompson318/ndjsontosvg"
	xmlns:quickdraw="https://quickdraw.withgoogle.com/data"
	xmlns:scikit-surgery="https://doi.org/10.1007/s11548-020-02180-5">

	<rect width="100%" height="100%" fill="black" />
	<path d = "M 201.56 0.00 L 199.22 53.91 L 248.44 138.28 L 300.00 250.78 L 330.47 288.28 L 508.59 42.19 L 541.41 16.41" stroke="white" fill="transparent"/>
	<path d = "M 337.50 281.25 L 330.47 285.94 L 311.72 318.75 L 292.97 419.53 L 292.97 532.03 L 314.06 595.31 L 335.16 588.28 L 360.94 527.34 L 365.62 480.47 L 358.59 337.50 L 349.22 314.06 L 337.50 302.34" stroke="white" fill="transparent"/>
	<path d = "M 363.28 328.12 L 421.88 262.50 L 450.00 243.75 L 506.25 239.06 L 522.66 253.12 L 536.72 278.91 L 534.38 290.62 L 482.81 332.81 L 452.34 344.53 L 452.34 365.62 L 508.59 407.81 L 520.31 431.25 L 515.62 478.12 L 501.56 501.56 L 480.47 522.66 L 403.12 534.38 L 353.91 522.66" stroke="white" fill="transparent"/>
	<path d = "M 285.94 337.50 L 213.28 285.94 L 86.72 234.38 L 63.28 234.38 L 18.75 260.16 L 0.00 290.62 L 2.34 353.91 L 42.19 372.66 L 154.69 412.50 L 110.16 421.88 L 35.16 473.44 L 16.41 499.22 L 23.44 541.41 L 56.25 567.19 L 105.47 585.94 L 222.66 590.62 L 290.62 541.41" stroke="white" fill="transparent"/>
</svg>