<?xml version="1.0" encoding="UTF-8" standalone="no"?>
<!--Created with ndjsontosvg (https:https://github.com/thompson318/ndjsontosvg) 
	from the simplified Google quickdraw data set. key_id = 6385243260977152-->
<svg width="600" height="600"
	xmlns="http://www.w3.org/2000/svg">
	xmlns:ndjsontosvg="https://github.com/thompson318/ndjsontosvg"
	xmlns:quickdraw="https://quickdraw.withgoogle.com/data"
	xmlns:scikit-surgery="https://doi.org/10.1007/s11548-020-02180-5">

	<rect width="100%" height="100%" fill="black" />
	<path d = "M 135.94 189.84 L 119.53 243.75 L 110.16 328.12 L 112.50 464.06 L 140.62 548.44 L 175.78 592.97 L 185.16 597.66 L 194.53 585.94 L 215.62 527.34 L 220.31 410.16 L 229.69 375.00 L 229.69 264.84 L 220.31 220.31 L 210.94 196.88 L 199.22 189.84 L 159.38 189.84 L 133.59 208.59" stroke="white" fill="transparent"/>
	<path d = "M 171.09 189.84 L 121.88 175.78 L 119.53 100.78 L 128.91 96.09 L 171.09 91.41 L 196.88 110.16 L 225.00 164.06 L 222.66 175.78 L 210.94 187.50 L 178.12 189.84" stroke="white" fill="transparent"/>
	<path d = "M 119.53 91.41 L 42.19 21.09 L 18.75 9.38 L 0.00 14.06" stroke="white" fill="transparent"/>
	<path d = "M 199.22 86.72 L 203.91 49.22 L 241.41 0.00" stroke="white" fill="transparent"/>
	<path d = "M 225.00 290.62 L 264.84 173.44 L 300.00 128.91 L 367.97 75.00 L 485.16 72.66 L 525.00 138.28 L 525.00 173.44 L 494.53 234.38 L 382.03 292.97 L 344.53 302.34 L 264.84 344.53 L 292.97 344.53 L 372.66 309.38 L 410.16 318.75 L 475.78 360.94 L 517.97 431.25 L 541.41 501.56 L 489.84 529.69 L 433.59 543.75 L 367.97 534.38 L 300.00 508.59 L 264.84 485.16 L 236.72 421.88 L 222.66 353.91" stroke="white" fill="transparent"/>
	<path d = "M 119.53 241.41 L 105.47 220.31" stroke="white" fill="transparent"/>
</svg>