<?xml version="1.0" encoding="UTF-8" standalone="no"?>
<!--Created with ndjsontosvg (https:https://github.com/thompson318/ndjsontosvg) 
	from the simplified Google quickdraw data set. key_id = 5787071002181632-->
<svg width="600" height="600"
	xmlns="http://www.w3.org/2000/svg">
	xmlns:ndjsontosvg="https://github.com/thompson318/ndjsontosvg"
	xmlns:quickdraw="https://quickdraw.withgoogle.com/data"
	xmlns:scikit-surgery="https://doi.org/10.1007/s11548-020-02180-5">

	<rect width="100%" height="100%" fill="black" />
	<path d = "M 16.41 180.47 L 11.72 440.62 L 28.12 513.28 L 46.88 529.69 L 79.69 529.69 L 96.09 522.66 L 110.16 506.25 L 147.66 489.84 L 189.84 457.03 L 220.31 403.12 L 281.25 255.47" stroke="white" fill="transparent"/>
	<path d = "M 9.38 166.41 L 0.00 112.50 L 4.69 84.38 L 51.56 65.62 L 105.47 63.28 L 131.25 77.34 L 185.16 119.53 L 281.25 220.31" stroke="white" fill="transparent"/>
	<path d = "M 276.56 0.00 L 288.28 117.19 L 297.66 353.91 L 360.94 590.62" stroke="white" fill="transparent"/>
	<path d = "M 288.28 229.69 L 290.62 189.84 L 337.50 114.84 L 367.97 96.09 L 400.78 86.72 L 452.34 93.75 L 487.50 145.31 L 539.06 267.19 L 588.28 426.56 L 597.66 503.91 L 569.53 550.78 L 553.12 564.84 L 487.50 574.22 L 450.00 555.47 L 426.56 522.66 L 384.38 426.56 L 356.25 295.31 L 335.16 234.38 L 316.41 217.97 L 290.62 208.59" stroke="white" fill="transparent"/>
	<path d = "M 98.44 178.12 L 98.44 178.12" stroke="white" fill="transparent"/>
</svg>