<?xml version="1.0" encoding="UTF-8" standalone="no"?>
<!--Created with ndjsontosvg (https:https://github.com/thompson318/ndjsontosvg) 
	from the simplified Google quickdraw data set. key_id = 5478994692538368-->
<svg width="600" height="600"
	xmlns="http://www.w3.org/2000/svg">
	xmlns:ndjsontosvg="https://github.com/thompson318/ndjsontosvg"
	xmlns:quickdraw="https://quickdraw.withgoogle.com/data"
	xmlns:scikit-surgery="https://doi.org/10.1007/s11548-020-02180-5">

	<rect width="100%" height="100%" fill="black" />
	<path d = "M 323.44 11.72 L 300.00 0.00 L 274.22 2.34 L 260.16 7.03 L 229.69 37.50 L 229.69 67.97 L 248.44 79.69 L 300.00 98.44 L 318.75 98.44 L 356.25 63.28 L 367.97 35.16 L 360.94 14.06 L 300.00 9.38 L 262.50 30.47" stroke="white" fill="transparent"/>
	<path d = "M 253.12 133.59 L 232.03 213.28 L 236.72 295.31 L 255.47 328.12 L 288.28 330.47" stroke="white" fill="transparent"/>
	<path d = "M 323.44 133.59 L 323.44 133.59" stroke="white" fill="transparent"/>
	<path d = "M 328.12 124.22 L 337.50 133.59 L 346.88 164.06 L 346.88 229.69 L 328.12 264.84 L 309.38 332.81 L 246.09 363.28" stroke="white" fill="transparent"/>
	<path d = "M 236.72 150.00 L 154.69 93.75 L 133.59 89.06 L 65.62 89.06 L 14.06 126.56 L 0.00 154.69 L 0.00 168.75 L 9.38 178.12 L 105.47 194.53 L 168.75 189.84 L 126.56 232.03 L 91.41 283.59 L 86.72 349.22 L 103.12 379.69 L 142.97 389.06 L 187.50 384.38 L 201.56 365.62 L 217.97 318.75" stroke="white" fill="transparent"/>
	<path d = "M 353.91 138.28 L 367.97 112.50 L 417.19 75.00 L 555.47 60.94 L 578.91 82.03 L 597.66 138.28 L 539.06 175.78 L 419.53 189.84 L 489.84 175.78 L 529.69 175.78 L 546.09 185.16" stroke="white" fill="transparent"/>
	<path d = "M 309.38 370.31 L 262.50 351.56 L 264.84 337.50" stroke="white" fill="transparent"/>
	<path d = "M 428.91 210.94 L 503.91 178.12 L 553.12 168.75" stroke="white" fill="transparent"/>
</svg>