<?xml version="1.0" encoding="UTF-8" standalone="no"?>
<!--Created with ndjsontosvg (https:https://github.com/thompson318/ndjsontosvg) 
	from the simplified Google quickdraw data set. key_id = 6723598351859712-->
<svg width="600" height="600"
	xmlns="http://www.w3.org/2000/svg">
	xmlns:ndjsontosvg="https://github.com/thompson318/ndjsontosvg"
	xmlns:quickdraw="https://quickdraw.withgoogle.com/data"
	xmlns:scikit-surgery="https://doi.org/10.1007/s11548-020-02180-5">

	<rect width="100%" height="100%" fill="black" />
	<path d = "M 206.25 187.50 L 192.19 215.62 L 180.47 278.91 L 180.47 351.56 L 225.00 583.59 L 232.03 597.66 L 246.09 569.53 L 253.12 503.91 L 257.81 210.94 L 248.44 182.81 L 234.38 178.12 L 222.66 220.31" stroke="white" fill="transparent"/>
	<path d = "M 210.94 187.50 L 213.28 89.06 L 203.91 44.53 L 187.50 11.72 L 173.44 0.00 L 154.69 7.03 L 147.66 21.09" stroke="white" fill="transparent"/>
	<path d = "M 220.31 187.50 L 208.59 175.78 L 208.59 159.38 L 222.66 98.44 L 257.81 14.06 L 271.88 2.34" stroke="white" fill="transparent"/>
	<path d = "M 278.91 222.66 L 276.56 182.81 L 318.75 105.47 L 346.88 72.66 L 377.34 51.56 L 410.16 49.22 L 419.53 70.31 L 426.56 110.16 L 426.56 377.34 L 450.00 426.56 L 522.66 520.31 L 536.72 578.91 L 501.56 592.97 L 440.62 588.28 L 365.62 536.72 L 295.31 461.72" stroke="white" fill="transparent"/>
	<path d = "M 185.16 210.94 L 173.44 203.91 L 171.09 178.12 L 145.31 147.66 L 103.12 119.53 L 37.50 103.12 L 32.81 220.31 L 0.00 412.50 L 0.00 471.09 L 9.38 515.62 L 18.75 541.41 L 56.25 574.22 L 72.66 574.22 L 105.47 546.09 L 140.62 478.12 L 154.69 468.75 L 180.47 473.44" stroke="white" fill="transparent"/>
</svg>