<?xml version="1.0" encoding="UTF-8" standalone="no"?>
<!--Created with ndjsontosvg (https:https://github.com/thompson318/ndjsontosvg) 
	from the simplified Google quickdraw data set. key_id = 5876031938363392-->
<svg width="600" height="600"
	xmlns="http://www.w3.org/2000/svg">
	xmlns:ndjsontosvg="https://github.com/thompson318/ndjsontosvg"
	xmlns:quickdraw="https://quickdraw.withgoogle.com/data"
	xmlns:scikit-surgery="https://doi.org/10.1007/s11548-020-02180-5">

	<rect width="100%" height="100%" fill="black" />
	<path d = "M 217.97 175.78 L 133.59 53.91 L 112.50 42.19 L 75.00 39.84 L 60.94 42.19 L 37.50 75.00 L 0.00 182.81 L 4.69 206.25 L 37.50 248.44 L 147.66 335.16 L 96.09 349.22 L 75.00 367.97 L 32.81 503.91 L 30.47 550.78 L 46.88 588.28 L 56.25 595.31 L 91.41 597.66 L 145.31 581.25 L 164.06 550.78 L 161.72 482.81 L 206.25 396.09 L 217.97 356.25 L 229.69 281.25 L 229.69 178.12 L 248.44 164.06 L 260.16 173.44 L 269.53 206.25 L 269.53 360.94 L 241.41 489.84 L 220.31 548.44 L 201.56 553.12 L 182.81 529.69 L 178.12 473.44" stroke="white" fill="transparent"/>
	<path d = "M 271.88 175.78 L 407.81 0.00 L 445.31 23.44 L 468.75 56.25 L 480.47 82.03 L 478.12 140.62 L 447.66 210.94 L 412.50 250.78 L 358.59 253.12 L 356.25 262.50 L 384.38 325.78 L 419.53 377.34 L 433.59 410.16 L 442.97 459.38 L 442.97 527.34 L 421.88 571.88 L 405.47 581.25 L 370.31 583.59 L 225.00 494.53" stroke="white" fill="transparent"/>
</svg>