<?xml version="1.0" encoding="UTF-8" standalone="no"?>
<!--Created with ndjsontosvg (https:https://github.com/thompson318/ndjsontosvg) 
	from the simplified Google quickdraw data set. key_id = 6332450500247552-->
<svg width="600" height="600"
	xmlns="http://www.w3.org/2000/svg">
	xmlns:ndjsontosvg="https://github.com/thompson318/ndjsontosvg"
	xmlns:quickdraw="https://quickdraw.withgoogle.com/data"
	xmlns:scikit-surgery="https://doi.org/10.1007/s11548-020-02180-5">

	<rect width="100%" height="100%" fill="black" />
	<path d = "M 201.56 597.66 L 192.19 264.84 L 180.47 255.47 L 168.75 253.12 L 126.56 304.69 L 53.91 363.28 L 28.12 358.59 L 4.69 332.81 L 0.00 304.69 L 14.06 220.31 L 42.19 157.03 L 67.97 124.22 L 114.84 93.75 L 157.03 96.09 L 217.97 82.03 L 229.69 14.06 L 241.41 2.34 L 264.84 0.00 L 285.94 9.38 L 307.03 46.88 L 344.53 215.62 L 363.28 180.47 L 384.38 161.72 L 431.25 159.38 L 440.62 166.41 L 452.34 253.12 L 438.28 285.94 L 403.12 311.72 L 351.56 302.34 L 335.16 311.72 L 325.78 529.69 L 311.72 539.06 L 250.78 548.44" stroke="white" fill="transparent"/>
	<path d = "M 234.38 426.56 L 234.38 426.56" stroke="white" fill="transparent"/>
	<path d = "M 309.38 382.03 L 309.38 382.03" stroke="white" fill="transparent"/>
</svg>