<?xml version="1.0" encoding="UTF-8" standalone="no"?>
<!--Created with ndjsontosvg (https:https://github.com/thompson318/ndjsontosvg) 
	from the simplified Google quickdraw data set. key_id = 5383148185583616-->
<svg width="600" height="600"
	xmlns="http://www.w3.org/2000/svg">
	xmlns:ndjsontosvg="https://github.com/thompson318/ndjsontosvg"
	xmlns:quickdraw="https://quickdraw.withgoogle.com/data"
	xmlns:scikit-surgery="https://doi.org/10.1007/s11548-020-02180-5">

	<rect width="100%" height="100%" fill="black" />
	<path d = "M 72.66 597.66 L 98.44 433.59 L 100.78 346.88 L 58.59 288.28 L 32.81 213.28 L 28.12 173.44 L 49.22 164.06 L 84.38 168.75 L 126.56 241.41 L 131.25 128.91 L 147.66 56.25 L 168.75 9.38 L 203.91 0.00 L 227.34 18.75 L 239.06 67.97 L 210.94 489.84 L 213.28 597.66" stroke="white" fill="transparent"/>
	<path d = "M 75.00 330.47 L 18.75 295.31" stroke="white" fill="transparent"/>
	<path d = "M 53.91 269.53 L 32.81 269.53 L 16.41 260.16 L 2.34 239.06 L 0.00 217.97" stroke="white" fill="transparent"/>
	<path d = "M 60.94 203.91 L 42.19 187.50 L 21.09 145.31" stroke="white" fill="transparent"/>
	<path d = "M 93.75 154.69 L 82.03 117.19 L 86.72 84.38" stroke="white" fill="transparent"/>
	<path d = "M 126.56 208.59 L 119.53 196.88 L 121.88 171.09 L 154.69 107.81" stroke="white" fill="transparent"/>
	<path d = "M 138.28 135.94 L 126.56 112.50 L 107.81 21.09" stroke="white" fill="transparent"/>
	<path d = "M 147.66 91.41 L 142.97 23.44 L 147.66 11.72 L 159.38 4.69" stroke="white" fill="transparent"/>
</svg>