<?xml version="1.0" encoding="UTF-8" standalone="no"?>
<!--Created with ndjsontosvg (https:https://github.com/thompson318/ndjsontosvg) 
	from the simplified Google quickdraw data set. key_id = 6432242286985216-->
<svg width="600" height="600"
	xmlns="http://www.w3.org/2000/svg">
	xmlns:ndjsontosvg="https://github.com/thompson318/ndjsontosvg"
	xmlns:quickdraw="https://quickdraw.withgoogle.com/data"
	xmlns:scikit-surgery="https://doi.org/10.1007/s11548-020-02180-5">

	<rect width="100%" height="100%" fill="black" />
	<path d = "M 208.59 332.81 L 210.94 285.94 L 234.38 225.00 L 243.75 171.09 L 330.47 11.72 L 342.19 0.00 L 356.25 7.03 L 431.25 98.44 L 431.25 203.91 L 417.19 321.09 L 384.38 440.62" stroke="white" fill="transparent"/>
	<path d = "M 201.56 309.38 L 178.12 414.84 L 157.03 375.00 L 152.34 332.81 L 135.94 290.62 L 79.69 189.84 L 63.28 182.81 L 18.75 253.12 L 2.34 321.09 L 0.00 386.72" stroke="white" fill="transparent"/>
	<path d = "M 379.69 407.81 L 417.19 353.91 L 515.62 243.75 L 541.41 227.34 L 571.88 253.12 L 595.31 300.00 L 597.66 372.66 L 585.94 407.81" stroke="white" fill="transparent"/>
	<path d = "M 307.03 131.25 L 292.97 138.28" stroke="white" fill="transparent"/>
	<path d = "M 325.78 138.28 L 346.88 194.53" stroke="white" fill="transparent"/>
	<path d = "M 307.03 194.53 L 307.03 194.53" stroke="white" fill="transparent"/>
	<path d = "M 318.75 255.47 L 321.09 255.47" stroke="white" fill="transparent"/>
	<path d = "M 288.28 307.03 L 288.28 307.03" stroke="white" fill="transparent"/>
	<path d = "M 365.62 321.09 L 365.62 321.09" stroke="white" fill="transparent"/>
	<path d = "M 285.94 358.59 L 285.94 358.59" stroke="white" fill="transparent"/>
</svg>