<?xml version="1.0" encoding="UTF-8" standalone="no"?>
<!--Created with ndjsontosvg (https:https://github.com/thompson318/ndjsontosvg) 
	from the simplified Google quickdraw data set. key_id = 5878458028654592-->
<svg width="600" height="600"
	xmlns="http://www.w3.org/2000/svg">
	xmlns:ndjsontosvg="https://github.com/thompson318/ndjsontosvg"
	xmlns:quickdraw="https://quickdraw.withgoogle.com/data"
	xmlns:scikit-surgery="https://doi.org/10.1007/s11548-020-02180-5">

	<rect width="100%" height="100%" fill="black" />
	<path d = "M 98.44 396.09 L 248.44 410.16 L 346.88 398.44 L 349.22 405.47 L 339.84 464.06 L 302.34 515.62 L 267.19 592.97 L 248.44 597.66 L 142.97 543.75 L 112.50 503.91 L 96.09 442.97 L 93.75 375.00" stroke="white" fill="transparent"/>
	<path d = "M 166.41 407.81 L 166.41 382.03 L 124.22 292.97 L 110.16 241.41 L 96.09 98.44 L 114.84 58.59 L 147.66 28.12 L 196.88 7.03 L 232.03 7.03 L 250.78 14.06 L 274.22 44.53 L 309.38 117.19 L 311.72 262.50 L 278.91 360.94 L 274.22 414.84" stroke="white" fill="transparent"/>
	<path d = "M 278.91 225.00 L 330.47 189.84" stroke="white" fill="transparent"/>
	<path d = "M 274.22 140.62 L 318.75 103.12 L 339.84 70.31" stroke="white" fill="transparent"/>
	<path d = "M 241.41 72.66 L 220.31 35.16 L 185.16 0.00" stroke="white" fill="transparent"/>
	<path d = "M 135.94 100.78 L 0.00 75.00" stroke="white" fill="transparent"/>
	<path d = "M 89.06 178.12 L 35.16 199.22 L 11.72 217.97" stroke="white" fill="transparent"/>
	<path d = "M 117.19 255.47 L 82.03 292.97" stroke="white" fill="transparent"/>
	<path d = "M 166.41 358.59 L 135.94 377.34" stroke="white" fill="transparent"/>
	<path d = "M 302.34 290.62 L 325.78 290.62 L 358.59 271.88 L 377.34 239.06 L 391.41 227.34 L 407.81 222.66 L 433.59 250.78 L 435.94 295.31 L 403.12 330.47 L 353.91 356.25 L 269.53 365.62" stroke="white" fill="transparent"/>
	<path d = "M 335.16 346.88 L 358.59 370.31" stroke="white" fill="transparent"/>
	<path d = "M 403.12 339.84 L 426.56 351.56" stroke="white" fill="transparent"/>
</svg>