<?xml version="1.0" encoding="UTF-8" standalone="no"?>
<!--Created with ndjsontosvg (https:https://github.com/thompson318/ndjsontosvg) 
	from the simplified Google quickdraw data set. key_id = 6292600250171392-->
<svg width="600" height="600"
	xmlns="http://www.w3.org/2000/svg">
	xmlns:ndjsontosvg="https://github.com/thompson318/ndjsontosvg"
	xmlns:quickdraw="https://quickdraw.withgoogle.com/data"
	xmlns:scikit-surgery="https://doi.org/10.1007/s11548-020-02180-5">

	<rect width="100%" height="100%" fill="black" />
	<path d = "M 178.12 597.66 L 178.12 440.62 L 161.72 269.53 L 150.00 262.50 L 67.97 260.16 L 32.81 234.38 L 0.00 187.50 L 2.34 175.78 L 11.72 171.09 L 82.03 178.12 L 124.22 171.09 L 138.28 161.72 L 161.72 133.59 L 166.41 89.06 L 182.81 53.91 L 222.66 4.69 L 255.47 2.34 L 276.56 23.44 L 278.91 58.59 L 262.50 105.47 L 264.84 138.28 L 367.97 140.62 L 377.34 147.66 L 375.00 182.81 L 356.25 206.25 L 351.56 276.56 L 342.19 288.28 L 311.72 290.62 L 297.66 253.12 L 285.94 248.44 L 260.16 297.66 L 264.84 358.59 L 297.66 393.75 L 281.25 527.34" stroke="white" fill="transparent"/>
</svg>