<?xml version="1.0" encoding="UTF-8" standalone="no"?>
<!--Created with ndjsontosvg (https:https://github.com/thompson318/ndjsontosvg) 
	from the simplified Google quickdraw data set. key_id = 4689475332472832-->
<svg width="600" height="600"
	xmlns="http://www.w3.org/2000/svg">
	xmlns:ndjsontosvg="https://github.com/thompson318/ndjsontosvg"
	xmlns:quickdraw="https://quickdraw.withgoogle.com/data"
	xmlns:scikit-surgery="https://doi.org/10.1007/s11548-020-02180-5">

	<rect width="100%" height="100%" fill="black" />
	<path d = "M 114.84 452.34 L 79.69 264.84 L 86.72 208.59 L 119.53 128.91 L 142.97 100.78 L 203.91 63.28 L 250.78 56.25 L 278.91 93.75 L 304.69 180.47 L 302.34 360.94 L 309.38 457.03 L 342.19 438.28 L 419.53 426.56 L 457.03 445.31 L 468.75 480.47 L 468.75 501.56 L 459.38 517.97 L 433.59 539.06 L 370.31 567.19 L 297.66 583.59 L 267.19 581.25 L 241.41 550.78 L 236.72 506.25 L 236.72 525.00 L 227.34 548.44 L 192.19 588.28 L 145.31 597.66 L 93.75 597.66 L 70.31 590.62 L 39.84 562.50 L 37.50 501.56 L 58.59 475.78 L 89.06 464.06 L 117.19 464.06" stroke="white" fill="transparent"/>
	<path d = "M 213.28 86.72 L 222.66 192.19" stroke="white" fill="transparent"/>
	<path d = "M 117.19 227.34 L 257.81 220.31 L 304.69 208.59 L 307.03 203.91 L 292.97 201.56" stroke="white" fill="transparent"/>
	<path d = "M 70.31 248.44 L 51.56 203.91 L 14.06 159.38" stroke="white" fill="transparent"/>
	<path d = "M 103.12 220.31 L 100.78 182.81 L 79.69 107.81" stroke="white" fill="transparent"/>
	<path d = "M 103.12 150.00 L 100.78 44.53" stroke="white" fill="transparent"/>
	<path d = "M 152.34 93.75 L 159.38 18.75" stroke="white" fill="transparent"/>
	<path d = "M 213.28 60.94 L 222.66 0.00" stroke="white" fill="transparent"/>
	<path d = "M 267.19 60.94 L 267.19 65.62 L 302.34 42.19" stroke="white" fill="transparent"/>
	<path d = "M 302.34 124.22 L 339.84 112.50" stroke="white" fill="transparent"/>
	<path d = "M 335.16 206.25 L 342.19 210.94 L 393.75 206.25" stroke="white" fill="transparent"/>
	<path d = "M 328.12 281.25 L 316.41 290.62 L 323.44 290.62 L 398.44 281.25" stroke="white" fill="transparent"/>
	<path d = "M 274.22 349.22 L 379.69 351.56" stroke="white" fill="transparent"/>
	<path d = "M 117.19 365.62 L 7.03 358.59" stroke="white" fill="transparent"/>
	<path d = "M 53.91 323.44 L 53.91 323.44" stroke="white" fill="transparent"/>
</svg>