<?xml version="1.0" encoding="UTF-8" standalone="no"?>
<!--Created with ndjsontosvg (https:https://github.com/thompson318/ndjsontosvg) 
	from the simplified Google quickdraw data set. key_id = 5533828456120320-->
<svg width="600" height="600"
	xmlns="http://www.w3.org/2000/svg">
	xmlns:ndjsontosvg="https://github.com/thompson318/ndjsontosvg"
	xmlns:quickdraw="https://quickdraw.withgoogle.com/data"
	xmlns:scikit-surgery="https://doi.org/10.1007/s11548-020-02180-5">

	<rect width="100%" height="100%" fill="black" />
	<path d = "M 91.41 501.56 L 128.91 510.94 L 264.84 571.88 L 330.47 588.28 L 414.84 595.31 L 494.53 569.53 L 525.00 539.06 L 557.81 468.75 L 560.16 431.25 L 553.12 414.84 L 517.97 396.09 L 370.31 346.88 L 288.28 335.16 L 166.41 330.47 L 91.41 335.16 L 9.38 403.12 L 0.00 440.62 L 9.38 459.38 L 51.56 485.16 L 105.47 494.53" stroke="white" fill="transparent"/>
	<path d = "M 70.31 304.69 L 199.22 339.84 L 353.91 342.19 L 513.28 384.38 L 578.91 346.88 L 595.31 311.72 L 595.31 281.25 L 562.50 255.47 L 496.88 217.97 L 398.44 182.81 L 274.22 168.75 L 133.59 168.75 L 96.09 173.44 L 23.44 229.69 L 14.06 257.81 L 30.47 304.69 L 44.53 314.06 L 70.31 316.41 L 107.81 295.31" stroke="white" fill="transparent"/>
	<path d = "M 241.41 159.38 L 260.16 107.81 L 267.19 37.50" stroke="white" fill="transparent"/>
	<path d = "M 295.31 161.72 L 318.75 82.03 L 318.75 37.50 L 314.06 14.06 L 311.72 21.09" stroke="white" fill="transparent"/>
	<path d = "M 255.47 14.06 L 255.47 35.16 L 274.22 9.38 L 281.25 18.75 L 304.69 0.00 L 311.72 18.75 L 337.50 4.69 L 323.44 28.12" stroke="white" fill="transparent"/>
</svg>