<?xml version="1.0" encoding="UTF-8" standalone="no"?>
<!--Created with ndjsontosvg (https:https://github.com/thompson318/ndjsontosvg) 
	from the simplified Google quickdraw data set. key_id = 4728392702230528-->
<svg width="600" height="600"
	xmlns="http://www.w3.org/2000/svg">
	xmlns:ndjsontosvg="https://github.com/thompson318/ndjsontosvg"
	xmlns:quickdraw="https://quickdraw.withgoogle.com/data"
	xmlns:scikit-surgery="https://doi.org/10.1007/s11548-020-02180-5">

	<rect width="100%" height="100%" fill="black" />
	<path d = "M 166.41 154.69 L 39.84 185.16 L 39.84 274.22 L 60.94 297.66 L 222.66 344.53 L 384.38 342.19 L 435.94 307.03 L 457.03 262.50 L 457.03 236.72 L 424.22 213.28 L 232.03 138.28 L 187.50 140.62 L 140.62 175.78 L 103.12 185.16" stroke="white" fill="transparent"/>
	<path d = "M 32.81 243.75 L 42.19 382.03 L 0.00 553.12" stroke="white" fill="transparent"/>
	<path d = "M 445.31 314.06 L 426.56 414.84 L 414.84 548.44 L 403.12 597.66 L 396.09 597.66" stroke="white" fill="transparent"/>
	<path d = "M 30.47 428.91 L 37.50 440.62 L 262.50 534.38 L 353.91 534.38 L 445.31 475.78" stroke="white" fill="transparent"/>
	<path d = "M 173.44 213.28 L 173.44 140.62 L 150.00 63.28 L 150.00 14.06 L 157.03 2.34 L 166.41 0.00 L 217.97 18.75 L 225.00 39.84 L 196.88 126.56 L 189.84 213.28" stroke="white" fill="transparent"/>
</svg>