<?xml version="1.0" encoding="UTF-8" standalone="no"?>
<!--Created with ndjsontosvg (https:https://github.com/thompson318/ndjsontosvg) 
	from the simplified Google quickdraw data set. key_id = 6125292546424832-->
<svg width="600" height="600"
	xmlns="http://www.w3.org/2000/svg">
	xmlns:ndjsontosvg="https://github.com/thompson318/ndjsontosvg"
	xmlns:quickdraw="https://quickdraw.withgoogle.com/data"
	xmlns:scikit-surgery="https://doi.org/10.1007/s11548-020-02180-5">

	<rect width="100%" height="100%" fill="black" />
	<path d = "M 241.41 28.12 L 164.06 49.22 L 131.25 65.62 L 121.88 112.50 L 142.97 138.28 L 236.72 157.03 L 302.34 159.38 L 353.91 152.34 L 391.41 131.25 L 403.12 103.12 L 403.12 86.72 L 396.09 79.69 L 325.78 42.19 L 262.50 32.81" stroke="white" fill="transparent"/>
	<path d = "M 126.56 107.81 L 128.91 206.25 L 133.59 201.56" stroke="white" fill="transparent"/>
	<path d = "M 412.50 105.47 L 410.16 217.97" stroke="white" fill="transparent"/>
	<path d = "M 124.22 203.91 L 164.06 234.38 L 222.66 255.47 L 271.88 264.84 L 375.00 255.47 L 398.44 241.41 L 403.12 232.03 L 400.78 225.00" stroke="white" fill="transparent"/>
	<path d = "M 121.88 154.69 L 18.75 201.56 L 4.69 234.38 L 18.75 269.53 L 60.94 292.97 L 150.00 323.44 L 257.81 342.19 L 351.56 342.19 L 478.12 337.50 L 562.50 302.34 L 597.66 260.16 L 592.97 241.41 L 578.91 222.66 L 527.34 173.44 L 492.19 161.72 L 398.44 152.34" stroke="white" fill="transparent"/>
	<path d = "M 0.00 236.72 L 28.12 328.12 L 25.78 421.88 L 124.22 435.94 L 351.56 447.66 L 464.06 442.97 L 534.38 426.56 L 581.25 433.59 L 595.31 225.00" stroke="white" fill="transparent"/>
	<path d = "M 215.62 0.00 L 220.31 53.91 L 208.59 107.81" stroke="white" fill="transparent"/>
</svg>