<?xml version="1.0" encoding="UTF-8" standalone="no"?>
<!--Created with ndjsontosvg (https:https://github.com/thompson318/ndjsontosvg) 
	from the simplified Google quickdraw data set. key_id = 4856949059354624-->
<svg width="600" height="600"
	xmlns="http://www.w3.org/2000/svg">
	xmlns:ndjsontosvg="https://github.com/thompson318/ndjsontosvg"
	xmlns:quickdraw="https://quickdraw.withgoogle.com/data"
	xmlns:scikit-surgery="https://doi.org/10.1007/s11548-020-02180-5">

	<rect width="100%" height="100%" fill="black" />
	<path d = "M 53.91 16.41 L 269.53 32.81 L 459.38 21.09 L 452.34 131.25 L 461.72 262.50 L 447.66 435.94 L 452.34 527.34 L 440.62 592.97 L 428.91 597.66 L 35.16 567.19 L 2.34 314.06 L 0.00 248.44 L 14.06 75.00 L 32.81 0.00" stroke="white" fill="transparent"/>
	<path d = "M 84.38 63.28 L 145.31 63.28 L 267.19 75.00 L 382.03 72.66 L 382.03 189.84 L 234.38 171.09 L 175.78 178.12 L 82.03 164.06 L 75.00 138.28 L 75.00 49.22" stroke="white" fill="transparent"/>
	<path d = "M 79.69 232.03 L 239.06 253.12 L 349.22 243.75 L 365.62 253.12 L 342.19 358.59 L 325.78 557.81 L 300.00 560.16 L 124.22 548.44 L 79.69 536.72 L 72.66 520.31 L 67.97 295.31 L 79.69 246.09" stroke="white" fill="transparent"/>
	<path d = "M 114.84 346.88 L 229.69 344.53 L 370.31 356.25" stroke="white" fill="transparent"/>
	<path d = "M 103.12 403.12 L 110.16 403.12" stroke="white" fill="transparent"/>
</svg>