<?xml version="1.0" encoding="UTF-8" standalone="no"?>
<!--Created with ndjsontosvg (https:https://github.com/thompson318/ndjsontosvg) 
	from the simplified Google quickdraw data set. key_id = 6519534624178176-->
<svg width="600" height="600"
	xmlns="http://www.w3.org/2000/svg">
	xmlns:ndjsontosvg="https://github.com/thompson318/ndjsontosvg"
	xmlns:quickdraw="https://quickdraw.withgoogle.com/data"
	xmlns:scikit-surgery="https://doi.org/10.1007/s11548-020-02180-5">

	<rect width="100%" height="100%" fill="black" />
	<path d = "M 0.00 4.69 L 189.84 46.88 L 403.12 60.94 L 569.53 89.06 L 578.91 107.81 L 592.97 199.22 L 597.66 386.72 L 585.94 478.12 L 396.09 501.56 L 157.03 452.34 L 103.12 424.22 L 84.38 363.28 L 44.53 281.25 L 30.47 110.16 L 11.72 0.00" stroke="white" fill="transparent"/>
	<path d = "M 126.56 96.09 L 142.97 154.69 L 124.22 161.72 L 112.50 154.69" stroke="white" fill="transparent"/>
	<path d = "M 145.31 84.38 L 89.06 75.00" stroke="white" fill="transparent"/>
	<path d = "M 208.59 128.91 L 239.06 159.38 L 255.47 121.88" stroke="white" fill="transparent"/>
	<path d = "M 271.88 124.22 L 290.62 159.38 L 328.12 119.53 L 346.88 138.28 L 358.59 166.41" stroke="white" fill="transparent"/>
	<path d = "M 400.78 157.03 L 414.84 128.91 L 396.09 112.50 L 386.72 112.50 L 377.34 131.25 L 377.34 161.72 L 386.72 171.09 L 426.56 187.50 L 461.72 178.12" stroke="white" fill="transparent"/>
	<path d = "M 534.38 215.62 L 325.78 180.47 L 285.94 180.47 L 225.00 194.53 L 135.94 194.53" stroke="white" fill="transparent"/>
</svg>