<?xml version="1.0" encoding="UTF-8" standalone="no"?>
<!--Created with ndjsontosvg (https:https://github.com/thompson318/ndjsontosvg) 
	from the simplified Google quickdraw data set. key_id = 4967156158562304-->
<svg width="600" height="600"
	xmlns="http://www.w3.org/2000/svg">
	xmlns:ndjsontosvg="https://github.com/thompson318/ndjsontosvg"
	xmlns:quickdraw="https://quickdraw.withgoogle.com/data"
	xmlns:scikit-surgery="https://doi.org/10.1007/s11548-020-02180-5">

	<rect width="100%" height="100%" fill="black" />
	<path d = "M 0.00 86.72 L 21.09 253.12 L 30.47 569.53 L 72.66 576.56 L 440.62 597.66 L 503.91 597.66 L 571.88 576.56 L 578.91 454.69 L 571.88 365.62 L 550.78 229.69 L 522.66 142.97 L 506.25 42.19 L 152.34 32.81 L 25.78 39.84 L 14.06 46.88" stroke="white" fill="transparent"/>
	<path d = "M 93.75 0.00 L 84.38 4.69 L 70.31 32.81 L 75.00 67.97 L 93.75 75.00 L 119.53 70.31 L 135.94 49.22 L 133.59 23.44 L 114.84 14.06 L 98.44 11.72 L 91.41 21.09 L 93.75 35.16" stroke="white" fill="transparent"/>
	<path d = "M 246.09 18.75 L 220.31 18.75 L 203.91 28.12 L 194.53 67.97 L 215.62 86.72 L 241.41 82.03 L 255.47 65.62 L 260.16 32.81 L 239.06 11.72 L 229.69 18.75 L 248.44 32.81" stroke="white" fill="transparent"/>
	<path d = "M 353.91 21.09 L 337.50 30.47 L 330.47 49.22 L 335.16 65.62 L 365.62 77.34 L 391.41 75.00 L 403.12 63.28 L 403.12 37.50 L 391.41 21.09 L 367.97 16.41 L 360.94 32.81 L 379.69 42.19" stroke="white" fill="transparent"/>
	<path d = "M 114.84 173.44 L 126.56 222.66 L 135.94 220.31" stroke="white" fill="transparent"/>
	<path d = "M 166.41 164.06 L 225.00 159.38 L 206.25 201.56 L 213.28 206.25 L 264.84 187.50" stroke="white" fill="transparent"/>
	<path d = "M 316.41 140.62 L 325.78 150.00 L 307.03 164.06 L 325.78 185.16 L 309.38 192.19 L 307.03 182.81" stroke="white" fill="transparent"/>
	<path d = "M 379.69 140.62 L 375.00 182.81 L 384.38 187.50 L 400.78 178.12 L 414.84 154.69 L 414.84 213.28 L 410.16 217.97" stroke="white" fill="transparent"/>
	<path d = "M 145.31 285.94 L 133.59 318.75 L 150.00 318.75 L 164.06 335.16 L 140.62 349.22 L 133.59 339.84 L 138.28 332.81" stroke="white" fill="transparent"/>
</svg>