<?xml version="1.0" encoding="UTF-8" standalone="no"?>
<!--Created with ndjsontosvg (https:https://github.com/thompson318/ndjsontosvg) 
	from the simplified Google quickdraw data set. key_id = 4732138568024064-->
<svg width="600" height="600"
	xmlns="http://www.w3.org/2000/svg">
	xmlns:ndjsontosvg="https://github.com/thompson318/ndjsontosvg"
	xmlns:quickdraw="https://quickdraw.withgoogle.com/data"
	xmlns:scikit-surgery="https://doi.org/10.1007/s11548-020-02180-5">

	<rect width="100%" height="100%" fill="black" />
	<path d = "M 51.56 14.06 L 18.75 18.75 L 0.00 44.53 L 0.00 70.31 L 11.72 91.41 L 37.50 96.09" stroke="white" fill="transparent"/>
	<path d = "M 72.66 7.03 L 82.03 0.00 L 107.81 0.00 L 133.59 37.50" stroke="white" fill="transparent"/>
	<path d = "M 140.62 16.41 L 157.03 142.97 L 182.81 175.78" stroke="white" fill="transparent"/>
	<path d = "M 51.56 126.56 L 72.66 171.09 L 105.47 274.22" stroke="white" fill="transparent"/>
	<path d = "M 208.59 201.56 L 234.38 84.38 L 264.84 44.53 L 276.56 39.84 L 288.28 44.53 L 292.97 53.91 L 318.75 178.12 L 330.47 182.81 L 346.88 166.41 L 360.94 72.66 L 375.00 51.56 L 403.12 39.84 L 431.25 42.19 L 440.62 56.25 L 471.09 164.06" stroke="white" fill="transparent"/>
	<path d = "M 114.84 292.97 L 173.44 330.47 L 189.84 346.88 L 164.06 555.47 L 112.50 567.19 L 110.16 581.25 L 119.53 592.97 L 185.16 597.66 L 192.19 585.94 L 213.28 506.25 L 229.69 363.28 L 227.34 517.97 L 217.97 555.47 L 239.06 560.16 L 210.94 578.91 L 276.56 581.25 L 278.91 428.91 L 264.84 384.38 L 260.16 346.88" stroke="white" fill="transparent"/>
</svg>