<?xml version="1.0" encoding="UTF-8" standalone="no"?>
<!--Created with ndjsontosvg (https:https://github.com/thompson318/ndjsontosvg) 
	from the simplified Google quickdraw data set. key_id = 5394132597997568-->
<svg width="600" height="600"
	xmlns="http://www.w3.org/2000/svg">
	xmlns:ndjsontosvg="https://github.com/thompson318/ndjsontosvg"
	xmlns:quickdraw="https://quickdraw.withgoogle.com/data"
	xmlns:scikit-surgery="https://doi.org/10.1007/s11548-020-02180-5">

	<rect width="100%" height="100%" fill="black" />
	<path d = "M 25.78 201.56 L 70.31 89.06 L 93.75 56.25 L 124.22 30.47 L 142.97 30.47 L 145.31 35.16 L 154.69 105.47 L 164.06 117.19 L 180.47 114.84 L 185.16 70.31 L 199.22 42.19 L 227.34 25.78 L 236.72 42.19 L 243.75 98.44 L 255.47 119.53 L 318.75 157.03 L 370.31 161.72 L 414.84 138.28 L 428.91 114.84 L 450.00 44.53 L 468.75 21.09 L 499.22 4.69 L 532.03 0.00 L 567.19 0.00 L 590.62 11.72 L 595.31 32.81 L 541.41 44.53 L 520.31 72.66 L 522.66 210.94 L 513.28 229.69 L 492.19 248.44 L 450.00 262.50 L 379.69 276.56 L 360.94 292.97 L 353.91 332.81 L 363.28 421.88 L 349.22 438.28 L 342.19 440.62 L 337.50 431.25" stroke="white" fill="transparent"/>
</svg>