<?xml version="1.0" encoding="UTF-8" standalone="no"?>
<!--Created with ndjsontosvg (https:https://github.com/thompson318/ndjsontosvg) 
	from the simplified Google quickdraw data set. key_id = 5007200806240256-->
<svg width="600" height="600"
	xmlns="http://www.w3.org/2000/svg">
	xmlns:ndjsontosvg="https://github.com/thompson318/ndjsontosvg"
	xmlns:quickdraw="https://quickdraw.withgoogle.com/data"
	xmlns:scikit-surgery="https://doi.org/10.1007/s11548-020-02180-5">

	<rect width="100%" height="100%" fill="black" />
	<path d = "M 597.66 16.41 L 592.97 2.34 L 562.50 2.34 L 513.28 35.16 L 487.50 63.28 L 454.69 72.66 L 421.88 67.97 L 375.00 35.16 L 356.25 30.47 L 330.47 42.19 L 307.03 72.66 L 274.22 35.16 L 246.09 18.75 L 225.00 23.44 L 192.19 53.91 L 168.75 9.38 L 142.97 4.69 L 105.47 23.44 L 89.06 93.75 L 14.06 154.69 L 9.38 217.97" stroke="white" fill="transparent"/>
	<path d = "M 9.38 222.66 L 4.69 257.81" stroke="white" fill="transparent"/>
	<path d = "M 0.00 257.81 L 28.12 257.81 L 53.91 185.16 L 79.69 168.75 L 105.47 168.75 L 110.16 278.91 L 142.97 283.59 L 175.78 276.56 L 175.78 241.41 L 213.28 159.38 L 234.38 201.56 L 276.56 330.47" stroke="white" fill="transparent"/>
</svg>