<?xml version="1.0" encoding="UTF-8" standalone="no"?>
<!--Created with ndjsontosvg (https:https://github.com/thompson318/ndjsontosvg) 
	from the simplified Google quickdraw data set. key_id = 6029116350398464-->
<svg width="600" height="600"
	xmlns="http://www.w3.org/2000/svg">
	xmlns:ndjsontosvg="https://github.com/thompson318/ndjsontosvg"
	xmlns:quickdraw="https://quickdraw.withgoogle.com/data"
	xmlns:scikit-surgery="https://doi.org/10.1007/s11548-020-02180-5">

	<rect width="100%" height="100%" fill="black" />
	<path d = "M 0.00 274.22 L 23.44 445.31 L 35.16 487.50 L 46.88 499.22 L 65.62 513.28 L 82.03 513.28 L 96.09 499.22 L 114.84 440.62 L 107.81 332.81 L 117.19 314.06 L 133.59 302.34 L 213.28 302.34 L 232.03 309.38 L 255.47 337.50 L 255.47 450.00 L 269.53 489.84 L 346.88 555.47 L 379.69 546.09 L 405.47 522.66 L 407.81 499.22 L 386.72 332.81 L 384.38 246.09 L 414.84 225.00 L 510.94 194.53 L 553.12 161.72 L 585.94 107.81 L 597.66 56.25 L 595.31 28.12 L 569.53 0.00 L 541.41 21.09 L 525.00 58.59 L 508.59 72.66 L 452.34 96.09 L 407.81 105.47 L 325.78 112.50 L 288.28 56.25 L 278.91 53.91 L 236.72 75.00 L 196.88 117.19 L 187.50 142.97 L 178.12 140.62 L 157.03 98.44 L 121.88 84.38 L 105.47 84.38 L 79.69 105.47 L 44.53 166.41 L 35.16 220.31 L 9.38 281.25" stroke="white" fill="transparent"/>
</svg>