<?xml version="1.0" encoding="UTF-8" standalone="no"?>
<!--Created with ndjsontosvg (https:https://github.com/thompson318/ndjsontosvg) 
	from the simplified Google quickdraw data set. key_id = 4560372105216000-->
<svg width="600" height="600"
	xmlns="http://www.w3.org/2000/svg">
	xmlns:ndjsontosvg="https://github.com/thompson318/ndjsontosvg"
	xmlns:quickdraw="https://quickdraw.withgoogle.com/data"
	xmlns:scikit-surgery="https://doi.org/10.1007/s11548-020-02180-5">

	<rect width="100%" height="100%" fill="black" />
	<path d = "M 49.22 173.44 L 16.41 154.69 L 0.00 126.56 L 7.03 93.75 L 30.47 70.31 L 56.25 65.62 L 75.00 77.34 L 100.78 135.94 L 117.19 150.00 L 145.31 154.69 L 192.19 145.31 L 201.56 133.59 L 227.34 18.75 L 241.41 4.69 L 253.12 2.34 L 274.22 119.53 L 283.59 135.94 L 304.69 147.66 L 325.78 119.53 L 349.22 28.12 L 365.62 9.38 L 386.72 2.34 L 405.47 23.44 L 433.59 168.75 L 447.66 187.50 L 471.09 196.88" stroke="white" fill="transparent"/>
	<path d = "M 471.09 194.53 L 471.09 196.88" stroke="white" fill="transparent"/>
	<path d = "M 471.09 194.53 L 543.75 182.81 L 574.22 189.84 L 590.62 232.03 L 597.66 288.28 L 583.59 393.75 L 548.44 478.12 L 536.72 492.19 L 515.62 494.53 L 501.56 478.12 L 475.78 365.62 L 461.72 346.88 L 450.00 367.97 L 438.28 428.91 L 421.88 454.69 L 398.44 475.78" stroke="white" fill="transparent"/>
</svg>