<?xml version="1.0" encoding="UTF-8" standalone="no"?>
<!--Created with ndjsontosvg (https:https://github.com/thompson318/ndjsontosvg) 
	from the simplified Google quickdraw data set. key_id = 4575676784967680-->
<svg width="600" height="600"
	xmlns="http://www.w3.org/2000/svg">
	xmlns:ndjsontosvg="https://github.com/thompson318/ndjsontosvg"
	xmlns:quickdraw="https://quickdraw.withgoogle.com/data"
	xmlns:scikit-surgery="https://doi.org/10.1007/s11548-020-02180-5">

	<rect width="100%" height="100%" fill="black" />
	<path d = "M 154.69 0.00 L 23.44 39.84 L 7.03 53.91 L 0.00 79.69 L 14.06 107.81 L 44.53 119.53 L 159.38 105.47 L 178.12 117.19 L 185.16 154.69 L 178.12 332.81" stroke="white" fill="transparent"/>
	<path d = "M 159.38 16.41 L 154.69 9.38 L 185.16 4.69 L 239.06 16.41 L 250.78 56.25 L 250.78 124.22 L 276.56 171.09 L 300.00 185.16 L 337.50 185.16 L 377.34 114.84 L 405.47 107.81 L 426.56 114.84 L 431.25 126.56 L 442.97 199.22 L 515.62 194.53 L 522.66 152.34 L 543.75 121.88 L 555.47 119.53 L 571.88 154.69 L 578.91 208.59 L 592.97 222.66 L 597.66 253.12 L 574.22 344.53 L 555.47 360.94 L 536.72 360.94" stroke="white" fill="transparent"/>
	<path d = "M 159.38 307.03 L 175.78 330.47 L 189.84 433.59" stroke="white" fill="transparent"/>
</svg>