<?xml version="1.0" encoding="UTF-8" standalone="no"?>
<!--Created with ndjsontosvg (https:https://github.com/thompson318/ndjsontosvg) 
	from the simplified Google quickdraw data set. key_id = 4877205857370112-->
<svg width="600" height="600"
	xmlns="http://www.w3.org/2000/svg">
	xmlns:ndjsontosvg="https://github.com/thompson318/ndjsontosvg"
	xmlns:quickdraw="https://quickdraw.withgoogle.com/data"
	xmlns:scikit-surgery="https://doi.org/10.1007/s11548-020-02180-5">

	<rect width="100%" height="100%" fill="black" />
	<path d = "M 119.53 199.22 L 114.84 126.56 L 119.53 105.47 L 128.91 86.72 L 161.72 75.00 L 196.88 75.00 L 213.28 89.06 L 225.00 117.19 L 234.38 166.41 L 250.78 187.50 L 274.22 189.84 L 290.62 180.47 L 311.72 150.00 L 323.44 82.03 L 349.22 75.00 L 367.97 75.00 L 386.72 96.09 L 407.81 147.66 L 438.28 168.75 L 459.38 168.75 L 475.78 157.03 L 501.56 110.16 L 506.25 11.72 L 520.31 0.00 L 555.47 0.00 L 576.56 16.41 L 597.66 60.94 L 592.97 119.53 L 564.84 180.47 L 473.44 267.19 L 457.03 290.62 L 419.53 318.75 L 344.53 325.78 L 253.12 325.78 L 168.75 281.25 L 126.56 239.06 L 114.84 185.16 L 91.41 208.59 L 79.69 210.94 L 25.78 201.56 L 0.00 175.78" stroke="white" fill="transparent"/>
	<path d = "M 133.59 302.34 L 126.56 433.59 L 142.97 426.56 L 180.47 314.06" stroke="white" fill="transparent"/>
	<path d = "M 203.91 295.31 L 185.16 419.53 L 194.53 419.53 L 241.41 370.31 L 248.44 295.31" stroke="white" fill="transparent"/>
	<path d = "M 353.91 309.38 L 351.56 370.31 L 396.09 421.88 L 403.12 323.44" stroke="white" fill="transparent"/>
	<path d = "M 454.69 274.22 L 452.34 316.41 L 482.81 384.38 L 496.88 386.72 L 494.53 318.75" stroke="white" fill="transparent"/>
</svg>