<?xml version="1.0" encoding="UTF-8" standalone="no"?>
<!--Created with ndjsontosvg (https:https://github.com/thompson318/ndjsontosvg) 
	from the simplified Google quickdraw data set. key_id = 5289798535217152-->
<svg width="600" height="600"
	xmlns="http://www.w3.org/2000/svg">
	xmlns:ndjsontosvg="https://github.com/thompson318/ndjsontosvg"
	xmlns:quickdraw="https://quickdraw.withgoogle.com/data"
	xmlns:scikit-surgery="https://doi.org/10.1007/s11548-020-02180-5">

	<rect width="100%" height="100%" fill="black" />
	<path d = "M 135.94 23.44 L 117.19 16.41 L 112.50 51.56 L 112.50 208.59 L 121.88 246.09 L 210.94 232.03 L 304.69 229.69 L 440.62 260.16 L 522.66 206.25 L 597.66 182.81 L 564.84 63.28 L 553.12 44.53 L 532.03 32.81 L 487.50 32.81 L 435.94 49.22 L 372.66 16.41 L 283.59 2.34 L 210.94 0.00 L 166.41 9.38 L 133.59 30.47" stroke="white" fill="transparent"/>
	<path d = "M 210.94 56.25 L 225.00 58.59 L 203.91 75.00 L 189.84 100.78 L 187.50 140.62 L 217.97 152.34 L 288.28 131.25 L 241.41 182.81 L 321.09 175.78 L 386.72 145.31 L 407.81 145.31 L 412.50 157.03 L 398.44 182.81 L 382.03 180.47 L 323.44 138.28 L 290.62 93.75 L 278.91 39.84 L 248.44 30.47 L 232.03 32.81 L 213.28 46.88 L 208.59 58.59 L 215.62 60.94 L 302.34 65.62 L 389.06 53.91 L 421.88 65.62 L 452.34 107.81 L 407.81 138.28 L 370.31 154.69 L 314.06 161.72 L 220.31 135.94 L 157.03 187.50 L 124.22 192.19 L 60.94 196.88 L 16.41 189.84 L 0.00 178.12 L 0.00 164.06 L 18.75 135.94 L 65.62 98.44 L 114.84 91.41 L 178.12 119.53 L 339.84 142.97 L 403.12 159.38 L 440.62 185.16 L 461.72 217.97 L 494.53 234.38 L 506.25 192.19 L 499.22 112.50 L 431.25 98.44 L 300.00 147.66 L 264.84 150.00 L 250.78 140.62" stroke="white" fill="transparent"/>
</svg>