<?xml version="1.0" encoding="UTF-8" standalone="no"?>
<!--Created with ndjsontosvg (https:https://github.com/thompson318/ndjsontosvg) 
	from the simplified Google quickdraw data set. key_id = 4706003226460160-->
<svg width="600" height="600"
	xmlns="http://www.w3.org/2000/svg">
	xmlns:ndjsontosvg="https://github.com/thompson318/ndjsontosvg"
	xmlns:quickdraw="https://quickdraw.withgoogle.com/data"
	xmlns:scikit-surgery="https://doi.org/10.1007/s11548-020-02180-5">

	<rect width="100%" height="100%" fill="black" />
	<path d = "M 318.75 100.78 L 250.78 30.47 L 178.12 2.34 L 128.91 2.34 L 110.16 9.38 L 79.69 35.16 L 35.16 96.09 L 14.06 131.25 L 2.34 180.47 L 0.00 227.34 L 11.72 264.84 L 124.22 382.03 L 178.12 452.34 L 229.69 487.50 L 302.34 501.56 L 389.06 496.88 L 562.50 414.84 L 588.28 386.72 L 597.66 358.59 L 597.66 297.66 L 583.59 250.78 L 564.84 203.91 L 536.72 175.78 L 468.75 150.00 L 379.69 138.28 L 260.16 77.34" stroke="white" fill="transparent"/>
	<path d = "M 431.25 124.22 L 379.69 278.91 L 379.69 351.56 L 475.78 450.00 L 515.62 452.34 L 520.31 440.62 L 520.31 370.31 L 482.81 248.44 L 475.78 241.41 L 457.03 264.84 L 431.25 330.47 L 419.53 428.91 L 426.56 398.44 L 426.56 189.84 L 410.16 56.25 L 398.44 121.88 L 403.12 255.47 L 419.53 276.56 L 440.62 271.88 L 466.41 246.09 L 475.78 217.97 L 475.78 208.59 L 457.03 213.28 L 417.19 262.50 L 405.47 297.66 L 433.59 311.72 L 466.41 314.06 L 475.78 307.03 L 494.53 262.50 L 494.53 206.25 L 478.12 217.97 L 452.34 267.19 L 438.28 328.12 L 440.62 337.50 L 464.06 358.59 L 499.22 365.62 L 508.59 356.25 L 513.28 302.34 L 501.56 250.78 L 457.03 178.12 L 445.31 187.50 L 435.94 213.28 L 433.59 274.22 L 442.97 314.06 L 478.12 360.94 L 499.22 379.69 L 550.78 386.72 L 571.88 363.28 L 576.56 288.28 L 550.78 232.03 L 539.06 227.34 L 506.25 250.78 L 473.44 292.97 L 461.72 323.44 L 461.72 356.25 L 489.84 391.41 L 534.38 417.19 L 548.44 405.47 L 541.41 346.88 L 503.91 267.19 L 478.12 260.16 L 445.31 288.28 L 438.28 311.72 L 440.62 356.25 L 457.03 386.72 L 503.91 419.53 L 562.50 426.56 L 585.94 414.84 L 597.66 382.03 L 597.66 325.78 L 574.22 264.84 L 529.69 192.19 L 489.84 189.84 L 454.69 213.28 L 435.94 239.06 L 440.62 321.09 L 464.06 344.53 L 239.06 328.12" stroke="white" fill="transparent"/>
	<path d = "M 93.75 335.16 L 117.19 325.78 L 166.41 325.78 L 194.53 337.50 L 215.62 367.97 L 217.97 410.16 L 201.56 431.25 L 185.16 433.59 L 180.47 346.88 L 171.09 346.88 L 168.75 356.25 L 168.75 384.38 L 182.81 428.91 L 201.56 438.28 L 203.91 414.84 L 187.50 386.72 L 150.00 372.66 L 121.88 372.66 L 117.19 384.38 L 135.94 403.12 L 157.03 410.16 L 150.00 372.66 L 126.56 330.47 L 119.53 337.50 L 124.22 356.25 L 154.69 398.44 L 206.25 440.62 L 210.94 431.25 L 206.25 414.84 L 173.44 372.66 L 166.41 372.66 L 166.41 382.03 L 196.88 426.56 L 213.28 438.28" stroke="white" fill="transparent"/>
	<path d = "M 60.94 70.31 L 70.31 89.06 L 119.53 128.91 L 171.09 150.00 L 236.72 112.50 L 264.84 89.06 L 278.91 37.50 L 267.19 32.81 L 194.53 79.69 L 182.81 100.78 L 192.19 105.47 L 196.88 89.06 L 157.03 84.38 L 105.47 114.84 L 98.44 121.88 L 112.50 124.22 L 196.88 128.91 L 208.59 117.19 L 199.22 93.75 L 152.34 77.34 L 145.31 98.44 L 159.38 121.88 L 185.16 128.91 L 196.88 124.22 L 210.94 103.12 L 210.94 77.34 L 175.78 56.25 L 135.94 53.91 L 114.84 60.94 L 89.06 79.69 L 79.69 98.44 L 91.41 117.19 L 152.34 154.69 L 192.19 175.78 L 232.03 182.81 L 246.09 182.81 L 250.78 157.03 L 180.47 56.25 L 157.03 35.16 L 86.72 28.12 L 114.84 67.97 L 145.31 89.06 L 194.53 98.44 L 194.53 67.97 L 168.75 7.03 L 157.03 2.34 L 154.69 44.53 L 166.41 98.44 L 189.84 142.97" stroke="white" fill="transparent"/>
	<path d = "M 232.03 246.09 L 222.66 246.09 L 222.66 300.00 L 243.75 304.69 L 264.84 300.00 L 274.22 290.62 L 276.56 276.56 L 257.81 246.09 L 248.44 241.41 L 236.72 255.47 L 243.75 264.84 L 246.09 250.78 L 241.41 243.75 L 236.72 250.78 L 236.72 276.56 L 246.09 300.00 L 250.78 288.28 L 241.41 271.88 L 234.38 267.19 L 227.34 274.22 L 234.38 274.22 L 239.06 264.84 L 232.03 264.84 L 232.03 271.88 L 239.06 285.94" stroke="white" fill="transparent"/>
</svg>