<?xml version="1.0" encoding="UTF-8" standalone="no"?>
<!--Created with ndjsontosvg (https:https://github.com/thompson318/ndjsontosvg) 
	from the simplified Google quickdraw data set. key_id = 6382769343037440-->
<svg width="600" height="600"
	xmlns="http://www.w3.org/2000/svg">
	xmlns:ndjsontosvg="https://github.com/thompson318/ndjsontosvg"
	xmlns:quickdraw="https://quickdraw.withgoogle.com/data"
	xmlns:scikit-surgery="https://doi.org/10.1007/s11548-020-02180-5">

	<rect width="100%" height="100%" fill="black" />
	<path d = "M 241.41 445.31 L 173.44 494.53 L 53.91 548.44" stroke="white" fill="transparent"/>
	<path d = "M 250.78 468.75 L 171.09 494.53 L 91.41 546.09" stroke="white" fill="transparent"/>
	<path d = "M 206.25 421.88 L 128.91 548.44" stroke="white" fill="transparent"/>
	<path d = "M 152.34 384.38 L 147.66 564.84" stroke="white" fill="transparent"/>
	<path d = "M 51.56 506.25 L 128.91 520.31 L 274.22 525.00" stroke="white" fill="transparent"/>
	<path d = "M 37.50 492.19 L 110.16 503.91 L 208.59 503.91 L 264.84 517.97" stroke="white" fill="transparent"/>
	<path d = "M 0.00 452.34 L 278.91 513.28" stroke="white" fill="transparent"/>
	<path d = "M 86.72 375.00 L 180.47 550.78 L 210.94 597.66" stroke="white" fill="transparent"/>
	<path d = "M 150.00 492.19 L 37.50 386.72 L 18.75 349.22 L 11.72 311.72 L 14.06 278.91 L 51.56 220.31 L 86.72 21.09 L 100.78 25.78 L 112.50 51.56 L 96.09 103.12 L 96.09 140.62 L 103.12 152.34 L 182.81 16.41 L 196.88 2.34 L 213.28 2.34 L 217.97 51.56 L 196.88 168.75 L 196.88 201.56 L 311.72 119.53 L 339.84 112.50 L 346.88 124.22 L 297.66 260.16 L 234.38 398.44" stroke="white" fill="transparent"/>
</svg>