<?xml version="1.0" encoding="UTF-8" standalone="no"?>
<!--Created with ndjsontosvg (https:https://github.com/thompson318/ndjsontosvg) 
	from the simplified Google quickdraw data set. key_id = 6206811176697856-->
<svg width="600" height="600"
	xmlns="http://www.w3.org/2000/svg">
	xmlns:ndjsontosvg="https://github.com/thompson318/ndjsontosvg"
	xmlns:quickdraw="https://quickdraw.withgoogle.com/data"
	xmlns:scikit-surgery="https://doi.org/10.1007/s11548-020-02180-5">

	<rect width="100%" height="100%" fill="black" />
	<path d = "M 351.56 189.84 L 353.91 304.69 L 379.69 337.50 L 410.16 346.88 L 485.16 344.53 L 571.88 323.44 L 581.25 309.38 L 583.59 285.94 L 567.19 213.28 L 567.19 159.38 L 506.25 175.78 L 377.34 194.53" stroke="white" fill="transparent"/>
	<path d = "M 442.97 185.16 L 435.94 145.31" stroke="white" fill="transparent"/>
	<path d = "M 412.50 147.66 L 396.09 142.97 L 370.31 107.81 L 391.41 56.25 L 391.41 30.47 L 375.00 16.41" stroke="white" fill="transparent"/>
	<path d = "M 400.78 142.97 L 419.53 138.28 L 438.28 121.88 L 440.62 93.75 L 407.81 35.16 L 379.69 0.00" stroke="white" fill="transparent"/>
	<path d = "M 14.06 513.28 L 14.06 585.94 L 23.44 595.31 L 126.56 592.97 L 138.28 567.19 L 126.56 482.81 L 23.44 508.59" stroke="white" fill="transparent"/>
	<path d = "M 56.25 487.50 L 49.22 440.62" stroke="white" fill="transparent"/>
	<path d = "M 44.53 445.31 L 18.75 433.59 L 0.00 412.50 L 2.34 398.44 L 23.44 360.94 L 25.78 304.69" stroke="white" fill="transparent"/>
	<path d = "M 39.84 435.94 L 70.31 426.56 L 77.34 398.44 L 25.78 300.00" stroke="white" fill="transparent"/>
</svg>