<?xml version="1.0" encoding="UTF-8" standalone="no"?>
<!--Created with ndjsontosvg (https:https://github.com/thompson318/ndjsontosvg) 
	from the simplified Google quickdraw data set. key_id = 6295246214266880-->
<svg width="600" height="600"
	xmlns="http://www.w3.org/2000/svg">
	xmlns:ndjsontosvg="https://github.com/thompson318/ndjsontosvg"
	xmlns:quickdraw="https://quickdraw.withgoogle.com/data"
	xmlns:scikit-surgery="https://doi.org/10.1007/s11548-020-02180-5">

	<rect width="100%" height="100%" fill="black" />
	<path d = "M 126.56 271.88 L 114.84 271.88 L 112.50 302.34 L 128.91 574.22" stroke="white" fill="transparent"/>
	<path d = "M 126.56 271.88 L 154.69 290.62 L 234.38 309.38 L 274.22 304.69 L 314.06 281.25 L 307.03 400.78 L 332.81 529.69 L 325.78 557.81 L 285.94 583.59 L 213.28 597.66 L 145.31 597.66" stroke="white" fill="transparent"/>
	<path d = "M 229.69 178.12 L 215.62 199.22 L 206.25 328.12" stroke="white" fill="transparent"/>
	<path d = "M 225.00 178.12 L 210.94 178.12 L 161.72 145.31 L 152.34 117.19 L 159.38 70.31 L 185.16 37.50 L 203.91 2.34 L 215.62 0.00 L 229.69 9.38 L 262.50 65.62 L 278.91 126.56 L 278.91 157.03 L 269.53 168.75 L 236.72 185.16 L 210.94 215.62" stroke="white" fill="transparent"/>
	<path d = "M 65.62 527.34 L 0.00 532.03" stroke="white" fill="transparent"/>
</svg>