<?xml version="1.0" encoding="UTF-8" standalone="no"?>
<!--Created with ndjsontosvg (https:https://github.com/thompson318/ndjsontosvg) 
	from the simplified Google quickdraw data set. key_id = 5175925530427392-->
<svg width="600" height="600"
	xmlns="http://www.w3.org/2000/svg">
	xmlns:ndjsontosvg="https://github.com/thompson318/ndjsontosvg"
	xmlns:quickdraw="https://quickdraw.withgoogle.com/data"
	xmlns:scikit-surgery="https://doi.org/10.1007/s11548-020-02180-5">

	<rect width="100%" height="100%" fill="black" />
	<path d = "M 227.34 91.41 L 196.88 93.75 L 194.53 117.19 L 201.56 133.59 L 253.12 152.34 L 269.53 142.97 L 269.53 117.19 L 225.00 105.47" stroke="white" fill="transparent"/>
	<path d = "M 196.88 105.47 L 189.84 121.88 L 173.44 243.75 L 164.06 501.56 L 213.28 510.94 L 262.50 508.59 L 264.84 330.47 L 283.59 208.59 L 283.59 154.69 L 276.56 142.97" stroke="white" fill="transparent"/>
	<path d = "M 232.03 114.84 L 208.59 11.72 L 213.28 32.81 L 222.66 32.81 L 239.06 0.00 L 239.06 18.75 L 248.44 14.06 L 253.12 77.34 L 262.50 46.88 L 260.16 75.00 L 241.41 112.50" stroke="white" fill="transparent"/>
	<path d = "M 114.84 424.22 L 60.94 424.22 L 30.47 442.97 L 4.69 482.81 L 0.00 501.56 L 7.03 510.94 L 72.66 560.16 L 128.91 588.28 L 171.09 597.66 L 316.41 597.66 L 356.25 571.88 L 379.69 541.41 L 389.06 506.25 L 386.72 464.06 L 358.59 426.56 L 323.44 412.50 L 276.56 410.16" stroke="white" fill="transparent"/>
	<path d = "M 414.84 459.38 L 506.25 503.91 L 517.97 522.66 L 517.97 543.75 L 506.25 550.78 L 405.47 550.78" stroke="white" fill="transparent"/>
</svg>