<?xml version="1.0" encoding="UTF-8" standalone="no"?>
<!--Created with ndjsontosvg (https:https://github.com/thompson318/ndjsontosvg) 
	from the simplified Google quickdraw data set. key_id = 6154086778929152-->
<svg width="600" height="600"
	xmlns="http://www.w3.org/2000/svg">
	xmlns:ndjsontosvg="https://github.com/thompson318/ndjsontosvg"
	xmlns:quickdraw="https://quickdraw.withgoogle.com/data"
	xmlns:scikit-surgery="https://doi.org/10.1007/s11548-020-02180-5">

	<rect width="100%" height="100%" fill="black" />
	<path d = "M 2.34 539.06 L 18.75 461.72 L 28.12 187.50 L 161.72 203.91 L 199.22 220.31 L 225.00 246.09 L 227.34 389.06 L 246.09 428.91 L 243.75 461.72 L 264.84 550.78 L 262.50 585.94 L 246.09 595.31 L 217.97 595.31 L 37.50 532.03 L 0.00 527.34" stroke="white" fill="transparent"/>
	<path d = "M 112.50 178.12 L 70.31 138.28 L 67.97 110.16 L 114.84 72.66 L 161.72 63.28 L 180.47 77.34 L 175.78 145.31 L 215.62 180.47 L 215.62 201.56 L 192.19 215.62 L 161.72 217.97 L 140.62 213.28 L 89.06 180.47 L 82.03 161.72 L 103.12 131.25 L 157.03 86.72 L 166.41 67.97 L 161.72 44.53 L 147.66 30.47 L 107.81 7.03 L 77.34 4.69 L 63.28 28.12 L 84.38 51.56 L 157.03 100.78 L 157.03 131.25 L 128.91 152.34 L 86.72 166.41 L 56.25 164.06 L 37.50 152.34 L 39.84 135.94 L 70.31 107.81 L 166.41 60.94 L 196.88 37.50 L 199.22 23.44 L 180.47 2.34 L 154.69 11.72 L 150.00 42.19 L 161.72 63.28 L 203.91 100.78 L 241.41 107.81 L 250.78 119.53 L 239.06 147.66 L 210.94 192.19 L 178.12 206.25" stroke="white" fill="transparent"/>
</svg>