<?xml version="1.0" encoding="UTF-8" standalone="no"?>
<!--Created with ndjsontosvg (https:https://github.com/thompson318/ndjsontosvg) 
	from the simplified Google quickdraw data set. key_id = 5864408045584384-->
<svg width="600" height="600"
	xmlns="http://www.w3.org/2000/svg">
	xmlns:ndjsontosvg="https://github.com/thompson318/ndjsontosvg"
	xmlns:quickdraw="https://quickdraw.withgoogle.com/data"
	xmlns:scikit-surgery="https://doi.org/10.1007/s11548-020-02180-5">

	<rect width="100%" height="100%" fill="black" />
	<path d = "M 11.72 49.22 L 0.00 49.22 L 7.03 121.88 L 25.78 171.09 L 39.84 180.47 L 51.56 178.12 L 77.34 152.34 L 98.44 89.06 L 100.78 51.56 L 93.75 25.78 L 70.31 9.38 L 25.78 0.00 L 11.72 18.75" stroke="white" fill="transparent"/>
	<path d = "M 119.53 21.09 L 121.88 32.81 L 255.47 105.47 L 391.41 166.41 L 508.59 201.56 L 560.16 227.34" stroke="white" fill="transparent"/>
	<path d = "M 581.25 276.56 L 578.91 292.97 L 592.97 335.16 L 597.66 386.72 L 567.19 457.03 L 515.62 501.56 L 461.72 522.66 L 419.53 529.69 L 360.94 522.66 L 253.12 473.44 L 203.91 426.56 L 147.66 328.12 L 46.88 180.47" stroke="white" fill="transparent"/>
	<path d = "M 517.97 168.75 L 515.62 260.16" stroke="white" fill="transparent"/>
</svg>