<?xml version="1.0" encoding="UTF-8" standalone="no"?>
<!--Created with ndjsontosvg (https:https://github.com/thompson318/ndjsontosvg) 
	from the simplified Google quickdraw data set. key_id = 5657148845457408-->
<svg width="600" height="600"
	xmlns="http://www.w3.org/2000/svg">
	xmlns:ndjsontosvg="https://github.com/thompson318/ndjsontosvg"
	xmlns:quickdraw="https://quickdraw.withgoogle.com/data"
	xmlns:scikit-surgery="https://doi.org/10.1007/s11548-020-02180-5">

	<rect width="100%" height="100%" fill="black" />
	<path d = "M 431.25 21.09 L 445.31 2.34 L 527.34 0.00 L 590.62 44.53 L 597.66 105.47 L 560.16 150.00 L 461.72 175.78 L 396.09 154.69 L 384.38 121.88 L 389.06 30.47 L 403.12 4.69 L 419.53 0.00" stroke="white" fill="transparent"/>
	<path d = "M 410.16 37.50 L 349.22 72.66 L 283.59 93.75 L 133.59 121.88" stroke="white" fill="transparent"/>
	<path d = "M 527.34 178.12 L 508.59 180.47 L 464.06 210.94 L 239.06 283.59" stroke="white" fill="transparent"/>
	<path d = "M 37.50 185.16 L 79.69 147.66 L 206.25 164.06 L 271.88 208.59 L 285.94 307.03 L 225.00 372.66 L 32.81 377.34 L 0.00 288.28 L 28.12 189.84 L 70.31 154.69" stroke="white" fill="transparent"/>
	<path d = "M 117.19 232.03 L 138.28 229.69 L 159.38 276.56 L 124.22 267.19 L 126.56 255.47" stroke="white" fill="transparent"/>
</svg>