<?xml version="1.0" encoding="UTF-8" standalone="no"?>
<!--Created with ndjsontosvg (https:https://github.com/thompson318/ndjsontosvg) 
	from the simplified Google quickdraw data set. key_id = 4519356039954432-->
<svg width="600" height="600"
	xmlns="http://www.w3.org/2000/svg">
	xmlns:ndjsontosvg="https://github.com/thompson318/ndjsontosvg"
	xmlns:quickdraw="https://quickdraw.withgoogle.com/data"
	xmlns:scikit-surgery="https://doi.org/10.1007/s11548-020-02180-5">

	<rect width="100%" height="100%" fill="black" />
	<path d = "M 564.84 2.34 L 564.84 53.91 L 578.91 82.03 L 588.28 89.06 L 597.66 70.31 L 597.66 35.16 L 592.97 11.72 L 581.25 2.34 L 546.09 2.34 L 459.38 21.09 L 225.00 119.53 L 131.25 168.75 L 107.81 199.22 L 100.78 253.12 L 119.53 304.69 L 210.94 314.06 L 248.44 283.59 L 307.03 215.62 L 459.38 140.62 L 555.47 107.81 L 578.91 91.41" stroke="white" fill="transparent"/>
	<path d = "M 135.94 168.75 L 70.31 135.94 L 67.97 126.56" stroke="white" fill="transparent"/>
	<path d = "M 53.91 124.22 L 75.00 131.25 L 79.69 112.50 L 70.31 107.81 L 56.25 107.81 L 53.91 119.53 L 82.03 131.25 L 82.03 121.88 L 72.66 117.19 L 46.88 124.22 L 49.22 112.50 L 37.50 105.47 L 14.06 152.34 L 0.00 196.88 L 18.75 140.62 L 28.12 131.25 L 37.50 124.22 L 42.19 133.59 L 70.31 135.94" stroke="white" fill="transparent"/>
</svg>