<?xml version="1.0" encoding="UTF-8" standalone="no"?>
<!--Created with ndjsontosvg (https:https://github.com/thompson318/ndjsontosvg) 
	from the simplified Google quickdraw data set. key_id = 4911068113534976-->
<svg width="600" height="600"
	xmlns="http://www.w3.org/2000/svg">
	xmlns:ndjsontosvg="https://github.com/thompson318/ndjsontosvg"
	xmlns:quickdraw="https://quickdraw.withgoogle.com/data"
	xmlns:scikit-surgery="https://doi.org/10.1007/s11548-020-02180-5">

	<rect width="100%" height="100%" fill="black" />
	<path d = "M 557.81 0.00 L 597.66 159.38 L 534.38 161.72 L 417.19 194.53 L 257.81 227.34 L 253.12 227.34 L 248.44 215.62 L 250.78 103.12 L 246.09 56.25 L 323.44 32.81 L 433.59 32.81 L 555.47 9.38" stroke="white" fill="transparent"/>
	<path d = "M 255.47 51.56 L 152.34 58.59 L 93.75 75.00 L 35.16 119.53 L 4.69 166.41 L 2.34 206.25 L 18.75 222.66 L 131.25 241.41 L 300.00 220.31" stroke="white" fill="transparent"/>
	<path d = "M 142.97 227.34 L 98.44 236.72 L 63.28 253.12 L 32.81 281.25 L 30.47 304.69 L 39.84 328.12 L 91.41 365.62 L 138.28 367.97 L 182.81 351.56 L 217.97 316.41 L 232.03 290.62 L 232.03 276.56 L 222.66 260.16 L 133.59 222.66" stroke="white" fill="transparent"/>
	<path d = "M 67.97 250.78 L 133.59 300.00 L 199.22 360.94" stroke="white" fill="transparent"/>
	<path d = "M 208.59 241.41 L 154.69 269.53 L 103.12 314.06 L 44.53 393.75" stroke="white" fill="transparent"/>
	<path d = "M 145.31 217.97 L 140.62 379.69" stroke="white" fill="transparent"/>
	<path d = "M 35.16 276.56 L 93.75 290.62 L 196.88 292.97" stroke="white" fill="transparent"/>
</svg>