<?xml version="1.0" encoding="UTF-8" standalone="no"?>
<!--Created with ndjsontosvg (https:https://github.com/thompson318/ndjsontosvg) 
	from the simplified Google quickdraw data set. key_id = 5750581345910784-->
<svg width="600" height="600"
	xmlns="http://www.w3.org/2000/svg">
	xmlns:ndjsontosvg="https://github.com/thompson318/ndjsontosvg"
	xmlns:quickdraw="https://quickdraw.withgoogle.com/data"
	xmlns:scikit-surgery="https://doi.org/10.1007/s11548-020-02180-5">

	<rect width="100%" height="100%" fill="black" />
	<path d = "M 110.16 213.28 L 126.56 199.22 L 199.22 166.41 L 428.91 79.69" stroke="white" fill="transparent"/>
	<path d = "M 105.47 304.69 L 187.50 281.25 L 285.94 236.72 L 445.31 180.47" stroke="white" fill="transparent"/>
	<path d = "M 541.41 0.00 L 513.28 21.09 L 468.75 79.69 L 424.22 161.72 L 424.22 201.56 L 438.28 208.59 L 499.22 203.91 L 532.03 185.16 L 578.91 133.59 L 597.66 79.69 L 597.66 56.25 L 588.28 35.16 L 567.19 21.09 L 510.94 16.41" stroke="white" fill="transparent"/>
	<path d = "M 105.47 178.12 L 30.47 321.09 L 2.34 414.84 L 0.00 447.66" stroke="white" fill="transparent"/>
	<path d = "M 126.56 325.78 L 91.41 332.81 L 70.31 356.25 L 42.19 431.25 L 42.19 501.56 L 53.91 529.69 L 79.69 546.09 L 112.50 555.47 L 164.06 548.44 L 182.81 517.97 L 189.84 475.78 L 187.50 405.47 L 152.34 351.56 L 112.50 323.44" stroke="white" fill="transparent"/>
	<path d = "M 318.75 257.81 L 304.69 264.84 L 269.53 351.56 L 262.50 457.03 L 264.84 489.84 L 276.56 506.25 L 300.00 520.31 L 330.47 520.31 L 367.97 506.25 L 398.44 473.44 L 428.91 412.50 L 428.91 372.66 L 421.88 339.84 L 386.72 302.34 L 346.88 274.22 L 300.00 262.50" stroke="white" fill="transparent"/>
	<path d = "M 91.41 321.09 L 117.19 353.91 L 110.16 541.41" stroke="white" fill="transparent"/>
	<path d = "M 70.31 417.19 L 171.09 414.84" stroke="white" fill="transparent"/>
	<path d = "M 356.25 264.84 L 367.97 464.06" stroke="white" fill="transparent"/>
	<path d = "M 248.44 393.75 L 248.44 393.75" stroke="white" fill="transparent"/>
</svg>