<?xml version="1.0" encoding="UTF-8" standalone="no"?>
<!--Created with ndjsontosvg (https:https://github.com/thompson318/ndjsontosvg) 
	from the simplified Google quickdraw data set. key_id = 5073821268705280-->
<svg width="600" height="600"
	xmlns="http://www.w3.org/2000/svg">
	xmlns:ndjsontosvg="https://github.com/thompson318/ndjsontosvg"
	xmlns:quickdraw="https://quickdraw.withgoogle.com/data"
	xmlns:scikit-surgery="https://doi.org/10.1007/s11548-020-02180-5">

	<rect width="100%" height="100%" fill="black" />
	<path d = "M 32.81 328.12 L 30.47 262.50 L 37.50 239.06 L 79.69 192.19 L 166.41 154.69 L 283.59 131.25 L 346.88 89.06 L 433.59 208.59 L 377.34 264.84 L 358.59 302.34 L 304.69 372.66 L 246.09 400.78 L 210.94 405.47" stroke="white" fill="transparent"/>
	<path d = "M 9.38 450.00 L 42.19 398.44 L 119.53 323.44 L 194.53 396.09 L 241.41 464.06 L 25.78 468.75 L 2.34 457.03" stroke="white" fill="transparent"/>
	<path d = "M 30.47 328.12 L 44.53 351.56 L 60.94 358.59" stroke="white" fill="transparent"/>
	<path d = "M 32.81 232.03 L 0.00 208.59" stroke="white" fill="transparent"/>
	<path d = "M 433.59 39.84 L 403.12 63.28 L 398.44 96.09 L 428.91 128.91 L 471.09 145.31 L 546.09 145.31 L 592.97 114.84 L 597.66 103.12 L 592.97 77.34 L 581.25 67.97 L 550.78 60.94" stroke="white" fill="transparent"/>
	<path d = "M 417.19 39.84 L 440.62 14.06 L 494.53 0.00 L 513.28 7.03 L 543.75 49.22" stroke="white" fill="transparent"/>
</svg>