<?xml version="1.0" encoding="UTF-8" standalone="no"?>
<!--Created with ndjsontosvg (https:https://github.com/thompson318/ndjsontosvg) 
	from the simplified Google quickdraw data set. key_id = 6021604972691456-->
<svg width="600" height="600"
	xmlns="http://www.w3.org/2000/svg">
	xmlns:ndjsontosvg="https://github.com/thompson318/ndjsontosvg"
	xmlns:quickdraw="https://quickdraw.withgoogle.com/data"
	xmlns:scikit-surgery="https://doi.org/10.1007/s11548-020-02180-5">

	<rect width="100%" height="100%" fill="black" />
	<path d = "M 72.66 255.47 L 25.78 257.81 L 0.00 274.22 L 28.12 360.94 L 39.84 367.97 L 175.78 349.22 L 168.75 342.19 L 178.12 316.41 L 194.53 302.34 L 213.28 297.66 L 243.75 309.38 L 255.47 323.44 L 262.50 346.88 L 269.53 351.56 L 351.56 344.53 L 459.38 349.22 L 445.31 342.19 L 445.31 318.75 L 468.75 295.31 L 482.81 288.28 L 525.00 302.34 L 550.78 356.25 L 597.66 342.19 L 576.56 215.62 L 564.84 182.81 L 553.12 178.12 L 499.22 180.47 L 426.56 196.88 L 417.19 192.19 L 375.00 103.12 L 349.22 11.72 L 332.81 0.00 L 157.03 25.78 L 65.62 56.25 L 60.94 110.16 L 67.97 271.88" stroke="white" fill="transparent"/>
	<path d = "M 142.97 86.72 L 133.59 126.56 L 131.25 208.59" stroke="white" fill="transparent"/>
	<path d = "M 159.38 77.34 L 405.47 86.72 L 410.16 98.44 L 398.44 145.31 L 363.28 199.22 L 314.06 220.31 L 222.66 213.28 L 126.56 194.53 L 119.53 189.84 L 119.53 185.16" stroke="white" fill="transparent"/>
	<path d = "M 285.94 72.66 L 276.56 82.03 L 269.53 124.22 L 267.19 213.28" stroke="white" fill="transparent"/>
	<path d = "M 124.22 138.28 L 217.97 147.66 L 372.66 126.56" stroke="white" fill="transparent"/>
	<path d = "M 187.50 323.44 L 168.75 339.84 L 164.06 363.28 L 173.44 414.84 L 199.22 440.62 L 232.03 442.97 L 264.84 403.12 L 274.22 367.97 L 262.50 316.41 L 236.72 295.31 L 225.00 300.00" stroke="white" fill="transparent"/>
</svg>