<?xml version="1.0" encoding="UTF-8" standalone="no"?>
<!--Created with ndjsontosvg (https:https://github.com/thompson318/ndjsontosvg) 
	from the simplified Google quickdraw data set. key_id = 6511597423951872-->
<svg width="600" height="600"
	xmlns="http://www.w3.org/2000/svg">
	xmlns:ndjsontosvg="https://github.com/thompson318/ndjsontosvg"
	xmlns:quickdraw="https://quickdraw.withgoogle.com/data"
	xmlns:scikit-surgery="https://doi.org/10.1007/s11548-020-02180-5">

	<rect width="100%" height="100%" fill="black" />
	<path d = "M 4.69 213.28 L 16.41 201.56 L 60.94 189.84 L 199.22 187.50 L 232.03 189.84 L 297.66 215.62 L 300.00 236.72 L 288.28 267.19 L 201.56 450.00 L 142.97 543.75 L 110.16 576.56" stroke="white" fill="transparent"/>
	<path d = "M 16.41 213.28 L 2.34 241.41 L 0.00 323.44 L 9.38 377.34 L 84.38 564.84 L 117.19 597.66 L 126.56 597.66" stroke="white" fill="transparent"/>
	<path d = "M 152.34 208.59 L 145.31 0.00 L 166.41 65.62 L 180.47 65.62 L 199.22 46.88 L 166.41 126.56 L 150.00 199.22" stroke="white" fill="transparent"/>
	<path d = "M 25.78 278.91 L 133.59 302.34 L 189.84 304.69" stroke="white" fill="transparent"/>
	<path d = "M 75.00 377.34 L 103.12 382.03 L 168.75 410.16" stroke="white" fill="transparent"/>
	<path d = "M 82.03 473.44 L 157.03 480.47" stroke="white" fill="transparent"/>
</svg>