<?xml version="1.0" encoding="UTF-8" standalone="no"?>
<!--Created with ndjsontosvg (https:https://github.com/thompson318/ndjsontosvg) 
	from the simplified Google quickdraw data set. key_id = 5126398148608000-->
<svg width="600" height="600"
	xmlns="http://www.w3.org/2000/svg">
	xmlns:ndjsontosvg="https://github.com/thompson318/ndjsontosvg"
	xmlns:quickdraw="https://quickdraw.withgoogle.com/data"
	xmlns:scikit-surgery="https://doi.org/10.1007/s11548-020-02180-5">

	<rect width="100%" height="100%" fill="black" />
	<path d = "M 180.47 269.53 L 180.47 419.53 L 199.22 525.00 L 210.94 555.47 L 241.41 595.31 L 257.81 592.97 L 318.75 464.06 L 323.44 367.97 L 288.28 257.81 L 274.22 246.09 L 234.38 246.09 L 189.84 264.84" stroke="white" fill="transparent"/>
	<path d = "M 246.09 232.03 L 276.56 189.84 L 365.62 96.09 L 414.84 63.28 L 503.91 37.50" stroke="white" fill="transparent"/>
	<path d = "M 213.28 217.97 L 257.81 168.75 L 396.09 53.91 L 405.47 39.84" stroke="white" fill="transparent"/>
	<path d = "M 203.91 147.66 L 168.75 93.75 L 135.94 58.59 L 91.41 32.81 L 0.00 0.00" stroke="white" fill="transparent"/>
	<path d = "M 267.19 234.38 L 180.47 140.62 L 124.22 91.41 L 75.00 56.25 L 4.69 32.81" stroke="white" fill="transparent"/>
</svg>