<?xml version="1.0" encoding="UTF-8" standalone="no"?>
<!--Created with ndjsontosvg (https:https://github.com/thompson318/ndjsontosvg) 
	from the simplified Google quickdraw data set. key_id = 5128141414596608-->
<svg width="600" height="600"
	xmlns="http://www.w3.org/2000/svg">
	xmlns:ndjsontosvg="https://github.com/thompson318/ndjsontosvg"
	xmlns:quickdraw="https://quickdraw.withgoogle.com/data"
	xmlns:scikit-surgery="https://doi.org/10.1007/s11548-020-02180-5">

	<rect width="100%" height="100%" fill="black" />
	<path d = "M 142.97 307.03 L 65.62 192.19 L 56.25 189.84 L 0.00 311.72 L 9.38 562.50 L 39.84 595.31 L 110.16 597.66 L 189.84 597.66 L 485.16 567.19 L 525.00 555.47 L 527.34 546.09 L 527.34 506.25 L 499.22 386.72 L 499.22 192.19 L 487.50 173.44 L 475.78 173.44 L 428.91 213.28 L 358.59 304.69 L 150.00 307.03" stroke="white" fill="transparent"/>
	<path d = "M 271.88 53.91 L 243.75 131.25 L 220.31 255.47 L 210.94 351.56" stroke="white" fill="transparent"/>
	<path d = "M 351.56 91.41 L 297.66 292.97" stroke="white" fill="transparent"/>
	<path d = "M 367.97 98.44 L 375.00 14.06 L 358.59 2.34 L 325.78 0.00" stroke="white" fill="transparent"/>
</svg>