<?xml version="1.0" encoding="UTF-8" standalone="no"?>
<!--Created with ndjsontosvg (https:https://github.com/thompson318/ndjsontosvg) 
	from the simplified Google quickdraw data set. key_id = 5343972966793216-->
<svg width="600" height="600"
	xmlns="http://www.w3.org/2000/svg">
	xmlns:ndjsontosvg="https://github.com/thompson318/ndjsontosvg"
	xmlns:quickdraw="https://quickdraw.withgoogle.com/data"
	xmlns:scikit-surgery="https://doi.org/10.1007/s11548-020-02180-5">

	<rect width="100%" height="100%" fill="black" />
	<path d = "M 11.72 412.50 L 18.75 367.97 L 14.06 274.22 L 0.00 178.12 L 56.25 18.75 L 187.50 0.00 L 217.97 7.03 L 203.91 32.81 L 194.53 75.00 L 199.22 152.34 L 187.50 192.19 L 239.06 189.84 L 274.22 199.22 L 342.19 180.47 L 379.69 196.88 L 426.56 201.56 L 431.25 154.69 L 419.53 96.09 L 424.22 35.16 L 494.53 11.72 L 583.59 23.44 L 574.22 84.38 L 585.94 262.50 L 597.66 321.09 L 590.62 391.41 L 468.75 384.38 L 325.78 433.59 L 281.25 438.28 L 192.19 428.91 L 91.41 389.06 L 51.56 389.06 L 30.47 396.09" stroke="white" fill="transparent"/>
</svg>