<?xml version="1.0" encoding="UTF-8" standalone="no"?>
<!--Created with ndjsontosvg (https:https://github.com/thompson318/ndjsontosvg) 
	from the simplified Google quickdraw data set. key_id = 5538785116815360-->
<svg width="600" height="600"
	xmlns="http://www.w3.org/2000/svg">
	xmlns:ndjsontosvg="https://github.com/thompson318/ndjsontosvg"
	xmlns:quickdraw="https://quickdraw.withgoogle.com/data"
	xmlns:scikit-surgery="https://doi.org/10.1007/s11548-020-02180-5">

	<rect width="100%" height="100%" fill="black" />
	<path d = "M 206.25 84.38 L 206.25 18.75 L 180.47 9.38 L 166.41 21.09 L 159.38 70.31 L 131.25 72.66 L 126.56 67.97 L 126.56 16.41 L 93.75 21.09 L 86.72 32.81 L 84.38 67.97 L 30.47 63.28 L 23.44 58.59 L 28.12 14.06 L 42.19 2.34 L 60.94 2.34" stroke="white" fill="transparent"/>
	<path d = "M 227.34 91.41 L 232.03 145.31 L 321.09 147.66 L 337.50 138.28 L 346.88 28.12 L 358.59 14.06 L 417.19 7.03 L 412.50 70.31 L 464.06 56.25 L 461.72 21.09 L 468.75 14.06 L 508.59 28.12 L 517.97 35.16 L 522.66 105.47 L 529.69 107.81 L 571.88 91.41 L 583.59 37.50 L 592.97 46.88 L 597.66 79.69 L 583.59 276.56 L 541.41 318.75 L 461.72 342.19 L 391.41 396.09 L 210.94 379.69 L 75.00 384.38 L 25.78 339.84 L 7.03 292.97 L 2.34 131.25 L 23.44 49.22" stroke="white" fill="transparent"/>
</svg>