<?xml version="1.0" encoding="UTF-8" standalone="no"?>
<!--Created with ndjsontosvg (https:https://github.com/thompson318/ndjsontosvg) 
	from the simplified Google quickdraw data set. key_id = 6562977333379072-->
<svg width="600" height="600"
	xmlns="http://www.w3.org/2000/svg">
	xmlns:ndjsontosvg="https://github.com/thompson318/ndjsontosvg"
	xmlns:quickdraw="https://quickdraw.withgoogle.com/data"
	xmlns:scikit-surgery="https://doi.org/10.1007/s11548-020-02180-5">

	<rect width="100%" height="100%" fill="black" />
	<path d = "M 11.72 222.66 L 110.16 229.69 L 225.00 255.47" stroke="white" fill="transparent"/>
	<path d = "M 0.00 208.59 L 9.38 382.03 L 16.41 403.12 L 28.12 412.50 L 75.00 412.50 L 152.34 389.06 L 201.56 382.03 L 227.34 393.75 L 210.94 262.50" stroke="white" fill="transparent"/>
	<path d = "M 210.94 297.66 L 262.50 248.44 L 292.97 232.03 L 325.78 225.00 L 356.25 227.34 L 393.75 248.44 L 433.59 297.66" stroke="white" fill="transparent"/>
	<path d = "M 248.44 323.44 L 271.88 307.03 L 304.69 302.34 L 335.16 309.38 L 391.41 337.50" stroke="white" fill="transparent"/>
	<path d = "M 442.97 276.56 L 440.62 435.94 L 428.91 274.22 L 522.66 283.59 L 583.59 304.69 L 597.66 314.06 L 590.62 353.91 L 590.62 426.56 L 454.69 417.19" stroke="white" fill="transparent"/>
	<path d = "M 7.03 225.00 L 56.25 105.47 L 114.84 0.00 L 196.88 206.25 L 208.59 257.81" stroke="white" fill="transparent"/>
	<path d = "M 452.34 292.97 L 461.72 239.06 L 517.97 105.47 L 534.38 53.91 L 553.12 192.19 L 590.62 300.00" stroke="white" fill="transparent"/>
</svg>