<?xml version="1.0" encoding="UTF-8" standalone="no"?>
<!--Created with ndjsontosvg (https:https://github.com/thompson318/ndjsontosvg) 
	from the simplified Google quickdraw data set. key_id = 5439003417378816-->
<svg width="600" height="600"
	xmlns="http://www.w3.org/2000/svg">
	xmlns:ndjsontosvg="https://github.com/thompson318/ndjsontosvg"
	xmlns:quickdraw="https://quickdraw.withgoogle.com/data"
	xmlns:scikit-surgery="https://doi.org/10.1007/s11548-020-02180-5">

	<rect width="100%" height="100%" fill="black" />
	<path d = "M 140.62 496.88 L 131.25 274.22 L 243.75 133.59 L 264.84 58.59 L 318.75 180.47 L 370.31 239.06 L 372.66 267.19 L 346.88 403.12 L 349.22 543.75" stroke="white" fill="transparent"/>
	<path d = "M 138.28 250.78 L 110.16 232.03 L 65.62 171.09 L 56.25 178.12 L 35.16 246.09 L 2.34 309.38 L 9.38 424.22 L 37.50 560.16 L 56.25 597.66" stroke="white" fill="transparent"/>
	<path d = "M 400.78 257.81 L 450.00 173.44 L 464.06 159.38 L 473.44 154.69 L 508.59 192.19 L 513.28 288.28 L 489.84 550.78" stroke="white" fill="transparent"/>
	<path d = "M 365.62 241.41 L 384.38 220.31 L 421.88 196.88" stroke="white" fill="transparent"/>
	<path d = "M 189.84 494.53 L 182.81 482.81 L 182.81 375.00 L 196.88 358.59 L 232.03 349.22 L 243.75 351.56 L 255.47 372.66 L 260.16 496.88" stroke="white" fill="transparent"/>
	<path d = "M 58.59 522.66 L 49.22 419.53 L 103.12 433.59 L 117.19 464.06 L 126.56 520.31" stroke="white" fill="transparent"/>
	<path d = "M 400.78 501.56 L 398.44 442.97 L 426.56 391.41 L 435.94 407.81 L 438.28 445.31 L 435.94 527.34" stroke="white" fill="transparent"/>
	<path d = "M 182.81 4.69 L 121.88 65.62" stroke="white" fill="transparent"/>
	<path d = "M 178.12 0.00 L 206.25 56.25" stroke="white" fill="transparent"/>
	<path d = "M 114.84 77.34 L 147.66 135.94 L 241.41 39.84" stroke="white" fill="transparent"/>
</svg>