<?xml version="1.0" encoding="UTF-8" standalone="no"?>
<!--Created with ndjsontosvg (https:https://github.com/thompson318/ndjsontosvg) 
	from the simplified Google quickdraw data set. key_id = 5636746664476672-->
<svg width="600" height="600"
	xmlns="http://www.w3.org/2000/svg">
	xmlns:ndjsontosvg="https://github.com/thompson318/ndjsontosvg"
	xmlns:quickdraw="https://quickdraw.withgoogle.com/data"
	xmlns:scikit-surgery="https://doi.org/10.1007/s11548-020-02180-5">

	<rect width="100%" height="100%" fill="black" />
	<path d = "M 28.12 569.53 L 49.22 578.91 L 171.09 592.97 L 365.62 597.66 L 375.00 595.31 L 391.41 541.41 L 412.50 300.00 L 412.50 229.69 L 391.41 213.28 L 335.16 203.91 L 295.31 257.81 L 285.94 295.31 L 278.91 264.84 L 283.59 117.19 L 274.22 96.09 L 229.69 70.31 L 145.31 70.31 L 131.25 152.34 L 126.56 285.94 L 105.47 292.97 L 93.75 285.94 L 58.59 208.59 L 23.44 210.94 L 11.72 227.34 L 0.00 501.56 L 7.03 588.28" stroke="white" fill="transparent"/>
	<path d = "M 203.91 4.69 L 206.25 32.81 L 192.19 75.00" stroke="white" fill="transparent"/>
	<path d = "M 201.56 0.00 L 267.19 4.69 L 201.56 32.81" stroke="white" fill="transparent"/>
	<path d = "M 196.88 114.84 L 182.81 126.56 L 168.75 164.06 L 206.25 168.75 L 232.03 164.06 L 243.75 154.69 L 246.09 135.94 L 187.50 117.19" stroke="white" fill="transparent"/>
	<path d = "M 30.47 260.16 L 21.09 269.53 L 23.44 283.59 L 37.50 288.28 L 51.56 278.91 L 58.59 232.03 L 44.53 232.03" stroke="white" fill="transparent"/>
	<path d = "M 363.28 257.81 L 351.56 264.84 L 342.19 288.28 L 342.19 300.00 L 363.28 300.00 L 365.62 276.56 L 332.81 269.53" stroke="white" fill="transparent"/>
	<path d = "M 375.00 194.53 L 363.28 107.81 L 440.62 100.78 L 365.62 128.91" stroke="white" fill="transparent"/>
	<path d = "M 7.03 187.50 L 18.75 114.84 L 77.34 121.88 L 18.75 159.38" stroke="white" fill="transparent"/>
	<path d = "M 112.50 389.06 L 114.84 499.22" stroke="white" fill="transparent"/>
	<path d = "M 178.12 367.97 L 168.75 543.75" stroke="white" fill="transparent"/>
	<path d = "M 274.22 393.75 L 257.81 534.38" stroke="white" fill="transparent"/>
	<path d = "M 325.78 379.69 L 325.78 496.88 L 300.00 543.75" stroke="white" fill="transparent"/>
	<path d = "M 56.25 424.22 L 121.88 435.94 L 194.53 426.56" stroke="white" fill="transparent"/>
	<path d = "M 51.56 475.78 L 126.56 503.91 L 255.47 508.59" stroke="white" fill="transparent"/>
	<path d = "M 157.03 421.88 L 260.16 428.91 L 360.94 419.53" stroke="white" fill="transparent"/>
</svg>