<?xml version="1.0" encoding="UTF-8" standalone="no"?>
<!--Created with ndjsontosvg (https:https://github.com/thompson318/ndjsontosvg) 
	from the simplified Google quickdraw data set. key_id = 6645989299453952-->
<svg width="600" height="600"
	xmlns="http://www.w3.org/2000/svg">
	xmlns:ndjsontosvg="https://github.com/thompson318/ndjsontosvg"
	xmlns:quickdraw="https://quickdraw.withgoogle.com/data"
	xmlns:scikit-surgery="https://doi.org/10.1007/s11548-020-02180-5">

	<rect width="100%" height="100%" fill="black" />
	<path d = "M 0.00 567.19 L 9.38 325.78 L 18.75 260.16 L 30.47 227.34" stroke="white" fill="transparent"/>
	<path d = "M 171.09 553.12 L 173.44 370.31 L 185.16 297.66 L 201.56 250.78" stroke="white" fill="transparent"/>
	<path d = "M 506.25 571.88 L 494.53 539.06 L 494.53 325.78 L 506.25 250.78 L 525.00 199.22" stroke="white" fill="transparent"/>
	<path d = "M 569.53 555.47 L 560.16 517.97 L 548.44 405.47 L 546.09 192.19" stroke="white" fill="transparent"/>
	<path d = "M 180.47 271.88 L 325.78 267.19 L 450.00 229.69 L 513.28 225.00" stroke="white" fill="transparent"/>
	<path d = "M 30.47 239.06 L 63.28 98.44 L 79.69 72.66 L 105.47 124.22 L 119.53 135.94 L 157.03 75.00 L 168.75 107.81 L 180.47 114.84 L 203.91 89.06 L 206.25 260.16" stroke="white" fill="transparent"/>
	<path d = "M 506.25 241.41 L 482.81 215.62 L 471.09 157.03 L 454.69 107.81 L 457.03 60.94 L 487.50 0.00 L 506.25 51.56 L 527.34 84.38 L 539.06 89.06 L 576.56 14.06 L 597.66 100.78 L 597.66 180.47 L 569.53 239.06" stroke="white" fill="transparent"/>
</svg>