<?xml version="1.0" encoding="UTF-8" standalone="no"?>
<!--Created with ndjsontosvg (https:https://github.com/thompson318/ndjsontosvg) 
	from the simplified Google quickdraw data set. key_id = 4933530092044288-->
<svg width="600" height="600"
	xmlns="http://www.w3.org/2000/svg">
	xmlns:ndjsontosvg="https://github.com/thompson318/ndjsontosvg"
	xmlns:quickdraw="https://quickdraw.withgoogle.com/data"
	xmlns:scikit-surgery="https://doi.org/10.1007/s11548-020-02180-5">

	<rect width="100%" height="100%" fill="black" />
	<path d = "M 25.78 314.06 L 21.09 182.81 L 37.50 82.03 L 49.22 39.84 L 77.34 21.09 L 124.22 21.09 L 150.00 39.84 L 164.06 67.97 L 173.44 128.91 L 168.75 262.50" stroke="white" fill="transparent"/>
	<path d = "M 168.75 53.91 L 267.19 75.00 L 274.22 35.16 L 304.69 0.00 L 349.22 37.50 L 360.94 89.06 L 473.44 91.41 L 468.75 67.97 L 475.78 42.19 L 503.91 21.09 L 520.31 18.75 L 550.78 58.59 L 567.19 96.09 L 574.22 276.56 L 569.53 262.50" stroke="white" fill="transparent"/>
	<path d = "M 452.34 98.44 L 466.41 121.88 L 473.44 166.41 L 480.47 283.59" stroke="white" fill="transparent"/>
	<path d = "M 0.00 302.34 L 42.19 292.97 L 372.66 285.94 L 597.66 304.69" stroke="white" fill="transparent"/>
	<path d = "M 283.59 281.25 L 264.84 243.75 L 262.50 203.91 L 288.28 175.78 L 309.38 166.41 L 353.91 192.19 L 370.31 208.59 L 389.06 290.62" stroke="white" fill="transparent"/>
	<path d = "M 79.69 339.84 L 225.00 311.72" stroke="white" fill="transparent"/>
</svg>