<?xml version="1.0" encoding="UTF-8" standalone="no"?>
<!--Created with ndjsontosvg (https:https://github.com/thompson318/ndjsontosvg) 
	from the simplified Google quickdraw data set. key_id = 6600018301550592-->
<svg width="600" height="600"
	xmlns="http://www.w3.org/2000/svg">
	xmlns:ndjsontosvg="https://github.com/thompson318/ndjsontosvg"
	xmlns:quickdraw="https://quickdraw.withgoogle.com/data"
	xmlns:scikit-surgery="https://doi.org/10.1007/s11548-020-02180-5">

	<rect width="100%" height="100%" fill="black" />
	<path d = "M 250.78 187.50 L 222.66 192.19 L 147.66 227.34 L 91.41 281.25 L 63.28 328.12 L 39.84 405.47 L 30.47 482.81 L 35.16 520.31 L 60.94 576.56 L 82.03 590.62 L 107.81 597.66 L 168.75 590.62 L 201.56 576.56 L 262.50 527.34 L 316.41 457.03 L 337.50 414.84 L 365.62 292.97 L 356.25 243.75 L 302.34 192.19 L 215.62 150.00" stroke="white" fill="transparent"/>
	<path d = "M 35.16 358.59 L 0.00 79.69 L 117.19 203.91" stroke="white" fill="transparent"/>
	<path d = "M 243.75 178.12 L 321.09 56.25 L 346.88 0.00 L 372.66 150.00 L 377.34 215.62" stroke="white" fill="transparent"/>
	<path d = "M 236.72 389.06 L 203.91 459.38" stroke="white" fill="transparent"/>
</svg>