<?xml version="1.0" encoding="UTF-8" standalone="no"?>
<!--Created with ndjsontosvg (https:https://github.com/thompson318/ndjsontosvg) 
	from the simplified Google quickdraw data set. key_id = 6543866721206272-->
<svg width="600" height="600"
	xmlns="http://www.w3.org/2000/svg">
	xmlns:ndjsontosvg="https://github.com/thompson318/ndjsontosvg"
	xmlns:quickdraw="https://quickdraw.withgoogle.com/data"
	xmlns:scikit-surgery="https://doi.org/10.1007/s11548-020-02180-5">

	<rect width="100%" height="100%" fill="black" />
	<path d = "M 426.56 250.78 L 405.47 222.66 L 363.28 208.59 L 246.09 203.91 L 192.19 225.00 L 96.09 297.66 L 60.94 344.53 L 28.12 438.28 L 30.47 517.97 L 42.19 550.78 L 70.31 576.56 L 107.81 592.97 L 152.34 597.66 L 267.19 592.97 L 330.47 571.88 L 391.41 534.38 L 471.09 468.75 L 496.88 400.78 L 496.88 316.41 L 485.16 278.91 L 459.38 246.09 L 431.25 225.00 L 372.66 217.97" stroke="white" fill="transparent"/>
	<path d = "M 321.09 196.88 L 363.28 100.78 L 426.56 0.00 L 447.66 35.16 L 473.44 215.62 L 485.16 203.91" stroke="white" fill="transparent"/>
	<path d = "M 105.47 267.19 L 46.88 201.56 L 16.41 154.69 L 4.69 131.25 L 0.00 100.78 L 21.09 96.09 L 121.88 145.31 L 196.88 196.88" stroke="white" fill="transparent"/>
	<path d = "M 159.38 330.47 L 138.28 342.19 L 159.38 363.28 L 145.31 337.50" stroke="white" fill="transparent"/>
	<path d = "M 346.88 321.09 L 330.47 318.75" stroke="white" fill="transparent"/>
	<path d = "M 239.06 384.38 L 239.06 384.38" stroke="white" fill="transparent"/>
</svg>