<?xml version="1.0" encoding="UTF-8" standalone="no"?>
<!--Created with ndjsontosvg (https:https://github.com/thompson318/ndjsontosvg) 
	from the simplified Google quickdraw data set. key_id = 4787547907555328-->
<svg width="600" height="600"
	xmlns="http://www.w3.org/2000/svg">
	xmlns:ndjsontosvg="https://github.com/thompson318/ndjsontosvg"
	xmlns:quickdraw="https://quickdraw.withgoogle.com/data"
	xmlns:scikit-surgery="https://doi.org/10.1007/s11548-020-02180-5">

	<rect width="100%" height="100%" fill="black" />
	<path d = "M 21.09 196.88 L 60.94 28.12 L 72.66 30.47 L 91.41 56.25 L 157.03 187.50 L 250.78 173.44 L 407.81 171.09 L 442.97 70.31 L 485.16 0.00 L 496.88 32.81 L 508.59 239.06 L 506.25 339.84 L 492.19 405.47 L 457.03 480.47 L 426.56 517.97 L 403.12 539.06 L 328.12 578.91 L 243.75 597.66 L 178.12 595.31 L 107.81 560.16 L 56.25 513.28 L 30.47 468.75 L 0.00 335.16 L 4.69 253.12 L 21.09 215.62 L 39.84 206.25" stroke="white" fill="transparent"/>
	<path d = "M 133.59 419.53 L 105.47 421.88 L 86.72 403.12 L 77.34 367.97 L 75.00 321.09 L 100.78 292.97 L 147.66 292.97 L 171.09 328.12 L 178.12 391.41 L 152.34 414.84 L 126.56 414.84" stroke="white" fill="transparent"/>
	<path d = "M 124.22 307.03 L 126.56 400.78" stroke="white" fill="transparent"/>
	<path d = "M 358.59 407.81 L 332.81 410.16 L 302.34 382.03 L 290.62 346.88 L 295.31 309.38 L 311.72 281.25 L 337.50 264.84 L 370.31 257.81 L 412.50 262.50 L 438.28 292.97 L 447.66 358.59 L 433.59 379.69 L 377.34 417.19" stroke="white" fill="transparent"/>
	<path d = "M 379.69 292.97 L 377.34 407.81" stroke="white" fill="transparent"/>
</svg>