<?xml version="1.0" encoding="UTF-8" standalone="no"?>
<!--Created with ndjsontosvg (https:https://github.com/thompson318/ndjsontosvg) 
	from the simplified Google quickdraw data set. key_id = 5402683542339584-->
<svg width="600" height="600"
	xmlns="http://www.w3.org/2000/svg">
	xmlns:ndjsontosvg="https://github.com/thompson318/ndjsontosvg"
	xmlns:quickdraw="https://quickdraw.withgoogle.com/data"
	xmlns:scikit-surgery="https://doi.org/10.1007/s11548-020-02180-5">

	<rect width="100%" height="100%" fill="black" />
	<path d = "M 309.38 16.41 L 250.78 14.06 L 213.28 23.44 L 213.28 37.50 L 229.69 49.22 L 269.53 53.91 L 328.12 25.78 L 332.81 16.41 L 318.75 11.72" stroke="white" fill="transparent"/>
	<path d = "M 323.44 9.38 L 576.56 0.00 L 595.31 2.34 L 597.66 11.72 L 574.22 25.78 L 527.34 35.16 L 419.53 42.19 L 307.03 37.50" stroke="white" fill="transparent"/>
	<path d = "M 194.53 28.12 L 86.72 30.47 L 25.78 42.19 L 0.00 60.94 L 0.00 70.31 L 11.72 84.38 L 39.84 96.09 L 112.50 96.09 L 182.81 72.66 L 229.69 42.19" stroke="white" fill="transparent"/>
	<path d = "M 229.69 42.19 L 189.84 121.88 L 175.78 168.75 L 173.44 220.31 L 182.81 225.00 L 229.69 154.69 L 257.81 56.25" stroke="white" fill="transparent"/>
	<path d = "M 283.59 53.91 L 302.34 98.44 L 328.12 128.91 L 391.41 171.09 L 421.88 173.44 L 428.91 166.41 L 424.22 140.62 L 391.41 100.78 L 309.38 58.59" stroke="white" fill="transparent"/>
</svg>