<?xml version="1.0" encoding="UTF-8" standalone="no"?>
<!--Created with ndjsontosvg (https:https://github.com/thompson318/ndjsontosvg) 
	from the simplified Google quickdraw data set. key_id = 6681407025840128-->
<svg width="600" height="600"
	xmlns="http://www.w3.org/2000/svg">
	xmlns:ndjsontosvg="https://github.com/thompson318/ndjsontosvg"
	xmlns:quickdraw="https://quickdraw.withgoogle.com/data"
	xmlns:scikit-surgery="https://doi.org/10.1007/s11548-020-02180-5">

	<rect width="100%" height="100%" fill="black" />
	<path d = "M 222.66 42.19 L 210.94 96.09 L 203.91 213.28 L 396.09 232.03 L 417.19 0.00" stroke="white" fill="transparent"/>
	<path d = "M 370.31 232.03 L 325.78 217.97 L 185.16 217.97 L 159.38 227.34 L 150.00 250.78 L 196.88 274.22 L 248.44 285.94 L 290.62 292.97 L 391.41 288.28 L 433.59 276.56 L 442.97 257.81 L 405.47 225.00 L 335.16 206.25" stroke="white" fill="transparent"/>
	<path d = "M 229.69 222.66 L 255.47 103.12 L 367.97 100.78 L 330.47 241.41" stroke="white" fill="transparent"/>
	<path d = "M 442.97 243.75 L 590.62 241.41 L 597.66 255.47 L 592.97 349.22 L 532.03 335.16 L 400.78 288.28" stroke="white" fill="transparent"/>
	<path d = "M 248.44 276.56 L 234.38 400.78 L 241.41 405.47 L 363.28 403.12 L 367.97 283.59" stroke="white" fill="transparent"/>
	<path d = "M 166.41 213.28 L 4.69 175.78 L 0.00 276.56 L 117.19 255.47 L 171.09 253.12" stroke="white" fill="transparent"/>
</svg>