<?xml version="1.0" encoding="UTF-8" standalone="no"?>
<!--Created with ndjsontosvg (https:https://github.com/thompson318/ndjsontosvg) 
	from the simplified Google quickdraw data set. key_id = 5273459003228160-->
<svg width="600" height="600"
	xmlns="http://www.w3.org/2000/svg">
	xmlns:ndjsontosvg="https://github.com/thompson318/ndjsontosvg"
	xmlns:quickdraw="https://quickdraw.withgoogle.com/data"
	xmlns:scikit-surgery="https://doi.org/10.1007/s11548-020-02180-5">

	<rect width="100%" height="100%" fill="black" />
	<path d = "M 426.56 0.00 L 410.16 103.12" stroke="white" fill="transparent"/>
	<path d = "M 510.94 7.03 L 503.91 114.84" stroke="white" fill="transparent"/>
	<path d = "M 438.28 110.16 L 325.78 112.50 L 278.91 121.88 L 267.19 131.25 L 267.19 142.97 L 292.97 161.72 L 346.88 164.06 L 494.53 147.66 L 560.16 147.66 L 597.66 138.28 L 585.94 124.22 L 550.78 117.19 L 447.66 110.16 L 431.25 117.19" stroke="white" fill="transparent"/>
	<path d = "M 255.47 126.56 L 236.72 119.53 L 157.03 117.19 L 56.25 159.38 L 16.41 168.75 L 2.34 175.78 L 2.34 187.50 L 23.44 187.50 L 107.81 166.41 L 157.03 145.31 L 250.78 121.88" stroke="white" fill="transparent"/>
	<path d = "M 300.00 157.03 L 222.66 189.84 L 168.75 260.16 L 164.06 269.53 L 173.44 271.88 L 203.91 255.47 L 295.31 168.75" stroke="white" fill="transparent"/>
	<path d = "M 407.81 150.00 L 375.00 227.34 L 363.28 281.25 L 367.97 321.09 L 386.72 328.12 L 405.47 297.66 L 419.53 248.44 L 410.16 168.75 L 412.50 145.31" stroke="white" fill="transparent"/>
	<path d = "M 515.62 150.00 L 515.62 150.00" stroke="white" fill="transparent"/>
</svg>