<?xml version="1.0" encoding="UTF-8" standalone="no"?>
<!--Created with ndjsontosvg (https:https://github.com/thompson318/ndjsontosvg) 
	from the simplified Google quickdraw data set. key_id = 6221394457133056-->
<svg width="600" height="600"
	xmlns="http://www.w3.org/2000/svg">
	xmlns:ndjsontosvg="https://github.com/thompson318/ndjsontosvg"
	xmlns:quickdraw="https://quickdraw.withgoogle.com/data"
	xmlns:scikit-surgery="https://doi.org/10.1007/s11548-020-02180-5">

	<rect width="100%" height="100%" fill="black" />
	<path d = "M 309.38 7.03 L 311.72 0.00 L 314.06 7.03 L 321.09 32.81 L 323.44 131.25" stroke="white" fill="transparent"/>
	<path d = "M 325.78 133.59 L 213.28 185.16 L 67.97 225.00 L 2.34 260.16 L 2.34 274.22 L 53.91 353.91 L 323.44 180.47 L 365.62 142.97" stroke="white" fill="transparent"/>
	<path d = "M 349.22 126.56 L 335.16 126.56 L 337.50 150.00 L 389.06 292.97 L 400.78 393.75 L 403.12 407.81 L 410.16 407.81 L 513.28 375.00 L 407.81 246.09 L 325.78 128.91" stroke="white" fill="transparent"/>
	<path d = "M 346.88 140.62 L 360.94 142.97 L 459.38 201.56 L 517.97 248.44 L 576.56 283.59 L 583.59 236.72 L 597.66 206.25 L 541.41 196.88 L 419.53 142.97 L 318.75 112.50" stroke="white" fill="transparent"/>
	<path d = "M 337.50 117.19 L 541.41 49.22 L 510.94 16.41 L 475.78 18.75 L 412.50 49.22 L 351.56 89.06 L 302.34 131.25" stroke="white" fill="transparent"/>
	<path d = "M 300.00 128.91 L 278.91 126.56 L 194.53 51.56 L 161.72 39.84" stroke="white" fill="transparent"/>
</svg>