<?xml version="1.0" encoding="UTF-8" standalone="no"?>
<!--Created with ndjsontosvg (https:https://github.com/thompson318/ndjsontosvg) 
	from the simplified Google quickdraw data set. key_id = 5535836353331200-->
<svg width="600" height="600"
	xmlns="http://www.w3.org/2000/svg">
	xmlns:ndjsontosvg="https://github.com/thompson318/ndjsontosvg"
	xmlns:quickdraw="https://quickdraw.withgoogle.com/data"
	xmlns:scikit-surgery="https://doi.org/10.1007/s11548-020-02180-5">

	<rect width="100%" height="100%" fill="black" />
	<path d = "M 86.72 337.50 L 93.75 98.44 L 70.31 58.59 L 91.41 53.91 L 79.69 25.78 L 96.09 7.03 L 119.53 0.00 L 133.59 7.03 L 142.97 32.81 L 117.19 49.22 L 128.91 75.00 L 112.50 86.72 L 110.16 103.12 L 133.59 171.09 L 135.94 314.06 L 227.34 377.34 L 267.19 428.91 L 278.91 522.66 L 262.50 569.53 L 229.69 583.59 L 161.72 597.66 L 77.34 560.16 L 30.47 527.34 L 2.34 473.44 L 2.34 428.91 L 18.75 386.72 L 49.22 365.62" stroke="white" fill="transparent"/>
	<path d = "M 157.03 442.97 L 135.94 447.66 L 138.28 466.41 L 161.72 468.75 L 168.75 457.03 L 168.75 447.66 L 147.66 435.94" stroke="white" fill="transparent"/>
	<path d = "M 82.03 332.81 L 44.53 351.56 L 28.12 377.34 L 25.78 398.44" stroke="white" fill="transparent"/>
	<path d = "M 147.66 471.09 L 138.28 454.69 L 119.53 307.03 L 119.53 128.91 L 110.16 18.75" stroke="white" fill="transparent"/>
	<path d = "M 154.69 527.34 L 110.16 281.25 L 105.47 75.00" stroke="white" fill="transparent"/>
</svg>