<?xml version="1.0" encoding="UTF-8" standalone="no"?>
<!--Created with ndjsontosvg (https:https://github.com/thompson318/ndjsontosvg) 
	from the simplified Google quickdraw data set. key_id = 4703691456118784-->
<svg width="600" height="600"
	xmlns="http://www.w3.org/2000/svg">
	xmlns:ndjsontosvg="https://github.com/thompson318/ndjsontosvg"
	xmlns:quickdraw="https://quickdraw.withgoogle.com/data"
	xmlns:scikit-surgery="https://doi.org/10.1007/s11548-020-02180-5">

	<rect width="100%" height="100%" fill="black" />
	<path d = "M 295.31 25.78 L 222.66 2.34 L 159.38 0.00 L 46.88 18.75 L 2.34 42.19 L 2.34 215.62 L 35.16 597.66 L 365.62 583.59 L 379.69 578.91 L 398.44 543.75 L 403.12 503.91 L 375.00 372.66 L 372.66 243.75 L 384.38 142.97 L 367.97 79.69 L 356.25 46.88 L 328.12 23.44 L 232.03 21.09" stroke="white" fill="transparent"/>
	<path d = "M 314.06 70.31 L 82.03 67.97 L 65.62 72.66 L 53.91 91.41 L 53.91 232.03 L 75.00 539.06 L 98.44 543.75 L 178.12 543.75 L 297.66 522.66 L 314.06 508.59 L 323.44 295.31 L 337.50 199.22 L 337.50 72.66" stroke="white" fill="transparent"/>
	<path d = "M 215.62 562.50 L 180.47 564.84 L 178.12 583.59 L 187.50 588.28 L 217.97 581.25" stroke="white" fill="transparent"/>
</svg>