<?xml version="1.0" encoding="UTF-8" standalone="no"?>
<!--Created with ndjsontosvg (https:https://github.com/thompson318/ndjsontosvg) 
	from the simplified Google quickdraw data set. key_id = 6109015928995840-->
<svg width="600" height="600"
	xmlns="http://www.w3.org/2000/svg">
	xmlns:ndjsontosvg="https://github.com/thompson318/ndjsontosvg"
	xmlns:quickdraw="https://quickdraw.withgoogle.com/data"
	xmlns:scikit-surgery="https://doi.org/10.1007/s11548-020-02180-5">

	<rect width="100%" height="100%" fill="black" />
	<path d = "M 44.53 79.69 L 21.09 135.94 L 2.34 225.00 L 0.00 328.12 L 25.78 466.41 L 67.97 536.72 L 107.81 567.19 L 159.38 583.59 L 217.97 595.31 L 328.12 597.66 L 353.91 588.28 L 384.38 564.84 L 414.84 508.59 L 438.28 391.41 L 450.00 246.09 L 457.03 56.25 L 447.66 28.12 L 375.00 2.34 L 213.28 2.34 L 121.88 18.75 L 51.56 56.25" stroke="white" fill="transparent"/>
	<path d = "M 189.84 529.69 L 185.16 539.06 L 203.91 560.16 L 232.03 562.50 L 250.78 550.78 L 257.81 515.62 L 234.38 503.91 L 187.50 513.28" stroke="white" fill="transparent"/>
	<path d = "M 119.53 28.12 L 110.16 42.19 L 98.44 126.56 L 98.44 309.38 L 126.56 367.97 L 171.09 403.12 L 206.25 412.50 L 314.06 424.22 L 353.91 421.88 L 377.34 403.12 L 403.12 328.12 L 410.16 121.88 L 400.78 58.59 L 389.06 46.88 L 152.34 39.84" stroke="white" fill="transparent"/>
</svg>