<?xml version="1.0" encoding="UTF-8" standalone="no"?>
<!--Created with ndjsontosvg (https:https://github.com/thompson318/ndjsontosvg) 
	from the simplified Google quickdraw data set. key_id = 6204712279867392-->
<svg width="600" height="600"
	xmlns="http://www.w3.org/2000/svg">
	xmlns:ndjsontosvg="https://github.com/thompson318/ndjsontosvg"
	xmlns:quickdraw="https://quickdraw.withgoogle.com/data"
	xmlns:scikit-surgery="https://doi.org/10.1007/s11548-020-02180-5">

	<rect width="100%" height="100%" fill="black" />
	<path d = "M 39.84 182.81 L 39.84 590.62" stroke="white" fill="transparent"/>
	<path d = "M 39.84 398.44 L 234.38 290.62 L 250.78 276.56 L 278.91 229.69 L 330.47 225.00 L 435.94 248.44 L 539.06 257.81 L 525.00 283.59 L 377.34 414.84 L 274.22 487.50 L 253.12 489.84 L 46.88 386.72" stroke="white" fill="transparent"/>
	<path d = "M 262.50 503.91 L 278.91 597.66" stroke="white" fill="transparent"/>
	<path d = "M 534.38 253.12 L 522.66 346.88 L 515.62 351.56" stroke="white" fill="transparent"/>
	<path d = "M 377.34 412.50 L 379.69 515.62" stroke="white" fill="transparent"/>
	<path d = "M 276.56 234.38 L 304.69 65.62" stroke="white" fill="transparent"/>
	<path d = "M 309.38 65.62 L 46.88 210.94 L 0.00 246.09" stroke="white" fill="transparent"/>
	<path d = "M 4.69 241.41 L 14.06 110.16 L 30.47 98.44 L 302.34 49.22 L 332.81 32.81 L 365.62 0.00 L 325.78 75.00 L 267.19 98.44 L 206.25 154.69" stroke="white" fill="transparent"/>
</svg>