<?xml version="1.0" encoding="UTF-8" standalone="no"?>
<!--Created with ndjsontosvg (https:https://github.com/thompson318/ndjsontosvg) 
	from the simplified Google quickdraw data set. key_id = 6079139884826624-->
<svg width="600" height="600"
	xmlns="http://www.w3.org/2000/svg">
	xmlns:ndjsontosvg="https://github.com/thompson318/ndjsontosvg"
	xmlns:quickdraw="https://quickdraw.withgoogle.com/data"
	xmlns:scikit-surgery="https://doi.org/10.1007/s11548-020-02180-5">

	<rect width="100%" height="100%" fill="black" />
	<path d = "M 440.62 18.75 L 314.06 23.44 L 255.47 44.53 L 232.03 60.94 L 220.31 82.03 L 217.97 103.12 L 225.00 112.50 L 260.16 138.28 L 307.03 150.00 L 407.81 145.31 L 464.06 128.91 L 482.81 112.50 L 482.81 77.34 L 454.69 42.19 L 386.72 4.69 L 344.53 0.00" stroke="white" fill="transparent"/>
	<path d = "M 285.94 147.66 L 302.34 288.28 L 311.72 292.97 L 316.41 288.28" stroke="white" fill="transparent"/>
	<path d = "M 339.84 175.78 L 332.81 339.84" stroke="white" fill="transparent"/>
	<path d = "M 332.81 269.53 L 257.81 269.53 L 138.28 290.62 L 25.78 332.81 L 2.34 358.59 L 2.34 386.72 L 28.12 405.47 L 72.66 419.53 L 318.75 424.22 L 560.16 370.31 L 539.06 346.88 L 424.22 297.66 L 248.44 257.81" stroke="white" fill="transparent"/>
	<path d = "M 93.75 414.84 L 119.53 541.41 L 168.75 597.66 L 192.19 581.25 L 203.91 534.38 L 199.22 494.53 L 175.78 428.91" stroke="white" fill="transparent"/>
	<path d = "M 311.72 442.97 L 314.06 520.31 L 318.75 527.34 L 335.16 529.69 L 349.22 489.84 L 349.22 428.91" stroke="white" fill="transparent"/>
	<path d = "M 414.84 419.53 L 435.94 517.97 L 457.03 548.44 L 466.41 536.72 L 473.44 452.34 L 473.44 421.88 L 466.41 396.09" stroke="white" fill="transparent"/>
	<path d = "M 515.62 391.41 L 546.09 445.31 L 557.81 417.19 L 553.12 370.31" stroke="white" fill="transparent"/>
</svg>