<?xml version="1.0" encoding="UTF-8" standalone="no"?>
<!--Created with ndjsontosvg (https:https://github.com/thompson318/ndjsontosvg) 
	from the simplified Google quickdraw data set. key_id = 4718684868182016-->
<svg width="600" height="600"
	xmlns="http://www.w3.org/2000/svg">
	xmlns:ndjsontosvg="https://github.com/thompson318/ndjsontosvg"
	xmlns:quickdraw="https://quickdraw.withgoogle.com/data"
	xmlns:scikit-surgery="https://doi.org/10.1007/s11548-020-02180-5">

	<rect width="100%" height="100%" fill="black" />
	<path d = "M 4.69 4.69 L 79.69 0.00 L 131.25 9.38 L 145.31 257.81 L 124.22 264.84 L 56.25 264.84 L 23.44 257.81 L 18.75 86.72 L 0.00 28.12" stroke="white" fill="transparent"/>
	<path d = "M 147.66 253.12 L 178.12 255.47 L 215.62 278.91 L 276.56 300.00 L 274.22 316.41 L 229.69 386.72 L 189.84 393.75 L 91.41 389.06 L 56.25 342.19 L 39.84 281.25 L 28.12 264.84 L 16.41 372.66 L 16.41 562.50" stroke="white" fill="transparent"/>
	<path d = "M 142.97 384.38 L 140.62 494.53" stroke="white" fill="transparent"/>
	<path d = "M 98.44 396.09 L 89.06 597.66" stroke="white" fill="transparent"/>
	<path d = "M 229.69 389.06 L 234.38 567.19" stroke="white" fill="transparent"/>
</svg>