<?xml version="1.0" encoding="UTF-8" standalone="no"?>
<!--Created with ndjsontosvg (https:https://github.com/thompson318/ndjsontosvg) 
	from the simplified Google quickdraw data set. key_id = 4819501709262848-->
<svg width="600" height="600"
	xmlns="http://www.w3.org/2000/svg">
	xmlns:ndjsontosvg="https://github.com/thompson318/ndjsontosvg"
	xmlns:quickdraw="https://quickdraw.withgoogle.com/data"
	xmlns:scikit-surgery="https://doi.org/10.1007/s11548-020-02180-5">

	<rect width="100%" height="100%" fill="black" />
	<path d = "M 262.50 0.00 L 227.34 135.94 L 222.66 194.53" stroke="white" fill="transparent"/>
	<path d = "M 367.97 246.09 L 307.03 210.94 L 257.81 196.88 L 206.25 196.88 L 147.66 210.94 L 105.47 227.34 L 67.97 253.12 L 28.12 304.69 L 0.00 356.25 L 9.38 363.28 L 445.31 375.00 L 450.00 365.62 L 442.97 328.12 L 421.88 276.56 L 400.78 248.44 L 367.97 227.34 L 325.78 213.28" stroke="white" fill="transparent"/>
	<path d = "M 227.34 377.34 L 225.00 407.81" stroke="white" fill="transparent"/>
	<path d = "M 225.00 417.19 L 225.00 426.56 L 201.56 440.62 L 187.50 461.72 L 187.50 482.81 L 199.22 503.91 L 229.69 517.97 L 250.78 499.22 L 257.81 452.34 L 236.72 428.91" stroke="white" fill="transparent"/>
	<path d = "M 152.34 457.03 L 112.50 520.31" stroke="white" fill="transparent"/>
	<path d = "M 157.03 513.28 L 152.34 576.56" stroke="white" fill="transparent"/>
	<path d = "M 180.47 555.47 L 217.97 597.66" stroke="white" fill="transparent"/>
	<path d = "M 220.31 564.84 L 255.47 590.62" stroke="white" fill="transparent"/>
	<path d = "M 257.81 534.38 L 302.34 567.19" stroke="white" fill="transparent"/>
	<path d = "M 283.59 489.84 L 344.53 520.31" stroke="white" fill="transparent"/>
	<path d = "M 307.03 459.38 L 349.22 473.44" stroke="white" fill="transparent"/>
	<path d = "M 297.66 419.53 L 351.56 410.16" stroke="white" fill="transparent"/>
	<path d = "M 295.31 400.78 L 323.44 410.16" stroke="white" fill="transparent"/>
</svg>