<?xml version="1.0" encoding="UTF-8" standalone="no"?>
<!--Created with ndjsontosvg (https:https://github.com/thompson318/ndjsontosvg) 
	from the simplified Google quickdraw data set. key_id = 6077055231852544-->
<svg width="600" height="600"
	xmlns="http://www.w3.org/2000/svg">
	xmlns:ndjsontosvg="https://github.com/thompson318/ndjsontosvg"
	xmlns:quickdraw="https://quickdraw.withgoogle.com/data"
	xmlns:scikit-surgery="https://doi.org/10.1007/s11548-020-02180-5">

	<rect width="100%" height="100%" fill="black" />
	<path d = "M 285.94 0.00 L 222.66 9.38 L 201.56 23.44 L 199.22 58.59 L 222.66 77.34 L 262.50 84.38 L 309.38 77.34 L 339.84 49.22 L 342.19 32.81 L 328.12 18.75" stroke="white" fill="transparent"/>
	<path d = "M 217.97 4.69 L 217.97 135.94 L 203.91 243.75" stroke="white" fill="transparent"/>
	<path d = "M 260.16 14.06 L 262.50 173.44 L 255.47 220.31" stroke="white" fill="transparent"/>
	<path d = "M 295.31 16.41 L 304.69 91.41 L 295.31 180.47" stroke="white" fill="transparent"/>
	<path d = "M 321.09 79.69 L 328.12 201.56 L 311.72 246.09" stroke="white" fill="transparent"/>
	<path d = "M 192.19 253.12 L 199.22 276.56 L 217.97 278.91 L 196.88 250.78" stroke="white" fill="transparent"/>
	<path d = "M 274.22 208.59 L 255.47 234.38 L 269.53 194.53" stroke="white" fill="transparent"/>
	<path d = "M 290.62 187.50 L 285.94 189.84 L 285.94 203.91 L 297.66 189.84" stroke="white" fill="transparent"/>
	<path d = "M 311.72 248.44 L 300.00 236.72 L 295.31 239.06 L 292.97 253.12 L 302.34 269.53 L 318.75 271.88 L 328.12 262.50" stroke="white" fill="transparent"/>
	<path d = "M 382.03 180.47 L 459.38 51.56" stroke="white" fill="transparent"/>
	<path d = "M 452.34 215.62 L 527.34 119.53" stroke="white" fill="transparent"/>
	<path d = "M 520.31 255.47 L 567.19 220.31 L 597.66 180.47" stroke="white" fill="transparent"/>
	<path d = "M 168.75 161.72 L 154.69 110.16 L 114.84 51.56" stroke="white" fill="transparent"/>
	<path d = "M 135.94 199.22 L 126.56 173.44 L 86.72 138.28" stroke="white" fill="transparent"/>
	<path d = "M 96.09 239.06 L 0.00 196.88" stroke="white" fill="transparent"/>
</svg>