<?xml version="1.0" encoding="UTF-8" standalone="no"?>
<!--Created with ndjsontosvg (https:https://github.com/thompson318/ndjsontosvg) 
	from the simplified Google quickdraw data set. key_id = 5210266256015360-->
<svg width="600" height="600"
	xmlns="http://www.w3.org/2000/svg">
	xmlns:ndjsontosvg="https://github.com/thompson318/ndjsontosvg"
	xmlns:quickdraw="https://quickdraw.withgoogle.com/data"
	xmlns:scikit-surgery="https://doi.org/10.1007/s11548-020-02180-5">

	<rect width="100%" height="100%" fill="black" />
	<path d = "M 295.31 0.00 L 285.94 67.97 L 283.59 227.34 L 260.16 281.25 L 203.91 344.53 L 147.66 370.31 L 86.72 363.28 L 35.16 328.12 L 2.34 255.47" stroke="white" fill="transparent"/>
	<path d = "M 290.62 161.72 L 318.75 278.91 L 370.31 325.78 L 414.84 346.88 L 487.50 346.88 L 557.81 318.75 L 585.94 267.19 L 597.66 199.22" stroke="white" fill="transparent"/>
	<path d = "M 290.62 157.03 L 274.22 208.59 L 250.78 234.38 L 199.22 269.53 L 150.00 278.91 L 98.44 255.47 L 70.31 222.66 L 58.59 159.38 L 79.69 112.50" stroke="white" fill="transparent"/>
	<path d = "M 297.66 117.19 L 300.00 157.03 L 316.41 192.19 L 370.31 234.38 L 398.44 243.75 L 442.97 239.06 L 475.78 217.97 L 494.53 182.81 L 501.56 135.94" stroke="white" fill="transparent"/>
</svg>