<?xml version="1.0" encoding="UTF-8" standalone="no"?>
<!--Created with ndjsontosvg (https:https://github.com/thompson318/ndjsontosvg) 
	from the simplified Google quickdraw data set. key_id = 6239753340977152-->
<svg width="600" height="600"
	xmlns="http://www.w3.org/2000/svg">
	xmlns:ndjsontosvg="https://github.com/thompson318/ndjsontosvg"
	xmlns:quickdraw="https://quickdraw.withgoogle.com/data"
	xmlns:scikit-surgery="https://doi.org/10.1007/s11548-020-02180-5">

	<rect width="100%" height="100%" fill="black" />
	<path d = "M 0.00 30.47 L 597.66 39.84" stroke="white" fill="transparent"/>
	<path d = "M 290.62 35.16 L 292.97 131.25 L 274.22 168.75 L 246.09 180.47 L 210.94 182.81 L 157.03 150.00" stroke="white" fill="transparent"/>
	<path d = "M 295.31 103.12 L 314.06 171.09 L 330.47 187.50 L 372.66 196.88 L 405.47 173.44" stroke="white" fill="transparent"/>
	<path d = "M 290.62 91.41 L 271.88 103.12 L 239.06 105.47 L 199.22 67.97" stroke="white" fill="transparent"/>
	<path d = "M 290.62 79.69 L 339.84 105.47 L 375.00 105.47 L 398.44 96.09" stroke="white" fill="transparent"/>
	<path d = "M 391.41 96.09 L 398.44 107.81 L 405.47 89.06 L 396.09 86.72 L 400.78 93.75" stroke="white" fill="transparent"/>
	<path d = "M 201.56 56.25 L 203.91 72.66 L 215.62 77.34 L 227.34 70.31 L 227.34 56.25 L 208.59 53.91 L 208.59 63.28" stroke="white" fill="transparent"/>
	<path d = "M 152.34 145.31 L 171.09 171.09 L 182.81 166.41 L 182.81 147.66 L 161.72 145.31 L 161.72 154.69 L 168.75 159.38" stroke="white" fill="transparent"/>
	<path d = "M 403.12 161.72 L 407.81 178.12 L 414.84 178.12 L 414.84 168.75 L 403.12 159.38 L 410.16 166.41" stroke="white" fill="transparent"/>
	<path d = "M 67.97 194.53 L 60.94 182.81 L 89.06 93.75 L 105.47 70.31 L 152.34 35.16 L 243.75 4.69 L 372.66 2.34 L 438.28 23.44 L 480.47 65.62 L 501.56 107.81 L 525.00 201.56 L 536.72 229.69 L 532.03 232.03" stroke="white" fill="transparent"/>
	<path d = "M 89.06 100.78 L 112.50 128.91" stroke="white" fill="transparent"/>
	<path d = "M 159.38 70.31 L 164.06 93.75" stroke="white" fill="transparent"/>
	<path d = "M 267.19 14.06 L 267.19 18.75" stroke="white" fill="transparent"/>
	<path d = "M 377.34 16.41 L 377.34 25.78" stroke="white" fill="transparent"/>
	<path d = "M 433.59 49.22 L 438.28 56.25" stroke="white" fill="transparent"/>
</svg>