<?xml version="1.0" encoding="UTF-8" standalone="no"?>
<!--Created with ndjsontosvg (https:https://github.com/thompson318/ndjsontosvg) 
	from the simplified Google quickdraw data set. key_id = 4931806832885760-->
<svg width="600" height="600"
	xmlns="http://www.w3.org/2000/svg">
	xmlns:ndjsontosvg="https://github.com/thompson318/ndjsontosvg"
	xmlns:quickdraw="https://quickdraw.withgoogle.com/data"
	xmlns:scikit-surgery="https://doi.org/10.1007/s11548-020-02180-5">

	<rect width="100%" height="100%" fill="black" />
	<path d = "M 515.62 84.38 L 466.41 44.53 L 428.91 25.78 L 337.50 2.34 L 253.12 0.00 L 194.53 11.72 L 145.31 32.81 L 103.12 65.62 L 65.62 112.50 L 35.16 168.75 L 4.69 255.47 L 2.34 335.16 L 58.59 417.19 L 98.44 454.69 L 138.28 482.81 L 187.50 501.56 L 281.25 520.31 L 358.59 515.62 L 393.75 506.25 L 464.06 473.44 L 520.31 435.94 L 576.56 363.28 L 588.28 337.50 L 597.66 227.34 L 583.59 164.06 L 555.47 110.16 L 522.66 75.00 L 489.84 58.59" stroke="white" fill="transparent"/>
</svg>