<?xml version="1.0" encoding="UTF-8" standalone="no"?>
<!--Created with ndjsontosvg (https:https://github.com/thompson318/ndjsontosvg) 
	from the simplified Google quickdraw data set. key_id = 5837703230783488-->
<svg width="600" height="600"
	xmlns="http://www.w3.org/2000/svg">
	xmlns:ndjsontosvg="https://github.com/thompson318/ndjsontosvg"
	xmlns:quickdraw="https://quickdraw.withgoogle.com/data"
	xmlns:scikit-surgery="https://doi.org/10.1007/s11548-020-02180-5">

	<rect width="100%" height="100%" fill="black" />
	<path d = "M 271.88 2.34 L 255.47 117.19 L 210.94 243.75 L 189.84 285.94 L 142.97 351.56 L 44.53 468.75 L 0.00 578.91 L 16.41 588.28 L 77.34 595.31 L 166.41 597.66 L 213.28 564.84 L 246.09 496.88 L 314.06 250.78 L 328.12 150.00 L 358.59 25.78 L 358.59 7.03 L 288.28 0.00" stroke="white" fill="transparent"/>
	<path d = "M 304.69 58.59 L 283.59 60.94 L 269.53 91.41 L 283.59 107.81 L 316.41 105.47 L 321.09 77.34 L 316.41 65.62 L 295.31 63.28 L 281.25 75.00" stroke="white" fill="transparent"/>
	<path d = "M 297.66 161.72 L 260.16 171.09 L 248.44 203.91 L 269.53 229.69 L 297.66 227.34 L 304.69 213.28 L 297.66 180.47 L 285.94 178.12 L 262.50 189.84" stroke="white" fill="transparent"/>
	<path d = "M 246.09 262.50 L 222.66 269.53 L 206.25 290.62 L 201.56 311.72 L 213.28 328.12 L 248.44 307.03 L 257.81 276.56 L 246.09 260.16 L 225.00 248.44 L 213.28 250.78 L 201.56 262.50" stroke="white" fill="transparent"/>
	<path d = "M 175.78 365.62 L 140.62 375.00 L 124.22 396.09 L 124.22 417.19 L 152.34 442.97 L 196.88 457.03 L 206.25 452.34 L 210.94 407.81 L 189.84 360.94" stroke="white" fill="transparent"/>
</svg>