<?xml version="1.0" encoding="UTF-8" standalone="no"?>
<!--Created with ndjsontosvg (https:https://github.com/thompson318/ndjsontosvg) 
	from the simplified Google quickdraw data set. key_id = 5729977251135488-->
<svg width="600" height="600"
	xmlns="http://www.w3.org/2000/svg">
	xmlns:ndjsontosvg="https://github.com/thompson318/ndjsontosvg"
	xmlns:quickdraw="https://quickdraw.withgoogle.com/data"
	xmlns:scikit-surgery="https://doi.org/10.1007/s11548-020-02180-5">

	<rect width="100%" height="100%" fill="black" />
	<path d = "M 576.56 255.47 L 555.47 290.62 L 553.12 321.09 L 564.84 330.47 L 581.25 325.78 L 592.97 307.03 L 597.66 264.84 L 578.91 253.12" stroke="white" fill="transparent"/>
	<path d = "M 583.59 248.44 L 419.53 173.44 L 309.38 112.50 L 60.94 0.00 L 53.91 0.00 L 0.00 51.56 L 2.34 60.94 L 548.44 302.34" stroke="white" fill="transparent"/>
	<path d = "M 91.41 56.25 L 91.41 46.88 L 65.62 42.19 L 63.28 63.28 L 75.00 72.66 L 91.41 75.00 L 93.75 53.91" stroke="white" fill="transparent"/>
	<path d = "M 168.75 86.72 L 185.16 82.03 L 173.44 75.00 L 159.38 75.00 L 161.72 86.72 L 196.88 91.41" stroke="white" fill="transparent"/>
	<path d = "M 309.38 140.62 L 307.03 128.91 L 281.25 119.53 L 262.50 119.53 L 257.81 126.56 L 276.56 138.28 L 295.31 138.28" stroke="white" fill="transparent"/>
	<path d = "M 433.59 203.91 L 442.97 203.91 L 424.22 192.19 L 384.38 178.12 L 382.03 189.84 L 396.09 203.91 L 433.59 215.62" stroke="white" fill="transparent"/>
</svg>