<?xml version="1.0" encoding="UTF-8" standalone="no"?>
<!--Created with ndjsontosvg (https:https://github.com/thompson318/ndjsontosvg) 
	from the simplified Google quickdraw data set. key_id = 4857788880650240-->
<svg width="600" height="600"
	xmlns="http://www.w3.org/2000/svg">
	xmlns:ndjsontosvg="https://github.com/thompson318/ndjsontosvg"
	xmlns:quickdraw="https://quickdraw.withgoogle.com/data"
	xmlns:scikit-surgery="https://doi.org/10.1007/s11548-020-02180-5">

	<rect width="100%" height="100%" fill="black" />
	<path d = "M 65.62 14.06 L 65.62 14.06" stroke="white" fill="transparent"/>
	<path d = "M 75.00 16.41 L 269.53 18.75 L 457.03 0.00 L 527.34 2.34 L 560.16 11.72 L 585.94 42.19 L 578.91 77.34 L 560.16 100.78 L 543.75 105.47 L 529.69 98.44 L 508.59 70.31 L 503.91 30.47 L 515.62 18.75" stroke="white" fill="transparent"/>
	<path d = "M 597.66 65.62 L 585.94 79.69 L 503.91 112.50 L 93.75 105.47 L 30.47 93.75 L 2.34 67.97 L 0.00 39.84 L 7.03 30.47 L 25.78 21.09 L 51.56 18.75 L 65.62 30.47" stroke="white" fill="transparent"/>
	<path d = "M 96.09 65.62 L 98.44 56.25 L 121.88 49.22 L 126.56 60.94 L 121.88 67.97 L 105.47 67.97 L 103.12 60.94" stroke="white" fill="transparent"/>
	<path d = "M 194.53 51.56 L 210.94 58.59 L 201.56 63.28 L 199.22 49.22" stroke="white" fill="transparent"/>
	<path d = "M 285.94 63.28 L 295.31 70.31 L 288.28 70.31 L 290.62 53.91 L 302.34 53.91" stroke="white" fill="transparent"/>
	<path d = "M 386.72 53.91 L 384.38 63.28" stroke="white" fill="transparent"/>
</svg>