<?xml version="1.0" encoding="UTF-8" standalone="no"?>
<!--Created with ndjsontosvg (https:https://github.com/thompson318/ndjsontosvg) 
	from the simplified Google quickdraw data set. key_id = 4551672011423744-->
<svg width="600" height="600"
	xmlns="http://www.w3.org/2000/svg">
	xmlns:ndjsontosvg="https://github.com/thompson318/ndjsontosvg"
	xmlns:quickdraw="https://quickdraw.withgoogle.com/data"
	xmlns:scikit-surgery="https://doi.org/10.1007/s11548-020-02180-5">

	<rect width="100%" height="100%" fill="black" />
	<path d = "M 302.34 0.00 L 267.19 4.69 L 210.94 30.47 L 124.22 77.34 L 96.09 103.12 L 51.56 182.81 L 2.34 403.12 L 0.00 442.97 L 32.81 452.34 L 117.19 454.69 L 246.09 440.62 L 349.22 407.81 L 433.59 349.22 L 445.31 321.09 L 452.34 271.88 L 447.66 131.25 L 419.53 82.03 L 379.69 42.19 L 316.41 16.41 L 285.94 21.09" stroke="white" fill="transparent"/>
	<path d = "M 257.81 11.72 L 243.75 269.53 L 229.69 314.06" stroke="white" fill="transparent"/>
	<path d = "M 229.69 314.06 L 309.38 417.19 L 400.78 588.28 L 375.00 564.84 L 358.59 532.03" stroke="white" fill="transparent"/>
</svg>