<?xml version="1.0" encoding="UTF-8" standalone="no"?>
<!--Created with ndjsontosvg (https:https://github.com/thompson318/ndjsontosvg) 
	from the simplified Google quickdraw data set. key_id = 6110507742265344-->
<svg width="600" height="600"
	xmlns="http://www.w3.org/2000/svg">
	xmlns:ndjsontosvg="https://github.com/thompson318/ndjsontosvg"
	xmlns:quickdraw="https://quickdraw.withgoogle.com/data"
	xmlns:scikit-surgery="https://doi.org/10.1007/s11548-020-02180-5">

	<rect width="100%" height="100%" fill="black" />
	<path d = "M 377.34 51.56 L 307.03 9.38 L 246.09 9.38 L 100.78 84.38 L 65.62 124.22 L 11.72 257.81 L 0.00 321.09 L 2.34 379.69 L 21.09 438.28 L 60.94 496.88 L 131.25 541.41 L 300.00 597.66 L 346.88 597.66 L 377.34 588.28 L 426.56 567.19 L 457.03 532.03 L 510.94 428.91 L 534.38 363.28 L 536.72 311.72 L 482.81 210.94 L 468.75 161.72 L 431.25 93.75 L 398.44 53.91 L 365.62 42.19" stroke="white" fill="transparent"/>
	<path d = "M 309.38 0.00 L 295.31 16.41 L 290.62 44.53 L 290.62 70.31 L 307.03 91.41" stroke="white" fill="transparent"/>
	<path d = "M 567.19 328.12 L 379.69 328.12" stroke="white" fill="transparent"/>
	<path d = "M 253.12 503.91 L 243.75 583.59" stroke="white" fill="transparent"/>
	<path d = "M 35.16 290.62 L 145.31 309.38" stroke="white" fill="transparent"/>
	<path d = "M 234.38 297.66 L 260.16 309.38 L 297.66 311.72 L 309.38 295.31 L 295.31 292.97 L 257.81 314.06" stroke="white" fill="transparent"/>
	<path d = "M 257.81 295.31 L 257.81 281.25" stroke="white" fill="transparent"/>
</svg>