<?xml version="1.0" encoding="UTF-8" standalone="no"?>
<!--Created with ndjsontosvg (https:https://github.com/thompson318/ndjsontosvg) 
	from the simplified Google quickdraw data set. key_id = 5734765749600256-->
<svg width="600" height="600"
	xmlns="http://www.w3.org/2000/svg">
	xmlns:ndjsontosvg="https://github.com/thompson318/ndjsontosvg"
	xmlns:quickdraw="https://quickdraw.withgoogle.com/data"
	xmlns:scikit-surgery="https://doi.org/10.1007/s11548-020-02180-5">

	<rect width="100%" height="100%" fill="black" />
	<path d = "M 262.50 4.69 L 213.28 0.00 L 166.41 16.41 L 91.41 63.28 L 30.47 119.53 L 4.69 164.06 L 0.00 199.22 L 7.03 257.81 L 25.78 300.00 L 65.62 356.25 L 124.22 405.47 L 215.62 468.75 L 330.47 532.03 L 377.34 548.44 L 440.62 550.78 L 503.91 525.00 L 557.81 459.38 L 592.97 360.94 L 595.31 262.50 L 583.59 206.25 L 564.84 173.44 L 525.00 135.94 L 468.75 98.44 L 300.00 23.44 L 236.72 18.75 L 213.28 30.47 L 171.09 70.31" stroke="white" fill="transparent"/>
	<path d = "M 292.97 255.47 L 297.66 60.94" stroke="white" fill="transparent"/>
	<path d = "M 292.97 246.09 L 377.34 196.88 L 419.53 150.00" stroke="white" fill="transparent"/>
</svg>