<?xml version="1.0" encoding="UTF-8" standalone="no"?>
<!--Created with ndjsontosvg (https:https://github.com/thompson318/ndjsontosvg) 
	from the simplified Google quickdraw data set. key_id = 6186791126171648-->
<svg width="600" height="600"
	xmlns="http://www.w3.org/2000/svg">
	xmlns:ndjsontosvg="https://github.com/thompson318/ndjsontosvg"
	xmlns:quickdraw="https://quickdraw.withgoogle.com/data"
	xmlns:scikit-surgery="https://doi.org/10.1007/s11548-020-02180-5">

	<rect width="100%" height="100%" fill="black" />
	<path d = "M 316.41 37.50 L 290.62 30.47 L 222.66 37.50 L 180.47 56.25 L 133.59 82.03 L 53.91 171.09 L 23.44 220.31 L 7.03 269.53 L 0.00 318.75 L 4.69 421.88 L 23.44 471.09 L 49.22 515.62 L 82.03 550.78 L 121.88 576.56 L 166.41 592.97 L 269.53 597.66 L 321.09 581.25 L 414.84 522.66 L 487.50 445.31 L 510.94 405.47 L 529.69 318.75 L 527.34 227.34 L 513.28 187.50 L 473.44 110.16 L 400.78 25.78 L 351.56 2.34 L 300.00 2.34" stroke="white" fill="transparent"/>
	<path d = "M 220.31 246.09 L 208.59 267.19 L 203.91 304.69 L 208.59 346.88 L 217.97 356.25 L 253.12 358.59 L 276.56 346.88 L 302.34 311.72 L 304.69 269.53 L 283.59 250.78 L 232.03 236.72" stroke="white" fill="transparent"/>
	<path d = "M 278.91 227.34 L 269.53 194.53 L 274.22 140.62 L 318.75 49.22" stroke="white" fill="transparent"/>
	<path d = "M 269.53 72.66 L 353.91 30.47 L 358.59 42.19 L 358.59 142.97" stroke="white" fill="transparent"/>
	<path d = "M 314.06 290.62 L 382.03 283.59" stroke="white" fill="transparent"/>
</svg>