<?xml version="1.0" encoding="UTF-8" standalone="no"?>
<!--Created with ndjsontosvg (https:https://github.com/thompson318/ndjsontosvg) 
	from the simplified Google quickdraw data set. key_id = 5922353345200128-->
<svg width="600" height="600"
	xmlns="http://www.w3.org/2000/svg">
	xmlns:ndjsontosvg="https://github.com/thompson318/ndjsontosvg"
	xmlns:quickdraw="https://quickdraw.withgoogle.com/data"
	xmlns:scikit-surgery="https://doi.org/10.1007/s11548-020-02180-5">

	<rect width="100%" height="100%" fill="black" />
	<path d = "M 494.53 16.41 L 386.72 0.00 L 229.69 7.03 L 161.72 23.44 L 72.66 60.94 L 14.06 110.16 L 0.00 150.00 L 0.00 220.31 L 14.06 283.59 L 32.81 325.78 L 53.91 346.88 L 86.72 363.28 L 147.66 375.00 L 194.53 375.00 L 356.25 337.50 L 459.38 302.34 L 522.66 267.19 L 555.47 234.38 L 592.97 178.12 L 597.66 98.44 L 590.62 75.00 L 569.53 53.91 L 475.78 46.88" stroke="white" fill="transparent"/>
	<path d = "M 276.56 103.12 L 276.56 189.84 L 262.50 253.12" stroke="white" fill="transparent"/>
	<path d = "M 257.81 253.12 L 435.94 229.69" stroke="white" fill="transparent"/>
</svg>