<?xml version="1.0" encoding="UTF-8" standalone="no"?>
<!--Created with ndjsontosvg (https:https://github.com/thompson318/ndjsontosvg) 
	from the simplified Google quickdraw data set. key_id = 5954064082796544-->
<svg width="600" height="600"
	xmlns="http://www.w3.org/2000/svg">
	xmlns:ndjsontosvg="https://github.com/thompson318/ndjsontosvg"
	xmlns:quickdraw="https://quickdraw.withgoogle.com/data"
	xmlns:scikit-surgery="https://doi.org/10.1007/s11548-020-02180-5">

	<rect width="100%" height="100%" fill="black" />
	<path d = "M 405.47 30.47 L 335.16 4.69 L 246.09 0.00 L 157.03 35.16 L 79.69 96.09 L 28.12 154.69 L 2.34 217.97 L 2.34 311.72 L 30.47 377.34 L 72.66 431.25 L 133.59 475.78 L 203.91 508.59 L 281.25 525.00 L 360.94 527.34 L 473.44 485.16 L 529.69 438.28 L 574.22 382.03 L 595.31 318.75 L 597.66 274.22 L 567.19 192.19 L 529.69 140.62 L 431.25 60.94 L 391.41 39.84" stroke="white" fill="transparent"/>
	<path d = "M 262.50 39.84 L 267.19 91.41" stroke="white" fill="transparent"/>
	<path d = "M 389.06 110.16 L 410.16 110.16 L 424.22 124.22 L 433.59 166.41 L 421.88 173.44 L 414.84 164.06 L 442.97 147.66 L 485.16 145.31" stroke="white" fill="transparent"/>
	<path d = "M 471.09 206.25 L 496.88 206.25 L 492.19 234.38 L 515.62 243.75 L 494.53 271.88" stroke="white" fill="transparent"/>
	<path d = "M 454.69 335.16 L 454.69 377.34 L 464.06 386.72 L 482.81 384.38 L 517.97 367.97" stroke="white" fill="transparent"/>
	<path d = "M 506.25 351.56 L 506.25 393.75" stroke="white" fill="transparent"/>
	<path d = "M 379.69 412.50 L 428.91 405.47 L 407.81 417.19 L 417.19 424.22" stroke="white" fill="transparent"/>
</svg>