<?xml version="1.0" encoding="UTF-8" standalone="no"?>
<!--Created with ndjsontosvg (https:https://github.com/thompson318/ndjsontosvg) 
	from the simplified Google quickdraw data set. key_id = 4952494486585344-->
<svg width="600" height="600"
	xmlns="http://www.w3.org/2000/svg">
	xmlns:ndjsontosvg="https://github.com/thompson318/ndjsontosvg"
	xmlns:quickdraw="https://quickdraw.withgoogle.com/data"
	xmlns:scikit-surgery="https://doi.org/10.1007/s11548-020-02180-5">

	<rect width="100%" height="100%" fill="black" />
	<path d = "M 264.84 60.94 L 217.97 60.94 L 147.66 96.09 L 96.09 131.25 L 67.97 164.06 L 30.47 227.34 L 0.00 302.34 L 0.00 365.62 L 11.72 414.84 L 72.66 466.41 L 128.91 494.53 L 309.38 510.94 L 450.00 515.62 L 513.28 508.59 L 569.53 478.12 L 597.66 445.31 L 583.59 335.16 L 562.50 260.16 L 510.94 152.34 L 480.47 114.84 L 300.00 9.38 L 243.75 0.00 L 201.56 4.69" stroke="white" fill="transparent"/>
	<path d = "M 257.81 257.81 L 264.84 260.16 L 260.16 255.47" stroke="white" fill="transparent"/>
	<path d = "M 257.81 248.44 L 276.56 53.91" stroke="white" fill="transparent"/>
	<path d = "M 278.91 257.81 L 335.16 267.19" stroke="white" fill="transparent"/>
</svg>