<?xml version="1.0" encoding="UTF-8" standalone="no"?>
<!--Created with ndjsontosvg (https:https://github.com/thompson318/ndjsontosvg) 
	from the simplified Google quickdraw data set. key_id = 4941650159730688-->
<svg width="600" height="600"
	xmlns="http://www.w3.org/2000/svg">
	xmlns:ndjsontosvg="https://github.com/thompson318/ndjsontosvg"
	xmlns:quickdraw="https://quickdraw.withgoogle.com/data"
	xmlns:scikit-surgery="https://doi.org/10.1007/s11548-020-02180-5">

	<rect width="100%" height="100%" fill="black" />
	<path d = "M 307.03 16.41 L 208.59 0.00 L 86.72 0.00 L 67.97 9.38 L 35.16 42.19 L 7.03 107.81 L 2.34 157.03 L 0.00 375.00 L 7.03 428.91 L 37.50 494.53 L 79.69 546.09 L 147.66 595.31 L 276.56 597.66 L 440.62 588.28 L 457.03 578.91 L 503.91 532.03 L 557.81 464.06 L 574.22 428.91 L 583.59 398.44 L 592.97 239.06 L 569.53 75.00 L 510.94 39.84 L 447.66 23.44 L 426.56 11.72 L 389.06 11.72" stroke="white" fill="transparent"/>
	<path d = "M 271.88 321.09 L 271.88 321.09" stroke="white" fill="transparent"/>
	<path d = "M 271.88 311.72 L 262.50 318.75 L 260.16 335.16 L 267.19 344.53 L 281.25 346.88 L 288.28 335.16 L 267.19 316.41" stroke="white" fill="transparent"/>
	<path d = "M 269.53 314.06 L 271.88 189.84 L 278.91 150.00" stroke="white" fill="transparent"/>
</svg>