<?xml version="1.0" encoding="UTF-8" standalone="no"?>
<!--Created with ndjsontosvg (https:https://github.com/thompson318/ndjsontosvg) 
	from the simplified Google quickdraw data set. key_id = 4988682807279616-->
<svg width="600" height="600"
	xmlns="http://www.w3.org/2000/svg">
	xmlns:ndjsontosvg="https://github.com/thompson318/ndjsontosvg"
	xmlns:quickdraw="https://quickdraw.withgoogle.com/data"
	xmlns:scikit-surgery="https://doi.org/10.1007/s11548-020-02180-5">

	<rect width="100%" height="100%" fill="black" />
	<path d = "M 63.28 119.53 L 28.12 133.59 L 16.41 147.66 L 2.34 194.53 L 0.00 222.66 L 16.41 236.72 L 96.09 241.41 L 121.88 241.41 L 128.91 222.66 L 124.22 248.44 L 140.62 281.25 L 189.84 323.44 L 208.59 325.78 L 222.66 311.72 L 246.09 264.84 L 243.75 236.72 L 260.16 269.53 L 321.09 309.38 L 358.59 304.69 L 382.03 295.31 L 379.69 236.72 L 384.38 248.44 L 405.47 264.84 L 459.38 283.59 L 508.59 290.62 L 534.38 276.56 L 548.44 239.06 L 541.41 203.91 L 581.25 206.25 L 595.31 178.12 L 592.97 135.94 L 562.50 84.38 L 520.31 44.53 L 428.91 7.03 L 398.44 0.00 L 225.00 2.34 L 140.62 18.75 L 67.97 67.97 L 46.88 105.47 L 37.50 147.66" stroke="white" fill="transparent"/>
	<path d = "M 100.78 288.28 L 100.78 365.62" stroke="white" fill="transparent"/>
	<path d = "M 159.38 370.31 L 161.72 398.44" stroke="white" fill="transparent"/>
	<path d = "M 297.66 342.19 L 297.66 358.59" stroke="white" fill="transparent"/>
</svg>