<?xml version="1.0" encoding="UTF-8" standalone="no"?>
<!--Created with ndjsontosvg (https:https://github.com/thompson318/ndjsontosvg) 
	from the simplified Google quickdraw data set. key_id = 5553153443364864-->
<svg width="600" height="600"
	xmlns="http://www.w3.org/2000/svg">
	xmlns:ndjsontosvg="https://github.com/thompson318/ndjsontosvg"
	xmlns:quickdraw="https://quickdraw.withgoogle.com/data"
	xmlns:scikit-surgery="https://doi.org/10.1007/s11548-020-02180-5">

	<rect width="100%" height="100%" fill="black" />
	<path d = "M 194.53 382.03 L 154.69 384.38 L 105.47 365.62 L 25.78 309.38 L 7.03 281.25 L 0.00 225.00 L 16.41 194.53 L 39.84 171.09 L 70.31 154.69 L 126.56 140.62 L 152.34 142.97 L 145.31 161.72 L 133.59 166.41 L 128.91 157.03 L 138.28 121.88 L 166.41 84.38 L 243.75 23.44 L 283.59 4.69 L 339.84 2.34 L 353.91 14.06 L 358.59 32.81 L 353.91 112.50 L 377.34 114.84 L 532.03 63.28 L 590.62 58.59 L 597.66 63.28 L 592.97 82.03 L 499.22 178.12 L 473.44 217.97 L 473.44 227.34 L 489.84 232.03 L 576.56 229.69 L 571.88 255.47 L 482.81 370.31 L 499.22 375.00 L 548.44 358.59 L 367.97 461.72 L 349.22 466.41 L 344.53 459.38 L 356.25 396.09 L 356.25 379.69 L 346.88 372.66 L 314.06 375.00 L 147.66 461.72 L 180.47 335.16 L 150.00 344.53 L 60.94 419.53 L 60.94 321.09 L 35.16 314.06 L 30.47 297.66 L 46.88 262.50" stroke="white" fill="transparent"/>
</svg>