<?xml version="1.0" encoding="UTF-8" standalone="no"?>
<!--Created with ndjsontosvg (https:https://github.com/thompson318/ndjsontosvg) 
	from the simplified Google quickdraw data set. key_id = 6146782297849856-->
<svg width="600" height="600"
	xmlns="http://www.w3.org/2000/svg">
	xmlns:ndjsontosvg="https://github.com/thompson318/ndjsontosvg"
	xmlns:quickdraw="https://quickdraw.withgoogle.com/data"
	xmlns:scikit-surgery="https://doi.org/10.1007/s11548-020-02180-5">

	<rect width="100%" height="100%" fill="black" />
	<path d = "M 574.22 0.00 L 597.66 213.28 L 585.94 337.50 L 550.78 421.88 L 515.62 468.75 L 473.44 501.56 L 419.53 520.31 L 365.62 510.94 L 318.75 473.44 L 269.53 386.72 L 227.34 220.31 L 199.22 2.34" stroke="white" fill="transparent"/>
	<path d = "M 206.25 105.47 L 135.94 86.72 L 82.03 89.06 L 37.50 105.47 L 11.72 126.56 L 0.00 150.00 L 4.69 175.78 L 32.81 203.91 L 84.38 232.03 L 168.75 262.50 L 222.66 267.19" stroke="white" fill="transparent"/>
	<path d = "M 278.91 110.16 L 321.09 58.59 L 377.34 58.59 L 400.78 75.00 L 440.62 79.69 L 478.12 67.97 L 525.00 77.34 L 525.00 114.84 L 555.47 119.53 L 581.25 100.78 L 595.31 110.16" stroke="white" fill="transparent"/>
	<path d = "M 283.59 75.00 L 262.50 89.06 L 239.06 67.97 L 210.94 63.28" stroke="white" fill="transparent"/>
</svg>