<?xml version="1.0" encoding="UTF-8" standalone="no"?>
<!--Created with ndjsontosvg (https:https://github.com/thompson318/ndjsontosvg) 
	from the simplified Google quickdraw data set. key_id = 6055371703582720-->
<svg width="600" height="600"
	xmlns="http://www.w3.org/2000/svg">
	xmlns:ndjsontosvg="https://github.com/thompson318/ndjsontosvg"
	xmlns:quickdraw="https://quickdraw.withgoogle.com/data"
	xmlns:scikit-surgery="https://doi.org/10.1007/s11548-020-02180-5">

	<rect width="100%" height="100%" fill="black" />
	<path d = "M 208.59 28.12 L 131.25 2.34 L 96.09 0.00 L 77.34 7.03 L 46.88 42.19 L 28.12 89.06 L 25.78 173.44 L 67.97 206.25 L 126.56 208.59 L 178.12 192.19 L 253.12 152.34 L 309.38 103.12 L 325.78 77.34 L 325.78 53.91 L 304.69 35.16 L 267.19 18.75 L 225.00 11.72 L 199.22 16.41 L 255.47 4.69 L 304.69 7.03 L 377.34 72.66 L 403.12 135.94 L 405.47 199.22 L 389.06 250.78 L 384.38 342.19 L 370.31 365.62 L 189.84 410.16 L 65.62 405.47 L 35.16 396.09 L 18.75 382.03 L 2.34 351.56 L 0.00 276.56 L 9.38 213.28 L 37.50 164.06" stroke="white" fill="transparent"/>
	<path d = "M 321.09 37.50 L 426.56 21.09 L 475.78 23.44 L 532.03 58.59 L 581.25 114.84 L 597.66 175.78 L 595.31 222.66 L 583.59 264.84 L 515.62 255.47 L 508.59 142.97 L 480.47 107.81 L 438.28 105.47 L 424.22 110.16 L 386.72 150.00" stroke="white" fill="transparent"/>
</svg>