<?xml version="1.0" encoding="UTF-8" standalone="no"?>
<!--Created with ndjsontosvg (https:https://github.com/thompson318/ndjsontosvg) 
	from the simplified Google quickdraw data set. key_id = 6501548542656512-->
<svg width="600" height="600"
	xmlns="http://www.w3.org/2000/svg">
	xmlns:ndjsontosvg="https://github.com/thompson318/ndjsontosvg"
	xmlns:quickdraw="https://quickdraw.withgoogle.com/data"
	xmlns:scikit-surgery="https://doi.org/10.1007/s11548-020-02180-5">

	<rect width="100%" height="100%" fill="black" />
	<path d = "M 131.25 49.22 L 112.50 75.00 L 84.38 175.78 L 79.69 217.97 L 86.72 227.34 L 311.72 253.12 L 574.22 260.16 L 597.66 86.72 L 595.31 42.19 L 578.91 28.12 L 550.78 21.09 L 346.88 0.00 L 150.00 0.00 L 112.50 21.09" stroke="white" fill="transparent"/>
	<path d = "M 182.81 0.00 L 173.44 7.03 L 161.72 46.88 L 147.66 189.84 L 227.34 203.91 L 454.69 220.31 L 553.12 234.38 L 562.50 171.09 L 562.50 72.66 L 548.44 37.50 L 501.56 16.41 L 452.34 9.38 L 199.22 9.38" stroke="white" fill="transparent"/>
	<path d = "M 187.50 253.12 L 173.44 262.50 L 171.09 316.41 L 365.62 335.16 L 435.94 335.16 L 459.38 325.78 L 473.44 302.34 L 468.75 260.16" stroke="white" fill="transparent"/>
	<path d = "M 77.34 351.56 L 185.16 384.38 L 398.44 386.72 L 503.91 396.09 L 510.94 405.47 L 506.25 480.47 L 494.53 532.03 L 485.16 548.44 L 478.12 550.78 L 180.47 541.41 L 107.81 532.03 L 16.41 508.59 L 4.69 485.16 L 0.00 417.19 L 16.41 353.91 L 39.84 344.53 L 121.88 344.53" stroke="white" fill="transparent"/>
	<path d = "M 79.69 339.84 L 84.38 396.09 L 72.66 468.75 L 79.69 494.53" stroke="white" fill="transparent"/>
	<path d = "M 159.38 386.72 L 150.00 403.12 L 145.31 464.06 L 145.31 517.97 L 152.34 517.97" stroke="white" fill="transparent"/>
</svg>