<?xml version="1.0" encoding="UTF-8" standalone="no"?>
<!--Created with ndjsontosvg (https:https://github.com/thompson318/ndjsontosvg) 
	from the simplified Google quickdraw data set. key_id = 5170979506487296-->
<svg width="600" height="600"
	xmlns="http://www.w3.org/2000/svg">
	xmlns:ndjsontosvg="https://github.com/thompson318/ndjsontosvg"
	xmlns:quickdraw="https://quickdraw.withgoogle.com/data"
	xmlns:scikit-surgery="https://doi.org/10.1007/s11548-020-02180-5">

	<rect width="100%" height="100%" fill="black" />
	<path d = "M 281.25 49.22 L 239.06 25.78 L 196.88 23.44 L 135.94 51.56 L 46.88 150.00 L 9.38 255.47 L 0.00 365.62 L 11.72 417.19 L 35.16 464.06 L 65.62 501.56 L 103.12 529.69 L 138.28 546.09 L 182.81 553.12 L 290.62 548.44 L 346.88 529.69 L 403.12 503.91 L 496.88 435.94 L 536.72 391.41 L 585.94 300.00 L 595.31 248.44 L 597.66 175.78 L 576.56 147.66 L 517.97 98.44 L 377.34 23.44 L 283.59 2.34 L 217.97 0.00 L 182.81 14.06 L 173.44 35.16" stroke="white" fill="transparent"/>
	<path d = "M 201.56 164.06 L 199.22 100.78 L 208.59 67.97 L 274.22 161.72 L 316.41 49.22" stroke="white" fill="transparent"/>
	<path d = "M 513.28 201.56 L 471.09 199.22 L 440.62 210.94 L 440.62 232.03 L 457.03 246.09 L 517.97 260.16 L 522.66 276.56 L 513.28 292.97 L 473.44 316.41 L 440.62 321.09 L 433.59 321.09 L 435.94 314.06" stroke="white" fill="transparent"/>
	<path d = "M 248.44 405.47 L 253.12 487.50" stroke="white" fill="transparent"/>
	<path d = "M 257.81 403.12 L 360.94 389.06" stroke="white" fill="transparent"/>
	<path d = "M 260.16 435.94 L 330.47 435.94" stroke="white" fill="transparent"/>
	<path d = "M 253.12 494.53 L 325.78 489.84" stroke="white" fill="transparent"/>
	<path d = "M 46.88 267.19 L 63.28 309.38" stroke="white" fill="transparent"/>
</svg>