<?xml version="1.0" encoding="UTF-8" standalone="no"?>
<!--Created with ndjsontosvg (https:https://github.com/thompson318/ndjsontosvg) 
	from the simplified Google quickdraw data set. key_id = 6665029678006272-->
<svg width="600" height="600"
	xmlns="http://www.w3.org/2000/svg">
	xmlns:ndjsontosvg="https://github.com/thompson318/ndjsontosvg"
	xmlns:quickdraw="https://quickdraw.withgoogle.com/data"
	xmlns:scikit-surgery="https://doi.org/10.1007/s11548-020-02180-5">

	<rect width="100%" height="100%" fill="black" />
	<path d = "M 447.66 96.09 L 396.09 32.81 L 360.94 14.06 L 321.09 2.34 L 220.31 0.00 L 142.97 25.78 L 96.09 49.22 L 60.94 77.34 L 32.81 112.50 L 11.72 152.34 L 0.00 208.59 L 0.00 229.69 L 14.06 264.84 L 72.66 337.50 L 168.75 379.69 L 241.41 391.41 L 316.41 391.41 L 372.66 382.03 L 454.69 351.56 L 543.75 288.28 L 592.97 225.00 L 597.66 187.50 L 585.94 161.72 L 560.16 133.59 L 494.53 89.06 L 370.31 44.53" stroke="white" fill="transparent"/>
	<path d = "M 281.25 60.94 L 281.25 79.69 L 297.66 44.53 L 304.69 49.22 L 339.84 105.47 L 358.59 72.66" stroke="white" fill="transparent"/>
	<path d = "M 442.97 199.22 L 454.69 217.97 L 471.09 225.00 L 499.22 213.28 L 520.31 222.66 L 541.41 203.91" stroke="white" fill="transparent"/>
	<path d = "M 28.12 232.03 L 100.78 196.88 L 107.81 187.50 L 91.41 182.81 L 63.28 192.19 L 32.81 222.66 L 32.81 239.06 L 65.62 241.41" stroke="white" fill="transparent"/>
	<path d = "M 325.78 297.66 L 304.69 323.44 L 332.81 342.19 L 335.16 351.56 L 314.06 358.59 L 302.34 353.91" stroke="white" fill="transparent"/>
	<path d = "M 311.72 154.69 L 311.72 225.00 L 391.41 206.25 L 400.78 206.25 L 403.12 213.28 L 307.03 225.00 L 232.03 225.00" stroke="white" fill="transparent"/>
</svg>