<?xml version="1.0" encoding="UTF-8" standalone="no"?>
<!--Created with ndjsontosvg (https:https://github.com/thompson318/ndjsontosvg) 
	from the simplified Google quickdraw data set. key_id = 4552278159654912-->
<svg width="600" height="600"
	xmlns="http://www.w3.org/2000/svg">
	xmlns:ndjsontosvg="https://github.com/thompson318/ndjsontosvg"
	xmlns:quickdraw="https://quickdraw.withgoogle.com/data"
	xmlns:scikit-surgery="https://doi.org/10.1007/s11548-020-02180-5">

	<rect width="100%" height="100%" fill="black" />
	<path d = "M 145.31 72.66 L 77.34 264.84 L 91.41 271.88 L 154.69 288.28 L 492.19 332.81 L 499.22 311.72 L 510.94 178.12 L 513.28 67.97 L 424.22 23.44 L 274.22 0.00 L 138.28 0.00 L 105.47 16.41 L 79.69 44.53" stroke="white" fill="transparent"/>
	<path d = "M 105.47 7.03 L 86.72 70.31 L 21.09 225.00 L 0.00 318.75 L 21.09 349.22 L 89.06 379.69 L 138.28 391.41 L 339.84 412.50 L 433.59 407.81 L 529.69 412.50 L 546.09 403.12 L 595.31 189.84 L 597.66 121.88 L 562.50 86.72 L 450.00 44.53" stroke="white" fill="transparent"/>
</svg>