<?xml version="1.0" encoding="UTF-8" standalone="no"?>
<!--Created with ndjsontosvg (https:https://github.com/thompson318/ndjsontosvg) 
	from the simplified Google quickdraw data set. key_id = 4728307260063744-->
<svg width="600" height="600"
	xmlns="http://www.w3.org/2000/svg">
	xmlns:ndjsontosvg="https://github.com/thompson318/ndjsontosvg"
	xmlns:quickdraw="https://quickdraw.withgoogle.com/data"
	xmlns:scikit-surgery="https://doi.org/10.1007/s11548-020-02180-5">

	<rect width="100%" height="100%" fill="black" />
	<path d = "M 351.56 164.06 L 370.31 42.19 L 365.62 18.75 L 349.22 2.34 L 288.28 4.69 L 199.22 53.91 L 152.34 91.41 L 65.62 187.50 L 11.72 302.34 L 0.00 358.59 L 7.03 468.75 L 25.78 517.97 L 53.91 557.81 L 91.41 585.94 L 138.28 597.66 L 189.84 592.97 L 253.12 567.19 L 314.06 515.62 L 375.00 447.66 L 417.19 377.34 L 440.62 309.38 L 447.66 246.09 L 442.97 189.84 L 419.53 140.62 L 389.06 100.78 L 314.06 28.12" stroke="white" fill="transparent"/>
	<path d = "M 236.72 138.28 L 255.47 67.97 L 260.16 133.59 L 274.22 147.66 L 283.59 145.31 L 302.34 46.88" stroke="white" fill="transparent"/>
	<path d = "M 403.12 227.34 L 400.78 253.12 L 379.69 321.09" stroke="white" fill="transparent"/>
	<path d = "M 389.06 241.41 L 419.53 232.03" stroke="white" fill="transparent"/>
	<path d = "M 403.12 288.28 L 428.91 274.22" stroke="white" fill="transparent"/>
	<path d = "M 386.72 328.12 L 417.19 323.44" stroke="white" fill="transparent"/>
	<path d = "M 189.84 492.19 L 175.78 487.50 L 159.38 492.19 L 208.59 510.94 L 210.94 527.34 L 180.47 548.44 L 150.00 553.12" stroke="white" fill="transparent"/>
	<path d = "M 49.22 255.47 L 53.91 309.38 L 58.59 314.06 L 67.97 302.34 L 82.03 276.56 L 103.12 321.09 L 119.53 309.38 L 147.66 234.38" stroke="white" fill="transparent"/>
</svg>