<?xml version="1.0" encoding="UTF-8" standalone="no"?>
<!--Created with ndjsontosvg (https:https://github.com/thompson318/ndjsontosvg) 
	from the simplified Google quickdraw data set. key_id = 5954893896482816-->
<svg width="600" height="600"
	xmlns="http://www.w3.org/2000/svg">
	xmlns:ndjsontosvg="https://github.com/thompson318/ndjsontosvg"
	xmlns:quickdraw="https://quickdraw.withgoogle.com/data"
	xmlns:scikit-surgery="https://doi.org/10.1007/s11548-020-02180-5">

	<rect width="100%" height="100%" fill="black" />
	<path d = "M 297.66 0.00 L 192.19 14.06 L 86.72 58.59 L 51.56 89.06 L 32.81 114.84 L 7.03 185.16 L 2.34 321.09 L 16.41 363.28 L 30.47 382.03 L 96.09 426.56 L 227.34 454.69 L 386.72 445.31 L 489.84 419.53 L 557.81 384.38 L 585.94 330.47 L 597.66 262.50 L 595.31 215.62 L 522.66 140.62 L 384.38 30.47 L 344.53 21.09 L 295.31 21.09 L 250.78 7.03" stroke="white" fill="transparent"/>
	<path d = "M 262.50 23.44 L 234.38 25.78 L 229.69 37.50 L 290.62 63.28 L 288.28 70.31 L 267.19 79.69 L 236.72 72.66" stroke="white" fill="transparent"/>
	<path d = "M 496.88 215.62 L 515.62 300.00 L 487.50 203.91 L 517.97 196.88 L 564.84 220.31 L 567.19 232.03 L 560.16 236.72 L 503.91 227.34" stroke="white" fill="transparent"/>
	<path d = "M 271.88 339.84 L 271.88 426.56 L 297.66 328.12 L 304.69 328.12 L 321.09 384.38 L 339.84 410.16 L 351.56 382.03 L 349.22 346.88" stroke="white" fill="transparent"/>
	<path d = "M 91.41 175.78 L 79.69 173.44" stroke="white" fill="transparent"/>
</svg>