<?xml version="1.0" encoding="UTF-8" standalone="no"?>
<!--Created with ndjsontosvg (https:https://github.com/thompson318/ndjsontosvg) 
	from the simplified Google quickdraw data set. key_id = 5129478122504192-->
<svg width="600" height="600"
	xmlns="http://www.w3.org/2000/svg">
	xmlns:ndjsontosvg="https://github.com/thompson318/ndjsontosvg"
	xmlns:quickdraw="https://quickdraw.withgoogle.com/data"
	xmlns:scikit-surgery="https://doi.org/10.1007/s11548-020-02180-5">

	<rect width="100%" height="100%" fill="black" />
	<path d = "M 410.16 25.78 L 384.38 2.34 L 356.25 0.00 L 257.81 18.75 L 103.12 67.97 L 46.88 103.12 L 30.47 135.94 L 9.38 248.44 L 16.41 302.34 L 37.50 351.56 L 96.09 414.84 L 196.88 468.75 L 262.50 485.16 L 335.16 487.50 L 384.38 480.47 L 487.50 431.25 L 522.66 410.16 L 569.53 367.97 L 585.94 335.16 L 588.28 307.03 L 585.94 281.25 L 536.72 178.12 L 529.69 133.59 L 494.53 72.66 L 473.44 58.59 L 375.00 23.44 L 300.00 14.06" stroke="white" fill="transparent"/>
	<path d = "M 39.84 206.25 L 4.69 358.59 L 0.00 412.50 L 56.25 464.06 L 112.50 499.22 L 314.06 578.91 L 426.56 597.66 L 499.22 548.44 L 560.16 529.69 L 564.84 492.19 L 553.12 419.53 L 557.81 363.28 L 571.88 328.12 L 583.59 328.12" stroke="white" fill="transparent"/>
	<path d = "M 337.50 117.19 L 332.81 131.25 L 246.09 229.69" stroke="white" fill="transparent"/>
	<path d = "M 358.59 112.50 L 353.91 227.34 L 344.53 269.53" stroke="white" fill="transparent"/>
	<path d = "M 351.56 140.62 L 346.88 159.38 L 321.09 192.19 L 267.19 239.06 L 278.91 243.75 L 297.66 239.06 L 335.16 206.25 L 351.56 145.31 L 248.44 243.75 L 377.34 285.94" stroke="white" fill="transparent"/>
	<path d = "M 253.12 257.81 L 206.25 389.06 L 217.97 386.72 L 241.41 356.25 L 346.88 309.38 L 367.97 288.28" stroke="white" fill="transparent"/>
</svg>