<?xml version="1.0" encoding="UTF-8" standalone="no"?>
<!--Created with ndjsontosvg (https:https://github.com/thompson318/ndjsontosvg) 
	from the simplified Google quickdraw data set. key_id = 6544667619360768-->
<svg width="600" height="600"
	xmlns="http://www.w3.org/2000/svg">
	xmlns:ndjsontosvg="https://github.com/thompson318/ndjsontosvg"
	xmlns:quickdraw="https://quickdraw.withgoogle.com/data"
	xmlns:scikit-surgery="https://doi.org/10.1007/s11548-020-02180-5">

	<rect width="100%" height="100%" fill="black" />
	<path d = "M 185.16 578.91 L 168.75 576.56 L 128.91 529.69 L 30.47 365.62 L 0.00 250.78 L 0.00 147.66 L 32.81 67.97 L 89.06 23.44 L 166.41 0.00 L 253.12 2.34 L 501.56 124.22 L 557.81 159.38 L 590.62 210.94 L 597.66 243.75 L 595.31 325.78 L 546.09 459.38 L 510.94 503.91 L 478.12 520.31 L 438.28 534.38 L 269.53 567.19 L 100.78 567.19 L 110.16 560.16" stroke="white" fill="transparent"/>
	<path d = "M 264.84 283.59 L 269.53 269.53 L 262.50 274.22" stroke="white" fill="transparent"/>
	<path d = "M 262.50 274.22 L 262.50 255.47 L 283.59 222.66 L 304.69 168.75 L 353.91 98.44 L 353.91 112.50 L 323.44 178.12 L 311.72 227.34 L 283.59 274.22" stroke="white" fill="transparent"/>
	<path d = "M 262.50 274.22 L 232.03 300.00 L 196.88 346.88 L 168.75 426.56 L 182.81 424.22 L 199.22 412.50 L 248.44 367.97 L 304.69 278.91" stroke="white" fill="transparent"/>
</svg>