<?xml version="1.0" encoding="UTF-8" standalone="no"?>
<!--Created with ndjsontosvg (https:https://github.com/thompson318/ndjsontosvg) 
	from the simplified Google quickdraw data set. key_id = 5718187846926336-->
<svg width="600" height="600"
	xmlns="http://www.w3.org/2000/svg">
	xmlns:ndjsontosvg="https://github.com/thompson318/ndjsontosvg"
	xmlns:quickdraw="https://quickdraw.withgoogle.com/data"
	xmlns:scikit-surgery="https://doi.org/10.1007/s11548-020-02180-5">

	<rect width="100%" height="100%" fill="black" />
	<path d = "M 370.31 70.31 L 358.59 70.31 L 353.91 103.12 L 353.91 161.72 L 367.97 180.47 L 405.47 187.50 L 412.50 178.12 L 447.66 208.59 L 485.16 213.28 L 522.66 213.28 L 534.38 203.91 L 553.12 210.94 L 588.28 201.56 L 597.66 189.84" stroke="white" fill="transparent"/>
	<path d = "M 597.66 189.84 L 597.66 332.81 L 590.62 337.50 L 534.38 344.53 L 410.16 382.03 L 292.97 407.81 L 121.88 407.81 L 49.22 389.06 L 25.78 370.31 L 7.03 339.84 L 0.00 309.38 L 0.00 248.44 L 30.47 138.28 L 79.69 72.66 L 164.06 18.75 L 239.06 0.00 L 323.44 0.00 L 351.56 14.06 L 358.59 53.91 L 349.22 67.97" stroke="white" fill="transparent"/>
	<path d = "M 269.53 49.22 L 269.53 67.97 L 276.56 70.31 L 288.28 60.94 L 288.28 42.19 L 278.91 30.47 L 271.88 49.22" stroke="white" fill="transparent"/>
	<path d = "M 128.91 175.78 L 128.91 166.41 L 114.84 161.72 L 110.16 189.84 L 131.25 189.84 L 131.25 178.12 L 112.50 175.78 L 105.47 185.16 L 112.50 185.16" stroke="white" fill="transparent"/>
	<path d = "M 185.16 285.94 L 171.09 316.41 L 180.47 321.09 L 187.50 311.72 L 178.12 302.34 L 175.78 311.72 L 185.16 314.06 L 187.50 304.69 L 178.12 295.31" stroke="white" fill="transparent"/>
</svg>