<?xml version="1.0" encoding="UTF-8" standalone="no"?>
<!--Created with ndjsontosvg (https:https://github.com/thompson318/ndjsontosvg) 
	from the simplified Google quickdraw data set. key_id = 5804912900308992-->
<svg width="600" height="600"
	xmlns="http://www.w3.org/2000/svg">
	xmlns:ndjsontosvg="https://github.com/thompson318/ndjsontosvg"
	xmlns:quickdraw="https://quickdraw.withgoogle.com/data"
	xmlns:scikit-surgery="https://doi.org/10.1007/s11548-020-02180-5">

	<rect width="100%" height="100%" fill="black" />
	<path d = "M 499.22 35.16 L 257.81 32.81 L 203.91 39.84 L 44.53 93.75 L 11.72 142.97 L 0.00 187.50 L 0.00 234.38 L 30.47 281.25 L 75.00 302.34 L 147.66 311.72 L 323.44 309.38 L 478.12 278.91 L 506.25 260.16 L 557.81 210.94 L 581.25 180.47 L 597.66 114.84 L 597.66 75.00 L 560.16 23.44 L 534.38 11.72 L 482.81 0.00 L 445.31 0.00 L 435.94 18.75" stroke="white" fill="transparent"/>
	<path d = "M 180.47 152.34 L 180.47 152.34" stroke="white" fill="transparent"/>
	<path d = "M 208.59 145.31 L 232.03 126.56 L 267.19 114.84" stroke="white" fill="transparent"/>
	<path d = "M 330.47 110.16 L 417.19 93.75 L 424.22 117.19" stroke="white" fill="transparent"/>
	<path d = "M 389.06 215.62 L 407.81 201.56 L 405.47 196.88" stroke="white" fill="transparent"/>
	<path d = "M 295.31 213.28 L 314.06 208.59" stroke="white" fill="transparent"/>
	<path d = "M 138.28 239.06 L 157.03 227.34" stroke="white" fill="transparent"/>
	<path d = "M 79.69 152.34 L 67.97 164.06" stroke="white" fill="transparent"/>
	<path d = "M 220.31 203.91 L 220.31 203.91" stroke="white" fill="transparent"/>
	<path d = "M 232.03 208.59 L 208.59 208.59" stroke="white" fill="transparent"/>
</svg>