<?xml version="1.0" encoding="UTF-8" standalone="no"?>
<!--Created with ndjsontosvg (https:https://github.com/thompson318/ndjsontosvg) 
	from the simplified Google quickdraw data set. key_id = 5500176296837120-->
<svg width="600" height="600"
	xmlns="http://www.w3.org/2000/svg">
	xmlns:ndjsontosvg="https://github.com/thompson318/ndjsontosvg"
	xmlns:quickdraw="https://quickdraw.withgoogle.com/data"
	xmlns:scikit-surgery="https://doi.org/10.1007/s11548-020-02180-5">

	<rect width="100%" height="100%" fill="black" />
	<path d = "M 321.09 11.72 L 278.91 2.34 L 215.62 2.34 L 182.81 25.78 L 91.41 121.88 L 42.19 196.88 L 11.72 264.84 L 0.00 335.16 L 4.69 372.66 L 49.22 433.59 L 128.91 496.88 L 232.03 541.41 L 339.84 560.16 L 438.28 560.16 L 515.62 543.75 L 550.78 522.66 L 588.28 471.09 L 597.66 424.22 L 595.31 375.00 L 564.84 300.00 L 553.12 239.06 L 510.94 173.44 L 386.72 16.41 L 375.00 11.72 L 325.78 28.12" stroke="white" fill="transparent"/>
	<path d = "M 210.94 114.84 L 215.62 142.97 L 232.03 161.72 L 236.72 164.06 L 255.47 131.25 L 246.09 124.22 L 229.69 145.31 L 229.69 154.69 L 241.41 152.34 L 246.09 135.94 L 283.59 154.69" stroke="white" fill="transparent"/>
	<path d = "M 452.34 175.78 L 421.88 178.12 L 412.50 194.53 L 410.16 217.97 L 424.22 246.09 L 433.59 246.09 L 452.34 232.03 L 471.09 178.12 L 471.09 152.34 L 461.72 147.66 L 426.56 196.88 L 400.78 253.12 L 400.78 295.31 L 447.66 227.34 L 454.69 192.19 L 442.97 236.72" stroke="white" fill="transparent"/>
</svg>