<?xml version="1.0" encoding="UTF-8" standalone="no"?>
<!--Created with ndjsontosvg (https:https://github.com/thompson318/ndjsontosvg) 
	from the simplified Google quickdraw data set. key_id = 5367503431663616-->
<svg width="600" height="600"
	xmlns="http://www.w3.org/2000/svg">
	xmlns:ndjsontosvg="https://github.com/thompson318/ndjsontosvg"
	xmlns:quickdraw="https://quickdraw.withgoogle.com/data"
	xmlns:scikit-surgery="https://doi.org/10.1007/s11548-020-02180-5">

	<rect width="100%" height="100%" fill="black" />
	<path d = "M 433.59 21.09 L 396.09 11.72 L 318.75 11.72 L 232.03 23.44 L 157.03 51.56 L 84.38 93.75 L 23.44 173.44 L 0.00 248.44 L 7.03 304.69 L 39.84 339.84 L 75.00 356.25 L 150.00 377.34 L 290.62 375.00 L 400.78 339.84 L 440.62 316.41 L 534.38 239.06 L 585.94 178.12 L 595.31 147.66 L 595.31 110.16 L 520.31 103.12 L 478.12 91.41 L 466.41 75.00 L 464.06 30.47 L 457.03 21.09 L 433.59 4.69 L 403.12 0.00" stroke="white" fill="transparent"/>
	<path d = "M 140.62 86.72 L 180.47 82.03" stroke="white" fill="transparent"/>
	<path d = "M 168.75 82.03 L 196.88 75.00 L 187.50 67.97 L 171.09 75.00 L 164.06 84.38 L 180.47 89.06 L 192.19 82.03" stroke="white" fill="transparent"/>
	<path d = "M 414.84 70.31 L 405.47 114.84 L 431.25 124.22 L 398.44 124.22 L 433.59 103.12 L 433.59 86.72 L 424.22 84.38 L 417.19 93.75 L 424.22 96.09 L 410.16 89.06 L 447.66 103.12" stroke="white" fill="transparent"/>
	<path d = "M 499.22 147.66 L 520.31 192.19 L 546.09 196.88 L 527.34 201.56 L 520.31 208.59 L 527.34 213.28 L 473.44 213.28 L 517.97 175.78 L 508.59 171.09 L 501.56 196.88 L 520.31 199.22 L 508.59 199.22" stroke="white" fill="transparent"/>
	<path d = "M 316.41 229.69 L 314.06 257.81 L 358.59 269.53" stroke="white" fill="transparent"/>
</svg>