<?xml version="1.0" encoding="UTF-8" standalone="no"?>
<!--Created with ndjsontosvg (https:https://github.com/thompson318/ndjsontosvg) 
	from the simplified Google quickdraw data set. key_id = 6439159814160384-->
<svg width="600" height="600"
	xmlns="http://www.w3.org/2000/svg">
	xmlns:ndjsontosvg="https://github.com/thompson318/ndjsontosvg"
	xmlns:quickdraw="https://quickdraw.withgoogle.com/data"
	xmlns:scikit-surgery="https://doi.org/10.1007/s11548-020-02180-5">

	<rect width="100%" height="100%" fill="black" />
	<path d = "M 442.97 35.16 L 342.19 0.00 L 295.31 0.00 L 175.78 21.09 L 82.03 60.94 L 32.81 100.78 L 4.69 142.97 L 2.34 192.19 L 16.41 227.34 L 89.06 278.91 L 201.56 316.41 L 332.81 332.81 L 384.38 332.81 L 450.00 321.09 L 525.00 288.28 L 564.84 253.12 L 588.28 220.31 L 597.66 168.75 L 585.94 105.47 L 564.84 70.31 L 520.31 37.50 L 431.25 25.78 L 321.09 32.81" stroke="white" fill="transparent"/>
	<path d = "M 124.22 84.38 L 121.88 89.06" stroke="white" fill="transparent"/>
	<path d = "M 292.97 53.91 L 323.44 46.88" stroke="white" fill="transparent"/>
	<path d = "M 471.09 96.09 L 487.50 98.44" stroke="white" fill="transparent"/>
	<path d = "M 482.81 135.94 L 475.78 150.00 L 457.03 154.69" stroke="white" fill="transparent"/>
	<path d = "M 356.25 220.31 L 330.47 227.34" stroke="white" fill="transparent"/>
	<path d = "M 217.97 189.84 L 201.56 189.84" stroke="white" fill="transparent"/>
	<path d = "M 180.47 145.31 L 187.50 124.22" stroke="white" fill="transparent"/>
	<path d = "M 314.06 112.50 L 332.81 119.53" stroke="white" fill="transparent"/>
	<path d = "M 475.78 222.66 L 480.47 227.34" stroke="white" fill="transparent"/>
	<path d = "M 295.31 292.97 L 271.88 297.66" stroke="white" fill="transparent"/>
	<path d = "M 138.28 222.66 L 103.12 213.28" stroke="white" fill="transparent"/>
</svg>