<?xml version="1.0" encoding="UTF-8" standalone="no"?>
<!--Created with ndjsontosvg (https:https://github.com/thompson318/ndjsontosvg) 
	from the simplified Google quickdraw data set. key_id = 5821615508029440-->
<svg width="600" height="600"
	xmlns="http://www.w3.org/2000/svg">
	xmlns:ndjsontosvg="https://github.com/thompson318/ndjsontosvg"
	xmlns:quickdraw="https://quickdraw.withgoogle.com/data"
	xmlns:scikit-surgery="https://doi.org/10.1007/s11548-020-02180-5">

	<rect width="100%" height="100%" fill="black" />
	<path d = "M 358.59 23.44 L 253.12 0.00 L 112.50 37.50 L 21.09 107.81 L 0.00 157.03 L 4.69 239.06 L 23.44 365.62 L 44.53 421.88 L 91.41 457.03 L 203.91 503.91 L 248.44 522.66 L 311.72 532.03 L 405.47 532.03 L 464.06 517.97 L 508.59 496.88 L 532.03 471.09 L 583.59 393.75 L 592.97 360.94 L 597.66 232.03 L 560.16 159.38 L 515.62 100.78 L 433.59 37.50 L 332.81 0.00 L 297.66 0.00" stroke="white" fill="transparent"/>
	<path d = "M 89.06 145.31 L 93.75 161.72 L 131.25 166.41 L 133.59 145.31 L 117.19 138.28 L 100.78 145.31 L 117.19 154.69 L 117.19 138.28" stroke="white" fill="transparent"/>
	<path d = "M 468.75 110.16 L 450.00 124.22 L 466.41 138.28 L 450.00 124.22 L 473.44 138.28 L 482.81 121.88 L 461.72 103.12 L 424.22 100.78" stroke="white" fill="transparent"/>
	<path d = "M 227.34 260.16 L 248.44 271.88" stroke="white" fill="transparent"/>
</svg>