<?xml version="1.0" encoding="UTF-8" standalone="no"?>
<!--Created with ndjsontosvg (https:https://github.com/thompson318/ndjsontosvg) 
	from the simplified Google quickdraw data set. key_id = 4901110034726912-->
<svg width="600" height="600"
	xmlns="http://www.w3.org/2000/svg">
	xmlns:ndjsontosvg="https://github.com/thompson318/ndjsontosvg"
	xmlns:quickdraw="https://quickdraw.withgoogle.com/data"
	xmlns:scikit-surgery="https://doi.org/10.1007/s11548-020-02180-5">

	<rect width="100%" height="100%" fill="black" />
	<path d = "M 142.97 290.62 L 77.34 557.81 L 335.16 592.97 L 424.22 592.97 L 506.25 583.59 L 517.97 581.25 L 522.66 569.53 L 520.31 522.66 L 487.50 363.28 L 461.72 309.38 L 398.44 264.84 L 323.44 241.41 L 225.00 243.75 L 140.62 278.91 L 292.97 250.78 L 450.00 246.09 L 56.25 241.41 L 248.44 241.41 L 407.81 225.00 L 482.81 248.44 L 506.25 321.09 L 529.69 438.28 L 543.75 532.03 L 539.06 550.78 L 438.28 576.56 L 342.19 592.97 L 75.00 597.66 L 0.00 588.28 L 58.59 478.12 L 100.78 288.28 L 105.47 225.00" stroke="white" fill="transparent"/>
	<path d = "M 105.47 225.00 L 110.16 14.06" stroke="white" fill="transparent"/>
	<path d = "M 70.31 0.00 L 131.25 4.69" stroke="white" fill="transparent"/>
</svg>