<?xml version="1.0" encoding="UTF-8" standalone="no"?>
<!--Created with ndjsontosvg (https:https://github.com/thompson318/ndjsontosvg) 
	from the simplified Google quickdraw data set. key_id = 5023529030385664-->
<svg width="600" height="600"
	xmlns="http://www.w3.org/2000/svg">
	xmlns:ndjsontosvg="https://github.com/thompson318/ndjsontosvg"
	xmlns:quickdraw="https://quickdraw.withgoogle.com/data"
	xmlns:scikit-surgery="https://doi.org/10.1007/s11548-020-02180-5">

	<rect width="100%" height="100%" fill="black" />
	<path d = "M 14.06 210.94 L 2.34 246.09 L 0.00 337.50 L 7.03 400.78 L 2.34 564.84 L 23.44 571.88 L 260.16 548.44 L 480.47 567.19" stroke="white" fill="transparent"/>
	<path d = "M 7.03 208.59 L 11.72 196.88 L 32.81 194.53 L 271.88 194.53 L 365.62 203.91 L 501.56 248.44 L 506.25 482.81 L 496.88 590.62" stroke="white" fill="transparent"/>
	<path d = "M 21.09 168.75 L 11.72 98.44 L 58.59 117.19 L 126.56 110.16 L 107.81 133.59 L 96.09 194.53 L 86.72 203.91 L 63.28 206.25 L 18.75 187.50" stroke="white" fill="transparent"/>
	<path d = "M 138.28 133.59 L 128.91 128.91 L 140.62 220.31 L 189.84 180.47 L 248.44 173.44 L 217.97 133.59 L 189.84 110.16 L 166.41 110.16 L 145.31 119.53 L 147.66 126.56" stroke="white" fill="transparent"/>
	<path d = "M 260.16 93.75 L 253.12 124.22 L 257.81 182.81 L 311.72 173.44 L 339.84 187.50 L 365.62 189.84 L 375.00 175.78 L 363.28 152.34 L 309.38 86.72 L 267.19 84.38 L 246.09 93.75 L 236.72 107.81" stroke="white" fill="transparent"/>
	<path d = "M 356.25 105.47 L 372.66 203.91 L 403.12 208.59 L 475.78 175.78 L 482.81 145.31 L 457.03 96.09 L 438.28 82.03 L 403.12 72.66 L 367.97 82.03 L 318.75 114.84" stroke="white" fill="transparent"/>
	<path d = "M 274.22 16.41 L 292.97 107.81 L 330.47 84.38 L 379.69 67.97 L 386.72 32.81 L 375.00 23.44 L 342.19 18.75 L 227.34 25.78" stroke="white" fill="transparent"/>
	<path d = "M 157.03 28.12 L 171.09 84.38 L 187.50 86.72 L 239.06 67.97 L 243.75 56.25 L 234.38 35.16 L 203.91 21.09 L 154.69 32.81 L 131.25 51.56" stroke="white" fill="transparent"/>
	<path d = "M 46.88 16.41 L 60.94 100.78 L 150.00 72.66 L 117.19 0.00 L 51.56 44.53" stroke="white" fill="transparent"/>
</svg>