<?xml version="1.0" encoding="UTF-8" standalone="no"?>
<!--Created with ndjsontosvg (https:https://github.com/thompson318/ndjsontosvg) 
	from the simplified Google quickdraw data set. key_id = 5713060578721792-->
<svg width="600" height="600"
	xmlns="http://www.w3.org/2000/svg">
	xmlns:ndjsontosvg="https://github.com/thompson318/ndjsontosvg"
	xmlns:quickdraw="https://quickdraw.withgoogle.com/data"
	xmlns:scikit-surgery="https://doi.org/10.1007/s11548-020-02180-5">

	<rect width="100%" height="100%" fill="black" />
	<path d = "M 117.19 75.00 L 11.72 285.94" stroke="white" fill="transparent"/>
	<path d = "M 112.50 98.44 L 201.56 93.75 L 318.75 103.12 L 581.25 166.41 L 588.28 175.78 L 585.94 210.94 L 557.81 307.03 L 520.31 367.97 L 339.84 363.28 L 243.75 339.84 L 89.06 316.41" stroke="white" fill="transparent"/>
	<path d = "M 2.34 307.03 L 25.78 487.50" stroke="white" fill="transparent"/>
	<path d = "M 494.53 363.28 L 485.16 480.47" stroke="white" fill="transparent"/>
	<path d = "M 574.22 187.50 L 597.66 414.84 L 517.97 492.19" stroke="white" fill="transparent"/>
	<path d = "M 35.16 471.09 L 274.22 506.25 L 442.97 508.59" stroke="white" fill="transparent"/>
	<path d = "M 25.78 300.00 L 18.75 246.09 L 30.47 7.03 L 79.69 0.00 L 285.94 0.00 L 532.03 11.72 L 553.12 18.75" stroke="white" fill="transparent"/>
</svg>