<?xml version="1.0" encoding="UTF-8" standalone="no"?>
<!--Created with ndjsontosvg (https:https://github.com/thompson318/ndjsontosvg) 
	from the simplified Google quickdraw data set. key_id = 5033422252670976-->
<svg width="600" height="600"
	xmlns="http://www.w3.org/2000/svg">
	xmlns:ndjsontosvg="https://github.com/thompson318/ndjsontosvg"
	xmlns:quickdraw="https://quickdraw.withgoogle.com/data"
	xmlns:scikit-surgery="https://doi.org/10.1007/s11548-020-02180-5">

	<rect width="100%" height="100%" fill="black" />
	<path d = "M 51.56 9.38 L 23.44 100.78 L 18.75 145.31 L 23.44 360.94 L 4.69 412.50 L 0.00 529.69 L 9.38 548.44 L 178.12 585.94 L 339.84 597.66 L 346.88 590.62 L 353.91 515.62 L 356.25 232.03 L 318.75 30.47 L 264.84 4.69 L 154.69 9.38 L 119.53 0.00 L 23.44 0.00" stroke="white" fill="transparent"/>
	<path d = "M 63.28 203.91 L 114.84 227.34 L 117.19 239.06 L 117.19 363.28 L 65.62 353.91" stroke="white" fill="transparent"/>
	<path d = "M 126.56 70.31 L 131.25 58.59 L 140.62 56.25 L 154.69 70.31 L 150.00 117.19 L 131.25 117.19 L 98.44 91.41 L 107.81 63.28 L 128.91 67.97" stroke="white" fill="transparent"/>
	<path d = "M 260.16 182.81 L 255.47 159.38 L 236.72 166.41 L 234.38 213.28 L 241.41 257.81 L 264.84 264.84" stroke="white" fill="transparent"/>
</svg>