<?xml version="1.0" encoding="UTF-8" standalone="no"?>
<!--Created with ndjsontosvg (https:https://github.com/thompson318/ndjsontosvg) 
	from the simplified Google quickdraw data set. key_id = 5199671062429696-->
<svg width="600" height="600"
	xmlns="http://www.w3.org/2000/svg">
	xmlns:ndjsontosvg="https://github.com/thompson318/ndjsontosvg"
	xmlns:quickdraw="https://quickdraw.withgoogle.com/data"
	xmlns:scikit-surgery="https://doi.org/10.1007/s11548-020-02180-5">

	<rect width="100%" height="100%" fill="black" />
	<path d = "M 100.78 175.78 L 98.44 60.94 L 105.47 42.19 L 199.22 14.06 L 353.91 0.00 L 485.16 4.69 L 550.78 21.09 L 567.19 37.50 L 576.56 67.97 L 592.97 171.09" stroke="white" fill="transparent"/>
	<path d = "M 2.34 215.62 L 7.03 246.09 L 30.47 255.47 L 46.88 222.66 L 37.50 213.28 L 4.69 203.91 L 96.09 157.03" stroke="white" fill="transparent"/>
	<path d = "M 487.50 206.25 L 480.47 201.56 L 478.12 206.25 L 471.09 234.38 L 501.56 243.75 L 515.62 241.41 L 525.00 225.00 L 499.22 194.53 L 590.62 159.38" stroke="white" fill="transparent"/>
	<path d = "M 161.72 175.78 L 332.81 159.38 L 496.88 161.72" stroke="white" fill="transparent"/>
	<path d = "M 112.50 260.16 L 435.94 239.06" stroke="white" fill="transparent"/>
	<path d = "M 159.38 274.22 L 410.16 260.16" stroke="white" fill="transparent"/>
	<path d = "M 65.62 267.19 L 63.28 323.44 L 77.34 389.06 L 384.38 393.75 L 489.84 410.16 L 487.50 377.34" stroke="white" fill="transparent"/>
</svg>