<?xml version="1.0" encoding="UTF-8" standalone="no"?>
<!--Created with ndjsontosvg (https:https://github.com/thompson318/ndjsontosvg) 
	from the simplified Google quickdraw data set. key_id = 6028679878541312-->
<svg width="600" height="600"
	xmlns="http://www.w3.org/2000/svg">
	xmlns:ndjsontosvg="https://github.com/thompson318/ndjsontosvg"
	xmlns:quickdraw="https://quickdraw.withgoogle.com/data"
	xmlns:scikit-surgery="https://doi.org/10.1007/s11548-020-02180-5">

	<rect width="100%" height="100%" fill="black" />
	<path d = "M 11.72 353.91 L 16.41 189.84 L 35.16 105.47 L 53.91 75.00 L 75.00 84.38 L 100.78 152.34 L 105.47 234.38 L 98.44 278.91 L 84.38 323.44 L 53.91 367.97 L 11.72 370.31 L 0.00 353.91" stroke="white" fill="transparent"/>
	<path d = "M 112.50 175.78 L 515.62 180.47 L 527.34 351.56" stroke="white" fill="transparent"/>
	<path d = "M 527.34 323.44 L 529.69 316.41" stroke="white" fill="transparent"/>
	<path d = "M 520.31 337.50 L 527.34 271.88 L 522.66 119.53 L 536.72 91.41 L 567.19 84.38 L 597.66 189.84 L 595.31 255.47 L 578.91 314.06 L 567.19 346.88 L 553.12 360.94 L 506.25 342.19 L 492.19 330.47" stroke="white" fill="transparent"/>
	<path d = "M 60.94 63.28 L 70.31 60.94 L 84.38 9.38 L 96.09 2.34 L 457.03 7.03 L 532.03 23.44 L 546.09 35.16 L 550.78 67.97 L 532.03 107.81" stroke="white" fill="transparent"/>
	<path d = "M 529.69 349.22 L 300.00 323.44" stroke="white" fill="transparent"/>
</svg>