<?xml version="1.0" encoding="UTF-8" standalone="no"?>
<!--Created with ndjsontosvg (https:https://github.com/thompson318/ndjsontosvg) 
	from the simplified Google quickdraw data set. key_id = 6090854227771392-->
<svg width="600" height="600"
	xmlns="http://www.w3.org/2000/svg">
	xmlns:ndjsontosvg="https://github.com/thompson318/ndjsontosvg"
	xmlns:quickdraw="https://quickdraw.withgoogle.com/data"
	xmlns:scikit-surgery="https://doi.org/10.1007/s11548-020-02180-5">

	<rect width="100%" height="100%" fill="black" />
	<path d = "M 18.75 407.81 L 63.28 405.47 L 77.34 398.44 L 103.12 335.16 L 110.16 227.34 L 96.09 159.38 L 84.38 131.25 L 53.91 145.31 L 11.72 241.41 L 0.00 335.16 L 18.75 407.81" stroke="white" fill="transparent"/>
	<path d = "M 110.16 262.50 L 255.47 274.22 L 517.97 262.50" stroke="white" fill="transparent"/>
	<path d = "M 478.12 421.88 L 517.97 405.47 L 583.59 396.09 L 595.31 391.41 L 597.66 377.34 L 571.88 173.44 L 555.47 138.28 L 527.34 126.56 L 503.91 138.28 L 482.81 166.41 L 464.06 241.41 L 461.72 309.38 L 480.47 379.69" stroke="white" fill="transparent"/>
	<path d = "M 91.41 119.53 L 84.38 96.09 L 86.72 9.38 L 103.12 0.00 L 185.16 14.06 L 353.91 23.44 L 332.81 63.28 L 318.75 175.78 L 318.75 241.41" stroke="white" fill="transparent"/>
	<path d = "M 328.12 46.88 L 367.97 32.81 L 442.97 28.12 L 464.06 168.75" stroke="white" fill="transparent"/>
</svg>