<?xml version="1.0" encoding="UTF-8" standalone="no"?>
<!--Created with ndjsontosvg (https:https://github.com/thompson318/ndjsontosvg) 
	from the simplified Google quickdraw data set. key_id = 5557722567147520-->
<svg width="600" height="600"
	xmlns="http://www.w3.org/2000/svg">
	xmlns:ndjsontosvg="https://github.com/thompson318/ndjsontosvg"
	xmlns:quickdraw="https://quickdraw.withgoogle.com/data"
	xmlns:scikit-surgery="https://doi.org/10.1007/s11548-020-02180-5">

	<rect width="100%" height="100%" fill="black" />
	<path d = "M 28.12 145.31 L 9.38 217.97 L 0.00 342.19 L 9.38 372.66 L 30.47 382.03 L 84.38 360.94 L 114.84 323.44 L 117.19 288.28 L 103.12 232.03 L 89.06 180.47 L 70.31 147.66" stroke="white" fill="transparent"/>
	<path d = "M 103.12 213.28 L 342.19 196.88 L 442.97 199.22 L 457.03 203.91 L 468.75 246.09 L 464.06 274.22 L 426.56 292.97 L 164.06 283.59 L 114.84 292.97" stroke="white" fill="transparent"/>
	<path d = "M 100.78 351.56 L 112.50 363.28 L 147.66 367.97 L 328.12 363.28 L 442.97 372.66 L 508.59 367.97 L 475.78 274.22" stroke="white" fill="transparent"/>
	<path d = "M 513.28 375.00 L 487.50 325.78 L 461.72 253.12 L 450.00 173.44 L 461.72 138.28 L 478.12 126.56 L 513.28 121.88 L 534.38 133.59 L 562.50 161.72 L 583.59 199.22 L 597.66 274.22 L 597.66 337.50 L 574.22 353.91 L 529.69 363.28 L 466.41 363.28" stroke="white" fill="transparent"/>
	<path d = "M 72.66 168.75 L 56.25 152.34 L 44.53 119.53 L 49.22 58.59 L 58.59 44.53 L 98.44 35.16 L 342.19 30.47 L 407.81 37.50 L 475.78 79.69 L 489.84 124.22 L 478.12 182.81" stroke="white" fill="transparent"/>
	<path d = "M 243.75 0.00 L 246.09 159.38" stroke="white" fill="transparent"/>
</svg>