<?xml version="1.0" encoding="UTF-8" standalone="no"?>
<!--Created with ndjsontosvg (https:https://github.com/thompson318/ndjsontosvg) 
	from the simplified Google quickdraw data set. key_id = 6679315108331520-->
<svg width="600" height="600"
	xmlns="http://www.w3.org/2000/svg">
	xmlns:ndjsontosvg="https://github.com/thompson318/ndjsontosvg"
	xmlns:quickdraw="https://quickdraw.withgoogle.com/data"
	xmlns:scikit-surgery="https://doi.org/10.1007/s11548-020-02180-5">

	<rect width="100%" height="100%" fill="black" />
	<path d = "M 75.00 285.94 L 96.09 400.78 L 135.94 393.75 L 147.66 405.47 L 126.56 419.53 L 89.06 414.84 L 77.34 360.94 L 51.56 316.41 L 49.22 278.91 L 9.38 243.75 L 0.00 222.66 L 0.00 201.56 L 16.41 173.44 L 44.53 140.62 L 96.09 107.81 L 222.66 82.03 L 285.94 77.34 L 452.34 98.44 L 494.53 75.00 L 503.91 16.41 L 517.97 0.00 L 546.09 37.50 L 546.09 72.66 L 578.91 70.31 L 588.28 77.34 L 597.66 105.47 L 597.66 119.53 L 588.28 126.56 L 576.56 79.69" stroke="white" fill="transparent"/>
	<path d = "M 578.91 114.84 L 578.91 128.91 L 569.53 138.28 L 510.94 140.62 L 461.72 201.56 L 412.50 229.69 L 389.06 267.19 L 377.34 360.94 L 384.38 393.75 L 405.47 398.44 L 426.56 419.53 L 417.19 431.25 L 398.44 431.25 L 363.28 398.44 L 349.22 325.78 L 325.78 262.50 L 302.34 257.81 L 290.62 278.91 L 290.62 304.69 L 311.72 391.41 L 307.03 414.84 L 295.31 421.88 L 264.84 412.50 L 236.72 370.31 L 246.09 292.97 L 234.38 253.12 L 215.62 246.09 L 206.25 295.31 L 232.03 386.72 L 225.00 419.53 L 208.59 417.19 L 192.19 405.47 L 152.34 358.59 L 145.31 318.75 L 154.69 290.62" stroke="white" fill="transparent"/>
	<path d = "M 135.94 147.66 L 89.06 159.38 L 84.38 171.09 L 89.06 182.81 L 107.81 199.22 L 133.59 203.91 L 175.78 203.91 L 187.50 194.53 L 189.84 171.09 L 180.47 159.38 L 152.34 150.00 L 65.62 171.09 L 56.25 185.16 L 67.97 196.88 L 138.28 192.19 L 140.62 178.12 L 128.91 171.09 L 100.78 178.12 L 91.41 199.22 L 100.78 203.91 L 131.25 196.88 L 142.97 180.47 L 135.94 173.44 L 128.91 175.78 L 124.22 189.84 L 133.59 199.22 L 157.03 199.22 L 171.09 182.81 L 152.34 173.44 L 140.62 182.81 L 147.66 192.19 L 166.41 187.50 L 173.44 171.09 L 166.41 161.72 L 185.16 171.09 L 227.34 171.09" stroke="white" fill="transparent"/>
	<path d = "M 349.22 93.75 L 339.84 128.91 L 344.53 150.00 L 372.66 154.69 L 405.47 142.97 L 407.81 135.94 L 377.34 124.22 L 332.81 128.91 L 288.28 154.69 L 278.91 168.75 L 285.94 175.78 L 323.44 168.75 L 358.59 150.00 L 370.31 128.91 L 358.59 121.88 L 346.88 124.22 L 323.44 150.00 L 337.50 128.91" stroke="white" fill="transparent"/>
</svg>