<?xml version="1.0" encoding="UTF-8" standalone="no"?>
<!--Created with ndjsontosvg (https:https://github.com/thompson318/ndjsontosvg) 
	from the simplified Google quickdraw data set. key_id = 5454073446793216-->
<svg width="600" height="600"
	xmlns="http://www.w3.org/2000/svg">
	xmlns:ndjsontosvg="https://github.com/thompson318/ndjsontosvg"
	xmlns:quickdraw="https://quickdraw.withgoogle.com/data"
	xmlns:scikit-surgery="https://doi.org/10.1007/s11548-020-02180-5">

	<rect width="100%" height="100%" fill="black" />
	<path d = "M 135.94 225.00 L 131.25 173.44 L 161.72 119.53 L 199.22 93.75 L 264.84 93.75 L 328.12 117.19 L 400.78 166.41 L 435.94 194.53 L 442.97 227.34 L 400.78 281.25 L 337.50 316.41 L 285.94 328.12 L 142.97 318.75 L 37.50 288.28 L 4.69 271.88 L 4.69 260.16 L 21.09 220.31 L 39.84 203.91 L 147.66 175.78 L 168.75 161.72" stroke="white" fill="transparent"/>
	<path d = "M 60.94 300.00 L 58.59 358.59 L 138.28 384.38 L 138.28 300.00" stroke="white" fill="transparent"/>
	<path d = "M 276.56 311.72 L 295.31 384.38 L 370.31 358.59 L 335.16 257.81" stroke="white" fill="transparent"/>
	<path d = "M 424.22 0.00 L 426.56 0.00" stroke="white" fill="transparent"/>
	<path d = "M 386.72 133.59 L 375.00 126.56 L 370.31 84.38 L 414.84 32.81 L 492.19 4.69 L 550.78 9.38 L 562.50 21.09 L 567.19 53.91 L 548.44 112.50 L 515.62 161.72 L 480.47 189.84 L 457.03 201.56 L 433.59 203.91 L 386.72 180.47 L 375.00 168.75 L 375.00 124.22" stroke="white" fill="transparent"/>
	<path d = "M 501.56 65.62 L 592.97 75.00 L 597.66 100.78 L 583.59 182.81 L 499.22 161.72 L 496.88 145.31" stroke="white" fill="transparent"/>
	<path d = "M 482.81 75.00 L 482.81 58.59 L 464.06 65.62 L 478.12 49.22 L 489.84 53.91 L 478.12 58.59" stroke="white" fill="transparent"/>
	<path d = "M 150.00 335.16 L 126.56 309.38 L 121.88 267.19 L 142.97 234.38 L 161.72 222.66 L 189.84 215.62 L 227.34 220.31 L 262.50 241.41 L 295.31 283.59 L 290.62 295.31 L 241.41 318.75 L 185.16 321.09" stroke="white" fill="transparent"/>
	<path d = "M 0.00 276.56 L 63.28 241.41 L 63.28 215.62 L 35.16 201.56 L 28.12 187.50" stroke="white" fill="transparent"/>
	<path d = "M 178.12 316.41 L 175.78 346.88 L 185.16 358.59 L 255.47 353.91 L 255.47 325.78 L 241.41 302.34" stroke="white" fill="transparent"/>
	<path d = "M 182.81 358.59 L 196.88 372.66" stroke="white" fill="transparent"/>
	<path d = "M 220.31 339.84 L 227.34 372.66" stroke="white" fill="transparent"/>
	<path d = "M 250.78 344.53 L 253.12 360.94" stroke="white" fill="transparent"/>
	<path d = "M 248.44 150.00 L 236.72 142.97" stroke="white" fill="transparent"/>
</svg>