<?xml version="1.0" encoding="UTF-8" standalone="no"?>
<!--Created with ndjsontosvg (https:https://github.com/thompson318/ndjsontosvg) 
	from the simplified Google quickdraw data set. key_id = 4751262228676608-->
<svg width="600" height="600"
	xmlns="http://www.w3.org/2000/svg">
	xmlns:ndjsontosvg="https://github.com/thompson318/ndjsontosvg"
	xmlns:quickdraw="https://quickdraw.withgoogle.com/data"
	xmlns:scikit-surgery="https://doi.org/10.1007/s11548-020-02180-5">

	<rect width="100%" height="100%" fill="black" />
	<path d = "M 379.69 4.69 L 278.91 11.72 L 157.03 32.81 L 124.22 63.28 L 100.78 145.31 L 100.78 178.12 L 166.41 225.00 L 210.94 239.06 L 267.19 243.75 L 370.31 213.28 L 426.56 171.09 L 452.34 138.28 L 450.00 93.75 L 372.66 9.38" stroke="white" fill="transparent"/>
	<path d = "M 147.66 37.50 L 44.53 44.53 L 0.00 60.94" stroke="white" fill="transparent"/>
	<path d = "M 112.50 91.41 L 51.56 119.53 L 16.41 147.66" stroke="white" fill="transparent"/>
	<path d = "M 119.53 126.56 L 70.31 182.81 L 67.97 213.28" stroke="white" fill="transparent"/>
	<path d = "M 389.06 25.78 L 410.16 14.06 L 503.91 0.00 L 550.78 4.69 L 564.84 21.09" stroke="white" fill="transparent"/>
	<path d = "M 428.91 105.47 L 468.75 93.75 L 520.31 91.41 L 555.47 98.44 L 597.66 126.56" stroke="white" fill="transparent"/>
	<path d = "M 438.28 145.31 L 501.56 175.78 L 522.66 196.88 L 541.41 232.03" stroke="white" fill="transparent"/>
	<path d = "M 157.03 227.34 L 138.28 262.50 L 119.53 274.22 L 112.50 309.38" stroke="white" fill="transparent"/>
	<path d = "M 147.66 260.16 L 110.16 309.38" stroke="white" fill="transparent"/>
	<path d = "M 147.66 255.47 L 173.44 276.56 L 182.81 297.66" stroke="white" fill="transparent"/>
	<path d = "M 353.91 217.97 L 344.53 314.06 L 346.88 325.78 L 367.97 344.53" stroke="white" fill="transparent"/>
	<path d = "M 358.59 269.53 L 386.72 271.88 L 407.81 285.94 L 421.88 304.69" stroke="white" fill="transparent"/>
</svg>