<?xml version="1.0" encoding="UTF-8" standalone="no"?>
<!--Created with ndjsontosvg (https:https://github.com/thompson318/ndjsontosvg) 
	from the simplified Google quickdraw data set. key_id = 5442451147849728-->
<svg width="600" height="600"
	xmlns="http://www.w3.org/2000/svg">
	xmlns:ndjsontosvg="https://github.com/thompson318/ndjsontosvg"
	xmlns:quickdraw="https://quickdraw.withgoogle.com/data"
	xmlns:scikit-surgery="https://doi.org/10.1007/s11548-020-02180-5">

	<rect width="100%" height="100%" fill="black" />
	<path d = "M 215.62 14.06 L 199.22 25.78 L 180.47 63.28 L 171.09 112.50 L 180.47 147.66 L 229.69 171.09 L 292.97 185.16 L 342.19 185.16 L 375.00 173.44 L 403.12 147.66 L 412.50 117.19 L 363.28 60.94 L 318.75 39.84 L 180.47 32.81" stroke="white" fill="transparent"/>
	<path d = "M 175.78 30.47 L 44.53 32.81 L 32.81 37.50 L 30.47 53.91 L 56.25 63.28 L 126.56 63.28 L 206.25 53.91" stroke="white" fill="transparent"/>
	<path d = "M 121.88 84.38 L 63.28 93.75 L 0.00 112.50" stroke="white" fill="transparent"/>
	<path d = "M 164.06 112.50 L 138.28 112.50 L 89.06 131.25 L 72.66 161.72" stroke="white" fill="transparent"/>
	<path d = "M 222.66 159.38 L 175.78 192.19 L 171.09 232.03" stroke="white" fill="transparent"/>
	<path d = "M 384.38 51.56 L 473.44 9.38 L 541.41 0.00 L 590.62 0.00 L 597.66 7.03 L 595.31 49.22 L 576.56 63.28 L 494.53 84.38 L 396.09 89.06" stroke="white" fill="transparent"/>
	<path d = "M 424.22 103.12 L 485.16 114.84" stroke="white" fill="transparent"/>
	<path d = "M 412.50 152.34 L 473.44 159.38 L 517.97 173.44" stroke="white" fill="transparent"/>
</svg>