<?xml version="1.0" encoding="UTF-8" standalone="no"?>
<!--Created with ndjsontosvg (https:https://github.com/thompson318/ndjsontosvg) 
	from the simplified Google quickdraw data set. key_id = 4998224106487808-->
<svg width="600" height="600"
	xmlns="http://www.w3.org/2000/svg">
	xmlns:ndjsontosvg="https://github.com/thompson318/ndjsontosvg"
	xmlns:quickdraw="https://quickdraw.withgoogle.com/data"
	xmlns:scikit-surgery="https://doi.org/10.1007/s11548-020-02180-5">

	<rect width="100%" height="100%" fill="black" />
	<path d = "M 9.38 475.78 L 53.91 597.66 L 67.97 592.97 L 96.09 508.59 L 138.28 487.50" stroke="white" fill="transparent"/>
	<path d = "M 16.41 475.78 L 4.69 475.78 L 0.00 459.38 L 4.69 344.53 L 16.41 241.41 L 42.19 150.00 L 65.62 7.03 L 255.47 2.34 L 248.44 93.75 L 222.66 164.06 L 187.50 503.91 L 91.41 499.22" stroke="white" fill="transparent"/>
	<path d = "M 2.34 468.75 L 49.22 468.75 L 114.84 487.50 L 161.72 487.50" stroke="white" fill="transparent"/>
	<path d = "M 65.62 89.06 L 196.88 112.50" stroke="white" fill="transparent"/>
	<path d = "M 56.25 391.41 L 53.91 417.19 L 70.31 435.94 L 98.44 433.59 L 110.16 407.81" stroke="white" fill="transparent"/>
	<path d = "M 51.56 363.28 L 77.34 360.94 L 117.19 372.66" stroke="white" fill="transparent"/>
	<path d = "M 44.53 330.47 L 67.97 292.97 L 82.03 288.28 L 98.44 330.47 L 117.19 339.84" stroke="white" fill="transparent"/>
</svg>