<?xml version="1.0" encoding="UTF-8" standalone="no"?>
<!--Created with ndjsontosvg (https:https://github.com/thompson318/ndjsontosvg) 
	from the simplified Google quickdraw data set. key_id = 5136818410356736-->
<svg width="600" height="600"
	xmlns="http://www.w3.org/2000/svg">
	xmlns:ndjsontosvg="https://github.com/thompson318/ndjsontosvg"
	xmlns:quickdraw="https://quickdraw.withgoogle.com/data"
	xmlns:scikit-surgery="https://doi.org/10.1007/s11548-020-02180-5">

	<rect width="100%" height="100%" fill="black" />
	<path d = "M 35.16 0.00 L 7.03 82.03 L 39.84 91.41 L 86.72 79.69 L 77.34 35.16 L 49.22 11.72" stroke="white" fill="transparent"/>
	<path d = "M 0.00 100.78 L 14.06 159.38 L 11.72 367.97 L 0.00 438.28 L 0.00 501.56 L 14.06 590.62 L 77.34 597.66 L 84.38 585.94 L 84.38 337.50 L 98.44 262.50 L 82.03 93.75" stroke="white" fill="transparent"/>
	<path d = "M 18.75 499.22 L 60.94 501.56" stroke="white" fill="transparent"/>
	<path d = "M 49.22 150.00 L 30.47 208.59 L 44.53 217.97 L 65.62 217.97 L 70.31 232.03 L 51.56 283.59 L 63.28 290.62 L 63.28 302.34 L 25.78 372.66 L 49.22 375.00" stroke="white" fill="transparent"/>
</svg>