<?xml version="1.0" encoding="UTF-8" standalone="no"?>
<!--Created with ndjsontosvg (https:https://github.com/thompson318/ndjsontosvg) 
	from the simplified Google quickdraw data set. key_id = 6437859865133056-->
<svg width="600" height="600"
	xmlns="http://www.w3.org/2000/svg">
	xmlns:ndjsontosvg="https://github.com/thompson318/ndjsontosvg"
	xmlns:quickdraw="https://quickdraw.withgoogle.com/data"
	xmlns:scikit-surgery="https://doi.org/10.1007/s11548-020-02180-5">

	<rect width="100%" height="100%" fill="black" />
	<path d = "M 459.38 30.47 L 571.88 32.81 L 592.97 39.84 L 597.66 51.56 L 564.84 65.62 L 482.81 65.62 L 553.12 75.00 L 562.50 79.69 L 557.81 91.41 L 532.03 103.12 L 405.47 100.78 L 403.12 119.53 L 426.56 121.88 L 405.47 133.59 L 377.34 126.56 L 367.97 103.12 L 262.50 103.12 L 260.16 121.88 L 227.34 124.22 L 217.97 114.84 L 227.34 93.75 L 133.59 86.72 L 7.03 96.09 L 0.00 89.06 L 9.38 75.00 L 46.88 58.59 L 185.16 53.91 L 382.03 21.09 L 431.25 0.00 L 445.31 2.34 L 457.03 28.12" stroke="white" fill="transparent"/>
	<path d = "M 433.59 14.06 L 428.91 25.78 L 438.28 21.09 L 435.94 14.06" stroke="white" fill="transparent"/>
	<path d = "M 522.66 70.31 L 529.69 63.28 L 543.75 72.66" stroke="white" fill="transparent"/>
</svg>