<?xml version="1.0" encoding="UTF-8" standalone="no"?>
<!--Created with ndjsontosvg (https:https://github.com/thompson318/ndjsontosvg) 
	from the simplified Google quickdraw data set. key_id = 5248014958460928-->
<svg width="600" height="600"
	xmlns="http://www.w3.org/2000/svg">
	xmlns:ndjsontosvg="https://github.com/thompson318/ndjsontosvg"
	xmlns:quickdraw="https://quickdraw.withgoogle.com/data"
	xmlns:scikit-surgery="https://doi.org/10.1007/s11548-020-02180-5">

	<rect width="100%" height="100%" fill="black" />
	<path d = "M 400.78 82.03 L 590.62 79.69 L 590.62 86.72 L 560.16 107.81 L 339.84 112.50" stroke="white" fill="transparent"/>
	<path d = "M 592.97 30.47 L 562.50 30.47 L 405.47 70.31" stroke="white" fill="transparent"/>
	<path d = "M 597.66 21.09 L 543.75 0.00 L 461.72 0.00 L 346.88 11.72 L 269.53 28.12" stroke="white" fill="transparent"/>
	<path d = "M 487.50 51.56 L 513.28 65.62 L 520.31 51.56 L 539.06 60.94 L 546.09 37.50 L 557.81 49.22 L 571.88 32.81 L 574.22 44.53" stroke="white" fill="transparent"/>
	<path d = "M 576.56 82.03 L 578.91 65.62 L 569.53 53.91 L 562.50 75.00 L 539.06 63.28 L 510.94 63.28 L 492.19 70.31 L 475.78 63.28 L 466.41 77.34" stroke="white" fill="transparent"/>
	<path d = "M 426.56 18.75 L 419.53 21.09 L 421.88 25.78 L 452.34 28.12 L 459.38 7.03 L 435.94 7.03 L 419.53 14.06 L 400.78 37.50" stroke="white" fill="transparent"/>
	<path d = "M 281.25 23.44 L 56.25 25.78 L 25.78 39.84 L 2.34 65.62 L 4.69 96.09 L 46.88 112.50 L 365.62 114.84" stroke="white" fill="transparent"/>
	<path d = "M 53.91 82.03 L 35.16 110.16 L 30.47 124.22 L 7.03 154.69 L 16.41 168.75 L 100.78 187.50 L 105.47 173.44 L 96.09 157.03 L 65.62 152.34 L 67.97 96.09 L 82.03 91.41" stroke="white" fill="transparent"/>
	<path d = "M 126.56 93.75 L 138.28 124.22 L 140.62 157.03 L 164.06 173.44 L 168.75 194.53 L 192.19 196.88 L 208.59 182.81 L 210.94 157.03 L 194.53 124.22 L 171.09 98.44 L 166.41 82.03" stroke="white" fill="transparent"/>
</svg>