<?xml version="1.0" encoding="UTF-8" standalone="no"?>
<!--Created with ndjsontosvg (https:https://github.com/thompson318/ndjsontosvg) 
	from the simplified Google quickdraw data set. key_id = 5427281675681792-->
<svg width="600" height="600"
	xmlns="http://www.w3.org/2000/svg">
	xmlns:ndjsontosvg="https://github.com/thompson318/ndjsontosvg"
	xmlns:quickdraw="https://quickdraw.withgoogle.com/data"
	xmlns:scikit-surgery="https://doi.org/10.1007/s11548-020-02180-5">

	<rect width="100%" height="100%" fill="black" />
	<path d = "M 91.41 107.81 L 25.78 107.81 L 2.34 96.09 L 2.34 82.03 L 128.91 82.03 L 145.31 63.28 L 131.25 56.25 L 11.72 49.22 L 7.03 37.50 L 11.72 28.12 L 42.19 18.75 L 147.66 18.75 L 199.22 32.81" stroke="white" fill="transparent"/>
	<path d = "M 82.03 107.81 L 142.97 93.75 L 180.47 77.34 L 196.88 53.91 L 199.22 32.81" stroke="white" fill="transparent"/>
	<path d = "M 161.72 32.81 L 182.81 25.78 L 182.81 35.16 L 168.75 42.19 L 166.41 30.47" stroke="white" fill="transparent"/>
	<path d = "M 185.16 32.81 L 543.75 0.00 L 592.97 0.00 L 597.66 7.03 L 588.28 23.44 L 539.06 53.91 L 457.03 72.66 L 192.19 77.34 L 145.31 93.75 L 159.38 79.69" stroke="white" fill="transparent"/>
	<path d = "M 257.81 70.31 L 229.69 89.06 L 131.25 107.81 L 79.69 128.91 L 60.94 135.94 L 58.59 142.97 L 63.28 142.97 L 86.72 126.56 L 370.31 44.53" stroke="white" fill="transparent"/>
	<path d = "M 400.78 60.94 L 403.12 91.41 L 377.34 168.75 L 396.09 154.69 L 410.16 131.25 L 452.34 93.75 L 508.59 18.75" stroke="white" fill="transparent"/>
</svg>