<?xml version="1.0" encoding="UTF-8" standalone="no"?>
<!--Created with ndjsontosvg (https:https://github.com/thompson318/ndjsontosvg) 
	from the simplified Google quickdraw data set. key_id = 4776240953163776-->
<svg width="600" height="600"
	xmlns="http://www.w3.org/2000/svg">
	xmlns:ndjsontosvg="https://github.com/thompson318/ndjsontosvg"
	xmlns:quickdraw="https://quickdraw.withgoogle.com/data"
	xmlns:scikit-surgery="https://doi.org/10.1007/s11548-020-02180-5">

	<rect width="100%" height="100%" fill="black" />
	<path d = "M 398.44 11.72 L 426.56 4.69 L 499.22 11.72 L 592.97 2.34 L 597.66 7.03 L 581.25 16.41 L 482.81 44.53 L 592.97 60.94 L 510.94 75.00 L 433.59 67.97 L 375.00 75.00 L 199.22 140.62 L 154.69 178.12 L 77.34 203.91 L 58.59 217.97 L 9.38 222.66 L 2.34 194.53 L 51.56 182.81 L 107.81 138.28 L 152.34 60.94 L 239.06 46.88 L 278.91 21.09 L 344.53 0.00 L 382.03 0.00 L 407.81 9.38" stroke="white" fill="transparent"/>
	<path d = "M 445.31 18.75 L 442.97 35.16 L 452.34 23.44" stroke="white" fill="transparent"/>
	<path d = "M 428.91 63.28 L 440.62 114.84 L 421.88 117.19 L 405.47 93.75" stroke="white" fill="transparent"/>
</svg>