<?xml version="1.0" encoding="UTF-8" standalone="no"?>
<!--Created with ndjsontosvg (https:https://github.com/thompson318/ndjsontosvg) 
	from the simplified Google quickdraw data set. key_id = 6746986596270080-->
<svg width="600" height="600"
	xmlns="http://www.w3.org/2000/svg">
	xmlns:ndjsontosvg="https://github.com/thompson318/ndjsontosvg"
	xmlns:quickdraw="https://quickdraw.withgoogle.com/data"
	xmlns:scikit-surgery="https://doi.org/10.1007/s11548-020-02180-5">

	<rect width="100%" height="100%" fill="black" />
	<path d = "M 140.62 447.66 L 126.56 438.28 L 79.69 372.66 L 30.47 288.28 L 9.38 225.00 L 0.00 121.88 L 14.06 82.03 L 35.16 51.56 L 79.69 18.75 L 79.69 124.22 L 166.41 0.00 L 180.47 89.06 L 192.19 121.88 L 276.56 21.09 L 302.34 138.28 L 410.16 30.47 L 419.53 30.47 L 435.94 93.75 L 492.19 39.84 L 532.03 9.38 L 571.88 103.12 L 597.66 222.66 L 592.97 262.50 L 564.84 295.31 L 525.00 318.75 L 382.03 372.66 L 257.81 440.62 L 173.44 447.66 L 89.06 433.59" stroke="white" fill="transparent"/>
</svg>