<?xml version="1.0" encoding="UTF-8" standalone="no"?>
<!--Created with ndjsontosvg (https:https://github.com/thompson318/ndjsontosvg) 
	from the simplified Google quickdraw data set. key_id = 5997288767881216-->
<svg width="600" height="600"
	xmlns="http://www.w3.org/2000/svg">
	xmlns:ndjsontosvg="https://github.com/thompson318/ndjsontosvg"
	xmlns:quickdraw="https://quickdraw.withgoogle.com/data"
	xmlns:scikit-surgery="https://doi.org/10.1007/s11548-020-02180-5">

	<rect width="100%" height="100%" fill="black" />
	<path d = "M 0.00 543.75 L 225.00 546.09 L 377.34 578.91 L 510.94 578.91 L 571.88 564.84 L 571.88 428.91 L 555.47 379.69 L 546.09 290.62 L 501.56 138.28 L 492.19 58.59 L 480.47 53.91 L 450.00 93.75 L 431.25 142.97 L 424.22 208.59 L 382.03 98.44 L 351.56 44.53 L 318.75 2.34 L 267.19 225.00 L 255.47 196.88 L 241.41 110.16 L 215.62 46.88 L 180.47 201.56 L 175.78 278.91 L 133.59 225.00 L 49.22 53.91" stroke="white" fill="transparent"/>
	<path d = "M 67.97 39.84 L 51.56 58.59 L 49.22 93.75 L 53.91 236.72 L 75.00 438.28 L 103.12 597.66" stroke="white" fill="transparent"/>
</svg>