<?xml version="1.0" encoding="UTF-8" standalone="no"?>
<!--Created with ndjsontosvg (https:https://github.com/thompson318/ndjsontosvg) 
	from the simplified Google quickdraw data set. key_id = 5616469788327936-->
<svg width="600" height="600"
	xmlns="http://www.w3.org/2000/svg">
	xmlns:ndjsontosvg="https://github.com/thompson318/ndjsontosvg"
	xmlns:quickdraw="https://quickdraw.withgoogle.com/data"
	xmlns:scikit-surgery="https://doi.org/10.1007/s11548-020-02180-5">

	<rect width="100%" height="100%" fill="black" />
	<path d = "M 0.00 182.81 L 18.75 297.66 L 18.75 433.59 L 11.72 468.75 L 42.19 473.44 L 187.50 445.31 L 590.62 445.31 L 597.66 428.91 L 576.56 375.00 L 560.16 288.28 L 567.19 166.41" stroke="white" fill="transparent"/>
	<path d = "M 0.00 194.53 L 70.31 51.56 L 86.72 0.00 L 110.16 103.12 L 119.53 182.81 L 161.72 124.22 L 192.19 39.84 L 201.56 56.25 L 220.31 171.09 L 232.03 157.03 L 253.12 96.09 L 257.81 11.72 L 271.88 9.38 L 304.69 140.62 L 307.03 178.12 L 360.94 91.41 L 372.66 96.09 L 410.16 182.81 L 489.84 30.47" stroke="white" fill="transparent"/>
</svg>