<?xml version="1.0" encoding="UTF-8" standalone="no"?>
<!--Created with ndjsontosvg (https:https://github.com/thompson318/ndjsontosvg) 
	from the simplified Google quickdraw data set. key_id = 6654252535513088-->
<svg width="600" height="600"
	xmlns="http://www.w3.org/2000/svg">
	xmlns:ndjsontosvg="https://github.com/thompson318/ndjsontosvg"
	xmlns:quickdraw="https://quickdraw.withgoogle.com/data"
	xmlns:scikit-surgery="https://doi.org/10.1007/s11548-020-02180-5">

	<rect width="100%" height="100%" fill="black" />
	<path d = "M 46.88 121.88 L 18.75 517.97 L 227.34 499.22 L 597.66 492.19 L 541.41 297.66 L 487.50 32.81 L 421.88 187.50 L 370.31 271.88 L 363.28 271.88 L 360.94 75.00 L 351.56 180.47 L 335.16 253.12 L 318.75 300.00 L 311.72 309.38 L 297.66 309.38 L 283.59 269.53 L 276.56 208.59 L 274.22 72.66 L 262.50 75.00 L 229.69 152.34 L 210.94 290.62 L 171.09 142.97 L 140.62 65.62 L 100.78 9.38 L 70.31 0.00 L 58.59 7.03 L 39.84 42.19 L 18.75 112.50 L 4.69 187.50 L 0.00 274.22" stroke="white" fill="transparent"/>
</svg>