<?xml version="1.0" encoding="UTF-8" standalone="no"?>
<!--Created with ndjsontosvg (https:https://github.com/thompson318/ndjsontosvg) 
	from the simplified Google quickdraw data set. key_id = 5309324408651776-->
<svg width="600" height="600"
	xmlns="http://www.w3.org/2000/svg">
	xmlns:ndjsontosvg="https://github.com/thompson318/ndjsontosvg"
	xmlns:quickdraw="https://quickdraw.withgoogle.com/data"
	xmlns:scikit-surgery="https://doi.org/10.1007/s11548-020-02180-5">

	<rect width="100%" height="100%" fill="black" />
	<path d = "M 269.53 91.41 L 271.88 23.44 L 285.94 4.69 L 304.69 0.00 L 321.09 25.78 L 323.44 91.41" stroke="white" fill="transparent"/>
	<path d = "M 330.47 89.06 L 332.81 32.81 L 339.84 21.09 L 353.91 18.75 L 363.28 28.12 L 375.00 91.41" stroke="white" fill="transparent"/>
	<path d = "M 255.47 79.69 L 248.44 32.81 L 229.69 21.09 L 208.59 28.12 L 201.56 70.31" stroke="white" fill="transparent"/>
	<path d = "M 386.72 89.06 L 461.72 86.72 L 546.09 72.66 L 553.12 117.19 L 553.12 171.09 L 510.94 201.56 L 450.00 222.66 L 384.38 229.69 L 264.84 227.34 L 145.31 201.56 L 117.19 185.16 L 100.78 164.06 L 98.44 128.91 L 117.19 84.38 L 159.38 70.31 L 213.28 75.00" stroke="white" fill="transparent"/>
	<path d = "M 133.59 93.75 L 229.69 117.19 L 339.84 124.22 L 473.44 124.22 L 529.69 110.16" stroke="white" fill="transparent"/>
	<path d = "M 468.75 96.09 L 471.09 105.47 L 508.59 96.09" stroke="white" fill="transparent"/>
	<path d = "M 44.53 236.72 L 63.28 222.66 L 79.69 222.66 L 112.50 246.09 L 173.44 241.41 L 239.06 248.44 L 304.69 236.72 L 346.88 239.06 L 393.75 225.00 L 433.59 236.72 L 527.34 227.34" stroke="white" fill="transparent"/>
	<path d = "M 0.00 164.06 L 30.47 152.34 L 53.91 159.38" stroke="white" fill="transparent"/>
	<path d = "M 585.94 161.72 L 597.66 152.34" stroke="white" fill="transparent"/>
	<path d = "M 60.94 269.53 L 105.47 260.16 L 189.84 281.25 L 260.16 264.84 L 321.09 278.91 L 382.03 269.53 L 494.53 297.66 L 548.44 290.62 L 597.66 271.88" stroke="white" fill="transparent"/>
</svg>