<?xml version="1.0" encoding="UTF-8" standalone="no"?>
<!--Created with ndjsontosvg (https:https://github.com/thompson318/ndjsontosvg) 
	from the simplified Google quickdraw data set. key_id = 6631274460479488-->
<svg width="600" height="600"
	xmlns="http://www.w3.org/2000/svg">
	xmlns:ndjsontosvg="https://github.com/thompson318/ndjsontosvg"
	xmlns:quickdraw="https://quickdraw.withgoogle.com/data"
	xmlns:scikit-surgery="https://doi.org/10.1007/s11548-020-02180-5">

	<rect width="100%" height="100%" fill="black" />
	<path d = "M 257.81 203.91 L 133.59 199.22 L 32.81 213.28 L 0.00 208.59 L 37.50 260.16 L 114.84 314.06 L 210.94 353.91 L 274.22 375.00 L 435.94 375.00 L 527.34 339.84 L 578.91 271.88 L 597.66 227.34 L 597.66 196.88 L 588.28 175.78 L 574.22 166.41 L 562.50 161.72 L 487.50 173.44 L 382.03 168.75 L 281.25 192.19 L 208.59 178.12" stroke="white" fill="transparent"/>
	<path d = "M 189.84 182.81 L 175.78 44.53 L 304.69 28.12 L 328.12 32.81 L 365.62 30.47 L 487.50 51.56 L 499.22 60.94 L 503.91 138.28 L 496.88 208.59" stroke="white" fill="transparent"/>
	<path d = "M 180.47 21.09 L 175.78 0.00" stroke="white" fill="transparent"/>
</svg>