<?xml version="1.0" encoding="UTF-8" standalone="no"?>
<!--Created with ndjsontosvg (https:https://github.com/thompson318/ndjsontosvg) 
	from the simplified Google quickdraw data set. key_id = 5561679255437312-->
<svg width="600" height="600"
	xmlns="http://www.w3.org/2000/svg">
	xmlns:ndjsontosvg="https://github.com/thompson318/ndjsontosvg"
	xmlns:quickdraw="https://quickdraw.withgoogle.com/data"
	xmlns:scikit-surgery="https://doi.org/10.1007/s11548-020-02180-5">

	<rect width="100%" height="100%" fill="black" />
	<path d = "M 7.03 39.84 L 0.00 65.62 L 11.72 271.88 L 23.44 386.72 L 37.50 426.56 L 84.38 473.44 L 142.97 501.56 L 227.34 525.00 L 278.91 532.03 L 321.09 532.03 L 335.16 522.66 L 372.66 454.69 L 379.69 356.25 L 372.66 295.31 L 375.00 56.25 L 351.56 39.84 L 311.72 35.16 L 100.78 46.88 L 49.22 58.59 L 9.38 56.25 L 0.00 46.88 L 7.03 35.16 L 28.12 23.44 L 133.59 2.34 L 208.59 0.00 L 318.75 16.41 L 337.50 25.78 L 339.84 46.88" stroke="white" fill="transparent"/>
	<path d = "M 367.97 60.94 L 445.31 53.91 L 471.09 60.94 L 503.91 84.38 L 560.16 145.31 L 583.59 185.16 L 595.31 213.28 L 597.66 257.81 L 576.56 318.75 L 520.31 393.75 L 435.94 447.66 L 344.53 499.22 L 363.28 480.47" stroke="white" fill="transparent"/>
	<path d = "M 389.06 114.84 L 475.78 138.28 L 503.91 161.72 L 513.28 220.31 L 508.59 262.50 L 487.50 309.38 L 405.47 400.78" stroke="white" fill="transparent"/>
</svg>