<?xml version="1.0" encoding="UTF-8" standalone="no"?>
<!--Created with ndjsontosvg (https:https://github.com/thompson318/ndjsontosvg) 
	from the simplified Google quickdraw data set. key_id = 5254365923246080-->
<svg width="600" height="600"
	xmlns="http://www.w3.org/2000/svg">
	xmlns:ndjsontosvg="https://github.com/thompson318/ndjsontosvg"
	xmlns:quickdraw="https://quickdraw.withgoogle.com/data"
	xmlns:scikit-surgery="https://doi.org/10.1007/s11548-020-02180-5">

	<rect width="100%" height="100%" fill="black" />
	<path d = "M 7.03 110.16 L 35.16 407.81 L 35.16 532.03" stroke="white" fill="transparent"/>
	<path d = "M 32.81 539.06 L 105.47 583.59 L 185.16 597.66 L 304.69 585.94 L 379.69 567.19 L 407.81 550.78" stroke="white" fill="transparent"/>
	<path d = "M 393.75 543.75 L 379.69 442.97 L 377.34 232.03 L 370.31 98.44 L 363.28 72.66" stroke="white" fill="transparent"/>
	<path d = "M 9.38 107.81 L 60.94 142.97 L 84.38 150.00 L 175.78 161.72 L 239.06 161.72 L 328.12 121.88 L 367.97 89.06 L 375.00 65.62" stroke="white" fill="transparent"/>
	<path d = "M 0.00 89.06 L 63.28 39.84 L 117.19 14.06 L 208.59 0.00 L 278.91 0.00 L 323.44 21.09 L 365.62 65.62" stroke="white" fill="transparent"/>
</svg>