<?xml version="1.0" encoding="UTF-8" standalone="no"?>
<!--Created with ndjsontosvg (https:https://github.com/thompson318/ndjsontosvg) 
	from the simplified Google quickdraw data set. key_id = 5890302269194240-->
<svg width="600" height="600"
	xmlns="http://www.w3.org/2000/svg">
	xmlns:ndjsontosvg="https://github.com/thompson318/ndjsontosvg"
	xmlns:quickdraw="https://quickdraw.withgoogle.com/data"
	xmlns:scikit-surgery="https://doi.org/10.1007/s11548-020-02180-5">

	<rect width="100%" height="100%" fill="black" />
	<path d = "M 14.06 25.78 L 39.84 9.38 L 86.72 0.00 L 278.91 0.00 L 435.94 35.16 L 473.44 53.91 L 517.97 93.75 L 522.66 138.28 L 515.62 154.69 L 473.44 185.16 L 414.84 203.91 L 372.66 210.94 L 121.88 208.59 L 63.28 192.19 L 49.22 182.81 L 25.78 121.88 L 7.03 16.41 L 0.00 131.25 L 2.34 274.22 L 23.44 400.78 L 44.53 494.53 L 65.62 529.69 L 91.41 546.09 L 232.03 590.62 L 274.22 597.66 L 367.97 592.97 L 421.88 550.78 L 433.59 534.38 L 461.72 480.47 L 471.09 431.25 L 471.09 292.97 L 464.06 241.41 L 468.75 161.72" stroke="white" fill="transparent"/>
</svg>