<?xml version="1.0" encoding="UTF-8" standalone="no"?>
<!--Created with ndjsontosvg (https:https://github.com/thompson318/ndjsontosvg) 
	from the simplified Google quickdraw data set. key_id = 5126236915367936-->
<svg width="600" height="600"
	xmlns="http://www.w3.org/2000/svg">
	xmlns:ndjsontosvg="https://github.com/thompson318/ndjsontosvg"
	xmlns:quickdraw="https://quickdraw.withgoogle.com/data"
	xmlns:scikit-surgery="https://doi.org/10.1007/s11548-020-02180-5">

	<rect width="100%" height="100%" fill="black" />
	<path d = "M 51.56 0.00 L 44.53 14.06 L 42.19 46.88 L 46.88 192.19 L 65.62 246.09 L 84.38 274.22 L 124.22 290.62 L 185.16 290.62 L 220.31 281.25 L 281.25 253.12 L 325.78 213.28 L 384.38 124.22 L 393.75 70.31 L 393.75 4.69 L 389.06 372.66 L 377.34 405.47 L 304.69 482.81 L 161.72 590.62 L 147.66 597.66 L 107.81 597.66 L 67.97 574.22 L 42.19 534.38 L 4.69 414.84 L 0.00 335.16 L 25.78 260.16 L 56.25 100.78 L 79.69 67.97 L 107.81 51.56" stroke="white" fill="transparent"/>
</svg>