<?xml version="1.0" encoding="UTF-8" standalone="no"?>
<!--Created with ndjsontosvg (https:https://github.com/thompson318/ndjsontosvg) 
	from the simplified Google quickdraw data set. key_id = 4715472299753472-->
<svg width="600" height="600"
	xmlns="http://www.w3.org/2000/svg">
	xmlns:ndjsontosvg="https://github.com/thompson318/ndjsontosvg"
	xmlns:quickdraw="https://quickdraw.withgoogle.com/data"
	xmlns:scikit-surgery="https://doi.org/10.1007/s11548-020-02180-5">

	<rect width="100%" height="100%" fill="black" />
	<path d = "M 89.06 0.00 L 32.81 82.03 L 0.00 117.19" stroke="white" fill="transparent"/>
	<path d = "M 93.75 0.00 L 365.62 16.41 L 396.09 23.44 L 407.81 18.75 L 546.09 208.59" stroke="white" fill="transparent"/>
	<path d = "M 9.38 117.19 L 60.94 196.88 L 84.38 250.78 L 119.53 389.06 L 152.34 464.06 L 178.12 494.53 L 215.62 482.81 L 311.72 433.59 L 499.22 302.34 L 529.69 262.50 L 541.41 220.31" stroke="white" fill="transparent"/>
	<path d = "M 7.03 110.16 L 93.75 142.97" stroke="white" fill="transparent"/>
	<path d = "M 98.44 147.66 L 173.44 150.00" stroke="white" fill="transparent"/>
	<path d = "M 185.16 152.34 L 274.22 203.91" stroke="white" fill="transparent"/>
	<path d = "M 274.22 201.56 L 295.31 196.88 L 356.25 159.38" stroke="white" fill="transparent"/>
	<path d = "M 356.25 159.38 L 398.44 196.88 L 597.66 208.59" stroke="white" fill="transparent"/>
</svg>