<?xml version="1.0" encoding="UTF-8" standalone="no"?>
<!--Created with ndjsontosvg (https:https://github.com/thompson318/ndjsontosvg) 
	from the simplified Google quickdraw data set. key_id = 6522372054056960-->
<svg width="600" height="600"
	xmlns="http://www.w3.org/2000/svg">
	xmlns:ndjsontosvg="https://github.com/thompson318/ndjsontosvg"
	xmlns:quickdraw="https://quickdraw.withgoogle.com/data"
	xmlns:scikit-surgery="https://doi.org/10.1007/s11548-020-02180-5">

	<rect width="100%" height="100%" fill="black" />
	<path d = "M 168.75 18.75 L 0.00 157.03 L 0.00 166.41 L 42.19 236.72 L 246.09 515.62 L 257.81 515.62 L 480.47 307.03 L 597.66 241.41 L 578.91 206.25 L 515.62 18.75 L 438.28 21.09 L 138.28 0.00" stroke="white" fill="transparent"/>
	<path d = "M 23.44 150.00 L 14.06 147.66 L 21.09 175.78 L 60.94 255.47 L 145.31 178.12 L 196.88 152.34 L 203.91 157.03 L 215.62 234.38 L 241.41 276.56 L 250.78 276.56 L 276.56 257.81 L 309.38 201.56 L 346.88 274.22 L 356.25 274.22 L 391.41 229.69 L 400.78 229.69 L 421.88 274.22 L 442.97 297.66 L 464.06 281.25 L 478.12 243.75 L 489.84 234.38 L 508.59 234.38 L 539.06 246.09 L 508.59 225.00 L 410.16 65.62 L 400.78 63.28 L 351.56 135.94 L 304.69 189.84 L 262.50 203.91 L 264.84 168.75" stroke="white" fill="transparent"/>
</svg>