<?xml version="1.0" encoding="UTF-8" standalone="no"?>
<!--Created with ndjsontosvg (https:https://github.com/thompson318/ndjsontosvg) 
	from the simplified Google quickdraw data set. key_id = 6077863570702336-->
<svg width="600" height="600"
	xmlns="http://www.w3.org/2000/svg">
	xmlns:ndjsontosvg="https://github.com/thompson318/ndjsontosvg"
	xmlns:quickdraw="https://quickdraw.withgoogle.com/data"
	xmlns:scikit-surgery="https://doi.org/10.1007/s11548-020-02180-5">

	<rect width="100%" height="100%" fill="black" />
	<path d = "M 325.78 65.62 L 79.69 70.31 L 63.28 276.56 L 63.28 360.94 L 75.00 365.62 L 117.19 358.59 L 389.06 360.94 L 398.44 353.91 L 398.44 131.25 L 391.41 65.62 L 377.34 58.59 L 318.75 60.94 L 260.16 70.31 L 187.50 96.09" stroke="white" fill="transparent"/>
	<path d = "M 117.19 344.53 L 131.25 297.66 L 145.31 281.25 L 154.69 283.59 L 159.38 344.53" stroke="white" fill="transparent"/>
	<path d = "M 225.00 363.28 L 227.34 295.31 L 239.06 267.19 L 253.12 255.47 L 260.16 267.19 L 267.19 342.19" stroke="white" fill="transparent"/>
	<path d = "M 323.44 365.62 L 337.50 290.62 L 358.59 269.53 L 370.31 346.88" stroke="white" fill="transparent"/>
	<path d = "M 77.34 353.91 L 119.53 405.47 L 199.22 480.47 L 269.53 536.72 L 332.81 567.19 L 356.25 553.12 L 452.34 520.31 L 510.94 480.47 L 396.09 349.22" stroke="white" fill="transparent"/>
	<path d = "M 84.38 53.91 L 84.38 53.91" stroke="white" fill="transparent"/>
	<path d = "M 379.69 0.00 L 300.00 11.72 L 86.72 9.38 L 51.56 16.41 L 25.78 37.50 L 2.34 126.56 L 2.34 459.38 L 18.75 459.38 L 133.59 536.72 L 283.59 597.66" stroke="white" fill="transparent"/>
</svg>