<?xml version="1.0" encoding="UTF-8" standalone="no"?>
<!--Created with ndjsontosvg (https:https://github.com/thompson318/ndjsontosvg) 
	from the simplified Google quickdraw data set. key_id = 6266995546783744-->
<svg width="600" height="600"
	xmlns="http://www.w3.org/2000/svg">
	xmlns:ndjsontosvg="https://github.com/thompson318/ndjsontosvg"
	xmlns:quickdraw="https://quickdraw.withgoogle.com/data"
	xmlns:scikit-surgery="https://doi.org/10.1007/s11548-020-02180-5">

	<rect width="100%" height="100%" fill="black" />
	<path d = "M 0.00 105.47 L 23.44 482.81 L 35.16 525.00 L 49.22 543.75 L 100.78 550.78 L 314.06 520.31 L 578.91 510.94 L 595.31 499.22 L 597.66 473.44 L 571.88 257.81 L 517.97 77.34 L 494.53 28.12 L 478.12 11.72 L 428.91 0.00 L 318.75 9.38 L 229.69 32.81 L 75.00 98.44 L 44.53 105.47 L 18.75 103.12" stroke="white" fill="transparent"/>
	<path d = "M 60.94 114.84 L 53.91 178.12 L 60.94 206.25 L 72.66 210.94 L 86.72 196.88 L 103.12 164.06 L 103.12 128.91 L 77.34 133.59" stroke="white" fill="transparent"/>
	<path d = "M 119.53 112.50 L 117.19 138.28 L 131.25 164.06 L 147.66 159.38 L 152.34 128.91 L 133.59 100.78 L 119.53 93.75 L 112.50 103.12 L 112.50 145.31 L 121.88 164.06 L 133.59 171.09" stroke="white" fill="transparent"/>
	<path d = "M 178.12 131.25 L 175.78 150.00 L 185.16 135.94" stroke="white" fill="transparent"/>
	<path d = "M 178.12 89.06 L 175.78 121.88 L 182.81 145.31 L 196.88 135.94 L 208.59 103.12" stroke="white" fill="transparent"/>
	<path d = "M 253.12 89.06 L 239.06 124.22 L 250.78 110.16 L 253.12 75.00 L 248.44 56.25 L 236.72 77.34 L 234.38 114.84 L 246.09 121.88" stroke="white" fill="transparent"/>
	<path d = "M 285.94 58.59 L 274.22 91.41 L 285.94 75.00" stroke="white" fill="transparent"/>
	<path d = "M 321.09 65.62 L 325.78 103.12 L 342.19 89.06 L 344.53 56.25 L 332.81 35.16" stroke="white" fill="transparent"/>
	<path d = "M 375.00 35.16 L 372.66 53.91 L 377.34 56.25 L 386.72 46.88 L 389.06 30.47 L 379.69 37.50 L 375.00 58.59 L 382.03 75.00 L 393.75 72.66" stroke="white" fill="transparent"/>
</svg>