<?xml version="1.0" encoding="UTF-8" standalone="no"?>
<!--Created with ndjsontosvg (https:https://github.com/thompson318/ndjsontosvg) 
	from the simplified Google quickdraw data set. key_id = 5802484054360064-->
<svg width="600" height="600"
	xmlns="http://www.w3.org/2000/svg">
	xmlns:ndjsontosvg="https://github.com/thompson318/ndjsontosvg"
	xmlns:quickdraw="https://quickdraw.withgoogle.com/data"
	xmlns:scikit-surgery="https://doi.org/10.1007/s11548-020-02180-5">

	<rect width="100%" height="100%" fill="black" />
	<path d = "M 597.66 250.78 L 529.69 267.19 L 389.06 253.12 L 309.38 260.16 L 206.25 283.59 L 189.84 304.69 L 192.19 339.84 L 206.25 382.03 L 225.00 417.19 L 248.44 426.56 L 318.75 426.56 L 588.28 386.72" stroke="white" fill="transparent"/>
	<path d = "M 478.12 391.41 L 499.22 550.78" stroke="white" fill="transparent"/>
	<path d = "M 171.09 84.38 L 173.44 65.62 L 150.00 58.59 L 126.56 67.97 L 100.78 96.09 L 98.44 131.25 L 114.84 159.38 L 173.44 168.75 L 208.59 159.38 L 225.00 142.97 L 225.00 98.44 L 203.91 77.34 L 178.12 70.31" stroke="white" fill="transparent"/>
	<path d = "M 236.72 175.78 L 316.41 213.28 L 292.97 232.03 L 288.28 255.47 L 285.94 274.22 L 302.34 309.38" stroke="white" fill="transparent"/>
	<path d = "M 335.16 189.84 L 447.66 192.19" stroke="white" fill="transparent"/>
	<path d = "M 253.12 192.19 L 171.09 264.84" stroke="white" fill="transparent"/>
	<path d = "M 253.12 166.41 L 271.88 131.25 L 400.78 0.00" stroke="white" fill="transparent"/>
	<path d = "M 0.00 471.09 L 21.09 471.09 L 60.94 457.03 L 91.41 431.25 L 112.50 398.44 L 126.56 356.25 L 138.28 407.81 L 157.03 431.25 L 168.75 438.28 L 206.25 438.28 L 236.72 424.22 L 257.81 466.41 L 281.25 468.75 L 337.50 438.28 L 365.62 431.25 L 398.44 447.66 L 473.44 426.56 L 508.59 442.97" stroke="white" fill="transparent"/>
</svg>