<?xml version="1.0" encoding="UTF-8" standalone="no"?>
<!--Created with ndjsontosvg (https:https://github.com/thompson318/ndjsontosvg) 
	from the simplified Google quickdraw data set. key_id = 6498949449908224-->
<svg width="600" height="600"
	xmlns="http://www.w3.org/2000/svg">
	xmlns:ndjsontosvg="https://github.com/thompson318/ndjsontosvg"
	xmlns:quickdraw="https://quickdraw.withgoogle.com/data"
	xmlns:scikit-surgery="https://doi.org/10.1007/s11548-020-02180-5">

	<rect width="100%" height="100%" fill="black" />
	<path d = "M 77.34 166.41 L 23.44 239.06 L 0.00 323.44 L 107.81 227.34 L 119.53 189.84 L 140.62 187.50 L 161.72 194.53 L 175.78 225.00 L 157.03 330.47 L 157.03 389.06 L 227.34 393.75 L 234.38 360.94 L 234.38 220.31 L 339.84 220.31 L 349.22 375.00 L 431.25 375.00 L 431.25 311.72 L 419.53 248.44 L 405.47 217.97 L 405.47 187.50 L 424.22 173.44 L 452.34 171.09 L 499.22 206.25 L 508.59 225.00 L 534.38 248.44 L 541.41 239.06 L 539.06 208.59 L 510.94 157.03 L 539.06 157.03 L 585.94 168.75 L 592.97 168.75 L 597.66 157.03 L 585.94 126.56 L 550.78 86.72 L 503.91 75.00 L 222.66 70.31 L 166.41 77.34 L 107.81 100.78 L 91.41 140.62 L 58.59 182.81" stroke="white" fill="transparent"/>
	<path d = "M 517.97 67.97 L 520.31 23.44 L 529.69 0.00 L 546.09 23.44 L 562.50 93.75" stroke="white" fill="transparent"/>
	<path d = "M 548.44 23.44 L 574.22 4.69 L 583.59 91.41" stroke="white" fill="transparent"/>
</svg>