<?xml version="1.0" encoding="UTF-8" standalone="no"?>
<!--Created with ndjsontosvg (https:https://github.com/thompson318/ndjsontosvg) 
	from the simplified Google quickdraw data set. key_id = 5012987788132352-->
<svg width="600" height="600"
	xmlns="http://www.w3.org/2000/svg">
	xmlns:ndjsontosvg="https://github.com/thompson318/ndjsontosvg"
	xmlns:quickdraw="https://quickdraw.withgoogle.com/data"
	xmlns:scikit-surgery="https://doi.org/10.1007/s11548-020-02180-5">

	<rect width="100%" height="100%" fill="black" />
	<path d = "M 39.84 67.97 L 46.88 23.44 L 72.66 79.69 L 121.88 18.75 L 126.56 77.34 L 140.62 119.53 L 135.94 140.62 L 67.97 159.38 L 2.34 159.38 L 0.00 117.19 L 7.03 96.09 L 14.06 86.72 L 42.19 77.34" stroke="white" fill="transparent"/>
	<path d = "M 25.78 117.19 L 28.12 119.53" stroke="white" fill="transparent"/>
	<path d = "M 46.88 128.91 L 46.88 128.91" stroke="white" fill="transparent"/>
	<path d = "M 9.38 133.59 L 30.47 140.62" stroke="white" fill="transparent"/>
	<path d = "M 154.69 93.75 L 255.47 75.00 L 337.50 89.06 L 367.97 103.12 L 403.12 103.12 L 501.56 58.59 L 501.56 2.34 L 506.25 0.00 L 569.53 2.34 L 595.31 21.09 L 592.97 53.91 L 571.88 84.38 L 468.75 135.94 L 391.41 147.66 L 370.31 210.94 L 304.69 267.19 L 295.31 234.38 L 292.97 152.34 L 253.12 227.34 L 210.94 250.78 L 234.38 161.72 L 206.25 227.34 L 175.78 243.75 L 147.66 248.44 L 145.31 227.34 L 161.72 175.78 L 117.19 243.75 L 89.06 250.78 L 84.38 217.97 L 93.75 154.69" stroke="white" fill="transparent"/>
</svg>