<?xml version="1.0" encoding="UTF-8" standalone="no"?>
<!--Created with ndjsontosvg (https:https://github.com/thompson318/ndjsontosvg) 
	from the simplified Google quickdraw data set. key_id = 5884034137718784-->
<svg width="600" height="600"
	xmlns="http://www.w3.org/2000/svg">
	xmlns:ndjsontosvg="https://github.com/thompson318/ndjsontosvg"
	xmlns:quickdraw="https://quickdraw.withgoogle.com/data"
	xmlns:scikit-surgery="https://doi.org/10.1007/s11548-020-02180-5">

	<rect width="100%" height="100%" fill="black" />
	<path d = "M 349.22 117.19 L 232.03 133.59 L 157.03 152.34 L 84.38 182.81 L 70.31 194.53 L 70.31 203.91 L 133.59 236.72 L 232.03 253.12 L 339.84 243.75 L 412.50 222.66 L 440.62 213.28 L 478.12 185.16 L 480.47 168.75 L 473.44 154.69 L 438.28 131.25 L 382.03 114.84 L 346.88 110.16 L 318.75 126.56" stroke="white" fill="transparent"/>
	<path d = "M 110.16 227.34 L 23.44 314.06" stroke="white" fill="transparent"/>
	<path d = "M 86.72 225.00 L 131.25 314.06" stroke="white" fill="transparent"/>
	<path d = "M 398.44 246.09 L 346.88 321.09" stroke="white" fill="transparent"/>
	<path d = "M 389.06 220.31 L 487.50 304.69" stroke="white" fill="transparent"/>
	<path d = "M 492.19 53.91 L 571.88 37.50 L 583.59 39.84 L 597.66 58.59 L 595.31 70.31 L 576.56 79.69 L 506.25 91.41" stroke="white" fill="transparent"/>
	<path d = "M 487.50 51.56 L 487.50 25.78 L 482.81 14.06 L 464.06 4.69 L 417.19 2.34 L 386.72 9.38 L 379.69 16.41 L 386.72 79.69 L 379.69 154.69 L 389.06 166.41 L 419.53 173.44 L 459.38 168.75" stroke="white" fill="transparent"/>
	<path d = "M 506.25 89.06 L 482.81 128.91" stroke="white" fill="transparent"/>
	<path d = "M 503.91 91.41 L 590.62 112.50 L 592.97 119.53 L 564.84 131.25 L 534.38 131.25 L 492.19 117.19" stroke="white" fill="transparent"/>
	<path d = "M 426.56 28.12 L 414.84 82.03 L 417.19 138.28 L 431.25 135.94 L 447.66 110.16 L 428.91 39.84" stroke="white" fill="transparent"/>
	<path d = "M 103.12 208.59 L 42.19 196.88 L 23.44 185.16 L 23.44 140.62 L 18.75 126.56 L 0.00 119.53" stroke="white" fill="transparent"/>
</svg>