<?xml version="1.0" encoding="UTF-8" standalone="no"?>
<!--Created with ndjsontosvg (https:https://github.com/thompson318/ndjsontosvg) 
	from the simplified Google quickdraw data set. key_id = 4949346623684608-->
<svg width="600" height="600"
	xmlns="http://www.w3.org/2000/svg">
	xmlns:ndjsontosvg="https://github.com/thompson318/ndjsontosvg"
	xmlns:quickdraw="https://quickdraw.withgoogle.com/data"
	xmlns:scikit-surgery="https://doi.org/10.1007/s11548-020-02180-5">

	<rect width="100%" height="100%" fill="black" />
	<path d = "M 145.31 196.88 L 142.97 307.03 L 161.72 393.75 L 171.09 400.78 L 194.53 375.00 L 215.62 278.91 L 234.38 271.88 L 276.56 285.94 L 330.47 290.62 L 328.12 372.66 L 337.50 398.44 L 349.22 407.81 L 363.28 405.47 L 382.03 382.03 L 389.06 356.25 L 386.72 276.56 L 457.03 246.09 L 468.75 182.81 L 485.16 150.00 L 494.53 147.66 L 550.78 178.12 L 592.97 175.78 L 597.66 161.72 L 576.56 128.91 L 529.69 105.47 L 534.38 44.53 L 513.28 14.06 L 499.22 4.69 L 473.44 0.00 L 450.00 9.38 L 435.94 39.84 L 431.25 86.72" stroke="white" fill="transparent"/>
	<path d = "M 550.78 135.94 L 555.47 135.94" stroke="white" fill="transparent"/>
	<path d = "M 529.69 105.47 L 520.31 161.72" stroke="white" fill="transparent"/>
	<path d = "M 426.56 93.75 L 367.97 77.34 L 278.91 84.38 L 239.06 103.12 L 189.84 142.97 L 150.00 196.88" stroke="white" fill="transparent"/>
	<path d = "M 157.03 180.47 L 140.62 164.06 L 110.16 166.41 L 86.72 192.19 L 49.22 262.50 L 0.00 290.62" stroke="white" fill="transparent"/>
</svg>