<?xml version="1.0" encoding="UTF-8" standalone="no"?>
<!--Created with ndjsontosvg (https:https://github.com/thompson318/ndjsontosvg) 
	from the simplified Google quickdraw data set. key_id = 6143841503543296-->
<svg width="600" height="600"
	xmlns="http://www.w3.org/2000/svg">
	xmlns:ndjsontosvg="https://github.com/thompson318/ndjsontosvg"
	xmlns:quickdraw="https://quickdraw.withgoogle.com/data"
	xmlns:scikit-surgery="https://doi.org/10.1007/s11548-020-02180-5">

	<rect width="100%" height="100%" fill="black" />
	<path d = "M 93.75 63.28 L 77.34 51.56 L 39.84 49.22 L 9.38 63.28 L 2.34 86.72 L 2.34 150.00 L 30.47 182.81 L 79.69 210.94 L 164.06 215.62 L 187.50 203.91 L 192.19 166.41 L 192.19 142.97 L 175.78 124.22 L 79.69 58.59" stroke="white" fill="transparent"/>
	<path d = "M 89.06 58.59 L 208.59 18.75 L 187.50 49.22 L 135.94 86.72 L 114.84 79.69" stroke="white" fill="transparent"/>
	<path d = "M 4.69 51.56 L 18.75 4.69 L 44.53 0.00 L 77.34 9.38 L 86.72 51.56" stroke="white" fill="transparent"/>
	<path d = "M 351.56 154.69 L 248.44 145.31 L 152.34 157.03 L 159.38 194.53 L 182.81 215.62 L 269.53 229.69 L 311.72 227.34 L 335.16 210.94 L 339.84 175.78 L 330.47 154.69" stroke="white" fill="transparent"/>
	<path d = "M 337.50 168.75 L 377.34 166.41 L 410.16 178.12 L 426.56 229.69 L 459.38 262.50 L 539.06 271.88 L 550.78 267.19 L 574.22 236.72 L 597.66 236.72" stroke="white" fill="transparent"/>
	<path d = "M 222.66 227.34 L 199.22 271.88 L 217.97 271.88" stroke="white" fill="transparent"/>
	<path d = "M 304.69 217.97 L 337.50 255.47 L 351.56 295.31" stroke="white" fill="transparent"/>
	<path d = "M 53.91 93.75 L 51.56 93.75" stroke="white" fill="transparent"/>
	<path d = "M 114.84 119.53 L 114.84 119.53" stroke="white" fill="transparent"/>
	<path d = "M 119.53 145.31 L 121.88 142.97" stroke="white" fill="transparent"/>
</svg>