<?xml version="1.0" encoding="UTF-8" standalone="no"?>
<!--Created with ndjsontosvg (https:https://github.com/thompson318/ndjsontosvg) 
	from the simplified Google quickdraw data set. key_id = 4844266742349824-->
<svg width="600" height="600"
	xmlns="http://www.w3.org/2000/svg">
	xmlns:ndjsontosvg="https://github.com/thompson318/ndjsontosvg"
	xmlns:quickdraw="https://quickdraw.withgoogle.com/data"
	xmlns:scikit-surgery="https://doi.org/10.1007/s11548-020-02180-5">

	<rect width="100%" height="100%" fill="black" />
	<path d = "M 164.06 135.94 L 105.47 117.19 L 67.97 93.75 L 39.84 67.97 L 4.69 2.34 L 0.00 14.06 L 0.00 67.97 L 18.75 117.19 L 35.16 142.97 L 82.03 173.44 L 98.44 199.22 L 131.25 314.06 L 145.31 342.19 L 154.69 328.12 L 180.47 227.34 L 187.50 213.28 L 199.22 208.59 L 215.62 210.94 L 239.06 229.69 L 241.41 311.72 L 250.78 342.19 L 276.56 339.84 L 300.00 318.75 L 321.09 278.91 L 321.09 196.88 L 342.19 189.84 L 356.25 192.19 L 372.66 217.97 L 377.34 330.47 L 384.38 339.84 L 398.44 342.19 L 445.31 311.72 L 452.34 297.66 L 438.28 234.38 L 438.28 178.12 L 445.31 164.06 L 468.75 147.66 L 564.84 147.66 L 574.22 140.62 L 597.66 77.34 L 585.94 30.47 L 550.78 0.00 L 501.56 0.00 L 461.72 21.09 L 445.31 46.88 L 433.59 82.03 L 400.78 107.81 L 260.16 117.19" stroke="white" fill="transparent"/>
</svg>