<?xml version="1.0" encoding="UTF-8" standalone="no"?>
<!--Created with ndjsontosvg (https:https://github.com/thompson318/ndjsontosvg) 
	from the simplified Google quickdraw data set. key_id = 4576162216935424-->
<svg width="600" height="600"
	xmlns="http://www.w3.org/2000/svg">
	xmlns:ndjsontosvg="https://github.com/thompson318/ndjsontosvg"
	xmlns:quickdraw="https://quickdraw.withgoogle.com/data"
	xmlns:scikit-surgery="https://doi.org/10.1007/s11548-020-02180-5">

	<rect width="100%" height="100%" fill="black" />
	<path d = "M 468.75 11.72 L 454.69 7.03 L 428.91 28.12 L 417.19 75.00 L 424.22 105.47 L 454.69 124.22 L 480.47 126.56 L 503.91 114.84 L 515.62 96.09 L 517.97 58.59 L 506.25 25.78 L 487.50 7.03 L 461.72 0.00 L 447.66 7.03" stroke="white" fill="transparent"/>
	<path d = "M 499.22 35.16 L 525.00 25.78 L 562.50 25.78 L 583.59 39.84 L 597.66 60.94 L 597.66 93.75 L 543.75 194.53 L 543.75 222.66 L 567.19 271.88 L 562.50 304.69" stroke="white" fill="transparent"/>
	<path d = "M 482.81 302.34 L 475.78 241.41 L 482.81 194.53 L 501.56 142.97 L 520.31 110.16" stroke="white" fill="transparent"/>
	<path d = "M 442.97 21.09 L 389.06 21.09 L 349.22 60.94 L 337.50 86.72 L 335.16 119.53 L 351.56 203.91 L 332.81 229.69 L 283.59 260.16 L 271.88 278.91 L 274.22 304.69 L 292.97 321.09 L 321.09 323.44 L 353.91 304.69 L 382.03 269.53 L 405.47 225.00 L 428.91 135.94" stroke="white" fill="transparent"/>
	<path d = "M 454.69 126.56 L 445.31 239.06 L 438.28 264.84 L 400.78 311.72 L 358.59 344.53 L 311.72 349.22 L 171.09 339.84 L 49.22 321.09 L 7.03 292.97 L 0.00 250.78 L 30.47 217.97 L 100.78 185.16 L 229.69 164.06 L 372.66 166.41 L 426.56 150.00 L 450.00 126.56" stroke="white" fill="transparent"/>
	<path d = "M 128.91 337.50 L 75.00 464.06" stroke="white" fill="transparent"/>
	<path d = "M 217.97 335.16 L 220.31 353.91 L 194.53 464.06" stroke="white" fill="transparent"/>
	<path d = "M 290.62 346.88 L 295.31 435.94 L 311.72 475.78" stroke="white" fill="transparent"/>
</svg>