<?xml version="1.0" encoding="UTF-8" standalone="no"?>
<!--Created with ndjsontosvg (https:https://github.com/thompson318/ndjsontosvg) 
	from the simplified Google quickdraw data set. key_id = 5587961066291200-->
<svg width="600" height="600"
	xmlns="http://www.w3.org/2000/svg">
	xmlns:ndjsontosvg="https://github.com/thompson318/ndjsontosvg"
	xmlns:quickdraw="https://quickdraw.withgoogle.com/data"
	xmlns:scikit-surgery="https://doi.org/10.1007/s11548-020-02180-5">

	<rect width="100%" height="100%" fill="black" />
	<path d = "M 412.50 51.56 L 393.75 42.19 L 365.62 42.19 L 344.53 51.56 L 330.47 91.41 L 330.47 121.88 L 332.81 135.94 L 356.25 152.34 L 396.09 171.09 L 450.00 173.44 L 503.91 114.84 L 529.69 70.31 L 529.69 32.81 L 473.44 21.09 L 370.31 21.09 L 351.56 28.12 L 292.97 107.81 L 285.94 168.75 L 292.97 182.81 L 325.78 194.53 L 335.16 180.47 L 351.56 119.53" stroke="white" fill="transparent"/>
	<path d = "M 508.59 110.16 L 513.28 142.97 L 529.69 171.09 L 576.56 173.44 L 597.66 140.62 L 595.31 56.25 L 532.03 0.00" stroke="white" fill="transparent"/>
	<path d = "M 367.97 82.03 L 367.97 82.03" stroke="white" fill="transparent"/>
	<path d = "M 405.47 82.03 L 414.84 98.44" stroke="white" fill="transparent"/>
	<path d = "M 450.00 63.28 L 450.00 63.28" stroke="white" fill="transparent"/>
	<path d = "M 457.03 63.28 L 452.34 96.09" stroke="white" fill="transparent"/>
	<path d = "M 360.94 119.53 L 377.34 126.56 L 414.84 121.88" stroke="white" fill="transparent"/>
	<path d = "M 375.00 171.09 L 164.06 135.94 L 35.16 140.62 L 11.72 161.72 L 0.00 187.50 L 2.34 239.06 L 42.19 292.97 L 96.09 311.72" stroke="white" fill="transparent"/>
</svg>