<?xml version="1.0" encoding="UTF-8" standalone="no"?>
<!--Created with ndjsontosvg (https:https://github.com/thompson318/ndjsontosvg) 
	from the simplified Google quickdraw data set. key_id = 6199805665607680-->
<svg width="600" height="600"
	xmlns="http://www.w3.org/2000/svg">
	xmlns:ndjsontosvg="https://github.com/thompson318/ndjsontosvg"
	xmlns:quickdraw="https://quickdraw.withgoogle.com/data"
	xmlns:scikit-surgery="https://doi.org/10.1007/s11548-020-02180-5">

	<rect width="100%" height="100%" fill="black" />
	<path d = "M 65.62 32.81 L 128.91 14.06 L 264.84 14.06 L 384.38 0.00 L 398.44 7.03 L 428.91 46.88 L 459.38 107.81 L 473.44 154.69 L 478.12 304.69 L 450.00 468.75 L 431.25 527.34 L 396.09 578.91 L 360.94 597.66 L 297.66 592.97 L 234.38 550.78 L 194.53 510.94 L 65.62 328.12 L 9.38 187.50 L 0.00 114.84 L 32.81 46.88 L 63.28 11.72 L 96.09 0.00" stroke="white" fill="transparent"/>
	<path d = "M 292.97 386.72 L 351.56 377.34 L 358.59 389.06 L 358.59 440.62 L 353.91 450.00 L 330.47 459.38 L 302.34 459.38 L 281.25 438.28 L 271.88 414.84 L 269.53 393.75 L 283.59 382.03" stroke="white" fill="transparent"/>
	<path d = "M 332.81 457.03 L 264.84 466.41 L 253.12 489.84" stroke="white" fill="transparent"/>
	<path d = "M 363.28 445.31 L 431.25 447.66" stroke="white" fill="transparent"/>
	<path d = "M 363.28 145.31 L 365.62 192.19 L 351.56 220.31 L 325.78 217.97 L 309.38 189.84 L 297.66 159.38 L 288.28 96.09 L 309.38 75.00 L 332.81 77.34 L 356.25 131.25" stroke="white" fill="transparent"/>
	<path d = "M 241.41 182.81 L 220.31 152.34 L 187.50 138.28 L 171.09 142.97 L 154.69 185.16 L 159.38 234.38 L 173.44 255.47 L 239.06 267.19 L 246.09 206.25 L 234.38 166.41" stroke="white" fill="transparent"/>
	<path d = "M 114.84 18.75 L 114.84 18.75" stroke="white" fill="transparent"/>
</svg>