<?xml version="1.0" encoding="UTF-8" standalone="no"?>
<!--Created with ndjsontosvg (https:https://github.com/thompson318/ndjsontosvg) 
	from the simplified Google quickdraw data set. key_id = 5345000336392192-->
<svg width="600" height="600"
	xmlns="http://www.w3.org/2000/svg">
	xmlns:ndjsontosvg="https://github.com/thompson318/ndjsontosvg"
	xmlns:quickdraw="https://quickdraw.withgoogle.com/data"
	xmlns:scikit-surgery="https://doi.org/10.1007/s11548-020-02180-5">

	<rect width="100%" height="100%" fill="black" />
	<path d = "M 203.91 0.00 L 220.31 30.47 L 222.66 72.66" stroke="white" fill="transparent"/>
	<path d = "M 201.56 0.00 L 248.44 37.50 L 269.53 63.28" stroke="white" fill="transparent"/>
	<path d = "M 276.56 63.28 L 342.19 49.22 L 414.84 56.25 L 527.34 100.78 L 536.72 107.81 L 522.66 114.84 L 597.66 145.31 L 550.78 154.69 L 499.22 152.34 L 424.22 161.72 L 288.28 152.34 L 215.62 171.09 L 164.06 194.53 L 110.16 232.03 L 96.09 229.69 L 110.16 246.09 L 107.81 271.88 L 82.03 307.03 L 60.94 316.41 L 46.88 292.97 L 39.84 248.44 L 0.00 206.25 L 9.38 194.53 L 37.50 194.53 L 23.44 164.06 L 79.69 199.22 L 110.16 145.31 L 154.69 96.09 L 199.22 70.31 L 229.69 63.28" stroke="white" fill="transparent"/>
</svg>