<?xml version="1.0" encoding="UTF-8" standalone="no"?>
<!--Created with ndjsontosvg (https:https://github.com/thompson318/ndjsontosvg) 
	from the simplified Google quickdraw data set. key_id = 6052111341060096-->
<svg width="600" height="600"
	xmlns="http://www.w3.org/2000/svg">
	xmlns:ndjsontosvg="https://github.com/thompson318/ndjsontosvg"
	xmlns:quickdraw="https://quickdraw.withgoogle.com/data"
	xmlns:scikit-surgery="https://doi.org/10.1007/s11548-020-02180-5">

	<rect width="100%" height="100%" fill="black" />
	<path d = "M 487.50 16.41 L 433.59 0.00 L 262.50 0.00 L 192.19 11.72 L 82.03 60.94 L 30.47 119.53 L 7.03 180.47 L 0.00 311.72 L 21.09 393.75 L 91.41 532.03 L 173.44 583.59 L 225.00 595.31 L 278.91 595.31 L 332.81 581.25 L 391.41 550.78 L 442.97 513.28 L 532.03 417.19 L 588.28 330.47 L 597.66 297.66 L 597.66 255.47 L 592.97 201.56 L 541.41 126.56 L 503.91 103.12 L 445.31 91.41 L 332.81 91.41 L 330.47 79.69" stroke="white" fill="transparent"/>
	<path d = "M 318.75 225.00 L 260.16 241.41 L 241.41 274.22 L 239.06 342.19 L 281.25 396.09 L 300.00 363.28 L 300.00 290.62 L 295.31 271.88 L 283.59 262.50" stroke="white" fill="transparent"/>
	<path d = "M 140.62 328.12 L 128.91 302.34 L 128.91 189.84 L 135.94 166.41 L 189.84 126.56 L 267.19 112.50 L 346.88 79.69 L 382.03 79.69 L 403.12 96.09 L 419.53 208.59 L 447.66 278.91 L 450.00 344.53 L 435.94 367.97 L 349.22 424.22 L 300.00 445.31 L 178.12 471.09 L 89.06 475.78 L 67.97 405.47 L 67.97 349.22 L 79.69 318.75" stroke="white" fill="transparent"/>
</svg>