<?xml version="1.0" encoding="UTF-8" standalone="no"?>
<!--Created with ndjsontosvg (https:https://github.com/thompson318/ndjsontosvg) 
	from the simplified Google quickdraw data set. key_id = 5325447480999936-->
<svg width="600" height="600"
	xmlns="http://www.w3.org/2000/svg">
	xmlns:ndjsontosvg="https://github.com/thompson318/ndjsontosvg"
	xmlns:quickdraw="https://quickdraw.withgoogle.com/data"
	xmlns:scikit-surgery="https://doi.org/10.1007/s11548-020-02180-5">

	<rect width="100%" height="100%" fill="black" />
	<path d = "M 386.72 58.59 L 386.72 39.84 L 370.31 18.75 L 307.03 2.34 L 208.59 2.34 L 114.84 39.84 L 58.59 82.03 L 23.44 138.28 L 2.34 208.59 L 0.00 278.91 L 32.81 396.09 L 79.69 464.06 L 110.16 494.53 L 185.16 546.09 L 269.53 581.25 L 356.25 597.66 L 398.44 597.66 L 435.94 592.97 L 473.44 576.56 L 525.00 525.00 L 546.09 487.50 L 567.19 396.09 L 564.84 302.34 L 553.12 257.81 L 510.94 173.44 L 480.47 138.28 L 445.31 100.78 L 372.66 49.22 L 307.03 28.12 L 255.47 28.12 L 229.69 35.16 L 196.88 72.66" stroke="white" fill="transparent"/>
	<path d = "M 363.28 243.75 L 335.16 229.69 L 283.59 227.34 L 234.38 248.44 L 208.59 278.91 L 206.25 367.97 L 213.28 393.75 L 257.81 461.72 L 328.12 506.25 L 393.75 517.97 L 414.84 513.28 L 431.25 499.22 L 452.34 428.91 L 440.62 339.84 L 412.50 281.25 L 393.75 257.81 L 353.91 227.34 L 321.09 217.97 L 295.31 215.62 L 246.09 232.03 L 220.31 253.12" stroke="white" fill="transparent"/>
</svg>