<?xml version="1.0" encoding="UTF-8" standalone="no"?>
<!--Created with ndjsontosvg (https:https://github.com/thompson318/ndjsontosvg) 
	from the simplified Google quickdraw data set. key_id = 4622792429404160-->
<svg width="600" height="600"
	xmlns="http://www.w3.org/2000/svg">
	xmlns:ndjsontosvg="https://github.com/thompson318/ndjsontosvg"
	xmlns:quickdraw="https://quickdraw.withgoogle.com/data"
	xmlns:scikit-surgery="https://doi.org/10.1007/s11548-020-02180-5">

	<rect width="100%" height="100%" fill="black" />
	<path d = "M 114.84 142.97 L 138.28 103.12 L 175.78 89.06 L 196.88 58.59 L 257.81 9.38 L 360.94 0.00 L 492.19 67.97 L 522.66 110.16 L 597.66 262.50 L 597.66 407.81 L 541.41 461.72 L 506.25 485.16 L 396.09 527.34 L 164.06 529.69 L 114.84 506.25 L 82.03 478.12 L 39.84 431.25 L 16.41 377.34 L 9.38 295.31 L 0.00 274.22 L 0.00 201.56 L 16.41 161.72 L 39.84 128.91 L 60.94 119.53 L 72.66 100.78 L 91.41 93.75 L 103.12 75.00 L 131.25 58.59 L 142.97 28.12 L 210.94 23.44 L 248.44 7.03 L 295.31 2.34" stroke="white" fill="transparent"/>
	<path d = "M 234.38 248.44 L 292.97 236.72 L 325.78 243.75 L 339.84 260.16 L 356.25 314.06 L 356.25 351.56 L 337.50 370.31 L 307.03 386.72 L 264.84 386.72 L 225.00 349.22 L 213.28 325.78 L 213.28 271.88 L 255.47 220.31" stroke="white" fill="transparent"/>
	<path d = "M 428.91 164.06 L 428.91 182.81" stroke="white" fill="transparent"/>
</svg>