<?xml version="1.0" encoding="UTF-8" standalone="no"?>
<!--Created with ndjsontosvg (https:https://github.com/thompson318/ndjsontosvg) 
	from the simplified Google quickdraw data set. key_id = 4525170402263040-->
<svg width="600" height="600"
	xmlns="http://www.w3.org/2000/svg">
	xmlns:ndjsontosvg="https://github.com/thompson318/ndjsontosvg"
	xmlns:quickdraw="https://quickdraw.withgoogle.com/data"
	xmlns:scikit-surgery="https://doi.org/10.1007/s11548-020-02180-5">

	<rect width="100%" height="100%" fill="black" />
	<path d = "M 335.16 98.44 L 372.66 91.41 L 407.81 107.81 L 440.62 166.41 L 435.94 187.50 L 417.19 208.59 L 384.38 215.62 L 309.38 182.81 L 295.31 154.69 L 292.97 135.94 L 297.66 117.19 L 323.44 105.47" stroke="white" fill="transparent"/>
	<path d = "M 164.06 65.62 L 182.81 44.53 L 217.97 23.44 L 391.41 23.44 L 447.66 32.81 L 541.41 67.97 L 588.28 114.84 L 597.66 150.00 L 597.66 206.25 L 564.84 262.50 L 527.34 281.25 L 457.03 297.66 L 307.03 295.31 L 164.06 255.47 L 70.31 208.59 L 32.81 171.09 L 4.69 133.59 L 0.00 93.75 L 16.41 56.25 L 70.31 18.75 L 126.56 0.00 L 196.88 4.69 L 236.72 28.12 L 239.06 37.50" stroke="white" fill="transparent"/>
</svg>