<?xml version="1.0" encoding="UTF-8" standalone="no"?>
<!--Created with ndjsontosvg (https:https://github.com/thompson318/ndjsontosvg) 
	from the simplified Google quickdraw data set. key_id = 6722201447301120-->
<svg width="600" height="600"
	xmlns="http://www.w3.org/2000/svg">
	xmlns:ndjsontosvg="https://github.com/thompson318/ndjsontosvg"
	xmlns:quickdraw="https://quickdraw.withgoogle.com/data"
	xmlns:scikit-surgery="https://doi.org/10.1007/s11548-020-02180-5">

	<rect width="100%" height="100%" fill="black" />
	<path d = "M 239.06 16.41 L 201.56 25.78 L 138.28 67.97 L 42.19 173.44 L 11.72 239.06 L 2.34 271.88 L 0.00 377.34 L 28.12 442.97 L 53.91 473.44 L 82.03 503.91 L 145.31 550.78 L 243.75 592.97 L 339.84 597.66 L 377.34 578.91 L 410.16 548.44 L 475.78 447.66 L 496.88 396.09 L 503.91 342.19 L 510.94 199.22 L 501.56 164.06 L 473.44 105.47 L 433.59 51.56 L 393.75 9.38 L 351.56 0.00 L 276.56 0.00 L 255.47 2.34 L 250.78 14.06" stroke="white" fill="transparent"/>
	<path d = "M 314.06 142.97 L 257.81 159.38 L 236.72 171.09 L 159.38 250.78 L 126.56 321.09 L 119.53 379.69 L 121.88 419.53 L 161.72 452.34 L 203.91 468.75 L 278.91 473.44 L 309.38 468.75 L 335.16 454.69 L 372.66 414.84 L 389.06 372.66 L 400.78 210.94 L 360.94 171.09 L 318.75 147.66 L 248.44 138.28 L 234.38 154.69" stroke="white" fill="transparent"/>
</svg>