<?xml version="1.0" encoding="UTF-8" standalone="no"?>
<!--Created with ndjsontosvg (https:https://github.com/thompson318/ndjsontosvg) 
	from the simplified Google quickdraw data set. key_id = 5742778803814400-->
<svg width="600" height="600"
	xmlns="http://www.w3.org/2000/svg">
	xmlns:ndjsontosvg="https://github.com/thompson318/ndjsontosvg"
	xmlns:quickdraw="https://quickdraw.withgoogle.com/data"
	xmlns:scikit-surgery="https://doi.org/10.1007/s11548-020-02180-5">

	<rect width="100%" height="100%" fill="black" />
	<path d = "M 405.47 51.56 L 342.19 25.78 L 285.94 14.06 L 185.16 11.72 L 119.53 18.75 L 93.75 28.12 L 53.91 58.59 L 7.03 133.59 L 0.00 187.50 L 14.06 234.38 L 72.66 342.19 L 145.31 431.25 L 194.53 442.97 L 435.94 414.84 L 487.50 396.09 L 517.97 370.31 L 581.25 269.53 L 597.66 210.94 L 597.66 185.16 L 585.94 147.66 L 543.75 96.09 L 461.72 18.75 L 424.22 0.00" stroke="white" fill="transparent"/>
	<path d = "M 400.78 107.81 L 358.59 84.38 L 276.56 70.31 L 213.28 75.00 L 175.78 93.75 L 131.25 150.00 L 103.12 232.03 L 114.84 274.22 L 154.69 318.75 L 189.84 337.50 L 302.34 356.25 L 332.81 346.88 L 405.47 295.31 L 440.62 239.06 L 452.34 138.28 L 445.31 119.53 L 428.91 103.12 L 389.06 96.09" stroke="white" fill="transparent"/>
	<path d = "M 445.31 2.34 L 283.59 2.34 L 250.78 9.38" stroke="white" fill="transparent"/>
</svg>