<?xml version="1.0" encoding="UTF-8" standalone="no"?>
<!--Created with ndjsontosvg (https:https://github.com/thompson318/ndjsontosvg) 
	from the simplified Google quickdraw data set. key_id = 6215536755081216-->
<svg width="600" height="600"
	xmlns="http://www.w3.org/2000/svg">
	xmlns:ndjsontosvg="https://github.com/thompson318/ndjsontosvg"
	xmlns:quickdraw="https://quickdraw.withgoogle.com/data"
	xmlns:scikit-surgery="https://doi.org/10.1007/s11548-020-02180-5">

	<rect width="100%" height="100%" fill="black" />
	<path d = "M 351.56 96.09 L 332.81 56.25 L 290.62 16.41 L 239.06 2.34 L 175.78 7.03 L 124.22 21.09 L 70.31 46.88 L 32.81 98.44 L 7.03 161.72 L 0.00 220.31 L 11.72 339.84 L 56.25 457.03 L 100.78 513.28 L 135.94 546.09 L 217.97 588.28 L 241.41 592.97 L 295.31 597.66 L 349.22 583.59 L 400.78 543.75 L 431.25 480.47 L 438.28 398.44 L 412.50 262.50 L 396.09 175.78 L 360.94 96.09" stroke="white" fill="transparent"/>
	<path d = "M 260.16 133.59 L 239.06 124.22 L 208.59 126.56 L 180.47 138.28 L 154.69 159.38 L 128.91 208.59 L 114.84 311.72 L 133.59 360.94 L 161.72 384.38 L 213.28 393.75 L 253.12 379.69 L 288.28 346.88 L 302.34 304.69 L 302.34 257.81 L 276.56 213.28" stroke="white" fill="transparent"/>
</svg>