<?xml version="1.0" encoding="UTF-8" standalone="no"?>
<!--Created with ndjsontosvg (https:https://github.com/thompson318/ndjsontosvg) 
	from the simplified Google quickdraw data set. key_id = 6684935580549120-->
<svg width="600" height="600"
	xmlns="http://www.w3.org/2000/svg">
	xmlns:ndjsontosvg="https://github.com/thompson318/ndjsontosvg"
	xmlns:quickdraw="https://quickdraw.withgoogle.com/data"
	xmlns:scikit-surgery="https://doi.org/10.1007/s11548-020-02180-5">

	<rect width="100%" height="100%" fill="black" />
	<path d = "M 379.69 271.88 L 339.84 192.19 L 267.19 89.06 L 210.94 49.22 L 154.69 30.47 L 98.44 32.81 L 77.34 49.22 L 77.34 77.34 L 86.72 100.78 L 114.84 112.50 L 187.50 112.50 L 201.56 138.28 L 189.84 157.03 L 131.25 203.91 L 110.16 236.72 L 150.00 269.53 L 255.47 267.19 L 295.31 285.94 L 414.84 431.25" stroke="white" fill="transparent"/>
	<path d = "M 128.91 117.19 L 70.31 159.38 L 30.47 210.94 L 30.47 215.62 L 56.25 196.88 L 28.12 236.72 L 14.06 271.88 L 56.25 241.41 L 25.78 276.56 L 0.00 335.16 L 28.12 321.09 L 63.28 278.91 L 18.75 344.53 L 9.38 379.69 L 18.75 375.00 L 72.66 300.00 L 82.03 278.91 L 70.31 283.59 L 53.91 332.81 L 79.69 309.38 L 121.88 241.41 L 126.56 213.28" stroke="white" fill="transparent"/>
	<path d = "M 152.34 60.94 L 135.94 65.62 L 147.66 51.56" stroke="white" fill="transparent"/>
	<path d = "M 168.75 30.47 L 232.03 0.00 L 232.03 44.53 L 257.81 49.22 L 302.34 39.84 L 297.66 110.16 L 302.34 121.88 L 400.78 135.94 L 407.81 145.31 L 407.81 180.47 L 391.41 229.69 L 391.41 260.16 L 403.12 269.53 L 482.81 269.53 L 482.81 278.91 L 433.59 353.91 L 431.25 389.06 L 442.97 396.09 L 536.72 412.50 L 543.75 447.66 L 527.34 532.03 L 536.72 541.41 L 562.50 548.44" stroke="white" fill="transparent"/>
	<path d = "M 356.25 215.62 L 391.41 290.62 L 560.16 548.44" stroke="white" fill="transparent"/>
	<path d = "M 403.12 400.78 L 435.94 475.78 L 517.97 583.59 L 543.75 597.66" stroke="white" fill="transparent"/>
</svg>