<?xml version="1.0" encoding="UTF-8" standalone="no"?>
<!--Created with ndjsontosvg (https:https://github.com/thompson318/ndjsontosvg) 
	from the simplified Google quickdraw data set. key_id = 6039294433034240-->
<svg width="600" height="600"
	xmlns="http://www.w3.org/2000/svg">
	xmlns:ndjsontosvg="https://github.com/thompson318/ndjsontosvg"
	xmlns:quickdraw="https://quickdraw.withgoogle.com/data"
	xmlns:scikit-surgery="https://doi.org/10.1007/s11548-020-02180-5">

	<rect width="100%" height="100%" fill="black" />
	<path d = "M 229.69 126.56 L 213.28 93.75 L 117.19 0.00 L 154.69 82.03 L 126.56 58.59 L 98.44 56.25 L 161.72 121.88 L 100.78 100.78 L 58.59 93.75 L 86.72 119.53 L 150.00 152.34" stroke="white" fill="transparent"/>
	<path d = "M 142.97 152.34 L 147.66 157.03 L 105.47 182.81 L 77.34 189.84 L 32.81 164.06 L 2.34 110.16 L 4.69 166.41 L 18.75 199.22 L 35.16 213.28 L 124.22 217.97 L 196.88 201.56 L 210.94 189.84" stroke="white" fill="transparent"/>
	<path d = "M 232.03 124.22 L 253.12 103.12 L 285.94 86.72 L 309.38 86.72 L 372.66 110.16 L 407.81 89.06 L 447.66 121.88 L 440.62 133.59 L 412.50 142.97 L 356.25 145.31 L 339.84 159.38 L 271.88 192.19 L 210.94 196.88" stroke="white" fill="transparent"/>
	<path d = "M 468.75 131.25 L 546.09 154.69 L 503.91 154.69 L 501.56 159.38 L 581.25 166.41 L 546.09 171.09 L 597.66 196.88 L 592.97 206.25 L 560.16 206.25 L 571.88 246.09 L 548.44 232.03 L 550.78 250.78 L 506.25 213.28 L 435.94 178.12 L 431.25 168.75" stroke="white" fill="transparent"/>
</svg>