<?xml version="1.0" encoding="UTF-8" standalone="no"?>
<!--Created with ndjsontosvg (https:https://github.com/thompson318/ndjsontosvg) 
	from the simplified Google quickdraw data set. key_id = 5532484114579456-->
<svg width="600" height="600"
	xmlns="http://www.w3.org/2000/svg">
	xmlns:ndjsontosvg="https://github.com/thompson318/ndjsontosvg"
	xmlns:quickdraw="https://quickdraw.withgoogle.com/data"
	xmlns:scikit-surgery="https://doi.org/10.1007/s11548-020-02180-5">

	<rect width="100%" height="100%" fill="black" />
	<path d = "M 0.00 42.19 L 65.62 25.78 L 236.72 7.03 L 412.50 0.00 L 494.53 4.69 L 499.22 35.16 L 494.53 168.75 L 510.94 438.28 L 546.09 571.88 L 532.03 590.62 L 428.91 595.31 L 180.47 548.44 L 79.69 541.41 L 58.59 482.81 L 39.84 253.12 L 44.53 175.78 L 75.00 32.81 L 70.31 2.34" stroke="white" fill="transparent"/>
	<path d = "M 39.84 229.69 L 307.03 208.59 L 506.25 201.56" stroke="white" fill="transparent"/>
	<path d = "M 30.47 405.47 L 65.62 403.12 L 501.56 442.97 L 517.97 440.62" stroke="white" fill="transparent"/>
	<path d = "M 164.06 114.84 L 164.06 112.50" stroke="white" fill="transparent"/>
	<path d = "M 358.59 110.16 L 358.59 110.16" stroke="white" fill="transparent"/>
	<path d = "M 189.84 332.81 L 189.84 328.12" stroke="white" fill="transparent"/>
	<path d = "M 372.66 325.78 L 372.66 325.78" stroke="white" fill="transparent"/>
	<path d = "M 199.22 517.97 L 199.22 517.97" stroke="white" fill="transparent"/>
	<path d = "M 431.25 576.56 L 435.94 574.22" stroke="white" fill="transparent"/>
</svg>