<?xml version="1.0" encoding="UTF-8" standalone="no"?>
<!--Created with ndjsontosvg (https:https://github.com/thompson318/ndjsontosvg) 
	from the simplified Google quickdraw data set. key_id = 5846922629742592-->
<svg width="600" height="600"
	xmlns="http://www.w3.org/2000/svg">
	xmlns:ndjsontosvg="https://github.com/thompson318/ndjsontosvg"
	xmlns:quickdraw="https://quickdraw.withgoogle.com/data"
	xmlns:scikit-surgery="https://doi.org/10.1007/s11548-020-02180-5">

	<rect width="100%" height="100%" fill="black" />
	<path d = "M 65.62 44.53 L 517.97 46.88 L 510.94 49.22 L 499.22 126.56 L 452.34 478.12 L 459.38 562.50 L 475.78 595.31 L 431.25 595.31 L 269.53 541.41 L 105.47 513.28 L 9.38 506.25 L 2.34 487.50 L 0.00 360.94 L 11.72 232.03 L 67.97 75.00 L 128.91 0.00" stroke="white" fill="transparent"/>
	<path d = "M 32.81 253.12 L 173.44 250.78 L 269.53 257.81 L 365.62 274.22 L 485.16 311.72 L 517.97 330.47 L 520.31 344.53" stroke="white" fill="transparent"/>
	<path d = "M 239.06 124.22 L 243.75 121.88" stroke="white" fill="transparent"/>
	<path d = "M 241.41 421.88 L 239.06 421.88" stroke="white" fill="transparent"/>
	<path d = "M 28.12 264.84 L 86.72 260.16" stroke="white" fill="transparent"/>
	<path d = "M 60.94 255.47 L 16.41 262.50 L 0.00 271.88 L 11.72 274.22" stroke="white" fill="transparent"/>
</svg>