<?xml version="1.0" encoding="UTF-8" standalone="no"?>
<!--Created with ndjsontosvg (https:https://github.com/thompson318/ndjsontosvg) 
	from the simplified Google quickdraw data set. key_id = 6669457457938432-->
<svg width="600" height="600"
	xmlns="http://www.w3.org/2000/svg">
	xmlns:ndjsontosvg="https://github.com/thompson318/ndjsontosvg"
	xmlns:quickdraw="https://quickdraw.withgoogle.com/data"
	xmlns:scikit-surgery="https://doi.org/10.1007/s11548-020-02180-5">

	<rect width="100%" height="100%" fill="black" />
	<path d = "M 0.00 302.34 L 58.59 311.72 L 135.94 309.38 L 257.81 283.59 L 321.09 257.81 L 332.81 241.41 L 302.34 225.00 L 138.28 222.66 L 147.66 185.16 L 145.31 135.94 L 393.75 112.50 L 386.72 53.91 L 358.59 16.41 L 316.41 2.34 L 241.41 0.00 L 82.03 21.09 L 67.97 117.19 L 44.53 150.00 L 35.16 220.31 L 16.41 267.19 L 18.75 314.06" stroke="white" fill="transparent"/>
	<path d = "M 386.72 49.22 L 562.50 42.19 L 597.66 51.56 L 574.22 60.94 L 372.66 67.97 L 412.50 49.22 L 480.47 42.19 L 529.69 42.19 L 574.22 51.56 L 569.53 53.91 L 389.06 60.94" stroke="white" fill="transparent"/>
</svg>