<?xml version="1.0" encoding="UTF-8" standalone="no"?>
<!--Created with ndjsontosvg (https:https://github.com/thompson318/ndjsontosvg) 
	from the simplified Google quickdraw data set. key_id = 4955812009082880-->
<svg width="600" height="600"
	xmlns="http://www.w3.org/2000/svg">
	xmlns:ndjsontosvg="https://github.com/thompson318/ndjsontosvg"
	xmlns:quickdraw="https://quickdraw.withgoogle.com/data"
	xmlns:scikit-surgery="https://doi.org/10.1007/s11548-020-02180-5">

	<rect width="100%" height="100%" fill="black" />
	<path d = "M 112.50 65.62 L 39.84 65.62 L 16.41 72.66 L 11.72 84.38 L 53.91 117.19 L 98.44 140.62 L 178.12 145.31 L 225.00 131.25 L 194.53 98.44 L 142.97 77.34 L 75.00 70.31" stroke="white" fill="transparent"/>
	<path d = "M 18.75 77.34 L 4.69 119.53 L 0.00 262.50 L 140.62 288.28 L 194.53 283.59 L 206.25 267.19 L 222.66 105.47" stroke="white" fill="transparent"/>
	<path d = "M 248.44 103.12 L 417.19 126.56 L 482.81 114.84 L 515.62 96.09 L 517.97 79.69 L 508.59 42.19 L 475.78 2.34 L 445.31 0.00 L 281.25 63.28 L 248.44 96.09 L 248.44 180.47 L 267.19 262.50 L 377.34 239.06 L 506.25 227.34 L 585.94 206.25 L 597.66 121.88 L 583.59 79.69 L 471.09 58.59" stroke="white" fill="transparent"/>
</svg>