<?xml version="1.0" encoding="UTF-8" standalone="no"?>
<!--Created with ndjsontosvg (https:https://github.com/thompson318/ndjsontosvg) 
	from the simplified Google quickdraw data set. key_id = 4950055075184640-->
<svg width="600" height="600"
	xmlns="http://www.w3.org/2000/svg">
	xmlns:ndjsontosvg="https://github.com/thompson318/ndjsontosvg"
	xmlns:quickdraw="https://quickdraw.withgoogle.com/data"
	xmlns:scikit-surgery="https://doi.org/10.1007/s11548-020-02180-5">

	<rect width="100%" height="100%" fill="black" />
	<path d = "M 18.75 187.50 L 72.66 175.78 L 142.97 182.81 L 201.56 206.25 L 225.00 227.34 L 232.03 253.12 L 210.94 267.19 L 152.34 276.56 L 117.19 276.56 L 77.34 267.19 L 32.81 248.44 L 2.34 222.66 L 2.34 187.50 L 21.09 178.12" stroke="white" fill="transparent"/>
	<path d = "M 21.09 192.19 L 14.06 229.69 L 16.41 342.19 L 25.78 353.91 L 56.25 365.62 L 147.66 377.34 L 201.56 377.34 L 227.34 365.62 L 246.09 344.53 L 248.44 314.06 L 248.44 264.84 L 229.69 232.03" stroke="white" fill="transparent"/>
	<path d = "M 365.62 173.44 L 527.34 178.12 L 564.84 189.84 L 592.97 210.94 L 595.31 241.41 L 578.91 255.47 L 515.62 292.97 L 454.69 307.03 L 393.75 302.34 L 339.84 253.12 L 335.16 217.97 L 367.97 180.47 L 382.03 173.44" stroke="white" fill="transparent"/>
	<path d = "M 358.59 189.84 L 351.56 199.22 L 351.56 243.75 L 360.94 311.72 L 389.06 396.09 L 410.16 405.47 L 485.16 405.47 L 588.28 393.75 L 595.31 283.59 L 583.59 222.66 L 576.56 217.97" stroke="white" fill="transparent"/>
	<path d = "M 295.31 0.00 L 227.34 49.22" stroke="white" fill="transparent"/>
</svg>