<?xml version="1.0" encoding="UTF-8" standalone="no"?>
<!--Created with ndjsontosvg (https:https://github.com/thompson318/ndjsontosvg) 
	from the simplified Google quickdraw data set. key_id = 5590813125902336-->
<svg width="600" height="600"
	xmlns="http://www.w3.org/2000/svg">
	xmlns:ndjsontosvg="https://github.com/thompson318/ndjsontosvg"
	xmlns:quickdraw="https://quickdraw.withgoogle.com/data"
	xmlns:scikit-surgery="https://doi.org/10.1007/s11548-020-02180-5">

	<rect width="100%" height="100%" fill="black" />
	<path d = "M 171.09 121.88 L 164.06 246.09" stroke="white" fill="transparent"/>
	<path d = "M 182.81 103.12 L 349.22 79.69 L 414.84 91.41 L 417.19 103.12 L 389.06 145.31 L 330.47 166.41 L 278.91 166.41 L 241.41 147.66 L 178.12 140.62 L 166.41 131.25" stroke="white" fill="transparent"/>
	<path d = "M 398.44 107.81 L 407.81 267.19 L 281.25 264.84 L 210.94 246.09 L 173.44 243.75 L 159.38 234.38" stroke="white" fill="transparent"/>
	<path d = "M 145.31 32.81 L 229.69 89.06 L 257.81 119.53 L 276.56 126.56 L 267.19 128.91 L 262.50 121.88 L 271.88 133.59 L 267.19 131.25 L 377.34 2.34" stroke="white" fill="transparent"/>
	<path d = "M 506.25 49.22 L 574.22 23.44" stroke="white" fill="transparent"/>
	<path d = "M 539.06 210.94 L 597.66 187.50" stroke="white" fill="transparent"/>
	<path d = "M 0.00 208.59 L 18.75 213.28" stroke="white" fill="transparent"/>
</svg>