<?xml version="1.0" encoding="UTF-8" standalone="no"?>
<!--Created with ndjsontosvg (https:https://github.com/thompson318/ndjsontosvg) 
	from the simplified Google quickdraw data set. key_id = 6002013210935296-->
<svg width="600" height="600"
	xmlns="http://www.w3.org/2000/svg">
	xmlns:ndjsontosvg="https://github.com/thompson318/ndjsontosvg"
	xmlns:quickdraw="https://quickdraw.withgoogle.com/data"
	xmlns:scikit-surgery="https://doi.org/10.1007/s11548-020-02180-5">

	<rect width="100%" height="100%" fill="black" />
	<path d = "M 201.56 2.34 L 157.03 2.34 L 91.41 30.47 L 67.97 79.69 L 67.97 112.50 L 138.28 147.66 L 189.84 140.62 L 262.50 25.78 L 222.66 4.69 L 201.56 2.34" stroke="white" fill="transparent"/>
	<path d = "M 70.31 63.28 L 0.00 60.94 L 75.00 93.75" stroke="white" fill="transparent"/>
	<path d = "M 178.12 161.72 L 166.41 173.44 L 166.41 185.16 L 192.19 450.00 L 199.22 473.44 L 234.38 506.25 L 292.97 536.72 L 360.94 553.12 L 442.97 546.09 L 489.84 517.97 L 567.19 445.31 L 597.66 396.09 L 342.19 349.22 L 257.81 304.69 L 253.12 217.97 L 262.50 189.84 L 210.94 126.56" stroke="white" fill="transparent"/>
</svg>