<?xml version="1.0" encoding="UTF-8" standalone="no"?>
<!--Created with ndjsontosvg (https:https://github.com/thompson318/ndjsontosvg) 
	from the simplified Google quickdraw data set. key_id = 5623113746219008-->
<svg width="600" height="600"
	xmlns="http://www.w3.org/2000/svg">
	xmlns:ndjsontosvg="https://github.com/thompson318/ndjsontosvg"
	xmlns:quickdraw="https://quickdraw.withgoogle.com/data"
	xmlns:scikit-surgery="https://doi.org/10.1007/s11548-020-02180-5">

	<rect width="100%" height="100%" fill="black" />
	<path d = "M 159.38 86.72 L 152.34 79.69 L 152.34 49.22 L 168.75 25.78 L 203.91 2.34 L 246.09 2.34 L 269.53 28.12 L 276.56 72.66 L 262.50 103.12 L 208.59 166.41 L 210.94 203.91 L 257.81 217.97 L 412.50 210.94" stroke="white" fill="transparent"/>
	<path d = "M 154.69 82.03 L 135.94 84.38 L 114.84 60.94 L 135.94 86.72 L 161.72 105.47 L 128.91 114.84 L 105.47 135.94 L 145.31 124.22 L 175.78 135.94 L 135.94 203.91 L 121.88 264.84 L 121.88 309.38 L 140.62 349.22 L 168.75 377.34 L 199.22 393.75 L 257.81 405.47 L 304.69 403.12 L 337.50 393.75 L 372.66 370.31 L 405.47 332.81 L 421.88 288.28 L 424.22 241.41 L 414.84 213.28" stroke="white" fill="transparent"/>
	<path d = "M 0.00 414.84 L 46.88 403.12 L 103.12 412.50 L 124.22 403.12 L 220.31 417.19 L 257.81 412.50 L 290.62 421.88 L 314.06 410.16 L 337.50 426.56 L 370.31 424.22 L 384.38 410.16 L 419.53 421.88 L 445.31 410.16 L 539.06 396.09 L 569.53 405.47 L 597.66 400.78" stroke="white" fill="transparent"/>
	<path d = "M 182.81 75.00 L 185.16 77.34" stroke="white" fill="transparent"/>
	<path d = "M 236.72 403.12 L 257.81 457.03" stroke="white" fill="transparent"/>
	<path d = "M 283.59 403.12 L 285.94 424.22 L 318.75 471.09 L 339.84 480.47" stroke="white" fill="transparent"/>
</svg>