<?xml version="1.0" encoding="UTF-8" standalone="no"?>
<!--Created with ndjsontosvg (https:https://github.com/thompson318/ndjsontosvg) 
	from the simplified Google quickdraw data set. key_id = 4626568120893440-->
<svg width="600" height="600"
	xmlns="http://www.w3.org/2000/svg">
	xmlns:ndjsontosvg="https://github.com/thompson318/ndjsontosvg"
	xmlns:quickdraw="https://quickdraw.withgoogle.com/data"
	xmlns:scikit-surgery="https://doi.org/10.1007/s11548-020-02180-5">

	<rect width="100%" height="100%" fill="black" />
	<path d = "M 450.00 0.00 L 419.53 23.44 L 414.84 58.59 L 426.56 91.41 L 457.03 105.47 L 496.88 100.78 L 510.94 75.00 L 508.59 56.25 L 492.19 14.06 L 466.41 2.34" stroke="white" fill="transparent"/>
	<path d = "M 464.06 21.09 L 438.28 32.81 L 433.59 70.31 L 442.97 79.69 L 468.75 79.69 L 485.16 65.62 L 485.16 46.88 L 478.12 32.81 L 459.38 23.44" stroke="white" fill="transparent"/>
	<path d = "M 440.62 60.94 L 349.22 89.06" stroke="white" fill="transparent"/>
	<path d = "M 332.81 11.72 L 292.97 39.84 L 288.28 82.03 L 314.06 112.50 L 344.53 126.56 L 363.28 128.91 L 382.03 114.84 L 391.41 91.41 L 389.06 75.00 L 344.53 37.50 L 318.75 28.12" stroke="white" fill="transparent"/>
	<path d = "M 344.53 46.88 L 325.78 72.66" stroke="white" fill="transparent"/>
	<path d = "M 417.19 7.03 L 210.94 100.78 L 262.50 107.81 L 597.66 107.81 L 581.25 100.78 L 384.38 98.44 L 0.00 154.69 L 114.84 147.66 L 276.56 147.66" stroke="white" fill="transparent"/>
</svg>