<?xml version="1.0" encoding="UTF-8" standalone="no"?>
<!--Created with ndjsontosvg (https:https://github.com/thompson318/ndjsontosvg) 
	from the simplified Google quickdraw data set. key_id = 6714584276664320-->
<svg width="600" height="600"
	xmlns="http://www.w3.org/2000/svg">
	xmlns:ndjsontosvg="https://github.com/thompson318/ndjsontosvg"
	xmlns:quickdraw="https://quickdraw.withgoogle.com/data"
	xmlns:scikit-surgery="https://doi.org/10.1007/s11548-020-02180-5">

	<rect width="100%" height="100%" fill="black" />
	<path d = "M 468.75 79.69 L 431.25 82.03 L 398.44 124.22 L 370.31 229.69 L 372.66 295.31 L 386.72 330.47 L 424.22 358.59 L 454.69 372.66 L 532.03 377.34 L 560.16 351.56 L 592.97 290.62 L 595.31 178.12 L 567.19 124.22 L 532.03 91.41 L 496.88 75.00 L 450.00 84.38" stroke="white" fill="transparent"/>
	<path d = "M 485.16 234.38 L 475.78 234.38" stroke="white" fill="transparent"/>
	<path d = "M 372.66 229.69 L 346.88 229.69 L 171.09 154.69 L 98.44 135.94" stroke="white" fill="transparent"/>
	<path d = "M 161.72 154.69 L 180.47 138.28 L 199.22 100.78 L 194.53 72.66 L 178.12 49.22 L 131.25 9.38 L 46.88 0.00 L 32.81 16.41 L 0.00 100.78 L 2.34 138.28 L 16.41 166.41 L 49.22 187.50 L 112.50 199.22 L 147.66 182.81 L 159.38 152.34" stroke="white" fill="transparent"/>
</svg>