<?xml version="1.0" encoding="UTF-8" standalone="no"?>
<!--Created with ndjsontosvg (https:https://github.com/thompson318/ndjsontosvg) 
	from the simplified Google quickdraw data set. key_id = 6705894781878272-->
<svg width="600" height="600"
	xmlns="http://www.w3.org/2000/svg">
	xmlns:ndjsontosvg="https://github.com/thompson318/ndjsontosvg"
	xmlns:quickdraw="https://quickdraw.withgoogle.com/data"
	xmlns:scikit-surgery="https://doi.org/10.1007/s11548-020-02180-5">

	<rect width="100%" height="100%" fill="black" />
	<path d = "M 28.12 124.22 L 307.03 105.47 L 534.38 105.47" stroke="white" fill="transparent"/>
	<path d = "M 79.69 2.34 L 65.62 2.34 L 42.19 18.75 L 4.69 67.97 L 4.69 140.62 L 23.44 164.06 L 44.53 173.44 L 75.00 171.09 L 107.81 157.03 L 131.25 142.97 L 159.38 107.81 L 173.44 82.03 L 173.44 60.94 L 164.06 32.81 L 145.31 16.41" stroke="white" fill="transparent"/>
	<path d = "M 142.97 14.06 L 138.28 11.72" stroke="white" fill="transparent"/>
	<path d = "M 135.94 11.72 L 126.56 7.03" stroke="white" fill="transparent"/>
	<path d = "M 482.81 9.38 L 515.62 0.00 L 541.41 4.69 L 578.91 25.78 L 592.97 44.53 L 597.66 82.03 L 590.62 100.78 L 574.22 131.25 L 553.12 147.66 L 522.66 161.72 L 496.88 161.72 L 475.78 142.97 L 450.00 103.12 L 445.31 70.31 L 450.00 44.53 L 471.09 14.06 L 501.56 0.00" stroke="white" fill="transparent"/>
</svg>