<?xml version="1.0" encoding="UTF-8" standalone="no"?>
<!--Created with ndjsontosvg (https:https://github.com/thompson318/ndjsontosvg) 
	from the simplified Google quickdraw data set. key_id = 5920495759261696-->
<svg width="600" height="600"
	xmlns="http://www.w3.org/2000/svg">
	xmlns:ndjsontosvg="https://github.com/thompson318/ndjsontosvg"
	xmlns:quickdraw="https://quickdraw.withgoogle.com/data"
	xmlns:scikit-surgery="https://doi.org/10.1007/s11548-020-02180-5">

	<rect width="100%" height="100%" fill="black" />
	<path d = "M 107.81 107.81 L 180.47 49.22 L 243.75 11.72 L 271.88 2.34 L 335.16 0.00 L 363.28 18.75 L 400.78 67.97 L 410.16 154.69 L 424.22 180.47 L 459.38 201.56 L 496.88 206.25 L 527.34 194.53 L 550.78 175.78 L 578.91 121.88 L 588.28 75.00 L 597.66 215.62 L 581.25 262.50 L 494.53 278.91 L 438.28 278.91 L 403.12 248.44 L 386.72 208.59 L 372.66 192.19 L 344.53 255.47 L 325.78 260.16 L 274.22 248.44 L 232.03 262.50 L 255.47 318.75 L 260.16 335.16 L 253.12 339.84 L 82.03 356.25 L 77.34 346.88 L 82.03 337.50 L 110.16 321.09 L 128.91 290.62 L 114.84 302.34 L 35.16 314.06 L 16.41 325.78 L 16.41 285.94 L 37.50 278.91 L 0.00 194.53" stroke="white" fill="transparent"/>
</svg>