<?xml version="1.0" encoding="UTF-8" standalone="no"?>
<!--Created with ndjsontosvg (https:https://github.com/thompson318/ndjsontosvg) 
	from the simplified Google quickdraw data set. key_id = 5900888893816832-->
<svg width="600" height="600"
	xmlns="http://www.w3.org/2000/svg">
	xmlns:ndjsontosvg="https://github.com/thompson318/ndjsontosvg"
	xmlns:quickdraw="https://quickdraw.withgoogle.com/data"
	xmlns:scikit-surgery="https://doi.org/10.1007/s11548-020-02180-5">

	<rect width="100%" height="100%" fill="black" />
	<path d = "M 168.75 217.97 L 206.25 318.75 L 225.00 337.50" stroke="white" fill="transparent"/>
	<path d = "M 159.38 173.44 L 159.38 257.81 L 250.78 353.91 L 321.09 337.50 L 243.75 253.12 L 220.31 166.41 L 229.69 140.62" stroke="white" fill="transparent"/>
	<path d = "M 232.03 145.31 L 222.66 128.91 L 225.00 82.03 L 281.25 14.06 L 309.38 2.34 L 360.94 2.34 L 391.41 16.41 L 407.81 39.84 L 410.16 67.97 L 405.47 79.69 L 351.56 133.59 L 290.62 166.41 L 241.41 171.09" stroke="white" fill="transparent"/>
	<path d = "M 121.88 39.84 L 84.38 39.84 L 39.84 56.25 L 7.03 91.41 L 2.34 135.94 L 18.75 164.06 L 70.31 203.91 L 107.81 210.94 L 159.38 208.59" stroke="white" fill="transparent"/>
	<path d = "M 98.44 39.84 L 147.66 84.38 L 152.34 187.50" stroke="white" fill="transparent"/>
	<path d = "M 133.59 82.03 L 154.69 65.62 L 187.50 58.59 L 208.59 65.62" stroke="white" fill="transparent"/>
	<path d = "M 377.34 114.84 L 417.19 133.59 L 459.38 131.25 L 510.94 119.53 L 569.53 91.41 L 592.97 164.06 L 597.66 196.88 L 592.97 208.59 L 555.47 229.69 L 459.38 260.16 L 351.56 269.53 L 285.94 262.50" stroke="white" fill="transparent"/>
</svg>