<?xml version="1.0" encoding="UTF-8" standalone="no"?>
<!--Created with ndjsontosvg (https:https://github.com/thompson318/ndjsontosvg) 
	from the simplified Google quickdraw data set. key_id = 6202043314208768-->
<svg width="600" height="600"
	xmlns="http://www.w3.org/2000/svg">
	xmlns:ndjsontosvg="https://github.com/thompson318/ndjsontosvg"
	xmlns:quickdraw="https://quickdraw.withgoogle.com/data"
	xmlns:scikit-surgery="https://doi.org/10.1007/s11548-020-02180-5">

	<rect width="100%" height="100%" fill="black" />
	<path d = "M 236.72 56.25 L 309.38 11.72 L 356.25 0.00 L 405.47 7.03 L 428.91 39.84 L 421.88 75.00 L 386.72 117.19 L 337.50 133.59 L 264.84 135.94" stroke="white" fill="transparent"/>
	<path d = "M 236.72 56.25 L 154.69 100.78 L 138.28 161.72 L 107.81 206.25 L 75.00 239.06 L 14.06 262.50 L 0.00 278.91 L 18.75 285.94 L 42.19 283.59 L 194.53 185.16 L 220.31 229.69 L 178.12 328.12 L 182.81 335.16 L 222.66 339.84 L 248.44 330.47 L 276.56 309.38 L 307.03 257.81 L 386.72 274.22 L 433.59 274.22 L 438.28 302.34 L 424.22 353.91 L 445.31 358.59 L 499.22 353.91 L 553.12 316.41 L 595.31 248.44 L 515.62 199.22 L 335.16 135.94" stroke="white" fill="transparent"/>
	<path d = "M 400.78 276.56 L 382.03 302.34 L 379.69 323.44 L 393.75 330.47 L 431.25 318.75" stroke="white" fill="transparent"/>
</svg>