<?xml version="1.0" encoding="UTF-8" standalone="no"?>
<!--Created with ndjsontosvg (https:https://github.com/thompson318/ndjsontosvg) 
	from the simplified Google quickdraw data set. key_id = 6008775066517504-->
<svg width="600" height="600"
	xmlns="http://www.w3.org/2000/svg">
	xmlns:ndjsontosvg="https://github.com/thompson318/ndjsontosvg"
	xmlns:quickdraw="https://quickdraw.withgoogle.com/data"
	xmlns:scikit-surgery="https://doi.org/10.1007/s11548-020-02180-5">

	<rect width="100%" height="100%" fill="black" />
	<path d = "M 370.31 18.75 L 351.56 2.34 L 321.09 4.69 L 318.75 16.41 L 339.84 46.88 L 318.75 58.59 L 311.72 89.06 L 311.72 121.88 L 321.09 131.25 L 353.91 135.94 L 365.62 114.84" stroke="white" fill="transparent"/>
	<path d = "M 372.66 11.72 L 393.75 0.00 L 435.94 0.00 L 454.69 9.38 L 468.75 42.19 L 527.34 89.06 L 592.97 168.75 L 597.66 182.81 L 578.91 185.16 L 506.25 164.06 L 459.38 77.34 L 442.97 65.62 L 428.91 65.62 L 407.81 114.84 L 358.59 128.91" stroke="white" fill="transparent"/>
	<path d = "M 403.12 21.09 L 403.12 37.50 L 414.84 32.81 L 400.78 25.78" stroke="white" fill="transparent"/>
	<path d = "M 501.56 63.28 L 492.19 79.69" stroke="white" fill="transparent"/>
	<path d = "M 506.25 82.03 L 496.88 96.09" stroke="white" fill="transparent"/>
	<path d = "M 517.97 96.09 L 515.62 105.47" stroke="white" fill="transparent"/>
	<path d = "M 527.34 110.16 L 522.66 121.88" stroke="white" fill="transparent"/>
	<path d = "M 353.91 126.56 L 332.81 142.97 L 328.12 161.72 L 346.88 262.50 L 307.03 260.16 L 304.69 196.88 L 278.91 178.12 L 271.88 269.53 L 262.50 276.56 L 239.06 269.53 L 246.09 164.06 L 213.28 196.88 L 157.03 210.94 L 100.78 208.59 L 67.97 182.81 L 42.19 208.59 L 23.44 255.47 L 9.38 255.47 L 0.00 243.75 L 2.34 225.00 L 18.75 199.22" stroke="white" fill="transparent"/>
</svg>