<?xml version="1.0" encoding="UTF-8" standalone="no"?>
<!--Created with ndjsontosvg (https:https://github.com/thompson318/ndjsontosvg) 
	from the simplified Google quickdraw data set. key_id = 6447701652668416-->
<svg width="600" height="600"
	xmlns="http://www.w3.org/2000/svg">
	xmlns:ndjsontosvg="https://github.com/thompson318/ndjsontosvg"
	xmlns:quickdraw="https://quickdraw.withgoogle.com/data"
	xmlns:scikit-surgery="https://doi.org/10.1007/s11548-020-02180-5">

	<rect width="100%" height="100%" fill="black" />
	<path d = "M 292.97 21.09 L 248.44 28.12 L 201.56 44.53 L 173.44 100.78 L 168.75 145.31 L 175.78 171.09 L 217.97 232.03 L 236.72 248.44 L 271.88 262.50 L 309.38 264.84 L 353.91 246.09 L 407.81 203.91 L 419.53 159.38 L 419.53 98.44 L 410.16 65.62 L 325.78 39.84 L 281.25 7.03 L 255.47 0.00" stroke="white" fill="transparent"/>
	<path d = "M 217.97 25.78 L 157.03 28.12 L 114.84 44.53 L 96.09 56.25 L 58.59 110.16 L 7.03 281.25 L 2.34 435.94" stroke="white" fill="transparent"/>
	<path d = "M 396.09 44.53 L 424.22 28.12 L 450.00 25.78 L 532.03 114.84 L 550.78 147.66 L 574.22 217.97 L 597.66 377.34 L 564.84 379.69 L 543.75 367.97 L 520.31 309.38 L 501.56 217.97 L 438.28 49.22" stroke="white" fill="transparent"/>
	<path d = "M 0.00 400.78 L 46.88 407.81 L 72.66 396.09 L 89.06 375.00 L 128.91 290.62 L 124.22 154.69 L 157.03 21.09" stroke="white" fill="transparent"/>
	<path d = "M 339.84 243.75 L 332.81 288.28 L 332.81 400.78 L 342.19 452.34 L 358.59 482.81 L 396.09 513.28 L 433.59 527.34 L 471.09 532.03 L 522.66 527.34" stroke="white" fill="transparent"/>
</svg>