<?xml version="1.0" encoding="UTF-8" standalone="no"?>
<!--Created with ndjsontosvg (https:https://github.com/thompson318/ndjsontosvg) 
	from the simplified Google quickdraw data set. key_id = 6353610877173760-->
<svg width="600" height="600"
	xmlns="http://www.w3.org/2000/svg">
	xmlns:ndjsontosvg="https://github.com/thompson318/ndjsontosvg"
	xmlns:quickdraw="https://quickdraw.withgoogle.com/data"
	xmlns:scikit-surgery="https://doi.org/10.1007/s11548-020-02180-5">

	<rect width="100%" height="100%" fill="black" />
	<path d = "M 398.44 75.00 L 311.72 79.69 L 307.03 206.25 L 323.44 257.81 L 337.50 274.22 L 360.94 285.94 L 400.78 295.31 L 461.72 292.97 L 492.19 248.44 L 522.66 142.97" stroke="white" fill="transparent"/>
	<path d = "M 396.09 75.00 L 480.47 75.00 L 520.31 128.91 L 513.28 161.72" stroke="white" fill="transparent"/>
	<path d = "M 506.25 241.41 L 515.62 304.69 L 532.03 332.81 L 569.53 337.50 L 585.94 328.12 L 595.31 311.72 L 597.66 267.19 L 590.62 239.06 L 567.19 210.94 L 525.00 187.50" stroke="white" fill="transparent"/>
	<path d = "M 428.91 60.94 L 426.56 30.47 L 398.44 11.72 L 232.03 0.00 L 217.97 35.16 L 213.28 77.34 L 210.94 119.53 L 220.31 128.91 L 257.81 147.66 L 309.38 154.69 L 332.81 152.34 L 360.94 133.59" stroke="white" fill="transparent"/>
	<path d = "M 285.94 203.91 L 126.56 175.78 L 42.19 175.78 L 7.03 196.88 L 2.34 210.94 L 0.00 278.91 L 11.72 321.09 L 39.84 339.84 L 79.69 349.22 L 189.84 344.53 L 302.34 304.69 L 314.06 285.94 L 325.78 248.44" stroke="white" fill="transparent"/>
	<path d = "M 262.50 328.12 L 276.56 421.88" stroke="white" fill="transparent"/>
	<path d = "M 63.28 349.22 L 56.25 433.59" stroke="white" fill="transparent"/>
</svg>