<?xml version="1.0" encoding="UTF-8" standalone="no"?>
<!--Created with ndjsontosvg (https:https://github.com/thompson318/ndjsontosvg) 
	from the simplified Google quickdraw data set. key_id = 4641411112632320-->
<svg width="600" height="600"
	xmlns="http://www.w3.org/2000/svg">
	xmlns:ndjsontosvg="https://github.com/thompson318/ndjsontosvg"
	xmlns:quickdraw="https://quickdraw.withgoogle.com/data"
	xmlns:scikit-surgery="https://doi.org/10.1007/s11548-020-02180-5">

	<rect width="100%" height="100%" fill="black" />
	<path d = "M 150.00 63.28 L 100.78 32.81 L 67.97 32.81 L 37.50 63.28 L 7.03 128.91 L 0.00 253.12 L 30.47 325.78 L 42.19 337.50 L 65.62 337.50 L 82.03 309.38 L 96.09 241.41" stroke="white" fill="transparent"/>
	<path d = "M 311.72 53.91 L 344.53 51.56 L 393.75 82.03 L 433.59 126.56 L 459.38 178.12 L 459.38 255.47 L 431.25 295.31 L 398.44 328.12 L 367.97 325.78 L 351.56 241.41" stroke="white" fill="transparent"/>
	<path d = "M 199.22 250.78 L 203.91 346.88 L 236.72 585.94 L 253.12 592.97 L 267.19 588.28 L 281.25 543.75 L 278.91 426.56 L 234.38 239.06" stroke="white" fill="transparent"/>
	<path d = "M 187.50 243.75 L 178.12 339.84 L 150.00 382.03 L 60.94 445.31 L 25.78 459.38 L 2.34 457.03 L 4.69 447.66 L 112.50 330.47 L 138.28 274.22 L 152.34 220.31" stroke="white" fill="transparent"/>
	<path d = "M 269.53 225.00 L 262.50 236.72 L 267.19 264.84 L 288.28 309.38 L 325.78 353.91 L 379.69 391.41 L 440.62 405.47 L 435.94 386.72 L 375.00 325.78 L 325.78 264.84 L 300.00 215.62 L 290.62 166.41" stroke="white" fill="transparent"/>
	<path d = "M 173.44 63.28 L 182.81 53.91 L 264.84 37.50 L 318.75 42.19" stroke="white" fill="transparent"/>
	<path d = "M 171.09 150.00 L 159.38 147.66 L 157.03 166.41 L 171.09 168.75 L 175.78 147.66 L 161.72 135.94" stroke="white" fill="transparent"/>
	<path d = "M 297.66 119.53 L 290.62 157.03 L 300.00 128.91 L 300.00 121.88 L 290.62 124.22" stroke="white" fill="transparent"/>
	<path d = "M 243.75 145.31 L 229.69 157.03 L 232.03 168.75 L 250.78 171.09 L 262.50 154.69 L 260.16 128.91 L 248.44 135.94" stroke="white" fill="transparent"/>
	<path d = "M 269.53 560.16 L 257.81 562.50 L 246.09 578.91 L 248.44 597.66 L 264.84 588.28 L 274.22 574.22 L 281.25 543.75 L 253.12 543.75 L 248.44 550.78 L 262.50 553.12 L 269.53 539.06" stroke="white" fill="transparent"/>
	<path d = "M 262.50 32.81 L 302.34 18.75 L 382.03 4.69 L 496.88 4.69" stroke="white" fill="transparent"/>
	<path d = "M 428.91 335.16 L 428.91 335.16" stroke="white" fill="transparent"/>
	<path d = "M 318.75 419.53 L 328.12 496.88 L 339.84 515.62 L 351.56 417.19 L 433.59 426.56 L 517.97 421.88" stroke="white" fill="transparent"/>
</svg>