<?xml version="1.0" encoding="UTF-8" standalone="no"?>
<!--Created with ndjsontosvg (https:https://github.com/thompson318/ndjsontosvg) 
	from the simplified Google quickdraw data set. key_id = 6223163006386176-->
<svg width="600" height="600"
	xmlns="http://www.w3.org/2000/svg">
	xmlns:ndjsontosvg="https://github.com/thompson318/ndjsontosvg"
	xmlns:quickdraw="https://quickdraw.withgoogle.com/data"
	xmlns:scikit-surgery="https://doi.org/10.1007/s11548-020-02180-5">

	<rect width="100%" height="100%" fill="black" />
	<path d = "M 222.66 396.09 L 210.94 410.16 L 208.59 431.25 L 210.94 571.88 L 217.97 595.31 L 302.34 595.31 L 278.91 384.38 L 407.81 386.72 L 375.00 562.50 L 424.22 581.25 L 459.38 576.56 L 478.12 396.09 L 461.72 367.97 L 487.50 377.34 L 508.59 419.53 L 532.03 375.00 L 522.66 349.22 L 525.00 307.03 L 513.28 269.53 L 482.81 215.62 L 403.12 157.03 L 351.56 147.66 L 229.69 157.03 L 173.44 199.22 L 154.69 309.38 L 157.03 339.84 L 178.12 389.06 L 201.56 412.50 L 234.38 421.88" stroke="white" fill="transparent"/>
	<path d = "M 225.00 175.78 L 210.94 67.97 L 178.12 4.69 L 103.12 0.00 L 79.69 4.69 L 60.94 18.75 L 16.41 79.69 L 2.34 105.47 L 0.00 192.19 L 28.12 253.12 L 79.69 311.72 L 159.38 302.34" stroke="white" fill="transparent"/>
	<path d = "M 49.22 225.00 L 14.06 260.16 L 0.00 290.62 L 0.00 349.22 L 30.47 466.41 L 93.75 309.38" stroke="white" fill="transparent"/>
</svg>