<?xml version="1.0" encoding="UTF-8" standalone="no"?>
<!--Created with ndjsontosvg (https:https://github.com/thompson318/ndjsontosvg) 
	from the simplified Google quickdraw data set. key_id = 6548274754355200-->
<svg width="600" height="600"
	xmlns="http://www.w3.org/2000/svg">
	xmlns:ndjsontosvg="https://github.com/thompson318/ndjsontosvg"
	xmlns:quickdraw="https://quickdraw.withgoogle.com/data"
	xmlns:scikit-surgery="https://doi.org/10.1007/s11548-020-02180-5">

	<rect width="100%" height="100%" fill="black" />
	<path d = "M 0.00 58.59 L 72.66 206.25" stroke="white" fill="transparent"/>
	<path d = "M 9.38 56.25 L 53.91 44.53 L 297.66 42.19 L 550.78 0.00 L 576.56 53.91 L 597.66 152.34 L 597.66 187.50 L 583.59 194.53 L 192.19 199.22 L 100.78 208.59 L 100.78 203.91" stroke="white" fill="transparent"/>
	<path d = "M 295.31 42.19 L 309.38 103.12 L 309.38 194.53" stroke="white" fill="transparent"/>
	<path d = "M 339.84 56.25 L 339.84 159.38 L 346.88 84.38 L 314.06 171.09 L 311.72 67.97 L 337.50 152.34 L 351.56 152.34 L 400.78 107.81 L 412.50 121.88 L 412.50 164.06 L 447.66 49.22 L 447.66 145.31 L 480.47 72.66 L 496.88 161.72 L 534.38 58.59 L 550.78 145.31 L 562.50 65.62 L 564.84 142.97 L 576.56 194.53 L 578.91 180.47 L 578.91 128.91 L 567.19 77.34 L 553.12 133.59" stroke="white" fill="transparent"/>
</svg>