<?xml version="1.0" encoding="UTF-8" standalone="no"?>
<!--Created with ndjsontosvg (https:https://github.com/thompson318/ndjsontosvg) 
	from the simplified Google quickdraw data set. key_id = 6283464380776448-->
<svg width="600" height="600"
	xmlns="http://www.w3.org/2000/svg">
	xmlns:ndjsontosvg="https://github.com/thompson318/ndjsontosvg"
	xmlns:quickdraw="https://quickdraw.withgoogle.com/data"
	xmlns:scikit-surgery="https://doi.org/10.1007/s11548-020-02180-5">

	<rect width="100%" height="100%" fill="black" />
	<path d = "M 0.00 342.19 L 51.56 372.66 L 208.59 377.34 L 421.88 318.75 L 574.22 255.47 L 595.31 217.97 L 597.66 178.12 L 576.56 152.34 L 546.09 131.25 L 464.06 105.47 L 356.25 103.12 L 285.94 107.81 L 192.19 142.97 L 157.03 164.06 L 46.88 300.00 L 37.50 356.25 L 51.56 370.31" stroke="white" fill="transparent"/>
	<path d = "M 215.62 126.56 L 199.22 208.59 L 196.88 260.16 L 210.94 316.41 L 236.72 370.31 L 267.19 400.78 L 290.62 398.44 L 318.75 358.59 L 339.84 302.34 L 346.88 248.44 L 332.81 189.84 L 311.72 157.03 L 285.94 138.28 L 229.69 164.06 L 215.62 178.12 L 185.16 239.06 L 166.41 332.81" stroke="white" fill="transparent"/>
	<path d = "M 18.75 105.47 L 67.97 185.16 L 86.72 201.56 L 98.44 196.88" stroke="white" fill="transparent"/>
	<path d = "M 150.00 35.16 L 189.84 105.47 L 215.62 82.03" stroke="white" fill="transparent"/>
	<path d = "M 276.56 0.00 L 297.66 51.56" stroke="white" fill="transparent"/>
</svg>