<?xml version="1.0" encoding="UTF-8" standalone="no"?>
<!--Created with ndjsontosvg (https:https://github.com/thompson318/ndjsontosvg) 
	from the simplified Google quickdraw data set. key_id = 4817399188553728-->
<svg width="600" height="600"
	xmlns="http://www.w3.org/2000/svg">
	xmlns:ndjsontosvg="https://github.com/thompson318/ndjsontosvg"
	xmlns:quickdraw="https://quickdraw.withgoogle.com/data"
	xmlns:scikit-surgery="https://doi.org/10.1007/s11548-020-02180-5">

	<rect width="100%" height="100%" fill="black" />
	<path d = "M 2.34 119.53 L 35.16 89.06 L 124.22 39.84 L 217.97 11.72 L 311.72 0.00 L 400.78 7.03 L 478.12 30.47 L 569.53 91.41 L 595.31 121.88 L 597.66 145.31 L 588.28 185.16 L 562.50 213.28 L 454.69 283.59 L 328.12 318.75 L 236.72 323.44 L 119.53 300.00 L 63.28 269.53 L 4.69 161.72 L 0.00 126.56" stroke="white" fill="transparent"/>
	<path d = "M 328.12 63.28 L 260.16 60.94 L 232.03 67.97 L 196.88 98.44 L 178.12 126.56 L 180.47 178.12 L 201.56 227.34 L 229.69 255.47 L 278.91 267.19 L 360.94 262.50 L 405.47 248.44 L 433.59 217.97 L 440.62 168.75 L 428.91 133.59 L 396.09 93.75 L 346.88 75.00 L 269.53 60.94" stroke="white" fill="transparent"/>
	<path d = "M 330.47 124.22 L 295.31 107.81 L 260.16 110.16 L 241.41 128.91 L 234.38 171.09 L 269.53 210.94 L 307.03 222.66 L 332.81 220.31 L 358.59 203.91 L 365.62 175.78 L 363.28 159.38 L 346.88 138.28 L 323.44 119.53 L 292.97 117.19 L 271.88 128.91 L 262.50 147.66" stroke="white" fill="transparent"/>
</svg>