<?xml version="1.0" encoding="UTF-8" standalone="no"?>
<!--Created with ndjsontosvg (https:https://github.com/thompson318/ndjsontosvg) 
	from the simplified Google quickdraw data set. key_id = 6232109121273856-->
<svg width="600" height="600"
	xmlns="http://www.w3.org/2000/svg">
	xmlns:ndjsontosvg="https://github.com/thompson318/ndjsontosvg"
	xmlns:quickdraw="https://quickdraw.withgoogle.com/data"
	xmlns:scikit-surgery="https://doi.org/10.1007/s11548-020-02180-5">

	<rect width="100%" height="100%" fill="black" />
	<path d = "M 0.00 30.47 L 114.84 126.56 L 119.53 142.97 L 105.47 208.59 L 105.47 232.03 L 114.84 243.75 L 152.34 255.47 L 255.47 255.47 L 269.53 225.00 L 274.22 180.47 L 267.19 140.62 L 246.09 124.22 L 119.53 121.88" stroke="white" fill="transparent"/>
	<path d = "M 262.50 180.47 L 356.25 168.75" stroke="white" fill="transparent"/>
	<path d = "M 379.69 107.81 L 351.56 227.34 L 358.59 246.09 L 391.41 257.81 L 424.22 255.47 L 475.78 236.72 L 515.62 213.28 L 532.03 192.19 L 536.72 150.00 L 532.03 133.59 L 513.28 114.84 L 445.31 107.81 L 353.91 128.91" stroke="white" fill="transparent"/>
	<path d = "M 539.06 138.28 L 557.81 82.03 L 597.66 0.00" stroke="white" fill="transparent"/>
</svg>