<?xml version="1.0" encoding="UTF-8" standalone="no"?>
<!--Created with ndjsontosvg (https:https://github.com/thompson318/ndjsontosvg) 
	from the simplified Google quickdraw data set. key_id = 4674677928624128-->
<svg width="600" height="600"
	xmlns="http://www.w3.org/2000/svg">
	xmlns:ndjsontosvg="https://github.com/thompson318/ndjsontosvg"
	xmlns:quickdraw="https://quickdraw.withgoogle.com/data"
	xmlns:scikit-surgery="https://doi.org/10.1007/s11548-020-02180-5">

	<rect width="100%" height="100%" fill="black" />
	<path d = "M 53.91 7.03 L 4.69 58.59 L 0.00 206.25 L 35.16 253.12 L 42.19 260.16 L 142.97 276.56 L 187.50 262.50 L 229.69 203.91 L 227.34 180.47 L 215.62 157.03 L 58.59 11.72" stroke="white" fill="transparent"/>
	<path d = "M 213.28 171.09 L 278.91 166.41" stroke="white" fill="transparent"/>
	<path d = "M 367.97 2.34 L 358.59 7.03 L 328.12 56.25 L 278.91 171.09 L 281.25 206.25 L 292.97 227.34 L 349.22 269.53 L 370.31 274.22 L 391.41 267.19 L 485.16 203.91 L 508.59 171.09 L 464.06 70.31 L 396.09 16.41 L 353.91 7.03 L 363.28 0.00" stroke="white" fill="transparent"/>
	<path d = "M 520.31 154.69 L 541.41 98.44 L 597.66 7.03" stroke="white" fill="transparent"/>
</svg>