<?xml version="1.0" encoding="UTF-8" standalone="no"?>
<!--Created with ndjsontosvg (https:https://github.com/thompson318/ndjsontosvg) 
	from the simplified Google quickdraw data set. key_id = 4764924003745792-->
<svg width="600" height="600"
	xmlns="http://www.w3.org/2000/svg">
	xmlns:ndjsontosvg="https://github.com/thompson318/ndjsontosvg"
	xmlns:quickdraw="https://quickdraw.withgoogle.com/data"
	xmlns:scikit-surgery="https://doi.org/10.1007/s11548-020-02180-5">

	<rect width="100%" height="100%" fill="black" />
	<path d = "M 35.16 131.25 L 9.38 11.72 L 28.12 2.34 L 67.97 0.00 L 84.38 7.03 L 168.75 77.34 L 173.44 96.09 L 166.41 114.84 L 124.22 157.03 L 89.06 166.41 L 63.28 166.41 L 11.72 152.34 L 0.00 140.62 L 2.34 124.22" stroke="white" fill="transparent"/>
	<path d = "M 161.72 93.75 L 253.12 107.81" stroke="white" fill="transparent"/>
	<path d = "M 257.81 135.94 L 250.78 128.91 L 250.78 86.72 L 269.53 56.25 L 290.62 42.19 L 309.38 44.53 L 353.91 110.16 L 342.19 171.09 L 328.12 185.16 L 271.88 157.03 L 257.81 138.28 L 257.81 114.84" stroke="white" fill="transparent"/>
	<path d = "M 367.97 82.03 L 478.12 58.59 L 590.62 49.22 L 597.66 147.66" stroke="white" fill="transparent"/>
</svg>