<?xml version="1.0" encoding="UTF-8" standalone="no"?>
<!--Created with ndjsontosvg (https:https://github.com/thompson318/ndjsontosvg) 
	from the simplified Google quickdraw data set. key_id = 5771514416726016-->
<svg width="600" height="600"
	xmlns="http://www.w3.org/2000/svg">
	xmlns:ndjsontosvg="https://github.com/thompson318/ndjsontosvg"
	xmlns:quickdraw="https://quickdraw.withgoogle.com/data"
	xmlns:scikit-surgery="https://doi.org/10.1007/s11548-020-02180-5">

	<rect width="100%" height="100%" fill="black" />
	<path d = "M 82.03 49.22 L 70.31 46.88 L 37.50 70.31 L 7.03 128.91 L 0.00 199.22 L 7.03 222.66 L 37.50 255.47 L 79.69 274.22 L 105.47 274.22 L 154.69 255.47 L 194.53 210.94 L 210.94 140.62 L 210.94 119.53 L 201.56 98.44 L 168.75 60.94 L 110.16 35.16 L 82.03 35.16" stroke="white" fill="transparent"/>
	<path d = "M 208.59 161.72 L 264.84 159.38" stroke="white" fill="transparent"/>
	<path d = "M 363.28 98.44 L 346.88 96.09 L 321.09 110.16 L 285.94 175.78 L 283.59 232.03 L 304.69 262.50 L 321.09 274.22 L 365.62 278.91 L 410.16 262.50 L 442.97 229.69 L 454.69 192.19 L 450.00 131.25 L 421.88 98.44 L 386.72 77.34 L 351.56 75.00 L 342.19 84.38" stroke="white" fill="transparent"/>
	<path d = "M 454.69 135.94 L 478.12 96.09 L 557.81 0.00 L 597.66 58.59" stroke="white" fill="transparent"/>
</svg>