<?xml version="1.0" encoding="UTF-8" standalone="no"?>
<!--Created with ndjsontosvg (https:https://github.com/thompson318/ndjsontosvg) 
	from the simplified Google quickdraw data set. key_id = 5353408624066560-->
<svg width="600" height="600"
	xmlns="http://www.w3.org/2000/svg">
	xmlns:ndjsontosvg="https://github.com/thompson318/ndjsontosvg"
	xmlns:quickdraw="https://quickdraw.withgoogle.com/data"
	xmlns:scikit-surgery="https://doi.org/10.1007/s11548-020-02180-5">

	<rect width="100%" height="100%" fill="black" />
	<path d = "M 222.66 7.03 L 196.88 0.00 L 89.06 35.16 L 60.94 53.91 L 30.47 100.78 L 14.06 150.00 L 0.00 255.47 L 2.34 389.06 L 23.44 450.00 L 63.28 492.19 L 89.06 506.25 L 159.38 529.69 L 278.91 555.47 L 450.00 562.50 L 506.25 543.75 L 534.38 517.97 L 571.88 466.41 L 590.62 405.47 L 597.66 346.88 L 590.62 248.44 L 550.78 173.44 L 515.62 133.59 L 471.09 98.44 L 379.69 49.22 L 292.97 25.78 L 222.66 23.44 L 201.56 35.16" stroke="white" fill="transparent"/>
	<path d = "M 161.72 117.19 L 150.00 131.25 L 159.38 152.34 L 175.78 154.69 L 189.84 147.66 L 192.19 138.28 L 180.47 128.91 L 164.06 126.56 L 152.34 131.25 L 147.66 140.62 L 161.72 147.66" stroke="white" fill="transparent"/>
	<path d = "M 358.59 150.00 L 360.94 178.12 L 370.31 192.19 L 403.12 194.53 L 419.53 182.81 L 426.56 147.66 L 393.75 150.00 L 375.00 178.12 L 372.66 192.19 L 377.34 196.88" stroke="white" fill="transparent"/>
	<path d = "M 185.16 412.50 L 225.00 440.62 L 276.56 454.69 L 314.06 454.69 L 337.50 447.66 L 391.41 412.50" stroke="white" fill="transparent"/>
</svg>