<?xml version="1.0" encoding="UTF-8" standalone="no"?>
<!--Created with ndjsontosvg (https:https://github.com/thompson318/ndjsontosvg) 
	from the simplified Google quickdraw data set. key_id = 5300174165377024-->
<svg width="600" height="600"
	xmlns="http://www.w3.org/2000/svg">
	xmlns:ndjsontosvg="https://github.com/thompson318/ndjsontosvg"
	xmlns:quickdraw="https://quickdraw.withgoogle.com/data"
	xmlns:scikit-surgery="https://doi.org/10.1007/s11548-020-02180-5">

	<rect width="100%" height="100%" fill="black" />
	<path d = "M 464.06 39.84 L 414.84 32.81 L 351.56 58.59 L 281.25 114.84 L 239.06 178.12 L 222.66 217.97 L 208.59 285.94 L 222.66 372.66 L 269.53 464.06 L 321.09 499.22 L 393.75 513.28 L 438.28 506.25 L 478.12 485.16 L 522.66 452.34 L 562.50 400.78 L 588.28 332.81 L 597.66 241.41 L 585.94 168.75 L 571.88 121.88 L 489.84 7.03 L 468.75 0.00 L 417.19 18.75" stroke="white" fill="transparent"/>
	<path d = "M 323.44 180.47 L 328.12 180.47" stroke="white" fill="transparent"/>
	<path d = "M 492.19 210.94 L 487.50 210.94" stroke="white" fill="transparent"/>
	<path d = "M 300.00 328.12 L 325.78 365.62 L 353.91 396.09 L 377.34 410.16 L 407.81 419.53 L 450.00 414.84 L 489.84 393.75 L 499.22 370.31 L 475.78 356.25" stroke="white" fill="transparent"/>
	<path d = "M 18.75 485.16 L 16.41 330.47 L 4.69 248.44" stroke="white" fill="transparent"/>
</svg>