<?xml version="1.0" encoding="UTF-8" standalone="no"?>
<!--Created with ndjsontosvg (https:https://github.com/thompson318/ndjsontosvg) 
	from the simplified Google quickdraw data set. key_id = 6487639077158912-->
<svg width="600" height="600"
	xmlns="http://www.w3.org/2000/svg">
	xmlns:ndjsontosvg="https://github.com/thompson318/ndjsontosvg"
	xmlns:quickdraw="https://quickdraw.withgoogle.com/data"
	xmlns:scikit-surgery="https://doi.org/10.1007/s11548-020-02180-5">

	<rect width="100%" height="100%" fill="black" />
	<path d = "M 424.22 173.44 L 389.06 89.06 L 349.22 44.53 L 292.97 18.75 L 213.28 16.41 L 131.25 60.94 L 75.00 131.25 L 39.84 208.59 L 35.16 309.38 L 46.88 335.16 L 93.75 393.75 L 142.97 428.91 L 173.44 438.28 L 220.31 438.28 L 271.88 421.88 L 351.56 360.94 L 421.88 229.69 L 431.25 192.19 L 428.91 145.31 L 412.50 119.53 L 403.12 114.84" stroke="white" fill="transparent"/>
	<path d = "M 194.53 128.91 L 180.47 135.94 L 173.44 187.50 L 187.50 145.31" stroke="white" fill="transparent"/>
	<path d = "M 330.47 182.81 L 276.56 180.47 L 292.97 189.84 L 311.72 189.84 L 321.09 150.00 L 325.78 164.06" stroke="white" fill="transparent"/>
	<path d = "M 100.78 210.94 L 98.44 243.75 L 128.91 316.41 L 161.72 360.94 L 199.22 382.03 L 239.06 379.69 L 285.94 349.22 L 346.88 288.28 L 363.28 260.16" stroke="white" fill="transparent"/>
	<path d = "M 276.56 23.44 L 382.03 42.19 L 424.22 56.25 L 466.41 91.41 L 485.16 135.94 L 489.84 257.81 L 424.22 478.12 L 421.88 562.50 L 428.91 588.28" stroke="white" fill="transparent"/>
	<path d = "M 391.41 44.53 L 351.56 49.22 L 274.22 11.72 L 234.38 2.34 L 128.91 2.34 L 70.31 42.19 L 37.50 84.38 L 9.38 164.06 L 0.00 250.78 L 0.00 426.56 L 37.50 597.66" stroke="white" fill="transparent"/>
</svg>