<?xml version="1.0" encoding="UTF-8" standalone="no"?>
<!--Created with ndjsontosvg (https:https://github.com/thompson318/ndjsontosvg) 
	from the simplified Google quickdraw data set. key_id = 5578697698443264-->
<svg width="600" height="600"
	xmlns="http://www.w3.org/2000/svg">
	xmlns:ndjsontosvg="https://github.com/thompson318/ndjsontosvg"
	xmlns:quickdraw="https://quickdraw.withgoogle.com/data"
	xmlns:scikit-surgery="https://doi.org/10.1007/s11548-020-02180-5">

	<rect width="100%" height="100%" fill="black" />
	<path d = "M 0.00 140.62 L 7.03 271.88 L 25.78 367.97 L 60.94 487.50 L 105.47 555.47 L 128.91 574.22 L 185.16 595.31 L 379.69 597.66 L 426.56 583.59 L 450.00 562.50 L 496.88 478.12 L 513.28 290.62 L 513.28 131.25" stroke="white" fill="transparent"/>
	<path d = "M 203.91 396.09 L 210.94 424.22 L 243.75 457.03 L 314.06 485.16 L 367.97 485.16 L 403.12 454.69 L 412.50 403.12 L 407.81 384.38" stroke="white" fill="transparent"/>
	<path d = "M 199.22 185.16 L 203.91 215.62 L 208.59 220.31 L 213.28 210.94 L 213.28 194.53 L 206.25 199.22" stroke="white" fill="transparent"/>
	<path d = "M 344.53 206.25 L 372.66 215.62 L 384.38 210.94 L 386.72 194.53 L 365.62 196.88" stroke="white" fill="transparent"/>
	<path d = "M 4.69 133.59 L 7.03 121.88 L 39.84 93.75 L 103.12 46.88 L 185.16 11.72 L 248.44 0.00 L 337.50 0.00 L 370.31 11.72 L 503.91 128.91" stroke="white" fill="transparent"/>
</svg>