<?xml version="1.0" encoding="UTF-8" standalone="no"?>
<!--Created with ndjsontosvg (https:https://github.com/thompson318/ndjsontosvg) 
	from the simplified Google quickdraw data set. key_id = 6055926475784192-->
<svg width="600" height="600"
	xmlns="http://www.w3.org/2000/svg">
	xmlns:ndjsontosvg="https://github.com/thompson318/ndjsontosvg"
	xmlns:quickdraw="https://quickdraw.withgoogle.com/data"
	xmlns:scikit-surgery="https://doi.org/10.1007/s11548-020-02180-5">

	<rect width="100%" height="100%" fill="black" />
	<path d = "M 290.62 328.12 L 323.44 335.16 L 344.53 328.12 L 356.25 314.06 L 358.59 271.88 L 321.09 253.12 L 276.56 257.81 L 262.50 281.25 L 262.50 302.34 L 292.97 325.78" stroke="white" fill="transparent"/>
	<path d = "M 325.78 335.16 L 335.16 337.50 L 351.56 382.03 L 349.22 433.59 L 332.81 466.41 L 271.88 487.50 L 203.91 492.19 L 173.44 485.16 L 135.94 464.06 L 110.16 433.59 L 98.44 405.47 L 96.09 360.94 L 114.84 328.12 L 150.00 304.69 L 194.53 290.62 L 239.06 290.62" stroke="white" fill="transparent"/>
	<path d = "M 271.88 239.06 L 206.25 178.12 L 185.16 128.91 L 180.47 82.03 L 189.84 65.62 L 220.31 49.22 L 318.75 51.56 L 349.22 98.44 L 367.97 196.88 L 367.97 246.09 L 344.53 271.88" stroke="white" fill="transparent"/>
	<path d = "M 356.25 255.47 L 365.62 246.09 L 440.62 239.06 L 478.12 257.81 L 489.84 271.88 L 494.53 297.66 L 489.84 346.88 L 485.16 358.59 L 464.06 372.66 L 405.47 375.00 L 358.59 360.94 L 337.50 337.50" stroke="white" fill="transparent"/>
	<path d = "M 154.69 578.91 L 166.41 585.94 L 225.00 592.97 L 337.50 597.66 L 492.19 536.72 L 520.31 513.28 L 560.16 459.38 L 583.59 400.78 L 588.28 290.62 L 578.91 239.06 L 560.16 192.19 L 508.59 110.16 L 445.31 49.22 L 382.03 18.75 L 302.34 0.00 L 189.84 2.34 L 110.16 39.84 L 58.59 79.69 L 14.06 166.41 L 0.00 236.72 L 4.69 330.47 L 28.12 382.03 L 84.38 450.00 L 124.22 475.78 L 250.78 522.66" stroke="white" fill="transparent"/>
	<path d = "M 227.34 576.56 L 138.28 496.88" stroke="white" fill="transparent"/>
</svg>