<?xml version="1.0" encoding="UTF-8" standalone="no"?>
<!--Created with ndjsontosvg (https:https://github.com/thompson318/ndjsontosvg) 
	from the simplified Google quickdraw data set. key_id = 6122273670955008-->
<svg width="600" height="600"
	xmlns="http://www.w3.org/2000/svg">
	xmlns:ndjsontosvg="https://github.com/thompson318/ndjsontosvg"
	xmlns:quickdraw="https://quickdraw.withgoogle.com/data"
	xmlns:scikit-surgery="https://doi.org/10.1007/s11548-020-02180-5">

	<rect width="100%" height="100%" fill="black" />
	<path d = "M 274.22 49.22 L 269.53 30.47 L 229.69 9.38 L 164.06 0.00 L 93.75 21.09 L 39.84 65.62 L 23.44 89.06 L 4.69 142.97 L 7.03 194.53 L 39.84 225.00 L 91.41 246.09 L 189.84 246.09 L 229.69 234.38 L 300.00 210.94 L 353.91 173.44 L 351.56 150.00 L 307.03 100.78 L 227.34 51.56 L 168.75 35.16" stroke="white" fill="transparent"/>
	<path d = "M 128.91 121.88 L 145.31 121.88 L 157.03 138.28 L 145.31 142.97 L 142.97 135.94 L 150.00 135.94" stroke="white" fill="transparent"/>
	<path d = "M 44.53 82.03 L 30.47 79.69 L 67.97 79.69 L 93.75 89.06 L 147.66 126.56 L 140.62 128.91 L 117.19 98.44 L 98.44 89.06 L 56.25 82.03 L 30.47 96.09" stroke="white" fill="transparent"/>
	<path d = "M 157.03 138.28 L 86.72 140.62 L 37.50 171.09 L 25.78 189.84 L 72.66 154.69 L 114.84 147.66" stroke="white" fill="transparent"/>
	<path d = "M 164.06 142.97 L 157.03 232.03 L 159.38 241.41 L 178.12 241.41 L 166.41 196.88 L 173.44 138.28" stroke="white" fill="transparent"/>
	<path d = "M 166.41 152.34 L 210.94 171.09 L 302.34 173.44 L 311.72 171.09 L 302.34 166.41 L 208.59 166.41 L 187.50 159.38 L 180.47 147.66" stroke="white" fill="transparent"/>
	<path d = "M 187.50 133.59 L 217.97 128.91 L 227.34 119.53 L 236.72 107.81 L 241.41 67.97 L 239.06 91.41 L 217.97 110.16 L 180.47 128.91 L 166.41 128.91" stroke="white" fill="transparent"/>
	<path d = "M 178.12 124.22 L 182.81 70.31 L 178.12 56.25 L 121.88 14.06 L 173.44 65.62 L 175.78 100.78 L 166.41 114.84" stroke="white" fill="transparent"/>
	<path d = "M 157.03 255.47 L 145.31 564.84 L 154.69 232.03 L 175.78 426.56" stroke="white" fill="transparent"/>
	<path d = "M 0.00 595.31 L 175.78 574.22 L 342.19 571.88 L 166.41 567.19 L 35.16 581.25 L 377.34 576.56 L 121.88 578.91 L 2.34 597.66" stroke="white" fill="transparent"/>
</svg>