<?xml version="1.0" encoding="UTF-8" standalone="no"?>
<!--Created with ndjsontosvg (https:https://github.com/thompson318/ndjsontosvg) 
	from the simplified Google quickdraw data set. key_id = 4759914087972864-->
<svg width="600" height="600"
	xmlns="http://www.w3.org/2000/svg">
	xmlns:ndjsontosvg="https://github.com/thompson318/ndjsontosvg"
	xmlns:quickdraw="https://quickdraw.withgoogle.com/data"
	xmlns:scikit-surgery="https://doi.org/10.1007/s11548-020-02180-5">

	<rect width="100%" height="100%" fill="black" />
	<path d = "M 187.50 60.94 L 196.88 46.88 L 194.53 28.12 L 152.34 16.41 L 53.91 37.50 L 35.16 77.34 L 2.34 189.84 L 18.75 269.53 L 44.53 285.94 L 105.47 302.34 L 203.91 302.34 L 243.75 288.28 L 285.94 234.38 L 300.00 164.06 L 292.97 70.31 L 241.41 21.09 L 173.44 0.00 L 124.22 4.69" stroke="white" fill="transparent"/>
	<path d = "M 138.28 100.78 L 100.78 117.19 L 100.78 171.09 L 105.47 178.12 L 119.53 180.47 L 161.72 164.06 L 168.75 140.62 L 166.41 117.19 L 135.94 107.81" stroke="white" fill="transparent"/>
	<path d = "M 89.06 110.16 L 79.69 110.16 L 35.16 14.06 L 58.59 18.75 L 91.41 58.59 L 138.28 84.38 L 145.31 63.28 L 175.78 51.56 L 246.09 44.53 L 147.66 154.69 L 182.81 166.41 L 243.75 173.44 L 264.84 192.19 L 194.53 196.88 L 138.28 182.81 L 126.56 257.81 L 89.06 342.19 L 82.03 339.84 L 77.34 321.09 L 77.34 180.47 L 67.97 161.72" stroke="white" fill="transparent"/>
	<path d = "M 105.47 276.56 L 93.75 475.78 L 14.06 499.22 L 0.00 557.81 L 11.72 583.59 L 42.19 595.31 L 180.47 597.66 L 232.03 588.28 L 302.34 560.16 L 304.69 546.09 L 281.25 513.28 L 255.47 499.22 L 180.47 478.12 L 166.41 466.41 L 152.34 442.97 L 145.31 344.53 L 128.91 295.31" stroke="white" fill="transparent"/>
	<path d = "M 56.25 508.59 L 56.25 510.94" stroke="white" fill="transparent"/>
</svg>