<?xml version="1.0" encoding="UTF-8" standalone="no"?>
<!--Created with ndjsontosvg (https:https://github.com/thompson318/ndjsontosvg) 
	from the simplified Google quickdraw data set. key_id = 6025953442529280-->
<svg width="600" height="600"
	xmlns="http://www.w3.org/2000/svg">
	xmlns:ndjsontosvg="https://github.com/thompson318/ndjsontosvg"
	xmlns:quickdraw="https://quickdraw.withgoogle.com/data"
	xmlns:scikit-surgery="https://doi.org/10.1007/s11548-020-02180-5">

	<rect width="100%" height="100%" fill="black" />
	<path d = "M 302.34 271.88 L 290.62 283.59 L 281.25 332.81 L 283.59 353.91 L 304.69 365.62 L 349.22 370.31 L 375.00 339.84 L 377.34 304.69 L 351.56 290.62 L 309.38 290.62" stroke="white" fill="transparent"/>
	<path d = "M 314.06 285.94 L 300.00 253.12 L 290.62 187.50 L 285.94 100.78 L 295.31 60.94 L 309.38 35.16 L 346.88 7.03 L 389.06 0.00 L 433.59 4.69 L 496.88 35.16 L 529.69 65.62 L 555.47 117.19 L 560.16 147.66 L 546.09 159.38 L 485.16 166.41 L 452.34 178.12 L 407.81 229.69 L 377.34 302.34" stroke="white" fill="transparent"/>
	<path d = "M 384.38 353.91 L 435.94 358.59 L 459.38 367.97 L 571.88 440.62 L 592.97 466.41 L 583.59 520.31 L 553.12 550.78 L 506.25 583.59 L 468.75 597.66 L 440.62 595.31 L 426.56 576.56 L 405.47 478.12 L 330.47 363.28" stroke="white" fill="transparent"/>
	<path d = "M 311.72 344.53 L 267.19 410.16 L 222.66 457.03 L 185.16 482.81 L 131.25 506.25 L 72.66 503.91 L 46.88 492.19 L 4.69 433.59 L 0.00 379.69 L 16.41 360.94 L 46.88 346.88 L 86.72 344.53 L 119.53 358.59 L 159.38 358.59 L 250.78 321.09 L 316.41 316.41" stroke="white" fill="transparent"/>
</svg>