<?xml version="1.0" encoding="UTF-8" standalone="no"?>
<!--Created with ndjsontosvg (https:https://github.com/thompson318/ndjsontosvg) 
	from the simplified Google quickdraw data set. key_id = 4933094467436544-->
<svg width="600" height="600"
	xmlns="http://www.w3.org/2000/svg">
	xmlns:ndjsontosvg="https://github.com/thompson318/ndjsontosvg"
	xmlns:quickdraw="https://quickdraw.withgoogle.com/data"
	xmlns:scikit-surgery="https://doi.org/10.1007/s11548-020-02180-5">

	<rect width="100%" height="100%" fill="black" />
	<path d = "M 192.19 189.84 L 182.81 180.47 L 157.03 173.44 L 65.62 180.47 L 37.50 196.88 L 9.38 234.38 L 0.00 264.84 L 9.38 276.56 L 86.72 307.03 L 152.34 314.06 L 213.28 288.28 L 281.25 239.06" stroke="white" fill="transparent"/>
	<path d = "M 271.88 253.12 L 278.91 185.16 L 288.28 168.75 L 304.69 192.19 L 307.03 257.81 L 300.00 267.19 L 283.59 271.88 L 274.22 243.75" stroke="white" fill="transparent"/>
	<path d = "M 271.88 248.44 L 271.88 431.25 L 304.69 447.66 L 346.88 447.66 L 410.16 421.88 L 417.19 393.75 L 304.69 260.16 L 377.34 248.44 L 459.38 246.09 L 496.88 236.72 L 515.62 222.66 L 513.28 124.22 L 499.22 98.44 L 457.03 98.44 L 400.78 114.84 L 365.62 140.62 L 323.44 192.19 L 356.25 105.47 L 351.56 58.59 L 325.78 30.47 L 239.06 18.75 L 192.19 18.75 L 180.47 44.53 L 180.47 79.69 L 201.56 138.28 L 229.69 171.09 L 288.28 213.28" stroke="white" fill="transparent"/>
	<path d = "M 164.06 21.09 L 96.09 93.75 L 58.59 168.75 L 30.47 248.44 L 25.78 292.97 L 30.47 318.75 L 60.94 349.22 L 152.34 405.47 L 316.41 494.53 L 367.97 508.59 L 417.19 480.47 L 508.59 382.03 L 585.94 241.41 L 597.66 138.28 L 583.59 105.47 L 543.75 58.59 L 503.91 32.81 L 452.34 14.06 L 391.41 2.34 L 318.75 0.00 L 161.72 18.75 L 131.25 30.47 L 117.19 60.94" stroke="white" fill="transparent"/>
</svg>