<?xml version="1.0" encoding="UTF-8" standalone="no"?>
<!--Created with ndjsontosvg (https:https://github.com/thompson318/ndjsontosvg) 
	from the simplified Google quickdraw data set. key_id = 5476641235009536-->
<svg width="600" height="600"
	xmlns="http://www.w3.org/2000/svg">
	xmlns:ndjsontosvg="https://github.com/thompson318/ndjsontosvg"
	xmlns:quickdraw="https://quickdraw.withgoogle.com/data"
	xmlns:scikit-surgery="https://doi.org/10.1007/s11548-020-02180-5">

	<rect width="100%" height="100%" fill="black" />
	<path d = "M 274.22 232.03 L 274.22 274.22 L 297.66 407.81 L 300.00 597.66" stroke="white" fill="transparent"/>
	<path d = "M 269.53 227.34 L 225.00 241.41 L 138.28 314.06 L 105.47 365.62 L 105.47 391.41 L 110.16 393.75 L 140.62 396.09 L 199.22 328.12 L 304.69 152.34 L 356.25 100.78 L 389.06 84.38 L 417.19 84.38 L 450.00 112.50 L 459.38 145.31 L 459.38 168.75 L 450.00 189.84 L 433.59 213.28 L 412.50 227.34 L 398.44 234.38 L 297.66 232.03 L 248.44 222.66 L 164.06 140.62 L 114.84 117.19 L 75.00 112.50 L 67.97 150.00 L 98.44 178.12 L 154.69 201.56 L 269.53 227.34 L 321.09 246.09 L 365.62 274.22 L 407.81 325.78 L 424.22 335.16 L 459.38 335.16 L 461.72 285.94 L 410.16 257.81 L 274.22 222.66" stroke="white" fill="transparent"/>
	<path d = "M 557.81 42.19 L 532.03 25.78 L 417.19 21.09 L 269.53 0.00 L 131.25 0.00 L 70.31 18.75 L 23.44 53.91 L 0.00 107.81 L 0.00 185.16 L 9.38 225.00 L 72.66 344.53 L 105.47 379.69 L 180.47 424.22 L 271.88 457.03 L 382.03 459.38 L 457.03 445.31 L 485.16 424.22 L 515.62 389.06 L 536.72 351.56 L 555.47 288.28 L 578.91 126.56 L 576.56 63.28 L 564.84 30.47 L 550.78 18.75 L 522.66 9.38 L 487.50 11.72" stroke="white" fill="transparent"/>
	<path d = "M 201.56 578.91 L 419.53 581.25" stroke="white" fill="transparent"/>
</svg>