<?xml version="1.0" encoding="UTF-8" standalone="no"?>
<!--Created with ndjsontosvg (https:https://github.com/thompson318/ndjsontosvg) 
	from the simplified Google quickdraw data set. key_id = 6611419195768832-->
<svg width="600" height="600"
	xmlns="http://www.w3.org/2000/svg">
	xmlns:ndjsontosvg="https://github.com/thompson318/ndjsontosvg"
	xmlns:quickdraw="https://quickdraw.withgoogle.com/data"
	xmlns:scikit-surgery="https://doi.org/10.1007/s11548-020-02180-5">

	<rect width="100%" height="100%" fill="black" />
	<path d = "M 246.09 25.78 L 213.28 4.69 L 164.06 2.34 L 110.16 30.47 L 70.31 63.28 L 37.50 103.12 L 4.69 168.75 L 0.00 227.34 L 11.72 262.50 L 42.19 295.31 L 79.69 318.75 L 121.88 332.81 L 171.09 332.81 L 217.97 316.41 L 262.50 288.28 L 311.72 236.72 L 332.81 196.88 L 349.22 140.62 L 342.19 100.78 L 316.41 63.28 L 246.09 23.44" stroke="white" fill="transparent"/>
	<path d = "M 21.09 288.28 L 28.12 365.62 L 21.09 597.66" stroke="white" fill="transparent"/>
	<path d = "M 185.16 121.88 L 152.34 140.62 L 131.25 166.41 L 126.56 203.91 L 135.94 229.69 L 152.34 241.41 L 173.44 241.41 L 201.56 208.59 L 203.91 140.62 L 192.19 112.50 L 173.44 110.16" stroke="white" fill="transparent"/>
	<path d = "M 138.28 147.66 L 91.41 103.12 L 75.00 75.00" stroke="white" fill="transparent"/>
	<path d = "M 189.84 135.94 L 161.72 77.34 L 161.72 16.41" stroke="white" fill="transparent"/>
	<path d = "M 203.91 145.31 L 210.94 128.91 L 232.03 114.84 L 318.75 96.09" stroke="white" fill="transparent"/>
	<path d = "M 213.28 180.47 L 276.56 175.78 L 344.53 194.53" stroke="white" fill="transparent"/>
	<path d = "M 192.19 222.66 L 206.25 241.41 L 215.62 271.88 L 213.28 318.75 L 199.22 370.31" stroke="white" fill="transparent"/>
	<path d = "M 142.97 243.75 L 93.75 309.38" stroke="white" fill="transparent"/>
	<path d = "M 135.94 217.97 L 96.09 225.00 L 44.53 260.16" stroke="white" fill="transparent"/>
	<path d = "M 114.84 210.94 L 86.72 196.88 L 37.50 199.22" stroke="white" fill="transparent"/>
	<path d = "M 145.31 192.19 L 131.25 182.81" stroke="white" fill="transparent"/>
</svg>