<?xml version="1.0" encoding="UTF-8" standalone="no"?>
<!--Created with ndjsontosvg (https:https://github.com/thompson318/ndjsontosvg) 
	from the simplified Google quickdraw data set. key_id = 4566983049740288-->
<svg width="600" height="600"
	xmlns="http://www.w3.org/2000/svg">
	xmlns:ndjsontosvg="https://github.com/thompson318/ndjsontosvg"
	xmlns:quickdraw="https://quickdraw.withgoogle.com/data"
	xmlns:scikit-surgery="https://doi.org/10.1007/s11548-020-02180-5">

	<rect width="100%" height="100%" fill="black" />
	<path d = "M 173.44 0.00 L 114.84 112.50 L 110.16 196.88 L 91.41 309.38 L 89.06 588.28 L 77.34 597.66 L 44.53 522.66" stroke="white" fill="transparent"/>
	<path d = "M 96.09 285.94 L 114.84 213.28 L 142.97 159.38 L 206.25 86.72 L 133.59 178.12 L 86.72 262.50 L 110.16 131.25 L 86.72 234.38 L 63.28 290.62 L 35.16 119.53 L 75.00 300.00 L 51.56 140.62 L 46.88 67.97 L 98.44 189.84 L 86.72 147.66 L 77.34 37.50 L 86.72 39.84 L 98.44 58.59 L 117.19 131.25 L 112.50 215.62 L 103.12 114.84 L 138.28 82.03 L 131.25 189.84 L 86.72 271.88 L 89.06 243.75 L 110.16 192.19 L 175.78 70.31 L 178.12 159.38 L 152.34 346.88 L 173.44 182.81 L 166.41 267.19 L 124.22 372.66 L 110.16 396.09 L 96.09 365.62 L 93.75 330.47 L 114.84 154.69 L 124.22 194.53 L 107.81 428.91 L 128.91 213.28 L 142.97 178.12 L 150.00 365.62 L 135.94 384.38 L 142.97 267.19 L 157.03 185.16 L 159.38 208.59 L 152.34 330.47 L 117.19 433.59 L 11.72 187.50 L 46.88 292.97 L 75.00 431.25 L 58.59 330.47 L 0.00 185.16 L 77.34 360.94 L 63.28 192.19 L 100.78 246.09 L 124.22 295.31" stroke="white" fill="transparent"/>
</svg>