<?xml version="1.0" encoding="UTF-8" standalone="no"?>
<!--Created with ndjsontosvg (https:https://github.com/thompson318/ndjsontosvg) 
	from the simplified Google quickdraw data set. key_id = 6494587709292544-->
<svg width="600" height="600"
	xmlns="http://www.w3.org/2000/svg">
	xmlns:ndjsontosvg="https://github.com/thompson318/ndjsontosvg"
	xmlns:quickdraw="https://quickdraw.withgoogle.com/data"
	xmlns:scikit-surgery="https://doi.org/10.1007/s11548-020-02180-5">

	<rect width="100%" height="100%" fill="black" />
	<path d = "M 51.56 93.75 L 56.25 75.00 L 86.72 35.16 L 98.44 0.00" stroke="white" fill="transparent"/>
	<path d = "M 91.41 98.44 L 103.12 82.03 L 114.84 30.47" stroke="white" fill="transparent"/>
	<path d = "M 140.62 107.81 L 159.38 44.53" stroke="white" fill="transparent"/>
	<path d = "M 161.72 142.97 L 189.84 70.31" stroke="white" fill="transparent"/>
	<path d = "M 203.91 147.66 L 215.62 140.62 L 232.03 91.41" stroke="white" fill="transparent"/>
	<path d = "M 248.44 154.69 L 253.12 117.19 L 271.88 84.38" stroke="white" fill="transparent"/>
	<path d = "M 288.28 128.91 L 292.97 96.09 L 304.69 75.00" stroke="white" fill="transparent"/>
	<path d = "M 314.06 161.72 L 358.59 93.75" stroke="white" fill="transparent"/>
	<path d = "M 292.97 96.09 L 290.62 121.88 L 271.88 166.41" stroke="white" fill="transparent"/>
	<path d = "M 351.56 161.72 L 396.09 110.16 L 419.53 98.44" stroke="white" fill="transparent"/>
	<path d = "M 370.31 164.06 L 421.88 142.97" stroke="white" fill="transparent"/>
	<path d = "M 42.19 77.34 L 114.84 105.47 L 271.88 192.19 L 445.31 253.12 L 529.69 297.66 L 597.66 351.56" stroke="white" fill="transparent"/>
	<path d = "M 32.81 72.66 L 25.78 103.12 L 0.00 154.69" stroke="white" fill="transparent"/>
	<path d = "M 86.72 98.44 L 35.16 147.66" stroke="white" fill="transparent"/>
	<path d = "M 145.31 121.88 L 133.59 135.94 L 124.22 178.12" stroke="white" fill="transparent"/>
	<path d = "M 206.25 138.28 L 213.28 199.22 L 201.56 229.69" stroke="white" fill="transparent"/>
	<path d = "M 264.84 180.47 L 255.47 194.53 L 255.47 239.06 L 288.28 264.84" stroke="white" fill="transparent"/>
</svg>