<?xml version="1.0" encoding="UTF-8" standalone="no"?>
<!--Created with ndjsontosvg (https:https://github.com/thompson318/ndjsontosvg) 
	from the simplified Google quickdraw data set. key_id = 5980324049715200-->
<svg width="600" height="600"
	xmlns="http://www.w3.org/2000/svg">
	xmlns:ndjsontosvg="https://github.com/thompson318/ndjsontosvg"
	xmlns:quickdraw="https://quickdraw.withgoogle.com/data"
	xmlns:scikit-surgery="https://doi.org/10.1007/s11548-020-02180-5">

	<rect width="100%" height="100%" fill="black" />
	<path d = "M 248.44 597.66 L 246.09 574.22 L 175.78 440.62 L 124.22 267.19 L 60.94 173.44 L 46.88 124.22" stroke="white" fill="transparent"/>
	<path d = "M 232.03 440.62 L 271.88 323.44 L 281.25 246.09 L 232.03 208.59 L 206.25 206.25 L 189.84 213.28 L 166.41 239.06 L 131.25 314.06 L 131.25 271.88 L 161.72 175.78 L 164.06 89.06 L 147.66 65.62 L 131.25 63.28 L 98.44 114.84 L 77.34 199.22 L 98.44 93.75 L 96.09 51.56 L 79.69 9.38 L 67.97 0.00 L 25.78 7.03 L 0.00 53.91 L 0.00 89.06" stroke="white" fill="transparent"/>
	<path d = "M 185.16 468.75 L 185.16 468.75" stroke="white" fill="transparent"/>
</svg>