<?xml version="1.0" encoding="UTF-8" standalone="no"?>
<!--Created with ndjsontosvg (https:https://github.com/thompson318/ndjsontosvg) 
	from the simplified Google quickdraw data set. key_id = 5580872424095744-->
<svg width="600" height="600"
	xmlns="http://www.w3.org/2000/svg">
	xmlns:ndjsontosvg="https://github.com/thompson318/ndjsontosvg"
	xmlns:quickdraw="https://quickdraw.withgoogle.com/data"
	xmlns:scikit-surgery="https://doi.org/10.1007/s11548-020-02180-5">

	<rect width="100%" height="100%" fill="black" />
	<path d = "M 23.44 335.16 L 42.19 260.16 L 42.19 220.31 L 28.12 178.12 L 30.47 100.78 L 44.53 65.62 L 96.09 63.28 L 107.81 82.03 L 112.50 112.50 L 77.34 232.03 L 77.34 271.88 L 86.72 356.25 L 93.75 375.00 L 103.12 377.34" stroke="white" fill="transparent"/>
	<path d = "M 189.84 77.34 L 175.78 187.50 L 180.47 318.75 L 201.56 335.16 L 285.94 323.44 L 307.03 311.72 L 337.50 264.84 L 342.19 201.56 L 330.47 182.81 L 309.38 157.03 L 213.28 70.31 L 199.22 58.59 L 199.22 44.53" stroke="white" fill="transparent"/>
	<path d = "M 440.62 103.12 L 426.56 124.22 L 419.53 157.03 L 419.53 302.34 L 403.12 382.03 L 405.47 396.09 L 426.56 400.78 L 517.97 330.47 L 576.56 300.00 L 592.97 246.09 L 597.66 161.72 L 590.62 145.31 L 574.22 133.59 L 513.28 124.22 L 398.44 121.88 L 377.34 117.19 L 384.38 112.50" stroke="white" fill="transparent"/>
	<path d = "M 0.00 79.69 L 194.53 84.38 L 391.41 103.12 L 496.88 128.91 L 576.56 140.62 L 578.91 150.00 L 569.53 159.38" stroke="white" fill="transparent"/>
	<path d = "M 44.53 77.34 L 42.19 49.22 L 70.31 0.00 L 110.16 63.28 L 135.94 86.72" stroke="white" fill="transparent"/>
	<path d = "M 180.47 131.25 L 175.78 117.19 L 194.53 30.47 L 250.78 100.78 L 257.81 131.25" stroke="white" fill="transparent"/>
	<path d = "M 297.66 110.16 L 292.97 89.06 L 375.00 4.69 L 375.00 105.47 L 398.44 145.31" stroke="white" fill="transparent"/>
	<path d = "M 447.66 145.31 L 480.47 75.00 L 515.62 56.25 L 567.19 213.28 L 583.59 234.38" stroke="white" fill="transparent"/>
</svg>