<?xml version="1.0" encoding="UTF-8" standalone="no"?>
<!--Created with ndjsontosvg (https:https://github.com/thompson318/ndjsontosvg) 
	from the simplified Google quickdraw data set. key_id = 6298932806156288-->
<svg width="600" height="600"
	xmlns="http://www.w3.org/2000/svg">
	xmlns:ndjsontosvg="https://github.com/thompson318/ndjsontosvg"
	xmlns:quickdraw="https://quickdraw.withgoogle.com/data"
	xmlns:scikit-surgery="https://doi.org/10.1007/s11548-020-02180-5">

	<rect width="100%" height="100%" fill="black" />
	<path d = "M 21.09 564.84 L 208.59 536.72 L 217.97 525.00 L 194.53 349.22 L 194.53 164.06 L 152.34 121.88 L 44.53 39.84 L 25.78 51.56 L 9.38 96.09 L 0.00 171.09 L 7.03 285.94 L 23.44 391.41 L 21.09 454.69 L 32.81 560.16 L 42.19 562.50" stroke="white" fill="transparent"/>
	<path d = "M 367.97 529.69 L 410.16 529.69 L 466.41 513.28 L 597.66 501.56 L 581.25 496.88" stroke="white" fill="transparent"/>
	<path d = "M 370.31 510.94 L 360.94 325.78 L 332.81 187.50 L 367.97 138.28 L 428.91 0.00 L 464.06 25.78 L 550.78 142.97 L 564.84 288.28 L 595.31 424.22 L 590.62 459.38 L 581.25 468.75 L 571.88 468.75" stroke="white" fill="transparent"/>
	<path d = "M 199.22 274.22 L 257.81 241.41 L 311.72 239.06 L 304.69 248.44" stroke="white" fill="transparent"/>
	<path d = "M 203.91 353.91 L 292.97 311.72 L 358.59 302.34" stroke="white" fill="transparent"/>
</svg>