<?xml version="1.0" encoding="UTF-8" standalone="no"?>
<!--Created with ndjsontosvg (https:https://github.com/thompson318/ndjsontosvg) 
	from the simplified Google quickdraw data set. key_id = 5801954758361088-->
<svg width="600" height="600"
	xmlns="http://www.w3.org/2000/svg">
	xmlns:ndjsontosvg="https://github.com/thompson318/ndjsontosvg"
	xmlns:quickdraw="https://quickdraw.withgoogle.com/data"
	xmlns:scikit-surgery="https://doi.org/10.1007/s11548-020-02180-5">

	<rect width="100%" height="100%" fill="black" />
	<path d = "M 25.78 140.62 L 25.78 232.03 L 0.00 421.88 L 63.28 414.84 L 89.06 407.81 L 100.78 398.44 L 100.78 309.38 L 145.31 152.34 L 154.69 70.31 L 89.06 35.16 L 72.66 11.72 L 65.62 86.72 L 28.12 135.94" stroke="white" fill="transparent"/>
	<path d = "M 140.62 222.66 L 227.34 192.19 L 253.12 189.84 L 241.41 196.88" stroke="white" fill="transparent"/>
	<path d = "M 91.41 323.44 L 166.41 297.66 L 253.12 290.62 L 262.50 302.34 L 246.09 325.78 L 110.16 325.78 L 72.66 330.47" stroke="white" fill="transparent"/>
	<path d = "M 135.94 182.81 L 166.41 166.41 L 248.44 154.69 L 255.47 187.50" stroke="white" fill="transparent"/>
	<path d = "M 269.53 58.59 L 253.12 227.34 L 260.16 375.00 L 269.53 382.03 L 304.69 365.62 L 339.84 365.62 L 351.56 358.59 L 356.25 189.84 L 379.69 49.22 L 330.47 0.00 L 264.84 82.03" stroke="white" fill="transparent"/>
	<path d = "M 367.97 147.66 L 496.88 140.62" stroke="white" fill="transparent"/>
	<path d = "M 379.69 171.09 L 473.44 173.44 L 501.56 166.41" stroke="white" fill="transparent"/>
	<path d = "M 346.88 271.88 L 396.09 264.84 L 468.75 264.84 L 471.09 271.88" stroke="white" fill="transparent"/>
	<path d = "M 344.53 300.00 L 386.72 283.59 L 503.91 269.53" stroke="white" fill="transparent"/>
	<path d = "M 508.59 67.97 L 508.59 126.56 L 494.53 234.38 L 494.53 346.88 L 576.56 344.53 L 590.62 260.16 L 592.97 56.25 L 567.19 9.38 L 553.12 0.00 L 478.12 100.78" stroke="white" fill="transparent"/>
</svg>