<?xml version="1.0" encoding="UTF-8" standalone="no"?>
<!--Created with ndjsontosvg (https:https://github.com/thompson318/ndjsontosvg) 
	from the simplified Google quickdraw data set. key_id = 4847361874460672-->
<svg width="600" height="600"
	xmlns="http://www.w3.org/2000/svg">
	xmlns:ndjsontosvg="https://github.com/thompson318/ndjsontosvg"
	xmlns:quickdraw="https://quickdraw.withgoogle.com/data"
	xmlns:scikit-surgery="https://doi.org/10.1007/s11548-020-02180-5">

	<rect width="100%" height="100%" fill="black" />
	<path d = "M 145.31 30.47 L 154.69 271.88 L 140.62 342.19 L 131.25 517.97 L 119.53 581.25" stroke="white" fill="transparent"/>
	<path d = "M 457.03 82.03 L 431.25 182.81 L 379.69 480.47 L 363.28 541.41" stroke="white" fill="transparent"/>
	<path d = "M 452.34 63.28 L 452.34 243.75" stroke="white" fill="transparent"/>
	<path d = "M 452.34 243.75 L 414.84 534.38" stroke="white" fill="transparent"/>
	<path d = "M 128.91 0.00 L 98.44 72.66 L 82.03 161.72 L 82.03 248.44 L 105.47 403.12 L 72.66 555.47 L 72.66 588.28" stroke="white" fill="transparent"/>
	<path d = "M 25.78 295.31 L 232.03 290.62 L 337.50 269.53 L 405.47 243.75 L 468.75 243.75 L 576.56 281.25 L 578.91 304.69 L 525.00 363.28 L 482.81 398.44 L 349.22 431.25 L 229.69 447.66 L 35.16 447.66 L 16.41 426.56 L 4.69 384.38 L 4.69 328.12" stroke="white" fill="transparent"/>
	<path d = "M 597.66 175.78 L 597.66 285.94 L 581.25 356.25 L 592.97 417.19 L 592.97 482.81" stroke="white" fill="transparent"/>
</svg>