<?xml version="1.0" encoding="UTF-8" standalone="no"?>
<!--Created with ndjsontosvg (https:https://github.com/thompson318/ndjsontosvg) 
	from the simplified Google quickdraw data set. key_id = 4971509762228224-->
<svg width="600" height="600"
	xmlns="http://www.w3.org/2000/svg">
	xmlns:ndjsontosvg="https://github.com/thompson318/ndjsontosvg"
	xmlns:quickdraw="https://quickdraw.withgoogle.com/data"
	xmlns:scikit-surgery="https://doi.org/10.1007/s11548-020-02180-5">

	<rect width="100%" height="100%" fill="black" />
	<path d = "M 128.91 508.59 L 32.81 398.44 L 2.34 316.41 L 2.34 267.19 L 23.44 248.44 L 79.69 236.72 L 133.59 276.56 L 150.00 330.47 L 145.31 185.16 L 150.00 152.34 L 203.91 25.78 L 229.69 2.34 L 267.19 2.34 L 295.31 39.84 L 323.44 93.75 L 337.50 150.00 L 332.81 281.25 L 332.81 133.59 L 370.31 9.38 L 386.72 0.00 L 400.78 4.69 L 438.28 49.22 L 452.34 86.72 L 450.00 185.16 L 438.28 248.44 L 464.06 142.97 L 489.84 82.03 L 513.28 53.91 L 541.41 35.16 L 569.53 39.84 L 595.31 67.97 L 595.31 121.88 L 578.91 187.50 L 539.06 285.94" stroke="white" fill="transparent"/>
</svg>