<?xml version="1.0" encoding="UTF-8" standalone="no"?>
<!--Created with ndjsontosvg (https:https://github.com/thompson318/ndjsontosvg) 
	from the simplified Google quickdraw data set. key_id = 6718511902621696-->
<svg width="600" height="600"
	xmlns="http://www.w3.org/2000/svg">
	xmlns:ndjsontosvg="https://github.com/thompson318/ndjsontosvg"
	xmlns:quickdraw="https://quickdraw.withgoogle.com/data"
	xmlns:scikit-surgery="https://doi.org/10.1007/s11548-020-02180-5">

	<rect width="100%" height="100%" fill="black" />
	<path d = "M 56.25 597.66 L 18.75 454.69 L 16.41 321.09 L 0.00 93.75 L 18.75 63.28 L 53.91 30.47 L 56.25 16.41 L 91.41 0.00 L 147.66 0.00 L 182.81 11.72 L 203.91 30.47 L 217.97 65.62 L 288.28 365.62 L 285.94 595.31 L 281.25 597.66" stroke="white" fill="transparent"/>
	<path d = "M 77.34 213.28 L 56.25 154.69 L 56.25 105.47 L 105.47 72.66 L 168.75 70.31 L 185.16 75.00 L 208.59 100.78 L 222.66 135.94 L 220.31 157.03 L 187.50 206.25 L 121.88 196.88 L 58.59 201.56" stroke="white" fill="transparent"/>
	<path d = "M 142.97 295.31 L 192.19 290.62" stroke="white" fill="transparent"/>
	<path d = "M 114.84 337.50 L 133.59 337.50" stroke="white" fill="transparent"/>
</svg>