<?xml version="1.0" encoding="UTF-8" standalone="no"?>
<!--Created with ndjsontosvg (https:https://github.com/thompson318/ndjsontosvg) 
	from the simplified Google quickdraw data set. key_id = 5838269885448192-->
<svg width="600" height="600"
	xmlns="http://www.w3.org/2000/svg">
	xmlns:ndjsontosvg="https://github.com/thompson318/ndjsontosvg"
	xmlns:quickdraw="https://quickdraw.withgoogle.com/data"
	xmlns:scikit-surgery="https://doi.org/10.1007/s11548-020-02180-5">

	<rect width="100%" height="100%" fill="black" />
	<path d = "M 0.00 450.00 L 16.41 424.22 L 30.47 344.53 L 32.81 145.31 L 23.44 11.72 L 35.16 2.34 L 70.31 0.00 L 128.91 16.41 L 220.31 28.12 L 468.75 30.47 L 522.66 42.19 L 546.09 56.25 L 576.56 98.44 L 592.97 152.34 L 597.66 229.69 L 585.94 358.59 L 592.97 457.03" stroke="white" fill="transparent"/>
	<path d = "M 105.47 461.72 L 126.56 433.59 L 213.28 363.28 L 236.72 332.81 L 292.97 367.97 L 255.47 403.12 L 107.81 489.84" stroke="white" fill="transparent"/>
	<path d = "M 461.72 454.69 L 452.34 435.94 L 358.59 349.22 L 335.16 318.75 L 307.03 325.78 L 285.94 346.88 L 283.59 360.94 L 295.31 382.03 L 414.84 482.81" stroke="white" fill="transparent"/>
	<path d = "M 257.81 482.81 L 250.78 339.84 L 257.81 332.81 L 281.25 332.81 L 304.69 353.91 L 311.72 496.88" stroke="white" fill="transparent"/>
</svg>