<?xml version="1.0" encoding="UTF-8" standalone="no"?>
<!--Created with ndjsontosvg (https:https://github.com/thompson318/ndjsontosvg) 
	from the simplified Google quickdraw data set. key_id = 5880615691878400-->
<svg width="600" height="600"
	xmlns="http://www.w3.org/2000/svg">
	xmlns:ndjsontosvg="https://github.com/thompson318/ndjsontosvg"
	xmlns:quickdraw="https://quickdraw.withgoogle.com/data"
	xmlns:scikit-surgery="https://doi.org/10.1007/s11548-020-02180-5">

	<rect width="100%" height="100%" fill="black" />
	<path d = "M 105.47 410.16 L 119.53 360.94 L 142.97 307.03 L 194.53 236.72 L 243.75 206.25 L 311.72 189.84 L 377.34 196.88 L 433.59 234.38 L 454.69 264.84 L 471.09 316.41 L 471.09 365.62" stroke="white" fill="transparent"/>
	<path d = "M 103.12 419.53 L 250.78 403.12 L 501.56 403.12" stroke="white" fill="transparent"/>
	<path d = "M 7.03 445.31 L 7.03 250.78 L 37.50 140.62 L 72.66 56.25 L 98.44 25.78 L 126.56 9.38 L 164.06 2.34 L 255.47 0.00 L 344.53 25.78 L 475.78 79.69 L 571.88 138.28 L 592.97 185.16 L 597.66 225.00 L 590.62 496.88" stroke="white" fill="transparent"/>
	<path d = "M 168.75 389.06 L 164.06 358.59 L 196.88 307.03 L 203.91 360.94 L 210.94 363.28 L 260.16 292.97 L 262.50 344.53 L 271.88 346.88 L 302.34 321.09 L 316.41 290.62 L 321.09 213.28 L 342.19 262.50 L 349.22 332.81 L 372.66 323.44 L 412.50 288.28 L 414.84 356.25 L 424.22 351.56 L 440.62 325.78 L 442.97 367.97 L 428.91 382.03" stroke="white" fill="transparent"/>
	<path d = "M 0.00 482.81 L 9.38 487.50 L 506.25 492.19" stroke="white" fill="transparent"/>
</svg>