<?xml version="1.0" encoding="UTF-8" standalone="no"?>
<!--Created with ndjsontosvg (https:https://github.com/thompson318/ndjsontosvg) 
	from the simplified Google quickdraw data set. key_id = 5275808916570112-->
<svg width="600" height="600"
	xmlns="http://www.w3.org/2000/svg">
	xmlns:ndjsontosvg="https://github.com/thompson318/ndjsontosvg"
	xmlns:quickdraw="https://quickdraw.withgoogle.com/data"
	xmlns:scikit-surgery="https://doi.org/10.1007/s11548-020-02180-5">

	<rect width="100%" height="100%" fill="black" />
	<path d = "M 84.38 442.97 L 93.75 405.47 L 86.72 300.00 L 79.69 292.97 L 14.06 290.62 L 16.41 255.47 L 37.50 234.38 L 89.06 232.03 L 117.19 239.06 L 131.25 126.56 L 142.97 110.16 L 164.06 100.78 L 192.19 103.12 L 210.94 124.22 L 213.28 166.41 L 201.56 232.03 L 246.09 234.38 L 264.84 239.06 L 267.19 246.09 L 264.84 288.28 L 192.19 274.22 L 175.78 274.22 L 161.72 281.25 L 164.06 438.28" stroke="white" fill="transparent"/>
	<path d = "M 175.78 105.47 L 178.12 84.38 L 206.25 65.62 L 239.06 58.59 L 316.41 60.94 L 417.19 112.50 L 440.62 135.94 L 445.31 157.03 L 384.38 161.72 L 335.16 140.62 L 281.25 84.38 L 232.03 4.69" stroke="white" fill="transparent"/>
	<path d = "M 281.25 91.41 L 271.88 79.69 L 274.22 46.88 L 157.03 128.91 L 107.81 110.16 L 25.78 107.81 L 0.00 121.88 L 131.25 107.81 L 595.31 0.00" stroke="white" fill="transparent"/>
</svg>