<?xml version="1.0" encoding="UTF-8" standalone="no"?>
<!--Created with ndjsontosvg (https:https://github.com/thompson318/ndjsontosvg) 
	from the simplified Google quickdraw data set. key_id = 5232138599268352-->
<svg width="600" height="600"
	xmlns="http://www.w3.org/2000/svg">
	xmlns:ndjsontosvg="https://github.com/thompson318/ndjsontosvg"
	xmlns:quickdraw="https://quickdraw.withgoogle.com/data"
	xmlns:scikit-surgery="https://doi.org/10.1007/s11548-020-02180-5">

	<rect width="100%" height="100%" fill="black" />
	<path d = "M 60.94 590.62 L 60.94 452.34 L 89.06 363.28 L 105.47 288.28 L 107.81 236.72 L 93.75 227.34 L 9.38 208.59 L 0.00 196.88 L 0.00 157.03 L 11.72 133.59 L 25.78 124.22 L 105.47 133.59 L 114.84 121.88 L 119.53 75.00 L 166.41 23.44 L 222.66 2.34 L 281.25 2.34 L 307.03 21.09 L 314.06 56.25 L 314.06 79.69 L 297.66 107.81 L 292.97 140.62 L 412.50 142.97 L 459.38 152.34 L 468.75 166.41 L 464.06 187.50 L 424.22 229.69 L 302.34 234.38 L 297.66 248.44 L 290.62 403.12 L 248.44 564.84 L 199.22 590.62 L 75.00 597.66" stroke="white" fill="transparent"/>
</svg>