<?xml version="1.0" encoding="UTF-8" standalone="no"?>
<!--Created with ndjsontosvg (https:https://github.com/thompson318/ndjsontosvg) 
	from the simplified Google quickdraw data set. key_id = 6661903864561664-->
<svg width="600" height="600"
	xmlns="http://www.w3.org/2000/svg">
	xmlns:ndjsontosvg="https://github.com/thompson318/ndjsontosvg"
	xmlns:quickdraw="https://quickdraw.withgoogle.com/data"
	xmlns:scikit-surgery="https://doi.org/10.1007/s11548-020-02180-5">

	<rect width="100%" height="100%" fill="black" />
	<path d = "M 4.69 478.12 L 0.00 112.50 L 4.69 56.25 L 18.75 0.00 L 168.75 7.03 L 367.97 35.16 L 592.97 35.16 L 597.66 42.19 L 571.88 360.94 L 567.19 536.72 L 560.16 515.62" stroke="white" fill="transparent"/>
	<path d = "M 105.47 457.03 L 105.47 175.78 L 117.19 114.84 L 124.22 112.50 L 332.81 142.97 L 480.47 152.34 L 485.16 161.72 L 473.44 220.31 L 447.66 438.28 L 450.00 492.19" stroke="white" fill="transparent"/>
	<path d = "M 189.84 405.47 L 203.91 264.84 L 213.28 328.12 L 234.38 307.03 L 274.22 222.66 L 283.59 260.16 L 328.12 196.88 L 335.16 229.69 L 353.91 255.47 L 389.06 194.53 L 398.44 199.22 L 403.12 217.97 L 410.16 283.59 L 386.72 426.56 L 391.41 382.03 L 356.25 440.62" stroke="white" fill="transparent"/>
</svg>