<?xml version="1.0" encoding="UTF-8" standalone="no"?>
<!--Created with ndjsontosvg (https:https://github.com/thompson318/ndjsontosvg) 
	from the simplified Google quickdraw data set. key_id = 4808539396636672-->
<svg width="600" height="600"
	xmlns="http://www.w3.org/2000/svg">
	xmlns:ndjsontosvg="https://github.com/thompson318/ndjsontosvg"
	xmlns:quickdraw="https://quickdraw.withgoogle.com/data"
	xmlns:scikit-surgery="https://doi.org/10.1007/s11548-020-02180-5">

	<rect width="100%" height="100%" fill="black" />
	<path d = "M 166.41 0.00 L 166.41 222.66" stroke="white" fill="transparent"/>
	<path d = "M 323.44 2.34 L 323.44 217.97" stroke="white" fill="transparent"/>
	<path d = "M 164.06 217.97 L 0.00 220.31 L 7.03 250.78 L 7.03 440.62" stroke="white" fill="transparent"/>
	<path d = "M 323.44 215.62 L 435.94 215.62 L 506.25 229.69 L 510.94 304.69 L 496.88 489.84" stroke="white" fill="transparent"/>
	<path d = "M 199.22 410.16 L 171.09 386.72 L 180.47 353.91 L 180.47 302.34 L 192.19 283.59 L 210.94 283.59 L 213.28 325.78 L 229.69 344.53 L 236.72 300.00 L 260.16 276.56 L 274.22 276.56 L 267.19 335.16 L 309.38 285.94 L 316.41 285.94 L 335.16 311.72 L 311.72 346.88 L 309.38 417.19 L 210.94 421.88 L 194.53 417.19" stroke="white" fill="transparent"/>
	<path d = "M 9.38 440.62 L 110.16 440.62 L 267.19 468.75 L 440.62 480.47 L 557.81 480.47 L 597.66 471.09" stroke="white" fill="transparent"/>
	<path d = "M 126.56 236.72 L 133.59 464.06" stroke="white" fill="transparent"/>
	<path d = "M 131.25 236.72 L 335.16 236.72 L 349.22 243.75 L 382.03 337.50 L 400.78 560.16" stroke="white" fill="transparent"/>
	<path d = "M 147.66 403.12 L 278.91 400.78" stroke="white" fill="transparent"/>
	<path d = "M 379.69 410.16 L 142.97 417.19" stroke="white" fill="transparent"/>
</svg>