<?xml version="1.0" encoding="UTF-8" standalone="no"?>
<!--Created with ndjsontosvg (https:https://github.com/thompson318/ndjsontosvg) 
	from the simplified Google quickdraw data set. key_id = 5577087534497792-->
<svg width="600" height="600"
	xmlns="http://www.w3.org/2000/svg">
	xmlns:ndjsontosvg="https://github.com/thompson318/ndjsontosvg"
	xmlns:quickdraw="https://quickdraw.withgoogle.com/data"
	xmlns:scikit-surgery="https://doi.org/10.1007/s11548-020-02180-5">

	<rect width="100%" height="100%" fill="black" />
	<path d = "M 32.81 63.28 L 555.47 39.84" stroke="white" fill="transparent"/>
	<path d = "M 18.75 67.97 L 2.34 571.88 L 225.00 555.47 L 553.12 553.12 L 585.94 541.41 L 597.66 492.19 L 578.91 229.69 L 578.91 0.00" stroke="white" fill="transparent"/>
	<path d = "M 100.78 180.47 L 93.75 292.97 L 100.78 520.31" stroke="white" fill="transparent"/>
	<path d = "M 91.41 171.09 L 203.91 173.44 L 379.69 159.38 L 473.44 164.06 L 478.12 248.44 L 459.38 501.56 L 454.69 513.28" stroke="white" fill="transparent"/>
	<path d = "M 96.09 506.25 L 91.41 578.91" stroke="white" fill="transparent"/>
	<path d = "M 227.34 435.94 L 147.66 442.97 L 142.97 546.09 L 316.41 534.38 L 337.50 520.31 L 349.22 482.81" stroke="white" fill="transparent"/>
	<path d = "M 217.97 435.94 L 278.91 447.66 L 372.66 447.66 L 375.00 459.38 L 335.16 543.75 L 257.81 527.34" stroke="white" fill="transparent"/>
	<path d = "M 189.84 440.62 L 168.75 400.78 L 140.62 292.97 L 168.75 375.00 L 180.47 316.41 L 201.56 264.84 L 220.31 339.84 L 269.53 260.16 L 285.94 328.12 L 292.97 330.47 L 358.59 253.12 L 363.28 300.00 L 358.59 358.59 L 398.44 321.09 L 407.81 318.75 L 410.16 328.12 L 407.81 360.94 L 386.72 410.16 L 417.19 400.78 L 419.53 414.84 L 384.38 459.38" stroke="white" fill="transparent"/>
	<path d = "M 398.44 471.09 L 248.44 466.41 L 255.47 536.72 L 412.50 532.03 L 428.91 461.72 L 363.28 454.69" stroke="white" fill="transparent"/>
	<path d = "M 166.41 459.38 L 145.31 442.97 L 119.53 400.78 L 110.16 356.25 L 110.16 302.34 L 121.88 295.31 L 138.28 318.75 L 171.09 428.91 L 150.00 318.75 L 150.00 250.78 L 194.53 382.03 L 217.97 213.28 L 222.66 318.75 L 307.03 201.56 L 302.34 271.88 L 271.88 389.06 L 281.25 386.72 L 346.88 278.91 L 384.38 243.75 L 389.06 241.41 L 389.06 253.12 L 330.47 389.06 L 410.16 316.41 L 419.53 311.72 L 424.22 321.09 L 351.56 450.00 L 414.84 382.03 L 433.59 379.69 L 428.91 400.78 L 353.91 482.81" stroke="white" fill="transparent"/>
</svg>