<?xml version="1.0" encoding="UTF-8" standalone="no"?>
<!--Created with ndjsontosvg (https:https://github.com/thompson318/ndjsontosvg) 
	from the simplified Google quickdraw data set. key_id = 5608749429424128-->
<svg width="600" height="600"
	xmlns="http://www.w3.org/2000/svg">
	xmlns:ndjsontosvg="https://github.com/thompson318/ndjsontosvg"
	xmlns:quickdraw="https://quickdraw.withgoogle.com/data"
	xmlns:scikit-surgery="https://doi.org/10.1007/s11548-020-02180-5">

	<rect width="100%" height="100%" fill="black" />
	<path d = "M 126.56 196.88 L 126.56 288.28 L 206.25 267.19 L 510.94 248.44 L 494.53 164.06 L 442.97 180.47 L 391.41 187.50 L 154.69 201.56" stroke="white" fill="transparent"/>
	<path d = "M 152.34 311.72 L 168.75 342.19 L 173.44 541.41 L 185.16 546.09" stroke="white" fill="transparent"/>
	<path d = "M 520.31 288.28 L 510.94 302.34 L 534.38 548.44" stroke="white" fill="transparent"/>
	<path d = "M 243.75 330.47 L 232.03 574.22" stroke="white" fill="transparent"/>
	<path d = "M 384.38 288.28 L 363.28 393.75 L 356.25 480.47" stroke="white" fill="transparent"/>
	<path d = "M 480.47 314.06 L 482.81 389.06 L 464.06 522.66" stroke="white" fill="transparent"/>
	<path d = "M 180.47 201.56 L 178.12 182.81 L 201.56 114.84 L 236.72 51.56 L 281.25 7.03 L 321.09 0.00 L 377.34 11.72 L 417.19 56.25 L 426.56 150.00 L 426.56 175.78 L 417.19 180.47" stroke="white" fill="transparent"/>
	<path d = "M 168.75 210.94 L 157.03 182.81 L 124.22 161.72 L 25.78 154.69 L 2.34 164.06 L 0.00 175.78 L 14.06 220.31 L 25.78 227.34 L 173.44 213.28" stroke="white" fill="transparent"/>
	<path d = "M 440.62 168.75 L 553.12 140.62 L 576.56 142.97 L 590.62 168.75 L 597.66 227.34 L 569.53 232.03 L 461.72 227.34" stroke="white" fill="transparent"/>
</svg>