<?xml version="1.0" encoding="UTF-8" standalone="no"?>
<!--Created with ndjsontosvg (https:https://github.com/thompson318/ndjsontosvg) 
	from the simplified Google quickdraw data set. key_id = 6538668355354624-->
<svg width="600" height="600"
	xmlns="http://www.w3.org/2000/svg">
	xmlns:ndjsontosvg="https://github.com/thompson318/ndjsontosvg"
	xmlns:quickdraw="https://quickdraw.withgoogle.com/data"
	xmlns:scikit-surgery="https://doi.org/10.1007/s11548-020-02180-5">

	<rect width="100%" height="100%" fill="black" />
	<path d = "M 135.94 424.22 L 110.16 412.50 L 91.41 384.38 L 79.69 332.81 L 82.03 283.59 L 89.06 267.19 L 107.81 285.94 L 138.28 292.97 L 133.59 154.69 L 145.31 131.25 L 166.41 215.62 L 189.84 262.50 L 196.88 264.84 L 227.34 194.53 L 234.38 117.19 L 255.47 0.00 L 257.81 72.66 L 278.91 201.56 L 290.62 222.66 L 304.69 225.00 L 339.84 164.06 L 344.53 239.06 L 335.16 267.19 L 379.69 257.81 L 344.53 358.59 L 276.56 438.28 L 222.66 440.62 L 201.56 428.91 L 72.66 431.25 L 56.25 438.28 L 0.00 501.56 L 25.78 515.62 L 53.91 513.28 L 70.31 496.88 L 107.81 424.22 L 117.19 417.19 L 133.59 417.19 L 126.56 583.59 L 138.28 595.31 L 171.09 597.66 L 180.47 583.59 L 185.16 546.09 L 185.16 457.03 L 175.78 412.50 L 185.16 407.81 L 227.34 435.94 L 295.31 513.28 L 353.91 550.78 L 391.41 564.84 L 339.84 440.62 L 302.34 428.91 L 300.00 424.22 L 372.66 431.25 L 471.09 454.69 L 485.16 454.69 L 489.84 447.66 L 487.50 424.22 L 452.34 396.09 L 321.09 389.06" stroke="white" fill="transparent"/>
</svg>