<?xml version="1.0" encoding="UTF-8" standalone="no"?>
<!--Created with ndjsontosvg (https:https://github.com/thompson318/ndjsontosvg) 
	from the simplified Google quickdraw data set. key_id = 4998465434157056-->
<svg width="600" height="600"
	xmlns="http://www.w3.org/2000/svg">
	xmlns:ndjsontosvg="https://github.com/thompson318/ndjsontosvg"
	xmlns:quickdraw="https://quickdraw.withgoogle.com/data"
	xmlns:scikit-surgery="https://doi.org/10.1007/s11548-020-02180-5">

	<rect width="100%" height="100%" fill="black" />
	<path d = "M 23.44 65.62 L 42.19 145.31 L 49.22 246.09" stroke="white" fill="transparent"/>
	<path d = "M 0.00 56.25 L 4.69 49.22 L 307.03 9.38 L 541.41 0.00 L 597.66 11.72 L 585.94 35.16 L 588.28 131.25 L 567.19 274.22 L 485.16 262.50 L 485.16 215.62 L 466.41 187.50 L 426.56 164.06 L 384.38 157.03 L 365.62 161.72 L 344.53 178.12 L 337.50 206.25 L 346.88 229.69 L 304.69 236.72 L 220.31 239.06 L 222.66 206.25 L 194.53 178.12 L 157.03 168.75 L 93.75 171.09 L 65.62 185.16 L 49.22 206.25 L 37.50 246.09 L 44.53 276.56" stroke="white" fill="transparent"/>
	<path d = "M 201.56 194.53 L 201.56 182.81 L 189.84 175.78 L 119.53 171.09 L 72.66 194.53 L 51.56 229.69 L 49.22 276.56 L 60.94 288.28 L 100.78 297.66 L 187.50 292.97 L 203.91 281.25 L 213.28 262.50 L 215.62 206.25 L 203.91 185.16 L 164.06 178.12 L 142.97 189.84" stroke="white" fill="transparent"/>
	<path d = "M 140.62 210.94 L 131.25 206.25 L 124.22 210.94 L 117.19 229.69 L 126.56 241.41 L 135.94 241.41 L 140.62 220.31 L 135.94 213.28 L 128.91 215.62" stroke="white" fill="transparent"/>
	<path d = "M 478.12 210.94 L 445.31 194.53 L 403.12 192.19 L 365.62 210.94 L 353.91 225.00 L 349.22 267.19 L 360.94 290.62 L 382.03 309.38 L 435.94 321.09 L 459.38 318.75 L 475.78 307.03 L 485.16 278.91 L 485.16 253.12 L 480.47 232.03 L 466.41 220.31 L 424.22 215.62" stroke="white" fill="transparent"/>
	<path d = "M 426.56 255.47 L 410.16 264.84 L 410.16 274.22 L 417.19 278.91 L 424.22 264.84 L 393.75 257.81" stroke="white" fill="transparent"/>
</svg>