<?xml version="1.0" encoding="UTF-8" standalone="no"?>
<!--Created with ndjsontosvg (https:https://github.com/thompson318/ndjsontosvg) 
	from the simplified Google quickdraw data set. key_id = 6294506087383040-->
<svg width="600" height="600"
	xmlns="http://www.w3.org/2000/svg">
	xmlns:ndjsontosvg="https://github.com/thompson318/ndjsontosvg"
	xmlns:quickdraw="https://quickdraw.withgoogle.com/data"
	xmlns:scikit-surgery="https://doi.org/10.1007/s11548-020-02180-5">

	<rect width="100%" height="100%" fill="black" />
	<path d = "M 7.03 18.75 L 0.00 171.09 L 4.69 419.53" stroke="white" fill="transparent"/>
	<path d = "M 7.03 14.06 L 93.75 0.00 L 412.50 7.03 L 557.81 2.34 L 578.91 9.38 L 597.66 457.03" stroke="white" fill="transparent"/>
	<path d = "M 82.03 389.06 L 110.16 142.97 L 297.66 138.28 L 499.22 147.66 L 510.94 152.34 L 522.66 304.69 L 529.69 496.88" stroke="white" fill="transparent"/>
	<path d = "M 142.97 372.66 L 150.00 377.34 L 182.81 227.34 L 189.84 225.00 L 201.56 246.09 L 225.00 337.50 L 290.62 178.12 L 297.66 328.12 L 351.56 269.53 L 393.75 180.47 L 403.12 213.28 L 407.81 398.44 L 426.56 356.25 L 435.94 363.28 L 440.62 440.62 L 433.59 447.66 L 220.31 435.94 L 150.00 426.56 L 128.91 417.19 L 159.38 363.28" stroke="white" fill="transparent"/>
</svg>