<?xml version="1.0" encoding="UTF-8" standalone="no"?>
<!--Created with ndjsontosvg (https:https://github.com/thompson318/ndjsontosvg) 
	from the simplified Google quickdraw data set. key_id = 5726716041363456-->
<svg width="600" height="600"
	xmlns="http://www.w3.org/2000/svg">
	xmlns:ndjsontosvg="https://github.com/thompson318/ndjsontosvg"
	xmlns:quickdraw="https://quickdraw.withgoogle.com/data"
	xmlns:scikit-surgery="https://doi.org/10.1007/s11548-020-02180-5">

	<rect width="100%" height="100%" fill="black" />
	<path d = "M 98.44 370.31 L 96.09 250.78 L 72.66 119.53 L 138.28 304.69 L 201.56 82.03 L 210.94 131.25 L 206.25 316.41 L 215.62 356.25 L 229.69 349.22 L 255.47 316.41 L 328.12 189.84 L 358.59 119.53 L 367.97 70.31 L 360.94 105.47 L 363.28 253.12 L 375.00 304.69 L 391.41 330.47 L 400.78 332.81 L 421.88 316.41 L 459.38 248.44 L 503.91 91.41 L 501.56 225.00 L 513.28 323.44 L 527.34 349.22 L 539.06 335.16 L 550.78 285.94 L 548.44 243.75" stroke="white" fill="transparent"/>
	<path d = "M 49.22 396.09 L 321.09 379.69 L 546.09 386.72 L 564.84 379.69 L 585.94 339.84 L 595.31 285.94 L 590.62 65.62 L 583.59 30.47 L 574.22 14.06 L 522.66 0.00 L 11.72 46.88 L 0.00 60.94 L 11.72 269.53 L 37.50 398.44" stroke="white" fill="transparent"/>
</svg>