<?xml version="1.0" encoding="UTF-8" standalone="no"?>
<!--Created with ndjsontosvg (https:https://github.com/thompson318/ndjsontosvg) 
	from the simplified Google quickdraw data set. key_id = 6233273611059200-->
<svg width="600" height="600"
	xmlns="http://www.w3.org/2000/svg">
	xmlns:ndjsontosvg="https://github.com/thompson318/ndjsontosvg"
	xmlns:quickdraw="https://quickdraw.withgoogle.com/data"
	xmlns:scikit-surgery="https://doi.org/10.1007/s11548-020-02180-5">

	<rect width="100%" height="100%" fill="black" />
	<path d = "M 590.62 4.69 L 562.50 67.97 L 513.28 112.50 L 468.75 138.28 L 417.19 154.69 L 332.81 166.41 L 213.28 164.06 L 91.41 142.97 L 21.09 121.88 L 4.69 103.12 L 0.00 70.31 L 25.78 18.75 L 46.88 9.38 L 75.00 9.38 L 131.25 28.12 L 154.69 49.22 L 225.00 152.34 L 274.22 196.88 L 412.50 274.22 L 473.44 297.66 L 508.59 302.34 L 527.34 288.28 L 543.75 248.44 L 557.81 171.09 L 557.81 100.78 L 567.19 60.94 L 597.66 0.00" stroke="white" fill="transparent"/>
	<path d = "M 482.81 159.38 L 489.84 152.34 L 494.53 159.38 L 485.16 185.16 L 480.47 164.06 L 494.53 147.66 L 499.22 159.38 L 489.84 168.75 L 487.50 157.03" stroke="white" fill="transparent"/>
	<path d = "M 375.00 161.72 L 379.69 75.00 L 375.00 58.59 L 356.25 49.22 L 321.09 53.91 L 269.53 84.38 L 232.03 112.50 L 213.28 138.28" stroke="white" fill="transparent"/>
</svg>