<?xml version="1.0" encoding="UTF-8" standalone="no"?>
<!--Created with ndjsontosvg (https:https://github.com/thompson318/ndjsontosvg) 
	from the simplified Google quickdraw data set. key_id = 6710189182943232-->
<svg width="600" height="600"
	xmlns="http://www.w3.org/2000/svg">
	xmlns:ndjsontosvg="https://github.com/thompson318/ndjsontosvg"
	xmlns:quickdraw="https://quickdraw.withgoogle.com/data"
	xmlns:scikit-surgery="https://doi.org/10.1007/s11548-020-02180-5">

	<rect width="100%" height="100%" fill="black" />
	<path d = "M 0.00 276.56 L 18.75 217.97 L 39.84 178.12 L 82.03 126.56 L 121.88 91.41 L 182.81 58.59 L 290.62 53.91 L 311.72 58.59 L 353.91 91.41 L 414.84 159.38 L 457.03 269.53 L 522.66 349.22 L 541.41 328.12 L 557.81 138.28 L 597.66 11.72 L 581.25 0.00 L 520.31 35.16 L 489.84 65.62 L 403.12 201.56 L 335.16 330.47 L 307.03 360.94 L 267.19 382.03 L 159.38 396.09 L 121.88 384.38 L 60.94 339.84 L 9.38 253.12" stroke="white" fill="transparent"/>
	<path d = "M 100.78 185.16 L 100.78 185.16" stroke="white" fill="transparent"/>
	<path d = "M 131.25 210.94 L 131.25 185.16" stroke="white" fill="transparent"/>
</svg>