<?xml version="1.0" encoding="UTF-8" standalone="no"?>
<!--Created with ndjsontosvg (https:https://github.com/thompson318/ndjsontosvg) 
	from the simplified Google quickdraw data set. key_id = 5678352281108480-->
<svg width="600" height="600"
	xmlns="http://www.w3.org/2000/svg">
	xmlns:ndjsontosvg="https://github.com/thompson318/ndjsontosvg"
	xmlns:quickdraw="https://quickdraw.withgoogle.com/data"
	xmlns:scikit-surgery="https://doi.org/10.1007/s11548-020-02180-5">

	<rect width="100%" height="100%" fill="black" />
	<path d = "M 9.38 60.94 L 0.00 520.31 L 16.41 480.47 L 58.59 428.91 L 217.97 285.94" stroke="white" fill="transparent"/>
	<path d = "M 0.00 44.53 L 117.19 119.53 L 182.81 178.12 L 192.19 161.72 L 206.25 70.31 L 236.72 28.12 L 269.53 9.38 L 318.75 0.00 L 414.84 0.00 L 496.88 25.78 L 548.44 63.28 L 571.88 89.06 L 592.97 135.94 L 595.31 208.59 L 564.84 257.81 L 522.66 300.00 L 485.16 321.09 L 419.53 346.88 L 351.56 351.56 L 304.69 344.53 L 227.34 290.62 L 203.91 260.16 L 208.59 239.06" stroke="white" fill="transparent"/>
	<path d = "M 485.16 89.06 L 468.75 84.38 L 464.06 96.09 L 459.38 140.62 L 471.09 138.28 L 482.81 114.84 L 478.12 105.47 L 466.41 112.50" stroke="white" fill="transparent"/>
</svg>