<?xml version="1.0" encoding="UTF-8" standalone="no"?>
<!--Created with ndjsontosvg (https:https://github.com/thompson318/ndjsontosvg) 
	from the simplified Google quickdraw data set. key_id = 6294468858740736-->
<svg width="600" height="600"
	xmlns="http://www.w3.org/2000/svg">
	xmlns:ndjsontosvg="https://github.com/thompson318/ndjsontosvg"
	xmlns:quickdraw="https://quickdraw.withgoogle.com/data"
	xmlns:scikit-surgery="https://doi.org/10.1007/s11548-020-02180-5">

	<rect width="100%" height="100%" fill="black" />
	<path d = "M 208.59 208.59 L 220.31 173.44 L 267.19 135.94 L 323.44 124.22 L 363.28 147.66 L 417.19 206.25 L 464.06 278.91 L 466.41 332.81 L 442.97 398.44 L 379.69 489.84 L 344.53 503.91 L 255.47 508.59 L 220.31 501.56 L 161.72 468.75 L 150.00 442.97 L 138.28 475.78 L 65.62 595.31 L 21.09 307.03 L 0.00 103.12 L 0.00 0.00 L 9.38 2.34 L 194.53 189.84" stroke="white" fill="transparent"/>
	<path d = "M 360.94 285.94 L 349.22 274.22 L 344.53 241.41 L 344.53 213.28 L 353.91 203.91 L 375.00 246.09 L 365.62 278.91 L 325.78 288.28 L 316.41 283.59 L 307.03 262.50 L 311.72 220.31 L 346.88 201.56 L 358.59 210.94 L 377.34 253.12 L 384.38 309.38 L 349.22 309.38 L 330.47 281.25 L 335.16 243.75 L 365.62 239.06 L 372.66 274.22 L 346.88 295.31 L 325.78 297.66 L 314.06 250.78" stroke="white" fill="transparent"/>
</svg>