<?xml version="1.0" encoding="UTF-8" standalone="no"?>
<!--Created with ndjsontosvg (https:https://github.com/thompson318/ndjsontosvg) 
	from the simplified Google quickdraw data set. key_id = 5908524003491840-->
<svg width="600" height="600"
	xmlns="http://www.w3.org/2000/svg">
	xmlns:ndjsontosvg="https://github.com/thompson318/ndjsontosvg"
	xmlns:quickdraw="https://quickdraw.withgoogle.com/data"
	xmlns:scikit-surgery="https://doi.org/10.1007/s11548-020-02180-5">

	<rect width="100%" height="100%" fill="black" />
	<path d = "M 82.03 25.78 L 53.91 23.44 L 30.47 37.50 L 0.00 86.72 L 32.81 63.28 L 86.72 67.97 L 96.09 56.25 L 93.75 32.81" stroke="white" fill="transparent"/>
	<path d = "M 89.06 35.16 L 100.78 7.03 L 114.84 0.00 L 140.62 4.69 L 150.00 28.12" stroke="white" fill="transparent"/>
	<path d = "M 93.75 67.97 L 110.16 70.31 L 138.28 53.91" stroke="white" fill="transparent"/>
	<path d = "M 152.34 23.44 L 164.06 46.88 L 161.72 86.72 L 142.97 117.19 L 103.12 152.34" stroke="white" fill="transparent"/>
	<path d = "M 138.28 44.53 L 145.31 70.31 L 142.97 93.75 L 82.03 150.00 L 58.59 189.84 L 58.59 217.97 L 82.03 236.72" stroke="white" fill="transparent"/>
	<path d = "M 107.81 152.34 L 35.16 285.94 L 56.25 283.59 L 67.97 269.53" stroke="white" fill="transparent"/>
	<path d = "M 86.72 398.44 L 86.72 398.44" stroke="white" fill="transparent"/>
	<path d = "M 86.72 398.44 L 46.88 372.66" stroke="white" fill="transparent"/>
	<path d = "M 77.34 234.38 L 75.00 285.94 L 100.78 304.69 L 150.00 304.69 L 187.50 295.31 L 227.34 267.19 L 236.72 243.75 L 105.47 232.03 L 79.69 246.09" stroke="white" fill="transparent"/>
	<path d = "M 58.59 222.66 L 11.72 307.03 L 14.06 330.47 L 56.25 346.88 L 112.50 346.88 L 164.06 332.81" stroke="white" fill="transparent"/>
	<path d = "M 159.38 314.06 L 28.12 492.19 L 135.94 478.12" stroke="white" fill="transparent"/>
	<path d = "M 145.31 316.41 L 131.25 433.59 L 124.22 597.66" stroke="white" fill="transparent"/>
	<path d = "M 234.38 131.25 L 234.38 131.25" stroke="white" fill="transparent"/>
	<path d = "M 234.38 131.25 L 199.22 185.16" stroke="white" fill="transparent"/>
</svg>