<?xml version="1.0" encoding="UTF-8" standalone="no"?>
<!--Created with ndjsontosvg (https:https://github.com/thompson318/ndjsontosvg) 
	from the simplified Google quickdraw data set. key_id = 6553376202424320-->
<svg width="600" height="600"
	xmlns="http://www.w3.org/2000/svg">
	xmlns:ndjsontosvg="https://github.com/thompson318/ndjsontosvg"
	xmlns:quickdraw="https://quickdraw.withgoogle.com/data"
	xmlns:scikit-surgery="https://doi.org/10.1007/s11548-020-02180-5">

	<rect width="100%" height="100%" fill="black" />
	<path d = "M 229.69 597.66 L 229.69 597.66" stroke="white" fill="transparent"/>
	<path d = "M 220.31 0.00 L 290.62 0.00 L 339.84 14.06 L 353.91 25.78 L 353.91 35.16 L 323.44 53.91 L 234.38 63.28 L 225.00 46.88 L 229.69 2.34" stroke="white" fill="transparent"/>
	<path d = "M 232.03 67.97 L 215.62 89.06 L 208.59 112.50 L 199.22 192.19 L 114.84 210.94 L 58.59 241.41 L 9.38 288.28 L 0.00 330.47 L 30.47 365.62 L 82.03 377.34 L 142.97 363.28 L 194.53 337.50 L 278.91 269.53 L 300.00 234.38 L 300.00 222.66 L 285.94 213.28 L 236.72 194.53" stroke="white" fill="transparent"/>
	<path d = "M 105.47 382.03 L 117.19 435.94 L 112.50 539.06 L 119.53 564.84 L 208.59 553.12" stroke="white" fill="transparent"/>
</svg>