<?xml version="1.0" encoding="UTF-8" standalone="no"?>
<!--Created with ndjsontosvg (https:https://github.com/thompson318/ndjsontosvg) 
	from the simplified Google quickdraw data set. key_id = 6311140931928064-->
<svg width="600" height="600"
	xmlns="http://www.w3.org/2000/svg">
	xmlns:ndjsontosvg="https://github.com/thompson318/ndjsontosvg"
	xmlns:quickdraw="https://quickdraw.withgoogle.com/data"
	xmlns:scikit-surgery="https://doi.org/10.1007/s11548-020-02180-5">

	<rect width="100%" height="100%" fill="black" />
	<path d = "M 210.94 121.88 L 201.56 58.59 L 185.16 30.47 L 164.06 9.38 L 131.25 0.00 L 77.34 0.00 L 42.19 14.06 L 25.78 30.47 L 4.69 75.00 L 0.00 140.62 L 23.44 192.19 L 53.91 215.62" stroke="white" fill="transparent"/>
	<path d = "M 56.25 187.50 L 58.59 229.69 L 91.41 285.94 L 86.72 168.75" stroke="white" fill="transparent"/>
	<path d = "M 96.09 278.91 L 112.50 250.78 L 114.84 187.50 L 112.50 166.41 L 77.34 107.81 L 77.34 89.06 L 86.72 72.66 L 124.22 67.97 L 147.66 79.69 L 164.06 119.53 L 166.41 250.78 L 175.78 274.22 L 189.84 281.25" stroke="white" fill="transparent"/>
	<path d = "M 206.25 119.53 L 208.59 180.47 L 220.31 213.28" stroke="white" fill="transparent"/>
	<path d = "M 229.69 213.28 L 271.88 187.50 L 398.44 185.16 L 457.03 210.94 L 499.22 253.12" stroke="white" fill="transparent"/>
	<path d = "M 199.22 278.91 L 210.94 300.00 L 255.47 321.09 L 328.12 325.78 L 412.50 323.44 L 454.69 314.06 L 482.81 302.34 L 506.25 250.78 L 501.56 241.41" stroke="white" fill="transparent"/>
	<path d = "M 274.22 236.72 L 328.12 243.75 L 398.44 227.34 L 410.16 255.47 L 417.19 257.81 L 403.12 283.59 L 363.28 300.00 L 314.06 304.69 L 271.88 274.22" stroke="white" fill="transparent"/>
	<path d = "M 283.59 321.09 L 297.66 546.09 L 297.66 569.53 L 285.94 576.56 L 311.72 553.12 L 330.47 574.22 L 332.81 567.19 L 311.72 555.47 L 307.03 597.66" stroke="white" fill="transparent"/>
	<path d = "M 351.56 342.19 L 351.56 342.19" stroke="white" fill="transparent"/>
</svg>