<?xml version="1.0" encoding="UTF-8" standalone="no"?>
<!--Created with ndjsontosvg (https:https://github.com/thompson318/ndjsontosvg) 
	from the simplified Google quickdraw data set. key_id = 5060971615748096-->
<svg width="600" height="600"
	xmlns="http://www.w3.org/2000/svg">
	xmlns:ndjsontosvg="https://github.com/thompson318/ndjsontosvg"
	xmlns:quickdraw="https://quickdraw.withgoogle.com/data"
	xmlns:scikit-surgery="https://doi.org/10.1007/s11548-020-02180-5">

	<rect width="100%" height="100%" fill="black" />
	<path d = "M 168.75 75.00 L 121.88 91.41 L 0.00 157.03 L 187.50 105.47" stroke="white" fill="transparent"/>
	<path d = "M 175.78 63.28 L 203.91 23.44 L 241.41 4.69 L 285.94 2.34 L 335.16 25.78 L 346.88 51.56 L 339.84 128.91 L 344.53 157.03 L 360.94 178.12 L 410.16 208.59 L 435.94 239.06 L 459.38 285.94 L 464.06 337.50" stroke="white" fill="transparent"/>
	<path d = "M 302.34 241.41 L 323.44 281.25 L 360.94 316.41 L 433.59 337.50 L 475.78 339.84" stroke="white" fill="transparent"/>
	<path d = "M 175.78 63.28 L 173.44 110.16 L 192.19 147.66 L 215.62 302.34 L 250.78 353.91 L 292.97 370.31 L 367.97 384.38 L 431.25 379.69 L 471.09 353.91" stroke="white" fill="transparent"/>
	<path d = "M 372.66 386.72 L 358.59 597.66" stroke="white" fill="transparent"/>
	<path d = "M 328.12 398.44 L 269.53 461.72 L 267.19 468.75 L 276.56 473.44 L 339.84 475.78 L 461.72 454.69" stroke="white" fill="transparent"/>
</svg>