<?xml version="1.0" encoding="UTF-8" standalone="no"?>
<!--Created with ndjsontosvg (https:https://github.com/thompson318/ndjsontosvg) 
	from the simplified Google quickdraw data set. key_id = 5590837327036416-->
<svg width="600" height="600"
	xmlns="http://www.w3.org/2000/svg">
	xmlns:ndjsontosvg="https://github.com/thompson318/ndjsontosvg"
	xmlns:quickdraw="https://quickdraw.withgoogle.com/data"
	xmlns:scikit-surgery="https://doi.org/10.1007/s11548-020-02180-5">

	<rect width="100%" height="100%" fill="black" />
	<path d = "M 246.09 67.97 L 382.03 82.03 L 391.41 117.19 L 281.25 117.19 L 229.69 105.47 L 168.75 119.53 L 168.75 53.91 L 194.53 4.69 L 246.09 67.97" stroke="white" fill="transparent"/>
	<path d = "M 147.66 11.72 L 107.81 0.00" stroke="white" fill="transparent"/>
	<path d = "M 131.25 39.84 L 84.38 42.19" stroke="white" fill="transparent"/>
	<path d = "M 114.84 86.72 L 63.28 91.41" stroke="white" fill="transparent"/>
	<path d = "M 131.25 82.03 L 103.12 84.38" stroke="white" fill="transparent"/>
	<path d = "M 152.34 105.47 L 37.50 117.19" stroke="white" fill="transparent"/>
	<path d = "M 243.75 67.97 L 227.34 91.41 L 234.38 112.50" stroke="white" fill="transparent"/>
	<path d = "M 229.69 82.03 L 386.72 86.72" stroke="white" fill="transparent"/>
	<path d = "M 264.84 91.41 L 260.16 107.81 L 314.06 107.81 L 311.72 98.44 L 264.84 96.09" stroke="white" fill="transparent"/>
	<path d = "M 285.94 98.44 L 283.59 110.16" stroke="white" fill="transparent"/>
	<path d = "M 274.22 100.78 L 269.53 100.78" stroke="white" fill="transparent"/>
	<path d = "M 295.31 103.12 L 300.00 103.12" stroke="white" fill="transparent"/>
	<path d = "M 203.91 16.41 L 182.81 65.62 L 185.16 124.22" stroke="white" fill="transparent"/>
	<path d = "M 363.28 91.41 L 290.62 121.88 L 0.00 185.16 L 152.34 178.12 L 189.84 168.75 L 232.03 150.00 L 239.06 138.28 L 185.16 121.88 L 0.00 91.41 L 592.97 138.28 L 175.78 121.88 L 201.56 112.50" stroke="white" fill="transparent"/>
</svg>