<?xml version="1.0" encoding="UTF-8" standalone="no"?>
<!--Created with ndjsontosvg (https:https://github.com/thompson318/ndjsontosvg) 
	from the simplified Google quickdraw data set. key_id = 5709338905673728-->
<svg width="600" height="600"
	xmlns="http://www.w3.org/2000/svg">
	xmlns:ndjsontosvg="https://github.com/thompson318/ndjsontosvg"
	xmlns:quickdraw="https://quickdraw.withgoogle.com/data"
	xmlns:scikit-surgery="https://doi.org/10.1007/s11548-020-02180-5">

	<rect width="100%" height="100%" fill="black" />
	<path d = "M 229.69 18.75 L 232.03 75.00 L 208.59 131.25 L 241.41 77.34 L 241.41 53.91 L 229.69 16.41 L 236.72 11.72 L 337.50 23.44 L 370.31 63.28 L 382.03 65.62 L 503.91 51.56 L 569.53 51.56 L 590.62 65.62 L 597.66 89.06 L 569.53 103.12 L 405.47 112.50 L 370.31 145.31 L 342.19 154.69 L 257.81 154.69 L 208.59 133.59" stroke="white" fill="transparent"/>
	<path d = "M 173.44 18.75 L 18.75 4.69" stroke="white" fill="transparent"/>
	<path d = "M 126.56 72.66 L 0.00 84.38" stroke="white" fill="transparent"/>
	<path d = "M 133.59 117.19 L 9.38 166.41" stroke="white" fill="transparent"/>
	<path d = "M 142.97 178.12 L 98.44 208.59" stroke="white" fill="transparent"/>
	<path d = "M 234.38 9.38 L 271.88 30.47 L 285.94 65.62 L 285.94 96.09 L 271.88 119.53 L 260.16 135.94 L 239.06 142.97 L 227.34 142.97 L 199.22 112.50 L 194.53 42.19 L 225.00 4.69 L 239.06 0.00 L 255.47 9.38" stroke="white" fill="transparent"/>
</svg>