<?xml version="1.0" encoding="UTF-8" standalone="no"?>
<!--Created with ndjsontosvg (https:https://github.com/thompson318/ndjsontosvg) 
	from the simplified Google quickdraw data set. key_id = 5256704738459648-->
<svg width="600" height="600"
	xmlns="http://www.w3.org/2000/svg">
	xmlns:ndjsontosvg="https://github.com/thompson318/ndjsontosvg"
	xmlns:quickdraw="https://quickdraw.withgoogle.com/data"
	xmlns:scikit-surgery="https://doi.org/10.1007/s11548-020-02180-5">

	<rect width="100%" height="100%" fill="black" />
	<path d = "M 89.06 342.19 L 100.78 419.53 L 103.12 590.62 L 114.84 597.66 L 173.44 597.66 L 201.56 588.28 L 203.91 428.91 L 220.31 311.72 L 257.81 276.56 L 290.62 227.34 L 295.31 182.81" stroke="white" fill="transparent"/>
	<path d = "M 89.06 339.84 L 51.56 323.44 L 16.41 290.62 L 0.00 246.09 L 2.34 182.81 L 119.53 161.72 L 304.69 164.06" stroke="white" fill="transparent"/>
	<path d = "M 44.53 154.69 L 46.88 25.78" stroke="white" fill="transparent"/>
	<path d = "M 82.03 103.12 L 100.78 86.72 L 150.00 0.00" stroke="white" fill="transparent"/>
	<path d = "M 187.50 70.31 L 210.94 70.31 L 328.12 23.44" stroke="white" fill="transparent"/>
	<path d = "M 257.81 126.56 L 410.16 121.88" stroke="white" fill="transparent"/>
</svg>