<?xml version="1.0" encoding="UTF-8" standalone="no"?>
<!--Created with ndjsontosvg (https:https://github.com/thompson318/ndjsontosvg) 
	from the simplified Google quickdraw data set. key_id = 5912841926213632-->
<svg width="600" height="600"
	xmlns="http://www.w3.org/2000/svg">
	xmlns:ndjsontosvg="https://github.com/thompson318/ndjsontosvg"
	xmlns:quickdraw="https://quickdraw.withgoogle.com/data"
	xmlns:scikit-surgery="https://doi.org/10.1007/s11548-020-02180-5">

	<rect width="100%" height="100%" fill="black" />
	<path d = "M 105.47 342.19 L 89.06 595.31 L 154.69 595.31 L 203.91 583.59 L 206.25 489.84 L 196.88 342.19 L 297.66 288.28 L 328.12 262.50 L 365.62 206.25 L 342.19 196.88 L 311.72 201.56 L 232.03 196.88 L 89.06 208.59 L 11.72 225.00 L 0.00 250.78 L 11.72 283.59 L 42.19 323.44 L 84.38 353.91" stroke="white" fill="transparent"/>
	<path d = "M 70.31 180.47 L 46.88 152.34 L 16.41 84.38 L 9.38 44.53" stroke="white" fill="transparent"/>
	<path d = "M 133.59 187.50 L 119.53 126.56 L 119.53 16.41" stroke="white" fill="transparent"/>
	<path d = "M 208.59 196.88 L 215.62 131.25 L 232.03 82.03 L 274.22 7.03 L 285.94 0.00 L 283.59 7.03" stroke="white" fill="transparent"/>
	<path d = "M 290.62 164.06 L 363.28 133.59 L 468.75 77.34 L 534.38 56.25 L 557.81 39.84 L 567.19 30.47 L 553.12 37.50" stroke="white" fill="transparent"/>
</svg>