<?xml version="1.0" encoding="UTF-8" standalone="no"?>
<!--Created with ndjsontosvg (https:https://github.com/thompson318/ndjsontosvg) 
	from the simplified Google quickdraw data set. key_id = 5078886440239104-->
<svg width="600" height="600"
	xmlns="http://www.w3.org/2000/svg">
	xmlns:ndjsontosvg="https://github.com/thompson318/ndjsontosvg"
	xmlns:quickdraw="https://quickdraw.withgoogle.com/data"
	xmlns:scikit-surgery="https://doi.org/10.1007/s11548-020-02180-5">

	<rect width="100%" height="100%" fill="black" />
	<path d = "M 269.53 77.34 L 260.16 121.88 L 262.50 222.66 L 267.19 227.34 L 295.31 171.09 L 309.38 86.72 L 295.31 67.97 L 274.22 65.62" stroke="white" fill="transparent"/>
	<path d = "M 295.31 53.91 L 353.91 84.38 L 421.88 103.12 L 431.25 117.19 L 405.47 220.31 L 353.91 225.00 L 274.22 213.28" stroke="white" fill="transparent"/>
	<path d = "M 412.50 126.56 L 506.25 142.97 L 592.97 166.41 L 595.31 215.62 L 588.28 227.34 L 574.22 227.34 L 515.62 199.22 L 435.94 192.19 L 398.44 180.47" stroke="white" fill="transparent"/>
	<path d = "M 267.19 117.19 L 206.25 70.31 L 58.59 0.00" stroke="white" fill="transparent"/>
	<path d = "M 255.47 133.59 L 173.44 105.47 L 0.00 82.03" stroke="white" fill="transparent"/>
	<path d = "M 243.75 164.06 L 138.28 150.00 L 25.78 147.66" stroke="white" fill="transparent"/>
	<path d = "M 255.47 173.44 L 187.50 168.75 L 37.50 213.28" stroke="white" fill="transparent"/>
</svg>