<?xml version="1.0" encoding="UTF-8" standalone="no"?>
<!--Created with ndjsontosvg (https:https://github.com/thompson318/ndjsontosvg) 
	from the simplified Google quickdraw data set. key_id = 5349314073198592-->
<svg width="600" height="600"
	xmlns="http://www.w3.org/2000/svg">
	xmlns:ndjsontosvg="https://github.com/thompson318/ndjsontosvg"
	xmlns:quickdraw="https://quickdraw.withgoogle.com/data"
	xmlns:scikit-surgery="https://doi.org/10.1007/s11548-020-02180-5">

	<rect width="100%" height="100%" fill="black" />
	<path d = "M 302.34 79.69 L 307.03 215.62" stroke="white" fill="transparent"/>
	<path d = "M 314.06 82.03 L 412.50 77.34 L 447.66 103.12 L 459.38 133.59 L 461.72 178.12 L 445.31 208.59 L 417.19 220.31 L 379.69 225.00 L 339.84 220.31" stroke="white" fill="transparent"/>
	<path d = "M 485.16 63.28 L 510.94 37.50 L 576.56 0.00" stroke="white" fill="transparent"/>
	<path d = "M 506.25 124.22 L 588.28 150.00" stroke="white" fill="transparent"/>
	<path d = "M 496.88 232.03 L 592.97 236.72" stroke="white" fill="transparent"/>
	<path d = "M 292.97 105.47 L 276.56 119.53 L 267.19 150.00 L 262.50 171.09 L 269.53 192.19 L 297.66 220.31 L 365.62 210.94" stroke="white" fill="transparent"/>
	<path d = "M 267.19 140.62 L 2.34 159.38 L 4.69 215.62 L 18.75 260.16 L 42.19 271.88 L 117.19 264.84 L 290.62 225.00 L 349.22 203.91" stroke="white" fill="transparent"/>
</svg>