<?xml version="1.0" encoding="UTF-8" standalone="no"?>
<!--Created with ndjsontosvg (https:https://github.com/thompson318/ndjsontosvg) 
	from the simplified Google quickdraw data set. key_id = 6261860133240832-->
<svg width="600" height="600"
	xmlns="http://www.w3.org/2000/svg">
	xmlns:ndjsontosvg="https://github.com/thompson318/ndjsontosvg"
	xmlns:quickdraw="https://quickdraw.withgoogle.com/data"
	xmlns:scikit-surgery="https://doi.org/10.1007/s11548-020-02180-5">

	<rect width="100%" height="100%" fill="black" />
	<path d = "M 100.78 307.03 L 63.28 370.31 L 14.06 426.56 L 0.00 457.03 L 2.34 466.41 L 86.72 539.06 L 100.78 567.19 L 232.03 344.53 L 241.41 339.84 L 292.97 391.41 L 314.06 391.41 L 346.88 382.03 L 367.97 367.97 L 379.69 325.78 L 365.62 264.84 L 349.22 232.03 L 325.78 213.28 L 260.16 161.72 L 182.81 150.00 L 145.31 161.72 L 114.84 192.19 L 110.16 208.59 L 121.88 229.69 L 180.47 262.50 L 182.81 269.53 L 128.91 314.06 L 103.12 349.22" stroke="white" fill="transparent"/>
	<path d = "M 260.16 145.31 L 278.91 0.00" stroke="white" fill="transparent"/>
	<path d = "M 318.75 187.50 L 473.44 112.50" stroke="white" fill="transparent"/>
	<path d = "M 367.97 243.75 L 597.66 189.84" stroke="white" fill="transparent"/>
</svg>