<?xml version="1.0" encoding="UTF-8" standalone="no"?>
<!--Created with ndjsontosvg (https:https://github.com/thompson318/ndjsontosvg) 
	from the simplified Google quickdraw data set. key_id = 6426779705147392-->
<svg width="600" height="600"
	xmlns="http://www.w3.org/2000/svg">
	xmlns:ndjsontosvg="https://github.com/thompson318/ndjsontosvg"
	xmlns:quickdraw="https://quickdraw.withgoogle.com/data"
	xmlns:scikit-surgery="https://doi.org/10.1007/s11548-020-02180-5">

	<rect width="100%" height="100%" fill="black" />
	<path d = "M 23.44 60.94 L 14.06 75.00 L 7.03 126.56 L 4.69 339.84 L 42.19 529.69 L 75.00 571.88 L 107.81 588.28 L 161.72 597.66 L 192.19 588.28 L 217.97 557.81 L 241.41 445.31 L 255.47 225.00 L 241.41 112.50 L 208.59 51.56 L 168.75 7.03 L 100.78 2.34 L 9.38 44.53 L 0.00 77.34 L 2.34 131.25 L 9.38 161.72 L 23.44 175.78" stroke="white" fill="transparent"/>
	<path d = "M 110.16 117.19 L 72.66 227.34 L 35.16 292.97 L 2.34 325.78" stroke="white" fill="transparent"/>
	<path d = "M 126.56 138.28 L 135.94 196.88 L 178.12 304.69 L 220.31 363.28 L 253.12 382.03" stroke="white" fill="transparent"/>
	<path d = "M 138.28 154.69 L 124.22 147.66 L 110.16 107.81 L 117.19 117.19" stroke="white" fill="transparent"/>
</svg>