<?xml version="1.0" encoding="UTF-8" standalone="no"?>
<!--Created with ndjsontosvg (https:https://github.com/thompson318/ndjsontosvg) 
	from the simplified Google quickdraw data set. key_id = 5799786978476032-->
<svg width="600" height="600"
	xmlns="http://www.w3.org/2000/svg">
	xmlns:ndjsontosvg="https://github.com/thompson318/ndjsontosvg"
	xmlns:quickdraw="https://quickdraw.withgoogle.com/data"
	xmlns:scikit-surgery="https://doi.org/10.1007/s11548-020-02180-5">

	<rect width="100%" height="100%" fill="black" />
	<path d = "M 25.78 166.41 L 49.22 220.31 L 67.97 295.31 L 72.66 496.88 L 79.69 534.38 L 91.41 555.47 L 126.56 583.59 L 171.09 597.66 L 227.34 555.47 L 248.44 475.78 L 255.47 166.41 L 246.09 72.66 L 232.03 44.53 L 147.66 7.03 L 86.72 0.00 L 49.22 11.72 L 18.75 30.47 L 0.00 56.25 L 4.69 119.53 L 25.78 175.78" stroke="white" fill="transparent"/>
	<path d = "M 105.47 39.84 L 112.50 182.81" stroke="white" fill="transparent"/>
	<path d = "M 23.44 192.19 L 194.53 187.50 L 292.97 208.59" stroke="white" fill="transparent"/>
	<path d = "M 53.91 239.06 L 229.69 239.06 L 269.53 248.44" stroke="white" fill="transparent"/>
</svg>