<?xml version="1.0" encoding="UTF-8" standalone="no"?>
<!--Created with ndjsontosvg (https:https://github.com/thompson318/ndjsontosvg) 
	from the simplified Google quickdraw data set. key_id = 6461134578122752-->
<svg width="600" height="600"
	xmlns="http://www.w3.org/2000/svg">
	xmlns:ndjsontosvg="https://github.com/thompson318/ndjsontosvg"
	xmlns:quickdraw="https://quickdraw.withgoogle.com/data"
	xmlns:scikit-surgery="https://doi.org/10.1007/s11548-020-02180-5">

	<rect width="100%" height="100%" fill="black" />
	<path d = "M 356.25 142.97 L 356.25 142.97" stroke="white" fill="transparent"/>
	<path d = "M 285.94 271.88 L 344.53 161.72 L 379.69 124.22 L 442.97 82.03 L 489.84 75.00 L 529.69 121.88 L 560.16 192.19 L 576.56 281.25 L 574.22 342.19 L 562.50 370.31 L 527.34 417.19 L 450.00 487.50 L 384.38 534.38 L 271.88 590.62 L 236.72 597.66 L 187.50 592.97 L 161.72 585.94 L 150.00 571.88 L 145.31 517.97 L 206.25 391.41 L 281.25 285.94" stroke="white" fill="transparent"/>
	<path d = "M 468.75 222.66 L 382.03 278.91 L 288.28 311.72" stroke="white" fill="transparent"/>
	<path d = "M 471.09 217.97 L 442.97 302.34 L 442.97 367.97 L 452.34 447.66" stroke="white" fill="transparent"/>
	<path d = "M 65.62 492.19 L 100.78 440.62 L 222.66 187.50 L 269.53 79.69 L 271.88 42.19 L 262.50 21.09 L 246.09 9.38 L 189.84 0.00 L 124.22 0.00 L 60.94 16.41 L 21.09 67.97 L 7.03 128.91 L 11.72 300.00 L 0.00 379.69 L 0.00 421.88 L 35.16 466.41 L 65.62 468.75 L 77.34 457.03" stroke="white" fill="transparent"/>
	<path d = "M 157.03 75.00 L 72.66 145.31" stroke="white" fill="transparent"/>
</svg>