<?xml version="1.0" encoding="UTF-8" standalone="no"?>
<!--Created with ndjsontosvg (https:https://github.com/thompson318/ndjsontosvg) 
	from the simplified Google quickdraw data set. key_id = 5209547016765440-->
<svg width="600" height="600"
	xmlns="http://www.w3.org/2000/svg">
	xmlns:ndjsontosvg="https://github.com/thompson318/ndjsontosvg"
	xmlns:quickdraw="https://quickdraw.withgoogle.com/data"
	xmlns:scikit-surgery="https://doi.org/10.1007/s11548-020-02180-5">

	<rect width="100%" height="100%" fill="black" />
	<path d = "M 145.31 0.00 L 79.69 9.38 L 56.25 21.09 L 35.16 44.53 L 25.78 75.00 L 11.72 164.06 L 16.41 412.50 L 28.12 478.12 L 51.56 515.62 L 96.09 529.69 L 147.66 532.03 L 196.88 513.28 L 215.62 492.19 L 222.66 457.03 L 203.91 290.62 L 201.56 208.59 L 234.38 107.81 L 243.75 46.88 L 225.00 28.12 L 126.56 16.41" stroke="white" fill="transparent"/>
	<path d = "M 117.19 140.62 L 119.53 154.69 L 124.22 147.66 L 110.16 142.97" stroke="white" fill="transparent"/>
	<path d = "M 114.84 147.66 L 46.88 203.91 L 21.09 208.59 L 0.00 192.19" stroke="white" fill="transparent"/>
	<path d = "M 133.59 147.66 L 140.62 175.78 L 171.09 201.56 L 206.25 210.94 L 227.34 208.59" stroke="white" fill="transparent"/>
	<path d = "M 391.41 32.81 L 365.62 32.81 L 328.12 53.91 L 297.66 124.22 L 295.31 171.09 L 316.41 206.25 L 384.38 241.41 L 405.47 264.84 L 442.97 363.28 L 459.38 473.44 L 480.47 487.50 L 506.25 487.50 L 555.47 464.06 L 583.59 417.19 L 597.66 257.81 L 581.25 154.69 L 555.47 96.09 L 529.69 67.97 L 499.22 46.88 L 445.31 30.47 L 396.09 32.81" stroke="white" fill="transparent"/>
</svg>