<?xml version="1.0" encoding="UTF-8" standalone="no"?>
<!--Created with ndjsontosvg (https:https://github.com/thompson318/ndjsontosvg) 
	from the simplified Google quickdraw data set. key_id = 5662347802705920-->
<svg width="600" height="600"
	xmlns="http://www.w3.org/2000/svg">
	xmlns:ndjsontosvg="https://github.com/thompson318/ndjsontosvg"
	xmlns:quickdraw="https://quickdraw.withgoogle.com/data"
	xmlns:scikit-surgery="https://doi.org/10.1007/s11548-020-02180-5">

	<rect width="100%" height="100%" fill="black" />
	<path d = "M 46.88 403.12 L 0.00 475.78 L 4.69 496.88 L 30.47 532.03 L 82.03 569.53 L 145.31 588.28 L 199.22 597.66 L 250.78 585.94 L 292.97 546.09 L 346.88 478.12 L 356.25 452.34 L 356.25 421.88 L 283.59 185.16 L 271.88 131.25 L 271.88 82.03 L 243.75 46.88 L 128.91 0.00 L 98.44 23.44 L 60.94 70.31 L 23.44 138.28 L 30.47 232.03 L 14.06 400.78 L 18.75 464.06" stroke="white" fill="transparent"/>
	<path d = "M 131.25 44.53 L 100.78 86.72 L 93.75 107.81 L 79.69 243.75" stroke="white" fill="transparent"/>
	<path d = "M 128.91 56.25 L 152.34 70.31 L 185.16 121.88 L 217.97 239.06" stroke="white" fill="transparent"/>
</svg>