<?xml version="1.0" encoding="UTF-8" standalone="no"?>
<!--Created with ndjsontosvg (https:https://github.com/thompson318/ndjsontosvg) 
	from the simplified Google quickdraw data set. key_id = 4655041556250624-->
<svg width="600" height="600"
	xmlns="http://www.w3.org/2000/svg">
	xmlns:ndjsontosvg="https://github.com/thompson318/ndjsontosvg"
	xmlns:quickdraw="https://quickdraw.withgoogle.com/data"
	xmlns:scikit-surgery="https://doi.org/10.1007/s11548-020-02180-5">

	<rect width="100%" height="100%" fill="black" />
	<path d = "M 18.75 438.28 L 11.72 295.31 L 0.00 215.62 L 4.69 182.81 L 28.12 60.94 L 42.19 42.19 L 75.00 25.78 L 131.25 35.16 L 187.50 98.44 L 220.31 208.59 L 227.34 323.44 L 222.66 358.59 L 208.59 398.44 L 164.06 440.62 L 121.88 450.00 L 39.84 435.94" stroke="white" fill="transparent"/>
	<path d = "M 367.97 417.19 L 349.22 220.31 L 356.25 105.47 L 379.69 37.50 L 412.50 7.03 L 433.59 2.34 L 501.56 2.34 L 546.09 30.47 L 564.84 49.22 L 585.94 86.72 L 597.66 161.72 L 581.25 246.09 L 543.75 337.50 L 510.94 379.69 L 473.44 400.78 L 428.91 412.50" stroke="white" fill="transparent"/>
</svg>