<?xml version="1.0" encoding="UTF-8" standalone="no"?>
<!--Created with ndjsontosvg (https:https://github.com/thompson318/ndjsontosvg) 
	from the simplified Google quickdraw data set. key_id = 5141619105857536-->
<svg width="600" height="600"
	xmlns="http://www.w3.org/2000/svg">
	xmlns:ndjsontosvg="https://github.com/thompson318/ndjsontosvg"
	xmlns:quickdraw="https://quickdraw.withgoogle.com/data"
	xmlns:scikit-surgery="https://doi.org/10.1007/s11548-020-02180-5">

	<rect width="100%" height="100%" fill="black" />
	<path d = "M 154.69 44.53 L 86.72 11.72 L 46.88 9.38 L 28.12 84.38 L 0.00 257.81 L 0.00 396.09 L 23.44 475.78 L 75.00 553.12 L 105.47 585.94 L 135.94 595.31 L 180.47 595.31 L 257.81 487.50 L 271.88 452.34 L 264.84 365.62 L 208.59 290.62 L 185.16 232.03 L 173.44 9.38 L 161.72 0.00 L 142.97 0.00 L 114.84 18.75" stroke="white" fill="transparent"/>
	<path d = "M 152.34 576.56 L 171.09 499.22 L 171.09 452.34 L 147.66 454.69 L 119.53 438.28 L 32.81 330.47 L 11.72 288.28" stroke="white" fill="transparent"/>
	<path d = "M 175.78 442.97 L 203.91 414.84 L 278.91 288.28" stroke="white" fill="transparent"/>
</svg>