<?xml version="1.0" encoding="UTF-8" standalone="no"?>
<!--Created with ndjsontosvg (https:https://github.com/thompson318/ndjsontosvg) 
	from the simplified Google quickdraw data set. key_id = 5373204820393984-->
<svg width="600" height="600"
	xmlns="http://www.w3.org/2000/svg">
	xmlns:ndjsontosvg="https://github.com/thompson318/ndjsontosvg"
	xmlns:quickdraw="https://quickdraw.withgoogle.com/data"
	xmlns:scikit-surgery="https://doi.org/10.1007/s11548-020-02180-5">

	<rect width="100%" height="100%" fill="black" />
	<path d = "M 182.81 562.50 L 53.91 564.84 L 2.34 581.25 L 0.00 590.62 L 21.09 597.66 L 121.88 595.31 L 196.88 585.94 L 229.69 571.88 L 227.34 564.84 L 171.09 560.16" stroke="white" fill="transparent"/>
	<path d = "M 100.78 571.88 L 114.84 553.12 L 128.91 517.97 L 140.62 400.78 L 168.75 332.81 L 154.69 260.16 L 199.22 110.16" stroke="white" fill="transparent"/>
	<path d = "M 257.81 9.38 L 150.00 0.00 L 119.53 9.38 L 110.16 25.78 L 110.16 32.81 L 124.22 39.84 L 253.12 46.88 L 285.94 28.12 L 260.16 7.03 L 250.78 4.69 L 250.78 9.38" stroke="white" fill="transparent"/>
	<path d = "M 283.59 28.12 L 283.59 49.22 L 264.84 70.31 L 206.25 100.78" stroke="white" fill="transparent"/>
</svg>