<?xml version="1.0" encoding="UTF-8" standalone="no"?>
<!--Created with ndjsontosvg (https:https://github.com/thompson318/ndjsontosvg) 
	from the simplified Google quickdraw data set. key_id = 5846649077235712-->
<svg width="600" height="600"
	xmlns="http://www.w3.org/2000/svg">
	xmlns:ndjsontosvg="https://github.com/thompson318/ndjsontosvg"
	xmlns:quickdraw="https://quickdraw.withgoogle.com/data"
	xmlns:scikit-surgery="https://doi.org/10.1007/s11548-020-02180-5">

	<rect width="100%" height="100%" fill="black" />
	<path d = "M 82.03 597.66 L 365.62 597.66 L 454.69 574.22 L 447.66 541.41 L 435.94 527.34 L 405.47 513.28 L 297.66 492.19 L 161.72 478.12 L 46.88 485.16 L 7.03 517.97 L 0.00 532.03 L 21.09 546.09 L 107.81 564.84" stroke="white" fill="transparent"/>
	<path d = "M 185.16 560.16 L 189.84 360.94 L 171.09 185.16 L 154.69 175.78 L 53.91 175.78 L 63.28 121.88" stroke="white" fill="transparent"/>
	<path d = "M 182.81 189.84 L 206.25 182.81 L 325.78 182.81 L 332.81 150.00 L 314.06 93.75" stroke="white" fill="transparent"/>
	<path d = "M 330.47 103.12 L 325.78 70.31 L 297.66 39.84 L 159.38 0.00 L 60.94 173.44" stroke="white" fill="transparent"/>
</svg>