<?xml version="1.0" encoding="UTF-8" standalone="no"?>
<!--Created with ndjsontosvg (https:https://github.com/thompson318/ndjsontosvg) 
	from the simplified Google quickdraw data set. key_id = 5530489106464768-->
<svg width="600" height="600"
	xmlns="http://www.w3.org/2000/svg">
	xmlns:ndjsontosvg="https://github.com/thompson318/ndjsontosvg"
	xmlns:quickdraw="https://quickdraw.withgoogle.com/data"
	xmlns:scikit-surgery="https://doi.org/10.1007/s11548-020-02180-5">

	<rect width="100%" height="100%" fill="black" />
	<path d = "M 0.00 585.94 L 51.56 585.94 L 117.19 597.66 L 281.25 597.66 L 290.62 585.94 L 278.91 553.12 L 253.12 543.75 L 9.38 543.75 L 0.00 557.81 L 7.03 578.91 L 21.09 585.94 L 30.47 574.22 L 65.62 567.19 L 171.09 571.88 L 164.06 546.09 L 150.00 546.09 L 142.97 534.38 L 135.94 454.69 L 135.94 253.12 L 152.34 208.59 L 157.03 152.34 L 142.97 145.31 L 91.41 145.31 L 30.47 128.91 L 39.84 121.88 L 44.53 96.09 L 35.16 79.69 L 28.12 23.44 L 77.34 0.00 L 159.38 2.34 L 225.00 28.12 L 264.84 58.59 L 297.66 65.62 L 276.56 124.22 L 276.56 215.62 L 241.41 164.06 L 142.97 147.66" stroke="white" fill="transparent"/>
</svg>