<?xml version="1.0" encoding="UTF-8" standalone="no"?>
<!--Created with ndjsontosvg (https:https://github.com/thompson318/ndjsontosvg) 
	from the simplified Google quickdraw data set. key_id = 4727337415344128-->
<svg width="600" height="600"
	xmlns="http://www.w3.org/2000/svg">
	xmlns:ndjsontosvg="https://github.com/thompson318/ndjsontosvg"
	xmlns:quickdraw="https://quickdraw.withgoogle.com/data"
	xmlns:scikit-surgery="https://doi.org/10.1007/s11548-020-02180-5">

	<rect width="100%" height="100%" fill="black" />
	<path d = "M 96.09 494.53 L 42.19 485.16 L 9.38 510.94 L 0.00 532.03 L 7.03 553.12 L 23.44 567.19 L 72.66 590.62 L 126.56 597.66 L 196.88 590.62 L 241.41 576.56 L 250.78 560.16 L 236.72 513.28 L 199.22 482.81 L 133.59 459.38" stroke="white" fill="transparent"/>
	<path d = "M 114.84 553.12 L 105.47 487.50 L 105.47 377.34 L 119.53 267.19 L 142.97 161.72 L 145.31 121.88" stroke="white" fill="transparent"/>
	<path d = "M 105.47 107.81 L 133.59 70.31 L 180.47 32.81 L 255.47 4.69 L 302.34 0.00 L 351.56 39.84 L 389.06 98.44 L 403.12 138.28" stroke="white" fill="transparent"/>
	<path d = "M 410.16 117.19 L 367.97 114.84 L 325.78 124.22 L 283.59 145.31 L 260.16 180.47 L 267.19 215.62 L 300.00 246.09 L 344.53 260.16 L 377.34 255.47 L 398.44 232.03 L 421.88 178.12 L 431.25 124.22 L 419.53 84.38" stroke="white" fill="transparent"/>
	<path d = "M 114.84 39.84 L 140.62 42.19" stroke="white" fill="transparent"/>
</svg>