<?xml version="1.0" encoding="UTF-8" standalone="no"?>
<!--Created with ndjsontosvg (https:https://github.com/thompson318/ndjsontosvg) 
	from the simplified Google quickdraw data set. key_id = 5071457090535424-->
<svg width="600" height="600"
	xmlns="http://www.w3.org/2000/svg">
	xmlns:ndjsontosvg="https://github.com/thompson318/ndjsontosvg"
	xmlns:quickdraw="https://quickdraw.withgoogle.com/data"
	xmlns:scikit-surgery="https://doi.org/10.1007/s11548-020-02180-5">

	<rect width="100%" height="100%" fill="black" />
	<path d = "M 278.91 419.53 L 290.62 283.59 L 318.75 213.28 L 307.03 180.47 L 283.59 150.00 L 260.16 138.28 L 220.31 140.62 L 199.22 154.69 L 180.47 185.16 L 135.94 285.94 L 124.22 325.78 L 124.22 377.34 L 133.59 405.47 L 159.38 426.56 L 189.84 438.28 L 225.00 438.28 L 257.81 419.53 L 271.88 403.12 L 274.22 379.69 L 253.12 337.50" stroke="white" fill="transparent"/>
	<path d = "M 290.62 168.75 L 300.00 157.03 L 323.44 150.00 L 370.31 154.69 L 410.16 173.44 L 442.97 206.25 L 471.09 267.19 L 464.06 316.41 L 426.56 356.25 L 377.34 353.91 L 283.59 295.31 L 295.31 328.12" stroke="white" fill="transparent"/>
	<path d = "M 271.88 323.44 L 292.97 325.78 L 304.69 335.16 L 353.91 412.50 L 363.28 461.72 L 330.47 494.53 L 278.91 506.25 L 243.75 494.53 L 180.47 396.09 L 171.09 367.97" stroke="white" fill="transparent"/>
	<path d = "M 182.81 419.53 L 178.12 517.97 L 168.75 553.12 L 145.31 581.25 L 124.22 597.66 L 110.16 595.31 L 70.31 532.03 L 51.56 480.47 L 49.22 426.56 L 60.94 375.00 L 84.38 342.19 L 46.88 332.81 L 23.44 318.75 L 0.00 267.19 L 25.78 201.56 L 58.59 159.38 L 86.72 142.97 L 100.78 166.41 L 89.06 166.41 L 56.25 135.94 L 46.88 121.88 L 49.22 105.47 L 103.12 46.88 L 131.25 37.50 L 180.47 37.50 L 227.34 58.59 L 295.31 159.38" stroke="white" fill="transparent"/>
	<path d = "M 255.47 105.47 L 241.41 67.97 L 243.75 25.78 L 255.47 4.69 L 283.59 4.69 L 323.44 37.50 L 358.59 103.12 L 367.97 138.28 L 367.97 180.47 L 351.56 206.25" stroke="white" fill="transparent"/>
</svg>