<?xml version="1.0" encoding="UTF-8" standalone="no"?>
<!--Created with ndjsontosvg (https:https://github.com/thompson318/ndjsontosvg) 
	from the simplified Google quickdraw data set. key_id = 6296903618658304-->
<svg width="600" height="600"
	xmlns="http://www.w3.org/2000/svg">
	xmlns:ndjsontosvg="https://github.com/thompson318/ndjsontosvg"
	xmlns:quickdraw="https://quickdraw.withgoogle.com/data"
	xmlns:scikit-surgery="https://doi.org/10.1007/s11548-020-02180-5">

	<rect width="100%" height="100%" fill="black" />
	<path d = "M 150.00 140.62 L 166.41 131.25 L 187.50 131.25 L 210.94 147.66 L 229.69 178.12 L 232.03 208.59 L 199.22 241.41 L 178.12 250.78 L 135.94 253.12 L 112.50 229.69 L 105.47 208.59 L 107.81 166.41 L 126.56 133.59" stroke="white" fill="transparent"/>
	<path d = "M 119.53 236.72 L 107.81 257.81 L 75.00 281.25 L 35.16 288.28 L 14.06 267.19 L 0.00 215.62 L 0.00 159.38 L 21.09 126.56 L 49.22 114.84 L 103.12 117.19 L 70.31 114.84 L 44.53 89.06 L 51.56 49.22 L 75.00 16.41 L 91.41 4.69 L 145.31 2.34 L 185.16 30.47 L 225.00 98.44 L 229.69 133.59 L 222.66 140.62 L 234.38 124.22 L 262.50 114.84 L 300.00 114.84 L 328.12 131.25 L 337.50 166.41 L 318.75 189.84 L 276.56 206.25 L 241.41 203.91 L 264.84 206.25 L 290.62 236.72 L 292.97 264.84 L 264.84 290.62 L 234.38 297.66 L 182.81 300.00 L 135.94 253.12" stroke="white" fill="transparent"/>
	<path d = "M 168.75 290.62 L 185.16 382.03 L 189.84 510.94 L 201.56 583.59" stroke="white" fill="transparent"/>
	<path d = "M 161.72 398.44 L 77.34 407.81 L 70.31 428.91 L 79.69 445.31 L 203.91 466.41 L 281.25 508.59 L 307.03 539.06 L 304.69 546.09 L 274.22 548.44 L 203.91 546.09" stroke="white" fill="transparent"/>
</svg>