<?xml version="1.0" encoding="UTF-8" standalone="no"?>
<!--Created with ndjsontosvg (https:https://github.com/thompson318/ndjsontosvg) 
	from the simplified Google quickdraw data set. key_id = 5507085825474560-->
<svg width="600" height="600"
	xmlns="http://www.w3.org/2000/svg">
	xmlns:ndjsontosvg="https://github.com/thompson318/ndjsontosvg"
	xmlns:quickdraw="https://quickdraw.withgoogle.com/data"
	xmlns:scikit-surgery="https://doi.org/10.1007/s11548-020-02180-5">

	<rect width="100%" height="100%" fill="black" />
	<path d = "M 121.88 189.84 L 114.84 358.59 L 138.28 597.66" stroke="white" fill="transparent"/>
	<path d = "M 124.22 166.41 L 91.41 189.84 L 42.19 154.69 L 21.09 114.84 L 23.44 89.06 L 35.16 75.00 L 77.34 70.31 L 133.59 16.41 L 187.50 0.00 L 208.59 4.69 L 229.69 23.44 L 290.62 25.78 L 316.41 51.56 L 321.09 84.38 L 309.38 152.34 L 290.62 178.12 L 227.34 229.69 L 189.84 246.09 L 124.22 248.44 L 107.81 241.41 L 93.75 217.97 L 91.41 187.50" stroke="white" fill="transparent"/>
	<path d = "M 150.00 128.91 L 152.34 105.47 L 173.44 79.69 L 206.25 75.00 L 222.66 82.03 L 239.06 114.84 L 241.41 133.59 L 234.38 152.34 L 213.28 173.44 L 185.16 171.09 L 168.75 152.34 L 175.78 117.19" stroke="white" fill="transparent"/>
	<path d = "M 103.12 332.81 L 9.38 414.84 L 0.00 433.59 L 16.41 450.00 L 42.19 454.69 L 131.25 419.53" stroke="white" fill="transparent"/>
	<path d = "M 138.28 396.09 L 166.41 363.28 L 185.16 307.03 L 161.72 283.59 L 84.38 271.88" stroke="white" fill="transparent"/>
</svg>