<?xml version="1.0" encoding="UTF-8" standalone="no"?>
<!--Created with ndjsontosvg (https:https://github.com/thompson318/ndjsontosvg) 
	from the simplified Google quickdraw data set. key_id = 5258199554850816-->
<svg width="600" height="600"
	xmlns="http://www.w3.org/2000/svg">
	xmlns:ndjsontosvg="https://github.com/thompson318/ndjsontosvg"
	xmlns:quickdraw="https://quickdraw.withgoogle.com/data"
	xmlns:scikit-surgery="https://doi.org/10.1007/s11548-020-02180-5">

	<rect width="100%" height="100%" fill="black" />
	<path d = "M 28.12 288.28 L 187.50 194.53" stroke="white" fill="transparent"/>
	<path d = "M 18.75 243.75 L 100.78 182.81 L 164.06 159.38" stroke="white" fill="transparent"/>
	<path d = "M 0.00 201.56 L 98.44 157.03 L 182.81 100.78" stroke="white" fill="transparent"/>
	<path d = "M 468.75 16.41 L 367.97 0.00 L 318.75 2.34 L 147.66 67.97 L 107.81 91.41 L 103.12 117.19 L 107.81 135.94 L 154.69 171.09 L 203.91 182.81 L 377.34 185.16 L 510.94 152.34 L 583.59 93.75 L 597.66 72.66 L 597.66 60.94 L 585.94 49.22 L 525.00 18.75 L 431.25 18.75" stroke="white" fill="transparent"/>
	<path d = "M 452.34 23.44 L 375.00 53.91 L 239.06 67.97 L 222.66 60.94 L 222.66 18.75" stroke="white" fill="transparent"/>
	<path d = "M 501.56 51.56 L 501.56 51.56" stroke="white" fill="transparent"/>
	<path d = "M 377.34 126.56 L 377.34 126.56" stroke="white" fill="transparent"/>
	<path d = "M 217.97 110.16 L 215.62 107.81" stroke="white" fill="transparent"/>
	<path d = "M 473.44 63.28 L 473.44 63.28" stroke="white" fill="transparent"/>
	<path d = "M 461.72 70.31 L 461.72 70.31" stroke="white" fill="transparent"/>
</svg>