<?xml version="1.0" encoding="UTF-8" standalone="no"?>
<!--Created with ndjsontosvg (https:https://github.com/thompson318/ndjsontosvg) 
	from the simplified Google quickdraw data set. key_id = 4929975163551744-->
<svg width="600" height="600"
	xmlns="http://www.w3.org/2000/svg">
	xmlns:ndjsontosvg="https://github.com/thompson318/ndjsontosvg"
	xmlns:quickdraw="https://quickdraw.withgoogle.com/data"
	xmlns:scikit-surgery="https://doi.org/10.1007/s11548-020-02180-5">

	<rect width="100%" height="100%" fill="black" />
	<path d = "M 442.97 367.97 L 548.44 175.78 L 597.66 117.19 L 513.28 182.81 L 346.88 337.50 L 285.94 379.69 L 276.56 379.69 L 278.91 367.97 L 302.34 332.81 L 382.03 236.72 L 431.25 189.84 L 513.28 131.25 L 529.69 121.88 L 517.97 145.31 L 377.34 283.59 L 278.91 396.09 L 213.28 452.34 L 199.22 452.34 L 189.84 438.28 L 192.19 400.78 L 220.31 283.59 L 274.22 159.38 L 339.84 49.22 L 201.56 164.06 L 79.69 246.09 L 23.44 276.56 L 0.00 271.88 L 0.00 250.78 L 9.38 215.62 L 32.81 178.12 L 100.78 98.44 L 145.31 63.28 L 239.06 14.06 L 278.91 4.69 L 351.56 2.34 L 405.47 30.47 L 450.00 192.19 L 419.53 241.41 L 356.25 290.62 L 332.81 297.66 L 297.66 292.97 L 281.25 274.22 L 257.81 196.88 L 255.47 110.16 L 271.88 60.94 L 285.94 42.19 L 318.75 18.75 L 353.91 11.72 L 405.47 21.09 L 457.03 53.91 L 489.84 100.78 L 487.50 121.88 L 438.28 147.66 L 403.12 154.69 L 328.12 152.34 L 297.66 135.94 L 300.00 112.50 L 318.75 98.44 L 346.88 91.41 L 403.12 91.41 L 457.03 103.12 L 499.22 135.94 L 501.56 147.66 L 473.44 189.84 L 393.75 239.06 L 332.81 267.19 L 243.75 278.91 L 229.69 276.56 L 215.62 262.50 L 208.59 246.09 L 217.97 201.56 L 255.47 138.28 L 276.56 119.53 L 346.88 82.03 L 419.53 77.34 L 478.12 100.78 L 529.69 147.66 L 539.06 196.88 L 492.19 262.50 L 412.50 335.16 L 316.41 379.69 L 271.88 382.03 L 239.06 372.66 L 189.84 309.38 L 199.22 182.81 L 232.03 140.62 L 300.00 105.47 L 398.44 100.78 L 464.06 128.91" stroke="white" fill="transparent"/>
	<path d = "M 194.53 297.66 L 194.53 257.81 L 203.91 232.03 L 276.56 142.97 L 304.69 126.56" stroke="white" fill="transparent"/>
</svg>