<?xml version="1.0" encoding="UTF-8" standalone="no"?>
<!--Created with ndjsontosvg (https:https://github.com/thompson318/ndjsontosvg) 
	from the simplified Google quickdraw data set. key_id = 4846099590283264-->
<svg width="600" height="600"
	xmlns="http://www.w3.org/2000/svg">
	xmlns:ndjsontosvg="https://github.com/thompson318/ndjsontosvg"
	xmlns:quickdraw="https://quickdraw.withgoogle.com/data"
	xmlns:scikit-surgery="https://doi.org/10.1007/s11548-020-02180-5">

	<rect width="100%" height="100%" fill="black" />
	<path d = "M 377.34 2.34 L 377.34 58.59 L 393.75 142.97 L 407.81 285.94 L 450.00 325.78 L 520.31 365.62 L 543.75 386.72 L 548.44 407.81 L 525.00 461.72 L 501.56 464.06 L 447.66 442.97 L 396.09 466.41 L 384.38 494.53 L 377.34 564.84 L 365.62 597.66 L 344.53 585.94 L 332.81 536.72 L 285.94 499.22 L 257.81 503.91 L 213.28 532.03 L 192.19 532.03 L 171.09 485.16 L 175.78 457.03 L 189.84 433.59 L 112.50 440.62 L 86.72 426.56 L 103.12 379.69 L 152.34 344.53 L 178.12 339.84 L 140.62 344.53 L 53.91 382.03 L 21.09 377.34 L 0.00 351.56 L 0.00 321.09 L 25.78 300.00 L 58.59 290.62 L 241.41 276.56 L 276.56 269.53 L 297.66 255.47 L 257.81 103.12 L 250.78 0.00" stroke="white" fill="transparent"/>
</svg>