<?xml version="1.0" encoding="UTF-8" standalone="no"?>
<!--Created with ndjsontosvg (https:https://github.com/thompson318/ndjsontosvg) 
	from the simplified Google quickdraw data set. key_id = 5439852512280576-->
<svg width="600" height="600"
	xmlns="http://www.w3.org/2000/svg">
	xmlns:ndjsontosvg="https://github.com/thompson318/ndjsontosvg"
	xmlns:quickdraw="https://quickdraw.withgoogle.com/data"
	xmlns:scikit-surgery="https://doi.org/10.1007/s11548-020-02180-5">

	<rect width="100%" height="100%" fill="black" />
	<path d = "M 121.88 353.91 L 119.53 353.91" stroke="white" fill="transparent"/>
	<path d = "M 119.53 360.94 L 154.69 398.44 L 213.28 421.88 L 285.94 431.25 L 424.22 433.59 L 492.19 414.84 L 564.84 384.38 L 590.62 367.97 L 597.66 353.91 L 548.44 367.97 L 564.84 360.94 L 581.25 328.12 L 546.09 330.47 L 557.81 323.44 L 569.53 297.66 L 534.38 295.31 L 543.75 278.91 L 541.41 269.53 L 506.25 262.50 L 541.41 241.41 L 555.47 189.84 L 550.78 175.78 L 517.97 178.12 L 499.22 201.56 L 489.84 222.66 L 426.56 246.09 L 222.66 274.22 L 194.53 257.81 L 171.09 220.31 L 145.31 142.97 L 154.69 0.00" stroke="white" fill="transparent"/>
	<path d = "M 32.81 30.47 L 4.69 98.44 L 4.69 150.00 L 53.91 260.16 L 140.62 349.22" stroke="white" fill="transparent"/>
</svg>