<?xml version="1.0" encoding="UTF-8" standalone="no"?>
<!--Created with ndjsontosvg (https:https://github.com/thompson318/ndjsontosvg) 
	from the simplified Google quickdraw data set. key_id = 4544180430831616-->
<svg width="600" height="600"
	xmlns="http://www.w3.org/2000/svg">
	xmlns:ndjsontosvg="https://github.com/thompson318/ndjsontosvg"
	xmlns:quickdraw="https://quickdraw.withgoogle.com/data"
	xmlns:scikit-surgery="https://doi.org/10.1007/s11548-020-02180-5">

	<rect width="100%" height="100%" fill="black" />
	<path d = "M 53.91 597.66 L 63.28 375.00 L 98.44 260.16 L 98.44 241.41 L 86.72 208.59 L 30.47 157.03 L 0.00 86.72 L 16.41 75.00 L 49.22 75.00 L 96.09 93.75 L 128.91 147.66 L 91.41 63.28 L 91.41 18.75 L 135.94 11.72 L 150.00 23.44 L 180.47 100.78 L 185.16 84.38 L 173.44 11.72 L 189.84 0.00 L 220.31 0.00 L 236.72 14.06 L 243.75 28.12 L 253.12 91.41 L 253.12 44.53 L 274.22 11.72 L 307.03 7.03 L 323.44 14.06 L 335.16 46.88 L 335.16 84.38 L 311.72 142.97 L 243.75 248.44 L 147.66 356.25" stroke="white" fill="transparent"/>
</svg>