<?xml version="1.0" encoding="UTF-8" standalone="no"?>
<!--Created with ndjsontosvg (https:https://github.com/thompson318/ndjsontosvg) 
	from the simplified Google quickdraw data set. key_id = 5494990228684800-->
<svg width="600" height="600"
	xmlns="http://www.w3.org/2000/svg">
	xmlns:ndjsontosvg="https://github.com/thompson318/ndjsontosvg"
	xmlns:quickdraw="https://quickdraw.withgoogle.com/data"
	xmlns:scikit-surgery="https://doi.org/10.1007/s11548-020-02180-5">

	<rect width="100%" height="100%" fill="black" />
	<path d = "M 53.91 18.75 L 53.91 18.75" stroke="white" fill="transparent"/>
	<path d = "M 53.91 18.75 L 91.41 14.06 L 126.56 32.81 L 128.91 49.22 L 112.50 180.47 L 128.91 187.50 L 147.66 166.41 L 201.56 35.16 L 215.62 18.75 L 250.78 4.69 L 269.53 7.03 L 288.28 25.78 L 274.22 154.69 L 316.41 53.91 L 349.22 18.75 L 384.38 0.00 L 421.88 0.00 L 450.00 32.81 L 454.69 124.22 L 450.00 142.97 L 435.94 142.97" stroke="white" fill="transparent"/>
	<path d = "M 58.59 11.72 L 39.84 39.84 L 28.12 93.75 L 0.00 464.06 L 16.41 515.62 L 32.81 541.41 L 70.31 571.88 L 112.50 590.62 L 178.12 597.66 L 269.53 569.53 L 328.12 536.72 L 407.81 466.41 L 442.97 410.16 L 478.12 311.72 L 482.81 192.19 L 464.06 140.62 L 442.97 119.53" stroke="white" fill="transparent"/>
</svg>