<?xml version="1.0" encoding="UTF-8" standalone="no"?>
<!--Created with ndjsontosvg (https:https://github.com/thompson318/ndjsontosvg) 
	from the simplified Google quickdraw data set. key_id = 4855630688944128-->
<svg width="600" height="600"
	xmlns="http://www.w3.org/2000/svg">
	xmlns:ndjsontosvg="https://github.com/thompson318/ndjsontosvg"
	xmlns:quickdraw="https://quickdraw.withgoogle.com/data"
	xmlns:scikit-surgery="https://doi.org/10.1007/s11548-020-02180-5">

	<rect width="100%" height="100%" fill="black" />
	<path d = "M 307.03 142.97 L 271.88 121.88 L 241.41 72.66 L 239.06 35.16 L 260.16 11.72 L 300.00 7.03 L 321.09 16.41 L 335.16 44.53 L 346.88 119.53" stroke="white" fill="transparent"/>
	<path d = "M 358.59 110.16 L 353.91 82.03 L 382.03 16.41 L 403.12 0.00 L 438.28 2.34 L 454.69 37.50 L 459.38 114.84 L 452.34 142.97 L 433.59 168.75" stroke="white" fill="transparent"/>
	<path d = "M 288.28 150.00 L 248.44 173.44 L 225.00 208.59 L 220.31 440.62 L 239.06 515.62" stroke="white" fill="transparent"/>
	<path d = "M 438.28 180.47 L 454.69 147.66 L 480.47 140.62 L 503.91 157.03 L 529.69 192.19 L 581.25 337.50 L 592.97 414.84 L 588.28 475.78" stroke="white" fill="transparent"/>
	<path d = "M 553.12 414.84 L 539.06 405.47 L 503.91 403.12 L 466.41 435.94 L 445.31 482.81 L 435.94 536.72 L 405.47 508.59 L 370.31 506.25 L 349.22 534.38 L 344.53 581.25 L 353.91 592.97 L 396.09 592.97 L 513.28 581.25 L 574.22 564.84 L 583.59 546.09 L 574.22 485.16" stroke="white" fill="transparent"/>
	<path d = "M 178.12 482.81 L 152.34 466.41 L 112.50 459.38 L 86.72 501.56 L 82.03 560.16 L 28.12 555.47 L 0.00 567.19 L 7.03 585.94 L 32.81 597.66 L 75.00 597.66 L 164.06 581.25" stroke="white" fill="transparent"/>
	<path d = "M 314.06 337.50 L 314.06 496.88" stroke="white" fill="transparent"/>
	<path d = "M 367.97 335.16 L 363.28 501.56" stroke="white" fill="transparent"/>
	<path d = "M 450.00 316.41 L 461.72 440.62" stroke="white" fill="transparent"/>
	<path d = "M 499.22 311.72 L 510.94 396.09" stroke="white" fill="transparent"/>
	<path d = "M 314.06 100.78 L 292.97 60.94" stroke="white" fill="transparent"/>
</svg>