<?xml version="1.0" encoding="UTF-8" standalone="no"?>
<!--Created with ndjsontosvg (https:https://github.com/thompson318/ndjsontosvg) 
	from the simplified Google quickdraw data set. key_id = 6726388469989376-->
<svg width="600" height="600"
	xmlns="http://www.w3.org/2000/svg">
	xmlns:ndjsontosvg="https://github.com/thompson318/ndjsontosvg"
	xmlns:quickdraw="https://quickdraw.withgoogle.com/data"
	xmlns:scikit-surgery="https://doi.org/10.1007/s11548-020-02180-5">

	<rect width="100%" height="100%" fill="black" />
	<path d = "M 278.91 11.72 L 227.34 37.50 L 210.94 53.91 L 189.84 89.06 L 194.53 147.66 L 187.50 168.75 L 98.44 236.72 L 82.03 271.88 L 84.38 307.03 L 110.16 342.19 L 150.00 356.25 L 206.25 360.94 L 262.50 358.59 L 405.47 325.78 L 539.06 307.03 L 576.56 292.97 L 597.66 271.88 L 595.31 255.47 L 567.19 232.03 L 412.50 192.19 L 403.12 178.12 L 405.47 154.69 L 442.97 96.09 L 447.66 77.34 L 433.59 42.19 L 398.44 18.75 L 342.19 4.69 L 283.59 0.00 L 255.47 11.72" stroke="white" fill="transparent"/>
	<path d = "M 271.88 84.38 L 260.16 93.75 L 257.81 128.91 L 283.59 142.97 L 311.72 138.28 L 325.78 119.53 L 332.81 100.78 L 332.81 75.00 L 314.06 53.91 L 283.59 49.22 L 274.22 58.59" stroke="white" fill="transparent"/>
	<path d = "M 370.31 70.31 L 365.62 126.56 L 389.06 133.59 L 412.50 124.22 L 435.94 98.44 L 440.62 84.38 L 431.25 65.62 L 417.19 51.56 L 393.75 42.19 L 372.66 42.19 L 356.25 53.91" stroke="white" fill="transparent"/>
	<path d = "M 318.75 178.12 L 302.34 182.81 L 173.44 147.66 L 121.88 147.66 L 89.06 164.06 L 82.03 189.84 L 93.75 203.91 L 121.88 215.62 L 164.06 222.66 L 260.16 222.66 L 379.69 196.88" stroke="white" fill="transparent"/>
	<path d = "M 201.56 363.28 L 75.00 309.38 L 60.94 314.06 L 0.00 407.81 L 100.78 391.41 L 30.47 379.69" stroke="white" fill="transparent"/>
	<path d = "M 307.03 367.97 L 295.31 365.62 L 250.78 325.78 L 225.00 318.75 L 210.94 325.78 L 166.41 372.66 L 131.25 440.62 L 131.25 452.34 L 164.06 459.38 L 126.56 459.38" stroke="white" fill="transparent"/>
</svg>