<?xml version="1.0" encoding="UTF-8" standalone="no"?>
<!--Created with ndjsontosvg (https:https://github.com/thompson318/ndjsontosvg) 
	from the simplified Google quickdraw data set. key_id = 5119649458946048-->
<svg width="600" height="600"
	xmlns="http://www.w3.org/2000/svg">
	xmlns:ndjsontosvg="https://github.com/thompson318/ndjsontosvg"
	xmlns:quickdraw="https://quickdraw.withgoogle.com/data"
	xmlns:scikit-surgery="https://doi.org/10.1007/s11548-020-02180-5">

	<rect width="100%" height="100%" fill="black" />
	<path d = "M 248.44 18.75 L 208.59 14.06 L 126.56 39.84 L 124.22 105.47 L 142.97 135.94 L 166.41 150.00 L 203.91 159.38 L 241.41 159.38 L 278.91 138.28 L 302.34 110.16 L 309.38 89.06 L 309.38 65.62 L 281.25 21.09 L 243.75 2.34 L 206.25 0.00" stroke="white" fill="transparent"/>
	<path d = "M 133.59 28.12 L 100.78 51.56 L 77.34 91.41 L 0.00 128.91 L 119.53 103.12" stroke="white" fill="transparent"/>
	<path d = "M 229.69 152.34 L 185.16 175.78 L 124.22 192.19 L 105.47 210.94 L 110.16 217.97 L 180.47 192.19 L 210.94 142.97" stroke="white" fill="transparent"/>
	<path d = "M 295.31 119.53 L 311.72 142.97 L 318.75 175.78" stroke="white" fill="transparent"/>
	<path d = "M 302.34 98.44 L 335.16 133.59 L 351.56 173.44" stroke="white" fill="transparent"/>
	<path d = "M 332.81 140.62 L 330.47 157.03 L 316.41 166.41" stroke="white" fill="transparent"/>
	<path d = "M 330.47 0.00 L 253.12 18.75 L 208.59 51.56 L 215.62 65.62 L 255.47 77.34 L 297.66 79.69 L 375.00 44.53 L 389.06 37.50 L 389.06 14.06 L 335.16 2.34" stroke="white" fill="transparent"/>
	<path d = "M 353.91 30.47 L 360.94 37.50 L 482.81 37.50 L 597.66 46.88" stroke="white" fill="transparent"/>
</svg>