<?xml version="1.0" encoding="UTF-8" standalone="no"?>
<!--Created with ndjsontosvg (https:https://github.com/thompson318/ndjsontosvg) 
	from the simplified Google quickdraw data set. key_id = 5278994524012544-->
<svg width="600" height="600"
	xmlns="http://www.w3.org/2000/svg">
	xmlns:ndjsontosvg="https://github.com/thompson318/ndjsontosvg"
	xmlns:quickdraw="https://quickdraw.withgoogle.com/data"
	xmlns:scikit-surgery="https://doi.org/10.1007/s11548-020-02180-5">

	<rect width="100%" height="100%" fill="black" />
	<path d = "M 480.47 7.03 L 367.97 7.03 L 346.88 16.41 L 307.03 49.22 L 264.84 135.94 L 262.50 194.53 L 285.94 241.41 L 316.41 262.50 L 335.16 269.53 L 403.12 269.53 L 475.78 227.34 L 494.53 206.25 L 527.34 121.88 L 534.38 56.25 L 525.00 25.78 L 503.91 2.34 L 435.94 4.69 L 375.00 30.47" stroke="white" fill="transparent"/>
	<path d = "M 302.34 93.75 L 213.28 93.75 L 107.81 119.53 L 32.81 128.91 L 14.06 138.28 L 0.00 246.09 L 0.00 267.19 L 9.38 269.53 L 56.25 267.19 L 168.75 210.94 L 248.44 194.53" stroke="white" fill="transparent"/>
	<path d = "M 239.06 196.88 L 234.38 288.28 L 250.78 337.50 L 321.09 349.22 L 428.91 349.22 L 454.69 339.84 L 485.16 323.44 L 515.62 290.62 L 590.62 166.41 L 597.66 103.12 L 597.66 56.25 L 590.62 44.53" stroke="white" fill="transparent"/>
</svg>