<?xml version="1.0" encoding="UTF-8" standalone="no"?>
<!--Created with ndjsontosvg (https:https://github.com/thompson318/ndjsontosvg) 
	from the simplified Google quickdraw data set. key_id = 4578588739239936-->
<svg width="600" height="600"
	xmlns="http://www.w3.org/2000/svg">
	xmlns:ndjsontosvg="https://github.com/thompson318/ndjsontosvg"
	xmlns:quickdraw="https://quickdraw.withgoogle.com/data"
	xmlns:scikit-surgery="https://doi.org/10.1007/s11548-020-02180-5">

	<rect width="100%" height="100%" fill="black" />
	<path d = "M 285.94 14.06 L 297.66 16.41 L 342.19 39.84 L 370.31 63.28 L 377.34 82.03 L 377.34 126.56 L 358.59 187.50 L 335.16 232.03 L 316.41 243.75 L 257.81 243.75 L 222.66 229.69 L 124.22 213.28 L 2.34 159.38 L 4.69 91.41 L 32.81 51.56 L 53.91 37.50 L 154.69 0.00 L 215.62 7.03 L 267.19 35.16" stroke="white" fill="transparent"/>
	<path d = "M 283.59 89.06 L 208.59 70.31 L 168.75 65.62 L 93.75 65.62 L 63.28 75.00 L 44.53 100.78 L 42.19 133.59 L 77.34 171.09 L 114.84 180.47 L 234.38 180.47 L 295.31 192.19 L 339.84 187.50 L 351.56 168.75 L 351.56 138.28 L 349.22 117.19 L 332.81 93.75 L 297.66 72.66 L 278.91 67.97 L 234.38 67.97 L 210.94 82.03" stroke="white" fill="transparent"/>
	<path d = "M 379.69 98.44 L 597.66 89.06 L 590.62 56.25 L 571.88 37.50 L 421.88 67.97 L 257.81 70.31" stroke="white" fill="transparent"/>
</svg>