<?xml version="1.0" encoding="UTF-8" standalone="no"?>
<!--Created with ndjsontosvg (https:https://github.com/thompson318/ndjsontosvg) 
	from the simplified Google quickdraw data set. key_id = 5620334600388608-->
<svg width="600" height="600"
	xmlns="http://www.w3.org/2000/svg">
	xmlns:ndjsontosvg="https://github.com/thompson318/ndjsontosvg"
	xmlns:quickdraw="https://quickdraw.withgoogle.com/data"
	xmlns:scikit-surgery="https://doi.org/10.1007/s11548-020-02180-5">

	<rect width="100%" height="100%" fill="black" />
	<path d = "M 110.16 25.78 L 89.06 35.16 L 72.66 70.31 L 67.97 135.94 L 84.38 185.16 L 103.12 203.91 L 121.88 210.94 L 166.41 208.59 L 187.50 189.84 L 194.53 150.00 L 192.19 77.34 L 171.09 37.50 L 138.28 21.09 L 75.00 25.78 L 25.78 67.97 L 9.38 117.19 L 9.38 161.72 L 21.09 175.78 L 82.03 225.00 L 154.69 236.72 L 189.84 213.28 L 215.62 147.66 L 215.62 77.34 L 178.12 11.72 L 164.06 2.34 L 105.47 0.00 L 72.66 23.44 L 16.41 82.03 L 2.34 131.25 L 0.00 182.81 L 30.47 234.38 L 58.59 250.78 L 86.72 257.81 L 135.94 257.81 L 147.66 243.75 L 159.38 196.88 L 159.38 107.81 L 154.69 86.72 L 131.25 72.66 L 84.38 72.66 L 46.88 105.47 L 44.53 157.03 L 65.62 182.81 L 103.12 192.19 L 126.56 189.84 L 138.28 178.12 L 142.97 121.88 L 135.94 89.06 L 154.69 77.34 L 175.78 79.69 L 257.81 117.19 L 346.88 126.56 L 480.47 131.25 L 550.78 121.88 L 597.66 107.81 L 585.94 93.75 L 564.84 89.06 L 288.28 98.44 L 222.66 77.34 L 77.34 98.44" stroke="white" fill="transparent"/>
</svg>