<?xml version="1.0" encoding="UTF-8" standalone="no"?>
<!--Created with ndjsontosvg (https:https://github.com/thompson318/ndjsontosvg) 
	from the simplified Google quickdraw data set. key_id = 5627240085716992-->
<svg width="600" height="600"
	xmlns="http://www.w3.org/2000/svg">
	xmlns:ndjsontosvg="https://github.com/thompson318/ndjsontosvg"
	xmlns:quickdraw="https://quickdraw.withgoogle.com/data"
	xmlns:scikit-surgery="https://doi.org/10.1007/s11548-020-02180-5">

	<rect width="100%" height="100%" fill="black" />
	<path d = "M 82.03 295.31 L 56.25 316.41 L 51.56 344.53 L 56.25 351.56 L 117.19 356.25 L 154.69 337.50 L 187.50 316.41 L 192.19 300.00 L 164.06 288.28 L 103.12 285.94" stroke="white" fill="transparent"/>
	<path d = "M 44.53 351.56 L 44.53 384.38 L 53.91 384.38" stroke="white" fill="transparent"/>
	<path d = "M 213.28 330.47 L 210.94 377.34" stroke="white" fill="transparent"/>
	<path d = "M 42.19 400.78 L 60.94 421.88 L 84.38 482.81 L 112.50 508.59 L 206.25 506.25 L 206.25 414.84 L 215.62 358.59" stroke="white" fill="transparent"/>
	<path d = "M 105.47 323.44 L 98.44 220.31 L 75.00 84.38" stroke="white" fill="transparent"/>
	<path d = "M 86.72 79.69 L 72.66 75.00 L 58.59 89.06 L 51.56 114.84 L 65.62 119.53 L 96.09 91.41 L 100.78 70.31 L 84.38 63.28" stroke="white" fill="transparent"/>
	<path d = "M 77.34 124.22 L 65.62 159.38 L 39.84 161.72 L 25.78 147.66 L 32.81 126.56 L 11.72 124.22 L 2.34 112.50 L 0.00 86.72 L 7.03 77.34 L 32.81 67.97 L 44.53 72.66 L 18.75 75.00 L 2.34 60.94 L 4.69 42.19 L 23.44 23.44 L 56.25 32.81 L 79.69 7.03 L 98.44 0.00 L 114.84 4.69 L 107.81 28.12 L 166.41 21.09 L 173.44 44.53 L 154.69 58.59 L 119.53 65.62 L 154.69 65.62 L 173.44 79.69 L 178.12 91.41 L 175.78 105.47 L 138.28 133.59 L 107.81 135.94 L 91.41 124.22 L 119.53 117.19 L 140.62 128.91 L 142.97 166.41 L 131.25 178.12 L 107.81 180.47 L 93.75 171.09 L 77.34 142.97 L 77.34 128.91" stroke="white" fill="transparent"/>
	<path d = "M 485.16 302.34 L 464.06 307.03 L 431.25 330.47 L 412.50 351.56 L 414.84 365.62 L 468.75 367.97 L 564.84 335.16 L 569.53 325.78 L 557.81 316.41 L 478.12 309.38" stroke="white" fill="transparent"/>
	<path d = "M 410.16 365.62 L 428.91 487.50 L 595.31 496.88 L 557.81 407.81 L 557.81 353.91 L 562.50 335.16" stroke="white" fill="transparent"/>
	<path d = "M 478.12 335.16 L 471.09 323.44 L 471.09 180.47 L 459.38 72.66 L 454.69 63.28" stroke="white" fill="transparent"/>
	<path d = "M 450.00 23.44 L 438.28 30.47 L 435.94 42.19 L 450.00 60.94 L 471.09 58.59 L 489.84 32.81 L 480.47 23.44 L 454.69 25.78" stroke="white" fill="transparent"/>
</svg>