<?xml version="1.0" encoding="UTF-8" standalone="no"?>
<!--Created with ndjsontosvg (https:https://github.com/thompson318/ndjsontosvg) 
	from the simplified Google quickdraw data set. key_id = 5596599990353920-->
<svg width="600" height="600"
	xmlns="http://www.w3.org/2000/svg">
	xmlns:ndjsontosvg="https://github.com/thompson318/ndjsontosvg"
	xmlns:quickdraw="https://quickdraw.withgoogle.com/data"
	xmlns:scikit-surgery="https://doi.org/10.1007/s11548-020-02180-5">

	<rect width="100%" height="100%" fill="black" />
	<path d = "M 23.44 332.81 L 194.53 332.81 L 246.09 307.03 L 330.47 321.09 L 349.22 314.06 L 386.72 283.59 L 412.50 285.94 L 447.66 304.69 L 471.09 307.03 L 480.47 307.03 L 501.56 274.22 L 548.44 283.59 L 597.66 283.59" stroke="white" fill="transparent"/>
	<path d = "M 471.09 290.62 L 450.00 39.84" stroke="white" fill="transparent"/>
	<path d = "M 454.69 152.34 L 506.25 53.91" stroke="white" fill="transparent"/>
	<path d = "M 445.31 135.94 L 379.69 51.56" stroke="white" fill="transparent"/>
	<path d = "M 461.72 187.50 L 527.34 128.91" stroke="white" fill="transparent"/>
	<path d = "M 145.31 316.41 L 150.00 175.78 L 70.31 171.09 L 51.56 157.03 L 49.22 145.31 L 51.56 121.88 L 79.69 96.09 L 138.28 86.72 L 182.81 110.16 L 194.53 147.66 L 164.06 171.09 L 135.94 171.09" stroke="white" fill="transparent"/>
	<path d = "M 56.25 114.84 L 14.06 84.38 L 9.38 58.59 L 16.41 42.19 L 44.53 25.78 L 84.38 25.78 L 110.16 56.25 L 114.84 4.69 L 142.97 0.00 L 175.78 25.78 L 180.47 42.19 L 175.78 72.66 L 178.12 56.25 L 196.88 32.81 L 220.31 30.47 L 229.69 37.50 L 229.69 84.38 L 208.59 100.78 L 229.69 86.72 L 257.81 91.41 L 269.53 112.50 L 269.53 142.97 L 213.28 180.47 L 180.47 185.16 L 171.09 175.78 L 175.78 196.88 L 159.38 222.66 L 131.25 236.72 L 96.09 239.06 L 79.69 225.00 L 75.00 201.56 L 77.34 180.47 L 93.75 173.44 L 96.09 189.84 L 82.03 201.56 L 44.53 210.94 L 18.75 208.59 L 0.00 182.81 L 2.34 154.69 L 18.75 133.59 L 42.19 119.53 L 70.31 117.19" stroke="white" fill="transparent"/>
</svg>