<?xml version="1.0" encoding="UTF-8" standalone="no"?>
<!--Created with ndjsontosvg (https:https://github.com/thompson318/ndjsontosvg) 
	from the simplified Google quickdraw data set. key_id = 5235966354653184-->
<svg width="600" height="600"
	xmlns="http://www.w3.org/2000/svg">
	xmlns:ndjsontosvg="https://github.com/thompson318/ndjsontosvg"
	xmlns:quickdraw="https://quickdraw.withgoogle.com/data"
	xmlns:scikit-surgery="https://doi.org/10.1007/s11548-020-02180-5">

	<rect width="100%" height="100%" fill="black" />
	<path d = "M 4.69 379.69 L 142.97 384.38 L 339.84 375.00 L 405.47 379.69 L 506.25 403.12 L 592.97 403.12" stroke="white" fill="transparent"/>
	<path d = "M 0.00 379.69 L 35.16 332.81 L 63.28 318.75 L 86.72 323.44 L 119.53 356.25 L 135.94 363.28 L 203.91 314.06 L 232.03 302.34 L 250.78 304.69 L 295.31 342.19 L 321.09 349.22 L 372.66 309.38 L 400.78 302.34 L 414.84 309.38 L 442.97 360.94 L 457.03 372.66 L 473.44 372.66 L 517.97 346.88 L 534.38 344.53 L 550.78 405.47" stroke="white" fill="transparent"/>
	<path d = "M 546.09 398.44 L 588.28 370.31 L 595.31 382.03 L 597.66 403.12" stroke="white" fill="transparent"/>
	<path d = "M 119.53 346.88 L 112.50 159.38" stroke="white" fill="transparent"/>
	<path d = "M 119.53 154.69 L 51.56 157.03 L 30.47 152.34 L 21.09 142.97 L 18.75 107.81 L 35.16 72.66 L 9.38 67.97 L 7.03 35.16 L 28.12 11.72 L 53.91 0.00 L 75.00 4.69 L 86.72 30.47 L 124.22 9.38 L 189.84 14.06 L 206.25 30.47 L 208.59 51.56 L 201.56 72.66 L 189.84 79.69 L 215.62 82.03 L 227.34 93.75 L 225.00 117.19 L 189.84 142.97 L 107.81 161.72 L 89.06 157.03" stroke="white" fill="transparent"/>
	<path d = "M 271.88 316.41 L 260.16 133.59" stroke="white" fill="transparent"/>
	<path d = "M 260.16 135.94 L 255.47 112.50 L 269.53 110.16 L 269.53 126.56 L 262.50 131.25 L 262.50 110.16 L 276.56 107.81 L 285.94 114.84 L 285.94 124.22 L 274.22 128.91 L 260.16 124.22 L 264.84 107.81 L 264.84 124.22 L 255.47 126.56 L 253.12 117.19" stroke="white" fill="transparent"/>
	<path d = "M 260.16 107.81 L 253.12 96.09 L 257.81 65.62 L 283.59 42.19 L 318.75 46.88 L 321.09 60.94 L 311.72 72.66 L 330.47 63.28 L 358.59 63.28 L 377.34 84.38 L 375.00 107.81 L 351.56 131.25 L 316.41 147.66 L 276.56 154.69" stroke="white" fill="transparent"/>
</svg>