<?xml version="1.0" encoding="UTF-8" standalone="no"?>
<!--Created with ndjsontosvg (https:https://github.com/thompson318/ndjsontosvg) 
	from the simplified Google quickdraw data set. key_id = 5051484792160256-->
<svg width="600" height="600"
	xmlns="http://www.w3.org/2000/svg">
	xmlns:ndjsontosvg="https://github.com/thompson318/ndjsontosvg"
	xmlns:quickdraw="https://quickdraw.withgoogle.com/data"
	xmlns:scikit-surgery="https://doi.org/10.1007/s11548-020-02180-5">

	<rect width="100%" height="100%" fill="black" />
	<path d = "M 0.00 227.34 L 23.44 225.00 L 98.44 189.84 L 208.59 159.38 L 375.00 128.91 L 494.53 121.88" stroke="white" fill="transparent"/>
	<path d = "M 133.59 243.75 L 250.78 220.31 L 578.91 175.78" stroke="white" fill="transparent"/>
	<path d = "M 180.47 349.22 L 236.72 316.41 L 307.03 288.28 L 597.66 213.28" stroke="white" fill="transparent"/>
	<path d = "M 398.44 152.34 L 389.06 70.31 L 365.62 51.56 L 370.31 35.16 L 386.72 30.47 L 398.44 44.53 L 386.72 56.25" stroke="white" fill="transparent"/>
	<path d = "M 375.00 30.47 L 353.91 21.09 L 339.84 35.16 L 344.53 58.59 L 370.31 63.28 L 356.25 60.94 L 344.53 72.66 L 342.19 82.03 L 351.56 93.75 L 372.66 93.75 L 400.78 82.03 L 407.81 65.62 L 396.09 53.91 L 398.44 67.97 L 412.50 72.66 L 440.62 56.25 L 442.97 42.19 L 431.25 25.78 L 410.16 28.12 L 403.12 35.16 L 417.19 21.09 L 414.84 4.69 L 389.06 2.34 L 384.38 16.41" stroke="white" fill="transparent"/>
	<path d = "M 241.41 194.53 L 220.31 103.12 L 208.59 103.12 L 199.22 119.53 L 206.25 128.91 L 232.03 124.22 L 250.78 105.47 L 255.47 84.38 L 234.38 82.03 L 227.34 65.62 L 208.59 75.00 L 196.88 103.12 L 201.56 110.16 L 213.28 112.50 L 215.62 105.47 L 199.22 100.78 L 187.50 105.47 L 206.25 131.25" stroke="white" fill="transparent"/>
</svg>