<?xml version="1.0" encoding="UTF-8" standalone="no"?>
<!--Created with ndjsontosvg (https:https://github.com/thompson318/ndjsontosvg) 
	from the simplified Google quickdraw data set. key_id = 6467027709460480-->
<svg width="600" height="600"
	xmlns="http://www.w3.org/2000/svg">
	xmlns:ndjsontosvg="https://github.com/thompson318/ndjsontosvg"
	xmlns:quickdraw="https://quickdraw.withgoogle.com/data"
	xmlns:scikit-surgery="https://doi.org/10.1007/s11548-020-02180-5">

	<rect width="100%" height="100%" fill="black" />
	<path d = "M 0.00 142.97 L 107.81 138.28 L 384.38 147.66 L 550.78 138.28 L 597.66 121.88" stroke="white" fill="transparent"/>
	<path d = "M 63.28 178.12 L 70.31 194.53" stroke="white" fill="transparent"/>
	<path d = "M 145.31 192.19 L 206.25 180.47" stroke="white" fill="transparent"/>
	<path d = "M 239.06 178.12 L 246.09 185.16 L 271.88 180.47" stroke="white" fill="transparent"/>
	<path d = "M 339.84 178.12 L 365.62 180.47" stroke="white" fill="transparent"/>
	<path d = "M 393.75 182.81 L 389.06 210.94" stroke="white" fill="transparent"/>
	<path d = "M 389.06 213.28 L 391.41 213.28" stroke="white" fill="transparent"/>
	<path d = "M 489.84 185.16 L 485.16 152.34" stroke="white" fill="transparent"/>
	<path d = "M 485.16 152.34 L 473.44 147.66 L 466.41 159.38 L 494.53 164.06 L 480.47 161.72 L 480.47 145.31 L 485.16 135.94 L 494.53 135.94 L 487.50 157.03 L 501.56 161.72 L 494.53 182.81 L 487.50 178.12 L 482.81 154.69" stroke="white" fill="transparent"/>
	<path d = "M 426.56 187.50 L 396.09 72.66 L 391.41 18.75" stroke="white" fill="transparent"/>
	<path d = "M 447.66 157.03 L 442.97 182.81 L 400.78 89.06 L 391.41 32.81" stroke="white" fill="transparent"/>
	<path d = "M 386.72 82.03 L 372.66 96.09 L 349.22 91.41 L 339.84 60.94 L 346.88 37.50 L 363.28 23.44 L 384.38 18.75 L 396.09 28.12 L 400.78 49.22 L 400.78 11.72 L 433.59 0.00 L 440.62 21.09 L 428.91 39.84 L 442.97 56.25 L 442.97 86.72 L 435.94 96.09 L 405.47 100.78" stroke="white" fill="transparent"/>
	<path d = "M 370.31 84.38 L 365.62 121.88 L 370.31 138.28 L 400.78 131.25 L 414.84 112.50" stroke="white" fill="transparent"/>
</svg>