<?xml version="1.0" encoding="UTF-8" standalone="no"?>
<!--Created with ndjsontosvg (https:https://github.com/thompson318/ndjsontosvg) 
	from the simplified Google quickdraw data set. key_id = 6493098047700992-->
<svg width="600" height="600"
	xmlns="http://www.w3.org/2000/svg">
	xmlns:ndjsontosvg="https://github.com/thompson318/ndjsontosvg"
	xmlns:quickdraw="https://quickdraw.withgoogle.com/data"
	xmlns:scikit-surgery="https://doi.org/10.1007/s11548-020-02180-5">

	<rect width="100%" height="100%" fill="black" />
	<path d = "M 236.72 407.81 L 192.19 412.50 L 114.84 393.75 L 86.72 346.88 L 117.19 178.12 L 161.72 131.25 L 192.19 117.19 L 325.78 96.09 L 414.84 135.94 L 431.25 154.69 L 473.44 257.81 L 480.47 349.22 L 473.44 377.34 L 417.19 482.81 L 384.38 517.97 L 304.69 555.47 L 72.66 499.22 L 35.16 426.56 L 0.00 260.16 L 35.16 145.31 L 114.84 49.22 L 154.69 18.75 L 229.69 0.00 L 386.72 7.03 L 457.03 32.81 L 513.28 65.62 L 571.88 157.03 L 576.56 323.44 L 562.50 421.88 L 539.06 496.88 L 525.00 522.66 L 494.53 550.78 L 473.44 564.84 L 337.50 597.66 L 243.75 597.66 L 119.53 564.84 L 98.44 555.47 L 46.88 513.28" stroke="white" fill="transparent"/>
</svg>