<?xml version="1.0" encoding="UTF-8" standalone="no"?>
<!--Created with ndjsontosvg (https:https://github.com/thompson318/ndjsontosvg) 
	from the simplified Google quickdraw data set. key_id = 5776857288933376-->
<svg width="600" height="600"
	xmlns="http://www.w3.org/2000/svg">
	xmlns:ndjsontosvg="https://github.com/thompson318/ndjsontosvg"
	xmlns:quickdraw="https://quickdraw.withgoogle.com/data"
	xmlns:scikit-surgery="https://doi.org/10.1007/s11548-020-02180-5">

	<rect width="100%" height="100%" fill="black" />
	<path d = "M 18.75 243.75 L 39.84 215.62 L 56.25 213.28 L 138.28 255.47 L 171.09 220.31 L 246.09 232.03 L 281.25 201.56 L 302.34 192.19 L 332.81 203.91 L 407.81 248.44 L 431.25 248.44 L 473.44 227.34 L 557.81 257.81 L 597.66 260.16" stroke="white" fill="transparent"/>
	<path d = "M 98.44 241.41 L 82.03 25.78" stroke="white" fill="transparent"/>
	<path d = "M 150.00 241.41 L 154.69 232.03 L 140.62 65.62" stroke="white" fill="transparent"/>
	<path d = "M 103.12 39.84 L 154.69 42.19 L 213.28 58.59 L 232.03 89.06 L 225.00 103.12 L 213.28 110.16 L 145.31 107.81 L 75.00 82.03 L 65.62 70.31 L 70.31 56.25 L 86.72 44.53 L 117.19 42.19 L 131.25 49.22 L 140.62 63.28 L 131.25 82.03 L 117.19 91.41 L 65.62 96.09 L 9.38 77.34 L 0.00 63.28 L 2.34 46.88 L 28.12 25.78 L 98.44 18.75 L 117.19 25.78 L 121.88 37.50 L 86.72 65.62 L 32.81 65.62 L 9.38 53.91 L 2.34 37.50 L 9.38 23.44 L 32.81 11.72 L 96.09 4.69 L 150.00 16.41 L 138.28 37.50 L 105.47 46.88 L 58.59 49.22 L 32.81 42.19 L 28.12 30.47 L 42.19 21.09 L 75.00 11.72 L 145.31 14.06 L 157.03 30.47 L 157.03 53.91 L 138.28 75.00 L 117.19 79.69 L 77.34 67.97 L 67.97 53.91 L 65.62 39.84 L 103.12 9.38 L 154.69 2.34 L 159.38 11.72 L 152.34 30.47 L 119.53 51.56" stroke="white" fill="transparent"/>
	<path d = "M 229.69 232.03 L 220.31 135.94 L 187.50 171.09 L 203.91 140.62 L 220.31 131.25 L 227.34 175.78 L 189.84 171.09 L 182.81 161.72 L 199.22 145.31 L 222.66 138.28 L 239.06 157.03 L 234.38 178.12 L 217.97 182.81 L 201.56 168.75 L 199.22 154.69 L 215.62 140.62" stroke="white" fill="transparent"/>
	<path d = "M 325.78 208.59 L 325.78 133.59 L 339.84 117.19 L 353.91 124.22 L 346.88 133.59 L 325.78 128.91 L 314.06 112.50 L 321.09 105.47 L 342.19 117.19 L 314.06 133.59 L 307.03 121.88 L 318.75 112.50 L 344.53 110.16 L 321.09 124.22" stroke="white" fill="transparent"/>
	<path d = "M 445.31 253.12 L 433.59 135.94 L 428.91 128.91 L 407.81 138.28 L 428.91 126.56 L 450.00 131.25 L 433.59 157.03 L 405.47 161.72 L 400.78 152.34 L 414.84 133.59 L 433.59 128.91 L 457.03 142.97" stroke="white" fill="transparent"/>
</svg>