<?xml version="1.0" encoding="UTF-8" standalone="no"?>
<!--Created with ndjsontosvg (https:https://github.com/thompson318/ndjsontosvg) 
	from the simplified Google quickdraw data set. key_id = 5082550420635648-->
<svg width="600" height="600"
	xmlns="http://www.w3.org/2000/svg">
	xmlns:ndjsontosvg="https://github.com/thompson318/ndjsontosvg"
	xmlns:quickdraw="https://quickdraw.withgoogle.com/data"
	xmlns:scikit-surgery="https://doi.org/10.1007/s11548-020-02180-5">

	<rect width="100%" height="100%" fill="black" />
	<path d = "M 126.56 328.12 L 79.69 328.12 L 32.81 365.62 L 7.03 407.81 L 0.00 489.84 L 4.69 520.31 L 53.91 569.53 L 89.06 588.28 L 131.25 597.66 L 210.94 590.62 L 248.44 567.19 L 271.88 539.06 L 295.31 503.91 L 309.38 461.72 L 316.41 365.62 L 297.66 339.84 L 271.88 328.12 L 239.06 321.09 L 152.34 321.09 L 110.16 335.16 L 53.91 386.72 L 35.16 426.56 L 28.12 468.75 L 28.12 510.94 L 42.19 550.78 L 77.34 578.91 L 159.38 585.94 L 196.88 562.50 L 227.34 522.66 L 248.44 478.12 L 264.84 426.56 L 264.84 342.19 L 243.75 328.12 L 175.78 328.12 L 145.31 337.50 L 112.50 363.28 L 79.69 421.88 L 82.03 492.19 L 110.16 525.00 L 159.38 543.75 L 222.66 543.75 L 264.84 510.94 L 311.72 370.31" stroke="white" fill="transparent"/>
	<path d = "M 304.69 323.44 L 285.94 316.41 L 236.72 321.09 L 187.50 363.28 L 168.75 405.47 L 154.69 464.06 L 157.03 503.91 L 166.41 534.38 L 192.19 548.44 L 234.38 548.44 L 274.22 517.97 L 314.06 468.75 L 330.47 428.91 L 337.50 382.03 L 335.16 344.53 L 304.69 316.41 L 257.81 297.66 L 182.81 295.31 L 152.34 314.06 L 138.28 339.84 L 142.97 419.53 L 182.81 466.41 L 239.06 494.53 L 344.53 494.53 L 382.03 464.06 L 398.44 419.53 L 398.44 379.69 L 379.69 342.19 L 346.88 318.75 L 318.75 311.72 L 253.12 314.06 L 227.34 332.81 L 213.28 363.28 L 206.25 400.78 L 201.56 471.09 L 210.94 492.19 L 236.72 515.62 L 257.81 520.31 L 349.22 515.62 L 398.44 489.84 L 428.91 459.38 L 501.56 323.44 L 532.03 220.31 L 536.72 114.84 L 522.66 32.81" stroke="white" fill="transparent"/>
	<path d = "M 515.62 0.00 L 473.44 11.72 L 527.34 4.69" stroke="white" fill="transparent"/>
</svg>