<?xml version="1.0" encoding="UTF-8" standalone="no"?>
<!--Created with ndjsontosvg (https:https://github.com/thompson318/ndjsontosvg) 
	from the simplified Google quickdraw data set. key_id = 5766851688660992-->
<svg width="600" height="600"
	xmlns="http://www.w3.org/2000/svg">
	xmlns:ndjsontosvg="https://github.com/thompson318/ndjsontosvg"
	xmlns:quickdraw="https://quickdraw.withgoogle.com/data"
	xmlns:scikit-surgery="https://doi.org/10.1007/s11548-020-02180-5">

	<rect width="100%" height="100%" fill="black" />
	<path d = "M 520.31 32.81 L 445.31 23.44 L 442.97 2.34 L 438.28 23.44 L 442.97 0.00 L 438.28 16.41 L 433.59 7.03 L 433.59 25.78 L 412.50 21.09 L 403.12 30.47 L 410.16 42.19 L 433.59 44.53" stroke="white" fill="transparent"/>
	<path d = "M 513.28 30.47 L 539.06 67.97 L 590.62 72.66 L 597.66 91.41 L 578.91 100.78 L 543.75 105.47 L 471.09 96.09 L 450.00 103.12 L 431.25 128.91 L 377.34 255.47" stroke="white" fill="transparent"/>
	<path d = "M 414.84 53.91 L 328.12 220.31 L 295.31 257.81 L 278.91 264.84 L 65.62 269.53 L 0.00 328.12" stroke="white" fill="transparent"/>
	<path d = "M 65.62 271.88 L 51.56 363.28 L 91.41 375.00 L 121.88 307.03 L 215.62 307.03 L 196.88 365.62 L 253.12 365.62 L 260.16 309.38 L 267.19 302.34 L 318.75 307.03 L 314.06 356.25 L 372.66 356.25 L 379.69 262.50" stroke="white" fill="transparent"/>
	<path d = "M 140.62 302.34 L 131.25 356.25 L 168.75 372.66 L 189.84 363.28 L 192.19 307.03" stroke="white" fill="transparent"/>
	<path d = "M 117.19 283.59 L 117.19 290.62 L 140.62 288.28" stroke="white" fill="transparent"/>
	<path d = "M 192.19 288.28 L 213.28 295.31 L 215.62 288.28 L 210.94 285.94" stroke="white" fill="transparent"/>
	<path d = "M 271.88 281.25 L 278.91 285.94 L 290.62 278.91" stroke="white" fill="transparent"/>
	<path d = "M 321.09 269.53 L 344.53 241.41" stroke="white" fill="transparent"/>
</svg>