<?xml version="1.0" encoding="UTF-8" standalone="no"?>
<!--Created with ndjsontosvg (https:https://github.com/thompson318/ndjsontosvg) 
	from the simplified Google quickdraw data set. key_id = 4991853596246016-->
<svg width="600" height="600"
	xmlns="http://www.w3.org/2000/svg">
	xmlns:ndjsontosvg="https://github.com/thompson318/ndjsontosvg"
	xmlns:quickdraw="https://quickdraw.withgoogle.com/data"
	xmlns:scikit-surgery="https://doi.org/10.1007/s11548-020-02180-5">

	<rect width="100%" height="100%" fill="black" />
	<path d = "M 276.56 292.97 L 285.94 147.66 L 262.50 96.09 L 239.06 63.28 L 194.53 25.78 L 119.53 0.00 L 58.59 2.34 L 4.69 21.09 L 0.00 28.12 L 14.06 30.47 L 121.88 30.47 L 154.69 46.88 L 239.06 178.12 L 253.12 215.62 L 262.50 283.59 L 243.75 375.00 L 243.75 428.91 L 281.25 396.09 L 295.31 311.72 L 283.59 375.00 L 285.94 421.88 L 307.03 417.19 L 321.09 400.78 L 325.78 318.75 L 349.22 309.38 L 421.88 314.06 L 424.22 386.72 L 440.62 393.75 L 457.03 360.94 L 457.03 304.69 L 452.34 365.62 L 459.38 396.09 L 475.78 412.50 L 499.22 391.41 L 515.62 363.28 L 515.62 283.59 L 536.72 292.97 L 590.62 292.97 L 597.66 285.94 L 597.66 257.81 L 574.22 222.66 L 539.06 199.22 L 506.25 187.50 L 457.03 187.50 L 375.00 232.03" stroke="white" fill="transparent"/>
</svg>