<?xml version="1.0" encoding="UTF-8" standalone="no"?>
<!--Created with ndjsontosvg (https:https://github.com/thompson318/ndjsontosvg) 
	from the simplified Google quickdraw data set. key_id = 4845677722992640-->
<svg width="600" height="600"
	xmlns="http://www.w3.org/2000/svg">
	xmlns:ndjsontosvg="https://github.com/thompson318/ndjsontosvg"
	xmlns:quickdraw="https://quickdraw.withgoogle.com/data"
	xmlns:scikit-surgery="https://doi.org/10.1007/s11548-020-02180-5">

	<rect width="100%" height="100%" fill="black" />
	<path d = "M 21.09 466.41 L 14.06 222.66 L 58.59 229.69 L 166.41 225.00 L 332.81 243.75 L 339.84 482.81" stroke="white" fill="transparent"/>
	<path d = "M 0.00 248.44 L 4.69 260.16 L 25.78 271.88 L 112.50 288.28 L 363.28 316.41" stroke="white" fill="transparent"/>
	<path d = "M 330.47 302.34 L 328.12 178.12 L 351.56 23.44 L 377.34 2.34 L 431.25 2.34 L 447.66 14.06 L 478.12 60.94 L 492.19 112.50 L 494.53 168.75 L 480.47 208.59 L 461.72 232.03 L 419.53 253.12 L 365.62 262.50 L 337.50 262.50 L 300.00 234.38" stroke="white" fill="transparent"/>
	<path d = "M 454.69 21.09 L 496.88 21.09 L 515.62 30.47 L 522.66 42.19 L 522.66 67.97 L 515.62 75.00 L 475.78 77.34" stroke="white" fill="transparent"/>
	<path d = "M 478.12 35.16 L 478.12 30.47" stroke="white" fill="transparent"/>
	<path d = "M 499.22 53.91 L 499.22 53.91" stroke="white" fill="transparent"/>
	<path d = "M 499.22 44.53 L 499.22 44.53" stroke="white" fill="transparent"/>
	<path d = "M 506.25 44.53 L 506.25 44.53" stroke="white" fill="transparent"/>
	<path d = "M 499.22 49.22 L 508.59 46.88" stroke="white" fill="transparent"/>
	<path d = "M 485.16 49.22 L 489.84 60.94" stroke="white" fill="transparent"/>
	<path d = "M 105.47 585.94 L 98.44 471.09 L 110.16 466.41 L 145.31 478.12 L 166.41 475.78" stroke="white" fill="transparent"/>
	<path d = "M 75.00 457.03 L 147.66 452.34" stroke="white" fill="transparent"/>
	<path d = "M 206.25 555.47 L 187.50 501.56 L 187.50 468.75 L 201.56 471.09 L 217.97 492.19 L 210.94 501.56 L 189.84 499.22 L 243.75 541.41" stroke="white" fill="transparent"/>
	<path d = "M 271.88 485.16 L 288.28 525.00 L 307.03 543.75 L 318.75 541.41 L 321.09 492.19 L 356.25 546.09" stroke="white" fill="transparent"/>
	<path d = "M 360.94 482.81 L 363.28 496.88 L 379.69 522.66 L 375.00 480.47 L 391.41 480.47 L 403.12 489.84 L 414.84 480.47" stroke="white" fill="transparent"/>
</svg>