<?xml version="1.0" encoding="UTF-8" standalone="no"?>
<!--Created with ndjsontosvg (https:https://github.com/thompson318/ndjsontosvg) 
	from the simplified Google quickdraw data set. key_id = 5592528982114304-->
<svg width="600" height="600"
	xmlns="http://www.w3.org/2000/svg">
	xmlns:ndjsontosvg="https://github.com/thompson318/ndjsontosvg"
	xmlns:quickdraw="https://quickdraw.withgoogle.com/data"
	xmlns:scikit-surgery="https://doi.org/10.1007/s11548-020-02180-5">

	<rect width="100%" height="100%" fill="black" />
	<path d = "M 84.38 0.00 L 44.53 44.53 L 14.06 105.47 L 2.34 171.09 L 0.00 321.09 L 4.69 360.94 L 28.12 431.25 L 56.25 489.84 L 93.75 536.72 L 133.59 569.53 L 187.50 592.97 L 314.06 595.31 L 346.88 585.94 L 435.94 539.06 L 480.47 494.53 L 501.56 457.03 L 510.94 393.75 L 503.91 332.81 L 447.66 243.75 L 398.44 199.22 L 316.41 147.66 L 100.78 107.81 L 70.31 91.41 L 49.22 67.97" stroke="white" fill="transparent"/>
	<path d = "M 168.75 424.22 L 168.75 473.44 L 349.22 478.12 L 358.59 550.78 L 154.69 541.41 L 138.28 555.47 L 140.62 585.94 L 145.31 585.94" stroke="white" fill="transparent"/>
	<path d = "M 161.72 464.06 L 152.34 541.41" stroke="white" fill="transparent"/>
	<path d = "M 180.47 424.22 L 323.44 424.22 L 337.50 435.94 L 339.84 473.44" stroke="white" fill="transparent"/>
	<path d = "M 194.53 496.88 L 210.94 508.59 L 281.25 515.62 L 330.47 489.84" stroke="white" fill="transparent"/>
</svg>