<?xml version="1.0" encoding="UTF-8" standalone="no"?>
<!--Created with ndjsontosvg (https:https://github.com/thompson318/ndjsontosvg) 
	from the simplified Google quickdraw data set. key_id = 6566750030135296-->
<svg width="600" height="600"
	xmlns="http://www.w3.org/2000/svg">
	xmlns:ndjsontosvg="https://github.com/thompson318/ndjsontosvg"
	xmlns:quickdraw="https://quickdraw.withgoogle.com/data"
	xmlns:scikit-surgery="https://doi.org/10.1007/s11548-020-02180-5">

	<rect width="100%" height="100%" fill="black" />
	<path d = "M 335.16 496.88 L 316.41 506.25 L 229.69 506.25 L 166.41 478.12 L 135.94 459.38 L 60.94 391.41 L 16.41 335.16 L 4.69 300.00 L 0.00 232.03 L 9.38 192.19 L 53.91 107.81 L 110.16 46.88 L 138.28 28.12 L 171.09 9.38 L 246.09 0.00 L 283.59 2.34 L 325.78 18.75 L 431.25 98.44 L 482.81 166.41 L 496.88 199.22 L 515.62 269.53 L 515.62 323.44 L 506.25 356.25 L 452.34 428.91 L 379.69 480.47 L 314.06 503.91 L 234.38 503.91 L 210.94 494.53" stroke="white" fill="transparent"/>
	<path d = "M 196.88 42.19 L 201.56 135.94 L 225.00 208.59" stroke="white" fill="transparent"/>
	<path d = "M 307.03 42.19 L 316.41 189.84" stroke="white" fill="transparent"/>
	<path d = "M 199.22 363.28 L 196.88 377.34 L 257.81 597.66 L 358.59 482.81 L 405.47 379.69 L 393.75 370.31 L 206.25 370.31 L 227.34 400.78 L 290.62 590.62 L 248.44 400.78 L 274.22 510.94 L 257.81 492.19 L 225.00 375.00 L 290.62 536.72 L 253.12 431.25 L 234.38 351.56 L 271.88 564.84 L 250.78 461.72 L 246.09 377.34 L 290.62 543.75 L 295.31 522.66 L 290.62 403.12 L 311.72 522.66 L 307.03 393.75 L 307.03 428.91 L 321.09 496.88 L 325.78 367.97 L 360.94 461.72 L 384.38 386.72 L 391.41 372.66 L 396.09 382.03" stroke="white" fill="transparent"/>
</svg>