<?xml version="1.0" encoding="UTF-8" standalone="no"?>
<!--Created with ndjsontosvg (https:https://github.com/thompson318/ndjsontosvg) 
	from the simplified Google quickdraw data set. key_id = 6547866875068416-->
<svg width="600" height="600"
	xmlns="http://www.w3.org/2000/svg">
	xmlns:ndjsontosvg="https://github.com/thompson318/ndjsontosvg"
	xmlns:quickdraw="https://quickdraw.withgoogle.com/data"
	xmlns:scikit-surgery="https://doi.org/10.1007/s11548-020-02180-5">

	<rect width="100%" height="100%" fill="black" />
	<path d = "M 161.72 269.53 L 166.41 288.28 L 150.00 246.09 L 180.47 295.31 L 189.84 300.00 L 178.12 239.06 L 208.59 292.97" stroke="white" fill="transparent"/>
	<path d = "M 208.59 271.88 L 222.66 304.69" stroke="white" fill="transparent"/>
	<path d = "M 232.03 257.81 L 250.78 295.31" stroke="white" fill="transparent"/>
	<path d = "M 241.41 257.81 L 264.84 297.66" stroke="white" fill="transparent"/>
	<path d = "M 260.16 257.81 L 288.28 285.94" stroke="white" fill="transparent"/>
	<path d = "M 292.97 253.12 L 302.34 276.56" stroke="white" fill="transparent"/>
	<path d = "M 311.72 248.44 L 332.81 283.59" stroke="white" fill="transparent"/>
	<path d = "M 335.16 246.09 L 344.53 264.84" stroke="white" fill="transparent"/>
	<path d = "M 358.59 264.84 L 358.59 264.84" stroke="white" fill="transparent"/>
	<path d = "M 384.38 288.28 L 389.06 314.06" stroke="white" fill="transparent"/>
	<path d = "M 396.09 346.88 L 400.78 393.75" stroke="white" fill="transparent"/>
	<path d = "M 377.34 285.94 L 400.78 442.97" stroke="white" fill="transparent"/>
	<path d = "M 377.34 365.62 L 396.09 515.62" stroke="white" fill="transparent"/>
	<path d = "M 346.88 384.38 L 351.56 522.66" stroke="white" fill="transparent"/>
	<path d = "M 302.34 370.31 L 297.66 398.44 L 304.69 506.25" stroke="white" fill="transparent"/>
	<path d = "M 267.19 400.78 L 269.53 520.31" stroke="white" fill="transparent"/>
	<path d = "M 220.31 393.75 L 232.03 525.00" stroke="white" fill="transparent"/>
	<path d = "M 203.91 435.94 L 196.88 520.31 L 187.50 487.50" stroke="white" fill="transparent"/>
	<path d = "M 168.75 419.53 L 164.06 414.84 L 164.06 424.22 L 168.75 494.53" stroke="white" fill="transparent"/>
	<path d = "M 131.25 400.78 L 152.34 506.25" stroke="white" fill="transparent"/>
	<path d = "M 140.62 367.97 L 152.34 471.09" stroke="white" fill="transparent"/>
	<path d = "M 133.59 276.56 L 152.34 372.66 L 157.03 447.66" stroke="white" fill="transparent"/>
	<path d = "M 138.28 246.09 L 168.75 426.56" stroke="white" fill="transparent"/>
	<path d = "M 173.44 225.00 L 210.94 335.16" stroke="white" fill="transparent"/>
	<path d = "M 220.31 213.28 L 246.09 297.66 L 255.47 300.00" stroke="white" fill="transparent"/>
	<path d = "M 269.53 227.34 L 278.91 232.03 L 297.66 288.28 L 307.03 222.66 L 314.06 217.97 L 344.53 297.66 L 332.81 229.69 L 363.28 295.31 L 365.62 264.84 L 353.91 217.97" stroke="white" fill="transparent"/>
	<path d = "M 328.12 311.72 L 314.06 339.84 L 278.91 353.91 L 236.72 353.91 L 215.62 342.19" stroke="white" fill="transparent"/>
	<path d = "M 421.88 419.53 L 433.59 246.09 L 424.22 189.84 L 403.12 133.59 L 367.97 75.00 L 337.50 42.19 L 283.59 16.41 L 215.62 0.00 L 166.41 2.34 L 110.16 37.50 L 56.25 98.44 L 32.81 166.41 L 25.78 278.91 L 37.50 323.44 L 72.66 372.66 L 103.12 398.44 L 126.56 403.12" stroke="white" fill="transparent"/>
	<path d = "M 323.44 77.34 L 318.75 112.50 L 292.97 117.19 L 264.84 65.62 L 269.53 35.16 L 295.31 25.78 L 307.03 39.84 L 316.41 75.00 L 309.38 93.75" stroke="white" fill="transparent"/>
	<path d = "M 173.44 82.03 L 171.09 91.41 L 154.69 96.09 L 133.59 84.38 L 119.53 65.62 L 131.25 63.28 L 161.72 91.41 L 180.47 119.53 L 175.78 131.25 L 159.38 128.91 L 114.84 100.78" stroke="white" fill="transparent"/>
	<path d = "M 417.19 222.66 L 288.28 196.88 L 213.28 192.19 L 117.19 206.25 L 56.25 234.38 L 18.75 290.62 L 0.00 379.69 L 2.34 445.31 L 11.72 487.50 L 30.47 525.00 L 51.56 548.44 L 124.22 595.31 L 196.88 597.66 L 405.47 560.16 L 468.75 525.00 L 494.53 480.47 L 501.56 410.16 L 496.88 372.66 L 466.41 285.94 L 442.97 250.78 L 421.88 220.31 L 377.34 187.50" stroke="white" fill="transparent"/>
</svg>