<?xml version="1.0" encoding="UTF-8" standalone="no"?>
<!--Created with ndjsontosvg (https:https://github.com/thompson318/ndjsontosvg) 
	from the simplified Google quickdraw data set. key_id = 5405800874901504-->
<svg width="600" height="600"
	xmlns="http://www.w3.org/2000/svg">
	xmlns:ndjsontosvg="https://github.com/thompson318/ndjsontosvg"
	xmlns:quickdraw="https://quickdraw.withgoogle.com/data"
	xmlns:scikit-surgery="https://doi.org/10.1007/s11548-020-02180-5">

	<rect width="100%" height="100%" fill="black" />
	<path d = "M 140.62 569.53 L 154.69 480.47 L 142.97 557.81 L 154.69 440.62 L 152.34 454.69 L 173.44 461.72 L 257.81 452.34 L 173.44 461.72 L 246.09 452.34 L 316.41 452.34 L 309.38 473.44 L 316.41 534.38 L 314.06 468.75 L 311.72 564.84" stroke="white" fill="transparent"/>
	<path d = "M 225.00 525.00 L 234.38 534.38 L 234.38 576.56 L 236.72 546.09 L 234.38 583.59 L 232.03 557.81 L 225.00 597.66" stroke="white" fill="transparent"/>
	<path d = "M 42.19 461.72 L 105.47 546.09 L 75.00 515.62 L 65.62 501.56 L 75.00 508.59 L 135.94 574.22 L 131.25 567.19 L 217.97 590.62 L 225.00 592.97 L 215.62 595.31 L 295.31 588.28 L 330.47 543.75 L 370.31 513.28 L 400.78 475.78 L 386.72 499.22 L 412.50 473.44 L 452.34 412.50 L 393.75 492.19 L 295.31 571.88 L 229.69 574.22 L 182.81 562.50 L 114.84 567.19 L 91.41 560.16 L 70.31 532.03 L 42.19 452.34 L 30.47 391.41 L 67.97 473.44 L 112.50 539.06 L 86.72 517.97 L 56.25 473.44 L 16.41 370.31 L 86.72 508.59 L 117.19 550.78 L 112.50 553.12" stroke="white" fill="transparent"/>
	<path d = "M 234.38 250.78 L 225.00 321.09 L 255.47 335.16" stroke="white" fill="transparent"/>
	<path d = "M 7.03 372.66 L 0.00 206.25 L 4.69 262.50 L 18.75 147.66 L 37.50 93.75 L 63.28 51.56 L 105.47 21.09 L 203.91 0.00 L 257.81 2.34 L 335.16 25.78" stroke="white" fill="transparent"/>
</svg>