<?xml version="1.0" encoding="UTF-8" standalone="no"?>
<!--Created with ndjsontosvg (https:https://github.com/thompson318/ndjsontosvg) 
	from the simplified Google quickdraw data set. key_id = 5775129516703744-->
<svg width="600" height="600"
	xmlns="http://www.w3.org/2000/svg">
	xmlns:ndjsontosvg="https://github.com/thompson318/ndjsontosvg"
	xmlns:quickdraw="https://quickdraw.withgoogle.com/data"
	xmlns:scikit-surgery="https://doi.org/10.1007/s11548-020-02180-5">

	<rect width="100%" height="100%" fill="black" />
	<path d = "M 159.38 21.09 L 138.28 11.72 L 100.78 11.72 L 37.50 51.56 L 14.06 82.03 L 0.00 114.84 L 0.00 145.31 L 23.44 175.78 L 58.59 185.16 L 107.81 182.81 L 168.75 152.34 L 192.19 124.22 L 203.91 96.09 L 199.22 65.62 L 182.81 51.56 L 128.91 25.78 L 114.84 0.00" stroke="white" fill="transparent"/>
	<path d = "M 389.06 32.81 L 351.56 30.47 L 302.34 77.34 L 285.94 124.22 L 288.28 175.78 L 314.06 189.84 L 358.59 182.81 L 396.09 157.03 L 428.91 121.88 L 442.97 91.41 L 442.97 60.94 L 421.88 39.84 L 382.03 23.44" stroke="white" fill="transparent"/>
	<path d = "M 574.22 44.53 L 555.47 39.84 L 525.00 58.59 L 482.81 121.88 L 471.09 166.41 L 473.44 199.22 L 501.56 203.91 L 522.66 189.84 L 560.16 147.66 L 595.31 75.00 L 597.66 35.16 L 583.59 25.78" stroke="white" fill="transparent"/>
	<path d = "M 274.22 30.47 L 241.41 77.34 L 222.66 159.38 L 222.66 199.22 L 234.38 220.31 L 248.44 220.31 L 271.88 189.84 L 295.31 119.53 L 295.31 63.28 L 285.94 4.69" stroke="white" fill="transparent"/>
	<path d = "M 208.59 236.72 L 152.34 239.06 L 110.16 269.53 L 91.41 302.34 L 91.41 321.09 L 124.22 344.53 L 187.50 344.53 L 206.25 328.12 L 229.69 292.97 L 232.03 232.03 L 208.59 217.97 L 173.44 222.66" stroke="white" fill="transparent"/>
	<path d = "M 377.34 234.38 L 358.59 234.38 L 323.44 260.16 L 288.28 318.75 L 292.97 351.56 L 302.34 358.59 L 344.53 351.56 L 398.44 295.31 L 412.50 257.81 L 414.84 217.97" stroke="white" fill="transparent"/>
	<path d = "M 546.09 213.28 L 496.88 215.62 L 464.06 243.75 L 454.69 264.84 L 452.34 304.69 L 473.44 330.47 L 510.94 325.78 L 536.72 292.97 L 546.09 232.03 L 541.41 215.62 L 517.97 194.53" stroke="white" fill="transparent"/>
</svg>