<?xml version="1.0" encoding="UTF-8" standalone="no"?>
<!--Created with ndjsontosvg (https:https://github.com/thompson318/ndjsontosvg) 
	from the simplified Google quickdraw data set. key_id = 5086645319630848-->
<svg width="600" height="600"
	xmlns="http://www.w3.org/2000/svg">
	xmlns:ndjsontosvg="https://github.com/thompson318/ndjsontosvg"
	xmlns:quickdraw="https://quickdraw.withgoogle.com/data"
	xmlns:scikit-surgery="https://doi.org/10.1007/s11548-020-02180-5">

	<rect width="100%" height="100%" fill="black" />
	<path d = "M 321.09 25.78 L 257.81 157.03 L 260.16 175.78 L 304.69 168.75 L 337.50 103.12 L 370.31 0.00" stroke="white" fill="transparent"/>
	<path d = "M 276.56 182.81 L 323.44 215.62 L 358.59 269.53 L 358.59 300.00 L 337.50 321.09 L 297.66 321.09 L 274.22 309.38 L 269.53 292.97 L 271.88 255.47 L 288.28 243.75" stroke="white" fill="transparent"/>
	<path d = "M 225.00 220.31 L 196.88 194.53 L 175.78 194.53 L 157.03 210.94 L 152.34 288.28 L 171.09 304.69 L 194.53 307.03 L 213.28 297.66 L 239.06 250.78 L 234.38 201.56 L 227.34 201.56" stroke="white" fill="transparent"/>
	<path d = "M 96.09 182.81 L 77.34 175.78 L 37.50 178.12 L 11.72 217.97 L 0.00 271.88 L 23.44 295.31 L 51.56 295.31 L 72.66 295.31 L 98.44 283.59 L 138.28 239.06 L 145.31 196.88 L 119.53 182.81" stroke="white" fill="transparent"/>
	<path d = "M 107.81 307.03 L 84.38 311.72 L 67.97 337.50 L 63.28 391.41 L 75.00 414.84 L 112.50 417.19 L 135.94 414.84 L 159.38 377.34 L 159.38 335.16 L 150.00 309.38 L 133.59 302.34" stroke="white" fill="transparent"/>
	<path d = "M 281.25 351.56 L 206.25 360.94 L 187.50 389.06 L 187.50 440.62 L 206.25 459.38 L 264.84 459.38 L 288.28 424.22 L 288.28 391.41 L 271.88 358.59 L 250.78 337.50 L 234.38 335.16" stroke="white" fill="transparent"/>
	<path d = "M 161.72 478.12 L 117.19 482.81 L 86.72 525.00 L 86.72 574.22 L 117.19 597.66 L 157.03 595.31 L 182.81 553.12 L 189.84 478.12" stroke="white" fill="transparent"/>
</svg>