<?xml version="1.0" encoding="UTF-8" standalone="no"?>
<!--Created with ndjsontosvg (https:https://github.com/thompson318/ndjsontosvg) 
	from the simplified Google quickdraw data set. key_id = 6071340379406336-->
<svg width="600" height="600"
	xmlns="http://www.w3.org/2000/svg">
	xmlns:ndjsontosvg="https://github.com/thompson318/ndjsontosvg"
	xmlns:quickdraw="https://quickdraw.withgoogle.com/data"
	xmlns:scikit-surgery="https://doi.org/10.1007/s11548-020-02180-5">

	<rect width="100%" height="100%" fill="black" />
	<path d = "M 311.72 384.38 L 257.81 386.72 L 236.72 391.41 L 227.34 403.12 L 253.12 438.28 L 276.56 450.00 L 321.09 454.69 L 330.47 438.28 L 332.81 393.75 L 328.12 384.38 L 311.72 377.34" stroke="white" fill="transparent"/>
	<path d = "M 300.00 323.44 L 222.66 335.16 L 180.47 353.91 L 182.81 367.97 L 215.62 389.06 L 278.91 400.78 L 288.28 389.06 L 290.62 351.56 L 255.47 335.16" stroke="white" fill="transparent"/>
	<path d = "M 431.25 370.31 L 407.81 360.94 L 328.12 363.28 L 318.75 367.97 L 330.47 384.38 L 393.75 428.91 L 438.28 445.31 L 450.00 445.31 L 450.00 435.94 L 445.31 396.09 L 400.78 351.56" stroke="white" fill="transparent"/>
	<path d = "M 335.16 262.50 L 241.41 276.56 L 182.81 304.69 L 189.84 314.06 L 269.53 323.44 L 351.56 328.12 L 365.62 316.41 L 367.97 297.66 L 353.91 288.28 L 267.19 255.47" stroke="white" fill="transparent"/>
	<path d = "M 438.28 316.41 L 424.22 307.03 L 332.81 304.69 L 321.09 311.72 L 323.44 328.12 L 410.16 370.31 L 459.38 372.66 L 461.72 330.47 L 431.25 285.94 L 393.75 260.16" stroke="white" fill="transparent"/>
	<path d = "M 330.47 192.19 L 236.72 192.19 L 159.38 208.59 L 145.31 217.97 L 154.69 227.34 L 225.00 243.75 L 288.28 246.09 L 300.00 229.69 L 302.34 199.22 L 297.66 187.50 L 271.88 168.75 L 213.28 171.09" stroke="white" fill="transparent"/>
	<path d = "M 457.03 243.75 L 391.41 215.62 L 346.88 213.28 L 339.84 236.72 L 356.25 269.53 L 400.78 302.34 L 457.03 309.38 L 466.41 292.97 L 471.09 250.78 L 445.31 215.62 L 407.81 192.19" stroke="white" fill="transparent"/>
	<path d = "M 150.00 234.38 L 100.78 257.81 L 82.03 278.91 L 192.19 283.59 L 215.62 276.56 L 222.66 262.50 L 215.62 250.78 L 185.16 243.75 L 126.56 243.75" stroke="white" fill="transparent"/>
	<path d = "M 121.88 297.66 L 114.84 349.22 L 124.22 363.28 L 164.06 367.97 L 180.47 360.94 L 199.22 339.84 L 196.88 325.78 L 164.06 316.41 L 79.69 318.75" stroke="white" fill="transparent"/>
	<path d = "M 171.09 382.03 L 131.25 391.41 L 117.19 421.88 L 124.22 431.25 L 196.88 428.91 L 217.97 405.47 L 206.25 396.09 L 175.78 396.09 L 138.28 410.16" stroke="white" fill="transparent"/>
	<path d = "M 210.94 421.88 L 180.47 471.09 L 178.12 494.53 L 194.53 506.25 L 276.56 508.59 L 281.25 485.16 L 264.84 473.44 L 182.81 464.06 L 173.44 461.72 L 180.47 457.03" stroke="white" fill="transparent"/>
	<path d = "M 424.22 414.84 L 358.59 424.22 L 335.16 435.94 L 316.41 457.03 L 314.06 480.47 L 335.16 503.91 L 379.69 513.28 L 391.41 508.59 L 398.44 459.38 L 389.06 445.31 L 337.50 407.81" stroke="white" fill="transparent"/>
	<path d = "M 290.62 513.28 L 246.09 546.09 L 234.38 569.53 L 271.88 595.31 L 325.78 595.31 L 346.88 578.91 L 353.91 560.16 L 311.72 522.66 L 274.22 517.97" stroke="white" fill="transparent"/>
	<path d = "M 297.66 166.41 L 46.88 18.75" stroke="white" fill="transparent"/>
	<path d = "M 164.06 79.69 L 171.09 25.78 L 187.50 14.06 L 255.47 0.00 L 267.19 2.34 L 267.19 18.75 L 236.72 53.91 L 140.62 124.22" stroke="white" fill="transparent"/>
	<path d = "M 133.59 86.72 L 21.09 86.72 L 2.34 105.47 L 0.00 117.19 L 11.72 133.59 L 67.97 164.06 L 103.12 168.75 L 178.12 168.75 L 213.28 150.00" stroke="white" fill="transparent"/>
</svg>