<?xml version="1.0" encoding="UTF-8" standalone="no"?>
<!--Created with ndjsontosvg (https:https://github.com/thompson318/ndjsontosvg) 
	from the simplified Google quickdraw data set. key_id = 5845424474685440-->
<svg width="600" height="600"
	xmlns="http://www.w3.org/2000/svg">
	xmlns:ndjsontosvg="https://github.com/thompson318/ndjsontosvg"
	xmlns:quickdraw="https://quickdraw.withgoogle.com/data"
	xmlns:scikit-surgery="https://doi.org/10.1007/s11548-020-02180-5">

	<rect width="100%" height="100%" fill="black" />
	<path d = "M 4.69 67.97 L 0.00 77.34 L 4.69 121.88 L 14.06 56.25 L 23.44 39.84 L 30.47 51.56 L 37.50 107.81 L 58.59 21.09 L 75.00 105.47 L 96.09 39.84 L 103.12 42.19 L 110.16 89.06 L 138.28 30.47 L 161.72 14.06 L 178.12 98.44 L 196.88 77.34 L 215.62 25.78 L 217.97 103.12 L 248.44 21.09 L 262.50 4.69 L 269.53 107.81 L 278.91 100.78 L 307.03 25.78 L 309.38 89.06 L 318.75 84.38 L 346.88 14.06 L 349.22 84.38 L 353.91 86.72 L 384.38 21.09 L 382.03 105.47 L 393.75 91.41 L 417.19 2.34 L 419.53 75.00 L 424.22 77.34 L 461.72 0.00 L 459.38 105.47 L 496.88 4.69 L 496.88 128.91 L 513.28 107.81 L 541.41 18.75 L 541.41 105.47 L 550.78 98.44 L 592.97 11.72 L 595.31 39.84" stroke="white" fill="transparent"/>
</svg>