<?xml version="1.0" encoding="UTF-8" standalone="no"?>
<!--Created with ndjsontosvg (https:https://github.com/thompson318/ndjsontosvg) 
	from the simplified Google quickdraw data set. key_id = 6423686154289152-->
<svg width="600" height="600"
	xmlns="http://www.w3.org/2000/svg">
	xmlns:ndjsontosvg="https://github.com/thompson318/ndjsontosvg"
	xmlns:quickdraw="https://quickdraw.withgoogle.com/data"
	xmlns:scikit-surgery="https://doi.org/10.1007/s11548-020-02180-5">

	<rect width="100%" height="100%" fill="black" />
	<path d = "M 0.00 147.66 L 25.78 53.91 L 28.12 18.75 L 30.47 67.97 L 53.91 112.50 L 75.00 126.56 L 84.38 86.72 L 98.44 60.94 L 100.78 35.16 L 103.12 65.62 L 147.66 152.34 L 152.34 65.62 L 175.78 0.00 L 227.34 150.00 L 229.69 112.50 L 274.22 60.94 L 297.66 11.72 L 307.03 171.09 L 318.75 215.62 L 377.34 42.19 L 384.38 72.66 L 384.38 161.72 L 396.09 185.16 L 400.78 60.94 L 403.12 49.22 L 419.53 46.88 L 440.62 180.47 L 457.03 208.59 L 480.47 210.94 L 480.47 93.75 L 492.19 44.53 L 506.25 44.53 L 597.66 192.19 L 597.66 96.09 L 588.28 42.19" stroke="white" fill="transparent"/>
</svg>