<?xml version="1.0" encoding="UTF-8" standalone="no"?>
<!--Created with ndjsontosvg (https:https://github.com/thompson318/ndjsontosvg) 
	from the simplified Google quickdraw data set. key_id = 4673939580125184-->
<svg width="600" height="600"
	xmlns="http://www.w3.org/2000/svg">
	xmlns:ndjsontosvg="https://github.com/thompson318/ndjsontosvg"
	xmlns:quickdraw="https://quickdraw.withgoogle.com/data"
	xmlns:scikit-surgery="https://doi.org/10.1007/s11548-020-02180-5">

	<rect width="100%" height="100%" fill="black" />
	<path d = "M 0.00 478.12 L 0.00 461.72 L 58.59 377.34 L 105.47 276.56 L 140.62 173.44 L 203.91 103.12 L 203.91 138.28 L 168.75 302.34 L 105.47 487.50 L 82.03 520.31 L 75.00 517.97" stroke="white" fill="transparent"/>
	<path d = "M 147.66 536.72 L 196.88 424.22 L 229.69 302.34 L 255.47 241.41 L 328.12 110.16 L 344.53 98.44 L 330.47 168.75 L 243.75 435.94 L 213.28 553.12 L 208.59 597.66" stroke="white" fill="transparent"/>
	<path d = "M 194.53 215.62 L 194.53 159.38 L 232.03 49.22 L 248.44 11.72 L 264.84 0.00 L 271.88 16.41 L 274.22 208.59" stroke="white" fill="transparent"/>
	<path d = "M 236.72 522.66 L 236.72 466.41 L 335.16 234.38 L 342.19 175.78 L 372.66 145.31 L 379.69 159.38 L 353.91 264.84 L 323.44 492.19 L 300.00 569.53" stroke="white" fill="transparent"/>
	<path d = "M 300.00 569.53 L 300.00 496.88 L 330.47 370.31 L 370.31 246.09 L 424.22 145.31 L 475.78 107.81 L 438.28 557.81" stroke="white" fill="transparent"/>
</svg>