<?xml version="1.0" encoding="UTF-8" standalone="no"?>
<!--Created with ndjsontosvg (https:https://github.com/thompson318/ndjsontosvg) 
	from the simplified Google quickdraw data set. key_id = 6461916484468736-->
<svg width="600" height="600"
	xmlns="http://www.w3.org/2000/svg">
	xmlns:ndjsontosvg="https://github.com/thompson318/ndjsontosvg"
	xmlns:quickdraw="https://quickdraw.withgoogle.com/data"
	xmlns:scikit-surgery="https://doi.org/10.1007/s11548-020-02180-5">

	<rect width="100%" height="100%" fill="black" />
	<path d = "M 21.09 70.31 L 53.91 37.50 L 114.84 11.72 L 145.31 9.38 L 192.19 42.19 L 241.41 4.69 L 255.47 0.00 L 288.28 0.00 L 372.66 23.44 L 370.31 37.50 L 358.59 51.56 L 285.94 77.34 L 473.44 77.34 L 534.38 70.31 L 550.78 58.59 L 585.94 58.59 L 597.66 75.00 L 574.22 86.72 L 522.66 86.72 L 466.41 110.16 L 267.19 112.50 L 344.53 128.91 L 367.97 140.62 L 363.28 164.06 L 339.84 182.81 L 304.69 182.81 L 274.22 168.75 L 227.34 168.75 L 196.88 145.31 L 166.41 140.62 L 147.66 147.66 L 114.84 178.12 L 53.91 182.81 L 21.09 154.69 L 2.34 112.50 L 2.34 86.72 L 25.78 67.97" stroke="white" fill="transparent"/>
	<path d = "M 79.69 119.53 L 229.69 117.19 L 344.53 89.06 L 407.81 84.38" stroke="white" fill="transparent"/>
	<path d = "M 98.44 105.47 L 311.72 96.09 L 365.62 82.03 L 412.50 82.03" stroke="white" fill="transparent"/>
	<path d = "M 96.09 89.06 L 290.62 89.06 L 335.16 75.00 L 428.91 65.62 L 515.62 75.00" stroke="white" fill="transparent"/>
	<path d = "M 283.59 103.12 L 372.66 96.09 L 461.72 77.34 L 478.12 82.03 L 494.53 79.69" stroke="white" fill="transparent"/>
</svg>