<?xml version="1.0" encoding="UTF-8" standalone="no"?>
<!--Created with ndjsontosvg (https:https://github.com/thompson318/ndjsontosvg) 
	from the simplified Google quickdraw data set. key_id = 5861170495881216-->
<svg width="600" height="600"
	xmlns="http://www.w3.org/2000/svg">
	xmlns:ndjsontosvg="https://github.com/thompson318/ndjsontosvg"
	xmlns:quickdraw="https://quickdraw.withgoogle.com/data"
	xmlns:scikit-surgery="https://doi.org/10.1007/s11548-020-02180-5">

	<rect width="100%" height="100%" fill="black" />
	<path d = "M 18.75 67.97 L 23.44 264.84 L 70.31 281.25 L 201.56 295.31 L 384.38 290.62 L 506.25 264.84 L 534.38 234.38 L 543.75 210.94 L 539.06 138.28 L 520.31 84.38 L 496.88 49.22 L 431.25 14.06 L 370.31 0.00 L 285.94 0.00 L 121.88 14.06 L 103.12 37.50 L 51.56 60.94 L 28.12 91.41 L 0.00 166.41" stroke="white" fill="transparent"/>
	<path d = "M 4.69 459.38 L 4.69 485.16 L 16.41 520.31 L 35.16 548.44 L 70.31 585.94 L 119.53 595.31 L 262.50 597.66 L 321.09 588.28 L 466.41 529.69 L 496.88 510.94 L 508.59 499.22 L 539.06 407.81 L 539.06 384.38 L 527.34 379.69 L 410.16 379.69 L 339.84 398.44 L 239.06 405.47 L 51.56 405.47 L 25.78 440.62 L 9.38 445.31 L 4.69 435.94" stroke="white" fill="transparent"/>
	<path d = "M 18.75 241.41 L 35.16 375.00" stroke="white" fill="transparent"/>
</svg>