<?xml version="1.0" encoding="UTF-8" standalone="no"?>
<!--Created with ndjsontosvg (https:https://github.com/thompson318/ndjsontosvg) 
	from the simplified Google quickdraw data set. key_id = 5435963855601664-->
<svg width="600" height="600"
	xmlns="http://www.w3.org/2000/svg">
	xmlns:ndjsontosvg="https://github.com/thompson318/ndjsontosvg"
	xmlns:quickdraw="https://quickdraw.withgoogle.com/data"
	xmlns:scikit-surgery="https://doi.org/10.1007/s11548-020-02180-5">

	<rect width="100%" height="100%" fill="black" />
	<path d = "M 53.91 215.62 L 72.66 222.66 L 571.88 225.00 L 539.06 292.97 L 506.25 309.38 L 297.66 314.06 L 103.12 300.00 L 84.38 283.59 L 67.97 215.62" stroke="white" fill="transparent"/>
	<path d = "M 128.91 208.59 L 128.91 173.44 L 185.16 166.41 L 414.84 173.44 L 543.75 187.50 L 532.03 187.50 L 522.66 201.56" stroke="white" fill="transparent"/>
	<path d = "M 321.09 140.62 L 260.16 114.84 L 131.25 107.81 L 0.00 147.66 L 18.75 133.59 L 84.38 117.19 L 262.50 126.56 L 356.25 140.62 L 295.31 142.97 L 281.25 140.62 L 300.00 135.94 L 353.91 128.91 L 541.41 124.22 L 585.94 140.62 L 597.66 157.03" stroke="white" fill="transparent"/>
	<path d = "M 180.47 135.94 L 187.50 16.41 L 468.75 0.00 L 480.47 14.06 L 485.16 53.91 L 485.16 164.06" stroke="white" fill="transparent"/>
	<path d = "M 67.97 35.16 L 79.69 25.78 L 239.06 11.72 L 543.75 11.72" stroke="white" fill="transparent"/>
</svg>