<?xml version="1.0" encoding="UTF-8" standalone="no"?>
<!--Created with ndjsontosvg (https:https://github.com/thompson318/ndjsontosvg) 
	from the simplified Google quickdraw data set. key_id = 6374337705672704-->
<svg width="600" height="600"
	xmlns="http://www.w3.org/2000/svg">
	xmlns:ndjsontosvg="https://github.com/thompson318/ndjsontosvg"
	xmlns:quickdraw="https://quickdraw.withgoogle.com/data"
	xmlns:scikit-surgery="https://doi.org/10.1007/s11548-020-02180-5">

	<rect width="100%" height="100%" fill="black" />
	<path d = "M 49.22 255.47 L 67.97 182.81 L 107.81 126.56 L 201.56 28.12 L 276.56 2.34 L 332.81 2.34 L 365.62 23.44 L 468.75 140.62 L 534.38 250.78 L 318.75 246.09 L 182.81 222.66 L 114.84 222.66 L 32.81 234.38" stroke="white" fill="transparent"/>
	<path d = "M 32.81 234.38 L 4.69 239.06 L 0.00 257.81 L 18.75 260.16 L 42.19 314.06 L 86.72 316.41 L 126.56 297.66 L 175.78 300.00 L 196.88 285.94 L 215.62 300.00 L 246.09 295.31 L 276.56 311.72 L 307.03 314.06 L 330.47 297.66 L 424.22 300.00 L 452.34 292.97 L 464.06 288.28 L 489.84 253.12 L 553.12 253.12 L 597.66 222.66" stroke="white" fill="transparent"/>
	<path d = "M 84.38 311.72 L 9.38 339.84 L 4.69 391.41 L 30.47 435.94 L 65.62 454.69 L 98.44 459.38 L 234.38 459.38 L 461.72 440.62 L 515.62 424.22 L 541.41 391.41 L 548.44 349.22 L 527.34 316.41 L 485.16 288.28" stroke="white" fill="transparent"/>
</svg>