<?xml version="1.0" encoding="UTF-8" standalone="no"?>
<!--Created with ndjsontosvg (https:https://github.com/thompson318/ndjsontosvg) 
	from the simplified Google quickdraw data set. key_id = 5676698831945728-->
<svg width="600" height="600"
	xmlns="http://www.w3.org/2000/svg">
	xmlns:ndjsontosvg="https://github.com/thompson318/ndjsontosvg"
	xmlns:quickdraw="https://quickdraw.withgoogle.com/data"
	xmlns:scikit-surgery="https://doi.org/10.1007/s11548-020-02180-5">

	<rect width="100%" height="100%" fill="black" />
	<path d = "M 0.00 309.38 L 37.50 304.69 L 131.25 278.91 L 311.72 257.81 L 517.97 257.81 L 578.91 269.53" stroke="white" fill="transparent"/>
	<path d = "M 0.00 309.38 L 16.41 257.81 L 84.38 182.81 L 147.66 79.69 L 175.78 53.91 L 225.00 35.16 L 325.78 16.41 L 370.31 0.00 L 407.81 4.69 L 452.34 21.09 L 471.09 39.84 L 494.53 79.69 L 496.88 96.09 L 534.38 138.28 L 588.28 222.66 L 597.66 255.47" stroke="white" fill="transparent"/>
	<path d = "M 30.47 337.50 L 35.16 407.81 L 49.22 414.84 L 335.16 414.84 L 367.97 412.50 L 424.22 386.72 L 445.31 386.72 L 503.91 344.53 L 536.72 330.47 L 548.44 314.06 L 466.41 269.53 L 391.41 264.84 L 335.16 248.44 L 288.28 248.44 L 114.84 292.97 L 75.00 311.72" stroke="white" fill="transparent"/>
</svg>