<?xml version="1.0" encoding="UTF-8" standalone="no"?>
<!--Created with ndjsontosvg (https:https://github.com/thompson318/ndjsontosvg) 
	from the simplified Google quickdraw data set. key_id = 4846559869009920-->
<svg width="600" height="600"
	xmlns="http://www.w3.org/2000/svg">
	xmlns:ndjsontosvg="https://github.com/thompson318/ndjsontosvg"
	xmlns:quickdraw="https://quickdraw.withgoogle.com/data"
	xmlns:scikit-surgery="https://doi.org/10.1007/s11548-020-02180-5">

	<rect width="100%" height="100%" fill="black" />
	<path d = "M 89.06 161.72 L 103.12 112.50 L 126.56 79.69 L 168.75 49.22 L 255.47 16.41 L 398.44 0.00 L 450.00 14.06 L 485.16 46.88 L 522.66 196.88 L 468.75 239.06 L 424.22 257.81 L 396.09 260.16 L 210.94 225.00 L 84.38 166.41" stroke="white" fill="transparent"/>
	<path d = "M 121.88 271.88 L 128.91 290.62 L 159.38 300.00 L 431.25 300.00 L 529.69 283.59 L 592.97 281.25 L 597.66 290.62 L 548.44 407.81 L 367.97 405.47 L 124.22 414.84 L 89.06 398.44 L 56.25 370.31 L 77.34 300.00" stroke="white" fill="transparent"/>
	<path d = "M 105.47 290.62 L 56.25 292.97" stroke="white" fill="transparent"/>
	<path d = "M 100.78 182.81 L 70.31 182.81 L 21.09 201.56 L 2.34 217.97 L 9.38 239.06 L 51.56 246.09" stroke="white" fill="transparent"/>
</svg>