<?xml version="1.0" encoding="UTF-8" standalone="no"?>
<!--Created with ndjsontosvg (https:https://github.com/thompson318/ndjsontosvg) 
	from the simplified Google quickdraw data set. key_id = 6622708513112064-->
<svg width="600" height="600"
	xmlns="http://www.w3.org/2000/svg">
	xmlns:ndjsontosvg="https://github.com/thompson318/ndjsontosvg"
	xmlns:quickdraw="https://quickdraw.withgoogle.com/data"
	xmlns:scikit-surgery="https://doi.org/10.1007/s11548-020-02180-5">

	<rect width="100%" height="100%" fill="black" />
	<path d = "M 513.28 246.09 L 527.34 178.12 L 513.28 117.19 L 487.50 65.62 L 459.38 32.81 L 424.22 14.06 L 363.28 0.00 L 271.88 0.00 L 217.97 18.75 L 135.94 60.94 L 98.44 100.78 L 65.62 178.12 L 63.28 269.53 L 403.12 260.16 L 487.50 243.75 L 520.31 248.44" stroke="white" fill="transparent"/>
	<path d = "M 56.25 274.22 L 23.44 276.56 L 7.03 295.31 L 0.00 316.41 L 9.38 339.84 L 44.53 346.88 L 339.84 353.91 L 424.22 346.88 L 536.72 346.88 L 569.53 335.16 L 590.62 318.75 L 597.66 276.56 L 578.91 255.47 L 534.38 250.78" stroke="white" fill="transparent"/>
	<path d = "M 501.56 346.88 L 501.56 346.88" stroke="white" fill="transparent"/>
</svg>