<?xml version="1.0" encoding="UTF-8" standalone="no"?>
<!--Created with ndjsontosvg (https:https://github.com/thompson318/ndjsontosvg) 
	from the simplified Google quickdraw data set. key_id = 4953029478449152-->
<svg width="600" height="600"
	xmlns="http://www.w3.org/2000/svg">
	xmlns:ndjsontosvg="https://github.com/thompson318/ndjsontosvg"
	xmlns:quickdraw="https://quickdraw.withgoogle.com/data"
	xmlns:scikit-surgery="https://doi.org/10.1007/s11548-020-02180-5">

	<rect width="100%" height="100%" fill="black" />
	<path d = "M 222.66 199.22 L 236.72 342.19 L 232.03 527.34" stroke="white" fill="transparent"/>
	<path d = "M 222.66 194.53 L 292.97 189.84 L 389.06 199.22 L 363.28 375.00 L 370.31 581.25 L 360.94 597.66 L 199.22 578.91" stroke="white" fill="transparent"/>
	<path d = "M 522.66 4.69 L 522.66 91.41 L 510.94 194.53 L 454.69 189.84 L 370.31 194.53" stroke="white" fill="transparent"/>
	<path d = "M 506.25 7.03 L 157.03 2.34 L 117.19 11.72 L 58.59 39.84 L 11.72 98.44 L 0.00 135.94 L 7.03 222.66 L 25.78 271.88 L 30.47 236.72 L 42.19 222.66 L 93.75 199.22 L 222.66 180.47 L 274.22 199.22" stroke="white" fill="transparent"/>
</svg>