<?xml version="1.0" encoding="UTF-8" standalone="no"?>
<!--Created with ndjsontosvg (https:https://github.com/thompson318/ndjsontosvg) 
	from the simplified Google quickdraw data set. key_id = 4833996888342528-->
<svg width="600" height="600"
	xmlns="http://www.w3.org/2000/svg">
	xmlns:ndjsontosvg="https://github.com/thompson318/ndjsontosvg"
	xmlns:quickdraw="https://quickdraw.withgoogle.com/data"
	xmlns:scikit-surgery="https://doi.org/10.1007/s11548-020-02180-5">

	<rect width="100%" height="100%" fill="black" />
	<path d = "M 9.38 86.72 L 9.38 86.72" stroke="white" fill="transparent"/>
	<path d = "M 9.38 86.72 L 9.38 86.72" stroke="white" fill="transparent"/>
	<path d = "M 9.38 86.72 L 7.03 91.41" stroke="white" fill="transparent"/>
	<path d = "M 7.03 93.75 L 4.69 117.19" stroke="white" fill="transparent"/>
	<path d = "M 4.69 124.22 L 4.69 124.22" stroke="white" fill="transparent"/>
	<path d = "M 4.69 100.78 L 4.69 131.25" stroke="white" fill="transparent"/>
	<path d = "M 4.69 131.25 L 4.69 131.25" stroke="white" fill="transparent"/>
	<path d = "M 4.69 135.94 L 4.69 135.94" stroke="white" fill="transparent"/>
	<path d = "M 4.69 138.28 L 4.69 138.28" stroke="white" fill="transparent"/>
	<path d = "M 4.69 100.78 L 4.69 131.25" stroke="white" fill="transparent"/>
	<path d = "M 4.69 138.28 L 4.69 138.28" stroke="white" fill="transparent"/>
	<path d = "M 4.69 100.78 L 4.69 140.62" stroke="white" fill="transparent"/>
	<path d = "M 4.69 103.12 L 2.34 96.09 L 4.69 100.78" stroke="white" fill="transparent"/>
	<path d = "M 4.69 100.78 L 4.69 100.78" stroke="white" fill="transparent"/>
	<path d = "M 0.00 267.19 L 0.00 112.50 L 9.38 89.06 L 37.50 72.66 L 72.66 75.00 L 98.44 227.34 L 114.84 121.88 L 175.78 9.38 L 203.91 18.75 L 227.34 44.53 L 203.91 241.41 L 220.31 103.12 L 241.41 28.12 L 248.44 18.75 L 302.34 0.00 L 325.78 84.38 L 318.75 278.91 L 337.50 229.69 L 405.47 105.47 L 421.88 91.41 L 450.00 91.41 L 485.16 189.84 L 480.47 225.00 L 452.34 288.28 L 391.41 351.56 L 325.78 440.62 L 314.06 492.19 L 316.41 597.66" stroke="white" fill="transparent"/>
	<path d = "M 11.72 274.22 L 11.72 344.53 L 0.00 482.81" stroke="white" fill="transparent"/>
</svg>