<?xml version="1.0" encoding="UTF-8" standalone="no"?>
<!--Created with ndjsontosvg (https:https://github.com/thompson318/ndjsontosvg) 
	from the simplified Google quickdraw data set. key_id = 5975485311877120-->
<svg width="600" height="600"
	xmlns="http://www.w3.org/2000/svg">
	xmlns:ndjsontosvg="https://github.com/thompson318/ndjsontosvg"
	xmlns:quickdraw="https://quickdraw.withgoogle.com/data"
	xmlns:scikit-surgery="https://doi.org/10.1007/s11548-020-02180-5">

	<rect width="100%" height="100%" fill="black" />
	<path d = "M 93.75 597.66 L 105.47 541.41 L 103.12 468.75 L 77.34 412.50 L 16.41 309.38 L 0.00 243.75 L 0.00 154.69 L 18.75 107.81 L 53.91 70.31 L 67.97 67.97 L 84.38 98.44 L 93.75 222.66 L 142.97 42.19 L 173.44 42.19 L 182.81 84.38 L 182.81 201.56 L 203.91 117.19 L 220.31 7.03 L 248.44 0.00 L 260.16 4.69 L 271.88 37.50 L 271.88 119.53 L 253.12 208.59 L 271.88 150.00 L 295.31 105.47 L 339.84 91.41 L 358.59 117.19 L 358.59 142.97 L 328.12 213.28 L 328.12 250.78 L 344.53 260.16 L 370.31 260.16 L 419.53 250.78 L 433.59 253.12 L 440.62 267.19 L 445.31 292.97 L 435.94 307.03 L 356.25 349.22 L 278.91 405.47 L 248.44 457.03 L 232.03 532.03" stroke="white" fill="transparent"/>
</svg>