<?xml version="1.0" encoding="UTF-8" standalone="no"?>
<!--Created with ndjsontosvg (https:https://github.com/thompson318/ndjsontosvg) 
	from the simplified Google quickdraw data set. key_id = 5369677075185664-->
<svg width="600" height="600"
	xmlns="http://www.w3.org/2000/svg">
	xmlns:ndjsontosvg="https://github.com/thompson318/ndjsontosvg"
	xmlns:quickdraw="https://quickdraw.withgoogle.com/data"
	xmlns:scikit-surgery="https://doi.org/10.1007/s11548-020-02180-5">

	<rect width="100%" height="100%" fill="black" />
	<path d = "M 166.41 424.22 L 103.12 360.94 L 49.22 321.09 L 21.09 285.94 L 0.00 236.72 L 16.41 203.91 L 53.91 175.78 L 96.09 166.41 L 112.50 168.75 L 239.06 257.81 L 276.56 290.62 L 314.06 335.16 L 220.31 201.56 L 189.84 145.31 L 175.78 35.16 L 189.84 18.75 L 206.25 14.06 L 257.81 28.12 L 285.94 63.28 L 342.19 262.50 L 351.56 58.59 L 375.00 23.44 L 435.94 0.00 L 445.31 14.06 L 440.62 103.12 L 457.03 203.91 L 471.09 145.31 L 494.53 100.78 L 562.50 39.84 L 578.91 30.47 L 595.31 35.16 L 597.66 63.28 L 585.94 105.47 L 496.88 274.22" stroke="white" fill="transparent"/>
</svg>