<?xml version="1.0" encoding="UTF-8" standalone="no"?>
<!--Created with ndjsontosvg (https:https://github.com/thompson318/ndjsontosvg) 
	from the simplified Google quickdraw data set. key_id = 5908674331541504-->
<svg width="600" height="600"
	xmlns="http://www.w3.org/2000/svg">
	xmlns:ndjsontosvg="https://github.com/thompson318/ndjsontosvg"
	xmlns:quickdraw="https://quickdraw.withgoogle.com/data"
	xmlns:scikit-surgery="https://doi.org/10.1007/s11548-020-02180-5">

	<rect width="100%" height="100%" fill="black" />
	<path d = "M 103.12 597.66 L 100.78 356.25 L 28.12 304.69 L 11.72 269.53 L 0.00 208.59 L 0.00 60.94 L 25.78 0.00 L 37.50 0.00 L 67.97 28.12 L 77.34 199.22 L 79.69 171.09 L 110.16 91.41 L 124.22 72.66 L 150.00 67.97 L 166.41 107.81 L 175.78 192.19 L 175.78 152.34 L 187.50 98.44 L 215.62 171.09 L 215.62 229.69 L 229.69 192.19 L 260.16 147.66 L 276.56 161.72 L 295.31 220.31 L 295.31 250.78 L 285.94 269.53 L 241.41 314.06 L 213.28 330.47 L 182.81 386.72 L 164.06 452.34 L 154.69 569.53 L 142.97 564.84" stroke="white" fill="transparent"/>
</svg>