<?xml version="1.0" encoding="UTF-8" standalone="no"?>
<!--Created with ndjsontosvg (https:https://github.com/thompson318/ndjsontosvg) 
	from the simplified Google quickdraw data set. key_id = 5218191468920832-->
<svg width="600" height="600"
	xmlns="http://www.w3.org/2000/svg">
	xmlns:ndjsontosvg="https://github.com/thompson318/ndjsontosvg"
	xmlns:quickdraw="https://quickdraw.withgoogle.com/data"
	xmlns:scikit-surgery="https://doi.org/10.1007/s11548-020-02180-5">

	<rect width="100%" height="100%" fill="black" />
	<path d = "M 138.28 424.22 L 138.28 337.50 L 131.25 297.66 L 107.81 269.53 L 49.22 234.38 L 16.41 199.22 L 2.34 166.41 L 2.34 121.88 L 14.06 93.75 L 44.53 49.22 L 60.94 42.19 L 84.38 44.53 L 100.78 51.56 L 119.53 75.00 L 161.72 166.41 L 178.12 175.78 L 189.84 60.94 L 215.62 14.06" stroke="white" fill="transparent"/>
	<path d = "M 241.41 21.09 L 264.84 138.28 L 283.59 42.19 L 311.72 0.00 L 321.09 4.69 L 330.47 25.78 L 346.88 126.56 L 358.59 44.53 L 384.38 7.03 L 398.44 4.69 L 431.25 138.28 L 445.31 161.72 L 459.38 157.03 L 548.44 60.94 L 583.59 56.25 L 595.31 70.31 L 597.66 98.44 L 578.91 138.28 L 517.97 192.19 L 428.91 246.09 L 410.16 269.53 L 417.19 431.25 L 433.59 499.22" stroke="white" fill="transparent"/>
</svg>