<?xml version="1.0" encoding="UTF-8" standalone="no"?>
<!--Created with ndjsontosvg (https:https://github.com/thompson318/ndjsontosvg) 
	from the simplified Google quickdraw data set. key_id = 6370272766590976-->
<svg width="600" height="600"
	xmlns="http://www.w3.org/2000/svg">
	xmlns:ndjsontosvg="https://github.com/thompson318/ndjsontosvg"
	xmlns:quickdraw="https://quickdraw.withgoogle.com/data"
	xmlns:scikit-surgery="https://doi.org/10.1007/s11548-020-02180-5">

	<rect width="100%" height="100%" fill="black" />
	<path d = "M 30.47 222.66 L 100.78 351.56 L 199.22 450.00 L 49.22 288.28 L 7.03 210.94 L 2.34 171.09 L 42.19 168.75 L 107.81 215.62 L 112.50 168.75 L 133.59 117.19 L 157.03 86.72 L 182.81 171.09 L 194.53 182.81 L 302.34 35.16 L 346.88 2.34 L 367.97 0.00 L 377.34 23.44 L 377.34 70.31 L 358.59 154.69 L 471.09 60.94 L 508.59 46.88 L 510.94 84.38 L 501.56 107.81 L 417.19 248.44 L 597.66 164.06 L 583.59 203.91 L 482.81 307.03 L 473.44 323.44 L 508.59 316.41 L 581.25 288.28 L 588.28 285.94 L 590.62 300.00 L 546.09 349.22 L 494.53 382.03 L 389.06 426.56 L 342.19 431.25 L 328.12 454.69" stroke="white" fill="transparent"/>
</svg>