<?xml version="1.0" encoding="UTF-8" standalone="no"?>
<!--Created with ndjsontosvg (https:https://github.com/thompson318/ndjsontosvg) 
	from the simplified Google quickdraw data set. key_id = 6053408433766400-->
<svg width="600" height="600"
	xmlns="http://www.w3.org/2000/svg">
	xmlns:ndjsontosvg="https://github.com/thompson318/ndjsontosvg"
	xmlns:quickdraw="https://quickdraw.withgoogle.com/data"
	xmlns:scikit-surgery="https://doi.org/10.1007/s11548-020-02180-5">

	<rect width="100%" height="100%" fill="black" />
	<path d = "M 157.03 553.12 L 145.31 550.78 L 117.19 471.09 L 77.34 384.38 L 65.62 346.88 L 53.91 250.78 L 7.03 182.81 L 0.00 79.69 L 11.72 51.56 L 32.81 39.84 L 56.25 46.88 L 93.75 128.91 L 110.16 187.50 L 117.19 152.34 L 140.62 107.81 L 166.41 72.66 L 192.19 49.22 L 213.28 46.88 L 229.69 63.28 L 239.06 128.91 L 285.94 37.50 L 307.03 16.41 L 339.84 0.00 L 360.94 0.00 L 365.62 7.03 L 367.97 117.19 L 367.97 96.09 L 400.78 49.22 L 428.91 23.44 L 454.69 11.72 L 478.12 4.69 L 522.66 9.38 L 527.34 75.00 L 522.66 96.09 L 517.97 84.38 L 536.72 58.59 L 564.84 32.81 L 588.28 25.78 L 597.66 53.91 L 597.66 117.19 L 562.50 189.84 L 496.88 246.09 L 382.03 297.66 L 330.47 337.50 L 278.91 457.03 L 236.72 527.34 L 187.50 564.84" stroke="white" fill="transparent"/>
</svg>