<?xml version="1.0" encoding="UTF-8" standalone="no"?>
<!--Created with ndjsontosvg (https:https://github.com/thompson318/ndjsontosvg) 
	from the simplified Google quickdraw data set. key_id = 6055981140148224-->
<svg width="600" height="600"
	xmlns="http://www.w3.org/2000/svg">
	xmlns:ndjsontosvg="https://github.com/thompson318/ndjsontosvg"
	xmlns:quickdraw="https://quickdraw.withgoogle.com/data"
	xmlns:scikit-surgery="https://doi.org/10.1007/s11548-020-02180-5">

	<rect width="100%" height="100%" fill="black" />
	<path d = "M 77.34 440.62 L 14.06 339.84 L 2.34 307.03 L 4.69 253.12 L 25.78 229.69 L 51.56 217.97 L 79.69 215.62 L 91.41 225.00 L 161.72 375.00 L 140.62 213.28 L 138.28 128.91 L 171.09 67.97 L 189.84 53.91 L 210.94 53.91 L 232.03 72.66 L 248.44 119.53 L 253.12 335.16 L 269.53 260.16 L 262.50 37.50 L 283.59 9.38 L 309.38 0.00 L 351.56 4.69 L 370.31 32.81 L 379.69 63.28 L 379.69 119.53 L 367.97 171.09 L 363.28 295.31 L 353.91 337.50 L 412.50 203.91 L 426.56 185.16 L 468.75 157.03 L 501.56 161.72 L 503.91 194.53 L 421.88 358.59 L 424.22 344.53 L 454.69 292.97 L 489.84 267.19 L 539.06 262.50 L 597.66 292.97 L 597.66 307.03 L 585.94 325.78 L 459.38 424.22" stroke="white" fill="transparent"/>
</svg>