<?xml version="1.0" encoding="UTF-8" standalone="no"?>
<!--Created with ndjsontosvg (https:https://github.com/thompson318/ndjsontosvg) 
	from the simplified Google quickdraw data set. key_id = 6017967538044928-->
<svg width="600" height="600"
	xmlns="http://www.w3.org/2000/svg">
	xmlns:ndjsontosvg="https://github.com/thompson318/ndjsontosvg"
	xmlns:quickdraw="https://quickdraw.withgoogle.com/data"
	xmlns:scikit-surgery="https://doi.org/10.1007/s11548-020-02180-5">

	<rect width="100%" height="100%" fill="black" />
	<path d = "M 98.44 595.31 L 117.19 555.47 L 121.88 440.62 L 112.50 419.53 L 21.09 330.47 L 0.00 255.47 L 0.00 189.84 L 7.03 166.41 L 39.84 166.41 L 65.62 199.22 L 84.38 241.41 L 91.41 84.38 L 110.16 44.53 L 133.59 180.47 L 140.62 182.81 L 159.38 16.41 L 161.72 7.03 L 175.78 0.00 L 187.50 7.03 L 196.88 28.12 L 201.56 157.03 L 194.53 173.44 L 196.88 150.00 L 225.00 89.06 L 236.72 72.66 L 257.81 67.97 L 269.53 84.38 L 269.53 117.19 L 248.44 196.88 L 295.31 171.09 L 307.03 171.09 L 314.06 185.16 L 307.03 220.31 L 232.03 360.94 L 222.66 466.41 L 229.69 597.66" stroke="white" fill="transparent"/>
</svg>