<?xml version="1.0" encoding="UTF-8" standalone="no"?>
<!--Created with ndjsontosvg (https:https://github.com/thompson318/ndjsontosvg) 
	from the simplified Google quickdraw data set. key_id = 6483655666958336-->
<svg width="600" height="600"
	xmlns="http://www.w3.org/2000/svg">
	xmlns:ndjsontosvg="https://github.com/thompson318/ndjsontosvg"
	xmlns:quickdraw="https://quickdraw.withgoogle.com/data"
	xmlns:scikit-surgery="https://doi.org/10.1007/s11548-020-02180-5">

	<rect width="100%" height="100%" fill="black" />
	<path d = "M 28.12 30.47 L 28.12 23.44 L 37.50 21.09 L 18.75 21.09 L 7.03 35.16 L 2.34 89.06 L 25.78 121.88 L 58.59 131.25 L 107.81 121.88 L 344.53 7.03 L 440.62 0.00 L 503.91 32.81 L 527.34 72.66 L 546.09 135.94 L 557.81 220.31 L 553.12 283.59 L 534.38 339.84 L 471.09 447.66 L 442.97 487.50 L 367.97 562.50 L 335.16 583.59 L 332.81 592.97 L 339.84 595.31 L 367.97 595.31 L 435.94 567.19 L 349.22 588.28 L 302.34 585.94 L 267.19 564.84 L 222.66 503.91 L 168.75 379.69 L 128.91 138.28 L 128.91 60.94 L 157.03 119.53 L 255.47 410.16 L 337.50 529.69 L 337.50 494.53 L 269.53 119.53 L 269.53 89.06 L 342.19 349.22 L 367.97 410.16 L 412.50 489.84 L 398.44 225.00 L 370.31 7.03 L 421.88 208.59 L 503.91 410.16" stroke="white" fill="transparent"/>
</svg>