<?xml version="1.0" encoding="UTF-8" standalone="no"?>
<!--Created with ndjsontosvg (https:https://github.com/thompson318/ndjsontosvg) 
	from the simplified Google quickdraw data set. key_id = 4854630712344576-->
<svg width="600" height="600"
	xmlns="http://www.w3.org/2000/svg">
	xmlns:ndjsontosvg="https://github.com/thompson318/ndjsontosvg"
	xmlns:quickdraw="https://quickdraw.withgoogle.com/data"
	xmlns:scikit-surgery="https://doi.org/10.1007/s11548-020-02180-5">

	<rect width="100%" height="100%" fill="black" />
	<path d = "M 77.34 53.91 L 42.19 128.91 L 21.09 229.69 L 2.34 480.47 L 2.34 569.53 L 23.44 583.59 L 51.56 592.97 L 93.75 597.66 L 140.62 588.28 L 150.00 569.53 L 145.31 520.31 L 358.59 457.03 L 428.91 410.16 L 471.09 356.25 L 496.88 276.56 L 510.94 199.22 L 503.91 138.28 L 482.81 96.09 L 421.88 56.25 L 300.00 30.47 L 250.78 9.38 L 185.16 0.00 L 131.25 2.34 L 100.78 21.09 L 79.69 75.00 L 82.03 96.09 L 91.41 112.50" stroke="white" fill="transparent"/>
	<path d = "M 145.31 91.41 L 110.16 335.16 L 107.81 372.66 L 117.19 386.72 L 199.22 386.72 L 241.41 372.66 L 285.94 344.53 L 325.78 311.72 L 349.22 276.56 L 370.31 199.22 L 363.28 128.91 L 351.56 107.81 L 309.38 84.38 L 255.47 72.66 L 203.91 77.34 L 164.06 89.06 L 142.97 112.50 L 140.62 128.91" stroke="white" fill="transparent"/>
	<path d = "M 208.59 91.41 L 196.88 152.34 L 182.81 281.25 L 180.47 391.41" stroke="white" fill="transparent"/>
	<path d = "M 285.94 96.09 L 285.94 178.12 L 239.06 335.16" stroke="white" fill="transparent"/>
	<path d = "M 344.53 107.81 L 335.16 182.81 L 304.69 283.59" stroke="white" fill="transparent"/>
	<path d = "M 239.06 283.59 L 222.66 379.69" stroke="white" fill="transparent"/>
</svg>