<?xml version="1.0" encoding="UTF-8" standalone="no"?>
<!--Created with ndjsontosvg (https:https://github.com/thompson318/ndjsontosvg) 
	from the simplified Google quickdraw data set. key_id = 6437336118198272-->
<svg width="600" height="600"
	xmlns="http://www.w3.org/2000/svg">
	xmlns:ndjsontosvg="https://github.com/thompson318/ndjsontosvg"
	xmlns:quickdraw="https://quickdraw.withgoogle.com/data"
	xmlns:scikit-surgery="https://doi.org/10.1007/s11548-020-02180-5">

	<rect width="100%" height="100%" fill="black" />
	<path d = "M 168.75 274.22 L 91.41 257.81 L 30.47 267.19 L 2.34 290.62 L 7.03 356.25 L 51.56 419.53 L 114.84 461.72 L 199.22 496.88 L 290.62 515.62 L 393.75 517.97 L 450.00 496.88 L 548.44 421.88 L 581.25 379.69 L 595.31 346.88 L 597.66 314.06 L 585.94 292.97 L 513.28 260.16 L 445.31 255.47 L 370.31 269.53 L 239.06 271.88 L 171.09 267.19" stroke="white" fill="transparent"/>
	<path d = "M 161.72 290.62 L 150.00 281.25 L 145.31 168.75 L 145.31 112.50 L 150.00 96.09 L 168.75 67.97 L 220.31 30.47 L 316.41 0.00 L 360.94 0.00 L 396.09 9.38 L 471.09 53.91 L 487.50 89.06 L 499.22 192.19 L 496.88 248.44" stroke="white" fill="transparent"/>
</svg>