<?xml version="1.0" encoding="UTF-8" standalone="no"?>
<!--Created with ndjsontosvg (https:https://github.com/thompson318/ndjsontosvg) 
	from the simplified Google quickdraw data set. key_id = 6732455883046912-->
<svg width="600" height="600"
	xmlns="http://www.w3.org/2000/svg">
	xmlns:ndjsontosvg="https://github.com/thompson318/ndjsontosvg"
	xmlns:quickdraw="https://quickdraw.withgoogle.com/data"
	xmlns:scikit-surgery="https://doi.org/10.1007/s11548-020-02180-5">

	<rect width="100%" height="100%" fill="black" />
	<path d = "M 567.19 410.16 L 330.47 454.69 L 239.06 459.38 L 133.59 459.38 L 23.44 433.59 L 2.34 419.53 L 0.00 410.16 L 9.38 405.47 L 367.97 339.84 L 517.97 335.16 L 592.97 349.22 L 597.66 356.25 L 546.09 400.78 L 473.44 419.53" stroke="white" fill="transparent"/>
	<path d = "M 421.88 314.06 L 442.97 206.25 L 445.31 135.94 L 414.84 46.88 L 377.34 9.38 L 351.56 0.00 L 182.81 14.06 L 152.34 21.09 L 147.66 77.34 L 171.09 356.25" stroke="white" fill="transparent"/>
	<path d = "M 210.94 339.84 L 225.00 332.81 L 372.66 318.75 L 442.97 307.03 L 428.91 304.69 L 335.16 318.75 L 229.69 346.88 L 199.22 365.62 L 318.75 346.88 L 433.59 346.88 L 424.22 339.84 L 281.25 328.12 L 257.81 330.47 L 175.78 360.94 L 342.19 314.06 L 452.34 304.69 L 391.41 307.03 L 201.56 349.22 L 431.25 328.12 L 438.28 325.78 L 426.56 323.44 L 396.09 323.44 L 194.53 351.56 L 410.16 292.97 L 445.31 292.97 L 189.84 339.84 L 339.84 304.69 L 410.16 300.00 L 353.91 302.34 L 196.88 328.12 L 225.00 318.75 L 372.66 297.66 L 431.25 295.31 L 215.62 316.41 L 175.78 335.16 L 382.03 311.72 L 349.22 314.06 L 250.78 346.88" stroke="white" fill="transparent"/>
</svg>