<?xml version="1.0" encoding="UTF-8" standalone="no"?>
<!--Created with ndjsontosvg (https:https://github.com/thompson318/ndjsontosvg) 
	from the simplified Google quickdraw data set. key_id = 6695498628988928-->
<svg width="600" height="600"
	xmlns="http://www.w3.org/2000/svg">
	xmlns:ndjsontosvg="https://github.com/thompson318/ndjsontosvg"
	xmlns:quickdraw="https://quickdraw.withgoogle.com/data"
	xmlns:scikit-surgery="https://doi.org/10.1007/s11548-020-02180-5">

	<rect width="100%" height="100%" fill="black" />
	<path d = "M 489.84 318.75 L 384.38 323.44 L 353.91 344.53 L 339.84 365.62 L 330.47 403.12 L 330.47 503.91 L 344.53 553.12 L 372.66 581.25 L 442.97 581.25 L 492.19 555.47 L 517.97 522.66 L 534.38 438.28 L 534.38 382.03 L 501.56 302.34 L 471.09 283.59" stroke="white" fill="transparent"/>
	<path d = "M 492.19 300.00 L 492.19 192.19 L 478.12 124.22 L 457.03 91.41 L 391.41 30.47 L 346.88 11.72 L 288.28 0.00 L 234.38 0.00 L 194.53 7.03 L 142.97 28.12 L 124.22 60.94 L 93.75 152.34 L 86.72 241.41 L 67.97 323.44 L 18.75 360.94 L 2.34 391.41 L 0.00 428.91 L 18.75 496.88 L 39.84 529.69 L 98.44 581.25 L 119.53 590.62 L 185.16 597.66 L 206.25 585.94 L 215.62 567.19 L 222.66 529.69 L 222.66 426.56 L 199.22 367.97 L 180.47 335.16 L 150.00 314.06 L 117.19 311.72 L 79.69 323.44" stroke="white" fill="transparent"/>
</svg>