<?xml version="1.0" encoding="UTF-8" standalone="no"?>
<!--Created with ndjsontosvg (https:https://github.com/thompson318/ndjsontosvg) 
	from the simplified Google quickdraw data set. key_id = 6194474134798336-->
<svg width="600" height="600"
	xmlns="http://www.w3.org/2000/svg">
	xmlns:ndjsontosvg="https://github.com/thompson318/ndjsontosvg"
	xmlns:quickdraw="https://quickdraw.withgoogle.com/data"
	xmlns:scikit-surgery="https://doi.org/10.1007/s11548-020-02180-5">

	<rect width="100%" height="100%" fill="black" />
	<path d = "M 70.31 257.81 L 39.84 267.19 L 9.38 302.34 L 0.00 332.81 L 7.03 382.03 L 58.59 398.44 L 93.75 398.44 L 107.81 389.06 L 138.28 318.75 L 131.25 290.62 L 89.06 257.81" stroke="white" fill="transparent"/>
	<path d = "M 532.03 274.22 L 522.66 267.19 L 482.81 269.53 L 454.69 278.91 L 428.91 304.69 L 421.88 342.19 L 424.22 384.38 L 464.06 400.78 L 520.31 403.12 L 541.41 396.09 L 576.56 372.66 L 597.66 337.50 L 595.31 307.03 L 536.72 278.91 L 499.22 271.88" stroke="white" fill="transparent"/>
	<path d = "M 79.69 276.56 L 82.03 189.84 L 103.12 133.59 L 150.00 58.59 L 180.47 30.47 L 222.66 14.06 L 309.38 0.00 L 405.47 4.69 L 428.91 14.06 L 450.00 32.81 L 482.81 75.00 L 513.28 135.94 L 532.03 192.19 L 550.78 271.88" stroke="white" fill="transparent"/>
	<path d = "M 128.91 285.94 L 131.25 192.19 L 150.00 142.97 L 171.09 114.84 L 215.62 75.00 L 264.84 51.56 L 346.88 44.53 L 398.44 70.31 L 424.22 107.81 L 464.06 194.53 L 492.19 304.69" stroke="white" fill="transparent"/>
</svg>