<?xml version="1.0" encoding="UTF-8" standalone="no"?>
<!--Created with ndjsontosvg (https:https://github.com/thompson318/ndjsontosvg) 
	from the simplified Google quickdraw data set. key_id = 6191805550821376-->
<svg width="600" height="600"
	xmlns="http://www.w3.org/2000/svg">
	xmlns:ndjsontosvg="https://github.com/thompson318/ndjsontosvg"
	xmlns:quickdraw="https://quickdraw.withgoogle.com/data"
	xmlns:scikit-surgery="https://doi.org/10.1007/s11548-020-02180-5">

	<rect width="100%" height="100%" fill="black" />
	<path d = "M 119.53 471.09 L 103.12 335.16 L 100.78 131.25 L 119.53 60.94 L 140.62 32.81 L 196.88 2.34 L 229.69 0.00 L 292.97 18.75 L 342.19 56.25 L 377.34 112.50 L 391.41 180.47 L 396.09 283.59 L 367.97 391.41 L 360.94 445.31" stroke="white" fill="transparent"/>
	<path d = "M 53.91 597.66 L 28.12 550.78 L 23.44 496.88 L 37.50 442.97 L 63.28 400.78 L 91.41 382.03 L 126.56 377.34 L 152.34 391.41 L 168.75 412.50 L 180.47 447.66 L 189.84 506.25 L 182.81 529.69 L 166.41 548.44 L 135.94 560.16 L 89.06 546.09 L 39.84 510.94 L 11.72 473.44 L 0.00 428.91" stroke="white" fill="transparent"/>
	<path d = "M 367.97 571.88 L 330.47 548.44" stroke="white" fill="transparent"/>
</svg>