<?xml version="1.0" encoding="UTF-8" standalone="no"?>
<!--Created with ndjsontosvg (https:https://github.com/thompson318/ndjsontosvg) 
	from the simplified Google quickdraw data set. key_id = 5930066150162432-->
<svg width="600" height="600"
	xmlns="http://www.w3.org/2000/svg">
	xmlns:ndjsontosvg="https://github.com/thompson318/ndjsontosvg"
	xmlns:quickdraw="https://quickdraw.withgoogle.com/data"
	xmlns:scikit-surgery="https://doi.org/10.1007/s11548-020-02180-5">

	<rect width="100%" height="100%" fill="black" />
	<path d = "M 98.44 234.38 L 91.41 255.47 L 75.00 384.38 L 7.03 503.91 L 2.34 553.12 L 42.19 581.25 L 91.41 588.28 L 241.41 492.19 L 262.50 454.69 L 262.50 396.09 L 222.66 330.47 L 150.00 255.47 L 82.03 217.97" stroke="white" fill="transparent"/>
	<path d = "M 135.94 234.38 L 175.78 171.09 L 260.16 70.31 L 309.38 18.75 L 330.47 4.69 L 353.91 0.00 L 405.47 2.34 L 431.25 25.78 L 480.47 133.59 L 487.50 194.53 L 478.12 215.62" stroke="white" fill="transparent"/>
	<path d = "M 471.09 217.97 L 393.75 344.53 L 375.00 398.44 L 375.00 445.31 L 412.50 459.38 L 461.72 459.38 L 536.72 431.25 L 569.53 398.44 L 585.94 360.94 L 597.66 267.19 L 564.84 222.66 L 525.00 201.56 L 503.91 199.22" stroke="white" fill="transparent"/>
</svg>