<?xml version="1.0" encoding="UTF-8" standalone="no"?>
<!--Created with ndjsontosvg (https:https://github.com/thompson318/ndjsontosvg) 
	from the simplified Google quickdraw data set. key_id = 6479061637398528-->
<svg width="600" height="600"
	xmlns="http://www.w3.org/2000/svg">
	xmlns:ndjsontosvg="https://github.com/thompson318/ndjsontosvg"
	xmlns:quickdraw="https://quickdraw.withgoogle.com/data"
	xmlns:scikit-surgery="https://doi.org/10.1007/s11548-020-02180-5">

	<rect width="100%" height="100%" fill="black" />
	<path d = "M 51.56 384.38 L 23.44 377.34 L 7.03 360.94 L 2.34 321.09 L 16.41 271.88 L 35.16 241.41 L 75.00 206.25 L 100.78 192.19 L 145.31 192.19 L 185.16 227.34 L 194.53 278.91 L 180.47 311.72 L 128.91 384.38 L 77.34 412.50 L 30.47 414.84 L 7.03 393.75 L 0.00 367.97" stroke="white" fill="transparent"/>
	<path d = "M 124.22 210.94 L 138.28 110.16 L 182.81 53.91 L 276.56 9.38 L 384.38 0.00 L 457.03 18.75 L 520.31 77.34 L 536.72 100.78 L 546.09 140.62 L 548.44 208.59 L 543.75 239.06 L 541.41 232.03" stroke="white" fill="transparent"/>
	<path d = "M 508.59 389.06 L 468.75 379.69 L 450.00 353.91 L 435.94 321.09 L 433.59 276.56 L 450.00 250.78 L 473.44 236.72 L 517.97 227.34 L 555.47 229.69 L 585.94 257.81 L 595.31 285.94 L 595.31 328.12 L 574.22 367.97 L 541.41 393.75 L 482.81 398.44 L 464.06 389.06 L 442.97 356.25" stroke="white" fill="transparent"/>
</svg>