<?xml version="1.0" encoding="UTF-8" standalone="no"?>
<!--Created with ndjsontosvg (https:https://github.com/thompson318/ndjsontosvg) 
	from the simplified Google quickdraw data set. key_id = 5163889618583552-->
<svg width="600" height="600"
	xmlns="http://www.w3.org/2000/svg">
	xmlns:ndjsontosvg="https://github.com/thompson318/ndjsontosvg"
	xmlns:quickdraw="https://quickdraw.withgoogle.com/data"
	xmlns:scikit-surgery="https://doi.org/10.1007/s11548-020-02180-5">

	<rect width="100%" height="100%" fill="black" />
	<path d = "M 147.66 396.09 L 147.66 384.38 L 135.94 379.69 L 84.38 375.00 L 42.19 407.81 L 0.00 527.34 L 4.69 569.53 L 16.41 585.94 L 32.81 592.97 L 91.41 597.66 L 126.56 595.31 L 152.34 578.91 L 171.09 536.72 L 178.12 367.97 L 150.00 358.59 L 128.91 363.28" stroke="white" fill="transparent"/>
	<path d = "M 103.12 370.31 L 93.75 330.47 L 93.75 290.62 L 114.84 220.31 L 117.19 171.09 L 192.19 35.16 L 232.03 4.69 L 281.25 0.00 L 414.84 46.88 L 438.28 67.97 L 450.00 89.06 L 464.06 117.19 L 471.09 171.09 L 471.09 283.59 L 459.38 344.53 L 466.41 398.44" stroke="white" fill="transparent"/>
	<path d = "M 466.41 389.06 L 492.19 365.62 L 539.06 360.94 L 576.56 396.09 L 588.28 461.72 L 583.59 555.47 L 525.00 564.84 L 435.94 543.75 L 414.84 529.69 L 410.16 503.91 L 421.88 457.03 L 471.09 417.19 L 482.81 414.84" stroke="white" fill="transparent"/>
</svg>