<?xml version="1.0" encoding="UTF-8" standalone="no"?>
<!--Created with ndjsontosvg (https:https://github.com/thompson318/ndjsontosvg) 
	from the simplified Google quickdraw data set. key_id = 6073949907582976-->
<svg width="600" height="600"
	xmlns="http://www.w3.org/2000/svg">
	xmlns:ndjsontosvg="https://github.com/thompson318/ndjsontosvg"
	xmlns:quickdraw="https://quickdraw.withgoogle.com/data"
	xmlns:scikit-surgery="https://doi.org/10.1007/s11548-020-02180-5">

	<rect width="100%" height="100%" fill="black" />
	<path d = "M 133.59 220.31 L 135.94 393.75 L 128.91 457.03 L 103.12 471.09 L 70.31 466.41 L 39.84 438.28 L 25.78 407.81 L 18.75 344.53 L 28.12 300.00 L 65.62 236.72 L 126.56 196.88" stroke="white" fill="transparent"/>
	<path d = "M 452.34 199.22 L 466.41 239.06 L 489.84 426.56 L 506.25 435.94 L 532.03 428.91 L 562.50 407.81 L 578.91 382.03 L 583.59 304.69 L 567.19 248.44 L 548.44 210.94 L 525.00 192.19 L 494.53 180.47" stroke="white" fill="transparent"/>
	<path d = "M 578.91 269.53 L 588.28 281.25 L 597.66 318.75 L 595.31 325.78 L 583.59 330.47" stroke="white" fill="transparent"/>
	<path d = "M 7.03 325.78 L 2.34 358.59 L 7.03 375.00 L 16.41 379.69" stroke="white" fill="transparent"/>
	<path d = "M 133.59 206.25 L 121.88 147.66 L 138.28 96.09 L 168.75 63.28 L 208.59 32.81 L 288.28 2.34 L 349.22 2.34 L 382.03 18.75 L 426.56 72.66 L 452.34 140.62" stroke="white" fill="transparent"/>
</svg>