<?xml version="1.0" encoding="UTF-8" standalone="no"?>
<!--Created with ndjsontosvg (https:https://github.com/thompson318/ndjsontosvg) 
	from the simplified Google quickdraw data set. key_id = 6123172246061056-->
<svg width="600" height="600"
	xmlns="http://www.w3.org/2000/svg">
	xmlns:ndjsontosvg="https://github.com/thompson318/ndjsontosvg"
	xmlns:quickdraw="https://quickdraw.withgoogle.com/data"
	xmlns:scikit-surgery="https://doi.org/10.1007/s11548-020-02180-5">

	<rect width="100%" height="100%" fill="black" />
	<path d = "M 150.00 65.62 L 147.66 210.94 L 154.69 335.16 L 98.44 339.84 L 46.88 356.25 L 9.38 400.78 L 0.00 440.62 L 16.41 471.09 L 60.94 494.53 L 119.53 485.16 L 180.47 450.00 L 250.78 398.44 L 274.22 372.66 L 269.53 358.59 L 236.72 337.50 L 201.56 325.78 L 173.44 330.47" stroke="white" fill="transparent"/>
	<path d = "M 150.00 105.47 L 175.78 46.88 L 232.03 16.41 L 309.38 0.00 L 375.00 2.34 L 398.44 14.06 L 438.28 44.53 L 466.41 96.09 L 473.44 135.94 L 473.44 309.38 L 389.06 353.91 L 377.34 386.72 L 433.59 426.56 L 508.59 454.69 L 539.06 457.03 L 583.59 435.94 L 595.31 419.53 L 595.31 391.41 L 522.66 318.75 L 489.84 302.34" stroke="white" fill="transparent"/>
</svg>