<?xml version="1.0" encoding="UTF-8" standalone="no"?>
<!--Created with ndjsontosvg (https:https://github.com/thompson318/ndjsontosvg) 
	from the simplified Google quickdraw data set. key_id = 5095368465317888-->
<svg width="600" height="600"
	xmlns="http://www.w3.org/2000/svg">
	xmlns:ndjsontosvg="https://github.com/thompson318/ndjsontosvg"
	xmlns:quickdraw="https://quickdraw.withgoogle.com/data"
	xmlns:scikit-surgery="https://doi.org/10.1007/s11548-020-02180-5">

	<rect width="100%" height="100%" fill="black" />
	<path d = "M 11.72 393.75 L 0.00 344.53 L 4.69 278.91 L 25.78 236.72 L 67.97 182.81 L 89.06 180.47 L 121.88 206.25 L 140.62 236.72 L 152.34 288.28 L 138.28 321.09 L 110.16 346.88 L 65.62 370.31 L 37.50 382.03 L 28.12 379.69 L 25.78 370.31" stroke="white" fill="transparent"/>
	<path d = "M 117.19 196.88 L 105.47 185.16 L 126.56 131.25 L 213.28 30.47 L 248.44 9.38 L 304.69 0.00 L 365.62 0.00 L 400.78 9.38 L 454.69 42.19 L 480.47 75.00 L 506.25 145.31 L 515.62 194.53 L 454.69 208.59 L 431.25 234.38 L 428.91 321.09 L 435.94 356.25 L 447.66 375.00 L 478.12 391.41 L 510.94 396.09 L 569.53 360.94 L 597.66 307.03 L 590.62 260.16 L 571.88 239.06" stroke="white" fill="transparent"/>
</svg>