<?xml version="1.0" encoding="UTF-8" standalone="no"?>
<!--Created with ndjsontosvg (https:https://github.com/thompson318/ndjsontosvg) 
	from the simplified Google quickdraw data set. key_id = 5543277904265216-->
<svg width="600" height="600"
	xmlns="http://www.w3.org/2000/svg">
	xmlns:ndjsontosvg="https://github.com/thompson318/ndjsontosvg"
	xmlns:quickdraw="https://quickdraw.withgoogle.com/data"
	xmlns:scikit-surgery="https://doi.org/10.1007/s11548-020-02180-5">

	<rect width="100%" height="100%" fill="black" />
	<path d = "M 35.16 276.56 L 7.03 297.66 L 0.00 358.59 L 11.72 382.03 L 49.22 412.50 L 84.38 417.19 L 105.47 365.62 L 98.44 321.09 L 51.56 285.94" stroke="white" fill="transparent"/>
	<path d = "M 93.75 349.22 L 89.06 285.94 L 51.56 208.59 L 60.94 131.25 L 72.66 110.16 L 126.56 51.56 L 187.50 16.41 L 262.50 2.34 L 356.25 0.00 L 389.06 7.03 L 426.56 35.16 L 457.03 131.25 L 459.38 206.25 L 435.94 264.84 L 431.25 330.47 L 433.59 379.69 L 452.34 421.88 L 489.84 450.00 L 525.00 447.66 L 576.56 403.12 L 592.97 375.00 L 597.66 353.91 L 564.84 307.03 L 543.75 290.62 L 459.38 260.16 L 431.25 267.19" stroke="white" fill="transparent"/>
</svg>