<?xml version="1.0" encoding="UTF-8" standalone="no"?>
<!--Created with ndjsontosvg (https:https://github.com/thompson318/ndjsontosvg) 
	from the simplified Google quickdraw data set. key_id = 5214395749629952-->
<svg width="600" height="600"
	xmlns="http://www.w3.org/2000/svg">
	xmlns:ndjsontosvg="https://github.com/thompson318/ndjsontosvg"
	xmlns:quickdraw="https://quickdraw.withgoogle.com/data"
	xmlns:scikit-surgery="https://doi.org/10.1007/s11548-020-02180-5">

	<rect width="100%" height="100%" fill="black" />
	<path d = "M 51.56 309.38 L 21.09 325.78 L 7.03 351.56 L 2.34 447.66 L 11.72 482.81 L 39.84 517.97 L 72.66 525.00 L 96.09 515.62 L 131.25 475.78 L 187.50 384.38 L 192.19 356.25 L 192.19 337.50 L 180.47 314.06 L 150.00 278.91 L 112.50 255.47" stroke="white" fill="transparent"/>
	<path d = "M 58.59 288.28 L 86.72 239.06 L 93.75 107.81 L 124.22 53.91 L 164.06 25.78 L 213.28 4.69 L 297.66 0.00 L 337.50 11.72 L 365.62 32.81 L 440.62 117.19 L 471.09 175.78 L 492.19 234.38 L 492.19 295.31" stroke="white" fill="transparent"/>
	<path d = "M 471.09 276.56 L 433.59 288.28 L 407.81 314.06 L 393.75 339.84 L 396.09 375.00 L 410.16 414.84 L 464.06 466.41 L 501.56 473.44 L 529.69 466.41 L 576.56 431.25 L 595.31 400.78 L 595.31 360.94 L 578.91 330.47 L 539.06 300.00 L 501.56 292.97" stroke="white" fill="transparent"/>
</svg>