<?xml version="1.0" encoding="UTF-8" standalone="no"?>
<!--Created with ndjsontosvg (https:https://github.com/thompson318/ndjsontosvg) 
	from the simplified Google quickdraw data set. key_id = 5625554663374848-->
<svg width="600" height="600"
	xmlns="http://www.w3.org/2000/svg">
	xmlns:ndjsontosvg="https://github.com/thompson318/ndjsontosvg"
	xmlns:quickdraw="https://quickdraw.withgoogle.com/data"
	xmlns:scikit-surgery="https://doi.org/10.1007/s11548-020-02180-5">

	<rect width="100%" height="100%" fill="black" />
	<path d = "M 56.25 222.66 L 110.16 260.16 L 171.09 276.56 L 250.78 276.56 L 307.03 257.81 L 356.25 208.59 L 375.00 159.38 L 367.97 117.19 L 330.47 86.72 L 267.19 65.62 L 187.50 63.28 L 107.81 79.69 L 53.91 107.81 L 2.34 159.38 L 2.34 194.53 L 11.72 215.62 L 44.53 239.06 L 96.09 246.09" stroke="white" fill="transparent"/>
	<path d = "M 23.44 229.69 L 11.72 276.56 L 14.06 321.09 L 28.12 367.97 L 42.19 384.38 L 58.59 389.06 L 72.66 379.69 L 105.47 342.19 L 126.56 330.47 L 142.97 339.84 L 159.38 377.34 L 178.12 391.41 L 196.88 389.06 L 255.47 358.59 L 307.03 363.28 L 321.09 351.56 L 344.53 300.00 L 377.34 316.41 L 389.06 311.72 L 398.44 234.38 L 417.19 192.19 L 442.97 189.84 L 503.91 203.91 L 548.44 203.91 L 583.59 196.88 L 597.66 180.47 L 576.56 147.66 L 522.66 121.88 L 412.50 114.84 L 351.56 138.28" stroke="white" fill="transparent"/>
	<path d = "M 77.34 121.88 L 110.16 117.19 L 110.16 110.16" stroke="white" fill="transparent"/>
	<path d = "M 77.34 138.28 L 58.59 49.22 L 77.34 25.78" stroke="white" fill="transparent"/>
	<path d = "M 103.12 128.91 L 96.09 91.41 L 119.53 9.38" stroke="white" fill="transparent"/>
	<path d = "M 150.00 117.19 L 159.38 35.16 L 187.50 0.00" stroke="white" fill="transparent"/>
	<path d = "M 208.59 110.16 L 215.62 56.25 L 246.09 7.03" stroke="white" fill="transparent"/>
	<path d = "M 248.44 114.84 L 281.25 39.84 L 302.34 9.38" stroke="white" fill="transparent"/>
	<path d = "M 297.66 119.53 L 351.56 28.12" stroke="white" fill="transparent"/>
	<path d = "M 325.78 128.91 L 356.25 67.97" stroke="white" fill="transparent"/>
	<path d = "M 157.03 178.12 L 150.00 138.28 L 166.41 77.34" stroke="white" fill="transparent"/>
	<path d = "M 128.91 192.19 L 117.19 201.56 L 105.47 189.84 L 84.38 98.44" stroke="white" fill="transparent"/>
	<path d = "M 70.31 201.56 L 60.94 157.03 L 70.31 105.47" stroke="white" fill="transparent"/>
	<path d = "M 159.38 234.38 L 168.75 208.59 L 178.12 135.94 L 194.53 107.81" stroke="white" fill="transparent"/>
	<path d = "M 227.34 220.31 L 236.72 138.28 L 257.81 100.78" stroke="white" fill="transparent"/>
	<path d = "M 283.59 222.66 L 323.44 98.44" stroke="white" fill="transparent"/>
</svg>