<?xml version="1.0" encoding="UTF-8" standalone="no"?>
<!--Created with ndjsontosvg (https:https://github.com/thompson318/ndjsontosvg) 
	from the simplified Google quickdraw data set. key_id = 5671685497815040-->
<svg width="600" height="600"
	xmlns="http://www.w3.org/2000/svg">
	xmlns:ndjsontosvg="https://github.com/thompson318/ndjsontosvg"
	xmlns:quickdraw="https://quickdraw.withgoogle.com/data"
	xmlns:scikit-surgery="https://doi.org/10.1007/s11548-020-02180-5">

	<rect width="100%" height="100%" fill="black" />
	<path d = "M 14.06 281.25 L 75.00 260.16 L 128.91 220.31" stroke="white" fill="transparent"/>
	<path d = "M 9.38 278.91 L 121.88 309.38" stroke="white" fill="transparent"/>
	<path d = "M 147.66 203.91 L 166.41 89.06" stroke="white" fill="transparent"/>
	<path d = "M 178.12 196.88 L 206.25 145.31 L 236.72 119.53" stroke="white" fill="transparent"/>
	<path d = "M 145.31 321.09 L 225.00 192.19 L 278.91 128.91" stroke="white" fill="transparent"/>
	<path d = "M 271.88 229.69 L 330.47 164.06 L 372.66 138.28" stroke="white" fill="transparent"/>
	<path d = "M 267.19 267.19 L 372.66 241.41 L 517.97 239.06" stroke="white" fill="transparent"/>
	<path d = "M 342.19 285.94 L 468.75 283.59" stroke="white" fill="transparent"/>
	<path d = "M 264.84 302.34 L 445.31 314.06" stroke="white" fill="transparent"/>
	<path d = "M 274.22 257.81 L 400.78 185.16" stroke="white" fill="transparent"/>
	<path d = "M 192.19 250.78 L 250.78 166.41 L 271.88 96.09" stroke="white" fill="transparent"/>
	<path d = "M 210.94 178.12 L 243.75 30.47" stroke="white" fill="transparent"/>
	<path d = "M 114.84 248.44 L 124.22 243.75 L 124.22 234.38 L 110.16 253.12 L 119.53 241.41 L 121.88 248.44" stroke="white" fill="transparent"/>
	<path d = "M 28.12 276.56 L 21.09 281.25 L 4.69 274.22 L 16.41 250.78 L 25.78 257.81 L 23.44 271.88 L 4.69 281.25 L 0.00 278.91 L 11.72 253.12 L 21.09 253.12 L 25.78 264.84" stroke="white" fill="transparent"/>
	<path d = "M 166.41 271.88 L 522.66 267.19" stroke="white" fill="transparent"/>
	<path d = "M 255.47 300.00 L 597.66 283.59" stroke="white" fill="transparent"/>
	<path d = "M 281.25 274.22 L 302.34 248.44 L 386.72 189.84 L 459.38 121.88" stroke="white" fill="transparent"/>
	<path d = "M 283.59 229.69 L 297.66 192.19 L 393.75 16.41" stroke="white" fill="transparent"/>
	<path d = "M 278.91 161.72 L 278.91 133.59 L 304.69 0.00" stroke="white" fill="transparent"/>
	<path d = "M 189.84 213.28 L 208.59 91.41 L 210.94 18.75" stroke="white" fill="transparent"/>
	<path d = "M 189.84 215.62 L 189.84 37.50" stroke="white" fill="transparent"/>
	<path d = "M 142.97 274.22 L 154.69 208.59 L 187.50 98.44" stroke="white" fill="transparent"/>
	<path d = "M 271.88 229.69 L 309.38 117.19 L 330.47 84.38" stroke="white" fill="transparent"/>
	<path d = "M 297.66 276.56 L 365.62 152.34 L 403.12 119.53" stroke="white" fill="transparent"/>
	<path d = "M 267.19 262.50 L 323.44 239.06 L 428.91 161.72 L 478.12 150.00" stroke="white" fill="transparent"/>
	<path d = "M 302.34 260.16 L 480.47 220.31" stroke="white" fill="transparent"/>
</svg>