<?xml version="1.0" encoding="UTF-8" standalone="no"?>
<!--Created with ndjsontosvg (https:https://github.com/thompson318/ndjsontosvg) 
	from the simplified Google quickdraw data set. key_id = 5233836164120576-->
<svg width="600" height="600"
	xmlns="http://www.w3.org/2000/svg">
	xmlns:ndjsontosvg="https://github.com/thompson318/ndjsontosvg"
	xmlns:quickdraw="https://quickdraw.withgoogle.com/data"
	xmlns:scikit-surgery="https://doi.org/10.1007/s11548-020-02180-5">

	<rect width="100%" height="100%" fill="black" />
	<path d = "M 60.94 187.50 L 35.16 194.53 L 30.47 201.56 L 32.81 234.38 L 53.91 257.81 L 96.09 264.84 L 119.53 262.50 L 126.56 248.44 L 126.56 215.62 L 117.19 199.22 L 79.69 178.12 L 32.81 187.50" stroke="white" fill="transparent"/>
	<path d = "M 44.53 222.66 L 9.38 248.44 L 0.00 278.91 L 23.44 278.91 L 67.97 243.75" stroke="white" fill="transparent"/>
	<path d = "M 63.28 203.91 L 63.28 206.25" stroke="white" fill="transparent"/>
	<path d = "M 91.41 217.97 L 91.41 217.97" stroke="white" fill="transparent"/>
	<path d = "M 93.75 210.94 L 93.75 220.31 L 89.06 215.62" stroke="white" fill="transparent"/>
	<path d = "M 32.81 187.50 L 42.19 131.25 L 56.25 152.34 L 65.62 154.69 L 89.06 119.53 L 119.53 14.06 L 142.97 70.31 L 161.72 2.34 L 182.81 75.00 L 196.88 77.34 L 225.00 4.69 L 243.75 77.34 L 264.84 112.50 L 288.28 79.69 L 311.72 14.06 L 332.81 67.97 L 375.00 0.00 L 419.53 100.78 L 431.25 98.44 L 482.81 35.16 L 492.19 39.84 L 506.25 114.84 L 536.72 53.91 L 562.50 131.25 L 595.31 86.72 L 597.66 140.62 L 583.59 196.88 L 571.88 187.50 L 564.84 166.41 L 562.50 201.56 L 548.44 234.38 L 539.06 236.72 L 515.62 187.50 L 515.62 213.28 L 489.84 283.59 L 447.66 210.94 L 424.22 283.59 L 400.78 225.00 L 367.97 269.53 L 330.47 220.31 L 323.44 222.66 L 302.34 271.88 L 292.97 262.50 L 274.22 222.66 L 253.12 271.88 L 236.72 267.19 L 215.62 236.72 L 189.84 276.56 L 166.41 257.81 L 159.38 271.88 L 150.00 271.88 L 128.91 239.06 L 124.22 243.75" stroke="white" fill="transparent"/>
	<path d = "M 213.28 267.19 L 215.62 288.28" stroke="white" fill="transparent"/>
</svg>