<?xml version="1.0" encoding="UTF-8" standalone="no"?>
<!--Created with ndjsontosvg (https:https://github.com/thompson318/ndjsontosvg) 
	from the simplified Google quickdraw data set. key_id = 6709019810988032-->
<svg width="600" height="600"
	xmlns="http://www.w3.org/2000/svg">
	xmlns:ndjsontosvg="https://github.com/thompson318/ndjsontosvg"
	xmlns:quickdraw="https://quickdraw.withgoogle.com/data"
	xmlns:scikit-surgery="https://doi.org/10.1007/s11548-020-02180-5">

	<rect width="100%" height="100%" fill="black" />
	<path d = "M 171.09 253.12 L 185.16 187.50 L 210.94 154.69 L 267.19 138.28 L 346.88 138.28 L 414.84 173.44 L 454.69 213.28 L 478.12 269.53 L 480.47 332.81 L 473.44 353.91 L 438.28 391.41 L 370.31 405.47 L 304.69 407.81 L 210.94 375.00 L 175.78 342.19 L 161.72 321.09" stroke="white" fill="transparent"/>
	<path d = "M 161.72 243.75 L 150.00 232.03 L 117.19 227.34 L 86.72 248.44 L 72.66 276.56 L 0.00 314.06 L 91.41 309.38 L 135.94 330.47 L 171.09 325.78" stroke="white" fill="transparent"/>
	<path d = "M 192.19 199.22 L 171.09 77.34 L 166.41 0.00 L 267.19 117.19 L 269.53 28.12 L 292.97 173.44 L 309.38 217.97 L 314.06 152.34 L 325.78 117.19 L 370.31 39.84 L 370.31 206.25 L 468.75 56.25 L 450.00 196.88 L 555.47 91.41 L 480.47 246.09 L 499.22 225.00 L 562.50 189.84 L 592.97 175.78 L 597.66 194.53 L 576.56 232.03 L 557.81 246.09 L 525.00 255.47 L 541.41 234.38 L 459.38 271.88" stroke="white" fill="transparent"/>
</svg>