<?xml version="1.0" encoding="UTF-8" standalone="no"?>
<!--Created with ndjsontosvg (https:https://github.com/thompson318/ndjsontosvg) 
	from the simplified Google quickdraw data set. key_id = 6750838829613056-->
<svg width="600" height="600"
	xmlns="http://www.w3.org/2000/svg">
	xmlns:ndjsontosvg="https://github.com/thompson318/ndjsontosvg"
	xmlns:quickdraw="https://quickdraw.withgoogle.com/data"
	xmlns:scikit-surgery="https://doi.org/10.1007/s11548-020-02180-5">

	<rect width="100%" height="100%" fill="black" />
	<path d = "M 576.56 150.00 L 553.12 110.16 L 534.38 93.75 L 433.59 49.22 L 382.03 42.19 L 307.03 70.31 L 234.38 126.56 L 187.50 189.84 L 157.03 271.88 L 150.00 314.06 L 157.03 351.56 L 199.22 398.44 L 250.78 426.56 L 318.75 435.94 L 344.53 424.22 L 396.09 375.00 L 419.53 332.81 L 438.28 255.47 L 450.00 236.72 L 508.59 208.59 L 539.06 201.56 L 562.50 201.56 L 583.59 213.28 L 590.62 206.25 L 595.31 147.66 L 583.59 133.59 L 564.84 126.56" stroke="white" fill="transparent"/>
	<path d = "M 510.94 133.59 L 513.28 157.03" stroke="white" fill="transparent"/>
	<path d = "M 548.44 135.94 L 548.44 157.03" stroke="white" fill="transparent"/>
	<path d = "M 473.44 171.09 L 508.59 185.16 L 550.78 182.81 L 576.56 171.09" stroke="white" fill="transparent"/>
	<path d = "M 264.84 103.12 L 225.00 63.28" stroke="white" fill="transparent"/>
	<path d = "M 243.75 152.34 L 161.72 103.12 L 157.03 91.41" stroke="white" fill="transparent"/>
	<path d = "M 112.50 250.78 L 0.00 248.44" stroke="white" fill="transparent"/>
	<path d = "M 171.09 335.16 L 133.59 342.19 L 84.38 372.66" stroke="white" fill="transparent"/>
	<path d = "M 145.31 253.12 L 65.62 253.12" stroke="white" fill="transparent"/>
	<path d = "M 138.28 147.66 L 154.69 145.31 L 93.75 124.22 L 35.16 93.75" stroke="white" fill="transparent"/>
	<path d = "M 145.31 124.22 L 98.44 100.78 L 84.38 72.66" stroke="white" fill="transparent"/>
	<path d = "M 227.34 70.31 L 201.56 56.25 L 171.09 23.44" stroke="white" fill="transparent"/>
	<path d = "M 241.41 114.84 L 182.81 67.97 L 173.44 37.50" stroke="white" fill="transparent"/>
	<path d = "M 302.34 98.44 L 278.91 91.41 L 253.12 70.31 L 225.00 21.09 L 227.34 0.00" stroke="white" fill="transparent"/>
	<path d = "M 332.81 58.59 L 311.72 44.53 L 297.66 11.72" stroke="white" fill="transparent"/>
	<path d = "M 344.53 67.97 L 335.16 63.28 L 311.72 28.12" stroke="white" fill="transparent"/>
	<path d = "M 222.66 110.16 L 192.19 96.09 L 157.03 65.62" stroke="white" fill="transparent"/>
	<path d = "M 225.00 159.38 L 140.62 142.97 L 103.12 121.88" stroke="white" fill="transparent"/>
	<path d = "M 152.34 187.50 L 65.62 196.88" stroke="white" fill="transparent"/>
</svg>