<?xml version="1.0" encoding="UTF-8" standalone="no"?>
<!--Created with ndjsontosvg (https:https://github.com/thompson318/ndjsontosvg) 
	from the simplified Google quickdraw data set. key_id = 4949871536635904-->
<svg width="600" height="600"
	xmlns="http://www.w3.org/2000/svg">
	xmlns:ndjsontosvg="https://github.com/thompson318/ndjsontosvg"
	xmlns:quickdraw="https://quickdraw.withgoogle.com/data"
	xmlns:scikit-surgery="https://doi.org/10.1007/s11548-020-02180-5">

	<rect width="100%" height="100%" fill="black" />
	<path d = "M 288.28 171.09 L 168.75 189.84 L 82.03 192.19 L 30.47 178.12 L 21.09 159.38 L 56.25 135.94 L 267.19 91.41 L 304.69 89.06 L 325.78 112.50 L 328.12 126.56 L 236.72 161.72" stroke="white" fill="transparent"/>
	<path d = "M 360.94 138.28 L 311.72 128.91 L 304.69 91.41 L 358.59 67.97 L 377.34 86.72 L 367.97 121.88" stroke="white" fill="transparent"/>
	<path d = "M 351.56 86.72 L 478.12 23.44 L 557.81 0.00 L 588.28 0.00 L 595.31 7.03 L 585.94 39.84 L 534.38 72.66 L 367.97 133.59 L 363.28 124.22" stroke="white" fill="transparent"/>
	<path d = "M 309.38 91.41 L 185.16 58.59 L 180.47 39.84 L 220.31 23.44 L 304.69 21.09 L 375.00 35.16 L 372.66 56.25 L 328.12 86.72" stroke="white" fill="transparent"/>
	<path d = "M 297.66 142.97 L 459.38 180.47 L 442.97 154.69 L 386.72 124.22 L 353.91 112.50 L 318.75 114.84" stroke="white" fill="transparent"/>
	<path d = "M 342.19 150.00 L 403.12 152.34 L 442.97 180.47 L 461.72 220.31 L 428.91 281.25 L 358.59 288.28" stroke="white" fill="transparent"/>
	<path d = "M 377.34 297.66 L 379.69 339.84 L 300.00 360.94" stroke="white" fill="transparent"/>
	<path d = "M 372.66 283.59 L 349.22 292.97 L 264.84 297.66 L 105.47 278.91 L 0.00 250.78" stroke="white" fill="transparent"/>
</svg>