<?xml version="1.0" encoding="UTF-8" standalone="no"?>
<!--Created with ndjsontosvg (https:https://github.com/thompson318/ndjsontosvg) 
	from the simplified Google quickdraw data set. key_id = 4936326786842624-->
<svg width="600" height="600"
	xmlns="http://www.w3.org/2000/svg">
	xmlns:ndjsontosvg="https://github.com/thompson318/ndjsontosvg"
	xmlns:quickdraw="https://quickdraw.withgoogle.com/data"
	xmlns:scikit-surgery="https://doi.org/10.1007/s11548-020-02180-5">

	<rect width="100%" height="100%" fill="black" />
	<path d = "M 117.19 44.53 L 60.94 46.88 L 35.16 70.31 L 16.41 107.81 L 11.72 140.62 L 37.50 168.75 L 98.44 185.16 L 232.03 192.19 L 311.72 185.16 L 339.84 168.75 L 346.88 145.31 L 309.38 114.84 L 220.31 77.34 L 126.56 49.22" stroke="white" fill="transparent"/>
	<path d = "M 346.88 157.03 L 499.22 152.34 L 564.84 161.72" stroke="white" fill="transparent"/>
	<path d = "M 550.78 114.84 L 581.25 182.81" stroke="white" fill="transparent"/>
	<path d = "M 597.66 119.53 L 567.19 201.56" stroke="white" fill="transparent"/>
	<path d = "M 213.28 77.34 L 208.59 2.34 L 140.62 0.00 L 393.75 9.38" stroke="white" fill="transparent"/>
	<path d = "M 138.28 51.56 L 119.53 46.88" stroke="white" fill="transparent"/>
	<path d = "M 67.97 178.12 L 63.28 220.31" stroke="white" fill="transparent"/>
	<path d = "M 0.00 196.88 L 37.50 246.09 L 105.47 267.19 L 250.78 269.53 L 300.00 243.75 L 318.75 213.28" stroke="white" fill="transparent"/>
	<path d = "M 232.03 189.84 L 236.72 269.53" stroke="white" fill="transparent"/>
	<path d = "M 70.31 182.81 L 77.34 264.84" stroke="white" fill="transparent"/>
</svg>