<?xml version="1.0" encoding="UTF-8" standalone="no"?>
<!--Created with ndjsontosvg (https:https://github.com/thompson318/ndjsontosvg) 
	from the simplified Google quickdraw data set. key_id = 5268709838946304-->
<svg width="600" height="600"
	xmlns="http://www.w3.org/2000/svg">
	xmlns:ndjsontosvg="https://github.com/thompson318/ndjsontosvg"
	xmlns:quickdraw="https://quickdraw.withgoogle.com/data"
	xmlns:scikit-surgery="https://doi.org/10.1007/s11548-020-02180-5">

	<rect width="100%" height="100%" fill="black" />
	<path d = "M 173.44 351.56 L 154.69 358.59 L 98.44 353.91 L 56.25 330.47 L 21.09 297.66 L 2.34 241.41 L 0.00 189.84 L 16.41 147.66 L 39.84 126.56 L 110.16 98.44 L 248.44 82.03 L 421.88 77.34 L 581.25 91.41 L 597.66 152.34 L 597.66 222.66 L 581.25 269.53 L 546.09 300.00 L 496.88 321.09 L 393.75 342.19 L 168.75 346.88" stroke="white" fill="transparent"/>
	<path d = "M 138.28 353.91 L 126.56 393.75" stroke="white" fill="transparent"/>
	<path d = "M 466.41 342.19 L 466.41 396.09" stroke="white" fill="transparent"/>
	<path d = "M 79.69 396.09 L 461.72 391.41 L 564.84 398.44" stroke="white" fill="transparent"/>
	<path d = "M 243.75 82.03 L 241.41 65.62" stroke="white" fill="transparent"/>
	<path d = "M 269.53 72.66 L 271.88 56.25" stroke="white" fill="transparent"/>
	<path d = "M 210.94 65.62 L 342.19 65.62 L 398.44 49.22 L 494.53 4.69" stroke="white" fill="transparent"/>
	<path d = "M 260.16 32.81 L 314.06 56.25 L 412.50 75.00" stroke="white" fill="transparent"/>
	<path d = "M 243.75 63.28 L 103.12 63.28" stroke="white" fill="transparent"/>
	<path d = "M 353.91 58.59 L 285.94 42.19 L 220.31 0.00" stroke="white" fill="transparent"/>
	<path d = "M 405.47 70.31 L 447.66 82.03 L 452.34 93.75" stroke="white" fill="transparent"/>
</svg>