<?xml version="1.0" encoding="UTF-8" standalone="no"?>
<!--Created with ndjsontosvg (https:https://github.com/thompson318/ndjsontosvg) 
	from the simplified Google quickdraw data set. key_id = 6725793101119488-->
<svg width="600" height="600"
	xmlns="http://www.w3.org/2000/svg">
	xmlns:ndjsontosvg="https://github.com/thompson318/ndjsontosvg"
	xmlns:quickdraw="https://quickdraw.withgoogle.com/data"
	xmlns:scikit-surgery="https://doi.org/10.1007/s11548-020-02180-5">

	<rect width="100%" height="100%" fill="black" />
	<path d = "M 135.94 58.59 L 72.66 82.03 L 46.88 98.44 L 4.69 161.72 L 0.00 185.16 L 4.69 192.19 L 290.62 194.53 L 358.59 182.81 L 375.00 173.44 L 396.09 128.91 L 410.16 117.19 L 489.84 110.16 L 597.66 77.34 L 510.94 56.25 L 471.09 89.06 L 428.91 107.81 L 377.34 117.19 L 300.00 119.53 L 246.09 105.47 L 187.50 72.66 L 121.88 63.28" stroke="white" fill="transparent"/>
	<path d = "M 58.59 7.03 L 135.94 35.16 L 194.53 37.50" stroke="white" fill="transparent"/>
	<path d = "M 225.00 9.38 L 75.00 37.50" stroke="white" fill="transparent"/>
	<path d = "M 135.94 0.00 L 131.25 51.56" stroke="white" fill="transparent"/>
	<path d = "M 114.84 196.88 L 114.84 213.28" stroke="white" fill="transparent"/>
	<path d = "M 203.91 196.88 L 203.91 229.69 L 199.22 232.03 L 16.41 236.72 L 285.94 222.66" stroke="white" fill="transparent"/>
</svg>