<?xml version="1.0" encoding="UTF-8" standalone="no"?>
<!--Created with ndjsontosvg (https:https://github.com/thompson318/ndjsontosvg) 
	from the simplified Google quickdraw data set. key_id = 5801650050564096-->
<svg width="600" height="600"
	xmlns="http://www.w3.org/2000/svg">
	xmlns:ndjsontosvg="https://github.com/thompson318/ndjsontosvg"
	xmlns:quickdraw="https://quickdraw.withgoogle.com/data"
	xmlns:scikit-surgery="https://doi.org/10.1007/s11548-020-02180-5">

	<rect width="100%" height="100%" fill="black" />
	<path d = "M 121.88 189.84 L 98.44 206.25 L 86.72 274.22 L 100.78 300.00 L 142.97 316.41 L 290.62 311.72 L 346.88 262.50 L 435.94 243.75 L 550.78 241.41 L 553.12 217.97 L 527.34 213.28 L 478.12 220.31 L 321.09 220.31 L 225.00 185.16 L 105.47 189.84" stroke="white" fill="transparent"/>
	<path d = "M 196.88 175.78 L 206.25 147.66 L 206.25 75.00 L 194.53 30.47" stroke="white" fill="transparent"/>
	<path d = "M 206.25 32.81 L 107.81 2.34 L 0.00 0.00 L 11.72 4.69 L 260.16 49.22 L 182.81 23.44 L 91.41 11.72 L 220.31 30.47 L 239.06 30.47 L 166.41 14.06 L 72.66 2.34 L 42.19 2.34 L 51.56 7.03 L 442.97 84.38 L 372.66 63.28 L 168.75 60.94 L 292.97 60.94" stroke="white" fill="transparent"/>
	<path d = "M 576.56 215.62 L 557.81 236.72 L 576.56 246.09 L 590.62 222.66 L 583.59 180.47 L 564.84 166.41 L 527.34 201.56 L 517.97 234.38 L 529.69 250.78 L 553.12 250.78 L 567.19 239.06 L 562.50 215.62 L 543.75 201.56 L 543.75 236.72 L 567.19 239.06 L 581.25 227.34 L 595.31 206.25 L 597.66 185.16 L 588.28 171.09 L 574.22 164.06 L 557.81 175.78 L 550.78 192.19 L 553.12 217.97 L 562.50 213.28 L 571.88 194.53 L 560.16 182.81 L 550.78 187.50 L 541.41 206.25 L 525.00 213.28" stroke="white" fill="transparent"/>
</svg>