<?xml version="1.0" encoding="UTF-8" standalone="no"?>
<!--Created with ndjsontosvg (https:https://github.com/thompson318/ndjsontosvg) 
	from the simplified Google quickdraw data set. key_id = 6627056580296704-->
<svg width="600" height="600"
	xmlns="http://www.w3.org/2000/svg">
	xmlns:ndjsontosvg="https://github.com/thompson318/ndjsontosvg"
	xmlns:quickdraw="https://quickdraw.withgoogle.com/data"
	xmlns:scikit-surgery="https://doi.org/10.1007/s11548-020-02180-5">

	<rect width="100%" height="100%" fill="black" />
	<path d = "M 51.56 426.56 L 2.34 300.00 L 0.00 194.53 L 21.09 131.25 L 65.62 77.34 L 112.50 37.50 L 201.56 2.34 L 300.00 0.00 L 403.12 39.84 L 480.47 86.72 L 550.78 152.34 L 520.31 175.78 L 267.19 302.34 L 79.69 363.28 L 14.06 398.44" stroke="white" fill="transparent"/>
	<path d = "M 199.22 11.72 L 150.00 96.09 L 135.94 227.34 L 79.69 360.94" stroke="white" fill="transparent"/>
	<path d = "M 269.53 21.09 L 189.84 161.72 L 175.78 215.62 L 175.78 292.97 L 164.06 318.75" stroke="white" fill="transparent"/>
	<path d = "M 363.28 39.84 L 314.06 133.59 L 300.00 217.97 L 278.91 274.22" stroke="white" fill="transparent"/>
	<path d = "M 51.56 375.00 L 49.22 424.22 L 75.00 471.09 L 152.34 543.75 L 194.53 571.88 L 264.84 583.59 L 328.12 581.25 L 452.34 532.03 L 517.97 482.81 L 546.09 421.88 L 557.81 353.91 L 557.81 206.25 L 548.44 164.06 L 548.44 457.03 L 534.38 503.91 L 513.28 543.75 L 461.72 578.91 L 382.03 592.97 L 311.72 585.94 L 103.12 487.50 L 21.09 412.50 L 51.56 426.56 L 157.03 520.31 L 260.16 576.56 L 372.66 597.66 L 459.38 595.31 L 487.50 569.53 L 513.28 508.59 L 571.88 203.91" stroke="white" fill="transparent"/>
</svg>