<?xml version="1.0" encoding="UTF-8" standalone="no"?>
<!--Created with ndjsontosvg (https:https://github.com/thompson318/ndjsontosvg) 
	from the simplified Google quickdraw data set. key_id = 5756115549683712-->
<svg width="600" height="600"
	xmlns="http://www.w3.org/2000/svg">
	xmlns:ndjsontosvg="https://github.com/thompson318/ndjsontosvg"
	xmlns:quickdraw="https://quickdraw.withgoogle.com/data"
	xmlns:scikit-surgery="https://doi.org/10.1007/s11548-020-02180-5">

	<rect width="100%" height="100%" fill="black" />
	<path d = "M 372.66 110.16 L 358.59 117.19 L 257.81 114.84 L 206.25 138.28 L 173.44 161.72 L 135.94 208.59 L 128.91 229.69 L 126.56 290.62 L 138.28 349.22 L 182.81 414.84 L 236.72 440.62 L 297.66 438.28 L 353.91 414.84 L 403.12 375.00 L 431.25 335.16 L 447.66 260.16 L 447.66 213.28 L 414.84 142.97 L 379.69 110.16" stroke="white" fill="transparent"/>
	<path d = "M 199.22 196.88 L 206.25 269.53" stroke="white" fill="transparent"/>
	<path d = "M 311.72 175.78 L 314.06 285.94" stroke="white" fill="transparent"/>
	<path d = "M 196.88 342.19 L 239.06 391.41 L 262.50 400.78 L 297.66 400.78 L 393.75 339.84" stroke="white" fill="transparent"/>
	<path d = "M 119.53 220.31 L 110.16 215.62 L 114.84 189.84 L 185.16 117.19 L 236.72 75.00 L 271.88 58.59 L 372.66 51.56 L 417.19 67.97 L 447.66 98.44 L 506.25 185.16 L 517.97 229.69 L 517.97 269.53 L 475.78 276.56 L 457.03 267.19 L 452.34 257.81" stroke="white" fill="transparent"/>
	<path d = "M 112.50 178.12 L 119.53 220.31 L 145.31 222.66" stroke="white" fill="transparent"/>
	<path d = "M 548.44 72.66 L 513.28 30.47 L 421.88 4.69 L 175.78 0.00 L 105.47 21.09 L 49.22 58.59 L 11.72 100.78 L 0.00 159.38 L 105.47 213.28 L 145.31 225.00 L 206.25 225.00 L 403.12 138.28 L 468.75 135.94 L 487.50 157.03 L 508.59 208.59 L 520.31 285.94 L 520.31 367.97 L 550.78 370.31 L 578.91 346.88 L 592.97 316.41 L 597.66 227.34 L 567.19 53.91 L 553.12 28.12 L 522.66 9.38" stroke="white" fill="transparent"/>
</svg>