<?xml version="1.0" encoding="UTF-8" standalone="no"?>
<!--Created with ndjsontosvg (https:https://github.com/thompson318/ndjsontosvg) 
	from the simplified Google quickdraw data set. key_id = 5111675013300224-->
<svg width="600" height="600"
	xmlns="http://www.w3.org/2000/svg">
	xmlns:ndjsontosvg="https://github.com/thompson318/ndjsontosvg"
	xmlns:quickdraw="https://quickdraw.withgoogle.com/data"
	xmlns:scikit-surgery="https://doi.org/10.1007/s11548-020-02180-5">

	<rect width="100%" height="100%" fill="black" />
	<path d = "M 14.06 478.12 L 0.00 351.56 L 23.44 232.03 L 86.72 112.50 L 135.94 42.19 L 178.12 11.72 L 316.41 0.00 L 346.88 4.69 L 452.34 89.06 L 527.34 173.44 L 567.19 239.06 L 592.97 330.47 L 597.66 506.25 L 546.09 513.28" stroke="white" fill="transparent"/>
	<path d = "M 30.47 487.50 L 51.56 487.50" stroke="white" fill="transparent"/>
	<path d = "M 75.00 480.47 L 79.69 323.44 L 119.53 220.31 L 166.41 182.81 L 278.91 135.94 L 295.31 135.94 L 335.16 145.31 L 400.78 194.53 L 459.38 297.66 L 492.19 473.44 L 494.53 529.69 L 588.28 539.06 L 576.56 534.38" stroke="white" fill="transparent"/>
	<path d = "M 110.16 419.53 L 107.81 419.53" stroke="white" fill="transparent"/>
	<path d = "M 84.38 435.94 L 159.38 471.09 L 276.56 487.50 L 424.22 471.09 L 452.34 454.69 L 546.09 435.94" stroke="white" fill="transparent"/>
</svg>