<?xml version="1.0" encoding="UTF-8" standalone="no"?>
<!--Created with ndjsontosvg (https:https://github.com/thompson318/ndjsontosvg) 
	from the simplified Google quickdraw data set. key_id = 4615390887936000-->
<svg width="600" height="600"
	xmlns="http://www.w3.org/2000/svg">
	xmlns:ndjsontosvg="https://github.com/thompson318/ndjsontosvg"
	xmlns:quickdraw="https://quickdraw.withgoogle.com/data"
	xmlns:scikit-surgery="https://doi.org/10.1007/s11548-020-02180-5">

	<rect width="100%" height="100%" fill="black" />
	<path d = "M 30.47 349.22 L 75.00 194.53 L 100.78 138.28 L 135.94 89.06 L 192.19 39.84 L 262.50 7.03 L 300.00 0.00 L 407.81 0.00 L 459.38 30.47 L 487.50 77.34 L 496.88 135.94 L 564.84 311.72 L 571.88 367.97 L 557.81 386.72 L 478.12 419.53 L 442.97 421.88 L 428.91 405.47 L 424.22 330.47 L 412.50 314.06 L 396.09 304.69 L 367.97 271.88 L 335.16 257.81 L 232.03 257.81 L 210.94 267.19 L 185.16 307.03 L 168.75 407.81 L 131.25 433.59 L 75.00 442.97 L 21.09 440.62 L 2.34 421.88 L 2.34 365.62" stroke="white" fill="transparent"/>
	<path d = "M 187.50 342.19 L 215.62 351.56 L 360.94 351.56 L 403.12 339.84" stroke="white" fill="transparent"/>
	<path d = "M 77.34 440.62 L 77.34 489.84 L 89.06 529.69 L 114.84 553.12 L 145.31 574.22 L 264.84 597.66 L 391.41 597.66 L 447.66 567.19 L 503.91 496.88 L 522.66 445.31 L 522.66 405.47" stroke="white" fill="transparent"/>
</svg>