<?xml version="1.0" encoding="UTF-8" standalone="no"?>
<!--Created with ndjsontosvg (https:https://github.com/thompson318/ndjsontosvg) 
	from the simplified Google quickdraw data set. key_id = 6715719792197632-->
<svg width="600" height="600"
	xmlns="http://www.w3.org/2000/svg">
	xmlns:ndjsontosvg="https://github.com/thompson318/ndjsontosvg"
	xmlns:quickdraw="https://quickdraw.withgoogle.com/data"
	xmlns:scikit-surgery="https://doi.org/10.1007/s11548-020-02180-5">

	<rect width="100%" height="100%" fill="black" />
	<path d = "M 7.03 297.66 L 0.00 208.59 L 70.31 119.53 L 126.56 70.31 L 220.31 11.72 L 243.75 2.34 L 274.22 0.00 L 330.47 7.03 L 389.06 25.78 L 485.16 98.44 L 513.28 150.00 L 546.09 264.84 L 546.09 311.72" stroke="white" fill="transparent"/>
	<path d = "M 121.88 314.06 L 150.00 414.84 L 203.91 508.59 L 239.06 553.12 L 269.53 574.22 L 318.75 597.66 L 339.84 597.66 L 367.97 585.94 L 398.44 562.50 L 417.19 539.06 L 424.22 506.25 L 421.88 457.03 L 375.00 281.25" stroke="white" fill="transparent"/>
	<path d = "M 7.03 292.97 L 65.62 311.72 L 154.69 297.66" stroke="white" fill="transparent"/>
</svg>