<?xml version="1.0" encoding="UTF-8" standalone="no"?>
<!--Created with ndjsontosvg (https:https://github.com/thompson318/ndjsontosvg) 
	from the simplified Google quickdraw data set. key_id = 6711497214394368-->
<svg width="600" height="600"
	xmlns="http://www.w3.org/2000/svg">
	xmlns:ndjsontosvg="https://github.com/thompson318/ndjsontosvg"
	xmlns:quickdraw="https://quickdraw.withgoogle.com/data"
	xmlns:scikit-surgery="https://doi.org/10.1007/s11548-020-02180-5">

	<rect width="100%" height="100%" fill="black" />
	<path d = "M 32.81 501.56 L 117.19 520.31 L 210.94 517.97 L 250.78 501.56 L 264.84 482.81 L 264.84 461.72 L 250.78 445.31 L 225.00 431.25 L 140.62 414.84 L 75.00 412.50 L 39.84 435.94 L 32.81 452.34 L 28.12 492.19 L 42.19 510.94" stroke="white" fill="transparent"/>
	<path d = "M 42.19 428.91 L 23.44 442.97 L 11.72 464.06 L 0.00 503.91 L 0.00 543.75 L 16.41 567.19 L 49.22 581.25 L 147.66 597.66 L 201.56 592.97 L 222.66 578.91 L 236.72 553.12 L 253.12 485.16" stroke="white" fill="transparent"/>
	<path d = "M 290.62 0.00 L 330.47 37.50 L 405.47 157.03 L 445.31 281.25 L 452.34 363.28" stroke="white" fill="transparent"/>
</svg>