<?xml version="1.0" encoding="UTF-8" standalone="no"?>
<!--Created with ndjsontosvg (https:https://github.com/thompson318/ndjsontosvg) 
	from the simplified Google quickdraw data set. key_id = 6578852518166528-->
<svg width="600" height="600"
	xmlns="http://www.w3.org/2000/svg">
	xmlns:ndjsontosvg="https://github.com/thompson318/ndjsontosvg"
	xmlns:quickdraw="https://quickdraw.withgoogle.com/data"
	xmlns:scikit-surgery="https://doi.org/10.1007/s11548-020-02180-5">

	<rect width="100%" height="100%" fill="black" />
	<path d = "M 414.84 0.00 L 400.78 307.03 L 356.25 525.00 L 349.22 543.75 L 274.22 555.47 L 248.44 574.22 L 250.78 581.25 L 342.19 585.94 L 367.97 567.19 L 379.69 515.62 L 396.09 370.31 L 403.12 257.81 L 400.78 175.78" stroke="white" fill="transparent"/>
	<path d = "M 161.72 550.78 L 93.75 548.44 L 25.78 557.81 L 18.75 562.50 L 21.09 571.88 L 65.62 574.22 L 107.81 574.22 L 166.41 560.16 L 171.09 557.81 L 166.41 553.12 L 152.34 550.78" stroke="white" fill="transparent"/>
	<path d = "M 0.00 567.19 L 25.78 590.62 L 53.91 597.66 L 142.97 588.28 L 175.78 569.53" stroke="white" fill="transparent"/>
</svg>