<?xml version="1.0" encoding="UTF-8" standalone="no"?>
<!--Created with ndjsontosvg (https:https://github.com/thompson318/ndjsontosvg) 
	from the simplified Google quickdraw data set. key_id = 6445067294212096-->
<svg width="600" height="600"
	xmlns="http://www.w3.org/2000/svg">
	xmlns:ndjsontosvg="https://github.com/thompson318/ndjsontosvg"
	xmlns:quickdraw="https://quickdraw.withgoogle.com/data"
	xmlns:scikit-surgery="https://doi.org/10.1007/s11548-020-02180-5">

	<rect width="100%" height="100%" fill="black" />
	<path d = "M 400.78 2.34 L 414.84 89.06 L 419.53 220.31 L 396.09 363.28 L 370.31 433.59 L 321.09 482.81 L 243.75 515.62 L 117.19 546.09 L 65.62 553.12" stroke="white" fill="transparent"/>
	<path d = "M 405.47 16.41 L 405.47 18.75" stroke="white" fill="transparent"/>
	<path d = "M 489.84 0.00 L 482.81 75.00 L 499.22 225.00 L 494.53 274.22 L 468.75 396.09 L 421.88 492.19 L 389.06 517.97 L 201.56 590.62 L 128.91 597.66 L 46.88 585.94" stroke="white" fill="transparent"/>
	<path d = "M 89.06 546.09 L 2.34 562.50 L 0.00 574.22 L 25.78 590.62 L 51.56 595.31 L 93.75 595.31 L 110.16 585.94" stroke="white" fill="transparent"/>
	<path d = "M 372.66 42.19 L 372.66 42.19" stroke="white" fill="transparent"/>
	<path d = "M 382.03 11.72 L 478.12 7.03" stroke="white" fill="transparent"/>
</svg>