<?xml version="1.0" encoding="UTF-8" standalone="no"?>
<!--Created with ndjsontosvg (https:https://github.com/thompson318/ndjsontosvg) 
	from the simplified Google quickdraw data set. key_id = 5589666453520384-->
<svg width="600" height="600"
	xmlns="http://www.w3.org/2000/svg">
	xmlns:ndjsontosvg="https://github.com/thompson318/ndjsontosvg"
	xmlns:quickdraw="https://quickdraw.withgoogle.com/data"
	xmlns:scikit-surgery="https://doi.org/10.1007/s11548-020-02180-5">

	<rect width="100%" height="100%" fill="black" />
	<path d = "M 98.44 53.91 L 23.44 150.00 L 2.34 203.91 L 2.34 232.03 L 25.78 253.12 L 56.25 248.44 L 96.09 222.66 L 161.72 145.31 L 175.78 140.62 L 189.84 150.00 L 206.25 173.44 L 215.62 203.91 L 234.38 407.81 L 255.47 454.69 L 276.56 454.69 L 290.62 431.25 L 292.97 318.75 L 304.69 295.31 L 513.28 267.19 L 529.69 267.19 L 536.72 278.91 L 539.06 372.66 L 546.09 410.16 L 562.50 426.56 L 578.91 424.22 L 590.62 389.06 L 592.97 325.78 L 588.28 222.66 L 574.22 138.28 L 597.66 236.72 L 576.56 154.69 L 534.38 117.19 L 445.31 98.44 L 335.16 98.44 L 257.81 89.06 L 213.28 72.66 L 159.38 30.47 L 133.59 32.81 L 98.44 51.56 L 93.75 30.47 L 103.12 0.00 L 121.88 32.81" stroke="white" fill="transparent"/>
	<path d = "M 91.41 60.94 L 51.56 39.84 L 53.91 77.34" stroke="white" fill="transparent"/>
	<path d = "M 86.72 147.66 L 86.72 147.66" stroke="white" fill="transparent"/>
</svg>