<?xml version="1.0" encoding="UTF-8" standalone="no"?>
<!--Created with ndjsontosvg (https:https://github.com/thompson318/ndjsontosvg) 
	from the simplified Google quickdraw data set. key_id = 4685895393345536-->
<svg width="600" height="600"
	xmlns="http://www.w3.org/2000/svg">
	xmlns:ndjsontosvg="https://github.com/thompson318/ndjsontosvg"
	xmlns:quickdraw="https://quickdraw.withgoogle.com/data"
	xmlns:scikit-surgery="https://doi.org/10.1007/s11548-020-02180-5">

	<rect width="100%" height="100%" fill="black" />
	<path d = "M 203.91 65.62 L 161.72 32.81 L 93.75 18.75 L 70.31 23.44 L 56.25 37.50 L 37.50 98.44 L 2.34 128.91 L 0.00 150.00 L 9.38 164.06 L 21.09 164.06 L 96.09 142.97" stroke="white" fill="transparent"/>
	<path d = "M 110.16 46.88 L 138.28 152.34 L 142.97 262.50 L 135.94 105.47 L 126.56 32.81 L 119.53 35.16 L 128.91 86.72 L 154.69 164.06 L 171.09 295.31 L 166.41 346.88 L 159.38 328.12 L 157.03 246.09 L 171.09 51.56 L 161.72 0.00 L 166.41 39.84 L 213.28 152.34 L 229.69 297.66 L 217.97 440.62 L 229.69 260.16 L 208.59 75.00" stroke="white" fill="transparent"/>
	<path d = "M 215.62 63.28 L 246.09 142.97 L 307.03 196.88 L 353.91 210.94 L 398.44 203.91 L 503.91 215.62 L 581.25 267.19 L 592.97 281.25 L 597.66 314.06 L 597.66 349.22 L 583.59 393.75" stroke="white" fill="transparent"/>
	<path d = "M 588.28 417.19 L 597.66 546.09 L 595.31 557.81 L 583.59 562.50 L 569.53 562.50 L 541.41 546.09 L 513.28 487.50 L 506.25 438.28 L 485.16 419.53 L 454.69 445.31 L 442.97 546.09 L 424.22 550.78 L 403.12 539.06 L 363.28 447.66 L 335.16 426.56 L 325.78 438.28 L 307.03 482.81 L 302.34 534.38 L 290.62 534.38 L 255.47 494.53 L 232.03 393.75 L 222.66 414.84 L 220.31 517.97 L 208.59 529.69 L 171.09 522.66 L 157.03 485.16 L 150.00 332.81 L 93.75 121.88" stroke="white" fill="transparent"/>
</svg>