<?xml version="1.0" encoding="UTF-8" standalone="no"?>
<!--Created with ndjsontosvg (https:https://github.com/thompson318/ndjsontosvg) 
	from the simplified Google quickdraw data set. key_id = 5613757763944448-->
<svg width="600" height="600"
	xmlns="http://www.w3.org/2000/svg">
	xmlns:ndjsontosvg="https://github.com/thompson318/ndjsontosvg"
	xmlns:quickdraw="https://quickdraw.withgoogle.com/data"
	xmlns:scikit-surgery="https://doi.org/10.1007/s11548-020-02180-5">

	<rect width="100%" height="100%" fill="black" />
	<path d = "M 321.09 98.44 L 321.09 100.78" stroke="white" fill="transparent"/>
	<path d = "M 323.44 105.47 L 288.28 18.75" stroke="white" fill="transparent"/>
	<path d = "M 285.94 28.12 L 267.19 138.28" stroke="white" fill="transparent"/>
	<path d = "M 330.47 103.12 L 346.88 0.00" stroke="white" fill="transparent"/>
	<path d = "M 346.88 0.00 L 360.94 9.38 L 372.66 37.50 L 379.69 112.50" stroke="white" fill="transparent"/>
	<path d = "M 377.34 112.50 L 400.78 126.56 L 454.69 194.53 L 487.50 285.94 L 513.28 311.72 L 539.06 325.78" stroke="white" fill="transparent"/>
	<path d = "M 539.06 325.78 L 539.06 353.91 L 517.97 367.97" stroke="white" fill="transparent"/>
	<path d = "M 257.81 142.97 L 241.41 196.88 L 192.19 278.91 L 180.47 318.75 L 154.69 506.25 L 157.03 543.75" stroke="white" fill="transparent"/>
	<path d = "M 210.94 201.56 L 157.03 248.44 L 119.53 295.31" stroke="white" fill="transparent"/>
	<path d = "M 241.41 168.75 L 199.22 178.12 L 166.41 203.91 L 128.91 253.12 L 91.41 321.09" stroke="white" fill="transparent"/>
	<path d = "M 220.31 285.94 L 173.44 335.16 L 138.28 358.59 L 96.09 403.12" stroke="white" fill="transparent"/>
	<path d = "M 166.41 358.59 L 84.38 438.28 L 60.94 487.50 L 63.28 499.22" stroke="white" fill="transparent"/>
	<path d = "M 154.69 447.66 L 82.03 513.28 L 32.81 578.91" stroke="white" fill="transparent"/>
	<path d = "M 138.28 536.72 L 42.19 597.66" stroke="white" fill="transparent"/>
	<path d = "M 142.97 311.72 L 91.41 330.47 L 44.53 365.62 L 14.06 407.81 L 0.00 447.66 L 4.69 459.38" stroke="white" fill="transparent"/>
</svg>