<?xml version="1.0" encoding="UTF-8" standalone="no"?>
<!--Created with ndjsontosvg (https:https://github.com/thompson318/ndjsontosvg) 
	from the simplified Google quickdraw data set. key_id = 6476289739325440-->
<svg width="600" height="600"
	xmlns="http://www.w3.org/2000/svg">
	xmlns:ndjsontosvg="https://github.com/thompson318/ndjsontosvg"
	xmlns:quickdraw="https://quickdraw.withgoogle.com/data"
	xmlns:scikit-surgery="https://doi.org/10.1007/s11548-020-02180-5">

	<rect width="100%" height="100%" fill="black" />
	<path d = "M 597.66 44.53 L 515.62 49.22 L 487.50 2.34 L 428.91 2.34 L 414.84 18.75 L 414.84 46.88 L 389.06 105.47 L 363.28 131.25 L 325.78 145.31 L 189.84 164.06 L 196.88 164.06 L 194.53 173.44 L 135.94 166.41 L 46.88 175.78 L 11.72 234.38 L 0.00 295.31 L 18.75 281.25 L 49.22 201.56 L 51.56 370.31 L 44.53 403.12 L 91.41 410.16 L 103.12 407.81 L 107.81 398.44 L 93.75 346.88 L 100.78 241.41 L 117.19 243.75 L 126.56 372.66 L 121.88 407.81 L 135.94 398.44 L 147.66 400.78 L 152.34 382.03 L 145.31 262.50 L 150.00 234.38 L 217.97 225.00 L 281.25 229.69 L 292.97 241.41 L 304.69 281.25 L 300.00 421.88 L 321.09 407.81 L 325.78 386.72 L 339.84 290.62 L 337.50 225.00 L 367.97 225.00 L 379.69 412.50 L 398.44 412.50" stroke="white" fill="transparent"/>
</svg>