<?xml version="1.0" encoding="UTF-8" standalone="no"?>
<!--Created with ndjsontosvg (https:https://github.com/thompson318/ndjsontosvg) 
	from the simplified Google quickdraw data set. key_id = 5928216432738304-->
<svg width="600" height="600"
	xmlns="http://www.w3.org/2000/svg">
	xmlns:ndjsontosvg="https://github.com/thompson318/ndjsontosvg"
	xmlns:quickdraw="https://quickdraw.withgoogle.com/data"
	xmlns:scikit-surgery="https://doi.org/10.1007/s11548-020-02180-5">

	<rect width="100%" height="100%" fill="black" />
	<path d = "M 23.44 450.00 L 7.03 321.09 L 0.00 145.31 L 229.69 166.41 L 353.91 166.41 L 454.69 157.03 L 529.69 161.72 L 536.72 166.41 L 569.53 328.12 L 574.22 445.31 L 585.94 517.97 L 592.97 525.00" stroke="white" fill="transparent"/>
	<path d = "M 4.69 135.94 L 112.50 51.56 L 203.91 2.34 L 222.66 0.00 L 302.34 39.84 L 440.62 135.94 L 543.75 182.81" stroke="white" fill="transparent"/>
	<path d = "M 229.69 39.84 L 234.38 124.22 L 243.75 171.09" stroke="white" fill="transparent"/>
	<path d = "M 178.12 86.72 L 225.00 96.09 L 339.84 93.75" stroke="white" fill="transparent"/>
	<path d = "M 18.75 424.22 L 23.44 489.84 L 42.19 501.56 L 321.09 489.84 L 597.66 489.84" stroke="white" fill="transparent"/>
	<path d = "M 77.34 210.94 L 75.00 314.06 L 96.09 332.81 L 128.91 330.47 L 164.06 304.69 L 154.69 206.25 L 91.41 203.91" stroke="white" fill="transparent"/>
	<path d = "M 145.31 492.19 L 142.97 471.09 L 161.72 424.22 L 192.19 384.38 L 208.59 379.69 L 213.28 442.97 L 229.69 485.16" stroke="white" fill="transparent"/>
	<path d = "M 110.16 442.97 L 227.34 440.62" stroke="white" fill="transparent"/>
	<path d = "M 196.88 419.53 L 264.84 386.72 L 311.72 377.34 L 342.19 379.69 L 365.62 410.16 L 372.66 517.97" stroke="white" fill="transparent"/>
	<path d = "M 311.72 468.75 L 300.00 377.34" stroke="white" fill="transparent"/>
	<path d = "M 147.66 431.25 L 175.78 433.59 L 311.72 428.91 L 358.59 433.59" stroke="white" fill="transparent"/>
	<path d = "M 403.12 222.66 L 398.44 255.47 L 407.81 309.38 L 513.28 292.97 L 534.38 281.25 L 536.72 274.22 L 517.97 175.78 L 457.03 210.94 L 414.84 225.00" stroke="white" fill="transparent"/>
	<path d = "M 264.84 180.47 L 246.09 154.69 L 243.75 131.25 L 243.75 9.38" stroke="white" fill="transparent"/>
	<path d = "M 131.25 84.38 L 225.00 84.38 L 300.00 93.75 L 182.81 82.03 L 290.62 93.75 L 330.47 93.75 L 309.38 86.72 L 236.72 84.38" stroke="white" fill="transparent"/>
	<path d = "M 267.19 166.41 L 250.78 42.19 L 255.47 18.75 L 255.47 63.28 L 262.50 86.72" stroke="white" fill="transparent"/>
</svg>