<?xml version="1.0" encoding="UTF-8" standalone="no"?>
<!--Created with ndjsontosvg (https:https://github.com/thompson318/ndjsontosvg) 
	from the simplified Google quickdraw data set. key_id = 4682310710460416-->
<svg width="600" height="600"
	xmlns="http://www.w3.org/2000/svg">
	xmlns:ndjsontosvg="https://github.com/thompson318/ndjsontosvg"
	xmlns:quickdraw="https://quickdraw.withgoogle.com/data"
	xmlns:scikit-surgery="https://doi.org/10.1007/s11548-020-02180-5">

	<rect width="100%" height="100%" fill="black" />
	<path d = "M 344.53 25.78 L 321.09 14.06 L 222.66 0.00 L 114.84 0.00 L 51.56 4.69 L 0.00 25.78 L 18.75 70.31 L 35.16 164.06 L 23.44 358.59 L 35.16 367.97 L 84.38 367.97 L 316.41 323.44 L 595.31 283.59 L 597.66 269.53 L 539.06 140.62 L 464.06 53.91 L 438.28 14.06" stroke="white" fill="transparent"/>
	<path d = "M 262.50 318.75 L 248.44 217.97 L 360.94 196.88 L 372.66 213.28 L 367.97 307.03" stroke="white" fill="transparent"/>
	<path d = "M 316.41 201.56 L 311.72 255.47 L 314.06 297.66" stroke="white" fill="transparent"/>
	<path d = "M 253.12 60.94 L 274.22 32.81 L 276.56 60.94 L 311.72 65.62 L 311.72 82.03 L 288.28 84.38 L 285.94 126.56 L 260.16 121.88 L 253.12 82.03 L 213.28 82.03 L 208.59 53.91 L 248.44 58.59 L 255.47 14.06 L 285.94 28.12 L 283.59 53.91" stroke="white" fill="transparent"/>
</svg>