<?xml version="1.0" encoding="UTF-8" standalone="no"?>
<!--Created with ndjsontosvg (https:https://github.com/thompson318/ndjsontosvg) 
	from the simplified Google quickdraw data set. key_id = 5339378731712512-->
<svg width="600" height="600"
	xmlns="http://www.w3.org/2000/svg">
	xmlns:ndjsontosvg="https://github.com/thompson318/ndjsontosvg"
	xmlns:quickdraw="https://quickdraw.withgoogle.com/data"
	xmlns:scikit-surgery="https://doi.org/10.1007/s11548-020-02180-5">

	<rect width="100%" height="100%" fill="black" />
	<path d = "M 32.81 597.66 L 32.81 478.12 L 11.72 363.28 L 0.00 161.72 L 53.91 171.09 L 321.09 142.97 L 454.69 121.88 L 506.25 121.88 L 513.28 154.69 L 510.94 276.56 L 478.12 454.69 L 478.12 585.94 L 466.41 592.97 L 433.59 578.91 L 382.03 578.91 L 339.84 588.28 L 203.91 590.62 L 103.12 571.88 L 28.12 571.88" stroke="white" fill="transparent"/>
	<path d = "M 217.97 152.34 L 208.59 100.78 L 199.22 96.09 L 147.66 100.78 L 154.69 89.06 L 152.34 70.31 L 206.25 63.28 L 208.59 51.56 L 196.88 32.81 L 199.22 0.00 L 241.41 9.38 L 255.47 53.91 L 276.56 42.19 L 297.66 44.53 L 300.00 86.72 L 260.16 84.38 L 236.72 91.41 L 243.75 150.00" stroke="white" fill="transparent"/>
	<path d = "M 135.94 246.09 L 131.25 335.16 L 222.66 330.47 L 229.69 321.09 L 187.50 234.38 L 131.25 220.31 L 119.53 225.00" stroke="white" fill="transparent"/>
	<path d = "M 353.91 262.50 L 356.25 410.16 L 426.56 384.38 L 428.91 372.66 L 393.75 232.03 L 353.91 229.69 L 344.53 241.41" stroke="white" fill="transparent"/>
	<path d = "M 142.97 389.06 L 152.34 482.81 L 185.16 471.09 L 239.06 471.09 L 246.09 457.03 L 241.41 445.31 L 201.56 367.97 L 189.84 360.94 L 168.75 363.28" stroke="white" fill="transparent"/>
</svg>