<?xml version="1.0" encoding="UTF-8" standalone="no"?>
<!--Created with ndjsontosvg (https:https://github.com/thompson318/ndjsontosvg) 
	from the simplified Google quickdraw data set. key_id = 5018167468359680-->
<svg width="600" height="600"
	xmlns="http://www.w3.org/2000/svg">
	xmlns:ndjsontosvg="https://github.com/thompson318/ndjsontosvg"
	xmlns:quickdraw="https://quickdraw.withgoogle.com/data"
	xmlns:scikit-surgery="https://doi.org/10.1007/s11548-020-02180-5">

	<rect width="100%" height="100%" fill="black" />
	<path d = "M 28.12 311.72 L 18.75 271.88 L 9.38 105.47 L 0.00 49.22 L 2.34 35.16 L 16.41 23.44 L 117.19 4.69 L 203.91 0.00 L 386.72 2.34 L 532.03 16.41 L 567.19 30.47 L 569.53 35.16 L 576.56 248.44 L 597.66 419.53 L 543.75 435.94 L 461.72 440.62 L 194.53 452.34 L 100.78 445.31 L 86.72 438.28 L 70.31 414.84 L 32.81 309.38 L 30.47 285.94" stroke="white" fill="transparent"/>
	<path d = "M 468.75 440.62 L 459.38 407.81 L 461.72 269.53 L 475.78 260.16 L 510.94 260.16 L 527.34 262.50 L 539.06 278.91 L 541.41 391.41 L 557.81 447.66" stroke="white" fill="transparent"/>
	<path d = "M 515.62 365.62 L 515.62 363.28" stroke="white" fill="transparent"/>
	<path d = "M 79.69 154.69 L 79.69 49.22 L 89.06 44.53 L 126.56 44.53 L 138.28 56.25 L 145.31 150.00 L 220.31 142.97 L 225.00 196.88 L 180.47 203.91 L 175.78 208.59 L 173.44 290.62 L 117.19 292.97 L 112.50 217.97 L 39.84 206.25 L 30.47 157.03 L 89.06 142.97" stroke="white" fill="transparent"/>
</svg>