<?xml version="1.0" encoding="UTF-8" standalone="no"?>
<!--Created with ndjsontosvg (https:https://github.com/thompson318/ndjsontosvg) 
	from the simplified Google quickdraw data set. key_id = 5351337644523520-->
<svg width="600" height="600"
	xmlns="http://www.w3.org/2000/svg">
	xmlns:ndjsontosvg="https://github.com/thompson318/ndjsontosvg"
	xmlns:quickdraw="https://quickdraw.withgoogle.com/data"
	xmlns:scikit-surgery="https://doi.org/10.1007/s11548-020-02180-5">

	<rect width="100%" height="100%" fill="black" />
	<path d = "M 93.75 532.03 L 91.41 574.22 L 107.81 597.66 L 164.06 574.22 L 182.81 527.34 L 175.78 485.16 L 180.47 450.00 L 168.75 384.38 L 182.81 281.25 L 171.09 241.41 L 187.50 131.25 L 185.16 67.97 L 161.72 11.72 L 126.56 0.00 L 107.81 18.75 L 98.44 44.53 L 96.09 121.88 L 107.81 185.16 L 96.09 253.12 L 105.47 360.94 L 86.72 442.97 L 96.09 494.53 L 93.75 534.38" stroke="white" fill="transparent"/>
	<path d = "M 185.16 56.25 L 206.25 39.84 L 264.84 37.50 L 300.00 65.62 L 309.38 110.16 L 283.59 192.19 L 288.28 246.09 L 269.53 325.78 L 269.53 426.56 L 262.50 464.06 L 225.00 555.47 L 208.59 576.56 L 185.16 569.53 L 175.78 557.81 L 173.44 541.41" stroke="white" fill="transparent"/>
	<path d = "M 89.06 548.44 L 46.88 571.88 L 37.50 567.19 L 9.38 515.62 L 0.00 480.47 L 11.72 370.31 L 7.03 257.81 L 11.72 206.25 L 51.56 86.72 L 72.66 70.31 L 100.78 72.66" stroke="white" fill="transparent"/>
	<path d = "M 150.00 46.88 L 138.28 82.03 L 159.38 157.03 L 140.62 227.34 L 161.72 295.31 L 135.94 363.28 L 124.22 424.22 L 133.59 459.38 L 126.56 529.69 L 140.62 560.16" stroke="white" fill="transparent"/>
</svg>