<?xml version="1.0" encoding="UTF-8" standalone="no"?>
<!--Created with ndjsontosvg (https:https://github.com/thompson318/ndjsontosvg) 
	from the simplified Google quickdraw data set. key_id = 5131629552992256-->
<svg width="600" height="600"
	xmlns="http://www.w3.org/2000/svg">
	xmlns:ndjsontosvg="https://github.com/thompson318/ndjsontosvg"
	xmlns:quickdraw="https://quickdraw.withgoogle.com/data"
	xmlns:scikit-surgery="https://doi.org/10.1007/s11548-020-02180-5">

	<rect width="100%" height="100%" fill="black" />
	<path d = "M 379.69 412.50 L 349.22 330.47 L 311.72 260.16 L 215.62 119.53 L 180.47 77.34 L 121.88 39.84 L 63.28 25.78 L 49.22 53.91 L 46.88 114.84 L 77.34 189.84 L 192.19 367.97 L 330.47 525.00 L 372.66 555.47 L 412.50 567.19 L 424.22 508.59 L 421.88 468.75 L 372.66 389.06" stroke="white" fill="transparent"/>
	<path d = "M 70.31 7.03 L 28.12 35.16 L 4.69 86.72 L 2.34 168.75 L 32.81 234.38 L 70.31 283.59 L 276.56 496.88 L 400.78 597.66" stroke="white" fill="transparent"/>
	<path d = "M 65.62 4.69 L 75.00 0.00 L 161.72 23.44 L 318.75 105.47 L 391.41 164.06 L 442.97 234.38 L 475.78 307.03 L 485.16 339.84 L 492.19 494.53 L 475.78 539.06 L 447.66 571.88 L 421.88 592.97 L 391.41 595.31" stroke="white" fill="transparent"/>
	<path d = "M 72.66 32.81 L 121.88 70.31 L 126.56 154.69 L 182.81 196.88 L 194.53 215.62 L 196.88 292.97 L 278.91 349.22 L 297.66 367.97 L 309.38 391.41 L 314.06 440.62" stroke="white" fill="transparent"/>
</svg>