<?xml version="1.0" encoding="UTF-8" standalone="no"?>
<!--Created with ndjsontosvg (https:https://github.com/thompson318/ndjsontosvg) 
	from the simplified Google quickdraw data set. key_id = 5060359834566656-->
<svg width="600" height="600"
	xmlns="http://www.w3.org/2000/svg">
	xmlns:ndjsontosvg="https://github.com/thompson318/ndjsontosvg"
	xmlns:quickdraw="https://quickdraw.withgoogle.com/data"
	xmlns:scikit-surgery="https://doi.org/10.1007/s11548-020-02180-5">

	<rect width="100%" height="100%" fill="black" />
	<path d = "M 7.03 344.53 L 4.69 391.41 L 23.44 459.38 L 46.88 515.62 L 60.94 532.03 L 114.84 564.84 L 215.62 592.97 L 274.22 597.66 L 478.12 576.56 L 529.69 550.78 L 564.84 513.28 L 581.25 466.41 L 578.91 421.88 L 557.81 349.22" stroke="white" fill="transparent"/>
	<path d = "M 2.34 342.19 L 131.25 358.59 L 196.88 358.59 L 255.47 346.88 L 351.56 351.56 L 468.75 344.53 L 508.59 351.56 L 555.47 335.16" stroke="white" fill="transparent"/>
	<path d = "M 0.00 323.44 L 93.75 292.97 L 201.56 292.97 L 428.91 260.16 L 517.97 292.97 L 555.47 335.16" stroke="white" fill="transparent"/>
	<path d = "M 185.16 213.28 L 126.56 194.53 L 105.47 180.47 L 93.75 161.72 L 79.69 112.50 L 75.00 63.28 L 82.03 39.84 L 105.47 18.75 L 96.09 4.69 L 79.69 0.00" stroke="white" fill="transparent"/>
	<path d = "M 290.62 173.44 L 232.03 112.50 L 255.47 79.69 L 276.56 30.47 L 253.12 11.72" stroke="white" fill="transparent"/>
	<path d = "M 452.34 152.34 L 353.91 96.09 L 344.53 77.34 L 344.53 44.53 L 353.91 28.12 L 389.06 21.09 L 426.56 30.47 L 431.25 21.09 L 414.84 9.38" stroke="white" fill="transparent"/>
	<path d = "M 553.12 337.50 L 550.78 257.81 L 478.12 267.19" stroke="white" fill="transparent"/>
</svg>