<?xml version="1.0" encoding="UTF-8" standalone="no"?>
<!--Created with ndjsontosvg (https:https://github.com/thompson318/ndjsontosvg) 
	from the simplified Google quickdraw data set. key_id = 6257286907428864-->
<svg width="600" height="600"
	xmlns="http://www.w3.org/2000/svg">
	xmlns:ndjsontosvg="https://github.com/thompson318/ndjsontosvg"
	xmlns:quickdraw="https://quickdraw.withgoogle.com/data"
	xmlns:scikit-surgery="https://doi.org/10.1007/s11548-020-02180-5">

	<rect width="100%" height="100%" fill="black" />
	<path d = "M 468.75 0.00 L 290.62 14.06 L 140.62 39.84 L 58.59 58.59 L 16.41 84.38 L 4.69 98.44 L 0.00 133.59 L 7.03 168.75 L 30.47 185.16 L 124.22 196.88 L 227.34 189.84 L 510.94 142.97 L 569.53 128.91 L 588.28 117.19 L 597.66 96.09 L 585.94 77.34 L 503.91 18.75 L 440.62 2.34" stroke="white" fill="transparent"/>
	<path d = "M 0.00 166.41 L 14.06 253.12 L 16.41 375.00 L 35.16 384.38 L 128.91 384.38 L 241.41 375.00 L 501.56 292.97 L 571.88 311.72 L 564.84 274.22 L 571.88 126.56" stroke="white" fill="transparent"/>
	<path d = "M 421.88 253.12 L 471.09 243.75 L 480.47 262.50 L 473.44 267.19 L 450.00 267.19 L 438.28 253.12" stroke="white" fill="transparent"/>
	<path d = "M 435.94 260.16 L 445.31 304.69 L 466.41 302.34 L 475.78 274.22" stroke="white" fill="transparent"/>
	<path d = "M 107.81 110.16 L 201.56 110.16 L 274.22 96.09 L 330.47 103.12 L 480.47 84.38 L 496.88 77.34" stroke="white" fill="transparent"/>
	<path d = "M 131.25 150.00 L 295.31 135.94 L 442.97 135.94 L 560.16 124.22 L 590.62 112.50" stroke="white" fill="transparent"/>
</svg>