<?xml version="1.0" encoding="UTF-8" standalone="no"?>
<!--Created with ndjsontosvg (https:https://github.com/thompson318/ndjsontosvg) 
	from the simplified Google quickdraw data set. key_id = 5897634130690048-->
<svg width="600" height="600"
	xmlns="http://www.w3.org/2000/svg">
	xmlns:ndjsontosvg="https://github.com/thompson318/ndjsontosvg"
	xmlns:quickdraw="https://quickdraw.withgoogle.com/data"
	xmlns:scikit-surgery="https://doi.org/10.1007/s11548-020-02180-5">

	<rect width="100%" height="100%" fill="black" />
	<path d = "M 0.00 67.97 L 18.75 126.56 L 53.91 185.16 L 96.09 229.69 L 142.97 248.44 L 367.97 262.50 L 550.78 222.66 L 578.91 203.91 L 597.66 164.06 L 592.97 112.50 L 583.59 93.75 L 281.25 53.91 L 93.75 53.91 L 7.03 60.94" stroke="white" fill="transparent"/>
	<path d = "M 46.88 46.88 L 121.88 18.75 L 187.50 9.38 L 363.28 7.03 L 440.62 16.41 L 534.38 39.84 L 543.75 91.41" stroke="white" fill="transparent"/>
	<path d = "M 51.56 53.91 L 51.56 53.91" stroke="white" fill="transparent"/>
	<path d = "M 96.09 23.44 L 110.16 44.53 L 128.91 51.56 L 175.78 0.00 L 196.88 30.47 L 225.00 51.56 L 246.09 60.94 L 264.84 56.25" stroke="white" fill="transparent"/>
</svg>