<?xml version="1.0" encoding="UTF-8" standalone="no"?>
<!--Created with ndjsontosvg (https:https://github.com/thompson318/ndjsontosvg) 
	from the simplified Google quickdraw data set. key_id = 4935826993577984-->
<svg width="600" height="600"
	xmlns="http://www.w3.org/2000/svg">
	xmlns:ndjsontosvg="https://github.com/thompson318/ndjsontosvg"
	xmlns:quickdraw="https://quickdraw.withgoogle.com/data"
	xmlns:scikit-surgery="https://doi.org/10.1007/s11548-020-02180-5">

	<rect width="100%" height="100%" fill="black" />
	<path d = "M 91.41 403.12 L 152.34 403.12 L 281.25 253.12 L 325.78 178.12 L 339.84 142.97 L 346.88 72.66 L 339.84 44.53 L 316.41 25.78 L 248.44 4.69 L 126.56 2.34 L 56.25 35.16 L 18.75 70.31 L 2.34 117.19 L 2.34 196.88 L 77.34 419.53 L 82.03 386.72" stroke="white" fill="transparent"/>
	<path d = "M 107.81 44.53 L 84.38 410.16 L 84.38 419.53 L 91.41 405.47 L 98.44 363.28" stroke="white" fill="transparent"/>
	<path d = "M 253.12 91.41 L 182.81 363.28 L 164.06 396.09" stroke="white" fill="transparent"/>
	<path d = "M 86.72 424.22 L 91.41 452.34" stroke="white" fill="transparent"/>
	<path d = "M 145.31 410.16 L 135.94 468.75" stroke="white" fill="transparent"/>
	<path d = "M 79.69 454.69 L 164.06 468.75 L 161.72 567.19 L 157.03 592.97 L 147.66 597.66 L 32.81 564.84 L 28.12 555.47 L 35.16 508.59 L 53.91 464.06" stroke="white" fill="transparent"/>
</svg>