<?xml version="1.0" encoding="UTF-8" standalone="no"?>
<!--Created with ndjsontosvg (https:https://github.com/thompson318/ndjsontosvg) 
	from the simplified Google quickdraw data set. key_id = 4748368108584960-->
<svg width="600" height="600"
	xmlns="http://www.w3.org/2000/svg">
	xmlns:ndjsontosvg="https://github.com/thompson318/ndjsontosvg"
	xmlns:quickdraw="https://quickdraw.withgoogle.com/data"
	xmlns:scikit-surgery="https://doi.org/10.1007/s11548-020-02180-5">

	<rect width="100%" height="100%" fill="black" />
	<path d = "M 56.25 28.12 L 150.00 23.44 L 185.16 32.81 L 255.47 70.31 L 307.03 119.53 L 332.81 185.16 L 342.19 253.12 L 328.12 292.97 L 274.22 351.56 L 232.03 377.34 L 140.62 349.22 L 44.53 307.03 L 4.69 264.84 L 2.34 232.03 L 46.88 124.22 L 28.12 32.81 L 51.56 0.00 L 84.38 4.69" stroke="white" fill="transparent"/>
	<path d = "M 91.41 330.47 L 103.12 382.03 L 103.12 583.59 L 105.47 597.66 L 112.50 585.94" stroke="white" fill="transparent"/>
	<path d = "M 206.25 377.34 L 217.97 421.88 L 208.59 578.91 L 189.84 592.97 L 86.72 585.94" stroke="white" fill="transparent"/>
	<path d = "M 91.41 529.69 L 220.31 525.00" stroke="white" fill="transparent"/>
</svg>