<?xml version="1.0" encoding="UTF-8" standalone="no"?>
<!--Created with ndjsontosvg (https:https://github.com/thompson318/ndjsontosvg) 
	from the simplified Google quickdraw data set. key_id = 5976578884370432-->
<svg width="600" height="600"
	xmlns="http://www.w3.org/2000/svg">
	xmlns:ndjsontosvg="https://github.com/thompson318/ndjsontosvg"
	xmlns:quickdraw="https://quickdraw.withgoogle.com/data"
	xmlns:scikit-surgery="https://doi.org/10.1007/s11548-020-02180-5">

	<rect width="100%" height="100%" fill="black" />
	<path d = "M 30.47 260.16 L 25.78 253.12 L 9.38 393.75 L 9.38 574.22 L 18.75 588.28 L 42.19 595.31 L 126.56 592.97 L 452.34 501.56 L 560.16 457.03 L 557.81 192.19 L 417.19 196.88" stroke="white" fill="transparent"/>
	<path d = "M 0.00 274.22 L 103.12 246.09 L 86.72 403.12 L 271.88 396.09 L 442.97 379.69 L 475.78 370.31 L 485.16 358.59 L 492.19 328.12 L 485.16 260.16 L 457.03 196.88" stroke="white" fill="transparent"/>
	<path d = "M 77.34 260.16 L 145.31 248.44 L 314.06 243.75 L 525.00 194.53" stroke="white" fill="transparent"/>
	<path d = "M 370.31 119.53 L 309.38 124.22 L 295.31 105.47 L 309.38 82.03 L 346.88 79.69 L 356.25 117.19 L 351.56 133.59" stroke="white" fill="transparent"/>
	<path d = "M 332.81 150.00 L 339.84 260.16 L 332.81 351.56" stroke="white" fill="transparent"/>
	<path d = "M 222.66 260.16 L 220.31 253.12 L 229.69 241.41 L 283.59 203.91 L 344.53 182.81 L 379.69 187.50" stroke="white" fill="transparent"/>
	<path d = "M 257.81 346.88 L 309.38 309.38 L 358.59 300.00 L 412.50 332.81 L 447.66 372.66" stroke="white" fill="transparent"/>
	<path d = "M 103.12 145.31 L 89.06 121.88 L 82.03 91.41 L 89.06 46.88 L 112.50 7.03" stroke="white" fill="transparent"/>
	<path d = "M 412.50 154.69 L 452.34 98.44 L 457.03 75.00 L 454.69 51.56 L 426.56 21.09 L 353.91 0.00" stroke="white" fill="transparent"/>
	<path d = "M 187.50 187.50 L 213.28 131.25 L 217.97 98.44 L 213.28 65.62 L 199.22 49.22" stroke="white" fill="transparent"/>
</svg>