<?xml version="1.0" encoding="UTF-8" standalone="no"?>
<!--Created with ndjsontosvg (https:https://github.com/thompson318/ndjsontosvg) 
	from the simplified Google quickdraw data set. key_id = 6233097706143744-->
<svg width="600" height="600"
	xmlns="http://www.w3.org/2000/svg">
	xmlns:ndjsontosvg="https://github.com/thompson318/ndjsontosvg"
	xmlns:quickdraw="https://quickdraw.withgoogle.com/data"
	xmlns:scikit-surgery="https://doi.org/10.1007/s11548-020-02180-5">

	<rect width="100%" height="100%" fill="black" />
	<path d = "M 147.66 571.88 L 260.16 595.31 L 396.09 595.31 L 405.47 578.91 L 405.47 482.81" stroke="white" fill="transparent"/>
	<path d = "M 405.47 482.81 L 389.06 405.47 L 389.06 365.62 L 466.41 330.47 L 525.00 276.56" stroke="white" fill="transparent"/>
	<path d = "M 525.00 276.56 L 550.78 58.59 L 466.41 30.47 L 405.47 21.09 L 208.59 0.00 L 161.72 7.03 L 32.81 77.34 L 0.00 112.50 L 28.12 206.25 L 60.94 229.69 L 105.47 234.38 L 107.81 239.06 L 133.59 375.00" stroke="white" fill="transparent"/>
	<path d = "M 133.59 375.00 L 128.91 410.16 L 133.59 525.00" stroke="white" fill="transparent"/>
	<path d = "M 133.59 525.00 L 138.28 548.44" stroke="white" fill="transparent"/>
</svg>