<?xml version="1.0" encoding="UTF-8" standalone="no"?>
<!--Created with ndjsontosvg (https:https://github.com/thompson318/ndjsontosvg) 
	from the simplified Google quickdraw data set. key_id = 6061495370645504-->
<svg width="600" height="600"
	xmlns="http://www.w3.org/2000/svg">
	xmlns:ndjsontosvg="https://github.com/thompson318/ndjsontosvg"
	xmlns:quickdraw="https://quickdraw.withgoogle.com/data"
	xmlns:scikit-surgery="https://doi.org/10.1007/s11548-020-02180-5">

	<rect width="100%" height="100%" fill="black" />
	<path d = "M 23.44 232.03 L 187.50 217.97 L 487.50 232.03 L 578.91 220.31 L 597.66 332.81 L 592.97 386.72 L 578.91 421.88 L 53.91 419.53 L 32.81 379.69 L 2.34 288.28 L 0.00 232.03 L 30.47 227.34" stroke="white" fill="transparent"/>
	<path d = "M 30.47 227.34 L 63.28 196.88 L 128.91 196.88 L 166.41 171.09 L 285.94 192.19 L 342.19 210.94 L 377.34 194.53 L 417.19 199.22 L 445.31 217.97 L 485.16 213.28 L 494.53 227.34" stroke="white" fill="transparent"/>
	<path d = "M 138.28 152.34 L 131.25 124.22 L 159.38 86.72 L 145.31 44.53" stroke="white" fill="transparent"/>
	<path d = "M 225.00 58.59 L 215.62 30.47 L 234.38 0.00" stroke="white" fill="transparent"/>
	<path d = "M 332.81 131.25 L 323.44 98.44 L 330.47 60.94" stroke="white" fill="transparent"/>
</svg>