<?xml version="1.0" encoding="UTF-8" standalone="no"?>
<!--Created with ndjsontosvg (https:https://github.com/thompson318/ndjsontosvg) 
	from the simplified Google quickdraw data set. key_id = 5512609774174208-->
<svg width="600" height="600"
	xmlns="http://www.w3.org/2000/svg">
	xmlns:ndjsontosvg="https://github.com/thompson318/ndjsontosvg"
	xmlns:quickdraw="https://quickdraw.withgoogle.com/data"
	xmlns:scikit-surgery="https://doi.org/10.1007/s11548-020-02180-5">

	<rect width="100%" height="100%" fill="black" />
	<path d = "M 206.25 2.34 L 103.12 14.06 L 35.16 35.16 L 14.06 46.88 L 0.00 77.34 L 9.38 124.22 L 93.75 194.53 L 147.66 274.22 L 147.66 292.97 L 107.81 349.22 L 72.66 414.84 L 37.50 508.59 L 37.50 553.12 L 49.22 569.53 L 110.16 588.28 L 185.16 597.66 L 309.38 597.66 L 400.78 583.59 L 426.56 539.06 L 431.25 508.59 L 431.25 459.38 L 407.81 412.50 L 386.72 393.75 L 255.47 328.12 L 227.34 304.69 L 215.62 276.56 L 229.69 246.09 L 323.44 159.38 L 365.62 103.12 L 379.69 70.31 L 379.69 39.84 L 367.97 25.78 L 302.34 4.69 L 194.53 0.00" stroke="white" fill="transparent"/>
	<path d = "M 56.25 496.88 L 145.31 501.56 L 426.56 487.50" stroke="white" fill="transparent"/>
</svg>