<?xml version="1.0" encoding="UTF-8" standalone="no"?>
<!--Created with ndjsontosvg (https:https://github.com/thompson318/ndjsontosvg) 
	from the simplified Google quickdraw data set. key_id = 5041706997121024-->
<svg width="600" height="600"
	xmlns="http://www.w3.org/2000/svg">
	xmlns:ndjsontosvg="https://github.com/thompson318/ndjsontosvg"
	xmlns:quickdraw="https://quickdraw.withgoogle.com/data"
	xmlns:scikit-surgery="https://doi.org/10.1007/s11548-020-02180-5">

	<rect width="100%" height="100%" fill="black" />
	<path d = "M 96.09 271.88 L 63.28 269.53 L 46.88 260.16 L 28.12 248.44 L 4.69 208.59 L 0.00 9.38 L 25.78 0.00 L 250.78 2.34 L 248.44 142.97 L 239.06 182.81 L 213.28 234.38 L 185.16 257.81" stroke="white" fill="transparent"/>
	<path d = "M 110.16 281.25 L 105.47 295.31 L 32.81 377.34 L 16.41 410.16 L 11.72 501.56 L 21.09 597.66 L 89.06 571.88 L 210.94 553.12 L 222.66 539.06 L 239.06 473.44 L 250.78 325.78 L 241.41 309.38 L 192.19 290.62" stroke="white" fill="transparent"/>
	<path d = "M 178.12 283.59 L 178.12 267.19" stroke="white" fill="transparent"/>
	<path d = "M 16.41 147.66 L 63.28 124.22 L 225.00 128.91" stroke="white" fill="transparent"/>
	<path d = "M 135.94 260.16 L 133.59 311.72 L 140.62 339.84" stroke="white" fill="transparent"/>
	<path d = "M 135.94 236.72 L 145.31 302.34" stroke="white" fill="transparent"/>
</svg>