<?xml version="1.0" encoding="UTF-8" standalone="no"?>
<!--Created with ndjsontosvg (https:https://github.com/thompson318/ndjsontosvg) 
	from the simplified Google quickdraw data set. key_id = 4852726187950080-->
<svg width="600" height="600"
	xmlns="http://www.w3.org/2000/svg">
	xmlns:ndjsontosvg="https://github.com/thompson318/ndjsontosvg"
	xmlns:quickdraw="https://quickdraw.withgoogle.com/data"
	xmlns:scikit-surgery="https://doi.org/10.1007/s11548-020-02180-5">

	<rect width="100%" height="100%" fill="black" />
	<path d = "M 171.09 166.41 L 150.00 210.94 L 126.56 288.28 L 147.66 309.38 L 185.16 318.75 L 321.09 323.44 L 372.66 318.75 L 396.09 307.03 L 407.81 283.59 L 410.16 171.09 L 384.38 161.72 L 330.47 175.78" stroke="white" fill="transparent"/>
	<path d = "M 351.56 178.12 L 178.12 173.44 L 173.44 178.12 L 182.81 194.53 L 227.34 206.25 L 382.03 208.59 L 400.78 199.22 L 412.50 187.50" stroke="white" fill="transparent"/>
	<path d = "M 260.16 194.53 L 264.84 138.28 L 248.44 110.16 L 222.66 91.41 L 164.06 82.03 L 138.28 91.41 L 110.16 114.84 L 28.12 217.97" stroke="white" fill="transparent"/>
	<path d = "M 267.19 182.81 L 269.53 135.94 L 290.62 91.41 L 396.09 32.81 L 457.03 9.38 L 525.00 0.00 L 597.66 16.41" stroke="white" fill="transparent"/>
	<path d = "M 403.12 32.81 L 400.78 75.00 L 389.06 103.12 L 351.56 154.69 L 365.62 157.03 L 438.28 124.22 L 459.38 100.78 L 473.44 56.25 L 459.38 18.75" stroke="white" fill="transparent"/>
	<path d = "M 187.50 89.06 L 168.75 63.28 L 110.16 32.81 L 65.62 28.12 L 0.00 49.22" stroke="white" fill="transparent"/>
	<path d = "M 96.09 135.94 L 67.97 131.25 L 37.50 112.50 L 21.09 84.38 L 18.75 39.84" stroke="white" fill="transparent"/>
	<path d = "M 25.78 49.22 L 53.91 63.28 L 145.31 131.25" stroke="white" fill="transparent"/>
	<path d = "M 424.22 25.78 L 424.22 25.78" stroke="white" fill="transparent"/>
</svg>