<?xml version="1.0" encoding="UTF-8" standalone="no"?>
<!--Created with ndjsontosvg (https:https://github.com/thompson318/ndjsontosvg) 
	from the simplified Google quickdraw data set. key_id = 4702923999150080-->
<svg width="600" height="600"
	xmlns="http://www.w3.org/2000/svg">
	xmlns:ndjsontosvg="https://github.com/thompson318/ndjsontosvg"
	xmlns:quickdraw="https://quickdraw.withgoogle.com/data"
	xmlns:scikit-surgery="https://doi.org/10.1007/s11548-020-02180-5">

	<rect width="100%" height="100%" fill="black" />
	<path d = "M 35.16 375.00 L 75.00 532.03 L 339.84 597.66 L 426.56 400.78 L 403.12 389.06 L 180.47 346.88 L 32.81 325.78 L 0.00 325.78" stroke="white" fill="transparent"/>
	<path d = "M 189.84 349.22 L 210.94 302.34 L 213.28 215.62 L 241.41 77.34" stroke="white" fill="transparent"/>
	<path d = "M 220.31 213.28 L 239.06 215.62 L 253.12 229.69 L 257.81 239.06 L 236.72 243.75" stroke="white" fill="transparent"/>
	<path d = "M 236.72 243.75 L 215.62 243.75" stroke="white" fill="transparent"/>
	<path d = "M 225.00 124.22 L 180.47 131.25 L 164.06 138.28 L 154.69 152.34 L 164.06 159.38 L 229.69 159.38" stroke="white" fill="transparent"/>
	<path d = "M 241.41 75.00 L 220.31 65.62 L 201.56 42.19 L 206.25 32.81 L 253.12 0.00 L 271.88 14.06 L 274.22 44.53 L 241.41 77.34 L 276.56 93.75 L 304.69 96.09 L 307.03 70.31 L 281.25 58.59 L 288.28 49.22 L 307.03 44.53" stroke="white" fill="transparent"/>
</svg>