<?xml version="1.0" encoding="UTF-8" standalone="no"?>
<!--Created with ndjsontosvg (https:https://github.com/thompson318/ndjsontosvg) 
	from the simplified Google quickdraw data set. key_id = 6696264261435392-->
<svg width="600" height="600"
	xmlns="http://www.w3.org/2000/svg">
	xmlns:ndjsontosvg="https://github.com/thompson318/ndjsontosvg"
	xmlns:quickdraw="https://quickdraw.withgoogle.com/data"
	xmlns:scikit-surgery="https://doi.org/10.1007/s11548-020-02180-5">

	<rect width="100%" height="100%" fill="black" />
	<path d = "M 11.72 372.66 L 210.94 349.22 L 248.44 351.56 L 271.88 363.28 L 278.91 405.47 L 260.16 564.84 L 243.75 583.59 L 199.22 595.31 L 67.97 595.31 L 42.19 590.62 L 23.44 576.56 L 9.38 550.78 L 4.69 510.94 L 0.00 417.19 L 4.69 382.03 L 82.03 520.31 L 107.81 543.75 L 131.25 548.44 L 196.88 506.25 L 271.88 346.88" stroke="white" fill="transparent"/>
	<path d = "M 114.84 365.62 L 100.78 323.44 L 96.09 89.06 L 98.44 46.88 L 117.19 23.44 L 140.62 77.34 L 147.66 110.16 L 145.31 365.62" stroke="white" fill="transparent"/>
	<path d = "M 121.88 65.62 L 164.06 35.16 L 194.53 0.00 L 196.88 30.47 L 173.44 98.44 L 152.34 142.97 L 159.38 142.97 L 213.28 96.09 L 267.19 23.44 L 217.97 128.91 L 154.69 225.00 L 150.00 234.38 L 159.38 236.72 L 210.94 206.25 L 330.47 89.06 L 152.34 302.34 L 150.00 307.03 L 159.38 311.72 L 203.91 283.59" stroke="white" fill="transparent"/>
	<path d = "M 77.34 84.38 L 37.50 58.59 L 4.69 23.44 L 16.41 39.84 L 49.22 166.41 L 93.75 217.97 L 28.12 192.19" stroke="white" fill="transparent"/>
</svg>