<?xml version="1.0" encoding="UTF-8" standalone="no"?>
<!--Created with ndjsontosvg (https:https://github.com/thompson318/ndjsontosvg) 
	from the simplified Google quickdraw data set. key_id = 6015255484301312-->
<svg width="600" height="600"
	xmlns="http://www.w3.org/2000/svg">
	xmlns:ndjsontosvg="https://github.com/thompson318/ndjsontosvg"
	xmlns:quickdraw="https://quickdraw.withgoogle.com/data"
	xmlns:scikit-surgery="https://doi.org/10.1007/s11548-020-02180-5">

	<rect width="100%" height="100%" fill="black" />
	<path d = "M 39.84 346.88 L 67.97 414.84 L 114.84 571.88 L 309.38 597.66 L 396.09 595.31 L 382.03 510.94 L 386.72 468.75 L 454.69 353.91 L 393.75 342.19 L 189.84 337.50 L 58.59 323.44 L 0.00 330.47" stroke="white" fill="transparent"/>
	<path d = "M 192.19 321.09 L 213.28 208.59 L 206.25 25.78" stroke="white" fill="transparent"/>
	<path d = "M 199.22 145.31 L 159.38 96.09 L 145.31 56.25 L 150.00 46.88 L 164.06 51.56 L 178.12 103.12 L 199.22 131.25" stroke="white" fill="transparent"/>
	<path d = "M 215.62 98.44 L 285.94 11.72 L 300.00 0.00 L 304.69 9.38 L 239.06 107.81 L 201.56 124.22" stroke="white" fill="transparent"/>
	<path d = "M 201.56 215.62 L 126.56 168.75 L 77.34 154.69 L 89.06 173.44" stroke="white" fill="transparent"/>
</svg>