<?xml version="1.0" encoding="UTF-8" standalone="no"?>
<!--Created with ndjsontosvg (https:https://github.com/thompson318/ndjsontosvg) 
	from the simplified Google quickdraw data set. key_id = 4972729352585216-->
<svg width="600" height="600"
	xmlns="http://www.w3.org/2000/svg">
	xmlns:ndjsontosvg="https://github.com/thompson318/ndjsontosvg"
	xmlns:quickdraw="https://quickdraw.withgoogle.com/data"
	xmlns:scikit-surgery="https://doi.org/10.1007/s11548-020-02180-5">

	<rect width="100%" height="100%" fill="black" />
	<path d = "M 11.72 37.50 L 103.12 72.66 L 239.06 93.75 L 365.62 89.06 L 391.41 77.34 L 400.78 63.28 L 400.78 49.22 L 379.69 32.81 L 351.56 18.75 L 295.31 4.69 L 75.00 0.00 L 30.47 7.03" stroke="white" fill="transparent"/>
	<path d = "M 7.03 53.91 L 2.34 75.00 L 28.12 103.12 L 72.66 131.25 L 133.59 157.03 L 201.56 168.75 L 346.88 173.44 L 363.28 164.06 L 358.59 152.34 L 300.00 128.91 L 220.31 121.88 L 133.59 121.88 L 70.31 142.97" stroke="white" fill="transparent"/>
	<path d = "M 51.56 164.06 L 65.62 187.50 L 121.88 227.34 L 189.84 248.44 L 304.69 255.47 L 353.91 248.44 L 370.31 232.03 L 173.44 229.69 L 79.69 246.09" stroke="white" fill="transparent"/>
	<path d = "M 157.03 257.81 L 178.12 281.25 L 213.28 300.00 L 290.62 307.03 L 283.59 297.66 L 203.91 300.00 L 138.28 330.47" stroke="white" fill="transparent"/>
	<path d = "M 196.88 344.53 L 295.31 353.91 L 278.91 346.88 L 220.31 349.22 L 180.47 382.03" stroke="white" fill="transparent"/>
	<path d = "M 215.62 386.72 L 278.91 407.81 L 232.03 428.91 L 220.31 440.62 L 241.41 473.44 L 248.44 517.97 L 257.81 529.69 L 330.47 562.50 L 367.97 597.66" stroke="white" fill="transparent"/>
</svg>