<?xml version="1.0" encoding="UTF-8" standalone="no"?>
<!--Created with ndjsontosvg (https:https://github.com/thompson318/ndjsontosvg) 
	from the simplified Google quickdraw data set. key_id = 5532027589754880-->
<svg width="600" height="600"
	xmlns="http://www.w3.org/2000/svg">
	xmlns:ndjsontosvg="https://github.com/thompson318/ndjsontosvg"
	xmlns:quickdraw="https://quickdraw.withgoogle.com/data"
	xmlns:scikit-surgery="https://doi.org/10.1007/s11548-020-02180-5">

	<rect width="100%" height="100%" fill="black" />
	<path d = "M 14.06 239.06 L 70.31 180.47 L 278.91 114.84 L 464.06 91.41 L 576.56 93.75 L 588.28 105.47 L 581.25 138.28 L 487.50 232.03 L 403.12 267.19 L 288.28 285.94 L 25.78 248.44 L 11.72 236.72 L 32.81 166.41 L 70.31 131.25 L 208.59 77.34 L 393.75 58.59 L 454.69 63.28 L 532.03 100.78 L 541.41 119.53 L 513.28 185.16 L 391.41 227.34 L 194.53 257.81 L 37.50 253.12 L 14.06 236.72 L 44.53 196.88 L 192.19 119.53 L 407.81 44.53 L 508.59 23.44 L 597.66 28.12 L 597.66 89.06 L 555.47 161.72 L 482.81 187.50 L 44.53 208.59 L 30.47 196.88 L 112.50 86.72 L 396.09 0.00 L 539.06 187.50 L 171.09 285.94 L 0.00 290.62 L 152.34 213.28 L 525.00 98.44 L 426.56 164.06 L 581.25 135.94 L 501.56 220.31 L 321.09 304.69 L 206.25 339.84 L 257.81 302.34 L 496.88 203.91 L 215.62 330.47 L 246.09 311.72 L 562.50 194.53 L 597.66 142.97 L 541.41 227.34 L 433.59 363.28 L 304.69 393.75 L 536.72 250.78" stroke="white" fill="transparent"/>
</svg>