<?xml version="1.0" encoding="UTF-8" standalone="no"?>
<!--Created with ndjsontosvg (https:https://github.com/thompson318/ndjsontosvg) 
	from the simplified Google quickdraw data set. key_id = 5122393053855744-->
<svg width="600" height="600"
	xmlns="http://www.w3.org/2000/svg">
	xmlns:ndjsontosvg="https://github.com/thompson318/ndjsontosvg"
	xmlns:quickdraw="https://quickdraw.withgoogle.com/data"
	xmlns:scikit-surgery="https://doi.org/10.1007/s11548-020-02180-5">

	<rect width="100%" height="100%" fill="black" />
	<path d = "M 351.56 131.25 L 412.50 126.56 L 433.59 131.25 L 440.62 147.66 L 428.91 164.06 L 400.78 187.50 L 370.31 194.53 L 344.53 189.84 L 300.00 164.06 L 288.28 126.56 L 300.00 100.78 L 346.88 79.69 L 386.72 82.03 L 475.78 112.50 L 496.88 135.94 L 503.91 161.72 L 478.12 217.97 L 447.66 229.69 L 389.06 236.72 L 250.78 217.97 L 206.25 189.84 L 199.22 178.12 L 203.91 142.97 L 217.97 103.12 L 241.41 65.62 L 276.56 39.84 L 367.97 9.38 L 459.38 16.41 L 520.31 32.81 L 539.06 49.22 L 590.62 119.53 L 597.66 185.16 L 583.59 229.69 L 527.34 300.00 L 466.41 318.75 L 274.22 332.81 L 150.00 316.41 L 91.41 300.00 L 32.81 276.56 L 14.06 260.16 L 0.00 220.31 L 7.03 171.09 L 32.81 126.56 L 96.09 51.56 L 145.31 30.47 L 248.44 2.34 L 321.09 0.00 L 382.03 14.06 L 534.38 93.75 L 543.75 105.47" stroke="white" fill="transparent"/>
</svg>