<?xml version="1.0" encoding="UTF-8" standalone="no"?>
<!--Created with ndjsontosvg (https:https://github.com/thompson318/ndjsontosvg) 
	from the simplified Google quickdraw data set. key_id = 5546309597528064-->
<svg width="600" height="600"
	xmlns="http://www.w3.org/2000/svg">
	xmlns:ndjsontosvg="https://github.com/thompson318/ndjsontosvg"
	xmlns:quickdraw="https://quickdraw.withgoogle.com/data"
	xmlns:scikit-surgery="https://doi.org/10.1007/s11548-020-02180-5">

	<rect width="100%" height="100%" fill="black" />
	<path d = "M 16.41 220.31 L 185.16 215.62 L 210.94 222.66 L 239.06 246.09 L 239.06 300.00 L 264.84 318.75" stroke="white" fill="transparent"/>
	<path d = "M 260.16 285.94 L 318.75 227.34 L 325.78 250.78 L 344.53 255.47 L 379.69 227.34 L 377.34 236.72 L 389.06 239.06 L 431.25 220.31 L 438.28 248.44 L 487.50 222.66 L 513.28 234.38 L 527.34 232.03 L 550.78 213.28 L 597.66 222.66" stroke="white" fill="transparent"/>
	<path d = "M 382.03 70.31 L 400.78 70.31" stroke="white" fill="transparent"/>
	<path d = "M 461.72 35.16 L 332.81 23.44 L 290.62 28.12 L 253.12 44.53 L 271.88 58.59 L 391.41 56.25 L 506.25 35.16 L 473.44 11.72 L 440.62 2.34 L 370.31 0.00 L 304.69 21.09 L 271.88 49.22 L 276.56 63.28 L 337.50 77.34 L 440.62 77.34 L 332.81 70.31 L 292.97 79.69 L 264.84 96.09 L 344.53 105.47 L 454.69 103.12 L 353.91 107.81 L 278.91 131.25 L 349.22 142.97 L 426.56 140.62 L 349.22 140.62 L 276.56 154.69 L 389.06 168.75 L 290.62 180.47 L 255.47 194.53 L 292.97 203.91 L 386.72 210.94 L 262.50 203.91 L 363.28 229.69 L 248.44 229.69 L 339.84 241.41 L 297.66 239.06 L 349.22 250.78" stroke="white" fill="transparent"/>
	<path d = "M 330.47 49.22 L 234.38 46.88 L 96.09 79.69 L 344.53 82.03 L 382.03 77.34 L 328.12 67.97 L 227.34 70.31 L 157.03 93.75 L 417.19 96.09 L 243.75 98.44 L 192.19 110.16 L 363.28 140.62 L 281.25 145.31 L 217.97 159.38 L 290.62 175.78" stroke="white" fill="transparent"/>
</svg>