<?xml version="1.0" encoding="UTF-8" standalone="no"?>
<!--Created with ndjsontosvg (https:https://github.com/thompson318/ndjsontosvg) 
	from the simplified Google quickdraw data set. key_id = 5644169575923712-->
<svg width="600" height="600"
	xmlns="http://www.w3.org/2000/svg">
	xmlns:ndjsontosvg="https://github.com/thompson318/ndjsontosvg"
	xmlns:quickdraw="https://quickdraw.withgoogle.com/data"
	xmlns:scikit-surgery="https://doi.org/10.1007/s11548-020-02180-5">

	<rect width="100%" height="100%" fill="black" />
	<path d = "M 468.75 480.47 L 447.66 492.19 L 346.88 522.66 L 250.78 532.03 L 255.47 515.62 L 332.81 499.22 L 473.44 496.88 L 471.09 513.28 L 316.41 520.31 L 271.88 508.59 L 255.47 492.19 L 278.91 471.09 L 447.66 464.06 L 433.59 471.09 L 217.97 466.41 L 150.00 440.62 L 138.28 424.22 L 138.28 407.81 L 168.75 386.72 L 220.31 367.97 L 377.34 363.28 L 440.62 375.00 L 445.31 386.72 L 414.84 396.09 L 215.62 393.75 L 89.06 363.28 L 110.16 342.19 L 173.44 335.16 L 403.12 332.81 L 541.41 363.28 L 482.81 365.62 L 410.16 358.59 L 314.06 344.53 L 227.34 323.44 L 107.81 285.94 L 75.00 264.84 L 60.94 241.41 L 60.94 215.62 L 100.78 189.84 L 171.09 171.09 L 248.44 159.38 L 386.72 159.38 L 480.47 187.50 L 494.53 201.56 L 487.50 215.62 L 375.00 234.38 L 72.66 234.38 L 2.34 217.97 L 23.44 192.19 L 166.41 173.44 L 454.69 178.12 L 595.31 201.56 L 414.84 194.53 L 135.94 152.34 L 16.41 128.91 L 0.00 117.19 L 9.38 100.78 L 86.72 77.34 L 175.78 65.62 L 274.22 58.59 L 468.75 58.59 L 534.38 67.97 L 597.66 98.44 L 597.66 114.84 L 546.09 126.56 L 283.59 135.94 L 114.84 105.47 L 37.50 70.31 L 32.81 53.91 L 49.22 28.12 L 112.50 9.38 L 201.56 0.00 L 386.72 0.00 L 569.53 30.47 L 585.94 37.50 L 569.53 46.88 L 4.69 65.62 L 262.50 46.88 L 379.69 46.88" stroke="white" fill="transparent"/>
</svg>