<?xml version="1.0" encoding="UTF-8" standalone="no"?>
<!--Created with ndjsontosvg (https:https://github.com/thompson318/ndjsontosvg) 
	from the simplified Google quickdraw data set. key_id = 6284212208402432-->
<svg width="600" height="600"
	xmlns="http://www.w3.org/2000/svg">
	xmlns:ndjsontosvg="https://github.com/thompson318/ndjsontosvg"
	xmlns:quickdraw="https://quickdraw.withgoogle.com/data"
	xmlns:scikit-surgery="https://doi.org/10.1007/s11548-020-02180-5">

	<rect width="100%" height="100%" fill="black" />
	<path d = "M 571.88 2.34 L 398.44 0.00 L 243.75 18.75 L 114.84 58.59 L 49.22 96.09 L 25.78 119.53 L 25.78 131.25 L 91.41 135.94 L 192.19 110.16 L 302.34 89.06 L 489.84 67.97 L 529.69 60.94 L 548.44 49.22 L 546.09 35.16 L 510.94 16.41 L 412.50 0.00 L 283.59 0.00 L 154.69 23.44 L 65.62 63.28 L 18.75 98.44 L 0.00 119.53 L 0.00 133.59 L 37.50 138.28 L 375.00 103.12 L 567.19 103.12 L 325.78 98.44 L 194.53 112.50 L 67.97 164.06 L 56.25 178.12 L 107.81 185.16 L 194.53 185.16 L 302.34 171.09 L 508.59 166.41 L 316.41 182.81 L 217.97 206.25 L 117.19 248.44 L 110.16 260.16 L 133.59 264.84 L 253.12 267.19 L 325.78 250.78 L 330.47 241.41 L 283.59 241.41 L 236.72 250.78 L 187.50 276.56 L 178.12 290.62 L 213.28 302.34 L 288.28 314.06 L 461.72 321.09 L 356.25 304.69 L 236.72 307.03 L 189.84 318.75 L 161.72 335.16 L 178.12 353.91 L 323.44 389.06 L 410.16 400.78 L 206.25 407.81" stroke="white" fill="transparent"/>
	<path d = "M 199.22 410.16 L 232.03 428.91 L 337.50 459.38 L 391.41 452.34" stroke="white" fill="transparent"/>
	<path d = "M 351.56 485.16 L 220.31 473.44 L 208.59 485.16 L 217.97 499.22 L 281.25 546.09 L 309.38 595.31 L 288.28 597.66 L 520.31 178.12" stroke="white" fill="transparent"/>
</svg>