<?xml version="1.0" encoding="UTF-8" standalone="no"?>
<!--Created with ndjsontosvg (https:https://github.com/thompson318/ndjsontosvg) 
	from the simplified Google quickdraw data set. key_id = 4740556372574208-->
<svg width="600" height="600"
	xmlns="http://www.w3.org/2000/svg">
	xmlns:ndjsontosvg="https://github.com/thompson318/ndjsontosvg"
	xmlns:quickdraw="https://quickdraw.withgoogle.com/data"
	xmlns:scikit-surgery="https://doi.org/10.1007/s11548-020-02180-5">

	<rect width="100%" height="100%" fill="black" />
	<path d = "M 330.47 574.22 L 225.00 517.97 L 121.88 435.94 L 79.69 382.03 L 35.16 281.25 L 4.69 236.72 L 0.00 180.47 L 9.38 124.22 L 51.56 58.59 L 86.72 25.78 L 100.78 14.06 L 206.25 0.00 L 311.72 0.00 L 377.34 21.09 L 194.53 173.44 L 257.81 131.25 L 300.00 131.25 L 353.91 159.38 L 372.66 199.22 L 377.34 257.81 L 358.59 292.97 L 328.12 321.09 L 307.03 332.81 L 253.12 335.16 L 210.94 311.72 L 180.47 281.25 L 147.66 229.69 L 142.97 173.44 L 152.34 124.22 L 185.16 103.12 L 288.28 107.81 L 403.12 166.41 L 466.41 208.59 L 482.81 241.41 L 482.81 271.88 L 466.41 304.69 L 421.88 360.94 L 375.00 403.12 L 344.53 403.12 L 276.56 426.56 L 208.59 435.94 L 171.09 435.94 L 107.81 410.16 L 79.69 389.06 L 39.84 339.84 L 23.44 281.25 L 23.44 225.00 L 35.16 199.22 L 100.78 133.59 L 316.41 133.59 L 363.28 147.66 L 464.06 189.84 L 532.03 236.72 L 555.47 253.12 L 592.97 330.47 L 597.66 375.00 L 571.88 454.69 L 351.56 171.09 L 372.66 168.75 L 433.59 239.06 L 442.97 304.69 L 414.84 346.88 L 386.72 370.31 L 360.94 379.69 L 309.38 391.41 L 199.22 391.41 L 159.38 375.00 L 133.59 332.81 L 131.25 297.66 L 131.25 260.16 L 142.97 229.69 L 178.12 192.19 L 241.41 192.19 L 292.97 199.22 L 414.84 264.84 L 428.91 288.28 L 428.91 311.72 L 367.97 353.91 L 302.34 360.94 L 288.28 353.91 L 278.91 325.78 L 283.59 288.28" stroke="white" fill="transparent"/>
</svg>