<?xml version="1.0" encoding="UTF-8" standalone="no"?>
<!--Created with ndjsontosvg (https:https://github.com/thompson318/ndjsontosvg) 
	from the simplified Google quickdraw data set. key_id = 6678681751650304-->
<svg width="600" height="600"
	xmlns="http://www.w3.org/2000/svg">
	xmlns:ndjsontosvg="https://github.com/thompson318/ndjsontosvg"
	xmlns:quickdraw="https://quickdraw.withgoogle.com/data"
	xmlns:scikit-surgery="https://doi.org/10.1007/s11548-020-02180-5">

	<rect width="100%" height="100%" fill="black" />
	<path d = "M 44.53 28.12 L 91.41 7.03 L 161.72 0.00 L 248.44 11.72 L 292.97 32.81 L 281.25 39.84 L 227.34 42.19 L 16.41 39.84 L 225.00 65.62 L 325.78 91.41 L 297.66 98.44 L 96.09 100.78 L 0.00 119.53 L 241.41 105.47 L 290.62 110.16 L 321.09 121.88 L 325.78 128.91 L 316.41 135.94 L 285.94 147.66 L 145.31 168.75 L 67.97 187.50 L 77.34 196.88 L 105.47 206.25 L 269.53 234.38 L 142.97 227.34 L 164.06 248.44 L 234.38 288.28 L 159.38 276.56 L 185.16 316.41 L 232.03 358.59" stroke="white" fill="transparent"/>
	<path d = "M 515.62 98.44 L 379.69 107.81 L 574.22 131.25 L 438.28 152.34 L 550.78 171.09 L 597.66 187.50 L 520.31 203.91 L 480.47 203.91" stroke="white" fill="transparent"/>
</svg>