<?xml version="1.0" encoding="UTF-8" standalone="no"?>
<!--Created with ndjsontosvg (https:https://github.com/thompson318/ndjsontosvg) 
	from the simplified Google quickdraw data set. key_id = 5214538607624192-->
<svg width="600" height="600"
	xmlns="http://www.w3.org/2000/svg">
	xmlns:ndjsontosvg="https://github.com/thompson318/ndjsontosvg"
	xmlns:quickdraw="https://quickdraw.withgoogle.com/data"
	xmlns:scikit-surgery="https://doi.org/10.1007/s11548-020-02180-5">

	<rect width="100%" height="100%" fill="black" />
	<path d = "M 63.28 96.09 L 63.28 79.69 L 79.69 60.94 L 138.28 25.78 L 187.50 9.38 L 285.94 0.00 L 351.56 4.69 L 405.47 21.09 L 442.97 44.53 L 468.75 89.06 L 471.09 119.53 L 461.72 147.66 L 407.81 182.81 L 311.72 210.94 L 75.00 257.81 L 28.12 260.16 L 2.34 234.38 L 0.00 178.12 L 18.75 133.59 L 53.91 86.72 L 79.69 63.28 L 147.66 30.47 L 217.97 14.06 L 292.97 11.72 L 351.56 21.09 L 403.12 44.53 L 424.22 70.31 L 426.56 105.47 L 391.41 135.94 L 332.81 166.41 L 262.50 182.81 L 196.88 189.84 L 152.34 185.16 L 119.53 152.34 L 124.22 121.88 L 138.28 105.47 L 178.12 82.03 L 248.44 77.34 L 271.88 86.72 L 300.00 112.50 L 314.06 152.34 L 314.06 175.78 L 283.59 227.34 L 210.94 278.91 L 166.41 292.97 L 128.91 292.97 L 110.16 274.22 L 110.16 248.44 L 138.28 217.97 L 173.44 196.88 L 225.00 189.84 L 243.75 194.53 L 271.88 217.97 L 292.97 253.12 L 295.31 311.72 L 250.78 367.97 L 203.91 398.44 L 154.69 414.84 L 126.56 417.19 L 121.88 393.75 L 161.72 358.59 L 234.38 351.56 L 283.59 382.03 L 311.72 421.88 L 311.72 454.69 L 302.34 473.44 L 255.47 513.28 L 206.25 529.69 L 178.12 529.69 L 168.75 517.97 L 171.09 492.19 L 194.53 466.41 L 232.03 459.38 L 271.88 485.16 L 288.28 510.94 L 288.28 532.03 L 281.25 548.44 L 248.44 574.22 L 196.88 597.66" stroke="white" fill="transparent"/>
</svg>