<?xml version="1.0" encoding="UTF-8" standalone="no"?>
<!--Created with ndjsontosvg (https:https://github.com/thompson318/ndjsontosvg) 
	from the simplified Google quickdraw data set. key_id = 6049082193739776-->
<svg width="600" height="600"
	xmlns="http://www.w3.org/2000/svg">
	xmlns:ndjsontosvg="https://github.com/thompson318/ndjsontosvg"
	xmlns:quickdraw="https://quickdraw.withgoogle.com/data"
	xmlns:scikit-surgery="https://doi.org/10.1007/s11548-020-02180-5">

	<rect width="100%" height="100%" fill="black" />
	<path d = "M 288.28 18.75 L 157.03 16.41 L 107.81 28.12 L 28.12 70.31 L 0.00 112.50 L 21.09 126.56 L 63.28 133.59 L 189.84 112.50 L 260.16 82.03 L 288.28 58.59 L 295.31 39.84 L 253.12 25.78 L 201.56 30.47 L 98.44 67.97 L 51.56 110.16 L 28.12 159.38 L 65.62 164.06 L 121.88 157.03 L 278.91 110.16 L 300.00 93.75 L 234.38 98.44 L 168.75 124.22 L 117.19 175.78 L 98.44 215.62 L 142.97 222.66 L 180.47 215.62 L 281.25 173.44 L 321.09 152.34 L 321.09 145.31 L 281.25 152.34 L 222.66 185.16 L 203.91 220.31 L 206.25 241.41 L 255.47 241.41 L 304.69 217.97 L 302.34 210.94 L 267.19 213.28 L 234.38 227.34 L 199.22 269.53 L 185.16 307.03 L 196.88 316.41 L 234.38 309.38 L 295.31 267.19 L 260.16 309.38 L 234.38 384.38 L 243.75 389.06 L 274.22 384.38 L 309.38 349.22 L 290.62 396.09 L 285.94 452.34 L 288.28 459.38 L 297.66 461.72 L 332.81 433.59 L 318.75 447.66 L 309.38 480.47 L 304.69 541.41 L 318.75 553.12 L 330.47 543.75 L 360.94 487.50 L 358.59 562.50 L 377.34 534.38 L 367.97 529.69 L 360.94 546.09 L 356.25 590.62 L 363.28 597.66 L 382.03 581.25" stroke="white" fill="transparent"/>
	<path d = "M 457.03 23.44 L 454.69 16.41 L 431.25 7.03 L 384.38 16.41 L 372.66 30.47 L 365.62 84.38 L 375.00 93.75 L 384.38 82.03 L 384.38 75.00 L 363.28 77.34 L 332.81 128.91 L 332.81 164.06 L 372.66 173.44 L 407.81 166.41 L 433.59 147.66 L 452.34 117.19 L 459.38 117.19 L 466.41 133.59 L 468.75 28.12 L 461.72 2.34" stroke="white" fill="transparent"/>
	<path d = "M 382.03 173.44 L 360.94 199.22 L 339.84 278.91 L 412.50 269.53 L 356.25 386.72 L 426.56 318.75 L 459.38 260.16 L 459.38 241.41 L 400.78 236.72" stroke="white" fill="transparent"/>
</svg>