<?xml version="1.0" encoding="UTF-8" standalone="no"?>
<!--Created with ndjsontosvg (https:https://github.com/thompson318/ndjsontosvg) 
	from the simplified Google quickdraw data set. key_id = 5287139895934976-->
<svg width="600" height="600"
	xmlns="http://www.w3.org/2000/svg">
	xmlns:ndjsontosvg="https://github.com/thompson318/ndjsontosvg"
	xmlns:quickdraw="https://quickdraw.withgoogle.com/data"
	xmlns:scikit-surgery="https://doi.org/10.1007/s11548-020-02180-5">

	<rect width="100%" height="100%" fill="black" />
	<path d = "M 243.75 112.50 L 487.50 91.41 L 513.28 77.34 L 508.59 60.94 L 452.34 51.56 L 157.03 56.25 L 124.22 72.66 L 121.88 93.75 L 145.31 117.19 L 199.22 147.66 L 295.31 168.75 L 499.22 171.09 L 536.72 166.41 L 581.25 147.66 L 588.28 138.28 L 590.62 114.84 L 553.12 75.00 L 442.97 35.16 L 384.38 21.09 L 192.19 0.00 L 84.38 0.00 L 42.19 9.38 L 9.38 28.12 L 7.03 42.19 L 42.19 77.34 L 126.56 107.81 L 257.81 128.91 L 400.78 140.62 L 567.19 140.62 L 595.31 133.59 L 597.66 128.91 L 576.56 114.84 L 457.03 98.44 L 250.78 98.44 L 180.47 98.44 L 58.59 117.19 L 4.69 133.59 L 0.00 140.62 L 4.69 150.00 L 37.50 161.72 L 142.97 173.44 L 339.84 171.09 L 515.62 145.31 L 396.09 140.62 L 105.47 175.78 L 70.31 187.50 L 75.00 196.88 L 96.09 206.25 L 222.66 215.62 L 339.84 203.91 L 473.44 164.06 L 506.25 140.62 L 164.06 138.28 L 86.72 150.00 L 119.53 166.41 L 206.25 175.78 L 529.69 175.78 L 189.84 220.31 L 232.03 227.34 L 421.88 227.34 L 433.59 220.31 L 309.38 229.69 L 171.09 260.16 L 175.78 269.53 L 189.84 274.22 L 288.28 285.94 L 351.56 285.94 L 375.00 276.56 L 379.69 269.53 L 377.34 264.84 L 307.03 269.53 L 264.84 278.91 L 257.81 290.62 L 281.25 295.31 L 457.03 295.31 L 253.12 323.44 L 363.28 330.47 L 278.91 349.22 L 332.81 351.56 L 314.06 363.28" stroke="white" fill="transparent"/>
</svg>