<?xml version="1.0" encoding="UTF-8" standalone="no"?>
<!--Created with ndjsontosvg (https:https://github.com/thompson318/ndjsontosvg) 
	from the simplified Google quickdraw data set. key_id = 5656703141937152-->
<svg width="600" height="600"
	xmlns="http://www.w3.org/2000/svg">
	xmlns:ndjsontosvg="https://github.com/thompson318/ndjsontosvg"
	xmlns:quickdraw="https://quickdraw.withgoogle.com/data"
	xmlns:scikit-surgery="https://doi.org/10.1007/s11548-020-02180-5">

	<rect width="100%" height="100%" fill="black" />
	<path d = "M 349.22 46.88 L 278.91 37.50 L 255.47 23.44 L 358.59 0.00 L 396.09 0.00 L 400.78 11.72 L 393.75 28.12 L 358.59 44.53 L 271.88 46.88 L 178.12 32.81 L 185.16 25.78 L 269.53 11.72 L 464.06 9.38 L 494.53 18.75 L 445.31 44.53 L 316.41 58.59 L 98.44 56.25 L 257.81 42.19 L 464.06 42.19 L 510.94 49.22 L 517.97 58.59 L 492.19 82.03 L 447.66 98.44 L 300.00 117.19 L 0.00 121.88 L 578.91 114.84 L 539.06 128.91 L 445.31 145.31 L 98.44 154.69 L 307.03 157.03 L 475.78 171.09 L 445.31 194.53 L 363.28 215.62 L 267.19 222.66 L 140.62 217.97 L 164.06 206.25 L 203.91 199.22 L 335.16 199.22 L 400.78 206.25 L 450.00 220.31 L 435.94 236.72 L 382.03 253.12 L 147.66 255.47 L 182.81 243.75 L 260.16 241.41 L 459.38 264.84 L 445.31 283.59 L 396.09 302.34 L 225.00 318.75 L 346.88 304.69 L 403.12 304.69 L 424.22 311.72 L 400.78 335.16 L 367.97 351.56 L 269.53 367.97 L 363.28 360.94 L 450.00 367.97 L 398.44 393.75 L 307.03 410.16 L 335.16 400.78 L 435.94 398.44 L 363.28 445.31 L 309.38 450.00 L 386.72 454.69 L 365.62 482.81 L 332.81 492.19 L 396.09 494.53 L 379.69 513.28 L 349.22 522.66 L 405.47 520.31 L 403.12 532.03 L 389.06 539.06 L 360.94 539.06 L 400.78 539.06 L 372.66 553.12 L 398.44 557.81 L 379.69 574.22 L 396.09 581.25 L 382.03 597.66" stroke="white" fill="transparent"/>
</svg>