<?xml version="1.0" encoding="UTF-8" standalone="no"?>
<!--Created with ndjsontosvg (https:https://github.com/thompson318/ndjsontosvg) 
	from the simplified Google quickdraw data set. key_id = 6203856960618496-->
<svg width="600" height="600"
	xmlns="http://www.w3.org/2000/svg">
	xmlns:ndjsontosvg="https://github.com/thompson318/ndjsontosvg"
	xmlns:quickdraw="https://quickdraw.withgoogle.com/data"
	xmlns:scikit-surgery="https://doi.org/10.1007/s11548-020-02180-5">

	<rect width="100%" height="100%" fill="black" />
	<path d = "M 241.41 77.34 L 201.56 75.00 L 189.84 84.38 L 192.19 98.44 L 239.06 117.19 L 283.59 107.81 L 295.31 93.75 L 285.94 75.00 L 260.16 63.28 L 234.38 65.62" stroke="white" fill="transparent"/>
	<path d = "M 30.47 91.41 L 0.00 121.88 L 9.38 140.62 L 67.97 168.75 L 128.91 182.81 L 164.06 201.56 L 199.22 203.91 L 269.53 194.53 L 405.47 196.88 L 459.38 161.72 L 541.41 82.03" stroke="white" fill="transparent"/>
	<path d = "M 513.28 28.12 L 550.78 35.16 L 595.31 53.91 L 595.31 65.62 L 576.56 89.06" stroke="white" fill="transparent"/>
	<path d = "M 49.22 182.81 L 49.22 199.22 L 128.91 236.72 L 164.06 290.62 L 159.38 323.44 L 121.88 389.06 L 114.84 419.53 L 124.22 431.25" stroke="white" fill="transparent"/>
	<path d = "M 534.38 124.22 L 503.91 128.91 L 471.09 159.38 L 442.97 213.28 L 424.22 278.91 L 417.19 321.09 L 424.22 375.00 L 440.62 407.81 L 459.38 421.88" stroke="white" fill="transparent"/>
	<path d = "M 210.94 346.88 L 236.72 365.62 L 290.62 375.00" stroke="white" fill="transparent"/>
	<path d = "M 117.19 142.97 L 147.66 166.41 L 206.25 164.06" stroke="white" fill="transparent"/>
	<path d = "M 300.00 154.69 L 335.16 159.38 L 382.03 131.25" stroke="white" fill="transparent"/>
	<path d = "M 398.44 89.06 L 398.44 89.06" stroke="white" fill="transparent"/>
	<path d = "M 96.09 114.84 L 110.16 91.41 L 152.34 75.00" stroke="white" fill="transparent"/>
	<path d = "M 56.25 70.31 L 89.06 46.88 L 128.91 32.81 L 281.25 7.03 L 433.59 0.00 L 478.12 11.72" stroke="white" fill="transparent"/>
	<path d = "M 346.88 46.88 L 400.78 53.91 L 417.19 70.31 L 412.50 86.72" stroke="white" fill="transparent"/>
	<path d = "M 332.81 77.34 L 349.22 91.41 L 346.88 110.16" stroke="white" fill="transparent"/>
	<path d = "M 471.09 77.34 L 417.19 126.56 L 400.78 159.38" stroke="white" fill="transparent"/>
	<path d = "M 215.62 262.50 L 250.78 283.59 L 281.25 285.94" stroke="white" fill="transparent"/>
	<path d = "M 363.28 243.75 L 262.50 314.06" stroke="white" fill="transparent"/>
	<path d = "M 384.38 278.91 L 360.94 302.34 L 276.56 330.47" stroke="white" fill="transparent"/>
	<path d = "M 377.34 330.47 L 353.91 363.28 L 278.91 391.41" stroke="white" fill="transparent"/>
	<path d = "M 384.38 382.03 L 363.28 405.47 L 314.06 421.88" stroke="white" fill="transparent"/>
</svg>