<?xml version="1.0" encoding="UTF-8" standalone="no"?>
<!--Created with ndjsontosvg (https:https://github.com/thompson318/ndjsontosvg) 
	from the simplified Google quickdraw data set. key_id = 4939857279320064-->
<svg width="600" height="600"
	xmlns="http://www.w3.org/2000/svg">
	xmlns:ndjsontosvg="https://github.com/thompson318/ndjsontosvg"
	xmlns:quickdraw="https://quickdraw.withgoogle.com/data"
	xmlns:scikit-surgery="https://doi.org/10.1007/s11548-020-02180-5">

	<rect width="100%" height="100%" fill="black" />
	<path d = "M 49.22 297.66 L 103.12 417.19 L 173.44 515.62 L 213.28 597.66 L 210.94 555.47 L 262.50 375.00 L 321.09 300.00 L 330.47 264.84 L 328.12 227.34 L 288.28 142.97 L 246.09 96.09 L 206.25 84.38 L 164.06 89.06 L 91.41 112.50 L 49.22 140.62 L 9.38 171.09 L 0.00 192.19 L 0.00 215.62 L 28.12 269.53 L 49.22 295.31 L 75.00 290.62 L 100.78 321.09 L 128.91 300.00 L 145.31 318.75 L 175.78 304.69 L 203.91 337.50 L 255.47 332.81 L 278.91 351.56 L 292.97 346.88 L 295.31 328.12" stroke="white" fill="transparent"/>
	<path d = "M 157.03 98.44 L 142.97 14.06 L 178.12 0.00" stroke="white" fill="transparent"/>
</svg>