<?xml version="1.0" encoding="UTF-8" standalone="no"?>
<!--Created with ndjsontosvg (https:https://github.com/thompson318/ndjsontosvg) 
	from the simplified Google quickdraw data set. key_id = 6718008439341056-->
<svg width="600" height="600"
	xmlns="http://www.w3.org/2000/svg">
	xmlns:ndjsontosvg="https://github.com/thompson318/ndjsontosvg"
	xmlns:quickdraw="https://quickdraw.withgoogle.com/data"
	xmlns:scikit-surgery="https://doi.org/10.1007/s11548-020-02180-5">

	<rect width="100%" height="100%" fill="black" />
	<path d = "M 105.47 583.59 L 82.03 400.78 L 82.03 232.03 L 196.88 189.84 L 257.81 185.16 L 271.88 217.97 L 271.88 290.62 L 264.84 337.50 L 178.12 564.84 L 157.03 597.66" stroke="white" fill="transparent"/>
	<path d = "M 65.62 210.94 L 0.00 166.41 L 4.69 103.12 L 16.41 70.31 L 35.16 32.81 L 63.28 18.75 L 119.53 23.44 L 185.16 89.06 L 201.56 126.56 L 201.56 154.69 L 199.22 173.44 L 178.12 206.25 L 173.44 154.69 L 206.25 77.34 L 260.16 44.53 L 307.03 44.53 L 323.44 58.59 L 339.84 96.09 L 335.16 150.00 L 309.38 187.50 L 274.22 210.94" stroke="white" fill="transparent"/>
	<path d = "M 142.97 21.09 L 138.28 0.00" stroke="white" fill="transparent"/>
</svg>