<?xml version="1.0" encoding="UTF-8" standalone="no"?>
<!--Created with ndjsontosvg (https:https://github.com/thompson318/ndjsontosvg) 
	from the simplified Google quickdraw data set. key_id = 6548165966692352-->
<svg width="600" height="600"
	xmlns="http://www.w3.org/2000/svg">
	xmlns:ndjsontosvg="https://github.com/thompson318/ndjsontosvg"
	xmlns:quickdraw="https://quickdraw.withgoogle.com/data"
	xmlns:scikit-surgery="https://doi.org/10.1007/s11548-020-02180-5">

	<rect width="100%" height="100%" fill="black" />
	<path d = "M 166.41 7.03 L 124.22 49.22 L 35.16 185.16 L 9.38 257.81 L 2.34 349.22 L 96.09 353.91 L 117.19 264.84 L 147.66 192.19 L 161.72 166.41 L 175.78 159.38 L 199.22 192.19 L 215.62 243.75 L 203.91 405.47 L 215.62 428.91 L 241.41 445.31 L 325.78 466.41 L 389.06 466.41 L 400.78 403.12 L 400.78 208.59 L 407.81 201.56 L 431.25 220.31 L 513.28 344.53 L 543.75 379.69 L 571.88 389.06 L 590.62 365.62 L 597.66 292.97 L 578.91 234.38 L 508.59 131.25 L 440.62 53.91 L 414.84 37.50 L 393.75 35.16 L 337.50 70.31 L 297.66 72.66 L 229.69 49.22 L 168.75 0.00" stroke="white" fill="transparent"/>
	<path d = "M 288.28 150.00 L 288.28 178.12 L 300.00 178.12 L 300.00 159.38 L 276.56 140.62" stroke="white" fill="transparent"/>
	<path d = "M 285.94 208.59 L 281.25 210.94 L 281.25 229.69 L 292.97 236.72 L 300.00 232.03 L 300.00 220.31 L 288.28 213.28" stroke="white" fill="transparent"/>
	<path d = "M 283.59 276.56 L 281.25 311.72 L 297.66 311.72 L 297.66 295.31 L 285.94 288.28" stroke="white" fill="transparent"/>
	<path d = "M 281.25 358.59 L 276.56 351.56 L 274.22 353.91 L 276.56 377.34 L 283.59 379.69 L 295.31 370.31 L 297.66 353.91 L 283.59 353.91" stroke="white" fill="transparent"/>
	<path d = "M 288.28 407.81 L 274.22 412.50 L 274.22 426.56 L 283.59 435.94 L 290.62 426.56 L 281.25 412.50" stroke="white" fill="transparent"/>
</svg>