<?xml version="1.0" encoding="UTF-8" standalone="no"?>
<!--Created with ndjsontosvg (https:https://github.com/thompson318/ndjsontosvg) 
	from the simplified Google quickdraw data set. key_id = 5250768888135680-->
<svg width="600" height="600"
	xmlns="http://www.w3.org/2000/svg">
	xmlns:ndjsontosvg="https://github.com/thompson318/ndjsontosvg"
	xmlns:quickdraw="https://quickdraw.withgoogle.com/data"
	xmlns:scikit-surgery="https://doi.org/10.1007/s11548-020-02180-5">

	<rect width="100%" height="100%" fill="black" />
	<path d = "M 138.28 11.72 L 192.19 51.56 L 260.16 53.91 L 307.03 44.53 L 382.03 0.00" stroke="white" fill="transparent"/>
	<path d = "M 243.75 63.28 L 262.50 309.38" stroke="white" fill="transparent"/>
	<path d = "M 246.09 82.03 L 260.16 100.78 L 271.88 91.41 L 271.88 82.03 L 246.09 70.31" stroke="white" fill="transparent"/>
	<path d = "M 128.91 4.69 L 93.75 65.62 L 77.34 107.81 L 9.38 210.94 L 0.00 281.25 L 51.56 307.03 L 75.00 304.69 L 86.72 271.88 L 96.09 194.53 L 150.00 140.62 L 178.12 93.75 L 159.38 124.22 L 138.28 175.78 L 142.97 178.12 L 131.25 199.22 L 121.88 311.72 L 131.25 365.62 L 264.84 358.59 L 353.91 360.94 L 442.97 344.53 L 435.94 124.22 L 494.53 187.50 L 592.97 248.44 L 597.66 236.72 L 574.22 178.12" stroke="white" fill="transparent"/>
</svg>