<?xml version="1.0" encoding="UTF-8" standalone="no"?>
<!--Created with ndjsontosvg (https:https://github.com/thompson318/ndjsontosvg) 
	from the simplified Google quickdraw data set. key_id = 4628515720790016-->
<svg width="600" height="600"
	xmlns="http://www.w3.org/2000/svg">
	xmlns:ndjsontosvg="https://github.com/thompson318/ndjsontosvg"
	xmlns:quickdraw="https://quickdraw.withgoogle.com/data"
	xmlns:scikit-surgery="https://doi.org/10.1007/s11548-020-02180-5">

	<rect width="100%" height="100%" fill="black" />
	<path d = "M 239.06 2.34 L 126.56 18.75 L 84.38 46.88 L 18.75 239.06 L 0.00 323.44 L 0.00 339.84 L 84.38 349.22 L 84.38 342.19 L 23.44 330.47" stroke="white" fill="transparent"/>
	<path d = "M 96.09 358.59 L 91.41 346.88 L 96.09 330.47 L 140.62 232.03 L 154.69 185.16 L 161.72 194.53 L 166.41 241.41 L 168.75 473.44 L 351.56 475.78" stroke="white" fill="transparent"/>
	<path d = "M 248.44 18.75 L 260.16 37.50 L 281.25 46.88 L 332.81 46.88 L 349.22 35.16" stroke="white" fill="transparent"/>
	<path d = "M 367.97 44.53 L 398.44 2.34 L 407.81 0.00 L 459.38 2.34 L 508.59 35.16 L 571.88 112.50 L 590.62 236.72 L 597.66 349.22 L 506.25 346.88 L 482.81 175.78 L 459.38 142.97 L 426.56 140.62 L 419.53 255.47 L 405.47 339.84 L 405.47 379.69 L 419.53 454.69" stroke="white" fill="transparent"/>
</svg>