<?xml version="1.0" encoding="UTF-8" standalone="no"?>
<!--Created with ndjsontosvg (https:https://github.com/thompson318/ndjsontosvg) 
	from the simplified Google quickdraw data set. key_id = 5407686793363456-->
<svg width="600" height="600"
	xmlns="http://www.w3.org/2000/svg">
	xmlns:ndjsontosvg="https://github.com/thompson318/ndjsontosvg"
	xmlns:quickdraw="https://quickdraw.withgoogle.com/data"
	xmlns:scikit-surgery="https://doi.org/10.1007/s11548-020-02180-5">

	<rect width="100%" height="100%" fill="black" />
	<path d = "M 135.94 16.41 L 79.69 79.69 L 51.56 133.59 L 0.00 175.78 L 39.84 203.91 L 164.06 107.81 L 119.53 187.50 L 93.75 260.16 L 89.06 431.25 L 187.50 433.59 L 234.38 314.06 L 276.56 173.44 L 302.34 121.88" stroke="white" fill="transparent"/>
	<path d = "M 339.84 23.44 L 323.44 37.50 L 292.97 89.06 L 283.59 147.66" stroke="white" fill="transparent"/>
	<path d = "M 372.66 18.75 L 250.78 253.12 L 236.72 304.69 L 239.06 384.38 L 203.91 419.53 L 215.62 431.25 L 323.44 442.97 L 330.47 410.16 L 450.00 157.03 L 466.41 201.56 L 503.91 267.19 L 597.66 229.69 L 555.47 135.94 L 510.94 63.28 L 445.31 2.34 L 435.94 0.00 L 403.12 18.75 L 382.03 21.09 L 335.16 2.34" stroke="white" fill="transparent"/>
</svg>