<?xml version="1.0" encoding="UTF-8" standalone="no"?>
<!--Created with ndjsontosvg (https:https://github.com/thompson318/ndjsontosvg) 
	from the simplified Google quickdraw data set. key_id = 5969105460920320-->
<svg width="600" height="600"
	xmlns="http://www.w3.org/2000/svg">
	xmlns:ndjsontosvg="https://github.com/thompson318/ndjsontosvg"
	xmlns:quickdraw="https://quickdraw.withgoogle.com/data"
	xmlns:scikit-surgery="https://doi.org/10.1007/s11548-020-02180-5">

	<rect width="100%" height="100%" fill="black" />
	<path d = "M 185.16 77.34 L 196.88 393.75 L 199.22 403.12 L 222.66 410.16 L 398.44 391.41 L 405.47 379.69 L 405.47 302.34 L 386.72 173.44 L 386.72 105.47 L 492.19 107.81 L 597.66 96.09 L 592.97 32.81 L 581.25 28.12 L 569.53 37.50 L 489.84 42.19 L 396.09 70.31 L 396.09 0.00 L 367.97 21.09 L 321.09 21.09 L 243.75 44.53 L 194.53 42.19 L 196.88 84.38 L 37.50 86.72 L 2.34 96.09 L 11.72 150.00 L 18.75 166.41 L 30.47 171.09 L 185.16 138.28" stroke="white" fill="transparent"/>
	<path d = "M 278.91 63.28 L 269.53 159.38 L 260.16 398.44" stroke="white" fill="transparent"/>
</svg>