<?xml version="1.0" encoding="UTF-8" standalone="no"?>
<!--Created with ndjsontosvg (https:https://github.com/thompson318/ndjsontosvg) 
	from the simplified Google quickdraw data set. key_id = 4937333365276672-->
<svg width="600" height="600"
	xmlns="http://www.w3.org/2000/svg">
	xmlns:ndjsontosvg="https://github.com/thompson318/ndjsontosvg"
	xmlns:quickdraw="https://quickdraw.withgoogle.com/data"
	xmlns:scikit-surgery="https://doi.org/10.1007/s11548-020-02180-5">

	<rect width="100%" height="100%" fill="black" />
	<path d = "M 168.75 135.94 L 140.62 133.59 L 119.53 152.34 L 110.16 185.16 L 112.50 220.31 L 133.59 241.41 L 161.72 246.09 L 220.31 220.31 L 232.03 201.56 L 225.00 168.75 L 196.88 131.25 L 175.78 128.91" stroke="white" fill="transparent"/>
	<path d = "M 166.41 250.78 L 175.78 309.38 L 168.75 370.31" stroke="white" fill="transparent"/>
	<path d = "M 152.34 309.38 L 86.72 281.25" stroke="white" fill="transparent"/>
	<path d = "M 187.50 321.09 L 255.47 283.59" stroke="white" fill="transparent"/>
	<path d = "M 175.78 375.00 L 171.09 403.12 L 93.75 517.97" stroke="white" fill="transparent"/>
	<path d = "M 173.44 393.75 L 246.09 492.19" stroke="white" fill="transparent"/>
	<path d = "M 159.38 175.78 L 159.38 175.78" stroke="white" fill="transparent"/>
	<path d = "M 199.22 168.75 L 199.22 168.75" stroke="white" fill="transparent"/>
	<path d = "M 140.62 178.12 L 140.62 178.12" stroke="white" fill="transparent"/>
	<path d = "M 164.06 178.12 L 164.06 178.12" stroke="white" fill="transparent"/>
	<path d = "M 140.62 203.91 L 159.38 196.88 L 180.47 199.22" stroke="white" fill="transparent"/>
	<path d = "M 18.75 23.44 L 28.12 117.19 L 39.84 595.31" stroke="white" fill="transparent"/>
	<path d = "M 117.19 0.00 L 107.81 28.12 L 103.12 161.72 L 72.66 426.56 L 75.00 597.66" stroke="white" fill="transparent"/>
	<path d = "M 187.50 11.72 L 199.22 210.94 L 189.84 562.50" stroke="white" fill="transparent"/>
	<path d = "M 276.56 28.12 L 274.22 459.38 L 260.16 567.19" stroke="white" fill="transparent"/>
	<path d = "M 323.44 9.38 L 309.38 285.94 L 309.38 564.84" stroke="white" fill="transparent"/>
	<path d = "M 135.94 9.38 L 142.97 234.38 L 121.88 459.38 L 126.56 546.09 L 135.94 567.19" stroke="white" fill="transparent"/>
	<path d = "M 0.00 21.09 L 0.00 21.09" stroke="white" fill="transparent"/>
</svg>