<?xml version="1.0" encoding="UTF-8" standalone="no"?>
<!--Created with ndjsontosvg (https:https://github.com/thompson318/ndjsontosvg) 
	from the simplified Google quickdraw data set. key_id = 6217702324568064-->
<svg width="600" height="600"
	xmlns="http://www.w3.org/2000/svg">
	xmlns:ndjsontosvg="https://github.com/thompson318/ndjsontosvg"
	xmlns:quickdraw="https://quickdraw.withgoogle.com/data"
	xmlns:scikit-surgery="https://doi.org/10.1007/s11548-020-02180-5">

	<rect width="100%" height="100%" fill="black" />
	<path d = "M 517.97 23.44 L 267.19 63.28 L 100.78 72.66" stroke="white" fill="transparent"/>
	<path d = "M 0.00 342.19 L 51.56 351.56 L 217.97 346.88 L 442.97 353.91 L 571.88 346.88 L 597.66 339.84" stroke="white" fill="transparent"/>
	<path d = "M 119.53 65.62 L 110.16 283.59 L 114.84 351.56 L 126.56 365.62" stroke="white" fill="transparent"/>
	<path d = "M 199.22 98.44 L 213.28 96.09 L 215.62 103.12 L 213.28 304.69 L 220.31 351.56 L 225.00 363.28 L 232.03 358.59" stroke="white" fill="transparent"/>
	<path d = "M 304.69 44.53 L 314.06 67.97 L 314.06 241.41 L 330.47 318.75 L 346.88 344.53" stroke="white" fill="transparent"/>
	<path d = "M 424.22 2.34 L 426.56 138.28 L 445.31 311.72 L 461.72 360.94" stroke="white" fill="transparent"/>
	<path d = "M 494.53 0.00 L 499.22 229.69 L 536.72 358.59" stroke="white" fill="transparent"/>
</svg>