<?xml version="1.0" encoding="UTF-8" standalone="no"?>
<!--Created with ndjsontosvg (https:https://github.com/thompson318/ndjsontosvg) 
	from the simplified Google quickdraw data set. key_id = 6412553452257280-->
<svg width="600" height="600"
	xmlns="http://www.w3.org/2000/svg">
	xmlns:ndjsontosvg="https://github.com/thompson318/ndjsontosvg"
	xmlns:quickdraw="https://quickdraw.withgoogle.com/data"
	xmlns:scikit-surgery="https://doi.org/10.1007/s11548-020-02180-5">

	<rect width="100%" height="100%" fill="black" />
	<path d = "M 539.06 7.03 L 532.03 16.41 L 532.03 145.31 L 546.09 271.88 L 562.50 386.72 L 597.66 489.84 L 595.31 499.22 L 576.56 503.91 L 379.69 482.81 L 243.75 450.00 L 105.47 442.97 L 60.94 431.25 L 42.19 421.88 L 25.78 393.75 L 11.72 330.47 L 0.00 206.25 L 0.00 112.50 L 7.03 93.75 L 35.16 72.66 L 138.28 46.88 L 309.38 42.19 L 450.00 72.66 L 515.62 77.34 L 522.66 75.00 L 536.72 44.53" stroke="white" fill="transparent"/>
	<path d = "M 454.69 63.28 L 438.28 396.09" stroke="white" fill="transparent"/>
	<path d = "M 360.94 39.84 L 346.88 288.28 L 321.09 487.50" stroke="white" fill="transparent"/>
	<path d = "M 248.44 30.47 L 239.06 30.47 L 239.06 110.16 L 213.28 276.56 L 213.28 424.22 L 206.25 466.41" stroke="white" fill="transparent"/>
	<path d = "M 124.22 0.00 L 112.50 75.00 L 117.19 508.59" stroke="white" fill="transparent"/>
</svg>