<?xml version="1.0" encoding="UTF-8" standalone="no"?>
<!--Created with ndjsontosvg (https:https://github.com/thompson318/ndjsontosvg) 
	from the simplified Google quickdraw data set. key_id = 5598351565258752-->
<svg width="600" height="600"
	xmlns="http://www.w3.org/2000/svg">
	xmlns:ndjsontosvg="https://github.com/thompson318/ndjsontosvg"
	xmlns:quickdraw="https://quickdraw.withgoogle.com/data"
	xmlns:scikit-surgery="https://doi.org/10.1007/s11548-020-02180-5">

	<rect width="100%" height="100%" fill="black" />
	<path d = "M 0.00 4.69 L 9.38 276.56 L 30.47 393.75 L 30.47 503.91 L 16.41 597.66" stroke="white" fill="transparent"/>
	<path d = "M 239.06 11.72 L 260.16 281.25 L 283.59 471.09 L 283.59 508.59 L 271.88 560.16" stroke="white" fill="transparent"/>
	<path d = "M 450.00 0.00 L 473.44 28.12 L 485.16 89.06 L 525.00 433.59 L 527.34 564.84 L 532.03 592.97 L 536.72 585.94" stroke="white" fill="transparent"/>
	<path d = "M 150.00 145.31 L 135.94 150.00 L 117.19 178.12 L 103.12 222.66 L 103.12 243.75 L 112.50 255.47 L 166.41 267.19 L 175.78 255.47 L 173.44 196.88 L 150.00 168.75" stroke="white" fill="transparent"/>
	<path d = "M 135.94 264.84 L 131.25 403.12" stroke="white" fill="transparent"/>
	<path d = "M 142.97 379.69 L 70.31 468.75" stroke="white" fill="transparent"/>
	<path d = "M 131.25 384.38 L 142.97 386.72 L 217.97 445.31 L 232.03 466.41" stroke="white" fill="transparent"/>
	<path d = "M 142.97 342.19 L 82.03 337.50 L 70.31 325.78" stroke="white" fill="transparent"/>
	<path d = "M 145.31 349.22 L 241.41 344.53 L 257.81 335.16" stroke="white" fill="transparent"/>
</svg>