<?xml version="1.0" encoding="UTF-8" standalone="no"?>
<!--Created with ndjsontosvg (https:https://github.com/thompson318/ndjsontosvg) 
	from the simplified Google quickdraw data set. key_id = 4745468129050624-->
<svg width="600" height="600"
	xmlns="http://www.w3.org/2000/svg">
	xmlns:ndjsontosvg="https://github.com/thompson318/ndjsontosvg"
	xmlns:quickdraw="https://quickdraw.withgoogle.com/data"
	xmlns:scikit-surgery="https://doi.org/10.1007/s11548-020-02180-5">

	<rect width="100%" height="100%" fill="black" />
	<path d = "M 393.75 367.97 L 419.53 358.59 L 440.62 393.75 L 438.28 431.25 L 424.22 447.66 L 426.56 454.69 L 433.59 459.38 L 454.69 447.66 L 482.81 445.31 L 496.88 452.34 L 501.56 459.38 L 499.22 480.47 L 482.81 494.53 L 393.75 494.53" stroke="white" fill="transparent"/>
	<path d = "M 450.00 346.88 L 471.09 346.88 L 471.09 353.91 L 466.41 412.50 L 557.81 410.16 L 578.91 426.56 L 557.81 482.81 L 527.34 485.16 L 515.62 480.47" stroke="white" fill="transparent"/>
	<path d = "M 403.12 442.97 L 391.41 452.34 L 358.59 452.34 L 349.22 442.97 L 316.41 349.22 L 316.41 318.75 L 342.19 264.84 L 405.47 175.78 L 440.62 98.44 L 482.81 67.97 L 553.12 67.97 L 597.66 103.12 L 597.66 138.28 L 532.03 152.34 L 471.09 314.06 L 442.97 342.19 L 410.16 358.59" stroke="white" fill="transparent"/>
	<path d = "M 442.97 217.97 L 485.16 203.91 L 543.75 203.91 L 562.50 215.62 L 562.50 243.75 L 550.78 262.50 L 527.34 262.50 L 482.81 246.09 L 457.03 264.84" stroke="white" fill="transparent"/>
	<path d = "M 335.16 267.19 L 236.72 328.12 L 147.66 442.97 L 107.81 473.44 L 79.69 485.16 L 30.47 482.81 L 14.06 480.47 L 0.00 459.38 L 56.25 499.22 L 103.12 503.91 L 239.06 421.88 L 255.47 407.81 L 271.88 375.00 L 307.03 367.97" stroke="white" fill="transparent"/>
	<path d = "M 393.75 295.31 L 386.72 302.34 L 391.41 339.84 L 405.47 358.59 L 421.88 360.94 L 431.25 351.56 L 435.94 292.97" stroke="white" fill="transparent"/>
	<path d = "M 393.75 295.31 L 433.59 285.94" stroke="white" fill="transparent"/>
	<path d = "M 431.25 75.00 L 428.91 9.38 L 445.31 11.72 L 454.69 63.28 L 461.72 0.00 L 480.47 67.97" stroke="white" fill="transparent"/>
	<path d = "M 525.00 96.09 L 529.69 98.44" stroke="white" fill="transparent"/>
</svg>