<?xml version="1.0" encoding="UTF-8" standalone="no"?>
<!--Created with ndjsontosvg (https:https://github.com/thompson318/ndjsontosvg) 
	from the simplified Google quickdraw data set. key_id = 6591740439953408-->
<svg width="600" height="600"
	xmlns="http://www.w3.org/2000/svg">
	xmlns:ndjsontosvg="https://github.com/thompson318/ndjsontosvg"
	xmlns:quickdraw="https://quickdraw.withgoogle.com/data"
	xmlns:scikit-surgery="https://doi.org/10.1007/s11548-020-02180-5">

	<rect width="100%" height="100%" fill="black" />
	<path d = "M 321.09 314.06 L 288.28 379.69 L 236.72 414.84 L 103.12 442.97 L 2.34 447.66 L 14.06 466.41 L 65.62 494.53 L 110.16 508.59 L 150.00 515.62 L 208.59 513.28 L 278.91 480.47 L 325.78 419.53 L 339.84 382.03 L 349.22 382.03 L 356.25 428.91 L 297.66 499.22 L 300.00 522.66 L 342.19 569.53 L 433.59 597.66 L 400.78 539.06 L 346.88 515.62 L 407.81 459.38 L 414.84 440.62 L 412.50 377.34" stroke="white" fill="transparent"/>
	<path d = "M 318.75 311.72 L 332.81 297.66 L 332.81 246.09 L 323.44 222.66 L 300.00 203.91 L 288.28 147.66 L 304.69 105.47 L 344.53 93.75 L 339.84 0.00 L 391.41 39.84 L 410.16 2.34 L 428.91 82.03" stroke="white" fill="transparent"/>
</svg>