<?xml version="1.0" encoding="UTF-8" standalone="no"?>
<!--Created with ndjsontosvg (https:https://github.com/thompson318/ndjsontosvg) 
	from the simplified Google quickdraw data set. key_id = 5958263382212608-->
<svg width="600" height="600"
	xmlns="http://www.w3.org/2000/svg">
	xmlns:ndjsontosvg="https://github.com/thompson318/ndjsontosvg"
	xmlns:quickdraw="https://quickdraw.withgoogle.com/data"
	xmlns:scikit-surgery="https://doi.org/10.1007/s11548-020-02180-5">

	<rect width="100%" height="100%" fill="black" />
	<path d = "M 201.56 103.12 L 201.56 18.75 L 187.50 2.34 L 124.22 2.34 L 79.69 18.75 L 44.53 42.19 L 9.38 86.72 L 0.00 166.41 L 23.44 203.91 L 63.28 229.69 L 112.50 232.03 L 194.53 199.22 L 208.59 185.16 L 208.59 142.97 L 377.34 147.66 L 445.31 133.59 L 468.75 164.06 L 471.09 145.31 L 480.47 140.62 L 487.50 152.34 L 499.22 140.62 L 529.69 175.78 L 560.16 185.16 L 597.66 135.94 L 592.97 119.53 L 583.59 114.84 L 255.47 124.22 L 217.97 114.84 L 206.25 100.78" stroke="white" fill="transparent"/>
</svg>