<?xml version="1.0" encoding="UTF-8" standalone="no"?>
<!--Created with ndjsontosvg (https:https://github.com/thompson318/ndjsontosvg) 
	from the simplified Google quickdraw data set. key_id = 5099092571062272-->
<svg width="600" height="600"
	xmlns="http://www.w3.org/2000/svg">
	xmlns:ndjsontosvg="https://github.com/thompson318/ndjsontosvg"
	xmlns:quickdraw="https://quickdraw.withgoogle.com/data"
	xmlns:scikit-surgery="https://doi.org/10.1007/s11548-020-02180-5">

	<rect width="100%" height="100%" fill="black" />
	<path d = "M 246.09 77.34 L 208.59 23.44 L 175.78 7.03 L 142.97 0.00 L 86.72 11.72 L 53.91 35.16 L 23.44 67.97 L 0.00 133.59 L 11.72 192.19 L 58.59 250.78 L 124.22 285.94 L 166.41 290.62 L 199.22 278.91 L 239.06 248.44 L 290.62 187.50 L 585.94 175.78 L 597.66 138.28 L 597.66 96.09 L 583.59 56.25 L 574.22 49.22 L 522.66 77.34 L 501.56 72.66 L 461.72 49.22 L 447.66 89.06 L 391.41 107.81 L 351.56 105.47 L 349.22 86.72 L 332.81 67.97 L 274.22 70.31 L 260.16 110.16 L 229.69 100.78" stroke="white" fill="transparent"/>
	<path d = "M 121.88 133.59 L 105.47 112.50 L 86.72 117.19 L 70.31 145.31 L 79.69 164.06 L 100.78 164.06 L 100.78 126.56" stroke="white" fill="transparent"/>
	<path d = "M 271.88 135.94 L 391.41 138.28 L 501.56 121.88 L 574.22 124.22" stroke="white" fill="transparent"/>
</svg>