<?xml version="1.0" encoding="UTF-8" standalone="no"?>
<!--Created with ndjsontosvg (https:https://github.com/thompson318/ndjsontosvg) 
	from the simplified Google quickdraw data set. key_id = 4899297285898240-->
<svg width="600" height="600"
	xmlns="http://www.w3.org/2000/svg">
	xmlns:ndjsontosvg="https://github.com/thompson318/ndjsontosvg"
	xmlns:quickdraw="https://quickdraw.withgoogle.com/data"
	xmlns:scikit-surgery="https://doi.org/10.1007/s11548-020-02180-5">

	<rect width="100%" height="100%" fill="black" />
	<path d = "M 86.72 23.44 L 93.75 2.34 L 72.66 7.03 L 9.38 128.91 L 0.00 173.44 L 2.34 232.03 L 39.84 262.50 L 79.69 262.50 L 152.34 236.72" stroke="white" fill="transparent"/>
	<path d = "M 82.03 9.38 L 126.56 2.34 L 135.94 11.72 L 142.97 53.91 L 192.19 67.97 L 588.28 124.22 L 597.66 154.69 L 597.66 210.94 L 588.28 215.62 L 576.56 208.59 L 567.19 225.00 L 532.03 304.69 L 501.56 222.66 L 487.50 246.09 L 478.12 201.56 L 428.91 274.22 L 417.19 227.34 L 356.25 307.03 L 349.22 229.69 L 330.47 236.72" stroke="white" fill="transparent"/>
</svg>