<?xml version="1.0" encoding="UTF-8" standalone="no"?>
<!--Created with ndjsontosvg (https:https://github.com/thompson318/ndjsontosvg) 
	from the simplified Google quickdraw data set. key_id = 4806320509157376-->
<svg width="600" height="600"
	xmlns="http://www.w3.org/2000/svg">
	xmlns:ndjsontosvg="https://github.com/thompson318/ndjsontosvg"
	xmlns:quickdraw="https://quickdraw.withgoogle.com/data"
	xmlns:scikit-surgery="https://doi.org/10.1007/s11548-020-02180-5">

	<rect width="100%" height="100%" fill="black" />
	<path d = "M 421.88 32.81 L 367.97 32.81 L 278.91 46.88 L 32.81 49.22 L 16.41 56.25 L 2.34 77.34 L 0.00 128.91 L 14.06 147.66 L 42.19 154.69 L 100.78 157.03 L 145.31 117.19 L 189.84 157.03 L 201.56 154.69 L 243.75 114.84 L 260.16 114.84 L 281.25 135.94 L 302.34 142.97 L 330.47 142.97 L 351.56 128.91 L 377.34 124.22 L 400.78 140.62 L 412.50 138.28 L 419.53 161.72 L 435.94 185.16 L 489.84 199.22 L 546.09 199.22 L 578.91 173.44 L 595.31 142.97 L 595.31 63.28 L 562.50 14.06 L 536.72 2.34 L 487.50 4.69 L 461.72 28.12 L 471.09 42.19" stroke="white" fill="transparent"/>
	<path d = "M 564.84 119.53 L 550.78 124.22 L 527.34 103.12 L 534.38 91.41 L 557.81 86.72 L 569.53 96.09 L 569.53 112.50 L 539.06 114.84" stroke="white" fill="transparent"/>
	<path d = "M 466.41 25.78 L 412.50 32.81" stroke="white" fill="transparent"/>
</svg>