<?xml version="1.0" encoding="UTF-8" standalone="no"?>
<!--Created with ndjsontosvg (https:https://github.com/thompson318/ndjsontosvg) 
	from the simplified Google quickdraw data set. key_id = 5476871183532032-->
<svg width="600" height="600"
	xmlns="http://www.w3.org/2000/svg">
	xmlns:ndjsontosvg="https://github.com/thompson318/ndjsontosvg"
	xmlns:quickdraw="https://quickdraw.withgoogle.com/data"
	xmlns:scikit-surgery="https://doi.org/10.1007/s11548-020-02180-5">

	<rect width="100%" height="100%" fill="black" />
	<path d = "M 16.41 100.78 L 285.94 107.81 L 377.34 98.44 L 386.72 37.50 L 421.88 4.69 L 487.50 2.34 L 550.78 21.09 L 578.91 51.56 L 590.62 79.69 L 595.31 147.66 L 588.28 185.16 L 569.53 227.34 L 536.72 255.47 L 508.59 264.84 L 478.12 260.16 L 450.00 241.41 L 403.12 171.09 L 386.72 159.38 L 302.34 142.97 L 225.00 154.69 L 213.28 185.16 L 201.56 267.19 L 187.50 264.84 L 147.66 206.25 L 138.28 213.28 L 133.59 248.44 L 98.44 196.88 L 77.34 185.16 L 70.31 267.19 L 67.97 276.56 L 53.91 278.91 L 35.16 257.81 L 11.72 203.91 L 0.00 121.88 L 0.00 98.44 L 9.38 96.09" stroke="white" fill="transparent"/>
	<path d = "M 525.00 105.47 L 508.59 67.97 L 496.88 63.28 L 487.50 65.62 L 485.16 79.69 L 494.53 98.44 L 520.31 107.81 L 529.69 89.06 L 517.97 70.31" stroke="white" fill="transparent"/>
</svg>