<?xml version="1.0" encoding="UTF-8" standalone="no"?>
<!--Created with ndjsontosvg (https:https://github.com/thompson318/ndjsontosvg) 
	from the simplified Google quickdraw data set. key_id = 4638772639563776-->
<svg width="600" height="600"
	xmlns="http://www.w3.org/2000/svg">
	xmlns:ndjsontosvg="https://github.com/thompson318/ndjsontosvg"
	xmlns:quickdraw="https://quickdraw.withgoogle.com/data"
	xmlns:scikit-surgery="https://doi.org/10.1007/s11548-020-02180-5">

	<rect width="100%" height="100%" fill="black" />
	<path d = "M 457.03 2.34 L 435.94 0.00 L 426.56 9.38 L 417.19 100.78 L 431.25 128.91 L 461.72 159.38 L 496.88 173.44 L 525.00 173.44 L 555.47 161.72 L 590.62 124.22 L 597.66 103.12 L 592.97 70.31 L 571.88 23.44 L 543.75 7.03 L 442.97 11.72" stroke="white" fill="transparent"/>
	<path d = "M 485.16 67.97 L 487.50 79.69 L 506.25 91.41 L 525.00 91.41 L 532.03 79.69 L 532.03 70.31 L 522.66 63.28 L 501.56 63.28 L 485.16 75.00" stroke="white" fill="transparent"/>
	<path d = "M 419.53 44.53 L 285.94 32.81 L 7.03 28.12 L 2.34 100.78 L 32.81 100.78 L 37.50 72.66 L 39.84 100.78 L 49.22 107.81 L 72.66 105.47 L 72.66 89.06" stroke="white" fill="transparent"/>
</svg>