<?xml version="1.0" encoding="UTF-8" standalone="no"?>
<!--Created with ndjsontosvg (https:https://github.com/thompson318/ndjsontosvg) 
	from the simplified Google quickdraw data set. key_id = 5244979406438400-->
<svg width="600" height="600"
	xmlns="http://www.w3.org/2000/svg">
	xmlns:ndjsontosvg="https://github.com/thompson318/ndjsontosvg"
	xmlns:quickdraw="https://quickdraw.withgoogle.com/data"
	xmlns:scikit-surgery="https://doi.org/10.1007/s11548-020-02180-5">

	<rect width="100%" height="100%" fill="black" />
	<path d = "M 0.00 107.81 L 14.06 142.97 L 67.97 206.25 L 110.16 239.06 L 147.66 246.09 L 196.88 222.66 L 232.03 168.75 L 243.75 114.84 L 236.72 70.31 L 220.31 51.56 L 159.38 14.06 L 110.16 0.00 L 72.66 2.34 L 30.47 23.44 L 7.03 56.25 L 0.00 103.12 L 14.06 128.91" stroke="white" fill="transparent"/>
	<path d = "M 208.59 58.59 L 391.41 93.75 L 595.31 114.84" stroke="white" fill="transparent"/>
	<path d = "M 199.22 121.88 L 335.16 131.25 L 410.16 147.66 L 419.53 154.69 L 417.19 215.62 L 421.88 220.31 L 473.44 215.62 L 461.72 171.09 L 461.72 128.91 L 482.81 140.62 L 546.09 145.31 L 550.78 229.69 L 595.31 180.47 L 590.62 171.09" stroke="white" fill="transparent"/>
	<path d = "M 581.25 128.91 L 574.22 89.06" stroke="white" fill="transparent"/>
</svg>