<?xml version="1.0" encoding="UTF-8" standalone="no"?>
<!--Created with ndjsontosvg (https:https://github.com/thompson318/ndjsontosvg) 
	from the simplified Google quickdraw data set. key_id = 5278530856288256-->
<svg width="600" height="600"
	xmlns="http://www.w3.org/2000/svg">
	xmlns:ndjsontosvg="https://github.com/thompson318/ndjsontosvg"
	xmlns:quickdraw="https://quickdraw.withgoogle.com/data"
	xmlns:scikit-surgery="https://doi.org/10.1007/s11548-020-02180-5">

	<rect width="100%" height="100%" fill="black" />
	<path d = "M 14.06 84.38 L 35.16 79.69 L 203.91 89.06 L 229.69 79.69" stroke="white" fill="transparent"/>
	<path d = "M 0.00 89.06 L 7.03 110.16 L 7.03 182.81 L 39.84 131.25 L 72.66 131.25 L 79.69 138.28 L 82.03 189.84 L 124.22 154.69 L 110.16 131.25 L 173.44 133.59 L 171.09 171.09 L 175.78 175.78 L 220.31 154.69 L 227.34 145.31 L 225.00 119.53 L 428.91 114.84 L 435.94 142.97 L 473.44 171.09 L 510.94 180.47 L 541.41 173.44 L 585.94 124.22 L 597.66 91.41 L 597.66 60.94 L 583.59 32.81 L 543.75 4.69 L 487.50 0.00 L 450.00 11.72 L 417.19 42.19 L 403.12 84.38 L 222.66 91.41" stroke="white" fill="transparent"/>
</svg>