<?xml version="1.0" encoding="UTF-8" standalone="no"?>
<!--Created with ndjsontosvg (https:https://github.com/thompson318/ndjsontosvg) 
	from the simplified Google quickdraw data set. key_id = 6448351044173824-->
<svg width="600" height="600"
	xmlns="http://www.w3.org/2000/svg">
	xmlns:ndjsontosvg="https://github.com/thompson318/ndjsontosvg"
	xmlns:quickdraw="https://quickdraw.withgoogle.com/data"
	xmlns:scikit-surgery="https://doi.org/10.1007/s11548-020-02180-5">

	<rect width="100%" height="100%" fill="black" />
	<path d = "M 267.19 56.25 L 323.44 44.53 L 541.41 49.22 L 595.31 79.69 L 581.25 164.06 L 520.31 164.06 L 499.22 215.62 L 487.50 222.66 L 445.31 196.88 L 457.03 154.69 L 417.19 161.72 L 407.81 166.41 L 384.38 234.38 L 375.00 239.06 L 337.50 229.69 L 337.50 210.94 L 351.56 180.47 L 342.19 161.72 L 278.91 140.62 L 222.66 140.62 L 187.50 157.03 L 119.53 208.59 L 72.66 217.97 L 21.09 185.16 L 0.00 131.25 L 2.34 98.44 L 39.84 16.41 L 93.75 0.00 L 121.88 2.34 L 159.38 14.06 L 199.22 37.50 L 292.97 67.97" stroke="white" fill="transparent"/>
</svg>