<?xml version="1.0" encoding="UTF-8" standalone="no"?>
<!--Created with ndjsontosvg (https:https://github.com/thompson318/ndjsontosvg) 
	from the simplified Google quickdraw data set. key_id = 5883203678109696-->
<svg width="600" height="600"
	xmlns="http://www.w3.org/2000/svg">
	xmlns:ndjsontosvg="https://github.com/thompson318/ndjsontosvg"
	xmlns:quickdraw="https://quickdraw.withgoogle.com/data"
	xmlns:scikit-surgery="https://doi.org/10.1007/s11548-020-02180-5">

	<rect width="100%" height="100%" fill="black" />
	<path d = "M 445.31 152.34 L 426.56 131.25 L 84.38 128.91 L 82.03 152.34 L 93.75 178.12 L 117.19 314.06 L 201.56 325.78 L 356.25 330.47 L 525.00 307.03 L 529.69 278.91 L 513.28 180.47 L 503.91 161.72 L 473.44 154.69" stroke="white" fill="transparent"/>
	<path d = "M 152.34 243.75 L 175.78 248.44 L 217.97 241.41 L 358.59 239.06 L 506.25 229.69 L 513.28 222.66" stroke="white" fill="transparent"/>
	<path d = "M 321.09 133.59 L 332.81 330.47" stroke="white" fill="transparent"/>
	<path d = "M 452.34 150.00 L 452.34 335.16" stroke="white" fill="transparent"/>
	<path d = "M 227.34 112.50 L 220.31 332.81" stroke="white" fill="transparent"/>
	<path d = "M 278.91 124.22 L 281.25 288.28 L 276.56 339.84" stroke="white" fill="transparent"/>
	<path d = "M 196.88 138.28 L 159.38 232.03 L 159.38 300.00 L 166.41 325.78" stroke="white" fill="transparent"/>
	<path d = "M 121.88 239.06 L 135.94 250.78 L 255.47 246.09" stroke="white" fill="transparent"/>
	<path d = "M 53.91 189.84 L 255.47 201.56 L 513.28 201.56" stroke="white" fill="transparent"/>
	<path d = "M 114.84 239.06 L 128.91 255.47 L 220.31 283.59 L 321.09 297.66 L 454.69 297.66 L 525.00 281.25 L 541.41 267.19" stroke="white" fill="transparent"/>
	<path d = "M 459.38 23.44 L 358.59 23.44 L 152.34 49.22 L 70.31 70.31 L 35.16 103.12 L 4.69 103.12 L 0.00 124.22 L 14.06 159.38 L 23.44 225.00 L 60.94 311.72 L 93.75 335.16 L 121.88 344.53 L 588.28 344.53 L 597.66 295.31 L 597.66 145.31 L 592.97 70.31 L 583.59 30.47 L 571.88 4.69 L 548.44 0.00 L 520.31 2.34 L 464.06 28.12" stroke="white" fill="transparent"/>
</svg>