<?xml version="1.0" encoding="UTF-8" standalone="no"?>
<!--Created with ndjsontosvg (https:https://github.com/thompson318/ndjsontosvg) 
	from the simplified Google quickdraw data set. key_id = 5894050215362560-->
<svg width="600" height="600"
	xmlns="http://www.w3.org/2000/svg">
	xmlns:ndjsontosvg="https://github.com/thompson318/ndjsontosvg"
	xmlns:quickdraw="https://quickdraw.withgoogle.com/data"
	xmlns:scikit-surgery="https://doi.org/10.1007/s11548-020-02180-5">

	<rect width="100%" height="100%" fill="black" />
	<path d = "M 58.59 147.66 L 53.91 105.47 L 100.78 32.81 L 138.28 2.34 L 164.06 0.00 L 220.31 4.69 L 246.09 25.78 L 288.28 103.12 L 288.28 138.28 L 271.88 147.66 L 173.44 138.28 L 100.78 138.28 L 35.16 147.66 L 0.00 161.72 L 23.44 255.47 L 39.84 597.66 L 77.34 588.28 L 323.44 597.66 L 325.78 471.09 L 295.31 255.47 L 292.97 194.53 L 297.66 182.81" stroke="white" fill="transparent"/>
	<path d = "M 154.69 578.91 L 166.41 562.50 L 157.03 473.44 L 161.72 459.38 L 178.12 454.69 L 208.59 461.72 L 225.00 485.16 L 225.00 543.75 L 208.59 564.84" stroke="white" fill="transparent"/>
	<path d = "M 208.59 438.28 L 243.75 410.16 L 253.12 360.94 L 239.06 332.81 L 208.59 314.06 L 196.88 297.66 L 182.81 239.06 L 168.75 236.72 L 161.72 283.59 L 117.19 311.72 L 114.84 339.84 L 140.62 386.72 L 140.62 450.00 L 152.34 461.72 L 187.50 468.75" stroke="white" fill="transparent"/>
</svg>