<?xml version="1.0" encoding="UTF-8" standalone="no"?>
<!--Created with ndjsontosvg (https:https://github.com/thompson318/ndjsontosvg) 
	from the simplified Google quickdraw data set. key_id = 4579317323399168-->
<svg width="600" height="600"
	xmlns="http://www.w3.org/2000/svg">
	xmlns:ndjsontosvg="https://github.com/thompson318/ndjsontosvg"
	xmlns:quickdraw="https://quickdraw.withgoogle.com/data"
	xmlns:scikit-surgery="https://doi.org/10.1007/s11548-020-02180-5">

	<rect width="100%" height="100%" fill="black" />
	<path d = "M 304.69 232.03 L 281.25 220.31 L 236.72 215.62 L 82.03 227.34 L 32.81 248.44 L 9.38 274.22 L 11.72 295.31 L 25.78 304.69 L 114.84 318.75 L 133.59 471.09 L 131.25 480.47 L 119.53 485.16 L 7.03 506.25 L 0.00 517.97 L 2.34 536.72 L 44.53 581.25 L 79.69 592.97 L 133.59 597.66 L 363.28 581.25 L 412.50 562.50 L 442.97 529.69 L 438.28 510.94 L 424.22 501.56 L 304.69 452.34 L 307.03 321.09 L 370.31 302.34 L 386.72 276.56 L 351.56 241.41 L 300.00 229.69 L 264.84 232.03" stroke="white" fill="transparent"/>
	<path d = "M 128.91 227.34 L 112.50 159.38 L 121.88 84.38 L 154.69 23.44 L 192.19 0.00 L 243.75 14.06 L 278.91 37.50 L 292.97 65.62 L 278.91 201.56" stroke="white" fill="transparent"/>
	<path d = "M 196.88 346.88 L 185.16 351.56 L 168.75 370.31 L 168.75 400.78 L 199.22 414.84 L 222.66 407.81 L 234.38 379.69 L 210.94 365.62 L 189.84 386.72 L 189.84 400.78 L 201.56 405.47 L 227.34 398.44" stroke="white" fill="transparent"/>
	<path d = "M 328.12 307.03 L 487.50 227.34" stroke="white" fill="transparent"/>
</svg>