<?xml version="1.0" encoding="UTF-8" standalone="no"?>
<!--Created with ndjsontosvg (https:https://github.com/thompson318/ndjsontosvg) 
	from the simplified Google quickdraw data set. key_id = 6334373718654976-->
<svg width="600" height="600"
	xmlns="http://www.w3.org/2000/svg">
	xmlns:ndjsontosvg="https://github.com/thompson318/ndjsontosvg"
	xmlns:quickdraw="https://quickdraw.withgoogle.com/data"
	xmlns:scikit-surgery="https://doi.org/10.1007/s11548-020-02180-5">

	<rect width="100%" height="100%" fill="black" />
	<path d = "M 321.09 217.97 L 309.38 217.97 L 285.94 241.41 L 278.91 300.00 L 290.62 325.78 L 311.72 339.84 L 335.16 335.16 L 346.88 323.44 L 353.91 302.34 L 356.25 264.84 L 339.84 243.75 L 309.38 236.72" stroke="white" fill="transparent"/>
	<path d = "M 325.78 220.31 L 398.44 225.00 L 459.38 243.75 L 485.16 260.16" stroke="white" fill="transparent"/>
	<path d = "M 339.84 328.12 L 440.62 325.78 L 471.09 304.69 L 482.81 285.94" stroke="white" fill="transparent"/>
	<path d = "M 466.41 248.44 L 592.97 250.78 L 597.66 285.94 L 588.28 292.97 L 482.81 300.00" stroke="white" fill="transparent"/>
	<path d = "M 529.69 267.19 L 541.41 276.56 L 529.69 269.53 L 525.00 274.22" stroke="white" fill="transparent"/>
	<path d = "M 353.91 208.59 L 379.69 243.75 L 379.69 281.25 L 353.91 335.16" stroke="white" fill="transparent"/>
	<path d = "M 236.72 178.12 L 178.12 124.22 L 142.97 79.69" stroke="white" fill="transparent"/>
	<path d = "M 220.31 107.81 L 314.06 0.00" stroke="white" fill="transparent"/>
	<path d = "M 391.41 142.97 L 428.91 105.47 L 454.69 96.09 L 480.47 96.09 L 501.56 110.16" stroke="white" fill="transparent"/>
	<path d = "M 452.34 281.25 L 489.84 342.19 L 494.53 389.06" stroke="white" fill="transparent"/>
	<path d = "M 454.69 428.91 L 421.88 525.00 L 407.81 536.72 L 375.00 541.41" stroke="white" fill="transparent"/>
	<path d = "M 274.22 478.12 L 201.56 503.91 L 131.25 503.91 L 114.84 496.88" stroke="white" fill="transparent"/>
	<path d = "M 79.69 393.75 L 7.03 328.12 L 0.00 311.72" stroke="white" fill="transparent"/>
	<path d = "M 58.59 278.91 L 46.88 239.06" stroke="white" fill="transparent"/>
	<path d = "M 227.34 255.47 L 117.19 152.34" stroke="white" fill="transparent"/>
</svg>