<?xml version="1.0" encoding="UTF-8" standalone="no"?>
<!--Created with ndjsontosvg (https:https://github.com/thompson318/ndjsontosvg) 
	from the simplified Google quickdraw data set. key_id = 4981390133166080-->
<svg width="600" height="600"
	xmlns="http://www.w3.org/2000/svg">
	xmlns:ndjsontosvg="https://github.com/thompson318/ndjsontosvg"
	xmlns:quickdraw="https://quickdraw.withgoogle.com/data"
	xmlns:scikit-surgery="https://doi.org/10.1007/s11548-020-02180-5">

	<rect width="100%" height="100%" fill="black" />
	<path d = "M 7.03 227.34 L 37.50 335.16 L 44.53 438.28 L 77.34 548.44" stroke="white" fill="transparent"/>
	<path d = "M 0.00 222.66 L 75.00 271.88 L 114.84 283.59 L 135.94 283.59 L 182.81 269.53 L 227.34 234.38 L 241.41 206.25 L 234.38 178.12 L 196.88 168.75 L 166.41 178.12 L 56.25 257.81 L 39.84 292.97 L 51.56 285.94" stroke="white" fill="transparent"/>
	<path d = "M 253.12 182.81 L 253.12 222.66 L 274.22 309.38 L 283.59 414.84 L 309.38 562.50 L 297.66 571.88 L 189.84 592.97 L 121.88 597.66 L 110.16 590.62" stroke="white" fill="transparent"/>
	<path d = "M 84.38 527.34 L 260.16 473.44 L 332.81 433.59" stroke="white" fill="transparent"/>
	<path d = "M 16.41 253.12 L 4.69 194.53 L 4.69 110.16 L 25.78 44.53 L 72.66 4.69 L 96.09 0.00 L 142.97 7.03 L 199.22 44.53 L 236.72 96.09 L 274.22 199.22" stroke="white" fill="transparent"/>
</svg>