<?xml version="1.0" encoding="UTF-8" standalone="no"?>
<!--Created with ndjsontosvg (https:https://github.com/thompson318/ndjsontosvg) 
	from the simplified Google quickdraw data set. key_id = 5837253186158592-->
<svg width="600" height="600"
	xmlns="http://www.w3.org/2000/svg">
	xmlns:ndjsontosvg="https://github.com/thompson318/ndjsontosvg"
	xmlns:quickdraw="https://quickdraw.withgoogle.com/data"
	xmlns:scikit-surgery="https://doi.org/10.1007/s11548-020-02180-5">

	<rect width="100%" height="100%" fill="black" />
	<path d = "M 135.94 150.00 L 112.50 185.16 L 98.44 229.69 L 82.03 389.06 L 91.41 421.88 L 114.84 459.38 L 168.75 471.09 L 194.53 461.72 L 210.94 440.62 L 215.62 351.56 L 203.91 271.88 L 152.34 150.00" stroke="white" fill="transparent"/>
	<path d = "M 121.88 166.41 L 96.09 166.41 L 72.66 178.12 L 46.88 199.22 L 23.44 246.09 L 9.38 328.12 L 7.03 478.12" stroke="white" fill="transparent"/>
	<path d = "M 133.59 164.06 L 159.38 166.41 L 255.47 215.62 L 304.69 257.81 L 351.56 440.62 L 353.91 478.12 L 346.88 485.16" stroke="white" fill="transparent"/>
	<path d = "M 0.00 475.78 L 32.81 489.84 L 91.41 480.47 L 117.19 468.75" stroke="white" fill="transparent"/>
	<path d = "M 398.44 482.81 L 285.94 482.81 L 260.16 475.78 L 206.25 445.31" stroke="white" fill="transparent"/>
	<path d = "M 168.75 466.41 L 93.75 480.47 L 49.22 506.25 L 39.84 529.69 L 44.53 548.44 L 58.59 567.19 L 82.03 578.91 L 182.81 597.66 L 281.25 590.62 L 344.53 569.53 L 365.62 546.09 L 367.97 529.69 L 346.88 496.88 L 300.00 468.75 L 166.41 442.97" stroke="white" fill="transparent"/>
	<path d = "M 98.44 161.72 L 119.53 114.84 L 133.59 103.12 L 157.03 103.12 L 178.12 112.50 L 199.22 135.94 L 239.06 192.19" stroke="white" fill="transparent"/>
	<path d = "M 103.12 168.75 L 84.38 147.66 L 70.31 110.16 L 67.97 72.66 L 77.34 39.84 L 110.16 7.03 L 126.56 2.34 L 203.91 7.03 L 239.06 28.12 L 257.81 60.94 L 264.84 114.84 L 257.81 215.62" stroke="white" fill="transparent"/>
	<path d = "M 119.53 154.69 L 98.44 121.88 L 103.12 84.38 L 126.56 51.56 L 168.75 39.84 L 203.91 67.97 L 243.75 192.19" stroke="white" fill="transparent"/>
</svg>