<?xml version="1.0" encoding="UTF-8" standalone="no"?>
<!--Created with ndjsontosvg (https:https://github.com/thompson318/ndjsontosvg) 
	from the simplified Google quickdraw data set. key_id = 5571250237734912-->
<svg width="600" height="600"
	xmlns="http://www.w3.org/2000/svg">
	xmlns:ndjsontosvg="https://github.com/thompson318/ndjsontosvg"
	xmlns:quickdraw="https://quickdraw.withgoogle.com/data"
	xmlns:scikit-surgery="https://doi.org/10.1007/s11548-020-02180-5">

	<rect width="100%" height="100%" fill="black" />
	<path d = "M 56.25 138.28 L 65.62 131.25 L 232.03 131.25 L 264.84 164.06 L 278.91 189.84 L 292.97 257.81 L 292.97 349.22 L 262.50 450.00 L 260.16 459.38 L 215.62 480.47 L 154.69 482.81 L 103.12 459.38 L 86.72 407.81 L 77.34 342.19 L 67.97 154.69" stroke="white" fill="transparent"/>
	<path d = "M 75.00 124.22 L 77.34 46.88 L 93.75 9.38 L 119.53 0.00 L 194.53 7.03 L 210.94 98.44" stroke="white" fill="transparent"/>
	<path d = "M 89.06 407.81 L 91.41 407.81" stroke="white" fill="transparent"/>
	<path d = "M 98.44 454.69 L 14.06 475.78 L 0.00 496.88 L 4.69 503.91 L 53.91 543.75 L 100.78 569.53 L 159.38 595.31 L 217.97 597.66 L 276.56 562.50 L 398.44 548.44 L 412.50 532.03 L 414.84 515.62 L 400.78 482.81 L 367.97 459.38 L 234.38 447.66" stroke="white" fill="transparent"/>
	<path d = "M 135.94 452.34 L 112.50 363.28 L 117.19 285.94 L 128.91 253.12 L 171.09 227.34 L 196.88 243.75 L 222.66 307.03 L 229.69 365.62 L 213.28 452.34" stroke="white" fill="transparent"/>
</svg>