<?xml version="1.0" encoding="UTF-8" standalone="no"?>
<!--Created with ndjsontosvg (https:https://github.com/thompson318/ndjsontosvg) 
	from the simplified Google quickdraw data set. key_id = 5036980263976960-->
<svg width="600" height="600"
	xmlns="http://www.w3.org/2000/svg">
	xmlns:ndjsontosvg="https://github.com/thompson318/ndjsontosvg"
	xmlns:quickdraw="https://quickdraw.withgoogle.com/data"
	xmlns:scikit-surgery="https://doi.org/10.1007/s11548-020-02180-5">

	<rect width="100%" height="100%" fill="black" />
	<path d = "M 100.78 597.66 L 53.91 457.03 L 4.69 255.47" stroke="white" fill="transparent"/>
	<path d = "M 0.00 262.50 L 16.41 189.84 L 84.38 16.41" stroke="white" fill="transparent"/>
	<path d = "M 121.88 597.66 L 435.94 569.53 L 522.66 569.53" stroke="white" fill="transparent"/>
	<path d = "M 527.34 569.53 L 508.59 501.56 L 405.47 269.53" stroke="white" fill="transparent"/>
	<path d = "M 405.47 269.53 L 428.91 182.81 L 515.62 0.00 L 98.44 11.72" stroke="white" fill="transparent"/>
	<path d = "M 30.47 260.16 L 262.50 255.47 L 473.44 232.03" stroke="white" fill="transparent"/>
	<path d = "M 147.66 82.03 L 110.16 171.09 L 187.50 185.16 L 351.56 185.16 L 370.31 152.34 L 384.38 58.59 L 365.62 51.56 L 321.09 51.56 L 133.59 67.97" stroke="white" fill="transparent"/>
	<path d = "M 105.47 344.53 L 110.16 344.53" stroke="white" fill="transparent"/>
	<path d = "M 185.16 335.16 L 185.16 332.81" stroke="white" fill="transparent"/>
	<path d = "M 321.09 328.12 L 321.09 328.12" stroke="white" fill="transparent"/>
	<path d = "M 133.59 461.72 L 138.28 461.72" stroke="white" fill="transparent"/>
	<path d = "M 239.06 440.62 L 250.78 435.94" stroke="white" fill="transparent"/>
	<path d = "M 337.50 426.56 L 370.31 421.88" stroke="white" fill="transparent"/>
	<path d = "M 440.62 417.19 L 440.62 417.19" stroke="white" fill="transparent"/>
	<path d = "M 147.66 553.12 L 147.66 553.12" stroke="white" fill="transparent"/>
	<path d = "M 255.47 501.56 L 255.47 529.69 L 269.53 539.06 L 297.66 539.06 L 309.38 522.66 L 309.38 478.12 L 255.47 485.16" stroke="white" fill="transparent"/>
	<path d = "M 241.41 349.22 L 241.41 349.22" stroke="white" fill="transparent"/>
	<path d = "M 316.41 316.41 L 328.12 314.06" stroke="white" fill="transparent"/>
	<path d = "M 358.59 307.03 L 363.28 304.69" stroke="white" fill="transparent"/>
	<path d = "M 389.06 304.69 L 391.41 307.03" stroke="white" fill="transparent"/>
	<path d = "M 403.12 356.25 L 403.12 356.25" stroke="white" fill="transparent"/>
	<path d = "M 323.44 377.34 L 321.09 386.72" stroke="white" fill="transparent"/>
	<path d = "M 269.53 403.12 L 267.19 403.12" stroke="white" fill="transparent"/>
	<path d = "M 248.44 330.47 L 248.44 330.47" stroke="white" fill="transparent"/>
	<path d = "M 79.69 431.25 L 79.69 431.25" stroke="white" fill="transparent"/>
	<path d = "M 124.22 435.94 L 138.28 431.25" stroke="white" fill="transparent"/>
</svg>