<?xml version="1.0" encoding="UTF-8" standalone="no"?>
<!--Created with ndjsontosvg (https:https://github.com/thompson318/ndjsontosvg) 
	from the simplified Google quickdraw data set. key_id = 5361354313564160-->
<svg width="600" height="600"
	xmlns="http://www.w3.org/2000/svg">
	xmlns:ndjsontosvg="https://github.com/thompson318/ndjsontosvg"
	xmlns:quickdraw="https://quickdraw.withgoogle.com/data"
	xmlns:scikit-surgery="https://doi.org/10.1007/s11548-020-02180-5">

	<rect width="100%" height="100%" fill="black" />
	<path d = "M 9.38 292.97 L 7.03 543.75" stroke="white" fill="transparent"/>
	<path d = "M 16.41 290.62 L 53.91 300.00 L 243.75 300.00 L 536.72 325.78 L 546.09 332.81 L 553.12 400.78 L 557.81 562.50 L 541.41 592.97 L 515.62 597.66 L 93.75 578.91 L 0.00 581.25" stroke="white" fill="transparent"/>
	<path d = "M 11.72 295.31 L 9.38 189.84 L 42.19 0.00 L 65.62 9.38 L 290.62 9.38 L 510.94 35.16 L 553.12 51.56 L 562.50 114.84 L 564.84 239.06 L 546.09 349.22" stroke="white" fill="transparent"/>
	<path d = "M 63.28 372.66 L 58.59 405.47 L 82.03 410.16 L 86.72 393.75 L 77.34 367.97" stroke="white" fill="transparent"/>
	<path d = "M 121.88 372.66 L 178.12 372.66 L 192.19 398.44 L 192.19 410.16 L 182.81 414.84 L 201.56 412.50 L 199.22 419.53 L 187.50 421.88 L 119.53 421.88 L 107.81 412.50 L 107.81 403.12 L 131.25 379.69 L 157.03 372.66 L 185.16 391.41" stroke="white" fill="transparent"/>
	<path d = "M 264.84 382.03 L 271.88 372.66 L 281.25 372.66 L 297.66 386.72 L 379.69 400.78" stroke="white" fill="transparent"/>
	<path d = "M 250.78 372.66 L 255.47 414.84 L 264.84 424.22 L 283.59 424.22 L 346.88 421.88 L 349.22 372.66" stroke="white" fill="transparent"/>
	<path d = "M 412.50 407.81 L 410.16 459.38 L 428.91 464.06 L 468.75 452.34 L 473.44 414.84 L 461.72 400.78 L 438.28 391.41 L 400.78 396.09" stroke="white" fill="transparent"/>
	<path d = "M 192.19 503.91 L 182.81 560.16" stroke="white" fill="transparent"/>
	<path d = "M 201.56 480.47 L 304.69 478.12 L 367.97 489.84 L 375.00 496.88 L 370.31 581.25" stroke="white" fill="transparent"/>
	<path d = "M 100.78 75.00 L 135.94 51.56 L 150.00 51.56 L 173.44 75.00 L 356.25 60.94 L 457.03 60.94 L 527.34 70.31 L 548.44 56.25" stroke="white" fill="transparent"/>
</svg>