<?xml version="1.0" encoding="UTF-8" standalone="no"?>
<!--Created with ndjsontosvg (https:https://github.com/thompson318/ndjsontosvg) 
	from the simplified Google quickdraw data set. key_id = 6085530917797888-->
<svg width="600" height="600"
	xmlns="http://www.w3.org/2000/svg">
	xmlns:ndjsontosvg="https://github.com/thompson318/ndjsontosvg"
	xmlns:quickdraw="https://quickdraw.withgoogle.com/data"
	xmlns:scikit-surgery="https://doi.org/10.1007/s11548-020-02180-5">

	<rect width="100%" height="100%" fill="black" />
	<path d = "M 23.44 18.75 L 11.72 192.19 L 14.06 377.34" stroke="white" fill="transparent"/>
	<path d = "M 32.81 0.00 L 65.62 14.06 L 150.00 23.44 L 356.25 42.19 L 588.28 53.91 L 592.97 128.91 L 588.28 232.03 L 553.12 382.03 L 543.75 447.66 L 180.47 431.25 L 84.38 412.50 L 23.44 391.41" stroke="white" fill="transparent"/>
	<path d = "M 0.00 384.38 L 21.09 588.28 L 548.44 597.66 L 536.72 442.97" stroke="white" fill="transparent"/>
	<path d = "M 51.56 410.16 L 58.59 478.12 L 126.56 480.47 L 96.09 435.94 L 63.28 421.88" stroke="white" fill="transparent"/>
	<path d = "M 110.16 482.81 L 133.59 478.12 L 255.47 485.16 L 499.22 525.00 L 581.25 525.00" stroke="white" fill="transparent"/>
	<path d = "M 114.84 450.00 L 292.97 450.00 L 363.28 464.06 L 461.72 496.88 L 553.12 506.25 L 553.12 510.94" stroke="white" fill="transparent"/>
	<path d = "M 222.66 435.94 L 241.41 475.78" stroke="white" fill="transparent"/>
	<path d = "M 370.31 450.00 L 386.72 475.78 L 433.59 494.53" stroke="white" fill="transparent"/>
	<path d = "M 501.56 452.34 L 503.91 468.75 L 550.78 534.38" stroke="white" fill="transparent"/>
	<path d = "M 539.06 510.94 L 541.41 569.53" stroke="white" fill="transparent"/>
	<path d = "M 262.50 553.12 L 269.53 574.22 L 285.94 590.62" stroke="white" fill="transparent"/>
	<path d = "M 196.88 506.25 L 208.59 546.09" stroke="white" fill="transparent"/>
</svg>