<?xml version="1.0" encoding="UTF-8" standalone="no"?>
<!--Created with ndjsontosvg (https:https://github.com/thompson318/ndjsontosvg) 
	from the simplified Google quickdraw data set. key_id = 5570166123397120-->
<svg width="600" height="600"
	xmlns="http://www.w3.org/2000/svg">
	xmlns:ndjsontosvg="https://github.com/thompson318/ndjsontosvg"
	xmlns:quickdraw="https://quickdraw.withgoogle.com/data"
	xmlns:scikit-surgery="https://doi.org/10.1007/s11548-020-02180-5">

	<rect width="100%" height="100%" fill="black" />
	<path d = "M 358.59 335.16 L 358.59 335.16" stroke="white" fill="transparent"/>
	<path d = "M 21.09 302.34 L 30.47 28.12 L 105.47 37.50 L 262.50 32.81 L 391.41 0.00 L 403.12 192.19 L 419.53 316.41" stroke="white" fill="transparent"/>
	<path d = "M 46.88 311.72 L 161.72 300.00 L 262.50 309.38 L 344.53 307.03 L 464.06 290.62" stroke="white" fill="transparent"/>
	<path d = "M 18.75 351.56 L 56.25 353.91 L 325.78 447.66 L 457.03 480.47 L 471.09 475.78 L 597.66 358.59 L 442.97 318.75" stroke="white" fill="transparent"/>
	<path d = "M 7.03 339.84 L 0.00 382.03 L 7.03 419.53 L 51.56 421.88 L 189.84 457.03 L 379.69 517.97 L 454.69 527.34 L 499.22 475.78 L 571.88 419.53 L 592.97 384.38" stroke="white" fill="transparent"/>
</svg>