<?xml version="1.0" encoding="UTF-8" standalone="no"?>
<!--Created with ndjsontosvg (https:https://github.com/thompson318/ndjsontosvg) 
	from the simplified Google quickdraw data set. key_id = 5149308175253504-->
<svg width="600" height="600"
	xmlns="http://www.w3.org/2000/svg">
	xmlns:ndjsontosvg="https://github.com/thompson318/ndjsontosvg"
	xmlns:quickdraw="https://quickdraw.withgoogle.com/data"
	xmlns:scikit-surgery="https://doi.org/10.1007/s11548-020-02180-5">

	<rect width="100%" height="100%" fill="black" />
	<path d = "M 142.97 49.22 L 131.25 65.62 L 98.44 91.41 L 63.28 131.25 L 11.72 201.56 L 0.00 241.41 L 0.00 339.84 L 32.81 389.06 L 82.03 445.31 L 114.84 468.75 L 161.72 489.84 L 194.53 520.31 L 227.34 597.66 L 225.00 459.38 L 229.69 435.94 L 260.16 377.34 L 307.03 323.44 L 356.25 290.62 L 377.34 262.50 L 382.03 196.88 L 372.66 161.72 L 309.38 91.41 L 267.19 58.59 L 168.75 0.00" stroke="white" fill="transparent"/>
	<path d = "M 164.06 35.16 L 166.41 91.41 L 194.53 171.09 L 194.53 199.22 L 215.62 234.38 L 220.31 276.56 L 208.59 450.00" stroke="white" fill="transparent"/>
	<path d = "M 154.69 199.22 L 142.97 250.78 L 112.50 307.03 L 35.16 386.72 L 32.81 372.66 L 39.84 363.28" stroke="white" fill="transparent"/>
	<path d = "M 194.53 199.22 L 206.25 194.53 L 260.16 239.06" stroke="white" fill="transparent"/>
	<path d = "M 175.78 79.69 L 77.34 178.12" stroke="white" fill="transparent"/>
</svg>