<?xml version="1.0" encoding="UTF-8" standalone="no"?>
<!--Created with ndjsontosvg (https:https://github.com/thompson318/ndjsontosvg) 
	from the simplified Google quickdraw data set. key_id = 4692095921029120-->
<svg width="600" height="600"
	xmlns="http://www.w3.org/2000/svg">
	xmlns:ndjsontosvg="https://github.com/thompson318/ndjsontosvg"
	xmlns:quickdraw="https://quickdraw.withgoogle.com/data"
	xmlns:scikit-surgery="https://doi.org/10.1007/s11548-020-02180-5">

	<rect width="100%" height="100%" fill="black" />
	<path d = "M 358.59 0.00 L 316.41 46.88 L 281.25 98.44 L 248.44 182.81 L 232.03 276.56 L 121.88 426.56 L 96.09 492.19" stroke="white" fill="transparent"/>
	<path d = "M 471.09 46.88 L 473.44 58.59 L 412.50 203.91 L 375.00 267.19 L 307.03 344.53 L 302.34 377.34 L 269.53 440.62 L 206.25 527.34" stroke="white" fill="transparent"/>
	<path d = "M 100.78 494.53 L 56.25 475.78 L 14.06 473.44 L 0.00 489.84 L 7.03 541.41 L 23.44 560.16 L 112.50 581.25 L 145.31 597.66 L 178.12 541.41 L 196.88 522.66" stroke="white" fill="transparent"/>
	<path d = "M 503.91 384.38 L 393.75 307.03" stroke="white" fill="transparent"/>
	<path d = "M 370.31 300.00 L 398.44 356.25" stroke="white" fill="transparent"/>
	<path d = "M 370.31 300.00 L 435.94 281.25" stroke="white" fill="transparent"/>
	<path d = "M 398.44 358.59 L 447.66 278.91" stroke="white" fill="transparent"/>
</svg>