<?xml version="1.0" encoding="UTF-8" standalone="no"?>
<!--Created with ndjsontosvg (https:https://github.com/thompson318/ndjsontosvg) 
	from the simplified Google quickdraw data set. key_id = 6066695753957376-->
<svg width="600" height="600"
	xmlns="http://www.w3.org/2000/svg">
	xmlns:ndjsontosvg="https://github.com/thompson318/ndjsontosvg"
	xmlns:quickdraw="https://quickdraw.withgoogle.com/data"
	xmlns:scikit-surgery="https://doi.org/10.1007/s11548-020-02180-5">

	<rect width="100%" height="100%" fill="black" />
	<path d = "M 0.00 28.12 L 32.81 222.66 L 65.62 480.47" stroke="white" fill="transparent"/>
	<path d = "M 119.53 0.00 L 138.28 140.62 L 157.03 435.94" stroke="white" fill="transparent"/>
	<path d = "M 157.03 438.28 L 210.94 410.16 L 297.66 389.06 L 375.00 386.72 L 386.72 391.41 L 386.72 410.16 L 311.72 450.00 L 274.22 459.38 L 344.53 452.34 L 391.41 457.03 L 391.41 473.44 L 335.16 496.88 L 363.28 515.62 L 375.00 534.38 L 307.03 550.78 L 337.50 564.84 L 335.16 578.91 L 253.12 595.31 L 201.56 597.66 L 112.50 562.50 L 77.34 546.09 L 56.25 517.97 L 53.91 501.56 L 75.00 466.41" stroke="white" fill="transparent"/>
</svg>