<?xml version="1.0" encoding="UTF-8" standalone="no"?>
<!--Created with ndjsontosvg (https:https://github.com/thompson318/ndjsontosvg) 
	from the simplified Google quickdraw data set. key_id = 6555735460675584-->
<svg width="600" height="600"
	xmlns="http://www.w3.org/2000/svg">
	xmlns:ndjsontosvg="https://github.com/thompson318/ndjsontosvg"
	xmlns:quickdraw="https://quickdraw.withgoogle.com/data"
	xmlns:scikit-surgery="https://doi.org/10.1007/s11548-020-02180-5">

	<rect width="100%" height="100%" fill="black" />
	<path d = "M 124.22 379.69 L 25.78 377.34 L 9.38 382.03 L 0.00 410.16 L 2.34 428.91 L 58.59 454.69 L 98.44 468.75 L 274.22 466.41 L 292.97 445.31 L 307.03 403.12 L 307.03 332.81 L 281.25 253.12 L 260.16 133.59 L 213.28 126.56 L 199.22 147.66 L 199.22 241.41 L 187.50 271.88 L 180.47 342.19 L 145.31 365.62 L 103.12 365.62" stroke="white" fill="transparent"/>
	<path d = "M 196.88 208.59 L 196.88 72.66 L 210.94 25.78 L 227.34 7.03 L 281.25 0.00 L 595.31 9.38 L 592.97 75.00 L 585.94 77.34 L 295.31 86.72 L 283.59 112.50 L 274.22 168.75 L 316.41 382.03" stroke="white" fill="transparent"/>
</svg>