<?xml version="1.0" encoding="UTF-8" standalone="no"?>
<!--Created with ndjsontosvg (https:https://github.com/thompson318/ndjsontosvg) 
	from the simplified Google quickdraw data set. key_id = 4606386728075264-->
<svg width="600" height="600"
	xmlns="http://www.w3.org/2000/svg">
	xmlns:ndjsontosvg="https://github.com/thompson318/ndjsontosvg"
	xmlns:quickdraw="https://quickdraw.withgoogle.com/data"
	xmlns:scikit-surgery="https://doi.org/10.1007/s11548-020-02180-5">

	<rect width="100%" height="100%" fill="black" />
	<path d = "M 53.91 595.31 L 72.66 597.66 L 103.12 569.53 L 135.94 510.94 L 152.34 393.75 L 159.38 267.19 L 147.66 260.16 L 103.12 264.84 L 100.78 203.91 L 166.41 203.91 L 171.09 194.53 L 152.34 178.12 L 157.03 105.47 L 225.00 114.84 L 227.34 124.22 L 215.62 142.97 L 208.59 189.84 L 274.22 201.56 L 281.25 260.16 L 269.53 267.19 L 203.91 262.50 L 215.62 281.25 L 220.31 311.72 L 229.69 515.62 L 290.62 592.97" stroke="white" fill="transparent"/>
	<path d = "M 145.31 276.56 L 229.69 290.62" stroke="white" fill="transparent"/>
	<path d = "M 145.31 342.19 L 215.62 353.91" stroke="white" fill="transparent"/>
	<path d = "M 124.22 403.12 L 135.94 412.50 L 210.94 417.19" stroke="white" fill="transparent"/>
	<path d = "M 126.56 525.00 L 159.38 543.75 L 220.31 548.44" stroke="white" fill="transparent"/>
	<path d = "M 150.00 225.00 L 173.44 222.66 L 180.47 166.41 L 185.16 215.62 L 196.88 222.66 L 234.38 222.66" stroke="white" fill="transparent"/>
	<path d = "M 382.03 114.84 L 365.62 124.22 L 278.91 232.03" stroke="white" fill="transparent"/>
	<path d = "M 337.50 23.44 L 243.75 161.72" stroke="white" fill="transparent"/>
	<path d = "M 180.47 0.00 L 180.47 70.31 L 196.88 96.09" stroke="white" fill="transparent"/>
	<path d = "M 79.69 56.25 L 89.06 89.06 L 107.81 107.81" stroke="white" fill="transparent"/>
	<path d = "M 0.00 171.09 L 89.06 217.97" stroke="white" fill="transparent"/>
</svg>