<?xml version="1.0" encoding="UTF-8" standalone="no"?>
<!--Created with ndjsontosvg (https:https://github.com/thompson318/ndjsontosvg) 
	from the simplified Google quickdraw data set. key_id = 5377278005477376-->
<svg width="600" height="600"
	xmlns="http://www.w3.org/2000/svg">
	xmlns:ndjsontosvg="https://github.com/thompson318/ndjsontosvg"
	xmlns:quickdraw="https://quickdraw.withgoogle.com/data"
	xmlns:scikit-surgery="https://doi.org/10.1007/s11548-020-02180-5">

	<rect width="100%" height="100%" fill="black" />
	<path d = "M 431.25 9.38 L 412.50 98.44 L 323.44 339.84" stroke="white" fill="transparent"/>
	<path d = "M 450.00 7.03 L 447.66 58.59 L 419.53 199.22 L 417.19 335.16" stroke="white" fill="transparent"/>
	<path d = "M 431.25 4.69 L 452.34 4.69" stroke="white" fill="transparent"/>
	<path d = "M 421.88 32.81 L 424.22 46.88 L 440.62 46.88 L 454.69 25.78 L 450.00 7.03 L 438.28 2.34 L 421.88 7.03 L 421.88 37.50" stroke="white" fill="transparent"/>
	<path d = "M 421.88 37.50 L 457.03 35.16" stroke="white" fill="transparent"/>
	<path d = "M 464.06 7.03 L 597.66 14.06 L 569.53 72.66 L 450.00 0.00" stroke="white" fill="transparent"/>
	<path d = "M 375.00 28.12 L 248.44 35.16 L 243.75 44.53 L 250.78 105.47 L 302.34 82.03 L 393.75 16.41" stroke="white" fill="transparent"/>
	<path d = "M 0.00 281.25 L 28.12 267.19 L 63.28 267.19" stroke="white" fill="transparent"/>
</svg>