<?xml version="1.0" encoding="UTF-8" standalone="no"?>
<!--Created with ndjsontosvg (https:https://github.com/thompson318/ndjsontosvg) 
	from the simplified Google quickdraw data set. key_id = 6595272966668288-->
<svg width="600" height="600"
	xmlns="http://www.w3.org/2000/svg">
	xmlns:ndjsontosvg="https://github.com/thompson318/ndjsontosvg"
	xmlns:quickdraw="https://quickdraw.withgoogle.com/data"
	xmlns:scikit-surgery="https://doi.org/10.1007/s11548-020-02180-5">

	<rect width="100%" height="100%" fill="black" />
	<path d = "M 318.75 232.03 L 283.59 232.03 L 255.47 243.75 L 206.25 283.59 L 189.84 307.03 L 182.81 337.50 L 182.81 426.56 L 199.22 452.34 L 241.41 478.12 L 297.66 487.50 L 389.06 487.50 L 412.50 468.75 L 426.56 426.56 L 428.91 316.41 L 405.47 255.47 L 382.03 229.69 L 349.22 217.97" stroke="white" fill="transparent"/>
	<path d = "M 253.12 480.47 L 253.12 567.19 L 264.84 578.91 L 372.66 578.91 L 375.00 489.84" stroke="white" fill="transparent"/>
	<path d = "M 300.00 515.62 L 297.66 525.00" stroke="white" fill="transparent"/>
	<path d = "M 271.88 522.66 L 304.69 522.66 L 365.62 506.25" stroke="white" fill="transparent"/>
	<path d = "M 253.12 529.69 L 349.22 536.72" stroke="white" fill="transparent"/>
	<path d = "M 295.31 557.81 L 377.34 557.81" stroke="white" fill="transparent"/>
	<path d = "M 466.41 356.25 L 508.59 356.25 L 567.19 330.47 L 592.97 300.00 L 595.31 264.84" stroke="white" fill="transparent"/>
	<path d = "M 431.25 178.12 L 480.47 110.16 L 489.84 70.31" stroke="white" fill="transparent"/>
	<path d = "M 255.47 140.62 L 222.66 70.31 L 194.53 35.16 L 152.34 0.00" stroke="white" fill="transparent"/>
	<path d = "M 75.00 173.44 L 0.00 121.88" stroke="white" fill="transparent"/>
</svg>