<?xml version="1.0" encoding="UTF-8" standalone="no"?>
<!--Created with ndjsontosvg (https:https://github.com/thompson318/ndjsontosvg) 
	from the simplified Google quickdraw data set. key_id = 6230267670822912-->
<svg width="600" height="600"
	xmlns="http://www.w3.org/2000/svg">
	xmlns:ndjsontosvg="https://github.com/thompson318/ndjsontosvg"
	xmlns:quickdraw="https://quickdraw.withgoogle.com/data"
	xmlns:scikit-surgery="https://doi.org/10.1007/s11548-020-02180-5">

	<rect width="100%" height="100%" fill="black" />
	<path d = "M 0.00 98.44 L 32.81 105.47 L 112.50 105.47 L 213.28 89.06 L 236.72 77.34" stroke="white" fill="transparent"/>
	<path d = "M 23.44 98.44 L 53.91 295.31 L 25.78 461.72 L 23.44 548.44 L 37.50 592.97 L 53.91 597.66 L 201.56 574.22 L 217.97 553.12 L 217.97 229.69 L 225.00 194.53 L 225.00 126.56 L 208.59 93.75 L 217.97 121.88 L 250.78 147.66 L 271.88 138.28 L 274.22 103.12 L 267.19 56.25 L 250.78 35.16 L 241.41 35.16 L 201.56 65.62 L 194.53 84.38" stroke="white" fill="transparent"/>
	<path d = "M 9.38 84.38 L 21.09 60.94 L 32.81 0.00 L 175.78 11.72 L 178.12 39.84 L 168.75 60.94" stroke="white" fill="transparent"/>
</svg>