<?xml version="1.0" encoding="UTF-8" standalone="no"?>
<!--Created with ndjsontosvg (https:https://github.com/thompson318/ndjsontosvg) 
	from the simplified Google quickdraw data set. key_id = 5112082116640768-->
<svg width="600" height="600"
	xmlns="http://www.w3.org/2000/svg">
	xmlns:ndjsontosvg="https://github.com/thompson318/ndjsontosvg"
	xmlns:quickdraw="https://quickdraw.withgoogle.com/data"
	xmlns:scikit-surgery="https://doi.org/10.1007/s11548-020-02180-5">

	<rect width="100%" height="100%" fill="black" />
	<path d = "M 49.22 597.66 L 51.56 457.03" stroke="white" fill="transparent"/>
	<path d = "M 42.19 597.66 L 39.84 567.19" stroke="white" fill="transparent"/>
	<path d = "M 56.25 464.06 L 51.56 407.81 L 56.25 225.00" stroke="white" fill="transparent"/>
	<path d = "M 262.50 597.66 L 264.84 567.19" stroke="white" fill="transparent"/>
	<path d = "M 243.75 208.59 L 236.72 353.91 L 274.22 592.97" stroke="white" fill="transparent"/>
	<path d = "M 241.41 199.22 L 271.88 206.25 L 403.12 206.25" stroke="white" fill="transparent"/>
	<path d = "M 63.28 227.34 L 0.00 234.38 L 23.44 171.09 L 21.09 32.81" stroke="white" fill="transparent"/>
	<path d = "M 405.47 196.88 L 386.72 0.00" stroke="white" fill="transparent"/>
	<path d = "M 225.00 185.16 L 210.94 175.78 L 159.38 175.78 L 72.66 187.50" stroke="white" fill="transparent"/>
	<path d = "M 201.56 150.00 L 201.56 103.12 L 178.12 51.56" stroke="white" fill="transparent"/>
	<path d = "M 187.50 70.31 L 180.47 63.28 L 142.97 65.62 L 107.81 79.69 L 98.44 103.12 L 114.84 117.19 L 175.78 124.22 L 203.91 114.84 L 222.66 93.75 L 222.66 75.00 L 203.91 58.59 L 145.31 51.56" stroke="white" fill="transparent"/>
	<path d = "M 114.84 117.19 L 119.53 180.47" stroke="white" fill="transparent"/>
	<path d = "M 196.88 121.88 L 194.53 178.12" stroke="white" fill="transparent"/>
</svg>