<?xml version="1.0" encoding="UTF-8" standalone="no"?>
<!--Created with ndjsontosvg (https:https://github.com/thompson318/ndjsontosvg) 
	from the simplified Google quickdraw data set. key_id = 5760285757407232-->
<svg width="600" height="600"
	xmlns="http://www.w3.org/2000/svg">
	xmlns:ndjsontosvg="https://github.com/thompson318/ndjsontosvg"
	xmlns:quickdraw="https://quickdraw.withgoogle.com/data"
	xmlns:scikit-surgery="https://doi.org/10.1007/s11548-020-02180-5">

	<rect width="100%" height="100%" fill="black" />
	<path d = "M 35.16 91.41 L 35.16 65.62 L 67.97 30.47 L 114.84 23.44 L 131.25 32.81 L 152.34 14.06 L 178.12 4.69 L 246.09 2.34 L 276.56 16.41 L 285.94 42.19 L 379.69 37.50 L 426.56 60.94 L 442.97 82.03 L 447.66 112.50 L 473.44 110.16 L 496.88 131.25 L 499.22 150.00 L 487.50 168.75 L 431.25 187.50 L 377.34 192.19 L 328.12 171.09 L 281.25 201.56 L 232.03 210.94 L 157.03 206.25 L 98.44 178.12 L 16.41 192.19 L 7.03 187.50 L 0.00 168.75 L 4.69 135.94 L 30.47 110.16 L 58.59 96.09" stroke="white" fill="transparent"/>
	<path d = "M 234.38 227.34 L 229.69 243.75 L 175.78 321.09 L 166.41 346.88 L 257.81 396.09 L 168.75 578.91 L 166.41 595.31 L 173.44 595.31 L 349.22 412.50 L 337.50 393.75 L 260.16 363.28 L 222.66 335.16 L 222.66 323.44 L 264.84 253.12 L 276.56 215.62 L 276.56 208.59 L 267.19 208.59 L 243.75 217.97" stroke="white" fill="transparent"/>
</svg>