<?xml version="1.0" encoding="UTF-8" standalone="no"?>
<!--Created with ndjsontosvg (https:https://github.com/thompson318/ndjsontosvg) 
	from the simplified Google quickdraw data set. key_id = 6576319728975872-->
<svg width="600" height="600"
	xmlns="http://www.w3.org/2000/svg">
	xmlns:ndjsontosvg="https://github.com/thompson318/ndjsontosvg"
	xmlns:quickdraw="https://quickdraw.withgoogle.com/data"
	xmlns:scikit-surgery="https://doi.org/10.1007/s11548-020-02180-5">

	<rect width="100%" height="100%" fill="black" />
	<path d = "M 142.97 517.97 L 142.97 452.34 L 131.25 391.41 L 103.12 356.25 L 30.47 292.97 L 7.03 246.09 L 2.34 199.22 L 23.44 135.94 L 91.41 63.28 L 192.19 14.06 L 274.22 0.00 L 367.97 7.03 L 417.19 25.78 L 452.34 49.22 L 492.19 112.50 L 499.22 164.06 L 461.72 225.00 L 246.09 398.44 L 234.38 419.53 L 232.03 494.53 L 220.31 515.62 L 210.94 522.66 L 152.34 520.31 L 133.59 527.34 L 128.91 548.44 L 140.62 576.56 L 171.09 597.66 L 189.84 597.66 L 215.62 585.94 L 239.06 557.81 L 241.41 536.72 L 227.34 510.94" stroke="white" fill="transparent"/>
</svg>