<?xml version="1.0" encoding="UTF-8" standalone="no"?>
<!--Created with ndjsontosvg (https:https://github.com/thompson318/ndjsontosvg) 
	from the simplified Google quickdraw data set. key_id = 4511907023159296-->
<svg width="600" height="600"
	xmlns="http://www.w3.org/2000/svg">
	xmlns:ndjsontosvg="https://github.com/thompson318/ndjsontosvg"
	xmlns:quickdraw="https://quickdraw.withgoogle.com/data"
	xmlns:scikit-surgery="https://doi.org/10.1007/s11548-020-02180-5">

	<rect width="100%" height="100%" fill="black" />
	<path d = "M 63.28 178.12 L 30.47 367.97 L 18.75 517.97 L 0.00 592.97 L 14.06 597.66 L 114.84 571.88 L 403.12 560.16 L 417.19 543.75 L 398.44 445.31 L 396.09 377.34 L 375.00 260.16 L 360.94 114.84 L 307.03 82.03 L 168.75 21.09 L 93.75 93.75 L 51.56 166.41 L 51.56 173.44 L 63.28 178.12" stroke="white" fill="transparent"/>
	<path d = "M 217.97 93.75 L 232.03 119.53 L 253.12 131.25 L 274.22 67.97 L 253.12 63.28 L 222.66 91.41" stroke="white" fill="transparent"/>
	<path d = "M 222.66 91.41 L 330.47 35.16 L 424.22 0.00" stroke="white" fill="transparent"/>
	<path d = "M 253.12 100.78 L 323.44 138.28 L 510.94 208.59" stroke="white" fill="transparent"/>
	<path d = "M 253.12 100.78 L 309.38 98.44 L 389.06 77.34 L 466.41 72.66" stroke="white" fill="transparent"/>
	<path d = "M 234.38 117.19 L 300.00 157.03 L 419.53 185.16" stroke="white" fill="transparent"/>
	<path d = "M 257.81 103.12 L 257.81 103.12" stroke="white" fill="transparent"/>
</svg>