<?xml version="1.0" encoding="UTF-8" standalone="no"?>
<!--Created with ndjsontosvg (https:https://github.com/thompson318/ndjsontosvg) 
	from the simplified Google quickdraw data set. key_id = 4863898639400960-->
<svg width="600" height="600"
	xmlns="http://www.w3.org/2000/svg">
	xmlns:ndjsontosvg="https://github.com/thompson318/ndjsontosvg"
	xmlns:quickdraw="https://quickdraw.withgoogle.com/data"
	xmlns:scikit-surgery="https://doi.org/10.1007/s11548-020-02180-5">

	<rect width="100%" height="100%" fill="black" />
	<path d = "M 23.44 590.62 L 30.47 529.69 L 11.72 447.66 L 0.00 304.69 L 4.69 182.81 L 187.50 178.12 L 208.59 192.19 L 217.97 248.44 L 217.97 311.72 L 194.53 489.84 L 194.53 548.44 L 185.16 557.81 L 58.59 597.66" stroke="white" fill="transparent"/>
	<path d = "M 112.50 173.44 L 91.41 82.03 L 91.41 51.56 L 103.12 28.12" stroke="white" fill="transparent"/>
	<path d = "M 112.50 18.75 L 142.97 4.69 L 178.12 0.00 L 208.59 39.84 L 208.59 63.28 L 166.41 89.06 L 117.19 98.44 L 89.06 70.31 L 96.09 39.84" stroke="white" fill="transparent"/>
	<path d = "M 232.03 89.06 L 325.78 152.34" stroke="white" fill="transparent"/>
	<path d = "M 208.59 133.59 L 239.06 147.66 L 335.16 208.59" stroke="white" fill="transparent"/>
	<path d = "M 271.88 239.06 L 358.59 351.56 L 391.41 372.66" stroke="white" fill="transparent"/>
	<path d = "M 271.88 206.25 L 316.41 243.75 L 349.22 257.81" stroke="white" fill="transparent"/>
</svg>