<?xml version="1.0" encoding="UTF-8" standalone="no"?>
<!--Created with ndjsontosvg (https:https://github.com/thompson318/ndjsontosvg) 
	from the simplified Google quickdraw data set. key_id = 6159242920722432-->
<svg width="600" height="600"
	xmlns="http://www.w3.org/2000/svg">
	xmlns:ndjsontosvg="https://github.com/thompson318/ndjsontosvg"
	xmlns:quickdraw="https://quickdraw.withgoogle.com/data"
	xmlns:scikit-surgery="https://doi.org/10.1007/s11548-020-02180-5">

	<rect width="100%" height="100%" fill="black" />
	<path d = "M 30.47 107.81 L 65.62 117.19 L 166.41 114.84 L 168.75 56.25 L 180.47 28.12 L 210.94 18.75 L 318.75 14.06 L 323.44 23.44 L 323.44 119.53 L 400.78 393.75 L 426.56 597.66 L 328.12 578.91 L 110.16 578.91 L 96.09 569.53 L 44.53 309.38 L 4.69 168.75 L 0.00 121.88 L 11.72 103.12" stroke="white" fill="transparent"/>
	<path d = "M 18.75 103.12 L 16.41 56.25 L 28.12 30.47 L 51.56 4.69 L 86.72 0.00 L 128.91 44.53 L 147.66 112.50" stroke="white" fill="transparent"/>
	<path d = "M 166.41 67.97 L 222.66 82.03 L 283.59 82.03 L 314.06 70.31" stroke="white" fill="transparent"/>
	<path d = "M 164.06 480.47 L 236.72 480.47 L 316.41 466.41" stroke="white" fill="transparent"/>
</svg>