<?xml version="1.0" encoding="UTF-8" standalone="no"?>
<!--Created with ndjsontosvg (https:https://github.com/thompson318/ndjsontosvg) 
	from the simplified Google quickdraw data set. key_id = 5366551525982208-->
<svg width="600" height="600"
	xmlns="http://www.w3.org/2000/svg">
	xmlns:ndjsontosvg="https://github.com/thompson318/ndjsontosvg"
	xmlns:quickdraw="https://quickdraw.withgoogle.com/data"
	xmlns:scikit-surgery="https://doi.org/10.1007/s11548-020-02180-5">

	<rect width="100%" height="100%" fill="black" />
	<path d = "M 9.38 253.12 L 0.00 311.72 L 0.00 461.72 L 21.09 585.94 L 35.16 597.66 L 147.66 590.62 L 185.16 581.25 L 276.56 581.25 L 255.47 372.66 L 255.47 234.38 L 246.09 147.66 L 229.69 128.91 L 133.59 138.28 L 107.81 152.34 L 100.78 173.44 L 96.09 239.06 L 70.31 243.75 L 7.03 234.38" stroke="white" fill="transparent"/>
	<path d = "M 7.03 234.38 L 2.34 173.44 L 7.03 145.31 L 18.75 138.28 L 89.06 164.06 L 96.09 180.47 L 91.41 234.38" stroke="white" fill="transparent"/>
	<path d = "M 161.72 124.22 L 159.38 98.44 L 142.97 72.66 L 140.62 25.78 L 171.09 0.00" stroke="white" fill="transparent"/>
</svg>