<?xml version="1.0" encoding="UTF-8" standalone="no"?>
<!--Created with ndjsontosvg (https:https://github.com/thompson318/ndjsontosvg) 
	from the simplified Google quickdraw data set. key_id = 6221133332348928-->
<svg width="600" height="600"
	xmlns="http://www.w3.org/2000/svg">
	xmlns:ndjsontosvg="https://github.com/thompson318/ndjsontosvg"
	xmlns:quickdraw="https://quickdraw.withgoogle.com/data"
	xmlns:scikit-surgery="https://doi.org/10.1007/s11548-020-02180-5">

	<rect width="100%" height="100%" fill="black" />
	<path d = "M 185.16 597.66 L 171.09 487.50 L 164.06 325.78 L 161.72 135.94 L 166.41 124.22 L 281.25 110.16 L 346.88 112.50 L 353.91 121.88 L 363.28 166.41 L 367.97 281.25 L 346.88 466.41 L 365.62 539.06" stroke="white" fill="transparent"/>
	<path d = "M 173.44 121.88 L 222.66 11.72 L 229.69 7.03 L 297.66 0.00 L 367.97 21.09 L 365.62 124.22" stroke="white" fill="transparent"/>
	<path d = "M 271.88 103.12 L 269.53 79.69 L 274.22 70.31 L 316.41 67.97 L 335.16 82.03 L 339.84 98.44 L 328.12 117.19 L 316.41 121.88" stroke="white" fill="transparent"/>
	<path d = "M 274.22 91.41 L 213.28 49.22 L 126.56 14.06 L 110.16 0.00" stroke="white" fill="transparent"/>
	<path d = "M 281.25 107.81 L 117.19 72.66 L 65.62 75.00" stroke="white" fill="transparent"/>
	<path d = "M 246.09 117.19 L 0.00 100.78" stroke="white" fill="transparent"/>
</svg>