<?xml version="1.0" encoding="UTF-8" standalone="no"?>
<!--Created with ndjsontosvg (https:https://github.com/thompson318/ndjsontosvg) 
	from the simplified Google quickdraw data set. key_id = 6260522057990144-->
<svg width="600" height="600"
	xmlns="http://www.w3.org/2000/svg">
	xmlns:ndjsontosvg="https://github.com/thompson318/ndjsontosvg"
	xmlns:quickdraw="https://quickdraw.withgoogle.com/data"
	xmlns:scikit-surgery="https://doi.org/10.1007/s11548-020-02180-5">

	<rect width="100%" height="100%" fill="black" />
	<path d = "M 79.69 140.62 L 58.59 398.44 L 28.12 510.94 L 0.00 581.25" stroke="white" fill="transparent"/>
	<path d = "M 206.25 133.59 L 194.53 180.47 L 185.16 300.00 L 185.16 407.81 L 213.28 588.28 L 199.22 595.31 L 46.88 595.31" stroke="white" fill="transparent"/>
	<path d = "M 93.75 128.91 L 39.84 131.25 L 51.56 82.03 L 105.47 30.47 L 164.06 0.00 L 255.47 114.84 L 257.81 119.53 L 248.44 126.56 L 215.62 131.25" stroke="white" fill="transparent"/>
	<path d = "M 117.19 84.38 L 126.56 58.59 L 147.66 44.53 L 175.78 44.53 L 196.88 67.97 L 196.88 96.09 L 164.06 126.56 L 131.25 131.25 L 126.56 107.81" stroke="white" fill="transparent"/>
</svg>