<?xml version="1.0" encoding="UTF-8" standalone="no"?>
<!--Created with ndjsontosvg (https:https://github.com/thompson318/ndjsontosvg) 
	from the simplified Google quickdraw data set. key_id = 5451224457412608-->
<svg width="600" height="600"
	xmlns="http://www.w3.org/2000/svg">
	xmlns:ndjsontosvg="https://github.com/thompson318/ndjsontosvg"
	xmlns:quickdraw="https://quickdraw.withgoogle.com/data"
	xmlns:scikit-surgery="https://doi.org/10.1007/s11548-020-02180-5">

	<rect width="100%" height="100%" fill="black" />
	<path d = "M 271.88 63.28 L 281.25 159.38 L 283.59 370.31" stroke="white" fill="transparent"/>
	<path d = "M 346.88 77.34 L 346.88 316.41 L 353.91 365.62 L 311.72 370.31 L 295.31 365.62" stroke="white" fill="transparent"/>
	<path d = "M 285.94 67.97 L 342.19 65.62" stroke="white" fill="transparent"/>
	<path d = "M 0.00 445.31 L 166.41 396.09 L 351.56 372.66 L 424.22 372.66 L 466.41 379.69 L 546.09 410.16 L 562.50 424.22 L 597.66 431.25" stroke="white" fill="transparent"/>
	<path d = "M 304.69 133.59 L 304.69 159.38 L 311.72 171.09 L 328.12 171.09 L 330.47 159.38 L 330.47 147.66 L 316.41 140.62" stroke="white" fill="transparent"/>
	<path d = "M 264.84 65.62 L 276.56 7.03 L 295.31 0.00 L 349.22 2.34 L 356.25 14.06 L 356.25 79.69" stroke="white" fill="transparent"/>
	<path d = "M 328.12 39.84 L 339.84 46.88" stroke="white" fill="transparent"/>
	<path d = "M 363.28 39.84 L 466.41 37.50 L 557.81 25.78" stroke="white" fill="transparent"/>
	<path d = "M 393.75 65.62 L 393.75 65.62" stroke="white" fill="transparent"/>
</svg>