<?xml version="1.0" encoding="UTF-8" standalone="no"?>
<!--Created with ndjsontosvg (https:https://github.com/thompson318/ndjsontosvg) 
	from the simplified Google quickdraw data set. key_id = 6063010370027520-->
<svg width="600" height="600"
	xmlns="http://www.w3.org/2000/svg">
	xmlns:ndjsontosvg="https://github.com/thompson318/ndjsontosvg"
	xmlns:quickdraw="https://quickdraw.withgoogle.com/data"
	xmlns:scikit-surgery="https://doi.org/10.1007/s11548-020-02180-5">

	<rect width="100%" height="100%" fill="black" />
	<path d = "M 44.53 51.56 L 51.56 79.69 L 63.28 89.06 L 100.78 96.09 L 154.69 84.38 L 154.69 42.19 L 145.31 7.03 L 133.59 0.00 L 82.03 4.69 L 53.91 18.75 L 53.91 58.59 L 23.44 96.09 L 2.34 154.69 L 0.00 220.31 L 23.44 311.72 L 2.34 379.69 L 4.69 452.34 L 28.12 536.72 L 65.62 574.22 L 98.44 590.62 L 145.31 597.66 L 243.75 581.25 L 302.34 529.69 L 325.78 485.16 L 325.78 457.03 L 274.22 386.72 L 255.47 318.75 L 201.56 246.09 L 185.16 142.97 L 140.62 84.38" stroke="white" fill="transparent"/>
	<path d = "M 164.06 428.91 L 147.66 375.00 L 152.34 417.19 L 152.34 384.38" stroke="white" fill="transparent"/>
	<path d = "M 152.34 389.06 L 126.56 379.69 L 126.56 421.88 L 133.59 435.94 L 145.31 438.28 L 152.34 421.88 L 147.66 403.12 L 114.84 370.31 L 145.31 414.84 L 154.69 442.97 L 157.03 417.19 L 147.66 370.31" stroke="white" fill="transparent"/>
	<path d = "M 91.41 7.03 L 157.03 7.03" stroke="white" fill="transparent"/>
	<path d = "M 79.69 35.16 L 67.97 44.53 L 147.66 44.53" stroke="white" fill="transparent"/>
	<path d = "M 72.66 56.25 L 150.00 60.94" stroke="white" fill="transparent"/>
</svg>