<?xml version="1.0" encoding="UTF-8" standalone="no"?>
<!--Created with ndjsontosvg (https:https://github.com/thompson318/ndjsontosvg) 
	from the simplified Google quickdraw data set. key_id = 6192125022568448-->
<svg width="600" height="600"
	xmlns="http://www.w3.org/2000/svg">
	xmlns:ndjsontosvg="https://github.com/thompson318/ndjsontosvg"
	xmlns:quickdraw="https://quickdraw.withgoogle.com/data"
	xmlns:scikit-surgery="https://doi.org/10.1007/s11548-020-02180-5">

	<rect width="100%" height="100%" fill="black" />
	<path d = "M 274.22 152.34 L 199.22 60.94 L 185.16 60.94 L 119.53 147.66 L 91.41 201.56 L 75.00 241.41 L 72.66 292.97 L 82.03 386.72 L 103.12 452.34 L 100.78 513.28 L 225.00 513.28 L 285.94 499.22 L 297.66 417.19 L 318.75 346.88 L 321.09 276.56 L 304.69 220.31 L 278.91 173.44 L 262.50 161.72" stroke="white" fill="transparent"/>
	<path d = "M 288.28 208.59 L 89.06 168.75" stroke="white" fill="transparent"/>
	<path d = "M 196.88 119.53 L 180.47 117.19 L 173.44 124.22 L 187.50 145.31 L 196.88 150.00 L 203.91 145.31 L 206.25 114.84 L 187.50 107.81 L 180.47 114.84 L 196.88 135.94 L 203.91 128.91 L 203.91 84.38 L 185.16 91.41 L 182.81 117.19 L 201.56 157.03 L 213.28 152.34 L 213.28 46.88 L 201.56 133.59 L 199.22 232.03 L 210.94 79.69 L 196.88 39.84 L 180.47 35.16 L 178.12 72.66 L 203.91 168.75 L 182.81 56.25 L 180.47 100.78 L 196.88 246.09 L 206.25 196.88 L 208.59 133.59 L 164.06 7.03 L 206.25 192.19 L 215.62 276.56 L 213.28 328.12 L 175.78 442.97 L 185.16 433.59 L 199.22 325.78 L 199.22 269.53 L 180.47 133.59 L 210.94 215.62 L 222.66 292.97 L 220.31 363.28 L 166.41 496.88 L 178.12 454.69 L 182.81 353.91 L 178.12 297.66 L 161.72 227.34 L 192.19 407.81 L 189.84 499.22 L 203.91 426.56 L 201.56 330.47 L 178.12 290.62 L 175.78 520.31 L 189.84 447.66 L 192.19 363.28 L 180.47 520.31 L 201.56 424.22 L 185.16 515.62 L 173.44 536.72 L 173.44 517.97" stroke="white" fill="transparent"/>
	<path d = "M 175.78 126.56 L 98.44 103.12 L 84.38 114.84 L 107.81 145.31 L 145.31 166.41 L 199.22 182.81 L 288.28 189.84 L 328.12 157.03 L 321.09 138.28 L 292.97 128.91 L 147.66 105.47 L 51.56 119.53 L 56.25 128.91 L 121.88 135.94 L 325.78 110.16 L 271.88 112.50 L 86.72 147.66 L 250.78 199.22 L 285.94 206.25 L 321.09 201.56 L 318.75 187.50 L 271.88 161.72 L 201.56 142.97 L 147.66 131.25 L 82.03 138.28 L 72.66 159.38 L 110.16 278.91" stroke="white" fill="transparent"/>
	<path d = "M 365.62 492.19 L 365.62 492.19" stroke="white" fill="transparent"/>
	<path d = "M 365.62 492.19 L 370.31 480.47 L 290.62 365.62" stroke="white" fill="transparent"/>
	<path d = "M 0.00 405.47 L 23.44 342.19 L 126.56 384.38 L 229.69 405.47 L 290.62 412.50 L 278.91 393.75 L 307.03 379.69 L 309.38 372.66 L 278.91 375.00 L 222.66 407.81 L 154.69 496.88 L 147.66 513.28 L 168.75 513.28 L 220.31 457.03 L 267.19 349.22 L 285.94 307.03 L 278.91 267.19 L 248.44 323.44 L 222.66 398.44 L 215.62 454.69 L 220.31 506.25 L 246.09 581.25 L 255.47 588.28 L 267.19 583.59 L 253.12 578.91 L 255.47 557.81 L 325.78 424.22 L 344.53 358.59 L 342.19 325.78 L 332.81 323.44 L 309.38 337.50 L 288.28 370.31 L 264.84 452.34 L 262.50 482.81 L 271.88 525.00 L 302.34 571.88 L 318.75 583.59 L 358.59 597.66" stroke="white" fill="transparent"/>
</svg>