<?xml version="1.0" encoding="UTF-8" standalone="no"?>
<!--Created with ndjsontosvg (https:https://github.com/thompson318/ndjsontosvg) 
	from the simplified Google quickdraw data set. key_id = 5262652274114560-->
<svg width="600" height="600"
	xmlns="http://www.w3.org/2000/svg">
	xmlns:ndjsontosvg="https://github.com/thompson318/ndjsontosvg"
	xmlns:quickdraw="https://quickdraw.withgoogle.com/data"
	xmlns:scikit-surgery="https://doi.org/10.1007/s11548-020-02180-5">

	<rect width="100%" height="100%" fill="black" />
	<path d = "M 67.97 220.31 L 60.94 271.88 L 11.72 450.00 L 0.00 534.38 L 0.00 585.94 L 21.09 597.66 L 107.81 592.97 L 257.81 543.75 L 217.97 346.88 L 203.91 208.59 L 185.16 199.22 L 70.31 199.22 L 49.22 203.91" stroke="white" fill="transparent"/>
	<path d = "M 60.94 201.56 L 11.72 206.25 L 2.34 222.66 L 2.34 262.50 L 16.41 267.19 L 72.66 264.84 L 60.94 250.78 L 60.94 222.66 L 49.22 217.97" stroke="white" fill="transparent"/>
	<path d = "M 187.50 175.78 L 173.44 171.09 L 161.72 154.69 L 145.31 60.94 L 171.09 37.50 L 159.38 75.00 L 157.03 124.22 L 175.78 166.41 L 189.84 140.62 L 194.53 63.28 L 194.53 7.03 L 187.50 0.00" stroke="white" fill="transparent"/>
</svg>