<?xml version="1.0" encoding="UTF-8" standalone="no"?>
<!--Created with ndjsontosvg (https:https://github.com/thompson318/ndjsontosvg) 
	from the simplified Google quickdraw data set. key_id = 5173237396799488-->
<svg width="600" height="600"
	xmlns="http://www.w3.org/2000/svg">
	xmlns:ndjsontosvg="https://github.com/thompson318/ndjsontosvg"
	xmlns:quickdraw="https://quickdraw.withgoogle.com/data"
	xmlns:scikit-surgery="https://doi.org/10.1007/s11548-020-02180-5">

	<rect width="100%" height="100%" fill="black" />
	<path d = "M 185.16 595.31 L 189.84 344.53 L 96.09 325.78 L 49.22 302.34 L 21.09 271.88 L 4.69 232.03 L 0.00 164.06 L 2.34 140.62 L 21.09 100.78 L 91.41 42.19 L 161.72 16.41 L 243.75 2.34 L 335.16 0.00 L 412.50 11.72 L 473.44 39.84 L 506.25 75.00 L 522.66 124.22 L 522.66 178.12 L 508.59 241.41 L 487.50 292.97 L 450.00 337.50 L 403.12 370.31 L 358.59 382.03 L 302.34 379.69 L 271.88 351.56 L 281.25 431.25 L 274.22 595.31 L 185.16 574.22" stroke="white" fill="transparent"/>
	<path d = "M 210.94 363.28 L 194.53 574.22 L 213.28 438.28 L 213.28 325.78 L 196.88 292.97 L 121.88 290.62 L 117.19 278.91 L 124.22 257.81 L 159.38 220.31 L 201.56 203.91 L 220.31 213.28 L 222.66 255.47 L 199.22 276.56" stroke="white" fill="transparent"/>
</svg>