<?xml version="1.0" encoding="UTF-8" standalone="no"?>
<!--Created with ndjsontosvg (https:https://github.com/thompson318/ndjsontosvg) 
	from the simplified Google quickdraw data set. key_id = 5757829958860800-->
<svg width="600" height="600"
	xmlns="http://www.w3.org/2000/svg">
	xmlns:ndjsontosvg="https://github.com/thompson318/ndjsontosvg"
	xmlns:quickdraw="https://quickdraw.withgoogle.com/data"
	xmlns:scikit-surgery="https://doi.org/10.1007/s11548-020-02180-5">

	<rect width="100%" height="100%" fill="black" />
	<path d = "M 210.94 89.06 L 161.72 96.09 L 124.22 121.88 L 93.75 157.03 L 65.62 222.66 L 63.28 255.47 L 67.97 288.28 L 86.72 316.41 L 117.19 339.84 L 175.78 351.56 L 215.62 335.16 L 236.72 318.75 L 262.50 285.94 L 281.25 243.75 L 290.62 173.44 L 283.59 105.47 L 255.47 82.03 L 215.62 70.31" stroke="white" fill="transparent"/>
	<path d = "M 60.94 192.19 L 53.91 86.72 L 82.03 49.22 L 103.12 32.81 L 161.72 9.38 L 196.88 4.69 L 210.94 32.81 L 194.53 72.66 L 243.75 37.50 L 297.66 11.72 L 356.25 0.00 L 370.31 4.69 L 384.38 30.47 L 375.00 77.34 L 295.31 180.47 L 351.56 175.78 L 375.00 180.47 L 384.38 206.25 L 377.34 229.69 L 302.34 316.41 L 225.00 375.00 L 292.97 351.56 L 307.03 353.91 L 304.69 365.62 L 264.84 393.75 L 180.47 417.19 L 110.16 426.56 L 77.34 421.88 L 63.28 389.06 L 58.59 325.78 L 46.88 316.41 L 4.69 328.12 L 0.00 307.03 L 4.69 274.22 L 30.47 215.62 L 82.03 157.03" stroke="white" fill="transparent"/>
	<path d = "M 285.94 253.12 L 346.88 192.19 L 412.50 154.69 L 489.84 135.94 L 562.50 138.28 L 578.91 150.00 L 595.31 201.56 L 597.66 283.59 L 576.56 351.56 L 553.12 375.00 L 517.97 389.06 L 365.62 396.09 L 297.66 382.03 L 229.69 344.53" stroke="white" fill="transparent"/>
	<path d = "M 260.16 344.53 L 239.06 372.66 L 208.59 459.38 L 201.56 506.25 L 208.59 527.34 L 236.72 529.69 L 276.56 508.59 L 318.75 461.72 L 339.84 414.84" stroke="white" fill="transparent"/>
	<path d = "M 414.84 403.12 L 428.91 482.81 L 435.94 496.88 L 445.31 499.22 L 485.16 461.72 L 522.66 391.41" stroke="white" fill="transparent"/>
</svg>