<?xml version="1.0" encoding="UTF-8" standalone="no"?>
<!--Created with ndjsontosvg (https:https://github.com/thompson318/ndjsontosvg) 
	from the simplified Google quickdraw data set. key_id = 5707760169648128-->
<svg width="600" height="600"
	xmlns="http://www.w3.org/2000/svg">
	xmlns:ndjsontosvg="https://github.com/thompson318/ndjsontosvg"
	xmlns:quickdraw="https://quickdraw.withgoogle.com/data"
	xmlns:scikit-surgery="https://doi.org/10.1007/s11548-020-02180-5">

	<rect width="100%" height="100%" fill="black" />
	<path d = "M 128.91 98.44 L 107.81 128.91 L 96.09 164.06 L 100.78 199.22 L 121.88 227.34 L 159.38 232.03 L 206.25 222.66 L 217.97 208.59 L 229.69 171.09 L 222.66 138.28 L 203.91 117.19 L 175.78 103.12 L 131.25 103.12" stroke="white" fill="transparent"/>
	<path d = "M 51.56 98.44 L 51.56 63.28 L 72.66 23.44 L 112.50 32.81 L 131.25 7.03 L 168.75 14.06 L 189.84 0.00 L 203.91 2.34 L 220.31 32.81 L 255.47 42.19 L 267.19 60.94 L 269.53 79.69 L 295.31 84.38 L 307.03 103.12 L 307.03 145.31 L 292.97 187.50 L 302.34 210.94 L 304.69 241.41 L 290.62 264.84 L 274.22 278.91 L 260.16 278.91 L 236.72 318.75 L 217.97 335.16 L 187.50 339.84 L 140.62 328.12 L 89.06 342.19 L 77.34 339.84 L 65.62 309.38 L 53.91 311.72 L 42.19 300.00 L 2.34 159.38 L 7.03 126.56 L 18.75 117.19 L 58.59 110.16" stroke="white" fill="transparent"/>
	<path d = "M 314.06 173.44 L 311.72 185.16 L 318.75 180.47" stroke="white" fill="transparent"/>
	<path d = "M 314.06 171.09 L 316.41 182.81 L 325.78 182.81 L 529.69 178.12 L 597.66 232.03 L 585.94 267.19 L 517.97 292.97 L 382.03 300.00 L 318.75 311.72 L 274.22 302.34 L 225.00 262.50" stroke="white" fill="transparent"/>
</svg>