<?xml version="1.0" encoding="UTF-8" standalone="no"?>
<!--Created with ndjsontosvg (https:https://github.com/thompson318/ndjsontosvg) 
	from the simplified Google quickdraw data set. key_id = 4801154368143360-->
<svg width="600" height="600"
	xmlns="http://www.w3.org/2000/svg">
	xmlns:ndjsontosvg="https://github.com/thompson318/ndjsontosvg"
	xmlns:quickdraw="https://quickdraw.withgoogle.com/data"
	xmlns:scikit-surgery="https://doi.org/10.1007/s11548-020-02180-5">

	<rect width="100%" height="100%" fill="black" />
	<path d = "M 328.12 86.72 L 307.03 91.41 L 250.78 117.19 L 182.81 189.84 L 133.59 281.25 L 128.91 337.50 L 154.69 386.72 L 227.34 438.28 L 295.31 450.00 L 332.81 445.31 L 363.28 426.56 L 400.78 386.72 L 450.00 309.38 L 464.06 271.88 L 466.41 234.38 L 435.94 164.06 L 403.12 119.53 L 379.69 103.12 L 346.88 91.41 L 321.09 91.41 L 314.06 98.44" stroke="white" fill="transparent"/>
	<path d = "M 229.69 199.22 L 246.09 246.09" stroke="white" fill="transparent"/>
	<path d = "M 370.31 161.72 L 396.09 232.03" stroke="white" fill="transparent"/>
	<path d = "M 241.41 346.88 L 262.50 367.97 L 271.88 344.53 L 302.34 356.25 L 311.72 332.81 L 344.53 337.50 L 358.59 318.75 L 379.69 321.09 L 389.06 309.38 L 426.56 318.75" stroke="white" fill="transparent"/>
	<path d = "M 140.62 117.19 L 98.44 126.56 L 70.31 164.06 L 42.19 276.56 L 42.19 321.09 L 49.22 323.44 L 49.22 316.41 L 37.50 309.38 L 16.41 316.41 L 2.34 356.25 L 0.00 412.50 L 18.75 438.28 L 79.69 459.38 L 131.25 461.72 L 147.66 445.31 L 128.91 440.62 L 105.47 447.66 L 100.78 471.09 L 107.81 485.16 L 140.62 503.91 L 180.47 517.97 L 208.59 517.97 L 229.69 501.56 L 213.28 503.91 L 199.22 520.31 L 199.22 529.69 L 217.97 543.75 L 255.47 548.44 L 321.09 525.00 L 358.59 489.84 L 360.94 473.44 L 353.91 468.75 L 346.88 492.19 L 353.91 506.25 L 389.06 510.94 L 405.47 503.91 L 431.25 480.47 L 447.66 454.69 L 454.69 419.53 L 454.69 393.75 L 447.66 389.06 L 445.31 403.12 L 466.41 417.19 L 496.88 421.88 L 517.97 414.84 L 560.16 360.94 L 574.22 325.78 L 583.59 285.94 L 581.25 253.12 L 562.50 236.72 L 539.06 234.38 L 557.81 234.38 L 590.62 187.50 L 597.66 140.62 L 590.62 110.16 L 564.84 93.75 L 548.44 93.75 L 517.97 105.47 L 508.59 126.56 L 525.00 128.91 L 541.41 124.22 L 553.12 79.69 L 532.03 39.84 L 487.50 18.75 L 440.62 21.09 L 417.19 30.47 L 389.06 56.25 L 386.72 75.00 L 396.09 84.38 L 424.22 86.72 L 438.28 77.34 L 447.66 65.62 L 450.00 39.84 L 419.53 11.72 L 370.31 0.00 L 342.19 2.34 L 314.06 14.06 L 269.53 44.53 L 250.78 75.00 L 248.44 89.06 L 276.56 89.06 L 304.69 63.28 L 309.38 28.12 L 283.59 14.06 L 255.47 11.72 L 196.88 35.16 L 168.75 53.91 L 135.94 89.06 L 131.25 112.50 L 138.28 117.19 L 168.75 119.53 L 187.50 112.50 L 220.31 67.97 L 215.62 51.56 L 189.84 44.53 L 161.72 46.88 L 138.28 58.59 L 86.72 100.78 L 53.91 152.34 L 49.22 189.84 L 84.38 189.84 L 105.47 159.38 L 110.16 121.88 L 91.41 119.53 L 77.34 128.91 L 51.56 168.75 L 32.81 236.72 L 32.81 269.53 L 46.88 283.59 L 58.59 283.59 L 77.34 264.84 L 84.38 210.94 L 63.28 215.62 L 51.56 232.03 L 37.50 290.62 L 39.84 328.12 L 49.22 335.16 L 67.97 335.16" stroke="white" fill="transparent"/>
</svg>