<?xml version="1.0" encoding="UTF-8" standalone="no"?>
<!--Created with ndjsontosvg (https:https://github.com/thompson318/ndjsontosvg) 
	from the simplified Google quickdraw data set. key_id = 5800691136200704-->
<svg width="600" height="600"
	xmlns="http://www.w3.org/2000/svg">
	xmlns:ndjsontosvg="https://github.com/thompson318/ndjsontosvg"
	xmlns:quickdraw="https://quickdraw.withgoogle.com/data"
	xmlns:scikit-surgery="https://doi.org/10.1007/s11548-020-02180-5">

	<rect width="100%" height="100%" fill="black" />
	<path d = "M 400.78 138.28 L 382.03 145.31 L 271.88 142.97 L 248.44 150.00 L 206.25 178.12 L 173.44 213.28 L 159.38 253.12 L 157.03 335.16 L 189.84 386.72 L 227.34 403.12 L 278.91 405.47 L 330.47 384.38 L 400.78 328.12 L 435.94 292.97 L 454.69 262.50 L 459.38 196.88 L 452.34 187.50 L 412.50 159.38 L 335.16 124.22" stroke="white" fill="transparent"/>
	<path d = "M 171.09 189.84 L 147.66 107.81 L 147.66 65.62 L 164.06 53.91 L 185.16 53.91 L 262.50 110.16 L 302.34 30.47 L 342.19 4.69 L 386.72 2.34 L 412.50 60.94 L 461.72 21.09 L 485.16 18.75 L 503.91 28.12 L 517.97 114.84 L 517.97 178.12 L 529.69 189.84 L 590.62 208.59 L 597.66 234.38 L 597.66 267.19 L 555.47 382.03 L 529.69 400.78 L 503.91 403.12 L 527.34 396.09 L 550.78 400.78 L 555.47 412.50 L 548.44 426.56 L 525.00 447.66 L 431.25 454.69 L 311.72 438.28 L 351.56 492.19 L 276.56 501.56 L 168.75 461.72 L 185.16 461.72 L 150.00 464.06 L 96.09 450.00 L 37.50 421.88 L 18.75 398.44 L 67.97 386.72 L 77.34 375.00 L 70.31 358.59 L 16.41 316.41 L 0.00 288.28 L 128.91 208.59 L 126.56 196.88 L 46.88 159.38 L 39.84 150.00 L 79.69 138.28 L 133.59 138.28" stroke="white" fill="transparent"/>
</svg>