<?xml version="1.0" encoding="UTF-8" standalone="no"?>
<!--Created with ndjsontosvg (https:https://github.com/thompson318/ndjsontosvg) 
	from the simplified Google quickdraw data set. key_id = 5774385782718464-->
<svg width="600" height="600"
	xmlns="http://www.w3.org/2000/svg">
	xmlns:ndjsontosvg="https://github.com/thompson318/ndjsontosvg"
	xmlns:quickdraw="https://quickdraw.withgoogle.com/data"
	xmlns:scikit-surgery="https://doi.org/10.1007/s11548-020-02180-5">

	<rect width="100%" height="100%" fill="black" />
	<path d = "M 222.66 91.41 L 194.53 91.41 L 147.66 105.47" stroke="white" fill="transparent"/>
	<path d = "M 147.66 105.47 L 4.69 112.50 L 0.00 159.38 L 18.75 178.12 L 112.50 180.47 L 208.59 171.09 L 323.44 196.88 L 520.31 196.88 L 576.56 171.09 L 597.66 140.62 L 595.31 114.84 L 574.22 79.69 L 541.41 58.59 L 461.72 56.25 L 328.12 86.72 L 208.59 86.72" stroke="white" fill="transparent"/>
	<path d = "M 300.00 82.03 L 269.53 30.47 L 229.69 0.00" stroke="white" fill="transparent"/>
	<path d = "M 360.94 77.34 L 342.19 51.56 L 285.94 7.03" stroke="white" fill="transparent"/>
	<path d = "M 435.94 86.72 L 400.78 25.78 L 358.59 9.38" stroke="white" fill="transparent"/>
	<path d = "M 283.59 196.88 L 262.50 232.03 L 234.38 257.81" stroke="white" fill="transparent"/>
	<path d = "M 363.28 189.84 L 346.88 250.78 L 328.12 276.56" stroke="white" fill="transparent"/>
	<path d = "M 419.53 196.88 L 405.47 264.84 L 384.38 307.03" stroke="white" fill="transparent"/>
</svg>