<?xml version="1.0" encoding="UTF-8" standalone="no"?>
<!--Created with ndjsontosvg (https:https://github.com/thompson318/ndjsontosvg) 
	from the simplified Google quickdraw data set. key_id = 6749495683448832-->
<svg width="600" height="600"
	xmlns="http://www.w3.org/2000/svg">
	xmlns:ndjsontosvg="https://github.com/thompson318/ndjsontosvg"
	xmlns:quickdraw="https://quickdraw.withgoogle.com/data"
	xmlns:scikit-surgery="https://doi.org/10.1007/s11548-020-02180-5">

	<rect width="100%" height="100%" fill="black" />
	<path d = "M 103.12 117.19 L 105.47 53.91 L 98.44 46.88 L 75.00 37.50 L 60.94 44.53 L 58.59 75.00 L 67.97 135.94 L 46.88 77.34 L 30.47 65.62 L 16.41 70.31 L 2.34 86.72 L 0.00 110.16 L 23.44 168.75" stroke="white" fill="transparent"/>
	<path d = "M 105.47 93.75 L 100.78 239.06" stroke="white" fill="transparent"/>
	<path d = "M 21.09 166.41 L 89.06 250.78" stroke="white" fill="transparent"/>
	<path d = "M 304.69 18.75 L 328.12 0.00 L 360.94 2.34 L 365.62 18.75 L 356.25 67.97 L 377.34 42.19 L 403.12 25.78 L 426.56 23.44 L 435.94 35.16 L 433.59 86.72 L 391.41 166.41 L 384.38 161.72" stroke="white" fill="transparent"/>
	<path d = "M 307.03 14.06 L 328.12 119.53 L 342.19 157.03" stroke="white" fill="transparent"/>
	<path d = "M 194.53 180.47 L 199.22 173.44 L 201.56 107.81 L 187.50 23.44" stroke="white" fill="transparent"/>
	<path d = "M 243.75 159.38 L 248.44 112.50 L 260.16 84.38 L 314.06 51.56" stroke="white" fill="transparent"/>
	<path d = "M 260.16 154.69 L 229.69 161.72 L 189.84 196.88 L 175.78 234.38 L 185.16 260.16 L 241.41 300.00 L 264.84 309.38 L 314.06 316.41 L 321.09 309.38 L 323.44 264.84 L 309.38 215.62 L 269.53 152.34 L 236.72 128.91" stroke="white" fill="transparent"/>
	<path d = "M 86.72 253.12 L 138.28 295.31 L 182.81 375.00 L 189.84 370.31" stroke="white" fill="transparent"/>
	<path d = "M 386.72 175.78 L 375.00 192.19 L 353.91 271.88 L 330.47 314.06 L 321.09 328.12 L 314.06 297.66" stroke="white" fill="transparent"/>
	<path d = "M 335.16 145.31 L 349.22 178.12 L 358.59 250.78 L 353.91 328.12 L 349.22 335.16 L 337.50 335.16" stroke="white" fill="transparent"/>
	<path d = "M 281.25 278.91 L 262.50 307.03 L 217.97 339.84 L 175.78 403.12 L 157.03 485.16 L 168.75 550.78 L 206.25 590.62 L 253.12 597.66 L 267.19 592.97 L 292.97 567.19 L 321.09 508.59 L 323.44 459.38 L 311.72 367.97 L 274.22 225.00 L 246.09 147.66 L 239.06 140.62 L 239.06 147.66" stroke="white" fill="transparent"/>
</svg>