<?xml version="1.0" encoding="UTF-8" standalone="no"?>
<!--Created with ndjsontosvg (https:https://github.com/thompson318/ndjsontosvg) 
	from the simplified Google quickdraw data set. key_id = 6281369913131008-->
<svg width="600" height="600"
	xmlns="http://www.w3.org/2000/svg">
	xmlns:ndjsontosvg="https://github.com/thompson318/ndjsontosvg"
	xmlns:quickdraw="https://quickdraw.withgoogle.com/data"
	xmlns:scikit-surgery="https://doi.org/10.1007/s11548-020-02180-5">

	<rect width="100%" height="100%" fill="black" />
	<path d = "M 126.56 363.28 L 46.88 358.59 L 25.78 346.88 L 0.00 323.44 L 0.00 304.69 L 32.81 236.72 L 49.22 206.25 L 65.62 194.53 L 96.09 192.19 L 152.34 248.44 L 180.47 260.16 L 250.78 257.81 L 300.00 246.09 L 363.28 253.12 L 372.66 260.16 L 393.75 302.34 L 393.75 344.53 L 375.00 377.34 L 332.81 410.16 L 278.91 417.19 L 229.69 407.81 L 107.81 356.25" stroke="white" fill="transparent"/>
	<path d = "M 405.47 309.38 L 459.38 253.12 L 513.28 227.34 L 571.88 229.69 L 595.31 257.81 L 597.66 290.62 L 564.84 351.56 L 527.34 386.72 L 475.78 410.16 L 428.91 412.50 L 403.12 393.75 L 391.41 367.97 L 391.41 309.38 L 403.12 302.34" stroke="white" fill="transparent"/>
	<path d = "M 473.44 332.81 L 492.19 356.25 L 569.53 377.34" stroke="white" fill="transparent"/>
	<path d = "M 578.91 288.28 L 574.22 283.59 L 576.56 290.62" stroke="white" fill="transparent"/>
	<path d = "M 255.47 255.47 L 295.31 189.84 L 351.56 147.66 L 375.00 140.62 L 391.41 112.50 L 393.75 82.03 L 370.31 21.09 L 389.06 30.47 L 421.88 72.66 L 414.84 4.69 L 431.25 2.34 L 487.50 46.88 L 482.81 84.38 L 468.75 103.12 L 323.44 225.00 L 297.66 269.53" stroke="white" fill="transparent"/>
	<path d = "M 161.72 367.97 L 159.38 426.56 L 217.97 522.66 L 225.00 539.06 L 220.31 550.78" stroke="white" fill="transparent"/>
	<path d = "M 285.94 419.53 L 283.59 407.81 L 278.91 414.84 L 274.22 457.03 L 274.22 536.72 L 302.34 550.78" stroke="white" fill="transparent"/>
</svg>