<?xml version="1.0" encoding="UTF-8" standalone="no"?>
<!--Created with ndjsontosvg (https:https://github.com/thompson318/ndjsontosvg) 
	from the simplified Google quickdraw data set. key_id = 4695210925752320-->
<svg width="600" height="600"
	xmlns="http://www.w3.org/2000/svg">
	xmlns:ndjsontosvg="https://github.com/thompson318/ndjsontosvg"
	xmlns:quickdraw="https://quickdraw.withgoogle.com/data"
	xmlns:scikit-surgery="https://doi.org/10.1007/s11548-020-02180-5">

	<rect width="100%" height="100%" fill="black" />
	<path d = "M 297.66 119.53 L 257.81 124.22 L 239.06 140.62 L 232.03 171.09 L 248.44 210.94 L 297.66 241.41 L 295.31 189.84 L 344.53 213.28 L 344.53 161.72 L 328.12 142.97 L 311.72 135.94" stroke="white" fill="transparent"/>
	<path d = "M 243.75 128.91 L 213.28 105.47" stroke="white" fill="transparent"/>
	<path d = "M 140.62 107.81 L 67.97 166.41" stroke="white" fill="transparent"/>
	<path d = "M 65.62 164.06 L 30.47 164.06 L 9.38 173.44 L 0.00 196.88 L 4.69 222.66 L 35.16 208.59 L 37.50 229.69 L 60.94 225.00 L 77.34 210.94 L 82.03 178.12" stroke="white" fill="transparent"/>
	<path d = "M 201.56 63.28 L 171.09 58.59 L 147.66 67.97 L 140.62 86.72 L 145.31 124.22 L 159.38 142.97 L 185.16 145.31 L 210.94 128.91 L 217.97 112.50" stroke="white" fill="transparent"/>
	<path d = "M 213.28 56.25 L 229.69 46.88 L 255.47 42.19 L 281.25 60.94" stroke="white" fill="transparent"/>
	<path d = "M 283.59 56.25 L 300.00 44.53 L 325.78 42.19 L 358.59 51.56 L 386.72 70.31 L 428.91 67.97 L 466.41 75.00 L 499.22 91.41 L 517.97 124.22 L 583.59 140.62 L 553.12 145.31 L 590.62 159.38 L 597.66 168.75 L 588.28 171.09 L 482.81 142.97 L 396.09 150.00 L 325.78 135.94" stroke="white" fill="transparent"/>
	<path d = "M 274.22 49.22 L 290.62 77.34 L 285.94 103.12" stroke="white" fill="transparent"/>
	<path d = "M 360.94 56.25 L 377.34 89.06 L 370.31 124.22" stroke="white" fill="transparent"/>
	<path d = "M 428.91 75.00 L 431.25 121.88" stroke="white" fill="transparent"/>
	<path d = "M 173.44 53.91 L 201.56 0.00" stroke="white" fill="transparent"/>
	<path d = "M 114.84 14.06 L 140.62 79.69" stroke="white" fill="transparent"/>
</svg>