<?xml version="1.0" encoding="UTF-8" standalone="no"?>
<!--Created with ndjsontosvg (https:https://github.com/thompson318/ndjsontosvg) 
	from the simplified Google quickdraw data set. key_id = 4562370556854272-->
<svg width="600" height="600"
	xmlns="http://www.w3.org/2000/svg">
	xmlns:ndjsontosvg="https://github.com/thompson318/ndjsontosvg"
	xmlns:quickdraw="https://quickdraw.withgoogle.com/data"
	xmlns:scikit-surgery="https://doi.org/10.1007/s11548-020-02180-5">

	<rect width="100%" height="100%" fill="black" />
	<path d = "M 281.25 220.31 L 210.94 220.31 L 133.59 248.44 L 98.44 297.66 L 110.16 335.16 L 133.59 358.59 L 171.09 379.69 L 260.16 398.44 L 316.41 386.72 L 363.28 339.84 L 372.66 314.06 L 358.59 255.47 L 283.59 215.62" stroke="white" fill="transparent"/>
	<path d = "M 192.19 203.91 L 173.44 121.88 L 157.03 100.78 L 145.31 100.78" stroke="white" fill="transparent"/>
	<path d = "M 161.72 217.97 L 142.97 105.47" stroke="white" fill="transparent"/>
	<path d = "M 150.00 105.47 L 140.62 46.88 L 124.22 23.44 L 86.72 0.00" stroke="white" fill="transparent"/>
	<path d = "M 84.38 16.41 L 82.03 28.12 L 107.81 79.69 L 135.94 93.75" stroke="white" fill="transparent"/>
	<path d = "M 124.22 107.81 L 100.78 117.19 L 75.00 110.16 L 35.16 53.91" stroke="white" fill="transparent"/>
	<path d = "M 37.50 46.88 L 65.62 56.25 L 103.12 112.50" stroke="white" fill="transparent"/>
	<path d = "M 185.16 372.66 L 180.47 435.94 L 164.06 487.50 L 131.25 525.00 L 119.53 525.00" stroke="white" fill="transparent"/>
	<path d = "M 257.81 356.25 L 243.75 450.00 L 225.00 485.16 L 213.28 496.88 L 166.41 522.66 L 126.56 525.00" stroke="white" fill="transparent"/>
	<path d = "M 128.91 501.56 L 112.50 466.41 L 89.06 442.97 L 58.59 426.56 L 16.41 426.56" stroke="white" fill="transparent"/>
	<path d = "M 46.88 421.88 L 63.28 461.72 L 86.72 482.81 L 105.47 489.84 L 133.59 485.16" stroke="white" fill="transparent"/>
	<path d = "M 117.19 520.31 L 77.34 466.41 L 39.84 452.34 L 0.00 452.34 L 7.03 480.47 L 23.44 501.56 L 72.66 532.03 L 89.06 534.38 L 145.31 489.84" stroke="white" fill="transparent"/>
	<path d = "M 379.69 255.47 L 389.06 248.44 L 501.56 222.66 L 539.06 187.50 L 597.66 157.03" stroke="white" fill="transparent"/>
	<path d = "M 375.00 353.91 L 375.00 353.91" stroke="white" fill="transparent"/>
</svg>