<?xml version="1.0" encoding="UTF-8" standalone="no"?>
<!--Created with ndjsontosvg (https:https://github.com/thompson318/ndjsontosvg) 
	from the simplified Google quickdraw data set. key_id = 5585738957586432-->
<svg width="600" height="600"
	xmlns="http://www.w3.org/2000/svg">
	xmlns:ndjsontosvg="https://github.com/thompson318/ndjsontosvg"
	xmlns:quickdraw="https://quickdraw.withgoogle.com/data"
	xmlns:scikit-surgery="https://doi.org/10.1007/s11548-020-02180-5">

	<rect width="100%" height="100%" fill="black" />
	<path d = "M 152.34 288.28 L 147.66 431.25 L 185.16 567.19 L 185.16 595.31 L 189.84 597.66" stroke="white" fill="transparent"/>
	<path d = "M 243.75 39.84 L 220.31 21.09 L 194.53 14.06 L 142.97 14.06 L 110.16 28.12 L 63.28 60.94 L 35.16 89.06 L 11.72 138.28 L 0.00 203.91 L 4.69 274.22 L 16.41 292.97 L 42.19 314.06 L 110.16 321.09 L 257.81 285.94 L 302.34 260.16 L 323.44 225.00 L 321.09 161.72 L 281.25 46.88 L 255.47 7.03 L 232.03 0.00" stroke="white" fill="transparent"/>
	<path d = "M 159.38 86.72 L 138.28 82.03 L 119.53 96.09 L 79.69 147.66 L 72.66 180.47 L 107.81 203.91 L 196.88 220.31 L 203.91 236.72 L 208.59 283.59 L 178.12 297.66 L 103.12 300.00 L 56.25 278.91 L 46.88 255.47 L 49.22 239.06 L 121.88 208.59 L 159.38 180.47" stroke="white" fill="transparent"/>
</svg>