<?xml version="1.0" encoding="UTF-8" standalone="no"?>
<!--Created with ndjsontosvg (https:https://github.com/thompson318/ndjsontosvg) 
	from the simplified Google quickdraw data set. key_id = 5747087373238272-->
<svg width="600" height="600"
	xmlns="http://www.w3.org/2000/svg">
	xmlns:ndjsontosvg="https://github.com/thompson318/ndjsontosvg"
	xmlns:quickdraw="https://quickdraw.withgoogle.com/data"
	xmlns:scikit-surgery="https://doi.org/10.1007/s11548-020-02180-5">

	<rect width="100%" height="100%" fill="black" />
	<path d = "M 23.44 0.00 L 14.06 98.44 L 30.47 316.41 L 28.12 440.62 L 199.22 405.47 L 314.06 391.41 L 417.19 396.09 L 527.34 419.53 L 543.75 419.53 L 560.16 407.81" stroke="white" fill="transparent"/>
	<path d = "M 0.00 23.44 L 597.66 44.53 L 583.59 72.66 L 557.81 187.50 L 539.06 370.31 L 546.09 445.31" stroke="white" fill="transparent"/>
	<path d = "M 7.03 142.97 L 16.41 142.97 L 46.88 175.78 L 96.09 206.25 L 110.16 210.94 L 128.91 206.25 L 140.62 185.16 L 140.62 161.72 L 119.53 114.84 L 133.59 96.09 L 166.41 114.84 L 203.91 112.50 L 225.00 100.78 L 253.12 65.62 L 278.91 58.59 L 281.25 44.53" stroke="white" fill="transparent"/>
	<path d = "M 154.69 398.44 L 185.16 337.50 L 203.91 328.12 L 241.41 335.16 L 285.94 304.69 L 311.72 304.69 L 330.47 314.06 L 358.59 372.66 L 367.97 375.00 L 398.44 365.62 L 407.81 377.34" stroke="white" fill="transparent"/>
	<path d = "M 452.34 32.81 L 417.19 58.59 L 405.47 93.75 L 414.84 117.19 L 445.31 154.69 L 433.59 185.16" stroke="white" fill="transparent"/>
</svg>