<?xml version="1.0" encoding="UTF-8" standalone="no"?>
<!--Created with ndjsontosvg (https:https://github.com/thompson318/ndjsontosvg) 
	from the simplified Google quickdraw data set. key_id = 5647585148665856-->
<svg width="600" height="600"
	xmlns="http://www.w3.org/2000/svg">
	xmlns:ndjsontosvg="https://github.com/thompson318/ndjsontosvg"
	xmlns:quickdraw="https://quickdraw.withgoogle.com/data"
	xmlns:scikit-surgery="https://doi.org/10.1007/s11548-020-02180-5">

	<rect width="100%" height="100%" fill="black" />
	<path d = "M 53.91 30.47 L 56.25 98.44 L 42.19 187.50 L 32.81 480.47 L 42.19 487.50 L 328.12 494.53 L 525.00 543.75 L 583.59 543.75 L 597.66 539.06 L 585.94 457.03 L 581.25 255.47 L 585.94 152.34 L 578.91 112.50 L 546.09 65.62 L 332.81 4.69 L 283.59 0.00 L 196.88 11.72 L 0.00 86.72" stroke="white" fill="transparent"/>
	<path d = "M 103.12 135.94 L 208.59 236.72" stroke="white" fill="transparent"/>
	<path d = "M 126.56 234.38 L 157.03 173.44 L 192.19 133.59" stroke="white" fill="transparent"/>
	<path d = "M 248.44 217.97 L 302.34 225.00 L 337.50 264.84 L 391.41 267.19 L 457.03 292.97" stroke="white" fill="transparent"/>
	<path d = "M 323.44 365.62 L 243.75 405.47 L 199.22 391.41 L 180.47 412.50 L 152.34 419.53" stroke="white" fill="transparent"/>
	<path d = "M 405.47 393.75 L 442.97 405.47 L 452.34 414.84 L 475.78 466.41 L 487.50 475.78 L 564.84 485.16" stroke="white" fill="transparent"/>
</svg>