<?xml version="1.0" encoding="UTF-8" standalone="no"?>
<!--Created with ndjsontosvg (https:https://github.com/thompson318/ndjsontosvg) 
	from the simplified Google quickdraw data set. key_id = 6712778691706880-->
<svg width="600" height="600"
	xmlns="http://www.w3.org/2000/svg">
	xmlns:ndjsontosvg="https://github.com/thompson318/ndjsontosvg"
	xmlns:quickdraw="https://quickdraw.withgoogle.com/data"
	xmlns:scikit-surgery="https://doi.org/10.1007/s11548-020-02180-5">

	<rect width="100%" height="100%" fill="black" />
	<path d = "M 96.09 0.00 L 105.47 428.91 L 121.88 475.78 L 145.31 494.53 L 178.12 506.25 L 246.09 506.25 L 527.34 403.12 L 546.09 384.38 L 560.16 353.91 L 581.25 232.03 L 578.91 178.12 L 541.41 67.97 L 0.00 56.25" stroke="white" fill="transparent"/>
	<path d = "M 117.19 246.09 L 164.06 271.88 L 199.22 274.22 L 225.00 262.50 L 227.34 232.03" stroke="white" fill="transparent"/>
	<path d = "M 185.16 150.00 L 185.16 150.00" stroke="white" fill="transparent"/>
	<path d = "M 229.69 227.34 L 194.53 159.38 L 154.69 164.06 L 140.62 157.03 L 131.25 145.31 L 147.66 93.75 L 194.53 63.28" stroke="white" fill="transparent"/>
	<path d = "M 365.62 91.41 L 365.62 121.88 L 400.78 203.91 L 435.94 232.03 L 473.44 246.09 L 527.34 243.75 L 536.72 232.03 L 548.44 166.41 L 597.66 208.59" stroke="white" fill="transparent"/>
	<path d = "M 363.28 98.44 L 365.62 72.66" stroke="white" fill="transparent"/>
	<path d = "M 325.78 445.31 L 307.03 457.03 L 250.78 457.03 L 215.62 471.09 L 161.72 473.44 L 124.22 454.69 L 112.50 419.53" stroke="white" fill="transparent"/>
	<path d = "M 300.00 440.62 L 330.47 459.38" stroke="white" fill="transparent"/>
	<path d = "M 159.38 318.75 L 124.22 367.97 L 157.03 353.91 L 178.12 370.31 L 213.28 365.62 L 220.31 379.69 L 253.12 398.44" stroke="white" fill="transparent"/>
	<path d = "M 487.50 300.00 L 457.03 314.06 L 393.75 377.34 L 386.72 393.75 L 407.81 396.09 L 461.72 375.00 L 496.88 398.44 L 550.78 400.78 L 564.84 389.06 L 555.47 377.34" stroke="white" fill="transparent"/>
	<path d = "M 302.34 159.38 L 290.62 180.47 L 239.06 232.03 L 236.72 243.75 L 278.91 278.91 L 344.53 274.22 L 360.94 255.47 L 358.59 225.00 L 323.44 187.50 L 290.62 164.06" stroke="white" fill="transparent"/>
	<path d = "M 321.09 297.66 L 323.44 328.12 L 342.19 332.81 L 344.53 311.72" stroke="white" fill="transparent"/>
</svg>