<?xml version="1.0" encoding="UTF-8" standalone="no"?>
<!--Created with ndjsontosvg (https:https://github.com/thompson318/ndjsontosvg) 
	from the simplified Google quickdraw data set. key_id = 5151309139279872-->
<svg width="600" height="600"
	xmlns="http://www.w3.org/2000/svg">
	xmlns:ndjsontosvg="https://github.com/thompson318/ndjsontosvg"
	xmlns:quickdraw="https://quickdraw.withgoogle.com/data"
	xmlns:scikit-surgery="https://doi.org/10.1007/s11548-020-02180-5">

	<rect width="100%" height="100%" fill="black" />
	<path d = "M 0.00 21.09 L 126.56 46.88 L 541.41 46.88 L 564.84 32.81" stroke="white" fill="transparent"/>
	<path d = "M 70.31 246.09 L 72.66 264.84 L 91.41 276.56 L 147.66 300.00 L 215.62 314.06 L 344.53 307.03 L 496.88 257.81" stroke="white" fill="transparent"/>
	<path d = "M 51.56 438.28 L 51.56 457.03 L 157.03 482.81 L 325.78 461.72 L 393.75 461.72" stroke="white" fill="transparent"/>
	<path d = "M 525.00 246.09 L 534.38 269.53 L 546.09 250.78 L 546.09 229.69 L 532.03 210.94 L 525.00 229.69 L 534.38 257.81" stroke="white" fill="transparent"/>
	<path d = "M 365.62 450.00 L 384.38 450.00 L 403.12 464.06 L 419.53 457.03 L 438.28 433.59 L 433.59 417.19 L 412.50 410.16 L 410.16 489.84 L 424.22 464.06 L 424.22 424.22 L 410.16 412.50" stroke="white" fill="transparent"/>
	<path d = "M 583.59 14.06 L 583.59 35.16 L 597.66 18.75 L 590.62 0.00 L 571.88 0.00 L 553.12 25.78 L 553.12 46.88 L 564.84 84.38 L 583.59 93.75 L 583.59 42.19 L 569.53 18.75 L 560.16 42.19 L 560.16 72.66" stroke="white" fill="transparent"/>
</svg>