<?xml version="1.0" encoding="UTF-8" standalone="no"?>
<!--Created with ndjsontosvg (https:https://github.com/thompson318/ndjsontosvg) 
	from the simplified Google quickdraw data set. key_id = 6711370428973056-->
<svg width="600" height="600"
	xmlns="http://www.w3.org/2000/svg">
	xmlns:ndjsontosvg="https://github.com/thompson318/ndjsontosvg"
	xmlns:quickdraw="https://quickdraw.withgoogle.com/data"
	xmlns:scikit-surgery="https://doi.org/10.1007/s11548-020-02180-5">

	<rect width="100%" height="100%" fill="black" />
	<path d = "M 28.12 152.34 L 25.78 344.53 L 0.00 571.88" stroke="white" fill="transparent"/>
	<path d = "M 86.72 152.34 L 86.72 220.31 L 70.31 377.34 L 70.31 562.50 L 75.00 592.97" stroke="white" fill="transparent"/>
	<path d = "M 161.72 154.69 L 175.78 513.28 L 182.81 557.81" stroke="white" fill="transparent"/>
	<path d = "M 269.53 168.75 L 267.19 485.16 L 292.97 597.66" stroke="white" fill="transparent"/>
	<path d = "M 344.53 182.81 L 349.22 421.88 L 363.28 581.25" stroke="white" fill="transparent"/>
	<path d = "M 440.62 133.59 L 433.59 267.19 L 461.72 532.03" stroke="white" fill="transparent"/>
	<path d = "M 435.94 84.38 L 433.59 63.28 L 447.66 32.81 L 464.06 21.09 L 464.06 93.75 L 457.03 110.16 L 440.62 119.53 L 426.56 96.09 L 433.59 35.16 L 461.72 0.00 L 454.69 25.78" stroke="white" fill="transparent"/>
	<path d = "M 363.28 79.69 L 363.28 175.78 L 339.84 185.16 L 328.12 142.97" stroke="white" fill="transparent"/>
	<path d = "M 267.19 150.00 L 264.84 84.38 L 274.22 110.16 L 274.22 157.03 L 260.16 168.75 L 246.09 133.59" stroke="white" fill="transparent"/>
</svg>