<?xml version="1.0" encoding="UTF-8" standalone="no"?>
<!--Created with ndjsontosvg (https:https://github.com/thompson318/ndjsontosvg) 
	from the simplified Google quickdraw data set. key_id = 5258873273319424-->
<svg width="600" height="600"
	xmlns="http://www.w3.org/2000/svg">
	xmlns:ndjsontosvg="https://github.com/thompson318/ndjsontosvg"
	xmlns:quickdraw="https://quickdraw.withgoogle.com/data"
	xmlns:scikit-surgery="https://doi.org/10.1007/s11548-020-02180-5">

	<rect width="100%" height="100%" fill="black" />
	<path d = "M 154.69 21.09 L 159.38 105.47 L 121.88 372.66 L 119.53 356.25 L 133.59 328.12 L 192.19 67.97 L 194.53 21.09 L 180.47 0.00 L 128.91 16.41 L 84.38 39.84 L 42.19 79.69 L 28.12 105.47 L 2.34 185.16 L 0.00 246.09 L 7.03 330.47 L 23.44 365.62 L 37.50 375.00 L 86.72 372.66 L 133.59 356.25 L 175.78 307.03 L 189.84 243.75 L 187.50 196.88" stroke="white" fill="transparent"/>
	<path d = "M 220.31 51.56 L 356.25 229.69 L 375.00 222.66 L 597.66 227.34 L 581.25 267.19 L 588.28 363.28 L 536.72 349.22 L 278.91 325.78 L 192.19 370.31 L 147.66 377.34" stroke="white" fill="transparent"/>
	<path d = "M 417.19 382.03 L 393.75 517.97 L 506.25 513.28 L 520.31 501.56 L 527.34 473.44 L 510.94 332.81" stroke="white" fill="transparent"/>
</svg>