<?xml version="1.0" encoding="UTF-8" standalone="no"?>
<!--Created with ndjsontosvg (https:https://github.com/thompson318/ndjsontosvg) 
	from the simplified Google quickdraw data set. key_id = 5716991685951488-->
<svg width="600" height="600"
	xmlns="http://www.w3.org/2000/svg">
	xmlns:ndjsontosvg="https://github.com/thompson318/ndjsontosvg"
	xmlns:quickdraw="https://quickdraw.withgoogle.com/data"
	xmlns:scikit-surgery="https://doi.org/10.1007/s11548-020-02180-5">

	<rect width="100%" height="100%" fill="black" />
	<path d = "M 21.09 166.41 L 75.00 189.84 L 185.16 201.56 L 243.75 199.22 L 349.22 180.47 L 435.94 138.28 L 597.66 0.00 L 501.56 157.03 L 471.09 241.41 L 466.41 311.72 L 471.09 365.62 L 480.47 391.41 L 510.94 396.09 L 536.72 377.34 L 569.53 307.03 L 585.94 234.38 L 592.97 75.00 L 550.78 30.47" stroke="white" fill="transparent"/>
	<path d = "M 450.00 363.28 L 412.50 321.09 L 396.09 311.72 L 229.69 250.78 L 107.81 248.44 L 30.47 269.53 L 4.69 269.53 L 2.34 192.19" stroke="white" fill="transparent"/>
	<path d = "M 67.97 269.53 L 79.69 520.31 L 114.84 525.00 L 110.16 257.81" stroke="white" fill="transparent"/>
	<path d = "M 110.16 353.91 L 110.16 353.91" stroke="white" fill="transparent"/>
	<path d = "M 110.16 346.88 L 114.84 257.81 L 124.22 358.59 L 142.97 393.75 L 152.34 403.12 L 157.03 393.75 L 140.62 278.91 L 140.62 229.69 L 152.34 227.34" stroke="white" fill="transparent"/>
</svg>