<?xml version="1.0" encoding="UTF-8" standalone="no"?>
<!--Created with ndjsontosvg (https:https://github.com/thompson318/ndjsontosvg) 
	from the simplified Google quickdraw data set. key_id = 5775565040648192-->
<svg width="600" height="600"
	xmlns="http://www.w3.org/2000/svg">
	xmlns:ndjsontosvg="https://github.com/thompson318/ndjsontosvg"
	xmlns:quickdraw="https://quickdraw.withgoogle.com/data"
	xmlns:scikit-surgery="https://doi.org/10.1007/s11548-020-02180-5">

	<rect width="100%" height="100%" fill="black" />
	<path d = "M 581.25 206.25 L 520.31 192.19 L 438.28 182.81 L 199.22 178.12 L 182.81 154.69 L 142.97 44.53 L 126.56 21.09 L 105.47 4.69 L 86.72 0.00 L 65.62 7.03 L 28.12 56.25 L 4.69 117.19 L 0.00 201.56 L 28.12 318.75 L 60.94 386.72 L 105.47 454.69" stroke="white" fill="transparent"/>
	<path d = "M 597.66 215.62 L 274.22 353.91 L 53.91 482.81" stroke="white" fill="transparent"/>
	<path d = "M 222.66 377.34 L 236.72 452.34 L 264.84 480.47 L 300.00 496.88 L 344.53 496.88 L 372.66 487.50 L 435.94 454.69 L 485.16 417.19 L 515.62 377.34 L 529.69 344.53 L 532.03 281.25 L 525.00 250.78 L 513.28 232.03 L 487.50 215.62" stroke="white" fill="transparent"/>
	<path d = "M 410.16 276.56 L 410.16 325.78 L 431.25 342.19 L 464.06 349.22 L 529.69 337.50" stroke="white" fill="transparent"/>
</svg>