<?xml version="1.0" encoding="UTF-8" standalone="no"?>
<!--Created with ndjsontosvg (https:https://github.com/thompson318/ndjsontosvg) 
	from the simplified Google quickdraw data set. key_id = 5597467607302144-->
<svg width="600" height="600"
	xmlns="http://www.w3.org/2000/svg">
	xmlns:ndjsontosvg="https://github.com/thompson318/ndjsontosvg"
	xmlns:quickdraw="https://quickdraw.withgoogle.com/data"
	xmlns:scikit-surgery="https://doi.org/10.1007/s11548-020-02180-5">

	<rect width="100%" height="100%" fill="black" />
	<path d = "M 166.41 264.84 L 135.94 288.28 L 110.16 323.44 L 103.12 367.97 L 112.50 398.44 L 142.97 438.28 L 159.38 447.66 L 234.38 445.31 L 271.88 457.03 L 281.25 471.09 L 283.59 492.19 L 281.25 513.28 L 255.47 536.72 L 208.59 555.47 L 175.78 557.81 L 166.41 585.94 L 175.78 592.97 L 201.56 595.31 L 281.25 564.84 L 281.25 571.88 L 288.28 562.50 L 314.06 578.91 L 304.69 597.66 L 332.81 581.25 L 346.88 536.72 L 337.50 489.84 L 304.69 398.44 L 264.84 367.97 L 192.19 365.62 L 178.12 346.88 L 168.75 302.34 L 189.84 250.78 L 182.81 246.09 L 161.72 253.12 L 157.03 274.22 L 142.97 281.25 L 114.84 276.56 L 96.09 255.47 L 77.34 140.62 L 84.38 114.84 L 110.16 82.03 L 135.94 77.34 L 152.34 84.38 L 182.81 124.22 L 189.84 239.06" stroke="white" fill="transparent"/>
	<path d = "M 175.78 98.44 L 210.94 159.38 L 239.06 168.75 L 283.59 166.41 L 215.62 182.81 L 199.22 178.12 L 189.84 159.38" stroke="white" fill="transparent"/>
	<path d = "M 89.06 131.25 L 28.12 180.47 L 11.72 182.81 L 0.00 173.44 L 14.06 201.56 L 35.16 225.00 L 51.56 229.69 L 121.88 185.16" stroke="white" fill="transparent"/>
	<path d = "M 107.81 98.44 L 72.66 82.03 L 58.59 67.97 L 60.94 28.12 L 84.38 7.03 L 121.88 0.00 L 154.69 16.41 L 161.72 21.09 L 164.06 65.62 L 157.03 89.06 L 107.81 105.47 L 107.81 96.09" stroke="white" fill="transparent"/>
	<path d = "M 86.72 42.19 L 112.50 65.62 L 128.91 63.28 L 135.94 49.22" stroke="white" fill="transparent"/>
	<path d = "M 131.25 16.41 L 126.56 39.84" stroke="white" fill="transparent"/>
	<path d = "M 112.50 16.41 L 107.81 53.91" stroke="white" fill="transparent"/>
</svg>