<?xml version="1.0" encoding="UTF-8" standalone="no"?>
<!--Created with ndjsontosvg (https:https://github.com/thompson318/ndjsontosvg) 
	from the simplified Google quickdraw data set. key_id = 5501001136078848-->
<svg width="600" height="600"
	xmlns="http://www.w3.org/2000/svg">
	xmlns:ndjsontosvg="https://github.com/thompson318/ndjsontosvg"
	xmlns:quickdraw="https://quickdraw.withgoogle.com/data"
	xmlns:scikit-surgery="https://doi.org/10.1007/s11548-020-02180-5">

	<rect width="100%" height="100%" fill="black" />
	<path d = "M 65.62 337.50 L 42.19 419.53 L 44.53 475.78 L 56.25 515.62 L 86.72 557.81 L 112.50 578.91 L 159.38 595.31 L 206.25 597.66 L 278.91 581.25 L 316.41 557.81 L 349.22 499.22 L 356.25 426.56 L 377.34 407.81 L 428.91 391.41 L 438.28 370.31 L 433.59 360.94 L 419.53 351.56 L 332.81 335.16 L 311.72 344.53 L 304.69 363.28 L 290.62 370.31 L 250.78 356.25 L 255.47 405.47 L 290.62 438.28 L 300.00 473.44 L 295.31 494.53 L 278.91 510.94 L 229.69 527.34 L 185.16 515.62 L 157.03 482.81 L 150.00 459.38 L 150.00 426.56 L 161.72 389.06 L 201.56 351.56 L 210.94 332.81 L 199.22 328.12 L 100.78 346.88 L 72.66 337.50" stroke="white" fill="transparent"/>
	<path d = "M 84.38 335.16 L 82.03 311.72 L 100.78 246.09 L 89.06 239.06 L 28.12 234.38 L 2.34 203.91 L 2.34 126.56 L 18.75 79.69 L 42.19 171.09 L 53.91 187.50 L 75.00 189.84 L 112.50 140.62 L 145.31 135.94 L 173.44 147.66 L 194.53 168.75 L 213.28 227.34 L 227.34 234.38 L 255.47 225.00 L 323.44 147.66 L 330.47 142.97 L 342.19 152.34 L 358.59 199.22 L 351.56 225.00 L 323.44 241.41 L 236.72 267.19 L 203.91 321.09" stroke="white" fill="transparent"/>
	<path d = "M 138.28 142.97 L 124.22 112.50 L 128.91 79.69 L 159.38 30.47 L 187.50 7.03 L 222.66 0.00 L 253.12 11.72 L 271.88 42.19 L 264.84 70.31 L 250.78 96.09 L 213.28 121.88 L 189.84 128.91 L 145.31 119.53" stroke="white" fill="transparent"/>
	<path d = "M 178.12 70.31 L 175.78 70.31" stroke="white" fill="transparent"/>
	<path d = "M 253.12 56.25 L 253.12 56.25" stroke="white" fill="transparent"/>
	<path d = "M 189.84 89.06 L 208.59 96.09 L 217.97 82.03" stroke="white" fill="transparent"/>
</svg>