<?xml version="1.0" encoding="UTF-8" standalone="no"?>
<!--Created with ndjsontosvg (https:https://github.com/thompson318/ndjsontosvg) 
	from the simplified Google quickdraw data set. key_id = 6677831973076992-->
<svg width="600" height="600"
	xmlns="http://www.w3.org/2000/svg">
	xmlns:ndjsontosvg="https://github.com/thompson318/ndjsontosvg"
	xmlns:quickdraw="https://quickdraw.withgoogle.com/data"
	xmlns:scikit-surgery="https://doi.org/10.1007/s11548-020-02180-5">

	<rect width="100%" height="100%" fill="black" />
	<path d = "M 339.84 30.47 L 323.44 67.97 L 337.50 114.84 L 372.66 145.31 L 410.16 150.00 L 452.34 121.88 L 471.09 82.03 L 464.06 25.78 L 457.03 14.06 L 438.28 7.03" stroke="white" fill="transparent"/>
	<path d = "M 360.94 173.44 L 339.84 253.12" stroke="white" fill="transparent"/>
	<path d = "M 421.88 171.09 L 407.81 208.59 L 405.47 255.47 L 384.38 264.84 L 349.22 262.50" stroke="white" fill="transparent"/>
	<path d = "M 351.56 187.50 L 328.12 189.84 L 267.19 210.94" stroke="white" fill="transparent"/>
	<path d = "M 431.25 166.41 L 466.41 203.91" stroke="white" fill="transparent"/>
	<path d = "M 335.16 250.78 L 295.31 304.69 L 215.62 337.50 L 152.34 337.50 L 67.97 309.38" stroke="white" fill="transparent"/>
	<path d = "M 417.19 262.50 L 403.12 330.47 L 377.34 365.62 L 346.88 389.06 L 271.88 419.53 L 201.56 421.88 L 133.59 386.72 L 91.41 342.19 L 56.25 262.50 L 44.53 253.12 L 32.81 255.47 L 30.47 269.53 L 51.56 300.00 L 75.00 318.75 L 14.06 335.16 L 0.00 356.25 L 32.81 365.62 L 107.81 337.50" stroke="white" fill="transparent"/>
	<path d = "M 459.38 21.09 L 419.53 2.34 L 396.09 0.00 L 356.25 9.38 L 321.09 35.16" stroke="white" fill="transparent"/>
	<path d = "M 384.38 39.84 L 335.16 9.38 L 309.38 11.72 L 267.19 46.88 L 217.97 138.28 L 178.12 161.72" stroke="white" fill="transparent"/>
	<path d = "M 400.78 37.50 L 428.91 25.78 L 496.88 23.44 L 541.41 42.19 L 560.16 63.28 L 571.88 93.75 L 588.28 140.62 L 597.66 217.97" stroke="white" fill="transparent"/>
	<path d = "M 382.03 194.53 L 370.31 196.88 L 386.72 199.22" stroke="white" fill="transparent"/>
	<path d = "M 386.72 199.22 L 398.44 199.22" stroke="white" fill="transparent"/>
</svg>