<?xml version="1.0" encoding="UTF-8" standalone="no"?>
<!--Created with ndjsontosvg (https:https://github.com/thompson318/ndjsontosvg) 
	from the simplified Google quickdraw data set. key_id = 5590697203728384-->
<svg width="600" height="600"
	xmlns="http://www.w3.org/2000/svg">
	xmlns:ndjsontosvg="https://github.com/thompson318/ndjsontosvg"
	xmlns:quickdraw="https://quickdraw.withgoogle.com/data"
	xmlns:scikit-surgery="https://doi.org/10.1007/s11548-020-02180-5">

	<rect width="100%" height="100%" fill="black" />
	<path d = "M 180.47 145.31 L 161.72 161.72 L 157.03 187.50 L 199.22 267.19 L 203.91 307.03" stroke="white" fill="transparent"/>
	<path d = "M 264.84 142.97 L 281.25 154.69 L 288.28 175.78 L 281.25 290.62 L 307.03 325.78" stroke="white" fill="transparent"/>
	<path d = "M 189.84 318.75 L 283.59 318.75" stroke="white" fill="transparent"/>
	<path d = "M 208.59 323.44 L 182.81 349.22 L 182.81 384.38 L 210.94 442.97 L 250.78 485.16 L 257.81 508.59 L 243.75 543.75 L 203.91 581.25 L 253.12 560.16 L 285.94 532.03 L 304.69 567.19 L 344.53 597.66 L 351.56 588.28 L 349.22 574.22 L 307.03 489.84 L 321.09 370.31 L 307.03 332.81" stroke="white" fill="transparent"/>
	<path d = "M 356.25 433.59 L 431.25 391.41" stroke="white" fill="transparent"/>
	<path d = "M 377.34 393.75 L 332.81 457.03 L 393.75 473.44" stroke="white" fill="transparent"/>
	<path d = "M 382.03 370.31 L 353.91 330.47 L 281.25 292.97 L 232.03 290.62 L 196.88 300.00 L 157.03 349.22 L 145.31 375.00 L 133.59 424.22 L 138.28 501.56 L 185.16 569.53 L 208.59 585.94 L 346.88 597.66 L 379.69 583.59 L 410.16 555.47 L 428.91 510.94 L 428.91 485.16 L 400.78 400.78" stroke="white" fill="transparent"/>
	<path d = "M 255.47 25.78 L 246.09 14.06 L 229.69 11.72 L 192.19 21.09 L 152.34 63.28 L 152.34 110.16 L 194.53 133.59 L 234.38 128.91 L 276.56 110.16 L 290.62 86.72 L 292.97 67.97" stroke="white" fill="transparent"/>
	<path d = "M 236.72 18.75 L 208.59 2.34 L 180.47 0.00 L 159.38 7.03 L 119.53 44.53 L 107.81 65.62 L 119.53 196.88 L 105.47 243.75" stroke="white" fill="transparent"/>
	<path d = "M 215.62 51.56 L 229.69 30.47 L 253.12 21.09 L 271.88 30.47 L 285.94 140.62 L 292.97 166.41 L 307.03 182.81 L 332.81 192.19 L 384.38 187.50" stroke="white" fill="transparent"/>
	<path d = "M 206.25 135.94 L 185.16 154.69" stroke="white" fill="transparent"/>
	<path d = "M 222.66 128.91 L 250.78 135.94" stroke="white" fill="transparent"/>
	<path d = "M 168.75 171.09 L 124.22 173.44 L 79.69 201.56 L 18.75 262.50 L 0.00 292.97" stroke="white" fill="transparent"/>
	<path d = "M 285.94 152.34 L 318.75 180.47 L 344.53 234.38 L 419.53 267.19 L 466.41 271.88" stroke="white" fill="transparent"/>
</svg>