<?xml version="1.0" encoding="UTF-8" standalone="no"?>
<!--Created with ndjsontosvg (https:https://github.com/thompson318/ndjsontosvg) 
	from the simplified Google quickdraw data set. key_id = 5265420363759616-->
<svg width="600" height="600"
	xmlns="http://www.w3.org/2000/svg">
	xmlns:ndjsontosvg="https://github.com/thompson318/ndjsontosvg"
	xmlns:quickdraw="https://quickdraw.withgoogle.com/data"
	xmlns:scikit-surgery="https://doi.org/10.1007/s11548-020-02180-5">

	<rect width="100%" height="100%" fill="black" />
	<path d = "M 96.09 304.69 L 100.78 213.28 L 72.66 225.00 L 0.00 314.06" stroke="white" fill="transparent"/>
	<path d = "M 119.53 173.44 L 138.28 222.66 L 243.75 255.47" stroke="white" fill="transparent"/>
	<path d = "M 51.56 42.19 L 32.81 56.25 L 14.06 91.41 L 11.72 124.22 L 86.72 178.12 L 100.78 182.81 L 150.00 154.69 L 185.16 86.72 L 185.16 70.31 L 175.78 56.25 L 145.31 32.81 L 107.81 28.12 L 60.94 37.50 L 30.47 60.94" stroke="white" fill="transparent"/>
	<path d = "M 75.00 307.03 L 60.94 367.97 L 60.94 424.22 L 79.69 471.09 L 103.12 485.16 L 119.53 496.88 L 175.78 501.56 L 264.84 529.69 L 393.75 539.06 L 410.16 548.44 L 454.69 555.47 L 471.09 553.12 L 459.38 548.44" stroke="white" fill="transparent"/>
	<path d = "M 133.59 300.00 L 128.91 377.34 L 175.78 452.34 L 208.59 464.06 L 461.72 508.59 L 517.97 527.34 L 539.06 541.41" stroke="white" fill="transparent"/>
	<path d = "M 478.12 560.16 L 571.88 588.28 L 585.94 571.88" stroke="white" fill="transparent"/>
	<path d = "M 520.31 539.06 L 585.94 576.56 L 590.62 597.66" stroke="white" fill="transparent"/>
	<path d = "M 56.25 100.78 L 65.62 105.47" stroke="white" fill="transparent"/>
	<path d = "M 140.62 114.84 L 145.31 110.16" stroke="white" fill="transparent"/>
	<path d = "M 2.34 70.31 L 2.34 51.56 L 46.88 16.41 L 91.41 2.34 L 199.22 0.00 L 264.84 11.72 L 318.75 44.53 L 330.47 60.94 L 325.78 194.53 L 342.19 236.72 L 339.84 222.66 L 330.47 217.97" stroke="white" fill="transparent"/>
	<path d = "M 173.44 124.22 L 182.81 157.03 L 246.09 236.72 L 353.91 239.06 L 372.66 192.19 L 372.66 175.78 L 342.19 145.31 L 236.72 128.91 L 271.88 114.84 L 283.59 161.72 L 283.59 119.53 L 297.66 86.72 L 271.88 145.31" stroke="white" fill="transparent"/>
</svg>