<?xml version="1.0" encoding="UTF-8" standalone="no"?>
<!--Created with ndjsontosvg (https:https://github.com/thompson318/ndjsontosvg) 
	from the simplified Google quickdraw data set. key_id = 5890031837249536-->
<svg width="600" height="600"
	xmlns="http://www.w3.org/2000/svg">
	xmlns:ndjsontosvg="https://github.com/thompson318/ndjsontosvg"
	xmlns:quickdraw="https://quickdraw.withgoogle.com/data"
	xmlns:scikit-surgery="https://doi.org/10.1007/s11548-020-02180-5">

	<rect width="100%" height="100%" fill="black" />
	<path d = "M 98.44 292.97 L 91.41 328.12 L 105.47 386.72 L 131.25 433.59 L 157.03 464.06 L 189.84 475.78 L 248.44 478.12 L 358.59 459.38 L 400.78 459.38 L 534.38 534.38 L 529.69 503.91 L 534.38 487.50 L 564.84 464.06 L 597.66 459.38 L 466.41 445.31 L 459.38 412.50 L 450.00 410.16 L 414.84 410.16 L 339.84 426.56 L 290.62 417.19 L 271.88 403.12 L 243.75 344.53 L 255.47 278.91 L 229.69 250.78 L 103.12 283.59 L 44.53 185.16 L 49.22 159.38 L 82.03 140.62 L 121.88 131.25 L 196.88 131.25 L 227.34 194.53 L 236.72 236.72" stroke="white" fill="transparent"/>
	<path d = "M 227.34 164.06 L 262.50 178.12 L 372.66 201.56" stroke="white" fill="transparent"/>
	<path d = "M 53.91 199.22 L 0.00 285.94" stroke="white" fill="transparent"/>
	<path d = "M 63.28 147.66 L 42.19 135.94 L 7.03 103.12 L 0.00 79.69 L 21.09 28.12 L 53.91 9.38 L 131.25 2.34 L 168.75 35.16 L 180.47 79.69 L 168.75 103.12 L 145.31 121.88" stroke="white" fill="transparent"/>
	<path d = "M 89.06 187.50 L 89.06 161.72 L 112.50 152.34 L 131.25 171.09 L 121.88 189.84" stroke="white" fill="transparent"/>
</svg>