<?xml version="1.0" encoding="UTF-8" standalone="no"?>
<!--Created with ndjsontosvg (https:https://github.com/thompson318/ndjsontosvg) 
	from the simplified Google quickdraw data set. key_id = 5913579192582144-->
<svg width="600" height="600"
	xmlns="http://www.w3.org/2000/svg">
	xmlns:ndjsontosvg="https://github.com/thompson318/ndjsontosvg"
	xmlns:quickdraw="https://quickdraw.withgoogle.com/data"
	xmlns:scikit-surgery="https://doi.org/10.1007/s11548-020-02180-5">

	<rect width="100%" height="100%" fill="black" />
	<path d = "M 199.22 267.19 L 210.94 281.25 L 276.56 309.38 L 178.12 480.47 L 159.38 487.50 L 124.22 485.16 L 119.53 442.97 L 154.69 330.47 L 157.03 278.91 L 168.75 241.41 L 185.16 220.31 L 215.62 203.91 L 215.62 253.12" stroke="white" fill="transparent"/>
	<path d = "M 110.16 475.78 L 72.66 473.44 L 46.88 485.16 L 0.00 534.38 L 60.94 541.41 L 89.06 529.69 L 142.97 597.66 L 154.69 597.66 L 161.72 574.22 L 166.41 478.12" stroke="white" fill="transparent"/>
	<path d = "M 203.91 199.22 L 302.34 128.91" stroke="white" fill="transparent"/>
	<path d = "M 292.97 304.69 L 300.00 271.88 L 396.09 145.31 L 407.81 93.75 L 403.12 77.34" stroke="white" fill="transparent"/>
	<path d = "M 292.97 124.22 L 295.31 154.69 L 307.03 154.69 L 311.72 138.28 L 304.69 128.91 L 292.97 128.91" stroke="white" fill="transparent"/>
	<path d = "M 330.47 147.66 L 316.41 147.66 L 311.72 159.38 L 309.38 175.78 L 321.09 180.47 L 344.53 180.47 L 349.22 175.78 L 353.91 159.38 L 346.88 150.00" stroke="white" fill="transparent"/>
	<path d = "M 349.22 30.47 L 337.50 32.81 L 332.81 49.22 L 323.44 89.06 L 328.12 121.88 L 344.53 135.94 L 372.66 135.94 L 403.12 121.88 L 421.88 96.09 L 426.56 56.25 L 410.16 23.44 L 384.38 7.03 L 325.78 2.34" stroke="white" fill="transparent"/>
	<path d = "M 344.53 16.41 L 353.91 42.19 L 400.78 60.94 L 424.22 86.72 L 438.28 114.84 L 452.34 182.81 L 450.00 241.41 L 445.31 241.41" stroke="white" fill="transparent"/>
	<path d = "M 365.62 14.06 L 391.41 30.47 L 468.75 110.16 L 473.44 126.56 L 475.78 157.03 L 426.56 199.22 L 405.47 234.38" stroke="white" fill="transparent"/>
</svg>