<?xml version="1.0" encoding="UTF-8" standalone="no"?>
<!--Created with ndjsontosvg (https:https://github.com/thompson318/ndjsontosvg) 
	from the simplified Google quickdraw data set. key_id = 6204779774607360-->
<svg width="600" height="600"
	xmlns="http://www.w3.org/2000/svg">
	xmlns:ndjsontosvg="https://github.com/thompson318/ndjsontosvg"
	xmlns:quickdraw="https://quickdraw.withgoogle.com/data"
	xmlns:scikit-surgery="https://doi.org/10.1007/s11548-020-02180-5">

	<rect width="100%" height="100%" fill="black" />
	<path d = "M 210.94 267.19 L 196.88 356.25 L 180.47 400.78 L 135.94 454.69 L 100.78 475.78 L 21.09 499.22 L 2.34 515.62 L 2.34 529.69 L 28.12 546.09 L 63.28 548.44 L 133.59 522.66 L 140.62 562.50 L 154.69 585.94 L 182.81 597.66 L 213.28 588.28 L 220.31 555.47 L 199.22 489.84 L 257.81 412.50 L 283.59 353.91 L 285.94 302.34 L 278.91 281.25 L 260.16 262.50 L 196.88 253.12" stroke="white" fill="transparent"/>
	<path d = "M 215.62 246.09 L 203.91 70.31 L 178.12 56.25 L 175.78 32.81 L 192.19 18.75 L 234.38 2.34 L 276.56 2.34 L 290.62 16.41 L 297.66 37.50 L 285.94 53.91 L 257.81 63.28 L 276.56 269.53" stroke="white" fill="transparent"/>
	<path d = "M 276.56 145.31 L 288.28 128.91 L 372.66 56.25" stroke="white" fill="transparent"/>
	<path d = "M 206.25 161.72 L 91.41 105.47" stroke="white" fill="transparent"/>
</svg>