<?xml version="1.0" encoding="UTF-8" standalone="no"?>
<!--Created with ndjsontosvg (https:https://github.com/thompson318/ndjsontosvg) 
	from the simplified Google quickdraw data set. key_id = 5502095983640576-->
<svg width="600" height="600"
	xmlns="http://www.w3.org/2000/svg">
	xmlns:ndjsontosvg="https://github.com/thompson318/ndjsontosvg"
	xmlns:quickdraw="https://quickdraw.withgoogle.com/data"
	xmlns:scikit-surgery="https://doi.org/10.1007/s11548-020-02180-5">

	<rect width="100%" height="100%" fill="black" />
	<path d = "M 180.47 46.88 L 161.72 30.47 L 131.25 39.84 L 110.16 70.31 L 112.50 79.69 L 128.91 89.06 L 145.31 93.75 L 178.12 89.06 L 187.50 70.31 L 185.16 44.53 L 147.66 14.06 L 117.19 7.03 L 91.41 11.72 L 53.91 46.88 L 14.06 119.53 L 2.34 131.25" stroke="white" fill="transparent"/>
	<path d = "M 173.44 25.78 L 194.53 4.69 L 217.97 0.00 L 248.44 35.16 L 246.09 65.62 L 217.97 107.81 L 220.31 126.56" stroke="white" fill="transparent"/>
	<path d = "M 9.38 124.22 L 0.00 142.97 L 9.38 159.38 L 98.44 124.22 L 135.94 96.09 L 142.97 114.84" stroke="white" fill="transparent"/>
	<path d = "M 159.38 93.75 L 161.72 121.88" stroke="white" fill="transparent"/>
	<path d = "M 133.59 119.53 L 86.72 171.09" stroke="white" fill="transparent"/>
	<path d = "M 86.72 173.44 L 86.72 173.44" stroke="white" fill="transparent"/>
	<path d = "M 173.44 112.50 L 185.16 166.41 L 236.72 192.19 L 309.38 178.12 L 421.88 173.44 L 464.06 180.47 L 515.62 203.91 L 550.78 159.38 L 590.62 133.59 L 597.66 166.41 L 569.53 199.22 L 560.16 222.66 L 557.81 262.50 L 564.84 278.91 L 485.16 234.38 L 433.59 217.97 L 356.25 215.62 L 255.47 236.72 L 192.19 232.03 L 161.72 201.56 L 140.62 159.38" stroke="white" fill="transparent"/>
</svg>