<?xml version="1.0" encoding="UTF-8" standalone="no"?>
<!--Created with ndjsontosvg (https:https://github.com/thompson318/ndjsontosvg) 
	from the simplified Google quickdraw data set. key_id = 5420675730767872-->
<svg width="600" height="600"
	xmlns="http://www.w3.org/2000/svg">
	xmlns:ndjsontosvg="https://github.com/thompson318/ndjsontosvg"
	xmlns:quickdraw="https://quickdraw.withgoogle.com/data"
	xmlns:scikit-surgery="https://doi.org/10.1007/s11548-020-02180-5">

	<rect width="100%" height="100%" fill="black" />
	<path d = "M 285.94 217.97 L 300.00 276.56 L 309.38 290.62 L 328.12 292.97" stroke="white" fill="transparent"/>
	<path d = "M 281.25 213.28 L 248.44 239.06 L 199.22 253.12 L 98.44 257.81 L 93.75 248.44 L 103.12 229.69 L 154.69 196.88 L 150.00 180.47 L 124.22 175.78 L 105.47 180.47 L 86.72 203.91 L 49.22 182.81 L 32.81 185.16 L 2.34 210.94 L 2.34 229.69 L 77.34 257.81 L 82.03 297.66 L 110.16 311.72 L 271.88 307.03 L 314.06 290.62" stroke="white" fill="transparent"/>
	<path d = "M 278.91 215.62 L 311.72 180.47 L 382.03 152.34 L 365.62 142.97 L 332.81 142.97 L 262.50 157.03 L 274.22 135.94 L 323.44 117.19 L 393.75 117.19 L 400.78 126.56" stroke="white" fill="transparent"/>
	<path d = "M 311.72 283.59 L 367.97 257.81 L 428.91 189.84 L 426.56 246.09 L 433.59 271.88 L 447.66 276.56 L 457.03 269.53 L 466.41 213.28 L 450.00 187.50 L 442.97 157.03 L 475.78 140.62 L 489.84 105.47 L 445.31 100.78 L 393.75 121.88" stroke="white" fill="transparent"/>
	<path d = "M 447.66 96.09 L 445.31 89.06 L 398.44 77.34 L 360.94 75.00 L 335.16 84.38" stroke="white" fill="transparent"/>
	<path d = "M 468.75 103.12 L 459.38 53.91 L 435.94 25.78 L 407.81 2.34 L 393.75 0.00 L 384.38 9.38" stroke="white" fill="transparent"/>
	<path d = "M 489.84 91.41 L 506.25 86.72 L 546.09 93.75 L 583.59 119.53 L 597.66 154.69 L 592.97 213.28" stroke="white" fill="transparent"/>
	<path d = "M 475.78 119.53 L 529.69 164.06 L 546.09 185.16 L 550.78 201.56 L 546.09 236.72" stroke="white" fill="transparent"/>
</svg>