<?xml version="1.0" encoding="UTF-8" standalone="no"?>
<!--Created with ndjsontosvg (https:https://github.com/thompson318/ndjsontosvg) 
	from the simplified Google quickdraw data set. key_id = 4886154656612352-->
<svg width="600" height="600"
	xmlns="http://www.w3.org/2000/svg">
	xmlns:ndjsontosvg="https://github.com/thompson318/ndjsontosvg"
	xmlns:quickdraw="https://quickdraw.withgoogle.com/data"
	xmlns:scikit-surgery="https://doi.org/10.1007/s11548-020-02180-5">

	<rect width="100%" height="100%" fill="black" />
	<path d = "M 398.44 9.38 L 353.91 46.88 L 356.25 103.12 L 367.97 124.22 L 386.72 126.56 L 405.47 117.19 L 421.88 96.09 L 421.88 58.59 L 400.78 2.34 L 363.28 9.38 L 353.91 32.81 L 337.50 154.69 L 325.78 182.81 L 297.66 215.62 L 241.41 220.31 L 210.94 194.53 L 206.25 166.41 L 222.66 98.44" stroke="white" fill="transparent"/>
	<path d = "M 403.12 4.69 L 438.28 114.84 L 473.44 168.75 L 510.94 208.59 L 585.94 213.28 L 592.97 208.59 L 597.66 147.66 L 583.59 114.84" stroke="white" fill="transparent"/>
	<path d = "M 382.03 133.59 L 384.38 150.00" stroke="white" fill="transparent"/>
	<path d = "M 405.47 121.88 L 405.47 140.62" stroke="white" fill="transparent"/>
	<path d = "M 384.38 150.00 L 356.25 157.03 L 351.56 217.97" stroke="white" fill="transparent"/>
	<path d = "M 405.47 140.62 L 438.28 157.03 L 447.66 175.78 L 450.00 227.34 L 435.94 232.03" stroke="white" fill="transparent"/>
	<path d = "M 351.56 220.31 L 302.34 290.62 L 271.88 302.34 L 168.75 307.03 L 121.88 288.28 L 98.44 267.19 L 110.16 187.50 L 65.62 267.19 L 14.06 269.53 L 2.34 278.91 L 2.34 290.62 L 192.19 342.19 L 295.31 337.50 L 356.25 325.78 L 391.41 292.97 L 424.22 229.69" stroke="white" fill="transparent"/>
	<path d = "M 435.94 187.50 L 438.28 213.28 L 424.22 232.03" stroke="white" fill="transparent"/>
	<path d = "M 377.34 185.16 L 375.00 201.56 L 358.59 225.00" stroke="white" fill="transparent"/>
	<path d = "M 353.91 229.69 L 410.16 250.78" stroke="white" fill="transparent"/>
	<path d = "M 382.03 178.12 L 382.03 201.56 L 391.41 206.25 L 400.78 201.56 L 400.78 171.09 L 379.69 185.16" stroke="white" fill="transparent"/>
	<path d = "M 407.81 185.16 L 407.81 185.16" stroke="white" fill="transparent"/>
</svg>