<?xml version="1.0" encoding="UTF-8" standalone="no"?>
<!--Created with ndjsontosvg (https:https://github.com/thompson318/ndjsontosvg) 
	from the simplified Google quickdraw data set. key_id = 6570403579297792-->
<svg width="600" height="600"
	xmlns="http://www.w3.org/2000/svg">
	xmlns:ndjsontosvg="https://github.com/thompson318/ndjsontosvg"
	xmlns:quickdraw="https://quickdraw.withgoogle.com/data"
	xmlns:scikit-surgery="https://doi.org/10.1007/s11548-020-02180-5">

	<rect width="100%" height="100%" fill="black" />
	<path d = "M 28.12 199.22 L 21.09 157.03 L 21.09 60.94 L 63.28 4.69 L 117.19 0.00 L 135.94 11.72 L 189.84 119.53 L 187.50 131.25 L 157.03 142.97 L 46.88 168.75 L 25.78 180.47 L 2.34 206.25 L 0.00 225.00 L 0.00 236.72 L 21.09 262.50 L 63.28 274.22 L 133.59 274.22 L 161.72 257.81 L 257.81 166.41 L 262.50 154.69 L 257.81 119.53 L 232.03 112.50 L 189.84 114.84" stroke="white" fill="transparent"/>
	<path d = "M 217.97 138.28 L 220.31 152.34 L 255.47 201.56 L 260.16 225.00 L 260.16 264.84 L 227.34 342.19 L 213.28 351.56 L 166.41 358.59 L 126.56 356.25 L 98.44 330.47 L 67.97 278.91" stroke="white" fill="transparent"/>
	<path d = "M 210.94 328.12 L 222.66 393.75 L 269.53 553.12 L 302.34 590.62 L 356.25 595.31 L 358.59 560.16 L 353.91 536.72 L 248.44 342.19 L 241.41 314.06" stroke="white" fill="transparent"/>
	<path d = "M 65.62 105.47 L 49.22 119.53 L 53.91 150.00 L 63.28 154.69" stroke="white" fill="transparent"/>
</svg>