<?xml version="1.0" encoding="UTF-8" standalone="no"?>
<!--Created with ndjsontosvg (https:https://github.com/thompson318/ndjsontosvg) 
	from the simplified Google quickdraw data set. key_id = 5312290335227904-->
<svg width="600" height="600"
	xmlns="http://www.w3.org/2000/svg">
	xmlns:ndjsontosvg="https://github.com/thompson318/ndjsontosvg"
	xmlns:quickdraw="https://quickdraw.withgoogle.com/data"
	xmlns:scikit-surgery="https://doi.org/10.1007/s11548-020-02180-5">

	<rect width="100%" height="100%" fill="black" />
	<path d = "M 91.41 182.81 L 72.66 358.59 L 0.00 562.50 L 112.50 597.66 L 213.28 375.00 L 304.69 225.00" stroke="white" fill="transparent"/>
	<path d = "M 91.41 175.78 L 72.66 161.72 L 72.66 96.09 L 107.81 32.81 L 131.25 11.72 L 164.06 0.00 L 232.03 7.03 L 276.56 18.75 L 311.72 42.19 L 337.50 70.31 L 346.88 103.12 L 346.88 135.94 L 330.47 171.09 L 302.34 208.59 L 264.84 225.00" stroke="white" fill="transparent"/>
	<path d = "M 91.41 182.81 L 276.56 241.41" stroke="white" fill="transparent"/>
	<path d = "M 91.41 150.00 L 135.94 72.66 L 196.88 16.41" stroke="white" fill="transparent"/>
	<path d = "M 84.38 178.12 L 100.78 145.31 L 131.25 114.84 L 203.91 60.94" stroke="white" fill="transparent"/>
	<path d = "M 124.22 166.41 L 157.03 124.22 L 278.91 37.50" stroke="white" fill="transparent"/>
	<path d = "M 147.66 173.44 L 150.00 161.72 L 178.12 133.59 L 292.97 51.56" stroke="white" fill="transparent"/>
	<path d = "M 161.72 178.12 L 171.09 159.38 L 199.22 135.94 L 307.03 70.31" stroke="white" fill="transparent"/>
	<path d = "M 213.28 182.81 L 292.97 119.53 L 358.59 93.75" stroke="white" fill="transparent"/>
	<path d = "M 56.25 63.28 L 112.50 110.16 L 220.31 175.78 L 250.78 203.91" stroke="white" fill="transparent"/>
	<path d = "M 117.19 14.06 L 267.19 173.44" stroke="white" fill="transparent"/>
</svg>