<?xml version="1.0" encoding="UTF-8" standalone="no"?>
<!--Created with ndjsontosvg (https:https://github.com/thompson318/ndjsontosvg) 
	from the simplified Google quickdraw data set. key_id = 6407038726832128-->
<svg width="600" height="600"
	xmlns="http://www.w3.org/2000/svg">
	xmlns:ndjsontosvg="https://github.com/thompson318/ndjsontosvg"
	xmlns:quickdraw="https://quickdraw.withgoogle.com/data"
	xmlns:scikit-surgery="https://doi.org/10.1007/s11548-020-02180-5">

	<rect width="100%" height="100%" fill="black" />
	<path d = "M 16.41 28.12 L 4.69 37.50 L 0.00 152.34 L 16.41 332.81 L 37.50 353.91 L 77.34 367.97 L 264.84 393.75 L 360.94 393.75 L 478.12 365.62 L 525.00 346.88 L 585.94 304.69 L 595.31 290.62 L 597.66 255.47 L 576.56 180.47 L 571.88 79.69 L 553.12 56.25 L 522.66 49.22 L 283.59 30.47 L 49.22 0.00 L 11.72 0.00 L 7.03 7.03" stroke="white" fill="transparent"/>
	<path d = "M 105.47 42.19 L 103.12 213.28 L 117.19 281.25 L 164.06 285.94 L 367.97 255.47 L 386.72 246.09 L 391.41 220.31 L 377.34 110.16 L 365.62 86.72 L 328.12 77.34 L 89.06 58.59" stroke="white" fill="transparent"/>
	<path d = "M 440.62 77.34 L 454.69 112.50 L 466.41 222.66 L 482.81 300.00 L 494.53 307.03 L 548.44 290.62 L 532.03 150.00 L 515.62 107.81 L 515.62 75.00 L 454.69 72.66" stroke="white" fill="transparent"/>
	<path d = "M 485.16 91.41 L 475.78 107.81 L 489.84 114.84 L 492.19 107.81 L 482.81 98.44" stroke="white" fill="transparent"/>
	<path d = "M 475.78 145.31 L 475.78 145.31" stroke="white" fill="transparent"/>
</svg>