<?xml version="1.0" encoding="UTF-8" standalone="no"?>
<!--Created with ndjsontosvg (https:https://github.com/thompson318/ndjsontosvg) 
	from the simplified Google quickdraw data set. key_id = 5125917275848704-->
<svg width="600" height="600"
	xmlns="http://www.w3.org/2000/svg">
	xmlns:ndjsontosvg="https://github.com/thompson318/ndjsontosvg"
	xmlns:quickdraw="https://quickdraw.withgoogle.com/data"
	xmlns:scikit-surgery="https://doi.org/10.1007/s11548-020-02180-5">

	<rect width="100%" height="100%" fill="black" />
	<path d = "M 39.84 171.09 L 60.94 246.09 L 65.62 457.03 L 89.06 588.28 L 103.12 597.66 L 152.34 592.97 L 140.62 489.84 L 140.62 412.50 L 150.00 344.53 L 142.97 142.97 L 133.59 135.94 L 89.06 171.09 L 42.19 175.78 L 14.06 164.06 L 4.69 119.53 L 11.72 21.09 L 49.22 4.69 L 133.59 9.38 L 168.75 25.78 L 175.78 46.88 L 133.59 150.00" stroke="white" fill="transparent"/>
	<path d = "M 39.84 18.75 L 53.91 145.31 L 56.25 161.72 L 65.62 166.41 L 82.03 157.03 L 93.75 135.94 L 75.00 63.28 L 77.34 9.38 L 84.38 0.00 L 91.41 0.00 L 114.84 23.44 L 121.88 42.19 L 117.19 152.34" stroke="white" fill="transparent"/>
	<path d = "M 164.06 100.78 L 56.25 154.69 L 0.00 152.34" stroke="white" fill="transparent"/>
	<path d = "M 4.69 96.09 L 154.69 51.56" stroke="white" fill="transparent"/>
</svg>