<?xml version="1.0" encoding="UTF-8" standalone="no"?>
<!--Created with ndjsontosvg (https:https://github.com/thompson318/ndjsontosvg) 
	from the simplified Google quickdraw data set. key_id = 5192645448040448-->
<svg width="600" height="600"
	xmlns="http://www.w3.org/2000/svg">
	xmlns:ndjsontosvg="https://github.com/thompson318/ndjsontosvg"
	xmlns:quickdraw="https://quickdraw.withgoogle.com/data"
	xmlns:scikit-surgery="https://doi.org/10.1007/s11548-020-02180-5">

	<rect width="100%" height="100%" fill="black" />
	<path d = "M 309.38 21.09 L 292.97 25.78 L 278.91 42.19 L 250.78 105.47 L 248.44 171.09 L 264.84 192.19 L 307.03 220.31 L 370.31 239.06 L 426.56 241.41 L 475.78 225.00 L 506.25 182.81 L 506.25 131.25 L 487.50 96.09 L 424.22 30.47 L 356.25 2.34 L 311.72 4.69 L 276.56 30.47 L 250.78 75.00" stroke="white" fill="transparent"/>
	<path d = "M 278.91 210.94 L 262.50 217.97 L 84.38 421.88 L 82.03 438.28" stroke="white" fill="transparent"/>
	<path d = "M 386.72 243.75 L 241.41 403.12 L 124.22 517.97 L 107.81 517.97 L 93.75 506.25 L 70.31 457.03" stroke="white" fill="transparent"/>
	<path d = "M 316.41 60.94 L 314.06 60.94" stroke="white" fill="transparent"/>
	<path d = "M 295.31 150.00 L 297.66 150.00" stroke="white" fill="transparent"/>
	<path d = "M 344.53 70.31 L 342.19 75.00" stroke="white" fill="transparent"/>
	<path d = "M 358.59 150.00 L 356.25 154.69" stroke="white" fill="transparent"/>
	<path d = "M 389.06 77.34 L 386.72 77.34" stroke="white" fill="transparent"/>
	<path d = "M 410.16 152.34 L 410.16 166.41" stroke="white" fill="transparent"/>
	<path d = "M 426.56 220.31 L 426.56 220.31" stroke="white" fill="transparent"/>
	<path d = "M 454.69 171.09 L 450.00 171.09" stroke="white" fill="transparent"/>
	<path d = "M 107.81 494.53 L 37.50 543.75 L 0.00 597.66" stroke="white" fill="transparent"/>
</svg>