<?xml version="1.0" encoding="UTF-8" standalone="no"?>
<!--Created with ndjsontosvg (https:https://github.com/thompson318/ndjsontosvg) 
	from the simplified Google quickdraw data set. key_id = 6027228913598464-->
<svg width="600" height="600"
	xmlns="http://www.w3.org/2000/svg">
	xmlns:ndjsontosvg="https://github.com/thompson318/ndjsontosvg"
	xmlns:quickdraw="https://quickdraw.withgoogle.com/data"
	xmlns:scikit-surgery="https://doi.org/10.1007/s11548-020-02180-5">

	<rect width="100%" height="100%" fill="black" />
	<path d = "M 171.09 264.84 L 96.09 257.81 L 30.47 208.59 L 7.03 154.69 L 14.06 89.06 L 32.81 65.62 L 89.06 30.47 L 168.75 14.06 L 285.94 16.41 L 328.12 53.91 L 339.84 82.03 L 342.19 168.75 L 321.09 217.97 L 290.62 253.12 L 255.47 269.53 L 194.53 267.19 L 147.66 253.12" stroke="white" fill="transparent"/>
	<path d = "M 128.91 28.12 L 124.22 201.56 L 128.91 241.41 L 135.94 248.44" stroke="white" fill="transparent"/>
	<path d = "M 206.25 0.00 L 199.22 37.50 L 210.94 119.53 L 210.94 220.31 L 220.31 250.78" stroke="white" fill="transparent"/>
	<path d = "M 290.62 35.16 L 285.94 276.56" stroke="white" fill="transparent"/>
	<path d = "M 0.00 159.38 L 262.50 119.53 L 300.00 119.53" stroke="white" fill="transparent"/>
	<path d = "M 46.88 215.62 L 215.62 203.91 L 300.00 185.16" stroke="white" fill="transparent"/>
	<path d = "M 58.59 290.62 L 131.25 285.94 L 281.25 248.44" stroke="white" fill="transparent"/>
	<path d = "M 89.06 255.47 L 117.19 318.75 L 161.72 468.75 L 206.25 548.44" stroke="white" fill="transparent"/>
	<path d = "M 314.06 210.94 L 307.03 236.72 L 307.03 548.44 L 314.06 576.56 L 297.66 588.28 L 192.19 588.28" stroke="white" fill="transparent"/>
	<path d = "M 152.34 501.56 L 166.41 503.91 L 232.03 581.25" stroke="white" fill="transparent"/>
	<path d = "M 351.56 194.53 L 337.50 412.50 L 339.84 494.53" stroke="white" fill="transparent"/>
	<path d = "M 396.09 159.38 L 370.31 178.12 L 337.50 278.91 L 311.72 433.59 L 307.03 567.19 L 314.06 597.66" stroke="white" fill="transparent"/>
</svg>