<?xml version="1.0" encoding="UTF-8" standalone="no"?>
<!--Created with ndjsontosvg (https:https://github.com/thompson318/ndjsontosvg) 
	from the simplified Google quickdraw data set. key_id = 6027961746587648-->
<svg width="600" height="600"
	xmlns="http://www.w3.org/2000/svg">
	xmlns:ndjsontosvg="https://github.com/thompson318/ndjsontosvg"
	xmlns:quickdraw="https://quickdraw.withgoogle.com/data"
	xmlns:scikit-surgery="https://doi.org/10.1007/s11548-020-02180-5">

	<rect width="100%" height="100%" fill="black" />
	<path d = "M 11.72 23.44 L 14.06 199.22 L 2.34 285.94 L 217.97 283.59 L 325.78 262.50 L 525.00 246.09 L 597.66 246.09" stroke="white" fill="transparent"/>
	<path d = "M 520.31 16.41 L 525.00 262.50" stroke="white" fill="transparent"/>
	<path d = "M 18.75 0.00 L 196.88 7.03 L 459.38 0.00 L 529.69 9.38" stroke="white" fill="transparent"/>
	<path d = "M 112.50 51.56 L 86.72 133.59 L 86.72 215.62 L 482.81 187.50" stroke="white" fill="transparent"/>
	<path d = "M 454.69 49.22 L 457.03 93.75 L 473.44 159.38 L 468.75 194.53" stroke="white" fill="transparent"/>
	<path d = "M 424.22 51.56 L 285.94 58.59 L 225.00 67.97 L 117.19 67.97 L 82.03 89.06" stroke="white" fill="transparent"/>
	<path d = "M 508.59 72.66 L 506.25 84.38" stroke="white" fill="transparent"/>
	<path d = "M 515.62 126.56 L 515.62 126.56" stroke="white" fill="transparent"/>
</svg>