<?xml version="1.0" encoding="UTF-8" standalone="no"?>
<!--Created with ndjsontosvg (https:https://github.com/thompson318/ndjsontosvg) 
	from the simplified Google quickdraw data set. key_id = 5303888976543744-->
<svg width="600" height="600"
	xmlns="http://www.w3.org/2000/svg">
	xmlns:ndjsontosvg="https://github.com/thompson318/ndjsontosvg"
	xmlns:quickdraw="https://quickdraw.withgoogle.com/data"
	xmlns:scikit-surgery="https://doi.org/10.1007/s11548-020-02180-5">

	<rect width="100%" height="100%" fill="black" />
	<path d = "M 140.62 271.88 L 86.72 248.44 L 25.78 210.94 L 2.34 175.78 L 2.34 147.66 L 21.09 91.41 L 49.22 56.25 L 98.44 18.75 L 166.41 0.00 L 217.97 9.38 L 248.44 32.81 L 278.91 75.00 L 295.31 124.22 L 297.66 182.81 L 288.28 203.91 L 257.81 239.06 L 199.22 276.56 L 128.91 283.59 L 189.84 541.41 L 225.00 536.72 L 229.69 513.28 L 229.69 377.34 L 217.97 271.88" stroke="white" fill="transparent"/>
	<path d = "M 210.94 555.47 L 243.75 581.25 L 278.91 597.66 L 314.06 576.56 L 346.88 574.22 L 365.62 560.16 L 450.00 539.06" stroke="white" fill="transparent"/>
	<path d = "M 46.88 100.78 L 53.91 114.84 L 58.59 199.22 L 77.34 234.38" stroke="white" fill="transparent"/>
	<path d = "M 117.19 49.22 L 117.19 182.81 L 140.62 267.19" stroke="white" fill="transparent"/>
	<path d = "M 189.84 32.81 L 178.12 89.06" stroke="white" fill="transparent"/>
</svg>