<?xml version="1.0" encoding="UTF-8" standalone="no"?>
<!--Created with ndjsontosvg (https:https://github.com/thompson318/ndjsontosvg) 
	from the simplified Google quickdraw data set. key_id = 6692451941089280-->
<svg width="600" height="600"
	xmlns="http://www.w3.org/2000/svg">
	xmlns:ndjsontosvg="https://github.com/thompson318/ndjsontosvg"
	xmlns:quickdraw="https://quickdraw.withgoogle.com/data"
	xmlns:scikit-surgery="https://doi.org/10.1007/s11548-020-02180-5">

	<rect width="100%" height="100%" fill="black" />
	<path d = "M 248.44 51.56 L 225.00 89.06 L 225.00 147.66 L 232.03 161.72 L 267.19 189.84 L 332.81 201.56 L 360.94 192.19 L 384.38 168.75 L 400.78 121.88 L 400.78 84.38 L 382.03 63.28 L 344.53 44.53 L 257.81 39.84 L 246.09 49.22 L 246.09 60.94 L 239.06 16.41 L 255.47 0.00 L 274.22 0.00 L 290.62 21.09 L 292.97 44.53" stroke="white" fill="transparent"/>
	<path d = "M 349.22 44.53 L 377.34 16.41 L 391.41 11.72 L 410.16 32.81 L 412.50 58.59 L 391.41 84.38" stroke="white" fill="transparent"/>
	<path d = "M 255.47 180.47 L 185.16 208.59 L 138.28 203.91 L 100.78 164.06 L 84.38 133.59 L 79.69 107.81 L 91.41 58.59 L 63.28 53.91 L 56.25 79.69 L 44.53 70.31 L 30.47 72.66 L 21.09 84.38 L 21.09 105.47 L 30.47 114.84 L 2.34 112.50 L 0.00 135.94 L 14.06 147.66 L 44.53 152.34 L 60.94 178.12 L 107.81 225.00 L 175.78 260.16 L 227.34 257.81 L 257.81 232.03 L 248.44 283.59 L 248.44 351.56 L 58.59 356.25 L 42.19 346.88 L 42.19 297.66 L 11.72 283.59 L 0.00 300.00 L 2.34 346.88 L 9.38 370.31 L 67.97 391.41 L 255.47 391.41 L 292.97 384.38 L 309.38 367.97 L 307.03 471.09 L 264.84 466.41 L 250.78 480.47 L 274.22 494.53 L 342.19 506.25 L 351.56 246.09 L 389.06 253.12 L 494.53 307.03 L 532.03 328.12 L 539.06 356.25 L 550.78 353.91" stroke="white" fill="transparent"/>
	<path d = "M 553.12 351.56 L 557.81 339.84 L 571.88 344.53 L 588.28 328.12 L 597.66 278.91 L 585.94 255.47 L 546.09 243.75 L 442.97 248.44 L 396.09 232.03 L 372.66 203.91" stroke="white" fill="transparent"/>
</svg>