<?xml version="1.0" encoding="UTF-8" standalone="no"?>
<!--Created with ndjsontosvg (https:https://github.com/thompson318/ndjsontosvg) 
	from the simplified Google quickdraw data set. key_id = 5905318296944640-->
<svg width="600" height="600"
	xmlns="http://www.w3.org/2000/svg">
	xmlns:ndjsontosvg="https://github.com/thompson318/ndjsontosvg"
	xmlns:quickdraw="https://quickdraw.withgoogle.com/data"
	xmlns:scikit-surgery="https://doi.org/10.1007/s11548-020-02180-5">

	<rect width="100%" height="100%" fill="black" />
	<path d = "M 253.12 248.44 L 227.34 248.44 L 232.03 185.16 L 255.47 152.34 L 297.66 126.56 L 353.91 119.53 L 419.53 124.22 L 442.97 147.66 L 438.28 166.41 L 393.75 210.94 L 325.78 250.78 L 278.91 253.12 L 262.50 239.06" stroke="white" fill="transparent"/>
	<path d = "M 274.22 124.22 L 339.84 63.28 L 351.56 67.97 L 356.25 96.09" stroke="white" fill="transparent"/>
	<path d = "M 410.16 124.22 L 450.00 126.56 L 485.16 107.81" stroke="white" fill="transparent"/>
	<path d = "M 482.81 103.12 L 517.97 21.09 L 517.97 9.38 L 492.19 0.00 L 431.25 49.22 L 400.78 105.47" stroke="white" fill="transparent"/>
	<path d = "M 295.31 248.44 L 283.59 248.44 L 276.56 281.25 L 274.22 386.72 L 297.66 450.00 L 323.44 478.12 L 367.97 475.78 L 403.12 435.94 L 412.50 391.41 L 407.81 311.72 L 363.28 278.91 L 248.44 232.03" stroke="white" fill="transparent"/>
	<path d = "M 292.97 428.91 L 281.25 428.91 L 264.84 510.94 L 243.75 529.69 L 192.19 550.78 L 86.72 569.53 L 37.50 595.31 L 0.00 597.66" stroke="white" fill="transparent"/>
	<path d = "M 407.81 323.44 L 424.22 302.34" stroke="white" fill="transparent"/>
</svg>