<?xml version="1.0" encoding="UTF-8" standalone="no"?>
<!--Created with ndjsontosvg (https:https://github.com/thompson318/ndjsontosvg) 
	from the simplified Google quickdraw data set. key_id = 4909196950634496-->
<svg width="600" height="600"
	xmlns="http://www.w3.org/2000/svg">
	xmlns:ndjsontosvg="https://github.com/thompson318/ndjsontosvg"
	xmlns:quickdraw="https://quickdraw.withgoogle.com/data"
	xmlns:scikit-surgery="https://doi.org/10.1007/s11548-020-02180-5">

	<rect width="100%" height="100%" fill="black" />
	<path d = "M 135.94 121.88 L 121.88 128.91 L 103.12 161.72 L 100.78 206.25 L 112.50 255.47 L 135.94 290.62 L 164.06 314.06 L 210.94 316.41 L 264.84 290.62 L 295.31 257.81 L 330.47 164.06 L 332.81 121.88 L 297.66 72.66 L 227.34 44.53 L 199.22 49.22 L 185.16 58.59 L 124.22 124.22" stroke="white" fill="transparent"/>
	<path d = "M 128.91 243.75 L 138.28 232.03 L 182.81 210.94 L 189.84 121.88 L 203.91 98.44 L 227.34 86.72 L 262.50 84.38 L 281.25 98.44 L 283.59 194.53 L 304.69 203.91" stroke="white" fill="transparent"/>
	<path d = "M 210.94 152.34 L 213.28 152.34" stroke="white" fill="transparent"/>
	<path d = "M 255.47 166.41 L 253.12 164.06" stroke="white" fill="transparent"/>
	<path d = "M 147.66 323.44 L 150.00 567.19 L 166.41 588.28 L 217.97 597.66 L 257.81 569.53 L 285.94 492.19 L 290.62 379.69 L 283.59 304.69" stroke="white" fill="transparent"/>
	<path d = "M 133.59 351.56 L 93.75 344.53 L 42.19 304.69 L 18.75 276.56 L 2.34 217.97 L 0.00 147.66 L 25.78 39.84 L 44.53 11.72 L 70.31 0.00 L 114.84 0.00 L 140.62 11.72 L 157.03 35.16 L 112.50 58.59 L 84.38 89.06 L 65.62 157.03 L 65.62 253.12 L 96.09 302.34 L 121.88 321.09" stroke="white" fill="transparent"/>
	<path d = "M 300.00 400.78 L 428.91 508.59 L 440.62 499.22 L 435.94 452.34 L 405.47 403.12" stroke="white" fill="transparent"/>
</svg>