<?xml version="1.0" encoding="UTF-8" standalone="no"?>
<!--Created with ndjsontosvg (https:https://github.com/thompson318/ndjsontosvg) 
	from the simplified Google quickdraw data set. key_id = 5131530462560256-->
<svg width="600" height="600"
	xmlns="http://www.w3.org/2000/svg">
	xmlns:ndjsontosvg="https://github.com/thompson318/ndjsontosvg"
	xmlns:quickdraw="https://quickdraw.withgoogle.com/data"
	xmlns:scikit-surgery="https://doi.org/10.1007/s11548-020-02180-5">

	<rect width="100%" height="100%" fill="black" />
	<path d = "M 201.56 14.06 L 248.44 16.41 L 213.28 0.00 L 180.47 7.03 L 133.59 39.84 L 93.75 100.78 L 60.94 166.41 L 16.41 321.09 L 0.00 452.34 L 7.03 503.91 L 21.09 525.00 L 46.88 539.06 L 98.44 555.47 L 297.66 595.31 L 375.00 592.97 L 435.94 560.16 L 482.81 496.88 L 480.47 482.81 L 464.06 471.09 L 386.72 442.97 L 297.66 433.59 L 164.06 433.59 L 124.22 424.22 L 96.09 407.81 L 147.66 189.84 L 208.59 70.31 L 232.03 44.53 L 260.16 30.47" stroke="white" fill="transparent"/>
</svg>