<?xml version="1.0" encoding="UTF-8" standalone="no"?>
<!--Created with ndjsontosvg (https:https://github.com/thompson318/ndjsontosvg) 
	from the simplified Google quickdraw data set. key_id = 4677755927003136-->
<svg width="600" height="600"
	xmlns="http://www.w3.org/2000/svg">
	xmlns:ndjsontosvg="https://github.com/thompson318/ndjsontosvg"
	xmlns:quickdraw="https://quickdraw.withgoogle.com/data"
	xmlns:scikit-surgery="https://doi.org/10.1007/s11548-020-02180-5">

	<rect width="100%" height="100%" fill="black" />
	<path d = "M 344.53 35.16 L 314.06 11.72 L 269.53 7.03 L 225.00 16.41 L 185.16 37.50 L 133.59 77.34 L 79.69 135.94 L 35.16 203.91 L 16.41 243.75 L 0.00 339.84 L 4.69 393.75 L 23.44 442.97 L 72.66 513.28 L 114.84 543.75 L 164.06 564.84 L 215.62 576.56 L 274.22 576.56 L 351.56 555.47 L 410.16 527.34 L 480.47 475.78 L 527.34 426.56 L 574.22 363.28 L 592.97 307.03 L 595.31 236.72 L 574.22 171.09 L 548.44 121.88 L 487.50 51.56 L 447.66 23.44 L 391.41 2.34 L 332.81 0.00 L 267.19 11.72" stroke="white" fill="transparent"/>
	<path d = "M 159.38 157.03 L 140.62 201.56 L 154.69 213.28 L 185.16 201.56 L 199.22 180.47 L 199.22 164.06 L 180.47 142.97 L 157.03 147.66" stroke="white" fill="transparent"/>
	<path d = "M 459.38 145.31 L 424.22 166.41 L 419.53 192.19 L 428.91 215.62 L 442.97 232.03 L 454.69 234.38 L 471.09 225.00 L 482.81 208.59 L 478.12 180.47 L 461.72 159.38 L 445.31 159.38" stroke="white" fill="transparent"/>
	<path d = "M 290.62 464.06 L 250.78 468.75 L 248.44 475.78 L 248.44 508.59 L 267.19 529.69 L 281.25 529.69 L 295.31 517.97 L 304.69 478.12 L 288.28 461.72 L 236.72 452.34" stroke="white" fill="transparent"/>
	<path d = "M 72.66 339.84 L 53.91 382.03 L 56.25 391.41 L 82.03 407.81 L 112.50 400.78 L 140.62 367.97 L 147.66 342.19 L 140.62 316.41 L 131.25 309.38 L 119.53 314.06" stroke="white" fill="transparent"/>
	<path d = "M 475.78 339.84 L 450.00 379.69 L 454.69 393.75 L 468.75 398.44 L 487.50 386.72 L 496.88 363.28 L 480.47 351.56 L 454.69 346.88" stroke="white" fill="transparent"/>
	<path d = "M 292.97 187.50 L 274.22 227.34 L 285.94 253.12 L 307.03 262.50 L 330.47 239.06 L 328.12 215.62 L 295.31 185.16" stroke="white" fill="transparent"/>
</svg>