<?xml version="1.0" encoding="UTF-8" standalone="no"?>
<!--Created with ndjsontosvg (https:https://github.com/thompson318/ndjsontosvg) 
	from the simplified Google quickdraw data set. key_id = 4667139891920896-->
<svg width="600" height="600"
	xmlns="http://www.w3.org/2000/svg">
	xmlns:ndjsontosvg="https://github.com/thompson318/ndjsontosvg"
	xmlns:quickdraw="https://quickdraw.withgoogle.com/data"
	xmlns:scikit-surgery="https://doi.org/10.1007/s11548-020-02180-5">

	<rect width="100%" height="100%" fill="black" />
	<path d = "M 164.06 147.66 L 239.06 147.66 L 267.19 168.75 L 297.66 234.38 L 302.34 328.12 L 262.50 426.56 L 206.25 503.91 L 138.28 557.81 L 44.53 595.31 L 91.41 597.66 L 180.47 585.94 L 260.16 564.84 L 297.66 536.72 L 353.91 464.06 L 407.81 346.88 L 431.25 283.59 L 440.62 185.16 L 400.78 121.88 L 337.50 56.25 L 232.03 11.72 L 168.75 0.00 L 119.53 2.34 L 18.75 37.50 L 0.00 49.22 L 112.50 124.22 L 154.69 142.97 L 229.69 159.38 L 248.44 173.44" stroke="white" fill="transparent"/>
</svg>