<?xml version="1.0" encoding="UTF-8" standalone="no"?>
<!--Created with ndjsontosvg (https:https://github.com/thompson318/ndjsontosvg) 
	from the simplified Google quickdraw data set. key_id = 6087931246673920-->
<svg width="600" height="600"
	xmlns="http://www.w3.org/2000/svg">
	xmlns:ndjsontosvg="https://github.com/thompson318/ndjsontosvg"
	xmlns:quickdraw="https://quickdraw.withgoogle.com/data"
	xmlns:scikit-surgery="https://doi.org/10.1007/s11548-020-02180-5">

	<rect width="100%" height="100%" fill="black" />
	<path d = "M 255.47 65.62 L 222.66 56.25 L 161.72 56.25 L 84.38 91.41 L 35.16 124.22 L 14.06 157.03 L 0.00 206.25 L 2.34 257.81 L 16.41 297.66 L 46.88 351.56 L 119.53 419.53 L 182.81 447.66 L 274.22 459.38 L 393.75 459.38 L 482.81 431.25 L 546.09 386.72 L 581.25 325.78 L 597.66 269.53 L 581.25 171.09 L 513.28 75.00 L 389.06 14.06 L 321.09 0.00 L 267.19 4.69 L 180.47 42.19" stroke="white" fill="transparent"/>
	<path d = "M 314.06 166.41 L 309.38 225.00 L 335.16 243.75 L 372.66 243.75 L 393.75 234.38 L 407.81 210.94 L 407.81 189.84 L 396.09 161.72 L 363.28 138.28 L 342.19 131.25 L 314.06 145.31 L 295.31 178.12" stroke="white" fill="transparent"/>
	<path d = "M 72.66 192.19 L 72.66 250.78 L 79.69 269.53 L 105.47 288.28 L 147.66 246.09 L 147.66 194.53 L 107.81 185.16 L 79.69 227.34" stroke="white" fill="transparent"/>
	<path d = "M 285.94 377.34 L 318.75 389.06 L 344.53 377.34 L 351.56 363.28 L 349.22 344.53 L 332.81 335.16 L 316.41 335.16 L 300.00 365.62 L 307.03 377.34 L 323.44 382.03" stroke="white" fill="transparent"/>
	<path d = "M 391.41 49.22 L 414.84 86.72 L 426.56 93.75 L 454.69 93.75 L 466.41 60.94" stroke="white" fill="transparent"/>
</svg>