<?xml version="1.0" encoding="UTF-8" standalone="no"?>
<!--Created with ndjsontosvg (https:https://github.com/thompson318/ndjsontosvg) 
	from the simplified Google quickdraw data set. key_id = 6709507805675520-->
<svg width="600" height="600"
	xmlns="http://www.w3.org/2000/svg">
	xmlns:ndjsontosvg="https://github.com/thompson318/ndjsontosvg"
	xmlns:quickdraw="https://quickdraw.withgoogle.com/data"
	xmlns:scikit-surgery="https://doi.org/10.1007/s11548-020-02180-5">

	<rect width="100%" height="100%" fill="black" />
	<path d = "M 42.19 77.34 L 9.38 58.59 L 0.00 44.53 L 0.00 14.06 L 16.41 0.00 L 35.16 0.00 L 58.59 32.81 L 72.66 67.97 L 70.31 82.03 L 49.22 82.03 L 30.47 72.66 L 9.38 42.19 L 11.72 28.12 L 30.47 25.78 L 44.53 39.84" stroke="white" fill="transparent"/>
	<path d = "M 82.03 60.94 L 96.09 44.53 L 147.66 42.19 L 307.03 11.72 L 452.34 14.06 L 546.09 44.53 L 564.84 56.25 L 592.97 89.06 L 597.66 133.59 L 592.97 150.00 L 543.75 166.41 L 452.34 166.41 L 283.59 133.59 L 180.47 96.09 L 124.22 60.94 L 208.59 67.97 L 335.16 117.19 L 400.78 152.34 L 424.22 117.19 L 466.41 145.31 L 515.62 201.56 L 520.31 239.06 L 494.53 260.16 L 452.34 274.22 L 403.12 274.22 L 309.38 253.12 L 117.19 121.88 L 77.34 79.69 L 58.59 72.66" stroke="white" fill="transparent"/>
	<path d = "M 63.28 105.47 L 49.22 119.53 L 16.41 173.44 L 0.00 185.16" stroke="white" fill="transparent"/>
	<path d = "M 98.44 147.66 L 98.44 232.03" stroke="white" fill="transparent"/>
	<path d = "M 168.75 227.34 L 168.75 227.34" stroke="white" fill="transparent"/>
</svg>