<?xml version="1.0" encoding="UTF-8" standalone="no"?>
<!--Created with ndjsontosvg (https:https://github.com/thompson318/ndjsontosvg) 
	from the simplified Google quickdraw data set. key_id = 6154789459066880-->
<svg width="600" height="600"
	xmlns="http://www.w3.org/2000/svg">
	xmlns:ndjsontosvg="https://github.com/thompson318/ndjsontosvg"
	xmlns:quickdraw="https://quickdraw.withgoogle.com/data"
	xmlns:scikit-surgery="https://doi.org/10.1007/s11548-020-02180-5">

	<rect width="100%" height="100%" fill="black" />
	<path d = "M 0.00 576.56 L 49.22 546.09 L 79.69 513.28 L 142.97 410.16 L 185.16 323.44 L 175.78 328.12 L 164.06 297.66 L 164.06 262.50 L 182.81 239.06 L 232.03 234.38 L 262.50 253.12 L 290.62 297.66 L 285.94 339.84 L 255.47 356.25 L 217.97 356.25 L 187.50 321.09" stroke="white" fill="transparent"/>
	<path d = "M 234.38 274.22 L 234.38 274.22" stroke="white" fill="transparent"/>
	<path d = "M 210.94 283.59 L 199.22 278.91 L 187.50 248.44 L 206.25 241.41 L 232.03 243.75 L 229.69 264.84 L 217.97 271.88 L 201.56 267.19" stroke="white" fill="transparent"/>
	<path d = "M 180.47 285.94 L 168.75 276.56 L 154.69 276.56 L 142.97 302.34 L 152.34 314.06 L 182.81 316.41" stroke="white" fill="transparent"/>
	<path d = "M 21.09 574.22 L 178.12 377.34 L 220.31 356.25" stroke="white" fill="transparent"/>
	<path d = "M 278.91 325.78 L 295.31 353.91 L 304.69 438.28 L 316.41 475.78 L 346.88 510.94 L 405.47 529.69 L 407.81 539.06 L 438.28 499.22 L 452.34 454.69 L 421.88 379.69 L 379.69 358.59 L 328.12 349.22" stroke="white" fill="transparent"/>
	<path d = "M 356.25 351.56 L 353.91 314.06 L 412.50 213.28 L 499.22 121.88 L 597.66 56.25 L 590.62 93.75 L 503.91 271.88 L 487.50 297.66 L 396.09 367.97" stroke="white" fill="transparent"/>
	<path d = "M 342.19 356.25 L 325.78 309.38 L 332.81 175.78 L 353.91 112.50 L 428.91 0.00 L 391.41 175.78" stroke="white" fill="transparent"/>
	<path d = "M 426.56 508.59 L 426.56 532.03 L 442.97 557.81 L 487.50 595.31 L 560.16 588.28 L 543.75 534.38 L 473.44 471.09 L 452.34 480.47" stroke="white" fill="transparent"/>
</svg>