<?xml version="1.0" encoding="UTF-8" standalone="no"?>
<!--Created with ndjsontosvg (https:https://github.com/thompson318/ndjsontosvg) 
	from the simplified Google quickdraw data set. key_id = 4668864375816192-->
<svg width="600" height="600"
	xmlns="http://www.w3.org/2000/svg">
	xmlns:ndjsontosvg="https://github.com/thompson318/ndjsontosvg"
	xmlns:quickdraw="https://quickdraw.withgoogle.com/data"
	xmlns:scikit-surgery="https://doi.org/10.1007/s11548-020-02180-5">

	<rect width="100%" height="100%" fill="black" />
	<path d = "M 180.47 276.56 L 114.84 370.31 L 23.44 567.19 L 100.78 417.19 L 131.25 339.84 L 161.72 288.28 L 46.88 496.88 L 0.00 548.44 L 16.41 525.00" stroke="white" fill="transparent"/>
	<path d = "M 178.12 222.66 L 157.03 206.25 L 142.97 171.09 L 154.69 194.53 L 157.03 250.78 L 189.84 241.41 L 210.94 220.31 L 220.31 178.12 L 264.84 201.56 L 250.78 239.06 L 208.59 269.53 L 192.19 267.19" stroke="white" fill="transparent"/>
	<path d = "M 192.19 189.84 L 213.28 178.12 L 377.34 178.12 L 412.50 168.75 L 332.81 210.94 L 292.97 220.31 L 389.06 203.91 L 569.53 196.88 L 428.91 201.56 L 431.25 234.38 L 459.38 295.31 L 459.38 255.47 L 520.31 269.53 L 536.72 285.94" stroke="white" fill="transparent"/>
	<path d = "M 539.06 215.62 L 550.78 227.34" stroke="white" fill="transparent"/>
	<path d = "M 405.47 196.88 L 515.62 30.47 L 562.50 0.00 L 590.62 7.03 L 597.66 28.12 L 590.62 79.69 L 578.91 100.78 L 548.44 121.88 L 428.91 178.12 L 407.81 178.12" stroke="white" fill="transparent"/>
	<path d = "M 375.00 189.84 L 332.81 89.06 L 311.72 60.94 L 285.94 42.19 L 248.44 46.88 L 227.34 60.94 L 220.31 86.72 L 222.66 131.25 L 239.06 150.00 L 283.59 175.78 L 339.84 189.84" stroke="white" fill="transparent"/>
</svg>