<?xml version="1.0" encoding="UTF-8" standalone="no"?>
<!--Created with ndjsontosvg (https:https://github.com/thompson318/ndjsontosvg) 
	from the simplified Google quickdraw data set. key_id = 5357536007946240-->
<svg width="600" height="600"
	xmlns="http://www.w3.org/2000/svg">
	xmlns:ndjsontosvg="https://github.com/thompson318/ndjsontosvg"
	xmlns:quickdraw="https://quickdraw.withgoogle.com/data"
	xmlns:scikit-surgery="https://doi.org/10.1007/s11548-020-02180-5">

	<rect width="100%" height="100%" fill="black" />
	<path d = "M 330.47 290.62 L 290.62 269.53 L 269.53 232.03 L 269.53 196.88 L 281.25 185.16 L 304.69 178.12 L 316.41 243.75 L 314.06 269.53" stroke="white" fill="transparent"/>
	<path d = "M 253.12 243.75 L 189.84 260.16 L 124.22 309.38 L 82.03 346.88 L 107.81 344.53 L 264.84 288.28 L 304.69 262.50" stroke="white" fill="transparent"/>
	<path d = "M 309.38 215.62 L 389.06 199.22 L 473.44 192.19 L 534.38 203.91 L 550.78 217.97 L 550.78 239.06 L 529.69 248.44 L 445.31 281.25 L 382.03 292.97 L 358.59 290.62 L 344.53 283.59 L 323.44 264.84 L 321.09 250.78" stroke="white" fill="transparent"/>
	<path d = "M 410.16 203.91 L 412.50 145.31 L 426.56 75.00 L 459.38 14.06 L 473.44 2.34 L 487.50 2.34 L 501.56 100.78 L 501.56 138.28 L 482.81 199.22 L 485.16 154.69 L 522.66 63.28 L 553.12 16.41 L 590.62 0.00 L 597.66 16.41 L 585.94 93.75 L 520.31 250.78" stroke="white" fill="transparent"/>
	<path d = "M 96.09 344.53 L 260.16 262.50 L 236.72 285.94 L 199.22 309.38 L 131.25 342.19 L 84.38 342.19 L 100.78 309.38 L 128.91 285.94 L 175.78 262.50 L 260.16 241.41 L 103.12 325.78 L 2.34 360.94 L 32.81 337.50 L 147.66 278.91 L 241.41 241.41 L 175.78 300.00 L 58.59 363.28 L 25.78 375.00 L 100.78 311.72 L 243.75 241.41 L 103.12 370.31" stroke="white" fill="transparent"/>
	<path d = "M 311.72 255.47 L 302.34 246.09 L 295.31 210.94 L 295.31 173.44 L 304.69 145.31 L 337.50 253.12 L 335.16 307.03 L 323.44 328.12" stroke="white" fill="transparent"/>
	<path d = "M 300.00 217.97 L 292.97 227.34 L 300.00 227.34" stroke="white" fill="transparent"/>
</svg>