<?xml version="1.0" encoding="UTF-8" standalone="no"?>
<!--Created with ndjsontosvg (https:https://github.com/thompson318/ndjsontosvg) 
	from the simplified Google quickdraw data set. key_id = 4706210458632192-->
<svg width="600" height="600"
	xmlns="http://www.w3.org/2000/svg">
	xmlns:ndjsontosvg="https://github.com/thompson318/ndjsontosvg"
	xmlns:quickdraw="https://quickdraw.withgoogle.com/data"
	xmlns:scikit-surgery="https://doi.org/10.1007/s11548-020-02180-5">

	<rect width="100%" height="100%" fill="black" />
	<path d = "M 112.50 328.12 L 100.78 344.53 L 119.53 372.66 L 126.56 353.91 L 105.47 330.47" stroke="white" fill="transparent"/>
	<path d = "M 124.22 323.44 L 281.25 271.88 L 391.41 248.44 L 585.94 248.44 L 588.28 271.88 L 567.19 290.62 L 517.97 318.75 L 487.50 325.78 L 321.09 330.47 L 210.94 316.41 L 133.59 330.47" stroke="white" fill="transparent"/>
	<path d = "M 133.59 295.31 L 147.66 271.88 L 215.62 217.97 L 391.41 93.75 L 534.38 14.06 L 590.62 0.00 L 595.31 16.41 L 489.84 110.16 L 379.69 175.78 L 192.19 302.34 L 175.78 307.03 L 157.03 300.00" stroke="white" fill="transparent"/>
	<path d = "M 114.84 370.31 L 98.44 424.22 L 75.00 468.75 L 0.00 560.16 L 28.12 536.72" stroke="white" fill="transparent"/>
	<path d = "M 140.62 339.84 L 154.69 356.25 L 173.44 405.47 L 194.53 543.75" stroke="white" fill="transparent"/>
	<path d = "M 199.22 353.91 L 199.22 353.91" stroke="white" fill="transparent"/>
	<path d = "M 199.22 346.88 L 337.50 555.47" stroke="white" fill="transparent"/>
	<path d = "M 234.38 337.50 L 318.75 419.53 L 405.47 478.12 L 417.19 503.91" stroke="white" fill="transparent"/>
</svg>