<?xml version="1.0" encoding="UTF-8" standalone="no"?>
<!--Created with ndjsontosvg (https:https://github.com/thompson318/ndjsontosvg) 
	from the simplified Google quickdraw data set. key_id = 5417136526721024-->
<svg width="600" height="600"
	xmlns="http://www.w3.org/2000/svg">
	xmlns:ndjsontosvg="https://github.com/thompson318/ndjsontosvg"
	xmlns:quickdraw="https://quickdraw.withgoogle.com/data"
	xmlns:scikit-surgery="https://doi.org/10.1007/s11548-020-02180-5">

	<rect width="100%" height="100%" fill="black" />
	<path d = "M 49.22 316.41 L 46.88 332.81 L 60.94 372.66 L 89.06 403.12 L 110.16 414.84 L 135.94 419.53 L 164.06 412.50 L 185.16 400.78 L 203.91 375.00 L 220.31 307.03 L 215.62 281.25 L 192.19 253.12 L 164.06 246.09 L 131.25 250.78 L 82.03 271.88 L 60.94 295.31" stroke="white" fill="transparent"/>
	<path d = "M 185.16 262.50 L 145.31 325.78 L 91.41 391.41" stroke="white" fill="transparent"/>
	<path d = "M 82.03 281.25 L 152.34 318.75 L 250.78 391.41" stroke="white" fill="transparent"/>
	<path d = "M 63.28 377.34 L 208.59 335.16" stroke="white" fill="transparent"/>
	<path d = "M 133.59 269.53 L 154.69 377.34" stroke="white" fill="transparent"/>
	<path d = "M 450.00 342.19 L 461.72 360.94 L 503.91 386.72 L 529.69 389.06 L 560.16 384.38 L 569.53 370.31 L 574.22 314.06 L 543.75 253.12 L 506.25 239.06 L 478.12 250.78 L 461.72 300.00" stroke="white" fill="transparent"/>
	<path d = "M 581.25 257.81 L 562.50 264.84 L 464.06 384.38" stroke="white" fill="transparent"/>
	<path d = "M 464.06 297.66 L 562.50 412.50" stroke="white" fill="transparent"/>
	<path d = "M 480.47 332.81 L 536.72 337.50 L 574.22 332.81" stroke="white" fill="transparent"/>
	<path d = "M 510.94 257.81 L 513.28 377.34" stroke="white" fill="transparent"/>
	<path d = "M 0.00 126.56 L 2.34 112.50 L 25.78 93.75 L 112.50 72.66 L 140.62 72.66 L 295.31 107.81 L 426.56 105.47 L 510.94 79.69 L 503.91 60.94 L 450.00 18.75 L 452.34 4.69 L 466.41 0.00 L 405.47 30.47 L 452.34 21.09" stroke="white" fill="transparent"/>
	<path d = "M 508.59 72.66 L 567.19 98.44 L 597.66 168.75 L 592.97 234.38 L 574.22 250.78 L 548.44 253.12" stroke="white" fill="transparent"/>
	<path d = "M 459.38 316.41 L 412.50 285.94 L 384.38 281.25 L 353.91 285.94 L 285.94 311.72 L 213.28 316.41" stroke="white" fill="transparent"/>
	<path d = "M 25.78 152.34 L 7.03 178.12 L 2.34 227.34 L 39.84 321.09" stroke="white" fill="transparent"/>
	<path d = "M 196.88 239.06 L 201.56 227.34 L 246.09 203.91 L 309.38 208.59 L 454.69 196.88" stroke="white" fill="transparent"/>
	<path d = "M 421.88 222.66 L 499.22 239.06" stroke="white" fill="transparent"/>
	<path d = "M 199.22 236.72 L 225.00 222.66 L 276.56 213.28 L 356.25 213.28 L 426.56 243.75 L 461.72 248.44" stroke="white" fill="transparent"/>
	<path d = "M 234.38 271.88 L 264.84 248.44 L 353.91 232.03 L 464.06 262.50" stroke="white" fill="transparent"/>
	<path d = "M 208.59 248.44 L 239.06 236.72 L 300.00 234.38 L 372.66 253.12 L 445.31 297.66 L 464.06 295.31" stroke="white" fill="transparent"/>
	<path d = "M 220.31 300.00 L 419.53 267.19" stroke="white" fill="transparent"/>
</svg>