<?xml version="1.0" encoding="UTF-8" standalone="no"?>
<!--Created with ndjsontosvg (https:https://github.com/thompson318/ndjsontosvg) 
	from the simplified Google quickdraw data set. key_id = 6236860567257088-->
<svg width="600" height="600"
	xmlns="http://www.w3.org/2000/svg">
	xmlns:ndjsontosvg="https://github.com/thompson318/ndjsontosvg"
	xmlns:quickdraw="https://quickdraw.withgoogle.com/data"
	xmlns:scikit-surgery="https://doi.org/10.1007/s11548-020-02180-5">

	<rect width="100%" height="100%" fill="black" />
	<path d = "M 93.75 86.72 L 77.34 98.44 L 72.66 124.22 L 79.69 138.28 L 93.75 131.25 L 89.06 96.09" stroke="white" fill="transparent"/>
	<path d = "M 100.78 93.75 L 100.78 180.47 L 75.00 182.81 L 35.16 210.94 L 4.69 255.47 L 0.00 297.66 L 16.41 339.84 L 56.25 367.97 L 86.72 358.59 L 110.16 318.75 L 119.53 281.25 L 110.16 239.06 L 82.03 220.31 L 51.56 227.34" stroke="white" fill="transparent"/>
	<path d = "M 107.81 96.09 L 100.78 70.31 L 126.56 21.09 L 192.19 32.81 L 314.06 16.41 L 576.56 2.34 L 590.62 51.56 L 597.66 128.91 L 525.00 126.56 L 450.00 135.94 L 391.41 150.00 L 382.03 161.72 L 386.72 292.97 L 398.44 323.44 L 419.53 349.22 L 480.47 365.62 L 520.31 351.56 L 548.44 330.47 L 571.88 292.97 L 574.22 243.75 L 557.81 208.59 L 534.38 187.50 L 489.84 168.75 L 428.91 161.72 L 375.00 173.44 L 335.16 194.53" stroke="white" fill="transparent"/>
	<path d = "M 112.50 171.09 L 419.53 166.41" stroke="white" fill="transparent"/>
</svg>