<?xml version="1.0" encoding="UTF-8" standalone="no"?>
<!--Created with ndjsontosvg (https:https://github.com/thompson318/ndjsontosvg) 
	from the simplified Google quickdraw data set. key_id = 4619622571573248-->
<svg width="600" height="600"
	xmlns="http://www.w3.org/2000/svg">
	xmlns:ndjsontosvg="https://github.com/thompson318/ndjsontosvg"
	xmlns:quickdraw="https://quickdraw.withgoogle.com/data"
	xmlns:scikit-surgery="https://doi.org/10.1007/s11548-020-02180-5">

	<rect width="100%" height="100%" fill="black" />
	<path d = "M 44.53 300.00 L 21.09 304.69 L 0.00 328.12 L 11.72 389.06 L 37.50 393.75 L 98.44 428.91 L 121.88 419.53 L 140.62 384.38 L 140.62 363.28 L 105.47 318.75 L 77.34 300.00 L 32.81 292.97" stroke="white" fill="transparent"/>
	<path d = "M 77.34 297.66 L 168.75 239.06 L 185.16 203.91 L 185.16 168.75 L 241.41 166.41 L 276.56 154.69 L 281.25 142.97 L 246.09 131.25 L 187.50 128.91 L 187.50 164.06" stroke="white" fill="transparent"/>
	<path d = "M 262.50 154.69 L 262.50 154.69" stroke="white" fill="transparent"/>
	<path d = "M 213.28 166.41 L 213.28 166.41" stroke="white" fill="transparent"/>
	<path d = "M 269.53 166.41 L 506.25 318.75 L 435.94 300.00 L 428.91 318.75 L 447.66 339.84 L 478.12 351.56 L 513.28 349.22 L 527.34 316.41" stroke="white" fill="transparent"/>
	<path d = "M 457.03 290.62 L 480.47 292.97 L 482.81 363.28 L 508.59 375.00 L 564.84 375.00 L 597.66 339.84 L 597.66 316.41 L 588.28 304.69 L 536.72 278.91 L 464.06 274.22 L 454.69 285.94 L 454.69 309.38" stroke="white" fill="transparent"/>
	<path d = "M 283.59 138.28 L 396.09 135.94 L 445.31 119.53 L 482.81 93.75 L 487.50 56.25 L 450.00 42.19 L 400.78 0.00" stroke="white" fill="transparent"/>
	<path d = "M 478.12 58.59 L 553.12 145.31 L 595.31 213.28" stroke="white" fill="transparent"/>
</svg>