<?xml version="1.0" encoding="UTF-8" standalone="no"?>
<!--Created with ndjsontosvg (https:https://github.com/thompson318/ndjsontosvg) 
	from the simplified Google quickdraw data set. key_id = 6682807705272320-->
<svg width="600" height="600"
	xmlns="http://www.w3.org/2000/svg">
	xmlns:ndjsontosvg="https://github.com/thompson318/ndjsontosvg"
	xmlns:quickdraw="https://quickdraw.withgoogle.com/data"
	xmlns:scikit-surgery="https://doi.org/10.1007/s11548-020-02180-5">

	<rect width="100%" height="100%" fill="black" />
	<path d = "M 42.19 185.16 L 25.78 178.12 L 28.12 140.62 L 70.31 70.31 L 133.59 18.75 L 185.16 0.00 L 229.69 2.34 L 276.56 28.12 L 288.28 93.75 L 288.28 164.06" stroke="white" fill="transparent"/>
	<path d = "M 297.66 164.06 L 283.59 166.41 L 283.59 152.34 L 314.06 103.12 L 337.50 79.69 L 396.09 49.22 L 442.97 46.88 L 485.16 58.59 L 532.03 86.72 L 588.28 154.69 L 597.66 182.81" stroke="white" fill="transparent"/>
	<path d = "M 382.03 171.09 L 363.28 171.09 L 360.94 161.72 L 370.31 117.19 L 382.03 98.44 L 428.91 96.09 L 464.06 114.84 L 471.09 126.56 L 461.72 145.31 L 433.59 159.38 L 377.34 164.06 L 375.00 150.00" stroke="white" fill="transparent"/>
	<path d = "M 384.38 100.78 L 396.09 93.75 L 407.81 159.38" stroke="white" fill="transparent"/>
	<path d = "M 346.88 121.88 L 447.66 114.84" stroke="white" fill="transparent"/>
	<path d = "M 86.72 119.53 L 142.97 93.75 L 189.84 93.75 L 194.53 105.47 L 182.81 124.22 L 142.97 145.31 L 133.59 138.28 L 133.59 117.19" stroke="white" fill="transparent"/>
	<path d = "M 140.62 77.34 L 138.28 119.53" stroke="white" fill="transparent"/>
	<path d = "M 126.56 119.53 L 164.06 114.84 L 215.62 96.09" stroke="white" fill="transparent"/>
	<path d = "M 11.72 157.03 L 14.06 185.16 L 0.00 217.97 L 0.00 239.06 L 21.09 344.53 L 35.16 375.00 L 119.53 438.28 L 257.81 487.50 L 288.28 510.94" stroke="white" fill="transparent"/>
	<path d = "M 480.47 508.59 L 569.53 400.78 L 560.16 363.28 L 571.88 292.97 L 560.16 222.66 L 541.41 159.38 L 543.75 147.66" stroke="white" fill="transparent"/>
</svg>