<?xml version="1.0" encoding="UTF-8" standalone="no"?>
<!--Created with ndjsontosvg (https:https://github.com/thompson318/ndjsontosvg) 
	from the simplified Google quickdraw data set. key_id = 5381095845527552-->
<svg width="600" height="600"
	xmlns="http://www.w3.org/2000/svg">
	xmlns:ndjsontosvg="https://github.com/thompson318/ndjsontosvg"
	xmlns:quickdraw="https://quickdraw.withgoogle.com/data"
	xmlns:scikit-surgery="https://doi.org/10.1007/s11548-020-02180-5">

	<rect width="100%" height="100%" fill="black" />
	<path d = "M 142.97 53.91 L 119.53 53.91 L 4.69 128.91 L 0.00 142.97 L 18.75 157.03 L 56.25 173.44 L 131.25 187.50 L 154.69 217.97 L 220.31 257.81 L 325.78 285.94 L 370.31 281.25 L 403.12 248.44 L 438.28 171.09 L 438.28 145.31 L 421.88 110.16 L 377.34 49.22 L 281.25 11.72 L 201.56 0.00 L 140.62 35.16 L 126.56 58.59 L 128.91 152.34 L 142.97 196.88" stroke="white" fill="transparent"/>
	<path d = "M 424.22 199.22 L 454.69 288.28 L 501.56 323.44 L 520.31 377.34 L 534.38 396.09 L 560.16 405.47 L 590.62 407.81 L 597.66 400.78 L 592.97 339.84 L 562.50 292.97 L 471.09 210.94" stroke="white" fill="transparent"/>
</svg>