<?xml version="1.0" encoding="UTF-8" standalone="no"?>
<!--Created with ndjsontosvg (https:https://github.com/thompson318/ndjsontosvg) 
	from the simplified Google quickdraw data set. key_id = 6429157053431808-->
<svg width="600" height="600"
	xmlns="http://www.w3.org/2000/svg">
	xmlns:ndjsontosvg="https://github.com/thompson318/ndjsontosvg"
	xmlns:quickdraw="https://quickdraw.withgoogle.com/data"
	xmlns:scikit-surgery="https://doi.org/10.1007/s11548-020-02180-5">

	<rect width="100%" height="100%" fill="black" />
	<path d = "M 0.00 150.00 L 18.75 79.69 L 58.59 30.47 L 91.41 9.38 L 119.53 0.00 L 171.09 7.03 L 215.62 39.84 L 300.00 168.75 L 360.94 236.72 L 417.19 269.53 L 450.00 274.22 L 503.91 253.12 L 536.72 210.94 L 548.44 182.81 L 548.44 145.31 L 527.34 117.19 L 501.56 110.16 L 480.47 117.19 L 471.09 131.25 L 471.09 91.41 L 480.47 75.00 L 501.56 67.97 L 555.47 72.66 L 576.56 79.69 L 588.28 96.09 L 597.66 145.31 L 578.91 243.75 L 536.72 311.72 L 513.28 332.81 L 482.81 346.88 L 403.12 363.28 L 300.00 356.25 L 215.62 330.47 L 65.62 262.50" stroke="white" fill="transparent"/>
</svg>