<?xml version="1.0" encoding="UTF-8" standalone="no"?>
<!--Created with ndjsontosvg (https:https://github.com/thompson318/ndjsontosvg) 
	from the simplified Google quickdraw data set. key_id = 6583561077391360-->
<svg width="600" height="600"
	xmlns="http://www.w3.org/2000/svg">
	xmlns:ndjsontosvg="https://github.com/thompson318/ndjsontosvg"
	xmlns:quickdraw="https://quickdraw.withgoogle.com/data"
	xmlns:scikit-surgery="https://doi.org/10.1007/s11548-020-02180-5">

	<rect width="100%" height="100%" fill="black" />
	<path d = "M 180.47 11.72 L 232.03 0.00 L 292.97 2.34 L 353.91 35.16 L 400.78 77.34 L 597.66 124.22 L 517.97 126.56 L 307.03 150.00 L 255.47 147.66 L 210.94 107.81 L 208.59 49.22 L 222.66 30.47" stroke="white" fill="transparent"/>
	<path d = "M 574.22 117.19 L 583.59 110.16 L 569.53 117.19 L 567.19 131.25 L 588.28 126.56 L 588.28 112.50 L 574.22 110.16 L 571.88 126.56 L 585.94 128.91 L 583.59 117.19 L 576.56 114.84 L 585.94 119.53" stroke="white" fill="transparent"/>
	<path d = "M 365.62 77.34 L 360.94 75.00" stroke="white" fill="transparent"/>
	<path d = "M 213.28 107.81 L 147.66 110.16 L 39.84 147.66 L 0.00 154.69" stroke="white" fill="transparent"/>
</svg>