<?xml version="1.0" encoding="UTF-8" standalone="no"?>
<!--Created with ndjsontosvg (https:https://github.com/thompson318/ndjsontosvg) 
	from the simplified Google quickdraw data set. key_id = 6142657317306368-->
<svg width="600" height="600"
	xmlns="http://www.w3.org/2000/svg">
	xmlns:ndjsontosvg="https://github.com/thompson318/ndjsontosvg"
	xmlns:quickdraw="https://quickdraw.withgoogle.com/data"
	xmlns:scikit-surgery="https://doi.org/10.1007/s11548-020-02180-5">

	<rect width="100%" height="100%" fill="black" />
	<path d = "M 51.56 105.47 L 304.69 114.84 L 433.59 91.41 L 539.06 96.09" stroke="white" fill="transparent"/>
	<path d = "M 51.56 105.47 L 79.69 51.56 L 117.19 18.75 L 175.78 18.75 L 243.75 44.53 L 290.62 9.38 L 323.44 0.00 L 384.38 0.00 L 452.34 16.41 L 517.97 70.31 L 522.66 82.03 L 510.94 91.41" stroke="white" fill="transparent"/>
	<path d = "M 58.59 96.09 L 0.00 171.09" stroke="white" fill="transparent"/>
	<path d = "M 0.00 171.09 L 37.50 189.84 L 53.91 232.03 L 70.31 248.44 L 154.69 292.97 L 208.59 288.28 L 271.88 257.81 L 288.28 281.25 L 307.03 288.28 L 367.97 300.00 L 424.22 300.00 L 489.84 267.19 L 574.22 145.31 L 597.66 126.56 L 585.94 117.19 L 541.41 107.81 L 447.66 110.16" stroke="white" fill="transparent"/>
</svg>