<?xml version="1.0" encoding="UTF-8" standalone="no"?>
<!--Created with ndjsontosvg (https:https://github.com/thompson318/ndjsontosvg) 
	from the simplified Google quickdraw data set. key_id = 5387403814502400-->
<svg width="600" height="600"
	xmlns="http://www.w3.org/2000/svg">
	xmlns:ndjsontosvg="https://github.com/thompson318/ndjsontosvg"
	xmlns:quickdraw="https://quickdraw.withgoogle.com/data"
	xmlns:scikit-surgery="https://doi.org/10.1007/s11548-020-02180-5">

	<rect width="100%" height="100%" fill="black" />
	<path d = "M 14.06 25.78 L 192.19 126.56 L 274.22 152.34 L 311.72 157.03 L 360.94 154.69 L 461.72 133.59 L 597.66 67.97 L 564.84 124.22 L 515.62 241.41 L 459.38 283.59 L 370.31 330.47 L 285.94 328.12 L 154.69 262.50 L 58.59 173.44 L 23.44 110.16 L 0.00 0.00" stroke="white" fill="transparent"/>
	<path d = "M 25.78 65.62 L 96.09 138.28 L 150.00 166.41 L 225.00 185.16 L 276.56 213.28 L 384.38 203.91 L 450.00 187.50 L 525.00 161.72 L 536.72 152.34" stroke="white" fill="transparent"/>
	<path d = "M 201.56 192.19 L 225.00 328.12" stroke="white" fill="transparent"/>
	<path d = "M 302.34 217.97 L 339.84 297.66 L 353.91 353.91" stroke="white" fill="transparent"/>
	<path d = "M 396.09 208.59 L 447.66 309.38 L 452.34 342.19 L 445.31 342.19" stroke="white" fill="transparent"/>
	<path d = "M 100.78 126.56 L 117.19 93.75" stroke="white" fill="transparent"/>
	<path d = "M 175.78 150.00 L 182.81 107.81" stroke="white" fill="transparent"/>
</svg>