<?xml version="1.0" encoding="UTF-8" standalone="no"?>
<!--Created with ndjsontosvg (https:https://github.com/thompson318/ndjsontosvg) 
	from the simplified Google quickdraw data set. key_id = 5600923478917120-->
<svg width="600" height="600"
	xmlns="http://www.w3.org/2000/svg">
	xmlns:ndjsontosvg="https://github.com/thompson318/ndjsontosvg"
	xmlns:quickdraw="https://quickdraw.withgoogle.com/data"
	xmlns:scikit-surgery="https://doi.org/10.1007/s11548-020-02180-5">

	<rect width="100%" height="100%" fill="black" />
	<path d = "M 4.69 114.84 L 131.25 39.84 L 175.78 32.81 L 243.75 37.50 L 356.25 65.62 L 539.06 164.06 L 569.53 173.44" stroke="white" fill="transparent"/>
	<path d = "M 16.41 121.88 L 65.62 159.38 L 166.41 201.56 L 285.94 234.38 L 365.62 243.75 L 478.12 234.38 L 541.41 206.25 L 592.97 173.44" stroke="white" fill="transparent"/>
	<path d = "M 128.91 42.19 L 121.88 56.25 L 112.50 121.88" stroke="white" fill="transparent"/>
	<path d = "M 243.75 44.53 L 217.97 166.41" stroke="white" fill="transparent"/>
	<path d = "M 342.19 56.25 L 316.41 171.09 L 309.38 255.47" stroke="white" fill="transparent"/>
	<path d = "M 447.66 114.84 L 445.31 253.12" stroke="white" fill="transparent"/>
	<path d = "M 543.75 159.38 L 532.03 217.97" stroke="white" fill="transparent"/>
	<path d = "M 9.38 105.47 L 0.00 105.47 L 16.41 98.44 L 37.50 93.75 L 77.34 98.44 L 400.78 171.09 L 541.41 185.16 L 581.25 196.88 L 595.31 178.12" stroke="white" fill="transparent"/>
	<path d = "M 18.75 119.53 L 28.12 89.06 L 56.25 51.56 L 100.78 16.41 L 133.59 2.34 L 196.88 0.00 L 304.69 9.38 L 358.59 25.78" stroke="white" fill="transparent"/>
</svg>