<?xml version="1.0" encoding="UTF-8" standalone="no"?>
<!--Created with ndjsontosvg (https:https://github.com/thompson318/ndjsontosvg) 
	from the simplified Google quickdraw data set. key_id = 5529707887984640-->
<svg width="600" height="600"
	xmlns="http://www.w3.org/2000/svg">
	xmlns:ndjsontosvg="https://github.com/thompson318/ndjsontosvg"
	xmlns:quickdraw="https://quickdraw.withgoogle.com/data"
	xmlns:scikit-surgery="https://doi.org/10.1007/s11548-020-02180-5">

	<rect width="100%" height="100%" fill="black" />
	<path d = "M 39.84 82.03 L 67.97 182.81 L 79.69 271.88 L 103.12 337.50 L 105.47 473.44 L 370.31 513.28 L 417.19 513.28 L 459.38 478.12 L 487.50 466.41 L 499.22 440.62 L 496.88 407.81 L 421.88 171.09 L 396.09 60.94 L 363.28 18.75 L 304.69 0.00 L 262.50 14.06 L 133.59 11.72 L 91.41 35.16 L 65.62 72.66 L 0.00 131.25" stroke="white" fill="transparent"/>
	<path d = "M 421.88 119.53 L 506.25 117.19 L 555.47 133.59 L 581.25 173.44 L 597.66 243.75 L 597.66 318.75 L 585.94 351.56 L 529.69 386.72 L 464.06 386.72" stroke="white" fill="transparent"/>
	<path d = "M 442.97 217.97 L 459.38 203.91 L 494.53 196.88 L 508.59 199.22 L 529.69 227.34 L 541.41 271.88 L 534.38 304.69 L 492.19 316.41 L 473.44 314.06" stroke="white" fill="transparent"/>
</svg>