<?xml version="1.0" encoding="UTF-8" standalone="no"?>
<!--Created with ndjsontosvg (https:https://github.com/thompson318/ndjsontosvg) 
	from the simplified Google quickdraw data set. key_id = 5640686437138432-->
<svg width="600" height="600"
	xmlns="http://www.w3.org/2000/svg">
	xmlns:ndjsontosvg="https://github.com/thompson318/ndjsontosvg"
	xmlns:quickdraw="https://quickdraw.withgoogle.com/data"
	xmlns:scikit-surgery="https://doi.org/10.1007/s11548-020-02180-5">

	<rect width="100%" height="100%" fill="black" />
	<path d = "M 2.34 98.44 L 23.44 152.34 L 39.84 239.06 L 39.84 393.75 L 25.78 468.75 L 0.00 525.00 L 145.31 583.59 L 225.00 597.66 L 278.91 597.66 L 285.94 585.94 L 344.53 548.44 L 360.94 499.22 L 363.28 203.91 L 349.22 140.62 L 330.47 93.75" stroke="white" fill="transparent"/>
	<path d = "M 372.66 241.41 L 438.28 239.06 L 480.47 253.12 L 508.59 274.22 L 522.66 300.00 L 522.66 349.22 L 501.56 377.34 L 461.72 396.09 L 393.75 386.72" stroke="white" fill="transparent"/>
	<path d = "M 11.72 93.75 L 121.88 166.41 L 164.06 185.16 L 192.19 187.50 L 257.81 178.12 L 292.97 159.38 L 321.09 121.88 L 316.41 107.81 L 300.00 105.47" stroke="white" fill="transparent"/>
	<path d = "M 7.03 93.75 L 21.09 91.41 L 51.56 56.25 L 105.47 18.75 L 133.59 4.69 L 175.78 0.00 L 236.72 25.78 L 309.38 75.00" stroke="white" fill="transparent"/>
</svg>