<?xml version="1.0" encoding="UTF-8" standalone="no"?>
<!--Created with ndjsontosvg (https:https://github.com/thompson318/ndjsontosvg) 
	from the simplified Google quickdraw data set. key_id = 4877142808592384-->
<svg width="600" height="600"
	xmlns="http://www.w3.org/2000/svg">
	xmlns:ndjsontosvg="https://github.com/thompson318/ndjsontosvg"
	xmlns:quickdraw="https://quickdraw.withgoogle.com/data"
	xmlns:scikit-surgery="https://doi.org/10.1007/s11548-020-02180-5">

	<rect width="100%" height="100%" fill="black" />
	<path d = "M 210.94 150.00 L 297.66 178.12 L 405.47 180.47 L 447.66 173.44 L 503.91 147.66 L 541.41 114.84 L 553.12 91.41 L 560.16 37.50 L 539.06 18.75 L 480.47 2.34 L 382.03 0.00 L 349.22 7.03 L 243.75 56.25 L 208.59 114.84 L 208.59 142.97" stroke="white" fill="transparent"/>
	<path d = "M 189.84 161.72 L 168.75 532.03 L 175.78 592.97 L 203.91 597.66 L 278.91 583.59 L 478.12 564.84 L 541.41 553.12 L 560.16 541.41 L 560.16 365.62 L 546.09 234.38 L 548.44 103.12" stroke="white" fill="transparent"/>
	<path d = "M 180.47 274.22 L 161.72 255.47 L 119.53 243.75 L 89.06 246.09 L 60.94 257.81 L 21.09 309.38 L 0.00 379.69 L 4.69 435.94 L 18.75 468.75 L 49.22 503.91 L 82.03 520.31 L 150.00 522.66" stroke="white" fill="transparent"/>
	<path d = "M 178.12 339.84 L 164.06 325.78 L 121.88 328.12 L 105.47 344.53 L 91.41 377.34 L 91.41 433.59 L 133.59 471.09" stroke="white" fill="transparent"/>
</svg>