<?xml version="1.0" encoding="UTF-8" standalone="no"?>
<!--Created with ndjsontosvg (https:https://github.com/thompson318/ndjsontosvg) 
	from the simplified Google quickdraw data set. key_id = 5346536005304320-->
<svg width="600" height="600"
	xmlns="http://www.w3.org/2000/svg">
	xmlns:ndjsontosvg="https://github.com/thompson318/ndjsontosvg"
	xmlns:quickdraw="https://quickdraw.withgoogle.com/data"
	xmlns:scikit-surgery="https://doi.org/10.1007/s11548-020-02180-5">

	<rect width="100%" height="100%" fill="black" />
	<path d = "M 438.28 39.84 L 417.19 25.78 L 281.25 21.09 L 206.25 4.69 L 82.03 0.00 L 42.19 28.12 L 21.09 63.28 L 16.41 119.53 L 49.22 135.94 L 414.84 161.72 L 440.62 150.00 L 457.03 133.59 L 457.03 100.78 L 442.97 72.66 L 407.81 42.19 L 370.31 25.78 L 297.66 16.41" stroke="white" fill="transparent"/>
	<path d = "M 11.72 84.38 L 11.72 140.62 L 0.00 185.16 L 2.34 478.12 L 21.09 562.50 L 25.78 576.56 L 39.84 581.25 L 358.59 581.25 L 412.50 569.53 L 431.25 555.47 L 438.28 522.66 L 438.28 131.25" stroke="white" fill="transparent"/>
	<path d = "M 426.56 391.41 L 506.25 389.06 L 557.81 370.31 L 583.59 328.12 L 597.66 239.06 L 597.66 203.91 L 585.94 187.50 L 428.91 152.34 L 482.81 150.00 L 499.22 192.19 L 496.88 262.50 L 489.84 281.25 L 426.56 288.28" stroke="white" fill="transparent"/>
</svg>