<?xml version="1.0" encoding="UTF-8" standalone="no"?>
<!--Created with ndjsontosvg (https:https://github.com/thompson318/ndjsontosvg) 
	from the simplified Google quickdraw data set. key_id = 4588372930592768-->
<svg width="600" height="600"
	xmlns="http://www.w3.org/2000/svg">
	xmlns:ndjsontosvg="https://github.com/thompson318/ndjsontosvg"
	xmlns:quickdraw="https://quickdraw.withgoogle.com/data"
	xmlns:scikit-surgery="https://doi.org/10.1007/s11548-020-02180-5">

	<rect width="100%" height="100%" fill="black" />
	<path d = "M 56.25 590.62 L 82.03 569.53 L 142.97 489.84 L 185.16 405.47 L 192.19 267.19 L 110.16 276.56 L 56.25 250.78 L 14.06 239.06 L 2.34 215.62 L 0.00 152.34 L 25.78 72.66 L 44.53 44.53 L 84.38 23.44 L 173.44 0.00 L 323.44 42.19 L 414.84 56.25 L 459.38 77.34 L 471.09 135.94 L 473.44 201.56 L 454.69 257.81 L 424.22 269.53 L 304.69 295.31 L 295.31 297.66 L 288.28 314.06 L 269.53 389.06 L 269.53 557.81 L 285.94 585.94 L 328.12 597.66" stroke="white" fill="transparent"/>
</svg>