<?xml version="1.0" encoding="UTF-8" standalone="no"?>
<!--Created with ndjsontosvg (https:https://github.com/thompson318/ndjsontosvg) 
	from the simplified Google quickdraw data set. key_id = 6293413722849280-->
<svg width="600" height="600"
	xmlns="http://www.w3.org/2000/svg">
	xmlns:ndjsontosvg="https://github.com/thompson318/ndjsontosvg"
	xmlns:quickdraw="https://quickdraw.withgoogle.com/data"
	xmlns:scikit-surgery="https://doi.org/10.1007/s11548-020-02180-5">

	<rect width="100%" height="100%" fill="black" />
	<path d = "M 314.06 234.38 L 314.06 375.00 L 332.81 438.28 L 325.78 529.69 L 325.78 487.50 L 344.53 375.00 L 344.53 307.03 L 318.75 246.09 L 302.34 215.62 L 271.88 196.88 L 241.41 196.88 L 119.53 173.44 L 117.19 140.62 L 213.28 79.69 L 309.38 49.22 L 377.34 42.19 L 438.28 49.22 L 468.75 75.00 L 487.50 103.12 L 487.50 133.59 L 457.03 159.38 L 358.59 159.38 L 295.31 173.44 L 234.38 173.44 L 208.59 185.16" stroke="white" fill="transparent"/>
	<path d = "M 363.28 185.16 L 363.28 217.97 L 386.72 276.56 L 426.56 339.84 L 442.97 464.06 L 438.28 522.66 L 419.53 553.12 L 386.72 567.19 L 314.06 571.88 L 285.94 567.19 L 283.59 560.16" stroke="white" fill="transparent"/>
	<path d = "M 370.31 30.47 L 307.03 37.50 L 135.94 98.44 L 72.66 110.16 L 7.03 110.16 L 11.72 178.12 L 30.47 208.59 L 60.94 234.38 L 154.69 264.84 L 234.38 264.84 L 309.38 253.12 L 438.28 246.09 L 548.44 220.31 L 578.91 203.91 L 597.66 171.09 L 574.22 79.69 L 548.44 49.22 L 478.12 7.03 L 339.84 0.00 L 278.91 30.47 L 147.66 75.00 L 18.75 93.75 L 0.00 128.91 L 0.00 166.41 L 7.03 196.88 L 37.50 227.34 L 152.34 241.41 L 196.88 234.38 L 363.28 234.38 L 560.16 215.62" stroke="white" fill="transparent"/>
</svg>