<?xml version="1.0" encoding="UTF-8" standalone="no"?>
<!--Created with ndjsontosvg (https:https://github.com/thompson318/ndjsontosvg) 
	from the simplified Google quickdraw data set. key_id = 5015687951024128-->
<svg width="600" height="600"
	xmlns="http://www.w3.org/2000/svg">
	xmlns:ndjsontosvg="https://github.com/thompson318/ndjsontosvg"
	xmlns:quickdraw="https://quickdraw.withgoogle.com/data"
	xmlns:scikit-surgery="https://doi.org/10.1007/s11548-020-02180-5">

	<rect width="100%" height="100%" fill="black" />
	<path d = "M 337.50 91.41 L 199.22 107.81 L 199.22 117.19 L 215.62 126.56 L 274.22 138.28 L 335.16 133.59 L 367.97 121.88 L 379.69 107.81 L 353.91 96.09 L 276.56 89.06" stroke="white" fill="transparent"/>
	<path d = "M 255.47 140.62 L 283.59 234.38 L 311.72 138.28" stroke="white" fill="transparent"/>
	<path d = "M 276.56 105.47 L 274.22 121.88" stroke="white" fill="transparent"/>
	<path d = "M 267.19 112.50 L 288.28 112.50" stroke="white" fill="transparent"/>
	<path d = "M 255.47 140.62 L 260.16 128.91" stroke="white" fill="transparent"/>
	<path d = "M 536.72 7.03 L 501.56 28.12 L 494.53 44.53 L 496.88 56.25 L 529.69 75.00 L 585.94 75.00 L 595.31 67.97 L 597.66 51.56 L 578.91 9.38 L 541.41 0.00 L 520.31 14.06" stroke="white" fill="transparent"/>
	<path d = "M 525.00 82.03 L 532.03 215.62 L 574.22 77.34" stroke="white" fill="transparent"/>
	<path d = "M 522.66 84.38 L 520.31 67.97" stroke="white" fill="transparent"/>
	<path d = "M 536.72 21.09 L 569.53 67.97" stroke="white" fill="transparent"/>
	<path d = "M 574.22 37.50 L 527.34 53.91" stroke="white" fill="transparent"/>
	<path d = "M 192.19 16.41 L 93.75 18.75 L 23.44 37.50 L 0.00 51.56 L 7.03 67.97 L 28.12 77.34 L 152.34 84.38 L 278.91 58.59 L 307.03 39.84 L 307.03 28.12 L 295.31 21.09 L 194.53 11.72 L 30.47 28.12" stroke="white" fill="transparent"/>
	<path d = "M 35.16 77.34 L 60.94 124.22 L 159.38 243.75 L 213.28 323.44 L 215.62 225.00 L 239.06 103.12 L 239.06 58.59" stroke="white" fill="transparent"/>
	<path d = "M 124.22 30.47 L 154.69 72.66" stroke="white" fill="transparent"/>
	<path d = "M 82.03 37.50 L 196.88 49.22" stroke="white" fill="transparent"/>
</svg>