<?xml version="1.0" encoding="UTF-8" standalone="no"?>
<!--Created with ndjsontosvg (https:https://github.com/thompson318/ndjsontosvg) 
	from the simplified Google quickdraw data set. key_id = 4883538245582848-->
<svg width="600" height="600"
	xmlns="http://www.w3.org/2000/svg">
	xmlns:ndjsontosvg="https://github.com/thompson318/ndjsontosvg"
	xmlns:quickdraw="https://quickdraw.withgoogle.com/data"
	xmlns:scikit-surgery="https://doi.org/10.1007/s11548-020-02180-5">

	<rect width="100%" height="100%" fill="black" />
	<path d = "M 2.34 35.16 L 0.00 72.66 L 9.38 79.69 L 42.19 79.69 L 44.53 70.31 L 28.12 53.91 L 11.72 51.56" stroke="white" fill="transparent"/>
	<path d = "M 42.19 93.75 L 23.44 112.50 L 23.44 131.25 L 32.81 152.34 L 60.94 154.69 L 70.31 135.94 L 65.62 117.19 L 51.56 105.47" stroke="white" fill="transparent"/>
	<path d = "M 53.91 154.69 L 53.91 206.25 L 89.06 239.06 L 107.81 239.06 L 114.84 229.69 L 114.84 185.16 L 75.00 147.66 L 35.16 145.31" stroke="white" fill="transparent"/>
	<path d = "M 128.91 236.72 L 126.56 288.28 L 171.09 307.03 L 178.12 302.34 L 173.44 276.56 L 152.34 269.53" stroke="white" fill="transparent"/>
	<path d = "M 187.50 290.62 L 185.16 309.38 L 199.22 332.81 L 217.97 335.16 L 225.00 328.12 L 220.31 304.69 L 157.03 267.19" stroke="white" fill="transparent"/>
	<path d = "M 262.50 285.94 L 234.38 304.69 L 229.69 316.41 L 241.41 328.12 L 304.69 330.47 L 295.31 311.72" stroke="white" fill="transparent"/>
	<path d = "M 351.56 285.94 L 344.53 300.00 L 344.53 323.44 L 353.91 328.12 L 396.09 325.78 L 400.78 316.41 L 396.09 288.28 L 382.03 274.22 L 339.84 262.50" stroke="white" fill="transparent"/>
	<path d = "M 391.41 232.03 L 386.72 250.78 L 400.78 274.22 L 445.31 276.56 L 457.03 264.84 L 457.03 255.47 L 442.97 234.38 L 386.72 217.97" stroke="white" fill="transparent"/>
	<path d = "M 450.00 168.75 L 431.25 173.44 L 424.22 185.16 L 426.56 225.00 L 466.41 227.34 L 489.84 213.28 L 489.84 194.53 L 478.12 180.47 L 426.56 157.03" stroke="white" fill="transparent"/>
	<path d = "M 478.12 105.47 L 464.06 114.84 L 466.41 133.59 L 506.25 145.31 L 522.66 133.59 L 517.97 117.19 L 508.59 107.81 L 468.75 98.44" stroke="white" fill="transparent"/>
	<path d = "M 560.16 14.06 L 550.78 14.06 L 532.03 49.22 L 548.44 58.59 L 583.59 60.94 L 595.31 37.50 L 597.66 7.03 L 581.25 0.00" stroke="white" fill="transparent"/>
</svg>