<?xml version="1.0" encoding="UTF-8" standalone="no"?>
<!--Created with ndjsontosvg (https:https://github.com/thompson318/ndjsontosvg) 
	from the simplified Google quickdraw data set. key_id = 5328326585483264-->
<svg width="600" height="600"
	xmlns="http://www.w3.org/2000/svg">
	xmlns:ndjsontosvg="https://github.com/thompson318/ndjsontosvg"
	xmlns:quickdraw="https://quickdraw.withgoogle.com/data"
	xmlns:scikit-surgery="https://doi.org/10.1007/s11548-020-02180-5">

	<rect width="100%" height="100%" fill="black" />
	<path d = "M 290.62 46.88 L 300.00 70.31 L 297.66 105.47 L 257.81 192.19" stroke="white" fill="transparent"/>
	<path d = "M 290.62 142.97 L 241.41 79.69 L 229.69 49.22 L 229.69 21.09 L 246.09 7.03 L 271.88 0.00 L 325.78 2.34 L 360.94 14.06 L 372.66 28.12 L 375.00 46.88 L 342.19 110.16 L 363.28 159.38 L 370.31 222.66" stroke="white" fill="transparent"/>
	<path d = "M 276.56 138.28 L 325.78 142.97 L 342.19 135.94 L 356.25 114.84" stroke="white" fill="transparent"/>
	<path d = "M 264.84 171.09 L 288.28 213.28 L 328.12 227.34 L 351.56 222.66 L 365.62 210.94 L 377.34 187.50 L 375.00 171.09" stroke="white" fill="transparent"/>
	<path d = "M 375.00 178.12 L 370.31 194.53 L 377.34 192.19 L 377.34 180.47 L 365.62 192.19" stroke="white" fill="transparent"/>
	<path d = "M 346.88 222.66 L 351.56 229.69 L 358.59 225.00 L 349.22 217.97 L 346.88 227.34" stroke="white" fill="transparent"/>
	<path d = "M 307.03 222.66 L 311.72 234.38 L 318.75 227.34 L 311.72 225.00" stroke="white" fill="transparent"/>
	<path d = "M 288.28 199.22 L 283.59 213.28 L 295.31 206.25 L 288.28 201.56" stroke="white" fill="transparent"/>
	<path d = "M 271.88 185.16 L 267.19 194.53" stroke="white" fill="transparent"/>
	<path d = "M 372.66 285.94 L 351.56 246.09 L 344.53 269.53 L 358.59 243.75 L 367.97 248.44" stroke="white" fill="transparent"/>
	<path d = "M 482.81 79.69 L 471.09 126.56 L 471.09 178.12 L 487.50 206.25 L 527.34 222.66 L 564.84 213.28 L 588.28 196.88 L 597.66 171.09 L 595.31 150.00 L 567.19 98.44 L 532.03 65.62 L 494.53 60.94 L 480.47 70.31 L 480.47 79.69" stroke="white" fill="transparent"/>
	<path d = "M 532.03 227.34 L 546.09 217.97 L 553.12 222.66 L 532.03 260.16" stroke="white" fill="transparent"/>
	<path d = "M 534.38 232.03 L 520.31 220.31 L 503.91 225.00 L 534.38 269.53" stroke="white" fill="transparent"/>
	<path d = "M 70.31 49.22 L 42.19 93.75 L 28.12 135.94 L 23.44 192.19 L 39.84 243.75 L 58.59 260.16 L 77.34 264.84 L 119.53 253.12 L 147.66 227.34 L 168.75 187.50 L 164.06 121.88 L 140.62 84.38 L 93.75 65.62 L 72.66 63.28 L 65.62 70.31" stroke="white" fill="transparent"/>
	<path d = "M 79.69 248.44 L 82.03 264.84 L 93.75 271.88 L 98.44 243.75 L 89.06 243.75 L 86.72 260.16" stroke="white" fill="transparent"/>
	<path d = "M 128.91 232.03 L 140.62 243.75 L 152.34 243.75 L 171.09 208.59 L 159.38 194.53 L 131.25 215.62" stroke="white" fill="transparent"/>
	<path d = "M 150.00 147.66 L 157.03 154.69 L 168.75 140.62 L 171.09 105.47 L 154.69 100.78 L 135.94 119.53" stroke="white" fill="transparent"/>
	<path d = "M 112.50 58.59 L 103.12 84.38 L 105.47 96.09 L 121.88 79.69 L 117.19 39.84 L 103.12 37.50 L 84.38 49.22" stroke="white" fill="transparent"/>
	<path d = "M 42.19 60.94 L 39.84 77.34 L 49.22 96.09 L 60.94 100.78 L 67.97 91.41 L 63.28 72.66 L 42.19 70.31 L 4.69 107.81" stroke="white" fill="transparent"/>
	<path d = "M 37.50 147.66 L 7.03 178.12 L 0.00 196.88 L 11.72 213.28 L 32.81 199.22 L 37.50 185.16 L 25.78 175.78 L 0.00 199.22" stroke="white" fill="transparent"/>
	<path d = "M 39.84 227.34 L 21.09 246.09 L 21.09 264.84 L 28.12 269.53 L 58.59 248.44 L 60.94 236.72 L 53.91 232.03 L 30.47 241.41" stroke="white" fill="transparent"/>
</svg>