<?xml version="1.0" encoding="UTF-8" standalone="no"?>
<!--Created with ndjsontosvg (https:https://github.com/thompson318/ndjsontosvg) 
	from the simplified Google quickdraw data set. key_id = 5470578536349696-->
<svg width="600" height="600"
	xmlns="http://www.w3.org/2000/svg">
	xmlns:ndjsontosvg="https://github.com/thompson318/ndjsontosvg"
	xmlns:quickdraw="https://quickdraw.withgoogle.com/data"
	xmlns:scikit-surgery="https://doi.org/10.1007/s11548-020-02180-5">

	<rect width="100%" height="100%" fill="black" />
	<path d = "M 173.44 4.69 L 173.44 4.69" stroke="white" fill="transparent"/>
	<path d = "M 157.03 7.03 L 138.28 157.03 L 100.78 300.00 L 72.66 349.22 L 37.50 377.34 L 11.72 452.34 L 0.00 546.09 L 7.03 571.88 L 30.47 597.66 L 65.62 583.59 L 178.12 503.91 L 213.28 454.69 L 246.09 384.38 L 246.09 457.03 L 290.62 534.38 L 316.41 550.78 L 379.69 557.81 L 403.12 543.75 L 445.31 513.28 L 473.44 459.38 L 487.50 389.06 L 487.50 335.16 L 454.69 229.69 L 379.69 119.53 L 316.41 46.88 L 302.34 30.47 L 239.06 0.00" stroke="white" fill="transparent"/>
</svg>