<?xml version="1.0" encoding="UTF-8" standalone="no"?>
<!--Created with ndjsontosvg (https:https://github.com/thompson318/ndjsontosvg) 
	from the simplified Google quickdraw data set. key_id = 6665245248454656-->
<svg width="600" height="600"
	xmlns="http://www.w3.org/2000/svg">
	xmlns:ndjsontosvg="https://github.com/thompson318/ndjsontosvg"
	xmlns:quickdraw="https://quickdraw.withgoogle.com/data"
	xmlns:scikit-surgery="https://doi.org/10.1007/s11548-020-02180-5">

	<rect width="100%" height="100%" fill="black" />
	<path d = "M 175.78 16.41 L 171.09 142.97 L 194.53 194.53 L 239.06 220.31 L 302.34 220.31 L 342.19 192.19 L 351.56 159.38 L 353.91 117.19 L 316.41 56.25 L 276.56 16.41 L 250.78 4.69 L 180.47 4.69" stroke="white" fill="transparent"/>
	<path d = "M 239.06 213.28 L 236.72 246.09 L 257.81 262.50 L 278.91 260.16 L 292.97 248.44 L 297.66 225.00 L 285.94 217.97" stroke="white" fill="transparent"/>
	<path d = "M 351.56 171.09 L 414.84 173.44 L 489.84 133.59 L 541.41 128.91 L 574.22 145.31 L 597.66 185.16 L 588.28 189.84 L 382.03 196.88 L 323.44 213.28" stroke="white" fill="transparent"/>
	<path d = "M 318.75 213.28 L 384.38 225.00 L 475.78 262.50 L 548.44 325.78 L 555.47 344.53 L 548.44 353.91 L 475.78 335.16 L 407.81 292.97 L 358.59 241.41 L 325.78 225.00" stroke="white" fill="transparent"/>
	<path d = "M 302.34 220.31 L 307.03 239.06 L 335.16 278.91 L 356.25 328.12 L 367.97 389.06 L 337.50 419.53 L 309.38 421.88 L 295.31 386.72 L 295.31 318.75 L 283.59 257.81" stroke="white" fill="transparent"/>
	<path d = "M 229.69 257.81 L 229.69 297.66 L 199.22 386.72 L 196.88 424.22 L 215.62 389.06 L 217.97 288.28 L 239.06 250.78" stroke="white" fill="transparent"/>
	<path d = "M 196.88 213.28 L 140.62 274.22 L 67.97 330.47 L 51.56 356.25 L 51.56 372.66 L 84.38 351.56 L 152.34 271.88 L 210.94 220.31" stroke="white" fill="transparent"/>
	<path d = "M 161.72 180.47 L 84.38 185.16 L 28.12 201.56 L 4.69 217.97 L 0.00 241.41 L 14.06 250.78 L 56.25 248.44 L 114.84 210.94 L 166.41 199.22" stroke="white" fill="transparent"/>
</svg>