<?xml version="1.0" encoding="UTF-8" standalone="no"?>
<!--Created with ndjsontosvg (https:https://github.com/thompson318/ndjsontosvg) 
	from the simplified Google quickdraw data set. key_id = 5653680944578560-->
<svg width="600" height="600"
	xmlns="http://www.w3.org/2000/svg">
	xmlns:ndjsontosvg="https://github.com/thompson318/ndjsontosvg"
	xmlns:quickdraw="https://quickdraw.withgoogle.com/data"
	xmlns:scikit-surgery="https://doi.org/10.1007/s11548-020-02180-5">

	<rect width="100%" height="100%" fill="black" />
	<path d = "M 276.56 105.47 L 300.00 82.03 L 304.69 46.88 L 274.22 9.38 L 241.41 0.00 L 199.22 16.41 L 178.12 42.19 L 175.78 77.34 L 215.62 100.78 L 215.62 114.84 L 206.25 119.53 L 117.19 140.62 L 75.00 110.16 L 23.44 100.78 L 4.69 105.47 L 2.34 138.28 L 23.44 164.06 L 84.38 196.88 L 103.12 196.88 L 171.09 164.06 L 178.12 168.75 L 178.12 185.16 L 168.75 196.88 L 98.44 257.81 L 49.22 274.22 L 77.34 288.28 L 131.25 278.91 L 154.69 248.44 L 180.47 194.53 L 187.50 234.38 L 182.81 295.31 L 187.50 304.69 L 196.88 304.69 L 227.34 267.19 L 248.44 201.56 L 295.31 290.62 L 314.06 316.41 L 332.81 325.78 L 346.88 316.41 L 307.03 217.97 L 412.50 309.38 L 442.97 323.44 L 461.72 271.88 L 452.34 206.25 L 426.56 187.50 L 379.69 182.81 L 517.97 215.62 L 597.66 217.97 L 595.31 203.91 L 560.16 168.75 L 520.31 147.66 L 384.38 131.25 L 442.97 117.19 L 445.31 100.78 L 342.19 86.72" stroke="white" fill="transparent"/>
</svg>