<?xml version="1.0" encoding="UTF-8" standalone="no"?>
<!--Created with ndjsontosvg (https:https://github.com/thompson318/ndjsontosvg) 
	from the simplified Google quickdraw data set. key_id = 5918609828216832-->
<svg width="600" height="600"
	xmlns="http://www.w3.org/2000/svg">
	xmlns:ndjsontosvg="https://github.com/thompson318/ndjsontosvg"
	xmlns:quickdraw="https://quickdraw.withgoogle.com/data"
	xmlns:scikit-surgery="https://doi.org/10.1007/s11548-020-02180-5">

	<rect width="100%" height="100%" fill="black" />
	<path d = "M 496.88 0.00 L 461.72 0.00 L 431.25 11.72 L 398.44 39.84 L 375.00 96.09 L 375.00 166.41 L 403.12 234.38 L 435.94 250.78 L 517.97 255.47 L 557.81 232.03 L 595.31 164.06 L 590.62 91.41 L 560.16 44.53 L 494.53 4.69" stroke="white" fill="transparent"/>
	<path d = "M 377.34 178.12 L 351.56 215.62 L 328.12 234.38 L 311.72 236.72 L 262.50 213.28 L 210.94 159.38 L 175.78 166.41 L 135.94 189.84 L 100.78 192.19 L 67.97 180.47 L 0.00 145.31" stroke="white" fill="transparent"/>
	<path d = "M 396.09 217.97 L 389.06 234.38 L 325.78 278.91 L 316.41 292.97 L 314.06 318.75 L 297.66 339.84 L 206.25 391.41 L 168.75 419.53 L 166.41 414.84" stroke="white" fill="transparent"/>
	<path d = "M 440.62 255.47 L 421.88 267.19 L 410.16 288.28 L 407.81 307.03 L 421.88 332.81 L 421.88 353.91 L 396.09 419.53 L 389.06 489.84 L 398.44 494.53 L 457.03 424.22" stroke="white" fill="transparent"/>
	<path d = "M 494.53 246.09 L 529.69 271.88" stroke="white" fill="transparent"/>
</svg>