<?xml version="1.0" encoding="UTF-8" standalone="no"?>
<!--Created with ndjsontosvg (https:https://github.com/thompson318/ndjsontosvg) 
	from the simplified Google quickdraw data set. key_id = 4627009848213504-->
<svg width="600" height="600"
	xmlns="http://www.w3.org/2000/svg">
	xmlns:ndjsontosvg="https://github.com/thompson318/ndjsontosvg"
	xmlns:quickdraw="https://quickdraw.withgoogle.com/data"
	xmlns:scikit-surgery="https://doi.org/10.1007/s11548-020-02180-5">

	<rect width="100%" height="100%" fill="black" />
	<path d = "M 281.25 210.94 L 316.41 65.62 L 346.88 21.09 L 375.00 0.00 L 393.75 9.38 L 405.47 35.16 L 410.16 131.25 L 403.12 203.91 L 396.09 213.28 L 379.69 220.31 L 262.50 232.03 L 199.22 276.56 L 159.38 318.75 L 107.81 400.78 L 84.38 452.34 L 107.81 447.66 L 189.84 391.41 L 239.06 311.72 L 243.75 290.62" stroke="white" fill="transparent"/>
	<path d = "M 290.62 225.00 L 217.97 501.56" stroke="white" fill="transparent"/>
	<path d = "M 330.47 159.38 L 311.72 255.47 L 307.03 513.28" stroke="white" fill="transparent"/>
	<path d = "M 346.88 215.62 L 377.34 323.44 L 433.59 461.72 L 466.41 522.66" stroke="white" fill="transparent"/>
	<path d = "M 367.97 196.88 L 377.34 229.69 L 417.19 290.62 L 560.16 450.00" stroke="white" fill="transparent"/>
	<path d = "M 377.34 203.91 L 428.91 229.69 L 553.12 264.84 L 597.66 288.28" stroke="white" fill="transparent"/>
	<path d = "M 30.47 154.69 L 79.69 171.09" stroke="white" fill="transparent"/>
	<path d = "M 243.75 225.00 L 180.47 217.97 L 128.91 222.66 L 0.00 281.25" stroke="white" fill="transparent"/>
</svg>