<?xml version="1.0" encoding="UTF-8" standalone="no"?>
<!--Created with ndjsontosvg (https:https://github.com/thompson318/ndjsontosvg) 
	from the simplified Google quickdraw data set. key_id = 6045547322408960-->
<svg width="600" height="600"
	xmlns="http://www.w3.org/2000/svg">
	xmlns:ndjsontosvg="https://github.com/thompson318/ndjsontosvg"
	xmlns:quickdraw="https://quickdraw.withgoogle.com/data"
	xmlns:scikit-surgery="https://doi.org/10.1007/s11548-020-02180-5">

	<rect width="100%" height="100%" fill="black" />
	<path d = "M 304.69 32.81 L 276.56 11.72 L 236.72 11.72 L 199.22 30.47 L 185.16 60.94 L 180.47 100.78 L 187.50 135.94 L 250.78 246.09 L 260.16 300.00 L 297.66 304.69 L 335.16 285.94 L 384.38 220.31 L 398.44 178.12 L 391.41 107.81 L 367.97 28.12 L 356.25 9.38 L 337.50 0.00 L 297.66 25.78" stroke="white" fill="transparent"/>
	<path d = "M 255.47 292.97 L 213.28 314.06 L 154.69 358.59 L 67.97 363.28 L 0.00 375.00" stroke="white" fill="transparent"/>
	<path d = "M 206.25 194.53 L 150.00 225.00 L 82.03 236.72 L 51.56 236.72 L 14.06 199.22 L 11.72 239.06" stroke="white" fill="transparent"/>
	<path d = "M 283.59 302.34 L 288.28 346.88 L 304.69 410.16 L 325.78 452.34 L 346.88 468.75 L 367.97 529.69" stroke="white" fill="transparent"/>
	<path d = "M 370.31 246.09 L 435.94 278.91 L 494.53 370.31 L 520.31 386.72 L 539.06 389.06" stroke="white" fill="transparent"/>
	<path d = "M 403.12 159.38 L 421.88 145.31 L 461.72 145.31 L 550.78 194.53 L 597.66 206.25" stroke="white" fill="transparent"/>
	<path d = "M 337.50 283.59 L 389.06 328.12 L 473.44 447.66" stroke="white" fill="transparent"/>
	<path d = "M 396.09 189.84 L 454.69 217.97 L 522.66 297.66 L 592.97 353.91" stroke="white" fill="transparent"/>
</svg>