<?xml version="1.0" encoding="UTF-8" standalone="no"?>
<!--Created with ndjsontosvg (https:https://github.com/thompson318/ndjsontosvg) 
	from the simplified Google quickdraw data set. key_id = 5824736372195328-->
<svg width="600" height="600"
	xmlns="http://www.w3.org/2000/svg">
	xmlns:ndjsontosvg="https://github.com/thompson318/ndjsontosvg"
	xmlns:quickdraw="https://quickdraw.withgoogle.com/data"
	xmlns:scikit-surgery="https://doi.org/10.1007/s11548-020-02180-5">

	<rect width="100%" height="100%" fill="black" />
	<path d = "M 30.47 597.66 L 35.16 489.84 L 0.00 372.66 L 0.00 339.84 L 14.06 290.62 L 65.62 229.69 L 110.16 199.22 L 133.59 192.19 L 206.25 189.84 L 269.53 199.22 L 318.75 236.72 L 328.12 262.50 L 328.12 300.00 L 323.44 344.53 L 311.72 372.66 L 241.41 485.16 L 208.59 510.94 L 98.44 550.78 L 42.19 588.28" stroke="white" fill="transparent"/>
	<path d = "M 222.66 166.41 L 217.97 142.97 L 225.00 84.38 L 236.72 53.91 L 260.16 23.44" stroke="white" fill="transparent"/>
	<path d = "M 257.81 217.97 L 260.16 196.88 L 290.62 133.59 L 323.44 82.03" stroke="white" fill="transparent"/>
	<path d = "M 295.31 175.78 L 278.91 171.09 L 271.88 159.38 L 267.19 105.47 L 283.59 67.97 L 325.78 14.06" stroke="white" fill="transparent"/>
	<path d = "M 379.69 0.00 L 358.59 18.75 L 300.00 119.53 L 283.59 161.72 L 283.59 189.84" stroke="white" fill="transparent"/>
	<path d = "M 318.75 264.84 L 358.59 199.22 L 421.88 126.56" stroke="white" fill="transparent"/>
	<path d = "M 342.19 253.12 L 325.78 260.16 L 325.78 248.44 L 332.81 225.00 L 363.28 185.16" stroke="white" fill="transparent"/>
	<path d = "M 304.69 236.72 L 323.44 208.59" stroke="white" fill="transparent"/>
</svg>