<?xml version="1.0" encoding="UTF-8" standalone="no"?>
<!--Created with ndjsontosvg (https:https://github.com/thompson318/ndjsontosvg) 
	from the simplified Google quickdraw data set. key_id = 4708324668866560-->
<svg width="600" height="600"
	xmlns="http://www.w3.org/2000/svg">
	xmlns:ndjsontosvg="https://github.com/thompson318/ndjsontosvg"
	xmlns:quickdraw="https://quickdraw.withgoogle.com/data"
	xmlns:scikit-surgery="https://doi.org/10.1007/s11548-020-02180-5">

	<rect width="100%" height="100%" fill="black" />
	<path d = "M 93.75 107.81 L 60.94 117.19 L 35.16 138.28 L 14.06 168.75 L 0.00 243.75 L 0.00 316.41 L 14.06 375.00 L 79.69 478.12 L 114.84 508.59 L 173.44 543.75 L 292.97 578.91 L 445.31 578.91 L 517.97 525.00 L 597.66 400.78 L 592.97 335.16 L 525.00 243.75 L 433.59 168.75 L 360.94 124.22 L 269.53 89.06 L 208.59 79.69 L 124.22 79.69" stroke="white" fill="transparent"/>
	<path d = "M 295.31 98.44 L 295.31 98.44" stroke="white" fill="transparent"/>
	<path d = "M 295.31 98.44 L 339.84 60.94 L 356.25 35.16" stroke="white" fill="transparent"/>
	<path d = "M 335.16 89.06 L 384.38 93.75 L 428.91 84.38" stroke="white" fill="transparent"/>
	<path d = "M 290.62 89.06 L 271.88 58.59 L 257.81 0.00" stroke="white" fill="transparent"/>
	<path d = "M 262.50 103.12 L 232.03 119.53 L 192.19 168.75 L 25.78 424.22" stroke="white" fill="transparent"/>
	<path d = "M 433.59 173.44 L 410.16 187.50 L 360.94 246.09 L 217.97 389.06" stroke="white" fill="transparent"/>
	<path d = "M 539.06 267.19 L 517.97 292.97 L 396.09 557.81" stroke="white" fill="transparent"/>
	<path d = "M 290.62 360.94 L 253.12 389.06 L 182.81 517.97" stroke="white" fill="transparent"/>
</svg>