<?xml version="1.0" encoding="UTF-8" standalone="no"?>
<!--Created with ndjsontosvg (https:https://github.com/thompson318/ndjsontosvg) 
	from the simplified Google quickdraw data set. key_id = 4542188409061376-->
<svg width="600" height="600"
	xmlns="http://www.w3.org/2000/svg">
	xmlns:ndjsontosvg="https://github.com/thompson318/ndjsontosvg"
	xmlns:quickdraw="https://quickdraw.withgoogle.com/data"
	xmlns:scikit-surgery="https://doi.org/10.1007/s11548-020-02180-5">

	<rect width="100%" height="100%" fill="black" />
	<path d = "M 236.72 241.41 L 203.91 262.50 L 79.69 262.50 L 21.09 281.25 L 0.00 337.50 L 9.38 398.44 L 53.91 471.09 L 100.78 506.25 L 194.53 550.78 L 253.12 569.53 L 367.97 581.25 L 424.22 578.91 L 475.78 564.84 L 569.53 503.91 L 588.28 471.09 L 597.66 421.88 L 597.66 384.38 L 583.59 351.56 L 564.84 328.12 L 499.22 288.28 L 342.19 253.12 L 304.69 232.03 L 297.66 210.94 L 295.31 157.03 L 321.09 0.00 L 325.78 119.53 L 290.62 199.22 L 267.19 222.66 L 182.81 239.06" stroke="white" fill="transparent"/>
	<path d = "M 182.81 295.31 L 166.41 295.31 L 152.34 307.03 L 124.22 370.31 L 124.22 412.50 L 133.59 440.62 L 159.38 480.47 L 168.75 482.81" stroke="white" fill="transparent"/>
	<path d = "M 304.69 271.88 L 302.34 482.81" stroke="white" fill="transparent"/>
	<path d = "M 360.94 325.78 L 400.78 339.84 L 435.94 372.66 L 442.97 457.03 L 424.22 494.53" stroke="white" fill="transparent"/>
</svg>