<?xml version="1.0" encoding="UTF-8" standalone="no"?>
<!--Created with ndjsontosvg (https:https://github.com/thompson318/ndjsontosvg) 
	from the simplified Google quickdraw data set. key_id = 6078724602593280-->
<svg width="600" height="600"
	xmlns="http://www.w3.org/2000/svg">
	xmlns:ndjsontosvg="https://github.com/thompson318/ndjsontosvg"
	xmlns:quickdraw="https://quickdraw.withgoogle.com/data"
	xmlns:scikit-surgery="https://doi.org/10.1007/s11548-020-02180-5">

	<rect width="100%" height="100%" fill="black" />
	<path d = "M 117.19 164.06 L 79.69 185.16 L 25.78 264.84 L 2.34 325.78 L 0.00 435.94 L 9.38 459.38 L 32.81 482.81 L 124.22 506.25 L 302.34 506.25 L 365.62 494.53 L 382.03 478.12 L 421.88 471.09 L 541.41 403.12 L 564.84 382.03 L 583.59 360.94 L 597.66 314.06 L 595.31 262.50 L 581.25 234.38 L 534.38 194.53 L 424.22 145.31 L 297.66 138.28 L 295.31 128.91 L 304.69 91.41 L 309.38 25.78 L 297.66 7.03 L 250.78 0.00 L 185.16 9.38 L 161.72 21.09 L 138.28 63.28 L 124.22 168.75 L 131.25 166.41" stroke="white" fill="transparent"/>
	<path d = "M 152.34 248.44 L 105.47 353.91 L 103.12 384.38" stroke="white" fill="transparent"/>
	<path d = "M 323.44 199.22 L 314.06 182.81 L 300.00 210.94 L 267.19 295.31 L 250.78 360.94" stroke="white" fill="transparent"/>
</svg>