<?xml version="1.0" encoding="UTF-8" standalone="no"?>
<!--Created with ndjsontosvg (https:https://github.com/thompson318/ndjsontosvg) 
	from the simplified Google quickdraw data set. key_id = 4633117845356544-->
<svg width="600" height="600"
	xmlns="http://www.w3.org/2000/svg">
	xmlns:ndjsontosvg="https://github.com/thompson318/ndjsontosvg"
	xmlns:quickdraw="https://quickdraw.withgoogle.com/data"
	xmlns:scikit-surgery="https://doi.org/10.1007/s11548-020-02180-5">

	<rect width="100%" height="100%" fill="black" />
	<path d = "M 2.34 14.06 L 16.41 114.84 L 4.69 398.44 L 7.03 457.03 L 16.41 480.47 L 46.88 485.16 L 360.94 447.66 L 424.22 445.31 L 560.16 457.03 L 574.22 452.34 L 590.62 426.56 L 597.66 358.59 L 581.25 220.31 L 578.91 53.91 L 571.88 18.75 L 557.81 4.69 L 520.31 0.00 L 351.56 9.38 L 117.19 0.00 L 0.00 21.09" stroke="white" fill="transparent"/>
	<path d = "M 117.19 65.62 L 131.25 337.50 L 140.62 358.59 L 471.09 356.25 L 487.50 351.56 L 496.88 314.06 L 494.53 234.38 L 475.78 100.78 L 466.41 82.03 L 412.50 72.66 L 229.69 84.38 L 121.88 60.94" stroke="white" fill="transparent"/>
	<path d = "M 117.19 30.47 L 110.16 30.47 L 121.88 23.44 L 114.84 18.75 L 98.44 28.12 L 117.19 35.16" stroke="white" fill="transparent"/>
	<path d = "M 459.38 30.47 L 457.03 42.19 L 450.00 37.50" stroke="white" fill="transparent"/>
</svg>