<?xml version="1.0" encoding="UTF-8" standalone="no"?>
<!--Created with ndjsontosvg (https:https://github.com/thompson318/ndjsontosvg) 
	from the simplified Google quickdraw data set. key_id = 6132244135542784-->
<svg width="600" height="600"
	xmlns="http://www.w3.org/2000/svg">
	xmlns:ndjsontosvg="https://github.com/thompson318/ndjsontosvg"
	xmlns:quickdraw="https://quickdraw.withgoogle.com/data"
	xmlns:scikit-surgery="https://doi.org/10.1007/s11548-020-02180-5">

	<rect width="100%" height="100%" fill="black" />
	<path d = "M 44.53 4.69 L 42.19 79.69 L 18.75 311.72 L 2.34 410.16 L 0.00 471.09 L 96.09 471.09 L 157.03 459.38 L 203.91 459.38 L 445.31 489.84 L 588.28 489.84 L 597.66 466.41 L 597.66 405.47 L 576.56 278.91 L 576.56 232.03 L 595.31 79.69 L 592.97 11.72 L 567.19 2.34 L 49.22 2.34" stroke="white" fill="transparent"/>
	<path d = "M 56.25 103.12 L 150.00 93.75 L 325.78 89.06 L 393.75 75.00 L 442.97 75.00 L 487.50 79.69 L 578.91 110.16" stroke="white" fill="transparent"/>
	<path d = "M 210.94 46.88 L 168.75 35.16 L 161.72 39.84 L 161.72 56.25 L 178.12 72.66 L 208.59 84.38 L 213.28 49.22 L 208.59 37.50" stroke="white" fill="transparent"/>
	<path d = "M 466.41 23.44 L 438.28 18.75 L 412.50 39.84 L 417.19 56.25 L 457.03 77.34 L 466.41 75.00 L 468.75 65.62 L 471.09 23.44" stroke="white" fill="transparent"/>
</svg>