<?xml version="1.0" encoding="UTF-8" standalone="no"?>
<!--Created with ndjsontosvg (https:https://github.com/thompson318/ndjsontosvg) 
	from the simplified Google quickdraw data set. key_id = 6072977361731584-->
<svg width="600" height="600"
	xmlns="http://www.w3.org/2000/svg">
	xmlns:ndjsontosvg="https://github.com/thompson318/ndjsontosvg"
	xmlns:quickdraw="https://quickdraw.withgoogle.com/data"
	xmlns:scikit-surgery="https://doi.org/10.1007/s11548-020-02180-5">

	<rect width="100%" height="100%" fill="black" />
	<path d = "M 18.75 23.44 L 14.06 363.28 L 597.66 377.34 L 590.62 0.00 L 419.53 4.69 L 278.91 16.41 L 79.69 9.38 L 0.00 18.75" stroke="white" fill="transparent"/>
	<path d = "M 103.12 187.50 L 241.41 194.53 L 515.62 194.53 L 560.16 187.50 L 555.47 311.72 L 550.78 316.41 L 84.38 304.69 L 79.69 274.22 L 86.72 194.53" stroke="white" fill="transparent"/>
	<path d = "M 131.25 49.22 L 105.47 46.88 L 82.03 70.31 L 72.66 91.41 L 79.69 114.84 L 119.53 119.53 L 150.00 89.06 L 154.69 49.22 L 119.53 42.19" stroke="white" fill="transparent"/>
	<path d = "M 520.31 39.84 L 508.59 30.47 L 473.44 30.47 L 438.28 44.53 L 424.22 60.94 L 426.56 82.03 L 445.31 103.12 L 494.53 114.84 L 508.59 114.84 L 529.69 96.09 L 534.38 58.59 L 510.94 32.81" stroke="white" fill="transparent"/>
	<path d = "M 302.34 65.62 L 300.00 60.94 L 285.94 58.59 L 260.16 67.97 L 250.78 86.72 L 257.81 110.16 L 288.28 142.97 L 302.34 147.66 L 318.75 147.66 L 339.84 124.22 L 342.19 89.06 L 297.66 77.34" stroke="white" fill="transparent"/>
</svg>