<?xml version="1.0" encoding="UTF-8" standalone="no"?>
<!--Created with ndjsontosvg (https:https://github.com/thompson318/ndjsontosvg) 
	from the simplified Google quickdraw data set. key_id = 4515776776110080-->
<svg width="600" height="600"
	xmlns="http://www.w3.org/2000/svg">
	xmlns:ndjsontosvg="https://github.com/thompson318/ndjsontosvg"
	xmlns:quickdraw="https://quickdraw.withgoogle.com/data"
	xmlns:scikit-surgery="https://doi.org/10.1007/s11548-020-02180-5">

	<rect width="100%" height="100%" fill="black" />
	<path d = "M 49.22 77.34 L 18.75 199.22 L 14.06 342.19 L 32.81 119.53 L 32.81 0.00 L 250.78 18.75 L 412.50 46.88 L 520.31 89.06 L 592.97 96.09 L 597.66 86.72 L 576.56 86.72 L 325.78 342.19 L 307.03 330.47 L 4.69 307.03" stroke="white" fill="transparent"/>
	<path d = "M 100.78 89.06 L 220.31 93.75 L 400.78 145.31 L 389.06 121.88 L 384.38 84.38 L 377.34 82.03 L 278.91 79.69 L 187.50 67.97 L 107.81 49.22 L 100.78 58.59 L 93.75 114.84" stroke="white" fill="transparent"/>
	<path d = "M 168.75 180.47 L 114.84 276.56 L 128.91 227.34 L 175.78 180.47 L 185.16 175.78 L 227.34 196.88" stroke="white" fill="transparent"/>
</svg>