<?xml version="1.0" encoding="UTF-8" standalone="no"?>
<!--Created with ndjsontosvg (https:https://github.com/thompson318/ndjsontosvg) 
	from the simplified Google quickdraw data set. key_id = 5393492178108416-->
<svg width="600" height="600"
	xmlns="http://www.w3.org/2000/svg">
	xmlns:ndjsontosvg="https://github.com/thompson318/ndjsontosvg"
	xmlns:quickdraw="https://quickdraw.withgoogle.com/data"
	xmlns:scikit-surgery="https://doi.org/10.1007/s11548-020-02180-5">

	<rect width="100%" height="100%" fill="black" />
	<path d = "M 58.59 9.38 L 63.28 86.72 L 49.22 239.06 L 44.53 450.00 L 37.50 513.28" stroke="white" fill="transparent"/>
	<path d = "M 56.25 16.41 L 175.78 2.34 L 269.53 0.00 L 435.94 30.47 L 539.06 35.16 L 564.84 105.47 L 574.22 157.03 L 597.66 489.84 L 571.88 501.56 L 438.28 520.31 L 121.88 543.75 L 0.00 546.09" stroke="white" fill="transparent"/>
	<path d = "M 166.41 72.66 L 185.16 142.97 L 220.31 466.41" stroke="white" fill="transparent"/>
	<path d = "M 166.41 91.41 L 384.38 86.72 L 447.66 93.75 L 517.97 438.28 L 525.00 471.09 L 515.62 473.44 L 229.69 475.78" stroke="white" fill="transparent"/>
	<path d = "M 363.28 278.91 L 414.84 276.56" stroke="white" fill="transparent"/>
	<path d = "M 384.38 281.25 L 281.25 290.62" stroke="white" fill="transparent"/>
</svg>