<?xml version="1.0" encoding="UTF-8" standalone="no"?>
<!--Created with ndjsontosvg (https:https://github.com/thompson318/ndjsontosvg) 
	from the simplified Google quickdraw data set. key_id = 4941523999260672-->
<svg width="600" height="600"
	xmlns="http://www.w3.org/2000/svg">
	xmlns:ndjsontosvg="https://github.com/thompson318/ndjsontosvg"
	xmlns:quickdraw="https://quickdraw.withgoogle.com/data"
	xmlns:scikit-surgery="https://doi.org/10.1007/s11548-020-02180-5">

	<rect width="100%" height="100%" fill="black" />
	<path d = "M 103.12 128.91 L 67.97 346.88 L 56.25 496.88 L 60.94 553.12 L 70.31 569.53 L 86.72 581.25 L 253.12 585.94 L 440.62 574.22 L 510.94 562.50 L 522.66 546.09 L 525.00 496.88 L 487.50 213.28 L 478.12 166.41 L 457.03 119.53 L 431.25 100.78 L 370.31 91.41 L 152.34 96.09 L 75.00 112.50 L 157.03 145.31" stroke="white" fill="transparent"/>
	<path d = "M 117.19 133.59 L 100.78 133.59 L 67.97 159.38 L 42.19 199.22 L 105.47 145.31" stroke="white" fill="transparent"/>
	<path d = "M 79.69 597.66 L 51.56 569.53 L 4.69 492.19 L 2.34 295.31 L 9.38 239.06 L 32.81 185.16 L 103.12 112.50" stroke="white" fill="transparent"/>
	<path d = "M 86.72 182.81 L 42.19 103.12 L 42.19 75.00 L 60.94 39.84 L 91.41 23.44 L 187.50 11.72 L 461.72 2.34 L 473.44 16.41 L 471.09 138.28" stroke="white" fill="transparent"/>
	<path d = "M 110.16 49.22 L 105.47 72.66 L 119.53 98.44 L 142.97 119.53 L 168.75 128.91 L 189.84 119.53 L 199.22 70.31 L 178.12 37.50 L 159.38 35.16 L 152.34 46.88" stroke="white" fill="transparent"/>
	<path d = "M 316.41 11.72 L 309.38 25.78 L 316.41 56.25 L 349.22 91.41 L 389.06 103.12 L 384.38 72.66 L 346.88 30.47 L 330.47 25.78 L 332.81 42.19" stroke="white" fill="transparent"/>
	<path d = "M 431.25 42.19 L 426.56 84.38 L 438.28 117.19 L 471.09 138.28 L 480.47 103.12 L 468.75 63.28 L 454.69 46.88 L 450.00 60.94" stroke="white" fill="transparent"/>
	<path d = "M 84.38 107.81 L 65.62 199.22 L 84.38 208.59 L 360.94 232.03 L 452.34 232.03" stroke="white" fill="transparent"/>
	<path d = "M 180.47 152.34 L 164.06 173.44 L 175.78 201.56 L 199.22 213.28 L 232.03 213.28 L 248.44 194.53 L 246.09 154.69 L 220.31 121.88 L 189.84 119.53 L 173.44 159.38" stroke="white" fill="transparent"/>
	<path d = "M 337.50 135.94 L 332.81 159.38 L 339.84 192.19 L 346.88 208.59 L 375.00 227.34 L 403.12 232.03 L 424.22 210.94 L 431.25 187.50 L 419.53 147.66 L 386.72 126.56 L 356.25 131.25 L 335.16 171.09" stroke="white" fill="transparent"/>
</svg>