<?xml version="1.0" encoding="UTF-8" standalone="no"?>
<!--Created with ndjsontosvg (https:https://github.com/thompson318/ndjsontosvg) 
	from the simplified Google quickdraw data set. key_id = 6106483995443200-->
<svg width="600" height="600"
	xmlns="http://www.w3.org/2000/svg">
	xmlns:ndjsontosvg="https://github.com/thompson318/ndjsontosvg"
	xmlns:quickdraw="https://quickdraw.withgoogle.com/data"
	xmlns:scikit-surgery="https://doi.org/10.1007/s11548-020-02180-5">

	<rect width="100%" height="100%" fill="black" />
	<path d = "M 93.75 82.03 L 103.12 7.03 L 133.59 67.97 L 236.72 75.00 L 278.91 11.72 L 290.62 0.00 L 302.34 0.00 L 321.09 49.22 L 325.78 135.94 L 311.72 185.16 L 281.25 220.31 L 234.38 248.44 L 194.53 262.50 L 168.75 262.50 L 128.91 250.78 L 93.75 220.31 L 77.34 192.19 L 70.31 145.31 L 77.34 93.75" stroke="white" fill="transparent"/>
	<path d = "M 75.00 220.31 L 25.78 276.56 L 4.69 332.81 L 2.34 398.44 L 14.06 450.00 L 44.53 513.28 L 72.66 555.47 L 117.19 597.66" stroke="white" fill="transparent"/>
	<path d = "M 290.62 227.34 L 318.75 278.91 L 328.12 337.50 L 321.09 421.88 L 304.69 471.09 L 269.53 525.00 L 246.09 548.44 L 187.50 581.25 L 135.94 588.28" stroke="white" fill="transparent"/>
	<path d = "M 63.28 309.38 L 70.31 377.34 L 84.38 375.00 L 126.56 339.84 L 154.69 370.31 L 173.44 377.34 L 217.97 353.91 L 262.50 360.94 L 276.56 353.91 L 285.94 337.50" stroke="white" fill="transparent"/>
	<path d = "M 114.84 435.94 L 119.53 445.31 L 133.59 447.66 L 154.69 438.28 L 189.84 457.03 L 220.31 428.91" stroke="white" fill="transparent"/>
	<path d = "M 145.31 114.84 L 145.31 114.84" stroke="white" fill="transparent"/>
	<path d = "M 243.75 128.91 L 243.75 128.91" stroke="white" fill="transparent"/>
</svg>