<?xml version="1.0" encoding="UTF-8" standalone="no"?>
<!--Created with ndjsontosvg (https:https://github.com/thompson318/ndjsontosvg) 
	from the simplified Google quickdraw data set. key_id = 5789069063749632-->
<svg width="600" height="600"
	xmlns="http://www.w3.org/2000/svg">
	xmlns:ndjsontosvg="https://github.com/thompson318/ndjsontosvg"
	xmlns:quickdraw="https://quickdraw.withgoogle.com/data"
	xmlns:scikit-surgery="https://doi.org/10.1007/s11548-020-02180-5">

	<rect width="100%" height="100%" fill="black" />
	<path d = "M 232.03 487.50 L 232.03 487.50" stroke="white" fill="transparent"/>
	<path d = "M 182.81 16.41 L 131.25 11.72 L 107.81 25.78 L 86.72 51.56 L 67.97 105.47 L 70.31 154.69 L 77.34 166.41 L 124.22 192.19 L 182.81 194.53 L 217.97 185.16 L 243.75 154.69 L 262.50 93.75 L 260.16 63.28 L 208.59 18.75 L 185.16 2.34 L 171.09 2.34" stroke="white" fill="transparent"/>
	<path d = "M 119.53 60.94 L 121.88 58.59" stroke="white" fill="transparent"/>
	<path d = "M 194.53 49.22 L 192.19 49.22" stroke="white" fill="transparent"/>
	<path d = "M 142.97 107.81 L 168.75 168.75 L 178.12 145.31 L 178.12 112.50" stroke="white" fill="transparent"/>
	<path d = "M 79.69 164.06 L 72.66 159.38 L 51.56 159.38 L 30.47 173.44 L 18.75 187.50 L 0.00 257.81 L 0.00 332.81 L 30.47 419.53 L 79.69 520.31 L 117.19 555.47 L 159.38 564.84 L 171.09 564.84 L 206.25 529.69 L 248.44 464.06 L 269.53 400.78 L 285.94 323.44 L 288.28 239.06 L 276.56 192.19 L 253.12 152.34" stroke="white" fill="transparent"/>
	<path d = "M 65.62 510.94 L 44.53 543.75 L 42.19 574.22 L 49.22 574.22 L 67.97 560.16 L 65.62 597.66 L 89.06 583.59 L 93.75 597.66 L 107.81 588.28 L 131.25 548.44" stroke="white" fill="transparent"/>
</svg>