<?xml version="1.0" encoding="UTF-8" standalone="no"?>
<!--Created with ndjsontosvg (https:https://github.com/thompson318/ndjsontosvg) 
	from the simplified Google quickdraw data set. key_id = 5591707150188544-->
<svg width="600" height="600"
	xmlns="http://www.w3.org/2000/svg">
	xmlns:ndjsontosvg="https://github.com/thompson318/ndjsontosvg"
	xmlns:quickdraw="https://quickdraw.withgoogle.com/data"
	xmlns:scikit-surgery="https://doi.org/10.1007/s11548-020-02180-5">

	<rect width="100%" height="100%" fill="black" />
	<path d = "M 281.25 597.66 L 70.31 592.97 L 2.34 578.91 L 4.69 407.81 L 28.12 222.66 L 39.84 208.59 L 60.94 199.22 L 236.72 185.16 L 271.88 185.16 L 278.91 192.19 L 304.69 278.91 L 314.06 328.12 L 314.06 440.62 L 297.66 571.88" stroke="white" fill="transparent"/>
	<path d = "M 269.53 203.91 L 227.34 234.38 L 175.78 246.09 L 107.81 246.09 L 56.25 234.38 L 28.12 220.31" stroke="white" fill="transparent"/>
	<path d = "M 25.78 189.84 L 39.84 128.91 L 72.66 58.59 L 119.53 18.75 L 159.38 2.34 L 182.81 0.00 L 199.22 4.69 L 229.69 23.44 L 260.16 63.28 L 285.94 138.28 L 297.66 199.22" stroke="white" fill="transparent"/>
	<path d = "M 264.84 178.12 L 262.50 131.25 L 243.75 93.75 L 196.88 53.91 L 159.38 51.56 L 131.25 58.59 L 75.00 105.47 L 46.88 152.34 L 32.81 213.28" stroke="white" fill="transparent"/>
	<path d = "M 234.38 187.50 L 178.12 208.59" stroke="white" fill="transparent"/>
</svg>