<?xml version="1.0" encoding="UTF-8" standalone="no"?>
<!--Created with ndjsontosvg (https:https://github.com/thompson318/ndjsontosvg) 
	from the simplified Google quickdraw data set. key_id = 6604385863860224-->
<svg width="600" height="600"
	xmlns="http://www.w3.org/2000/svg">
	xmlns:ndjsontosvg="https://github.com/thompson318/ndjsontosvg"
	xmlns:quickdraw="https://quickdraw.withgoogle.com/data"
	xmlns:scikit-surgery="https://doi.org/10.1007/s11548-020-02180-5">

	<rect width="100%" height="100%" fill="black" />
	<path d = "M 42.19 239.06 L 35.16 295.31 L 16.41 356.25 L 14.06 389.06 L 14.06 487.50 L 28.12 525.00 L 60.94 560.16 L 126.56 585.94 L 220.31 597.66 L 253.12 578.91 L 276.56 536.72 L 285.94 492.19 L 290.62 236.72 L 210.94 208.59 L 91.41 203.91" stroke="white" fill="transparent"/>
	<path d = "M 0.00 375.00 L 14.06 384.38 L 49.22 384.38 L 91.41 398.44 L 124.22 398.44 L 161.72 386.72 L 180.47 386.72 L 196.88 398.44 L 262.50 391.41 L 300.00 410.16" stroke="white" fill="transparent"/>
	<path d = "M 316.41 9.38 L 213.28 140.62 L 175.78 206.25 L 321.09 255.47 L 337.50 264.84 L 337.50 234.38 L 351.56 189.84 L 389.06 119.53 L 417.19 82.03 L 485.16 21.09 L 468.75 14.06 L 349.22 0.00" stroke="white" fill="transparent"/>
	<path d = "M 232.03 112.50 L 248.44 121.88 L 248.44 135.94 L 262.50 150.00 L 295.31 140.62 L 297.66 161.72 L 328.12 178.12 L 375.00 178.12 L 382.03 182.81" stroke="white" fill="transparent"/>
</svg>