<?xml version="1.0" encoding="UTF-8" standalone="no"?>
<!--Created with ndjsontosvg (https:https://github.com/thompson318/ndjsontosvg) 
	from the simplified Google quickdraw data set. key_id = 4712769678999552-->
<svg width="600" height="600"
	xmlns="http://www.w3.org/2000/svg">
	xmlns:ndjsontosvg="https://github.com/thompson318/ndjsontosvg"
	xmlns:quickdraw="https://quickdraw.withgoogle.com/data"
	xmlns:scikit-surgery="https://doi.org/10.1007/s11548-020-02180-5">

	<rect width="100%" height="100%" fill="black" />
	<path d = "M 239.06 138.28 L 107.81 150.00 L 25.78 185.16 L 23.44 199.22 L 28.12 208.59 L 72.66 220.31 L 135.94 217.97 L 269.53 194.53 L 302.34 180.47 L 311.72 161.72 L 269.53 145.31 L 234.38 142.97" stroke="white" fill="transparent"/>
	<path d = "M 309.38 138.28 L 271.88 131.25 L 145.31 128.91 L 77.34 142.97 L 39.84 157.03 L 18.75 175.78 L 7.03 199.22 L 9.38 215.62 L 35.16 232.03 L 75.00 236.72 L 206.25 236.72 L 253.12 227.34 L 309.38 199.22 L 328.12 178.12 L 332.81 147.66 L 302.34 131.25" stroke="white" fill="transparent"/>
	<path d = "M 11.72 215.62 L 16.41 128.91 L 39.84 58.59 L 77.34 18.75 L 131.25 2.34 L 215.62 0.00 L 241.41 9.38 L 262.50 28.12 L 307.03 93.75 L 318.75 178.12" stroke="white" fill="transparent"/>
	<path d = "M 0.00 213.28 L 4.69 227.34 L 4.69 403.12 L 16.41 578.91 L 56.25 595.31 L 192.19 597.66 L 292.97 567.19 L 318.75 391.41 L 337.50 314.06 L 339.84 178.12" stroke="white" fill="transparent"/>
</svg>