<?xml version="1.0" encoding="UTF-8" standalone="no"?>
<!--Created with ndjsontosvg (https:https://github.com/thompson318/ndjsontosvg) 
	from the simplified Google quickdraw data set. key_id = 4575871635554304-->
<svg width="600" height="600"
	xmlns="http://www.w3.org/2000/svg">
	xmlns:ndjsontosvg="https://github.com/thompson318/ndjsontosvg"
	xmlns:quickdraw="https://quickdraw.withgoogle.com/data"
	xmlns:scikit-surgery="https://doi.org/10.1007/s11548-020-02180-5">

	<rect width="100%" height="100%" fill="black" />
	<path d = "M 65.62 142.97 L 79.69 196.88 L 79.69 328.12 L 65.62 445.31 L 42.19 517.97 L 37.50 581.25 L 49.22 595.31 L 100.78 592.97 L 110.16 571.88 L 131.25 377.34 L 126.56 276.56 L 98.44 133.59 L 82.03 124.22 L 67.97 126.56 L 53.91 159.38" stroke="white" fill="transparent"/>
	<path d = "M 2.34 49.22 L 91.41 147.66" stroke="white" fill="transparent"/>
	<path d = "M 23.44 53.91 L 37.50 72.66 L 58.59 131.25" stroke="white" fill="transparent"/>
	<path d = "M 2.34 44.53 L 56.25 140.62" stroke="white" fill="transparent"/>
	<path d = "M 2.34 67.97 L 30.47 138.28" stroke="white" fill="transparent"/>
	<path d = "M 0.00 77.34 L 67.97 159.38 L 60.94 142.97" stroke="white" fill="transparent"/>
	<path d = "M 9.38 63.28 L 32.81 86.72 L 56.25 145.31 L 56.25 117.19" stroke="white" fill="transparent"/>
	<path d = "M 58.59 46.88 L 77.34 124.22 L 63.28 63.28" stroke="white" fill="transparent"/>
	<path d = "M 46.88 0.00 L 72.66 84.38 L 72.66 91.41 L 51.56 67.97" stroke="white" fill="transparent"/>
	<path d = "M 28.12 23.44 L 49.22 89.06" stroke="white" fill="transparent"/>
	<path d = "M 39.84 37.50 L 70.31 133.59 L 67.97 91.41" stroke="white" fill="transparent"/>
	<path d = "M 75.00 25.78 L 86.72 46.88 L 91.41 107.81" stroke="white" fill="transparent"/>
	<path d = "M 89.06 46.88 L 100.78 126.56" stroke="white" fill="transparent"/>
	<path d = "M 107.81 67.97 L 110.16 100.78 L 98.44 145.31" stroke="white" fill="transparent"/>
</svg>