<?xml version="1.0" encoding="UTF-8" standalone="no"?>
<!--Created with ndjsontosvg (https:https://github.com/thompson318/ndjsontosvg) 
	from the simplified Google quickdraw data set. key_id = 5167523647455232-->
<svg width="600" height="600"
	xmlns="http://www.w3.org/2000/svg">
	xmlns:ndjsontosvg="https://github.com/thompson318/ndjsontosvg"
	xmlns:quickdraw="https://quickdraw.withgoogle.com/data"
	xmlns:scikit-surgery="https://doi.org/10.1007/s11548-020-02180-5">

	<rect width="100%" height="100%" fill="black" />
	<path d = "M 128.91 382.03 L 157.03 342.19 L 208.59 217.97 L 269.53 119.53 L 396.09 18.75 L 431.25 2.34 L 450.00 2.34 L 454.69 14.06 L 426.56 72.66 L 358.59 187.50 L 262.50 288.28 L 208.59 393.75 L 199.22 396.09" stroke="white" fill="transparent"/>
	<path d = "M 128.91 370.31 L 84.38 353.91 L 63.28 370.31 L 35.16 410.16 L 46.88 503.91 L 35.16 546.09 L 0.00 597.66 L 46.88 576.56 L 91.41 541.41 L 119.53 496.88 L 126.56 471.09 L 196.88 398.44 L 196.88 384.38" stroke="white" fill="transparent"/>
	<path d = "M 91.41 386.72 L 65.62 435.94" stroke="white" fill="transparent"/>
	<path d = "M 150.00 370.31 L 140.62 393.75 L 110.16 435.94" stroke="white" fill="transparent"/>
	<path d = "M 180.47 389.06 L 173.44 417.19 L 150.00 445.31" stroke="white" fill="transparent"/>
	<path d = "M 51.56 480.47 L 82.03 464.06 L 117.19 482.81" stroke="white" fill="transparent"/>
	<path d = "M 72.66 501.56 L 39.84 555.47 L 75.00 492.19 L 77.34 480.47 L 65.62 494.53 L 42.19 560.16 L 89.06 482.81 L 56.25 546.09 L 100.78 487.50 L 60.94 550.78 L 105.47 496.88 L 60.94 548.44 L 86.72 506.25 L 35.16 590.62 L 70.31 534.38 L 39.84 571.88 L 44.53 562.50 L 35.16 571.88 L 37.50 555.47" stroke="white" fill="transparent"/>
	<path d = "M 60.94 475.78 L 58.59 482.81" stroke="white" fill="transparent"/>
</svg>