<?xml version="1.0" encoding="UTF-8" standalone="no"?>
<!--Created with ndjsontosvg (https:https://github.com/thompson318/ndjsontosvg) 
	from the simplified Google quickdraw data set. key_id = 6490210147762176-->
<svg width="600" height="600"
	xmlns="http://www.w3.org/2000/svg">
	xmlns:ndjsontosvg="https://github.com/thompson318/ndjsontosvg"
	xmlns:quickdraw="https://quickdraw.withgoogle.com/data"
	xmlns:scikit-surgery="https://doi.org/10.1007/s11548-020-02180-5">

	<rect width="100%" height="100%" fill="black" />
	<path d = "M 75.00 557.81 L 70.31 339.84 L 75.00 262.50 L 84.38 248.44" stroke="white" fill="transparent"/>
	<path d = "M 121.88 253.12 L 121.88 351.56 L 100.78 555.47" stroke="white" fill="transparent"/>
	<path d = "M 82.03 243.75 L 53.91 215.62 L 49.22 171.09 L 72.66 121.88 L 93.75 107.81 L 117.19 112.50 L 142.97 128.91 L 157.03 147.66 L 164.06 182.81 L 150.00 206.25 L 105.47 255.47" stroke="white" fill="transparent"/>
	<path d = "M 100.78 140.62 L 70.31 201.56 L 117.19 131.25" stroke="white" fill="transparent"/>
	<path d = "M 119.53 124.22 L 91.41 140.62 L 72.66 168.75 L 82.03 138.28 L 79.69 131.25 L 67.97 133.59 L 96.09 121.88 L 79.69 138.28 L 89.06 121.88" stroke="white" fill="transparent"/>
	<path d = "M 89.06 121.88 L 93.75 142.97 L 110.16 150.00 L 124.22 166.41 L 98.44 239.06 L 96.09 201.56 L 103.12 187.50" stroke="white" fill="transparent"/>
	<path d = "M 103.12 185.16 L 35.16 171.09 L 53.91 154.69 L 60.94 98.44 L 53.91 103.12 L 70.31 84.38 L 72.66 91.41 L 103.12 75.00 L 107.81 89.06 L 124.22 86.72 L 140.62 100.78 L 164.06 100.78 L 161.72 187.50 L 140.62 210.94 L 93.75 241.41 L 75.00 260.16 L 84.38 145.31 L 70.31 150.00 L 60.94 168.75 L 60.94 72.66 L 112.50 2.34 L 138.28 0.00 L 126.56 44.53 L 138.28 56.25 L 140.62 96.09 L 159.38 131.25 L 159.38 175.78 L 140.62 208.59 L 128.91 180.47" stroke="white" fill="transparent"/>
	<path d = "M 121.88 150.00 L 121.88 131.25 L 119.53 150.00 L 150.00 89.06 L 107.81 194.53 L 107.81 4.69 L 100.78 16.41 L 96.09 44.53 L 112.50 9.38 L 86.72 67.97 L 25.78 178.12 L 0.00 213.28 L 121.88 96.09 L 89.06 187.50 L 145.31 112.50 L 110.16 201.56 L 161.72 138.28 L 112.50 203.91 L 110.16 178.12 L 79.69 222.66 L 75.00 217.97" stroke="white" fill="transparent"/>
	<path d = "M 70.31 222.66 L 49.22 253.12 L 42.19 346.88 L 25.78 431.25 L 23.44 529.69 L 32.81 590.62 L 39.84 597.66 L 150.00 597.66 L 210.94 590.62 L 208.59 525.00 L 180.47 428.91" stroke="white" fill="transparent"/>
</svg>