<?xml version="1.0" encoding="UTF-8" standalone="no"?>
<!--Created with ndjsontosvg (https:https://github.com/thompson318/ndjsontosvg) 
	from the simplified Google quickdraw data set. key_id = 5260299194073088-->
<svg width="600" height="600"
	xmlns="http://www.w3.org/2000/svg">
	xmlns:ndjsontosvg="https://github.com/thompson318/ndjsontosvg"
	xmlns:quickdraw="https://quickdraw.withgoogle.com/data"
	xmlns:scikit-surgery="https://doi.org/10.1007/s11548-020-02180-5">

	<rect width="100%" height="100%" fill="black" />
	<path d = "M 154.69 314.06 L 159.38 344.53 L 159.38 539.06 L 150.00 569.53 L 112.50 597.66 L 93.75 581.25 L 82.03 412.50 L 84.38 281.25 L 103.12 262.50 L 112.50 260.16 L 124.22 271.88 L 140.62 297.66 L 140.62 332.81" stroke="white" fill="transparent"/>
	<path d = "M 140.62 325.78 L 138.28 255.47 L 147.66 213.28 L 124.22 199.22 L 56.25 196.88 L 51.56 220.31 L 65.62 372.66" stroke="white" fill="transparent"/>
	<path d = "M 124.22 215.62 L 117.19 140.62 L 86.72 39.84" stroke="white" fill="transparent"/>
	<path d = "M 93.75 236.72 L 103.12 210.94 L 103.12 182.81 L 70.31 49.22" stroke="white" fill="transparent"/>
	<path d = "M 140.62 229.69 L 147.66 194.53 L 140.62 107.81 L 84.38 0.00" stroke="white" fill="transparent"/>
	<path d = "M 93.75 196.88 L 105.47 178.12 L 110.16 114.84 L 105.47 77.34 L 82.03 35.16" stroke="white" fill="transparent"/>
	<path d = "M 32.81 178.12 L 46.88 166.41 L 46.88 110.16" stroke="white" fill="transparent"/>
	<path d = "M 35.16 161.72 L 39.84 117.19 L 28.12 84.38 L 0.00 37.50" stroke="white" fill="transparent"/>
	<path d = "M 384.38 332.81 L 358.59 330.47 L 328.12 363.28 L 309.38 412.50 L 311.72 428.91 L 318.75 440.62 L 365.62 440.62 L 389.06 410.16 L 393.75 316.41 L 375.00 302.34 L 346.88 297.66" stroke="white" fill="transparent"/>
	<path d = "M 412.50 398.44 L 431.25 384.38 L 468.75 325.78 L 485.16 271.88 L 487.50 187.50 L 454.69 110.16 L 407.81 63.28 L 325.78 35.16 L 225.00 37.50 L 194.53 51.56 L 175.78 79.69 L 159.38 267.19 L 161.72 382.03 L 182.81 435.94 L 239.06 492.19 L 285.94 510.94 L 353.91 513.28 L 379.69 503.91 L 426.56 464.06 L 464.06 405.47 L 475.78 372.66 L 475.78 276.56 L 454.69 253.12" stroke="white" fill="transparent"/>
	<path d = "M 290.62 96.09 L 243.75 98.44 L 229.69 112.50 L 229.69 126.56" stroke="white" fill="transparent"/>
</svg>