<?xml version="1.0" encoding="UTF-8" standalone="no"?>
<!--Created with ndjsontosvg (https:https://github.com/thompson318/ndjsontosvg) 
	from the simplified Google quickdraw data set. key_id = 5527497909207040-->
<svg width="600" height="600"
	xmlns="http://www.w3.org/2000/svg">
	xmlns:ndjsontosvg="https://github.com/thompson318/ndjsontosvg"
	xmlns:quickdraw="https://quickdraw.withgoogle.com/data"
	xmlns:scikit-surgery="https://doi.org/10.1007/s11548-020-02180-5">

	<rect width="100%" height="100%" fill="black" />
	<path d = "M 0.00 121.88 L 16.41 548.44 L 30.47 597.66" stroke="white" fill="transparent"/>
	<path d = "M 53.91 555.47 L 128.91 550.78 L 278.91 517.97 L 386.72 515.62 L 389.06 489.84 L 351.56 262.50 L 346.88 215.62 L 353.91 147.66 L 342.19 82.03" stroke="white" fill="transparent"/>
	<path d = "M 23.44 117.19 L 89.06 171.09 L 131.25 189.84 L 168.75 194.53 L 213.28 187.50 L 285.94 152.34 L 342.19 89.06" stroke="white" fill="transparent"/>
	<path d = "M 30.47 133.59 L 32.81 110.16 L 91.41 46.88 L 164.06 9.38 L 213.28 0.00 L 253.12 2.34 L 290.62 16.41 L 328.12 49.22 L 346.88 82.03" stroke="white" fill="transparent"/>
</svg>