<?xml version="1.0" encoding="UTF-8" standalone="no"?>
<!--Created with ndjsontosvg (https:https://github.com/thompson318/ndjsontosvg) 
	from the simplified Google quickdraw data set. key_id = 6505811817791488-->
<svg width="600" height="600"
	xmlns="http://www.w3.org/2000/svg">
	xmlns:ndjsontosvg="https://github.com/thompson318/ndjsontosvg"
	xmlns:quickdraw="https://quickdraw.withgoogle.com/data"
	xmlns:scikit-surgery="https://doi.org/10.1007/s11548-020-02180-5">

	<rect width="100%" height="100%" fill="black" />
	<path d = "M 14.06 232.03 L 21.09 248.44 L 21.09 353.91 L 11.72 539.06 L 0.00 595.31 L 16.41 597.66 L 100.78 578.91 L 274.22 585.94 L 285.94 576.56 L 292.97 508.59 L 292.97 175.78 L 79.69 210.94 L 23.44 227.34" stroke="white" fill="transparent"/>
	<path d = "M 44.53 239.06 L 39.84 93.75 L 49.22 53.91 L 65.62 32.81 L 112.50 7.03 L 145.31 0.00 L 201.56 0.00 L 234.38 23.44 L 253.12 60.94 L 271.88 178.12" stroke="white" fill="transparent"/>
	<path d = "M 44.53 206.25 L 53.91 194.53 L 105.47 166.41 L 133.59 159.38 L 213.28 159.38 L 260.16 168.75 L 267.19 178.12" stroke="white" fill="transparent"/>
</svg>