<?xml version="1.0" encoding="UTF-8" standalone="no"?>
<!--Created with ndjsontosvg (https:https://github.com/thompson318/ndjsontosvg) 
	from the simplified Google quickdraw data set. key_id = 5737498917470208-->
<svg width="600" height="600"
	xmlns="http://www.w3.org/2000/svg">
	xmlns:ndjsontosvg="https://github.com/thompson318/ndjsontosvg"
	xmlns:quickdraw="https://quickdraw.withgoogle.com/data"
	xmlns:scikit-surgery="https://doi.org/10.1007/s11548-020-02180-5">

	<rect width="100%" height="100%" fill="black" />
	<path d = "M 0.00 28.12 L 35.16 196.88 L 56.25 213.28 L 84.38 215.62 L 119.53 196.88 L 133.59 178.12 L 138.28 9.38" stroke="white" fill="transparent"/>
	<path d = "M 72.66 206.25 L 82.03 232.03 L 89.06 318.75 L 89.06 370.31 L 75.00 450.00 L 77.34 576.56 L 133.59 597.66 L 121.88 461.72 L 126.56 292.97 L 110.16 208.59" stroke="white" fill="transparent"/>
	<path d = "M 58.59 171.09 L 63.28 105.47 L 51.56 46.88 L 39.84 23.44 L 35.16 32.81 L 32.81 189.84 L 32.81 100.78 L 21.09 37.50 L 35.16 11.72 L 56.25 196.88 L 67.97 140.62 L 67.97 53.91" stroke="white" fill="transparent"/>
	<path d = "M 72.66 30.47 L 75.00 154.69 L 82.03 157.03 L 98.44 140.62 L 117.19 63.28 L 96.09 175.78 L 93.75 232.03 L 105.47 203.91 L 114.84 70.31 L 114.84 121.88 L 128.91 96.09 L 140.62 0.00 L 114.84 121.88 L 84.38 194.53 L 91.41 51.56" stroke="white" fill="transparent"/>
</svg>