<?xml version="1.0" encoding="UTF-8" standalone="no"?>
<!--Created with ndjsontosvg (https:https://github.com/thompson318/ndjsontosvg) 
	from the simplified Google quickdraw data set. key_id = 5101665038368768-->
<svg width="600" height="600"
	xmlns="http://www.w3.org/2000/svg">
	xmlns:ndjsontosvg="https://github.com/thompson318/ndjsontosvg"
	xmlns:quickdraw="https://quickdraw.withgoogle.com/data"
	xmlns:scikit-surgery="https://doi.org/10.1007/s11548-020-02180-5">

	<rect width="100%" height="100%" fill="black" />
	<path d = "M 0.00 227.34 L 63.28 180.47 L 126.56 157.03 L 260.16 150.00 L 290.62 152.34 L 349.22 178.12 L 367.97 194.53 L 382.03 229.69 L 335.16 269.53 L 267.19 292.97 L 121.88 292.97 L 49.22 274.22 L 7.03 243.75 L 4.69 253.12 L 14.06 274.22 L 16.41 515.62 L 28.12 592.97 L 318.75 597.66 L 382.03 590.62 L 391.41 578.91 L 391.41 417.19 L 370.31 276.56 L 370.31 208.59 L 337.50 103.12 L 283.59 44.53 L 250.78 21.09 L 206.25 7.03 L 140.62 0.00 L 103.12 16.41 L 63.28 46.88 L 28.12 93.75 L 11.72 152.34 L 9.38 241.41 L 16.41 283.59" stroke="white" fill="transparent"/>
	<path d = "M 25.78 210.94 L 25.78 210.94" stroke="white" fill="transparent"/>
	<path d = "M 37.50 225.00 L 60.94 248.44 L 70.31 250.78 L 70.31 210.94 L 91.41 229.69 L 119.53 208.59 L 157.03 236.72 L 164.06 208.59 L 173.44 201.56 L 201.56 225.00 L 213.28 225.00 L 225.00 203.91 L 281.25 217.97 L 311.72 192.19 L 302.34 178.12 L 274.22 171.09 L 201.56 168.75 L 171.09 178.12 L 157.03 194.53 L 154.69 213.28 L 164.06 234.38 L 196.88 243.75 L 236.72 243.75 L 257.81 234.38 L 257.81 213.28 L 201.56 194.53 L 157.03 194.53 L 103.12 222.66 L 110.16 248.44 L 154.69 253.12 L 171.09 236.72 L 173.44 220.31 L 152.34 199.22 L 77.34 199.22 L 32.81 229.69 L 28.12 248.44 L 60.94 260.16 L 142.97 260.16 L 164.06 246.09 L 166.41 227.34 L 147.66 201.56 L 133.59 199.22 L 103.12 194.53 L 77.34 203.91 L 75.00 241.41 L 112.50 255.47 L 194.53 260.16 L 215.62 246.09 L 222.66 227.34 L 208.59 199.22 L 159.38 182.81 L 107.81 187.50 L 96.09 199.22 L 89.06 222.66 L 126.56 253.12 L 154.69 264.84 L 217.97 271.88 L 232.03 267.19 L 271.88 232.03 L 264.84 199.22 L 217.97 168.75 L 168.75 166.41 L 145.31 182.81" stroke="white" fill="transparent"/>
</svg>