<?xml version="1.0" encoding="UTF-8" standalone="no"?>
<!--Created with ndjsontosvg (https:https://github.com/thompson318/ndjsontosvg) 
	from the simplified Google quickdraw data set. key_id = 5760154039484416-->
<svg width="600" height="600"
	xmlns="http://www.w3.org/2000/svg">
	xmlns:ndjsontosvg="https://github.com/thompson318/ndjsontosvg"
	xmlns:quickdraw="https://quickdraw.withgoogle.com/data"
	xmlns:scikit-surgery="https://doi.org/10.1007/s11548-020-02180-5">

	<rect width="100%" height="100%" fill="black" />
	<path d = "M 267.19 138.28 L 262.50 239.06 L 234.38 382.03" stroke="white" fill="transparent"/>
	<path d = "M 304.69 140.62 L 307.03 243.75 L 316.41 323.44 L 349.22 398.44" stroke="white" fill="transparent"/>
	<path d = "M 269.53 131.25 L 246.09 58.59 L 180.47 21.09 L 21.09 16.41 L 2.34 37.50 L 0.00 56.25 L 103.12 58.59 L 171.09 72.66 L 225.00 93.75 L 292.97 152.34" stroke="white" fill="transparent"/>
	<path d = "M 283.59 133.59 L 290.62 89.06 L 307.03 58.59 L 379.69 7.03 L 428.91 0.00 L 379.69 46.88 L 328.12 142.97 L 335.16 124.22 L 360.94 98.44 L 438.28 84.38 L 480.47 86.72 L 532.03 100.78 L 571.88 117.19 L 595.31 133.59 L 478.12 133.59 L 435.94 150.00 L 321.09 175.78" stroke="white" fill="transparent"/>
	<path d = "M 290.62 147.66 L 255.47 140.62" stroke="white" fill="transparent"/>
</svg>