<?xml version="1.0" encoding="UTF-8" standalone="no"?>
<!--Created with ndjsontosvg (https:https://github.com/thompson318/ndjsontosvg) 
	from the simplified Google quickdraw data set. key_id = 4522247962230784-->
<svg width="600" height="600"
	xmlns="http://www.w3.org/2000/svg">
	xmlns:ndjsontosvg="https://github.com/thompson318/ndjsontosvg"
	xmlns:quickdraw="https://quickdraw.withgoogle.com/data"
	xmlns:scikit-surgery="https://doi.org/10.1007/s11548-020-02180-5">

	<rect width="100%" height="100%" fill="black" />
	<path d = "M 107.81 358.59 L 161.72 314.06 L 175.78 288.28 L 222.66 168.75 L 243.75 67.97" stroke="white" fill="transparent"/>
	<path d = "M 344.53 365.62 L 300.00 356.25 L 281.25 328.12 L 283.59 171.09 L 297.66 67.97" stroke="white" fill="transparent"/>
	<path d = "M 215.62 72.66 L 140.62 72.66 L 89.06 105.47 L 9.38 178.12" stroke="white" fill="transparent"/>
	<path d = "M 253.12 72.66 L 248.44 58.59 L 225.00 42.19 L 142.97 16.41 L 79.69 16.41 L 0.00 42.19" stroke="white" fill="transparent"/>
	<path d = "M 267.19 51.56 L 285.94 35.16 L 330.47 16.41 L 431.25 0.00 L 536.72 7.03 L 564.84 18.75 L 597.66 44.53" stroke="white" fill="transparent"/>
	<path d = "M 316.41 75.00 L 403.12 72.66 L 454.69 110.16 L 482.81 145.31" stroke="white" fill="transparent"/>
</svg>