<?xml version="1.0" encoding="UTF-8" standalone="no"?>
<!--Created with ndjsontosvg (https:https://github.com/thompson318/ndjsontosvg) 
	from the simplified Google quickdraw data set. key_id = 6164399435808768-->
<svg width="600" height="600"
	xmlns="http://www.w3.org/2000/svg">
	xmlns:ndjsontosvg="https://github.com/thompson318/ndjsontosvg"
	xmlns:quickdraw="https://quickdraw.withgoogle.com/data"
	xmlns:scikit-surgery="https://doi.org/10.1007/s11548-020-02180-5">

	<rect width="100%" height="100%" fill="black" />
	<path d = "M 91.41 597.66 L 117.19 466.41 L 112.50 154.69 L 105.47 152.34 L 60.94 194.53 L 46.88 187.50 L 44.53 161.72 L 56.25 138.28 L 82.03 112.50 L 121.88 93.75 L 25.78 86.72 L 11.72 79.69 L 0.00 65.62 L 44.53 35.16 L 110.16 18.75 L 192.19 30.47 L 213.28 51.56 L 208.59 30.47 L 227.34 11.72 L 292.97 0.00 L 419.53 30.47 L 454.69 53.91 L 461.72 67.97 L 461.72 91.41 L 452.34 98.44 L 396.09 93.75 L 363.28 79.69 L 297.66 98.44" stroke="white" fill="transparent"/>
</svg>