<?xml version="1.0" encoding="UTF-8" standalone="no"?>
<!--Created with ndjsontosvg (https:https://github.com/thompson318/ndjsontosvg) 
	from the simplified Google quickdraw data set. key_id = 6041389521436672-->
<svg width="600" height="600"
	xmlns="http://www.w3.org/2000/svg">
	xmlns:ndjsontosvg="https://github.com/thompson318/ndjsontosvg"
	xmlns:quickdraw="https://quickdraw.withgoogle.com/data"
	xmlns:scikit-surgery="https://doi.org/10.1007/s11548-020-02180-5">

	<rect width="100%" height="100%" fill="black" />
	<path d = "M 250.78 175.78 L 267.19 201.56 L 274.22 269.53 L 248.44 454.69" stroke="white" fill="transparent"/>
	<path d = "M 300.00 164.06 L 290.62 189.84 L 300.00 164.06 L 288.28 206.25 L 290.62 243.75 L 316.41 419.53 L 335.16 466.41 L 300.00 164.06 L 335.16 466.41" stroke="white" fill="transparent"/>
	<path d = "M 300.00 175.78 L 316.41 145.31 L 363.28 121.88 L 426.56 114.84 L 459.38 121.88 L 496.88 140.62 L 525.00 164.06 L 543.75 196.88 L 440.62 140.62 L 316.41 103.12 L 248.44 107.81 L 199.22 142.97 L 220.31 49.22 L 248.44 18.75 L 278.91 11.72 L 407.81 0.00 L 485.16 4.69 L 534.38 16.41 L 592.97 44.53 L 597.66 56.25 L 585.94 63.28 L 527.34 65.62 L 403.12 49.22 L 304.69 51.56 L 243.75 63.28 L 164.06 89.06 L 117.19 114.84 L 82.03 145.31 L 32.81 210.94 L 2.34 220.31 L 0.00 229.69 L 11.72 229.69 L 117.19 175.78 L 171.09 159.38 L 225.00 166.41 L 241.41 185.16 L 250.78 213.28" stroke="white" fill="transparent"/>
</svg>