<?xml version="1.0" encoding="UTF-8" standalone="no"?>
<!--Created with ndjsontosvg (https:https://github.com/thompson318/ndjsontosvg) 
	from the simplified Google quickdraw data set. key_id = 5993720367284224-->
<svg width="600" height="600"
	xmlns="http://www.w3.org/2000/svg">
	xmlns:ndjsontosvg="https://github.com/thompson318/ndjsontosvg"
	xmlns:quickdraw="https://quickdraw.withgoogle.com/data"
	xmlns:scikit-surgery="https://doi.org/10.1007/s11548-020-02180-5">

	<rect width="100%" height="100%" fill="black" />
	<path d = "M 283.59 201.56 L 264.84 377.34 L 262.50 562.50" stroke="white" fill="transparent"/>
	<path d = "M 377.34 220.31 L 344.53 513.28 L 342.19 520.31 L 339.84 515.62" stroke="white" fill="transparent"/>
	<path d = "M 367.97 225.00 L 403.12 236.72 L 442.97 269.53 L 464.06 274.22 L 494.53 257.81 L 496.88 239.06 L 487.50 220.31 L 464.06 201.56 L 405.47 187.50 L 412.50 173.44 L 557.81 206.25 L 595.31 196.88 L 588.28 166.41 L 532.03 138.28 L 471.09 135.94 L 405.47 154.69 L 440.62 114.84 L 466.41 103.12 L 555.47 124.22 L 585.94 119.53 L 597.66 107.81 L 590.62 77.34 L 546.09 60.94 L 464.06 53.91 L 417.19 70.31 L 405.47 93.75 L 358.59 32.81 L 309.38 9.38 L 288.28 14.06 L 271.88 39.84 L 278.91 65.62 L 297.66 86.72 L 346.88 107.81 L 344.53 112.50 L 304.69 112.50 L 225.00 86.72 L 152.34 84.38 L 128.91 93.75 L 128.91 112.50 L 194.53 145.31 L 283.59 150.00 L 302.34 140.62 L 304.69 135.94 L 288.28 131.25 L 208.59 154.69 L 114.84 161.72 L 63.28 180.47 L 53.91 194.53 L 63.28 206.25 L 89.06 213.28 L 166.41 217.97 L 239.06 203.91 L 311.72 171.09" stroke="white" fill="transparent"/>
	<path d = "M 292.97 117.19 L 229.69 96.09 L 199.22 75.00 L 185.16 39.84 L 201.56 7.03 L 213.28 0.00 L 232.03 4.69 L 264.84 28.12 L 300.00 67.97 L 307.03 103.12" stroke="white" fill="transparent"/>
	<path d = "M 187.50 126.56 L 4.69 98.44 L 0.00 103.12 L 23.44 128.91 L 58.59 150.00 L 103.12 161.72 L 194.53 164.06 L 283.59 152.34" stroke="white" fill="transparent"/>
</svg>