<?xml version="1.0" encoding="UTF-8" standalone="no"?>
<!--Created with ndjsontosvg (https:https://github.com/thompson318/ndjsontosvg) 
	from the simplified Google quickdraw data set. key_id = 6028670932090880-->
<svg width="600" height="600"
	xmlns="http://www.w3.org/2000/svg">
	xmlns:ndjsontosvg="https://github.com/thompson318/ndjsontosvg"
	xmlns:quickdraw="https://quickdraw.withgoogle.com/data"
	xmlns:scikit-surgery="https://doi.org/10.1007/s11548-020-02180-5">

	<rect width="100%" height="100%" fill="black" />
	<path d = "M 140.62 597.66 L 145.31 217.97" stroke="white" fill="transparent"/>
	<path d = "M 145.31 217.97 L 119.53 220.31 L 96.09 234.38 L 79.69 260.16 L 72.66 295.31 L 35.16 234.38 L 25.78 206.25 L 30.47 159.38 L 53.91 112.50 L 84.38 82.03 L 117.19 77.34 L 133.59 84.38 L 178.12 140.62 L 185.16 171.09 L 171.09 84.38 L 166.41 75.00 L 150.00 65.62 L 58.59 63.28 L 11.72 82.03 L 0.00 103.12 L 21.09 39.84 L 58.59 7.03 L 114.84 0.00 L 135.94 4.69 L 157.03 18.75 L 227.34 82.03 L 274.22 142.97 L 278.91 154.69 L 271.88 159.38 L 281.25 86.72 L 302.34 53.91 L 323.44 39.84 L 353.91 39.84 L 457.03 84.38 L 400.78 98.44 L 332.81 135.94 L 297.66 161.72 L 257.81 208.59 L 323.44 164.06 L 367.97 164.06 L 403.12 194.53 L 431.25 264.84 L 316.41 222.66 L 196.88 201.56 L 182.81 215.62 L 182.81 253.12 L 206.25 309.38 L 215.62 353.91 L 217.97 494.53 L 206.25 546.09" stroke="white" fill="transparent"/>
</svg>