<?xml version="1.0" encoding="UTF-8" standalone="no"?>
<!--Created with ndjsontosvg (https:https://github.com/thompson318/ndjsontosvg) 
	from the simplified Google quickdraw data set. key_id = 4944341543944192-->
<svg width="600" height="600"
	xmlns="http://www.w3.org/2000/svg">
	xmlns:ndjsontosvg="https://github.com/thompson318/ndjsontosvg"
	xmlns:quickdraw="https://quickdraw.withgoogle.com/data"
	xmlns:scikit-surgery="https://doi.org/10.1007/s11548-020-02180-5">

	<rect width="100%" height="100%" fill="black" />
	<path d = "M 203.91 225.00 L 194.53 281.25 L 199.22 536.72" stroke="white" fill="transparent"/>
	<path d = "M 304.69 225.00 L 304.69 225.00" stroke="white" fill="transparent"/>
	<path d = "M 304.69 225.00 L 297.66 246.09" stroke="white" fill="transparent"/>
	<path d = "M 295.31 250.78 L 295.31 557.81" stroke="white" fill="transparent"/>
	<path d = "M 302.34 236.72 L 311.72 208.59 L 353.91 166.41 L 410.16 147.66 L 442.97 152.34 L 475.78 171.09 L 536.72 227.34" stroke="white" fill="transparent"/>
	<path d = "M 206.25 229.69 L 206.25 213.28 L 152.34 168.75 L 121.88 154.69 L 79.69 152.34 L 32.81 180.47 L 9.38 208.59 L 0.00 234.38 L 0.00 243.75 L 9.38 248.44" stroke="white" fill="transparent"/>
	<path d = "M 248.44 203.91 L 250.78 185.16 L 276.56 145.31 L 318.75 117.19 L 379.69 86.72 L 482.81 84.38 L 555.47 100.78 L 597.66 121.88" stroke="white" fill="transparent"/>
	<path d = "M 243.75 210.94 L 246.09 173.44 L 234.38 150.00 L 199.22 98.44 L 164.06 72.66 L 128.91 60.94 L 51.56 67.97 L 14.06 100.78" stroke="white" fill="transparent"/>
	<path d = "M 257.81 178.12 L 250.78 135.94 L 271.88 96.09 L 300.00 60.94 L 360.94 16.41 L 440.62 0.00 L 520.31 2.34 L 567.19 14.06" stroke="white" fill="transparent"/>
</svg>