<?xml version="1.0" encoding="UTF-8" standalone="no"?>
<!--Created with ndjsontosvg (https:https://github.com/thompson318/ndjsontosvg) 
	from the simplified Google quickdraw data set. key_id = 4818844243722240-->
<svg width="600" height="600"
	xmlns="http://www.w3.org/2000/svg">
	xmlns:ndjsontosvg="https://github.com/thompson318/ndjsontosvg"
	xmlns:quickdraw="https://quickdraw.withgoogle.com/data"
	xmlns:scikit-surgery="https://doi.org/10.1007/s11548-020-02180-5">

	<rect width="100%" height="100%" fill="black" />
	<path d = "M 262.50 112.50 L 253.12 98.44 L 229.69 84.38 L 206.25 82.03 L 171.09 93.75 L 107.81 133.59 L 70.31 178.12 L 56.25 208.59 L 42.19 276.56 L 42.19 311.72 L 67.97 389.06 L 117.19 454.69 L 180.47 492.19 L 220.31 499.22 L 253.12 496.88 L 316.41 473.44 L 363.28 438.28 L 414.84 379.69 L 440.62 335.16 L 452.34 292.97 L 454.69 262.50 L 431.25 185.16 L 393.75 128.91 L 367.97 105.47 L 325.78 86.72 L 281.25 84.38" stroke="white" fill="transparent"/>
	<path d = "M 382.03 140.62 L 375.00 124.22 L 386.72 93.75 L 412.50 60.94 L 450.00 37.50 L 506.25 32.81 L 574.22 65.62 L 590.62 86.72 L 597.66 121.88 L 578.91 166.41 L 534.38 196.88 L 471.09 206.25" stroke="white" fill="transparent"/>
	<path d = "M 182.81 75.00 L 154.69 30.47 L 124.22 7.03 L 84.38 0.00 L 42.19 21.09 L 9.38 67.97 L 0.00 124.22 L 21.09 171.09 L 39.84 187.50 L 58.59 192.19" stroke="white" fill="transparent"/>
	<path d = "M 180.47 203.91 L 168.75 206.25 L 164.06 243.75 L 175.78 262.50 L 203.91 260.16 L 210.94 225.00 L 189.84 194.53" stroke="white" fill="transparent"/>
	<path d = "M 342.19 232.03 L 342.19 222.66 L 328.12 229.69 L 307.03 260.16 L 309.38 290.62 L 321.09 297.66 L 339.84 297.66 L 365.62 278.91 L 370.31 250.78 L 351.56 234.38" stroke="white" fill="transparent"/>
	<path d = "M 314.06 166.41 L 302.34 159.38 L 276.56 210.94 L 257.81 260.16 L 257.81 300.00 L 269.53 309.38 L 297.66 314.06 L 344.53 283.59 L 367.97 260.16 L 382.03 232.03 L 382.03 206.25 L 367.97 173.44 L 335.16 152.34 L 300.00 159.38 L 281.25 173.44 L 260.16 208.59 L 257.81 241.41 L 276.56 267.19 L 288.28 269.53 L 314.06 241.41 L 321.09 192.19 L 309.38 159.38 L 297.66 150.00 L 285.94 161.72 L 274.22 199.22" stroke="white" fill="transparent"/>
</svg>