<?xml version="1.0" encoding="UTF-8" standalone="no"?>
<!--Created with ndjsontosvg (https:https://github.com/thompson318/ndjsontosvg) 
	from the simplified Google quickdraw data set. key_id = 5172795988246528-->
<svg width="600" height="600"
	xmlns="http://www.w3.org/2000/svg">
	xmlns:ndjsontosvg="https://github.com/thompson318/ndjsontosvg"
	xmlns:quickdraw="https://quickdraw.withgoogle.com/data"
	xmlns:scikit-surgery="https://doi.org/10.1007/s11548-020-02180-5">

	<rect width="100%" height="100%" fill="black" />
	<path d = "M 297.66 142.97 L 203.91 147.66 L 142.97 168.75 L 77.34 203.91 L 21.09 248.44 L 0.00 316.41 L 4.69 421.88 L 23.44 445.31 L 44.53 466.41 L 243.75 578.91 L 311.72 597.66 L 379.69 597.66 L 454.69 571.88 L 494.53 546.09 L 525.00 522.66 L 576.56 435.94 L 590.62 389.06 L 590.62 323.44 L 574.22 281.25 L 520.31 201.56 L 464.06 161.72 L 428.91 142.97 L 307.03 112.50 L 215.62 112.50" stroke="white" fill="transparent"/>
	<path d = "M 421.88 147.66 L 421.88 107.81 L 396.09 44.53 L 396.09 21.09 L 414.84 7.03 L 450.00 0.00 L 536.72 0.00 L 553.12 18.75 L 571.88 72.66 L 571.88 173.44 L 557.81 222.66" stroke="white" fill="transparent"/>
	<path d = "M 154.69 142.97 L 140.62 89.06 L 110.16 46.88 L 28.12 46.88 L 11.72 53.91 L 11.72 133.59 L 44.53 187.50" stroke="white" fill="transparent"/>
	<path d = "M 180.47 239.06 L 150.00 271.88 L 147.66 307.03 L 154.69 330.47 L 173.44 339.84 L 194.53 328.12 L 206.25 292.97 L 203.91 234.38 L 187.50 234.38 L 168.75 250.78 L 154.69 267.19 L 147.66 302.34 L 166.41 307.03 L 182.81 297.66 L 196.88 255.47 L 189.84 260.16" stroke="white" fill="transparent"/>
	<path d = "M 403.12 246.09 L 391.41 281.25 L 391.41 318.75 L 428.91 314.06 L 426.56 260.16 L 407.81 250.78 L 391.41 278.91" stroke="white" fill="transparent"/>
</svg>