<?xml version="1.0" encoding="UTF-8" standalone="no"?>
<!--Created with ndjsontosvg (https:https://github.com/thompson318/ndjsontosvg) 
	from the simplified Google quickdraw data set. key_id = 6037717643165696-->
<svg width="600" height="600"
	xmlns="http://www.w3.org/2000/svg">
	xmlns:ndjsontosvg="https://github.com/thompson318/ndjsontosvg"
	xmlns:quickdraw="https://quickdraw.withgoogle.com/data"
	xmlns:scikit-surgery="https://doi.org/10.1007/s11548-020-02180-5">

	<rect width="100%" height="100%" fill="black" />
	<path d = "M 82.03 180.47 L 63.28 180.47 L 30.47 164.06 L 16.41 142.97 L 0.00 89.06 L 18.75 70.31 L 91.41 46.88 L 150.00 46.88 L 173.44 65.62 L 203.91 114.84 L 206.25 147.66 L 142.97 180.47 L 79.69 187.50 L 77.34 180.47" stroke="white" fill="transparent"/>
	<path d = "M 77.34 180.47 L 70.31 208.59 L 70.31 349.22 L 96.09 421.88 L 135.94 492.19 L 213.28 560.16 L 246.09 576.56 L 311.72 595.31 L 435.94 597.66 L 485.16 578.91 L 527.34 548.44 L 578.91 480.47 L 597.66 412.50 L 595.31 276.56 L 550.78 187.50 L 473.44 114.84 L 377.34 72.66 L 283.59 67.97 L 213.28 110.16 L 138.28 182.81 L 124.22 210.94" stroke="white" fill="transparent"/>
	<path d = "M 471.09 121.88 L 454.69 100.78 L 454.69 21.09 L 461.72 4.69 L 475.78 0.00 L 520.31 2.34 L 557.81 30.47 L 588.28 70.31 L 595.31 100.78 L 541.41 145.31 L 482.81 159.38 L 435.94 159.38 L 407.81 131.25" stroke="white" fill="transparent"/>
	<path d = "M 323.44 412.50 L 360.94 417.19 L 372.66 431.25 L 309.38 440.62 L 300.00 407.81 L 335.16 403.12 L 346.88 421.88 L 344.53 435.94 L 309.38 452.34 L 346.88 440.62 L 339.84 426.56 L 325.78 417.19 L 307.03 419.53 L 292.97 433.59 L 285.94 471.09 L 307.03 517.97 L 342.19 534.38 L 375.00 532.03 L 386.72 515.62 L 391.41 438.28 L 384.38 421.88 L 370.31 410.16 L 342.19 419.53 L 342.19 517.97" stroke="white" fill="transparent"/>
	<path d = "M 220.31 356.25 L 201.56 358.59 L 182.81 349.22 L 166.41 309.38 L 166.41 274.22 L 185.16 239.06 L 220.31 213.28 L 274.22 206.25 L 295.31 215.62 L 309.38 250.78 L 304.69 269.53 L 267.19 325.78 L 234.38 346.88 L 182.81 349.22 L 178.12 255.47 L 189.84 239.06 L 210.94 225.00 L 278.91 220.31 L 295.31 229.69 L 295.31 248.44 L 257.81 318.75 L 222.66 339.84 L 206.25 325.78 L 206.25 232.03 L 232.03 222.66 L 267.19 222.66 L 281.25 234.38 L 285.94 250.78 L 246.09 304.69 L 229.69 316.41 L 213.28 318.75 L 199.22 283.59 L 199.22 234.38 L 217.97 220.31 L 264.84 220.31 L 274.22 234.38 L 250.78 283.59 L 220.31 302.34 L 213.28 292.97" stroke="white" fill="transparent"/>
	<path d = "M 419.53 330.47 L 410.16 314.06 L 407.81 267.19 L 414.84 250.78 L 428.91 241.41 L 499.22 236.72 L 515.62 257.81 L 517.97 278.91 L 517.97 316.41 L 503.91 332.81 L 450.00 339.84 L 421.88 304.69 L 417.19 248.44" stroke="white" fill="transparent"/>
</svg>