<?xml version="1.0" encoding="UTF-8" standalone="no"?>
<!--Created with ndjsontosvg (https:https://github.com/thompson318/ndjsontosvg) 
	from the simplified Google quickdraw data set. key_id = 5782141805789184-->
<svg width="600" height="600"
	xmlns="http://www.w3.org/2000/svg">
	xmlns:ndjsontosvg="https://github.com/thompson318/ndjsontosvg"
	xmlns:quickdraw="https://quickdraw.withgoogle.com/data"
	xmlns:scikit-surgery="https://doi.org/10.1007/s11548-020-02180-5">

	<rect width="100%" height="100%" fill="black" />
	<path d = "M 11.72 0.00 L 4.69 16.41 L 0.00 227.34 L 0.00 435.94 L 23.44 503.91 L 70.31 574.22 L 114.84 597.66 L 133.59 597.66 L 178.12 569.53 L 236.72 457.03 L 281.25 257.81 L 285.94 133.59 L 281.25 107.81 L 248.44 70.31 L 234.38 58.59 L 215.62 58.59 L 199.22 77.34 L 128.91 199.22 L 105.47 250.78 L 105.47 316.41 L 124.22 363.28 L 154.69 377.34 L 175.78 342.19 L 199.22 269.53 L 203.91 217.97 L 199.22 164.06 L 180.47 164.06 L 175.78 175.78" stroke="white" fill="transparent"/>
</svg>