<?xml version="1.0" encoding="UTF-8" standalone="no"?>
<!--Created with ndjsontosvg (https:https://github.com/thompson318/ndjsontosvg) 
	from the simplified Google quickdraw data set. key_id = 6441822895210496-->
<svg width="600" height="600"
	xmlns="http://www.w3.org/2000/svg">
	xmlns:ndjsontosvg="https://github.com/thompson318/ndjsontosvg"
	xmlns:quickdraw="https://quickdraw.withgoogle.com/data"
	xmlns:scikit-surgery="https://doi.org/10.1007/s11548-020-02180-5">

	<rect width="100%" height="100%" fill="black" />
	<path d = "M 96.09 457.03 L 60.94 461.72 L 91.41 445.31 L 119.53 447.66 L 128.91 452.34 L 131.25 461.72 L 119.53 485.16 L 100.78 499.22 L 91.41 496.88 L 79.69 482.81 L 79.69 471.09 L 107.81 445.31 L 133.59 445.31 L 138.28 457.03 L 124.22 468.75 L 96.09 478.12 L 77.34 475.78 L 67.97 464.06 L 91.41 445.31 L 110.16 447.66 L 117.19 459.38 L 105.47 475.78 L 91.41 485.16 L 93.75 475.78 L 105.47 466.41 L 105.47 480.47 L 77.34 492.19 L 65.62 482.81 L 58.59 494.53" stroke="white" fill="transparent"/>
	<path d = "M 126.56 468.75 L 285.94 440.62" stroke="white" fill="transparent"/>
	<path d = "M 189.84 438.28 L 180.47 482.81 L 187.50 506.25 L 246.09 496.88 L 281.25 478.12 L 278.91 419.53 L 271.88 410.16 L 194.53 421.88" stroke="white" fill="transparent"/>
	<path d = "M 201.56 445.31 L 185.16 426.56 L 142.97 314.06 L 119.53 213.28" stroke="white" fill="transparent"/>
	<path d = "M 276.56 435.94 L 257.81 307.03 L 260.16 194.53 L 255.47 180.47" stroke="white" fill="transparent"/>
	<path d = "M 297.66 180.47 L 168.75 220.31 L 75.00 236.72 L 28.12 236.72 L 0.00 217.97 L 11.72 159.38 L 49.22 91.41 L 117.19 35.16 L 180.47 7.03 L 222.66 0.00 L 274.22 9.38 L 328.12 37.50 L 363.28 82.03 L 403.12 168.75 L 400.78 178.12 L 360.94 182.81 L 217.97 178.12" stroke="white" fill="transparent"/>
	<path d = "M 79.69 487.50 L 58.59 485.16 L 60.94 475.78 L 93.75 431.25 L 117.19 421.88 L 131.25 419.53 L 135.94 433.59 L 119.53 452.34 L 77.34 489.84 L 51.56 492.19" stroke="white" fill="transparent"/>
	<path d = "M 199.22 450.00 L 196.88 597.66" stroke="white" fill="transparent"/>
	<path d = "M 274.22 431.25 L 302.34 428.91" stroke="white" fill="transparent"/>
</svg>