<?xml version="1.0" encoding="UTF-8" standalone="no"?>
<!--Created with ndjsontosvg (https:https://github.com/thompson318/ndjsontosvg) 
	from the simplified Google quickdraw data set. key_id = 5898524396879872-->
<svg width="600" height="600"
	xmlns="http://www.w3.org/2000/svg">
	xmlns:ndjsontosvg="https://github.com/thompson318/ndjsontosvg"
	xmlns:quickdraw="https://quickdraw.withgoogle.com/data"
	xmlns:scikit-surgery="https://doi.org/10.1007/s11548-020-02180-5">

	<rect width="100%" height="100%" fill="black" />
	<path d = "M 0.00 128.91 L 7.03 107.81 L 46.88 70.31 L 86.72 44.53 L 157.03 14.06 L 253.12 0.00 L 349.22 4.69 L 424.22 23.44 L 513.28 82.03 L 595.31 166.41 L 597.66 178.12 L 590.62 185.16 L 550.78 194.53 L 464.06 199.22 L 135.94 187.50 L 58.59 168.75 L 14.06 119.53" stroke="white" fill="transparent"/>
	<path d = "M 255.47 189.84 L 253.12 227.34 L 260.16 243.75" stroke="white" fill="transparent"/>
	<path d = "M 372.66 189.84 L 342.19 241.41 L 300.00 229.69 L 257.81 246.09 L 250.78 264.84 L 262.50 283.59 L 292.97 300.00 L 325.78 300.00 L 344.53 292.97 L 356.25 274.22 L 351.56 248.44 L 337.50 229.69" stroke="white" fill="transparent"/>
	<path d = "M 307.03 276.56 L 302.34 318.75 L 337.50 358.59" stroke="white" fill="transparent"/>
	<path d = "M 311.72 314.06 L 290.62 332.81" stroke="white" fill="transparent"/>
	<path d = "M 323.44 311.72 L 365.62 304.69" stroke="white" fill="transparent"/>
	<path d = "M 300.00 309.38 L 248.44 292.97" stroke="white" fill="transparent"/>
	<path d = "M 285.94 257.81 L 290.62 248.44" stroke="white" fill="transparent"/>
	<path d = "M 328.12 257.81 L 325.78 255.47" stroke="white" fill="transparent"/>
	<path d = "M 281.25 271.88 L 302.34 285.94 L 339.84 278.91" stroke="white" fill="transparent"/>
	<path d = "M 70.31 126.56 L 131.25 93.75 L 175.78 96.09 L 236.72 77.34 L 267.19 84.38 L 360.94 77.34 L 412.50 98.44 L 501.56 100.78 L 548.44 124.22" stroke="white" fill="transparent"/>
	<path d = "M 121.88 157.03 L 192.19 135.94 L 210.94 138.28 L 232.03 154.69 L 253.12 157.03 L 353.91 135.94 L 367.97 142.97 L 382.03 166.41 L 398.44 173.44 L 492.19 159.38 L 571.88 164.06" stroke="white" fill="transparent"/>
</svg>