<?xml version="1.0" encoding="UTF-8" standalone="no"?>
<!--Created with ndjsontosvg (https:https://github.com/thompson318/ndjsontosvg) 
	from the simplified Google quickdraw data set. key_id = 4668912690003968-->
<svg width="600" height="600"
	xmlns="http://www.w3.org/2000/svg">
	xmlns:ndjsontosvg="https://github.com/thompson318/ndjsontosvg"
	xmlns:quickdraw="https://quickdraw.withgoogle.com/data"
	xmlns:scikit-surgery="https://doi.org/10.1007/s11548-020-02180-5">

	<rect width="100%" height="100%" fill="black" />
	<path d = "M 4.69 360.94 L 39.84 217.97 L 67.97 159.38 L 77.34 154.69" stroke="white" fill="transparent"/>
	<path d = "M 271.88 360.94 L 253.12 255.47 L 243.75 131.25" stroke="white" fill="transparent"/>
	<path d = "M 257.81 152.34 L 225.00 147.66 L 140.62 166.41 L 93.75 168.75 L 16.41 142.97 L 2.34 121.88 L 2.34 98.44 L 60.94 23.44 L 91.41 9.38 L 142.97 0.00 L 215.62 14.06 L 290.62 42.19 L 328.12 84.38 L 328.12 107.81 L 304.69 131.25 L 239.06 164.06" stroke="white" fill="transparent"/>
	<path d = "M 110.16 344.53 L 112.50 318.75 L 138.28 304.69 L 168.75 318.75 L 157.03 353.91 L 126.56 375.00 L 114.84 375.00 L 100.78 344.53" stroke="white" fill="transparent"/>
	<path d = "M 135.94 386.72 L 126.56 442.97 L 133.59 532.03" stroke="white" fill="transparent"/>
	<path d = "M 152.34 438.28 L 138.28 426.56 L 112.50 421.88 L 65.62 440.62" stroke="white" fill="transparent"/>
	<path d = "M 121.88 445.31 L 196.88 424.22" stroke="white" fill="transparent"/>
	<path d = "M 128.91 482.81 L 84.38 597.66" stroke="white" fill="transparent"/>
	<path d = "M 128.91 480.47 L 128.91 480.47" stroke="white" fill="transparent"/>
</svg>