<?xml version="1.0" encoding="UTF-8" standalone="no"?>
<!--Created with ndjsontosvg (https:https://github.com/thompson318/ndjsontosvg) 
	from the simplified Google quickdraw data set. key_id = 4997146438795264-->
<svg width="600" height="600"
	xmlns="http://www.w3.org/2000/svg">
	xmlns:ndjsontosvg="https://github.com/thompson318/ndjsontosvg"
	xmlns:quickdraw="https://quickdraw.withgoogle.com/data"
	xmlns:scikit-surgery="https://doi.org/10.1007/s11548-020-02180-5">

	<rect width="100%" height="100%" fill="black" />
	<path d = "M 65.62 178.12 L 82.03 187.50 L 133.59 285.94 L 196.88 452.34 L 203.91 485.16" stroke="white" fill="transparent"/>
	<path d = "M 232.03 168.75 L 241.41 503.91" stroke="white" fill="transparent"/>
	<path d = "M 330.47 180.47 L 304.69 489.84" stroke="white" fill="transparent"/>
	<path d = "M 454.69 192.19 L 421.88 262.50 L 356.25 447.66 L 330.47 487.50" stroke="white" fill="transparent"/>
	<path d = "M 63.28 189.84 L 30.47 182.81 L 9.38 168.75 L 0.00 150.00 L 0.00 133.59 L 16.41 103.12 L 100.78 35.16 L 152.34 7.03 L 194.53 0.00 L 309.38 7.03 L 386.72 21.09 L 501.56 63.28 L 550.78 98.44 L 567.19 121.88 L 597.66 199.22 L 578.91 229.69 L 539.06 239.06 L 503.91 229.69 L 468.75 182.81 L 457.03 220.31 L 431.25 234.38 L 410.16 234.38 L 379.69 222.66 L 337.50 182.81 L 283.59 213.28 L 262.50 217.97 L 246.09 213.28 L 229.69 185.16 L 227.34 157.03 L 217.97 182.81 L 194.53 196.88 L 159.38 208.59 L 110.16 210.94 L 53.91 178.12 L 35.16 140.62" stroke="white" fill="transparent"/>
</svg>