<?xml version="1.0" encoding="UTF-8" standalone="no"?>
<!--Created with ndjsontosvg (https:https://github.com/thompson318/ndjsontosvg) 
	from the simplified Google quickdraw data set. key_id = 4857501465968640-->
<svg width="600" height="600"
	xmlns="http://www.w3.org/2000/svg">
	xmlns:ndjsontosvg="https://github.com/thompson318/ndjsontosvg"
	xmlns:quickdraw="https://quickdraw.withgoogle.com/data"
	xmlns:scikit-surgery="https://doi.org/10.1007/s11548-020-02180-5">

	<rect width="100%" height="100%" fill="black" />
	<path d = "M 548.44 330.47 L 508.59 269.53 L 450.00 232.03 L 363.28 206.25 L 283.59 208.59 L 227.34 227.34 L 142.97 271.88 L 70.31 330.47" stroke="white" fill="transparent"/>
	<path d = "M 49.22 330.47 L 30.47 307.03 L 14.06 264.84 L 0.00 187.50 L 0.00 133.59 L 28.12 89.06 L 91.41 44.53 L 154.69 16.41 L 215.62 2.34 L 337.50 0.00 L 438.28 21.09 L 508.59 58.59 L 546.09 93.75 L 578.91 135.94 L 595.31 182.81 L 597.66 248.44 L 578.91 311.72 L 555.47 339.84" stroke="white" fill="transparent"/>
	<path d = "M 421.88 60.94 L 424.22 75.00 L 321.09 255.47" stroke="white" fill="transparent"/>
	<path d = "M 262.50 9.38 L 189.84 157.03 L 166.41 248.44" stroke="white" fill="transparent"/>
	<path d = "M 96.09 60.94 L 82.03 124.22 L 79.69 203.91" stroke="white" fill="transparent"/>
	<path d = "M 539.06 140.62 L 489.84 189.84 L 461.72 243.75" stroke="white" fill="transparent"/>
	<path d = "M 86.72 281.25 L 112.50 290.62 L 225.00 389.06 L 283.59 459.38 L 346.88 557.81" stroke="white" fill="transparent"/>
	<path d = "M 494.53 290.62 L 459.38 332.81 L 405.47 424.22 L 356.25 517.97 L 351.56 550.78" stroke="white" fill="transparent"/>
</svg>