<?xml version="1.0" encoding="UTF-8" standalone="no"?>
<!--Created with ndjsontosvg (https:https://github.com/thompson318/ndjsontosvg) 
	from the simplified Google quickdraw data set. key_id = 5245319732264960-->
<svg width="600" height="600"
	xmlns="http://www.w3.org/2000/svg">
	xmlns:ndjsontosvg="https://github.com/thompson318/ndjsontosvg"
	xmlns:quickdraw="https://quickdraw.withgoogle.com/data"
	xmlns:scikit-surgery="https://doi.org/10.1007/s11548-020-02180-5">

	<rect width="100%" height="100%" fill="black" />
	<path d = "M 79.69 222.66 L 121.88 330.47 L 178.12 564.84" stroke="white" fill="transparent"/>
	<path d = "M 180.47 597.66 L 257.81 426.56 L 290.62 379.69 L 386.72 292.97 L 503.91 241.41 L 517.97 227.34" stroke="white" fill="transparent"/>
	<path d = "M 194.53 529.69 L 189.84 522.66 L 180.47 323.44 L 187.50 295.31 L 234.38 229.69" stroke="white" fill="transparent"/>
	<path d = "M 39.84 264.84 L 114.84 215.62 L 164.06 194.53 L 269.53 185.16 L 337.50 196.88 L 457.03 232.03 L 527.34 276.56" stroke="white" fill="transparent"/>
	<path d = "M 25.78 285.94 L 11.72 260.16 L 0.00 194.53 L 35.16 119.53 L 65.62 77.34 L 124.22 35.16 L 150.00 23.44 L 281.25 0.00 L 337.50 0.00 L 431.25 60.94 L 471.09 105.47 L 506.25 208.59 L 520.31 332.81" stroke="white" fill="transparent"/>
</svg>