<?xml version="1.0" encoding="UTF-8" standalone="no"?>
<!--Created with ndjsontosvg (https:https://github.com/thompson318/ndjsontosvg) 
	from the simplified Google quickdraw data set. key_id = 5358542972256256-->
<svg width="600" height="600"
	xmlns="http://www.w3.org/2000/svg">
	xmlns:ndjsontosvg="https://github.com/thompson318/ndjsontosvg"
	xmlns:quickdraw="https://quickdraw.withgoogle.com/data"
	xmlns:scikit-surgery="https://doi.org/10.1007/s11548-020-02180-5">

	<rect width="100%" height="100%" fill="black" />
	<path d = "M 16.41 185.16 L 39.84 91.41 L 75.00 46.88 L 140.62 16.41 L 215.62 2.34 L 269.53 0.00 L 379.69 37.50 L 426.56 72.66 L 428.91 117.19 L 410.16 166.41 L 410.16 213.28 L 386.72 234.38" stroke="white" fill="transparent"/>
	<path d = "M 0.00 189.84 L 23.44 196.88 L 77.34 300.00 L 114.84 339.84 L 154.69 403.12 L 173.44 414.84" stroke="white" fill="transparent"/>
	<path d = "M 435.94 213.28 L 367.97 236.72 L 321.09 276.56 L 281.25 323.44 L 267.19 356.25 L 267.19 445.31 L 271.88 447.66" stroke="white" fill="transparent"/>
	<path d = "M 192.19 405.47 L 185.16 464.06 L 164.06 534.38 L 124.22 597.66" stroke="white" fill="transparent"/>
	<path d = "M 276.56 426.56 L 323.44 510.94 L 356.25 539.06" stroke="white" fill="transparent"/>
</svg>