<?xml version="1.0" encoding="UTF-8" standalone="no"?>
<!--Created with ndjsontosvg (https:https://github.com/thompson318/ndjsontosvg) 
	from the simplified Google quickdraw data set. key_id = 6662204864593920-->
<svg width="600" height="600"
	xmlns="http://www.w3.org/2000/svg">
	xmlns:ndjsontosvg="https://github.com/thompson318/ndjsontosvg"
	xmlns:quickdraw="https://quickdraw.withgoogle.com/data"
	xmlns:scikit-surgery="https://doi.org/10.1007/s11548-020-02180-5">

	<rect width="100%" height="100%" fill="black" />
	<path d = "M 128.91 105.47 L 119.53 103.12 L 65.62 124.22 L 23.44 173.44 L 0.00 267.19 L 51.56 208.59 L 79.69 189.84 L 126.56 171.09 L 161.72 171.09" stroke="white" fill="transparent"/>
	<path d = "M 16.41 250.78 L 16.41 239.06 L 39.84 192.19 L 91.41 152.34 L 124.22 145.31" stroke="white" fill="transparent"/>
	<path d = "M 133.59 105.47 L 128.91 93.75 L 131.25 67.97 L 140.62 42.19 L 159.38 18.75 L 213.28 0.00 L 246.09 4.69 L 260.16 14.06 L 283.59 46.88 L 292.97 82.03 L 292.97 283.59 L 302.34 330.47 L 323.44 384.38 L 360.94 417.19 L 400.78 435.94 L 452.34 438.28 L 536.72 424.22 L 501.56 499.22 L 466.41 548.44 L 417.19 585.94 L 372.66 595.31 L 318.75 597.66 L 253.12 585.94 L 199.22 562.50 L 180.47 548.44 L 154.69 515.62 L 131.25 445.31 L 126.56 349.22 L 147.66 208.59 L 140.62 180.47" stroke="white" fill="transparent"/>
	<path d = "M 161.72 215.62 L 173.44 213.28 L 213.28 239.06 L 304.69 407.81 L 356.25 473.44 L 323.44 492.19 L 290.62 494.53 L 300.00 515.62 L 278.91 520.31 L 246.09 557.81 L 208.59 560.16 L 185.16 555.47" stroke="white" fill="transparent"/>
	<path d = "M 182.81 351.56 L 189.84 445.31 L 222.66 510.94" stroke="white" fill="transparent"/>
	<path d = "M 215.62 365.62 L 255.47 487.50" stroke="white" fill="transparent"/>
	<path d = "M 189.84 82.03 L 180.47 84.38 L 171.09 75.00 L 173.44 60.94 L 185.16 53.91 L 192.19 67.97 L 185.16 79.69 L 178.12 70.31 L 189.84 72.66 L 187.50 79.69 L 182.81 75.00" stroke="white" fill="transparent"/>
</svg>