<?xml version="1.0" encoding="UTF-8" standalone="no"?>
<!--Created with ndjsontosvg (https:https://github.com/thompson318/ndjsontosvg) 
	from the simplified Google quickdraw data set. key_id = 6121150331486208-->
<svg width="600" height="600"
	xmlns="http://www.w3.org/2000/svg">
	xmlns:ndjsontosvg="https://github.com/thompson318/ndjsontosvg"
	xmlns:quickdraw="https://quickdraw.withgoogle.com/data"
	xmlns:scikit-surgery="https://doi.org/10.1007/s11548-020-02180-5">

	<rect width="100%" height="100%" fill="black" />
	<path d = "M 0.00 35.16 L 42.19 14.06 L 131.25 0.00 L 189.84 2.34 L 255.47 28.12 L 300.00 86.72 L 307.03 164.06 L 278.91 201.56 L 236.72 220.31 L 220.31 236.72 L 222.66 250.78 L 243.75 278.91 L 316.41 302.34 L 417.19 304.69 L 510.94 318.75 L 321.09 157.03 L 309.38 157.03" stroke="white" fill="transparent"/>
	<path d = "M 215.62 264.84 L 246.09 225.00 L 236.72 239.06 L 239.06 278.91 L 225.00 281.25 L 225.00 295.31 L 248.44 307.03 L 257.81 323.44 L 239.06 421.88 L 267.19 503.91 L 255.47 548.44 L 241.41 555.47 L 241.41 597.66" stroke="white" fill="transparent"/>
</svg>