<?xml version="1.0" encoding="UTF-8" standalone="no"?>
<!--Created with ndjsontosvg (https:https://github.com/thompson318/ndjsontosvg) 
	from the simplified Google quickdraw data set. key_id = 5149059805347840-->
<svg width="600" height="600"
	xmlns="http://www.w3.org/2000/svg">
	xmlns:ndjsontosvg="https://github.com/thompson318/ndjsontosvg"
	xmlns:quickdraw="https://quickdraw.withgoogle.com/data"
	xmlns:scikit-surgery="https://doi.org/10.1007/s11548-020-02180-5">

	<rect width="100%" height="100%" fill="black" />
	<path d = "M 119.53 14.06 L 124.22 7.03 L 112.50 0.00 L 77.34 2.34 L 32.81 42.19 L 0.00 107.81 L 0.00 157.03 L 14.06 164.06 L 35.16 164.06 L 63.28 147.66 L 105.47 86.72 L 128.91 28.12 L 128.91 2.34" stroke="white" fill="transparent"/>
	<path d = "M 121.88 65.62 L 208.59 318.75" stroke="white" fill="transparent"/>
	<path d = "M 82.03 128.91 L 39.84 213.28 L 37.50 283.59 L 16.41 405.47" stroke="white" fill="transparent"/>
	<path d = "M 128.91 164.06 L 121.88 178.12 L 124.22 194.53 L 147.66 215.62 L 150.00 227.34 L 145.31 281.25 L 152.34 297.66 L 164.06 300.00" stroke="white" fill="transparent"/>
	<path d = "M 105.47 175.78 L 105.47 232.03 L 145.31 271.88 L 147.66 302.34" stroke="white" fill="transparent"/>
	<path d = "M 79.69 217.97 L 77.34 274.22 L 112.50 307.03 L 124.22 328.12 L 117.19 377.34" stroke="white" fill="transparent"/>
	<path d = "M 203.91 309.38 L 192.19 365.62 L 117.19 431.25" stroke="white" fill="transparent"/>
	<path d = "M 9.38 398.44 L 9.38 431.25 L 32.81 457.03 L 82.03 471.09 L 112.50 471.09 L 142.97 461.72 L 159.38 442.97 L 182.81 382.03" stroke="white" fill="transparent"/>
	<path d = "M 70.31 447.66 L 30.47 592.97 L 37.50 597.66" stroke="white" fill="transparent"/>
	<path d = "M 147.66 447.66 L 154.69 492.19 L 154.69 595.31" stroke="white" fill="transparent"/>
	<path d = "M 157.03 157.03 L 278.91 98.44 L 396.09 65.62 L 433.59 65.62 L 438.28 75.00 L 377.34 117.19 L 363.28 135.94 L 452.34 119.53 L 450.00 131.25 L 365.62 199.22 L 353.91 217.97 L 365.62 217.97 L 356.25 232.03 L 292.97 276.56 L 285.94 285.94 L 304.69 283.59 L 166.41 353.91" stroke="white" fill="transparent"/>
</svg>