<?xml version="1.0" encoding="UTF-8" standalone="no"?>
<!--Created with ndjsontosvg (https:https://github.com/thompson318/ndjsontosvg) 
	from the simplified Google quickdraw data set. key_id = 5334082072346624-->
<svg width="600" height="600"
	xmlns="http://www.w3.org/2000/svg">
	xmlns:ndjsontosvg="https://github.com/thompson318/ndjsontosvg"
	xmlns:quickdraw="https://quickdraw.withgoogle.com/data"
	xmlns:scikit-surgery="https://doi.org/10.1007/s11548-020-02180-5">

	<rect width="100%" height="100%" fill="black" />
	<path d = "M 110.16 56.25 L 60.94 53.91 L 35.16 60.94 L 11.72 93.75 L 0.00 126.56 L 0.00 135.94 L 16.41 145.31 L 103.12 150.00" stroke="white" fill="transparent"/>
	<path d = "M 107.81 51.56 L 131.25 16.41 L 166.41 0.00 L 208.59 2.34 L 276.56 30.47 L 300.00 49.22 L 311.72 67.97 L 314.06 98.44 L 304.69 147.66" stroke="white" fill="transparent"/>
	<path d = "M 100.78 150.00 L 103.12 166.41 L 145.31 208.59 L 199.22 210.94" stroke="white" fill="transparent"/>
	<path d = "M 154.69 210.94 L 159.38 295.31 L 175.78 337.50 L 222.66 412.50 L 262.50 445.31 L 342.19 475.78 L 440.62 496.88 L 496.88 503.91 L 597.66 501.56" stroke="white" fill="transparent"/>
	<path d = "M 309.38 138.28 L 346.88 173.44 L 428.91 323.44 L 487.50 403.12 L 506.25 438.28 L 513.28 503.91" stroke="white" fill="transparent"/>
</svg>