<?xml version="1.0" encoding="UTF-8" standalone="no"?>
<!--Created with ndjsontosvg (https:https://github.com/thompson318/ndjsontosvg) 
	from the simplified Google quickdraw data set. key_id = 5396669803790336-->
<svg width="600" height="600"
	xmlns="http://www.w3.org/2000/svg">
	xmlns:ndjsontosvg="https://github.com/thompson318/ndjsontosvg"
	xmlns:quickdraw="https://quickdraw.withgoogle.com/data"
	xmlns:scikit-surgery="https://doi.org/10.1007/s11548-020-02180-5">

	<rect width="100%" height="100%" fill="black" />
	<path d = "M 2.34 39.84 L 4.69 100.78 L 46.88 372.66 L 56.25 543.75 L 72.66 581.25 L 103.12 597.66 L 225.00 555.47 L 328.12 543.75 L 482.81 543.75 L 489.84 534.38 L 471.09 482.81 L 445.31 363.28 L 400.78 11.72 L 9.38 0.00" stroke="white" fill="transparent"/>
	<path d = "M 239.06 119.53 L 217.97 124.22 L 171.09 185.16 L 161.72 210.94 L 161.72 239.06 L 215.62 274.22 L 264.84 274.22 L 288.28 257.81 L 302.34 227.34 L 304.69 185.16 L 267.19 114.84 L 250.78 107.81 L 243.75 112.50" stroke="white" fill="transparent"/>
	<path d = "M 201.56 201.56 L 225.00 187.50 L 241.41 192.19 L 234.38 243.75 L 241.41 274.22 L 248.44 283.59 L 269.53 281.25" stroke="white" fill="transparent"/>
	<path d = "M 203.91 185.16 L 227.34 150.00 L 243.75 140.62 L 262.50 138.28 L 292.97 150.00 L 295.31 171.09 L 281.25 201.56 L 276.56 243.75 L 283.59 281.25" stroke="white" fill="transparent"/>
</svg>