<?xml version="1.0" encoding="UTF-8" standalone="no"?>
<!--Created with ndjsontosvg (https:https://github.com/thompson318/ndjsontosvg) 
	from the simplified Google quickdraw data set. key_id = 6223573259649024-->
<svg width="600" height="600"
	xmlns="http://www.w3.org/2000/svg">
	xmlns:ndjsontosvg="https://github.com/thompson318/ndjsontosvg"
	xmlns:quickdraw="https://quickdraw.withgoogle.com/data"
	xmlns:scikit-surgery="https://doi.org/10.1007/s11548-020-02180-5">

	<rect width="100%" height="100%" fill="black" />
	<path d = "M 0.00 121.88 L 30.47 112.50 L 154.69 100.78 L 253.12 82.03 L 278.91 84.38 L 424.22 51.56 L 496.88 44.53 L 508.59 51.56 L 569.53 206.25 L 592.97 274.22 L 597.66 360.94 L 300.00 457.03 L 210.94 475.78 L 138.28 482.81 L 105.47 445.31 L 65.62 349.22 L 39.84 138.28" stroke="white" fill="transparent"/>
	<path d = "M 300.00 60.94 L 285.94 79.69 L 297.66 196.88 L 337.50 389.06 L 372.66 478.12" stroke="white" fill="transparent"/>
	<path d = "M 138.28 199.22 L 131.25 255.47 L 147.66 285.94 L 166.41 295.31 L 196.88 285.94 L 208.59 250.78 L 203.91 201.56 L 178.12 178.12 L 161.72 175.78 L 133.59 175.78 L 126.56 194.53" stroke="white" fill="transparent"/>
	<path d = "M 471.09 309.38 L 503.91 307.03 L 534.38 292.97 L 541.41 276.56 L 539.06 253.12 L 525.00 236.72 L 503.91 227.34 L 459.38 234.38 L 447.66 255.47 L 447.66 276.56 L 452.34 295.31 L 478.12 318.75" stroke="white" fill="transparent"/>
	<path d = "M 379.69 103.12 L 379.69 103.12" stroke="white" fill="transparent"/>
	<path d = "M 375.00 168.75 L 375.00 168.75" stroke="white" fill="transparent"/>
	<path d = "M 372.66 114.84 L 372.66 114.84" stroke="white" fill="transparent"/>
	<path d = "M 398.44 119.53 L 382.03 105.47" stroke="white" fill="transparent"/>
	<path d = "M 349.22 152.34 L 321.09 126.56" stroke="white" fill="transparent"/>
	<path d = "M 180.47 428.91 L 180.47 428.91" stroke="white" fill="transparent"/>
	<path d = "M 152.34 464.06 L 164.06 468.75" stroke="white" fill="transparent"/>
	<path d = "M 208.59 375.00 L 208.59 375.00" stroke="white" fill="transparent"/>
	<path d = "M 227.34 426.56 L 227.34 426.56" stroke="white" fill="transparent"/>
	<path d = "M 187.50 372.66 L 222.66 367.97 L 250.78 382.03" stroke="white" fill="transparent"/>
	<path d = "M 225.00 391.41 L 246.09 421.88" stroke="white" fill="transparent"/>
	<path d = "M 283.59 464.06 L 300.00 475.78" stroke="white" fill="transparent"/>
	<path d = "M 42.19 119.53 L 82.03 98.44" stroke="white" fill="transparent"/>
	<path d = "M 295.31 75.00 L 145.31 65.62" stroke="white" fill="transparent"/>
	<path d = "M 215.62 23.44 L 154.69 32.81 L 82.03 70.31" stroke="white" fill="transparent"/>
	<path d = "M 335.16 49.22 L 323.44 44.53 L 349.22 37.50 L 475.78 30.47" stroke="white" fill="transparent"/>
	<path d = "M 325.78 30.47 L 384.38 0.00" stroke="white" fill="transparent"/>
	<path d = "M 304.69 44.53 L 335.16 37.50 L 466.41 37.50" stroke="white" fill="transparent"/>
</svg>