<?xml version="1.0" encoding="UTF-8" standalone="no"?>
<!--Created with ndjsontosvg (https:https://github.com/thompson318/ndjsontosvg) 
	from the simplified Google quickdraw data set. key_id = 4662515071975424-->
<svg width="600" height="600"
	xmlns="http://www.w3.org/2000/svg">
	xmlns:ndjsontosvg="https://github.com/thompson318/ndjsontosvg"
	xmlns:quickdraw="https://quickdraw.withgoogle.com/data"
	xmlns:scikit-surgery="https://doi.org/10.1007/s11548-020-02180-5">

	<rect width="100%" height="100%" fill="black" />
	<path d = "M 307.03 32.81 L 412.50 0.00 L 522.66 0.00 L 550.78 7.03 L 576.56 107.81 L 592.97 213.28 L 597.66 332.81 L 588.28 438.28 L 513.28 442.97 L 302.34 419.53 L 300.00 171.09 L 288.28 23.44 L 150.00 2.34 L 93.75 2.34 L 14.06 18.75 L 7.03 32.81 L 0.00 107.81 L 0.00 459.38 L 229.69 445.31 L 314.06 431.25" stroke="white" fill="transparent"/>
	<path d = "M 239.06 60.94 L 234.38 142.97 L 246.09 342.19 L 103.12 342.19 L 91.41 332.81 L 75.00 194.53 L 75.00 58.59 L 154.69 42.19 L 220.31 42.19" stroke="white" fill="transparent"/>
</svg>