<?xml version="1.0" encoding="UTF-8" standalone="no"?>
<!--Created with ndjsontosvg (https:https://github.com/thompson318/ndjsontosvg) 
	from the simplified Google quickdraw data set. key_id = 6100892635889664-->
<svg width="600" height="600"
	xmlns="http://www.w3.org/2000/svg">
	xmlns:ndjsontosvg="https://github.com/thompson318/ndjsontosvg"
	xmlns:quickdraw="https://quickdraw.withgoogle.com/data"
	xmlns:scikit-surgery="https://doi.org/10.1007/s11548-020-02180-5">

	<rect width="100%" height="100%" fill="black" />
	<path d = "M 82.03 304.69 L 30.47 243.75 L 16.41 210.94 L 7.03 138.28 L 7.03 70.31 L 14.06 56.25 L 51.56 16.41 L 77.34 2.34 L 142.97 0.00 L 175.78 11.72 L 201.56 32.81 L 227.34 84.38 L 232.03 182.81 L 220.31 208.59 L 164.06 267.19 L 154.69 307.03 L 262.50 393.75 L 276.56 431.25 L 276.56 503.91 L 271.88 517.97 L 182.81 562.50 L 135.94 571.88 L 63.28 576.56" stroke="white" fill="transparent"/>
	<path d = "M 14.06 555.47 L 2.34 522.66 L 2.34 466.41 L 18.75 435.94 L 79.69 377.34 L 91.41 351.56 L 89.06 314.06 L 51.56 269.53" stroke="white" fill="transparent"/>
	<path d = "M 114.84 597.66 L 49.22 583.59 L 18.75 560.16" stroke="white" fill="transparent"/>
</svg>