<?xml version="1.0" encoding="UTF-8" standalone="no"?>
<!--Created with ndjsontosvg (https:https://github.com/thompson318/ndjsontosvg) 
	from the simplified Google quickdraw data set. key_id = 4509125729845248-->
<svg width="600" height="600"
	xmlns="http://www.w3.org/2000/svg">
	xmlns:ndjsontosvg="https://github.com/thompson318/ndjsontosvg"
	xmlns:quickdraw="https://quickdraw.withgoogle.com/data"
	xmlns:scikit-surgery="https://doi.org/10.1007/s11548-020-02180-5">

	<rect width="100%" height="100%" fill="black" />
	<path d = "M 107.81 283.59 L 46.88 227.34 L 25.78 185.16 L 0.00 75.00 L 11.72 42.19 L 53.91 23.44 L 157.03 0.00 L 194.53 14.06 L 227.34 60.94 L 239.06 124.22 L 236.72 166.41 L 199.22 318.75 L 189.84 389.06 L 196.88 445.31 L 243.75 520.31 L 257.81 562.50 L 255.47 574.22 L 243.75 588.28 L 220.31 592.97 L 142.97 592.97 L 98.44 564.84 L 53.91 503.91 L 44.53 478.12 L 44.53 412.50 L 63.28 379.69 L 105.47 346.88 L 112.50 332.81 L 114.84 283.59 L 89.06 239.06" stroke="white" fill="transparent"/>
</svg>