<?xml version="1.0" encoding="UTF-8" standalone="no"?>
<!--Created with ndjsontosvg (https:https://github.com/thompson318/ndjsontosvg) 
	from the simplified Google quickdraw data set. key_id = 6030186069884928-->
<svg width="600" height="600"
	xmlns="http://www.w3.org/2000/svg">
	xmlns:ndjsontosvg="https://github.com/thompson318/ndjsontosvg"
	xmlns:quickdraw="https://quickdraw.withgoogle.com/data"
	xmlns:scikit-surgery="https://doi.org/10.1007/s11548-020-02180-5">

	<rect width="100%" height="100%" fill="black" />
	<path d = "M 431.25 264.84 L 431.25 210.94 L 421.88 178.12 L 393.75 124.22 L 360.94 84.38 L 300.00 37.50 L 246.09 35.16 L 215.62 49.22 L 154.69 110.16 L 124.22 225.00 L 30.47 372.66 L 4.69 435.94 L 0.00 503.91 L 16.41 532.03 L 63.28 567.19 L 98.44 581.25 L 159.38 592.97 L 225.00 597.66 L 428.91 564.84 L 492.19 503.91 L 515.62 419.53 L 510.94 384.38 L 499.22 360.94 L 433.59 276.56 L 431.25 257.81" stroke="white" fill="transparent"/>
	<path d = "M 269.53 35.16 L 264.84 23.44 L 274.22 0.00" stroke="white" fill="transparent"/>
</svg>