<?xml version="1.0" encoding="UTF-8" standalone="no"?>
<!--Created with ndjsontosvg (https:https://github.com/thompson318/ndjsontosvg) 
	from the simplified Google quickdraw data set. key_id = 6185366623092736-->
<svg width="600" height="600"
	xmlns="http://www.w3.org/2000/svg">
	xmlns:ndjsontosvg="https://github.com/thompson318/ndjsontosvg"
	xmlns:quickdraw="https://quickdraw.withgoogle.com/data"
	xmlns:scikit-surgery="https://doi.org/10.1007/s11548-020-02180-5">

	<rect width="100%" height="100%" fill="black" />
	<path d = "M 49.22 32.81 L 70.31 16.41 L 161.72 0.00 L 215.62 4.69 L 290.62 23.44 L 300.00 37.50 L 314.06 182.81 L 297.66 281.25 L 328.12 330.47 L 382.03 365.62 L 393.75 379.69 L 398.44 428.91 L 384.38 473.44 L 318.75 557.81 L 276.56 576.56 L 164.06 597.66 L 131.25 595.31 L 35.16 548.44 L 0.00 510.94 L 7.03 447.66 L 32.81 382.03 L 53.91 356.25 L 75.00 342.19 L 18.75 215.62 L 14.06 128.91 L 23.44 91.41 L 65.62 44.53 L 110.16 18.75 L 147.66 7.03" stroke="white" fill="transparent"/>
</svg>