<?xml version="1.0" encoding="UTF-8" standalone="no"?>
<!--Created with ndjsontosvg (https:https://github.com/thompson318/ndjsontosvg) 
	from the simplified Google quickdraw data set. key_id = 5653038662418432-->
<svg width="600" height="600"
	xmlns="http://www.w3.org/2000/svg">
	xmlns:ndjsontosvg="https://github.com/thompson318/ndjsontosvg"
	xmlns:quickdraw="https://quickdraw.withgoogle.com/data"
	xmlns:scikit-surgery="https://doi.org/10.1007/s11548-020-02180-5">

	<rect width="100%" height="100%" fill="black" />
	<path d = "M 0.00 196.88 L 53.91 67.97 L 72.66 44.53 L 128.91 16.41 L 185.16 2.34 L 222.66 2.34 L 297.66 49.22 L 307.03 65.62 L 297.66 86.72 L 236.72 138.28 L 126.56 194.53 L 70.31 210.94 L 21.09 215.62 L 7.03 185.16" stroke="white" fill="transparent"/>
	<path d = "M 32.81 133.59 L 46.88 182.81 L 63.28 189.84 L 79.69 154.69 L 79.69 121.88 L 70.31 112.50 L 51.56 117.19 L 39.84 142.97" stroke="white" fill="transparent"/>
	<path d = "M 93.75 86.72 L 103.12 126.56 L 112.50 133.59 L 121.88 128.91 L 142.97 96.09 L 145.31 63.28 L 140.62 51.56 L 110.16 49.22 L 98.44 89.06" stroke="white" fill="transparent"/>
	<path d = "M 175.78 56.25 L 178.12 98.44 L 187.50 131.25 L 203.91 140.62 L 225.00 135.94 L 255.47 65.62 L 246.09 32.81 L 232.03 23.44 L 201.56 23.44 L 178.12 39.84 L 166.41 67.97" stroke="white" fill="transparent"/>
	<path d = "M 393.75 142.97 L 539.06 53.91 L 597.66 32.81 L 597.66 65.62 L 564.84 107.81 L 529.69 147.66 L 494.53 168.75 L 445.31 185.16 L 412.50 185.16 L 400.78 175.78 L 393.75 142.97" stroke="white" fill="transparent"/>
	<path d = "M 438.28 131.25 L 435.94 147.66 L 459.38 154.69 L 438.28 131.25" stroke="white" fill="transparent"/>
	<path d = "M 478.12 119.53 L 468.75 128.91 L 487.50 135.94 L 499.22 133.59 L 501.56 126.56 L 475.78 119.53" stroke="white" fill="transparent"/>
</svg>