<?xml version="1.0" encoding="UTF-8" standalone="no"?>
<!--Created with ndjsontosvg (https:https://github.com/thompson318/ndjsontosvg) 
	from the simplified Google quickdraw data set. key_id = 6252611533537280-->
<svg width="600" height="600"
	xmlns="http://www.w3.org/2000/svg">
	xmlns:ndjsontosvg="https://github.com/thompson318/ndjsontosvg"
	xmlns:quickdraw="https://quickdraw.withgoogle.com/data"
	xmlns:scikit-surgery="https://doi.org/10.1007/s11548-020-02180-5">

	<rect width="100%" height="100%" fill="black" />
	<path d = "M 166.41 56.25 L 51.56 23.44 L 51.56 75.00 L 60.94 100.78 L 199.22 103.12 L 213.28 79.69 L 194.53 51.56 L 152.34 32.81" stroke="white" fill="transparent"/>
	<path d = "M 508.59 37.50 L 503.91 79.69 L 527.34 105.47 L 571.88 114.84 L 597.66 96.09 L 597.66 37.50 L 588.28 11.72 L 550.78 0.00" stroke="white" fill="transparent"/>
	<path d = "M 412.50 232.03 L 384.38 222.66 L 360.94 250.78 L 389.06 269.53 L 414.84 257.81 L 426.56 232.03 L 403.12 222.66" stroke="white" fill="transparent"/>
	<path d = "M 180.47 213.28 L 98.44 213.28 L 16.41 246.09 L 0.00 269.53 L 51.56 278.91 L 152.34 264.84 L 232.03 241.41 L 206.25 217.97 L 79.69 213.28" stroke="white" fill="transparent"/>
</svg>