<?xml version="1.0" encoding="UTF-8" standalone="no"?>
<!--Created with ndjsontosvg (https:https://github.com/thompson318/ndjsontosvg) 
	from the simplified Google quickdraw data set. key_id = 5502866171101184-->
<svg width="600" height="600"
	xmlns="http://www.w3.org/2000/svg">
	xmlns:ndjsontosvg="https://github.com/thompson318/ndjsontosvg"
	xmlns:quickdraw="https://quickdraw.withgoogle.com/data"
	xmlns:scikit-surgery="https://doi.org/10.1007/s11548-020-02180-5">

	<rect width="100%" height="100%" fill="black" />
	<path d = "M 0.00 96.09 L 11.72 105.47 L 39.84 175.78 L 72.66 217.97 L 96.09 232.03 L 138.28 253.12 L 208.59 271.88 L 295.31 281.25 L 410.16 276.56 L 468.75 253.12 L 525.00 208.59 L 546.09 171.09 L 590.62 135.94 L 597.66 103.12 L 578.91 103.12" stroke="white" fill="transparent"/>
	<path d = "M 103.12 103.12 L 131.25 105.47 L 131.25 89.06 L 119.53 82.03" stroke="white" fill="transparent"/>
	<path d = "M 234.38 96.09 L 283.59 112.50 L 302.34 112.50 L 309.38 103.12 L 304.69 86.72 L 288.28 72.66 L 246.09 60.94" stroke="white" fill="transparent"/>
	<path d = "M 248.44 63.28 L 232.03 60.94 L 225.00 70.31 L 225.00 79.69 L 243.75 82.03" stroke="white" fill="transparent"/>
	<path d = "M 410.16 46.88 L 398.44 67.97 L 445.31 93.75 L 464.06 86.72 L 457.03 51.56 L 410.16 11.72 L 379.69 0.00 L 372.66 9.38 L 407.81 51.56" stroke="white" fill="transparent"/>
	<path d = "M 527.34 65.62 L 525.00 79.69 L 534.38 89.06 L 583.59 112.50 L 583.59 93.75 L 539.06 75.00 L 466.41 98.44" stroke="white" fill="transparent"/>
	<path d = "M 112.50 166.41 L 161.72 189.84 L 229.69 196.88 L 232.03 171.09 L 171.09 147.66 L 154.69 147.66" stroke="white" fill="transparent"/>
	<path d = "M 178.12 138.28 L 121.88 142.97 L 114.84 171.09" stroke="white" fill="transparent"/>
</svg>