<?xml version="1.0" encoding="UTF-8" standalone="no"?>
<!--Created with ndjsontosvg (https:https://github.com/thompson318/ndjsontosvg) 
	from the simplified Google quickdraw data set. key_id = 4985016092196864-->
<svg width="600" height="600"
	xmlns="http://www.w3.org/2000/svg">
	xmlns:ndjsontosvg="https://github.com/thompson318/ndjsontosvg"
	xmlns:quickdraw="https://quickdraw.withgoogle.com/data"
	xmlns:scikit-surgery="https://doi.org/10.1007/s11548-020-02180-5">

	<rect width="100%" height="100%" fill="black" />
	<path d = "M 21.09 44.53 L 121.88 58.59 L 321.09 60.94 L 489.84 35.16 L 597.66 0.00" stroke="white" fill="transparent"/>
	<path d = "M 588.28 9.38 L 585.94 39.84 L 564.84 75.00 L 539.06 96.09 L 438.28 121.88 L 367.97 131.25 L 82.03 133.59 L 42.19 126.56 L 16.41 112.50 L 0.00 89.06 L 0.00 63.28 L 14.06 37.50" stroke="white" fill="transparent"/>
	<path d = "M 39.84 53.91 L 28.12 58.59 L 21.09 84.38 L 21.09 110.16 L 30.47 121.88 L 60.94 133.59 L 89.06 131.25 L 117.19 112.50 L 140.62 84.38 L 142.97 70.31 L 119.53 51.56 L 56.25 51.56 L 49.22 58.59" stroke="white" fill="transparent"/>
	<path d = "M 166.41 70.31 L 154.69 96.09 L 164.06 121.88 L 208.59 117.19 L 227.34 98.44 L 225.00 75.00 L 168.75 60.94" stroke="white" fill="transparent"/>
	<path d = "M 246.09 60.94 L 246.09 107.81 L 285.94 124.22 L 297.66 121.88 L 318.75 100.78 L 323.44 86.72 L 311.72 72.66 L 292.97 67.97 L 264.84 72.66" stroke="white" fill="transparent"/>
	<path d = "M 353.91 65.62 L 342.19 100.78 L 365.62 114.84 L 407.81 107.81 L 428.91 91.41 L 433.59 79.69 L 426.56 65.62 L 386.72 53.91 L 370.31 58.59" stroke="white" fill="transparent"/>
	<path d = "M 459.38 56.25 L 466.41 84.38 L 508.59 91.41 L 532.03 77.34 L 534.38 49.22 L 520.31 39.84 L 487.50 35.16 L 471.09 37.50 L 454.69 51.56" stroke="white" fill="transparent"/>
</svg>