<?xml version="1.0" encoding="UTF-8" standalone="no"?>
<!--Created with ndjsontosvg (https:https://github.com/thompson318/ndjsontosvg) 
	from the simplified Google quickdraw data set. key_id = 5140111522004992-->
<svg width="600" height="600"
	xmlns="http://www.w3.org/2000/svg">
	xmlns:ndjsontosvg="https://github.com/thompson318/ndjsontosvg"
	xmlns:quickdraw="https://quickdraw.withgoogle.com/data"
	xmlns:scikit-surgery="https://doi.org/10.1007/s11548-020-02180-5">

	<rect width="100%" height="100%" fill="black" />
	<path d = "M 82.03 7.03 L 75.00 0.00 L 51.56 4.69 L 18.75 39.84 L 0.00 82.03 L 0.00 100.78 L 9.38 117.19 L 51.56 124.22 L 100.78 79.69 L 112.50 30.47 L 91.41 7.03 L 75.00 2.34" stroke="white" fill="transparent"/>
	<path d = "M 145.31 16.41 L 124.22 21.09 L 107.81 44.53 L 96.09 82.03 L 96.09 107.81 L 114.84 119.53 L 145.31 121.88 L 166.41 105.47 L 180.47 56.25 L 164.06 30.47 L 150.00 25.78" stroke="white" fill="transparent"/>
	<path d = "M 222.66 32.81 L 208.59 32.81 L 201.56 39.84 L 185.16 82.03 L 187.50 114.84 L 210.94 126.56 L 236.72 124.22 L 257.81 112.50 L 274.22 96.09 L 278.91 75.00 L 278.91 56.25 L 269.53 42.19 L 227.34 32.81" stroke="white" fill="transparent"/>
	<path d = "M 330.47 46.88 L 307.03 46.88 L 292.97 56.25 L 283.59 75.00 L 281.25 98.44 L 307.03 128.91 L 330.47 133.59 L 346.88 126.56 L 363.28 89.06 L 363.28 56.25 L 349.22 44.53 L 328.12 44.53 L 321.09 51.56" stroke="white" fill="transparent"/>
	<path d = "M 433.59 49.22 L 389.06 75.00 L 377.34 98.44 L 377.34 114.84 L 391.41 140.62 L 414.84 147.66 L 424.22 142.97 L 438.28 124.22 L 440.62 96.09 L 424.22 79.69 L 393.75 72.66" stroke="white" fill="transparent"/>
	<path d = "M 503.91 82.03 L 475.78 89.06 L 466.41 114.84 L 494.53 145.31 L 522.66 150.00 L 529.69 128.91 L 520.31 107.81 L 501.56 93.75 L 478.12 89.06" stroke="white" fill="transparent"/>
	<path d = "M 578.91 107.81 L 541.41 131.25 L 539.06 150.00 L 543.75 157.03 L 574.22 152.34 L 597.66 117.19 L 592.97 96.09 L 550.78 89.06" stroke="white" fill="transparent"/>
	<path d = "M 452.34 192.19 L 475.78 236.72 L 499.22 255.47 L 525.00 229.69 L 529.69 192.19 L 508.59 175.78 L 466.41 175.78 L 450.00 189.84 L 450.00 199.22 L 461.72 227.34 L 496.88 241.41 L 510.94 229.69 L 522.66 203.91 L 496.88 185.16" stroke="white" fill="transparent"/>
	<path d = "M 309.38 154.69 L 302.34 157.03 L 300.00 201.56 L 302.34 222.66 L 314.06 246.09 L 335.16 243.75 L 356.25 220.31 L 370.31 187.50 L 370.31 152.34 L 351.56 135.94 L 321.09 131.25 L 297.66 154.69 L 290.62 185.16 L 302.34 210.94 L 325.78 217.97 L 344.53 187.50" stroke="white" fill="transparent"/>
</svg>