<?xml version="1.0" encoding="UTF-8" standalone="no"?>
<!--Created with ndjsontosvg (https:https://github.com/thompson318/ndjsontosvg) 
	from the simplified Google quickdraw data set. key_id = 5898329344966656-->
<svg width="600" height="600"
	xmlns="http://www.w3.org/2000/svg">
	xmlns:ndjsontosvg="https://github.com/thompson318/ndjsontosvg"
	xmlns:quickdraw="https://quickdraw.withgoogle.com/data"
	xmlns:scikit-surgery="https://doi.org/10.1007/s11548-020-02180-5">

	<rect width="100%" height="100%" fill="black" />
	<path d = "M 2.34 140.62 L 23.44 192.19 L 53.91 316.41 L 131.25 557.81 L 196.88 520.31 L 250.78 506.25 L 250.78 494.53 L 171.09 307.03 L 133.59 182.81 L 107.81 119.53 L 96.09 107.81 L 44.53 131.25 L 2.34 138.28" stroke="white" fill="transparent"/>
	<path d = "M 121.88 550.78 L 131.25 588.28 L 154.69 597.66 L 175.78 592.97 L 234.38 564.84 L 257.81 543.75 L 264.84 527.34 L 250.78 506.25" stroke="white" fill="transparent"/>
	<path d = "M 7.03 126.56 L 11.72 0.00 L 67.97 65.62 L 100.78 124.22" stroke="white" fill="transparent"/>
	<path d = "M 23.44 46.88 L 23.44 58.59 L 30.47 58.59 L 30.47 42.19 L 21.09 25.78 L 18.75 44.53 L 25.78 28.12 L 14.06 9.38 L 11.72 53.91 L 16.41 21.09 L 9.38 9.38" stroke="white" fill="transparent"/>
</svg>