<?xml version="1.0" encoding="UTF-8" standalone="no"?>
<!--Created with ndjsontosvg (https:https://github.com/thompson318/ndjsontosvg) 
	from the simplified Google quickdraw data set. key_id = 6752999483375616-->
<svg width="600" height="600"
	xmlns="http://www.w3.org/2000/svg">
	xmlns:ndjsontosvg="https://github.com/thompson318/ndjsontosvg"
	xmlns:quickdraw="https://quickdraw.withgoogle.com/data"
	xmlns:scikit-surgery="https://doi.org/10.1007/s11548-020-02180-5">

	<rect width="100%" height="100%" fill="black" />
	<path d = "M 131.25 25.78 L 79.69 67.97 L 56.25 107.81 L 44.53 206.25 L 9.38 311.72 L 0.00 393.75 L 21.09 396.09 L 44.53 372.66 L 53.91 382.03 L 53.91 435.94 L 79.69 592.97 L 227.34 590.62 L 264.84 564.84 L 274.22 541.41 L 281.25 471.09 L 274.22 405.47 L 285.94 400.78 L 292.97 412.50 L 297.66 442.97 L 309.38 450.00 L 318.75 440.62 L 339.84 346.88 L 337.50 318.75 L 295.31 243.75 L 227.34 152.34 L 192.19 44.53 L 168.75 11.72 L 138.28 0.00 L 114.84 4.69 L 84.38 21.09 L 75.00 44.53" stroke="white" fill="transparent"/>
	<path d = "M 75.00 478.12 L 105.47 503.91 L 135.94 520.31 L 201.56 522.66 L 307.03 445.31" stroke="white" fill="transparent"/>
	<path d = "M 53.91 508.59 L 25.78 536.72 L 2.34 578.91 L 58.59 520.31" stroke="white" fill="transparent"/>
</svg>