<?xml version="1.0" encoding="UTF-8" standalone="no"?>
<!--Created with ndjsontosvg (https:https://github.com/thompson318/ndjsontosvg) 
	from the simplified Google quickdraw data set. key_id = 4609773712441344-->
<svg width="600" height="600"
	xmlns="http://www.w3.org/2000/svg">
	xmlns:ndjsontosvg="https://github.com/thompson318/ndjsontosvg"
	xmlns:quickdraw="https://quickdraw.withgoogle.com/data"
	xmlns:scikit-surgery="https://doi.org/10.1007/s11548-020-02180-5">

	<rect width="100%" height="100%" fill="black" />
	<path d = "M 217.97 110.16 L 203.91 100.78 L 168.75 126.56 L 135.94 175.78 L 103.12 243.75 L 58.59 410.16 L 60.94 487.50 L 84.38 522.66 L 119.53 541.41 L 161.72 550.78 L 234.38 546.09 L 283.59 513.28 L 335.16 431.25 L 356.25 330.47 L 356.25 285.94 L 342.19 239.06 L 283.59 133.59 L 243.75 100.78 L 210.94 91.41" stroke="white" fill="transparent"/>
	<path d = "M 100.78 527.34 L 53.91 541.41 L 46.88 555.47 L 60.94 564.84 L 89.06 564.84 L 135.94 541.41" stroke="white" fill="transparent"/>
	<path d = "M 131.25 543.75 L 128.91 588.28 L 145.31 597.66 L 175.78 585.94 L 194.53 548.44" stroke="white" fill="transparent"/>
	<path d = "M 138.28 112.50 L 138.28 112.50" stroke="white" fill="transparent"/>
	<path d = "M 173.44 117.19 L 168.75 126.56 L 105.47 152.34 L 0.00 222.66 L 133.59 215.62" stroke="white" fill="transparent"/>
	<path d = "M 208.59 93.75 L 182.81 0.00 L 192.19 35.16 L 220.31 63.28 L 246.09 11.72 L 243.75 44.53 L 288.28 11.72 L 248.44 96.09" stroke="white" fill="transparent"/>
</svg>