<?xml version="1.0" encoding="UTF-8" standalone="no"?>
<!--Created with ndjsontosvg (https:https://github.com/thompson318/ndjsontosvg) 
	from the simplified Google quickdraw data set. key_id = 6565811185516544-->
<svg width="600" height="600"
	xmlns="http://www.w3.org/2000/svg">
	xmlns:ndjsontosvg="https://github.com/thompson318/ndjsontosvg"
	xmlns:quickdraw="https://quickdraw.withgoogle.com/data"
	xmlns:scikit-surgery="https://doi.org/10.1007/s11548-020-02180-5">

	<rect width="100%" height="100%" fill="black" />
	<path d = "M 147.66 63.28 L 159.38 32.81 L 199.22 11.72 L 250.78 2.34 L 330.47 2.34 L 377.34 32.81 L 386.72 53.91 L 377.34 189.84 L 403.12 171.09 L 475.78 159.38 L 555.47 154.69 L 590.62 161.72 L 515.62 180.47 L 433.59 243.75 L 412.50 311.72 L 414.84 510.94 L 358.59 517.97 L 342.19 529.69 L 346.88 541.41 L 393.75 560.16 L 403.12 578.91 L 393.75 583.59 L 337.50 571.88 L 384.38 597.66 L 379.69 578.91 L 353.91 553.12 L 337.50 522.66 L 290.62 506.25 L 166.41 513.28 L 157.03 522.66 L 152.34 562.50 L 114.84 578.91 L 114.84 569.53 L 124.22 562.50 L 105.47 569.53 L 86.72 564.84 L 131.25 546.09 L 145.31 525.00 L 159.38 447.66 L 164.06 297.66 L 56.25 248.44 L 0.00 264.84 L 32.81 206.25 L 82.03 185.16 L 138.28 60.94" stroke="white" fill="transparent"/>
</svg>