<?xml version="1.0" encoding="UTF-8" standalone="no"?>
<!--Created with ndjsontosvg (https:https://github.com/thompson318/ndjsontosvg) 
	from the simplified Google quickdraw data set. key_id = 5021085357572096-->
<svg width="600" height="600"
	xmlns="http://www.w3.org/2000/svg">
	xmlns:ndjsontosvg="https://github.com/thompson318/ndjsontosvg"
	xmlns:quickdraw="https://quickdraw.withgoogle.com/data"
	xmlns:scikit-surgery="https://doi.org/10.1007/s11548-020-02180-5">

	<rect width="100%" height="100%" fill="black" />
	<path d = "M 248.44 229.69 L 288.28 332.81 L 300.00 445.31 L 318.75 517.97 L 325.78 534.38 L 335.16 527.34 L 344.53 485.16 L 344.53 428.91 L 300.00 264.84 L 271.88 196.88 L 260.16 185.16 L 250.78 70.31 L 217.97 23.44 L 187.50 0.00 L 133.59 44.53 L 124.22 79.69 L 124.22 142.97 L 131.25 185.16 L 72.66 264.84 L 44.53 330.47 L 4.69 396.09 L 0.00 527.34 L 49.22 447.66 L 89.06 288.28 L 96.09 300.00 L 98.44 328.12 L 103.12 583.59 L 117.19 595.31 L 145.31 597.66 L 356.25 583.59 L 367.97 569.53 L 367.97 536.72 L 332.81 517.97 L 300.00 515.62" stroke="white" fill="transparent"/>
</svg>