<?xml version="1.0" encoding="UTF-8" standalone="no"?>
<!--Created with ndjsontosvg (https:https://github.com/thompson318/ndjsontosvg) 
	from the simplified Google quickdraw data set. key_id = 5266373645172736-->
<svg width="600" height="600"
	xmlns="http://www.w3.org/2000/svg">
	xmlns:ndjsontosvg="https://github.com/thompson318/ndjsontosvg"
	xmlns:quickdraw="https://quickdraw.withgoogle.com/data"
	xmlns:scikit-surgery="https://doi.org/10.1007/s11548-020-02180-5">

	<rect width="100%" height="100%" fill="black" />
	<path d = "M 14.06 592.97 L 11.72 433.59 L 0.00 353.91 L 0.00 232.03 L 14.06 142.97 L 56.25 56.25 L 84.38 28.12 L 145.31 0.00 L 196.88 0.00 L 250.78 25.78 L 292.97 82.03 L 321.09 152.34 L 349.22 314.06 L 346.88 539.06 L 328.12 576.56" stroke="white" fill="transparent"/>
	<path d = "M 21.09 597.66 L 82.03 597.66 L 257.81 574.22 L 335.16 576.56" stroke="white" fill="transparent"/>
	<path d = "M 42.19 250.78 L 72.66 461.72 L 72.66 534.38 L 65.62 536.72 L 44.53 525.00 L 25.78 499.22 L 7.03 454.69 L 7.03 426.56" stroke="white" fill="transparent"/>
	<path d = "M 274.22 220.31 L 274.22 508.59 L 278.91 485.16 L 323.44 393.75 L 344.53 309.38" stroke="white" fill="transparent"/>
</svg>