<?xml version="1.0" encoding="UTF-8" standalone="no"?>
<!--Created with ndjsontosvg (https:https://github.com/thompson318/ndjsontosvg) 
	from the simplified Google quickdraw data set. key_id = 5042260305510400-->
<svg width="600" height="600"
	xmlns="http://www.w3.org/2000/svg">
	xmlns:ndjsontosvg="https://github.com/thompson318/ndjsontosvg"
	xmlns:quickdraw="https://quickdraw.withgoogle.com/data"
	xmlns:scikit-surgery="https://doi.org/10.1007/s11548-020-02180-5">

	<rect width="100%" height="100%" fill="black" />
	<path d = "M 152.34 154.69 L 135.94 91.41 L 135.94 53.91 L 152.34 28.12 L 199.22 0.00 L 246.09 0.00 L 274.22 21.09 L 285.94 53.91 L 290.62 107.81 L 260.16 166.41 L 292.97 182.81 L 314.06 241.41 L 316.41 398.44 L 344.53 442.97 L 370.31 454.69 L 386.72 447.66 L 379.69 475.78 L 360.94 494.53 L 325.78 492.19 L 297.66 468.75 L 276.56 431.25 L 260.16 377.34 L 246.09 260.16 L 262.50 325.78 L 274.22 435.94 L 269.53 532.03 L 250.78 560.16 L 180.47 555.47 L 157.03 525.00 L 135.94 461.72 L 126.56 403.12 L 126.56 260.16 L 142.97 222.66 L 105.47 316.41 L 89.06 431.25 L 46.88 492.19 L 4.69 494.53 L 2.34 457.03 L 23.44 445.31 L 35.16 424.22 L 49.22 379.69 L 58.59 307.03 L 77.34 243.75 L 133.59 173.44 L 147.66 164.06 L 152.34 175.78" stroke="white" fill="transparent"/>
	<path d = "M 154.69 532.03 L 98.44 534.38 L 103.12 560.16 L 133.59 583.59 L 185.16 590.62 L 199.22 574.22 L 253.12 574.22 L 281.25 592.97 L 309.38 597.66 L 325.78 578.91 L 330.47 548.44 L 297.66 529.69 L 271.88 529.69" stroke="white" fill="transparent"/>
</svg>