<?xml version="1.0" encoding="UTF-8" standalone="no"?>
<!--Created with ndjsontosvg (https:https://github.com/thompson318/ndjsontosvg) 
	from the simplified Google quickdraw data set. key_id = 6575393794424832-->
<svg width="600" height="600"
	xmlns="http://www.w3.org/2000/svg">
	xmlns:ndjsontosvg="https://github.com/thompson318/ndjsontosvg"
	xmlns:quickdraw="https://quickdraw.withgoogle.com/data"
	xmlns:scikit-surgery="https://doi.org/10.1007/s11548-020-02180-5">

	<rect width="100%" height="100%" fill="black" />
	<path d = "M 478.12 0.00 L 0.00 18.75 L 25.78 56.25 L 135.94 328.12 L 154.69 311.72 L 360.94 292.97 L 581.25 316.41 L 583.59 307.03 L 569.53 260.16 L 567.19 124.22 L 560.16 72.66 L 546.09 42.19 L 496.88 16.41" stroke="white" fill="transparent"/>
	<path d = "M 117.19 318.75 L 171.09 447.66 L 182.81 452.34 L 431.25 428.91 L 571.88 400.78 L 597.66 384.38 L 581.25 351.56 L 581.25 314.06" stroke="white" fill="transparent"/>
	<path d = "M 225.00 307.03 L 255.47 414.84" stroke="white" fill="transparent"/>
	<path d = "M 379.69 285.94 L 433.59 407.81" stroke="white" fill="transparent"/>
	<path d = "M 525.00 321.09 L 548.44 377.34" stroke="white" fill="transparent"/>
	<path d = "M 300.00 318.75 L 323.44 419.53" stroke="white" fill="transparent"/>
</svg>