<?xml version="1.0" encoding="UTF-8" standalone="no"?>
<!--Created with ndjsontosvg (https:https://github.com/thompson318/ndjsontosvg) 
	from the simplified Google quickdraw data set. key_id = 4875267598188544-->
<svg width="600" height="600"
	xmlns="http://www.w3.org/2000/svg">
	xmlns:ndjsontosvg="https://github.com/thompson318/ndjsontosvg"
	xmlns:quickdraw="https://quickdraw.withgoogle.com/data"
	xmlns:scikit-surgery="https://doi.org/10.1007/s11548-020-02180-5">

	<rect width="100%" height="100%" fill="black" />
	<path d = "M 72.66 32.81 L 72.66 112.50 L 16.41 328.12 L 2.34 419.53 L 332.81 414.84 L 398.44 435.94 L 548.44 464.06 L 597.66 44.53 L 332.81 4.69 L 53.91 2.34" stroke="white" fill="transparent"/>
	<path d = "M 56.25 208.59 L 114.84 246.09 L 414.84 267.19 L 546.09 285.94 L 555.47 278.91" stroke="white" fill="transparent"/>
	<path d = "M 128.91 213.28 L 131.25 232.03 L 142.97 236.72" stroke="white" fill="transparent"/>
	<path d = "M 159.38 222.66 L 168.75 241.41 L 182.81 243.75" stroke="white" fill="transparent"/>
	<path d = "M 217.97 229.69 L 229.69 248.44 L 243.75 250.78" stroke="white" fill="transparent"/>
	<path d = "M 264.84 239.06 L 276.56 260.16 L 288.28 262.50" stroke="white" fill="transparent"/>
	<path d = "M 325.78 248.44 L 328.12 257.81 L 342.19 260.16" stroke="white" fill="transparent"/>
	<path d = "M 382.03 241.41 L 398.44 250.78" stroke="white" fill="transparent"/>
</svg>