<?xml version="1.0" encoding="UTF-8" standalone="no"?>
<!--Created with ndjsontosvg (https:https://github.com/thompson318/ndjsontosvg) 
	from the simplified Google quickdraw data set. key_id = 5987067798487040-->
<svg width="600" height="600"
	xmlns="http://www.w3.org/2000/svg">
	xmlns:ndjsontosvg="https://github.com/thompson318/ndjsontosvg"
	xmlns:quickdraw="https://quickdraw.withgoogle.com/data"
	xmlns:scikit-surgery="https://doi.org/10.1007/s11548-020-02180-5">

	<rect width="100%" height="100%" fill="black" />
	<path d = "M 117.19 461.72 L 84.38 222.66 L 86.72 185.16 L 330.47 145.31 L 513.28 150.00 L 482.81 391.41 L 522.66 384.38 L 581.25 349.22 L 595.31 314.06 L 597.66 269.53 L 597.66 168.75 L 581.25 51.56 L 496.88 37.50 L 417.19 58.59 L 168.75 58.59 L 70.31 65.62 L 49.22 75.00 L 35.16 103.12 L 7.03 192.19 L 0.00 250.78 L 4.69 377.34 L 18.75 407.81 L 49.22 438.28 L 72.66 450.00 L 124.22 454.69 L 140.62 421.88" stroke="white" fill="transparent"/>
	<path d = "M 79.69 187.50 L 112.50 75.00 L 173.44 70.31 L 323.44 89.06 L 468.75 89.06 L 496.88 96.09 L 508.59 126.56 L 515.62 199.22 L 499.22 201.56 L 466.41 187.50" stroke="white" fill="transparent"/>
	<path d = "M 189.84 79.69 L 164.06 178.12" stroke="white" fill="transparent"/>
	<path d = "M 241.41 58.59 L 248.44 145.31 L 257.81 152.34 L 278.91 147.66" stroke="white" fill="transparent"/>
	<path d = "M 351.56 93.75 L 353.91 210.94 L 360.94 208.59 L 382.03 159.38" stroke="white" fill="transparent"/>
	<path d = "M 468.75 121.88 L 459.38 180.47" stroke="white" fill="transparent"/>
	<path d = "M 128.91 60.94 L 150.00 0.00" stroke="white" fill="transparent"/>
</svg>