<?xml version="1.0" encoding="UTF-8" standalone="no"?>
<!--Created with ndjsontosvg (https:https://github.com/thompson318/ndjsontosvg) 
	from the simplified Google quickdraw data set. key_id = 6248897276018688-->
<svg width="600" height="600"
	xmlns="http://www.w3.org/2000/svg">
	xmlns:ndjsontosvg="https://github.com/thompson318/ndjsontosvg"
	xmlns:quickdraw="https://quickdraw.withgoogle.com/data"
	xmlns:scikit-surgery="https://doi.org/10.1007/s11548-020-02180-5">

	<rect width="100%" height="100%" fill="black" />
	<path d = "M 18.75 515.62 L 25.78 396.09 L 39.84 316.41 L 210.94 328.12 L 201.56 370.31 L 192.19 536.72 L 182.81 557.81 L 159.38 564.84 L 103.12 564.84 L 25.78 546.09 L 37.50 541.41" stroke="white" fill="transparent"/>
	<path d = "M 241.41 335.16 L 234.38 360.94 L 234.38 459.38 L 234.38 424.22 L 255.47 349.22 L 260.16 386.72 L 253.12 442.97 L 227.34 510.94 L 220.31 482.81 L 220.31 433.59 L 234.38 335.16 L 236.72 360.94 L 229.69 400.78 L 210.94 459.38 L 210.94 421.88 L 215.62 405.47 L 222.66 428.91 L 227.34 529.69 L 208.59 499.22 L 203.91 468.75 L 210.94 506.25 L 236.72 525.00 L 253.12 529.69 L 337.50 529.69 L 349.22 508.59 L 349.22 323.44 L 285.94 325.78" stroke="white" fill="transparent"/>
	<path d = "M 405.47 335.16 L 389.06 400.78 L 386.72 541.41 L 386.72 379.69 L 386.72 419.53 L 375.00 360.94 L 370.31 379.69 L 379.69 407.81 L 396.09 412.50 L 403.12 428.91 L 405.47 501.56 L 426.56 590.62 L 445.31 597.66 L 485.16 576.56 L 546.09 571.88 L 560.16 522.66 L 560.16 450.00 L 532.03 363.28 L 489.84 342.19 L 440.62 342.19 L 424.22 330.47 L 426.56 325.78" stroke="white" fill="transparent"/>
	<path d = "M 4.69 323.44 L 0.00 234.38 L 25.78 96.09 L 49.22 44.53 L 114.84 0.00" stroke="white" fill="transparent"/>
</svg>