<?xml version="1.0" encoding="UTF-8" standalone="no"?>
<!--Created with ndjsontosvg (https:https://github.com/thompson318/ndjsontosvg) 
	from the simplified Google quickdraw data set. key_id = 5784161631600640-->
<svg width="600" height="600"
	xmlns="http://www.w3.org/2000/svg">
	xmlns:ndjsontosvg="https://github.com/thompson318/ndjsontosvg"
	xmlns:quickdraw="https://quickdraw.withgoogle.com/data"
	xmlns:scikit-surgery="https://doi.org/10.1007/s11548-020-02180-5">

	<rect width="100%" height="100%" fill="black" />
	<path d = "M 42.19 91.41 L 267.19 86.72" stroke="white" fill="transparent"/>
	<path d = "M 11.72 75.00 L 9.38 182.81 L 0.00 262.50 L 4.69 295.31 L 300.00 316.41 L 318.75 210.94 L 325.78 100.78 L 225.00 77.34" stroke="white" fill="transparent"/>
	<path d = "M 300.00 295.31 L 321.09 182.81 L 325.78 110.16 L 421.88 93.75 L 513.28 91.41 L 567.19 107.81 L 590.62 152.34 L 595.31 248.44 L 585.94 276.56 L 564.84 302.34 L 506.25 328.12 L 440.62 339.84 L 398.44 337.50 L 323.44 316.41 L 281.25 311.72" stroke="white" fill="transparent"/>
	<path d = "M 161.72 302.34 L 140.62 302.34 L 119.53 311.72 L 89.06 349.22 L 86.72 384.38 L 93.75 400.78 L 105.47 412.50 L 138.28 424.22 L 154.69 421.88 L 185.16 398.44 L 199.22 367.97 L 201.56 337.50 L 178.12 314.06 L 133.59 300.00" stroke="white" fill="transparent"/>
	<path d = "M 269.53 328.12 L 246.09 353.91 L 239.06 372.66 L 246.09 393.75 L 283.59 398.44 L 307.03 379.69 L 316.41 351.56 L 316.41 337.50 L 297.66 318.75 L 248.44 302.34" stroke="white" fill="transparent"/>
	<path d = "M 91.41 25.78 L 75.00 42.19 L 77.34 82.03 L 107.81 98.44 L 142.97 89.06 L 166.41 56.25 L 164.06 25.78 L 131.25 7.03 L 112.50 9.38 L 105.47 16.41" stroke="white" fill="transparent"/>
	<path d = "M 269.53 30.47 L 243.75 63.28 L 232.03 121.88 L 243.75 131.25 L 274.22 133.59 L 292.97 121.88 L 321.09 89.06 L 330.47 44.53 L 311.72 18.75 L 285.94 0.00" stroke="white" fill="transparent"/>
	<path d = "M 232.03 161.72 L 107.81 166.41 L 75.00 236.72 L 67.97 283.59 L 164.06 260.16 L 232.03 260.16 L 239.06 239.06 L 239.06 150.00 L 215.62 157.03" stroke="white" fill="transparent"/>
	<path d = "M 525.00 84.38 L 489.84 152.34 L 478.12 232.03 L 478.12 274.22 L 489.84 307.03 L 501.56 330.47 L 520.31 346.88" stroke="white" fill="transparent"/>
</svg>