<?xml version="1.0" encoding="UTF-8" standalone="no"?>
<!--Created with ndjsontosvg (https:https://github.com/thompson318/ndjsontosvg) 
	from the simplified Google quickdraw data set. key_id = 6691938369536000-->
<svg width="600" height="600"
	xmlns="http://www.w3.org/2000/svg">
	xmlns:ndjsontosvg="https://github.com/thompson318/ndjsontosvg"
	xmlns:quickdraw="https://quickdraw.withgoogle.com/data"
	xmlns:scikit-surgery="https://doi.org/10.1007/s11548-020-02180-5">

	<rect width="100%" height="100%" fill="black" />
	<path d = "M 297.66 9.38 L 98.44 14.06 L 75.00 192.19 L 84.38 201.56 L 135.94 201.56 L 346.88 180.47 L 325.78 128.91 L 323.44 0.00" stroke="white" fill="transparent"/>
	<path d = "M 173.44 201.56 L 173.44 267.19 L 180.47 274.22 L 499.22 274.22 L 597.66 267.19" stroke="white" fill="transparent"/>
	<path d = "M 302.34 105.47 L 585.94 112.50 L 592.97 121.88 L 592.97 257.81" stroke="white" fill="transparent"/>
	<path d = "M 562.50 274.22 L 548.44 264.84 L 522.66 264.84 L 485.16 288.28 L 468.75 316.41 L 471.09 342.19 L 482.81 349.22 L 534.38 353.91 L 555.47 328.12 L 562.50 278.91 L 553.12 267.19 L 534.38 262.50" stroke="white" fill="transparent"/>
	<path d = "M 403.12 283.59 L 386.72 288.28 L 363.28 314.06 L 358.59 349.22 L 398.44 356.25 L 412.50 344.53 L 426.56 316.41 L 426.56 283.59 L 405.47 271.88" stroke="white" fill="transparent"/>
	<path d = "M 248.44 281.25 L 232.03 285.94 L 208.59 304.69 L 210.94 323.44 L 222.66 335.16 L 269.53 339.84 L 288.28 328.12 L 302.34 300.00 L 292.97 281.25 L 274.22 278.91" stroke="white" fill="transparent"/>
	<path d = "M 189.84 278.91 L 164.06 285.94 L 145.31 304.69 L 138.28 323.44 L 150.00 332.81 L 168.75 332.81 L 185.16 316.41 L 187.50 278.91" stroke="white" fill="transparent"/>
	<path d = "M 84.38 110.16 L 37.50 121.88 L 35.16 138.28 L 60.94 157.03 L 89.06 159.38" stroke="white" fill="transparent"/>
	<path d = "M 49.22 107.81 L 14.06 112.50" stroke="white" fill="transparent"/>
	<path d = "M 25.78 135.94 L 2.34 154.69" stroke="white" fill="transparent"/>
	<path d = "M 46.88 159.38 L 25.78 171.09 L 11.72 189.84" stroke="white" fill="transparent"/>
	<path d = "M 63.28 164.06 L 28.12 164.06 L 4.69 182.81 L 2.34 196.88 L 0.00 213.28 L 11.72 222.66 L 49.22 217.97" stroke="white" fill="transparent"/>
	<path d = "M 51.56 222.66 L 30.47 236.72 L 4.69 278.91" stroke="white" fill="transparent"/>
	<path d = "M 23.44 192.19 L 9.38 206.25" stroke="white" fill="transparent"/>
	<path d = "M 288.28 65.62 L 288.28 65.62" stroke="white" fill="transparent"/>
	<path d = "M 307.03 75.00 L 128.91 89.06" stroke="white" fill="transparent"/>
	<path d = "M 290.62 128.91 L 248.44 133.59" stroke="white" fill="transparent"/>
	<path d = "M 178.12 79.69 L 173.44 28.12 L 257.81 21.09 L 295.31 21.09 L 304.69 35.16 L 304.69 72.66" stroke="white" fill="transparent"/>
</svg>