<?xml version="1.0" encoding="UTF-8" standalone="no"?>
<!--Created with ndjsontosvg (https:https://github.com/thompson318/ndjsontosvg) 
	from the simplified Google quickdraw data set. key_id = 6289196354371584-->
<svg width="600" height="600"
	xmlns="http://www.w3.org/2000/svg">
	xmlns:ndjsontosvg="https://github.com/thompson318/ndjsontosvg"
	xmlns:quickdraw="https://quickdraw.withgoogle.com/data"
	xmlns:scikit-surgery="https://doi.org/10.1007/s11548-020-02180-5">

	<rect width="100%" height="100%" fill="black" />
	<path d = "M 121.88 96.09 L 77.34 91.41 L 46.88 96.09 L 14.06 112.50 L 0.00 138.28" stroke="white" fill="transparent"/>
	<path d = "M 138.28 107.81 L 131.25 63.28 L 135.94 32.81 L 166.41 11.72 L 215.62 0.00 L 243.75 9.38 L 257.81 30.47 L 264.84 93.75 L 274.22 107.81 L 325.78 119.53 L 471.09 105.47 L 585.94 112.50 L 597.66 128.91 L 583.59 208.59 L 569.53 246.09 L 553.12 260.16 L 478.12 274.22 L 405.47 274.22 L 285.94 264.84 L 119.53 264.84 L 72.66 257.81 L 37.50 236.72 L 14.06 201.56 L 18.75 150.00" stroke="white" fill="transparent"/>
	<path d = "M 79.69 262.50 L 58.59 307.03 L 53.91 342.19 L 70.31 360.94 L 114.84 342.19 L 138.28 314.06 L 131.25 283.59 L 117.19 276.56" stroke="white" fill="transparent"/>
	<path d = "M 414.84 311.72 L 377.34 358.59 L 377.34 379.69 L 391.41 398.44 L 447.66 391.41 L 478.12 363.28 L 494.53 321.09 L 492.19 302.34 L 468.75 278.91 L 454.69 274.22" stroke="white" fill="transparent"/>
</svg>