<?xml version="1.0" encoding="UTF-8" standalone="no"?>
<!--Created with ndjsontosvg (https:https://github.com/thompson318/ndjsontosvg) 
	from the simplified Google quickdraw data set. key_id = 5121488778690560-->
<svg width="600" height="600"
	xmlns="http://www.w3.org/2000/svg">
	xmlns:ndjsontosvg="https://github.com/thompson318/ndjsontosvg"
	xmlns:quickdraw="https://quickdraw.withgoogle.com/data"
	xmlns:scikit-surgery="https://doi.org/10.1007/s11548-020-02180-5">

	<rect width="100%" height="100%" fill="black" />
	<path d = "M 513.28 75.00 L 431.25 84.38 L 278.91 86.72 L 173.44 100.78 L 168.75 264.84 L 189.84 267.19 L 595.31 267.19 L 597.66 121.88 L 585.94 72.66 L 478.12 72.66" stroke="white" fill="transparent"/>
	<path d = "M 208.59 267.19 L 194.53 288.28 L 194.53 304.69 L 206.25 318.75 L 243.75 335.16 L 269.53 332.81 L 292.97 318.75 L 297.66 292.97 L 288.28 271.88" stroke="white" fill="transparent"/>
	<path d = "M 503.91 264.84 L 501.56 300.00 L 522.66 321.09 L 539.06 325.78 L 564.84 323.44 L 578.91 314.06 L 583.59 281.25 L 576.56 267.19" stroke="white" fill="transparent"/>
	<path d = "M 166.41 131.25 L 11.72 133.59 L 0.00 196.88 L 0.00 250.78 L 9.38 262.50 L 30.47 269.53 L 192.19 271.88" stroke="white" fill="transparent"/>
	<path d = "M 311.72 82.03 L 323.44 32.81 L 335.16 18.75 L 473.44 0.00 L 564.84 0.00 L 585.94 82.03" stroke="white" fill="transparent"/>
</svg>