<?xml version="1.0" encoding="UTF-8" standalone="no"?>
<!--Created with ndjsontosvg (https:https://github.com/thompson318/ndjsontosvg) 
	from the simplified Google quickdraw data set. key_id = 5657699427549184-->
<svg width="600" height="600"
	xmlns="http://www.w3.org/2000/svg">
	xmlns:ndjsontosvg="https://github.com/thompson318/ndjsontosvg"
	xmlns:quickdraw="https://quickdraw.withgoogle.com/data"
	xmlns:scikit-surgery="https://doi.org/10.1007/s11548-020-02180-5">

	<rect width="100%" height="100%" fill="black" />
	<path d = "M 288.28 49.22 L 285.94 2.34 L 384.38 2.34 L 396.09 9.38 L 407.81 77.34 L 419.53 91.41 L 567.19 100.78 L 588.28 124.22 L 597.66 166.41 L 595.31 187.50 L 576.56 196.88 L 520.31 208.59 L 93.75 215.62 L 7.03 210.94 L 0.00 203.91 L 4.69 91.41 L 32.81 89.06 L 110.16 98.44 L 112.50 79.69 L 126.56 70.31 L 309.38 72.66 L 302.34 44.53" stroke="white" fill="transparent"/>
	<path d = "M 300.00 42.19 L 288.28 42.19" stroke="white" fill="transparent"/>
	<path d = "M 142.97 201.56 L 93.75 199.22 L 82.03 210.94 L 82.03 232.03 L 121.88 241.41 L 142.97 225.00 L 142.97 194.53" stroke="white" fill="transparent"/>
	<path d = "M 468.75 213.28 L 480.47 182.81 L 503.91 178.12 L 529.69 194.53 L 541.41 229.69 L 499.22 246.09 L 473.44 213.28 L 473.44 175.78" stroke="white" fill="transparent"/>
	<path d = "M 271.88 2.34 L 241.41 4.69 L 227.34 60.94" stroke="white" fill="transparent"/>
</svg>