<?xml version="1.0" encoding="UTF-8" standalone="no"?>
<!--Created with ndjsontosvg (https:https://github.com/thompson318/ndjsontosvg) 
	from the simplified Google quickdraw data set. key_id = 5357327714615296-->
<svg width="600" height="600"
	xmlns="http://www.w3.org/2000/svg">
	xmlns:ndjsontosvg="https://github.com/thompson318/ndjsontosvg"
	xmlns:quickdraw="https://quickdraw.withgoogle.com/data"
	xmlns:scikit-surgery="https://doi.org/10.1007/s11548-020-02180-5">

	<rect width="100%" height="100%" fill="black" />
	<path d = "M 30.47 86.72 L 154.69 77.34 L 424.22 77.34 L 597.66 91.41 L 569.53 150.00 L 543.75 234.38 L 527.34 365.62 L 217.97 370.31 L 0.00 363.28 L 16.41 213.28 L 53.91 93.75" stroke="white" fill="transparent"/>
	<path d = "M 86.72 110.16 L 58.59 227.34 L 58.59 325.78 L 65.62 335.16 L 255.47 351.56 L 321.09 351.56 L 398.44 335.16 L 447.66 335.16 L 503.91 175.78 L 501.56 128.91 L 400.78 128.91 L 243.75 112.50 L 96.09 112.50" stroke="white" fill="transparent"/>
	<path d = "M 208.59 67.97 L 232.03 16.41 L 276.56 0.00 L 292.97 16.41 L 309.38 77.34" stroke="white" fill="transparent"/>
</svg>