<?xml version="1.0" encoding="UTF-8" standalone="no"?>
<!--Created with ndjsontosvg (https:https://github.com/thompson318/ndjsontosvg) 
	from the simplified Google quickdraw data set. key_id = 4583766926295040-->
<svg width="600" height="600"
	xmlns="http://www.w3.org/2000/svg">
	xmlns:ndjsontosvg="https://github.com/thompson318/ndjsontosvg"
	xmlns:quickdraw="https://quickdraw.withgoogle.com/data"
	xmlns:scikit-surgery="https://doi.org/10.1007/s11548-020-02180-5">

	<rect width="100%" height="100%" fill="black" />
	<path d = "M 70.31 9.38 L 58.59 14.06 L 39.84 213.28 L 46.88 419.53 L 42.19 588.28 L 175.78 543.75 L 546.09 494.53 L 588.28 485.16 L 597.66 478.12 L 581.25 450.00 L 562.50 375.00 L 546.09 126.56 L 532.03 42.19 L 517.97 2.34 L 485.16 0.00 L 346.88 21.09 L 145.31 18.75 L 11.72 32.81" stroke="white" fill="transparent"/>
	<path d = "M 103.12 28.12 L 96.09 138.28 L 131.25 330.47 L 131.25 525.00 L 140.62 513.28 L 182.81 510.94 L 220.31 501.56 L 367.97 440.62 L 468.75 424.22 L 438.28 147.66 L 426.56 96.09 L 414.84 79.69 L 358.59 75.00 L 185.16 98.44 L 0.00 91.41" stroke="white" fill="transparent"/>
</svg>