<?xml version="1.0" encoding="UTF-8" standalone="no"?>
<!--Created with ndjsontosvg (https:https://github.com/thompson318/ndjsontosvg) 
	from the simplified Google quickdraw data set. key_id = 4960405426274304-->
<svg width="600" height="600"
	xmlns="http://www.w3.org/2000/svg">
	xmlns:ndjsontosvg="https://github.com/thompson318/ndjsontosvg"
	xmlns:quickdraw="https://quickdraw.withgoogle.com/data"
	xmlns:scikit-surgery="https://doi.org/10.1007/s11548-020-02180-5">

	<rect width="100%" height="100%" fill="black" />
	<path d = "M 9.38 16.41 L 9.38 253.12 L 0.00 375.00 L 14.06 382.03 L 318.75 375.00 L 445.31 393.75 L 560.16 421.88 L 571.88 398.44 L 588.28 311.72 L 597.66 196.88 L 595.31 65.62 L 590.62 28.12 L 581.25 11.72 L 372.66 14.06 L 112.50 0.00 L 18.75 2.34" stroke="white" fill="transparent"/>
	<path d = "M 44.53 30.47 L 56.25 72.66 L 72.66 309.38 L 283.59 339.84 L 571.88 360.94 L 555.47 356.25 L 536.72 335.16 L 517.97 281.25 L 520.31 63.28 L 431.25 82.03 L 375.00 82.03 L 89.06 56.25 L 39.84 44.53" stroke="white" fill="transparent"/>
</svg>