<?xml version="1.0" encoding="UTF-8" standalone="no"?>
<!--Created with ndjsontosvg (https:https://github.com/thompson318/ndjsontosvg) 
	from the simplified Google quickdraw data set. key_id = 5706908415557632-->
<svg width="600" height="600"
	xmlns="http://www.w3.org/2000/svg">
	xmlns:ndjsontosvg="https://github.com/thompson318/ndjsontosvg"
	xmlns:quickdraw="https://quickdraw.withgoogle.com/data"
	xmlns:scikit-surgery="https://doi.org/10.1007/s11548-020-02180-5">

	<rect width="100%" height="100%" fill="black" />
	<path d = "M 159.38 438.28 L 133.59 445.31 L 103.12 428.91 L 82.03 405.47 L 67.97 372.66" stroke="white" fill="transparent"/>
	<path d = "M 67.97 307.03 L 77.34 276.56" stroke="white" fill="transparent"/>
	<path d = "M 393.75 353.91 L 400.78 412.50 L 398.44 452.34 L 375.00 506.25 L 346.88 539.06 L 309.38 567.19 L 262.50 588.28 L 232.03 595.31 L 154.69 597.66 L 121.88 588.28 L 100.78 571.88 L 23.44 468.75 L 2.34 400.78 L 0.00 290.62 L 28.12 208.59 L 70.31 150.00 L 105.47 126.56 L 161.72 105.47 L 227.34 89.06 L 400.78 89.06 L 431.25 98.44 L 471.09 135.94 L 508.59 203.91 L 525.00 250.78 L 529.69 337.50 L 508.59 417.19 L 468.75 475.78 L 438.28 501.56 L 391.41 506.25" stroke="white" fill="transparent"/>
	<path d = "M 72.66 119.53 L 70.31 128.91" stroke="white" fill="transparent"/>
	<path d = "M 67.97 154.69 L 72.66 44.53 L 91.41 0.00 L 100.78 0.00 L 128.91 18.75 L 166.41 67.97" stroke="white" fill="transparent"/>
	<path d = "M 473.44 86.72 L 525.00 39.84 L 585.94 14.06 L 585.94 60.94 L 541.41 217.97" stroke="white" fill="transparent"/>
	<path d = "M 187.50 335.16 L 206.25 314.06 L 222.66 318.75 L 243.75 365.62 L 234.38 384.38 L 180.47 389.06 L 168.75 367.97 L 166.41 344.53" stroke="white" fill="transparent"/>
	<path d = "M 168.75 332.81 L 175.78 316.41" stroke="white" fill="transparent"/>
	<path d = "M 255.47 288.28 L 318.75 328.12 L 339.84 360.94 L 332.81 398.44 L 297.66 403.12 L 285.94 398.44 L 267.19 351.56" stroke="white" fill="transparent"/>
	<path d = "M 262.50 325.78 L 262.50 314.06" stroke="white" fill="transparent"/>
	<path d = "M 222.66 410.16 L 241.41 396.09 L 274.22 393.75 L 283.59 398.44 L 290.62 424.22 L 283.59 454.69 L 225.00 475.78 L 208.59 452.34 L 201.56 382.03" stroke="white" fill="transparent"/>
</svg>