<?xml version="1.0" encoding="UTF-8" standalone="no"?>
<!--Created with ndjsontosvg (https:https://github.com/thompson318/ndjsontosvg) 
	from the simplified Google quickdraw data set. key_id = 5587636192280576-->
<svg width="600" height="600"
	xmlns="http://www.w3.org/2000/svg">
	xmlns:ndjsontosvg="https://github.com/thompson318/ndjsontosvg"
	xmlns:quickdraw="https://quickdraw.withgoogle.com/data"
	xmlns:scikit-surgery="https://doi.org/10.1007/s11548-020-02180-5">

	<rect width="100%" height="100%" fill="black" />
	<path d = "M 0.00 278.91 L 100.78 283.59 L 171.09 269.53 L 217.97 250.78 L 283.59 208.59 L 290.62 386.72 L 276.56 468.75 L 257.81 522.66 L 215.62 569.53 L 150.00 597.66 L 105.47 595.31 L 77.34 574.22 L 49.22 508.59 L 37.50 459.38 L 18.75 243.75" stroke="white" fill="transparent"/>
	<path d = "M 65.62 274.22 L 44.53 239.06 L 32.81 199.22 L 9.38 70.31 L 16.41 14.06 L 25.78 18.75 L 37.50 46.88 L 82.03 250.78 L 105.47 295.31 L 135.94 154.69 L 168.75 70.31 L 201.56 14.06 L 217.97 0.00 L 220.31 16.41 L 192.19 157.03 L 187.50 257.81 L 192.19 267.19 L 225.00 91.41 L 253.12 25.78 L 274.22 4.69 L 283.59 2.34 L 290.62 49.22 L 290.62 145.31 L 278.91 243.75 L 257.81 262.50 L 234.38 260.16 L 215.62 246.09 L 72.66 16.41 L 65.62 32.81 L 72.66 70.31 L 142.97 260.16 L 147.66 241.41 L 100.78 63.28 L 112.50 77.34" stroke="white" fill="transparent"/>
	<path d = "M 44.53 328.12 L 105.47 342.19 L 194.53 339.84 L 250.78 311.72 L 269.53 290.62 L 278.91 260.16" stroke="white" fill="transparent"/>
	<path d = "M 49.22 393.75 L 93.75 405.47 L 215.62 405.47 L 269.53 375.00 L 304.69 328.12" stroke="white" fill="transparent"/>
	<path d = "M 82.03 494.53 L 140.62 496.88 L 187.50 485.16 L 220.31 461.72 L 281.25 396.09" stroke="white" fill="transparent"/>
	<path d = "M 65.62 567.19 L 121.88 569.53" stroke="white" fill="transparent"/>
</svg>