<?xml version="1.0" encoding="UTF-8" standalone="no"?>
<!--Created with ndjsontosvg (https:https://github.com/thompson318/ndjsontosvg) 
	from the simplified Google quickdraw data set. key_id = 5879587068182528-->
<svg width="600" height="600"
	xmlns="http://www.w3.org/2000/svg">
	xmlns:ndjsontosvg="https://github.com/thompson318/ndjsontosvg"
	xmlns:quickdraw="https://quickdraw.withgoogle.com/data"
	xmlns:scikit-surgery="https://doi.org/10.1007/s11548-020-02180-5">

	<rect width="100%" height="100%" fill="black" />
	<path d = "M 208.59 215.62 L 168.75 0.00 L 154.69 154.69 L 150.00 159.38 L 131.25 44.53 L 119.53 25.78 L 110.16 35.16 L 86.72 131.25 L 91.41 65.62 L 93.75 124.22 L 100.78 157.03 L 107.81 161.72 L 131.25 150.00 L 154.69 119.53 L 166.41 53.91 L 154.69 28.12 L 133.59 14.06 L 112.50 56.25 L 86.72 189.84 L 91.41 154.69 L 91.41 89.06 L 89.06 103.12 L 86.72 215.62 L 89.06 121.88 L 70.31 79.69 L 58.59 75.00 L 32.81 84.38 L 21.09 119.53 L 25.78 201.56 L 56.25 264.84 L 65.62 203.91 L 96.09 103.12 L 86.72 182.81 L 93.75 199.22 L 117.19 220.31 L 145.31 225.00 L 199.22 199.22 L 225.00 168.75 L 248.44 110.16 L 255.47 185.16 L 283.59 147.66 L 309.38 82.03 L 276.56 199.22 L 267.19 210.94 L 262.50 199.22 L 267.19 114.84 L 239.06 206.25" stroke="white" fill="transparent"/>
	<path d = "M 253.12 229.69 L 248.44 288.28 L 302.34 419.53 L 314.06 468.75 L 316.41 510.94 L 307.03 534.38 L 295.31 555.47 L 257.81 576.56 L 192.19 592.97 L 128.91 597.66 L 77.34 569.53 L 18.75 496.88 L 0.00 442.97 L 9.38 365.62 L 63.28 276.56 L 75.00 236.72 L 91.41 210.94" stroke="white" fill="transparent"/>
	<path d = "M 260.16 344.53 L 253.12 384.38 L 243.75 393.75 L 171.09 360.94 L 131.25 405.47 L 112.50 393.75 L 75.00 346.88 L 39.84 386.72 L 28.12 391.41 L 16.41 351.56" stroke="white" fill="transparent"/>
	<path d = "M 18.75 337.50 L 72.66 363.28 L 91.41 393.75" stroke="white" fill="transparent"/>
</svg>