<?xml version="1.0" encoding="UTF-8" standalone="no"?>
<!--Created with ndjsontosvg (https:https://github.com/thompson318/ndjsontosvg) 
	from the simplified Google quickdraw data set. key_id = 5866793899917312-->
<svg width="600" height="600"
	xmlns="http://www.w3.org/2000/svg">
	xmlns:ndjsontosvg="https://github.com/thompson318/ndjsontosvg"
	xmlns:quickdraw="https://quickdraw.withgoogle.com/data"
	xmlns:scikit-surgery="https://doi.org/10.1007/s11548-020-02180-5">

	<rect width="100%" height="100%" fill="black" />
	<path d = "M 194.53 236.72 L 119.53 271.88 L 58.59 330.47 L 14.06 410.16 L 0.00 492.19 L 4.69 515.62 L 25.78 553.12 L 77.34 588.28 L 161.72 595.31 L 229.69 571.88 L 285.94 522.66 L 316.41 473.44 L 335.16 389.06 L 335.16 302.34 L 325.78 269.53 L 300.00 243.75 L 267.19 236.72 L 189.84 239.06" stroke="white" fill="transparent"/>
	<path d = "M 189.84 232.03 L 178.12 194.53 L 117.19 145.31 L 56.25 126.56 L 21.09 138.28 L 46.88 126.56 L 96.09 121.88 L 145.31 138.28 L 203.91 185.16" stroke="white" fill="transparent"/>
	<path d = "M 206.25 194.53 L 225.00 105.47 L 264.84 35.16 L 295.31 11.72 L 335.16 0.00 L 278.91 72.66 L 246.09 152.34" stroke="white" fill="transparent"/>
	<path d = "M 241.41 178.12 L 283.59 121.88 L 325.78 91.41 L 389.06 70.31 L 438.28 70.31 L 428.91 84.38 L 311.72 173.44 L 236.72 264.84" stroke="white" fill="transparent"/>
	<path d = "M 217.97 110.16 L 140.62 32.81 L 117.19 16.41 L 105.47 30.47 L 105.47 49.22 L 166.41 203.91" stroke="white" fill="transparent"/>
</svg>