<?xml version="1.0" encoding="UTF-8" standalone="no"?>
<!--Created with ndjsontosvg (https:https://github.com/thompson318/ndjsontosvg) 
	from the simplified Google quickdraw data set. key_id = 5899088937615360-->
<svg width="600" height="600"
	xmlns="http://www.w3.org/2000/svg">
	xmlns:ndjsontosvg="https://github.com/thompson318/ndjsontosvg"
	xmlns:quickdraw="https://quickdraw.withgoogle.com/data"
	xmlns:scikit-surgery="https://doi.org/10.1007/s11548-020-02180-5">

	<rect width="100%" height="100%" fill="black" />
	<path d = "M 159.38 173.44 L 100.78 185.16 L 65.62 203.91 L 39.84 236.72 L 9.38 332.81 L 14.06 433.59 L 51.56 532.03 L 100.78 567.19 L 138.28 578.91 L 175.78 578.91 L 255.47 543.75 L 304.69 501.56 L 335.16 457.03 L 375.00 375.00 L 391.41 285.94 L 379.69 213.28 L 358.59 175.78 L 318.75 140.62 L 276.56 126.56 L 232.03 121.88 L 185.16 128.91 L 138.28 147.66 L 110.16 171.09 L 100.78 213.28" stroke="white" fill="transparent"/>
	<path d = "M 150.00 138.28 L 110.16 262.50 L 100.78 353.91 L 105.47 541.41 L 117.19 574.22 L 128.91 576.56" stroke="white" fill="transparent"/>
	<path d = "M 250.78 91.41 L 213.28 189.84 L 199.22 248.44 L 185.16 520.31 L 194.53 597.66" stroke="white" fill="transparent"/>
	<path d = "M 318.75 166.41 L 274.22 459.38 L 269.53 592.97" stroke="white" fill="transparent"/>
	<path d = "M 225.00 121.88 L 255.47 157.03 L 349.22 302.34 L 407.81 426.56" stroke="white" fill="transparent"/>
	<path d = "M 112.50 178.12 L 281.25 414.84 L 344.53 529.69" stroke="white" fill="transparent"/>
	<path d = "M 32.81 257.81 L 79.69 325.78 L 199.22 550.78 L 241.41 590.62" stroke="white" fill="transparent"/>
	<path d = "M 107.81 182.81 L 147.66 267.19 L 283.59 471.09 L 318.75 539.06" stroke="white" fill="transparent"/>
	<path d = "M 0.00 363.28 L 150.00 543.75" stroke="white" fill="transparent"/>
	<path d = "M 91.41 124.22 L 103.12 117.19 L 105.47 105.47 L 63.28 28.12 L 100.78 72.66 L 119.53 107.81 L 126.56 168.75 L 114.84 208.59 L 107.81 196.88 L 100.78 39.84 L 124.22 51.56 L 196.88 119.53 L 220.31 63.28 L 241.41 53.91 L 281.25 56.25 L 295.31 65.62 L 311.72 119.53 L 342.19 93.75 L 386.72 65.62 L 442.97 53.91 L 485.16 58.59 L 501.56 70.31 L 499.22 91.41 L 421.88 173.44 L 389.06 229.69 L 457.03 145.31 L 557.81 44.53" stroke="white" fill="transparent"/>
	<path d = "M 356.25 110.16 L 351.56 91.41 L 360.94 82.03 L 459.38 72.66 L 527.34 44.53 L 578.91 14.06" stroke="white" fill="transparent"/>
	<path d = "M 314.06 157.03 L 309.38 77.34 L 318.75 2.34 L 328.12 0.00" stroke="white" fill="transparent"/>
</svg>