<?xml version="1.0" encoding="UTF-8" standalone="no"?>
<!--Created with ndjsontosvg (https:https://github.com/thompson318/ndjsontosvg) 
	from the simplified Google quickdraw data set. key_id = 5772842111074304-->
<svg width="600" height="600"
	xmlns="http://www.w3.org/2000/svg">
	xmlns:ndjsontosvg="https://github.com/thompson318/ndjsontosvg"
	xmlns:quickdraw="https://quickdraw.withgoogle.com/data"
	xmlns:scikit-surgery="https://doi.org/10.1007/s11548-020-02180-5">

	<rect width="100%" height="100%" fill="black" />
	<path d = "M 281.25 208.59 L 311.72 138.28 L 382.03 44.53 L 433.59 7.03 L 457.03 0.00 L 464.06 14.06 L 459.38 51.56 L 412.50 112.50 L 358.59 154.69 L 304.69 182.81" stroke="white" fill="transparent"/>
	<path d = "M 271.88 220.31 L 264.84 121.88 L 241.41 63.28 L 189.84 14.06 L 150.00 0.00 L 126.56 0.00 L 121.88 9.38 L 126.56 39.84 L 142.97 63.28 L 203.91 131.25 L 276.56 189.84" stroke="white" fill="transparent"/>
	<path d = "M 262.50 210.94 L 241.41 187.50 L 157.03 135.94 L 56.25 100.78 L 4.69 98.44 L 0.00 114.84 L 39.84 140.62 L 112.50 168.75 L 278.91 213.28" stroke="white" fill="transparent"/>
	<path d = "M 307.03 192.19 L 346.88 225.00 L 386.72 276.56 L 400.78 321.09 L 407.81 393.75 L 407.81 471.09 L 393.75 522.66 L 365.62 564.84 L 323.44 588.28 L 253.12 597.66 L 208.59 574.22 L 140.62 506.25 L 107.81 461.72 L 96.09 433.59 L 96.09 379.69 L 128.91 314.06 L 189.84 248.44 L 250.78 213.28" stroke="white" fill="transparent"/>
	<path d = "M 351.56 264.84 L 255.47 253.12 L 189.84 253.12" stroke="white" fill="transparent"/>
	<path d = "M 375.00 314.06 L 135.94 304.69" stroke="white" fill="transparent"/>
	<path d = "M 386.72 391.41 L 152.34 379.69" stroke="white" fill="transparent"/>
	<path d = "M 398.44 459.38 L 112.50 442.97" stroke="white" fill="transparent"/>
</svg>