<?xml version="1.0" encoding="UTF-8" standalone="no"?>
<!--Created with ndjsontosvg (https:https://github.com/thompson318/ndjsontosvg) 
	from the simplified Google quickdraw data set. key_id = 6022618404618240-->
<svg width="600" height="600"
	xmlns="http://www.w3.org/2000/svg">
	xmlns:ndjsontosvg="https://github.com/thompson318/ndjsontosvg"
	xmlns:quickdraw="https://quickdraw.withgoogle.com/data"
	xmlns:scikit-surgery="https://doi.org/10.1007/s11548-020-02180-5">

	<rect width="100%" height="100%" fill="black" />
	<path d = "M 309.38 133.59 L 276.56 133.59 L 145.31 210.94 L 77.34 269.53 L 28.12 330.47 L 2.34 393.75 L 0.00 452.34 L 28.12 510.94 L 96.09 557.81 L 208.59 588.28 L 330.47 597.66 L 377.34 592.97 L 421.88 578.91 L 468.75 546.09 L 496.88 510.94 L 515.62 466.41 L 532.03 393.75 L 532.03 328.12 L 510.94 264.84 L 447.66 201.56" stroke="white" fill="transparent"/>
	<path d = "M 307.03 128.91 L 285.94 65.62 L 285.94 0.00 L 339.84 98.44 L 349.22 100.78 L 442.97 0.00 L 433.59 60.94 L 403.12 147.66 L 424.22 150.00 L 567.19 119.53 L 560.16 128.91 L 457.03 175.78 L 571.88 213.28 L 571.88 220.31 L 377.34 225.00" stroke="white" fill="transparent"/>
	<path d = "M 260.16 241.41 L 248.44 283.59 L 260.16 295.31 L 309.38 288.28 L 351.56 264.84" stroke="white" fill="transparent"/>
	<path d = "M 367.97 264.84 L 370.31 328.12 L 412.50 325.78 L 450.00 307.03" stroke="white" fill="transparent"/>
	<path d = "M 157.03 274.22 L 128.91 335.16 L 140.62 344.53 L 175.78 342.19" stroke="white" fill="transparent"/>
</svg>