<?xml version="1.0" encoding="UTF-8" standalone="no"?>
<!--Created with ndjsontosvg (https:https://github.com/thompson318/ndjsontosvg) 
	from the simplified Google quickdraw data set. key_id = 6536615864303616-->
<svg width="600" height="600"
	xmlns="http://www.w3.org/2000/svg">
	xmlns:ndjsontosvg="https://github.com/thompson318/ndjsontosvg"
	xmlns:quickdraw="https://quickdraw.withgoogle.com/data"
	xmlns:scikit-surgery="https://doi.org/10.1007/s11548-020-02180-5">

	<rect width="100%" height="100%" fill="black" />
	<path d = "M 11.72 9.38 L 56.25 241.41 L 72.66 541.41 L 84.38 597.66 L 93.75 588.28 L 117.19 543.75 L 133.59 499.22 L 180.47 412.50 L 243.75 311.72 L 304.69 220.31 L 330.47 196.88 L 398.44 91.41 L 426.56 63.28 L 412.50 56.25 L 278.91 49.22 L 7.03 0.00 L 0.00 9.38 L 11.72 42.19 L 39.84 65.62 L 182.81 72.66 L 250.78 103.12 L 407.81 142.97" stroke="white" fill="transparent"/>
	<path d = "M 145.31 131.25 L 164.06 210.94 L 133.59 215.62 L 100.78 194.53 L 100.78 164.06 L 107.81 152.34 L 128.91 142.97 L 135.94 152.34" stroke="white" fill="transparent"/>
	<path d = "M 236.72 161.72 L 248.44 164.06 L 250.78 196.88 L 217.97 201.56 L 213.28 166.41 L 229.69 157.03" stroke="white" fill="transparent"/>
</svg>