<?xml version="1.0" encoding="UTF-8" standalone="no"?>
<!--Created with ndjsontosvg (https:https://github.com/thompson318/ndjsontosvg) 
	from the simplified Google quickdraw data set. key_id = 5335351931437056-->
<svg width="600" height="600"
	xmlns="http://www.w3.org/2000/svg">
	xmlns:ndjsontosvg="https://github.com/thompson318/ndjsontosvg"
	xmlns:quickdraw="https://quickdraw.withgoogle.com/data"
	xmlns:scikit-surgery="https://doi.org/10.1007/s11548-020-02180-5">

	<rect width="100%" height="100%" fill="black" />
	<path d = "M 16.41 11.72 L 32.81 18.75 L 124.22 208.59 L 145.31 349.22 L 168.75 412.50 L 185.16 485.16 L 227.34 564.84 L 255.47 583.59 L 264.84 597.66 L 278.91 592.97 L 288.28 578.91 L 295.31 532.03 L 337.50 405.47 L 356.25 309.38 L 379.69 243.75 L 386.72 117.19 L 386.72 89.06 L 379.69 70.31 L 335.16 28.12 L 208.59 32.81 L 131.25 16.41 L 100.78 0.00 L 0.00 4.69" stroke="white" fill="transparent"/>
	<path d = "M 168.75 128.91 L 152.34 180.47 L 161.72 213.28 L 192.19 210.94 L 241.41 161.72 L 241.41 145.31 L 232.03 131.25 L 210.94 131.25" stroke="white" fill="transparent"/>
	<path d = "M 213.28 321.09 L 215.62 367.97 L 264.84 389.06 L 283.59 375.00 L 304.69 335.16 L 304.69 323.44 L 262.50 307.03 L 241.41 330.47" stroke="white" fill="transparent"/>
	<path d = "M 213.28 445.31 L 222.66 515.62 L 234.38 515.62 L 276.56 457.03 L 243.75 447.66 L 241.41 440.62" stroke="white" fill="transparent"/>
	<path d = "M 307.03 91.41 L 309.38 199.22 L 323.44 206.25 L 346.88 164.06 L 344.53 112.50 L 309.38 56.25" stroke="white" fill="transparent"/>
	<path d = "M 145.31 63.28 L 131.25 56.25 L 152.34 82.03 L 157.03 60.94" stroke="white" fill="transparent"/>
</svg>