<?xml version="1.0" encoding="UTF-8" standalone="no"?>
<!--Created with ndjsontosvg (https:https://github.com/thompson318/ndjsontosvg) 
	from the simplified Google quickdraw data set. key_id = 5464284177891328-->
<svg width="600" height="600"
	xmlns="http://www.w3.org/2000/svg">
	xmlns:ndjsontosvg="https://github.com/thompson318/ndjsontosvg"
	xmlns:quickdraw="https://quickdraw.withgoogle.com/data"
	xmlns:scikit-surgery="https://doi.org/10.1007/s11548-020-02180-5">

	<rect width="100%" height="100%" fill="black" />
	<path d = "M 7.03 93.75 L 56.25 180.47 L 145.31 288.28 L 217.97 391.41 L 311.72 543.75 L 356.25 592.97 L 367.97 595.31 L 450.00 241.41 L 517.97 0.00 L 417.19 2.34 L 112.50 51.56 L 37.50 72.66 L 0.00 96.09" stroke="white" fill="transparent"/>
	<path d = "M 51.56 166.41 L 164.06 133.59 L 337.50 105.47 L 431.25 105.47 L 485.16 112.50" stroke="white" fill="transparent"/>
	<path d = "M 208.59 208.59 L 192.19 217.97 L 180.47 241.41 L 217.97 278.91 L 248.44 288.28 L 278.91 288.28 L 285.94 278.91 L 295.31 257.81 L 295.31 227.34 L 264.84 206.25 L 201.56 199.22" stroke="white" fill="transparent"/>
	<path d = "M 398.44 159.38 L 375.00 180.47 L 363.28 217.97 L 372.66 239.06 L 396.09 250.78 L 431.25 243.75 L 440.62 229.69 L 442.97 199.22 L 424.22 168.75 L 400.78 157.03 L 370.31 157.03" stroke="white" fill="transparent"/>
	<path d = "M 295.31 358.59 L 269.53 360.94 L 283.59 407.81 L 309.38 428.91 L 328.12 424.22 L 332.81 412.50 L 337.50 356.25 L 321.09 328.12 L 300.00 325.78 L 290.62 337.50" stroke="white" fill="transparent"/>
</svg>