<?xml version="1.0" encoding="UTF-8" standalone="no"?>
<!--Created with ndjsontosvg (https:https://github.com/thompson318/ndjsontosvg) 
	from the simplified Google quickdraw data set. key_id = 5190827053678592-->
<svg width="600" height="600"
	xmlns="http://www.w3.org/2000/svg">
	xmlns:ndjsontosvg="https://github.com/thompson318/ndjsontosvg"
	xmlns:quickdraw="https://quickdraw.withgoogle.com/data"
	xmlns:scikit-surgery="https://doi.org/10.1007/s11548-020-02180-5">

	<rect width="100%" height="100%" fill="black" />
	<path d = "M 171.09 58.59 L 107.81 114.84 L 65.62 178.12 L 42.19 234.38 L 37.50 307.03 L 49.22 459.38 L 72.66 492.19 L 119.53 539.06 L 227.34 592.97 L 276.56 597.66 L 323.44 588.28 L 393.75 564.84 L 433.59 541.41 L 461.72 515.62 L 487.50 475.78 L 515.62 407.81 L 525.00 358.59 L 527.34 297.66 L 517.97 246.09 L 475.78 142.97 L 445.31 103.12 L 412.50 70.31 L 375.00 49.22 L 328.12 35.16 L 225.00 37.50 L 147.66 77.34" stroke="white" fill="transparent"/>
	<path d = "M 274.22 0.00 L 250.78 569.53" stroke="white" fill="transparent"/>
	<path d = "M 0.00 311.72 L 489.84 325.78" stroke="white" fill="transparent"/>
	<path d = "M 435.94 128.91 L 353.91 210.94 L 175.78 428.91 L 100.78 503.91" stroke="white" fill="transparent"/>
	<path d = "M 70.31 131.25 L 110.16 182.81 L 222.66 295.31 L 450.00 515.62" stroke="white" fill="transparent"/>
	<path d = "M 300.00 103.12 L 314.06 121.88" stroke="white" fill="transparent"/>
</svg>