<?xml version="1.0" encoding="UTF-8" standalone="no"?>
<!--Created with ndjsontosvg (https:https://github.com/thompson318/ndjsontosvg) 
	from the simplified Google quickdraw data set. key_id = 5635307783323648-->
<svg width="600" height="600"
	xmlns="http://www.w3.org/2000/svg">
	xmlns:ndjsontosvg="https://github.com/thompson318/ndjsontosvg"
	xmlns:quickdraw="https://quickdraw.withgoogle.com/data"
	xmlns:scikit-surgery="https://doi.org/10.1007/s11548-020-02180-5">

	<rect width="100%" height="100%" fill="black" />
	<path d = "M 79.69 150.00 L 82.03 7.03 L 67.97 0.00 L 25.78 16.41 L 14.06 28.12 L 2.34 142.97 L 14.06 171.09" stroke="white" fill="transparent"/>
	<path d = "M 178.12 147.66 L 187.50 121.88 L 187.50 9.38 L 220.31 35.16 L 260.16 93.75 L 260.16 135.94 L 253.12 157.03 L 232.03 178.12" stroke="white" fill="transparent"/>
	<path d = "M 75.00 131.25 L 79.69 168.75 L 89.06 187.50 L 124.22 229.69 L 206.25 285.94 L 269.53 391.41 L 332.81 571.88 L 332.81 588.28 L 304.69 597.66 L 278.91 597.66 L 267.19 585.94 L 199.22 379.69 L 157.03 330.47 L 63.28 283.59 L 32.81 229.69 L 0.00 138.28" stroke="white" fill="transparent"/>
	<path d = "M 175.78 131.25 L 166.41 145.31 L 161.72 187.50 L 96.09 246.09" stroke="white" fill="transparent"/>
	<path d = "M 234.38 180.47 L 217.97 213.28 L 168.75 267.19 L 157.03 290.62" stroke="white" fill="transparent"/>
</svg>