<?xml version="1.0" encoding="UTF-8" standalone="no"?>
<!--Created with ndjsontosvg (https:https://github.com/thompson318/ndjsontosvg) 
	from the simplified Google quickdraw data set. key_id = 5044581336875008-->
<svg width="600" height="600"
	xmlns="http://www.w3.org/2000/svg">
	xmlns:ndjsontosvg="https://github.com/thompson318/ndjsontosvg"
	xmlns:quickdraw="https://quickdraw.withgoogle.com/data"
	xmlns:scikit-surgery="https://doi.org/10.1007/s11548-020-02180-5">

	<rect width="100%" height="100%" fill="black" />
	<path d = "M 0.00 0.00 L 124.22 60.94 L 150.00 96.09 L 178.12 164.06 L 206.25 201.56 L 288.28 377.34 L 316.41 344.53 L 358.59 260.16 L 473.44 124.22 L 508.59 96.09 L 536.72 60.94 L 501.56 67.97 L 452.34 171.09 L 328.12 351.56 L 274.22 419.53 L 241.41 426.56 L 171.09 529.69 L 138.28 555.47 L 173.44 548.44 L 239.06 501.56 L 260.16 466.41 L 267.19 433.59 L 232.03 461.72 L 178.12 597.66 L 213.28 597.66 L 248.44 520.31 L 253.12 419.53 L 269.53 384.38 L 302.34 370.31 L 344.53 454.69 L 370.31 562.50 L 384.38 522.66 L 363.28 487.50 L 330.47 466.41 L 295.31 459.38 L 295.31 494.53 L 309.38 527.34 L 337.50 562.50 L 370.31 583.59 L 391.41 550.78 L 377.34 515.62 L 309.38 452.34" stroke="white" fill="transparent"/>
</svg>