<?xml version="1.0" encoding="UTF-8" standalone="no"?>
<!--Created with ndjsontosvg (https:https://github.com/thompson318/ndjsontosvg) 
	from the simplified Google quickdraw data set. key_id = 5799413450539008-->
<svg width="600" height="600"
	xmlns="http://www.w3.org/2000/svg">
	xmlns:ndjsontosvg="https://github.com/thompson318/ndjsontosvg"
	xmlns:quickdraw="https://quickdraw.withgoogle.com/data"
	xmlns:scikit-surgery="https://doi.org/10.1007/s11548-020-02180-5">

	<rect width="100%" height="100%" fill="black" />
	<path d = "M 360.94 103.12 L 98.44 363.28 L 7.03 428.91 L 0.00 459.38 L 23.44 471.09 L 65.62 471.09 L 124.22 438.28 L 255.47 342.19 L 428.91 175.78" stroke="white" fill="transparent"/>
	<path d = "M 440.62 175.78 L 440.62 201.56 L 339.84 330.47 L 217.97 508.59 L 215.62 539.06 L 243.75 550.78 L 304.69 553.12 L 332.81 534.38 L 365.62 494.53 L 398.44 421.88 L 485.16 187.50 L 480.47 173.44 L 377.34 140.62 L 351.56 121.88 L 339.84 100.78 L 438.28 25.78 L 475.78 4.69 L 503.91 0.00 L 506.25 28.12 L 410.16 100.78 L 386.72 133.59 L 382.03 145.31 L 389.06 145.31 L 588.28 32.81 L 597.66 21.09 L 588.28 9.38 L 567.19 7.03 L 541.41 28.12 L 510.94 60.94 L 496.88 110.16 L 464.06 150.00 L 464.06 131.25 L 564.84 28.12 L 569.53 35.16 L 543.75 82.03 L 489.84 142.97 L 431.25 185.16" stroke="white" fill="transparent"/>
</svg>