<?xml version="1.0" encoding="UTF-8" standalone="no"?>
<!--Created with ndjsontosvg (https:https://github.com/thompson318/ndjsontosvg) 
	from the simplified Google quickdraw data set. key_id = 5183710963957760-->
<svg width="600" height="600"
	xmlns="http://www.w3.org/2000/svg">
	xmlns:ndjsontosvg="https://github.com/thompson318/ndjsontosvg"
	xmlns:quickdraw="https://quickdraw.withgoogle.com/data"
	xmlns:scikit-surgery="https://doi.org/10.1007/s11548-020-02180-5">

	<rect width="100%" height="100%" fill="black" />
	<path d = "M 152.34 213.28 L 112.50 295.31 L 72.66 452.34 L 2.34 590.62 L 0.00 571.88 L 23.44 466.41 L 65.62 382.03 L 105.47 276.56 L 128.91 175.78" stroke="white" fill="transparent"/>
	<path d = "M 166.41 220.31 L 180.47 414.84 L 166.41 534.38 L 185.16 595.31 L 203.91 592.97 L 215.62 569.53 L 220.31 471.09 L 196.88 337.50 L 196.88 241.41 L 187.50 187.50 L 253.12 107.81 L 267.19 53.91 L 257.81 11.72 L 241.41 0.00 L 220.31 4.69 L 152.34 82.03 L 140.62 135.94 L 140.62 187.50 L 145.31 187.50" stroke="white" fill="transparent"/>
</svg>