<?xml version="1.0" encoding="UTF-8" standalone="no"?>
<!--Created with ndjsontosvg (https:https://github.com/thompson318/ndjsontosvg) 
	from the simplified Google quickdraw data set. key_id = 6312442575454208-->
<svg width="600" height="600"
	xmlns="http://www.w3.org/2000/svg">
	xmlns:ndjsontosvg="https://github.com/thompson318/ndjsontosvg"
	xmlns:quickdraw="https://quickdraw.withgoogle.com/data"
	xmlns:scikit-surgery="https://doi.org/10.1007/s11548-020-02180-5">

	<rect width="100%" height="100%" fill="black" />
	<path d = "M 18.75 215.62 L 4.69 290.62 L 0.00 365.62 L 0.00 482.81 L 16.41 588.28" stroke="white" fill="transparent"/>
	<path d = "M 278.91 248.44 L 152.34 438.28 L 105.47 543.75 L 63.28 581.25 L 28.12 585.94" stroke="white" fill="transparent"/>
	<path d = "M 86.72 215.62 L 70.31 274.22 L 77.34 487.50 L 89.06 482.81 L 189.84 271.88 L 201.56 229.69 L 210.94 229.69 L 250.78 264.84" stroke="white" fill="transparent"/>
	<path d = "M 93.75 206.25 L 53.91 239.06 L 30.47 227.34" stroke="white" fill="transparent"/>
	<path d = "M 49.22 152.34 L 28.12 168.75 L 14.06 35.16 L 32.81 30.47 L 37.50 39.84 L 23.44 135.94 L 23.44 203.91 L 35.16 208.59" stroke="white" fill="transparent"/>
	<path d = "M 98.44 180.47 L 96.09 168.75 L 133.59 18.75 L 138.28 0.00 L 147.66 0.00 L 152.34 51.56 L 121.88 131.25 L 77.34 175.78 L 77.34 185.16 L 89.06 171.09 L 138.28 49.22 L 147.66 14.06 L 133.59 42.19" stroke="white" fill="transparent"/>
</svg>