<?xml version="1.0" encoding="UTF-8" standalone="no"?>
<!--Created with ndjsontosvg (https:https://github.com/thompson318/ndjsontosvg) 
	from the simplified Google quickdraw data set. key_id = 5429769002811392-->
<svg width="600" height="600"
	xmlns="http://www.w3.org/2000/svg">
	xmlns:ndjsontosvg="https://github.com/thompson318/ndjsontosvg"
	xmlns:quickdraw="https://quickdraw.withgoogle.com/data"
	xmlns:scikit-surgery="https://doi.org/10.1007/s11548-020-02180-5">

	<rect width="100%" height="100%" fill="black" />
	<path d = "M 166.41 367.97 L 114.84 351.56 L 107.81 360.94 L 107.81 382.03 L 124.22 393.75 L 189.84 403.12 L 192.19 375.00 L 154.69 337.50 L 192.19 351.56" stroke="white" fill="transparent"/>
	<path d = "M 532.03 358.59 L 517.97 370.31 L 506.25 405.47 L 517.97 417.19 L 564.84 426.56 L 571.88 417.19 L 567.19 400.78 L 534.38 367.97" stroke="white" fill="transparent"/>
	<path d = "M 67.97 356.25 L 103.12 330.47 L 187.50 321.09 L 210.94 335.16 L 239.06 375.00 L 330.47 407.81 L 417.19 414.84 L 457.03 407.81 L 527.34 358.59 L 560.16 346.88 L 576.56 356.25 L 581.25 389.06 L 597.66 332.81 L 595.31 302.34 L 541.41 210.94 L 532.03 182.81 L 517.97 166.41 L 494.53 152.34 L 421.88 138.28 L 217.97 138.28 L 199.22 145.31 L 131.25 253.12 L 105.47 262.50 L 23.44 269.53 L 2.34 295.31 L 0.00 309.38 L 86.72 346.88 L 171.09 335.16" stroke="white" fill="transparent"/>
	<path d = "M 300.00 110.16 L 339.84 35.16 L 360.94 51.56 L 360.94 89.06" stroke="white" fill="transparent"/>
	<path d = "M 295.31 30.47 L 288.28 25.78" stroke="white" fill="transparent"/>
	<path d = "M 330.47 9.38 L 335.16 0.00" stroke="white" fill="transparent"/>
	<path d = "M 396.09 2.34 L 396.09 2.34" stroke="white" fill="transparent"/>
</svg>