<?xml version="1.0" encoding="UTF-8" standalone="no"?>
<!--Created with ndjsontosvg (https:https://github.com/thompson318/ndjsontosvg) 
	from the simplified Google quickdraw data set. key_id = 6470655648202752-->
<svg width="600" height="600"
	xmlns="http://www.w3.org/2000/svg">
	xmlns:ndjsontosvg="https://github.com/thompson318/ndjsontosvg"
	xmlns:quickdraw="https://quickdraw.withgoogle.com/data"
	xmlns:scikit-surgery="https://doi.org/10.1007/s11548-020-02180-5">

	<rect width="100%" height="100%" fill="black" />
	<path d = "M 140.62 201.56 L 161.72 93.75 L 182.81 42.19 L 262.50 25.78 L 370.31 16.41 L 391.41 18.75 L 403.12 32.81 L 454.69 203.91 L 435.94 210.94 L 199.22 217.97 L 9.38 232.03 L 0.00 283.59 L 2.34 386.72 L 7.03 424.22 L 21.09 431.25 L 164.06 428.91 L 194.53 346.88 L 215.62 328.12 L 236.72 321.09 L 274.22 344.53 L 302.34 405.47 L 346.88 424.22 L 370.31 426.56 L 384.38 410.16 L 414.84 330.47 L 426.56 318.75 L 452.34 314.06 L 473.44 323.44 L 487.50 344.53 L 496.88 379.69 L 494.53 410.16 L 583.59 400.78 L 595.31 363.28 L 597.66 215.62 L 543.75 203.91 L 466.41 206.25" stroke="white" fill="transparent"/>
	<path d = "M 302.34 0.00 L 302.34 0.00" stroke="white" fill="transparent"/>
</svg>