<?xml version="1.0" encoding="UTF-8" standalone="no"?>
<!--Created with ndjsontosvg (https:https://github.com/thompson318/ndjsontosvg) 
	from the simplified Google quickdraw data set. key_id = 6683446564880384-->
<svg width="600" height="600"
	xmlns="http://www.w3.org/2000/svg">
	xmlns:ndjsontosvg="https://github.com/thompson318/ndjsontosvg"
	xmlns:quickdraw="https://quickdraw.withgoogle.com/data"
	xmlns:scikit-surgery="https://doi.org/10.1007/s11548-020-02180-5">

	<rect width="100%" height="100%" fill="black" />
	<path d = "M 199.22 131.25 L 96.09 135.94 L 60.94 147.66 L 18.75 173.44 L 2.34 210.94 L 0.00 241.41 L 46.88 264.84 L 98.44 269.53 L 150.00 262.50 L 154.69 217.97 L 173.44 206.25 L 225.00 208.59 L 234.38 236.72 L 264.84 248.44 L 377.34 248.44 L 384.38 203.91 L 400.78 192.19 L 426.56 196.88 L 442.97 236.72 L 468.75 248.44 L 546.09 248.44 L 595.31 220.31 L 597.66 201.56 L 576.56 178.12 L 550.78 166.41 L 485.16 166.41 L 428.91 105.47 L 379.69 77.34 L 351.56 67.97 L 262.50 63.28 L 201.56 119.53 L 189.84 142.97 L 187.50 171.09" stroke="white" fill="transparent"/>
	<path d = "M 192.19 213.28 L 182.81 215.62 L 180.47 229.69 L 208.59 243.75 L 213.28 234.38 L 189.84 215.62" stroke="white" fill="transparent"/>
	<path d = "M 403.12 210.94 L 396.09 213.28 L 396.09 229.69 L 412.50 234.38 L 419.53 217.97 L 370.31 196.88" stroke="white" fill="transparent"/>
	<path d = "M 292.97 58.59 L 243.75 14.06 L 246.09 4.69 L 255.47 0.00 L 278.91 0.00 L 403.12 58.59 L 407.81 67.97 L 389.06 77.34 L 346.88 79.69 L 309.38 65.62 L 271.88 39.84" stroke="white" fill="transparent"/>
	<path d = "M 269.53 25.78 L 292.97 14.06" stroke="white" fill="transparent"/>
	<path d = "M 302.34 51.56 L 323.44 39.84" stroke="white" fill="transparent"/>
	<path d = "M 349.22 67.97 L 365.62 44.53" stroke="white" fill="transparent"/>
</svg>