<?xml version="1.0" encoding="UTF-8" standalone="no"?>
<!--Created with ndjsontosvg (https:https://github.com/thompson318/ndjsontosvg) 
	from the simplified Google quickdraw data set. key_id = 5396293490835456-->
<svg width="600" height="600"
	xmlns="http://www.w3.org/2000/svg">
	xmlns:ndjsontosvg="https://github.com/thompson318/ndjsontosvg"
	xmlns:quickdraw="https://quickdraw.withgoogle.com/data"
	xmlns:scikit-surgery="https://doi.org/10.1007/s11548-020-02180-5">

	<rect width="100%" height="100%" fill="black" />
	<path d = "M 433.59 18.75 L 419.53 7.03 L 370.31 0.00 L 337.50 0.00 L 304.69 11.72 L 285.94 56.25 L 271.88 70.31 L 105.47 157.03 L 75.00 185.16 L 23.44 250.78 L 0.00 316.41 L 4.69 386.72 L 18.75 403.12 L 56.25 428.91 L 128.91 440.62 L 225.00 440.62 L 250.78 433.59 L 311.72 398.44 L 367.97 339.84 L 450.00 342.19 L 494.53 358.59 L 520.31 358.59 L 567.19 311.72 L 595.31 248.44 L 592.97 107.81 L 546.09 75.00 L 503.91 60.94 L 459.38 23.44 L 428.91 18.75" stroke="white" fill="transparent"/>
</svg>