<?xml version="1.0" encoding="UTF-8" standalone="no"?>
<!--Created with ndjsontosvg (https:https://github.com/thompson318/ndjsontosvg) 
	from the simplified Google quickdraw data set. key_id = 6361422919368704-->
<svg width="600" height="600"
	xmlns="http://www.w3.org/2000/svg">
	xmlns:ndjsontosvg="https://github.com/thompson318/ndjsontosvg"
	xmlns:quickdraw="https://quickdraw.withgoogle.com/data"
	xmlns:scikit-surgery="https://doi.org/10.1007/s11548-020-02180-5">

	<rect width="100%" height="100%" fill="black" />
	<path d = "M 25.78 84.38 L 114.84 30.47 L 196.88 9.38 L 424.22 0.00 L 510.94 18.75 L 539.06 30.47 L 571.88 60.94 L 597.66 128.91 L 592.97 173.44 L 574.22 192.19 L 546.09 206.25 L 414.84 241.41 L 330.47 253.12 L 168.75 260.16 L 96.09 253.12 L 53.91 241.41 L 11.72 206.25 L 0.00 154.69 L 2.34 131.25 L 14.06 110.16 L 35.16 91.41 L 63.28 75.00" stroke="white" fill="transparent"/>
	<path d = "M 590.62 72.66 L 475.78 79.69 L 431.25 91.41 L 447.66 142.97 L 508.59 119.53 L 581.25 117.19" stroke="white" fill="transparent"/>
	<path d = "M 105.47 117.19 L 117.19 131.25 L 140.62 133.59 L 192.19 89.06 L 208.59 84.38 L 239.06 107.81 L 276.56 107.81 L 344.53 60.94 L 353.91 60.94 L 377.34 84.38 L 393.75 84.38" stroke="white" fill="transparent"/>
	<path d = "M 316.41 194.53 L 342.19 196.88 L 389.06 168.75 L 410.16 194.53 L 428.91 196.88 L 473.44 164.06 L 536.72 164.06" stroke="white" fill="transparent"/>
</svg>