<?xml version="1.0" encoding="UTF-8" standalone="no"?>
<!--Created with ndjsontosvg (https:https://github.com/thompson318/ndjsontosvg) 
	from the simplified Google quickdraw data set. key_id = 5336659459571712-->
<svg width="600" height="600"
	xmlns="http://www.w3.org/2000/svg">
	xmlns:ndjsontosvg="https://github.com/thompson318/ndjsontosvg"
	xmlns:quickdraw="https://quickdraw.withgoogle.com/data"
	xmlns:scikit-surgery="https://doi.org/10.1007/s11548-020-02180-5">

	<rect width="100%" height="100%" fill="black" />
	<path d = "M 84.38 4.69 L 46.88 65.62 L 14.06 147.66 L 0.00 236.72 L 0.00 356.25 L 28.12 375.00 L 213.28 370.31 L 222.66 356.25 L 229.69 262.50 L 206.25 194.53 L 189.84 105.47 L 175.78 77.34 L 119.53 7.03 L 105.47 0.00" stroke="white" fill="transparent"/>
	<path d = "M 67.97 375.00 L 58.59 520.31 L 86.72 595.31 L 105.47 597.66 L 114.84 564.84 L 114.84 492.19 L 100.78 389.06" stroke="white" fill="transparent"/>
	<path d = "M 131.25 370.31 L 131.25 501.56 L 138.28 546.09 L 154.69 581.25 L 166.41 592.97 L 182.81 595.31 L 192.19 560.16 L 192.19 508.59 L 150.00 360.94" stroke="white" fill="transparent"/>
</svg>