<?xml version="1.0" encoding="UTF-8" standalone="no"?>
<!--Created with ndjsontosvg (https:https://github.com/thompson318/ndjsontosvg) 
	from the simplified Google quickdraw data set. key_id = 5633552412573696-->
<svg width="600" height="600"
	xmlns="http://www.w3.org/2000/svg">
	xmlns:ndjsontosvg="https://github.com/thompson318/ndjsontosvg"
	xmlns:quickdraw="https://quickdraw.withgoogle.com/data"
	xmlns:scikit-surgery="https://doi.org/10.1007/s11548-020-02180-5">

	<rect width="100%" height="100%" fill="black" />
	<path d = "M 4.69 0.00 L 0.00 65.62 L 16.41 182.81 L 9.38 234.38 L 14.06 276.56 L 91.41 288.28 L 257.81 257.81 L 332.81 255.47 L 581.25 330.47 L 597.66 65.62 L 583.59 23.44 L 445.31 9.38 L 342.19 11.72 L 304.69 21.09 L 269.53 39.84 L 232.03 39.84 L 117.19 65.62 L 11.72 2.34" stroke="white" fill="transparent"/>
	<path d = "M 49.22 72.66 L 75.00 185.16 L 79.69 264.84 L 375.00 285.94 L 419.53 281.25 L 522.66 292.97 L 532.03 189.84 L 532.03 32.81 L 445.31 21.09 L 278.91 44.53 L 199.22 39.84" stroke="white" fill="transparent"/>
</svg>