<?xml version="1.0" encoding="UTF-8" standalone="no"?>
<!--Created with ndjsontosvg (https:https://github.com/thompson318/ndjsontosvg) 
	from the simplified Google quickdraw data set. key_id = 6556226819194880-->
<svg width="600" height="600"
	xmlns="http://www.w3.org/2000/svg">
	xmlns:ndjsontosvg="https://github.com/thompson318/ndjsontosvg"
	xmlns:quickdraw="https://quickdraw.withgoogle.com/data"
	xmlns:scikit-surgery="https://doi.org/10.1007/s11548-020-02180-5">

	<rect width="100%" height="100%" fill="black" />
	<path d = "M 0.00 67.97 L 9.38 84.38 L 25.78 196.88 L 25.78 377.34 L 39.84 403.12 L 121.88 407.81 L 260.16 356.25 L 367.97 335.16 L 569.53 311.72 L 595.31 300.00 L 571.88 70.31 L 553.12 2.34 L 454.69 25.78 L 124.22 37.50 L 82.03 65.62 L 25.78 56.25 L 2.34 70.31" stroke="white" fill="transparent"/>
	<path d = "M 433.59 44.53 L 445.31 110.16 L 466.41 154.69 L 494.53 152.34 L 546.09 114.84 L 532.03 53.91 L 452.34 53.91 L 412.50 63.28" stroke="white" fill="transparent"/>
	<path d = "M 142.97 166.41 L 189.84 154.69 L 307.03 154.69 L 370.31 145.31" stroke="white" fill="transparent"/>
	<path d = "M 164.06 283.59 L 164.06 283.59" stroke="white" fill="transparent"/>
</svg>