<?xml version="1.0" encoding="UTF-8" standalone="no"?>
<!--Created with ndjsontosvg (https:https://github.com/thompson318/ndjsontosvg) 
	from the simplified Google quickdraw data set. key_id = 6017651203637248-->
<svg width="600" height="600"
	xmlns="http://www.w3.org/2000/svg">
	xmlns:ndjsontosvg="https://github.com/thompson318/ndjsontosvg"
	xmlns:quickdraw="https://quickdraw.withgoogle.com/data"
	xmlns:scikit-surgery="https://doi.org/10.1007/s11548-020-02180-5">

	<rect width="100%" height="100%" fill="black" />
	<path d = "M 28.12 4.69 L 32.81 77.34 L 0.00 398.44 L 9.38 407.81 L 37.50 407.81 L 546.09 363.28 L 597.66 351.56 L 562.50 192.19 L 546.09 14.06 L 534.38 4.69 L 379.69 14.06 L 222.66 0.00 L 39.84 28.12" stroke="white" fill="transparent"/>
	<path d = "M 103.12 152.34 L 112.50 147.66 L 152.34 157.03 L 164.06 147.66 L 173.44 119.53 L 201.56 138.28" stroke="white" fill="transparent"/>
	<path d = "M 105.47 243.75 L 187.50 234.38" stroke="white" fill="transparent"/>
	<path d = "M 107.81 346.88 L 142.97 342.19 L 189.84 314.06 L 201.56 311.72 L 208.59 321.09" stroke="white" fill="transparent"/>
	<path d = "M 328.12 126.56 L 318.75 309.38 L 323.44 330.47 L 332.81 339.84 L 414.84 295.31 L 457.03 283.59 L 539.06 288.28 L 553.12 281.25 L 550.78 267.19 L 501.56 119.53 L 496.88 93.75 L 337.50 133.59 L 278.91 135.94" stroke="white" fill="transparent"/>
</svg>