<?xml version="1.0" encoding="UTF-8" standalone="no"?>
<!--Created with ndjsontosvg (https:https://github.com/thompson318/ndjsontosvg) 
	from the simplified Google quickdraw data set. key_id = 5124712675934208-->
<svg width="600" height="600"
	xmlns="http://www.w3.org/2000/svg">
	xmlns:ndjsontosvg="https://github.com/thompson318/ndjsontosvg"
	xmlns:quickdraw="https://quickdraw.withgoogle.com/data"
	xmlns:scikit-surgery="https://doi.org/10.1007/s11548-020-02180-5">

	<rect width="100%" height="100%" fill="black" />
	<path d = "M 0.00 44.53 L 126.56 35.16 L 581.25 30.47 L 588.28 96.09 L 585.94 393.75 L 569.53 405.47 L 0.00 410.16 L 16.41 203.91 L 16.41 0.00" stroke="white" fill="transparent"/>
	<path d = "M 325.78 39.84 L 323.44 225.00 L 309.38 349.22" stroke="white" fill="transparent"/>
	<path d = "M 536.72 44.53 L 496.88 86.72 L 499.22 131.25 L 597.66 133.59 L 576.56 49.22 L 480.47 49.22 L 492.19 145.31" stroke="white" fill="transparent"/>
	<path d = "M 28.12 65.62 L 30.47 96.09 L 67.97 84.38 L 77.34 114.84 L 96.09 124.22 L 138.28 124.22 L 182.81 114.84 L 208.59 124.22 L 227.34 114.84" stroke="white" fill="transparent"/>
	<path d = "M 72.66 199.22 L 67.97 236.72 L 75.00 239.06 L 114.84 225.00 L 135.94 232.03 L 189.84 232.03 L 222.66 222.66" stroke="white" fill="transparent"/>
	<path d = "M 403.12 103.12 L 414.84 100.78" stroke="white" fill="transparent"/>
</svg>