<?xml version="1.0" encoding="UTF-8" standalone="no"?>
<!--Created with ndjsontosvg (https:https://github.com/thompson318/ndjsontosvg) 
	from the simplified Google quickdraw data set. key_id = 4965843190415360-->
<svg width="600" height="600"
	xmlns="http://www.w3.org/2000/svg">
	xmlns:ndjsontosvg="https://github.com/thompson318/ndjsontosvg"
	xmlns:quickdraw="https://quickdraw.withgoogle.com/data"
	xmlns:scikit-surgery="https://doi.org/10.1007/s11548-020-02180-5">

	<rect width="100%" height="100%" fill="black" />
	<path d = "M 0.00 72.66 L 203.91 23.44 L 349.22 11.72 L 396.09 0.00 L 442.97 7.03 L 438.28 103.12 L 442.97 426.56 L 466.41 534.38 L 454.69 546.09 L 283.59 536.72 L 194.53 539.06 L 93.75 560.16 L 18.75 597.66 L 4.69 527.34 L 0.00 412.50 L 16.41 250.78 L 9.38 77.34 L 16.41 18.75 L 25.78 0.00" stroke="white" fill="transparent"/>
	<path d = "M 157.03 215.62 L 194.53 248.44 L 243.75 257.81 L 267.19 250.78 L 307.03 217.97 L 323.44 189.84 L 323.44 152.34 L 304.69 119.53 L 262.50 93.75 L 234.38 93.75 L 196.88 110.16 L 180.47 142.97 L 166.41 262.50" stroke="white" fill="transparent"/>
	<path d = "M 250.78 135.94 L 255.47 152.34" stroke="white" fill="transparent"/>
	<path d = "M 264.84 232.03 L 264.84 243.75" stroke="white" fill="transparent"/>
	<path d = "M 138.28 342.19 L 154.69 328.12 L 213.28 314.06 L 269.53 323.44 L 314.06 351.56 L 344.53 400.78 L 353.91 445.31 L 342.19 480.47 L 321.09 501.56 L 290.62 510.94 L 234.38 501.56 L 185.16 482.81 L 133.59 433.59 L 121.88 379.69 L 135.94 318.75 L 154.69 304.69 L 196.88 304.69" stroke="white" fill="transparent"/>
	<path d = "M 225.00 360.94 L 236.72 396.09" stroke="white" fill="transparent"/>
	<path d = "M 246.09 464.06 L 253.12 485.16" stroke="white" fill="transparent"/>
</svg>