<?xml version="1.0" encoding="UTF-8" standalone="no"?>
<!--Created with ndjsontosvg (https:https://github.com/thompson318/ndjsontosvg) 
	from the simplified Google quickdraw data set. key_id = 5852410104774656-->
<svg width="600" height="600"
	xmlns="http://www.w3.org/2000/svg">
	xmlns:ndjsontosvg="https://github.com/thompson318/ndjsontosvg"
	xmlns:quickdraw="https://quickdraw.withgoogle.com/data"
	xmlns:scikit-surgery="https://doi.org/10.1007/s11548-020-02180-5">

	<rect width="100%" height="100%" fill="black" />
	<path d = "M 0.00 11.72 L 14.06 271.88 L 16.41 597.66 L 412.50 515.62 L 421.88 503.91 L 410.16 255.47 L 403.12 215.62 L 377.34 178.12 L 367.97 154.69 L 363.28 60.94 L 346.88 51.56 L 304.69 51.56 L 189.84 65.62 L 100.78 23.44 L 2.34 0.00 L 16.41 11.72" stroke="white" fill="transparent"/>
	<path d = "M 150.00 67.97 L 157.03 124.22" stroke="white" fill="transparent"/>
	<path d = "M 229.69 65.62 L 229.69 96.09" stroke="white" fill="transparent"/>
	<path d = "M 178.12 187.50 L 187.50 173.44" stroke="white" fill="transparent"/>
	<path d = "M 84.38 302.34 L 91.41 396.09 L 100.78 391.41" stroke="white" fill="transparent"/>
	<path d = "M 227.34 257.81 L 227.34 346.88" stroke="white" fill="transparent"/>
	<path d = "M 164.06 412.50 L 164.06 412.50" stroke="white" fill="transparent"/>
	<path d = "M 147.66 431.25 L 166.41 421.88" stroke="white" fill="transparent"/>
	<path d = "M 93.75 332.81 L 159.38 328.12 L 217.97 311.72 L 246.09 417.19 L 229.69 424.22 L 119.53 426.56 L 63.28 447.66 L 60.94 435.94 L 103.12 332.81 L 107.81 257.81" stroke="white" fill="transparent"/>
</svg>