<?xml version="1.0" encoding="UTF-8" standalone="no"?>
<!--Created with ndjsontosvg (https:https://github.com/thompson318/ndjsontosvg) 
	from the simplified Google quickdraw data set. key_id = 4617112330960896-->
<svg width="600" height="600"
	xmlns="http://www.w3.org/2000/svg">
	xmlns:ndjsontosvg="https://github.com/thompson318/ndjsontosvg"
	xmlns:quickdraw="https://quickdraw.withgoogle.com/data"
	xmlns:scikit-surgery="https://doi.org/10.1007/s11548-020-02180-5">

	<rect width="100%" height="100%" fill="black" />
	<path d = "M 442.97 2.34 L 105.47 2.34 L 65.62 4.69 L 49.22 16.41 L 56.25 152.34 L 51.56 246.09 L 42.19 335.16 L 16.41 424.22 L 0.00 534.38 L 4.69 581.25 L 18.75 595.31 L 96.09 590.62 L 367.97 548.44 L 405.47 391.41 L 419.53 292.97 L 421.88 161.72 L 410.16 70.31" stroke="white" fill="transparent"/>
	<path d = "M 307.03 192.19 L 307.03 180.47 L 290.62 171.09 L 253.12 161.72 L 217.97 178.12 L 185.16 213.28 L 161.72 248.44 L 157.03 281.25 L 164.06 302.34 L 189.84 328.12 L 253.12 356.25 L 295.31 356.25 L 342.19 325.78 L 386.72 269.53 L 391.41 225.00 L 386.72 203.91 L 370.31 173.44 L 337.50 140.62 L 309.38 126.56 L 281.25 121.88 L 260.16 131.25 L 246.09 147.66" stroke="white" fill="transparent"/>
	<path d = "M 243.75 232.03 L 239.06 250.78 L 253.12 250.78" stroke="white" fill="transparent"/>
	<path d = "M 337.50 229.69 L 339.84 236.72" stroke="white" fill="transparent"/>
	<path d = "M 283.59 285.94 L 283.59 285.94" stroke="white" fill="transparent"/>
	<path d = "M 292.97 276.56 L 297.66 292.97" stroke="white" fill="transparent"/>
	<path d = "M 253.12 396.09 L 222.66 405.47 L 187.50 426.56 L 161.72 466.41 L 157.03 510.94 L 175.78 543.75 L 196.88 560.16 L 232.03 564.84 L 269.53 553.12 L 297.66 529.69 L 311.72 508.59 L 330.47 464.06 L 330.47 431.25 L 314.06 414.84 L 288.28 407.81 L 225.00 412.50" stroke="white" fill="transparent"/>
	<path d = "M 227.34 468.75 L 227.34 471.09" stroke="white" fill="transparent"/>
	<path d = "M 295.31 461.72 L 295.31 461.72" stroke="white" fill="transparent"/>
	<path d = "M 274.22 457.03 L 271.88 464.06 L 281.25 468.75 L 300.00 466.41" stroke="white" fill="transparent"/>
	<path d = "M 246.09 494.53 L 250.78 496.88" stroke="white" fill="transparent"/>
</svg>