<?xml version="1.0" encoding="UTF-8" standalone="no"?>
<!--Created with ndjsontosvg (https:https://github.com/thompson318/ndjsontosvg) 
	from the simplified Google quickdraw data set. key_id = 5218024594341888-->
<svg width="600" height="600"
	xmlns="http://www.w3.org/2000/svg">
	xmlns:ndjsontosvg="https://github.com/thompson318/ndjsontosvg"
	xmlns:quickdraw="https://quickdraw.withgoogle.com/data"
	xmlns:scikit-surgery="https://doi.org/10.1007/s11548-020-02180-5">

	<rect width="100%" height="100%" fill="black" />
	<path d = "M 46.88 51.56 L 18.75 140.62 L 0.00 478.12 L 0.00 592.97 L 147.66 597.66 L 309.38 583.59 L 356.25 562.50 L 370.31 550.78 L 386.72 517.97 L 386.72 459.38 L 367.97 307.03 L 372.66 9.38 L 353.91 0.00 L 295.31 2.34 L 107.81 39.84 L 37.50 63.28" stroke="white" fill="transparent"/>
	<path d = "M 53.91 65.62 L 53.91 220.31 L 60.94 253.12 L 215.62 285.94 L 276.56 290.62 L 288.28 271.88 L 292.97 51.56 L 255.47 53.91 L 175.78 77.34 L 70.31 79.69" stroke="white" fill="transparent"/>
	<path d = "M 72.66 356.25 L 65.62 485.16 L 75.00 506.25 L 89.06 517.97 L 128.91 529.69 L 229.69 527.34 L 297.66 489.84 L 323.44 452.34 L 323.44 400.78 L 290.62 356.25 L 239.06 335.16 L 110.16 328.12" stroke="white" fill="transparent"/>
	<path d = "M 112.50 382.03 L 121.88 487.50 L 138.28 494.53" stroke="white" fill="transparent"/>
	<path d = "M 227.34 382.03 L 217.97 400.78 L 220.31 466.41" stroke="white" fill="transparent"/>
	<path d = "M 114.84 96.09 L 117.19 168.75 L 126.56 215.62 L 145.31 253.12" stroke="white" fill="transparent"/>
	<path d = "M 232.03 126.56 L 234.38 187.50 L 253.12 239.06" stroke="white" fill="transparent"/>
</svg>