<?xml version="1.0" encoding="UTF-8" standalone="no"?>
<!--Created with ndjsontosvg (https:https://github.com/thompson318/ndjsontosvg) 
	from the simplified Google quickdraw data set. key_id = 6626879815548928-->
<svg width="600" height="600"
	xmlns="http://www.w3.org/2000/svg">
	xmlns:ndjsontosvg="https://github.com/thompson318/ndjsontosvg"
	xmlns:quickdraw="https://quickdraw.withgoogle.com/data"
	xmlns:scikit-surgery="https://doi.org/10.1007/s11548-020-02180-5">

	<rect width="100%" height="100%" fill="black" />
	<path d = "M 0.00 178.12 L 46.88 131.25 L 147.66 60.94 L 232.03 21.09 L 300.00 0.00" stroke="white" fill="transparent"/>
	<path d = "M 28.12 171.09 L 9.38 208.59 L 7.03 321.09 L 63.28 588.28 L 77.34 597.66 L 157.03 562.50 L 239.06 539.06 L 393.75 522.66 L 382.03 520.31 L 360.94 482.81 L 321.09 325.78 L 297.66 30.47" stroke="white" fill="transparent"/>
	<path d = "M 131.25 171.09 L 103.12 199.22 L 86.72 246.09 L 86.72 297.66 L 93.75 311.72 L 121.88 332.81 L 150.00 332.81 L 178.12 311.72 L 203.91 269.53 L 208.59 246.09 L 208.59 182.81 L 187.50 150.00 L 168.75 142.97 L 131.25 147.66 L 110.16 189.84 L 110.16 213.28" stroke="white" fill="transparent"/>
	<path d = "M 128.91 189.84 L 145.31 213.28 L 147.66 257.81" stroke="white" fill="transparent"/>
	<path d = "M 187.50 194.53 L 210.94 255.47" stroke="white" fill="transparent"/>
</svg>