<?xml version="1.0" encoding="UTF-8" standalone="no"?>
<!--Created with ndjsontosvg (https:https://github.com/thompson318/ndjsontosvg) 
	from the simplified Google quickdraw data set. key_id = 4853535013339136-->
<svg width="600" height="600"
	xmlns="http://www.w3.org/2000/svg">
	xmlns:ndjsontosvg="https://github.com/thompson318/ndjsontosvg"
	xmlns:quickdraw="https://quickdraw.withgoogle.com/data"
	xmlns:scikit-surgery="https://doi.org/10.1007/s11548-020-02180-5">

	<rect width="100%" height="100%" fill="black" />
	<path d = "M 32.81 32.81 L 35.16 119.53 L 4.69 414.84 L 0.00 597.66 L 79.69 564.84 L 285.94 543.75 L 342.19 527.34 L 356.25 508.59 L 356.25 0.00 L 248.44 7.03 L 171.09 42.19 L 67.97 18.75 L 32.81 21.09" stroke="white" fill="transparent"/>
	<path d = "M 227.34 135.94 L 227.34 117.19 L 206.25 110.16 L 126.56 154.69 L 84.38 192.19 L 77.34 213.28 L 84.38 255.47 L 220.31 260.16 L 239.06 250.78 L 248.44 234.38 L 248.44 215.62 L 199.22 84.38" stroke="white" fill="transparent"/>
	<path d = "M 199.22 393.75 L 199.22 377.34 L 145.31 386.72 L 82.03 435.94 L 75.00 454.69 L 126.56 487.50 L 178.12 496.88 L 250.78 496.88 L 328.12 482.81 L 342.19 466.41 L 321.09 445.31 L 229.69 370.31 L 192.19 344.53 L 173.44 337.50 L 173.44 344.53" stroke="white" fill="transparent"/>
	<path d = "M 159.38 419.53 L 166.41 424.22" stroke="white" fill="transparent"/>
	<path d = "M 210.94 424.22 L 210.94 424.22" stroke="white" fill="transparent"/>
</svg>