<?xml version="1.0" encoding="UTF-8" standalone="no"?>
<!--Created with ndjsontosvg (https:https://github.com/thompson318/ndjsontosvg) 
	from the simplified Google quickdraw data set. key_id = 4627632131932160-->
<svg width="600" height="600"
	xmlns="http://www.w3.org/2000/svg">
	xmlns:ndjsontosvg="https://github.com/thompson318/ndjsontosvg"
	xmlns:quickdraw="https://quickdraw.withgoogle.com/data"
	xmlns:scikit-surgery="https://doi.org/10.1007/s11548-020-02180-5">

	<rect width="100%" height="100%" fill="black" />
	<path d = "M 53.91 37.50 L 53.91 203.91 L 96.09 199.22 L 103.12 189.84 L 105.47 89.06 L 91.41 51.56 L 58.59 28.12" stroke="white" fill="transparent"/>
	<path d = "M 194.53 42.19 L 194.53 210.94 L 257.81 210.94 L 262.50 180.47 L 229.69 60.94 L 213.28 46.88 L 180.47 37.50" stroke="white" fill="transparent"/>
	<path d = "M 46.88 267.19 L 46.88 332.81 L 53.91 337.50 L 187.50 332.81 L 262.50 316.41 L 276.56 304.69 L 267.19 285.94 L 248.44 281.25 L 58.59 269.53" stroke="white" fill="transparent"/>
	<path d = "M 16.41 0.00 L 0.00 96.09 L 0.00 227.34 L 11.72 307.03 L 11.72 372.66 L 14.06 379.69 L 23.44 382.03 L 100.78 365.62 L 309.38 353.91 L 335.16 339.84 L 325.78 166.41 L 307.03 18.75 L 288.28 9.38 L 194.53 0.00 L 103.12 0.00 L 23.44 9.38" stroke="white" fill="transparent"/>
	<path d = "M 103.12 468.75 L 100.78 543.75 L 89.06 590.62 L 119.53 597.66 L 126.56 583.59 L 128.91 485.16" stroke="white" fill="transparent"/>
</svg>