<?xml version="1.0" encoding="UTF-8" standalone="no"?>
<!--Created with ndjsontosvg (https:https://github.com/thompson318/ndjsontosvg) 
	from the simplified Google quickdraw data set. key_id = 5225356355174400-->
<svg width="600" height="600"
	xmlns="http://www.w3.org/2000/svg">
	xmlns:ndjsontosvg="https://github.com/thompson318/ndjsontosvg"
	xmlns:quickdraw="https://quickdraw.withgoogle.com/data"
	xmlns:scikit-surgery="https://doi.org/10.1007/s11548-020-02180-5">

	<rect width="100%" height="100%" fill="black" />
	<path d = "M 239.06 107.81 L 232.03 194.53 L 302.34 203.91 L 314.06 140.62 L 311.72 96.09 L 227.34 98.44 L 236.72 119.53" stroke="white" fill="transparent"/>
	<path d = "M 257.81 119.53 L 276.56 121.88 L 274.22 138.28 L 255.47 135.94 L 260.16 119.53" stroke="white" fill="transparent"/>
	<path d = "M 255.47 152.34 L 253.12 173.44 L 276.56 175.78 L 278.91 157.03 L 257.81 152.34" stroke="white" fill="transparent"/>
	<path d = "M 267.19 166.41 L 330.47 192.19 L 419.53 194.53 L 522.66 185.16 L 562.50 175.78 L 595.31 157.03 L 508.59 114.84 L 375.00 77.34 L 63.28 7.03 L 0.00 0.00 L 0.00 60.94 L 21.09 121.88 L 131.25 222.66 L 285.94 330.47 L 454.69 337.50" stroke="white" fill="transparent"/>
</svg>