<?xml version="1.0" encoding="UTF-8" standalone="no"?>
<!--Created with ndjsontosvg (https:https://github.com/thompson318/ndjsontosvg) 
	from the simplified Google quickdraw data set. key_id = 6303076514267136-->
<svg width="600" height="600"
	xmlns="http://www.w3.org/2000/svg">
	xmlns:ndjsontosvg="https://github.com/thompson318/ndjsontosvg"
	xmlns:quickdraw="https://quickdraw.withgoogle.com/data"
	xmlns:scikit-surgery="https://doi.org/10.1007/s11548-020-02180-5">

	<rect width="100%" height="100%" fill="black" />
	<path d = "M 7.03 25.78 L 11.72 98.44 L 7.03 215.62 L 7.03 560.16 L 79.69 557.81 L 269.53 567.19 L 527.34 567.19 L 595.31 555.47 L 597.66 543.75 L 564.84 269.53 L 557.81 23.44 L 546.09 0.00 L 283.59 16.41 L 0.00 18.75" stroke="white" fill="transparent"/>
	<path d = "M 262.50 70.31 L 182.81 89.06 L 166.41 124.22 L 173.44 208.59 L 185.16 234.38 L 225.00 257.81 L 297.66 269.53 L 321.09 264.84 L 346.88 248.44 L 358.59 215.62 L 358.59 152.34 L 316.41 119.53 L 241.41 93.75 L 222.66 93.75" stroke="white" fill="transparent"/>
</svg>