<?xml version="1.0" encoding="UTF-8" standalone="no"?>
<!--Created with ndjsontosvg (https:https://github.com/thompson318/ndjsontosvg) 
	from the simplified Google quickdraw data set. key_id = 4979483926855680-->
<svg width="600" height="600"
	xmlns="http://www.w3.org/2000/svg">
	xmlns:ndjsontosvg="https://github.com/thompson318/ndjsontosvg"
	xmlns:quickdraw="https://quickdraw.withgoogle.com/data"
	xmlns:scikit-surgery="https://doi.org/10.1007/s11548-020-02180-5">

	<rect width="100%" height="100%" fill="black" />
	<path d = "M 42.19 239.06 L 2.34 557.81 L 192.19 588.28 L 414.84 597.66 L 590.62 585.94 L 574.22 398.44 L 595.31 234.38 L 578.91 220.31 L 546.09 217.97 L 159.38 232.03 L 58.59 215.62 L 23.44 222.66 L 28.12 213.28" stroke="white" fill="transparent"/>
	<path d = "M 39.84 248.44 L 42.19 213.28 L 77.34 119.53 L 117.19 63.28 L 133.59 46.88 L 194.53 11.72 L 267.19 0.00 L 400.78 18.75 L 480.47 56.25 L 520.31 93.75 L 541.41 126.56 L 597.66 253.12" stroke="white" fill="transparent"/>
	<path d = "M 546.09 227.34 L 517.97 201.56 L 457.03 114.84 L 433.59 93.75 L 339.84 37.50 L 276.56 35.16 L 241.41 49.22 L 217.97 75.00 L 166.41 147.66 L 103.12 260.16 L 100.78 285.94 L 107.81 307.03" stroke="white" fill="transparent"/>
</svg>