<?xml version="1.0" encoding="UTF-8" standalone="no"?>
<!--Created with ndjsontosvg (https:https://github.com/thompson318/ndjsontosvg) 
	from the simplified Google quickdraw data set. key_id = 6154736094937088-->
<svg width="600" height="600"
	xmlns="http://www.w3.org/2000/svg">
	xmlns:ndjsontosvg="https://github.com/thompson318/ndjsontosvg"
	xmlns:quickdraw="https://quickdraw.withgoogle.com/data"
	xmlns:scikit-surgery="https://doi.org/10.1007/s11548-020-02180-5">

	<rect width="100%" height="100%" fill="black" />
	<path d = "M 105.47 206.25 L 124.22 145.31 L 166.41 79.69 L 220.31 35.16 L 292.97 2.34 L 365.62 7.03 L 431.25 37.50 L 478.12 89.06 L 494.53 154.69" stroke="white" fill="transparent"/>
	<path d = "M 89.06 192.19 L 117.19 210.94 L 229.69 217.97 L 300.00 208.59 L 442.97 173.44 L 522.66 166.41 L 557.81 178.12 L 583.59 213.28 L 595.31 302.34 L 578.91 360.94 L 548.44 391.41 L 431.25 410.16 L 173.44 414.84 L 121.88 405.47 L 39.84 375.00 L 7.03 339.84 L 0.00 318.75 L 11.72 250.78 L 37.50 203.91 L 60.94 187.50 L 100.78 178.12 L 135.94 182.81 L 147.66 196.88" stroke="white" fill="transparent"/>
	<path d = "M 213.28 232.03 L 227.34 257.81 L 246.09 271.88 L 281.25 274.22 L 339.84 239.06 L 346.88 203.91" stroke="white" fill="transparent"/>
	<path d = "M 89.06 234.38 L 60.94 264.84 L 28.12 318.75" stroke="white" fill="transparent"/>
	<path d = "M 175.78 257.81 L 112.50 367.97" stroke="white" fill="transparent"/>
	<path d = "M 267.19 285.94 L 232.03 370.31" stroke="white" fill="transparent"/>
	<path d = "M 405.47 239.06 L 337.50 384.38" stroke="white" fill="transparent"/>
	<path d = "M 492.19 215.62 L 464.06 285.94 L 450.00 358.59" stroke="white" fill="transparent"/>
	<path d = "M 557.81 295.31 L 532.03 356.25" stroke="white" fill="transparent"/>
	<path d = "M 597.66 288.28 L 581.25 325.78" stroke="white" fill="transparent"/>
</svg>