<?xml version="1.0" encoding="UTF-8" standalone="no"?>
<!--Created with ndjsontosvg (https:https://github.com/thompson318/ndjsontosvg) 
	from the simplified Google quickdraw data set. key_id = 6615302747979776-->
<svg width="600" height="600"
	xmlns="http://www.w3.org/2000/svg">
	xmlns:ndjsontosvg="https://github.com/thompson318/ndjsontosvg"
	xmlns:quickdraw="https://quickdraw.withgoogle.com/data"
	xmlns:scikit-surgery="https://doi.org/10.1007/s11548-020-02180-5">

	<rect width="100%" height="100%" fill="black" />
	<path d = "M 316.41 307.03 L 285.94 316.41 L 229.69 311.72 L 178.12 290.62 L 77.34 264.84 L 0.00 229.69 L 53.91 349.22 L 135.94 489.84 L 199.22 480.47 L 283.59 480.47 L 382.03 461.72 L 410.16 445.31 L 529.69 328.12 L 550.78 297.66 L 597.66 182.81 L 527.34 288.28 L 442.97 346.88 L 393.75 346.88 L 335.16 316.41 L 300.00 304.69" stroke="white" fill="transparent"/>
	<path d = "M 295.31 302.34 L 295.31 302.34" stroke="white" fill="transparent"/>
	<path d = "M 534.38 253.12 L 508.59 173.44 L 424.22 58.59 L 379.69 16.41 L 349.22 2.34 L 274.22 0.00 L 220.31 53.91 L 147.66 175.78 L 121.88 236.72 L 117.19 300.00" stroke="white" fill="transparent"/>
</svg>