<?xml version="1.0" encoding="UTF-8" standalone="no"?>
<!--Created with ndjsontosvg (https:https://github.com/thompson318/ndjsontosvg) 
	from the simplified Google quickdraw data set. key_id = 5235695381643264-->
<svg width="600" height="600"
	xmlns="http://www.w3.org/2000/svg">
	xmlns:ndjsontosvg="https://github.com/thompson318/ndjsontosvg"
	xmlns:quickdraw="https://quickdraw.withgoogle.com/data"
	xmlns:scikit-surgery="https://doi.org/10.1007/s11548-020-02180-5">

	<rect width="100%" height="100%" fill="black" />
	<path d = "M 124.22 208.59 L 46.88 246.09 L 18.75 276.56 L 0.00 321.09 L 4.69 349.22 L 23.44 370.31 L 58.59 384.38 L 96.09 386.72 L 150.00 375.00 L 175.78 358.59 L 194.53 337.50 L 208.59 295.31 L 199.22 253.12 L 180.47 222.66 L 159.38 208.59 L 107.81 210.94" stroke="white" fill="transparent"/>
	<path d = "M 58.59 243.75 L 63.28 75.00 L 82.03 21.09 L 105.47 0.00 L 119.53 0.00 L 131.25 9.38 L 145.31 44.53 L 147.66 114.84 L 135.94 220.31" stroke="white" fill="transparent"/>
	<path d = "M 175.78 246.09 L 227.34 142.97 L 339.84 67.97 L 391.41 49.22 L 435.94 49.22 L 457.03 63.28 L 478.12 96.09 L 482.81 126.56 L 435.94 182.81 L 187.50 285.94" stroke="white" fill="transparent"/>
	<path d = "M 117.19 396.09 L 103.12 414.84 L 100.78 447.66 L 119.53 475.78 L 145.31 489.84 L 220.31 496.88" stroke="white" fill="transparent"/>
	<path d = "M 330.47 426.56 L 274.22 442.97 L 241.41 466.41 L 248.44 503.91 L 269.53 522.66 L 295.31 532.03 L 290.62 539.06 L 124.22 555.47 L 89.06 574.22 L 86.72 578.91 L 112.50 592.97 L 185.16 597.66 L 323.44 585.94 L 539.06 517.97 L 555.47 503.91 L 557.81 478.12 L 541.41 440.62 L 522.66 419.53" stroke="white" fill="transparent"/>
	<path d = "M 203.91 292.97 L 225.00 288.28" stroke="white" fill="transparent"/>
</svg>