<?xml version="1.0" encoding="UTF-8" standalone="no"?>
<!--Created with ndjsontosvg (https:https://github.com/thompson318/ndjsontosvg) 
	from the simplified Google quickdraw data set. key_id = 5222199675846656-->
<svg width="600" height="600"
	xmlns="http://www.w3.org/2000/svg">
	xmlns:ndjsontosvg="https://github.com/thompson318/ndjsontosvg"
	xmlns:quickdraw="https://quickdraw.withgoogle.com/data"
	xmlns:scikit-surgery="https://doi.org/10.1007/s11548-020-02180-5">

	<rect width="100%" height="100%" fill="black" />
	<path d = "M 79.69 365.62 L 37.50 391.41 L 21.09 414.84 L 14.06 445.31 L 28.12 522.66 L 63.28 562.50 L 119.53 592.97 L 175.78 597.66 L 229.69 585.94 L 295.31 548.44 L 337.50 499.22 L 351.56 454.69 L 332.81 391.41 L 278.91 337.50 L 199.22 304.69 L 140.62 304.69 L 72.66 339.84 L 44.53 396.09" stroke="white" fill="transparent"/>
	<path d = "M 79.69 349.22 L 63.28 339.84 L 35.16 267.19 L 4.69 112.50 L 0.00 51.56 L 7.03 30.47 L 23.44 9.38 L 67.97 0.00 L 91.41 11.72 L 114.84 35.16 L 145.31 121.88 L 154.69 234.38 L 166.41 283.59" stroke="white" fill="transparent"/>
	<path d = "M 344.53 396.09 L 412.50 131.25 L 405.47 70.31 L 386.72 42.19 L 367.97 37.50 L 337.50 39.84 L 309.38 53.91 L 283.59 82.03 L 248.44 157.03 L 208.59 304.69" stroke="white" fill="transparent"/>
	<path d = "M 147.66 375.00 L 138.28 386.72 L 138.28 403.12 L 142.97 400.78 L 147.66 384.38 L 142.97 396.09 L 140.62 370.31 L 128.91 393.75 L 133.59 419.53" stroke="white" fill="transparent"/>
	<path d = "M 236.72 384.38 L 222.66 386.72 L 210.94 412.50 L 217.97 407.81 L 220.31 391.41 L 215.62 396.09 L 220.31 405.47 L 229.69 386.72 L 217.97 365.62 L 213.28 400.78" stroke="white" fill="transparent"/>
	<path d = "M 159.38 459.38 L 159.38 459.38" stroke="white" fill="transparent"/>
	<path d = "M 173.44 452.34 L 147.66 438.28 L 124.22 445.31" stroke="white" fill="transparent"/>
	<path d = "M 140.62 457.03 L 142.97 457.03" stroke="white" fill="transparent"/>
	<path d = "M 110.16 550.78 L 107.81 546.09" stroke="white" fill="transparent"/>
</svg>