<?xml version="1.0" encoding="UTF-8" standalone="no"?>
<!--Created with ndjsontosvg (https:https://github.com/thompson318/ndjsontosvg) 
	from the simplified Google quickdraw data set. key_id = 5236381301342208-->
<svg width="600" height="600"
	xmlns="http://www.w3.org/2000/svg">
	xmlns:ndjsontosvg="https://github.com/thompson318/ndjsontosvg"
	xmlns:quickdraw="https://quickdraw.withgoogle.com/data"
	xmlns:scikit-surgery="https://doi.org/10.1007/s11548-020-02180-5">

	<rect width="100%" height="100%" fill="black" />
	<path d = "M 222.66 311.72 L 150.00 309.38 L 124.22 323.44 L 51.56 382.03 L 28.12 428.91 L 25.78 480.47 L 35.16 513.28 L 84.38 567.19 L 114.84 585.94 L 152.34 597.66 L 210.94 597.66 L 278.91 557.81 L 300.00 534.38 L 311.72 501.56 L 314.06 426.56 L 304.69 389.06 L 257.81 323.44 L 227.34 311.72 L 142.97 302.34" stroke="white" fill="transparent"/>
	<path d = "M 70.31 384.38 L 49.22 250.78 L 44.53 110.16 L 51.56 56.25 L 70.31 23.44 L 105.47 14.06 L 114.84 39.84 L 128.91 356.25" stroke="white" fill="transparent"/>
	<path d = "M 243.75 379.69 L 250.78 372.66 L 262.50 332.81 L 262.50 196.88 L 250.78 114.84 L 253.12 39.84 L 267.19 21.09 L 309.38 0.00 L 356.25 0.00 L 398.44 21.09 L 419.53 56.25 L 417.19 133.59 L 377.34 217.97 L 323.44 309.38 L 302.34 365.62 L 295.31 421.88" stroke="white" fill="transparent"/>
	<path d = "M 117.19 384.38 L 96.09 393.75 L 98.44 410.16 L 121.88 403.12 L 124.22 386.72 L 107.81 379.69" stroke="white" fill="transparent"/>
	<path d = "M 220.31 393.75 L 203.91 398.44 L 210.94 405.47 L 236.72 405.47 L 239.06 398.44 L 220.31 386.72 L 206.25 393.75" stroke="white" fill="transparent"/>
	<path d = "M 164.06 452.34 L 147.66 450.00 L 138.28 457.03 L 140.62 473.44 L 157.03 473.44 L 168.75 466.41 L 164.06 447.66" stroke="white" fill="transparent"/>
	<path d = "M 112.50 515.62 L 0.00 464.06 L 7.03 454.69 L 21.09 454.69" stroke="white" fill="transparent"/>
</svg>