<?xml version="1.0" encoding="UTF-8" standalone="no"?>
<!--Created with ndjsontosvg (https:https://github.com/thompson318/ndjsontosvg) 
	from the simplified Google quickdraw data set. key_id = 5431845078433792-->
<svg width="600" height="600"
	xmlns="http://www.w3.org/2000/svg">
	xmlns:ndjsontosvg="https://github.com/thompson318/ndjsontosvg"
	xmlns:quickdraw="https://quickdraw.withgoogle.com/data"
	xmlns:scikit-surgery="https://doi.org/10.1007/s11548-020-02180-5">

	<rect width="100%" height="100%" fill="black" />
	<path d = "M 126.56 182.81 L 147.66 152.34 L 196.88 119.53 L 241.41 105.47 L 276.56 112.50 L 304.69 128.91 L 337.50 168.75 L 346.88 208.59 L 342.19 255.47 L 328.12 283.59 L 290.62 309.38 L 260.16 316.41 L 222.66 307.03 L 192.19 283.59 L 142.97 217.97 L 133.59 175.78 L 135.94 152.34" stroke="white" fill="transparent"/>
	<path d = "M 175.78 150.00 L 53.91 86.72 L 14.06 46.88 L 0.00 14.06 L 7.03 2.34 L 21.09 0.00 L 77.34 21.09 L 175.78 110.16" stroke="white" fill="transparent"/>
	<path d = "M 288.28 124.22 L 314.06 89.06 L 358.59 49.22 L 405.47 28.12 L 424.22 32.81 L 428.91 67.97 L 410.16 107.81 L 379.69 142.97 L 325.78 178.12" stroke="white" fill="transparent"/>
	<path d = "M 199.22 147.66 L 201.56 173.44" stroke="white" fill="transparent"/>
	<path d = "M 271.88 152.34 L 276.56 178.12" stroke="white" fill="transparent"/>
	<path d = "M 203.91 257.81 L 234.38 243.75 L 257.81 253.12 L 325.78 248.44" stroke="white" fill="transparent"/>
	<path d = "M 232.03 300.00 L 182.81 400.78 L 110.16 527.34 L 96.09 574.22" stroke="white" fill="transparent"/>
	<path d = "M 316.41 271.88 L 330.47 311.72 L 396.09 403.12 L 419.53 447.66 L 433.59 520.31 L 424.22 571.88 L 391.41 592.97 L 309.38 595.31 L 215.62 578.91 L 121.88 546.09" stroke="white" fill="transparent"/>
	<path d = "M 185.16 407.81 L 142.97 370.31 L 119.53 365.62 L 105.47 375.00 L 119.53 398.44 L 180.47 424.22" stroke="white" fill="transparent"/>
	<path d = "M 379.69 377.34 L 428.91 351.56 L 461.72 353.91 L 461.72 386.72 L 431.25 424.22" stroke="white" fill="transparent"/>
</svg>