<?xml version="1.0" encoding="UTF-8" standalone="no"?>
<!--Created with ndjsontosvg (https:https://github.com/thompson318/ndjsontosvg) 
	from the simplified Google quickdraw data set. key_id = 5212421406851072-->
<svg width="600" height="600"
	xmlns="http://www.w3.org/2000/svg">
	xmlns:ndjsontosvg="https://github.com/thompson318/ndjsontosvg"
	xmlns:quickdraw="https://quickdraw.withgoogle.com/data"
	xmlns:scikit-surgery="https://doi.org/10.1007/s11548-020-02180-5">

	<rect width="100%" height="100%" fill="black" />
	<path d = "M 93.75 225.00 L 79.69 229.69 L 46.88 271.88 L 23.44 316.41 L 11.72 393.75 L 11.72 459.38 L 25.78 508.59 L 70.31 571.88 L 114.84 592.97 L 255.47 597.66 L 288.28 592.97 L 363.28 548.44 L 398.44 510.94 L 424.22 466.41 L 428.91 414.84 L 421.88 311.72 L 391.41 260.16 L 358.59 243.75 L 314.06 229.69 L 91.41 225.00" stroke="white" fill="transparent"/>
	<path d = "M 323.44 225.00 L 367.97 142.97 L 412.50 18.75 L 426.56 9.38 L 435.94 28.12 L 438.28 119.53 L 421.88 267.19" stroke="white" fill="transparent"/>
	<path d = "M 112.50 215.62 L 112.50 168.75 L 75.00 32.81 L 56.25 4.69 L 28.12 0.00 L 11.72 7.03 L 0.00 241.41 L 7.03 269.53 L 23.44 290.62" stroke="white" fill="transparent"/>
	<path d = "M 112.50 323.44 L 112.50 323.44" stroke="white" fill="transparent"/>
	<path d = "M 107.81 321.09 L 98.44 335.16 L 112.50 346.88 L 126.56 342.19 L 126.56 330.47 L 114.84 323.44" stroke="white" fill="transparent"/>
</svg>