<?xml version="1.0" encoding="UTF-8" standalone="no"?>
<!--Created with ndjsontosvg (https:https://github.com/thompson318/ndjsontosvg) 
	from the simplified Google quickdraw data set. key_id = 5258840473862144-->
<svg width="600" height="600"
	xmlns="http://www.w3.org/2000/svg">
	xmlns:ndjsontosvg="https://github.com/thompson318/ndjsontosvg"
	xmlns:quickdraw="https://quickdraw.withgoogle.com/data"
	xmlns:scikit-surgery="https://doi.org/10.1007/s11548-020-02180-5">

	<rect width="100%" height="100%" fill="black" />
	<path d = "M 382.03 124.22 L 342.19 103.12 L 255.47 103.12 L 222.66 112.50 L 180.47 142.97 L 117.19 222.66 L 49.22 349.22 L 42.19 424.22 L 51.56 431.25 L 180.47 414.84 L 264.84 393.75 L 360.94 351.56 L 396.09 325.78 L 421.88 283.59 L 428.91 246.09 L 426.56 138.28 L 419.53 131.25 L 339.84 117.19" stroke="white" fill="transparent"/>
	<path d = "M 365.62 105.47 L 508.59 32.81 L 597.66 0.00 L 595.31 25.78 L 571.88 58.59 L 480.47 157.03 L 426.56 196.88" stroke="white" fill="transparent"/>
	<path d = "M 164.06 142.97 L 147.66 110.16 L 112.50 77.34 L 75.00 53.91 L 51.56 51.56 L 21.09 67.97 L 7.03 89.06 L 0.00 114.84 L 7.03 164.06 L 35.16 206.25 L 86.72 225.00" stroke="white" fill="transparent"/>
	<path d = "M 203.91 161.72 L 206.25 171.09 L 217.97 164.06 L 206.25 168.75 L 208.59 175.78 L 215.62 168.75 L 210.94 166.41 L 248.44 145.31 L 234.38 164.06 L 222.66 145.31 L 215.62 168.75 L 239.06 164.06 L 253.12 150.00 L 222.66 159.38 L 199.22 178.12 L 206.25 180.47 L 243.75 145.31" stroke="white" fill="transparent"/>
	<path d = "M 236.72 152.34 L 232.03 173.44 L 241.41 159.38" stroke="white" fill="transparent"/>
	<path d = "M 321.09 166.41 L 316.41 171.09 L 328.12 171.09 L 367.97 154.69 L 400.78 135.94 L 400.78 124.22 L 384.38 124.22 L 360.94 140.62 L 346.88 171.09 L 353.91 175.78 L 370.31 159.38 L 372.66 140.62 L 349.22 138.28 L 323.44 154.69 L 328.12 180.47 L 367.97 180.47 L 384.38 166.41 L 389.06 142.97 L 363.28 135.94 L 335.16 154.69 L 330.47 173.44 L 344.53 175.78 L 386.72 150.00 L 384.38 142.97 L 360.94 154.69 L 335.16 178.12 L 332.81 189.84 L 363.28 164.06 L 367.97 147.66 L 358.59 150.00 L 330.47 182.81 L 367.97 154.69 L 379.69 140.62 L 360.94 150.00" stroke="white" fill="transparent"/>
</svg>