<?xml version="1.0" encoding="UTF-8" standalone="no"?>
<!--Created with ndjsontosvg (https:https://github.com/thompson318/ndjsontosvg) 
	from the simplified Google quickdraw data set. key_id = 5271578910654464-->
<svg width="600" height="600"
	xmlns="http://www.w3.org/2000/svg">
	xmlns:ndjsontosvg="https://github.com/thompson318/ndjsontosvg"
	xmlns:quickdraw="https://quickdraw.withgoogle.com/data"
	xmlns:scikit-surgery="https://doi.org/10.1007/s11548-020-02180-5">

	<rect width="100%" height="100%" fill="black" />
	<path d = "M 339.84 145.31 L 353.91 117.19 L 391.41 86.72 L 489.84 35.16 L 499.22 49.22 L 499.22 75.00 L 457.03 201.56" stroke="white" fill="transparent"/>
	<path d = "M 424.22 189.84 L 419.53 150.00 L 405.47 138.28 L 372.66 117.19 L 328.12 103.12 L 171.09 103.12 L 140.62 112.50 L 70.31 150.00 L 21.09 201.56 L 2.34 257.81 L 0.00 353.91 L 42.19 461.72 L 67.97 503.91 L 100.78 536.72 L 208.59 585.94 L 255.47 597.66 L 314.06 597.66 L 372.66 574.22 L 442.97 513.28 L 475.78 431.25 L 487.50 302.34 L 471.09 253.12 L 454.69 241.41" stroke="white" fill="transparent"/>
	<path d = "M 447.66 288.28 L 466.41 271.88 L 468.75 234.38 L 466.41 210.94 L 445.31 178.12 L 389.06 133.59 L 330.47 119.53" stroke="white" fill="transparent"/>
	<path d = "M 145.31 128.91 L 147.66 110.16 L 135.94 93.75 L 42.19 11.72 L 14.06 0.00 L 7.03 16.41 L 2.34 142.97 L 18.75 196.88" stroke="white" fill="transparent"/>
</svg>