<?xml version="1.0" encoding="UTF-8" standalone="no"?>
<!--Created with ndjsontosvg (https:https://github.com/thompson318/ndjsontosvg) 
	from the simplified Google quickdraw data set. key_id = 5584148913717248-->
<svg width="600" height="600"
	xmlns="http://www.w3.org/2000/svg">
	xmlns:ndjsontosvg="https://github.com/thompson318/ndjsontosvg"
	xmlns:quickdraw="https://quickdraw.withgoogle.com/data"
	xmlns:scikit-surgery="https://doi.org/10.1007/s11548-020-02180-5">

	<rect width="100%" height="100%" fill="black" />
	<path d = "M 203.91 72.66 L 126.56 84.38 L 110.16 93.75 L 100.78 105.47 L 93.75 133.59 L 98.44 189.84 L 119.53 234.38 L 159.38 281.25 L 210.94 304.69 L 276.56 300.00 L 342.19 274.22 L 375.00 246.09 L 393.75 178.12 L 386.72 145.31 L 363.28 114.84 L 316.41 93.75 L 246.09 75.00 L 157.03 84.38" stroke="white" fill="transparent"/>
	<path d = "M 189.84 124.22 L 180.47 140.62 L 175.78 173.44 L 187.50 203.91 L 203.91 217.97 L 225.00 217.97 L 232.03 203.91 L 229.69 157.03 L 208.59 131.25" stroke="white" fill="transparent"/>
	<path d = "M 262.50 119.53 L 257.81 157.03 L 260.16 206.25 L 281.25 220.31 L 297.66 220.31 L 316.41 196.88 L 307.03 147.66" stroke="white" fill="transparent"/>
	<path d = "M 166.41 103.12 L 152.34 133.59 L 150.00 185.16 L 166.41 217.97 L 185.16 229.69 L 199.22 234.38 L 229.69 222.66 L 241.41 196.88 L 227.34 147.66 L 192.19 114.84" stroke="white" fill="transparent"/>
	<path d = "M 257.81 100.78 L 248.44 126.56 L 241.41 180.47 L 250.78 213.28 L 262.50 229.69 L 274.22 234.38 L 290.62 229.69 L 307.03 208.59 L 318.75 168.75 L 316.41 142.97" stroke="white" fill="transparent"/>
	<path d = "M 105.47 91.41 L 98.44 56.25 L 105.47 18.75 L 128.91 2.34 L 168.75 0.00 L 201.56 9.38 L 227.34 37.50 L 241.41 65.62" stroke="white" fill="transparent"/>
	<path d = "M 328.12 84.38 L 330.47 46.88 L 339.84 30.47 L 365.62 14.06 L 396.09 30.47 L 417.19 60.94 L 400.78 105.47" stroke="white" fill="transparent"/>
	<path d = "M 173.44 323.44 L 157.03 419.53 L 185.16 487.50 L 213.28 525.00 L 246.09 548.44 L 269.53 553.12 L 325.78 520.31 L 365.62 475.78 L 410.16 400.78 L 414.84 363.28 L 407.81 328.12 L 379.69 281.25" stroke="white" fill="transparent"/>
	<path d = "M 180.47 316.41 L 114.84 307.03 L 53.91 316.41 L 0.00 335.16 L 16.41 363.28 L 63.28 389.06 L 133.59 396.09" stroke="white" fill="transparent"/>
	<path d = "M 410.16 323.44 L 471.09 302.34 L 506.25 302.34 L 543.75 318.75 L 590.62 351.56 L 597.66 363.28 L 576.56 382.03 L 506.25 400.78 L 461.72 403.12" stroke="white" fill="transparent"/>
</svg>