<?xml version="1.0" encoding="UTF-8" standalone="no"?>
<!--Created with ndjsontosvg (https:https://github.com/thompson318/ndjsontosvg) 
	from the simplified Google quickdraw data set. key_id = 6583783576829952-->
<svg width="600" height="600"
	xmlns="http://www.w3.org/2000/svg">
	xmlns:ndjsontosvg="https://github.com/thompson318/ndjsontosvg"
	xmlns:quickdraw="https://quickdraw.withgoogle.com/data"
	xmlns:scikit-surgery="https://doi.org/10.1007/s11548-020-02180-5">

	<rect width="100%" height="100%" fill="black" />
	<path d = "M 410.16 180.47 L 412.50 112.50 L 433.59 70.31 L 473.44 23.44 L 543.75 0.00 L 574.22 7.03 L 588.28 25.78 L 597.66 70.31 L 595.31 121.88 L 590.62 152.34 L 564.84 203.91 L 527.34 248.44 L 471.09 271.88 L 450.00 271.88" stroke="white" fill="transparent"/>
	<path d = "M 410.16 185.16 L 372.66 159.38 L 337.50 152.34 L 257.81 175.78 L 227.34 201.56" stroke="white" fill="transparent"/>
	<path d = "M 185.16 232.03 L 206.25 225.00 L 246.09 187.50 L 246.09 264.84 L 225.00 297.66" stroke="white" fill="transparent"/>
	<path d = "M 203.91 225.00 L 187.50 147.66 L 150.00 206.25 L 82.03 131.25 L 82.03 225.00 L 4.69 201.56 L 4.69 217.97 L 60.94 288.28 L 142.97 332.81 L 185.16 332.81 L 210.94 325.78 L 225.00 314.06 L 236.72 290.62" stroke="white" fill="transparent"/>
	<path d = "M 142.97 295.31 L 142.97 285.94 L 150.00 295.31" stroke="white" fill="transparent"/>
	<path d = "M 166.41 248.44 L 166.41 250.78" stroke="white" fill="transparent"/>
	<path d = "M 86.72 260.16 L 86.72 260.16" stroke="white" fill="transparent"/>
	<path d = "M 103.12 253.12 L 107.81 255.47" stroke="white" fill="transparent"/>
	<path d = "M 192.19 311.72 L 161.72 318.75" stroke="white" fill="transparent"/>
</svg>