<?xml version="1.0" encoding="UTF-8" standalone="no"?>
<!--Created with ndjsontosvg (https:https://github.com/thompson318/ndjsontosvg) 
	from the simplified Google quickdraw data set. key_id = 6524790271639552-->
<svg width="600" height="600"
	xmlns="http://www.w3.org/2000/svg">
	xmlns:ndjsontosvg="https://github.com/thompson318/ndjsontosvg"
	xmlns:quickdraw="https://quickdraw.withgoogle.com/data"
	xmlns:scikit-surgery="https://doi.org/10.1007/s11548-020-02180-5">

	<rect width="100%" height="100%" fill="black" />
	<path d = "M 138.28 98.44 L 126.56 152.34 L 128.91 185.16 L 145.31 246.09 L 180.47 295.31 L 215.62 330.47 L 241.41 339.84 L 283.59 349.22 L 356.25 346.88 L 419.53 321.09 L 452.34 292.97 L 471.09 257.81 L 492.19 178.12 L 492.19 100.78 L 557.81 65.62 L 597.66 7.03 L 571.88 2.34 L 508.59 2.34 L 466.41 14.06 L 424.22 42.19 L 250.78 49.22 L 157.03 65.62 L 93.75 14.06 L 72.66 4.69 L 28.12 7.03 L 2.34 16.41 L 2.34 23.44 L 32.81 46.88 L 128.91 91.41 L 140.62 107.81" stroke="white" fill="transparent"/>
	<path d = "M 142.97 121.88 L 159.38 114.84 L 199.22 114.84 L 215.62 138.28 L 208.59 178.12 L 213.28 232.03 L 173.44 276.56 L 164.06 271.88" stroke="white" fill="transparent"/>
	<path d = "M 255.47 147.66 L 255.47 140.62 L 243.75 138.28 L 232.03 150.00 L 229.69 168.75 L 239.06 178.12 L 250.78 168.75 L 250.78 154.69 L 248.44 145.31 L 241.41 164.06 L 243.75 145.31 L 248.44 154.69 L 248.44 161.72 L 236.72 147.66 L 236.72 166.41 L 234.38 154.69" stroke="white" fill="transparent"/>
	<path d = "M 335.16 164.06 L 328.12 157.03 L 332.81 140.62 L 358.59 150.00 L 360.94 164.06 L 339.84 166.41 L 332.81 159.38 L 332.81 145.31 L 337.50 142.97 L 337.50 161.72 L 330.47 150.00 L 337.50 138.28 L 346.88 147.66 L 346.88 159.38 L 342.19 154.69 L 349.22 157.03 L 342.19 159.38" stroke="white" fill="transparent"/>
	<path d = "M 241.41 243.75 L 274.22 232.03 L 304.69 232.03 L 309.38 255.47 L 288.28 267.19 L 250.78 246.09" stroke="white" fill="transparent"/>
	<path d = "M 281.25 267.19 L 267.19 292.97 L 210.94 328.12" stroke="white" fill="transparent"/>
	<path d = "M 269.53 288.28 L 274.22 314.06 L 300.00 311.72 L 325.78 300.00" stroke="white" fill="transparent"/>
	<path d = "M 178.12 220.31 L 199.22 157.03 L 175.78 178.12 L 175.78 166.41 L 187.50 154.69 L 166.41 215.62 L 185.16 196.88 L 192.19 220.31" stroke="white" fill="transparent"/>
	<path d = "M 393.75 142.97 L 360.94 185.16 L 398.44 187.50 L 405.47 194.53 L 405.47 208.59 L 360.94 236.72 L 400.78 246.09 L 407.81 255.47 L 403.12 260.16 L 384.38 248.44 L 370.31 225.00 L 377.34 225.00 L 372.66 203.91 L 410.16 154.69 L 452.34 154.69 L 482.81 168.75 L 480.47 196.88 L 433.59 234.38 L 419.53 236.72 L 410.16 229.69 L 412.50 171.09 L 431.25 140.62 L 438.28 138.28 L 435.94 150.00" stroke="white" fill="transparent"/>
	<path d = "M 396.09 42.19 L 410.16 77.34 L 461.72 58.59 L 473.44 77.34 L 468.75 82.03 L 440.62 60.94 L 442.97 46.88" stroke="white" fill="transparent"/>
</svg>