<?xml version="1.0" encoding="UTF-8" standalone="no"?>
<!--Created with ndjsontosvg (https:https://github.com/thompson318/ndjsontosvg) 
	from the simplified Google quickdraw data set. key_id = 4606844104343552-->
<svg width="600" height="600"
	xmlns="http://www.w3.org/2000/svg">
	xmlns:ndjsontosvg="https://github.com/thompson318/ndjsontosvg"
	xmlns:quickdraw="https://quickdraw.withgoogle.com/data"
	xmlns:scikit-surgery="https://doi.org/10.1007/s11548-020-02180-5">

	<rect width="100%" height="100%" fill="black" />
	<path d = "M 384.38 39.84 L 360.94 30.47 L 234.38 21.09 L 171.09 63.28 L 140.62 107.81 L 140.62 152.34 L 171.09 168.75 L 246.09 185.16 L 278.91 182.81 L 332.81 159.38 L 400.78 86.72 L 403.12 37.50 L 412.50 39.84" stroke="white" fill="transparent"/>
	<path d = "M 419.53 51.56 L 482.81 49.22 L 517.97 65.62 L 555.47 93.75 L 583.59 152.34 L 590.62 236.72 L 562.50 271.88 L 527.34 274.22 L 501.56 178.12 L 412.50 75.00" stroke="white" fill="transparent"/>
	<path d = "M 529.69 192.19 L 557.81 196.88 L 597.66 217.97" stroke="white" fill="transparent"/>
	<path d = "M 480.47 154.69 L 508.59 145.31 L 550.78 142.97 L 585.94 168.75" stroke="white" fill="transparent"/>
	<path d = "M 445.31 110.16 L 482.81 100.78 L 529.69 100.78 L 574.22 131.25" stroke="white" fill="transparent"/>
	<path d = "M 168.75 79.69 L 91.41 46.88 L 37.50 42.19 L 21.09 51.56 L 4.69 84.38 L 0.00 142.97 L 9.38 159.38 L 28.12 166.41 L 89.06 164.06 L 159.38 112.50" stroke="white" fill="transparent"/>
	<path d = "M 32.81 49.22 L 16.41 32.81 L 11.72 0.00 L 39.84 7.03 L 65.62 35.16" stroke="white" fill="transparent"/>
	<path d = "M 89.06 37.50 L 135.94 39.84 L 135.94 51.56 L 110.16 60.94" stroke="white" fill="transparent"/>
	<path d = "M 56.25 112.50 L 7.03 150.00 L 49.22 152.34 L 63.28 126.56" stroke="white" fill="transparent"/>
	<path d = "M 44.53 89.06 L 37.50 82.03 L 53.91 82.03 L 112.50 100.78 L 49.22 89.06" stroke="white" fill="transparent"/>
</svg>