<?xml version="1.0" encoding="UTF-8" standalone="no"?>
<!--Created with ndjsontosvg (https:https://github.com/thompson318/ndjsontosvg) 
	from the simplified Google quickdraw data set. key_id = 6055123702775808-->
<svg width="600" height="600"
	xmlns="http://www.w3.org/2000/svg">
	xmlns:ndjsontosvg="https://github.com/thompson318/ndjsontosvg"
	xmlns:quickdraw="https://quickdraw.withgoogle.com/data"
	xmlns:scikit-surgery="https://doi.org/10.1007/s11548-020-02180-5">

	<rect width="100%" height="100%" fill="black" />
	<path d = "M 377.34 543.75 L 447.66 508.59 L 499.22 433.59 L 522.66 384.38 L 529.69 328.12 L 522.66 285.94 L 506.25 246.09 L 485.16 227.34 L 435.94 220.31 L 396.09 236.72 L 342.19 285.94 L 302.34 346.88 L 292.97 396.09 L 300.00 452.34 L 321.09 513.28 L 337.50 532.03 L 351.56 527.34" stroke="white" fill="transparent"/>
	<path d = "M 377.34 243.75 L 353.91 203.91 L 344.53 168.75 L 346.88 112.50 L 330.47 53.91 L 328.12 2.34 L 337.50 0.00 L 403.12 86.72 L 445.31 70.31 L 478.12 84.38 L 492.19 100.78 L 506.25 46.88 L 529.69 32.81 L 553.12 44.53 L 548.44 91.41 L 510.94 161.72 L 520.31 196.88 L 517.97 217.97 L 475.78 264.84" stroke="white" fill="transparent"/>
	<path d = "M 302.34 501.56 L 208.59 457.03 L 77.34 419.53 L 28.12 417.19 L 7.03 424.22 L 2.34 445.31 L 23.44 473.44 L 77.34 506.25 L 250.78 583.59 L 321.09 588.28 L 377.34 564.84" stroke="white" fill="transparent"/>
	<path d = "M 260.16 515.62 L 262.50 515.62" stroke="white" fill="transparent"/>
	<path d = "M 260.16 515.62 L 253.12 508.59 L 264.84 522.66 L 264.84 503.91 L 246.09 478.12 L 239.06 485.16 L 239.06 510.94 L 267.19 574.22 L 267.19 560.16 L 248.44 503.91 L 236.72 485.16 L 232.03 496.88 L 257.81 576.56 L 253.12 525.00 L 239.06 482.81 L 236.72 496.88 L 255.47 571.88 L 248.44 506.25" stroke="white" fill="transparent"/>
	<path d = "M 203.91 553.12 L 189.84 457.03 L 189.84 532.03 L 196.88 550.78 L 201.56 541.41 L 199.22 489.84 L 187.50 457.03 L 178.12 454.69 L 175.78 468.75 L 187.50 553.12 L 185.16 480.47 L 175.78 457.03 L 173.44 468.75 L 180.47 520.31" stroke="white" fill="transparent"/>
	<path d = "M 126.56 515.62 L 131.25 454.69 L 121.88 424.22 L 112.50 440.62 L 117.19 492.19 L 126.56 520.31 L 135.94 522.66 L 138.28 513.28 L 138.28 478.12 L 126.56 442.97 L 114.84 442.97 L 114.84 480.47 L 128.91 522.66 L 138.28 520.31 L 140.62 508.59 L 135.94 466.41 L 124.22 452.34 L 119.53 515.62" stroke="white" fill="transparent"/>
	<path d = "M 77.34 475.78 L 82.03 438.28 L 77.34 426.56 L 70.31 426.56 L 67.97 442.97 L 70.31 503.91 L 70.31 454.69 L 67.97 438.28 L 65.62 468.75 L 70.31 492.19 L 86.72 506.25" stroke="white" fill="transparent"/>
	<path d = "M 28.12 471.09 L 35.16 450.00 L 30.47 482.81 L 37.50 440.62 L 39.84 450.00 L 28.12 480.47" stroke="white" fill="transparent"/>
	<path d = "M 407.81 164.06 L 398.44 140.62 L 393.75 150.00 L 400.78 157.03 L 419.53 154.69 L 407.81 142.97 L 400.78 154.69 L 417.19 154.69" stroke="white" fill="transparent"/>
	<path d = "M 473.44 154.69 L 471.09 138.28 L 478.12 152.34 L 494.53 154.69 L 494.53 147.66 L 485.16 140.62 L 471.09 150.00" stroke="white" fill="transparent"/>
	<path d = "M 328.12 473.44 L 346.88 595.31 L 351.56 520.31 L 344.53 496.88" stroke="white" fill="transparent"/>
	<path d = "M 447.66 562.50 L 499.22 482.81" stroke="white" fill="transparent"/>
	<path d = "M 414.84 342.19 L 473.44 487.50 L 485.16 468.75 L 482.81 405.47 L 461.72 335.16 L 445.31 321.09" stroke="white" fill="transparent"/>
	<path d = "M 480.47 337.50 L 555.47 471.09 L 576.56 492.19 L 583.59 482.81 L 576.56 412.50 L 555.47 337.50 L 534.38 297.66 L 513.28 278.91" stroke="white" fill="transparent"/>
	<path d = "M 393.75 164.06 L 396.09 164.06" stroke="white" fill="transparent"/>
	<path d = "M 393.75 164.06 L 405.47 135.94 L 410.16 152.34 L 417.19 145.31 L 424.22 121.88" stroke="white" fill="transparent"/>
</svg>