<?xml version="1.0" encoding="UTF-8" standalone="no"?>
<!--Created with ndjsontosvg (https:https://github.com/thompson318/ndjsontosvg) 
	from the simplified Google quickdraw data set. key_id = 6752882948833280-->
<svg width="600" height="600"
	xmlns="http://www.w3.org/2000/svg">
	xmlns:ndjsontosvg="https://github.com/thompson318/ndjsontosvg"
	xmlns:quickdraw="https://quickdraw.withgoogle.com/data"
	xmlns:scikit-surgery="https://doi.org/10.1007/s11548-020-02180-5">

	<rect width="100%" height="100%" fill="black" />
	<path d = "M 576.56 253.12 L 571.88 337.50 L 548.44 433.59 L 520.31 494.53 L 457.03 550.78 L 370.31 578.91 L 271.88 585.94 L 225.00 581.25 L 154.69 560.16 L 119.53 536.72 L 89.06 510.94 L 72.66 475.78 L 53.91 424.22 L 44.53 353.91 L 49.22 274.22 L 70.31 227.34 L 91.41 199.22 L 112.50 178.12 L 171.09 140.62 L 271.88 100.78 L 330.47 93.75 L 377.34 98.44 L 445.31 124.22 L 489.84 161.72 L 576.56 260.16" stroke="white" fill="transparent"/>
	<path d = "M 414.84 65.62 L 438.28 67.97 L 522.66 42.19 L 590.62 32.81 L 597.66 77.34 L 569.53 196.88 L 555.47 232.03" stroke="white" fill="transparent"/>
	<path d = "M 152.34 133.59 L 58.59 32.81 L 11.72 0.00 L 0.00 67.97 L 14.06 175.78 L 35.16 239.06 L 65.62 288.28" stroke="white" fill="transparent"/>
	<path d = "M 560.16 250.78 L 466.41 222.66 L 426.56 220.31 L 410.16 229.69 L 398.44 250.78 L 360.94 274.22 L 332.81 281.25 L 290.62 276.56 L 248.44 255.47 L 194.53 241.41 L 100.78 241.41 L 25.78 276.56" stroke="white" fill="transparent"/>
	<path d = "M 25.78 372.66 L 58.59 421.88 L 89.06 438.28 L 138.28 438.28 L 232.03 370.31 L 321.09 421.88 L 405.47 433.59 L 457.03 426.56 L 506.25 386.72 L 529.69 346.88" stroke="white" fill="transparent"/>
	<path d = "M 574.22 353.91 L 508.59 407.81 L 480.47 419.53 L 412.50 424.22 L 389.06 419.53 L 269.53 351.56 L 269.53 382.03 L 217.97 435.94 L 133.59 452.34 L 91.41 431.25 L 9.38 356.25" stroke="white" fill="transparent"/>
	<path d = "M 58.59 253.12 L 103.12 222.66 L 175.78 213.28 L 232.03 234.38 L 283.59 271.88 L 307.03 269.53 L 367.97 234.38 L 431.25 220.31 L 471.09 220.31 L 529.69 250.78 L 557.81 283.59 L 534.38 274.22 L 480.47 241.41 L 503.91 243.75 L 592.97 290.62 L 515.62 283.59 L 424.22 250.78 L 435.94 276.56 L 503.91 342.19 L 379.69 269.53 L 459.38 349.22 L 433.59 356.25 L 337.50 325.78 L 269.53 288.28 L 375.00 356.25 L 302.34 339.84 L 182.81 276.56 L 203.91 304.69 L 248.44 335.16 L 105.47 290.62" stroke="white" fill="transparent"/>
</svg>