<?xml version="1.0" encoding="UTF-8" standalone="no"?>
<!--Created with ndjsontosvg (https:https://github.com/thompson318/ndjsontosvg) 
	from the simplified Google quickdraw data set. key_id = 4529381802246144-->
<svg width="600" height="600"
	xmlns="http://www.w3.org/2000/svg">
	xmlns:ndjsontosvg="https://github.com/thompson318/ndjsontosvg"
	xmlns:quickdraw="https://quickdraw.withgoogle.com/data"
	xmlns:scikit-surgery="https://doi.org/10.1007/s11548-020-02180-5">

	<rect width="100%" height="100%" fill="black" />
	<path d = "M 51.56 21.09 L 475.78 18.75 L 588.28 35.16 L 592.97 46.88 L 583.59 196.88 L 595.31 239.06 L 597.66 285.94 L 588.28 321.09 L 571.88 328.12 L 353.91 332.81 L 234.38 323.44 L 105.47 288.28 L 11.72 274.22 L 0.00 248.44 L 0.00 217.97 L 49.22 46.88 L 53.91 0.00" stroke="white" fill="transparent"/>
	<path d = "M 135.94 89.06 L 164.06 91.41 L 187.50 112.50 L 203.91 166.41 L 194.53 201.56 L 168.75 227.34 L 154.69 232.03 L 103.12 217.97 L 70.31 180.47 L 79.69 157.03 L 164.06 89.06" stroke="white" fill="transparent"/>
	<path d = "M 431.25 121.88 L 496.88 119.53 L 536.72 152.34 L 532.03 187.50 L 485.16 246.09 L 468.75 253.12 L 435.94 236.72 L 410.16 217.97 L 393.75 185.16 L 412.50 145.31 L 445.31 131.25" stroke="white" fill="transparent"/>
	<path d = "M 370.31 154.69 L 274.22 133.59 L 187.50 131.25 L 194.53 232.03 L 187.50 311.72 L 353.91 314.06 L 356.25 229.69 L 370.31 161.72" stroke="white" fill="transparent"/>
</svg>