<?xml version="1.0" encoding="UTF-8" standalone="no"?>
<!--Created with ndjsontosvg (https:https://github.com/thompson318/ndjsontosvg) 
	from the simplified Google quickdraw data set. key_id = 5057702663290880-->
<svg width="600" height="600"
	xmlns="http://www.w3.org/2000/svg">
	xmlns:ndjsontosvg="https://github.com/thompson318/ndjsontosvg"
	xmlns:quickdraw="https://quickdraw.withgoogle.com/data"
	xmlns:scikit-surgery="https://doi.org/10.1007/s11548-020-02180-5">

	<rect width="100%" height="100%" fill="black" />
	<path d = "M 0.00 232.03 L 11.72 335.16 L 9.38 541.41 L 21.09 562.50 L 46.88 569.53 L 168.75 574.22 L 473.44 597.66 L 510.94 595.31 L 529.69 583.59 L 529.69 492.19 L 503.91 276.56 L 494.53 227.34 L 478.12 199.22 L 410.16 194.53 L 4.69 222.66" stroke="white" fill="transparent"/>
	<path d = "M 86.72 225.00 L 96.09 152.34 L 121.88 67.97 L 164.06 18.75 L 201.56 0.00 L 241.41 2.34 L 271.88 21.09 L 288.28 39.84 L 330.47 159.38 L 339.84 199.22" stroke="white" fill="transparent"/>
	<path d = "M 128.91 276.56 L 105.47 271.88 L 77.34 292.97 L 67.97 311.72 L 63.28 358.59 L 70.31 377.34 L 86.72 391.41 L 107.81 400.78 L 159.38 396.09 L 180.47 382.03 L 194.53 353.91 L 196.88 307.03 L 180.47 285.94 L 126.56 274.22 L 58.59 288.28" stroke="white" fill="transparent"/>
	<path d = "M 379.69 264.84 L 346.88 260.16 L 316.41 285.94 L 297.66 325.78 L 297.66 349.22 L 304.69 367.97 L 325.78 386.72 L 349.22 398.44 L 396.09 400.78 L 433.59 375.00 L 442.97 356.25 L 442.97 311.72 L 428.91 290.62 L 407.81 281.25 L 337.50 271.88" stroke="white" fill="transparent"/>
	<path d = "M 201.56 482.81 L 178.12 485.16 L 164.06 513.28 L 166.41 541.41 L 185.16 548.44 L 203.91 529.69 L 206.25 499.22 L 187.50 482.81 L 159.38 485.16" stroke="white" fill="transparent"/>
	<path d = "M 344.53 473.44 L 325.78 475.78 L 311.72 489.84 L 307.03 546.09 L 332.81 560.16 L 363.28 555.47 L 372.66 541.41 L 372.66 508.59 L 360.94 494.53 L 335.16 485.16" stroke="white" fill="transparent"/>
</svg>