<?xml version="1.0" encoding="UTF-8" standalone="no"?>
<!--Created with ndjsontosvg (https:https://github.com/thompson318/ndjsontosvg) 
	from the simplified Google quickdraw data set. key_id = 5768043491753984-->
<svg width="600" height="600"
	xmlns="http://www.w3.org/2000/svg">
	xmlns:ndjsontosvg="https://github.com/thompson318/ndjsontosvg"
	xmlns:quickdraw="https://quickdraw.withgoogle.com/data"
	xmlns:scikit-surgery="https://doi.org/10.1007/s11548-020-02180-5">

	<rect width="100%" height="100%" fill="black" />
	<path d = "M 0.00 117.19 L 4.69 175.78 L 2.34 300.00 L 164.06 295.31 L 321.09 311.72 L 557.81 316.41 L 574.22 307.03 L 597.66 93.75 L 571.88 89.06 L 440.62 105.47 L 82.03 126.56 L 9.38 124.22" stroke="white" fill="transparent"/>
	<path d = "M 103.12 159.38 L 84.38 168.75 L 75.00 182.81 L 72.66 217.97 L 91.41 248.44 L 135.94 267.19 L 166.41 255.47 L 182.81 232.03 L 189.84 194.53 L 185.16 154.69 L 168.75 140.62 L 154.69 138.28 L 84.38 159.38" stroke="white" fill="transparent"/>
	<path d = "M 405.47 152.34 L 379.69 171.09 L 370.31 199.22 L 379.69 225.00 L 403.12 248.44 L 435.94 264.84 L 478.12 269.53 L 510.94 262.50 L 532.03 246.09 L 541.41 215.62 L 543.75 178.12 L 529.69 154.69 L 506.25 135.94 L 468.75 128.91 L 428.91 133.59 L 393.75 159.38 L 386.72 187.50" stroke="white" fill="transparent"/>
	<path d = "M 161.72 105.47 L 154.69 103.12 L 152.34 75.00 L 159.38 16.41 L 166.41 9.38 L 300.00 2.34 L 468.75 0.00 L 485.16 98.44" stroke="white" fill="transparent"/>
	<path d = "M 217.97 145.31 L 217.97 145.31" stroke="white" fill="transparent"/>
	<path d = "M 302.34 128.91 L 304.69 128.91" stroke="white" fill="transparent"/>
	<path d = "M 278.91 187.50 L 276.56 192.19" stroke="white" fill="transparent"/>
	<path d = "M 210.94 236.72 L 215.62 236.72" stroke="white" fill="transparent"/>
	<path d = "M 311.72 215.62 L 314.06 215.62" stroke="white" fill="transparent"/>
</svg>