<?xml version="1.0" encoding="UTF-8" standalone="no"?>
<!--Created with ndjsontosvg (https:https://github.com/thompson318/ndjsontosvg) 
	from the simplified Google quickdraw data set. key_id = 4870914267152384-->
<svg width="600" height="600"
	xmlns="http://www.w3.org/2000/svg">
	xmlns:ndjsontosvg="https://github.com/thompson318/ndjsontosvg"
	xmlns:quickdraw="https://quickdraw.withgoogle.com/data"
	xmlns:scikit-surgery="https://doi.org/10.1007/s11548-020-02180-5">

	<rect width="100%" height="100%" fill="black" />
	<path d = "M 0.00 346.88 L 9.38 292.97 L 32.81 227.34 L 77.34 152.34 L 150.00 86.72 L 236.72 32.81 L 321.09 7.03 L 393.75 0.00 L 459.38 7.03 L 513.28 21.09 L 536.72 35.16 L 567.19 84.38 L 597.66 267.19" stroke="white" fill="transparent"/>
	<path d = "M 82.03 370.31 L 119.53 250.78 L 150.00 206.25 L 246.09 128.91 L 365.62 96.09 L 447.66 131.25 L 489.84 180.47 L 517.97 225.00 L 541.41 295.31 L 543.75 335.16" stroke="white" fill="transparent"/>
	<path d = "M 164.06 403.12 L 175.78 311.72 L 196.88 269.53 L 248.44 222.66 L 302.34 203.91 L 349.22 206.25 L 419.53 248.44 L 452.34 304.69 L 461.72 358.59" stroke="white" fill="transparent"/>
	<path d = "M 208.59 382.03 L 236.72 314.06 L 262.50 295.31 L 292.97 290.62 L 337.50 309.38 L 410.16 372.66 L 421.88 428.91" stroke="white" fill="transparent"/>
</svg>