<?xml version="1.0" encoding="UTF-8" standalone="no"?>
<!--Created with ndjsontosvg (https:https://github.com/thompson318/ndjsontosvg) 
	from the simplified Google quickdraw data set. key_id = 6186353022730240-->
<svg width="600" height="600"
	xmlns="http://www.w3.org/2000/svg">
	xmlns:ndjsontosvg="https://github.com/thompson318/ndjsontosvg"
	xmlns:quickdraw="https://quickdraw.withgoogle.com/data"
	xmlns:scikit-surgery="https://doi.org/10.1007/s11548-020-02180-5">

	<rect width="100%" height="100%" fill="black" />
	<path d = "M 75.00 42.19 L 51.56 18.75 L 4.69 0.00 L 2.34 14.06 L 16.41 37.50 L 93.75 98.44 L 215.62 215.62 L 325.78 290.62 L 351.56 304.69 L 351.56 300.00 L 300.00 239.06 L 100.78 60.94 L 58.59 32.81" stroke="white" fill="transparent"/>
	<path d = "M 344.53 281.25 L 539.06 323.44 L 571.88 377.34" stroke="white" fill="transparent"/>
	<path d = "M 351.56 307.03 L 363.28 337.50 L 457.03 393.75 L 471.09 435.94" stroke="white" fill="transparent"/>
	<path d = "M 337.50 302.34 L 337.50 351.56 L 389.06 398.44 L 396.09 442.97" stroke="white" fill="transparent"/>
	<path d = "M 346.88 285.94 L 400.78 309.38 L 468.75 358.59 L 517.97 353.91 L 534.38 358.59 L 567.19 419.53" stroke="white" fill="transparent"/>
	<path d = "M 351.56 295.31 L 372.66 321.09 L 414.84 349.22 L 454.69 365.62 L 501.56 377.34 L 527.34 414.84" stroke="white" fill="transparent"/>
	<path d = "M 536.72 426.56 L 536.72 426.56" stroke="white" fill="transparent"/>
	<path d = "M 377.34 295.31 L 471.09 335.16 L 550.78 337.50 L 571.88 358.59 L 597.66 417.19" stroke="white" fill="transparent"/>
	<path d = "M 344.53 285.94 L 400.78 292.97 L 473.44 271.88 L 508.59 274.22 L 546.09 292.97 L 595.31 358.59" stroke="white" fill="transparent"/>
</svg>