<?xml version="1.0" encoding="UTF-8" standalone="no"?>
<!--Created with ndjsontosvg (https:https://github.com/thompson318/ndjsontosvg) 
	from the simplified Google quickdraw data set. key_id = 5901273343721472-->
<svg width="600" height="600"
	xmlns="http://www.w3.org/2000/svg">
	xmlns:ndjsontosvg="https://github.com/thompson318/ndjsontosvg"
	xmlns:quickdraw="https://quickdraw.withgoogle.com/data"
	xmlns:scikit-surgery="https://doi.org/10.1007/s11548-020-02180-5">

	<rect width="100%" height="100%" fill="black" />
	<path d = "M 28.12 217.97 L 25.78 276.56 L 58.59 503.91 L 60.94 597.66 L 154.69 583.59 L 227.34 583.59 L 309.38 595.31 L 321.09 438.28 L 290.62 189.84 L 285.94 2.34 L 150.00 35.16 L 35.16 49.22 L 0.00 67.97 L 9.38 75.00 L 14.06 91.41 L 7.03 225.00 L 18.75 278.91 L 28.12 285.94" stroke="white" fill="transparent"/>
	<path d = "M 89.06 185.16 L 147.66 178.12 L 152.34 203.91 L 145.31 241.41 L 107.81 234.38 L 138.28 154.69" stroke="white" fill="transparent"/>
	<path d = "M 257.81 187.50 L 262.50 210.94 L 250.78 241.41 L 236.72 260.16 L 222.66 257.81 L 194.53 222.66 L 220.31 157.03 L 225.00 150.00 L 236.72 161.72 L 267.19 168.75" stroke="white" fill="transparent"/>
	<path d = "M 112.50 335.16 L 192.19 328.12 L 185.16 349.22 L 152.34 382.03 L 105.47 377.34 L 126.56 314.06" stroke="white" fill="transparent"/>
	<path d = "M 203.91 323.44 L 307.03 332.81 L 241.41 396.09 L 222.66 393.75 L 213.28 379.69 L 222.66 311.72" stroke="white" fill="transparent"/>
</svg>