<?xml version="1.0" encoding="UTF-8" standalone="no"?>
<!--Created with ndjsontosvg (https:https://github.com/thompson318/ndjsontosvg) 
	from the simplified Google quickdraw data set. key_id = 6442207462555648-->
<svg width="600" height="600"
	xmlns="http://www.w3.org/2000/svg">
	xmlns:ndjsontosvg="https://github.com/thompson318/ndjsontosvg"
	xmlns:quickdraw="https://quickdraw.withgoogle.com/data"
	xmlns:scikit-surgery="https://doi.org/10.1007/s11548-020-02180-5">

	<rect width="100%" height="100%" fill="black" />
	<path d = "M 16.41 23.44 L 9.38 37.50 L 14.06 300.00 L 2.34 508.59 L 7.03 560.16 L 60.94 590.62 L 110.16 597.66 L 194.53 595.31 L 220.31 578.91 L 232.03 564.84 L 232.03 520.31 L 196.88 314.06 L 171.09 82.03 L 159.38 11.72 L 126.56 0.00 L 72.66 0.00 L 11.72 21.09 L 0.00 28.12 L 0.00 42.19" stroke="white" fill="transparent"/>
	<path d = "M 46.88 314.06 L 49.22 314.06" stroke="white" fill="transparent"/>
	<path d = "M 51.56 93.75 L 72.66 86.72 L 91.41 93.75 L 98.44 114.84 L 91.41 128.91 L 51.56 131.25 L 39.84 112.50" stroke="white" fill="transparent"/>
	<path d = "M 100.78 239.06 L 98.44 297.66 L 70.31 428.91 L 56.25 553.12" stroke="white" fill="transparent"/>
	<path d = "M 53.91 140.62 L 46.88 157.03 L 53.91 182.81 L 91.41 217.97 L 117.19 232.03 L 262.50 276.56" stroke="white" fill="transparent"/>
	<path d = "M 18.75 288.28 L 79.69 283.59 L 243.75 300.00" stroke="white" fill="transparent"/>
	<path d = "M 35.16 372.66 L 248.44 391.41" stroke="white" fill="transparent"/>
	<path d = "M 28.12 555.47 L 28.12 555.47" stroke="white" fill="transparent"/>
</svg>