<?xml version="1.0" encoding="UTF-8" standalone="no"?>
<!--Created with ndjsontosvg (https:https://github.com/thompson318/ndjsontosvg) 
	from the simplified Google quickdraw data set. key_id = 4578831794962432-->
<svg width="600" height="600"
	xmlns="http://www.w3.org/2000/svg">
	xmlns:ndjsontosvg="https://github.com/thompson318/ndjsontosvg"
	xmlns:quickdraw="https://quickdraw.withgoogle.com/data"
	xmlns:scikit-surgery="https://doi.org/10.1007/s11548-020-02180-5">

	<rect width="100%" height="100%" fill="black" />
	<path d = "M 11.72 581.25 L 0.00 278.91 L 0.00 126.56 L 9.38 7.03 L 30.47 0.00 L 82.03 16.41 L 194.53 28.12 L 234.38 42.19 L 232.03 168.75 L 246.09 297.66 L 246.09 393.75 L 243.75 576.56 L 234.38 583.59 L 4.69 597.66" stroke="white" fill="transparent"/>
	<path d = "M 72.66 91.41 L 70.31 112.50 L 77.34 119.53 L 91.41 105.47 L 79.69 91.41" stroke="white" fill="transparent"/>
	<path d = "M 140.62 93.75 L 145.31 114.84 L 173.44 119.53 L 175.78 93.75 L 154.69 93.75" stroke="white" fill="transparent"/>
	<path d = "M 89.06 175.78 L 89.06 220.31 L 110.16 222.66 L 110.16 201.56" stroke="white" fill="transparent"/>
</svg>