<?xml version="1.0" encoding="UTF-8" standalone="no"?>
<!--Created with ndjsontosvg (https:https://github.com/thompson318/ndjsontosvg) 
	from the simplified Google quickdraw data set. key_id = 6631722877714432-->
<svg width="600" height="600"
	xmlns="http://www.w3.org/2000/svg">
	xmlns:ndjsontosvg="https://github.com/thompson318/ndjsontosvg"
	xmlns:quickdraw="https://quickdraw.withgoogle.com/data"
	xmlns:scikit-surgery="https://doi.org/10.1007/s11548-020-02180-5">

	<rect width="100%" height="100%" fill="black" />
	<path d = "M 217.97 7.03 L 53.91 0.00 L 49.22 14.06 L 11.72 328.12 L 0.00 534.38 L 4.69 585.94 L 23.44 592.97 L 159.38 597.66 L 210.94 588.28 L 222.66 574.22 L 208.59 349.22 L 220.31 150.00 L 229.69 79.69 L 227.34 11.72" stroke="white" fill="transparent"/>
	<path d = "M 86.72 51.56 L 82.03 56.25" stroke="white" fill="transparent"/>
	<path d = "M 178.12 77.34 L 180.47 77.34" stroke="white" fill="transparent"/>
	<path d = "M 98.44 112.50 L 98.44 112.50" stroke="white" fill="transparent"/>
	<path d = "M 166.41 178.12 L 168.75 180.47" stroke="white" fill="transparent"/>
	<path d = "M 84.38 215.62 L 79.69 217.97" stroke="white" fill="transparent"/>
	<path d = "M 100.78 135.94 L 105.47 138.28" stroke="white" fill="transparent"/>
	<path d = "M 178.12 140.62 L 175.78 140.62" stroke="white" fill="transparent"/>
</svg>