<?xml version="1.0" encoding="UTF-8" standalone="no"?>
<!--Created with ndjsontosvg (https:https://github.com/thompson318/ndjsontosvg) 
	from the simplified Google quickdraw data set. key_id = 5680057047580672-->
<svg width="600" height="600"
	xmlns="http://www.w3.org/2000/svg">
	xmlns:ndjsontosvg="https://github.com/thompson318/ndjsontosvg"
	xmlns:quickdraw="https://quickdraw.withgoogle.com/data"
	xmlns:scikit-surgery="https://doi.org/10.1007/s11548-020-02180-5">

	<rect width="100%" height="100%" fill="black" />
	<path d = "M 77.34 150.00 L 77.34 150.00" stroke="white" fill="transparent"/>
	<path d = "M 0.00 128.91 L 18.75 138.28 L 189.84 295.31 L 260.16 391.41 L 281.25 403.12" stroke="white" fill="transparent"/>
	<path d = "M 32.81 119.53 L 49.22 96.09 L 182.81 4.69" stroke="white" fill="transparent"/>
	<path d = "M 232.03 21.09 L 241.41 44.53 L 384.38 185.16 L 510.94 337.50 L 548.44 367.97" stroke="white" fill="transparent"/>
	<path d = "M 269.53 386.72 L 363.28 496.88 L 391.41 506.25 L 478.12 454.69 L 597.66 351.56" stroke="white" fill="transparent"/>
	<path d = "M 187.50 0.00 L 227.34 2.34" stroke="white" fill="transparent"/>
	<path d = "M 79.69 152.34 L 96.09 119.53 L 131.25 91.41 L 140.62 107.81 L 135.94 119.53 L 96.09 152.34" stroke="white" fill="transparent"/>
	<path d = "M 166.41 46.88 L 178.12 67.97 L 210.94 79.69" stroke="white" fill="transparent"/>
	<path d = "M 227.34 79.69 L 213.28 35.16 L 166.41 18.75 L 121.88 25.78" stroke="white" fill="transparent"/>
	<path d = "M 138.28 185.16 L 147.66 168.75 L 199.22 161.72 L 203.91 182.81 L 152.34 208.59" stroke="white" fill="transparent"/>
	<path d = "M 199.22 121.88 L 196.88 103.12 L 217.97 89.06 L 260.16 98.44 L 267.19 138.28 L 239.06 150.00 L 217.97 142.97" stroke="white" fill="transparent"/>
	<path d = "M 227.34 276.56 L 208.59 278.91 L 210.94 262.50 L 255.47 255.47 L 278.91 302.34 L 246.09 318.75 L 234.38 295.31" stroke="white" fill="transparent"/>
	<path d = "M 278.91 208.59 L 283.59 194.53 L 307.03 182.81 L 351.56 182.81 L 358.59 203.91 L 353.91 227.34 L 300.00 229.69" stroke="white" fill="transparent"/>
	<path d = "M 321.09 356.25 L 323.44 339.84 L 377.34 356.25 L 377.34 384.38 L 325.78 379.69" stroke="white" fill="transparent"/>
	<path d = "M 382.03 288.28 L 377.34 274.22 L 398.44 269.53 L 440.62 283.59 L 440.62 300.00 L 431.25 311.72 L 389.06 325.78 L 372.66 309.38" stroke="white" fill="transparent"/>
	<path d = "M 400.78 431.25 L 522.66 349.22" stroke="white" fill="transparent"/>
</svg>