<?xml version="1.0" encoding="UTF-8" standalone="no"?>
<!--Created with ndjsontosvg (https:https://github.com/thompson318/ndjsontosvg) 
	from the simplified Google quickdraw data set. key_id = 5553600837189632-->
<svg width="600" height="600"
	xmlns="http://www.w3.org/2000/svg">
	xmlns:ndjsontosvg="https://github.com/thompson318/ndjsontosvg"
	xmlns:quickdraw="https://quickdraw.withgoogle.com/data"
	xmlns:scikit-surgery="https://doi.org/10.1007/s11548-020-02180-5">

	<rect width="100%" height="100%" fill="black" />
	<path d = "M 372.66 166.41 L 389.06 168.75 L 414.84 185.16 L 466.41 274.22 L 527.34 236.72 L 592.97 178.12 L 597.66 189.84 L 590.62 215.62 L 532.03 316.41 L 553.12 318.75 L 590.62 292.97 L 574.22 339.84 L 553.12 363.28 L 585.94 433.59 L 585.94 475.78 L 560.16 496.88 L 527.34 508.59 L 468.75 510.94 L 389.06 454.69 L 304.69 325.78 L 295.31 321.09 L 260.16 440.62 L 206.25 532.03 L 161.72 581.25" stroke="white" fill="transparent"/>
	<path d = "M 372.66 159.38 L 393.75 112.50 L 412.50 37.50 L 414.84 4.69 L 403.12 0.00 L 379.69 35.16 L 356.25 145.31 L 229.69 161.72 L 187.50 187.50 L 0.00 199.22" stroke="white" fill="transparent"/>
	<path d = "M 356.25 232.03 L 367.97 241.41 L 393.75 241.41" stroke="white" fill="transparent"/>
</svg>