<?xml version="1.0" encoding="UTF-8" standalone="no"?>
<!--Created with ndjsontosvg (https:https://github.com/thompson318/ndjsontosvg) 
	from the simplified Google quickdraw data set. key_id = 5638593345224704-->
<svg width="600" height="600"
	xmlns="http://www.w3.org/2000/svg">
	xmlns:ndjsontosvg="https://github.com/thompson318/ndjsontosvg"
	xmlns:quickdraw="https://quickdraw.withgoogle.com/data"
	xmlns:scikit-surgery="https://doi.org/10.1007/s11548-020-02180-5">

	<rect width="100%" height="100%" fill="black" />
	<path d = "M 553.12 138.28 L 532.03 35.16 L 522.66 166.41 L 377.34 18.75 L 356.25 7.03 L 290.62 0.00 L 171.09 35.16 L 21.09 51.56 L 7.03 65.62 L 2.34 89.06 L 2.34 171.09 L 21.09 194.53 L 93.75 222.66 L 110.16 337.50 L 131.25 365.62 L 145.31 365.62 L 161.72 351.56 L 173.44 225.00 L 180.47 278.91 L 206.25 342.19 L 227.34 351.56 L 255.47 332.81 L 267.19 314.06 L 276.56 227.34 L 283.59 281.25 L 302.34 321.09 L 332.81 342.19 L 356.25 309.38 L 375.00 236.72 L 379.69 311.72 L 407.81 351.56 L 440.62 363.28 L 452.34 360.94 L 478.12 323.44 L 487.50 260.16 L 597.66 281.25" stroke="white" fill="transparent"/>
</svg>