<?xml version="1.0" encoding="UTF-8" standalone="no"?>
<!--Created with ndjsontosvg (https:https://github.com/thompson318/ndjsontosvg) 
	from the simplified Google quickdraw data set. key_id = 4787942612533248-->
<svg width="600" height="600"
	xmlns="http://www.w3.org/2000/svg">
	xmlns:ndjsontosvg="https://github.com/thompson318/ndjsontosvg"
	xmlns:quickdraw="https://quickdraw.withgoogle.com/data"
	xmlns:scikit-surgery="https://doi.org/10.1007/s11548-020-02180-5">

	<rect width="100%" height="100%" fill="black" />
	<path d = "M 309.38 232.03 L 292.97 236.72 L 264.84 269.53 L 253.12 323.44 L 257.81 358.59 L 253.12 410.16 L 257.81 428.91 L 271.88 447.66 L 321.09 459.38 L 398.44 457.03 L 414.84 428.91 L 353.91 421.88 L 328.12 405.47 L 314.06 375.00 L 314.06 356.25 L 344.53 300.00 L 346.88 267.19 L 323.44 239.06 L 295.31 232.03" stroke="white" fill="transparent"/>
	<path d = "M 351.56 264.84 L 379.69 236.72 L 407.81 154.69 L 433.59 124.22 L 501.56 84.38 L 588.28 86.72" stroke="white" fill="transparent"/>
	<path d = "M 581.25 89.06 L 597.66 77.34 L 590.62 60.94 L 574.22 67.97 L 543.75 65.62 L 525.00 58.59 L 520.31 46.88 L 550.78 28.12 L 581.25 32.81" stroke="white" fill="transparent"/>
	<path d = "M 583.59 56.25 L 543.75 63.28 L 534.38 51.56 L 539.06 37.50 L 541.41 46.88 L 548.44 35.16 L 578.91 32.81" stroke="white" fill="transparent"/>
	<path d = "M 581.25 30.47 L 581.25 16.41 L 557.81 0.00" stroke="white" fill="transparent"/>
	<path d = "M 384.38 18.75 L 349.22 75.00 L 335.16 84.38 L 292.97 89.06 L 180.47 84.38 L 89.06 91.41 L 42.19 110.16 L 0.00 140.62 L 0.00 196.88" stroke="white" fill="transparent"/>
	<path d = "M 255.47 278.91 L 217.97 304.69 L 161.72 309.38 L 124.22 304.69 L 0.00 269.53" stroke="white" fill="transparent"/>
</svg>