<?xml version="1.0" encoding="UTF-8" standalone="no"?>
<!--Created with ndjsontosvg (https:https://github.com/thompson318/ndjsontosvg) 
	from the simplified Google quickdraw data set. key_id = 4733794496020480-->
<svg width="600" height="600"
	xmlns="http://www.w3.org/2000/svg">
	xmlns:ndjsontosvg="https://github.com/thompson318/ndjsontosvg"
	xmlns:quickdraw="https://quickdraw.withgoogle.com/data"
	xmlns:scikit-surgery="https://doi.org/10.1007/s11548-020-02180-5">

	<rect width="100%" height="100%" fill="black" />
	<path d = "M 321.09 93.75 L 321.09 215.62 L 307.03 290.62 L 309.38 314.06 L 318.75 325.78 L 351.56 290.62 L 372.66 194.53 L 372.66 152.34 L 353.91 112.50 L 302.34 82.03 L 337.50 46.88 L 344.53 0.00 L 353.91 49.22 L 400.78 173.44 L 398.44 182.81 L 0.00 182.81 L 91.41 187.50 L 276.56 213.28 L 203.91 210.94 L 16.41 185.16 L 93.75 189.84 L 292.97 260.16 L 328.12 260.16 L 421.88 281.25 L 487.50 304.69 L 595.31 318.75 L 564.84 274.22 L 562.50 234.38 L 569.53 199.22 L 297.66 168.75 L 93.75 168.75" stroke="white" fill="transparent"/>
</svg>