<?xml version="1.0" encoding="UTF-8" standalone="no"?>
<!--Created with ndjsontosvg (https:https://github.com/thompson318/ndjsontosvg) 
	from the simplified Google quickdraw data set. key_id = 5564812668960768-->
<svg width="600" height="600"
	xmlns="http://www.w3.org/2000/svg">
	xmlns:ndjsontosvg="https://github.com/thompson318/ndjsontosvg"
	xmlns:quickdraw="https://quickdraw.withgoogle.com/data"
	xmlns:scikit-surgery="https://doi.org/10.1007/s11548-020-02180-5">

	<rect width="100%" height="100%" fill="black" />
	<path d = "M 241.41 28.12 L 253.12 138.28 L 225.00 225.00 L 35.16 466.41 L 2.34 543.75 L 2.34 590.62 L 16.41 597.66 L 44.53 592.97" stroke="white" fill="transparent"/>
	<path d = "M 405.47 0.00 L 400.78 185.16 L 372.66 255.47 L 323.44 321.09 L 297.66 372.66 L 278.91 454.69 L 278.91 503.91" stroke="white" fill="transparent"/>
	<path d = "M 339.84 100.78 L 302.34 142.97 L 278.91 182.81 L 262.50 234.38 L 276.56 278.91 L 274.22 297.66 L 260.16 325.78 L 225.00 360.94 L 225.00 421.88 L 161.72 515.62" stroke="white" fill="transparent"/>
	<path d = "M 330.47 166.41 L 302.34 227.34 L 248.44 304.69 L 248.44 346.88 L 187.50 396.09 L 168.75 433.59" stroke="white" fill="transparent"/>
</svg>