<?xml version="1.0" encoding="UTF-8" standalone="no"?>
<!--Created with ndjsontosvg (https:https://github.com/thompson318/ndjsontosvg) 
	from the simplified Google quickdraw data set. key_id = 5082396238020608-->
<svg width="600" height="600"
	xmlns="http://www.w3.org/2000/svg">
	xmlns:ndjsontosvg="https://github.com/thompson318/ndjsontosvg"
	xmlns:quickdraw="https://quickdraw.withgoogle.com/data"
	xmlns:scikit-surgery="https://doi.org/10.1007/s11548-020-02180-5">

	<rect width="100%" height="100%" fill="black" />
	<path d = "M 0.00 138.28 L 9.38 145.31 L 37.50 128.91 L 60.94 89.06 L 72.66 44.53 L 105.47 14.06 L 142.97 0.00 L 194.53 23.44 L 267.19 121.88 L 290.62 138.28 L 330.47 107.81 L 379.69 28.12 L 412.50 2.34 L 450.00 46.88 L 517.97 91.41 L 560.16 103.12 L 592.97 96.09" stroke="white" fill="transparent"/>
	<path d = "M 9.38 147.66 L 30.47 159.38 L 53.91 150.00 L 93.75 65.62 L 107.81 51.56 L 126.56 53.91 L 140.62 65.62 L 208.59 171.09 L 239.06 196.88 L 281.25 192.19 L 302.34 173.44 L 335.16 124.22 L 365.62 117.19 L 403.12 98.44 L 447.66 107.81 L 525.00 138.28 L 597.66 110.16" stroke="white" fill="transparent"/>
</svg>