<?xml version="1.0" encoding="UTF-8" standalone="no"?>
<!--Created with ndjsontosvg (https:https://github.com/thompson318/ndjsontosvg) 
	from the simplified Google quickdraw data set. key_id = 6528176522002432-->
<svg width="600" height="600"
	xmlns="http://www.w3.org/2000/svg">
	xmlns:ndjsontosvg="https://github.com/thompson318/ndjsontosvg"
	xmlns:quickdraw="https://quickdraw.withgoogle.com/data"
	xmlns:scikit-surgery="https://doi.org/10.1007/s11548-020-02180-5">

	<rect width="100%" height="100%" fill="black" />
	<path d = "M 49.22 65.62 L 35.16 126.56 L 35.16 159.38 L 11.72 227.34 L 7.03 285.94 L 84.38 300.00 L 557.81 297.66 L 588.28 285.94 L 597.66 274.22 L 595.31 222.66 L 578.91 192.19 L 564.84 182.81 L 450.00 166.41 L 292.97 159.38 L 229.69 145.31 L 199.22 124.22 L 182.81 98.44 L 182.81 9.38 L 168.75 0.00 L 79.69 2.34 L 14.06 35.16" stroke="white" fill="transparent"/>
	<path d = "M 32.81 295.31 L 37.50 346.88 L 63.28 372.66 L 100.78 375.00 L 131.25 323.44 L 135.94 267.19 L 121.88 257.81 L 56.25 260.16 L 4.69 285.94 L 0.00 300.00" stroke="white" fill="transparent"/>
	<path d = "M 525.00 302.34 L 522.66 332.81 L 532.03 344.53 L 541.41 353.91 L 564.84 351.56 L 576.56 314.06 L 576.56 288.28 L 513.28 290.62" stroke="white" fill="transparent"/>
</svg>