<?xml version="1.0" encoding="UTF-8" standalone="no"?>
<!--Created with ndjsontosvg (https:https://github.com/thompson318/ndjsontosvg) 
	from the simplified Google quickdraw data set. key_id = 6687044208164864-->
<svg width="600" height="600"
	xmlns="http://www.w3.org/2000/svg">
	xmlns:ndjsontosvg="https://github.com/thompson318/ndjsontosvg"
	xmlns:quickdraw="https://quickdraw.withgoogle.com/data"
	xmlns:scikit-surgery="https://doi.org/10.1007/s11548-020-02180-5">

	<rect width="100%" height="100%" fill="black" />
	<path d = "M 0.00 243.75 L 53.91 250.78 L 131.25 278.91 L 194.53 281.25 L 262.50 264.84 L 321.09 227.34 L 358.59 187.50 L 377.34 152.34 L 391.41 93.75 L 391.41 53.91 L 375.00 7.03 L 318.75 0.00 L 274.22 14.06 L 248.44 35.16 L 239.06 60.94 L 241.41 121.88 L 255.47 180.47 L 281.25 227.34 L 311.72 269.53 L 351.56 300.00 L 410.16 316.41 L 478.12 321.09 L 550.78 321.09 L 588.28 309.38 L 597.66 302.34 L 597.66 178.12" stroke="white" fill="transparent"/>
	<path d = "M 2.34 234.38 L 9.38 208.59 L 16.41 203.91 L 56.25 232.03 L 107.81 243.75 L 215.62 239.06 L 316.41 199.22 L 358.59 150.00 L 367.97 117.19 L 358.59 72.66 L 318.75 44.53 L 285.94 56.25 L 264.84 154.69 L 269.53 185.16 L 295.31 222.66 L 382.03 267.19 L 482.81 295.31 L 560.16 297.66 L 590.62 285.94 L 597.66 271.88" stroke="white" fill="transparent"/>
</svg>