<?xml version="1.0" encoding="UTF-8" standalone="no"?>
<!--Created with ndjsontosvg (https:https://github.com/thompson318/ndjsontosvg) 
	from the simplified Google quickdraw data set. key_id = 4651828920713216-->
<svg width="600" height="600"
	xmlns="http://www.w3.org/2000/svg">
	xmlns:ndjsontosvg="https://github.com/thompson318/ndjsontosvg"
	xmlns:quickdraw="https://quickdraw.withgoogle.com/data"
	xmlns:scikit-surgery="https://doi.org/10.1007/s11548-020-02180-5">

	<rect width="100%" height="100%" fill="black" />
	<path d = "M 161.72 234.38 L 56.25 295.31 L 11.72 337.50 L 0.00 365.62 L 0.00 398.44 L 28.12 428.91 L 98.44 442.97 L 307.03 438.28 L 393.75 421.88 L 447.66 396.09 L 478.12 356.25 L 494.53 278.91 L 426.56 25.78 L 407.81 0.00 L 370.31 7.03 L 328.12 39.84 L 314.06 58.59 L 295.31 105.47 L 290.62 164.06 L 269.53 208.59 L 227.34 229.69 L 171.09 234.38" stroke="white" fill="transparent"/>
	<path d = "M 75.00 440.62 L 63.28 454.69 L 49.22 501.56 L 46.88 522.66 L 58.59 546.09 L 82.03 574.22 L 124.22 595.31 L 150.00 597.66 L 171.09 576.56 L 182.81 522.66 L 161.72 494.53 L 79.69 450.00 L 63.28 447.66 L 53.91 466.41" stroke="white" fill="transparent"/>
	<path d = "M 250.78 433.59 L 243.75 487.50 L 253.12 525.00 L 269.53 550.78 L 297.66 567.19 L 325.78 567.19 L 358.59 548.44 L 379.69 522.66 L 386.72 499.22 L 377.34 461.72 L 360.94 442.97 L 316.41 435.94 L 300.00 447.66" stroke="white" fill="transparent"/>
	<path d = "M 428.91 410.16 L 417.19 426.56 L 419.53 454.69" stroke="white" fill="transparent"/>
</svg>