<?xml version="1.0" encoding="UTF-8" standalone="no"?>
<!--Created with ndjsontosvg (https:https://github.com/thompson318/ndjsontosvg) 
	from the simplified Google quickdraw data set. key_id = 5960248428855296-->
<svg width="600" height="600"
	xmlns="http://www.w3.org/2000/svg">
	xmlns:ndjsontosvg="https://github.com/thompson318/ndjsontosvg"
	xmlns:quickdraw="https://quickdraw.withgoogle.com/data"
	xmlns:scikit-surgery="https://doi.org/10.1007/s11548-020-02180-5">

	<rect width="100%" height="100%" fill="black" />
	<path d = "M 0.00 168.75 L 46.88 187.50 L 114.84 180.47 L 203.91 140.62 L 285.94 77.34 L 344.53 46.88 L 393.75 32.81 L 466.41 30.47 L 525.00 51.56 L 571.88 96.09 L 595.31 152.34 L 590.62 225.00" stroke="white" fill="transparent"/>
	<path d = "M 492.19 51.56 L 499.22 124.22 L 482.81 255.47 L 478.12 248.44" stroke="white" fill="transparent"/>
	<path d = "M 424.22 49.22 L 421.88 147.66 L 405.47 257.81" stroke="white" fill="transparent"/>
	<path d = "M 370.31 49.22 L 356.25 260.16" stroke="white" fill="transparent"/>
	<path d = "M 297.66 86.72 L 288.28 255.47 L 283.59 274.22 L 278.91 262.50" stroke="white" fill="transparent"/>
	<path d = "M 206.25 171.09 L 203.91 248.44 L 196.88 276.56 L 194.53 269.53" stroke="white" fill="transparent"/>
	<path d = "M 133.59 180.47 L 131.25 292.97 L 126.56 300.00 L 121.88 288.28" stroke="white" fill="transparent"/>
	<path d = "M 18.75 175.78 L 28.12 255.47" stroke="white" fill="transparent"/>
	<path d = "M 25.78 206.25 L 128.91 196.88 L 285.94 173.44 L 515.62 157.03" stroke="white" fill="transparent"/>
	<path d = "M 32.81 236.72 L 431.25 222.66" stroke="white" fill="transparent"/>
	<path d = "M 49.22 269.53 L 307.03 281.25 L 410.16 267.19" stroke="white" fill="transparent"/>
	<path d = "M 234.38 124.22 L 300.00 131.25 L 503.91 110.16" stroke="white" fill="transparent"/>
	<path d = "M 281.25 131.25 L 492.19 147.66" stroke="white" fill="transparent"/>
	<path d = "M 365.62 70.31 L 480.47 70.31 L 513.28 82.03" stroke="white" fill="transparent"/>
	<path d = "M 391.41 11.72 L 377.34 30.47 L 433.59 16.41 L 435.94 7.03 L 410.16 0.00 L 363.28 23.44 L 426.56 16.41 L 442.97 7.03 L 419.53 4.69 L 360.94 21.09 L 407.81 21.09 L 447.66 11.72 L 396.09 16.41 L 365.62 23.44 L 379.69 28.12 L 442.97 16.41 L 426.56 7.03 L 391.41 11.72 L 370.31 21.09 L 379.69 25.78 L 442.97 14.06 L 400.78 9.38 L 370.31 28.12 L 372.66 35.16 L 440.62 28.12 L 445.31 21.09 L 428.91 18.75" stroke="white" fill="transparent"/>
</svg>