<?xml version="1.0" encoding="UTF-8" standalone="no"?>
<!--Created with ndjsontosvg (https:https://github.com/thompson318/ndjsontosvg) 
	from the simplified Google quickdraw data set. key_id = 6746766328201216-->
<svg width="600" height="600"
	xmlns="http://www.w3.org/2000/svg">
	xmlns:ndjsontosvg="https://github.com/thompson318/ndjsontosvg"
	xmlns:quickdraw="https://quickdraw.withgoogle.com/data"
	xmlns:scikit-surgery="https://doi.org/10.1007/s11548-020-02180-5">

	<rect width="100%" height="100%" fill="black" />
	<path d = "M 107.81 440.62 L 56.25 407.81 L 51.56 375.00 L 77.34 346.88 L 103.12 342.19 L 124.22 353.91 L 142.97 375.00 L 150.00 396.09 L 145.31 417.19 L 128.91 424.22 L 98.44 421.88" stroke="white" fill="transparent"/>
	<path d = "M 232.03 428.91 L 192.19 403.12 L 173.44 379.69 L 171.09 358.59 L 201.56 328.12 L 217.97 325.78 L 241.41 337.50 L 267.19 375.00 L 271.88 410.16 L 243.75 421.88 L 215.62 417.19" stroke="white" fill="transparent"/>
	<path d = "M 358.59 417.19 L 316.41 400.78 L 304.69 370.31 L 309.38 353.91 L 337.50 328.12 L 370.31 330.47 L 393.75 356.25 L 403.12 393.75 L 389.06 412.50 L 360.94 410.16" stroke="white" fill="transparent"/>
	<path d = "M 473.44 403.12 L 440.62 375.00 L 435.94 349.22 L 452.34 330.47 L 480.47 323.44 L 501.56 321.09 L 517.97 332.81 L 532.03 353.91 L 532.03 384.38 L 517.97 400.78 L 492.19 407.81 L 442.97 407.81" stroke="white" fill="transparent"/>
	<path d = "M 30.47 379.69 L 7.03 370.31 L 0.00 358.59 L 16.41 178.12 L 11.72 84.38 L 35.16 21.09 L 53.91 9.38 L 89.06 0.00 L 164.06 11.72 L 199.22 150.00 L 227.34 178.12 L 267.19 192.19 L 426.56 194.53 L 503.91 203.91 L 562.50 243.75 L 597.66 344.53 L 590.62 353.91 L 527.34 379.69" stroke="white" fill="transparent"/>
</svg>