<?xml version="1.0" encoding="UTF-8" standalone="no"?>
<!--Created with ndjsontosvg (https:https://github.com/thompson318/ndjsontosvg) 
	from the simplified Google quickdraw data set. key_id = 4843512170283008-->
<svg width="600" height="600"
	xmlns="http://www.w3.org/2000/svg">
	xmlns:ndjsontosvg="https://github.com/thompson318/ndjsontosvg"
	xmlns:quickdraw="https://quickdraw.withgoogle.com/data"
	xmlns:scikit-surgery="https://doi.org/10.1007/s11548-020-02180-5">

	<rect width="100%" height="100%" fill="black" />
	<path d = "M 25.78 72.66 L 37.50 110.16 L 35.16 236.72 L 0.00 356.25 L 16.41 365.62 L 46.88 367.97 L 154.69 393.75 L 351.56 414.84 L 367.97 396.09 L 403.12 314.06 L 407.81 278.91 L 363.28 243.75 L 217.97 236.72 L 206.25 220.31 L 192.19 107.81 L 192.19 4.69 L 173.44 0.00 L 117.19 4.69 L 28.12 35.16 L 14.06 49.22" stroke="white" fill="transparent"/>
	<path d = "M 49.22 353.91 L 28.12 363.28 L 21.09 407.81 L 21.09 522.66 L 44.53 525.00 L 72.66 468.75 L 79.69 400.78 L 60.94 391.41 L 42.19 391.41 L 11.72 405.47" stroke="white" fill="transparent"/>
	<path d = "M 135.94 391.41 L 114.84 414.84 L 114.84 438.28 L 128.91 466.41 L 147.66 494.53 L 175.78 520.31 L 189.84 517.97 L 201.56 496.88 L 206.25 417.19 L 185.16 405.47 L 171.09 405.47 L 121.88 426.56" stroke="white" fill="transparent"/>
	<path d = "M 295.31 384.38 L 276.56 396.09 L 257.81 421.88 L 236.72 480.47 L 229.69 527.34 L 253.12 527.34 L 295.31 471.09 L 316.41 426.56 L 314.06 414.84 L 300.00 414.84" stroke="white" fill="transparent"/>
	<path d = "M 391.41 405.47 L 349.22 478.12 L 330.47 597.66 L 384.38 405.47" stroke="white" fill="transparent"/>
</svg>