<?xml version="1.0" encoding="UTF-8" standalone="no"?>
<!--Created with ndjsontosvg (https:https://github.com/thompson318/ndjsontosvg) 
	from the simplified Google quickdraw data set. key_id = 6423534723137536-->
<svg width="600" height="600"
	xmlns="http://www.w3.org/2000/svg">
	xmlns:ndjsontosvg="https://github.com/thompson318/ndjsontosvg"
	xmlns:quickdraw="https://quickdraw.withgoogle.com/data"
	xmlns:scikit-surgery="https://doi.org/10.1007/s11548-020-02180-5">

	<rect width="100%" height="100%" fill="black" />
	<path d = "M 63.28 304.69 L 96.09 257.81 L 124.22 201.56 L 175.78 30.47 L 189.84 0.00 L 180.47 77.34 L 180.47 171.09 L 194.53 234.38 L 196.88 339.84 L 208.59 417.19 L 203.91 405.47" stroke="white" fill="transparent"/>
	<path d = "M 77.34 307.03 L 199.22 304.69" stroke="white" fill="transparent"/>
	<path d = "M 192.19 2.34 L 232.03 72.66 L 250.78 150.00 L 255.47 253.12 L 264.84 276.56 L 285.94 302.34 L 187.50 307.03" stroke="white" fill="transparent"/>
	<path d = "M 7.03 466.41 L 110.16 461.72 L 236.72 421.88 L 459.38 428.91 L 473.44 421.88 L 471.09 485.16 L 440.62 553.12 L 412.50 578.91 L 351.56 597.66 L 180.47 597.66 L 112.50 578.91 L 37.50 541.41 L 16.41 513.28 L 0.00 445.31" stroke="white" fill="transparent"/>
</svg>