<?xml version="1.0" encoding="UTF-8" standalone="no"?>
<!--Created with ndjsontosvg (https:https://github.com/thompson318/ndjsontosvg) 
	from the simplified Google quickdraw data set. key_id = 5084686126678016-->
<svg width="600" height="600"
	xmlns="http://www.w3.org/2000/svg">
	xmlns:ndjsontosvg="https://github.com/thompson318/ndjsontosvg"
	xmlns:quickdraw="https://quickdraw.withgoogle.com/data"
	xmlns:scikit-surgery="https://doi.org/10.1007/s11548-020-02180-5">

	<rect width="100%" height="100%" fill="black" />
	<path d = "M 0.00 201.56 L 51.56 288.28 L 96.09 337.50 L 187.50 365.62 L 375.00 389.06 L 459.38 393.75 L 473.44 386.72 L 513.28 335.16 L 590.62 271.88 L 597.66 236.72 L 569.53 232.03 L 508.59 248.44 L 367.97 255.47 L 222.66 241.41 L 14.06 239.06" stroke="white" fill="transparent"/>
	<path d = "M 206.25 225.00 L 194.53 75.00" stroke="white" fill="transparent"/>
	<path d = "M 192.19 75.00 L 236.72 77.34 L 250.78 103.12 L 253.12 124.22 L 194.53 175.78 L 180.47 175.78 L 182.81 171.09" stroke="white" fill="transparent"/>
	<path d = "M 417.19 269.53 L 393.75 187.50 L 386.72 121.88 L 485.16 100.78 L 595.31 105.47 L 583.59 121.88 L 548.44 145.31 L 459.38 171.09 L 384.38 222.66 L 375.00 220.31" stroke="white" fill="transparent"/>
	<path d = "M 187.50 70.31 L 213.28 56.25 L 288.28 37.50 L 372.66 28.12 L 283.59 168.75 L 250.78 194.53 L 239.06 185.16" stroke="white" fill="transparent"/>
	<path d = "M 222.66 75.00 L 248.44 168.75 L 375.00 56.25 L 426.56 0.00" stroke="white" fill="transparent"/>
</svg>