<?xml version="1.0" encoding="UTF-8" standalone="no"?>
<!--Created with ndjsontosvg (https:https://github.com/thompson318/ndjsontosvg) 
	from the simplified Google quickdraw data set. key_id = 6577367382228992-->
<svg width="600" height="600"
	xmlns="http://www.w3.org/2000/svg">
	xmlns:ndjsontosvg="https://github.com/thompson318/ndjsontosvg"
	xmlns:quickdraw="https://quickdraw.withgoogle.com/data"
	xmlns:scikit-surgery="https://doi.org/10.1007/s11548-020-02180-5">

	<rect width="100%" height="100%" fill="black" />
	<path d = "M 30.47 171.09 L 25.78 145.31 L 32.81 126.56 L 82.03 93.75 L 121.88 86.72 L 185.16 86.72 L 236.72 32.81 L 269.53 14.06 L 309.38 2.34 L 389.06 0.00 L 421.88 18.75 L 442.97 49.22 L 450.00 154.69 L 539.06 257.81 L 562.50 297.66 L 555.47 316.41 L 534.38 344.53 L 482.81 379.69 L 314.06 438.28 L 276.56 440.62 L 222.66 367.97 L 150.00 217.97 L 131.25 208.59 L 75.00 206.25 L 28.12 161.72" stroke="white" fill="transparent"/>
	<path d = "M 35.16 171.09 L 37.50 189.84 L 82.03 210.94 L 131.25 255.47 L 250.78 433.59 L 300.00 473.44 L 464.06 414.84 L 578.91 360.94 L 597.66 342.19 L 569.53 302.34" stroke="white" fill="transparent"/>
	<path d = "M 35.16 187.50 L 9.38 189.84 L 0.00 222.66 L 9.38 232.03 L 16.41 260.16 L 28.12 276.56 L 67.97 290.62" stroke="white" fill="transparent"/>
</svg>