<?xml version="1.0" encoding="UTF-8" standalone="no"?>
<!--Created with ndjsontosvg (https:https://github.com/thompson318/ndjsontosvg) 
	from the simplified Google quickdraw data set. key_id = 4731595053334528-->
<svg width="600" height="600"
	xmlns="http://www.w3.org/2000/svg">
	xmlns:ndjsontosvg="https://github.com/thompson318/ndjsontosvg"
	xmlns:quickdraw="https://quickdraw.withgoogle.com/data"
	xmlns:scikit-surgery="https://doi.org/10.1007/s11548-020-02180-5">

	<rect width="100%" height="100%" fill="black" />
	<path d = "M 241.41 375.00 L 241.41 375.00" stroke="white" fill="transparent"/>
	<path d = "M 9.38 292.97 L 86.72 157.03 L 210.94 0.00 L 328.12 9.38 L 510.94 7.03 L 590.62 18.75 L 464.06 100.78 L 63.28 304.69 L 7.03 328.12 L 0.00 316.41 L 21.09 283.59 L 11.72 452.34" stroke="white" fill="transparent"/>
	<path d = "M 597.66 18.75 L 590.62 135.94 L 496.88 189.84 L 318.75 276.56 L 142.97 379.69 L 79.69 407.81 L 18.75 454.69" stroke="white" fill="transparent"/>
	<path d = "M 16.41 391.41 L 164.06 309.38 L 356.25 222.66 L 527.34 128.91 L 592.97 82.03" stroke="white" fill="transparent"/>
	<path d = "M 30.47 384.38 L 32.81 393.75 L 58.59 372.66 L 72.66 367.97 L 89.06 372.66 L 128.91 342.19" stroke="white" fill="transparent"/>
</svg>