<?xml version="1.0" encoding="UTF-8" standalone="no"?>
<!--Created with ndjsontosvg (https:https://github.com/thompson318/ndjsontosvg) 
	from the simplified Google quickdraw data set. key_id = 5162045269868544-->
<svg width="600" height="600"
	xmlns="http://www.w3.org/2000/svg">
	xmlns:ndjsontosvg="https://github.com/thompson318/ndjsontosvg"
	xmlns:quickdraw="https://quickdraw.withgoogle.com/data"
	xmlns:scikit-surgery="https://doi.org/10.1007/s11548-020-02180-5">

	<rect width="100%" height="100%" fill="black" />
	<path d = "M 86.72 131.25 L 86.72 166.41" stroke="white" fill="transparent"/>
	<path d = "M 86.72 119.53 L 264.84 126.56 L 403.12 121.88 L 403.12 128.91 L 400.78 154.69 L 375.00 161.72 L 82.03 157.03" stroke="white" fill="transparent"/>
	<path d = "M 89.06 185.16 L 267.19 187.50 L 396.09 206.25" stroke="white" fill="transparent"/>
	<path d = "M 96.09 241.41 L 396.09 241.41" stroke="white" fill="transparent"/>
	<path d = "M 14.06 285.94 L 35.16 288.28 L 53.91 351.56" stroke="white" fill="transparent"/>
	<path d = "M 37.50 300.00 L 199.22 285.94 L 328.12 285.94 L 358.59 257.81 L 335.16 353.91 L 318.75 370.31 L 285.94 375.00 L 98.44 358.59 L 0.00 360.94" stroke="white" fill="transparent"/>
	<path d = "M 583.59 4.69 L 562.50 0.00 L 517.97 63.28 L 508.59 103.12 L 508.59 154.69 L 548.44 208.59 L 597.66 225.00" stroke="white" fill="transparent"/>
</svg>