<?xml version="1.0" encoding="UTF-8" standalone="no"?>
<!--Created with ndjsontosvg (https:https://github.com/thompson318/ndjsontosvg) 
	from the simplified Google quickdraw data set. key_id = 6375322406617088-->
<svg width="600" height="600"
	xmlns="http://www.w3.org/2000/svg">
	xmlns:ndjsontosvg="https://github.com/thompson318/ndjsontosvg"
	xmlns:quickdraw="https://quickdraw.withgoogle.com/data"
	xmlns:scikit-surgery="https://doi.org/10.1007/s11548-020-02180-5">

	<rect width="100%" height="100%" fill="black" />
	<path d = "M 35.16 37.50 L 152.34 21.09 L 412.50 0.00 L 464.06 25.78 L 578.91 107.81 L 576.56 131.25 L 543.75 147.66 L 391.41 147.66 L 260.16 171.09 L 164.06 173.44 L 114.84 150.00 L 72.66 121.88 L 39.84 77.34 L 25.78 49.22" stroke="white" fill="transparent"/>
	<path d = "M 37.50 53.91 L 16.41 98.44 L 7.03 142.97 L 79.69 189.84 L 171.09 215.62 L 330.47 215.62 L 578.91 173.44 L 595.31 157.03 L 595.31 133.59 L 585.94 131.25" stroke="white" fill="transparent"/>
	<path d = "M 7.03 124.22 L 0.00 180.47 L 28.12 206.25 L 119.53 239.06 L 220.31 257.81 L 421.88 262.50 L 499.22 250.78 L 590.62 222.66 L 597.66 189.84" stroke="white" fill="transparent"/>
</svg>