<?xml version="1.0" encoding="UTF-8" standalone="no"?>
<!--Created with ndjsontosvg (https:https://github.com/thompson318/ndjsontosvg) 
	from the simplified Google quickdraw data set. key_id = 6356305683939328-->
<svg width="600" height="600"
	xmlns="http://www.w3.org/2000/svg">
	xmlns:ndjsontosvg="https://github.com/thompson318/ndjsontosvg"
	xmlns:quickdraw="https://quickdraw.withgoogle.com/data"
	xmlns:scikit-surgery="https://doi.org/10.1007/s11548-020-02180-5">

	<rect width="100%" height="100%" fill="black" />
	<path d = "M 121.88 131.25 L 105.47 124.22 L 98.44 107.81 L 100.78 56.25 L 119.53 35.16 L 168.75 0.00 L 206.25 4.69 L 285.94 53.91 L 330.47 58.59 L 356.25 58.59 L 377.34 16.41 L 393.75 4.69 L 440.62 2.34 L 478.12 16.41 L 499.22 44.53 L 515.62 107.81 L 520.31 168.75 L 515.62 292.97 L 496.88 325.78 L 452.34 363.28 L 433.59 370.31 L 222.66 389.06 L 161.72 384.38 L 112.50 283.59 L 91.41 114.84 L 67.97 84.38" stroke="white" fill="transparent"/>
	<path d = "M 91.41 42.19 L 35.16 37.50 L 21.09 44.53 L 2.34 70.31 L 11.72 82.03 L 39.84 84.38 L 0.00 133.59 L 23.44 142.97 L 67.97 140.62 L 39.84 166.41 L 32.81 187.50 L 49.22 199.22 L 89.06 196.88 L 51.56 215.62 L 37.50 234.38 L 39.84 248.44 L 49.22 255.47 L 103.12 253.12 L 63.28 271.88 L 53.91 288.28 L 58.59 302.34 L 82.03 311.72 L 119.53 304.69 L 103.12 307.03 L 79.69 335.16 L 84.38 344.53 L 98.44 353.91 L 128.91 342.19 L 121.88 337.50 L 107.81 349.22 L 105.47 377.34 L 128.91 389.06 L 157.03 389.06 L 164.06 363.28 L 164.06 377.34 L 171.09 391.41 L 208.59 396.09 L 215.62 393.75 L 222.66 375.00 L 222.66 393.75 L 248.44 403.12 L 262.50 400.78 L 278.91 370.31 L 323.44 389.06 L 342.19 389.06 L 346.88 377.34 L 332.81 393.75 L 346.88 403.12 L 389.06 400.78 L 400.78 386.72 L 400.78 375.00 L 412.50 384.38 L 442.97 389.06 L 464.06 375.00 L 466.41 353.91 L 457.03 346.88 L 452.34 356.25 L 459.38 365.62 L 506.25 365.62 L 525.00 356.25 L 527.34 344.53 L 527.34 335.16 L 515.62 332.81 L 550.78 337.50 L 562.50 328.12 L 548.44 288.28 L 525.00 288.28 L 550.78 295.31 L 571.88 292.97 L 576.56 283.59 L 562.50 260.16 L 588.28 257.81 L 597.66 243.75 L 588.28 222.66 L 564.84 206.25 L 576.56 213.28 L 588.28 208.59 L 592.97 196.88 L 583.59 185.16 L 550.78 173.44 L 562.50 157.03 L 562.50 138.28 L 527.34 128.91 L 539.06 126.56 L 541.41 110.16 L 534.38 93.75 L 515.62 91.41 L 525.00 67.97 L 517.97 58.59 L 496.88 53.91" stroke="white" fill="transparent"/>
</svg>