<?xml version="1.0" encoding="UTF-8" standalone="no"?>
<!--Created with ndjsontosvg (https:https://github.com/thompson318/ndjsontosvg) 
	from the simplified Google quickdraw data set. key_id = 4760845827440640-->
<svg width="600" height="600"
	xmlns="http://www.w3.org/2000/svg">
	xmlns:ndjsontosvg="https://github.com/thompson318/ndjsontosvg"
	xmlns:quickdraw="https://quickdraw.withgoogle.com/data"
	xmlns:scikit-surgery="https://doi.org/10.1007/s11548-020-02180-5">

	<rect width="100%" height="100%" fill="black" />
	<path d = "M 32.81 18.75 L 23.44 142.97 L 23.44 269.53 L 82.03 288.28 L 142.97 295.31 L 323.44 302.34 L 508.59 302.34 L 550.78 281.25 L 567.19 253.12 L 569.53 51.56 L 560.16 25.78 L 522.66 9.38 L 482.81 7.03 L 138.28 0.00 L 93.75 4.69" stroke="white" fill="transparent"/>
	<path d = "M 11.72 295.31 L 9.38 391.41 L 32.81 457.03 L 56.25 482.81 L 513.28 492.19 L 574.22 475.78 L 597.66 461.72 L 590.62 412.50 L 588.28 271.88 L 569.53 264.84" stroke="white" fill="transparent"/>
	<path d = "M 18.75 339.84 L 44.53 351.56 L 585.94 351.56" stroke="white" fill="transparent"/>
	<path d = "M 0.00 257.81 L 105.47 227.34 L 182.81 227.34 L 290.62 239.06 L 445.31 239.06 L 480.47 229.69 L 541.41 229.69" stroke="white" fill="transparent"/>
</svg>