<?xml version="1.0" encoding="UTF-8" standalone="no"?>
<!--Created with ndjsontosvg (https:https://github.com/thompson318/ndjsontosvg) 
	from the simplified Google quickdraw data set. key_id = 5603610484277248-->
<svg width="600" height="600"
	xmlns="http://www.w3.org/2000/svg">
	xmlns:ndjsontosvg="https://github.com/thompson318/ndjsontosvg"
	xmlns:quickdraw="https://quickdraw.withgoogle.com/data"
	xmlns:scikit-surgery="https://doi.org/10.1007/s11548-020-02180-5">

	<rect width="100%" height="100%" fill="black" />
	<path d = "M 28.12 196.88 L 283.59 185.16 L 438.28 161.72 L 452.34 154.69 L 457.03 133.59 L 438.28 112.50 L 508.59 93.75 L 571.88 49.22 L 571.88 30.47 L 562.50 16.41 L 515.62 0.00 L 154.69 7.03 L 112.50 39.84 L 35.16 194.53" stroke="white" fill="transparent"/>
	<path d = "M 35.16 194.53 L 37.50 222.66 L 63.28 239.06 L 112.50 232.03 L 140.62 243.75 L 168.75 243.75 L 227.34 229.69 L 278.91 241.41 L 307.03 227.34 L 445.31 232.03 L 468.75 213.28 L 510.94 152.34 L 567.19 187.50 L 583.59 180.47 L 597.66 121.88 L 571.88 63.28" stroke="white" fill="transparent"/>
	<path d = "M 58.59 225.00 L 16.41 227.34 L 0.00 250.78 L 7.03 257.81 L 46.88 271.88 L 482.81 271.88 L 527.34 342.19 L 546.09 344.53 L 564.84 332.81 L 588.28 297.66 L 590.62 246.09 L 546.09 227.34 L 515.62 173.44" stroke="white" fill="transparent"/>
</svg>