<?xml version="1.0" encoding="UTF-8" standalone="no"?>
<!--Created with ndjsontosvg (https:https://github.com/thompson318/ndjsontosvg) 
	from the simplified Google quickdraw data set. key_id = 6517011817431040-->
<svg width="600" height="600"
	xmlns="http://www.w3.org/2000/svg">
	xmlns:ndjsontosvg="https://github.com/thompson318/ndjsontosvg"
	xmlns:quickdraw="https://quickdraw.withgoogle.com/data"
	xmlns:scikit-surgery="https://doi.org/10.1007/s11548-020-02180-5">

	<rect width="100%" height="100%" fill="black" />
	<path d = "M 25.78 37.50 L 75.00 35.16 L 182.81 7.03 L 285.94 0.00 L 499.22 0.00 L 592.97 44.53 L 597.66 56.25 L 588.28 67.97 L 529.69 96.09 L 335.16 126.56 L 46.88 58.59" stroke="white" fill="transparent"/>
	<path d = "M 93.75 133.59 L 278.91 133.59 L 379.69 157.03 L 525.00 159.38 L 541.41 161.72 L 541.41 201.56 L 171.09 201.56 L 124.22 222.66 L 142.97 232.03 L 367.97 239.06 L 471.09 236.72 L 452.34 225.00 L 243.75 222.66 L 107.81 213.28 L 35.16 201.56" stroke="white" fill="transparent"/>
	<path d = "M 0.00 255.47 L 236.72 255.47 L 269.53 264.84 L 433.59 274.22" stroke="white" fill="transparent"/>
</svg>