<?xml version="1.0" encoding="UTF-8" standalone="no"?>
<!--Created with ndjsontosvg (https:https://github.com/thompson318/ndjsontosvg) 
	from the simplified Google quickdraw data set. key_id = 6104858971078656-->
<svg width="600" height="600"
	xmlns="http://www.w3.org/2000/svg">
	xmlns:ndjsontosvg="https://github.com/thompson318/ndjsontosvg"
	xmlns:quickdraw="https://quickdraw.withgoogle.com/data"
	xmlns:scikit-surgery="https://doi.org/10.1007/s11548-020-02180-5">

	<rect width="100%" height="100%" fill="black" />
	<path d = "M 23.44 567.19 L 60.94 527.34 L 314.06 365.62 L 525.00 203.91" stroke="white" fill="transparent"/>
	<path d = "M 7.03 550.78 L 0.00 527.34 L 0.00 356.25 L 9.38 229.69 L 37.50 58.59 L 63.28 2.34 L 98.44 0.00 L 208.59 32.81 L 332.81 53.91 L 454.69 86.72 L 597.66 96.09 L 583.59 121.88" stroke="white" fill="transparent"/>
	<path d = "M 25.78 457.03 L 42.19 435.94 L 199.22 339.84 L 485.16 133.59 L 508.59 124.22" stroke="white" fill="transparent"/>
	<path d = "M 65.62 489.84 L 98.44 450.00 L 253.12 358.59 L 419.53 232.03 L 468.75 203.91" stroke="white" fill="transparent"/>
	<path d = "M 508.59 213.28 L 525.00 180.47 L 562.50 150.00" stroke="white" fill="transparent"/>
</svg>