<?xml version="1.0" encoding="UTF-8" standalone="no"?>
<!--Created with ndjsontosvg (https:https://github.com/thompson318/ndjsontosvg) 
	from the simplified Google quickdraw data set. key_id = 4584315742584832-->
<svg width="600" height="600"
	xmlns="http://www.w3.org/2000/svg">
	xmlns:ndjsontosvg="https://github.com/thompson318/ndjsontosvg"
	xmlns:quickdraw="https://quickdraw.withgoogle.com/data"
	xmlns:scikit-surgery="https://doi.org/10.1007/s11548-020-02180-5">

	<rect width="100%" height="100%" fill="black" />
	<path d = "M 2.34 7.03 L 16.41 187.50 L 11.72 217.97" stroke="white" fill="transparent"/>
	<path d = "M 0.00 25.78 L 49.22 18.75 L 89.06 25.78 L 119.53 213.28 L 114.84 229.69 L 103.12 239.06 L 9.38 239.06" stroke="white" fill="transparent"/>
	<path d = "M 96.09 28.12 L 253.12 32.81 L 363.28 9.38 L 482.81 0.00 L 527.34 4.69 L 539.06 14.06 L 567.19 63.28 L 588.28 119.53 L 597.66 178.12 L 590.62 250.78 L 550.78 253.12 L 510.94 217.97 L 510.94 269.53 L 492.19 297.66 L 482.81 290.62 L 445.31 220.31 L 442.97 276.56 L 435.94 300.00 L 428.91 297.66 L 407.81 267.19 L 389.06 213.28 L 363.28 297.66 L 346.88 304.69 L 328.12 297.66 L 302.34 232.03 L 292.97 300.00 L 288.28 309.38 L 276.56 307.03 L 253.12 260.16 L 241.41 210.94 L 208.59 318.75 L 201.56 328.12 L 187.50 325.78 L 175.78 262.50 L 180.47 234.38 L 161.72 292.97 L 150.00 304.69 L 131.25 295.31 L 100.78 234.38" stroke="white" fill="transparent"/>
</svg>