<?xml version="1.0" encoding="UTF-8" standalone="no"?>
<!--Created with ndjsontosvg (https:https://github.com/thompson318/ndjsontosvg) 
	from the simplified Google quickdraw data set. key_id = 6028865816231936-->
<svg width="600" height="600"
	xmlns="http://www.w3.org/2000/svg">
	xmlns:ndjsontosvg="https://github.com/thompson318/ndjsontosvg"
	xmlns:quickdraw="https://quickdraw.withgoogle.com/data"
	xmlns:scikit-surgery="https://doi.org/10.1007/s11548-020-02180-5">

	<rect width="100%" height="100%" fill="black" />
	<path d = "M 201.56 39.84 L 189.84 131.25 L 171.09 140.62 L 58.59 140.62 L 9.38 152.34 L 0.00 128.91 L 2.34 56.25 L 32.81 39.84 L 51.56 37.50 L 196.88 46.88" stroke="white" fill="transparent"/>
	<path d = "M 199.22 46.88 L 384.38 14.06 L 445.31 14.06 L 482.81 0.00 L 585.94 2.34 L 595.31 7.03 L 597.66 18.75 L 585.94 42.19 L 510.94 133.59 L 506.25 98.44 L 475.78 154.69 L 457.03 119.53 L 435.94 168.75 L 405.47 140.62 L 393.75 171.09 L 375.00 154.69 L 365.62 161.72 L 356.25 199.22 L 339.84 159.38 L 328.12 189.84 L 314.06 189.84 L 271.88 173.44 L 225.00 171.09 L 213.28 147.66 L 189.84 140.62" stroke="white" fill="transparent"/>
</svg>