<?xml version="1.0" encoding="UTF-8" standalone="no"?>
<!--Created with ndjsontosvg (https:https://github.com/thompson318/ndjsontosvg) 
	from the simplified Google quickdraw data set. key_id = 6470765404749824-->
<svg width="600" height="600"
	xmlns="http://www.w3.org/2000/svg">
	xmlns:ndjsontosvg="https://github.com/thompson318/ndjsontosvg"
	xmlns:quickdraw="https://quickdraw.withgoogle.com/data"
	xmlns:scikit-surgery="https://doi.org/10.1007/s11548-020-02180-5">

	<rect width="100%" height="100%" fill="black" />
	<path d = "M 14.06 63.28 L 14.06 117.19 L 0.00 171.09 L 9.38 178.12 L 72.66 180.47 L 203.91 159.38 L 217.97 243.75 L 225.00 243.75 L 234.38 222.66 L 309.38 147.66 L 318.75 234.38 L 330.47 264.84 L 431.25 159.38 L 452.34 255.47 L 464.06 276.56 L 478.12 281.25 L 525.00 255.47 L 553.12 210.94 L 553.12 248.44 L 560.16 262.50 L 581.25 260.16 L 592.97 246.09 L 592.97 154.69 L 583.59 173.44 L 560.16 103.12 L 539.06 75.00 L 510.94 150.00 L 442.97 21.09 L 421.88 0.00 L 412.50 0.00 L 384.38 96.09 L 375.00 93.75 L 351.56 58.59 L 311.72 28.12 L 304.69 28.12 L 276.56 89.06 L 239.06 49.22 L 225.00 49.22 L 222.66 135.94 L 213.28 182.81 L 206.25 164.06" stroke="white" fill="transparent"/>
	<path d = "M 49.22 32.81 L 70.31 49.22 L 192.19 56.25" stroke="white" fill="transparent"/>
	<path d = "M 508.59 323.44 L 517.97 363.28 L 536.72 365.62 L 562.50 351.56 L 576.56 323.44 L 569.53 297.66 L 513.28 274.22" stroke="white" fill="transparent"/>
	<path d = "M 517.97 431.25 L 517.97 468.75 L 527.34 473.44" stroke="white" fill="transparent"/>
</svg>