<?xml version="1.0" encoding="UTF-8" standalone="no"?>
<!--Created with ndjsontosvg (https:https://github.com/thompson318/ndjsontosvg) 
	from the simplified Google quickdraw data set. key_id = 5511775359336448-->
<svg width="600" height="600"
	xmlns="http://www.w3.org/2000/svg">
	xmlns:ndjsontosvg="https://github.com/thompson318/ndjsontosvg"
	xmlns:quickdraw="https://quickdraw.withgoogle.com/data"
	xmlns:scikit-surgery="https://doi.org/10.1007/s11548-020-02180-5">

	<rect width="100%" height="100%" fill="black" />
	<path d = "M 9.38 70.31 L 185.16 37.50 L 414.84 18.75 L 560.16 0.00 L 574.22 23.44 L 597.66 185.16 L 588.28 192.19 L 571.88 185.16 L 539.06 138.28 L 525.00 185.16 L 503.91 196.88 L 464.06 152.34 L 450.00 145.31 L 433.59 159.38 L 417.19 208.59 L 365.62 154.69 L 346.88 145.31 L 325.78 157.03 L 307.03 203.91 L 255.47 150.00 L 239.06 166.41 L 215.62 229.69 L 208.59 232.03 L 166.41 194.53 L 154.69 206.25 L 140.62 253.12 L 135.94 253.12 L 86.72 225.00 L 58.59 79.69 L 49.22 67.97 L 2.34 77.34 L 2.34 161.72" stroke="white" fill="transparent"/>
</svg>