<?xml version="1.0" encoding="UTF-8" standalone="no"?>
<!--Created with ndjsontosvg (https:https://github.com/thompson318/ndjsontosvg) 
	from the simplified Google quickdraw data set. key_id = 6139015071793152-->
<svg width="600" height="600"
	xmlns="http://www.w3.org/2000/svg">
	xmlns:ndjsontosvg="https://github.com/thompson318/ndjsontosvg"
	xmlns:quickdraw="https://quickdraw.withgoogle.com/data"
	xmlns:scikit-surgery="https://doi.org/10.1007/s11548-020-02180-5">

	<rect width="100%" height="100%" fill="black" />
	<path d = "M 2.34 46.88 L 213.28 35.16 L 356.25 14.06 L 571.88 0.00" stroke="white" fill="transparent"/>
	<path d = "M 569.53 11.72 L 576.56 9.38 L 581.25 18.75 L 588.28 67.97 L 597.66 246.09 L 560.16 208.59 L 503.91 173.44 L 489.84 267.19 L 471.09 206.25 L 450.00 189.84 L 426.56 182.81 L 389.06 192.19 L 318.75 260.16 L 318.75 154.69 L 300.00 142.97 L 255.47 187.50 L 194.53 276.56 L 180.47 199.22 L 166.41 187.50 L 140.62 187.50 L 89.06 234.38 L 37.50 302.34 L 32.81 213.28 L 23.44 187.50 L 2.34 164.06 L 0.00 65.62 L 4.69 49.22" stroke="white" fill="transparent"/>
</svg>