<?xml version="1.0" encoding="UTF-8" standalone="no"?>
<!--Created with ndjsontosvg (https:https://github.com/thompson318/ndjsontosvg) 
	from the simplified Google quickdraw data set. key_id = 5505928180793344-->
<svg width="600" height="600"
	xmlns="http://www.w3.org/2000/svg">
	xmlns:ndjsontosvg="https://github.com/thompson318/ndjsontosvg"
	xmlns:quickdraw="https://quickdraw.withgoogle.com/data"
	xmlns:scikit-surgery="https://doi.org/10.1007/s11548-020-02180-5">

	<rect width="100%" height="100%" fill="black" />
	<path d = "M 7.03 25.78 L 2.34 107.81 L 28.12 110.16 L 39.84 105.47 L 51.56 25.78 L 56.25 21.09 L 105.47 21.09 L 131.25 63.28 L 152.34 35.16 L 185.16 89.06 L 208.59 77.34 L 236.72 46.88 L 257.81 98.44 L 323.44 21.09 L 389.06 117.19 L 414.84 79.69 L 428.91 131.25 L 459.38 86.72 L 464.06 119.53 L 522.66 23.44" stroke="white" fill="transparent"/>
	<path d = "M 522.66 25.78 L 534.38 86.72 L 522.66 159.38 L 550.78 138.28 L 585.94 147.66 L 597.66 112.50 L 592.97 75.00 L 581.25 25.78 L 532.03 30.47 L 506.25 25.78" stroke="white" fill="transparent"/>
	<path d = "M 0.00 7.03 L 91.41 23.44 L 168.75 28.12 L 236.72 28.12 L 353.91 4.69 L 414.84 0.00 L 489.84 0.00 L 595.31 11.72" stroke="white" fill="transparent"/>
</svg>