<?xml version="1.0" encoding="UTF-8" standalone="no"?>
<!--Created with ndjsontosvg (https:https://github.com/thompson318/ndjsontosvg) 
	from the simplified Google quickdraw data set. key_id = 6133108296384512-->
<svg width="600" height="600"
	xmlns="http://www.w3.org/2000/svg">
	xmlns:ndjsontosvg="https://github.com/thompson318/ndjsontosvg"
	xmlns:quickdraw="https://quickdraw.withgoogle.com/data"
	xmlns:scikit-surgery="https://doi.org/10.1007/s11548-020-02180-5">

	<rect width="100%" height="100%" fill="black" />
	<path d = "M 253.12 18.75 L 140.62 0.00 L 4.69 14.06 L 4.69 194.53 L 11.72 192.19 L 49.22 117.19 L 53.91 173.44 L 91.41 121.88 L 96.09 124.22 L 103.12 159.38 L 112.50 171.09 L 161.72 121.88 L 168.75 128.91 L 175.78 157.03 L 182.81 159.38 L 215.62 114.84 L 232.03 159.38 L 253.12 128.91 L 262.50 124.22 L 274.22 159.38 L 283.59 168.75 L 314.06 124.22 L 335.16 157.03 L 344.53 159.38 L 358.59 131.25 L 382.03 164.06 L 396.09 166.41 L 386.72 18.75 L 349.22 7.03 L 229.69 2.34" stroke="white" fill="transparent"/>
	<path d = "M 386.72 49.22 L 527.34 42.19 L 588.28 53.91 L 597.66 60.94 L 583.59 128.91" stroke="white" fill="transparent"/>
</svg>