<?xml version="1.0" encoding="UTF-8" standalone="no"?>
<!--Created with ndjsontosvg (https:https://github.com/thompson318/ndjsontosvg) 
	from the simplified Google quickdraw data set. key_id = 5857571061628928-->
<svg width="600" height="600"
	xmlns="http://www.w3.org/2000/svg">
	xmlns:ndjsontosvg="https://github.com/thompson318/ndjsontosvg"
	xmlns:quickdraw="https://quickdraw.withgoogle.com/data"
	xmlns:scikit-surgery="https://doi.org/10.1007/s11548-020-02180-5">

	<rect width="100%" height="100%" fill="black" />
	<path d = "M 91.41 67.97 L 77.34 63.28 L 44.53 67.97 L 18.75 98.44 L 11.72 150.00 L 44.53 175.78 L 75.00 173.44 L 117.19 154.69 L 147.66 133.59 L 147.66 89.06 L 133.59 63.28 L 114.84 44.53 L 70.31 25.78 L 32.81 23.44 L 25.78 46.88" stroke="white" fill="transparent"/>
	<path d = "M 0.00 145.31 L 21.09 215.62 L 30.47 318.75 L 51.56 419.53 L 70.31 475.78 L 96.09 513.28 L 166.41 581.25 L 201.56 597.66 L 236.72 597.66 L 264.84 578.91 L 300.00 529.69 L 358.59 414.84 L 379.69 349.22 L 400.78 215.62 L 431.25 138.28 L 466.41 86.72 L 499.22 77.34" stroke="white" fill="transparent"/>
	<path d = "M 117.19 147.66 L 147.66 206.25 L 175.78 246.09 L 203.91 257.81 L 222.66 255.47 L 232.03 203.91 L 271.88 114.84 L 321.09 53.91 L 398.44 18.75 L 428.91 18.75 L 503.91 0.00 L 585.94 7.03" stroke="white" fill="transparent"/>
	<path d = "M 508.59 60.94 L 597.66 28.12" stroke="white" fill="transparent"/>
</svg>