<?xml version="1.0" encoding="UTF-8" standalone="no"?>
<!--Created with ndjsontosvg (https:https://github.com/thompson318/ndjsontosvg) 
	from the simplified Google quickdraw data set. key_id = 6524632414814208-->
<svg width="600" height="600"
	xmlns="http://www.w3.org/2000/svg">
	xmlns:ndjsontosvg="https://github.com/thompson318/ndjsontosvg"
	xmlns:quickdraw="https://quickdraw.withgoogle.com/data"
	xmlns:scikit-surgery="https://doi.org/10.1007/s11548-020-02180-5">

	<rect width="100%" height="100%" fill="black" />
	<path d = "M 51.56 30.47 L 58.59 21.09 L 84.38 14.06 L 128.91 11.72 L 138.28 23.44 L 147.66 100.78 L 147.66 295.31 L 164.06 330.47 L 182.81 353.91 L 271.88 372.66 L 330.47 370.31 L 377.34 346.88 L 450.00 285.94 L 508.59 269.53 L 532.03 274.22 L 539.06 295.31 L 543.75 356.25 L 536.72 377.34 L 510.94 412.50 L 466.41 442.97 L 403.12 468.75 L 351.56 480.47 L 210.94 475.78 L 159.38 457.03 L 56.25 386.72 L 16.41 349.22 L 7.03 323.44 L 0.00 192.19 L 35.16 16.41 L 39.84 7.03 L 63.28 0.00" stroke="white" fill="transparent"/>
	<path d = "M 138.28 133.59 L 192.19 142.97 L 142.97 175.78 L 159.38 187.50" stroke="white" fill="transparent"/>
	<path d = "M 159.38 187.50 L 147.66 187.50" stroke="white" fill="transparent"/>
	<path d = "M 142.97 187.50 L 180.47 196.88 L 164.06 215.62 L 196.88 225.00 L 201.56 234.38 L 159.38 290.62 L 232.03 297.66 L 210.94 353.91 L 210.94 370.31 L 217.97 375.00 L 243.75 367.97 L 304.69 332.81 L 307.03 360.94 L 316.41 363.28 L 360.94 300.00 L 367.97 314.06 L 379.69 314.06 L 452.34 260.16 L 466.41 264.84 L 489.84 248.44 L 506.25 246.09 L 510.94 262.50 L 520.31 264.84 L 595.31 267.19 L 595.31 304.69 L 569.53 349.22 L 585.94 353.91 L 585.94 379.69 L 534.38 382.03 L 506.25 452.34 L 475.78 457.03 L 365.62 522.66" stroke="white" fill="transparent"/>
</svg>