<?xml version="1.0" encoding="UTF-8" standalone="no"?>
<!--Created with ndjsontosvg (https:https://github.com/thompson318/ndjsontosvg) 
	from the simplified Google quickdraw data set. key_id = 5138678496100352-->
<svg width="600" height="600"
	xmlns="http://www.w3.org/2000/svg">
	xmlns:ndjsontosvg="https://github.com/thompson318/ndjsontosvg"
	xmlns:quickdraw="https://quickdraw.withgoogle.com/data"
	xmlns:scikit-surgery="https://doi.org/10.1007/s11548-020-02180-5">

	<rect width="100%" height="100%" fill="black" />
	<path d = "M 372.66 328.12 L 285.94 321.09 L 269.53 330.47 L 260.16 377.34 L 262.50 396.09 L 292.97 421.88 L 342.19 447.66 L 358.59 447.66 L 375.00 431.25 L 389.06 377.34 L 375.00 360.94 L 309.38 321.09" stroke="white" fill="transparent"/>
	<path d = "M 365.62 405.47 L 360.94 454.69 L 342.19 503.91 L 309.38 557.81 L 276.56 583.59 L 239.06 597.66 L 203.91 597.66 L 145.31 562.50 L 112.50 534.38 L 79.69 480.47 L 46.88 384.38 L 42.19 297.66 L 63.28 215.62 L 70.31 79.69 L 46.88 46.88 L 14.06 49.22 L 0.00 32.81 L 7.03 2.34 L 89.06 25.78 L 121.88 53.91 L 161.72 119.53 L 166.41 260.16 L 142.97 391.41 L 140.62 506.25 L 157.03 557.81 L 173.44 560.16 L 213.28 543.75" stroke="white" fill="transparent"/>
</svg>