<?xml version="1.0" encoding="UTF-8" standalone="no"?>
<!--Created with ndjsontosvg (https:https://github.com/thompson318/ndjsontosvg) 
	from the simplified Google quickdraw data set. key_id = 5472500685209600-->
<svg width="600" height="600"
	xmlns="http://www.w3.org/2000/svg">
	xmlns:ndjsontosvg="https://github.com/thompson318/ndjsontosvg"
	xmlns:quickdraw="https://quickdraw.withgoogle.com/data"
	xmlns:scikit-surgery="https://doi.org/10.1007/s11548-020-02180-5">

	<rect width="100%" height="100%" fill="black" />
	<path d = "M 464.06 67.97 L 445.31 32.81 L 379.69 9.38 L 321.09 0.00 L 260.16 16.41 L 236.72 44.53 L 201.56 150.00 L 194.53 300.00 L 175.78 353.91 L 147.66 386.72 L 121.88 398.44 L 39.84 400.78 L 18.75 389.06 L 0.00 492.19 L 7.03 585.94 L 44.53 595.31 L 82.03 595.31 L 124.22 583.59 L 171.09 557.81 L 199.22 532.03 L 243.75 464.06 L 246.09 257.81 L 269.53 126.56 L 288.28 75.00 L 321.09 44.53 L 363.28 32.81 L 389.06 37.50 L 428.91 70.31 L 452.34 77.34" stroke="white" fill="transparent"/>
</svg>