<?xml version="1.0" encoding="UTF-8" standalone="no"?>
<!--Created with ndjsontosvg (https:https://github.com/thompson318/ndjsontosvg) 
	from the simplified Google quickdraw data set. key_id = 5684252358213632-->
<svg width="600" height="600"
	xmlns="http://www.w3.org/2000/svg">
	xmlns:ndjsontosvg="https://github.com/thompson318/ndjsontosvg"
	xmlns:quickdraw="https://quickdraw.withgoogle.com/data"
	xmlns:scikit-surgery="https://doi.org/10.1007/s11548-020-02180-5">

	<rect width="100%" height="100%" fill="black" />
	<path d = "M 253.12 131.25 L 250.78 75.00 L 260.16 93.75 L 328.12 328.12 L 335.16 405.47 L 335.16 522.66 L 328.12 553.12 L 307.03 583.59 L 285.94 592.97 L 225.00 595.31 L 128.91 532.03 L 105.47 482.81 L 96.09 386.72 L 84.38 321.09 L 140.62 325.78 L 185.16 316.41 L 192.19 304.69 L 192.19 285.94 L 180.47 274.22 L 124.22 269.53 L 77.34 323.44 L 112.50 323.44 L 147.66 304.69 L 161.72 304.69 L 189.84 407.81 L 201.56 433.59 L 210.94 440.62 L 217.97 433.59 L 232.03 222.66 L 194.53 135.94 L 178.12 53.91 L 232.03 42.19 L 222.66 37.50 L 213.28 42.19 L 110.16 131.25 L 96.09 138.28 L 96.09 117.19 L 114.84 75.00 L 147.66 37.50 L 189.84 11.72 L 229.69 0.00" stroke="white" fill="transparent"/>
	<path d = "M 199.22 21.09 L 241.41 105.47" stroke="white" fill="transparent"/>
	<path d = "M 217.97 128.91 L 229.69 138.28 L 232.03 164.06 L 222.66 159.38 L 213.28 110.16" stroke="white" fill="transparent"/>
	<path d = "M 278.91 208.59 L 283.59 234.38 L 269.53 248.44 L 257.81 227.34 L 250.78 185.16" stroke="white" fill="transparent"/>
	<path d = "M 269.53 302.34 L 269.53 360.94 L 260.16 349.22 L 255.47 309.38" stroke="white" fill="transparent"/>
	<path d = "M 267.19 457.03 L 250.78 379.69" stroke="white" fill="transparent"/>
	<path d = "M 21.09 178.12 L 39.84 185.16 L 2.34 185.16" stroke="white" fill="transparent"/>
	<path d = "M 0.00 175.78 L 53.91 173.44 L 110.16 182.81 L 114.84 229.69 L 91.41 243.75 L 86.72 234.38 L 86.72 194.53 L 93.75 185.16" stroke="white" fill="transparent"/>
</svg>