<?xml version="1.0" encoding="UTF-8" standalone="no"?>
<!--Created with ndjsontosvg (https:https://github.com/thompson318/ndjsontosvg) 
	from the simplified Google quickdraw data set. key_id = 5308087458070528-->
<svg width="600" height="600"
	xmlns="http://www.w3.org/2000/svg">
	xmlns:ndjsontosvg="https://github.com/thompson318/ndjsontosvg"
	xmlns:quickdraw="https://quickdraw.withgoogle.com/data"
	xmlns:scikit-surgery="https://doi.org/10.1007/s11548-020-02180-5">

	<rect width="100%" height="100%" fill="black" />
	<path d = "M 37.50 30.47 L 217.97 32.81 L 281.25 39.84 L 358.59 28.12 L 452.34 23.44 L 541.41 37.50 L 571.88 58.59 L 597.66 100.78 L 592.97 142.97 L 574.22 187.50 L 541.41 210.94 L 489.84 227.34 L 60.94 208.59 L 23.44 173.44 L 7.03 142.97 L 0.00 100.78 L 14.06 46.88 L 72.66 0.00" stroke="white" fill="transparent"/>
	<path d = "M 60.94 248.44 L 51.56 217.97 L 58.59 175.78 L 70.31 154.69 L 91.41 140.62 L 126.56 145.31 L 145.31 185.16 L 147.66 208.59 L 131.25 236.72 L 117.19 243.75 L 96.09 243.75 L 65.62 227.34" stroke="white" fill="transparent"/>
	<path d = "M 410.16 269.53 L 410.16 206.25 L 433.59 173.44 L 499.22 168.75 L 508.59 173.44 L 522.66 206.25 L 513.28 248.44 L 496.88 267.19 L 464.06 276.56 L 412.50 276.56" stroke="white" fill="transparent"/>
	<path d = "M 452.34 23.44 L 450.00 105.47 L 492.19 124.22 L 539.06 133.59 L 581.25 121.88" stroke="white" fill="transparent"/>
	<path d = "M 578.91 124.22 L 585.94 124.22" stroke="white" fill="transparent"/>
	<path d = "M 96.09 35.16 L 96.09 103.12 L 131.25 114.84 L 150.00 107.81 L 168.75 89.06 L 166.41 25.78" stroke="white" fill="transparent"/>
	<path d = "M 225.00 56.25 L 215.62 105.47 L 222.66 124.22 L 232.03 133.59 L 274.22 124.22 L 283.59 100.78 L 281.25 23.44" stroke="white" fill="transparent"/>
</svg>