<?xml version="1.0" encoding="UTF-8" standalone="no"?>
<!--Created with ndjsontosvg (https:https://github.com/thompson318/ndjsontosvg) 
	from the simplified Google quickdraw data set. key_id = 6684423602831360-->
<svg width="600" height="600"
	xmlns="http://www.w3.org/2000/svg">
	xmlns:ndjsontosvg="https://github.com/thompson318/ndjsontosvg"
	xmlns:quickdraw="https://quickdraw.withgoogle.com/data"
	xmlns:scikit-surgery="https://doi.org/10.1007/s11548-020-02180-5">

	<rect width="100%" height="100%" fill="black" />
	<path d = "M 161.72 23.44 L 30.47 18.75 L 2.34 37.50 L 4.69 178.12 L 14.06 199.22 L 53.91 208.59 L 421.88 220.31 L 560.16 246.09 L 574.22 227.34 L 583.59 126.56 L 578.91 70.31 L 562.50 44.53 L 520.31 23.44 L 461.72 9.38 L 325.78 0.00 L 105.47 16.41" stroke="white" fill="transparent"/>
	<path d = "M 37.50 185.16 L 9.38 199.22 L 11.72 255.47 L 44.53 262.50 L 79.69 243.75 L 77.34 199.22 L 49.22 178.12 L 14.06 187.50 L 9.38 210.94" stroke="white" fill="transparent"/>
	<path d = "M 168.75 201.56 L 159.38 255.47 L 171.09 271.88 L 199.22 260.16 L 208.59 206.25 L 196.88 187.50 L 150.00 206.25 L 145.31 255.47" stroke="white" fill="transparent"/>
	<path d = "M 314.06 199.22 L 290.62 234.38 L 311.72 283.59 L 335.16 281.25 L 358.59 264.84 L 365.62 192.19 L 330.47 182.81 L 283.59 208.59 L 269.53 232.03 L 267.19 262.50" stroke="white" fill="transparent"/>
	<path d = "M 452.34 206.25 L 438.28 210.94 L 424.22 239.06 L 445.31 288.28 L 471.09 292.97 L 485.16 262.50 L 482.81 208.59 L 426.56 194.53 L 389.06 239.06 L 391.41 285.94 L 431.25 307.03" stroke="white" fill="transparent"/>
	<path d = "M 553.12 246.09 L 550.78 262.50 L 562.50 276.56 L 590.62 269.53 L 597.66 232.03 L 578.91 208.59 L 529.69 222.66 L 527.34 260.16 L 564.84 285.94" stroke="white" fill="transparent"/>
	<path d = "M 185.16 82.03 L 180.47 72.66 L 157.03 65.62 L 117.19 75.00 L 131.25 100.78 L 178.12 126.56 L 161.72 138.28 L 121.88 145.31 L 107.81 135.94 L 107.81 124.22" stroke="white" fill="transparent"/>
	<path d = "M 241.41 70.31 L 222.66 70.31 L 182.81 93.75 L 187.50 133.59 L 210.94 147.66 L 234.38 142.97 L 243.75 112.50" stroke="white" fill="transparent"/>
	<path d = "M 281.25 58.59 L 283.59 159.38" stroke="white" fill="transparent"/>
	<path d = "M 318.75 49.22 L 314.06 152.34" stroke="white" fill="transparent"/>
	<path d = "M 274.22 117.19 L 304.69 112.50" stroke="white" fill="transparent"/>
</svg>