<?xml version="1.0" encoding="UTF-8" standalone="no"?>
<!--Created with ndjsontosvg (https:https://github.com/thompson318/ndjsontosvg) 
	from the simplified Google quickdraw data set. key_id = 5384280916099072-->
<svg width="600" height="600"
	xmlns="http://www.w3.org/2000/svg">
	xmlns:ndjsontosvg="https://github.com/thompson318/ndjsontosvg"
	xmlns:quickdraw="https://quickdraw.withgoogle.com/data"
	xmlns:scikit-surgery="https://doi.org/10.1007/s11548-020-02180-5">

	<rect width="100%" height="100%" fill="black" />
	<path d = "M 9.38 124.22 L 9.38 51.56 L 16.41 28.12 L 28.12 18.75 L 506.25 14.06 L 522.66 0.00 L 548.44 4.69 L 569.53 18.75 L 592.97 53.91 L 597.66 119.53 L 588.28 140.62 L 135.94 138.28 L 0.00 119.53" stroke="white" fill="transparent"/>
	<path d = "M 35.16 150.00 L 46.88 131.25 L 70.31 121.88 L 82.03 126.56 L 96.09 147.66 L 56.25 150.00 L 32.81 145.31 L 30.47 128.91 L 49.22 124.22" stroke="white" fill="transparent"/>
	<path d = "M 135.94 147.66 L 159.38 126.56 L 180.47 128.91 L 182.81 140.62 L 161.72 152.34 L 133.59 152.34 L 121.88 140.62 L 142.97 135.94" stroke="white" fill="transparent"/>
	<path d = "M 295.31 154.69 L 285.94 145.31 L 300.00 135.94 L 332.81 138.28 L 339.84 147.66 L 321.09 154.69 L 278.91 157.03 L 278.91 147.66 L 297.66 142.97" stroke="white" fill="transparent"/>
	<path d = "M 466.41 150.00 L 473.44 145.31" stroke="white" fill="transparent"/>
</svg>