<?xml version="1.0" encoding="UTF-8" standalone="no"?>
<!--Created with ndjsontosvg (https:https://github.com/thompson318/ndjsontosvg) 
	from the simplified Google quickdraw data set. key_id = 4557569571946496-->
<svg width="600" height="600"
	xmlns="http://www.w3.org/2000/svg">
	xmlns:ndjsontosvg="https://github.com/thompson318/ndjsontosvg"
	xmlns:quickdraw="https://quickdraw.withgoogle.com/data"
	xmlns:scikit-surgery="https://doi.org/10.1007/s11548-020-02180-5">

	<rect width="100%" height="100%" fill="black" />
	<path d = "M 63.28 243.75 L 14.06 262.50 L 4.69 271.88 L 2.34 337.50 L 4.69 349.22 L 16.41 356.25 L 248.44 349.22 L 595.31 302.34 L 581.25 192.19 L 541.41 60.94 L 522.66 35.16 L 417.19 2.34 L 290.62 0.00 L 166.41 16.41 L 121.88 25.78 L 98.44 42.19 L 67.97 96.09 L 67.97 150.00 L 91.41 239.06" stroke="white" fill="transparent"/>
	<path d = "M 65.62 145.31 L 142.97 126.56 L 159.38 140.62 L 157.03 229.69 L 93.75 232.03" stroke="white" fill="transparent"/>
	<path d = "M 288.28 103.12 L 276.56 194.53 L 295.31 199.22 L 351.56 189.84 L 360.94 171.09 L 365.62 114.84 L 363.28 84.38 L 351.56 77.34 L 278.91 98.44" stroke="white" fill="transparent"/>
	<path d = "M 440.62 110.16 L 435.94 194.53 L 438.28 203.91 L 450.00 215.62 L 536.72 206.25 L 548.44 192.19 L 550.78 159.38 L 536.72 126.56 L 508.59 114.84 L 478.12 112.50" stroke="white" fill="transparent"/>
	<path d = "M 419.53 133.59 L 386.72 133.59 L 358.59 147.66 L 339.84 171.09 L 342.19 185.16 L 346.88 196.88 L 370.31 203.91 L 421.88 175.78 L 442.97 133.59" stroke="white" fill="transparent"/>
	<path d = "M 241.41 140.62 L 255.47 126.56 L 154.69 173.44 L 164.06 210.94 L 173.44 217.97 L 248.44 210.94 L 255.47 112.50" stroke="white" fill="transparent"/>
	<path d = "M 164.06 344.53 L 117.19 360.94 L 105.47 375.00 L 98.44 412.50 L 126.56 452.34 L 166.41 461.72 L 206.25 445.31 L 225.00 412.50 L 213.28 382.03 L 185.16 358.59 L 157.03 356.25 L 145.31 363.28" stroke="white" fill="transparent"/>
	<path d = "M 543.75 267.19 L 501.56 276.56 L 468.75 307.03 L 459.38 328.12 L 457.03 365.62 L 478.12 386.72 L 496.88 389.06 L 541.41 372.66 L 553.12 360.94 L 553.12 304.69 L 539.06 253.12" stroke="white" fill="transparent"/>
</svg>