<?xml version="1.0" encoding="UTF-8" standalone="no"?>
<!--Created with ndjsontosvg (https:https://github.com/thompson318/ndjsontosvg) 
	from the simplified Google quickdraw data set. key_id = 6107851053334528-->
<svg width="600" height="600"
	xmlns="http://www.w3.org/2000/svg">
	xmlns:ndjsontosvg="https://github.com/thompson318/ndjsontosvg"
	xmlns:quickdraw="https://quickdraw.withgoogle.com/data"
	xmlns:scikit-surgery="https://doi.org/10.1007/s11548-020-02180-5">

	<rect width="100%" height="100%" fill="black" />
	<path d = "M 0.00 63.28 L 98.44 51.56 L 121.88 18.75 L 182.81 4.69 L 375.00 0.00 L 459.38 18.75 L 569.53 23.44 L 597.66 32.81" stroke="white" fill="transparent"/>
	<path d = "M 0.00 187.50 L 75.00 150.00 L 250.78 119.53 L 309.38 119.53 L 438.28 142.97 L 550.78 124.22 L 581.25 128.91 L 597.66 147.66" stroke="white" fill="transparent"/>
	<path d = "M 30.47 178.12 L 28.12 194.53 L 39.84 217.97 L 86.72 246.09 L 107.81 232.03 L 126.56 178.12 L 86.72 145.31" stroke="white" fill="transparent"/>
	<path d = "M 227.34 110.16 L 210.94 150.00 L 213.28 178.12 L 222.66 189.84 L 271.88 213.28 L 288.28 206.25 L 307.03 187.50 L 309.38 166.41 L 285.94 135.94 L 269.53 124.22 L 253.12 126.56" stroke="white" fill="transparent"/>
	<path d = "M 398.44 159.38 L 382.03 178.12 L 379.69 189.84 L 403.12 213.28 L 431.25 225.00 L 452.34 215.62 L 475.78 185.16 L 459.38 168.75 L 433.59 168.75" stroke="white" fill="transparent"/>
	<path d = "M 574.22 175.78 L 555.47 180.47 L 555.47 203.91 L 569.53 215.62 L 595.31 220.31 L 597.66 168.75" stroke="white" fill="transparent"/>
	<path d = "M 236.72 46.88 L 246.09 53.91 L 243.75 77.34" stroke="white" fill="transparent"/>
	<path d = "M 288.28 44.53 L 297.66 65.62 L 292.97 72.66" stroke="white" fill="transparent"/>
	<path d = "M 311.72 65.62 L 311.72 72.66 L 318.75 70.31" stroke="white" fill="transparent"/>
	<path d = "M 321.09 63.28 L 325.78 86.72 L 346.88 77.34" stroke="white" fill="transparent"/>
</svg>