<?xml version="1.0" encoding="UTF-8" standalone="no"?>
<!--Created with ndjsontosvg (https:https://github.com/thompson318/ndjsontosvg) 
	from the simplified Google quickdraw data set. key_id = 6635099527315456-->
<svg width="600" height="600"
	xmlns="http://www.w3.org/2000/svg">
	xmlns:ndjsontosvg="https://github.com/thompson318/ndjsontosvg"
	xmlns:quickdraw="https://quickdraw.withgoogle.com/data"
	xmlns:scikit-surgery="https://doi.org/10.1007/s11548-020-02180-5">

	<rect width="100%" height="100%" fill="black" />
	<path d = "M 157.03 365.62 L 135.94 356.25 L 98.44 358.59 L 70.31 377.34 L 56.25 400.78 L 39.84 447.66 L 42.19 496.88 L 70.31 529.69 L 117.19 534.38 L 145.31 520.31 L 166.41 503.91 L 187.50 466.41 L 185.16 417.19 L 171.09 389.06 L 145.31 358.59 L 117.19 346.88" stroke="white" fill="transparent"/>
	<path d = "M 166.41 307.03 L 107.81 300.00 L 84.38 307.03 L 46.88 337.50 L 30.47 360.94 L 7.03 419.53 L 0.00 478.12 L 2.34 510.94 L 23.44 562.50 L 56.25 588.28 L 100.78 597.66 L 147.66 597.66 L 206.25 578.91 L 250.78 534.38 L 262.50 510.94 L 267.19 471.09 L 253.12 412.50 L 274.22 482.81 L 307.03 532.03 L 360.94 567.19 L 407.81 569.53 L 450.00 536.72 L 471.09 506.25 L 482.81 471.09 L 489.84 391.41 L 473.44 349.22 L 433.59 311.72 L 382.03 288.28 L 283.59 281.25 L 250.78 290.62" stroke="white" fill="transparent"/>
	<path d = "M 410.16 346.88 L 360.94 337.50 L 332.81 351.56 L 314.06 377.34 L 307.03 414.84 L 311.72 457.03 L 342.19 494.53 L 377.34 510.94 L 410.16 508.59 L 424.22 501.56 L 438.28 471.09 L 442.97 410.16 L 431.25 367.97 L 410.16 339.84" stroke="white" fill="transparent"/>
	<path d = "M 180.47 297.66 L 173.44 288.28 L 157.03 131.25 L 135.94 84.38 L 93.75 21.09 L 161.72 124.22 L 203.91 257.81 L 215.62 105.47 L 229.69 51.56 L 250.78 0.00 L 262.50 93.75 L 262.50 201.56 L 248.44 302.34" stroke="white" fill="transparent"/>
</svg>