<?xml version="1.0" encoding="UTF-8" standalone="no"?>
<!--Created with ndjsontosvg (https:https://github.com/thompson318/ndjsontosvg) 
	from the simplified Google quickdraw data set. key_id = 5701613152894976-->
<svg width="600" height="600"
	xmlns="http://www.w3.org/2000/svg">
	xmlns:ndjsontosvg="https://github.com/thompson318/ndjsontosvg"
	xmlns:quickdraw="https://quickdraw.withgoogle.com/data"
	xmlns:scikit-surgery="https://doi.org/10.1007/s11548-020-02180-5">

	<rect width="100%" height="100%" fill="black" />
	<path d = "M 93.75 450.00 L 58.59 442.97 L 32.81 459.38 L 11.72 487.50 L 2.34 513.28 L 0.00 560.16 L 28.12 592.97 L 60.94 597.66 L 84.38 592.97 L 133.59 539.06 L 145.31 492.19 L 112.50 459.38" stroke="white" fill="transparent"/>
	<path d = "M 314.06 433.59 L 257.81 450.00 L 227.34 480.47 L 222.66 522.66 L 260.16 567.19 L 288.28 578.91 L 346.88 583.59 L 391.41 546.09 L 403.12 522.66 L 405.47 475.78 L 379.69 450.00 L 346.88 447.66" stroke="white" fill="transparent"/>
	<path d = "M 300.00 461.72 L 285.94 450.00 L 260.16 400.78 L 157.03 23.44" stroke="white" fill="transparent"/>
	<path d = "M 70.31 480.47 L 67.97 419.53 L 103.12 236.72 L 161.72 2.34 L 168.75 0.00" stroke="white" fill="transparent"/>
	<path d = "M 182.81 23.44 L 150.00 0.00" stroke="white" fill="transparent"/>
</svg>