<?xml version="1.0" encoding="UTF-8" standalone="no"?>
<!--Created with ndjsontosvg (https:https://github.com/thompson318/ndjsontosvg) 
	from the simplified Google quickdraw data set. key_id = 5282708680867840-->
<svg width="600" height="600"
	xmlns="http://www.w3.org/2000/svg">
	xmlns:ndjsontosvg="https://github.com/thompson318/ndjsontosvg"
	xmlns:quickdraw="https://quickdraw.withgoogle.com/data"
	xmlns:scikit-surgery="https://doi.org/10.1007/s11548-020-02180-5">

	<rect width="100%" height="100%" fill="black" />
	<path d = "M 175.78 128.91 L 140.62 105.47 L 84.38 84.38 L 28.12 91.41 L 9.38 112.50 L 7.03 152.34 L 35.16 192.19 L 93.75 234.38 L 133.59 236.72 L 28.12 260.16 L 9.38 276.56 L 0.00 297.66 L 0.00 311.72 L 18.75 335.16 L 96.09 379.69 L 142.97 382.03 L 199.22 328.12 L 210.94 302.34 L 213.28 213.28 L 208.59 175.78 L 189.84 140.62 L 164.06 126.56" stroke="white" fill="transparent"/>
	<path d = "M 208.59 203.91 L 339.84 121.88 L 480.47 0.00 L 398.44 103.12 L 316.41 159.38 L 597.66 161.72 L 499.22 187.50 L 206.25 234.38" stroke="white" fill="transparent"/>
</svg>