<?xml version="1.0" encoding="UTF-8" standalone="no"?>
<!--Created with ndjsontosvg (https:https://github.com/thompson318/ndjsontosvg) 
	from the simplified Google quickdraw data set. key_id = 5118187223908352-->
<svg width="600" height="600"
	xmlns="http://www.w3.org/2000/svg">
	xmlns:ndjsontosvg="https://github.com/thompson318/ndjsontosvg"
	xmlns:quickdraw="https://quickdraw.withgoogle.com/data"
	xmlns:scikit-surgery="https://doi.org/10.1007/s11548-020-02180-5">

	<rect width="100%" height="100%" fill="black" />
	<path d = "M 349.22 213.28 L 414.84 119.53 L 503.91 32.81 L 581.25 0.00 L 595.31 0.00 L 597.66 21.09 L 592.97 77.34 L 569.53 114.84 L 349.22 349.22" stroke="white" fill="transparent"/>
	<path d = "M 365.62 203.91 L 262.50 330.47 L 210.94 335.16 L 171.09 351.56 L 112.50 396.09 L 93.75 433.59 L 91.41 475.78 L 103.12 489.84 L 124.22 501.56 L 164.06 510.94 L 239.06 513.28 L 269.53 494.53 L 290.62 459.38 L 295.31 375.00 L 276.56 337.50" stroke="white" fill="transparent"/>
	<path d = "M 353.91 367.97 L 168.75 189.84 L 93.75 103.12 L 46.88 67.97 L 18.75 67.97 L 4.69 79.69 L 0.00 126.56 L 150.00 250.78 L 206.25 311.72 L 250.78 344.53" stroke="white" fill="transparent"/>
	<path d = "M 367.97 363.28 L 468.75 360.94 L 494.53 367.97 L 513.28 389.06" stroke="white" fill="transparent"/>
</svg>