<?xml version="1.0" encoding="UTF-8" standalone="no"?>
<!--Created with ndjsontosvg (https:https://github.com/thompson318/ndjsontosvg) 
	from the simplified Google quickdraw data set. key_id = 5046478567374848-->
<svg width="600" height="600"
	xmlns="http://www.w3.org/2000/svg">
	xmlns:ndjsontosvg="https://github.com/thompson318/ndjsontosvg"
	xmlns:quickdraw="https://quickdraw.withgoogle.com/data"
	xmlns:scikit-surgery="https://doi.org/10.1007/s11548-020-02180-5">

	<rect width="100%" height="100%" fill="black" />
	<path d = "M 201.56 227.34 L 290.62 194.53 L 382.03 192.19 L 435.94 203.91 L 492.19 232.03 L 515.62 260.16 L 517.97 300.00 L 485.16 337.50 L 442.97 356.25 L 351.56 370.31 L 288.28 365.62 L 234.38 349.22 L 187.50 316.41 L 168.75 278.91 L 180.47 243.75 L 222.66 210.94" stroke="white" fill="transparent"/>
	<path d = "M 196.88 346.88 L 189.84 365.62 L 194.53 389.06 L 213.28 391.41 L 220.31 384.38 L 222.66 370.31 L 217.97 358.59" stroke="white" fill="transparent"/>
	<path d = "M 255.47 365.62 L 255.47 389.06 L 246.09 396.09 L 227.34 391.41 L 222.66 379.69 L 229.69 372.66" stroke="white" fill="transparent"/>
	<path d = "M 482.81 339.84 L 480.47 400.78 L 489.84 412.50 L 506.25 417.19 L 527.34 396.09 L 532.03 365.62 L 525.00 346.88 L 501.56 337.50" stroke="white" fill="transparent"/>
	<path d = "M 452.34 358.59 L 454.69 389.06 L 475.78 389.06 L 478.12 377.34" stroke="white" fill="transparent"/>
	<path d = "M 178.12 262.50 L 154.69 253.12 L 93.75 203.91 L 79.69 178.12 L 70.31 121.88 L 75.00 53.91 L 93.75 25.78 L 161.72 18.75 L 189.84 44.53 L 222.66 44.53 L 213.28 14.06 L 173.44 0.00 L 93.75 4.69 L 39.84 32.81 L 11.72 89.06 L 0.00 175.78 L 18.75 236.72 L 44.53 262.50 L 86.72 288.28 L 135.94 290.62 L 166.41 278.91 L 180.47 262.50" stroke="white" fill="transparent"/>
	<path d = "M 189.84 53.91 L 220.31 86.72 L 220.31 49.22 L 227.34 44.53" stroke="white" fill="transparent"/>
	<path d = "M 492.19 248.44 L 471.09 189.84 L 471.09 157.03 L 475.78 145.31 L 499.22 131.25 L 527.34 131.25 L 574.22 157.03 L 595.31 189.84 L 597.66 225.00 L 567.19 257.81 L 527.34 255.47 L 492.19 241.41" stroke="white" fill="transparent"/>
	<path d = "M 574.22 189.84 L 571.88 196.88" stroke="white" fill="transparent"/>
	<path d = "M 532.03 126.56 L 532.03 126.56" stroke="white" fill="transparent"/>
</svg>