<?xml version="1.0" encoding="UTF-8" standalone="no"?>
<!--Created with ndjsontosvg (https:https://github.com/thompson318/ndjsontosvg) 
	from the simplified Google quickdraw data set. key_id = 5391645400891392-->
<svg width="600" height="600"
	xmlns="http://www.w3.org/2000/svg">
	xmlns:ndjsontosvg="https://github.com/thompson318/ndjsontosvg"
	xmlns:quickdraw="https://quickdraw.withgoogle.com/data"
	xmlns:scikit-surgery="https://doi.org/10.1007/s11548-020-02180-5">

	<rect width="100%" height="100%" fill="black" />
	<path d = "M 271.88 243.75 L 215.62 201.56 L 152.34 196.88 L 100.78 222.66 L 0.00 302.34 L 23.44 297.66 L 67.97 274.22 L 46.88 300.00 L 44.53 304.69 L 51.56 307.03 L 135.94 243.75 L 208.59 222.66 L 232.03 222.66 L 276.56 248.44" stroke="white" fill="transparent"/>
	<path d = "M 328.12 260.16 L 356.25 292.97 L 372.66 353.91 L 367.97 379.69 L 339.84 400.78 L 243.75 421.88 L 166.41 457.03 L 215.62 428.91 L 154.69 428.91 L 105.47 440.62 L 182.81 410.16 L 285.94 400.78 L 325.78 377.34 L 349.22 349.22 L 360.94 316.41 L 351.56 276.56 L 330.47 255.47 L 285.94 241.41 L 321.09 234.38 L 328.12 232.03 L 321.09 225.00 L 285.94 222.66 L 210.94 264.84 L 222.66 271.88 L 257.81 274.22 L 314.06 260.16 L 316.41 239.06 L 309.38 222.66 L 321.09 215.62 L 367.97 243.75 L 400.78 248.44 L 412.50 229.69 L 407.81 208.59 L 349.22 187.50 L 389.06 225.00 L 412.50 234.38 L 445.31 234.38 L 454.69 215.62 L 435.94 189.84 L 405.47 182.81 L 438.28 220.31 L 464.06 227.34 L 496.88 222.66 L 508.59 213.28 L 508.59 192.19 L 454.69 159.38 L 461.72 192.19 L 494.53 215.62 L 543.75 203.91 L 571.88 175.78 L 592.97 117.19 L 590.62 53.91 L 569.53 25.78 L 548.44 9.38 L 525.00 0.00 L 499.22 4.69 L 445.31 39.84 L 499.22 30.47 L 496.88 25.78 L 466.41 44.53 L 478.12 30.47 L 510.94 7.03 L 536.72 4.69 L 567.19 18.75 L 595.31 58.59 L 595.31 110.16 L 569.53 154.69 L 529.69 192.19" stroke="white" fill="transparent"/>
	<path d = "M 424.22 225.00 L 424.22 225.00" stroke="white" fill="transparent"/>
</svg>