<?xml version="1.0" encoding="UTF-8" standalone="no"?>
<!--Created with ndjsontosvg (https:https://github.com/thompson318/ndjsontosvg) 
	from the simplified Google quickdraw data set. key_id = 6132769887354880-->
<svg width="600" height="600"
	xmlns="http://www.w3.org/2000/svg">
	xmlns:ndjsontosvg="https://github.com/thompson318/ndjsontosvg"
	xmlns:quickdraw="https://quickdraw.withgoogle.com/data"
	xmlns:scikit-surgery="https://doi.org/10.1007/s11548-020-02180-5">

	<rect width="100%" height="100%" fill="black" />
	<path d = "M 145.31 206.25 L 56.25 185.16 L 18.75 157.03 L 0.00 121.88 L 0.00 72.66 L 21.09 28.12 L 44.53 11.72 L 91.41 0.00 L 114.84 0.00 L 46.88 25.78 L 18.75 63.28 L 11.72 93.75 L 60.94 161.72 L 100.78 187.50 L 164.06 187.50 L 276.56 117.19 L 330.47 93.75 L 377.34 86.72 L 435.94 84.38 L 475.78 93.75 L 525.00 128.91 L 525.00 145.31 L 508.59 166.41 L 482.81 180.47 L 342.19 227.34 L 215.62 229.69 L 150.00 225.00 L 138.28 217.97" stroke="white" fill="transparent"/>
	<path d = "M 269.53 236.72 L 307.03 318.75" stroke="white" fill="transparent"/>
	<path d = "M 386.72 217.97 L 400.78 248.44 L 421.88 269.53" stroke="white" fill="transparent"/>
	<path d = "M 274.22 93.75 L 206.25 93.75" stroke="white" fill="transparent"/>
	<path d = "M 356.25 105.47 L 335.16 60.94 L 323.44 4.69" stroke="white" fill="transparent"/>
	<path d = "M 482.81 103.12 L 503.91 82.03 L 506.25 23.44" stroke="white" fill="transparent"/>
	<path d = "M 499.22 128.91 L 536.72 133.59 L 597.66 121.88" stroke="white" fill="transparent"/>
</svg>