<?xml version="1.0" encoding="UTF-8" standalone="no"?>
<!--Created with ndjsontosvg (https:https://github.com/thompson318/ndjsontosvg) 
	from the simplified Google quickdraw data set. key_id = 5548817875206144-->
<svg width="600" height="600"
	xmlns="http://www.w3.org/2000/svg">
	xmlns:ndjsontosvg="https://github.com/thompson318/ndjsontosvg"
	xmlns:quickdraw="https://quickdraw.withgoogle.com/data"
	xmlns:scikit-surgery="https://doi.org/10.1007/s11548-020-02180-5">

	<rect width="100%" height="100%" fill="black" />
	<path d = "M 161.72 257.81 L 173.44 225.00 L 208.59 201.56 L 243.75 192.19 L 335.16 185.16 L 389.06 189.84 L 426.56 201.56 L 447.66 227.34 L 454.69 250.78" stroke="white" fill="transparent"/>
	<path d = "M 440.62 267.19 L 389.06 288.28 L 297.66 302.34 L 222.66 292.97 L 175.78 271.88" stroke="white" fill="transparent"/>
	<path d = "M 171.09 271.88 L 124.22 278.91 L 91.41 274.22 L 58.59 260.16 L 21.09 222.66 L 2.34 175.78 L 4.69 91.41 L 28.12 42.19 L 58.59 14.06 L 98.44 0.00 L 133.59 14.06 L 152.34 46.88 L 138.28 82.03" stroke="white" fill="transparent"/>
	<path d = "M 442.97 215.62 L 482.81 154.69 L 520.31 135.94" stroke="white" fill="transparent"/>
	<path d = "M 513.28 135.94 L 501.56 126.56 L 501.56 110.16 L 510.94 86.72 L 534.38 65.62" stroke="white" fill="transparent"/>
	<path d = "M 539.06 133.59 L 567.19 124.22 L 597.66 128.91" stroke="white" fill="transparent"/>
	<path d = "M 396.09 283.59 L 414.84 307.03 L 450.00 323.44 L 475.78 318.75 L 522.66 283.59" stroke="white" fill="transparent"/>
	<path d = "M 499.22 278.91 L 529.69 222.66 L 562.50 187.50" stroke="white" fill="transparent"/>
	<path d = "M 527.34 318.75 L 571.88 302.34" stroke="white" fill="transparent"/>
	<path d = "M 222.66 260.16 L 206.25 267.19 L 185.16 302.34 L 175.78 344.53 L 187.50 353.91" stroke="white" fill="transparent"/>
	<path d = "M 250.78 278.91 L 246.09 337.50 L 253.12 372.66" stroke="white" fill="transparent"/>
	<path d = "M 316.41 274.22 L 321.09 307.03" stroke="white" fill="transparent"/>
	<path d = "M 372.66 250.78 L 398.44 288.28" stroke="white" fill="transparent"/>
	<path d = "M 325.78 311.72 L 335.16 386.72" stroke="white" fill="transparent"/>
	<path d = "M 396.09 250.78 L 396.09 309.38" stroke="white" fill="transparent"/>
</svg>