<?xml version="1.0" encoding="UTF-8" standalone="no"?>
<!--Created with ndjsontosvg (https:https://github.com/thompson318/ndjsontosvg) 
	from the simplified Google quickdraw data set. key_id = 5647077264588800-->
<svg width="600" height="600"
	xmlns="http://www.w3.org/2000/svg">
	xmlns:ndjsontosvg="https://github.com/thompson318/ndjsontosvg"
	xmlns:quickdraw="https://quickdraw.withgoogle.com/data"
	xmlns:scikit-surgery="https://doi.org/10.1007/s11548-020-02180-5">

	<rect width="100%" height="100%" fill="black" />
	<path d = "M 382.03 253.12 L 492.19 201.56 L 501.56 189.84 L 508.59 159.38 L 494.53 77.34 L 473.44 60.94 L 445.31 56.25 L 367.97 70.31 L 267.19 164.06 L 283.59 100.78 L 325.78 25.78 L 363.28 9.38 L 417.19 0.00 L 515.62 21.09 L 534.38 37.50 L 555.47 70.31 L 595.31 152.34 L 595.31 173.44 L 557.81 232.03 L 485.16 316.41 L 454.69 332.81 L 295.31 365.62 L 290.62 375.00 L 292.97 442.97 L 246.09 527.34 L 196.88 534.38 L 126.56 508.59" stroke="white" fill="transparent"/>
	<path d = "M 217.97 363.28 L 217.97 363.28" stroke="white" fill="transparent"/>
	<path d = "M 208.59 330.47 L 110.16 283.59 L 72.66 276.56 L 35.16 295.31 L 4.69 325.78 L 0.00 379.69" stroke="white" fill="transparent"/>
	<path d = "M 196.88 246.09 L 142.97 276.56 L 77.34 370.31 L 65.62 403.12 L 131.25 384.38 L 194.53 353.91 L 339.84 269.53 L 391.41 257.81" stroke="white" fill="transparent"/>
	<path d = "M 199.22 262.50 L 236.72 248.44 L 339.84 236.72 L 377.34 236.72 L 412.50 248.44" stroke="white" fill="transparent"/>
	<path d = "M 300.00 332.81 L 278.91 438.28" stroke="white" fill="transparent"/>
	<path d = "M 358.59 297.66 L 377.34 335.16" stroke="white" fill="transparent"/>
	<path d = "M 386.72 304.69 L 459.38 344.53" stroke="white" fill="transparent"/>
	<path d = "M 457.03 283.59 L 525.00 285.94" stroke="white" fill="transparent"/>
	<path d = "M 525.00 285.94 L 536.72 428.91" stroke="white" fill="transparent"/>
	<path d = "M 405.47 370.31 L 410.16 391.41" stroke="white" fill="transparent"/>
</svg>