<?xml version="1.0" encoding="UTF-8" standalone="no"?>
<!--Created with ndjsontosvg (https:https://github.com/thompson318/ndjsontosvg) 
	from the simplified Google quickdraw data set. key_id = 6271694794653696-->
<svg width="600" height="600"
	xmlns="http://www.w3.org/2000/svg">
	xmlns:ndjsontosvg="https://github.com/thompson318/ndjsontosvg"
	xmlns:quickdraw="https://quickdraw.withgoogle.com/data"
	xmlns:scikit-surgery="https://doi.org/10.1007/s11548-020-02180-5">

	<rect width="100%" height="100%" fill="black" />
	<path d = "M 370.31 267.19 L 508.59 225.00 L 555.47 199.22 L 574.22 180.47 L 592.97 145.31 L 597.66 100.78 L 567.19 37.50 L 529.69 2.34 L 375.00 0.00 L 353.91 9.38 L 344.53 32.81" stroke="white" fill="transparent"/>
	<path d = "M 360.94 267.19 L 203.91 262.50 L 161.72 281.25 L 124.22 311.72 L 112.50 342.19 L 192.19 365.62 L 255.47 365.62 L 316.41 330.47 L 365.62 276.56" stroke="white" fill="transparent"/>
	<path d = "M 185.16 391.41 L 185.16 435.94 L 199.22 435.94" stroke="white" fill="transparent"/>
	<path d = "M 302.34 375.00 L 302.34 419.53" stroke="white" fill="transparent"/>
	<path d = "M 323.44 330.47 L 349.22 370.31 L 351.56 398.44" stroke="white" fill="transparent"/>
	<path d = "M 227.34 365.62 L 232.03 417.19" stroke="white" fill="transparent"/>
	<path d = "M 192.19 264.84 L 192.19 203.91 L 217.97 164.06" stroke="white" fill="transparent"/>
	<path d = "M 178.12 262.50 L 173.44 187.50" stroke="white" fill="transparent"/>
	<path d = "M 253.12 241.41 L 260.16 189.84" stroke="white" fill="transparent"/>
	<path d = "M 154.69 360.94 L 145.31 405.47 L 121.88 435.94 L 49.22 482.81 L 39.84 487.50 L 35.16 478.12" stroke="white" fill="transparent"/>
	<path d = "M 131.25 302.34 L 121.88 257.81 L 30.47 217.97 L 0.00 215.62" stroke="white" fill="transparent"/>
</svg>