<?xml version="1.0" encoding="UTF-8" standalone="no"?>
<!--Created with ndjsontosvg (https:https://github.com/thompson318/ndjsontosvg) 
	from the simplified Google quickdraw data set. key_id = 6203969481211904-->
<svg width="600" height="600"
	xmlns="http://www.w3.org/2000/svg">
	xmlns:ndjsontosvg="https://github.com/thompson318/ndjsontosvg"
	xmlns:quickdraw="https://quickdraw.withgoogle.com/data"
	xmlns:scikit-surgery="https://doi.org/10.1007/s11548-020-02180-5">

	<rect width="100%" height="100%" fill="black" />
	<path d = "M 370.31 4.69 L 339.84 7.03 L 323.44 16.41 L 323.44 37.50 L 367.97 44.53 L 393.75 39.84 L 396.09 23.44 L 382.03 0.00" stroke="white" fill="transparent"/>
	<path d = "M 389.06 16.41 L 525.00 42.19 L 576.56 77.34 L 597.66 105.47 L 597.66 168.75 L 581.25 210.94 L 510.94 239.06 L 440.62 246.09" stroke="white" fill="transparent"/>
	<path d = "M 442.97 257.81 L 335.16 262.50 L 250.78 283.59 L 199.22 316.41 L 189.84 349.22 L 246.09 372.66 L 283.59 365.62 L 360.94 339.84 L 414.84 307.03 L 445.31 278.91" stroke="white" fill="transparent"/>
	<path d = "M 457.03 257.81 L 515.62 330.47 L 522.66 435.94" stroke="white" fill="transparent"/>
	<path d = "M 398.44 316.41 L 433.59 370.31 L 452.34 433.59 L 452.34 459.38" stroke="white" fill="transparent"/>
	<path d = "M 339.84 349.22 L 372.66 391.41 L 386.72 447.66 L 386.72 480.47" stroke="white" fill="transparent"/>
	<path d = "M 283.59 375.00 L 297.66 440.62 L 290.62 506.25" stroke="white" fill="transparent"/>
	<path d = "M 431.25 255.47 L 398.44 201.56 L 358.59 164.06" stroke="white" fill="transparent"/>
	<path d = "M 358.59 262.50 L 281.25 159.38" stroke="white" fill="transparent"/>
	<path d = "M 281.25 257.81 L 222.66 180.47" stroke="white" fill="transparent"/>
	<path d = "M 203.91 278.91 L 145.31 225.00" stroke="white" fill="transparent"/>
	<path d = "M 253.12 367.97 L 248.44 468.75 L 239.06 510.94 L 100.78 517.97" stroke="white" fill="transparent"/>
	<path d = "M 182.81 520.31 L 112.50 466.41" stroke="white" fill="transparent"/>
	<path d = "M 210.94 323.44 L 65.62 239.06 L 14.06 321.09 L 0.00 360.94" stroke="white" fill="transparent"/>
	<path d = "M 51.56 274.22 L 56.25 356.25" stroke="white" fill="transparent"/>
</svg>