<?xml version="1.0" encoding="UTF-8" standalone="no"?>
<!--Created with ndjsontosvg (https:https://github.com/thompson318/ndjsontosvg) 
	from the simplified Google quickdraw data set. key_id = 6653172418347008-->
<svg width="600" height="600"
	xmlns="http://www.w3.org/2000/svg">
	xmlns:ndjsontosvg="https://github.com/thompson318/ndjsontosvg"
	xmlns:quickdraw="https://quickdraw.withgoogle.com/data"
	xmlns:scikit-surgery="https://doi.org/10.1007/s11548-020-02180-5">

	<rect width="100%" height="100%" fill="black" />
	<path d = "M 138.28 276.56 L 128.91 281.25 L 145.31 307.03 L 185.16 349.22 L 248.44 379.69 L 325.78 393.75 L 330.47 400.78 L 290.62 450.00 L 220.31 496.88 L 142.97 527.34 L 18.75 553.12 L 0.00 428.91 L 0.00 393.75 L 16.41 344.53 L 42.19 309.38 L 65.62 295.31 L 126.56 278.91 L 180.47 274.22" stroke="white" fill="transparent"/>
	<path d = "M 196.88 353.91 L 450.00 142.97" stroke="white" fill="transparent"/>
	<path d = "M 367.97 77.34 L 435.94 121.88 L 492.19 178.12 L 541.41 124.22 L 597.66 89.06 L 574.22 77.34 L 485.16 0.00 L 375.00 84.38" stroke="white" fill="transparent"/>
</svg>