<?xml version="1.0" encoding="UTF-8" standalone="no"?>
<!--Created with ndjsontosvg (https:https://github.com/thompson318/ndjsontosvg) 
	from the simplified Google quickdraw data set. key_id = 5796980162822144-->
<svg width="600" height="600"
	xmlns="http://www.w3.org/2000/svg">
	xmlns:ndjsontosvg="https://github.com/thompson318/ndjsontosvg"
	xmlns:quickdraw="https://quickdraw.withgoogle.com/data"
	xmlns:scikit-surgery="https://doi.org/10.1007/s11548-020-02180-5">

	<rect width="100%" height="100%" fill="black" />
	<path d = "M 450.00 63.28 L 405.47 53.91 L 318.75 60.94 L 300.00 100.78 L 300.00 114.84 L 316.41 135.94 L 367.97 168.75 L 450.00 199.22 L 496.88 201.56 L 576.56 185.16 L 595.31 178.12 L 595.31 171.09 L 496.88 89.06 L 468.75 72.66 L 433.59 63.28" stroke="white" fill="transparent"/>
	<path d = "M 290.62 89.06 L 225.00 75.00 L 126.56 67.97 L 70.31 53.91" stroke="white" fill="transparent"/>
	<path d = "M 58.59 37.50 L 44.53 7.03 L 23.44 0.00 L 0.00 16.41 L 14.06 42.19 L 37.50 46.88 L 82.03 39.84 L 96.09 75.00 L 60.94 39.84 L 25.78 16.41" stroke="white" fill="transparent"/>
</svg>