<?xml version="1.0" encoding="UTF-8" standalone="no"?>
<!--Created with ndjsontosvg (https:https://github.com/thompson318/ndjsontosvg) 
	from the simplified Google quickdraw data set. key_id = 4898731491065856-->
<svg width="600" height="600"
	xmlns="http://www.w3.org/2000/svg">
	xmlns:ndjsontosvg="https://github.com/thompson318/ndjsontosvg"
	xmlns:quickdraw="https://quickdraw.withgoogle.com/data"
	xmlns:scikit-surgery="https://doi.org/10.1007/s11548-020-02180-5">

	<rect width="100%" height="100%" fill="black" />
	<path d = "M 229.69 84.38 L 300.00 89.06 L 360.94 105.47 L 403.12 126.56 L 466.41 175.78 L 534.38 248.44 L 567.19 297.66 L 583.59 342.19 L 585.94 396.09 L 564.84 489.84 L 557.81 503.91 L 529.69 532.03 L 489.84 548.44 L 386.72 555.47 L 253.12 525.00 L 180.47 468.75 L 140.62 426.56 L 124.22 386.72 L 105.47 300.00 L 107.81 128.91 L 147.66 93.75 L 250.78 75.00" stroke="white" fill="transparent"/>
	<path d = "M 569.53 496.88 L 597.66 590.62 L 576.56 597.66 L 534.38 539.06 L 522.66 536.72" stroke="white" fill="transparent"/>
	<path d = "M 225.00 508.59 L 180.47 590.62" stroke="white" fill="transparent"/>
	<path d = "M 86.72 358.59 L 72.66 351.56 L 39.84 353.91 L 0.00 396.09" stroke="white" fill="transparent"/>
	<path d = "M 398.44 75.00 L 391.41 135.94" stroke="white" fill="transparent"/>
	<path d = "M 585.94 210.94 L 539.06 285.94" stroke="white" fill="transparent"/>
	<path d = "M 166.41 84.38 L 161.72 63.28 L 145.31 58.59 L 89.06 7.03 L 58.59 0.00 L 44.53 7.03 L 32.81 23.44 L 32.81 49.22 L 44.53 98.44 L 100.78 152.34" stroke="white" fill="transparent"/>
	<path d = "M 290.62 187.50 L 307.03 201.56 L 311.72 236.72 L 311.72 274.22 L 300.00 288.28 L 262.50 292.97 L 248.44 276.56 L 229.69 236.72 L 225.00 199.22 L 255.47 201.56" stroke="white" fill="transparent"/>
	<path d = "M 419.53 302.34 L 442.97 311.72 L 464.06 351.56 L 471.09 410.16 L 447.66 403.12 L 435.94 372.66 L 428.91 311.72" stroke="white" fill="transparent"/>
	<path d = "M 335.16 492.19 L 276.56 466.41 L 248.44 435.94 L 246.09 382.03 L 255.47 370.31 L 295.31 358.59 L 316.41 393.75 L 325.78 447.66 L 302.34 454.69" stroke="white" fill="transparent"/>
</svg>