<?xml version="1.0" encoding="UTF-8" standalone="no"?>
<!--Created with ndjsontosvg (https:https://github.com/thompson318/ndjsontosvg) 
	from the simplified Google quickdraw data set. key_id = 5325555626934272-->
<svg width="600" height="600"
	xmlns="http://www.w3.org/2000/svg">
	xmlns:ndjsontosvg="https://github.com/thompson318/ndjsontosvg"
	xmlns:quickdraw="https://quickdraw.withgoogle.com/data"
	xmlns:scikit-surgery="https://doi.org/10.1007/s11548-020-02180-5">

	<rect width="100%" height="100%" fill="black" />
	<path d = "M 112.50 288.28 L 145.31 225.00 L 203.91 161.72 L 300.00 103.12 L 342.19 93.75 L 450.00 98.44 L 482.81 124.22 L 527.34 199.22 L 536.72 288.28 L 527.34 311.72 L 485.16 360.94 L 424.22 398.44 L 370.31 414.84 L 248.44 417.19 L 189.84 393.75 L 152.34 358.59 L 114.84 292.97 L 112.50 262.50 L 117.19 262.50" stroke="white" fill="transparent"/>
	<path d = "M 494.53 135.94 L 503.91 121.88 L 539.06 98.44 L 592.97 79.69 L 597.66 84.38 L 578.91 135.94 L 529.69 189.84" stroke="white" fill="transparent"/>
	<path d = "M 450.00 377.34 L 478.12 417.19 L 508.59 508.59 L 438.28 459.38 L 389.06 393.75" stroke="white" fill="transparent"/>
	<path d = "M 222.66 145.31 L 208.59 96.09 L 206.25 4.69 L 213.28 0.00 L 276.56 42.19 L 325.78 114.84" stroke="white" fill="transparent"/>
	<path d = "M 126.56 288.28 L 9.38 264.84 L 0.00 246.09 L 93.75 239.06 L 150.00 255.47" stroke="white" fill="transparent"/>
	<path d = "M 201.56 396.09 L 213.28 522.66 L 225.00 548.44 L 250.78 496.88 L 274.22 372.66" stroke="white" fill="transparent"/>
</svg>