<?xml version="1.0" encoding="UTF-8" standalone="no"?>
<!--Created with ndjsontosvg (https:https://github.com/thompson318/ndjsontosvg) 
	from the simplified Google quickdraw data set. key_id = 4749763100540928-->
<svg width="600" height="600"
	xmlns="http://www.w3.org/2000/svg">
	xmlns:ndjsontosvg="https://github.com/thompson318/ndjsontosvg"
	xmlns:quickdraw="https://quickdraw.withgoogle.com/data"
	xmlns:scikit-surgery="https://doi.org/10.1007/s11548-020-02180-5">

	<rect width="100%" height="100%" fill="black" />
	<path d = "M 89.06 145.31 L 60.94 138.28 L 35.16 145.31 L 9.38 203.91 L 2.34 253.12 L 98.44 250.78 L 126.56 232.03 L 138.28 215.62 L 145.31 180.47 L 126.56 157.03 L 91.41 142.97" stroke="white" fill="transparent"/>
	<path d = "M 89.06 142.97 L 105.47 114.84 L 173.44 58.59 L 234.38 30.47 L 346.88 2.34 L 473.44 4.69 L 506.25 49.22 L 503.91 126.56 L 473.44 180.47 L 438.28 213.28 L 365.62 239.06 L 210.94 215.62 L 173.44 215.62 L 135.94 236.72 L 126.56 285.94 L 135.94 309.38 L 166.41 290.62 L 185.16 253.12 L 243.75 314.06 L 297.66 335.16 L 321.09 335.16 L 339.84 316.41 L 335.16 248.44" stroke="white" fill="transparent"/>
	<path d = "M 407.81 260.16 L 440.62 304.69 L 452.34 316.41 L 466.41 316.41 L 487.50 297.66 L 485.16 274.22 L 466.41 236.72" stroke="white" fill="transparent"/>
	<path d = "M 480.47 201.56 L 508.59 222.66 L 546.09 213.28 L 543.75 189.84 L 525.00 171.09 L 522.66 159.38" stroke="white" fill="transparent"/>
	<path d = "M 529.69 77.34 L 541.41 39.84 L 557.81 25.78 L 597.66 18.75 L 595.31 46.88 L 583.59 60.94 L 536.72 82.03 L 501.56 75.00" stroke="white" fill="transparent"/>
	<path d = "M 398.44 4.69 L 440.62 138.28 L 438.28 178.12" stroke="white" fill="transparent"/>
	<path d = "M 283.59 32.81 L 290.62 98.44 L 314.06 168.75 L 323.44 208.59 L 318.75 210.94" stroke="white" fill="transparent"/>
	<path d = "M 187.50 86.72 L 229.69 208.59" stroke="white" fill="transparent"/>
</svg>