<?xml version="1.0" encoding="UTF-8" standalone="no"?>
<!--Created with ndjsontosvg (https:https://github.com/thompson318/ndjsontosvg) 
	from the simplified Google quickdraw data set. key_id = 5320843028594688-->
<svg width="600" height="600"
	xmlns="http://www.w3.org/2000/svg">
	xmlns:ndjsontosvg="https://github.com/thompson318/ndjsontosvg"
	xmlns:quickdraw="https://quickdraw.withgoogle.com/data"
	xmlns:scikit-surgery="https://doi.org/10.1007/s11548-020-02180-5">

	<rect width="100%" height="100%" fill="black" />
	<path d = "M 128.91 119.53 L 140.62 75.00 L 164.06 46.88 L 227.34 16.41 L 295.31 0.00 L 379.69 2.34 L 450.00 18.75 L 496.88 46.88 L 510.94 84.38 L 496.88 98.44 L 457.03 117.19 L 260.16 164.06 L 192.19 164.06 L 117.19 133.59" stroke="white" fill="transparent"/>
	<path d = "M 128.91 138.28 L 107.81 133.59 L 82.03 147.66 L 67.97 161.72 L 63.28 180.47 L 77.34 206.25 L 121.88 227.34 L 213.28 234.38 L 438.28 213.28 L 522.66 187.50 L 564.84 154.69 L 569.53 135.94 L 557.81 96.09 L 546.09 84.38 L 513.28 72.66" stroke="white" fill="transparent"/>
	<path d = "M 107.81 138.28 L 77.34 63.28 L 32.81 18.75 L 11.72 30.47 L 0.00 46.88 L 2.34 96.09 L 16.41 128.91 L 46.88 152.34 L 79.69 145.31 L 96.09 133.59" stroke="white" fill="transparent"/>
	<path d = "M 121.88 222.66 L 65.62 297.66 L 60.94 307.03 L 65.62 309.38" stroke="white" fill="transparent"/>
	<path d = "M 173.44 248.44 L 185.16 271.88 L 178.12 314.06" stroke="white" fill="transparent"/>
	<path d = "M 517.97 189.84 L 494.53 210.94 L 487.50 227.34 L 480.47 248.44 L 489.84 274.22" stroke="white" fill="transparent"/>
	<path d = "M 532.03 189.84 L 534.38 234.38 L 548.44 267.19" stroke="white" fill="transparent"/>
	<path d = "M 553.12 131.25 L 560.16 110.16 L 597.66 98.44 L 597.66 112.50 L 557.81 138.28" stroke="white" fill="transparent"/>
	<path d = "M 138.28 93.75 L 159.38 86.72 L 150.00 133.59 L 206.25 72.66 L 175.78 91.41 L 168.75 126.56 L 180.47 138.28 L 213.28 131.25 L 274.22 82.03 L 281.25 67.97 L 274.22 44.53 L 232.03 84.38 L 208.59 128.91 L 210.94 147.66 L 234.38 157.03 L 274.22 145.31 L 311.72 117.19 L 325.78 93.75 L 330.47 60.94 L 318.75 37.50 L 290.62 32.81 L 264.84 42.19 L 241.41 77.34 L 248.44 112.50 L 274.22 128.91 L 311.72 128.91 L 332.81 117.19 L 360.94 86.72 L 367.97 70.31 L 365.62 42.19 L 356.25 32.81 L 318.75 28.12 L 281.25 37.50 L 250.78 56.25 L 241.41 82.03 L 257.81 107.81 L 274.22 117.19 L 332.81 126.56 L 363.28 121.88 L 410.16 98.44 L 431.25 63.28 L 426.56 32.81" stroke="white" fill="transparent"/>
</svg>