<?xml version="1.0" encoding="UTF-8" standalone="no"?>
<!--Created with ndjsontosvg (https:https://github.com/thompson318/ndjsontosvg) 
	from the simplified Google quickdraw data set. key_id = 5346606167621632-->
<svg width="600" height="600"
	xmlns="http://www.w3.org/2000/svg">
	xmlns:ndjsontosvg="https://github.com/thompson318/ndjsontosvg"
	xmlns:quickdraw="https://quickdraw.withgoogle.com/data"
	xmlns:scikit-surgery="https://doi.org/10.1007/s11548-020-02180-5">

	<rect width="100%" height="100%" fill="black" />
	<path d = "M 300.00 398.44 L 283.59 424.22 L 271.88 471.09 L 276.56 510.94 L 292.97 543.75 L 316.41 583.59 L 330.47 588.28 L 375.00 597.66 L 393.75 592.97 L 403.12 581.25 L 407.81 473.44 L 386.72 414.84 L 349.22 379.69 L 337.50 377.34 L 297.66 386.72 L 288.28 405.47 L 297.66 403.12" stroke="white" fill="transparent"/>
	<path d = "M 323.44 382.03 L 292.97 405.47 L 269.53 407.81 L 189.84 407.81 L 171.09 403.12 L 131.25 367.97 L 103.12 330.47 L 72.66 264.84 L 46.88 166.41 L 42.19 138.28 L 53.91 86.72 L 77.34 49.22 L 117.19 16.41 L 199.22 0.00 L 253.12 0.00 L 382.03 35.16 L 410.16 58.59 L 435.94 100.78 L 471.09 173.44 L 487.50 246.09 L 466.41 309.38 L 431.25 353.91 L 363.28 389.06 L 356.25 389.06 L 358.59 384.38" stroke="white" fill="transparent"/>
	<path d = "M 98.44 351.56 L 93.75 351.56 L 70.31 396.09 L 79.69 419.53 L 91.41 424.22 L 152.34 384.38" stroke="white" fill="transparent"/>
	<path d = "M 501.56 192.19 L 489.84 187.50 L 501.56 187.50 L 546.09 196.88 L 550.78 215.62 L 534.38 227.34 L 492.19 246.09 L 485.16 243.75" stroke="white" fill="transparent"/>
	<path d = "M 431.25 58.59 L 464.06 42.19 L 489.84 42.19 L 501.56 49.22 L 468.75 89.06 L 435.94 110.16" stroke="white" fill="transparent"/>
	<path d = "M 44.53 159.38 L 9.38 175.78 L 0.00 220.31 L 75.00 210.94" stroke="white" fill="transparent"/>
	<path d = "M 63.28 100.78 L 84.38 124.22 L 126.56 128.91 L 208.59 121.88 L 246.09 114.84 L 290.62 91.41 L 337.50 82.03 L 386.72 56.25 L 398.44 53.91 L 405.47 119.53 L 396.09 157.03 L 178.12 234.38 L 105.47 276.56 L 84.38 321.09 L 86.72 339.84 L 110.16 351.56 L 171.09 353.91 L 213.28 349.22 L 285.94 314.06 L 307.03 311.72" stroke="white" fill="transparent"/>
</svg>