<?xml version="1.0" encoding="UTF-8" standalone="no"?>
<!--Created with ndjsontosvg (https:https://github.com/thompson318/ndjsontosvg) 
	from the simplified Google quickdraw data set. key_id = 4585418156670976-->
<svg width="600" height="600"
	xmlns="http://www.w3.org/2000/svg">
	xmlns:ndjsontosvg="https://github.com/thompson318/ndjsontosvg"
	xmlns:quickdraw="https://quickdraw.withgoogle.com/data"
	xmlns:scikit-surgery="https://doi.org/10.1007/s11548-020-02180-5">

	<rect width="100%" height="100%" fill="black" />
	<path d = "M 206.25 16.41 L 168.75 32.81 L 138.28 60.94 L 96.09 150.00 L 84.38 232.03 L 84.38 391.41 L 93.75 412.50 L 112.50 426.56 L 210.94 457.03 L 290.62 461.72 L 356.25 445.31 L 393.75 421.88 L 438.28 367.97 L 454.69 304.69 L 452.34 213.28 L 407.81 107.81 L 367.97 67.97 L 285.94 4.69 L 234.38 0.00" stroke="white" fill="transparent"/>
	<path d = "M 454.69 358.59 L 527.34 372.66 L 581.25 419.53 L 595.31 454.69 L 597.66 522.66 L 590.62 534.38 L 576.56 536.72 L 461.72 438.28 L 417.19 412.50" stroke="white" fill="transparent"/>
	<path d = "M 142.97 426.56 L 126.56 433.59 L 91.41 475.78 L 30.47 588.28 L 18.75 595.31 L 0.00 515.62 L 0.00 438.28 L 23.44 393.75 L 65.62 351.56" stroke="white" fill="transparent"/>
	<path d = "M 339.84 56.25 L 367.97 35.16 L 438.28 7.03 L 525.00 9.38 L 557.81 30.47 L 583.59 72.66 L 433.59 72.66 L 405.47 84.38" stroke="white" fill="transparent"/>
	<path d = "M 135.94 44.53 L 135.94 44.53" stroke="white" fill="transparent"/>
</svg>