<?xml version="1.0" encoding="UTF-8" standalone="no"?>
<!--Created with ndjsontosvg (https:https://github.com/thompson318/ndjsontosvg) 
	from the simplified Google quickdraw data set. key_id = 4712203984830464-->
<svg width="600" height="600"
	xmlns="http://www.w3.org/2000/svg">
	xmlns:ndjsontosvg="https://github.com/thompson318/ndjsontosvg"
	xmlns:quickdraw="https://quickdraw.withgoogle.com/data"
	xmlns:scikit-surgery="https://doi.org/10.1007/s11548-020-02180-5">

	<rect width="100%" height="100%" fill="black" />
	<path d = "M 281.25 159.38 L 285.94 133.59 L 297.66 133.59 L 304.69 154.69 L 271.88 166.41" stroke="white" fill="transparent"/>
	<path d = "M 283.59 131.25 L 107.81 171.09 L 4.69 201.56 L 4.69 175.78 L 60.94 150.00 L 138.28 128.91 L 346.88 84.38 L 489.84 37.50 L 574.22 18.75 L 597.66 35.16 L 557.81 67.97 L 482.81 105.47 L 412.50 124.22 L 295.31 128.91" stroke="white" fill="transparent"/>
	<path d = "M 487.50 23.44 L 485.16 7.03 L 492.19 0.00 L 506.25 14.06 L 503.91 18.75" stroke="white" fill="transparent"/>
	<path d = "M 35.16 157.03 L 18.75 140.62 L 18.75 119.53 L 32.81 117.19 L 53.91 133.59" stroke="white" fill="transparent"/>
</svg>