<?xml version="1.0" encoding="UTF-8" standalone="no"?>
<!--Created with ndjsontosvg (https:https://github.com/thompson318/ndjsontosvg) 
	from the simplified Google quickdraw data set. key_id = 5022109644357632-->
<svg width="600" height="600"
	xmlns="http://www.w3.org/2000/svg">
	xmlns:ndjsontosvg="https://github.com/thompson318/ndjsontosvg"
	xmlns:quickdraw="https://quickdraw.withgoogle.com/data"
	xmlns:scikit-surgery="https://doi.org/10.1007/s11548-020-02180-5">

	<rect width="100%" height="100%" fill="black" />
	<path d = "M 283.59 171.09 L 161.72 379.69 L 180.47 382.03 L 208.59 370.31 L 271.88 328.12 L 311.72 330.47 L 365.62 353.91 L 421.88 365.62 L 450.00 365.62 L 457.03 337.50 L 445.31 295.31 L 382.03 248.44 L 325.78 161.72 L 290.62 157.03 L 283.59 166.41" stroke="white" fill="transparent"/>
	<path d = "M 283.59 175.78 L 285.94 199.22 L 318.75 196.88 L 337.50 157.03 L 328.12 152.34 L 309.38 157.03" stroke="white" fill="transparent"/>
	<path d = "M 2.34 246.09 L 166.41 194.53 L 222.66 189.84 L 267.19 168.75 L 311.72 166.41 L 452.34 121.88 L 534.38 105.47 L 569.53 96.09 L 597.66 77.34 L 564.84 25.78 L 562.50 9.38 L 546.09 0.00 L 431.25 53.91 L 382.03 67.97 L 367.97 82.03 L 330.47 100.78 L 264.84 121.88 L 142.97 175.78 L 51.56 199.22 L 30.47 213.28 L 18.75 213.28 L 16.41 206.25" stroke="white" fill="transparent"/>
	<path d = "M 7.03 203.91 L 0.00 210.94" stroke="white" fill="transparent"/>
</svg>