<?xml version="1.0" encoding="UTF-8" standalone="no"?>
<!--Created with ndjsontosvg (https:https://github.com/thompson318/ndjsontosvg) 
	from the simplified Google quickdraw data set. key_id = 5185896007598080-->
<svg width="600" height="600"
	xmlns="http://www.w3.org/2000/svg">
	xmlns:ndjsontosvg="https://github.com/thompson318/ndjsontosvg"
	xmlns:quickdraw="https://quickdraw.withgoogle.com/data"
	xmlns:scikit-surgery="https://doi.org/10.1007/s11548-020-02180-5">

	<rect width="100%" height="100%" fill="black" />
	<path d = "M 60.94 360.94 L 77.34 332.81 L 121.88 278.91 L 229.69 257.81 L 241.41 260.16 L 262.50 281.25 L 269.53 302.34 L 271.88 337.50 L 248.44 405.47 L 182.81 379.69 L 79.69 379.69 L 65.62 337.50" stroke="white" fill="transparent"/>
	<path d = "M 11.72 16.41 L 39.84 51.56 L 103.12 105.47 L 152.34 164.06 L 241.41 227.34 L 370.31 344.53 L 428.91 410.16 L 489.84 452.34 L 564.84 400.78 L 597.66 370.31 L 592.97 358.59 L 543.75 314.06 L 377.34 187.50 L 297.66 140.62 L 11.72 0.00 L 0.00 14.06" stroke="white" fill="transparent"/>
</svg>