<?xml version="1.0" encoding="UTF-8" standalone="no"?>
<!--Created with ndjsontosvg (https:https://github.com/thompson318/ndjsontosvg) 
	from the simplified Google quickdraw data set. key_id = 4725080833654784-->
<svg width="600" height="600"
	xmlns="http://www.w3.org/2000/svg">
	xmlns:ndjsontosvg="https://github.com/thompson318/ndjsontosvg"
	xmlns:quickdraw="https://quickdraw.withgoogle.com/data"
	xmlns:scikit-surgery="https://doi.org/10.1007/s11548-020-02180-5">

	<rect width="100%" height="100%" fill="black" />
	<path d = "M 150.00 114.84 L 274.22 0.00 L 342.19 98.44 L 386.72 147.66 L 454.69 150.00 L 501.56 142.97 L 578.91 96.09 L 597.66 255.47 L 555.47 241.41 L 510.94 215.62 L 346.88 278.91 L 285.94 290.62 L 185.16 292.97 L 112.50 283.59 L 51.56 260.16 L 16.41 227.34 L 0.00 187.50 L 0.00 168.75 L 9.38 154.69 L 65.62 133.59 L 171.09 112.50" stroke="white" fill="transparent"/>
	<path d = "M 9.38 220.31 L 110.16 215.62 L 199.22 199.22" stroke="white" fill="transparent"/>
	<path d = "M 25.78 225.00 L 49.22 225.00 L 72.66 246.09 L 89.06 217.97 L 107.81 241.41" stroke="white" fill="transparent"/>
</svg>