<?xml version="1.0" encoding="UTF-8" standalone="no"?>
<!--Created with ndjsontosvg (https:https://github.com/thompson318/ndjsontosvg) 
	from the simplified Google quickdraw data set. key_id = 5355886887305216-->
<svg width="600" height="600"
	xmlns="http://www.w3.org/2000/svg">
	xmlns:ndjsontosvg="https://github.com/thompson318/ndjsontosvg"
	xmlns:quickdraw="https://quickdraw.withgoogle.com/data"
	xmlns:scikit-surgery="https://doi.org/10.1007/s11548-020-02180-5">

	<rect width="100%" height="100%" fill="black" />
	<path d = "M 229.69 82.03 L 257.81 42.19 L 271.88 0.00 L 274.22 70.31 L 262.50 98.44" stroke="white" fill="transparent"/>
	<path d = "M 91.41 105.47 L 147.66 65.62 L 178.12 96.09 L 199.22 98.44 L 208.59 93.75 L 220.31 67.97 L 260.16 103.12 L 283.59 110.16 L 297.66 100.78 L 316.41 121.88 L 349.22 121.88 L 428.91 96.09 L 457.03 77.34 L 473.44 100.78 L 499.22 100.78 L 597.66 53.91" stroke="white" fill="transparent"/>
	<path d = "M 262.50 89.06 L 257.81 119.53 L 278.91 150.00 L 424.22 147.66 L 508.59 164.06 L 466.41 196.88 L 417.19 210.94 L 454.69 210.94 L 487.50 222.66 L 503.91 241.41 L 442.97 250.78 L 346.88 234.38 L 262.50 246.09 L 150.00 248.44 L 75.00 232.03 L 49.22 215.62 L 28.12 210.94 L 2.34 260.16 L 2.34 126.56 L 11.72 89.06 L 35.16 44.53 L 42.19 53.91 L 67.97 175.78 L 112.50 159.38 L 182.81 157.03 L 210.94 147.66 L 217.97 133.59 L 196.88 124.22 L 220.31 77.34" stroke="white" fill="transparent"/>
</svg>