<?xml version="1.0" encoding="UTF-8" standalone="no"?>
<!--Created with ndjsontosvg (https:https://github.com/thompson318/ndjsontosvg) 
	from the simplified Google quickdraw data set. key_id = 5690453749923840-->
<svg width="600" height="600"
	xmlns="http://www.w3.org/2000/svg">
	xmlns:ndjsontosvg="https://github.com/thompson318/ndjsontosvg"
	xmlns:quickdraw="https://quickdraw.withgoogle.com/data"
	xmlns:scikit-surgery="https://doi.org/10.1007/s11548-020-02180-5">

	<rect width="100%" height="100%" fill="black" />
	<path d = "M 11.72 86.72 L 7.03 222.66 L 21.09 288.28 L 42.19 267.19 L 152.34 199.22 L 157.03 192.19 L 152.34 180.47" stroke="white" fill="transparent"/>
	<path d = "M 2.34 82.03 L 0.00 89.06 L 28.12 103.12 L 135.94 145.31 L 232.03 103.12 L 325.78 96.09 L 379.69 105.47 L 447.66 124.22 L 534.38 164.06 L 595.31 201.56 L 595.31 208.59 L 578.91 208.59" stroke="white" fill="transparent"/>
	<path d = "M 159.38 189.84 L 173.44 206.25 L 220.31 236.72 L 276.56 257.81 L 375.00 276.56 L 433.59 278.91 L 576.56 217.97 L 597.66 192.19 L 576.56 185.16" stroke="white" fill="transparent"/>
	<path d = "M 421.88 175.78 L 428.91 182.81 L 412.50 178.12 L 421.88 178.12" stroke="white" fill="transparent"/>
	<path d = "M 489.84 255.47 L 492.19 285.94 L 499.22 283.59 L 522.66 234.38 L 525.00 260.16 L 543.75 227.34 L 543.75 257.81 L 562.50 232.03 L 564.84 213.28" stroke="white" fill="transparent"/>
	<path d = "M 314.06 89.06 L 278.91 86.72 L 276.56 77.34 L 304.69 37.50 L 344.53 0.00 L 370.31 32.81 L 353.91 42.19 L 379.69 53.91 L 382.03 114.84" stroke="white" fill="transparent"/>
</svg>