<?xml version="1.0" encoding="UTF-8" standalone="no"?>
<!--Created with ndjsontosvg (https:https://github.com/thompson318/ndjsontosvg) 
	from the simplified Google quickdraw data set. key_id = 4685019236794368-->
<svg width="600" height="600"
	xmlns="http://www.w3.org/2000/svg">
	xmlns:ndjsontosvg="https://github.com/thompson318/ndjsontosvg"
	xmlns:quickdraw="https://quickdraw.withgoogle.com/data"
	xmlns:scikit-surgery="https://doi.org/10.1007/s11548-020-02180-5">

	<rect width="100%" height="100%" fill="black" />
	<path d = "M 468.75 138.28 L 546.09 103.12 L 550.78 93.75 L 517.97 79.69 L 405.47 75.00 L 337.50 4.69 L 332.81 16.41 L 335.16 72.66 L 328.12 79.69 L 210.94 82.03 L 142.97 100.78 L 75.00 128.91 L 60.94 0.00 L 37.50 82.03 L 32.81 145.31 L 0.00 269.53 L 21.09 271.88 L 110.16 250.78 L 152.34 220.31 L 337.50 246.09 L 597.66 239.06 L 553.12 196.88 L 496.88 175.78 L 452.34 142.97" stroke="white" fill="transparent"/>
	<path d = "M 295.31 157.03 L 309.38 192.19 L 318.75 194.53 L 335.16 180.47 L 351.56 147.66" stroke="white" fill="transparent"/>
</svg>