<?xml version="1.0" encoding="UTF-8" standalone="no"?>
<!--Created with ndjsontosvg (https:https://github.com/thompson318/ndjsontosvg) 
	from the simplified Google quickdraw data set. key_id = 5256109684162560-->
<svg width="600" height="600"
	xmlns="http://www.w3.org/2000/svg">
	xmlns:ndjsontosvg="https://github.com/thompson318/ndjsontosvg"
	xmlns:quickdraw="https://quickdraw.withgoogle.com/data"
	xmlns:scikit-surgery="https://doi.org/10.1007/s11548-020-02180-5">

	<rect width="100%" height="100%" fill="black" />
	<path d = "M 49.22 229.69 L 39.84 217.97 L 42.19 178.12 L 67.97 145.31 L 105.47 121.88 L 131.25 121.88 L 138.28 161.72 L 147.66 173.44 L 168.75 171.09 L 234.38 107.81 L 236.72 145.31 L 318.75 126.56 L 328.12 126.56 L 328.12 138.28 L 337.50 140.62 L 403.12 140.62 L 403.12 187.50 L 412.50 199.22 L 442.97 210.94 L 391.41 281.25 L 375.00 325.78 L 339.84 344.53 L 285.94 358.59 L 269.53 346.88 L 222.66 353.91 L 154.69 396.09 L 98.44 417.19 L 93.75 353.91 L 16.41 344.53 L 14.06 168.75" stroke="white" fill="transparent"/>
	<path d = "M 363.28 173.44 L 365.62 161.72 L 473.44 35.16 L 520.31 4.69 L 581.25 0.00 L 597.66 21.09 L 592.97 82.03 L 567.19 131.25 L 515.62 196.88 L 482.81 208.59 L 414.84 210.94 L 386.72 187.50 L 384.38 164.06 L 386.72 135.94 L 424.22 82.03" stroke="white" fill="transparent"/>
	<path d = "M 75.00 372.66 L 44.53 414.84 L 25.78 466.41 L 28.12 517.97 L 53.91 525.00 L 103.12 525.00 L 138.28 496.88 L 173.44 431.25 L 182.81 382.03" stroke="white" fill="transparent"/>
	<path d = "M 0.00 473.44 L 154.69 464.06" stroke="white" fill="transparent"/>
	<path d = "M 225.00 375.00 L 222.66 433.59 L 241.41 480.47 L 314.06 480.47" stroke="white" fill="transparent"/>
</svg>