<?xml version="1.0" encoding="UTF-8" standalone="no"?>
<!--Created with ndjsontosvg (https:https://github.com/thompson318/ndjsontosvg) 
	from the simplified Google quickdraw data set. key_id = 5002031091679232-->
<svg width="600" height="600"
	xmlns="http://www.w3.org/2000/svg">
	xmlns:ndjsontosvg="https://github.com/thompson318/ndjsontosvg"
	xmlns:quickdraw="https://quickdraw.withgoogle.com/data"
	xmlns:scikit-surgery="https://doi.org/10.1007/s11548-020-02180-5">

	<rect width="100%" height="100%" fill="black" />
	<path d = "M 213.28 114.84 L 213.28 114.84" stroke="white" fill="transparent"/>
	<path d = "M 215.62 86.72 L 180.47 84.38 L 135.94 96.09 L 82.03 138.28 L 67.97 168.75 L 67.97 206.25 L 84.38 215.62 L 103.12 208.59 L 117.19 194.53 L 124.22 168.75 L 117.19 147.66 L 93.75 140.62 L 53.91 161.72 L 32.81 182.81 L 7.03 225.00 L 4.69 253.12 L 23.44 264.84 L 37.50 257.81 L 14.06 311.72 L 9.38 349.22 L 23.44 358.59 L 39.84 360.94 L 96.09 339.84 L 84.38 403.12 L 91.41 421.88 L 117.19 433.59 L 159.38 407.81 L 173.44 389.06 L 173.44 398.44 L 194.53 426.56 L 220.31 421.88 L 264.84 396.09 L 285.94 372.66 L 316.41 323.44 L 316.41 302.34 L 300.00 309.38 L 300.00 337.50 L 321.09 344.53 L 342.19 337.50 L 389.06 304.69 L 410.16 281.25 L 417.19 255.47 L 412.50 246.09 L 398.44 264.84 L 400.78 276.56 L 440.62 267.19 L 461.72 232.03 L 480.47 154.69 L 475.78 138.28 L 457.03 121.88 L 393.75 121.88 L 328.12 140.62 L 321.09 126.56 L 330.47 77.34 L 325.78 53.91 L 297.66 42.19 L 260.16 53.91 L 220.31 79.69 L 206.25 98.44 L 234.38 98.44 L 243.75 91.41" stroke="white" fill="transparent"/>
	<path d = "M 403.12 117.19 L 426.56 44.53 L 440.62 28.12 L 459.38 16.41 L 489.84 11.72 L 534.38 21.09 L 557.81 51.56 L 569.53 86.72 L 564.84 100.78 L 539.06 121.88 L 485.16 142.97 L 435.94 145.31 L 426.56 142.97 L 419.53 128.91" stroke="white" fill="transparent"/>
	<path d = "M 532.03 35.16 L 597.66 0.00" stroke="white" fill="transparent"/>
	<path d = "M 89.06 391.41 L 60.94 459.38 L 0.00 550.78" stroke="white" fill="transparent"/>
	<path d = "M 128.91 435.94 L 112.50 496.88 L 112.50 571.88" stroke="white" fill="transparent"/>
	<path d = "M 311.72 375.00 L 328.12 433.59" stroke="white" fill="transparent"/>
</svg>