<?xml version="1.0" encoding="UTF-8" standalone="no"?>
<!--Created with ndjsontosvg (https:https://github.com/thompson318/ndjsontosvg) 
	from the simplified Google quickdraw data set. key_id = 5163056881467392-->
<svg width="600" height="600"
	xmlns="http://www.w3.org/2000/svg">
	xmlns:ndjsontosvg="https://github.com/thompson318/ndjsontosvg"
	xmlns:quickdraw="https://quickdraw.withgoogle.com/data"
	xmlns:scikit-surgery="https://doi.org/10.1007/s11548-020-02180-5">

	<rect width="100%" height="100%" fill="black" />
	<path d = "M 234.38 56.25 L 276.56 11.72 L 300.00 0.00 L 323.44 4.69 L 344.53 42.19 L 372.66 7.03 L 410.16 2.34 L 426.56 21.09 L 435.94 46.88 L 461.72 16.41 L 506.25 9.38 L 527.34 25.78 L 539.06 58.59 L 539.06 79.69 L 513.28 98.44 L 525.00 89.06 L 564.84 86.72 L 590.62 100.78 L 597.66 126.56 L 592.97 166.41 L 576.56 187.50 L 532.03 192.19 L 506.25 180.47 L 503.91 171.09 L 529.69 175.78 L 541.41 194.53 L 536.72 215.62 L 508.59 236.72 L 475.78 246.09 L 445.31 239.06 L 424.22 217.97 L 412.50 178.12 L 414.84 210.94 L 407.81 241.41 L 372.66 274.22 L 346.88 278.91 L 330.47 262.50 L 323.44 201.56 L 318.75 229.69 L 302.34 253.12 L 281.25 264.84 L 243.75 267.19 L 225.00 250.78 L 220.31 210.94 L 232.03 175.78 L 243.75 166.41 L 250.78 168.75 L 246.09 185.16 L 225.00 201.56 L 175.78 206.25 L 161.72 175.78 L 161.72 133.59 L 182.81 112.50 L 206.25 112.50 L 210.94 121.88 L 182.81 124.22 L 161.72 112.50 L 152.34 89.06 L 171.09 63.28 L 208.59 42.19 L 236.72 46.88 L 271.88 63.28" stroke="white" fill="transparent"/>
	<path d = "M 295.31 234.38 L 292.97 330.47 L 330.47 330.47 L 330.47 269.53" stroke="white" fill="transparent"/>
	<path d = "M 464.06 236.72 L 468.75 271.88 L 464.06 328.12 L 513.28 316.41 L 513.28 232.03" stroke="white" fill="transparent"/>
	<path d = "M 152.34 84.38 L 133.59 37.50 L 119.53 18.75 L 91.41 4.69 L 53.91 2.34 L 21.09 63.28 L 0.00 126.56 L 7.03 206.25 L 42.19 239.06 L 105.47 239.06 L 131.25 227.34 L 157.03 199.22 L 171.09 175.78 L 175.78 145.31" stroke="white" fill="transparent"/>
</svg>