<?xml version="1.0" encoding="UTF-8" standalone="no"?>
<!--Created with ndjsontosvg (https:https://github.com/thompson318/ndjsontosvg) 
	from the simplified Google quickdraw data set. key_id = 5983137987297280-->
<svg width="600" height="600"
	xmlns="http://www.w3.org/2000/svg">
	xmlns:ndjsontosvg="https://github.com/thompson318/ndjsontosvg"
	xmlns:quickdraw="https://quickdraw.withgoogle.com/data"
	xmlns:scikit-surgery="https://doi.org/10.1007/s11548-020-02180-5">

	<rect width="100%" height="100%" fill="black" />
	<path d = "M 67.97 30.47 L 58.59 23.44 L 49.22 42.19 L 53.91 89.06 L 72.66 107.81 L 128.91 121.88 L 147.66 119.53 L 154.69 39.84 L 133.59 4.69 L 107.81 0.00 L 65.62 42.19 L 39.84 89.06 L 42.19 142.97 L 72.66 189.84 L 112.50 236.72 L 140.62 239.06 L 157.03 222.66 L 182.81 178.12 L 192.19 128.91 L 189.84 100.78 L 171.09 75.00 L 128.91 72.66 L 63.28 124.22 L 53.91 154.69 L 58.59 201.56 L 124.22 269.53 L 201.56 309.38 L 239.06 309.38 L 262.50 276.56 L 295.31 192.19 L 307.03 135.94 L 307.03 91.41 L 285.94 63.28 L 236.72 60.94 L 180.47 96.09 L 147.66 140.62 L 142.97 208.59 L 178.12 260.16 L 208.59 281.25 L 243.75 285.94 L 262.50 283.59 L 274.22 264.84 L 302.34 203.91 L 309.38 124.22 L 300.00 96.09 L 250.78 89.06 L 222.66 100.78 L 203.91 131.25 L 201.56 178.12 L 215.62 222.66 L 234.38 250.78 L 271.88 295.31 L 304.69 314.06 L 330.47 311.72 L 346.88 300.00 L 435.94 229.69 L 468.75 213.28 L 510.94 173.44 L 515.62 154.69 L 506.25 140.62 L 482.81 131.25 L 442.97 128.91" stroke="white" fill="transparent"/>
	<path d = "M 442.97 128.91 L 365.62 157.03 L 321.09 187.50 L 290.62 220.31 L 283.59 262.50" stroke="white" fill="transparent"/>
	<path d = "M 382.03 133.59 L 351.56 119.53 L 309.38 114.84 L 276.56 157.03 L 276.56 201.56 L 290.62 220.31 L 346.88 246.09 L 412.50 264.84 L 431.25 262.50 L 452.34 208.59 L 454.69 145.31 L 445.31 119.53 L 419.53 100.78 L 349.22 107.81 L 278.91 140.62 L 243.75 171.09 L 234.38 227.34 L 262.50 271.88 L 321.09 316.41 L 365.62 330.47 L 384.38 328.12 L 421.88 295.31 L 442.97 250.78 L 447.66 180.47 L 419.53 145.31 L 375.00 124.22 L 311.72 114.84 L 11.72 117.19 L 0.00 124.22 L 0.00 152.34 L 30.47 229.69 L 53.91 253.12 L 105.47 250.78 L 180.47 215.62 L 215.62 187.50 L 220.31 126.56 L 213.28 110.16 L 185.16 100.78 L 147.66 105.47 L 91.41 135.94 L 82.03 159.38 L 84.38 194.53 L 142.97 234.38 L 171.09 234.38 L 215.62 196.88" stroke="white" fill="transparent"/>
	<path d = "M 454.69 225.00 L 543.75 208.59 L 581.25 217.97 L 595.31 234.38 L 595.31 271.88 L 581.25 290.62 L 553.12 295.31 L 464.06 288.28 L 440.62 283.59 L 431.25 271.88 L 417.19 203.91" stroke="white" fill="transparent"/>
	<path d = "M 70.31 370.31 L 117.19 300.00 L 133.59 257.81 L 152.34 311.72 L 154.69 353.91" stroke="white" fill="transparent"/>
	<path d = "M 234.38 353.91 L 267.19 321.09 L 290.62 276.56 L 311.72 264.84 L 323.44 290.62 L 335.16 377.34 L 363.28 433.59 L 342.19 407.81" stroke="white" fill="transparent"/>
	<path d = "M 548.44 227.34 L 548.44 227.34" stroke="white" fill="transparent"/>
	<path d = "M 597.66 267.19 L 578.91 250.78" stroke="white" fill="transparent"/>
	<path d = "M 562.50 246.09 L 546.09 213.28" stroke="white" fill="transparent"/>
</svg>