<?xml version="1.0" encoding="UTF-8" standalone="no"?>
<!--Created with ndjsontosvg (https:https://github.com/thompson318/ndjsontosvg) 
	from the simplified Google quickdraw data set. key_id = 4816442404896768-->
<svg width="600" height="600"
	xmlns="http://www.w3.org/2000/svg">
	xmlns:ndjsontosvg="https://github.com/thompson318/ndjsontosvg"
	xmlns:quickdraw="https://quickdraw.withgoogle.com/data"
	xmlns:scikit-surgery="https://doi.org/10.1007/s11548-020-02180-5">

	<rect width="100%" height="100%" fill="black" />
	<path d = "M 189.84 0.00 L 201.56 152.34 L 255.47 269.53 L 276.56 292.97 L 290.62 295.31 L 412.50 271.88 L 447.66 290.62 L 513.28 358.59 L 546.09 403.12 L 550.78 435.94 L 543.75 489.84 L 532.03 517.97 L 510.94 532.03 L 478.12 536.72 L 358.59 543.75 L 225.00 567.19 L 63.28 571.88" stroke="white" fill="transparent"/>
	<path d = "M 2.34 192.19 L 18.75 391.41 L 63.28 548.44 L 63.28 597.66" stroke="white" fill="transparent"/>
	<path d = "M 128.91 171.09 L 164.06 297.66 L 192.19 365.62 L 243.75 363.28 L 386.72 325.78" stroke="white" fill="transparent"/>
	<path d = "M 182.81 290.62 L 189.84 253.12 L 220.31 215.62" stroke="white" fill="transparent"/>
	<path d = "M 206.25 353.91 L 236.72 318.75 L 255.47 274.22 L 271.88 264.84 L 292.97 276.56" stroke="white" fill="transparent"/>
	<path d = "M 302.34 344.53 L 311.72 328.12 L 358.59 302.34" stroke="white" fill="transparent"/>
</svg>