<?xml version="1.0" encoding="UTF-8" standalone="no"?>
<!--Created with ndjsontosvg (https:https://github.com/thompson318/ndjsontosvg) 
	from the simplified Google quickdraw data set. key_id = 6077795916578816-->
<svg width="600" height="600"
	xmlns="http://www.w3.org/2000/svg">
	xmlns:ndjsontosvg="https://github.com/thompson318/ndjsontosvg"
	xmlns:quickdraw="https://quickdraw.withgoogle.com/data"
	xmlns:scikit-surgery="https://doi.org/10.1007/s11548-020-02180-5">

	<rect width="100%" height="100%" fill="black" />
	<path d = "M 442.97 2.34 L 428.91 140.62 L 417.19 182.81 L 405.47 196.88 L 367.97 203.91 L 292.97 192.19 L 159.38 192.19 L 91.41 222.66 L 25.78 288.28 L 7.03 328.12 L 0.00 365.62 L 0.00 393.75 L 16.41 424.22 L 75.00 459.38 L 150.00 466.41 L 330.47 440.62 L 487.50 431.25 L 536.72 414.84 L 560.16 396.09 L 585.94 351.56 L 595.31 288.28 L 597.66 103.12 L 588.28 0.00" stroke="white" fill="transparent"/>
	<path d = "M 232.03 182.81 L 229.69 206.25 L 248.44 246.09 L 257.81 243.75 L 269.53 157.03 L 267.19 222.66 L 290.62 178.12 L 311.72 241.41 L 325.78 243.75 L 335.16 208.59 L 332.81 168.75 L 344.53 253.12 L 353.91 253.12 L 360.94 232.03 L 365.62 171.09 L 370.31 203.91 L 382.03 210.94" stroke="white" fill="transparent"/>
</svg>