<?xml version="1.0" encoding="UTF-8" standalone="no"?>
<!--Created with ndjsontosvg (https:https://github.com/thompson318/ndjsontosvg) 
	from the simplified Google quickdraw data set. key_id = 5058211025518592-->
<svg width="600" height="600"
	xmlns="http://www.w3.org/2000/svg">
	xmlns:ndjsontosvg="https://github.com/thompson318/ndjsontosvg"
	xmlns:quickdraw="https://quickdraw.withgoogle.com/data"
	xmlns:scikit-surgery="https://doi.org/10.1007/s11548-020-02180-5">

	<rect width="100%" height="100%" fill="black" />
	<path d = "M 58.59 14.06 L 60.94 51.56 L 18.75 98.44 L 0.00 147.66 L 0.00 206.25 L 44.53 253.12 L 89.06 267.19 L 199.22 267.19 L 264.84 250.78 L 346.88 248.44 L 529.69 260.16 L 583.59 222.66 L 597.66 196.88 L 597.66 164.06 L 569.53 133.59 L 513.28 96.09 L 485.16 84.38 L 253.12 82.03 L 239.06 77.34 L 234.38 65.62 L 232.03 2.34 L 121.88 0.00 L 72.66 9.38" stroke="white" fill="transparent"/>
	<path d = "M 25.78 236.72 L 7.03 264.84 L 11.72 290.62 L 51.56 307.03 L 121.88 321.09 L 225.00 321.09 L 304.69 302.34 L 496.88 302.34" stroke="white" fill="transparent"/>
</svg>