<?xml version="1.0" encoding="UTF-8" standalone="no"?>
<!--Created with ndjsontosvg (https:https://github.com/thompson318/ndjsontosvg) 
	from the simplified Google quickdraw data set. key_id = 6387875304177664-->
<svg width="600" height="600"
	xmlns="http://www.w3.org/2000/svg">
	xmlns:ndjsontosvg="https://github.com/thompson318/ndjsontosvg"
	xmlns:quickdraw="https://quickdraw.withgoogle.com/data"
	xmlns:scikit-surgery="https://doi.org/10.1007/s11548-020-02180-5">

	<rect width="100%" height="100%" fill="black" />
	<path d = "M 339.84 110.16 L 332.81 117.19 L 292.97 117.19 L 215.62 105.47 L 96.09 105.47 L 51.56 114.84 L 16.41 152.34 L 0.00 210.94 L 2.34 241.41 L 18.75 267.19 L 44.53 288.28 L 100.78 309.38 L 173.44 309.38 L 271.88 264.84 L 325.78 262.50 L 389.06 285.94 L 403.12 323.44 L 421.88 339.84 L 571.88 344.53 L 583.59 332.81 L 592.97 257.81" stroke="white" fill="transparent"/>
	<path d = "M 339.84 105.47 L 351.56 112.50 L 433.59 114.84 L 541.41 93.75 L 578.91 96.09 L 592.97 128.91 L 597.66 178.12 L 597.66 267.19 L 590.62 278.91" stroke="white" fill="transparent"/>
	<path d = "M 276.56 124.22 L 199.22 56.25 L 196.88 23.44 L 213.28 7.03 L 262.50 0.00 L 297.66 25.78 L 307.03 49.22 L 309.38 89.06 L 288.28 119.53" stroke="white" fill="transparent"/>
	<path d = "M 246.09 105.47 L 239.06 86.72 L 175.78 72.66 L 154.69 82.03 L 124.22 112.50 L 117.19 131.25 L 124.22 154.69 L 150.00 168.75 L 187.50 175.78 L 213.28 173.44 L 241.41 159.38 L 276.56 128.91 L 285.94 107.81" stroke="white" fill="transparent"/>
</svg>