<?xml version="1.0" encoding="UTF-8" standalone="no"?>
<!--Created with ndjsontosvg (https:https://github.com/thompson318/ndjsontosvg) 
	from the simplified Google quickdraw data set. key_id = 5710666084122624-->
<svg width="600" height="600"
	xmlns="http://www.w3.org/2000/svg">
	xmlns:ndjsontosvg="https://github.com/thompson318/ndjsontosvg"
	xmlns:quickdraw="https://quickdraw.withgoogle.com/data"
	xmlns:scikit-surgery="https://doi.org/10.1007/s11548-020-02180-5">

	<rect width="100%" height="100%" fill="black" />
	<path d = "M 117.19 49.22 L 117.19 217.97 L 93.75 351.56 L 138.28 349.22 L 288.28 307.03 L 384.38 297.66 L 375.00 119.53" stroke="white" fill="transparent"/>
	<path d = "M 375.00 119.53 L 450.00 274.22 L 468.75 290.62 L 503.91 281.25 L 585.94 278.91 L 597.66 269.53 L 578.91 178.12 L 541.41 58.59 L 525.00 21.09 L 501.56 0.00 L 307.03 28.12 L 32.81 112.50 L 2.34 117.19" stroke="white" fill="transparent"/>
	<path d = "M 112.50 119.53 L 189.84 110.16 L 285.94 110.16 L 356.25 93.75 L 461.72 51.56 L 529.69 49.22" stroke="white" fill="transparent"/>
	<path d = "M 529.69 49.22 L 529.69 49.22" stroke="white" fill="transparent"/>
</svg>