<?xml version="1.0" encoding="UTF-8" standalone="no"?>
<!--Created with ndjsontosvg (https:https://github.com/thompson318/ndjsontosvg) 
	from the simplified Google quickdraw data set. key_id = 5512898732359680-->
<svg width="600" height="600"
	xmlns="http://www.w3.org/2000/svg">
	xmlns:ndjsontosvg="https://github.com/thompson318/ndjsontosvg"
	xmlns:quickdraw="https://quickdraw.withgoogle.com/data"
	xmlns:scikit-surgery="https://doi.org/10.1007/s11548-020-02180-5">

	<rect width="100%" height="100%" fill="black" />
	<path d = "M 60.94 72.66 L 86.72 89.06 L 168.75 110.16 L 316.41 124.22 L 377.34 121.88 L 485.16 100.78 L 597.66 58.59" stroke="white" fill="transparent"/>
	<path d = "M 60.94 56.25 L 49.22 185.16 L 0.00 393.75 L 2.34 417.19 L 49.22 433.59 L 178.12 452.34 L 257.81 450.00 L 295.31 438.28 L 302.34 403.12 L 295.31 227.34 L 307.03 135.94 L 295.31 281.25 L 297.66 403.12 L 304.69 421.88 L 323.44 435.94 L 342.19 442.97 L 379.69 442.97 L 534.38 396.09 L 564.84 379.69 L 576.56 363.28 L 581.25 335.16 L 553.12 124.22 L 562.50 0.00" stroke="white" fill="transparent"/>
</svg>