<?xml version="1.0" encoding="UTF-8" standalone="no"?>
<!--Created with ndjsontosvg (https:https://github.com/thompson318/ndjsontosvg) 
	from the simplified Google quickdraw data set. key_id = 6340624963862528-->
<svg width="600" height="600"
	xmlns="http://www.w3.org/2000/svg">
	xmlns:ndjsontosvg="https://github.com/thompson318/ndjsontosvg"
	xmlns:quickdraw="https://quickdraw.withgoogle.com/data"
	xmlns:scikit-surgery="https://doi.org/10.1007/s11548-020-02180-5">

	<rect width="100%" height="100%" fill="black" />
	<path d = "M 84.38 25.78 L 107.81 28.12 L 100.78 67.97 L 100.78 403.12 L 142.97 412.50 L 157.03 520.31 L 142.97 541.41 L 112.50 560.16 L 46.88 564.84 L 32.81 555.47 L 21.09 515.62" stroke="white" fill="transparent"/>
	<path d = "M 18.75 510.94 L 11.72 454.69" stroke="white" fill="transparent"/>
	<path d = "M 16.41 435.94 L 16.41 435.94" stroke="white" fill="transparent"/>
	<path d = "M 7.03 454.69 L 11.72 424.22 L 44.53 414.84 L 51.56 396.09 L 56.25 351.56 L 53.91 201.56 L 84.38 0.00" stroke="white" fill="transparent"/>
	<path d = "M 84.38 4.69 L 96.09 16.41 L 93.75 39.84" stroke="white" fill="transparent"/>
	<path d = "M 21.09 405.47 L 56.25 412.50 L 103.12 400.78 L 14.06 403.12 L 7.03 405.47 L 0.00 433.59 L 0.00 534.38 L 25.78 588.28 L 60.94 597.66 L 98.44 585.94 L 124.22 571.88 L 147.66 539.06 L 159.38 405.47 L 142.97 386.72 L 77.34 379.69" stroke="white" fill="transparent"/>
</svg>