<?xml version="1.0" encoding="UTF-8" standalone="no"?>
<!--Created with ndjsontosvg (https:https://github.com/thompson318/ndjsontosvg) 
	from the simplified Google quickdraw data set. key_id = 5700032751730688-->
<svg width="600" height="600"
	xmlns="http://www.w3.org/2000/svg">
	xmlns:ndjsontosvg="https://github.com/thompson318/ndjsontosvg"
	xmlns:quickdraw="https://quickdraw.withgoogle.com/data"
	xmlns:scikit-surgery="https://doi.org/10.1007/s11548-020-02180-5">

	<rect width="100%" height="100%" fill="black" />
	<path d = "M 410.16 0.00 L 410.16 14.06 L 375.00 44.53 L 330.47 135.94 L 292.97 175.78 L 274.22 217.97 L 257.81 229.69 L 217.97 290.62 L 189.84 311.72 L 152.34 370.31" stroke="white" fill="transparent"/>
	<path d = "M 142.97 367.97 L 128.91 365.62 L 100.78 335.16 L 30.47 318.75 L 2.34 304.69 L 0.00 363.28 L 14.06 421.88 L 16.41 508.59 L 30.47 555.47 L 53.91 597.66 L 98.44 581.25 L 180.47 510.94 L 225.00 494.53 L 246.09 464.06 L 206.25 447.66 L 185.16 419.53 L 243.75 346.88 L 264.84 302.34 L 295.31 278.91 L 342.19 217.97 L 393.75 187.50 L 440.62 114.84 L 447.66 93.75 L 478.12 65.62" stroke="white" fill="transparent"/>
</svg>