<?xml version="1.0" encoding="UTF-8" standalone="no"?>
<!--Created with ndjsontosvg (https:https://github.com/thompson318/ndjsontosvg) 
	from the simplified Google quickdraw data set. key_id = 6326172394717184-->
<svg width="600" height="600"
	xmlns="http://www.w3.org/2000/svg">
	xmlns:ndjsontosvg="https://github.com/thompson318/ndjsontosvg"
	xmlns:quickdraw="https://quickdraw.withgoogle.com/data"
	xmlns:scikit-surgery="https://doi.org/10.1007/s11548-020-02180-5">

	<rect width="100%" height="100%" fill="black" />
	<path d = "M 372.66 126.56 L 328.12 154.69 L 234.38 241.41 L 140.62 302.34 L 16.41 410.16 L 0.00 457.03 L 0.00 482.81 L 11.72 492.19 L 128.91 513.28 L 161.72 503.91 L 227.34 442.97 L 232.03 337.50 L 225.00 316.41 L 213.28 307.03 L 135.94 283.59" stroke="white" fill="transparent"/>
	<path d = "M 154.69 323.44 L 133.59 335.16 L 110.16 363.28 L 65.62 426.56 L 67.97 442.97 L 126.56 454.69 L 154.69 447.66 L 187.50 417.19" stroke="white" fill="transparent"/>
	<path d = "M 166.41 314.06 L 332.81 171.09 L 499.22 63.28 L 553.12 9.38 L 571.88 0.00 L 597.66 0.00 L 372.66 201.56 L 243.75 335.16" stroke="white" fill="transparent"/>
</svg>