<?xml version="1.0" encoding="UTF-8" standalone="no"?>
<!--Created with ndjsontosvg (https:https://github.com/thompson318/ndjsontosvg) 
	from the simplified Google quickdraw data set. key_id = 6625083936210944-->
<svg width="600" height="600"
	xmlns="http://www.w3.org/2000/svg">
	xmlns:ndjsontosvg="https://github.com/thompson318/ndjsontosvg"
	xmlns:quickdraw="https://quickdraw.withgoogle.com/data"
	xmlns:scikit-surgery="https://doi.org/10.1007/s11548-020-02180-5">

	<rect width="100%" height="100%" fill="black" />
	<path d = "M 192.19 213.28 L 187.50 49.22 L 196.88 35.16 L 236.72 7.03 L 297.66 0.00 L 318.75 30.47 L 321.09 89.06" stroke="white" fill="transparent"/>
	<path d = "M 4.69 332.81 L 35.16 332.81 L 142.97 314.06 L 325.78 292.97 L 501.56 283.59" stroke="white" fill="transparent"/>
	<path d = "M 0.00 346.88 L 166.41 557.81" stroke="white" fill="transparent"/>
	<path d = "M 180.47 560.16 L 220.31 557.81 L 309.38 532.03 L 555.47 501.56 L 592.97 489.84" stroke="white" fill="transparent"/>
	<path d = "M 492.19 269.53 L 564.84 344.53 L 597.66 393.75" stroke="white" fill="transparent"/>
	<path d = "M 180.47 187.50 L 196.88 267.19 L 232.03 269.53 L 239.06 257.81 L 229.69 67.97 L 257.81 44.53 L 288.28 42.19 L 295.31 53.91 L 290.62 110.16 L 307.03 107.81 L 335.16 98.44 L 328.12 51.56" stroke="white" fill="transparent"/>
	<path d = "M 377.34 255.47 L 370.31 196.88 L 410.16 187.50 L 419.53 182.81 L 424.22 161.72 L 398.44 159.38 L 367.97 166.41 L 356.25 178.12 L 356.25 192.19 L 365.62 196.88" stroke="white" fill="transparent"/>
	<path d = "M 103.12 292.97 L 107.81 220.31 L 35.16 225.00 L 32.81 215.62 L 75.00 199.22 L 119.53 199.22" stroke="white" fill="transparent"/>
	<path d = "M 119.53 398.44 L 159.38 473.44" stroke="white" fill="transparent"/>
	<path d = "M 119.53 405.47 L 185.16 403.12 L 271.88 386.72 L 454.69 370.31 L 473.44 379.69 L 485.16 426.56 L 475.78 431.25 L 407.81 450.00 L 271.88 464.06 L 175.78 485.16" stroke="white" fill="transparent"/>
	<path d = "M 461.72 353.91 L 475.78 321.09 L 492.19 302.34" stroke="white" fill="transparent"/>
	<path d = "M 459.38 438.28 L 536.72 450.00" stroke="white" fill="transparent"/>
</svg>