<?xml version="1.0" encoding="UTF-8" standalone="no"?>
<!--Created with ndjsontosvg (https:https://github.com/thompson318/ndjsontosvg) 
	from the simplified Google quickdraw data set. key_id = 4539393895301120-->
<svg width="600" height="600"
	xmlns="http://www.w3.org/2000/svg">
	xmlns:ndjsontosvg="https://github.com/thompson318/ndjsontosvg"
	xmlns:quickdraw="https://quickdraw.withgoogle.com/data"
	xmlns:scikit-surgery="https://doi.org/10.1007/s11548-020-02180-5">

	<rect width="100%" height="100%" fill="black" />
	<path d = "M 379.69 159.38 L 278.91 210.94 L 2.34 311.72 L 0.00 325.78 L 16.41 370.31 L 46.88 438.28 L 107.81 536.72 L 189.84 510.94 L 527.34 356.25 L 592.97 295.31 L 595.31 288.28 L 532.03 239.06 L 384.38 168.75 L 365.62 147.66" stroke="white" fill="transparent"/>
	<path d = "M 173.44 236.72 L 166.41 42.19 L 199.22 2.34 L 236.72 0.00 L 276.56 16.41 L 307.03 63.28 L 318.75 135.94 L 290.62 135.94 L 283.59 75.00 L 253.12 42.19 L 239.06 39.84 L 213.28 53.91 L 196.88 75.00 L 189.84 114.84 L 189.84 225.00" stroke="white" fill="transparent"/>
	<path d = "M 166.41 206.25 L 150.00 182.81 L 140.62 180.47 L 105.47 208.59 L 107.81 229.69 L 124.22 253.12 L 154.69 248.44 L 154.69 232.03" stroke="white" fill="transparent"/>
	<path d = "M 220.31 171.09 L 210.94 175.78 L 203.91 194.53 L 210.94 225.00 L 227.34 220.31 L 248.44 203.91 L 250.78 187.50 L 232.03 180.47" stroke="white" fill="transparent"/>
	<path d = "M 367.97 159.38 L 384.38 232.03 L 379.69 243.75 L 239.06 290.62 L 63.28 375.00 L 7.03 323.44" stroke="white" fill="transparent"/>
	<path d = "M 65.62 372.66 L 140.62 560.16" stroke="white" fill="transparent"/>
	<path d = "M 375.00 227.34 L 536.72 337.50" stroke="white" fill="transparent"/>
</svg>