<?xml version="1.0" encoding="UTF-8" standalone="no"?>
<!--Created with ndjsontosvg (https:https://github.com/thompson318/ndjsontosvg) 
	from the simplified Google quickdraw data set. key_id = 5682251410964480-->
<svg width="600" height="600"
	xmlns="http://www.w3.org/2000/svg">
	xmlns:ndjsontosvg="https://github.com/thompson318/ndjsontosvg"
	xmlns:quickdraw="https://quickdraw.withgoogle.com/data"
	xmlns:scikit-surgery="https://doi.org/10.1007/s11548-020-02180-5">

	<rect width="100%" height="100%" fill="black" />
	<path d = "M 468.75 220.31 L 269.53 192.19 L 166.41 192.19 L 51.56 220.31 L 30.47 248.44 L 18.75 292.97 L 0.00 433.59 L 4.69 532.03 L 75.00 553.12 L 396.09 597.66 L 447.66 592.97 L 494.53 562.50 L 541.41 487.50 L 546.09 316.41 L 534.38 260.16 L 506.25 185.16 L 471.09 164.06 L 442.97 173.44" stroke="white" fill="transparent"/>
	<path d = "M 386.72 285.94 L 309.38 264.84 L 239.06 264.84 L 206.25 283.59 L 173.44 311.72 L 159.38 339.84 L 154.69 407.81 L 199.22 461.72 L 264.84 496.88 L 335.16 501.56 L 367.97 501.56 L 417.19 482.81 L 442.97 459.38 L 454.69 424.22 L 457.03 325.78 L 403.12 285.94" stroke="white" fill="transparent"/>
	<path d = "M 307.03 269.53 L 307.03 14.06 L 295.31 4.69 L 239.06 2.34 L 206.25 44.53 L 213.28 32.81 L 246.09 11.72 L 290.62 7.03 L 307.03 11.72 L 314.06 25.78 L 314.06 32.81 L 285.94 2.34 L 255.47 2.34 L 246.09 14.06 L 232.03 58.59 L 241.41 25.78 L 267.19 0.00 L 300.00 11.72 L 311.72 28.12 L 318.75 89.06 L 300.00 316.41 L 290.62 274.22" stroke="white" fill="transparent"/>
</svg>