<?xml version="1.0" encoding="UTF-8" standalone="no"?>
<!--Created with ndjsontosvg (https:https://github.com/thompson318/ndjsontosvg) 
	from the simplified Google quickdraw data set. key_id = 4840377758515200-->
<svg width="600" height="600"
	xmlns="http://www.w3.org/2000/svg">
	xmlns:ndjsontosvg="https://github.com/thompson318/ndjsontosvg"
	xmlns:quickdraw="https://quickdraw.withgoogle.com/data"
	xmlns:scikit-surgery="https://doi.org/10.1007/s11548-020-02180-5">

	<rect width="100%" height="100%" fill="black" />
	<path d = "M 51.56 351.56 L 28.12 412.50 L 0.00 532.03 L 0.00 555.47 L 11.72 567.19 L 51.56 578.91 L 131.25 585.94 L 501.56 597.66 L 487.50 499.22 L 485.16 346.88 L 466.41 316.41 L 271.88 309.38 L 100.78 337.50" stroke="white" fill="transparent"/>
	<path d = "M 32.81 424.22 L 103.12 454.69 L 124.22 457.03 L 318.75 450.00 L 363.28 431.25 L 391.41 428.91 L 410.16 435.94 L 447.66 487.50 L 461.72 494.53 L 522.66 496.88" stroke="white" fill="transparent"/>
	<path d = "M 285.94 309.38 L 285.94 309.38" stroke="white" fill="transparent"/>
	<path d = "M 281.25 314.06 L 318.75 91.41 L 316.41 44.53 L 300.00 18.75 L 271.88 2.34 L 241.41 0.00 L 217.97 16.41 L 210.94 25.78 L 215.62 67.97 L 262.50 114.84 L 262.50 159.38 L 241.41 288.28 L 241.41 360.94" stroke="white" fill="transparent"/>
	<path d = "M 419.53 292.97 L 412.50 283.59 L 400.78 215.62 L 393.75 117.19 L 529.69 117.19 L 494.53 161.72 L 471.09 210.94 L 471.09 300.00" stroke="white" fill="transparent"/>
</svg>