<?xml version="1.0" encoding="UTF-8" standalone="no"?>
<!--Created with ndjsontosvg (https:https://github.com/thompson318/ndjsontosvg) 
	from the simplified Google quickdraw data set. key_id = 6246490420805632-->
<svg width="600" height="600"
	xmlns="http://www.w3.org/2000/svg">
	xmlns:ndjsontosvg="https://github.com/thompson318/ndjsontosvg"
	xmlns:quickdraw="https://quickdraw.withgoogle.com/data"
	xmlns:scikit-surgery="https://doi.org/10.1007/s11548-020-02180-5">

	<rect width="100%" height="100%" fill="black" />
	<path d = "M 7.03 159.38 L 2.34 152.34 L 56.25 131.25 L 194.53 105.47 L 309.38 103.12 L 367.97 128.91 L 398.44 168.75 L 400.78 203.91 L 384.38 220.31 L 339.84 236.72 L 164.06 246.09 L 56.25 220.31 L 25.78 206.25 L 16.41 187.50 L 16.41 152.34 L 7.03 194.53 L 9.38 253.12 L 16.41 278.91 L 35.16 304.69 L 112.50 349.22 L 241.41 365.62 L 264.84 365.62 L 297.66 351.56 L 367.97 302.34 L 398.44 255.47 L 414.84 187.50" stroke="white" fill="transparent"/>
	<path d = "M 161.72 358.59 L 168.75 459.38 L 145.31 588.28 L 152.34 597.66" stroke="white" fill="transparent"/>
	<path d = "M 292.97 370.31 L 295.31 428.91 L 278.91 517.97 L 276.56 592.97" stroke="white" fill="transparent"/>
	<path d = "M 220.31 93.75 L 213.28 2.34 L 208.59 0.00 L 192.19 14.06 L 187.50 53.91" stroke="white" fill="transparent"/>
	<path d = "M 232.03 91.41 L 292.97 63.28 L 300.00 70.31" stroke="white" fill="transparent"/>
</svg>