<?xml version="1.0" encoding="UTF-8" standalone="no"?>
<!--Created with ndjsontosvg (https:https://github.com/thompson318/ndjsontosvg) 
	from the simplified Google quickdraw data set. key_id = 5763469775208448-->
<svg width="600" height="600"
	xmlns="http://www.w3.org/2000/svg">
	xmlns:ndjsontosvg="https://github.com/thompson318/ndjsontosvg"
	xmlns:quickdraw="https://quickdraw.withgoogle.com/data"
	xmlns:scikit-surgery="https://doi.org/10.1007/s11548-020-02180-5">

	<rect width="100%" height="100%" fill="black" />
	<path d = "M 11.72 255.47 L 11.72 407.81 L 278.91 414.84 L 276.56 309.38 L 264.84 236.72 L 248.44 222.66 L 107.81 225.00 L 0.00 250.78" stroke="white" fill="transparent"/>
	<path d = "M 93.75 393.75 L 98.44 454.69 L 89.06 501.56 L 37.50 597.66" stroke="white" fill="transparent"/>
	<path d = "M 203.91 403.12 L 201.56 489.84 L 225.00 550.78" stroke="white" fill="transparent"/>
	<path d = "M 79.69 283.59 L 77.34 375.00 L 84.38 386.72 L 225.00 370.31 L 241.41 363.28 L 241.41 346.88 L 194.53 243.75 L 152.34 246.09 L 63.28 288.28" stroke="white" fill="transparent"/>
	<path d = "M 124.22 194.53 L 119.53 133.59 L 131.25 105.47 L 147.66 93.75 L 178.12 93.75 L 194.53 110.16 L 201.56 131.25" stroke="white" fill="transparent"/>
	<path d = "M 121.88 180.47 L 124.22 220.31" stroke="white" fill="transparent"/>
	<path d = "M 194.53 145.31 L 173.44 187.50 L 182.81 189.84 L 201.56 175.78 L 213.28 206.25 L 220.31 201.56 L 220.31 168.75 L 253.12 201.56 L 257.81 194.53 L 229.69 154.69" stroke="white" fill="transparent"/>
	<path d = "M 227.34 157.03 L 196.88 121.88" stroke="white" fill="transparent"/>
	<path d = "M 187.50 164.06 L 194.53 124.22" stroke="white" fill="transparent"/>
	<path d = "M 89.06 314.06 L 133.59 290.62 L 107.81 339.84 L 168.75 314.06 L 173.44 344.53 L 217.97 346.88 L 222.66 356.25" stroke="white" fill="transparent"/>
	<path d = "M 70.31 28.12 L 35.16 30.47 L 28.12 51.56 L 79.69 86.72 L 25.78 114.84" stroke="white" fill="transparent"/>
	<path d = "M 91.41 56.25 L 103.12 96.09" stroke="white" fill="transparent"/>
	<path d = "M 91.41 30.47 L 91.41 30.47" stroke="white" fill="transparent"/>
	<path d = "M 128.91 28.12 L 133.59 91.41 L 138.28 39.84 L 140.62 28.12 L 152.34 23.44 L 159.38 23.44 L 182.81 89.06" stroke="white" fill="transparent"/>
	<path d = "M 220.31 14.06 L 220.31 77.34 L 248.44 60.94 L 295.31 67.97" stroke="white" fill="transparent"/>
	<path d = "M 234.38 70.31 L 239.06 58.59 L 276.56 18.75 L 311.72 0.00" stroke="white" fill="transparent"/>
</svg>