<?xml version="1.0" encoding="UTF-8" standalone="no"?>
<!--Created with ndjsontosvg (https:https://github.com/thompson318/ndjsontosvg) 
	from the simplified Google quickdraw data set. key_id = 6566520320688128-->
<svg width="600" height="600"
	xmlns="http://www.w3.org/2000/svg">
	xmlns:ndjsontosvg="https://github.com/thompson318/ndjsontosvg"
	xmlns:quickdraw="https://quickdraw.withgoogle.com/data"
	xmlns:scikit-surgery="https://doi.org/10.1007/s11548-020-02180-5">

	<rect width="100%" height="100%" fill="black" />
	<path d = "M 0.00 175.78 L 35.16 159.38 L 107.81 150.00 L 452.34 152.34 L 450.00 225.00 L 424.22 236.72 L 79.69 232.03 L 16.41 213.28 L 0.00 182.81 L 4.69 236.72 L 16.41 257.81 L 140.62 337.50 L 185.16 349.22 L 288.28 330.47 L 431.25 316.41 L 452.34 307.03 L 450.00 196.88 L 466.41 142.97 L 454.69 53.91 L 414.84 18.75 L 379.69 0.00 L 304.69 37.50 L 271.88 70.31 L 271.88 86.72 L 295.31 96.09 L 314.06 96.09 L 325.78 65.62 L 344.53 39.84 L 375.00 32.81 L 400.78 42.19 L 438.28 112.50 L 442.97 145.31 L 435.94 157.03" stroke="white" fill="transparent"/>
	<path d = "M 278.91 93.75 L 262.50 213.28 L 276.56 185.16 L 276.56 147.66 L 290.62 110.16 L 295.31 119.53 L 302.34 220.31 L 290.62 208.59 L 300.00 164.06 L 290.62 119.53 L 307.03 189.84 L 274.22 250.78 L 295.31 159.38" stroke="white" fill="transparent"/>
	<path d = "M 445.31 264.84 L 459.38 332.81 L 461.72 452.34" stroke="white" fill="transparent"/>
	<path d = "M 384.38 325.78 L 386.72 367.97 L 403.12 414.84 L 400.78 482.81 L 393.75 492.19 L 396.09 585.94 L 414.84 597.66 L 431.25 595.31 L 457.03 578.91 L 464.06 473.44 L 454.69 435.94" stroke="white" fill="transparent"/>
	<path d = "M 39.84 281.25 L 93.75 321.09 L 135.94 335.16 L 220.31 339.84 L 316.41 332.81" stroke="white" fill="transparent"/>
</svg>