<?xml version="1.0" encoding="UTF-8" standalone="no"?>
<!--Created with ndjsontosvg (https:https://github.com/thompson318/ndjsontosvg) 
	from the simplified Google quickdraw data set. key_id = 5955626750443520-->
<svg width="600" height="600"
	xmlns="http://www.w3.org/2000/svg">
	xmlns:ndjsontosvg="https://github.com/thompson318/ndjsontosvg"
	xmlns:quickdraw="https://quickdraw.withgoogle.com/data"
	xmlns:scikit-surgery="https://doi.org/10.1007/s11548-020-02180-5">

	<rect width="100%" height="100%" fill="black" />
	<path d = "M 0.00 382.03 L 2.34 452.34 L 9.38 464.06 L 37.50 489.84 L 107.81 513.28 L 250.78 536.72 L 377.34 536.72 L 478.12 513.28" stroke="white" fill="transparent"/>
	<path d = "M 7.03 365.62 L 7.03 365.62" stroke="white" fill="transparent"/>
	<path d = "M 0.00 377.34 L 276.56 377.34 L 351.56 363.28 L 529.69 363.28 L 597.66 349.22 L 588.28 403.12 L 571.88 440.62 L 546.09 475.78 L 501.56 499.22" stroke="white" fill="transparent"/>
	<path d = "M 365.62 302.34 L 396.09 210.94 L 393.75 51.56 L 375.00 30.47 L 316.41 0.00 L 285.94 25.78 L 276.56 86.72 L 288.28 110.16 L 300.00 112.50 L 321.09 112.50 L 351.56 96.09 L 356.25 86.72 L 356.25 25.78" stroke="white" fill="transparent"/>
	<path d = "M 323.44 32.81 L 323.44 32.81" stroke="white" fill="transparent"/>
	<path d = "M 302.34 67.97 L 302.34 67.97" stroke="white" fill="transparent"/>
	<path d = "M 302.34 67.97 L 302.34 67.97" stroke="white" fill="transparent"/>
	<path d = "M 302.34 51.56 L 302.34 51.56" stroke="white" fill="transparent"/>
	<path d = "M 309.38 39.84 L 316.41 44.53" stroke="white" fill="transparent"/>
</svg>