<?xml version="1.0" encoding="UTF-8" standalone="no"?>
<!--Created with ndjsontosvg (https:https://github.com/thompson318/ndjsontosvg) 
	from the simplified Google quickdraw data set. key_id = 4535276728745984-->
<svg width="600" height="600"
	xmlns="http://www.w3.org/2000/svg">
	xmlns:ndjsontosvg="https://github.com/thompson318/ndjsontosvg"
	xmlns:quickdraw="https://quickdraw.withgoogle.com/data"
	xmlns:scikit-surgery="https://doi.org/10.1007/s11548-020-02180-5">

	<rect width="100%" height="100%" fill="black" />
	<path d = "M 457.03 96.09 L 485.16 89.06 L 555.47 14.06 L 581.25 0.00 L 592.97 51.56 L 597.66 138.28 L 585.94 164.06 L 557.81 178.12 L 323.44 229.69 L 112.50 234.38 L 44.53 210.94 L 14.06 173.44 L 0.00 124.22 L 2.34 77.34 L 14.06 49.22 L 117.19 103.12 L 196.88 119.53 L 332.81 119.53 L 499.22 89.06" stroke="white" fill="transparent"/>
	<path d = "M 250.78 255.47 L 264.84 255.47 L 276.56 278.91 L 278.91 295.31 L 257.81 311.72 L 225.00 309.38 L 194.53 281.25 L 192.19 262.50 L 201.56 248.44 L 241.41 234.38" stroke="white" fill="transparent"/>
	<path d = "M 487.50 201.56 L 496.88 243.75 L 487.50 274.22 L 475.78 283.59 L 450.00 288.28 L 421.88 276.56 L 396.09 250.78 L 391.41 236.72 L 412.50 210.94" stroke="white" fill="transparent"/>
</svg>