<?xml version="1.0" encoding="UTF-8" standalone="no"?>
<!--Created with ndjsontosvg (https:https://github.com/thompson318/ndjsontosvg) 
	from the simplified Google quickdraw data set. key_id = 5730269577347072-->
<svg width="600" height="600"
	xmlns="http://www.w3.org/2000/svg">
	xmlns:ndjsontosvg="https://github.com/thompson318/ndjsontosvg"
	xmlns:quickdraw="https://quickdraw.withgoogle.com/data"
	xmlns:scikit-surgery="https://doi.org/10.1007/s11548-020-02180-5">

	<rect width="100%" height="100%" fill="black" />
	<path d = "M 117.19 25.78 L 65.62 37.50 L 9.38 75.00 L 0.00 112.50 L 18.75 138.28 L 75.00 150.00 L 405.47 145.31 L 539.06 124.22 L 578.91 107.81 L 597.66 86.72 L 592.97 67.97 L 529.69 35.16 L 417.19 9.38 L 316.41 0.00 L 210.94 7.03 L 105.47 25.78" stroke="white" fill="transparent"/>
	<path d = "M 96.09 145.31 L 65.62 175.78 L 60.94 206.25 L 77.34 217.97 L 114.84 215.62 L 128.91 192.19 L 124.22 175.78 L 110.16 157.03 L 84.38 150.00" stroke="white" fill="transparent"/>
	<path d = "M 431.25 140.62 L 417.19 166.41 L 414.84 196.88 L 450.00 213.28 L 482.81 206.25 L 508.59 182.81 L 506.25 161.72 L 447.66 131.25" stroke="white" fill="transparent"/>
</svg>