<?xml version="1.0" encoding="UTF-8" standalone="no"?>
<!--Created with ndjsontosvg (https:https://github.com/thompson318/ndjsontosvg) 
	from the simplified Google quickdraw data set. key_id = 4915636935327744-->
<svg width="600" height="600"
	xmlns="http://www.w3.org/2000/svg">
	xmlns:ndjsontosvg="https://github.com/thompson318/ndjsontosvg"
	xmlns:quickdraw="https://quickdraw.withgoogle.com/data"
	xmlns:scikit-surgery="https://doi.org/10.1007/s11548-020-02180-5">

	<rect width="100%" height="100%" fill="black" />
	<path d = "M 346.88 30.47 L 110.16 100.78 L 58.59 126.56 L 23.44 157.03 L 4.69 185.16 L 0.00 217.97 L 18.75 232.03 L 171.09 239.06 L 229.69 232.03 L 363.28 192.19 L 522.66 117.19 L 557.81 89.06 L 592.97 42.19 L 595.31 16.41 L 574.22 4.69 L 478.12 0.00 L 363.28 30.47 L 321.09 46.88" stroke="white" fill="transparent"/>
	<path d = "M 220.31 253.12 L 208.59 248.44 L 203.91 253.12 L 199.22 278.91 L 232.03 304.69 L 250.78 300.00 L 250.78 255.47 L 229.69 241.41 L 220.31 239.06 L 217.97 250.78" stroke="white" fill="transparent"/>
	<path d = "M 510.94 135.94 L 496.88 164.06 L 489.84 192.19 L 492.19 222.66 L 508.59 229.69 L 529.69 199.22 L 534.38 154.69 L 527.34 142.97 L 492.19 142.97" stroke="white" fill="transparent"/>
</svg>