<?xml version="1.0" encoding="UTF-8" standalone="no"?>
<!--Created with ndjsontosvg (https:https://github.com/thompson318/ndjsontosvg) 
	from the simplified Google quickdraw data set. key_id = 5466216091090944-->
<svg width="600" height="600"
	xmlns="http://www.w3.org/2000/svg">
	xmlns:ndjsontosvg="https://github.com/thompson318/ndjsontosvg"
	xmlns:quickdraw="https://quickdraw.withgoogle.com/data"
	xmlns:scikit-surgery="https://doi.org/10.1007/s11548-020-02180-5">

	<rect width="100%" height="100%" fill="black" />
	<path d = "M 2.34 337.50 L 2.34 206.25 L 9.38 175.78 L 23.44 128.91 L 60.94 72.66 L 119.53 25.78 L 154.69 9.38 L 241.41 0.00 L 283.59 4.69 L 377.34 39.84 L 403.12 75.00 L 496.88 454.69 L 482.81 440.62" stroke="white" fill="transparent"/>
	<path d = "M 164.06 424.22 L 166.41 503.91 L 135.94 581.25 L 154.69 592.97 L 215.62 597.66 L 246.09 583.59 L 330.47 578.91 L 328.12 499.22 L 300.00 365.62 L 316.41 396.09" stroke="white" fill="transparent"/>
	<path d = "M 161.72 419.53 L 53.91 375.00 L 11.72 346.88 L 0.00 328.12" stroke="white" fill="transparent"/>
	<path d = "M 304.69 360.94 L 318.75 375.00 L 330.47 403.12" stroke="white" fill="transparent"/>
</svg>