<?xml version="1.0" encoding="UTF-8" standalone="no"?>
<!--Created with ndjsontosvg (https:https://github.com/thompson318/ndjsontosvg) 
	from the simplified Google quickdraw data set. key_id = 4915842724659200-->
<svg width="600" height="600"
	xmlns="http://www.w3.org/2000/svg">
	xmlns:ndjsontosvg="https://github.com/thompson318/ndjsontosvg"
	xmlns:quickdraw="https://quickdraw.withgoogle.com/data"
	xmlns:scikit-surgery="https://doi.org/10.1007/s11548-020-02180-5">

	<rect width="100%" height="100%" fill="black" />
	<path d = "M 311.72 14.06 L 302.34 2.34 L 222.66 2.34 L 142.97 28.12 L 84.38 60.94 L 53.91 89.06 L 16.41 147.66 L 2.34 196.88 L 2.34 248.44 L 14.06 276.56 L 44.53 304.69 L 100.78 325.78 L 168.75 335.16 L 157.03 466.41 L 168.75 487.50 L 386.72 492.19 L 400.78 372.66 L 475.78 365.62 L 560.16 311.72 L 585.94 264.84 L 595.31 232.03 L 595.31 182.81 L 571.88 131.25 L 539.06 96.09 L 464.06 53.91 L 353.91 25.78 L 302.34 25.78 L 274.22 37.50" stroke="white" fill="transparent"/>
	<path d = "M 142.97 142.97 L 140.62 185.16 L 154.69 208.59 L 168.75 217.97 L 203.91 201.56 L 220.31 178.12 L 236.72 138.28 L 236.72 124.22 L 225.00 100.78 L 189.84 98.44 L 157.03 126.56" stroke="white" fill="transparent"/>
	<path d = "M 426.56 142.97 L 405.47 171.09 L 393.75 225.00 L 396.09 241.41 L 419.53 262.50 L 428.91 262.50 L 464.06 241.41 L 499.22 201.56 L 510.94 161.72 L 480.47 135.94 L 457.03 128.91 L 426.56 133.59 L 414.84 142.97" stroke="white" fill="transparent"/>
	<path d = "M 175.78 426.56 L 445.31 428.91" stroke="white" fill="transparent"/>
</svg>