<?xml version="1.0" encoding="UTF-8" standalone="no"?>
<!--Created with ndjsontosvg (https:https://github.com/thompson318/ndjsontosvg) 
	from the simplified Google quickdraw data set. key_id = 6150911288147968-->
<svg width="600" height="600"
	xmlns="http://www.w3.org/2000/svg">
	xmlns:ndjsontosvg="https://github.com/thompson318/ndjsontosvg"
	xmlns:quickdraw="https://quickdraw.withgoogle.com/data"
	xmlns:scikit-surgery="https://doi.org/10.1007/s11548-020-02180-5">

	<rect width="100%" height="100%" fill="black" />
	<path d = "M 236.72 21.09 L 142.97 42.19 L 53.91 91.41 L 18.75 159.38 L 0.00 257.81 L 2.34 372.66 L 42.19 471.09 L 77.34 520.31 L 124.22 567.19 L 185.16 590.62 L 239.06 597.66 L 367.97 595.31 L 426.56 562.50 L 447.66 529.69 L 461.72 473.44 L 461.72 281.25 L 435.94 213.28 L 370.31 91.41 L 349.22 70.31 L 274.22 21.09 L 196.88 0.00 L 164.06 0.00 L 152.34 9.38" stroke="white" fill="transparent"/>
	<path d = "M 107.81 225.00 L 89.06 225.00 L 72.66 246.09 L 77.34 288.28 L 173.44 323.44 L 203.91 323.44 L 213.28 316.41 L 220.31 292.97 L 217.97 255.47 L 206.25 229.69 L 171.09 206.25 L 124.22 196.88 L 89.06 206.25 L 58.59 229.69 L 51.56 257.81" stroke="white" fill="transparent"/>
	<path d = "M 384.38 227.34 L 365.62 227.34 L 344.53 239.06 L 330.47 267.19 L 325.78 314.06 L 330.47 325.78 L 353.91 335.16 L 421.88 335.16 L 426.56 316.41 L 424.22 274.22 L 389.06 220.31 L 346.88 203.91 L 316.41 203.91 L 307.03 213.28" stroke="white" fill="transparent"/>
	<path d = "M 243.75 379.69 L 229.69 389.06 L 225.00 407.81 L 234.38 407.81 L 236.72 400.78 L 234.38 372.66" stroke="white" fill="transparent"/>
	<path d = "M 274.22 382.03 L 274.22 405.47 L 290.62 410.16 L 292.97 379.69 L 276.56 377.34 L 269.53 400.78" stroke="white" fill="transparent"/>
	<path d = "M 166.41 454.69 L 166.41 487.50 L 180.47 499.22 L 203.91 494.53 L 213.28 459.38" stroke="white" fill="transparent"/>
	<path d = "M 215.62 461.72 L 220.31 501.56 L 246.09 501.56 L 267.19 471.09 L 269.53 506.25 L 281.25 515.62 L 309.38 510.94 L 321.09 480.47 L 330.47 503.91 L 353.91 503.91 L 372.66 466.41" stroke="white" fill="transparent"/>
	<path d = "M 152.34 522.66 L 159.38 496.88 L 180.47 496.88 L 196.88 501.56 L 208.59 522.66 L 234.38 510.94 L 246.09 510.94 L 253.12 536.72 L 269.53 522.66 L 281.25 522.66 L 290.62 543.75 L 309.38 520.31 L 337.50 513.28 L 349.22 520.31 L 346.88 546.09" stroke="white" fill="transparent"/>
	<path d = "M 173.44 517.97 L 175.78 527.34 L 182.81 529.69 L 393.75 546.09" stroke="white" fill="transparent"/>
</svg>