<?xml version="1.0" encoding="UTF-8" standalone="no"?>
<!--Created with ndjsontosvg (https:https://github.com/thompson318/ndjsontosvg) 
	from the simplified Google quickdraw data set. key_id = 5517124237787136-->
<svg width="600" height="600"
	xmlns="http://www.w3.org/2000/svg">
	xmlns:ndjsontosvg="https://github.com/thompson318/ndjsontosvg"
	xmlns:quickdraw="https://quickdraw.withgoogle.com/data"
	xmlns:scikit-surgery="https://doi.org/10.1007/s11548-020-02180-5">

	<rect width="100%" height="100%" fill="black" />
	<path d = "M 67.97 257.81 L 128.91 344.53 L 128.91 410.16 L 152.34 438.28 L 236.72 480.47 L 300.00 492.19 L 351.56 492.19 L 363.28 485.16 L 391.41 445.31 L 393.75 414.84 L 407.81 386.72 L 417.19 377.34 L 487.50 342.19 L 553.12 253.12 L 590.62 185.16 L 597.66 157.03 L 595.31 133.59 L 567.19 93.75 L 506.25 37.50 L 459.38 18.75 L 382.03 2.34 L 147.66 2.34 L 58.59 60.94 L 23.44 105.47 L 0.00 189.84 L 0.00 217.97 L 2.34 232.03 L 30.47 250.78 L 56.25 260.16 L 82.03 260.16" stroke="white" fill="transparent"/>
	<path d = "M 173.44 93.75 L 128.91 93.75 L 100.78 110.16 L 91.41 175.78 L 114.84 215.62 L 154.69 241.41 L 192.19 243.75 L 201.56 232.03 L 213.28 201.56 L 210.94 124.22 L 168.75 67.97" stroke="white" fill="transparent"/>
	<path d = "M 428.91 112.50 L 367.97 171.09 L 342.19 215.62 L 337.50 239.06 L 342.19 255.47 L 396.09 292.97 L 417.19 248.44 L 433.59 159.38" stroke="white" fill="transparent"/>
</svg>