<?xml version="1.0" encoding="UTF-8" standalone="no"?>
<!--Created with ndjsontosvg (https:https://github.com/thompson318/ndjsontosvg) 
	from the simplified Google quickdraw data set. key_id = 6030936812552192-->
<svg width="600" height="600"
	xmlns="http://www.w3.org/2000/svg">
	xmlns:ndjsontosvg="https://github.com/thompson318/ndjsontosvg"
	xmlns:quickdraw="https://quickdraw.withgoogle.com/data"
	xmlns:scikit-surgery="https://doi.org/10.1007/s11548-020-02180-5">

	<rect width="100%" height="100%" fill="black" />
	<path d = "M 225.00 7.03 L 185.16 0.00 L 140.62 11.72 L 84.38 42.19 L 37.50 86.72 L 2.34 154.69 L 0.00 232.03 L 9.38 276.56 L 32.81 314.06 L 93.75 358.59 L 166.41 372.66 L 199.22 424.22 L 222.66 419.53 L 232.03 384.38 L 253.12 377.34 L 257.81 421.88 L 264.84 428.91 L 285.94 431.25 L 292.97 403.12 L 316.41 384.38 L 332.81 428.91 L 363.28 433.59 L 379.69 396.09 L 393.75 391.41 L 400.78 398.44 L 398.44 433.59 L 433.59 431.25 L 445.31 419.53 L 454.69 382.03 L 503.91 365.62 L 536.72 344.53 L 564.84 321.09 L 590.62 274.22 L 595.31 217.97 L 562.50 140.62 L 513.28 84.38 L 471.09 53.91 L 375.00 9.38 L 321.09 2.34 L 241.41 7.03 L 189.84 18.75 L 152.34 39.84" stroke="white" fill="transparent"/>
	<path d = "M 135.94 367.97 L 142.97 492.19 L 196.88 496.88 L 210.94 459.38 L 246.09 452.34 L 253.12 461.72 L 260.16 508.59 L 297.66 508.59 L 309.38 466.41 L 321.09 461.72 L 337.50 478.12 L 335.16 517.97 L 342.19 532.03 L 370.31 527.34 L 377.34 489.84 L 389.06 480.47 L 400.78 489.84 L 407.81 529.69 L 428.91 534.38 L 464.06 525.00 L 457.03 393.75" stroke="white" fill="transparent"/>
	<path d = "M 180.47 154.69 L 154.69 166.41 L 131.25 194.53 L 131.25 210.94 L 142.97 239.06 L 161.72 250.78 L 189.84 250.78 L 220.31 222.66 L 222.66 199.22 L 213.28 180.47 L 196.88 166.41 L 175.78 166.41" stroke="white" fill="transparent"/>
	<path d = "M 428.91 178.12 L 396.09 215.62 L 400.78 250.78 L 417.19 267.19 L 435.94 274.22 L 468.75 267.19 L 499.22 241.41 L 503.91 225.00 L 496.88 206.25 L 459.38 185.16 L 431.25 182.81 L 412.50 189.84" stroke="white" fill="transparent"/>
	<path d = "M 281.25 295.31 L 241.41 321.09 L 243.75 335.16 L 253.12 342.19 L 274.22 330.47 L 285.94 297.66" stroke="white" fill="transparent"/>
	<path d = "M 321.09 302.34 L 323.44 332.81 L 339.84 342.19 L 346.88 335.16 L 325.78 307.03" stroke="white" fill="transparent"/>
	<path d = "M 150.00 517.97 L 171.09 541.41 L 215.62 562.50 L 316.41 574.22 L 414.84 562.50 L 442.97 548.44 L 461.72 520.31" stroke="white" fill="transparent"/>
</svg>