<?xml version="1.0" encoding="UTF-8" standalone="no"?>
<!--Created with ndjsontosvg (https:https://github.com/thompson318/ndjsontosvg) 
	from the simplified Google quickdraw data set. key_id = 5363435107778560-->
<svg width="600" height="600"
	xmlns="http://www.w3.org/2000/svg">
	xmlns:ndjsontosvg="https://github.com/thompson318/ndjsontosvg"
	xmlns:quickdraw="https://quickdraw.withgoogle.com/data"
	xmlns:scikit-surgery="https://doi.org/10.1007/s11548-020-02180-5">

	<rect width="100%" height="100%" fill="black" />
	<path d = "M 464.06 171.09 L 515.62 150.00 L 553.12 117.19 L 578.91 65.62 L 569.53 25.78 L 536.72 4.69 L 496.88 2.34 L 442.97 18.75 L 382.03 56.25 L 438.28 110.16 L 468.75 161.72" stroke="white" fill="transparent"/>
	<path d = "M 581.25 42.19 L 597.66 91.41 L 597.66 119.53 L 583.59 152.34 L 555.47 180.47 L 489.84 215.62 L 400.78 246.09 L 215.62 339.84 L 142.97 358.59 L 65.62 363.28 L 11.72 346.88 L 0.00 323.44 L 16.41 290.62 L 60.94 253.12 L 192.19 185.16 L 384.38 60.94" stroke="white" fill="transparent"/>
	<path d = "M 452.34 210.94 L 398.44 150.00 L 330.47 117.19" stroke="white" fill="transparent"/>
	<path d = "M 353.91 246.09 L 283.59 201.56 L 222.66 175.78" stroke="white" fill="transparent"/>
	<path d = "M 220.31 283.59 L 150.00 239.06 L 121.88 229.69" stroke="white" fill="transparent"/>
	<path d = "M 117.19 323.44 L 42.19 267.19" stroke="white" fill="transparent"/>
	<path d = "M 426.56 98.44 L 440.62 65.62 L 478.12 42.19 L 506.25 46.88 L 520.31 63.28 L 515.62 96.09 L 501.56 117.19 L 457.03 147.66 L 438.28 152.34" stroke="white" fill="transparent"/>
	<path d = "M 508.59 107.81 L 560.16 70.31 L 550.78 65.62 L 520.31 77.34 L 543.75 44.53 L 499.22 53.91 L 506.25 25.78 L 501.56 21.09 L 478.12 30.47 L 466.41 46.88" stroke="white" fill="transparent"/>
</svg>