<?xml version="1.0" encoding="UTF-8" standalone="no"?>
<!--Created with ndjsontosvg (https:https://github.com/thompson318/ndjsontosvg) 
	from the simplified Google quickdraw data set. key_id = 4887550181244928-->
<svg width="600" height="600"
	xmlns="http://www.w3.org/2000/svg">
	xmlns:ndjsontosvg="https://github.com/thompson318/ndjsontosvg"
	xmlns:quickdraw="https://quickdraw.withgoogle.com/data"
	xmlns:scikit-surgery="https://doi.org/10.1007/s11548-020-02180-5">

	<rect width="100%" height="100%" fill="black" />
	<path d = "M 208.59 37.50 L 206.25 65.62" stroke="white" fill="transparent"/>
	<path d = "M 300.00 42.19 L 304.69 72.66" stroke="white" fill="transparent"/>
	<path d = "M 260.16 93.75 L 246.09 150.00" stroke="white" fill="transparent"/>
	<path d = "M 194.53 166.41 L 201.56 187.50 L 227.34 203.91 L 304.69 213.28 L 318.75 206.25 L 353.91 159.38" stroke="white" fill="transparent"/>
	<path d = "M 285.94 213.28 L 290.62 234.38 L 328.12 232.03 L 337.50 220.31 L 344.53 185.16 L 337.50 185.16" stroke="white" fill="transparent"/>
	<path d = "M 311.72 203.91 L 318.75 255.47" stroke="white" fill="transparent"/>
	<path d = "M 135.94 14.06 L 107.81 112.50 L 103.12 175.78 L 110.16 196.88 L 178.12 290.62 L 234.38 339.84 L 276.56 367.97 L 304.69 375.00 L 360.94 377.34 L 435.94 346.88 L 464.06 323.44 L 478.12 297.66 L 501.56 227.34 L 506.25 112.50 L 492.19 77.34 L 445.31 18.75 L 386.72 2.34 L 314.06 0.00 L 243.75 23.44 L 159.38 28.12 L 133.59 42.19 L 126.56 56.25" stroke="white" fill="transparent"/>
	<path d = "M 550.78 140.62 L 553.12 112.50 L 564.84 107.81 L 574.22 117.19 L 595.31 168.75 L 597.66 194.53 L 569.53 227.34 L 532.03 253.12 L 499.22 253.12" stroke="white" fill="transparent"/>
	<path d = "M 16.41 93.75 L 0.00 138.28" stroke="white" fill="transparent"/>
</svg>