<?xml version="1.0" encoding="UTF-8" standalone="no"?>
<!--Created with ndjsontosvg (https:https://github.com/thompson318/ndjsontosvg) 
	from the simplified Google quickdraw data set. key_id = 6309955000860672-->
<svg width="600" height="600"
	xmlns="http://www.w3.org/2000/svg">
	xmlns:ndjsontosvg="https://github.com/thompson318/ndjsontosvg"
	xmlns:quickdraw="https://quickdraw.withgoogle.com/data"
	xmlns:scikit-surgery="https://doi.org/10.1007/s11548-020-02180-5">

	<rect width="100%" height="100%" fill="black" />
	<path d = "M 391.41 131.25 L 356.25 220.31" stroke="white" fill="transparent"/>
	<path d = "M 142.97 121.88 L 161.72 239.06" stroke="white" fill="transparent"/>
	<path d = "M 431.25 405.47 L 372.66 464.06 L 314.06 478.12 L 292.97 478.12 L 147.66 442.97 L 112.50 421.88 L 51.56 363.28" stroke="white" fill="transparent"/>
	<path d = "M 100.78 0.00 L 63.28 39.84 L 0.00 220.31 L 142.97 499.22 L 168.75 517.97 L 351.56 595.31 L 405.47 597.66 L 457.03 571.88 L 517.97 503.91 L 543.75 435.94 L 543.75 367.97 L 527.34 281.25 L 510.94 243.75 L 471.09 189.84 L 400.78 124.22 L 307.03 63.28 L 208.59 37.50 L 161.72 42.19 L 119.53 56.25" stroke="white" fill="transparent"/>
</svg>