<?xml version="1.0" encoding="UTF-8" standalone="no"?>
<!--Created with ndjsontosvg (https:https://github.com/thompson318/ndjsontosvg) 
	from the simplified Google quickdraw data set. key_id = 6351908291739648-->
<svg width="600" height="600"
	xmlns="http://www.w3.org/2000/svg">
	xmlns:ndjsontosvg="https://github.com/thompson318/ndjsontosvg"
	xmlns:quickdraw="https://quickdraw.withgoogle.com/data"
	xmlns:scikit-surgery="https://doi.org/10.1007/s11548-020-02180-5">

	<rect width="100%" height="100%" fill="black" />
	<path d = "M 203.91 189.84 L 229.69 217.97 L 239.06 271.88 L 222.66 304.69 L 201.56 321.09 L 189.84 321.09 L 168.75 300.00 L 164.06 285.94 L 154.69 206.25 L 159.38 180.47" stroke="white" fill="transparent"/>
	<path d = "M 323.44 159.38 L 353.91 260.16 L 353.91 295.31 L 342.19 304.69 L 269.53 302.34 L 257.81 285.94 L 255.47 232.03 L 274.22 180.47" stroke="white" fill="transparent"/>
	<path d = "M 93.75 400.78 L 133.59 403.12 L 311.72 454.69 L 382.03 459.38" stroke="white" fill="transparent"/>
	<path d = "M 232.03 550.78 L 89.06 478.12 L 21.09 428.91 L 2.34 403.12 L 2.34 321.09 L 16.41 229.69 L 84.38 46.88 L 112.50 18.75 L 147.66 2.34 L 271.88 4.69 L 314.06 21.09 L 382.03 67.97 L 431.25 114.84 L 457.03 159.38 L 471.09 206.25 L 482.81 302.34 L 480.47 499.22 L 454.69 550.78 L 412.50 578.91 L 379.69 590.62 L 325.78 597.66 L 288.28 597.66 L 110.16 522.66" stroke="white" fill="transparent"/>
</svg>