<?xml version="1.0" encoding="UTF-8" standalone="no"?>
<!--Created with ndjsontosvg (https:https://github.com/thompson318/ndjsontosvg) 
	from the simplified Google quickdraw data set. key_id = 5506449570529280-->
<svg width="600" height="600"
	xmlns="http://www.w3.org/2000/svg">
	xmlns:ndjsontosvg="https://github.com/thompson318/ndjsontosvg"
	xmlns:quickdraw="https://quickdraw.withgoogle.com/data"
	xmlns:scikit-surgery="https://doi.org/10.1007/s11548-020-02180-5">

	<rect width="100%" height="100%" fill="black" />
	<path d = "M 152.34 0.00 L 75.00 67.97 L 46.88 100.78 L 35.16 128.91 L 0.00 246.09 L 2.34 300.00 L 14.06 330.47 L 37.50 372.66 L 70.31 396.09 L 110.16 414.84 L 203.91 419.53 L 255.47 405.47 L 307.03 367.97 L 353.91 323.44 L 386.72 271.88 L 410.16 222.66 L 419.53 147.66 L 403.12 91.41 L 365.62 49.22 L 323.44 30.47 L 255.47 18.75 L 210.94 23.44 L 124.22 60.94 L 65.62 121.88 L 46.88 164.06 L 25.78 241.41 L 42.19 346.88 L 70.31 386.72 L 91.41 400.78 L 135.94 407.81 L 196.88 367.97 L 232.03 321.09 L 253.12 243.75 L 248.44 210.94 L 234.38 182.81 L 213.28 173.44 L 180.47 178.12 L 150.00 199.22 L 140.62 241.41 L 152.34 267.19 L 166.41 271.88 L 175.78 262.50 L 180.47 229.69" stroke="white" fill="transparent"/>
	<path d = "M 365.62 271.88 L 457.03 288.28 L 564.84 323.44 L 585.94 346.88 L 597.66 375.00 L 571.88 405.47 L 503.91 424.22 L 323.44 398.44 L 173.44 417.19" stroke="white" fill="transparent"/>
	<path d = "M 567.19 328.12 L 585.94 217.97 L 585.94 206.25 L 578.91 220.31 L 590.62 210.94 L 590.62 201.56" stroke="white" fill="transparent"/>
	<path d = "M 562.50 365.62 L 562.50 365.62" stroke="white" fill="transparent"/>
</svg>