<?xml version="1.0" encoding="UTF-8" standalone="no"?>
<!--Created with ndjsontosvg (https:https://github.com/thompson318/ndjsontosvg) 
	from the simplified Google quickdraw data set. key_id = 5684077405405184-->
<svg width="600" height="600"
	xmlns="http://www.w3.org/2000/svg">
	xmlns:ndjsontosvg="https://github.com/thompson318/ndjsontosvg"
	xmlns:quickdraw="https://quickdraw.withgoogle.com/data"
	xmlns:scikit-surgery="https://doi.org/10.1007/s11548-020-02180-5">

	<rect width="100%" height="100%" fill="black" />
	<path d = "M 295.31 2.34 L 206.25 4.69 L 171.09 25.78 L 124.22 67.97 L 46.88 192.19 L 30.47 239.06 L 28.12 274.22 L 67.97 339.84 L 152.34 405.47 L 196.88 428.91 L 246.09 431.25 L 311.72 405.47 L 339.84 377.34 L 363.28 302.34 L 375.00 131.25 L 363.28 86.72 L 332.81 28.12 L 295.31 25.78 L 276.56 9.38" stroke="white" fill="transparent"/>
	<path d = "M 358.59 360.94 L 501.56 365.62 L 567.19 379.69 L 595.31 412.50 L 592.97 450.00 L 562.50 475.78 L 525.00 485.16 L 412.50 478.12 L 330.47 461.72 L 271.88 466.41 L 225.00 447.66 L 168.75 447.66 L 126.56 417.19 L 0.00 386.72 L 56.25 375.00" stroke="white" fill="transparent"/>
	<path d = "M 105.47 365.62 L 105.47 365.62" stroke="white" fill="transparent"/>
</svg>