<?xml version="1.0" encoding="UTF-8" standalone="no"?>
<!--Created with ndjsontosvg (https:https://github.com/thompson318/ndjsontosvg) 
	from the simplified Google quickdraw data set. key_id = 6139863290085376-->
<svg width="600" height="600"
	xmlns="http://www.w3.org/2000/svg">
	xmlns:ndjsontosvg="https://github.com/thompson318/ndjsontosvg"
	xmlns:quickdraw="https://quickdraw.withgoogle.com/data"
	xmlns:scikit-surgery="https://doi.org/10.1007/s11548-020-02180-5">

	<rect width="100%" height="100%" fill="black" />
	<path d = "M 358.59 166.41 L 316.41 145.31 L 304.69 121.88 L 307.03 79.69 L 344.53 49.22 L 405.47 39.84 L 438.28 42.19 L 475.78 58.59 L 506.25 100.78 L 522.66 157.03 L 478.12 203.91 L 419.53 246.09 L 384.38 253.12 L 267.19 246.09 L 194.53 194.53 L 185.16 147.66 L 222.66 53.91 L 241.41 35.16 L 276.56 23.44 L 410.16 2.34 L 532.03 7.03 L 585.94 91.41 L 597.66 154.69 L 588.28 187.50 L 499.22 234.38 L 442.97 281.25 L 382.03 295.31 L 227.34 302.34 L 173.44 290.62 L 142.97 267.19 L 103.12 248.44 L 70.31 189.84 L 63.28 161.72 L 42.19 142.97 L 2.34 157.03 L 0.00 192.19 L 56.25 253.12 L 77.34 246.09 L 91.41 222.66" stroke="white" fill="transparent"/>
</svg>