<?xml version="1.0" encoding="UTF-8" standalone="no"?>
<!--Created with ndjsontosvg (https:https://github.com/thompson318/ndjsontosvg) 
	from the simplified Google quickdraw data set. key_id = 6666836051492864-->
<svg width="600" height="600"
	xmlns="http://www.w3.org/2000/svg">
	xmlns:ndjsontosvg="https://github.com/thompson318/ndjsontosvg"
	xmlns:quickdraw="https://quickdraw.withgoogle.com/data"
	xmlns:scikit-surgery="https://doi.org/10.1007/s11548-020-02180-5">

	<rect width="100%" height="100%" fill="black" />
	<path d = "M 440.62 133.59 L 440.62 67.97 L 450.00 53.91 L 461.72 56.25 L 494.53 107.81 L 515.62 126.56 L 529.69 110.16 L 534.38 60.94 L 555.47 56.25 L 581.25 75.00 L 597.66 107.81 L 588.28 182.81 L 569.53 203.91 L 548.44 220.31 L 471.09 243.75 L 300.00 248.44 L 297.66 243.75" stroke="white" fill="transparent"/>
	<path d = "M 440.62 135.94 L 419.53 150.00 L 243.75 142.97 L 262.50 70.31 L 260.16 42.19 L 243.75 7.03 L 145.31 0.00 L 51.56 18.75 L 21.09 44.53 L 2.34 82.03 L 0.00 145.31 L 9.38 182.81 L 44.53 234.38 L 86.72 262.50 L 140.62 274.22 L 278.91 278.91 L 300.00 274.22 L 307.03 264.84 L 309.38 225.00 L 295.31 180.47 L 257.81 124.22 L 206.25 98.44" stroke="white" fill="transparent"/>
	<path d = "M 189.84 72.66 L 152.34 60.94 L 112.50 63.28 L 89.06 84.38 L 77.34 114.84 L 77.34 159.38 L 86.72 182.81 L 110.16 201.56 L 159.38 210.94 L 187.50 173.44 L 199.22 133.59 L 199.22 114.84 L 171.09 89.06" stroke="white" fill="transparent"/>
	<path d = "M 150.00 117.19 L 110.16 124.22 L 107.81 157.03 L 117.19 173.44 L 157.03 173.44 L 168.75 154.69 L 166.41 126.56" stroke="white" fill="transparent"/>
</svg>