<?xml version="1.0" encoding="UTF-8" standalone="no"?>
<!--Created with ndjsontosvg (https:https://github.com/thompson318/ndjsontosvg) 
	from the simplified Google quickdraw data set. key_id = 6663002658963456-->
<svg width="600" height="600"
	xmlns="http://www.w3.org/2000/svg">
	xmlns:ndjsontosvg="https://github.com/thompson318/ndjsontosvg"
	xmlns:quickdraw="https://quickdraw.withgoogle.com/data"
	xmlns:scikit-surgery="https://doi.org/10.1007/s11548-020-02180-5">

	<rect width="100%" height="100%" fill="black" />
	<path d = "M 206.25 105.47 L 166.41 107.81 L 110.16 140.62 L 60.94 189.84 L 60.94 267.19 L 89.06 311.72 L 121.88 342.19 L 199.22 384.38 L 271.88 410.16 L 325.78 410.16 L 372.66 400.78 L 419.53 389.06 L 445.31 367.97 L 452.34 349.22 L 452.34 283.59 L 405.47 89.06 L 367.97 23.44 L 344.53 4.69 L 323.44 0.00 L 271.88 0.00 L 199.22 18.75 L 147.66 44.53 L 112.50 72.66 L 63.28 126.56 L 39.84 171.09 L 25.78 239.06 L 30.47 307.03 L 51.56 346.88 L 75.00 377.34 L 107.81 405.47 L 140.62 419.53 L 180.47 428.91 L 332.81 426.56 L 389.06 410.16 L 414.84 389.06" stroke="white" fill="transparent"/>
	<path d = "M 450.00 370.31 L 475.78 358.59 L 510.94 358.59 L 560.16 382.03 L 592.97 419.53 L 597.66 466.41 L 585.94 478.12 L 541.41 492.19 L 475.78 494.53 L 281.25 475.78 L 150.00 435.94 L 35.16 421.88 L 0.00 391.41 L 4.69 379.69 L 32.81 370.31" stroke="white" fill="transparent"/>
</svg>