<?xml version="1.0" encoding="UTF-8" standalone="no"?>
<!--Created with ndjsontosvg (https:https://github.com/thompson318/ndjsontosvg) 
	from the simplified Google quickdraw data set. key_id = 6619009724186624-->
<svg width="600" height="600"
	xmlns="http://www.w3.org/2000/svg">
	xmlns:ndjsontosvg="https://github.com/thompson318/ndjsontosvg"
	xmlns:quickdraw="https://quickdraw.withgoogle.com/data"
	xmlns:scikit-surgery="https://doi.org/10.1007/s11548-020-02180-5">

	<rect width="100%" height="100%" fill="black" />
	<path d = "M 79.69 4.69 L 51.56 58.59 L 23.44 161.72 L 7.03 253.12 L 0.00 396.09 L 18.75 517.97 L 28.12 550.78 L 63.28 585.94 L 117.19 597.66 L 182.81 595.31 L 187.50 527.34 L 82.03 506.25 L 65.62 478.12 L 63.28 393.75 L 98.44 248.44 L 119.53 75.00 L 103.12 2.34 L 58.59 4.69" stroke="white" fill="transparent"/>
	<path d = "M 159.38 206.25 L 142.97 199.22 L 98.44 199.22 L 63.28 267.19 L 60.94 314.06 L 72.66 332.81 L 103.12 346.88 L 196.88 346.88 L 217.97 335.16 L 227.34 316.41 L 227.34 253.12 L 213.28 229.69 L 168.75 201.56 L 126.56 199.22" stroke="white" fill="transparent"/>
	<path d = "M 53.91 309.38 L 105.47 243.75 L 150.00 206.25 L 178.12 199.22 L 260.16 203.91 L 384.38 255.47 L 414.84 278.91 L 442.97 323.44 L 459.38 365.62 L 457.03 393.75 L 428.91 419.53 L 389.06 417.19 L 360.94 403.12 L 318.75 360.94 L 304.69 325.78 L 304.69 292.97 L 311.72 264.84 L 332.81 248.44" stroke="white" fill="transparent"/>
</svg>