<?xml version="1.0" encoding="UTF-8" standalone="no"?>
<!--Created with ndjsontosvg (https:https://github.com/thompson318/ndjsontosvg) 
	from the simplified Google quickdraw data set. key_id = 5849464042422272-->
<svg width="600" height="600"
	xmlns="http://www.w3.org/2000/svg">
	xmlns:ndjsontosvg="https://github.com/thompson318/ndjsontosvg"
	xmlns:quickdraw="https://quickdraw.withgoogle.com/data"
	xmlns:scikit-surgery="https://doi.org/10.1007/s11548-020-02180-5">

	<rect width="100%" height="100%" fill="black" />
	<path d = "M 269.53 375.00 L 210.94 426.56 L 150.00 454.69 L 117.19 457.03 L 75.00 445.31 L 51.56 428.91 L 14.06 372.66 L 0.00 314.06 L 9.38 262.50 L 30.47 236.72 L 93.75 199.22 L 194.53 168.75 L 318.75 161.72 L 398.44 173.44 L 461.72 227.34 L 529.69 253.12 L 546.09 297.66 L 550.78 344.53 L 550.78 384.38 L 539.06 414.84 L 522.66 433.59 L 496.88 447.66 L 414.84 447.66 L 346.88 433.59 L 278.91 384.38 L 269.53 370.31" stroke="white" fill="transparent"/>
	<path d = "M 269.53 522.66 L 311.72 588.28 L 407.81 597.66 L 468.75 581.25 L 503.91 560.16 L 541.41 513.28 L 569.53 457.03 L 581.25 407.81 L 583.59 325.78 L 597.66 208.59 L 595.31 119.53 L 550.78 0.00" stroke="white" fill="transparent"/>
</svg>