<?xml version="1.0" encoding="UTF-8" standalone="no"?>
<!--Created with ndjsontosvg (https:https://github.com/thompson318/ndjsontosvg) 
	from the simplified Google quickdraw data set. key_id = 6496440278843392-->
<svg width="600" height="600"
	xmlns="http://www.w3.org/2000/svg">
	xmlns:ndjsontosvg="https://github.com/thompson318/ndjsontosvg"
	xmlns:quickdraw="https://quickdraw.withgoogle.com/data"
	xmlns:scikit-surgery="https://doi.org/10.1007/s11548-020-02180-5">

	<rect width="100%" height="100%" fill="black" />
	<path d = "M 215.62 44.53 L 213.28 30.47 L 192.19 11.72 L 154.69 11.72 L 124.22 18.75 L 70.31 67.97 L 58.59 103.12 L 56.25 133.59 L 75.00 173.44 L 110.16 185.16 L 194.53 187.50 L 241.41 164.06 L 267.19 135.94 L 283.59 98.44 L 288.28 21.09 L 276.56 2.34 L 213.28 0.00" stroke="white" fill="transparent"/>
	<path d = "M 260.16 147.66 L 304.69 180.47 L 356.25 269.53 L 353.91 288.28 L 332.81 332.81 L 314.06 351.56 L 292.97 358.59 L 147.66 367.97 L 86.72 365.62 L 70.31 342.19 L 53.91 302.34 L 49.22 243.75 L 65.62 213.28 L 105.47 175.78" stroke="white" fill="transparent"/>
	<path d = "M 358.59 304.69 L 417.19 328.12 L 442.97 360.94 L 442.97 403.12 L 426.56 452.34 L 405.47 489.84 L 349.22 553.12 L 321.09 567.19 L 210.94 597.66 L 147.66 597.66 L 82.03 574.22 L 46.88 553.12 L 23.44 517.97 L 2.34 464.06 L 4.69 407.81 L 44.53 337.50 L 58.59 330.47" stroke="white" fill="transparent"/>
	<path d = "M 201.56 213.28 L 201.56 213.28" stroke="white" fill="transparent"/>
</svg>