<?xml version="1.0" encoding="UTF-8" standalone="no"?>
<!--Created with ndjsontosvg (https:https://github.com/thompson318/ndjsontosvg) 
	from the simplified Google quickdraw data set. key_id = 6542060305776640-->
<svg width="600" height="600"
	xmlns="http://www.w3.org/2000/svg">
	xmlns:ndjsontosvg="https://github.com/thompson318/ndjsontosvg"
	xmlns:quickdraw="https://quickdraw.withgoogle.com/data"
	xmlns:scikit-surgery="https://doi.org/10.1007/s11548-020-02180-5">

	<rect width="100%" height="100%" fill="black" />
	<path d = "M 65.62 365.62 L 37.50 393.75 L 4.69 466.41 L 2.34 522.66 L 21.09 548.44 L 84.38 578.91 L 185.16 597.66 L 243.75 590.62 L 297.66 553.12 L 321.09 496.88 L 321.09 454.69 L 309.38 414.84 L 276.56 353.91 L 227.34 318.75 L 206.25 309.38 L 154.69 309.38 L 117.19 321.09 L 77.34 342.19 L 30.47 407.81" stroke="white" fill="transparent"/>
	<path d = "M 70.31 349.22 L 51.56 332.81 L 32.81 304.69 L 28.12 255.47 L 53.91 203.91 L 77.34 180.47 L 119.53 164.06 L 150.00 164.06 L 201.56 175.78 L 243.75 189.84 L 257.81 203.91 L 264.84 243.75 L 243.75 314.06" stroke="white" fill="transparent"/>
	<path d = "M 84.38 185.16 L 75.00 182.81 L 42.19 147.66 L 37.50 89.06 L 56.25 46.88 L 84.38 18.75 L 124.22 0.00 L 171.09 4.69 L 213.28 42.19 L 232.03 121.88 L 215.62 166.41" stroke="white" fill="transparent"/>
	<path d = "M 135.94 236.72 L 150.00 260.16" stroke="white" fill="transparent"/>
</svg>