<?xml version="1.0" encoding="UTF-8" standalone="no"?>
<!--Created with ndjsontosvg (https:https://github.com/thompson318/ndjsontosvg) 
	from the simplified Google quickdraw data set. key_id = 6124187716419584-->
<svg width="600" height="600"
	xmlns="http://www.w3.org/2000/svg">
	xmlns:ndjsontosvg="https://github.com/thompson318/ndjsontosvg"
	xmlns:quickdraw="https://quickdraw.withgoogle.com/data"
	xmlns:scikit-surgery="https://doi.org/10.1007/s11548-020-02180-5">

	<rect width="100%" height="100%" fill="black" />
	<path d = "M 67.97 555.47 L 46.88 541.41 L 14.06 492.19 L 2.34 459.38 L 0.00 389.06 L 42.19 314.06 L 79.69 290.62 L 131.25 283.59 L 225.00 285.94 L 302.34 316.41 L 400.78 370.31 L 435.94 396.09 L 478.12 452.34 L 503.91 506.25 L 510.94 571.88 L 494.53 590.62 L 464.06 597.66 L 384.38 592.97 L 70.31 503.91 L 9.38 454.69" stroke="white" fill="transparent"/>
	<path d = "M 135.94 236.72 L 135.94 194.53 L 166.41 159.38 L 194.53 142.97 L 246.09 128.91 L 321.09 126.56 L 335.16 164.06 L 335.16 203.91 L 278.91 246.09 L 232.03 257.81 L 180.47 267.19 L 86.72 267.19 L 60.94 255.47 L 49.22 239.06 L 49.22 203.91 L 75.00 166.41" stroke="white" fill="transparent"/>
	<path d = "M 178.12 82.03 L 185.16 53.91 L 199.22 35.16 L 248.44 2.34 L 276.56 0.00 L 285.94 16.41 L 285.94 44.53 L 283.59 58.59 L 257.81 89.06 L 194.53 124.22 L 182.81 110.16 L 182.81 37.50" stroke="white" fill="transparent"/>
	<path d = "M 311.72 173.44 L 393.75 138.28 L 417.19 100.78" stroke="white" fill="transparent"/>
</svg>