<?xml version="1.0" encoding="UTF-8" standalone="no"?>
<!--Created with ndjsontosvg (https:https://github.com/thompson318/ndjsontosvg) 
	from the simplified Google quickdraw data set. key_id = 5469190439829504-->
<svg width="600" height="600"
	xmlns="http://www.w3.org/2000/svg">
	xmlns:ndjsontosvg="https://github.com/thompson318/ndjsontosvg"
	xmlns:quickdraw="https://quickdraw.withgoogle.com/data"
	xmlns:scikit-surgery="https://doi.org/10.1007/s11548-020-02180-5">

	<rect width="100%" height="100%" fill="black" />
	<path d = "M 11.72 133.59 L 119.53 180.47 L 203.91 206.25 L 332.81 302.34 L 386.72 325.78 L 426.56 377.34 L 494.53 426.56 L 525.00 473.44" stroke="white" fill="transparent"/>
	<path d = "M 145.31 445.31 L 215.62 389.06 L 236.72 363.28 L 267.19 253.12 L 356.25 110.16 L 365.62 79.69 L 433.59 21.09" stroke="white" fill="transparent"/>
	<path d = "M 0.00 309.38 L 152.34 250.78 L 187.50 227.34 L 365.62 196.88 L 527.34 182.81 L 597.66 171.09" stroke="white" fill="transparent"/>
	<path d = "M 225.00 0.00 L 253.12 119.53 L 311.72 262.50 L 318.75 335.16 L 330.47 360.94 L 339.84 414.84 L 342.19 494.53" stroke="white" fill="transparent"/>
</svg>