<?xml version="1.0" encoding="UTF-8" standalone="no"?>
<!--Created with ndjsontosvg (https:https://github.com/thompson318/ndjsontosvg) 
	from the simplified Google quickdraw data set. key_id = 5309848428216320-->
<svg width="600" height="600"
	xmlns="http://www.w3.org/2000/svg">
	xmlns:ndjsontosvg="https://github.com/thompson318/ndjsontosvg"
	xmlns:quickdraw="https://quickdraw.withgoogle.com/data"
	xmlns:scikit-surgery="https://doi.org/10.1007/s11548-020-02180-5">

	<rect width="100%" height="100%" fill="black" />
	<path d = "M 382.03 46.88 L 290.62 44.53 L 253.12 49.22 L 208.59 65.62 L 126.56 117.19 L 67.97 185.16 L 60.94 217.97 L 79.69 229.69 L 264.84 222.66 L 382.03 196.88 L 417.19 168.75 L 431.25 150.00 L 433.59 119.53 L 424.22 70.31 L 363.28 14.06 L 311.72 0.00 L 246.09 4.69 L 187.50 39.84 L 154.69 75.00" stroke="white" fill="transparent"/>
	<path d = "M 428.91 189.84 L 335.16 196.88 L 278.91 208.59 L 194.53 239.06 L 119.53 276.56 L 30.47 358.59 L 0.00 417.19 L 0.00 440.62 L 14.06 450.00 L 84.38 450.00 L 382.03 417.19 L 461.72 393.75 L 492.19 372.66 L 513.28 332.81 L 515.62 288.28 L 503.91 225.00 L 468.75 173.44 L 435.94 145.31 L 400.78 131.25 L 363.28 128.91 L 309.38 135.94 L 248.44 164.06 L 168.75 220.31" stroke="white" fill="transparent"/>
	<path d = "M 412.50 386.72 L 278.91 377.34 L 227.34 398.44 L 140.62 450.00 L 86.72 501.56 L 63.28 541.41 L 60.94 590.62 L 98.44 597.66 L 140.62 592.97 L 255.47 567.19 L 442.97 546.09 L 464.06 541.41 L 478.12 527.34 L 478.12 499.22 L 466.41 442.97 L 426.56 396.09 L 389.06 370.31 L 339.84 351.56 L 311.72 351.56 L 234.38 382.03" stroke="white" fill="transparent"/>
	<path d = "M 227.34 98.44 L 243.75 140.62 L 257.81 150.00 L 262.50 119.53 L 276.56 119.53 L 283.59 107.81 L 257.81 110.16" stroke="white" fill="transparent"/>
</svg>