<?xml version="1.0" encoding="UTF-8" standalone="no"?>
<!--Created with ndjsontosvg (https:https://github.com/thompson318/ndjsontosvg) 
	from the simplified Google quickdraw data set. key_id = 4769047684055040-->
<svg width="600" height="600"
	xmlns="http://www.w3.org/2000/svg">
	xmlns:ndjsontosvg="https://github.com/thompson318/ndjsontosvg"
	xmlns:quickdraw="https://quickdraw.withgoogle.com/data"
	xmlns:scikit-surgery="https://doi.org/10.1007/s11548-020-02180-5">

	<rect width="100%" height="100%" fill="black" />
	<path d = "M 213.28 342.19 L 86.72 342.19 L 30.47 363.28 L 18.75 375.00 L 2.34 417.19 L 0.00 501.56 L 9.38 522.66 L 25.78 536.72 L 96.09 576.56 L 206.25 581.25 L 274.22 597.66 L 309.38 597.66 L 344.53 571.88 L 389.06 555.47 L 421.88 529.69 L 438.28 492.19 L 438.28 459.38 L 412.50 417.19 L 389.06 389.06 L 344.53 358.59 L 203.91 309.38 L 152.34 311.72 L 89.06 335.16" stroke="white" fill="transparent"/>
	<path d = "M 100.78 311.72 L 39.84 264.84 L 37.50 217.97 L 46.88 194.53 L 70.31 175.78 L 154.69 147.66 L 260.16 147.66 L 302.34 175.78 L 323.44 215.62 L 325.78 227.34 L 304.69 283.59 L 269.53 300.00 L 225.00 300.00" stroke="white" fill="transparent"/>
	<path d = "M 138.28 121.88 L 126.56 121.88 L 86.72 67.97 L 86.72 53.91 L 103.12 30.47 L 147.66 0.00 L 185.16 0.00 L 225.00 14.06 L 227.34 96.09 L 196.88 128.91 L 187.50 150.00 L 166.41 138.28" stroke="white" fill="transparent"/>
</svg>