<?xml version="1.0" encoding="UTF-8" standalone="no"?>
<!--Created with ndjsontosvg (https:https://github.com/thompson318/ndjsontosvg) 
	from the simplified Google quickdraw data set. key_id = 5034300120498176-->
<svg width="600" height="600"
	xmlns="http://www.w3.org/2000/svg">
	xmlns:ndjsontosvg="https://github.com/thompson318/ndjsontosvg"
	xmlns:quickdraw="https://quickdraw.withgoogle.com/data"
	xmlns:scikit-surgery="https://doi.org/10.1007/s11548-020-02180-5">

	<rect width="100%" height="100%" fill="black" />
	<path d = "M 532.03 168.75 L 529.69 135.94 L 513.28 112.50 L 487.50 93.75 L 400.78 49.22 L 250.78 2.34 L 145.31 0.00 L 93.75 25.78 L 53.91 65.62 L 25.78 119.53 L 4.69 182.81 L 2.34 332.81 L 28.12 400.78 L 72.66 457.03 L 173.44 546.09 L 283.59 585.94 L 386.72 590.62 L 435.94 571.88 L 480.47 541.41 L 517.97 496.88 L 550.78 442.97 L 571.88 384.38 L 576.56 246.09 L 567.19 178.12 L 543.75 117.19 L 506.25 63.28" stroke="white" fill="transparent"/>
	<path d = "M 318.75 21.09 L 314.06 32.81 L 206.25 138.28 L 194.53 173.44 L 194.53 208.59 L 222.66 229.69 L 227.34 274.22 L 236.72 283.59 L 271.88 292.97 L 281.25 311.72 L 405.47 316.41 L 457.03 302.34 L 492.19 278.91 L 506.25 255.47 L 508.59 178.12 L 525.00 110.16" stroke="white" fill="transparent"/>
	<path d = "M 215.62 173.44 L 185.16 159.38 L 157.03 164.06 L 126.56 189.84 L 119.53 229.69 L 107.81 246.09 L 39.84 300.00 L 35.16 332.81 L 51.56 440.62 L 77.34 466.41 L 150.00 482.81 L 175.78 482.81 L 227.34 435.94 L 243.75 407.81 L 285.94 288.28" stroke="white" fill="transparent"/>
	<path d = "M 358.59 309.38 L 370.31 297.66 L 379.69 297.66 L 414.84 339.84 L 419.53 407.81 L 410.16 447.66 L 442.97 492.19 L 442.97 529.69 L 417.19 569.53 L 398.44 585.94 L 339.84 588.28 L 307.03 597.66 L 271.88 590.62 L 243.75 553.12 L 241.41 513.28 L 278.91 447.66 L 304.69 370.31 L 309.38 309.38 L 292.97 267.19" stroke="white" fill="transparent"/>
	<path d = "M 185.16 124.22 L 145.31 98.44 L 112.50 93.75 L 77.34 105.47 L 58.59 124.22 L 14.06 128.91 L 14.06 194.53 L 58.59 246.09" stroke="white" fill="transparent"/>
</svg>