<?xml version="1.0" encoding="UTF-8" standalone="no"?>
<!--Created with ndjsontosvg (https:https://github.com/thompson318/ndjsontosvg) 
	from the simplified Google quickdraw data set. key_id = 5161066218651648-->
<svg width="600" height="600"
	xmlns="http://www.w3.org/2000/svg">
	xmlns:ndjsontosvg="https://github.com/thompson318/ndjsontosvg"
	xmlns:quickdraw="https://quickdraw.withgoogle.com/data"
	xmlns:scikit-surgery="https://doi.org/10.1007/s11548-020-02180-5">

	<rect width="100%" height="100%" fill="black" />
	<path d = "M 417.19 49.22 L 382.03 18.75 L 353.91 7.03 L 318.75 0.00 L 229.69 0.00 L 180.47 4.69 L 133.59 23.44 L 96.09 49.22 L 37.50 114.84 L 18.75 159.38 L 0.00 248.44 L 2.34 358.59 L 35.16 454.69 L 65.62 499.22 L 114.84 555.47 L 180.47 588.28 L 255.47 597.66 L 342.19 595.31 L 389.06 583.59 L 466.41 550.78 L 517.97 489.84 L 560.16 367.97 L 569.53 290.62 L 567.19 159.38 L 555.47 112.50 L 508.59 25.78 L 478.12 4.69 L 414.84 4.69" stroke="white" fill="transparent"/>
	<path d = "M 194.53 515.62 L 194.53 480.47 L 234.38 386.72 L 241.41 358.59 L 323.44 328.12 L 337.50 330.47 L 344.53 353.91 L 459.38 499.22" stroke="white" fill="transparent"/>
	<path d = "M 543.75 278.91 L 421.88 278.91 L 417.19 152.34 L 419.53 135.94 L 447.66 105.47 L 527.34 65.62 L 539.06 51.56" stroke="white" fill="transparent"/>
	<path d = "M 353.91 7.03 L 314.06 49.22 L 264.84 117.19 L 227.34 133.59 L 175.78 145.31 L 164.06 128.91 L 152.34 65.62 L 131.25 18.75" stroke="white" fill="transparent"/>
	<path d = "M 18.75 178.12 L 67.97 178.12 L 114.84 168.75 L 138.28 241.41 L 131.25 267.19 L 77.34 328.12 L 67.97 358.59" stroke="white" fill="transparent"/>
	<path d = "M 196.88 196.88 L 208.59 213.28 L 222.66 271.88 L 276.56 274.22 L 311.72 260.16 L 349.22 260.16 L 365.62 203.91 L 367.97 159.38 L 351.56 152.34 L 262.50 152.34 L 232.03 159.38" stroke="white" fill="transparent"/>
	<path d = "M 271.88 450.00 L 316.41 398.44 L 304.69 447.66 L 269.53 510.94 L 239.06 534.38 L 234.38 480.47 L 248.44 447.66 L 281.25 400.78 L 297.66 391.41 L 300.00 414.84 L 288.28 454.69 L 253.12 522.66 L 250.78 489.84 L 271.88 400.78 L 300.00 363.28 L 332.81 367.97 L 358.59 464.06 L 365.62 513.28 L 365.62 581.25 L 342.19 590.62 L 323.44 553.12 L 314.06 506.25 L 309.38 417.19 L 353.91 412.50 L 384.38 421.88" stroke="white" fill="transparent"/>
	<path d = "M 496.88 140.62 L 492.19 229.69 L 485.16 246.09 L 473.44 250.78 L 471.09 220.31 L 471.09 203.91 L 482.81 187.50 L 496.88 182.81" stroke="white" fill="transparent"/>
</svg>