<?xml version="1.0" encoding="UTF-8" standalone="no"?>
<!--Created with ndjsontosvg (https:https://github.com/thompson318/ndjsontosvg) 
	from the simplified Google quickdraw data set. key_id = 5996294008995840-->
<svg width="600" height="600"
	xmlns="http://www.w3.org/2000/svg">
	xmlns:ndjsontosvg="https://github.com/thompson318/ndjsontosvg"
	xmlns:quickdraw="https://quickdraw.withgoogle.com/data"
	xmlns:scikit-surgery="https://doi.org/10.1007/s11548-020-02180-5">

	<rect width="100%" height="100%" fill="black" />
	<path d = "M 276.56 2.34 L 503.91 7.03 L 520.31 16.41" stroke="white" fill="transparent"/>
	<path d = "M 271.88 0.00 L 271.88 201.56 L 260.16 260.16 L 232.03 339.84 L 210.94 363.28 L 140.62 382.03 L 82.03 414.84 L 44.53 454.69 L 0.00 517.97 L 4.69 546.09 L 25.78 567.19 L 65.62 588.28 L 100.78 595.31 L 208.59 592.97 L 403.12 543.75 L 485.16 503.91 L 492.19 480.47 L 487.50 393.75 L 508.59 285.94 L 506.25 77.34 L 510.94 28.12 L 517.97 23.44" stroke="white" fill="transparent"/>
	<path d = "M 496.88 349.22 L 445.31 358.59 L 396.09 386.72 L 353.91 445.31 L 346.88 466.41 L 346.88 496.88" stroke="white" fill="transparent"/>
</svg>