<?xml version="1.0" encoding="UTF-8" standalone="no"?>
<!--Created with ndjsontosvg (https:https://github.com/thompson318/ndjsontosvg) 
	from the simplified Google quickdraw data set. key_id = 5778526219272192-->
<svg width="600" height="600"
	xmlns="http://www.w3.org/2000/svg">
	xmlns:ndjsontosvg="https://github.com/thompson318/ndjsontosvg"
	xmlns:quickdraw="https://quickdraw.withgoogle.com/data"
	xmlns:scikit-surgery="https://doi.org/10.1007/s11548-020-02180-5">

	<rect width="100%" height="100%" fill="black" />
	<path d = "M 35.16 14.06 L 171.09 23.44 L 379.69 2.34" stroke="white" fill="transparent"/>
	<path d = "M 23.44 44.53 L 32.81 60.94 L 0.00 203.91 L 0.00 426.56 L 30.47 447.66 L 128.91 480.47 L 356.25 478.12 L 457.03 485.16 L 510.94 464.06 L 571.88 414.84 L 590.62 382.03 L 597.66 351.56 L 562.50 318.75 L 522.66 297.66 L 400.78 295.31 L 384.38 288.28 L 375.00 274.22 L 349.22 225.00 L 344.53 208.59 L 351.56 58.59 L 356.25 25.78 L 375.00 0.00" stroke="white" fill="transparent"/>
	<path d = "M 4.69 145.31 L 274.22 150.00 L 356.25 133.59" stroke="white" fill="transparent"/>
	<path d = "M 112.50 30.47 L 119.53 124.22" stroke="white" fill="transparent"/>
</svg>