<?xml version="1.0" encoding="UTF-8" standalone="no"?>
<!--Created with ndjsontosvg (https:https://github.com/thompson318/ndjsontosvg) 
	from the simplified Google quickdraw data set. key_id = 6019846401687552-->
<svg width="600" height="600"
	xmlns="http://www.w3.org/2000/svg">
	xmlns:ndjsontosvg="https://github.com/thompson318/ndjsontosvg"
	xmlns:quickdraw="https://quickdraw.withgoogle.com/data"
	xmlns:scikit-surgery="https://doi.org/10.1007/s11548-020-02180-5">

	<rect width="100%" height="100%" fill="black" />
	<path d = "M 248.44 154.69 L 236.72 269.53 L 269.53 370.31 L 271.88 407.81 L 206.25 447.66 L 166.41 447.66 L 121.88 431.25 L 0.00 349.22 L 23.44 405.47 L 51.56 503.91 L 89.06 560.16 L 135.94 574.22 L 297.66 597.66 L 384.38 583.59 L 414.84 567.19 L 428.91 550.78 L 464.06 471.09 L 466.41 400.78 L 445.31 173.44 L 414.84 42.19 L 419.53 0.00" stroke="white" fill="transparent"/>
	<path d = "M 234.38 37.50 L 239.06 110.16" stroke="white" fill="transparent"/>
	<path d = "M 234.38 248.44 L 276.56 239.06 L 332.81 215.62 L 403.12 208.59 L 431.25 210.94 L 459.38 229.69" stroke="white" fill="transparent"/>
</svg>