<?xml version="1.0" encoding="UTF-8" standalone="no"?>
<!--Created with ndjsontosvg (https:https://github.com/thompson318/ndjsontosvg) 
	from the simplified Google quickdraw data set. key_id = 6614521403670528-->
<svg width="600" height="600"
	xmlns="http://www.w3.org/2000/svg">
	xmlns:ndjsontosvg="https://github.com/thompson318/ndjsontosvg"
	xmlns:quickdraw="https://quickdraw.withgoogle.com/data"
	xmlns:scikit-surgery="https://doi.org/10.1007/s11548-020-02180-5">

	<rect width="100%" height="100%" fill="black" />
	<path d = "M 128.91 70.31 L 398.44 53.91 L 590.62 4.69" stroke="white" fill="transparent"/>
	<path d = "M 597.66 0.00 L 501.56 58.59 L 377.34 107.81 L 295.31 121.88 L 133.59 124.22" stroke="white" fill="transparent"/>
	<path d = "M 157.03 133.59 L 140.62 117.19 L 140.62 56.25" stroke="white" fill="transparent"/>
	<path d = "M 581.25 16.41 L 567.19 46.88 L 529.69 86.72 L 417.19 173.44 L 278.91 241.41 L 164.06 271.88" stroke="white" fill="transparent"/>
	<path d = "M 180.47 304.69 L 166.41 292.97 L 135.94 185.16 L 131.25 89.06" stroke="white" fill="transparent"/>
	<path d = "M 138.28 67.97 L 133.59 260.16" stroke="white" fill="transparent"/>
	<path d = "M 196.88 260.16 L 182.81 278.91 L 164.06 288.28 L 93.75 288.28 L 35.16 264.84 L 21.09 248.44 L 18.75 234.38" stroke="white" fill="transparent"/>
	<path d = "M 110.16 297.66 L 84.38 285.94 L 35.16 194.53" stroke="white" fill="transparent"/>
	<path d = "M 110.16 58.59 L 100.78 126.56 L 72.66 203.91 L 30.47 239.06 L 0.00 243.75" stroke="white" fill="transparent"/>
	<path d = "M 75.00 203.91 L 89.06 154.69 L 89.06 84.38 L 84.38 93.75" stroke="white" fill="transparent"/>
	<path d = "M 37.50 239.06 L 35.16 84.38 L 42.19 58.59" stroke="white" fill="transparent"/>
</svg>