<?xml version="1.0" encoding="UTF-8" standalone="no"?>
<!--Created with ndjsontosvg (https:https://github.com/thompson318/ndjsontosvg) 
	from the simplified Google quickdraw data set. key_id = 5343686881705984-->
<svg width="600" height="600"
	xmlns="http://www.w3.org/2000/svg">
	xmlns:ndjsontosvg="https://github.com/thompson318/ndjsontosvg"
	xmlns:quickdraw="https://quickdraw.withgoogle.com/data"
	xmlns:scikit-surgery="https://doi.org/10.1007/s11548-020-02180-5">

	<rect width="100%" height="100%" fill="black" />
	<path d = "M 234.38 77.34 L 147.66 56.25 L 63.28 51.56 L 53.91 166.41 L 82.03 187.50 L 250.78 199.22 L 300.00 189.84 L 311.72 180.47 L 321.09 168.75 L 325.78 135.94 L 307.03 96.09 L 283.59 77.34 L 217.97 70.31" stroke="white" fill="transparent"/>
	<path d = "M 166.41 60.94 L 185.16 18.75 L 227.34 2.34 L 215.62 30.47 L 208.59 77.34" stroke="white" fill="transparent"/>
	<path d = "M 203.91 42.19 L 234.38 28.12" stroke="white" fill="transparent"/>
	<path d = "M 227.34 28.12 L 243.75 35.16 L 246.09 25.78 L 203.91 0.00" stroke="white" fill="transparent"/>
	<path d = "M 0.00 161.72 L 25.78 140.62 L 72.66 128.91 L 140.62 157.03 L 178.12 159.38 L 243.75 159.38 L 372.66 131.25 L 442.97 171.09 L 468.75 175.78 L 485.16 171.09" stroke="white" fill="transparent"/>
	<path d = "M 445.31 107.81 L 597.66 53.91" stroke="white" fill="transparent"/>
	<path d = "M 487.50 39.84 L 541.41 25.78" stroke="white" fill="transparent"/>
	<path d = "M 447.66 105.47 L 503.91 84.38 L 536.72 79.69" stroke="white" fill="transparent"/>
	<path d = "M 396.09 75.00 L 400.78 70.31" stroke="white" fill="transparent"/>
</svg>