<?xml version="1.0" encoding="UTF-8" standalone="no"?>
<!--Created with ndjsontosvg (https:https://github.com/thompson318/ndjsontosvg) 
	from the simplified Google quickdraw data set. key_id = 6293165277446144-->
<svg width="600" height="600"
	xmlns="http://www.w3.org/2000/svg">
	xmlns:ndjsontosvg="https://github.com/thompson318/ndjsontosvg"
	xmlns:quickdraw="https://quickdraw.withgoogle.com/data"
	xmlns:scikit-surgery="https://doi.org/10.1007/s11548-020-02180-5">

	<rect width="100%" height="100%" fill="black" />
	<path d = "M 135.94 140.62 L 182.81 152.34 L 389.06 152.34 L 534.38 135.94 L 539.06 152.34 L 515.62 187.50 L 485.16 213.28 L 417.19 243.75 L 353.91 253.12 L 128.91 250.78 L 96.09 210.94 L 86.72 185.16 L 124.22 164.06 L 187.50 152.34" stroke="white" fill="transparent"/>
	<path d = "M 199.22 150.00 L 189.84 89.06 L 194.53 51.56 L 234.38 35.16 L 393.75 0.00 L 403.12 7.03 L 407.81 32.81 L 412.50 150.00" stroke="white" fill="transparent"/>
	<path d = "M 229.69 140.62 L 220.31 119.53" stroke="white" fill="transparent"/>
	<path d = "M 208.59 150.00 L 208.59 79.69 L 234.38 67.97 L 414.84 28.12 L 407.81 154.69" stroke="white" fill="transparent"/>
	<path d = "M 79.69 185.16 L 65.62 189.84 L 56.25 217.97 L 58.59 239.06 L 70.31 255.47 L 96.09 274.22 L 100.78 262.50 L 86.72 189.84" stroke="white" fill="transparent"/>
	<path d = "M 63.28 257.81 L 28.12 278.91 L 9.38 314.06" stroke="white" fill="transparent"/>
	<path d = "M 75.00 288.28 L 0.00 316.41" stroke="white" fill="transparent"/>
	<path d = "M 93.75 323.44 L 28.12 356.25" stroke="white" fill="transparent"/>
	<path d = "M 25.78 307.03 L 93.75 262.50 L 140.62 253.12 L 311.72 290.62 L 471.09 246.09 L 597.66 253.12" stroke="white" fill="transparent"/>
	<path d = "M 112.50 264.84 L 168.75 232.03 L 203.91 222.66 L 379.69 241.41 L 454.69 232.03 L 590.62 194.53" stroke="white" fill="transparent"/>
</svg>