<?xml version="1.0" encoding="UTF-8" standalone="no"?>
<!--Created with ndjsontosvg (https:https://github.com/thompson318/ndjsontosvg) 
	from the simplified Google quickdraw data set. key_id = 5044279091134464-->
<svg width="600" height="600"
	xmlns="http://www.w3.org/2000/svg">
	xmlns:ndjsontosvg="https://github.com/thompson318/ndjsontosvg"
	xmlns:quickdraw="https://quickdraw.withgoogle.com/data"
	xmlns:scikit-surgery="https://doi.org/10.1007/s11548-020-02180-5">

	<rect width="100%" height="100%" fill="black" />
	<path d = "M 396.09 105.47 L 356.25 117.19 L 309.38 114.84 L 260.16 98.44 L 175.78 51.56 L 171.09 98.44 L 189.84 147.66 L 215.62 178.12 L 253.12 196.88 L 314.06 203.91 L 356.25 187.50 L 375.00 171.09 L 396.09 112.50 L 396.09 86.72" stroke="white" fill="transparent"/>
	<path d = "M 185.16 56.25 L 206.25 16.41" stroke="white" fill="transparent"/>
	<path d = "M 206.25 23.44 L 185.16 0.00 L 339.84 46.88 L 386.72 51.56 L 403.12 107.81" stroke="white" fill="transparent"/>
	<path d = "M 400.78 103.12 L 454.69 98.44 L 459.38 117.19 L 445.31 133.59 L 424.22 142.97 L 389.06 135.94" stroke="white" fill="transparent"/>
	<path d = "M 466.41 121.88 L 478.12 114.84 L 482.81 91.41 L 464.06 79.69 L 461.72 105.47 L 482.81 124.22 L 513.28 119.53 L 520.31 110.16 L 525.00 93.75 L 515.62 79.69 L 522.66 103.12 L 546.09 117.19 L 560.16 117.19 L 571.88 105.47 L 571.88 93.75 L 553.12 82.03 L 550.78 91.41 L 571.88 110.16 L 595.31 107.81 L 597.66 89.06" stroke="white" fill="transparent"/>
	<path d = "M 0.00 189.84 L 9.38 194.53 L 37.50 159.38 L 79.69 185.16 L 110.16 164.06 L 145.31 178.12 L 164.06 159.38 L 201.56 185.16 L 220.31 187.50 L 232.03 180.47 L 264.84 199.22 L 302.34 187.50 L 344.53 196.88 L 363.28 175.78 L 396.09 185.16 L 419.53 171.09 L 428.91 173.44 L 442.97 196.88 L 459.38 199.22 L 492.19 166.41 L 503.91 185.16 L 520.31 194.53 L 550.78 164.06 L 595.31 171.09 L 597.66 154.69" stroke="white" fill="transparent"/>
</svg>