<?xml version="1.0" encoding="UTF-8" standalone="no"?>
<!--Created with ndjsontosvg (https:https://github.com/thompson318/ndjsontosvg) 
	from the simplified Google quickdraw data set. key_id = 5894529091633152-->
<svg width="600" height="600"
	xmlns="http://www.w3.org/2000/svg">
	xmlns:ndjsontosvg="https://github.com/thompson318/ndjsontosvg"
	xmlns:quickdraw="https://quickdraw.withgoogle.com/data"
	xmlns:scikit-surgery="https://doi.org/10.1007/s11548-020-02180-5">

	<rect width="100%" height="100%" fill="black" />
	<path d = "M 201.56 58.59 L 433.59 70.31" stroke="white" fill="transparent"/>
	<path d = "M 196.88 56.25 L 199.22 72.66 L 217.97 96.09 L 236.72 105.47 L 267.19 112.50 L 384.38 107.81" stroke="white" fill="transparent"/>
	<path d = "M 428.91 82.03 L 379.69 107.81" stroke="white" fill="transparent"/>
	<path d = "M 377.34 107.81 L 377.34 107.81" stroke="white" fill="transparent"/>
	<path d = "M 229.69 58.59 L 255.47 2.34 L 335.16 0.00 L 365.62 11.72 L 393.75 35.16 L 410.16 67.97" stroke="white" fill="transparent"/>
	<path d = "M 264.84 25.78 L 260.16 51.56" stroke="white" fill="transparent"/>
	<path d = "M 257.81 51.56 L 257.81 51.56" stroke="white" fill="transparent"/>
	<path d = "M 271.88 18.75 L 283.59 21.09 L 271.88 65.62" stroke="white" fill="transparent"/>
	<path d = "M 147.66 147.66 L 159.38 100.78 L 168.75 93.75 L 199.22 121.88 L 222.66 131.25 L 318.75 100.78 L 363.28 112.50 L 426.56 112.50 L 468.75 124.22 L 517.97 117.19 L 597.66 121.88" stroke="white" fill="transparent"/>
	<path d = "M 236.72 164.06 L 283.59 142.97 L 325.78 166.41 L 349.22 171.09 L 412.50 159.38 L 503.91 164.06 L 553.12 159.38" stroke="white" fill="transparent"/>
	<path d = "M 0.00 105.47 L 25.78 86.72 L 56.25 77.34 L 91.41 107.81 L 140.62 91.41 L 225.00 121.88 L 241.41 119.53" stroke="white" fill="transparent"/>
	<path d = "M 243.75 119.53 L 248.44 117.19" stroke="white" fill="transparent"/>
</svg>