<?xml version="1.0" encoding="UTF-8" standalone="no"?>
<!--Created with ndjsontosvg (https:https://github.com/thompson318/ndjsontosvg) 
	from the simplified Google quickdraw data set. key_id = 4614312259747840-->
<svg width="600" height="600"
	xmlns="http://www.w3.org/2000/svg">
	xmlns:ndjsontosvg="https://github.com/thompson318/ndjsontosvg"
	xmlns:quickdraw="https://quickdraw.withgoogle.com/data"
	xmlns:scikit-surgery="https://doi.org/10.1007/s11548-020-02180-5">

	<rect width="100%" height="100%" fill="black" />
	<path d = "M 234.38 65.62 L 597.66 65.62" stroke="white" fill="transparent"/>
	<path d = "M 229.69 67.97 L 232.03 161.72 L 241.41 196.88 L 311.72 203.91 L 461.72 180.47 L 513.28 164.06 L 567.19 121.88 L 590.62 49.22" stroke="white" fill="transparent"/>
	<path d = "M 356.25 67.97 L 353.91 2.34 L 421.88 0.00 L 426.56 72.66" stroke="white" fill="transparent"/>
	<path d = "M 203.91 58.59 L 150.00 39.84 L 70.31 42.19 L 30.47 58.59 L 110.16 58.59 L 28.12 105.47 L 0.00 128.91 L 9.38 133.59 L 77.34 107.81 L 21.09 157.03 L 46.88 159.38 L 84.38 145.31 L 39.84 192.19 L 32.81 220.31 L 49.22 213.28 L 100.78 168.75 L 56.25 234.38 L 67.97 236.72 L 96.09 206.25 L 72.66 255.47 L 110.16 225.00 L 110.16 248.44 L 166.41 178.12 L 201.56 159.38" stroke="white" fill="transparent"/>
</svg>