<?xml version="1.0" encoding="UTF-8" standalone="no"?>
<!--Created with ndjsontosvg (https:https://github.com/thompson318/ndjsontosvg) 
	from the simplified Google quickdraw data set. key_id = 5589766810632192-->
<svg width="600" height="600"
	xmlns="http://www.w3.org/2000/svg">
	xmlns:ndjsontosvg="https://github.com/thompson318/ndjsontosvg"
	xmlns:quickdraw="https://quickdraw.withgoogle.com/data"
	xmlns:scikit-surgery="https://doi.org/10.1007/s11548-020-02180-5">

	<rect width="100%" height="100%" fill="black" />
	<path d = "M 346.88 110.16 L 157.03 133.59 L 121.88 150.00 L 105.47 171.09 L 107.81 182.81 L 121.88 192.19 L 222.66 246.09 L 264.84 257.81 L 346.88 260.16 L 403.12 239.06 L 454.69 199.22 L 487.50 157.03 L 489.84 117.19 L 454.69 103.12 L 389.06 100.78 L 283.59 121.88" stroke="white" fill="transparent"/>
	<path d = "M 232.03 121.88 L 232.03 89.06 L 302.34 0.00 L 367.97 56.25 L 382.03 77.34 L 386.72 112.50" stroke="white" fill="transparent"/>
	<path d = "M 295.31 51.56 L 290.62 93.75 L 304.69 103.12 L 325.78 98.44 L 330.47 49.22 L 300.00 49.22 L 288.28 56.25" stroke="white" fill="transparent"/>
	<path d = "M 93.75 131.25 L 192.19 63.28 L 262.50 35.16" stroke="white" fill="transparent"/>
	<path d = "M 140.62 112.50 L 201.56 107.81 L 335.16 82.03" stroke="white" fill="transparent"/>
	<path d = "M 114.84 297.66 L 126.56 283.59 L 166.41 269.53 L 208.59 269.53 L 253.12 295.31 L 292.97 302.34 L 321.09 302.34 L 389.06 271.88 L 525.00 281.25 L 595.31 302.34" stroke="white" fill="transparent"/>
	<path d = "M 42.19 285.94 L 75.00 262.50 L 103.12 253.12 L 135.94 253.12 L 152.34 255.47 L 171.09 276.56 L 182.81 314.06 L 196.88 325.78 L 257.81 325.78 L 330.47 292.97 L 353.91 292.97 L 396.09 323.44 L 445.31 325.78 L 536.72 255.47 L 571.88 255.47 L 592.97 278.91" stroke="white" fill="transparent"/>
	<path d = "M 0.00 215.62 L 150.00 215.62 L 276.56 260.16 L 335.16 271.88 L 410.16 248.44 L 428.91 236.72 L 597.66 239.06" stroke="white" fill="transparent"/>
	<path d = "M 77.34 372.66 L 166.41 311.72 L 210.94 297.66 L 250.78 300.00 L 290.62 330.47 L 321.09 342.19 L 384.38 321.09 L 473.44 330.47 L 578.91 325.78" stroke="white" fill="transparent"/>
</svg>