<?xml version="1.0" encoding="UTF-8" standalone="no"?>
<!--Created with ndjsontosvg (https:https://github.com/thompson318/ndjsontosvg) 
	from the simplified Google quickdraw data set. key_id = 5510857628844032-->
<svg width="600" height="600"
	xmlns="http://www.w3.org/2000/svg">
	xmlns:ndjsontosvg="https://github.com/thompson318/ndjsontosvg"
	xmlns:quickdraw="https://quickdraw.withgoogle.com/data"
	xmlns:scikit-surgery="https://doi.org/10.1007/s11548-020-02180-5">

	<rect width="100%" height="100%" fill="black" />
	<path d = "M 342.19 295.31 L 321.09 274.22 L 300.00 269.53 L 220.31 276.56 L 173.44 260.16 L 145.31 264.84 L 119.53 278.91 L 67.97 283.59 L 46.88 316.41 L 32.81 384.38 L 37.50 410.16 L 60.94 428.91 L 232.03 473.44 L 283.59 447.66 L 363.28 457.03 L 382.03 445.31 L 421.88 389.06 L 428.91 363.28 L 403.12 346.88 L 375.00 344.53 L 344.53 302.34 L 309.38 276.56 L 234.38 250.78" stroke="white" fill="transparent"/>
	<path d = "M 0.00 424.22 L 16.41 414.84 L 32.81 419.53 L 126.56 499.22 L 203.91 510.94 L 246.09 527.34 L 318.75 452.34 L 382.03 417.19 L 428.91 424.22 L 482.81 464.06 L 506.25 461.72 L 539.06 426.56 L 560.16 386.72 L 597.66 428.91" stroke="white" fill="transparent"/>
	<path d = "M 189.84 255.47 L 185.16 220.31 L 203.91 142.97 L 199.22 56.25 L 208.59 0.00" stroke="white" fill="transparent"/>
	<path d = "M 208.59 9.38 L 314.06 126.56 L 246.09 157.03 L 189.84 161.72" stroke="white" fill="transparent"/>
</svg>