<?xml version="1.0" encoding="UTF-8" standalone="no"?>
<!--Created with ndjsontosvg (https:https://github.com/thompson318/ndjsontosvg) 
	from the simplified Google quickdraw data set. key_id = 6580166035767296-->
<svg width="600" height="600"
	xmlns="http://www.w3.org/2000/svg">
	xmlns:ndjsontosvg="https://github.com/thompson318/ndjsontosvg"
	xmlns:quickdraw="https://quickdraw.withgoogle.com/data"
	xmlns:scikit-surgery="https://doi.org/10.1007/s11548-020-02180-5">

	<rect width="100%" height="100%" fill="black" />
	<path d = "M 468.75 91.41 L 583.59 105.47 L 597.66 110.16 L 590.62 114.84 L 307.03 189.84 L 243.75 201.56 L 166.41 206.25 L 0.00 182.81 L 79.69 159.38 L 84.38 145.31 L 107.81 121.88 L 325.78 91.41 L 485.16 91.41" stroke="white" fill="transparent"/>
	<path d = "M 447.66 89.06 L 428.91 37.50 L 396.09 35.16 L 377.34 56.25 L 412.50 63.28 L 435.94 51.56 L 445.31 35.16 L 447.66 4.69 L 428.91 0.00 L 410.16 18.75" stroke="white" fill="transparent"/>
	<path d = "M 541.41 145.31 L 546.09 154.69 L 539.06 161.72 L 478.12 185.16 L 175.78 236.72 L 133.59 253.12 L 107.81 276.56" stroke="white" fill="transparent"/>
	<path d = "M 541.41 182.81 L 506.25 213.28 L 428.91 253.12 L 314.06 262.50 L 236.72 276.56 L 210.94 297.66 L 196.88 323.44" stroke="white" fill="transparent"/>
	<path d = "M 560.16 112.50 L 494.53 112.50 L 454.69 128.91 L 403.12 135.94 L 257.81 135.94" stroke="white" fill="transparent"/>
</svg>