<?xml version="1.0" encoding="UTF-8" standalone="no"?>
<!--Created with ndjsontosvg (https:https://github.com/thompson318/ndjsontosvg) 
	from the simplified Google quickdraw data set. key_id = 4823856168566784-->
<svg width="600" height="600"
	xmlns="http://www.w3.org/2000/svg">
	xmlns:ndjsontosvg="https://github.com/thompson318/ndjsontosvg"
	xmlns:quickdraw="https://quickdraw.withgoogle.com/data"
	xmlns:scikit-surgery="https://doi.org/10.1007/s11548-020-02180-5">

	<rect width="100%" height="100%" fill="black" />
	<path d = "M 82.03 89.06 L 110.16 96.09 L 424.22 96.09 L 471.09 107.81" stroke="white" fill="transparent"/>
	<path d = "M 79.69 89.06 L 75.00 150.00 L 86.72 164.06 L 278.91 192.19 L 412.50 185.16 L 442.97 164.06 L 473.44 100.78" stroke="white" fill="transparent"/>
	<path d = "M 281.25 96.09 L 283.59 0.00 L 318.75 0.00 L 372.66 9.38 L 426.56 37.50 L 445.31 105.47" stroke="white" fill="transparent"/>
	<path d = "M 0.00 131.25 L 53.91 175.78 L 65.62 171.09 L 89.06 150.00 L 105.47 171.09 L 135.94 180.47 L 154.69 178.12 L 173.44 157.03 L 225.00 194.53 L 260.16 206.25 L 297.66 178.12 L 307.03 196.88 L 323.44 206.25 L 339.84 201.56 L 367.97 178.12 L 389.06 192.19 L 438.28 192.19 L 452.34 185.16 L 468.75 152.34 L 485.16 166.41 L 501.56 168.75 L 548.44 145.31 L 557.81 159.38 L 592.97 157.03 L 597.66 138.28" stroke="white" fill="transparent"/>
</svg>