<?xml version="1.0" encoding="UTF-8" standalone="no"?>
<!--Created with ndjsontosvg (https:https://github.com/thompson318/ndjsontosvg) 
	from the simplified Google quickdraw data set. key_id = 6639216320577536-->
<svg width="600" height="600"
	xmlns="http://www.w3.org/2000/svg">
	xmlns:ndjsontosvg="https://github.com/thompson318/ndjsontosvg"
	xmlns:quickdraw="https://quickdraw.withgoogle.com/data"
	xmlns:scikit-surgery="https://doi.org/10.1007/s11548-020-02180-5">

	<rect width="100%" height="100%" fill="black" />
	<path d = "M 384.38 168.75 L 316.41 166.41 L 262.50 175.78 L 192.19 208.59 L 147.66 250.78 L 126.56 297.66 L 126.56 349.22 L 145.31 372.66 L 192.19 389.06 L 283.59 389.06 L 417.19 372.66 L 480.47 344.53 L 496.88 323.44 L 506.25 297.66 L 501.56 241.41 L 475.78 192.19 L 445.31 157.03 L 428.91 159.38 L 424.22 173.44" stroke="white" fill="transparent"/>
	<path d = "M 485.16 7.03 L 468.75 0.00 L 393.75 37.50 L 360.94 58.59 L 342.19 86.72 L 342.19 140.62 L 353.91 173.44 L 382.03 194.53 L 419.53 194.53 L 442.97 175.78 L 473.44 105.47 L 487.50 39.84 L 482.81 21.09 L 466.41 7.03 L 450.00 7.03 L 431.25 16.41" stroke="white" fill="transparent"/>
	<path d = "M 386.72 213.28 L 339.84 292.97 L 321.09 311.72" stroke="white" fill="transparent"/>
	<path d = "M 278.91 267.19 L 414.84 269.53" stroke="white" fill="transparent"/>
	<path d = "M 508.59 217.97 L 597.66 187.50" stroke="white" fill="transparent"/>
	<path d = "M 510.94 302.34 L 581.25 339.84" stroke="white" fill="transparent"/>
	<path d = "M 452.34 353.91 L 461.72 428.91" stroke="white" fill="transparent"/>
	<path d = "M 302.34 166.41 L 276.56 138.28 L 201.56 103.12" stroke="white" fill="transparent"/>
	<path d = "M 199.22 206.25 L 103.12 196.88" stroke="white" fill="transparent"/>
	<path d = "M 135.94 271.88 L 0.00 351.56" stroke="white" fill="transparent"/>
</svg>