<?xml version="1.0" encoding="UTF-8" standalone="no"?>
<!--Created with ndjsontosvg (https:https://github.com/thompson318/ndjsontosvg) 
	from the simplified Google quickdraw data set. key_id = 6039418685095936-->
<svg width="600" height="600"
	xmlns="http://www.w3.org/2000/svg">
	xmlns:ndjsontosvg="https://github.com/thompson318/ndjsontosvg"
	xmlns:quickdraw="https://quickdraw.withgoogle.com/data"
	xmlns:scikit-surgery="https://doi.org/10.1007/s11548-020-02180-5">

	<rect width="100%" height="100%" fill="black" />
	<path d = "M 328.12 232.03 L 281.25 217.97 L 201.56 225.00 L 154.69 264.84 L 131.25 337.50 L 135.94 410.16 L 164.06 454.69 L 189.84 468.75 L 257.81 478.12 L 297.66 475.78 L 332.81 461.72 L 358.59 440.62 L 370.31 407.81 L 375.00 342.19 L 358.59 297.66 L 323.44 260.16 L 267.19 234.38 L 213.28 232.03" stroke="white" fill="transparent"/>
	<path d = "M 140.62 386.72 L 126.56 389.06 L 75.00 435.94 L 0.00 520.31 L 46.88 466.41" stroke="white" fill="transparent"/>
	<path d = "M 173.44 466.41 L 131.25 492.19 L 72.66 576.56" stroke="white" fill="transparent"/>
	<path d = "M 365.62 365.62 L 435.94 393.75 L 597.66 492.19" stroke="white" fill="transparent"/>
	<path d = "M 400.78 269.53 L 492.19 330.47 L 560.16 363.28 L 590.62 367.97" stroke="white" fill="transparent"/>
	<path d = "M 166.41 300.00 L 25.78 189.84" stroke="white" fill="transparent"/>
	<path d = "M 384.38 246.09 L 396.09 199.22 L 419.53 152.34 L 454.69 100.78 L 550.78 0.00" stroke="white" fill="transparent"/>
</svg>