<?xml version="1.0" encoding="UTF-8" standalone="no"?>
<!--Created with ndjsontosvg (https:https://github.com/thompson318/ndjsontosvg) 
	from the simplified Google quickdraw data set. key_id = 6026246624378880-->
<svg width="600" height="600"
	xmlns="http://www.w3.org/2000/svg">
	xmlns:ndjsontosvg="https://github.com/thompson318/ndjsontosvg"
	xmlns:quickdraw="https://quickdraw.withgoogle.com/data"
	xmlns:scikit-surgery="https://doi.org/10.1007/s11548-020-02180-5">

	<rect width="100%" height="100%" fill="black" />
	<path d = "M 337.50 145.31 L 314.06 145.31 L 271.88 168.75 L 243.75 203.91 L 236.72 290.62 L 253.12 330.47 L 290.62 346.88 L 363.28 349.22 L 412.50 314.06 L 431.25 271.88 L 435.94 203.91 L 360.94 166.41" stroke="white" fill="transparent"/>
	<path d = "M 260.16 335.16 L 152.34 473.44 L 142.97 501.56" stroke="white" fill="transparent"/>
	<path d = "M 339.84 342.19 L 398.44 410.16 L 452.34 489.84 L 501.56 529.69" stroke="white" fill="transparent"/>
	<path d = "M 428.91 269.53 L 567.19 297.66 L 597.66 316.41" stroke="white" fill="transparent"/>
	<path d = "M 442.97 157.03 L 450.00 142.97 L 517.97 79.69 L 571.88 46.88" stroke="white" fill="transparent"/>
	<path d = "M 281.25 178.12 L 121.88 75.00 L 79.69 53.91" stroke="white" fill="transparent"/>
	<path d = "M 236.72 276.56 L 220.31 264.84 L 173.44 267.19 L 0.00 295.31" stroke="white" fill="transparent"/>
	<path d = "M 360.94 126.56 L 342.19 60.94 L 346.88 16.41 L 358.59 2.34 L 403.12 2.34 L 424.22 23.44 L 440.62 67.97 L 440.62 128.91 L 431.25 150.00 L 414.84 166.41 L 342.19 164.06" stroke="white" fill="transparent"/>
</svg>