<?xml version="1.0" encoding="UTF-8" standalone="no"?>
<!--Created with ndjsontosvg (https:https://github.com/thompson318/ndjsontosvg) 
	from the simplified Google quickdraw data set. key_id = 6667592984952832-->
<svg width="600" height="600"
	xmlns="http://www.w3.org/2000/svg">
	xmlns:ndjsontosvg="https://github.com/thompson318/ndjsontosvg"
	xmlns:quickdraw="https://quickdraw.withgoogle.com/data"
	xmlns:scikit-surgery="https://doi.org/10.1007/s11548-020-02180-5">

	<rect width="100%" height="100%" fill="black" />
	<path d = "M 161.72 91.41 L 147.66 75.00 L 131.25 72.66 L 96.09 75.00 L 72.66 86.72 L 37.50 121.88 L 11.72 175.78" stroke="white" fill="transparent"/>
	<path d = "M 210.94 206.25 L 161.72 210.94 L 121.88 236.72 L 70.31 300.00 L 56.25 344.53" stroke="white" fill="transparent"/>
	<path d = "M 203.91 290.62 L 187.50 295.31 L 168.75 321.09 L 140.62 431.25" stroke="white" fill="transparent"/>
	<path d = "M 140.62 133.59 L 89.06 126.56 L 56.25 145.31 L 21.09 194.53 L 0.00 257.81" stroke="white" fill="transparent"/>
	<path d = "M 145.31 56.25 L 145.31 84.38 L 166.41 178.12 L 220.31 321.09 L 246.09 353.91 L 281.25 375.00 L 323.44 377.34 L 344.53 365.62 L 393.75 309.38 L 428.91 225.00 L 431.25 135.94 L 400.78 77.34 L 363.28 44.53 L 309.38 18.75 L 253.12 2.34 L 196.88 0.00 L 161.72 7.03 L 131.25 25.78 L 107.81 51.56 L 91.41 96.09" stroke="white" fill="transparent"/>
	<path d = "M 393.75 67.97 L 417.19 51.56 L 438.28 44.53 L 515.62 42.19 L 546.09 53.91 L 576.56 82.03" stroke="white" fill="transparent"/>
	<path d = "M 438.28 157.03 L 450.00 152.34 L 517.97 157.03 L 564.84 178.12 L 597.66 206.25" stroke="white" fill="transparent"/>
	<path d = "M 445.31 267.19 L 480.47 264.84 L 560.16 300.00" stroke="white" fill="transparent"/>
	<path d = "M 412.50 346.88 L 445.31 353.91 L 534.38 398.44" stroke="white" fill="transparent"/>
	<path d = "M 375.00 370.31 L 482.81 438.28" stroke="white" fill="transparent"/>
</svg>