<?xml version="1.0" encoding="UTF-8" standalone="no"?>
<!--Created with ndjsontosvg (https:https://github.com/thompson318/ndjsontosvg) 
	from the simplified Google quickdraw data set. key_id = 6012135828094976-->
<svg width="600" height="600"
	xmlns="http://www.w3.org/2000/svg">
	xmlns:ndjsontosvg="https://github.com/thompson318/ndjsontosvg"
	xmlns:quickdraw="https://quickdraw.withgoogle.com/data"
	xmlns:scikit-surgery="https://doi.org/10.1007/s11548-020-02180-5">

	<rect width="100%" height="100%" fill="black" />
	<path d = "M 295.31 0.00 L 248.44 0.00 L 203.91 14.06 L 164.06 44.53 L 140.62 79.69 L 119.53 126.56 L 105.47 187.50 L 98.44 278.91 L 107.81 304.69 L 135.94 346.88 L 180.47 391.41 L 253.12 421.88 L 337.50 421.88 L 407.81 400.78 L 438.28 377.34 L 457.03 337.50 L 464.06 288.28 L 464.06 199.22 L 457.03 175.78 L 417.19 121.88 L 290.62 9.38" stroke="white" fill="transparent"/>
	<path d = "M 112.50 58.59 L 91.41 44.53 L 44.53 42.19 L 25.78 56.25 L 0.00 98.44" stroke="white" fill="transparent"/>
	<path d = "M 82.03 147.66 L 42.19 152.34 L 18.75 164.06 L 2.34 182.81 L 4.69 215.62" stroke="white" fill="transparent"/>
	<path d = "M 91.41 274.22 L 60.94 295.31 L 46.88 323.44 L 46.88 375.00 L 53.91 386.72 L 63.28 375.00" stroke="white" fill="transparent"/>
	<path d = "M 522.66 63.28 L 560.16 60.94 L 588.28 96.09" stroke="white" fill="transparent"/>
	<path d = "M 407.81 84.38 L 489.84 51.56 L 557.81 46.88 L 583.59 56.25" stroke="white" fill="transparent"/>
	<path d = "M 468.75 241.41 L 508.59 234.38 L 578.91 239.06 L 592.97 248.44 L 597.66 264.84" stroke="white" fill="transparent"/>
	<path d = "M 435.94 356.25 L 480.47 358.59 L 503.91 367.97 L 541.41 417.19 L 550.78 450.00" stroke="white" fill="transparent"/>
</svg>