<?xml version="1.0" encoding="UTF-8" standalone="no"?>
<!--Created with ndjsontosvg (https:https://github.com/thompson318/ndjsontosvg) 
	from the simplified Google quickdraw data set. key_id = 6304636401090560-->
<svg width="600" height="600"
	xmlns="http://www.w3.org/2000/svg">
	xmlns:ndjsontosvg="https://github.com/thompson318/ndjsontosvg"
	xmlns:quickdraw="https://quickdraw.withgoogle.com/data"
	xmlns:scikit-surgery="https://doi.org/10.1007/s11548-020-02180-5">

	<rect width="100%" height="100%" fill="black" />
	<path d = "M 337.50 28.12 L 337.50 217.97 L 351.56 349.22" stroke="white" fill="transparent"/>
	<path d = "M 403.12 18.75 L 391.41 96.09 L 389.06 222.66 L 419.53 344.53 L 426.56 356.25 L 435.94 358.59" stroke="white" fill="transparent"/>
	<path d = "M 485.16 28.12 L 478.12 82.03 L 478.12 199.22 L 492.19 323.44 L 503.91 363.28" stroke="white" fill="transparent"/>
	<path d = "M 534.38 0.00 L 548.44 203.91 L 567.19 325.78 L 581.25 370.31" stroke="white" fill="transparent"/>
	<path d = "M 271.88 105.47 L 271.88 105.47" stroke="white" fill="transparent"/>
	<path d = "M 351.56 84.38 L 578.91 75.00" stroke="white" fill="transparent"/>
	<path d = "M 271.88 168.75 L 285.94 164.06 L 28.12 142.97 L 168.75 121.88 L 262.50 117.19" stroke="white" fill="transparent"/>
	<path d = "M 300.00 152.34 L 539.06 152.34 L 597.66 142.97" stroke="white" fill="transparent"/>
	<path d = "M 278.91 239.06 L 0.00 234.38 L 257.81 227.34 L 206.25 236.72" stroke="white" fill="transparent"/>
	<path d = "M 562.50 210.94 L 510.94 227.34 L 363.28 241.41 L 267.19 260.16" stroke="white" fill="transparent"/>
	<path d = "M 574.22 297.66 L 478.12 283.59 L 391.41 285.94 L 271.88 307.03" stroke="white" fill="transparent"/>
</svg>