<?xml version="1.0" encoding="UTF-8" standalone="no"?>
<!--Created with ndjsontosvg (https:https://github.com/thompson318/ndjsontosvg) 
	from the simplified Google quickdraw data set. key_id = 4831161660473344-->
<svg width="600" height="600"
	xmlns="http://www.w3.org/2000/svg">
	xmlns:ndjsontosvg="https://github.com/thompson318/ndjsontosvg"
	xmlns:quickdraw="https://quickdraw.withgoogle.com/data"
	xmlns:scikit-surgery="https://doi.org/10.1007/s11548-020-02180-5">

	<rect width="100%" height="100%" fill="black" />
	<path d = "M 4.69 28.12 L 9.38 358.59 L 35.16 349.22 L 105.47 304.69 L 182.81 276.56 L 225.00 269.53 L 300.00 264.84 L 597.66 290.62 L 576.56 222.66 L 562.50 67.97 L 475.78 28.12 L 309.38 37.50 L 217.97 35.16 L 126.56 25.78 L 65.62 0.00 L 42.19 2.34 L 4.69 23.44" stroke="white" fill="transparent"/>
	<path d = "M 100.78 16.41 L 126.56 131.25 L 131.25 220.31 L 142.97 276.56" stroke="white" fill="transparent"/>
	<path d = "M 283.59 37.50 L 278.91 82.03 L 297.66 269.53" stroke="white" fill="transparent"/>
	<path d = "M 461.72 25.78 L 461.72 159.38 L 471.09 257.81" stroke="white" fill="transparent"/>
	<path d = "M 9.38 89.06 L 107.81 84.38 L 201.56 98.44 L 353.91 98.44 L 459.38 75.00 L 548.44 79.69" stroke="white" fill="transparent"/>
	<path d = "M 7.03 150.00 L 126.56 145.31 L 386.72 159.38 L 438.28 157.03 L 520.31 133.59 L 564.84 135.94" stroke="white" fill="transparent"/>
	<path d = "M 7.03 234.38 L 217.97 199.22 L 506.25 196.88 L 569.53 203.91" stroke="white" fill="transparent"/>
</svg>