<?xml version="1.0" encoding="UTF-8" standalone="no"?>
<!--Created with ndjsontosvg (https:https://github.com/thompson318/ndjsontosvg) 
	from the simplified Google quickdraw data set. key_id = 6625961384607744-->
<svg width="600" height="600"
	xmlns="http://www.w3.org/2000/svg">
	xmlns:ndjsontosvg="https://github.com/thompson318/ndjsontosvg"
	xmlns:quickdraw="https://quickdraw.withgoogle.com/data"
	xmlns:scikit-surgery="https://doi.org/10.1007/s11548-020-02180-5">

	<rect width="100%" height="100%" fill="black" />
	<path d = "M 65.62 11.72 L 53.91 220.31 L 16.41 407.81 L 400.78 431.25 L 525.00 412.50 L 546.09 400.78 L 562.50 377.34 L 576.56 243.75 L 578.91 135.94 L 485.16 77.34 L 398.44 44.53 L 285.94 37.50 L 138.28 14.06 L 93.75 0.00 L 65.62 2.34 L 112.50 16.41 L 166.41 14.06 L 121.88 269.53 L 119.53 346.88 L 128.91 464.06 L 77.34 480.47 L 16.41 485.16 L 53.91 372.66 L 51.56 356.25" stroke="white" fill="transparent"/>
	<path d = "M 0.00 393.75 L 84.38 393.75 L 171.09 379.69 L 281.25 389.06 L 353.91 405.47 L 539.06 403.12 L 555.47 393.75" stroke="white" fill="transparent"/>
	<path d = "M 72.66 246.09 L 267.19 283.59 L 290.62 297.66 L 520.31 302.34" stroke="white" fill="transparent"/>
	<path d = "M 75.00 142.97 L 353.91 164.06 L 407.81 173.44 L 499.22 201.56 L 597.66 208.59" stroke="white" fill="transparent"/>
	<path d = "M 506.25 96.09 L 501.56 267.19 L 510.94 433.59" stroke="white" fill="transparent"/>
</svg>