<?xml version="1.0" encoding="UTF-8" standalone="no"?>
<!--Created with ndjsontosvg (https:https://github.com/thompson318/ndjsontosvg) 
	from the simplified Google quickdraw data set. key_id = 5235833785286656-->
<svg width="600" height="600"
	xmlns="http://www.w3.org/2000/svg">
	xmlns:ndjsontosvg="https://github.com/thompson318/ndjsontosvg"
	xmlns:quickdraw="https://quickdraw.withgoogle.com/data"
	xmlns:scikit-surgery="https://doi.org/10.1007/s11548-020-02180-5">

	<rect width="100%" height="100%" fill="black" />
	<path d = "M 32.81 11.72 L 250.78 0.00 L 522.66 0.00 L 520.31 229.69 L 515.62 271.88 L 503.91 276.56 L 337.50 248.44 L 171.09 243.75 L 4.69 255.47 L 11.72 185.16 L 4.69 100.78 L 18.75 14.06 L 21.09 9.38 L 46.88 11.72" stroke="white" fill="transparent"/>
	<path d = "M 7.03 53.91 L 192.19 37.50 L 468.75 37.50 L 517.97 44.53" stroke="white" fill="transparent"/>
	<path d = "M 0.00 103.12 L 527.34 93.75" stroke="white" fill="transparent"/>
	<path d = "M 11.72 157.03 L 203.91 133.59 L 356.25 133.59 L 564.84 150.00" stroke="white" fill="transparent"/>
	<path d = "M 9.38 203.91 L 302.34 203.91 L 442.97 194.53 L 520.31 199.22" stroke="white" fill="transparent"/>
</svg>