<?xml version="1.0" encoding="UTF-8" standalone="no"?>
<!--Created with ndjsontosvg (https:https://github.com/thompson318/ndjsontosvg) 
	from the simplified Google quickdraw data set. key_id = 4544374123790336-->
<svg width="600" height="600"
	xmlns="http://www.w3.org/2000/svg">
	xmlns:ndjsontosvg="https://github.com/thompson318/ndjsontosvg"
	xmlns:quickdraw="https://quickdraw.withgoogle.com/data"
	xmlns:scikit-surgery="https://doi.org/10.1007/s11548-020-02180-5">

	<rect width="100%" height="100%" fill="black" />
	<path d = "M 440.62 53.91 L 375.00 70.31 L 295.31 79.69 L 98.44 79.69 L 25.78 65.62 L 16.41 72.66 L 9.38 147.66 L 14.06 489.84 L 21.09 508.59 L 42.19 522.66 L 243.75 555.47 L 363.28 560.16 L 494.53 548.44 L 503.91 543.75 L 513.28 513.28 L 510.94 428.91 L 468.75 46.88" stroke="white" fill="transparent"/>
	<path d = "M 377.34 51.56 L 377.34 171.09 L 396.09 377.34 L 393.75 457.03" stroke="white" fill="transparent"/>
	<path d = "M 264.84 67.97 L 295.31 454.69" stroke="white" fill="transparent"/>
	<path d = "M 154.69 117.19 L 145.31 461.72" stroke="white" fill="transparent"/>
	<path d = "M 44.53 23.44 L 70.31 478.12" stroke="white" fill="transparent"/>
	<path d = "M 466.41 274.22 L 309.38 229.69 L 140.62 199.22 L 56.25 189.84 L 0.00 189.84" stroke="white" fill="transparent"/>
	<path d = "M 525.00 363.28 L 421.88 358.59 L 142.97 316.41 L 7.03 314.06" stroke="white" fill="transparent"/>
	<path d = "M 421.88 67.97 L 442.97 189.84 L 442.97 196.88 L 431.25 180.47 L 410.16 121.88 L 424.22 349.22 L 426.56 525.00 L 367.97 84.38 L 360.94 546.09 L 353.91 300.00 L 304.69 0.00 L 335.16 96.09 L 382.03 457.03 L 407.81 597.66 L 412.50 520.31 L 398.44 344.53 L 363.28 110.16 L 375.00 154.69 L 384.38 239.06 L 384.38 595.31 L 398.44 389.06 L 363.28 110.16 L 419.53 485.16 L 428.91 517.97 L 428.91 461.72 L 400.78 278.91 L 344.53 79.69 L 424.22 541.41" stroke="white" fill="transparent"/>
</svg>