<?xml version="1.0" encoding="UTF-8" standalone="no"?>
<!--Created with ndjsontosvg (https:https://github.com/thompson318/ndjsontosvg) 
	from the simplified Google quickdraw data set. key_id = 5315998821384192-->
<svg width="600" height="600"
	xmlns="http://www.w3.org/2000/svg">
	xmlns:ndjsontosvg="https://github.com/thompson318/ndjsontosvg"
	xmlns:quickdraw="https://quickdraw.withgoogle.com/data"
	xmlns:scikit-surgery="https://doi.org/10.1007/s11548-020-02180-5">

	<rect width="100%" height="100%" fill="black" />
	<path d = "M 65.62 2.34 L 56.25 49.22 L 14.06 178.12 L 2.34 253.12 L 0.00 515.62 L 7.03 546.09 L 11.72 539.06" stroke="white" fill="transparent"/>
	<path d = "M 527.34 0.00 L 532.03 58.59 L 562.50 157.03 L 588.28 302.34 L 595.31 520.31" stroke="white" fill="transparent"/>
	<path d = "M 53.91 93.75 L 72.66 84.38 L 164.06 77.34 L 515.62 72.66 L 562.50 79.69" stroke="white" fill="transparent"/>
	<path d = "M 16.41 154.69 L 107.81 140.62 L 309.38 133.59 L 581.25 114.84" stroke="white" fill="transparent"/>
	<path d = "M 35.16 229.69 L 14.06 241.41 L 67.97 227.34 L 164.06 217.97 L 597.66 208.59" stroke="white" fill="transparent"/>
	<path d = "M 18.75 370.31 L 18.75 363.28 L 32.81 353.91 L 103.12 325.78 L 414.84 257.81 L 513.28 248.44 L 588.28 257.81" stroke="white" fill="transparent"/>
	<path d = "M 14.06 447.66 L 44.53 433.59 L 133.59 417.19 L 356.25 391.41 L 480.47 346.88 L 522.66 342.19" stroke="white" fill="transparent"/>
</svg>