<?xml version="1.0" encoding="UTF-8" standalone="no"?>
<!--Created with ndjsontosvg (https:https://github.com/thompson318/ndjsontosvg) 
	from the simplified Google quickdraw data set. key_id = 5972038952943616-->
<svg width="600" height="600"
	xmlns="http://www.w3.org/2000/svg">
	xmlns:ndjsontosvg="https://github.com/thompson318/ndjsontosvg"
	xmlns:quickdraw="https://quickdraw.withgoogle.com/data"
	xmlns:scikit-surgery="https://doi.org/10.1007/s11548-020-02180-5">

	<rect width="100%" height="100%" fill="black" />
	<path d = "M 7.03 46.88 L 0.00 37.50 L 7.03 21.09 L 100.78 18.75 L 131.25 30.47 L 161.72 89.06 L 161.72 145.31 L 133.59 192.19 L 114.84 150.00 L 119.53 96.09 L 203.91 18.75 L 232.03 4.69 L 281.25 2.34 L 297.66 18.75 L 339.84 100.78 L 360.94 157.03 L 358.59 208.59 L 342.19 243.75 L 328.12 257.81 L 239.06 194.53 L 232.03 178.12 L 234.38 152.34 L 309.38 84.38 L 339.84 75.00 L 382.03 72.66 L 468.75 89.06 L 489.84 161.72 L 492.19 229.69 L 482.81 234.38 L 464.06 227.34 L 424.22 178.12 L 438.28 150.00 L 468.75 126.56 L 520.31 100.78 L 560.16 93.75 L 597.66 105.47" stroke="white" fill="transparent"/>
</svg>