<?xml version="1.0" encoding="UTF-8" standalone="no"?>
<!--Created with ndjsontosvg (https:https://github.com/thompson318/ndjsontosvg) 
	from the simplified Google quickdraw data set. key_id = 6253232881926144-->
<svg width="600" height="600"
	xmlns="http://www.w3.org/2000/svg">
	xmlns:ndjsontosvg="https://github.com/thompson318/ndjsontosvg"
	xmlns:quickdraw="https://quickdraw.withgoogle.com/data"
	xmlns:scikit-surgery="https://doi.org/10.1007/s11548-020-02180-5">

	<rect width="100%" height="100%" fill="black" />
	<path d = "M 98.44 133.59 L 51.56 131.25 L 14.06 154.69 L 0.00 185.16 L 4.69 232.03 L 51.56 257.81 L 93.75 262.50 L 112.50 253.12 L 131.25 210.94 L 135.94 171.09 L 124.22 152.34 L 105.47 140.62" stroke="white" fill="transparent"/>
	<path d = "M 86.72 264.84 L 91.41 285.94 L 114.84 339.84 L 161.72 396.09 L 239.06 435.94 L 285.94 442.97 L 302.34 435.94 L 323.44 414.84 L 332.81 386.72 L 332.81 358.59 L 318.75 330.47 L 295.31 297.66 L 232.03 248.44 L 182.81 220.31 L 150.00 215.62" stroke="white" fill="transparent"/>
	<path d = "M 93.75 316.41 L 84.38 332.81 L 75.00 424.22" stroke="white" fill="transparent"/>
	<path d = "M 131.25 346.88 L 124.22 417.19 L 114.84 452.34 L 89.06 457.03 L 72.66 447.66 L 67.97 426.56 L 70.31 400.78" stroke="white" fill="transparent"/>
	<path d = "M 314.06 337.50 L 325.78 335.16 L 344.53 311.72 L 384.38 187.50 L 442.97 98.44 L 496.88 53.91 L 581.25 21.09" stroke="white" fill="transparent"/>
	<path d = "M 321.09 403.12 L 377.34 417.19 L 419.53 417.19 L 450.00 407.81 L 508.59 375.00 L 560.16 318.75 L 581.25 269.53 L 595.31 182.81 L 597.66 0.00" stroke="white" fill="transparent"/>
	<path d = "M 288.28 435.94 L 321.09 459.38 L 323.44 473.44 L 267.19 496.88" stroke="white" fill="transparent"/>
	<path d = "M 260.16 438.28 L 276.56 454.69 L 199.22 478.12 L 187.50 496.88 L 201.56 506.25 L 236.72 506.25 L 278.91 496.88" stroke="white" fill="transparent"/>
</svg>