<?xml version="1.0" encoding="UTF-8" standalone="no"?>
<!--Created with ndjsontosvg (https:https://github.com/thompson318/ndjsontosvg) 
	from the simplified Google quickdraw data set. key_id = 6266858095247360-->
<svg width="600" height="600"
	xmlns="http://www.w3.org/2000/svg">
	xmlns:ndjsontosvg="https://github.com/thompson318/ndjsontosvg"
	xmlns:quickdraw="https://quickdraw.withgoogle.com/data"
	xmlns:scikit-surgery="https://doi.org/10.1007/s11548-020-02180-5">

	<rect width="100%" height="100%" fill="black" />
	<path d = "M 0.00 199.22 L 16.41 140.62 L 35.16 114.84 L 58.59 96.09 L 79.69 91.41 L 98.44 96.09 L 124.22 180.47 L 145.31 201.56 L 168.75 206.25 L 227.34 171.09 L 267.19 86.72 L 290.62 185.16 L 321.09 227.34 L 346.88 234.38 L 379.69 222.66 L 405.47 201.56 L 428.91 178.12 L 457.03 124.22 L 468.75 82.03 L 471.09 21.09 L 466.41 0.00 L 452.34 4.69 L 442.97 23.44 L 447.66 70.31 L 471.09 128.91 L 503.91 152.34 L 534.38 152.34 L 571.88 124.22 L 595.31 84.38 L 595.31 28.12" stroke="white" fill="transparent"/>
</svg>