<?xml version="1.0" encoding="UTF-8" standalone="no"?>
<!--Created with ndjsontosvg (https:https://github.com/thompson318/ndjsontosvg) 
	from the simplified Google quickdraw data set. key_id = 6097403151122432-->
<svg width="600" height="600"
	xmlns="http://www.w3.org/2000/svg">
	xmlns:ndjsontosvg="https://github.com/thompson318/ndjsontosvg"
	xmlns:quickdraw="https://quickdraw.withgoogle.com/data"
	xmlns:scikit-surgery="https://doi.org/10.1007/s11548-020-02180-5">

	<rect width="100%" height="100%" fill="black" />
	<path d = "M 182.81 241.41 L 142.97 243.75 L 135.94 229.69 L 150.00 210.94 L 192.19 192.19 L 210.94 189.84 L 225.00 150.00 L 250.78 182.81 L 260.16 164.06 L 264.84 168.75 L 264.84 227.34 L 285.94 264.84 L 337.50 300.00 L 400.78 302.34 L 489.84 248.44 L 506.25 222.66 L 506.25 147.66 L 468.75 96.09 L 438.28 84.38 L 403.12 84.38 L 370.31 107.81 L 356.25 140.62 L 358.59 159.38 L 393.75 178.12 L 356.25 173.44 L 337.50 152.34 L 328.12 114.84 L 332.81 44.53 L 370.31 14.06 L 414.84 0.00 L 457.03 0.00 L 503.91 11.72 L 585.94 51.56 L 595.31 91.41 L 597.66 182.81 L 555.47 304.69 L 548.44 314.06 L 499.22 335.16 L 433.59 405.47 L 356.25 457.03 L 300.00 475.78 L 241.41 475.78 L 201.56 457.03 L 185.16 438.28 L 171.09 407.81 L 166.41 370.31 L 203.91 285.94 L 203.91 257.81 L 187.50 246.09" stroke="white" fill="transparent"/>
	<path d = "M 189.84 314.06 L 150.00 307.03 L 84.38 281.25 L 82.03 267.19 L 93.75 243.75 L 119.53 227.34 L 133.59 229.69" stroke="white" fill="transparent"/>
	<path d = "M 178.12 344.53 L 145.31 349.22 L 98.44 335.16 L 7.03 274.22 L 14.06 246.09 L 49.22 220.31 L 138.28 215.62" stroke="white" fill="transparent"/>
	<path d = "M 7.03 171.09 L 11.72 213.28 L 28.12 234.38 L 79.69 248.44 L 91.41 206.25 L 89.06 182.81 L 79.69 164.06 L 25.78 159.38 L 2.34 166.41 L 0.00 150.00 L 9.38 128.91 L 46.88 124.22 L 84.38 147.66 L 91.41 161.72" stroke="white" fill="transparent"/>
	<path d = "M 30.47 131.25 L 53.91 135.94 L 58.59 100.78" stroke="white" fill="transparent"/>
</svg>