<?xml version="1.0" encoding="UTF-8" standalone="no"?>
<!--Created with ndjsontosvg (https:https://github.com/thompson318/ndjsontosvg) 
	from the simplified Google quickdraw data set. key_id = 6318313456009216-->
<svg width="600" height="600"
	xmlns="http://www.w3.org/2000/svg">
	xmlns:ndjsontosvg="https://github.com/thompson318/ndjsontosvg"
	xmlns:quickdraw="https://quickdraw.withgoogle.com/data"
	xmlns:scikit-surgery="https://doi.org/10.1007/s11548-020-02180-5">

	<rect width="100%" height="100%" fill="black" />
	<path d = "M 389.06 431.25 L 412.50 255.47 L 457.03 185.16 L 487.50 166.41 L 536.72 166.41 L 576.56 189.84 L 588.28 220.31 L 597.66 283.59 L 595.31 323.44 L 581.25 330.47 L 485.16 262.50" stroke="white" fill="transparent"/>
	<path d = "M 487.50 269.53 L 494.53 337.50 L 492.19 417.19 L 454.69 454.69 L 428.91 464.06" stroke="white" fill="transparent"/>
	<path d = "M 370.31 426.56 L 316.41 424.22 L 278.91 400.78 L 264.84 360.94 L 269.53 248.44 L 257.81 208.59 L 133.59 11.72 L 65.62 0.00 L 39.84 14.06 L 0.00 91.41 L 35.16 110.16 L 21.09 119.53" stroke="white" fill="transparent"/>
	<path d = "M 53.91 145.31 L 96.09 189.84 L 103.12 234.38 L 100.78 302.34 L 117.19 365.62 L 166.41 414.84 L 222.66 440.62" stroke="white" fill="transparent"/>
	<path d = "M 222.66 440.62 L 194.53 480.47 L 201.56 503.91 L 215.62 508.59 L 229.69 506.25 L 246.09 489.84 L 255.47 461.72 L 281.25 478.12 L 318.75 478.12 L 342.19 494.53 L 379.69 494.53 L 400.78 475.78 L 410.16 452.34" stroke="white" fill="transparent"/>
</svg>