<?xml version="1.0" encoding="UTF-8" standalone="no"?>
<!--Created with ndjsontosvg (https:https://github.com/thompson318/ndjsontosvg) 
	from the simplified Google quickdraw data set. key_id = 5096793442353152-->
<svg width="600" height="600"
	xmlns="http://www.w3.org/2000/svg">
	xmlns:ndjsontosvg="https://github.com/thompson318/ndjsontosvg"
	xmlns:quickdraw="https://quickdraw.withgoogle.com/data"
	xmlns:scikit-surgery="https://doi.org/10.1007/s11548-020-02180-5">

	<rect width="100%" height="100%" fill="black" />
	<path d = "M 180.47 182.81 L 222.66 117.19 L 281.25 46.88 L 295.31 11.72 L 314.06 0.00 L 325.78 7.03 L 386.72 159.38 L 510.94 203.91 L 560.16 206.25 L 450.00 283.59 L 440.62 300.00 L 471.09 370.31 L 492.19 461.72 L 536.72 546.09 L 503.91 520.31 L 457.03 435.94 L 382.03 386.72 L 356.25 377.34 L 330.47 426.56 L 213.28 597.66 L 194.53 522.66 L 194.53 445.31 L 239.06 367.97 L 236.72 351.56 L 154.69 288.28 L 98.44 260.16 L 0.00 248.44 L 49.22 225.00 L 180.47 208.59" stroke="white" fill="transparent"/>
</svg>