<?xml version="1.0" encoding="UTF-8" standalone="no"?>
<!--Created with ndjsontosvg (https:https://github.com/thompson318/ndjsontosvg) 
	from the simplified Google quickdraw data set. key_id = 5252023136026624-->
<svg width="600" height="600"
	xmlns="http://www.w3.org/2000/svg">
	xmlns:ndjsontosvg="https://github.com/thompson318/ndjsontosvg"
	xmlns:quickdraw="https://quickdraw.withgoogle.com/data"
	xmlns:scikit-surgery="https://doi.org/10.1007/s11548-020-02180-5">

	<rect width="100%" height="100%" fill="black" />
	<path d = "M 393.75 187.50 L 379.69 222.66 L 339.84 260.16 L 264.84 290.62 L 124.22 300.00 L 79.69 295.31 L 56.25 285.94 L 42.19 274.22 L 44.53 262.50 L 65.62 246.09 L 203.91 199.22 L 335.16 185.16 L 382.03 185.16 L 396.09 194.53" stroke="white" fill="transparent"/>
	<path d = "M 396.09 189.84 L 407.81 227.34 L 407.81 290.62 L 356.25 363.28 L 304.69 386.72 L 168.75 391.41 L 67.97 372.66 L 25.78 346.88 L 0.00 316.41 L 30.47 271.88" stroke="white" fill="transparent"/>
	<path d = "M 150.00 229.69 L 150.00 248.44" stroke="white" fill="transparent"/>
	<path d = "M 185.16 225.00 L 187.50 243.75" stroke="white" fill="transparent"/>
	<path d = "M 128.91 260.16 L 152.34 274.22 L 196.88 274.22 L 217.97 262.50 L 225.00 239.06" stroke="white" fill="transparent"/>
	<path d = "M 267.19 220.31 L 267.19 227.34" stroke="white" fill="transparent"/>
	<path d = "M 285.94 217.97 L 285.94 232.03" stroke="white" fill="transparent"/>
	<path d = "M 260.16 241.41 L 257.81 253.12 L 283.59 253.12 L 330.47 236.72" stroke="white" fill="transparent"/>
	<path d = "M 243.75 311.72 L 241.41 328.12" stroke="white" fill="transparent"/>
	<path d = "M 257.81 318.75 L 253.12 325.78" stroke="white" fill="transparent"/>
	<path d = "M 234.38 344.53 L 248.44 344.53 L 267.19 332.81" stroke="white" fill="transparent"/>
	<path d = "M 318.75 276.56 L 318.75 285.94" stroke="white" fill="transparent"/>
	<path d = "M 330.47 278.91 L 328.12 297.66" stroke="white" fill="transparent"/>
	<path d = "M 311.72 309.38 L 309.38 316.41 L 330.47 316.41 L 367.97 295.31" stroke="white" fill="transparent"/>
	<path d = "M 72.66 311.72 L 77.34 323.44" stroke="white" fill="transparent"/>
	<path d = "M 105.47 325.78 L 105.47 330.47" stroke="white" fill="transparent"/>
	<path d = "M 86.72 337.50 L 96.09 346.88 L 121.88 351.56 L 152.34 346.88" stroke="white" fill="transparent"/>
	<path d = "M 182.81 321.09 L 182.81 325.78" stroke="white" fill="transparent"/>
	<path d = "M 182.81 332.81 L 182.81 346.88" stroke="white" fill="transparent"/>
	<path d = "M 166.41 351.56 L 173.44 367.97 L 196.88 365.62" stroke="white" fill="transparent"/>
	<path d = "M 201.56 100.78 L 201.56 100.78" stroke="white" fill="transparent"/>
	<path d = "M 267.19 39.84 L 232.03 30.47 L 168.75 30.47 L 159.38 35.16 L 152.34 49.22 L 166.41 72.66 L 213.28 100.78 L 255.47 107.81 L 307.03 98.44 L 318.75 89.06 L 318.75 70.31 L 283.59 37.50 L 253.12 23.44" stroke="white" fill="transparent"/>
	<path d = "M 471.09 82.03 L 445.31 77.34 L 426.56 91.41 L 414.84 117.19 L 428.91 142.97 L 447.66 152.34 L 487.50 150.00 L 506.25 140.62 L 522.66 117.19 L 513.28 91.41 L 473.44 75.00" stroke="white" fill="transparent"/>
	<path d = "M 264.84 56.25 L 267.19 58.59" stroke="white" fill="transparent"/>
	<path d = "M 478.12 124.22 L 475.78 124.22" stroke="white" fill="transparent"/>
	<path d = "M 241.41 138.28 L 278.91 131.25 L 314.06 138.28 L 367.97 168.75 L 379.69 182.81 L 377.34 192.19 L 337.50 192.19 L 292.97 180.47 L 241.41 145.31 L 241.41 131.25 L 253.12 131.25" stroke="white" fill="transparent"/>
	<path d = "M 135.94 0.00 L 117.19 21.09 L 98.44 70.31 L 103.12 138.28 L 119.53 178.12 L 145.31 208.59 L 217.97 255.47 L 309.38 283.59 L 353.91 288.28 L 419.53 283.59 L 473.44 269.53 L 520.31 243.75 L 569.53 194.53 L 590.62 150.00 L 597.66 110.16 L 595.31 46.88 L 576.56 18.75" stroke="white" fill="transparent"/>
	<path d = "M 564.84 14.06 L 564.84 14.06" stroke="white" fill="transparent"/>
</svg>