<?xml version="1.0" encoding="UTF-8" standalone="no"?>
<!--Created with ndjsontosvg (https:https://github.com/thompson318/ndjsontosvg) 
	from the simplified Google quickdraw data set. key_id = 5458066843631616-->
<svg width="600" height="600"
	xmlns="http://www.w3.org/2000/svg">
	xmlns:ndjsontosvg="https://github.com/thompson318/ndjsontosvg"
	xmlns:quickdraw="https://quickdraw.withgoogle.com/data"
	xmlns:scikit-surgery="https://doi.org/10.1007/s11548-020-02180-5">

	<rect width="100%" height="100%" fill="black" />
	<path d = "M 400.78 4.69 L 358.59 44.53 L 292.97 79.69 L 161.72 119.53 L 89.06 152.34 L 51.56 180.47 L 11.72 229.69 L 0.00 271.88 L 0.00 304.69 L 14.06 346.88 L 70.31 407.81 L 110.16 428.91 L 168.75 433.59 L 248.44 417.19 L 389.06 457.03 L 428.91 457.03 L 450.00 445.31 L 569.53 330.47 L 569.53 222.66 L 597.66 72.66 L 588.28 39.84 L 557.81 9.38 L 510.94 0.00 L 466.41 0.00 L 405.47 9.38" stroke="white" fill="transparent"/>
	<path d = "M 403.12 67.97 L 344.53 138.28 L 274.22 175.78 L 159.38 215.62 L 119.53 253.12 L 114.84 274.22 L 119.53 285.94 L 171.09 321.09 L 241.41 316.41 L 398.44 353.91 L 424.22 351.56 L 442.97 339.84 L 466.41 307.03 L 482.81 269.53 L 496.88 107.81 L 489.84 86.72 L 471.09 67.97 L 440.62 63.28 L 396.09 79.69" stroke="white" fill="transparent"/>
</svg>