<?xml version="1.0" encoding="UTF-8" standalone="no"?>
<!--Created with ndjsontosvg (https:https://github.com/thompson318/ndjsontosvg) 
	from the simplified Google quickdraw data set. key_id = 6440351936020480-->
<svg width="600" height="600"
	xmlns="http://www.w3.org/2000/svg">
	xmlns:ndjsontosvg="https://github.com/thompson318/ndjsontosvg"
	xmlns:quickdraw="https://quickdraw.withgoogle.com/data"
	xmlns:scikit-surgery="https://doi.org/10.1007/s11548-020-02180-5">

	<rect width="100%" height="100%" fill="black" />
	<path d = "M 161.72 21.09 L 84.38 16.41 L 2.34 2.34 L 9.38 72.66 L 4.69 325.78 L 21.09 337.50 L 124.22 335.16 L 208.59 351.56 L 185.16 236.72 L 166.41 23.44" stroke="white" fill="transparent"/>
	<path d = "M 110.16 60.94 L 70.31 58.59 L 51.56 82.03 L 53.91 105.47 L 67.97 119.53 L 98.44 124.22 L 114.84 114.84 L 119.53 84.38 L 107.81 63.28 L 89.06 60.94" stroke="white" fill="transparent"/>
	<path d = "M 124.22 236.72 L 128.91 222.66 L 107.81 201.56 L 70.31 194.53 L 49.22 210.94 L 39.84 260.16 L 53.91 283.59 L 65.62 288.28 L 103.12 292.97 L 131.25 278.91 L 135.94 257.81 L 119.53 213.28" stroke="white" fill="transparent"/>
	<path d = "M 585.94 9.38 L 405.47 25.78 L 393.75 67.97 L 405.47 335.16 L 421.88 342.19 L 595.31 353.91 L 597.66 217.97 L 588.28 11.72 L 581.25 4.69" stroke="white" fill="transparent"/>
	<path d = "M 541.41 75.00 L 520.31 53.91 L 480.47 58.59 L 471.09 77.34 L 468.75 117.19 L 489.84 140.62 L 499.22 142.97 L 527.34 121.88" stroke="white" fill="transparent"/>
</svg>