<?xml version="1.0" encoding="UTF-8" standalone="no"?>
<!--Created with ndjsontosvg (https:https://github.com/thompson318/ndjsontosvg) 
	from the simplified Google quickdraw data set. key_id = 5768609152368640-->
<svg width="600" height="600"
	xmlns="http://www.w3.org/2000/svg">
	xmlns:ndjsontosvg="https://github.com/thompson318/ndjsontosvg"
	xmlns:quickdraw="https://quickdraw.withgoogle.com/data"
	xmlns:scikit-surgery="https://doi.org/10.1007/s11548-020-02180-5">

	<rect width="100%" height="100%" fill="black" />
	<path d = "M 2.34 51.56 L 9.38 112.50 L 4.69 337.50 L 11.72 396.09 L 128.91 386.72 L 583.59 382.03 L 595.31 375.00 L 597.66 353.91 L 583.59 213.28 L 581.25 39.84 L 569.53 4.69 L 503.91 0.00 L 175.78 21.09 L 0.00 49.22" stroke="white" fill="transparent"/>
	<path d = "M 91.41 203.91 L 65.62 215.62 L 49.22 232.03 L 39.84 257.81 L 39.84 292.97 L 51.56 318.75 L 72.66 339.84 L 96.09 349.22 L 121.88 349.22 L 154.69 335.16 L 180.47 309.38 L 194.53 262.50 L 192.19 234.38 L 178.12 210.94 L 145.31 196.88 L 110.16 196.88 L 75.00 206.25" stroke="white" fill="transparent"/>
	<path d = "M 77.34 199.22 L 93.75 358.59" stroke="white" fill="transparent"/>
	<path d = "M 110.16 217.97 L 133.59 365.62" stroke="white" fill="transparent"/>
	<path d = "M 138.28 196.88 L 164.06 325.78" stroke="white" fill="transparent"/>
	<path d = "M 159.38 192.19 L 180.47 253.12 L 187.50 332.81" stroke="white" fill="transparent"/>
	<path d = "M 35.16 267.19 L 70.31 257.81" stroke="white" fill="transparent"/>
</svg>