<?xml version="1.0" encoding="UTF-8" standalone="no"?>
<!--Created with ndjsontosvg (https:https://github.com/thompson318/ndjsontosvg) 
	from the simplified Google quickdraw data set. key_id = 4614836417724416-->
<svg width="600" height="600"
	xmlns="http://www.w3.org/2000/svg">
	xmlns:ndjsontosvg="https://github.com/thompson318/ndjsontosvg"
	xmlns:quickdraw="https://quickdraw.withgoogle.com/data"
	xmlns:scikit-surgery="https://doi.org/10.1007/s11548-020-02180-5">

	<rect width="100%" height="100%" fill="black" />
	<path d = "M 0.00 257.81 L 70.31 2.34 L 114.84 9.38 L 199.22 9.38 L 185.16 243.75 L 166.41 248.44 L 23.44 234.38" stroke="white" fill="transparent"/>
	<path d = "M 171.09 225.00 L 208.59 119.53 L 236.72 131.25 L 311.72 140.62 L 445.31 135.94 L 445.31 194.53 L 424.22 248.44 L 367.97 234.38 L 194.53 222.66" stroke="white" fill="transparent"/>
	<path d = "M 435.94 255.47 L 435.94 133.59 L 450.00 4.69 L 487.50 2.34 L 592.97 28.12 L 597.66 93.75 L 592.97 128.91 L 541.41 243.75 L 405.47 243.75 L 407.81 234.38" stroke="white" fill="transparent"/>
	<path d = "M 517.97 42.19 L 487.50 51.56 L 466.41 91.41 L 475.78 110.16 L 513.28 112.50 L 532.03 105.47 L 553.12 84.38 L 555.47 53.91 L 539.06 39.84" stroke="white" fill="transparent"/>
	<path d = "M 501.56 142.97 L 464.06 196.88 L 461.72 213.28 L 494.53 234.38 L 517.97 234.38 L 527.34 203.91 L 517.97 178.12" stroke="white" fill="transparent"/>
</svg>