<?xml version="1.0" encoding="UTF-8" standalone="no"?>
<!--Created with ndjsontosvg (https:https://github.com/thompson318/ndjsontosvg) 
	from the simplified Google quickdraw data set. key_id = 4608069377982464-->
<svg width="600" height="600"
	xmlns="http://www.w3.org/2000/svg">
	xmlns:ndjsontosvg="https://github.com/thompson318/ndjsontosvg"
	xmlns:quickdraw="https://quickdraw.withgoogle.com/data"
	xmlns:scikit-surgery="https://doi.org/10.1007/s11548-020-02180-5">

	<rect width="100%" height="100%" fill="black" />
	<path d = "M 9.38 42.19 L 0.00 189.84 L 4.69 342.19 L 28.12 349.22 L 53.91 339.84 L 140.62 300.00 L 206.25 260.16 L 180.47 210.94 L 164.06 140.62 L 168.75 56.25 L 192.19 0.00 L 121.88 25.78 L 7.03 46.88" stroke="white" fill="transparent"/>
	<path d = "M 70.31 53.91 L 53.91 86.72 L 53.91 107.81 L 63.28 150.00 L 79.69 171.09 L 121.88 175.78 L 140.62 171.09 L 159.38 138.28 L 152.34 93.75 L 138.28 75.00 L 96.09 70.31 L 53.91 86.72" stroke="white" fill="transparent"/>
	<path d = "M 91.41 234.38 L 86.72 267.19 L 107.81 288.28 L 157.03 285.94 L 161.72 262.50 L 154.69 246.09" stroke="white" fill="transparent"/>
	<path d = "M 485.16 4.69 L 410.16 285.94 L 410.16 302.34 L 421.88 314.06 L 461.72 314.06 L 515.62 302.34 L 581.25 278.91 L 595.31 267.19 L 597.66 11.72 L 546.09 14.06" stroke="white" fill="transparent"/>
	<path d = "M 510.94 82.03 L 494.53 119.53 L 506.25 150.00 L 560.16 164.06 L 585.94 142.97 L 588.28 121.88 L 569.53 86.72 L 525.00 75.00" stroke="white" fill="transparent"/>
	<path d = "M 510.94 222.66 L 499.22 260.16 L 501.56 288.28 L 510.94 300.00 L 525.00 302.34 L 534.38 300.00 L 546.09 283.59 L 539.06 255.47 L 508.59 239.06" stroke="white" fill="transparent"/>
	<path d = "M 471.09 18.75 L 510.94 21.09" stroke="white" fill="transparent"/>
</svg>