<?xml version="1.0" encoding="UTF-8" standalone="no"?>
<!--Created with ndjsontosvg (https:https://github.com/thompson318/ndjsontosvg) 
	from the simplified Google quickdraw data set. key_id = 5152900646961152-->
<svg width="600" height="600"
	xmlns="http://www.w3.org/2000/svg">
	xmlns:ndjsontosvg="https://github.com/thompson318/ndjsontosvg"
	xmlns:quickdraw="https://quickdraw.withgoogle.com/data"
	xmlns:scikit-surgery="https://doi.org/10.1007/s11548-020-02180-5">

	<rect width="100%" height="100%" fill="black" />
	<path d = "M 11.72 46.88 L 46.88 175.78" stroke="white" fill="transparent"/>
	<path d = "M 0.00 42.19 L 140.62 21.09 L 250.78 14.06 L 532.03 9.38 L 564.84 75.00 L 597.66 187.50 L 494.53 199.22 L 248.44 206.25 L 142.97 206.25 L 0.00 189.84" stroke="white" fill="transparent"/>
	<path d = "M 142.97 32.81 L 185.16 220.31" stroke="white" fill="transparent"/>
	<path d = "M 417.19 0.00 L 414.84 117.19 L 426.56 157.03" stroke="white" fill="transparent"/>
	<path d = "M 86.72 65.62 L 72.66 72.66 L 51.56 103.12 L 51.56 131.25 L 60.94 150.00 L 86.72 159.38 L 121.88 147.66 L 140.62 121.88 L 145.31 103.12 L 145.31 84.38 L 126.56 60.94 L 63.28 39.84" stroke="white" fill="transparent"/>
	<path d = "M 410.16 53.91 L 442.97 103.12 L 464.06 126.56 L 485.16 135.94 L 525.00 135.94 L 543.75 126.56 L 553.12 96.09 L 550.78 70.31 L 543.75 58.59" stroke="white" fill="transparent"/>
</svg>