<?xml version="1.0" encoding="UTF-8" standalone="no"?>
<!--Created with ndjsontosvg (https:https://github.com/thompson318/ndjsontosvg) 
	from the simplified Google quickdraw data set. key_id = 5746184306032640-->
<svg width="600" height="600"
	xmlns="http://www.w3.org/2000/svg">
	xmlns:ndjsontosvg="https://github.com/thompson318/ndjsontosvg"
	xmlns:quickdraw="https://quickdraw.withgoogle.com/data"
	xmlns:scikit-surgery="https://doi.org/10.1007/s11548-020-02180-5">

	<rect width="100%" height="100%" fill="black" />
	<path d = "M 7.03 53.91 L 0.00 241.41" stroke="white" fill="transparent"/>
	<path d = "M 32.81 56.25 L 346.88 75.00 L 597.66 75.00 L 595.31 250.78 L 585.94 290.62 L 466.41 290.62 L 201.56 290.62 L 65.62 276.56 L 0.00 253.12" stroke="white" fill="transparent"/>
	<path d = "M 110.16 96.09 L 84.38 131.25 L 82.03 171.09 L 100.78 210.94 L 121.88 229.69 L 189.84 248.44 L 222.66 246.09 L 241.41 222.66 L 241.41 173.44 L 227.34 147.66 L 187.50 114.84 L 140.62 103.12 L 117.19 117.19" stroke="white" fill="transparent"/>
	<path d = "M 534.38 114.84 L 461.72 138.28 L 435.94 192.19 L 440.62 239.06 L 457.03 262.50 L 489.84 278.91 L 532.03 276.56 L 569.53 262.50 L 585.94 246.09 L 595.31 227.34 L 597.66 201.56 L 585.94 171.09 L 560.16 140.62 L 536.72 126.56 L 506.25 119.53" stroke="white" fill="transparent"/>
	<path d = "M 178.12 53.91 L 185.16 18.75 L 203.91 7.03 L 360.94 0.00" stroke="white" fill="transparent"/>
</svg>