<?xml version="1.0" encoding="UTF-8" standalone="no"?>
<!--Created with ndjsontosvg (https:https://github.com/thompson318/ndjsontosvg) 
	from the simplified Google quickdraw data set. key_id = 6634385291870208-->
<svg width="600" height="600"
	xmlns="http://www.w3.org/2000/svg">
	xmlns:ndjsontosvg="https://github.com/thompson318/ndjsontosvg"
	xmlns:quickdraw="https://quickdraw.withgoogle.com/data"
	xmlns:scikit-surgery="https://doi.org/10.1007/s11548-020-02180-5">

	<rect width="100%" height="100%" fill="black" />
	<path d = "M 117.19 4.69 L 96.09 2.34 L 49.22 30.47 L 11.72 70.31 L 2.34 96.09 L 0.00 133.59 L 18.75 180.47 L 44.53 199.22 L 84.38 206.25 L 189.84 206.25 L 248.44 189.84 L 264.84 173.44 L 307.03 96.09 L 309.38 49.22 L 302.34 32.81 L 274.22 16.41 L 196.88 9.38" stroke="white" fill="transparent"/>
	<path d = "M 124.22 196.88 L 119.53 290.62 L 142.97 363.28 L 203.91 405.47 L 243.75 414.84 L 349.22 419.53 L 389.06 393.75 L 473.44 307.03 L 536.72 194.53 L 501.56 196.88 L 468.75 166.41 L 459.38 128.91 L 471.09 107.81 L 487.50 100.78 L 550.78 103.12 L 590.62 133.59 L 597.66 152.34 L 592.97 180.47 L 555.47 194.53 L 520.31 192.19" stroke="white" fill="transparent"/>
</svg>