<?xml version="1.0" encoding="UTF-8" standalone="no"?>
<!--Created with ndjsontosvg (https:https://github.com/thompson318/ndjsontosvg) 
	from the simplified Google quickdraw data set. key_id = 6101657475612672-->
<svg width="600" height="600"
	xmlns="http://www.w3.org/2000/svg">
	xmlns:ndjsontosvg="https://github.com/thompson318/ndjsontosvg"
	xmlns:quickdraw="https://quickdraw.withgoogle.com/data"
	xmlns:scikit-surgery="https://doi.org/10.1007/s11548-020-02180-5">

	<rect width="100%" height="100%" fill="black" />
	<path d = "M 150.00 0.00 L 150.00 39.84" stroke="white" fill="transparent"/>
	<path d = "M 447.66 9.38 L 440.62 46.88 L 440.62 7.03 L 440.62 37.50 L 452.34 39.84" stroke="white" fill="transparent"/>
	<path d = "M 126.56 18.75 L 89.06 25.78 L 14.06 72.66 L 0.00 107.81 L 7.03 189.84 L 25.78 222.66 L 63.28 257.81 L 227.34 370.31 L 269.53 442.97" stroke="white" fill="transparent"/>
	<path d = "M 452.34 9.38 L 496.88 16.41 L 536.72 44.53 L 557.81 89.06 L 557.81 157.03 L 457.03 269.53 L 379.69 330.47 L 330.47 400.78 L 297.66 466.41 L 232.03 466.41 L 215.62 482.81 L 210.94 567.19 L 222.66 590.62 L 292.97 597.66 L 316.41 574.22 L 330.47 534.38 L 330.47 496.88 L 314.06 478.12 L 274.22 461.72" stroke="white" fill="transparent"/>
</svg>