<?xml version="1.0" encoding="UTF-8" standalone="no"?>
<!--Created with ndjsontosvg (https:https://github.com/thompson318/ndjsontosvg) 
	from the simplified Google quickdraw data set. key_id = 4573926887784448-->
<svg width="600" height="600"
	xmlns="http://www.w3.org/2000/svg">
	xmlns:ndjsontosvg="https://github.com/thompson318/ndjsontosvg"
	xmlns:quickdraw="https://quickdraw.withgoogle.com/data"
	xmlns:scikit-surgery="https://doi.org/10.1007/s11548-020-02180-5">

	<rect width="100%" height="100%" fill="black" />
	<path d = "M 98.44 274.22 L 51.56 236.72 L 16.41 196.88 L 0.00 150.00 L 0.00 124.22 L 11.72 100.78 L 39.84 75.00 L 70.31 63.28 L 60.94 126.56 L 77.34 182.81 L 103.12 222.66 L 140.62 239.06 L 182.81 194.53 L 225.00 117.19 L 225.00 96.09 L 178.12 53.91 L 246.09 44.53 L 274.22 56.25 L 292.97 93.75 L 288.28 133.59 L 236.72 196.88 L 161.72 246.09 L 147.66 274.22 L 147.66 300.00 L 173.44 356.25 L 189.84 428.91" stroke="white" fill="transparent"/>
	<path d = "M 98.44 274.22 L 124.22 363.28 L 117.19 482.81 L 124.22 501.56 L 112.50 506.25 L 105.47 532.03 L 117.19 564.84 L 180.47 595.31 L 239.06 595.31 L 290.62 557.81 L 295.31 522.66 L 283.59 506.25 L 180.47 482.81 L 117.19 496.88" stroke="white" fill="transparent"/>
	<path d = "M 199.22 464.06 L 194.53 421.88 L 182.81 398.44" stroke="white" fill="transparent"/>
	<path d = "M 196.88 457.03 L 210.94 503.91" stroke="white" fill="transparent"/>
	<path d = "M 72.66 60.94 L 60.94 35.16 L 46.88 28.12 L 60.94 16.41 L 72.66 21.09 L 82.03 51.56 L 72.66 65.62" stroke="white" fill="transparent"/>
	<path d = "M 166.41 56.25 L 173.44 49.22 L 161.72 37.50 L 152.34 16.41 L 166.41 2.34 L 185.16 0.00 L 189.84 4.69 L 194.53 32.81 L 182.81 46.88" stroke="white" fill="transparent"/>
	<path d = "M 182.81 513.28 L 159.38 520.31 L 147.66 543.75 L 152.34 557.81 L 168.75 569.53 L 234.38 585.94 L 250.78 574.22 L 250.78 553.12" stroke="white" fill="transparent"/>
</svg>