<?xml version="1.0" encoding="UTF-8" standalone="no"?>
<!--Created with ndjsontosvg (https:https://github.com/thompson318/ndjsontosvg) 
	from the simplified Google quickdraw data set. key_id = 5327031468294144-->
<svg width="600" height="600"
	xmlns="http://www.w3.org/2000/svg">
	xmlns:ndjsontosvg="https://github.com/thompson318/ndjsontosvg"
	xmlns:quickdraw="https://quickdraw.withgoogle.com/data"
	xmlns:scikit-surgery="https://doi.org/10.1007/s11548-020-02180-5">

	<rect width="100%" height="100%" fill="black" />
	<path d = "M 100.78 44.53 L 35.16 100.78 L 18.75 126.56 L 0.00 208.59 L 0.00 311.72 L 39.84 339.84 L 175.78 396.09 L 241.41 447.66 L 255.47 468.75 L 255.47 597.66" stroke="white" fill="transparent"/>
	<path d = "M 335.16 28.12 L 428.91 117.19 L 496.88 234.38 L 508.59 297.66 L 508.59 386.72 L 457.03 459.38 L 407.81 489.84 L 346.88 508.59 L 283.59 508.59 L 257.81 496.88" stroke="white" fill="transparent"/>
	<path d = "M 112.50 28.12 L 114.84 7.03 L 131.25 0.00 L 154.69 11.72 L 168.75 32.81 L 185.16 75.00 L 166.41 89.06 L 126.56 84.38 L 105.47 72.66 L 93.75 37.50" stroke="white" fill="transparent"/>
	<path d = "M 356.25 16.41 L 309.38 49.22 L 300.00 67.97 L 300.00 89.06 L 311.72 107.81 L 335.16 112.50 L 358.59 96.09 L 372.66 72.66" stroke="white" fill="transparent"/>
</svg>