<?xml version="1.0" encoding="UTF-8" standalone="no"?>
<!--Created with ndjsontosvg (https:https://github.com/thompson318/ndjsontosvg) 
	from the simplified Google quickdraw data set. key_id = 5243568480321536-->
<svg width="600" height="600"
	xmlns="http://www.w3.org/2000/svg">
	xmlns:ndjsontosvg="https://github.com/thompson318/ndjsontosvg"
	xmlns:quickdraw="https://quickdraw.withgoogle.com/data"
	xmlns:scikit-surgery="https://doi.org/10.1007/s11548-020-02180-5">

	<rect width="100%" height="100%" fill="black" />
	<path d = "M 210.94 574.22 L 215.62 581.25 L 222.66 522.66 L 222.66 365.62 L 229.69 239.06 L 159.38 248.44 L 58.59 274.22 L 28.12 264.84 L 14.06 250.78 L 0.00 199.22 L 0.00 114.84 L 7.03 96.09 L 28.12 75.00 L 91.41 44.53 L 166.41 28.12 L 248.44 21.09 L 501.56 9.38 L 576.56 0.00 L 585.94 2.34 L 597.66 49.22 L 583.59 210.94 L 562.50 248.44 L 534.38 264.84 L 492.19 271.88 L 323.44 264.84 L 150.00 248.44" stroke="white" fill="transparent"/>
	<path d = "M 100.78 82.03 L 60.94 142.97 L 117.19 164.06 L 117.19 192.19 L 89.06 217.97" stroke="white" fill="transparent"/>
	<path d = "M 180.47 98.44 L 194.53 175.78" stroke="white" fill="transparent"/>
	<path d = "M 133.59 157.03 L 131.25 145.31 L 140.62 135.94 L 217.97 107.81" stroke="white" fill="transparent"/>
	<path d = "M 274.22 157.03 L 267.19 192.19 L 290.62 227.34 L 309.38 234.38 L 328.12 222.66 L 339.84 187.50 L 339.84 168.75 L 318.75 157.03 L 292.97 164.06 L 278.91 175.78" stroke="white" fill="transparent"/>
	<path d = "M 391.41 206.25 L 412.50 234.38 L 400.78 222.66 L 384.38 180.47 L 386.72 135.94 L 393.75 121.88 L 421.88 100.78 L 450.00 100.78 L 459.38 107.81 L 442.97 140.62 L 389.06 182.81 L 344.53 187.50" stroke="white" fill="transparent"/>
	<path d = "M 264.84 276.56 L 262.50 321.09 L 281.25 553.12 L 274.22 569.53 L 257.81 578.91 L 232.03 574.22" stroke="white" fill="transparent"/>
</svg>