<?xml version="1.0" encoding="UTF-8" standalone="no"?>
<!--Created with ndjsontosvg (https:https://github.com/thompson318/ndjsontosvg) 
	from the simplified Google quickdraw data set. key_id = 5691693904953344-->
<svg width="600" height="600"
	xmlns="http://www.w3.org/2000/svg">
	xmlns:ndjsontosvg="https://github.com/thompson318/ndjsontosvg"
	xmlns:quickdraw="https://quickdraw.withgoogle.com/data"
	xmlns:scikit-surgery="https://doi.org/10.1007/s11548-020-02180-5">

	<rect width="100%" height="100%" fill="black" />
	<path d = "M 89.06 592.97 L 93.75 550.78 L 93.75 290.62 L 133.59 285.94 L 171.09 290.62 L 175.78 297.66 L 175.78 363.28 L 147.66 585.94 L 128.91 595.31 L 89.06 597.66" stroke="white" fill="transparent"/>
	<path d = "M 91.41 281.25 L 51.56 260.16 L 4.69 164.06 L 0.00 105.47 L 9.38 82.03 L 53.91 23.44 L 100.78 0.00 L 227.34 7.03 L 239.06 18.75 L 276.56 107.81 L 276.56 182.81 L 257.81 243.75 L 236.72 281.25 L 208.59 295.31 L 157.03 297.66" stroke="white" fill="transparent"/>
	<path d = "M 93.75 37.50 L 51.56 53.91 L 37.50 75.00 L 39.84 110.16 L 79.69 133.59 L 77.34 145.31 L 42.19 154.69" stroke="white" fill="transparent"/>
	<path d = "M 112.50 53.91 L 98.44 173.44" stroke="white" fill="transparent"/>
	<path d = "M 86.72 133.59 L 124.22 124.22" stroke="white" fill="transparent"/>
	<path d = "M 128.91 140.62 L 119.53 182.81 L 150.00 178.12 L 145.31 145.31" stroke="white" fill="transparent"/>
	<path d = "M 164.06 131.25 L 168.75 236.72" stroke="white" fill="transparent"/>
	<path d = "M 154.69 135.94 L 175.78 152.34 L 180.47 175.78" stroke="white" fill="transparent"/>
</svg>