<?xml version="1.0" encoding="UTF-8" standalone="no"?>
<!--Created with ndjsontosvg (https:https://github.com/thompson318/ndjsontosvg) 
	from the simplified Google quickdraw data set. key_id = 5536904646754304-->
<svg width="600" height="600"
	xmlns="http://www.w3.org/2000/svg">
	xmlns:ndjsontosvg="https://github.com/thompson318/ndjsontosvg"
	xmlns:quickdraw="https://quickdraw.withgoogle.com/data"
	xmlns:scikit-surgery="https://doi.org/10.1007/s11548-020-02180-5">

	<rect width="100%" height="100%" fill="black" />
	<path d = "M 21.09 372.66 L 7.03 276.56 L 9.38 171.09 L 199.22 168.75 L 457.03 152.34 L 471.09 164.06 L 473.44 194.53 L 445.31 382.03 L 344.53 389.06 L 37.50 377.34" stroke="white" fill="transparent"/>
	<path d = "M 91.41 220.31 L 72.66 225.00 L 63.28 243.75 L 67.97 260.16 L 89.06 271.88 L 110.16 274.22 L 133.59 262.50 L 145.31 239.06 L 142.97 222.66 L 121.88 203.91 L 96.09 196.88 L 65.62 201.56 L 60.94 213.28" stroke="white" fill="transparent"/>
	<path d = "M 349.22 208.59 L 358.59 194.53 L 353.91 189.84 L 323.44 187.50 L 300.00 201.56 L 290.62 222.66 L 302.34 255.47 L 344.53 271.88 L 370.31 271.88 L 391.41 260.16 L 403.12 246.09 L 400.78 227.34 L 384.38 206.25 L 360.94 192.19 L 332.81 192.19 L 311.72 203.91" stroke="white" fill="transparent"/>
	<path d = "M 131.25 292.97 L 117.19 292.97 L 96.09 307.03 L 84.38 328.12 L 86.72 346.88 L 98.44 358.59 L 119.53 363.28 L 166.41 353.91 L 185.16 335.16 L 180.47 321.09 L 166.41 309.38 L 117.19 297.66 L 96.09 304.69 L 89.06 311.72" stroke="white" fill="transparent"/>
	<path d = "M 318.75 307.03 L 297.66 307.03 L 290.62 323.44 L 300.00 353.91 L 323.44 365.62 L 365.62 356.25 L 382.03 344.53 L 391.41 328.12 L 360.94 302.34 L 337.50 297.66 L 311.72 304.69" stroke="white" fill="transparent"/>
	<path d = "M 135.94 0.00 L 105.47 11.72 L 86.72 37.50 L 103.12 53.91 L 164.06 63.28 L 159.38 84.38 L 126.56 117.19" stroke="white" fill="transparent"/>
	<path d = "M 236.72 7.03 L 220.31 16.41 L 220.31 35.16 L 283.59 60.94 L 250.78 110.16" stroke="white" fill="transparent"/>
	<path d = "M 7.03 164.06 L 0.00 159.38 L 18.75 70.31 L 91.41 79.69 L 442.97 49.22 L 492.19 63.28 L 478.12 166.41" stroke="white" fill="transparent"/>
	<path d = "M 492.19 175.78 L 588.28 367.97" stroke="white" fill="transparent"/>
	<path d = "M 597.66 356.25 L 487.50 478.12" stroke="white" fill="transparent"/>
	<path d = "M 447.66 372.66 L 489.84 468.75" stroke="white" fill="transparent"/>
	<path d = "M 28.12 365.62 L 72.66 473.44" stroke="white" fill="transparent"/>
</svg>