<?xml version="1.0" encoding="UTF-8" standalone="no"?>
<!--Created with ndjsontosvg (https:https://github.com/thompson318/ndjsontosvg) 
	from the simplified Google quickdraw data set. key_id = 6505148920627200-->
<svg width="600" height="600"
	xmlns="http://www.w3.org/2000/svg">
	xmlns:ndjsontosvg="https://github.com/thompson318/ndjsontosvg"
	xmlns:quickdraw="https://quickdraw.withgoogle.com/data"
	xmlns:scikit-surgery="https://doi.org/10.1007/s11548-020-02180-5">

	<rect width="100%" height="100%" fill="black" />
	<path d = "M 372.66 206.25 L 346.88 199.22 L 330.47 220.31 L 330.47 248.44 L 344.53 260.16 L 375.00 260.16 L 386.72 246.09 L 384.38 225.00 L 363.28 203.91" stroke="white" fill="transparent"/>
	<path d = "M 344.53 323.44 L 307.03 351.56 L 304.69 389.06 L 335.16 419.53 L 382.03 433.59 L 407.81 433.59 L 445.31 405.47 L 450.00 344.53 L 424.22 325.78 L 403.12 318.75 L 314.06 318.75" stroke="white" fill="transparent"/>
	<path d = "M 175.78 196.88 L 159.38 222.66 L 161.72 241.41 L 173.44 248.44 L 194.53 243.75 L 201.56 225.00 L 187.50 213.28" stroke="white" fill="transparent"/>
	<path d = "M 161.72 330.47 L 135.94 360.94 L 131.25 417.19 L 133.59 435.94 L 166.41 461.72 L 213.28 466.41 L 234.38 454.69 L 248.44 431.25 L 253.12 386.72 L 203.91 370.31 L 168.75 367.97" stroke="white" fill="transparent"/>
	<path d = "M 119.53 133.59 L 96.09 187.50 L 72.66 363.28 L 72.66 440.62 L 86.72 489.84 L 103.12 503.91 L 328.12 503.91 L 466.41 515.62 L 478.12 492.19 L 506.25 292.97 L 508.59 229.69 L 468.75 147.66 L 419.53 96.09 L 377.34 96.09 L 304.69 114.84 L 175.78 131.25 L 114.84 131.25 L 70.31 119.53" stroke="white" fill="transparent"/>
	<path d = "M 508.59 492.19 L 506.25 595.31 L 515.62 562.50 L 517.97 515.62 L 513.28 70.31 L 503.91 53.91 L 419.53 53.91" stroke="white" fill="transparent"/>
	<path d = "M 63.28 489.84 L 67.97 569.53 L 0.00 550.78 L 7.03 201.56 L 0.00 0.00 L 67.97 39.84 L 133.59 63.28" stroke="white" fill="transparent"/>
</svg>