<?xml version="1.0" encoding="UTF-8" standalone="no"?>
<!--Created with ndjsontosvg (https:https://github.com/thompson318/ndjsontosvg) 
	from the simplified Google quickdraw data set. key_id = 5865064974254080-->
<svg width="600" height="600"
	xmlns="http://www.w3.org/2000/svg">
	xmlns:ndjsontosvg="https://github.com/thompson318/ndjsontosvg"
	xmlns:quickdraw="https://quickdraw.withgoogle.com/data"
	xmlns:scikit-surgery="https://doi.org/10.1007/s11548-020-02180-5">

	<rect width="100%" height="100%" fill="black" />
	<path d = "M 30.47 60.94 L 58.59 159.38 L 91.41 400.78 L 278.91 356.25 L 522.66 321.09 L 571.88 318.75 L 597.66 323.44 L 562.50 0.00 L 550.78 7.03 L 468.75 2.34 L 300.00 25.78 L 243.75 18.75 L 7.03 23.44" stroke="white" fill="transparent"/>
	<path d = "M 196.88 107.81 L 175.78 100.78 L 152.34 112.50 L 142.97 135.94 L 145.31 159.38 L 171.09 175.78 L 215.62 175.78 L 239.06 161.72 L 236.72 140.62 L 227.34 133.59" stroke="white" fill="transparent"/>
	<path d = "M 229.69 239.06 L 206.25 234.38 L 185.16 250.78 L 168.75 271.88 L 171.09 295.31 L 178.12 307.03 L 215.62 321.09 L 239.06 321.09 L 262.50 304.69 L 285.94 255.47 L 271.88 234.38 L 241.41 222.66" stroke="white" fill="transparent"/>
	<path d = "M 466.41 79.69 L 445.31 84.38 L 435.94 93.75 L 442.97 105.47 L 454.69 105.47 L 461.72 96.09" stroke="white" fill="transparent"/>
	<path d = "M 468.75 241.41 L 464.06 229.69 L 431.25 203.91 L 386.72 208.59 L 360.94 234.38 L 379.69 292.97 L 389.06 300.00 L 410.16 302.34 L 464.06 276.56 L 468.75 234.38 L 461.72 222.66 L 428.91 208.59" stroke="white" fill="transparent"/>
</svg>