<?xml version="1.0" encoding="UTF-8" standalone="no"?>
<!--Created with ndjsontosvg (https:https://github.com/thompson318/ndjsontosvg) 
	from the simplified Google quickdraw data set. key_id = 5338271934578688-->
<svg width="600" height="600"
	xmlns="http://www.w3.org/2000/svg">
	xmlns:ndjsontosvg="https://github.com/thompson318/ndjsontosvg"
	xmlns:quickdraw="https://quickdraw.withgoogle.com/data"
	xmlns:scikit-surgery="https://doi.org/10.1007/s11548-020-02180-5">

	<rect width="100%" height="100%" fill="black" />
	<path d = "M 389.06 135.94 L 405.47 346.88" stroke="white" fill="transparent"/>
	<path d = "M 2.34 133.59 L 2.34 203.91 L 16.41 332.81 L 25.78 349.22" stroke="white" fill="transparent"/>
	<path d = "M 426.56 328.12 L 464.06 304.69 L 536.72 229.69 L 578.91 194.53 L 588.28 171.09" stroke="white" fill="transparent"/>
	<path d = "M 377.34 135.94 L 405.47 126.56 L 475.78 67.97 L 536.72 42.19" stroke="white" fill="transparent"/>
	<path d = "M 597.66 192.19 L 560.16 44.53" stroke="white" fill="transparent"/>
	<path d = "M 541.41 28.12 L 485.16 14.06 L 396.09 9.38 L 9.38 7.03" stroke="white" fill="transparent"/>
	<path d = "M 2.34 0.00 L 21.09 147.66" stroke="white" fill="transparent"/>
	<path d = "M 360.94 138.28 L 290.62 152.34 L 199.22 161.72 L 16.41 159.38" stroke="white" fill="transparent"/>
	<path d = "M 398.44 353.91 L 220.31 330.47 L 23.44 328.12" stroke="white" fill="transparent"/>
	<path d = "M 311.72 65.62 L 332.81 60.94 L 353.91 82.03 L 349.22 98.44 L 311.72 128.91 L 285.94 124.22 L 276.56 107.81 L 278.91 96.09 L 314.06 63.28" stroke="white" fill="transparent"/>
	<path d = "M 72.66 82.03 L 131.25 89.06 L 147.66 107.81 L 138.28 119.53 L 105.47 126.56 L 98.44 117.19 L 105.47 105.47" stroke="white" fill="transparent"/>
	<path d = "M 89.06 46.88 L 121.88 28.12 L 145.31 28.12 L 150.00 37.50 L 138.28 51.56 L 119.53 56.25 L 110.16 51.56" stroke="white" fill="transparent"/>
	<path d = "M 318.75 32.81 L 346.88 25.78 L 360.94 30.47 L 358.59 49.22 L 335.16 56.25 L 318.75 51.56 L 321.09 32.81" stroke="white" fill="transparent"/>
	<path d = "M 318.75 220.31 L 325.78 292.97 L 314.06 297.66 L 269.53 304.69 L 128.91 300.00 L 112.50 281.25 L 110.16 225.00 L 117.19 220.31 L 203.91 213.28 L 314.06 217.97" stroke="white" fill="transparent"/>
</svg>