<?xml version="1.0" encoding="UTF-8" standalone="no"?>
<!--Created with ndjsontosvg (https:https://github.com/thompson318/ndjsontosvg) 
	from the simplified Google quickdraw data set. key_id = 5396215321591808-->
<svg width="600" height="600"
	xmlns="http://www.w3.org/2000/svg">
	xmlns:ndjsontosvg="https://github.com/thompson318/ndjsontosvg"
	xmlns:quickdraw="https://quickdraw.withgoogle.com/data"
	xmlns:scikit-surgery="https://doi.org/10.1007/s11548-020-02180-5">

	<rect width="100%" height="100%" fill="black" />
	<path d = "M 53.91 250.78 L 98.44 250.78" stroke="white" fill="transparent"/>
	<path d = "M 98.44 250.78 L 187.50 262.50 L 302.34 267.19 L 346.88 281.25 L 370.31 300.00 L 398.44 344.53 L 405.47 375.00" stroke="white" fill="transparent"/>
	<path d = "M 365.62 539.06 L 365.62 539.06" stroke="white" fill="transparent"/>
	<path d = "M 35.16 241.41 L 35.16 241.41" stroke="white" fill="transparent"/>
	<path d = "M 35.16 241.41 L 14.06 257.81 L 4.69 278.91 L 9.38 370.31 L 58.59 464.06 L 121.88 536.72 L 147.66 581.25 L 171.09 592.97 L 257.81 597.66 L 307.03 562.50 L 321.09 539.06 L 342.19 522.66 L 360.94 475.78 L 410.16 403.12 L 410.16 370.31" stroke="white" fill="transparent"/>
	<path d = "M 18.75 227.34 L 18.75 182.81 L 0.00 112.50 L 0.00 67.97 L 25.78 84.38 L 67.97 138.28 L 117.19 168.75 L 138.28 168.75 L 157.03 114.84 L 236.72 0.00 L 196.88 98.44 L 225.00 110.16 L 346.88 32.81 L 307.03 75.00 L 290.62 124.22 L 311.72 138.28 L 482.81 121.88 L 480.47 166.41 L 442.97 232.03 L 346.88 335.16" stroke="white" fill="transparent"/>
</svg>