<?xml version="1.0" encoding="UTF-8" standalone="no"?>
<!--Created with ndjsontosvg (https:https://github.com/thompson318/ndjsontosvg) 
	from the simplified Google quickdraw data set. key_id = 4638394749550592-->
<svg width="600" height="600"
	xmlns="http://www.w3.org/2000/svg">
	xmlns:ndjsontosvg="https://github.com/thompson318/ndjsontosvg"
	xmlns:quickdraw="https://quickdraw.withgoogle.com/data"
	xmlns:scikit-surgery="https://doi.org/10.1007/s11548-020-02180-5">

	<rect width="100%" height="100%" fill="black" />
	<path d = "M 28.12 229.69 L 98.44 196.88 L 257.81 196.88 L 375.00 232.03 L 393.75 246.09 L 405.47 274.22 L 410.16 330.47 L 400.78 367.97 L 379.69 412.50 L 346.88 447.66 L 234.38 522.66 L 110.16 583.59 L 65.62 597.66 L 37.50 597.66 L 21.09 581.25 L 0.00 522.66 L 4.69 433.59 L 42.19 241.41 L 51.56 220.31" stroke="white" fill="transparent"/>
	<path d = "M 75.00 201.56 L 126.56 110.16 L 185.16 37.50 L 201.56 91.41 L 220.31 117.19 L 234.38 124.22 L 297.66 60.94 L 417.19 0.00 L 431.25 105.47 L 555.47 67.97 L 557.81 72.66 L 555.47 100.78 L 529.69 187.50 L 553.12 194.53 L 546.09 225.00 L 487.50 264.84 L 471.09 283.59 L 440.62 285.94" stroke="white" fill="transparent"/>
	<path d = "M 166.41 278.91 L 166.41 278.91" stroke="white" fill="transparent"/>
</svg>