<?xml version="1.0" encoding="UTF-8" standalone="no"?>
<!--Created with ndjsontosvg (https:https://github.com/thompson318/ndjsontosvg) 
	from the simplified Google quickdraw data set. key_id = 4531979955470336-->
<svg width="600" height="600"
	xmlns="http://www.w3.org/2000/svg">
	xmlns:ndjsontosvg="https://github.com/thompson318/ndjsontosvg"
	xmlns:quickdraw="https://quickdraw.withgoogle.com/data"
	xmlns:scikit-surgery="https://doi.org/10.1007/s11548-020-02180-5">

	<rect width="100%" height="100%" fill="black" />
	<path d = "M 51.56 210.94 L 44.53 267.19 L 0.00 454.69 L 0.00 492.19 L 30.47 571.88 L 67.97 597.66 L 105.47 597.66 L 145.31 588.28 L 217.97 532.03 L 267.19 473.44 L 302.34 377.34 L 302.34 285.94 L 281.25 227.34 L 248.44 194.53 L 225.00 187.50 L 187.50 192.19 L 84.38 215.62" stroke="white" fill="transparent"/>
	<path d = "M 159.38 199.22 L 159.38 159.38 L 114.84 60.94 L 93.75 30.47" stroke="white" fill="transparent"/>
	<path d = "M 93.75 30.47 L 93.75 37.50" stroke="white" fill="transparent"/>
	<path d = "M 164.06 159.38 L 173.44 56.25 L 194.53 2.34" stroke="white" fill="transparent"/>
	<path d = "M 171.09 150.00 L 192.19 135.94 L 210.94 107.81 L 253.12 30.47 L 292.97 0.00" stroke="white" fill="transparent"/>
</svg>