<?xml version="1.0" encoding="UTF-8" standalone="no"?>
<!--Created with ndjsontosvg (https:https://github.com/thompson318/ndjsontosvg) 
	from the simplified Google quickdraw data set. key_id = 5041661795106816-->
<svg width="600" height="600"
	xmlns="http://www.w3.org/2000/svg">
	xmlns:ndjsontosvg="https://github.com/thompson318/ndjsontosvg"
	xmlns:quickdraw="https://quickdraw.withgoogle.com/data"
	xmlns:scikit-surgery="https://doi.org/10.1007/s11548-020-02180-5">

	<rect width="100%" height="100%" fill="black" />
	<path d = "M 236.72 225.00 L 192.19 210.94 L 138.28 203.91 L 72.66 208.59 L 28.12 239.06 L 0.00 297.66 L 4.69 358.59 L 23.44 400.78 L 79.69 466.41 L 114.84 492.19 L 168.75 578.91 L 187.50 597.66 L 346.88 433.59 L 382.03 377.34 L 400.78 316.41 L 400.78 288.28 L 335.16 241.41 L 269.53 225.00 L 210.94 220.31" stroke="white" fill="transparent"/>
	<path d = "M 126.56 222.66 L 75.00 159.38 L 63.28 126.56 L 58.59 28.12 L 70.31 7.03 L 89.06 0.00 L 105.47 0.00 L 128.91 28.12 L 166.41 100.78 L 180.47 44.53 L 213.28 16.41 L 234.38 11.72 L 246.09 18.75 L 253.12 82.03 L 292.97 49.22 L 339.84 37.50 L 353.91 70.31 L 349.22 117.19 L 285.94 217.97" stroke="white" fill="transparent"/>
	<path d = "M 124.22 318.75 L 124.22 318.75" stroke="white" fill="transparent"/>
	<path d = "M 135.94 447.66 L 135.94 447.66" stroke="white" fill="transparent"/>
</svg>