<?xml version="1.0" encoding="UTF-8" standalone="no"?>
<!--Created with ndjsontosvg (https:https://github.com/thompson318/ndjsontosvg) 
	from the simplified Google quickdraw data set. key_id = 6292029422174208-->
<svg width="600" height="600"
	xmlns="http://www.w3.org/2000/svg">
	xmlns:ndjsontosvg="https://github.com/thompson318/ndjsontosvg"
	xmlns:quickdraw="https://quickdraw.withgoogle.com/data"
	xmlns:scikit-surgery="https://doi.org/10.1007/s11548-020-02180-5">

	<rect width="100%" height="100%" fill="black" />
	<path d = "M 189.84 260.16 L 131.25 203.91 L 91.41 196.88 L 51.56 201.56 L 18.75 222.66 L 2.34 246.09 L 0.00 379.69 L 35.16 489.84 L 79.69 578.91 L 114.84 595.31 L 147.66 597.66 L 173.44 592.97 L 210.94 569.53 L 250.78 510.94 L 335.16 335.16 L 323.44 253.12 L 285.94 203.91 L 264.84 189.84 L 213.28 189.84 L 164.06 232.03" stroke="white" fill="transparent"/>
	<path d = "M 138.28 232.03 L 154.69 166.41 L 194.53 89.06 L 225.00 53.91 L 288.28 9.38 L 330.47 0.00 L 330.47 9.38 L 210.94 166.41 L 189.84 203.91" stroke="white" fill="transparent"/>
	<path d = "M 215.62 82.03 L 201.56 119.53" stroke="white" fill="transparent"/>
	<path d = "M 75.00 311.72 L 91.41 349.22 L 110.16 372.66" stroke="white" fill="transparent"/>
	<path d = "M 189.84 311.72 L 189.84 311.72" stroke="white" fill="transparent"/>
</svg>