<?xml version="1.0" encoding="UTF-8" standalone="no"?>
<!--Created with ndjsontosvg (https:https://github.com/thompson318/ndjsontosvg) 
	from the simplified Google quickdraw data set. key_id = 5024858893189120-->
<svg width="600" height="600"
	xmlns="http://www.w3.org/2000/svg">
	xmlns:ndjsontosvg="https://github.com/thompson318/ndjsontosvg"
	xmlns:quickdraw="https://quickdraw.withgoogle.com/data"
	xmlns:scikit-surgery="https://doi.org/10.1007/s11548-020-02180-5">

	<rect width="100%" height="100%" fill="black" />
	<path d = "M 133.59 164.06 L 86.72 199.22 L 77.34 267.19 L 112.50 393.75 L 121.88 475.78 L 128.91 492.19 L 159.38 520.31 L 192.19 534.38 L 225.00 527.34 L 311.72 365.62 L 367.97 295.31 L 384.38 262.50 L 384.38 215.62 L 351.56 180.47 L 300.00 150.00 L 217.97 128.91 L 185.16 121.88 L 135.94 124.22 L 105.47 150.00 L 82.03 152.34 L 0.00 93.75 L 14.06 77.34 L 65.62 60.94 L 114.84 58.59 L 159.38 79.69 L 215.62 96.09 L 574.22 152.34 L 471.09 114.84 L 358.59 86.72 L 543.75 138.28 L 597.66 159.38 L 384.38 187.50 L 302.34 192.19 L 302.34 175.78 L 323.44 159.38 L 295.31 126.56 L 309.38 112.50 L 203.91 72.66 L 210.94 56.25 L 271.88 42.19 L 147.66 7.03 L 196.88 0.00 L 206.25 16.41 L 382.03 70.31 L 398.44 82.03 L 386.72 98.44 L 367.97 105.47 L 386.72 124.22 L 452.34 147.66 L 464.06 166.41 L 421.88 187.50 L 407.81 187.50 L 187.50 114.84 L 185.16 133.59" stroke="white" fill="transparent"/>
	<path d = "M 220.31 283.59 L 255.47 278.91" stroke="white" fill="transparent"/>
	<path d = "M 332.81 307.03 L 307.03 316.41" stroke="white" fill="transparent"/>
</svg>