<?xml version="1.0" encoding="UTF-8" standalone="no"?>
<!--Created with ndjsontosvg (https:https://github.com/thompson318/ndjsontosvg) 
	from the simplified Google quickdraw data set. key_id = 5179163109490688-->
<svg width="600" height="600"
	xmlns="http://www.w3.org/2000/svg">
	xmlns:ndjsontosvg="https://github.com/thompson318/ndjsontosvg"
	xmlns:quickdraw="https://quickdraw.withgoogle.com/data"
	xmlns:scikit-surgery="https://doi.org/10.1007/s11548-020-02180-5">

	<rect width="100%" height="100%" fill="black" />
	<path d = "M 30.47 199.22 L 288.28 208.59 L 358.59 217.97 L 494.53 217.97 L 501.56 325.78 L 480.47 482.81 L 447.66 541.41 L 428.91 560.16 L 384.38 595.31 L 365.62 597.66 L 346.88 588.28 L 281.25 581.25 L 241.41 562.50 L 145.31 499.22 L 100.78 454.69 L 11.72 386.72 L 0.00 349.22 L 16.41 281.25 L 16.41 206.25 L 25.78 194.53" stroke="white" fill="transparent"/>
	<path d = "M 180.47 175.78 L 171.09 37.50 L 182.81 0.00 L 213.28 86.72 L 260.16 0.00 L 278.91 18.75 L 278.91 37.50 L 330.47 7.03 L 370.31 0.00 L 391.41 14.06 L 405.47 84.38 L 426.56 84.38 L 405.47 135.94 L 375.00 161.72 L 356.25 166.41 L 335.16 185.16 L 311.72 187.50 L 295.31 171.09 L 307.03 135.94 L 274.22 75.00 L 255.47 72.66 L 217.97 112.50 L 208.59 131.25 L 213.28 150.00" stroke="white" fill="transparent"/>
	<path d = "M 100.78 206.25 L 121.88 241.41" stroke="white" fill="transparent"/>
	<path d = "M 180.47 236.72 L 196.88 243.75" stroke="white" fill="transparent"/>
	<path d = "M 227.34 262.50 L 227.34 262.50" stroke="white" fill="transparent"/>
</svg>