<?xml version="1.0" encoding="UTF-8" standalone="no"?>
<!--Created with ndjsontosvg (https:https://github.com/thompson318/ndjsontosvg) 
	from the simplified Google quickdraw data set. key_id = 4883322775797760-->
<svg width="600" height="600"
	xmlns="http://www.w3.org/2000/svg">
	xmlns:ndjsontosvg="https://github.com/thompson318/ndjsontosvg"
	xmlns:quickdraw="https://quickdraw.withgoogle.com/data"
	xmlns:scikit-surgery="https://doi.org/10.1007/s11548-020-02180-5">

	<rect width="100%" height="100%" fill="black" />
	<path d = "M 182.81 161.72 L 117.19 152.34 L 91.41 159.38 L 60.94 182.81 L 25.78 260.16 L 23.44 321.09 L 30.47 393.75 L 60.94 503.91 L 114.84 553.12 L 206.25 592.97 L 246.09 597.66 L 292.97 585.94 L 365.62 536.72 L 405.47 471.09 L 426.56 421.88 L 435.94 372.66 L 435.94 302.34 L 414.84 210.94 L 356.25 89.06 L 316.41 79.69 L 283.59 89.06 L 152.34 152.34" stroke="white" fill="transparent"/>
	<path d = "M 0.00 117.19 L 16.41 131.25 L 30.47 161.72 L 39.84 75.00 L 51.56 58.59 L 91.41 138.28 L 103.12 117.19 L 117.19 60.94 L 131.25 70.31 L 142.97 98.44 L 161.72 98.44 L 171.09 37.50 L 192.19 75.00 L 210.94 67.97 L 239.06 7.03 L 257.81 9.38 L 274.22 56.25 L 292.97 0.00 L 304.69 0.00 L 323.44 67.97" stroke="white" fill="transparent"/>
	<path d = "M 124.22 227.34 L 124.22 262.50 L 138.28 267.19 L 152.34 257.81 L 152.34 243.75 L 124.22 239.06 L 131.25 260.16" stroke="white" fill="transparent"/>
	<path d = "M 255.47 187.50 L 255.47 187.50" stroke="white" fill="transparent"/>
</svg>