<?xml version="1.0" encoding="UTF-8" standalone="no"?>
<!--Created with ndjsontosvg (https:https://github.com/thompson318/ndjsontosvg) 
	from the simplified Google quickdraw data set. key_id = 4915144557592576-->
<svg width="600" height="600"
	xmlns="http://www.w3.org/2000/svg">
	xmlns:ndjsontosvg="https://github.com/thompson318/ndjsontosvg"
	xmlns:quickdraw="https://quickdraw.withgoogle.com/data"
	xmlns:scikit-surgery="https://doi.org/10.1007/s11548-020-02180-5">

	<rect width="100%" height="100%" fill="black" />
	<path d = "M 435.94 161.72 L 393.75 152.34 L 194.53 152.34 L 56.25 180.47 L 16.41 215.62 L 2.34 255.47 L 4.69 346.88 L 37.50 433.59 L 84.38 508.59 L 142.97 567.19 L 189.84 588.28 L 243.75 597.66 L 311.72 590.62 L 405.47 546.09 L 468.75 496.88 L 520.31 431.25 L 532.03 400.78 L 546.09 335.16 L 534.38 225.00 L 496.88 154.69 L 457.03 119.53" stroke="white" fill="transparent"/>
	<path d = "M 175.78 133.59 L 161.72 133.59 L 157.03 112.50 L 168.75 65.62 L 194.53 28.12 L 225.00 23.44 L 264.84 77.34 L 285.94 140.62 L 302.34 25.78 L 309.38 0.00 L 325.78 2.34 L 360.94 124.22 L 363.28 53.91 L 396.09 35.16 L 419.53 72.66 L 419.53 138.28 L 393.75 194.53" stroke="white" fill="transparent"/>
	<path d = "M 508.59 274.22 L 475.78 243.75" stroke="white" fill="transparent"/>
	<path d = "M 304.69 271.88 L 302.34 269.53" stroke="white" fill="transparent"/>
	<path d = "M 168.75 227.34 L 154.69 208.59" stroke="white" fill="transparent"/>
	<path d = "M 60.94 285.94 L 86.72 290.62" stroke="white" fill="transparent"/>
	<path d = "M 208.59 438.28 L 222.66 438.28 L 243.75 454.69" stroke="white" fill="transparent"/>
	<path d = "M 304.69 515.62 L 323.44 517.97" stroke="white" fill="transparent"/>
	<path d = "M 459.38 440.62 L 487.50 414.84" stroke="white" fill="transparent"/>
	<path d = "M 389.06 342.19 L 379.69 332.81" stroke="white" fill="transparent"/>
	<path d = "M 246.09 328.12 L 246.09 328.12" stroke="white" fill="transparent"/>
</svg>