<?xml version="1.0" encoding="UTF-8" standalone="no"?>
<!--Created with ndjsontosvg (https:https://github.com/thompson318/ndjsontosvg) 
	from the simplified Google quickdraw data set. key_id = 6309282318385152-->
<svg width="600" height="600"
	xmlns="http://www.w3.org/2000/svg">
	xmlns:ndjsontosvg="https://github.com/thompson318/ndjsontosvg"
	xmlns:quickdraw="https://quickdraw.withgoogle.com/data"
	xmlns:scikit-surgery="https://doi.org/10.1007/s11548-020-02180-5">

	<rect width="100%" height="100%" fill="black" />
	<path d = "M 18.75 112.50 L 70.31 110.16 L 309.38 128.91 L 510.94 161.72 L 597.66 192.19 L 492.19 384.38 L 440.62 513.28 L 407.81 574.22 L 375.00 597.66 L 323.44 595.31 L 281.25 576.56 L 142.97 487.50 L 49.22 400.78 L 16.41 342.19 L 4.69 276.56 L 0.00 138.28 L 4.69 124.22 L 16.41 114.84" stroke="white" fill="transparent"/>
	<path d = "M 161.72 117.19 L 93.75 67.97 L 84.38 53.91 L 84.38 23.44 L 105.47 16.41 L 140.62 18.75 L 180.47 46.88 L 201.56 75.00 L 199.22 32.81 L 210.94 9.38 L 225.00 0.00 L 269.53 2.34 L 302.34 18.75 L 316.41 42.19 L 363.28 30.47 L 414.84 30.47 L 454.69 39.84 L 466.41 46.88 L 464.06 60.94 L 515.62 98.44 L 529.69 117.19 L 534.38 138.28 L 522.66 138.28 L 478.12 98.44 L 400.78 126.56 L 309.38 142.97" stroke="white" fill="transparent"/>
	<path d = "M 105.47 185.16 L 105.47 185.16" stroke="white" fill="transparent"/>
	<path d = "M 311.72 241.41 L 311.72 241.41" stroke="white" fill="transparent"/>
	<path d = "M 391.41 290.62 L 424.22 316.41 L 428.91 335.16 L 410.16 262.50" stroke="white" fill="transparent"/>
</svg>