<?xml version="1.0" encoding="UTF-8" standalone="no"?>
<!--Created with ndjsontosvg (https:https://github.com/thompson318/ndjsontosvg) 
	from the simplified Google quickdraw data set. key_id = 5703860708442112-->
<svg width="600" height="600"
	xmlns="http://www.w3.org/2000/svg">
	xmlns:ndjsontosvg="https://github.com/thompson318/ndjsontosvg"
	xmlns:quickdraw="https://quickdraw.withgoogle.com/data"
	xmlns:scikit-surgery="https://doi.org/10.1007/s11548-020-02180-5">

	<rect width="100%" height="100%" fill="black" />
	<path d = "M 98.44 175.78 L 114.84 164.06 L 283.59 133.59 L 417.19 131.25 L 475.78 159.38 L 532.03 210.94 L 543.75 236.72 L 548.44 309.38 L 534.38 349.22 L 489.84 400.78 L 389.06 468.75 L 276.56 597.66" stroke="white" fill="transparent"/>
	<path d = "M 98.44 175.78 L 56.25 196.88 L 28.12 229.69 L 9.38 269.53 L 0.00 302.34 L 0.00 370.31 L 16.41 426.56 L 51.56 471.09 L 89.06 503.91 L 178.12 532.03 L 213.28 550.78 L 241.41 581.25 L 285.94 585.94 L 307.03 581.25" stroke="white" fill="transparent"/>
	<path d = "M 114.84 274.22 L 114.84 274.22" stroke="white" fill="transparent"/>
	<path d = "M 203.91 302.34 L 203.91 302.34" stroke="white" fill="transparent"/>
	<path d = "M 119.53 281.25 L 133.59 267.19 L 140.62 281.25" stroke="white" fill="transparent"/>
	<path d = "M 241.41 227.34 L 257.81 227.34 L 253.12 241.41 L 274.22 236.72" stroke="white" fill="transparent"/>
	<path d = "M 382.03 234.38 L 438.28 222.66" stroke="white" fill="transparent"/>
	<path d = "M 178.12 370.31 L 189.84 398.44" stroke="white" fill="transparent"/>
	<path d = "M 337.50 330.47 L 321.09 342.19" stroke="white" fill="transparent"/>
	<path d = "M 304.69 480.47 L 302.34 496.88 L 323.44 464.06" stroke="white" fill="transparent"/>
	<path d = "M 454.69 321.09 L 452.34 335.16" stroke="white" fill="transparent"/>
	<path d = "M 250.78 107.81 L 250.78 135.94 L 264.84 117.19" stroke="white" fill="transparent"/>
	<path d = "M 290.62 89.06 L 290.62 75.00 L 353.91 35.16 L 283.59 32.81 L 295.31 4.69 L 267.19 0.00 L 217.97 0.00 L 147.66 37.50 L 171.09 75.00" stroke="white" fill="transparent"/>
	<path d = "M 201.56 89.06 L 229.69 77.34" stroke="white" fill="transparent"/>
</svg>