<?xml version="1.0" encoding="UTF-8" standalone="no"?>
<!--Created with ndjsontosvg (https:https://github.com/thompson318/ndjsontosvg) 
	from the simplified Google quickdraw data set. key_id = 5864393889808384-->
<svg width="600" height="600"
	xmlns="http://www.w3.org/2000/svg">
	xmlns:ndjsontosvg="https://github.com/thompson318/ndjsontosvg"
	xmlns:quickdraw="https://quickdraw.withgoogle.com/data"
	xmlns:scikit-surgery="https://doi.org/10.1007/s11548-020-02180-5">

	<rect width="100%" height="100%" fill="black" />
	<path d = "M 199.22 503.91 L 199.22 419.53 L 182.81 260.16 L 196.88 201.56 L 203.91 93.75 L 255.47 30.47 L 309.38 0.00 L 344.53 4.69 L 358.59 42.19 L 363.28 84.38 L 363.28 138.28 L 344.53 138.28 L 332.81 124.22 L 332.81 49.22 L 323.44 44.53 L 278.91 67.97 L 257.81 103.12 L 227.34 302.34 L 227.34 396.09 L 208.59 482.81" stroke="white" fill="transparent"/>
	<path d = "M 342.19 142.97 L 323.44 182.81 L 295.31 292.97" stroke="white" fill="transparent"/>
	<path d = "M 337.50 171.09 L 344.53 302.34" stroke="white" fill="transparent"/>
	<path d = "M 360.94 168.75 L 360.94 210.94 L 375.00 253.12" stroke="white" fill="transparent"/>
	<path d = "M 370.31 173.44 L 393.75 201.56" stroke="white" fill="transparent"/>
	<path d = "M 393.75 152.34 L 403.12 199.22 L 417.19 217.97" stroke="white" fill="transparent"/>
	<path d = "M 377.34 117.19 L 379.69 147.66 L 393.75 168.75" stroke="white" fill="transparent"/>
	<path d = "M 0.00 503.91 L 51.56 489.84 L 103.12 489.84 L 311.72 541.41 L 391.41 553.12 L 536.72 555.47 L 597.66 548.44" stroke="white" fill="transparent"/>
</svg>