<?xml version="1.0" encoding="UTF-8" standalone="no"?>
<!--Created with ndjsontosvg (https:https://github.com/thompson318/ndjsontosvg) 
	from the simplified Google quickdraw data set. key_id = 5244055401267200-->
<svg width="600" height="600"
	xmlns="http://www.w3.org/2000/svg">
	xmlns:ndjsontosvg="https://github.com/thompson318/ndjsontosvg"
	xmlns:quickdraw="https://quickdraw.withgoogle.com/data"
	xmlns:scikit-surgery="https://doi.org/10.1007/s11548-020-02180-5">

	<rect width="100%" height="100%" fill="black" />
	<path d = "M 30.47 100.78 L 39.84 121.88 L 119.53 206.25 L 189.84 297.66 L 246.09 414.84 L 318.75 515.62 L 346.88 592.97 L 363.28 592.97 L 391.41 541.41 L 393.75 520.31 L 318.75 431.25 L 260.16 271.88 L 107.81 86.72 L 18.75 7.03 L 9.38 0.00 L 0.00 14.06 L 2.34 58.59 L 28.12 100.78 L 63.28 131.25" stroke="white" fill="transparent"/>
	<path d = "M 98.44 145.31 L 93.75 133.59 L 117.19 121.88 L 135.94 121.88 L 135.94 140.62 L 117.19 140.62 L 117.19 114.84" stroke="white" fill="transparent"/>
	<path d = "M 187.50 217.97 L 173.44 203.91 L 187.50 196.88" stroke="white" fill="transparent"/>
</svg>