<?xml version="1.0" encoding="UTF-8" standalone="no"?>
<!--Created with ndjsontosvg (https:https://github.com/thompson318/ndjsontosvg) 
	from the simplified Google quickdraw data set. key_id = 6093532756443136-->
<svg width="600" height="600"
	xmlns="http://www.w3.org/2000/svg">
	xmlns:ndjsontosvg="https://github.com/thompson318/ndjsontosvg"
	xmlns:quickdraw="https://quickdraw.withgoogle.com/data"
	xmlns:scikit-surgery="https://doi.org/10.1007/s11548-020-02180-5">

	<rect width="100%" height="100%" fill="black" />
	<path d = "M 2.34 7.03 L 2.34 82.03 L 18.75 152.34 L 23.44 243.75 L 75.00 264.84 L 89.06 281.25 L 138.28 393.75 L 154.69 410.16 L 192.19 431.25 L 222.66 496.88 L 248.44 522.66 L 311.72 564.84 L 358.59 585.94 L 398.44 597.66 L 405.47 585.94 L 384.38 548.44 L 321.09 473.44 L 292.97 417.19 L 264.84 323.44 L 210.94 264.84 L 140.62 215.62 L 121.88 182.81 L 117.19 131.25 L 98.44 89.06 L 49.22 21.09 L 0.00 0.00" stroke="white" fill="transparent"/>
	<path d = "M 82.03 121.88 L 60.94 142.97 L 53.91 201.56 L 65.62 215.62 L 75.00 215.62 L 98.44 173.44 L 100.78 147.66 L 96.09 140.62 L 79.69 135.94" stroke="white" fill="transparent"/>
	<path d = "M 175.78 292.97 L 159.38 328.12 L 159.38 349.22 L 175.78 377.34" stroke="white" fill="transparent"/>
</svg>