<?xml version="1.0" encoding="UTF-8" standalone="no"?>
<!--Created with ndjsontosvg (https:https://github.com/thompson318/ndjsontosvg) 
	from the simplified Google quickdraw data set. key_id = 5714143313133568-->
<svg width="600" height="600"
	xmlns="http://www.w3.org/2000/svg">
	xmlns:ndjsontosvg="https://github.com/thompson318/ndjsontosvg"
	xmlns:quickdraw="https://quickdraw.withgoogle.com/data"
	xmlns:scikit-surgery="https://doi.org/10.1007/s11548-020-02180-5">

	<rect width="100%" height="100%" fill="black" />
	<path d = "M 119.53 135.94 L 302.34 114.84 L 389.06 112.50 L 454.69 124.22 L 517.97 164.06 L 529.69 187.50 L 527.34 213.28 L 482.81 253.12 L 386.72 271.88 L 239.06 264.84" stroke="white" fill="transparent"/>
	<path d = "M 499.22 157.03 L 508.59 171.09 L 499.22 194.53 L 464.06 220.31 L 414.84 241.41 L 314.06 257.81 L 135.94 250.78" stroke="white" fill="transparent"/>
	<path d = "M 114.84 140.62 L 145.31 180.47 L 187.50 196.88 L 248.44 206.25 L 398.44 210.94" stroke="white" fill="transparent"/>
	<path d = "M 105.47 138.28 L 72.66 98.44 L 44.53 89.06 L 25.78 96.09 L 14.06 117.19 L 21.09 135.94 L 35.16 145.31 L 128.91 150.00" stroke="white" fill="transparent"/>
	<path d = "M 349.22 112.50 L 384.38 51.56 L 438.28 7.03 L 513.28 0.00 L 597.66 16.41" stroke="white" fill="transparent"/>
	<path d = "M 508.59 2.34 L 510.94 32.81 L 501.56 39.84 L 382.03 56.25" stroke="white" fill="transparent"/>
	<path d = "M 447.66 124.22 L 433.59 126.56 L 410.16 147.66 L 412.50 161.72 L 440.62 171.09 L 461.72 157.03 L 464.06 142.97 L 454.69 126.56 L 435.94 126.56" stroke="white" fill="transparent"/>
	<path d = "M 353.91 133.59 L 335.16 131.25 L 314.06 142.97 L 307.03 157.03 L 311.72 166.41 L 353.91 171.09 L 375.00 147.66 L 377.34 135.94 L 356.25 121.88 L 318.75 117.19" stroke="white" fill="transparent"/>
	<path d = "M 264.84 135.94 L 250.78 135.94 L 225.00 159.38 L 217.97 175.78 L 227.34 182.81 L 248.44 178.12 L 264.84 159.38 L 264.84 135.94 L 241.41 128.91" stroke="white" fill="transparent"/>
	<path d = "M 173.44 133.59 L 138.28 171.09 L 161.72 175.78 L 189.84 152.34 L 189.84 128.91 L 164.06 124.22" stroke="white" fill="transparent"/>
	<path d = "M 0.00 37.50 L 9.38 53.91 L 37.50 65.62 L 63.28 65.62 L 135.94 32.81 L 203.91 46.88 L 234.38 44.53 L 281.25 25.78 L 330.47 37.50 L 367.97 30.47 L 391.41 39.84" stroke="white" fill="transparent"/>
</svg>