<?xml version="1.0" encoding="UTF-8" standalone="no"?>
<!--Created with ndjsontosvg (https:https://github.com/thompson318/ndjsontosvg) 
	from the simplified Google quickdraw data set. key_id = 5382528468779008-->
<svg width="600" height="600"
	xmlns="http://www.w3.org/2000/svg">
	xmlns:ndjsontosvg="https://github.com/thompson318/ndjsontosvg"
	xmlns:quickdraw="https://quickdraw.withgoogle.com/data"
	xmlns:scikit-surgery="https://doi.org/10.1007/s11548-020-02180-5">

	<rect width="100%" height="100%" fill="black" />
	<path d = "M 536.72 297.66 L 393.75 250.78 L 276.56 267.19 L 173.44 253.12 L 107.81 260.16 L 21.09 321.09 L 0.00 370.31 L 7.03 398.44 L 25.78 424.22 L 63.28 457.03 L 96.09 475.78 L 133.59 482.81 L 246.09 471.09 L 384.38 482.81 L 480.47 471.09 L 564.84 450.00 L 585.94 428.91 L 595.31 398.44 L 590.62 339.84 L 576.56 318.75 L 550.78 302.34 L 492.19 276.56" stroke="white" fill="transparent"/>
	<path d = "M 285.94 271.88 L 307.03 203.91 L 314.06 51.56 L 300.00 21.09 L 243.75 0.00 L 208.59 28.12 L 192.19 79.69 L 194.53 159.38 L 213.28 269.53" stroke="white" fill="transparent"/>
</svg>