<?xml version="1.0" encoding="UTF-8" standalone="no"?>
<!--Created with ndjsontosvg (https:https://github.com/thompson318/ndjsontosvg) 
	from the simplified Google quickdraw data set. key_id = 6607637305098240-->
<svg width="600" height="600"
	xmlns="http://www.w3.org/2000/svg">
	xmlns:ndjsontosvg="https://github.com/thompson318/ndjsontosvg"
	xmlns:quickdraw="https://quickdraw.withgoogle.com/data"
	xmlns:scikit-surgery="https://doi.org/10.1007/s11548-020-02180-5">

	<rect width="100%" height="100%" fill="black" />
	<path d = "M 365.62 110.16 L 290.62 91.41 L 96.09 91.41 L 49.22 105.47 L 16.41 131.25 L 7.03 150.00 L 0.00 210.94 L 2.34 267.19 L 39.84 290.62 L 135.94 290.62 L 180.47 274.22 L 227.34 267.19 L 417.19 267.19 L 485.16 257.81 L 569.53 196.88 L 592.97 166.41 L 597.66 147.66 L 564.84 112.50 L 398.44 72.66 L 318.75 72.66 L 300.00 82.03" stroke="white" fill="transparent"/>
	<path d = "M 278.91 82.03 L 281.25 37.50 L 311.72 0.00 L 323.44 0.00 L 330.47 9.38 L 335.16 51.56 L 321.09 65.62" stroke="white" fill="transparent"/>
</svg>