<?xml version="1.0" encoding="UTF-8" standalone="no"?>
<!--Created with ndjsontosvg (https:https://github.com/thompson318/ndjsontosvg) 
	from the simplified Google quickdraw data set. key_id = 4703632303849472-->
<svg width="600" height="600"
	xmlns="http://www.w3.org/2000/svg">
	xmlns:ndjsontosvg="https://github.com/thompson318/ndjsontosvg"
	xmlns:quickdraw="https://quickdraw.withgoogle.com/data"
	xmlns:scikit-surgery="https://doi.org/10.1007/s11548-020-02180-5">

	<rect width="100%" height="100%" fill="black" />
	<path d = "M 225.00 433.59 L 239.06 445.31 L 307.03 459.38 L 471.09 461.72 L 546.09 426.56 L 578.91 400.78 L 592.97 379.69 L 597.66 304.69 L 564.84 264.84 L 442.97 215.62 L 342.19 194.53 L 250.78 194.53 L 220.31 208.59 L 208.59 227.34 L 180.47 316.41 L 178.12 438.28 L 192.19 489.84 L 203.91 506.25 L 222.66 515.62 L 372.66 508.59 L 426.56 482.81 L 447.66 464.06 L 461.72 438.28" stroke="white" fill="transparent"/>
	<path d = "M 532.03 253.12 L 532.03 288.28 L 555.47 360.94 L 567.19 379.69 L 583.59 379.69 L 588.28 367.97" stroke="white" fill="transparent"/>
	<path d = "M 335.16 182.81 L 337.50 7.03 L 346.88 2.34 L 424.22 2.34 L 417.19 44.53 L 377.34 46.88 L 372.66 53.91 L 365.62 86.72 L 363.28 180.47" stroke="white" fill="transparent"/>
	<path d = "M 182.81 304.69 L 121.88 290.62 L 37.50 288.28 L 32.81 384.38 L 84.38 396.09 L 173.44 398.44" stroke="white" fill="transparent"/>
	<path d = "M 35.16 288.28 L 30.47 229.69 L 0.00 175.78" stroke="white" fill="transparent"/>
</svg>