<?xml version="1.0" encoding="UTF-8" standalone="no"?>
<!--Created with ndjsontosvg (https:https://github.com/thompson318/ndjsontosvg) 
	from the simplified Google quickdraw data set. key_id = 5276903999012864-->
<svg width="600" height="600"
	xmlns="http://www.w3.org/2000/svg">
	xmlns:ndjsontosvg="https://github.com/thompson318/ndjsontosvg"
	xmlns:quickdraw="https://quickdraw.withgoogle.com/data"
	xmlns:scikit-surgery="https://doi.org/10.1007/s11548-020-02180-5">

	<rect width="100%" height="100%" fill="black" />
	<path d = "M 0.00 105.47 L 131.25 39.84 L 267.19 9.38 L 478.12 4.69 L 597.66 21.09" stroke="white" fill="transparent"/>
	<path d = "M 356.25 75.00 L 185.16 164.06 L 157.03 199.22 L 152.34 220.31 L 164.06 225.00 L 351.56 215.62 L 391.41 206.25 L 414.84 185.16 L 435.94 126.56 L 435.94 96.09 L 424.22 77.34 L 396.09 58.59 L 360.94 51.56 L 295.31 51.56 L 267.19 63.28" stroke="white" fill="transparent"/>
	<path d = "M 377.34 51.56 L 379.69 2.34 L 396.09 0.00 L 424.22 11.72 L 417.19 72.66" stroke="white" fill="transparent"/>
	<path d = "M 363.28 93.75 L 360.94 114.84 L 386.72 112.50 L 393.75 91.41 L 365.62 91.41 L 360.94 98.44" stroke="white" fill="transparent"/>
	<path d = "M 360.94 110.16 L 372.66 157.03" stroke="white" fill="transparent"/>
</svg>