<?xml version="1.0" encoding="UTF-8" standalone="no"?>
<!--Created with ndjsontosvg (https:https://github.com/thompson318/ndjsontosvg) 
	from the simplified Google quickdraw data set. key_id = 6030495508856832-->
<svg width="600" height="600"
	xmlns="http://www.w3.org/2000/svg">
	xmlns:ndjsontosvg="https://github.com/thompson318/ndjsontosvg"
	xmlns:quickdraw="https://quickdraw.withgoogle.com/data"
	xmlns:scikit-surgery="https://doi.org/10.1007/s11548-020-02180-5">

	<rect width="100%" height="100%" fill="black" />
	<path d = "M 229.69 82.03 L 433.59 77.34 L 525.00 103.12 L 574.22 138.28 L 597.66 189.84 L 588.28 210.94 L 536.72 243.75 L 379.69 281.25 L 206.25 290.62 L 117.19 278.91 L 60.94 262.50 L 4.69 215.62 L 0.00 175.78 L 7.03 159.38 L 16.41 140.62 L 53.91 112.50 L 131.25 86.72 L 239.06 79.69" stroke="white" fill="transparent"/>
	<path d = "M 297.66 67.97 L 288.28 25.78" stroke="white" fill="transparent"/>
	<path d = "M 297.66 79.69 L 281.25 16.41 L 304.69 2.34 L 346.88 0.00 L 353.91 16.41 L 314.06 32.81 L 311.72 82.03" stroke="white" fill="transparent"/>
	<path d = "M 489.84 103.12 L 485.16 159.38 L 515.62 173.44" stroke="white" fill="transparent"/>
</svg>