<?xml version="1.0" encoding="UTF-8" standalone="no"?>
<!--Created with ndjsontosvg (https:https://github.com/thompson318/ndjsontosvg) 
	from the simplified Google quickdraw data set. key_id = 5397626587447296-->
<svg width="600" height="600"
	xmlns="http://www.w3.org/2000/svg">
	xmlns:ndjsontosvg="https://github.com/thompson318/ndjsontosvg"
	xmlns:quickdraw="https://quickdraw.withgoogle.com/data"
	xmlns:scikit-surgery="https://doi.org/10.1007/s11548-020-02180-5">

	<rect width="100%" height="100%" fill="black" />
	<path d = "M 203.91 164.06 L 302.34 150.00 L 466.41 150.00 L 546.09 164.06 L 595.31 225.00 L 597.66 255.47 L 590.62 276.56 L 539.06 309.38 L 468.75 328.12 L 414.84 337.50 L 220.31 330.47 L 98.44 314.06 L 25.78 283.59 L 4.69 243.75 L 0.00 208.59 L 25.78 166.41 L 82.03 152.34 L 239.06 157.03" stroke="white" fill="transparent"/>
	<path d = "M 391.41 138.28 L 407.81 82.03 L 433.59 72.66 L 508.59 91.41 L 515.62 107.81 L 510.94 140.62" stroke="white" fill="transparent"/>
	<path d = "M 459.38 65.62 L 464.06 53.91 L 489.84 46.88 L 485.16 89.06" stroke="white" fill="transparent"/>
	<path d = "M 482.81 28.12 L 494.53 11.72 L 529.69 0.00 L 557.81 4.69 L 569.53 16.41" stroke="white" fill="transparent"/>
</svg>