<?xml version="1.0" encoding="UTF-8" standalone="no"?>
<!--Created with ndjsontosvg (https:https://github.com/thompson318/ndjsontosvg) 
	from the simplified Google quickdraw data set. key_id = 4878289531305984-->
<svg width="600" height="600"
	xmlns="http://www.w3.org/2000/svg">
	xmlns:ndjsontosvg="https://github.com/thompson318/ndjsontosvg"
	xmlns:quickdraw="https://quickdraw.withgoogle.com/data"
	xmlns:scikit-surgery="https://doi.org/10.1007/s11548-020-02180-5">

	<rect width="100%" height="100%" fill="black" />
	<path d = "M 353.91 91.41 L 304.69 107.81 L 117.19 110.16 L 53.91 126.56 L 0.00 150.00 L 0.00 182.81 L 30.47 285.94 L 28.12 501.56 L 318.75 499.22 L 438.28 520.31 L 592.97 517.97 L 595.31 468.75 L 560.16 377.34 L 553.12 311.72 L 529.69 248.44 L 508.59 89.06 L 501.56 84.38 L 468.75 105.47 L 398.44 119.53 L 239.06 107.81" stroke="white" fill="transparent"/>
	<path d = "M 128.91 96.09 L 147.66 56.25 L 236.72 0.00 L 276.56 7.03 L 292.97 16.41 L 307.03 60.94 L 304.69 89.06" stroke="white" fill="transparent"/>
	<path d = "M 28.12 239.06 L 185.16 239.06 L 262.50 232.03 L 576.56 234.38" stroke="white" fill="transparent"/>
</svg>