<?xml version="1.0" encoding="UTF-8" standalone="no"?>
<!--Created with ndjsontosvg (https:https://github.com/thompson318/ndjsontosvg) 
	from the simplified Google quickdraw data set. key_id = 4754494749409280-->
<svg width="600" height="600"
	xmlns="http://www.w3.org/2000/svg">
	xmlns:ndjsontosvg="https://github.com/thompson318/ndjsontosvg"
	xmlns:quickdraw="https://quickdraw.withgoogle.com/data"
	xmlns:scikit-surgery="https://doi.org/10.1007/s11548-020-02180-5">

	<rect width="100%" height="100%" fill="black" />
	<path d = "M 2.34 159.38 L 9.38 264.84 L 7.03 412.50 L 18.75 442.97 L 44.53 464.06 L 131.25 475.78 L 440.62 478.12 L 492.19 454.69 L 522.66 417.19 L 564.84 332.81 L 597.66 220.31 L 595.31 159.38 L 562.50 121.88 L 529.69 107.81 L 452.34 98.44 L 187.50 96.09 L 70.31 105.47 L 39.84 114.84 L 23.44 128.91" stroke="white" fill="transparent"/>
	<path d = "M 222.66 112.50 L 217.97 103.12 L 220.31 67.97 L 239.06 30.47 L 271.88 4.69 L 311.72 0.00 L 342.19 9.38 L 363.28 30.47 L 386.72 103.12" stroke="white" fill="transparent"/>
</svg>