<?xml version="1.0" encoding="UTF-8" standalone="no"?>
<!--Created with ndjsontosvg (https:https://github.com/thompson318/ndjsontosvg) 
	from the simplified Google quickdraw data set. key_id = 5977725053435904-->
<svg width="600" height="600"
	xmlns="http://www.w3.org/2000/svg">
	xmlns:ndjsontosvg="https://github.com/thompson318/ndjsontosvg"
	xmlns:quickdraw="https://quickdraw.withgoogle.com/data"
	xmlns:scikit-surgery="https://doi.org/10.1007/s11548-020-02180-5">

	<rect width="100%" height="100%" fill="black" />
	<path d = "M 403.12 91.41 L 393.75 77.34 L 365.62 60.94 L 314.06 53.91 L 208.59 77.34 L 121.88 128.91 L 84.38 175.78 L 75.00 220.31 L 91.41 292.97 L 124.22 346.88 L 157.03 375.00 L 199.22 396.09 L 288.28 410.16 L 375.00 391.41 L 433.59 360.94 L 457.03 337.50 L 494.53 285.94 L 503.91 257.81 L 501.56 227.34 L 489.84 189.84 L 461.72 145.31 L 433.59 110.16 L 393.75 82.03" stroke="white" fill="transparent"/>
	<path d = "M 421.88 105.47 L 468.75 75.00 L 503.91 63.28" stroke="white" fill="transparent"/>
	<path d = "M 464.06 154.69 L 508.59 138.28 L 576.56 140.62" stroke="white" fill="transparent"/>
	<path d = "M 492.19 246.09 L 506.25 241.41 L 536.72 248.44 L 597.66 271.88" stroke="white" fill="transparent"/>
	<path d = "M 450.00 344.53 L 473.44 360.94 L 520.31 428.91" stroke="white" fill="transparent"/>
	<path d = "M 353.91 405.47 L 403.12 454.69" stroke="white" fill="transparent"/>
	<path d = "M 180.47 405.47 L 178.12 452.34" stroke="white" fill="transparent"/>
	<path d = "M 107.81 342.19 L 86.72 379.69 L 82.03 407.81" stroke="white" fill="transparent"/>
	<path d = "M 84.38 269.53 L 58.59 278.91 L 23.44 307.03" stroke="white" fill="transparent"/>
	<path d = "M 70.31 145.31 L 0.00 157.03" stroke="white" fill="transparent"/>
	<path d = "M 131.25 114.84 L 79.69 63.28" stroke="white" fill="transparent"/>
	<path d = "M 217.97 75.00 L 217.97 39.84 L 243.75 7.03" stroke="white" fill="transparent"/>
	<path d = "M 337.50 46.88 L 403.12 0.00" stroke="white" fill="transparent"/>
	<path d = "M 417.19 386.72 L 466.41 438.28" stroke="white" fill="transparent"/>
	<path d = "M 239.06 424.22 L 255.47 457.03" stroke="white" fill="transparent"/>
	<path d = "M 304.69 407.81 L 330.47 457.03" stroke="white" fill="transparent"/>
	<path d = "M 145.31 161.72 L 145.31 161.72" stroke="white" fill="transparent"/>
	<path d = "M 356.25 131.25 L 358.59 133.59" stroke="white" fill="transparent"/>
</svg>