<?xml version="1.0" encoding="UTF-8" standalone="no"?>
<!--Created with ndjsontosvg (https:https://github.com/thompson318/ndjsontosvg) 
	from the simplified Google quickdraw data set. key_id = 5744527052636160-->
<svg width="600" height="600"
	xmlns="http://www.w3.org/2000/svg">
	xmlns:ndjsontosvg="https://github.com/thompson318/ndjsontosvg"
	xmlns:quickdraw="https://quickdraw.withgoogle.com/data"
	xmlns:scikit-surgery="https://doi.org/10.1007/s11548-020-02180-5">

	<rect width="100%" height="100%" fill="black" />
	<path d = "M 281.25 124.22 L 229.69 117.19 L 157.03 150.00 L 124.22 192.19 L 121.88 267.19 L 142.97 311.72 L 194.53 358.59 L 262.50 386.72 L 311.72 389.06 L 349.22 386.72 L 379.69 353.91 L 400.78 302.34 L 400.78 227.34 L 386.72 194.53 L 358.59 166.41 L 311.72 142.97 L 253.12 124.22" stroke="white" fill="transparent"/>
	<path d = "M 147.66 72.66 L 75.00 25.78 L 39.84 11.72" stroke="white" fill="transparent"/>
	<path d = "M 63.28 278.91 L 0.00 300.00" stroke="white" fill="transparent"/>
	<path d = "M 140.62 412.50 L 121.88 541.41" stroke="white" fill="transparent"/>
	<path d = "M 346.88 457.03 L 412.50 574.22 L 438.28 597.66" stroke="white" fill="transparent"/>
	<path d = "M 454.69 321.09 L 506.25 316.41 L 520.31 302.34" stroke="white" fill="transparent"/>
	<path d = "M 377.34 119.53 L 386.72 100.78 L 384.38 77.34 L 342.19 0.00" stroke="white" fill="transparent"/>
	<path d = "M 229.69 53.91 L 164.06 0.00" stroke="white" fill="transparent"/>
</svg>