<?xml version="1.0" encoding="UTF-8" standalone="no"?>
<!--Created with ndjsontosvg (https:https://github.com/thompson318/ndjsontosvg) 
	from the simplified Google quickdraw data set. key_id = 6755140306468864-->
<svg width="600" height="600"
	xmlns="http://www.w3.org/2000/svg">
	xmlns:ndjsontosvg="https://github.com/thompson318/ndjsontosvg"
	xmlns:quickdraw="https://quickdraw.withgoogle.com/data"
	xmlns:scikit-surgery="https://doi.org/10.1007/s11548-020-02180-5">

	<rect width="100%" height="100%" fill="black" />
	<path d = "M 138.28 166.41 L 103.12 171.09 L 79.69 182.81 L 30.47 246.09 L 0.00 318.75 L 2.34 332.81 L 16.41 351.56 L 65.62 377.34 L 173.44 391.41 L 264.84 370.31 L 295.31 339.84 L 311.72 311.72 L 328.12 255.47 L 323.44 232.03 L 304.69 208.59 L 248.44 171.09 L 201.56 173.44 L 142.97 159.38" stroke="white" fill="transparent"/>
	<path d = "M 86.72 379.69 L 91.41 492.19" stroke="white" fill="transparent"/>
	<path d = "M 168.75 400.78 L 213.28 567.19" stroke="white" fill="transparent"/>
	<path d = "M 262.50 372.66 L 316.41 435.94 L 382.03 480.47" stroke="white" fill="transparent"/>
	<path d = "M 302.34 337.50 L 356.25 365.62 L 480.47 405.47" stroke="white" fill="transparent"/>
	<path d = "M 323.44 239.06 L 597.66 243.75" stroke="white" fill="transparent"/>
	<path d = "M 295.31 147.66 L 318.75 93.75 L 349.22 60.94" stroke="white" fill="transparent"/>
	<path d = "M 196.88 150.00 L 173.44 107.81 L 60.94 0.00" stroke="white" fill="transparent"/>
</svg>