<?xml version="1.0" encoding="UTF-8" standalone="no"?>
<!--Created with ndjsontosvg (https:https://github.com/thompson318/ndjsontosvg) 
	from the simplified Google quickdraw data set. key_id = 4632116279115776-->
<svg width="600" height="600"
	xmlns="http://www.w3.org/2000/svg">
	xmlns:ndjsontosvg="https://github.com/thompson318/ndjsontosvg"
	xmlns:quickdraw="https://quickdraw.withgoogle.com/data"
	xmlns:scikit-surgery="https://doi.org/10.1007/s11548-020-02180-5">

	<rect width="100%" height="100%" fill="black" />
	<path d = "M 342.19 114.84 L 278.91 105.47 L 246.09 131.25 L 229.69 157.03 L 229.69 180.47 L 248.44 217.97 L 290.62 250.78 L 330.47 269.53 L 360.94 281.25 L 391.41 283.59 L 440.62 260.16 L 494.53 201.56 L 503.91 168.75 L 503.91 138.28 L 471.09 110.16 L 386.72 89.06 L 307.03 79.69" stroke="white" fill="transparent"/>
	<path d = "M 358.59 86.72 L 382.03 42.19 L 424.22 0.00" stroke="white" fill="transparent"/>
	<path d = "M 482.81 117.19 L 510.94 107.81 L 588.28 56.25" stroke="white" fill="transparent"/>
	<path d = "M 550.78 194.53 L 555.47 206.25" stroke="white" fill="transparent"/>
	<path d = "M 543.75 215.62 L 597.66 210.94" stroke="white" fill="transparent"/>
	<path d = "M 464.06 227.34 L 569.53 215.62" stroke="white" fill="transparent"/>
	<path d = "M 403.12 271.88 L 403.12 304.69 L 426.56 351.56" stroke="white" fill="transparent"/>
	<path d = "M 297.66 257.81 L 232.03 346.88" stroke="white" fill="transparent"/>
	<path d = "M 213.28 241.41 L 0.00 210.94" stroke="white" fill="transparent"/>
</svg>