<?xml version="1.0" encoding="UTF-8" standalone="no"?>
<!--Created with ndjsontosvg (https:https://github.com/thompson318/ndjsontosvg) 
	from the simplified Google quickdraw data set. key_id = 5132550521487360-->
<svg width="600" height="600"
	xmlns="http://www.w3.org/2000/svg">
	xmlns:ndjsontosvg="https://github.com/thompson318/ndjsontosvg"
	xmlns:quickdraw="https://quickdraw.withgoogle.com/data"
	xmlns:scikit-surgery="https://doi.org/10.1007/s11548-020-02180-5">

	<rect width="100%" height="100%" fill="black" />
	<path d = "M 332.81 16.41 L 297.66 9.38 L 215.62 30.47 L 182.81 60.94 L 147.66 117.19 L 135.94 180.47 L 140.62 236.72 L 161.72 271.88 L 201.56 309.38 L 276.56 337.50 L 337.50 330.47 L 386.72 300.00 L 433.59 236.72 L 442.97 175.78 L 417.19 82.03 L 375.00 32.81 L 344.53 11.72 L 307.03 0.00" stroke="white" fill="transparent"/>
	<path d = "M 513.28 60.94 L 597.66 35.16" stroke="white" fill="transparent"/>
	<path d = "M 522.66 173.44 L 590.62 185.16" stroke="white" fill="transparent"/>
	<path d = "M 496.88 297.66 L 548.44 330.47" stroke="white" fill="transparent"/>
	<path d = "M 424.22 339.84 L 405.47 405.47" stroke="white" fill="transparent"/>
	<path d = "M 304.69 367.97 L 278.91 393.75 L 271.88 417.19" stroke="white" fill="transparent"/>
	<path d = "M 161.72 321.09 L 93.75 344.53" stroke="white" fill="transparent"/>
	<path d = "M 79.69 225.00 L 51.56 236.72 L 7.03 239.06 L 0.00 217.97" stroke="white" fill="transparent"/>
	<path d = "M 84.38 91.41 L 42.19 37.50" stroke="white" fill="transparent"/>
</svg>