<?xml version="1.0" encoding="UTF-8" standalone="no"?>
<!--Created with ndjsontosvg (https:https://github.com/thompson318/ndjsontosvg) 
	from the simplified Google quickdraw data set. key_id = 6168491914690560-->
<svg width="600" height="600"
	xmlns="http://www.w3.org/2000/svg">
	xmlns:ndjsontosvg="https://github.com/thompson318/ndjsontosvg"
	xmlns:quickdraw="https://quickdraw.withgoogle.com/data"
	xmlns:scikit-surgery="https://doi.org/10.1007/s11548-020-02180-5">

	<rect width="100%" height="100%" fill="black" />
	<path d = "M 353.91 206.25 L 323.44 213.28 L 255.47 243.75 L 213.28 276.56 L 201.56 295.31 L 196.88 349.22 L 215.62 400.78 L 262.50 464.06 L 285.94 473.44 L 295.31 468.75 L 405.47 325.78 L 431.25 229.69 L 424.22 128.91 L 370.31 44.53 L 311.72 2.34 L 229.69 0.00" stroke="white" fill="transparent"/>
	<path d = "M 468.75 236.72 L 560.16 196.88" stroke="white" fill="transparent"/>
	<path d = "M 405.47 302.34 L 431.25 339.84 L 468.75 426.56" stroke="white" fill="transparent"/>
	<path d = "M 278.91 468.75 L 283.59 597.66" stroke="white" fill="transparent"/>
	<path d = "M 161.72 391.41 L 152.34 398.44 L 0.00 290.62" stroke="white" fill="transparent"/>
	<path d = "M 103.12 75.00 L 112.50 105.47 L 138.28 152.34" stroke="white" fill="transparent"/>
</svg>