<?xml version="1.0" encoding="UTF-8" standalone="no"?>
<!--Created with ndjsontosvg (https:https://github.com/thompson318/ndjsontosvg) 
	from the simplified Google quickdraw data set. key_id = 6601435108081664-->
<svg width="600" height="600"
	xmlns="http://www.w3.org/2000/svg">
	xmlns:ndjsontosvg="https://github.com/thompson318/ndjsontosvg"
	xmlns:quickdraw="https://quickdraw.withgoogle.com/data"
	xmlns:scikit-surgery="https://doi.org/10.1007/s11548-020-02180-5">

	<rect width="100%" height="100%" fill="black" />
	<path d = "M 253.12 37.50 L 175.78 42.19 L 46.88 110.16 L 7.03 161.72 L 2.34 232.03 L 16.41 264.84 L 44.53 295.31 L 114.84 335.16 L 217.97 372.66 L 278.91 382.03 L 300.00 372.66 L 335.16 297.66 L 339.84 264.84 L 337.50 203.91 L 302.34 147.66 L 220.31 77.34" stroke="white" fill="transparent"/>
	<path d = "M 318.75 51.56 L 351.56 9.38 L 367.97 0.00" stroke="white" fill="transparent"/>
	<path d = "M 375.00 82.03 L 419.53 72.66" stroke="white" fill="transparent"/>
	<path d = "M 360.94 178.12 L 485.16 278.91" stroke="white" fill="transparent"/>
	<path d = "M 398.44 307.03 L 405.47 389.06 L 389.06 440.62" stroke="white" fill="transparent"/>
	<path d = "M 318.75 489.84 L 201.56 574.22 L 157.03 597.66" stroke="white" fill="transparent"/>
	<path d = "M 208.59 412.50 L 178.12 473.44 L 142.97 520.31" stroke="white" fill="transparent"/>
</svg>