<?xml version="1.0" encoding="UTF-8" standalone="no"?>
<!--Created with ndjsontosvg (https:https://github.com/thompson318/ndjsontosvg) 
	from the simplified Google quickdraw data set. key_id = 5868609412792320-->
<svg width="600" height="600"
	xmlns="http://www.w3.org/2000/svg">
	xmlns:ndjsontosvg="https://github.com/thompson318/ndjsontosvg"
	xmlns:quickdraw="https://quickdraw.withgoogle.com/data"
	xmlns:scikit-surgery="https://doi.org/10.1007/s11548-020-02180-5">

	<rect width="100%" height="100%" fill="black" />
	<path d = "M 337.50 140.62 L 243.75 199.22 L 213.28 248.44 L 196.88 304.69 L 203.91 337.50 L 227.34 360.94 L 276.56 386.72 L 323.44 398.44 L 398.44 389.06 L 445.31 358.59 L 468.75 325.78 L 478.12 292.97 L 478.12 210.94 L 459.38 175.78 L 438.28 154.69 L 365.62 117.19 L 267.19 107.81 L 239.06 114.84 L 222.66 128.91" stroke="white" fill="transparent"/>
	<path d = "M 257.81 199.22 L 154.69 152.34 L 51.56 133.59" stroke="white" fill="transparent"/>
	<path d = "M 210.94 262.50 L 142.97 239.06 L 79.69 227.34 L 11.72 222.66 L 2.34 225.00 L 2.34 234.38" stroke="white" fill="transparent"/>
	<path d = "M 185.16 349.22 L 150.00 367.97 L 138.28 396.09 L 150.00 435.94 L 173.44 464.06" stroke="white" fill="transparent"/>
	<path d = "M 267.19 360.94 L 304.69 450.00 L 346.88 508.59 L 372.66 532.03" stroke="white" fill="transparent"/>
	<path d = "M 393.75 398.44 L 410.16 417.19 L 440.62 440.62 L 482.81 454.69" stroke="white" fill="transparent"/>
	<path d = "M 431.25 328.12 L 534.38 309.38" stroke="white" fill="transparent"/>
	<path d = "M 480.47 248.44 L 567.19 164.06 L 597.66 107.81" stroke="white" fill="transparent"/>
	<path d = "M 450.00 182.81 L 445.31 77.34 L 431.25 0.00" stroke="white" fill="transparent"/>
	<path d = "M 382.03 112.50 L 335.16 65.62" stroke="white" fill="transparent"/>
</svg>