<?xml version="1.0" encoding="UTF-8" standalone="no"?>
<!--Created with ndjsontosvg (https:https://github.com/thompson318/ndjsontosvg) 
	from the simplified Google quickdraw data set. key_id = 6684726469328896-->
<svg width="600" height="600"
	xmlns="http://www.w3.org/2000/svg">
	xmlns:ndjsontosvg="https://github.com/thompson318/ndjsontosvg"
	xmlns:quickdraw="https://quickdraw.withgoogle.com/data"
	xmlns:scikit-surgery="https://doi.org/10.1007/s11548-020-02180-5">

	<rect width="100%" height="100%" fill="black" />
	<path d = "M 213.28 112.50 L 117.19 107.81 L 77.34 119.53 L 58.59 142.97 L 25.78 210.94 L 2.34 337.50 L 9.38 375.00 L 32.81 417.19 L 58.59 447.66 L 105.47 464.06 L 194.53 464.06 L 236.72 457.03 L 267.19 442.97 L 330.47 346.88 L 342.19 304.69 L 342.19 220.31 L 330.47 175.78 L 316.41 161.72 L 257.81 133.59 L 168.75 105.47" stroke="white" fill="transparent"/>
	<path d = "M 154.69 49.22 L 168.75 11.72" stroke="white" fill="transparent"/>
	<path d = "M 274.22 79.69 L 311.72 49.22 L 412.50 0.00" stroke="white" fill="transparent"/>
	<path d = "M 398.44 239.06 L 489.84 264.84" stroke="white" fill="transparent"/>
	<path d = "M 353.91 360.94 L 400.78 400.78 L 426.56 452.34" stroke="white" fill="transparent"/>
	<path d = "M 281.25 475.78 L 260.16 541.41" stroke="white" fill="transparent"/>
	<path d = "M 96.09 527.34 L 30.47 581.25 L 0.00 595.31" stroke="white" fill="transparent"/>
</svg>