<?xml version="1.0" encoding="UTF-8" standalone="no"?>
<!--Created with ndjsontosvg (https:https://github.com/thompson318/ndjsontosvg) 
	from the simplified Google quickdraw data set. key_id = 6086302615207936-->
<svg width="600" height="600"
	xmlns="http://www.w3.org/2000/svg">
	xmlns:ndjsontosvg="https://github.com/thompson318/ndjsontosvg"
	xmlns:quickdraw="https://quickdraw.withgoogle.com/data"
	xmlns:scikit-surgery="https://doi.org/10.1007/s11548-020-02180-5">

	<rect width="100%" height="100%" fill="black" />
	<path d = "M 581.25 56.25 L 555.47 51.56 L 543.75 9.38 L 517.97 0.00 L 499.22 11.72 L 482.81 32.81 L 468.75 72.66 L 468.75 103.12 L 482.81 164.06 L 527.34 300.00 L 532.03 464.06 L 525.00 515.62 L 482.81 438.28 L 452.34 400.78 L 412.50 358.59 L 365.62 328.12 L 283.59 302.34 L 72.66 260.16 L 46.88 264.84 L 32.81 297.66 L 39.84 323.44 L 147.66 370.31 L 140.62 389.06 L 103.12 407.81 L 100.78 442.97 L 44.53 459.38 L 4.69 489.84 L 0.00 496.88 L 4.69 501.56 L 131.25 536.72 L 447.66 562.50 L 564.84 557.81 L 585.94 539.06 L 597.66 487.50 L 597.66 438.28 L 576.56 283.59 L 555.47 201.56" stroke="white" fill="transparent"/>
</svg>