<?xml version="1.0" encoding="UTF-8" standalone="no"?>
<!--Created with ndjsontosvg (https:https://github.com/thompson318/ndjsontosvg) 
	from the simplified Google quickdraw data set. key_id = 5308332170543104-->
<svg width="600" height="600"
	xmlns="http://www.w3.org/2000/svg">
	xmlns:ndjsontosvg="https://github.com/thompson318/ndjsontosvg"
	xmlns:quickdraw="https://quickdraw.withgoogle.com/data"
	xmlns:scikit-surgery="https://doi.org/10.1007/s11548-020-02180-5">

	<rect width="100%" height="100%" fill="black" />
	<path d = "M 49.22 30.47 L 112.50 0.00 L 152.34 9.38 L 175.78 25.78 L 199.22 56.25 L 232.03 119.53 L 229.69 157.03 L 189.84 264.84 L 138.28 344.53 L 232.03 314.06 L 321.09 309.38 L 466.41 358.59 L 525.00 365.62" stroke="white" fill="transparent"/>
	<path d = "M 53.91 23.44 L 0.00 82.03 L 23.44 91.41 L 79.69 91.41 L 126.56 79.69 L 142.97 89.06 L 147.66 105.47 L 147.66 199.22 L 77.34 311.72 L 63.28 360.94 L 60.94 440.62 L 89.06 466.41 L 107.81 471.09 L 114.84 461.72" stroke="white" fill="transparent"/>
	<path d = "M 42.19 32.81 L 49.22 60.94 L 98.44 77.34" stroke="white" fill="transparent"/>
	<path d = "M 75.00 32.81 L 77.34 28.12" stroke="white" fill="transparent"/>
	<path d = "M 508.59 363.28 L 557.81 351.56 L 564.84 396.09 L 590.62 393.75 L 597.66 403.12 L 592.97 414.84 L 548.44 457.03 L 442.97 499.22 L 372.66 506.25 L 288.28 503.91 L 105.47 464.06" stroke="white" fill="transparent"/>
	<path d = "M 168.75 417.19 L 222.66 400.78 L 358.59 410.16 L 403.12 393.75 L 384.38 421.88 L 405.47 419.53 L 407.81 426.56 L 370.31 457.03" stroke="white" fill="transparent"/>
</svg>