<?xml version="1.0" encoding="UTF-8" standalone="no"?>
<!--Created with ndjsontosvg (https:https://github.com/thompson318/ndjsontosvg) 
	from the simplified Google quickdraw data set. key_id = 6154619388428288-->
<svg width="600" height="600"
	xmlns="http://www.w3.org/2000/svg">
	xmlns:ndjsontosvg="https://github.com/thompson318/ndjsontosvg"
	xmlns:quickdraw="https://quickdraw.withgoogle.com/data"
	xmlns:scikit-surgery="https://doi.org/10.1007/s11548-020-02180-5">

	<rect width="100%" height="100%" fill="black" />
	<path d = "M 267.19 335.16 L 288.28 342.19 L 318.75 335.16 L 365.62 300.00 L 370.31 232.03 L 351.56 128.91 L 353.91 46.88 L 365.62 28.12 L 393.75 9.38 L 433.59 0.00 L 473.44 18.75 L 553.12 126.56 L 506.25 128.91 L 435.94 105.47 L 438.28 142.97 L 475.78 232.03 L 489.84 288.28 L 506.25 442.97 L 494.53 489.84 L 466.41 534.38 L 435.94 562.50 L 367.97 595.31 L 307.03 597.66 L 180.47 569.53 L 131.25 543.75 L 103.12 520.31 L 67.97 475.78 L 42.19 379.69 L 0.00 271.88 L 14.06 269.53 L 135.94 316.41 L 189.84 330.47 L 309.38 346.88 L 353.91 344.53" stroke="white" fill="transparent"/>
</svg>