<?xml version="1.0" encoding="UTF-8" standalone="no"?>
<!--Created with ndjsontosvg (https:https://github.com/thompson318/ndjsontosvg) 
	from the simplified Google quickdraw data set. key_id = 5968744830468096-->
<svg width="600" height="600"
	xmlns="http://www.w3.org/2000/svg">
	xmlns:ndjsontosvg="https://github.com/thompson318/ndjsontosvg"
	xmlns:quickdraw="https://quickdraw.withgoogle.com/data"
	xmlns:scikit-surgery="https://doi.org/10.1007/s11548-020-02180-5">

	<rect width="100%" height="100%" fill="black" />
	<path d = "M 217.97 91.41 L 234.38 107.81 L 269.53 112.50 L 318.75 79.69 L 384.38 11.72 L 410.16 2.34 L 445.31 0.00 L 466.41 16.41 L 468.75 46.88 L 419.53 96.09" stroke="white" fill="transparent"/>
	<path d = "M 396.09 82.03 L 421.88 67.97 L 433.59 44.53 L 428.91 28.12 L 407.81 21.09 L 377.34 44.53 L 328.12 110.16 L 297.66 128.91 L 248.44 138.28 L 225.00 128.91 L 217.97 89.06 L 264.84 86.72" stroke="white" fill="transparent"/>
	<path d = "M 150.00 164.06 L 229.69 182.81 L 292.97 185.16 L 403.12 142.97 L 459.38 147.66 L 501.56 117.19 L 569.53 98.44 L 578.91 98.44 L 597.66 121.88" stroke="white" fill="transparent"/>
	<path d = "M 152.34 173.44 L 117.19 150.00 L 98.44 152.34 L 56.25 175.78 L 0.00 161.72" stroke="white" fill="transparent"/>
	<path d = "M 398.44 82.03 L 419.53 93.75" stroke="white" fill="transparent"/>
</svg>