<?xml version="1.0" encoding="UTF-8" standalone="no"?>
<!--Created with ndjsontosvg (https:https://github.com/thompson318/ndjsontosvg) 
	from the simplified Google quickdraw data set. key_id = 5559092074512384-->
<svg width="600" height="600"
	xmlns="http://www.w3.org/2000/svg">
	xmlns:ndjsontosvg="https://github.com/thompson318/ndjsontosvg"
	xmlns:quickdraw="https://quickdraw.withgoogle.com/data"
	xmlns:scikit-surgery="https://doi.org/10.1007/s11548-020-02180-5">

	<rect width="100%" height="100%" fill="black" />
	<path d = "M 325.78 91.41 L 283.59 63.28 L 222.66 58.59 L 194.53 89.06 L 166.41 133.59 L 135.94 154.69 L 105.47 157.03 L 185.16 175.78 L 292.97 178.12 L 335.16 157.03 L 367.97 114.84 L 379.69 82.03 L 377.34 39.84 L 398.44 37.50 L 428.91 60.94 L 426.56 37.50 L 410.16 14.06 L 363.28 0.00 L 353.91 16.41 L 360.94 44.53 L 353.91 67.97 L 339.84 84.38 L 323.44 82.03" stroke="white" fill="transparent"/>
	<path d = "M 386.72 18.75 L 393.75 18.75" stroke="white" fill="transparent"/>
	<path d = "M 269.53 96.09 L 257.81 100.78" stroke="white" fill="transparent"/>
	<path d = "M 255.47 100.78 L 199.22 147.66 L 178.12 154.69" stroke="white" fill="transparent"/>
	<path d = "M 0.00 150.00 L 21.09 166.41 L 44.53 168.75 L 67.97 157.03 L 77.34 145.31 L 114.84 180.47 L 131.25 187.50 L 140.62 173.44 L 164.06 178.12 L 194.53 168.75 L 215.62 187.50 L 250.78 189.84 L 283.59 182.81 L 300.00 164.06 L 323.44 180.47 L 342.19 185.16 L 346.88 171.09 L 389.06 168.75 L 412.50 157.03 L 459.38 157.03 L 543.75 182.81 L 557.81 182.81 L 569.53 173.44 L 595.31 180.47 L 595.31 173.44" stroke="white" fill="transparent"/>
</svg>