<?xml version="1.0" encoding="UTF-8" standalone="no"?>
<!--Created with ndjsontosvg (https:https://github.com/thompson318/ndjsontosvg) 
	from the simplified Google quickdraw data set. key_id = 5650390815080448-->
<svg width="600" height="600"
	xmlns="http://www.w3.org/2000/svg">
	xmlns:ndjsontosvg="https://github.com/thompson318/ndjsontosvg"
	xmlns:quickdraw="https://quickdraw.withgoogle.com/data"
	xmlns:scikit-surgery="https://doi.org/10.1007/s11548-020-02180-5">

	<rect width="100%" height="100%" fill="black" />
	<path d = "M 49.22 16.41 L 75.00 0.00 L 114.84 4.69 L 152.34 35.16 L 168.75 63.28 L 175.78 119.53 L 157.03 213.28 L 154.69 253.12 L 159.38 264.84 L 335.16 239.06 L 532.03 178.12 L 529.69 199.22 L 510.94 241.41 L 468.75 276.56 L 520.31 267.19 L 557.81 246.09 L 536.72 288.28 L 510.94 323.44 L 555.47 323.44 L 597.66 307.03 L 564.84 386.72 L 539.06 431.25 L 510.94 454.69 L 466.41 478.12 L 377.34 503.91 L 274.22 517.97 L 192.19 515.62 L 121.88 499.22 L 98.44 492.19 L 35.16 445.31 L 7.03 410.16 L 0.00 384.38 L 7.03 342.19 L 67.97 189.84 L 77.34 142.97 L 70.31 107.81" stroke="white" fill="transparent"/>
</svg>