<?xml version="1.0" encoding="UTF-8" standalone="no"?>
<!--Created with ndjsontosvg (https:https://github.com/thompson318/ndjsontosvg) 
	from the simplified Google quickdraw data set. key_id = 4723958383378432-->
<svg width="600" height="600"
	xmlns="http://www.w3.org/2000/svg">
	xmlns:ndjsontosvg="https://github.com/thompson318/ndjsontosvg"
	xmlns:quickdraw="https://quickdraw.withgoogle.com/data"
	xmlns:scikit-surgery="https://doi.org/10.1007/s11548-020-02180-5">

	<rect width="100%" height="100%" fill="black" />
	<path d = "M 210.94 7.03 L 206.25 37.50 L 222.66 56.25 L 248.44 70.31 L 285.94 70.31 L 339.84 51.56 L 360.94 21.09 L 360.94 0.00" stroke="white" fill="transparent"/>
	<path d = "M 203.91 7.03 L 192.19 58.59 L 196.88 77.34 L 220.31 105.47 L 248.44 114.84 L 283.59 107.81 L 325.78 79.69 L 358.59 32.81" stroke="white" fill="transparent"/>
	<path d = "M 358.59 7.03 L 435.94 9.38 L 468.75 30.47 L 482.81 51.56 L 520.31 126.56 L 553.12 232.03 L 597.66 410.16" stroke="white" fill="transparent"/>
	<path d = "M 192.19 7.03 L 140.62 39.84 L 84.38 117.19 L 44.53 250.78 L 0.00 358.59 L 63.28 377.34 L 119.53 379.69 L 161.72 353.91 L 180.47 332.81" stroke="white" fill="transparent"/>
	<path d = "M 199.22 152.34 L 180.47 220.31 L 114.84 391.41 L 110.16 464.06 L 126.56 553.12 L 135.94 576.56 L 182.81 585.94 L 325.78 585.94 L 370.31 571.88 L 398.44 553.12 L 438.28 513.28 L 454.69 473.44 L 442.97 424.22 L 410.16 351.56" stroke="white" fill="transparent"/>
	<path d = "M 412.50 135.94 L 428.91 215.62 L 494.53 400.78 L 508.59 405.47 L 571.88 360.94 L 585.94 337.50 L 578.91 325.78" stroke="white" fill="transparent"/>
	<path d = "M 468.75 314.06 L 550.78 288.28" stroke="white" fill="transparent"/>
	<path d = "M 494.53 393.75 L 494.53 393.75" stroke="white" fill="transparent"/>
</svg>