<?xml version="1.0" encoding="UTF-8" standalone="no"?>
<!--Created with ndjsontosvg (https:https://github.com/thompson318/ndjsontosvg) 
	from the simplified Google quickdraw data set. key_id = 6093037681770496-->
<svg width="600" height="600"
	xmlns="http://www.w3.org/2000/svg">
	xmlns:ndjsontosvg="https://github.com/thompson318/ndjsontosvg"
	xmlns:quickdraw="https://quickdraw.withgoogle.com/data"
	xmlns:scikit-surgery="https://doi.org/10.1007/s11548-020-02180-5">

	<rect width="100%" height="100%" fill="black" />
	<path d = "M 2.34 60.94 L 63.28 77.34 L 117.19 72.66 L 278.91 44.53 L 412.50 2.34 L 445.31 0.00 L 496.88 16.41 L 550.78 70.31 L 590.62 91.41" stroke="white" fill="transparent"/>
	<path d = "M 464.06 11.72 L 431.25 175.78 L 417.19 227.34" stroke="white" fill="transparent"/>
	<path d = "M 370.31 16.41 L 318.75 220.31" stroke="white" fill="transparent"/>
	<path d = "M 316.41 217.97 L 353.91 213.28 L 417.19 187.50 L 442.97 192.19 L 445.31 206.25 L 421.88 262.50 L 304.69 262.50 L 300.00 215.62" stroke="white" fill="transparent"/>
	<path d = "M 595.31 86.72 L 597.66 112.50 L 583.59 208.59 L 578.91 314.06 L 569.53 302.34" stroke="white" fill="transparent"/>
	<path d = "M 9.38 67.97 L 16.41 91.41 L 0.00 222.66" stroke="white" fill="transparent"/>
</svg>