<?xml version="1.0" encoding="UTF-8" standalone="no"?>
<!--Created with ndjsontosvg (https:https://github.com/thompson318/ndjsontosvg) 
	from the simplified Google quickdraw data set. key_id = 6320208367058944-->
<svg width="600" height="600"
	xmlns="http://www.w3.org/2000/svg">
	xmlns:ndjsontosvg="https://github.com/thompson318/ndjsontosvg"
	xmlns:quickdraw="https://quickdraw.withgoogle.com/data"
	xmlns:scikit-surgery="https://doi.org/10.1007/s11548-020-02180-5">

	<rect width="100%" height="100%" fill="black" />
	<path d = "M 215.62 91.41 L 192.19 152.34 L 178.12 217.97 L 164.06 339.84 L 189.84 168.75 L 189.84 100.78" stroke="white" fill="transparent"/>
	<path d = "M 178.12 128.91 L 161.72 292.97 L 161.72 159.38 L 178.12 75.00 L 201.56 28.12 L 201.56 84.38 L 171.09 178.12 L 140.62 264.84 L 133.59 232.03 L 159.38 51.56 L 131.25 285.94 L 128.91 337.50 L 140.62 295.31 L 173.44 30.47 L 140.62 314.06 L 140.62 342.19 L 159.38 325.78 L 164.06 63.28 L 175.78 28.12 L 187.50 51.56 L 187.50 131.25 L 159.38 339.84 L 178.12 166.41 L 210.94 0.00 L 157.03 248.44 L 157.03 199.22" stroke="white" fill="transparent"/>
	<path d = "M 142.97 412.50 L 126.56 569.53" stroke="white" fill="transparent"/>
	<path d = "M 147.66 447.66 L 147.66 508.59 L 133.59 597.66" stroke="white" fill="transparent"/>
	<path d = "M 0.00 367.97 L 278.91 396.09 L 189.84 393.75 L 35.16 360.94 L 236.72 365.62 L 51.56 360.94 L 229.69 365.62 L 56.25 363.28 L 124.22 367.97 L 250.78 367.97 L 276.56 360.94 L 217.97 358.59 L 42.19 412.50 L 117.19 421.88 L 178.12 412.50 L 232.03 389.06 L 131.25 389.06 L 49.22 403.12 L 110.16 403.12 L 164.06 391.41 L 147.66 384.38 L 44.53 384.38 L 180.47 360.94 L 159.38 349.22 L 84.38 344.53" stroke="white" fill="transparent"/>
</svg>