<?xml version="1.0" encoding="UTF-8" standalone="no"?>
<!--Created with ndjsontosvg (https:https://github.com/thompson318/ndjsontosvg) 
	from the simplified Google quickdraw data set. key_id = 6552243304136704-->
<svg width="600" height="600"
	xmlns="http://www.w3.org/2000/svg">
	xmlns:ndjsontosvg="https://github.com/thompson318/ndjsontosvg"
	xmlns:quickdraw="https://quickdraw.withgoogle.com/data"
	xmlns:scikit-surgery="https://doi.org/10.1007/s11548-020-02180-5">

	<rect width="100%" height="100%" fill="black" />
	<path d = "M 119.53 65.62 L 124.22 70.31 L 89.06 121.88 L 65.62 175.78 L 46.88 255.47 L 159.38 264.84 L 166.41 260.16 L 175.78 119.53 L 164.06 86.72 L 133.59 53.91" stroke="white" fill="transparent"/>
	<path d = "M 44.53 269.53 L 42.19 262.50 L 16.41 262.50 L 0.00 278.91 L 11.72 351.56 L 25.78 379.69 L 51.56 400.78 L 72.66 410.16 L 173.44 410.16 L 192.19 405.47 L 201.56 391.41 L 206.25 363.28 L 199.22 285.94 L 185.16 257.81 L 154.69 257.81" stroke="white" fill="transparent"/>
	<path d = "M 89.06 424.22 L 82.03 440.62 L 84.38 485.16 L 105.47 595.31 L 140.62 592.97 L 154.69 581.25 L 157.03 548.44 L 114.84 379.69" stroke="white" fill="transparent"/>
	<path d = "M 72.66 250.78 L 86.72 164.06 L 142.97 0.00 L 161.72 292.97" stroke="white" fill="transparent"/>
	<path d = "M 431.25 93.75 L 426.56 100.78 L 414.84 79.69 L 389.06 70.31 L 353.91 79.69 L 323.44 98.44 L 318.75 124.22 L 344.53 192.19" stroke="white" fill="transparent"/>
</svg>