<?xml version="1.0" encoding="UTF-8" standalone="no"?>
<!--Created with ndjsontosvg (https:https://github.com/thompson318/ndjsontosvg) 
	from the simplified Google quickdraw data set. key_id = 6747340918489088-->
<svg width="600" height="600"
	xmlns="http://www.w3.org/2000/svg">
	xmlns:ndjsontosvg="https://github.com/thompson318/ndjsontosvg"
	xmlns:quickdraw="https://quickdraw.withgoogle.com/data"
	xmlns:scikit-surgery="https://doi.org/10.1007/s11548-020-02180-5">

	<rect width="100%" height="100%" fill="black" />
	<path d = "M 60.94 447.66 L 60.94 466.41 L 28.12 543.75 L 0.00 592.97 L 25.78 588.28 L 65.62 597.66 L 107.81 454.69 L 18.75 426.56 L 117.19 454.69 L 145.31 482.81" stroke="white" fill="transparent"/>
	<path d = "M 77.34 431.25 L 70.31 391.41 L 84.38 304.69 L 152.34 93.75" stroke="white" fill="transparent"/>
	<path d = "M 135.94 440.62 L 142.97 393.75 L 250.78 121.88" stroke="white" fill="transparent"/>
	<path d = "M 166.41 75.00 L 276.56 0.00 L 264.84 119.53" stroke="white" fill="transparent"/>
	<path d = "M 271.88 18.75 L 246.09 56.25 L 173.44 246.09" stroke="white" fill="transparent"/>
	<path d = "M 260.16 18.75 L 264.84 35.16 L 234.38 110.16 L 173.44 227.34" stroke="white" fill="transparent"/>
	<path d = "M 9.38 431.25 L 11.72 421.88 L 21.09 421.88 L 126.56 461.72 L 182.81 468.75 L 215.62 459.38 L 225.00 438.28 L 213.28 433.59" stroke="white" fill="transparent"/>
	<path d = "M 44.53 424.22 L 35.16 424.22 L 7.03 391.41 L 4.69 356.25 L 21.09 335.16" stroke="white" fill="transparent"/>
</svg>