<?xml version="1.0" encoding="UTF-8" standalone="no"?>
<!--Created with ndjsontosvg (https:https://github.com/thompson318/ndjsontosvg) 
	from the simplified Google quickdraw data set. key_id = 4654738933022720-->
<svg width="600" height="600"
	xmlns="http://www.w3.org/2000/svg">
	xmlns:ndjsontosvg="https://github.com/thompson318/ndjsontosvg"
	xmlns:quickdraw="https://quickdraw.withgoogle.com/data"
	xmlns:scikit-surgery="https://doi.org/10.1007/s11548-020-02180-5">

	<rect width="100%" height="100%" fill="black" />
	<path d = "M 25.78 536.72 L 14.06 541.41 L 0.00 562.50 L 0.00 574.22 L 16.41 592.97 L 51.56 592.97 L 70.31 564.84 L 70.31 543.75 L 56.25 529.69 L 44.53 527.34 L 35.16 539.06" stroke="white" fill="transparent"/>
	<path d = "M 58.59 515.62 L 82.03 506.25 L 89.06 494.53 L 128.91 471.09 L 178.12 426.56" stroke="white" fill="transparent"/>
	<path d = "M 75.00 550.78 L 105.47 541.41 L 161.72 510.94 L 220.31 459.38" stroke="white" fill="transparent"/>
	<path d = "M 168.75 412.50 L 114.84 372.66" stroke="white" fill="transparent"/>
	<path d = "M 140.62 330.47 L 100.78 323.44 L 79.69 332.81 L 77.34 342.19 L 91.41 365.62 L 131.25 379.69 L 157.03 342.19 L 150.00 330.47 L 133.59 332.81" stroke="white" fill="transparent"/>
	<path d = "M 161.72 351.56 L 192.19 377.34" stroke="white" fill="transparent"/>
	<path d = "M 210.94 459.38 L 290.62 503.91 L 316.41 468.75 L 316.41 457.03 L 274.22 454.69 L 243.75 435.94" stroke="white" fill="transparent"/>
	<path d = "M 325.78 464.06 L 311.72 466.41 L 304.69 480.47 L 300.00 489.84 L 309.38 496.88 L 339.84 492.19 L 337.50 478.12 L 321.09 461.72" stroke="white" fill="transparent"/>
	<path d = "M 196.88 379.69 L 464.06 58.59 L 517.97 21.09 L 581.25 0.00 L 583.59 25.78 L 553.12 89.06 L 351.56 248.44 L 248.44 414.84" stroke="white" fill="transparent"/>
</svg>