<?xml version="1.0" encoding="UTF-8" standalone="no"?>
<!--Created with ndjsontosvg (https:https://github.com/thompson318/ndjsontosvg) 
	from the simplified Google quickdraw data set. key_id = 5654955123802112-->
<svg width="600" height="600"
	xmlns="http://www.w3.org/2000/svg">
	xmlns:ndjsontosvg="https://github.com/thompson318/ndjsontosvg"
	xmlns:quickdraw="https://quickdraw.withgoogle.com/data"
	xmlns:scikit-surgery="https://doi.org/10.1007/s11548-020-02180-5">

	<rect width="100%" height="100%" fill="black" />
	<path d = "M 503.91 44.53 L 438.28 53.91 L 269.53 49.22 L 166.41 53.91 L 161.72 63.28 L 180.47 124.22 L 194.53 142.97 L 314.06 157.03 L 489.84 140.62 L 508.59 135.94 L 517.97 114.84 L 517.97 70.31 L 503.91 30.47" stroke="white" fill="transparent"/>
	<path d = "M 517.97 49.22 L 597.66 60.94 L 571.88 79.69 L 527.34 79.69" stroke="white" fill="transparent"/>
	<path d = "M 157.03 75.00 L 65.62 93.75" stroke="white" fill="transparent"/>
	<path d = "M 185.16 124.22 L 166.41 119.53 L 93.75 133.59" stroke="white" fill="transparent"/>
	<path d = "M 58.59 180.47 L 53.91 53.91 L 32.81 2.34 L 28.12 0.00 L 16.41 25.78 L 0.00 138.28 L 7.03 180.47 L 28.12 196.88 L 51.56 189.84 L 58.59 150.00" stroke="white" fill="transparent"/>
</svg>