<?xml version="1.0" encoding="UTF-8" standalone="no"?>
<!--Created with ndjsontosvg (https:https://github.com/thompson318/ndjsontosvg) 
	from the simplified Google quickdraw data set. key_id = 5849346618687488-->
<svg width="600" height="600"
	xmlns="http://www.w3.org/2000/svg">
	xmlns:ndjsontosvg="https://github.com/thompson318/ndjsontosvg"
	xmlns:quickdraw="https://quickdraw.withgoogle.com/data"
	xmlns:scikit-surgery="https://doi.org/10.1007/s11548-020-02180-5">

	<rect width="100%" height="100%" fill="black" />
	<path d = "M 65.62 133.59 L 28.12 182.81 L 0.00 241.41 L 96.09 283.59 L 140.62 192.19 L 157.03 140.62 L 168.75 119.53 L 171.09 128.91 L 173.44 227.34 L 150.00 309.38 L 210.94 442.97 L 203.91 471.09 L 185.16 503.91 L 250.78 475.78 L 288.28 473.44 L 344.53 485.16 L 438.28 525.00 L 447.66 471.09 L 414.84 234.38 L 414.84 142.97 L 454.69 142.97 L 492.19 192.19 L 510.94 199.22 L 576.56 133.59 L 597.66 91.41 L 536.72 18.75 L 489.84 0.00 L 400.78 72.66 L 342.19 93.75 L 297.66 89.06 L 267.19 79.69 L 220.31 28.12 L 196.88 16.41" stroke="white" fill="transparent"/>
</svg>