<?xml version="1.0" encoding="UTF-8" standalone="no"?>
<!--Created with ndjsontosvg (https:https://github.com/thompson318/ndjsontosvg) 
	from the simplified Google quickdraw data set. key_id = 6668321099350016-->
<svg width="600" height="600"
	xmlns="http://www.w3.org/2000/svg">
	xmlns:ndjsontosvg="https://github.com/thompson318/ndjsontosvg"
	xmlns:quickdraw="https://quickdraw.withgoogle.com/data"
	xmlns:scikit-surgery="https://doi.org/10.1007/s11548-020-02180-5">

	<rect width="100%" height="100%" fill="black" />
	<path d = "M 199.22 14.06 L 217.97 37.50 L 250.78 60.94 L 278.91 65.62 L 316.41 46.88 L 365.62 2.34 L 426.56 53.91 L 541.41 110.16 L 562.50 128.91 L 574.22 152.34 L 569.53 171.09 L 489.84 260.16 L 478.12 260.16 L 447.66 236.72" stroke="white" fill="transparent"/>
	<path d = "M 164.06 0.00 L 30.47 119.53 L 7.03 168.75 L 0.00 217.97 L 11.72 243.75 L 32.81 260.16 L 128.91 276.56 L 157.03 255.47 L 189.84 210.94 L 180.47 412.50 L 187.50 473.44" stroke="white" fill="transparent"/>
	<path d = "M 438.28 222.66 L 431.25 309.38 L 438.28 428.91 L 428.91 464.06 L 382.03 468.75 L 178.12 471.09" stroke="white" fill="transparent"/>
	<path d = "M 53.91 278.91 L 16.41 358.59 L 2.34 424.22" stroke="white" fill="transparent"/>
	<path d = "M 114.84 283.59 L 121.88 435.94" stroke="white" fill="transparent"/>
	<path d = "M 522.66 234.38 L 597.66 304.69" stroke="white" fill="transparent"/>
</svg>