<?xml version="1.0" encoding="UTF-8" standalone="no"?>
<!--Created with ndjsontosvg (https:https://github.com/thompson318/ndjsontosvg) 
	from the simplified Google quickdraw data set. key_id = 4719154160467968-->
<svg width="600" height="600"
	xmlns="http://www.w3.org/2000/svg">
	xmlns:ndjsontosvg="https://github.com/thompson318/ndjsontosvg"
	xmlns:quickdraw="https://quickdraw.withgoogle.com/data"
	xmlns:scikit-surgery="https://doi.org/10.1007/s11548-020-02180-5">

	<rect width="100%" height="100%" fill="black" />
	<path d = "M 0.00 93.75 L 63.28 217.97 L 84.38 217.97 L 96.09 194.53 L 128.91 161.72 L 150.00 161.72 L 154.69 173.44 L 154.69 346.88 L 138.28 501.56 L 150.00 560.16 L 161.72 569.53 L 274.22 532.03 L 419.53 555.47 L 473.44 555.47 L 450.00 468.75 L 447.66 358.59 L 419.53 182.81 L 424.22 159.38 L 428.91 147.66 L 440.62 145.31 L 482.81 173.44 L 508.59 206.25 L 532.03 208.59 L 543.75 201.56 L 583.59 133.59 L 597.66 77.34 L 569.53 51.56 L 499.22 32.81 L 468.75 4.69 L 442.97 0.00 L 405.47 7.03 L 356.25 72.66 L 318.75 72.66" stroke="white" fill="transparent"/>
</svg>