<?xml version="1.0" encoding="UTF-8" standalone="no"?>
<!--Created with ndjsontosvg (https:https://github.com/thompson318/ndjsontosvg) 
	from the simplified Google quickdraw data set. key_id = 6627257806225408-->
<svg width="600" height="600"
	xmlns="http://www.w3.org/2000/svg">
	xmlns:ndjsontosvg="https://github.com/thompson318/ndjsontosvg"
	xmlns:quickdraw="https://quickdraw.withgoogle.com/data"
	xmlns:scikit-surgery="https://doi.org/10.1007/s11548-020-02180-5">

	<rect width="100%" height="100%" fill="black" />
	<path d = "M 0.00 126.56 L 2.34 255.47 L 14.06 292.97 L 35.16 330.47 L 89.06 391.41 L 126.56 414.84 L 161.72 424.22 L 234.38 424.22 L 292.97 398.44 L 325.78 372.66 L 379.69 285.94 L 417.19 145.31 L 417.19 93.75 L 103.12 93.75 L 37.50 103.12 L 21.09 114.84 L 28.12 135.94 L 60.94 168.75 L 110.16 189.84 L 178.12 199.22 L 335.16 199.22 L 389.06 161.72 L 396.09 119.53" stroke="white" fill="transparent"/>
	<path d = "M 152.34 0.00 L 49.22 0.00 L 58.59 16.41 L 142.97 70.31 L 152.34 89.06 L 142.97 105.47 L 105.47 133.59" stroke="white" fill="transparent"/>
	<path d = "M 239.06 7.03 L 225.00 23.44 L 225.00 39.84 L 269.53 63.28 L 285.94 82.03 L 302.34 133.59 L 297.66 150.00 L 285.94 152.34" stroke="white" fill="transparent"/>
	<path d = "M 342.19 14.06 L 328.12 30.47 L 367.97 65.62 L 377.34 82.03 L 379.69 103.12" stroke="white" fill="transparent"/>
	<path d = "M 438.28 199.22 L 438.28 199.22" stroke="white" fill="transparent"/>
	<path d = "M 398.44 182.81 L 468.75 133.59 L 522.66 126.56 L 574.22 161.72 L 583.59 180.47 L 597.66 213.28 L 597.66 278.91 L 578.91 314.06 L 529.69 349.22 L 442.97 375.00 L 367.97 375.00" stroke="white" fill="transparent"/>
	<path d = "M 367.97 225.00 L 382.03 208.59 L 414.84 192.19 L 487.50 192.19" stroke="white" fill="transparent"/>
</svg>