<?xml version="1.0" encoding="UTF-8" standalone="no"?>
<!--Created with ndjsontosvg (https:https://github.com/thompson318/ndjsontosvg) 
	from the simplified Google quickdraw data set. key_id = 5341840549085184-->
<svg width="600" height="600"
	xmlns="http://www.w3.org/2000/svg">
	xmlns:ndjsontosvg="https://github.com/thompson318/ndjsontosvg"
	xmlns:quickdraw="https://quickdraw.withgoogle.com/data"
	xmlns:scikit-surgery="https://doi.org/10.1007/s11548-020-02180-5">

	<rect width="100%" height="100%" fill="black" />
	<path d = "M 96.09 117.19 L 56.25 142.97 L 21.09 203.91 L 2.34 267.19 L 2.34 337.50 L 49.22 421.88 L 96.09 471.09 L 138.28 496.88 L 185.16 508.59 L 260.16 510.94 L 321.09 487.50 L 360.94 450.00 L 384.38 414.84 L 400.78 370.31 L 403.12 295.31 L 386.72 232.03 L 358.59 180.47 L 367.97 157.03 L 389.06 135.94 L 426.56 107.81 L 457.03 93.75 L 541.41 84.38 L 597.66 70.31 L 564.84 46.88 L 522.66 44.53 L 478.12 56.25 L 417.19 84.38 L 356.25 147.66 L 335.16 157.03" stroke="white" fill="transparent"/>
	<path d = "M 335.16 145.31 L 274.22 117.19 L 213.28 114.84 L 182.81 98.44 L 117.19 98.44 L 79.69 112.50" stroke="white" fill="transparent"/>
	<path d = "M 93.75 119.53 L 126.56 37.50 L 152.34 9.38 L 178.12 0.00 L 215.62 7.03 L 257.81 79.69 L 271.88 114.84 L 274.22 107.81" stroke="white" fill="transparent"/>
</svg>