<?xml version="1.0" encoding="UTF-8" standalone="no"?>
<!--Created with ndjsontosvg (https:https://github.com/thompson318/ndjsontosvg) 
	from the simplified Google quickdraw data set. key_id = 5908237318619136-->
<svg width="600" height="600"
	xmlns="http://www.w3.org/2000/svg">
	xmlns:ndjsontosvg="https://github.com/thompson318/ndjsontosvg"
	xmlns:quickdraw="https://quickdraw.withgoogle.com/data"
	xmlns:scikit-surgery="https://doi.org/10.1007/s11548-020-02180-5">

	<rect width="100%" height="100%" fill="black" />
	<path d = "M 433.59 30.47 L 489.84 28.12 L 506.25 32.81 L 541.41 82.03 L 543.75 114.84 L 534.38 150.00 L 513.28 171.09 L 473.44 199.22 L 435.94 208.59 L 431.25 203.91" stroke="white" fill="transparent"/>
	<path d = "M 447.66 49.22 L 503.91 67.97 L 525.00 86.72 L 529.69 107.81 L 527.34 121.88 L 492.19 157.03 L 447.66 171.09" stroke="white" fill="transparent"/>
	<path d = "M 431.25 28.12 L 386.72 14.06 L 229.69 0.00 L 180.47 58.59" stroke="white" fill="transparent"/>
	<path d = "M 187.50 58.59 L 250.78 60.94 L 375.00 49.22 L 468.75 56.25" stroke="white" fill="transparent"/>
	<path d = "M 178.12 53.91 L 117.19 152.34 L 107.81 189.84 L 110.16 225.00 L 243.75 243.75 L 417.19 248.44 L 464.06 227.34 L 464.06 208.59 L 457.03 201.56" stroke="white" fill="transparent"/>
	<path d = "M 96.09 199.22 L 42.19 208.59 L 4.69 243.75 L 0.00 257.81 L 42.19 276.56 L 185.16 295.31 L 541.41 295.31 L 585.94 288.28 L 595.31 281.25 L 597.66 260.16 L 581.25 243.75 L 527.34 217.97 L 452.34 206.25" stroke="white" fill="transparent"/>
</svg>