<?xml version="1.0" encoding="UTF-8" standalone="no"?>
<!--Created with ndjsontosvg (https:https://github.com/thompson318/ndjsontosvg) 
	from the simplified Google quickdraw data set. key_id = 6646229347860480-->
<svg width="600" height="600"
	xmlns="http://www.w3.org/2000/svg">
	xmlns:ndjsontosvg="https://github.com/thompson318/ndjsontosvg"
	xmlns:quickdraw="https://quickdraw.withgoogle.com/data"
	xmlns:scikit-surgery="https://doi.org/10.1007/s11548-020-02180-5">

	<rect width="100%" height="100%" fill="black" />
	<path d = "M 152.34 128.91 L 135.94 114.84 L 77.34 117.19 L 44.53 145.31 L 4.69 253.12 L 0.00 295.31 L 4.69 367.97 L 30.47 424.22 L 75.00 461.72 L 159.38 494.53 L 227.34 496.88 L 349.22 494.53 L 407.81 478.12 L 452.34 438.28 L 471.09 391.41 L 478.12 292.97 L 438.28 217.97 L 400.78 175.78 L 311.72 142.97 L 302.34 128.91" stroke="white" fill="transparent"/>
	<path d = "M 384.38 175.78 L 377.34 161.72 L 384.38 128.91 L 417.19 63.28 L 473.44 9.38 L 501.56 0.00 L 553.12 2.34 L 564.84 9.38 L 583.59 42.19 L 595.31 46.88" stroke="white" fill="transparent"/>
	<path d = "M 457.03 196.88 L 461.72 164.06 L 503.91 103.12 L 555.47 75.00 L 597.66 67.97" stroke="white" fill="transparent"/>
	<path d = "M 459.38 222.66 L 431.25 260.16" stroke="white" fill="transparent"/>
	<path d = "M 142.97 147.66 L 142.97 147.66" stroke="white" fill="transparent"/>
	<path d = "M 117.19 138.28 L 316.41 138.28" stroke="white" fill="transparent"/>
	<path d = "M 126.56 112.50 L 119.53 96.09 L 142.97 60.94 L 178.12 44.53 L 213.28 42.19 L 253.12 63.28 L 278.91 89.06 L 297.66 140.62" stroke="white" fill="transparent"/>
	<path d = "M 178.12 77.34 L 215.62 75.00 L 220.31 86.72 L 208.59 93.75 L 196.88 91.41 L 194.53 82.03 L 229.69 77.34" stroke="white" fill="transparent"/>
</svg>