<?xml version="1.0" encoding="UTF-8" standalone="no"?>
<!--Created with ndjsontosvg (https:https://github.com/thompson318/ndjsontosvg) 
	from the simplified Google quickdraw data set. key_id = 6405848265916416-->
<svg width="600" height="600"
	xmlns="http://www.w3.org/2000/svg">
	xmlns:ndjsontosvg="https://github.com/thompson318/ndjsontosvg"
	xmlns:quickdraw="https://quickdraw.withgoogle.com/data"
	xmlns:scikit-surgery="https://doi.org/10.1007/s11548-020-02180-5">

	<rect width="100%" height="100%" fill="black" />
	<path d = "M 222.66 72.66 L 234.38 60.94 L 292.97 44.53 L 353.91 42.19 L 384.38 56.25 L 391.41 75.00 L 344.53 93.75 L 250.78 103.12 L 222.66 84.38 L 222.66 70.31 L 234.38 60.94" stroke="white" fill="transparent"/>
	<path d = "M 311.72 58.59 L 300.00 2.34 L 325.78 2.34 L 339.84 42.19" stroke="white" fill="transparent"/>
	<path d = "M 243.75 114.84 L 243.75 114.84" stroke="white" fill="transparent"/>
	<path d = "M 243.75 112.50 L 243.75 112.50" stroke="white" fill="transparent"/>
	<path d = "M 222.66 91.41 L 206.25 82.03 L 187.50 103.12 L 161.72 150.00 L 157.03 199.22 L 145.31 203.91 L 96.09 196.88 L 2.34 98.44 L 0.00 150.00 L 11.72 192.19 L 37.50 222.66 L 131.25 260.16 L 187.50 295.31 L 206.25 316.41 L 220.31 351.56 L 236.72 367.97 L 278.91 379.69 L 349.22 375.00 L 391.41 363.28 L 421.88 335.16 L 447.66 269.53 L 450.00 234.38 L 489.84 232.03 L 539.06 208.59 L 578.91 173.44 L 597.66 140.62 L 595.31 119.53 L 536.72 79.69 L 487.50 75.00 L 452.34 107.81 L 417.19 49.22" stroke="white" fill="transparent"/>
	<path d = "M 433.59 145.31 L 464.06 133.59 L 513.28 131.25 L 517.97 150.00 L 506.25 168.75 L 450.00 194.53 L 435.94 192.19 L 431.25 161.72" stroke="white" fill="transparent"/>
</svg>