<?xml version="1.0" encoding="UTF-8" standalone="no"?>
<!--Created with ndjsontosvg (https:https://github.com/thompson318/ndjsontosvg) 
	from the simplified Google quickdraw data set. key_id = 6727876302864384-->
<svg width="600" height="600"
	xmlns="http://www.w3.org/2000/svg">
	xmlns:ndjsontosvg="https://github.com/thompson318/ndjsontosvg"
	xmlns:quickdraw="https://quickdraw.withgoogle.com/data"
	xmlns:scikit-surgery="https://doi.org/10.1007/s11548-020-02180-5">

	<rect width="100%" height="100%" fill="black" />
	<path d = "M 82.03 508.59 L 56.25 562.50 L 53.91 581.25 L 60.94 583.59 L 119.53 578.91 L 187.50 525.00 L 283.59 534.38 L 278.91 548.44 L 288.28 555.47 L 363.28 595.31 L 375.00 590.62 L 379.69 562.50 L 398.44 527.34 L 389.06 506.25 L 360.94 482.81 L 311.72 475.78 L 316.41 466.41 L 344.53 457.03 L 363.28 426.56 L 363.28 400.78 L 321.09 339.84 L 278.91 318.75 L 442.97 330.47 L 457.03 323.44 L 466.41 297.66 L 438.28 253.12 L 396.09 234.38 L 314.06 225.00 L 264.84 241.41 L 267.19 222.66 L 285.94 210.94 L 295.31 189.84 L 295.31 124.22 L 285.94 100.78" stroke="white" fill="transparent"/>
	<path d = "M 297.66 121.88 L 274.22 84.38 L 246.09 77.34 L 180.47 105.47 L 103.12 121.88 L 72.66 142.97 L 67.97 185.16 L 114.84 196.88 L 142.97 225.00 L 121.88 227.34 L 110.16 250.78 L 89.06 260.16 L 21.09 271.88 L 0.00 304.69 L 11.72 323.44 L 44.53 339.84 L 70.31 342.19 L 93.75 330.47 L 75.00 344.53 L 53.91 379.69 L 42.19 417.19 L 44.53 468.75 L 79.69 482.81" stroke="white" fill="transparent"/>
	<path d = "M 241.41 332.81 L 213.28 332.81 L 194.53 349.22 L 187.50 372.66 L 196.88 403.12 L 243.75 464.06 L 297.66 473.44 L 342.19 457.03 L 370.31 419.53 L 384.38 384.38 L 384.38 363.28 L 372.66 346.88 L 290.62 314.06 L 255.47 314.06 L 189.84 337.50 L 166.41 351.56" stroke="white" fill="transparent"/>
	<path d = "M 140.62 147.66 L 145.31 203.91 L 201.56 208.59 L 206.25 201.56 L 178.12 168.75 L 150.00 159.38" stroke="white" fill="transparent"/>
	<path d = "M 288.28 60.94 L 372.66 9.38 L 398.44 0.00 L 431.25 2.34 L 440.62 30.47 L 417.19 56.25 L 384.38 128.91 L 370.31 142.97 L 260.16 168.75 L 236.72 171.09 L 229.69 157.03" stroke="white" fill="transparent"/>
	<path d = "M 72.66 105.47 L 72.66 105.47" stroke="white" fill="transparent"/>
</svg>