<?xml version="1.0" encoding="UTF-8" standalone="no"?>
<!--Created with ndjsontosvg (https:https://github.com/thompson318/ndjsontosvg) 
	from the simplified Google quickdraw data set. key_id = 5994260111294464-->
<svg width="600" height="600"
	xmlns="http://www.w3.org/2000/svg">
	xmlns:ndjsontosvg="https://github.com/thompson318/ndjsontosvg"
	xmlns:quickdraw="https://quickdraw.withgoogle.com/data"
	xmlns:scikit-surgery="https://doi.org/10.1007/s11548-020-02180-5">

	<rect width="100%" height="100%" fill="black" />
	<path d = "M 140.62 84.38 L 107.81 114.84 L 79.69 171.09 L 82.03 222.66 L 100.78 255.47 L 159.38 285.94 L 194.53 292.97 L 260.16 288.28 L 307.03 267.19 L 330.47 232.03 L 337.50 185.16 L 330.47 145.31 L 300.00 98.44 L 269.53 75.00 L 222.66 51.56 L 187.50 53.91 L 147.66 79.69" stroke="white" fill="transparent"/>
	<path d = "M 145.31 58.59 L 133.59 46.88 L 124.22 9.38 L 105.47 0.00 L 75.00 4.69 L 56.25 35.16 L 51.56 65.62 L 63.28 79.69 L 105.47 89.06" stroke="white" fill="transparent"/>
	<path d = "M 253.12 56.25 L 314.06 11.72 L 358.59 9.38 L 379.69 42.19 L 377.34 70.31 L 360.94 96.09 L 335.16 110.16" stroke="white" fill="transparent"/>
	<path d = "M 128.91 278.91 L 103.12 281.25 L 63.28 300.00 L 4.69 344.53 L 2.34 375.00 L 23.44 400.78 L 56.25 400.78 L 110.16 375.00 L 75.00 461.72 L 37.50 506.25 L 35.16 522.66 L 44.53 548.44 L 53.91 560.16 L 131.25 564.84 L 154.69 541.41 L 187.50 485.16 L 189.84 499.22 L 243.75 557.81 L 281.25 585.94 L 321.09 597.66 L 342.19 597.66 L 356.25 578.91 L 351.56 520.31 L 335.16 473.44 L 281.25 431.25 L 391.41 435.94 L 419.53 428.91 L 424.22 419.53 L 400.78 386.72 L 358.59 358.59 L 304.69 292.97" stroke="white" fill="transparent"/>
</svg>