<?xml version="1.0" encoding="UTF-8" standalone="no"?>
<!--Created with ndjsontosvg (https:https://github.com/thompson318/ndjsontosvg) 
	from the simplified Google quickdraw data set. key_id = 6598419210567680-->
<svg width="600" height="600"
	xmlns="http://www.w3.org/2000/svg">
	xmlns:ndjsontosvg="https://github.com/thompson318/ndjsontosvg"
	xmlns:quickdraw="https://quickdraw.withgoogle.com/data"
	xmlns:scikit-surgery="https://doi.org/10.1007/s11548-020-02180-5">

	<rect width="100%" height="100%" fill="black" />
	<path d = "M 161.72 56.25 L 126.56 56.25 L 105.47 72.66 L 75.00 126.56 L 70.31 182.81 L 98.44 234.38 L 126.56 257.81 L 161.72 271.88 L 220.31 271.88 L 264.84 246.09 L 292.97 206.25 L 300.00 173.44 L 297.66 121.88 L 264.84 84.38 L 213.28 58.59 L 147.66 51.56 L 131.25 56.25 L 126.56 65.62" stroke="white" fill="transparent"/>
	<path d = "M 189.84 180.47 L 180.47 213.28 L 147.66 215.62" stroke="white" fill="transparent"/>
	<path d = "M 199.22 180.47 L 213.28 201.56 L 243.75 206.25" stroke="white" fill="transparent"/>
	<path d = "M 135.94 131.25 L 135.94 142.97 L 145.31 133.59 L 154.69 140.62 L 154.69 131.25 L 147.66 128.91 L 152.34 135.94" stroke="white" fill="transparent"/>
	<path d = "M 255.47 121.88 L 253.12 128.91 L 253.12 119.53 L 234.38 119.53 L 229.69 128.91 L 241.41 131.25" stroke="white" fill="transparent"/>
	<path d = "M 234.38 60.94 L 250.78 0.00 L 255.47 58.59" stroke="white" fill="transparent"/>
	<path d = "M 154.69 58.59 L 128.91 35.16 L 82.03 28.12 L 79.69 60.94 L 86.72 67.97 L 110.16 70.31" stroke="white" fill="transparent"/>
	<path d = "M 213.28 281.25 L 147.66 281.25 L 121.88 297.66 L 91.41 342.19 L 89.06 389.06 L 112.50 431.25 L 173.44 478.12 L 217.97 496.88 L 285.94 496.88 L 321.09 468.75 L 344.53 412.50 L 342.19 344.53 L 307.03 300.00 L 246.09 283.59 L 161.72 292.97 L 117.19 323.44 L 100.78 363.28 L 100.78 403.12 L 107.81 428.91 L 147.66 480.47 L 215.62 508.59 L 288.28 503.91 L 321.09 482.81 L 358.59 428.91 L 358.59 386.72 L 344.53 349.22 L 309.38 311.72 L 274.22 295.31 L 178.12 292.97 L 161.72 311.72" stroke="white" fill="transparent"/>
	<path d = "M 292.97 346.88 L 323.44 314.06 L 389.06 285.94 L 407.81 290.62 L 405.47 307.03 L 351.56 342.19 L 304.69 353.91 L 281.25 349.22" stroke="white" fill="transparent"/>
	<path d = "M 166.41 363.28 L 70.31 304.69 L 39.84 290.62 L 4.69 288.28 L 0.00 300.00 L 2.34 318.75 L 42.19 349.22 L 100.78 363.28 L 145.31 363.28 L 175.78 353.91" stroke="white" fill="transparent"/>
	<path d = "M 295.31 426.56 L 356.25 482.81 L 421.88 562.50 L 440.62 571.88 L 382.03 574.22 L 358.59 564.84 L 335.16 529.69 L 307.03 447.66" stroke="white" fill="transparent"/>
	<path d = "M 206.25 473.44 L 138.28 562.50 L 86.72 597.66 L 77.34 590.62 L 82.03 541.41 L 154.69 475.78" stroke="white" fill="transparent"/>
</svg>