<?xml version="1.0" encoding="UTF-8" standalone="no"?>
<!--Created with ndjsontosvg (https:https://github.com/thompson318/ndjsontosvg) 
	from the simplified Google quickdraw data set. key_id = 6105916791324672-->
<svg width="600" height="600"
	xmlns="http://www.w3.org/2000/svg">
	xmlns:ndjsontosvg="https://github.com/thompson318/ndjsontosvg"
	xmlns:quickdraw="https://quickdraw.withgoogle.com/data"
	xmlns:scikit-surgery="https://doi.org/10.1007/s11548-020-02180-5">

	<rect width="100%" height="100%" fill="black" />
	<path d = "M 35.16 517.97 L 0.00 189.84 L 16.41 178.12 L 173.44 147.66 L 482.81 126.56 L 562.50 135.94 L 576.56 154.69 L 597.66 426.56 L 595.31 508.59 L 581.25 553.12 L 553.12 557.81 L 281.25 529.69 L 196.88 532.03 L 63.28 555.47 L 30.47 553.12" stroke="white" fill="transparent"/>
	<path d = "M 281.25 152.34 L 367.97 42.19 L 400.78 11.72 L 384.38 39.84" stroke="white" fill="transparent"/>
	<path d = "M 278.91 128.91 L 208.59 46.88 L 166.41 7.03 L 150.00 0.00" stroke="white" fill="transparent"/>
	<path d = "M 180.47 232.03 L 243.75 215.62 L 339.84 206.25 L 384.38 210.94 L 417.19 225.00 L 447.66 288.28 L 459.38 344.53 L 454.69 403.12 L 428.91 442.97 L 325.78 447.66 L 152.34 438.28 L 138.28 410.16 L 131.25 236.72 L 201.56 225.00" stroke="white" fill="transparent"/>
</svg>