<?xml version="1.0" encoding="UTF-8" standalone="no"?>
<!--Created with ndjsontosvg (https:https://github.com/thompson318/ndjsontosvg) 
	from the simplified Google quickdraw data set. key_id = 4719827413368832-->
<svg width="600" height="600"
	xmlns="http://www.w3.org/2000/svg">
	xmlns:ndjsontosvg="https://github.com/thompson318/ndjsontosvg"
	xmlns:quickdraw="https://quickdraw.withgoogle.com/data"
	xmlns:scikit-surgery="https://doi.org/10.1007/s11548-020-02180-5">

	<rect width="100%" height="100%" fill="black" />
	<path d = "M 0.00 192.19 L 0.00 510.94 L 39.84 506.25 L 173.44 553.12 L 321.09 571.88 L 553.12 571.88 L 595.31 562.50 L 585.94 485.16 L 590.62 269.53 L 583.59 203.91 L 543.75 206.25 L 461.72 180.47 L 403.12 175.78 L 77.34 185.16 L 2.34 196.88" stroke="white" fill="transparent"/>
	<path d = "M 117.19 217.97 L 119.53 541.41 L 145.31 520.31 L 201.56 520.31 L 325.78 541.41 L 421.88 541.41 L 546.09 501.56 L 532.03 232.03 L 121.88 222.66" stroke="white" fill="transparent"/>
	<path d = "M 288.28 175.78 L 208.59 58.59" stroke="white" fill="transparent"/>
	<path d = "M 295.31 175.78 L 307.03 126.56 L 382.03 0.00" stroke="white" fill="transparent"/>
</svg>