<?xml version="1.0" encoding="UTF-8" standalone="no"?>
<!--Created with ndjsontosvg (https:https://github.com/thompson318/ndjsontosvg) 
	from the simplified Google quickdraw data set. key_id = 4780474817839104-->
<svg width="600" height="600"
	xmlns="http://www.w3.org/2000/svg">
	xmlns:ndjsontosvg="https://github.com/thompson318/ndjsontosvg"
	xmlns:quickdraw="https://quickdraw.withgoogle.com/data"
	xmlns:scikit-surgery="https://doi.org/10.1007/s11548-020-02180-5">

	<rect width="100%" height="100%" fill="black" />
	<path d = "M 21.09 229.69 L 9.38 321.09 L 7.03 487.50 L 9.38 548.44 L 21.09 595.31 L 100.78 569.53 L 232.03 555.47 L 307.03 555.47 L 478.12 567.19 L 525.00 567.19 L 529.69 560.16 L 489.84 442.97 L 480.47 389.06 L 475.78 260.16 L 464.06 189.84 L 452.34 171.09 L 391.41 166.41 L 321.09 178.12 L 239.06 178.12 L 121.88 194.53 L 37.50 194.53 L 0.00 215.62 L 25.78 269.53" stroke="white" fill="transparent"/>
	<path d = "M 206.25 157.03 L 178.12 150.00 L 145.31 121.88 L 119.53 84.38 L 89.06 58.59 L 75.00 25.78" stroke="white" fill="transparent"/>
	<path d = "M 194.53 159.38 L 225.00 133.59 L 290.62 21.09" stroke="white" fill="transparent"/>
	<path d = "M 304.69 16.41 L 283.59 16.41 L 295.31 32.81 L 311.72 35.16 L 321.09 28.12 L 314.06 0.00 L 297.66 28.12" stroke="white" fill="transparent"/>
	<path d = "M 96.09 28.12 L 65.62 16.41 L 49.22 32.81 L 49.22 46.88 L 60.94 60.94 L 84.38 51.56 L 96.09 23.44 L 91.41 9.38" stroke="white" fill="transparent"/>
	<path d = "M 77.34 253.12 L 60.94 433.59 L 63.28 480.47 L 72.66 496.88 L 138.28 510.94 L 290.62 487.50 L 410.16 499.22 L 431.25 494.53 L 450.00 475.78 L 452.34 428.91 L 445.31 346.88 L 419.53 255.47 L 398.44 206.25 L 370.31 178.12 L 330.47 168.75 L 290.62 173.44" stroke="white" fill="transparent"/>
</svg>