<?xml version="1.0" encoding="UTF-8" standalone="no"?>
<!--Created with ndjsontosvg (https:https://github.com/thompson318/ndjsontosvg) 
	from the simplified Google quickdraw data set. key_id = 6648151064707072-->
<svg width="600" height="600"
	xmlns="http://www.w3.org/2000/svg">
	xmlns:ndjsontosvg="https://github.com/thompson318/ndjsontosvg"
	xmlns:quickdraw="https://quickdraw.withgoogle.com/data"
	xmlns:scikit-surgery="https://doi.org/10.1007/s11548-020-02180-5">

	<rect width="100%" height="100%" fill="black" />
	<path d = "M 140.62 7.03 L 121.88 30.47 L 112.50 77.34 L 114.84 133.59 L 119.53 142.97 L 135.94 142.97 L 147.66 135.94 L 166.41 103.12 L 171.09 49.22 L 147.66 21.09 L 124.22 16.41" stroke="white" fill="transparent"/>
	<path d = "M 96.09 417.19 L 93.75 510.94 L 107.81 525.00 L 128.91 515.62 L 147.66 475.78 L 152.34 421.88 L 126.56 389.06 L 105.47 386.72 L 98.44 398.44 L 93.75 438.28 L 105.47 457.03 L 114.84 461.72" stroke="white" fill="transparent"/>
	<path d = "M 145.31 2.34 L 217.97 2.34 L 281.25 11.72 L 367.97 53.91 L 410.16 91.41 L 478.12 187.50 L 522.66 269.53 L 557.81 365.62 L 564.84 459.38 L 541.41 496.88 L 520.31 515.62 L 454.69 548.44 L 309.38 595.31 L 255.47 597.66 L 192.19 581.25 L 138.28 553.12 L 110.16 522.66" stroke="white" fill="transparent"/>
	<path d = "M 138.28 482.81 L 194.53 499.22 L 232.03 501.56 L 269.53 501.56 L 314.06 487.50 L 398.44 428.91 L 426.56 389.06 L 433.59 360.94 L 417.19 225.00 L 393.75 168.75 L 370.31 142.97 L 304.69 121.88 L 213.28 121.88 L 171.09 114.84" stroke="white" fill="transparent"/>
	<path d = "M 0.00 42.19 L 30.47 60.94 L 77.34 67.97" stroke="white" fill="transparent"/>
	<path d = "M 32.81 117.19 L 44.53 124.22" stroke="white" fill="transparent"/>
</svg>