<?xml version="1.0" encoding="UTF-8" standalone="no"?>
<!--Created with ndjsontosvg (https:https://github.com/thompson318/ndjsontosvg) 
	from the simplified Google quickdraw data set. key_id = 4829113963511808-->
<svg width="600" height="600"
	xmlns="http://www.w3.org/2000/svg">
	xmlns:ndjsontosvg="https://github.com/thompson318/ndjsontosvg"
	xmlns:quickdraw="https://quickdraw.withgoogle.com/data"
	xmlns:scikit-surgery="https://doi.org/10.1007/s11548-020-02180-5">

	<rect width="100%" height="100%" fill="black" />
	<path d = "M 25.78 42.19 L 262.50 32.81 L 382.03 18.75 L 424.22 7.03" stroke="white" fill="transparent"/>
	<path d = "M 0.00 39.84 L 11.72 53.91 L 23.44 98.44 L 35.16 208.59 L 35.16 588.28 L 49.22 597.66 L 84.38 597.66 L 417.19 576.56 L 442.97 571.88 L 452.34 557.81 L 452.34 506.25 L 442.97 271.88 L 410.16 0.00" stroke="white" fill="transparent"/>
	<path d = "M 79.69 98.44 L 86.72 107.81 L 96.09 166.41 L 103.12 546.09 L 121.88 553.12 L 225.00 541.41" stroke="white" fill="transparent"/>
	<path d = "M 274.22 532.03 L 241.41 534.38 L 239.06 564.84 L 257.81 574.22 L 269.53 571.88 L 274.22 562.50 L 274.22 539.06 L 262.50 529.69 L 248.44 532.03" stroke="white" fill="transparent"/>
	<path d = "M 292.97 546.09 L 307.03 539.06 L 384.38 539.06 L 400.78 527.34 L 384.38 367.97 L 389.06 67.97 L 321.09 63.28 L 103.12 100.78 L 65.62 100.78" stroke="white" fill="transparent"/>
</svg>