<?xml version="1.0" encoding="UTF-8" standalone="no"?>
<!--Created with ndjsontosvg (https:https://github.com/thompson318/ndjsontosvg) 
	from the simplified Google quickdraw data set. key_id = 5306084594024448-->
<svg width="600" height="600"
	xmlns="http://www.w3.org/2000/svg">
	xmlns:ndjsontosvg="https://github.com/thompson318/ndjsontosvg"
	xmlns:quickdraw="https://quickdraw.withgoogle.com/data"
	xmlns:scikit-surgery="https://doi.org/10.1007/s11548-020-02180-5">

	<rect width="100%" height="100%" fill="black" />
	<path d = "M 44.53 243.75 L 42.19 285.94 L 0.00 534.38 L 138.28 520.31 L 365.62 525.00 L 414.84 510.94 L 597.66 527.34 L 567.19 445.31 L 564.84 297.66 L 571.88 203.91 L 567.19 196.88 L 499.22 194.53 L 337.50 213.28 L 86.72 215.62 L 53.91 222.66 L 44.53 241.41" stroke="white" fill="transparent"/>
	<path d = "M 201.56 213.28 L 164.06 157.03 L 110.16 53.91 L 93.75 0.00" stroke="white" fill="transparent"/>
	<path d = "M 360.94 206.25 L 452.34 110.16 L 506.25 11.72" stroke="white" fill="transparent"/>
	<path d = "M 506.25 269.53 L 494.53 276.56 L 492.19 292.97 L 494.53 302.34 L 506.25 307.03" stroke="white" fill="transparent"/>
</svg>