<?xml version="1.0" encoding="UTF-8" standalone="no"?>
<!--Created with ndjsontosvg (https:https://github.com/thompson318/ndjsontosvg) 
	from the simplified Google quickdraw data set. key_id = 4872072612282368-->
<svg width="600" height="600"
	xmlns="http://www.w3.org/2000/svg">
	xmlns:ndjsontosvg="https://github.com/thompson318/ndjsontosvg"
	xmlns:quickdraw="https://quickdraw.withgoogle.com/data"
	xmlns:scikit-surgery="https://doi.org/10.1007/s11548-020-02180-5">

	<rect width="100%" height="100%" fill="black" />
	<path d = "M 264.84 107.81 L 344.53 105.47 L 367.97 32.81 L 325.78 2.34 L 302.34 0.00 L 250.78 16.41 L 213.28 49.22 L 210.94 100.78 L 225.00 119.53 L 264.84 107.81" stroke="white" fill="transparent"/>
	<path d = "M 246.09 18.75 L 173.44 39.84 L 135.94 70.31 L 124.22 166.41 L 142.97 353.91 L 175.78 417.19 L 262.50 424.22 L 307.03 410.16 L 314.06 400.78 L 323.44 335.16 L 292.97 285.94 L 264.84 288.28 L 248.44 332.81 L 246.09 407.81 L 253.12 438.28 L 260.16 440.62 L 257.81 428.91" stroke="white" fill="transparent"/>
	<path d = "M 250.78 288.28 L 213.28 225.00 L 203.91 178.12 L 208.59 133.59 L 227.34 117.19" stroke="white" fill="transparent"/>
	<path d = "M 171.09 421.88 L 124.22 438.28 L 117.19 494.53 L 131.25 501.56 L 126.56 459.38 L 96.09 452.34 L 86.72 482.81 L 110.16 520.31 L 133.59 522.66 L 65.62 478.12 L 53.91 480.47 L 18.75 541.41 L 35.16 588.28 L 70.31 597.66 L 53.91 543.75 L 0.00 567.19 L 9.38 588.28 L 23.44 592.97" stroke="white" fill="transparent"/>
</svg>