<?xml version="1.0" encoding="UTF-8" standalone="no"?>
<!--Created with ndjsontosvg (https:https://github.com/thompson318/ndjsontosvg) 
	from the simplified Google quickdraw data set. key_id = 6213830461882368-->
<svg width="600" height="600"
	xmlns="http://www.w3.org/2000/svg">
	xmlns:ndjsontosvg="https://github.com/thompson318/ndjsontosvg"
	xmlns:quickdraw="https://quickdraw.withgoogle.com/data"
	xmlns:scikit-surgery="https://doi.org/10.1007/s11548-020-02180-5">

	<rect width="100%" height="100%" fill="black" />
	<path d = "M 9.38 185.16 L 53.91 187.50 L 215.62 171.09 L 426.56 168.75 L 433.59 175.78 L 405.47 428.91 L 316.41 461.72 L 182.81 466.41 L 70.31 464.06 L 35.16 454.69 L 16.41 438.28 L 0.00 229.69 L 0.00 201.56 L 9.38 185.16" stroke="white" fill="transparent"/>
	<path d = "M 79.69 246.09 L 86.72 391.41 L 232.03 386.72 L 278.91 377.34 L 292.97 363.28 L 323.44 276.56 L 332.81 232.03 L 328.12 206.25 L 189.84 225.00 L 77.34 260.16 L 58.59 255.47" stroke="white" fill="transparent"/>
	<path d = "M 194.53 178.12 L 142.97 126.56 L 107.81 100.78" stroke="white" fill="transparent"/>
	<path d = "M 217.97 166.41 L 222.66 138.28 L 246.09 96.09 L 318.75 0.00" stroke="white" fill="transparent"/>
	<path d = "M 154.69 492.19 L 126.56 513.28 L 70.31 597.66" stroke="white" fill="transparent"/>
</svg>