<?xml version="1.0" encoding="UTF-8" standalone="no"?>
<!--Created with ndjsontosvg (https:https://github.com/thompson318/ndjsontosvg) 
	from the simplified Google quickdraw data set. key_id = 5730837888761856-->
<svg width="600" height="600"
	xmlns="http://www.w3.org/2000/svg">
	xmlns:ndjsontosvg="https://github.com/thompson318/ndjsontosvg"
	xmlns:quickdraw="https://quickdraw.withgoogle.com/data"
	xmlns:scikit-surgery="https://doi.org/10.1007/s11548-020-02180-5">

	<rect width="100%" height="100%" fill="black" />
	<path d = "M 0.00 161.72 L 2.34 534.38 L 546.09 536.72 L 560.16 353.91 L 597.66 161.72 L 585.94 154.69 L 454.69 152.34 L 14.06 145.31" stroke="white" fill="transparent"/>
	<path d = "M 46.88 196.88 L 58.59 227.34 L 65.62 295.31 L 67.97 445.31 L 82.03 468.75 L 112.50 475.78 L 459.38 475.78 L 468.75 471.09 L 501.56 269.53 L 496.88 225.00 L 288.28 203.91 L 37.50 203.91" stroke="white" fill="transparent"/>
	<path d = "M 222.66 114.84 L 175.78 32.81 L 150.00 18.75 L 103.12 16.41 L 103.12 35.16" stroke="white" fill="transparent"/>
	<path d = "M 267.19 133.59 L 267.19 103.12 L 302.34 51.56 L 337.50 21.09 L 396.09 0.00" stroke="white" fill="transparent"/>
</svg>