<?xml version="1.0" encoding="UTF-8" standalone="no"?>
<!--Created with ndjsontosvg (https:https://github.com/thompson318/ndjsontosvg) 
	from the simplified Google quickdraw data set. key_id = 4814803417694208-->
<svg width="600" height="600"
	xmlns="http://www.w3.org/2000/svg">
	xmlns:ndjsontosvg="https://github.com/thompson318/ndjsontosvg"
	xmlns:quickdraw="https://quickdraw.withgoogle.com/data"
	xmlns:scikit-surgery="https://doi.org/10.1007/s11548-020-02180-5">

	<rect width="100%" height="100%" fill="black" />
	<path d = "M 173.44 576.56 L 171.09 546.09 L 135.94 440.62 L 133.59 344.53 L 157.03 328.12 L 175.78 328.12 L 187.50 337.50 L 217.97 382.03 L 236.72 499.22 L 236.72 550.78 L 225.00 583.59 L 206.25 595.31 L 166.41 597.66 L 152.34 581.25" stroke="white" fill="transparent"/>
	<path d = "M 117.19 332.81 L 89.06 332.81 L 77.34 323.44 L 23.44 250.78 L 16.41 126.56 L 0.00 46.88 L 2.34 21.09 L 9.38 16.41 L 42.19 7.03 L 86.72 4.69 L 128.91 23.44 L 161.72 49.22 L 189.84 77.34 L 210.94 112.50 L 248.44 271.88 L 248.44 316.41 L 236.72 335.16" stroke="white" fill="transparent"/>
	<path d = "M 9.38 67.97 L 60.94 72.66 L 133.59 56.25" stroke="white" fill="transparent"/>
	<path d = "M 25.78 154.69 L 128.91 150.00 L 185.16 124.22" stroke="white" fill="transparent"/>
	<path d = "M 37.50 210.94 L 138.28 213.28 L 243.75 175.78" stroke="white" fill="transparent"/>
	<path d = "M 63.28 271.88 L 203.91 278.91 L 264.84 267.19" stroke="white" fill="transparent"/>
	<path d = "M 107.81 9.38 L 110.16 46.88 L 157.03 145.31 L 185.16 337.50" stroke="white" fill="transparent"/>
	<path d = "M 28.12 0.00 L 37.50 11.72 L 42.19 58.59 L 126.56 307.03" stroke="white" fill="transparent"/>
</svg>