<?xml version="1.0" encoding="UTF-8" standalone="no"?>
<!--Created with ndjsontosvg (https:https://github.com/thompson318/ndjsontosvg) 
	from the simplified Google quickdraw data set. key_id = 6278594089189376-->
<svg width="600" height="600"
	xmlns="http://www.w3.org/2000/svg">
	xmlns:ndjsontosvg="https://github.com/thompson318/ndjsontosvg"
	xmlns:quickdraw="https://quickdraw.withgoogle.com/data"
	xmlns:scikit-surgery="https://doi.org/10.1007/s11548-020-02180-5">

	<rect width="100%" height="100%" fill="black" />
	<path d = "M 0.00 574.22 L 77.34 438.28 L 199.22 278.91" stroke="white" fill="transparent"/>
	<path d = "M 4.69 585.94 L 63.28 597.66 L 91.41 578.91 L 150.00 510.94 L 185.16 454.69 L 241.41 335.16 L 330.47 339.84 L 363.28 318.75 L 428.91 250.78 L 454.69 196.88 L 457.03 117.19 L 433.59 84.38 L 367.97 28.12 L 316.41 4.69 L 241.41 0.00 L 222.66 4.69 L 178.12 35.16 L 150.00 98.44 L 140.62 192.19 L 239.06 269.53" stroke="white" fill="transparent"/>
	<path d = "M 292.97 241.41 L 278.91 241.41 L 264.84 229.69 L 213.28 159.38 L 199.22 110.16 L 199.22 84.38 L 206.25 77.34 L 255.47 60.94 L 351.56 65.62 L 389.06 93.75 L 410.16 126.56 L 421.88 159.38 L 419.53 194.53 L 360.94 229.69 L 311.72 248.44 L 281.25 250.78" stroke="white" fill="transparent"/>
	<path d = "M 281.25 58.59 L 267.19 63.28 L 229.69 222.66" stroke="white" fill="transparent"/>
	<path d = "M 349.22 110.16 L 300.00 215.62 L 297.66 241.41" stroke="white" fill="transparent"/>
	<path d = "M 391.41 105.47 L 367.97 182.81 L 337.50 243.75" stroke="white" fill="transparent"/>
	<path d = "M 225.00 103.12 L 414.84 182.81" stroke="white" fill="transparent"/>
	<path d = "M 229.69 142.97 L 285.94 157.03 L 360.94 210.94" stroke="white" fill="transparent"/>
	<path d = "M 274.22 65.62 L 389.06 114.84 L 419.53 135.94" stroke="white" fill="transparent"/>
	<path d = "M 257.81 187.50 L 375.00 234.38" stroke="white" fill="transparent"/>
</svg>