<?xml version="1.0" encoding="UTF-8" standalone="no"?>
<!--Created with ndjsontosvg (https:https://github.com/thompson318/ndjsontosvg) 
	from the simplified Google quickdraw data set. key_id = 6439133121609728-->
<svg width="600" height="600"
	xmlns="http://www.w3.org/2000/svg">
	xmlns:ndjsontosvg="https://github.com/thompson318/ndjsontosvg"
	xmlns:quickdraw="https://quickdraw.withgoogle.com/data"
	xmlns:scikit-surgery="https://doi.org/10.1007/s11548-020-02180-5">

	<rect width="100%" height="100%" fill="black" />
	<path d = "M 9.38 428.91 L 18.75 403.12 L 140.62 208.59 L 239.06 98.44 L 307.03 42.19 L 372.66 9.38 L 438.28 0.00 L 480.47 18.75 L 515.62 79.69 L 548.44 187.50 L 592.97 421.88 L 473.44 454.69 L 417.19 461.72 L 309.38 461.72 L 194.53 450.00 L 138.28 440.62 L 70.31 414.84 L 16.41 407.81 L 7.03 421.88 L 14.06 482.81 L 0.00 403.12" stroke="white" fill="transparent"/>
	<path d = "M 597.66 417.19 L 597.66 442.97" stroke="white" fill="transparent"/>
	<path d = "M 220.31 288.28 L 208.59 246.09 L 213.28 131.25 L 236.72 98.44 L 267.19 82.03 L 302.34 72.66 L 356.25 72.66 L 400.78 84.38 L 426.56 98.44 L 442.97 124.22 L 450.00 154.69 L 447.66 307.03" stroke="white" fill="transparent"/>
	<path d = "M 246.09 217.97 L 246.09 215.62" stroke="white" fill="transparent"/>
</svg>