<?xml version="1.0" encoding="UTF-8" standalone="no"?>
<!--Created with ndjsontosvg (https:https://github.com/thompson318/ndjsontosvg) 
	from the simplified Google quickdraw data set. key_id = 4511241873653760-->
<svg width="600" height="600"
	xmlns="http://www.w3.org/2000/svg">
	xmlns:ndjsontosvg="https://github.com/thompson318/ndjsontosvg"
	xmlns:quickdraw="https://quickdraw.withgoogle.com/data"
	xmlns:scikit-surgery="https://doi.org/10.1007/s11548-020-02180-5">

	<rect width="100%" height="100%" fill="black" />
	<path d = "M 180.47 9.38 L 175.78 11.72 L 175.78 0.00 L 171.09 7.03 L 182.81 16.41 L 182.81 2.34" stroke="white" fill="transparent"/>
	<path d = "M 180.47 23.44 L 164.06 86.72 L 164.06 135.94 L 117.19 274.22 L 93.75 285.94 L 93.75 304.69 L 131.25 321.09 L 206.25 328.12 L 236.72 325.78 L 264.84 311.72 L 264.84 253.12 L 121.88 255.47 L 121.88 246.09" stroke="white" fill="transparent"/>
	<path d = "M 175.78 121.88 L 182.81 152.34 L 229.69 239.06" stroke="white" fill="transparent"/>
	<path d = "M 131.25 323.44 L 72.66 442.97 L 44.53 480.47 L 14.06 567.19 L 0.00 581.25 L 63.28 597.66 L 82.03 588.28 L 124.22 510.94 L 140.62 461.72 L 171.09 454.69 L 182.81 454.69 L 192.19 473.44 L 225.00 590.62 L 356.25 595.31 L 332.81 459.38 L 248.44 328.12" stroke="white" fill="transparent"/>
</svg>