<?xml version="1.0" encoding="UTF-8" standalone="no"?>
<!--Created with ndjsontosvg (https:https://github.com/thompson318/ndjsontosvg) 
	from the simplified Google quickdraw data set. key_id = 5027153471078400-->
<svg width="600" height="600"
	xmlns="http://www.w3.org/2000/svg">
	xmlns:ndjsontosvg="https://github.com/thompson318/ndjsontosvg"
	xmlns:quickdraw="https://quickdraw.withgoogle.com/data"
	xmlns:scikit-surgery="https://doi.org/10.1007/s11548-020-02180-5">

	<rect width="100%" height="100%" fill="black" />
	<path d = "M 2.34 7.03 L 4.69 342.19 L 79.69 363.28 L 203.91 379.69 L 417.19 384.38 L 583.59 384.38 L 590.62 349.22 L 597.66 201.56 L 597.66 65.62 L 588.28 37.50 L 513.28 14.06 L 407.81 0.00 L 39.84 7.03" stroke="white" fill="transparent"/>
	<path d = "M 255.47 117.19 L 239.06 128.91 L 232.03 171.09 L 243.75 185.16 L 267.19 185.16" stroke="white" fill="transparent"/>
	<path d = "M 262.50 187.50 L 283.59 171.09 L 288.28 142.97" stroke="white" fill="transparent"/>
	<path d = "M 255.47 117.19 L 281.25 124.22 L 290.62 152.34" stroke="white" fill="transparent"/>
	<path d = "M 253.12 114.84 L 229.69 121.88 L 192.19 168.75" stroke="white" fill="transparent"/>
	<path d = "M 271.88 117.19 L 295.31 119.53 L 309.38 157.03 L 325.78 171.09" stroke="white" fill="transparent"/>
	<path d = "M 285.94 150.00 L 295.31 180.47 L 309.38 187.50 L 309.38 173.44 L 295.31 150.00 L 300.00 121.88 L 304.69 182.81 L 321.09 201.56 L 300.00 180.47" stroke="white" fill="transparent"/>
	<path d = "M 248.44 124.22 L 239.06 126.56 L 210.94 171.09 L 203.91 171.09" stroke="white" fill="transparent"/>
	<path d = "M 250.78 133.59 L 250.78 133.59" stroke="white" fill="transparent"/>
	<path d = "M 264.84 138.28 L 264.84 138.28" stroke="white" fill="transparent"/>
	<path d = "M 267.19 135.94 L 267.19 135.94" stroke="white" fill="transparent"/>
	<path d = "M 264.84 135.94 L 264.84 135.94" stroke="white" fill="transparent"/>
	<path d = "M 264.84 135.94 L 264.84 135.94" stroke="white" fill="transparent"/>
	<path d = "M 267.19 135.94 L 264.84 135.94" stroke="white" fill="transparent"/>
	<path d = "M 262.50 154.69 L 262.50 168.75" stroke="white" fill="transparent"/>
	<path d = "M 243.75 185.16 L 225.00 243.75 L 232.03 367.97" stroke="white" fill="transparent"/>
	<path d = "M 283.59 173.44 L 283.59 217.97 L 300.00 250.78 L 318.75 267.19 L 379.69 292.97 L 414.84 318.75 L 431.25 346.88 L 438.28 384.38 L 400.78 386.72 L 356.25 358.59 L 337.50 356.25 L 232.03 353.91 L 206.25 398.44 L 194.53 353.91" stroke="white" fill="transparent"/>
</svg>