<?xml version="1.0" encoding="UTF-8" standalone="no"?>
<!--Created with ndjsontosvg (https:https://github.com/thompson318/ndjsontosvg) 
	from the simplified Google quickdraw data set. key_id = 5344343021846528-->
<svg width="600" height="600"
	xmlns="http://www.w3.org/2000/svg">
	xmlns:ndjsontosvg="https://github.com/thompson318/ndjsontosvg"
	xmlns:quickdraw="https://quickdraw.withgoogle.com/data"
	xmlns:scikit-surgery="https://doi.org/10.1007/s11548-020-02180-5">

	<rect width="100%" height="100%" fill="black" />
	<path d = "M 4.69 63.28 L 2.34 510.94 L 65.62 585.94 L 82.03 595.31 L 192.19 595.31 L 382.03 557.81 L 450.00 553.12 L 466.41 536.72 L 494.53 442.97 L 501.56 241.41 L 513.28 173.44 L 517.97 58.59 L 503.91 44.53 L 234.38 0.00 L 133.59 9.38 L 44.53 51.56 L 18.75 75.00" stroke="white" fill="transparent"/>
	<path d = "M 82.03 112.50 L 82.03 335.16 L 105.47 525.00 L 114.84 539.06 L 173.44 539.06 L 351.56 506.25 L 419.53 450.00 L 438.28 375.00 L 447.66 295.31 L 447.66 103.12 L 433.59 75.00 L 405.47 58.59 L 243.75 56.25 L 154.69 86.72 L 112.50 107.81" stroke="white" fill="transparent"/>
	<path d = "M 264.84 142.97 L 255.47 131.25 L 210.94 135.94 L 196.88 166.41 L 199.22 239.06 L 215.62 253.12 L 248.44 255.47 L 262.50 253.12 L 283.59 236.72 L 292.97 199.22 L 292.97 168.75 L 274.22 140.62 L 255.47 135.94 L 208.59 175.78 L 196.88 194.53 L 189.84 217.97 L 189.84 285.94 L 168.75 325.78 L 194.53 278.91" stroke="white" fill="transparent"/>
	<path d = "M 276.56 128.91 L 292.97 124.22 L 314.06 131.25 L 325.78 145.31 L 335.16 166.41 L 342.19 260.16 L 365.62 278.91" stroke="white" fill="transparent"/>
	<path d = "M 250.78 189.84 L 250.78 189.84" stroke="white" fill="transparent"/>
	<path d = "M 285.94 161.72 L 285.94 161.72" stroke="white" fill="transparent"/>
	<path d = "M 262.50 203.91 L 307.03 208.59" stroke="white" fill="transparent"/>
	<path d = "M 229.69 185.16 L 229.69 185.16" stroke="white" fill="transparent"/>
	<path d = "M 234.38 171.09 L 232.03 196.88" stroke="white" fill="transparent"/>
</svg>