<?xml version="1.0" encoding="UTF-8" standalone="no"?>
<!--Created with ndjsontosvg (https:https://github.com/thompson318/ndjsontosvg) 
	from the simplified Google quickdraw data set. key_id = 4532334156054528-->
<svg width="600" height="600"
	xmlns="http://www.w3.org/2000/svg">
	xmlns:ndjsontosvg="https://github.com/thompson318/ndjsontosvg"
	xmlns:quickdraw="https://quickdraw.withgoogle.com/data"
	xmlns:scikit-surgery="https://doi.org/10.1007/s11548-020-02180-5">

	<rect width="100%" height="100%" fill="black" />
	<path d = "M 7.03 0.00 L 0.00 278.91 L 4.69 407.81 L 25.78 557.81 L 37.50 588.28 L 53.91 597.66 L 128.91 574.22 L 201.56 560.16 L 271.88 553.12 L 499.22 557.81 L 536.72 553.12 L 564.84 541.41 L 576.56 525.00 L 576.56 510.94 L 553.12 403.12 L 541.41 271.88 L 536.72 60.94 L 525.00 37.50 L 344.53 11.72 L 243.75 7.03 L 114.84 16.41 L 39.84 39.84" stroke="white" fill="transparent"/>
	<path d = "M 194.53 213.28 L 192.19 187.50 L 199.22 164.06 L 213.28 145.31 L 243.75 131.25 L 271.88 145.31 L 281.25 157.03 L 290.62 194.53 L 285.94 227.34 L 274.22 248.44 L 257.81 257.81 L 225.00 253.12 L 206.25 232.03 L 199.22 192.19" stroke="white" fill="transparent"/>
	<path d = "M 213.28 119.53 L 171.09 145.31 L 166.41 154.69 L 171.09 288.28" stroke="white" fill="transparent"/>
	<path d = "M 199.22 135.94 L 234.38 114.84 L 255.47 114.84 L 285.94 126.56 L 314.06 152.34 L 337.50 206.25 L 342.19 300.00 L 353.91 337.50" stroke="white" fill="transparent"/>
	<path d = "M 300.00 217.97 L 302.34 274.22 L 314.06 283.59 L 318.75 321.09 L 307.03 262.50 L 330.47 323.44 L 346.88 335.16 L 318.75 288.28 L 318.75 304.69 L 309.38 300.00" stroke="white" fill="transparent"/>
	<path d = "M 201.56 262.50 L 175.78 300.00 L 201.56 267.19 L 206.25 271.88 L 194.53 297.66" stroke="white" fill="transparent"/>
	<path d = "M 206.25 276.56 L 142.97 314.06 L 117.19 337.50 L 112.50 370.31 L 119.53 410.16" stroke="white" fill="transparent"/>
</svg>