<?xml version="1.0" encoding="UTF-8" standalone="no"?>
<!--Created with ndjsontosvg (https:https://github.com/thompson318/ndjsontosvg) 
	from the simplified Google quickdraw data set. key_id = 6718094133166080-->
<svg width="600" height="600"
	xmlns="http://www.w3.org/2000/svg">
	xmlns:ndjsontosvg="https://github.com/thompson318/ndjsontosvg"
	xmlns:quickdraw="https://quickdraw.withgoogle.com/data"
	xmlns:scikit-surgery="https://doi.org/10.1007/s11548-020-02180-5">

	<rect width="100%" height="100%" fill="black" />
	<path d = "M 4.69 119.53 L 16.41 330.47" stroke="white" fill="transparent"/>
	<path d = "M 0.00 110.16 L 11.72 119.53 L 37.50 119.53 L 49.22 133.59 L 53.91 159.38 L 126.56 161.72 L 124.22 0.00 L 154.69 23.44 L 178.12 25.78 L 189.84 37.50 L 192.19 114.84 L 201.56 142.97 L 264.84 142.97 L 269.53 131.25 L 264.84 0.00 L 290.62 16.41 L 351.56 28.12 L 358.59 44.53 L 367.97 154.69 L 372.66 171.09 L 386.72 178.12 L 414.84 180.47 L 428.91 171.09 L 433.59 23.44 L 445.31 30.47 L 501.56 35.16 L 515.62 49.22 L 525.00 189.84 L 520.31 114.84 L 548.44 124.22 L 588.28 117.19 L 597.66 159.38" stroke="white" fill="transparent"/>
</svg>