<?xml version="1.0" encoding="UTF-8" standalone="no"?>
<!--Created with ndjsontosvg (https:https://github.com/thompson318/ndjsontosvg) 
	from the simplified Google quickdraw data set. key_id = 4775892825931776-->
<svg width="600" height="600"
	xmlns="http://www.w3.org/2000/svg">
	xmlns:ndjsontosvg="https://github.com/thompson318/ndjsontosvg"
	xmlns:quickdraw="https://quickdraw.withgoogle.com/data"
	xmlns:scikit-surgery="https://doi.org/10.1007/s11548-020-02180-5">

	<rect width="100%" height="100%" fill="black" />
	<path d = "M 32.81 51.56 L 421.88 7.03 L 585.94 0.00" stroke="white" fill="transparent"/>
	<path d = "M 0.00 133.59 L 35.16 138.28 L 121.88 131.25 L 426.56 77.34 L 585.94 65.62" stroke="white" fill="transparent"/>
	<path d = "M 2.34 182.81 L 100.78 187.50 L 189.84 180.47 L 532.03 128.91 L 595.31 126.56" stroke="white" fill="transparent"/>
	<path d = "M 72.66 269.53 L 424.22 225.00 L 597.66 220.31" stroke="white" fill="transparent"/>
	<path d = "M 2.34 297.66 L 75.00 323.44 L 166.41 325.78 L 588.28 271.88" stroke="white" fill="transparent"/>
	<path d = "M 128.91 39.84 L 140.62 133.59" stroke="white" fill="transparent"/>
	<path d = "M 250.78 117.19 L 276.56 185.16" stroke="white" fill="transparent"/>
	<path d = "M 342.19 16.41 L 346.88 93.75" stroke="white" fill="transparent"/>
	<path d = "M 464.06 82.03 L 473.44 157.03" stroke="white" fill="transparent"/>
	<path d = "M 550.78 0.00 L 550.78 30.47 L 569.53 67.97" stroke="white" fill="transparent"/>
	<path d = "M 117.19 185.16 L 126.56 276.56" stroke="white" fill="transparent"/>
	<path d = "M 372.66 173.44 L 396.09 239.06" stroke="white" fill="transparent"/>
	<path d = "M 543.75 150.00 L 532.03 185.16 L 534.38 213.28" stroke="white" fill="transparent"/>
	<path d = "M 232.03 274.22 L 278.91 349.22" stroke="white" fill="transparent"/>
	<path d = "M 499.22 234.38 L 482.81 262.50 L 499.22 302.34" stroke="white" fill="transparent"/>
</svg>