<?xml version="1.0" encoding="UTF-8" standalone="no"?>
<!--Created with ndjsontosvg (https:https://github.com/thompson318/ndjsontosvg) 
	from the simplified Google quickdraw data set. key_id = 5642778790854656-->
<svg width="600" height="600"
	xmlns="http://www.w3.org/2000/svg">
	xmlns:ndjsontosvg="https://github.com/thompson318/ndjsontosvg"
	xmlns:quickdraw="https://quickdraw.withgoogle.com/data"
	xmlns:scikit-surgery="https://doi.org/10.1007/s11548-020-02180-5">

	<rect width="100%" height="100%" fill="black" />
	<path d = "M 18.75 239.06 L 126.56 217.97 L 478.12 121.88 L 377.34 201.56 L 248.44 260.16 L 103.12 276.56 L 175.78 236.72 L 344.53 192.19 L 489.84 171.09 L 356.25 187.50 L 131.25 236.72 L 2.34 250.78 L 30.47 241.41 L 142.97 314.06" stroke="white" fill="transparent"/>
	<path d = "M 332.81 152.34 L 543.75 189.84" stroke="white" fill="transparent"/>
	<path d = "M 466.41 138.28 L 356.25 206.25" stroke="white" fill="transparent"/>
	<path d = "M 527.34 98.44 L 421.88 147.66 L 536.72 302.34 L 597.66 103.12 L 321.09 103.12 L 150.00 128.91 L 166.41 128.91 L 142.97 335.16 L 0.00 335.16 L 89.06 276.56 L 131.25 269.53 L 0.00 290.62 L 215.62 260.16 L 360.94 260.16 L 65.62 239.06 L 501.56 232.03 L 379.69 241.41 L 112.50 192.19 L 405.47 164.06 L 499.22 164.06 L 103.12 150.00 L 485.16 128.91 L 93.75 112.50 L 307.03 121.88 L 105.47 0.00 L 2.34 7.03 L 2.34 18.75 L 185.16 18.75 L 302.34 30.47 L 0.00 70.31 L 0.00 77.34 L 274.22 56.25 L 342.19 63.28 L 304.69 72.66 L 79.69 86.72 L 37.50 96.09 L 178.12 77.34 L 278.91 107.81 L 192.19 147.66 L 175.78 164.06 L 285.94 175.78 L 360.94 166.41 L 135.94 180.47 L 239.06 164.06 L 288.28 142.97 L 171.09 21.09 L 0.00 0.00 L 0.00 105.47 L 77.34 98.44 L 597.66 145.31 L 428.91 138.28 L 363.28 274.22 L 513.28 278.91 L 597.66 295.31 L 597.66 316.41 L 592.97 323.44 L 473.44 311.72 L 260.16 262.50 L 232.03 260.16 L 262.50 260.16 L 330.47 227.34 L 325.78 173.44 L 243.75 77.34 L 196.88 46.88 L 51.56 37.50 L 0.00 70.31 L 0.00 208.59 L 283.59 246.09 L 560.16 267.19 L 72.66 152.34 L 325.78 182.81 L 414.84 187.50 L 496.88 178.12 L 363.28 173.44 L 114.84 140.62 L 196.88 131.25 L 297.66 133.59 L 360.94 142.97 L 417.19 161.72 L 288.28 147.66 L 105.47 114.84 L 375.00 150.00 L 412.50 119.53 L 210.94 100.78 L 0.00 51.56 L 72.66 44.53 L 60.94 42.19" stroke="white" fill="transparent"/>
</svg>