<?xml version="1.0" encoding="UTF-8" standalone="no"?>
<!--Created with ndjsontosvg (https:https://github.com/thompson318/ndjsontosvg) 
	from the simplified Google quickdraw data set. key_id = 4560813362774016-->
<svg width="600" height="600"
	xmlns="http://www.w3.org/2000/svg">
	xmlns:ndjsontosvg="https://github.com/thompson318/ndjsontosvg"
	xmlns:quickdraw="https://quickdraw.withgoogle.com/data"
	xmlns:scikit-surgery="https://doi.org/10.1007/s11548-020-02180-5">

	<rect width="100%" height="100%" fill="black" />
	<path d = "M 53.91 433.59 L 53.91 386.72 L 60.94 351.56 L 79.69 325.78 L 119.53 290.62 L 150.00 271.88 L 222.66 269.53 L 257.81 260.16 L 269.53 250.78 L 295.31 196.88 L 316.41 173.44 L 346.88 154.69 L 438.28 124.22 L 543.75 44.53 L 583.59 23.44" stroke="white" fill="transparent"/>
	<path d = "M 135.94 435.94 L 121.88 433.59 L 124.22 410.16 L 135.94 370.31 L 157.03 344.53 L 196.88 330.47 L 269.53 323.44 L 323.44 300.00 L 344.53 271.88 L 349.22 227.34 L 363.28 203.91 L 508.59 145.31 L 548.44 110.16 L 597.66 46.88" stroke="white" fill="transparent"/>
	<path d = "M 39.84 424.22 L 16.41 360.94 L 0.00 274.22 L 159.38 175.78 L 520.31 0.00 L 525.00 51.56" stroke="white" fill="transparent"/>
	<path d = "M 53.91 248.44 L 67.97 307.03" stroke="white" fill="transparent"/>
	<path d = "M 105.47 227.34 L 119.53 285.94" stroke="white" fill="transparent"/>
	<path d = "M 138.28 213.28 L 154.69 246.09" stroke="white" fill="transparent"/>
	<path d = "M 180.47 180.47 L 201.56 243.75" stroke="white" fill="transparent"/>
	<path d = "M 234.38 154.69 L 243.75 187.50" stroke="white" fill="transparent"/>
	<path d = "M 276.56 131.25 L 285.94 173.44" stroke="white" fill="transparent"/>
</svg>