<?xml version="1.0" encoding="UTF-8" standalone="no"?>
<!--Created with ndjsontosvg (https:https://github.com/thompson318/ndjsontosvg) 
	from the simplified Google quickdraw data set. key_id = 4688277103706112-->
<svg width="600" height="600"
	xmlns="http://www.w3.org/2000/svg">
	xmlns:ndjsontosvg="https://github.com/thompson318/ndjsontosvg"
	xmlns:quickdraw="https://quickdraw.withgoogle.com/data"
	xmlns:scikit-surgery="https://doi.org/10.1007/s11548-020-02180-5">

	<rect width="100%" height="100%" fill="black" />
	<path d = "M 391.41 194.53 L 330.47 213.28 L 142.97 217.97 L 44.53 250.78 L 16.41 300.00 L 2.34 389.06 L 9.38 403.12 L 65.62 403.12 L 67.97 492.19 L 75.00 503.91 L 91.41 487.50 L 89.06 452.34 L 96.09 405.47 L 103.12 389.06 L 119.53 384.38 L 135.94 396.09 L 185.16 398.44 L 187.50 428.91 L 166.41 485.16 L 173.44 499.22 L 206.25 513.28 L 229.69 508.59 L 236.72 492.19 L 217.97 454.69 L 217.97 412.50 L 239.06 405.47 L 283.59 405.47 L 300.00 424.22 L 300.00 442.97 L 297.66 468.75 L 283.59 503.91 L 330.47 513.28 L 339.84 494.53 L 339.84 464.06 L 328.12 435.94 L 323.44 393.75 L 332.81 379.69 L 344.53 393.75 L 375.00 410.16 L 393.75 433.59 L 391.41 529.69 L 398.44 536.72 L 445.31 534.38 L 461.72 510.94 L 421.88 478.12 L 417.19 384.38 L 435.94 365.62 L 492.19 351.56 L 517.97 328.12 L 529.69 300.00 L 534.38 241.41" stroke="white" fill="transparent"/>
	<path d = "M 536.72 241.41 L 588.28 182.81 L 597.66 157.03 L 597.66 105.47 L 515.62 63.28" stroke="white" fill="transparent"/>
	<path d = "M 384.38 187.50 L 332.81 161.72 L 316.41 114.84 L 318.75 93.75 L 363.28 65.62 L 396.09 56.25 L 496.88 65.62" stroke="white" fill="transparent"/>
	<path d = "M 506.25 60.94 L 546.09 30.47 L 553.12 67.97 L 548.44 96.09" stroke="white" fill="transparent"/>
	<path d = "M 410.16 46.88 L 405.47 16.41 L 386.72 0.00 L 379.69 7.03 L 365.62 100.78" stroke="white" fill="transparent"/>
	<path d = "M 126.56 229.69 L 133.59 365.62 L 150.00 339.84" stroke="white" fill="transparent"/>
	<path d = "M 208.59 236.72 L 215.62 389.06 L 220.31 417.19 L 234.38 391.41" stroke="white" fill="transparent"/>
	<path d = "M 271.88 208.59 L 262.50 396.09 L 278.91 365.62" stroke="white" fill="transparent"/>
	<path d = "M 323.44 217.97 L 335.16 239.06 L 365.62 393.75 L 372.66 379.69" stroke="white" fill="transparent"/>
	<path d = "M 379.69 93.75 L 391.41 93.75" stroke="white" fill="transparent"/>
	<path d = "M 400.78 100.78 L 396.09 117.19 L 386.72 121.88 L 379.69 119.53 L 384.38 100.78" stroke="white" fill="transparent"/>
	<path d = "M 492.19 119.53 L 499.22 121.88" stroke="white" fill="transparent"/>
</svg>