<?xml version="1.0" encoding="UTF-8" standalone="no"?>
<!--Created with ndjsontosvg (https:https://github.com/thompson318/ndjsontosvg) 
	from the simplified Google quickdraw data set. key_id = 5428500007747584-->
<svg width="600" height="600"
	xmlns="http://www.w3.org/2000/svg">
	xmlns:ndjsontosvg="https://github.com/thompson318/ndjsontosvg"
	xmlns:quickdraw="https://quickdraw.withgoogle.com/data"
	xmlns:scikit-surgery="https://doi.org/10.1007/s11548-020-02180-5">

	<rect width="100%" height="100%" fill="black" />
	<path d = "M 424.22 89.06 L 433.59 65.62 L 468.75 28.12 L 501.56 9.38 L 541.41 0.00 L 569.53 2.34 L 590.62 16.41 L 597.66 42.19 L 595.31 72.66 L 564.84 105.47 L 485.16 159.38 L 478.12 217.97 L 464.06 239.06 L 447.66 248.44 L 426.56 253.12 L 419.53 243.75 L 407.81 168.75 L 389.06 166.41 L 375.00 175.78 L 358.59 215.62 L 360.94 283.59 L 353.91 292.97 L 337.50 297.66 L 323.44 292.97 L 309.38 271.88 L 316.41 192.19 L 309.38 178.12 L 288.28 175.78 L 271.88 189.84 L 262.50 239.06 L 271.88 281.25 L 262.50 290.62 L 241.41 292.97 L 225.00 276.56 L 215.62 257.81 L 236.72 180.47 L 225.00 166.41 L 201.56 164.06 L 185.16 201.56 L 178.12 281.25 L 154.69 285.94 L 128.91 267.19 L 124.22 229.69 L 159.38 161.72 L 161.72 128.91 L 138.28 114.84 L 107.81 114.84 L 86.72 131.25 L 51.56 180.47 L 30.47 187.50 L 14.06 178.12 L 0.00 157.03 L 2.34 135.94 L 14.06 117.19 L 60.94 84.38 L 98.44 75.00 L 131.25 77.34 L 210.94 96.09 L 403.12 107.81 L 440.62 91.41 L 452.34 56.25" stroke="white" fill="transparent"/>
	<path d = "M 192.19 93.75 L 194.53 128.91 L 175.78 178.12" stroke="white" fill="transparent"/>
	<path d = "M 257.81 91.41 L 210.94 187.50" stroke="white" fill="transparent"/>
	<path d = "M 309.38 96.09 L 276.56 166.41" stroke="white" fill="transparent"/>
	<path d = "M 358.59 119.53 L 339.84 147.66" stroke="white" fill="transparent"/>
	<path d = "M 410.16 84.38 L 379.69 147.66 L 382.03 171.09" stroke="white" fill="transparent"/>
	<path d = "M 435.94 105.47 L 412.50 166.41" stroke="white" fill="transparent"/>
	<path d = "M 468.75 91.41 L 452.34 150.00" stroke="white" fill="transparent"/>
	<path d = "M 527.34 124.22 L 520.31 168.75" stroke="white" fill="transparent"/>
	<path d = "M 553.12 21.09 L 529.69 37.50 L 525.00 53.91 L 534.38 63.28 L 553.12 58.59 L 560.16 44.53 L 553.12 23.44" stroke="white" fill="transparent"/>
	<path d = "M 585.94 82.03 L 585.94 82.03" stroke="white" fill="transparent"/>
</svg>