<?xml version="1.0" encoding="UTF-8" standalone="no"?>
<!--Created with ndjsontosvg (https:https://github.com/thompson318/ndjsontosvg) 
	from the simplified Google quickdraw data set. key_id = 5898274672214016-->
<svg width="600" height="600"
	xmlns="http://www.w3.org/2000/svg">
	xmlns:ndjsontosvg="https://github.com/thompson318/ndjsontosvg"
	xmlns:quickdraw="https://quickdraw.withgoogle.com/data"
	xmlns:scikit-surgery="https://doi.org/10.1007/s11548-020-02180-5">

	<rect width="100%" height="100%" fill="black" />
	<path d = "M 187.50 53.91 L 121.88 11.72 L 77.34 16.41 L 39.84 35.16 L 16.41 75.00 L 11.72 100.78 L 16.41 131.25 L 30.47 140.62 L 86.72 142.97" stroke="white" fill="transparent"/>
	<path d = "M 196.88 53.91 L 138.28 84.38 L 103.12 133.59 L 89.06 201.56 L 100.78 255.47 L 121.88 288.28 L 175.78 335.16 L 222.66 349.22 L 302.34 353.91 L 419.53 339.84 L 452.34 311.72 L 466.41 276.56 L 473.44 220.31 L 466.41 140.62 L 440.62 103.12 L 367.97 65.62 L 260.16 46.88 L 180.47 53.91" stroke="white" fill="transparent"/>
	<path d = "M 393.75 79.69 L 396.09 28.12 L 417.19 7.03 L 452.34 0.00 L 475.78 16.41 L 496.88 63.28 L 494.53 93.75 L 461.72 126.56 L 440.62 131.25 L 426.56 124.22" stroke="white" fill="transparent"/>
	<path d = "M 185.16 126.56 L 187.50 164.06 L 194.53 173.44 L 208.59 154.69 L 208.59 131.25 L 196.88 119.53 L 185.16 117.19 L 175.78 142.97 L 187.50 133.59" stroke="white" fill="transparent"/>
	<path d = "M 363.28 126.56 L 358.59 145.31 L 370.31 182.81 L 391.41 185.16 L 396.09 168.75 L 382.03 145.31 L 353.91 131.25 L 351.56 140.62" stroke="white" fill="transparent"/>
	<path d = "M 288.28 208.59 L 243.75 201.56 L 234.38 217.97 L 248.44 239.06 L 288.28 250.78 L 297.66 250.78 L 302.34 229.69 L 295.31 208.59" stroke="white" fill="transparent"/>
	<path d = "M 269.53 241.41 L 232.03 285.94 L 203.91 290.62" stroke="white" fill="transparent"/>
	<path d = "M 281.25 241.41 L 288.28 274.22 L 304.69 285.94 L 335.16 285.94 L 346.88 274.22" stroke="white" fill="transparent"/>
	<path d = "M 253.12 210.94 L 138.28 182.81" stroke="white" fill="transparent"/>
	<path d = "M 239.06 229.69 L 175.78 227.34 L 93.75 250.78" stroke="white" fill="transparent"/>
	<path d = "M 232.03 243.75 L 98.44 321.09" stroke="white" fill="transparent"/>
	<path d = "M 278.91 220.31 L 412.50 178.12" stroke="white" fill="transparent"/>
	<path d = "M 295.31 227.34 L 417.19 239.06 L 461.72 257.81" stroke="white" fill="transparent"/>
	<path d = "M 283.59 241.41 L 379.69 264.84 L 442.97 314.06" stroke="white" fill="transparent"/>
	<path d = "M 103.12 302.34 L 11.72 386.72 L 2.34 403.12 L 2.34 454.69 L 53.91 520.31 L 135.94 574.22 L 203.91 595.31 L 321.09 597.66 L 389.06 588.28 L 442.97 560.16 L 468.75 522.66 L 475.78 405.47 L 433.59 349.22 L 400.78 325.78 L 370.31 314.06" stroke="white" fill="transparent"/>
</svg>