<?xml version="1.0" encoding="UTF-8" standalone="no"?>
<!--Created with ndjsontosvg (https:https://github.com/thompson318/ndjsontosvg) 
	from the simplified Google quickdraw data set. key_id = 5837288430895104-->
<svg width="600" height="600"
	xmlns="http://www.w3.org/2000/svg">
	xmlns:ndjsontosvg="https://github.com/thompson318/ndjsontosvg"
	xmlns:quickdraw="https://quickdraw.withgoogle.com/data"
	xmlns:scikit-surgery="https://doi.org/10.1007/s11548-020-02180-5">

	<rect width="100%" height="100%" fill="black" />
	<path d = "M 382.03 84.38 L 393.75 65.62 L 450.00 35.16 L 510.94 28.12 L 562.50 42.19" stroke="white" fill="transparent"/>
	<path d = "M 367.97 75.00 L 349.22 44.53 L 349.22 28.12 L 367.97 21.09 L 417.19 42.19" stroke="white" fill="transparent"/>
	<path d = "M 501.56 23.44 L 513.28 7.03 L 548.44 0.00 L 555.47 11.72 L 548.44 46.88" stroke="white" fill="transparent"/>
	<path d = "M 370.31 93.75 L 386.72 171.09 L 407.81 196.88 L 450.00 222.66 L 499.22 229.69 L 548.44 206.25 L 574.22 180.47 L 597.66 138.28 L 595.31 98.44 L 585.94 84.38 L 557.81 53.91 L 536.72 53.91" stroke="white" fill="transparent"/>
	<path d = "M 447.66 138.28 L 450.00 142.97 L 468.75 107.81 L 487.50 119.53 L 503.91 142.97 L 461.72 145.31 L 464.06 138.28" stroke="white" fill="transparent"/>
	<path d = "M 471.09 145.31 L 466.41 185.16 L 450.00 192.19 L 442.97 189.84 L 452.34 180.47" stroke="white" fill="transparent"/>
	<path d = "M 503.91 157.03 L 501.56 180.47 L 506.25 187.50 L 522.66 192.19 L 539.06 180.47" stroke="white" fill="transparent"/>
	<path d = "M 332.81 93.75 L 283.59 79.69 L 229.69 82.03 L 164.06 103.12 L 98.44 138.28 L 49.22 196.88 L 44.53 227.34 L 53.91 269.53 L 82.03 304.69 L 133.59 330.47 L 178.12 330.47 L 222.66 318.75 L 300.00 290.62 L 431.25 210.94" stroke="white" fill="transparent"/>
	<path d = "M 135.94 121.88 L 121.88 161.72 L 121.88 206.25 L 133.59 241.41 L 161.72 264.84" stroke="white" fill="transparent"/>
	<path d = "M 222.66 103.12 L 210.94 150.00 L 210.94 215.62 L 253.12 264.84" stroke="white" fill="transparent"/>
	<path d = "M 295.31 91.41 L 283.59 107.81 L 276.56 140.62 L 307.03 255.47" stroke="white" fill="transparent"/>
	<path d = "M 332.81 121.88 L 330.47 117.19 L 323.44 128.91 L 323.44 140.62 L 335.16 185.16 L 351.56 203.91" stroke="white" fill="transparent"/>
	<path d = "M 58.59 290.62 L 9.38 253.12 L 2.34 227.34 L 0.00 157.03 L 11.72 42.19 L 28.12 16.41" stroke="white" fill="transparent"/>
	<path d = "M 142.97 342.19 L 138.28 351.56 L 142.97 454.69 L 135.94 489.84 L 187.50 475.78 L 208.59 445.31 L 185.16 321.09" stroke="white" fill="transparent"/>
</svg>