<?xml version="1.0" encoding="UTF-8" standalone="no"?>
<!--Created with ndjsontosvg (https:https://github.com/thompson318/ndjsontosvg) 
	from the simplified Google quickdraw data set. key_id = 4847124913061888-->
<svg width="600" height="600"
	xmlns="http://www.w3.org/2000/svg">
	xmlns:ndjsontosvg="https://github.com/thompson318/ndjsontosvg"
	xmlns:quickdraw="https://quickdraw.withgoogle.com/data"
	xmlns:scikit-surgery="https://doi.org/10.1007/s11548-020-02180-5">

	<rect width="100%" height="100%" fill="black" />
	<path d = "M 227.34 133.59 L 203.91 140.62 L 171.09 166.41 L 138.28 210.94 L 107.81 267.19 L 98.44 342.19 L 105.47 358.59 L 121.88 365.62 L 145.31 363.28 L 189.84 332.81 L 220.31 302.34 L 241.41 253.12 L 243.75 201.56 L 234.38 161.72 L 203.91 140.62 L 159.38 135.94" stroke="white" fill="transparent"/>
	<path d = "M 229.69 164.06 L 489.84 107.81 L 536.72 105.47 L 569.53 112.50 L 597.66 140.62 L 592.97 168.75 L 564.84 201.56 L 539.06 217.97 L 475.78 239.06 L 391.41 257.81 L 342.19 260.16 L 246.09 236.72" stroke="white" fill="transparent"/>
	<path d = "M 271.88 253.12 L 274.22 379.69" stroke="white" fill="transparent"/>
	<path d = "M 309.38 234.38 L 307.03 349.22 L 314.06 377.34" stroke="white" fill="transparent"/>
	<path d = "M 539.06 220.31 L 543.75 262.50 L 539.06 339.84 L 553.12 379.69" stroke="white" fill="transparent"/>
	<path d = "M 571.88 196.88 L 590.62 377.34" stroke="white" fill="transparent"/>
	<path d = "M 309.38 217.97 L 300.00 234.38 L 300.00 276.56 L 311.72 300.00" stroke="white" fill="transparent"/>
	<path d = "M 323.44 166.41 L 323.44 227.34 L 337.50 262.50" stroke="white" fill="transparent"/>
	<path d = "M 382.03 135.94 L 377.34 215.62 L 382.03 236.72 L 391.41 243.75" stroke="white" fill="transparent"/>
	<path d = "M 447.66 105.47 L 440.62 182.81 L 445.31 210.94 L 461.72 232.03" stroke="white" fill="transparent"/>
	<path d = "M 501.56 124.22 L 499.22 185.16 L 508.59 210.94" stroke="white" fill="transparent"/>
	<path d = "M 546.09 121.88 L 539.06 180.47 L 550.78 220.31" stroke="white" fill="transparent"/>
	<path d = "M 541.41 138.28 L 541.41 171.09 L 555.47 227.34" stroke="white" fill="transparent"/>
	<path d = "M 276.56 175.78 L 271.88 234.38" stroke="white" fill="transparent"/>
	<path d = "M 248.44 201.56 L 253.12 248.44" stroke="white" fill="transparent"/>
	<path d = "M 262.50 187.50 L 260.16 210.94 L 269.53 236.72" stroke="white" fill="transparent"/>
	<path d = "M 260.16 229.69 L 307.03 234.38 L 543.75 232.03 L 536.72 220.31" stroke="white" fill="transparent"/>
	<path d = "M 250.78 227.34 L 426.56 196.88 L 564.84 185.16" stroke="white" fill="transparent"/>
	<path d = "M 288.28 201.56 L 461.72 161.72 L 574.22 145.31" stroke="white" fill="transparent"/>
	<path d = "M 255.47 189.84 L 410.16 157.03 L 550.78 138.28" stroke="white" fill="transparent"/>
	<path d = "M 267.19 173.44 L 349.22 142.97 L 529.69 110.16" stroke="white" fill="transparent"/>
	<path d = "M 133.59 257.81 L 126.56 262.50 L 131.25 281.25 L 133.59 269.53 L 128.91 278.91 L 135.94 278.91 L 147.66 257.81 L 140.62 250.78 L 126.56 260.16 L 124.22 283.59 L 138.28 283.59 L 140.62 269.53 L 126.56 264.84 L 119.53 285.94 L 128.91 285.94 L 128.91 274.22 L 128.91 283.59" stroke="white" fill="transparent"/>
	<path d = "M 91.41 337.50 L 84.38 330.47 L 46.88 330.47 L 25.78 353.91 L 21.09 379.69" stroke="white" fill="transparent"/>
	<path d = "M 96.09 382.03 L 117.19 375.00 L 128.91 356.25" stroke="white" fill="transparent"/>
	<path d = "M 0.00 175.78 L 7.03 208.59 L 7.03 180.47 L 4.69 53.91 L 7.03 147.66 L 53.91 103.12 L 72.66 91.41 L 77.34 100.78 L 25.78 182.81 L 2.34 206.25 L 16.41 164.06 L 35.16 142.97 L 110.16 91.41 L 105.47 126.56 L 114.84 147.66 L 96.09 93.75 L 154.69 98.44 L 159.38 67.97 L 147.66 70.31 L 142.97 93.75 L 154.69 110.16 L 180.47 117.19 L 196.88 98.44 L 192.19 75.00 L 215.62 84.38 L 217.97 75.00 L 213.28 65.62 L 236.72 75.00 L 262.50 72.66 L 264.84 53.91 L 257.81 46.88 L 187.50 25.78 L 203.91 0.00" stroke="white" fill="transparent"/>
</svg>