<?xml version="1.0" encoding="UTF-8" standalone="no"?>
<!--Created with ndjsontosvg (https:https://github.com/thompson318/ndjsontosvg) 
	from the simplified Google quickdraw data set. key_id = 5861191052165120-->
<svg width="600" height="600"
	xmlns="http://www.w3.org/2000/svg">
	xmlns:ndjsontosvg="https://github.com/thompson318/ndjsontosvg"
	xmlns:quickdraw="https://quickdraw.withgoogle.com/data"
	xmlns:scikit-surgery="https://doi.org/10.1007/s11548-020-02180-5">

	<rect width="100%" height="100%" fill="black" />
	<path d = "M 138.28 39.84 L 75.00 39.84 L 42.19 60.94 L 11.72 96.09 L 14.06 140.62 L 46.88 173.44 L 105.47 194.53 L 175.78 196.88 L 203.91 171.09 L 215.62 133.59 L 206.25 98.44 L 178.12 70.31 L 131.25 49.22" stroke="white" fill="transparent"/>
	<path d = "M 131.25 49.22 L 189.84 2.34 L 217.97 65.62 L 217.97 84.38 L 199.22 89.06" stroke="white" fill="transparent"/>
	<path d = "M 37.50 42.19 L 23.44 23.44 L 0.00 11.72 L 21.09 82.03" stroke="white" fill="transparent"/>
	<path d = "M 51.56 121.88 L 46.88 86.72 L 58.59 72.66 L 114.84 75.00 L 126.56 79.69 L 131.25 96.09 L 185.16 103.12" stroke="white" fill="transparent"/>
	<path d = "M 119.53 161.72 L 119.53 150.00 L 135.94 138.28 L 154.69 138.28 L 168.75 154.69 L 185.16 154.69" stroke="white" fill="transparent"/>
	<path d = "M 234.38 98.44 L 480.47 105.47 L 588.28 133.59 L 595.31 140.62 L 597.66 159.38 L 557.81 206.25 L 522.66 227.34 L 461.72 248.44 L 407.81 257.81 L 300.00 253.12 L 194.53 206.25" stroke="white" fill="transparent"/>
</svg>