<?xml version="1.0" encoding="UTF-8" standalone="no"?>
<!--Created with ndjsontosvg (https:https://github.com/thompson318/ndjsontosvg) 
	from the simplified Google quickdraw data set. key_id = 5925007685320704-->
<svg width="600" height="600"
	xmlns="http://www.w3.org/2000/svg">
	xmlns:ndjsontosvg="https://github.com/thompson318/ndjsontosvg"
	xmlns:quickdraw="https://quickdraw.withgoogle.com/data"
	xmlns:scikit-surgery="https://doi.org/10.1007/s11548-020-02180-5">

	<rect width="100%" height="100%" fill="black" />
	<path d = "M 9.38 564.84 L 16.41 393.75 L 0.00 281.25 L 14.06 271.88 L 215.62 243.75 L 424.22 185.16 L 435.94 220.31 L 435.94 424.22 L 459.38 574.22 L 452.34 590.62 L 316.41 597.66 L 70.31 588.28 L 51.56 585.94 L 39.84 569.53" stroke="white" fill="transparent"/>
	<path d = "M 84.38 250.78 L 72.66 227.34 L 67.97 185.16 L 67.97 107.81 L 82.03 93.75 L 107.81 133.59 L 121.88 213.28 L 140.62 260.16 L 150.00 264.84" stroke="white" fill="transparent"/>
	<path d = "M 264.84 229.69 L 262.50 14.06 L 278.91 0.00 L 304.69 9.38 L 332.81 58.59 L 337.50 227.34 L 356.25 253.12" stroke="white" fill="transparent"/>
</svg>