<?xml version="1.0" encoding="UTF-8" standalone="no"?>
<!--Created with ndjsontosvg (https:https://github.com/thompson318/ndjsontosvg) 
	from the simplified Google quickdraw data set. key_id = 6025772131155968-->
<svg width="600" height="600"
	xmlns="http://www.w3.org/2000/svg">
	xmlns:ndjsontosvg="https://github.com/thompson318/ndjsontosvg"
	xmlns:quickdraw="https://quickdraw.withgoogle.com/data"
	xmlns:scikit-surgery="https://doi.org/10.1007/s11548-020-02180-5">

	<rect width="100%" height="100%" fill="black" />
	<path d = "M 28.12 431.25 L 0.00 255.47 L 0.00 189.84 L 9.38 154.69 L 46.88 140.62 L 107.81 133.59 L 330.47 145.31 L 351.56 152.34 L 360.94 164.06 L 393.75 288.28 L 393.75 367.97 L 372.66 433.59 L 335.16 424.22 L 192.19 424.22 L 37.50 433.59" stroke="white" fill="transparent"/>
	<path d = "M 407.81 386.72 L 480.47 372.66 L 522.66 377.34 L 548.44 398.44 L 569.53 438.28 L 597.66 445.31" stroke="white" fill="transparent"/>
	<path d = "M 79.69 217.97 L 67.97 220.31 L 67.97 236.72 L 77.34 241.41 L 84.38 234.38 L 89.06 222.66 L 58.59 222.66 L 49.22 239.06 L 56.25 250.78 L 72.66 250.78 L 105.47 227.34 L 96.09 220.31 L 82.03 222.66 L 72.66 239.06 L 79.69 241.41 L 79.69 227.34 L 63.28 225.00 L 70.31 232.03" stroke="white" fill="transparent"/>
	<path d = "M 180.47 199.22 L 159.38 225.00 L 166.41 227.34 L 171.09 215.62 L 161.72 234.38 L 168.75 246.09 L 182.81 250.78 L 187.50 239.06 L 178.12 234.38 L 164.06 239.06 L 161.72 248.44" stroke="white" fill="transparent"/>
	<path d = "M 72.66 138.28 L 63.28 100.78 L 77.34 60.94 L 107.81 28.12 L 164.06 0.00 L 222.66 21.09 L 274.22 75.00 L 290.62 117.19 L 292.97 161.72" stroke="white" fill="transparent"/>
</svg>