<?xml version="1.0" encoding="UTF-8" standalone="no"?>
<!--Created with ndjsontosvg (https:https://github.com/thompson318/ndjsontosvg) 
	from the simplified Google quickdraw data set. key_id = 5512520318058496-->
<svg width="600" height="600"
	xmlns="http://www.w3.org/2000/svg">
	xmlns:ndjsontosvg="https://github.com/thompson318/ndjsontosvg"
	xmlns:quickdraw="https://quickdraw.withgoogle.com/data"
	xmlns:scikit-surgery="https://doi.org/10.1007/s11548-020-02180-5">

	<rect width="100%" height="100%" fill="black" />
	<path d = "M 25.78 475.78 L 42.19 274.22 L 63.28 243.75 L 110.16 203.91 L 180.47 161.72 L 213.28 150.00 L 307.03 150.00 L 447.66 178.12 L 595.31 285.94 L 597.66 316.41 L 571.88 396.09 L 541.41 442.97 L 513.28 468.75 L 314.06 508.59 L 89.06 508.59 L 0.00 494.53" stroke="white" fill="transparent"/>
	<path d = "M 171.09 142.97 L 159.38 89.06 L 159.38 0.00 L 187.50 0.00 L 243.75 35.16 L 264.84 65.62 L 276.56 126.56" stroke="white" fill="transparent"/>
	<path d = "M 328.12 131.25 L 400.78 75.00 L 478.12 82.03 L 517.97 114.84 L 529.69 142.97 L 529.69 171.09 L 515.62 203.91" stroke="white" fill="transparent"/>
</svg>