<?xml version="1.0" encoding="UTF-8" standalone="no"?>
<!--Created with ndjsontosvg (https:https://github.com/thompson318/ndjsontosvg) 
	from the simplified Google quickdraw data set. key_id = 6473776332013568-->
<svg width="600" height="600"
	xmlns="http://www.w3.org/2000/svg">
	xmlns:ndjsontosvg="https://github.com/thompson318/ndjsontosvg"
	xmlns:quickdraw="https://quickdraw.withgoogle.com/data"
	xmlns:scikit-surgery="https://doi.org/10.1007/s11548-020-02180-5">

	<rect width="100%" height="100%" fill="black" />
	<path d = "M 2.34 363.28 L 65.62 372.66 L 166.41 367.97 L 506.25 386.72" stroke="white" fill="transparent"/>
	<path d = "M 0.00 360.94 L 7.03 278.91 L 30.47 232.03 L 56.25 201.56 L 77.34 185.16 L 121.88 166.41 L 203.91 154.69 L 384.38 194.53 L 478.12 225.00 L 489.84 236.72 L 494.53 250.78 L 499.22 377.34" stroke="white" fill="transparent"/>
	<path d = "M 79.69 175.78 L 98.44 119.53 L 171.09 119.53 L 459.38 159.38 L 473.44 166.41 L 478.12 215.62" stroke="white" fill="transparent"/>
	<path d = "M 135.94 112.50 L 152.34 11.72 L 166.41 2.34 L 210.94 0.00 L 246.09 23.44 L 255.47 53.91 L 288.28 21.09 L 309.38 18.75 L 321.09 23.44 L 332.81 46.88 L 332.81 70.31 L 318.75 133.59" stroke="white" fill="transparent"/>
	<path d = "M 494.53 257.81 L 595.31 255.47" stroke="white" fill="transparent"/>
	<path d = "M 492.19 276.56 L 597.66 271.88 L 595.31 255.47" stroke="white" fill="transparent"/>
</svg>