<?xml version="1.0" encoding="UTF-8" standalone="no"?>
<!--Created with ndjsontosvg (https:https://github.com/thompson318/ndjsontosvg) 
	from the simplified Google quickdraw data set. key_id = 5951084449234944-->
<svg width="600" height="600"
	xmlns="http://www.w3.org/2000/svg">
	xmlns:ndjsontosvg="https://github.com/thompson318/ndjsontosvg"
	xmlns:quickdraw="https://quickdraw.withgoogle.com/data"
	xmlns:scikit-surgery="https://doi.org/10.1007/s11548-020-02180-5">

	<rect width="100%" height="100%" fill="black" />
	<path d = "M 70.31 583.59 L 70.31 496.88 L 51.56 433.59 L 7.03 353.91 L 0.00 323.44 L 7.03 295.31 L 67.97 203.91 L 96.09 187.50 L 215.62 187.50 L 278.91 194.53 L 346.88 187.50 L 400.78 189.84 L 534.38 229.69 L 546.09 248.44 L 550.78 276.56 L 546.09 307.03 L 536.72 318.75 L 433.59 372.66 L 353.91 438.28 L 339.84 482.81 L 328.12 581.25 L 232.03 597.66 L 128.91 597.66 L 79.69 576.56" stroke="white" fill="transparent"/>
	<path d = "M 117.19 173.44 L 117.19 117.19 L 98.44 89.06 L 114.84 63.28 L 243.75 63.28 L 316.41 46.88 L 410.16 46.88 L 421.88 60.94 L 421.88 86.72 L 370.31 142.97 L 363.28 178.12" stroke="white" fill="transparent"/>
	<path d = "M 152.34 44.53 L 133.59 16.41 L 269.53 14.06 L 304.69 0.00" stroke="white" fill="transparent"/>
</svg>