<?xml version="1.0" encoding="UTF-8" standalone="no"?>
<!--Created with ndjsontosvg (https:https://github.com/thompson318/ndjsontosvg) 
	from the simplified Google quickdraw data set. key_id = 5279808101548032-->
<svg width="600" height="600"
	xmlns="http://www.w3.org/2000/svg">
	xmlns:ndjsontosvg="https://github.com/thompson318/ndjsontosvg"
	xmlns:quickdraw="https://quickdraw.withgoogle.com/data"
	xmlns:scikit-surgery="https://doi.org/10.1007/s11548-020-02180-5">

	<rect width="100%" height="100%" fill="black" />
	<path d = "M 46.88 215.62 L 23.44 363.28 L 25.78 428.91 L 44.53 452.34 L 79.69 461.72 L 232.03 466.41 L 393.75 459.38 L 466.41 442.97 L 499.22 424.22 L 520.31 393.75 L 529.69 339.84 L 527.34 269.53 L 513.28 232.03 L 480.47 180.47 L 428.91 140.62 L 393.75 131.25 L 358.59 133.59 L 4.69 199.22" stroke="white" fill="transparent"/>
	<path d = "M 150.00 187.50 L 147.66 135.94 L 164.06 79.69 L 194.53 18.75 L 220.31 0.00 L 264.84 9.38 L 342.19 63.28 L 372.66 98.44 L 372.66 138.28" stroke="white" fill="transparent"/>
	<path d = "M 541.41 220.31 L 532.03 234.38" stroke="white" fill="transparent"/>
	<path d = "M 527.34 234.38 L 595.31 225.00 L 581.25 246.09 L 508.59 241.41" stroke="white" fill="transparent"/>
	<path d = "M 124.22 166.41 L 121.88 124.22 L 150.00 58.59 L 171.09 37.50 L 185.16 35.16" stroke="white" fill="transparent"/>
	<path d = "M 175.78 21.09 L 159.38 39.84" stroke="white" fill="transparent"/>
</svg>