<?xml version="1.0" encoding="UTF-8" standalone="no"?>
<!--Created with ndjsontosvg (https:https://github.com/thompson318/ndjsontosvg) 
	from the simplified Google quickdraw data set. key_id = 5845420481708032-->
<svg width="600" height="600"
	xmlns="http://www.w3.org/2000/svg">
	xmlns:ndjsontosvg="https://github.com/thompson318/ndjsontosvg"
	xmlns:quickdraw="https://quickdraw.withgoogle.com/data"
	xmlns:scikit-surgery="https://doi.org/10.1007/s11548-020-02180-5">

	<rect width="100%" height="100%" fill="black" />
	<path d = "M 2.34 112.50 L 79.69 60.94 L 227.34 16.41 L 311.72 7.03 L 480.47 0.00 L 508.59 9.38 L 529.69 46.88 L 532.03 114.84 L 520.31 140.62" stroke="white" fill="transparent"/>
	<path d = "M 0.00 107.81 L 2.34 206.25 L 18.75 220.31 L 98.44 222.66 L 239.06 206.25 L 501.56 159.38" stroke="white" fill="transparent"/>
	<path d = "M 96.09 84.38 L 142.97 79.69 L 344.53 32.81 L 410.16 30.47 L 419.53 32.81 L 419.53 44.53 L 407.81 79.69 L 400.78 84.38 L 351.56 72.66 L 283.59 72.66 L 159.38 93.75 L 72.66 117.19 L 65.62 117.19 L 100.78 58.59" stroke="white" fill="transparent"/>
	<path d = "M 93.75 161.72 L 250.78 121.88 L 400.78 105.47 L 389.06 140.62 L 377.34 154.69 L 180.47 159.38 L 93.75 168.75" stroke="white" fill="transparent"/>
	<path d = "M 4.69 180.47 L 37.50 468.75" stroke="white" fill="transparent"/>
	<path d = "M 536.72 107.81 L 532.03 213.28 L 489.84 405.47" stroke="white" fill="transparent"/>
	<path d = "M 18.75 412.50 L 166.41 410.16 L 264.84 421.88 L 485.16 424.22" stroke="white" fill="transparent"/>
	<path d = "M 536.72 192.19 L 562.50 194.53 L 564.84 222.66 L 553.12 253.12 L 532.03 260.16" stroke="white" fill="transparent"/>
	<path d = "M 569.53 220.31 L 585.94 213.28 L 597.66 222.66 L 571.88 227.34" stroke="white" fill="transparent"/>
	<path d = "M 419.53 220.31 L 419.53 241.41 L 438.28 243.75 L 442.97 234.38 L 424.22 232.03" stroke="white" fill="transparent"/>
	<path d = "M 431.25 283.59 L 433.59 274.22 L 417.19 271.88 L 419.53 295.31" stroke="white" fill="transparent"/>
	<path d = "M 433.59 323.44 L 417.19 328.12 L 412.50 337.50" stroke="white" fill="transparent"/>
	<path d = "M 414.84 377.34 L 412.50 384.38 L 398.44 382.03" stroke="white" fill="transparent"/>
</svg>