<?xml version="1.0" encoding="UTF-8" standalone="no"?>
<!--Created with ndjsontosvg (https:https://github.com/thompson318/ndjsontosvg) 
	from the simplified Google quickdraw data set. key_id = 6085943398236160-->
<svg width="600" height="600"
	xmlns="http://www.w3.org/2000/svg">
	xmlns:ndjsontosvg="https://github.com/thompson318/ndjsontosvg"
	xmlns:quickdraw="https://quickdraw.withgoogle.com/data"
	xmlns:scikit-surgery="https://doi.org/10.1007/s11548-020-02180-5">

	<rect width="100%" height="100%" fill="black" />
	<path d = "M 150.00 16.41 L 157.03 35.16 L 152.34 185.16 L 159.38 199.22" stroke="white" fill="transparent"/>
	<path d = "M 330.47 2.34 L 316.41 0.00 L 309.38 11.72 L 292.97 210.94" stroke="white" fill="transparent"/>
	<path d = "M 171.09 201.56 L 51.56 274.22 L 25.78 307.03 L 11.72 351.56 L 0.00 419.53 L 2.34 471.09 L 23.44 513.28" stroke="white" fill="transparent"/>
	<path d = "M 316.41 182.81 L 316.41 210.94 L 346.88 269.53 L 342.19 311.72 L 274.22 433.59 L 217.97 506.25 L 157.03 534.38" stroke="white" fill="transparent"/>
	<path d = "M 42.19 503.91 L 11.72 546.09 L 2.34 583.59 L 2.34 595.31 L 14.06 597.66 L 39.84 590.62 L 84.38 517.97 L 91.41 468.75 L 79.69 468.75" stroke="white" fill="transparent"/>
	<path d = "M 16.41 562.50 L 46.88 571.88 L 86.72 595.31" stroke="white" fill="transparent"/>
</svg>