<?xml version="1.0" encoding="UTF-8" standalone="no"?>
<!--Created with ndjsontosvg (https:https://github.com/thompson318/ndjsontosvg) 
	from the simplified Google quickdraw data set. key_id = 6508225086095360-->
<svg width="600" height="600"
	xmlns="http://www.w3.org/2000/svg">
	xmlns:ndjsontosvg="https://github.com/thompson318/ndjsontosvg"
	xmlns:quickdraw="https://quickdraw.withgoogle.com/data"
	xmlns:scikit-surgery="https://doi.org/10.1007/s11548-020-02180-5">

	<rect width="100%" height="100%" fill="black" />
	<path d = "M 0.00 133.59 L 7.03 189.84 L 56.25 342.19 L 44.53 384.38 L 30.47 466.41 L 32.81 550.78 L 63.28 585.94 L 89.06 595.31 L 154.69 597.66 L 196.88 581.25 L 208.59 489.84 L 161.72 370.31 L 210.94 454.69 L 217.97 457.03 L 229.69 445.31 L 234.38 382.03 L 210.94 360.94 L 267.19 382.03 L 358.59 386.72 L 358.59 351.56 L 323.44 332.81 L 344.53 339.84 L 419.53 342.19 L 426.56 321.09 L 398.44 290.62 L 421.88 297.66 L 459.38 297.66 L 471.09 283.59 L 480.47 255.47 L 445.31 185.16 L 426.56 168.75 L 239.06 164.06 L 232.03 119.53 L 164.06 0.00" stroke="white" fill="transparent"/>
</svg>