<?xml version="1.0" encoding="UTF-8" standalone="no"?>
<!--Created with ndjsontosvg (https:https://github.com/thompson318/ndjsontosvg) 
	from the simplified Google quickdraw data set. key_id = 4563243945164800-->
<svg width="600" height="600"
	xmlns="http://www.w3.org/2000/svg">
	xmlns:ndjsontosvg="https://github.com/thompson318/ndjsontosvg"
	xmlns:quickdraw="https://quickdraw.withgoogle.com/data"
	xmlns:scikit-surgery="https://doi.org/10.1007/s11548-020-02180-5">

	<rect width="100%" height="100%" fill="black" />
	<path d = "M 4.69 314.06 L 2.34 60.94 L 21.09 21.09 L 56.25 0.00 L 117.19 4.69 L 150.00 37.50 L 171.09 112.50 L 173.44 255.47 L 171.09 203.91 L 187.50 121.88 L 196.88 103.12 L 239.06 96.09 L 267.19 119.53 L 276.56 150.00 L 278.91 260.16 L 278.91 210.94 L 309.38 131.25 L 323.44 117.19 L 360.94 107.81 L 377.34 112.50 L 391.41 135.94 L 396.09 229.69 L 396.09 182.81 L 421.88 145.31 L 433.59 140.62 L 475.78 138.28 L 494.53 157.03 L 503.91 189.84 L 503.91 236.72 L 496.88 213.28 L 517.97 185.16 L 532.03 175.78 L 569.53 173.44 L 597.66 217.97 L 595.31 267.19 L 571.88 295.31" stroke="white" fill="transparent"/>
</svg>