<?xml version="1.0" encoding="UTF-8" standalone="no"?>
<!--Created with ndjsontosvg (https:https://github.com/thompson318/ndjsontosvg) 
	from the simplified Google quickdraw data set. key_id = 6257493250408448-->
<svg width="600" height="600"
	xmlns="http://www.w3.org/2000/svg">
	xmlns:ndjsontosvg="https://github.com/thompson318/ndjsontosvg"
	xmlns:quickdraw="https://quickdraw.withgoogle.com/data"
	xmlns:scikit-surgery="https://doi.org/10.1007/s11548-020-02180-5">

	<rect width="100%" height="100%" fill="black" />
	<path d = "M 91.41 597.66 L 60.94 391.41 L 21.09 304.69 L 7.03 255.47 L 0.00 171.09 L 4.69 119.53 L 16.41 82.03 L 35.16 56.25 L 93.75 9.38 L 121.88 0.00 L 157.03 0.00 L 189.84 18.75 L 269.53 128.91 L 292.97 173.44 L 311.72 234.38 L 377.34 501.56" stroke="white" fill="transparent"/>
	<path d = "M 70.31 246.09 L 67.97 124.22 L 82.03 93.75 L 112.50 70.31 L 133.59 79.69 L 173.44 133.59 L 217.97 239.06" stroke="white" fill="transparent"/>
	<path d = "M 63.28 292.97 L 105.47 262.50 L 208.59 222.66 L 283.59 182.81" stroke="white" fill="transparent"/>
	<path d = "M 103.12 571.88 L 138.28 553.12 L 393.75 452.34" stroke="white" fill="transparent"/>
</svg>