<?xml version="1.0" encoding="UTF-8" standalone="no"?>
<!--Created with ndjsontosvg (https:https://github.com/thompson318/ndjsontosvg) 
	from the simplified Google quickdraw data set. key_id = 6111950297628672-->
<svg width="600" height="600"
	xmlns="http://www.w3.org/2000/svg">
	xmlns:ndjsontosvg="https://github.com/thompson318/ndjsontosvg"
	xmlns:quickdraw="https://quickdraw.withgoogle.com/data"
	xmlns:scikit-surgery="https://doi.org/10.1007/s11548-020-02180-5">

	<rect width="100%" height="100%" fill="black" />
	<path d = "M 203.91 30.47 L 98.44 171.09 L 51.56 253.12 L 21.09 325.78 L 0.00 428.91 L 4.69 506.25 L 28.12 548.44 L 86.72 585.94 L 161.72 597.66 L 213.28 585.94 L 248.44 569.53 L 297.66 522.66 L 332.81 471.09 L 363.28 414.84 L 435.94 154.69 L 492.19 21.09 L 494.53 0.00" stroke="white" fill="transparent"/>
	<path d = "M 67.97 389.06 L 126.56 389.06 L 229.69 414.84 L 260.16 471.09 L 175.78 532.03 L 147.66 539.06 L 124.22 510.94 L 82.03 433.59 L 56.25 367.97 L 65.62 365.62" stroke="white" fill="transparent"/>
	<path d = "M 77.34 393.75 L 70.31 375.00 L 63.28 384.38 L 63.28 426.56 L 86.72 482.81" stroke="white" fill="transparent"/>
</svg>