<?xml version="1.0" encoding="UTF-8" standalone="no"?>
<!--Created with ndjsontosvg (https:https://github.com/thompson318/ndjsontosvg) 
	from the simplified Google quickdraw data set. key_id = 5895755065720832-->
<svg width="600" height="600"
	xmlns="http://www.w3.org/2000/svg">
	xmlns:ndjsontosvg="https://github.com/thompson318/ndjsontosvg"
	xmlns:quickdraw="https://quickdraw.withgoogle.com/data"
	xmlns:scikit-surgery="https://doi.org/10.1007/s11548-020-02180-5">

	<rect width="100%" height="100%" fill="black" />
	<path d = "M 51.56 513.28 L 42.19 485.16 L 42.19 417.19 L 21.09 365.62 L 4.69 278.91 L 0.00 91.41 L 25.78 46.88 L 72.66 4.69 L 96.09 0.00 L 114.84 4.69 L 135.94 25.78 L 166.41 100.78 L 171.09 206.25 L 192.19 290.62 L 201.56 145.31 L 222.66 140.62 L 260.16 203.91 L 264.84 255.47 L 264.84 234.38 L 276.56 206.25 L 318.75 154.69 L 452.34 196.88 L 482.81 220.31 L 489.84 248.44 L 489.84 227.34 L 508.59 187.50 L 534.38 175.78 L 562.50 178.12 L 581.25 222.66 L 585.94 264.84 L 567.19 445.31 L 567.19 597.66" stroke="white" fill="transparent"/>
</svg>