<?xml version="1.0" encoding="UTF-8" standalone="no"?>
<!--Created with ndjsontosvg (https:https://github.com/thompson318/ndjsontosvg) 
	from the simplified Google quickdraw data set. key_id = 5213277514629120-->
<svg width="600" height="600"
	xmlns="http://www.w3.org/2000/svg">
	xmlns:ndjsontosvg="https://github.com/thompson318/ndjsontosvg"
	xmlns:quickdraw="https://quickdraw.withgoogle.com/data"
	xmlns:scikit-surgery="https://doi.org/10.1007/s11548-020-02180-5">

	<rect width="100%" height="100%" fill="black" />
	<path d = "M 42.19 536.72 L 49.22 548.44 L 63.28 553.12 L 105.47 555.47 L 119.53 539.06 L 119.53 525.00 L 103.12 515.62 L 63.28 513.28 L 37.50 525.00" stroke="white" fill="transparent"/>
	<path d = "M 2.34 506.25 L 14.06 555.47 L 42.19 583.59 L 70.31 595.31 L 96.09 597.66 L 133.59 576.56 L 161.72 527.34 L 157.03 576.56 L 166.41 588.28 L 182.81 585.94 L 196.88 569.53 L 210.94 525.00 L 215.62 529.69 L 215.62 564.84 L 225.00 576.56 L 239.06 581.25 L 250.78 574.22 L 257.81 529.69 L 269.53 527.34 L 276.56 534.38 L 276.56 567.19 L 295.31 576.56 L 307.03 567.19 L 321.09 525.00 L 328.12 525.00 L 346.88 541.41 L 358.59 536.72 L 379.69 478.12 L 356.25 457.03" stroke="white" fill="transparent"/>
	<path d = "M 180.47 553.12 L 173.44 564.84 L 182.81 560.16 L 171.09 543.75" stroke="white" fill="transparent"/>
	<path d = "M 220.31 550.78 L 239.06 557.81 L 246.09 543.75 L 236.72 543.75" stroke="white" fill="transparent"/>
	<path d = "M 290.62 546.09 L 300.00 553.12 L 304.69 546.09 L 295.31 543.75" stroke="white" fill="transparent"/>
	<path d = "M 337.50 515.62 L 351.56 525.00 L 330.47 529.69 L 328.12 525.00" stroke="white" fill="transparent"/>
	<path d = "M 0.00 506.25 L 18.75 482.81 L 49.22 475.78 L 37.50 454.69 L 37.50 438.28 L 67.97 405.47 L 154.69 398.44 L 346.88 414.84 L 283.59 194.53 L 276.56 147.66 L 281.25 82.03 L 269.53 65.62" stroke="white" fill="transparent"/>
	<path d = "M 53.91 410.16 L 49.22 360.94 L 28.12 300.00 L 14.06 232.03 L 2.34 11.72 L 14.06 0.00" stroke="white" fill="transparent"/>
</svg>