<?xml version="1.0" encoding="UTF-8" standalone="no"?>
<!--Created with ndjsontosvg (https:https://github.com/thompson318/ndjsontosvg) 
	from the simplified Google quickdraw data set. key_id = 5714186782900224-->
<svg width="600" height="600"
	xmlns="http://www.w3.org/2000/svg">
	xmlns:ndjsontosvg="https://github.com/thompson318/ndjsontosvg"
	xmlns:quickdraw="https://quickdraw.withgoogle.com/data"
	xmlns:scikit-surgery="https://doi.org/10.1007/s11548-020-02180-5">

	<rect width="100%" height="100%" fill="black" />
	<path d = "M 337.50 597.66 L 318.75 557.81 L 248.44 468.75 L 67.97 332.81 L 39.84 304.69 L 9.38 243.75 L 0.00 196.88 L 2.34 154.69 L 7.03 124.22 L 25.78 89.06 L 60.94 49.22 L 93.75 28.12 L 171.09 0.00 L 248.44 4.69 L 300.00 23.44 L 379.69 70.31 L 438.28 131.25 L 461.72 164.06 L 508.59 283.59 L 588.28 550.78" stroke="white" fill="transparent"/>
	<path d = "M 213.28 323.44 L 164.06 264.84 L 128.91 180.47 L 131.25 128.91 L 142.97 100.78 L 159.38 89.06 L 178.12 77.34 L 208.59 77.34 L 246.09 91.41 L 307.03 147.66 L 356.25 227.34" stroke="white" fill="transparent"/>
	<path d = "M 196.88 321.09 L 278.91 276.56 L 372.66 210.94" stroke="white" fill="transparent"/>
</svg>