<?xml version="1.0" encoding="UTF-8" standalone="no"?>
<!--Created with ndjsontosvg (https:https://github.com/thompson318/ndjsontosvg) 
	from the simplified Google quickdraw data set. key_id = 4831778168635392-->
<svg width="600" height="600"
	xmlns="http://www.w3.org/2000/svg">
	xmlns:ndjsontosvg="https://github.com/thompson318/ndjsontosvg"
	xmlns:quickdraw="https://quickdraw.withgoogle.com/data"
	xmlns:scikit-surgery="https://doi.org/10.1007/s11548-020-02180-5">

	<rect width="100%" height="100%" fill="black" />
	<path d = "M 142.97 278.91 L 131.25 234.38 L 114.84 70.31 L 166.41 37.50 L 236.72 32.81 L 288.28 32.81 L 314.06 42.19 L 332.81 161.72 L 332.81 220.31 L 316.41 274.22" stroke="white" fill="transparent"/>
	<path d = "M 121.88 290.62 L 75.00 307.03 L 32.81 351.56 L 4.69 405.47 L 2.34 487.50 L 30.47 534.38 L 65.62 567.19 L 135.94 590.62 L 196.88 597.66 L 292.97 595.31 L 370.31 557.81 L 454.69 494.53 L 473.44 445.31 L 475.78 353.91 L 452.34 316.41 L 393.75 292.97 L 250.78 281.25 L 225.00 292.97" stroke="white" fill="transparent"/>
	<path d = "M 154.69 398.44 L 140.62 414.84 L 128.91 457.03 L 128.91 478.12 L 145.31 501.56 L 225.00 541.41 L 255.47 543.75 L 302.34 529.69 L 335.16 506.25 L 351.56 468.75 L 353.91 386.72 L 330.47 346.88 L 257.81 332.81 L 203.91 337.50 L 178.12 372.66 L 168.75 407.81" stroke="white" fill="transparent"/>
	<path d = "M 246.09 35.16 L 241.41 4.69 L 250.78 0.00 L 344.53 23.44" stroke="white" fill="transparent"/>
</svg>