<?xml version="1.0" encoding="UTF-8" standalone="no"?>
<!--Created with ndjsontosvg (https:https://github.com/thompson318/ndjsontosvg) 
	from the simplified Google quickdraw data set. key_id = 5789409242775552-->
<svg width="600" height="600"
	xmlns="http://www.w3.org/2000/svg">
	xmlns:ndjsontosvg="https://github.com/thompson318/ndjsontosvg"
	xmlns:quickdraw="https://quickdraw.withgoogle.com/data"
	xmlns:scikit-surgery="https://doi.org/10.1007/s11548-020-02180-5">

	<rect width="100%" height="100%" fill="black" />
	<path d = "M 32.81 18.75 L 39.84 84.38 L 37.50 189.84 L 21.09 215.62 L 0.00 217.97 L 11.72 302.34 L 72.66 349.22 L 152.34 344.53 L 360.94 292.97 L 370.31 274.22 L 356.25 236.72 L 323.44 220.31 L 157.03 182.81 L 133.59 128.91 L 117.19 9.38" stroke="white" fill="transparent"/>
	<path d = "M 30.47 9.38 L 63.28 9.38" stroke="white" fill="transparent"/>
	<path d = "M 65.62 0.00 L 65.62 0.00" stroke="white" fill="transparent"/>
	<path d = "M 65.62 0.00 L 110.16 9.38" stroke="white" fill="transparent"/>
	<path d = "M 257.81 239.06 L 147.66 236.72 L 131.25 239.06 L 117.19 253.12 L 145.31 290.62 L 255.47 325.78 L 274.22 321.09 L 283.59 297.66 L 278.91 264.84 L 241.41 248.44" stroke="white" fill="transparent"/>
	<path d = "M 16.41 295.31 L 65.62 360.94 L 145.31 496.88 L 215.62 597.66 L 232.03 595.31" stroke="white" fill="transparent"/>
	<path d = "M 370.31 255.47 L 389.06 360.94 L 386.72 417.19 L 372.66 489.84 L 356.25 515.62" stroke="white" fill="transparent"/>
</svg>