<?xml version="1.0" encoding="UTF-8" standalone="no"?>
<!--Created with ndjsontosvg (https:https://github.com/thompson318/ndjsontosvg) 
	from the simplified Google quickdraw data set. key_id = 5002653257957376-->
<svg width="600" height="600"
	xmlns="http://www.w3.org/2000/svg">
	xmlns:ndjsontosvg="https://github.com/thompson318/ndjsontosvg"
	xmlns:quickdraw="https://quickdraw.withgoogle.com/data"
	xmlns:scikit-surgery="https://doi.org/10.1007/s11548-020-02180-5">

	<rect width="100%" height="100%" fill="black" />
	<path d = "M 51.56 595.31 L 51.56 522.66 L 35.16 365.62 L 0.00 225.00 L 0.00 168.75 L 11.72 142.97 L 114.84 142.97 L 246.09 166.41 L 393.75 166.41 L 452.34 157.03 L 506.25 135.94 L 525.00 112.50 L 548.44 75.00 L 557.81 28.12 L 550.78 11.72 L 529.69 0.00 L 360.94 0.00 L 166.41 35.16 L 58.59 82.03 L 23.44 119.53 L 7.03 159.38" stroke="white" fill="transparent"/>
	<path d = "M 567.19 42.19 L 578.91 321.09 L 574.22 457.03 L 560.16 447.66 L 539.06 346.88 L 515.62 339.84 L 482.81 400.78 L 471.09 532.03 L 461.72 557.81 L 428.91 557.81 L 393.75 494.53 L 370.31 375.00 L 339.84 363.28 L 267.19 363.28 L 196.88 398.44 L 152.34 447.66 L 110.16 585.94 L 77.34 597.66 L 44.53 595.31 L 46.88 590.62" stroke="white" fill="transparent"/>
	<path d = "M 213.28 412.50 L 222.66 438.28 L 253.12 471.09 L 276.56 475.78 L 288.28 468.75 L 309.38 428.91 L 309.38 382.03 L 302.34 365.62" stroke="white" fill="transparent"/>
</svg>