<?xml version="1.0" encoding="UTF-8" standalone="no"?>
<!--Created with ndjsontosvg (https:https://github.com/thompson318/ndjsontosvg) 
	from the simplified Google quickdraw data set. key_id = 6160168825913344-->
<svg width="600" height="600"
	xmlns="http://www.w3.org/2000/svg">
	xmlns:ndjsontosvg="https://github.com/thompson318/ndjsontosvg"
	xmlns:quickdraw="https://quickdraw.withgoogle.com/data"
	xmlns:scikit-surgery="https://doi.org/10.1007/s11548-020-02180-5">

	<rect width="100%" height="100%" fill="black" />
	<path d = "M 77.34 412.50 L 79.69 447.66 L 100.78 478.12 L 124.22 489.84 L 171.09 485.16 L 185.16 464.06 L 206.25 384.38 L 208.59 210.94 L 410.16 210.94 L 410.16 246.09 L 393.75 349.22 L 398.44 473.44 L 407.81 499.22 L 433.59 522.66 L 485.16 522.66 L 510.94 510.94 L 539.06 475.78 L 560.16 426.56 L 597.66 283.59 L 583.59 154.69 L 550.78 14.06 L 386.72 0.00 L 278.91 9.38 L 110.16 7.03 L 7.03 25.78 L 0.00 42.19 L 11.72 84.38 L 14.06 217.97 L 46.88 375.00 L 60.94 389.06" stroke="white" fill="transparent"/>
</svg>