<?xml version="1.0" encoding="UTF-8" standalone="no"?>
<!--Created with ndjsontosvg (https:https://github.com/thompson318/ndjsontosvg) 
	from the simplified Google quickdraw data set. key_id = 5131680555728896-->
<svg width="600" height="600"
	xmlns="http://www.w3.org/2000/svg">
	xmlns:ndjsontosvg="https://github.com/thompson318/ndjsontosvg"
	xmlns:quickdraw="https://quickdraw.withgoogle.com/data"
	xmlns:scikit-surgery="https://doi.org/10.1007/s11548-020-02180-5">

	<rect width="100%" height="100%" fill="black" />
	<path d = "M 25.78 339.84 L 150.00 243.75 L 499.22 2.34 L 527.34 4.69 L 527.34 21.09 L 435.94 93.75 L 332.81 187.50 L 18.75 393.75 L 2.34 393.75 L 4.69 367.97 L 25.78 337.50 L 49.22 330.47" stroke="white" fill="transparent"/>
	<path d = "M 405.47 135.94 L 440.62 187.50 L 475.78 217.97" stroke="white" fill="transparent"/>
	<path d = "M 428.91 110.16 L 468.75 182.81 L 492.19 210.94" stroke="white" fill="transparent"/>
	<path d = "M 461.72 96.09 L 480.47 131.25 L 525.00 173.44" stroke="white" fill="transparent"/>
	<path d = "M 489.84 86.72 L 543.75 157.03" stroke="white" fill="transparent"/>
	<path d = "M 503.91 65.62 L 555.47 147.66" stroke="white" fill="transparent"/>
	<path d = "M 517.97 42.19 L 569.53 117.19" stroke="white" fill="transparent"/>
	<path d = "M 534.38 32.81 L 590.62 103.12" stroke="white" fill="transparent"/>
	<path d = "M 520.31 14.06 L 557.81 39.84 L 597.66 98.44" stroke="white" fill="transparent"/>
</svg>