<?xml version="1.0" encoding="UTF-8" standalone="no"?>
<!--Created with ndjsontosvg (https:https://github.com/thompson318/ndjsontosvg) 
	from the simplified Google quickdraw data set. key_id = 5784635688615936-->
<svg width="600" height="600"
	xmlns="http://www.w3.org/2000/svg">
	xmlns:ndjsontosvg="https://github.com/thompson318/ndjsontosvg"
	xmlns:quickdraw="https://quickdraw.withgoogle.com/data"
	xmlns:scikit-surgery="https://doi.org/10.1007/s11548-020-02180-5">

	<rect width="100%" height="100%" fill="black" />
	<path d = "M 42.19 70.31 L 42.19 70.31" stroke="white" fill="transparent"/>
	<path d = "M 28.12 51.56 L 42.19 75.00 L 42.19 112.50 L 28.12 147.66 L 2.34 180.47" stroke="white" fill="transparent"/>
	<path d = "M 46.88 119.53 L 18.75 157.03 L 0.00 243.75" stroke="white" fill="transparent"/>
	<path d = "M 9.38 161.72 L 2.34 201.56 L 7.03 236.72 L 16.41 260.16 L 32.81 276.56" stroke="white" fill="transparent"/>
	<path d = "M 18.75 246.09 L 37.50 285.94 L 107.81 323.44" stroke="white" fill="transparent"/>
	<path d = "M 4.69 285.94 L 44.53 297.66 L 142.97 304.69 L 217.97 295.31" stroke="white" fill="transparent"/>
	<path d = "M 82.03 307.03 L 110.16 314.06 L 164.06 314.06 L 297.66 304.69" stroke="white" fill="transparent"/>
	<path d = "M 351.56 255.47 L 328.12 271.88 L 264.84 290.62 L 210.94 300.00 L 171.09 297.66" stroke="white" fill="transparent"/>
	<path d = "M 330.47 253.12 L 300.00 276.56 L 274.22 283.59 L 241.41 290.62 L 196.88 285.94" stroke="white" fill="transparent"/>
	<path d = "M 400.78 0.00 L 375.00 44.53 L 360.94 105.47" stroke="white" fill="transparent"/>
	<path d = "M 370.31 84.38 L 372.66 180.47" stroke="white" fill="transparent"/>
	<path d = "M 367.97 140.62 L 377.34 239.06" stroke="white" fill="transparent"/>
	<path d = "M 356.25 164.06 L 370.31 281.25" stroke="white" fill="transparent"/>
	<path d = "M 356.25 185.16 L 400.78 351.56" stroke="white" fill="transparent"/>
	<path d = "M 367.97 241.41 L 417.19 428.91" stroke="white" fill="transparent"/>
	<path d = "M 391.41 328.12 L 403.12 485.16" stroke="white" fill="transparent"/>
	<path d = "M 405.47 344.53 L 419.53 510.94" stroke="white" fill="transparent"/>
	<path d = "M 417.19 360.94 L 421.88 452.34 L 450.00 597.66" stroke="white" fill="transparent"/>
	<path d = "M 257.81 508.59 L 264.84 515.62" stroke="white" fill="transparent"/>
	<path d = "M 410.16 454.69 L 285.94 471.09 L 210.94 496.88" stroke="white" fill="transparent"/>
	<path d = "M 349.22 454.69 L 206.25 485.16 L 63.28 496.88 L 53.91 489.84" stroke="white" fill="transparent"/>
	<path d = "M 82.03 515.62 L 32.81 344.53" stroke="white" fill="transparent"/>
	<path d = "M 65.62 447.66 L 46.88 330.47 L 9.38 194.53" stroke="white" fill="transparent"/>
</svg>