<?xml version="1.0" encoding="UTF-8" standalone="no"?>
<!--Created with ndjsontosvg (https:https://github.com/thompson318/ndjsontosvg) 
	from the simplified Google quickdraw data set. key_id = 5144360742027264-->
<svg width="600" height="600"
	xmlns="http://www.w3.org/2000/svg">
	xmlns:ndjsontosvg="https://github.com/thompson318/ndjsontosvg"
	xmlns:quickdraw="https://quickdraw.withgoogle.com/data"
	xmlns:scikit-surgery="https://doi.org/10.1007/s11548-020-02180-5">

	<rect width="100%" height="100%" fill="black" />
	<path d = "M 471.09 18.75 L 571.88 110.16" stroke="white" fill="transparent"/>
	<path d = "M 471.09 11.72 L 503.91 0.00 L 510.94 4.69 L 597.66 98.44 L 578.91 112.50" stroke="white" fill="transparent"/>
	<path d = "M 471.09 14.06 L 428.91 89.06 L 405.47 112.50 L 375.00 131.25 L 318.75 154.69 L 262.50 161.72 L 229.69 201.56" stroke="white" fill="transparent"/>
	<path d = "M 571.88 117.19 L 485.16 159.38 L 468.75 178.12 L 424.22 196.88 L 332.81 222.66 L 292.97 225.00 L 271.88 241.41 L 257.81 262.50" stroke="white" fill="transparent"/>
	<path d = "M 217.97 206.25 L 213.28 234.38" stroke="white" fill="transparent"/>
	<path d = "M 257.81 264.84 L 222.66 262.50" stroke="white" fill="transparent"/>
	<path d = "M 208.59 234.38 L 185.16 227.34 L 175.78 253.12 L 196.88 276.56 L 220.31 285.94 L 227.34 271.88 L 220.31 243.75 L 206.25 232.03 L 201.56 236.72" stroke="white" fill="transparent"/>
	<path d = "M 414.84 147.66 L 389.06 145.31 L 316.41 161.72 L 227.34 194.53 L 168.75 220.31 L 157.03 232.03 L 220.31 225.00 L 356.25 171.09 L 264.84 182.81 L 96.09 234.38 L 0.00 276.56 L 367.97 222.66 L 508.59 217.97 L 445.31 243.75 L 107.81 323.44 L 203.91 300.00 L 255.47 297.66 L 300.00 304.69" stroke="white" fill="transparent"/>
	<path d = "M 300.00 304.69 L 323.44 321.09 L 328.12 342.19 L 307.03 440.62" stroke="white" fill="transparent"/>
</svg>