<?xml version="1.0" encoding="UTF-8" standalone="no"?>
<!--Created with ndjsontosvg (https:https://github.com/thompson318/ndjsontosvg) 
	from the simplified Google quickdraw data set. key_id = 4822811036090368-->
<svg width="600" height="600"
	xmlns="http://www.w3.org/2000/svg">
	xmlns:ndjsontosvg="https://github.com/thompson318/ndjsontosvg"
	xmlns:quickdraw="https://quickdraw.withgoogle.com/data"
	xmlns:scikit-surgery="https://doi.org/10.1007/s11548-020-02180-5">

	<rect width="100%" height="100%" fill="black" />
	<path d = "M 51.56 110.16 L 44.53 339.84 L 0.00 510.94" stroke="white" fill="transparent"/>
	<path d = "M 86.72 126.56 L 105.47 182.81 L 110.16 234.38 L 103.12 367.97 L 82.03 457.03 L 53.91 506.25 L 25.78 597.66 L 25.78 574.22" stroke="white" fill="transparent"/>
	<path d = "M 91.41 114.84 L 121.88 133.59 L 142.97 203.91 L 157.03 128.91 L 157.03 178.12 L 189.84 110.16 L 192.19 131.25 L 182.81 39.84 L 171.09 23.44 L 138.28 0.00 L 79.69 35.16 L 86.72 16.41 L 110.16 7.03 L 110.16 21.09 L 39.84 192.19 L 39.84 210.94" stroke="white" fill="transparent"/>
	<path d = "M 63.28 342.19 L 53.91 342.19 L 56.25 351.56 L 79.69 391.41 L 89.06 445.31" stroke="white" fill="transparent"/>
	<path d = "M 58.59 239.06 L 126.56 360.94" stroke="white" fill="transparent"/>
</svg>