<?xml version="1.0" encoding="UTF-8" standalone="no"?>
<!--Created with ndjsontosvg (https:https://github.com/thompson318/ndjsontosvg) 
	from the simplified Google quickdraw data set. key_id = 5511392117391360-->
<svg width="600" height="600"
	xmlns="http://www.w3.org/2000/svg">
	xmlns:ndjsontosvg="https://github.com/thompson318/ndjsontosvg"
	xmlns:quickdraw="https://quickdraw.withgoogle.com/data"
	xmlns:scikit-surgery="https://doi.org/10.1007/s11548-020-02180-5">

	<rect width="100%" height="100%" fill="black" />
	<path d = "M 431.25 128.91 L 239.06 145.31 L 79.69 182.81 L 138.28 196.88 L 257.81 206.25 L 403.12 201.56 L 571.88 157.03 L 597.66 140.62 L 557.81 128.91 L 461.72 121.88 L 297.66 131.25 L 206.25 147.66 L 133.59 173.44 L 93.75 194.53 L 93.75 199.22 L 105.47 203.91 L 250.78 201.56 L 431.25 168.75 L 595.31 114.84 L 480.47 117.19 L 353.91 131.25 L 246.09 157.03 L 142.97 199.22 L 239.06 206.25 L 349.22 199.22 L 447.66 178.12 L 569.53 140.62 L 450.00 152.34 L 339.84 180.47 L 210.94 229.69 L 147.66 276.56 L 161.72 283.59 L 210.94 281.25 L 300.00 269.53 L 367.97 246.09 L 414.84 220.31 L 356.25 234.38 L 278.91 269.53 L 196.88 323.44 L 173.44 351.56 L 182.81 358.59 L 215.62 358.59 L 330.47 328.12 L 403.12 292.97 L 452.34 253.12 L 414.84 255.47 L 367.97 274.22 L 307.03 323.44 L 281.25 360.94 L 292.97 367.97 L 323.44 360.94 L 377.34 335.16 L 433.59 292.97 L 457.03 264.84 L 419.53 283.59 L 370.31 325.78 L 335.16 370.31 L 318.75 407.81 L 332.81 414.84 L 372.66 398.44 L 494.53 321.09 L 412.50 389.06 L 360.94 454.69 L 360.94 459.38 L 379.69 452.34 L 435.94 417.19 L 400.78 473.44 L 428.91 464.06 L 459.38 442.97 L 452.34 454.69 L 428.91 464.06 L 464.06 419.53 L 384.38 473.44 L 468.75 389.06 L 398.44 426.56 L 421.88 389.06 L 410.16 389.06 L 454.69 335.16 L 384.38 363.28 L 300.00 414.84 L 410.16 318.75 L 321.09 365.62 L 440.62 253.12 L 234.38 370.31 L 349.22 288.28 L 489.84 168.75 L 250.78 316.41 L 86.72 405.47 L 370.31 161.72 L 180.47 269.53 L 557.81 0.00 L 241.41 182.81 L 180.47 210.94 L 236.72 185.16 L 269.53 178.12 L 278.91 178.12 L 274.22 182.81 L 0.00 307.03 L 86.72 278.91 L 264.84 201.56 L 114.84 342.19 L 199.22 304.69 L 342.19 220.31 L 203.91 349.22 L 243.75 335.16 L 349.22 264.84 L 307.03 311.72 L 349.22 307.03 L 337.50 323.44 L 367.97 323.44" stroke="white" fill="transparent"/>
</svg>