<?xml version="1.0" encoding="UTF-8" standalone="no"?>
<!--Created with ndjsontosvg (https:https://github.com/thompson318/ndjsontosvg) 
	from the simplified Google quickdraw data set. key_id = 5686790679691264-->
<svg width="600" height="600"
	xmlns="http://www.w3.org/2000/svg">
	xmlns:ndjsontosvg="https://github.com/thompson318/ndjsontosvg"
	xmlns:quickdraw="https://quickdraw.withgoogle.com/data"
	xmlns:scikit-surgery="https://doi.org/10.1007/s11548-020-02180-5">

	<rect width="100%" height="100%" fill="black" />
	<path d = "M 496.88 89.06 L 236.72 11.72 L 164.06 0.00 L 114.84 0.00 L 67.97 9.38 L 44.53 21.09 L 14.06 51.56 L 0.00 89.06 L 4.69 107.81 L 46.88 131.25 L 103.12 150.00 L 253.12 182.81 L 384.38 189.84 L 459.38 189.84 L 464.06 161.72 L 445.31 140.62 L 396.09 112.50 L 248.44 75.00 L 154.69 79.69 L 77.34 114.84 L 51.56 140.62 L 51.56 166.41 L 60.94 180.47 L 79.69 199.22 L 112.50 213.28 L 248.44 246.09 L 356.25 248.44 L 375.00 243.75 L 372.66 236.72 L 335.16 208.59 L 304.69 196.88 L 278.91 199.22 L 210.94 239.06 L 147.66 302.34 L 147.66 330.47 L 185.16 356.25 L 307.03 386.72 L 283.59 370.31 L 246.09 360.94 L 201.56 356.25 L 152.34 386.72 L 117.19 428.91 L 114.84 447.66 L 131.25 459.38 L 220.31 475.78 L 187.50 487.50 L 168.75 508.59 L 171.09 527.34 L 213.28 543.75 L 196.88 560.16 L 196.88 588.28 L 203.91 597.66" stroke="white" fill="transparent"/>
</svg>