<?xml version="1.0" encoding="UTF-8" standalone="no"?>
<!--Created with ndjsontosvg (https:https://github.com/thompson318/ndjsontosvg) 
	from the simplified Google quickdraw data set. key_id = 6544845822754816-->
<svg width="600" height="600"
	xmlns="http://www.w3.org/2000/svg">
	xmlns:ndjsontosvg="https://github.com/thompson318/ndjsontosvg"
	xmlns:quickdraw="https://quickdraw.withgoogle.com/data"
	xmlns:scikit-surgery="https://doi.org/10.1007/s11548-020-02180-5">

	<rect width="100%" height="100%" fill="black" />
	<path d = "M 346.88 23.44 L 309.38 9.38 L 257.81 2.34 L 121.88 0.00 L 58.59 16.41 L 0.00 53.91 L 58.59 82.03 L 271.88 121.88 L 344.53 121.88 L 428.91 100.78 L 473.44 70.31 L 461.72 53.91 L 325.78 25.78 L 154.69 23.44 L 86.72 49.22 L 21.09 96.09 L 14.06 126.56 L 103.12 166.41 L 189.84 187.50 L 321.09 213.28 L 389.06 213.28 L 403.12 206.25 L 410.16 189.84 L 372.66 171.09 L 243.75 157.03 L 67.97 161.72 L 35.16 180.47 L 25.78 236.72 L 42.19 257.81 L 232.03 295.31 L 288.28 295.31 L 335.16 264.84 L 314.06 250.78 L 267.19 239.06 L 171.09 239.06 L 126.56 262.50 L 100.78 314.06 L 98.44 344.53 L 114.84 358.59 L 274.22 386.72 L 393.75 393.75 L 297.66 372.66 L 178.12 358.59 L 128.91 358.59 L 56.25 386.72 L 53.91 400.78 L 67.97 426.56 L 114.84 447.66 L 243.75 475.78 L 302.34 475.78 L 309.38 461.72 L 264.84 447.66 L 187.50 447.66 L 173.44 454.69 L 159.38 478.12 L 161.72 494.53 L 201.56 517.97 L 290.62 529.69 L 189.84 527.34 L 147.66 548.44 L 142.97 562.50 L 154.69 581.25 L 206.25 597.66 L 255.47 597.66 L 243.75 583.59 L 180.47 574.22 L 119.53 583.59" stroke="white" fill="transparent"/>
</svg>