<?xml version="1.0" encoding="UTF-8" standalone="no"?>
<!--Created with ndjsontosvg (https:https://github.com/thompson318/ndjsontosvg) 
	from the simplified Google quickdraw data set. key_id = 4645768604418048-->
<svg width="600" height="600"
	xmlns="http://www.w3.org/2000/svg">
	xmlns:ndjsontosvg="https://github.com/thompson318/ndjsontosvg"
	xmlns:quickdraw="https://quickdraw.withgoogle.com/data"
	xmlns:scikit-surgery="https://doi.org/10.1007/s11548-020-02180-5">

	<rect width="100%" height="100%" fill="black" />
	<path d = "M 236.72 0.00 L 150.00 0.00 L 96.09 7.03 L 49.22 25.78 L 37.50 42.19 L 37.50 65.62 L 58.59 96.09 L 84.38 100.78 L 152.34 93.75 L 318.75 56.25 L 421.88 67.97 L 440.62 65.62 L 466.41 44.53 L 450.00 35.16 L 398.44 30.47 L 173.44 39.84 L 9.38 25.78 L 0.00 35.16 L 4.69 42.19 L 72.66 72.66 L 187.50 100.78 L 328.12 112.50 L 459.38 105.47 L 534.38 86.72 L 574.22 65.62 L 480.47 67.97 L 353.91 82.03 L 271.88 103.12 L 187.50 142.97 L 194.53 150.00 L 213.28 154.69 L 267.19 159.38 L 386.72 145.31 L 316.41 164.06 L 314.06 171.09 L 321.09 175.78 L 349.22 175.78 L 316.41 194.53 L 290.62 217.97 L 290.62 236.72 L 309.38 243.75 L 372.66 208.59 L 349.22 234.38 L 339.84 253.12 L 344.53 271.88 L 363.28 297.66 L 386.72 300.00 L 431.25 278.91 L 365.62 330.47 L 337.50 410.16 L 337.50 431.25 L 370.31 433.59 L 358.59 457.03 L 358.59 478.12 L 377.34 487.50 L 412.50 475.78 L 367.97 522.66 L 367.97 546.09 L 384.38 557.81 L 393.75 555.47 L 410.16 508.59 L 403.12 508.59 L 391.41 520.31 L 367.97 557.81 L 365.62 574.22 L 375.00 597.66 L 386.72 581.25 L 384.38 562.50" stroke="white" fill="transparent"/>
</svg>