<?xml version="1.0" encoding="UTF-8" standalone="no"?>
<!--Created with ndjsontosvg (https:https://github.com/thompson318/ndjsontosvg) 
	from the simplified Google quickdraw data set. key_id = 5252941655048192-->
<svg width="600" height="600"
	xmlns="http://www.w3.org/2000/svg">
	xmlns:ndjsontosvg="https://github.com/thompson318/ndjsontosvg"
	xmlns:quickdraw="https://quickdraw.withgoogle.com/data"
	xmlns:scikit-surgery="https://doi.org/10.1007/s11548-020-02180-5">

	<rect width="100%" height="100%" fill="black" />
	<path d = "M 346.88 11.72 L 328.12 2.34 L 260.16 0.00 L 182.81 0.00 L 135.94 9.38 L 72.66 39.84 L 28.12 72.66 L 0.00 124.22 L 7.03 192.19 L 39.84 232.03 L 72.66 253.12 L 138.28 271.88 L 309.38 276.56 L 365.62 260.16 L 393.75 246.09 L 414.84 220.31 L 433.59 164.06 L 426.56 105.47 L 396.09 77.34 L 351.56 56.25 L 281.25 37.50 L 152.34 37.50 L 63.28 79.69 L 28.12 105.47 L 9.38 135.94 L 2.34 166.41 L 7.03 210.94 L 37.50 250.78 L 93.75 285.94 L 203.91 307.03 L 288.28 304.69 L 304.69 290.62 L 344.53 253.12 L 356.25 234.38 L 367.97 171.09 L 335.16 135.94 L 285.94 121.88 L 159.38 124.22 L 60.94 166.41 L 23.44 213.28 L 21.09 264.84 L 35.16 307.03 L 93.75 353.91 L 194.53 393.75 L 344.53 396.09 L 382.03 370.31 L 393.75 351.56 L 391.41 292.97 L 339.84 250.78 L 250.78 232.03 L 182.81 232.03 L 142.97 250.78 L 89.06 316.41 L 79.69 349.22 L 84.38 405.47 L 93.75 421.88 L 131.25 447.66 L 154.69 454.69 L 302.34 464.06 L 337.50 454.69 L 360.94 424.22 L 356.25 391.41 L 328.12 367.97 L 269.53 349.22 L 178.12 353.91 L 152.34 375.00 L 142.97 403.12 L 142.97 452.34 L 159.38 478.12 L 185.16 492.19 L 210.94 503.91 L 285.94 503.91 L 302.34 487.50 L 309.38 450.00 L 292.97 442.97 L 213.28 442.97 L 196.88 454.69 L 182.81 475.78 L 182.81 508.59 L 192.19 525.00 L 227.34 539.06 L 274.22 541.41 L 297.66 534.38 L 307.03 494.53 L 241.41 489.84 L 206.25 508.59 L 203.91 550.78 L 213.28 567.19 L 229.69 576.56 L 260.16 578.91 L 274.22 560.16 L 276.56 546.09 L 255.47 541.41 L 239.06 560.16 L 241.41 592.97 L 271.88 595.31 L 271.88 571.88" stroke="white" fill="transparent"/>
</svg>