<?xml version="1.0" encoding="UTF-8" standalone="no"?>
<!--Created with ndjsontosvg (https:https://github.com/thompson318/ndjsontosvg) 
	from the simplified Google quickdraw data set. key_id = 5350794649927680-->
<svg width="600" height="600"
	xmlns="http://www.w3.org/2000/svg">
	xmlns:ndjsontosvg="https://github.com/thompson318/ndjsontosvg"
	xmlns:quickdraw="https://quickdraw.withgoogle.com/data"
	xmlns:scikit-surgery="https://doi.org/10.1007/s11548-020-02180-5">

	<rect width="100%" height="100%" fill="black" />
	<path d = "M 529.69 119.53 L 39.84 210.94 L 253.12 161.72 L 349.22 154.69 L 461.72 159.38 L 508.59 166.41 L 494.53 173.44 L 264.84 203.91 L 119.53 246.09 L 396.09 241.41 L 597.66 262.50 L 386.72 278.91 L 121.88 325.78 L 84.38 325.78 L 72.66 318.75 L 147.66 285.94 L 435.94 234.38 L 513.28 210.94 L 550.78 185.16 L 529.69 168.75 L 487.50 159.38 L 196.88 135.94 L 124.22 121.88 L 131.25 117.19 L 194.53 110.16 L 428.91 107.81 L 553.12 93.75 L 365.62 103.12 L 0.00 157.03 L 173.44 147.66 L 520.31 168.75 L 30.47 229.69 L 192.19 217.97 L 316.41 217.97 L 421.88 227.34 L 480.47 246.09 L 255.47 262.50 L 147.66 283.59 L 264.84 264.84 L 342.19 264.84 L 384.38 271.88 L 93.75 356.25 L 222.66 346.88 L 290.62 351.56 L 147.66 400.78 L 262.50 414.84 L 271.88 421.88 L 262.50 424.22 L 173.44 435.94 L 297.66 459.38 L 187.50 496.88 L 269.53 529.69 L 154.69 548.44 L 267.19 536.72 L 208.59 529.69 L 203.91 522.66 L 295.31 471.09 L 217.97 487.50 L 192.19 485.16 L 215.62 457.03 L 278.91 421.88 L 309.38 393.75 L 297.66 386.72 L 213.28 375.00 L 367.97 325.78 L 196.88 318.75 L 145.31 304.69 L 201.56 264.84 L 349.22 189.84 L 384.38 161.72 L 236.72 159.38 L 178.12 133.59 L 405.47 79.69 L 138.28 65.62 L 274.22 89.06 L 372.66 121.88 L 192.19 100.78 L 105.47 79.69 L 175.78 60.94 L 330.47 39.84 L 100.78 30.47 L 210.94 37.50 L 267.19 32.81 L 292.97 23.44 L 295.31 16.41 L 285.94 11.72 L 159.38 0.00 L 342.19 7.03" stroke="white" fill="transparent"/>
</svg>