<?xml version="1.0" encoding="UTF-8" standalone="no"?>
<!--Created with ndjsontosvg (https:https://github.com/thompson318/ndjsontosvg) 
	from the simplified Google quickdraw data set. key_id = 6311567962406912-->
<svg width="600" height="600"
	xmlns="http://www.w3.org/2000/svg">
	xmlns:ndjsontosvg="https://github.com/thompson318/ndjsontosvg"
	xmlns:quickdraw="https://quickdraw.withgoogle.com/data"
	xmlns:scikit-surgery="https://doi.org/10.1007/s11548-020-02180-5">

	<rect width="100%" height="100%" fill="black" />
	<path d = "M 393.75 358.59 L 400.78 363.28 L 377.34 382.03 L 337.50 386.72 L 267.19 328.12 L 262.50 311.72 L 267.19 292.97 L 307.03 264.84 L 332.81 257.81 L 407.81 257.81 L 454.69 274.22 L 454.69 290.62 L 426.56 311.72 L 325.78 325.78 L 255.47 274.22 L 253.12 253.12 L 264.84 236.72 L 300.00 222.66 L 403.12 222.66 L 403.12 241.41 L 370.31 260.16 L 330.47 269.53 L 250.78 269.53 L 217.97 257.81 L 199.22 239.06 L 187.50 217.97 L 187.50 196.88 L 222.66 168.75 L 307.03 147.66 L 414.84 135.94 L 520.31 142.97 L 520.31 157.03 L 492.19 175.78 L 382.03 185.16 L 318.75 178.12 L 234.38 138.28 L 229.69 110.16 L 253.12 84.38 L 314.06 67.97 L 391.41 67.97 L 393.75 77.34 L 382.03 91.41 L 344.53 105.47 L 243.75 117.19 L 138.28 114.84 L 51.56 96.09 L 32.81 84.38 L 51.56 67.97 L 159.38 51.56 L 246.09 51.56 L 283.59 60.94 L 283.59 75.00 L 227.34 72.66 L 201.56 58.59 L 201.56 46.88 L 241.41 21.09 L 295.31 9.38 L 360.94 0.00 L 445.31 4.69 L 442.97 18.75 L 414.84 28.12 L 309.38 39.84 L 335.16 32.81 L 424.22 35.16 L 541.41 75.00 L 581.25 100.78 L 588.28 121.88 L 574.22 138.28 L 536.72 157.03 L 419.53 175.78 L 201.56 168.75 L 46.88 126.56 L 0.00 98.44 L 11.72 84.38 L 53.91 72.66 L 157.03 67.97 L 403.12 103.12 L 506.25 135.94 L 527.34 150.00 L 525.00 173.44 L 482.81 189.84 L 417.19 201.56 L 288.28 194.53 L 225.00 180.47 L 194.53 150.00 L 199.22 140.62 L 232.03 133.59 L 367.97 133.59 L 466.41 150.00 L 590.62 199.22 L 597.66 225.00 L 576.56 236.72 L 464.06 253.12 L 342.19 248.44 L 257.81 236.72 L 203.91 222.66 L 201.56 215.62 L 250.78 203.91 L 339.84 203.91 L 419.53 215.62 L 464.06 232.03 L 478.12 243.75 L 478.12 264.84 L 428.91 285.94 L 337.50 295.31 L 229.69 295.31 L 208.59 288.28 L 239.06 271.88 L 288.28 267.19 L 382.03 269.53 L 440.62 281.25 L 480.47 302.34 L 480.47 321.09 L 464.06 339.84 L 428.91 351.56" stroke="white" fill="transparent"/>
</svg>