<?xml version="1.0" encoding="UTF-8" standalone="no"?>
<!--Created with ndjsontosvg (https:https://github.com/thompson318/ndjsontosvg) 
	from the simplified Google quickdraw data set. key_id = 6519558816923648-->
<svg width="600" height="600"
	xmlns="http://www.w3.org/2000/svg">
	xmlns:ndjsontosvg="https://github.com/thompson318/ndjsontosvg"
	xmlns:quickdraw="https://quickdraw.withgoogle.com/data"
	xmlns:scikit-surgery="https://doi.org/10.1007/s11548-020-02180-5">

	<rect width="100%" height="100%" fill="black" />
	<path d = "M 534.38 492.19 L 485.16 487.50 L 398.44 445.31 L 367.97 414.84 L 353.91 367.97 L 356.25 297.66 L 375.00 255.47 L 459.38 225.00 L 503.91 234.38 L 539.06 260.16 L 571.88 309.38 L 581.25 351.56 L 583.59 419.53 L 569.53 447.66 L 546.09 471.09 L 522.66 480.47 L 503.91 471.09" stroke="white" fill="transparent"/>
	<path d = "M 0.00 424.22 L 39.84 391.41 L 60.94 339.84 L 65.62 295.31 L 51.56 250.78 L 82.03 255.47" stroke="white" fill="transparent"/>
	<path d = "M 25.78 412.50 L 98.44 398.44 L 142.97 365.62 L 157.03 330.47 L 157.03 290.62 L 121.88 274.22" stroke="white" fill="transparent"/>
	<path d = "M 145.31 271.88 L 152.34 255.47 L 157.03 196.88 L 309.38 189.84 L 480.47 131.25 L 515.62 138.28 L 578.91 225.00 L 597.66 271.88 L 597.66 321.09 L 588.28 344.53" stroke="white" fill="transparent"/>
	<path d = "M 140.62 377.34 L 276.56 372.66 L 351.56 379.69" stroke="white" fill="transparent"/>
	<path d = "M 255.47 185.16 L 264.84 60.94 L 257.81 0.00 L 375.00 7.03 L 442.97 18.75 L 447.66 60.94 L 438.28 124.22" stroke="white" fill="transparent"/>
	<path d = "M 318.75 60.94 L 304.69 67.97 L 295.31 119.53 L 330.47 135.94 L 351.56 128.91 L 342.19 86.72 L 309.38 72.66" stroke="white" fill="transparent"/>
</svg>