<?xml version="1.0" encoding="UTF-8" standalone="no"?>
<!--Created with ndjsontosvg (https:https://github.com/thompson318/ndjsontosvg) 
	from the simplified Google quickdraw data set. key_id = 4544002193883136-->
<svg width="600" height="600"
	xmlns="http://www.w3.org/2000/svg">
	xmlns:ndjsontosvg="https://github.com/thompson318/ndjsontosvg"
	xmlns:quickdraw="https://quickdraw.withgoogle.com/data"
	xmlns:scikit-surgery="https://doi.org/10.1007/s11548-020-02180-5">

	<rect width="100%" height="100%" fill="black" />
	<path d = "M 232.03 145.31 L 210.94 138.28 L 175.78 138.28 L 138.28 154.69 L 105.47 189.84 L 84.38 227.34 L 82.03 283.59 L 98.44 325.78 L 128.91 349.22 L 185.16 360.94 L 229.69 353.91 L 281.25 314.06 L 295.31 288.28 L 304.69 236.72 L 307.03 194.53 L 295.31 180.47 L 239.06 150.00 L 208.59 145.31" stroke="white" fill="transparent"/>
	<path d = "M 236.72 210.94 L 199.22 206.25 L 171.09 229.69 L 164.06 248.44 L 201.56 262.50 L 213.28 255.47 L 227.34 229.69 L 222.66 215.62 L 208.59 210.94" stroke="white" fill="transparent"/>
	<path d = "M 300.00 269.53 L 412.50 267.19" stroke="white" fill="transparent"/>
	<path d = "M 557.81 154.69 L 508.59 150.00 L 459.38 164.06 L 433.59 180.47 L 410.16 220.31 L 407.81 276.56 L 421.88 307.03 L 457.03 330.47 L 485.16 337.50 L 534.38 321.09 L 564.84 302.34 L 597.66 222.66 L 592.97 180.47 L 548.44 154.69 L 513.28 150.00" stroke="white" fill="transparent"/>
	<path d = "M 494.53 213.28 L 485.16 215.62 L 478.12 239.06 L 480.47 255.47 L 494.53 274.22 L 506.25 274.22 L 517.97 267.19 L 522.66 236.72 L 508.59 220.31 L 482.81 203.91" stroke="white" fill="transparent"/>
	<path d = "M 517.97 140.62 L 424.22 96.09" stroke="white" fill="transparent"/>
	<path d = "M 424.22 93.75 L 400.78 28.12 L 318.75 9.38 L 225.00 0.00 L 208.59 7.03 L 194.53 28.12 L 185.16 100.78" stroke="white" fill="transparent"/>
	<path d = "M 187.50 75.00 L 0.00 72.66" stroke="white" fill="transparent"/>
</svg>