<?xml version="1.0" encoding="UTF-8" standalone="no"?>
<!--Created with ndjsontosvg (https:https://github.com/thompson318/ndjsontosvg) 
	from the simplified Google quickdraw data set. key_id = 6394339364175872-->
<svg width="600" height="600"
	xmlns="http://www.w3.org/2000/svg">
	xmlns:ndjsontosvg="https://github.com/thompson318/ndjsontosvg"
	xmlns:quickdraw="https://quickdraw.withgoogle.com/data"
	xmlns:scikit-surgery="https://doi.org/10.1007/s11548-020-02180-5">

	<rect width="100%" height="100%" fill="black" />
	<path d = "M 175.78 452.34 L 192.19 438.28 L 189.84 426.56 L 171.09 412.50 L 150.00 410.16 L 100.78 419.53 L 58.59 445.31 L 28.12 478.12 L 18.75 499.22 L 21.09 534.38 L 42.19 564.84 L 91.41 592.97 L 114.84 597.66 L 164.06 592.97 L 227.34 560.16 L 271.88 520.31 L 278.91 489.84 L 243.75 454.69 L 175.78 419.53 L 133.59 417.19" stroke="white" fill="transparent"/>
	<path d = "M 433.59 442.97 L 424.22 428.91 L 407.81 428.91 L 367.97 450.00 L 335.16 487.50 L 325.78 517.97 L 330.47 534.38 L 360.94 576.56 L 389.06 585.94 L 426.56 578.91 L 457.03 560.16 L 473.44 529.69 L 459.38 461.72 L 440.62 426.56 L 417.19 407.81 L 377.34 407.81" stroke="white" fill="transparent"/>
	<path d = "M 241.41 473.44 L 396.09 466.41" stroke="white" fill="transparent"/>
	<path d = "M 46.88 445.31 L 9.38 438.28 L 2.34 428.91 L 7.03 346.88 L 25.78 307.03 L 39.84 285.94 L 70.31 269.53 L 192.19 267.19 L 213.28 128.91 L 229.69 117.19 L 255.47 114.84 L 335.16 117.19 L 386.72 131.25 L 407.81 164.06 L 389.06 239.06 L 386.72 267.19 L 487.50 271.88 L 475.78 435.94 L 466.41 442.97 L 428.91 440.62" stroke="white" fill="transparent"/>
	<path d = "M 292.97 119.53 L 309.38 37.50 L 309.38 4.69 L 267.19 2.34" stroke="white" fill="transparent"/>
</svg>