<?xml version="1.0" encoding="UTF-8" standalone="no"?>
<!--Created with ndjsontosvg (https:https://github.com/thompson318/ndjsontosvg) 
	from the simplified Google quickdraw data set. key_id = 5433299109412864-->
<svg width="600" height="600"
	xmlns="http://www.w3.org/2000/svg">
	xmlns:ndjsontosvg="https://github.com/thompson318/ndjsontosvg"
	xmlns:quickdraw="https://quickdraw.withgoogle.com/data"
	xmlns:scikit-surgery="https://doi.org/10.1007/s11548-020-02180-5">

	<rect width="100%" height="100%" fill="black" />
	<path d = "M 35.16 0.00 L 21.09 46.88 L 18.75 121.88 L 2.34 166.41 L 0.00 283.59 L 49.22 297.66 L 110.16 300.00 L 131.25 292.97 L 138.28 283.59 L 140.62 67.97 L 124.22 11.72 L 114.84 4.69 L 30.47 7.03" stroke="white" fill="transparent"/>
	<path d = "M 49.22 288.28 L 44.53 412.50 L 9.38 503.91 L 14.06 597.66" stroke="white" fill="transparent"/>
	<path d = "M 65.62 206.25 L 14.06 220.31 L 9.38 253.12 L 93.75 264.84 L 98.44 246.09 L 98.44 201.56 L 56.25 196.88" stroke="white" fill="transparent"/>
	<path d = "M 79.69 79.69 L 60.94 84.38 L 39.84 103.12 L 37.50 145.31 L 46.88 152.34 L 84.38 152.34 L 96.09 145.31 L 100.78 107.81 L 75.00 89.06" stroke="white" fill="transparent"/>
	<path d = "M 75.00 16.41 L 46.88 39.84" stroke="white" fill="transparent"/>
</svg>