<?xml version="1.0" encoding="UTF-8" standalone="no"?>
<!--Created with ndjsontosvg (https:https://github.com/thompson318/ndjsontosvg) 
	from the simplified Google quickdraw data set. key_id = 5845849106022400-->
<svg width="600" height="600"
	xmlns="http://www.w3.org/2000/svg">
	xmlns:ndjsontosvg="https://github.com/thompson318/ndjsontosvg"
	xmlns:quickdraw="https://quickdraw.withgoogle.com/data"
	xmlns:scikit-surgery="https://doi.org/10.1007/s11548-020-02180-5">

	<rect width="100%" height="100%" fill="black" />
	<path d = "M 140.62 0.00 L 138.28 77.34 L 121.88 194.53" stroke="white" fill="transparent"/>
	<path d = "M 124.22 189.84 L 28.12 189.84 L 18.75 196.88 L 7.03 330.47 L 0.00 595.31 L 185.16 592.97 L 182.81 187.50 L 128.91 185.16" stroke="white" fill="transparent"/>
	<path d = "M 89.06 232.03 L 70.31 243.75 L 70.31 285.94 L 75.00 292.97 L 96.09 295.31 L 119.53 283.59 L 124.22 248.44 L 112.50 234.38 L 93.75 229.69" stroke="white" fill="transparent"/>
	<path d = "M 100.78 351.56 L 67.97 365.62 L 60.94 386.72 L 65.62 410.16 L 98.44 414.84 L 121.88 396.09 L 133.59 358.59 L 100.78 353.91" stroke="white" fill="transparent"/>
	<path d = "M 105.47 466.41 L 75.00 475.78 L 51.56 506.25 L 42.19 534.38 L 44.53 546.09 L 53.91 548.44 L 96.09 543.75 L 128.91 522.66 L 133.59 506.25 L 128.91 482.81 L 98.44 468.75" stroke="white" fill="transparent"/>
</svg>