<?xml version="1.0" encoding="UTF-8" standalone="no"?>
<!--Created with ndjsontosvg (https:https://github.com/thompson318/ndjsontosvg) 
	from the simplified Google quickdraw data set. key_id = 6440102995689472-->
<svg width="600" height="600"
	xmlns="http://www.w3.org/2000/svg">
	xmlns:ndjsontosvg="https://github.com/thompson318/ndjsontosvg"
	xmlns:quickdraw="https://quickdraw.withgoogle.com/data"
	xmlns:scikit-surgery="https://doi.org/10.1007/s11548-020-02180-5">

	<rect width="100%" height="100%" fill="black" />
	<path d = "M 267.19 0.00 L 4.69 0.00 L 0.00 213.28 L 4.69 262.50 L 35.16 379.69 L 35.16 588.28 L 60.94 597.66 L 300.00 553.12 L 323.44 543.75 L 330.47 522.66 L 330.47 358.59 L 300.00 248.44 L 295.31 152.34 L 269.53 21.09" stroke="white" fill="transparent"/>
	<path d = "M 178.12 35.16 L 157.03 147.66 L 189.84 161.72 L 229.69 166.41 L 248.44 140.62 L 267.19 96.09 L 269.53 70.31 L 264.84 46.88 L 243.75 39.84 L 124.22 39.84 L 60.94 60.94 L 51.56 84.38 L 53.91 105.47 L 114.84 142.97 L 192.19 147.66 L 213.28 140.62 L 229.69 110.16 L 232.03 51.56" stroke="white" fill="transparent"/>
	<path d = "M 203.91 217.97 L 133.59 217.97 L 82.03 232.03 L 70.31 253.12 L 82.03 278.91 L 105.47 292.97 L 206.25 304.69 L 227.34 304.69 L 253.12 283.59 L 257.81 260.16 L 241.41 241.41 L 196.88 227.34" stroke="white" fill="transparent"/>
	<path d = "M 217.97 389.06 L 121.88 405.47 L 60.94 450.00 L 39.84 471.09 L 46.88 492.19 L 105.47 506.25 L 166.41 506.25 L 213.28 468.75 L 227.34 440.62 L 232.03 375.00" stroke="white" fill="transparent"/>
	<path d = "M 196.88 541.41 L 196.88 541.41" stroke="white" fill="transparent"/>
</svg>