<?xml version="1.0" encoding="UTF-8" standalone="no"?>
<!--Created with ndjsontosvg (https:https://github.com/thompson318/ndjsontosvg) 
	from the simplified Google quickdraw data set. key_id = 6504596006502400-->
<svg width="600" height="600"
	xmlns="http://www.w3.org/2000/svg">
	xmlns:ndjsontosvg="https://github.com/thompson318/ndjsontosvg"
	xmlns:quickdraw="https://quickdraw.withgoogle.com/data"
	xmlns:scikit-surgery="https://doi.org/10.1007/s11548-020-02180-5">

	<rect width="100%" height="100%" fill="black" />
	<path d = "M 229.69 0.00 L 91.41 16.41 L 28.12 46.88 L 11.72 67.97 L 2.34 91.41 L 0.00 182.81 L 14.06 241.41 L 63.28 344.53 L 103.12 468.75 L 206.25 588.28 L 222.66 595.31 L 255.47 597.66 L 292.97 576.56 L 344.53 532.03 L 372.66 492.19 L 384.38 442.97 L 389.06 309.38 L 330.47 164.06 L 321.09 98.44 L 206.25 7.03 L 185.16 7.03" stroke="white" fill="transparent"/>
	<path d = "M 182.81 157.03 L 124.22 166.41 L 96.09 187.50 L 93.75 246.09 L 114.84 274.22 L 135.94 281.25 L 168.75 281.25 L 194.53 264.84 L 208.59 246.09 L 213.28 206.25 L 194.53 175.78 L 126.56 147.66" stroke="white" fill="transparent"/>
	<path d = "M 189.84 328.12 L 166.41 323.44 L 161.72 351.56 L 171.09 370.31 L 199.22 389.06 L 236.72 389.06 L 246.09 375.00 L 243.75 346.88 L 229.69 335.16 L 166.41 321.09" stroke="white" fill="transparent"/>
	<path d = "M 229.69 471.09 L 213.28 454.69 L 199.22 454.69 L 180.47 489.84 L 185.16 527.34 L 201.56 553.12 L 220.31 557.81 L 262.50 557.81 L 288.28 534.38 L 290.62 517.97 L 236.72 466.41 L 182.81 459.38" stroke="white" fill="transparent"/>
</svg>