<?xml version="1.0" encoding="UTF-8" standalone="no"?>
<!--Created with ndjsontosvg (https:https://github.com/thompson318/ndjsontosvg) 
	from the simplified Google quickdraw data set. key_id = 6728083019137024-->
<svg width="600" height="600"
	xmlns="http://www.w3.org/2000/svg">
	xmlns:ndjsontosvg="https://github.com/thompson318/ndjsontosvg"
	xmlns:quickdraw="https://quickdraw.withgoogle.com/data"
	xmlns:scikit-surgery="https://doi.org/10.1007/s11548-020-02180-5">

	<rect width="100%" height="100%" fill="black" />
	<path d = "M 452.34 77.34 L 386.72 77.34 L 360.94 70.31" stroke="white" fill="transparent"/>
	<path d = "M 367.97 75.00 L 356.25 77.34 L 346.88 119.53 L 316.41 121.88 L 304.69 112.50 L 300.00 67.97 L 285.94 58.59 L 267.19 105.47 L 213.28 105.47 L 220.31 39.84 L 206.25 23.44 L 182.81 23.44 L 159.38 37.50 L 140.62 79.69 L 107.81 77.34 L 110.16 35.16 L 75.00 2.34 L 37.50 0.00 L 4.69 25.78 L 0.00 135.94 L 11.72 180.47 L 25.78 189.84 L 46.88 192.19 L 72.66 173.44 L 86.72 138.28 L 121.88 133.59 L 126.56 152.34 L 119.53 206.25 L 121.88 269.53 L 128.91 281.25 L 152.34 278.91" stroke="white" fill="transparent"/>
	<path d = "M 234.38 215.62 L 201.56 234.38 L 180.47 274.22 L 187.50 302.34 L 208.59 304.69 L 222.66 297.66 L 246.09 241.41 L 246.09 222.66 L 234.38 206.25" stroke="white" fill="transparent"/>
	<path d = "M 157.03 278.91 L 189.84 278.91" stroke="white" fill="transparent"/>
	<path d = "M 243.75 264.84 L 426.56 267.19 L 459.38 257.81" stroke="white" fill="transparent"/>
	<path d = "M 480.47 236.72 L 459.38 243.75 L 452.34 257.81 L 454.69 276.56 L 466.41 290.62 L 494.53 290.62 L 522.66 260.16 L 515.62 236.72 L 492.19 234.38 L 482.81 239.06" stroke="white" fill="transparent"/>
	<path d = "M 510.94 271.88 L 578.91 262.50 L 597.66 196.88 L 597.66 166.41 L 588.28 145.31 L 550.78 105.47 L 522.66 96.09" stroke="white" fill="transparent"/>
	<path d = "M 126.56 147.66 L 65.62 199.22 L 30.47 269.53 L 107.81 276.56" stroke="white" fill="transparent"/>
	<path d = "M 546.09 107.81 L 536.72 98.44 L 485.16 96.09" stroke="white" fill="transparent"/>
</svg>