<?xml version="1.0" encoding="UTF-8" standalone="no"?>
<!--Created with ndjsontosvg (https:https://github.com/thompson318/ndjsontosvg) 
	from the simplified Google quickdraw data set. key_id = 5381151680102400-->
<svg width="600" height="600"
	xmlns="http://www.w3.org/2000/svg">
	xmlns:ndjsontosvg="https://github.com/thompson318/ndjsontosvg"
	xmlns:quickdraw="https://quickdraw.withgoogle.com/data"
	xmlns:scikit-surgery="https://doi.org/10.1007/s11548-020-02180-5">

	<rect width="100%" height="100%" fill="black" />
	<path d = "M 98.44 0.00 L 110.16 0.00 L 117.19 9.38 L 110.16 21.09" stroke="white" fill="transparent"/>
	<path d = "M 96.09 25.78 L 117.19 30.47 L 119.53 16.41 L 96.09 21.09 L 100.78 28.12" stroke="white" fill="transparent"/>
	<path d = "M 100.78 28.12 L 110.16 53.91 L 51.56 70.31 L 39.84 112.50 L 39.84 161.72 L 9.38 208.59 L 0.00 248.44 L 25.78 239.06 L 105.47 229.69 L 344.53 222.66 L 496.88 208.59 L 569.53 220.31 L 583.59 175.78 L 597.66 46.88 L 161.72 82.03 L 112.50 56.25 L 126.56 51.56 L 131.25 39.84 L 119.53 28.12" stroke="white" fill="transparent"/>
	<path d = "M 135.94 145.31 L 159.38 206.25 L 175.78 232.03 L 192.19 241.41 L 225.00 236.72 L 232.03 229.69 L 229.69 199.22 L 206.25 161.72 L 166.41 135.94 L 82.03 128.91" stroke="white" fill="transparent"/>
	<path d = "M 363.28 196.88 L 309.38 166.41 L 260.16 161.72 L 241.41 168.75 L 215.62 217.97 L 217.97 234.38 L 229.69 250.78 L 260.16 257.81 L 321.09 250.78 L 358.59 203.91 L 342.19 194.53 L 304.69 187.50 L 253.12 192.19" stroke="white" fill="transparent"/>
</svg>