<?xml version="1.0" encoding="UTF-8" standalone="no"?>
<!--Created with ndjsontosvg (https:https://github.com/thompson318/ndjsontosvg) 
	from the simplified Google quickdraw data set. key_id = 5410045036593152-->
<svg width="600" height="600"
	xmlns="http://www.w3.org/2000/svg">
	xmlns:ndjsontosvg="https://github.com/thompson318/ndjsontosvg"
	xmlns:quickdraw="https://quickdraw.withgoogle.com/data"
	xmlns:scikit-surgery="https://doi.org/10.1007/s11548-020-02180-5">

	<rect width="100%" height="100%" fill="black" />
	<path d = "M 9.38 30.47 L 0.00 133.59 L 7.03 154.69 L 21.09 166.41 L 79.69 175.78 L 96.09 164.06 L 103.12 142.97" stroke="white" fill="transparent"/>
	<path d = "M 100.78 46.88 L 93.75 14.06 L 82.03 0.00 L 18.75 30.47" stroke="white" fill="transparent"/>
	<path d = "M 100.78 23.44 L 236.72 9.38 L 316.41 11.72" stroke="white" fill="transparent"/>
	<path d = "M 405.47 23.44 L 405.47 23.44" stroke="white" fill="transparent"/>
	<path d = "M 405.47 23.44 L 482.81 32.81" stroke="white" fill="transparent"/>
	<path d = "M 96.09 175.78 L 290.62 194.53 L 597.66 208.59" stroke="white" fill="transparent"/>
	<path d = "M 309.38 7.03 L 410.16 28.12 L 487.50 35.16 L 555.47 53.91 L 574.22 84.38 L 583.59 196.88" stroke="white" fill="transparent"/>
	<path d = "M 206.25 189.84 L 178.12 201.56 L 164.06 225.00 L 171.09 255.47 L 194.53 264.84 L 220.31 250.78 L 234.38 232.03 L 234.38 201.56 L 222.66 185.16" stroke="white" fill="transparent"/>
	<path d = "M 281.25 192.19 L 278.91 255.47 L 295.31 269.53 L 311.72 269.53 L 342.19 241.41 L 353.91 217.97 L 351.56 206.25 L 337.50 192.19 L 314.06 182.81 L 300.00 185.16" stroke="white" fill="transparent"/>
	<path d = "M 447.66 199.22 L 435.94 241.41 L 440.62 269.53 L 447.66 276.56 L 473.44 278.91 L 496.88 262.50 L 503.91 239.06 L 496.88 210.94 L 478.12 194.53 L 454.69 189.84" stroke="white" fill="transparent"/>
</svg>