<?xml version="1.0" encoding="UTF-8" standalone="no"?>
<!--Created with ndjsontosvg (https:https://github.com/thompson318/ndjsontosvg) 
	from the simplified Google quickdraw data set. key_id = 5683147826003968-->
<svg width="600" height="600"
	xmlns="http://www.w3.org/2000/svg">
	xmlns:ndjsontosvg="https://github.com/thompson318/ndjsontosvg"
	xmlns:quickdraw="https://quickdraw.withgoogle.com/data"
	xmlns:scikit-surgery="https://doi.org/10.1007/s11548-020-02180-5">

	<rect width="100%" height="100%" fill="black" />
	<path d = "M 140.62 89.06 L 126.56 154.69 L 35.16 157.03 L 28.12 269.53 L 159.38 288.28 L 201.56 285.94 L 215.62 274.22 L 225.00 213.28 L 217.97 89.06 L 199.22 79.69 L 133.59 79.69" stroke="white" fill="transparent"/>
	<path d = "M 171.09 82.03 L 166.41 46.88 L 152.34 30.47 L 133.59 42.19 L 131.25 72.66 L 147.66 72.66 L 161.72 37.50 L 157.03 16.41 L 135.94 7.03 L 110.16 11.72 L 93.75 25.78 L 79.69 56.25 L 84.38 79.69 L 100.78 63.28 L 103.12 25.78 L 86.72 4.69 L 60.94 0.00 L 18.75 14.06 L 0.00 42.19 L 16.41 67.97 L 53.91 84.38" stroke="white" fill="transparent"/>
	<path d = "M 196.88 133.59 L 447.66 140.62 L 459.38 152.34 L 447.66 189.84 L 400.78 257.81 L 264.84 288.28 L 217.97 290.62" stroke="white" fill="transparent"/>
	<path d = "M 450.00 157.03 L 597.66 142.97" stroke="white" fill="transparent"/>
	<path d = "M 452.34 159.38 L 442.97 250.78 L 452.34 269.53 L 597.66 269.53" stroke="white" fill="transparent"/>
	<path d = "M 164.06 133.59 L 152.34 173.44 L 217.97 168.75 L 182.81 131.25 L 152.34 121.88" stroke="white" fill="transparent"/>
	<path d = "M 117.19 292.97 L 124.22 290.62 L 110.16 283.59 L 84.38 288.28 L 70.31 307.03 L 65.62 337.50 L 70.31 349.22 L 84.38 356.25 L 126.56 346.88 L 152.34 332.81 L 166.41 316.41 L 171.09 288.28 L 154.69 278.91" stroke="white" fill="transparent"/>
	<path d = "M 253.12 285.94 L 234.38 304.69 L 232.03 323.44 L 246.09 332.81 L 274.22 332.81 L 337.50 316.41 L 349.22 297.66 L 335.16 283.59" stroke="white" fill="transparent"/>
	<path d = "M 482.81 281.25 L 454.69 269.53 L 428.91 285.94" stroke="white" fill="transparent"/>
	<path d = "M 471.09 330.47 L 529.69 307.03 L 546.09 288.28 L 543.75 276.56" stroke="white" fill="transparent"/>
</svg>