<?xml version="1.0" encoding="UTF-8" standalone="no"?>
<!--Created with ndjsontosvg (https:https://github.com/thompson318/ndjsontosvg) 
	from the simplified Google quickdraw data set. key_id = 6157484400050176-->
<svg width="600" height="600"
	xmlns="http://www.w3.org/2000/svg">
	xmlns:ndjsontosvg="https://github.com/thompson318/ndjsontosvg"
	xmlns:quickdraw="https://quickdraw.withgoogle.com/data"
	xmlns:scikit-surgery="https://doi.org/10.1007/s11548-020-02180-5">

	<rect width="100%" height="100%" fill="black" />
	<path d = "M 171.09 199.22 L 178.12 225.00 L 178.12 288.28 L 154.69 379.69 L 117.19 471.09 L 44.53 562.50 L 16.41 583.59 L 0.00 585.94" stroke="white" fill="transparent"/>
	<path d = "M 375.00 173.44 L 356.25 278.91 L 356.25 382.03 L 377.34 442.97 L 414.84 499.22 L 466.41 529.69 L 517.97 550.78 L 588.28 567.19 L 597.66 560.16 L 574.22 539.06" stroke="white" fill="transparent"/>
	<path d = "M 393.75 147.66 L 372.66 180.47 L 344.53 194.53 L 285.94 201.56 L 260.16 187.50 L 257.81 168.75 L 264.84 161.72 L 269.53 173.44 L 241.41 210.94 L 187.50 215.62 L 154.69 196.88 L 154.69 180.47 L 166.41 173.44 L 171.09 180.47 L 161.72 194.53 L 147.66 203.91 L 128.91 206.25 L 91.41 124.22 L 53.91 138.28 L 32.81 93.75 L 114.84 49.22 L 98.44 70.31 L 49.22 89.06 L 42.19 79.69 L 51.56 60.94 L 117.19 16.41 L 187.50 0.00 L 210.94 16.41 L 220.31 35.16 L 285.94 23.44 L 353.91 21.09 L 351.56 32.81 L 335.16 39.84 L 403.12 37.50 L 417.19 46.88 L 405.47 70.31 L 487.50 82.03 L 466.41 105.47 L 499.22 110.16 L 494.53 140.62 L 454.69 152.34 L 421.88 173.44" stroke="white" fill="transparent"/>
</svg>