<?xml version="1.0" encoding="UTF-8" standalone="no"?>
<!--Created with ndjsontosvg (https:https://github.com/thompson318/ndjsontosvg) 
	from the simplified Google quickdraw data set. key_id = 6063212887801856-->
<svg width="600" height="600"
	xmlns="http://www.w3.org/2000/svg">
	xmlns:ndjsontosvg="https://github.com/thompson318/ndjsontosvg"
	xmlns:quickdraw="https://quickdraw.withgoogle.com/data"
	xmlns:scikit-surgery="https://doi.org/10.1007/s11548-020-02180-5">

	<rect width="100%" height="100%" fill="black" />
	<path d = "M 145.31 260.16 L 150.00 597.66 L 164.06 597.66 L 215.62 597.66 L 227.34 588.28 L 229.69 454.69 L 194.53 241.41 L 210.94 239.06 L 135.94 253.12 L 119.53 210.94 L 105.47 203.91 L 86.72 206.25 L 77.34 229.69 L 96.09 234.38 L 105.47 220.31 L 105.47 192.19 L 96.09 171.09 L 56.25 131.25 L 58.59 117.19 L 75.00 105.47 L 77.34 140.62 L 70.31 159.38 L 53.91 173.44 L 25.78 178.12 L 14.06 171.09 L 0.00 152.34 L 0.00 131.25 L 7.03 119.53 L 37.50 105.47 L 89.06 96.09 L 110.16 124.22 L 107.81 154.69 L 82.03 161.72 L 67.97 147.66 L 63.28 133.59 L 67.97 98.44 L 126.56 65.62 L 135.94 63.28 L 142.97 72.66 L 138.28 79.69 L 107.81 84.38 L 79.69 65.62 L 72.66 39.84 L 103.12 18.75 L 150.00 9.38 L 180.47 11.72 L 194.53 28.12 L 199.22 51.56 L 175.78 58.59 L 175.78 32.81 L 246.09 7.03 L 323.44 0.00 L 339.84 25.78 L 335.16 58.59 L 316.41 75.00 L 274.22 79.69 L 257.81 75.00 L 250.78 65.62 L 260.16 56.25 L 297.66 51.56 L 311.72 65.62 L 311.72 142.97 L 295.31 159.38 L 271.88 161.72 L 281.25 175.78 L 283.59 215.62 L 262.50 225.00 L 217.97 225.00 L 227.34 225.00 L 229.69 232.03 L 229.69 253.12 L 220.31 260.16 L 154.69 260.16" stroke="white" fill="transparent"/>
	<path d = "M 232.03 405.47 L 384.38 377.34 L 391.41 377.34 L 393.75 403.12 L 372.66 417.19 L 206.25 442.97" stroke="white" fill="transparent"/>
</svg>