<?xml version="1.0" encoding="UTF-8" standalone="no"?>
<!--Created with ndjsontosvg (https:https://github.com/thompson318/ndjsontosvg) 
	from the simplified Google quickdraw data set. key_id = 5767991314612224-->
<svg width="600" height="600"
	xmlns="http://www.w3.org/2000/svg">
	xmlns:ndjsontosvg="https://github.com/thompson318/ndjsontosvg"
	xmlns:quickdraw="https://quickdraw.withgoogle.com/data"
	xmlns:scikit-surgery="https://doi.org/10.1007/s11548-020-02180-5">

	<rect width="100%" height="100%" fill="black" />
	<path d = "M 173.44 581.25 L 208.59 478.12 L 217.97 344.53" stroke="white" fill="transparent"/>
	<path d = "M 389.06 597.66 L 311.72 442.97 L 292.97 353.91 L 403.12 386.72 L 426.56 391.41 L 440.62 384.38 L 447.66 356.25 L 440.62 328.12 L 412.50 300.00 L 379.69 288.28 L 410.16 271.88 L 440.62 203.91 L 360.94 100.78 L 342.19 126.56 L 344.53 79.69 L 314.06 42.19 L 243.75 4.69 L 199.22 0.00 L 189.84 4.69 L 180.47 28.12 L 180.47 53.91 L 189.84 67.97 L 166.41 51.56 L 138.28 46.88 L 86.72 49.22 L 63.28 60.94 L 114.84 187.50 L 2.34 215.62 L 2.34 302.34 L 65.62 328.12 L 128.91 337.50 L 114.84 349.22 L 107.81 386.72 L 126.56 403.12 L 164.06 403.12 L 189.84 398.44 L 236.72 370.31 L 248.44 344.53 L 257.81 292.97" stroke="white" fill="transparent"/>
</svg>