<?xml version="1.0" encoding="UTF-8" standalone="no"?>
<!--Created with ndjsontosvg (https:https://github.com/thompson318/ndjsontosvg) 
	from the simplified Google quickdraw data set. key_id = 5157382038487040-->
<svg width="600" height="600"
	xmlns="http://www.w3.org/2000/svg">
	xmlns:ndjsontosvg="https://github.com/thompson318/ndjsontosvg"
	xmlns:quickdraw="https://quickdraw.withgoogle.com/data"
	xmlns:scikit-surgery="https://doi.org/10.1007/s11548-020-02180-5">

	<rect width="100%" height="100%" fill="black" />
	<path d = "M 53.91 595.31 L 103.12 597.66 L 128.91 576.56 L 131.25 515.62 L 147.66 403.12 L 168.75 346.88 L 199.22 297.66" stroke="white" fill="transparent"/>
	<path d = "M 257.81 576.56 L 243.75 564.84 L 239.06 525.00 L 239.06 335.16 L 243.75 278.91 L 236.72 262.50" stroke="white" fill="transparent"/>
	<path d = "M 164.06 311.72 L 147.66 316.41 L 60.94 316.41 L 9.38 276.56 L 2.34 241.41 L 46.88 239.06 L 16.41 180.47 L 2.34 119.53 L 7.03 77.34 L 49.22 72.66 L 77.34 82.03 L 79.69 37.50 L 100.78 14.06 L 126.56 7.03 L 203.91 0.00 L 246.09 23.44 L 243.75 14.06 L 262.50 4.69 L 304.69 2.34 L 337.50 16.41 L 363.28 42.19 L 382.03 82.03 L 382.03 110.16 L 424.22 124.22 L 431.25 175.78 L 400.78 229.69 L 377.34 248.44 L 417.19 290.62 L 414.84 309.38 L 407.81 321.09 L 351.56 337.50 L 274.22 330.47" stroke="white" fill="transparent"/>
	<path d = "M 65.62 239.06 L 100.78 229.69 L 128.91 250.78 L 126.56 264.84 L 105.47 267.19 L 89.06 250.78" stroke="white" fill="transparent"/>
	<path d = "M 114.84 135.94 L 140.62 131.25 L 152.34 142.97 L 154.69 159.38 L 147.66 168.75 L 126.56 173.44" stroke="white" fill="transparent"/>
	<path d = "M 246.09 67.97 L 257.81 65.62" stroke="white" fill="transparent"/>
</svg>