<?xml version="1.0" encoding="UTF-8" standalone="no"?>
<!--Created with ndjsontosvg (https:https://github.com/thompson318/ndjsontosvg) 
	from the simplified Google quickdraw data set. key_id = 5630338485190656-->
<svg width="600" height="600"
	xmlns="http://www.w3.org/2000/svg">
	xmlns:ndjsontosvg="https://github.com/thompson318/ndjsontosvg"
	xmlns:quickdraw="https://quickdraw.withgoogle.com/data"
	xmlns:scikit-surgery="https://doi.org/10.1007/s11548-020-02180-5">

	<rect width="100%" height="100%" fill="black" />
	<path d = "M 96.09 37.50 L 49.22 35.16 L 14.06 67.97 L 0.00 98.44 L 0.00 114.84 L 23.44 131.25 L 53.91 138.28 L 93.75 131.25 L 128.91 112.50 L 150.00 91.41 L 164.06 46.88 L 166.41 4.69 L 135.94 0.00 L 86.72 16.41 L 58.59 51.56" stroke="white" fill="transparent"/>
	<path d = "M 161.72 51.56 L 194.53 51.56 L 328.12 23.44 L 433.59 23.44 L 501.56 39.84 L 515.62 58.59 L 513.28 67.97 L 421.88 107.81 L 379.69 110.16 L 309.38 128.91 L 178.12 131.25 L 119.53 119.53" stroke="white" fill="transparent"/>
	<path d = "M 173.44 46.88 L 222.66 42.19 L 321.09 16.41 L 597.66 9.38" stroke="white" fill="transparent"/>
</svg>