<?xml version="1.0" encoding="UTF-8" standalone="no"?>
<!--Created with ndjsontosvg (https:https://github.com/thompson318/ndjsontosvg) 
	from the simplified Google quickdraw data set. key_id = 5006071888347136-->
<svg width="600" height="600"
	xmlns="http://www.w3.org/2000/svg">
	xmlns:ndjsontosvg="https://github.com/thompson318/ndjsontosvg"
	xmlns:quickdraw="https://quickdraw.withgoogle.com/data"
	xmlns:scikit-surgery="https://doi.org/10.1007/s11548-020-02180-5">

	<rect width="100%" height="100%" fill="black" />
	<path d = "M 271.88 110.16 L 103.12 154.69 L 18.75 196.88 L 4.69 208.59 L 0.00 229.69 L 32.81 243.75 L 91.41 250.78 L 360.94 248.44" stroke="white" fill="transparent"/>
	<path d = "M 253.12 110.16 L 384.38 128.91 L 466.41 128.91" stroke="white" fill="transparent"/>
	<path d = "M 210.94 124.22 L 203.91 168.75 L 203.91 243.75" stroke="white" fill="transparent"/>
	<path d = "M 367.97 257.81 L 485.16 253.12 L 496.88 248.44" stroke="white" fill="transparent"/>
	<path d = "M 466.41 133.59 L 461.72 236.72 L 473.44 243.75" stroke="white" fill="transparent"/>
	<path d = "M 459.38 114.84 L 471.09 44.53 L 487.50 11.72 L 515.62 0.00 L 560.16 0.00 L 583.59 7.03 L 597.66 28.12" stroke="white" fill="transparent"/>
	<path d = "M 466.41 145.31 L 457.03 210.94 L 461.72 290.62 L 468.75 300.00 L 501.56 300.00 L 543.75 269.53 L 569.53 199.22 L 569.53 14.06" stroke="white" fill="transparent"/>
	<path d = "M 527.34 30.47 L 503.91 49.22 L 466.41 119.53 L 464.06 142.97 L 464.06 185.16 L 489.84 217.97 L 529.69 222.66 L 550.78 201.56 L 557.81 96.09 L 543.75 58.59 L 525.00 53.91" stroke="white" fill="transparent"/>
	<path d = "M 220.31 215.62 L 267.19 217.97 L 360.94 203.91" stroke="white" fill="transparent"/>
	<path d = "M 391.41 182.81 L 412.50 189.84 L 375.00 215.62" stroke="white" fill="transparent"/>
	<path d = "M 391.41 171.09 L 232.03 171.09" stroke="white" fill="transparent"/>
	<path d = "M 281.25 147.66 L 236.72 173.44 L 222.66 201.56 L 262.50 213.28" stroke="white" fill="transparent"/>
</svg>