<?xml version="1.0" encoding="UTF-8" standalone="no"?>
<!--Created with ndjsontosvg (https:https://github.com/thompson318/ndjsontosvg) 
	from the simplified Google quickdraw data set. key_id = 6656592147644416-->
<svg width="600" height="600"
	xmlns="http://www.w3.org/2000/svg">
	xmlns:ndjsontosvg="https://github.com/thompson318/ndjsontosvg"
	xmlns:quickdraw="https://quickdraw.withgoogle.com/data"
	xmlns:scikit-surgery="https://doi.org/10.1007/s11548-020-02180-5">

	<rect width="100%" height="100%" fill="black" />
	<path d = "M 2.34 4.69 L 2.34 147.66 L 23.44 150.00 L 84.38 119.53 L 199.22 93.75 L 356.25 67.97 L 461.72 63.28 L 553.12 79.69 L 567.19 91.41 L 571.88 117.19 L 557.81 140.62 L 527.34 168.75 L 494.53 182.81 L 250.78 210.94 L 145.31 208.59" stroke="white" fill="transparent"/>
	<path d = "M 11.72 0.00 L 56.25 16.41 L 138.28 23.44 L 522.66 37.50 L 564.84 49.22 L 588.28 65.62 L 597.66 112.50 L 597.66 150.00 L 590.62 168.75 L 555.47 196.88 L 489.84 220.31 L 396.09 234.38 L 271.88 236.72 L 173.44 225.00 L 131.25 206.25" stroke="white" fill="transparent"/>
</svg>