<?xml version="1.0" encoding="UTF-8" standalone="no"?>
<!--Created with ndjsontosvg (https:https://github.com/thompson318/ndjsontosvg) 
	from the simplified Google quickdraw data set. key_id = 6082154205282304-->
<svg width="600" height="600"
	xmlns="http://www.w3.org/2000/svg">
	xmlns:ndjsontosvg="https://github.com/thompson318/ndjsontosvg"
	xmlns:quickdraw="https://quickdraw.withgoogle.com/data"
	xmlns:scikit-surgery="https://doi.org/10.1007/s11548-020-02180-5">

	<rect width="100%" height="100%" fill="black" />
	<path d = "M 281.25 2.34 L 236.72 0.00 L 203.91 11.72 L 194.53 32.81 L 189.84 65.62 L 196.88 75.00 L 217.97 79.69 L 241.41 70.31 L 264.84 39.84 L 267.19 28.12 L 236.72 7.03" stroke="white" fill="transparent"/>
	<path d = "M 187.50 14.06 L 82.03 21.09 L 4.69 49.22 L 0.00 72.66 L 18.75 96.09 L 25.78 180.47 L 39.84 206.25 L 349.22 203.91 L 421.88 196.88 L 595.31 206.25 L 595.31 159.38 L 452.34 175.78 L 445.31 168.75 L 332.81 168.75 L 110.16 157.03 L 84.38 128.91 L 86.72 89.06 L 152.34 42.19 L 246.09 46.88" stroke="white" fill="transparent"/>
</svg>