<?xml version="1.0" encoding="UTF-8" standalone="no"?>
<!--Created with ndjsontosvg (https:https://github.com/thompson318/ndjsontosvg) 
	from the simplified Google quickdraw data set. key_id = 6158128661921792-->
<svg width="600" height="600"
	xmlns="http://www.w3.org/2000/svg">
	xmlns:ndjsontosvg="https://github.com/thompson318/ndjsontosvg"
	xmlns:quickdraw="https://quickdraw.withgoogle.com/data"
	xmlns:scikit-surgery="https://doi.org/10.1007/s11548-020-02180-5">

	<rect width="100%" height="100%" fill="black" />
	<path d = "M 471.09 142.97 L 555.47 75.00 L 597.66 0.00 L 555.47 248.44 L 541.41 311.72 L 527.34 321.09 L 503.91 309.38 L 496.88 234.38 L 489.84 225.00 L 466.41 243.75 L 419.53 243.75 L 278.91 215.62 L 199.22 210.94 L 117.19 225.00 L 103.12 213.28 L 105.47 206.25 L 150.00 168.75 L 203.91 150.00 L 332.81 121.88 L 372.66 121.88 L 396.09 133.59 L 487.50 145.31 L 517.97 154.69" stroke="white" fill="transparent"/>
	<path d = "M 133.59 159.38 L 98.44 178.12 L 91.41 201.56 L 135.94 103.12" stroke="white" fill="transparent"/>
	<path d = "M 107.81 175.78 L 86.72 220.31 L 89.06 248.44 L 110.16 278.91 L 135.94 295.31 L 222.66 318.75 L 269.53 321.09 L 370.31 321.09 L 428.91 307.03 L 426.56 302.34 L 328.12 278.91 L 82.03 236.72" stroke="white" fill="transparent"/>
	<path d = "M 79.69 243.75 L 276.56 281.25 L 384.38 288.28" stroke="white" fill="transparent"/>
	<path d = "M 459.38 236.72 L 398.44 250.78 L 276.56 253.12 L 117.19 236.72" stroke="white" fill="transparent"/>
	<path d = "M 447.66 222.66 L 464.06 260.16 L 457.03 283.59 L 445.31 290.62 L 396.09 255.47 L 337.50 234.38 L 117.19 227.34" stroke="white" fill="transparent"/>
	<path d = "M 314.06 227.34 L 37.50 227.34" stroke="white" fill="transparent"/>
	<path d = "M 121.88 164.06 L 63.28 215.62 L 49.22 250.78 L 49.22 274.22 L 72.66 302.34 L 98.44 316.41 L 147.66 323.44 L 171.09 323.44 L 157.03 316.41" stroke="white" fill="transparent"/>
	<path d = "M 105.47 267.19 L 77.34 264.84 L 67.97 255.47" stroke="white" fill="transparent"/>
	<path d = "M 58.59 267.19 L 77.34 314.06 L 157.03 332.81 L 72.66 311.72 L 60.94 307.03 L 51.56 278.91 L 2.34 255.47 L 0.00 248.44 L 58.59 220.31 L 72.66 206.25 L 46.88 220.31 L 35.16 246.09 L 35.16 307.03 L 49.22 330.47 L 72.66 349.22 L 96.09 356.25 L 117.19 353.91 L 121.88 344.53 L 107.81 342.19 L 96.09 349.22 L 103.12 372.66 L 77.34 337.50 L 63.28 292.97 L 63.28 203.91" stroke="white" fill="transparent"/>
</svg>