<?xml version="1.0" encoding="UTF-8" standalone="no"?>
<!--Created with ndjsontosvg (https:https://github.com/thompson318/ndjsontosvg) 
	from the simplified Google quickdraw data set. key_id = 6624622457913344-->
<svg width="600" height="600"
	xmlns="http://www.w3.org/2000/svg">
	xmlns:ndjsontosvg="https://github.com/thompson318/ndjsontosvg"
	xmlns:quickdraw="https://quickdraw.withgoogle.com/data"
	xmlns:scikit-surgery="https://doi.org/10.1007/s11548-020-02180-5">

	<rect width="100%" height="100%" fill="black" />
	<path d = "M 597.66 239.06 L 592.97 77.34 L 581.25 63.28 L 541.41 60.94 L 421.88 82.03 L 417.19 142.97 L 428.91 227.34 L 424.22 234.38 L 110.16 243.75" stroke="white" fill="transparent"/>
	<path d = "M 410.16 117.19 L 410.16 117.19" stroke="white" fill="transparent"/>
	<path d = "M 410.16 234.38 L 407.81 185.16 L 367.97 0.00 L 292.97 0.00 L 215.62 14.06 L 213.28 98.44 L 222.66 225.00 L 201.56 239.06 L 180.47 239.06 L 178.12 234.38 L 178.12 131.25 L 147.66 18.75 L 131.25 16.41 L 75.00 37.50 L 0.00 77.34 L 18.75 246.09 L 30.47 248.44 L 178.12 222.66" stroke="white" fill="transparent"/>
	<path d = "M 522.66 117.19 L 536.72 112.50 L 541.41 140.62 L 527.34 152.34 L 506.25 138.28 L 501.56 110.16 L 510.94 96.09" stroke="white" fill="transparent"/>
	<path d = "M 583.59 227.34 L 508.59 243.75 L 344.53 257.81 L 49.22 257.81 L 7.03 248.44" stroke="white" fill="transparent"/>
	<path d = "M 241.41 262.50 L 281.25 290.62 L 283.59 323.44 L 241.41 323.44 L 225.00 309.38 L 222.66 260.16 L 229.69 253.12 L 255.47 253.12" stroke="white" fill="transparent"/>
	<path d = "M 330.47 239.06 L 356.25 239.06 L 386.72 260.16 L 405.47 283.59 L 403.12 314.06 L 370.31 318.75 L 337.50 292.97 L 335.16 267.19" stroke="white" fill="transparent"/>
	<path d = "M 499.22 239.06 L 550.78 236.72 L 578.91 253.12 L 592.97 281.25 L 585.94 300.00 L 529.69 304.69 L 515.62 297.66 L 496.88 281.25 L 492.19 243.75" stroke="white" fill="transparent"/>
</svg>