<?xml version="1.0" encoding="UTF-8" standalone="no"?>
<!--Created with ndjsontosvg (https:https://github.com/thompson318/ndjsontosvg) 
	from the simplified Google quickdraw data set. key_id = 6596082639306752-->
<svg width="600" height="600"
	xmlns="http://www.w3.org/2000/svg">
	xmlns:ndjsontosvg="https://github.com/thompson318/ndjsontosvg"
	xmlns:quickdraw="https://quickdraw.withgoogle.com/data"
	xmlns:scikit-surgery="https://doi.org/10.1007/s11548-020-02180-5">

	<rect width="100%" height="100%" fill="black" />
	<path d = "M 180.47 42.19 L 14.06 46.88 L 0.00 117.19 L 2.34 150.00 L 180.47 175.78 L 206.25 135.94 L 229.69 126.56 L 239.06 133.59 L 239.06 164.06 L 330.47 180.47 L 384.38 182.81 L 417.19 142.97 L 450.00 128.91 L 459.38 140.62 L 459.38 157.03 L 447.66 185.16 L 539.06 196.88 L 569.53 192.19 L 583.59 166.41 L 597.66 91.41 L 407.81 82.03 L 292.97 63.28 L 281.25 16.41 L 239.06 0.00 L 182.81 2.34 L 168.75 23.44 L 166.41 49.22" stroke="white" fill="transparent"/>
	<path d = "M 180.47 46.88 L 222.66 32.81 L 220.31 9.38" stroke="white" fill="transparent"/>
	<path d = "M 199.22 187.50 L 220.31 166.41 L 229.69 208.59 L 215.62 206.25 L 203.91 189.84" stroke="white" fill="transparent"/>
	<path d = "M 384.38 187.50 L 445.31 175.78 L 459.38 189.84 L 445.31 210.94 L 405.47 215.62 L 396.09 185.16 L 407.81 173.44" stroke="white" fill="transparent"/>
</svg>