<?xml version="1.0" encoding="UTF-8" standalone="no"?>
<!--Created with ndjsontosvg (https:https://github.com/thompson318/ndjsontosvg) 
	from the simplified Google quickdraw data set. key_id = 5558905746751488-->
<svg width="600" height="600"
	xmlns="http://www.w3.org/2000/svg">
	xmlns:ndjsontosvg="https://github.com/thompson318/ndjsontosvg"
	xmlns:quickdraw="https://quickdraw.withgoogle.com/data"
	xmlns:scikit-surgery="https://doi.org/10.1007/s11548-020-02180-5">

	<rect width="100%" height="100%" fill="black" />
	<path d = "M 325.78 53.91 L 206.25 39.84 L 187.50 42.19 L 140.62 70.31 L 93.75 119.53 L 75.00 150.00 L 18.75 278.91 L 0.00 304.69" stroke="white" fill="transparent"/>
	<path d = "M 18.75 300.00 L 91.41 253.12 L 121.88 243.75 L 147.66 250.78 L 178.12 302.34 L 253.12 300.00 L 274.22 257.81 L 300.00 243.75 L 314.06 246.09 L 372.66 281.25 L 386.72 260.16 L 391.41 232.03 L 386.72 133.59 L 393.75 67.97 L 379.69 60.94 L 332.81 56.25 L 501.56 0.00 L 520.31 0.00 L 539.06 23.44 L 597.66 248.44 L 447.66 283.59 L 391.41 278.91" stroke="white" fill="transparent"/>
	<path d = "M 114.84 250.78 L 96.09 262.50 L 79.69 304.69 L 82.03 330.47 L 103.12 346.88 L 157.03 349.22 L 175.78 342.19 L 199.22 307.03 L 196.88 290.62 L 168.75 262.50 L 138.28 260.16 L 124.22 278.91" stroke="white" fill="transparent"/>
	<path d = "M 325.78 288.28 L 314.06 274.22 L 300.00 271.88 L 283.59 295.31 L 283.59 360.94 L 307.03 370.31 L 339.84 370.31 L 365.62 353.91 L 382.03 328.12 L 379.69 281.25 L 360.94 262.50 L 295.31 257.81" stroke="white" fill="transparent"/>
	<path d = "M 213.28 58.59 L 199.22 147.66 L 206.25 161.72 L 337.50 161.72 L 379.69 147.66 L 386.72 126.56" stroke="white" fill="transparent"/>
</svg>