<?xml version="1.0" encoding="UTF-8" standalone="no"?>
<!--Created with ndjsontosvg (https:https://github.com/thompson318/ndjsontosvg) 
	from the simplified Google quickdraw data set. key_id = 5695338553802752-->
<svg width="600" height="600"
	xmlns="http://www.w3.org/2000/svg">
	xmlns:ndjsontosvg="https://github.com/thompson318/ndjsontosvg"
	xmlns:quickdraw="https://quickdraw.withgoogle.com/data"
	xmlns:scikit-surgery="https://doi.org/10.1007/s11548-020-02180-5">

	<rect width="100%" height="100%" fill="black" />
	<path d = "M 187.50 105.47 L 393.75 107.81 L 396.09 21.09 L 438.28 16.41 L 473.44 0.00 L 461.72 9.38 L 473.44 110.16 L 471.09 140.62 L 534.38 110.16 L 592.97 93.75 L 585.94 96.09 L 583.59 114.84 L 597.66 229.69 L 461.72 285.94 L 466.41 246.09 L 457.03 222.66 L 433.59 185.16 L 405.47 175.78 L 389.06 229.69 L 396.09 311.72 L 365.62 311.72 L 288.28 337.50 L 290.62 271.88 L 283.59 234.38 L 264.84 215.62 L 241.41 215.62 L 229.69 222.66 L 217.97 246.09 L 215.62 297.66 L 180.47 316.41 L 0.00 321.09 L 2.34 98.44 L 213.28 105.47" stroke="white" fill="transparent"/>
	<path d = "M 382.03 84.38 L 433.59 98.44 L 496.88 100.78" stroke="white" fill="transparent"/>
</svg>