<?xml version="1.0" encoding="UTF-8" standalone="no"?>
<!--Created with ndjsontosvg (https:https://github.com/thompson318/ndjsontosvg) 
	from the simplified Google quickdraw data set. key_id = 6194996241760256-->
<svg width="600" height="600"
	xmlns="http://www.w3.org/2000/svg">
	xmlns:ndjsontosvg="https://github.com/thompson318/ndjsontosvg"
	xmlns:quickdraw="https://quickdraw.withgoogle.com/data"
	xmlns:scikit-surgery="https://doi.org/10.1007/s11548-020-02180-5">

	<rect width="100%" height="100%" fill="black" />
	<path d = "M 28.12 25.78 L 185.16 11.72 L 342.19 11.72" stroke="white" fill="transparent"/>
	<path d = "M 0.00 51.56 L 11.72 63.28 L 25.78 229.69 L 70.31 229.69 L 281.25 208.59 L 419.53 180.47 L 426.56 171.09 L 426.56 119.53 L 398.44 7.03 L 386.72 0.00 L 344.53 0.00" stroke="white" fill="transparent"/>
	<path d = "M 410.16 46.88 L 529.69 21.09 L 532.03 77.34 L 585.94 84.38 L 595.31 86.72 L 597.66 98.44 L 592.97 128.91 L 578.91 138.28 L 473.44 150.00 L 414.84 168.75" stroke="white" fill="transparent"/>
	<path d = "M 21.09 217.97 L 7.03 229.69 L 16.41 264.84 L 32.81 271.88 L 58.59 274.22 L 82.03 253.12 L 91.41 215.62" stroke="white" fill="transparent"/>
	<path d = "M 152.34 203.91 L 133.59 201.56 L 114.84 217.97 L 112.50 260.16 L 133.59 288.28 L 157.03 300.00 L 173.44 288.28 L 180.47 208.59" stroke="white" fill="transparent"/>
	<path d = "M 276.56 201.56 L 257.81 189.84 L 243.75 192.19 L 239.06 206.25 L 243.75 236.72 L 274.22 250.78 L 311.72 253.12 L 330.47 222.66 L 330.47 199.22 L 321.09 178.12" stroke="white" fill="transparent"/>
	<path d = "M 410.16 157.03 L 396.09 150.00 L 356.25 173.44 L 332.81 206.25 L 332.81 225.00 L 337.50 236.72 L 356.25 243.75 L 384.38 241.41 L 414.84 208.59 L 417.19 171.09" stroke="white" fill="transparent"/>
</svg>