<?xml version="1.0" encoding="UTF-8" standalone="no"?>
<!--Created with ndjsontosvg (https:https://github.com/thompson318/ndjsontosvg) 
	from the simplified Google quickdraw data set. key_id = 5170619547123712-->
<svg width="600" height="600"
	xmlns="http://www.w3.org/2000/svg">
	xmlns:ndjsontosvg="https://github.com/thompson318/ndjsontosvg"
	xmlns:quickdraw="https://quickdraw.withgoogle.com/data"
	xmlns:scikit-surgery="https://doi.org/10.1007/s11548-020-02180-5">

	<rect width="100%" height="100%" fill="black" />
	<path d = "M 410.16 23.44 L 414.84 210.94 L 428.91 225.00 L 466.41 222.66 L 487.50 215.62 L 494.53 210.94 L 492.19 199.22 L 452.34 157.03 L 452.34 114.84 L 494.53 32.81 L 494.53 14.06 L 454.69 4.69 L 421.88 18.75" stroke="white" fill="transparent"/>
	<path d = "M 480.47 63.28 L 555.47 56.25 L 569.53 82.03 L 592.97 157.03 L 597.66 189.84 L 592.97 206.25 L 503.91 201.56" stroke="white" fill="transparent"/>
	<path d = "M 412.50 42.19 L 337.50 44.53 L 243.75 21.09 L 91.41 0.00 L 11.72 0.00 L 0.00 11.72 L 0.00 201.56 L 185.16 220.31 L 267.19 220.31 L 316.41 215.62 L 379.69 199.22" stroke="white" fill="transparent"/>
	<path d = "M 63.28 213.28 L 49.22 243.75 L 51.56 285.94 L 77.34 288.28 L 93.75 267.19 L 96.09 222.66 L 82.03 215.62 L 77.34 236.72" stroke="white" fill="transparent"/>
	<path d = "M 150.00 220.31 L 138.28 253.12 L 142.97 311.72 L 196.88 344.53 L 246.09 353.91 L 290.62 353.91 L 311.72 342.19 L 321.09 325.78 L 325.78 243.75 L 314.06 220.31 L 278.91 199.22 L 225.00 187.50 L 201.56 192.19 L 180.47 220.31 L 178.12 234.38" stroke="white" fill="transparent"/>
	<path d = "M 375.00 217.97 L 346.88 215.62 L 316.41 264.84 L 316.41 292.97 L 325.78 318.75 L 353.91 342.19 L 396.09 370.31 L 496.88 407.81 L 569.53 407.81 L 592.97 375.00" stroke="white" fill="transparent"/>
</svg>