<?xml version="1.0" encoding="UTF-8" standalone="no"?>
<!--Created with ndjsontosvg (https:https://github.com/thompson318/ndjsontosvg) 
	from the simplified Google quickdraw data set. key_id = 5207119844343808-->
<svg width="600" height="600"
	xmlns="http://www.w3.org/2000/svg">
	xmlns:ndjsontosvg="https://github.com/thompson318/ndjsontosvg"
	xmlns:quickdraw="https://quickdraw.withgoogle.com/data"
	xmlns:scikit-surgery="https://doi.org/10.1007/s11548-020-02180-5">

	<rect width="100%" height="100%" fill="black" />
	<path d = "M 560.16 84.38 L 555.47 103.12 L 557.81 152.34 L 571.88 175.78 L 588.28 178.12 L 597.66 107.81 L 595.31 65.62 L 562.50 67.97 L 543.75 79.69 L 529.69 100.78" stroke="white" fill="transparent"/>
	<path d = "M 550.78 91.41 L 508.59 107.81 L 403.12 128.91 L 321.09 135.94 L 201.56 131.25 L 84.38 91.41 L 0.00 18.75 L 2.34 194.53 L 21.09 349.22 L 44.53 440.62 L 56.25 464.06 L 67.97 473.44 L 82.03 419.53 L 110.16 367.97 L 171.09 314.06 L 271.88 281.25 L 485.16 253.12 L 543.75 222.66 L 578.91 168.75" stroke="white" fill="transparent"/>
	<path d = "M 274.22 140.62 L 267.19 46.88" stroke="white" fill="transparent"/>
	<path d = "M 351.56 147.66 L 349.22 70.31 L 360.94 58.59" stroke="white" fill="transparent"/>
	<path d = "M 405.47 142.97 L 421.88 56.25" stroke="white" fill="transparent"/>
	<path d = "M 290.62 11.72 L 281.25 2.34 L 264.84 2.34 L 255.47 14.06 L 255.47 37.50 L 269.53 39.84 L 274.22 28.12" stroke="white" fill="transparent"/>
	<path d = "M 379.69 51.56 L 377.34 35.16 L 367.97 30.47 L 353.91 56.25 L 375.00 42.19" stroke="white" fill="transparent"/>
	<path d = "M 452.34 49.22 L 445.31 30.47 L 435.94 39.84" stroke="white" fill="transparent"/>
</svg>