<?xml version="1.0" encoding="UTF-8" standalone="no"?>
<!--Created with ndjsontosvg (https:https://github.com/thompson318/ndjsontosvg) 
	from the simplified Google quickdraw data set. key_id = 4813093169266688-->
<svg width="600" height="600"
	xmlns="http://www.w3.org/2000/svg">
	xmlns:ndjsontosvg="https://github.com/thompson318/ndjsontosvg"
	xmlns:quickdraw="https://quickdraw.withgoogle.com/data"
	xmlns:scikit-surgery="https://doi.org/10.1007/s11548-020-02180-5">

	<rect width="100%" height="100%" fill="black" />
	<path d = "M 541.41 42.19 L 581.25 72.66 L 592.97 93.75 L 597.66 138.28 L 585.94 194.53 L 562.50 220.31 L 534.38 215.62 L 513.28 189.84 L 496.88 135.94 L 494.53 98.44 L 501.56 75.00 L 525.00 35.16 L 548.44 21.09" stroke="white" fill="transparent"/>
	<path d = "M 520.31 30.47 L 403.12 53.91 L 229.69 63.28" stroke="white" fill="transparent"/>
	<path d = "M 555.47 239.06 L 517.97 215.62 L 365.62 171.09 L 311.72 145.31 L 276.56 121.88 L 213.28 49.22" stroke="white" fill="transparent"/>
	<path d = "M 215.62 67.97 L 126.56 65.62 L 35.16 49.22 L 0.00 53.91" stroke="white" fill="transparent"/>
	<path d = "M 9.38 112.50 L 142.97 98.44 L 260.16 98.44" stroke="white" fill="transparent"/>
	<path d = "M 70.31 0.00 L 58.59 49.22 L 51.56 51.56 L 49.22 35.16 L 56.25 21.09 L 63.28 49.22" stroke="white" fill="transparent"/>
	<path d = "M 96.09 21.09 L 91.41 49.22" stroke="white" fill="transparent"/>
	<path d = "M 119.53 28.12 L 119.53 42.19" stroke="white" fill="transparent"/>
	<path d = "M 138.28 18.75 L 140.62 46.88" stroke="white" fill="transparent"/>
	<path d = "M 164.06 35.16 L 171.09 49.22" stroke="white" fill="transparent"/>
</svg>