<?xml version="1.0" encoding="UTF-8" standalone="no"?>
<!--Created with ndjsontosvg (https:https://github.com/thompson318/ndjsontosvg) 
	from the simplified Google quickdraw data set. key_id = 5087862968025088-->
<svg width="600" height="600"
	xmlns="http://www.w3.org/2000/svg">
	xmlns:ndjsontosvg="https://github.com/thompson318/ndjsontosvg"
	xmlns:quickdraw="https://quickdraw.withgoogle.com/data"
	xmlns:scikit-surgery="https://doi.org/10.1007/s11548-020-02180-5">

	<rect width="100%" height="100%" fill="black" />
	<path d = "M 30.47 7.03 L 21.09 23.44 L 4.69 100.78 L 0.00 145.31 L 14.06 164.06 L 25.78 161.72 L 49.22 131.25 L 70.31 82.03 L 75.00 18.75 L 60.94 4.69 L 44.53 2.34 L 67.97 11.72 L 142.97 63.28" stroke="white" fill="transparent"/>
	<path d = "M 42.19 166.41 L 79.69 126.56 L 138.28 91.41" stroke="white" fill="transparent"/>
	<path d = "M 138.28 91.41 L 257.81 93.75" stroke="white" fill="transparent"/>
	<path d = "M 49.22 161.72 L 21.09 164.06" stroke="white" fill="transparent"/>
	<path d = "M 37.50 2.34 L 30.47 4.69" stroke="white" fill="transparent"/>
	<path d = "M 138.28 60.94 L 220.31 60.94 L 222.66 25.78 L 246.09 23.44 L 248.44 67.97 L 262.50 56.25 L 271.88 18.75 L 290.62 25.78 L 285.94 70.31 L 309.38 67.97 L 311.72 30.47 L 318.75 25.78 L 335.16 37.50 L 332.81 70.31 L 398.44 75.00" stroke="white" fill="transparent"/>
	<path d = "M 255.47 93.75 L 255.47 107.81 L 332.81 128.91 L 510.94 154.69 L 597.66 161.72 L 539.06 152.34 L 510.94 227.34 L 515.62 192.19 L 536.72 159.38 L 536.72 145.31 L 529.69 121.88 L 503.91 89.06 L 370.31 58.59 L 342.19 65.62" stroke="white" fill="transparent"/>
</svg>