<?xml version="1.0" encoding="UTF-8" standalone="no"?>
<!--Created with ndjsontosvg (https:https://github.com/thompson318/ndjsontosvg) 
	from the simplified Google quickdraw data set. key_id = 6363354396360704-->
<svg width="600" height="600"
	xmlns="http://www.w3.org/2000/svg">
	xmlns:ndjsontosvg="https://github.com/thompson318/ndjsontosvg"
	xmlns:quickdraw="https://quickdraw.withgoogle.com/data"
	xmlns:scikit-surgery="https://doi.org/10.1007/s11548-020-02180-5">

	<rect width="100%" height="100%" fill="black" />
	<path d = "M 539.06 70.31 L 527.34 65.62 L 517.97 72.66 L 503.91 126.56 L 510.94 145.31 L 536.72 147.66 L 546.09 140.62 L 555.47 117.19 L 541.41 67.97" stroke="white" fill="transparent"/>
	<path d = "M 588.28 16.41 L 562.50 2.34 L 534.38 7.03 L 508.59 30.47 L 487.50 58.59 L 473.44 98.44 L 468.75 135.94 L 478.12 178.12 L 489.84 192.19 L 513.28 203.91 L 548.44 199.22 L 564.84 185.16 L 592.97 145.31 L 597.66 103.12 L 590.62 44.53 L 581.25 21.09 L 562.50 0.00" stroke="white" fill="transparent"/>
	<path d = "M 475.78 63.28 L 283.59 93.75 L 182.81 91.41 L 138.28 75.00" stroke="white" fill="transparent"/>
	<path d = "M 473.44 150.00 L 288.28 180.47 L 232.03 180.47 L 140.62 157.03" stroke="white" fill="transparent"/>
	<path d = "M 135.94 63.28 L 89.06 44.53 L 67.97 51.56 L 32.81 46.88 L 16.41 58.59 L 2.34 93.75 L 2.34 110.16 L 23.44 133.59 L 117.19 157.03" stroke="white" fill="transparent"/>
</svg>