<?xml version="1.0" encoding="UTF-8" standalone="no"?>
<!--Created with ndjsontosvg (https:https://github.com/thompson318/ndjsontosvg) 
	from the simplified Google quickdraw data set. key_id = 5645992420442112-->
<svg width="600" height="600"
	xmlns="http://www.w3.org/2000/svg">
	xmlns:ndjsontosvg="https://github.com/thompson318/ndjsontosvg"
	xmlns:quickdraw="https://quickdraw.withgoogle.com/data"
	xmlns:scikit-surgery="https://doi.org/10.1007/s11548-020-02180-5">

	<rect width="100%" height="100%" fill="black" />
	<path d = "M 0.00 77.34 L 91.41 84.38 L 203.91 72.66 L 239.06 82.03 L 257.81 110.16 L 250.78 140.62 L 227.34 178.12 L 189.84 196.88 L 140.62 182.81 L 121.88 161.72 L 117.19 133.59 L 157.03 86.72 L 206.25 58.59 L 278.91 46.88 L 382.03 65.62 L 391.41 82.03 L 379.69 114.84 L 304.69 171.09 L 283.59 150.00 L 274.22 112.50 L 278.91 79.69 L 300.00 60.94 L 346.88 49.22 L 452.34 63.28 L 513.28 53.91" stroke="white" fill="transparent"/>
	<path d = "M 506.25 77.34 L 536.72 44.53 L 595.31 0.00 L 581.25 117.19 L 583.59 196.88 L 562.50 187.50 L 529.69 142.97 L 475.78 42.19" stroke="white" fill="transparent"/>
</svg>