<?xml version="1.0" encoding="UTF-8" standalone="no"?>
<!--Created with ndjsontosvg (https:https://github.com/thompson318/ndjsontosvg) 
	from the simplified Google quickdraw data set. key_id = 5074914656649216-->
<svg width="600" height="600"
	xmlns="http://www.w3.org/2000/svg">
	xmlns:ndjsontosvg="https://github.com/thompson318/ndjsontosvg"
	xmlns:quickdraw="https://quickdraw.withgoogle.com/data"
	xmlns:scikit-surgery="https://doi.org/10.1007/s11548-020-02180-5">

	<rect width="100%" height="100%" fill="black" />
	<path d = "M 0.00 117.19 L 121.88 145.31 L 196.88 142.97 L 248.44 112.50 L 269.53 79.69 L 271.88 37.50 L 243.75 16.41 L 199.22 18.75 L 164.06 53.91 L 166.41 77.34 L 187.50 121.88 L 232.03 159.38 L 285.94 185.16 L 400.78 187.50 L 435.94 178.12 L 489.84 110.16 L 574.22 49.22 L 595.31 112.50 L 595.31 199.22 L 578.91 232.03 L 543.75 253.12 L 527.34 250.78 L 478.12 220.31 L 288.28 220.31 L 257.81 196.88 L 210.94 180.47 L 185.16 135.94 L 168.75 82.03 L 166.41 30.47 L 194.53 7.03 L 227.34 0.00 L 292.97 7.03 L 318.75 21.09 L 351.56 53.91 L 351.56 72.66 L 342.19 89.06 L 260.16 131.25 L 142.97 164.06" stroke="white" fill="transparent"/>
</svg>