<?xml version="1.0" encoding="UTF-8" standalone="no"?>
<!--Created with ndjsontosvg (https:https://github.com/thompson318/ndjsontosvg) 
	from the simplified Google quickdraw data set. key_id = 6502091038130176-->
<svg width="600" height="600"
	xmlns="http://www.w3.org/2000/svg">
	xmlns:ndjsontosvg="https://github.com/thompson318/ndjsontosvg"
	xmlns:quickdraw="https://quickdraw.withgoogle.com/data"
	xmlns:scikit-surgery="https://doi.org/10.1007/s11548-020-02180-5">

	<rect width="100%" height="100%" fill="black" />
	<path d = "M 14.06 203.91 L 32.81 220.31 L 67.97 203.91 L 103.12 222.66 L 124.22 210.94 L 173.44 239.06 L 203.91 225.00 L 307.03 232.03 L 356.25 215.62 L 503.91 232.03 L 529.69 232.03 L 541.41 222.66 L 539.06 201.56 L 461.72 79.69 L 412.50 37.50 L 377.34 16.41 L 332.81 2.34 L 225.00 0.00 L 159.38 11.72 L 114.84 39.84 L 67.97 126.56 L 14.06 187.50 L 2.34 208.59 L 0.00 222.66 L 4.69 225.00" stroke="white" fill="transparent"/>
	<path d = "M 257.81 18.75 L 110.16 180.47" stroke="white" fill="transparent"/>
	<path d = "M 283.59 35.16 L 417.19 145.31" stroke="white" fill="transparent"/>
	<path d = "M 283.59 60.94 L 393.75 185.16 L 424.22 210.94" stroke="white" fill="transparent"/>
	<path d = "M 281.25 82.03 L 227.34 110.16 L 203.91 133.59 L 178.12 168.75 L 166.41 196.88" stroke="white" fill="transparent"/>
	<path d = "M 253.12 234.38 L 262.50 546.09 L 314.06 597.66 L 342.19 583.59 L 339.84 555.47" stroke="white" fill="transparent"/>
	<path d = "M 267.19 560.16 L 288.28 578.91 L 316.41 588.28" stroke="white" fill="transparent"/>
</svg>