<?xml version="1.0" encoding="UTF-8" standalone="no"?>
<!--Created with ndjsontosvg (https:https://github.com/thompson318/ndjsontosvg) 
	from the simplified Google quickdraw data set. key_id = 5898879994167296-->
<svg width="600" height="600"
	xmlns="http://www.w3.org/2000/svg">
	xmlns:ndjsontosvg="https://github.com/thompson318/ndjsontosvg"
	xmlns:quickdraw="https://quickdraw.withgoogle.com/data"
	xmlns:scikit-surgery="https://doi.org/10.1007/s11548-020-02180-5">

	<rect width="100%" height="100%" fill="black" />
	<path d = "M 107.81 454.69 L 98.44 510.94 L 107.81 534.38 L 124.22 553.12 L 159.38 569.53 L 243.75 569.53 L 274.22 541.41 L 295.31 489.84 L 300.00 225.00 L 325.78 250.78 L 356.25 269.53 L 382.03 241.41 L 386.72 253.12 L 431.25 253.12 L 487.50 309.38 L 532.03 330.47 L 590.62 283.59 L 597.66 201.56 L 585.94 145.31 L 541.41 89.06 L 494.53 42.19 L 450.00 25.78 L 304.69 0.00 L 229.69 0.00 L 150.00 16.41 L 79.69 39.84 L 32.81 65.62 L 4.69 131.25 L 0.00 168.75 L 39.84 220.31 L 98.44 192.19 L 103.12 215.62 L 135.94 201.56 L 157.03 210.94 L 194.53 213.28 L 215.62 194.53 L 236.72 189.84" stroke="white" fill="transparent"/>
</svg>