<?xml version="1.0" encoding="UTF-8" standalone="no"?>
<!--Created with ndjsontosvg (https:https://github.com/thompson318/ndjsontosvg) 
	from the simplified Google quickdraw data set. key_id = 6742934311403520-->
<svg width="600" height="600"
	xmlns="http://www.w3.org/2000/svg">
	xmlns:ndjsontosvg="https://github.com/thompson318/ndjsontosvg"
	xmlns:quickdraw="https://quickdraw.withgoogle.com/data"
	xmlns:scikit-surgery="https://doi.org/10.1007/s11548-020-02180-5">

	<rect width="100%" height="100%" fill="black" />
	<path d = "M 250.78 35.16 L 250.78 32.81" stroke="white" fill="transparent"/>
	<path d = "M 246.09 32.81 L 215.62 30.47 L 182.81 39.84 L 84.38 105.47 L 16.41 175.78 L 4.69 194.53 L 4.69 227.34 L 46.88 229.69 L 117.19 185.16 L 140.62 210.94 L 168.75 213.28 L 199.22 189.84 L 220.31 182.81 L 241.41 185.16 L 260.16 206.25 L 285.94 217.97 L 309.38 217.97 L 337.50 189.84 L 365.62 185.16 L 424.22 227.34" stroke="white" fill="transparent"/>
	<path d = "M 260.16 35.16 L 323.44 65.62 L 410.16 135.94 L 435.94 215.62" stroke="white" fill="transparent"/>
	<path d = "M 236.72 16.41 L 262.50 7.03 L 267.19 14.06 L 248.44 21.09 L 241.41 11.72 L 248.44 0.00 L 250.78 16.41" stroke="white" fill="transparent"/>
	<path d = "M 236.72 229.69 L 246.09 356.25 L 278.91 532.03 L 278.91 597.66" stroke="white" fill="transparent"/>
</svg>