<?xml version="1.0" encoding="UTF-8" standalone="no"?>
<!--Created with ndjsontosvg (https:https://github.com/thompson318/ndjsontosvg) 
	from the simplified Google quickdraw data set. key_id = 5558554666729472-->
<svg width="600" height="600"
	xmlns="http://www.w3.org/2000/svg">
	xmlns:ndjsontosvg="https://github.com/thompson318/ndjsontosvg"
	xmlns:quickdraw="https://quickdraw.withgoogle.com/data"
	xmlns:scikit-surgery="https://doi.org/10.1007/s11548-020-02180-5">

	<rect width="100%" height="100%" fill="black" />
	<path d = "M 335.16 30.47 L 248.44 25.78 L 147.66 51.56 L 82.03 79.69 L 0.00 140.62 L 142.97 145.31 L 178.12 157.03 L 220.31 189.84 L 285.94 171.09 L 337.50 171.09 L 421.88 192.19 L 480.47 161.72 L 541.41 159.38 L 595.31 168.75 L 592.97 154.69 L 574.22 117.19 L 541.41 93.75 L 428.91 46.88 L 316.41 25.78 L 307.03 18.75 L 307.03 9.38 L 335.16 0.00 L 337.50 16.41 L 321.09 21.09" stroke="white" fill="transparent"/>
	<path d = "M 314.06 23.44 L 276.56 46.88 L 222.66 171.09 L 217.97 185.16 L 227.34 187.50" stroke="white" fill="transparent"/>
	<path d = "M 328.12 28.12 L 353.91 42.19 L 377.34 67.97 L 424.22 196.88" stroke="white" fill="transparent"/>
	<path d = "M 302.34 164.06 L 311.72 328.12 L 323.44 384.38" stroke="white" fill="transparent"/>
	<path d = "M 173.44 276.56 L 166.41 302.34 L 180.47 325.78 L 215.62 339.84 L 274.22 342.19 L 290.62 330.47 L 290.62 309.38 L 283.59 292.97 L 255.47 276.56 L 217.97 267.19" stroke="white" fill="transparent"/>
	<path d = "M 194.53 285.94 L 199.22 307.03" stroke="white" fill="transparent"/>
</svg>