<?xml version="1.0" encoding="UTF-8" standalone="no"?>
<!--Created with ndjsontosvg (https:https://github.com/thompson318/ndjsontosvg) 
	from the simplified Google quickdraw data set. key_id = 5039414424109056-->
<svg width="600" height="600"
	xmlns="http://www.w3.org/2000/svg">
	xmlns:ndjsontosvg="https://github.com/thompson318/ndjsontosvg"
	xmlns:quickdraw="https://quickdraw.withgoogle.com/data"
	xmlns:scikit-surgery="https://doi.org/10.1007/s11548-020-02180-5">

	<rect width="100%" height="100%" fill="black" />
	<path d = "M 0.00 515.62 L 0.00 543.75 L 23.44 576.56 L 65.62 597.66 L 79.69 597.66 L 119.53 520.31 L 131.25 468.75 L 166.41 377.34 L 173.44 302.34 L 194.53 225.00 L 206.25 105.47" stroke="white" fill="transparent"/>
	<path d = "M 199.22 105.47 L 114.84 159.38 L 58.59 178.12 L 58.59 166.41 L 72.66 154.69 L 86.72 100.78 L 110.16 56.25 L 126.56 44.53 L 154.69 32.81 L 187.50 32.81 L 203.91 21.09 L 248.44 21.09 L 290.62 2.34 L 360.94 0.00 L 419.53 35.16 L 471.09 100.78 L 478.12 128.91 L 482.81 239.06 L 466.41 241.41 L 393.75 164.06 L 307.03 112.50 L 217.97 105.47 L 243.75 121.88" stroke="white" fill="transparent"/>
</svg>