<?xml version="1.0" encoding="UTF-8" standalone="no"?>
<!--Created with ndjsontosvg (https:https://github.com/thompson318/ndjsontosvg) 
	from the simplified Google quickdraw data set. key_id = 6291624218853376-->
<svg width="600" height="600"
	xmlns="http://www.w3.org/2000/svg">
	xmlns:ndjsontosvg="https://github.com/thompson318/ndjsontosvg"
	xmlns:quickdraw="https://quickdraw.withgoogle.com/data"
	xmlns:scikit-surgery="https://doi.org/10.1007/s11548-020-02180-5">

	<rect width="100%" height="100%" fill="black" />
	<path d = "M 0.00 60.94 L 157.03 37.50 L 590.62 0.00 L 597.66 72.66 L 576.56 356.25 L 513.28 351.56 L 346.88 314.06" stroke="white" fill="transparent"/>
	<path d = "M 571.88 367.97 L 485.16 351.56 L 370.31 358.59 L 353.91 353.91 L 346.88 332.81 L 337.50 229.69 L 321.09 201.56 L 222.66 215.62 L 213.28 232.03 L 208.59 300.00 L 196.88 339.84 L 154.69 363.28 L 86.72 386.72 L 58.59 391.41 L 37.50 386.72 L 23.44 372.66 L 14.06 335.16 L 11.72 37.50" stroke="white" fill="transparent"/>
	<path d = "M 37.50 100.78 L 426.56 70.31 L 578.91 70.31 L 407.81 70.31 L 135.94 100.78 L 86.72 89.06 L 126.56 75.00 L 435.94 86.72 L 548.44 75.00 L 588.28 58.59 L 562.50 42.19 L 478.12 39.84 L 210.94 75.00 L 93.75 79.69 L 86.72 77.34 L 114.84 63.28 L 203.91 49.22 L 466.41 42.19 L 541.41 28.12 L 133.59 91.41 L 53.91 110.16 L 25.78 121.88" stroke="white" fill="transparent"/>
</svg>