<?xml version="1.0" encoding="UTF-8" standalone="no"?>
<!--Created with ndjsontosvg (https:https://github.com/thompson318/ndjsontosvg) 
	from the simplified Google quickdraw data set. key_id = 6612304793698304-->
<svg width="600" height="600"
	xmlns="http://www.w3.org/2000/svg">
	xmlns:ndjsontosvg="https://github.com/thompson318/ndjsontosvg"
	xmlns:quickdraw="https://quickdraw.withgoogle.com/data"
	xmlns:scikit-surgery="https://doi.org/10.1007/s11548-020-02180-5">

	<rect width="100%" height="100%" fill="black" />
	<path d = "M 0.00 330.47 L 414.84 431.25 L 539.06 445.31 L 569.53 445.31 L 576.56 438.28 L 595.31 375.00 L 597.66 318.75 L 576.56 271.88 L 534.38 215.62 L 501.56 192.19 L 424.22 103.12 L 335.16 39.84 L 271.88 11.72 L 178.12 0.00 L 107.81 2.34 L 77.34 25.78 L 56.25 96.09 L 46.88 154.69 L 21.09 222.66 L 18.75 283.59 L 9.38 330.47" stroke="white" fill="transparent"/>
	<path d = "M 110.16 363.28 L 58.59 372.66 L 51.56 391.41 L 53.91 428.91 L 79.69 464.06 L 140.62 494.53 L 196.88 496.88 L 220.31 466.41 L 220.31 433.59 L 152.34 346.88 L 119.53 318.75 L 89.06 321.09" stroke="white" fill="transparent"/>
	<path d = "M 384.38 417.19 L 267.19 412.50 L 257.81 431.25 L 260.16 473.44 L 300.00 515.62 L 342.19 536.72 L 377.34 546.09 L 435.94 548.44 L 454.69 532.03" stroke="white" fill="transparent"/>
</svg>