<?xml version="1.0" encoding="UTF-8" standalone="no"?>
<!--Created with ndjsontosvg (https:https://github.com/thompson318/ndjsontosvg) 
	from the simplified Google quickdraw data set. key_id = 6504092237037568-->
<svg width="600" height="600"
	xmlns="http://www.w3.org/2000/svg">
	xmlns:ndjsontosvg="https://github.com/thompson318/ndjsontosvg"
	xmlns:quickdraw="https://quickdraw.withgoogle.com/data"
	xmlns:scikit-surgery="https://doi.org/10.1007/s11548-020-02180-5">

	<rect width="100%" height="100%" fill="black" />
	<path d = "M 23.44 44.53 L 35.16 56.25 L 84.38 56.25 L 105.47 51.56 L 154.69 25.78 L 159.38 14.06 L 121.88 4.69 L 63.28 16.41 L 30.47 35.16" stroke="white" fill="transparent"/>
	<path d = "M 0.00 65.62 L 67.97 363.28 L 67.97 391.41 L 46.88 499.22 L 49.22 546.09 L 60.94 569.53 L 150.00 597.66 L 220.31 588.28 L 302.34 557.81 L 339.84 517.97 L 351.56 485.16 L 349.22 410.16 L 337.50 379.69 L 260.16 241.41 L 236.72 220.31 L 213.28 171.09 L 185.16 72.66 L 182.81 9.38 L 145.31 0.00 L 79.69 14.06 L 30.47 32.81 L 0.00 60.94" stroke="white" fill="transparent"/>
</svg>