<?xml version="1.0" encoding="UTF-8" standalone="no"?>
<!--Created with ndjsontosvg (https:https://github.com/thompson318/ndjsontosvg) 
	from the simplified Google quickdraw data set. key_id = 5593608751153152-->
<svg width="600" height="600"
	xmlns="http://www.w3.org/2000/svg">
	xmlns:ndjsontosvg="https://github.com/thompson318/ndjsontosvg"
	xmlns:quickdraw="https://quickdraw.withgoogle.com/data"
	xmlns:scikit-surgery="https://doi.org/10.1007/s11548-020-02180-5">

	<rect width="100%" height="100%" fill="black" />
	<path d = "M 152.34 79.69 L 100.78 65.62 L 89.06 51.56 L 100.78 35.16 L 128.91 14.06 L 206.25 0.00 L 342.19 9.38 L 367.97 25.78 L 367.97 42.19 L 335.16 63.28 L 257.81 79.69 L 124.22 72.66" stroke="white" fill="transparent"/>
	<path d = "M 103.12 58.59 L 131.25 147.66 L 133.59 201.56 L 98.44 283.59 L 7.03 403.12 L 0.00 525.00 L 14.06 539.06 L 49.22 550.78 L 304.69 569.53 L 520.31 553.12 L 562.50 539.06 L 588.28 517.97 L 597.66 482.81 L 576.56 440.62 L 508.59 396.09 L 403.12 342.19 L 335.16 292.97 L 321.09 264.84 L 321.09 239.06 L 332.81 203.91" stroke="white" fill="transparent"/>
</svg>