<?xml version="1.0" encoding="UTF-8" standalone="no"?>
<!--Created with ndjsontosvg (https:https://github.com/thompson318/ndjsontosvg) 
	from the simplified Google quickdraw data set. key_id = 6580599483531264-->
<svg width="600" height="600"
	xmlns="http://www.w3.org/2000/svg">
	xmlns:ndjsontosvg="https://github.com/thompson318/ndjsontosvg"
	xmlns:quickdraw="https://quickdraw.withgoogle.com/data"
	xmlns:scikit-surgery="https://doi.org/10.1007/s11548-020-02180-5">

	<rect width="100%" height="100%" fill="black" />
	<path d = "M 51.56 567.19 L 49.22 447.66 L 42.19 438.28 L 9.38 431.25 L 4.69 424.22 L 9.38 337.50 L 0.00 295.31 L 121.88 290.62 L 356.25 297.66 L 360.94 424.22 L 323.44 428.91 L 304.69 438.28 L 292.97 520.31 L 292.97 574.22 L 283.59 581.25 L 222.66 597.66 L 37.50 597.66 L 44.53 562.50" stroke="white" fill="transparent"/>
	<path d = "M 161.72 288.28 L 175.78 257.81 L 187.50 178.12 L 203.91 117.19 L 133.59 86.72 L 128.91 75.00 L 175.78 53.91 L 192.19 70.31 L 187.50 18.75 L 206.25 4.69 L 234.38 0.00 L 243.75 11.72 L 246.09 51.56 L 262.50 65.62 L 271.88 91.41 L 271.88 119.53 L 264.84 121.88" stroke="white" fill="transparent"/>
</svg>