<?xml version="1.0" encoding="UTF-8" standalone="no"?>
<!--Created with ndjsontosvg (https:https://github.com/thompson318/ndjsontosvg) 
	from the simplified Google quickdraw data set. key_id = 4655078852001792-->
<svg width="600" height="600"
	xmlns="http://www.w3.org/2000/svg">
	xmlns:ndjsontosvg="https://github.com/thompson318/ndjsontosvg"
	xmlns:quickdraw="https://quickdraw.withgoogle.com/data"
	xmlns:scikit-surgery="https://doi.org/10.1007/s11548-020-02180-5">

	<rect width="100%" height="100%" fill="black" />
	<path d = "M 290.62 16.41 L 262.50 0.00 L 187.50 2.34 L 161.72 14.06 L 135.94 37.50 L 128.91 53.91 L 128.91 89.06 L 164.06 110.16 L 269.53 110.16 L 314.06 79.69 L 328.12 56.25 L 328.12 35.16 L 276.56 23.44" stroke="white" fill="transparent"/>
	<path d = "M 328.12 82.03 L 311.72 100.78 L 300.00 175.78 L 255.47 229.69 L 239.06 269.53 L 239.06 307.03 L 274.22 344.53 L 358.59 398.44 L 407.81 438.28 L 421.88 461.72 L 431.25 532.03 L 421.88 553.12 L 360.94 581.25 L 225.00 597.66 L 91.41 597.66 L 28.12 571.88 L 11.72 550.78 L 0.00 510.94 L 0.00 466.41 L 37.50 407.81 L 75.00 377.34 L 93.75 339.84 L 93.75 173.44 L 114.84 79.69" stroke="white" fill="transparent"/>
</svg>