<?xml version="1.0" encoding="UTF-8" standalone="no"?>
<!--Created with ndjsontosvg (https:https://github.com/thompson318/ndjsontosvg) 
	from the simplified Google quickdraw data set. key_id = 6623145475702784-->
<svg width="600" height="600"
	xmlns="http://www.w3.org/2000/svg">
	xmlns:ndjsontosvg="https://github.com/thompson318/ndjsontosvg"
	xmlns:quickdraw="https://quickdraw.withgoogle.com/data"
	xmlns:scikit-surgery="https://doi.org/10.1007/s11548-020-02180-5">

	<rect width="100%" height="100%" fill="black" />
	<path d = "M 318.75 189.84 L 274.22 175.78 L 236.72 175.78 L 213.28 185.16 L 185.16 215.62 L 178.12 269.53 L 166.41 300.00 L 147.66 318.75 L 58.59 353.91 L 11.72 428.91 L 0.00 471.09 L 0.00 517.97 L 30.47 569.53 L 58.59 588.28 L 96.09 597.66 L 133.59 595.31 L 173.44 571.88 L 206.25 532.03 L 220.31 431.25 L 246.09 398.44 L 300.00 393.75 L 360.94 405.47 L 403.12 386.72 L 433.59 351.56 L 442.97 283.59 L 424.22 246.09 L 370.31 203.91 L 325.78 196.88 L 309.38 201.56 L 323.44 201.56 L 419.53 131.25 L 501.56 84.38 L 426.56 161.72 L 192.19 370.31 L 82.03 499.22 L 257.81 300.00 L 499.22 70.31 L 478.12 84.38 L 332.81 229.69 L 70.31 510.94 L 307.03 262.50 L 569.53 23.44 L 494.53 91.41 L 274.22 332.81 L 98.44 543.75 L 417.19 154.69 L 576.56 0.00" stroke="white" fill="transparent"/>
</svg>