<?xml version="1.0" encoding="UTF-8" standalone="no"?>
<!--Created with ndjsontosvg (https:https://github.com/thompson318/ndjsontosvg) 
	from the simplified Google quickdraw data set. key_id = 4897597670031360-->
<svg width="600" height="600"
	xmlns="http://www.w3.org/2000/svg">
	xmlns:ndjsontosvg="https://github.com/thompson318/ndjsontosvg"
	xmlns:quickdraw="https://quickdraw.withgoogle.com/data"
	xmlns:scikit-surgery="https://doi.org/10.1007/s11548-020-02180-5">

	<rect width="100%" height="100%" fill="black" />
	<path d = "M 583.59 0.00 L 567.19 0.00 L 492.19 35.16 L 386.72 117.19 L 370.31 114.84 L 335.16 93.75 L 295.31 91.41 L 255.47 107.81 L 234.38 135.94 L 201.56 150.00 L 182.81 150.00 L 154.69 133.59 L 117.19 133.59 L 37.50 159.38 L 2.34 194.53 L 0.00 215.62 L 11.72 257.81 L 42.19 295.31 L 89.06 309.38 L 142.97 309.38 L 164.06 302.34 L 199.22 278.91 L 243.75 267.19 L 269.53 264.84 L 300.00 281.25 L 332.81 281.25 L 353.91 271.88 L 370.31 257.81 L 391.41 203.91 L 421.88 173.44 L 417.19 131.25 L 424.22 121.88 L 466.41 86.72 L 592.97 18.75 L 597.66 9.38 L 585.94 2.34" stroke="white" fill="transparent"/>
</svg>