<?xml version="1.0" encoding="UTF-8" standalone="no"?>
<!--Created with ndjsontosvg (https:https://github.com/thompson318/ndjsontosvg) 
	from the simplified Google quickdraw data set. key_id = 5143523600891904-->
<svg width="600" height="600"
	xmlns="http://www.w3.org/2000/svg">
	xmlns:ndjsontosvg="https://github.com/thompson318/ndjsontosvg"
	xmlns:quickdraw="https://quickdraw.withgoogle.com/data"
	xmlns:scikit-surgery="https://doi.org/10.1007/s11548-020-02180-5">

	<rect width="100%" height="100%" fill="black" />
	<path d = "M 351.56 79.69 L 323.44 159.38 L 271.88 248.44 L 236.72 281.25 L 60.94 372.66 L 18.75 417.19 L 2.34 452.34 L 0.00 503.91 L 9.38 527.34 L 30.47 560.16 L 63.28 583.59 L 100.78 595.31 L 182.81 595.31 L 229.69 564.84 L 262.50 487.50 L 264.84 325.78 L 283.59 288.28 L 353.91 185.16 L 391.41 114.84 L 410.16 65.62 L 414.84 7.03 L 400.78 0.00 L 382.03 2.34 L 363.28 23.44 L 337.50 96.09" stroke="white" fill="transparent"/>
	<path d = "M 417.19 56.25 L 438.28 30.47 L 452.34 25.78 L 450.00 56.25 L 445.31 65.62 L 414.84 60.94" stroke="white" fill="transparent"/>
	<path d = "M 344.53 60.94 L 342.19 37.50 L 332.81 25.78 L 330.47 39.84 L 351.56 51.56" stroke="white" fill="transparent"/>
	<path d = "M 339.84 86.72 L 318.75 79.69 L 316.41 89.06 L 337.50 93.75" stroke="white" fill="transparent"/>
	<path d = "M 398.44 124.22 L 417.19 126.56 L 393.75 121.88" stroke="white" fill="transparent"/>
	<path d = "M 398.44 16.41 L 372.66 112.50 L 292.97 260.16 L 236.72 410.16 L 161.72 522.66" stroke="white" fill="transparent"/>
	<path d = "M 119.53 501.56 L 232.03 304.69" stroke="white" fill="transparent"/>
	<path d = "M 84.38 492.19 L 210.94 309.38" stroke="white" fill="transparent"/>
	<path d = "M 60.94 478.12 L 133.59 403.12 L 257.81 239.06" stroke="white" fill="transparent"/>
	<path d = "M 208.59 346.88 L 147.66 353.91 L 100.78 382.03 L 75.00 419.53 L 70.31 466.41 L 82.03 494.53 L 135.94 543.75 L 171.09 560.16 L 220.31 560.16 L 257.81 522.66 L 267.19 426.56 L 257.81 407.81 L 215.62 377.34 L 161.72 360.94" stroke="white" fill="transparent"/>
	<path d = "M 208.59 386.72 L 250.78 337.50 L 278.91 285.94 L 314.06 187.50" stroke="white" fill="transparent"/>
	<path d = "M 194.53 513.28 L 288.28 309.38" stroke="white" fill="transparent"/>
	<path d = "M 391.41 351.56 L 353.91 288.28 L 278.91 206.25 L 241.41 175.78 L 60.94 84.38 L 311.72 232.03 L 405.47 325.78 L 367.97 276.56 L 225.00 150.00 L 114.84 91.41 L 274.22 208.59 L 318.75 253.12 L 379.69 335.16" stroke="white" fill="transparent"/>
</svg>