<?xml version="1.0" encoding="UTF-8" standalone="no"?>
<!--Created with ndjsontosvg (https:https://github.com/thompson318/ndjsontosvg) 
	from the simplified Google quickdraw data set. key_id = 5886411699912704-->
<svg width="600" height="600"
	xmlns="http://www.w3.org/2000/svg">
	xmlns:ndjsontosvg="https://github.com/thompson318/ndjsontosvg"
	xmlns:quickdraw="https://quickdraw.withgoogle.com/data"
	xmlns:scikit-surgery="https://doi.org/10.1007/s11548-020-02180-5">

	<rect width="100%" height="100%" fill="black" />
	<path d = "M 75.00 32.81 L 119.53 14.06 L 161.72 7.03 L 419.53 2.34 L 426.56 11.72 L 431.25 175.78 L 457.03 405.47 L 445.31 501.56 L 424.22 527.34 L 295.31 536.72 L 135.94 592.97 L 107.81 597.66 L 89.06 590.62 L 79.69 574.22 L 30.47 171.09 L 0.00 53.91" stroke="white" fill="transparent"/>
	<path d = "M 44.53 86.72 L 124.22 65.62 L 323.44 58.59 L 384.38 44.53" stroke="white" fill="transparent"/>
	<path d = "M 168.75 222.66 L 192.19 173.44 L 210.94 150.00 L 232.03 142.97 L 260.16 145.31 L 307.03 171.09 L 367.97 239.06 L 377.34 274.22 L 375.00 314.06 L 344.53 367.97 L 297.66 405.47 L 253.12 424.22 L 210.94 424.22 L 150.00 396.09 L 131.25 365.62 L 126.56 325.78 L 145.31 246.09 L 187.50 187.50 L 210.94 180.47 L 220.31 187.50" stroke="white" fill="transparent"/>
	<path d = "M 236.72 215.62 L 260.16 196.88 L 271.88 192.19 L 307.03 222.66 L 321.09 248.44 L 323.44 304.69 L 304.69 342.19 L 283.59 363.28 L 229.69 377.34 L 196.88 370.31 L 161.72 330.47 L 159.38 309.38 L 166.41 278.91 L 185.16 250.78 L 208.59 227.34 L 246.09 210.94" stroke="white" fill="transparent"/>
</svg>