<?xml version="1.0" encoding="UTF-8" standalone="no"?>
<!--Created with ndjsontosvg (https:https://github.com/thompson318/ndjsontosvg) 
	from the simplified Google quickdraw data set. key_id = 5894394701938688-->
<svg width="600" height="600"
	xmlns="http://www.w3.org/2000/svg">
	xmlns:ndjsontosvg="https://github.com/thompson318/ndjsontosvg"
	xmlns:quickdraw="https://quickdraw.withgoogle.com/data"
	xmlns:scikit-surgery="https://doi.org/10.1007/s11548-020-02180-5">

	<rect width="100%" height="100%" fill="black" />
	<path d = "M 67.97 145.31 L 75.00 428.91 L 58.59 595.31 L 84.38 595.31 L 307.03 541.41 L 515.62 508.59 L 508.59 375.00 L 520.31 2.34 L 424.22 11.72 L 260.16 11.72 L 201.56 18.75 L 159.38 32.81 L 65.62 75.00 L 65.62 164.06" stroke="white" fill="transparent"/>
	<path d = "M 346.88 206.25 L 330.47 194.53 L 276.56 210.94 L 229.69 262.50 L 208.59 335.16 L 208.59 358.59 L 262.50 433.59 L 283.59 450.00 L 344.53 475.78 L 372.66 475.78 L 391.41 468.75 L 403.12 457.03 L 410.16 433.59 L 403.12 351.56 L 367.97 213.28" stroke="white" fill="transparent"/>
	<path d = "M 0.00 133.59 L 100.78 131.25" stroke="white" fill="transparent"/>
</svg>