<?xml version="1.0" encoding="UTF-8" standalone="no"?>
<!--Created with ndjsontosvg (https:https://github.com/thompson318/ndjsontosvg) 
	from the simplified Google quickdraw data set. key_id = 6468586463821824-->
<svg width="600" height="600"
	xmlns="http://www.w3.org/2000/svg">
	xmlns:ndjsontosvg="https://github.com/thompson318/ndjsontosvg"
	xmlns:quickdraw="https://quickdraw.withgoogle.com/data"
	xmlns:scikit-surgery="https://doi.org/10.1007/s11548-020-02180-5">

	<rect width="100%" height="100%" fill="black" />
	<path d = "M 4.69 30.47 L 2.34 457.03 L 7.03 578.91 L 9.38 592.97 L 18.75 595.31" stroke="white" fill="transparent"/>
	<path d = "M 16.41 28.12 L 37.50 37.50 L 339.84 30.47 L 391.41 25.78 L 513.28 0.00 L 574.22 0.00 L 590.62 597.66" stroke="white" fill="transparent"/>
	<path d = "M 314.06 232.03 L 241.41 232.03 L 187.50 264.84 L 159.38 295.31 L 147.66 337.50 L 147.66 400.78 L 171.09 473.44 L 189.84 510.94 L 225.00 550.78 L 246.09 569.53 L 283.59 585.94 L 360.94 588.28 L 393.75 564.84 L 431.25 525.00 L 464.06 482.81 L 496.88 412.50 L 499.22 353.91 L 454.69 309.38 L 403.12 276.56 L 290.62 260.16" stroke="white" fill="transparent"/>
	<path d = "M 424.22 358.59 L 435.94 433.59 L 424.22 377.34" stroke="white" fill="transparent"/>
</svg>