<?xml version="1.0" encoding="UTF-8" standalone="no"?>
<!--Created with ndjsontosvg (https:https://github.com/thompson318/ndjsontosvg) 
	from the simplified Google quickdraw data set. key_id = 6600542606327808-->
<svg width="600" height="600"
	xmlns="http://www.w3.org/2000/svg">
	xmlns:ndjsontosvg="https://github.com/thompson318/ndjsontosvg"
	xmlns:quickdraw="https://quickdraw.withgoogle.com/data"
	xmlns:scikit-surgery="https://doi.org/10.1007/s11548-020-02180-5">

	<rect width="100%" height="100%" fill="black" />
	<path d = "M 46.88 567.19 L 32.81 555.47 L 28.12 412.50 L 0.00 234.38 L 4.69 56.25 L 72.66 21.09 L 194.53 21.09 L 325.78 0.00 L 494.53 11.72 L 569.53 28.12 L 571.88 49.22 L 553.12 131.25 L 539.06 262.50 L 550.78 433.59 L 536.72 499.22 L 522.66 527.34 L 485.16 550.78 L 421.88 567.19 L 236.72 597.66 L 44.53 574.22 L 37.50 574.22 L 42.19 560.16" stroke="white" fill="transparent"/>
	<path d = "M 330.47 187.50 L 241.41 178.12 L 196.88 215.62 L 154.69 274.22 L 133.59 323.44 L 133.59 356.25 L 164.06 391.41 L 201.56 403.12 L 262.50 405.47 L 321.09 386.72 L 372.66 342.19 L 389.06 304.69 L 391.41 257.81 L 363.28 203.91 L 318.75 178.12 L 253.12 168.75" stroke="white" fill="transparent"/>
	<path d = "M 222.66 260.16 L 229.69 248.44 L 243.75 241.41 L 274.22 239.06 L 281.25 262.50 L 260.16 292.97 L 250.78 292.97 L 236.72 269.53 L 243.75 234.38 L 253.12 222.66 L 271.88 217.97 L 292.97 246.09 L 288.28 278.91 L 257.81 302.34 L 229.69 302.34 L 220.31 292.97 L 220.31 271.88 L 241.41 248.44 L 267.19 246.09 L 276.56 260.16 L 278.91 276.56 L 262.50 304.69 L 236.72 304.69 L 229.69 267.19 L 248.44 239.06 L 260.16 232.03 L 269.53 239.06 L 276.56 281.25 L 267.19 328.12 L 246.09 316.41 L 229.69 281.25" stroke="white" fill="transparent"/>
</svg>