<?xml version="1.0" encoding="UTF-8" standalone="no"?>
<!--Created with ndjsontosvg (https:https://github.com/thompson318/ndjsontosvg) 
	from the simplified Google quickdraw data set. key_id = 5687913897525248-->
<svg width="600" height="600"
	xmlns="http://www.w3.org/2000/svg">
	xmlns:ndjsontosvg="https://github.com/thompson318/ndjsontosvg"
	xmlns:quickdraw="https://quickdraw.withgoogle.com/data"
	xmlns:scikit-surgery="https://doi.org/10.1007/s11548-020-02180-5">

	<rect width="100%" height="100%" fill="black" />
	<path d = "M 0.00 592.97 L 63.28 583.59 L 171.09 590.62 L 278.91 585.94 L 492.19 560.16 L 571.88 536.72" stroke="white" fill="transparent"/>
	<path d = "M 75.00 597.66 L 35.16 457.03 L 16.41 283.59 L 21.09 138.28 L 35.16 21.09 L 39.84 7.03 L 58.59 2.34 L 126.56 0.00 L 257.81 14.06 L 435.94 70.31 L 539.06 86.72 L 546.09 103.12 L 546.09 389.06 L 560.16 543.75" stroke="white" fill="transparent"/>
	<path d = "M 234.38 241.41 L 220.31 250.78 L 208.59 330.47 L 208.59 358.59 L 229.69 424.22 L 257.81 461.72 L 278.91 473.44 L 321.09 482.81 L 342.19 478.12 L 400.78 435.94 L 438.28 389.06 L 450.00 360.94 L 450.00 304.69 L 400.78 241.41 L 360.94 217.97 L 297.66 210.94 L 253.12 232.03" stroke="white" fill="transparent"/>
</svg>