<?xml version="1.0" encoding="UTF-8" standalone="no"?>
<!--Created with ndjsontosvg (https:https://github.com/thompson318/ndjsontosvg) 
	from the simplified Google quickdraw data set. key_id = 6674682013024256-->
<svg width="600" height="600"
	xmlns="http://www.w3.org/2000/svg">
	xmlns:ndjsontosvg="https://github.com/thompson318/ndjsontosvg"
	xmlns:quickdraw="https://quickdraw.withgoogle.com/data"
	xmlns:scikit-surgery="https://doi.org/10.1007/s11548-020-02180-5">

	<rect width="100%" height="100%" fill="black" />
	<path d = "M 9.38 0.00 L 534.38 0.00 L 548.44 7.03 L 560.16 30.47 L 588.28 227.34 L 597.66 464.06 L 585.94 471.09 L 452.34 471.09 L 375.00 459.38 L 236.72 450.00 L 53.91 450.00 L 28.12 375.00 L 11.72 250.78 L 11.72 37.50 L 4.69 4.69 L 0.00 23.44" stroke="white" fill="transparent"/>
	<path d = "M 232.03 86.72 L 229.69 100.78 L 192.19 126.56 L 173.44 171.09 L 173.44 307.03 L 225.00 382.03 L 248.44 393.75 L 295.31 393.75 L 318.75 386.72 L 389.06 328.12 L 405.47 290.62 L 403.12 196.88 L 372.66 142.97 L 339.84 112.50 L 292.97 93.75 L 232.03 96.09" stroke="white" fill="transparent"/>
	<path d = "M 91.41 53.91 L 100.78 42.19 L 93.75 28.12" stroke="white" fill="transparent"/>
	<path d = "M 189.84 32.81 L 210.94 32.81 L 208.59 46.88 L 189.84 46.88" stroke="white" fill="transparent"/>
	<path d = "M 311.72 32.81 L 356.25 35.16 L 367.97 42.19 L 372.66 51.56 L 323.44 51.56" stroke="white" fill="transparent"/>
	<path d = "M 435.94 39.84 L 447.66 42.19 L 452.34 63.28 L 442.97 67.97 L 431.25 46.88" stroke="white" fill="transparent"/>
</svg>