<?xml version="1.0" encoding="UTF-8" standalone="no"?>
<!--Created with ndjsontosvg (https:https://github.com/thompson318/ndjsontosvg) 
	from the simplified Google quickdraw data set. key_id = 5472896010944512-->
<svg width="600" height="600"
	xmlns="http://www.w3.org/2000/svg">
	xmlns:ndjsontosvg="https://github.com/thompson318/ndjsontosvg"
	xmlns:quickdraw="https://quickdraw.withgoogle.com/data"
	xmlns:scikit-surgery="https://doi.org/10.1007/s11548-020-02180-5">

	<rect width="100%" height="100%" fill="black" />
	<path d = "M 86.72 14.06 L 70.31 213.28 L 35.16 377.34 L 4.69 452.34 L 2.34 529.69 L 65.62 510.94 L 107.81 510.94 L 213.28 553.12 L 339.84 588.28 L 396.09 597.66 L 471.09 597.66 L 560.16 581.25 L 576.56 574.22 L 583.59 560.16 L 595.31 485.16 L 595.31 342.19 L 571.88 121.88 L 546.09 44.53 L 522.66 16.41 L 405.47 2.34 L 152.34 0.00 L 35.16 4.69" stroke="white" fill="transparent"/>
	<path d = "M 302.34 185.16 L 271.88 194.53 L 229.69 239.06 L 215.62 288.28 L 217.97 346.88 L 246.09 375.00 L 278.91 384.38 L 314.06 384.38 L 360.94 365.62 L 382.03 342.19 L 382.03 325.78 L 351.56 281.25 L 311.72 246.09 L 285.94 227.34 L 269.53 227.34 L 222.66 246.09" stroke="white" fill="transparent"/>
	<path d = "M 185.16 58.59 L 180.47 63.28" stroke="white" fill="transparent"/>
</svg>