<?xml version="1.0" encoding="UTF-8" standalone="no"?>
<!--Created with ndjsontosvg (https:https://github.com/thompson318/ndjsontosvg) 
	from the simplified Google quickdraw data set. key_id = 5107737266487296-->
<svg width="600" height="600"
	xmlns="http://www.w3.org/2000/svg">
	xmlns:ndjsontosvg="https://github.com/thompson318/ndjsontosvg"
	xmlns:quickdraw="https://quickdraw.withgoogle.com/data"
	xmlns:scikit-surgery="https://doi.org/10.1007/s11548-020-02180-5">

	<rect width="100%" height="100%" fill="black" />
	<path d = "M 35.16 0.00 L 14.06 32.81 L 0.00 93.75 L 7.03 124.22 L 30.47 161.72 L 72.66 194.53 L 140.62 229.69 L 295.31 281.25 L 321.09 307.03 L 342.19 346.88 L 344.53 384.38 L 335.16 431.25 L 314.06 473.44 L 274.22 501.56 L 220.31 517.97" stroke="white" fill="transparent"/>
	<path d = "M 49.22 7.03 L 72.66 0.00 L 96.09 0.00 L 103.12 7.03 L 89.06 67.97 L 107.81 103.12 L 346.88 196.88 L 419.53 257.81 L 466.41 335.16 L 468.75 370.31 L 442.97 506.25 L 379.69 562.50 L 302.34 597.66" stroke="white" fill="transparent"/>
	<path d = "M 37.50 58.59 L 46.88 112.50 L 75.00 150.00 L 192.19 203.91 L 311.72 274.22 L 360.94 323.44 L 372.66 351.56 L 370.31 499.22 L 353.91 555.47 L 335.16 574.22" stroke="white" fill="transparent"/>
	<path d = "M 37.50 42.19 L 58.59 77.34 L 91.41 107.81 L 154.69 157.03 L 316.41 250.78 L 370.31 316.41 L 403.12 393.75 L 405.47 442.97 L 384.38 492.19 L 346.88 534.38" stroke="white" fill="transparent"/>
	<path d = "M 309.38 199.22 L 358.59 225.00 L 396.09 260.16 L 428.91 321.09 L 431.25 367.97 L 384.38 485.16 L 346.88 529.69 L 302.34 562.50" stroke="white" fill="transparent"/>
</svg>