<?xml version="1.0" encoding="UTF-8" standalone="no"?>
<!--Created with ndjsontosvg (https:https://github.com/thompson318/ndjsontosvg) 
	from the simplified Google quickdraw data set. key_id = 6606001258102784-->
<svg width="600" height="600"
	xmlns="http://www.w3.org/2000/svg">
	xmlns:ndjsontosvg="https://github.com/thompson318/ndjsontosvg"
	xmlns:quickdraw="https://quickdraw.withgoogle.com/data"
	xmlns:scikit-surgery="https://doi.org/10.1007/s11548-020-02180-5">

	<rect width="100%" height="100%" fill="black" />
	<path d = "M 215.62 89.06 L 192.19 75.00 L 152.34 75.00 L 89.06 103.12 L 53.91 133.59 L 28.12 180.47 L 2.34 274.22 L 2.34 398.44 L 25.78 438.28 L 110.16 473.44 L 267.19 482.81 L 288.28 478.12 L 316.41 459.38 L 328.12 445.31 L 349.22 370.31 L 342.19 276.56 L 300.00 185.16 L 243.75 105.47 L 220.31 86.72" stroke="white" fill="transparent"/>
	<path d = "M 185.16 82.03 L 157.03 82.03 L 110.16 107.81 L 77.34 147.66 L 63.28 187.50 L 51.56 335.16 L 77.34 424.22 L 105.47 466.41" stroke="white" fill="transparent"/>
	<path d = "M 185.16 84.38 L 159.38 119.53 L 152.34 154.69 L 150.00 452.34 L 157.03 475.78" stroke="white" fill="transparent"/>
	<path d = "M 178.12 67.97 L 189.84 70.31 L 210.94 86.72 L 232.03 124.22 L 246.09 154.69 L 253.12 206.25 L 253.12 391.41 L 239.06 438.28 L 213.28 461.72" stroke="white" fill="transparent"/>
	<path d = "M 206.25 67.97 L 281.25 171.09 L 342.19 314.06 L 342.19 405.47 L 328.12 454.69 L 302.34 492.19" stroke="white" fill="transparent"/>
	<path d = "M 96.09 77.34 L 96.09 89.06 L 53.91 138.28 L 35.16 178.12 L 9.38 297.66 L 7.03 370.31 L 16.41 398.44 L 37.50 440.62 L 60.94 452.34" stroke="white" fill="transparent"/>
	<path d = "M 541.41 21.09 L 541.41 56.25 L 520.31 124.22 L 499.22 255.47" stroke="white" fill="transparent"/>
	<path d = "M 541.41 16.41 L 562.50 21.09 L 585.94 53.91 L 581.25 142.97 L 560.16 222.66 L 522.66 260.16 L 503.91 262.50 L 503.91 253.12" stroke="white" fill="transparent"/>
	<path d = "M 548.44 67.97 L 550.78 67.97" stroke="white" fill="transparent"/>
	<path d = "M 550.78 110.16 L 550.78 124.22" stroke="white" fill="transparent"/>
	<path d = "M 550.78 150.00 L 541.41 164.06" stroke="white" fill="transparent"/>
	<path d = "M 534.38 178.12 L 536.72 187.50" stroke="white" fill="transparent"/>
	<path d = "M 548.44 206.25 L 541.41 206.25" stroke="white" fill="transparent"/>
	<path d = "M 527.34 220.31 L 527.34 220.31" stroke="white" fill="transparent"/>
	<path d = "M 527.34 157.03 L 527.34 150.00" stroke="white" fill="transparent"/>
	<path d = "M 536.72 103.12 L 541.41 103.12" stroke="white" fill="transparent"/>
	<path d = "M 548.44 0.00 L 567.19 7.03 L 590.62 42.19 L 595.31 65.62 L 595.31 152.34 L 569.53 232.03 L 529.69 262.50 L 499.22 267.19" stroke="white" fill="transparent"/>
</svg>