<?xml version="1.0" encoding="UTF-8" standalone="no"?>
<!--Created with ndjsontosvg (https:https://github.com/thompson318/ndjsontosvg) 
	from the simplified Google quickdraw data set. key_id = 6578852232953856-->
<svg width="600" height="600"
	xmlns="http://www.w3.org/2000/svg">
	xmlns:ndjsontosvg="https://github.com/thompson318/ndjsontosvg"
	xmlns:quickdraw="https://quickdraw.withgoogle.com/data"
	xmlns:scikit-surgery="https://doi.org/10.1007/s11548-020-02180-5">

	<rect width="100%" height="100%" fill="black" />
	<path d = "M 367.97 126.56 L 246.09 128.91 L 194.53 154.69 L 147.66 201.56 L 119.53 253.12 L 98.44 321.09 L 67.97 548.44 L 65.62 597.66 L 168.75 597.66 L 276.56 562.50 L 330.47 522.66 L 353.91 494.53 L 377.34 454.69 L 405.47 358.59 L 414.84 236.72 L 400.78 208.59 L 344.53 168.75 L 328.12 140.62 L 314.06 133.59 L 309.38 161.72 L 269.53 248.44 L 93.75 595.31 L 37.50 597.66" stroke="white" fill="transparent"/>
	<path d = "M 360.94 178.12 L 271.88 396.09 L 215.62 592.97 L 206.25 597.66" stroke="white" fill="transparent"/>
	<path d = "M 400.78 199.22 L 358.59 454.69 L 335.16 555.47" stroke="white" fill="transparent"/>
	<path d = "M 271.88 138.28 L 166.41 370.31 L 37.50 532.03" stroke="white" fill="transparent"/>
	<path d = "M 217.97 140.62 L 194.53 222.66 L 145.31 325.78 L 98.44 384.38" stroke="white" fill="transparent"/>
	<path d = "M 164.06 178.12 L 89.06 363.28" stroke="white" fill="transparent"/>
	<path d = "M 316.41 119.53 L 248.44 121.88 L 213.28 150.00 L 185.16 187.50 L 147.66 274.22 L 117.19 419.53 L 114.84 452.34 L 142.97 487.50 L 208.59 520.31 L 274.22 534.38 L 309.38 536.72 L 323.44 529.69 L 393.75 454.69 L 421.88 384.38 L 417.19 217.97 L 403.12 168.75 L 372.66 145.31 L 339.84 128.91 L 288.28 121.88 L 227.34 121.88 L 175.78 138.28 L 51.56 246.09 L 30.47 278.91 L 25.78 328.12 L 51.56 382.03 L 100.78 464.06 L 145.31 510.94 L 189.84 543.75 L 241.41 560.16 L 292.97 564.84 L 351.56 536.72 L 405.47 482.81 L 454.69 407.81 L 482.81 321.09 L 487.50 276.56 L 487.50 192.19 L 457.03 103.12 L 424.22 46.88 L 384.38 14.06 L 337.50 0.00 L 250.78 4.69 L 171.09 35.16 L 98.44 82.03 L 46.88 138.28 L 21.09 182.81 L 0.00 257.81 L 0.00 346.88 L 35.16 450.00 L 58.59 485.16 L 82.03 499.22 L 117.19 503.91 L 187.50 499.22 L 353.91 450.00" stroke="white" fill="transparent"/>
</svg>