<?xml version="1.0" encoding="UTF-8" standalone="no"?>
<!--Created with ndjsontosvg (https:https://github.com/thompson318/ndjsontosvg) 
	from the simplified Google quickdraw data set. key_id = 4556086600269824-->
<svg width="600" height="600"
	xmlns="http://www.w3.org/2000/svg">
	xmlns:ndjsontosvg="https://github.com/thompson318/ndjsontosvg"
	xmlns:quickdraw="https://quickdraw.withgoogle.com/data"
	xmlns:scikit-surgery="https://doi.org/10.1007/s11548-020-02180-5">

	<rect width="100%" height="100%" fill="black" />
	<path d = "M 292.97 67.97 L 332.81 91.41 L 370.31 142.97 L 377.34 297.66" stroke="white" fill="transparent"/>
	<path d = "M 337.50 63.28 L 377.34 114.84 L 398.44 159.38 L 396.09 311.72" stroke="white" fill="transparent"/>
	<path d = "M 377.34 28.12 L 421.88 145.31 L 433.59 229.69 L 431.25 302.34" stroke="white" fill="transparent"/>
	<path d = "M 304.69 98.44 L 232.03 114.84 L 168.75 96.09 L 107.81 117.19 L 0.00 107.81" stroke="white" fill="transparent"/>
	<path d = "M 325.78 63.28 L 372.66 135.94 L 400.78 199.22 L 410.16 236.72 L 405.47 260.16" stroke="white" fill="transparent"/>
	<path d = "M 372.66 119.53 L 391.41 300.00" stroke="white" fill="transparent"/>
	<path d = "M 391.41 75.00 L 393.75 168.75 L 421.88 339.84" stroke="white" fill="transparent"/>
	<path d = "M 375.00 121.88 L 412.50 276.56 L 419.53 344.53" stroke="white" fill="transparent"/>
	<path d = "M 321.09 105.47 L 419.53 281.25" stroke="white" fill="transparent"/>
	<path d = "M 391.41 152.34 L 447.66 363.28 L 450.00 372.66 L 452.34 363.28" stroke="white" fill="transparent"/>
	<path d = "M 375.00 75.00 L 454.69 182.81 L 478.12 225.00 L 482.81 250.78" stroke="white" fill="transparent"/>
	<path d = "M 403.12 67.97 L 433.59 159.38 L 440.62 290.62" stroke="white" fill="transparent"/>
	<path d = "M 358.59 133.59 L 532.03 283.59 L 555.47 328.12 L 553.12 342.19 L 539.06 346.88" stroke="white" fill="transparent"/>
	<path d = "M 379.69 150.00 L 398.44 206.25 L 407.81 304.69" stroke="white" fill="transparent"/>
	<path d = "M 391.41 300.00 L 389.06 318.75 L 372.66 337.50 L 353.91 351.56 L 337.50 353.91 L 330.47 349.22 L 330.47 335.16 L 351.56 316.41 L 421.88 304.69 L 468.75 316.41 L 468.75 328.12 L 452.34 335.16 L 442.97 321.09 L 459.38 307.03 L 522.66 302.34 L 548.44 307.03 L 595.31 335.16 L 597.66 344.53 L 588.28 349.22 L 517.97 346.88 L 480.47 323.44 L 489.84 302.34 L 510.94 295.31 L 571.88 300.00 L 578.91 316.41 L 567.19 330.47 L 541.41 339.84 L 489.84 342.19 L 464.06 330.47 L 473.44 311.72 L 539.06 304.69 L 546.09 311.72 L 541.41 318.75 L 492.19 330.47 L 417.19 323.44 L 370.31 307.03 L 375.00 292.97 L 391.41 283.59 L 478.12 264.84 L 440.62 288.28 L 325.78 307.03 L 302.34 304.69 L 318.75 281.25 L 367.97 260.16 L 414.84 255.47 L 417.19 274.22 L 398.44 302.34 L 379.69 316.41 L 351.56 314.06 L 349.22 300.00 L 360.94 283.59 L 407.81 281.25 L 417.19 309.38 L 400.78 332.81 L 384.38 332.81 L 372.66 316.41 L 370.31 297.66 L 386.72 278.91 L 407.81 271.88 L 424.22 281.25 L 440.62 302.34 L 440.62 321.09 L 438.28 288.28 L 468.75 285.94 L 489.84 302.34 L 494.53 318.75 L 487.50 335.16 L 468.75 342.19 L 440.62 335.16 L 424.22 318.75 L 419.53 300.00 L 433.59 276.56 L 464.06 274.22 L 471.09 307.03 L 454.69 325.78 L 433.59 321.09 L 412.50 285.94 L 412.50 278.91 L 433.59 283.59 L 501.56 339.84 L 506.25 365.62 L 480.47 375.00 L 447.66 358.59 L 426.56 330.47 L 442.97 302.34 L 475.78 285.94 L 489.84 288.28 L 475.78 309.38" stroke="white" fill="transparent"/>
	<path d = "M 292.97 98.44 L 325.78 91.41" stroke="white" fill="transparent"/>
	<path d = "M 14.06 46.88 L 46.88 44.53 L 100.78 56.25 L 201.56 58.59 L 234.38 75.00 L 274.22 72.66" stroke="white" fill="transparent"/>
	<path d = "M 114.84 0.00 L 159.38 0.00 L 210.94 25.78 L 304.69 30.47 L 339.84 46.88" stroke="white" fill="transparent"/>
</svg>