<?xml version="1.0" encoding="UTF-8" standalone="no"?>
<!--Created with ndjsontosvg (https:https://github.com/thompson318/ndjsontosvg) 
	from the simplified Google quickdraw data set. key_id = 5120567222992896-->
<svg width="600" height="600"
	xmlns="http://www.w3.org/2000/svg">
	xmlns:ndjsontosvg="https://github.com/thompson318/ndjsontosvg"
	xmlns:quickdraw="https://quickdraw.withgoogle.com/data"
	xmlns:scikit-surgery="https://doi.org/10.1007/s11548-020-02180-5">

	<rect width="100%" height="100%" fill="black" />
	<path d = "M 161.72 39.84 L 199.22 37.50 L 213.28 44.53 L 232.03 58.59 L 281.25 124.22 L 311.72 142.97 L 405.47 147.66 L 457.03 124.22 L 473.44 89.06 L 471.09 67.97 L 440.62 51.56 L 417.19 0.00 L 457.03 14.06 L 525.00 63.28 L 567.19 77.34 L 590.62 72.66 L 597.66 32.81 L 597.66 114.84 L 588.28 126.56 L 560.16 131.25 L 539.06 187.50 L 513.28 222.66 L 457.03 255.47 L 377.34 281.25 L 119.53 274.22 L 60.94 255.47 L 37.50 234.38 L 9.38 192.19 L 0.00 159.38 L 2.34 93.75 L 23.44 53.91 L 44.53 37.50 L 67.97 28.12 L 175.78 37.50" stroke="white" fill="transparent"/>
	<path d = "M 42.19 229.69 L 131.25 206.25" stroke="white" fill="transparent"/>
</svg>