<?xml version="1.0" encoding="UTF-8" standalone="no"?>
<!--Created with ndjsontosvg (https:https://github.com/thompson318/ndjsontosvg) 
	from the simplified Google quickdraw data set. key_id = 6435037606051840-->
<svg width="600" height="600"
	xmlns="http://www.w3.org/2000/svg">
	xmlns:ndjsontosvg="https://github.com/thompson318/ndjsontosvg"
	xmlns:quickdraw="https://quickdraw.withgoogle.com/data"
	xmlns:scikit-surgery="https://doi.org/10.1007/s11548-020-02180-5">

	<rect width="100%" height="100%" fill="black" />
	<path d = "M 267.19 159.38 L 351.56 138.28 L 414.84 140.62 L 480.47 159.38 L 529.69 189.84 L 597.66 304.69 L 553.12 339.84 L 487.50 360.94 L 311.72 375.00 L 267.19 356.25 L 234.38 330.47 L 168.75 243.75 L 126.56 217.97 L 79.69 220.31 L 2.34 250.78 L 0.00 215.62 L 25.78 152.34 L 46.88 117.19 L 82.03 84.38 L 98.44 82.03 L 142.97 145.31 L 164.06 159.38 L 246.09 159.38 L 269.53 152.34" stroke="white" fill="transparent"/>
	<path d = "M 468.75 220.31 L 480.47 225.00 L 480.47 234.38 L 471.09 241.41 L 468.75 227.34 L 473.44 220.31" stroke="white" fill="transparent"/>
	<path d = "M 419.53 154.69 L 405.47 107.81 L 335.16 46.88 L 309.38 39.84 L 278.91 51.56 L 337.50 14.06 L 377.34 0.00 L 400.78 7.03 L 515.62 82.03" stroke="white" fill="transparent"/>
</svg>