<?xml version="1.0" encoding="UTF-8" standalone="no"?>
<!--Created with ndjsontosvg (https:https://github.com/thompson318/ndjsontosvg) 
	from the simplified Google quickdraw data set. key_id = 5780425664364544-->
<svg width="600" height="600"
	xmlns="http://www.w3.org/2000/svg">
	xmlns:ndjsontosvg="https://github.com/thompson318/ndjsontosvg"
	xmlns:quickdraw="https://quickdraw.withgoogle.com/data"
	xmlns:scikit-surgery="https://doi.org/10.1007/s11548-020-02180-5">

	<rect width="100%" height="100%" fill="black" />
	<path d = "M 281.25 166.41 L 311.72 126.56 L 346.88 91.41 L 403.12 65.62 L 407.81 142.97 L 428.91 180.47 L 510.94 175.78 L 571.88 187.50 L 595.31 215.62 L 595.31 267.19 L 571.88 300.00 L 532.03 330.47 L 318.75 405.47 L 262.50 414.84 L 189.84 414.84 L 142.97 405.47 L 107.81 379.69 L 77.34 375.00 L 14.06 391.41 L 0.00 370.31 L 9.38 332.81 L 32.81 323.44 L 91.41 318.75 L 42.19 292.97 L 11.72 262.50 L 7.03 239.06 L 28.12 206.25 L 53.91 203.91 L 75.00 232.03 L 103.12 243.75 L 159.38 262.50 L 201.56 262.50 L 250.78 234.38 L 283.59 159.38" stroke="white" fill="transparent"/>
	<path d = "M 119.53 23.44 L 133.59 39.84 L 152.34 21.09 L 166.41 51.56 L 185.16 14.06" stroke="white" fill="transparent"/>
	<path d = "M 201.56 14.06 L 206.25 58.59" stroke="white" fill="transparent"/>
	<path d = "M 206.25 46.88 L 232.03 42.19" stroke="white" fill="transparent"/>
	<path d = "M 227.34 4.69 L 239.06 60.94" stroke="white" fill="transparent"/>
	<path d = "M 248.44 56.25 L 260.16 18.75 L 267.19 9.38 L 290.62 56.25" stroke="white" fill="transparent"/>
	<path d = "M 255.47 25.78 L 288.28 25.78" stroke="white" fill="transparent"/>
	<path d = "M 321.09 0.00 L 323.44 35.16 L 344.53 35.16" stroke="white" fill="transparent"/>
	<path d = "M 353.91 37.50 L 353.91 37.50" stroke="white" fill="transparent"/>
</svg>