<?xml version="1.0" encoding="UTF-8" standalone="no"?>
<!--Created with ndjsontosvg (https:https://github.com/thompson318/ndjsontosvg) 
	from the simplified Google quickdraw data set. key_id = 6621905773658112-->
<svg width="600" height="600"
	xmlns="http://www.w3.org/2000/svg">
	xmlns:ndjsontosvg="https://github.com/thompson318/ndjsontosvg"
	xmlns:quickdraw="https://quickdraw.withgoogle.com/data"
	xmlns:scikit-surgery="https://doi.org/10.1007/s11548-020-02180-5">

	<rect width="100%" height="100%" fill="black" />
	<path d = "M 0.00 147.66 L 30.47 98.44 L 84.38 39.84 L 175.78 0.00 L 267.19 18.75 L 288.28 42.19 L 311.72 100.78 L 351.56 124.22 L 433.59 142.97 L 489.84 135.94 L 506.25 121.88 L 534.38 56.25 L 543.75 53.91 L 548.44 75.00 L 532.03 114.84 L 597.66 86.72 L 581.25 121.88 L 515.62 152.34 L 499.22 175.78 L 473.44 189.84 L 346.88 239.06 L 316.41 241.41 L 159.38 234.38 L 117.19 182.81 L 14.06 164.06 L 4.69 152.34 L 4.69 133.59 L 18.75 126.56" stroke="white" fill="transparent"/>
	<path d = "M 70.31 147.66 L 250.78 210.94 L 337.50 232.03 L 382.03 229.69 L 412.50 217.97 L 475.78 171.09 L 480.47 166.41 L 466.41 166.41" stroke="white" fill="transparent"/>
	<path d = "M 161.72 215.62 L 234.38 206.25" stroke="white" fill="transparent"/>
	<path d = "M 164.06 220.31 L 215.62 232.03 L 262.50 227.34" stroke="white" fill="transparent"/>
	<path d = "M 138.28 60.94 L 138.28 60.94" stroke="white" fill="transparent"/>
	<path d = "M 147.66 65.62 L 154.69 65.62 L 154.69 79.69 L 147.66 67.97 L 171.09 72.66 L 128.91 86.72 L 140.62 67.97 L 152.34 67.97 L 152.34 79.69 L 140.62 72.66" stroke="white" fill="transparent"/>
	<path d = "M 166.41 46.88 L 194.53 60.94" stroke="white" fill="transparent"/>
</svg>