<?xml version="1.0" encoding="UTF-8" standalone="no"?>
<!--Created with ndjsontosvg (https:https://github.com/thompson318/ndjsontosvg) 
	from the simplified Google quickdraw data set. key_id = 5481717852798976-->
<svg width="600" height="600"
	xmlns="http://www.w3.org/2000/svg">
	xmlns:ndjsontosvg="https://github.com/thompson318/ndjsontosvg"
	xmlns:quickdraw="https://quickdraw.withgoogle.com/data"
	xmlns:scikit-surgery="https://doi.org/10.1007/s11548-020-02180-5">

	<rect width="100%" height="100%" fill="black" />
	<path d = "M 21.09 494.53 L 9.38 487.50 L 0.00 386.72 L 4.69 311.72 L 18.75 274.22 L 49.22 227.34 L 96.09 175.78 L 138.28 154.69 L 201.56 145.31 L 269.53 152.34 L 297.66 182.81 L 321.09 236.72 L 342.19 339.84 L 363.28 377.34 L 391.41 391.41 L 494.53 398.44 L 520.31 349.22 L 525.00 485.16 L 445.31 499.22 L 243.75 499.22 L 192.19 492.19 L 35.16 492.19 L 28.12 485.16" stroke="white" fill="transparent"/>
	<path d = "M 187.50 135.94 L 175.78 119.53 L 157.03 53.91 L 133.59 18.75" stroke="white" fill="transparent"/>
	<path d = "M 217.97 119.53 L 208.59 100.78 L 217.97 0.00" stroke="white" fill="transparent"/>
	<path d = "M 210.94 131.25 L 257.81 89.06 L 323.44 44.53" stroke="white" fill="transparent"/>
	<path d = "M 67.97 353.91 L 75.00 346.88" stroke="white" fill="transparent"/>
	<path d = "M 0.00 489.84 L 35.16 527.34 L 86.72 562.50 L 157.03 585.94 L 220.31 597.66 L 311.72 590.62 L 367.97 569.53 L 478.12 503.91 L 506.25 496.88" stroke="white" fill="transparent"/>
	<path d = "M 56.25 529.69 L 107.81 525.00 L 175.78 534.38 L 398.44 532.03" stroke="white" fill="transparent"/>
</svg>