<?xml version="1.0" encoding="UTF-8" standalone="no"?>
<!--Created with ndjsontosvg (https:https://github.com/thompson318/ndjsontosvg) 
	from the simplified Google quickdraw data set. key_id = 5514486259646464-->
<svg width="600" height="600"
	xmlns="http://www.w3.org/2000/svg">
	xmlns:ndjsontosvg="https://github.com/thompson318/ndjsontosvg"
	xmlns:quickdraw="https://quickdraw.withgoogle.com/data"
	xmlns:scikit-surgery="https://doi.org/10.1007/s11548-020-02180-5">

	<rect width="100%" height="100%" fill="black" />
	<path d = "M 318.75 246.09 L 349.22 243.75 L 485.16 199.22 L 520.31 161.72 L 539.06 121.88 L 539.06 96.09 L 520.31 77.34 L 489.84 67.97 L 473.44 70.31 L 358.59 142.97 L 307.03 157.03 L 290.62 157.03 L 241.41 128.91 L 248.44 126.56 L 239.06 121.88 L 154.69 75.00 L 117.19 75.00 L 82.03 86.72 L 46.88 117.19 L 9.38 178.12 L 0.00 203.91 L 2.34 217.97 L 21.09 239.06 L 114.84 250.78 L 316.41 246.09 L 344.53 232.03" stroke="white" fill="transparent"/>
	<path d = "M 297.66 60.94 L 318.75 321.09" stroke="white" fill="transparent"/>
	<path d = "M 316.41 316.41 L 349.22 304.69 L 529.69 274.22 L 567.19 154.69 L 595.31 105.47 L 595.31 75.00 L 585.94 56.25 L 569.53 44.53 L 489.84 7.03 L 452.34 0.00 L 428.91 4.69 L 375.00 63.28 L 269.53 70.31" stroke="white" fill="transparent"/>
</svg>