<?xml version="1.0" encoding="UTF-8" standalone="no"?>
<!--Created with ndjsontosvg (https:https://github.com/thompson318/ndjsontosvg) 
	from the simplified Google quickdraw data set. key_id = 5721177681035264-->
<svg width="600" height="600"
	xmlns="http://www.w3.org/2000/svg">
	xmlns:ndjsontosvg="https://github.com/thompson318/ndjsontosvg"
	xmlns:quickdraw="https://quickdraw.withgoogle.com/data"
	xmlns:scikit-surgery="https://doi.org/10.1007/s11548-020-02180-5">

	<rect width="100%" height="100%" fill="black" />
	<path d = "M 311.72 28.12 L 201.56 28.12 L 105.47 72.66 L 63.28 114.84 L 35.16 161.72 L 14.06 220.31 L 4.69 325.78 L 28.12 407.81 L 56.25 461.72 L 114.84 543.75 L 154.69 583.59 L 182.81 595.31 L 269.53 597.66 L 304.69 585.94 L 384.38 539.06 L 471.09 457.03 L 525.00 372.66 L 550.78 314.06 L 550.78 269.53 L 539.06 241.41 L 480.47 166.41 L 417.19 100.78 L 344.53 39.84 L 288.28 4.69 L 262.50 0.00 L 241.41 4.69" stroke="white" fill="transparent"/>
	<path d = "M 248.44 14.06 L 250.78 56.25 L 229.69 126.56 L 180.47 421.88 L 178.12 480.47 L 161.72 527.34 L 152.34 581.25 L 147.66 571.88" stroke="white" fill="transparent"/>
	<path d = "M 0.00 253.12 L 56.25 271.88 L 285.94 304.69 L 499.22 311.72" stroke="white" fill="transparent"/>
	<path d = "M 389.06 532.03 L 356.25 457.03 L 335.16 426.56 L 206.25 325.78 L 175.78 271.88 L 124.22 49.22" stroke="white" fill="transparent"/>
	<path d = "M 58.59 400.78 L 112.50 337.50 L 250.78 222.66 L 339.84 164.06 L 407.81 145.31 L 328.12 217.97" stroke="white" fill="transparent"/>
</svg>