<?xml version="1.0" encoding="UTF-8" standalone="no"?>
<!--Created with ndjsontosvg (https:https://github.com/thompson318/ndjsontosvg) 
	from the simplified Google quickdraw data set. key_id = 6055456881508352-->
<svg width="600" height="600"
	xmlns="http://www.w3.org/2000/svg">
	xmlns:ndjsontosvg="https://github.com/thompson318/ndjsontosvg"
	xmlns:quickdraw="https://quickdraw.withgoogle.com/data"
	xmlns:scikit-surgery="https://doi.org/10.1007/s11548-020-02180-5">

	<rect width="100%" height="100%" fill="black" />
	<path d = "M 461.72 117.19 L 438.28 79.69 L 396.09 42.19 L 302.34 4.69 L 210.94 4.69 L 159.38 28.12 L 112.50 70.31 L 86.72 105.47 L 60.94 168.75 L 51.56 203.91 L 51.56 271.88 L 58.59 297.66 L 93.75 356.25 L 154.69 410.16 L 196.88 433.59 L 239.06 450.00 L 311.72 464.06 L 389.06 454.69 L 478.12 398.44 L 529.69 339.84 L 548.44 307.03 L 567.19 236.72 L 564.84 196.88 L 529.69 135.94 L 461.72 86.72 L 426.56 70.31 L 349.22 63.28" stroke="white" fill="transparent"/>
	<path d = "M 482.81 105.47 L 410.16 140.62 L 328.12 194.53 L 225.00 285.94 L 150.00 372.66" stroke="white" fill="transparent"/>
	<path d = "M 72.66 49.22 L 131.25 105.47 L 335.16 262.50 L 487.50 398.44" stroke="white" fill="transparent"/>
	<path d = "M 241.41 11.72 L 239.06 65.62 L 300.00 452.34" stroke="white" fill="transparent"/>
	<path d = "M 597.66 281.25 L 243.75 232.03 L 0.00 215.62" stroke="white" fill="transparent"/>
</svg>