<?xml version="1.0" encoding="UTF-8" standalone="no"?>
<!--Created with ndjsontosvg (https:https://github.com/thompson318/ndjsontosvg) 
	from the simplified Google quickdraw data set. key_id = 5199537461264384-->
<svg width="600" height="600"
	xmlns="http://www.w3.org/2000/svg">
	xmlns:ndjsontosvg="https://github.com/thompson318/ndjsontosvg"
	xmlns:quickdraw="https://quickdraw.withgoogle.com/data"
	xmlns:scikit-surgery="https://doi.org/10.1007/s11548-020-02180-5">

	<rect width="100%" height="100%" fill="black" />
	<path d = "M 403.12 534.38 L 342.19 546.09 L 257.81 546.09 L 114.84 496.88 L 53.91 440.62 L 16.41 367.97 L 4.69 328.12 L 4.69 213.28 L 16.41 168.75 L 44.53 114.84 L 77.34 79.69 L 103.12 60.94 L 185.16 30.47 L 281.25 7.03 L 405.47 0.00 L 428.91 4.69 L 478.12 30.47 L 513.28 60.94 L 550.78 105.47 L 574.22 145.31 L 590.62 201.56 L 597.66 349.22 L 578.91 412.50 L 541.41 471.09 L 464.06 520.31 L 424.22 534.38 L 365.62 541.41" stroke="white" fill="transparent"/>
	<path d = "M 365.62 508.59 L 253.12 508.59 L 208.59 496.88 L 173.44 475.78 L 128.91 424.22 L 70.31 335.16 L 56.25 290.62 L 51.56 239.06 L 56.25 208.59 L 75.00 175.78 L 107.81 140.62 L 147.66 117.19 L 206.25 93.75 L 274.22 79.69 L 391.41 75.00 L 438.28 89.06 L 461.72 105.47 L 480.47 131.25 L 494.53 213.28 L 492.19 375.00 L 482.81 417.19 L 452.34 454.69 L 403.12 480.47 L 328.12 501.56" stroke="white" fill="transparent"/>
	<path d = "M 285.94 288.28 L 285.94 288.28" stroke="white" fill="transparent"/>
	<path d = "M 285.94 288.28 L 278.91 185.16 L 290.62 86.72" stroke="white" fill="transparent"/>
	<path d = "M 290.62 281.25 L 393.75 196.88 L 466.41 145.31" stroke="white" fill="transparent"/>
	<path d = "M 311.72 285.94 L 379.69 330.47 L 496.88 384.38" stroke="white" fill="transparent"/>
	<path d = "M 297.66 281.25 L 288.28 496.88" stroke="white" fill="transparent"/>
	<path d = "M 285.94 278.91 L 262.50 295.31 L 112.50 377.34" stroke="white" fill="transparent"/>
	<path d = "M 295.31 278.91 L 213.28 276.56 L 166.41 267.19 L 46.88 203.91" stroke="white" fill="transparent"/>
</svg>