<?xml version="1.0" encoding="UTF-8" standalone="no"?>
<!--Created with ndjsontosvg (https:https://github.com/thompson318/ndjsontosvg) 
	from the simplified Google quickdraw data set. key_id = 4767958666575872-->
<svg width="600" height="600"
	xmlns="http://www.w3.org/2000/svg">
	xmlns:ndjsontosvg="https://github.com/thompson318/ndjsontosvg"
	xmlns:quickdraw="https://quickdraw.withgoogle.com/data"
	xmlns:scikit-surgery="https://doi.org/10.1007/s11548-020-02180-5">

	<rect width="100%" height="100%" fill="black" />
	<path d = "M 290.62 9.38 L 257.81 0.00 L 187.50 18.75 L 124.22 63.28 L 58.59 135.94 L 28.12 199.22 L 9.38 264.84 L 0.00 325.78 L 0.00 386.72 L 21.09 487.50 L 58.59 546.09 L 91.41 569.53 L 135.94 588.28 L 229.69 597.66 L 325.78 578.91 L 400.78 548.44 L 431.25 525.00 L 471.09 480.47 L 499.22 419.53 L 503.91 342.19 L 459.38 145.31 L 438.28 110.16 L 407.81 89.06 L 367.97 77.34 L 323.44 77.34" stroke="white" fill="transparent"/>
	<path d = "M 234.38 300.00 L 222.66 304.69 L 236.72 307.03 L 234.38 300.00" stroke="white" fill="transparent"/>
	<path d = "M 365.62 39.84 L 337.50 65.62 L 292.97 147.66 L 260.16 241.41 L 253.12 295.31" stroke="white" fill="transparent"/>
	<path d = "M 260.16 335.16 L 290.62 330.47 L 328.12 339.84 L 450.00 414.84" stroke="white" fill="transparent"/>
	<path d = "M 260.16 335.16 L 257.81 562.50" stroke="white" fill="transparent"/>
	<path d = "M 264.84 321.09 L 248.44 316.41 L 236.72 321.09 L 241.41 344.53" stroke="white" fill="transparent"/>
	<path d = "M 236.72 332.81 L 217.97 328.12 L 178.12 344.53 L 28.12 457.03" stroke="white" fill="transparent"/>
	<path d = "M 239.06 292.97 L 171.09 236.72 L 84.38 114.84" stroke="white" fill="transparent"/>
	<path d = "M 246.09 307.03 L 232.03 302.34 L 220.31 311.72 L 220.31 323.44 L 232.03 318.75 L 232.03 309.38" stroke="white" fill="transparent"/>
</svg>