<?xml version="1.0" encoding="UTF-8" standalone="no"?>
<!--Created with ndjsontosvg (https:https://github.com/thompson318/ndjsontosvg) 
	from the simplified Google quickdraw data set. key_id = 6582779930214400-->
<svg width="600" height="600"
	xmlns="http://www.w3.org/2000/svg">
	xmlns:ndjsontosvg="https://github.com/thompson318/ndjsontosvg"
	xmlns:quickdraw="https://quickdraw.withgoogle.com/data"
	xmlns:scikit-surgery="https://doi.org/10.1007/s11548-020-02180-5">

	<rect width="100%" height="100%" fill="black" />
	<path d = "M 290.62 67.97 L 210.94 49.22 L 138.28 58.59 L 77.34 96.09 L 30.47 159.38 L 4.69 241.41 L 0.00 321.09 L 16.41 398.44 L 39.84 461.72 L 67.97 503.91 L 126.56 555.47 L 187.50 583.59 L 255.47 597.66 L 363.28 590.62 L 435.94 562.50 L 487.50 527.34 L 536.72 471.09 L 574.22 396.09 L 585.94 349.22 L 585.94 302.34 L 576.56 262.50 L 529.69 150.00 L 487.50 77.34 L 459.38 37.50 L 421.88 9.38 L 370.31 0.00 L 311.72 7.03" stroke="white" fill="transparent"/>
	<path d = "M 236.72 234.38 L 213.28 246.09 L 206.25 295.31 L 227.34 344.53 L 264.84 386.72 L 302.34 400.78 L 342.19 400.78 L 365.62 389.06 L 400.78 344.53 L 412.50 309.38 L 405.47 278.91 L 363.28 220.31 L 323.44 203.91 L 255.47 201.56" stroke="white" fill="transparent"/>
	<path d = "M 217.97 208.59 L 164.06 161.72 L 133.59 145.31" stroke="white" fill="transparent"/>
	<path d = "M 175.78 288.28 L 135.94 288.28 L 121.88 300.00" stroke="white" fill="transparent"/>
	<path d = "M 192.19 435.94 L 135.94 534.38" stroke="white" fill="transparent"/>
	<path d = "M 255.47 435.94 L 300.00 567.19" stroke="white" fill="transparent"/>
	<path d = "M 328.12 435.94 L 377.34 492.19 L 431.25 522.66" stroke="white" fill="transparent"/>
	<path d = "M 407.81 400.78 L 435.94 410.16 L 496.88 412.50 L 529.69 405.47 L 529.69 398.44" stroke="white" fill="transparent"/>
	<path d = "M 428.91 309.38 L 482.81 288.28 L 503.91 274.22 L 508.59 260.16" stroke="white" fill="transparent"/>
	<path d = "M 398.44 208.59 L 450.00 147.66 L 459.38 119.53 L 452.34 100.78" stroke="white" fill="transparent"/>
	<path d = "M 297.66 161.72 L 318.75 110.16 L 311.72 42.19" stroke="white" fill="transparent"/>
</svg>