<?xml version="1.0" encoding="UTF-8" standalone="no"?>
<!--Created with ndjsontosvg (https:https://github.com/thompson318/ndjsontosvg) 
	from the simplified Google quickdraw data set. key_id = 4705154869755904-->
<svg width="600" height="600"
	xmlns="http://www.w3.org/2000/svg">
	xmlns:ndjsontosvg="https://github.com/thompson318/ndjsontosvg"
	xmlns:quickdraw="https://quickdraw.withgoogle.com/data"
	xmlns:scikit-surgery="https://doi.org/10.1007/s11548-020-02180-5">

	<rect width="100%" height="100%" fill="black" />
	<path d = "M 321.09 11.72 L 243.75 0.00 L 121.88 35.16 L 96.09 49.22 L 35.16 124.22 L 9.38 175.78 L 7.03 213.28 L 30.47 248.44 L 98.44 323.44 L 142.97 358.59 L 192.19 382.03 L 269.53 386.72 L 351.56 377.34 L 468.75 335.16 L 529.69 262.50 L 546.09 222.66 L 548.44 201.56 L 534.38 145.31 L 349.22 14.06 L 323.44 4.69" stroke="white" fill="transparent"/>
	<path d = "M 229.69 7.03 L 232.03 42.19 L 220.31 110.16 L 220.31 283.59 L 250.78 367.97" stroke="white" fill="transparent"/>
	<path d = "M 0.00 201.56 L 199.22 225.00 L 318.75 253.12 L 529.69 264.84 L 597.66 248.44" stroke="white" fill="transparent"/>
	<path d = "M 105.47 86.72 L 365.62 318.75 L 386.72 349.22" stroke="white" fill="transparent"/>
	<path d = "M 98.44 314.06 L 213.28 217.97 L 274.22 194.53 L 349.22 142.97 L 400.78 121.88 L 468.75 79.69" stroke="white" fill="transparent"/>
</svg>