<?xml version="1.0" encoding="UTF-8" standalone="no"?>
<!--Created with ndjsontosvg (https:https://github.com/thompson318/ndjsontosvg) 
	from the simplified Google quickdraw data set. key_id = 5143411214516224-->
<svg width="600" height="600"
	xmlns="http://www.w3.org/2000/svg">
	xmlns:ndjsontosvg="https://github.com/thompson318/ndjsontosvg"
	xmlns:quickdraw="https://quickdraw.withgoogle.com/data"
	xmlns:scikit-surgery="https://doi.org/10.1007/s11548-020-02180-5">

	<rect width="100%" height="100%" fill="black" />
	<path d = "M 257.81 44.53 L 225.00 42.19 L 142.97 65.62 L 53.91 142.97 L 9.38 248.44 L 4.69 351.56 L 37.50 431.25 L 79.69 487.50 L 126.56 529.69 L 196.88 560.16 L 260.16 576.56 L 335.16 574.22 L 466.41 510.94 L 513.28 464.06 L 548.44 405.47 L 567.19 342.19 L 574.22 285.94 L 562.50 217.97 L 532.03 133.59 L 503.91 86.72 L 447.66 35.16 L 393.75 11.72 L 342.19 2.34 L 260.16 14.06 L 199.22 30.47 L 159.38 46.88 L 119.53 91.41" stroke="white" fill="transparent"/>
	<path d = "M 246.09 7.03 L 239.06 178.12 L 248.44 281.25" stroke="white" fill="transparent"/>
	<path d = "M 332.81 35.16 L 328.12 133.59 L 335.16 330.47" stroke="white" fill="transparent"/>
	<path d = "M 264.84 25.78 L 248.44 28.12 L 241.41 60.94 L 229.69 185.16 L 227.34 428.91 L 232.03 496.88" stroke="white" fill="transparent"/>
	<path d = "M 358.59 0.00 L 349.22 30.47 L 323.44 307.03 L 321.09 412.50 L 335.16 508.59" stroke="white" fill="transparent"/>
	<path d = "M 0.00 225.00 L 229.69 208.59 L 597.66 217.97" stroke="white" fill="transparent"/>
	<path d = "M 35.16 358.59 L 72.66 339.84 L 152.34 323.44 L 285.94 307.03 L 532.03 295.31 L 571.88 283.59" stroke="white" fill="transparent"/>
	<path d = "M 276.56 227.34 L 262.50 232.03 L 276.56 255.47 L 300.00 274.22 L 321.09 276.56 L 346.88 241.41 L 332.81 227.34 L 267.19 227.34 L 255.47 248.44 L 262.50 274.22 L 278.91 285.94 L 314.06 278.91 L 318.75 262.50 L 295.31 227.34 L 278.91 222.66 L 260.16 227.34 L 246.09 246.09 L 248.44 267.19 L 260.16 292.97 L 278.91 297.66 L 290.62 285.94 L 292.97 271.88 L 274.22 243.75" stroke="white" fill="transparent"/>
	<path d = "M 304.69 227.34 L 295.31 243.75 L 295.31 276.56 L 304.69 290.62 L 300.00 271.88 L 257.81 241.41" stroke="white" fill="transparent"/>
	<path d = "M 297.66 65.62 L 285.94 96.09 L 283.59 133.59 L 288.28 253.12" stroke="white" fill="transparent"/>
</svg>