<?xml version="1.0" encoding="UTF-8" standalone="no"?>
<!--Created with ndjsontosvg (https:https://github.com/thompson318/ndjsontosvg) 
	from the simplified Google quickdraw data set. key_id = 5590887688044544-->
<svg width="600" height="600"
	xmlns="http://www.w3.org/2000/svg">
	xmlns:ndjsontosvg="https://github.com/thompson318/ndjsontosvg"
	xmlns:quickdraw="https://quickdraw.withgoogle.com/data"
	xmlns:scikit-surgery="https://doi.org/10.1007/s11548-020-02180-5">

	<rect width="100%" height="100%" fill="black" />
	<path d = "M 560.16 128.91 L 543.75 103.12 L 503.91 70.31 L 435.94 28.12 L 396.09 11.72 L 276.56 0.00 L 175.78 11.72 L 100.78 39.84 L 51.56 77.34 L 28.12 107.81 L 2.34 168.75 L 0.00 196.88 L 11.72 295.31 L 28.12 330.47 L 65.62 377.34 L 135.94 445.31 L 161.72 459.38 L 288.28 499.22 L 386.72 503.91 L 461.72 478.12 L 532.03 407.81 L 597.66 255.47 L 590.62 206.25" stroke="white" fill="transparent"/>
	<path d = "M 578.91 175.78 L 560.16 126.56" stroke="white" fill="transparent"/>
	<path d = "M 400.78 168.75 L 382.03 135.94 L 304.69 93.75 L 236.72 84.38 L 154.69 98.44 L 110.16 142.97 L 89.06 189.84 L 86.72 250.78 L 105.47 295.31 L 138.28 332.81 L 222.66 379.69 L 332.81 393.75 L 396.09 379.69 L 424.22 356.25 L 445.31 316.41 L 452.34 241.41 L 431.25 171.09 L 410.16 154.69 L 389.06 150.00" stroke="white" fill="transparent"/>
	<path d = "M 264.84 234.38 L 276.56 217.97 L 302.34 208.59 L 316.41 222.66 L 316.41 253.12 L 297.66 264.84 L 288.28 260.16 L 269.53 225.00" stroke="white" fill="transparent"/>
	<path d = "M 307.03 208.59 L 332.81 182.81 L 379.69 159.38" stroke="white" fill="transparent"/>
	<path d = "M 323.44 236.72 L 360.94 274.22 L 412.50 375.00" stroke="white" fill="transparent"/>
	<path d = "M 292.97 264.84 L 271.88 304.69 L 203.91 377.34 L 201.56 367.97" stroke="white" fill="transparent"/>
	<path d = "M 269.53 232.03 L 229.69 217.97 L 152.34 225.00 L 107.81 236.72" stroke="white" fill="transparent"/>
	<path d = "M 285.94 206.25 L 229.69 79.69" stroke="white" fill="transparent"/>
</svg>