<?xml version="1.0" encoding="UTF-8" standalone="no"?>
<!--Created with ndjsontosvg (https:https://github.com/thompson318/ndjsontosvg) 
	from the simplified Google quickdraw data set. key_id = 5474370002616320-->
<svg width="600" height="600"
	xmlns="http://www.w3.org/2000/svg">
	xmlns:ndjsontosvg="https://github.com/thompson318/ndjsontosvg"
	xmlns:quickdraw="https://quickdraw.withgoogle.com/data"
	xmlns:scikit-surgery="https://doi.org/10.1007/s11548-020-02180-5">

	<rect width="100%" height="100%" fill="black" />
	<path d = "M 267.19 145.31 L 257.81 138.28 L 213.28 140.62 L 189.84 166.41 L 189.84 210.94 L 210.94 234.38 L 227.34 239.06 L 253.12 239.06 L 276.56 222.66 L 290.62 194.53 L 290.62 168.75 L 264.84 131.25" stroke="white" fill="transparent"/>
	<path d = "M 264.84 131.25 L 431.25 75.00" stroke="white" fill="transparent"/>
	<path d = "M 431.25 60.94 L 431.25 178.12 L 421.88 182.81 L 382.03 171.09 L 330.47 171.09 L 274.22 185.16 L 332.81 201.56 L 424.22 250.78 L 426.56 260.16 L 353.91 339.84 L 328.12 295.31 L 264.84 229.69 L 264.84 311.72 L 283.59 370.31 L 175.78 375.00 L 199.22 227.34 L 58.59 358.59 L 42.19 344.53 L 9.38 262.50 L 150.00 234.38 L 182.81 222.66 L 199.22 208.59 L 189.84 192.19 L 182.81 189.84 L 0.00 189.84 L 46.88 70.31 L 53.91 67.97 L 103.12 103.12 L 185.16 133.59 L 150.00 58.59 L 142.97 21.09 L 150.00 9.38 L 241.41 0.00 L 257.81 152.34" stroke="white" fill="transparent"/>
	<path d = "M 213.28 372.66 L 189.84 543.75 L 189.84 595.31 L 241.41 597.66 L 246.09 588.28 L 236.72 529.69 L 236.72 379.69" stroke="white" fill="transparent"/>
</svg>