<?xml version="1.0" encoding="UTF-8" standalone="no"?>
<!--Created with ndjsontosvg (https:https://github.com/thompson318/ndjsontosvg) 
	from the simplified Google quickdraw data set. key_id = 6430070744809472-->
<svg width="600" height="600"
	xmlns="http://www.w3.org/2000/svg">
	xmlns:ndjsontosvg="https://github.com/thompson318/ndjsontosvg"
	xmlns:quickdraw="https://quickdraw.withgoogle.com/data"
	xmlns:scikit-surgery="https://doi.org/10.1007/s11548-020-02180-5">

	<rect width="100%" height="100%" fill="black" />
	<path d = "M 89.06 292.97 L 91.41 229.69 L 152.34 4.69 L 161.72 0.00 L 175.78 18.75 L 201.56 82.03 L 213.28 159.38 L 201.56 260.16 L 208.59 269.53 L 248.44 232.03 L 363.28 65.62 L 410.16 30.47 L 419.53 30.47 L 426.56 44.53 L 421.88 86.72 L 389.06 182.81 L 304.69 311.72 L 363.28 307.03 L 396.09 314.06 L 417.19 330.47 L 419.53 346.88 L 412.50 358.59 L 365.62 391.41 L 300.00 421.88 L 246.09 426.56 L 131.25 410.16" stroke="white" fill="transparent"/>
	<path d = "M 93.75 281.25 L 51.56 304.69 L 4.69 372.66 L 2.34 417.19 L 11.72 438.28 L 28.12 450.00 L 65.62 461.72 L 112.50 454.69 L 236.72 384.38" stroke="white" fill="transparent"/>
	<path d = "M 196.88 342.19 L 199.22 353.91 L 215.62 375.00 L 248.44 382.03 L 262.50 360.94 L 262.50 332.81 L 246.09 307.03 L 225.00 297.66 L 199.22 295.31 L 173.44 311.72 L 168.75 321.09 L 180.47 353.91" stroke="white" fill="transparent"/>
	<path d = "M 203.91 414.84 L 182.81 480.47 L 150.00 553.12 L 124.22 590.62 L 196.88 574.22 L 222.66 583.59 L 262.50 574.22 L 215.62 438.28 L 236.72 450.00 L 365.62 585.94" stroke="white" fill="transparent"/>
	<path d = "M 189.84 405.47 L 239.06 457.03 L 314.06 557.81 L 283.59 569.53 L 152.34 590.62 L 173.44 501.56 L 217.97 393.75 L 154.69 522.66 L 131.25 595.31 L 208.59 597.66 L 290.62 588.28 L 206.25 398.44 L 274.22 494.53 L 304.69 595.31" stroke="white" fill="transparent"/>
</svg>