<?xml version="1.0" encoding="UTF-8" standalone="no"?>
<!--Created with ndjsontosvg (https:https://github.com/thompson318/ndjsontosvg) 
	from the simplified Google quickdraw data set. key_id = 6398361886261248-->
<svg width="600" height="600"
	xmlns="http://www.w3.org/2000/svg">
	xmlns:ndjsontosvg="https://github.com/thompson318/ndjsontosvg"
	xmlns:quickdraw="https://quickdraw.withgoogle.com/data"
	xmlns:scikit-surgery="https://doi.org/10.1007/s11548-020-02180-5">

	<rect width="100%" height="100%" fill="black" />
	<path d = "M 58.59 32.81 L 72.66 72.66 L 161.72 154.69" stroke="white" fill="transparent"/>
	<path d = "M 157.03 154.69 L 180.47 150.00 L 236.72 110.16 L 292.97 51.56" stroke="white" fill="transparent"/>
	<path d = "M 154.69 161.72 L 128.91 199.22 L 67.97 257.81" stroke="white" fill="transparent"/>
	<path d = "M 157.03 157.03 L 164.06 171.09 L 239.06 196.88 L 285.94 262.50" stroke="white" fill="transparent"/>
	<path d = "M 142.97 154.69 L 114.84 173.44 L 0.00 180.47" stroke="white" fill="transparent"/>
	<path d = "M 168.75 142.97 L 180.47 119.53 L 206.25 25.78 L 210.94 4.69 L 206.25 0.00" stroke="white" fill="transparent"/>
	<path d = "M 168.75 161.72 L 173.44 171.09 L 173.44 236.72 L 159.38 360.94 L 159.38 468.75 L 147.66 597.66" stroke="white" fill="transparent"/>
</svg>