<?xml version="1.0" encoding="UTF-8" standalone="no"?>
<!--Created with ndjsontosvg (https:https://github.com/thompson318/ndjsontosvg) 
	from the simplified Google quickdraw data set. key_id = 4519375623159808-->
<svg width="600" height="600"
	xmlns="http://www.w3.org/2000/svg">
	xmlns:ndjsontosvg="https://github.com/thompson318/ndjsontosvg"
	xmlns:quickdraw="https://quickdraw.withgoogle.com/data"
	xmlns:scikit-surgery="https://doi.org/10.1007/s11548-020-02180-5">

	<rect width="100%" height="100%" fill="black" />
	<path d = "M 0.00 564.84 L 271.88 567.19 L 433.59 585.94 L 93.75 588.28 L 75.00 592.97 L 213.28 583.59 L 147.66 567.19 L 51.56 567.19 L 159.38 569.53 L 246.09 583.59 L 194.53 564.84 L 147.66 562.50 L 70.31 562.50 L 330.47 595.31" stroke="white" fill="transparent"/>
	<path d = "M 203.91 555.47 L 232.03 508.59 L 257.81 431.25 L 271.88 300.00 L 267.19 196.88" stroke="white" fill="transparent"/>
	<path d = "M 199.22 63.28 L 194.53 175.78 L 201.56 189.84 L 229.69 213.28 L 260.16 225.00 L 370.31 225.00 L 433.59 23.44 L 433.59 16.41 L 426.56 18.75" stroke="white" fill="transparent"/>
	<path d = "M 419.53 79.69 L 410.16 138.28 L 370.31 178.12 L 281.25 203.91 L 248.44 201.56 L 241.41 159.38 L 232.03 0.00" stroke="white" fill="transparent"/>
</svg>