<?xml version="1.0" encoding="UTF-8" standalone="no"?>
<!--Created with ndjsontosvg (https:https://github.com/thompson318/ndjsontosvg) 
	from the simplified Google quickdraw data set. key_id = 6093780153270272-->
<svg width="600" height="600"
	xmlns="http://www.w3.org/2000/svg">
	xmlns:ndjsontosvg="https://github.com/thompson318/ndjsontosvg"
	xmlns:quickdraw="https://quickdraw.withgoogle.com/data"
	xmlns:scikit-surgery="https://doi.org/10.1007/s11548-020-02180-5">

	<rect width="100%" height="100%" fill="black" />
	<path d = "M 93.75 67.97 L 98.44 318.75 L 44.53 337.50 L 25.78 351.56 L 9.38 382.03 L 0.00 428.91 L 9.38 513.28 L 18.75 555.47 L 32.81 574.22 L 70.31 590.62 L 110.16 597.66 L 285.94 581.25 L 328.12 555.47 L 346.88 517.97 L 325.78 457.03 L 283.59 400.78 L 255.47 379.69 L 173.44 337.50 L 157.03 206.25 L 164.06 96.09 L 150.00 63.28 L 105.47 60.94 L 91.41 23.44 L 96.09 9.38 L 133.59 0.00 L 157.03 0.00 L 171.09 9.38 L 171.09 65.62 L 112.50 67.97 L 110.16 82.03" stroke="white" fill="transparent"/>
</svg>