<?xml version="1.0" encoding="UTF-8" standalone="no"?>
<!--Created with ndjsontosvg (https:https://github.com/thompson318/ndjsontosvg) 
	from the simplified Google quickdraw data set. key_id = 5995799622189056-->
<svg width="600" height="600"
	xmlns="http://www.w3.org/2000/svg">
	xmlns:ndjsontosvg="https://github.com/thompson318/ndjsontosvg"
	xmlns:quickdraw="https://quickdraw.withgoogle.com/data"
	xmlns:scikit-surgery="https://doi.org/10.1007/s11548-020-02180-5">

	<rect width="100%" height="100%" fill="black" />
	<path d = "M 91.41 56.25 L 98.44 157.03" stroke="white" fill="transparent"/>
	<path d = "M 173.44 58.59 L 187.50 152.34" stroke="white" fill="transparent"/>
	<path d = "M 105.47 164.06 L 56.25 171.09 L 35.16 182.81 L 14.06 206.25 L 2.34 243.75 L 0.00 367.97 L 25.78 520.31" stroke="white" fill="transparent"/>
	<path d = "M 196.88 157.03 L 201.56 147.66 L 213.28 145.31 L 267.19 150.00 L 285.94 175.78 L 292.97 196.88 L 300.00 407.81 L 285.94 529.69 L 271.88 548.44 L 232.03 571.88 L 138.28 597.66 L 91.41 597.66 L 58.59 583.59 L 37.50 555.47 L 25.78 517.97 L 21.09 466.41" stroke="white" fill="transparent"/>
	<path d = "M 175.78 51.56 L 215.62 49.22 L 243.75 32.81 L 239.06 11.72 L 150.00 0.00 L 98.44 14.06" stroke="white" fill="transparent"/>
</svg>