<?xml version="1.0" encoding="UTF-8" standalone="no"?>
<!--Created with ndjsontosvg (https:https://github.com/thompson318/ndjsontosvg) 
	from the simplified Google quickdraw data set. key_id = 4723007450775552-->
<svg width="600" height="600"
	xmlns="http://www.w3.org/2000/svg">
	xmlns:ndjsontosvg="https://github.com/thompson318/ndjsontosvg"
	xmlns:quickdraw="https://quickdraw.withgoogle.com/data"
	xmlns:scikit-surgery="https://doi.org/10.1007/s11548-020-02180-5">

	<rect width="100%" height="100%" fill="black" />
	<path d = "M 42.19 196.88 L 39.84 349.22 L 51.56 440.62" stroke="white" fill="transparent"/>
	<path d = "M 42.19 185.16 L 51.56 168.75 L 86.72 164.06 L 96.09 98.44 L 107.81 56.25 L 138.28 11.72 L 147.66 2.34 L 180.47 0.00 L 196.88 14.06 L 203.91 49.22 L 203.91 145.31 L 236.72 185.16 L 246.09 220.31 L 255.47 433.59 L 276.56 592.97 L 199.22 597.66 L 138.28 583.59 L 53.91 574.22 L 28.12 562.50 L 9.38 536.72 L 2.34 517.97 L 0.00 480.47 L 32.81 332.81 L 56.25 271.88 L 58.59 222.66" stroke="white" fill="transparent"/>
</svg>