<?xml version="1.0" encoding="UTF-8" standalone="no"?>
<!--Created with ndjsontosvg (https:https://github.com/thompson318/ndjsontosvg) 
	from the simplified Google quickdraw data set. key_id = 5756565929852928-->
<svg width="600" height="600"
	xmlns="http://www.w3.org/2000/svg">
	xmlns:ndjsontosvg="https://github.com/thompson318/ndjsontosvg"
	xmlns:quickdraw="https://quickdraw.withgoogle.com/data"
	xmlns:scikit-surgery="https://doi.org/10.1007/s11548-020-02180-5">

	<rect width="100%" height="100%" fill="black" />
	<path d = "M 14.06 0.00 L 2.34 16.41 L 2.34 121.88 L 28.12 171.09 L 72.66 206.25 L 175.78 234.38 L 292.97 234.38 L 400.78 182.81 L 419.53 150.00" stroke="white" fill="transparent"/>
	<path d = "M 51.56 18.75 L 70.31 11.72 L 332.81 11.72 L 412.50 25.78 L 419.53 72.66 L 405.47 126.56" stroke="white" fill="transparent"/>
	<path d = "M 164.06 243.75 L 164.06 311.72 L 145.31 445.31 L 128.91 480.47 L 42.19 548.44 L 28.12 571.88 L 30.47 585.94 L 44.53 592.97 L 79.69 597.66 L 166.41 592.97 L 206.25 578.91 L 243.75 548.44 L 241.41 513.28 L 220.31 433.59 L 217.97 339.84 L 246.09 248.44" stroke="white" fill="transparent"/>
</svg>