<?xml version="1.0" encoding="UTF-8" standalone="no"?>
<!--Created with ndjsontosvg (https:https://github.com/thompson318/ndjsontosvg) 
	from the simplified Google quickdraw data set. key_id = 4698380599033856-->
<svg width="600" height="600"
	xmlns="http://www.w3.org/2000/svg">
	xmlns:ndjsontosvg="https://github.com/thompson318/ndjsontosvg"
	xmlns:quickdraw="https://quickdraw.withgoogle.com/data"
	xmlns:scikit-surgery="https://doi.org/10.1007/s11548-020-02180-5">

	<rect width="100%" height="100%" fill="black" />
	<path d = "M 213.28 0.00 L 86.72 11.72 L 37.50 28.12 L 18.75 44.53 L 14.06 103.12 L 25.78 117.19 L 196.88 121.88 L 234.38 105.47 L 262.50 79.69 L 276.56 51.56 L 274.22 44.53 L 246.09 28.12 L 196.88 25.78" stroke="white" fill="transparent"/>
	<path d = "M 18.75 56.25 L 7.03 82.03 L 0.00 157.03 L 2.34 201.56 L 11.72 229.69 L 37.50 260.16 L 84.38 288.28 L 171.09 297.66 L 210.94 281.25 L 253.12 229.69 L 274.22 152.34 L 274.22 89.06 L 262.50 58.59" stroke="white" fill="transparent"/>
	<path d = "M 86.72 281.25 L 117.19 295.31 L 133.59 323.44 L 142.97 358.59 L 138.28 433.59 L 124.22 480.47 L 98.44 525.00 L 44.53 578.91" stroke="white" fill="transparent"/>
	<path d = "M 201.56 290.62 L 175.78 457.03 L 180.47 515.62 L 220.31 567.19 L 255.47 581.25 L 225.00 590.62 L 65.62 597.66" stroke="white" fill="transparent"/>
</svg>