<?xml version="1.0" encoding="UTF-8" standalone="no"?>
<!--Created with ndjsontosvg (https:https://github.com/thompson318/ndjsontosvg) 
	from the simplified Google quickdraw data set. key_id = 5011772899590144-->
<svg width="600" height="600"
	xmlns="http://www.w3.org/2000/svg">
	xmlns:ndjsontosvg="https://github.com/thompson318/ndjsontosvg"
	xmlns:quickdraw="https://quickdraw.withgoogle.com/data"
	xmlns:scikit-surgery="https://doi.org/10.1007/s11548-020-02180-5">

	<rect width="100%" height="100%" fill="black" />
	<path d = "M 349.22 7.03 L 229.69 4.69 L 131.25 16.41 L 44.53 51.56 L 14.06 75.00 L 9.38 89.06 L 112.50 107.81 L 241.41 107.81 L 358.59 84.38 L 389.06 70.31 L 398.44 56.25 L 391.41 35.16 L 360.94 11.72 L 325.78 0.00" stroke="white" fill="transparent"/>
	<path d = "M 4.69 84.38 L 18.75 189.84 L 32.81 215.62 L 91.41 264.84 L 121.88 278.91 L 152.34 290.62 L 206.25 290.62 L 276.56 267.19 L 321.09 243.75 L 346.88 217.97 L 382.03 124.22 L 386.72 72.66" stroke="white" fill="transparent"/>
	<path d = "M 178.12 304.69 L 171.09 553.12" stroke="white" fill="transparent"/>
	<path d = "M 171.09 553.12 L 119.53 553.12 L 14.06 571.88 L 0.00 578.91 L 21.09 592.97 L 292.97 597.66 L 349.22 574.22 L 328.12 567.19 L 187.50 560.16 L 133.59 546.09" stroke="white" fill="transparent"/>
</svg>