<?xml version="1.0" encoding="UTF-8" standalone="no"?>
<!--Created with ndjsontosvg (https:https://github.com/thompson318/ndjsontosvg) 
	from the simplified Google quickdraw data set. key_id = 5709257854943232-->
<svg width="600" height="600"
	xmlns="http://www.w3.org/2000/svg">
	xmlns:ndjsontosvg="https://github.com/thompson318/ndjsontosvg"
	xmlns:quickdraw="https://quickdraw.withgoogle.com/data"
	xmlns:scikit-surgery="https://doi.org/10.1007/s11548-020-02180-5">

	<rect width="100%" height="100%" fill="black" />
	<path d = "M 37.50 11.72 L 9.38 79.69 L 0.00 133.59 L 14.06 208.59 L 77.34 300.00 L 121.88 332.81 L 182.81 365.62 L 199.22 389.06 L 201.56 414.84 L 199.22 527.34 L 86.72 560.16 L 77.34 574.22 L 82.03 588.28 L 311.72 597.66 L 389.06 585.94 L 403.12 571.88 L 386.72 557.81 L 335.16 534.38 L 267.19 532.03 L 248.44 501.56 L 239.06 468.75 L 236.72 421.88 L 278.91 393.75 L 349.22 367.97 L 426.56 318.75 L 461.72 269.53 L 513.28 142.97 L 522.66 46.88 L 506.25 37.50 L 349.22 14.06 L 161.72 14.06 L 89.06 0.00 L 39.84 0.00" stroke="white" fill="transparent"/>
	<path d = "M 63.28 236.72 L 75.00 215.62 L 131.25 173.44 L 145.31 173.44 L 164.06 194.53" stroke="white" fill="transparent"/>
</svg>