<?xml version="1.0" encoding="UTF-8" standalone="no"?>
<!--Created with ndjsontosvg (https:https://github.com/thompson318/ndjsontosvg) 
	from the simplified Google quickdraw data set. key_id = 6011224099651584-->
<svg width="600" height="600"
	xmlns="http://www.w3.org/2000/svg">
	xmlns:ndjsontosvg="https://github.com/thompson318/ndjsontosvg"
	xmlns:quickdraw="https://quickdraw.withgoogle.com/data"
	xmlns:scikit-surgery="https://doi.org/10.1007/s11548-020-02180-5">

	<rect width="100%" height="100%" fill="black" />
	<path d = "M 227.34 7.03 L 215.62 7.03 L 189.84 53.91 L 189.84 70.31 L 201.56 86.72 L 255.47 110.16 L 278.91 112.50 L 300.00 103.12 L 316.41 84.38 L 311.72 67.97 L 276.56 18.75 L 241.41 0.00 L 225.00 7.03" stroke="white" fill="transparent"/>
	<path d = "M 203.91 9.38 L 159.38 21.09 L 42.19 89.06 L 25.78 105.47 L 2.34 140.62 L 0.00 159.38 L 4.69 178.12 L 23.44 196.88 L 79.69 225.00 L 142.97 239.06 L 536.72 241.41 L 571.88 232.03 L 588.28 213.28 L 597.66 152.34 L 597.66 107.81 L 590.62 98.44 L 457.03 35.16 L 304.69 9.38" stroke="white" fill="transparent"/>
	<path d = "M 194.53 75.00 L 152.34 89.06 L 110.16 119.53 L 84.38 180.47 L 84.38 194.53 L 91.41 201.56 L 152.34 232.03" stroke="white" fill="transparent"/>
	<path d = "M 316.41 63.28 L 433.59 63.28 L 450.00 75.00 L 485.16 131.25 L 496.88 194.53 L 487.50 213.28 L 450.00 229.69" stroke="white" fill="transparent"/>
	<path d = "M 96.09 175.78 L 234.38 178.12 L 290.62 192.19 L 335.16 192.19 L 487.50 166.41" stroke="white" fill="transparent"/>
</svg>