<?xml version="1.0" encoding="UTF-8" standalone="no"?>
<!--Created with ndjsontosvg (https:https://github.com/thompson318/ndjsontosvg) 
	from the simplified Google quickdraw data set. key_id = 6639726666711040-->
<svg width="600" height="600"
	xmlns="http://www.w3.org/2000/svg">
	xmlns:ndjsontosvg="https://github.com/thompson318/ndjsontosvg"
	xmlns:quickdraw="https://quickdraw.withgoogle.com/data"
	xmlns:scikit-surgery="https://doi.org/10.1007/s11548-020-02180-5">

	<rect width="100%" height="100%" fill="black" />
	<path d = "M 208.59 72.66 L 25.78 79.69 L 4.69 91.41 L 0.00 105.47 L 0.00 150.00 L 7.03 157.03 L 75.00 157.03 L 203.91 138.28" stroke="white" fill="transparent"/>
	<path d = "M 217.97 79.69 L 217.97 49.22 L 227.34 25.78 L 241.41 14.06 L 300.00 0.00 L 346.88 4.69 L 379.69 30.47 L 396.09 84.38 L 391.41 100.78 L 363.28 135.94" stroke="white" fill="transparent"/>
	<path d = "M 194.53 138.28 L 215.62 178.12 L 267.19 187.50 L 330.47 171.09 L 372.66 121.88" stroke="white" fill="transparent"/>
	<path d = "M 396.09 56.25 L 595.31 56.25 L 581.25 140.62 L 360.94 135.94" stroke="white" fill="transparent"/>
	<path d = "M 292.97 98.44 L 309.38 9.38" stroke="white" fill="transparent"/>
	<path d = "M 297.66 100.78 L 370.31 91.41" stroke="white" fill="transparent"/>
</svg>