<?xml version="1.0" encoding="UTF-8" standalone="no"?>
<!--Created with ndjsontosvg (https:https://github.com/thompson318/ndjsontosvg) 
	from the simplified Google quickdraw data set. key_id = 4626117702975488-->
<svg width="600" height="600"
	xmlns="http://www.w3.org/2000/svg">
	xmlns:ndjsontosvg="https://github.com/thompson318/ndjsontosvg"
	xmlns:quickdraw="https://quickdraw.withgoogle.com/data"
	xmlns:scikit-surgery="https://doi.org/10.1007/s11548-020-02180-5">

	<rect width="100%" height="100%" fill="black" />
	<path d = "M 131.25 0.00 L 114.84 56.25 L 100.78 161.72 L 107.81 239.06" stroke="white" fill="transparent"/>
	<path d = "M 187.50 32.81 L 189.84 49.22 L 166.41 171.09 L 173.44 208.59 L 140.62 267.19" stroke="white" fill="transparent"/>
	<path d = "M 98.44 0.00 L 135.94 21.09 L 182.81 23.44 L 222.66 42.19" stroke="white" fill="transparent"/>
	<path d = "M 112.50 220.31 L 121.88 213.28 L 150.00 217.97 L 185.16 239.06" stroke="white" fill="transparent"/>
	<path d = "M 145.31 236.72 L 117.19 227.34 L 89.06 229.69 L 30.47 253.12 L 2.34 285.94 L 2.34 314.06 L 14.06 335.16 L 44.53 356.25 L 84.38 375.00 L 112.50 375.00 L 135.94 365.62 L 178.12 318.75 L 178.12 290.62 L 161.72 250.78 L 126.56 225.00 L 114.84 232.03" stroke="white" fill="transparent"/>
	<path d = "M 51.56 363.28 L 70.31 389.06 L 77.34 428.91 L 77.34 506.25 L 72.66 501.56" stroke="white" fill="transparent"/>
	<path d = "M 128.91 346.88 L 135.94 367.97 L 135.94 407.81 L 126.56 487.50" stroke="white" fill="transparent"/>
	<path d = "M 67.97 485.16 L 140.62 475.78" stroke="white" fill="transparent"/>
	<path d = "M 103.12 232.03 L 103.12 297.66 L 119.53 302.34 L 150.00 292.97" stroke="white" fill="transparent"/>
	<path d = "M 70.31 480.47 L 58.59 508.59 L 58.59 576.56 L 75.00 592.97 L 103.12 595.31 L 140.62 571.88 L 157.03 525.00 L 147.66 473.44 L 140.62 464.06 L 121.88 464.06" stroke="white" fill="transparent"/>
</svg>