<?xml version="1.0" encoding="UTF-8" standalone="no"?>
<!--Created with ndjsontosvg (https:https://github.com/thompson318/ndjsontosvg) 
	from the simplified Google quickdraw data set. key_id = 5395672847089664-->
<svg width="600" height="600"
	xmlns="http://www.w3.org/2000/svg">
	xmlns:ndjsontosvg="https://github.com/thompson318/ndjsontosvg"
	xmlns:quickdraw="https://quickdraw.withgoogle.com/data"
	xmlns:scikit-surgery="https://doi.org/10.1007/s11548-020-02180-5">

	<rect width="100%" height="100%" fill="black" />
	<path d = "M 222.66 37.50 L 234.38 14.06 L 250.78 2.34 L 283.59 0.00 L 346.88 25.78 L 367.97 56.25 L 372.66 82.03 L 353.91 145.31 L 325.78 171.09 L 300.00 173.44 L 257.81 157.03 L 225.00 133.59 L 206.25 110.16 L 201.56 75.00 L 208.59 58.59 L 236.72 28.12 L 232.03 21.09" stroke="white" fill="transparent"/>
	<path d = "M 288.28 49.22 L 274.22 84.38 L 274.22 119.53 L 332.81 117.19" stroke="white" fill="transparent"/>
	<path d = "M 370.31 70.31 L 574.22 65.62 L 597.66 75.00" stroke="white" fill="transparent"/>
	<path d = "M 363.28 157.03 L 417.19 142.97 L 597.66 142.97" stroke="white" fill="transparent"/>
	<path d = "M 194.53 79.69 L 110.16 82.03 L 0.00 67.97" stroke="white" fill="transparent"/>
	<path d = "M 243.75 152.34 L 121.88 166.41 L 30.47 154.69" stroke="white" fill="transparent"/>
</svg>