<?xml version="1.0" encoding="UTF-8" standalone="no"?>
<!--Created with ndjsontosvg (https:https://github.com/thompson318/ndjsontosvg) 
	from the simplified Google quickdraw data set. key_id = 6589141766635520-->
<svg width="600" height="600"
	xmlns="http://www.w3.org/2000/svg">
	xmlns:ndjsontosvg="https://github.com/thompson318/ndjsontosvg"
	xmlns:quickdraw="https://quickdraw.withgoogle.com/data"
	xmlns:scikit-surgery="https://doi.org/10.1007/s11548-020-02180-5">

	<rect width="100%" height="100%" fill="black" />
	<path d = "M 262.50 581.25 L 243.75 564.84 L 138.28 527.34 L 119.53 510.94 L 117.19 482.81 L 25.78 461.72 L 4.69 426.56 L 0.00 307.03 L 4.69 285.94 L 82.03 232.03 L 121.88 215.62 L 178.12 213.28 L 217.97 229.69 L 290.62 290.62 L 304.69 342.19 L 300.00 398.44 L 248.44 464.06 L 121.88 471.09 L 260.16 459.38 L 316.41 532.03 L 351.56 548.44 L 382.03 546.09 L 367.97 585.94 L 346.88 595.31 L 323.44 597.66 L 295.31 583.59 L 246.09 581.25" stroke="white" fill="transparent"/>
	<path d = "M 58.59 241.41 L 58.59 128.91 L 126.56 56.25 L 248.44 2.34 L 255.47 2.34 L 241.41 37.50 L 194.53 131.25 L 187.50 206.25" stroke="white" fill="transparent"/>
	<path d = "M 100.78 278.91 L 142.97 370.31 L 126.56 426.56" stroke="white" fill="transparent"/>
	<path d = "M 70.31 257.81 L 82.03 269.53" stroke="white" fill="transparent"/>
	<path d = "M 157.03 208.59 L 154.69 260.16" stroke="white" fill="transparent"/>
	<path d = "M 227.34 246.09 L 192.19 281.25" stroke="white" fill="transparent"/>
	<path d = "M 295.31 316.41 L 243.75 339.84" stroke="white" fill="transparent"/>
</svg>