<?xml version="1.0" encoding="UTF-8" standalone="no"?>
<!--Created with ndjsontosvg (https:https://github.com/thompson318/ndjsontosvg) 
	from the simplified Google quickdraw data set. key_id = 4753855768166400-->
<svg width="600" height="600"
	xmlns="http://www.w3.org/2000/svg">
	xmlns:ndjsontosvg="https://github.com/thompson318/ndjsontosvg"
	xmlns:quickdraw="https://quickdraw.withgoogle.com/data"
	xmlns:scikit-surgery="https://doi.org/10.1007/s11548-020-02180-5">

	<rect width="100%" height="100%" fill="black" />
	<path d = "M 82.03 217.97 L 65.62 210.94 L 56.25 215.62 L 42.19 250.78 L 39.84 309.38 L 63.28 346.88 L 117.19 363.28 L 152.34 365.62 L 171.09 358.59 L 182.81 332.81 L 187.50 271.88 L 171.09 236.72 L 147.66 217.97 L 53.91 206.25" stroke="white" fill="transparent"/>
	<path d = "M 107.81 243.75 L 119.53 267.19 L 119.53 307.03 L 142.97 314.06" stroke="white" fill="transparent"/>
	<path d = "M 112.50 208.59 L 121.88 140.62 L 178.12 0.00" stroke="white" fill="transparent"/>
	<path d = "M 154.69 213.28 L 187.50 128.91 L 253.12 30.47" stroke="white" fill="transparent"/>
	<path d = "M 75.00 363.28 L 60.94 459.38 L 0.00 597.66" stroke="white" fill="transparent"/>
	<path d = "M 135.94 393.75 L 138.28 471.09 L 119.53 592.97" stroke="white" fill="transparent"/>
</svg>