<?xml version="1.0" encoding="UTF-8" standalone="no"?>
<!--Created with ndjsontosvg (https:https://github.com/thompson318/ndjsontosvg) 
	from the simplified Google quickdraw data set. key_id = 5741897966419968-->
<svg width="600" height="600"
	xmlns="http://www.w3.org/2000/svg">
	xmlns:ndjsontosvg="https://github.com/thompson318/ndjsontosvg"
	xmlns:quickdraw="https://quickdraw.withgoogle.com/data"
	xmlns:scikit-surgery="https://doi.org/10.1007/s11548-020-02180-5">

	<rect width="100%" height="100%" fill="black" />
	<path d = "M 590.62 37.50 L 196.88 37.50 L 164.06 7.03 L 105.47 0.00 L 79.69 14.06 L 84.38 28.12 L 18.75 53.91 L 4.69 75.00 L 0.00 105.47 L 14.06 114.84 L 65.62 114.84 L 14.06 147.66 L 7.03 159.38 L 63.28 164.06 L 42.19 189.84 L 77.34 194.53 L 79.69 208.59 L 93.75 210.94 L 121.88 206.25 L 168.75 161.72 L 225.00 135.94 L 595.31 133.59 L 597.66 126.56" stroke="white" fill="transparent"/>
	<path d = "M 243.75 32.81 L 243.75 124.22" stroke="white" fill="transparent"/>
	<path d = "M 281.25 32.81 L 283.59 138.28" stroke="white" fill="transparent"/>
	<path d = "M 276.56 60.94 L 257.81 56.25 L 250.78 60.94 L 246.09 100.78 L 260.16 105.47 L 274.22 98.44 L 281.25 70.31" stroke="white" fill="transparent"/>
</svg>