<?xml version="1.0" encoding="UTF-8" standalone="no"?>
<!--Created with ndjsontosvg (https:https://github.com/thompson318/ndjsontosvg) 
	from the simplified Google quickdraw data set. key_id = 5080616552890368-->
<svg width="600" height="600"
	xmlns="http://www.w3.org/2000/svg">
	xmlns:ndjsontosvg="https://github.com/thompson318/ndjsontosvg"
	xmlns:quickdraw="https://quickdraw.withgoogle.com/data"
	xmlns:scikit-surgery="https://doi.org/10.1007/s11548-020-02180-5">

	<rect width="100%" height="100%" fill="black" />
	<path d = "M 0.00 75.00 L 58.59 65.62 L 110.16 67.97 L 262.50 128.91" stroke="white" fill="transparent"/>
	<path d = "M 9.38 23.44 L 89.06 2.34 L 145.31 0.00 L 222.66 32.81 L 314.06 91.41" stroke="white" fill="transparent"/>
	<path d = "M 323.44 107.81 L 285.94 114.84 L 262.50 133.59 L 246.09 150.00 L 234.38 182.81 L 250.78 217.97 L 288.28 246.09 L 321.09 257.81 L 365.62 250.78 L 419.53 203.91 L 433.59 166.41 L 433.59 119.53 L 414.84 91.41 L 393.75 75.00 L 353.91 67.97 L 316.41 75.00" stroke="white" fill="transparent"/>
	<path d = "M 391.41 262.50 L 412.50 276.56 L 459.38 328.12 L 506.25 391.41" stroke="white" fill="transparent"/>
	<path d = "M 405.47 213.28 L 461.72 232.03 L 496.88 262.50 L 539.06 302.34 L 597.66 391.41" stroke="white" fill="transparent"/>
</svg>