<?xml version="1.0" encoding="UTF-8" standalone="no"?>
<!--Created with ndjsontosvg (https:https://github.com/thompson318/ndjsontosvg) 
	from the simplified Google quickdraw data set. key_id = 6546764196741120-->
<svg width="600" height="600"
	xmlns="http://www.w3.org/2000/svg">
	xmlns:ndjsontosvg="https://github.com/thompson318/ndjsontosvg"
	xmlns:quickdraw="https://quickdraw.withgoogle.com/data"
	xmlns:scikit-surgery="https://doi.org/10.1007/s11548-020-02180-5">

	<rect width="100%" height="100%" fill="black" />
	<path d = "M 353.91 217.97 L 353.91 217.97" stroke="white" fill="transparent"/>
	<path d = "M 403.12 0.00 L 267.19 0.00 L 220.31 11.72 L 206.25 25.78 L 192.19 100.78 L 196.88 161.72 L 210.94 182.81 L 243.75 203.91 L 295.31 206.25 L 346.88 206.25 L 363.28 194.53 L 391.41 147.66 L 414.84 70.31 L 412.50 21.09 L 398.44 0.00" stroke="white" fill="transparent"/>
	<path d = "M 398.44 0.00 L 435.94 0.00 L 494.53 28.12 L 562.50 75.00 L 590.62 112.50 L 597.66 196.88 L 576.56 290.62 L 555.47 349.22 L 520.31 382.03 L 321.09 412.50 L 138.28 414.84 L 93.75 405.47 L 30.47 356.25 L 9.38 304.69 L 0.00 248.44 L 0.00 192.19 L 18.75 152.34 L 63.28 100.78 L 135.94 51.56 L 164.06 46.88 L 250.78 46.88" stroke="white" fill="transparent"/>
	<path d = "M 370.31 168.75 L 478.12 171.09 L 543.75 196.88 L 569.53 234.38 L 574.22 255.47 L 569.53 302.34 L 539.06 344.53 L 501.56 367.97 L 466.41 370.31" stroke="white" fill="transparent"/>
	<path d = "M 206.25 168.75 L 173.44 189.84 L 150.00 236.72 L 150.00 285.94 L 180.47 335.16 L 199.22 351.56 L 220.31 353.91 L 407.81 356.25 L 438.28 389.06 L 471.09 403.12" stroke="white" fill="transparent"/>
	<path d = "M 283.59 98.44 L 283.59 98.44" stroke="white" fill="transparent"/>
	<path d = "M 295.31 77.34 L 297.66 63.28 L 342.19 30.47 L 356.25 25.78 L 351.56 37.50" stroke="white" fill="transparent"/>
	<path d = "M 307.03 75.00 L 311.72 93.75 L 332.81 124.22" stroke="white" fill="transparent"/>
</svg>