<?xml version="1.0" encoding="UTF-8" standalone="no"?>
<!--Created with ndjsontosvg (https:https://github.com/thompson318/ndjsontosvg) 
	from the simplified Google quickdraw data set. key_id = 6335031775592448-->
<svg width="600" height="600"
	xmlns="http://www.w3.org/2000/svg">
	xmlns:ndjsontosvg="https://github.com/thompson318/ndjsontosvg"
	xmlns:quickdraw="https://quickdraw.withgoogle.com/data"
	xmlns:scikit-surgery="https://doi.org/10.1007/s11548-020-02180-5">

	<rect width="100%" height="100%" fill="black" />
	<path d = "M 100.78 11.72 L 128.91 0.00 L 152.34 4.69 L 168.75 21.09 L 178.12 49.22 L 180.47 75.00 L 171.09 98.44 L 138.28 119.53 L 117.19 121.88 L 79.69 110.16 L 67.97 96.09 L 65.62 53.91 L 72.66 11.72" stroke="white" fill="transparent"/>
	<path d = "M 154.69 124.22 L 206.25 145.31 L 227.34 159.38 L 225.00 171.09 L 194.53 180.47 L 133.59 173.44 L 89.06 178.12 L 131.25 157.03 L 135.94 147.66" stroke="white" fill="transparent"/>
	<path d = "M 75.00 126.56 L 28.12 138.28 L 4.69 157.03 L 2.34 178.12 L 25.78 192.19 L 70.31 194.53 L 72.66 185.16 L 49.22 173.44" stroke="white" fill="transparent"/>
	<path d = "M 124.22 189.84 L 133.59 215.62 L 140.62 283.59 L 262.50 375.00 L 187.50 398.44 L 121.88 407.81 L 114.84 400.78 L 152.34 382.03 L 173.44 356.25 L 138.28 339.84 L 105.47 332.81 L 107.81 410.16 L 96.09 487.50 L 96.09 574.22 L 89.06 590.62 L 77.34 597.66 L 63.28 597.66 L 42.19 560.16 L 58.59 520.31 L 58.59 358.59 L 72.66 243.75 L 70.31 206.25" stroke="white" fill="transparent"/>
</svg>