<?xml version="1.0" encoding="UTF-8" standalone="no"?>
<!--Created with ndjsontosvg (https:https://github.com/thompson318/ndjsontosvg) 
	from the simplified Google quickdraw data set. key_id = 5037444653121536-->
<svg width="600" height="600"
	xmlns="http://www.w3.org/2000/svg">
	xmlns:ndjsontosvg="https://github.com/thompson318/ndjsontosvg"
	xmlns:quickdraw="https://quickdraw.withgoogle.com/data"
	xmlns:scikit-surgery="https://doi.org/10.1007/s11548-020-02180-5">

	<rect width="100%" height="100%" fill="black" />
	<path d = "M 77.34 14.06 L 58.59 91.41 L 67.97 178.12 L 86.72 180.47 L 203.91 140.62 L 225.00 128.91 L 269.53 84.38 L 269.53 44.53 L 255.47 25.78 L 213.28 7.03 L 133.59 0.00 L 110.16 37.50" stroke="white" fill="transparent"/>
	<path d = "M 159.38 161.72 L 152.34 302.34 L 166.41 356.25 L 166.41 393.75 L 206.25 346.88 L 360.94 248.44 L 379.69 229.69 L 349.22 250.78 L 262.50 346.88 L 225.00 379.69 L 213.28 379.69" stroke="white" fill="transparent"/>
	<path d = "M 194.53 391.41 L 142.97 576.56" stroke="white" fill="transparent"/>
	<path d = "M 0.00 597.66 L 44.53 592.97 L 128.91 564.84 L 199.22 550.78 L 288.28 557.81 L 342.19 546.09" stroke="white" fill="transparent"/>
	<path d = "M 154.69 269.53 L 154.69 269.53" stroke="white" fill="transparent"/>
</svg>