<?xml version="1.0" encoding="UTF-8" standalone="no"?>
<!--Created with ndjsontosvg (https:https://github.com/thompson318/ndjsontosvg) 
	from the simplified Google quickdraw data set. key_id = 5499136344326144-->
<svg width="600" height="600"
	xmlns="http://www.w3.org/2000/svg">
	xmlns:ndjsontosvg="https://github.com/thompson318/ndjsontosvg"
	xmlns:quickdraw="https://quickdraw.withgoogle.com/data"
	xmlns:scikit-surgery="https://doi.org/10.1007/s11548-020-02180-5">

	<rect width="100%" height="100%" fill="black" />
	<path d = "M 0.00 325.78 L 77.34 342.19 L 300.00 360.94 L 367.97 358.59 L 480.47 342.19 L 597.66 342.19" stroke="white" fill="transparent"/>
	<path d = "M 201.56 0.00 L 166.41 2.34 L 114.84 28.12 L 91.41 58.59 L 84.38 114.84 L 96.09 119.53 L 161.72 119.53 L 278.91 107.81 L 300.00 96.09 L 307.03 65.62 L 297.66 44.53 L 255.47 25.78 L 192.19 14.06" stroke="white" fill="transparent"/>
	<path d = "M 159.38 60.94 L 185.16 63.28" stroke="white" fill="transparent"/>
	<path d = "M 246.09 63.28 L 264.84 63.28" stroke="white" fill="transparent"/>
	<path d = "M 168.75 91.41 L 203.91 96.09" stroke="white" fill="transparent"/>
	<path d = "M 243.75 114.84 L 250.78 180.47 L 285.94 194.53 L 339.84 196.88 L 396.09 171.09 L 431.25 107.81" stroke="white" fill="transparent"/>
	<path d = "M 367.97 206.25 L 367.97 236.72 L 384.38 302.34 L 382.03 335.16" stroke="white" fill="transparent"/>
	<path d = "M 363.28 182.81 L 367.97 210.94" stroke="white" fill="transparent"/>
</svg>