<?xml version="1.0" encoding="UTF-8" standalone="no"?>
<!--Created with ndjsontosvg (https:https://github.com/thompson318/ndjsontosvg) 
	from the simplified Google quickdraw data set. key_id = 4565278232936448-->
<svg width="600" height="600"
	xmlns="http://www.w3.org/2000/svg">
	xmlns:ndjsontosvg="https://github.com/thompson318/ndjsontosvg"
	xmlns:quickdraw="https://quickdraw.withgoogle.com/data"
	xmlns:scikit-surgery="https://doi.org/10.1007/s11548-020-02180-5">

	<rect width="100%" height="100%" fill="black" />
	<path d = "M 337.50 496.88 L 330.47 496.88" stroke="white" fill="transparent"/>
	<path d = "M 330.47 496.88 L 356.25 492.19" stroke="white" fill="transparent"/>
	<path d = "M 356.25 487.50 L 346.88 459.38 L 346.88 161.72" stroke="white" fill="transparent"/>
	<path d = "M 360.94 4.69 L 318.75 18.75 L 278.91 44.53 L 260.16 65.62 L 243.75 105.47 L 248.44 126.56 L 267.19 135.94 L 349.22 131.25 L 405.47 100.78 L 410.16 58.59 L 379.69 18.75 L 356.25 4.69 L 297.66 0.00" stroke="white" fill="transparent"/>
	<path d = "M 346.88 250.78 L 478.12 311.72" stroke="white" fill="transparent"/>
	<path d = "M 353.91 243.75 L 210.94 328.12" stroke="white" fill="transparent"/>
	<path d = "M 323.44 466.41 L 222.66 480.47 L 9.38 529.69 L 2.34 550.78 L 23.44 567.19 L 86.72 597.66" stroke="white" fill="transparent"/>
</svg>