<?xml version="1.0" encoding="UTF-8" standalone="no"?>
<!--Created with ndjsontosvg (https:https://github.com/thompson318/ndjsontosvg) 
	from the simplified Google quickdraw data set. key_id = 6302595557621760-->
<svg width="600" height="600"
	xmlns="http://www.w3.org/2000/svg">
	xmlns:ndjsontosvg="https://github.com/thompson318/ndjsontosvg"
	xmlns:quickdraw="https://quickdraw.withgoogle.com/data"
	xmlns:scikit-surgery="https://doi.org/10.1007/s11548-020-02180-5">

	<rect width="100%" height="100%" fill="black" />
	<path d = "M 335.16 0.00 L 295.31 67.97 L 201.56 173.44 L 182.81 182.81 L 124.22 185.16 L 114.84 192.19 L 112.50 222.66 L 121.88 241.41 L 131.25 246.09 L 161.72 246.09 L 185.16 208.59 L 187.50 171.09" stroke="white" fill="transparent"/>
	<path d = "M 201.56 185.16 L 203.91 276.56" stroke="white" fill="transparent"/>
	<path d = "M 201.56 182.81 L 201.56 192.19 L 264.84 234.38" stroke="white" fill="transparent"/>
	<path d = "M 332.81 2.34 L 328.12 227.34 L 307.03 267.19 L 316.41 243.75 L 325.78 241.41 L 349.22 281.25" stroke="white" fill="transparent"/>
	<path d = "M 35.16 271.88 L 25.78 344.53 L 103.12 367.97 L 267.19 370.31 L 480.47 391.41 L 592.97 391.41 L 597.66 377.34 L 578.91 307.03 L 562.50 295.31 L 72.66 295.31 L 0.00 290.62" stroke="white" fill="transparent"/>
</svg>