<?xml version="1.0" encoding="UTF-8" standalone="no"?>
<!--Created with ndjsontosvg (https:https://github.com/thompson318/ndjsontosvg) 
	from the simplified Google quickdraw data set. key_id = 6293784969084928-->
<svg width="600" height="600"
	xmlns="http://www.w3.org/2000/svg">
	xmlns:ndjsontosvg="https://github.com/thompson318/ndjsontosvg"
	xmlns:quickdraw="https://quickdraw.withgoogle.com/data"
	xmlns:scikit-surgery="https://doi.org/10.1007/s11548-020-02180-5">

	<rect width="100%" height="100%" fill="black" />
	<path d = "M 53.91 9.38 L 23.44 51.56 L 39.84 77.34 L 58.59 82.03 L 157.03 75.00 L 159.38 60.94 L 133.59 16.41 L 103.12 0.00 L 60.94 18.75" stroke="white" fill="transparent"/>
	<path d = "M 126.56 77.34 L 138.28 103.12 L 178.12 135.94 L 250.78 187.50 L 269.53 192.19 L 290.62 187.50 L 292.97 173.44 L 264.84 133.59 L 215.62 103.12 L 178.12 96.09 L 142.97 75.00" stroke="white" fill="transparent"/>
	<path d = "M 0.00 264.84 L 187.50 248.44 L 309.38 248.44 L 457.03 262.50 L 597.66 297.66" stroke="white" fill="transparent"/>
	<path d = "M 267.19 189.84 L 267.19 234.38 L 255.47 239.06 L 234.38 236.72 L 253.12 255.47 L 276.56 250.78 L 283.59 232.03 L 271.88 185.16" stroke="white" fill="transparent"/>
	<path d = "M 285.94 192.19 L 316.41 253.12 L 300.00 267.19 L 262.50 271.88 L 262.50 278.91 L 316.41 290.62" stroke="white" fill="transparent"/>
	<path d = "M 140.62 112.50 L 77.34 203.91" stroke="white" fill="transparent"/>
</svg>