<?xml version="1.0" encoding="UTF-8" standalone="no"?>
<!--Created with ndjsontosvg (https:https://github.com/thompson318/ndjsontosvg) 
	from the simplified Google quickdraw data set. key_id = 6506033147019264-->
<svg width="600" height="600"
	xmlns="http://www.w3.org/2000/svg">
	xmlns:ndjsontosvg="https://github.com/thompson318/ndjsontosvg"
	xmlns:quickdraw="https://quickdraw.withgoogle.com/data"
	xmlns:scikit-surgery="https://doi.org/10.1007/s11548-020-02180-5">

	<rect width="100%" height="100%" fill="black" />
	<path d = "M 58.59 138.28 L 588.28 140.62 L 597.66 168.75 L 562.50 210.94 L 541.41 267.19 L 541.41 292.97 L 510.94 309.38 L 325.78 309.38 L 192.19 276.56 L 30.47 274.22 L 0.00 243.75 L 0.00 201.56 L 28.12 145.31 L 63.28 133.59" stroke="white" fill="transparent"/>
	<path d = "M 126.56 157.03 L 140.62 157.03 L 175.78 105.47 L 222.66 75.00 L 241.41 49.22 L 248.44 21.09" stroke="white" fill="transparent"/>
	<path d = "M 189.84 175.78 L 210.94 138.28 L 255.47 93.75 L 300.00 60.94 L 311.72 46.88 L 311.72 30.47" stroke="white" fill="transparent"/>
	<path d = "M 250.78 18.75 L 311.72 2.34 L 321.09 16.41 L 311.72 32.81 L 285.94 39.84" stroke="white" fill="transparent"/>
	<path d = "M 318.75 0.00 L 342.19 28.12 L 412.50 84.38 L 529.69 142.97" stroke="white" fill="transparent"/>
</svg>