<?xml version="1.0" encoding="UTF-8" standalone="no"?>
<!--Created with ndjsontosvg (https:https://github.com/thompson318/ndjsontosvg) 
	from the simplified Google quickdraw data set. key_id = 5791844422123520-->
<svg width="600" height="600"
	xmlns="http://www.w3.org/2000/svg">
	xmlns:ndjsontosvg="https://github.com/thompson318/ndjsontosvg"
	xmlns:quickdraw="https://quickdraw.withgoogle.com/data"
	xmlns:scikit-surgery="https://doi.org/10.1007/s11548-020-02180-5">

	<rect width="100%" height="100%" fill="black" />
	<path d = "M 309.38 28.12 L 288.28 16.41 L 201.56 21.09 L 121.88 37.50 L 93.75 56.25 L 56.25 98.44 L 39.84 135.94 L 46.88 192.19 L 67.97 208.59 L 147.66 210.94 L 201.56 189.84 L 300.00 117.19 L 321.09 79.69 L 323.44 39.84 L 316.41 21.09 L 281.25 2.34 L 257.81 0.00 L 241.41 7.03" stroke="white" fill="transparent"/>
	<path d = "M 260.16 161.72 L 419.53 166.41 L 480.47 206.25 L 574.22 292.97 L 590.62 295.31" stroke="white" fill="transparent"/>
	<path d = "M 541.41 267.19 L 597.66 342.19" stroke="white" fill="transparent"/>
	<path d = "M 185.16 168.75 L 164.06 189.84 L 128.91 283.59 L 119.53 337.50" stroke="white" fill="transparent"/>
	<path d = "M 39.84 157.03 L 42.19 168.75 L 53.91 178.12 L 58.59 168.75 L 37.50 164.06 L 0.00 201.56" stroke="white" fill="transparent"/>
</svg>