<?xml version="1.0" encoding="UTF-8" standalone="no"?>
<!--Created with ndjsontosvg (https:https://github.com/thompson318/ndjsontosvg) 
	from the simplified Google quickdraw data set. key_id = 5967982905786368-->
<svg width="600" height="600"
	xmlns="http://www.w3.org/2000/svg">
	xmlns:ndjsontosvg="https://github.com/thompson318/ndjsontosvg"
	xmlns:quickdraw="https://quickdraw.withgoogle.com/data"
	xmlns:scikit-surgery="https://doi.org/10.1007/s11548-020-02180-5">

	<rect width="100%" height="100%" fill="black" />
	<path d = "M 267.19 225.00 L 246.09 295.31 L 234.38 311.72 L 206.25 323.44" stroke="white" fill="transparent"/>
	<path d = "M 285.94 189.84 L 267.19 328.12 L 267.19 478.12 L 250.78 560.16 L 222.66 583.59 L 117.19 578.91 L 16.41 597.66" stroke="white" fill="transparent"/>
	<path d = "M 213.28 578.91 L 229.69 574.22 L 330.47 590.62 L 447.66 592.97" stroke="white" fill="transparent"/>
	<path d = "M 290.62 180.47 L 311.72 192.19 L 382.03 208.59 L 487.50 297.66" stroke="white" fill="transparent"/>
	<path d = "M 311.72 192.19 L 283.59 187.50 L 112.50 227.34 L 37.50 260.16 L 0.00 288.28" stroke="white" fill="transparent"/>
	<path d = "M 232.03 51.56 L 217.97 44.53 L 192.19 44.53 L 173.44 70.31 L 173.44 121.88 L 215.62 171.09 L 250.78 182.81 L 290.62 178.12 L 321.09 145.31 L 330.47 124.22 L 337.50 75.00 L 325.78 21.09 L 290.62 0.00 L 248.44 2.34 L 150.00 44.53" stroke="white" fill="transparent"/>
	<path d = "M 199.22 77.34 L 192.19 100.78 L 208.59 124.22" stroke="white" fill="transparent"/>
	<path d = "M 267.19 82.03 L 269.53 98.44" stroke="white" fill="transparent"/>
</svg>