<?xml version="1.0" encoding="UTF-8" standalone="no"?>
<!--Created with ndjsontosvg (https:https://github.com/thompson318/ndjsontosvg) 
	from the simplified Google quickdraw data set. key_id = 6605875915522048-->
<svg width="600" height="600"
	xmlns="http://www.w3.org/2000/svg">
	xmlns:ndjsontosvg="https://github.com/thompson318/ndjsontosvg"
	xmlns:quickdraw="https://quickdraw.withgoogle.com/data"
	xmlns:scikit-surgery="https://doi.org/10.1007/s11548-020-02180-5">

	<rect width="100%" height="100%" fill="black" />
	<path d = "M 35.16 173.44 L 25.78 178.12 L 9.38 213.28 L 0.00 292.97 L 11.72 330.47 L 42.19 356.25 L 75.00 349.22 L 114.84 314.06 L 142.97 236.72 L 150.00 201.56" stroke="white" fill="transparent"/>
	<path d = "M 14.06 175.78 L 25.78 150.00 L 93.75 86.72" stroke="white" fill="transparent"/>
	<path d = "M 128.91 182.81 L 119.53 171.09 L 100.78 91.41 L 93.75 25.78 L 100.78 2.34 L 128.91 2.34 L 152.34 21.09 L 175.78 60.94 L 182.81 91.41" stroke="white" fill="transparent"/>
	<path d = "M 161.72 201.56 L 166.41 192.19 L 175.78 192.19 L 199.22 201.56 L 220.31 311.72 L 227.34 323.44 L 236.72 328.12 L 274.22 323.44 L 351.56 328.12 L 520.31 295.31 L 564.84 260.16 L 597.66 208.59 L 592.97 175.78 L 567.19 98.44 L 529.69 70.31 L 466.41 56.25 L 431.25 56.25 L 321.09 79.69 L 222.66 60.94 L 180.47 72.66" stroke="white" fill="transparent"/>
	<path d = "M 243.75 311.72 L 260.16 510.94" stroke="white" fill="transparent"/>
	<path d = "M 356.25 295.31 L 351.56 349.22 L 379.69 517.97" stroke="white" fill="transparent"/>
	<path d = "M 471.09 267.19 L 496.88 442.97 L 515.62 485.16 L 527.34 489.84 L 553.12 478.12" stroke="white" fill="transparent"/>
	<path d = "M 567.19 262.50 L 576.56 442.97" stroke="white" fill="transparent"/>
	<path d = "M 297.66 56.25 L 295.31 145.31 L 314.06 332.81" stroke="white" fill="transparent"/>
	<path d = "M 400.78 35.16 L 379.69 159.38 L 377.34 246.09 L 382.03 325.78 L 396.09 379.69" stroke="white" fill="transparent"/>
	<path d = "M 475.78 105.47 L 520.31 323.44" stroke="white" fill="transparent"/>
	<path d = "M 557.81 49.22 L 588.28 285.94" stroke="white" fill="transparent"/>
	<path d = "M 225.00 75.00 L 232.03 241.41 L 255.47 365.62" stroke="white" fill="transparent"/>
	<path d = "M 72.66 175.78 L 63.28 208.59 L 82.03 180.47" stroke="white" fill="transparent"/>
</svg>