<?xml version="1.0" encoding="UTF-8" standalone="no"?>
<!--Created with ndjsontosvg (https:https://github.com/thompson318/ndjsontosvg) 
	from the simplified Google quickdraw data set. key_id = 5064437989900288-->
<svg width="600" height="600"
	xmlns="http://www.w3.org/2000/svg">
	xmlns:ndjsontosvg="https://github.com/thompson318/ndjsontosvg"
	xmlns:quickdraw="https://quickdraw.withgoogle.com/data"
	xmlns:scikit-surgery="https://doi.org/10.1007/s11548-020-02180-5">

	<rect width="100%" height="100%" fill="black" />
	<path d = "M 206.25 60.94 L 206.25 60.94" stroke="white" fill="transparent"/>
	<path d = "M 161.72 53.91 L 135.94 42.19 L 100.78 37.50 L 67.97 46.88 L 25.78 70.31 L 2.34 105.47 L 2.34 133.59 L 25.78 150.00 L 77.34 152.34 L 164.06 128.91 L 187.50 105.47 L 178.12 82.03 L 157.03 63.28 L 126.56 56.25 L 93.75 63.28" stroke="white" fill="transparent"/>
	<path d = "M 100.78 166.41 L 100.78 180.47 L 138.28 285.94 L 150.00 297.66" stroke="white" fill="transparent"/>
	<path d = "M 157.03 117.19 L 217.97 96.09 L 288.28 91.41 L 382.03 96.09 L 464.06 112.50 L 532.03 135.94 L 571.88 161.72 L 595.31 201.56 L 592.97 232.03 L 576.56 250.78 L 543.75 271.88 L 464.06 292.97 L 255.47 295.31 L 86.72 283.59" stroke="white" fill="transparent"/>
	<path d = "M 201.56 283.59 L 210.94 353.91 L 208.59 442.97" stroke="white" fill="transparent"/>
	<path d = "M 379.69 283.59 L 391.41 344.53 L 382.03 478.12" stroke="white" fill="transparent"/>
	<path d = "M 140.62 135.94 L 173.44 278.91 L 168.75 239.06 L 135.94 145.31 L 138.28 229.69 L 147.66 276.56" stroke="white" fill="transparent"/>
	<path d = "M 168.75 325.78 L 168.75 325.78" stroke="white" fill="transparent"/>
	<path d = "M 248.44 100.78 L 250.78 112.50 L 321.09 180.47 L 382.03 269.53 L 246.09 145.31 L 274.22 161.72 L 400.78 304.69 L 370.31 276.56 L 330.47 255.47 L 285.94 248.44 L 250.78 255.47" stroke="white" fill="transparent"/>
	<path d = "M 475.78 128.91 L 372.66 274.22 L 457.03 173.44 L 473.44 161.72 L 461.72 178.12 L 370.31 271.88" stroke="white" fill="transparent"/>
	<path d = "M 60.94 56.25 L 79.69 0.00 L 93.75 23.44 L 98.44 51.56" stroke="white" fill="transparent"/>
	<path d = "M 37.50 86.72 L 25.78 96.09 L 32.81 107.81 L 42.19 100.78 L 46.88 86.72" stroke="white" fill="transparent"/>
</svg>