<?xml version="1.0" encoding="UTF-8" standalone="no"?>
<!--Created with ndjsontosvg (https:https://github.com/thompson318/ndjsontosvg) 
	from the simplified Google quickdraw data set. key_id = 6475177359572992-->
<svg width="600" height="600"
	xmlns="http://www.w3.org/2000/svg">
	xmlns:ndjsontosvg="https://github.com/thompson318/ndjsontosvg"
	xmlns:quickdraw="https://quickdraw.withgoogle.com/data"
	xmlns:scikit-surgery="https://doi.org/10.1007/s11548-020-02180-5">

	<rect width="100%" height="100%" fill="black" />
	<path d = "M 161.72 0.00 L 96.09 56.25 L 25.78 91.41 L 2.34 142.97 L 0.00 171.09 L 145.31 154.69 L 201.56 203.91 L 220.31 267.19 L 227.34 459.38 L 271.88 407.81 L 281.25 323.44 L 290.62 307.03 L 307.03 307.03 L 365.62 328.12 L 382.03 393.75 L 417.19 487.50 L 457.03 417.19 L 442.97 323.44 L 459.38 314.06 L 478.12 323.44 L 590.62 328.12 L 597.66 309.38 L 597.66 271.88 L 590.62 260.16 L 539.06 225.00 L 466.41 196.88 L 440.62 194.53" stroke="white" fill="transparent"/>
	<path d = "M 450.00 196.88 L 276.56 154.69 L 257.81 140.62 L 203.91 67.97 L 178.12 2.34" stroke="white" fill="transparent"/>
	<path d = "M 539.06 243.75 L 548.44 271.88 L 548.44 375.00" stroke="white" fill="transparent"/>
	<path d = "M 466.41 208.59 L 466.41 278.91 L 459.38 346.88 L 457.03 325.78" stroke="white" fill="transparent"/>
	<path d = "M 407.81 182.81 L 407.81 290.62 L 426.56 407.81" stroke="white" fill="transparent"/>
	<path d = "M 365.62 121.88 L 337.50 304.69" stroke="white" fill="transparent"/>
</svg>