<?xml version="1.0" encoding="UTF-8" standalone="no"?>
<!--Created with ndjsontosvg (https:https://github.com/thompson318/ndjsontosvg) 
	from the simplified Google quickdraw data set. key_id = 6281799627964416-->
<svg width="600" height="600"
	xmlns="http://www.w3.org/2000/svg">
	xmlns:ndjsontosvg="https://github.com/thompson318/ndjsontosvg"
	xmlns:quickdraw="https://quickdraw.withgoogle.com/data"
	xmlns:scikit-surgery="https://doi.org/10.1007/s11548-020-02180-5">

	<rect width="100%" height="100%" fill="black" />
	<path d = "M 32.81 260.16 L 32.81 260.16" stroke="white" fill="transparent"/>
	<path d = "M 53.91 274.22 L 49.22 187.50 L 58.59 138.28 L 295.31 117.19 L 342.19 119.53 L 351.56 201.56 L 370.31 260.16 L 461.72 248.44 L 440.62 114.84 L 501.56 107.81 L 555.47 89.06 L 585.94 67.97 L 597.66 35.16 L 590.62 18.75 L 546.09 4.69 L 417.19 0.00 L 16.41 58.59 L 0.00 82.03 L 11.72 288.28 L 18.75 292.97 L 103.12 255.47" stroke="white" fill="transparent"/>
	<path d = "M 98.44 49.22 L 119.53 142.97" stroke="white" fill="transparent"/>
	<path d = "M 142.97 42.19 L 140.62 91.41 L 121.88 53.91 L 138.28 110.16 L 138.28 91.41 L 131.25 75.00 L 131.25 84.38 L 142.97 133.59 L 124.22 79.69 L 124.22 117.19 L 124.22 14.06 L 117.19 110.16 L 150.00 65.62" stroke="white" fill="transparent"/>
	<path d = "M 260.16 23.44 L 255.47 133.59 L 255.47 25.78 L 260.16 84.38 L 271.88 105.47 L 281.25 82.03 L 290.62 28.12 L 281.25 114.84 L 288.28 86.72 L 288.28 32.81 L 274.22 107.81 L 264.84 46.88 L 274.22 96.09 L 288.28 9.38 L 292.97 25.78" stroke="white" fill="transparent"/>
</svg>