<?xml version="1.0" encoding="UTF-8" standalone="no"?>
<!--Created with ndjsontosvg (https:https://github.com/thompson318/ndjsontosvg) 
	from the simplified Google quickdraw data set. key_id = 5998556387213312-->
<svg width="600" height="600"
	xmlns="http://www.w3.org/2000/svg">
	xmlns:ndjsontosvg="https://github.com/thompson318/ndjsontosvg"
	xmlns:quickdraw="https://quickdraw.withgoogle.com/data"
	xmlns:scikit-surgery="https://doi.org/10.1007/s11548-020-02180-5">

	<rect width="100%" height="100%" fill="black" />
	<path d = "M 37.50 442.97 L 35.16 424.22 L 79.69 342.19 L 119.53 232.03 L 131.25 250.78 L 192.19 428.91" stroke="white" fill="transparent"/>
	<path d = "M 274.22 431.25 L 307.03 328.12 L 330.47 217.97 L 349.22 234.38 L 414.84 389.06 L 438.28 424.22" stroke="white" fill="transparent"/>
	<path d = "M 107.81 243.75 L 131.25 241.41 L 210.94 255.47 L 314.06 255.47 L 375.00 236.72" stroke="white" fill="transparent"/>
	<path d = "M 131.25 239.06 L 112.50 199.22 L 114.84 164.06 L 159.38 138.28 L 210.94 126.56 L 292.97 131.25 L 405.47 206.25" stroke="white" fill="transparent"/>
	<path d = "M 386.72 236.72 L 400.78 213.28 L 405.47 173.44 L 485.16 46.88" stroke="white" fill="transparent"/>
	<path d = "M 297.66 121.88 L 337.50 84.38 L 466.41 0.00 L 536.72 16.41 L 585.94 51.56 L 597.66 79.69 L 536.72 79.69 L 532.03 75.00" stroke="white" fill="transparent"/>
	<path d = "M 168.75 166.41 L 168.75 229.69" stroke="white" fill="transparent"/>
	<path d = "M 222.66 145.31 L 236.72 189.84" stroke="white" fill="transparent"/>
	<path d = "M 285.94 154.69 L 307.03 208.59" stroke="white" fill="transparent"/>
	<path d = "M 346.88 159.38 L 342.19 185.16 L 353.91 215.62" stroke="white" fill="transparent"/>
	<path d = "M 386.72 154.69 L 403.12 180.47" stroke="white" fill="transparent"/>
	<path d = "M 250.78 180.47 L 281.25 234.38" stroke="white" fill="transparent"/>
	<path d = "M 358.59 119.53 L 386.72 185.16" stroke="white" fill="transparent"/>
	<path d = "M 393.75 89.06 L 424.22 142.97" stroke="white" fill="transparent"/>
	<path d = "M 431.25 56.25 L 442.97 105.47" stroke="white" fill="transparent"/>
	<path d = "M 478.12 23.44 L 471.09 72.66" stroke="white" fill="transparent"/>
	<path d = "M 119.53 168.75 L 53.91 189.84 L 0.00 248.44" stroke="white" fill="transparent"/>
</svg>