<?xml version="1.0" encoding="UTF-8" standalone="no"?>
<!--Created with ndjsontosvg (https:https://github.com/thompson318/ndjsontosvg) 
	from the simplified Google quickdraw data set. key_id = 5569533781737472-->
<svg width="600" height="600"
	xmlns="http://www.w3.org/2000/svg">
	xmlns:ndjsontosvg="https://github.com/thompson318/ndjsontosvg"
	xmlns:quickdraw="https://quickdraw.withgoogle.com/data"
	xmlns:scikit-surgery="https://doi.org/10.1007/s11548-020-02180-5">

	<rect width="100%" height="100%" fill="black" />
	<path d = "M 367.97 410.16 L 365.62 539.06 L 353.91 553.12 L 307.03 553.12 L 285.94 546.09 L 297.66 391.41 L 285.94 382.03 L 255.47 375.00 L 133.59 382.03 L 119.53 400.78 L 93.75 513.28 L 60.94 529.69 L 23.44 522.66 L 0.00 492.19 L 11.72 375.00 L 7.03 285.94 L 11.72 250.78 L 44.53 171.09 L 107.81 105.47 L 133.59 93.75 L 182.81 84.38 L 215.62 91.41 L 257.81 107.81 L 300.00 140.62 L 335.16 159.38 L 440.62 128.91 L 466.41 35.16 L 487.50 2.34 L 527.34 126.56 L 583.59 178.12 L 595.31 260.16 L 571.88 288.28 L 548.44 285.94 L 515.62 269.53 L 438.28 278.91 L 391.41 339.84 L 377.34 372.66 L 372.66 417.19" stroke="white" fill="transparent"/>
	<path d = "M 53.91 178.12 L 39.84 199.22 L 9.38 461.72 L 9.38 510.94" stroke="white" fill="transparent"/>
	<path d = "M 157.03 152.34 L 145.31 178.12 L 93.75 370.31 L 86.72 468.75" stroke="white" fill="transparent"/>
	<path d = "M 222.66 121.88 L 194.53 243.75 L 168.75 321.09" stroke="white" fill="transparent"/>
	<path d = "M 311.72 187.50 L 239.06 370.31 L 248.44 379.69" stroke="white" fill="transparent"/>
	<path d = "M 407.81 157.03 L 398.44 175.78 L 328.12 480.47 L 335.16 487.50" stroke="white" fill="transparent"/>
	<path d = "M 513.28 65.62 L 466.41 239.06 L 468.75 246.09" stroke="white" fill="transparent"/>
	<path d = "M 555.47 206.25 L 555.47 194.53 L 539.06 187.50 L 557.81 196.88" stroke="white" fill="transparent"/>
</svg>