<?xml version="1.0" encoding="UTF-8" standalone="no"?>
<!--Created with ndjsontosvg (https:https://github.com/thompson318/ndjsontosvg) 
	from the simplified Google quickdraw data set. key_id = 6736513234632704-->
<svg width="600" height="600"
	xmlns="http://www.w3.org/2000/svg">
	xmlns:ndjsontosvg="https://github.com/thompson318/ndjsontosvg"
	xmlns:quickdraw="https://quickdraw.withgoogle.com/data"
	xmlns:scikit-surgery="https://doi.org/10.1007/s11548-020-02180-5">

	<rect width="100%" height="100%" fill="black" />
	<path d = "M 93.75 194.53 L 159.38 185.16 L 290.62 185.16 L 342.19 171.09 L 405.47 119.53 L 480.47 0.00 L 489.84 9.38 L 489.84 42.19 L 532.03 44.53 L 560.16 72.66 L 592.97 86.72 L 597.66 105.47 L 585.94 117.19 L 513.28 133.59 L 480.47 196.88 L 398.44 260.16 L 386.72 300.00 L 377.34 403.12 L 363.28 410.16 L 342.19 292.97 L 321.09 285.94 L 210.94 311.72 L 147.66 311.72 L 140.62 328.12 L 133.59 428.91 L 105.47 421.88 L 96.09 407.81 L 100.78 283.59 L 89.06 241.41 L 56.25 232.03 L 28.12 236.72 L 9.38 253.12 L 0.00 281.25" stroke="white" fill="transparent"/>
	<path d = "M 93.75 203.91 L 51.56 201.56 L 30.47 210.94 L 11.72 239.06 L 9.38 269.53" stroke="white" fill="transparent"/>
	<path d = "M 135.94 185.16 L 138.28 290.62 L 119.53 386.72" stroke="white" fill="transparent"/>
	<path d = "M 182.81 196.88 L 173.44 297.66" stroke="white" fill="transparent"/>
	<path d = "M 274.22 180.47 L 281.25 302.34" stroke="white" fill="transparent"/>
	<path d = "M 339.84 192.19 L 342.19 311.72 L 353.91 365.62" stroke="white" fill="transparent"/>
	<path d = "M 377.34 128.91 L 377.34 234.38 L 384.38 300.00" stroke="white" fill="transparent"/>
	<path d = "M 433.59 79.69 L 452.34 220.31" stroke="white" fill="transparent"/>
	<path d = "M 478.12 60.94 L 487.50 203.91" stroke="white" fill="transparent"/>
</svg>