<?xml version="1.0" encoding="UTF-8" standalone="no"?>
<!--Created with ndjsontosvg (https:https://github.com/thompson318/ndjsontosvg) 
	from the simplified Google quickdraw data set. key_id = 6346696197931008-->
<svg width="600" height="600"
	xmlns="http://www.w3.org/2000/svg">
	xmlns:ndjsontosvg="https://github.com/thompson318/ndjsontosvg"
	xmlns:quickdraw="https://quickdraw.withgoogle.com/data"
	xmlns:scikit-surgery="https://doi.org/10.1007/s11548-020-02180-5">

	<rect width="100%" height="100%" fill="black" />
	<path d = "M 150.00 75.00 L 119.53 63.28 L 65.62 63.28 L 2.34 103.12 L 2.34 119.53 L 18.75 145.31 L 56.25 157.03 L 107.81 154.69 L 182.81 140.62" stroke="white" fill="transparent"/>
	<path d = "M 142.97 67.97 L 173.44 0.00 L 187.50 21.09 L 199.22 56.25 L 208.59 65.62 L 255.47 65.62 L 297.66 49.22 L 337.50 46.88 L 450.00 93.75 L 468.75 142.97 L 543.75 140.62 L 597.66 121.88 L 541.41 150.00 L 466.41 166.41 L 450.00 185.16" stroke="white" fill="transparent"/>
	<path d = "M 450.00 185.16 L 457.03 264.84 L 407.81 267.19 L 396.09 185.16 L 300.00 187.50 L 243.75 199.22 L 243.75 288.28 L 217.97 288.28 L 201.56 276.56 L 201.56 185.16 L 182.81 121.88" stroke="white" fill="transparent"/>
	<path d = "M 271.88 51.56 L 262.50 168.75" stroke="white" fill="transparent"/>
	<path d = "M 353.91 23.44 L 339.84 166.41" stroke="white" fill="transparent"/>
	<path d = "M 398.44 72.66 L 396.09 192.19" stroke="white" fill="transparent"/>
	<path d = "M 447.66 131.25 L 431.25 225.00" stroke="white" fill="transparent"/>
	<path d = "M 150.00 46.88 L 150.00 135.94" stroke="white" fill="transparent"/>
</svg>