<?xml version="1.0" encoding="UTF-8" standalone="no"?>
<!--Created with ndjsontosvg (https:https://github.com/thompson318/ndjsontosvg) 
	from the simplified Google quickdraw data set. key_id = 5780480509083648-->
<svg width="600" height="600"
	xmlns="http://www.w3.org/2000/svg">
	xmlns:ndjsontosvg="https://github.com/thompson318/ndjsontosvg"
	xmlns:quickdraw="https://quickdraw.withgoogle.com/data"
	xmlns:scikit-surgery="https://doi.org/10.1007/s11548-020-02180-5">

	<rect width="100%" height="100%" fill="black" />
	<path d = "M 96.09 89.06 L 16.41 142.97 L 0.00 168.75 L 14.06 180.47 L 39.84 182.81 L 105.47 133.59 L 121.88 274.22 L 161.72 166.41 L 164.06 222.66 L 182.81 267.19 L 215.62 171.09 L 372.66 180.47 L 386.72 239.06 L 400.78 264.84 L 426.56 187.50 L 457.03 248.44 L 478.12 267.19 L 489.84 241.41 L 473.44 164.06 L 597.66 121.88" stroke="white" fill="transparent"/>
	<path d = "M 468.75 168.75 L 475.78 152.34 L 473.44 135.94 L 450.00 77.34 L 435.94 56.25 L 351.56 16.41 L 283.59 0.00 L 210.94 4.69 L 140.62 32.81 L 117.19 53.91 L 107.81 77.34 L 110.16 100.78 L 119.53 119.53" stroke="white" fill="transparent"/>
	<path d = "M 173.44 53.91 L 234.38 161.72" stroke="white" fill="transparent"/>
	<path d = "M 201.56 42.19 L 220.31 103.12 L 264.84 161.72" stroke="white" fill="transparent"/>
	<path d = "M 189.84 44.53 L 253.12 161.72" stroke="white" fill="transparent"/>
	<path d = "M 288.28 28.12 L 323.44 119.53 L 342.19 150.00 L 300.00 46.88 L 311.72 107.81 L 337.50 157.03 L 295.31 58.59 L 285.94 46.88 L 285.94 53.91 L 297.66 89.06 L 346.88 159.38" stroke="white" fill="transparent"/>
	<path d = "M 367.97 67.97 L 419.53 168.75 L 382.03 58.59 L 372.66 49.22 L 386.72 91.41 L 421.88 159.38" stroke="white" fill="transparent"/>
</svg>