<?xml version="1.0" encoding="UTF-8" standalone="no"?>
<!--Created with ndjsontosvg (https:https://github.com/thompson318/ndjsontosvg) 
	from the simplified Google quickdraw data set. key_id = 5708360340996096-->
<svg width="600" height="600"
	xmlns="http://www.w3.org/2000/svg">
	xmlns:ndjsontosvg="https://github.com/thompson318/ndjsontosvg"
	xmlns:quickdraw="https://quickdraw.withgoogle.com/data"
	xmlns:scikit-surgery="https://doi.org/10.1007/s11548-020-02180-5">

	<rect width="100%" height="100%" fill="black" />
	<path d = "M 353.91 168.75 L 403.12 154.69 L 440.62 126.56 L 454.69 75.00 L 447.66 28.12 L 459.38 9.38 L 513.28 2.34 L 583.59 25.78 L 597.66 39.84 L 588.28 58.59 L 548.44 75.00 L 527.34 96.09 L 496.88 220.31 L 496.88 335.16 L 485.16 400.78 L 442.97 382.03 L 433.59 365.62 L 431.25 246.09 L 428.91 217.97 L 419.53 210.94 L 370.31 243.75 L 323.44 290.62 L 351.56 382.03 L 346.88 400.78 L 288.28 375.00 L 290.62 253.12 L 274.22 229.69 L 236.72 241.41 L 229.69 250.78 L 225.00 285.94 L 234.38 328.12 L 227.34 342.19 L 215.62 349.22 L 171.09 337.50 L 128.91 278.91 L 103.12 217.97 L 112.50 196.88 L 138.28 178.12 L 187.50 159.38 L 278.91 145.31 L 332.81 140.62 L 375.00 147.66" stroke="white" fill="transparent"/>
	<path d = "M 133.59 180.47 L 53.91 180.47 L 14.06 196.88 L 0.00 311.72 L 30.47 435.94 L 119.53 300.00 L 126.56 239.06 L 119.53 201.56" stroke="white" fill="transparent"/>
	<path d = "M 171.09 189.84 L 168.75 307.03" stroke="white" fill="transparent"/>
	<path d = "M 239.06 187.50 L 239.06 187.50" stroke="white" fill="transparent"/>
</svg>