<?xml version="1.0" encoding="UTF-8" standalone="no"?>
<!--Created with ndjsontosvg (https:https://github.com/thompson318/ndjsontosvg) 
	from the simplified Google quickdraw data set. key_id = 6533374787190784-->
<svg width="600" height="600"
	xmlns="http://www.w3.org/2000/svg">
	xmlns:ndjsontosvg="https://github.com/thompson318/ndjsontosvg"
	xmlns:quickdraw="https://quickdraw.withgoogle.com/data"
	xmlns:scikit-surgery="https://doi.org/10.1007/s11548-020-02180-5">

	<rect width="100%" height="100%" fill="black" />
	<path d = "M 217.97 290.62 L 215.62 389.06 L 187.50 520.31 L 262.50 522.66 L 243.75 393.75 L 243.75 288.28 L 344.53 300.00 L 304.69 482.81 L 302.34 508.59 L 314.06 510.94 L 379.69 506.25 L 398.44 292.97" stroke="white" fill="transparent"/>
	<path d = "M 260.16 499.22 L 278.91 492.19 L 290.62 480.47 L 283.59 285.94" stroke="white" fill="transparent"/>
	<path d = "M 393.75 487.50 L 450.00 492.19 L 464.06 471.09 L 468.75 384.38 L 459.38 290.62" stroke="white" fill="transparent"/>
	<path d = "M 417.19 283.59 L 454.69 285.94 L 478.12 276.56" stroke="white" fill="transparent"/>
	<path d = "M 503.91 276.56 L 525.00 292.97 L 597.66 316.41 L 520.31 248.44 L 546.09 189.84 L 548.44 140.62 L 541.41 107.81 L 517.97 75.00 L 447.66 42.19 L 358.59 37.50 L 314.06 39.84 L 246.09 58.59 L 222.66 72.66 L 217.97 89.06 L 105.47 18.75 L 56.25 0.00 L 7.03 30.47 L 2.34 63.28 L 11.72 72.66 L 37.50 79.69 L 72.66 60.94 L 84.38 126.56 L 133.59 171.09 L 234.38 309.38" stroke="white" fill="transparent"/>
	<path d = "M 278.91 72.66 L 246.09 171.09 L 225.00 281.25" stroke="white" fill="transparent"/>
	<path d = "M 349.22 60.94 L 257.81 325.78" stroke="white" fill="transparent"/>
	<path d = "M 393.75 65.62 L 375.00 128.91 L 339.84 321.09" stroke="white" fill="transparent"/>
	<path d = "M 480.47 82.03 L 424.22 227.34 L 363.28 445.31 L 360.94 468.75" stroke="white" fill="transparent"/>
	<path d = "M 515.62 124.22 L 480.47 206.25" stroke="white" fill="transparent"/>
	<path d = "M 452.34 370.31 L 445.31 431.25" stroke="white" fill="transparent"/>
</svg>