<?xml version="1.0" encoding="UTF-8" standalone="no"?>
<!--Created with ndjsontosvg (https:https://github.com/thompson318/ndjsontosvg) 
	from the simplified Google quickdraw data set. key_id = 6216242857771008-->
<svg width="600" height="600"
	xmlns="http://www.w3.org/2000/svg">
	xmlns:ndjsontosvg="https://github.com/thompson318/ndjsontosvg"
	xmlns:quickdraw="https://quickdraw.withgoogle.com/data"
	xmlns:scikit-surgery="https://doi.org/10.1007/s11548-020-02180-5">

	<rect width="100%" height="100%" fill="white" />
	<path d = "M 75.00 147.66 L 28.12 145.31 L 2.34 171.09 L 2.34 208.59 L 18.75 229.69 L 37.50 239.06 L 79.69 248.44 L 210.94 262.50 L 386.72 260.16 L 461.72 243.75 L 543.75 192.19 L 562.50 168.75 L 588.28 119.53 L 597.66 89.06 L 592.97 58.59 L 564.84 51.56 L 536.72 103.12 L 478.12 121.88 L 72.66 138.28 L 25.78 142.97 L 7.03 154.69" stroke="black" fill="transparent"/>
	<path d = "M 232.03 203.91 L 283.59 276.56 L 405.47 405.47 L 414.84 407.81 L 414.84 398.44 L 407.81 337.50" stroke="black" fill="transparent"/>
	<path d = "M 398.44 283.59 L 389.06 194.53" stroke="black" fill="transparent"/>
	<path d = "M 220.31 86.72 L 227.34 32.81 L 239.06 2.34 L 246.09 0.00 L 335.16 89.06" stroke="black" fill="transparent"/>
</svg>