<?xml version="1.0" encoding="UTF-8" standalone="no"?>
<!--Created with ndjsontosvg (https:https://github.com/thompson318/ndjsontosvg) 
	from the simplified Google quickdraw data set. key_id = 5801927914815488-->
<svg width="600" height="600"
	xmlns="http://www.w3.org/2000/svg">
	xmlns:ndjsontosvg="https://github.com/thompson318/ndjsontosvg"
	xmlns:quickdraw="https://quickdraw.withgoogle.com/data"
	xmlns:scikit-surgery="https://doi.org/10.1007/s11548-020-02180-5">

	<rect width="100%" height="100%" fill="white" />
	<path d = "M 206.25 154.69 L 342.19 142.97 L 543.75 142.97 L 578.91 157.03 L 592.97 175.78 L 597.66 222.66 L 576.56 248.44 L 358.59 257.81 L 304.69 248.44" stroke="black" fill="transparent"/>
	<path d = "M 321.09 210.94 L 356.25 391.41 L 309.38 407.81 L 239.06 412.50 L 222.66 403.12 L 199.22 353.91 L 180.47 229.69" stroke="black" fill="transparent"/>
	<path d = "M 208.59 157.03 L 173.44 142.97 L 119.53 107.81 L 0.00 2.34 L 9.38 110.16 L 56.25 185.16 L 77.34 206.25 L 30.47 255.47 L 16.41 283.59 L 4.69 358.59 L 16.41 384.38 L 23.44 382.03 L 82.03 318.75 L 189.84 253.12" stroke="black" fill="transparent"/>
</svg>