<?xml version="1.0" encoding="UTF-8" standalone="no"?>
<!--Created with ndjsontosvg (https:https://github.com/thompson318/ndjsontosvg) 
	from the simplified Google quickdraw data set. key_id = 5822177293107200-->
<svg width="600" height="600"
	xmlns="http://www.w3.org/2000/svg">
	xmlns:ndjsontosvg="https://github.com/thompson318/ndjsontosvg"
	xmlns:quickdraw="https://quickdraw.withgoogle.com/data"
	xmlns:scikit-surgery="https://doi.org/10.1007/s11548-020-02180-5">

	<rect width="100%" height="100%" fill="white" />
	<path d = "M 239.06 187.50 L 203.91 67.97 L 157.03 11.72 L 171.09 0.00 L 234.38 4.69 L 253.12 25.78 L 278.91 110.16 L 295.31 210.94" stroke="black" fill="transparent"/>
	<path d = "M 250.78 304.69 L 267.19 412.50 L 255.47 457.03 L 269.53 478.12 L 283.59 482.81 L 309.38 466.41 L 323.44 442.97 L 311.72 300.00" stroke="black" fill="transparent"/>
	<path d = "M 328.12 292.97 L 142.97 278.91 L 0.00 255.47 L 2.34 241.41 L 30.47 222.66 L 187.50 201.56 L 417.19 189.84 L 529.69 206.25 L 583.59 222.66 L 597.66 243.75 L 595.31 255.47 L 588.28 260.16 L 553.12 267.19 L 447.66 267.19 L 316.41 288.28" stroke="black" fill="transparent"/>
</svg>