<?xml version="1.0" encoding="UTF-8" standalone="no"?>
<!--Created with ndjsontosvg (https:https://github.com/thompson318/ndjsontosvg) 
	from the simplified Google quickdraw data set. key_id = 5252611479437312-->
<svg width="600" height="600"
	xmlns="http://www.w3.org/2000/svg">
	xmlns:ndjsontosvg="https://github.com/thompson318/ndjsontosvg"
	xmlns:quickdraw="https://quickdraw.withgoogle.com/data"
	xmlns:scikit-surgery="https://doi.org/10.1007/s11548-020-02180-5">

	<rect width="100%" height="100%" fill="white" />
	<path d = "M 281.25 131.25 L 281.25 44.53 L 288.28 23.44 L 309.38 7.03 L 344.53 0.00 L 375.00 23.44 L 396.09 140.62 L 543.75 152.34 L 564.84 161.72 L 590.62 192.19 L 597.66 220.31 L 585.94 229.69 L 445.31 229.69 L 412.50 234.38 L 400.78 358.59 L 421.88 377.34 L 445.31 419.53 L 450.00 450.00 L 206.25 442.97 L 269.53 398.44 L 314.06 384.38 L 297.66 365.62 L 285.94 269.53 L 276.56 264.84 L 210.94 281.25 L 178.12 281.25 L 124.22 267.19 L 32.81 253.12 L 0.00 234.38 L 2.34 201.56 L 25.78 182.81 L 285.94 131.25" stroke="black" fill="transparent"/>
</svg>