<?xml version="1.0" encoding="UTF-8" standalone="no"?>
<!--Created with ndjsontosvg (https:https://github.com/thompson318/ndjsontosvg) 
	from the simplified Google quickdraw data set. key_id = 5649540331864064-->
<svg width="600" height="600"
	xmlns="http://www.w3.org/2000/svg">
	xmlns:ndjsontosvg="https://github.com/thompson318/ndjsontosvg"
	xmlns:quickdraw="https://quickdraw.withgoogle.com/data"
	xmlns:scikit-surgery="https://doi.org/10.1007/s11548-020-02180-5">

	<rect width="100%" height="100%" fill="white" />
	<path d = "M 234.38 236.72 L 213.28 217.97 L 133.59 201.56 L 44.53 217.97 L 11.72 260.16 L 4.69 314.06 L 9.38 353.91 L 25.78 396.09 L 84.38 464.06 L 161.72 501.56 L 241.41 515.62 L 283.59 517.97 L 353.91 506.25 L 403.12 454.69 L 428.91 412.50 L 442.97 363.28 L 450.00 311.72 L 442.97 234.38 L 426.56 210.94 L 391.41 187.50 L 307.03 178.12 L 140.62 225.00" stroke="black" fill="transparent"/>
	<path d = "M 49.22 227.34 L 0.00 93.75 L 7.03 75.00 L 35.16 63.28 L 86.72 63.28 L 105.47 91.41 L 110.16 178.12" stroke="black" fill="transparent"/>
	<path d = "M 300.00 154.69 L 309.38 105.47 L 328.12 58.59 L 351.56 35.16 L 382.03 16.41 L 424.22 14.06 L 457.03 51.56 L 471.09 107.81 L 464.06 124.22 L 403.12 180.47 L 386.72 187.50" stroke="black" fill="transparent"/>
	<path d = "M 60.94 75.00 L 168.75 2.34 L 248.44 4.69 L 337.50 42.19" stroke="black" fill="transparent"/>
	<path d = "M 135.94 485.16 L 100.78 548.44 L 96.09 574.22" stroke="black" fill="transparent"/>
	<path d = "M 295.31 501.56 L 309.38 588.28 L 321.09 597.66" stroke="black" fill="transparent"/>
	<path d = "M 229.69 330.47 L 229.69 330.47" stroke="black" fill="transparent"/>
	<path d = "M 180.47 332.81 L 220.31 332.81" stroke="black" fill="transparent"/>
</svg>