<?xml version="1.0" encoding="UTF-8" standalone="no"?>
<!--Created with ndjsontosvg (https:https://github.com/thompson318/ndjsontosvg) 
	from the simplified Google quickdraw data set. key_id = 4868388536975360-->
<svg width="600" height="600"
	xmlns="http://www.w3.org/2000/svg">
	xmlns:ndjsontosvg="https://github.com/thompson318/ndjsontosvg"
	xmlns:quickdraw="https://quickdraw.withgoogle.com/data"
	xmlns:scikit-surgery="https://doi.org/10.1007/s11548-020-02180-5">

	<rect width="100%" height="100%" fill="white" />
	<path d = "M 464.06 194.53 L 417.19 133.59 L 377.34 100.78 L 314.06 89.06 L 227.34 103.12 L 166.41 128.91 L 114.84 161.72 L 65.62 222.66 L 46.88 307.03 L 49.22 349.22 L 53.91 417.19 L 72.66 464.06 L 107.81 503.91 L 140.62 522.66 L 215.62 550.78 L 255.47 557.81 L 332.81 548.44 L 391.41 529.69 L 454.69 480.47 L 492.19 426.56 L 503.91 398.44 L 506.25 356.25 L 499.22 236.72 L 496.88 222.66 L 478.12 208.59 L 428.91 194.53" stroke="black" fill="transparent"/>
	<path d = "M 145.31 532.03 L 112.50 562.50 L 91.41 597.66" stroke="black" fill="transparent"/>
	<path d = "M 464.06 550.78 L 438.28 525.00 L 459.38 569.53" stroke="black" fill="transparent"/>
	<path d = "M 246.09 332.81 L 243.75 344.53" stroke="black" fill="transparent"/>
	<path d = "M 260.16 309.38 L 290.62 295.31 L 363.28 222.66" stroke="black" fill="transparent"/>
	<path d = "M 257.81 349.22 L 328.12 346.88 L 339.84 351.56" stroke="black" fill="transparent"/>
	<path d = "M 142.97 119.53 L 178.12 112.50 L 192.19 96.09 L 194.53 79.69 L 159.38 46.88 L 124.22 30.47 L 107.81 30.47 L 77.34 39.84 L 46.88 67.97 L 11.72 110.16 L 0.00 142.97 L 23.44 161.72 L 60.94 166.41 L 145.31 147.66" stroke="black" fill="transparent"/>
	<path d = "M 32.81 72.66 L 16.41 56.25 L 18.75 37.50 L 25.78 21.09 L 39.84 11.72 L 58.59 16.41" stroke="black" fill="transparent"/>
	<path d = "M 318.75 67.97 L 309.38 44.53 L 316.41 30.47 L 349.22 7.03 L 384.38 0.00 L 433.59 14.06 L 478.12 37.50 L 494.53 51.56 L 499.22 82.03" stroke="black" fill="transparent"/>
</svg>