<?xml version="1.0" encoding="UTF-8" standalone="no"?>
<!--Created with ndjsontosvg (https:https://github.com/thompson318/ndjsontosvg) 
	from the simplified Google quickdraw data set. key_id = 6515750577635328-->
<svg width="600" height="600"
	xmlns="http://www.w3.org/2000/svg">
	xmlns:ndjsontosvg="https://github.com/thompson318/ndjsontosvg"
	xmlns:quickdraw="https://quickdraw.withgoogle.com/data"
	xmlns:scikit-surgery="https://doi.org/10.1007/s11548-020-02180-5">

	<rect width="100%" height="100%" fill="white" />
	<path d = "M 344.53 171.09 L 321.09 159.38 L 234.38 159.38 L 189.84 171.09 L 145.31 194.53 L 105.47 220.31 L 70.31 262.50 L 35.16 316.41 L 14.06 372.66 L 4.69 475.78 L 14.06 517.97 L 37.50 548.44 L 65.62 571.88 L 100.78 588.28 L 194.53 597.66 L 248.44 585.94 L 300.00 564.84 L 339.84 546.09 L 370.31 517.97 L 391.41 492.19 L 407.81 450.00 L 419.53 372.66 L 414.84 328.12 L 398.44 285.94 L 382.03 253.12 L 353.91 220.31 L 278.91 187.50 L 203.91 178.12 L 164.06 185.16" stroke="black" fill="transparent"/>
	<path d = "M 161.72 243.75 L 161.72 243.75" stroke="black" fill="transparent"/>
	<path d = "M 206.25 225.00 L 208.59 330.47" stroke="black" fill="transparent"/>
	<path d = "M 285.94 295.31 L 295.31 285.94 L 318.75 285.94 L 330.47 297.66 L 342.19 353.91 L 372.66 360.94" stroke="black" fill="transparent"/>
	<path d = "M 257.81 417.19 L 278.91 403.12 L 297.66 400.78 L 321.09 400.78 L 325.78 414.84 L 325.78 435.94 L 307.03 473.44 L 323.44 485.16 L 328.12 527.34 L 283.59 576.56" stroke="black" fill="transparent"/>
	<path d = "M 121.88 466.41 L 114.84 499.22 L 128.91 541.41 L 126.56 578.91" stroke="black" fill="transparent"/>
	<path d = "M 0.00 398.44 L 4.69 438.28" stroke="black" fill="transparent"/>
	<path d = "M 60.94 281.25 L 49.22 292.97 L 51.56 314.06 L 63.28 318.75 L 86.72 307.03" stroke="black" fill="transparent"/>
	<path d = "M 199.22 389.06 L 131.25 367.97 L 126.56 342.19" stroke="black" fill="transparent"/>
	<path d = "M 241.41 407.81 L 321.09 377.34" stroke="black" fill="transparent"/>
	<path d = "M 206.25 391.41 L 196.88 410.16 L 196.88 445.31" stroke="black" fill="transparent"/>
	<path d = "M 227.34 138.28 L 201.56 135.94 L 152.34 114.84 L 154.69 72.66 L 196.88 32.81 L 248.44 4.69 L 278.91 0.00 L 321.09 7.03 L 337.50 30.47 L 337.50 96.09 L 323.44 121.88 L 290.62 154.69 L 255.47 166.41 L 222.66 166.41 L 213.28 147.66" stroke="black" fill="transparent"/>
</svg>