<?xml version="1.0" encoding="UTF-8" standalone="no"?>
<!--Created with ndjsontosvg (https:https://github.com/thompson318/ndjsontosvg) 
	from the simplified Google quickdraw data set. key_id = 5080045011861504-->
<svg width="600" height="600"
	xmlns="http://www.w3.org/2000/svg">
	xmlns:ndjsontosvg="https://github.com/thompson318/ndjsontosvg"
	xmlns:quickdraw="https://quickdraw.withgoogle.com/data"
	xmlns:scikit-surgery="https://doi.org/10.1007/s11548-020-02180-5">

	<rect width="100%" height="100%" fill="white" />
	<path d = "M 51.56 461.72 L 56.25 492.19 L 84.38 525.00 L 119.53 541.41 L 187.50 555.47 L 239.06 555.47 L 285.94 539.06 L 328.12 513.28 L 379.69 450.00 L 403.12 375.00 L 405.47 295.31 L 391.41 246.09 L 382.03 227.34 L 337.50 194.53 L 241.41 173.44 L 175.78 187.50 L 135.94 217.97 L 93.75 264.84 L 67.97 309.38 L 51.56 389.06 L 53.91 426.56 L 63.28 471.09 L 82.03 513.28 L 133.59 562.50" stroke="black" fill="transparent"/>
	<path d = "M 103.12 276.56 L 70.31 241.41 L 25.78 222.66 L 11.72 208.59 L 2.34 161.72 L 2.34 98.44 L 30.47 86.72 L 70.31 86.72 L 138.28 107.81 L 166.41 140.62 L 182.81 192.19" stroke="black" fill="transparent"/>
	<path d = "M 351.56 187.50 L 349.22 145.31 L 382.03 84.38 L 403.12 65.62 L 431.25 65.62 L 457.03 89.06 L 473.44 126.56 L 478.12 168.75 L 466.41 203.91 L 417.19 262.50" stroke="black" fill="transparent"/>
	<path d = "M 128.91 93.75 L 166.41 39.84 L 192.19 16.41 L 276.56 0.00 L 316.41 11.72 L 351.56 39.84 L 370.31 75.00 L 377.34 107.81" stroke="black" fill="transparent"/>
	<path d = "M 77.34 548.44 L 21.09 597.66" stroke="black" fill="transparent"/>
</svg>