<?xml version="1.0" encoding="UTF-8" standalone="no"?>
<!--Created with ndjsontosvg (https:https://github.com/thompson318/ndjsontosvg) 
	from the simplified Google quickdraw data set. key_id = 6712293846941696-->
<svg width="600" height="600"
	xmlns="http://www.w3.org/2000/svg">
	xmlns:ndjsontosvg="https://github.com/thompson318/ndjsontosvg"
	xmlns:quickdraw="https://quickdraw.withgoogle.com/data"
	xmlns:scikit-surgery="https://doi.org/10.1007/s11548-020-02180-5">

	<rect width="100%" height="100%" fill="white" />
	<path d = "M 414.84 140.62 L 400.78 131.25 L 363.28 124.22 L 236.72 124.22 L 213.28 126.56 L 150.00 154.69 L 107.81 189.84 L 51.56 257.81 L 25.78 325.78 L 25.78 405.47 L 46.88 440.62 L 82.03 478.12 L 189.84 534.38 L 304.69 541.41 L 358.59 517.97 L 393.75 494.53 L 440.62 450.00 L 489.84 344.53 L 501.56 283.59 L 503.91 220.31 L 503.91 192.19 L 480.47 142.97 L 431.25 107.81 L 398.44 100.78" stroke="black" fill="transparent"/>
	<path d = "M 253.12 311.72 L 253.12 311.72" stroke="black" fill="transparent"/>
	<path d = "M 253.12 311.72 L 253.12 311.72" stroke="black" fill="transparent"/>
	<path d = "M 241.41 309.38 L 255.47 318.75 L 255.47 314.06" stroke="black" fill="transparent"/>
	<path d = "M 255.47 314.06 L 257.81 166.41" stroke="black" fill="transparent"/>
	<path d = "M 255.47 321.09 L 398.44 314.06" stroke="black" fill="transparent"/>
	<path d = "M 114.84 105.47 L 82.03 89.06 L 35.16 91.41 L 2.34 121.88 L 0.00 138.28 L 0.00 168.75 L 25.78 199.22 L 56.25 213.28 L 105.47 213.28" stroke="black" fill="transparent"/>
	<path d = "M 450.00 77.34 L 471.09 46.88 L 534.38 0.00 L 569.53 7.03 L 595.31 49.22 L 597.66 119.53 L 592.97 150.00 L 567.19 182.81" stroke="black" fill="transparent"/>
</svg>