<?xml version="1.0" encoding="UTF-8" standalone="no"?>
<!--Created with ndjsontosvg (https:https://github.com/thompson318/ndjsontosvg) 
	from the simplified Google quickdraw data set. key_id = 6190761152348160-->
<svg width="600" height="600"
	xmlns="http://www.w3.org/2000/svg">
	xmlns:ndjsontosvg="https://github.com/thompson318/ndjsontosvg"
	xmlns:quickdraw="https://quickdraw.withgoogle.com/data"
	xmlns:scikit-surgery="https://doi.org/10.1007/s11548-020-02180-5">

	<rect width="100%" height="100%" fill="white" />
	<path d = "M 344.53 166.41 L 302.34 145.31 L 267.19 135.94 L 199.22 142.97 L 110.16 182.81 L 65.62 225.00 L 32.81 297.66 L 11.72 389.06 L 9.38 435.94 L 49.22 503.91 L 117.19 555.47 L 215.62 592.97 L 328.12 595.31 L 421.88 560.16 L 459.38 534.38 L 501.56 485.16 L 520.31 438.28 L 529.69 349.22 L 517.97 278.91 L 489.84 189.84 L 464.06 166.41 L 419.53 145.31 L 358.59 145.31 L 330.47 159.38" stroke="black" fill="transparent"/>
	<path d = "M 131.25 171.09 L 121.88 100.78 L 103.12 70.31 L 63.28 56.25 L 42.19 56.25 L 25.78 67.97 L 2.34 105.47 L 2.34 171.09 L 18.75 227.34 L 51.56 269.53" stroke="black" fill="transparent"/>
	<path d = "M 405.47 126.56 L 431.25 63.28 L 487.50 9.38 L 548.44 0.00 L 574.22 14.06 L 595.31 53.91 L 585.94 112.50 L 550.78 185.16 L 522.66 220.31" stroke="black" fill="transparent"/>
	<path d = "M 311.72 215.62 L 276.56 208.59 L 229.69 213.28 L 150.00 255.47 L 98.44 295.31 L 67.97 344.53 L 82.03 426.56 L 131.25 487.50 L 178.12 515.62 L 225.00 532.03 L 292.97 543.75 L 335.16 541.41 L 419.53 508.59 L 431.25 492.19 L 445.31 445.31 L 445.31 379.69 L 410.16 311.72 L 337.50 267.19" stroke="black" fill="transparent"/>
	<path d = "M 246.09 257.81 L 227.34 325.78 L 215.62 421.88 L 225.00 435.94 L 358.59 468.75" stroke="black" fill="transparent"/>
</svg>