<?xml version="1.0" encoding="UTF-8" standalone="no"?>
<!--Created with ndjsontosvg (https:https://github.com/thompson318/ndjsontosvg) 
	from the simplified Google quickdraw data set. key_id = 4874767687483392-->
<svg width="600" height="600"
	xmlns="http://www.w3.org/2000/svg">
	xmlns:ndjsontosvg="https://github.com/thompson318/ndjsontosvg"
	xmlns:quickdraw="https://quickdraw.withgoogle.com/data"
	xmlns:scikit-surgery="https://doi.org/10.1007/s11548-020-02180-5">

	<rect width="100%" height="100%" fill="white" />
	<path d = "M 201.56 53.91 L 203.91 150.00 L 194.53 246.09 L 335.16 234.38 L 595.31 232.03 L 592.97 203.91 L 560.16 105.47 L 553.12 51.56 L 393.75 35.16 L 288.28 11.72 L 217.97 32.81" stroke="black" fill="transparent"/>
	<path d = "M 114.84 250.78 L 79.69 257.81 L 89.06 290.62 L 135.94 297.66 L 154.69 285.94 L 161.72 274.22 L 154.69 248.44 L 124.22 241.41" stroke="black" fill="transparent"/>
	<path d = "M 522.66 239.06 L 464.06 255.47 L 475.78 292.97 L 527.34 290.62 L 541.41 283.59 L 548.44 267.19 L 543.75 253.12 L 522.66 243.75" stroke="black" fill="transparent"/>
	<path d = "M 199.22 58.59 L 157.03 44.53 L 100.78 51.56 L 70.31 114.84 L 11.72 126.56 L 0.00 138.28 L 4.69 164.06 L 25.78 201.56 L 164.06 199.22" stroke="black" fill="transparent"/>
	<path d = "M 321.09 58.59 L 337.50 173.44" stroke="black" fill="transparent"/>
	<path d = "M 276.56 98.44 L 405.47 105.47" stroke="black" fill="transparent"/>
	<path d = "M 128.91 32.81 L 133.59 9.38 L 145.31 2.34 L 178.12 16.41 L 182.81 0.00 L 201.56 23.44" stroke="black" fill="transparent"/>
</svg>