<?xml version="1.0" encoding="UTF-8" standalone="no"?>
<!--Created with ndjsontosvg (https:https://github.com/thompson318/ndjsontosvg) 
	from the simplified Google quickdraw data set. key_id = 5586768340451328-->
<svg width="600" height="600"
	xmlns="http://www.w3.org/2000/svg">
	xmlns:ndjsontosvg="https://github.com/thompson318/ndjsontosvg"
	xmlns:quickdraw="https://quickdraw.withgoogle.com/data"
	xmlns:scikit-surgery="https://doi.org/10.1007/s11548-020-02180-5">

	<rect width="100%" height="100%" fill="white" />
	<path d = "M 56.25 264.84 L 46.88 227.34 L 51.56 175.78 L 67.97 157.03 L 91.41 147.66 L 175.78 142.97 L 342.19 154.69 L 426.56 166.41 L 471.09 182.81 L 485.16 274.22 L 564.84 283.59 L 590.62 295.31 L 597.66 332.81 L 590.62 367.97 L 370.31 382.03 L 227.34 403.12 L 9.38 405.47 L 2.34 393.75 L 0.00 356.25 L 4.69 271.88 L 16.41 264.84 L 65.62 271.88" stroke="black" fill="transparent"/>
	<path d = "M 100.78 398.44 L 84.38 405.47 L 75.00 421.88 L 79.69 445.31 L 93.75 461.72 L 124.22 459.38 L 140.62 428.91 L 138.28 412.50 L 126.56 403.12 L 117.19 407.81" stroke="black" fill="transparent"/>
	<path d = "M 480.47 386.72 L 468.75 393.75 L 461.72 419.53 L 482.81 438.28 L 494.53 438.28 L 506.25 435.94 L 522.66 382.03 L 515.62 367.97 L 487.50 363.28" stroke="black" fill="transparent"/>
	<path d = "M 217.97 152.34 L 227.34 121.88 L 353.91 135.94 L 358.59 152.34" stroke="black" fill="transparent"/>
	<path d = "M 246.09 126.56 L 241.41 147.66" stroke="black" fill="transparent"/>
	<path d = "M 314.06 135.94 L 314.06 150.00" stroke="black" fill="transparent"/>
	<path d = "M 393.75 171.09 L 403.12 271.88 L 431.25 283.59 L 496.88 283.59" stroke="black" fill="transparent"/>
	<path d = "M 445.31 213.28 L 452.34 269.53" stroke="black" fill="transparent"/>
	<path d = "M 464.06 220.31 L 475.78 262.50" stroke="black" fill="transparent"/>
	<path d = "M 234.38 96.09 L 217.97 37.50" stroke="black" fill="transparent"/>
	<path d = "M 309.38 75.00 L 300.00 56.25 L 311.72 0.00" stroke="black" fill="transparent"/>
	<path d = "M 375.00 117.19 L 428.91 39.84" stroke="black" fill="transparent"/>
</svg>