<?xml version="1.0" encoding="UTF-8" standalone="no"?>
<!--Created with ndjsontosvg (https:https://github.com/thompson318/ndjsontosvg) 
	from the simplified Google quickdraw data set. key_id = 6034308009558016-->
<svg width="600" height="600"
	xmlns="http://www.w3.org/2000/svg">
	xmlns:ndjsontosvg="https://github.com/thompson318/ndjsontosvg"
	xmlns:quickdraw="https://quickdraw.withgoogle.com/data"
	xmlns:scikit-surgery="https://doi.org/10.1007/s11548-020-02180-5">

	<rect width="100%" height="100%" fill="white" />
	<path d = "M 309.38 203.91 L 295.31 171.09 L 246.09 110.16 L 201.56 72.66 L 140.62 46.88 L 58.59 39.84 L 25.78 49.22 L 14.06 58.59 L 2.34 86.72 L 60.94 124.22" stroke="black" fill="transparent"/>
	<path d = "M 309.38 206.25 L 353.91 166.41 L 457.03 119.53 L 534.38 107.81 L 574.22 124.22 L 590.62 145.31 L 597.66 239.06" stroke="black" fill="transparent"/>
	<path d = "M 314.06 131.25 L 304.69 91.41 L 292.97 67.97 L 278.91 63.28 L 255.47 65.62 L 241.41 75.00 L 234.38 119.53 L 255.47 154.69 L 292.97 185.16 L 342.19 201.56 L 379.69 199.22 L 389.06 187.50 L 389.06 159.38 L 379.69 119.53 L 365.62 103.12 L 307.03 70.31" stroke="black" fill="transparent"/>
	<path d = "M 335.16 14.06 L 292.97 2.34 L 264.84 4.69 L 262.50 28.12 L 285.94 51.56 L 318.75 65.62 L 360.94 65.62 L 375.00 58.59 L 363.28 21.09 L 314.06 0.00" stroke="black" fill="transparent"/>
	<path d = "M 278.91 185.16 L 262.50 185.16 L 215.62 213.28 L 173.44 264.84 L 131.25 335.16 L 119.53 414.84 L 124.22 487.50 L 164.06 464.06" stroke="black" fill="transparent"/>
	<path d = "M 335.16 210.94 L 349.22 213.28 L 393.75 267.19 L 410.16 330.47 L 407.81 386.72 L 372.66 473.44" stroke="black" fill="transparent"/>
	<path d = "M 367.97 480.47 L 360.94 482.81" stroke="black" fill="transparent"/>
</svg>