<?xml version="1.0" encoding="UTF-8" standalone="no"?>
<!--Created with ndjsontosvg (https:https://github.com/thompson318/ndjsontosvg) 
	from the simplified Google quickdraw data set. key_id = 5447504076210176-->
<svg width="600" height="600"
	xmlns="http://www.w3.org/2000/svg">
	xmlns:ndjsontosvg="https://github.com/thompson318/ndjsontosvg"
	xmlns:quickdraw="https://quickdraw.withgoogle.com/data"
	xmlns:scikit-surgery="https://doi.org/10.1007/s11548-020-02180-5">

	<rect width="100%" height="100%" fill="white" />
	<path d = "M 295.31 255.47 L 253.12 255.47 L 175.78 213.28 L 91.41 121.88 L 128.91 290.62 L 119.53 288.28 L 63.28 232.03 L 0.00 159.38 L 21.09 285.94 L 39.84 342.19 L 67.97 391.41 L 103.12 421.88 L 140.62 433.59 L 175.78 428.91 L 206.25 410.16" stroke="black" fill="transparent"/>
	<path d = "M 384.38 253.12 L 466.41 135.94 L 482.81 51.56 L 496.88 185.16 L 480.47 250.78 L 461.72 283.59 L 597.66 121.88 L 562.50 288.28 L 534.38 360.94 L 510.94 398.44 L 464.06 438.28 L 435.94 445.31 L 412.50 442.97" stroke="black" fill="transparent"/>
	<path d = "M 292.97 215.62 L 283.59 271.88 L 241.41 363.28 L 112.50 525.00 L 192.19 541.41 L 339.84 525.00 L 403.12 503.91 L 442.97 478.12 L 419.53 457.03 L 382.03 398.44 L 358.59 335.16 L 328.12 225.00 L 330.47 217.97" stroke="black" fill="transparent"/>
	<path d = "M 342.19 51.56 L 314.06 44.53 L 276.56 72.66 L 239.06 128.91 L 241.41 164.06 L 253.12 185.16 L 288.28 215.62 L 314.06 227.34 L 363.28 220.31 L 379.69 208.59 L 398.44 166.41 L 400.78 142.97 L 389.06 98.44 L 370.31 79.69 L 314.06 75.00" stroke="black" fill="transparent"/>
	<path d = "M 321.09 14.06 L 292.97 4.69 L 206.25 4.69 L 194.53 11.72 L 192.19 30.47 L 199.22 42.19 L 217.97 53.91 L 318.75 42.19 L 360.94 30.47 L 358.59 21.09 L 269.53 0.00" stroke="black" fill="transparent"/>
</svg>