<?xml version="1.0" encoding="UTF-8" standalone="no"?>
<!--Created with ndjsontosvg (https:https://github.com/thompson318/ndjsontosvg) 
	from the simplified Google quickdraw data set. key_id = 6585682187255808-->
<svg width="600" height="600"
	xmlns="http://www.w3.org/2000/svg">
	xmlns:ndjsontosvg="https://github.com/thompson318/ndjsontosvg"
	xmlns:quickdraw="https://quickdraw.withgoogle.com/data"
	xmlns:scikit-surgery="https://doi.org/10.1007/s11548-020-02180-5">

	<rect width="100%" height="100%" fill="white" />
	<path d = "M 260.16 168.75 L 227.34 152.34 L 199.22 119.53 L 189.84 100.78 L 189.84 65.62 L 208.59 28.12 L 295.31 0.00 L 311.72 4.69 L 318.75 18.75 L 353.91 105.47 L 349.22 161.72" stroke="black" fill="transparent"/>
	<path d = "M 260.16 168.75 L 227.34 239.06 L 206.25 367.97 L 161.72 475.78 L 142.97 578.91 L 173.44 588.28 L 370.31 578.91 L 426.56 564.84 L 445.31 522.66 L 445.31 496.88 L 389.06 307.03 L 370.31 185.16 L 367.97 119.53" stroke="black" fill="transparent"/>
	<path d = "M 360.94 168.75 L 353.91 157.03 L 384.38 84.38 L 407.81 53.91 L 461.72 25.78 L 532.03 16.41 L 597.66 18.75 L 576.56 150.00 L 576.56 241.41 L 560.16 318.75 L 569.53 382.03 L 438.28 353.91 L 400.78 328.12 L 393.75 314.06" stroke="black" fill="transparent"/>
	<path d = "M 227.34 168.75 L 138.28 93.75 L 84.38 60.94 L 58.59 25.78 L 37.50 274.22 L 11.72 337.50 L 0.00 396.09 L 7.03 457.03 L 23.44 459.38 L 96.09 440.62 L 182.81 396.09 L 229.69 360.94 L 243.75 356.25" stroke="black" fill="transparent"/>
</svg>