<?xml version="1.0" encoding="UTF-8" standalone="no"?>
<!--Created with ndjsontosvg (https:https://github.com/thompson318/ndjsontosvg) 
	from the simplified Google quickdraw data set. key_id = 4585464835080192-->
<svg width="600" height="600"
	xmlns="http://www.w3.org/2000/svg">
	xmlns:ndjsontosvg="https://github.com/thompson318/ndjsontosvg"
	xmlns:quickdraw="https://quickdraw.withgoogle.com/data"
	xmlns:scikit-surgery="https://doi.org/10.1007/s11548-020-02180-5">

	<rect width="100%" height="100%" fill="white" />
	<path d = "M 23.44 597.66 L 28.12 510.94 L 77.34 407.81 L 135.94 360.94 L 201.56 346.88 L 225.00 346.88 L 234.38 360.94 L 246.09 428.91 L 248.44 522.66 L 222.66 581.25" stroke="black" fill="transparent"/>
	<path d = "M 250.78 417.19 L 267.19 396.09 L 297.66 391.41 L 314.06 442.97" stroke="black" fill="transparent"/>
	<path d = "M 316.41 410.16 L 321.09 492.19 L 311.72 496.88 L 290.62 473.44 L 248.44 464.06" stroke="black" fill="transparent"/>
	<path d = "M 46.88 581.25 L 60.94 548.44 L 93.75 522.66 L 110.16 557.81 L 119.53 557.81 L 152.34 522.66 L 173.44 555.47 L 185.16 541.41 L 213.28 527.34 L 225.00 536.72 L 225.00 562.50" stroke="black" fill="transparent"/>
	<path d = "M 114.84 206.25 L 145.31 164.06 L 182.81 140.62 L 203.91 140.62 L 217.97 182.81 L 260.16 138.28 L 285.94 131.25 L 292.97 185.16" stroke="black" fill="transparent"/>
	<path d = "M 248.44 105.47 L 255.47 89.06 L 302.34 46.88 L 332.81 42.19 L 356.25 84.38 L 410.16 58.59 L 438.28 56.25 L 454.69 67.97 L 464.06 89.06 L 468.75 117.19" stroke="black" fill="transparent"/>
	<path d = "M 0.00 110.16 L 117.19 79.69 L 253.12 32.81" stroke="black" fill="transparent"/>
	<path d = "M 100.78 46.88 L 220.31 7.03 L 316.41 0.00 L 318.75 16.41 L 307.03 23.44 L 178.12 91.41" stroke="black" fill="transparent"/>
</svg>