<?xml version="1.0" encoding="UTF-8" standalone="no"?>
<!--Created with ndjsontosvg (https:https://github.com/thompson318/ndjsontosvg) 
	from the simplified Google quickdraw data set. key_id = 5408751962030080-->
<svg width="600" height="600"
	xmlns="http://www.w3.org/2000/svg">
	xmlns:ndjsontosvg="https://github.com/thompson318/ndjsontosvg"
	xmlns:quickdraw="https://quickdraw.withgoogle.com/data"
	xmlns:scikit-surgery="https://doi.org/10.1007/s11548-020-02180-5">

	<rect width="100%" height="100%" fill="white" />
	<path d = "M 37.50 11.72 L 89.06 39.84" stroke="black" fill="transparent"/>
	<path d = "M 77.34 4.69 L 46.88 49.22" stroke="black" fill="transparent"/>
	<path d = "M 9.38 42.19 L 39.84 98.44" stroke="black" fill="transparent"/>
	<path d = "M 4.69 75.00 L 23.44 56.25 L 39.84 56.25 L 42.19 67.97 L 2.34 79.69 L 0.00 70.31 L 14.06 63.28 L 30.47 63.28" stroke="black" fill="transparent"/>
	<path d = "M 79.69 7.03 L 63.28 21.09 L 56.25 39.84 L 70.31 30.47 L 84.38 0.00" stroke="black" fill="transparent"/>
	<path d = "M 110.16 112.50 L 107.81 98.44 L 128.91 96.09 L 138.28 126.56 L 110.16 112.50 L 103.12 98.44 L 124.22 105.47 L 131.25 121.88" stroke="black" fill="transparent"/>
	<path d = "M 142.97 98.44 L 119.53 110.16 L 114.84 121.88 L 121.88 128.91 L 145.31 100.78 L 124.22 112.50 L 121.88 121.88 L 135.94 110.16 L 135.94 121.88" stroke="black" fill="transparent"/>
	<path d = "M 464.06 23.44 L 468.75 77.34" stroke="black" fill="transparent"/>
	<path d = "M 468.75 77.34 L 457.03 60.94 L 597.66 37.50 L 464.06 56.25 L 450.00 39.84 L 438.28 124.22 L 454.69 124.22 L 499.22 91.41 L 513.28 70.31 L 513.28 49.22 L 499.22 42.19 L 489.84 44.53 L 480.47 65.62" stroke="black" fill="transparent"/>
	<path d = "M 508.59 171.09 L 522.66 173.44 L 541.41 189.84 L 548.44 203.91 L 543.75 215.62 L 475.78 220.31 L 459.38 201.56 L 496.88 166.41 L 557.81 147.66 L 541.41 168.75 L 503.91 175.78 L 492.19 241.41 L 506.25 243.75" stroke="black" fill="transparent"/>
</svg>