<?xml version="1.0" encoding="UTF-8" standalone="no"?>
<!--Created with ndjsontosvg (https:https://github.com/thompson318/ndjsontosvg) 
	from the simplified Google quickdraw data set. key_id = 5508530947751936-->
<svg width="600" height="600"
	xmlns="http://www.w3.org/2000/svg">
	xmlns:ndjsontosvg="https://github.com/thompson318/ndjsontosvg"
	xmlns:quickdraw="https://quickdraw.withgoogle.com/data"
	xmlns:scikit-surgery="https://doi.org/10.1007/s11548-020-02180-5">

	<rect width="100%" height="100%" fill="white" />
	<path d = "M 431.25 82.03 L 426.56 110.16 L 433.59 119.53 L 440.62 114.84 L 454.69 91.41 L 447.66 72.66" stroke="black" fill="transparent"/>
	<path d = "M 300.00 107.81 L 309.38 119.53 L 318.75 119.53 L 328.12 110.16 L 323.44 98.44" stroke="black" fill="transparent"/>
	<path d = "M 367.97 7.03 L 372.66 30.47 L 384.38 39.84 L 412.50 28.12 L 405.47 14.06" stroke="black" fill="transparent"/>
	<path d = "M 203.91 44.53 L 220.31 53.91 L 243.75 53.91 L 264.84 28.12 L 257.81 18.75" stroke="black" fill="transparent"/>
	<path d = "M 236.72 121.88 L 222.66 138.28 L 222.66 152.34 L 232.03 157.03 L 232.03 133.59 L 222.66 135.94 L 217.97 147.66" stroke="black" fill="transparent"/>
	<path d = "M 215.62 215.62 L 201.56 236.72 L 213.28 227.34 L 206.25 215.62" stroke="black" fill="transparent"/>
	<path d = "M 110.16 51.56 L 4.69 0.00" stroke="black" fill="transparent"/>
	<path d = "M 100.78 185.16 L 49.22 182.81 L 7.03 199.22" stroke="black" fill="transparent"/>
	<path d = "M 110.16 285.94 L 58.59 300.00 L 9.38 337.50" stroke="black" fill="transparent"/>
	<path d = "M 0.00 393.75 L 145.31 367.97 L 424.22 300.00 L 597.66 269.53" stroke="black" fill="transparent"/>
</svg>