<?xml version="1.0" encoding="UTF-8" standalone="no"?>
<!--Created with ndjsontosvg (https:https://github.com/thompson318/ndjsontosvg) 
	from the simplified Google quickdraw data set. key_id = 6167146398744576-->
<svg width="600" height="600"
	xmlns="http://www.w3.org/2000/svg">
	xmlns:ndjsontosvg="https://github.com/thompson318/ndjsontosvg"
	xmlns:quickdraw="https://quickdraw.withgoogle.com/data"
	xmlns:scikit-surgery="https://doi.org/10.1007/s11548-020-02180-5">

	<rect width="100%" height="100%" fill="white" />
	<path d = "M 0.00 180.47 L 14.06 215.62 L 14.06 342.19" stroke="black" fill="transparent"/>
	<path d = "M 75.00 215.62 L 75.00 307.03" stroke="black" fill="transparent"/>
	<path d = "M 124.22 206.25 L 126.56 356.25" stroke="black" fill="transparent"/>
	<path d = "M 182.81 206.25 L 182.81 285.94" stroke="black" fill="transparent"/>
	<path d = "M 23.44 208.59 L 89.06 229.69 L 145.31 222.66 L 236.72 232.03 L 260.16 213.28 L 262.50 185.16 L 250.78 166.41 L 210.94 142.97 L 107.81 135.94 L 35.16 145.31 L 9.38 166.41 L 0.00 203.91 L 7.03 217.97 L 39.84 227.34" stroke="black" fill="transparent"/>
	<path d = "M 234.38 157.03 L 239.06 131.25 L 255.47 89.06" stroke="black" fill="transparent"/>
	<path d = "M 257.81 89.06 L 274.22 112.50 L 297.66 114.84 L 311.72 91.41 L 304.69 67.97 L 264.84 53.91 L 246.09 79.69" stroke="black" fill="transparent"/>
	<path d = "M 372.66 217.97 L 377.34 344.53" stroke="black" fill="transparent"/>
	<path d = "M 426.56 241.41 L 428.91 351.56" stroke="black" fill="transparent"/>
	<path d = "M 475.78 255.47 L 482.81 358.59" stroke="black" fill="transparent"/>
	<path d = "M 515.62 225.00 L 513.28 328.12 L 520.31 360.94" stroke="black" fill="transparent"/>
	<path d = "M 365.62 220.31 L 405.47 236.72 L 508.59 241.41 L 592.97 220.31 L 597.66 199.22 L 581.25 178.12 L 480.47 147.66 L 365.62 147.66 L 346.88 159.38 L 339.84 171.09 L 346.88 220.31 L 377.34 246.09 L 403.12 246.09" stroke="black" fill="transparent"/>
	<path d = "M 536.72 175.78 L 569.53 91.41" stroke="black" fill="transparent"/>
	<path d = "M 571.88 84.38 L 555.47 58.59 L 555.47 14.06 L 562.50 0.00 L 592.97 4.69" stroke="black" fill="transparent"/>
</svg>