<?xml version="1.0" encoding="UTF-8" standalone="no"?>
<!--Created with ndjsontosvg (https:https://github.com/thompson318/ndjsontosvg) 
	from the simplified Google quickdraw data set. key_id = 5572615685013504-->
<svg width="600" height="600"
	xmlns="http://www.w3.org/2000/svg">
	xmlns:ndjsontosvg="https://github.com/thompson318/ndjsontosvg"
	xmlns:quickdraw="https://quickdraw.withgoogle.com/data"
	xmlns:scikit-surgery="https://doi.org/10.1007/s11548-020-02180-5">

	<rect width="100%" height="100%" fill="white" />
	<path d = "M 571.88 14.06 L 574.22 42.19 L 585.94 39.84 L 585.94 21.09 L 576.56 9.38 L 567.19 11.72" stroke="black" fill="transparent"/>
	<path d = "M 578.91 35.16 L 581.25 84.38" stroke="black" fill="transparent"/>
	<path d = "M 597.66 51.56 L 562.50 53.91" stroke="black" fill="transparent"/>
	<path d = "M 583.59 60.94 L 564.84 44.53" stroke="black" fill="transparent"/>
	<path d = "M 335.16 0.00 L 330.47 25.78 L 337.50 46.88 L 353.91 60.94 L 365.62 58.59 L 365.62 49.22 L 356.25 23.44 L 337.50 11.72" stroke="black" fill="transparent"/>
	<path d = "M 353.91 51.56 L 351.56 93.75" stroke="black" fill="transparent"/>
	<path d = "M 328.12 65.62 L 370.31 89.06" stroke="black" fill="transparent"/>
	<path d = "M 203.91 37.50 L 189.84 37.50 L 182.81 49.22 L 182.81 70.31 L 194.53 72.66 L 206.25 53.91 L 194.53 44.53" stroke="black" fill="transparent"/>
	<path d = "M 199.22 67.97 L 194.53 93.75" stroke="black" fill="transparent"/>
	<path d = "M 180.47 79.69 L 196.88 89.06 L 232.03 91.41" stroke="black" fill="transparent"/>
	<path d = "M 98.44 18.75 L 84.38 42.19 L 86.72 56.25 L 96.09 51.56 L 100.78 37.50 L 96.09 25.78" stroke="black" fill="transparent"/>
	<path d = "M 79.69 58.59 L 96.09 65.62 L 119.53 93.75" stroke="black" fill="transparent"/>
	<path d = "M 93.75 60.94 L 82.03 93.75" stroke="black" fill="transparent"/>
	<path d = "M 0.00 84.38 L 11.72 84.38 L 18.75 77.34 L 18.75 65.62 L 9.38 53.91" stroke="black" fill="transparent"/>
	<path d = "M 16.41 70.31 L 11.72 93.75" stroke="black" fill="transparent"/>
	<path d = "M 9.38 77.34 L 21.09 89.06 L 44.53 96.09" stroke="black" fill="transparent"/>
</svg>