<?xml version="1.0" encoding="UTF-8" standalone="no"?>
<!--Created with ndjsontosvg (https:https://github.com/thompson318/ndjsontosvg) 
	from the simplified Google quickdraw data set. key_id = 5810738822119424-->
<svg width="600" height="600"
	xmlns="http://www.w3.org/2000/svg">
	xmlns:ndjsontosvg="https://github.com/thompson318/ndjsontosvg"
	xmlns:quickdraw="https://quickdraw.withgoogle.com/data"
	xmlns:scikit-surgery="https://doi.org/10.1007/s11548-020-02180-5">

	<rect width="100%" height="100%" fill="white" />
	<path d = "M 433.59 128.91 L 475.78 182.81 L 525.00 133.59 L 546.09 124.22 L 567.19 140.62 L 597.66 175.78" stroke="black" fill="transparent"/>
	<path d = "M 246.09 192.19 L 290.62 164.06 L 342.19 173.44 L 351.56 135.94 L 360.94 131.25 L 452.34 112.50" stroke="black" fill="transparent"/>
	<path d = "M 140.62 213.28 L 161.72 178.12 L 187.50 166.41 L 220.31 164.06 L 239.06 105.47 L 271.88 89.06 L 307.03 91.41" stroke="black" fill="transparent"/>
	<path d = "M 82.03 173.44 L 82.03 161.72 L 103.12 140.62 L 159.38 119.53 L 173.44 77.34 L 206.25 60.94 L 243.75 53.91" stroke="black" fill="transparent"/>
	<path d = "M 0.00 138.28 L 28.12 98.44 L 51.56 82.03 L 86.72 67.97 L 114.84 18.75 L 135.94 4.69 L 175.78 0.00" stroke="black" fill="transparent"/>
</svg>