<?xml version="1.0" encoding="UTF-8" standalone="no"?>
<!--Created with ndjsontosvg (https:https://github.com/thompson318/ndjsontosvg) 
	from the simplified Google quickdraw data set. key_id = 4840754100830208-->
<svg width="600" height="600"
	xmlns="http://www.w3.org/2000/svg">
	xmlns:ndjsontosvg="https://github.com/thompson318/ndjsontosvg"
	xmlns:quickdraw="https://quickdraw.withgoogle.com/data"
	xmlns:scikit-surgery="https://doi.org/10.1007/s11548-020-02180-5">

	<rect width="100%" height="100%" fill="white" />
	<path d = "M 534.38 28.12 L 513.28 37.50 L 485.16 67.97 L 485.16 119.53 L 501.56 140.62 L 522.66 150.00 L 560.16 140.62 L 592.97 110.16 L 597.66 93.75 L 595.31 65.62 L 571.88 32.81 L 510.94 0.00" stroke="black" fill="transparent"/>
	<path d = "M 471.09 79.69 L 445.31 60.94 L 410.16 51.56 L 356.25 51.56 L 302.34 65.62 L 260.16 91.41 L 250.78 112.50 L 250.78 135.94 L 267.19 161.72 L 356.25 171.09 L 398.44 166.41 L 428.91 152.34 L 492.19 86.72" stroke="black" fill="transparent"/>
	<path d = "M 246.09 110.16 L 175.78 72.66 L 84.38 72.66 L 46.88 84.38 L 14.06 124.22 L 0.00 152.34 L 0.00 168.75 L 16.41 182.81 L 84.38 199.22 L 192.19 199.22 L 208.59 194.53 L 225.00 159.38 L 232.03 107.81" stroke="black" fill="transparent"/>
	<path d = "M 133.59 208.59 L 128.91 276.56" stroke="black" fill="transparent"/>
	<path d = "M 161.72 220.31 L 157.03 290.62" stroke="black" fill="transparent"/>
	<path d = "M 302.34 182.81 L 311.72 213.28 L 314.06 307.03" stroke="black" fill="transparent"/>
	<path d = "M 342.19 203.91 L 344.53 321.09" stroke="black" fill="transparent"/>
</svg>