<?xml version="1.0" encoding="UTF-8" standalone="no"?>
<!--Created with ndjsontosvg (https:https://github.com/thompson318/ndjsontosvg) 
	from the simplified Google quickdraw data set. key_id = 5421143332749312-->
<svg width="600" height="600"
	xmlns="http://www.w3.org/2000/svg">
	xmlns:ndjsontosvg="https://github.com/thompson318/ndjsontosvg"
	xmlns:quickdraw="https://quickdraw.withgoogle.com/data"
	xmlns:scikit-surgery="https://doi.org/10.1007/s11548-020-02180-5">

	<rect width="100%" height="100%" fill="white" />
	<path d = "M 138.28 159.38 L 112.50 180.47 L 103.12 220.31 L 117.19 253.12 L 145.31 262.50 L 161.72 215.62 L 159.38 157.03 L 142.97 145.31 L 131.25 145.31 L 119.53 157.03" stroke="black" fill="transparent"/>
	<path d = "M 119.53 157.03 L 39.84 60.94 L 0.00 32.81" stroke="black" fill="transparent"/>
	<path d = "M 145.31 140.62 L 135.94 42.19 L 117.19 14.06 L 98.44 0.00" stroke="black" fill="transparent"/>
	<path d = "M 236.72 117.19 L 222.66 117.19 L 206.25 128.91 L 185.16 196.88 L 194.53 241.41 L 215.62 269.53 L 232.03 276.56 L 264.84 262.50 L 292.97 239.06 L 311.72 192.19 L 314.06 142.97 L 309.38 114.84 L 297.66 100.78 L 281.25 96.09 L 234.38 96.09 L 210.94 112.50" stroke="black" fill="transparent"/>
	<path d = "M 466.41 124.22 L 435.94 103.12 L 382.03 100.78 L 316.41 117.19 L 285.94 140.62 L 281.25 180.47 L 288.28 215.62 L 318.75 246.09 L 367.97 269.53 L 442.97 271.88 L 522.66 246.09 L 581.25 189.84 L 597.66 161.72 L 597.66 147.66 L 583.59 133.59 L 520.31 110.16 L 375.00 100.78" stroke="black" fill="transparent"/>
	<path d = "M 175.78 243.75 L 166.41 325.78 L 180.47 365.62" stroke="black" fill="transparent"/>
	<path d = "M 243.75 269.53 L 264.84 344.53 L 278.91 360.94" stroke="black" fill="transparent"/>
	<path d = "M 318.75 260.16 L 302.34 318.75 L 304.69 358.59" stroke="black" fill="transparent"/>
</svg>