<?xml version="1.0" encoding="UTF-8" standalone="no"?>
<!--Created with ndjsontosvg (https:https://github.com/thompson318/ndjsontosvg) 
	from the simplified Google quickdraw data set. key_id = 5643153023434752-->
<svg width="600" height="600"
	xmlns="http://www.w3.org/2000/svg">
	xmlns:ndjsontosvg="https://github.com/thompson318/ndjsontosvg"
	xmlns:quickdraw="https://quickdraw.withgoogle.com/data"
	xmlns:scikit-surgery="https://doi.org/10.1007/s11548-020-02180-5">

	<rect width="100%" height="100%" fill="white" />
	<path d = "M 2.34 363.28 L 2.34 346.88 L 21.09 314.06 L 65.62 276.56 L 91.41 269.53 L 131.25 271.88 L 157.03 288.28 L 168.75 309.38 L 140.62 337.50 L 91.41 363.28 L 0.00 363.28" stroke="black" fill="transparent"/>
	<path d = "M 187.50 300.00 L 210.94 271.88 L 257.81 234.38 L 300.00 222.66 L 349.22 222.66 L 372.66 234.38 L 393.75 269.53 L 396.09 290.62 L 372.66 309.38 L 330.47 323.44 L 285.94 328.12 L 203.91 292.97" stroke="black" fill="transparent"/>
	<path d = "M 389.06 262.50 L 428.91 203.91 L 496.88 159.38 L 529.69 171.09 L 553.12 192.19 L 574.22 225.00 L 569.53 236.72 L 522.66 267.19 L 459.38 292.97 L 400.78 297.66 L 391.41 292.97 L 389.06 269.53" stroke="black" fill="transparent"/>
	<path d = "M 471.09 185.16 L 452.34 168.75 L 445.31 142.97 L 445.31 77.34 L 459.38 0.00" stroke="black" fill="transparent"/>
	<path d = "M 503.91 142.97 L 534.38 107.81 L 597.66 70.31" stroke="black" fill="transparent"/>
	<path d = "M 285.94 285.94 L 253.12 344.53" stroke="black" fill="transparent"/>
	<path d = "M 365.62 314.06 L 379.69 384.38" stroke="black" fill="transparent"/>
	<path d = "M 49.22 356.25 L 25.78 398.44 L 16.41 442.97" stroke="black" fill="transparent"/>
	<path d = "M 114.84 365.62 L 138.28 367.97" stroke="black" fill="transparent"/>
</svg>