<?xml version="1.0" encoding="UTF-8" standalone="no"?>
<!--Created with ndjsontosvg (https:https://github.com/thompson318/ndjsontosvg) 
	from the simplified Google quickdraw data set. key_id = 5908930297331712-->
<svg width="600" height="600"
	xmlns="http://www.w3.org/2000/svg">
	xmlns:ndjsontosvg="https://github.com/thompson318/ndjsontosvg"
	xmlns:quickdraw="https://quickdraw.withgoogle.com/data"
	xmlns:scikit-surgery="https://doi.org/10.1007/s11548-020-02180-5">

	<rect width="100%" height="100%" fill="white" />
	<path d = "M 269.53 232.03 L 250.78 196.88 L 232.03 180.47 L 185.16 157.03 L 138.28 152.34 L 89.06 178.12 L 23.44 255.47 L 4.69 314.06 L 0.00 396.09 L 39.84 464.06 L 93.75 510.94 L 234.38 562.50 L 356.25 581.25 L 440.62 576.56 L 508.59 546.09 L 546.09 513.28 L 585.94 457.03 L 597.66 403.12 L 595.31 339.84 L 576.56 300.00 L 517.97 246.09 L 471.09 217.97 L 410.16 199.22 L 339.84 199.22 L 283.59 213.28 L 269.53 222.66" stroke="black" fill="transparent"/>
	<path d = "M 269.53 213.28 L 276.56 173.44 L 281.25 0.00" stroke="black" fill="transparent"/>
</svg>