<?xml version="1.0" encoding="UTF-8" standalone="no"?>
<!--Created with ndjsontosvg (https:https://github.com/thompson318/ndjsontosvg) 
	from the simplified Google quickdraw data set. key_id = 4896774663700480-->
<svg width="600" height="600"
	xmlns="http://www.w3.org/2000/svg">
	xmlns:ndjsontosvg="https://github.com/thompson318/ndjsontosvg"
	xmlns:quickdraw="https://quickdraw.withgoogle.com/data"
	xmlns:scikit-surgery="https://doi.org/10.1007/s11548-020-02180-5">

	<rect width="100%" height="100%" fill="white" />
	<path d = "M 325.78 4.69 L 300.00 0.00 L 274.22 11.72 L 229.69 51.56 L 199.22 135.94 L 187.50 227.34" stroke="black" fill="transparent"/>
	<path d = "M 309.38 2.34 L 314.06 30.47 L 234.38 128.91 L 213.28 201.56" stroke="black" fill="transparent"/>
	<path d = "M 175.78 178.12 L 173.44 199.22 L 187.50 203.91 L 377.34 196.88 L 386.72 154.69" stroke="black" fill="transparent"/>
	<path d = "M 342.19 164.06 L 353.91 175.78 L 382.03 248.44 L 396.09 377.34 L 396.09 527.34 L 379.69 562.50 L 255.47 597.66 L 182.81 576.56 L 46.88 562.50 L 25.78 553.12 L 7.03 522.66 L 2.34 450.00 L 9.38 307.03 L 0.00 220.31 L 39.84 187.50 L 107.81 175.78 L 128.91 175.78 L 164.06 199.22 L 210.94 210.94 L 262.50 208.59 L 274.22 196.88" stroke="black" fill="transparent"/>
</svg>