<?xml version="1.0" encoding="UTF-8" standalone="no"?>
<!--Created with ndjsontosvg (https:https://github.com/thompson318/ndjsontosvg) 
	from the simplified Google quickdraw data set. key_id = 4942934560473088-->
<svg width="600" height="600"
	xmlns="http://www.w3.org/2000/svg">
	xmlns:ndjsontosvg="https://github.com/thompson318/ndjsontosvg"
	xmlns:quickdraw="https://quickdraw.withgoogle.com/data"
	xmlns:scikit-surgery="https://doi.org/10.1007/s11548-020-02180-5">

	<rect width="100%" height="100%" fill="white" />
	<path d = "M 182.81 220.31 L 171.09 192.19 L 157.03 182.81 L 103.12 175.78 L 72.66 185.16 L 28.12 232.03 L 11.72 260.16 L 0.00 335.16 L 16.41 452.34 L 39.84 503.91 L 72.66 543.75 L 138.28 578.91 L 192.19 592.97 L 257.81 595.31 L 321.09 578.91 L 384.38 529.69 L 410.16 478.12 L 428.91 421.88 L 438.28 328.12 L 414.84 234.38 L 382.03 166.41 L 349.22 140.62 L 311.72 135.94 L 239.06 173.44 L 199.22 236.72 L 192.19 239.06 L 178.12 208.59" stroke="black" fill="transparent"/>
	<path d = "M 194.53 215.62 L 185.16 0.00" stroke="black" fill="transparent"/>
	<path d = "M 203.91 103.12 L 220.31 60.94 L 241.41 44.53 L 285.94 35.16 L 309.38 49.22 L 314.06 82.03 L 227.34 131.25" stroke="black" fill="transparent"/>
</svg>