<?xml version="1.0" encoding="UTF-8" standalone="no"?>
<!--Created with ndjsontosvg (https:https://github.com/thompson318/ndjsontosvg) 
	from the simplified Google quickdraw data set. key_id = 6003440637444096-->
<svg width="600" height="600"
	xmlns="http://www.w3.org/2000/svg">
	xmlns:ndjsontosvg="https://github.com/thompson318/ndjsontosvg"
	xmlns:quickdraw="https://quickdraw.withgoogle.com/data"
	xmlns:scikit-surgery="https://doi.org/10.1007/s11548-020-02180-5">

	<rect width="100%" height="100%" fill="white" />
	<path d = "M 206.25 145.31 L 121.88 140.62 L 77.34 164.06 L 23.44 206.25 L 2.34 264.84 L 2.34 379.69 L 32.81 452.34 L 119.53 555.47 L 175.78 590.62 L 300.00 597.66 L 328.12 588.28 L 367.97 557.81 L 419.53 489.84 L 445.31 410.16 L 459.38 267.19 L 438.28 206.25 L 360.94 152.34 L 337.50 140.62 L 288.28 135.94 L 236.72 135.94 L 225.00 145.31" stroke="black" fill="transparent"/>
	<path d = "M 225.00 128.91 L 217.97 152.34 L 220.31 0.00" stroke="black" fill="transparent"/>
	<path d = "M 222.66 86.72 L 227.34 72.66 L 257.81 51.56 L 309.38 35.16 L 330.47 42.19 L 337.50 60.94 L 285.94 79.69 L 220.31 86.72" stroke="black" fill="transparent"/>
</svg>