<?xml version="1.0" encoding="UTF-8" standalone="no"?>
<!--Created with ndjsontosvg (https:https://github.com/thompson318/ndjsontosvg) 
	from the simplified Google quickdraw data set. key_id = 5856087989288960-->
<svg width="600" height="600"
	xmlns="http://www.w3.org/2000/svg">
	xmlns:ndjsontosvg="https://github.com/thompson318/ndjsontosvg"
	xmlns:quickdraw="https://quickdraw.withgoogle.com/data"
	xmlns:scikit-surgery="https://doi.org/10.1007/s11548-020-02180-5">

	<rect width="100%" height="100%" fill="white" />
	<path d = "M 222.66 107.81 L 222.66 98.44 L 180.47 86.72 L 133.59 86.72 L 84.38 96.09 L 37.50 164.06 L 2.34 267.19 L 0.00 485.16 L 16.41 557.81 L 60.94 588.28 L 138.28 597.66 L 210.94 597.66 L 232.03 588.28 L 243.75 574.22 L 257.81 506.25 L 267.19 499.22 L 267.19 571.88 L 365.62 581.25 L 405.47 560.16 L 452.34 532.03 L 494.53 487.50 L 555.47 367.97 L 557.81 241.41 L 539.06 199.22 L 513.28 168.75 L 478.12 145.31 L 426.56 121.88 L 318.75 105.47 L 229.69 105.47 L 222.66 91.41 L 222.66 23.44 L 283.59 0.00 L 288.28 82.03 L 278.91 107.81" stroke="black" fill="transparent"/>
	<path d = "M 281.25 53.91 L 302.34 46.88" stroke="black" fill="transparent"/>
</svg>