<?xml version="1.0" encoding="UTF-8" standalone="no"?>
<!--Created with ndjsontosvg (https:https://github.com/thompson318/ndjsontosvg) 
	from the simplified Google quickdraw data set. key_id = 5037361626873856-->
<svg width="600" height="600"
	xmlns="http://www.w3.org/2000/svg">
	xmlns:ndjsontosvg="https://github.com/thompson318/ndjsontosvg"
	xmlns:quickdraw="https://quickdraw.withgoogle.com/data"
	xmlns:scikit-surgery="https://doi.org/10.1007/s11548-020-02180-5">

	<rect width="100%" height="100%" fill="white" />
	<path d = "M 342.19 199.22 L 398.44 217.97 L 440.62 220.31 L 489.84 199.22 L 513.28 178.12 L 527.34 225.00 L 529.69 431.25 L 489.84 506.25 L 480.47 564.84 L 459.38 588.28 L 435.94 595.31 L 386.72 595.31 L 164.06 564.84 L 82.03 527.34 L 9.38 435.94 L 0.00 393.75 L 2.34 302.34 L 23.44 243.75 L 70.31 171.09 L 89.06 166.41 L 133.59 182.81 L 194.53 215.62 L 288.28 222.66 L 323.44 199.22 L 337.50 203.91 L 323.44 203.91 L 309.38 164.06 L 311.72 100.78 L 332.81 46.88 L 332.81 0.00 L 328.12 2.34 L 307.03 63.28 L 311.72 201.56" stroke="black" fill="transparent"/>
</svg>