<?xml version="1.0" encoding="UTF-8" standalone="no"?>
<!--Created with ndjsontosvg (https:https://github.com/thompson318/ndjsontosvg) 
	from the simplified Google quickdraw data set. key_id = 4553315541057536-->
<svg width="600" height="600"
	xmlns="http://www.w3.org/2000/svg">
	xmlns:ndjsontosvg="https://github.com/thompson318/ndjsontosvg"
	xmlns:quickdraw="https://quickdraw.withgoogle.com/data"
	xmlns:scikit-surgery="https://doi.org/10.1007/s11548-020-02180-5">

	<rect width="100%" height="100%" fill="white" />
	<path d = "M 264.84 208.59 L 262.50 199.22 L 241.41 182.81 L 192.19 171.09 L 126.56 173.44 L 53.91 208.59 L 25.78 255.47 L 4.69 335.16 L 0.00 419.53 L 7.03 452.34 L 56.25 539.06 L 124.22 569.53 L 196.88 571.88 L 222.66 553.12 L 243.75 583.59 L 311.72 597.66 L 377.34 571.88 L 428.91 536.72 L 471.09 492.19 L 503.91 438.28 L 510.94 330.47 L 496.88 262.50 L 480.47 234.38 L 452.34 203.91 L 377.34 159.38 L 316.41 154.69 L 297.66 182.81 L 274.22 201.56" stroke="black" fill="transparent"/>
	<path d = "M 260.16 196.88 L 262.50 77.34 L 269.53 44.53 L 292.97 4.69 L 311.72 0.00 L 325.78 9.38" stroke="black" fill="transparent"/>
</svg>