<?xml version="1.0" encoding="UTF-8" standalone="no"?>
<!--Created with ndjsontosvg (https:https://github.com/thompson318/ndjsontosvg) 
	from the simplified Google quickdraw data set. key_id = 5749206255927296-->
<svg width="600" height="600"
	xmlns="http://www.w3.org/2000/svg">
	xmlns:ndjsontosvg="https://github.com/thompson318/ndjsontosvg"
	xmlns:quickdraw="https://quickdraw.withgoogle.com/data"
	xmlns:scikit-surgery="https://doi.org/10.1007/s11548-020-02180-5">

	<rect width="100%" height="100%" fill="white" />
	<path d = "M 255.47 208.59 L 257.81 185.16 L 227.34 121.88 L 217.97 114.84 L 140.62 114.84 L 82.03 135.94 L 32.81 182.81 L 4.69 253.12 L 0.00 290.62 L 0.00 335.16 L 14.06 375.00 L 91.41 433.59 L 157.03 466.41 L 248.44 597.66 L 433.59 578.91 L 501.56 562.50 L 534.38 543.75 L 555.47 525.00 L 578.91 466.41 L 585.94 339.84 L 581.25 309.38 L 557.81 290.62 L 543.75 253.12 L 496.88 241.41 L 428.91 203.91 L 332.81 171.09 L 269.53 164.06 L 260.16 168.75 L 255.47 182.81" stroke="black" fill="transparent"/>
	<path d = "M 271.88 187.50 L 288.28 0.00" stroke="black" fill="transparent"/>
	<path d = "M 269.53 138.28 L 372.66 39.84 L 412.50 11.72 L 489.84 2.34 L 499.22 28.12 L 496.88 70.31 L 478.12 112.50 L 428.91 140.62 L 372.66 157.03 L 264.84 166.41" stroke="black" fill="transparent"/>
</svg>