<?xml version="1.0" encoding="UTF-8" standalone="no"?>
<!--Created with ndjsontosvg (https:https://github.com/thompson318/ndjsontosvg) 
	from the simplified Google quickdraw data set. key_id = 6150314828759040-->
<svg width="600" height="600"
	xmlns="http://www.w3.org/2000/svg">
	xmlns:ndjsontosvg="https://github.com/thompson318/ndjsontosvg"
	xmlns:quickdraw="https://quickdraw.withgoogle.com/data"
	xmlns:scikit-surgery="https://doi.org/10.1007/s11548-020-02180-5">

	<rect width="100%" height="100%" fill="white" />
	<path d = "M 86.72 330.47 L 63.28 311.72 L 4.69 206.25 L 4.69 161.72 L 21.09 173.44 L 35.16 194.53 L 21.09 145.31 L 21.09 96.09 L 30.47 65.62 L 46.88 91.41 L 63.28 168.75 L 91.41 77.34 L 98.44 65.62 L 110.16 65.62 L 124.22 142.97 L 93.75 203.91 L 157.03 105.47 L 173.44 96.09 L 192.19 98.44 L 175.78 173.44 L 138.28 220.31 L 178.12 182.81 L 229.69 157.03 L 203.91 222.66 L 166.41 253.12 L 189.84 288.28 L 255.47 349.22 L 285.94 370.31 L 318.75 370.31 L 398.44 318.75 L 485.16 213.28 L 515.62 187.50 L 522.66 152.34 L 555.47 75.00 L 592.97 2.34 L 597.66 4.69" stroke="black" fill="transparent"/>
</svg>