<?xml version="1.0" encoding="UTF-8" standalone="no"?>
<!--Created with ndjsontosvg (https:https://github.com/thompson318/ndjsontosvg) 
	from the simplified Google quickdraw data set. key_id = 5398567688601600-->
<svg width="600" height="600"
	xmlns="http://www.w3.org/2000/svg">
	xmlns:ndjsontosvg="https://github.com/thompson318/ndjsontosvg"
	xmlns:quickdraw="https://quickdraw.withgoogle.com/data"
	xmlns:scikit-surgery="https://doi.org/10.1007/s11548-020-02180-5">

	<rect width="100%" height="100%" fill="white" />
	<path d = "M 328.12 25.78 L 295.31 100.78 L 276.56 199.22 L 189.84 466.41 L 185.16 489.84 L 217.97 529.69 L 220.31 550.78 L 196.88 562.50 L 185.16 555.47 L 133.59 597.66 L 119.53 597.66 L 103.12 583.59 L 96.09 557.81 L 51.56 581.25 L 21.09 574.22 L 18.75 562.50 L 42.19 532.03 L 32.81 550.78 L 9.38 546.09 L 2.34 513.28 L 35.16 489.84 L 56.25 482.81 L 77.34 487.50 L 60.94 489.84 L 49.22 478.12 L 51.56 440.62 L 77.34 428.91 L 121.88 438.28 L 133.59 433.59 L 152.34 339.84 L 171.09 302.34 L 194.53 222.66 L 222.66 171.09 L 241.41 91.41 L 269.53 49.22 L 285.94 4.69 L 295.31 0.00 L 311.72 4.69 L 335.16 35.16" stroke="black" fill="transparent"/>
</svg>