<?xml version="1.0" encoding="UTF-8" standalone="no"?>
<!--Created with ndjsontosvg (https:https://github.com/thompson318/ndjsontosvg) 
	from the simplified Google quickdraw data set. key_id = 5784387440345088-->
<svg width="600" height="600"
	xmlns="http://www.w3.org/2000/svg">
	xmlns:ndjsontosvg="https://github.com/thompson318/ndjsontosvg"
	xmlns:quickdraw="https://quickdraw.withgoogle.com/data"
	xmlns:scikit-surgery="https://doi.org/10.1007/s11548-020-02180-5">

	<rect width="100%" height="100%" fill="white" />
	<path d = "M 0.00 370.31 L 147.66 292.97 L 288.28 208.59 L 370.31 150.00 L 393.75 121.88 L 393.75 93.75 L 358.59 53.91 L 342.19 58.59 L 323.44 77.34 L 346.88 42.19 L 400.78 4.69 L 412.50 0.00 L 417.19 7.03 L 414.84 49.22 L 454.69 16.41 L 482.81 14.06 L 489.84 35.16 L 475.78 42.19 L 475.78 49.22 L 508.59 93.75 L 508.59 105.47 L 489.84 114.84 L 492.19 121.88 L 546.09 161.72 L 550.78 166.41 L 539.06 173.44 L 543.75 185.16 L 597.66 210.94 L 581.25 229.69 L 539.06 246.09 L 468.75 182.81 L 428.91 166.41 L 328.12 229.69" stroke="black" fill="transparent"/>
</svg>