<?xml version="1.0" encoding="UTF-8" standalone="no"?>
<!--Created with ndjsontosvg (https:https://github.com/thompson318/ndjsontosvg) 
	from the simplified Google quickdraw data set. key_id = 4552345465651200-->
<svg width="600" height="600"
	xmlns="http://www.w3.org/2000/svg">
	xmlns:ndjsontosvg="https://github.com/thompson318/ndjsontosvg"
	xmlns:quickdraw="https://quickdraw.withgoogle.com/data"
	xmlns:scikit-surgery="https://doi.org/10.1007/s11548-020-02180-5">

	<rect width="100%" height="100%" fill="white" />
	<path d = "M 0.00 239.06 L 103.12 335.16 L 161.72 379.69 L 187.50 389.06 L 215.62 363.28 L 321.09 295.31 L 447.66 159.38 L 473.44 112.50 L 433.59 60.94 L 426.56 25.78 L 442.97 21.09 L 459.38 23.44 L 468.75 42.19 L 492.19 60.94 L 485.16 28.12 L 513.28 0.00 L 520.31 35.16 L 522.66 23.44 L 548.44 9.38 L 555.47 28.12 L 543.75 44.53 L 576.56 37.50 L 583.59 46.88 L 557.81 72.66 L 585.94 75.00 L 597.66 96.09 L 569.53 135.94 L 546.09 192.19 L 503.91 250.78" stroke="black" fill="transparent"/>
</svg>