<?xml version="1.0" encoding="UTF-8" standalone="no"?>
<!--Created with ndjsontosvg (https:https://github.com/thompson318/ndjsontosvg) 
	from the simplified Google quickdraw data set. key_id = 4780983691771904-->
<svg width="600" height="600"
	xmlns="http://www.w3.org/2000/svg">
	xmlns:ndjsontosvg="https://github.com/thompson318/ndjsontosvg"
	xmlns:quickdraw="https://quickdraw.withgoogle.com/data"
	xmlns:scikit-surgery="https://doi.org/10.1007/s11548-020-02180-5">

	<rect width="100%" height="100%" fill="white" />
	<path d = "M 487.50 7.03 L 450.00 138.28 L 407.81 208.59 L 332.81 274.22 L 222.66 281.25 L 131.25 271.88 L 128.91 278.91 L 161.72 325.78 L 178.12 367.97 L 199.22 379.69 L 229.69 363.28 L 262.50 353.91 L 377.34 346.88 L 454.69 330.47 L 510.94 314.06 L 539.06 295.31 L 567.19 262.50 L 585.94 215.62 L 588.28 145.31 L 576.56 32.81 L 585.94 0.00 L 597.66 2.34" stroke="black" fill="transparent"/>
	<path d = "M 126.56 283.59 L 0.00 267.19" stroke="black" fill="transparent"/>
	<path d = "M 135.94 316.41 L 46.88 349.22" stroke="black" fill="transparent"/>
	<path d = "M 159.38 337.50 L 44.53 414.84" stroke="black" fill="transparent"/>
</svg>