<?xml version="1.0" encoding="UTF-8" standalone="no"?>
<!--Created with ndjsontosvg (https:https://github.com/thompson318/ndjsontosvg) 
	from the simplified Google quickdraw data set. key_id = 5924031469453312-->
<svg width="600" height="600"
	xmlns="http://www.w3.org/2000/svg">
	xmlns:ndjsontosvg="https://github.com/thompson318/ndjsontosvg"
	xmlns:quickdraw="https://quickdraw.withgoogle.com/data"
	xmlns:scikit-surgery="https://doi.org/10.1007/s11548-020-02180-5">

	<rect width="100%" height="100%" fill="white" />
	<path d = "M 32.81 168.75 L 100.78 217.97 L 157.03 236.72 L 304.69 246.09 L 314.06 229.69 L 283.59 159.38 L 276.56 60.94 L 295.31 7.03 L 311.72 0.00 L 344.53 16.41 L 363.28 65.62 L 367.97 201.56" stroke="black" fill="transparent"/>
	<path d = "M 16.41 182.81 L 0.00 189.84 L 0.00 241.41 L 7.03 260.16 L 35.16 288.28 L 70.31 302.34 L 175.78 302.34 L 208.59 309.38 L 159.38 309.38 L 39.84 328.12 L 25.78 344.53 L 18.75 375.00 L 35.16 384.38 L 164.06 379.69 L 142.97 382.03 L 124.22 396.09 L 58.59 457.03 L 51.56 513.28 L 58.59 529.69 L 98.44 522.66 L 152.34 468.75 L 217.97 421.88 L 178.12 494.53 L 161.72 557.81 L 161.72 576.56 L 178.12 590.62 L 210.94 597.66 L 227.34 590.62 L 243.75 487.50 L 264.84 454.69 L 304.69 445.31 L 398.44 445.31" stroke="black" fill="transparent"/>
</svg>