<?xml version="1.0" encoding="UTF-8" standalone="no"?>
<!--Created with ndjsontosvg (https:https://github.com/thompson318/ndjsontosvg) 
	from the simplified Google quickdraw data set. key_id = 6587934876631040-->
<svg width="600" height="600"
	xmlns="http://www.w3.org/2000/svg">
	xmlns:ndjsontosvg="https://github.com/thompson318/ndjsontosvg"
	xmlns:quickdraw="https://quickdraw.withgoogle.com/data"
	xmlns:scikit-surgery="https://doi.org/10.1007/s11548-020-02180-5">

	<rect width="100%" height="100%" fill="white" />
	<path d = "M 194.53 175.78 L 215.62 346.88 L 274.22 592.97 L 225.00 597.66 L 210.94 482.81 L 187.50 405.47 L 154.69 248.44 L 147.66 171.09" stroke="black" fill="transparent"/>
	<path d = "M 189.84 182.81 L 215.62 142.97 L 222.66 105.47 L 192.19 100.78 L 178.12 140.62 L 180.47 77.34 L 168.75 49.22 L 157.03 49.22 L 140.62 67.97 L 131.25 133.59 L 105.47 32.81 L 86.72 32.81 L 82.03 70.31 L 21.09 25.78 L 7.03 23.44 L 0.00 35.16 L 2.34 51.56 L 58.59 126.56 L 89.06 145.31 L 60.94 121.88 L 67.97 117.19 L 93.75 126.56 L 164.06 187.50 L 168.75 194.53 L 128.91 192.19 L 142.97 201.56 L 175.78 208.59 L 182.81 203.91 L 180.47 185.16 L 135.94 124.22 L 180.47 159.38 L 196.88 164.06 L 203.91 159.38 L 201.56 124.22 L 178.12 75.00 L 213.28 135.94 L 220.31 140.62 L 220.31 133.59 L 192.19 72.66 L 157.03 28.12 L 138.28 21.09 L 135.94 37.50 L 77.34 0.00 L 84.38 46.88 L 77.34 44.53 L 11.72 14.06 L 16.41 56.25 L 49.22 110.16 L 4.69 86.72 L 4.69 110.16 L 18.75 126.56 L 67.97 168.75 L 103.12 178.12 L 105.47 166.41 L 98.44 159.38 L 164.06 213.28 L 96.09 150.00 L 142.97 178.12 L 152.34 180.47 L 157.03 173.44 L 96.09 89.06 L 70.31 65.62 L 110.16 117.19" stroke="black" fill="transparent"/>
	<path d = "M 206.25 157.03 L 201.56 208.59 L 192.19 234.38 L 185.16 239.06 L 173.44 208.59 L 168.75 138.28 L 182.81 133.59 L 192.19 142.97 L 208.59 173.44 L 208.59 236.72 L 201.56 250.78 L 194.53 253.12 L 189.84 185.16 L 196.88 227.34 L 189.84 248.44 L 182.81 253.12 L 166.41 248.44 L 135.94 196.88" stroke="black" fill="transparent"/>
	<path d = "M 164.06 274.22 L 159.38 264.84 L 133.59 253.12" stroke="black" fill="transparent"/>
	<path d = "M 114.84 189.84 L 114.84 189.84" stroke="black" fill="transparent"/>
</svg>