<?xml version="1.0" encoding="UTF-8" standalone="no"?>
<!--Created with ndjsontosvg (https:https://github.com/thompson318/ndjsontosvg) 
	from the simplified Google quickdraw data set. key_id = 5364882247516160-->
<svg width="600" height="600"
	xmlns="http://www.w3.org/2000/svg">
	xmlns:ndjsontosvg="https://github.com/thompson318/ndjsontosvg"
	xmlns:quickdraw="https://quickdraw.withgoogle.com/data"
	xmlns:scikit-surgery="https://doi.org/10.1007/s11548-020-02180-5">

	<rect width="100%" height="100%" fill="white" />
	<path d = "M 11.72 213.28 L 2.34 370.31 L 2.34 581.25 L 4.69 595.31 L 11.72 597.66 L 103.12 597.66 L 105.47 576.56 L 86.72 517.97 L 77.34 442.97 L 75.00 213.28 L 89.06 213.28 L 210.94 285.94 L 215.62 276.56 L 213.28 196.88 L 189.84 91.41 L 182.81 2.34 L 103.12 39.84 L 75.00 147.66 L 75.00 217.97" stroke="black" fill="transparent"/>
	<path d = "M 100.78 30.47 L 70.31 46.88 L 63.28 60.94 L 58.59 173.44 L 25.78 236.72" stroke="black" fill="transparent"/>
	<path d = "M 7.03 236.72 L 0.00 220.31 L 2.34 58.59 L 58.59 30.47 L 112.50 42.19" stroke="black" fill="transparent"/>
</svg>