<?xml version="1.0" encoding="UTF-8" standalone="no"?>
<!--Created with ndjsontosvg (https:https://github.com/thompson318/ndjsontosvg) 
	from the simplified Google quickdraw data set. key_id = 6608574362943488-->
<svg width="600" height="600"
	xmlns="http://www.w3.org/2000/svg">
	xmlns:ndjsontosvg="https://github.com/thompson318/ndjsontosvg"
	xmlns:quickdraw="https://quickdraw.withgoogle.com/data"
	xmlns:scikit-surgery="https://doi.org/10.1007/s11548-020-02180-5">

	<rect width="100%" height="100%" fill="white" />
	<path d = "M 241.41 135.94 L 260.16 131.25 L 335.16 133.59 L 386.72 164.06 L 412.50 206.25 L 417.19 288.28 L 410.16 311.72 L 377.34 360.94 L 339.84 393.75" stroke="black" fill="transparent"/>
	<path d = "M 307.03 35.16 L 391.41 46.88 L 464.06 77.34 L 522.66 112.50 L 578.91 164.06 L 597.66 217.97 L 595.31 250.78 L 541.41 330.47 L 522.66 344.53" stroke="black" fill="transparent"/>
	<path d = "M 283.59 4.69 L 274.22 9.38 L 269.53 25.78 L 267.19 96.09 L 302.34 222.66 L 304.69 323.44 L 323.44 386.72 L 323.44 398.44 L 316.41 393.75" stroke="black" fill="transparent"/>
	<path d = "M 264.84 0.00 L 192.19 0.00 L 131.25 14.06 L 86.72 30.47 L 51.56 60.94 L 28.12 100.78 L 14.06 142.97 L 0.00 290.62 L 11.72 325.78 L 30.47 349.22 L 131.25 396.09 L 180.47 407.81 L 257.81 412.50 L 295.31 412.50 L 370.31 396.09" stroke="black" fill="transparent"/>
	<path d = "M 30.47 84.38 L 107.81 157.03 L 168.75 185.16 L 196.88 185.16 L 206.25 178.12" stroke="black" fill="transparent"/>
</svg>