<?xml version="1.0" encoding="UTF-8" standalone="no"?>
<!--Created with ndjsontosvg (https:https://github.com/thompson318/ndjsontosvg) 
	from the simplified Google quickdraw data set. key_id = 5801487785525248-->
<svg width="600" height="600"
	xmlns="http://www.w3.org/2000/svg">
	xmlns:ndjsontosvg="https://github.com/thompson318/ndjsontosvg"
	xmlns:quickdraw="https://quickdraw.withgoogle.com/data"
	xmlns:scikit-surgery="https://doi.org/10.1007/s11548-020-02180-5">

	<rect width="100%" height="100%" fill="white" />
	<path d = "M 140.62 140.62 L 121.88 164.06 L 98.44 227.34 L 58.59 459.38 L 56.25 539.06 L 60.94 557.81 L 86.72 585.94 L 119.53 597.66 L 185.16 592.97 L 229.69 567.19 L 269.53 522.66 L 304.69 440.62 L 316.41 241.41 L 292.97 178.12 L 269.53 142.97 L 239.06 117.19 L 182.81 93.75 L 152.34 93.75 L 140.62 117.19" stroke="black" fill="transparent"/>
	<path d = "M 105.47 445.31 L 114.84 452.34 L 189.84 452.34 L 269.53 442.97" stroke="black" fill="transparent"/>
	<path d = "M 96.09 452.34 L 93.75 466.41 L 114.84 494.53 L 166.41 532.03 L 199.22 546.09" stroke="black" fill="transparent"/>
	<path d = "M 241.41 454.69 L 234.38 487.50 L 208.59 529.69" stroke="black" fill="transparent"/>
	<path d = "M 159.38 485.16 L 171.09 485.16" stroke="black" fill="transparent"/>
	<path d = "M 192.19 492.19 L 208.59 496.88" stroke="black" fill="transparent"/>
	<path d = "M 133.59 314.06 L 138.28 269.53 L 157.03 222.66 L 192.19 178.12 L 222.66 161.72 L 243.75 161.72 L 250.78 171.09 L 260.16 246.09 L 278.91 302.34" stroke="black" fill="transparent"/>
	<path d = "M 150.00 128.91 L 110.16 70.31 L 91.41 58.59 L 72.66 56.25 L 42.19 79.69 L 11.72 131.25 L 0.00 192.19 L 0.00 276.56 L 18.75 346.88 L 39.84 398.44" stroke="black" fill="transparent"/>
	<path d = "M 292.97 121.88 L 281.25 112.50 L 278.91 79.69 L 267.19 51.56 L 225.00 4.69 L 168.75 0.00 L 140.62 7.03 L 121.88 25.78 L 93.75 91.41 L 89.06 189.84 L 96.09 203.91" stroke="black" fill="transparent"/>
</svg>