<?xml version="1.0" encoding="UTF-8" standalone="no"?>
<!--Created with ndjsontosvg (https:https://github.com/thompson318/ndjsontosvg) 
	from the simplified Google quickdraw data set. key_id = 4525298328535040-->
<svg width="600" height="600"
	xmlns="http://www.w3.org/2000/svg">
	xmlns:ndjsontosvg="https://github.com/thompson318/ndjsontosvg"
	xmlns:quickdraw="https://quickdraw.withgoogle.com/data"
	xmlns:scikit-surgery="https://doi.org/10.1007/s11548-020-02180-5">

	<rect width="100%" height="100%" fill="white" />
	<path d = "M 271.88 16.41 L 150.00 70.31 L 103.12 100.78 L 72.66 138.28 L 4.69 281.25 L 0.00 358.59 L 9.38 459.38 L 25.78 508.59 L 65.62 562.50 L 124.22 592.97 L 171.09 597.66 L 276.56 581.25 L 330.47 546.09 L 325.78 517.97 L 253.12 534.38 L 201.56 529.69 L 168.75 489.84 L 147.66 433.59 L 147.66 367.97 L 157.03 300.00 L 206.25 185.16 L 281.25 89.06 L 323.44 51.56 L 372.66 23.44 L 353.91 9.38 L 314.06 2.34 L 271.88 9.38" stroke="black" fill="transparent"/>
	<path d = "M 342.19 0.00 L 342.19 37.50" stroke="black" fill="transparent"/>
	<path d = "M 288.28 525.00 L 292.97 576.56 L 302.34 578.91" stroke="black" fill="transparent"/>
</svg>