<?xml version="1.0" encoding="UTF-8" standalone="no"?>
<!--Created with ndjsontosvg (https:https://github.com/thompson318/ndjsontosvg) 
	from the simplified Google quickdraw data set. key_id = 4701015636967424-->
<svg width="600" height="600"
	xmlns="http://www.w3.org/2000/svg">
	xmlns:ndjsontosvg="https://github.com/thompson318/ndjsontosvg"
	xmlns:quickdraw="https://quickdraw.withgoogle.com/data"
	xmlns:scikit-surgery="https://doi.org/10.1007/s11548-020-02180-5">

	<rect width="100%" height="100%" fill="white" />
	<path d = "M 379.69 11.72 L 367.97 4.69 L 318.75 7.03 L 246.09 30.47 L 185.16 70.31 L 124.22 126.56 L 51.56 220.31 L 7.03 309.38 L 0.00 363.28 L 0.00 410.16 L 7.03 433.59 L 25.78 478.12 L 67.97 525.00 L 131.25 562.50 L 189.84 581.25 L 339.84 595.31 L 450.00 595.31 L 508.59 576.56 L 541.41 557.81 L 550.78 543.75" stroke="black" fill="transparent"/>
	<path d = "M 403.12 16.41 L 389.06 18.75 L 353.91 39.84 L 276.56 98.44 L 201.56 182.81 L 138.28 295.31 L 126.56 342.19 L 126.56 421.88 L 138.28 454.69 L 161.72 485.16 L 227.34 525.00 L 435.94 567.19 L 525.00 576.56" stroke="black" fill="transparent"/>
	<path d = "M 351.56 18.75 L 328.12 16.41 L 262.50 58.59 L 257.81 67.97 L 269.53 72.66 L 295.31 70.31 L 400.78 0.00 L 353.91 23.44 L 307.03 60.94 L 367.97 16.41 L 346.88 16.41 L 262.50 63.28 L 276.56 63.28 L 311.72 37.50 L 297.66 39.84 L 220.31 75.00 L 295.31 28.12 L 236.72 51.56 L 302.34 11.72 L 260.16 37.50 L 269.53 42.19 L 323.44 21.09 L 292.97 51.56 L 302.34 53.91 L 328.12 42.19 L 323.44 51.56" stroke="black" fill="transparent"/>
</svg>