<?xml version="1.0" encoding="UTF-8" standalone="no"?>
<!--Created with ndjsontosvg (https:https://github.com/thompson318/ndjsontosvg) 
	from the simplified Google quickdraw data set. key_id = 5566506643488768-->
<svg width="600" height="600"
	xmlns="http://www.w3.org/2000/svg">
	xmlns:ndjsontosvg="https://github.com/thompson318/ndjsontosvg"
	xmlns:quickdraw="https://quickdraw.withgoogle.com/data"
	xmlns:scikit-surgery="https://doi.org/10.1007/s11548-020-02180-5">

	<rect width="100%" height="100%" fill="white" />
	<path d = "M 295.31 77.34 L 325.78 182.81 L 332.81 239.06 L 332.81 304.69 L 309.38 384.38 L 276.56 414.84 L 161.72 447.66 L 75.00 454.69 L 0.00 440.62 L 0.00 450.00 L 53.91 501.56 L 128.91 543.75 L 248.44 562.50 L 435.94 553.12 L 499.22 534.38 L 539.06 513.28 L 555.47 494.53 L 585.94 433.59 L 597.66 370.31 L 592.97 295.31 L 562.50 213.28 L 496.88 154.69 L 318.75 70.31 L 393.75 159.38 L 419.53 222.66 L 431.25 283.59 L 433.59 365.62 L 431.25 386.72 L 405.47 433.59 L 386.72 454.69 L 351.56 475.78 L 328.12 480.47 L 182.81 492.19 L 117.19 492.19 L 51.56 480.47" stroke="black" fill="transparent"/>
	<path d = "M 295.31 67.97 L 285.94 58.59 L 276.56 21.09 L 281.25 2.34 L 297.66 0.00 L 314.06 16.41 L 318.75 35.16 L 316.41 44.53 L 285.94 65.62" stroke="black" fill="transparent"/>
</svg>