<?xml version="1.0" encoding="UTF-8" standalone="no"?>
<!--Created with ndjsontosvg (https:https://github.com/thompson318/ndjsontosvg) 
	from the simplified Google quickdraw data set. key_id = 6574274250801152-->
<svg width="600" height="600"
	xmlns="http://www.w3.org/2000/svg">
	xmlns:ndjsontosvg="https://github.com/thompson318/ndjsontosvg"
	xmlns:quickdraw="https://quickdraw.withgoogle.com/data"
	xmlns:scikit-surgery="https://doi.org/10.1007/s11548-020-02180-5">

	<rect width="100%" height="100%" fill="white" />
	<path d = "M 164.06 28.12 L 421.88 21.09 L 550.78 0.00 L 592.97 63.28 L 597.66 82.03 L 592.97 114.84 L 567.19 150.00 L 529.69 175.78 L 489.84 189.84 L 321.09 215.62 L 147.66 210.94 L 11.72 171.09 L 0.00 147.66 L 4.69 133.59 L 63.28 75.00 L 103.12 51.56 L 168.75 30.47" stroke="black" fill="transparent"/>
	<path d = "M 225.00 35.16 L 239.06 51.56 L 246.09 77.34 L 236.72 187.50 L 243.75 210.94 L 253.12 215.62" stroke="black" fill="transparent"/>
	<path d = "M 379.69 23.44 L 375.00 60.94 L 386.72 194.53" stroke="black" fill="transparent"/>
	<path d = "M 285.94 60.94 L 292.97 60.94 L 283.59 72.66 L 250.78 98.44 L 260.16 96.09" stroke="black" fill="transparent"/>
	<path d = "M 285.94 124.22 L 276.56 133.59 L 302.34 138.28 L 311.72 150.00 L 304.69 189.84 L 316.41 201.56" stroke="black" fill="transparent"/>
	<path d = "M 269.53 72.66 L 321.09 65.62 L 311.72 77.34 L 321.09 100.78 L 307.03 126.56 L 328.12 128.91 L 300.00 180.47 L 314.06 185.16" stroke="black" fill="transparent"/>
</svg>