<?xml version="1.0" encoding="UTF-8" standalone="no"?>
<!--Created with ndjsontosvg (https:https://github.com/thompson318/ndjsontosvg) 
	from the simplified Google quickdraw data set. key_id = 4845626250493952-->
<svg width="600" height="600"
	xmlns="http://www.w3.org/2000/svg">
	xmlns:ndjsontosvg="https://github.com/thompson318/ndjsontosvg"
	xmlns:quickdraw="https://quickdraw.withgoogle.com/data"
	xmlns:scikit-surgery="https://doi.org/10.1007/s11548-020-02180-5">

	<rect width="100%" height="100%" fill="white" />
	<path d = "M 96.09 0.00 L 51.56 4.69 L 7.03 44.53 L 0.00 63.28 L 2.34 107.81 L 30.47 128.91 L 86.72 142.97 L 220.31 147.66 L 410.16 173.44 L 574.22 168.75 L 592.97 161.72 L 595.31 145.31 L 532.03 89.06 L 379.69 56.25 L 262.50 49.22 L 124.22 21.09 L 89.06 2.34" stroke="black" fill="transparent"/>
	<path d = "M 180.47 30.47 L 180.47 121.88" stroke="black" fill="transparent"/>
	<path d = "M 330.47 65.62 L 311.72 152.34" stroke="black" fill="transparent"/>
	<path d = "M 220.31 63.28 L 220.31 63.28" stroke="black" fill="transparent"/>
	<path d = "M 253.12 65.62 L 250.78 70.31" stroke="black" fill="transparent"/>
	<path d = "M 225.00 63.28 L 225.00 65.62" stroke="black" fill="transparent"/>
	<path d = "M 271.88 110.16 L 271.88 105.47" stroke="black" fill="transparent"/>
	<path d = "M 220.31 98.44 L 220.31 93.75" stroke="black" fill="transparent"/>
</svg>