<?xml version="1.0" encoding="UTF-8" standalone="no"?>
<!--Created with ndjsontosvg (https:https://github.com/thompson318/ndjsontosvg) 
	from the simplified Google quickdraw data set. key_id = 6452655830335488-->
<svg width="600" height="600"
	xmlns="http://www.w3.org/2000/svg">
	xmlns:ndjsontosvg="https://github.com/thompson318/ndjsontosvg"
	xmlns:quickdraw="https://quickdraw.withgoogle.com/data"
	xmlns:scikit-surgery="https://doi.org/10.1007/s11548-020-02180-5">

	<rect width="100%" height="100%" fill="white" />
	<path d = "M 220.31 42.19 L 51.56 63.28 L 16.41 86.72 L 0.00 138.28 L 2.34 171.09 L 18.75 203.91 L 67.97 246.09 L 98.44 260.16 L 201.56 271.88 L 428.91 271.88 L 466.41 264.84 L 508.59 243.75 L 532.03 225.00 L 583.59 157.03 L 597.66 105.47 L 590.62 49.22 L 562.50 30.47 L 517.97 23.44 L 407.81 35.16 L 215.62 35.16" stroke="black" fill="transparent"/>
	<path d = "M 150.00 30.47 L 182.81 262.50" stroke="black" fill="transparent"/>
	<path d = "M 435.94 0.00 L 438.28 46.88 L 414.84 215.62" stroke="black" fill="transparent"/>
	<path d = "M 185.16 105.47 L 187.50 105.47" stroke="black" fill="transparent"/>
	<path d = "M 356.25 58.59 L 365.62 63.28" stroke="black" fill="transparent"/>
	<path d = "M 379.69 112.50 L 379.69 114.84" stroke="black" fill="transparent"/>
	<path d = "M 342.19 180.47 L 342.19 180.47" stroke="black" fill="transparent"/>
	<path d = "M 269.53 210.94 L 267.19 208.59" stroke="black" fill="transparent"/>
	<path d = "M 194.53 194.53 L 194.53 196.88" stroke="black" fill="transparent"/>
	<path d = "M 253.12 243.75 L 255.47 246.09" stroke="black" fill="transparent"/>
	<path d = "M 290.62 152.34 L 290.62 150.00" stroke="black" fill="transparent"/>
	<path d = "M 220.31 93.75 L 222.66 93.75" stroke="black" fill="transparent"/>
	<path d = "M 311.72 93.75 L 314.06 93.75" stroke="black" fill="transparent"/>
</svg>