<?xml version="1.0" encoding="UTF-8" standalone="no"?>
<!--Created with ndjsontosvg (https:https://github.com/thompson318/ndjsontosvg) 
	from the simplified Google quickdraw data set. key_id = 5917746405572608-->
<svg width="600" height="600"
	xmlns="http://www.w3.org/2000/svg">
	xmlns:ndjsontosvg="https://github.com/thompson318/ndjsontosvg"
	xmlns:quickdraw="https://quickdraw.withgoogle.com/data"
	xmlns:scikit-surgery="https://doi.org/10.1007/s11548-020-02180-5">

	<rect width="100%" height="100%" fill="white" />
	<path d = "M 0.00 529.69 L 11.72 431.25 L 9.38 356.25 L 21.09 278.91 L 35.16 236.72 L 37.50 187.50 L 332.81 185.16 L 440.62 206.25 L 442.97 222.66 L 396.09 375.00 L 377.34 501.56 L 353.91 595.31 L 344.53 597.66 L 283.59 555.47 L 185.16 525.00 L 119.53 525.00 L 46.88 548.44 L 21.09 543.75" stroke="black" fill="transparent"/>
	<path d = "M 51.56 173.44 L 117.19 117.19 L 234.38 53.91 L 302.34 0.00 L 363.28 70.31 L 412.50 142.97 L 452.34 180.47" stroke="black" fill="transparent"/>
	<path d = "M 105.47 508.59 L 105.47 339.84 L 114.84 290.62 L 131.25 262.50 L 131.25 269.53 L 152.34 283.59 L 349.22 285.94 L 363.28 295.31 L 337.50 344.53 L 292.97 560.16" stroke="black" fill="transparent"/>
</svg>