<?xml version="1.0" encoding="UTF-8" standalone="no"?>
<!--Created with ndjsontosvg (https:https://github.com/thompson318/ndjsontosvg) 
	from the simplified Google quickdraw data set. key_id = 4942410352164864-->
<svg width="600" height="600"
	xmlns="http://www.w3.org/2000/svg">
	xmlns:ndjsontosvg="https://github.com/thompson318/ndjsontosvg"
	xmlns:quickdraw="https://quickdraw.withgoogle.com/data"
	xmlns:scikit-surgery="https://doi.org/10.1007/s11548-020-02180-5">

	<rect width="100%" height="100%" fill="white" />
	<path d = "M 84.38 332.81 L 70.31 349.22" stroke="black" fill="transparent"/>
	<path d = "M 70.31 389.06 L 60.94 297.66 L 79.69 239.06 L 86.72 157.03 L 98.44 110.16 L 297.66 107.81 L 360.94 117.19 L 417.19 131.25 L 428.91 164.06 L 428.91 210.94 L 412.50 281.25 L 398.44 419.53 L 393.75 435.94 L 384.38 433.59" stroke="black" fill="transparent"/>
	<path d = "M 0.00 189.84 L 79.69 89.06 L 126.56 60.94 L 281.25 0.00 L 379.69 58.59 L 450.00 133.59 L 550.78 215.62 L 583.59 225.00 L 597.66 241.41" stroke="black" fill="transparent"/>
	<path d = "M 133.59 358.59 L 128.91 255.47 L 138.28 220.31 L 154.69 199.22 L 173.44 187.50 L 292.97 196.88 L 309.38 389.06" stroke="black" fill="transparent"/>
</svg>