<?xml version="1.0" encoding="UTF-8" standalone="no"?>
<!--Created with ndjsontosvg (https:https://github.com/thompson318/ndjsontosvg) 
	from the simplified Google quickdraw data set. key_id = 5959765014347776-->
<svg width="600" height="600"
	xmlns="http://www.w3.org/2000/svg">
	xmlns:ndjsontosvg="https://github.com/thompson318/ndjsontosvg"
	xmlns:quickdraw="https://quickdraw.withgoogle.com/data"
	xmlns:scikit-surgery="https://doi.org/10.1007/s11548-020-02180-5">

	<rect width="100%" height="100%" fill="white" />
	<path d = "M 239.06 18.75 L 192.19 28.12 L 121.88 75.00 L 32.81 173.44 L 9.38 220.31 L 0.00 323.44 L 32.81 398.44 L 75.00 442.97 L 168.75 517.97 L 215.62 541.41 L 267.19 555.47 L 325.78 555.47 L 393.75 536.72 L 499.22 475.78 L 550.78 426.56 L 592.97 344.53 L 597.66 234.38 L 560.16 140.62 L 525.00 93.75 L 428.91 28.12 L 377.34 9.38 L 330.47 0.00 L 257.81 0.00 L 164.06 37.50 L 159.38 65.62 L 192.19 185.16 L 196.88 267.19 L 182.81 367.97 L 168.75 419.53 L 140.62 475.78" stroke="black" fill="transparent"/>
	<path d = "M 471.09 37.50 L 442.97 112.50 L 414.84 274.22 L 414.84 349.22 L 438.28 426.56 L 461.72 480.47" stroke="black" fill="transparent"/>
</svg>