<?xml version="1.0" encoding="UTF-8" standalone="no"?>
<!--Created with ndjsontosvg (https:https://github.com/thompson318/ndjsontosvg) 
	from the simplified Google quickdraw data set. key_id = 5291989920645120-->
<svg width="600" height="600"
	xmlns="http://www.w3.org/2000/svg">
	xmlns:ndjsontosvg="https://github.com/thompson318/ndjsontosvg"
	xmlns:quickdraw="https://quickdraw.withgoogle.com/data"
	xmlns:scikit-surgery="https://doi.org/10.1007/s11548-020-02180-5">

	<rect width="100%" height="100%" fill="white" />
	<path d = "M 159.38 67.97 L 128.91 84.38 L 63.28 159.38 L 7.03 274.22 L 0.00 332.81 L 4.69 386.72 L 28.12 428.91 L 70.31 468.75 L 121.88 492.19 L 182.81 506.25 L 257.81 508.59 L 332.81 496.88 L 405.47 473.44 L 473.44 440.62 L 527.34 403.12 L 567.19 360.94 L 590.62 318.75 L 597.66 274.22 L 597.66 225.00 L 588.28 171.09 L 564.84 114.84 L 527.34 67.97 L 480.47 30.47 L 428.91 9.38 L 370.31 0.00 L 304.69 0.00 L 243.75 18.75 L 187.50 49.22 L 135.94 84.38 L 98.44 124.22 L 91.41 142.97" stroke="black" fill="transparent"/>
	<path d = "M 110.16 93.75 L 161.72 126.56 L 215.62 185.16 L 234.38 222.66 L 246.09 267.19 L 241.41 351.56 L 192.19 435.94 L 135.94 510.94" stroke="black" fill="transparent"/>
	<path d = "M 473.44 39.84 L 459.38 51.56 L 454.69 110.16 L 454.69 246.09 L 464.06 330.47 L 473.44 363.28 L 492.19 384.38 L 510.94 398.44 L 546.09 407.81" stroke="black" fill="transparent"/>
	<path d = "M 159.38 178.12 L 246.09 166.41" stroke="black" fill="transparent"/>
	<path d = "M 178.12 281.25 L 314.06 246.09" stroke="black" fill="transparent"/>
	<path d = "M 154.69 412.50 L 222.66 407.81 L 274.22 396.09" stroke="black" fill="transparent"/>
	<path d = "M 410.16 131.25 L 410.16 119.53 L 506.25 119.53" stroke="black" fill="transparent"/>
</svg>