<?xml version="1.0" encoding="UTF-8" standalone="no"?>
<!--Created with ndjsontosvg (https:https://github.com/thompson318/ndjsontosvg) 
	from the simplified Google quickdraw data set. key_id = 6231112353316864-->
<svg width="600" height="600"
	xmlns="http://www.w3.org/2000/svg">
	xmlns:ndjsontosvg="https://github.com/thompson318/ndjsontosvg"
	xmlns:quickdraw="https://quickdraw.withgoogle.com/data"
	xmlns:scikit-surgery="https://doi.org/10.1007/s11548-020-02180-5">

	<rect width="100%" height="100%" fill="white" />
	<path d = "M 46.88 527.34 L 4.69 506.25 L 0.00 532.03 L 11.72 564.84 L 63.28 595.31 L 14.06 492.19" stroke="black" fill="transparent"/>
	<path d = "M 37.50 520.31 L 173.44 274.22 L 337.50 42.19 L 372.66 0.00 L 384.38 4.69 L 396.09 49.22 L 389.06 103.12 L 274.22 297.66 L 180.47 419.53 L 46.88 546.09" stroke="black" fill="transparent"/>
	<path d = "M 508.59 82.03 L 494.53 89.06 L 459.38 133.59 L 442.97 168.75 L 442.97 199.22 L 457.03 227.34 L 496.88 241.41 L 510.94 243.75 L 541.41 225.00 L 560.16 194.53 L 562.50 140.62 L 548.44 114.84 L 513.28 98.44" stroke="black" fill="transparent"/>
	<path d = "M 485.16 121.88 L 492.19 147.66" stroke="black" fill="transparent"/>
</svg>