<?xml version="1.0" encoding="UTF-8" standalone="no"?>
<!--Created with ndjsontosvg (https:https://github.com/thompson318/ndjsontosvg) 
	from the simplified Google quickdraw data set. key_id = 6372653554204672-->
<svg width="600" height="600"
	xmlns="http://www.w3.org/2000/svg">
	xmlns:ndjsontosvg="https://github.com/thompson318/ndjsontosvg"
	xmlns:quickdraw="https://quickdraw.withgoogle.com/data"
	xmlns:scikit-surgery="https://doi.org/10.1007/s11548-020-02180-5">

	<rect width="100%" height="100%" fill="white" />
	<path d = "M 283.59 517.97 L 243.75 536.72 L 222.66 574.22 L 232.03 597.66 L 297.66 595.31 L 309.38 583.59 L 314.06 541.41 L 295.31 529.69 L 278.91 532.03" stroke="black" fill="transparent"/>
	<path d = "M 248.44 527.34 L 248.44 508.59 L 234.38 480.47 L 166.41 412.50 L 53.91 325.78 L 18.75 276.56 L 0.00 222.66 L 0.00 175.78 L 9.38 142.97 L 28.12 121.88 L 82.03 124.22 L 145.31 189.84 L 161.72 236.72 L 227.34 332.81 L 283.59 473.44 L 290.62 508.59" stroke="black" fill="transparent"/>
	<path d = "M 283.59 0.00 L 253.12 9.38 L 215.62 56.25 L 196.88 96.09 L 196.88 138.28 L 262.50 157.03 L 332.81 159.38 L 356.25 150.00 L 365.62 133.59 L 372.66 89.06 L 375.00 25.78 L 358.59 7.03 L 304.69 2.34 L 274.22 25.78" stroke="black" fill="transparent"/>
</svg>