<?xml version="1.0" encoding="UTF-8" standalone="no"?>
<!--Created with ndjsontosvg (https:https://github.com/thompson318/ndjsontosvg) 
	from the simplified Google quickdraw data set. key_id = 6313881490161664-->
<svg width="600" height="600"
	xmlns="http://www.w3.org/2000/svg">
	xmlns:ndjsontosvg="https://github.com/thompson318/ndjsontosvg"
	xmlns:quickdraw="https://quickdraw.withgoogle.com/data"
	xmlns:scikit-surgery="https://doi.org/10.1007/s11548-020-02180-5">

	<rect width="100%" height="100%" fill="white" />
	<path d = "M 335.16 4.69 L 243.75 2.34 L 189.84 14.06 L 133.59 44.53 L 96.09 79.69 L 51.56 138.28 L 4.69 234.38 L 0.00 309.38 L 9.38 328.12 L 46.88 349.22 L 107.81 358.59 L 389.06 365.62 L 440.62 353.91 L 532.03 300.00 L 569.53 264.84 L 595.31 215.62 L 597.66 114.84 L 583.59 77.34 L 527.34 23.44 L 499.22 11.72 L 419.53 0.00 L 339.84 2.34" stroke="black" fill="transparent"/>
	<path d = "M 178.12 32.81 L 173.44 79.69" stroke="black" fill="transparent"/>
	<path d = "M 199.22 37.50 L 222.66 222.66 L 217.97 367.97" stroke="black" fill="transparent"/>
	<path d = "M 173.44 82.03 L 187.50 180.47 L 192.19 316.41 L 199.22 386.72" stroke="black" fill="transparent"/>
	<path d = "M 435.94 18.75 L 447.66 110.16 L 454.69 382.03 L 464.06 414.84" stroke="black" fill="transparent"/>
	<path d = "M 485.16 93.75 L 489.84 267.19 L 499.22 325.78" stroke="black" fill="transparent"/>
	<path d = "M 475.78 330.47 L 485.16 307.03" stroke="black" fill="transparent"/>
	<path d = "M 473.44 307.03 L 485.16 278.91" stroke="black" fill="transparent"/>
</svg>