<?xml version="1.0" encoding="UTF-8" standalone="no"?>
<!--Created with ndjsontosvg (https:https://github.com/thompson318/ndjsontosvg) 
	from the simplified Google quickdraw data set. key_id = 6079482878230528-->
<svg width="600" height="600"
	xmlns="http://www.w3.org/2000/svg">
	xmlns:ndjsontosvg="https://github.com/thompson318/ndjsontosvg"
	xmlns:quickdraw="https://quickdraw.withgoogle.com/data"
	xmlns:scikit-surgery="https://doi.org/10.1007/s11548-020-02180-5">

	<rect width="100%" height="100%" fill="white" />
	<path d = "M 307.03 21.09 L 157.03 28.12 L 72.66 63.28 L 25.78 121.88 L 2.34 199.22 L 4.69 302.34 L 42.19 396.09 L 93.75 480.47 L 114.84 503.91 L 154.69 529.69 L 194.53 543.75 L 276.56 546.09 L 339.84 536.72 L 506.25 457.03 L 557.81 410.16 L 581.25 360.94 L 595.31 307.03 L 597.66 227.34 L 560.16 152.34 L 501.56 82.03 L 405.47 28.12 L 342.19 4.69 L 300.00 2.34 L 288.28 16.41" stroke="black" fill="transparent"/>
	<path d = "M 157.03 21.09 L 180.47 44.53 L 194.53 93.75 L 206.25 185.16 L 206.25 255.47 L 189.84 314.06 L 168.75 353.91 L 79.69 400.78" stroke="black" fill="transparent"/>
	<path d = "M 300.00 30.47 L 283.59 77.34 L 246.09 307.03 L 236.72 468.75 L 239.06 501.56 L 248.44 506.25" stroke="black" fill="transparent"/>
	<path d = "M 461.72 67.97 L 438.28 79.69 L 396.09 133.59 L 370.31 189.84 L 360.94 246.09 L 358.59 391.41 L 386.72 442.97 L 407.81 459.38" stroke="black" fill="transparent"/>
</svg>