<?xml version="1.0" encoding="UTF-8" standalone="no"?>
<!--Created with ndjsontosvg (https:https://github.com/thompson318/ndjsontosvg) 
	from the simplified Google quickdraw data set. key_id = 4629722124255232-->
<svg width="600" height="600"
	xmlns="http://www.w3.org/2000/svg">
	xmlns:ndjsontosvg="https://github.com/thompson318/ndjsontosvg"
	xmlns:quickdraw="https://quickdraw.withgoogle.com/data"
	xmlns:scikit-surgery="https://doi.org/10.1007/s11548-020-02180-5">

	<rect width="100%" height="100%" fill="white" />
	<path d = "M 377.34 75.00 L 316.41 67.97 L 194.53 67.97 L 168.75 75.00 L 72.66 133.59 L 39.84 168.75 L 14.06 217.97 L 7.03 257.81 L 7.03 325.78 L 11.72 365.62 L 30.47 405.47 L 75.00 480.47 L 105.47 510.94 L 180.47 553.12 L 241.41 564.84 L 386.72 560.16 L 438.28 513.28 L 496.88 400.78 L 506.25 332.81 L 501.56 260.16 L 471.09 201.56 L 431.25 152.34 L 379.69 119.53 L 321.09 63.28" stroke="black" fill="transparent"/>
	<path d = "M 304.69 72.66 L 267.19 147.66 L 255.47 196.88 L 203.91 534.38" stroke="black" fill="transparent"/>
	<path d = "M 93.75 119.53 L 93.75 164.06 L 131.25 210.94 L 168.75 239.06 L 185.16 257.81 L 206.25 260.16 L 225.00 248.44 L 236.72 210.94 L 236.72 131.25 L 222.66 56.25 L 199.22 0.00" stroke="black" fill="transparent"/>
	<path d = "M 393.75 128.91 L 391.41 142.97 L 314.06 196.88 L 302.34 229.69 L 307.03 248.44 L 344.53 267.19 L 412.50 267.19 L 464.06 253.12 L 485.16 232.03" stroke="black" fill="transparent"/>
	<path d = "M 466.41 433.59 L 461.72 414.84 L 328.12 342.19 L 292.97 328.12 L 271.88 330.47 L 253.12 363.28 L 234.38 421.88 L 222.66 499.22 L 241.41 548.44 L 290.62 597.66" stroke="black" fill="transparent"/>
	<path d = "M 0.00 309.38 L 39.84 309.38 L 58.59 321.09 L 100.78 360.94 L 121.88 396.09 L 173.44 438.28 L 168.75 457.03 L 138.28 494.53 L 84.38 546.09 L 65.62 548.44" stroke="black" fill="transparent"/>
</svg>