<?xml version="1.0" encoding="UTF-8" standalone="no"?>
<!--Created with ndjsontosvg (https:https://github.com/thompson318/ndjsontosvg) 
	from the simplified Google quickdraw data set. key_id = 5128649009266688-->
<svg width="600" height="600"
	xmlns="http://www.w3.org/2000/svg">
	xmlns:ndjsontosvg="https://github.com/thompson318/ndjsontosvg"
	xmlns:quickdraw="https://quickdraw.withgoogle.com/data"
	xmlns:scikit-surgery="https://doi.org/10.1007/s11548-020-02180-5">

	<rect width="100%" height="100%" fill="white" />
	<path d = "M 339.84 4.69 L 253.12 2.34 L 203.91 14.06 L 121.88 49.22 L 65.62 98.44 L 11.72 194.53 L 0.00 290.62 L 11.72 370.31 L 37.50 452.34 L 60.94 489.84 L 128.91 543.75 L 232.03 576.56 L 288.28 576.56 L 393.75 536.72 L 440.62 499.22 L 501.56 433.59 L 548.44 370.31 L 588.28 260.16 L 597.66 157.03 L 585.94 98.44 L 571.88 67.97 L 536.72 46.88 L 384.38 9.38" stroke="black" fill="transparent"/>
	<path d = "M 9.38 243.75 L 67.97 257.81 L 290.62 271.88 L 489.84 269.53 L 571.88 276.56" stroke="black" fill="transparent"/>
	<path d = "M 225.00 274.22 L 351.56 274.22 L 396.09 246.09 L 428.91 161.72 L 433.59 105.47 L 424.22 77.34 L 379.69 65.62" stroke="black" fill="transparent"/>
	<path d = "M 365.62 285.94 L 400.78 302.34 L 396.09 330.47 L 375.00 365.62 L 292.97 468.75 L 180.47 562.50" stroke="black" fill="transparent"/>
	<path d = "M 185.16 264.84 L 166.41 297.66 L 152.34 372.66 L 194.53 501.56 L 201.56 515.62 L 225.00 529.69" stroke="black" fill="transparent"/>
	<path d = "M 196.88 267.19 L 203.91 196.88 L 241.41 114.84 L 288.28 75.00 L 370.31 51.56" stroke="black" fill="transparent"/>
</svg>