<?xml version="1.0" encoding="UTF-8" standalone="no"?>
<!--Created with ndjsontosvg (https:https://github.com/thompson318/ndjsontosvg) 
	from the simplified Google quickdraw data set. key_id = 6204925199515648-->
<svg width="600" height="600"
	xmlns="http://www.w3.org/2000/svg">
	xmlns:ndjsontosvg="https://github.com/thompson318/ndjsontosvg"
	xmlns:quickdraw="https://quickdraw.withgoogle.com/data"
	xmlns:scikit-surgery="https://doi.org/10.1007/s11548-020-02180-5">

	<rect width="100%" height="100%" fill="white" />
	<path d = "M 124.22 159.38 L 140.62 222.66 L 171.09 267.19 L 217.97 304.69 L 267.19 316.41 L 325.78 311.72 L 360.94 295.31 L 400.78 255.47 L 426.56 206.25 L 433.59 152.34 L 424.22 100.78 L 410.16 70.31 L 393.75 46.88 L 356.25 14.06 L 304.69 0.00 L 241.41 4.69 L 171.09 39.84 L 145.31 70.31 L 117.19 124.22 L 112.50 201.56" stroke="black" fill="transparent"/>
	<path d = "M 210.94 32.81 L 222.66 39.84 L 227.34 63.28 L 222.66 140.62 L 185.16 255.47" stroke="black" fill="transparent"/>
	<path d = "M 288.28 9.38 L 292.97 112.50 L 267.19 217.97 L 243.75 274.22" stroke="black" fill="transparent"/>
	<path d = "M 363.28 28.12 L 346.88 77.34 L 342.19 135.94 L 342.19 278.91 L 351.56 302.34" stroke="black" fill="transparent"/>
	<path d = "M 400.78 63.28 L 389.06 89.06 L 384.38 164.06 L 405.47 278.91" stroke="black" fill="transparent"/>
	<path d = "M 154.69 96.09 L 173.44 128.91 L 180.47 159.38 L 168.75 246.09" stroke="black" fill="transparent"/>
	<path d = "M 23.44 316.41 L 91.41 365.62 L 145.31 386.72 L 192.19 398.44 L 269.53 400.78 L 321.09 393.75 L 419.53 360.94 L 478.12 311.72 L 510.94 274.22 L 492.19 323.44 L 492.19 363.28 L 501.56 457.03 L 527.34 536.72" stroke="black" fill="transparent"/>
	<path d = "M 11.72 330.47 L 21.09 344.53 L 28.12 400.78 L 9.38 562.50 L 0.00 597.66" stroke="black" fill="transparent"/>
</svg>