<?xml version="1.0" encoding="UTF-8" standalone="no"?>
<!--Created with ndjsontosvg (https:https://github.com/thompson318/ndjsontosvg) 
	from the simplified Google quickdraw data set. key_id = 4576969926639616-->
<svg width="600" height="600"
	xmlns="http://www.w3.org/2000/svg">
	xmlns:ndjsontosvg="https://github.com/thompson318/ndjsontosvg"
	xmlns:quickdraw="https://quickdraw.withgoogle.com/data"
	xmlns:scikit-surgery="https://doi.org/10.1007/s11548-020-02180-5">

	<rect width="100%" height="100%" fill="white" />
	<path d = "M 140.62 105.47 L 84.38 154.69 L 23.44 243.75 L 2.34 311.72 L 4.69 428.91 L 58.59 492.19 L 121.88 527.34 L 161.72 539.06 L 246.09 553.12 L 339.84 557.81 L 356.25 555.47 L 389.06 529.69 L 440.62 473.44 L 499.22 377.34 L 527.34 276.56 L 527.34 217.97 L 510.94 178.12 L 435.94 84.38 L 403.12 60.94 L 199.22 0.00 L 171.09 14.06 L 140.62 100.78 L 126.56 119.53" stroke="black" fill="transparent"/>
	<path d = "M 168.75 4.69 L 168.75 358.59 L 192.19 532.03 L 182.81 489.84" stroke="black" fill="transparent"/>
	<path d = "M 7.03 332.81 L 103.12 335.16 L 532.03 274.22 L 595.31 260.16" stroke="black" fill="transparent"/>
</svg>