<?xml version="1.0" encoding="UTF-8" standalone="no"?>
<!--Created with ndjsontosvg (https:https://github.com/thompson318/ndjsontosvg) 
	from the simplified Google quickdraw data set. key_id = 4615456658817024-->
<svg width="600" height="600"
	xmlns="http://www.w3.org/2000/svg">
	xmlns:ndjsontosvg="https://github.com/thompson318/ndjsontosvg"
	xmlns:quickdraw="https://quickdraw.withgoogle.com/data"
	xmlns:scikit-surgery="https://doi.org/10.1007/s11548-020-02180-5">

	<rect width="100%" height="100%" fill="white" />
	<path d = "M 142.97 9.38 L 112.50 9.38 L 58.59 58.59 L 37.50 107.81 L 63.28 124.22 L 161.72 159.38 L 278.91 164.06 L 372.66 128.91 L 410.16 96.09 L 426.56 67.97 L 421.88 42.19 L 351.56 16.41 L 124.22 0.00" stroke="black" fill="transparent"/>
	<path d = "M 0.00 112.50 L 70.31 316.41 L 187.50 597.66 L 363.28 597.66 L 379.69 581.25" stroke="black" fill="transparent"/>
	<path d = "M 28.12 100.78 L 21.09 126.56 L 25.78 257.81 L 37.50 318.75 L 84.38 442.97 L 112.50 496.88 L 164.06 550.78 L 213.28 576.56 L 262.50 588.28 L 304.69 588.28 L 360.94 576.56 L 400.78 527.34 L 412.50 496.88 L 442.97 405.47 L 464.06 304.69 L 464.06 173.44 L 454.69 112.50" stroke="black" fill="transparent"/>
	<path d = "M 70.31 187.50 L 150.00 222.66 L 222.66 271.88" stroke="black" fill="transparent"/>
	<path d = "M 121.88 229.69 L 187.50 257.81 L 292.97 330.47" stroke="black" fill="transparent"/>
	<path d = "M 121.88 278.91 L 246.09 351.56" stroke="black" fill="transparent"/>
	<path d = "M 16.41 229.69 L 65.62 241.41 L 171.09 292.97 L 283.59 351.56 L 346.88 393.75" stroke="black" fill="transparent"/>
	<path d = "M 79.69 438.28 L 220.31 309.38 L 346.88 154.69" stroke="black" fill="transparent"/>
	<path d = "M 107.81 314.06 L 133.59 325.78 L 396.09 543.75" stroke="black" fill="transparent"/>
	<path d = "M 142.97 517.97 L 375.00 356.25" stroke="black" fill="transparent"/>
</svg>