<?xml version="1.0" encoding="UTF-8" standalone="no"?>
<!--Created with ndjsontosvg (https:https://github.com/thompson318/ndjsontosvg) 
	from the simplified Google quickdraw data set. key_id = 6455328004636672-->
<svg width="600" height="600"
	xmlns="http://www.w3.org/2000/svg">
	xmlns:ndjsontosvg="https://github.com/thompson318/ndjsontosvg"
	xmlns:quickdraw="https://quickdraw.withgoogle.com/data"
	xmlns:scikit-surgery="https://doi.org/10.1007/s11548-020-02180-5">

	<rect width="100%" height="100%" fill="white" />
	<path d = "M 35.16 271.88 L 39.84 206.25 L 58.59 138.28 L 98.44 77.34 L 159.38 25.78 L 194.53 11.72 L 264.84 0.00 L 292.97 2.34 L 318.75 14.06 L 339.84 35.16 L 377.34 91.41 L 403.12 173.44 L 414.84 285.94" stroke="black" fill="transparent"/>
	<path d = "M 21.09 260.16 L 39.84 290.62 L 49.22 459.38 L 65.62 510.94 L 77.34 529.69 L 121.88 553.12 L 227.34 564.84 L 304.69 562.50 L 367.97 532.03 L 398.44 503.91 L 433.59 445.31 L 447.66 403.12 L 457.03 328.12 L 452.34 276.56 L 414.84 246.09 L 304.69 222.66 L 168.75 215.62 L 0.00 227.34" stroke="black" fill="transparent"/>
	<path d = "M 79.69 239.06 L 112.50 309.38 L 185.16 560.16 L 208.59 597.66" stroke="black" fill="transparent"/>
	<path d = "M 185.16 246.09 L 297.66 489.84 L 316.41 510.94 L 337.50 515.62" stroke="black" fill="transparent"/>
	<path d = "M 316.41 236.72 L 370.31 360.94 L 433.59 471.09 L 468.75 513.28" stroke="black" fill="transparent"/>
	<path d = "M 21.09 400.78 L 89.06 360.94 L 161.72 304.69 L 372.66 121.88" stroke="black" fill="transparent"/>
	<path d = "M 98.44 440.62 L 117.19 433.59 L 157.03 403.12 L 335.16 250.78 L 377.34 227.34 L 412.50 222.66" stroke="black" fill="transparent"/>
</svg>