<?xml version="1.0" encoding="UTF-8" standalone="no"?>
<!--Created with ndjsontosvg (https:https://github.com/thompson318/ndjsontosvg) 
	from the simplified Google quickdraw data set. key_id = 5821564337520640-->
<svg width="600" height="600"
	xmlns="http://www.w3.org/2000/svg">
	xmlns:ndjsontosvg="https://github.com/thompson318/ndjsontosvg"
	xmlns:quickdraw="https://quickdraw.withgoogle.com/data"
	xmlns:scikit-surgery="https://doi.org/10.1007/s11548-020-02180-5">

	<rect width="100%" height="100%" fill="white" />
	<path d = "M 28.12 335.16 L 9.38 372.66 L 0.00 419.53 L 0.00 466.41 L 16.41 578.91 L 35.16 588.28 L 217.97 597.66 L 457.03 592.97 L 459.38 421.88 L 473.44 295.31 L 431.25 356.25 L 393.75 393.75 L 339.84 433.59 L 276.56 445.31 L 178.12 442.97 L 133.59 433.59 L 49.22 391.41 L 18.75 356.25 L 14.06 342.19 L 75.00 257.81 L 131.25 213.28 L 166.41 199.22 L 227.34 199.22 L 382.03 262.50 L 412.50 285.94 L 433.59 323.44 L 450.00 358.59 L 450.00 389.06" stroke="black" fill="transparent"/>
	<path d = "M 21.09 351.56 L 16.41 339.84 L 32.81 227.34 L 79.69 121.88 L 128.91 58.59 L 210.94 7.03 L 288.28 0.00 L 318.75 4.69 L 349.22 21.09 L 367.97 39.84 L 405.47 96.09 L 445.31 220.31 L 457.03 342.19" stroke="black" fill="transparent"/>
</svg>