<?xml version="1.0" encoding="UTF-8" standalone="no"?>
<!--Created with ndjsontosvg (https:https://github.com/thompson318/ndjsontosvg) 
	from the simplified Google quickdraw data set. key_id = 5836142060503040-->
<svg width="600" height="600"
	xmlns="http://www.w3.org/2000/svg">
	xmlns:ndjsontosvg="https://github.com/thompson318/ndjsontosvg"
	xmlns:quickdraw="https://quickdraw.withgoogle.com/data"
	xmlns:scikit-surgery="https://doi.org/10.1007/s11548-020-02180-5">

	<rect width="100%" height="100%" fill="white" />
	<path d = "M 60.94 206.25 L 49.22 550.78 L 93.75 564.84 L 295.31 564.84 L 485.16 588.28 L 508.59 567.19 L 529.69 532.03 L 553.12 428.91 L 564.84 185.16 L 574.22 135.94" stroke="black" fill="transparent"/>
	<path d = "M 49.22 206.25 L 75.00 119.53 L 91.41 93.75 L 135.94 58.59 L 220.31 23.44 L 358.59 0.00 L 438.28 7.03 L 503.91 32.81 L 553.12 60.94 L 585.94 98.44 L 597.66 145.31 L 592.97 166.41" stroke="black" fill="transparent"/>
	<path d = "M 569.53 145.31 L 492.19 182.81 L 372.66 215.62 L 239.06 227.34 L 138.28 222.66 L 70.31 227.34" stroke="black" fill="transparent"/>
	<path d = "M 89.06 529.69 L 86.72 438.28 L 96.09 337.50 L 128.91 178.12 L 126.56 213.28" stroke="black" fill="transparent"/>
	<path d = "M 114.84 539.06 L 131.25 520.31 L 152.34 468.75 L 173.44 328.12 L 201.56 248.44" stroke="black" fill="transparent"/>
	<path d = "M 220.31 548.44 L 222.66 370.31 L 234.38 309.38 L 257.81 260.16 L 253.12 276.56" stroke="black" fill="transparent"/>
	<path d = "M 260.16 482.81 L 283.59 382.03 L 325.78 300.00 L 367.97 246.09 L 403.12 215.62 L 407.81 210.94 L 403.12 222.66" stroke="black" fill="transparent"/>
	<path d = "M 328.12 583.59 L 351.56 428.91 L 372.66 353.91 L 398.44 300.00" stroke="black" fill="transparent"/>
	<path d = "M 417.19 585.94 L 433.59 525.00 L 457.03 285.94" stroke="black" fill="transparent"/>
	<path d = "M 515.62 567.19 L 513.28 370.31 L 520.31 220.31" stroke="black" fill="transparent"/>
	<path d = "M 46.88 267.19 L 335.16 203.91 L 431.25 189.84 L 489.84 189.84" stroke="black" fill="transparent"/>
	<path d = "M 246.09 356.25 L 60.94 379.69 L 0.00 396.09 L 18.75 396.09 L 140.62 377.34 L 321.09 330.47 L 454.69 309.38" stroke="black" fill="transparent"/>
	<path d = "M 461.72 421.88 L 382.03 452.34 L 180.47 464.06 L 112.50 478.12 L 77.34 492.19 L 93.75 489.84" stroke="black" fill="transparent"/>
	<path d = "M 182.81 508.59 L 461.72 499.22 L 517.97 492.19 L 539.06 485.16 L 517.97 485.16" stroke="black" fill="transparent"/>
	<path d = "M 391.41 529.69 L 110.16 517.97" stroke="black" fill="transparent"/>
	<path d = "M 182.81 410.16 L 257.81 379.69 L 506.25 349.22" stroke="black" fill="transparent"/>
	<path d = "M 379.69 393.75 L 213.28 400.78 L 63.28 379.69" stroke="black" fill="transparent"/>
</svg>