<?xml version="1.0" encoding="UTF-8" standalone="no"?>
<!--Created with ndjsontosvg (https:https://github.com/thompson318/ndjsontosvg) 
	from the simplified Google quickdraw data set. key_id = 5129091860660224-->
<svg width="600" height="600"
	xmlns="http://www.w3.org/2000/svg">
	xmlns:ndjsontosvg="https://github.com/thompson318/ndjsontosvg"
	xmlns:quickdraw="https://quickdraw.withgoogle.com/data"
	xmlns:scikit-surgery="https://doi.org/10.1007/s11548-020-02180-5">

	<rect width="100%" height="100%" fill="white" />
	<path d = "M 384.38 11.72 L 360.94 2.34 L 250.78 0.00 L 213.28 18.75 L 142.97 77.34 L 70.31 168.75 L 39.84 225.00 L 4.69 325.78 L 0.00 421.88 L 9.38 461.72 L 63.28 522.66 L 142.97 560.16 L 192.19 567.19 L 328.12 562.50 L 370.31 546.09 L 426.56 506.25 L 464.06 433.59 L 475.78 386.72 L 487.50 253.12 L 487.50 128.91 L 482.81 98.44 L 459.38 58.59 L 407.81 21.09 L 393.75 21.09 L 346.88 117.19 L 316.41 194.53 L 300.00 283.59 L 304.69 419.53 L 346.88 522.66 L 377.34 576.56 L 400.78 597.66" stroke="black" fill="transparent"/>
	<path d = "M 124.22 89.06 L 168.75 189.84 L 178.12 264.84 L 178.12 349.22 L 145.31 482.81 L 126.56 517.97 L 91.41 557.81" stroke="black" fill="transparent"/>
	<path d = "M 46.88 328.12 L 23.44 337.50 L 46.88 339.84 L 159.38 330.47 L 332.81 330.47 L 379.69 325.78 L 428.91 304.69 L 485.16 304.69" stroke="black" fill="transparent"/>
</svg>