<?xml version="1.0" encoding="UTF-8" standalone="no"?>
<!--Created with ndjsontosvg (https:https://github.com/thompson318/ndjsontosvg) 
	from the simplified Google quickdraw data set. key_id = 4682958189363200-->
<svg width="600" height="600"
	xmlns="http://www.w3.org/2000/svg">
	xmlns:ndjsontosvg="https://github.com/thompson318/ndjsontosvg"
	xmlns:quickdraw="https://quickdraw.withgoogle.com/data"
	xmlns:scikit-surgery="https://doi.org/10.1007/s11548-020-02180-5">

	<rect width="100%" height="100%" fill="white" />
	<path d = "M 98.44 232.03 L 86.72 203.91 L 91.41 161.72 L 117.19 107.81 L 140.62 84.38 L 257.81 18.75 L 314.06 2.34 L 367.97 0.00 L 421.88 25.78 L 445.31 53.91 L 506.25 152.34 L 550.78 253.12" stroke="black" fill="transparent"/>
	<path d = "M 105.47 236.72 L 72.66 260.16 L 30.47 311.72 L 4.69 360.94 L 0.00 403.12 L 21.09 450.00 L 53.91 480.47 L 96.09 499.22 L 124.22 503.91 L 161.72 503.91 L 236.72 489.84 L 377.34 438.28 L 508.59 405.47 L 555.47 382.03 L 588.28 358.59 L 597.66 337.50 L 595.31 325.78 L 548.44 283.59 L 543.75 264.84" stroke="black" fill="transparent"/>
	<path d = "M 100.78 243.75 L 105.47 255.47 L 133.59 269.53 L 297.66 295.31 L 405.47 292.97 L 548.44 264.84" stroke="black" fill="transparent"/>
	<path d = "M 96.09 276.56 L 58.59 323.44 L 44.53 360.94 L 37.50 442.97 L 39.84 475.78 L 60.94 517.97 L 89.06 536.72 L 105.47 536.72 L 110.16 529.69" stroke="black" fill="transparent"/>
	<path d = "M 150.00 264.84 L 103.12 365.62 L 91.41 433.59 L 96.09 480.47 L 124.22 517.97" stroke="black" fill="transparent"/>
	<path d = "M 222.66 267.19 L 215.62 457.03 L 217.97 480.47 L 248.44 510.94" stroke="black" fill="transparent"/>
	<path d = "M 311.72 276.56 L 309.38 426.56 L 316.41 454.69" stroke="black" fill="transparent"/>
	<path d = "M 400.78 271.88 L 426.56 410.16 L 435.94 428.91 L 457.03 440.62" stroke="black" fill="transparent"/>
	<path d = "M 487.50 288.28 L 520.31 424.22" stroke="black" fill="transparent"/>
	<path d = "M 72.66 267.19 L 114.84 292.97 L 194.53 318.75 L 337.50 337.50 L 485.16 335.16 L 522.66 325.78 L 574.22 302.34" stroke="black" fill="transparent"/>
	<path d = "M 21.09 342.19 L 124.22 344.53 L 412.50 370.31 L 468.75 363.28 L 529.69 339.84" stroke="black" fill="transparent"/>
	<path d = "M 23.44 396.09 L 210.94 410.16 L 372.66 405.47 L 564.84 360.94" stroke="black" fill="transparent"/>
	<path d = "M 49.22 435.94 L 56.25 442.97 L 105.47 454.69 L 210.94 468.75 L 342.19 468.75" stroke="black" fill="transparent"/>
</svg>