<?xml version="1.0" encoding="UTF-8" standalone="no"?>
<!--Created with ndjsontosvg (https:https://github.com/thompson318/ndjsontosvg) 
	from the simplified Google quickdraw data set. key_id = 6134013125197824-->
<svg width="600" height="600"
	xmlns="http://www.w3.org/2000/svg">
	xmlns:ndjsontosvg="https://github.com/thompson318/ndjsontosvg"
	xmlns:quickdraw="https://quickdraw.withgoogle.com/data"
	xmlns:scikit-surgery="https://doi.org/10.1007/s11548-020-02180-5">

	<rect width="100%" height="100%" fill="white" />
	<path d = "M 292.97 21.09 L 276.56 65.62 L 281.25 131.25 L 321.09 154.69 L 344.53 150.00 L 356.25 133.59 L 365.62 72.66 L 363.28 37.50 L 349.22 11.72 L 332.81 2.34 L 297.66 2.34 L 285.94 18.75 L 283.59 35.16" stroke="black" fill="transparent"/>
	<path d = "M 363.28 105.47 L 405.47 84.38 L 478.12 67.97 L 541.41 63.28 L 574.22 67.97 L 585.94 75.00 L 597.66 166.41 L 562.50 138.28 L 553.12 119.53 L 546.09 194.53 L 520.31 157.03 L 501.56 142.97 L 489.84 142.97 L 485.16 213.28 L 478.12 217.97 L 459.38 206.25 L 440.62 168.75 L 419.53 150.00 L 405.47 213.28 L 372.66 175.78 L 349.22 168.75 L 346.88 145.31" stroke="black" fill="transparent"/>
	<path d = "M 271.88 105.47 L 243.75 86.72 L 203.91 72.66 L 100.78 70.31 L 65.62 77.34 L 0.00 117.19 L 16.41 199.22" stroke="black" fill="transparent"/>
</svg>