<?xml version="1.0" encoding="UTF-8" standalone="no"?>
<!--Created with ndjsontosvg (https:https://github.com/thompson318/ndjsontosvg) 
	from the simplified Google quickdraw data set. key_id = 5016655606317056-->
<svg width="600" height="600"
	xmlns="http://www.w3.org/2000/svg">
	xmlns:ndjsontosvg="https://github.com/thompson318/ndjsontosvg"
	xmlns:quickdraw="https://quickdraw.withgoogle.com/data"
	xmlns:scikit-surgery="https://doi.org/10.1007/s11548-020-02180-5">

	<rect width="100%" height="100%" fill="white" />
	<path d = "M 349.22 164.06 L 391.41 124.22 L 489.84 77.34 L 583.59 65.62 L 527.34 159.38 L 571.88 145.31 L 592.97 147.66 L 597.66 159.38 L 592.97 173.44 L 548.44 217.97 L 590.62 206.25 L 590.62 210.94 L 553.12 241.41 L 499.22 257.81 L 435.94 292.97 L 391.41 295.31 L 335.16 328.12 L 323.44 344.53 L 300.00 349.22 L 300.00 363.28 L 292.97 351.56 L 274.22 353.91 L 276.56 372.66 L 271.88 356.25 L 239.06 344.53 L 222.66 300.00 L 138.28 253.12 L 84.38 206.25 L 25.78 133.59 L 0.00 124.22 L 159.38 128.91 L 105.47 100.78 L 53.91 53.91 L 142.97 91.41 L 180.47 98.44 L 178.12 86.72 L 147.66 58.59 L 79.69 9.38 L 168.75 84.38 L 196.88 131.25 L 260.16 142.97 L 269.53 142.97 L 236.72 112.50 L 236.72 77.34 L 271.88 35.16 L 323.44 32.81 L 349.22 82.03 L 344.53 168.75" stroke="black" fill="transparent"/>
	<path d = "M 328.12 79.69 L 330.47 67.97 L 358.59 46.88 L 379.69 44.53" stroke="black" fill="transparent"/>
	<path d = "M 267.19 28.12 L 253.12 25.78 L 229.69 0.00" stroke="black" fill="transparent"/>
</svg>