<?xml version="1.0" encoding="UTF-8" standalone="no"?>
<!--Created with ndjsontosvg (https:https://github.com/thompson318/ndjsontosvg) 
	from the simplified Google quickdraw data set. key_id = 5541749382447104-->
<svg width="600" height="600"
	xmlns="http://www.w3.org/2000/svg">
	xmlns:ndjsontosvg="https://github.com/thompson318/ndjsontosvg"
	xmlns:quickdraw="https://quickdraw.withgoogle.com/data"
	xmlns:scikit-surgery="https://doi.org/10.1007/s11548-020-02180-5">

	<rect width="100%" height="100%" fill="white" />
	<path d = "M 206.25 152.34 L 196.88 138.28 L 196.88 110.16 L 217.97 77.34 L 253.12 51.56 L 311.72 44.53 L 339.84 60.94 L 358.59 91.41 L 360.94 131.25 L 339.84 157.03 L 311.72 173.44 L 278.91 178.12 L 243.75 173.44 L 203.91 154.69" stroke="black" fill="transparent"/>
	<path d = "M 222.66 44.53 L 189.84 2.34 L 187.50 21.09 L 213.28 65.62 L 206.25 11.72" stroke="black" fill="transparent"/>
	<path d = "M 337.50 60.94 L 389.06 14.06 L 360.94 60.94 L 356.25 58.59 L 367.97 42.19" stroke="black" fill="transparent"/>
	<path d = "M 335.16 164.06 L 351.56 192.19 L 351.56 234.38 L 325.78 290.62 L 304.69 311.72 L 281.25 321.09 L 246.09 309.38 L 220.31 271.88 L 213.28 227.34 L 232.03 175.78" stroke="black" fill="transparent"/>
	<path d = "M 353.91 189.84 L 468.75 142.97 L 590.62 51.56 L 597.66 124.22 L 595.31 150.00 L 571.88 166.41 L 567.19 213.28 L 546.09 239.06 L 515.62 250.78 L 473.44 250.78 L 450.00 274.22 L 431.25 281.25 L 358.59 267.19" stroke="black" fill="transparent"/>
	<path d = "M 236.72 206.25 L 114.84 161.72 L 0.00 84.38 L 7.03 206.25 L 56.25 215.62 L 98.44 260.16 L 159.38 257.81 L 189.84 274.22 L 225.00 271.88" stroke="black" fill="transparent"/>
	<path d = "M 232.03 93.75 L 234.38 112.50 L 234.38 96.09 L 227.34 105.47 L 232.03 100.78" stroke="black" fill="transparent"/>
	<path d = "M 325.78 84.38 L 316.41 93.75 L 318.75 105.47 L 321.09 91.41" stroke="black" fill="transparent"/>
</svg>