<?xml version="1.0" encoding="UTF-8" standalone="no"?>
<!--Created with ndjsontosvg (https:https://github.com/thompson318/ndjsontosvg) 
	from the simplified Google quickdraw data set. key_id = 4665045323612160-->
<svg width="600" height="600"
	xmlns="http://www.w3.org/2000/svg">
	xmlns:ndjsontosvg="https://github.com/thompson318/ndjsontosvg"
	xmlns:quickdraw="https://quickdraw.withgoogle.com/data"
	xmlns:scikit-surgery="https://doi.org/10.1007/s11548-020-02180-5">

	<rect width="100%" height="100%" fill="white" />
	<path d = "M 229.69 98.44 L 281.25 72.66 L 330.47 60.94 L 541.41 67.97 L 567.19 79.69 L 562.50 103.12 L 597.66 166.41 L 585.94 171.09 L 510.94 150.00 L 492.19 185.16 L 468.75 187.50 L 450.00 180.47 L 431.25 210.94 L 398.44 213.28 L 379.69 203.91 L 377.34 241.41 L 325.78 232.03 L 295.31 201.56 L 290.62 232.03 L 257.81 234.38 L 253.12 225.00" stroke="black" fill="transparent"/>
	<path d = "M 234.38 96.09 L 194.53 67.97 L 187.50 0.00 L 171.09 9.38 L 150.00 42.19 L 98.44 46.88 L 82.03 39.84 L 107.81 82.03 L 98.44 96.09 L 49.22 124.22 L 21.09 152.34 L 4.69 196.88 L 9.38 208.59 L 0.00 260.16 L 7.03 283.59 L 21.09 290.62 L 39.84 253.12 L 79.69 264.84 L 96.09 234.38 L 128.91 255.47 L 147.66 173.44 L 192.19 210.94 L 255.47 215.62" stroke="black" fill="transparent"/>
</svg>