<?xml version="1.0" encoding="UTF-8" standalone="no"?>
<!--Created with ndjsontosvg (https:https://github.com/thompson318/ndjsontosvg) 
	from the simplified Google quickdraw data set. key_id = 5292786502860800-->
<svg width="600" height="600"
	xmlns="http://www.w3.org/2000/svg">
	xmlns:ndjsontosvg="https://github.com/thompson318/ndjsontosvg"
	xmlns:quickdraw="https://quickdraw.withgoogle.com/data"
	xmlns:scikit-surgery="https://doi.org/10.1007/s11548-020-02180-5">

	<rect width="100%" height="100%" fill="white" />
	<path d = "M 267.19 114.84 L 140.62 100.78 L 103.12 84.38 L 63.28 51.56 L 53.91 53.91 L 16.41 124.22 L 0.00 215.62 L 63.28 178.12 L 79.69 182.81 L 89.06 225.00 L 117.19 180.47 L 128.91 185.16 L 147.66 222.66" stroke="black" fill="transparent"/>
	<path d = "M 147.66 222.66 L 180.47 185.16 L 199.22 185.16 L 217.97 220.31 L 225.00 206.25 L 243.75 189.84 L 283.59 175.78 L 314.06 255.47 L 332.81 356.25 L 344.53 246.09 L 367.97 185.16 L 391.41 157.03 L 426.56 152.34 L 445.31 182.81 L 461.72 135.94 L 487.50 126.56 L 499.22 133.59 L 517.97 166.41 L 536.72 145.31 L 560.16 142.97 L 590.62 173.44 L 597.66 98.44 L 581.25 46.88 L 515.62 89.06 L 450.00 103.12 L 403.12 103.12 L 386.72 93.75 L 370.31 70.31 L 351.56 0.00 L 344.53 67.97 L 318.75 58.59 L 304.69 65.62 L 302.34 23.44 L 297.66 14.06 L 290.62 18.75 L 283.59 103.12 L 267.19 110.16" stroke="black" fill="transparent"/>
</svg>