<?xml version="1.0" encoding="UTF-8" standalone="no"?>
<!--Created with ndjsontosvg (https:https://github.com/thompson318/ndjsontosvg) 
	from the simplified Google quickdraw data set. key_id = 4562496687964160-->
<svg width="600" height="600"
	xmlns="http://www.w3.org/2000/svg">
	xmlns:ndjsontosvg="https://github.com/thompson318/ndjsontosvg"
	xmlns:quickdraw="https://quickdraw.withgoogle.com/data"
	xmlns:scikit-surgery="https://doi.org/10.1007/s11548-020-02180-5">

	<rect width="100%" height="100%" fill="white" />
	<path d = "M 23.44 39.84 L 51.56 23.44 L 119.53 9.38 L 375.00 0.00 L 503.91 11.72 L 557.81 30.47 L 585.94 51.56 L 590.62 70.31 L 583.59 84.38 L 532.03 121.88 L 475.78 140.62 L 389.06 150.00 L 274.22 145.31 L 164.06 128.91 L 105.47 107.81 L 30.47 58.59 L 16.41 58.59 L 4.69 93.75 L 0.00 150.00 L 7.03 185.16 L 21.09 206.25 L 60.94 239.06 L 91.41 253.12 L 196.88 278.91 L 424.22 267.19 L 527.34 232.03 L 562.50 208.59 L 585.94 173.44 L 597.66 67.97" stroke="black" fill="transparent"/>
</svg>