<?xml version="1.0" encoding="UTF-8" standalone="no"?>
<!--Created with ndjsontosvg (https:https://github.com/thompson318/ndjsontosvg) 
	from the simplified Google quickdraw data set. key_id = 6267331661529088-->
<svg width="600" height="600"
	xmlns="http://www.w3.org/2000/svg">
	xmlns:ndjsontosvg="https://github.com/thompson318/ndjsontosvg"
	xmlns:quickdraw="https://quickdraw.withgoogle.com/data"
	xmlns:scikit-surgery="https://doi.org/10.1007/s11548-020-02180-5">

	<rect width="100%" height="100%" fill="white" />
	<path d = "M 49.22 234.38 L 7.03 229.69 L 0.00 250.78 L 2.34 274.22 L 11.72 295.31 L 82.03 377.34 L 117.19 393.75 L 206.25 398.44 L 365.62 398.44 L 494.53 382.03 L 581.25 356.25 L 595.31 339.84 L 597.66 304.69 L 581.25 271.88 L 564.84 260.16 L 86.72 257.81 L 23.44 222.66" stroke="black" fill="transparent"/>
	<path d = "M 35.16 239.06 L 16.41 173.44 L 9.38 119.53 L 11.72 63.28 L 25.78 2.34 L 110.16 2.34 L 131.25 35.16 L 131.25 39.84 L 105.47 25.78 L 75.00 23.44 L 51.56 49.22 L 56.25 222.66" stroke="black" fill="transparent"/>
	<path d = "M 145.31 28.12 L 117.19 37.50 L 119.53 53.91 L 150.00 56.25 L 171.09 46.88 L 164.06 37.50 L 140.62 37.50 L 142.97 42.19" stroke="black" fill="transparent"/>
</svg>