<?xml version="1.0" encoding="UTF-8" standalone="no"?>
<!--Created with ndjsontosvg (https:https://github.com/thompson318/ndjsontosvg) 
	from the simplified Google quickdraw data set. key_id = 4658113045069824-->
<svg width="600" height="600"
	xmlns="http://www.w3.org/2000/svg">
	xmlns:ndjsontosvg="https://github.com/thompson318/ndjsontosvg"
	xmlns:quickdraw="https://quickdraw.withgoogle.com/data"
	xmlns:scikit-surgery="https://doi.org/10.1007/s11548-020-02180-5">

	<rect width="100%" height="100%" fill="white" />
	<path d = "M 0.00 53.91 L 0.00 257.81 L 49.22 290.62 L 135.94 311.72 L 292.97 311.72 L 353.91 300.00 L 501.56 300.00 L 536.72 281.25 L 576.56 217.97 L 585.94 159.38 L 588.28 82.03 L 574.22 51.56 L 445.31 25.78 L 410.16 25.78 L 323.44 53.91 L 213.28 60.94 L 133.59 75.00 L 77.34 75.00 L 49.22 60.94 L 2.34 51.56" stroke="black" fill="transparent"/>
	<path d = "M 0.00 39.84 L 21.09 28.12 L 121.88 2.34 L 309.38 0.00 L 592.97 37.50 L 597.66 56.25 L 590.62 72.66 L 550.78 84.38" stroke="black" fill="transparent"/>
	<path d = "M 89.06 25.78 L 96.09 7.03 L 103.12 4.69 L 112.50 39.84 L 133.59 18.75 L 173.44 4.69 L 175.78 42.19 L 229.69 18.75 L 229.69 35.16 L 239.06 42.19 L 271.88 30.47 L 318.75 32.81 L 328.12 42.19 L 377.34 35.16" stroke="black" fill="transparent"/>
	<path d = "M 21.09 262.50 L 18.75 318.75" stroke="black" fill="transparent"/>
	<path d = "M 517.97 295.31 L 517.97 325.78" stroke="black" fill="transparent"/>
</svg>