<?xml version="1.0" encoding="UTF-8" standalone="no"?>
<!--Created with ndjsontosvg (https:https://github.com/thompson318/ndjsontosvg) 
	from the simplified Google quickdraw data set. key_id = 4621512541732864-->
<svg width="600" height="600"
	xmlns="http://www.w3.org/2000/svg">
	xmlns:ndjsontosvg="https://github.com/thompson318/ndjsontosvg"
	xmlns:quickdraw="https://quickdraw.withgoogle.com/data"
	xmlns:scikit-surgery="https://doi.org/10.1007/s11548-020-02180-5">

	<rect width="100%" height="100%" fill="white" />
	<path d = "M 527.34 14.06 L 217.97 16.41 L 110.16 23.44 L 35.16 37.50 L 7.03 70.31 L 2.34 96.09 L 4.69 124.22 L 46.88 157.03 L 112.50 178.12 L 222.66 185.16 L 403.12 152.34 L 562.50 114.84 L 576.56 105.47 L 588.28 82.03 L 588.28 44.53 L 576.56 23.44 L 555.47 11.72 L 435.94 0.00" stroke="black" fill="transparent"/>
	<path d = "M 14.06 77.34 L 0.00 210.94 L 7.03 234.38 L 35.16 271.88 L 91.41 276.56 L 114.84 264.84 L 145.31 260.16 L 161.72 281.25 L 201.56 292.97 L 349.22 300.00 L 508.59 288.28 L 560.16 278.91 L 581.25 262.50 L 595.31 234.38 L 597.66 189.84 L 578.91 121.88 L 578.91 79.69" stroke="black" fill="transparent"/>
</svg>