<?xml version="1.0" encoding="UTF-8" standalone="no"?>
<!--Created with ndjsontosvg (https:https://github.com/thompson318/ndjsontosvg) 
	from the simplified Google quickdraw data set. key_id = 5528526839087104-->
<svg width="600" height="600"
	xmlns="http://www.w3.org/2000/svg">
	xmlns:ndjsontosvg="https://github.com/thompson318/ndjsontosvg"
	xmlns:quickdraw="https://quickdraw.withgoogle.com/data"
	xmlns:scikit-surgery="https://doi.org/10.1007/s11548-020-02180-5">

	<rect width="100%" height="100%" fill="white" />
	<path d = "M 7.03 42.19 L 142.97 65.62 L 241.41 67.97 L 442.97 56.25 L 595.31 18.75 L 597.66 11.72 L 585.94 2.34 L 543.75 0.00 L 480.47 14.06 L 321.09 25.78 L 86.72 23.44 L 14.06 35.16 L 0.00 46.88" stroke="black" fill="transparent"/>
	<path d = "M 18.75 46.88 L 16.41 161.72 L 32.81 210.94 L 49.22 227.34 L 91.41 232.03 L 145.31 257.81 L 185.16 260.16 L 337.50 232.03 L 393.75 208.59 L 440.62 215.62 L 461.72 206.25 L 522.66 208.59 L 550.78 189.84 L 569.53 161.72 L 578.91 110.16 L 571.88 21.09" stroke="black" fill="transparent"/>
	<path d = "M 508.59 208.59 L 503.91 229.69" stroke="black" fill="transparent"/>
</svg>