<?xml version="1.0" encoding="UTF-8" standalone="no"?>
<!--Created with ndjsontosvg (https:https://github.com/thompson318/ndjsontosvg) 
	from the simplified Google quickdraw data set. key_id = 4574247924006912-->
<svg width="600" height="600"
	xmlns="http://www.w3.org/2000/svg">
	xmlns:ndjsontosvg="https://github.com/thompson318/ndjsontosvg"
	xmlns:quickdraw="https://quickdraw.withgoogle.com/data"
	xmlns:scikit-surgery="https://doi.org/10.1007/s11548-020-02180-5">

	<rect width="100%" height="100%" fill="white" />
	<path d = "M 330.47 126.56 L 365.62 159.38 L 466.41 220.31 L 485.16 227.34 L 536.72 229.69 L 595.31 255.47" stroke="black" fill="transparent"/>
	<path d = "M 297.66 164.06 L 311.72 175.78 L 0.00 182.81 L 39.84 215.62 L 121.88 243.75 L 150.00 267.19 L 39.84 278.91" stroke="black" fill="transparent"/>
	<path d = "M 321.09 159.38 L 339.84 192.19 L 379.69 227.34 L 438.28 246.09 L 506.25 257.81 L 532.03 274.22 L 595.31 292.97" stroke="black" fill="transparent"/>
	<path d = "M 398.44 335.16 L 391.41 269.53 L 370.31 269.53 L 346.88 288.28" stroke="black" fill="transparent"/>
	<path d = "M 400.78 264.84 L 442.97 264.84" stroke="black" fill="transparent"/>
	<path d = "M 335.16 288.28 L 332.81 278.91 L 351.56 255.47 L 393.75 229.69 L 424.22 234.38 L 442.97 248.44 L 450.00 269.53" stroke="black" fill="transparent"/>
	<path d = "M 351.56 253.12 L 349.22 271.88" stroke="black" fill="transparent"/>
	<path d = "M 393.75 227.34 L 386.72 260.16" stroke="black" fill="transparent"/>
	<path d = "M 412.50 232.03 L 421.88 248.44" stroke="black" fill="transparent"/>
	<path d = "M 438.28 248.44 L 438.28 248.44" stroke="black" fill="transparent"/>
	<path d = "M 365.62 70.31 L 393.75 89.06 L 412.50 117.19 L 450.00 126.56" stroke="black" fill="transparent"/>
	<path d = "M 473.44 98.44 L 478.12 86.72 L 494.53 75.00 L 506.25 75.00 L 510.94 82.03" stroke="black" fill="transparent"/>
	<path d = "M 546.09 110.16 L 553.12 93.75 L 569.53 91.41 L 583.59 112.50 L 595.31 105.47 L 597.66 114.84" stroke="black" fill="transparent"/>
	<path d = "M 499.22 175.78 L 517.97 164.06 L 532.03 168.75 L 546.09 161.72 L 555.47 173.44" stroke="black" fill="transparent"/>
	<path d = "M 534.38 0.00 L 534.38 16.41 L 548.44 35.16 L 595.31 67.97" stroke="black" fill="transparent"/>
	<path d = "M 529.69 18.75 L 517.97 39.84" stroke="black" fill="transparent"/>
	<path d = "M 543.75 56.25 L 541.41 72.66" stroke="black" fill="transparent"/>
	<path d = "M 560.16 75.00 L 562.50 89.06" stroke="black" fill="transparent"/>
	<path d = "M 590.62 96.09 L 590.62 119.53" stroke="black" fill="transparent"/>
</svg>