<?xml version="1.0" encoding="UTF-8" standalone="no"?>
<!--Created with ndjsontosvg (https:https://github.com/thompson318/ndjsontosvg) 
	from the simplified Google quickdraw data set. key_id = 5687298911895552-->
<svg width="600" height="600"
	xmlns="http://www.w3.org/2000/svg">
	xmlns:ndjsontosvg="https://github.com/thompson318/ndjsontosvg"
	xmlns:quickdraw="https://quickdraw.withgoogle.com/data"
	xmlns:scikit-surgery="https://doi.org/10.1007/s11548-020-02180-5">

	<rect width="100%" height="100%" fill="white" />
	<path d = "M 9.38 117.19 L 126.56 117.19 L 297.66 107.81 L 482.81 119.53 L 597.66 114.84" stroke="black" fill="transparent"/>
	<path d = "M 0.00 103.12 L 44.53 100.78 L 60.94 91.41 L 70.31 105.47 L 103.12 91.41 L 103.12 103.12 L 110.16 103.12 L 152.34 84.38 L 147.66 100.78 L 152.34 100.78 L 194.53 84.38 L 239.06 89.06 L 271.88 79.69 L 260.16 93.75 L 292.97 86.72 L 302.34 100.78 L 344.53 82.03 L 339.84 93.75 L 367.97 89.06 L 375.00 100.78 L 417.19 89.06 L 417.19 105.47 L 431.25 112.50 L 450.00 100.78 L 506.25 91.41 L 517.97 91.41 L 517.97 110.16 L 525.00 112.50 L 560.16 98.44" stroke="black" fill="transparent"/>
	<path d = "M 478.12 9.38 L 478.12 112.50" stroke="black" fill="transparent"/>
	<path d = "M 496.88 14.06 L 499.22 135.94" stroke="black" fill="transparent"/>
	<path d = "M 480.47 14.06 L 471.09 4.69 L 442.97 0.00 L 410.16 25.78 L 482.81 16.41" stroke="black" fill="transparent"/>
</svg>