<?xml version="1.0" encoding="UTF-8" standalone="no"?>
<!--Created with ndjsontosvg (https:https://github.com/thompson318/ndjsontosvg) 
	from the simplified Google quickdraw data set. key_id = 5403686568198144-->
<svg width="600" height="600"
	xmlns="http://www.w3.org/2000/svg">
	xmlns:ndjsontosvg="https://github.com/thompson318/ndjsontosvg"
	xmlns:quickdraw="https://quickdraw.withgoogle.com/data"
	xmlns:scikit-surgery="https://doi.org/10.1007/s11548-020-02180-5">

	<rect width="100%" height="100%" fill="white" />
	<path d = "M 35.16 63.28 L 86.72 23.44 L 152.34 2.34 L 175.78 0.00 L 267.19 32.81 L 302.34 58.59 L 349.22 75.00 L 410.16 67.97 L 532.03 11.72" stroke="black" fill="transparent"/>
	<path d = "M 53.91 187.50 L 241.41 96.09 L 281.25 98.44 L 339.84 150.00 L 386.72 164.06 L 417.19 161.72 L 485.16 138.28" stroke="black" fill="transparent"/>
	<path d = "M 0.00 295.31 L 51.56 243.75 L 93.75 227.34 L 192.19 213.28 L 386.72 215.62 L 457.03 227.34 L 536.72 250.78 L 597.66 283.59" stroke="black" fill="transparent"/>
	<path d = "M 114.84 318.75 L 119.53 389.06 L 110.16 494.53 L 121.88 499.22 L 187.50 513.28 L 236.72 499.22 L 243.75 358.59 L 236.72 321.09 L 196.88 304.69 L 96.09 311.72" stroke="black" fill="transparent"/>
</svg>