<?xml version="1.0" encoding="UTF-8" standalone="no"?>
<!--Created with ndjsontosvg (https:https://github.com/thompson318/ndjsontosvg) 
	from the simplified Google quickdraw data set. key_id = 6012740378296320-->
<svg width="600" height="600"
	xmlns="http://www.w3.org/2000/svg">
	xmlns:ndjsontosvg="https://github.com/thompson318/ndjsontosvg"
	xmlns:quickdraw="https://quickdraw.withgoogle.com/data"
	xmlns:scikit-surgery="https://doi.org/10.1007/s11548-020-02180-5">

	<rect width="100%" height="100%" fill="white" />
	<path d = "M 0.00 168.75 L 93.75 142.97 L 168.75 173.44 L 199.22 196.88 L 246.09 199.22" stroke="black" fill="transparent"/>
	<path d = "M 206.25 225.00 L 267.19 173.44 L 276.56 206.25 L 307.03 192.19" stroke="black" fill="transparent"/>
	<path d = "M 300.00 225.00 L 342.19 175.78 L 365.62 206.25 L 403.12 189.84 L 417.19 225.00 L 457.03 201.56 L 487.50 227.34 L 499.22 229.69 L 560.16 201.56 L 592.97 194.53 L 597.66 229.69" stroke="black" fill="transparent"/>
	<path d = "M 77.34 173.44 L 103.12 82.03 L 107.81 35.16" stroke="black" fill="transparent"/>
	<path d = "M 103.12 173.44 L 147.66 77.34" stroke="black" fill="transparent"/>
	<path d = "M 135.94 2.34 L 77.34 7.03 L 44.53 23.44 L 32.81 42.19 L 60.94 42.19 L 117.19 51.56 L 142.97 72.66 L 154.69 91.41 L 164.06 28.12 L 154.69 7.03 L 142.97 0.00" stroke="black" fill="transparent"/>
</svg>