<?xml version="1.0" encoding="UTF-8" standalone="no"?>
<!--Created with ndjsontosvg (https:https://github.com/thompson318/ndjsontosvg) 
	from the simplified Google quickdraw data set. key_id = 6397550909194240-->
<svg width="600" height="600"
	xmlns="http://www.w3.org/2000/svg">
	xmlns:ndjsontosvg="https://github.com/thompson318/ndjsontosvg"
	xmlns:quickdraw="https://quickdraw.withgoogle.com/data"
	xmlns:scikit-surgery="https://doi.org/10.1007/s11548-020-02180-5">

	<rect width="100%" height="100%" fill="white" />
	<path d = "M 0.00 187.50 L 597.66 180.47" stroke="black" fill="transparent"/>
	<path d = "M 49.22 147.66 L 131.25 145.31 L 178.12 133.59 L 215.62 150.00 L 250.78 152.34 L 316.41 131.25 L 375.00 145.31 L 569.53 145.31" stroke="black" fill="transparent"/>
	<path d = "M 93.75 82.03 L 93.75 91.41 L 117.19 93.75 L 194.53 86.72 L 241.41 56.25 L 295.31 91.41 L 396.09 91.41 L 471.09 67.97 L 553.12 103.12" stroke="black" fill="transparent"/>
	<path d = "M 173.44 16.41 L 304.69 0.00 L 365.62 25.78 L 485.16 23.44" stroke="black" fill="transparent"/>
	<path d = "M 46.88 281.25 L 46.88 281.25" stroke="black" fill="transparent"/>
	<path d = "M 56.25 274.22 L 51.56 281.25 L 58.59 276.56" stroke="black" fill="transparent"/>
	<path d = "M 201.56 264.84 L 225.00 274.22 L 316.41 274.22 L 311.72 283.59" stroke="black" fill="transparent"/>
</svg>