<?xml version="1.0" encoding="UTF-8" standalone="no"?>
<!--Created with ndjsontosvg (https:https://github.com/thompson318/ndjsontosvg) 
	from the simplified Google quickdraw data set. key_id = 6121490833473536-->
<svg width="600" height="600"
	xmlns="http://www.w3.org/2000/svg">
	xmlns:ndjsontosvg="https://github.com/thompson318/ndjsontosvg"
	xmlns:quickdraw="https://quickdraw.withgoogle.com/data"
	xmlns:scikit-surgery="https://doi.org/10.1007/s11548-020-02180-5">

	<rect width="100%" height="100%" fill="white" />
	<path d = "M 304.69 103.12 L 318.75 89.06 L 16.41 84.38 L 42.19 86.72 L 91.41 128.91 L 114.84 128.91 L 147.66 100.78 L 140.62 117.19 L 112.50 131.25" stroke="black" fill="transparent"/>
	<path d = "M 314.06 91.41 L 21.09 89.06 L 37.50 93.75 L 53.91 112.50 L 77.34 89.06" stroke="black" fill="transparent"/>
	<path d = "M 337.50 89.06 L 367.97 72.66 L 386.72 70.31 L 405.47 103.12 L 421.88 110.16 L 450.00 75.00 L 475.78 75.00 L 517.97 89.06 L 541.41 53.91 L 553.12 46.88 L 569.53 49.22 L 597.66 75.00" stroke="black" fill="transparent"/>
	<path d = "M 297.66 7.03 L 0.00 9.38 L 145.31 0.00 L 274.22 9.38" stroke="black" fill="transparent"/>
</svg>