<?xml version="1.0" encoding="UTF-8" standalone="no"?>
<!--Created with ndjsontosvg (https:https://github.com/thompson318/ndjsontosvg) 
	from the simplified Google quickdraw data set. key_id = 4878193968283648-->
<svg width="600" height="600"
	xmlns="http://www.w3.org/2000/svg">
	xmlns:ndjsontosvg="https://github.com/thompson318/ndjsontosvg"
	xmlns:quickdraw="https://quickdraw.withgoogle.com/data"
	xmlns:scikit-surgery="https://doi.org/10.1007/s11548-020-02180-5">

	<rect width="100%" height="100%" fill="white" />
	<path d = "M 30.47 241.41 L 4.69 295.31 L 14.06 330.47 L 0.00 375.00 L 0.00 424.22 L 9.38 445.31 L 18.75 510.94 L 49.22 562.50 L 82.03 585.94 L 128.91 597.66 L 274.22 590.62 L 311.72 581.25 L 337.50 539.06 L 337.50 508.59 L 328.12 489.84 L 356.25 450.00 L 356.25 424.22 L 339.84 391.41 L 360.94 323.44 L 358.59 297.66 L 346.88 271.88 L 351.56 241.41 L 321.09 225.00 L 264.84 215.62 L 164.06 213.28 L 63.28 222.66 L 28.12 243.75" stroke="black" fill="transparent"/>
	<path d = "M 147.66 271.88 L 98.44 285.94 L 96.09 295.31 L 114.84 307.03 L 93.75 323.44 L 91.41 344.53 L 119.53 353.91 L 119.53 375.00 L 145.31 384.38 L 182.81 386.72 L 208.59 375.00 L 243.75 379.69 L 278.91 358.59 L 295.31 311.72 L 285.94 283.59 L 236.72 255.47 L 213.28 255.47 L 159.38 267.19" stroke="black" fill="transparent"/>
	<path d = "M 154.69 292.97 L 166.41 321.09 L 178.12 328.12 L 208.59 316.41 L 222.66 292.97" stroke="black" fill="transparent"/>
	<path d = "M 63.28 227.34 L 49.22 199.22 L 51.56 154.69 L 84.38 91.41 L 119.53 49.22 L 154.69 18.75 L 229.69 0.00 L 260.16 2.34 L 285.94 28.12 L 314.06 124.22 L 321.09 182.81 L 314.06 222.66" stroke="black" fill="transparent"/>
</svg>