<?xml version="1.0" encoding="UTF-8" standalone="no"?>
<!--Created with ndjsontosvg (https:https://github.com/thompson318/ndjsontosvg) 
	from the simplified Google quickdraw data set. key_id = 4600805514543104-->
<svg width="600" height="600"
	xmlns="http://www.w3.org/2000/svg">
	xmlns:ndjsontosvg="https://github.com/thompson318/ndjsontosvg"
	xmlns:quickdraw="https://quickdraw.withgoogle.com/data"
	xmlns:scikit-surgery="https://doi.org/10.1007/s11548-020-02180-5">

	<rect width="100%" height="100%" fill="white" />
	<path d = "M 23.44 152.34 L 67.97 274.22 L 112.50 335.16 L 152.34 375.00 L 194.53 403.12 L 302.34 433.59 L 440.62 440.62 L 482.81 419.53 L 503.91 400.78 L 562.50 307.03 L 595.31 100.78 L 592.97 42.19 L 576.56 0.00" stroke="black" fill="transparent"/>
	<path d = "M 46.88 152.34 L 30.47 82.03 L 32.81 9.38" stroke="black" fill="transparent"/>
	<path d = "M 63.28 239.06 L 60.94 276.56 L 42.19 332.81" stroke="black" fill="transparent"/>
	<path d = "M 72.66 274.22 L 56.25 342.19" stroke="black" fill="transparent"/>
	<path d = "M 98.44 290.62 L 91.41 323.44" stroke="black" fill="transparent"/>
	<path d = "M 128.91 316.41 L 128.91 349.22" stroke="black" fill="transparent"/>
	<path d = "M 154.69 332.81 L 157.03 377.34" stroke="black" fill="transparent"/>
	<path d = "M 185.16 358.59 L 173.44 424.22" stroke="black" fill="transparent"/>
	<path d = "M 203.91 363.28 L 201.56 403.12" stroke="black" fill="transparent"/>
	<path d = "M 246.09 384.38 L 246.09 428.91" stroke="black" fill="transparent"/>
	<path d = "M 257.81 403.12 L 260.16 424.22" stroke="black" fill="transparent"/>
	<path d = "M 300.00 403.12 L 300.00 447.66" stroke="black" fill="transparent"/>
	<path d = "M 335.16 412.50 L 337.50 431.25" stroke="black" fill="transparent"/>
	<path d = "M 379.69 407.81 L 382.03 445.31" stroke="black" fill="transparent"/>
	<path d = "M 419.53 410.16 L 428.91 433.59" stroke="black" fill="transparent"/>
	<path d = "M 461.72 393.75 L 461.72 393.75" stroke="black" fill="transparent"/>
	<path d = "M 492.19 358.59 L 517.97 403.12" stroke="black" fill="transparent"/>
	<path d = "M 496.88 363.28 L 536.72 398.44" stroke="black" fill="transparent"/>
	<path d = "M 447.66 410.16 L 480.47 440.62" stroke="black" fill="transparent"/>
	<path d = "M 473.44 403.12 L 485.16 433.59" stroke="black" fill="transparent"/>
	<path d = "M 527.34 332.81 L 548.44 358.59" stroke="black" fill="transparent"/>
	<path d = "M 541.41 290.62 L 576.56 304.69" stroke="black" fill="transparent"/>
	<path d = "M 532.03 288.28 L 569.53 295.31" stroke="black" fill="transparent"/>
	<path d = "M 557.81 253.12 L 588.28 260.16" stroke="black" fill="transparent"/>
	<path d = "M 562.50 225.00 L 581.25 241.41" stroke="black" fill="transparent"/>
	<path d = "M 548.44 194.53 L 576.56 194.53" stroke="black" fill="transparent"/>
	<path d = "M 581.25 168.75 L 597.66 168.75" stroke="black" fill="transparent"/>
	<path d = "M 567.19 173.44 L 567.19 173.44" stroke="black" fill="transparent"/>
	<path d = "M 21.09 241.41 L 0.00 285.94" stroke="black" fill="transparent"/>
	<path d = "M 35.16 248.44 L 28.12 276.56" stroke="black" fill="transparent"/>
	<path d = "M 72.66 278.91 L 67.97 311.72" stroke="black" fill="transparent"/>
	<path d = "M 98.44 295.31 L 98.44 323.44" stroke="black" fill="transparent"/>
	<path d = "M 133.59 304.69 L 131.25 349.22" stroke="black" fill="transparent"/>
	<path d = "M 138.28 344.53 L 138.28 377.34" stroke="black" fill="transparent"/>
	<path d = "M 185.16 300.00 L 173.44 363.28" stroke="black" fill="transparent"/>
	<path d = "M 196.88 290.62 L 196.88 332.81" stroke="black" fill="transparent"/>
	<path d = "M 236.72 292.97 L 239.06 330.47" stroke="black" fill="transparent"/>
	<path d = "M 257.81 304.69 L 255.47 356.25" stroke="black" fill="transparent"/>
	<path d = "M 264.84 337.50 L 271.88 358.59" stroke="black" fill="transparent"/>
	<path d = "M 307.03 323.44 L 309.38 342.19" stroke="black" fill="transparent"/>
	<path d = "M 358.59 330.47 L 358.59 349.22" stroke="black" fill="transparent"/>
	<path d = "M 384.38 321.09 L 384.38 321.09" stroke="black" fill="transparent"/>
	<path d = "M 414.84 332.81 L 421.88 358.59" stroke="black" fill="transparent"/>
	<path d = "M 450.00 325.78 L 454.69 356.25" stroke="black" fill="transparent"/>
	<path d = "M 466.41 318.75 L 473.44 332.81" stroke="black" fill="transparent"/>
	<path d = "M 473.44 295.31 L 482.81 323.44" stroke="black" fill="transparent"/>
	<path d = "M 496.88 264.84 L 506.25 278.91" stroke="black" fill="transparent"/>
	<path d = "M 503.91 208.59 L 508.59 232.03" stroke="black" fill="transparent"/>
	<path d = "M 253.12 260.16 L 253.12 260.16" stroke="black" fill="transparent"/>
	<path d = "M 168.75 260.16 L 168.75 260.16" stroke="black" fill="transparent"/>
</svg>