<?xml version="1.0" encoding="UTF-8" standalone="no"?>
<!--Created with ndjsontosvg (https:https://github.com/thompson318/ndjsontosvg) 
	from the simplified Google quickdraw data set. key_id = 6558337057423360-->
<svg width="600" height="600"
	xmlns="http://www.w3.org/2000/svg">
	xmlns:ndjsontosvg="https://github.com/thompson318/ndjsontosvg"
	xmlns:quickdraw="https://quickdraw.withgoogle.com/data"
	xmlns:scikit-surgery="https://doi.org/10.1007/s11548-020-02180-5">

	<rect width="100%" height="100%" fill="white" />
	<path d = "M 96.09 227.34 L 77.34 321.09 L 75.00 363.28 L 89.06 410.16 L 121.88 435.94 L 119.53 576.56 L 157.03 597.66 L 180.47 592.97 L 196.88 574.22 L 225.00 499.22 L 222.66 447.66 L 360.94 475.78 L 398.44 475.78 L 398.44 569.53 L 424.22 592.97 L 450.00 595.31 L 499.22 543.75 L 506.25 525.00 L 517.97 431.25 L 515.62 384.38 L 487.50 269.53 L 480.47 241.41 L 461.72 220.31 L 435.94 206.25 L 377.34 189.84 L 292.97 185.16 L 210.94 164.06 L 203.91 121.88 L 182.81 75.00 L 157.03 39.84 L 112.50 2.34 L 72.66 9.38 L 35.16 28.12 L 0.00 82.03 L 7.03 166.41 L 39.84 232.03 L 46.88 241.41 L 63.28 241.41 L 91.41 227.34" stroke="black" fill="transparent"/>
</svg>