<?xml version="1.0" encoding="UTF-8" standalone="no"?>
<!--Created with ndjsontosvg (https:https://github.com/thompson318/ndjsontosvg) 
	from the simplified Google quickdraw data set. key_id = 6148370009686016-->
<svg width="600" height="600"
	xmlns="http://www.w3.org/2000/svg">
	xmlns:ndjsontosvg="https://github.com/thompson318/ndjsontosvg"
	xmlns:quickdraw="https://quickdraw.withgoogle.com/data"
	xmlns:scikit-surgery="https://doi.org/10.1007/s11548-020-02180-5">

	<rect width="100%" height="100%" fill="white" />
	<path d = "M 140.62 173.44 L 107.81 182.81 L 58.59 234.38 L 25.78 283.59 L 4.69 335.16 L 0.00 417.19 L 9.38 473.44 L 32.81 520.31 L 65.62 560.16 L 131.25 595.31 L 175.78 597.66 L 201.56 592.97 L 222.66 581.25 L 260.16 548.44 L 283.59 506.25 L 292.97 461.72 L 290.62 365.62 L 274.22 300.00 L 255.47 262.50 L 194.53 201.56 L 96.09 157.03 L 72.66 131.25 L 63.28 107.81 L 65.62 77.34 L 82.03 46.88 L 140.62 9.38 L 171.09 0.00 L 203.91 0.00 L 250.78 23.44 L 269.53 44.53 L 278.91 65.62 L 276.56 93.75 L 250.78 131.25 L 227.34 152.34 L 159.38 178.12 L 140.62 178.12 L 124.22 168.75 L 119.53 157.03" stroke="black" fill="transparent"/>
	<path d = "M 114.84 103.12 L 117.19 128.91 L 124.22 128.91 L 147.66 100.78 L 166.41 135.94 L 185.16 112.50 L 201.56 126.56 L 217.97 98.44" stroke="black" fill="transparent"/>
	<path d = "M 114.84 112.50 L 128.91 91.41 L 154.69 121.88 L 164.06 117.19 L 173.44 93.75 L 192.19 114.84 L 210.94 98.44 L 215.62 107.81" stroke="black" fill="transparent"/>
	<path d = "M 140.62 39.84 L 142.97 51.56 L 152.34 51.56" stroke="black" fill="transparent"/>
	<path d = "M 201.56 35.16 L 210.94 44.53" stroke="black" fill="transparent"/>
	<path d = "M 278.91 311.72 L 278.91 311.72" stroke="black" fill="transparent"/>
	<path d = "M 283.59 297.66 L 382.03 168.75 L 375.00 217.97 L 382.03 225.00 L 442.97 161.72 L 419.53 210.94 L 468.75 175.78 L 471.09 187.50 L 438.28 236.72 L 480.47 217.97 L 450.00 250.78 L 257.81 396.09" stroke="black" fill="transparent"/>
</svg>