<?xml version="1.0" encoding="UTF-8" standalone="no"?>
<!--Created with ndjsontosvg (https:https://github.com/thompson318/ndjsontosvg) 
	from the simplified Google quickdraw data set. key_id = 5808950538665984-->
<svg width="600" height="600"
	xmlns="http://www.w3.org/2000/svg">
	xmlns:ndjsontosvg="https://github.com/thompson318/ndjsontosvg"
	xmlns:quickdraw="https://quickdraw.withgoogle.com/data"
	xmlns:scikit-surgery="https://doi.org/10.1007/s11548-020-02180-5">

	<rect width="100%" height="100%" fill="white" />
	<path d = "M 119.53 0.00 L 75.00 7.03 L 39.84 35.16 L 23.44 58.59 L 2.34 142.97 L 0.00 220.31 L 18.75 262.50 L 53.91 307.03 L 121.88 370.31 L 178.12 403.12 L 236.72 405.47 L 262.50 393.75 L 295.31 358.59 L 328.12 307.03 L 349.22 234.38 L 342.19 145.31 L 307.03 79.69 L 229.69 25.78 L 150.00 7.03 L 100.78 7.03" stroke="black" fill="transparent"/>
	<path d = "M 14.06 225.00 L 117.19 546.09 L 138.28 597.66 L 189.84 475.78 L 271.88 560.16 L 297.66 464.06 L 344.53 501.56 L 365.62 506.25 L 367.97 442.97 L 339.84 328.12 L 339.84 285.94" stroke="black" fill="transparent"/>
	<path d = "M 112.50 79.69 L 112.50 96.09" stroke="black" fill="transparent"/>
</svg>