<?xml version="1.0" encoding="UTF-8" standalone="no"?>
<!--Created with ndjsontosvg (https:https://github.com/thompson318/ndjsontosvg) 
	from the simplified Google quickdraw data set. key_id = 5791686733070336-->
<svg width="600" height="600"
	xmlns="http://www.w3.org/2000/svg">
	xmlns:ndjsontosvg="https://github.com/thompson318/ndjsontosvg"
	xmlns:quickdraw="https://quickdraw.withgoogle.com/data"
	xmlns:scikit-surgery="https://doi.org/10.1007/s11548-020-02180-5">

	<rect width="100%" height="100%" fill="white" />
	<path d = "M 140.62 67.97 L 63.28 77.34 L 25.78 110.16 L 9.38 135.94 L 0.00 178.12 L 0.00 210.94 L 21.09 239.06 L 100.78 232.03 L 152.34 196.88 L 164.06 159.38 L 159.38 75.00" stroke="black" fill="transparent"/>
	<path d = "M 220.31 133.59 L 196.88 154.69 L 150.00 236.72 L 138.28 274.22 L 138.28 323.44 L 161.72 370.31 L 189.84 393.75 L 225.00 403.12 L 278.91 398.44 L 321.09 375.00 L 356.25 321.09 L 363.28 239.06 L 346.88 182.81 L 325.78 152.34 L 276.56 121.88" stroke="black" fill="transparent"/>
	<path d = "M 351.56 140.62 L 337.50 128.91 L 344.53 96.09 L 389.06 23.44 L 424.22 2.34 L 480.47 0.00 L 501.56 9.38 L 522.66 32.81 L 527.34 93.75 L 468.75 180.47 L 452.34 180.47 L 433.59 147.66 L 421.88 84.38" stroke="black" fill="transparent"/>
	<path d = "M 356.25 339.84 L 367.97 344.53 L 386.72 335.16 L 454.69 281.25 L 515.62 213.28 L 513.28 222.66 L 525.00 222.66 L 564.84 147.66 L 574.22 225.00 L 592.97 208.59 L 597.66 222.66 L 588.28 278.91 L 595.31 314.06 L 590.62 358.59 L 555.47 377.34 L 485.16 375.00 L 386.72 431.25 L 356.25 438.28" stroke="black" fill="transparent"/>
	<path d = "M 84.38 358.59 L 84.38 358.59" stroke="black" fill="transparent"/>
</svg>