<?xml version="1.0" encoding="UTF-8" standalone="no"?>
<!--Created with ndjsontosvg (https:https://github.com/thompson318/ndjsontosvg) 
	from the simplified Google quickdraw data set. key_id = 5214160268820480-->
<svg width="600" height="600"
	xmlns="http://www.w3.org/2000/svg">
	xmlns:ndjsontosvg="https://github.com/thompson318/ndjsontosvg"
	xmlns:quickdraw="https://quickdraw.withgoogle.com/data"
	xmlns:scikit-surgery="https://doi.org/10.1007/s11548-020-02180-5">

	<rect width="100%" height="100%" fill="white" />
	<path d = "M 49.22 77.34 L 70.31 196.88 L 63.28 335.16 L 75.00 389.06 L 103.12 450.00 L 126.56 475.78 L 150.00 487.50 L 262.50 487.50 L 297.66 480.47 L 375.00 414.84 L 433.59 292.97 L 442.97 248.44 L 445.31 126.56 L 438.28 93.75 L 421.88 53.91 L 396.09 21.09 L 316.41 0.00 L 274.22 2.34 L 171.09 39.84 L 65.62 60.94 L 21.09 65.62 L 0.00 58.59" stroke="black" fill="transparent"/>
	<path d = "M 58.59 403.12 L 124.22 396.09 L 232.03 360.94 L 192.19 417.19 L 67.97 557.81 L 107.81 440.62 L 131.25 391.41 L 147.66 473.44 L 166.41 405.47 L 131.25 597.66 L 140.62 525.00 L 171.09 431.25 L 208.59 532.03 L 229.69 485.16 L 246.09 389.06 L 269.53 543.75 L 283.59 515.62 L 300.00 440.62 L 328.12 557.81 L 328.12 471.09 L 339.84 396.09 L 365.62 471.09 L 360.94 365.62 L 337.50 492.19 L 300.00 386.72 L 292.97 372.66 L 276.56 370.31 L 147.66 576.56 L 135.94 487.50 L 135.94 433.59 L 138.28 499.22 L 147.66 525.00 L 168.75 435.94 L 173.44 569.53 L 206.25 440.62 L 271.88 527.34 L 339.84 567.19 L 346.88 550.78 L 339.84 525.00 L 304.69 457.03 L 309.38 510.94 L 300.00 447.66" stroke="black" fill="transparent"/>
	<path d = "M 295.31 473.44 L 292.97 553.12 L 283.59 517.97 L 260.16 473.44" stroke="black" fill="transparent"/>
</svg>