<?xml version="1.0" encoding="UTF-8" standalone="no"?>
<!--Created with ndjsontosvg (https:https://github.com/thompson318/ndjsontosvg) 
	from the simplified Google quickdraw data set. key_id = 5074537995567104-->
<svg width="600" height="600"
	xmlns="http://www.w3.org/2000/svg">
	xmlns:ndjsontosvg="https://github.com/thompson318/ndjsontosvg"
	xmlns:quickdraw="https://quickdraw.withgoogle.com/data"
	xmlns:scikit-surgery="https://doi.org/10.1007/s11548-020-02180-5">

	<rect width="100%" height="100%" fill="white" />
	<path d = "M 485.16 234.38 L 447.66 203.91 L 428.91 196.88 L 414.84 203.91 L 398.44 232.03 L 332.81 213.28 L 311.72 234.38 L 260.16 220.31 L 241.41 236.72 L 182.81 227.34 L 166.41 236.72 L 138.28 234.38 L 157.03 309.38 L 157.03 337.50 L 135.94 353.91 L 84.38 367.97 L 77.34 421.88 L 168.75 529.69 L 150.00 536.72 L 103.12 532.03 L 0.00 501.56 L 239.06 539.06 L 206.25 503.91 L 210.94 499.22 L 262.50 506.25 L 389.06 546.09 L 386.72 532.03 L 342.19 480.47 L 351.56 475.78 L 403.12 485.16 L 525.00 525.00 L 506.25 466.41 L 588.28 478.12 L 597.66 468.75 L 574.22 421.88 L 492.19 318.75 L 513.28 314.06 L 560.16 325.78 L 445.31 234.38 L 529.69 285.94 L 468.75 257.81 L 567.19 372.66 L 569.53 384.38 L 555.47 389.06 L 466.41 382.03 L 536.72 475.78 L 546.09 496.88 L 522.66 499.22 L 419.53 464.06 L 426.56 487.50 L 454.69 522.66 L 370.31 452.34 L 410.16 534.38 L 377.34 520.31 L 283.59 450.00 L 281.25 461.72 L 292.97 525.00 L 283.59 548.44" stroke="black" fill="transparent"/>
	<path d = "M 384.38 328.12 L 365.62 353.91 L 339.84 367.97 L 304.69 363.28 L 281.25 342.19" stroke="black" fill="transparent"/>
	<path d = "M 185.16 271.88 L 178.12 428.91 L 145.31 311.72 L 206.25 473.44 L 203.91 405.47 L 278.91 473.44 L 290.62 403.12 L 360.94 496.88 L 386.72 421.88 L 417.19 407.81 L 450.00 426.56 L 517.97 510.94 L 550.78 532.03 L 562.50 520.31 L 569.53 499.22 L 564.84 398.44 L 550.78 318.75 L 553.12 379.69 L 550.78 389.06 L 546.09 386.72 L 494.53 292.97 L 454.69 241.41 L 454.69 292.97 L 527.34 492.19 L 534.38 525.00 L 499.22 508.59 L 375.00 410.16 L 370.31 421.88 L 386.72 487.50 L 370.31 499.22 L 335.16 492.19 L 213.28 440.62" stroke="black" fill="transparent"/>
	<path d = "M 257.81 135.94 L 260.16 182.81 L 271.88 192.19 L 325.78 189.84 L 346.88 185.16 L 353.91 175.78" stroke="black" fill="transparent"/>
	<path d = "M 452.34 199.22 L 464.06 161.72 L 445.31 67.97 L 424.22 21.09 L 398.44 0.00 L 386.72 23.44 L 382.03 79.69 L 403.12 194.53" stroke="black" fill="transparent"/>
	<path d = "M 215.62 217.97 L 215.62 194.53 L 189.84 98.44 L 166.41 67.97 L 140.62 51.56 L 119.53 53.91 L 105.47 72.66 L 103.12 189.84" stroke="black" fill="transparent"/>
	<path d = "M 131.25 234.38 L 131.25 234.38" stroke="black" fill="transparent"/>
</svg>