<?xml version="1.0" encoding="UTF-8" standalone="no"?>
<!--Created with ndjsontosvg (https:https://github.com/thompson318/ndjsontosvg) 
	from the simplified Google quickdraw data set. key_id = 4682285557219328-->
<svg width="600" height="600"
	xmlns="http://www.w3.org/2000/svg">
	xmlns:ndjsontosvg="https://github.com/thompson318/ndjsontosvg"
	xmlns:quickdraw="https://quickdraw.withgoogle.com/data"
	xmlns:scikit-surgery="https://doi.org/10.1007/s11548-020-02180-5">

	<rect width="100%" height="100%" fill="white" />
	<path d = "M 171.09 117.19 L 314.06 124.22 L 220.31 138.28" stroke="black" fill="transparent"/>
	<path d = "M 147.66 110.16 L 128.91 112.50 L 77.34 142.97 L 46.88 182.81 L 4.69 288.28 L 0.00 379.69 L 14.06 457.03 L 63.28 539.06 L 103.12 578.91 L 164.06 597.66 L 426.56 562.50 L 461.72 550.78 L 510.94 527.34 L 576.56 435.94 L 588.28 407.81 L 583.59 351.56 L 564.84 314.06 L 515.62 248.44 L 442.97 185.16 L 330.47 124.22" stroke="black" fill="transparent"/>
	<path d = "M 75.00 145.31 L 53.91 110.16 L 46.88 18.75 L 72.66 0.00 L 112.50 4.69 L 138.28 28.12 L 171.09 117.19" stroke="black" fill="transparent"/>
	<path d = "M 372.66 138.28 L 384.38 110.16 L 414.84 75.00 L 454.69 53.91 L 489.84 75.00 L 496.88 91.41 L 494.53 150.00 L 473.44 168.75" stroke="black" fill="transparent"/>
</svg>