<?xml version="1.0" encoding="UTF-8" standalone="no"?>
<!--Created with ndjsontosvg (https:https://github.com/thompson318/ndjsontosvg) 
	from the simplified Google quickdraw data set. key_id = 6709417913352192-->
<svg width="600" height="600"
	xmlns="http://www.w3.org/2000/svg">
	xmlns:ndjsontosvg="https://github.com/thompson318/ndjsontosvg"
	xmlns:quickdraw="https://quickdraw.withgoogle.com/data"
	xmlns:scikit-surgery="https://doi.org/10.1007/s11548-020-02180-5">

	<rect width="100%" height="100%" fill="white" />
	<path d = "M 206.25 98.44 L 199.22 82.03 L 168.75 79.69 L 112.50 100.78 L 77.34 140.62 L 56.25 206.25 L 53.91 260.16 L 72.66 292.97 L 117.19 311.72 L 180.47 314.06 L 225.00 295.31 L 255.47 271.88 L 269.53 243.75 L 271.88 194.53 L 243.75 133.59 L 208.59 91.41 L 178.12 84.38 L 154.69 105.47" stroke="black" fill="transparent"/>
	<path d = "M 112.50 178.12 L 112.50 182.81 L 98.44 180.47 L 103.12 187.50" stroke="black" fill="transparent"/>
	<path d = "M 203.91 168.75 L 192.19 175.78 L 206.25 185.16 L 208.59 175.78 L 192.19 171.09" stroke="black" fill="transparent"/>
	<path d = "M 213.28 79.69 L 271.88 77.34 L 278.91 70.31 L 285.94 44.53 L 311.72 4.69 L 285.94 0.00 L 262.50 9.38 L 227.34 35.16 L 206.25 77.34 L 192.19 89.06" stroke="black" fill="transparent"/>
	<path d = "M 91.41 105.47 L 91.41 75.00 L 82.03 58.59 L 39.84 44.53 L 2.34 49.22 L 4.69 98.44 L 51.56 157.03" stroke="black" fill="transparent"/>
	<path d = "M 79.69 304.69 L 72.66 335.16 L 72.66 492.19 L 86.72 525.00 L 121.88 562.50 L 178.12 590.62 L 213.28 595.31 L 300.00 597.66 L 342.19 571.88 L 356.25 539.06 L 360.94 452.34 L 351.56 384.38 L 325.78 314.06 L 300.00 281.25 L 271.88 269.53 L 241.41 267.19 L 206.25 292.97" stroke="black" fill="transparent"/>
</svg>