<?xml version="1.0" encoding="UTF-8" standalone="no"?>
<!--Created with ndjsontosvg (https:https://github.com/thompson318/ndjsontosvg) 
	from the simplified Google quickdraw data set. key_id = 5484276680228864-->
<svg width="600" height="600"
	xmlns="http://www.w3.org/2000/svg">
	xmlns:ndjsontosvg="https://github.com/thompson318/ndjsontosvg"
	xmlns:quickdraw="https://quickdraw.withgoogle.com/data"
	xmlns:scikit-surgery="https://doi.org/10.1007/s11548-020-02180-5">

	<rect width="100%" height="100%" fill="white" />
	<path d = "M 37.50 332.81 L 49.22 370.31" stroke="black" fill="transparent"/>
	<path d = "M 51.56 412.50 L 60.94 445.31" stroke="black" fill="transparent"/>
	<path d = "M 110.16 489.84 L 150.00 529.69 L 208.59 571.88" stroke="black" fill="transparent"/>
	<path d = "M 220.31 592.97 L 267.19 597.66 L 302.34 588.28" stroke="black" fill="transparent"/>
	<path d = "M 297.66 588.28 L 398.44 450.00" stroke="black" fill="transparent"/>
	<path d = "M 365.62 466.41 L 440.62 346.88" stroke="black" fill="transparent"/>
	<path d = "M 468.75 314.06 L 447.66 337.50" stroke="black" fill="transparent"/>
	<path d = "M 468.75 337.50 L 389.06 407.81" stroke="black" fill="transparent"/>
	<path d = "M 454.69 337.50 L 407.81 375.00" stroke="black" fill="transparent"/>
	<path d = "M 435.94 330.47 L 410.16 330.47 L 337.50 356.25" stroke="black" fill="transparent"/>
	<path d = "M 382.03 363.28 L 271.88 414.84 L 225.00 414.84" stroke="black" fill="transparent"/>
	<path d = "M 262.50 360.94 L 185.16 372.66 L 128.91 370.31" stroke="black" fill="transparent"/>
	<path d = "M 42.19 330.47 L 119.53 379.69 L 178.12 398.44 L 267.19 396.09 L 351.56 372.66" stroke="black" fill="transparent"/>
	<path d = "M 210.94 405.47 L 290.62 351.56" stroke="black" fill="transparent"/>
	<path d = "M 114.84 396.09 L 82.03 428.91" stroke="black" fill="transparent"/>
	<path d = "M 133.59 419.53 L 107.81 452.34 L 147.66 428.91 L 126.56 478.12" stroke="black" fill="transparent"/>
	<path d = "M 187.50 424.22 L 164.06 473.44" stroke="black" fill="transparent"/>
	<path d = "M 217.97 433.59 L 182.81 513.28 L 239.06 457.03" stroke="black" fill="transparent"/>
	<path d = "M 239.06 480.47 L 196.88 543.75 L 182.81 583.59" stroke="black" fill="transparent"/>
	<path d = "M 307.03 452.34 L 271.88 506.25" stroke="black" fill="transparent"/>
	<path d = "M 353.91 426.56 L 292.97 543.75" stroke="black" fill="transparent"/>
	<path d = "M 372.66 459.38 L 342.19 529.69" stroke="black" fill="transparent"/>
	<path d = "M 414.84 452.34 L 400.78 485.16" stroke="black" fill="transparent"/>
	<path d = "M 60.94 339.84 L 28.12 318.75 L 11.72 290.62 L 0.00 208.59 L 23.44 117.19 L 65.62 44.53 L 96.09 16.41 L 133.59 2.34 L 335.16 2.34 L 398.44 9.38 L 433.59 23.44 L 461.72 44.53 L 485.16 89.06 L 499.22 157.03 L 496.88 232.03 L 485.16 283.59 L 459.38 356.25" stroke="black" fill="transparent"/>
</svg>