<?xml version="1.0" encoding="UTF-8" standalone="no"?>
<!--Created with ndjsontosvg (https:https://github.com/thompson318/ndjsontosvg) 
	from the simplified Google quickdraw data set. key_id = 4993567640518656-->
<svg width="600" height="600"
	xmlns="http://www.w3.org/2000/svg">
	xmlns:ndjsontosvg="https://github.com/thompson318/ndjsontosvg"
	xmlns:quickdraw="https://quickdraw.withgoogle.com/data"
	xmlns:scikit-surgery="https://doi.org/10.1007/s11548-020-02180-5">

	<rect width="100%" height="100%" fill="white" />
	<path d = "M 213.28 473.44 L 187.50 471.09 L 164.06 457.03 L 100.78 335.16 L 75.00 262.50 L 70.31 180.47 L 23.44 173.44 L 4.69 138.28 L 0.00 70.31 L 9.38 32.81 L 32.81 11.72 L 75.00 0.00 L 157.03 56.25 L 206.25 121.88 L 335.16 117.19 L 382.03 159.38 L 393.75 152.34 L 433.59 75.00 L 501.56 25.78 L 536.72 9.38 L 557.81 9.38 L 583.59 32.81 L 597.66 86.72 L 560.16 164.06 L 499.22 173.44 L 471.09 213.28 L 461.72 335.16 L 442.97 414.84 L 386.72 471.09 L 353.91 473.44" stroke="black" fill="transparent"/>
	<path d = "M 349.22 471.09 L 346.88 468.75" stroke="black" fill="transparent"/>
	<path d = "M 194.53 290.62 L 215.62 283.59 L 225.00 297.66 L 255.47 269.53" stroke="black" fill="transparent"/>
	<path d = "M 337.50 290.62 L 339.84 297.66 L 346.88 281.25 L 342.19 278.91" stroke="black" fill="transparent"/>
	<path d = "M 257.81 358.59 L 262.50 370.31 L 271.88 375.00 L 318.75 375.00 L 396.09 344.53 L 424.22 307.03" stroke="black" fill="transparent"/>
</svg>