<?xml version="1.0" encoding="UTF-8" standalone="no"?>
<!--Created with ndjsontosvg (https:https://github.com/thompson318/ndjsontosvg) 
	from the simplified Google quickdraw data set. key_id = 4960186504577024-->
<svg width="600" height="600"
	xmlns="http://www.w3.org/2000/svg">
	xmlns:ndjsontosvg="https://github.com/thompson318/ndjsontosvg"
	xmlns:quickdraw="https://quickdraw.withgoogle.com/data"
	xmlns:scikit-surgery="https://doi.org/10.1007/s11548-020-02180-5">

	<rect width="100%" height="100%" fill="white" />
	<path d = "M 213.28 0.00 L 150.00 11.72 L 84.38 37.50 L 56.25 60.94 L 28.12 93.75 L 0.00 150.00 L 4.69 246.09 L 60.94 302.34 L 171.09 389.06 L 250.78 435.94 L 307.03 440.62 L 367.97 407.81 L 440.62 316.41 L 464.06 257.81 L 457.03 227.34 L 391.41 145.31 L 375.00 91.41 L 346.88 63.28 L 283.59 21.09 L 225.00 11.72 L 189.84 16.41" stroke="black" fill="transparent"/>
	<path d = "M 178.12 311.72 L 145.31 384.38 L 133.59 480.47 L 178.12 419.53 L 206.25 351.56 L 157.03 468.75 L 194.53 440.62 L 262.50 351.56 L 267.19 386.72 L 246.09 485.16 L 274.22 468.75 L 307.03 412.50 L 290.62 529.69 L 372.66 447.66 L 379.69 419.53 L 367.97 485.16 L 363.28 457.03 L 323.44 375.00 L 290.62 375.00 L 262.50 435.94 L 257.81 496.88 L 250.78 407.81 L 217.97 403.12 L 206.25 431.25 L 194.53 529.69 L 201.56 475.78 L 217.97 508.59 L 217.97 543.75 L 234.38 569.53 L 262.50 546.09 L 302.34 419.53 L 318.75 384.38 L 302.34 517.97 L 328.12 520.31 L 346.88 492.19 L 318.75 553.12 L 307.03 525.00 L 278.91 508.59 L 229.69 569.53 L 217.97 597.66 L 239.06 560.16 L 239.06 585.94 L 234.38 525.00 L 206.25 508.59 L 178.12 508.59" stroke="black" fill="transparent"/>
</svg>