<?xml version="1.0" encoding="UTF-8" standalone="no"?>
<!--Created with ndjsontosvg (https:https://github.com/thompson318/ndjsontosvg) 
	from the simplified Google quickdraw data set. key_id = 6719122912051200-->
<svg width="600" height="600"
	xmlns="http://www.w3.org/2000/svg">
	xmlns:ndjsontosvg="https://github.com/thompson318/ndjsontosvg"
	xmlns:quickdraw="https://quickdraw.withgoogle.com/data"
	xmlns:scikit-surgery="https://doi.org/10.1007/s11548-020-02180-5">

	<rect width="100%" height="100%" fill="white" />
	<path d = "M 39.84 16.41 L 288.28 0.00 L 311.72 7.03 L 346.88 194.53 L 344.53 311.72 L 351.56 403.12 L 375.00 496.88 L 309.38 506.25 L 157.03 508.59 L 63.28 492.19 L 44.53 375.00 L 35.16 220.31 L 21.09 138.28 L 30.47 72.66 L 23.44 4.69" stroke="black" fill="transparent"/>
	<path d = "M 72.66 63.28 L 65.62 75.00 L 65.62 107.81 L 70.31 126.56 L 89.06 140.62 L 262.50 145.31 L 278.91 138.28 L 283.59 98.44 L 276.56 65.62 L 262.50 53.91 L 173.44 65.62 L 107.81 60.94 L 39.84 67.97" stroke="black" fill="transparent"/>
	<path d = "M 370.31 489.84 L 384.38 532.03 L 386.72 560.16" stroke="black" fill="transparent"/>
	<path d = "M 70.31 473.44 L 75.00 510.94 L 98.44 557.81" stroke="black" fill="transparent"/>
	<path d = "M 321.09 2.34 L 398.44 117.19" stroke="black" fill="transparent"/>
	<path d = "M 597.66 536.72 L 597.66 536.72" stroke="black" fill="transparent"/>
	<path d = "M 14.06 7.03 L 0.00 93.75 L 2.34 140.62 L 9.38 154.69" stroke="black" fill="transparent"/>
</svg>