<?xml version="1.0" encoding="UTF-8" standalone="no"?>
<!--Created with ndjsontosvg (https:https://github.com/thompson318/ndjsontosvg) 
	from the simplified Google quickdraw data set. key_id = 5864312012800000-->
<svg width="600" height="600"
	xmlns="http://www.w3.org/2000/svg">
	xmlns:ndjsontosvg="https://github.com/thompson318/ndjsontosvg"
	xmlns:quickdraw="https://quickdraw.withgoogle.com/data"
	xmlns:scikit-surgery="https://doi.org/10.1007/s11548-020-02180-5">

	<rect width="100%" height="100%" fill="white" />
	<path d = "M 442.97 185.16 L 431.25 157.03 L 417.19 145.31 L 363.28 128.91 L 316.41 128.91 L 220.31 164.06 L 147.66 229.69 L 126.56 267.19 L 117.19 335.16 L 131.25 363.28 L 161.72 386.72 L 253.12 412.50 L 377.34 412.50 L 489.84 386.72 L 534.38 358.59 L 567.19 325.78 L 590.62 283.59 L 597.66 239.06 L 595.31 203.91 L 571.88 173.44 L 536.72 150.00 L 494.53 135.94 L 419.53 128.91 L 377.34 138.28" stroke="black" fill="transparent"/>
	<path d = "M 210.94 182.81 L 196.88 262.50 L 199.22 351.56 L 208.59 367.97 L 222.66 372.66 L 236.72 375.00 L 243.75 367.97 L 253.12 307.03 L 255.47 168.75 L 243.75 178.12 L 227.34 232.03 L 217.97 328.12 L 239.06 360.94 L 250.78 360.94 L 257.81 349.22 L 267.19 241.41 L 257.81 175.78 L 250.78 175.78 L 239.06 203.91 L 229.69 318.75 L 236.72 360.94 L 253.12 386.72 L 269.53 396.09" stroke="black" fill="transparent"/>
	<path d = "M 349.22 159.38 L 337.50 222.66 L 335.16 346.88 L 344.53 370.31 L 360.94 386.72 L 372.66 382.03 L 379.69 358.59 L 379.69 157.03 L 370.31 171.09 L 358.59 239.06 L 353.91 318.75 L 358.59 346.88 L 370.31 365.62 L 393.75 370.31 L 398.44 351.56 L 400.78 215.62 L 398.44 180.47 L 384.38 150.00 L 375.00 154.69 L 349.22 257.81 L 344.53 344.53 L 356.25 377.34 L 372.66 396.09 L 398.44 403.12" stroke="black" fill="transparent"/>
	<path d = "M 487.50 142.97 L 471.09 239.06 L 468.75 314.06 L 485.16 358.59 L 492.19 363.28 L 501.56 337.50 L 501.56 157.03 L 492.19 152.34 L 482.81 187.50 L 478.12 290.62 L 494.53 353.91 L 515.62 382.03" stroke="black" fill="transparent"/>
	<path d = "M 548.44 281.25 L 553.12 302.34 L 592.97 300.00" stroke="black" fill="transparent"/>
	<path d = "M 569.53 225.00 L 569.53 225.00" stroke="black" fill="transparent"/>
	<path d = "M 543.75 220.31 L 543.75 220.31" stroke="black" fill="transparent"/>
	<path d = "M 536.72 227.34 L 532.03 243.75" stroke="black" fill="transparent"/>
	<path d = "M 571.88 248.44 L 576.56 253.12" stroke="black" fill="transparent"/>
	<path d = "M 262.50 128.91 L 210.94 89.06 L 201.56 70.31 L 201.56 35.16 L 222.66 35.16 L 239.06 49.22 L 295.31 114.84 L 309.38 75.00 L 339.84 28.12 L 389.06 2.34 L 426.56 2.34 L 435.94 14.06 L 435.94 35.16 L 424.22 60.94 L 384.38 112.50" stroke="black" fill="transparent"/>
	<path d = "M 133.59 248.44 L 82.03 246.09 L 0.00 260.16 L 18.75 276.56 L 82.03 300.00" stroke="black" fill="transparent"/>
</svg>