<?xml version="1.0" encoding="UTF-8" standalone="no"?>
<!--Created with ndjsontosvg (https:https://github.com/thompson318/ndjsontosvg) 
	from the simplified Google quickdraw data set. key_id = 5319587220422656-->
<svg width="600" height="600"
	xmlns="http://www.w3.org/2000/svg">
	xmlns:ndjsontosvg="https://github.com/thompson318/ndjsontosvg"
	xmlns:quickdraw="https://quickdraw.withgoogle.com/data"
	xmlns:scikit-surgery="https://doi.org/10.1007/s11548-020-02180-5">

	<rect width="100%" height="100%" fill="white" />
	<path d = "M 77.34 344.53 L 0.00 353.91 L 2.34 360.94 L 147.66 459.38 L 225.00 522.66 L 276.56 539.06 L 330.47 536.72 L 367.97 527.34 L 384.38 513.28 L 407.81 426.56 L 410.16 349.22 L 372.66 321.09 L 330.47 302.34 L 302.34 295.31 L 185.16 300.00 L 107.81 330.47 L 53.91 370.31" stroke="black" fill="transparent"/>
	<path d = "M 419.53 330.47 L 414.84 527.34 L 428.91 534.38 L 459.38 536.72 L 503.91 494.53 L 510.94 417.19 L 492.19 377.34 L 438.28 311.72 L 414.84 302.34 L 382.03 335.16" stroke="black" fill="transparent"/>
	<path d = "M 435.94 367.97 L 435.94 367.97" stroke="black" fill="transparent"/>
	<path d = "M 433.59 372.66 L 480.47 391.41 L 457.03 393.75 L 457.03 403.12 L 473.44 407.81" stroke="black" fill="transparent"/>
	<path d = "M 304.69 292.97 L 316.41 597.66" stroke="black" fill="transparent"/>
	<path d = "M 201.56 292.97 L 196.88 536.72" stroke="black" fill="transparent"/>
	<path d = "M 128.91 323.44 L 126.56 421.88" stroke="black" fill="transparent"/>
	<path d = "M 178.12 335.16 L 150.00 304.69 L 110.16 229.69 L 100.78 185.16 L 96.09 42.19 L 100.78 7.03 L 112.50 0.00 L 140.62 7.03 L 168.75 25.78 L 215.62 77.34 L 239.06 138.28 L 248.44 185.16 L 246.09 304.69 L 274.22 196.88 L 302.34 140.62 L 351.56 103.12 L 386.72 98.44 L 410.16 166.41 L 407.81 220.31 L 382.03 269.53 L 307.03 353.91" stroke="black" fill="transparent"/>
</svg>