<?xml version="1.0" encoding="UTF-8" standalone="no"?>
<!--Created with ndjsontosvg (https:https://github.com/thompson318/ndjsontosvg) 
	from the simplified Google quickdraw data set. key_id = 4983790604648448-->
<svg width="600" height="600"
	xmlns="http://www.w3.org/2000/svg">
	xmlns:ndjsontosvg="https://github.com/thompson318/ndjsontosvg"
	xmlns:quickdraw="https://quickdraw.withgoogle.com/data"
	xmlns:scikit-surgery="https://doi.org/10.1007/s11548-020-02180-5">

	<rect width="100%" height="100%" fill="white" />
	<path d = "M 295.31 194.53 L 166.41 194.53 L 98.44 213.28 L 51.56 253.12 L 28.12 285.94 L 0.00 349.22 L 2.34 379.69 L 84.38 457.03 L 105.47 466.41 L 189.84 541.41 L 227.34 564.84 L 288.28 564.84 L 358.59 532.03 L 442.97 452.34 L 464.06 396.09 L 461.72 264.84 L 433.59 206.25 L 309.38 201.56 L 283.59 194.53" stroke="black" fill="transparent"/>
	<path d = "M 450.00 407.81 L 588.28 424.22 L 546.09 442.97 L 499.22 442.97 L 400.78 435.94 L 457.03 421.88" stroke="black" fill="transparent"/>
	<path d = "M 457.03 421.88 L 576.56 424.22" stroke="black" fill="transparent"/>
	<path d = "M 107.81 232.03 L 107.81 461.72" stroke="black" fill="transparent"/>
	<path d = "M 208.59 215.62 L 208.59 520.31" stroke="black" fill="transparent"/>
	<path d = "M 260.16 246.09 L 285.94 410.16 L 297.66 597.66" stroke="black" fill="transparent"/>
	<path d = "M 346.88 239.06 L 398.44 482.81 L 398.44 574.22" stroke="black" fill="transparent"/>
	<path d = "M 180.47 178.12 L 128.91 135.94 L 112.50 96.09 L 117.19 32.81 L 154.69 4.69 L 171.09 0.00 L 206.25 11.72 L 271.88 77.34 L 285.94 107.81 L 285.94 159.38 L 281.25 164.06" stroke="black" fill="transparent"/>
</svg>