<?xml version="1.0" encoding="UTF-8" standalone="no"?>
<!--Created with ndjsontosvg (https:https://github.com/thompson318/ndjsontosvg) 
	from the simplified Google quickdraw data set. key_id = 6751401034121216-->
<svg width="600" height="600"
	xmlns="http://www.w3.org/2000/svg">
	xmlns:ndjsontosvg="https://github.com/thompson318/ndjsontosvg"
	xmlns:quickdraw="https://quickdraw.withgoogle.com/data"
	xmlns:scikit-surgery="https://doi.org/10.1007/s11548-020-02180-5">

	<rect width="100%" height="100%" fill="white" />
	<path d = "M 180.47 82.03 L 114.84 60.94 L 44.53 65.62 L 16.41 79.69 L 0.00 119.53 L 0.00 182.81 L 9.38 199.22 L 44.53 217.97 L 72.66 227.34 L 117.19 227.34 L 168.75 215.62 L 180.47 203.91" stroke="black" fill="transparent"/>
	<path d = "M 232.03 98.44 L 243.75 86.72 L 285.94 65.62 L 384.38 37.50 L 492.19 35.16 L 534.38 75.00 L 595.31 175.78 L 597.66 187.50 L 581.25 199.22 L 468.75 217.97 L 386.72 217.97 L 339.84 185.16 L 300.00 133.59" stroke="black" fill="transparent"/>
	<path d = "M 222.66 60.94 L 199.22 67.97 L 166.41 91.41 L 135.94 138.28 L 133.59 168.75 L 133.59 236.72 L 152.34 311.72 L 203.91 405.47 L 222.66 428.91 L 271.88 457.03 L 356.25 452.34 L 400.78 426.56 L 417.19 398.44 L 417.19 316.41 L 379.69 201.56 L 311.72 53.91 L 264.84 0.00 L 215.62 2.34" stroke="black" fill="transparent"/>
	<path d = "M 168.75 117.19 L 215.62 96.09 L 292.97 86.72 L 285.94 98.44 L 185.16 142.97 L 349.22 124.22 L 110.16 126.56" stroke="black" fill="transparent"/>
	<path d = "M 128.91 253.12 L 241.41 225.00 L 351.56 208.59 L 342.19 215.62" stroke="black" fill="transparent"/>
	<path d = "M 222.66 300.00 L 417.19 285.94" stroke="black" fill="transparent"/>
</svg>