<?xml version="1.0" encoding="UTF-8" standalone="no"?>
<!--Created with ndjsontosvg (https:https://github.com/thompson318/ndjsontosvg) 
	from the simplified Google quickdraw data set. key_id = 5016309408464896-->
<svg width="600" height="600"
	xmlns="http://www.w3.org/2000/svg">
	xmlns:ndjsontosvg="https://github.com/thompson318/ndjsontosvg"
	xmlns:quickdraw="https://quickdraw.withgoogle.com/data"
	xmlns:scikit-surgery="https://doi.org/10.1007/s11548-020-02180-5">

	<rect width="100%" height="100%" fill="white" />
	<path d = "M 316.41 126.56 L 288.28 114.84 L 243.75 112.50 L 185.16 140.62 L 154.69 187.50 L 150.00 232.03 L 152.34 278.91 L 189.84 330.47 L 243.75 365.62 L 330.47 370.31 L 391.41 339.84 L 417.19 281.25 L 417.19 213.28 L 400.78 166.41 L 351.56 121.88 L 332.81 114.84" stroke="black" fill="transparent"/>
	<path d = "M 161.72 150.00 L 103.12 117.19 L 82.03 112.50 L 37.50 114.84 L 7.03 133.59 L 0.00 150.00 L 0.00 185.16 L 9.38 248.44 L 21.09 264.84 L 44.53 283.59 L 150.00 288.28 L 166.41 267.19 L 173.44 232.03 L 173.44 166.41" stroke="black" fill="transparent"/>
	<path d = "M 278.91 105.47 L 297.66 79.69 L 375.00 18.75 L 417.19 2.34 L 457.03 2.34 L 454.69 25.78 L 419.53 79.69 L 375.00 126.56 L 473.44 51.56 L 522.66 49.22 L 543.75 56.25 L 546.09 105.47 L 536.72 117.19 L 382.03 173.44" stroke="black" fill="transparent"/>
	<path d = "M 431.25 262.50 L 421.88 264.84 L 435.94 271.88 L 534.38 278.91 L 597.66 290.62 L 428.91 262.50" stroke="black" fill="transparent"/>
	<path d = "M 274.22 133.59 L 255.47 210.94 L 213.28 316.41" stroke="black" fill="transparent"/>
	<path d = "M 351.56 178.12 L 349.22 215.62 L 304.69 346.88" stroke="black" fill="transparent"/>
	<path d = "M 46.88 173.44 L 46.88 173.44" stroke="black" fill="transparent"/>
	<path d = "M 49.22 178.12 L 49.22 178.12" stroke="black" fill="transparent"/>
</svg>