<?xml version="1.0" encoding="UTF-8" standalone="no"?>
<!--Created with ndjsontosvg (https:https://github.com/thompson318/ndjsontosvg) 
	from the simplified Google quickdraw data set. key_id = 4693297165500416-->
<svg width="600" height="600"
	xmlns="http://www.w3.org/2000/svg">
	xmlns:ndjsontosvg="https://github.com/thompson318/ndjsontosvg"
	xmlns:quickdraw="https://quickdraw.withgoogle.com/data"
	xmlns:scikit-surgery="https://doi.org/10.1007/s11548-020-02180-5">

	<rect width="100%" height="100%" fill="white" />
	<path d = "M 145.31 288.28 L 335.16 318.75 L 452.34 321.09 L 452.34 253.12 L 417.19 152.34 L 379.69 152.34 L 325.78 164.06 L 243.75 164.06 L 157.03 145.31 L 145.31 175.78 L 145.31 295.31" stroke="black" fill="transparent"/>
	<path d = "M 232.03 147.66 L 241.41 210.94 L 274.22 307.03 L 297.66 285.94 L 339.84 173.44 L 232.03 159.38" stroke="black" fill="transparent"/>
	<path d = "M 185.16 159.38 L 182.81 199.22 L 215.62 234.38 L 210.94 250.78" stroke="black" fill="transparent"/>
	<path d = "M 386.72 168.75 L 384.38 196.88 L 412.50 255.47 L 412.50 302.34" stroke="black" fill="transparent"/>
	<path d = "M 419.53 171.09 L 595.31 182.81 L 595.31 229.69 L 574.22 316.41 L 510.94 337.50 L 468.75 339.84" stroke="black" fill="transparent"/>
	<path d = "M 164.06 159.38 L 121.88 152.34 L 28.12 150.00 L 14.06 154.69 L 9.38 171.09 L 9.38 246.09 L 16.41 274.22 L 56.25 288.28 L 145.31 297.66" stroke="black" fill="transparent"/>
	<path d = "M 0.00 140.62 L 30.47 89.06 L 100.78 35.16 L 185.16 4.69 L 278.91 0.00 L 478.12 44.53 L 541.41 110.16 L 574.22 185.16" stroke="black" fill="transparent"/>
	<path d = "M 496.88 152.34 L 412.50 32.81 L 377.34 16.41 L 337.50 11.72 L 278.91 14.06 L 194.53 37.50 L 35.16 119.53" stroke="black" fill="transparent"/>
</svg>