<?xml version="1.0" encoding="UTF-8" standalone="no"?>
<!--Created with ndjsontosvg (https:https://github.com/thompson318/ndjsontosvg) 
	from the simplified Google quickdraw data set. key_id = 6302310428835840-->
<svg width="600" height="600"
	xmlns="http://www.w3.org/2000/svg">
	xmlns:ndjsontosvg="https://github.com/thompson318/ndjsontosvg"
	xmlns:quickdraw="https://quickdraw.withgoogle.com/data"
	xmlns:scikit-surgery="https://doi.org/10.1007/s11548-020-02180-5">

	<rect width="100%" height="100%" fill="white" />
	<path d = "M 51.56 124.22 L 93.75 142.97 L 164.06 154.69 L 398.44 164.06 L 464.06 150.00 L 503.91 119.53 L 508.59 84.38 L 496.88 70.31 L 473.44 58.59 L 344.53 39.84 L 229.69 35.16 L 117.19 49.22 L 58.59 84.38 L 53.91 105.47 L 67.97 117.19" stroke="black" fill="transparent"/>
	<path d = "M 23.44 142.97 L 0.00 117.19 L 9.38 72.66 L 35.16 42.19 L 98.44 7.03 L 550.78 0.00 L 583.59 11.72 L 597.66 44.53 L 597.66 75.00 L 588.28 103.12 L 560.16 142.97 L 461.72 192.19 L 377.34 213.28 L 243.75 213.28 L 164.06 201.56 L 37.50 152.34 L 7.03 128.91 L 2.34 110.16" stroke="black" fill="transparent"/>
	<path d = "M 187.50 142.97 L 189.84 100.78 L 199.22 91.41 L 210.94 91.41 L 210.94 117.19 L 225.00 67.97 L 239.06 51.56 L 246.09 63.28 L 248.44 119.53 L 269.53 103.12 L 260.16 138.28" stroke="black" fill="transparent"/>
	<path d = "M 236.72 79.69 L 250.78 72.66" stroke="black" fill="transparent"/>
	<path d = "M 241.41 49.22 L 234.38 63.28 L 232.03 84.38" stroke="black" fill="transparent"/>
	<path d = "M 227.34 157.03 L 213.28 180.47 L 217.97 210.94 L 307.03 215.62 L 332.81 203.91 L 344.53 187.50 L 335.16 166.41 L 300.00 152.34 L 243.75 150.00 L 229.69 154.69" stroke="black" fill="transparent"/>
	<path d = "M 290.62 159.38 L 292.97 189.84 L 302.34 161.72" stroke="black" fill="transparent"/>
</svg>