<?xml version="1.0" encoding="UTF-8" standalone="no"?>
<!--Created with ndjsontosvg (https:https://github.com/thompson318/ndjsontosvg) 
	from the simplified Google quickdraw data set. key_id = 6098347234426880-->
<svg width="600" height="600"
	xmlns="http://www.w3.org/2000/svg">
	xmlns:ndjsontosvg="https://github.com/thompson318/ndjsontosvg"
	xmlns:quickdraw="https://quickdraw.withgoogle.com/data"
	xmlns:scikit-surgery="https://doi.org/10.1007/s11548-020-02180-5">

	<rect width="100%" height="100%" fill="white" />
	<path d = "M 65.62 271.88 L 145.31 248.44 L 239.06 239.06 L 304.69 246.09 L 457.03 283.59 L 597.66 304.69" stroke="black" fill="transparent"/>
	<path d = "M 60.94 269.53 L 119.53 152.34" stroke="black" fill="transparent"/>
	<path d = "M 588.28 300.00 L 534.38 241.41" stroke="black" fill="transparent"/>
	<path d = "M 534.38 241.41 L 536.72 192.19" stroke="black" fill="transparent"/>
	<path d = "M 124.22 159.38 L 124.22 112.50" stroke="black" fill="transparent"/>
	<path d = "M 121.88 152.34 L 215.62 154.69 L 358.59 208.59 L 513.28 234.38" stroke="black" fill="transparent"/>
	<path d = "M 232.03 121.88 L 7.03 128.91 L 0.00 117.19 L 2.34 44.53 L 21.09 0.00 L 131.25 14.06 L 255.47 16.41 L 358.59 44.53 L 590.62 49.22 L 592.97 65.62 L 571.88 140.62 L 564.84 152.34 L 527.34 164.06 L 499.22 166.41 L 410.16 135.94 L 206.25 107.81" stroke="black" fill="transparent"/>
</svg>