<?xml version="1.0" encoding="UTF-8" standalone="no"?>
<!--Created with ndjsontosvg (https:https://github.com/thompson318/ndjsontosvg) 
	from the simplified Google quickdraw data set. key_id = 4708124382461952-->
<svg width="600" height="600"
	xmlns="http://www.w3.org/2000/svg">
	xmlns:ndjsontosvg="https://github.com/thompson318/ndjsontosvg"
	xmlns:quickdraw="https://quickdraw.withgoogle.com/data"
	xmlns:scikit-surgery="https://doi.org/10.1007/s11548-020-02180-5">

	<rect width="100%" height="100%" fill="white" />
	<path d = "M 37.50 93.75 L 2.34 152.34 L 0.00 175.78 L 2.34 194.53 L 30.47 220.31 L 82.03 229.69 L 112.50 217.97 L 161.72 182.81 L 192.19 138.28 L 201.56 114.84 L 194.53 84.38 L 161.72 60.94 L 98.44 49.22 L 39.84 65.62 L 23.44 82.03 L 9.38 98.44 L 4.69 150.00" stroke="black" fill="transparent"/>
	<path d = "M 189.84 128.91 L 358.59 133.59 L 426.56 128.91 L 410.16 133.59 L 391.41 164.06 L 382.03 185.16 L 384.38 217.97 L 391.41 236.72 L 405.47 248.44 L 457.03 267.19 L 489.84 264.84 L 553.12 239.06 L 592.97 201.56 L 597.66 189.84 L 590.62 166.41 L 543.75 126.56 L 499.22 114.84 L 433.59 126.56 L 407.81 157.03" stroke="black" fill="transparent"/>
	<path d = "M 464.06 128.91 L 510.94 206.25 L 543.75 246.09 L 562.50 257.81" stroke="black" fill="transparent"/>
	<path d = "M 424.22 239.06 L 560.16 145.31" stroke="black" fill="transparent"/>
	<path d = "M 405.47 182.81 L 571.88 187.50" stroke="black" fill="transparent"/>
	<path d = "M 16.41 70.31 L 103.12 161.72 L 145.31 192.19 L 168.75 201.56" stroke="black" fill="transparent"/>
	<path d = "M 30.47 180.47 L 79.69 152.34 L 187.50 67.97" stroke="black" fill="transparent"/>
	<path d = "M 2.34 142.97 L 103.12 145.31 L 185.16 133.59" stroke="black" fill="transparent"/>
	<path d = "M 300.00 135.94 L 300.00 49.22" stroke="black" fill="transparent"/>
	<path d = "M 370.31 4.69 L 297.66 0.00 L 264.84 11.72 L 262.50 21.09 L 281.25 30.47 L 337.50 39.84 L 358.59 35.16 L 365.62 25.78 L 337.50 14.06 L 307.03 11.72" stroke="black" fill="transparent"/>
</svg>