<?xml version="1.0" encoding="UTF-8" standalone="no"?>
<!--Created with ndjsontosvg (https:https://github.com/thompson318/ndjsontosvg) 
	from the simplified Google quickdraw data set. key_id = 4763406672330752-->
<svg width="600" height="600"
	xmlns="http://www.w3.org/2000/svg">
	xmlns:ndjsontosvg="https://github.com/thompson318/ndjsontosvg"
	xmlns:quickdraw="https://quickdraw.withgoogle.com/data"
	xmlns:scikit-surgery="https://doi.org/10.1007/s11548-020-02180-5">

	<rect width="100%" height="100%" fill="white" />
	<path d = "M 98.44 220.31 L 56.25 241.41 L 32.81 271.88 L 9.38 323.44 L 9.38 344.53 L 42.19 384.38 L 72.66 400.78 L 121.88 405.47 L 166.41 396.09 L 194.53 375.00 L 210.94 349.22 L 208.59 274.22 L 175.78 234.38 L 135.94 217.97 L 107.81 217.97" stroke="black" fill="transparent"/>
	<path d = "M 513.28 274.22 L 459.38 262.50 L 435.94 274.22 L 414.84 318.75 L 410.16 379.69 L 421.88 403.12 L 447.66 424.22 L 489.84 428.91 L 534.38 419.53 L 585.94 367.97 L 597.66 318.75 L 585.94 257.81 L 520.31 248.44 L 480.47 260.16 L 424.22 318.75" stroke="black" fill="transparent"/>
	<path d = "M 112.50 311.72 L 112.50 311.72" stroke="black" fill="transparent"/>
	<path d = "M 93.75 236.72 L 110.16 290.62" stroke="black" fill="transparent"/>
	<path d = "M 154.69 234.38 L 128.91 353.91" stroke="black" fill="transparent"/>
	<path d = "M 199.22 278.91 L 164.06 307.03 L 147.66 339.84" stroke="black" fill="transparent"/>
	<path d = "M 49.22 281.25 L 63.28 318.75 L 82.03 339.84" stroke="black" fill="transparent"/>
	<path d = "M 0.00 349.22 L 65.62 346.88 L 110.16 325.78" stroke="black" fill="transparent"/>
	<path d = "M 67.97 410.16 L 117.19 335.16" stroke="black" fill="transparent"/>
	<path d = "M 124.22 400.78 L 157.03 363.28 L 157.03 344.53" stroke="black" fill="transparent"/>
	<path d = "M 506.25 253.12 L 503.91 342.19" stroke="black" fill="transparent"/>
	<path d = "M 421.88 335.16 L 485.16 335.16" stroke="black" fill="transparent"/>
	<path d = "M 419.53 360.94 L 489.84 349.22" stroke="black" fill="transparent"/>
	<path d = "M 440.62 440.62 L 485.16 384.38" stroke="black" fill="transparent"/>
	<path d = "M 499.22 412.50 L 506.25 332.81" stroke="black" fill="transparent"/>
	<path d = "M 515.62 379.69 L 583.59 370.31" stroke="black" fill="transparent"/>
	<path d = "M 506.25 339.84 L 550.78 304.69" stroke="black" fill="transparent"/>
	<path d = "M 510.94 311.72 L 539.06 260.16" stroke="black" fill="transparent"/>
	<path d = "M 107.81 201.56 L 145.31 124.22 L 260.16 140.62 L 471.09 138.28 L 478.12 253.12 L 492.19 292.97" stroke="black" fill="transparent"/>
	<path d = "M 461.72 145.31 L 450.00 49.22" stroke="black" fill="transparent"/>
	<path d = "M 428.91 42.19 L 379.69 0.00" stroke="black" fill="transparent"/>
</svg>