<?xml version="1.0" encoding="UTF-8" standalone="no"?>
<!--Created with ndjsontosvg (https:https://github.com/thompson318/ndjsontosvg) 
	from the simplified Google quickdraw data set. key_id = 5924298428514304-->
<svg width="600" height="600"
	xmlns="http://www.w3.org/2000/svg">
	xmlns:ndjsontosvg="https://github.com/thompson318/ndjsontosvg"
	xmlns:quickdraw="https://quickdraw.withgoogle.com/data"
	xmlns:scikit-surgery="https://doi.org/10.1007/s11548-020-02180-5">

	<rect width="100%" height="100%" fill="white" />
	<path d = "M 86.72 93.75 L 25.78 112.50 L 0.00 147.66 L 2.34 173.44 L 60.94 196.88 L 166.41 199.22 L 199.22 187.50 L 213.28 171.09 L 201.56 128.91 L 175.78 103.12 L 126.56 89.06 L 70.31 91.41" stroke="black" fill="transparent"/>
	<path d = "M 550.78 124.22 L 471.09 131.25 L 442.97 154.69 L 435.94 180.47 L 447.66 196.88 L 475.78 208.59 L 583.59 210.94 L 597.66 180.47 L 585.94 145.31 L 506.25 133.59" stroke="black" fill="transparent"/>
	<path d = "M 180.47 138.28 L 264.84 98.44 L 403.12 56.25" stroke="black" fill="transparent"/>
	<path d = "M 189.84 14.06 L 328.12 98.44 L 442.97 147.66 L 478.12 152.34" stroke="black" fill="transparent"/>
	<path d = "M 182.81 18.75 L 410.16 25.78 L 407.81 58.59" stroke="black" fill="transparent"/>
	<path d = "M 203.91 23.44 L 199.22 82.03" stroke="black" fill="transparent"/>
	<path d = "M 391.41 21.09 L 447.66 0.00" stroke="black" fill="transparent"/>
</svg>