<?xml version="1.0" encoding="UTF-8" standalone="no"?>
<!--Created with ndjsontosvg (https:https://github.com/thompson318/ndjsontosvg) 
	from the simplified Google quickdraw data set. key_id = 4895285920661504-->
<svg width="600" height="600"
	xmlns="http://www.w3.org/2000/svg">
	xmlns:ndjsontosvg="https://github.com/thompson318/ndjsontosvg"
	xmlns:quickdraw="https://quickdraw.withgoogle.com/data"
	xmlns:scikit-surgery="https://doi.org/10.1007/s11548-020-02180-5">

	<rect width="100%" height="100%" fill="white" />
	<path d = "M 100.78 297.66 L 56.25 318.75 L 14.06 351.56 L 0.00 372.66 L 0.00 412.50 L 28.12 459.38 L 63.28 482.81 L 93.75 487.50 L 161.72 485.16 L 232.03 450.00 L 253.12 426.56 L 253.12 393.75 L 229.69 342.19 L 201.56 307.03 L 154.69 281.25 L 70.31 283.59 L 39.84 309.38" stroke="black" fill="transparent"/>
	<path d = "M 180.47 290.62 L 110.16 346.88 L 32.81 433.59" stroke="black" fill="transparent"/>
	<path d = "M 28.12 311.72 L 135.94 447.66 L 196.88 501.56" stroke="black" fill="transparent"/>
	<path d = "M 32.81 372.66 L 168.75 389.06 L 274.22 389.06" stroke="black" fill="transparent"/>
	<path d = "M 150.00 257.81 L 140.62 276.56 L 142.97 539.06" stroke="black" fill="transparent"/>
	<path d = "M 23.44 365.62 L 60.94 386.72 L 168.75 396.09 L 297.66 398.44" stroke="black" fill="transparent"/>
	<path d = "M 185.16 253.12 L 154.69 302.34 L 126.56 428.91 L 121.88 485.16" stroke="black" fill="transparent"/>
	<path d = "M 210.94 375.00 L 53.91 485.16" stroke="black" fill="transparent"/>
	<path d = "M 16.41 307.03 L 21.09 325.78 L 84.38 372.66 L 121.88 382.03 L 248.44 384.38" stroke="black" fill="transparent"/>
	<path d = "M 152.34 276.56 L 128.91 342.19 L 58.59 424.22" stroke="black" fill="transparent"/>
	<path d = "M 124.22 316.41 L 178.12 414.84 L 201.56 435.94 L 262.50 450.00" stroke="black" fill="transparent"/>
	<path d = "M 271.88 379.69 L 285.94 389.06 L 363.28 403.12 L 417.19 405.47 L 461.72 391.41" stroke="black" fill="transparent"/>
	<path d = "M 506.25 375.00 L 496.88 360.94 L 496.88 328.12 L 513.28 295.31 L 548.44 262.50 L 585.94 260.16 L 592.97 428.91 L 567.19 485.16 L 534.38 510.94 L 485.16 510.94 L 457.03 501.56 L 414.84 464.06 L 386.72 391.41 L 389.06 349.22 L 403.12 330.47 L 473.44 300.00 L 560.16 292.97" stroke="black" fill="transparent"/>
	<path d = "M 583.59 262.50 L 555.47 300.00 L 499.22 424.22 L 487.50 478.12 L 485.16 539.06" stroke="black" fill="transparent"/>
	<path d = "M 457.03 339.84 L 464.06 377.34 L 487.50 421.88 L 529.69 466.41 L 569.53 485.16" stroke="black" fill="transparent"/>
	<path d = "M 597.66 421.88 L 571.88 389.06 L 550.78 377.34 L 400.78 386.72" stroke="black" fill="transparent"/>
	<path d = "M 417.19 349.22 L 435.94 358.59 L 574.22 358.59" stroke="black" fill="transparent"/>
	<path d = "M 522.66 302.34 L 520.31 492.19" stroke="black" fill="transparent"/>
	<path d = "M 410.16 398.44 L 560.16 424.22" stroke="black" fill="transparent"/>
	<path d = "M 595.31 398.44 L 574.22 389.06 L 466.41 379.69 L 386.72 384.38 L 330.47 407.81" stroke="black" fill="transparent"/>
	<path d = "M 208.59 253.12 L 206.25 234.38 L 236.72 133.59 L 236.72 96.09 L 234.38 86.72 L 187.50 82.03 L 189.84 72.66" stroke="black" fill="transparent"/>
	<path d = "M 271.88 96.09 L 300.00 67.97 L 302.34 51.56 L 330.47 9.38 L 342.19 0.00 L 363.28 0.00" stroke="black" fill="transparent"/>
	<path d = "M 248.44 105.47 L 337.50 70.31" stroke="black" fill="transparent"/>
</svg>