<?xml version="1.0" encoding="UTF-8" standalone="no"?>
<!--Created with ndjsontosvg (https:https://github.com/thompson318/ndjsontosvg) 
	from the simplified Google quickdraw data set. key_id = 6109496713674752-->
<svg width="600" height="600"
	xmlns="http://www.w3.org/2000/svg">
	xmlns:ndjsontosvg="https://github.com/thompson318/ndjsontosvg"
	xmlns:quickdraw="https://quickdraw.withgoogle.com/data"
	xmlns:scikit-surgery="https://doi.org/10.1007/s11548-020-02180-5">

	<rect width="100%" height="100%" fill="white" />
	<path d = "M 37.50 37.50 L 16.41 51.56 L 7.03 75.00 L 0.00 288.28 L 7.03 382.03 L 49.22 480.47 L 100.78 539.06 L 150.00 562.50 L 180.47 567.19 L 236.72 539.06 L 274.22 489.84 L 292.97 421.88 L 290.62 281.25 L 281.25 229.69 L 236.72 131.25 L 187.50 63.28 L 93.75 7.03 L 58.59 9.38 L 23.44 35.16 L 14.06 56.25 L 16.41 75.00" stroke="black" fill="transparent"/>
	<path d = "M 278.91 222.66 L 398.44 222.66" stroke="black" fill="transparent"/>
	<path d = "M 269.53 304.69 L 391.41 288.28" stroke="black" fill="transparent"/>
	<path d = "M 503.91 51.56 L 492.19 25.78 L 457.03 2.34 L 431.25 4.69 L 410.16 18.75 L 379.69 79.69 L 363.28 192.19 L 367.97 290.62 L 410.16 478.12 L 447.66 525.00 L 482.81 534.38 L 494.53 525.00 L 548.44 417.19 L 578.91 389.06 L 590.62 363.28 L 597.66 300.00 L 583.59 178.12 L 539.06 79.69 L 487.50 32.81 L 360.94 39.84 L 349.22 53.91 L 349.22 75.00" stroke="black" fill="transparent"/>
	<path d = "M 140.62 346.88 L 121.88 351.56 L 110.16 365.62 L 105.47 421.88 L 112.50 478.12 L 147.66 513.28 L 185.16 527.34 L 236.72 525.00 L 283.59 478.12 L 290.62 435.94 L 283.59 405.47 L 248.44 363.28 L 225.00 351.56 L 180.47 339.84 L 142.97 349.22 L 112.50 377.34 L 103.12 414.84" stroke="black" fill="transparent"/>
</svg>