<?xml version="1.0" encoding="UTF-8" standalone="no"?>
<!--Created with ndjsontosvg (https:https://github.com/thompson318/ndjsontosvg) 
	from the simplified Google quickdraw data set. key_id = 5825993522544640-->
<svg width="600" height="600"
	xmlns="http://www.w3.org/2000/svg">
	xmlns:ndjsontosvg="https://github.com/thompson318/ndjsontosvg"
	xmlns:quickdraw="https://quickdraw.withgoogle.com/data"
	xmlns:scikit-surgery="https://doi.org/10.1007/s11548-020-02180-5">

	<rect width="100%" height="100%" fill="white" />
	<path d = "M 0.00 290.62 L 0.00 534.38 L 28.12 578.91 L 173.44 597.66 L 178.12 471.09 L 157.03 358.59 L 157.03 337.50 L 175.78 328.12 L 304.69 328.12 L 295.31 583.59 L 475.78 585.94 L 492.19 569.53 L 501.56 367.97 L 485.16 229.69 L 480.47 215.62 L 466.41 210.94 L 386.72 225.00 L 377.34 203.91 L 400.78 131.25 L 398.44 9.38 L 384.38 0.00 L 367.97 2.34 L 318.75 42.19 L 288.28 46.88 L 278.91 67.97 L 278.91 131.25 L 290.62 220.31 L 189.84 225.00 L 168.75 220.31 L 157.03 208.59 L 161.72 32.81 L 133.59 25.78 L 100.78 37.50 L 30.47 44.53 L 23.44 65.62 L 21.09 236.72" stroke="black" fill="transparent"/>
	<path d = "M 28.12 201.56 L 11.72 257.81" stroke="black" fill="transparent"/>
	<path d = "M 51.56 227.34 L 37.50 234.38 L 21.09 278.91" stroke="black" fill="transparent"/>
	<path d = "M 23.44 262.50 L 9.38 264.84 L 2.34 278.91" stroke="black" fill="transparent"/>
</svg>