<?xml version="1.0" encoding="UTF-8" standalone="no"?>
<!--Created with ndjsontosvg (https:https://github.com/thompson318/ndjsontosvg) 
	from the simplified Google quickdraw data set. key_id = 6742137443975168-->
<svg width="600" height="600"
	xmlns="http://www.w3.org/2000/svg">
	xmlns:ndjsontosvg="https://github.com/thompson318/ndjsontosvg"
	xmlns:quickdraw="https://quickdraw.withgoogle.com/data"
	xmlns:scikit-surgery="https://doi.org/10.1007/s11548-020-02180-5">

	<rect width="100%" height="100%" fill="white" />
	<path d = "M 28.12 307.03 L 9.38 339.84 L 7.03 410.16 L 7.03 475.78 L 18.75 506.25 L 51.56 534.38 L 89.06 541.41 L 112.50 532.03 L 138.28 489.84 L 145.31 379.69 L 133.59 337.50 L 96.09 288.28 L 75.00 278.91 L 32.81 281.25" stroke="black" fill="transparent"/>
	<path d = "M 377.34 339.84 L 372.66 417.19 L 382.03 468.75 L 417.19 517.97 L 450.00 534.38 L 482.81 534.38 L 503.91 496.88 L 513.28 391.41 L 496.88 346.88 L 473.44 311.72 L 419.53 278.91 L 372.66 276.56 L 349.22 290.62" stroke="black" fill="transparent"/>
	<path d = "M 201.56 487.50 L 192.19 442.97 L 208.59 377.34 L 328.12 110.16" stroke="black" fill="transparent"/>
	<path d = "M 0.00 285.94 L 9.38 234.38 L 91.41 89.06 L 126.56 35.16 L 173.44 0.00 L 250.78 7.03 L 592.97 63.28 L 597.66 100.78 L 574.22 269.53 L 541.41 414.84 L 541.41 461.72 L 522.66 473.44" stroke="black" fill="transparent"/>
</svg>