<?xml version="1.0" encoding="UTF-8" standalone="no"?>
<!--Created with ndjsontosvg (https:https://github.com/thompson318/ndjsontosvg) 
	from the simplified Google quickdraw data set. key_id = 5636877694533632-->
<svg width="600" height="600"
	xmlns="http://www.w3.org/2000/svg">
	xmlns:ndjsontosvg="https://github.com/thompson318/ndjsontosvg"
	xmlns:quickdraw="https://quickdraw.withgoogle.com/data"
	xmlns:scikit-surgery="https://doi.org/10.1007/s11548-020-02180-5">

	<rect width="100%" height="100%" fill="white" />
	<path d = "M 23.44 335.16 L 7.03 342.19 L 0.00 367.97 L 0.00 433.59 L 9.38 471.09 L 58.59 541.41 L 89.06 564.84 L 150.00 583.59 L 222.66 576.56 L 243.75 553.12 L 260.16 510.94 L 255.47 414.84 L 227.34 377.34 L 194.53 351.56 L 147.66 337.50 L 56.25 342.19 L 30.47 363.28 L 21.09 403.12" stroke="black" fill="transparent"/>
	<path d = "M 393.75 342.19 L 391.41 424.22 L 400.78 457.03 L 445.31 508.59 L 471.09 517.97 L 510.94 522.66 L 553.12 445.31 L 553.12 403.12 L 485.16 363.28 L 438.28 344.53 L 356.25 344.53" stroke="black" fill="transparent"/>
	<path d = "M 37.50 351.56 L 164.06 128.91 L 185.16 84.38 L 194.53 46.88 L 222.66 21.09 L 274.22 0.00 L 295.31 0.00 L 386.72 28.12 L 454.69 30.47 L 595.31 60.94 L 583.59 323.44 L 567.19 445.31" stroke="black" fill="transparent"/>
	<path d = "M 75.00 597.66 L 234.38 541.41 L 407.81 525.00 L 482.81 503.91 L 562.50 503.91" stroke="black" fill="transparent"/>
	<path d = "M 285.94 393.75 L 297.66 309.38 L 337.50 164.06 L 372.66 79.69 L 389.06 60.94 L 403.12 56.25" stroke="black" fill="transparent"/>
	<path d = "M 75.00 335.16 L 206.25 344.53 L 510.94 335.16" stroke="black" fill="transparent"/>
</svg>