<?xml version="1.0" encoding="UTF-8" standalone="no"?>
<!--Created with ndjsontosvg (https:https://github.com/thompson318/ndjsontosvg) 
	from the simplified Google quickdraw data set. key_id = 5623547001044992-->
<svg width="600" height="600"
	xmlns="http://www.w3.org/2000/svg">
	xmlns:ndjsontosvg="https://github.com/thompson318/ndjsontosvg"
	xmlns:quickdraw="https://quickdraw.withgoogle.com/data"
	xmlns:scikit-surgery="https://doi.org/10.1007/s11548-020-02180-5">

	<rect width="100%" height="100%" fill="white" />
	<path d = "M 330.47 28.12 L 375.00 4.69 L 407.81 30.47 L 431.25 21.09 L 438.28 35.16 L 433.59 100.78 L 440.62 105.47 L 452.34 103.12 L 515.62 46.88 L 550.78 58.59 L 567.19 77.34 L 546.09 140.62 L 597.66 196.88 L 588.28 243.75 L 555.47 297.66 L 419.53 461.72 L 351.56 520.31 L 297.66 527.34 L 262.50 506.25 L 234.38 445.31 L 234.38 393.75 L 250.78 360.94 L 295.31 335.16 L 344.53 332.81 L 372.66 295.31 L 356.25 269.53 L 356.25 234.38 L 365.62 208.59 L 389.06 189.84 L 342.19 161.72 L 323.44 194.53 L 302.34 210.94 L 269.53 210.94 L 241.41 187.50 L 232.03 189.84 L 154.69 311.72 L 117.19 358.59 L 75.00 358.59 L 30.47 321.09 L 18.75 283.59 L 21.09 225.00 L 53.91 161.72 L 93.75 112.50 L 133.59 91.41 L 196.88 84.38 L 262.50 18.75 L 290.62 0.00 L 307.03 0.00 L 328.12 25.78" stroke="black" fill="transparent"/>
	<path d = "M 46.88 189.84 L 49.22 217.97 L 58.59 232.03 L 126.56 236.72 L 147.66 250.78 L 161.72 285.94 L 161.72 328.12 L 145.31 349.22 L 119.53 360.94 L 72.66 365.62 L 30.47 349.22 L 4.69 311.72 L 0.00 269.53 L 37.50 222.66 L 67.97 210.94 L 93.75 210.94 L 117.19 222.66 L 145.31 255.47" stroke="black" fill="transparent"/>
	<path d = "M 295.31 400.78 L 283.59 396.09 L 285.94 375.00 L 307.03 349.22 L 337.50 344.53 L 358.59 351.56 L 391.41 379.69 L 419.53 421.88 L 421.88 475.78 L 396.09 508.59 L 370.31 525.00 L 288.28 539.06 L 257.81 532.03 L 229.69 501.56 L 222.66 457.03 L 227.34 405.47 L 255.47 372.66 L 278.91 363.28 L 311.72 365.62 L 356.25 410.16 L 375.00 442.97 L 379.69 461.72" stroke="black" fill="transparent"/>
</svg>