<?xml version="1.0" encoding="UTF-8" standalone="no"?>
<!--Created with ndjsontosvg (https:https://github.com/thompson318/ndjsontosvg) 
	from the simplified Google quickdraw data set. key_id = 5294256086319104-->
<svg width="600" height="600"
	xmlns="http://www.w3.org/2000/svg">
	xmlns:ndjsontosvg="https://github.com/thompson318/ndjsontosvg"
	xmlns:quickdraw="https://quickdraw.withgoogle.com/data"
	xmlns:scikit-surgery="https://doi.org/10.1007/s11548-020-02180-5">

	<rect width="100%" height="100%" fill="white" />
	<path d = "M 171.09 161.72 L 171.09 159.38" stroke="black" fill="transparent"/>
	<path d = "M 145.31 154.69 L 114.84 161.72 L 93.75 180.47 L 75.00 213.28 L 72.66 255.47 L 93.75 262.50 L 157.03 262.50 L 173.44 253.12 L 196.88 222.66 L 206.25 187.50 L 201.56 164.06 L 110.16 159.38 L 77.34 166.41" stroke="black" fill="transparent"/>
	<path d = "M 72.66 210.94 L 32.81 210.94 L 0.00 220.31 L 72.66 241.41" stroke="black" fill="transparent"/>
	<path d = "M 194.53 192.19 L 300.00 185.16 L 316.41 178.12 L 370.31 105.47 L 421.88 0.00 L 534.38 161.72" stroke="black" fill="transparent"/>
	<path d = "M 192.19 243.75 L 332.81 243.75 L 358.59 370.31 L 393.75 473.44 L 494.53 339.84 L 522.66 288.28 L 520.31 520.31 L 473.44 548.44 L 421.88 592.97" stroke="black" fill="transparent"/>
	<path d = "M 520.31 517.97 L 520.31 581.25" stroke="black" fill="transparent"/>
	<path d = "M 529.69 517.97 L 567.19 581.25 L 585.94 597.66 L 585.94 585.94" stroke="black" fill="transparent"/>
</svg>