<?xml version="1.0" encoding="UTF-8" standalone="no"?>
<!--Created with ndjsontosvg (https:https://github.com/thompson318/ndjsontosvg) 
	from the simplified Google quickdraw data set. key_id = 5506152408285184-->
<svg width="600" height="600"
	xmlns="http://www.w3.org/2000/svg">
	xmlns:ndjsontosvg="https://github.com/thompson318/ndjsontosvg"
	xmlns:quickdraw="https://quickdraw.withgoogle.com/data"
	xmlns:scikit-surgery="https://doi.org/10.1007/s11548-020-02180-5">

	<rect width="100%" height="100%" fill="white" />
	<path d = "M 135.94 49.22 L 91.41 39.84 L 39.84 42.19 L 14.06 56.25 L 0.00 77.34 L 9.38 82.03 L 65.62 65.62 L 98.44 65.62 L 133.59 84.38" stroke="black" fill="transparent"/>
	<path d = "M 142.97 46.88 L 138.28 30.47 L 154.69 9.38 L 222.66 0.00 L 234.38 7.03 L 246.09 30.47 L 248.44 79.69 L 257.81 96.09 L 276.56 114.84 L 311.72 133.59 L 506.25 138.28 L 569.53 114.84 L 583.59 117.19 L 583.59 128.91 L 553.12 166.41 L 581.25 171.09 L 597.66 185.16 L 555.47 189.84 L 553.12 196.88 L 567.19 208.59 L 557.81 215.62 L 510.94 220.31 L 532.03 234.38 L 475.78 236.72 L 403.12 232.03" stroke="black" fill="transparent"/>
	<path d = "M 133.59 84.38 L 140.62 138.28 L 35.16 161.72 L 37.50 166.41 L 72.66 168.75 L 32.81 187.50 L 82.03 189.84 L 37.50 222.66 L 51.56 232.03 L 39.84 250.78 L 142.97 215.62 L 217.97 250.78 L 264.84 257.81 L 421.88 255.47 L 445.31 234.38" stroke="black" fill="transparent"/>
	<path d = "M 318.75 255.47 L 288.28 309.38" stroke="black" fill="transparent"/>
	<path d = "M 356.25 260.16 L 358.59 309.38 L 363.28 323.44" stroke="black" fill="transparent"/>
	<path d = "M 283.59 309.38 L 253.12 321.09 L 236.72 339.84" stroke="black" fill="transparent"/>
	<path d = "M 292.97 318.75 L 274.22 337.50" stroke="black" fill="transparent"/>
	<path d = "M 276.56 328.12 L 274.22 342.19 L 278.91 346.88 L 318.75 328.12" stroke="black" fill="transparent"/>
	<path d = "M 337.50 318.75 L 339.84 330.47 L 346.88 321.09" stroke="black" fill="transparent"/>
	<path d = "M 372.66 325.78 L 379.69 342.19 L 386.72 328.12" stroke="black" fill="transparent"/>
	<path d = "M 396.09 337.50 L 384.38 304.69" stroke="black" fill="transparent"/>
	<path d = "M 178.12 32.81 L 175.78 42.19 L 182.81 53.91 L 192.19 49.22 L 199.22 30.47 L 192.19 25.78 L 182.81 32.81" stroke="black" fill="transparent"/>
</svg>