<?xml version="1.0" encoding="UTF-8" standalone="no"?>
<!--Created with ndjsontosvg (https:https://github.com/thompson318/ndjsontosvg) 
	from the simplified Google quickdraw data set. key_id = 4580695018045440-->
<svg width="600" height="600"
	xmlns="http://www.w3.org/2000/svg">
	xmlns:ndjsontosvg="https://github.com/thompson318/ndjsontosvg"
	xmlns:quickdraw="https://quickdraw.withgoogle.com/data"
	xmlns:scikit-surgery="https://doi.org/10.1007/s11548-020-02180-5">

	<rect width="100%" height="100%" fill="white" />
	<path d = "M 164.06 70.31 L 159.38 51.56 L 140.62 28.12 L 114.84 9.38 L 89.06 0.00 L 53.91 0.00 L 32.81 9.38 L 2.34 46.88 L 2.34 89.06 L 23.44 119.53 L 58.59 150.00 L 98.44 168.75 L 96.09 257.81 L 107.81 274.22 L 164.06 297.66 L 220.31 307.03 L 321.09 309.38" stroke="black" fill="transparent"/>
	<path d = "M 154.69 70.31 L 180.47 49.22 L 208.59 39.84 L 332.81 37.50 L 370.31 46.88 L 421.88 63.28 L 459.38 86.72 L 485.16 117.19 L 494.53 168.75" stroke="black" fill="transparent"/>
	<path d = "M 161.72 178.12 L 187.50 196.88 L 246.09 276.56 L 290.62 314.06 L 421.88 370.31 L 513.28 393.75 L 592.97 398.44" stroke="black" fill="transparent"/>
	<path d = "M 285.94 138.28 L 295.31 145.31 L 419.53 307.03 L 527.34 389.06 L 597.66 421.88" stroke="black" fill="transparent"/>
	<path d = "M 260.16 203.91 L 302.34 255.47" stroke="black" fill="transparent"/>
	<path d = "M 485.16 152.34 L 492.19 227.34 L 473.44 276.56" stroke="black" fill="transparent"/>
</svg>