<?xml version="1.0" encoding="UTF-8" standalone="no"?>
<!--Created with ndjsontosvg (https:https://github.com/thompson318/ndjsontosvg) 
	from the simplified Google quickdraw data set. key_id = 5354343232438272-->
<svg width="600" height="600"
	xmlns="http://www.w3.org/2000/svg">
	xmlns:ndjsontosvg="https://github.com/thompson318/ndjsontosvg"
	xmlns:quickdraw="https://quickdraw.withgoogle.com/data"
	xmlns:scikit-surgery="https://doi.org/10.1007/s11548-020-02180-5">

	<rect width="100%" height="100%" fill="white" />
	<path d = "M 243.75 93.75 L 232.03 51.56 L 194.53 14.06 L 161.72 2.34 L 114.84 7.03 L 82.03 39.84 L 70.31 77.34 L 72.66 131.25 L 100.78 171.09 L 147.66 199.22 L 180.47 206.25 L 206.25 192.19 L 220.31 166.41 L 229.69 138.28 L 222.66 77.34 L 187.50 35.16 L 168.75 25.78 L 154.69 32.81" stroke="black" fill="transparent"/>
	<path d = "M 72.66 65.62 L 2.34 96.09 L 37.50 112.50 L 110.16 112.50" stroke="black" fill="transparent"/>
	<path d = "M 107.81 77.34 L 110.16 86.72 L 128.91 84.38 L 138.28 58.59 L 126.56 60.94" stroke="black" fill="transparent"/>
	<path d = "M 119.53 65.62 L 112.50 65.62 L 112.50 75.00 L 121.88 79.69 L 126.56 72.66 L 121.88 70.31 L 121.88 77.34" stroke="black" fill="transparent"/>
	<path d = "M 222.66 119.53 L 276.56 96.09 L 349.22 105.47 L 464.06 164.06 L 553.12 255.47 L 597.66 367.97 L 480.47 335.16 L 337.50 330.47 L 250.78 302.34 L 217.97 271.88 L 194.53 189.84" stroke="black" fill="transparent"/>
	<path d = "M 281.25 171.09 L 342.19 168.75 L 396.09 196.88 L 445.31 236.72 L 475.78 281.25 L 482.81 314.06 L 353.91 257.81 L 257.81 157.03" stroke="black" fill="transparent"/>
</svg>