<?xml version="1.0" encoding="UTF-8" standalone="no"?>
<!--Created with ndjsontosvg (https:https://github.com/thompson318/ndjsontosvg) 
	from the simplified Google quickdraw data set. key_id = 5729869474299904-->
<svg width="600" height="600"
	xmlns="http://www.w3.org/2000/svg">
	xmlns:ndjsontosvg="https://github.com/thompson318/ndjsontosvg"
	xmlns:quickdraw="https://quickdraw.withgoogle.com/data"
	xmlns:scikit-surgery="https://doi.org/10.1007/s11548-020-02180-5">

	<rect width="100%" height="100%" fill="white" />
	<path d = "M 14.06 335.16 L 0.00 473.44 L 11.72 503.91 L 25.78 513.28 L 58.59 527.34 L 236.72 553.12 L 450.00 597.66 L 487.50 592.97 L 501.56 560.16 L 525.00 452.34 L 527.34 400.78 L 517.97 375.00 L 370.31 337.50 L 215.62 318.75 L 131.25 316.41 L 2.34 325.78" stroke="black" fill="transparent"/>
	<path d = "M 208.59 302.34 L 215.62 220.31 L 316.41 203.91 L 400.78 199.22 L 435.94 215.62 L 454.69 255.47 L 471.09 351.56 L 471.09 382.03 L 461.72 375.00" stroke="black" fill="transparent"/>
	<path d = "M 281.25 210.94 L 278.91 117.19 L 375.00 91.41 L 384.38 96.09 L 400.78 135.94 L 410.16 206.25" stroke="black" fill="transparent"/>
	<path d = "M 304.69 91.41 L 292.97 32.81" stroke="black" fill="transparent"/>
	<path d = "M 365.62 79.69 L 351.56 0.00" stroke="black" fill="transparent"/>
</svg>