<?xml version="1.0" encoding="UTF-8" standalone="no"?>
<!--Created with ndjsontosvg (https:https://github.com/thompson318/ndjsontosvg) 
	from the simplified Google quickdraw data set. key_id = 6489043409829888-->
<svg width="600" height="600"
	xmlns="http://www.w3.org/2000/svg">
	xmlns:ndjsontosvg="https://github.com/thompson318/ndjsontosvg"
	xmlns:quickdraw="https://quickdraw.withgoogle.com/data"
	xmlns:scikit-surgery="https://doi.org/10.1007/s11548-020-02180-5">

	<rect width="100%" height="100%" fill="white" />
	<path d = "M 96.09 363.28 L 65.62 157.03 L 65.62 142.97 L 82.03 131.25 L 300.00 75.00 L 457.03 67.97 L 478.12 84.38 L 489.84 107.81 L 489.84 140.62 L 466.41 159.38 L 353.91 180.47 L 234.38 180.47 L 168.75 171.09 L 114.84 152.34" stroke="black" fill="transparent"/>
	<path d = "M 485.16 150.00 L 482.81 166.41 L 431.25 274.22 L 407.81 356.25 L 316.41 375.00 L 182.81 377.34 L 77.34 358.59 L 51.56 346.88" stroke="black" fill="transparent"/>
	<path d = "M 84.38 309.38 L 46.88 321.09 L 4.69 358.59 L 2.34 386.72 L 21.09 391.41 L 578.91 396.09 L 597.66 379.69 L 567.19 358.59 L 494.53 335.16 L 431.25 330.47" stroke="black" fill="transparent"/>
	<path d = "M 414.84 98.44 L 421.88 82.03 L 426.56 0.00" stroke="black" fill="transparent"/>
	<path d = "M 356.25 133.59 L 344.53 32.81" stroke="black" fill="transparent"/>
	<path d = "M 292.97 128.91 L 271.88 11.72" stroke="black" fill="transparent"/>
	<path d = "M 208.59 112.50 L 196.88 16.41" stroke="black" fill="transparent"/>
	<path d = "M 159.38 117.19 L 152.34 28.12" stroke="black" fill="transparent"/>
</svg>