<?xml version="1.0" encoding="UTF-8" standalone="no"?>
<!--Created with ndjsontosvg (https:https://github.com/thompson318/ndjsontosvg) 
	from the simplified Google quickdraw data set. key_id = 5897018843070464-->
<svg width="600" height="600"
	xmlns="http://www.w3.org/2000/svg">
	xmlns:ndjsontosvg="https://github.com/thompson318/ndjsontosvg"
	xmlns:quickdraw="https://quickdraw.withgoogle.com/data"
	xmlns:scikit-surgery="https://doi.org/10.1007/s11548-020-02180-5">

	<rect width="100%" height="100%" fill="white" />
	<path d = "M 7.03 239.06 L 2.34 525.00 L 32.81 564.84 L 51.56 574.22 L 98.44 588.28 L 178.12 595.31 L 407.81 595.31 L 438.28 592.97 L 487.50 576.56 L 515.62 539.06 L 543.75 468.75 L 571.88 330.47 L 578.91 241.41 L 553.12 222.66 L 485.16 201.56 L 335.16 194.53 L 14.06 241.41 L 9.38 257.81 L 49.22 318.75 L 84.38 342.19 L 126.56 351.56 L 222.66 351.56 L 367.97 332.81 L 473.44 316.41 L 564.84 290.62" stroke="black" fill="transparent"/>
	<path d = "M 86.72 213.28 L 112.50 124.22 L 157.03 37.50" stroke="black" fill="transparent"/>
	<path d = "M 154.69 7.03 L 157.03 39.84 L 180.47 46.88 L 201.56 39.84 L 220.31 18.75 L 208.59 2.34 L 180.47 2.34" stroke="black" fill="transparent"/>
	<path d = "M 260.16 290.62 L 271.88 278.91 L 309.38 185.16" stroke="black" fill="transparent"/>
	<path d = "M 358.59 28.12 L 321.09 70.31 L 302.34 107.81" stroke="black" fill="transparent"/>
</svg>