<?xml version="1.0" encoding="UTF-8" standalone="no"?>
<!--Created with ndjsontosvg (https:https://github.com/thompson318/ndjsontosvg) 
	from the simplified Google quickdraw data set. key_id = 6486009602637824-->
<svg width="600" height="600"
	xmlns="http://www.w3.org/2000/svg">
	xmlns:ndjsontosvg="https://github.com/thompson318/ndjsontosvg"
	xmlns:quickdraw="https://quickdraw.withgoogle.com/data"
	xmlns:scikit-surgery="https://doi.org/10.1007/s11548-020-02180-5">

	<rect width="100%" height="100%" fill="white" />
	<path d = "M 82.03 201.56 L 91.41 365.62" stroke="black" fill="transparent"/>
	<path d = "M 75.00 208.59 L 175.78 199.22 L 300.00 206.25 L 482.81 180.47 L 489.84 187.50 L 487.50 236.72 L 506.25 382.03 L 410.16 375.00 L 260.16 382.03 L 96.09 377.34" stroke="black" fill="transparent"/>
	<path d = "M 77.34 337.50 L 39.84 342.19 L 16.41 353.91 L 2.34 370.31 L 4.69 393.75 L 42.19 421.88 L 126.56 438.28 L 323.44 426.56 L 466.41 440.62 L 562.50 438.28 L 595.31 419.53 L 597.66 398.44 L 590.62 377.34 L 571.88 356.25 L 543.75 339.84 L 525.00 337.50 L 496.88 344.53" stroke="black" fill="transparent"/>
	<path d = "M 126.56 203.91 L 117.19 119.53 L 248.44 107.81 L 400.78 110.16 L 410.16 199.22" stroke="black" fill="transparent"/>
	<path d = "M 180.47 112.50 L 175.78 46.88 L 192.19 42.19 L 351.56 42.19 L 358.59 103.12" stroke="black" fill="transparent"/>
	<path d = "M 213.28 42.19 L 215.62 0.00 L 281.25 0.00" stroke="black" fill="transparent"/>
</svg>