<?xml version="1.0" encoding="UTF-8" standalone="no"?>
<!--Created with ndjsontosvg (https:https://github.com/thompson318/ndjsontosvg) 
	from the simplified Google quickdraw data set. key_id = 6088558563557376-->
<svg width="600" height="600"
	xmlns="http://www.w3.org/2000/svg">
	xmlns:ndjsontosvg="https://github.com/thompson318/ndjsontosvg"
	xmlns:quickdraw="https://quickdraw.withgoogle.com/data"
	xmlns:scikit-surgery="https://doi.org/10.1007/s11548-020-02180-5">

	<rect width="100%" height="100%" fill="white" />
	<path d = "M 248.44 98.44 L 213.28 91.41 L 185.16 98.44 L 150.00 119.53 L 114.84 152.34 L 63.28 234.38 L 39.84 328.12 L 63.28 471.09 L 107.81 515.62 L 166.41 543.75 L 203.91 550.78 L 239.06 555.47 L 309.38 543.75 L 370.31 520.31 L 424.22 487.50 L 489.84 424.22 L 515.62 372.66 L 529.69 323.44 L 529.69 260.16 L 515.62 208.59 L 487.50 164.06 L 445.31 128.91 L 403.12 110.16 L 332.81 91.41 L 215.62 93.75 L 168.75 107.81 L 138.28 126.56" stroke="black" fill="transparent"/>
	<path d = "M 208.59 110.16 L 180.47 119.53 L 112.50 168.75 L 16.41 288.28 L 7.03 302.34 L 28.12 288.28 L 199.22 124.22 L 300.00 49.22 L 203.91 142.97 L 135.94 220.31 L 44.53 344.53 L 4.69 417.19 L 2.34 424.22 L 9.38 424.22 L 257.81 166.41 L 365.62 75.00 L 264.84 157.03 L 145.31 281.25 L 0.00 489.84 L 25.78 473.44 L 147.66 330.47 L 328.12 166.41 L 396.09 121.88 L 300.00 203.91 L 185.16 330.47 L 110.16 440.62 L 96.09 464.06 L 105.47 464.06 L 281.25 292.97 L 496.88 131.25 L 391.41 206.25 L 250.78 339.84 L 154.69 450.00 L 70.31 571.88 L 290.62 360.94 L 485.16 222.66 L 292.97 389.06 L 185.16 508.59 L 189.84 513.28 L 239.06 482.81 L 400.78 360.94 L 553.12 274.22 L 419.53 370.31 L 328.12 447.66 L 253.12 527.34 L 206.25 590.62 L 250.78 567.19 L 414.84 419.53 L 510.94 344.53 L 466.41 372.66 L 384.38 447.66 L 337.50 506.25 L 325.78 534.38 L 372.66 517.97 L 557.81 405.47 L 433.59 506.25 L 358.59 588.28" stroke="black" fill="transparent"/>
	<path d = "M 262.50 18.75 L 248.44 65.62 L 243.75 131.25" stroke="black" fill="transparent"/>
	<path d = "M 292.97 0.00 L 278.91 72.66 L 288.28 126.56" stroke="black" fill="transparent"/>
	<path d = "M 271.88 7.03 L 257.81 77.34 L 262.50 98.44 L 271.88 84.38 L 278.91 7.03 L 267.19 25.78 L 239.06 157.03 L 199.22 278.91 L 229.69 227.34 L 295.31 75.00 L 295.31 60.94 L 264.84 58.59 L 210.94 91.41 L 133.59 166.41 L 79.69 248.44 L 65.62 311.72 L 75.00 330.47 L 86.72 339.84 L 133.59 339.84 L 192.19 318.75 L 276.56 271.88 L 321.09 239.06 L 356.25 196.88 L 351.56 178.12 L 309.38 164.06 L 262.50 168.75 L 234.38 178.12 L 203.91 192.19 L 152.34 232.03 L 128.91 255.47 L 89.06 330.47 L 84.38 372.66 L 98.44 403.12 L 135.94 428.91 L 213.28 431.25 L 283.59 400.78 L 321.09 367.97 L 346.88 325.78 L 358.59 276.56 L 351.56 229.69 L 318.75 168.75 L 288.28 145.31 L 269.53 140.62 L 196.88 152.34 L 145.31 199.22 L 105.47 269.53 L 89.06 344.53 L 107.81 440.62 L 154.69 487.50 L 215.62 508.59 L 283.59 508.59 L 314.06 503.91 L 398.44 466.41 L 419.53 447.66 L 450.00 403.12 L 457.03 379.69 L 459.38 321.09 L 445.31 260.16 L 421.88 210.94 L 389.06 171.09 L 344.53 138.28 L 318.75 128.91 L 264.84 126.56 L 206.25 145.31 L 175.78 164.06 L 117.19 225.00 L 75.00 318.75 L 60.94 363.28 L 60.94 475.78 L 89.06 525.00 L 112.50 541.41 L 180.47 553.12 L 257.81 543.75 L 351.56 503.91 L 400.78 466.41 L 417.19 445.31 L 440.62 396.09 L 450.00 344.53 L 445.31 285.94 L 428.91 236.72 L 384.38 178.12 L 363.28 164.06 L 295.31 145.31 L 236.72 157.03 L 206.25 173.44 L 152.34 229.69 L 117.19 302.34 L 110.16 337.50 L 112.50 400.78 L 121.88 424.22 L 164.06 457.03 L 229.69 466.41 L 269.53 461.72 L 367.97 426.56 L 417.19 393.75 L 452.34 337.50 L 454.69 314.06 L 445.31 264.84 L 433.59 241.41 L 396.09 192.19 L 351.56 152.34 L 267.19 114.84 L 203.91 121.88 L 142.97 152.34 L 117.19 175.78 L 63.28 274.22 L 60.94 337.50 L 70.31 360.94 L 110.16 396.09 L 145.31 410.16 L 220.31 417.19 L 257.81 412.50 L 360.94 384.38 L 391.41 370.31 L 428.91 339.84 L 454.69 302.34 L 457.03 255.47 L 421.88 185.16 L 351.56 135.94 L 292.97 126.56 L 232.03 138.28 L 201.56 154.69 L 145.31 208.59 L 110.16 281.25 L 100.78 360.94 L 112.50 426.56 L 145.31 468.75 L 194.53 489.84 L 248.44 487.50 L 307.03 464.06 L 356.25 419.53 L 389.06 370.31 L 410.16 314.06 L 414.84 283.59 L 407.81 201.56 L 391.41 164.06 L 358.59 138.28" stroke="black" fill="transparent"/>
</svg>