<?xml version="1.0" encoding="UTF-8" standalone="no"?>
<!--Created with ndjsontosvg (https:https://github.com/thompson318/ndjsontosvg) 
	from the simplified Google quickdraw data set. key_id = 6199330450964480-->
<svg width="600" height="600"
	xmlns="http://www.w3.org/2000/svg">
	xmlns:ndjsontosvg="https://github.com/thompson318/ndjsontosvg"
	xmlns:quickdraw="https://quickdraw.withgoogle.com/data"
	xmlns:scikit-surgery="https://doi.org/10.1007/s11548-020-02180-5">

	<rect width="100%" height="100%" fill="white" />
	<path d = "M 140.62 0.00 L 58.59 119.53 L 9.38 239.06 L 0.00 323.44 L 16.41 400.78 L 67.97 529.69 L 114.84 562.50 L 175.78 571.88 L 234.38 571.88 L 318.75 525.00 L 393.75 457.03 L 447.66 384.38 L 478.12 311.72 L 478.12 243.75 L 442.97 182.81 L 400.78 135.94 L 346.88 107.81 L 276.56 93.75 L 201.56 105.47 L 150.00 135.94 L 119.53 185.16 L 140.62 351.56 L 192.19 431.25 L 248.44 478.12 L 307.03 482.81 L 363.28 440.62 L 410.16 337.50 L 478.12 217.97 L 499.22 107.81 L 478.12 30.47 L 431.25 16.41 L 321.09 63.28 L 187.50 171.09 L 89.06 300.00 L 42.19 410.16 L 60.94 478.12 L 114.84 492.19 L 208.59 461.72 L 311.72 389.06 L 372.66 311.72 L 400.78 222.66 L 400.78 145.31 L 379.69 77.34 L 316.41 79.69 L 264.84 140.62 L 260.16 217.97 L 300.00 325.78 L 332.81 332.81 L 372.66 311.72 L 421.88 257.81 L 431.25 121.88 L 389.06 67.97 L 321.09 51.56 L 250.78 89.06 L 175.78 182.81 L 128.91 297.66 L 145.31 393.75 L 196.88 454.69 L 264.84 447.66 L 323.44 379.69 L 342.19 295.31 L 349.22 187.50 L 323.44 98.44 L 281.25 42.19 L 225.00 30.47 L 182.81 72.66 L 166.41 150.00 L 192.19 239.06 L 248.44 307.03 L 316.41 328.12 L 365.62 311.72 L 410.16 269.53 L 426.56 192.19 L 405.47 98.44 L 316.41 37.50 L 234.38 30.47 L 150.00 93.75 L 98.44 196.88 L 135.94 321.09 L 196.88 421.88 L 264.84 482.81 L 321.09 473.44 L 353.91 414.84 L 363.28 351.56 L 342.19 290.62 L 290.62 234.38 L 206.25 225.00 L 124.22 269.53 L 51.56 353.91 L 30.47 440.62 L 67.97 508.59 L 131.25 541.41 L 196.88 529.69 L 255.47 471.09 L 285.94 396.09 L 311.72 297.66 L 281.25 187.50 L 234.38 110.16 L 166.41 89.06 L 98.44 171.09 L 51.56 332.81 L 82.03 466.41 L 161.72 567.19 L 281.25 597.66 L 410.16 525.00 L 525.00 426.56 L 585.94 321.09 L 520.31 196.88 L 393.75 89.06 L 269.53 46.88 L 145.31 114.84 L 51.56 225.00 L 11.72 335.16 L 51.56 440.62 L 114.84 494.53 L 182.81 482.81 L 239.06 421.88 L 281.25 323.44 L 302.34 187.50 L 281.25 89.06 L 248.44 46.88 L 208.59 56.25 L 182.81 114.84 L 182.81 182.81 L 213.28 243.75 L 276.56 285.94" stroke="black" fill="transparent"/>
</svg>