<?xml version="1.0" encoding="UTF-8" standalone="no"?>
<!--Created with ndjsontosvg (https:https://github.com/thompson318/ndjsontosvg) 
	from the simplified Google quickdraw data set. key_id = 4543561770991616-->
<svg width="600" height="600"
	xmlns="http://www.w3.org/2000/svg">
	xmlns:ndjsontosvg="https://github.com/thompson318/ndjsontosvg"
	xmlns:quickdraw="https://quickdraw.withgoogle.com/data"
	xmlns:scikit-surgery="https://doi.org/10.1007/s11548-020-02180-5">

	<rect width="100%" height="100%" fill="white" />
	<path d = "M 18.75 215.62 L 0.00 274.22 L 9.38 330.47 L 32.81 360.94 L 67.97 377.34 L 82.03 450.00 L 100.78 482.81 L 117.19 494.53 L 150.00 496.88 L 206.25 562.50 L 234.38 574.22 L 257.81 576.56 L 323.44 550.78 L 363.28 564.84 L 396.09 567.19 L 489.84 553.12 L 513.28 520.31" stroke="black" fill="transparent"/>
	<path d = "M 562.50 543.75 L 588.28 517.97 L 595.31 405.47 L 539.06 360.94 L 525.00 325.78 L 492.19 300.00 L 471.09 257.81 L 442.97 232.03 L 337.50 199.22 L 290.62 194.53 L 246.09 201.56 L 194.53 182.81 L 65.62 206.25" stroke="black" fill="transparent"/>
	<path d = "M 145.31 196.88 L 126.56 140.62 L 138.28 0.00" stroke="black" fill="transparent"/>
	<path d = "M 72.66 171.09 L 39.84 203.91 L 9.38 253.12 L 114.84 210.94 L 89.06 260.16 L 100.78 262.50 L 168.75 217.97 L 124.22 278.91 L 187.50 248.44 L 147.66 292.97 L 138.28 309.38 L 147.66 311.72 L 203.91 276.56 L 229.69 248.44 L 199.22 267.19 L 164.06 309.38 L 152.34 335.16 L 159.38 344.53 L 199.22 330.47 L 253.12 281.25 L 199.22 311.72 L 152.34 363.28 L 166.41 363.28 L 213.28 332.81 L 255.47 283.59 L 243.75 278.91 L 225.00 288.28 L 192.19 309.38 L 147.66 356.25 L 135.94 377.34 L 142.97 382.03 L 208.59 351.56 L 243.75 321.09 L 250.78 297.66 L 222.66 311.72 L 185.16 365.62 L 192.19 382.03 L 232.03 370.31 L 278.91 335.16 L 297.66 302.34 L 292.97 297.66 L 281.25 300.00 L 222.66 353.91 L 178.12 421.88 L 171.09 445.31 L 175.78 461.72 L 215.62 454.69 L 260.16 424.22 L 304.69 379.69 L 365.62 297.66 L 379.69 257.81 L 356.25 260.16 L 321.09 281.25 L 278.91 323.44 L 220.31 407.81 L 199.22 464.06 L 201.56 482.81 L 232.03 473.44 L 271.88 438.28 L 314.06 384.38 L 365.62 300.00 L 372.66 269.53 L 344.53 271.88 L 297.66 302.34 L 243.75 358.59 L 178.12 452.34 L 166.41 478.12 L 166.41 499.22 L 210.94 496.88 L 297.66 435.94 L 337.50 393.75 L 384.38 328.12 L 393.75 304.69 L 386.72 300.00 L 332.81 342.19 L 302.34 379.69 L 283.59 417.19 L 271.88 457.03 L 283.59 468.75 L 304.69 466.41 L 342.19 445.31 L 382.03 405.47 L 433.59 332.81 L 445.31 304.69 L 433.59 297.66 L 414.84 302.34 L 379.69 323.44 L 321.09 386.72 L 304.69 414.84 L 297.66 447.66 L 316.41 459.38 L 365.62 445.31 L 426.56 384.38 L 454.69 339.84 L 457.03 330.47 L 445.31 330.47 L 393.75 379.69" stroke="black" fill="transparent"/>
</svg>