<?xml version="1.0" encoding="UTF-8" standalone="no"?>
<!--Created with ndjsontosvg (https:https://github.com/thompson318/ndjsontosvg) 
	from the simplified Google quickdraw data set. key_id = 4738439087915008-->
<svg width="600" height="600"
	xmlns="http://www.w3.org/2000/svg">
	xmlns:ndjsontosvg="https://github.com/thompson318/ndjsontosvg"
	xmlns:quickdraw="https://quickdraw.withgoogle.com/data"
	xmlns:scikit-surgery="https://doi.org/10.1007/s11548-020-02180-5">

	<rect width="100%" height="100%" fill="white" />
	<path d = "M 377.34 117.19 L 337.50 103.12 L 248.44 98.44 L 187.50 131.25 L 70.31 248.44 L 0.00 412.50 L 0.00 536.72 L 49.22 574.22 L 121.88 597.66 L 210.94 597.66 L 302.34 583.59 L 386.72 522.66 L 457.03 450.00 L 503.91 377.34 L 536.72 304.69 L 550.78 239.06 L 550.78 112.50 L 520.31 56.25 L 480.47 18.75 L 433.59 0.00 L 386.72 0.00 L 330.47 32.81" stroke="black" fill="transparent"/>
	<path d = "M 178.12 215.62 L 173.44 262.50 L 196.88 276.56 L 290.62 281.25 L 346.88 255.47 L 391.41 201.56 L 391.41 178.12 L 379.69 154.69 L 351.56 145.31 L 295.31 145.31 L 264.84 154.69 L 225.00 182.81" stroke="black" fill="transparent"/>
</svg>