<?xml version="1.0" encoding="UTF-8" standalone="no"?>
<!--Created with ndjsontosvg (https:https://github.com/thompson318/ndjsontosvg) 
	from the simplified Google quickdraw data set. key_id = 6238733873446912-->
<svg width="600" height="600"
	xmlns="http://www.w3.org/2000/svg">
	xmlns:ndjsontosvg="https://github.com/thompson318/ndjsontosvg"
	xmlns:quickdraw="https://quickdraw.withgoogle.com/data"
	xmlns:scikit-surgery="https://doi.org/10.1007/s11548-020-02180-5">

	<rect width="100%" height="100%" fill="white" />
	<path d = "M 133.59 274.22 L 114.84 257.81 L 70.31 260.16 L 49.22 267.19 L 9.38 321.09 L 0.00 344.53 L 0.00 396.09 L 7.03 414.84 L 42.19 431.25 L 175.78 438.28 L 166.41 337.50 L 121.88 300.00 L 114.84 283.59" stroke="black" fill="transparent"/>
	<path d = "M 152.34 332.81 L 133.59 281.25 L 107.81 257.81 L 75.00 260.16 L 37.50 314.06 L 25.78 375.00 L 28.12 428.91 L 67.97 454.69 L 121.88 457.03 L 166.41 431.25 L 182.81 384.38 L 178.12 332.81 L 152.34 292.97 L 126.56 278.91 L 89.06 274.22 L 44.53 318.75 L 23.44 370.31" stroke="black" fill="transparent"/>
	<path d = "M 585.94 304.69 L 571.88 281.25 L 517.97 274.22 L 489.84 281.25 L 466.41 307.03 L 447.66 351.56 L 445.31 400.78 L 457.03 419.53 L 503.91 442.97 L 574.22 438.28 L 597.66 393.75 L 595.31 339.84 L 562.50 295.31 L 522.66 274.22 L 517.97 290.62" stroke="black" fill="transparent"/>
	<path d = "M 428.91 58.59 L 410.16 14.06 L 379.69 0.00 L 337.50 4.69 L 307.03 28.12 L 269.53 91.41 L 264.84 112.50 L 278.91 138.28 L 370.31 140.62 L 410.16 121.88 L 433.59 103.12 L 440.62 51.56 L 410.16 35.16 L 342.19 25.78" stroke="black" fill="transparent"/>
</svg>