<?xml version="1.0" encoding="UTF-8" standalone="no"?>
<!--Created with ndjsontosvg (https:https://github.com/thompson318/ndjsontosvg) 
	from the simplified Google quickdraw data set. key_id = 5647635614531584-->
<svg width="600" height="600"
	xmlns="http://www.w3.org/2000/svg">
	xmlns:ndjsontosvg="https://github.com/thompson318/ndjsontosvg"
	xmlns:quickdraw="https://quickdraw.withgoogle.com/data"
	xmlns:scikit-surgery="https://doi.org/10.1007/s11548-020-02180-5">

	<rect width="100%" height="100%" fill="white" />
	<path d = "M 300.00 63.28 L 140.62 121.88 L 84.38 166.41 L 42.19 229.69 L 16.41 309.38 L 0.00 382.03 L 0.00 440.62 L 37.50 529.69 L 103.12 588.28 L 133.59 597.66 L 203.91 597.66 L 321.09 571.88 L 396.09 527.34 L 485.16 450.00 L 506.25 417.19 L 550.78 321.09 L 555.47 288.28 L 550.78 203.91 L 522.66 142.97 L 496.88 117.19 L 468.75 96.09 L 400.78 75.00 L 290.62 79.69 L 208.59 107.81" stroke="black" fill="transparent"/>
	<path d = "M 229.69 42.19 L 239.06 67.97 L 264.84 79.69 L 288.28 53.91 L 297.66 28.12 L 323.44 42.19 L 330.47 37.50" stroke="black" fill="transparent"/>
	<path d = "M 367.97 0.00 L 358.59 53.91 L 384.38 58.59 L 302.34 53.91 L 250.78 53.91 L 250.78 58.59" stroke="black" fill="transparent"/>
</svg>