<?xml version="1.0" encoding="UTF-8" standalone="no"?>
<!--Created with ndjsontosvg (https:https://github.com/thompson318/ndjsontosvg) 
	from the simplified Google quickdraw data set. key_id = 5677939154747392-->
<svg width="600" height="600"
	xmlns="http://www.w3.org/2000/svg">
	xmlns:ndjsontosvg="https://github.com/thompson318/ndjsontosvg"
	xmlns:quickdraw="https://quickdraw.withgoogle.com/data"
	xmlns:scikit-surgery="https://doi.org/10.1007/s11548-020-02180-5">

	<rect width="100%" height="100%" fill="white" />
	<path d = "M 588.28 35.16 L 435.94 30.47 L 358.59 46.88 L 187.50 112.50 L 96.09 159.38 L 46.88 196.88 L 28.12 215.62 L 4.69 264.84 L 0.00 358.59 L 39.84 410.16 L 89.06 433.59 L 210.94 445.31 L 351.56 440.62 L 457.03 398.44 L 522.66 351.56 L 553.12 309.38 L 588.28 241.41 L 597.66 164.06 L 571.88 96.09 L 543.75 53.91 L 496.88 11.72 L 464.06 0.00" stroke="black" fill="transparent"/>
	<path d = "M 379.69 51.56 L 314.06 56.25 L 295.31 77.34 L 283.59 126.56 L 360.94 147.66 L 424.22 140.62 L 442.97 121.88 L 450.00 86.72 L 403.12 58.59 L 382.03 56.25 L 358.59 65.62" stroke="black" fill="transparent"/>
	<path d = "M 358.59 84.38 L 356.25 96.09" stroke="black" fill="transparent"/>
	<path d = "M 372.66 96.09 L 407.81 100.78" stroke="black" fill="transparent"/>
	<path d = "M 382.03 117.19 L 382.03 142.97" stroke="black" fill="transparent"/>
</svg>