<?xml version="1.0" encoding="UTF-8" standalone="no"?>
<!--Created with ndjsontosvg (https:https://github.com/thompson318/ndjsontosvg) 
	from the simplified Google quickdraw data set. key_id = 6136258675867648-->
<svg width="600" height="600"
	xmlns="http://www.w3.org/2000/svg">
	xmlns:ndjsontosvg="https://github.com/thompson318/ndjsontosvg"
	xmlns:quickdraw="https://quickdraw.withgoogle.com/data"
	xmlns:scikit-surgery="https://doi.org/10.1007/s11548-020-02180-5">

	<rect width="100%" height="100%" fill="white" />
	<path d = "M 0.00 161.72 L 9.38 260.16 L 9.38 595.31 L 4.69 588.28" stroke="black" fill="transparent"/>
	<path d = "M 9.38 157.03 L 39.84 112.50 L 112.50 51.56 L 189.84 16.41 L 264.84 0.00 L 332.81 0.00 L 375.00 9.38 L 433.59 32.81 L 475.78 65.62 L 494.53 89.06 L 501.56 119.53 L 485.16 140.62" stroke="black" fill="transparent"/>
	<path d = "M 9.38 595.31 L 28.12 555.47 L 49.22 532.03 L 131.25 482.81 L 260.16 464.06 L 304.69 468.75 L 353.91 487.50" stroke="black" fill="transparent"/>
	<path d = "M 450.00 112.50 L 384.38 450.00" stroke="black" fill="transparent"/>
	<path d = "M 468.75 103.12 L 494.53 93.75 L 503.91 93.75 L 496.88 103.12" stroke="black" fill="transparent"/>
	<path d = "M 492.19 84.38 L 494.53 161.72 L 468.75 403.12 L 447.66 457.03 L 377.34 482.81 L 372.66 478.12" stroke="black" fill="transparent"/>
	<path d = "M 468.75 142.97 L 489.84 138.28" stroke="black" fill="transparent"/>
	<path d = "M 457.03 164.06 L 487.50 168.75" stroke="black" fill="transparent"/>
	<path d = "M 442.97 199.22 L 473.44 203.91" stroke="black" fill="transparent"/>
	<path d = "M 435.94 236.72 L 468.75 234.38" stroke="black" fill="transparent"/>
	<path d = "M 435.94 257.81 L 426.56 267.19 L 468.75 269.53" stroke="black" fill="transparent"/>
	<path d = "M 424.22 311.72 L 435.94 316.41" stroke="black" fill="transparent"/>
	<path d = "M 450.00 323.44 L 412.50 335.16 L 424.22 344.53 L 454.69 342.19" stroke="black" fill="transparent"/>
	<path d = "M 412.50 375.00 L 452.34 379.69" stroke="black" fill="transparent"/>
	<path d = "M 400.78 419.53 L 412.50 421.88" stroke="black" fill="transparent"/>
</svg>