<?xml version="1.0" encoding="UTF-8" standalone="no"?>
<!--Created with ndjsontosvg (https:https://github.com/thompson318/ndjsontosvg) 
	from the simplified Google quickdraw data set. key_id = 5099420079095808-->
<svg width="600" height="600"
	xmlns="http://www.w3.org/2000/svg">
	xmlns:ndjsontosvg="https://github.com/thompson318/ndjsontosvg"
	xmlns:quickdraw="https://quickdraw.withgoogle.com/data"
	xmlns:scikit-surgery="https://doi.org/10.1007/s11548-020-02180-5">

	<rect width="100%" height="100%" fill="white" />
	<path d = "M 72.66 51.56 L 86.72 332.81 L 82.03 546.09" stroke="black" fill="transparent"/>
	<path d = "M 91.41 65.62 L 281.25 42.19 L 356.25 21.09 L 386.72 2.34" stroke="black" fill="transparent"/>
	<path d = "M 379.69 2.34 L 222.66 11.72 L 138.28 35.16 L 77.34 67.97" stroke="black" fill="transparent"/>
	<path d = "M 107.81 44.53 L 21.09 53.91 L 7.03 67.97 L 0.00 84.38 L 14.06 433.59 L 37.50 597.66 L 58.59 595.31 L 100.78 571.88" stroke="black" fill="transparent"/>
	<path d = "M 128.91 569.53 L 234.38 529.69 L 346.88 501.56 L 412.50 466.41 L 475.78 454.69 L 382.03 457.03 L 304.69 475.78 L 98.44 560.16" stroke="black" fill="transparent"/>
	<path d = "M 414.84 58.59 L 442.97 349.22" stroke="black" fill="transparent"/>
</svg>