<?xml version="1.0" encoding="UTF-8" standalone="no"?>
<!--Created with ndjsontosvg (https:https://github.com/thompson318/ndjsontosvg) 
	from the simplified Google quickdraw data set. key_id = 5111000183341056-->
<svg width="600" height="600"
	xmlns="http://www.w3.org/2000/svg">
	xmlns:ndjsontosvg="https://github.com/thompson318/ndjsontosvg"
	xmlns:quickdraw="https://quickdraw.withgoogle.com/data"
	xmlns:scikit-surgery="https://doi.org/10.1007/s11548-020-02180-5">

	<rect width="100%" height="100%" fill="white" />
	<path d = "M 168.75 4.69 L 152.34 32.81 L 119.53 126.56 L 75.00 281.25 L 58.59 386.72 L 58.59 356.25" stroke="black" fill="transparent"/>
	<path d = "M 154.69 4.69 L 206.25 0.00 L 300.00 16.41 L 363.28 35.16 L 435.94 67.97 L 438.28 325.78 L 421.88 410.16 L 396.09 494.53 L 384.38 522.66 L 363.28 527.34 L 152.34 457.03 L 0.00 426.56 L 21.09 412.50" stroke="black" fill="transparent"/>
	<path d = "M 220.31 84.38 L 203.91 100.78 L 175.78 150.00 L 159.38 206.25 L 154.69 227.34 L 166.41 199.22" stroke="black" fill="transparent"/>
	<path d = "M 232.03 96.09 L 239.06 105.47 L 234.38 126.56 L 173.44 128.91 L 260.16 182.81 L 192.19 227.34" stroke="black" fill="transparent"/>
	<path d = "M 309.38 180.47 L 290.62 180.47 L 271.88 192.19 L 267.19 210.94 L 290.62 213.28 L 309.38 196.88 L 304.69 185.16" stroke="black" fill="transparent"/>
	<path d = "M 346.88 199.22 L 325.78 206.25 L 318.75 217.97 L 316.41 243.75 L 325.78 246.09 L 382.03 246.09 L 403.12 215.62 L 384.38 206.25" stroke="black" fill="transparent"/>
	<path d = "M 438.28 182.81 L 403.12 297.66" stroke="black" fill="transparent"/>
	<path d = "M 442.97 288.28 L 410.16 278.91 L 412.50 288.28 L 417.19 281.25" stroke="black" fill="transparent"/>
	<path d = "M 419.53 53.91 L 489.84 121.88" stroke="black" fill="transparent"/>
	<path d = "M 489.84 126.56 L 426.56 520.31 L 414.84 555.47 L 403.12 557.81 L 372.66 550.78 L 360.94 527.34" stroke="black" fill="transparent"/>
	<path d = "M 35.16 440.62 L 37.50 496.88 L 67.97 510.94 L 288.28 560.16 L 379.69 574.22 L 464.06 597.66 L 424.22 574.22" stroke="black" fill="transparent"/>
	<path d = "M 84.38 492.19 L 58.59 478.12 L 72.66 478.12 L 173.44 517.97 L 288.28 553.12 L 330.47 555.47 L 321.09 546.09" stroke="black" fill="transparent"/>
	<path d = "M 114.84 485.16 L 267.19 527.34" stroke="black" fill="transparent"/>
	<path d = "M 142.97 482.81 L 208.59 487.50 L 302.34 522.66" stroke="black" fill="transparent"/>
	<path d = "M 473.44 79.69 L 457.03 140.62 L 410.16 503.91" stroke="black" fill="transparent"/>
	<path d = "M 445.31 98.44 L 482.81 121.88 L 550.78 135.94 L 546.09 152.34" stroke="black" fill="transparent"/>
</svg>