<?xml version="1.0" encoding="UTF-8" standalone="no"?>
<!--Created with ndjsontosvg (https:https://github.com/thompson318/ndjsontosvg) 
	from the simplified Google quickdraw data set. key_id = 6152582550519808-->
<svg width="600" height="600"
	xmlns="http://www.w3.org/2000/svg">
	xmlns:ndjsontosvg="https://github.com/thompson318/ndjsontosvg"
	xmlns:quickdraw="https://quickdraw.withgoogle.com/data"
	xmlns:scikit-surgery="https://doi.org/10.1007/s11548-020-02180-5">

	<rect width="100%" height="100%" fill="white" />
	<path d = "M 0.00 253.12 L 56.25 196.88 L 140.62 135.94 L 318.75 25.78 L 384.38 2.34 L 471.09 0.00 L 515.62 28.12 L 539.06 77.34 L 536.72 142.97 L 471.09 278.91 L 379.69 525.00 L 339.84 592.97 L 321.09 597.66 L 297.66 581.25 L 269.53 539.06 L 267.19 489.84 L 297.66 332.81 L 363.28 192.19 L 372.66 140.62 L 353.91 131.25 L 307.03 138.28 L 217.97 234.38 L 128.91 290.62 L 51.56 316.41 L 16.41 316.41 L 4.69 302.34 L 11.72 243.75 L 30.47 220.31 L 65.62 196.88 L 114.84 178.12" stroke="black" fill="transparent"/>
</svg>