<?xml version="1.0" encoding="UTF-8" standalone="no"?>
<!--Created with ndjsontosvg (https:https://github.com/thompson318/ndjsontosvg) 
	from the simplified Google quickdraw data set. key_id = 4603914974396416-->
<svg width="600" height="600"
	xmlns="http://www.w3.org/2000/svg">
	xmlns:ndjsontosvg="https://github.com/thompson318/ndjsontosvg"
	xmlns:quickdraw="https://quickdraw.withgoogle.com/data"
	xmlns:scikit-surgery="https://doi.org/10.1007/s11548-020-02180-5">

	<rect width="100%" height="100%" fill="white" />
	<path d = "M 126.56 372.66 L 121.88 171.09 L 126.56 145.31 L 159.38 140.62 L 217.97 150.00 L 370.31 182.81 L 424.22 178.12 L 471.09 150.00 L 517.97 145.31 L 550.78 217.97 L 583.59 377.34 L 583.59 403.12 L 560.16 419.53 L 508.59 419.53 L 428.91 396.09 L 283.59 386.72 L 196.88 405.47 L 142.97 428.91 L 89.06 442.97 L 79.69 438.28" stroke="black" fill="transparent"/>
	<path d = "M 126.56 391.41 L 152.34 405.47 L 175.78 433.59 L 239.06 536.72 L 260.16 555.47 L 344.53 574.22 L 403.12 574.22 L 527.34 532.03 L 583.59 489.84 L 592.97 466.41 L 597.66 410.16 L 592.97 358.59 L 569.53 339.84 L 555.47 339.84" stroke="black" fill="transparent"/>
	<path d = "M 107.81 386.72 L 32.81 386.72 L 9.38 367.97 L 0.00 321.09 L 18.75 262.50 L 135.94 51.56 L 164.06 23.44 L 217.97 0.00 L 239.06 0.00" stroke="black" fill="transparent"/>
</svg>