<?xml version="1.0" encoding="UTF-8" standalone="no"?>
<!--Created with ndjsontosvg (https:https://github.com/thompson318/ndjsontosvg) 
	from the simplified Google quickdraw data set. key_id = 4728743664812032-->
<svg width="600" height="600"
	xmlns="http://www.w3.org/2000/svg">
	xmlns:ndjsontosvg="https://github.com/thompson318/ndjsontosvg"
	xmlns:quickdraw="https://quickdraw.withgoogle.com/data"
	xmlns:scikit-surgery="https://doi.org/10.1007/s11548-020-02180-5">

	<rect width="100%" height="100%" fill="white" />
	<path d = "M 442.97 548.44 L 442.97 548.44" stroke="black" fill="transparent"/>
	<path d = "M 585.94 253.12 L 583.59 295.31 L 571.88 342.19 L 536.72 384.38 L 499.22 410.16 L 396.09 442.97 L 276.56 454.69 L 227.34 442.97 L 135.94 407.81 L 114.84 398.44 L 86.72 367.97 L 35.16 264.84 L 25.78 227.34 L 28.12 175.78 L 93.75 77.34 L 192.19 16.41 L 283.59 0.00 L 377.34 18.75 L 457.03 51.56 L 515.62 91.41 L 553.12 133.59 L 578.91 175.78 L 581.25 278.91 L 569.53 337.50 L 543.75 379.69" stroke="black" fill="transparent"/>
	<path d = "M 585.94 236.72 L 597.66 349.22 L 583.59 351.56 L 581.25 389.06 L 569.53 393.75 L 557.81 386.72 L 550.78 412.50 L 539.06 421.88 L 525.00 410.16 L 520.31 450.00 L 494.53 452.34 L 489.84 464.06 L 478.12 468.75 L 464.06 466.41 L 459.38 494.53 L 438.28 471.09 L 405.47 489.84 L 400.78 478.12 L 382.03 499.22 L 356.25 506.25 L 346.88 517.97 L 335.16 517.97 L 316.41 501.56 L 302.34 525.00 L 290.62 534.38 L 274.22 506.25 L 248.44 517.97 L 236.72 506.25 L 234.38 489.84 L 206.25 508.59 L 194.53 501.56 L 187.50 471.09 L 161.72 485.16 L 145.31 457.03 L 128.91 464.06 L 117.19 457.03 L 114.84 442.97 L 86.72 438.28 L 82.03 400.78 L 70.31 407.81 L 56.25 400.78 L 46.88 372.66 L 37.50 384.38 L 0.00 274.22 L 9.38 185.16" stroke="black" fill="transparent"/>
</svg>