<?xml version="1.0" encoding="UTF-8" standalone="no"?>
<!--Created with ndjsontosvg (https:https://github.com/thompson318/ndjsontosvg) 
	from the simplified Google quickdraw data set. key_id = 5257799552466944-->
<svg width="600" height="600"
	xmlns="http://www.w3.org/2000/svg">
	xmlns:ndjsontosvg="https://github.com/thompson318/ndjsontosvg"
	xmlns:quickdraw="https://quickdraw.withgoogle.com/data"
	xmlns:scikit-surgery="https://doi.org/10.1007/s11548-020-02180-5">

	<rect width="100%" height="100%" fill="white" />
	<path d = "M 35.16 11.72 L 281.25 14.06 L 367.97 0.00 L 382.03 58.59 L 367.97 60.94 L 344.53 39.84 L 349.22 56.25 L 321.09 44.53 L 318.75 51.56 L 292.97 44.53 L 278.91 63.28 L 271.88 56.25 L 264.84 70.31 L 243.75 63.28 L 222.66 77.34 L 194.53 65.62 L 173.44 79.69 L 135.94 72.66 L 121.88 84.38 L 96.09 72.66 L 44.53 77.34 L 35.16 4.69" stroke="black" fill="transparent"/>
	<path d = "M 372.66 89.06 L 321.09 100.78 L 206.25 103.12 L 82.03 128.91 L 65.62 140.62 L 56.25 159.38 L 89.06 175.78 L 346.88 164.06 L 384.38 110.16 L 389.06 91.41" stroke="black" fill="transparent"/>
	<path d = "M 382.03 93.75 L 372.66 274.22 L 442.97 262.50 L 457.03 285.94 L 475.78 342.19 L 480.47 485.16 L 480.47 494.53 L 407.81 520.31 L 391.41 536.72" stroke="black" fill="transparent"/>
	<path d = "M 53.91 159.38 L 65.62 217.97 L 70.31 295.31 L 7.03 295.31 L 0.00 304.69 L 37.50 457.03 L 42.19 581.25 L 63.28 590.62 L 189.84 597.66" stroke="black" fill="transparent"/>
</svg>