<?xml version="1.0" encoding="UTF-8" standalone="no"?>
<!--Created with ndjsontosvg (https:https://github.com/thompson318/ndjsontosvg) 
	from the simplified Google quickdraw data set. key_id = 6469906545508352-->
<svg width="600" height="600"
	xmlns="http://www.w3.org/2000/svg">
	xmlns:ndjsontosvg="https://github.com/thompson318/ndjsontosvg"
	xmlns:quickdraw="https://quickdraw.withgoogle.com/data"
	xmlns:scikit-surgery="https://doi.org/10.1007/s11548-020-02180-5">

	<rect width="100%" height="100%" fill="white" />
	<path d = "M 285.94 89.06 L 281.25 171.09 L 243.75 220.31 L 236.72 276.56" stroke="black" fill="transparent"/>
	<path d = "M 309.38 86.72 L 300.00 178.12 L 337.50 208.59 L 349.22 222.66 L 342.19 257.81 L 332.81 274.22 L 332.81 262.50" stroke="black" fill="transparent"/>
	<path d = "M 274.22 91.41 L 316.41 91.41 L 318.75 72.66 L 297.66 67.97 L 283.59 75.00 L 269.53 86.72 L 276.56 96.09" stroke="black" fill="transparent"/>
	<path d = "M 344.53 133.59 L 335.16 86.72 L 323.44 98.44 L 337.50 84.38 L 356.25 93.75" stroke="black" fill="transparent"/>
	<path d = "M 276.56 91.41 L 316.41 89.06 L 314.06 70.31 L 285.94 67.97 L 271.88 86.72 L 276.56 98.44 L 321.09 86.72 L 325.78 72.66 L 311.72 63.28 L 264.84 70.31 L 264.84 89.06 L 290.62 91.41 L 314.06 79.69 L 318.75 58.59 L 274.22 51.56 L 229.69 67.97 L 271.88 145.31 L 318.75 142.97 L 407.81 114.84 L 431.25 98.44 L 442.97 67.97 L 428.91 53.91 L 400.78 46.88 L 351.56 51.56 L 262.50 82.03 L 227.34 100.78 L 220.31 112.50 L 234.38 117.19 L 389.06 0.00 L 246.09 4.69 L 63.28 49.22 L 46.88 63.28 L 67.97 70.31 L 161.72 75.00 L 309.38 67.97 L 597.66 30.47 L 232.03 79.69 L 349.22 194.53 L 459.38 192.19 L 597.66 173.44 L 597.66 164.06 L 480.47 157.03 L 39.84 154.69 L 0.00 157.03 L 2.34 173.44 L 21.09 180.47" stroke="black" fill="transparent"/>
</svg>