<?xml version="1.0" encoding="UTF-8" standalone="no"?>
<!--Created with ndjsontosvg (https:https://github.com/thompson318/ndjsontosvg) 
	from the simplified Google quickdraw data set. key_id = 5896817784913920-->
<svg width="600" height="600"
	xmlns="http://www.w3.org/2000/svg">
	xmlns:ndjsontosvg="https://github.com/thompson318/ndjsontosvg"
	xmlns:quickdraw="https://quickdraw.withgoogle.com/data"
	xmlns:scikit-surgery="https://doi.org/10.1007/s11548-020-02180-5">

	<rect width="100%" height="100%" fill="white" />
	<path d = "M 14.06 21.09 L 124.22 21.09 L 203.91 0.00 L 316.41 0.00 L 370.31 21.09 L 499.22 44.53 L 520.31 56.25 L 578.91 105.47 L 592.97 128.91 L 487.50 138.28 L 372.66 168.75 L 339.84 185.16 L 117.19 208.59 L 93.75 203.91 L 65.62 185.16 L 56.25 150.00 L 4.69 79.69 L 0.00 53.91 L 21.09 103.12 L 44.53 236.72 L 70.31 255.47 L 79.69 300.00 L 105.47 288.28 L 114.84 309.38 L 138.28 314.06 L 185.16 274.22 L 208.59 302.34 L 213.28 328.12 L 239.06 323.44 L 253.12 300.00 L 274.22 292.97 L 292.97 344.53 L 318.75 363.28 L 342.19 339.84 L 414.84 302.34 L 464.06 379.69 L 485.16 372.66 L 496.88 304.69 L 503.91 332.81 L 553.12 405.47 L 574.22 414.84 L 592.97 379.69 L 597.66 133.59" stroke="black" fill="transparent"/>
</svg>