<?xml version="1.0" encoding="UTF-8" standalone="no"?>
<!--Created with ndjsontosvg (https:https://github.com/thompson318/ndjsontosvg) 
	from the simplified Google quickdraw data set. key_id = 5913985222180864-->
<svg width="600" height="600"
	xmlns="http://www.w3.org/2000/svg">
	xmlns:ndjsontosvg="https://github.com/thompson318/ndjsontosvg"
	xmlns:quickdraw="https://quickdraw.withgoogle.com/data"
	xmlns:scikit-surgery="https://doi.org/10.1007/s11548-020-02180-5">

	<rect width="100%" height="100%" fill="white" />
	<path d = "M 285.94 126.56 L 257.81 126.56 L 232.03 138.28 L 185.16 187.50 L 168.75 262.50 L 168.75 318.75 L 178.12 339.84 L 196.88 353.91 L 274.22 370.31 L 419.53 365.62 L 440.62 349.22 L 466.41 281.25 L 471.09 201.56 L 461.72 180.47 L 412.50 133.59 L 370.31 119.53 L 300.00 119.53 L 262.50 126.56 L 257.81 135.94" stroke="black" fill="transparent"/>
	<path d = "M 154.69 154.69 L 166.41 39.84 L 187.50 23.44 L 208.59 18.75 L 229.69 25.78 L 250.78 46.88 L 307.03 23.44 L 330.47 23.44 L 356.25 42.19 L 382.03 35.16 L 433.59 0.00 L 452.34 11.72 L 485.16 67.97 L 501.56 119.53 L 574.22 154.69 L 567.19 222.66 L 571.88 246.09 L 597.66 292.97 L 548.44 309.38 L 543.75 342.19 L 550.78 391.41 L 536.72 407.81 L 454.69 454.69 L 424.22 506.25 L 403.12 508.59 L 351.56 478.12 L 328.12 478.12 L 290.62 503.91 L 178.12 492.19 L 161.72 468.75 L 150.00 417.19 L 126.56 405.47 L 77.34 407.81 L 37.50 377.34 L 0.00 316.41 L 0.00 297.66 L 25.78 288.28 L 42.19 239.06 L 46.88 131.25 L 103.12 119.53 L 112.50 96.09 L 138.28 84.38 L 166.41 84.38" stroke="black" fill="transparent"/>
</svg>