<?xml version="1.0" encoding="UTF-8" standalone="no"?>
<!--Created with ndjsontosvg (https:https://github.com/thompson318/ndjsontosvg) 
	from the simplified Google quickdraw data set. key_id = 6676676689788928-->
<svg width="600" height="600"
	xmlns="http://www.w3.org/2000/svg">
	xmlns:ndjsontosvg="https://github.com/thompson318/ndjsontosvg"
	xmlns:quickdraw="https://quickdraw.withgoogle.com/data"
	xmlns:scikit-surgery="https://doi.org/10.1007/s11548-020-02180-5">

	<rect width="100%" height="100%" fill="white" />
	<path d = "M 454.69 168.75 L 267.19 161.72 L 124.22 126.56 L 49.22 93.75 L 23.44 75.00 L 21.09 35.16 L 60.94 11.72 L 86.72 2.34 L 171.09 0.00 L 321.09 4.69 L 464.06 44.53 L 555.47 91.41 L 581.25 112.50 L 595.31 138.28 L 597.66 154.69 L 585.94 166.41 L 517.97 189.84 L 431.25 192.19 L 386.72 203.91" stroke="black" fill="transparent"/>
	<path d = "M 2.34 42.19 L 0.00 89.06 L 39.84 84.38 L 49.22 124.22 L 60.94 119.53 L 89.06 166.41 L 100.78 154.69 L 105.47 140.62 L 121.88 161.72 L 135.94 168.75 L 145.31 154.69 L 157.03 147.66 L 171.09 173.44 L 182.81 180.47 L 194.53 173.44 L 227.34 213.28 L 239.06 210.94 L 250.78 185.16 L 264.84 185.16 L 288.28 229.69 L 300.00 217.97 L 309.38 192.19 L 332.81 234.38 L 349.22 229.69 L 360.94 201.56 L 377.34 232.03 L 400.78 246.09 L 461.72 171.09 L 475.78 171.09 L 489.84 201.56 L 499.22 206.25 L 546.09 187.50" stroke="black" fill="transparent"/>
</svg>