<?xml version="1.0" encoding="UTF-8" standalone="no"?>
<!--Created with ndjsontosvg (https:https://github.com/thompson318/ndjsontosvg) 
	from the simplified Google quickdraw data set. key_id = 4832979803176960-->
<svg width="600" height="600"
	xmlns="http://www.w3.org/2000/svg">
	xmlns:ndjsontosvg="https://github.com/thompson318/ndjsontosvg"
	xmlns:quickdraw="https://quickdraw.withgoogle.com/data"
	xmlns:scikit-surgery="https://doi.org/10.1007/s11548-020-02180-5">

	<rect width="100%" height="100%" fill="white" />
	<path d = "M 271.88 96.09 L 253.12 103.12 L 236.72 131.25 L 227.34 161.72 L 227.34 194.53 L 250.78 210.94 L 307.03 213.28 L 342.19 199.22 L 367.97 180.47 L 372.66 142.97 L 330.47 110.16 L 281.25 93.75" stroke="black" fill="transparent"/>
	<path d = "M 332.81 105.47 L 473.44 11.72 L 522.66 0.00 L 541.41 18.75 L 588.28 154.69 L 597.66 206.25 L 560.16 213.28 L 468.75 215.62 L 398.44 203.91 L 372.66 194.53 L 365.62 182.81" stroke="black" fill="transparent"/>
	<path d = "M 241.41 103.12 L 21.09 58.59 L 16.41 157.03 L 0.00 215.62 L 53.91 220.31 L 217.97 199.22 L 262.50 166.41" stroke="black" fill="transparent"/>
</svg>