<?xml version="1.0" encoding="UTF-8" standalone="no"?>
<!--Created with ndjsontosvg (https:https://github.com/thompson318/ndjsontosvg) 
	from the simplified Google quickdraw data set. key_id = 6477070169276416-->
<svg width="600" height="600"
	xmlns="http://www.w3.org/2000/svg">
	xmlns:ndjsontosvg="https://github.com/thompson318/ndjsontosvg"
	xmlns:quickdraw="https://quickdraw.withgoogle.com/data"
	xmlns:scikit-surgery="https://doi.org/10.1007/s11548-020-02180-5">

	<rect width="100%" height="100%" fill="white" />
	<path d = "M 346.88 206.25 L 346.88 206.25" stroke="black" fill="transparent"/>
	<path d = "M 295.31 100.78 L 264.84 154.69 L 241.41 225.00 L 241.41 246.09 L 267.19 278.91 L 356.25 285.94 L 567.19 196.88 L 597.66 135.94 L 597.66 112.50 L 534.38 0.00 L 323.44 46.88 L 210.94 215.62 L 208.59 295.31 L 227.34 351.56 L 243.75 346.88" stroke="black" fill="transparent"/>
	<path d = "M 91.41 117.19 L 63.28 51.56 L 32.81 25.78 L 4.69 60.94 L 0.00 98.44 L 18.75 131.25 L 63.28 180.47 L 89.06 217.97 L 96.09 215.62 L 145.31 154.69 L 152.34 131.25 L 152.34 70.31 L 138.28 32.81 L 98.44 37.50 L 86.72 46.88 L 79.69 67.97" stroke="black" fill="transparent"/>
</svg>