<?xml version="1.0" encoding="UTF-8" standalone="no"?>
<!--Created with ndjsontosvg (https:https://github.com/thompson318/ndjsontosvg) 
	from the simplified Google quickdraw data set. key_id = 6022255345664000-->
<svg width="600" height="600"
	xmlns="http://www.w3.org/2000/svg">
	xmlns:ndjsontosvg="https://github.com/thompson318/ndjsontosvg"
	xmlns:quickdraw="https://quickdraw.withgoogle.com/data"
	xmlns:scikit-surgery="https://doi.org/10.1007/s11548-020-02180-5">

	<rect width="100%" height="100%" fill="white" />
	<path d = "M 325.78 145.31 L 274.22 121.88 L 91.41 67.97 L 4.69 60.94 L 0.00 79.69 L 63.28 140.62 L 30.47 135.94 L 0.00 150.00 L 65.62 168.75 L 56.25 185.16 L 2.34 225.00" stroke="black" fill="transparent"/>
	<path d = "M 7.03 229.69 L 58.59 225.00 L 35.16 274.22 L 51.56 278.91 L 79.69 302.34 L 96.09 304.69" stroke="black" fill="transparent"/>
	<path d = "M 117.19 307.03 L 229.69 248.44 L 316.41 187.50" stroke="black" fill="transparent"/>
	<path d = "M 316.41 154.69 L 318.75 138.28 L 314.06 154.69 L 328.12 142.97 L 314.06 159.38 L 314.06 173.44 L 325.78 159.38 L 328.12 173.44 L 342.19 164.06" stroke="black" fill="transparent"/>
	<path d = "M 339.84 103.12 L 583.59 0.00 L 581.25 32.81 L 560.16 70.31 L 571.88 86.72 L 588.28 89.06 L 597.66 103.12 L 546.09 131.25 L 562.50 145.31 L 557.81 161.72 L 543.75 171.09 L 536.72 187.50 L 548.44 203.91 L 541.41 236.72 L 510.94 246.09 L 426.56 222.66 L 375.00 196.88 L 304.69 138.28" stroke="black" fill="transparent"/>
</svg>