<?xml version="1.0" encoding="UTF-8" standalone="no"?>
<!--Created with ndjsontosvg (https:https://github.com/thompson318/ndjsontosvg) 
	from the simplified Google quickdraw data set. key_id = 5637208503484416-->
<svg width="600" height="600"
	xmlns="http://www.w3.org/2000/svg">
	xmlns:ndjsontosvg="https://github.com/thompson318/ndjsontosvg"
	xmlns:quickdraw="https://quickdraw.withgoogle.com/data"
	xmlns:scikit-surgery="https://doi.org/10.1007/s11548-020-02180-5">

	<rect width="100%" height="100%" fill="white" />
	<path d = "M 297.66 84.38 L 257.81 100.78 L 232.03 138.28 L 236.72 182.81 L 274.22 206.25 L 332.81 210.94 L 358.59 185.16 L 360.94 145.31 L 353.91 117.19 L 337.50 100.78 L 309.38 86.72" stroke="black" fill="transparent"/>
	<path d = "M 300.00 75.00 L 236.72 63.28 L 175.78 21.09 L 119.53 2.34 L 51.56 4.69 L 30.47 18.75 L 21.09 39.84 L 4.69 105.47 L 0.00 164.06 L 9.38 199.22 L 30.47 225.00 L 65.62 234.38 L 164.06 220.31 L 213.28 208.59 L 257.81 187.50" stroke="black" fill="transparent"/>
	<path d = "M 349.22 98.44 L 421.88 63.28 L 560.16 56.25 L 574.22 65.62 L 592.97 98.44 L 597.66 171.09 L 576.56 213.28 L 527.34 255.47 L 452.34 257.81 L 419.53 250.78 L 353.91 222.66 L 337.50 203.91" stroke="black" fill="transparent"/>
</svg>