<?xml version="1.0" encoding="UTF-8" standalone="no"?>
<!--Created with ndjsontosvg (https:https://github.com/thompson318/ndjsontosvg) 
	from the simplified Google quickdraw data set. key_id = 5179229362716672-->
<svg width="600" height="600"
	xmlns="http://www.w3.org/2000/svg">
	xmlns:ndjsontosvg="https://github.com/thompson318/ndjsontosvg"
	xmlns:quickdraw="https://quickdraw.withgoogle.com/data"
	xmlns:scikit-surgery="https://doi.org/10.1007/s11548-020-02180-5">

	<rect width="100%" height="100%" fill="white" />
	<path d = "M 447.66 23.44 L 440.62 9.38 L 412.50 0.00 L 349.22 2.34 L 288.28 14.06 L 180.47 56.25 L 58.59 128.91 L 4.69 189.84 L 0.00 210.94 L 4.69 227.34 L 25.78 241.41 L 53.91 246.09 L 154.69 246.09 L 300.00 225.00 L 414.84 199.22 L 494.53 175.78 L 557.81 145.31 L 592.97 112.50 L 597.66 96.09 L 585.94 75.00 L 522.66 44.53 L 403.12 30.47 L 274.22 37.50" stroke="black" fill="transparent"/>
	<path d = "M 220.31 39.84 L 199.22 51.56 L 196.88 70.31 L 210.94 72.66 L 232.03 53.91 L 232.03 46.88 L 225.00 49.22 L 208.59 58.59" stroke="black" fill="transparent"/>
	<path d = "M 135.94 67.97 L 110.16 96.09 L 105.47 112.50 L 119.53 105.47 L 128.91 86.72 L 110.16 91.41 L 103.12 103.12" stroke="black" fill="transparent"/>
	<path d = "M 32.81 157.03 L 23.44 173.44 L 21.09 196.88 L 30.47 203.91 L 44.53 192.19 L 37.50 182.81 L 9.38 196.88" stroke="black" fill="transparent"/>
	<path d = "M 119.53 229.69 L 126.56 250.78 L 154.69 241.41 L 150.00 250.78 L 166.41 257.81" stroke="black" fill="transparent"/>
	<path d = "M 267.19 208.59 L 267.19 215.62 L 281.25 220.31 L 300.00 208.59 L 292.97 220.31 L 295.31 225.00 L 325.78 232.03" stroke="black" fill="transparent"/>
	<path d = "M 393.75 180.47 L 403.12 215.62 L 417.19 215.62 L 438.28 203.91 L 445.31 192.19 L 438.28 187.50 L 428.91 201.56 L 438.28 208.59" stroke="black" fill="transparent"/>
	<path d = "M 506.25 157.03 L 510.94 171.09 L 522.66 173.44 L 539.06 159.38 L 541.41 142.97" stroke="black" fill="transparent"/>
	<path d = "M 478.12 30.47 L 466.41 56.25" stroke="black" fill="transparent"/>
</svg>