<?xml version="1.0" encoding="UTF-8" standalone="no"?>
<!--Created with ndjsontosvg (https:https://github.com/thompson318/ndjsontosvg) 
	from the simplified Google quickdraw data set. key_id = 5441197470384128-->
<svg width="600" height="600"
	xmlns="http://www.w3.org/2000/svg">
	xmlns:ndjsontosvg="https://github.com/thompson318/ndjsontosvg"
	xmlns:quickdraw="https://quickdraw.withgoogle.com/data"
	xmlns:scikit-surgery="https://doi.org/10.1007/s11548-020-02180-5">

	<rect width="100%" height="100%" fill="white" />
	<path d = "M 185.16 21.09 L 135.94 28.12 L 58.59 56.25 L 35.16 77.34 L 4.69 140.62 L 2.34 227.34 L 25.78 283.59 L 72.66 342.19 L 248.44 468.75 L 325.78 503.91 L 405.47 527.34 L 473.44 529.69 L 515.62 517.97 L 548.44 499.22 L 581.25 464.06 L 597.66 426.56 L 597.66 396.09 L 555.47 323.44 L 522.66 248.44 L 496.88 210.94 L 365.62 100.78 L 349.22 75.00 L 318.75 46.88 L 220.31 0.00 L 187.50 0.00 L 185.16 7.03" stroke="black" fill="transparent"/>
	<path d = "M 187.50 46.88 L 91.41 58.59 L 65.62 72.66 L 53.91 84.38 L 35.16 126.56 L 35.16 157.03 L 58.59 232.03 L 77.34 264.84 L 133.59 316.41 L 164.06 337.50 L 215.62 396.09 L 323.44 450.00 L 431.25 482.81 L 466.41 485.16 L 489.84 482.81 L 529.69 454.69 L 543.75 433.59 L 543.75 398.44 L 517.97 321.09 L 461.72 222.66 L 419.53 171.09 L 389.06 150.00 L 300.00 121.88 L 243.75 70.31 L 213.28 65.62" stroke="black" fill="transparent"/>
</svg>