<?xml version="1.0" encoding="UTF-8" standalone="no"?>
<!--Created with ndjsontosvg (https:https://github.com/thompson318/ndjsontosvg) 
	from the simplified Google quickdraw data set. key_id = 5973934006599680-->
<svg width="600" height="600"
	xmlns="http://www.w3.org/2000/svg">
	xmlns:ndjsontosvg="https://github.com/thompson318/ndjsontosvg"
	xmlns:quickdraw="https://quickdraw.withgoogle.com/data"
	xmlns:scikit-surgery="https://doi.org/10.1007/s11548-020-02180-5">

	<rect width="100%" height="100%" fill="white" />
	<path d = "M 426.56 119.53 L 421.88 96.09 L 367.97 46.88 L 309.38 18.75 L 232.03 16.41 L 159.38 51.56 L 56.25 126.56 L 23.44 157.03 L 2.34 196.88 L 2.34 248.44 L 25.78 288.28 L 72.66 323.44 L 173.44 358.59 L 267.19 372.66 L 360.94 372.66 L 426.56 353.91 L 466.41 330.47 L 506.25 295.31 L 527.34 246.09 L 529.69 142.97 L 513.28 91.41 L 480.47 51.56 L 403.12 0.00" stroke="black" fill="transparent"/>
	<path d = "M 466.41 53.91 L 442.97 39.84 L 410.16 37.50 L 375.00 72.66 L 363.28 107.81 L 382.03 131.25 L 410.16 145.31 L 478.12 150.00 L 513.28 133.59 L 517.97 91.41 L 510.94 79.69 L 499.22 72.66 L 496.88 82.03 L 494.53 121.88 L 529.69 210.94 L 548.44 234.38 L 597.66 264.84 L 499.22 199.22 L 492.19 187.50" stroke="black" fill="transparent"/>
	<path d = "M 541.41 175.78 L 501.56 147.66 L 485.16 145.31 L 452.34 145.31 L 405.47 173.44 L 396.09 201.56 L 403.12 225.00 L 450.00 253.12 L 532.03 267.19 L 569.53 201.56 L 574.22 166.41 L 564.84 142.97" stroke="black" fill="transparent"/>
</svg>