<?xml version="1.0" encoding="UTF-8" standalone="no"?>
<!--Created with ndjsontosvg (https:https://github.com/thompson318/ndjsontosvg) 
	from the simplified Google quickdraw data set. key_id = 6284634595786752-->
<svg width="600" height="600"
	xmlns="http://www.w3.org/2000/svg">
	xmlns:ndjsontosvg="https://github.com/thompson318/ndjsontosvg"
	xmlns:quickdraw="https://quickdraw.withgoogle.com/data"
	xmlns:scikit-surgery="https://doi.org/10.1007/s11548-020-02180-5">

	<rect width="100%" height="100%" fill="white" />
	<path d = "M 23.44 175.78 L 98.44 124.22 L 194.53 75.00 L 367.97 11.72 L 435.94 0.00 L 485.16 21.09 L 529.69 77.34 L 590.62 185.16 L 597.66 227.34 L 588.28 267.19 L 508.59 400.78 L 447.66 471.09 L 351.56 548.44 L 281.25 571.88 L 220.31 578.91 L 150.00 578.91 L 114.84 564.84 L 58.59 506.25 L 28.12 461.72 L 0.00 377.34 L 7.03 328.12 L 32.81 255.47 L 25.78 194.53" stroke="black" fill="transparent"/>
	<path d = "M 51.56 208.59 L 56.25 281.25 L 72.66 360.94 L 82.03 377.34 L 145.31 433.59 L 180.47 454.69 L 246.09 473.44 L 281.25 473.44 L 365.62 438.28 L 438.28 393.75 L 506.25 297.66 L 525.00 250.78 L 529.69 213.28 L 513.28 164.06 L 471.09 110.16 L 438.28 89.06 L 400.78 75.00 L 323.44 75.00 L 281.25 91.41 L 220.31 147.66 L 192.19 161.72 L 147.66 180.47 L 16.41 217.97" stroke="black" fill="transparent"/>
</svg>