<?xml version="1.0" encoding="UTF-8" standalone="no"?>
<!--Created with ndjsontosvg (https:https://github.com/thompson318/ndjsontosvg) 
	from the simplified Google quickdraw data set. key_id = 4957009851973632-->
<svg width="600" height="600"
	xmlns="http://www.w3.org/2000/svg">
	xmlns:ndjsontosvg="https://github.com/thompson318/ndjsontosvg"
	xmlns:quickdraw="https://quickdraw.withgoogle.com/data"
	xmlns:scikit-surgery="https://doi.org/10.1007/s11548-020-02180-5">

	<rect width="100%" height="100%" fill="white" />
	<path d = "M 271.88 18.75 L 194.53 21.09 L 112.50 35.16 L 60.94 60.94 L 30.47 100.78 L 2.34 180.47 L 2.34 255.47 L 18.75 300.00 L 58.59 339.84 L 105.47 363.28 L 166.41 379.69 L 255.47 391.41 L 321.09 391.41 L 384.38 363.28 L 414.84 330.47 L 426.56 292.97 L 428.91 220.31 L 393.75 121.88 L 337.50 44.53 L 246.09 0.00" stroke="black" fill="transparent"/>
	<path d = "M 309.38 28.12 L 314.06 18.75 L 337.50 16.41 L 344.53 30.47 L 342.19 53.91 L 323.44 53.91 L 309.38 39.84 L 307.03 23.44 L 325.78 18.75" stroke="black" fill="transparent"/>
	<path d = "M 344.53 49.22 L 379.69 58.59 L 386.72 82.03 L 377.34 86.72 L 356.25 70.31 L 353.91 53.91 L 367.97 49.22" stroke="black" fill="transparent"/>
	<path d = "M 377.34 91.41 L 412.50 93.75 L 414.84 128.91 L 398.44 135.94 L 384.38 128.91 L 375.00 112.50 L 379.69 103.12 L 403.12 98.44" stroke="black" fill="transparent"/>
	<path d = "M 403.12 152.34 L 442.97 147.66 L 450.00 154.69 L 452.34 199.22 L 424.22 213.28 L 407.81 199.22 L 398.44 164.06 L 457.03 152.34" stroke="black" fill="transparent"/>
	<path d = "M 419.53 229.69 L 433.59 217.97 L 452.34 217.97 L 459.38 222.66 L 461.72 246.09 L 445.31 255.47 L 438.28 250.78 L 424.22 220.31" stroke="black" fill="transparent"/>
	<path d = "M 597.66 166.41 L 548.44 222.66" stroke="black" fill="transparent"/>
</svg>