<?xml version="1.0" encoding="UTF-8" standalone="no"?>
<!--Created with ndjsontosvg (https:https://github.com/thompson318/ndjsontosvg) 
	from the simplified Google quickdraw data set. key_id = 6499442515509248-->
<svg width="600" height="600"
	xmlns="http://www.w3.org/2000/svg">
	xmlns:ndjsontosvg="https://github.com/thompson318/ndjsontosvg"
	xmlns:quickdraw="https://quickdraw.withgoogle.com/data"
	xmlns:scikit-surgery="https://doi.org/10.1007/s11548-020-02180-5">

	<rect width="100%" height="100%" fill="white" />
	<path d = "M 105.47 196.88 L 107.81 180.47 L 159.38 147.66 L 239.06 135.94 L 288.28 138.28 L 309.38 147.66 L 496.88 281.25 L 525.00 325.78 L 534.38 417.19 L 478.12 496.88 L 426.56 536.72 L 389.06 546.09 L 337.50 546.09 L 271.88 517.97 L 262.50 501.56 L 227.34 480.47 L 180.47 433.59 L 150.00 339.84 L 112.50 292.97 L 46.88 271.88 L 35.16 253.12 L 32.81 236.72 L 107.81 187.50" stroke="black" fill="transparent"/>
	<path d = "M 28.12 227.34 L 11.72 225.00 L 0.00 208.59 L 2.34 152.34 L 91.41 63.28 L 152.34 21.09 L 189.84 7.03 L 283.59 0.00 L 325.78 25.78 L 426.56 117.19 L 473.44 178.12 L 520.31 201.56 L 567.19 215.62 L 581.25 229.69 L 597.66 314.06 L 571.88 344.53 L 517.97 379.69" stroke="black" fill="transparent"/>
	<path d = "M 110.16 234.38 L 173.44 243.75 L 180.47 260.16 L 210.94 274.22 L 220.31 290.62 L 229.69 370.31 L 250.78 398.44" stroke="black" fill="transparent"/>
	<path d = "M 269.53 246.09 L 307.03 297.66 L 370.31 323.44 L 382.03 360.94 L 379.69 445.31" stroke="black" fill="transparent"/>
	<path d = "M 414.84 297.66 L 442.97 323.44 L 450.00 363.28" stroke="black" fill="transparent"/>
	<path d = "M 98.44 119.53 L 147.66 96.09 L 157.03 110.16" stroke="black" fill="transparent"/>
</svg>