<?xml version="1.0" encoding="UTF-8" standalone="no"?>
<!--Created with ndjsontosvg (https:https://github.com/thompson318/ndjsontosvg) 
	from the simplified Google quickdraw data set. key_id = 6515054067318784-->
<svg width="600" height="600"
	xmlns="http://www.w3.org/2000/svg">
	xmlns:ndjsontosvg="https://github.com/thompson318/ndjsontosvg"
	xmlns:quickdraw="https://quickdraw.withgoogle.com/data"
	xmlns:scikit-surgery="https://doi.org/10.1007/s11548-020-02180-5">

	<rect width="100%" height="100%" fill="white" />
	<path d = "M 2.34 534.38 L 21.09 471.09 L 84.38 356.25 L 285.94 135.94 L 358.59 63.28 L 457.03 2.34 L 475.78 0.00 L 520.31 18.75 L 543.75 32.81 L 576.56 65.62 L 597.66 128.91 L 592.97 208.59 L 555.47 309.38 L 480.47 438.28 L 426.56 489.84 L 321.09 553.12 L 185.16 588.28 L 75.00 597.66 L 18.75 574.22 L 2.34 541.41 L 0.00 515.62 L 7.03 508.59" stroke="black" fill="transparent"/>
	<path d = "M 98.44 431.25 L 131.25 473.44 L 196.88 532.03" stroke="black" fill="transparent"/>
	<path d = "M 173.44 379.69 L 199.22 389.06 L 288.28 480.47" stroke="black" fill="transparent"/>
	<path d = "M 260.16 278.91 L 375.00 384.38" stroke="black" fill="transparent"/>
	<path d = "M 335.16 217.97 L 475.78 328.12" stroke="black" fill="transparent"/>
	<path d = "M 405.47 133.59 L 440.62 159.38 L 489.84 208.59" stroke="black" fill="transparent"/>
	<path d = "M 426.56 82.03 L 494.53 128.91" stroke="black" fill="transparent"/>
</svg>