<?xml version="1.0" encoding="UTF-8" standalone="no"?>
<!--Created with ndjsontosvg (https:https://github.com/thompson318/ndjsontosvg) 
	from the simplified Google quickdraw data set. key_id = 4924034603024384-->
<svg width="600" height="600"
	xmlns="http://www.w3.org/2000/svg">
	xmlns:ndjsontosvg="https://github.com/thompson318/ndjsontosvg"
	xmlns:quickdraw="https://quickdraw.withgoogle.com/data"
	xmlns:scikit-surgery="https://doi.org/10.1007/s11548-020-02180-5">

	<rect width="100%" height="100%" fill="white" />
	<path d = "M 89.06 323.44 L 51.56 309.38 L 16.41 274.22 L 0.00 232.03 L 11.72 225.00 L 18.75 173.44 L 98.44 91.41 L 194.53 30.47 L 269.53 2.34 L 318.75 0.00 L 372.66 11.72 L 438.28 44.53 L 464.06 82.03 L 485.16 84.38 L 550.78 225.00 L 546.09 246.09 L 520.31 276.56 L 459.38 297.66 L 447.66 342.19 L 445.31 555.47 L 438.28 567.19 L 386.72 588.28 L 318.75 597.66 L 241.41 592.97 L 154.69 553.12 L 135.94 550.78 L 119.53 513.28 L 117.19 435.94 L 89.06 342.19" stroke="black" fill="transparent"/>
</svg>