<?xml version="1.0" encoding="UTF-8" standalone="no"?>
<!--Created with ndjsontosvg (https:https://github.com/thompson318/ndjsontosvg) 
	from the simplified Google quickdraw data set. key_id = 6201863273709568-->
<svg width="600" height="600"
	xmlns="http://www.w3.org/2000/svg">
	xmlns:ndjsontosvg="https://github.com/thompson318/ndjsontosvg"
	xmlns:quickdraw="https://quickdraw.withgoogle.com/data"
	xmlns:scikit-surgery="https://doi.org/10.1007/s11548-020-02180-5">

	<rect width="100%" height="100%" fill="white" />
	<path d = "M 414.84 4.69 L 391.41 4.69 L 185.16 65.62 L 131.25 93.75 L 42.19 175.78 L 4.69 243.75 L 2.34 302.34 L 32.81 325.78 L 112.50 339.84 L 164.06 339.84 L 208.59 330.47 L 281.25 300.00 L 510.94 171.09 L 583.59 110.16 L 597.66 56.25 L 574.22 30.47 L 520.31 11.72 L 454.69 2.34 L 377.34 4.69" stroke="black" fill="transparent"/>
	<path d = "M 114.84 180.47 L 215.62 175.78 L 335.16 194.53 L 283.59 199.22 L 182.81 187.50 L 105.47 189.84" stroke="black" fill="transparent"/>
	<path d = "M 248.44 103.12 L 382.03 91.41 L 450.00 100.78 L 468.75 105.47 L 466.41 110.16 L 323.44 100.78 L 227.34 105.47" stroke="black" fill="transparent"/>
	<path d = "M 363.28 32.81 L 466.41 35.16 L 508.59 46.88 L 328.12 46.88" stroke="black" fill="transparent"/>
</svg>