<?xml version="1.0" encoding="UTF-8" standalone="no"?>
<!--Created with ndjsontosvg (https:https://github.com/thompson318/ndjsontosvg) 
	from the simplified Google quickdraw data set. key_id = 6745952163463168-->
<svg width="600" height="600"
	xmlns="http://www.w3.org/2000/svg">
	xmlns:ndjsontosvg="https://github.com/thompson318/ndjsontosvg"
	xmlns:quickdraw="https://quickdraw.withgoogle.com/data"
	xmlns:scikit-surgery="https://doi.org/10.1007/s11548-020-02180-5">

	<rect width="100%" height="100%" fill="white" />
	<path d = "M 30.47 396.09 L 46.88 360.94 L 82.03 323.44 L 150.00 276.56 L 222.66 257.81 L 314.06 248.44 L 389.06 267.19 L 471.09 323.44 L 506.25 363.28 L 529.69 405.47 L 529.69 419.53" stroke="black" fill="transparent"/>
	<path d = "M 0.00 321.09 L 39.84 243.75 L 91.41 199.22 L 140.62 173.44 L 206.25 147.66 L 274.22 133.59 L 379.69 133.59 L 426.56 145.31 L 459.38 164.06 L 569.53 267.19 L 595.31 314.06 L 592.97 400.78" stroke="black" fill="transparent"/>
	<path d = "M 382.03 403.12 L 386.72 253.12 L 433.59 133.59 L 433.59 107.81 L 403.12 0.00" stroke="black" fill="transparent"/>
	<path d = "M 215.62 403.12 L 199.22 283.59 L 166.41 220.31" stroke="black" fill="transparent"/>
</svg>