<?xml version="1.0" encoding="UTF-8" standalone="no"?>
<!--Created with ndjsontosvg (https:https://github.com/thompson318/ndjsontosvg) 
	from the simplified Google quickdraw data set. key_id = 5738270845566976-->
<svg width="600" height="600"
	xmlns="http://www.w3.org/2000/svg">
	xmlns:ndjsontosvg="https://github.com/thompson318/ndjsontosvg"
	xmlns:quickdraw="https://quickdraw.withgoogle.com/data"
	xmlns:scikit-surgery="https://doi.org/10.1007/s11548-020-02180-5">

	<rect width="100%" height="100%" fill="white" />
	<path d = "M 194.53 539.06 L 248.44 450.00 L 276.56 389.06" stroke="black" fill="transparent"/>
	<path d = "M 349.22 597.66 L 335.16 581.25 L 325.78 525.00 L 330.47 461.72 L 344.53 410.16" stroke="black" fill="transparent"/>
	<path d = "M 192.19 539.06 L 241.41 564.84 L 314.06 588.28" stroke="black" fill="transparent"/>
	<path d = "M 255.47 438.28 L 196.88 419.53 L 152.34 386.72 L 112.50 332.81 L 112.50 304.69 L 126.56 278.91 L 150.00 260.16 L 222.66 264.84 L 178.12 232.03 L 157.03 208.59 L 145.31 182.81 L 154.69 147.66 L 185.16 98.44 L 199.22 86.72 L 227.34 84.38 L 297.66 135.94 L 300.00 91.41 L 316.41 53.91 L 332.81 25.78 L 363.28 16.41 L 396.09 28.12 L 426.56 65.62 L 426.56 100.78 L 405.47 133.59 L 450.00 124.22 L 499.22 135.94 L 506.25 150.00 L 499.22 168.75 L 466.41 206.25 L 503.91 208.59 L 546.09 234.38 L 548.44 253.12 L 539.06 276.56 L 496.88 309.38 L 532.03 318.75 L 548.44 337.50 L 550.78 360.94 L 522.66 396.09 L 503.91 407.81 L 517.97 435.94 L 503.91 457.03 L 478.12 475.78 L 450.00 482.81 L 417.19 475.78 L 346.88 435.94" stroke="black" fill="transparent"/>
	<path d = "M 269.53 391.41 L 260.16 353.91 L 267.19 323.44 L 253.12 229.69" stroke="black" fill="transparent"/>
	<path d = "M 323.44 363.28 L 318.75 330.47 L 328.12 260.16 L 337.50 213.28 L 353.91 189.84" stroke="black" fill="transparent"/>
	<path d = "M 358.59 379.69 L 363.28 358.59 L 421.88 274.22" stroke="black" fill="transparent"/>
	<path d = "M 206.25 264.84 L 114.84 225.00 L 112.50 236.72 L 67.97 264.84 L 39.84 267.19 L 14.06 250.78 L 0.00 225.00 L 0.00 203.91 L 16.41 194.53 L 49.22 210.94 L 32.81 201.56 L 32.81 168.75 L 56.25 138.28 L 89.06 126.56 L 121.88 150.00 L 135.94 171.09 L 140.62 194.53 L 133.59 248.44" stroke="black" fill="transparent"/>
	<path d = "M 250.78 124.22 L 199.22 75.00 L 164.06 77.34 L 142.97 60.94 L 138.28 42.19 L 142.97 28.12 L 173.44 2.34 L 196.88 9.38 L 203.91 21.09 L 217.97 7.03 L 241.41 0.00 L 257.81 9.38 L 262.50 63.28 L 234.38 157.03" stroke="black" fill="transparent"/>
</svg>