<?xml version="1.0" encoding="UTF-8" standalone="no"?>
<!--Created with ndjsontosvg (https:https://github.com/thompson318/ndjsontosvg) 
	from the simplified Google quickdraw data set. key_id = 6430802831212544-->
<svg width="600" height="600"
	xmlns="http://www.w3.org/2000/svg">
	xmlns:ndjsontosvg="https://github.com/thompson318/ndjsontosvg"
	xmlns:quickdraw="https://quickdraw.withgoogle.com/data"
	xmlns:scikit-surgery="https://doi.org/10.1007/s11548-020-02180-5">

	<rect width="100%" height="100%" fill="white" />
	<path d = "M 234.38 138.28 L 281.25 220.31 L 295.31 255.47 L 302.34 442.97" stroke="black" fill="transparent"/>
	<path d = "M 393.75 419.53 L 391.41 396.09 L 407.81 318.75 L 442.97 210.94 L 464.06 173.44 L 492.19 147.66 L 513.28 133.59 L 541.41 128.91" stroke="black" fill="transparent"/>
	<path d = "M 400.78 210.94 L 447.66 147.66 L 478.12 126.56 L 515.62 117.19" stroke="black" fill="transparent"/>
	<path d = "M 367.97 196.88 L 384.38 142.97 L 389.06 93.75 L 384.38 82.03" stroke="black" fill="transparent"/>
	<path d = "M 337.50 182.81 L 346.88 126.56 L 358.59 96.09 L 372.66 82.03" stroke="black" fill="transparent"/>
	<path d = "M 302.34 182.81 L 300.00 126.56 L 269.53 86.72" stroke="black" fill="transparent"/>
	<path d = "M 239.06 89.06 L 278.91 142.97 L 285.94 175.78" stroke="black" fill="transparent"/>
	<path d = "M 236.72 152.34 L 222.66 173.44 L 164.06 187.50 L 142.97 175.78 L 140.62 159.38 L 152.34 147.66 L 150.00 161.72 L 135.94 171.09 L 117.19 157.03 L 114.84 112.50 L 126.56 103.12 L 150.00 100.78 L 161.72 114.84 L 152.34 117.19 L 145.31 112.50 L 138.28 84.38 L 154.69 65.62 L 175.78 56.25 L 194.53 58.59 L 196.88 72.66 L 185.16 75.00 L 178.12 65.62 L 175.78 56.25 L 187.50 44.53 L 246.09 39.84 L 264.84 46.88 L 253.12 58.59 L 257.81 42.19 L 281.25 25.78 L 342.19 11.72 L 372.66 21.09 L 370.31 35.16 L 356.25 44.53 L 351.56 39.84 L 356.25 23.44 L 405.47 2.34 L 435.94 9.38 L 445.31 28.12 L 435.94 35.16 L 428.91 30.47 L 435.94 14.06 L 487.50 0.00 L 513.28 11.72 L 522.66 32.81 L 517.97 53.91 L 494.53 58.59 L 501.56 46.88 L 525.00 42.19 L 560.16 86.72 L 564.84 117.19 L 543.75 126.56 L 541.41 119.53 L 550.78 112.50 L 578.91 110.16 L 595.31 124.22 L 597.66 147.66 L 588.28 171.09 L 571.88 182.81 L 515.62 171.09 L 529.69 175.78 L 539.06 194.53 L 539.06 208.59 L 525.00 215.62 L 489.84 215.62 L 461.72 192.19 L 442.97 189.84" stroke="black" fill="transparent"/>
	<path d = "M 300.00 199.22 L 35.16 236.72 L 0.00 246.09 L 9.38 250.78" stroke="black" fill="transparent"/>
</svg>