<?xml version="1.0" encoding="UTF-8" standalone="no"?>
<!--Created with ndjsontosvg (https:https://github.com/thompson318/ndjsontosvg) 
	from the simplified Google quickdraw data set. key_id = 6254110024138752-->
<svg width="600" height="600"
	xmlns="http://www.w3.org/2000/svg">
	xmlns:ndjsontosvg="https://github.com/thompson318/ndjsontosvg"
	xmlns:quickdraw="https://quickdraw.withgoogle.com/data"
	xmlns:scikit-surgery="https://doi.org/10.1007/s11548-020-02180-5">

	<rect width="100%" height="100%" fill="white" />
	<path d = "M 180.47 569.53 L 189.84 548.44 L 208.59 532.03 L 220.31 447.66 L 215.62 316.41 L 206.25 309.38 L 166.41 311.72 L 147.66 283.59 L 96.09 316.41 L 51.56 328.12 L 42.19 323.44 L 18.75 260.16 L 16.41 225.00 L 14.06 234.38 L 4.69 217.97 L 0.00 119.53 L 25.78 60.94 L 32.81 53.91 L 39.84 58.59 L 51.56 46.88 L 67.97 46.88 L 84.38 16.41 L 93.75 37.50 L 138.28 2.34 L 180.47 32.81 L 199.22 21.09 L 295.31 0.00 L 302.34 4.69 L 304.69 37.50 L 330.47 23.44 L 344.53 56.25 L 358.59 58.59 L 365.62 67.97 L 365.62 89.06 L 363.28 82.03 L 375.00 77.34 L 412.50 77.34 L 468.75 89.06 L 489.84 103.12 L 489.84 124.22 L 475.78 142.97 L 438.28 171.09 L 445.31 166.41 L 447.66 189.84 L 433.59 271.88 L 367.97 321.09 L 297.66 356.25 L 297.66 539.06 L 304.69 597.66" stroke="black" fill="transparent"/>
</svg>