<?xml version="1.0" encoding="UTF-8" standalone="no"?>
<!--Created with ndjsontosvg (https:https://github.com/thompson318/ndjsontosvg) 
	from the simplified Google quickdraw data set. key_id = 5044025016975360-->
<svg width="600" height="600"
	xmlns="http://www.w3.org/2000/svg">
	xmlns:ndjsontosvg="https://github.com/thompson318/ndjsontosvg"
	xmlns:quickdraw="https://quickdraw.withgoogle.com/data"
	xmlns:scikit-surgery="https://doi.org/10.1007/s11548-020-02180-5">

	<rect width="100%" height="100%" fill="white" />
	<path d = "M 220.31 314.06 L 234.38 365.62 L 234.38 410.16 L 210.94 520.31 L 203.91 546.09 L 168.75 553.12 L 157.03 569.53 L 166.41 585.94 L 192.19 595.31 L 304.69 597.66 L 302.34 578.91 L 276.56 560.16 L 246.09 403.12 L 274.22 358.59 L 276.56 311.72 L 274.22 412.50 L 250.78 578.91" stroke="black" fill="transparent"/>
	<path d = "M 243.75 304.69 L 217.97 300.00" stroke="black" fill="transparent"/>
	<path d = "M 220.31 316.41 L 225.00 304.69" stroke="black" fill="transparent"/>
	<path d = "M 222.66 302.34 L 208.59 283.59 L 201.56 248.44 L 220.31 246.09 L 236.72 262.50 L 239.06 290.62 L 232.03 307.03 L 222.66 307.03 L 227.34 285.94 L 253.12 243.75 L 271.88 232.03 L 290.62 232.03 L 295.31 239.06 L 278.91 271.88 L 250.78 292.97 L 225.00 295.31 L 222.66 285.94 L 260.16 253.12 L 321.09 229.69 L 349.22 232.03 L 360.94 241.41 L 356.25 281.25 L 337.50 302.34 L 316.41 311.72 L 262.50 307.03 L 260.16 285.94 L 276.56 264.84 L 316.41 232.03 L 363.28 220.31 L 370.31 206.25 L 365.62 159.38 L 332.81 128.91 L 304.69 131.25 L 288.28 192.19 L 302.34 222.66 L 321.09 229.69 L 353.91 227.34 L 375.00 203.91 L 377.34 178.12 L 339.84 107.81 L 285.94 65.62 L 257.81 56.25 L 222.66 53.91 L 206.25 60.94 L 194.53 77.34 L 182.81 135.94 L 182.81 206.25 L 199.22 222.66 L 227.34 222.66 L 307.03 182.81 L 344.53 150.00 L 360.94 117.19 L 365.62 56.25 L 349.22 39.84 L 297.66 37.50 L 213.28 63.28 L 199.22 79.69 L 182.81 150.00 L 187.50 232.03 L 217.97 288.28 L 250.78 300.00 L 285.94 295.31 L 297.66 285.94 L 321.09 255.47 L 330.47 225.00 L 328.12 164.06 L 295.31 96.09 L 253.12 49.22 L 206.25 18.75 L 145.31 0.00 L 86.72 2.34 L 67.97 18.75 L 56.25 46.88 L 56.25 133.59 L 72.66 171.09 L 112.50 203.91 L 154.69 227.34 L 203.91 229.69 L 227.34 225.00 L 257.81 208.59 L 288.28 180.47 L 292.97 157.03 L 285.94 114.84 L 257.81 75.00 L 201.56 39.84 L 150.00 32.81 L 114.84 44.53 L 89.06 84.38 L 86.72 161.72 L 96.09 196.88 L 126.56 236.72 L 201.56 269.53 L 232.03 271.88 L 262.50 257.81 L 285.94 225.00 L 288.28 182.81 L 278.91 128.91 L 255.47 82.03 L 222.66 49.22 L 166.41 39.84 L 133.59 63.28 L 105.47 110.16 L 107.81 171.09 L 133.59 217.97 L 157.03 241.41 L 201.56 255.47 L 314.06 253.12 L 356.25 246.09 L 375.00 229.69 L 379.69 182.81 L 356.25 147.66 L 323.44 126.56 L 292.97 117.19 L 222.66 119.53 L 164.06 140.62 L 117.19 173.44 L 105.47 194.53 L 110.16 227.34 L 154.69 290.62 L 213.28 339.84 L 229.69 346.88 L 283.59 346.88 L 358.59 304.69 L 379.69 271.88 L 386.72 243.75 L 389.06 196.88 L 382.03 173.44 L 344.53 131.25 L 302.34 124.22 L 243.75 140.62 L 220.31 168.75 L 220.31 199.22 L 267.19 246.09 L 311.72 264.84 L 410.16 271.88 L 445.31 262.50 L 468.75 234.38 L 478.12 203.91 L 478.12 164.06 L 457.03 145.31 L 346.88 98.44 L 264.84 89.06 L 246.09 100.78 L 243.75 133.59 L 264.84 178.12 L 295.31 203.91 L 330.47 215.62 L 365.62 194.53 L 391.41 166.41 L 393.75 117.19 L 372.66 96.09 L 281.25 56.25 L 220.31 39.84 L 189.84 42.19 L 187.50 70.31 L 210.94 119.53 L 236.72 147.66 L 264.84 145.31 L 295.31 121.88 L 304.69 103.12 L 300.00 63.28 L 274.22 35.16 L 248.44 16.41 L 194.53 14.06 L 159.38 28.12 L 114.84 63.28 L 49.22 171.09 L 46.88 225.00 L 63.28 255.47 L 84.38 253.12 L 114.84 225.00 L 128.91 199.22 L 133.59 166.41 L 133.59 93.75 L 114.84 70.31 L 84.38 79.69 L 49.22 119.53 L 11.72 194.53 L 0.00 253.12 L 4.69 314.06 L 14.06 337.50 L 49.22 370.31 L 77.34 379.69 L 135.94 382.03 L 267.19 365.62 L 318.75 353.91 L 382.03 323.44 L 398.44 304.69 L 403.12 281.25 L 396.09 239.06 L 339.84 173.44 L 304.69 152.34 L 281.25 152.34 L 283.59 178.12 L 297.66 196.88 L 370.31 283.59 L 389.06 295.31 L 410.16 288.28 L 452.34 253.12 L 492.19 189.84 L 496.88 157.03 L 485.16 124.22 L 459.38 93.75 L 410.16 58.59 L 353.91 39.84 L 325.78 39.84 L 318.75 44.53 L 318.75 84.38 L 328.12 131.25 L 365.62 194.53 L 400.78 229.69" stroke="black" fill="transparent"/>
</svg>