<?xml version="1.0" encoding="UTF-8" standalone="no"?>
<!--Created with ndjsontosvg (https:https://github.com/thompson318/ndjsontosvg) 
	from the simplified Google quickdraw data set. key_id = 6207856179150848-->
<svg width="600" height="600"
	xmlns="http://www.w3.org/2000/svg">
	xmlns:ndjsontosvg="https://github.com/thompson318/ndjsontosvg"
	xmlns:quickdraw="https://quickdraw.withgoogle.com/data"
	xmlns:scikit-surgery="https://doi.org/10.1007/s11548-020-02180-5">

	<rect width="100%" height="100%" fill="white" />
	<path d = "M 67.97 595.31 L 67.97 595.31" stroke="black" fill="transparent"/>
	<path d = "M 67.97 595.31 L 93.75 398.44 L 84.38 339.84 L 51.56 243.75" stroke="black" fill="transparent"/>
	<path d = "M 290.62 597.66 L 297.66 344.53 L 311.72 321.09 L 316.41 278.91 L 342.19 243.75" stroke="black" fill="transparent"/>
	<path d = "M 260.16 276.56 L 213.28 384.38 L 206.25 454.69 L 210.94 522.66" stroke="black" fill="transparent"/>
	<path d = "M 159.38 271.88 L 168.75 278.91 L 180.47 307.03 L 182.81 360.94 L 147.66 464.06" stroke="black" fill="transparent"/>
	<path d = "M 14.06 150.00 L 79.69 175.78 L 126.56 213.28 L 142.97 241.41" stroke="black" fill="transparent"/>
	<path d = "M 154.69 128.91 L 168.75 150.00 L 173.44 222.66" stroke="black" fill="transparent"/>
	<path d = "M 215.62 124.22 L 234.38 152.34 L 239.06 182.81 L 225.00 241.41" stroke="black" fill="transparent"/>
	<path d = "M 307.03 128.91 L 316.41 185.16 L 292.97 234.38" stroke="black" fill="transparent"/>
	<path d = "M 330.47 173.44 L 330.47 194.53 L 311.72 234.38" stroke="black" fill="transparent"/>
	<path d = "M 309.38 234.38 L 351.56 192.19 L 353.91 147.66 L 344.53 138.28 L 328.12 138.28 L 328.12 145.31 L 342.19 150.00 L 367.97 131.25 L 391.41 49.22 L 379.69 37.50 L 316.41 42.19 L 292.97 84.38 L 292.97 93.75 L 297.66 96.09 L 297.66 75.00 L 281.25 63.28 L 274.22 67.97 L 253.12 89.06 L 241.41 128.91 L 253.12 131.25 L 262.50 119.53 L 271.88 93.75 L 281.25 42.19 L 274.22 0.00 L 248.44 2.34 L 213.28 30.47 L 201.56 58.59 L 203.91 93.75 L 213.28 86.72 L 213.28 56.25 L 192.19 30.47 L 164.06 28.12 L 133.59 49.22 L 114.84 93.75 L 114.84 103.12 L 124.22 107.81 L 140.62 93.75 L 135.94 56.25 L 126.56 46.88 L 112.50 49.22 L 93.75 84.38 L 100.78 63.28 L 98.44 35.16 L 91.41 25.78 L 77.34 25.78 L 58.59 49.22 L 58.59 79.69 L 63.28 67.97 L 49.22 51.56 L 42.19 46.88 L 32.81 56.25 L 16.41 103.12 L 11.72 150.00" stroke="black" fill="transparent"/>
	<path d = "M 11.72 154.69 L 11.72 154.69" stroke="black" fill="transparent"/>
	<path d = "M 16.41 150.00 L 0.00 213.28 L 7.03 225.00 L 21.09 227.34 L 98.44 192.19 L 159.38 131.25 L 161.72 86.72 L 150.00 82.03 L 131.25 84.38 L 119.53 105.47 L 119.53 142.97 L 131.25 161.72 L 164.06 171.09 L 194.53 154.69" stroke="black" fill="transparent"/>
</svg>