<?xml version="1.0" encoding="UTF-8" standalone="no"?>
<!--Created with ndjsontosvg (https:https://github.com/thompson318/ndjsontosvg) 
	from the simplified Google quickdraw data set. key_id = 5152636774907904-->
<svg width="600" height="600"
	xmlns="http://www.w3.org/2000/svg">
	xmlns:ndjsontosvg="https://github.com/thompson318/ndjsontosvg"
	xmlns:quickdraw="https://quickdraw.withgoogle.com/data"
	xmlns:scikit-surgery="https://doi.org/10.1007/s11548-020-02180-5">

	<rect width="100%" height="100%" fill="white" />
	<path d = "M 339.84 222.66 L 316.41 478.12 L 316.41 471.09 L 290.62 454.69 L 152.34 419.53 L 182.81 360.94 L 206.25 206.25 L 77.34 201.56 L 2.34 182.81 L 0.00 166.41 L 9.38 152.34 L 75.00 86.72 L 138.28 51.56 L 262.50 9.38 L 323.44 0.00 L 400.78 0.00 L 428.91 4.69 L 414.84 35.16 L 367.97 75.00 L 330.47 84.38 L 274.22 79.69 L 248.44 46.88 L 253.12 35.16 L 264.84 28.12 L 337.50 28.12 L 435.94 44.53 L 405.47 67.97 L 377.34 79.69 L 283.59 89.06 L 337.50 72.66 L 450.00 65.62 L 520.31 70.31 L 597.66 89.06 L 562.50 131.25 L 527.34 152.34 L 459.38 171.09 L 421.88 171.09 L 501.56 206.25 L 578.91 255.47 L 517.97 283.59 L 400.78 318.75 L 283.59 325.78 L 250.78 316.41 L 250.78 311.72 L 260.16 307.03 L 330.47 307.03 L 311.72 318.75 L 262.50 328.12 L 210.94 321.09 L 206.25 316.41 L 222.66 309.38 L 351.56 316.41 L 419.53 300.00 L 454.69 276.56 L 461.72 248.44 L 424.22 220.31 L 363.28 196.88 L 328.12 199.22 L 325.78 206.25 L 339.84 222.66 L 367.97 236.72 L 405.47 250.78 L 478.12 253.12 L 499.22 246.09 L 515.62 227.34 L 515.62 208.59 L 499.22 185.16 L 468.75 157.03 L 398.44 114.84 L 335.16 100.78 L 311.72 121.88 L 304.69 145.31 L 311.72 215.62 L 318.75 232.03 L 339.84 246.09 L 358.59 248.44 L 379.69 236.72 L 396.09 215.62 L 400.78 185.16 L 384.38 173.44 L 356.25 171.09 L 318.75 171.09 L 229.69 189.84 L 187.50 213.28 L 178.12 234.38 L 187.50 246.09 L 241.41 262.50 L 314.06 264.84 L 375.00 253.12 L 400.78 227.34 L 391.41 203.91 L 339.84 175.78 L 274.22 171.09 L 239.06 180.47 L 217.97 210.94 L 220.31 241.41 L 243.75 262.50 L 262.50 267.19 L 311.72 260.16 L 337.50 234.38 L 339.84 208.59 L 314.06 164.06 L 255.47 117.19 L 225.00 105.47 L 157.03 96.09 L 119.53 100.78 L 82.03 126.56 L 72.66 145.31 L 75.00 164.06 L 114.84 187.50 L 164.06 192.19 L 168.75 185.16 L 133.59 159.38 L 96.09 154.69 L 89.06 159.38 L 79.69 185.16 L 82.03 215.62 L 93.75 239.06 L 110.16 246.09 L 133.59 243.75 L 157.03 222.66 L 164.06 194.53 L 152.34 175.78 L 121.88 152.34 L 86.72 142.97 L 44.53 138.28 L 23.44 145.31 L 18.75 173.44 L 32.81 196.88 L 65.62 210.94 L 98.44 213.28 L 138.28 199.22 L 145.31 178.12 L 103.12 128.91 L 75.00 114.84 L 63.28 117.19 L 49.22 140.62 L 51.56 173.44 L 63.28 189.84 L 107.81 203.91 L 157.03 208.59 L 182.81 201.56 L 203.91 173.44 L 196.88 145.31 L 159.38 114.84 L 91.41 84.38 L 23.44 75.00 L 14.06 84.38 L 18.75 98.44 L 39.84 105.47 L 121.88 105.47 L 166.41 77.34 L 187.50 42.19 L 180.47 37.50 L 145.31 39.84 L 112.50 53.91 L 103.12 75.00 L 107.81 110.16 L 114.84 124.22 L 157.03 145.31 L 229.69 142.97 L 281.25 105.47 L 297.66 70.31 L 281.25 49.22 L 222.66 18.75 L 201.56 21.09 L 187.50 46.88 L 185.16 114.84 L 201.56 152.34 L 236.72 171.09 L 295.31 164.06 L 344.53 131.25 L 351.56 112.50 L 339.84 107.81 L 330.47 110.16 L 330.47 128.91 L 351.56 157.03" stroke="black" fill="transparent"/>
	<path d = "M 386.72 318.75 L 391.41 316.41" stroke="black" fill="transparent"/>
</svg>