<?xml version="1.0" encoding="UTF-8" standalone="no"?>
<!--Created with ndjsontosvg (https:https://github.com/thompson318/ndjsontosvg) 
	from the simplified Google quickdraw data set. key_id = 6510499304833024-->
<svg width="600" height="600"
	xmlns="http://www.w3.org/2000/svg">
	xmlns:ndjsontosvg="https://github.com/thompson318/ndjsontosvg"
	xmlns:quickdraw="https://quickdraw.withgoogle.com/data"
	xmlns:scikit-surgery="https://doi.org/10.1007/s11548-020-02180-5">

	<rect width="100%" height="100%" fill="white" />
	<path d = "M 250.78 0.00 L 243.75 325.78 L 217.97 363.28 L 185.16 379.69 L 65.62 391.41 L 23.44 414.84 L 14.06 440.62 L 7.03 546.09" stroke="black" fill="transparent"/>
	<path d = "M 229.69 328.12 L 239.06 386.72 L 269.53 400.78 L 372.66 424.22 L 389.06 440.62 L 414.84 506.25 L 414.84 574.22" stroke="black" fill="transparent"/>
	<path d = "M 337.50 433.59 L 337.50 597.66" stroke="black" fill="transparent"/>
	<path d = "M 269.53 431.25 L 276.56 564.84" stroke="black" fill="transparent"/>
	<path d = "M 215.62 414.84 L 225.00 562.50" stroke="black" fill="transparent"/>
	<path d = "M 145.31 414.84 L 164.06 569.53" stroke="black" fill="transparent"/>
	<path d = "M 70.31 375.00 L 72.66 421.88 L 98.44 529.69" stroke="black" fill="transparent"/>
	<path d = "M 14.06 421.88 L 42.19 532.03" stroke="black" fill="transparent"/>
	<path d = "M 84.38 517.97 L 91.41 532.03" stroke="black" fill="transparent"/>
	<path d = "M 0.00 562.50 L 164.06 555.47 L 339.84 581.25 L 407.81 583.59" stroke="black" fill="transparent"/>
</svg>