<?xml version="1.0" encoding="UTF-8" standalone="no"?>
<!--Created with ndjsontosvg (https:https://github.com/thompson318/ndjsontosvg) 
	from the simplified Google quickdraw data set. key_id = 6101758239571968-->
<svg width="600" height="600"
	xmlns="http://www.w3.org/2000/svg">
	xmlns:ndjsontosvg="https://github.com/thompson318/ndjsontosvg"
	xmlns:quickdraw="https://quickdraw.withgoogle.com/data"
	xmlns:scikit-surgery="https://doi.org/10.1007/s11548-020-02180-5">

	<rect width="100%" height="100%" fill="white" />
	<path d = "M 173.44 403.12 L 229.69 227.34 L 253.12 121.88 L 309.38 0.00" stroke="black" fill="transparent"/>
	<path d = "M 133.59 410.16 L 70.31 440.62 L 32.81 475.78 L 11.72 517.97 L 0.00 581.25 L 16.41 527.34 L 37.50 496.88 L 128.91 428.91 L 161.72 417.19 L 147.66 421.88 L 98.44 485.16 L 70.31 541.41 L 63.28 590.62 L 77.34 597.66 L 114.84 452.34 L 142.97 421.88 L 187.50 419.53 L 220.31 438.28 L 239.06 471.09 L 243.75 532.03 L 225.00 536.72 L 210.94 525.00 L 189.84 506.25 L 147.66 447.66 L 128.91 435.94" stroke="black" fill="transparent"/>
</svg>