<?xml version="1.0" encoding="UTF-8" standalone="no"?>
<!--Created with ndjsontosvg (https:https://github.com/thompson318/ndjsontosvg) 
	from the simplified Google quickdraw data set. key_id = 5957345416839168-->
<svg width="600" height="600"
	xmlns="http://www.w3.org/2000/svg">
	xmlns:ndjsontosvg="https://github.com/thompson318/ndjsontosvg"
	xmlns:quickdraw="https://quickdraw.withgoogle.com/data"
	xmlns:scikit-surgery="https://doi.org/10.1007/s11548-020-02180-5">

	<rect width="100%" height="100%" fill="white" />
	<path d = "M 459.38 0.00 L 405.47 42.19 L 353.91 105.47 L 232.03 304.69 L 208.59 356.25" stroke="black" fill="transparent"/>
	<path d = "M 510.94 28.12 L 496.88 23.44 L 452.34 77.34 L 309.38 295.31 L 250.78 400.78 L 250.78 412.50 L 274.22 440.62 L 290.62 480.47 L 311.72 550.78 L 243.75 555.47 L 0.00 478.12 L 159.38 405.47 L 225.00 351.56" stroke="black" fill="transparent"/>
	<path d = "M 192.19 400.78 L 63.28 487.50" stroke="black" fill="transparent"/>
	<path d = "M 215.62 428.91 L 173.44 473.44 L 145.31 543.75" stroke="black" fill="transparent"/>
	<path d = "M 243.75 438.28 L 241.41 592.97" stroke="black" fill="transparent"/>
	<path d = "M 264.84 475.78 L 285.94 550.78" stroke="black" fill="transparent"/>
	<path d = "M 189.84 363.28 L 189.84 363.28" stroke="black" fill="transparent"/>
</svg>