<?xml version="1.0" encoding="UTF-8" standalone="no"?>
<!--Created with ndjsontosvg (https:https://github.com/thompson318/ndjsontosvg) 
	from the simplified Google quickdraw data set. key_id = 6062763426185216-->
<svg width="600" height="600"
	xmlns="http://www.w3.org/2000/svg">
	xmlns:ndjsontosvg="https://github.com/thompson318/ndjsontosvg"
	xmlns:quickdraw="https://quickdraw.withgoogle.com/data"
	xmlns:scikit-surgery="https://doi.org/10.1007/s11548-020-02180-5">

	<rect width="100%" height="100%" fill="white" />
	<path d = "M 112.50 351.56 L 189.84 7.03 L 194.53 0.00 L 232.03 4.69 L 196.88 105.47 L 150.00 325.78 L 133.59 363.28 L 124.22 367.97" stroke="black" fill="transparent"/>
	<path d = "M 131.25 363.28 L 103.12 356.25 L 79.69 360.94 L 35.16 405.47 L 2.34 550.78" stroke="black" fill="transparent"/>
	<path d = "M 138.28 365.62 L 154.69 372.66 L 168.75 391.41 L 171.09 450.00 L 157.03 515.62 L 124.22 595.31" stroke="black" fill="transparent"/>
	<path d = "M 91.41 393.75 L 79.69 414.84 L 58.59 574.22" stroke="black" fill="transparent"/>
	<path d = "M 128.91 407.81 L 98.44 489.84 L 79.69 585.94" stroke="black" fill="transparent"/>
	<path d = "M 133.59 438.28 L 107.81 597.66" stroke="black" fill="transparent"/>
	<path d = "M 152.34 442.97 L 103.12 576.56" stroke="black" fill="transparent"/>
	<path d = "M 86.72 403.12 L 67.97 433.59 L 18.75 585.94" stroke="black" fill="transparent"/>
	<path d = "M 65.62 405.47 L 35.16 464.06 L 21.09 564.84" stroke="black" fill="transparent"/>
	<path d = "M 290.62 206.25 L 288.28 248.44 L 302.34 281.25 L 321.09 292.97 L 344.53 271.88 L 358.59 241.41 L 351.56 180.47 L 335.16 119.53 L 295.31 75.00" stroke="black" fill="transparent"/>
</svg>