<?xml version="1.0" encoding="UTF-8" standalone="no"?>
<!--Created with ndjsontosvg (https:https://github.com/thompson318/ndjsontosvg) 
	from the simplified Google quickdraw data set. key_id = 5494001949999104-->
<svg width="600" height="600"
	xmlns="http://www.w3.org/2000/svg">
	xmlns:ndjsontosvg="https://github.com/thompson318/ndjsontosvg"
	xmlns:quickdraw="https://quickdraw.withgoogle.com/data"
	xmlns:scikit-surgery="https://doi.org/10.1007/s11548-020-02180-5">

	<rect width="100%" height="100%" fill="white" />
	<path d = "M 65.62 161.72 L 65.62 585.94 L 91.41 597.66 L 370.31 597.66 L 499.22 574.22 L 515.62 567.19 L 527.34 546.09 L 529.69 426.56 L 466.41 292.97 L 450.00 241.41 L 419.53 180.47 L 400.78 166.41 L 227.34 142.97 L 0.00 147.66" stroke="black" fill="transparent"/>
	<path d = "M 30.47 131.25 L 107.81 51.56 L 189.84 11.72 L 220.31 0.00 L 332.81 4.69 L 353.91 11.72 L 435.94 65.62 L 452.34 86.72 L 459.38 128.91 L 440.62 150.00 L 412.50 161.72 L 323.44 166.41" stroke="black" fill="transparent"/>
	<path d = "M 459.38 131.25 L 461.72 203.91 L 489.84 353.91 L 494.53 454.69" stroke="black" fill="transparent"/>
</svg>