<?xml version="1.0" encoding="UTF-8" standalone="no"?>
<!--Created with ndjsontosvg (https:https://github.com/thompson318/ndjsontosvg) 
	from the simplified Google quickdraw data set. key_id = 5958152501592064-->
<svg width="600" height="600"
	xmlns="http://www.w3.org/2000/svg">
	xmlns:ndjsontosvg="https://github.com/thompson318/ndjsontosvg"
	xmlns:quickdraw="https://quickdraw.withgoogle.com/data"
	xmlns:scikit-surgery="https://doi.org/10.1007/s11548-020-02180-5">

	<rect width="100%" height="100%" fill="white" />
	<path d = "M 274.22 166.41 L 213.28 154.69 L 142.97 164.06 L 72.66 187.50 L 11.72 234.38 L 2.34 274.22 L 9.38 290.62 L 35.16 309.38 L 75.00 325.78 L 192.19 330.47 L 257.81 295.31 L 281.25 264.84 L 285.94 241.41 L 269.53 213.28 L 248.44 201.56 L 227.34 192.19 L 182.81 192.19" stroke="black" fill="transparent"/>
	<path d = "M 0.00 248.44 L 91.41 550.78 L 114.84 597.66 L 131.25 595.31" stroke="black" fill="transparent"/>
	<path d = "M 290.62 264.84 L 283.59 353.91 L 241.41 480.47 L 236.72 583.59 L 225.00 595.31 L 107.81 597.66" stroke="black" fill="transparent"/>
	<path d = "M 25.78 217.97 L 18.75 189.84 L 28.12 138.28 L 60.94 58.59 L 91.41 23.44 L 114.84 9.38 L 173.44 0.00 L 196.88 4.69 L 239.06 28.12 L 278.91 91.41 L 285.94 154.69 L 285.94 232.03" stroke="black" fill="transparent"/>
</svg>