<?xml version="1.0" encoding="UTF-8" standalone="no"?>
<!--Created with ndjsontosvg (https:https://github.com/thompson318/ndjsontosvg) 
	from the simplified Google quickdraw data set. key_id = 5680125880303616-->
<svg width="600" height="600"
	xmlns="http://www.w3.org/2000/svg">
	xmlns:ndjsontosvg="https://github.com/thompson318/ndjsontosvg"
	xmlns:quickdraw="https://quickdraw.withgoogle.com/data"
	xmlns:scikit-surgery="https://doi.org/10.1007/s11548-020-02180-5">

	<rect width="100%" height="100%" fill="white" />
	<path d = "M 23.44 220.31 L 25.78 393.75 L 30.47 445.31 L 51.56 510.94 L 75.00 532.03 L 121.88 560.16 L 227.34 597.66 L 248.44 597.66 L 307.03 574.22 L 321.09 546.09 L 314.06 471.09 L 337.50 335.16 L 339.84 264.84 L 311.72 164.06 L 302.34 86.72 L 304.69 159.38 L 314.06 217.97" stroke="black" fill="transparent"/>
	<path d = "M 16.41 217.97 L 21.09 185.16 L 0.00 65.62" stroke="black" fill="transparent"/>
	<path d = "M 0.00 65.62 L 53.91 44.53 L 96.09 39.84 L 138.28 11.72 L 199.22 0.00 L 288.28 14.06 L 290.62 63.28 L 318.75 77.34 L 283.59 89.06" stroke="black" fill="transparent"/>
</svg>