<?xml version="1.0" encoding="UTF-8" standalone="no"?>
<!--Created with ndjsontosvg (https:https://github.com/thompson318/ndjsontosvg) 
	from the simplified Google quickdraw data set. key_id = 5015164648685568-->
<svg width="600" height="600"
	xmlns="http://www.w3.org/2000/svg">
	xmlns:ndjsontosvg="https://github.com/thompson318/ndjsontosvg"
	xmlns:quickdraw="https://quickdraw.withgoogle.com/data"
	xmlns:scikit-surgery="https://doi.org/10.1007/s11548-020-02180-5">

	<rect width="100%" height="100%" fill="white" />
	<path d = "M 171.09 32.81 L 98.44 35.16 L 37.50 79.69 L 11.72 112.50 L 14.06 124.22 L 39.84 147.66 L 110.16 189.84 L 220.31 215.62 L 450.00 215.62 L 532.03 201.56 L 564.84 178.12 L 574.22 154.69 L 574.22 65.62 L 532.03 30.47 L 440.62 14.06 L 297.66 11.72 L 192.19 0.00 L 180.47 0.00 L 173.44 16.41" stroke="black" fill="transparent"/>
	<path d = "M 11.72 119.53 L 0.00 189.84 L 2.34 389.06 L 23.44 501.56 L 79.69 562.50 L 142.97 590.62 L 182.81 597.66 L 300.00 595.31 L 379.69 546.09 L 412.50 513.28 L 459.38 442.97 L 482.81 398.44 L 550.78 178.12 L 550.78 140.62" stroke="black" fill="transparent"/>
</svg>