<?xml version="1.0" encoding="UTF-8" standalone="no"?>
<!--Created with ndjsontosvg (https:https://github.com/thompson318/ndjsontosvg) 
	from the simplified Google quickdraw data set. key_id = 5160784738910208-->
<svg width="600" height="600"
	xmlns="http://www.w3.org/2000/svg">
	xmlns:ndjsontosvg="https://github.com/thompson318/ndjsontosvg"
	xmlns:quickdraw="https://quickdraw.withgoogle.com/data"
	xmlns:scikit-surgery="https://doi.org/10.1007/s11548-020-02180-5">

	<rect width="100%" height="100%" fill="white" />
	<path d = "M 39.84 98.44 L 89.06 128.91 L 145.31 140.62 L 192.19 140.62 L 271.88 107.81 L 283.59 227.34 L 262.50 382.03 L 213.28 375.00 L 75.00 386.72 L 0.00 375.00 L 37.50 325.78 L 70.31 239.06 L 75.00 187.50 L 53.91 112.50" stroke="black" fill="transparent"/>
	<path d = "M 288.28 152.34 L 297.66 154.69 L 363.28 135.94 L 351.56 126.56 L 349.22 112.50 L 363.28 0.00 L 410.16 14.06 L 529.69 4.69 L 532.03 46.88 L 583.59 241.41 L 581.25 283.59 L 569.53 274.22" stroke="black" fill="transparent"/>
	<path d = "M 539.06 283.59 L 525.00 267.19 L 494.53 262.50 L 468.75 276.56 L 452.34 297.66 L 452.34 328.12 L 485.16 386.72 L 515.62 391.41 L 536.72 384.38 L 581.25 351.56 L 597.66 314.06 L 583.59 283.59 L 541.41 253.12" stroke="black" fill="transparent"/>
	<path d = "M 450.00 318.75 L 435.94 307.03 L 377.34 302.34 L 349.22 283.59 L 278.91 300.00" stroke="black" fill="transparent"/>
</svg>