<?xml version="1.0" encoding="UTF-8" standalone="no"?>
<!--Created with ndjsontosvg (https:https://github.com/thompson318/ndjsontosvg) 
	from the simplified Google quickdraw data set. key_id = 5879871983058944-->
<svg width="600" height="600"
	xmlns="http://www.w3.org/2000/svg">
	xmlns:ndjsontosvg="https://github.com/thompson318/ndjsontosvg"
	xmlns:quickdraw="https://quickdraw.withgoogle.com/data"
	xmlns:scikit-surgery="https://doi.org/10.1007/s11548-020-02180-5">

	<rect width="100%" height="100%" fill="white" />
	<path d = "M 98.44 217.97 L 103.12 304.69 L 93.75 375.00 L 9.38 433.59 L 0.00 445.31 L 2.34 457.03 L 25.78 471.09 L 138.28 494.53 L 168.75 424.22 L 182.81 316.41 L 173.44 232.03 L 84.38 225.00 L 82.03 203.91" stroke="black" fill="transparent"/>
	<path d = "M 194.53 314.06 L 217.97 304.69" stroke="black" fill="transparent"/>
	<path d = "M 187.50 370.31 L 208.59 367.97" stroke="black" fill="transparent"/>
	<path d = "M 255.47 89.06 L 255.47 53.91 L 239.06 2.34 L 424.22 4.69 L 438.28 23.44 L 431.25 79.69 L 440.62 128.91 L 520.31 152.34 L 527.34 161.72 L 548.44 351.56 L 529.69 485.16 L 510.94 508.59 L 433.59 520.31 L 246.09 513.28 L 232.03 499.22 L 220.31 379.69 L 220.31 93.75 L 274.22 93.75" stroke="black" fill="transparent"/>
	<path d = "M 255.47 515.62 L 222.66 529.69 L 210.94 550.78 L 213.28 564.84 L 243.75 597.66 L 271.88 588.28 L 292.97 569.53 L 295.31 555.47 L 276.56 536.72" stroke="black" fill="transparent"/>
</svg>