<?xml version="1.0" encoding="UTF-8" standalone="no"?>
<!--Created with ndjsontosvg (https:https://github.com/thompson318/ndjsontosvg) 
	from the simplified Google quickdraw data set. key_id = 6724102293291008-->
<svg width="600" height="600"
	xmlns="http://www.w3.org/2000/svg">
	xmlns:ndjsontosvg="https://github.com/thompson318/ndjsontosvg"
	xmlns:quickdraw="https://quickdraw.withgoogle.com/data"
	xmlns:scikit-surgery="https://doi.org/10.1007/s11548-020-02180-5">

	<rect width="100%" height="100%" fill="white" />
	<path d = "M 302.34 16.41 L 302.34 89.06 L 285.94 77.34 L 208.59 86.72 L 220.31 112.50 L 232.03 201.56 L 560.16 203.91 L 560.16 110.16 L 459.38 84.38 L 454.69 4.69 L 304.69 0.00" stroke="black" fill="transparent"/>
	<path d = "M 243.75 203.91 L 217.97 201.56 L 206.25 210.94 L 201.56 239.06 L 213.28 250.78 L 248.44 264.84 L 421.88 278.91 L 581.25 271.88 L 595.31 262.50 L 597.66 248.44 L 574.22 225.00 L 400.78 208.59 L 250.78 208.59" stroke="black" fill="transparent"/>
	<path d = "M 250.78 227.34 L 253.12 246.09 L 276.56 246.09 L 285.94 232.03 L 264.84 215.62 L 246.09 217.97" stroke="black" fill="transparent"/>
	<path d = "M 367.97 229.69 L 363.28 253.12 L 372.66 260.16 L 410.16 260.16 L 419.53 248.44 L 391.41 229.69 L 356.25 227.34" stroke="black" fill="transparent"/>
	<path d = "M 499.22 236.72 L 503.91 257.81 L 543.75 260.16 L 548.44 246.09 L 496.88 229.69" stroke="black" fill="transparent"/>
	<path d = "M 220.31 131.25 L 185.16 128.91 L 187.50 185.16 L 161.72 203.91 L 117.19 220.31 L 2.34 222.66 L 44.53 208.59 L 58.59 196.88 L 70.31 152.34 L 67.97 114.84 L 126.56 112.50 L 189.84 128.91" stroke="black" fill="transparent"/>
</svg>