<?xml version="1.0" encoding="UTF-8" standalone="no"?>
<!--Created with ndjsontosvg (https:https://github.com/thompson318/ndjsontosvg) 
	from the simplified Google quickdraw data set. key_id = 5081811736592384-->
<svg width="600" height="600"
	xmlns="http://www.w3.org/2000/svg">
	xmlns:ndjsontosvg="https://github.com/thompson318/ndjsontosvg"
	xmlns:quickdraw="https://quickdraw.withgoogle.com/data"
	xmlns:scikit-surgery="https://doi.org/10.1007/s11548-020-02180-5">

	<rect width="100%" height="100%" fill="white" />
	<path d = "M 426.56 164.06 L 433.59 192.19 L 466.41 232.03 L 517.97 241.41 L 592.97 243.75 L 597.66 227.34 L 541.41 220.31 L 487.50 222.66 L 457.03 210.94 L 442.97 199.22 L 450.00 182.81 L 536.72 142.97" stroke="black" fill="transparent"/>
	<path d = "M 407.81 180.47 L 447.66 152.34 L 515.62 133.59" stroke="black" fill="transparent"/>
	<path d = "M 445.31 178.12 L 445.31 178.12" stroke="black" fill="transparent"/>
	<path d = "M 433.59 173.44 L 386.72 154.69 L 346.88 131.25 L 285.94 65.62 L 236.72 37.50 L 140.62 2.34 L 65.62 2.34 L 32.81 16.41 L 7.03 39.84 L 0.00 63.28 L 0.00 107.81 L 30.47 178.12 L 56.25 208.59 L 89.06 234.38 L 138.28 248.44 L 203.91 255.47 L 311.72 253.12 L 363.28 241.41 L 391.41 222.66 L 407.81 192.19 L 403.12 159.38 L 379.69 142.97" stroke="black" fill="transparent"/>
	<path d = "M 142.97 241.41 L 119.53 255.47 L 107.81 288.28 L 124.22 297.66 L 150.00 292.97 L 164.06 281.25 L 166.41 267.19 L 140.62 253.12 L 117.19 255.47" stroke="black" fill="transparent"/>
	<path d = "M 285.94 262.50 L 278.91 262.50 L 267.19 281.25 L 271.88 292.97 L 307.03 283.59 L 325.78 267.19 L 271.88 262.50" stroke="black" fill="transparent"/>
	<path d = "M 304.69 82.03 L 253.12 79.69 L 229.69 91.41 L 241.41 161.72 L 344.53 150.00" stroke="black" fill="transparent"/>
</svg>