<?xml version="1.0" encoding="UTF-8" standalone="no"?>
<!--Created with ndjsontosvg (https:https://github.com/thompson318/ndjsontosvg) 
	from the simplified Google quickdraw data set. key_id = 6274248425340928-->
<svg width="600" height="600"
	xmlns="http://www.w3.org/2000/svg">
	xmlns:ndjsontosvg="https://github.com/thompson318/ndjsontosvg"
	xmlns:quickdraw="https://quickdraw.withgoogle.com/data"
	xmlns:scikit-surgery="https://doi.org/10.1007/s11548-020-02180-5">

	<rect width="100%" height="100%" fill="white" />
	<path d = "M 93.75 152.34 L 75.00 147.66 L 2.34 154.69 L 0.00 257.81 L 44.53 253.12 L 110.16 232.03" stroke="black" fill="transparent"/>
	<path d = "M 105.47 138.28 L 107.81 30.47 L 112.50 11.72 L 128.91 4.69 L 285.94 0.00 L 412.50 16.41 L 595.31 18.75 L 597.66 25.78 L 585.94 152.34 L 560.16 281.25 L 546.09 290.62 L 466.41 290.62 L 220.31 264.84 L 110.16 225.00" stroke="black" fill="transparent"/>
	<path d = "M 192.19 37.50 L 138.28 126.56 L 227.34 124.22 L 243.75 98.44 L 243.75 63.28 L 234.38 53.91 L 185.16 53.91" stroke="black" fill="transparent"/>
	<path d = "M 344.53 39.84 L 314.06 65.62 L 281.25 119.53 L 391.41 119.53 L 414.84 56.25 L 400.78 49.22 L 363.28 51.56" stroke="black" fill="transparent"/>
	<path d = "M 452.34 63.28 L 428.91 133.59 L 435.94 135.94 L 485.16 119.53 L 534.38 117.19 L 534.38 91.41 L 520.31 72.66 L 468.75 65.62" stroke="black" fill="transparent"/>
	<path d = "M 159.38 337.50 L 152.34 316.41" stroke="black" fill="transparent"/>
	<path d = "M 142.97 281.25 L 128.91 267.19 L 105.47 264.84 L 91.41 267.19 L 70.31 288.28 L 63.28 311.72 L 67.97 351.56 L 82.03 365.62 L 103.12 367.97 L 124.22 360.94 L 142.97 339.84 L 159.38 295.31 L 154.69 250.78 L 140.62 239.06 L 103.12 236.72 L 79.69 253.12 L 58.59 283.59" stroke="black" fill="transparent"/>
	<path d = "M 393.75 307.03 L 349.22 309.38 L 332.81 323.44 L 323.44 353.91 L 328.12 372.66 L 353.91 391.41 L 405.47 400.78 L 433.59 400.78 L 471.09 372.66 L 480.47 353.91 L 466.41 314.06 L 445.31 302.34 L 412.50 297.66 L 363.28 304.69" stroke="black" fill="transparent"/>
</svg>