<?xml version="1.0" encoding="UTF-8" standalone="no"?>
<!--Created with ndjsontosvg (https:https://github.com/thompson318/ndjsontosvg) 
	from the simplified Google quickdraw data set. key_id = 6150167638048768-->
<svg width="600" height="600"
	xmlns="http://www.w3.org/2000/svg">
	xmlns:ndjsontosvg="https://github.com/thompson318/ndjsontosvg"
	xmlns:quickdraw="https://quickdraw.withgoogle.com/data"
	xmlns:scikit-surgery="https://doi.org/10.1007/s11548-020-02180-5">

	<rect width="100%" height="100%" fill="white" />
	<path d = "M 543.75 18.75 L 433.59 0.00 L 161.72 2.34 L 14.06 14.06 L 0.00 107.81 L 7.03 194.53 L 14.06 208.59 L 98.44 208.59 L 166.41 128.91 L 203.91 110.16 L 217.97 112.50 L 253.12 171.09 L 307.03 157.03 L 344.53 128.91 L 384.38 119.53 L 438.28 138.28 L 478.12 164.06 L 499.22 166.41 L 581.25 150.00 L 597.66 142.97 L 569.53 86.72 L 550.78 23.44" stroke="black" fill="transparent"/>
	<path d = "M 185.16 168.75 L 171.09 164.06 L 157.03 175.78 L 138.28 203.91 L 131.25 274.22 L 150.00 288.28 L 164.06 292.97 L 246.09 262.50 L 246.09 210.94 L 239.06 199.22" stroke="black" fill="transparent"/>
	<path d = "M 295.31 206.25 L 300.00 236.72 L 318.75 262.50 L 363.28 276.56 L 421.88 271.88 L 482.81 222.66 L 501.56 161.72" stroke="black" fill="transparent"/>
	<path d = "M 75.00 77.34 L 91.41 117.19 L 105.47 124.22 L 175.78 96.09 L 173.44 72.66 L 58.59 67.97" stroke="black" fill="transparent"/>
</svg>