<?xml version="1.0" encoding="UTF-8" standalone="no"?>
<!--Created with ndjsontosvg (https:https://github.com/thompson318/ndjsontosvg) 
	from the simplified Google quickdraw data set. key_id = 6110117671993344-->
<svg width="600" height="600"
	xmlns="http://www.w3.org/2000/svg">
	xmlns:ndjsontosvg="https://github.com/thompson318/ndjsontosvg"
	xmlns:quickdraw="https://quickdraw.withgoogle.com/data"
	xmlns:scikit-surgery="https://doi.org/10.1007/s11548-020-02180-5">

	<rect width="100%" height="100%" fill="white" />
	<path d = "M 346.88 60.94 L 269.53 60.94 L 142.97 77.34 L 18.75 67.97 L 21.09 232.03 L 14.06 281.25 L 585.94 243.75 L 597.66 236.72 L 595.31 199.22 L 571.88 77.34 L 560.16 53.91 L 550.78 49.22 L 452.34 77.34 L 349.22 77.34 L 353.91 58.59 L 342.19 0.00 L 297.66 18.75 L 21.09 39.84 L 0.00 56.25 L 18.75 72.66 L 23.44 89.06" stroke="black" fill="transparent"/>
	<path d = "M 79.69 267.19 L 65.62 271.88 L 51.56 302.34 L 53.91 344.53 L 89.06 360.94 L 117.19 339.84 L 131.25 314.06 L 133.59 295.31 L 119.53 283.59 L 67.97 264.84 L 60.94 276.56 L 72.66 281.25" stroke="black" fill="transparent"/>
	<path d = "M 215.62 283.59 L 225.00 281.25 L 206.25 302.34 L 208.59 330.47 L 227.34 344.53 L 253.12 339.84 L 314.06 288.28 L 316.41 271.88 L 302.34 262.50 L 269.53 257.81 L 246.09 262.50 L 239.06 274.22" stroke="black" fill="transparent"/>
	<path d = "M 468.75 250.78 L 450.00 267.19 L 445.31 290.62 L 464.06 311.72 L 492.19 314.06 L 541.41 297.66 L 581.25 264.84 L 588.28 248.44 L 578.91 239.06 L 546.09 239.06 L 532.03 248.44" stroke="black" fill="transparent"/>
	<path d = "M 393.75 246.09 L 379.69 260.16 L 367.97 292.97 L 367.97 321.09 L 372.66 330.47 L 389.06 332.81 L 405.47 316.41 L 407.81 295.31 L 377.34 269.53 L 335.16 262.50" stroke="black" fill="transparent"/>
	<path d = "M 44.53 145.31 L 42.19 215.62 L 44.53 229.69 L 51.56 234.38" stroke="black" fill="transparent"/>
</svg>