<?xml version="1.0" encoding="UTF-8" standalone="no"?>
<!--Created with ndjsontosvg (https:https://github.com/thompson318/ndjsontosvg) 
	from the simplified Google quickdraw data set. key_id = 5141821237755904-->
<svg width="600" height="600"
	xmlns="http://www.w3.org/2000/svg">
	xmlns:ndjsontosvg="https://github.com/thompson318/ndjsontosvg"
	xmlns:quickdraw="https://quickdraw.withgoogle.com/data"
	xmlns:scikit-surgery="https://doi.org/10.1007/s11548-020-02180-5">

	<rect width="100%" height="100%" fill="white" />
	<path d = "M 9.38 351.56 L 0.00 96.09 L 4.69 37.50 L 16.41 11.72 L 44.53 4.69 L 241.41 0.00 L 442.97 25.78 L 543.75 11.72 L 571.88 114.84 L 581.25 267.19 L 597.66 349.22 L 590.62 384.38 L 450.00 365.62 L 428.91 353.91 L 405.47 175.78 L 389.06 138.28 L 365.62 119.53 L 349.22 124.22 L 192.19 262.50 L 173.44 290.62 L 152.34 372.66 L 133.59 300.00 L 82.03 269.53" stroke="black" fill="transparent"/>
	<path d = "M 79.69 440.62 L 63.28 382.03 L 67.97 370.31 L 96.09 360.94 L 117.19 379.69 L 133.59 417.19 L 131.25 440.62 L 110.16 452.34 L 98.44 447.66" stroke="black" fill="transparent"/>
	<path d = "M 372.66 370.31 L 358.59 365.62 L 335.16 389.06 L 337.50 410.16 L 351.56 440.62 L 389.06 457.03 L 412.50 459.38 L 447.66 431.25 L 438.28 377.34 L 414.84 349.22 L 384.38 332.81" stroke="black" fill="transparent"/>
	<path d = "M 124.22 103.12 L 117.19 133.59 L 166.41 103.12 L 182.81 77.34 L 182.81 51.56 L 166.41 142.97 L 173.44 96.09 L 166.41 91.41" stroke="black" fill="transparent"/>
	<path d = "M 227.34 100.78 L 232.03 112.50 L 241.41 84.38 L 269.53 161.72 L 269.53 114.84 L 274.22 103.12 L 283.59 98.44" stroke="black" fill="transparent"/>
	<path d = "M 442.97 96.09 L 452.34 124.22" stroke="black" fill="transparent"/>
</svg>