<?xml version="1.0" encoding="UTF-8" standalone="no"?>
<!--Created with ndjsontosvg (https:https://github.com/thompson318/ndjsontosvg) 
	from the simplified Google quickdraw data set. key_id = 6297831113490432-->
<svg width="600" height="600"
	xmlns="http://www.w3.org/2000/svg">
	xmlns:ndjsontosvg="https://github.com/thompson318/ndjsontosvg"
	xmlns:quickdraw="https://quickdraw.withgoogle.com/data"
	xmlns:scikit-surgery="https://doi.org/10.1007/s11548-020-02180-5">

	<rect width="100%" height="100%" fill="white" />
	<path d = "M 471.09 330.47 L 529.69 314.06 L 588.28 274.22 L 595.31 154.69 L 576.56 114.84 L 515.62 58.59 L 485.16 49.22 L 461.72 75.00 L 424.22 32.81 L 349.22 4.69 L 325.78 2.34 L 307.03 25.78 L 257.81 11.72 L 171.09 0.00 L 135.94 7.03 L 128.91 14.06 L 124.22 35.16 L 63.28 39.84 L 46.88 58.59 L 42.19 121.88 L 0.00 150.00 L 18.75 246.09 L 28.12 255.47 L 46.88 292.97 L 126.56 318.75 L 468.75 325.78 L 508.59 332.81" stroke="black" fill="transparent"/>
	<path d = "M 159.38 84.38 L 150.00 126.56 L 152.34 138.28 L 164.06 142.97 L 185.16 142.97 L 210.94 124.22 L 203.91 86.72 L 178.12 60.94 L 145.31 51.56" stroke="black" fill="transparent"/>
	<path d = "M 337.50 133.59 L 323.44 147.66 L 325.78 180.47 L 344.53 203.91 L 377.34 206.25 L 391.41 199.22 L 396.09 171.09 L 365.62 131.25" stroke="black" fill="transparent"/>
</svg>