<?xml version="1.0" encoding="UTF-8" standalone="no"?>
<!--Created with ndjsontosvg (https:https://github.com/thompson318/ndjsontosvg) 
	from the simplified Google quickdraw data set. key_id = 5604398979874816-->
<svg width="600" height="600"
	xmlns="http://www.w3.org/2000/svg">
	xmlns:ndjsontosvg="https://github.com/thompson318/ndjsontosvg"
	xmlns:quickdraw="https://quickdraw.withgoogle.com/data"
	xmlns:scikit-surgery="https://doi.org/10.1007/s11548-020-02180-5">

	<rect width="100%" height="100%" fill="white" />
	<path d = "M 107.81 30.47 L 154.69 4.69 L 180.47 0.00 L 215.62 21.09 L 213.28 60.94 L 318.75 67.97 L 424.22 84.38 L 445.31 93.75 L 454.69 117.19 L 447.66 154.69 L 433.59 168.75 L 344.53 187.50 L 332.81 243.75 L 257.81 246.09 L 229.69 239.06 L 222.66 213.28" stroke="black" fill="transparent"/>
	<path d = "M 128.91 35.16 L 2.34 126.56 L 0.00 138.28 L 2.34 166.41 L 21.09 189.84 L 70.31 194.53 L 70.31 203.91 L 37.50 239.06 L 39.84 288.28 L 70.31 309.38 L 150.00 328.12 L 255.47 339.84 L 300.00 328.12 L 309.38 311.72 L 309.38 332.81 L 325.78 346.88 L 349.22 353.91 L 412.50 356.25 L 454.69 267.19 L 457.03 234.38 L 501.56 257.81 L 585.94 271.88 L 595.31 253.12 L 597.66 178.12 L 585.94 150.00 L 569.53 131.25 L 550.78 124.22 L 464.06 119.53" stroke="black" fill="transparent"/>
</svg>