<?xml version="1.0" encoding="UTF-8" standalone="no"?>
<!--Created with ndjsontosvg (https:https://github.com/thompson318/ndjsontosvg) 
	from the simplified Google quickdraw data set. key_id = 5947159419551744-->
<svg width="600" height="600"
	xmlns="http://www.w3.org/2000/svg">
	xmlns:ndjsontosvg="https://github.com/thompson318/ndjsontosvg"
	xmlns:quickdraw="https://quickdraw.withgoogle.com/data"
	xmlns:scikit-surgery="https://doi.org/10.1007/s11548-020-02180-5">

	<rect width="100%" height="100%" fill="white" />
	<path d = "M 98.44 382.03 L 77.34 391.41 L 32.81 382.03 L 7.03 346.88 L 2.34 290.62 L 23.44 225.00 L 70.31 180.47 L 82.03 180.47 L 100.78 206.25 L 91.41 248.44 L 63.28 285.94 L 46.88 292.97 L 18.75 271.88 L 14.06 255.47 L 23.44 185.16 L 35.16 159.38 L 89.06 110.16 L 124.22 119.53 L 140.62 157.03 L 142.97 178.12 L 119.53 255.47 L 96.09 283.59 L 56.25 290.62 L 28.12 271.88 L 16.41 210.94 L 32.81 150.00 L 53.91 117.19 L 98.44 70.31 L 133.59 49.22 L 161.72 67.97 L 161.72 124.22 L 133.59 206.25 L 114.84 239.06 L 79.69 292.97 L 49.22 318.75 L 65.62 255.47 L 110.16 178.12 L 208.59 103.12 L 243.75 119.53 L 253.12 135.94 L 248.44 201.56 L 173.44 328.12 L 128.91 346.88 L 107.81 328.12 L 100.78 278.91 L 110.16 243.75 L 126.56 206.25 L 171.09 147.66 L 225.00 112.50 L 281.25 110.16 L 288.28 234.38 L 203.91 335.16 L 175.78 344.53 L 159.38 307.03 L 164.06 276.56 L 278.91 114.84 L 325.78 96.09 L 356.25 100.78 L 370.31 126.56 L 353.91 196.88 L 271.88 304.69 L 239.06 318.75 L 210.94 318.75 L 194.53 292.97 L 206.25 220.31 L 307.03 117.19 L 349.22 107.81 L 391.41 117.19 L 398.44 154.69 L 372.66 232.03 L 288.28 323.44 L 210.94 351.56 L 192.19 330.47 L 201.56 248.44 L 241.41 187.50 L 316.41 133.59 L 417.19 135.94 L 459.38 196.88 L 452.34 234.38 L 382.03 314.06 L 314.06 351.56 L 236.72 360.94 L 185.16 302.34 L 201.56 234.38 L 290.62 135.94 L 372.66 93.75 L 454.69 79.69 L 480.47 100.78 L 450.00 199.22 L 356.25 316.41 L 304.69 356.25 L 260.16 363.28 L 246.09 311.72 L 314.06 180.47 L 393.75 131.25 L 464.06 138.28 L 501.56 168.75 L 501.56 241.41 L 459.38 304.69 L 386.72 351.56 L 349.22 356.25 L 304.69 269.53 L 353.91 168.75 L 405.47 126.56 L 466.41 110.16 L 506.25 142.97 L 485.16 213.28 L 442.97 264.84 L 318.75 311.72 L 283.59 295.31 L 264.84 246.09 L 302.34 168.75 L 398.44 121.88 L 461.72 154.69 L 452.34 232.03 L 377.34 332.81 L 274.22 370.31 L 217.97 339.84 L 196.88 271.88 L 227.34 187.50 L 292.97 135.94 L 363.28 126.56 L 403.12 152.34 L 393.75 213.28 L 316.41 290.62 L 192.19 321.09 L 124.22 285.94 L 103.12 203.91 L 150.00 133.59 L 222.66 107.81 L 295.31 110.16 L 339.84 140.62 L 335.16 196.88 L 239.06 297.66 L 161.72 325.78 L 128.91 325.78 L 105.47 304.69 L 98.44 241.41 L 138.28 152.34 L 227.34 79.69 L 271.88 72.66 L 309.38 133.59 L 295.31 182.81 L 239.06 246.09 L 173.44 246.09 L 121.88 208.59 L 105.47 157.03 L 114.84 96.09 L 187.50 44.53 L 243.75 56.25 L 288.28 91.41 L 300.00 131.25 L 267.19 192.19 L 222.66 215.62 L 180.47 213.28 L 150.00 171.09 L 161.72 100.78 L 215.62 32.81 L 300.00 0.00 L 349.22 16.41 L 370.31 63.28 L 353.91 133.59 L 278.91 203.91 L 241.41 210.94 L 210.94 189.84 L 213.28 135.94 L 276.56 75.00 L 335.16 58.59 L 384.38 67.97 L 410.16 89.06 L 398.44 133.59 L 346.88 173.44 L 307.03 180.47 L 274.22 159.38 L 276.56 86.72 L 337.50 7.03 L 379.69 0.00 L 428.91 44.53 L 410.16 157.03 L 372.66 203.91 L 339.84 220.31 L 311.72 206.25 L 314.06 164.06 L 346.88 110.16 L 407.81 77.34 L 452.34 98.44 L 475.78 135.94 L 471.09 194.53 L 405.47 278.91 L 353.91 309.38 L 309.38 295.31 L 300.00 255.47 L 337.50 173.44 L 389.06 142.97 L 464.06 161.72 L 478.12 199.22 L 457.03 269.53 L 410.16 314.06 L 344.53 335.16 L 307.03 325.78 L 285.94 290.62 L 302.34 220.31 L 360.94 145.31 L 442.97 107.81 L 515.62 150.00 L 527.34 206.25 L 499.22 267.19 L 412.50 318.75 L 346.88 321.09 L 166.41 276.56 L 131.25 255.47 L 117.19 227.34 L 142.97 173.44 L 187.50 145.31 L 234.38 142.97 L 290.62 161.72 L 330.47 201.56 L 351.56 267.19 L 342.19 337.50 L 295.31 417.19 L 248.44 442.97 L 199.22 433.59 L 147.66 400.78 L 105.47 351.56 L 98.44 323.44 L 124.22 262.50 L 168.75 229.69 L 215.62 215.62 L 257.81 222.66 L 300.00 243.75 L 314.06 288.28 L 302.34 328.12 L 278.91 342.19 L 262.50 337.50" stroke="black" fill="transparent"/>
	<path d = "M 241.41 382.03 L 248.44 405.47 L 236.72 536.72 L 257.81 400.78 L 243.75 489.84 L 246.09 398.44 L 217.97 508.59 L 215.62 482.81 L 243.75 328.12 L 227.34 522.66 L 236.72 365.62 L 215.62 503.91 L 253.12 328.12 L 232.03 506.25 L 267.19 360.94 L 243.75 496.88 L 267.19 351.56 L 262.50 506.25 L 292.97 358.59 L 271.88 403.12 L 243.75 539.06 L 288.28 351.56 L 253.12 527.34 L 283.59 375.00 L 288.28 332.81 L 278.91 358.59 L 255.47 534.38 L 267.19 513.28 L 311.72 342.19 L 302.34 353.91 L 267.19 454.69 L 239.06 569.53 L 269.53 414.84 L 236.72 529.69 L 232.03 581.25 L 267.19 414.84 L 222.66 578.91 L 229.69 447.66 L 217.97 487.50 L 203.91 588.28 L 225.00 473.44 L 206.25 597.66 L 232.03 440.62 L 239.06 417.19 L 229.69 550.78 L 267.19 389.06 L 281.25 356.25" stroke="black" fill="transparent"/>
	<path d = "M 187.50 389.06 L 178.12 370.31 L 185.16 351.56 L 213.28 330.47 L 243.75 356.25 L 236.72 461.72 L 194.53 496.88 L 145.31 419.53 L 147.66 309.38 L 196.88 215.62 L 239.06 206.25 L 267.19 271.88 L 203.91 421.88 L 105.47 464.06 L 49.22 398.44 L 89.06 241.41 L 159.38 210.94 L 217.97 262.50 L 217.97 367.97 L 166.41 440.62 L 107.81 428.91 L 82.03 323.44 L 161.72 150.00 L 234.38 138.28 L 278.91 267.19 L 220.31 414.84 L 182.81 431.25 L 234.38 185.16 L 339.84 79.69 L 412.50 107.81 L 414.84 274.22 L 304.69 412.50 L 262.50 367.97 L 351.56 185.16 L 435.94 222.66 L 438.28 335.16 L 337.50 471.09 L 274.22 478.12 L 253.12 372.66 L 314.06 260.16 L 386.72 232.03 L 396.09 323.44 L 302.34 440.62 L 243.75 440.62 L 225.00 323.44 L 351.56 150.00 L 433.59 152.34 L 454.69 236.72 L 391.41 379.69 L 339.84 414.84 L 309.38 346.88 L 358.59 227.34 L 414.84 203.91 L 466.41 253.12 L 445.31 379.69 L 358.59 473.44 L 311.72 459.38 L 300.00 339.84 L 372.66 220.31 L 386.72 215.62" stroke="black" fill="transparent"/>
</svg>