<?xml version="1.0" encoding="UTF-8" standalone="no"?>
<!--Created with ndjsontosvg (https:https://github.com/thompson318/ndjsontosvg) 
	from the simplified Google quickdraw data set. key_id = 4812846443528192-->
<svg width="600" height="600"
	xmlns="http://www.w3.org/2000/svg">
	xmlns:ndjsontosvg="https://github.com/thompson318/ndjsontosvg"
	xmlns:quickdraw="https://quickdraw.withgoogle.com/data"
	xmlns:scikit-surgery="https://doi.org/10.1007/s11548-020-02180-5">

	<rect width="100%" height="100%" fill="white" />
	<path d = "M 107.81 232.03 L 23.44 199.22 L 4.69 175.78 L 0.00 145.31 L 23.44 117.19 L 53.91 112.50 L 67.97 121.88 L 86.72 161.72 L 79.69 131.25 L 84.38 86.72 L 112.50 53.91 L 142.97 46.88 L 161.72 58.59 L 173.44 75.00 L 178.12 110.16 L 185.16 56.25 L 194.53 35.16 L 232.03 7.03 L 271.88 4.69 L 288.28 16.41 L 297.66 35.16 L 300.00 91.41 L 386.72 21.09 L 412.50 7.03 L 450.00 0.00 L 459.38 7.03 L 459.38 44.53 L 421.88 105.47 L 419.53 119.53 L 510.94 124.22 L 539.06 133.59 L 553.12 147.66 L 557.81 161.72 L 553.12 180.47 L 522.66 225.00 L 597.66 217.97 L 506.25 253.12 L 555.47 236.72 L 475.78 290.62 L 522.66 283.59 L 377.34 314.06" stroke="black" fill="transparent"/>
	<path d = "M 107.81 232.03 L 117.19 257.81 L 124.22 262.50 L 126.56 253.12 L 126.56 281.25 L 135.94 290.62 L 222.66 295.31 L 239.06 311.72 L 260.16 311.72" stroke="black" fill="transparent"/>
</svg>