<?xml version="1.0" encoding="UTF-8" standalone="no"?>
<!--Created with ndjsontosvg (https:https://github.com/thompson318/ndjsontosvg) 
	from the simplified Google quickdraw data set. key_id = 6568948914978816-->
<svg width="600" height="600"
	xmlns="http://www.w3.org/2000/svg">
	xmlns:ndjsontosvg="https://github.com/thompson318/ndjsontosvg"
	xmlns:quickdraw="https://quickdraw.withgoogle.com/data"
	xmlns:scikit-surgery="https://doi.org/10.1007/s11548-020-02180-5">

	<rect width="100%" height="100%" fill="white" />
	<path d = "M 234.38 339.84 L 227.34 391.41 L 227.34 482.81 L 229.69 501.56 L 243.75 529.69 L 285.94 557.81 L 295.31 557.81 L 300.00 548.44 L 311.72 499.22 L 304.69 400.78 L 257.81 297.66 L 243.75 295.31 L 232.03 314.06" stroke="black" fill="transparent"/>
	<path d = "M 239.06 351.56 L 239.06 332.81 L 138.28 60.94" stroke="black" fill="transparent"/>
	<path d = "M 269.53 321.09 L 271.88 302.34 L 384.38 35.16" stroke="black" fill="transparent"/>
	<path d = "M 285.94 384.38 L 304.69 335.16 L 342.19 285.94 L 407.81 253.12 L 475.78 248.44 L 489.84 255.47 L 510.94 283.59 L 517.97 337.50 L 510.94 367.97 L 492.19 379.69 L 475.78 379.69 L 539.06 379.69 L 581.25 393.75 L 595.31 407.81 L 595.31 445.31 L 585.94 461.72 L 532.03 499.22 L 478.12 520.31 L 358.59 522.66" stroke="black" fill="transparent"/>
	<path d = "M 227.34 389.06 L 206.25 360.94 L 147.66 321.09 L 91.41 309.38 L 60.94 311.72 L 21.09 346.88 L 9.38 379.69 L 9.38 407.81 L 14.06 419.53 L 30.47 433.59 L 70.31 435.94 L 25.78 440.62 L 0.00 466.41 L 9.38 496.88 L 30.47 510.94 L 86.72 529.69 L 131.25 529.69 L 161.72 520.31 L 225.00 464.06" stroke="black" fill="transparent"/>
	<path d = "M 365.62 0.00 L 384.38 2.34 L 393.75 23.44 L 363.28 44.53 L 332.81 51.56 L 344.53 21.09 L 365.62 9.38" stroke="black" fill="transparent"/>
</svg>