<?xml version="1.0" encoding="UTF-8" standalone="no"?>
<!--Created with ndjsontosvg (https:https://github.com/thompson318/ndjsontosvg) 
	from the simplified Google quickdraw data set. key_id = 5225908946337792-->
<svg width="600" height="600"
	xmlns="http://www.w3.org/2000/svg">
	xmlns:ndjsontosvg="https://github.com/thompson318/ndjsontosvg"
	xmlns:quickdraw="https://quickdraw.withgoogle.com/data"
	xmlns:scikit-surgery="https://doi.org/10.1007/s11548-020-02180-5">

	<rect width="100%" height="100%" fill="white" />
	<path d = "M 236.72 121.88 L 232.03 283.59 L 213.28 424.22 L 281.25 431.25 L 302.34 396.09 L 302.34 128.91 L 269.53 114.84 L 236.72 114.84" stroke="black" fill="transparent"/>
	<path d = "M 288.28 161.72 L 309.38 128.91 L 410.16 96.09 L 480.47 96.09 L 501.56 131.25 L 501.56 199.22 L 487.50 232.03 L 557.81 255.47 L 590.62 283.59 L 597.66 321.09 L 597.66 351.56 L 567.19 365.62 L 445.31 365.62 L 379.69 379.69 L 302.34 372.66" stroke="black" fill="transparent"/>
	<path d = "M 232.03 154.69 L 199.22 121.88 L 159.38 103.12 L 121.88 103.12 L 89.06 114.84 L 58.59 178.12 L 58.59 210.94 L 96.09 236.72 L 110.16 269.53 L 44.53 290.62 L 14.06 321.09 L 0.00 353.91 L 25.78 386.72 L 70.31 417.19 L 187.50 410.16" stroke="black" fill="transparent"/>
	<path d = "M 276.56 110.16 L 321.09 18.75 L 353.91 0.00 L 379.69 0.00" stroke="black" fill="transparent"/>
</svg>