<?xml version="1.0" encoding="UTF-8" standalone="no"?>
<!--Created with ndjsontosvg (https:https://github.com/thompson318/ndjsontosvg) 
	from the simplified Google quickdraw data set. key_id = 6261504150077440-->
<svg width="600" height="600"
	xmlns="http://www.w3.org/2000/svg">
	xmlns:ndjsontosvg="https://github.com/thompson318/ndjsontosvg"
	xmlns:quickdraw="https://quickdraw.withgoogle.com/data"
	xmlns:scikit-surgery="https://doi.org/10.1007/s11548-020-02180-5">

	<rect width="100%" height="100%" fill="white" />
	<path d = "M 285.94 114.84 L 276.56 213.28 L 276.56 428.91 L 285.94 431.25 L 311.72 375.00 L 325.78 330.47 L 323.44 194.53 L 307.03 103.12" stroke="black" fill="transparent"/>
	<path d = "M 269.53 154.69 L 257.81 133.59 L 213.28 96.09 L 138.28 70.31 L 30.47 63.28 L 11.72 75.00 L 0.00 96.09 L 4.69 154.69 L 28.12 185.16 L 84.38 222.66 L 133.59 232.03 L 103.12 257.81 L 93.75 274.22 L 93.75 400.78 L 105.47 428.91 L 128.91 435.94 L 168.75 435.94 L 189.84 424.22 L 257.81 367.97 L 264.84 351.56" stroke="black" fill="transparent"/>
	<path d = "M 314.06 150.00 L 426.56 58.59 L 513.28 11.72 L 560.16 0.00 L 578.91 2.34 L 597.66 44.53 L 597.66 84.38 L 560.16 145.31 L 522.66 178.12 L 424.22 217.97 L 471.09 255.47 L 475.78 323.44 L 450.00 358.59 L 428.91 375.00 L 400.78 372.66 L 349.22 311.72 L 332.81 307.03" stroke="black" fill="transparent"/>
	<path d = "M 288.28 112.50 L 297.66 89.06 L 307.03 91.41 L 307.03 100.78" stroke="black" fill="transparent"/>
	<path d = "M 290.62 91.41 L 246.09 44.53" stroke="black" fill="transparent"/>
</svg>