<?xml version="1.0" encoding="UTF-8" standalone="no"?>
<!--Created with ndjsontosvg (https:https://github.com/thompson318/ndjsontosvg) 
	from the simplified Google quickdraw data set. key_id = 5917588246757376-->
<svg width="600" height="600"
	xmlns="http://www.w3.org/2000/svg">
	xmlns:ndjsontosvg="https://github.com/thompson318/ndjsontosvg"
	xmlns:quickdraw="https://quickdraw.withgoogle.com/data"
	xmlns:scikit-surgery="https://doi.org/10.1007/s11548-020-02180-5">

	<rect width="100%" height="100%" fill="white" />
	<path d = "M 281.25 145.31 L 278.91 288.28 L 269.53 351.56 L 285.94 386.72 L 311.72 407.81 L 318.75 382.03 L 321.09 311.72 L 302.34 217.97 L 302.34 171.09 L 283.59 154.69 L 262.50 157.03" stroke="black" fill="transparent"/>
	<path d = "M 274.22 147.66 L 243.75 82.03 L 208.59 44.53 L 171.09 35.16 L 166.41 67.97 L 178.12 86.72 L 189.84 93.75 L 196.88 67.97 L 175.78 58.59 L 192.19 58.59" stroke="black" fill="transparent"/>
	<path d = "M 271.88 145.31 L 278.91 39.84 L 290.62 14.06 L 325.78 0.00 L 363.28 25.78 L 377.34 77.34 L 363.28 107.81 L 344.53 126.56 L 337.50 124.22 L 311.72 105.47 L 295.31 70.31 L 297.66 51.56 L 314.06 39.84 L 328.12 67.97 L 325.78 79.69" stroke="black" fill="transparent"/>
	<path d = "M 278.91 201.56 L 178.12 135.94 L 110.16 114.84 L 32.81 105.47 L 7.03 135.94 L 0.00 157.03 L 0.00 173.44 L 16.41 201.56 L 49.22 220.31 L 117.19 225.00 L 201.56 215.62 L 274.22 243.75 L 215.62 271.88 L 180.47 302.34 L 154.69 351.56 L 154.69 379.69 L 159.38 384.38 L 196.88 386.72 L 246.09 372.66 L 278.91 318.75" stroke="black" fill="transparent"/>
	<path d = "M 302.34 234.38 L 363.28 250.78 L 405.47 269.53 L 450.00 321.09 L 454.69 349.22 L 440.62 379.69 L 365.62 365.62 L 330.47 351.56 L 302.34 318.75" stroke="black" fill="transparent"/>
	<path d = "M 288.28 234.38 L 358.59 239.06 L 485.16 225.00 L 564.84 187.50 L 588.28 166.41 L 597.66 140.62 L 576.56 126.56 L 536.72 117.19 L 487.50 119.53 L 304.69 208.59 L 297.66 220.31" stroke="black" fill="transparent"/>
</svg>