<?xml version="1.0" encoding="UTF-8" standalone="no"?>
<!--Created with ndjsontosvg (https:https://github.com/thompson318/ndjsontosvg) 
	from the simplified Google quickdraw data set. key_id = 6300241479335936-->
<svg width="600" height="600"
	xmlns="http://www.w3.org/2000/svg">
	xmlns:ndjsontosvg="https://github.com/thompson318/ndjsontosvg"
	xmlns:quickdraw="https://quickdraw.withgoogle.com/data"
	xmlns:scikit-surgery="https://doi.org/10.1007/s11548-020-02180-5">

	<rect width="100%" height="100%" fill="white" />
	<path d = "M 253.12 255.47 L 246.09 426.56 L 260.16 485.16 L 276.56 508.59 L 295.31 520.31 L 316.41 515.62 L 337.50 487.50 L 360.94 405.47 L 372.66 201.56 L 349.22 185.16 L 292.97 189.84 L 255.47 227.34 L 243.75 276.56" stroke="black" fill="transparent"/>
	<path d = "M 335.16 126.56 L 297.66 119.53 L 281.25 131.25 L 269.53 171.09 L 278.91 199.22 L 304.69 206.25 L 344.53 206.25 L 379.69 194.53 L 400.78 173.44 L 400.78 145.31 L 379.69 124.22 L 351.56 107.81 L 304.69 103.12" stroke="black" fill="transparent"/>
	<path d = "M 302.34 128.91 L 274.22 75.00 L 246.09 44.53 L 257.81 53.91" stroke="black" fill="transparent"/>
	<path d = "M 370.31 119.53 L 372.66 28.12" stroke="black" fill="transparent"/>
	<path d = "M 412.50 0.00 L 403.12 7.03 L 400.78 35.16 L 393.75 18.75" stroke="black" fill="transparent"/>
	<path d = "M 269.53 11.72 L 269.53 25.78 L 248.44 18.75 L 248.44 37.50" stroke="black" fill="transparent"/>
	<path d = "M 302.34 339.84 L 271.88 332.81 L 262.50 309.38 L 227.34 290.62 L 189.84 281.25 L 119.53 281.25 L 65.62 302.34 L 21.09 353.91 L 16.41 386.72 L 37.50 412.50 L 82.03 417.19 L 110.16 412.50 L 128.91 398.44 L 119.53 389.06 L 91.41 389.06 L 67.97 398.44 L 28.12 426.56 L 0.00 471.09 L 0.00 499.22 L 18.75 510.94 L 60.94 510.94 L 208.59 428.91 L 262.50 419.53" stroke="black" fill="transparent"/>
	<path d = "M 370.31 304.69 L 393.75 281.25 L 461.72 267.19 L 520.31 267.19 L 578.91 283.59 L 597.66 302.34 L 595.31 323.44 L 571.88 346.88 L 539.06 363.28 L 442.97 375.00 L 403.12 360.94 L 478.12 358.59 L 546.09 372.66 L 581.25 398.44 L 592.97 433.59 L 567.19 461.72 L 534.38 468.75 L 431.25 452.34 L 351.56 426.56" stroke="black" fill="transparent"/>
</svg>