<?xml version="1.0" encoding="UTF-8" standalone="no"?>
<!--Created with ndjsontosvg (https:https://github.com/thompson318/ndjsontosvg) 
	from the simplified Google quickdraw data set. key_id = 4532513202503680-->
<svg width="600" height="600"
	xmlns="http://www.w3.org/2000/svg">
	xmlns:ndjsontosvg="https://github.com/thompson318/ndjsontosvg"
	xmlns:quickdraw="https://quickdraw.withgoogle.com/data"
	xmlns:scikit-surgery="https://doi.org/10.1007/s11548-020-02180-5">

	<rect width="100%" height="100%" fill="white" />
	<path d = "M 96.09 187.50 L 93.75 60.94 L 107.81 44.53 L 140.62 18.75 L 196.88 7.03 L 241.41 11.72 L 253.12 28.12 L 262.50 63.28 L 271.88 185.16 L 278.91 201.56 L 292.97 210.94 L 328.12 210.94 L 353.91 187.50 L 363.28 51.56 L 389.06 11.72 L 414.84 2.34 L 496.88 2.34 L 553.12 18.75 L 578.91 37.50 L 595.31 60.94 L 597.66 159.38 L 590.62 248.44 L 562.50 316.41 L 492.19 335.16 L 398.44 339.84 L 391.41 534.38 L 384.38 564.84 L 353.91 578.91 L 236.72 578.91 L 225.00 574.22 L 217.97 553.12 L 217.97 351.56 L 227.34 311.72 L 199.22 314.06 L 128.91 349.22 L 84.38 349.22 L 82.03 267.19 L 98.44 152.34" stroke="black" fill="transparent"/>
	<path d = "M 84.38 128.91 L 46.88 117.19 L 0.00 89.06" stroke="black" fill="transparent"/>
	<path d = "M 79.69 250.78 L 23.44 255.47" stroke="black" fill="transparent"/>
</svg>