<?xml version="1.0" encoding="UTF-8" standalone="no"?>
<!--Created with ndjsontosvg (https:https://github.com/thompson318/ndjsontosvg) 
	from the simplified Google quickdraw data set. key_id = 5236512755023872-->
<svg width="600" height="600"
	xmlns="http://www.w3.org/2000/svg">
	xmlns:ndjsontosvg="https://github.com/thompson318/ndjsontosvg"
	xmlns:quickdraw="https://quickdraw.withgoogle.com/data"
	xmlns:scikit-surgery="https://doi.org/10.1007/s11548-020-02180-5">

	<rect width="100%" height="100%" fill="white" />
	<path d = "M 53.91 428.91 L 30.47 363.28 L 21.09 288.28 L 37.50 222.66 L 53.91 227.34 L 67.97 248.44 L 103.12 339.84 L 117.19 255.47 L 168.75 105.47 L 225.00 4.69 L 236.72 0.00 L 264.84 35.16 L 276.56 103.12 L 278.91 164.06 L 264.84 257.81 L 229.69 393.75 L 206.25 447.66 L 199.22 452.34 L 56.25 442.97" stroke="black" fill="transparent"/>
	<path d = "M 21.09 440.62 L 4.69 571.88 L 11.72 588.28 L 75.00 597.66 L 187.50 590.62 L 199.22 567.19 L 208.59 492.19 L 210.94 452.34 L 203.91 442.97 L 171.09 433.59 L 25.78 438.28" stroke="black" fill="transparent"/>
	<path d = "M 35.16 454.69 L 100.78 468.75 L 201.56 471.09" stroke="black" fill="transparent"/>
	<path d = "M 2.34 482.81 L 79.69 473.44 L 206.25 473.44" stroke="black" fill="transparent"/>
	<path d = "M 192.19 264.84 L 213.28 234.38" stroke="black" fill="transparent"/>
	<path d = "M 206.25 267.19 L 208.59 264.84" stroke="black" fill="transparent"/>
	<path d = "M 154.69 351.56 L 154.69 351.56" stroke="black" fill="transparent"/>
	<path d = "M 154.69 351.56 L 152.34 332.81" stroke="black" fill="transparent"/>
	<path d = "M 79.69 358.59 L 35.16 325.78" stroke="black" fill="transparent"/>
	<path d = "M 37.50 281.25 L 9.38 271.88" stroke="black" fill="transparent"/>
	<path d = "M 14.06 283.59 L 0.00 325.78" stroke="black" fill="transparent"/>
	<path d = "M 77.34 386.72 L 58.59 412.50" stroke="black" fill="transparent"/>
	<path d = "M 124.22 391.41 L 215.62 428.91" stroke="black" fill="transparent"/>
	<path d = "M 213.28 276.56 L 222.66 253.12" stroke="black" fill="transparent"/>
	<path d = "M 196.88 171.09 L 225.00 103.12" stroke="black" fill="transparent"/>
	<path d = "M 201.56 46.88 L 203.91 42.19" stroke="black" fill="transparent"/>
	<path d = "M 194.53 124.22 L 194.53 124.22" stroke="black" fill="transparent"/>
	<path d = "M 194.53 124.22 L 164.06 77.34" stroke="black" fill="transparent"/>
	<path d = "M 128.91 220.31 L 145.31 182.81" stroke="black" fill="transparent"/>
	<path d = "M 164.06 278.91 L 217.97 269.53" stroke="black" fill="transparent"/>
	<path d = "M 234.38 335.16 L 257.81 330.47" stroke="black" fill="transparent"/>
	<path d = "M 227.34 248.44 L 246.09 215.62 L 278.91 182.81" stroke="black" fill="transparent"/>
	<path d = "M 307.03 110.16 L 344.53 93.75" stroke="black" fill="transparent"/>
</svg>