<?xml version="1.0" encoding="UTF-8" standalone="no"?>
<!--Created with ndjsontosvg (https:https://github.com/thompson318/ndjsontosvg) 
	from the simplified Google quickdraw data set. key_id = 6079600876584960-->
<svg width="600" height="600"
	xmlns="http://www.w3.org/2000/svg">
	xmlns:ndjsontosvg="https://github.com/thompson318/ndjsontosvg"
	xmlns:quickdraw="https://quickdraw.withgoogle.com/data"
	xmlns:scikit-surgery="https://doi.org/10.1007/s11548-020-02180-5">

	<rect width="100%" height="100%" fill="white" />
	<path d = "M 164.06 363.28 L 82.03 358.59 L 37.50 367.97 L 7.03 382.03 L 2.34 407.81 L 25.78 424.22 L 56.25 431.25 L 213.28 431.25 L 250.78 417.19 L 255.47 398.44 L 206.25 377.34 L 133.59 367.97" stroke="black" fill="transparent"/>
	<path d = "M 23.44 414.84 L 70.31 597.66" stroke="black" fill="transparent"/>
	<path d = "M 257.81 412.50 L 222.66 571.88" stroke="black" fill="transparent"/>
	<path d = "M 96.09 382.03 L 70.31 192.19 L 70.31 110.16 L 96.09 32.81 L 117.19 11.72 L 135.94 7.03 L 161.72 30.47 L 175.78 63.28 L 201.56 159.38 L 201.56 229.69 L 178.12 391.41" stroke="black" fill="transparent"/>
	<path d = "M 210.94 260.16 L 250.78 229.69" stroke="black" fill="transparent"/>
	<path d = "M 203.91 171.09 L 227.34 140.62" stroke="black" fill="transparent"/>
	<path d = "M 182.81 98.44 L 199.22 67.97" stroke="black" fill="transparent"/>
	<path d = "M 152.34 39.84 L 150.00 23.44 L 157.03 0.00" stroke="black" fill="transparent"/>
	<path d = "M 126.56 21.09 L 84.38 16.41" stroke="black" fill="transparent"/>
	<path d = "M 93.75 107.81 L 49.22 107.81" stroke="black" fill="transparent"/>
	<path d = "M 103.12 171.09 L 44.53 173.44" stroke="black" fill="transparent"/>
	<path d = "M 114.84 253.12 L 89.06 253.12 L 67.97 264.84" stroke="black" fill="transparent"/>
</svg>