<?xml version="1.0" encoding="UTF-8" standalone="no"?>
<!--Created with ndjsontosvg (https:https://github.com/thompson318/ndjsontosvg) 
	from the simplified Google quickdraw data set. key_id = 5928105380151296-->
<svg width="600" height="600"
	xmlns="http://www.w3.org/2000/svg">
	xmlns:ndjsontosvg="https://github.com/thompson318/ndjsontosvg"
	xmlns:quickdraw="https://quickdraw.withgoogle.com/data"
	xmlns:scikit-surgery="https://doi.org/10.1007/s11548-020-02180-5">

	<rect width="100%" height="100%" fill="white" />
	<path d = "M 117.19 419.53 L 21.09 285.94 L 2.34 213.28 L 2.34 154.69 L 9.38 152.34 L 96.09 271.88 L 154.69 328.12 L 161.72 276.56 L 150.00 93.75 L 161.72 16.41 L 187.50 0.00 L 208.59 16.41 L 217.97 42.19 L 262.50 278.91 L 285.94 248.44 L 321.09 182.81 L 332.81 173.44 L 342.19 180.47 L 342.19 215.62 L 328.12 260.16 L 234.38 452.34 L 225.00 496.88 L 227.34 569.53 L 217.97 595.31 L 178.12 590.62 L 161.72 567.19 L 117.19 452.34 L 110.16 398.44" stroke="black" fill="transparent"/>
</svg>