<?xml version="1.0" encoding="UTF-8" standalone="no"?>
<!--Created with ndjsontosvg (https:https://github.com/thompson318/ndjsontosvg) 
	from the simplified Google quickdraw data set. key_id = 4807281084465152-->
<svg width="600" height="600"
	xmlns="http://www.w3.org/2000/svg">
	xmlns:ndjsontosvg="https://github.com/thompson318/ndjsontosvg"
	xmlns:quickdraw="https://quickdraw.withgoogle.com/data"
	xmlns:scikit-surgery="https://doi.org/10.1007/s11548-020-02180-5">

	<rect width="100%" height="100%" fill="white" />
	<path d = "M 234.38 150.00 L 234.38 98.44 L 246.09 53.91 L 271.88 18.75 L 300.00 2.34 L 335.16 0.00 L 372.66 23.44 L 393.75 58.59 L 426.56 147.66 L 438.28 164.06 L 459.38 175.78 L 482.81 168.75 L 482.81 96.09 L 506.25 42.19 L 527.34 28.12 L 555.47 23.44 L 571.88 23.44 L 588.28 39.84 L 595.31 70.31 L 597.66 142.97 L 590.62 185.16 L 571.88 217.97 L 485.16 309.38 L 424.22 318.75 L 391.41 337.50 L 379.69 360.94 L 382.03 445.31 L 342.19 447.66" stroke="black" fill="transparent"/>
	<path d = "M 234.38 124.22 L 222.66 175.78 L 206.25 182.81 L 166.41 182.81 L 150.00 164.06 L 121.88 91.41 L 103.12 63.28 L 72.66 37.50 L 44.53 32.81 L 23.44 44.53 L 7.03 70.31 L 0.00 124.22 L 32.81 185.16 L 67.97 220.31 L 114.84 239.06 L 234.38 260.16 L 281.25 288.28 L 295.31 332.81 L 285.94 447.66" stroke="black" fill="transparent"/>
	<path d = "M 288.28 114.84 L 292.97 121.88" stroke="black" fill="transparent"/>
	<path d = "M 335.16 93.75 L 346.88 107.81" stroke="black" fill="transparent"/>
	<path d = "M 393.75 175.78 L 403.12 217.97" stroke="black" fill="transparent"/>
	<path d = "M 342.19 309.38 L 335.16 337.50" stroke="black" fill="transparent"/>
	<path d = "M 292.97 210.94 L 292.97 210.94" stroke="black" fill="transparent"/>
</svg>