<?xml version="1.0" encoding="UTF-8" standalone="no"?>
<!--Created with ndjsontosvg (https:https://github.com/thompson318/ndjsontosvg) 
	from the simplified Google quickdraw data set. key_id = 4941775888187392-->
<svg width="600" height="600"
	xmlns="http://www.w3.org/2000/svg">
	xmlns:ndjsontosvg="https://github.com/thompson318/ndjsontosvg"
	xmlns:quickdraw="https://quickdraw.withgoogle.com/data"
	xmlns:scikit-surgery="https://doi.org/10.1007/s11548-020-02180-5">

	<rect width="100%" height="100%" fill="white" />
	<path d = "M 199.22 309.38 L 112.50 323.44 L 75.00 300.00 L 58.59 241.41 L 63.28 75.00 L 49.22 65.62 L 16.41 65.62 L 0.00 100.78 L 2.34 323.44 L 14.06 349.22 L 49.22 370.31 L 110.16 372.66 L 140.62 365.62 L 187.50 365.62 L 208.59 372.66 L 227.34 419.53 L 229.69 571.88 L 250.78 595.31 L 262.50 597.66 L 311.72 595.31 L 356.25 562.50 L 365.62 536.72 L 370.31 400.78 L 375.00 379.69 L 386.72 372.66 L 450.00 370.31 L 485.16 382.03 L 492.19 396.09 L 492.19 464.06 L 499.22 487.50 L 532.03 496.88 L 553.12 485.16 L 571.88 438.28 L 569.53 328.12 L 541.41 292.97 L 506.25 278.91 L 382.03 283.59 L 372.66 274.22 L 360.94 246.09 L 360.94 185.16 L 377.34 39.84 L 335.16 7.03 L 288.28 0.00 L 262.50 16.41 L 241.41 49.22 L 208.59 114.84 L 189.84 180.47 L 189.84 257.81 L 220.31 360.94" stroke="black" fill="transparent"/>
</svg>