<?xml version="1.0" encoding="UTF-8" standalone="no"?>
<!--Created with ndjsontosvg (https:https://github.com/thompson318/ndjsontosvg) 
	from the simplified Google quickdraw data set. key_id = 6291856281305088-->
<svg width="600" height="600"
	xmlns="http://www.w3.org/2000/svg">
	xmlns:ndjsontosvg="https://github.com/thompson318/ndjsontosvg"
	xmlns:quickdraw="https://quickdraw.withgoogle.com/data"
	xmlns:scikit-surgery="https://doi.org/10.1007/s11548-020-02180-5">

	<rect width="100%" height="100%" fill="white" />
	<path d = "M 79.69 597.66 L 67.97 501.56 L 65.62 396.09 L 2.34 290.62 L 0.00 234.38 L 11.72 217.97 L 37.50 210.94 L 89.06 262.50 L 110.16 302.34 L 119.53 304.69 L 121.88 239.06 L 107.81 185.16 L 107.81 112.50 L 131.25 28.12 L 142.97 7.03 L 157.03 0.00 L 182.81 2.34 L 203.91 37.50 L 203.91 168.75 L 215.62 292.97 L 208.59 442.97 L 257.81 386.72 L 288.28 367.97 L 297.66 375.00 L 278.91 424.22 L 264.84 492.19 L 229.69 567.19 L 232.03 588.28" stroke="black" fill="transparent"/>
</svg>