<?xml version="1.0" encoding="UTF-8" standalone="no"?>
<!--Created with ndjsontosvg (https:https://github.com/thompson318/ndjsontosvg) 
	from the simplified Google quickdraw data set. key_id = 4864984389517312-->
<svg width="600" height="600"
	xmlns="http://www.w3.org/2000/svg">
	xmlns:ndjsontosvg="https://github.com/thompson318/ndjsontosvg"
	xmlns:quickdraw="https://quickdraw.withgoogle.com/data"
	xmlns:scikit-surgery="https://doi.org/10.1007/s11548-020-02180-5">

	<rect width="100%" height="100%" fill="white" />
	<path d = "M 215.62 506.25 L 208.59 506.25 L 199.22 489.84 L 199.22 426.56 L 222.66 255.47 L 227.34 84.38 L 248.44 39.84 L 264.84 30.47 L 288.28 30.47 L 335.16 44.53 L 428.91 121.88 L 454.69 157.03 L 480.47 210.94 L 503.91 323.44 L 510.94 372.66 L 506.25 461.72 L 478.12 471.09 L 234.38 478.12 L 206.25 482.81 L 201.56 475.78" stroke="black" fill="transparent"/>
	<path d = "M 229.69 117.19 L 194.53 93.75 L 121.88 18.75 L 91.41 0.00 L 44.53 4.69 L 32.81 14.06 L 2.34 58.59 L 0.00 103.12 L 23.44 140.62 L 103.12 187.50 L 135.94 199.22 L 241.41 199.22" stroke="black" fill="transparent"/>
	<path d = "M 433.59 117.19 L 454.69 98.44 L 529.69 53.91 L 571.88 49.22 L 588.28 67.97 L 597.66 110.16 L 592.97 189.84 L 571.88 215.62 L 485.16 241.41" stroke="black" fill="transparent"/>
	<path d = "M 77.34 60.94 L 65.62 72.66" stroke="black" fill="transparent"/>
	<path d = "M 93.75 105.47 L 114.84 117.19" stroke="black" fill="transparent"/>
	<path d = "M 133.59 117.19 L 140.62 121.88" stroke="black" fill="transparent"/>
	<path d = "M 157.03 124.22 L 164.06 131.25" stroke="black" fill="transparent"/>
	<path d = "M 178.12 147.66 L 182.81 150.00" stroke="black" fill="transparent"/>
	<path d = "M 126.56 142.97 L 119.53 147.66" stroke="black" fill="transparent"/>
	<path d = "M 65.62 114.84 L 51.56 117.19" stroke="black" fill="transparent"/>
	<path d = "M 325.78 147.66 L 321.09 150.00" stroke="black" fill="transparent"/>
	<path d = "M 325.78 246.09 L 325.78 267.19" stroke="black" fill="transparent"/>
	<path d = "M 323.44 288.28 L 323.44 295.31" stroke="black" fill="transparent"/>
	<path d = "M 330.47 323.44 L 351.56 342.19" stroke="black" fill="transparent"/>
	<path d = "M 414.84 335.16 L 417.19 332.81" stroke="black" fill="transparent"/>
	<path d = "M 428.91 295.31 L 428.91 295.31" stroke="black" fill="transparent"/>
	<path d = "M 417.19 262.50 L 414.84 255.47" stroke="black" fill="transparent"/>
	<path d = "M 384.38 199.22 L 384.38 199.22" stroke="black" fill="transparent"/>
	<path d = "M 382.03 199.22 L 382.03 199.22" stroke="black" fill="transparent"/>
	<path d = "M 382.03 199.22 L 377.34 199.22" stroke="black" fill="transparent"/>
	<path d = "M 353.91 192.19 L 337.50 192.19" stroke="black" fill="transparent"/>
	<path d = "M 300.00 196.88 L 290.62 203.91" stroke="black" fill="transparent"/>
	<path d = "M 264.84 243.75 L 264.84 255.47" stroke="black" fill="transparent"/>
</svg>