<?xml version="1.0" encoding="UTF-8" standalone="no"?>
<!--Created with ndjsontosvg (https:https://github.com/thompson318/ndjsontosvg) 
	from the simplified Google quickdraw data set. key_id = 6080945666916352-->
<svg width="600" height="600"
	xmlns="http://www.w3.org/2000/svg">
	xmlns:ndjsontosvg="https://github.com/thompson318/ndjsontosvg"
	xmlns:quickdraw="https://quickdraw.withgoogle.com/data"
	xmlns:scikit-surgery="https://doi.org/10.1007/s11548-020-02180-5">

	<rect width="100%" height="100%" fill="white" />
	<path d = "M 82.03 539.06 L 93.75 525.00 L 107.81 419.53 L 82.03 391.41 L 23.44 375.00 L 7.03 365.62 L 0.00 321.09 L 2.34 227.34 L 23.44 182.81 L 49.22 168.75 L 75.00 168.75 L 79.69 227.34 L 67.97 295.31 L 86.72 307.03 L 114.84 302.34 L 121.88 281.25 L 119.53 128.91 L 138.28 46.88 L 147.66 23.44 L 164.06 9.38 L 187.50 0.00 L 208.59 2.34 L 225.00 25.78 L 225.00 60.94 L 196.88 203.91 L 196.88 339.84 L 215.62 417.19 L 236.72 400.78 L 243.75 360.94 L 257.81 339.84 L 281.25 346.88 L 285.94 386.72 L 257.81 445.31 L 227.34 468.75 L 196.88 517.97 L 180.47 562.50 L 178.12 597.66" stroke="black" fill="transparent"/>
</svg>