<?xml version="1.0" encoding="UTF-8" standalone="no"?>
<!--Created with ndjsontosvg (https:https://github.com/thompson318/ndjsontosvg) 
	from the simplified Google quickdraw data set. key_id = 5020109397557248-->
<svg width="600" height="600"
	xmlns="http://www.w3.org/2000/svg">
	xmlns:ndjsontosvg="https://github.com/thompson318/ndjsontosvg"
	xmlns:quickdraw="https://quickdraw.withgoogle.com/data"
	xmlns:scikit-surgery="https://doi.org/10.1007/s11548-020-02180-5">

	<rect width="100%" height="100%" fill="white" />
	<path d = "M 335.16 9.38 L 297.66 0.00 L 255.47 2.34 L 215.62 51.56 L 213.28 208.59 L 227.34 267.19 L 215.62 281.25 L 175.78 290.62 L 159.38 285.94 L 128.91 262.50 L 67.97 171.09 L 30.47 150.00 L 9.38 161.72 L 0.00 189.84 L 2.34 215.62 L 11.72 232.03 L 51.56 267.19 L 119.53 314.06 L 220.31 365.62 L 236.72 386.72 L 278.91 485.16 L 292.97 539.06" stroke="black" fill="transparent"/>
	<path d = "M 337.50 4.69 L 367.97 220.31 L 396.09 239.06 L 403.12 241.41 L 417.19 222.66 L 442.97 138.28 L 466.41 100.78 L 532.03 67.97 L 590.62 65.62 L 597.66 75.00 L 541.41 178.12 L 503.91 217.97 L 475.78 278.91 L 421.88 351.56 L 417.19 382.03 L 431.25 433.59" stroke="black" fill="transparent"/>
</svg>