<?xml version="1.0" encoding="UTF-8" standalone="no"?>
<!--Created with ndjsontosvg (https:https://github.com/thompson318/ndjsontosvg) 
	from the simplified Google quickdraw data set. key_id = 5402333183737856-->
<svg width="600" height="600"
	xmlns="http://www.w3.org/2000/svg">
	xmlns:ndjsontosvg="https://github.com/thompson318/ndjsontosvg"
	xmlns:quickdraw="https://quickdraw.withgoogle.com/data"
	xmlns:scikit-surgery="https://doi.org/10.1007/s11548-020-02180-5">

	<rect width="100%" height="100%" fill="white" />
	<path d = "M 4.69 199.22 L 0.00 173.44 L 14.06 150.00 L 110.16 98.44 L 246.09 60.94 L 377.34 56.25 L 468.75 79.69 L 539.06 124.22 L 567.19 168.75 L 567.19 194.53 L 555.47 222.66 L 534.38 246.09 L 466.41 290.62 L 367.97 325.78 L 264.84 344.53 L 173.44 344.53 L 100.78 325.78 L 46.88 292.97 L 21.09 255.47 L 18.75 180.47" stroke="black" fill="transparent"/>
	<path d = "M 32.81 215.62 L 16.41 410.16 L 9.38 417.19" stroke="black" fill="transparent"/>
	<path d = "M 133.59 417.19 L 567.19 396.09 L 588.28 375.00 L 597.66 321.09 L 597.66 283.59 L 578.91 236.72 L 574.22 199.22" stroke="black" fill="transparent"/>
	<path d = "M 150.00 152.34 L 128.91 138.28 L 175.78 112.50 L 213.28 100.78 L 337.50 86.72 L 405.47 86.72 L 457.03 103.12 L 478.12 117.19 L 499.22 147.66 L 501.56 185.16 L 492.19 208.59 L 459.38 241.41 L 435.94 255.47 L 332.81 288.28 L 210.94 295.31 L 150.00 271.88 L 119.53 229.69 L 110.16 199.22 L 112.50 157.03 L 138.28 117.19" stroke="black" fill="transparent"/>
	<path d = "M 128.91 206.25 L 114.84 180.47 L 107.81 128.91 L 107.81 9.38" stroke="black" fill="transparent"/>
	<path d = "M 459.38 180.47 L 454.69 93.75 L 414.84 2.34 L 164.06 4.69" stroke="black" fill="transparent"/>
</svg>