<?xml version="1.0" encoding="UTF-8" standalone="no"?>
<!--Created with ndjsontosvg (https:https://github.com/thompson318/ndjsontosvg) 
	from the simplified Google quickdraw data set. key_id = 4867718756958208-->
<svg width="600" height="600"
	xmlns="http://www.w3.org/2000/svg">
	xmlns:ndjsontosvg="https://github.com/thompson318/ndjsontosvg"
	xmlns:quickdraw="https://quickdraw.withgoogle.com/data"
	xmlns:scikit-surgery="https://doi.org/10.1007/s11548-020-02180-5">

	<rect width="100%" height="100%" fill="white" />
	<path d = "M 532.03 131.25 L 398.44 147.66 L 105.47 142.97 L 49.22 86.72 L 42.19 51.56 L 75.00 16.41 L 126.56 0.00 L 574.22 0.00 L 588.28 25.78 L 588.28 82.03 L 574.22 98.44 L 517.97 126.56" stroke="black" fill="transparent"/>
	<path d = "M 571.88 53.91 L 581.25 63.28 L 588.28 124.22 L 588.28 339.84 L 597.66 384.38 L 517.97 412.50 L 131.25 412.50 L 56.25 400.78 L 28.12 386.72 L 0.00 344.53 L 0.00 281.25 L 16.41 182.81 L 32.81 140.62 L 35.16 79.69" stroke="black" fill="transparent"/>
	<path d = "M 227.34 60.94 L 215.62 67.97 L 210.94 79.69 L 232.03 84.38 L 220.31 70.31" stroke="black" fill="transparent"/>
	<path d = "M 363.28 39.84 L 358.59 63.28 L 377.34 65.62 L 384.38 56.25 L 384.38 35.16 L 365.62 25.78" stroke="black" fill="transparent"/>
	<path d = "M 464.06 25.78 L 442.97 39.84 L 438.28 63.28 L 442.97 77.34 L 466.41 75.00 L 478.12 70.31 L 468.75 58.59 L 442.97 44.53 L 400.78 42.19" stroke="black" fill="transparent"/>
	<path d = "M 114.84 46.88 L 112.50 67.97 L 121.88 79.69 L 133.59 79.69 L 142.97 67.97 L 140.62 58.59 L 124.22 51.56" stroke="black" fill="transparent"/>
</svg>