<?xml version="1.0" encoding="UTF-8" standalone="no"?>
<!--Created with ndjsontosvg (https:https://github.com/thompson318/ndjsontosvg) 
	from the simplified Google quickdraw data set. key_id = 4635048080834560-->
<svg width="600" height="600"
	xmlns="http://www.w3.org/2000/svg">
	xmlns:ndjsontosvg="https://github.com/thompson318/ndjsontosvg"
	xmlns:quickdraw="https://quickdraw.withgoogle.com/data"
	xmlns:scikit-surgery="https://doi.org/10.1007/s11548-020-02180-5">

	<rect width="100%" height="100%" fill="white" />
	<path d = "M 30.47 300.00 L 2.34 464.06 L 0.00 527.34 L 7.03 539.06 L 112.50 567.19 L 332.81 583.59 L 478.12 583.59 L 489.84 541.41 L 499.22 285.94 L 478.12 271.88 L 433.59 267.19 L 304.69 267.19 L 255.47 278.91 L 133.59 295.31 L 23.44 295.31" stroke="black" fill="transparent"/>
	<path d = "M 23.44 297.66 L 37.50 269.53 L 86.72 229.69 L 229.69 206.25 L 382.03 206.25 L 435.94 229.69 L 457.03 243.75 L 475.78 264.84 L 478.12 285.94" stroke="black" fill="transparent"/>
	<path d = "M 60.94 377.34 L 173.44 377.34 L 227.34 370.31 L 450.00 372.66" stroke="black" fill="transparent"/>
	<path d = "M 150.00 342.19 L 150.00 342.19" stroke="black" fill="transparent"/>
	<path d = "M 150.00 342.19 L 180.47 349.22" stroke="black" fill="transparent"/>
	<path d = "M 360.94 335.16 L 360.94 335.16" stroke="black" fill="transparent"/>
	<path d = "M 98.44 229.69 L 117.19 168.75" stroke="black" fill="transparent"/>
	<path d = "M 229.69 229.69 L 269.53 173.44" stroke="black" fill="transparent"/>
	<path d = "M 356.25 210.94 L 398.44 180.47" stroke="black" fill="transparent"/>
	<path d = "M 110.16 489.84 L 110.16 489.84" stroke="black" fill="transparent"/>
	<path d = "M 110.16 489.84 L 135.94 489.84" stroke="black" fill="transparent"/>
	<path d = "M 164.06 489.84 L 241.41 489.84" stroke="black" fill="transparent"/>
	<path d = "M 267.19 489.84 L 295.31 489.84" stroke="black" fill="transparent"/>
	<path d = "M 356.25 489.84 L 356.25 489.84" stroke="black" fill="transparent"/>
	<path d = "M 145.31 419.53 L 145.31 419.53" stroke="black" fill="transparent"/>
	<path d = "M 98.44 243.75 L 98.44 124.22" stroke="black" fill="transparent"/>
	<path d = "M 100.78 96.09 L 70.31 107.81 L 16.41 107.81" stroke="black" fill="transparent"/>
	<path d = "M 276.56 168.75 L 281.25 84.38" stroke="black" fill="transparent"/>
	<path d = "M 382.03 185.16 L 414.84 138.28 L 419.53 117.19" stroke="black" fill="transparent"/>
	<path d = "M 527.34 51.56 L 527.34 51.56" stroke="black" fill="transparent"/>
	<path d = "M 588.28 7.03 L 590.62 7.03" stroke="black" fill="transparent"/>
	<path d = "M 597.66 2.34 L 597.66 0.00" stroke="black" fill="transparent"/>
</svg>