<?xml version="1.0" encoding="UTF-8" standalone="no"?>
<!--Created with ndjsontosvg (https:https://github.com/thompson318/ndjsontosvg) 
	from the simplified Google quickdraw data set. key_id = 5971361639956480-->
<svg width="600" height="600"
	xmlns="http://www.w3.org/2000/svg">
	xmlns:ndjsontosvg="https://github.com/thompson318/ndjsontosvg"
	xmlns:quickdraw="https://quickdraw.withgoogle.com/data"
	xmlns:scikit-surgery="https://doi.org/10.1007/s11548-020-02180-5">

	<rect width="100%" height="100%" fill="white" />
	<path d = "M 0.00 597.66 L 431.25 536.72 L 496.88 534.38" stroke="black" fill="transparent"/>
	<path d = "M 145.31 583.59 L 135.94 527.34 L 135.94 442.97 L 168.75 403.12 L 220.31 386.72 L 384.38 393.75 L 403.12 433.59 L 431.25 550.78" stroke="black" fill="transparent"/>
	<path d = "M 203.91 426.56 L 166.41 248.44 L 166.41 229.69 L 178.12 222.66 L 239.06 210.94 L 346.88 210.94 L 367.97 278.91 L 377.34 372.66" stroke="black" fill="transparent"/>
	<path d = "M 161.72 452.34 L 182.81 482.81 L 206.25 482.81 L 250.78 454.69 L 304.69 473.44 L 325.78 461.72 L 344.53 440.62 L 396.09 450.00 L 407.81 442.97 L 405.47 424.22" stroke="black" fill="transparent"/>
	<path d = "M 217.97 433.59 L 243.75 445.31 L 253.12 440.62 L 253.12 426.56" stroke="black" fill="transparent"/>
	<path d = "M 323.44 421.88 L 353.91 435.94 L 372.66 433.59 L 367.97 396.09" stroke="black" fill="transparent"/>
	<path d = "M 236.72 199.22 L 246.09 133.59 L 246.09 35.16 L 283.59 32.81 L 300.00 75.00 L 302.34 168.75 L 311.72 225.00" stroke="black" fill="transparent"/>
	<path d = "M 276.56 32.81 L 309.38 46.88 L 344.53 46.88 L 450.00 2.34 L 459.38 23.44 L 452.34 56.25 L 396.09 91.41 L 351.56 103.12" stroke="black" fill="transparent"/>
</svg>