<?xml version="1.0" encoding="UTF-8" standalone="no"?>
<!--Created with ndjsontosvg (https:https://github.com/thompson318/ndjsontosvg) 
	from the simplified Google quickdraw data set. key_id = 5067853529088000-->
<svg width="600" height="600"
	xmlns="http://www.w3.org/2000/svg">
	xmlns:ndjsontosvg="https://github.com/thompson318/ndjsontosvg"
	xmlns:quickdraw="https://quickdraw.withgoogle.com/data"
	xmlns:scikit-surgery="https://doi.org/10.1007/s11548-020-02180-5">

	<rect width="100%" height="100%" fill="white" />
	<path d = "M 30.47 192.19 L 51.56 222.66 L 98.44 337.50 L 171.09 595.31 L 248.44 595.31 L 487.50 557.81 L 581.25 553.12 L 492.19 300.00 L 426.56 2.34 L 208.59 37.50 L 70.31 72.66 L 39.84 96.09 L 0.00 147.66" stroke="black" fill="transparent"/>
	<path d = "M 37.50 196.88 L 37.50 196.88" stroke="black" fill="transparent"/>
	<path d = "M 35.16 196.88 L 9.38 142.97" stroke="black" fill="transparent"/>
	<path d = "M 77.34 121.88 L 103.12 194.53 L 133.59 225.00 L 225.00 187.50 L 367.97 159.38 L 375.00 152.34 L 353.91 77.34 L 330.47 44.53 L 318.75 60.94 L 175.78 112.50 L 98.44 128.91" stroke="black" fill="transparent"/>
</svg>