<?xml version="1.0" encoding="UTF-8" standalone="no"?>
<!--Created with ndjsontosvg (https:https://github.com/thompson318/ndjsontosvg) 
	from the simplified Google quickdraw data set. key_id = 5618941877551104-->
<svg width="600" height="600"
	xmlns="http://www.w3.org/2000/svg">
	xmlns:ndjsontosvg="https://github.com/thompson318/ndjsontosvg"
	xmlns:quickdraw="https://quickdraw.withgoogle.com/data"
	xmlns:scikit-surgery="https://doi.org/10.1007/s11548-020-02180-5">

	<rect width="100%" height="100%" fill="white" />
	<path d = "M 393.75 16.41 L 9.38 18.75 L 2.34 28.12 L 0.00 290.62 L 9.38 389.06 L 11.72 590.62 L 23.44 597.66 L 46.88 597.66 L 114.84 583.59 L 337.50 583.59 L 358.59 557.81 L 375.00 529.69 L 398.44 346.88 L 398.44 16.41 L 396.09 4.69 L 382.03 0.00" stroke="black" fill="transparent"/>
	<path d = "M 255.47 82.03 L 49.22 86.72 L 56.25 178.12 L 67.97 185.16 L 121.88 187.50 L 314.06 187.50 L 349.22 180.47 L 356.25 171.09 L 356.25 77.34 L 344.53 70.31 L 297.66 70.31 L 232.03 82.03" stroke="black" fill="transparent"/>
	<path d = "M 67.97 492.19 L 72.66 550.78" stroke="black" fill="transparent"/>
	<path d = "M 110.16 506.25 L 131.25 496.88 L 138.28 510.94 L 121.88 548.44 L 168.75 543.75" stroke="black" fill="transparent"/>
	<path d = "M 192.19 480.47 L 222.66 480.47 L 220.31 501.56 L 203.91 522.66 L 225.00 525.00 L 217.97 564.84 L 194.53 564.84" stroke="black" fill="transparent"/>
	<path d = "M 100.78 311.72 L 72.66 367.97" stroke="black" fill="transparent"/>
</svg>