<?xml version="1.0" encoding="UTF-8" standalone="no"?>
<!--Created with ndjsontosvg (https:https://github.com/thompson318/ndjsontosvg) 
	from the simplified Google quickdraw data set. key_id = 5788847474475008-->
<svg width="600" height="600"
	xmlns="http://www.w3.org/2000/svg">
	xmlns:ndjsontosvg="https://github.com/thompson318/ndjsontosvg"
	xmlns:quickdraw="https://quickdraw.withgoogle.com/data"
	xmlns:scikit-surgery="https://doi.org/10.1007/s11548-020-02180-5">

	<rect width="100%" height="100%" fill="white" />
	<path d = "M 2.34 0.00 L 9.38 264.84 L 35.16 454.69 L 39.84 581.25" stroke="black" fill="transparent"/>
	<path d = "M 0.00 18.75 L 21.09 7.03 L 103.12 7.03 L 267.19 30.47 L 419.53 32.81 L 442.97 37.50 L 447.66 65.62 L 447.66 295.31 L 412.50 499.22 L 412.50 595.31 L 323.44 583.59 L 18.75 588.28 L 16.41 576.56 L 23.44 560.16" stroke="black" fill="transparent"/>
	<path d = "M 63.28 82.03 L 63.28 126.56 L 72.66 142.97 L 154.69 152.34 L 363.28 147.66 L 375.00 93.75 L 365.62 89.06 L 274.22 82.03 L 89.06 93.75" stroke="black" fill="transparent"/>
	<path d = "M 314.06 105.47 L 314.06 121.88 L 321.09 121.88 L 323.44 114.84 L 309.38 103.12" stroke="black" fill="transparent"/>
	<path d = "M 290.62 112.50 L 290.62 128.91" stroke="black" fill="transparent"/>
	<path d = "M 269.53 107.81 L 267.19 133.59" stroke="black" fill="transparent"/>
	<path d = "M 255.47 112.50 L 250.78 140.62" stroke="black" fill="transparent"/>
	<path d = "M 225.00 107.81 L 225.00 131.25" stroke="black" fill="transparent"/>
	<path d = "M 199.22 342.19 L 199.22 431.25" stroke="black" fill="transparent"/>
	<path d = "M 180.47 379.69 L 281.25 365.62" stroke="black" fill="transparent"/>
	<path d = "M 271.88 412.50 L 358.59 412.50" stroke="black" fill="transparent"/>
	<path d = "M 229.69 250.78 L 138.28 264.84" stroke="black" fill="transparent"/>
	<path d = "M 203.91 295.31 L 222.66 307.03" stroke="black" fill="transparent"/>
	<path d = "M 159.38 229.69 L 187.50 269.53 L 236.72 304.69" stroke="black" fill="transparent"/>
</svg>