<?xml version="1.0" encoding="UTF-8" standalone="no"?>
<!--Created with ndjsontosvg (https:https://github.com/thompson318/ndjsontosvg) 
	from the simplified Google quickdraw data set. key_id = 6182583601725440-->
<svg width="600" height="600"
	xmlns="http://www.w3.org/2000/svg">
	xmlns:ndjsontosvg="https://github.com/thompson318/ndjsontosvg"
	xmlns:quickdraw="https://quickdraw.withgoogle.com/data"
	xmlns:scikit-surgery="https://doi.org/10.1007/s11548-020-02180-5">

	<rect width="100%" height="100%" fill="white" />
	<path d = "M 0.00 25.78 L 194.53 7.03 L 365.62 9.38 L 452.34 0.00 L 557.81 0.00 L 562.50 25.78 L 560.16 201.56 L 571.88 314.06 L 588.28 365.62 L 585.94 445.31 L 592.97 468.75 L 510.94 499.22 L 295.31 525.00 L 161.72 525.00 L 44.53 503.91 L 37.50 492.19 L 32.81 466.41 L 39.84 403.12 L 37.50 281.25 L 32.81 243.75 L 18.75 215.62 L 16.41 133.59 L 4.69 89.06 L 16.41 25.78" stroke="black" fill="transparent"/>
	<path d = "M 119.53 32.81 L 135.94 424.22 L 142.97 499.22 L 150.00 513.28 L 145.31 478.12" stroke="black" fill="transparent"/>
	<path d = "M 243.75 11.72 L 241.41 103.12 L 257.81 318.75 L 274.22 386.72 L 283.59 499.22 L 285.94 464.06" stroke="black" fill="transparent"/>
	<path d = "M 365.62 0.00 L 386.72 124.22 L 407.81 349.22 L 426.56 398.44 L 433.59 473.44" stroke="black" fill="transparent"/>
	<path d = "M 501.56 4.69 L 496.88 337.50 L 515.62 405.47 L 508.59 419.53 L 513.28 468.75 L 503.91 466.41" stroke="black" fill="transparent"/>
	<path d = "M 7.03 128.91 L 133.59 131.25 L 300.00 119.53 L 349.22 119.53 L 424.22 131.25 L 546.09 126.56" stroke="black" fill="transparent"/>
	<path d = "M 46.88 229.69 L 180.47 229.69 L 532.03 194.53 L 592.97 203.91" stroke="black" fill="transparent"/>
	<path d = "M 25.78 337.50 L 89.06 346.88 L 246.09 330.47 L 459.38 328.12 L 550.78 335.16" stroke="black" fill="transparent"/>
</svg>