<?xml version="1.0" encoding="UTF-8" standalone="no"?>
<!--Created with ndjsontosvg (https:https://github.com/thompson318/ndjsontosvg) 
	from the simplified Google quickdraw data set. key_id = 6057855562022912-->
<svg width="600" height="600"
	xmlns="http://www.w3.org/2000/svg">
	xmlns:ndjsontosvg="https://github.com/thompson318/ndjsontosvg"
	xmlns:quickdraw="https://quickdraw.withgoogle.com/data"
	xmlns:scikit-surgery="https://doi.org/10.1007/s11548-020-02180-5">

	<rect width="100%" height="100%" fill="white" />
	<path d = "M 124.22 0.00 L 103.12 105.47 L 25.78 290.62 L 0.00 386.72 L 84.38 407.81 L 175.78 452.34 L 384.38 487.50 L 517.97 487.50 L 539.06 466.41 L 569.53 370.31 L 597.66 189.84 L 597.66 140.62 L 578.91 60.94 L 351.56 58.59 L 138.28 30.47" stroke="black" fill="transparent"/>
	<path d = "M 117.19 77.34 L 234.38 145.31 L 351.56 182.81 L 506.25 182.81 L 569.53 166.41 L 595.31 140.62" stroke="black" fill="transparent"/>
	<path d = "M 227.34 75.00 L 210.94 98.44 L 187.50 107.81 L 168.75 96.09 L 171.09 77.34" stroke="black" fill="transparent"/>
	<path d = "M 185.16 72.66 L 295.31 100.78" stroke="black" fill="transparent"/>
	<path d = "M 274.22 107.81 L 278.91 140.62 L 290.62 131.25 L 290.62 159.38" stroke="black" fill="transparent"/>
	<path d = "M 311.72 100.78 L 323.44 98.44 L 344.53 117.19 L 344.53 178.12" stroke="black" fill="transparent"/>
	<path d = "M 307.03 100.78 L 309.38 166.41" stroke="black" fill="transparent"/>
	<path d = "M 382.03 124.22 L 414.84 128.91 L 424.22 117.19 L 396.09 114.84 L 379.69 128.91 L 379.69 140.62 L 384.38 154.69 L 396.09 161.72 L 426.56 159.38" stroke="black" fill="transparent"/>
</svg>