<?xml version="1.0" encoding="UTF-8" standalone="no"?>
<!--Created with ndjsontosvg (https:https://github.com/thompson318/ndjsontosvg) 
	from the simplified Google quickdraw data set. key_id = 6276587584487424-->
<svg width="600" height="600"
	xmlns="http://www.w3.org/2000/svg">
	xmlns:ndjsontosvg="https://github.com/thompson318/ndjsontosvg"
	xmlns:quickdraw="https://quickdraw.withgoogle.com/data"
	xmlns:scikit-surgery="https://doi.org/10.1007/s11548-020-02180-5">

	<rect width="100%" height="100%" fill="white" />
	<path d = "M 4.69 478.12 L 28.12 405.47 L 46.88 292.97 L 56.25 175.78 L 56.25 37.50 L 72.66 9.38 L 98.44 0.00 L 274.22 18.75 L 506.25 0.00 L 496.88 30.47 L 496.88 75.00 L 543.75 328.12 L 543.75 450.00 L 527.34 482.81 L 487.50 508.59 L 318.75 529.69 L 182.81 532.03 L 75.00 517.97 L 0.00 499.22" stroke="black" fill="transparent"/>
	<path d = "M 121.88 182.81 L 166.41 199.22 L 283.59 196.88 L 532.03 171.09" stroke="black" fill="transparent"/>
	<path d = "M 51.56 386.72 L 105.47 367.97 L 173.44 356.25 L 428.91 391.41 L 454.69 386.72 L 510.94 356.25" stroke="black" fill="transparent"/>
	<path d = "M 203.91 37.50 L 199.22 152.34 L 175.78 264.84 L 135.94 513.28 L 142.97 557.81 L 173.44 597.66" stroke="black" fill="transparent"/>
	<path d = "M 386.72 96.09 L 407.81 201.56 L 410.16 285.94 L 382.03 468.75 L 344.53 581.25" stroke="black" fill="transparent"/>
	<path d = "M 140.62 103.12 L 100.78 126.56 L 135.94 77.34 L 103.12 124.22 L 89.06 154.69 L 98.44 142.97 L 128.91 93.75 L 112.50 103.12 L 93.75 131.25" stroke="black" fill="transparent"/>
	<path d = "M 328.12 107.81 L 314.06 60.94 L 278.91 7.03 L 353.91 103.12 L 360.94 131.25" stroke="black" fill="transparent"/>
	<path d = "M 426.56 100.78 L 431.25 77.34 L 450.00 70.31 L 464.06 96.09 L 466.41 114.84 L 457.03 110.16" stroke="black" fill="transparent"/>
	<path d = "M 189.84 269.53 L 180.47 260.16 L 150.00 257.81 L 93.75 269.53" stroke="black" fill="transparent"/>
	<path d = "M 292.97 281.25 L 285.94 311.72 L 285.94 285.94 L 295.31 285.94" stroke="black" fill="transparent"/>
</svg>