<?xml version="1.0" encoding="UTF-8" standalone="no"?>
<!--Created with ndjsontosvg (https:https://github.com/thompson318/ndjsontosvg) 
	from the simplified Google quickdraw data set. key_id = 5219952678141952-->
<svg width="600" height="600"
	xmlns="http://www.w3.org/2000/svg">
	xmlns:ndjsontosvg="https://github.com/thompson318/ndjsontosvg"
	xmlns:quickdraw="https://quickdraw.withgoogle.com/data"
	xmlns:scikit-surgery="https://doi.org/10.1007/s11548-020-02180-5">

	<rect width="100%" height="100%" fill="white" />
	<path d = "M 18.75 98.44 L 14.06 168.75 L 30.47 278.91 L 30.47 536.72" stroke="black" fill="transparent"/>
	<path d = "M 30.47 536.72 L 522.66 550.78 L 595.31 546.09 L 597.66 529.69" stroke="black" fill="transparent"/>
	<path d = "M 496.88 46.88 L 499.22 98.44 L 522.66 215.62 L 532.03 384.38 L 546.09 459.38 L 550.78 534.38" stroke="black" fill="transparent"/>
	<path d = "M 0.00 53.91 L 9.38 100.78 L 42.19 119.53 L 100.78 119.53 L 114.84 107.81 L 112.50 89.06 L 86.72 44.53 L 70.31 32.81 L 53.91 30.47 L 37.50 44.53 L 21.09 84.38 L 25.78 105.47 L 44.53 117.19 L 175.78 121.88 L 192.19 117.19 L 213.28 93.75 L 220.31 75.00 L 208.59 72.66 L 189.84 84.38 L 229.69 93.75 L 342.19 93.75 L 349.22 49.22 L 339.84 25.78 L 316.41 7.03 L 278.91 0.00 L 217.97 2.34 L 161.72 28.12 L 147.66 44.53 L 140.62 63.28 L 168.75 89.06 L 283.59 112.50 L 517.97 124.22 L 499.22 60.94 L 480.47 30.47 L 454.69 14.06 L 419.53 7.03 L 353.91 9.38 L 307.03 18.75 L 292.97 30.47 L 295.31 51.56 L 307.03 67.97 L 332.81 84.38 L 377.34 96.09 L 435.94 98.44 L 515.62 96.09 L 527.34 84.38 L 515.62 77.34 L 492.19 77.34 L 492.19 84.38 L 522.66 121.88 L 576.56 138.28 L 592.97 138.28 L 590.62 126.56" stroke="black" fill="transparent"/>
	<path d = "M 98.44 255.47 L 267.19 269.53 L 339.84 222.66 L 351.56 133.59 L 346.88 337.50 L 356.25 400.78 L 375.00 442.97" stroke="black" fill="transparent"/>
</svg>