<?xml version="1.0" encoding="UTF-8" standalone="no"?>
<!--Created with ndjsontosvg (https:https://github.com/thompson318/ndjsontosvg) 
	from the simplified Google quickdraw data set. key_id = 4507013746786304-->
<svg width="600" height="600"
	xmlns="http://www.w3.org/2000/svg">
	xmlns:ndjsontosvg="https://github.com/thompson318/ndjsontosvg"
	xmlns:quickdraw="https://quickdraw.withgoogle.com/data"
	xmlns:scikit-surgery="https://doi.org/10.1007/s11548-020-02180-5">

	<rect width="100%" height="100%" fill="white" />
	<path d = "M 63.28 0.00 L 39.84 185.16 L 35.16 300.00" stroke="black" fill="transparent"/>
	<path d = "M 58.59 11.72 L 592.97 114.84 L 597.66 121.88 L 590.62 138.28 L 548.44 196.88 L 433.59 332.81 L 391.41 351.56" stroke="black" fill="transparent"/>
	<path d = "M 0.00 295.31 L 53.91 316.41 L 152.34 337.50 L 346.88 370.31 L 389.06 370.31" stroke="black" fill="transparent"/>
	<path d = "M 126.56 30.47 L 128.91 112.50 L 124.22 159.38 L 70.31 316.41" stroke="black" fill="transparent"/>
	<path d = "M 232.03 72.66 L 234.38 96.09 L 222.66 142.97 L 142.97 349.22" stroke="black" fill="transparent"/>
	<path d = "M 389.06 82.03 L 269.53 365.62" stroke="black" fill="transparent"/>
	<path d = "M 35.16 150.00 L 53.91 171.09 L 110.16 201.56 L 410.16 274.22 L 457.03 292.97" stroke="black" fill="transparent"/>
	<path d = "M 60.94 107.81 L 100.78 98.44 L 103.12 133.59" stroke="black" fill="transparent"/>
</svg>