<?xml version="1.0" encoding="UTF-8" standalone="no"?>
<!--Created with ndjsontosvg (https:https://github.com/thompson318/ndjsontosvg) 
	from the simplified Google quickdraw data set. key_id = 5427699327696896-->
<svg width="600" height="600"
	xmlns="http://www.w3.org/2000/svg">
	xmlns:ndjsontosvg="https://github.com/thompson318/ndjsontosvg"
	xmlns:quickdraw="https://quickdraw.withgoogle.com/data"
	xmlns:scikit-surgery="https://doi.org/10.1007/s11548-020-02180-5">

	<rect width="100%" height="100%" fill="white" />
	<path d = "M 135.94 192.19 L 250.78 199.22 L 267.19 142.97 L 300.00 135.94 L 330.47 157.03 L 356.25 192.19 L 433.59 201.56 L 473.44 161.72 L 503.91 145.31 L 569.53 185.16 L 574.22 222.66 L 585.94 232.03 L 597.66 260.16 L 592.97 292.97 L 536.72 332.81 L 520.31 276.56 L 466.41 325.78 L 431.25 274.22 L 403.12 260.16 L 337.50 311.72 L 314.06 239.06 L 307.03 236.72 L 283.59 250.78 L 243.75 297.66 L 225.00 300.00 L 185.16 283.59 L 159.38 206.25" stroke="black" fill="transparent"/>
	<path d = "M 166.41 192.19 L 180.47 145.31 L 180.47 112.50 L 166.41 51.56 L 121.88 14.06 L 84.38 2.34 L 46.88 0.00 L 4.69 16.41 L 4.69 37.50 L 18.75 53.91 L 75.00 49.22 L 89.06 58.59 L 126.56 117.19 L 150.00 194.53" stroke="black" fill="transparent"/>
	<path d = "M 63.28 28.12 L 58.59 30.47" stroke="black" fill="transparent"/>
</svg>