<?xml version="1.0" encoding="UTF-8" standalone="no"?>
<!--Created with ndjsontosvg (https:https://github.com/thompson318/ndjsontosvg) 
	from the simplified Google quickdraw data set. key_id = 4900196225908736-->
<svg width="600" height="600"
	xmlns="http://www.w3.org/2000/svg">
	xmlns:ndjsontosvg="https://github.com/thompson318/ndjsontosvg"
	xmlns:quickdraw="https://quickdraw.withgoogle.com/data"
	xmlns:scikit-surgery="https://doi.org/10.1007/s11548-020-02180-5">

	<rect width="100%" height="100%" fill="white" />
	<path d = "M 513.28 30.47 L 159.38 0.00 L 28.12 7.03 L 9.38 51.56 L 0.00 119.53 L 7.03 304.69 L 16.41 339.84 L 72.66 367.97 L 152.34 365.62 L 330.47 339.84 L 581.25 278.91 L 590.62 274.22 L 597.66 255.47 L 592.97 199.22 L 569.53 107.81 L 548.44 77.34" stroke="black" fill="transparent"/>
	<path d = "M 459.38 161.72 L 440.62 131.25 L 407.81 103.12 L 384.38 91.41 L 330.47 93.75 L 300.00 114.84 L 278.91 152.34 L 267.19 192.19 L 269.53 241.41 L 288.28 271.88 L 325.78 295.31 L 375.00 297.66 L 417.19 288.28 L 442.97 253.12 L 454.69 210.94 L 464.06 152.34 L 450.00 110.16" stroke="black" fill="transparent"/>
	<path d = "M 358.59 178.12 L 384.38 166.41 L 393.75 171.09 L 410.16 194.53 L 410.16 208.59 L 389.06 243.75 L 367.97 257.81 L 344.53 260.16 L 316.41 246.09 L 307.03 222.66 L 311.72 175.78 L 339.84 145.31 L 363.28 145.31" stroke="black" fill="transparent"/>
</svg>