<?xml version="1.0" encoding="UTF-8" standalone="no"?>
<!--Created with ndjsontosvg (https:https://github.com/thompson318/ndjsontosvg) 
	from the simplified Google quickdraw data set. key_id = 6616919706697728-->
<svg width="600" height="600"
	xmlns="http://www.w3.org/2000/svg">
	xmlns:ndjsontosvg="https://github.com/thompson318/ndjsontosvg"
	xmlns:quickdraw="https://quickdraw.withgoogle.com/data"
	xmlns:scikit-surgery="https://doi.org/10.1007/s11548-020-02180-5">

	<rect width="100%" height="100%" fill="white" />
	<path d = "M 0.00 119.53 L 178.12 131.25 L 595.31 187.50 L 597.66 203.91 L 585.94 234.38 L 548.44 302.34 L 475.78 391.41 L 452.34 482.81 L 440.62 485.16 L 393.75 475.78 L 206.25 407.81 L 140.62 393.75 L 46.88 389.06 L 30.47 363.28 L 30.47 346.88 L 67.97 239.06 L 67.97 173.44 L 49.22 124.22" stroke="black" fill="transparent"/>
	<path d = "M 100.78 4.69 L 67.97 35.16 L 60.94 70.31 L 60.94 107.81 L 93.75 154.69 L 114.84 164.06 L 142.97 161.72 L 175.78 152.34 L 203.91 128.91 L 213.28 67.97 L 201.56 37.50 L 180.47 18.75 L 135.94 0.00 L 117.19 4.69" stroke="black" fill="transparent"/>
	<path d = "M 281.25 253.12 L 271.88 234.38 L 253.12 232.03 L 196.88 269.53 L 178.12 292.97 L 161.72 337.50 L 164.06 365.62 L 173.44 377.34 L 199.22 389.06 L 253.12 398.44 L 363.28 398.44 L 375.00 379.69 L 377.34 356.25 L 349.22 302.34 L 311.72 269.53 L 262.50 260.16" stroke="black" fill="transparent"/>
</svg>