<?xml version="1.0" encoding="UTF-8" standalone="no"?>
<!--Created with ndjsontosvg (https:https://github.com/thompson318/ndjsontosvg) 
	from the simplified Google quickdraw data set. key_id = 5936293718523904-->
<svg width="600" height="600"
	xmlns="http://www.w3.org/2000/svg">
	xmlns:ndjsontosvg="https://github.com/thompson318/ndjsontosvg"
	xmlns:quickdraw="https://quickdraw.withgoogle.com/data"
	xmlns:scikit-surgery="https://doi.org/10.1007/s11548-020-02180-5">

	<rect width="100%" height="100%" fill="white" />
	<path d = "M 138.28 199.22 L 121.88 248.44 L 121.88 271.88 L 126.56 288.28 L 157.03 314.06 L 168.75 335.16 L 187.50 447.66 L 201.56 396.09 L 196.88 342.19 L 208.59 325.78 L 328.12 309.38 L 363.28 311.72 L 370.31 314.06 L 353.91 426.56 L 391.41 424.22 L 440.62 410.16 L 454.69 391.41 L 438.28 318.75 L 440.62 295.31 L 510.94 257.81 L 539.06 217.97 L 529.69 187.50 L 494.53 135.94 L 442.97 107.81 L 410.16 107.81 L 372.66 124.22 L 353.91 142.97 L 339.84 173.44 L 337.50 79.69 L 325.78 56.25 L 307.03 44.53 L 269.53 44.53 L 257.81 53.91 L 232.03 147.66 L 222.66 131.25 L 208.59 82.03 L 196.88 77.34 L 168.75 103.12 L 154.69 157.03 L 147.66 154.69 L 121.88 67.97 L 107.81 44.53 L 65.62 9.38 L 39.84 0.00 L 11.72 4.69 L 4.69 16.41 L 0.00 42.19 L 7.03 63.28 L 18.75 75.00 L 84.38 93.75 L 100.78 121.88 L 112.50 157.03 L 135.94 192.19 L 138.28 213.28" stroke="black" fill="transparent"/>
	<path d = "M 520.31 131.25 L 560.16 147.66 L 583.59 168.75 L 595.31 194.53 L 597.66 236.72" stroke="black" fill="transparent"/>
</svg>