<?xml version="1.0" encoding="UTF-8" standalone="no"?>
<!--Created with ndjsontosvg (https:https://github.com/thompson318/ndjsontosvg) 
	from the simplified Google quickdraw data set. key_id = 5865803792515072-->
<svg width="600" height="600"
	xmlns="http://www.w3.org/2000/svg">
	xmlns:ndjsontosvg="https://github.com/thompson318/ndjsontosvg"
	xmlns:quickdraw="https://quickdraw.withgoogle.com/data"
	xmlns:scikit-surgery="https://doi.org/10.1007/s11548-020-02180-5">

	<rect width="100%" height="100%" fill="white" />
	<path d = "M 0.00 100.78 L 119.53 100.78 L 138.28 86.72 L 194.53 23.44 L 248.44 0.00 L 281.25 2.34 L 314.06 65.62 L 346.88 91.41 L 447.66 93.75 L 475.78 79.69 L 520.31 23.44 L 597.66 28.12 L 595.31 65.62 L 560.16 72.66 L 548.44 86.72 L 548.44 147.66 L 494.53 185.16 L 482.81 325.78 L 447.66 332.81 L 438.28 246.09 L 407.81 215.62 L 391.41 220.31 L 393.75 274.22 L 400.78 292.97 L 396.09 311.72 L 337.50 311.72 L 323.44 267.19 L 323.44 227.34 L 290.62 222.66 L 267.19 239.06 L 267.19 328.12 L 250.78 332.81 L 215.62 328.12 L 189.84 283.59 L 185.16 250.78 L 161.72 246.09" stroke="black" fill="transparent"/>
</svg>