<?xml version="1.0" encoding="UTF-8" standalone="no"?>
<!--Created with ndjsontosvg (https:https://github.com/thompson318/ndjsontosvg) 
	from the simplified Google quickdraw data set. key_id = 6676928620658688-->
<svg width="600" height="600"
	xmlns="http://www.w3.org/2000/svg">
	xmlns:ndjsontosvg="https://github.com/thompson318/ndjsontosvg"
	xmlns:quickdraw="https://quickdraw.withgoogle.com/data"
	xmlns:scikit-surgery="https://doi.org/10.1007/s11548-020-02180-5">

	<rect width="100%" height="100%" fill="white" />
	<path d = "M 0.00 232.03 L 89.06 234.38 L 154.69 147.66 L 192.19 140.62 L 232.03 164.06 L 285.94 229.69 L 351.56 243.75 L 382.03 241.41 L 389.06 234.38 L 396.09 187.50 L 396.09 0.00 L 428.91 117.19 L 541.41 105.47 L 588.28 124.22 L 597.66 133.59 L 595.31 154.69 L 569.53 171.09 L 475.78 199.22 L 466.41 278.91 L 450.00 328.12 L 295.31 349.22 L 196.88 346.88 L 110.16 335.16 L 37.50 302.34 L 23.44 276.56 L 21.09 241.41 L 23.44 428.91 L 32.81 496.88 L 56.25 489.84 L 124.22 489.84 L 147.66 396.09 L 140.62 356.25 L 168.75 356.25 L 337.50 393.75" stroke="black" fill="transparent"/>
	<path d = "M 356.25 339.84 L 358.59 405.47" stroke="black" fill="transparent"/>
</svg>