<?xml version="1.0" encoding="UTF-8" standalone="no"?>
<!--Created with ndjsontosvg (https:https://github.com/thompson318/ndjsontosvg) 
	from the simplified Google quickdraw data set. key_id = 4849486268465152-->
<svg width="600" height="600"
	xmlns="http://www.w3.org/2000/svg">
	xmlns:ndjsontosvg="https://github.com/thompson318/ndjsontosvg"
	xmlns:quickdraw="https://quickdraw.withgoogle.com/data"
	xmlns:scikit-surgery="https://doi.org/10.1007/s11548-020-02180-5">

	<rect width="100%" height="100%" fill="white" />
	<path d = "M 150.00 4.69 L 121.88 2.34 L 110.16 7.03 L 96.09 25.78 L 84.38 75.00 L 72.66 89.06 L 58.59 98.44 L 14.06 103.12 L 4.69 112.50 L 0.00 157.03 L 16.41 185.16 L 65.62 201.56 L 91.41 192.19" stroke="black" fill="transparent"/>
	<path d = "M 154.69 70.31 L 182.81 75.00 L 194.53 53.91 L 182.81 14.06 L 154.69 0.00" stroke="black" fill="transparent"/>
	<path d = "M 187.50 79.69 L 192.19 152.34 L 206.25 206.25 L 278.91 260.16 L 302.34 262.50 L 316.41 253.12 L 323.44 217.97 L 321.09 178.12 L 342.19 138.28 L 363.28 126.56 L 412.50 119.53 L 457.03 133.59 L 464.06 140.62 L 452.34 175.78 L 464.06 217.97 L 480.47 241.41 L 539.06 241.41 L 574.22 276.56 L 597.66 358.59 L 595.31 403.12" stroke="black" fill="transparent"/>
</svg>