<?xml version="1.0" encoding="UTF-8" standalone="no"?>
<!--Created with ndjsontosvg (https:https://github.com/thompson318/ndjsontosvg) 
	from the simplified Google quickdraw data set. key_id = 6620960998293504-->
<svg width="600" height="600"
	xmlns="http://www.w3.org/2000/svg">
	xmlns:ndjsontosvg="https://github.com/thompson318/ndjsontosvg"
	xmlns:quickdraw="https://quickdraw.withgoogle.com/data"
	xmlns:scikit-surgery="https://doi.org/10.1007/s11548-020-02180-5">

	<rect width="100%" height="100%" fill="white" />
	<path d = "M 203.91 173.44 L 182.81 100.78 L 147.66 37.50 L 112.50 25.78 L 60.94 35.16 L 11.72 63.28 L 0.00 89.06 L 9.38 105.47 L 30.47 114.84 L 91.41 110.16 L 135.94 166.41 L 178.12 316.41 L 135.94 450.00 L 150.00 450.00 L 164.06 440.62 L 182.81 412.50 L 201.56 335.16 L 227.34 325.78 L 300.00 328.12 L 358.59 346.88 L 450.00 360.94 L 529.69 358.59 L 541.41 445.31 L 597.66 445.31 L 583.59 393.75 L 555.47 335.16 L 555.47 290.62 L 581.25 182.81 L 576.56 152.34 L 365.62 112.50 L 358.59 28.12 L 337.50 9.38 L 292.97 0.00 L 271.88 11.72 L 253.12 44.53 L 222.66 157.03 L 206.25 166.41" stroke="black" fill="transparent"/>
</svg>