<?xml version="1.0" encoding="UTF-8" standalone="no"?>
<!--Created with ndjsontosvg (https:https://github.com/thompson318/ndjsontosvg) 
	from the simplified Google quickdraw data set. key_id = 5627686628098048-->
<svg width="600" height="600"
	xmlns="http://www.w3.org/2000/svg">
	xmlns:ndjsontosvg="https://github.com/thompson318/ndjsontosvg"
	xmlns:quickdraw="https://quickdraw.withgoogle.com/data"
	xmlns:scikit-surgery="https://doi.org/10.1007/s11548-020-02180-5">

	<rect width="100%" height="100%" fill="white" />
	<path d = "M 21.09 82.03 L 21.09 25.78 L 42.19 18.75 L 56.25 25.78 L 63.28 161.72 L 79.69 178.12 L 133.59 175.78 L 138.28 150.00 L 199.22 39.84 L 232.03 0.00 L 271.88 4.69 L 281.25 9.38 L 304.69 58.59 L 318.75 173.44 L 330.47 133.59 L 351.56 112.50 L 393.75 100.78 L 431.25 105.47 L 438.28 126.56 L 440.62 192.19 L 492.19 192.19 L 529.69 213.28 L 576.56 292.97 L 597.66 351.56 L 543.75 271.88 L 496.88 248.44 L 480.47 246.09 L 496.88 382.03 L 496.88 435.94 L 466.41 468.75 L 405.47 468.75 L 389.06 452.34 L 391.41 367.97 L 367.97 339.84 L 356.25 339.84 L 346.88 356.25 L 335.16 447.66 L 325.78 457.03 L 309.38 457.03 L 271.88 356.25 L 239.06 311.72 L 222.66 309.38 L 222.66 318.75 L 213.28 325.78 L 133.59 318.75 L 114.84 325.78 L 67.97 307.03 L 79.69 433.59 L 58.59 459.38 L 28.12 461.72 L 4.69 442.97 L 0.00 421.88 L 0.00 375.00 L 14.06 328.12" stroke="black" fill="transparent"/>
</svg>