<?xml version="1.0" encoding="UTF-8" standalone="no"?>
<!--Created with ndjsontosvg (https:https://github.com/thompson318/ndjsontosvg) 
	from the simplified Google quickdraw data set. key_id = 5823560675229696-->
<svg width="600" height="600"
	xmlns="http://www.w3.org/2000/svg">
	xmlns:ndjsontosvg="https://github.com/thompson318/ndjsontosvg"
	xmlns:quickdraw="https://quickdraw.withgoogle.com/data"
	xmlns:scikit-surgery="https://doi.org/10.1007/s11548-020-02180-5">

	<rect width="100%" height="100%" fill="white" />
	<path d = "M 110.16 37.50 L 253.12 42.19 L 454.69 84.38 L 595.31 84.38 L 597.66 126.56 L 583.59 225.00 L 574.22 243.75 L 557.81 246.09 L 30.47 236.72 L 16.41 213.28 L 7.03 150.00 L 0.00 16.41 L 14.06 4.69 L 142.97 2.34 L 386.72 37.50" stroke="black" fill="transparent"/>
	<path d = "M 328.12 145.31 L 321.09 117.19 L 267.19 91.41 L 227.34 91.41 L 213.28 105.47 L 213.28 133.59 L 232.03 152.34 L 285.94 180.47 L 353.91 182.81 L 360.94 164.06 L 353.91 142.97 L 271.88 60.94" stroke="black" fill="transparent"/>
	<path d = "M 290.62 103.12 L 276.56 100.78 L 269.53 112.50 L 311.72 128.91 L 278.91 112.50 L 288.28 107.81 L 300.00 114.84 L 288.28 117.19 L 276.56 110.16 L 285.94 107.81 L 292.97 117.19 L 281.25 119.53 L 276.56 110.16 L 288.28 107.81 L 309.38 121.88" stroke="black" fill="transparent"/>
</svg>