<?xml version="1.0" encoding="UTF-8" standalone="no"?>
<!--Created with ndjsontosvg (https:https://github.com/thompson318/ndjsontosvg) 
	from the simplified Google quickdraw data set. key_id = 6173292446613504-->
<svg width="600" height="600"
	xmlns="http://www.w3.org/2000/svg">
	xmlns:ndjsontosvg="https://github.com/thompson318/ndjsontosvg"
	xmlns:quickdraw="https://quickdraw.withgoogle.com/data"
	xmlns:scikit-surgery="https://doi.org/10.1007/s11548-020-02180-5">

	<rect width="100%" height="100%" fill="white" />
	<path d = "M 314.06 100.78 L 349.22 84.38 L 393.75 84.38 L 421.88 96.09 L 442.97 126.56 L 405.47 199.22 L 358.59 208.59 L 339.84 199.22 L 325.78 171.09 L 330.47 131.25 L 353.91 103.12" stroke="black" fill="transparent"/>
	<path d = "M 597.66 0.00 L 595.31 138.28 L 583.59 208.59 L 517.97 356.25 L 485.16 372.66 L 452.34 377.34 L 316.41 370.31 L 147.66 382.03 L 105.47 370.31 L 91.41 342.19 L 86.72 311.72 L 77.34 152.34 L 53.91 35.16 L 103.12 16.41 L 227.34 2.34 L 489.84 0.00 L 571.88 9.38" stroke="black" fill="transparent"/>
	<path d = "M 175.78 37.50 L 180.47 77.34 L 178.12 91.41 L 166.41 100.78 L 51.56 138.28 L 0.00 164.06" stroke="black" fill="transparent"/>
</svg>