<?xml version="1.0" encoding="UTF-8" standalone="no"?>
<!--Created with ndjsontosvg (https:https://github.com/thompson318/ndjsontosvg) 
	from the simplified Google quickdraw data set. key_id = 5342660099309568-->
<svg width="600" height="600"
	xmlns="http://www.w3.org/2000/svg">
	xmlns:ndjsontosvg="https://github.com/thompson318/ndjsontosvg"
	xmlns:quickdraw="https://quickdraw.withgoogle.com/data"
	xmlns:scikit-surgery="https://doi.org/10.1007/s11548-020-02180-5">

	<rect width="100%" height="100%" fill="white" />
	<path d = "M 128.91 58.59 L 96.09 25.78 L 28.12 23.44 L 2.34 49.22 L 4.69 91.41 L 21.09 103.12 L 126.56 114.84 L 133.59 290.62 L 142.97 337.50 L 192.19 356.25 L 288.28 363.28 L 307.03 321.09 L 318.75 215.62 L 325.78 201.56 L 410.16 206.25 L 417.19 220.31 L 431.25 314.06 L 457.03 330.47 L 482.81 335.16 L 501.56 328.12 L 571.88 281.25 L 592.97 236.72 L 597.66 182.81 L 588.28 93.75 L 562.50 30.47 L 548.44 23.44 L 412.50 28.12 L 391.41 39.84 L 365.62 77.34 L 346.88 82.03 L 332.81 65.62 L 316.41 0.00 L 288.28 9.38 L 267.19 65.62 L 248.44 75.00 L 236.72 63.28 L 222.66 14.06 L 210.94 4.69 L 182.81 21.09 L 157.03 72.66 L 112.50 60.94" stroke="black" fill="transparent"/>
	<path d = "M 28.12 44.53 L 30.47 44.53" stroke="black" fill="transparent"/>
	<path d = "M 11.72 70.31 L 2.34 70.31" stroke="black" fill="transparent"/>
</svg>