<?xml version="1.0" encoding="UTF-8" standalone="no"?>
<!--Created with ndjsontosvg (https:https://github.com/thompson318/ndjsontosvg) 
	from the simplified Google quickdraw data set. key_id = 4991886160822272-->
<svg width="600" height="600"
	xmlns="http://www.w3.org/2000/svg">
	xmlns:ndjsontosvg="https://github.com/thompson318/ndjsontosvg"
	xmlns:quickdraw="https://quickdraw.withgoogle.com/data"
	xmlns:scikit-surgery="https://doi.org/10.1007/s11548-020-02180-5">

	<rect width="100%" height="100%" fill="white" />
	<path d = "M 222.66 175.78 L 206.25 157.03 L 196.88 128.91 L 215.62 77.34 L 220.31 32.81 L 201.56 16.41 L 159.38 0.00 L 128.91 4.69 L 110.16 25.78 L 100.78 53.91 L 100.78 117.19 L 93.75 133.59 L 75.00 140.62 L 9.38 135.94 L 0.00 152.34 L 7.03 159.38 L 42.19 171.09 L 147.66 145.31 L 173.44 159.38 L 194.53 260.16 L 187.50 487.50 L 187.50 581.25 L 192.19 597.66 L 203.91 592.97 L 210.94 574.22 L 225.00 466.41 L 229.69 346.88 L 243.75 290.62 L 337.50 562.50 L 346.88 400.78 L 335.16 300.00 L 421.88 532.03 L 421.88 311.72 L 450.00 396.09 L 541.41 548.44 L 539.06 372.66" stroke="black" fill="transparent"/>
	<path d = "M 220.31 171.09 L 234.38 161.72 L 255.47 53.91 L 269.53 30.47 L 290.62 14.06 L 309.38 11.72 L 321.09 18.75 L 342.19 53.91 L 363.28 126.56 L 377.34 145.31 L 405.47 157.03 L 428.91 157.03 L 440.62 131.25 L 461.72 58.59 L 473.44 44.53 L 510.94 44.53 L 555.47 67.97 L 581.25 119.53 L 590.62 208.59 L 578.91 285.94 L 553.12 356.25 L 548.44 398.44" stroke="black" fill="transparent"/>
</svg>