<?xml version="1.0" encoding="UTF-8" standalone="no"?>
<!--Created with ndjsontosvg (https:https://github.com/thompson318/ndjsontosvg) 
	from the simplified Google quickdraw data set. key_id = 5018196241285120-->
<svg width="600" height="600"
	xmlns="http://www.w3.org/2000/svg">
	xmlns:ndjsontosvg="https://github.com/thompson318/ndjsontosvg"
	xmlns:quickdraw="https://quickdraw.withgoogle.com/data"
	xmlns:scikit-surgery="https://doi.org/10.1007/s11548-020-02180-5">

	<rect width="100%" height="100%" fill="white" />
	<path d = "M 30.47 227.34 L 30.47 114.84 L 147.66 86.72 L 227.34 77.34 L 564.84 86.72 L 597.66 358.59 L 529.69 356.25 L 0.00 407.81 L 16.41 389.06 L 51.56 236.72 L 49.22 203.91 L 28.12 173.44" stroke="black" fill="transparent"/>
	<path d = "M 84.38 93.75 L 86.72 25.78 L 138.28 0.00 L 157.03 0.00 L 180.47 18.75 L 206.25 91.41" stroke="black" fill="transparent"/>
	<path d = "M 274.22 145.31 L 236.72 196.88 L 222.66 246.09 L 290.62 332.81 L 309.38 344.53 L 360.94 349.22 L 410.16 328.12 L 433.59 307.03 L 428.91 192.19 L 421.88 168.75 L 396.09 138.28 L 328.12 133.59 L 288.28 142.97 L 262.50 166.41 L 246.09 201.56" stroke="black" fill="transparent"/>
	<path d = "M 321.09 201.56 L 302.34 236.72 L 300.00 300.00 L 311.72 321.09 L 330.47 332.81 L 372.66 335.16 L 393.75 318.75 L 403.12 297.66 L 407.81 229.69 L 389.06 201.56 L 353.91 189.84" stroke="black" fill="transparent"/>
</svg>