<?xml version="1.0" encoding="UTF-8" standalone="no"?>
<!--Created with ndjsontosvg (https:https://github.com/thompson318/ndjsontosvg) 
	from the simplified Google quickdraw data set. key_id = 5779946913923072-->
<svg width="600" height="600"
	xmlns="http://www.w3.org/2000/svg">
	xmlns:ndjsontosvg="https://github.com/thompson318/ndjsontosvg"
	xmlns:quickdraw="https://quickdraw.withgoogle.com/data"
	xmlns:scikit-surgery="https://doi.org/10.1007/s11548-020-02180-5">

	<rect width="100%" height="100%" fill="white" />
	<path d = "M 16.41 58.59 L 351.56 60.94 L 527.34 75.00 L 595.31 70.31" stroke="black" fill="transparent"/>
	<path d = "M 0.00 53.91 L 9.38 210.94 L 4.69 370.31 L 203.91 396.09 L 435.94 398.44 L 461.72 393.75 L 466.41 365.62" stroke="black" fill="transparent"/>
	<path d = "M 581.25 86.72 L 583.59 276.56 L 597.66 405.47 L 543.75 407.81 L 433.59 386.72" stroke="black" fill="transparent"/>
	<path d = "M 365.62 140.62 L 337.50 140.62 L 325.78 157.03 L 318.75 187.50 L 323.44 236.72 L 363.28 274.22 L 438.28 290.62 L 459.38 250.78 L 450.00 185.16 L 407.81 154.69 L 360.94 142.97" stroke="black" fill="transparent"/>
	<path d = "M 346.88 53.91 L 344.53 16.41 L 367.97 2.34 L 389.06 0.00 L 403.12 42.19" stroke="black" fill="transparent"/>
</svg>