<?xml version="1.0" encoding="UTF-8" standalone="no"?>
<!--Created with ndjsontosvg (https:https://github.com/thompson318/ndjsontosvg) 
	from the simplified Google quickdraw data set. key_id = 5203408703193088-->
<svg width="600" height="600"
	xmlns="http://www.w3.org/2000/svg">
	xmlns:ndjsontosvg="https://github.com/thompson318/ndjsontosvg"
	xmlns:quickdraw="https://quickdraw.withgoogle.com/data"
	xmlns:scikit-surgery="https://doi.org/10.1007/s11548-020-02180-5">

	<rect width="100%" height="100%" fill="white" />
	<path d = "M 84.38 25.78 L 117.19 23.44 L 131.25 32.81 L 128.91 53.91 L 56.25 124.22 L 35.16 157.03 L 0.00 164.06" stroke="black" fill="transparent"/>
	<path d = "M 37.50 201.56 L 105.47 217.97 L 140.62 269.53 L 201.56 283.59 L 250.78 353.91 L 304.69 384.38 L 328.12 419.53 L 356.25 419.53" stroke="black" fill="transparent"/>
	<path d = "M 117.19 208.59 L 107.81 196.88 L 105.47 178.12 L 140.62 133.59 L 166.41 114.84 L 196.88 117.19 L 225.00 147.66 L 276.56 140.62 L 302.34 150.00 L 318.75 175.78 L 316.41 234.38 L 267.19 328.12" stroke="black" fill="transparent"/>
	<path d = "M 4.69 309.38 L 28.12 307.03 L 49.22 353.91 L 107.81 365.62 L 150.00 421.88" stroke="black" fill="transparent"/>
	<path d = "M 288.28 131.25 L 285.94 100.78 L 311.72 63.28 L 358.59 77.34 L 419.53 42.19 L 442.97 42.19 L 482.81 79.69 L 501.56 89.06 L 525.00 84.38 L 567.19 60.94 L 597.66 72.66" stroke="black" fill="transparent"/>
	<path d = "M 300.00 199.22 L 360.94 196.88 L 377.34 243.75 L 396.09 260.16 L 426.56 264.84 L 529.69 234.38 L 595.31 278.91" stroke="black" fill="transparent"/>
	<path d = "M 445.31 269.53 L 440.62 257.81 L 431.25 257.81 L 407.81 281.25 L 403.12 297.66 L 438.28 339.84 L 452.34 419.53" stroke="black" fill="transparent"/>
	<path d = "M 241.41 119.53 L 225.00 96.09 L 225.00 67.97 L 243.75 0.00" stroke="black" fill="transparent"/>
	<path d = "M 389.06 138.28 L 403.12 117.19 L 433.59 114.84 L 447.66 128.91 L 445.31 142.97 L 461.72 152.34 L 461.72 164.06 L 452.34 173.44 L 410.16 175.78 L 377.34 157.03 L 367.97 142.97 L 363.28 128.91 L 382.03 124.22" stroke="black" fill="transparent"/>
</svg>