<?xml version="1.0" encoding="UTF-8" standalone="no"?>
<!--Created with ndjsontosvg (https:https://github.com/thompson318/ndjsontosvg) 
	from the simplified Google quickdraw data set. key_id = 5626061586956288-->
<svg width="600" height="600"
	xmlns="http://www.w3.org/2000/svg">
	xmlns:ndjsontosvg="https://github.com/thompson318/ndjsontosvg"
	xmlns:quickdraw="https://quickdraw.withgoogle.com/data"
	xmlns:scikit-surgery="https://doi.org/10.1007/s11548-020-02180-5">

	<rect width="100%" height="100%" fill="white" />
	<path d = "M 147.66 21.09 L 203.91 79.69 L 232.03 96.09 L 250.78 103.12 L 300.00 100.78 L 318.75 86.72 L 330.47 70.31 L 339.84 28.12 L 325.78 23.44 L 288.28 39.84 L 283.59 56.25 L 236.72 63.28 L 217.97 39.84 L 213.28 23.44 L 180.47 0.00 L 157.03 16.41" stroke="black" fill="transparent"/>
	<path d = "M 157.03 23.44 L 49.22 203.91 L 0.00 323.44 L 0.00 375.00 L 44.53 412.50 L 103.12 410.16 L 142.97 375.00 L 175.78 297.66 L 196.88 300.00 L 234.38 360.94 L 234.38 485.16 L 243.75 595.31 L 323.44 595.31 L 363.28 571.88 L 377.34 555.47 L 377.34 391.41 L 384.38 349.22 L 447.66 307.03 L 475.78 358.59 L 494.53 375.00 L 510.94 377.34 L 541.41 335.16 L 536.72 281.25 L 503.91 264.84 L 487.50 264.84 L 428.91 124.22 L 346.88 60.94" stroke="black" fill="transparent"/>
</svg>