<?xml version="1.0" encoding="UTF-8" standalone="no"?>
<!--Created with ndjsontosvg (https:https://github.com/thompson318/ndjsontosvg) 
	from the simplified Google quickdraw data set. key_id = 4518812860809216-->
<svg width="600" height="600"
	xmlns="http://www.w3.org/2000/svg">
	xmlns:ndjsontosvg="https://github.com/thompson318/ndjsontosvg"
	xmlns:quickdraw="https://quickdraw.withgoogle.com/data"
	xmlns:scikit-surgery="https://doi.org/10.1007/s11548-020-02180-5">

	<rect width="100%" height="100%" fill="white" />
	<path d = "M 70.31 79.69 L 53.91 79.69 L 35.16 91.41 L 0.00 152.34 L 4.69 175.78 L 28.12 220.31 L 35.16 318.75 L 49.22 337.50 L 84.38 356.25 L 150.00 358.59 L 171.09 349.22 L 194.53 328.12 L 196.88 264.84 L 173.44 215.62 L 128.91 201.56 L 119.53 192.19 L 117.19 166.41 L 131.25 128.91 L 126.56 114.84 L 70.31 91.41 L 42.19 91.41" stroke="black" fill="transparent"/>
	<path d = "M 318.75 14.06 L 300.00 16.41 L 276.56 42.19 L 267.19 79.69 L 269.53 110.16 L 290.62 140.62 L 356.25 171.09 L 365.62 187.50 L 311.72 302.34 L 410.16 332.81 L 515.62 337.50 L 543.75 323.44 L 571.88 297.66 L 597.66 241.41 L 590.62 227.34 L 546.09 196.88 L 440.62 147.66 L 452.34 117.19 L 492.19 65.62 L 473.44 37.50 L 424.22 18.75 L 302.34 2.34" stroke="black" fill="transparent"/>
	<path d = "M 192.19 0.00 L 145.31 84.38 L 145.31 96.09 L 187.50 131.25 L 189.84 145.31 L 225.00 154.69 L 229.69 171.09 L 281.25 215.62 L 278.91 222.66 L 309.38 225.00 L 328.12 210.94 L 316.41 187.50 L 264.84 145.31 L 255.47 79.69 L 213.28 37.50 L 217.97 21.09 L 187.50 16.41 L 192.19 28.12" stroke="black" fill="transparent"/>
</svg>