<?xml version="1.0" encoding="UTF-8" standalone="no"?>
<!--Created with ndjsontosvg (https:https://github.com/thompson318/ndjsontosvg) 
	from the simplified Google quickdraw data set. key_id = 5290404394041344-->
<svg width="600" height="600"
	xmlns="http://www.w3.org/2000/svg">
	xmlns:ndjsontosvg="https://github.com/thompson318/ndjsontosvg"
	xmlns:quickdraw="https://quickdraw.withgoogle.com/data"
	xmlns:scikit-surgery="https://doi.org/10.1007/s11548-020-02180-5">

	<rect width="100%" height="100%" fill="white" />
	<path d = "M 105.47 11.72 L 157.03 28.12 L 173.44 42.19 L 173.44 60.94 L 89.06 150.00 L 53.91 215.62 L 37.50 217.97 L 7.03 196.88 L 0.00 180.47 L 2.34 147.66 L 49.22 89.06 L 77.34 9.38 L 107.81 0.00 L 121.88 14.06" stroke="black" fill="transparent"/>
	<path d = "M 325.78 135.94 L 248.44 166.41 L 154.69 229.69 L 145.31 262.50 L 185.16 318.75 L 187.50 353.91 L 161.72 386.72 L 117.19 410.16 L 194.53 349.22 L 300.00 288.28 L 295.31 264.84 L 278.91 246.09 L 241.41 227.34 L 236.72 213.28 L 316.41 159.38 L 323.44 135.94 L 300.00 126.56" stroke="black" fill="transparent"/>
	<path d = "M 597.66 236.72 L 527.34 267.19 L 468.75 304.69 L 459.38 323.44 L 487.50 358.59 L 485.16 382.03 L 450.00 410.16 L 396.09 419.53 L 382.03 407.81 L 367.97 365.62 L 367.97 335.16 L 386.72 297.66 L 391.41 255.47 L 419.53 203.91 L 447.66 185.16 L 459.38 182.81 L 464.06 189.84 L 454.69 229.69 L 468.75 232.03 L 487.50 215.62 L 503.91 175.78 L 503.91 157.03 L 485.16 126.56 L 459.38 121.88 L 435.94 131.25 L 400.78 161.72 L 393.75 201.56 L 344.53 227.34 L 318.75 227.34 L 285.94 208.59 L 278.91 187.50 L 311.72 157.03 L 330.47 82.03 L 323.44 65.62 L 164.06 14.06 L 65.62 0.00 L 58.59 4.69 L 58.59 42.19 L 72.66 107.81 L 84.38 126.56" stroke="black" fill="transparent"/>
</svg>