<?xml version="1.0" encoding="UTF-8" standalone="no"?>
<!--Created with ndjsontosvg (https:https://github.com/thompson318/ndjsontosvg) 
	from the simplified Google quickdraw data set. key_id = 4846877382017024-->
<svg width="600" height="600"
	xmlns="http://www.w3.org/2000/svg">
	xmlns:ndjsontosvg="https://github.com/thompson318/ndjsontosvg"
	xmlns:quickdraw="https://quickdraw.withgoogle.com/data"
	xmlns:scikit-surgery="https://doi.org/10.1007/s11548-020-02180-5">

	<rect width="100%" height="100%" fill="white" />
	<path d = "M 189.84 372.66 L 164.06 321.09 L 166.41 302.34 L 189.84 264.84 L 241.41 215.62 L 255.47 168.75 L 262.50 234.38 L 288.28 196.88 L 292.97 171.09 L 290.62 103.12 L 314.06 37.50 L 342.19 0.00 L 346.88 58.59 L 365.62 128.91 L 363.28 178.12 L 396.09 131.25 L 421.88 107.81 L 445.31 30.47 L 450.00 82.03 L 428.91 210.94 L 433.59 220.31 L 459.38 182.81 L 492.19 166.41 L 508.59 138.28 L 496.88 229.69 L 473.44 255.47 L 492.19 250.78 L 517.97 229.69 L 529.69 278.91 L 522.66 328.12 L 475.78 372.66 L 389.06 391.41 L 311.72 398.44 L 213.28 384.38" stroke="black" fill="transparent"/>
	<path d = "M 203.91 375.00 L 217.97 332.81 L 253.12 300.00 L 285.94 281.25 L 300.00 262.50 L 300.00 311.72 L 365.62 257.81 L 384.38 227.34 L 382.03 187.50 L 389.06 213.28 L 389.06 300.00 L 450.00 255.47 L 445.31 353.91" stroke="black" fill="transparent"/>
	<path d = "M 14.06 325.78 L 126.56 335.16 L 208.59 370.31 L 344.53 405.47 L 510.94 464.06" stroke="black" fill="transparent"/>
	<path d = "M 597.66 274.22 L 464.06 337.50 L 417.19 370.31 L 201.56 433.59 L 173.44 447.66 L 175.78 459.38 L 185.16 464.06 L 227.34 457.03 L 309.38 424.22 L 414.84 360.94 L 485.16 335.16 L 571.88 281.25" stroke="black" fill="transparent"/>
	<path d = "M 0.00 309.38 L 114.84 351.56 L 236.72 405.47 L 276.56 438.28 L 332.81 464.06" stroke="black" fill="transparent"/>
</svg>