<?xml version="1.0" encoding="UTF-8" standalone="no"?>
<!--Created with ndjsontosvg (https:https://github.com/thompson318/ndjsontosvg) 
	from the simplified Google quickdraw data set. key_id = 5609142305685504-->
<svg width="600" height="600"
	xmlns="http://www.w3.org/2000/svg">
	xmlns:ndjsontosvg="https://github.com/thompson318/ndjsontosvg"
	xmlns:quickdraw="https://quickdraw.withgoogle.com/data"
	xmlns:scikit-surgery="https://doi.org/10.1007/s11548-020-02180-5">

	<rect width="100%" height="100%" fill="white" />
	<path d = "M 189.84 285.94 L 274.22 288.28 L 250.78 349.22 L 142.97 501.56 L 53.91 597.66 L 44.53 597.66 L 11.72 574.22 L 30.47 543.75 L 100.78 466.41 L 138.28 391.41 L 175.78 342.19 L 194.53 297.66" stroke="black" fill="transparent"/>
	<path d = "M 114.84 309.38 L 53.91 274.22 L 28.12 269.53 L 0.00 328.12 L 2.34 337.50 L 213.28 525.00 L 337.50 569.53 L 391.41 527.34 L 389.06 513.28 L 241.41 400.78 L 133.59 304.69" stroke="black" fill="transparent"/>
	<path d = "M 96.09 283.59 L 110.16 203.91 L 107.81 166.41 L 53.91 0.00" stroke="black" fill="transparent"/>
	<path d = "M 119.53 208.59 L 119.53 208.59" stroke="black" fill="transparent"/>
	<path d = "M 182.81 185.16 L 182.81 185.16" stroke="black" fill="transparent"/>
</svg>