<?xml version="1.0" encoding="UTF-8" standalone="no"?>
<!--Created with ndjsontosvg (https:https://github.com/thompson318/ndjsontosvg) 
	from the simplified Google quickdraw data set. key_id = 4954019132866560-->
<svg width="600" height="600"
	xmlns="http://www.w3.org/2000/svg">
	xmlns:ndjsontosvg="https://github.com/thompson318/ndjsontosvg"
	xmlns:quickdraw="https://quickdraw.withgoogle.com/data"
	xmlns:scikit-surgery="https://doi.org/10.1007/s11548-020-02180-5">

	<rect width="100%" height="100%" fill="white" />
	<path d = "M 112.50 398.44 L 180.47 501.56" stroke="black" fill="transparent"/>
	<path d = "M 110.16 400.78 L 93.75 433.59 L 60.94 468.75 L 77.34 496.88 L 217.97 597.66 L 227.34 513.28 L 192.19 482.81 L 180.47 482.81" stroke="black" fill="transparent"/>
	<path d = "M 192.19 396.09 L 119.53 499.22 L 75.00 569.53 L 96.09 592.97 L 138.28 543.75 L 161.72 494.53 L 178.12 435.94 L 194.53 414.84 L 173.44 393.75" stroke="black" fill="transparent"/>
	<path d = "M 60.94 457.03 L 21.09 370.31 L 7.03 323.44 L 0.00 255.47 L 2.34 189.84 L 35.16 126.56 L 56.25 112.50 L 67.97 135.94 L 86.72 154.69 L 93.75 154.69 L 107.81 112.50 L 182.81 0.00 L 185.16 72.66 L 203.91 96.09 L 253.12 98.44 L 351.56 89.06 L 346.88 274.22 L 323.44 412.50 L 267.19 522.66 L 229.69 560.16 L 201.56 560.16" stroke="black" fill="transparent"/>
</svg>