<?xml version="1.0" encoding="UTF-8" standalone="no"?>
<!--Created with ndjsontosvg (https:https://github.com/thompson318/ndjsontosvg) 
	from the simplified Google quickdraw data set. key_id = 5827743050629120-->
<svg width="600" height="600"
	xmlns="http://www.w3.org/2000/svg">
	xmlns:ndjsontosvg="https://github.com/thompson318/ndjsontosvg"
	xmlns:quickdraw="https://quickdraw.withgoogle.com/data"
	xmlns:scikit-surgery="https://doi.org/10.1007/s11548-020-02180-5">

	<rect width="100%" height="100%" fill="white" />
	<path d = "M 138.28 419.53 L 131.25 403.12 L 82.03 367.97 L 51.56 363.28 L 0.00 410.16 L 0.00 485.16 L 21.09 541.41 L 51.56 564.84 L 98.44 569.53 L 126.56 562.50 L 180.47 532.03 L 208.59 489.84 L 210.94 464.06 L 201.56 431.25 L 180.47 419.53 L 154.69 417.19" stroke="black" fill="transparent"/>
	<path d = "M 400.78 485.16 L 344.53 459.38 L 243.75 426.56 L 262.50 534.38 L 344.53 588.28 L 370.31 597.66 L 403.12 550.78 L 382.03 471.09 L 325.78 445.31" stroke="black" fill="transparent"/>
	<path d = "M 548.44 464.06 L 506.25 457.03 L 445.31 428.91 L 447.66 447.66 L 506.25 560.16 L 503.91 532.03 L 532.03 482.81 L 534.38 459.38 L 532.03 426.56 L 515.62 412.50" stroke="black" fill="transparent"/>
	<path d = "M 117.19 353.91 L 147.66 213.28 L 168.75 65.62 L 187.50 152.34 L 232.03 152.34 L 283.59 28.12 L 314.06 0.00 L 307.03 180.47 L 349.22 192.19 L 365.62 194.53 L 386.72 159.38 L 396.09 44.53 L 410.16 110.16 L 438.28 180.47 L 457.03 157.03 L 501.56 46.88 L 520.31 30.47 L 527.34 260.16" stroke="black" fill="transparent"/>
</svg>