<?xml version="1.0" encoding="UTF-8" standalone="no"?>
<!--Created with ndjsontosvg (https:https://github.com/thompson318/ndjsontosvg) 
	from the simplified Google quickdraw data set. key_id = 4845218480259072-->
<svg width="600" height="600"
	xmlns="http://www.w3.org/2000/svg">
	xmlns:ndjsontosvg="https://github.com/thompson318/ndjsontosvg"
	xmlns:quickdraw="https://quickdraw.withgoogle.com/data"
	xmlns:scikit-surgery="https://doi.org/10.1007/s11548-020-02180-5">

	<rect width="100%" height="100%" fill="white" />
	<path d = "M 58.59 461.72 L 77.34 457.03 L 309.38 325.78 L 384.38 267.19 L 414.84 255.47 L 431.25 297.66 L 431.25 370.31 L 419.53 384.38 L 222.66 438.28 L 70.31 499.22 L 0.00 520.31" stroke="black" fill="transparent"/>
	<path d = "M 28.12 482.81 L 16.41 433.59 L 121.88 419.53 L 236.72 384.38" stroke="black" fill="transparent"/>
	<path d = "M 103.12 243.75 L 173.44 419.53 L 257.81 597.66 L 356.25 539.06 L 353.91 522.66 L 316.41 468.75 L 262.50 304.69 L 234.38 253.12 L 192.19 203.91 L 180.47 203.91 L 112.50 239.06" stroke="black" fill="transparent"/>
	<path d = "M 128.91 522.66 L 145.31 459.38 L 199.22 339.84 L 260.16 239.06 L 274.22 232.03 L 311.72 232.03 L 379.69 262.50 L 372.66 281.25 L 164.06 517.97 L 135.94 541.41 L 119.53 543.75 L 98.44 529.69" stroke="black" fill="transparent"/>
	<path d = "M 417.19 435.94 L 128.91 288.28 L 100.78 288.28 L 72.66 351.56 L 79.69 375.00 L 105.47 393.75 L 274.22 464.06 L 330.47 475.78 L 377.34 475.78 L 396.09 471.09 L 410.16 454.69" stroke="black" fill="transparent"/>
	<path d = "M 180.47 0.00 L 166.41 11.72 L 157.03 53.91 L 133.59 199.22 L 133.59 332.81 L 152.34 370.31 L 180.47 393.75 L 220.31 405.47 L 309.38 410.16 L 328.12 400.78 L 346.88 375.00 L 367.97 311.72" stroke="black" fill="transparent"/>
</svg>