<?xml version="1.0" encoding="UTF-8" standalone="no"?>
<!--Created with ndjsontosvg (https:https://github.com/thompson318/ndjsontosvg) 
	from the simplified Google quickdraw data set. key_id = 5132407709630464-->
<svg width="600" height="600"
	xmlns="http://www.w3.org/2000/svg">
	xmlns:ndjsontosvg="https://github.com/thompson318/ndjsontosvg"
	xmlns:quickdraw="https://quickdraw.withgoogle.com/data"
	xmlns:scikit-surgery="https://doi.org/10.1007/s11548-020-02180-5">

	<rect width="100%" height="100%" fill="white" />
	<path d = "M 100.78 185.16 L 100.78 328.12 L 121.88 396.09 L 131.25 543.75 L 285.94 539.06 L 292.97 525.00 L 292.97 466.41 L 274.22 295.31 L 239.06 171.09 L 208.59 112.50 L 128.91 128.91 L 63.28 154.69" stroke="black" fill="transparent"/>
	<path d = "M 114.84 159.38 L 114.84 0.00 L 140.62 18.75 L 189.84 98.44 L 189.84 121.88 L 140.62 93.75 L 124.22 18.75 L 107.81 131.25" stroke="black" fill="transparent"/>
	<path d = "M 154.69 555.47 L 58.59 555.47 L 9.38 562.50 L 0.00 567.19 L 4.69 574.22 L 42.19 597.66 L 105.47 597.66 L 307.03 569.53 L 442.97 567.19 L 461.72 557.81 L 461.72 548.44 L 431.25 539.06 L 292.97 536.72" stroke="black" fill="transparent"/>
</svg>