<?xml version="1.0" encoding="UTF-8" standalone="no"?>
<!--Created with ndjsontosvg (https:https://github.com/thompson318/ndjsontosvg) 
	from the simplified Google quickdraw data set. key_id = 5868486725206016-->
<svg width="600" height="600"
	xmlns="http://www.w3.org/2000/svg">
	xmlns:ndjsontosvg="https://github.com/thompson318/ndjsontosvg"
	xmlns:quickdraw="https://quickdraw.withgoogle.com/data"
	xmlns:scikit-surgery="https://doi.org/10.1007/s11548-020-02180-5">

	<rect width="100%" height="100%" fill="white" />
	<path d = "M 2.34 243.75 L 2.34 403.12 L 21.09 543.75 L 18.75 597.66" stroke="black" fill="transparent"/>
	<path d = "M 4.69 250.78 L 21.09 248.44 L 100.78 269.53 L 126.56 267.19 L 140.62 257.81 L 142.97 201.56 L 112.50 173.44 L 65.62 168.75 L 11.72 206.25 L 2.34 234.38 L 2.34 292.97 L 21.09 311.72" stroke="black" fill="transparent"/>
	<path d = "M 138.28 185.16 L 140.62 360.94 L 175.78 564.84" stroke="black" fill="transparent"/>
	<path d = "M 23.44 595.31 L 37.50 588.28 L 175.78 588.28" stroke="black" fill="transparent"/>
	<path d = "M 70.31 220.31 L 39.84 131.25 L 56.25 7.03 L 67.97 0.00" stroke="black" fill="transparent"/>
	<path d = "M 117.19 210.94 L 124.22 135.94 L 79.69 9.38" stroke="black" fill="transparent"/>
</svg>