<?xml version="1.0" encoding="UTF-8" standalone="no"?>
<!--Created with ndjsontosvg (https:https://github.com/thompson318/ndjsontosvg) 
	from the simplified Google quickdraw data set. key_id = 6214497104560128-->
<svg width="600" height="600"
	xmlns="http://www.w3.org/2000/svg">
	xmlns:ndjsontosvg="https://github.com/thompson318/ndjsontosvg"
	xmlns:quickdraw="https://quickdraw.withgoogle.com/data"
	xmlns:scikit-surgery="https://doi.org/10.1007/s11548-020-02180-5">

	<rect width="100%" height="100%" fill="white" />
	<path d = "M 9.38 135.94 L 9.38 466.41 L 0.00 597.66 L 175.78 576.56 L 192.19 571.88 L 199.22 557.81 L 220.31 363.28 L 220.31 142.97 L 206.25 138.28 L 58.59 147.66 L 18.75 133.59" stroke="black" fill="transparent"/>
	<path d = "M 18.75 152.34 L 37.50 203.91 L 60.94 175.78 L 89.06 196.88 L 96.09 178.12 L 133.59 187.50 L 154.69 171.09 L 192.19 185.16 L 220.31 150.00" stroke="black" fill="transparent"/>
	<path d = "M 65.62 133.59 L 63.28 25.78 L 82.03 2.34 L 124.22 2.34 L 142.97 16.41 L 159.38 42.19 L 159.38 72.66 L 138.28 152.34" stroke="black" fill="transparent"/>
</svg>