<?xml version="1.0" encoding="UTF-8" standalone="no"?>
<!--Created with ndjsontosvg (https:https://github.com/thompson318/ndjsontosvg) 
	from the simplified Google quickdraw data set. key_id = 5775859979911168-->
<svg width="600" height="600"
	xmlns="http://www.w3.org/2000/svg">
	xmlns:ndjsontosvg="https://github.com/thompson318/ndjsontosvg"
	xmlns:quickdraw="https://quickdraw.withgoogle.com/data"
	xmlns:scikit-surgery="https://doi.org/10.1007/s11548-020-02180-5">

	<rect width="100%" height="100%" fill="white" />
	<path d = "M 63.28 138.28 L 56.25 229.69" stroke="black" fill="transparent"/>
	<path d = "M 65.62 138.28 L 142.97 135.94 L 157.03 253.12 L 147.66 262.50 L 65.62 255.47 L 56.25 248.44 L 56.25 217.97" stroke="black" fill="transparent"/>
	<path d = "M 75.00 135.94 L 11.72 142.97 L 0.00 124.22 L 11.72 100.78 L 84.38 53.91 L 175.78 25.78 L 232.03 14.06 L 288.28 21.09 L 309.38 32.81 L 316.41 82.03 L 248.44 93.75 L 171.09 140.62 L 39.84 150.00 L 30.47 145.31 L 30.47 133.59 L 75.00 77.34 L 112.50 56.25 L 159.38 42.19" stroke="black" fill="transparent"/>
	<path d = "M 358.59 35.16 L 419.53 21.09 L 424.22 42.19 L 412.50 60.94 L 370.31 60.94 L 365.62 44.53 L 370.31 35.16 L 412.50 2.34 L 431.25 2.34 L 445.31 16.41" stroke="black" fill="transparent"/>
	<path d = "M 557.81 11.72 L 557.81 51.56 L 590.62 42.19 L 597.66 23.44 L 578.91 2.34 L 548.44 4.69" stroke="black" fill="transparent"/>
	<path d = "M 93.75 75.00 L 201.56 49.22 L 260.16 42.19 L 159.38 103.12 L 65.62 178.12 L 121.88 164.06" stroke="black" fill="transparent"/>
</svg>