<?xml version="1.0" encoding="UTF-8" standalone="no"?>
<!--Created with ndjsontosvg (https:https://github.com/thompson318/ndjsontosvg) 
	from the simplified Google quickdraw data set. key_id = 5108943229550592-->
<svg width="600" height="600"
	xmlns="http://www.w3.org/2000/svg">
	xmlns:ndjsontosvg="https://github.com/thompson318/ndjsontosvg"
	xmlns:quickdraw="https://quickdraw.withgoogle.com/data"
	xmlns:scikit-surgery="https://doi.org/10.1007/s11548-020-02180-5">

	<rect width="100%" height="100%" fill="white" />
	<path d = "M 138.28 323.44 L 321.09 253.12 L 372.66 225.00 L 379.69 234.38 L 384.38 330.47 L 398.44 356.25" stroke="black" fill="transparent"/>
	<path d = "M 168.75 412.50 L 311.72 389.06 L 396.09 351.56" stroke="black" fill="transparent"/>
	<path d = "M 379.69 220.31 L 419.53 220.31 L 433.59 239.06 L 435.94 262.50 L 431.25 318.75 L 414.84 342.19 L 389.06 356.25" stroke="black" fill="transparent"/>
	<path d = "M 133.59 351.56 L 142.97 428.91" stroke="black" fill="transparent"/>
	<path d = "M 152.34 377.34 L 110.16 365.62 L 86.72 367.97 L 0.00 407.81" stroke="black" fill="transparent"/>
	<path d = "M 161.72 379.69 L 117.19 379.69 L 67.97 410.16 L 53.91 440.62 L 75.00 499.22 L 98.44 522.66 L 121.88 527.34 L 164.06 522.66 L 213.28 496.88 L 236.72 468.75 L 246.09 433.59 L 234.38 403.12 L 201.56 379.69 L 152.34 367.97 L 114.84 377.34" stroke="black" fill="transparent"/>
	<path d = "M 159.38 384.38 L 142.97 445.31" stroke="black" fill="transparent"/>
	<path d = "M 72.66 433.59 L 161.72 445.31" stroke="black" fill="transparent"/>
	<path d = "M 157.03 438.28 L 110.16 457.03 L 70.31 487.50" stroke="black" fill="transparent"/>
	<path d = "M 157.03 454.69 L 159.38 517.97" stroke="black" fill="transparent"/>
	<path d = "M 164.06 457.03 L 243.75 450.00" stroke="black" fill="transparent"/>
	<path d = "M 196.88 386.72 L 178.12 410.16" stroke="black" fill="transparent"/>
	<path d = "M 560.16 220.31 L 548.44 239.06 L 548.44 260.16 L 574.22 260.16 L 592.97 248.44 L 597.66 234.38 L 583.59 215.62" stroke="black" fill="transparent"/>
	<path d = "M 417.19 264.84 L 536.72 222.66" stroke="black" fill="transparent"/>
	<path d = "M 419.53 274.22 L 560.16 257.81" stroke="black" fill="transparent"/>
	<path d = "M 520.31 171.09 L 581.25 100.78 L 588.28 46.88 L 571.88 14.06" stroke="black" fill="transparent"/>
	<path d = "M 501.56 178.12 L 496.88 145.31 L 525.00 42.19 L 513.28 18.75 L 473.44 0.00" stroke="black" fill="transparent"/>
	<path d = "M 131.25 328.12 L 142.97 262.50 L 131.25 250.78 L 91.41 248.44" stroke="black" fill="transparent"/>
	<path d = "M 82.03 241.41 L 32.81 225.00 L 11.72 203.91 L 4.69 171.09 L 18.75 119.53 L 89.06 171.09 L 100.78 201.56 L 82.03 250.78 L 53.91 276.56" stroke="black" fill="transparent"/>
</svg>