<?xml version="1.0" encoding="UTF-8" standalone="no"?>
<!--Created with ndjsontosvg (https:https://github.com/thompson318/ndjsontosvg) 
	from the simplified Google quickdraw data set. key_id = 4707107280519168-->
<svg width="600" height="600"
	xmlns="http://www.w3.org/2000/svg">
	xmlns:ndjsontosvg="https://github.com/thompson318/ndjsontosvg"
	xmlns:quickdraw="https://quickdraw.withgoogle.com/data"
	xmlns:scikit-surgery="https://doi.org/10.1007/s11548-020-02180-5">

	<rect width="100%" height="100%" fill="white" />
	<path d = "M 135.94 103.12 L 438.28 42.19 L 560.16 9.38" stroke="black" fill="transparent"/>
	<path d = "M 562.50 7.03 L 555.47 65.62 L 562.50 79.69 L 583.59 79.69 L 592.97 67.97 L 597.66 25.78 L 583.59 2.34 L 567.19 0.00 L 560.16 7.03" stroke="black" fill="transparent"/>
	<path d = "M 571.88 30.47 L 571.88 51.56 L 578.91 30.47" stroke="black" fill="transparent"/>
	<path d = "M 578.91 86.72 L 506.25 119.53 L 377.34 145.31 L 276.56 178.12 L 194.53 187.50 L 100.78 192.19" stroke="black" fill="transparent"/>
	<path d = "M 133.59 100.78 L 98.44 107.81 L 67.97 124.22 L 11.72 168.75 L 0.00 189.84 L 9.38 215.62 L 51.56 222.66 L 89.06 210.94 L 121.88 187.50" stroke="black" fill="transparent"/>
	<path d = "M 91.41 103.12 L 86.72 86.72 L 91.41 77.34 L 91.41 86.72" stroke="black" fill="transparent"/>
</svg>