<?xml version="1.0" encoding="UTF-8" standalone="no"?>
<!--Created with ndjsontosvg (https:https://github.com/thompson318/ndjsontosvg) 
	from the simplified Google quickdraw data set. key_id = 6602591305728000-->
<svg width="600" height="600"
	xmlns="http://www.w3.org/2000/svg">
	xmlns:ndjsontosvg="https://github.com/thompson318/ndjsontosvg"
	xmlns:quickdraw="https://quickdraw.withgoogle.com/data"
	xmlns:scikit-surgery="https://doi.org/10.1007/s11548-020-02180-5">

	<rect width="100%" height="100%" fill="white" />
	<path d = "M 510.94 246.09 L 426.56 267.19 L 377.34 330.47 L 386.72 358.59 L 419.53 398.44 L 459.38 426.56 L 499.22 438.28 L 548.44 428.91 L 574.22 400.78 L 581.25 379.69 L 585.94 344.53 L 574.22 288.28 L 529.69 246.09" stroke="black" fill="transparent"/>
	<path d = "M 536.72 241.41 L 517.97 292.97 L 506.25 398.44" stroke="black" fill="transparent"/>
	<path d = "M 370.31 285.94 L 403.12 309.38 L 553.12 386.72" stroke="black" fill="transparent"/>
	<path d = "M 442.97 241.41 L 532.03 353.91 L 576.56 421.88" stroke="black" fill="transparent"/>
	<path d = "M 405.47 377.34 L 478.12 365.62 L 597.66 316.41" stroke="black" fill="transparent"/>
	<path d = "M 529.69 248.44 L 496.88 225.00 L 414.84 128.91 L 367.97 93.75 L 145.31 42.19 L 58.59 4.69 L 42.19 65.62 L 14.06 110.16 L 35.16 142.97 L 60.94 166.41 L 210.94 248.44 L 264.84 318.75 L 292.97 339.84 L 370.31 372.66 L 393.75 372.66" stroke="black" fill="transparent"/>
	<path d = "M 67.97 2.34 L 49.22 25.78 L 42.19 77.34 L 37.50 60.94 L 23.44 56.25 L 23.44 63.28" stroke="black" fill="transparent"/>
	<path d = "M 51.56 11.72 L 23.44 79.69" stroke="black" fill="transparent"/>
	<path d = "M 30.47 0.00 L 11.72 44.53 L 23.44 93.75" stroke="black" fill="transparent"/>
	<path d = "M 23.44 16.41 L 2.34 51.56 L 0.00 77.34" stroke="black" fill="transparent"/>
</svg>