<?xml version="1.0" encoding="UTF-8" standalone="no"?>
<!--Created with ndjsontosvg (https:https://github.com/thompson318/ndjsontosvg) 
	from the simplified Google quickdraw data set. key_id = 6047458830319616-->
<svg width="600" height="600"
	xmlns="http://www.w3.org/2000/svg">
	xmlns:ndjsontosvg="https://github.com/thompson318/ndjsontosvg"
	xmlns:quickdraw="https://quickdraw.withgoogle.com/data"
	xmlns:scikit-surgery="https://doi.org/10.1007/s11548-020-02180-5">

	<rect width="100%" height="100%" fill="white" />
	<path d = "M 503.91 241.41 L 496.88 220.31 L 480.47 210.94 L 454.69 213.28 L 421.88 227.34 L 389.06 274.22 L 386.72 323.44 L 398.44 342.19 L 435.94 365.62 L 494.53 372.66 L 525.00 363.28 L 539.06 339.84 L 539.06 295.31 L 527.34 262.50 L 499.22 222.66" stroke="black" fill="transparent"/>
	<path d = "M 461.72 215.62 L 459.38 346.88" stroke="black" fill="transparent"/>
	<path d = "M 382.03 307.03 L 414.84 314.06 L 501.56 314.06 L 597.66 300.00" stroke="black" fill="transparent"/>
	<path d = "M 508.59 243.75 L 464.06 285.94 L 412.50 318.75" stroke="black" fill="transparent"/>
	<path d = "M 440.62 239.06 L 445.31 262.50 L 461.72 285.94 L 525.00 365.62" stroke="black" fill="transparent"/>
	<path d = "M 539.06 267.19 L 576.56 217.97 L 590.62 173.44 L 583.59 96.09 L 574.22 77.34 L 541.41 58.59 L 264.84 2.34 L 35.16 2.34 L 25.78 53.91 L 0.00 114.84 L 37.50 147.66 L 135.94 206.25 L 400.78 302.34" stroke="black" fill="transparent"/>
</svg>