<?xml version="1.0" encoding="UTF-8" standalone="no"?>
<!--Created with ndjsontosvg (https:https://github.com/thompson318/ndjsontosvg) 
	from the simplified Google quickdraw data set. key_id = 5050839855005696-->
<svg width="600" height="600"
	xmlns="http://www.w3.org/2000/svg">
	xmlns:ndjsontosvg="https://github.com/thompson318/ndjsontosvg"
	xmlns:quickdraw="https://quickdraw.withgoogle.com/data"
	xmlns:scikit-surgery="https://doi.org/10.1007/s11548-020-02180-5">

	<rect width="100%" height="100%" fill="white" />
	<path d = "M 11.72 65.62 L 100.78 63.28 L 171.09 9.38 L 201.56 0.00 L 276.56 0.00 L 339.84 18.75 L 471.09 28.12 L 492.19 37.50 L 510.94 63.28 L 541.41 86.72 L 592.97 75.00 L 597.66 135.94 L 581.25 175.78 L 464.06 164.06 L 428.91 152.34 L 417.19 203.91 L 389.06 220.31 L 344.53 208.59 L 337.50 192.19 L 339.84 166.41 L 367.97 152.34 L 428.91 152.34" stroke="black" fill="transparent"/>
	<path d = "M 351.56 159.38 L 145.31 147.66 L 138.28 171.09 L 117.19 208.59 L 79.69 217.97 L 67.97 194.53 L 67.97 166.41 L 89.06 152.34 L 147.66 140.62 L 53.91 164.06 L 7.03 159.38 L 0.00 145.31 L 0.00 96.09 L 2.34 63.28 L 9.38 58.59" stroke="black" fill="transparent"/>
	<path d = "M 520.31 89.06 L 210.94 63.28 L 93.75 60.94" stroke="black" fill="transparent"/>
	<path d = "M 262.50 79.69 L 246.09 164.06" stroke="black" fill="transparent"/>
</svg>