<?xml version="1.0" encoding="UTF-8" standalone="no"?>
<!--Created with ndjsontosvg (https:https://github.com/thompson318/ndjsontosvg) 
	from the simplified Google quickdraw data set. key_id = 4849160203272192-->
<svg width="600" height="600"
	xmlns="http://www.w3.org/2000/svg">
	xmlns:ndjsontosvg="https://github.com/thompson318/ndjsontosvg"
	xmlns:quickdraw="https://quickdraw.withgoogle.com/data"
	xmlns:scikit-surgery="https://doi.org/10.1007/s11548-020-02180-5">

	<rect width="100%" height="100%" fill="white" />
	<path d = "M 114.84 215.62 L 98.44 201.56 L 98.44 180.47 L 105.47 164.06 L 128.91 147.66 L 157.03 140.62 L 187.50 145.31 L 199.22 159.38 L 199.22 178.12 L 192.19 199.22 L 173.44 210.94 L 138.28 215.62 L 114.84 208.59" stroke="black" fill="transparent"/>
	<path d = "M 410.16 225.00 L 377.34 187.50 L 382.03 164.06 L 400.78 150.00 L 428.91 150.00 L 452.34 159.38 L 480.47 192.19 L 482.81 206.25 L 447.66 236.72 L 424.22 239.06 L 407.81 232.03" stroke="black" fill="transparent"/>
	<path d = "M 225.00 173.44 L 398.44 185.16" stroke="black" fill="transparent"/>
	<path d = "M 89.06 175.78 L 0.00 161.72 L 11.72 133.59 L 53.91 86.72 L 79.69 72.66 L 180.47 79.69 L 208.59 63.28 L 243.75 2.34 L 271.88 0.00 L 424.22 4.69 L 447.66 72.66 L 546.09 86.72 L 588.28 117.19 L 597.66 161.72 L 585.94 182.81 L 529.69 194.53 L 461.72 187.50" stroke="black" fill="transparent"/>
	<path d = "M 253.12 79.69 L 269.53 79.69" stroke="black" fill="transparent"/>
</svg>