<?xml version="1.0" encoding="UTF-8" standalone="no"?>
<!--Created with ndjsontosvg (https:https://github.com/thompson318/ndjsontosvg) 
	from the simplified Google quickdraw data set. key_id = 5471911322583040-->
<svg width="600" height="600"
	xmlns="http://www.w3.org/2000/svg">
	xmlns:ndjsontosvg="https://github.com/thompson318/ndjsontosvg"
	xmlns:quickdraw="https://quickdraw.withgoogle.com/data"
	xmlns:scikit-surgery="https://doi.org/10.1007/s11548-020-02180-5">

	<rect width="100%" height="100%" fill="white" />
	<path d = "M 11.72 353.91 L 0.00 239.06 L 11.72 196.88 L 60.94 173.44 L 229.69 173.44 L 241.41 133.59 L 248.44 32.81 L 269.53 14.06 L 330.47 0.00 L 450.00 9.38 L 461.72 58.59 L 466.41 150.00 L 522.66 166.41 L 583.59 168.75 L 590.62 180.47 L 597.66 253.12 L 585.94 363.28 L 550.78 382.03 L 475.78 328.12 L 435.94 325.78 L 410.16 344.53 L 389.06 382.03 L 407.81 414.84 L 442.97 424.22 L 487.50 414.84 L 499.22 400.78 L 499.22 372.66 L 473.44 342.19" stroke="black" fill="transparent"/>
	<path d = "M 365.62 375.00 L 229.69 363.28 L 187.50 323.44 L 147.66 311.72 L 131.25 318.75 L 110.16 358.59 L 121.88 386.72 L 145.31 398.44 L 182.81 398.44 L 217.97 377.34 L 217.97 349.22 L 196.88 325.78" stroke="black" fill="transparent"/>
	<path d = "M 93.75 370.31 L 18.75 360.94" stroke="black" fill="transparent"/>
</svg>