<?xml version="1.0" encoding="UTF-8" standalone="no"?>
<!--Created with ndjsontosvg (https:https://github.com/thompson318/ndjsontosvg) 
	from the simplified Google quickdraw data set. key_id = 4824197098373120-->
<svg width="600" height="600"
	xmlns="http://www.w3.org/2000/svg">
	xmlns:ndjsontosvg="https://github.com/thompson318/ndjsontosvg"
	xmlns:quickdraw="https://quickdraw.withgoogle.com/data"
	xmlns:scikit-surgery="https://doi.org/10.1007/s11548-020-02180-5">

	<rect width="100%" height="100%" fill="white" />
	<path d = "M 0.00 522.66 L 46.88 382.03 L 65.62 269.53 L 82.03 222.66 L 103.12 206.25 L 161.72 182.81 L 201.56 180.47 L 229.69 194.53 L 232.03 222.66 L 201.56 276.56 L 35.16 496.88 L 14.06 539.06" stroke="black" fill="transparent"/>
	<path d = "M 173.44 161.72 L 164.06 166.41 L 171.09 145.31 L 203.91 77.34 L 232.03 56.25 L 276.56 42.19 L 321.09 46.88 L 360.94 70.31 L 410.16 65.62 L 428.91 82.03 L 438.28 126.56 L 431.25 157.03 L 396.09 166.41 L 363.28 154.69 L 321.09 112.50 L 262.50 107.81 L 217.97 145.31 L 173.44 201.56" stroke="black" fill="transparent"/>
	<path d = "M 185.16 168.75 L 189.84 98.44 L 199.22 77.34 L 236.72 42.19 L 314.06 0.00 L 325.78 0.00 L 382.03 35.16 L 424.22 112.50 L 428.91 121.88 L 419.53 140.62 L 391.41 154.69 L 370.31 157.03 L 311.72 110.16 L 288.28 100.78 L 257.81 110.16 L 232.03 133.59" stroke="black" fill="transparent"/>
	<path d = "M 84.38 271.88 L 25.78 471.09 L 9.38 574.22 L 145.31 386.72 L 257.81 206.25 L 234.38 187.50 L 154.69 189.84 L 105.47 213.28 L 75.00 246.09 L 51.56 304.69 L 28.12 553.12 L 124.22 419.53 L 248.44 215.62 L 196.88 283.59 L 65.62 548.44 L 30.47 585.94 L 25.78 597.66" stroke="black" fill="transparent"/>
	<path d = "M 96.09 375.00 L 142.97 375.00 L 157.03 360.94" stroke="black" fill="transparent"/>
	<path d = "M 100.78 288.28 L 119.53 278.91 L 159.38 281.25" stroke="black" fill="transparent"/>
	<path d = "M 208.59 210.94 L 194.53 213.28 L 255.47 222.66" stroke="black" fill="transparent"/>
	<path d = "M 72.66 435.94 L 72.66 435.94" stroke="black" fill="transparent"/>
</svg>