<?xml version="1.0" encoding="UTF-8" standalone="no"?>
<!--Created with ndjsontosvg (https:https://github.com/thompson318/ndjsontosvg) 
	from the simplified Google quickdraw data set. key_id = 4728413573087232-->
<svg width="600" height="600"
	xmlns="http://www.w3.org/2000/svg">
	xmlns:ndjsontosvg="https://github.com/thompson318/ndjsontosvg"
	xmlns:quickdraw="https://quickdraw.withgoogle.com/data"
	xmlns:scikit-surgery="https://doi.org/10.1007/s11548-020-02180-5">

	<rect width="100%" height="100%" fill="white" />
	<path d = "M 28.12 147.66 L 65.62 257.81 L 89.06 372.66 L 121.88 475.78 L 140.62 597.66 L 150.00 590.62 L 189.84 532.03 L 225.00 464.06 L 248.44 384.38 L 269.53 269.53 L 285.94 225.00 L 309.38 208.59 L 311.72 185.16 L 290.62 171.09 L 0.00 180.47" stroke="black" fill="transparent"/>
	<path d = "M 100.78 142.97 L 30.47 35.16 L 16.41 0.00" stroke="black" fill="transparent"/>
	<path d = "M 107.81 105.47 L 147.66 0.00" stroke="black" fill="transparent"/>
	<path d = "M 147.66 187.50 L 203.91 51.56" stroke="black" fill="transparent"/>
	<path d = "M 201.56 159.38 L 232.03 35.16" stroke="black" fill="transparent"/>
	<path d = "M 257.81 159.38 L 257.81 112.50" stroke="black" fill="transparent"/>
	<path d = "M 257.81 77.34 L 241.41 138.28 L 234.38 138.28 L 227.34 126.56" stroke="black" fill="transparent"/>
	<path d = "M 166.41 91.41 L 105.47 150.00 L 110.16 105.47" stroke="black" fill="transparent"/>
	<path d = "M 114.84 89.06 L 77.34 126.56 L 44.53 142.97" stroke="black" fill="transparent"/>
</svg>