<?xml version="1.0" encoding="UTF-8" standalone="no"?>
<!--Created with ndjsontosvg (https:https://github.com/thompson318/ndjsontosvg) 
	from the simplified Google quickdraw data set. key_id = 6145143017046016-->
<svg width="600" height="600"
	xmlns="http://www.w3.org/2000/svg">
	xmlns:ndjsontosvg="https://github.com/thompson318/ndjsontosvg"
	xmlns:quickdraw="https://quickdraw.withgoogle.com/data"
	xmlns:scikit-surgery="https://doi.org/10.1007/s11548-020-02180-5">

	<rect width="100%" height="100%" fill="white" />
	<path d = "M 255.47 140.62 L 215.62 142.97 L 182.81 178.12 L 154.69 236.72 L 112.50 360.94 L 63.28 426.56 L 16.41 510.94 L 0.00 560.16 L 2.34 583.59 L 32.81 595.31 L 82.03 595.31 L 182.81 555.47 L 236.72 513.28 L 328.12 389.06 L 438.28 269.53 L 452.34 243.75 L 454.69 217.97 L 433.59 187.50 L 316.41 159.38 L 274.22 159.38 L 269.53 166.41" stroke="black" fill="transparent"/>
	<path d = "M 307.03 142.97 L 318.75 100.78 L 365.62 23.44 L 351.56 77.34 L 414.84 25.78 L 414.84 42.19 L 454.69 0.00 L 454.69 16.41 L 412.50 89.06 L 468.75 58.59 L 421.88 112.50 L 426.56 142.97 L 414.84 164.06 L 400.78 171.09" stroke="black" fill="transparent"/>
	<path d = "M 178.12 250.78 L 227.34 260.16 L 246.09 267.19 L 239.06 269.53" stroke="black" fill="transparent"/>
	<path d = "M 166.41 292.97 L 220.31 304.69" stroke="black" fill="transparent"/>
	<path d = "M 150.00 337.50 L 164.06 351.56 L 208.59 367.97" stroke="black" fill="transparent"/>
	<path d = "M 157.03 384.38 L 166.41 400.78 L 189.84 412.50" stroke="black" fill="transparent"/>
	<path d = "M 112.50 419.53 L 140.62 447.66" stroke="black" fill="transparent"/>
	<path d = "M 93.75 457.03 L 98.44 473.44 L 110.16 480.47" stroke="black" fill="transparent"/>
	<path d = "M 60.94 508.59 L 75.00 525.00" stroke="black" fill="transparent"/>
</svg>