<?xml version="1.0" encoding="UTF-8" standalone="no"?>
<!--Created with ndjsontosvg (https:https://github.com/thompson318/ndjsontosvg) 
	from the simplified Google quickdraw data set. key_id = 6517916046458880-->
<svg width="600" height="600"
	xmlns="http://www.w3.org/2000/svg">
	xmlns:ndjsontosvg="https://github.com/thompson318/ndjsontosvg"
	xmlns:quickdraw="https://quickdraw.withgoogle.com/data"
	xmlns:scikit-surgery="https://doi.org/10.1007/s11548-020-02180-5">

	<rect width="100%" height="100%" fill="white" />
	<path d = "M 4.69 187.50 L 18.75 330.47 L 56.25 435.94 L 70.31 569.53 L 77.34 592.97 L 89.06 597.66 L 98.44 590.62 L 135.94 515.62 L 173.44 421.88 L 203.91 182.81 L 178.12 166.41 L 152.34 161.72 L 44.53 161.72 L 18.75 171.09 L 7.03 201.56" stroke="black" fill="transparent"/>
	<path d = "M 82.03 171.09 L 86.72 114.84 L 77.34 79.69 L 51.56 53.91 L 0.00 37.50" stroke="black" fill="transparent"/>
	<path d = "M 84.38 157.03 L 82.03 105.47 L 126.56 21.09 L 150.00 0.00" stroke="black" fill="transparent"/>
	<path d = "M 75.00 161.72 L 112.50 112.50 L 168.75 60.94 L 215.62 42.19 L 262.50 42.19" stroke="black" fill="transparent"/>
	<path d = "M 32.81 269.53 L 164.06 264.84" stroke="black" fill="transparent"/>
	<path d = "M 23.44 363.28 L 46.88 365.62 L 140.62 342.19 L 199.22 337.50" stroke="black" fill="transparent"/>
</svg>