<?xml version="1.0" encoding="UTF-8" standalone="no"?>
<!--Created with ndjsontosvg (https:https://github.com/thompson318/ndjsontosvg) 
	from the simplified Google quickdraw data set. key_id = 6343481184223232-->
<svg width="600" height="600"
	xmlns="http://www.w3.org/2000/svg">
	xmlns:ndjsontosvg="https://github.com/thompson318/ndjsontosvg"
	xmlns:quickdraw="https://quickdraw.withgoogle.com/data"
	xmlns:scikit-surgery="https://doi.org/10.1007/s11548-020-02180-5">

	<rect width="100%" height="100%" fill="white" />
	<path d = "M 63.28 508.59 L 49.22 248.44 L 51.56 173.44 L 56.25 166.41 L 124.22 157.03 L 168.75 168.75 L 173.44 257.81 L 189.84 351.56 L 332.81 363.28 L 428.91 360.94 L 431.25 171.09 L 571.88 199.22 L 590.62 208.59 L 597.66 236.72 L 592.97 292.97 L 562.50 464.06 L 548.44 494.53 L 527.34 510.94 L 318.75 550.78 L 250.78 553.12 L 117.19 534.38 L 70.31 515.62 L 53.91 492.19" stroke="black" fill="transparent"/>
	<path d = "M 53.91 178.12 L 2.34 189.84 L 0.00 182.81 L 32.81 140.62 L 42.19 103.12 L 86.72 44.53 L 131.25 0.00 L 142.97 9.38 L 199.22 138.28 L 220.31 168.75 L 201.56 178.12 L 145.31 175.78 L 131.25 164.06" stroke="black" fill="transparent"/>
	<path d = "M 393.75 201.56 L 335.16 173.44 L 318.75 159.38 L 316.41 150.00" stroke="black" fill="transparent"/>
</svg>