<?xml version="1.0" encoding="UTF-8" standalone="no"?>
<!--Created with ndjsontosvg (https:https://github.com/thompson318/ndjsontosvg) 
	from the simplified Google quickdraw data set. key_id = 6028743359332352-->
<svg width="600" height="600"
	xmlns="http://www.w3.org/2000/svg">
	xmlns:ndjsontosvg="https://github.com/thompson318/ndjsontosvg"
	xmlns:quickdraw="https://quickdraw.withgoogle.com/data"
	xmlns:scikit-surgery="https://doi.org/10.1007/s11548-020-02180-5">

	<rect width="100%" height="100%" fill="white" />
	<path d = "M 18.75 128.91 L 11.72 131.25 L 39.84 248.44 L 44.53 342.19" stroke="black" fill="transparent"/>
	<path d = "M 7.03 114.84 L 65.62 98.44 L 173.44 84.38 L 192.19 175.78 L 187.50 367.97" stroke="black" fill="transparent"/>
	<path d = "M 189.84 349.22 L 192.19 147.66 L 178.12 53.91 L 375.00 37.50 L 419.53 42.19 L 440.62 60.94 L 438.28 157.03 L 412.50 349.22" stroke="black" fill="transparent"/>
	<path d = "M 447.66 168.75 L 494.53 145.31 L 541.41 133.59 L 585.94 145.31 L 592.97 161.72 L 592.97 199.22 L 574.22 290.62 L 571.88 342.19" stroke="black" fill="transparent"/>
	<path d = "M 185.16 60.94 L 257.81 9.38 L 300.00 0.00 L 342.19 2.34 L 417.19 51.56" stroke="black" fill="transparent"/>
	<path d = "M 447.66 138.28 L 473.44 93.75 L 485.16 150.00" stroke="black" fill="transparent"/>
	<path d = "M 494.53 135.94 L 508.59 93.75 L 557.81 107.81 L 557.81 128.91" stroke="black" fill="transparent"/>
	<path d = "M 553.12 133.59 L 585.94 89.06 L 597.66 119.53" stroke="black" fill="transparent"/>
	<path d = "M 4.69 117.19 L 0.00 91.41 L 4.69 72.66 L 56.25 75.00 L 58.59 98.44" stroke="black" fill="transparent"/>
	<path d = "M 58.59 93.75 L 75.00 49.22 L 103.12 56.25 L 107.81 98.44" stroke="black" fill="transparent"/>
</svg>