<?xml version="1.0" encoding="UTF-8" standalone="no"?>
<!--Created with ndjsontosvg (https:https://github.com/thompson318/ndjsontosvg) 
	from the simplified Google quickdraw data set. key_id = 5307210949197824-->
<svg width="600" height="600"
	xmlns="http://www.w3.org/2000/svg">
	xmlns:ndjsontosvg="https://github.com/thompson318/ndjsontosvg"
	xmlns:quickdraw="https://quickdraw.withgoogle.com/data"
	xmlns:scikit-surgery="https://doi.org/10.1007/s11548-020-02180-5">

	<rect width="100%" height="100%" fill="white" />
	<path d = "M 4.69 220.31 L 16.41 309.38 L 18.75 520.31" stroke="black" fill="transparent"/>
	<path d = "M 0.00 217.97 L 157.03 210.94" stroke="black" fill="transparent"/>
	<path d = "M 7.03 213.28 L 44.53 150.00 L 82.03 63.28" stroke="black" fill="transparent"/>
	<path d = "M 82.03 63.28 L 103.12 96.09 L 124.22 175.78 L 145.31 206.25" stroke="black" fill="transparent"/>
	<path d = "M 142.97 210.94 L 147.66 471.09 L 154.69 525.00" stroke="black" fill="transparent"/>
	<path d = "M 145.31 367.97 L 278.91 346.88 L 447.66 349.22" stroke="black" fill="transparent"/>
	<path d = "M 445.31 234.38 L 454.69 356.25 L 452.34 517.97" stroke="black" fill="transparent"/>
	<path d = "M 450.00 229.69 L 585.94 243.75 L 588.28 323.44 L 574.22 426.56 L 571.88 543.75" stroke="black" fill="transparent"/>
	<path d = "M 450.00 229.69 L 506.25 84.38 L 532.03 0.00 L 581.25 168.75 L 597.66 290.62" stroke="black" fill="transparent"/>
</svg>