<?xml version="1.0" encoding="UTF-8" standalone="no"?>
<!--Created with ndjsontosvg (https:https://github.com/thompson318/ndjsontosvg) 
	from the simplified Google quickdraw data set. key_id = 6473984801505280-->
<svg width="600" height="600"
	xmlns="http://www.w3.org/2000/svg">
	xmlns:ndjsontosvg="https://github.com/thompson318/ndjsontosvg"
	xmlns:quickdraw="https://quickdraw.withgoogle.com/data"
	xmlns:scikit-surgery="https://doi.org/10.1007/s11548-020-02180-5">

	<rect width="100%" height="100%" fill="white" />
	<path d = "M 9.38 271.88 L 0.00 250.78 L 0.00 126.56 L 7.03 25.78 L 14.06 18.75 L 114.84 25.78 L 100.78 220.31 L 110.16 82.03 L 117.19 77.34 L 278.91 89.06 L 471.09 84.38 L 403.12 178.12 L 386.72 210.94 L 386.72 236.72 L 400.78 171.09 L 433.59 84.38 L 464.06 42.19 L 464.06 18.75 L 508.59 42.19 L 595.31 35.16 L 592.97 93.75 L 557.81 246.09" stroke="black" fill="transparent"/>
	<path d = "M 189.84 178.12 L 208.59 119.53 L 229.69 110.16 L 269.53 110.16 L 269.53 199.22" stroke="black" fill="transparent"/>
	<path d = "M 16.41 11.72 L 18.75 0.00" stroke="black" fill="transparent"/>
</svg>