<?xml version="1.0" encoding="UTF-8" standalone="no"?>
<!--Created with ndjsontosvg (https:https://github.com/thompson318/ndjsontosvg) 
	from the simplified Google quickdraw data set. key_id = 5900127342428160-->
<svg width="600" height="600"
	xmlns="http://www.w3.org/2000/svg">
	xmlns:ndjsontosvg="https://github.com/thompson318/ndjsontosvg"
	xmlns:quickdraw="https://quickdraw.withgoogle.com/data"
	xmlns:scikit-surgery="https://doi.org/10.1007/s11548-020-02180-5">

	<rect width="100%" height="100%" fill="white" />
	<path d = "M 32.81 370.31 L 32.81 253.12 L 18.75 126.56 L 77.34 91.41 L 135.94 2.34 L 135.94 86.72 L 142.97 133.59 L 150.00 140.62 L 243.75 16.41 L 250.78 25.78 L 262.50 103.12 L 271.88 124.22 L 283.59 126.56 L 335.16 23.44 L 356.25 51.56 L 375.00 117.19 L 438.28 23.44 L 466.41 53.91 L 496.88 114.84 L 506.25 121.88 L 553.12 21.09 L 567.19 14.06 L 592.97 93.75 L 597.66 150.00 L 567.19 250.78 L 532.03 318.75 L 501.56 407.81 L 489.84 417.19 L 407.81 442.97 L 325.78 457.03 L 89.06 435.94 L 0.00 405.47 L 11.72 393.75 L 21.09 346.88" stroke="black" fill="transparent"/>
	<path d = "M 16.41 131.25 L 332.81 150.00 L 419.53 145.31 L 513.28 126.56 L 592.97 126.56" stroke="black" fill="transparent"/>
</svg>