<?xml version="1.0" encoding="UTF-8" standalone="no"?>
<!--Created with ndjsontosvg (https:https://github.com/thompson318/ndjsontosvg) 
	from the simplified Google quickdraw data set. key_id = 4689473302429696-->
<svg width="600" height="600"
	xmlns="http://www.w3.org/2000/svg">
	xmlns:ndjsontosvg="https://github.com/thompson318/ndjsontosvg"
	xmlns:quickdraw="https://quickdraw.withgoogle.com/data"
	xmlns:scikit-surgery="https://doi.org/10.1007/s11548-020-02180-5">

	<rect width="100%" height="100%" fill="white" />
	<path d = "M 77.34 0.00 L 56.25 112.50 L 7.03 248.44 L 0.00 297.66 L 4.69 377.34" stroke="black" fill="transparent"/>
	<path d = "M 77.34 9.38 L 135.94 7.03 L 131.25 42.19 L 107.81 98.44 L 206.25 119.53 L 203.91 46.88 L 222.66 14.06 L 271.88 11.72 L 274.22 51.56 L 257.81 119.53 L 344.53 121.88 L 363.28 35.16 L 424.22 32.81 L 431.25 67.97 L 421.88 114.84 L 435.94 117.19 L 503.91 114.84 L 501.56 65.62 L 517.97 35.16 L 597.66 42.19 L 585.94 119.53 L 588.28 290.62 L 581.25 335.16 L 581.25 349.22 L 585.94 346.88" stroke="black" fill="transparent"/>
</svg>