<?xml version="1.0" encoding="UTF-8" standalone="no"?>
<!--Created with ndjsontosvg (https:https://github.com/thompson318/ndjsontosvg) 
	from the simplified Google quickdraw data set. key_id = 6704317136371712-->
<svg width="600" height="600"
	xmlns="http://www.w3.org/2000/svg">
	xmlns:ndjsontosvg="https://github.com/thompson318/ndjsontosvg"
	xmlns:quickdraw="https://quickdraw.withgoogle.com/data"
	xmlns:scikit-surgery="https://doi.org/10.1007/s11548-020-02180-5">

	<rect width="100%" height="100%" fill="white" />
	<path d = "M 23.44 93.75 L 9.38 152.34 L 2.34 257.81" stroke="black" fill="transparent"/>
	<path d = "M 135.94 58.59 L 89.06 159.38 L 63.28 274.22" stroke="black" fill="transparent"/>
	<path d = "M 16.41 91.41 L 72.66 0.00 L 157.03 60.94" stroke="black" fill="transparent"/>
	<path d = "M 58.59 274.22 L 107.81 269.53 L 133.59 253.12 L 206.25 157.03 L 229.69 110.16 L 264.84 201.56 L 288.28 278.91 L 323.44 356.25 L 330.47 370.31 L 335.16 367.97" stroke="black" fill="transparent"/>
	<path d = "M 304.69 337.50 L 386.72 232.03 L 431.25 142.97 L 442.97 79.69 L 440.62 196.88 L 464.06 276.56 L 494.53 304.69 L 529.69 314.06 L 576.56 311.72 L 595.31 300.00 L 595.31 285.94" stroke="black" fill="transparent"/>
	<path d = "M 405.47 121.88 L 412.50 150.00 L 438.28 161.72" stroke="black" fill="transparent"/>
	<path d = "M 379.69 196.88 L 466.41 171.09" stroke="black" fill="transparent"/>
</svg>