<?xml version="1.0" encoding="UTF-8" standalone="no"?>
<!--Created with ndjsontosvg (https:https://github.com/thompson318/ndjsontosvg) 
	from the simplified Google quickdraw data set. key_id = 6360597400649728-->
<svg width="600" height="600"
	xmlns="http://www.w3.org/2000/svg">
	xmlns:ndjsontosvg="https://github.com/thompson318/ndjsontosvg"
	xmlns:quickdraw="https://quickdraw.withgoogle.com/data"
	xmlns:scikit-surgery="https://doi.org/10.1007/s11548-020-02180-5">

	<rect width="100%" height="100%" fill="white" />
	<path d = "M 2.34 23.44 L 23.44 147.66 L 23.44 213.28 L 9.38 318.75 L 21.09 328.12 L 82.03 349.22 L 133.59 353.91 L 152.34 346.88 L 185.16 321.09 L 164.06 274.22 L 145.31 201.56 L 121.88 16.41" stroke="black" fill="transparent"/>
	<path d = "M 0.00 11.72 L 21.09 18.75 L 25.78 51.56 L 53.91 49.22 L 56.25 2.34 L 93.75 4.69 L 105.47 67.97 L 124.22 25.78" stroke="black" fill="transparent"/>
	<path d = "M 133.59 117.19 L 328.12 126.56 L 525.00 91.41 L 557.81 121.88 L 583.59 241.41 L 592.97 250.78 L 597.66 318.75 L 555.47 339.84 L 478.12 360.94 L 307.03 349.22 L 168.75 349.22" stroke="black" fill="transparent"/>
	<path d = "M 543.75 86.72 L 543.75 86.72" stroke="black" fill="transparent"/>
</svg>