<?xml version="1.0" encoding="UTF-8" standalone="no"?>
<!--Created with ndjsontosvg (https:https://github.com/thompson318/ndjsontosvg) 
	from the simplified Google quickdraw data set. key_id = 6349471635996672-->
<svg width="600" height="600"
	xmlns="http://www.w3.org/2000/svg">
	xmlns:ndjsontosvg="https://github.com/thompson318/ndjsontosvg"
	xmlns:quickdraw="https://quickdraw.withgoogle.com/data"
	xmlns:scikit-surgery="https://doi.org/10.1007/s11548-020-02180-5">

	<rect width="100%" height="100%" fill="white" />
	<path d = "M 89.06 274.22 L 241.41 229.69 L 246.09 103.12" stroke="black" fill="transparent"/>
	<path d = "M 84.38 269.53 L 96.09 128.91" stroke="black" fill="transparent"/>
	<path d = "M 44.53 126.56 L 206.25 98.44 L 260.16 82.03 L 260.16 4.69 L 208.59 4.69 L 201.56 25.78 L 168.75 30.47 L 161.72 2.34 L 145.31 2.34 L 98.44 18.75 L 98.44 49.22 L 67.97 49.22 L 51.56 7.03 L 2.34 16.41 L 0.00 46.88 L 21.09 117.19" stroke="black" fill="transparent"/>
	<path d = "M 257.81 110.16 L 487.50 114.84 L 595.31 110.16 L 597.66 135.94 L 581.25 222.66 L 562.50 229.69 L 501.56 229.69 L 199.22 192.19" stroke="black" fill="transparent"/>
</svg>