<?xml version="1.0" encoding="UTF-8" standalone="no"?>
<!--Created with ndjsontosvg (https:https://github.com/thompson318/ndjsontosvg) 
	from the simplified Google quickdraw data set. key_id = 4801090996404224-->
<svg width="600" height="600"
	xmlns="http://www.w3.org/2000/svg">
	xmlns:ndjsontosvg="https://github.com/thompson318/ndjsontosvg"
	xmlns:quickdraw="https://quickdraw.withgoogle.com/data"
	xmlns:scikit-surgery="https://doi.org/10.1007/s11548-020-02180-5">

	<rect width="100%" height="100%" fill="white" />
	<path d = "M 290.62 82.03 L 227.34 103.12 L 171.09 152.34 L 154.69 180.47 L 150.00 210.94 L 154.69 271.88 L 201.56 325.78 L 271.88 344.53 L 335.16 342.19 L 379.69 328.12 L 410.16 302.34 L 433.59 229.69 L 435.94 194.53 L 428.91 173.44 L 403.12 142.97 L 370.31 121.88 L 300.00 100.78" stroke="black" fill="transparent"/>
	<path d = "M 236.72 105.47 L 215.62 70.31 L 154.69 0.00 L 145.31 82.03 L 147.66 185.16" stroke="black" fill="transparent"/>
	<path d = "M 435.94 145.31 L 496.88 96.09 L 560.16 63.28 L 527.34 117.19 L 461.72 199.22" stroke="black" fill="transparent"/>
	<path d = "M 201.56 229.69 L 140.62 220.31 L 63.28 220.31 L 14.06 241.41 L 0.00 260.16" stroke="black" fill="transparent"/>
	<path d = "M 213.28 271.88 L 192.19 269.53 L 138.28 290.62 L 86.72 349.22" stroke="black" fill="transparent"/>
	<path d = "M 403.12 241.41 L 466.41 243.75 L 555.47 257.81 L 592.97 271.88 L 597.66 281.25 L 583.59 288.28" stroke="black" fill="transparent"/>
	<path d = "M 372.66 292.97 L 485.16 335.16 L 508.59 353.91" stroke="black" fill="transparent"/>
	<path d = "M 257.81 185.16 L 255.47 215.62" stroke="black" fill="transparent"/>
	<path d = "M 346.88 194.53 L 344.53 232.03" stroke="black" fill="transparent"/>
	<path d = "M 232.03 264.84 L 232.03 295.31 L 239.06 302.34 L 269.53 295.31 L 295.31 257.81 L 292.97 290.62 L 300.00 300.00 L 314.06 300.00 L 342.19 269.53" stroke="black" fill="transparent"/>
</svg>