<?xml version="1.0" encoding="UTF-8" standalone="no"?>
<!--Created with ndjsontosvg (https:https://github.com/thompson318/ndjsontosvg) 
	from the simplified Google quickdraw data set. key_id = 6748980987822080-->
<svg width="600" height="600"
	xmlns="http://www.w3.org/2000/svg">
	xmlns:ndjsontosvg="https://github.com/thompson318/ndjsontosvg"
	xmlns:quickdraw="https://quickdraw.withgoogle.com/data"
	xmlns:scikit-surgery="https://doi.org/10.1007/s11548-020-02180-5">

	<rect width="100%" height="100%" fill="white" />
	<path d = "M 396.09 103.12 L 274.22 84.38 L 232.03 86.72 L 187.50 100.78 L 147.66 131.25 L 96.09 189.84 L 56.25 288.28 L 53.91 328.12 L 67.97 384.38 L 89.06 440.62 L 110.16 468.75 L 154.69 506.25 L 185.16 515.62 L 274.22 515.62 L 391.41 475.78 L 473.44 417.19 L 515.62 351.56 L 532.03 278.91 L 510.94 199.22 L 475.78 161.72 L 442.97 142.97 L 384.38 128.91 L 274.22 119.53" stroke="black" fill="transparent"/>
	<path d = "M 39.84 281.25 L 30.47 145.31 L 0.00 16.41 L 9.38 11.72 L 28.12 23.44 L 175.78 138.28" stroke="black" fill="transparent"/>
	<path d = "M 407.81 117.19 L 548.44 21.09 L 585.94 0.00 L 592.97 4.69 L 592.97 46.88 L 541.41 187.50 L 534.38 229.69" stroke="black" fill="transparent"/>
</svg>