<?xml version="1.0" encoding="UTF-8" standalone="no"?>
<!--Created with ndjsontosvg (https:https://github.com/thompson318/ndjsontosvg) 
	from the simplified Google quickdraw data set. key_id = 5216297346400256-->
<svg width="600" height="600"
	xmlns="http://www.w3.org/2000/svg">
	xmlns:ndjsontosvg="https://github.com/thompson318/ndjsontosvg"
	xmlns:quickdraw="https://quickdraw.withgoogle.com/data"
	xmlns:scikit-surgery="https://doi.org/10.1007/s11548-020-02180-5">

	<rect width="100%" height="100%" fill="white" />
	<path d = "M 206.25 595.31 L 145.31 588.28 L 98.44 527.34 L 63.28 431.25 L 60.94 309.38 L 93.75 257.81 L 126.56 178.12 L 182.81 171.09 L 278.91 171.09 L 321.09 178.12 L 344.53 192.19 L 391.41 227.34 L 438.28 278.91 L 466.41 358.59 L 473.44 450.00 L 452.34 517.97 L 417.19 557.81 L 304.69 595.31 L 257.81 597.66 L 208.59 578.91 L 178.12 578.91" stroke="black" fill="transparent"/>
	<path d = "M 79.69 246.09 L 16.41 114.84 L 0.00 37.50 L 18.75 39.84 L 128.91 107.81 L 154.69 161.72" stroke="black" fill="transparent"/>
	<path d = "M 335.16 175.78 L 346.88 140.62 L 382.03 100.78 L 428.91 21.09 L 450.00 2.34 L 457.03 9.38 L 468.75 72.66 L 471.09 194.53 L 461.72 236.72 L 445.31 269.53" stroke="black" fill="transparent"/>
	<path d = "M 250.78 379.69 L 267.19 391.41 L 234.38 396.09 L 232.03 389.06 L 239.06 384.38 L 255.47 384.38" stroke="black" fill="transparent"/>
	<path d = "M 178.12 269.53 L 185.16 269.53 L 175.78 278.91 L 175.78 269.53" stroke="black" fill="transparent"/>
	<path d = "M 274.22 264.84 L 276.56 274.22 L 269.53 276.56 L 269.53 269.53" stroke="black" fill="transparent"/>
</svg>