<?xml version="1.0" encoding="UTF-8" standalone="no"?>
<!--Created with ndjsontosvg (https:https://github.com/thompson318/ndjsontosvg) 
	from the simplified Google quickdraw data set. key_id = 5560858413367296-->
<svg width="600" height="600"
	xmlns="http://www.w3.org/2000/svg">
	xmlns:ndjsontosvg="https://github.com/thompson318/ndjsontosvg"
	xmlns:quickdraw="https://quickdraw.withgoogle.com/data"
	xmlns:scikit-surgery="https://doi.org/10.1007/s11548-020-02180-5">

	<rect width="100%" height="100%" fill="white" />
	<path d = "M 363.28 154.69 L 328.12 133.59 L 269.53 131.25 L 255.47 135.94 L 222.66 185.16 L 220.31 210.94 L 229.69 234.38 L 295.31 274.22 L 328.12 276.56 L 353.91 262.50 L 384.38 229.69 L 391.41 199.22 L 389.06 168.75 L 356.25 142.97" stroke="black" fill="transparent"/>
	<path d = "M 255.47 133.59 L 290.62 84.38 L 328.12 0.00 L 335.16 154.69 L 424.22 105.47 L 480.47 53.91 L 466.41 154.69 L 440.62 215.62 L 412.50 227.34 L 365.62 225.00" stroke="black" fill="transparent"/>
	<path d = "M 278.91 201.56 L 253.12 182.81 L 206.25 166.41 L 142.97 164.06 L 79.69 175.78 L 63.28 178.12 L 138.28 180.47" stroke="black" fill="transparent"/>
	<path d = "M 292.97 220.31 L 236.72 210.94 L 133.59 210.94 L 86.72 213.28 L 0.00 232.03 L 35.16 213.28" stroke="black" fill="transparent"/>
	<path d = "M 269.53 217.97 L 147.66 222.66 L 53.91 236.72" stroke="black" fill="transparent"/>
	<path d = "M 344.53 262.50 L 440.62 307.03" stroke="black" fill="transparent"/>
	<path d = "M 356.25 227.34 L 513.28 253.12" stroke="black" fill="transparent"/>
	<path d = "M 396.09 267.19 L 597.66 316.41" stroke="black" fill="transparent"/>
	<path d = "M 288.28 175.78 L 290.62 175.78" stroke="black" fill="transparent"/>
	<path d = "M 318.75 178.12 L 318.75 178.12" stroke="black" fill="transparent"/>
	<path d = "M 318.75 187.50 L 318.75 187.50" stroke="black" fill="transparent"/>
	<path d = "M 318.75 187.50 L 318.75 187.50" stroke="black" fill="transparent"/>
</svg>