<?xml version="1.0" encoding="UTF-8" standalone="no"?>
<!--Created with ndjsontosvg (https:https://github.com/thompson318/ndjsontosvg) 
	from the simplified Google quickdraw data set. key_id = 5132671854313472-->
<svg width="600" height="600"
	xmlns="http://www.w3.org/2000/svg">
	xmlns:ndjsontosvg="https://github.com/thompson318/ndjsontosvg"
	xmlns:quickdraw="https://quickdraw.withgoogle.com/data"
	xmlns:scikit-surgery="https://doi.org/10.1007/s11548-020-02180-5">

	<rect width="100%" height="100%" fill="white" />
	<path d = "M 171.09 543.75 L 117.19 529.69 L 63.28 494.53 L 25.78 450.00 L 0.00 375.00 L 4.69 300.00 L 39.84 217.97 L 96.09 128.91 L 124.22 107.81 L 173.44 93.75 L 314.06 93.75 L 356.25 114.84 L 379.69 159.38 L 391.41 229.69 L 393.75 389.06 L 358.59 510.94 L 285.94 578.91 L 227.34 595.31 L 166.41 597.66 L 110.16 574.22" stroke="black" fill="transparent"/>
	<path d = "M 290.62 79.69 L 396.09 0.00 L 398.44 37.50 L 375.00 128.91" stroke="black" fill="transparent"/>
	<path d = "M 96.09 112.50 L 32.81 56.25 L 53.91 185.16" stroke="black" fill="transparent"/>
	<path d = "M 133.59 196.88 L 119.53 196.88 L 98.44 210.94 L 96.09 241.41 L 105.47 262.50 L 124.22 274.22 L 142.97 262.50 L 152.34 243.75 L 152.34 215.62 L 140.62 206.25" stroke="black" fill="transparent"/>
	<path d = "M 257.81 208.59 L 257.81 227.34 L 276.56 236.72" stroke="black" fill="transparent"/>
</svg>