<?xml version="1.0" encoding="UTF-8" standalone="no"?>
<!--Created with ndjsontosvg (https:https://github.com/thompson318/ndjsontosvg) 
	from the simplified Google quickdraw data set. key_id = 6326446316322816-->
<svg width="600" height="600"
	xmlns="http://www.w3.org/2000/svg">
	xmlns:ndjsontosvg="https://github.com/thompson318/ndjsontosvg"
	xmlns:quickdraw="https://quickdraw.withgoogle.com/data"
	xmlns:scikit-surgery="https://doi.org/10.1007/s11548-020-02180-5">

	<rect width="100%" height="100%" fill="white" />
	<path d = "M 18.75 360.94 L 37.50 281.25 L 75.00 220.31 L 117.19 182.81 L 185.16 161.72 L 260.16 166.41 L 349.22 201.56 L 384.38 229.69 L 414.84 264.84 L 440.62 328.12 L 447.66 478.12 L 440.62 520.31 L 424.22 555.47 L 386.72 592.97 L 309.38 597.66 L 208.59 569.53 L 117.19 522.66 L 67.97 487.50 L 7.03 382.03 L 0.00 323.44 L 9.38 302.34" stroke="black" fill="transparent"/>
	<path d = "M 150.00 311.72 L 182.81 302.34 L 178.12 314.06 L 166.41 316.41 L 159.38 309.38" stroke="black" fill="transparent"/>
	<path d = "M 295.31 309.38 L 311.72 304.69 L 316.41 316.41 L 307.03 323.44 L 304.69 316.41" stroke="black" fill="transparent"/>
	<path d = "M 225.00 375.00 L 234.38 389.06 L 227.34 438.28" stroke="black" fill="transparent"/>
	<path d = "M 206.25 461.72 L 217.97 454.69 L 269.53 454.69 L 264.84 492.19 L 253.12 501.56 L 241.41 499.22 L 217.97 468.75" stroke="black" fill="transparent"/>
	<path d = "M 208.59 459.38 L 65.62 391.41" stroke="black" fill="transparent"/>
	<path d = "M 65.62 440.62 L 166.41 471.09" stroke="black" fill="transparent"/>
	<path d = "M 93.75 501.56 L 215.62 503.91" stroke="black" fill="transparent"/>
	<path d = "M 311.72 424.22 L 353.91 421.88 L 398.44 403.12 L 442.97 398.44" stroke="black" fill="transparent"/>
	<path d = "M 349.22 459.38 L 370.31 468.75 L 454.69 475.78" stroke="black" fill="transparent"/>
	<path d = "M 382.03 534.38 L 494.53 562.50" stroke="black" fill="transparent"/>
	<path d = "M 56.25 196.88 L 49.22 42.19 L 75.00 0.00 L 93.75 0.00 L 107.81 14.06 L 126.56 37.50 L 164.06 114.84 L 192.19 140.62" stroke="black" fill="transparent"/>
	<path d = "M 278.91 178.12 L 292.97 168.75 L 304.69 138.28 L 342.19 103.12 L 417.19 63.28 L 442.97 56.25 L 445.31 157.03 L 414.84 271.88" stroke="black" fill="transparent"/>
</svg>