<?xml version="1.0" encoding="UTF-8" standalone="no"?>
<!--Created with ndjsontosvg (https:https://github.com/thompson318/ndjsontosvg) 
	from the simplified Google quickdraw data set. key_id = 6683950690861056-->
<svg width="600" height="600"
	xmlns="http://www.w3.org/2000/svg">
	xmlns:ndjsontosvg="https://github.com/thompson318/ndjsontosvg"
	xmlns:quickdraw="https://quickdraw.withgoogle.com/data"
	xmlns:scikit-surgery="https://doi.org/10.1007/s11548-020-02180-5">

	<rect width="100%" height="100%" fill="white" />
	<path d = "M 281.25 138.28 L 264.84 135.94 L 250.78 157.03 L 250.78 182.81 L 262.50 196.88 L 283.59 199.22 L 304.69 187.50 L 314.06 164.06 L 307.03 150.00" stroke="black" fill="transparent"/>
	<path d = "M 253.12 147.66 L 49.22 105.47 L 91.41 112.50 L 232.03 100.78 L 323.44 131.25 L 309.38 128.91 L 297.66 117.19 L 314.06 82.03 L 367.97 25.78 L 419.53 2.34 L 468.75 2.34 L 480.47 7.03 L 480.47 16.41 L 283.59 150.00 L 403.12 91.41 L 471.09 72.66 L 560.16 67.97 L 597.66 84.38" stroke="black" fill="transparent"/>
	<path d = "M 597.66 140.62 L 578.91 150.00 L 452.34 178.12" stroke="black" fill="transparent"/>
	<path d = "M 391.41 182.81 L 269.53 185.16 L 220.31 180.47 L 185.16 168.75 L 260.16 173.44 L 321.09 187.50 L 379.69 213.28 L 417.19 243.75 L 424.22 288.28 L 407.81 314.06 L 342.19 335.16 L 281.25 335.16 L 253.12 314.06 L 222.66 248.44 L 217.97 152.34 L 234.38 121.88 L 250.78 121.88 L 269.53 171.09 L 271.88 225.00 L 260.16 250.78 L 213.28 304.69 L 145.31 349.22 L 100.78 370.31 L 75.00 367.97 L 28.12 325.78 L 14.06 297.66 L 0.00 206.25 L 2.34 178.12 L 28.12 124.22 L 84.38 75.00 L 154.69 51.56 L 222.66 63.28 L 311.72 121.88 L 360.94 187.50 L 370.31 206.25 L 356.25 206.25" stroke="black" fill="transparent"/>
</svg>