<?xml version="1.0" encoding="UTF-8" standalone="no"?>
<!--Created with ndjsontosvg (https:https://github.com/thompson318/ndjsontosvg) 
	from the simplified Google quickdraw data set. key_id = 4810518739025920-->
<svg width="600" height="600"
	xmlns="http://www.w3.org/2000/svg">
	xmlns:ndjsontosvg="https://github.com/thompson318/ndjsontosvg"
	xmlns:quickdraw="https://quickdraw.withgoogle.com/data"
	xmlns:scikit-surgery="https://doi.org/10.1007/s11548-020-02180-5">

	<rect width="100%" height="100%" fill="white" />
	<path d = "M 283.59 152.34 L 269.53 161.72 L 262.50 248.44 L 323.44 288.28 L 363.28 295.31 L 389.06 274.22 L 400.78 248.44 L 407.81 220.31 L 405.47 178.12 L 321.09 145.31 L 292.97 147.66 L 269.53 157.03" stroke="black" fill="transparent"/>
	<path d = "M 283.59 164.06 L 274.22 152.34 L 175.78 154.69 L 53.91 210.94 L 21.09 243.75 L 2.34 276.56 L 0.00 311.72 L 18.75 328.12 L 79.69 335.16 L 110.16 328.12 L 161.72 283.59 L 208.59 208.59 L 276.56 164.06 L 250.78 189.84 L 225.00 255.47 L 215.62 302.34 L 213.28 377.34 L 234.38 433.59 L 248.44 440.62 L 307.03 435.94 L 346.88 412.50 L 367.97 379.69 L 349.22 367.97 L 311.72 307.03 L 300.00 220.31 L 281.25 196.88 L 274.22 225.00 L 283.59 246.09 L 365.62 328.12 L 419.53 342.19 L 510.94 342.19 L 534.38 335.16 L 548.44 323.44 L 555.47 304.69 L 548.44 257.81 L 386.72 250.78 L 363.28 241.41 L 300.00 239.06 L 466.41 225.00 L 557.81 168.75 L 583.59 117.19 L 597.66 39.84 L 595.31 14.06 L 564.84 0.00" stroke="black" fill="transparent"/>
</svg>