<?xml version="1.0" encoding="UTF-8" standalone="no"?>
<!--Created with ndjsontosvg (https:https://github.com/thompson318/ndjsontosvg) 
	from the simplified Google quickdraw data set. key_id = 5849219850043392-->
<svg width="600" height="600"
	xmlns="http://www.w3.org/2000/svg">
	xmlns:ndjsontosvg="https://github.com/thompson318/ndjsontosvg"
	xmlns:quickdraw="https://quickdraw.withgoogle.com/data"
	xmlns:scikit-surgery="https://doi.org/10.1007/s11548-020-02180-5">

	<rect width="100%" height="100%" fill="white" />
	<path d = "M 213.28 51.56 L 278.91 77.34 L 335.16 75.00 L 370.31 53.91 L 377.34 30.47 L 372.66 16.41 L 300.00 14.06 L 236.72 25.78" stroke="black" fill="transparent"/>
	<path d = "M 227.34 53.91 L 185.16 53.91 L 114.84 72.66 L 58.59 77.34 L 18.75 89.06 L 7.03 98.44 L 4.69 110.16 L 2.34 185.16 L 91.41 98.44 L 140.62 65.62 L 187.50 49.22" stroke="black" fill="transparent"/>
	<path d = "M 253.12 84.38 L 194.53 290.62 L 243.75 271.88 L 248.44 262.50 L 281.25 4.69" stroke="black" fill="transparent"/>
	<path d = "M 335.16 77.34 L 351.56 79.69 L 487.50 161.72 L 522.66 171.09 L 527.34 135.94 L 515.62 124.22 L 478.12 103.12 L 426.56 89.06 L 386.72 65.62" stroke="black" fill="transparent"/>
	<path d = "M 365.62 35.16 L 391.41 25.78 L 585.94 16.41 L 597.66 14.06 L 571.88 0.00 L 370.31 23.44 L 98.44 30.47 L 39.84 46.88 L 0.00 72.66 L 0.00 86.72 L 18.75 96.09" stroke="black" fill="transparent"/>
</svg>