<?xml version="1.0" encoding="UTF-8" standalone="no"?>
<!--Created with ndjsontosvg (https:https://github.com/thompson318/ndjsontosvg) 
	from the simplified Google quickdraw data set. key_id = 5019894078767104-->
<svg width="600" height="600"
	xmlns="http://www.w3.org/2000/svg">
	xmlns:ndjsontosvg="https://github.com/thompson318/ndjsontosvg"
	xmlns:quickdraw="https://quickdraw.withgoogle.com/data"
	xmlns:scikit-surgery="https://doi.org/10.1007/s11548-020-02180-5">

	<rect width="100%" height="100%" fill="white" />
	<path d = "M 215.62 7.03 L 330.47 0.00 L 309.38 28.12 L 241.41 42.19 L 234.38 35.16 L 234.38 4.69" stroke="black" fill="transparent"/>
	<path d = "M 267.19 35.16 L 271.88 140.62 L 278.91 103.12" stroke="black" fill="transparent"/>
	<path d = "M 283.59 32.81 L 281.25 145.31" stroke="black" fill="transparent"/>
	<path d = "M 264.84 138.28 L 229.69 164.06 L 220.31 199.22 L 227.34 210.94 L 274.22 236.72 L 285.94 236.72 L 300.00 217.97 L 314.06 161.72 L 302.34 142.97 L 246.09 133.59" stroke="black" fill="transparent"/>
	<path d = "M 302.34 147.66 L 344.53 140.62 L 541.41 142.97 L 590.62 152.34 L 597.66 182.81 L 588.28 196.88 L 567.19 208.59 L 506.25 222.66 L 370.31 217.97 L 283.59 201.56" stroke="black" fill="transparent"/>
	<path d = "M 201.56 154.69 L 138.28 142.97 L 58.59 145.31 L 32.81 157.03 L 4.69 180.47 L 0.00 192.19 L 7.03 213.28 L 35.16 227.34 L 89.06 229.69 L 168.75 206.25 L 236.72 199.22" stroke="black" fill="transparent"/>
	<path d = "M 260.16 225.00 L 220.31 297.66 L 217.97 339.84 L 241.41 384.38 L 300.00 389.06 L 325.78 358.59 L 330.47 304.69 L 316.41 253.12 L 292.97 220.31" stroke="black" fill="transparent"/>
</svg>