<?xml version="1.0" encoding="UTF-8" standalone="no"?>
<!--Created with ndjsontosvg (https:https://github.com/thompson318/ndjsontosvg) 
	from the simplified Google quickdraw data set. key_id = 6677536861847552-->
<svg width="600" height="600"
	xmlns="http://www.w3.org/2000/svg">
	xmlns:ndjsontosvg="https://github.com/thompson318/ndjsontosvg"
	xmlns:quickdraw="https://quickdraw.withgoogle.com/data"
	xmlns:scikit-surgery="https://doi.org/10.1007/s11548-020-02180-5">

	<rect width="100%" height="100%" fill="white" />
	<path d = "M 255.47 42.19 L 264.84 53.91 L 264.84 145.31 L 159.38 147.66 L 72.66 164.06 L 23.44 194.53 L 4.69 220.31 L 0.00 243.75 L 9.38 267.19 L 46.88 271.88 L 126.56 260.16 L 271.88 203.91 L 142.97 307.03 L 121.88 332.81 L 86.72 386.72 L 82.03 428.91 L 117.19 433.59 L 145.31 424.22 L 232.03 363.28 L 297.66 281.25 L 316.41 239.06 L 325.78 234.38 L 297.66 339.84 L 304.69 396.09 L 323.44 417.19 L 342.19 419.53 L 358.59 410.16 L 412.50 353.91 L 424.22 281.25 L 412.50 246.09 L 400.78 234.38 L 454.69 274.22 L 515.62 339.84 L 567.19 342.19 L 595.31 285.94 L 595.31 243.75 L 576.56 225.00 L 536.72 215.62 L 468.75 210.94 L 588.28 131.25 L 590.62 121.88 L 550.78 110.16 L 525.00 110.16 L 363.28 154.69 L 351.56 133.59 L 353.91 37.50 L 367.97 0.00" stroke="black" fill="transparent"/>
	<path d = "M 389.06 208.59 L 400.78 208.59 L 370.31 192.19 L 323.44 196.88 L 309.38 203.91 L 304.69 217.97 L 311.72 234.38 L 339.84 243.75 L 379.69 215.62 L 384.38 203.91 L 377.34 199.22" stroke="black" fill="transparent"/>
	<path d = "M 335.16 217.97 L 335.16 375.00 L 344.53 398.44" stroke="black" fill="transparent"/>
	<path d = "M 360.94 255.47 L 372.66 253.12 L 377.34 264.84 L 382.03 372.66 L 393.75 403.12" stroke="black" fill="transparent"/>
</svg>