<?xml version="1.0" encoding="UTF-8" standalone="no"?>
<!--Created with ndjsontosvg (https:https://github.com/thompson318/ndjsontosvg) 
	from the simplified Google quickdraw data set. key_id = 6406836582350848-->
<svg width="600" height="600"
	xmlns="http://www.w3.org/2000/svg">
	xmlns:ndjsontosvg="https://github.com/thompson318/ndjsontosvg"
	xmlns:quickdraw="https://quickdraw.withgoogle.com/data"
	xmlns:scikit-surgery="https://doi.org/10.1007/s11548-020-02180-5">

	<rect width="100%" height="100%" fill="white" />
	<path d = "M 241.41 16.41 L 225.00 70.31 L 262.50 79.69 L 276.56 0.00 L 246.09 4.69" stroke="black" fill="transparent"/>
	<path d = "M 241.41 84.38 L 227.34 77.34 L 210.94 79.69 L 189.84 107.81 L 180.47 133.59 L 182.81 164.06 L 189.84 173.44 L 210.94 175.78 L 257.81 173.44 L 295.31 152.34 L 304.69 117.19 L 267.19 86.72" stroke="black" fill="transparent"/>
	<path d = "M 332.81 112.50 L 314.06 138.28 L 323.44 140.62 L 421.88 133.59 L 597.66 135.94 L 508.59 121.88 L 318.75 131.25" stroke="black" fill="transparent"/>
	<path d = "M 232.03 131.25 L 267.19 124.22 L 243.75 124.22" stroke="black" fill="transparent"/>
	<path d = "M 189.84 128.91 L 30.47 124.22" stroke="black" fill="transparent"/>
	<path d = "M 311.72 152.34 L 307.03 302.34" stroke="black" fill="transparent"/>
	<path d = "M 330.47 314.06 L 330.47 314.06" stroke="black" fill="transparent"/>
</svg>