<?xml version="1.0" encoding="UTF-8" standalone="no"?>
<!--Created with ndjsontosvg (https:https://github.com/thompson318/ndjsontosvg) 
	from the simplified Google quickdraw data set. key_id = 5439411451854848-->
<svg width="600" height="600"
	xmlns="http://www.w3.org/2000/svg">
	xmlns:ndjsontosvg="https://github.com/thompson318/ndjsontosvg"
	xmlns:quickdraw="https://quickdraw.withgoogle.com/data"
	xmlns:scikit-surgery="https://doi.org/10.1007/s11548-020-02180-5">

	<rect width="100%" height="100%" fill="white" />
	<path d = "M 114.84 11.72 L 75.00 23.44 L 37.50 49.22 L 21.09 65.62 L 7.03 93.75 L 0.00 140.62 L 2.34 562.50 L 7.03 569.53 L 35.16 578.91 L 135.94 595.31 L 330.47 595.31 L 365.62 578.91 L 382.03 553.12 L 414.84 431.25 L 414.84 135.94 L 410.16 98.44 L 386.72 23.44 L 377.34 16.41 L 234.38 11.72 L 161.72 0.00 L 105.47 7.03 L 75.00 23.44" stroke="black" fill="transparent"/>
	<path d = "M 44.53 342.19 L 44.53 391.41 L 70.31 400.78 L 114.84 400.78 L 131.25 379.69 L 119.53 344.53 L 63.28 332.81" stroke="black" fill="transparent"/>
	<path d = "M 166.41 346.88 L 171.09 382.03 L 185.16 398.44 L 229.69 393.75 L 239.06 382.03 L 239.06 356.25 L 210.94 344.53 L 166.41 342.19" stroke="black" fill="transparent"/>
	<path d = "M 288.28 353.91 L 295.31 384.38 L 323.44 400.78 L 360.94 391.41 L 367.97 372.66" stroke="black" fill="transparent"/>
</svg>