<?xml version="1.0" encoding="UTF-8" standalone="no"?>
<!--Created with ndjsontosvg (https:https://github.com/thompson318/ndjsontosvg) 
	from the simplified Google quickdraw data set. key_id = 4966838381314048-->
<svg width="600" height="600"
	xmlns="http://www.w3.org/2000/svg">
	xmlns:ndjsontosvg="https://github.com/thompson318/ndjsontosvg"
	xmlns:quickdraw="https://quickdraw.withgoogle.com/data"
	xmlns:scikit-surgery="https://doi.org/10.1007/s11548-020-02180-5">

	<rect width="100%" height="100%" fill="white" />
	<path d = "M 7.03 323.44 L 16.41 323.44 L 21.09 426.56 L 32.81 475.78 L 96.09 536.72 L 164.06 576.56 L 217.97 590.62 L 290.62 583.59 L 309.38 560.16 L 349.22 473.44 L 353.91 431.25 L 349.22 379.69 L 302.34 297.66 L 269.53 267.19 L 208.59 274.22 L 42.19 337.50 L 0.00 365.62" stroke="black" fill="transparent"/>
	<path d = "M 164.06 360.94 L 157.03 339.84 L 145.31 4.69 L 159.38 0.00 L 246.09 11.72 L 278.91 25.78 L 285.94 37.50 L 278.91 220.31 L 264.84 346.88 L 260.16 316.41" stroke="black" fill="transparent"/>
	<path d = "M 227.34 119.53 L 225.00 592.97" stroke="black" fill="transparent"/>
	<path d = "M 274.22 161.72 L 246.09 248.44 L 227.34 562.50" stroke="black" fill="transparent"/>
	<path d = "M 178.12 194.53 L 161.72 241.41 L 150.00 367.97 L 152.34 539.06" stroke="black" fill="transparent"/>
	<path d = "M 234.38 203.91 L 222.66 292.97 L 220.31 501.56" stroke="black" fill="transparent"/>
	<path d = "M 213.28 194.53 L 194.53 239.06 L 182.81 464.06 L 194.53 560.16 L 208.59 581.25" stroke="black" fill="transparent"/>
</svg>