<?xml version="1.0" encoding="UTF-8" standalone="no"?>
<!--Created with ndjsontosvg (https:https://github.com/thompson318/ndjsontosvg) 
	from the simplified Google quickdraw data set. key_id = 5672552460451840-->
<svg width="600" height="600"
	xmlns="http://www.w3.org/2000/svg">
	xmlns:ndjsontosvg="https://github.com/thompson318/ndjsontosvg"
	xmlns:quickdraw="https://quickdraw.withgoogle.com/data"
	xmlns:scikit-surgery="https://doi.org/10.1007/s11548-020-02180-5">

	<rect width="100%" height="100%" fill="white" />
	<path d = "M 189.84 0.00 L 194.53 93.75 L 187.50 164.06 L 192.19 203.91" stroke="black" fill="transparent"/>
	<path d = "M 185.16 126.56 L 138.28 126.56 L 114.84 140.62 L 58.59 210.94 L 44.53 292.97 L 60.94 367.97 L 77.34 403.12" stroke="black" fill="transparent"/>
	<path d = "M 72.66 375.00 L 42.19 398.44 L 0.00 459.38 L 2.34 496.88 L 39.84 595.31" stroke="black" fill="transparent"/>
	<path d = "M 215.62 124.22 L 255.47 124.22 L 297.66 142.97 L 325.78 166.41 L 339.84 192.19 L 356.25 248.44 L 356.25 330.47 L 346.88 370.31 L 311.72 405.47" stroke="black" fill="transparent"/>
	<path d = "M 346.88 342.19 L 379.69 433.59 L 384.38 485.16 L 377.34 597.66" stroke="black" fill="transparent"/>
	<path d = "M 182.81 135.94 L 187.50 239.06 L 182.81 450.00 L 189.84 529.69" stroke="black" fill="transparent"/>
	<path d = "M 187.50 150.00 L 201.56 215.62 L 227.34 447.66 L 253.12 522.66" stroke="black" fill="transparent"/>
	<path d = "M 185.16 135.94 L 164.06 208.59 L 150.00 314.06 L 161.72 550.78" stroke="black" fill="transparent"/>
	<path d = "M 192.19 112.50 L 178.12 225.00 L 171.09 426.56 L 189.84 541.41 L 213.28 597.66" stroke="black" fill="transparent"/>
	<path d = "M 196.88 135.94 L 189.84 220.31 L 194.53 346.88 L 222.66 515.62 L 241.41 560.16" stroke="black" fill="transparent"/>
</svg>