<?xml version="1.0" encoding="UTF-8" standalone="no"?>
<!--Created with ndjsontosvg (https:https://github.com/thompson318/ndjsontosvg) 
	from the simplified Google quickdraw data set. key_id = 4596312022450176-->
<svg width="600" height="600"
	xmlns="http://www.w3.org/2000/svg">
	xmlns:ndjsontosvg="https://github.com/thompson318/ndjsontosvg"
	xmlns:quickdraw="https://quickdraw.withgoogle.com/data"
	xmlns:scikit-surgery="https://doi.org/10.1007/s11548-020-02180-5">

	<rect width="100%" height="100%" fill="white" />
	<path d = "M 0.00 35.16 L 16.41 23.44 L 67.97 9.38 L 232.03 0.00 L 241.41 4.69 L 250.78 39.84 L 250.78 201.56 L 260.16 290.62 L 264.84 454.69 L 264.84 508.59 L 253.12 571.88 L 239.06 590.62 L 201.56 597.66 L 96.09 592.97 L 79.69 583.59 L 58.59 555.47 L 18.75 421.88 L 11.72 42.19" stroke="black" fill="transparent"/>
	<path d = "M 60.94 63.28 L 178.12 58.59 L 222.66 150.00 L 229.69 187.50 L 232.03 288.28 L 210.94 520.31 L 199.22 539.06 L 124.22 548.44 L 103.12 510.94 L 79.69 403.12 L 72.66 67.97" stroke="black" fill="transparent"/>
	<path d = "M 161.72 569.53 L 157.03 576.56 L 166.41 585.94 L 180.47 571.88 L 180.47 564.84 L 171.09 564.84 L 171.09 571.88 L 175.78 564.84 L 166.41 571.88" stroke="black" fill="transparent"/>
</svg>