<?xml version="1.0" encoding="UTF-8" standalone="no"?>
<!--Created with ndjsontosvg (https:https://github.com/thompson318/ndjsontosvg) 
	from the simplified Google quickdraw data set. key_id = 5609417447833600-->
<svg width="600" height="600"
	xmlns="http://www.w3.org/2000/svg">
	xmlns:ndjsontosvg="https://github.com/thompson318/ndjsontosvg"
	xmlns:quickdraw="https://quickdraw.withgoogle.com/data"
	xmlns:scikit-surgery="https://doi.org/10.1007/s11548-020-02180-5">

	<rect width="100%" height="100%" fill="white" />
	<path d = "M 154.69 114.84 L 121.88 271.88 L 112.50 353.91" stroke="black" fill="transparent"/>
	<path d = "M 255.47 93.75 L 166.41 386.72" stroke="black" fill="transparent"/>
	<path d = "M 159.38 117.19 L 126.56 112.50 L 114.84 91.41 L 121.88 70.31 L 157.03 51.56 L 147.66 16.41 L 152.34 11.72 L 283.59 21.09 L 325.78 0.00 L 325.78 25.78 L 288.28 58.59 L 311.72 70.31 L 309.38 84.38 L 295.31 93.75 L 267.19 93.75" stroke="black" fill="transparent"/>
	<path d = "M 112.50 358.59 L 77.34 375.00 L 44.53 403.12 L 9.38 464.06 L 2.34 496.88 L 0.00 581.25 L 9.38 592.97 L 105.47 595.31 L 138.28 578.91 L 171.09 548.44 L 196.88 501.56 L 196.88 471.09 L 173.44 393.75" stroke="black" fill="transparent"/>
	<path d = "M 67.97 539.06 L 121.88 372.66 L 164.06 185.16 L 182.81 126.56" stroke="black" fill="transparent"/>
	<path d = "M 107.81 506.25 L 114.84 447.66 L 173.44 260.16 L 192.19 171.09" stroke="black" fill="transparent"/>
	<path d = "M 124.22 485.16 L 180.47 318.75 L 206.25 175.78" stroke="black" fill="transparent"/>
	<path d = "M 117.19 482.81 L 220.31 171.09" stroke="black" fill="transparent"/>
	<path d = "M 117.19 466.41 L 121.88 393.75 L 185.16 152.34" stroke="black" fill="transparent"/>
</svg>