<?xml version="1.0" encoding="UTF-8" standalone="no"?>
<!--Created with ndjsontosvg (https:https://github.com/thompson318/ndjsontosvg) 
	from the simplified Google quickdraw data set. key_id = 6095731427377152-->
<svg width="600" height="600"
	xmlns="http://www.w3.org/2000/svg">
	xmlns:ndjsontosvg="https://github.com/thompson318/ndjsontosvg"
	xmlns:quickdraw="https://quickdraw.withgoogle.com/data"
	xmlns:scikit-surgery="https://doi.org/10.1007/s11548-020-02180-5">

	<rect width="100%" height="100%" fill="white" />
	<path d = "M 37.50 84.38 L 35.16 232.03 L 2.34 475.78 L 2.34 583.59 L 21.09 595.31 L 84.38 597.66 L 164.06 588.28 L 351.56 590.62 L 382.03 583.59 L 386.72 574.22 L 337.50 457.03 L 318.75 337.50 L 316.41 194.53 L 337.50 7.03 L 330.47 0.00 L 302.34 2.34 L 142.97 56.25 L 42.19 63.28" stroke="black" fill="transparent"/>
	<path d = "M 117.19 86.72 L 112.50 206.25 L 84.38 365.62 L 84.38 506.25 L 98.44 517.97 L 145.31 520.31 L 264.84 501.56 L 267.19 468.75 L 253.12 372.66 L 255.47 227.34 L 264.84 89.06 L 241.41 63.28 L 206.25 56.25 L 164.06 58.59 L 128.91 79.69" stroke="black" fill="transparent"/>
</svg>