<?xml version="1.0" encoding="UTF-8" standalone="no"?>
<!--Created with ndjsontosvg (https:https://github.com/thompson318/ndjsontosvg) 
	from the simplified Google quickdraw data set. key_id = 6178021306269696-->
<svg width="600" height="600"
	xmlns="http://www.w3.org/2000/svg">
	xmlns:ndjsontosvg="https://github.com/thompson318/ndjsontosvg"
	xmlns:quickdraw="https://quickdraw.withgoogle.com/data"
	xmlns:scikit-surgery="https://doi.org/10.1007/s11548-020-02180-5">

	<rect width="100%" height="100%" fill="white" />
	<path d = "M 363.28 79.69 L 375.00 142.97 L 375.00 192.19 L 353.91 377.34 L 358.59 510.94 L 339.84 569.53 L 295.31 592.97 L 187.50 597.66 L 119.53 592.97 L 32.81 569.53 L 2.34 543.75 L 0.00 501.56 L 28.12 370.31 L 46.88 234.38 L 75.00 152.34 L 114.84 91.41 L 164.06 49.22 L 208.59 28.12 L 250.78 21.09 L 288.28 25.78 L 342.19 42.19 L 370.31 63.28" stroke="black" fill="transparent"/>
	<path d = "M 372.66 67.97 L 321.09 49.22 L 168.75 14.06 L 105.47 11.72 L 63.28 28.12 L 46.88 75.00 L 42.19 215.62 L 11.72 435.94 L 11.72 541.41 L 37.50 557.81 L 75.00 564.84 L 328.12 564.84 L 372.66 548.44 L 398.44 480.47 L 412.50 424.22 L 426.56 264.84 L 426.56 150.00 L 414.84 0.00" stroke="black" fill="transparent"/>
	<path d = "M 283.59 110.16 L 309.38 213.28 L 318.75 342.19 L 309.38 391.41 L 292.97 431.25 L 269.53 459.38 L 229.69 473.44 L 189.84 471.09 L 72.66 442.97 L 58.59 419.53 L 58.59 391.41 L 103.12 154.69 L 117.19 114.84 L 142.97 96.09 L 187.50 93.75 L 304.69 124.22" stroke="black" fill="transparent"/>
	<path d = "M 239.06 473.44 L 227.34 461.72 L 196.88 459.38 L 164.06 473.44 L 138.28 496.88 L 135.94 529.69 L 150.00 546.09 L 178.12 562.50 L 213.28 564.84 L 236.72 548.44 L 255.47 522.66 L 257.81 480.47" stroke="black" fill="transparent"/>
</svg>