<?xml version="1.0" encoding="UTF-8" standalone="no"?>
<!--Created with ndjsontosvg (https:https://github.com/thompson318/ndjsontosvg) 
	from the simplified Google quickdraw data set. key_id = 6344331180900352-->
<svg width="600" height="600"
	xmlns="http://www.w3.org/2000/svg">
	xmlns:ndjsontosvg="https://github.com/thompson318/ndjsontosvg"
	xmlns:quickdraw="https://quickdraw.withgoogle.com/data"
	xmlns:scikit-surgery="https://doi.org/10.1007/s11548-020-02180-5">

	<rect width="100%" height="100%" fill="white" />
	<path d = "M 100.78 180.47 L 63.28 178.12 L 32.81 189.84 L 7.03 213.28 L 0.00 236.72 L 2.34 269.53 L 23.44 325.78 L 4.69 391.41 L 0.00 426.56 L 30.47 513.28 L 32.81 578.91 L 84.38 597.66 L 161.72 583.59 L 194.53 550.78 L 220.31 499.22 L 234.38 417.19 L 185.16 325.78 L 150.00 295.31 L 147.66 274.22 L 161.72 232.03 L 157.03 199.22 L 142.97 187.50 L 79.69 175.78" stroke="black" fill="transparent"/>
	<path d = "M 53.91 232.03 L 51.56 89.06 L 18.75 72.66 L 0.00 49.22 L 7.03 23.44 L 21.09 7.03 L 53.91 0.00 L 65.62 4.69 L 79.69 28.12 L 58.59 65.62 L 75.00 103.12 L 93.75 182.81 L 84.38 208.59" stroke="black" fill="transparent"/>
	<path d = "M 84.38 210.94 L 79.69 213.28" stroke="black" fill="transparent"/>
	<path d = "M 58.59 220.31 L 84.38 410.16 L 96.09 435.94" stroke="black" fill="transparent"/>
	<path d = "M 77.34 225.00 L 128.91 447.66" stroke="black" fill="transparent"/>
	<path d = "M 89.06 196.88 L 140.62 459.38" stroke="black" fill="transparent"/>
	<path d = "M 65.62 454.69 L 150.00 447.66 L 133.59 510.94 L 65.62 492.19 L 72.66 457.03" stroke="black" fill="transparent"/>
</svg>