<?xml version="1.0" encoding="UTF-8" standalone="no"?>
<!--Created with ndjsontosvg (https:https://github.com/thompson318/ndjsontosvg) 
	from the simplified Google quickdraw data set. key_id = 5753151212748800-->
<svg width="600" height="600"
	xmlns="http://www.w3.org/2000/svg">
	xmlns:ndjsontosvg="https://github.com/thompson318/ndjsontosvg"
	xmlns:quickdraw="https://quickdraw.withgoogle.com/data"
	xmlns:scikit-surgery="https://doi.org/10.1007/s11548-020-02180-5">

	<rect width="100%" height="100%" fill="white" />
	<path d = "M 147.66 255.47 L 140.62 276.56 L 135.94 452.34 L 339.84 464.06 L 356.25 459.38 L 370.31 428.91 L 370.31 386.72 L 349.22 300.00 L 335.16 257.81 L 321.09 243.75 L 285.94 239.06 L 199.22 262.50 L 147.66 267.19 L 147.66 60.94 L 164.06 14.06 L 178.12 2.34 L 239.06 16.41 L 391.41 0.00 L 375.00 232.03" stroke="black" fill="transparent"/>
	<path d = "M 372.66 210.94 L 372.66 255.47 L 351.56 297.66" stroke="black" fill="transparent"/>
	<path d = "M 140.62 464.06 L 128.91 473.44 L 100.78 569.53 L 77.34 597.66" stroke="black" fill="transparent"/>
	<path d = "M 112.50 290.62 L 100.78 328.12 L 53.91 405.47 L 0.00 459.38" stroke="black" fill="transparent"/>
	<path d = "M 285.94 274.22 L 260.16 318.75 L 192.19 375.00" stroke="black" fill="transparent"/>
	<path d = "M 367.97 485.16 L 351.56 489.84 L 330.47 539.06" stroke="black" fill="transparent"/>
</svg>