<?xml version="1.0" encoding="UTF-8" standalone="no"?>
<!--Created with ndjsontosvg (https:https://github.com/thompson318/ndjsontosvg) 
	from the simplified Google quickdraw data set. key_id = 6101080742035456-->
<svg width="600" height="600"
	xmlns="http://www.w3.org/2000/svg">
	xmlns:ndjsontosvg="https://github.com/thompson318/ndjsontosvg"
	xmlns:quickdraw="https://quickdraw.withgoogle.com/data"
	xmlns:scikit-surgery="https://doi.org/10.1007/s11548-020-02180-5">

	<rect width="100%" height="100%" fill="white" />
	<path d = "M 185.16 14.06 L 194.53 274.22" stroke="black" fill="transparent"/>
	<path d = "M 283.59 0.00 L 267.19 131.25 L 271.88 271.88" stroke="black" fill="transparent"/>
	<path d = "M 210.94 276.56 L 147.66 267.19 L 107.81 267.19 L 91.41 274.22 L 32.81 337.50 L 2.34 419.53 L 442.97 382.03 L 447.66 375.00 L 440.62 358.59 L 396.09 314.06 L 246.09 264.84" stroke="black" fill="transparent"/>
	<path d = "M 18.75 419.53 L 18.75 459.38 L 25.78 461.72 L 220.31 431.25 L 227.34 428.91 L 225.00 403.12" stroke="black" fill="transparent"/>
	<path d = "M 302.34 382.03 L 321.09 440.62 L 433.59 431.25 L 419.53 353.91" stroke="black" fill="transparent"/>
	<path d = "M 84.38 482.81 L 70.31 585.94" stroke="black" fill="transparent"/>
	<path d = "M 182.81 499.22 L 175.78 517.97 L 175.78 562.50" stroke="black" fill="transparent"/>
	<path d = "M 234.38 494.53 L 290.62 597.66" stroke="black" fill="transparent"/>
	<path d = "M 375.00 454.69 L 393.75 548.44" stroke="black" fill="transparent"/>
	<path d = "M 438.28 464.06 L 442.97 492.19 L 499.22 569.53" stroke="black" fill="transparent"/>
	<path d = "M 532.03 471.09 L 506.25 529.69" stroke="black" fill="transparent"/>
</svg>