<?xml version="1.0" encoding="UTF-8" standalone="no"?>
<!--Created with ndjsontosvg (https:https://github.com/thompson318/ndjsontosvg) 
	from the simplified Google quickdraw data set. key_id = 4745847231217664-->
<svg width="600" height="600"
	xmlns="http://www.w3.org/2000/svg">
	xmlns:ndjsontosvg="https://github.com/thompson318/ndjsontosvg"
	xmlns:quickdraw="https://quickdraw.withgoogle.com/data"
	xmlns:scikit-surgery="https://doi.org/10.1007/s11548-020-02180-5">

	<rect width="100%" height="100%" fill="white" />
	<path d = "M 58.59 243.75 L 42.19 433.59 L 32.81 442.97" stroke="black" fill="transparent"/>
	<path d = "M 30.47 442.97 L 21.09 478.12 L 30.47 508.59 L 39.84 510.94 L 51.56 475.78 L 39.84 442.97 L 23.44 438.28 L 11.72 442.97 L 0.00 480.47 L 11.72 492.19 L 35.16 485.16" stroke="black" fill="transparent"/>
	<path d = "M 154.69 260.16 L 159.38 375.00 L 142.97 473.44" stroke="black" fill="transparent"/>
	<path d = "M 292.97 234.38 L 290.62 492.19" stroke="black" fill="transparent"/>
	<path d = "M 414.84 250.78 L 424.22 407.81 L 440.62 489.84" stroke="black" fill="transparent"/>
	<path d = "M 548.44 271.88 L 550.78 318.75 L 576.56 473.44" stroke="black" fill="transparent"/>
	<path d = "M 119.53 478.12 L 124.22 489.84 L 128.91 478.12 L 121.88 487.50 L 128.91 506.25" stroke="black" fill="transparent"/>
	<path d = "M 316.41 506.25 L 288.28 496.88 L 300.00 508.59" stroke="black" fill="transparent"/>
	<path d = "M 452.34 478.12 L 433.59 506.25 L 438.28 482.81 L 431.25 513.28 L 438.28 520.31" stroke="black" fill="transparent"/>
	<path d = "M 597.66 466.41 L 578.91 480.47 L 571.88 501.56 L 574.22 489.84 L 562.50 503.91" stroke="black" fill="transparent"/>
	<path d = "M 288.28 140.62 L 140.62 142.97 L 63.28 166.41 L 35.16 192.19 L 35.16 210.94 L 51.56 236.72 L 93.75 262.50 L 138.28 278.91 L 194.53 285.94 L 522.66 267.19 L 585.94 248.44 L 588.28 239.06 L 567.19 217.97 L 515.62 196.88 L 412.50 168.75 L 250.78 142.97 L 150.00 157.03" stroke="black" fill="transparent"/>
	<path d = "M 267.19 241.41 L 281.25 199.22 L 300.00 67.97 L 309.38 46.88" stroke="black" fill="transparent"/>
	<path d = "M 358.59 229.69 L 367.97 173.44 L 424.22 0.00" stroke="black" fill="transparent"/>
	<path d = "M 285.94 234.38 L 344.53 236.72 L 384.38 225.00" stroke="black" fill="transparent"/>
</svg>