<?xml version="1.0" encoding="UTF-8" standalone="no"?>
<!--Created with ndjsontosvg (https:https://github.com/thompson318/ndjsontosvg) 
	from the simplified Google quickdraw data set. key_id = 6073306904002560-->
<svg width="600" height="600"
	xmlns="http://www.w3.org/2000/svg">
	xmlns:ndjsontosvg="https://github.com/thompson318/ndjsontosvg"
	xmlns:quickdraw="https://quickdraw.withgoogle.com/data"
	xmlns:scikit-surgery="https://doi.org/10.1007/s11548-020-02180-5">

	<rect width="100%" height="100%" fill="white" />
	<path d = "M 285.94 0.00 L 290.62 42.19 L 281.25 264.84 L 248.44 419.53 L 210.94 492.19 L 171.09 534.38 L 110.16 546.09 L 53.91 522.66 L 16.41 487.50 L 0.00 459.38" stroke="black" fill="transparent"/>
	<path d = "M 292.97 220.31 L 260.16 342.19 L 262.50 475.78 L 285.94 534.38 L 353.91 590.62 L 384.38 597.66 L 426.56 592.97 L 503.91 539.06 L 510.94 489.84" stroke="black" fill="transparent"/>
	<path d = "M 274.22 206.25 L 269.53 246.09 L 253.12 281.25 L 220.31 316.41 L 154.69 346.88 L 112.50 358.59 L 89.06 356.25 L 67.97 337.50 L 44.53 292.97" stroke="black" fill="transparent"/>
	<path d = "M 264.84 232.03 L 264.84 232.03" stroke="black" fill="transparent"/>
</svg>