<?xml version="1.0" encoding="UTF-8" standalone="no"?>
<!--Created with ndjsontosvg (https:https://github.com/thompson318/ndjsontosvg) 
	from the simplified Google quickdraw data set. key_id = 5984637937516544-->
<svg width="600" height="600"
	xmlns="http://www.w3.org/2000/svg">
	xmlns:ndjsontosvg="https://github.com/thompson318/ndjsontosvg"
	xmlns:quickdraw="https://quickdraw.withgoogle.com/data"
	xmlns:scikit-surgery="https://doi.org/10.1007/s11548-020-02180-5">

	<rect width="100%" height="100%" fill="white" />
	<path d = "M 241.41 0.00 L 246.09 79.69 L 201.56 379.69 L 185.16 396.09 L 140.62 382.03 L 117.19 349.22 L 98.44 292.97 L 138.28 351.56 L 201.56 419.53 L 199.22 438.28 L 175.78 461.72 L 152.34 473.44 L 100.78 478.12 L 49.22 461.72 L 0.00 426.56 L 39.84 452.34 L 112.50 464.06 L 150.00 459.38 L 189.84 445.31 L 208.59 431.25 L 220.31 410.16 L 215.62 513.28 L 196.88 539.06 L 178.12 543.75 L 58.59 548.44 L 86.72 548.44 L 135.94 536.72 L 196.88 501.56 L 225.00 454.69 L 220.31 412.50 L 225.00 400.78 L 260.16 475.78 L 304.69 515.62 L 360.94 536.72 L 386.72 527.34 L 316.41 499.22 L 276.56 471.09 L 232.03 424.22 L 225.00 389.06 L 262.50 412.50 L 283.59 417.19 L 398.44 407.81 L 365.62 414.84 L 323.44 410.16 L 206.25 379.69 L 239.06 386.72 L 302.34 379.69 L 379.69 346.88 L 428.91 316.41 L 353.91 346.88 L 290.62 358.59 L 199.22 358.59 L 227.34 325.78 L 239.06 292.97 L 243.75 175.78 L 267.19 72.66 L 285.94 30.47" stroke="black" fill="transparent"/>
	<path d = "M 389.06 330.47 L 386.72 372.66 L 372.66 367.97 L 358.59 375.00 L 386.72 375.00 L 389.06 367.97 L 372.66 365.62 L 356.25 379.69 L 370.31 389.06 L 379.69 377.34 L 365.62 370.31 L 372.66 375.00" stroke="black" fill="transparent"/>
	<path d = "M 351.56 428.91 L 356.25 461.72 L 344.53 447.66 L 330.47 461.72 L 349.22 468.75 L 365.62 457.03 L 363.28 450.00 L 344.53 450.00 L 332.81 461.72 L 339.84 468.75 L 353.91 461.72 L 353.91 454.69 L 346.88 457.03" stroke="black" fill="transparent"/>
	<path d = "M 314.06 513.28 L 307.03 569.53 L 314.06 550.78 L 307.03 543.75 L 292.97 555.47 L 307.03 562.50 L 300.00 560.16 L 283.59 567.19 L 290.62 574.22 L 307.03 564.84" stroke="black" fill="transparent"/>
	<path d = "M 86.72 527.34 L 84.38 578.91 L 63.28 592.97 L 77.34 592.97 L 89.06 574.22 L 75.00 571.88 L 65.62 581.25 L 65.62 588.28 L 77.34 590.62 L 86.72 571.88" stroke="black" fill="transparent"/>
</svg>