<?xml version="1.0" encoding="UTF-8" standalone="no"?>
<!--Created with ndjsontosvg (https:https://github.com/thompson318/ndjsontosvg) 
	from the simplified Google quickdraw data set. key_id = 5964247618027520-->
<svg width="600" height="600"
	xmlns="http://www.w3.org/2000/svg">
	xmlns:ndjsontosvg="https://github.com/thompson318/ndjsontosvg"
	xmlns:quickdraw="https://quickdraw.withgoogle.com/data"
	xmlns:scikit-surgery="https://doi.org/10.1007/s11548-020-02180-5">

	<rect width="100%" height="100%" fill="white" />
	<path d = "M 70.31 0.00 L 63.28 77.34 L 49.22 131.25" stroke="black" fill="transparent"/>
	<path d = "M 105.47 2.34 L 147.66 110.16 L 173.44 135.94" stroke="black" fill="transparent"/>
	<path d = "M 173.44 135.94 L 173.44 135.94" stroke="black" fill="transparent"/>
	<path d = "M 49.22 133.59 L 164.06 133.59" stroke="black" fill="transparent"/>
	<path d = "M 44.53 117.19 L 39.84 257.81 L 28.12 297.66 L 21.09 363.28 L 7.03 396.09 L 0.00 454.69 L 243.75 459.38 L 243.75 391.41 L 206.25 232.03 L 189.84 114.84" stroke="black" fill="transparent"/>
	<path d = "M 189.84 114.84 L 353.91 159.38 L 527.34 161.72 L 574.22 194.53 L 597.66 311.72 L 592.97 445.31 L 567.19 454.69 L 421.88 454.69 L 344.53 424.22" stroke="black" fill="transparent"/>
</svg>