<?xml version="1.0" encoding="UTF-8" standalone="no"?>
<!--Created with ndjsontosvg (https:https://github.com/thompson318/ndjsontosvg) 
	from the simplified Google quickdraw data set. key_id = 4752574425071616-->
<svg width="600" height="600"
	xmlns="http://www.w3.org/2000/svg">
	xmlns:ndjsontosvg="https://github.com/thompson318/ndjsontosvg"
	xmlns:quickdraw="https://quickdraw.withgoogle.com/data"
	xmlns:scikit-surgery="https://doi.org/10.1007/s11548-020-02180-5">

	<rect width="100%" height="100%" fill="white" />
	<path d = "M 98.44 114.84 L 276.56 67.97 L 546.09 11.72" stroke="black" fill="transparent"/>
	<path d = "M 91.41 112.50 L 56.25 138.28 L 53.91 171.09 L 79.69 180.47 L 138.28 180.47 L 466.41 96.09" stroke="black" fill="transparent"/>
	<path d = "M 534.38 14.06 L 597.66 0.00 L 555.47 25.78 L 553.12 58.59 L 546.09 63.28 L 482.81 86.72" stroke="black" fill="transparent"/>
	<path d = "M 147.66 126.56 L 147.66 126.56" stroke="black" fill="transparent"/>
	<path d = "M 138.28 121.88 L 147.66 126.56 L 142.97 131.25" stroke="black" fill="transparent"/>
	<path d = "M 208.59 110.16 L 217.97 107.81" stroke="black" fill="transparent"/>
	<path d = "M 311.72 79.69 L 307.03 86.72" stroke="black" fill="transparent"/>
	<path d = "M 412.50 75.00 L 400.78 65.62" stroke="black" fill="transparent"/>
	<path d = "M 473.44 53.91 L 471.09 56.25" stroke="black" fill="transparent"/>
	<path d = "M 110.16 112.50 L 44.53 117.19 L 0.00 96.09" stroke="black" fill="transparent"/>
</svg>