<?xml version="1.0" encoding="UTF-8" standalone="no"?>
<!--Created with ndjsontosvg (https:https://github.com/thompson318/ndjsontosvg) 
	from the simplified Google quickdraw data set. key_id = 6413812024475648-->
<svg width="600" height="600"
	xmlns="http://www.w3.org/2000/svg">
	xmlns:ndjsontosvg="https://github.com/thompson318/ndjsontosvg"
	xmlns:quickdraw="https://quickdraw.withgoogle.com/data"
	xmlns:scikit-surgery="https://doi.org/10.1007/s11548-020-02180-5">

	<rect width="100%" height="100%" fill="white" />
	<path d = "M 583.59 0.00 L 541.41 32.81 L 525.00 56.25" stroke="black" fill="transparent"/>
	<path d = "M 494.53 89.06 L 419.53 142.97 L 337.50 234.38 L 201.56 337.50 L 103.12 403.12 L 2.34 492.19 L 0.00 501.56 L 51.56 534.38 L 72.66 562.50 L 110.16 496.88 L 147.66 454.69 L 229.69 386.72 L 309.38 330.47 L 426.56 192.19 L 487.50 145.31 L 571.88 49.22" stroke="black" fill="transparent"/>
	<path d = "M 583.59 23.44 L 597.66 84.38" stroke="black" fill="transparent"/>
	<path d = "M 281.25 311.72 L 281.25 311.72" stroke="black" fill="transparent"/>
	<path d = "M 337.50 243.75 L 337.50 243.75" stroke="black" fill="transparent"/>
	<path d = "M 379.69 236.72 L 379.69 236.72" stroke="black" fill="transparent"/>
	<path d = "M 407.81 189.84 L 405.47 164.06 L 419.53 142.97 L 471.09 124.22 L 471.09 145.31 L 461.72 154.69" stroke="black" fill="transparent"/>
</svg>