<?xml version="1.0" encoding="UTF-8" standalone="no"?>
<!--Created with ndjsontosvg (https:https://github.com/thompson318/ndjsontosvg) 
	from the simplified Google quickdraw data set. key_id = 5957463276781568-->
<svg width="600" height="600"
	xmlns="http://www.w3.org/2000/svg">
	xmlns:ndjsontosvg="https://github.com/thompson318/ndjsontosvg"
	xmlns:quickdraw="https://quickdraw.withgoogle.com/data"
	xmlns:scikit-surgery="https://doi.org/10.1007/s11548-020-02180-5">

	<rect width="100%" height="100%" fill="white" />
	<path d = "M 70.31 25.78 L 46.88 232.03 L 46.88 403.12 L 56.25 461.72 L 53.91 471.09 L 18.75 485.16 L 9.38 499.22 L 0.00 529.69 L 2.34 569.53 L 23.44 581.25 L 63.28 592.97 L 157.03 595.31 L 241.41 562.50 L 269.53 541.41 L 274.22 522.66 L 260.16 499.22 L 196.88 482.81 L 182.81 457.03 L 175.78 379.69 L 175.78 44.53 L 152.34 9.38 L 131.25 0.00 L 103.12 2.34 L 70.31 35.16" stroke="black" fill="transparent"/>
	<path d = "M 53.91 473.44 L 84.38 452.34 L 152.34 454.69 L 196.88 487.50" stroke="black" fill="transparent"/>
	<path d = "M 63.28 452.34 L 65.62 501.56" stroke="black" fill="transparent"/>
</svg>