<?xml version="1.0" encoding="UTF-8" standalone="no"?>
<!--Created with ndjsontosvg (https:https://github.com/thompson318/ndjsontosvg) 
	from the simplified Google quickdraw data set. key_id = 5105872730587136-->
<svg width="600" height="600"
	xmlns="http://www.w3.org/2000/svg">
	xmlns:ndjsontosvg="https://github.com/thompson318/ndjsontosvg"
	xmlns:quickdraw="https://quickdraw.withgoogle.com/data"
	xmlns:scikit-surgery="https://doi.org/10.1007/s11548-020-02180-5">

	<rect width="100%" height="100%" fill="white" />
	<path d = "M 337.50 14.06 L 304.69 0.00 L 225.00 4.69 L 175.78 16.41 L 119.53 49.22 L 63.28 110.16 L 37.50 150.00 L 9.38 229.69 L 0.00 295.31 L 2.34 356.25 L 9.38 391.41 L 39.84 457.03 L 70.31 496.88 L 171.09 574.22 L 220.31 590.62 L 288.28 597.66 L 410.16 578.91 L 454.69 557.81 L 487.50 532.03 L 536.72 473.44 L 557.81 435.94 L 578.91 382.03 L 592.97 297.66 L 592.97 248.44 L 581.25 206.25 L 522.66 105.47 L 426.56 35.16 L 365.62 14.06 L 323.44 14.06" stroke="black" fill="transparent"/>
	<path d = "M 135.94 96.09 L 206.25 234.38 L 271.88 398.44 L 325.78 358.59 L 487.50 194.53" stroke="black" fill="transparent"/>
	<path d = "M 278.91 400.78 L 349.22 435.94 L 435.94 459.38" stroke="black" fill="transparent"/>
	<path d = "M 307.03 25.78 L 309.38 112.50" stroke="black" fill="transparent"/>
</svg>