<?xml version="1.0" encoding="UTF-8" standalone="no"?>
<!--Created with ndjsontosvg (https:https://github.com/thompson318/ndjsontosvg) 
	from the simplified Google quickdraw data set. key_id = 6623196612657152-->
<svg width="600" height="600"
	xmlns="http://www.w3.org/2000/svg">
	xmlns:ndjsontosvg="https://github.com/thompson318/ndjsontosvg"
	xmlns:quickdraw="https://quickdraw.withgoogle.com/data"
	xmlns:scikit-surgery="https://doi.org/10.1007/s11548-020-02180-5">

	<rect width="100%" height="100%" fill="white" />
	<path d = "M 241.41 21.09 L 206.25 32.81 L 147.66 75.00 L 56.25 161.72 L 23.44 213.28 L 4.69 276.56 L 2.34 440.62 L 16.41 485.16 L 32.81 515.62 L 79.69 567.19 L 142.97 595.31 L 173.44 597.66 L 246.09 590.62 L 288.28 569.53 L 325.78 548.44 L 382.03 496.88 L 424.22 435.94 L 454.69 372.66 L 480.47 269.53 L 480.47 192.19 L 466.41 140.62 L 445.31 93.75 L 414.84 56.25 L 379.69 25.78 L 342.19 4.69 L 288.28 0.00 L 243.75 21.09" stroke="black" fill="transparent"/>
	<path d = "M 229.69 70.31 L 234.38 140.62" stroke="black" fill="transparent"/>
	<path d = "M 250.78 424.22 L 210.94 440.62 L 189.84 485.16 L 192.19 525.00 L 208.59 534.38 L 222.66 532.03 L 239.06 510.94 L 239.06 480.47 L 201.56 478.12" stroke="black" fill="transparent"/>
	<path d = "M 103.12 210.94 L 75.00 220.31 L 58.59 253.12 L 53.91 278.91 L 56.25 295.31 L 72.66 297.66 L 96.09 274.22 L 103.12 243.75 L 93.75 400.78" stroke="black" fill="transparent"/>
	<path d = "M 410.16 203.91 L 447.66 208.59 L 445.31 220.31 L 407.81 239.06" stroke="black" fill="transparent"/>
</svg>