<?xml version="1.0" encoding="UTF-8" standalone="no"?>
<!--Created with ndjsontosvg (https:https://github.com/thompson318/ndjsontosvg) 
	from the simplified Google quickdraw data set. key_id = 5088397183942656-->
<svg width="600" height="600"
	xmlns="http://www.w3.org/2000/svg">
	xmlns:ndjsontosvg="https://github.com/thompson318/ndjsontosvg"
	xmlns:quickdraw="https://quickdraw.withgoogle.com/data"
	xmlns:scikit-surgery="https://doi.org/10.1007/s11548-020-02180-5">

	<rect width="100%" height="100%" fill="white" />
	<path d = "M 435.94 35.16 L 393.75 9.38 L 339.84 0.00 L 257.81 0.00 L 199.22 14.06 L 114.84 46.88 L 70.31 82.03 L 21.09 138.28 L 2.34 189.84 L 2.34 290.62 L 11.72 330.47 L 49.22 398.44 L 86.72 445.31 L 128.91 468.75 L 199.22 482.81 L 325.78 485.16 L 382.03 480.47 L 478.12 454.69 L 539.06 403.12 L 578.91 311.72 L 597.66 194.53 L 597.66 164.06 L 588.28 154.69 L 520.31 131.25 L 438.28 72.66 L 403.12 63.28 L 386.72 42.19" stroke="black" fill="transparent"/>
	<path d = "M 262.50 37.50 L 264.84 72.66 L 271.88 72.66" stroke="black" fill="transparent"/>
	<path d = "M 292.97 16.41 L 318.75 18.75 L 325.78 35.16 L 309.38 65.62 L 292.97 72.66 L 311.72 63.28 L 335.16 63.28 L 344.53 72.66" stroke="black" fill="transparent"/>
	<path d = "M 389.06 58.59 L 389.06 91.41" stroke="black" fill="transparent"/>
	<path d = "M 410.16 79.69 L 440.62 82.03 L 445.31 98.44 L 433.59 114.84 L 468.75 117.19" stroke="black" fill="transparent"/>
	<path d = "M 475.78 171.09 L 501.56 168.75 L 496.88 150.00 L 506.25 145.31 L 489.84 133.59 L 468.75 128.91" stroke="black" fill="transparent"/>
	<path d = "M 501.56 229.69 L 510.94 269.53 L 536.72 264.84" stroke="black" fill="transparent"/>
	<path d = "M 548.44 229.69 L 548.44 292.97" stroke="black" fill="transparent"/>
</svg>