<?xml version="1.0" encoding="UTF-8" standalone="no"?>
<!--Created with ndjsontosvg (https:https://github.com/thompson318/ndjsontosvg) 
	from the simplified Google quickdraw data set. key_id = 4788738167144448-->
<svg width="600" height="600"
	xmlns="http://www.w3.org/2000/svg">
	xmlns:ndjsontosvg="https://github.com/thompson318/ndjsontosvg"
	xmlns:quickdraw="https://quickdraw.withgoogle.com/data"
	xmlns:scikit-surgery="https://doi.org/10.1007/s11548-020-02180-5">

	<rect width="100%" height="100%" fill="white" />
	<path d = "M 592.97 75.00 L 581.25 60.94 L 480.47 23.44 L 360.94 2.34 L 269.53 0.00 L 227.34 11.72 L 159.38 44.53 L 58.59 138.28 L 23.44 199.22 L 2.34 269.53 L 0.00 367.97 L 7.03 400.78 L 32.81 478.12 L 63.28 515.62 L 124.22 564.84 L 180.47 585.94 L 288.28 585.94 L 353.91 574.22 L 417.19 550.78 L 475.78 515.62 L 541.41 428.91 L 578.91 337.50 L 597.66 250.78 L 578.91 107.81 L 564.84 82.03 L 543.75 65.62" stroke="black" fill="transparent"/>
	<path d = "M 253.12 318.75 L 257.81 304.69 L 342.19 269.53 L 400.78 232.03 L 424.22 210.94" stroke="black" fill="transparent"/>
	<path d = "M 276.56 335.16 L 145.31 445.31" stroke="black" fill="transparent"/>
	<path d = "M 262.50 332.81 L 274.22 318.75 L 274.22 304.69 L 262.50 314.06" stroke="black" fill="transparent"/>
</svg>