<?xml version="1.0" encoding="UTF-8" standalone="no"?>
<!--Created with ndjsontosvg (https:https://github.com/thompson318/ndjsontosvg) 
	from the simplified Google quickdraw data set. key_id = 6273533812408320-->
<svg width="600" height="600"
	xmlns="http://www.w3.org/2000/svg">
	xmlns:ndjsontosvg="https://github.com/thompson318/ndjsontosvg"
	xmlns:quickdraw="https://quickdraw.withgoogle.com/data"
	xmlns:scikit-surgery="https://doi.org/10.1007/s11548-020-02180-5">

	<rect width="100%" height="100%" fill="white" />
	<path d = "M 510.94 145.31 L 489.84 91.41 L 433.59 46.88 L 372.66 18.75 L 262.50 0.00 L 201.56 9.38 L 164.06 23.44 L 89.06 72.66 L 18.75 159.38 L 4.69 208.59 L 0.00 283.59 L 4.69 344.53 L 18.75 393.75 L 39.84 426.56 L 100.78 489.84 L 131.25 513.28 L 196.88 541.41 L 285.94 555.47 L 323.44 553.12 L 393.75 539.06 L 438.28 515.62 L 475.78 489.84 L 550.78 405.47 L 583.59 325.78 L 595.31 269.53 L 592.97 187.50 L 578.91 157.03 L 550.78 128.91 L 494.53 112.50" stroke="black" fill="transparent"/>
	<path d = "M 269.53 28.12 L 304.69 349.22 L 307.03 433.59 L 297.66 513.28" stroke="black" fill="transparent"/>
</svg>