<?xml version="1.0" encoding="UTF-8" standalone="no"?>
<!--Created with ndjsontosvg (https:https://github.com/thompson318/ndjsontosvg) 
	from the simplified Google quickdraw data set. key_id = 4650277233754112-->
<svg width="600" height="600"
	xmlns="http://www.w3.org/2000/svg">
	xmlns:ndjsontosvg="https://github.com/thompson318/ndjsontosvg"
	xmlns:quickdraw="https://quickdraw.withgoogle.com/data"
	xmlns:scikit-surgery="https://doi.org/10.1007/s11548-020-02180-5">

	<rect width="100%" height="100%" fill="white" />
	<path d = "M 548.44 72.66 L 548.44 51.56 L 532.03 25.78 L 508.59 9.38 L 478.12 0.00 L 414.84 16.41 L 360.94 53.91 L 328.12 18.75 L 295.31 7.03 L 239.06 11.72 L 187.50 35.16 L 145.31 11.72 L 128.91 11.72 L 91.41 28.12 L 44.53 70.31 L 46.88 86.72 L 4.69 152.34 L 0.00 194.53 L 25.78 220.31 L 53.91 215.62 L 51.56 255.47 L 60.94 274.22 L 72.66 283.59 L 93.75 285.94 L 166.41 262.50 L 206.25 290.62 L 227.34 295.31 L 328.12 274.22 L 454.69 278.91 L 501.56 248.44 L 525.00 246.09 L 541.41 222.66 L 548.44 187.50 L 522.66 180.47 L 503.91 189.84 L 522.66 196.88 L 560.16 182.81 L 585.94 159.38 L 597.66 131.25 L 576.56 100.78 L 527.34 72.66" stroke="black" fill="transparent"/>
	<path d = "M 250.78 278.91 L 154.69 332.81 L 63.28 363.28 L 67.97 375.00 L 114.84 417.19 L 100.78 433.59" stroke="black" fill="transparent"/>
</svg>