<?xml version="1.0" encoding="UTF-8" standalone="no"?>
<!--Created with ndjsontosvg (https:https://github.com/thompson318/ndjsontosvg) 
	from the simplified Google quickdraw data set. key_id = 6561270855630848-->
<svg width="600" height="600"
	xmlns="http://www.w3.org/2000/svg">
	xmlns:ndjsontosvg="https://github.com/thompson318/ndjsontosvg"
	xmlns:quickdraw="https://quickdraw.withgoogle.com/data"
	xmlns:scikit-surgery="https://doi.org/10.1007/s11548-020-02180-5">

	<rect width="100%" height="100%" fill="white" />
	<path d = "M 152.34 253.12 L 18.75 215.62 L 0.00 140.62 L 18.75 121.88 L 103.12 93.75 L 152.34 145.31 L 159.38 63.28 L 173.44 30.47 L 203.91 2.34 L 255.47 11.72 L 278.91 60.94 L 281.25 86.72 L 323.44 39.84 L 356.25 21.09 L 400.78 0.00 L 419.53 4.69 L 438.28 25.78 L 450.00 51.56 L 450.00 75.00 L 440.62 91.41 L 574.22 128.91 L 588.28 152.34 L 590.62 192.19 L 569.53 208.59 L 546.09 210.94 L 585.94 234.38 L 597.66 267.19 L 585.94 283.59 L 515.62 304.69 L 253.12 309.38 L 208.59 297.66 L 138.28 253.12" stroke="black" fill="transparent"/>
</svg>