<?xml version="1.0" encoding="UTF-8" standalone="no"?>
<!--Created with ndjsontosvg (https:https://github.com/thompson318/ndjsontosvg) 
	from the simplified Google quickdraw data set. key_id = 5053244013281280-->
<svg width="600" height="600"
	xmlns="http://www.w3.org/2000/svg">
	xmlns:ndjsontosvg="https://github.com/thompson318/ndjsontosvg"
	xmlns:quickdraw="https://quickdraw.withgoogle.com/data"
	xmlns:scikit-surgery="https://doi.org/10.1007/s11548-020-02180-5">

	<rect width="100%" height="100%" fill="white" />
	<path d = "M 557.81 150.00 L 571.88 119.53 L 567.19 67.97 L 532.03 25.78 L 464.06 7.03 L 410.16 7.03 L 393.75 23.44 L 396.09 51.56 L 405.47 51.56 L 405.47 39.84 L 377.34 14.06 L 323.44 0.00 L 295.31 0.00 L 248.44 18.75 L 220.31 44.53 L 201.56 82.03 L 201.56 105.47 L 220.31 138.28 L 243.75 147.66 L 264.84 142.97 L 269.53 126.56 L 255.47 119.53 L 203.91 119.53 L 185.16 131.25 L 159.38 171.09 L 154.69 225.00 L 192.19 274.22 L 229.69 300.00 L 276.56 302.34 L 325.78 281.25 L 304.69 316.41 L 302.34 344.53 L 314.06 360.94 L 358.59 372.66 L 424.22 370.31 L 459.38 363.28 L 529.69 332.81 L 553.12 304.69 L 555.47 260.16 L 548.44 232.03 L 520.31 203.91 L 503.91 201.56 L 508.59 225.00 L 546.09 239.06 L 567.19 236.72 L 595.31 206.25 L 592.97 152.34 L 574.22 126.56 L 546.09 103.12" stroke="black" fill="transparent"/>
	<path d = "M 0.00 229.69 L 128.91 124.22 L 175.78 114.84 L 203.91 131.25 L 201.56 145.31 L 189.84 157.03 L 103.12 215.62 L 44.53 236.72" stroke="black" fill="transparent"/>
</svg>