<?xml version="1.0" encoding="UTF-8" standalone="no"?>
<!--Created with ndjsontosvg (https:https://github.com/thompson318/ndjsontosvg) 
	from the simplified Google quickdraw data set. key_id = 6440733265362944-->
<svg width="600" height="600"
	xmlns="http://www.w3.org/2000/svg">
	xmlns:ndjsontosvg="https://github.com/thompson318/ndjsontosvg"
	xmlns:quickdraw="https://quickdraw.withgoogle.com/data"
	xmlns:scikit-surgery="https://doi.org/10.1007/s11548-020-02180-5">

	<rect width="100%" height="100%" fill="white" />
	<path d = "M 260.16 285.94 L 222.66 260.16 L 128.91 232.03 L 79.69 236.72 L 49.22 260.16 L 49.22 285.94 L 91.41 335.16 L 150.00 365.62 L 257.81 391.41 L 321.09 363.28 L 344.53 314.06 L 323.44 283.59 L 269.53 262.50" stroke="black" fill="transparent"/>
	<path d = "M 56.25 257.81 L 51.56 384.38 L 70.31 525.00 L 82.03 550.78 L 140.62 585.94 L 192.19 597.66 L 213.28 597.66 L 225.00 585.94 L 267.19 496.88 L 309.38 342.19" stroke="black" fill="transparent"/>
	<path d = "M 257.81 400.78 L 342.19 400.78 L 393.75 382.03 L 421.88 379.69 L 487.50 403.12 L 510.94 424.22 L 452.34 447.66 L 379.69 496.88 L 304.69 506.25 L 271.88 489.84" stroke="black" fill="transparent"/>
	<path d = "M 166.41 194.53 L 173.44 178.12 L 145.31 140.62 L 23.44 49.22 L 0.00 23.44 L 105.47 2.34 L 178.12 0.00" stroke="black" fill="transparent"/>
</svg>