<?xml version="1.0" encoding="UTF-8" standalone="no"?>
<!--Created with ndjsontosvg (https:https://github.com/thompson318/ndjsontosvg) 
	from the simplified Google quickdraw data set. key_id = 5368719360393216-->
<svg width="600" height="600"
	xmlns="http://www.w3.org/2000/svg">
	xmlns:ndjsontosvg="https://github.com/thompson318/ndjsontosvg"
	xmlns:quickdraw="https://quickdraw.withgoogle.com/data"
	xmlns:scikit-surgery="https://doi.org/10.1007/s11548-020-02180-5">

	<rect width="100%" height="100%" fill="white" />
	<path d = "M 84.38 267.19 L 201.56 248.44 L 248.44 255.47 L 264.84 267.19 L 278.91 300.00 L 264.84 328.12 L 201.56 367.97 L 142.97 375.00 L 112.50 346.88 L 98.44 316.41 L 96.09 288.28 L 107.81 271.88" stroke="black" fill="transparent"/>
	<path d = "M 91.41 271.88 L 96.09 499.22 L 107.81 574.22" stroke="black" fill="transparent"/>
	<path d = "M 288.28 297.66 L 276.56 316.41 L 271.88 510.94 L 257.81 578.91 L 232.03 597.66 L 166.41 569.53 L 112.50 576.56" stroke="black" fill="transparent"/>
	<path d = "M 89.06 260.16 L 84.38 267.19 L 44.53 271.88 L 25.78 288.28 L 11.72 321.09 L 0.00 410.16 L 39.84 466.41 L 91.41 501.56 L 107.81 499.22" stroke="black" fill="transparent"/>
	<path d = "M 187.50 302.34 L 208.59 257.81 L 206.25 248.44 L 185.16 222.66 L 208.59 133.59 L 199.22 112.50" stroke="black" fill="transparent"/>
	<path d = "M 220.31 281.25 L 264.84 206.25 L 267.19 187.50 L 262.50 178.12 L 236.72 164.06 L 208.59 67.97" stroke="black" fill="transparent"/>
	<path d = "M 135.94 316.41 L 142.97 269.53 L 135.94 189.84 L 124.22 154.69 L 91.41 107.81 L 84.38 86.72 L 98.44 44.53 L 128.91 0.00" stroke="black" fill="transparent"/>
</svg>