<?xml version="1.0" encoding="UTF-8" standalone="no"?>
<!--Created with ndjsontosvg (https:https://github.com/thompson318/ndjsontosvg) 
	from the simplified Google quickdraw data set. key_id = 4590546163073024-->
<svg width="600" height="600"
	xmlns="http://www.w3.org/2000/svg">
	xmlns:ndjsontosvg="https://github.com/thompson318/ndjsontosvg"
	xmlns:quickdraw="https://quickdraw.withgoogle.com/data"
	xmlns:scikit-surgery="https://doi.org/10.1007/s11548-020-02180-5">

	<rect width="100%" height="100%" fill="white" />
	<path d = "M 578.91 0.00 L 590.62 49.22 L 597.66 166.41 L 581.25 196.88 L 539.06 239.06 L 440.62 297.66 L 389.06 316.41 L 318.75 328.12 L 260.16 314.06 L 201.56 278.91 L 189.84 243.75 L 192.19 210.94 L 229.69 25.78 L 569.53 30.47 L 583.59 28.12 L 588.28 9.38" stroke="black" fill="transparent"/>
	<path d = "M 217.97 56.25 L 100.78 53.91 L 58.59 63.28 L 16.41 84.38 L 0.00 121.88 L 2.34 175.78 L 28.12 196.88 L 105.47 213.28 L 164.06 213.28 L 180.47 203.91" stroke="black" fill="transparent"/>
	<path d = "M 175.78 124.22 L 175.78 110.16 L 65.62 105.47 L 23.44 135.94 L 14.06 150.00 L 14.06 171.09 L 25.78 182.81 L 46.88 185.16 L 210.94 175.78" stroke="black" fill="transparent"/>
</svg>