<?xml version="1.0" encoding="UTF-8" standalone="no"?>
<!--Created with ndjsontosvg (https:https://github.com/thompson318/ndjsontosvg) 
	from the simplified Google quickdraw data set. key_id = 4983664804888576-->
<svg width="600" height="600"
	xmlns="http://www.w3.org/2000/svg">
	xmlns:ndjsontosvg="https://github.com/thompson318/ndjsontosvg"
	xmlns:quickdraw="https://quickdraw.withgoogle.com/data"
	xmlns:scikit-surgery="https://doi.org/10.1007/s11548-020-02180-5">

	<rect width="100%" height="100%" fill="white" />
	<path d = "M 37.50 311.72 L 91.41 318.75 L 187.50 316.41 L 213.28 314.06 L 250.78 295.31 L 274.22 271.88 L 285.94 236.72 L 285.94 206.25 L 262.50 171.09 L 232.03 150.00 L 185.16 142.97 L 114.84 145.31 L 51.56 171.09 L 14.06 210.94 L 0.00 239.06 L 0.00 267.19 L 23.44 307.03" stroke="black" fill="transparent"/>
	<path d = "M 9.38 323.44 L 28.12 508.59 L 39.84 541.41 L 58.59 560.16 L 100.78 583.59 L 164.06 597.66 L 215.62 597.66 L 253.12 578.91 L 271.88 548.44 L 276.56 262.50" stroke="black" fill="transparent"/>
	<path d = "M 281.25 337.50 L 295.31 295.31 L 342.19 250.78 L 356.25 248.44 L 370.31 264.84 L 386.72 307.03 L 384.38 346.88 L 297.66 452.34 L 288.28 475.78 L 288.28 501.56" stroke="black" fill="transparent"/>
	<path d = "M 271.88 407.81 L 264.84 393.75 L 297.66 344.53 L 321.09 328.12 L 325.78 358.59 L 274.22 450.00 L 262.50 487.50" stroke="black" fill="transparent"/>
	<path d = "M 121.88 192.19 L 79.69 187.50 L 30.47 164.06 L 30.47 154.69 L 91.41 72.66 L 93.75 39.84 L 58.59 0.00" stroke="black" fill="transparent"/>
	<path d = "M 201.56 229.69 L 133.59 192.19 L 117.19 168.75 L 117.19 159.38 L 213.28 46.88 L 213.28 37.50 L 159.38 14.06" stroke="black" fill="transparent"/>
	<path d = "M 250.78 234.38 L 239.06 222.66" stroke="black" fill="transparent"/>
</svg>