<?xml version="1.0" encoding="UTF-8" standalone="no"?>
<!--Created with ndjsontosvg (https:https://github.com/thompson318/ndjsontosvg) 
	from the simplified Google quickdraw data set. key_id = 6075657203220480-->
<svg width="600" height="600"
	xmlns="http://www.w3.org/2000/svg">
	xmlns:ndjsontosvg="https://github.com/thompson318/ndjsontosvg"
	xmlns:quickdraw="https://quickdraw.withgoogle.com/data"
	xmlns:scikit-surgery="https://doi.org/10.1007/s11548-020-02180-5">

	<rect width="100%" height="100%" fill="white" />
	<path d = "M 25.78 297.66 L 7.03 309.38 L 0.00 396.09 L 2.34 445.31 L 23.44 494.53 L 70.31 546.09 L 128.91 581.25 L 180.47 595.31 L 260.16 597.66 L 318.75 576.56 L 344.53 557.81 L 363.28 529.69 L 398.44 414.84 L 403.12 292.97 L 389.06 255.47 L 377.34 243.75 L 363.28 239.06 L 23.44 285.94" stroke="black" fill="transparent"/>
	<path d = "M 398.44 281.25 L 398.44 267.19 L 419.53 243.75 L 431.25 234.38 L 461.72 232.03 L 485.16 274.22 L 489.84 346.88 L 468.75 382.03 L 400.78 447.66 L 382.03 475.78 L 379.69 494.53" stroke="black" fill="transparent"/>
	<path d = "M 412.50 332.81 L 414.84 309.38 L 433.59 285.94 L 440.62 314.06 L 435.94 358.59 L 419.53 391.41" stroke="black" fill="transparent"/>
	<path d = "M 128.91 232.03 L 171.09 229.69 L 192.19 208.59 L 187.50 175.78 L 157.03 147.66 L 142.97 126.56 L 140.62 91.41 L 168.75 44.53 L 222.66 0.00" stroke="black" fill="transparent"/>
</svg>