<?xml version="1.0" encoding="UTF-8" standalone="no"?>
<!--Created with ndjsontosvg (https:https://github.com/thompson318/ndjsontosvg) 
	from the simplified Google quickdraw data set. key_id = 5484947869532160-->
<svg width="600" height="600"
	xmlns="http://www.w3.org/2000/svg">
	xmlns:ndjsontosvg="https://github.com/thompson318/ndjsontosvg"
	xmlns:quickdraw="https://quickdraw.withgoogle.com/data"
	xmlns:scikit-surgery="https://doi.org/10.1007/s11548-020-02180-5">

	<rect width="100%" height="100%" fill="white" />
	<path d = "M 400.78 0.00 L 161.72 30.47 L 56.25 23.44 L 4.69 192.19 L 0.00 234.38 L 9.38 278.91 L 23.44 318.75 L 42.19 342.19 L 117.19 400.78 L 185.16 435.94 L 257.81 445.31 L 302.34 438.28 L 375.00 391.41 L 403.12 358.59 L 428.91 304.69 L 438.28 229.69 L 426.56 138.28 L 400.78 63.28 L 377.34 30.47 L 360.94 18.75" stroke="black" fill="transparent"/>
	<path d = "M 393.75 161.72 L 400.78 131.25 L 424.22 100.78 L 461.72 75.00 L 482.81 70.31 L 508.59 75.00 L 557.81 100.78 L 588.28 138.28 L 595.31 159.38 L 592.97 217.97 L 553.12 260.16 L 496.88 281.25 L 438.28 278.91 L 412.50 269.53" stroke="black" fill="transparent"/>
</svg>