<?xml version="1.0" encoding="UTF-8" standalone="no"?>
<!--Created with ndjsontosvg (https:https://github.com/thompson318/ndjsontosvg) 
	from the simplified Google quickdraw data set. key_id = 5869691258011648-->
<svg width="600" height="600"
	xmlns="http://www.w3.org/2000/svg">
	xmlns:ndjsontosvg="https://github.com/thompson318/ndjsontosvg"
	xmlns:quickdraw="https://quickdraw.withgoogle.com/data"
	xmlns:scikit-surgery="https://doi.org/10.1007/s11548-020-02180-5">

	<rect width="100%" height="100%" fill="white" />
	<path d = "M 4.69 65.62 L 2.34 91.41 L 28.12 262.50 L 65.62 365.62 L 91.41 405.47 L 164.06 466.41 L 208.59 480.47 L 288.28 482.81 L 325.78 468.75 L 360.94 445.31 L 391.41 410.16 L 424.22 349.22 L 454.69 103.12 L 457.03 0.00" stroke="black" fill="transparent"/>
	<path d = "M 424.22 164.06 L 459.38 140.62 L 529.69 121.88 L 553.12 121.88 L 581.25 142.97 L 590.62 161.72 L 597.66 187.50 L 597.66 239.06 L 564.84 288.28 L 503.91 323.44 L 405.47 360.94" stroke="black" fill="transparent"/>
	<path d = "M 2.34 44.53 L 25.78 67.97 L 75.00 98.44 L 147.66 110.16 L 232.03 107.81 L 314.06 98.44 L 382.03 70.31 L 445.31 32.81 L 464.06 7.03" stroke="black" fill="transparent"/>
	<path d = "M 75.00 77.34 L 220.31 21.09 L 292.97 7.03 L 417.19 9.38 L 459.38 35.16 L 471.09 49.22" stroke="black" fill="transparent"/>
</svg>