<?xml version="1.0" encoding="UTF-8" standalone="no"?>
<!--Created with ndjsontosvg (https:https://github.com/thompson318/ndjsontosvg) 
	from the simplified Google quickdraw data set. key_id = 5872545330888704-->
<svg width="600" height="600"
	xmlns="http://www.w3.org/2000/svg">
	xmlns:ndjsontosvg="https://github.com/thompson318/ndjsontosvg"
	xmlns:quickdraw="https://quickdraw.withgoogle.com/data"
	xmlns:scikit-surgery="https://doi.org/10.1007/s11548-020-02180-5">

	<rect width="100%" height="100%" fill="white" />
	<path d = "M 49.22 236.72 L 28.12 264.84 L 7.03 323.44 L 0.00 382.03 L 9.38 405.47 L 44.53 447.66 L 168.75 513.28 L 232.03 534.38 L 269.53 536.72 L 316.41 522.66 L 360.94 492.19 L 367.97 475.78 L 353.91 414.84 L 353.91 393.75 L 325.78 349.22 L 339.84 314.06 L 323.44 297.66 L 300.00 241.41 L 283.59 232.03 L 304.69 225.00 L 332.81 227.34 L 473.44 260.16 L 592.97 297.66 L 590.62 356.25 L 564.84 393.75 L 532.03 421.88 L 337.50 496.88 L 318.75 485.16" stroke="black" fill="transparent"/>
	<path d = "M 46.88 248.44 L 311.72 227.34" stroke="black" fill="transparent"/>
	<path d = "M 93.75 206.25 L 84.38 126.56 L 67.97 110.16 L 51.56 60.94 L 49.22 35.16 L 65.62 0.00" stroke="black" fill="transparent"/>
	<path d = "M 199.22 168.75 L 166.41 140.62 L 159.38 126.56 L 159.38 96.09 L 187.50 56.25 L 185.16 30.47" stroke="black" fill="transparent"/>
	<path d = "M 46.88 302.34 L 14.06 318.75 L 14.06 325.78 L 96.09 349.22" stroke="black" fill="transparent"/>
	<path d = "M 96.09 342.19 L 96.09 332.81 L 133.59 311.72 L 96.09 328.12" stroke="black" fill="transparent"/>
	<path d = "M 173.44 290.62 L 161.72 323.44 L 187.50 285.94" stroke="black" fill="transparent"/>
	<path d = "M 145.31 297.66 L 175.78 297.66" stroke="black" fill="transparent"/>
</svg>