<?xml version="1.0" encoding="UTF-8" standalone="no"?>
<!--Created with ndjsontosvg (https:https://github.com/thompson318/ndjsontosvg) 
	from the simplified Google quickdraw data set. key_id = 5852955754364928-->
<svg width="600" height="600"
	xmlns="http://www.w3.org/2000/svg">
	xmlns:ndjsontosvg="https://github.com/thompson318/ndjsontosvg"
	xmlns:quickdraw="https://quickdraw.withgoogle.com/data"
	xmlns:scikit-surgery="https://doi.org/10.1007/s11548-020-02180-5">

	<rect width="100%" height="100%" fill="white" />
	<path d = "M 196.88 157.03 L 194.53 246.09 L 180.47 358.59" stroke="black" fill="transparent"/>
	<path d = "M 201.56 145.31 L 192.19 147.66 L 121.88 234.38" stroke="black" fill="transparent"/>
	<path d = "M 194.53 145.31 L 257.81 217.97 L 281.25 269.53" stroke="black" fill="transparent"/>
	<path d = "M 175.78 363.28 L 187.50 372.66 L 189.84 398.44 L 185.16 585.94 L 84.38 503.91 L 37.50 450.00 L 39.84 442.97" stroke="black" fill="transparent"/>
	<path d = "M 182.81 597.66 L 321.09 487.50" stroke="black" fill="transparent"/>
	<path d = "M 32.81 365.62 L 405.47 360.94 L 414.84 358.59 L 407.81 356.25 L 335.16 318.75" stroke="black" fill="transparent"/>
	<path d = "M 382.03 384.38 L 367.97 461.72 L 349.22 473.44" stroke="black" fill="transparent"/>
	<path d = "M 7.03 358.59 L 63.28 414.84 L 77.34 438.28" stroke="black" fill="transparent"/>
	<path d = "M 0.00 332.81 L 105.47 288.28" stroke="black" fill="transparent"/>
	<path d = "M 173.44 42.19 L 185.16 53.91 L 189.84 126.56 L 189.84 42.19 L 199.22 42.19 L 276.56 157.03 L 262.50 0.00" stroke="black" fill="transparent"/>
</svg>