<?xml version="1.0" encoding="UTF-8" standalone="no"?>
<!--Created with ndjsontosvg (https:https://github.com/thompson318/ndjsontosvg) 
	from the simplified Google quickdraw data set. key_id = 5071111656046592-->
<svg width="600" height="600"
	xmlns="http://www.w3.org/2000/svg">
	xmlns:ndjsontosvg="https://github.com/thompson318/ndjsontosvg"
	xmlns:quickdraw="https://quickdraw.withgoogle.com/data"
	xmlns:scikit-surgery="https://doi.org/10.1007/s11548-020-02180-5">

	<rect width="100%" height="100%" fill="white" />
	<path d = "M 241.41 49.22 L 222.66 37.50 L 199.22 42.19 L 86.72 145.31 L 37.50 276.56 L 9.38 332.81 L 0.00 396.09 L 4.69 452.34 L 18.75 492.19 L 67.97 564.84 L 98.44 583.59 L 152.34 597.66 L 243.75 588.28 L 452.34 480.47 L 485.16 431.25 L 496.88 384.38 L 496.88 304.69 L 489.84 260.16 L 471.09 222.66 L 433.59 187.50 L 375.00 107.81 L 243.75 0.00" stroke="black" fill="transparent"/>
	<path d = "M 220.31 262.50 L 210.94 222.66 L 276.56 171.09 L 292.97 119.53 L 288.28 180.47 L 300.00 243.75 L 321.09 283.59 L 337.50 281.25 L 386.72 140.62 L 403.12 124.22" stroke="black" fill="transparent"/>
	<path d = "M 450.00 339.84 L 410.16 346.88 L 367.97 398.44 L 375.00 414.84 L 442.97 419.53 L 464.06 435.94 L 466.41 459.38 L 454.69 482.81 L 426.56 501.56" stroke="black" fill="transparent"/>
	<path d = "M 363.28 510.94 L 351.56 496.88" stroke="black" fill="transparent"/>
</svg>