<?xml version="1.0" encoding="UTF-8" standalone="no"?>
<!--Created with ndjsontosvg (https:https://github.com/thompson318/ndjsontosvg) 
	from the simplified Google quickdraw data set. key_id = 6433219303964672-->
<svg width="600" height="600"
	xmlns="http://www.w3.org/2000/svg">
	xmlns:ndjsontosvg="https://github.com/thompson318/ndjsontosvg"
	xmlns:quickdraw="https://quickdraw.withgoogle.com/data"
	xmlns:scikit-surgery="https://doi.org/10.1007/s11548-020-02180-5">

	<rect width="100%" height="100%" fill="white" />
	<path d = "M 159.38 597.66 L 119.53 590.62 L 65.62 546.09 L 16.41 433.59 L 0.00 356.25 L 0.00 314.06 L 7.03 260.16 L 25.78 210.94 L 53.91 166.41 L 119.53 100.78 L 161.72 79.69 L 203.91 72.66 L 285.94 77.34 L 323.44 93.75 L 356.25 114.84 L 407.81 168.75 L 442.97 241.41 L 464.06 314.06 L 461.72 389.06 L 431.25 454.69 L 370.31 506.25 L 288.28 548.44 L 248.44 560.16 L 173.44 562.50 L 142.97 548.44 L 112.50 527.34" stroke="black" fill="transparent"/>
	<path d = "M 278.91 35.16 L 283.59 53.91" stroke="black" fill="transparent"/>
	<path d = "M 290.62 67.97 L 292.97 11.72 L 307.03 0.00 L 330.47 0.00 L 358.59 11.72 L 360.94 75.00" stroke="black" fill="transparent"/>
	<path d = "M 192.19 358.59 L 185.16 171.09 L 196.88 105.47 L 203.91 217.97 L 220.31 337.50 L 220.31 344.53 L 203.91 349.22" stroke="black" fill="transparent"/>
</svg>