<?xml version="1.0" encoding="UTF-8" standalone="no"?>
<!--Created with ndjsontosvg (https:https://github.com/thompson318/ndjsontosvg) 
	from the simplified Google quickdraw data set. key_id = 5725320294432768-->
<svg width="600" height="600"
	xmlns="http://www.w3.org/2000/svg">
	xmlns:ndjsontosvg="https://github.com/thompson318/ndjsontosvg"
	xmlns:quickdraw="https://quickdraw.withgoogle.com/data"
	xmlns:scikit-surgery="https://doi.org/10.1007/s11548-020-02180-5">

	<rect width="100%" height="100%" fill="white" />
	<path d = "M 403.12 96.09 L 222.66 96.09 L 77.34 128.91 L 21.09 264.84 L 0.00 375.00 L 2.34 452.34 L 23.44 473.44 L 63.28 492.19 L 274.22 499.22 L 363.28 485.16 L 435.94 457.03 L 517.97 370.31 L 560.16 300.00 L 581.25 246.09 L 597.66 196.88 L 590.62 161.72 L 562.50 135.94 L 499.22 110.16 L 325.78 77.34" stroke="black" fill="transparent"/>
	<path d = "M 239.06 89.06 L 246.09 16.41 L 276.56 0.00 L 302.34 21.09 L 290.62 84.38" stroke="black" fill="transparent"/>
	<path d = "M 398.44 98.44 L 203.91 220.31 L 138.28 349.22 L 152.34 311.72 L 274.22 121.88" stroke="black" fill="transparent"/>
	<path d = "M 285.94 79.69 L 271.88 159.38 L 274.22 302.34 L 283.59 407.81 L 271.88 389.06 L 243.75 370.31" stroke="black" fill="transparent"/>
	<path d = "M 142.97 274.22 L 150.00 264.84 L 206.25 250.78 L 384.38 248.44 L 417.19 241.41" stroke="black" fill="transparent"/>
	<path d = "M 349.22 157.03 L 330.47 203.91 L 288.28 267.19 L 248.44 300.00 L 213.28 318.75" stroke="black" fill="transparent"/>
</svg>