<?xml version="1.0" encoding="UTF-8" standalone="no"?>
<!--Created with ndjsontosvg (https:https://github.com/thompson318/ndjsontosvg) 
	from the simplified Google quickdraw data set. key_id = 5661256176369664-->
<svg width="600" height="600"
	xmlns="http://www.w3.org/2000/svg">
	xmlns:ndjsontosvg="https://github.com/thompson318/ndjsontosvg"
	xmlns:quickdraw="https://quickdraw.withgoogle.com/data"
	xmlns:scikit-surgery="https://doi.org/10.1007/s11548-020-02180-5">

	<rect width="100%" height="100%" fill="white" />
	<path d = "M 220.31 11.72 L 161.72 11.72 L 121.88 39.84 L 53.91 121.88 L 9.38 208.59 L 0.00 267.19 L 0.00 321.09 L 39.84 367.97 L 138.28 414.84 L 208.59 428.91 L 346.88 428.91 L 372.66 428.91 L 473.44 400.78 L 536.72 370.31 L 567.19 337.50 L 585.94 297.66 L 595.31 232.03 L 595.31 150.00 L 576.56 114.84 L 534.38 72.66 L 487.50 53.91 L 335.16 14.06 L 213.28 9.38 L 187.50 0.00" stroke="black" fill="transparent"/>
	<path d = "M 239.06 32.81 L 236.72 79.69 L 250.78 56.25 L 250.78 37.50 L 300.00 77.34 L 300.00 14.06" stroke="black" fill="transparent"/>
	<path d = "M 487.50 182.81 L 496.88 182.81" stroke="black" fill="transparent"/>
	<path d = "M 510.94 185.16 L 473.44 178.12 L 466.41 225.00 L 475.78 234.38 L 520.31 232.03 L 532.03 227.34 L 532.03 217.97" stroke="black" fill="transparent"/>
	<path d = "M 464.06 206.25 L 496.88 206.25" stroke="black" fill="transparent"/>
	<path d = "M 276.56 342.19 L 260.16 346.88 L 248.44 377.34 L 281.25 391.41 L 281.25 398.44 L 260.16 405.47 L 217.97 405.47 L 192.19 396.09" stroke="black" fill="transparent"/>
</svg>