<?xml version="1.0" encoding="UTF-8" standalone="no"?>
<!--Created with ndjsontosvg (https:https://github.com/thompson318/ndjsontosvg) 
	from the simplified Google quickdraw data set. key_id = 6234763092295680-->
<svg width="600" height="600"
	xmlns="http://www.w3.org/2000/svg">
	xmlns:ndjsontosvg="https://github.com/thompson318/ndjsontosvg"
	xmlns:quickdraw="https://quickdraw.withgoogle.com/data"
	xmlns:scikit-surgery="https://doi.org/10.1007/s11548-020-02180-5">

	<rect width="100%" height="100%" fill="white" />
	<path d = "M 0.00 105.47 L 7.03 79.69 L 67.97 25.78 L 117.19 4.69 L 166.41 0.00 L 335.16 32.81 L 428.91 75.00 L 492.19 112.50 L 562.50 220.31 L 590.62 285.94 L 597.66 321.09 L 590.62 384.38 L 562.50 450.00 L 536.72 489.84 L 494.53 522.66 L 417.19 536.72 L 297.66 529.69 L 203.91 499.22 L 124.22 447.66 L 44.53 346.88 L 14.06 203.91 L 16.41 142.97 L 63.28 75.00" stroke="black" fill="transparent"/>
	<path d = "M 262.50 51.56 L 257.81 145.31" stroke="black" fill="transparent"/>
	<path d = "M 257.81 51.56 L 281.25 105.47 L 337.50 192.19 L 344.53 173.44 L 349.22 84.38" stroke="black" fill="transparent"/>
</svg>