<?xml version="1.0" encoding="UTF-8" standalone="no"?>
<!--Created with ndjsontosvg (https:https://github.com/thompson318/ndjsontosvg) 
	from the simplified Google quickdraw data set. key_id = 4855282209390592-->
<svg width="600" height="600"
	xmlns="http://www.w3.org/2000/svg">
	xmlns:ndjsontosvg="https://github.com/thompson318/ndjsontosvg"
	xmlns:quickdraw="https://quickdraw.withgoogle.com/data"
	xmlns:scikit-surgery="https://doi.org/10.1007/s11548-020-02180-5">

	<rect width="100%" height="100%" fill="white" />
	<path d = "M 574.22 60.94 L 503.91 32.81 L 424.22 11.72 L 283.59 0.00 L 173.44 0.00 L 133.59 9.38 L 103.12 30.47 L 51.56 86.72 L 28.12 133.59 L 0.00 217.97 L 9.38 302.34 L 28.12 335.16 L 84.38 417.19 L 128.91 461.72 L 194.53 499.22 L 239.06 515.62 L 370.31 522.66 L 522.66 522.66 L 567.19 485.16 L 595.31 344.53 L 597.66 168.75 L 588.28 93.75 L 555.47 32.81" stroke="black" fill="transparent"/>
	<path d = "M 372.66 56.25 L 365.62 124.22" stroke="black" fill="transparent"/>
	<path d = "M 562.50 269.53 L 503.91 267.19" stroke="black" fill="transparent"/>
	<path d = "M 344.53 389.06 L 344.53 468.75" stroke="black" fill="transparent"/>
	<path d = "M 213.28 217.97 L 124.22 210.94" stroke="black" fill="transparent"/>
	<path d = "M 344.53 194.53 L 344.53 297.66" stroke="black" fill="transparent"/>
	<path d = "M 267.19 241.41 L 360.94 241.41 L 412.50 257.81" stroke="black" fill="transparent"/>
</svg>