<?xml version="1.0" encoding="UTF-8" standalone="no"?>
<!--Created with ndjsontosvg (https:https://github.com/thompson318/ndjsontosvg) 
	from the simplified Google quickdraw data set. key_id = 4954783985172480-->
<svg width="600" height="600"
	xmlns="http://www.w3.org/2000/svg">
	xmlns:ndjsontosvg="https://github.com/thompson318/ndjsontosvg"
	xmlns:quickdraw="https://quickdraw.withgoogle.com/data"
	xmlns:scikit-surgery="https://doi.org/10.1007/s11548-020-02180-5">

	<rect width="100%" height="100%" fill="white" />
	<path d = "M 7.03 42.19 L 11.72 314.06" stroke="black" fill="transparent"/>
	<path d = "M 30.47 32.81 L 91.41 35.16 L 208.59 4.69 L 367.97 0.00 L 597.66 32.81 L 571.88 168.75 L 564.84 372.66 L 550.78 400.78 L 18.75 398.44 L 2.34 389.06 L 0.00 377.34 L 2.34 300.00" stroke="black" fill="transparent"/>
	<path d = "M 44.53 72.66 L 37.50 86.72 L 39.84 365.62 L 79.69 370.31 L 262.50 346.88 L 492.19 346.88 L 503.91 332.81 L 503.91 307.03 L 513.28 285.94 L 525.00 105.47 L 522.66 63.28 L 513.28 51.56 L 250.78 67.97 L 49.22 65.62 L 39.84 70.31" stroke="black" fill="transparent"/>
</svg>