<?xml version="1.0" encoding="UTF-8" standalone="no"?>
<!--Created with ndjsontosvg (https:https://github.com/thompson318/ndjsontosvg) 
	from the simplified Google quickdraw data set. key_id = 6648705715273728-->
<svg width="600" height="600"
	xmlns="http://www.w3.org/2000/svg">
	xmlns:ndjsontosvg="https://github.com/thompson318/ndjsontosvg"
	xmlns:quickdraw="https://quickdraw.withgoogle.com/data"
	xmlns:scikit-surgery="https://doi.org/10.1007/s11548-020-02180-5">

	<rect width="100%" height="100%" fill="white" />
	<path d = "M 199.22 121.88 L 119.53 133.59 L 100.78 142.97 L 53.91 189.84 L 23.44 239.06 L 2.34 307.03 L 0.00 382.03 L 7.03 398.44 L 60.94 454.69 L 157.03 520.31 L 217.97 543.75 L 353.91 562.50 L 438.28 562.50 L 480.47 550.78 L 513.28 529.69 L 548.44 492.19 L 583.59 433.59 L 597.66 346.88 L 592.97 225.00 L 550.78 157.03 L 489.84 103.12 L 410.16 42.19 L 288.28 0.00 L 210.94 2.34 L 161.72 30.47 L 142.97 49.22" stroke="black" fill="transparent"/>
	<path d = "M 260.16 173.44 L 260.16 215.62 L 260.16 150.00 L 283.59 199.22 L 321.09 246.09 L 325.78 232.03 L 325.78 133.59" stroke="black" fill="transparent"/>
	<path d = "M 311.72 391.41 L 257.81 391.41 L 248.44 403.12 L 248.44 435.94 L 346.88 454.69 L 370.31 473.44 L 370.31 487.50 L 316.41 492.19 L 239.06 466.41" stroke="black" fill="transparent"/>
	<path d = "M 56.25 314.06 L 67.97 346.88 L 86.72 363.28 L 100.78 365.62 L 110.16 330.47 L 128.91 353.91 L 142.97 358.59 L 159.38 349.22 L 164.06 271.88" stroke="black" fill="transparent"/>
</svg>