<?xml version="1.0" encoding="UTF-8" standalone="no"?>
<!--Created with ndjsontosvg (https:https://github.com/thompson318/ndjsontosvg) 
	from the simplified Google quickdraw data set. key_id = 5262734314700800-->
<svg width="600" height="600"
	xmlns="http://www.w3.org/2000/svg">
	xmlns:ndjsontosvg="https://github.com/thompson318/ndjsontosvg"
	xmlns:quickdraw="https://quickdraw.withgoogle.com/data"
	xmlns:scikit-surgery="https://doi.org/10.1007/s11548-020-02180-5">

	<rect width="100%" height="100%" fill="white" />
	<path d = "M 335.16 0.00 L 65.62 2.34 L 23.44 91.41 L 0.00 185.16 L 2.34 417.19 L 23.44 480.47 L 46.88 501.56 L 171.09 550.78 L 229.69 564.84 L 281.25 562.50 L 438.28 510.94 L 536.72 435.94 L 557.81 398.44 L 595.31 292.97 L 597.66 196.88 L 567.19 126.56 L 532.03 84.38 L 391.41 25.78 L 311.72 9.38" stroke="black" fill="transparent"/>
	<path d = "M 159.38 30.47 L 185.16 114.84 L 206.25 124.22 L 215.62 121.88 L 241.41 84.38 L 307.03 124.22 L 318.75 98.44 L 321.09 37.50" stroke="black" fill="transparent"/>
	<path d = "M 215.62 171.09 L 215.62 285.94" stroke="black" fill="transparent"/>
	<path d = "M 220.31 159.38 L 220.31 159.38" stroke="black" fill="transparent"/>
</svg>