<?xml version="1.0" encoding="UTF-8" standalone="no"?>
<!--Created with ndjsontosvg (https:https://github.com/thompson318/ndjsontosvg) 
	from the simplified Google quickdraw data set. key_id = 6240779993350144-->
<svg width="600" height="600"
	xmlns="http://www.w3.org/2000/svg">
	xmlns:ndjsontosvg="https://github.com/thompson318/ndjsontosvg"
	xmlns:quickdraw="https://quickdraw.withgoogle.com/data"
	xmlns:scikit-surgery="https://doi.org/10.1007/s11548-020-02180-5">

	<rect width="100%" height="100%" fill="white" />
	<path d = "M 37.50 35.16 L 37.50 290.62 L 407.81 339.84 L 428.91 339.84 L 435.94 328.12 L 464.06 217.97 L 475.78 133.59 L 471.09 63.28 L 428.91 42.19 L 360.94 28.12 L 154.69 23.44 L 0.00 0.00" stroke="black" fill="transparent"/>
	<path d = "M 159.38 91.41 L 152.34 220.31 L 295.31 239.06 L 307.03 236.72 L 323.44 215.62 L 339.84 182.81 L 344.53 89.06 L 253.12 70.31 L 180.47 63.28 L 150.00 67.97" stroke="black" fill="transparent"/>
	<path d = "M 96.09 297.66 L 86.72 375.00 L 110.16 384.38 L 267.19 412.50 L 321.09 412.50 L 330.47 403.12 L 342.19 316.41" stroke="black" fill="transparent"/>
	<path d = "M 14.06 435.94 L 9.38 564.84 L 21.09 597.66 L 182.81 578.91 L 393.75 581.25 L 403.12 557.81 L 393.75 457.03 L 335.16 461.72 L 154.69 428.91 L 28.12 433.59" stroke="black" fill="transparent"/>
	<path d = "M 67.97 461.72 L 56.25 553.12" stroke="black" fill="transparent"/>
	<path d = "M 138.28 464.06 L 138.28 532.03" stroke="black" fill="transparent"/>
	<path d = "M 194.53 471.09 L 210.94 529.69" stroke="black" fill="transparent"/>
	<path d = "M 292.97 503.91 L 271.88 571.88" stroke="black" fill="transparent"/>
</svg>