<?xml version="1.0" encoding="UTF-8" standalone="no"?>
<!--Created with ndjsontosvg (https:https://github.com/thompson318/ndjsontosvg) 
	from the simplified Google quickdraw data set. key_id = 6197666574761984-->
<svg width="600" height="600"
	xmlns="http://www.w3.org/2000/svg">
	xmlns:ndjsontosvg="https://github.com/thompson318/ndjsontosvg"
	xmlns:quickdraw="https://quickdraw.withgoogle.com/data"
	xmlns:scikit-surgery="https://doi.org/10.1007/s11548-020-02180-5">

	<rect width="100%" height="100%" fill="white" />
	<path d = "M 389.06 42.19 L 321.09 14.06 L 274.22 2.34 L 182.81 0.00 L 152.34 9.38 L 84.38 46.88 L 25.78 128.91 L 16.41 154.69 L 0.00 229.69 L 2.34 304.69 L 18.75 337.50 L 77.34 407.81 L 145.31 450.00 L 210.94 475.78 L 288.28 489.84 L 414.84 492.19 L 445.31 489.84 L 487.50 473.44 L 527.34 445.31 L 569.53 393.75 L 597.66 349.22 L 595.31 316.41 L 534.38 215.62 L 435.94 128.91 L 405.47 110.16" stroke="black" fill="transparent"/>
	<path d = "M 159.38 164.06 L 180.47 164.06 L 185.16 171.09 L 171.09 175.78" stroke="black" fill="transparent"/>
	<path d = "M 377.34 262.50 L 379.69 229.69 L 398.44 236.72 L 386.72 246.09" stroke="black" fill="transparent"/>
	<path d = "M 267.19 335.16 L 288.28 337.50 L 295.31 344.53 L 276.56 346.88 L 269.53 332.81" stroke="black" fill="transparent"/>
	<path d = "M 140.62 316.41 L 159.38 318.75 L 161.72 328.12 L 150.00 335.16 L 135.94 323.44 L 126.56 304.69 L 131.25 302.34" stroke="black" fill="transparent"/>
	<path d = "M 386.72 400.78 L 382.03 379.69 L 389.06 370.31 L 400.78 370.31 L 412.50 386.72 L 398.44 393.75 L 379.69 377.34" stroke="black" fill="transparent"/>
	<path d = "M 318.75 138.28 L 302.34 128.91 L 311.72 121.88 L 323.44 128.91 L 328.12 150.00 L 316.41 152.34 L 290.62 126.56" stroke="black" fill="transparent"/>
	<path d = "M 140.62 53.91 L 175.78 58.59 L 189.84 77.34 L 178.12 82.03 L 166.41 67.97 L 164.06 49.22" stroke="black" fill="transparent"/>
</svg>