<?xml version="1.0" encoding="UTF-8" standalone="no"?>
<!--Created with ndjsontosvg (https:https://github.com/thompson318/ndjsontosvg) 
	from the simplified Google quickdraw data set. key_id = 5054517437530112-->
<svg width="600" height="600"
	xmlns="http://www.w3.org/2000/svg">
	xmlns:ndjsontosvg="https://github.com/thompson318/ndjsontosvg"
	xmlns:quickdraw="https://quickdraw.withgoogle.com/data"
	xmlns:scikit-surgery="https://doi.org/10.1007/s11548-020-02180-5">

	<rect width="100%" height="100%" fill="white" />
	<path d = "M 492.19 86.72 L 442.97 42.19 L 400.78 18.75 L 302.34 0.00 L 243.75 0.00 L 185.16 11.72 L 84.38 56.25 L 49.22 86.72 L 7.03 168.75 L 0.00 217.97 L 4.69 316.41 L 23.44 367.97 L 72.66 450.00 L 147.66 522.66 L 189.84 555.47 L 278.91 588.28 L 328.12 597.66 L 417.19 597.66 L 487.50 571.88 L 543.75 525.00 L 564.84 492.19 L 585.94 417.19 L 585.94 346.88 L 532.03 225.00 L 468.75 142.97 L 382.03 72.66" stroke="black" fill="transparent"/>
	<path d = "M 292.97 56.25 L 316.41 44.53 L 346.88 42.19 L 365.62 60.94 L 375.00 86.72 L 375.00 145.31 L 351.56 164.06 L 330.47 159.38 L 307.03 126.56 L 307.03 82.03 L 323.44 58.59 L 342.19 56.25 L 351.56 75.00 L 353.91 128.91 L 346.88 145.31 L 321.09 147.66 L 297.66 103.12 L 295.31 63.28 L 302.34 53.91 L 314.06 70.31 L 332.81 131.25 L 325.78 75.00 L 346.88 96.09" stroke="black" fill="transparent"/>
	<path d = "M 499.22 351.56 L 499.22 297.66 L 475.78 274.22 L 424.22 276.56 L 410.16 302.34 L 407.81 353.91 L 440.62 391.41 L 485.16 384.38 L 501.56 335.16 L 499.22 314.06 L 482.81 292.97 L 471.09 285.94 L 457.03 290.62 L 457.03 339.84 L 473.44 363.28 L 492.19 360.94 L 496.88 321.09 L 475.78 295.31 L 466.41 290.62 L 461.72 311.72 L 466.41 365.62 L 461.72 328.12 L 447.66 304.69 L 438.28 304.69 L 438.28 337.50" stroke="black" fill="transparent"/>
	<path d = "M 222.66 464.06 L 248.44 435.94 L 255.47 379.69 L 248.44 365.62 L 227.34 363.28 L 215.62 386.72 L 220.31 421.88 L 229.69 431.25 L 246.09 435.94 L 253.12 419.53 L 246.09 393.75 L 222.66 384.38 L 208.59 386.72 L 201.56 400.78 L 201.56 440.62 L 220.31 452.34 L 239.06 445.31 L 255.47 384.38 L 250.78 363.28 L 239.06 353.91 L 203.91 365.62 L 196.88 382.03 L 196.88 433.59 L 217.97 454.69 L 232.03 452.34 L 241.41 407.81 L 229.69 391.41 L 213.28 391.41 L 194.53 412.50 L 192.19 450.00 L 206.25 461.72" stroke="black" fill="transparent"/>
	<path d = "M 67.97 281.25 L 89.06 264.84 L 112.50 227.34 L 135.94 171.09 L 140.62 128.91 L 114.84 124.22 L 79.69 175.78 L 75.00 220.31 L 82.03 241.41 L 98.44 255.47 L 114.84 253.12 L 128.91 227.34 L 126.56 175.78 L 96.09 152.34 L 60.94 157.03 L 53.91 185.16 L 63.28 208.59 L 86.72 225.00 L 100.78 225.00 L 114.84 213.28 L 119.53 178.12 L 91.41 154.69" stroke="black" fill="transparent"/>
</svg>