<?xml version="1.0" encoding="UTF-8" standalone="no"?>
<!--Created with ndjsontosvg (https:https://github.com/thompson318/ndjsontosvg) 
	from the simplified Google quickdraw data set. key_id = 5458205356326912-->
<svg width="600" height="600"
	xmlns="http://www.w3.org/2000/svg">
	xmlns:ndjsontosvg="https://github.com/thompson318/ndjsontosvg"
	xmlns:quickdraw="https://quickdraw.withgoogle.com/data"
	xmlns:scikit-surgery="https://doi.org/10.1007/s11548-020-02180-5">

	<rect width="100%" height="100%" fill="white" />
	<path d = "M 513.28 4.69 L 358.59 0.00 L 269.53 14.06 L 133.59 77.34 L 65.62 131.25 L 39.84 161.72 L 23.44 192.19 L 4.69 253.12 L 2.34 339.84 L 42.19 407.81 L 86.72 447.66 L 110.16 461.72 L 180.47 475.78 L 288.28 468.75 L 363.28 445.31 L 459.38 403.12 L 522.66 356.25 L 574.22 292.97 L 595.31 239.06 L 592.97 166.41 L 567.19 107.81 L 496.88 4.69" stroke="black" fill="transparent"/>
	<path d = "M 178.12 150.00 L 203.91 154.69 L 189.84 159.38 L 180.47 159.38 L 201.56 150.00 L 222.66 150.00" stroke="black" fill="transparent"/>
	<path d = "M 396.09 89.06 L 410.16 79.69 L 414.84 98.44 L 414.84 112.50 L 398.44 121.88 L 396.09 110.16 L 454.69 96.09 L 412.50 91.41" stroke="black" fill="transparent"/>
	<path d = "M 147.66 494.53 L 142.97 480.47 L 157.03 478.12 L 185.16 480.47 L 189.84 494.53 L 164.06 510.94 L 117.19 513.28 L 103.12 506.25 L 107.81 494.53 L 135.94 485.16 L 159.38 485.16 L 150.00 492.19 L 147.66 482.81" stroke="black" fill="transparent"/>
	<path d = "M 307.03 304.69 L 325.78 271.88 L 370.31 255.47 L 358.59 255.47 L 353.91 243.75 L 382.03 241.41 L 372.66 248.44 L 370.31 236.72 L 405.47 232.03" stroke="black" fill="transparent"/>
	<path d = "M 103.12 276.56 L 98.44 260.16 L 107.81 250.78 L 150.00 250.78 L 173.44 271.88 L 161.72 274.22 L 154.69 243.75 L 192.19 234.38 L 196.88 246.09" stroke="black" fill="transparent"/>
</svg>