<?xml version="1.0" encoding="UTF-8" standalone="no"?>
<!--Created with ndjsontosvg (https:https://github.com/thompson318/ndjsontosvg) 
	from the simplified Google quickdraw data set. key_id = 5308394917330944-->
<svg width="600" height="600"
	xmlns="http://www.w3.org/2000/svg">
	xmlns:ndjsontosvg="https://github.com/thompson318/ndjsontosvg"
	xmlns:quickdraw="https://quickdraw.withgoogle.com/data"
	xmlns:scikit-surgery="https://doi.org/10.1007/s11548-020-02180-5">

	<rect width="100%" height="100%" fill="white" />
	<path d = "M 398.44 28.12 L 351.56 14.06 L 271.88 14.06 L 147.66 63.28 L 14.06 243.75 L 0.00 276.56 L 0.00 356.25 L 18.75 412.50 L 67.97 475.78 L 121.88 532.03 L 182.81 560.16 L 330.47 576.56 L 367.97 569.53 L 424.22 548.44 L 492.19 510.94 L 571.88 403.12 L 597.66 304.69 L 546.09 131.25 L 457.03 9.38 L 438.28 0.00 L 405.47 0.00 L 370.31 14.06" stroke="black" fill="transparent"/>
	<path d = "M 260.16 72.66 L 274.22 140.62 L 274.22 192.19" stroke="black" fill="transparent"/>
	<path d = "M 210.94 255.47 L 220.31 332.81 L 210.94 363.28" stroke="black" fill="transparent"/>
	<path d = "M 208.59 367.97 L 217.97 382.03 L 250.78 393.75 L 304.69 393.75" stroke="black" fill="transparent"/>
	<path d = "M 414.84 382.03 L 414.84 382.03" stroke="black" fill="transparent"/>
	<path d = "M 412.50 321.09 L 384.38 271.88" stroke="black" fill="transparent"/>
	<path d = "M 360.94 201.56 L 360.94 201.56" stroke="black" fill="transparent"/>
	<path d = "M 351.56 353.91 L 365.62 351.56" stroke="black" fill="transparent"/>
	<path d = "M 473.44 142.97 L 473.44 145.31" stroke="black" fill="transparent"/>
	<path d = "M 503.91 346.88 L 503.91 372.66" stroke="black" fill="transparent"/>
	<path d = "M 480.47 417.19 L 464.06 433.59" stroke="black" fill="transparent"/>
	<path d = "M 421.88 450.00 L 419.53 452.34" stroke="black" fill="transparent"/>
	<path d = "M 316.41 489.84 L 316.41 489.84" stroke="black" fill="transparent"/>
	<path d = "M 147.66 417.19 L 147.66 417.19" stroke="black" fill="transparent"/>
	<path d = "M 37.50 206.25 L 37.50 203.91" stroke="black" fill="transparent"/>
	<path d = "M 203.91 157.03 L 220.31 157.03" stroke="black" fill="transparent"/>
</svg>