<?xml version="1.0" encoding="UTF-8" standalone="no"?>
<!--Created with ndjsontosvg (https:https://github.com/thompson318/ndjsontosvg) 
	from the simplified Google quickdraw data set. key_id = 6172803608870912-->
<svg width="600" height="600"
	xmlns="http://www.w3.org/2000/svg">
	xmlns:ndjsontosvg="https://github.com/thompson318/ndjsontosvg"
	xmlns:quickdraw="https://quickdraw.withgoogle.com/data"
	xmlns:scikit-surgery="https://doi.org/10.1007/s11548-020-02180-5">

	<rect width="100%" height="100%" fill="white" />
	<path d = "M 353.91 0.00 L 325.78 2.34 L 206.25 35.16 L 32.81 105.47 L 21.09 112.50 L 0.00 152.34 L 0.00 201.56 L 4.69 210.94 L 28.12 222.66 L 96.09 239.06 L 363.28 246.09 L 431.25 234.38 L 590.62 182.81 L 597.66 131.25 L 567.19 103.12 L 492.19 75.00 L 398.44 63.28 L 145.31 63.28 L 67.97 79.69" stroke="black" fill="transparent"/>
	<path d = "M 107.81 138.28 L 98.44 135.94" stroke="black" fill="transparent"/>
	<path d = "M 210.94 89.06 L 208.59 100.78" stroke="black" fill="transparent"/>
	<path d = "M 208.59 98.44 L 220.31 103.12" stroke="black" fill="transparent"/>
	<path d = "M 248.44 161.72 L 271.88 164.06" stroke="black" fill="transparent"/>
	<path d = "M 239.06 159.38 L 236.72 164.06" stroke="black" fill="transparent"/>
	<path d = "M 321.09 105.47 L 323.44 105.47" stroke="black" fill="transparent"/>
	<path d = "M 323.44 103.12 L 316.41 103.12" stroke="black" fill="transparent"/>
	<path d = "M 386.72 107.81 L 421.88 107.81" stroke="black" fill="transparent"/>
	<path d = "M 414.84 105.47 L 412.50 105.47" stroke="black" fill="transparent"/>
	<path d = "M 412.50 103.12 L 412.50 103.12" stroke="black" fill="transparent"/>
	<path d = "M 407.81 140.62 L 403.12 150.00 L 407.81 154.69" stroke="black" fill="transparent"/>
	<path d = "M 365.62 147.66 L 375.00 164.06 L 393.75 166.41" stroke="black" fill="transparent"/>
	<path d = "M 527.34 117.19 L 527.34 117.19" stroke="black" fill="transparent"/>
	<path d = "M 527.34 117.19 L 522.66 128.91 L 546.09 131.25 L 548.44 112.50 L 543.75 112.50" stroke="black" fill="transparent"/>
	<path d = "M 323.44 215.62 L 323.44 215.62" stroke="black" fill="transparent"/>
	<path d = "M 323.44 215.62 L 332.81 215.62 L 332.81 206.25 L 314.06 206.25" stroke="black" fill="transparent"/>
</svg>