<?xml version="1.0" encoding="UTF-8" standalone="no"?>
<!--Created with ndjsontosvg (https:https://github.com/thompson318/ndjsontosvg) 
	from the simplified Google quickdraw data set. key_id = 6440785828380672-->
<svg width="600" height="600"
	xmlns="http://www.w3.org/2000/svg">
	xmlns:ndjsontosvg="https://github.com/thompson318/ndjsontosvg"
	xmlns:quickdraw="https://quickdraw.withgoogle.com/data"
	xmlns:scikit-surgery="https://doi.org/10.1007/s11548-020-02180-5">

	<rect width="100%" height="100%" fill="white" />
	<path d = "M 278.91 196.88 L 217.97 199.22 L 159.38 239.06 L 121.88 288.28 L 105.47 370.31 L 107.81 405.47 L 124.22 442.97 L 164.06 494.53 L 185.16 506.25 L 206.25 513.28 L 250.78 510.94 L 323.44 464.06 L 358.59 426.56 L 377.34 393.75 L 382.03 330.47 L 358.59 271.88 L 337.50 243.75 L 311.72 217.97 L 278.91 203.91" stroke="black" fill="transparent"/>
	<path d = "M 227.34 203.91 L 236.72 536.72" stroke="black" fill="transparent"/>
	<path d = "M 276.56 253.12 L 300.00 468.75" stroke="black" fill="transparent"/>
	<path d = "M 314.06 227.34 L 316.41 480.47" stroke="black" fill="transparent"/>
	<path d = "M 114.84 276.56 L 304.69 278.91 L 346.88 288.28 L 363.28 300.00" stroke="black" fill="transparent"/>
	<path d = "M 117.19 335.16 L 358.59 328.12" stroke="black" fill="transparent"/>
	<path d = "M 124.22 363.28 L 363.28 363.28" stroke="black" fill="transparent"/>
	<path d = "M 124.22 419.53 L 311.72 424.22" stroke="black" fill="transparent"/>
	<path d = "M 171.09 217.97 L 166.41 243.75 L 168.75 452.34" stroke="black" fill="transparent"/>
	<path d = "M 0.00 576.56 L 89.06 595.31 L 466.41 588.28 L 513.28 597.66 L 522.66 335.16 L 515.62 53.91 L 503.91 2.34 L 321.09 28.12 L 9.38 28.12 L 2.34 56.25 L 2.34 114.84 L 11.72 250.78 L 14.06 571.88" stroke="black" fill="transparent"/>
</svg>