<?xml version="1.0" encoding="UTF-8" standalone="no"?>
<!--Created with ndjsontosvg (https:https://github.com/thompson318/ndjsontosvg) 
	from the simplified Google quickdraw data set. key_id = 6299897378635776-->
<svg width="600" height="600"
	xmlns="http://www.w3.org/2000/svg">
	xmlns:ndjsontosvg="https://github.com/thompson318/ndjsontosvg"
	xmlns:quickdraw="https://quickdraw.withgoogle.com/data"
	xmlns:scikit-surgery="https://doi.org/10.1007/s11548-020-02180-5">

	<rect width="100%" height="100%" fill="white" />
	<path d = "M 375.00 18.75 L 351.56 7.03 L 98.44 7.03 L 0.00 18.75 L 25.78 257.81 L 25.78 452.34 L 46.88 466.41 L 121.88 457.03 L 325.78 457.03 L 590.62 438.28 L 597.66 360.94 L 583.59 215.62 L 583.59 89.06 L 592.97 28.12 L 569.53 9.38 L 536.72 4.69 L 414.84 0.00" stroke="black" fill="transparent"/>
	<path d = "M 264.84 25.78 L 257.81 173.44 L 257.81 508.59" stroke="black" fill="transparent"/>
	<path d = "M 276.56 213.28 L 316.41 208.59 L 351.56 222.66 L 367.97 241.41 L 375.00 276.56 L 370.31 297.66 L 353.91 311.72 L 330.47 318.75 L 262.50 318.75" stroke="black" fill="transparent"/>
	<path d = "M 56.25 271.88 L 103.12 257.81 L 196.88 257.81 L 215.62 269.53 L 227.34 285.94 L 225.00 325.78 L 187.50 363.28 L 58.59 370.31 L 32.81 339.84 L 32.81 257.81 L 56.25 220.31" stroke="black" fill="transparent"/>
	<path d = "M 84.38 314.06 L 84.38 314.06" stroke="black" fill="transparent"/>
</svg>