<?xml version="1.0" encoding="UTF-8" standalone="no"?>
<!--Created with ndjsontosvg (https:https://github.com/thompson318/ndjsontosvg) 
	from the simplified Google quickdraw data set. key_id = 6461811505233920-->
<svg width="600" height="600"
	xmlns="http://www.w3.org/2000/svg">
	xmlns:ndjsontosvg="https://github.com/thompson318/ndjsontosvg"
	xmlns:quickdraw="https://quickdraw.withgoogle.com/data"
	xmlns:scikit-surgery="https://doi.org/10.1007/s11548-020-02180-5">

	<rect width="100%" height="100%" fill="white" />
	<path d = "M 21.09 475.78 L 11.72 461.72 L 9.38 403.12 L 16.41 328.12 L 32.81 292.97 L 67.97 255.47 L 79.69 253.12 L 96.09 271.88 L 152.34 417.19 L 323.44 421.88 L 480.47 398.44 L 473.44 330.47 L 485.16 295.31 L 496.88 290.62 L 548.44 351.56 L 567.19 400.78 L 541.41 473.44 L 506.25 520.31 L 480.47 536.72 L 382.03 527.34 L 147.66 478.12 L 44.53 489.84" stroke="black" fill="transparent"/>
	<path d = "M 30.47 485.16 L 25.78 560.16 L 0.00 571.88" stroke="black" fill="transparent"/>
	<path d = "M 466.41 539.06 L 471.09 590.62 L 492.19 595.31" stroke="black" fill="transparent"/>
	<path d = "M 133.59 307.03 L 105.47 255.47 L 103.12 222.66 L 133.59 117.19 L 161.72 65.62 L 192.19 39.84 L 260.16 11.72 L 335.16 0.00 L 382.03 7.03 L 405.47 18.75 L 417.19 35.16 L 431.25 98.44 L 421.88 398.44" stroke="black" fill="transparent"/>
	<path d = "M 222.66 215.62 L 217.97 210.94" stroke="black" fill="transparent"/>
	<path d = "M 311.72 124.22 L 309.38 124.22" stroke="black" fill="transparent"/>
	<path d = "M 321.09 236.72 L 307.03 257.81" stroke="black" fill="transparent"/>
	<path d = "M 213.28 335.16 L 161.72 346.88" stroke="black" fill="transparent"/>
	<path d = "M 140.62 246.09 L 140.62 241.41" stroke="black" fill="transparent"/>
</svg>