<?xml version="1.0" encoding="UTF-8" standalone="no"?>
<!--Created with ndjsontosvg (https:https://github.com/thompson318/ndjsontosvg) 
	from the simplified Google quickdraw data set. key_id = 4779246960508928-->
<svg width="600" height="600"
	xmlns="http://www.w3.org/2000/svg">
	xmlns:ndjsontosvg="https://github.com/thompson318/ndjsontosvg"
	xmlns:quickdraw="https://quickdraw.withgoogle.com/data"
	xmlns:scikit-surgery="https://doi.org/10.1007/s11548-020-02180-5">

	<rect width="100%" height="100%" fill="white" />
	<path d = "M 25.78 114.84 L 2.34 215.62 L 2.34 300.00 L 35.16 297.66 L 53.91 208.59 L 53.91 126.56" stroke="black" fill="transparent"/>
	<path d = "M 53.91 213.28 L 517.97 206.25 L 532.03 196.88 L 541.41 117.19 L 546.09 234.38 L 557.81 278.91 L 571.88 278.91 L 597.66 264.84 L 595.31 145.31 L 576.56 93.75 L 527.34 103.12" stroke="black" fill="transparent"/>
	<path d = "M 532.03 100.78 L 529.69 51.56 L 513.28 0.00 L 262.50 16.41 L 100.78 2.34 L 44.53 7.03 L 46.88 121.88" stroke="black" fill="transparent"/>
	<path d = "M 51.56 114.84 L 281.25 93.75 L 466.41 84.38 L 508.59 89.06" stroke="black" fill="transparent"/>
</svg>