<?xml version="1.0" encoding="UTF-8" standalone="no"?>
<!--Created with ndjsontosvg (https:https://github.com/thompson318/ndjsontosvg) 
	from the simplified Google quickdraw data set. key_id = 5390795660066816-->
<svg width="600" height="600"
	xmlns="http://www.w3.org/2000/svg">
	xmlns:ndjsontosvg="https://github.com/thompson318/ndjsontosvg"
	xmlns:quickdraw="https://quickdraw.withgoogle.com/data"
	xmlns:scikit-surgery="https://doi.org/10.1007/s11548-020-02180-5">

	<rect width="100%" height="100%" fill="white" />
	<path d = "M 77.34 131.25 L 135.94 150.00 L 236.72 161.72 L 379.69 161.72 L 459.38 150.00 L 508.59 117.19 L 525.00 89.06 L 522.66 72.66 L 508.59 46.88 L 485.16 18.75 L 461.72 4.69 L 421.88 0.00 L 375.00 4.69 L 250.78 39.84 L 187.50 72.66 L 128.91 135.94 L 79.69 131.25" stroke="black" fill="transparent"/>
	<path d = "M 82.03 128.91 L 98.44 206.25 L 192.19 210.94 L 358.59 236.72 L 489.84 241.41 L 543.75 227.34 L 569.53 201.56 L 567.19 173.44 L 553.12 145.31 L 513.28 126.56" stroke="black" fill="transparent"/>
	<path d = "M 60.94 239.06 L 157.03 239.06 L 189.84 222.66 L 180.47 161.72 L 152.34 119.53 L 112.50 124.22 L 32.81 152.34 L 7.03 173.44 L 0.00 192.19 L 9.38 213.28 L 32.81 229.69 L 145.31 264.84" stroke="black" fill="transparent"/>
	<path d = "M 384.38 278.91 L 517.97 281.25 L 595.31 264.84 L 588.28 194.53 L 555.47 124.22 L 541.41 112.50 L 522.66 119.53 L 485.16 161.72 L 459.38 206.25 L 435.94 290.62 L 438.28 351.56" stroke="black" fill="transparent"/>
	<path d = "M 196.88 84.38 L 199.22 84.38" stroke="black" fill="transparent"/>
	<path d = "M 241.41 75.00 L 246.09 75.00" stroke="black" fill="transparent"/>
	<path d = "M 358.59 63.28 L 358.59 63.28" stroke="black" fill="transparent"/>
	<path d = "M 414.84 49.22 L 414.84 49.22" stroke="black" fill="transparent"/>
	<path d = "M 424.22 51.56 L 424.22 65.62" stroke="black" fill="transparent"/>
	<path d = "M 426.56 84.38 L 419.53 86.72" stroke="black" fill="transparent"/>
	<path d = "M 403.12 105.47 L 314.06 103.12" stroke="black" fill="transparent"/>
</svg>