<?xml version="1.0" encoding="UTF-8" standalone="no"?>
<!--Created with ndjsontosvg (https:https://github.com/thompson318/ndjsontosvg) 
	from the simplified Google quickdraw data set. key_id = 6749553711644672-->
<svg width="600" height="600"
	xmlns="http://www.w3.org/2000/svg">
	xmlns:ndjsontosvg="https://github.com/thompson318/ndjsontosvg"
	xmlns:quickdraw="https://quickdraw.withgoogle.com/data"
	xmlns:scikit-surgery="https://doi.org/10.1007/s11548-020-02180-5">

	<rect width="100%" height="100%" fill="white" />
	<path d = "M 178.12 248.44 L 161.72 222.66 L 173.44 213.28 L 344.53 187.50 L 501.56 175.78 L 513.28 182.81 L 522.66 217.97 L 508.59 353.91 L 501.56 375.00 L 459.38 389.06 L 325.78 393.75 L 152.34 379.69" stroke="black" fill="transparent"/>
	<path d = "M 91.41 131.25 L 60.94 138.28 L 32.81 154.69" stroke="black" fill="transparent"/>
	<path d = "M 32.81 154.69 L 9.38 178.12" stroke="black" fill="transparent"/>
	<path d = "M 56.25 175.78 L 32.81 206.25 L 23.44 239.06 L 21.09 271.88 L 35.16 318.75 L 79.69 349.22 L 112.50 349.22 L 145.31 335.16 L 173.44 307.03 L 201.56 260.16 L 217.97 208.59 L 222.66 164.06 L 220.31 138.28 L 206.25 117.19 L 180.47 103.12 L 145.31 96.09 L 67.97 117.19 L 14.06 164.06 L 9.38 178.12 L 21.09 203.91" stroke="black" fill="transparent"/>
	<path d = "M 180.47 119.53 L 173.44 75.00 L 180.47 39.84 L 196.88 14.06 L 229.69 0.00 L 239.06 9.38 L 241.41 49.22 L 215.62 126.56" stroke="black" fill="transparent"/>
	<path d = "M 63.28 119.53 L 93.75 37.50 L 96.09 7.03 L 86.72 0.00 L 49.22 23.44 L 9.38 82.03 L 0.00 110.16 L 2.34 135.94 L 18.75 159.38" stroke="black" fill="transparent"/>
	<path d = "M 541.41 217.97 L 562.50 227.34 L 567.19 246.09 L 532.03 335.16 L 529.69 358.59 L 553.12 386.72 L 597.66 407.81 L 571.88 440.62 L 571.88 450.00" stroke="black" fill="transparent"/>
	<path d = "M 419.53 379.69 L 421.88 457.03 L 435.94 539.06 L 445.31 567.19 L 461.72 578.91 L 475.78 567.19 L 489.84 527.34 L 503.91 353.91" stroke="black" fill="transparent"/>
	<path d = "M 314.06 363.28 L 307.03 543.75 L 325.78 529.69 L 382.03 457.03 L 405.47 405.47 L 405.47 391.41" stroke="black" fill="transparent"/>
	<path d = "M 168.75 358.59 L 150.00 522.66 L 157.03 543.75 L 175.78 550.78 L 227.34 553.12 L 262.50 543.75 L 257.81 447.66 L 262.50 379.69" stroke="black" fill="transparent"/>
	<path d = "M 110.16 356.25 L 86.72 520.31 L 121.88 539.06 L 157.03 543.75 L 150.00 466.41" stroke="black" fill="transparent"/>
	<path d = "M 302.34 220.31 L 339.84 241.41 L 391.41 236.72 L 403.12 241.41 L 459.38 281.25 L 503.91 269.53 L 525.00 241.41" stroke="black" fill="transparent"/>
	<path d = "M 185.16 363.28 L 232.03 332.81 L 281.25 323.44 L 325.78 335.16 L 393.75 382.03" stroke="black" fill="transparent"/>
</svg>