<?xml version="1.0" encoding="UTF-8" standalone="no"?>
<!--Created with ndjsontosvg (https:https://github.com/thompson318/ndjsontosvg) 
	from the simplified Google quickdraw data set. key_id = 6114106048249856-->
<svg width="600" height="600"
	xmlns="http://www.w3.org/2000/svg">
	xmlns:ndjsontosvg="https://github.com/thompson318/ndjsontosvg"
	xmlns:quickdraw="https://quickdraw.withgoogle.com/data"
	xmlns:scikit-surgery="https://doi.org/10.1007/s11548-020-02180-5">

	<rect width="100%" height="100%" fill="white" />
	<path d = "M 110.16 44.53 L 72.66 70.31 L 0.00 145.31 L 7.03 157.03 L 79.69 180.47 L 107.81 126.56" stroke="black" fill="transparent"/>
	<path d = "M 110.16 35.16 L 121.88 2.34 L 171.09 0.00 L 178.12 32.81 L 161.72 49.22 L 208.59 60.94 L 410.16 60.94 L 513.28 49.22 L 592.97 49.22 L 597.66 250.78 L 588.28 349.22 L 578.91 351.56 L 536.72 239.06 L 534.38 166.41 L 506.25 356.25 L 454.69 225.00 L 447.66 173.44 L 250.78 182.81 L 243.75 192.19 L 243.75 292.97 L 236.72 339.84 L 215.62 217.97 L 164.06 335.16 L 150.00 309.38 L 138.28 262.50 L 133.59 142.97 L 128.91 133.59 L 110.16 131.25" stroke="black" fill="transparent"/>
	<path d = "M 96.09 67.97 L 93.75 86.72" stroke="black" fill="transparent"/>
	<path d = "M 225.00 82.03 L 215.62 93.75 L 206.25 142.97 L 215.62 145.31 L 239.06 119.53 L 243.75 105.47 L 232.03 98.44 L 222.66 105.47 L 220.31 128.91 L 229.69 91.41" stroke="black" fill="transparent"/>
	<path d = "M 332.81 89.06 L 325.78 93.75 L 325.78 114.84 L 339.84 117.19 L 353.91 117.19 L 396.09 86.72 L 386.72 93.75 L 398.44 96.09" stroke="black" fill="transparent"/>
	<path d = "M 517.97 100.78 L 475.78 114.84 L 452.34 135.94 L 461.72 142.97 L 501.56 140.62 L 539.06 107.81 L 536.72 100.78 L 527.34 98.44 L 517.97 103.12 L 513.28 114.84" stroke="black" fill="transparent"/>
	<path d = "M 396.09 152.34 L 360.94 154.69 L 353.91 161.72 L 360.94 171.09 L 382.03 173.44 L 391.41 166.41 L 393.75 147.66 L 377.34 145.31 L 367.97 164.06 L 372.66 147.66" stroke="black" fill="transparent"/>
	<path d = "M 135.94 89.06 L 126.56 93.75 L 147.66 103.12 L 164.06 82.03" stroke="black" fill="transparent"/>
	<path d = "M 150.00 67.97 L 135.94 70.31 L 119.53 91.41" stroke="black" fill="transparent"/>
	<path d = "M 278.91 175.78 L 288.28 217.97 L 309.38 229.69 L 349.22 236.72 L 375.00 227.34 L 391.41 189.84" stroke="black" fill="transparent"/>
	<path d = "M 332.81 236.72 L 321.09 255.47" stroke="black" fill="transparent"/>
</svg>