<?xml version="1.0" encoding="UTF-8" standalone="no"?>
<!--Created with ndjsontosvg (https:https://github.com/thompson318/ndjsontosvg) 
	from the simplified Google quickdraw data set. key_id = 6500462545076224-->
<svg width="600" height="600"
	xmlns="http://www.w3.org/2000/svg">
	xmlns:ndjsontosvg="https://github.com/thompson318/ndjsontosvg"
	xmlns:quickdraw="https://quickdraw.withgoogle.com/data"
	xmlns:scikit-surgery="https://doi.org/10.1007/s11548-020-02180-5">

	<rect width="100%" height="100%" fill="white" />
	<path d = "M 257.81 189.84 L 182.81 182.81 L 114.84 225.00 L 65.62 285.94 L 46.88 318.75 L 35.16 363.28 L 0.00 419.53" stroke="black" fill="transparent"/>
	<path d = "M 35.16 382.03 L 16.41 419.53 L 2.34 482.81" stroke="black" fill="transparent"/>
	<path d = "M 23.44 414.84 L 30.47 461.72" stroke="black" fill="transparent"/>
	<path d = "M 39.84 419.53 L 39.84 419.53" stroke="black" fill="transparent"/>
	<path d = "M 121.88 255.47 L 100.78 318.75 L 98.44 351.56 L 124.22 391.41 L 147.66 403.12 L 164.06 445.31 L 166.41 564.84 L 196.88 567.19 L 217.97 546.09 L 232.03 417.19 L 243.75 396.09 L 253.12 391.41 L 269.53 393.75 L 285.94 419.53 L 281.25 513.28 L 283.59 532.03 L 290.62 543.75 L 307.03 517.97 L 323.44 412.50 L 346.88 393.75 L 358.59 419.53 L 360.94 508.59 L 370.31 532.03 L 379.69 541.41 L 393.75 527.34 L 417.19 445.31 L 438.28 417.19 L 447.66 431.25 L 459.38 506.25 L 478.12 525.00 L 492.19 510.94 L 508.59 405.47 L 471.09 314.06 L 468.75 262.50 L 485.16 246.09 L 578.91 217.97 L 597.66 185.16 L 592.97 150.00 L 581.25 133.59 L 546.09 117.19 L 501.56 121.88 L 480.47 77.34 L 480.47 44.53 L 513.28 0.00 L 473.44 23.44 L 440.62 58.59 L 421.88 103.12 L 426.56 128.91 L 276.56 192.19" stroke="black" fill="transparent"/>
	<path d = "M 546.09 105.47 L 555.47 72.66 L 571.88 103.12" stroke="black" fill="transparent"/>
	<path d = "M 187.50 227.34 L 201.56 276.56 L 222.66 302.34 L 246.09 295.31 L 257.81 281.25 L 276.56 225.00" stroke="black" fill="transparent"/>
	<path d = "M 337.50 196.88 L 342.19 232.03 L 358.59 248.44 L 379.69 241.41 L 393.75 220.31 L 407.81 166.41" stroke="black" fill="transparent"/>
	<path d = "M 246.09 213.28 L 217.97 239.06 L 236.72 213.28 L 222.66 260.16 L 276.56 210.94 L 241.41 288.28 L 283.59 232.03 L 255.47 274.22 L 283.59 215.62 L 260.16 274.22 L 269.53 225.00 L 246.09 274.22 L 234.38 281.25 L 217.97 234.38 L 220.31 196.88 L 227.34 185.16 L 269.53 173.44 L 285.94 208.59 L 281.25 246.09 L 269.53 257.81 L 248.44 262.50" stroke="black" fill="transparent"/>
	<path d = "M 358.59 222.66 L 377.34 157.03 L 391.41 157.03 L 407.81 189.84 L 398.44 217.97 L 384.38 225.00 L 379.69 210.94 L 391.41 180.47 L 405.47 164.06 L 417.19 175.78 L 398.44 229.69 L 386.72 234.38 L 358.59 206.25 L 358.59 173.44 L 393.75 150.00 L 424.22 154.69 L 424.22 213.28 L 405.47 232.03 L 391.41 229.69" stroke="black" fill="transparent"/>
</svg>