<?xml version="1.0" encoding="UTF-8" standalone="no"?>
<!--Created with ndjsontosvg (https:https://github.com/thompson318/ndjsontosvg) 
	from the simplified Google quickdraw data set. key_id = 5583167933120512-->
<svg width="600" height="600"
	xmlns="http://www.w3.org/2000/svg">
	xmlns:ndjsontosvg="https://github.com/thompson318/ndjsontosvg"
	xmlns:quickdraw="https://quickdraw.withgoogle.com/data"
	xmlns:scikit-surgery="https://doi.org/10.1007/s11548-020-02180-5">

	<rect width="100%" height="100%" fill="white" />
	<path d = "M 161.72 105.47 L 152.34 145.31 L 103.12 246.09 L 98.44 278.91 L 112.50 292.97 L 175.78 300.00 L 346.88 292.97 L 445.31 274.22 L 494.53 239.06 L 532.03 199.22 L 548.44 157.03 L 539.06 128.91 L 513.28 112.50 L 464.06 103.12 L 164.06 77.34 L 79.69 79.69 L 4.69 103.12" stroke="black" fill="transparent"/>
	<path d = "M 199.22 82.03 L 145.31 217.97 L 142.97 236.72 L 180.47 196.88 L 225.00 100.78 L 185.16 194.53 L 175.78 250.78 L 229.69 138.28 L 213.28 203.91 L 241.41 180.47 L 246.09 206.25 L 283.59 178.12 L 330.47 114.84" stroke="black" fill="transparent"/>
	<path d = "M 391.41 161.72 L 386.72 220.31 L 405.47 203.91 L 410.16 210.94 L 400.78 232.03 L 386.72 243.75 L 417.19 215.62 L 461.72 189.84 L 407.81 236.72 L 478.12 194.53 L 433.59 276.56 L 440.62 285.94 L 457.03 267.19 L 459.38 257.81 L 450.00 248.44" stroke="black" fill="transparent"/>
	<path d = "M 321.09 250.78 L 257.81 297.66 L 325.78 229.69 L 271.88 264.84" stroke="black" fill="transparent"/>
	<path d = "M 46.88 89.06 L 21.09 93.75 L 2.34 107.81 L 2.34 133.59 L 14.06 147.66 L 56.25 166.41 L 96.09 173.44 L 173.44 173.44" stroke="black" fill="transparent"/>
	<path d = "M 98.44 112.50 L 86.72 133.59 L 98.44 117.19 L 96.09 128.91 L 105.47 107.81 L 86.72 140.62" stroke="black" fill="transparent"/>
	<path d = "M 208.59 297.66 L 150.00 360.94 L 107.81 419.53" stroke="black" fill="transparent"/>
	<path d = "M 311.72 309.38 L 314.06 358.59 L 342.19 414.84" stroke="black" fill="transparent"/>
	<path d = "M 396.09 285.94 L 438.28 405.47" stroke="black" fill="transparent"/>
	<path d = "M 246.09 325.78 L 236.72 379.69" stroke="black" fill="transparent"/>
	<path d = "M 550.78 192.19 L 585.94 154.69 L 595.31 128.91 L 590.62 93.75 L 555.47 53.91 L 569.53 30.47" stroke="black" fill="transparent"/>
	<path d = "M 569.53 25.78 L 567.19 14.06 L 562.50 35.16 L 576.56 25.78 L 574.22 35.16 L 585.94 4.69 L 571.88 14.06 L 578.91 4.69 L 576.56 16.41 L 583.59 9.38 L 576.56 18.75 L 592.97 2.34 L 567.19 35.16" stroke="black" fill="transparent"/>
</svg>