<?xml version="1.0" encoding="UTF-8" standalone="no"?>
<!--Created with ndjsontosvg (https:https://github.com/thompson318/ndjsontosvg) 
	from the simplified Google quickdraw data set. key_id = 6452051930251264-->
<svg width="600" height="600"
	xmlns="http://www.w3.org/2000/svg">
	xmlns:ndjsontosvg="https://github.com/thompson318/ndjsontosvg"
	xmlns:quickdraw="https://quickdraw.withgoogle.com/data"
	xmlns:scikit-surgery="https://doi.org/10.1007/s11548-020-02180-5">

	<rect width="100%" height="100%" fill="white" />
	<path d = "M 421.88 93.75 L 405.47 84.38 L 288.28 82.03 L 222.66 91.41 L 159.38 126.56 L 121.88 119.53 L 140.62 138.28 L 121.88 154.69 L 142.97 168.75 L 126.56 192.19 L 142.97 192.19 L 135.94 217.97 L 164.06 210.94 L 166.41 222.66 L 196.88 215.62 L 201.56 227.34 L 225.00 222.66 L 232.03 234.38 L 260.16 220.31 L 269.53 227.34 L 283.59 215.62 L 304.69 220.31 L 316.41 210.94 L 353.91 225.00 L 351.56 215.62 L 377.34 213.28 L 384.38 199.22 L 475.78 196.88 L 440.62 178.12 L 461.72 173.44 L 440.62 154.69 L 457.03 152.34 L 442.97 142.97 L 473.44 119.53 L 454.69 119.53 L 445.31 110.16 L 447.66 91.41 L 412.50 91.41" stroke="black" fill="transparent"/>
	<path d = "M 135.94 150.00 L 44.53 75.00 L 0.00 49.22 L 9.38 86.72 L 18.75 201.56 L 44.53 124.22 L 154.69 173.44" stroke="black" fill="transparent"/>
	<path d = "M 135.94 187.50 L 79.69 161.72 L 42.19 295.31 L 114.84 210.94 L 173.44 208.59" stroke="black" fill="transparent"/>
	<path d = "M 454.69 110.16 L 581.25 0.00 L 576.56 53.91 L 595.31 117.19 L 503.91 86.72 L 478.12 119.53" stroke="black" fill="transparent"/>
	<path d = "M 466.41 161.72 L 543.75 119.53 L 550.78 121.88 L 564.84 175.78 L 569.53 236.72 L 510.94 168.75 L 464.06 175.78" stroke="black" fill="transparent"/>
	<path d = "M 168.75 232.03 L 138.28 264.84 L 114.84 304.69 L 114.84 318.75 L 131.25 339.84 L 161.72 363.28 L 194.53 375.00 L 278.91 382.03 L 229.69 330.47 L 339.84 321.09 L 330.47 309.38 L 292.97 295.31 L 220.31 288.28 L 210.94 253.12 L 246.09 222.66" stroke="black" fill="transparent"/>
</svg>