<?xml version="1.0" encoding="UTF-8" standalone="no"?>
<!--Created with ndjsontosvg (https:https://github.com/thompson318/ndjsontosvg) 
	from the simplified Google quickdraw data set. key_id = 5118618922647552-->
<svg width="600" height="600"
	xmlns="http://www.w3.org/2000/svg">
	xmlns:ndjsontosvg="https://github.com/thompson318/ndjsontosvg"
	xmlns:quickdraw="https://quickdraw.withgoogle.com/data"
	xmlns:scikit-surgery="https://doi.org/10.1007/s11548-020-02180-5">

	<rect width="100%" height="100%" fill="white" />
	<path d = "M 405.47 37.50 L 365.62 42.19 L 328.12 63.28 L 314.06 84.38 L 311.72 124.22 L 323.44 150.00 L 349.22 166.41 L 382.03 175.78 L 428.91 171.09 L 450.00 152.34 L 452.34 140.62 L 461.72 44.53 L 414.84 0.00 L 386.72 14.06 L 389.06 44.53" stroke="black" fill="transparent"/>
	<path d = "M 468.75 105.47 L 510.94 126.56 L 539.06 185.16" stroke="black" fill="transparent"/>
	<path d = "M 464.06 65.62 L 522.66 79.69 L 550.78 100.78 L 564.84 124.22 L 567.19 168.75" stroke="black" fill="transparent"/>
	<path d = "M 539.06 182.81 L 522.66 215.62 L 520.31 246.09 L 578.91 208.59 L 597.66 180.47 L 567.19 154.69" stroke="black" fill="transparent"/>
	<path d = "M 328.12 63.28 L 246.09 75.00 L 194.53 119.53 L 185.16 145.31 L 159.38 166.41" stroke="black" fill="transparent"/>
	<path d = "M 328.12 112.50 L 297.66 117.19 L 255.47 142.97 L 213.28 213.28 L 63.28 236.72 L 0.00 255.47 L 154.69 196.88 L 178.12 159.38" stroke="black" fill="transparent"/>
</svg>