<?xml version="1.0" encoding="UTF-8" standalone="no"?>
<!--Created with ndjsontosvg (https:https://github.com/thompson318/ndjsontosvg) 
	from the simplified Google quickdraw data set. key_id = 4876505085640704-->
<svg width="600" height="600"
	xmlns="http://www.w3.org/2000/svg">
	xmlns:ndjsontosvg="https://github.com/thompson318/ndjsontosvg"
	xmlns:quickdraw="https://quickdraw.withgoogle.com/data"
	xmlns:scikit-surgery="https://doi.org/10.1007/s11548-020-02180-5">

	<rect width="100%" height="100%" fill="white" />
	<path d = "M 292.97 21.09 L 260.16 18.75 L 201.56 42.19 L 157.03 82.03 L 140.62 114.84 L 138.28 135.94 L 150.00 164.06 L 192.19 196.88 L 295.31 234.38 L 393.75 248.44 L 428.91 246.09 L 454.69 210.94 L 457.03 150.00 L 447.66 110.16 L 412.50 67.97 L 342.19 28.12 L 276.56 16.41" stroke="black" fill="transparent"/>
	<path d = "M 164.06 79.69 L 154.69 42.19 L 140.62 21.09 L 110.16 0.00 L 46.88 7.03 L 14.06 21.09" stroke="black" fill="transparent"/>
	<path d = "M 133.59 161.72 L 140.62 150.00 L 131.25 142.97 L 79.69 142.97 L 23.44 152.34 L 2.34 173.44 L 0.00 185.16 L 14.06 199.22 L 30.47 171.09 L 56.25 171.09 L 42.19 199.22 L 63.28 215.62 L 82.03 201.56 L 82.03 185.16 L 89.06 175.78 L 154.69 154.69 L 161.72 147.66" stroke="black" fill="transparent"/>
	<path d = "M 154.69 84.38 L 67.97 28.12 L 35.16 21.09 L 28.12 25.78" stroke="black" fill="transparent"/>
	<path d = "M 435.94 100.78 L 487.50 67.97 L 525.00 89.06" stroke="black" fill="transparent"/>
	<path d = "M 440.62 114.84 L 534.38 119.53 L 550.78 157.03" stroke="black" fill="transparent"/>
	<path d = "M 452.34 166.41 L 527.34 199.22 L 585.94 239.06 L 597.66 255.47 L 571.88 262.50 L 541.41 248.44 L 550.78 262.50 L 529.69 269.53 L 464.06 210.94" stroke="black" fill="transparent"/>
</svg>