<?xml version="1.0" encoding="UTF-8" standalone="no"?>
<!--Created with ndjsontosvg (https:https://github.com/thompson318/ndjsontosvg) 
	from the simplified Google quickdraw data set. key_id = 5735514483195904-->
<svg width="600" height="600"
	xmlns="http://www.w3.org/2000/svg">
	xmlns:ndjsontosvg="https://github.com/thompson318/ndjsontosvg"
	xmlns:quickdraw="https://quickdraw.withgoogle.com/data"
	xmlns:scikit-surgery="https://doi.org/10.1007/s11548-020-02180-5">

	<rect width="100%" height="100%" fill="white" />
	<path d = "M 217.97 142.97 L 157.03 201.56 L 147.66 243.75 L 154.69 262.50 L 173.44 283.59 L 225.00 304.69 L 283.59 309.38 L 365.62 292.97 L 414.84 234.38 L 417.19 203.91 L 389.06 164.06 L 342.19 140.62 L 227.34 135.94 L 210.94 142.97" stroke="black" fill="transparent"/>
	<path d = "M 178.12 168.75 L 128.91 150.00 L 79.69 100.78" stroke="black" fill="transparent"/>
	<path d = "M 147.66 206.25 L 53.91 159.38" stroke="black" fill="transparent"/>
	<path d = "M 82.03 91.41 L 53.91 150.00" stroke="black" fill="transparent"/>
	<path d = "M 393.75 154.69 L 428.91 119.53" stroke="black" fill="transparent"/>
	<path d = "M 428.91 119.53 L 428.91 119.53" stroke="black" fill="transparent"/>
	<path d = "M 421.88 215.62 L 485.16 168.75 L 501.56 150.00" stroke="black" fill="transparent"/>
	<path d = "M 501.56 150.00 L 501.56 147.66" stroke="black" fill="transparent"/>
	<path d = "M 424.22 110.16 L 454.69 110.16 L 496.88 135.94" stroke="black" fill="transparent"/>
	<path d = "M 496.88 135.94 L 496.88 135.94" stroke="black" fill="transparent"/>
	<path d = "M 431.25 100.78 L 433.59 46.88 L 440.62 30.47 L 475.78 4.69 L 525.00 0.00 L 539.06 14.06 L 503.91 39.84 L 592.97 42.19 L 597.66 49.22 L 553.12 96.09 L 506.25 121.88" stroke="black" fill="transparent"/>
	<path d = "M 96.09 98.44 L 72.66 77.34 L 53.91 25.78 L 0.00 16.41" stroke="black" fill="transparent"/>
</svg>