<?xml version="1.0" encoding="UTF-8" standalone="no"?>
<!--Created with ndjsontosvg (https:https://github.com/thompson318/ndjsontosvg) 
	from the simplified Google quickdraw data set. key_id = 5121155029532672-->
<svg width="600" height="600"
	xmlns="http://www.w3.org/2000/svg">
	xmlns:ndjsontosvg="https://github.com/thompson318/ndjsontosvg"
	xmlns:quickdraw="https://quickdraw.withgoogle.com/data"
	xmlns:scikit-surgery="https://doi.org/10.1007/s11548-020-02180-5">

	<rect width="100%" height="100%" fill="white" />
	<path d = "M 110.16 9.38 L 578.91 11.72 L 592.97 21.09 L 595.31 49.22 L 201.56 56.25 L 91.41 51.56 L 44.53 44.53 L 2.34 25.78 L 117.19 4.69" stroke="black" fill="transparent"/>
	<path d = "M 117.19 4.69 L 117.19 46.88" stroke="black" fill="transparent"/>
	<path d = "M 164.06 7.03 L 178.12 49.22" stroke="black" fill="transparent"/>
	<path d = "M 203.91 18.75 L 203.91 51.56 L 213.28 44.53" stroke="black" fill="transparent"/>
	<path d = "M 239.06 16.41 L 239.06 35.16 L 253.12 37.50" stroke="black" fill="transparent"/>
	<path d = "M 278.91 16.41 L 278.91 44.53 L 290.62 39.84" stroke="black" fill="transparent"/>
	<path d = "M 318.75 2.34 L 318.75 35.16 L 332.81 39.84" stroke="black" fill="transparent"/>
	<path d = "M 356.25 2.34 L 353.91 37.50" stroke="black" fill="transparent"/>
	<path d = "M 370.31 4.69 L 370.31 46.88 L 396.09 46.88" stroke="black" fill="transparent"/>
	<path d = "M 445.31 0.00 L 440.62 35.16" stroke="black" fill="transparent"/>
	<path d = "M 482.81 4.69 L 478.12 39.84" stroke="black" fill="transparent"/>
</svg>