<?xml version="1.0" encoding="UTF-8" standalone="no"?>
<!--Created with ndjsontosvg (https:https://github.com/thompson318/ndjsontosvg) 
	from the simplified Google quickdraw data set. key_id = 4513460782104576-->
<svg width="600" height="600"
	xmlns="http://www.w3.org/2000/svg">
	xmlns:ndjsontosvg="https://github.com/thompson318/ndjsontosvg"
	xmlns:quickdraw="https://quickdraw.withgoogle.com/data"
	xmlns:scikit-surgery="https://doi.org/10.1007/s11548-020-02180-5">

	<rect width="100%" height="100%" fill="white" />
	<path d = "M 0.00 222.66 L 246.09 117.19 L 391.41 30.47 L 447.66 9.38 L 473.44 114.84 L 382.03 150.00 L 262.50 178.12 L 75.00 278.91 L 37.50 283.59 L 16.41 276.56 L 4.69 248.44 L 2.34 225.00" stroke="black" fill="transparent"/>
	<path d = "M 450.00 4.69 L 461.72 0.00 L 539.06 2.34 L 592.97 11.72 L 597.66 18.75 L 574.22 44.53 L 525.00 65.62 L 475.78 103.12" stroke="black" fill="transparent"/>
	<path d = "M 433.59 53.91 L 407.81 82.03 L 353.91 117.19 L 297.66 126.56 L 208.59 161.72 L 147.66 196.88 L 93.75 208.59 L 58.59 225.00" stroke="black" fill="transparent"/>
</svg>