<?xml version="1.0" encoding="UTF-8" standalone="no"?>
<!--Created with ndjsontosvg (https:https://github.com/thompson318/ndjsontosvg) 
	from the simplified Google quickdraw data set. key_id = 6184141366231040-->
<svg width="600" height="600"
	xmlns="http://www.w3.org/2000/svg">
	xmlns:ndjsontosvg="https://github.com/thompson318/ndjsontosvg"
	xmlns:quickdraw="https://quickdraw.withgoogle.com/data"
	xmlns:scikit-surgery="https://doi.org/10.1007/s11548-020-02180-5">

	<rect width="100%" height="100%" fill="white" />
	<path d = "M 0.00 89.06 L 65.62 79.69 L 154.69 9.38 L 201.56 0.00 L 250.78 23.44 L 271.88 46.88 L 297.66 56.25 L 438.28 65.62 L 581.25 105.47" stroke="black" fill="transparent"/>
	<path d = "M 18.75 84.38 L 7.03 119.53 L 77.34 124.22 L 37.50 145.31 L 23.44 168.75 L 30.47 175.78 L 75.00 182.81 L 133.59 168.75 L 168.75 166.41 L 222.66 206.25 L 285.94 222.66 L 367.97 232.03 L 433.59 227.34 L 597.66 178.12" stroke="black" fill="transparent"/>
	<path d = "M 285.94 182.81 L 243.75 257.81 L 180.47 267.19 L 171.09 297.66 L 194.53 314.06 L 250.78 309.38 L 342.19 262.50" stroke="black" fill="transparent"/>
</svg>