<?xml version="1.0" encoding="UTF-8" standalone="no"?>
<!--Created with ndjsontosvg (https:https://github.com/thompson318/ndjsontosvg) 
	from the simplified Google quickdraw data set. key_id = 6213504195362816-->
<svg width="600" height="600"
	xmlns="http://www.w3.org/2000/svg">
	xmlns:ndjsontosvg="https://github.com/thompson318/ndjsontosvg"
	xmlns:quickdraw="https://quickdraw.withgoogle.com/data"
	xmlns:scikit-surgery="https://doi.org/10.1007/s11548-020-02180-5">

	<rect width="100%" height="100%" fill="white" />
	<path d = "M 168.75 124.22 L 154.69 131.25 L 110.16 131.25 L 86.72 121.88 L 11.72 124.22 L 0.00 117.19 L 0.00 75.00 L 39.84 60.94 L 96.09 60.94 L 110.16 37.50 L 147.66 11.72 L 222.66 0.00 L 239.06 16.41 L 246.09 63.28 L 185.16 105.47 L 182.81 117.19 L 206.25 114.84 L 215.62 110.16 L 220.31 98.44 L 241.41 89.06 L 328.12 63.28 L 358.59 49.22 L 478.12 44.53 L 578.91 86.72 L 590.62 105.47 L 597.66 150.00 L 583.59 161.72 L 520.31 180.47 L 384.38 182.81 L 325.78 178.12 L 257.81 164.06 L 201.56 138.28 L 152.34 138.28 L 154.69 121.88" stroke="black" fill="transparent"/>
	<path d = "M 189.84 150.00 L 157.03 168.75 L 154.69 189.84 L 168.75 199.22 L 201.56 203.91 L 229.69 161.72" stroke="black" fill="transparent"/>
	<path d = "M 501.56 182.81 L 487.50 213.28 L 496.88 232.03 L 525.00 229.69 L 532.03 220.31 L 527.34 199.22" stroke="black" fill="transparent"/>
</svg>