<?xml version="1.0" encoding="UTF-8" standalone="no"?>
<!--Created with ndjsontosvg (https:https://github.com/thompson318/ndjsontosvg) 
	from the simplified Google quickdraw data set. key_id = 6736389804654592-->
<svg width="600" height="600"
	xmlns="http://www.w3.org/2000/svg">
	xmlns:ndjsontosvg="https://github.com/thompson318/ndjsontosvg"
	xmlns:quickdraw="https://quickdraw.withgoogle.com/data"
	xmlns:scikit-surgery="https://doi.org/10.1007/s11548-020-02180-5">

	<rect width="100%" height="100%" fill="white" />
	<path d = "M 180.47 42.19 L 135.94 39.84 L 35.16 58.59 L 4.69 72.66 L 0.00 86.72 L 28.12 100.78 L 182.81 98.44" stroke="black" fill="transparent"/>
	<path d = "M 173.44 28.12 L 182.81 7.03 L 215.62 0.00 L 255.47 39.84 L 349.22 65.62 L 597.66 70.31 L 525.00 96.09 L 466.41 105.47 L 168.75 107.81 L 145.31 105.47 L 152.34 96.09" stroke="black" fill="transparent"/>
	<path d = "M 398.44 100.78 L 398.44 152.34" stroke="black" fill="transparent"/>
	<path d = "M 363.28 98.44 L 370.31 142.97" stroke="black" fill="transparent"/>
	<path d = "M 166.41 103.12 L 175.78 157.03" stroke="black" fill="transparent"/>
	<path d = "M 203.91 114.84 L 199.22 157.03" stroke="black" fill="transparent"/>
	<path d = "M 18.75 70.31 L 79.69 70.31 L 164.06 58.59 L 166.41 70.31 L 154.69 93.75 L 121.88 77.34 L 112.50 96.09 L 98.44 98.44 L 84.38 75.00 L 70.31 93.75 L 49.22 103.12 L 32.81 72.66 L 11.72 100.78 L 9.38 72.66" stroke="black" fill="transparent"/>
	<path d = "M 208.59 30.47 L 206.25 25.78" stroke="black" fill="transparent"/>
</svg>