<?xml version="1.0" encoding="UTF-8" standalone="no"?>
<!--Created with ndjsontosvg (https:https://github.com/thompson318/ndjsontosvg) 
	from the simplified Google quickdraw data set. key_id = 5190532961665024-->
<svg width="600" height="600"
	xmlns="http://www.w3.org/2000/svg">
	xmlns:ndjsontosvg="https://github.com/thompson318/ndjsontosvg"
	xmlns:quickdraw="https://quickdraw.withgoogle.com/data"
	xmlns:scikit-surgery="https://doi.org/10.1007/s11548-020-02180-5">

	<rect width="100%" height="100%" fill="white" />
	<path d = "M 164.06 39.84 L 140.62 25.78 L 14.06 49.22 L 0.00 70.31 L 2.34 84.38 L 16.41 103.12 L 46.88 117.19 L 119.53 121.88 L 232.03 110.16 L 356.25 131.25 L 386.72 121.88 L 410.16 93.75 L 417.19 63.28 L 403.12 28.12 L 382.03 7.03 L 351.56 2.34 L 307.03 0.00 L 187.50 18.75 L 152.34 44.53 L 142.97 75.00" stroke="black" fill="transparent"/>
	<path d = "M 410.16 93.75 L 494.53 140.62 L 539.06 142.97 L 560.16 124.22 L 553.12 107.81 L 482.81 91.41 L 424.22 65.62 L 414.84 58.59 L 419.53 37.50 L 431.25 23.44 L 461.72 16.41 L 569.53 23.44 L 597.66 35.16 L 588.28 53.91 L 560.16 65.62 L 400.78 56.25" stroke="black" fill="transparent"/>
	<path d = "M 457.03 58.59 L 464.06 70.31 L 485.16 63.28 L 496.88 77.34 L 517.97 72.66 L 534.38 82.03 L 576.56 60.94 L 592.97 44.53" stroke="black" fill="transparent"/>
	<path d = "M 452.34 103.12 L 475.78 84.38 L 496.88 103.12 L 529.69 89.06 L 539.06 100.78 L 555.47 96.09 L 553.12 114.84" stroke="black" fill="transparent"/>
</svg>