<?xml version="1.0" encoding="UTF-8" standalone="no"?>
<!--Created with ndjsontosvg (https:https://github.com/thompson318/ndjsontosvg) 
	from the simplified Google quickdraw data set. key_id = 4511578089062400-->
<svg width="600" height="600"
	xmlns="http://www.w3.org/2000/svg">
	xmlns:ndjsontosvg="https://github.com/thompson318/ndjsontosvg"
	xmlns:quickdraw="https://quickdraw.withgoogle.com/data"
	xmlns:scikit-surgery="https://doi.org/10.1007/s11548-020-02180-5">

	<rect width="100%" height="100%" fill="white" />
	<path d = "M 0.00 98.44 L 21.09 199.22 L 39.84 407.81 L 51.56 442.97 L 98.44 445.31 L 180.47 424.22 L 300.00 417.19 L 592.97 414.84 L 597.66 400.78 L 588.28 304.69 L 588.28 199.22 L 574.22 35.16 L 567.19 32.81 L 494.53 103.12 L 433.59 150.00 L 417.19 140.62 L 386.72 96.09 L 339.84 9.38 L 332.81 9.38 L 225.00 126.56 L 201.56 131.25 L 182.81 124.22 L 117.19 70.31 L 63.28 0.00 L 56.25 4.69 L 21.09 117.19 L 11.72 168.75" stroke="black" fill="transparent"/>
	<path d = "M 93.75 107.81 L 67.97 112.50 L 58.59 147.66 L 114.84 159.38 L 75.00 138.28" stroke="black" fill="transparent"/>
	<path d = "M 302.34 100.78 L 309.38 100.78 L 283.59 128.91 L 276.56 142.97 L 332.81 145.31 L 370.31 121.88 L 363.28 110.16 L 335.16 96.09" stroke="black" fill="transparent"/>
</svg>