<?xml version="1.0" encoding="UTF-8" standalone="no"?>
<!--Created with ndjsontosvg (https:https://github.com/thompson318/ndjsontosvg) 
	from the simplified Google quickdraw data set. key_id = 6641821419569152-->
<svg width="600" height="600"
	xmlns="http://www.w3.org/2000/svg">
	xmlns:ndjsontosvg="https://github.com/thompson318/ndjsontosvg"
	xmlns:quickdraw="https://quickdraw.withgoogle.com/data"
	xmlns:scikit-surgery="https://doi.org/10.1007/s11548-020-02180-5">

	<rect width="100%" height="100%" fill="white" />
	<path d = "M 4.69 199.22 L 0.00 23.44 L 14.06 25.78 L 63.28 105.47 L 166.41 248.44 L 175.78 248.44 L 194.53 173.44 L 290.62 21.09 L 295.31 46.88 L 309.38 79.69 L 403.12 203.91 L 424.22 262.50 L 424.22 175.78 L 482.81 39.84 L 506.25 0.00 L 517.97 4.69 L 564.84 67.97 L 592.97 157.03 L 597.66 229.69 L 553.12 257.81 L 435.94 264.84 L 367.97 281.25 L 314.06 281.25 L 257.81 269.53 L 168.75 269.53 L 67.97 239.06 L 9.38 196.88" stroke="black" fill="transparent"/>
	<path d = "M 53.91 164.06 L 60.94 140.62 L 49.22 142.97 L 46.88 164.06" stroke="black" fill="transparent"/>
</svg>