<?xml version="1.0" encoding="UTF-8" standalone="no"?>
<!--Created with ndjsontosvg (https:https://github.com/thompson318/ndjsontosvg) 
	from the simplified Google quickdraw data set. key_id = 5263988277379072-->
<svg width="600" height="600"
	xmlns="http://www.w3.org/2000/svg">
	xmlns:ndjsontosvg="https://github.com/thompson318/ndjsontosvg"
	xmlns:quickdraw="https://quickdraw.withgoogle.com/data"
	xmlns:scikit-surgery="https://doi.org/10.1007/s11548-020-02180-5">

	<rect width="100%" height="100%" fill="white" />
	<path d = "M 93.75 435.94 L 260.16 426.56 L 438.28 442.97 L 585.94 435.94 L 592.97 424.22 L 597.66 67.97 L 590.62 0.00 L 571.88 28.12 L 527.34 140.62 L 487.50 53.91 L 452.34 133.59 L 435.94 150.00 L 396.09 56.25 L 384.38 46.88 L 365.62 100.78 L 344.53 128.91 L 246.09 51.56 L 229.69 147.66 L 173.44 86.72 L 147.66 70.31 L 138.28 93.75 L 133.59 171.09 L 114.84 166.41 L 44.53 105.47 L 21.09 96.09 L 4.69 128.91 L 2.34 189.84 L 89.06 459.38" stroke="black" fill="transparent"/>
</svg>