<?xml version="1.0" encoding="UTF-8" standalone="no"?>
<!--Created with ndjsontosvg (https:https://github.com/thompson318/ndjsontosvg) 
	from the simplified Google quickdraw data set. key_id = 4556684829655040-->
<svg width="600" height="600"
	xmlns="http://www.w3.org/2000/svg">
	xmlns:ndjsontosvg="https://github.com/thompson318/ndjsontosvg"
	xmlns:quickdraw="https://quickdraw.withgoogle.com/data"
	xmlns:scikit-surgery="https://doi.org/10.1007/s11548-020-02180-5">

	<rect width="100%" height="100%" fill="white" />
	<path d = "M 39.84 58.59 L 58.59 72.66 L 138.28 96.09 L 229.69 107.81 L 332.81 110.16 L 367.97 105.47 L 405.47 79.69 L 407.81 70.31 L 370.31 44.53 L 260.16 16.41 L 147.66 0.00 L 91.41 0.00 L 56.25 21.09 L 39.84 49.22 L 39.84 65.62 L 91.41 84.38" stroke="black" fill="transparent"/>
	<path d = "M 39.84 35.16 L 7.03 222.66 L 0.00 304.69 L 100.78 349.22 L 182.81 360.94 L 276.56 363.28 L 346.88 358.59 L 353.91 351.56 L 382.03 278.91 L 398.44 161.72 L 403.12 82.03" stroke="black" fill="transparent"/>
	<path d = "M 389.06 145.31 L 442.97 110.16 L 499.22 103.12 L 522.66 110.16 L 550.78 124.22 L 574.22 147.66 L 592.97 187.50 L 597.66 220.31 L 590.62 297.66 L 567.19 335.16 L 543.75 349.22 L 473.44 358.59 L 407.81 335.16 L 398.44 278.91" stroke="black" fill="transparent"/>
	<path d = "M 389.06 213.28 L 403.12 194.53 L 457.03 171.09" stroke="black" fill="transparent"/>
</svg>