<?xml version="1.0" encoding="UTF-8" standalone="no"?>
<!--Created with ndjsontosvg (https:https://github.com/thompson318/ndjsontosvg) 
	from the simplified Google quickdraw data set. key_id = 5510257121951744-->
<svg width="600" height="600"
	xmlns="http://www.w3.org/2000/svg">
	xmlns:ndjsontosvg="https://github.com/thompson318/ndjsontosvg"
	xmlns:quickdraw="https://quickdraw.withgoogle.com/data"
	xmlns:scikit-surgery="https://doi.org/10.1007/s11548-020-02180-5">

	<rect width="100%" height="100%" fill="white" />
	<path d = "M 7.03 39.84 L 2.34 124.22 L 28.12 185.16 L 77.34 234.38 L 138.28 243.75 L 161.72 236.72 L 194.53 217.97 L 239.06 161.72 L 269.53 86.72 L 271.88 30.47 L 255.47 53.91 L 222.66 67.97 L 124.22 77.34 L 42.19 58.59 L 16.41 42.19 L 9.38 28.12 L 63.28 7.03 L 199.22 0.00 L 246.09 7.03 L 257.81 18.75 L 257.81 28.12" stroke="black" fill="transparent"/>
	<path d = "M 269.53 49.22 L 318.75 46.88 L 330.47 51.56 L 335.16 72.66 L 307.03 100.78 L 253.12 135.94" stroke="black" fill="transparent"/>
	<path d = "M 445.31 60.94 L 433.59 213.28 L 457.03 220.31 L 581.25 210.94 L 590.62 175.78 L 597.66 65.62 L 475.78 58.59 L 489.84 65.62" stroke="black" fill="transparent"/>
</svg>