<?xml version="1.0" encoding="UTF-8" standalone="no"?>
<!--Created with ndjsontosvg (https:https://github.com/thompson318/ndjsontosvg) 
	from the simplified Google quickdraw data set. key_id = 5564864074350592-->
<svg width="600" height="600"
	xmlns="http://www.w3.org/2000/svg">
	xmlns:ndjsontosvg="https://github.com/thompson318/ndjsontosvg"
	xmlns:quickdraw="https://quickdraw.withgoogle.com/data"
	xmlns:scikit-surgery="https://doi.org/10.1007/s11548-020-02180-5">

	<rect width="100%" height="100%" fill="white" />
	<path d = "M 7.03 28.12 L 173.44 28.12 L 236.72 39.84 L 410.16 46.88 L 417.19 58.59 L 412.50 157.03 L 403.12 180.47 L 393.75 262.50 L 398.44 316.41 L 386.72 349.22 L 372.66 356.25 L 138.28 353.91 L 89.06 337.50 L 65.62 196.88 L 0.00 37.50" stroke="black" fill="transparent"/>
	<path d = "M 412.50 121.88 L 405.47 110.16 L 405.47 65.62 L 426.56 32.81 L 459.38 9.38 L 525.00 0.00 L 571.88 53.91 L 588.28 91.41 L 597.66 164.06 L 578.91 222.66 L 550.78 260.16 L 503.91 288.28 L 475.78 295.31 L 414.84 295.31 L 393.75 278.91" stroke="black" fill="transparent"/>
	<path d = "M 424.22 96.09 L 424.22 84.38 L 442.97 60.94 L 496.88 35.16 L 525.00 60.94 L 536.72 98.44 L 534.38 150.00 L 473.44 236.72 L 435.94 255.47" stroke="black" fill="transparent"/>
	<path d = "M 37.50 75.00 L 234.38 84.38" stroke="black" fill="transparent"/>
	<path d = "M 271.88 82.03 L 445.31 112.50" stroke="black" fill="transparent"/>
</svg>