<?xml version="1.0" encoding="UTF-8" standalone="no"?>
<!--Created with ndjsontosvg (https:https://github.com/thompson318/ndjsontosvg) 
	from the simplified Google quickdraw data set. key_id = 5733080545361920-->
<svg width="600" height="600"
	xmlns="http://www.w3.org/2000/svg">
	xmlns:ndjsontosvg="https://github.com/thompson318/ndjsontosvg"
	xmlns:quickdraw="https://quickdraw.withgoogle.com/data"
	xmlns:scikit-surgery="https://doi.org/10.1007/s11548-020-02180-5">

	<rect width="100%" height="100%" fill="white" />
	<path d = "M 96.09 4.69 L 553.12 32.81 L 562.50 82.03 L 597.66 161.72 L 595.31 171.09 L 525.00 232.03 L 435.94 290.62 L 367.97 370.31 L 285.94 426.56 L 248.44 473.44" stroke="black" fill="transparent"/>
	<path d = "M 86.72 0.00 L 0.00 75.00 L 28.12 168.75 L 107.81 358.59 L 178.12 473.44 L 194.53 489.84 L 227.34 496.88 L 262.50 445.31" stroke="black" fill="transparent"/>
	<path d = "M 173.44 37.50 L 133.59 75.00 L 119.53 100.78" stroke="black" fill="transparent"/>
	<path d = "M 311.72 49.22 L 264.84 142.97" stroke="black" fill="transparent"/>
	<path d = "M 452.34 63.28 L 459.38 140.62" stroke="black" fill="transparent"/>
	<path d = "M 522.66 86.72 L 522.66 135.94" stroke="black" fill="transparent"/>
	<path d = "M 225.00 199.22 L 208.59 225.00 L 147.66 253.12" stroke="black" fill="transparent"/>
	<path d = "M 316.41 210.94 L 316.41 234.38 L 285.94 267.19" stroke="black" fill="transparent"/>
	<path d = "M 414.84 220.31 L 421.88 264.84" stroke="black" fill="transparent"/>
</svg>