<?xml version="1.0" encoding="UTF-8" standalone="no"?>
<!--Created with ndjsontosvg (https:https://github.com/thompson318/ndjsontosvg) 
	from the simplified Google quickdraw data set. key_id = 6166201321390080-->
<svg width="600" height="600"
	xmlns="http://www.w3.org/2000/svg">
	xmlns:ndjsontosvg="https://github.com/thompson318/ndjsontosvg"
	xmlns:quickdraw="https://quickdraw.withgoogle.com/data"
	xmlns:scikit-surgery="https://doi.org/10.1007/s11548-020-02180-5">

	<rect width="100%" height="100%" fill="white" />
	<path d = "M 9.38 126.56 L 30.47 142.97 L 75.00 159.38 L 232.03 189.84 L 396.09 154.69 L 438.28 154.69 L 517.97 128.91 L 574.22 86.72" stroke="black" fill="transparent"/>
	<path d = "M 569.53 21.09 L 485.16 18.75 L 290.62 63.28 L 234.38 67.97 L 152.34 70.31 L 58.59 58.59 L 32.81 63.28 L 7.03 86.72" stroke="black" fill="transparent"/>
	<path d = "M 555.47 67.97 L 532.03 67.97 L 595.31 100.78" stroke="black" fill="transparent"/>
	<path d = "M 564.84 28.12 L 555.47 44.53 L 567.19 75.00" stroke="black" fill="transparent"/>
	<path d = "M 53.91 89.06 L 39.84 98.44 L 23.44 166.41" stroke="black" fill="transparent"/>
	<path d = "M 0.00 100.78 L 28.12 159.38 L 159.38 342.19 L 187.50 400.78 L 246.09 471.09 L 318.75 574.22 L 332.81 576.56 L 349.22 560.16 L 365.62 515.62 L 426.56 435.94 L 525.00 199.22 L 548.44 121.88 L 571.88 89.06 L 597.66 72.66" stroke="black" fill="transparent"/>
	<path d = "M 37.50 135.94 L 23.44 135.94 L 30.47 117.19 L 72.66 44.53 L 98.44 14.06 L 194.53 0.00 L 316.41 4.69 L 447.66 35.16 L 534.38 72.66 L 543.75 121.88" stroke="black" fill="transparent"/>
</svg>