<?xml version="1.0" encoding="UTF-8" standalone="no"?>
<!--Created with ndjsontosvg (https:https://github.com/thompson318/ndjsontosvg) 
	from the simplified Google quickdraw data set. key_id = 5184397957398528-->
<svg width="600" height="600"
	xmlns="http://www.w3.org/2000/svg">
	xmlns:ndjsontosvg="https://github.com/thompson318/ndjsontosvg"
	xmlns:quickdraw="https://quickdraw.withgoogle.com/data"
	xmlns:scikit-surgery="https://doi.org/10.1007/s11548-020-02180-5">

	<rect width="100%" height="100%" fill="white" />
	<path d = "M 60.94 248.44 L 63.28 457.03 L 89.06 548.44 L 89.06 590.62 L 100.78 597.66 L 161.72 588.28 L 492.19 581.25 L 485.16 550.78 L 419.53 393.75 L 410.16 300.00 L 424.22 189.84 L 328.12 187.50 L 110.16 215.62 L 14.06 217.97 L 0.00 203.91" stroke="black" fill="transparent"/>
	<path d = "M 35.16 210.94 L 35.16 142.97 L 217.97 53.91 L 274.22 18.75 L 321.09 0.00 L 314.06 18.75 L 278.91 53.91" stroke="black" fill="transparent"/>
	<path d = "M 419.53 140.62 L 459.38 114.84 L 506.25 65.62" stroke="black" fill="transparent"/>
	<path d = "M 328.12 30.47 L 499.22 53.91 L 513.28 67.97 L 522.66 358.59 L 515.62 550.78" stroke="black" fill="transparent"/>
</svg>