<?xml version="1.0" encoding="UTF-8" standalone="no"?>
<!--Created with ndjsontosvg (https:https://github.com/thompson318/ndjsontosvg) 
	from the simplified Google quickdraw data set. key_id = 6107548610461696-->
<svg width="600" height="600"
	xmlns="http://www.w3.org/2000/svg">
	xmlns:ndjsontosvg="https://github.com/thompson318/ndjsontosvg"
	xmlns:quickdraw="https://quickdraw.withgoogle.com/data"
	xmlns:scikit-surgery="https://doi.org/10.1007/s11548-020-02180-5">

	<rect width="100%" height="100%" fill="white" />
	<path d = "M 4.69 562.50 L 7.03 100.78 L 18.75 44.53 L 72.66 18.75 L 196.88 2.34 L 529.69 0.00 L 569.53 7.03 L 581.25 21.09 L 592.97 145.31 L 574.22 375.00 L 583.59 515.62 L 569.53 541.41 L 501.56 574.22 L 382.03 590.62 L 262.50 585.94 L 0.00 548.44" stroke="black" fill="transparent"/>
	<path d = "M 278.91 196.88 L 243.75 196.88 L 201.56 217.97 L 168.75 250.78 L 159.38 271.88 L 150.00 328.12 L 168.75 379.69 L 192.19 421.88 L 257.81 454.69 L 292.97 457.03 L 349.22 445.31 L 431.25 391.41 L 461.72 339.84 L 464.06 304.69 L 450.00 269.53 L 407.81 225.00 L 360.94 199.22 L 309.38 194.53 L 281.25 203.91 L 239.06 232.03" stroke="black" fill="transparent"/>
	<path d = "M 42.19 145.31 L 225.00 119.53 L 424.22 119.53 L 576.56 128.91 L 597.66 124.22" stroke="black" fill="transparent"/>
	<path d = "M 145.31 51.56 L 145.31 96.09 L 161.72 126.56 L 180.47 140.62 L 196.88 140.62 L 206.25 135.94 L 213.28 114.84 L 187.50 84.38 L 164.06 77.34 L 159.38 84.38" stroke="black" fill="transparent"/>
	<path d = "M 276.56 60.94 L 316.41 75.00 L 309.38 77.34" stroke="black" fill="transparent"/>
	<path d = "M 389.06 35.16 L 407.81 96.09" stroke="black" fill="transparent"/>
	<path d = "M 440.62 77.34 L 485.16 84.38 L 506.25 72.66" stroke="black" fill="transparent"/>
	<path d = "M 553.12 79.69 L 562.50 84.38" stroke="black" fill="transparent"/>
</svg>