<?xml version="1.0" encoding="UTF-8" standalone="no"?>
<!--Created with ndjsontosvg (https:https://github.com/thompson318/ndjsontosvg) 
	from the simplified Google quickdraw data set. key_id = 5566818167029760-->
<svg width="600" height="600"
	xmlns="http://www.w3.org/2000/svg">
	xmlns:ndjsontosvg="https://github.com/thompson318/ndjsontosvg"
	xmlns:quickdraw="https://quickdraw.withgoogle.com/data"
	xmlns:scikit-surgery="https://doi.org/10.1007/s11548-020-02180-5">

	<rect width="100%" height="100%" fill="white" />
	<path d = "M 142.97 25.78 L 105.47 213.28 L 89.06 358.59 L 93.75 367.97 L 567.19 370.31 L 585.94 229.69 L 576.56 9.38 L 417.19 0.00 L 37.50 0.00 L 0.00 7.03 L 21.09 14.06" stroke="black" fill="transparent"/>
	<path d = "M 114.84 124.22 L 464.06 126.56 L 597.66 140.62" stroke="black" fill="transparent"/>
	<path d = "M 485.16 152.34 L 475.78 152.34 L 473.44 157.03 L 485.16 159.38 L 480.47 147.66 L 475.78 154.69 L 482.81 157.03 L 480.47 150.00" stroke="black" fill="transparent"/>
	<path d = "M 428.91 152.34 L 438.28 152.34 L 428.91 152.34 L 433.59 161.72 L 435.94 152.34 L 428.91 150.00 L 433.59 161.72 L 435.94 150.00" stroke="black" fill="transparent"/>
</svg>