<?xml version="1.0" encoding="UTF-8" standalone="no"?>
<!--Created with ndjsontosvg (https:https://github.com/thompson318/ndjsontosvg) 
	from the simplified Google quickdraw data set. key_id = 6441232723083264-->
<svg width="600" height="600"
	xmlns="http://www.w3.org/2000/svg">
	xmlns:ndjsontosvg="https://github.com/thompson318/ndjsontosvg"
	xmlns:quickdraw="https://quickdraw.withgoogle.com/data"
	xmlns:scikit-surgery="https://doi.org/10.1007/s11548-020-02180-5">

	<rect width="100%" height="100%" fill="white" />
	<path d = "M 405.47 344.53 L 117.19 330.47 L 135.94 365.62 L 154.69 431.25 L 171.09 428.91 L 267.19 435.94 L 396.09 426.56 L 487.50 433.59 L 464.06 337.50 L 407.81 337.50 L 384.38 332.81 L 379.69 325.78" stroke="black" fill="transparent"/>
	<path d = "M 37.50 520.31 L 100.78 503.91 L 285.94 482.81 L 382.03 489.84 L 442.97 510.94 L 454.69 522.66 L 445.31 539.06 L 393.75 569.53 L 182.81 597.66 L 72.66 574.22 L 30.47 555.47 L 0.00 532.03 L 58.59 532.03 L 138.28 515.62 L 187.50 517.97" stroke="black" fill="transparent"/>
	<path d = "M 246.09 560.16 L 300.00 534.38" stroke="black" fill="transparent"/>
	<path d = "M 300.00 534.38 L 325.78 527.34" stroke="black" fill="transparent"/>
	<path d = "M 180.47 534.38 L 417.19 506.25 L 358.59 494.53 L 285.94 503.91 L 138.28 571.88 L 227.34 548.44 L 302.34 546.09 L 166.41 564.84 L 138.28 562.50 L 124.22 553.12 L 135.94 534.38 L 168.75 515.62 L 260.16 487.50 L 330.47 487.50 L 344.53 496.88 L 349.22 510.94 L 344.53 527.34 L 325.78 546.09 L 267.19 567.19 L 208.59 571.88 L 164.06 562.50 L 161.72 550.78 L 178.12 539.06" stroke="black" fill="transparent"/>
	<path d = "M 452.34 332.81 L 536.72 250.78 L 532.03 0.00 L 529.69 154.69 L 543.75 468.75 L 546.09 461.72 L 590.62 473.44 L 569.53 419.53 L 560.16 370.31 L 560.16 180.47" stroke="black" fill="transparent"/>
</svg>