<?xml version="1.0" encoding="UTF-8" standalone="no"?>
<!--Created with ndjsontosvg (https:https://github.com/thompson318/ndjsontosvg) 
	from the simplified Google quickdraw data set. key_id = 5369647287238656-->
<svg width="600" height="600"
	xmlns="http://www.w3.org/2000/svg">
	xmlns:ndjsontosvg="https://github.com/thompson318/ndjsontosvg"
	xmlns:quickdraw="https://quickdraw.withgoogle.com/data"
	xmlns:scikit-surgery="https://doi.org/10.1007/s11548-020-02180-5">

	<rect width="100%" height="100%" fill="white" />
	<path d = "M 103.12 346.88 L 49.22 351.56 L 30.47 342.19 L 0.00 274.22 L 2.34 253.12 L 21.09 243.75 L 91.41 239.06 L 159.38 274.22 L 213.28 281.25 L 344.53 262.50 L 503.91 227.34 L 541.41 227.34 L 569.53 239.06 L 595.31 264.84 L 595.31 297.66 L 581.25 325.78 L 543.75 344.53 L 520.31 344.53 L 475.78 323.44 L 431.25 314.06 L 351.56 318.75 L 208.59 353.91 L 147.66 353.91 L 77.34 332.81" stroke="black" fill="transparent"/>
	<path d = "M 100.78 325.78 L 114.84 450.00" stroke="black" fill="transparent"/>
	<path d = "M 562.50 344.53 L 564.84 407.81" stroke="black" fill="transparent"/>
	<path d = "M 246.09 271.88 L 239.06 208.59" stroke="black" fill="transparent"/>
	<path d = "M 290.62 257.81 L 262.50 201.56" stroke="black" fill="transparent"/>
	<path d = "M 262.50 199.22 L 250.78 175.78 L 227.34 65.62 L 161.72 131.25" stroke="black" fill="transparent"/>
	<path d = "M 234.38 79.69 L 260.16 75.00 L 328.12 110.16" stroke="black" fill="transparent"/>
	<path d = "M 222.66 72.66 L 215.62 42.19 L 225.00 4.69 L 276.56 2.34 L 295.31 9.38 L 295.31 25.78 L 267.19 44.53 L 239.06 46.88 L 208.59 35.16" stroke="black" fill="transparent"/>
</svg>