<?xml version="1.0" encoding="UTF-8" standalone="no"?>
<!--Created with ndjsontosvg (https:https://github.com/thompson318/ndjsontosvg) 
	from the simplified Google quickdraw data set. key_id = 5272300234473472-->
<svg width="600" height="600"
	xmlns="http://www.w3.org/2000/svg">
	xmlns:ndjsontosvg="https://github.com/thompson318/ndjsontosvg"
	xmlns:quickdraw="https://quickdraw.withgoogle.com/data"
	xmlns:scikit-surgery="https://doi.org/10.1007/s11548-020-02180-5">

	<rect width="100%" height="100%" fill="white" />
	<path d = "M 203.91 100.78 L 168.75 77.34 L 150.00 77.34 L 140.62 84.38 L 114.84 138.28 L 107.81 185.16 L 110.16 234.38 L 126.56 271.88 L 154.69 292.97 L 187.50 295.31 L 220.31 278.91 L 250.78 246.09 L 269.53 206.25 L 271.88 157.03 L 255.47 131.25 L 227.34 114.84 L 145.31 107.81" stroke="black" fill="transparent"/>
	<path d = "M 241.41 119.53 L 264.84 168.75 L 297.66 267.19 L 316.41 295.31 L 328.12 288.28 L 335.16 267.19 L 344.53 187.50 L 302.34 150.00 L 269.53 140.62 L 260.16 142.97 L 278.91 215.62 L 330.47 290.62 L 335.16 264.84 L 318.75 194.53 L 309.38 171.09 L 285.94 154.69 L 335.16 248.44 L 283.59 117.19 L 353.91 222.66" stroke="black" fill="transparent"/>
	<path d = "M 152.34 114.84 L 117.19 107.81 L 84.38 117.19 L 32.81 168.75 L 4.69 213.28 L 0.00 243.75 L 11.72 255.47 L 51.56 234.38 L 79.69 196.88 L 135.94 100.78 L 138.28 91.41 L 121.88 98.44 L 70.31 135.94 L 21.09 185.16 L 30.47 192.19 L 60.94 185.16" stroke="black" fill="transparent"/>
	<path d = "M 196.88 222.66 L 192.19 232.03 L 196.88 243.75 L 206.25 246.09 L 208.59 232.03 L 203.91 217.97 L 199.22 222.66" stroke="black" fill="transparent"/>
	<path d = "M 86.72 133.59 L 67.97 185.16 L 75.00 178.12" stroke="black" fill="transparent"/>
	<path d = "M 278.91 145.31 L 391.41 133.59 L 571.88 138.28 L 539.06 185.16 L 515.62 199.22 L 330.47 234.38 L 316.41 234.38 L 304.69 220.31" stroke="black" fill="transparent"/>
	<path d = "M 562.50 114.84 L 578.91 107.81 L 588.28 89.06 L 597.66 0.00 L 574.22 131.25" stroke="black" fill="transparent"/>
	<path d = "M 370.31 215.62 L 358.59 241.41 L 349.22 353.91 L 360.94 386.72 L 372.66 391.41 L 384.38 384.38 L 393.75 358.59 L 389.06 236.72 L 389.06 225.00 L 393.75 232.03" stroke="black" fill="transparent"/>
	<path d = "M 438.28 208.59 L 450.00 246.09 L 464.06 346.88 L 466.41 360.94 L 478.12 358.59 L 487.50 274.22 L 468.75 189.84" stroke="black" fill="transparent"/>
	<path d = "M 515.62 199.22 L 541.41 250.78 L 569.53 288.28" stroke="black" fill="transparent"/>
</svg>