<?xml version="1.0" encoding="UTF-8" standalone="no"?>
<!--Created with ndjsontosvg (https:https://github.com/thompson318/ndjsontosvg) 
	from the simplified Google quickdraw data set. key_id = 6402183803174912-->
<svg width="600" height="600"
	xmlns="http://www.w3.org/2000/svg">
	xmlns:ndjsontosvg="https://github.com/thompson318/ndjsontosvg"
	xmlns:quickdraw="https://quickdraw.withgoogle.com/data"
	xmlns:scikit-surgery="https://doi.org/10.1007/s11548-020-02180-5">

	<rect width="100%" height="100%" fill="white" />
	<path d = "M 60.94 46.88 L 0.00 86.72 L 11.72 206.25 L 53.91 203.91 L 67.97 196.88 L 105.47 128.91 L 103.12 91.41 L 58.59 42.19" stroke="black" fill="transparent"/>
	<path d = "M 56.25 44.53 L 60.94 11.72 L 46.88 0.00 L 28.12 18.75 L 14.06 60.94" stroke="black" fill="transparent"/>
	<path d = "M 105.47 79.69 L 154.69 75.00 L 142.97 105.47 L 114.84 114.84" stroke="black" fill="transparent"/>
	<path d = "M 91.41 159.38 L 110.16 215.62 L 168.75 264.84 L 248.44 285.94 L 267.19 283.59 L 271.88 276.56 L 248.44 225.00 L 206.25 178.12 L 150.00 147.66 L 91.41 135.94" stroke="black" fill="transparent"/>
	<path d = "M 309.38 229.69 L 281.25 257.81 L 276.56 281.25 L 295.31 304.69 L 318.75 316.41 L 375.00 332.81 L 478.12 342.19 L 527.34 339.84 L 569.53 325.78 L 571.88 309.38 L 562.50 276.56 L 494.53 241.41 L 375.00 225.00 L 321.09 225.00 L 304.69 229.69 L 302.34 236.72" stroke="black" fill="transparent"/>
	<path d = "M 290.62 307.03 L 264.84 344.53 L 260.16 370.31 L 271.88 410.16 L 300.00 424.22 L 325.78 417.19 L 330.47 403.12 L 342.19 365.62 L 342.19 318.75" stroke="black" fill="transparent"/>
	<path d = "M 499.22 342.19 L 536.72 398.44 L 562.50 417.19 L 585.94 421.88 L 595.31 405.47 L 597.66 382.03 L 581.25 353.91 L 550.78 330.47" stroke="black" fill="transparent"/>
</svg>