<?xml version="1.0" encoding="UTF-8" standalone="no"?>
<!--Created with ndjsontosvg (https:https://github.com/thompson318/ndjsontosvg) 
	from the simplified Google quickdraw data set. key_id = 5906463392268288-->
<svg width="600" height="600"
	xmlns="http://www.w3.org/2000/svg">
	xmlns:ndjsontosvg="https://github.com/thompson318/ndjsontosvg"
	xmlns:quickdraw="https://quickdraw.withgoogle.com/data"
	xmlns:scikit-surgery="https://doi.org/10.1007/s11548-020-02180-5">

	<rect width="100%" height="100%" fill="white" />
	<path d = "M 440.62 84.38 L 318.75 86.72 L 330.47 39.84 L 302.34 37.50 L 227.34 77.34 L 178.12 84.38 L 140.62 107.81 L 77.34 126.56 L 56.25 171.09 L 46.88 213.28 L 16.41 232.03 L 0.00 248.44 L 4.69 253.12 L 35.16 248.44 L 53.91 225.00 L 84.38 215.62 L 105.47 189.84 L 159.38 164.06 L 206.25 145.31 L 318.75 131.25 L 377.34 138.28 L 412.50 164.06 L 393.75 194.53 L 349.22 241.41 L 346.88 246.09 L 358.59 250.78 L 382.03 239.06 L 499.22 126.56 L 527.34 114.84 L 557.81 84.38 L 597.66 4.69 L 553.12 0.00 L 508.59 44.53" stroke="black" fill="transparent"/>
</svg>