<?xml version="1.0" encoding="UTF-8" standalone="no"?>
<!--Created with ndjsontosvg (https:https://github.com/thompson318/ndjsontosvg) 
	from the simplified Google quickdraw data set. key_id = 4544362547511296-->
<svg width="600" height="600"
	xmlns="http://www.w3.org/2000/svg">
	xmlns:ndjsontosvg="https://github.com/thompson318/ndjsontosvg"
	xmlns:quickdraw="https://quickdraw.withgoogle.com/data"
	xmlns:scikit-surgery="https://doi.org/10.1007/s11548-020-02180-5">

	<rect width="100%" height="100%" fill="white" />
	<path d = "M 471.09 157.03 L 501.56 154.69 L 536.72 138.28 L 597.66 84.38 L 546.09 241.41 L 522.66 288.28 L 532.03 239.06 L 499.22 213.28 L 276.56 208.59 L 342.19 316.41 L 353.91 360.94 L 337.50 360.94 L 288.28 335.16 L 250.78 295.31 L 241.41 260.16 L 229.69 250.78 L 84.38 260.16 L 4.69 283.59 L 2.34 260.16 L 18.75 229.69 L 93.75 189.84 L 98.44 138.28 L 119.53 126.56 L 213.28 105.47 L 271.88 0.00 L 292.97 7.03 L 309.38 25.78 L 316.41 103.12 L 335.16 119.53 L 440.62 133.59 L 522.66 131.25" stroke="black" fill="transparent"/>
</svg>