<?xml version="1.0" encoding="UTF-8" standalone="no"?>
<!--Created with ndjsontosvg (https:https://github.com/thompson318/ndjsontosvg) 
	from the simplified Google quickdraw data set. key_id = 5986155268931584-->
<svg width="600" height="600"
	xmlns="http://www.w3.org/2000/svg">
	xmlns:ndjsontosvg="https://github.com/thompson318/ndjsontosvg"
	xmlns:quickdraw="https://quickdraw.withgoogle.com/data"
	xmlns:scikit-surgery="https://doi.org/10.1007/s11548-020-02180-5">

	<rect width="100%" height="100%" fill="white" />
	<path d = "M 332.81 2.34 L 241.41 0.00 L 187.50 18.75 L 133.59 49.22 L 82.03 93.75 L 37.50 152.34 L 9.38 208.59 L 0.00 276.56 L 0.00 349.22 L 14.06 391.41 L 39.84 424.22 L 112.50 487.50 L 189.84 532.03 L 271.88 548.44 L 391.41 553.12 L 428.91 546.09 L 464.06 529.69 L 525.00 468.75 L 581.25 377.34 L 595.31 325.78 L 597.66 203.91 L 557.81 124.22 L 485.16 53.91 L 396.09 11.72 L 325.78 9.38" stroke="black" fill="transparent"/>
	<path d = "M 309.38 199.22 L 285.94 203.91 L 257.81 236.72 L 255.47 292.97 L 260.16 318.75 L 285.94 344.53 L 307.03 349.22 L 346.88 349.22 L 386.72 330.47 L 403.12 290.62 L 403.12 229.69 L 377.34 201.56 L 325.78 187.50" stroke="black" fill="transparent"/>
	<path d = "M 285.94 105.47 L 290.62 70.31 L 307.03 58.59 L 428.91 49.22 L 452.34 103.12 L 506.25 142.97 L 522.66 161.72 L 532.03 227.34 L 564.84 290.62 L 564.84 349.22 L 548.44 384.38" stroke="black" fill="transparent"/>
</svg>