<?xml version="1.0" encoding="UTF-8" standalone="no"?>
<!--Created with ndjsontosvg (https:https://github.com/thompson318/ndjsontosvg) 
	from the simplified Google quickdraw data set. key_id = 6591619509780480-->
<svg width="600" height="600"
	xmlns="http://www.w3.org/2000/svg">
	xmlns:ndjsontosvg="https://github.com/thompson318/ndjsontosvg"
	xmlns:quickdraw="https://quickdraw.withgoogle.com/data"
	xmlns:scikit-surgery="https://doi.org/10.1007/s11548-020-02180-5">

	<rect width="100%" height="100%" fill="white" />
	<path d = "M 302.34 550.78 L 250.78 543.75 L 114.84 494.53 L 75.00 471.09 L 46.88 431.25 L 11.72 342.19 L 0.00 222.66 L 2.34 194.53 L 46.88 93.75 L 98.44 30.47 L 124.22 11.72 L 185.16 0.00 L 342.19 2.34 L 471.09 25.78 L 520.31 51.56 L 548.44 79.69 L 583.59 154.69 L 595.31 203.91 L 597.66 292.97 L 592.97 325.78 L 555.47 407.81 L 510.94 466.41 L 440.62 515.62 L 360.94 529.69 L 257.81 564.84 L 217.97 569.53 L 199.22 569.53 L 171.09 541.41" stroke="black" fill="transparent"/>
	<path d = "M 323.44 344.53 L 290.62 330.47 L 260.16 300.00 L 203.91 274.22 L 189.84 257.81 L 175.78 189.84 L 269.53 145.31 L 290.62 140.62 L 328.12 142.97 L 367.97 199.22 L 365.62 307.03 L 349.22 328.12 L 321.09 330.47 L 271.88 314.06" stroke="black" fill="transparent"/>
	<path d = "M 215.62 393.75 L 196.88 379.69 L 189.84 351.56" stroke="black" fill="transparent"/>
	<path d = "M 131.25 257.81 L 103.12 243.75 L 114.84 152.34" stroke="black" fill="transparent"/>
	<path d = "M 117.19 227.34 L 112.50 210.94 L 117.19 182.81 L 145.31 105.47" stroke="black" fill="transparent"/>
</svg>