<?xml version="1.0" encoding="UTF-8" standalone="no"?>
<!--Created with ndjsontosvg (https:https://github.com/thompson318/ndjsontosvg) 
	from the simplified Google quickdraw data set. key_id = 6366043062665216-->
<svg width="600" height="600"
	xmlns="http://www.w3.org/2000/svg">
	xmlns:ndjsontosvg="https://github.com/thompson318/ndjsontosvg"
	xmlns:quickdraw="https://quickdraw.withgoogle.com/data"
	xmlns:scikit-surgery="https://doi.org/10.1007/s11548-020-02180-5">

	<rect width="100%" height="100%" fill="white" />
	<path d = "M 182.81 220.31 L 164.06 243.75 L 159.38 314.06 L 182.81 342.19 L 239.06 377.34 L 304.69 382.03 L 328.12 367.97 L 342.19 318.75 L 332.81 276.56 L 290.62 248.44 L 178.12 213.28" stroke="black" fill="transparent"/>
	<path d = "M 157.03 39.84 L 114.84 42.19 L 91.41 56.25 L 21.09 124.22 L 4.69 150.00 L 0.00 173.44 L 0.00 255.47 L 4.69 281.25 L 46.88 363.28 L 77.34 445.31 L 107.81 494.53 L 178.12 571.88 L 260.16 597.66 L 440.62 597.66 L 487.50 576.56 L 510.94 553.12 L 536.72 485.16 L 532.03 351.56 L 515.62 271.88 L 485.16 189.84 L 419.53 121.88 L 283.59 39.84 L 225.00 18.75 L 175.78 4.69 L 86.72 0.00" stroke="black" fill="transparent"/>
</svg>