<?xml version="1.0" encoding="UTF-8" standalone="no"?>
<!--Created with ndjsontosvg (https:https://github.com/thompson318/ndjsontosvg) 
	from the simplified Google quickdraw data set. key_id = 5528910534017024-->
<svg width="600" height="600"
	xmlns="http://www.w3.org/2000/svg">
	xmlns:ndjsontosvg="https://github.com/thompson318/ndjsontosvg"
	xmlns:quickdraw="https://quickdraw.withgoogle.com/data"
	xmlns:scikit-surgery="https://doi.org/10.1007/s11548-020-02180-5">

	<rect width="100%" height="100%" fill="white" />
	<path d = "M 342.19 39.84 L 290.62 23.44 L 264.84 25.78 L 234.38 37.50 L 89.06 161.72 L 42.19 215.62 L 7.03 285.94 L 0.00 321.09 L 0.00 377.34 L 23.44 445.31 L 72.66 506.25 L 135.94 541.41 L 309.38 592.97 L 398.44 597.66 L 438.28 578.91 L 473.44 508.59 L 494.53 412.50 L 494.53 349.22 L 459.38 232.03 L 398.44 112.50 L 356.25 49.22 L 290.62 2.34 L 281.25 0.00 L 276.56 14.06" stroke="black" fill="transparent"/>
	<path d = "M 321.09 96.09 L 311.72 96.09 L 264.84 138.28 L 182.81 257.81 L 147.66 332.81 L 135.94 403.12 L 150.00 428.91 L 182.81 464.06 L 201.56 480.47 L 241.41 499.22 L 328.12 510.94 L 353.91 489.84 L 370.31 426.56 L 363.28 257.81 L 353.91 222.66 L 332.81 196.88 L 281.25 180.47 L 274.22 196.88" stroke="black" fill="transparent"/>
	<path d = "M 307.03 199.22 L 285.94 182.81 L 264.84 180.47 L 255.47 187.50 L 243.75 213.28 L 248.44 232.03" stroke="black" fill="transparent"/>
	<path d = "M 426.56 330.47 L 435.94 400.78" stroke="black" fill="transparent"/>
</svg>