<?xml version="1.0" encoding="UTF-8" standalone="no"?>
<!--Created with ndjsontosvg (https:https://github.com/thompson318/ndjsontosvg) 
	from the simplified Google quickdraw data set. key_id = 6229732813176832-->
<svg width="600" height="600"
	xmlns="http://www.w3.org/2000/svg">
	xmlns:ndjsontosvg="https://github.com/thompson318/ndjsontosvg"
	xmlns:quickdraw="https://quickdraw.withgoogle.com/data"
	xmlns:scikit-surgery="https://doi.org/10.1007/s11548-020-02180-5">

	<rect width="100%" height="100%" fill="white" />
	<path d = "M 370.31 16.41 L 262.50 9.38 L 157.03 23.44 L 79.69 65.62 L 37.50 112.50 L 7.03 194.53 L 0.00 262.50 L 4.69 304.69 L 53.91 421.88 L 131.25 475.78 L 210.94 489.84 L 358.59 492.19 L 426.56 487.50 L 501.56 457.03 L 550.78 426.56 L 576.56 403.12 L 590.62 377.34 L 597.66 353.91 L 585.94 239.06 L 548.44 166.41 L 510.94 119.53 L 407.81 30.47 L 328.12 0.00" stroke="black" fill="transparent"/>
	<path d = "M 309.38 135.94 L 213.28 126.56 L 175.78 138.28 L 164.06 239.06 L 168.75 276.56 L 189.84 309.38 L 264.84 356.25 L 314.06 370.31 L 337.50 370.31 L 426.56 309.38 L 440.62 283.59 L 447.66 241.41 L 424.22 201.56 L 372.66 161.72 L 316.41 133.59 L 278.91 131.25" stroke="black" fill="transparent"/>
</svg>