<?xml version="1.0" encoding="UTF-8" standalone="no"?>
<!--Created with ndjsontosvg (https:https://github.com/thompson318/ndjsontosvg) 
	from the simplified Google quickdraw data set. key_id = 5680433461198848-->
<svg width="600" height="600"
	xmlns="http://www.w3.org/2000/svg">
	xmlns:ndjsontosvg="https://github.com/thompson318/ndjsontosvg"
	xmlns:quickdraw="https://quickdraw.withgoogle.com/data"
	xmlns:scikit-surgery="https://doi.org/10.1007/s11548-020-02180-5">

	<rect width="100%" height="100%" fill="white" />
	<path d = "M 508.59 35.16 L 363.28 32.81 L 159.38 58.59 L 93.75 100.78 L 65.62 133.59 L 28.12 189.84 L 2.34 262.50 L 0.00 330.47 L 7.03 384.38 L 21.09 407.81 L 75.00 435.94 L 138.28 452.34 L 290.62 454.69 L 351.56 450.00 L 442.97 419.53 L 527.34 367.97 L 576.56 311.72 L 590.62 271.88 L 597.66 213.28 L 590.62 105.47 L 560.16 35.16 L 536.72 14.06 L 494.53 2.34 L 424.22 0.00 L 407.81 7.03 L 393.75 44.53 L 396.09 86.72" stroke="black" fill="transparent"/>
	<path d = "M 264.84 180.47 L 234.38 185.16 L 222.66 206.25 L 192.19 307.03 L 192.19 337.50 L 201.56 346.88 L 222.66 351.56 L 260.16 342.19 L 281.25 323.44 L 285.94 300.00 L 285.94 257.81 L 276.56 229.69 L 222.66 157.03" stroke="black" fill="transparent"/>
	<path d = "M 328.12 199.22 L 393.75 161.72" stroke="black" fill="transparent"/>
	<path d = "M 323.44 264.84 L 410.16 253.12" stroke="black" fill="transparent"/>
</svg>