<?xml version="1.0" encoding="UTF-8" standalone="no"?>
<!--Created with ndjsontosvg (https:https://github.com/thompson318/ndjsontosvg) 
	from the simplified Google quickdraw data set. key_id = 5577331911426048-->
<svg width="600" height="600"
	xmlns="http://www.w3.org/2000/svg">
	xmlns:ndjsontosvg="https://github.com/thompson318/ndjsontosvg"
	xmlns:quickdraw="https://quickdraw.withgoogle.com/data"
	xmlns:scikit-surgery="https://doi.org/10.1007/s11548-020-02180-5">

	<rect width="100%" height="100%" fill="white" />
	<path d = "M 196.88 37.50 L 157.03 42.19 L 114.84 58.59 L 89.06 82.03 L 37.50 152.34 L 16.41 194.53 L 0.00 274.22 L 0.00 316.41 L 9.38 353.91 L 28.12 386.72 L 86.72 442.97 L 220.31 527.34 L 325.78 564.84 L 421.88 562.50 L 464.06 539.06 L 529.69 478.12 L 574.22 391.41 L 590.62 339.84 L 595.31 295.31 L 597.66 208.59 L 585.94 173.44 L 557.81 126.56 L 513.28 84.38 L 464.06 42.19 L 403.12 9.38 L 335.16 0.00 L 257.81 2.34 L 222.66 16.41 L 159.38 56.25" stroke="black" fill="transparent"/>
	<path d = "M 300.00 128.91 L 269.53 126.56 L 243.75 152.34 L 227.34 180.47 L 210.94 250.78 L 215.62 351.56 L 234.38 379.69 L 257.81 398.44 L 288.28 410.16 L 353.91 407.81 L 386.72 389.06 L 433.59 318.75 L 445.31 250.78 L 438.28 194.53 L 412.50 173.44 L 351.56 161.72" stroke="black" fill="transparent"/>
</svg>