<?xml version="1.0" encoding="UTF-8" standalone="no"?>
<!--Created with ndjsontosvg (https:https://github.com/thompson318/ndjsontosvg) 
	from the simplified Google quickdraw data set. key_id = 5743972011999232-->
<svg width="600" height="600"
	xmlns="http://www.w3.org/2000/svg">
	xmlns:ndjsontosvg="https://github.com/thompson318/ndjsontosvg"
	xmlns:quickdraw="https://quickdraw.withgoogle.com/data"
	xmlns:scikit-surgery="https://doi.org/10.1007/s11548-020-02180-5">

	<rect width="100%" height="100%" fill="white" />
	<path d = "M 309.38 553.12 L 229.69 581.25 L 166.41 585.94 L 105.47 562.50 L 53.91 517.97 L 18.75 428.91 L 0.00 318.75 L 28.12 208.59 L 63.28 164.06 L 173.44 75.00 L 248.44 25.78 L 316.41 4.69 L 508.59 0.00 L 557.81 103.12 L 583.59 185.16 L 597.66 278.91 L 597.66 400.78 L 571.88 447.66 L 539.06 480.47 L 442.97 513.28 L 283.59 529.69 L 281.25 543.75 L 276.56 543.75" stroke="black" fill="transparent"/>
	<path d = "M 236.72 487.50 L 220.31 454.69 L 208.59 309.38 L 232.03 234.38 L 264.84 189.84 L 321.09 229.69 L 403.12 250.78 L 440.62 292.97 L 454.69 353.91 L 454.69 447.66 L 433.59 510.94 L 419.53 534.38 L 360.94 588.28 L 278.91 595.31 L 86.72 555.47 L 67.97 546.09 L 46.88 517.97" stroke="black" fill="transparent"/>
	<path d = "M 398.44 75.00 L 393.75 124.22" stroke="black" fill="transparent"/>
	<path d = "M 445.31 135.94 L 454.69 225.00" stroke="black" fill="transparent"/>
	<path d = "M 529.69 260.16 L 541.41 276.56 L 532.03 323.44" stroke="black" fill="transparent"/>
	<path d = "M 499.22 435.94 L 487.50 431.25" stroke="black" fill="transparent"/>
</svg>