<?xml version="1.0" encoding="UTF-8" standalone="no"?>
<!--Created with ndjsontosvg (https:https://github.com/thompson318/ndjsontosvg) 
	from the simplified Google quickdraw data set. key_id = 5393994441818112-->
<svg width="600" height="600"
	xmlns="http://www.w3.org/2000/svg">
	xmlns:ndjsontosvg="https://github.com/thompson318/ndjsontosvg"
	xmlns:quickdraw="https://quickdraw.withgoogle.com/data"
	xmlns:scikit-surgery="https://doi.org/10.1007/s11548-020-02180-5">

	<rect width="100%" height="100%" fill="white" />
	<path d = "M 0.00 597.66 L 7.03 194.53 L 35.16 89.06 L 67.97 14.06 L 86.72 2.34 L 105.47 0.00 L 215.62 32.81 L 346.88 39.84 L 403.12 51.56 L 438.28 82.03 L 447.66 138.28 L 442.97 185.16 L 400.78 344.53 L 382.03 508.59 L 360.94 576.56 L 203.91 585.94 L 89.06 583.59 L 18.75 564.84 L 0.00 550.78" stroke="black" fill="transparent"/>
	<path d = "M 77.34 295.31 L 65.62 276.56 L 91.41 276.56 L 110.16 290.62 L 112.50 309.38 L 72.66 314.06 L 60.94 307.03 L 60.94 274.22 L 79.69 264.84 L 105.47 267.19 L 110.16 290.62 L 98.44 302.34 L 72.66 304.69 L 67.97 283.59 L 77.34 276.56 L 98.44 281.25 L 100.78 300.00 L 93.75 302.34 L 91.41 276.56 L 96.09 283.59 L 93.75 290.62 L 89.06 276.56" stroke="black" fill="transparent"/>
</svg>