<?xml version="1.0" encoding="UTF-8" standalone="no"?>
<!--Created with ndjsontosvg (https:https://github.com/thompson318/ndjsontosvg) 
	from the simplified Google quickdraw data set. key_id = 5168707032580096-->
<svg width="600" height="600"
	xmlns="http://www.w3.org/2000/svg">
	xmlns:ndjsontosvg="https://github.com/thompson318/ndjsontosvg"
	xmlns:quickdraw="https://quickdraw.withgoogle.com/data"
	xmlns:scikit-surgery="https://doi.org/10.1007/s11548-020-02180-5">

	<rect width="100%" height="100%" fill="white" />
	<path d = "M 93.75 0.00 L 0.00 597.66 L 201.56 569.53 L 295.31 571.88 L 419.53 585.94 L 454.69 581.25 L 457.03 375.00 L 480.47 89.06 L 473.44 46.88 L 433.59 28.12 L 264.84 2.34 L 128.91 2.34" stroke="black" fill="transparent"/>
	<path d = "M 384.38 356.25 L 377.34 344.53 L 377.34 307.03 L 386.72 297.66 L 410.16 292.97 L 419.53 311.72 L 412.50 339.84 L 386.72 346.88 L 384.38 318.75 L 396.09 309.38 L 405.47 311.72 L 407.81 337.50 L 384.38 346.88 L 382.03 307.03 L 398.44 302.34 L 400.78 328.12 L 391.41 332.81 L 384.38 323.44 L 382.03 309.38 L 391.41 302.34 L 405.47 307.03 L 407.81 328.12 L 386.72 330.47 L 384.38 309.38 L 398.44 304.69 L 405.47 304.69 L 412.50 328.12 L 389.06 335.16 L 375.00 325.78 L 377.34 314.06 L 400.78 311.72 L 403.12 339.84 L 382.03 342.19 L 377.34 321.09 L 386.72 316.41 L 393.75 344.53 L 358.59 342.19" stroke="black" fill="transparent"/>
</svg>