<?xml version="1.0" encoding="UTF-8" standalone="no"?>
<!--Created with ndjsontosvg (https:https://github.com/thompson318/ndjsontosvg) 
	from the simplified Google quickdraw data set. key_id = 6098038026141696-->
<svg width="600" height="600"
	xmlns="http://www.w3.org/2000/svg">
	xmlns:ndjsontosvg="https://github.com/thompson318/ndjsontosvg"
	xmlns:quickdraw="https://quickdraw.withgoogle.com/data"
	xmlns:scikit-surgery="https://doi.org/10.1007/s11548-020-02180-5">

	<rect width="100%" height="100%" fill="white" />
	<path d = "M 239.06 173.44 L 203.91 175.78 L 119.53 150.00 L 70.31 145.31 L 39.84 159.38 L 21.09 182.81" stroke="black" fill="transparent"/>
	<path d = "M 243.75 173.44 L 304.69 173.44 L 337.50 117.19 L 414.84 32.81" stroke="black" fill="transparent"/>
	<path d = "M 304.69 161.72 L 339.84 175.78 L 370.31 175.78 L 412.50 142.97 L 473.44 72.66" stroke="black" fill="transparent"/>
	<path d = "M 393.75 42.19 L 431.25 21.09 L 487.50 16.41 L 525.00 35.16 L 557.81 72.66" stroke="black" fill="transparent"/>
	<path d = "M 433.59 86.72 L 454.69 84.38 L 508.59 126.56 L 564.84 138.28" stroke="black" fill="transparent"/>
	<path d = "M 548.44 60.94 L 550.78 100.78 L 597.66 65.62" stroke="black" fill="transparent"/>
	<path d = "M 539.06 49.22 L 543.75 63.28 L 515.62 98.44 L 517.97 25.78" stroke="black" fill="transparent"/>
	<path d = "M 475.78 16.41 L 499.22 2.34 L 471.09 44.53 L 478.12 0.00" stroke="black" fill="transparent"/>
	<path d = "M 482.81 63.28 L 513.28 16.41 L 503.91 119.53 L 513.28 117.19 L 541.41 84.38 L 553.12 84.38 L 562.50 107.81 L 571.88 175.78" stroke="black" fill="transparent"/>
	<path d = "M 39.84 180.47 L 0.00 189.84 L 58.59 234.38 L 307.03 182.81" stroke="black" fill="transparent"/>
	<path d = "M 70.31 229.69 L 60.94 262.50 L 56.25 325.78 L 44.53 351.56" stroke="black" fill="transparent"/>
	<path d = "M 159.38 213.28 L 152.34 290.62 L 154.69 344.53" stroke="black" fill="transparent"/>
	<path d = "M 225.00 192.19 L 225.00 285.94" stroke="black" fill="transparent"/>
	<path d = "M 435.94 58.59 L 421.88 42.19 L 431.25 44.53 L 435.94 53.91 L 424.22 70.31 L 419.53 51.56 L 426.56 42.19 L 440.62 49.22 L 442.97 65.62 L 433.59 70.31" stroke="black" fill="transparent"/>
</svg>