<?xml version="1.0" encoding="UTF-8" standalone="no"?>
<!--Created with ndjsontosvg (https:https://github.com/thompson318/ndjsontosvg) 
	from the simplified Google quickdraw data set. key_id = 5407574725754880-->
<svg width="600" height="600"
	xmlns="http://www.w3.org/2000/svg">
	xmlns:ndjsontosvg="https://github.com/thompson318/ndjsontosvg"
	xmlns:quickdraw="https://quickdraw.withgoogle.com/data"
	xmlns:scikit-surgery="https://doi.org/10.1007/s11548-020-02180-5">

	<rect width="100%" height="100%" fill="white" />
	<path d = "M 321.09 75.00 L 318.75 67.97 L 330.47 51.56 L 356.25 42.19 L 365.62 51.56 L 365.62 84.38 L 461.72 100.78 L 492.19 86.72 L 501.56 100.78 L 499.22 117.19 L 475.78 185.16 L 454.69 138.28 L 428.91 173.44 L 417.19 126.56 L 393.75 173.44 L 382.03 126.56 L 363.28 159.38 L 339.84 112.50 L 316.41 142.97 L 311.72 117.19" stroke="black" fill="transparent"/>
	<path d = "M 307.03 166.41 L 309.38 180.47 L 328.12 164.06 L 342.19 196.88 L 365.62 178.12 L 386.72 203.91 L 417.19 189.84 L 445.31 213.28 L 461.72 203.91 L 468.75 225.00 L 459.38 241.41 L 435.94 253.12 L 375.00 250.78 L 269.53 208.59" stroke="black" fill="transparent"/>
	<path d = "M 494.53 166.41 L 532.03 150.00 L 550.78 157.03 L 581.25 140.62 L 592.97 145.31" stroke="black" fill="transparent"/>
	<path d = "M 574.22 140.62 L 595.31 161.72 L 590.62 194.53 L 576.56 196.88 L 546.09 185.16 L 525.00 201.56 L 574.22 257.81 L 578.91 276.56 L 508.59 253.12" stroke="black" fill="transparent"/>
	<path d = "M 344.53 63.28 L 346.88 67.97" stroke="black" fill="transparent"/>
	<path d = "M 316.41 79.69 L 295.31 56.25 L 260.16 39.84 L 229.69 37.50 L 182.81 65.62 L 150.00 42.19 L 126.56 39.84 L 86.72 63.28 L 0.00 147.66" stroke="black" fill="transparent"/>
	<path d = "M 255.47 217.97 L 152.34 234.38 L 103.12 227.34 L 72.66 239.06" stroke="black" fill="transparent"/>
	<path d = "M 35.16 100.78 L 30.47 103.12 L 37.50 60.94 L 49.22 21.09 L 67.97 42.19 L 79.69 42.19 L 107.81 14.06 L 124.22 32.81 L 138.28 35.16 L 166.41 7.03 L 178.12 7.03 L 196.88 28.12 L 229.69 0.00 L 243.75 25.78 L 257.81 28.12" stroke="black" fill="transparent"/>
</svg>