<?xml version="1.0" encoding="UTF-8" standalone="no"?>
<!--Created with ndjsontosvg (https:https://github.com/thompson318/ndjsontosvg) 
	from the simplified Google quickdraw data set. key_id = 5076753439522816-->
<svg width="600" height="600"
	xmlns="http://www.w3.org/2000/svg">
	xmlns:ndjsontosvg="https://github.com/thompson318/ndjsontosvg"
	xmlns:quickdraw="https://quickdraw.withgoogle.com/data"
	xmlns:scikit-surgery="https://doi.org/10.1007/s11548-020-02180-5">

	<rect width="100%" height="100%" fill="white" />
	<path d = "M 227.34 257.81 L 189.84 222.66 L 164.06 182.81 L 103.12 60.94 L 60.94 166.41 L 37.50 248.44 L 11.72 349.22 L 0.00 452.34 L 98.44 358.59 L 91.41 391.41 L 96.09 407.81 L 117.19 386.72 L 124.22 417.19 L 135.94 421.88 L 166.41 379.69 L 173.44 421.88 L 199.22 377.34 L 203.91 403.12 L 215.62 412.50 L 229.69 377.34 L 225.00 342.19 L 232.03 335.16" stroke="black" fill="transparent"/>
	<path d = "M 410.16 239.06 L 468.75 192.19 L 499.22 150.00 L 520.31 89.06 L 532.03 2.34 L 571.88 304.69 L 578.91 543.75 L 588.28 567.19 L 597.66 567.19 L 553.12 475.78 L 536.72 457.03 L 522.66 421.88 L 487.50 433.59 L 487.50 405.47 L 464.06 410.16 L 457.03 391.41 L 440.62 389.06 L 431.25 398.44 L 417.19 382.03 L 403.12 382.03 L 377.34 351.56 L 372.66 351.56 L 372.66 365.62 L 382.03 414.84 L 391.41 435.94 L 421.88 466.41 L 421.88 482.81 L 393.75 485.16 L 365.62 464.06 L 358.59 442.97 L 253.12 480.47 L 225.00 478.12 L 220.31 461.72 L 227.34 447.66 L 264.84 438.28 L 267.19 403.12 L 236.72 330.47 L 229.69 321.09 L 225.00 323.44" stroke="black" fill="transparent"/>
	<path d = "M 229.69 250.78 L 250.78 248.44 L 271.88 232.03 L 274.22 208.59 L 262.50 157.03 L 267.19 110.16 L 288.28 96.09 L 311.72 91.41 L 367.97 103.12 L 419.53 135.94 L 431.25 161.72 L 433.59 187.50 L 407.81 210.94 L 407.81 225.00" stroke="black" fill="transparent"/>
	<path d = "M 250.78 107.81 L 232.03 53.91 L 243.75 51.56" stroke="black" fill="transparent"/>
</svg>