<?xml version="1.0" encoding="UTF-8" standalone="no"?>
<!--Created with ndjsontosvg (https:https://github.com/thompson318/ndjsontosvg) 
	from the simplified Google quickdraw data set. key_id = 4874390837657600-->
<svg width="600" height="600"
	xmlns="http://www.w3.org/2000/svg">
	xmlns:ndjsontosvg="https://github.com/thompson318/ndjsontosvg"
	xmlns:quickdraw="https://quickdraw.withgoogle.com/data"
	xmlns:scikit-surgery="https://doi.org/10.1007/s11548-020-02180-5">

	<rect width="100%" height="100%" fill="white" />
	<path d = "M 229.69 107.81 L 332.81 56.25 L 405.47 53.91 L 424.22 67.97 L 386.72 86.72 L 328.12 150.00 L 325.78 210.94 L 330.47 217.97 L 353.91 220.31 L 435.94 171.09 L 440.62 175.78 L 393.75 257.81 L 367.97 281.25 L 335.16 292.97 L 302.34 302.34 L 253.12 302.34 L 194.53 285.94 L 159.38 262.50" stroke="black" fill="transparent"/>
	<path d = "M 246.09 110.16 L 185.16 51.56 L 112.50 25.78 L 0.00 124.22" stroke="black" fill="transparent"/>
	<path d = "M 332.81 138.28 L 358.59 135.94 L 382.03 112.50 L 421.88 135.94 L 459.38 131.25 L 475.78 119.53 L 480.47 84.38 L 445.31 42.19 L 506.25 51.56 L 550.78 51.56 L 578.91 32.81 L 597.66 0.00 L 592.97 46.88 L 578.91 86.72 L 548.44 117.19 L 485.16 128.91 L 454.69 180.47 L 431.25 199.22 L 304.69 192.19" stroke="black" fill="transparent"/>
</svg>