<?xml version="1.0" encoding="UTF-8" standalone="no"?>
<!--Created with ndjsontosvg (https:https://github.com/thompson318/ndjsontosvg) 
	from the simplified Google quickdraw data set. key_id = 5682005079490560-->
<svg width="600" height="600"
	xmlns="http://www.w3.org/2000/svg">
	xmlns:ndjsontosvg="https://github.com/thompson318/ndjsontosvg"
	xmlns:quickdraw="https://quickdraw.withgoogle.com/data"
	xmlns:scikit-surgery="https://doi.org/10.1007/s11548-020-02180-5">

	<rect width="100%" height="100%" fill="white" />
	<path d = "M 16.41 14.06 L 16.41 260.16 L 0.00 597.66 L 72.66 588.28 L 232.03 592.97 L 414.84 585.94 L 466.41 567.19 L 447.66 351.56 L 445.31 185.16 L 426.56 28.12 L 335.16 0.00 L 84.38 0.00 L 46.88 7.03" stroke="black" fill="transparent"/>
	<path d = "M 182.81 9.38 L 182.81 37.50 L 206.25 79.69 L 229.69 173.44 L 229.69 241.41 L 206.25 304.69 L 182.81 403.12 L 182.81 492.19 L 217.97 539.06" stroke="black" fill="transparent"/>
	<path d = "M 351.56 307.03 L 349.22 307.03" stroke="black" fill="transparent"/>
	<path d = "M 349.22 307.03 L 349.22 311.72" stroke="black" fill="transparent"/>
	<path d = "M 114.84 271.88 L 110.16 274.22" stroke="black" fill="transparent"/>
	<path d = "M 110.16 271.88 L 110.16 271.88" stroke="black" fill="transparent"/>
</svg>