<?xml version="1.0" encoding="UTF-8" standalone="no"?>
<!--Created with ndjsontosvg (https:https://github.com/thompson318/ndjsontosvg) 
	from the simplified Google quickdraw data set. key_id = 5253129111076864-->
<svg width="600" height="600"
	xmlns="http://www.w3.org/2000/svg">
	xmlns:ndjsontosvg="https://github.com/thompson318/ndjsontosvg"
	xmlns:quickdraw="https://quickdraw.withgoogle.com/data"
	xmlns:scikit-surgery="https://doi.org/10.1007/s11548-020-02180-5">

	<rect width="100%" height="100%" fill="white" />
	<path d = "M 23.44 58.59 L 464.06 16.41 L 578.91 14.06" stroke="black" fill="transparent"/>
	<path d = "M 9.38 67.97 L 14.06 145.31 L 4.69 236.72 L 0.00 480.47 L 9.38 548.44 L 28.12 578.91" stroke="black" fill="transparent"/>
	<path d = "M 567.19 0.00 L 562.50 103.12 L 569.53 281.25 L 560.16 454.69 L 541.41 525.00" stroke="black" fill="transparent"/>
	<path d = "M 14.06 576.56 L 297.66 597.66 L 339.84 595.31 L 433.59 571.88 L 550.78 557.81" stroke="black" fill="transparent"/>
	<path d = "M 46.88 124.22 L 46.88 264.84 L 56.25 311.72" stroke="black" fill="transparent"/>
	<path d = "M 53.91 114.84 L 246.09 105.47 L 400.78 110.16 L 457.03 98.44 L 475.78 178.12 L 482.81 290.62" stroke="black" fill="transparent"/>
	<path d = "M 72.66 297.66 L 121.88 285.94 L 311.72 290.62 L 478.12 278.91" stroke="black" fill="transparent"/>
	<path d = "M 42.19 375.00 L 35.16 548.44 L 46.88 550.78 L 133.59 532.03 L 506.25 513.28 L 508.59 454.69 L 496.88 400.78 L 489.84 393.75 L 321.09 370.31 L 157.03 367.97" stroke="black" fill="transparent"/>
</svg>