<?xml version="1.0" encoding="UTF-8" standalone="no"?>
<!--Created with ndjsontosvg (https:https://github.com/thompson318/ndjsontosvg) 
	from the simplified Google quickdraw data set. key_id = 5326513421418496-->
<svg width="600" height="600"
	xmlns="http://www.w3.org/2000/svg">
	xmlns:ndjsontosvg="https://github.com/thompson318/ndjsontosvg"
	xmlns:quickdraw="https://quickdraw.withgoogle.com/data"
	xmlns:scikit-surgery="https://doi.org/10.1007/s11548-020-02180-5">

	<rect width="100%" height="100%" fill="white" />
	<path d = "M 393.75 53.91 L 379.69 46.88 L 264.84 32.81 L 119.53 35.16 L 32.81 86.72 L 0.00 89.06 L 32.81 489.84 L 28.12 597.66 L 321.09 581.25 L 480.47 581.25 L 492.19 447.66 L 459.38 281.25 L 450.00 150.00 L 452.34 75.00 L 473.44 2.34 L 300.00 9.38" stroke="black" fill="transparent"/>
	<path d = "M 222.66 2.34 L 215.62 9.38 L 217.97 220.31 L 234.38 578.91" stroke="black" fill="transparent"/>
	<path d = "M 337.50 274.22 L 337.50 274.22" stroke="black" fill="transparent"/>
	<path d = "M 121.88 314.06 L 121.88 314.06" stroke="black" fill="transparent"/>
	<path d = "M 112.50 307.03 L 107.81 318.75 L 114.84 304.69 L 114.84 314.06" stroke="black" fill="transparent"/>
	<path d = "M 360.94 290.62 L 358.59 278.91 L 363.28 290.62" stroke="black" fill="transparent"/>
</svg>