<?xml version="1.0" encoding="UTF-8" standalone="no"?>
<!--Created with ndjsontosvg (https:https://github.com/thompson318/ndjsontosvg) 
	from the simplified Google quickdraw data set. key_id = 5185129993469952-->
<svg width="600" height="600"
	xmlns="http://www.w3.org/2000/svg">
	xmlns:ndjsontosvg="https://github.com/thompson318/ndjsontosvg"
	xmlns:quickdraw="https://quickdraw.withgoogle.com/data"
	xmlns:scikit-surgery="https://doi.org/10.1007/s11548-020-02180-5">

	<rect width="100%" height="100%" fill="white" />
	<path d = "M 30.47 370.31 L 14.06 318.75 L 2.34 234.38 L 0.00 53.91 L 46.88 46.88 L 192.19 44.53 L 297.66 16.41 L 363.28 4.69 L 517.97 7.03 L 548.44 0.00 L 557.81 18.75 L 576.56 203.91 L 597.66 328.12 L 391.41 344.53 L 124.22 386.72 L 25.78 386.72 L 14.06 377.34" stroke="black" fill="transparent"/>
	<path d = "M 4.69 161.72 L 227.34 140.62 L 595.31 119.53" stroke="black" fill="transparent"/>
	<path d = "M 4.69 257.81 L 100.78 250.78 L 278.91 199.22 L 342.19 192.19 L 461.72 192.19 L 583.59 217.97" stroke="black" fill="transparent"/>
	<path d = "M 262.50 274.22 L 255.47 300.00 L 271.88 307.03 L 292.97 307.03 L 278.91 274.22 L 246.09 269.53" stroke="black" fill="transparent"/>
	<path d = "M 264.84 65.62 L 243.75 86.72 L 267.19 91.41 L 271.88 82.03 L 269.53 72.66" stroke="black" fill="transparent"/>
</svg>