<?xml version="1.0" encoding="UTF-8" standalone="no"?>
<!--Created with ndjsontosvg (https:https://github.com/thompson318/ndjsontosvg) 
	from the simplified Google quickdraw data set. key_id = 4991254951624704-->
<svg width="600" height="600"
	xmlns="http://www.w3.org/2000/svg">
	xmlns:ndjsontosvg="https://github.com/thompson318/ndjsontosvg"
	xmlns:quickdraw="https://quickdraw.withgoogle.com/data"
	xmlns:scikit-surgery="https://doi.org/10.1007/s11548-020-02180-5">

	<rect width="100%" height="100%" fill="white" />
	<path d = "M 597.66 77.34 L 393.75 84.38" stroke="black" fill="transparent"/>
	<path d = "M 379.69 79.69 L 367.97 51.56 L 344.53 30.47 L 253.12 0.00 L 189.84 4.69 L 103.12 39.84 L 91.41 58.59 L 86.72 98.44 L 103.12 363.28 L 86.72 389.06 L 28.12 407.81 L 7.03 426.56 L 0.00 450.00 L 14.06 461.72 L 145.31 464.06 L 260.16 445.31 L 264.84 419.53 L 255.47 398.44 L 222.66 372.66 L 164.06 351.56 L 152.34 339.84 L 150.00 260.16 L 166.41 171.09 L 185.16 135.94 L 225.00 117.19 L 389.06 96.09" stroke="black" fill="transparent"/>
</svg>