<?xml version="1.0" encoding="UTF-8" standalone="no"?>
<!--Created with ndjsontosvg (https:https://github.com/thompson318/ndjsontosvg) 
	from the simplified Google quickdraw data set. key_id = 5880903672791040-->
<svg width="600" height="600"
	xmlns="http://www.w3.org/2000/svg">
	xmlns:ndjsontosvg="https://github.com/thompson318/ndjsontosvg"
	xmlns:quickdraw="https://quickdraw.withgoogle.com/data"
	xmlns:scikit-surgery="https://doi.org/10.1007/s11548-020-02180-5">

	<rect width="100%" height="100%" fill="white" />
	<path d = "M 187.50 164.06 L 28.12 192.19 L 11.72 208.59 L 0.00 239.06 L 4.69 260.16 L 28.12 283.59 L 152.34 335.16 L 281.25 363.28 L 353.91 370.31 L 457.03 365.62 L 487.50 332.81 L 496.88 292.97 L 480.47 260.16 L 440.62 227.34 L 391.41 199.22 L 342.19 187.50 L 269.53 178.12 L 203.91 178.12" stroke="black" fill="transparent"/>
	<path d = "M 4.69 262.50 L 46.88 412.50 L 77.34 485.16 L 103.12 520.31 L 128.91 539.06 L 194.53 560.16 L 304.69 562.50 L 379.69 546.09 L 426.56 525.00 L 452.34 485.16 L 492.19 379.69 L 489.84 332.81" stroke="black" fill="transparent"/>
	<path d = "M 386.72 121.88 L 382.03 110.16 L 386.72 100.78 L 412.50 86.72 L 424.22 86.72 L 478.12 147.66 L 475.78 164.06 L 457.03 171.09 L 428.91 171.09 L 407.81 154.69 L 393.75 135.94 L 405.47 119.53" stroke="black" fill="transparent"/>
	<path d = "M 440.62 98.44 L 492.19 56.25 L 597.66 0.00 L 529.69 60.94 L 496.88 103.12 L 466.41 119.53" stroke="black" fill="transparent"/>
</svg>