<?xml version="1.0" encoding="UTF-8" standalone="no"?>
<!--Created with ndjsontosvg (https:https://github.com/thompson318/ndjsontosvg) 
	from the simplified Google quickdraw data set. key_id = 4975491146579968-->
<svg width="600" height="600"
	xmlns="http://www.w3.org/2000/svg">
	xmlns:ndjsontosvg="https://github.com/thompson318/ndjsontosvg"
	xmlns:quickdraw="https://quickdraw.withgoogle.com/data"
	xmlns:scikit-surgery="https://doi.org/10.1007/s11548-020-02180-5">

	<rect width="100%" height="100%" fill="white" />
	<path d = "M 60.94 140.62 L 42.19 140.62 L 23.44 157.03 L 0.00 222.66 L 16.41 262.50 L 56.25 274.22 L 93.75 269.53 L 121.88 248.44 L 133.59 225.00 L 135.94 182.81 L 126.56 157.03 L 98.44 131.25 L 67.97 128.91 L 46.88 140.62" stroke="black" fill="transparent"/>
	<path d = "M 107.81 257.81 L 135.94 311.72" stroke="black" fill="transparent"/>
	<path d = "M 138.28 290.62 L 124.22 332.81 L 142.97 367.97 L 166.41 367.97 L 203.91 353.91 L 234.38 325.78 L 243.75 288.28 L 234.38 276.56 L 208.59 267.19 L 145.31 288.28 L 114.84 325.78" stroke="black" fill="transparent"/>
	<path d = "M 248.44 309.38 L 318.75 311.72" stroke="black" fill="transparent"/>
	<path d = "M 314.06 250.78 L 302.34 278.91 L 300.00 311.72 L 304.69 323.44 L 325.78 339.84 L 365.62 346.88 L 398.44 330.47 L 414.84 304.69 L 417.19 260.16 L 407.81 234.38 L 372.66 215.62 L 339.84 222.66 L 309.38 248.44" stroke="black" fill="transparent"/>
	<path d = "M 414.84 222.66 L 454.69 86.72" stroke="black" fill="transparent"/>
	<path d = "M 496.88 39.84 L 459.38 70.31 L 442.97 112.50 L 442.97 131.25 L 454.69 152.34 L 475.78 166.41 L 503.91 171.09 L 536.72 164.06 L 574.22 142.97 L 597.66 105.47 L 592.97 70.31 L 569.53 23.44 L 534.38 2.34 L 506.25 2.34 L 466.41 25.78 L 435.94 65.62" stroke="black" fill="transparent"/>
	<path d = "M 225.00 82.03 L 253.12 159.38 L 255.47 201.56 L 274.22 206.25 L 292.97 194.53 L 290.62 152.34 L 250.78 72.66 L 239.06 67.97 L 217.97 96.09" stroke="black" fill="transparent"/>
	<path d = "M 304.69 53.91 L 328.12 98.44 L 339.84 145.31" stroke="black" fill="transparent"/>
</svg>