<?xml version="1.0" encoding="UTF-8" standalone="no"?>
<!--Created with ndjsontosvg (https:https://github.com/thompson318/ndjsontosvg) 
	from the simplified Google quickdraw data set. key_id = 5084443532328960-->
<svg width="600" height="600"
	xmlns="http://www.w3.org/2000/svg">
	xmlns:ndjsontosvg="https://github.com/thompson318/ndjsontosvg"
	xmlns:quickdraw="https://quickdraw.withgoogle.com/data"
	xmlns:scikit-surgery="https://doi.org/10.1007/s11548-020-02180-5">

	<rect width="100%" height="100%" fill="white" />
	<path d = "M 23.44 119.53 L 11.72 173.44 L 0.00 292.97 L 60.94 314.06 L 168.75 318.75 L 241.41 307.03 L 290.62 281.25" stroke="black" fill="transparent"/>
	<path d = "M 30.47 126.56 L 82.03 135.94 L 131.25 135.94 L 246.09 114.84 L 269.53 236.72 L 288.28 288.28" stroke="black" fill="transparent"/>
	<path d = "M 28.12 117.19 L 39.84 93.75 L 63.28 79.69 L 110.16 67.97 L 161.72 65.62 L 241.41 91.41 L 262.50 112.50 L 264.84 124.22" stroke="black" fill="transparent"/>
	<path d = "M 351.56 121.88 L 353.91 285.94 L 520.31 281.25 L 597.66 269.53 L 576.56 79.69 L 356.25 117.19 L 344.53 112.50 L 358.59 77.34 L 379.69 53.91 L 447.66 23.44 L 485.16 16.41 L 510.94 18.75 L 536.72 39.84 L 560.16 86.72" stroke="black" fill="transparent"/>
	<path d = "M 79.69 138.28 L 46.88 300.00" stroke="black" fill="transparent"/>
	<path d = "M 142.97 128.91 L 147.66 304.69" stroke="black" fill="transparent"/>
	<path d = "M 220.31 117.19 L 215.62 264.84 L 222.66 295.31" stroke="black" fill="transparent"/>
	<path d = "M 236.72 46.88 L 267.19 9.38" stroke="black" fill="transparent"/>
	<path d = "M 138.28 32.81 L 138.28 11.72" stroke="black" fill="transparent"/>
	<path d = "M 42.19 37.50 L 32.81 23.44 L 30.47 0.00" stroke="black" fill="transparent"/>
</svg>