<?xml version="1.0" encoding="UTF-8" standalone="no"?>
<!--Created with ndjsontosvg (https:https://github.com/thompson318/ndjsontosvg) 
	from the simplified Google quickdraw data set. key_id = 5509889180827648-->
<svg width="600" height="600"
	xmlns="http://www.w3.org/2000/svg">
	xmlns:ndjsontosvg="https://github.com/thompson318/ndjsontosvg"
	xmlns:quickdraw="https://quickdraw.withgoogle.com/data"
	xmlns:scikit-surgery="https://doi.org/10.1007/s11548-020-02180-5">

	<rect width="100%" height="100%" fill="white" />
	<path d = "M 49.22 9.38 L 96.09 9.38 L 147.66 28.12 L 173.44 46.88 L 178.12 67.97 L 140.62 77.34 L 75.00 58.59 L 37.50 32.81 L 23.44 14.06 L 28.12 0.00 L 53.91 4.69" stroke="black" fill="transparent"/>
	<path d = "M 28.12 2.34 L 14.06 119.53" stroke="black" fill="transparent"/>
	<path d = "M 168.75 75.00 L 173.44 70.31 L 178.12 82.03 L 150.00 166.41 L 145.31 168.75 L 84.38 154.69 L 0.00 119.53" stroke="black" fill="transparent"/>
	<path d = "M 433.59 77.34 L 471.09 37.50 L 525.00 35.16 L 539.06 56.25 L 529.69 89.06 L 510.94 107.81 L 468.75 121.88 L 457.03 119.53 L 435.94 100.78 L 435.94 75.00 L 482.81 32.81" stroke="black" fill="transparent"/>
	<path d = "M 435.94 79.69 L 447.66 133.59 L 478.12 168.75 L 517.97 182.81 L 562.50 175.78 L 595.31 150.00 L 595.31 117.19 L 574.22 79.69 L 529.69 49.22" stroke="black" fill="transparent"/>
</svg>