<?xml version="1.0" encoding="UTF-8" standalone="no"?>
<!--Created with ndjsontosvg (https:https://github.com/thompson318/ndjsontosvg) 
	from the simplified Google quickdraw data set. key_id = 6627727366946816-->
<svg width="600" height="600"
	xmlns="http://www.w3.org/2000/svg">
	xmlns:ndjsontosvg="https://github.com/thompson318/ndjsontosvg"
	xmlns:quickdraw="https://quickdraw.withgoogle.com/data"
	xmlns:scikit-surgery="https://doi.org/10.1007/s11548-020-02180-5">

	<rect width="100%" height="100%" fill="white" />
	<path d = "M 506.25 154.69 L 321.09 152.34 L 295.31 114.84 L 288.28 72.66 L 330.47 30.47 L 360.94 16.41 L 393.75 4.69 L 454.69 0.00 L 557.81 53.91 L 569.53 77.34 L 569.53 105.47 L 532.03 140.62 L 480.47 166.41" stroke="black" fill="transparent"/>
	<path d = "M 581.25 86.72 L 581.25 117.19 L 592.97 131.25 L 597.66 159.38 L 597.66 215.62 L 564.84 269.53" stroke="black" fill="transparent"/>
	<path d = "M 241.41 112.50 L 281.25 168.75 L 300.00 208.59 L 302.34 276.56 L 316.41 285.94 L 410.16 276.56 L 461.72 285.94 L 588.28 288.28 L 576.56 276.56" stroke="black" fill="transparent"/>
	<path d = "M 241.41 107.81 L 241.41 107.81" stroke="black" fill="transparent"/>
	<path d = "M 159.38 117.19 L 142.97 117.19 L 65.62 154.69 L 23.44 159.38 L 9.38 150.00 L 0.00 126.56 L 0.00 72.66 L 39.84 37.50 L 82.03 14.06 L 128.91 0.00 L 173.44 0.00 L 215.62 28.12 L 227.34 42.19 L 241.41 100.78 L 206.25 131.25 L 152.34 142.97" stroke="black" fill="transparent"/>
	<path d = "M 225.00 110.16 L 225.00 250.78 L 210.94 274.22" stroke="black" fill="transparent"/>
	<path d = "M 42.19 135.94 L 42.19 189.84 L 63.28 213.28 L 72.66 257.81 L 171.09 248.44" stroke="black" fill="transparent"/>
</svg>