<?xml version="1.0" encoding="UTF-8" standalone="no"?>
<!--Created with ndjsontosvg (https:https://github.com/thompson318/ndjsontosvg) 
	from the simplified Google quickdraw data set. key_id = 5979510820306944-->
<svg width="600" height="600"
	xmlns="http://www.w3.org/2000/svg">
	xmlns:ndjsontosvg="https://github.com/thompson318/ndjsontosvg"
	xmlns:quickdraw="https://quickdraw.withgoogle.com/data"
	xmlns:scikit-surgery="https://doi.org/10.1007/s11548-020-02180-5">

	<rect width="100%" height="100%" fill="white" />
	<path d = "M 370.31 142.97 L 353.91 140.62 L 344.53 121.88 L 335.16 53.91 L 349.22 23.44 L 372.66 2.34 L 400.78 0.00 L 440.62 14.06 L 457.03 30.47 L 459.38 58.59 L 564.84 63.28 L 595.31 70.31 L 592.97 82.03 L 548.44 96.09 L 454.69 103.12" stroke="black" fill="transparent"/>
	<path d = "M 571.88 86.72 L 553.12 98.44 L 450.00 107.81 L 457.03 159.38 L 431.25 229.69 L 389.06 264.84 L 321.09 285.94 L 278.91 288.28 L 103.12 262.50 L 9.38 182.81 L 4.69 152.34 L 18.75 154.69 L 35.16 171.09 L 4.69 133.59 L 0.00 112.50 L 18.75 112.50 L 67.97 140.62 L 42.19 105.47 L 53.91 93.75 L 75.00 93.75 L 133.59 117.19 L 239.06 135.94" stroke="black" fill="transparent"/>
</svg>