<?xml version="1.0" encoding="UTF-8" standalone="no"?>
<!--Created with ndjsontosvg (https:https://github.com/thompson318/ndjsontosvg) 
	from the simplified Google quickdraw data set. key_id = 5698632323956736-->
<svg width="600" height="600"
	xmlns="http://www.w3.org/2000/svg">
	xmlns:ndjsontosvg="https://github.com/thompson318/ndjsontosvg"
	xmlns:quickdraw="https://quickdraw.withgoogle.com/data"
	xmlns:scikit-surgery="https://doi.org/10.1007/s11548-020-02180-5">

	<rect width="100%" height="100%" fill="white" />
	<path d = "M 309.38 18.75 L 278.91 4.69 L 210.94 0.00 L 135.94 28.12 L 0.00 161.72 L 67.97 152.34 L 142.97 117.19 L 35.16 161.72 L 60.94 168.75 L 194.53 164.06 L 201.56 227.34 L 225.00 316.41 L 178.12 325.78 L 154.69 365.62 L 159.38 426.56 L 182.81 473.44 L 203.91 489.84 L 271.88 501.56 L 321.09 501.56 L 365.62 489.84 L 452.34 450.00 L 494.53 419.53 L 560.16 344.53 L 585.94 283.59 L 597.66 220.31 L 583.59 229.69 L 555.47 269.53 L 513.28 302.34 L 473.44 330.47 L 424.22 346.88 L 454.69 342.19 L 513.28 307.03 L 574.22 255.47 L 581.25 232.03 L 567.19 222.66 L 501.56 264.84 L 384.38 311.72 L 375.00 300.00 L 349.22 199.22 L 360.94 154.69 L 358.59 110.16 L 330.47 70.31 L 292.97 49.22" stroke="black" fill="transparent"/>
</svg>