<?xml version="1.0" encoding="UTF-8" standalone="no"?>
<!--Created with ndjsontosvg (https:https://github.com/thompson318/ndjsontosvg) 
	from the simplified Google quickdraw data set. key_id = 4563985095458816-->
<svg width="600" height="600"
	xmlns="http://www.w3.org/2000/svg">
	xmlns:ndjsontosvg="https://github.com/thompson318/ndjsontosvg"
	xmlns:quickdraw="https://quickdraw.withgoogle.com/data"
	xmlns:scikit-surgery="https://doi.org/10.1007/s11548-020-02180-5">

	<rect width="100%" height="100%" fill="white" />
	<path d = "M 464.06 67.97 L 550.78 67.97 L 597.66 79.69 L 457.03 72.66 L 468.75 82.03 L 576.56 100.78 L 475.78 72.66 L 555.47 93.75 L 574.22 93.75 L 562.50 89.06 L 513.28 79.69 L 592.97 91.41 L 496.88 72.66 L 459.38 9.38 L 419.53 0.00 L 393.75 42.19 L 400.78 194.53" stroke="black" fill="transparent"/>
	<path d = "M 492.19 84.38 L 478.12 91.41 L 475.78 107.81 L 471.09 199.22" stroke="black" fill="transparent"/>
	<path d = "M 417.19 187.50 L 407.81 192.19 L 398.44 217.97 L 384.38 229.69 L 260.16 232.03 L 171.09 178.12 L 135.94 140.62 L 96.09 119.53 L 2.34 121.88 L 0.00 128.91 L 82.03 178.12 L 119.53 210.94 L 58.59 161.72 L 18.75 138.28 L 21.09 145.31" stroke="black" fill="transparent"/>
</svg>