<?xml version="1.0" encoding="UTF-8" standalone="no"?>
<!--Created with ndjsontosvg (https:https://github.com/thompson318/ndjsontosvg) 
	from the simplified Google quickdraw data set. key_id = 5755062859071488-->
<svg width="600" height="600"
	xmlns="http://www.w3.org/2000/svg">
	xmlns:ndjsontosvg="https://github.com/thompson318/ndjsontosvg"
	xmlns:quickdraw="https://quickdraw.withgoogle.com/data"
	xmlns:scikit-surgery="https://doi.org/10.1007/s11548-020-02180-5">

	<rect width="100%" height="100%" fill="white" />
	<path d = "M 229.69 250.78 L 178.12 407.81 L 173.44 478.12 L 182.81 520.31 L 225.00 567.19 L 302.34 595.31 L 360.94 597.66 L 412.50 585.94 L 438.28 571.88 L 487.50 539.06 L 525.00 492.19 L 564.84 407.81 L 571.88 360.94 L 555.47 302.34 L 522.66 276.56 L 482.81 274.22 L 372.66 304.69 L 358.59 292.97 L 351.56 278.91 L 353.91 250.78 L 389.06 182.81 L 396.09 147.66" stroke="black" fill="transparent"/>
	<path d = "M 234.38 232.03 L 89.06 246.09 L 42.19 243.75 L 9.38 227.34 L 2.34 210.94 L 2.34 182.81 L 11.72 166.41 L 39.84 150.00 L 84.38 142.97 L 164.06 147.66 L 185.16 138.28 L 229.69 100.78 L 264.84 35.16 L 307.03 4.69 L 353.91 0.00 L 389.06 7.03 L 419.53 28.12 L 435.94 58.59 L 426.56 93.75 L 393.75 145.31 L 382.03 159.38 L 360.94 166.41" stroke="black" fill="transparent"/>
	<path d = "M 309.38 53.91 L 314.06 65.62 L 302.34 58.59 L 318.75 63.28" stroke="black" fill="transparent"/>
	<path d = "M 243.75 391.41 L 236.72 405.47 L 246.09 454.69 L 264.84 485.16 L 332.81 508.59 L 407.81 506.25 L 435.94 487.50 L 457.03 454.69 L 471.09 405.47 L 466.41 389.06 L 450.00 382.03 L 358.59 382.03 L 309.38 358.59" stroke="black" fill="transparent"/>
</svg>