<?xml version="1.0" encoding="UTF-8" standalone="no"?>
<!--Created with ndjsontosvg (https:https://github.com/thompson318/ndjsontosvg) 
	from the simplified Google quickdraw data set. key_id = 6415864532303872-->
<svg width="600" height="600"
	xmlns="http://www.w3.org/2000/svg">
	xmlns:ndjsontosvg="https://github.com/thompson318/ndjsontosvg"
	xmlns:quickdraw="https://quickdraw.withgoogle.com/data"
	xmlns:scikit-surgery="https://doi.org/10.1007/s11548-020-02180-5">

	<rect width="100%" height="100%" fill="white" />
	<path d = "M 487.50 4.69 L 431.25 0.00 L 410.16 7.03 L 384.38 46.88 L 382.03 103.12 L 389.06 133.59 L 414.84 161.72 L 445.31 173.44 L 489.84 173.44 L 555.47 147.66 L 569.53 119.53 L 546.09 91.41 L 440.62 16.41" stroke="black" fill="transparent"/>
	<path d = "M 428.91 103.12 L 543.75 93.75 L 583.59 112.50 L 597.66 154.69 L 583.59 168.75 L 499.22 173.44 L 457.03 157.03 L 428.91 105.47" stroke="black" fill="transparent"/>
	<path d = "M 393.75 161.72 L 342.19 309.38" stroke="black" fill="transparent"/>
	<path d = "M 417.19 168.75 L 417.19 168.75" stroke="black" fill="transparent"/>
	<path d = "M 330.47 309.38 L 316.41 297.66 L 201.56 255.47 L 112.50 236.72 L 67.97 241.41 L 28.12 278.91 L 14.06 307.03 L 0.00 370.31 L 0.00 464.06 L 30.47 501.56 L 98.44 517.97 L 225.00 527.34 L 271.88 508.59 L 321.09 471.09 L 377.34 400.78 L 386.72 375.00 L 384.38 325.78 L 316.41 267.19" stroke="black" fill="transparent"/>
	<path d = "M 185.16 351.56 L 161.72 215.62 L 161.72 152.34 L 171.09 138.28 L 196.88 131.25 L 213.28 145.31 L 239.06 217.97 L 241.41 253.12 L 241.41 356.25 L 171.09 358.59" stroke="black" fill="transparent"/>
</svg>