<?xml version="1.0" encoding="UTF-8" standalone="no"?>
<!--Created with ndjsontosvg (https:https://github.com/thompson318/ndjsontosvg) 
	from the simplified Google quickdraw data set. key_id = 6717740855328768-->
<svg width="600" height="600"
	xmlns="http://www.w3.org/2000/svg">
	xmlns:ndjsontosvg="https://github.com/thompson318/ndjsontosvg"
	xmlns:quickdraw="https://quickdraw.withgoogle.com/data"
	xmlns:scikit-surgery="https://doi.org/10.1007/s11548-020-02180-5">

	<rect width="100%" height="100%" fill="white" />
	<path d = "M 84.38 276.56 L 16.41 271.88 L 0.00 257.81 L 7.03 229.69 L 23.44 206.25 L 39.84 199.22 L 114.84 227.34 L 171.09 210.94 L 178.12 194.53 L 145.31 159.38 L 140.62 142.97 L 171.09 100.78 L 243.75 82.03 L 379.69 89.06 L 396.09 49.22 L 450.00 14.06 L 574.22 21.09 L 583.59 2.34 L 592.97 0.00 L 595.31 23.44 L 571.88 70.31 L 478.12 82.03 L 478.12 105.47 L 464.06 124.22 L 372.66 124.22 L 344.53 161.72 L 342.19 215.62 L 318.75 239.06 L 304.69 246.09 L 271.88 236.72 L 199.22 241.41 L 196.88 276.56 L 175.78 351.56 L 229.69 353.91 L 229.69 372.66 L 217.97 391.41 L 131.25 382.03 L 133.59 356.25 L 154.69 314.06 L 147.66 278.91 L 135.94 271.88 L 79.69 278.91" stroke="black" fill="transparent"/>
</svg>