<?xml version="1.0" encoding="UTF-8" standalone="no"?>
<!--Created with ndjsontosvg (https:https://github.com/thompson318/ndjsontosvg) 
	from the simplified Google quickdraw data set. key_id = 6190558869454848-->
<svg width="600" height="600"
	xmlns="http://www.w3.org/2000/svg">
	xmlns:ndjsontosvg="https://github.com/thompson318/ndjsontosvg"
	xmlns:quickdraw="https://quickdraw.withgoogle.com/data"
	xmlns:scikit-surgery="https://doi.org/10.1007/s11548-020-02180-5">

	<rect width="100%" height="100%" fill="white" />
	<path d = "M 147.66 105.47 L 473.44 164.06" stroke="black" fill="transparent"/>
	<path d = "M 459.38 173.44 L 471.09 121.88 L 494.53 82.03 L 529.69 60.94 L 548.44 65.62 L 567.19 82.03 L 595.31 150.00 L 595.31 201.56 L 578.91 243.75 L 534.38 278.91 L 489.84 278.91 L 457.03 262.50 L 445.31 239.06 L 438.28 175.78" stroke="black" fill="transparent"/>
	<path d = "M 75.00 2.34 L 91.41 11.72 L 110.16 37.50 L 128.91 91.41 L 140.62 152.34 L 126.56 199.22 L 110.16 215.62 L 70.31 222.66 L 42.19 206.25 L 16.41 171.09 L 0.00 105.47 L 14.06 46.88 L 51.56 0.00" stroke="black" fill="transparent"/>
</svg>