<?xml version="1.0" encoding="UTF-8" standalone="no"?>
<!--Created with ndjsontosvg (https:https://github.com/thompson318/ndjsontosvg) 
	from the simplified Google quickdraw data set. key_id = 5890850968043520-->
<svg width="600" height="600"
	xmlns="http://www.w3.org/2000/svg">
	xmlns:ndjsontosvg="https://github.com/thompson318/ndjsontosvg"
	xmlns:quickdraw="https://quickdraw.withgoogle.com/data"
	xmlns:scikit-surgery="https://doi.org/10.1007/s11548-020-02180-5">

	<rect width="100%" height="100%" fill="white" />
	<path d = "M 185.16 58.59 L 152.34 4.69 L 105.47 0.00 L 49.22 30.47 L 18.75 77.34 L 0.00 154.69 L 7.03 210.94 L 32.81 253.12 L 82.03 278.91 L 107.81 281.25 L 229.69 152.34 L 222.66 107.81 L 185.16 63.28 L 201.56 110.16 L 180.47 243.75 L 171.09 260.16 L 145.31 271.88 L 89.06 271.88" stroke="black" fill="transparent"/>
	<path d = "M 208.59 110.16 L 351.56 100.78" stroke="black" fill="transparent"/>
	<path d = "M 192.19 140.62 L 356.25 145.31" stroke="black" fill="transparent"/>
	<path d = "M 489.84 18.75 L 466.41 14.06 L 433.59 23.44 L 360.94 70.31 L 349.22 105.47 L 349.22 164.06 L 358.59 208.59 L 578.91 196.88 L 585.94 187.50 L 597.66 121.88 L 574.22 63.28 L 539.06 30.47 L 475.78 25.78 L 396.09 56.25 L 358.59 89.06 L 337.50 154.69 L 344.53 239.06 L 520.31 278.91 L 562.50 246.09 L 578.91 220.31" stroke="black" fill="transparent"/>
</svg>