<?xml version="1.0" encoding="UTF-8" standalone="no"?>
<!--Created with ndjsontosvg (https:https://github.com/thompson318/ndjsontosvg) 
	from the simplified Google quickdraw data set. key_id = 5723931140947968-->
<svg width="600" height="600"
	xmlns="http://www.w3.org/2000/svg">
	xmlns:ndjsontosvg="https://github.com/thompson318/ndjsontosvg"
	xmlns:quickdraw="https://quickdraw.withgoogle.com/data"
	xmlns:scikit-surgery="https://doi.org/10.1007/s11548-020-02180-5">

	<rect width="100%" height="100%" fill="white" />
	<path d = "M 79.69 175.78 L 262.50 199.22 L 410.16 194.53" stroke="black" fill="transparent"/>
	<path d = "M 77.34 292.97 L 400.78 295.31 L 407.81 311.72 L 407.81 417.19 L 414.84 459.38 L 438.28 485.16 L 454.69 492.19 L 485.16 489.84 L 522.66 468.75 L 555.47 435.94 L 590.62 365.62 L 597.66 210.94 L 585.94 164.06 L 557.81 93.75 L 532.03 56.25 L 475.78 16.41 L 421.88 11.72 L 407.81 28.12 L 393.75 117.19 L 393.75 239.06 L 407.81 283.59" stroke="black" fill="transparent"/>
	<path d = "M 86.72 168.75 L 77.34 103.12 L 58.59 44.53 L 28.12 4.69 L 0.00 0.00" stroke="black" fill="transparent"/>
</svg>