<?xml version="1.0" encoding="UTF-8" standalone="no"?>
<!--Created with ndjsontosvg (https:https://github.com/thompson318/ndjsontosvg) 
	from the simplified Google quickdraw data set. key_id = 6408268278661120-->
<svg width="600" height="600"
	xmlns="http://www.w3.org/2000/svg">
	xmlns:ndjsontosvg="https://github.com/thompson318/ndjsontosvg"
	xmlns:quickdraw="https://quickdraw.withgoogle.com/data"
	xmlns:scikit-surgery="https://doi.org/10.1007/s11548-020-02180-5">

	<rect width="100%" height="100%" fill="white" />
	<path d = "M 117.19 65.62 L 105.47 25.78 L 77.34 4.69 L 46.88 0.00 L 16.41 28.12 L 0.00 77.34 L 4.69 126.56 L 7.03 147.66 L 42.19 196.88 L 60.94 206.25 L 82.03 203.91 L 112.50 173.44 L 112.50 133.59 L 93.75 44.53" stroke="black" fill="transparent"/>
	<path d = "M 75.00 114.84 L 225.00 133.59 L 452.34 182.81 L 520.31 180.47 L 522.66 173.44 L 513.28 164.06" stroke="black" fill="transparent"/>
	<path d = "M 527.34 96.09 L 522.66 147.66 L 532.03 227.34 L 553.12 257.81 L 578.91 255.47 L 595.31 236.72 L 597.66 225.00 L 597.66 178.12 L 588.28 147.66 L 550.78 91.41 L 529.69 86.72 L 520.31 103.12" stroke="black" fill="transparent"/>
</svg>