<?xml version="1.0" encoding="UTF-8" standalone="no"?>
<!--Created with ndjsontosvg (https:https://github.com/thompson318/ndjsontosvg) 
	from the simplified Google quickdraw data set. key_id = 5989434057031680-->
<svg width="600" height="600"
	xmlns="http://www.w3.org/2000/svg">
	xmlns:ndjsontosvg="https://github.com/thompson318/ndjsontosvg"
	xmlns:quickdraw="https://quickdraw.withgoogle.com/data"
	xmlns:scikit-surgery="https://doi.org/10.1007/s11548-020-02180-5">

	<rect width="100%" height="100%" fill="white" />
	<path d = "M 229.69 103.12 L 234.38 84.38 L 201.56 37.50 L 150.00 7.03 L 84.38 2.34 L 39.84 18.75 L 23.44 35.16 L 2.34 86.72 L 4.69 171.09 L 35.16 208.59 L 96.09 239.06 L 157.03 243.75 L 210.94 194.53 L 367.97 164.06 L 391.41 225.00 L 426.56 253.12 L 452.34 262.50 L 520.31 262.50 L 564.84 225.00 L 592.97 168.75 L 595.31 98.44 L 555.47 46.88 L 499.22 16.41 L 442.97 16.41 L 421.88 35.16 L 382.03 100.78 L 264.84 103.12 L 210.94 96.09" stroke="black" fill="transparent"/>
	<path d = "M 189.84 196.88 L 210.94 154.69 L 203.91 84.38 L 164.06 30.47 L 119.53 21.09 L 98.44 42.19 L 72.66 121.88 L 72.66 175.78 L 86.72 210.94 L 98.44 220.31 L 145.31 225.00 L 154.69 220.31 L 180.47 178.12 L 185.16 142.97 L 185.16 126.56 L 142.97 89.06 L 96.09 84.38" stroke="black" fill="transparent"/>
	<path d = "M 510.94 119.53 L 508.59 110.16 L 487.50 110.16 L 459.38 135.94 L 450.00 159.38 L 447.66 225.00 L 454.69 246.09 L 478.12 264.84 L 532.03 168.75 L 489.84 105.47 L 445.31 86.72 L 435.94 93.75 L 431.25 178.12 L 438.28 194.53 L 478.12 206.25 L 494.53 187.50 L 503.91 157.03 L 468.75 140.62" stroke="black" fill="transparent"/>
</svg>