<?xml version="1.0" encoding="UTF-8" standalone="no"?>
<!--Created with ndjsontosvg (https:https://github.com/thompson318/ndjsontosvg) 
	from the simplified Google quickdraw data set. key_id = 6181021424812032-->
<svg width="600" height="600"
	xmlns="http://www.w3.org/2000/svg">
	xmlns:ndjsontosvg="https://github.com/thompson318/ndjsontosvg"
	xmlns:quickdraw="https://quickdraw.withgoogle.com/data"
	xmlns:scikit-surgery="https://doi.org/10.1007/s11548-020-02180-5">

	<rect width="100%" height="100%" fill="white" />
	<path d = "M 152.34 49.22 L 103.12 79.69 L 58.59 171.09 L 14.06 239.06 L 4.69 269.53 L 0.00 346.88 L 9.38 367.97 L 30.47 367.97 L 58.59 316.41 L 93.75 147.66 L 93.75 63.28 L 30.47 192.19 L 14.06 274.22 L 39.84 269.53 L 63.28 246.09 L 93.75 142.97 L 93.75 86.72 L 72.66 121.88 L 39.84 208.59 L 35.16 290.62 L 63.28 290.62 L 103.12 222.66 L 128.91 100.78 L 103.12 105.47 L 63.28 171.09 L 39.84 229.69 L 28.12 295.31 L 49.22 269.53 L 67.97 206.25 L 77.34 112.50 L 77.34 147.66 L 63.28 180.47 L 49.22 260.16 L 53.91 353.91 L 77.34 372.66 L 131.25 377.34 L 157.03 363.28 L 187.50 302.34 L 189.84 229.69 L 175.78 189.84 L 157.03 161.72 L 112.50 135.94 L 67.97 138.28 L 35.16 180.47 L 18.75 232.03 L 4.69 297.66 L 4.69 342.19 L 32.81 337.50 L 58.59 309.38 L 98.44 246.09 L 128.91 175.78 L 138.28 119.53 L 142.97 2.34 L 117.19 14.06 L 98.44 56.25 L 84.38 133.59 L 84.38 246.09 L 93.75 267.19 L 117.19 283.59 L 142.97 278.91 L 166.41 260.16 L 206.25 215.62 L 220.31 157.03 L 215.62 67.97 L 192.19 53.91 L 161.72 86.72 L 117.19 194.53 L 98.44 304.69 L 126.56 295.31 L 152.34 278.91 L 192.19 222.66 L 201.56 126.56 L 175.78 117.19 L 147.66 121.88 L 112.50 166.41 L 84.38 264.84 L 86.72 316.41 L 103.12 342.19 L 135.94 342.19 L 171.09 328.12 L 201.56 288.28 L 234.38 210.94 L 236.72 103.12 L 206.25 117.19 L 168.75 159.38 L 121.88 225.00 L 96.09 295.31 L 121.88 288.28 L 147.66 257.81 L 180.47 196.88 L 185.16 107.81 L 157.03 107.81 L 107.81 175.78 L 93.75 210.94 L 84.38 281.25 L 112.50 283.59 L 140.62 274.22 L 175.78 222.66 L 189.84 171.09" stroke="black" fill="transparent"/>
	<path d = "M 135.94 210.94 L 185.16 255.47 L 501.56 400.78 L 499.22 372.66 L 454.69 346.88 L 187.50 215.62 L 112.50 210.94 L 199.22 248.44 L 260.16 264.84 L 363.28 278.91 L 389.06 290.62 L 318.75 292.97 L 269.53 283.59 L 215.62 260.16 L 363.28 377.34 L 485.16 440.62 L 508.59 442.97 L 525.00 421.88 L 515.62 400.78" stroke="black" fill="transparent"/>
	<path d = "M 543.75 243.75 L 445.31 520.31 L 468.75 529.69 L 501.56 529.69 L 539.06 508.59 L 583.59 445.31 L 597.66 405.47 L 597.66 309.38 L 588.28 288.28 L 534.38 292.97 L 499.22 314.06 L 450.00 386.72 L 431.25 454.69 L 431.25 520.31 L 454.69 539.06 L 478.12 529.69 L 499.22 499.22 L 534.38 403.12 L 539.06 243.75 L 513.28 255.47 L 485.16 314.06 L 466.41 391.41 L 468.75 412.50 L 494.53 412.50 L 517.97 393.75 L 553.12 342.19 L 569.53 292.97 L 543.75 278.91 L 489.84 328.12 L 471.09 358.59 L 466.41 386.72 L 473.44 414.84 L 485.16 435.94 L 508.59 445.31 L 548.44 274.22 L 461.72 454.69 L 454.69 499.22 L 520.31 499.22 L 543.75 475.78 L 557.81 431.25 L 548.44 382.03 L 527.34 370.31 L 494.53 400.78 L 466.41 480.47 L 466.41 539.06 L 475.78 564.84 L 499.22 564.84 L 520.31 548.44 L 543.75 520.31 L 548.44 494.53 L 562.50 471.09 L 567.19 351.56 L 562.50 328.12 L 548.44 370.31 L 543.75 471.09 L 583.59 377.34" stroke="black" fill="transparent"/>
</svg>