<?xml version="1.0" encoding="UTF-8" standalone="no"?>
<!--Created with ndjsontosvg (https:https://github.com/thompson318/ndjsontosvg) 
	from the simplified Google quickdraw data set. key_id = 5143535370108928-->
<svg width="600" height="600"
	xmlns="http://www.w3.org/2000/svg">
	xmlns:ndjsontosvg="https://github.com/thompson318/ndjsontosvg"
	xmlns:quickdraw="https://quickdraw.withgoogle.com/data"
	xmlns:scikit-surgery="https://doi.org/10.1007/s11548-020-02180-5">

	<rect width="100%" height="100%" fill="white" />
	<path d = "M 182.81 213.28 L 302.34 185.16 L 457.03 117.19 L 450.00 77.34 L 459.38 51.56 L 482.81 25.78 L 520.31 4.69 L 560.16 0.00 L 590.62 28.12 L 597.66 79.69 L 578.91 119.53 L 546.09 140.62 L 503.91 147.66 L 461.72 145.31 L 445.31 135.94 L 438.28 121.88" stroke="black" fill="transparent"/>
	<path d = "M 525.00 2.34 L 550.78 84.38 L 569.53 100.78 L 597.66 105.47" stroke="black" fill="transparent"/>
	<path d = "M 187.50 213.28 L 100.78 264.84 L 67.97 269.53 L 51.56 264.84 L 21.09 241.41 L 9.38 222.66 L 0.00 185.16 L 21.09 147.66 L 56.25 128.91 L 119.53 126.56 L 168.75 171.09 L 199.22 220.31" stroke="black" fill="transparent"/>
	<path d = "M 30.47 145.31 L 65.62 208.59 L 79.69 260.16" stroke="black" fill="transparent"/>
</svg>