<?xml version="1.0" encoding="UTF-8" standalone="no"?>
<!--Created with ndjsontosvg (https:https://github.com/thompson318/ndjsontosvg) 
	from the simplified Google quickdraw data set. key_id = 4828374629351424-->
<svg width="600" height="600"
	xmlns="http://www.w3.org/2000/svg">
	xmlns:ndjsontosvg="https://github.com/thompson318/ndjsontosvg"
	xmlns:quickdraw="https://quickdraw.withgoogle.com/data"
	xmlns:scikit-surgery="https://doi.org/10.1007/s11548-020-02180-5">

	<rect width="100%" height="100%" fill="white" />
	<path d = "M 2.34 126.56 L 2.34 103.12 L 11.72 77.34 L 49.22 42.19 L 135.94 2.34 L 182.81 0.00 L 241.41 18.75 L 290.62 56.25 L 318.75 110.16 L 328.12 159.38 L 325.78 189.84 L 307.03 248.44 L 213.28 433.59 L 199.22 522.66 L 180.47 569.53 L 150.00 590.62 L 119.53 597.66 L 56.25 592.97 L 35.16 581.25" stroke="black" fill="transparent"/>
	<path d = "M 67.97 450.00 L 126.56 363.28 L 157.03 302.34 L 171.09 271.88 L 185.16 203.91 L 178.12 175.78 L 150.00 150.00 L 119.53 147.66 L 79.69 157.03 L 138.28 187.50 L 164.06 229.69 L 159.38 285.94 L 119.53 358.59 L 98.44 382.03" stroke="black" fill="transparent"/>
</svg>