<?xml version="1.0" encoding="UTF-8" standalone="no"?>
<!--Created with ndjsontosvg (https:https://github.com/thompson318/ndjsontosvg) 
	from the simplified Google quickdraw data set. key_id = 5651774599856128-->
<svg width="600" height="600"
	xmlns="http://www.w3.org/2000/svg">
	xmlns:ndjsontosvg="https://github.com/thompson318/ndjsontosvg"
	xmlns:quickdraw="https://quickdraw.withgoogle.com/data"
	xmlns:scikit-surgery="https://doi.org/10.1007/s11548-020-02180-5">

	<rect width="100%" height="100%" fill="white" />
	<path d = "M 0.00 269.53 L 4.69 119.53 L 49.22 60.94 L 98.44 32.81 L 194.53 4.69 L 318.75 2.34 L 363.28 18.75 L 419.53 100.78 L 461.72 201.56 L 473.44 264.84 L 473.44 356.25 L 464.06 407.81 L 442.97 438.28 L 356.25 489.84 L 300.00 581.25 L 269.53 597.66 L 229.69 595.31 L 164.06 571.88 L 105.47 532.03 L 96.09 515.62 L 89.06 403.12" stroke="black" fill="transparent"/>
	<path d = "M 112.50 304.69 L 107.81 201.56 L 138.28 161.72 L 164.06 138.28 L 199.22 121.88 L 250.78 119.53 L 314.06 175.78 L 323.44 192.19 L 323.44 225.00 L 309.38 274.22 L 307.03 318.75 L 321.09 384.38 L 290.62 426.56 L 264.84 438.28 L 220.31 440.62 L 206.25 433.59 L 189.84 407.81 L 185.16 372.66 L 173.44 349.22 L 147.66 314.06 L 124.22 309.38 L 168.75 304.69 L 194.53 321.09 L 199.22 349.22 L 189.84 365.62 L 206.25 372.66 L 213.28 391.41 L 203.91 414.84" stroke="black" fill="transparent"/>
</svg>