<?xml version="1.0" encoding="UTF-8" standalone="no"?>
<!--Created with ndjsontosvg (https:https://github.com/thompson318/ndjsontosvg) 
	from the simplified Google quickdraw data set. key_id = 4897538161246208-->
<svg width="600" height="600"
	xmlns="http://www.w3.org/2000/svg">
	xmlns:ndjsontosvg="https://github.com/thompson318/ndjsontosvg"
	xmlns:quickdraw="https://quickdraw.withgoogle.com/data"
	xmlns:scikit-surgery="https://doi.org/10.1007/s11548-020-02180-5">

	<rect width="100%" height="100%" fill="white" />
	<path d = "M 138.28 168.75 L 124.22 157.03 L 114.84 138.28 L 114.84 70.31 L 128.91 11.72 L 138.28 23.44 L 171.09 157.03 L 180.47 79.69 L 196.88 46.88 L 217.97 25.78 L 232.03 23.44 L 236.72 49.22 L 220.31 119.53 L 201.56 157.03 L 222.66 105.47 L 248.44 72.66 L 274.22 56.25 L 292.97 53.91 L 300.00 60.94 L 290.62 93.75 L 269.53 133.59 L 239.06 178.12 L 217.97 189.84 L 220.31 173.44 L 241.41 142.97 L 307.03 110.16 L 328.12 110.16 L 337.50 121.88 L 337.50 142.97 L 309.38 178.12 L 271.88 199.22 L 255.47 203.91 L 253.12 196.88 L 297.66 173.44 L 344.53 178.12 L 356.25 201.56 L 323.44 236.72 L 271.88 267.19 L 227.34 278.91 L 194.53 278.91 L 166.41 267.19" stroke="black" fill="transparent"/>
	<path d = "M 112.50 168.75 L 131.25 365.62 L 157.03 457.03 L 161.72 464.06 L 166.41 452.34" stroke="black" fill="transparent"/>
	<path d = "M 173.44 229.69 L 239.06 431.25 L 264.84 468.75" stroke="black" fill="transparent"/>
	<path d = "M 152.34 461.72 L 152.34 508.59 L 161.72 548.44 L 180.47 569.53 L 203.91 571.88 L 304.69 541.41 L 503.91 510.94 L 548.44 499.22 L 546.09 487.50" stroke="black" fill="transparent"/>
	<path d = "M 255.47 478.12 L 281.25 466.41 L 398.44 445.31 L 424.22 433.59" stroke="black" fill="transparent"/>
	<path d = "M 0.00 592.97 L 117.19 553.12 L 77.34 543.75 L 107.81 595.31 L 119.53 553.12" stroke="black" fill="transparent"/>
	<path d = "M 147.66 494.53 L 103.12 217.97 L 103.12 159.38 L 112.50 131.25" stroke="black" fill="transparent"/>
	<path d = "M 105.47 150.00 L 112.50 23.44 L 117.19 2.34 L 126.56 0.00 L 138.28 14.06 L 164.06 152.34 L 180.47 67.97 L 196.88 39.84 L 220.31 32.81 L 227.34 82.03 L 201.56 173.44 L 215.62 119.53 L 234.38 86.72 L 257.81 63.28 L 274.22 60.94 L 278.91 91.41 L 269.53 124.22 L 220.31 175.78 L 269.53 138.28 L 309.38 131.25 L 316.41 147.66 L 292.97 178.12 L 264.84 182.81 L 302.34 180.47 L 342.19 187.50 L 349.22 196.88 L 328.12 220.31" stroke="black" fill="transparent"/>
	<path d = "M 147.66 492.19 L 161.72 480.47 L 189.84 478.12 L 236.72 499.22 L 243.75 489.84 L 236.72 475.78 L 203.91 459.38 L 187.50 464.06 L 180.47 475.78 L 192.19 525.00 L 220.31 562.50 L 239.06 555.47 L 248.44 527.34 L 246.09 503.91 L 227.34 475.78 L 208.59 466.41 L 192.19 471.09 L 173.44 515.62 L 182.81 541.41 L 229.69 525.00 L 232.03 506.25 L 206.25 487.50 L 173.44 487.50 L 164.06 501.56 L 173.44 529.69 L 185.16 543.75 L 196.88 546.09 L 222.66 532.03 L 227.34 506.25 L 206.25 489.84 L 178.12 499.22 L 175.78 527.34 L 196.88 539.06 L 227.34 522.66 L 232.03 501.56 L 210.94 482.81 L 182.81 485.16 L 168.75 515.62 L 175.78 529.69 L 194.53 541.41 L 227.34 536.72 L 239.06 520.31 L 236.72 506.25 L 196.88 489.84 L 173.44 503.91 L 171.09 534.38 L 208.59 560.16 L 241.41 539.06 L 236.72 515.62" stroke="black" fill="transparent"/>
</svg>