<?xml version="1.0" encoding="UTF-8" standalone="no"?>
<!--Created with ndjsontosvg (https:https://github.com/thompson318/ndjsontosvg) 
	from the simplified Google quickdraw data set. key_id = 6476496556261376-->
<svg width="600" height="600"
	xmlns="http://www.w3.org/2000/svg">
	xmlns:ndjsontosvg="https://github.com/thompson318/ndjsontosvg"
	xmlns:quickdraw="https://quickdraw.withgoogle.com/data"
	xmlns:scikit-surgery="https://doi.org/10.1007/s11548-020-02180-5">

	<rect width="100%" height="100%" fill="white" />
	<path d = "M 44.53 189.84 L 7.03 124.22 L 0.00 72.66 L 11.72 63.28 L 32.81 100.78 L 44.53 46.88 L 58.59 18.75 L 67.97 16.41 L 77.34 28.12 L 91.41 93.75 L 147.66 0.00 L 157.03 93.75 L 210.94 21.09 L 217.97 35.16 L 217.97 93.75 L 248.44 63.28 L 267.19 53.91 L 267.19 103.12 L 257.81 128.91 L 196.88 175.78 L 145.31 264.84 L 147.66 419.53 L 159.38 442.97 L 175.78 445.31 L 442.97 267.19 L 494.53 215.62 L 522.66 154.69" stroke="black" fill="transparent"/>
	<path d = "M 39.84 187.50 L 53.91 222.66 L 96.09 546.09 L 142.97 548.44 L 232.03 517.97 L 285.94 475.78 L 370.31 391.41 L 543.75 241.41 L 588.28 173.44" stroke="black" fill="transparent"/>
	<path d = "M 267.19 503.91 L 269.53 459.38 L 257.81 431.25 L 229.69 398.44 L 206.25 384.38 L 157.03 370.31 L 128.91 370.31 L 96.09 393.75 L 77.34 421.88 L 58.59 459.38 L 46.88 527.34 L 49.22 560.16 L 65.62 585.94 L 86.72 597.66 L 215.62 592.97" stroke="black" fill="transparent"/>
</svg>