<?xml version="1.0" encoding="UTF-8" standalone="no"?>
<!--Created with ndjsontosvg (https:https://github.com/thompson318/ndjsontosvg) 
	from the simplified Google quickdraw data set. key_id = 6131633629429760-->
<svg width="600" height="600"
	xmlns="http://www.w3.org/2000/svg">
	xmlns:ndjsontosvg="https://github.com/thompson318/ndjsontosvg"
	xmlns:quickdraw="https://quickdraw.withgoogle.com/data"
	xmlns:scikit-surgery="https://doi.org/10.1007/s11548-020-02180-5">

	<rect width="100%" height="100%" fill="white" />
	<path d = "M 267.19 53.91 L 234.38 23.44 L 201.56 7.03 L 128.91 2.34 L 114.84 9.38 L 77.34 44.53 L 39.84 117.19 L 2.34 166.41 L 7.03 196.88 L 11.72 201.56 L 100.78 196.88 L 150.00 246.09 L 185.16 253.12 L 213.28 222.66 L 248.44 147.66" stroke="black" fill="transparent"/>
	<path d = "M 403.12 60.94 L 447.66 23.44 L 487.50 7.03 L 571.88 0.00 L 588.28 14.06 L 590.62 30.47 L 597.66 166.41 L 574.22 257.81 L 529.69 262.50 L 496.88 206.25 L 482.81 206.25 L 447.66 236.72 L 428.91 241.41 L 414.84 164.06 L 398.44 145.31" stroke="black" fill="transparent"/>
	<path d = "M 276.56 70.31 L 328.12 46.88 L 363.28 46.88 L 398.44 82.03" stroke="black" fill="transparent"/>
	<path d = "M 250.78 164.06 L 217.97 253.12 L 220.31 302.34 L 229.69 316.41 L 248.44 321.09 L 325.78 330.47 L 382.03 302.34 L 403.12 278.91 L 412.50 227.34 L 410.16 159.38" stroke="black" fill="transparent"/>
	<path d = "M 288.28 217.97 L 250.78 248.44 L 229.69 281.25 L 222.66 382.03 L 267.19 435.94 L 311.72 457.03 L 382.03 510.94" stroke="black" fill="transparent"/>
</svg>