<?xml version="1.0" encoding="UTF-8" standalone="no"?>
<!--Created with ndjsontosvg (https:https://github.com/thompson318/ndjsontosvg) 
	from the simplified Google quickdraw data set. key_id = 6057843780222976-->
<svg width="600" height="600"
	xmlns="http://www.w3.org/2000/svg">
	xmlns:ndjsontosvg="https://github.com/thompson318/ndjsontosvg"
	xmlns:quickdraw="https://quickdraw.withgoogle.com/data"
	xmlns:scikit-surgery="https://doi.org/10.1007/s11548-020-02180-5">

	<rect width="100%" height="100%" fill="white" />
	<path d = "M 0.00 2.34 L 0.00 2.34" stroke="black" fill="transparent"/>
	<path d = "M 4.69 0.00 L 4.69 0.00" stroke="black" fill="transparent"/>
	<path d = "M 597.66 196.88 L 581.25 199.22" stroke="black" fill="transparent"/>
	<path d = "M 386.72 75.00 L 365.62 56.25 L 339.84 49.22 L 278.91 46.88 L 262.50 53.91 L 250.78 67.97 L 236.72 121.88 L 201.56 128.91 L 173.44 145.31 L 182.81 159.38 L 225.00 171.09" stroke="black" fill="transparent"/>
	<path d = "M 372.66 75.00 L 442.97 121.88 L 480.47 128.91 L 492.19 121.88 L 536.72 70.31 L 564.84 65.62 L 543.75 84.38 L 508.59 135.94 L 480.47 157.03 L 435.94 164.06 L 384.38 157.03" stroke="black" fill="transparent"/>
	<path d = "M 248.44 157.03 L 229.69 189.84 L 229.69 246.09 L 243.75 255.47 L 257.81 250.78 L 290.62 196.88 L 300.00 243.75 L 318.75 262.50 L 351.56 220.31 L 375.00 260.16 L 375.00 157.03" stroke="black" fill="transparent"/>
</svg>