<?xml version="1.0" encoding="UTF-8" standalone="no"?>
<!--Created with ndjsontosvg (https:https://github.com/thompson318/ndjsontosvg) 
	from the simplified Google quickdraw data set. key_id = 4693455877963776-->
<svg width="600" height="600"
	xmlns="http://www.w3.org/2000/svg">
	xmlns:ndjsontosvg="https://github.com/thompson318/ndjsontosvg"
	xmlns:quickdraw="https://quickdraw.withgoogle.com/data"
	xmlns:scikit-surgery="https://doi.org/10.1007/s11548-020-02180-5">

	<rect width="100%" height="100%" fill="white" />
	<path d = "M 239.06 77.34 L 222.66 51.56 L 178.12 11.72 L 133.59 0.00 L 98.44 0.00 L 79.69 14.06 L 37.50 100.78 L 35.16 199.22 L 42.19 227.34 L 114.84 389.06 L 140.62 393.75 L 164.06 372.66 L 173.44 349.22 L 178.12 309.38" stroke="black" fill="transparent"/>
	<path d = "M 208.59 91.41 L 173.44 91.41 L 142.97 114.84 L 131.25 138.28 L 128.91 185.16 L 164.06 267.19 L 227.34 358.59 L 234.38 410.16 L 225.00 442.97 L 175.78 480.47 L 91.41 487.50 L 70.31 480.47 L 56.25 461.72 L 42.19 426.56 L 46.88 398.44 L 18.75 396.09 L 2.34 412.50 L 0.00 428.91 L 9.38 459.38 L 70.31 494.53 L 171.09 515.62 L 239.06 510.94 L 295.31 475.78 L 314.06 447.66 L 328.12 391.41 L 325.78 325.78 L 300.00 239.06 L 295.31 213.28 L 304.69 203.91" stroke="black" fill="transparent"/>
	<path d = "M 241.41 72.66 L 260.16 60.94 L 290.62 60.94 L 302.34 70.31 L 307.03 105.47 L 314.06 107.81 L 356.25 67.97 L 417.19 32.81 L 471.09 16.41 L 529.69 7.03 L 564.84 35.16 L 576.56 58.59 L 592.97 147.66 L 595.31 269.53 L 529.69 321.09 L 459.38 337.50 L 438.28 335.16 L 435.94 325.78" stroke="black" fill="transparent"/>
</svg>