<?xml version="1.0" encoding="UTF-8" standalone="no"?>
<!--Created with ndjsontosvg (https:https://github.com/thompson318/ndjsontosvg) 
	from the simplified Google quickdraw data set. key_id = 4652072530083840-->
<svg width="600" height="600"
	xmlns="http://www.w3.org/2000/svg">
	xmlns:ndjsontosvg="https://github.com/thompson318/ndjsontosvg"
	xmlns:quickdraw="https://quickdraw.withgoogle.com/data"
	xmlns:scikit-surgery="https://doi.org/10.1007/s11548-020-02180-5">

	<rect width="100%" height="100%" fill="white" />
	<path d = "M 28.12 7.03 L 253.12 14.06 L 578.91 2.34" stroke="black" fill="transparent"/>
	<path d = "M 32.81 0.00 L 39.84 25.78 L 9.38 168.75 L 7.03 220.31 L 25.78 239.06 L 79.69 255.47 L 225.00 274.22 L 358.59 274.22 L 532.03 250.78 L 562.50 239.06 L 571.88 229.69 L 581.25 194.53 L 597.66 32.81" stroke="black" fill="transparent"/>
	<path d = "M 4.69 215.62 L 112.50 164.06 L 292.97 91.41 L 358.59 82.03 L 379.69 86.72 L 410.16 114.84 L 473.44 187.50 L 513.28 243.75" stroke="black" fill="transparent"/>
	<path d = "M 44.53 0.00 L 110.16 77.34 L 178.12 128.91 L 250.78 166.41 L 300.00 178.12 L 346.88 180.47 L 396.09 159.38 L 567.19 42.19" stroke="black" fill="transparent"/>
</svg>