<?xml version="1.0" encoding="UTF-8" standalone="no"?>
<!--Created with ndjsontosvg (https:https://github.com/thompson318/ndjsontosvg) 
	from the simplified Google quickdraw data set. key_id = 6448602886963200-->
<svg width="600" height="600"
	xmlns="http://www.w3.org/2000/svg">
	xmlns:ndjsontosvg="https://github.com/thompson318/ndjsontosvg"
	xmlns:quickdraw="https://quickdraw.withgoogle.com/data"
	xmlns:scikit-surgery="https://doi.org/10.1007/s11548-020-02180-5">

	<rect width="100%" height="100%" fill="white" />
	<path d = "M 232.03 82.03 L 302.34 49.22 L 389.06 32.81 L 452.34 11.72 L 555.47 0.00 L 571.88 93.75 L 590.62 128.91 L 597.66 164.06 L 525.00 175.78 L 480.47 199.22 L 433.59 208.59 L 281.25 222.66 L 173.44 250.78 L 11.72 260.16 L 4.69 255.47 L 0.00 189.84 L 7.03 121.88 L 72.66 96.09 L 173.44 82.03 L 246.09 49.22 L 267.19 49.22" stroke="black" fill="transparent"/>
	<path d = "M 229.69 65.62 L 227.34 103.12 L 253.12 227.34" stroke="black" fill="transparent"/>
	<path d = "M 281.25 60.94 L 304.69 217.97" stroke="black" fill="transparent"/>
	<path d = "M 4.69 243.75 L 11.72 133.59 L 23.44 260.16 L 21.09 206.25 L 28.12 142.97 L 37.50 213.28 L 37.50 236.72 L 28.12 229.69 L 25.78 192.19 L 37.50 147.66 L 49.22 234.38 L 60.94 117.19 L 51.56 243.75 L 53.91 199.22 L 79.69 133.59 L 86.72 135.94 L 93.75 234.38 L 91.41 140.62 L 93.75 227.34 L 84.38 152.34 L 79.69 227.34 L 77.34 239.06 L 67.97 225.00 L 82.03 145.31 L 75.00 241.41 L 67.97 208.59 L 72.66 154.69 L 79.69 225.00 L 110.16 133.59 L 124.22 227.34 L 133.59 150.00 L 131.25 241.41 L 135.94 140.62 L 138.28 227.34 L 142.97 178.12 L 157.03 128.91 L 168.75 229.69 L 178.12 119.53 L 182.81 229.69 L 182.81 119.53 L 187.50 222.66 L 185.16 171.09 L 206.25 110.16 L 213.28 121.88 L 217.97 187.50 L 222.66 100.78 L 222.66 182.81 L 220.31 96.09 L 217.97 225.00 L 201.56 185.16 L 203.91 107.81 L 210.94 187.50 L 201.56 210.94 L 185.16 185.16 L 180.47 124.22 L 173.44 173.44 L 145.31 232.03 L 124.22 206.25 L 126.56 138.28 L 128.91 150.00 L 119.53 159.38 L 96.09 166.41 L 42.19 131.25 L 154.69 112.50 L 72.66 145.31 L 159.38 100.78 L 196.88 98.44 L 199.22 105.47 L 185.16 117.19 L 119.53 154.69 L 49.22 166.41 L 51.56 154.69 L 154.69 107.81 L 79.69 152.34 L 49.22 164.06 L 60.94 152.34 L 140.62 107.81 L 28.12 159.38 L 32.81 150.00 L 82.03 117.19 L 124.22 98.44 L 154.69 93.75 L 164.06 103.12 L 96.09 152.34 L 75.00 159.38 L 65.62 147.66 L 84.38 135.94 L 91.41 178.12 L 53.91 255.47 L 51.56 215.62 L 89.06 159.38 L 103.12 159.38 L 168.75 217.97 L 180.47 217.97 L 182.81 194.53" stroke="black" fill="transparent"/>
	<path d = "M 227.34 72.66 L 302.34 46.88 L 405.47 42.19 L 382.03 32.81 L 307.03 44.53 L 119.53 100.78 L 128.91 107.81 L 154.69 103.12 L 367.97 42.19 L 232.03 86.72 L 65.62 164.06 L 269.53 84.38 L 253.12 89.06 L 65.62 203.91 L 185.16 131.25 L 225.00 117.19 L 222.66 142.97 L 164.06 246.09 L 161.72 220.31 L 182.81 124.22 L 189.84 114.84 L 199.22 117.19 L 210.94 168.75 L 208.59 187.50 L 182.81 234.38 L 154.69 246.09 L 142.97 239.06 L 119.53 213.28 L 112.50 192.19 L 124.22 175.78 L 147.66 173.44 L 189.84 196.88 L 203.91 225.00 L 164.06 236.72 L 114.84 215.62 L 110.16 208.59 L 121.88 192.19 L 168.75 182.81 L 213.28 196.88 L 217.97 208.59 L 196.88 229.69 L 147.66 243.75 L 117.19 232.03 L 124.22 215.62 L 194.53 185.16 L 239.06 185.16 L 203.91 217.97 L 150.00 246.09 L 217.97 232.03 L 199.22 248.44 L 128.91 264.84 L 100.78 260.16 L 96.09 253.12 L 100.78 246.09 L 168.75 213.28 L 213.28 210.94 L 217.97 229.69 L 166.41 264.84 L 119.53 274.22 L 89.06 267.19 L 79.69 255.47 L 112.50 220.31 L 154.69 192.19 L 208.59 175.78 L 175.78 210.94 L 107.81 250.78 L 60.94 260.16 L 51.56 241.41 L 70.31 215.62 L 124.22 182.81 L 157.03 173.44 L 154.69 189.84 L 126.56 217.97 L 86.72 239.06 L 60.94 243.75 L 53.91 234.38 L 77.34 185.16 L 117.19 154.69 L 159.38 135.94 L 168.75 147.66 L 159.38 164.06 L 124.22 199.22 L 93.75 215.62 L 82.03 213.28 L 79.69 196.88 L 93.75 175.78 L 150.00 124.22 L 180.47 114.84 L 196.88 126.56" stroke="black" fill="transparent"/>
</svg>