<?xml version="1.0" encoding="UTF-8" standalone="no"?>
<!--Created with ndjsontosvg (https:https://github.com/thompson318/ndjsontosvg) 
	from the simplified Google quickdraw data set. key_id = 6746853955600384-->
<svg width="600" height="600"
	xmlns="http://www.w3.org/2000/svg">
	xmlns:ndjsontosvg="https://github.com/thompson318/ndjsontosvg"
	xmlns:quickdraw="https://quickdraw.withgoogle.com/data"
	xmlns:scikit-surgery="https://doi.org/10.1007/s11548-020-02180-5">

	<rect width="100%" height="100%" fill="white" />
	<path d = "M 220.31 173.44 L 281.25 121.88 L 351.56 77.34 L 428.91 32.81 L 510.94 0.00 L 534.38 9.38 L 574.22 84.38 L 574.22 121.88 L 555.47 159.38 L 532.03 185.16 L 428.91 241.41 L 386.72 271.88 L 328.12 290.62 L 292.97 276.56 L 260.16 248.44 L 241.41 213.28 L 227.34 161.72" stroke="black" fill="transparent"/>
	<path d = "M 234.38 171.09 L 213.28 185.16 L 203.91 215.62 L 217.97 253.12 L 248.44 297.66 L 300.00 304.69 L 360.94 288.28" stroke="black" fill="transparent"/>
	<path d = "M 328.12 300.00 L 358.59 330.47 L 396.09 328.12 L 468.75 292.97 L 555.47 234.38 L 597.66 187.50 L 576.56 107.81" stroke="black" fill="transparent"/>
	<path d = "M 0.00 351.56 L 133.59 290.62 L 178.12 255.47" stroke="black" fill="transparent"/>
	<path d = "M 89.06 353.91 L 135.94 342.19 L 180.47 314.06" stroke="black" fill="transparent"/>
</svg>