<?xml version="1.0" encoding="UTF-8" standalone="no"?>
<!--Created with ndjsontosvg (https:https://github.com/thompson318/ndjsontosvg) 
	from the simplified Google quickdraw data set. key_id = 6003478432317440-->
<svg width="600" height="600"
	xmlns="http://www.w3.org/2000/svg">
	xmlns:ndjsontosvg="https://github.com/thompson318/ndjsontosvg"
	xmlns:quickdraw="https://quickdraw.withgoogle.com/data"
	xmlns:scikit-surgery="https://doi.org/10.1007/s11548-020-02180-5">

	<rect width="100%" height="100%" fill="white" />
	<path d = "M 16.41 412.50 L 18.75 384.38 L 35.16 353.91 L 77.34 297.66 L 121.88 250.78 L 173.44 215.62 L 225.00 189.84 L 283.59 182.81 L 346.88 189.84 L 457.03 248.44 L 492.19 278.91 L 517.97 316.41 L 555.47 400.78" stroke="black" fill="transparent"/>
	<path d = "M 0.00 400.78 L 75.00 501.56 L 166.41 567.19 L 234.38 592.97 L 323.44 597.66 L 398.44 581.25 L 452.34 546.09 L 527.34 464.06 L 564.84 382.03" stroke="black" fill="transparent"/>
	<path d = "M 255.47 325.78 L 246.09 335.16 L 229.69 386.72 L 229.69 412.50 L 250.78 428.91 L 288.28 426.56 L 314.06 393.75 L 318.75 365.62 L 283.59 321.09 L 260.16 314.06 L 241.41 346.88 L 246.09 379.69 L 260.16 386.72" stroke="black" fill="transparent"/>
	<path d = "M 255.47 234.38 L 201.56 246.09 L 150.00 292.97 L 131.25 342.19 L 128.91 393.75 L 138.28 410.16 L 175.78 438.28 L 229.69 457.03 L 283.59 464.06 L 330.47 461.72 L 363.28 438.28 L 375.00 417.19 L 379.69 358.59 L 349.22 314.06 L 281.25 255.47 L 243.75 239.06" stroke="black" fill="transparent"/>
	<path d = "M 67.97 309.38 L 44.53 213.28 L 42.19 138.28 L 44.53 112.50 L 58.59 96.09 L 77.34 91.41" stroke="black" fill="transparent"/>
	<path d = "M 173.44 217.97 L 194.53 89.06 L 208.59 44.53 L 229.69 11.72 L 248.44 0.00" stroke="black" fill="transparent"/>
	<path d = "M 325.78 187.50 L 339.84 150.00 L 372.66 93.75 L 412.50 58.59" stroke="black" fill="transparent"/>
	<path d = "M 452.34 236.72 L 525.00 150.00" stroke="black" fill="transparent"/>
	<path d = "M 510.94 307.03 L 597.66 241.41" stroke="black" fill="transparent"/>
</svg>