<?xml version="1.0" encoding="UTF-8" standalone="no"?>
<!--Created with ndjsontosvg (https:https://github.com/thompson318/ndjsontosvg) 
	from the simplified Google quickdraw data set. key_id = 5642885112266752-->
<svg width="600" height="600"
	xmlns="http://www.w3.org/2000/svg">
	xmlns:ndjsontosvg="https://github.com/thompson318/ndjsontosvg"
	xmlns:quickdraw="https://quickdraw.withgoogle.com/data"
	xmlns:scikit-surgery="https://doi.org/10.1007/s11548-020-02180-5">

	<rect width="100%" height="100%" fill="white" />
	<path d = "M 0.00 79.69 L 70.31 79.69 L 307.03 4.69 L 431.25 2.34 L 525.00 25.78 L 567.19 46.88 L 597.66 100.78 L 595.31 126.56 L 581.25 150.00 L 550.78 168.75 L 485.16 185.16 L 421.88 192.19 L 337.50 189.84 L 243.75 168.75 L 53.91 79.69 L 7.03 70.31" stroke="black" fill="transparent"/>
	<path d = "M 332.81 0.00 L 292.97 35.16 L 281.25 82.03 L 283.59 138.28 L 314.06 178.12" stroke="black" fill="transparent"/>
	<path d = "M 426.56 2.34 L 464.06 16.41 L 466.41 86.72 L 452.34 131.25 L 424.22 180.47" stroke="black" fill="transparent"/>
	<path d = "M 379.69 89.06 L 379.69 103.12 L 386.72 105.47 L 379.69 89.06" stroke="black" fill="transparent"/>
	<path d = "M 393.75 67.97 L 365.62 65.62 L 335.16 98.44 L 323.44 126.56 L 335.16 145.31 L 384.38 159.38 L 414.84 140.62 L 431.25 119.53 L 424.22 91.41 L 389.06 65.62" stroke="black" fill="transparent"/>
</svg>