<?xml version="1.0" encoding="UTF-8" standalone="no"?>
<!--Created with ndjsontosvg (https:https://github.com/thompson318/ndjsontosvg) 
	from the simplified Google quickdraw data set. key_id = 6659129198247936-->
<svg width="600" height="600"
	xmlns="http://www.w3.org/2000/svg">
	xmlns:ndjsontosvg="https://github.com/thompson318/ndjsontosvg"
	xmlns:quickdraw="https://quickdraw.withgoogle.com/data"
	xmlns:scikit-surgery="https://doi.org/10.1007/s11548-020-02180-5">

	<rect width="100%" height="100%" fill="white" />
	<path d = "M 0.00 152.34 L 107.81 46.88 L 157.03 16.41 L 206.25 0.00 L 295.31 0.00 L 398.44 18.75 L 473.44 53.91 L 555.47 103.12" stroke="black" fill="transparent"/>
	<path d = "M 9.38 164.06 L 32.81 168.75 L 93.75 215.62 L 133.59 236.72 L 189.84 250.78 L 248.44 250.78 L 356.25 222.66 L 440.62 189.84 L 560.16 121.88 L 597.66 91.41" stroke="black" fill="transparent"/>
	<path d = "M 225.00 18.75 L 161.72 18.75 L 131.25 39.84 L 91.41 107.81 L 86.72 135.94 L 91.41 164.06 L 131.25 196.88 L 210.94 236.72 L 337.50 248.44 L 358.59 234.38 L 421.88 114.84 L 428.91 60.94 L 403.12 39.84 L 328.12 16.41 L 229.69 9.38" stroke="black" fill="transparent"/>
</svg>