<?xml version="1.0" encoding="UTF-8" standalone="no"?>
<!--Created with ndjsontosvg (https:https://github.com/thompson318/ndjsontosvg) 
	from the simplified Google quickdraw data set. key_id = 5619891212124160-->
<svg width="600" height="600"
	xmlns="http://www.w3.org/2000/svg">
	xmlns:ndjsontosvg="https://github.com/thompson318/ndjsontosvg"
	xmlns:quickdraw="https://quickdraw.withgoogle.com/data"
	xmlns:scikit-surgery="https://doi.org/10.1007/s11548-020-02180-5">

	<rect width="100%" height="100%" fill="white" />
	<path d = "M 56.25 257.81 L 157.03 159.38 L 201.56 133.59 L 222.66 133.59 L 217.97 114.84 L 278.91 105.47 L 365.62 105.47 L 471.09 140.62 L 475.78 150.00 L 581.25 225.00 L 597.66 250.78 L 546.09 335.16 L 445.31 389.06 L 325.78 419.53 L 248.44 433.59 L 171.09 433.59 L 112.50 393.75 L 56.25 330.47 L 30.47 271.88 L 60.94 250.78" stroke="black" fill="transparent"/>
	<path d = "M 180.47 152.34 L 150.00 178.12 L 142.97 241.41 L 152.34 269.53 L 189.84 325.78 L 227.34 365.62 L 257.81 382.03 L 307.03 398.44 L 375.00 400.78 L 398.44 384.38 L 421.88 346.88 L 428.91 297.66 L 428.91 246.09 L 386.72 182.81 L 318.75 119.53" stroke="black" fill="transparent"/>
	<path d = "M 283.59 241.41 L 262.50 239.06 L 243.75 255.47 L 243.75 290.62 L 267.19 304.69 L 309.38 304.69 L 316.41 295.31 L 321.09 255.47 L 311.72 243.75 L 285.94 236.72" stroke="black" fill="transparent"/>
	<path d = "M 0.00 140.62 L 49.22 89.06 L 145.31 30.47 L 206.25 9.38 L 297.66 0.00" stroke="black" fill="transparent"/>
</svg>