<?xml version="1.0" encoding="UTF-8" standalone="no"?>
<!--Created with ndjsontosvg (https:https://github.com/thompson318/ndjsontosvg) 
	from the simplified Google quickdraw data set. key_id = 4732269497417728-->
<svg width="600" height="600"
	xmlns="http://www.w3.org/2000/svg">
	xmlns:ndjsontosvg="https://github.com/thompson318/ndjsontosvg"
	xmlns:quickdraw="https://quickdraw.withgoogle.com/data"
	xmlns:scikit-surgery="https://doi.org/10.1007/s11548-020-02180-5">

	<rect width="100%" height="100%" fill="white" />
	<path d = "M 30.47 356.25 L 93.75 250.78 L 140.62 199.22 L 175.78 173.44 L 241.41 147.66 L 276.56 140.62 L 370.31 147.66 L 461.72 189.84 L 532.03 248.44 L 562.50 297.66 L 571.88 330.47 L 569.53 396.09 L 557.81 433.59 L 539.06 468.75 L 487.50 532.03 L 393.75 583.59 L 342.19 595.31 L 290.62 597.66 L 239.06 588.28 L 138.28 550.78 L 67.97 492.19 L 16.41 414.84 L 0.00 346.88 L 2.34 297.66 L 14.06 285.94" stroke="black" fill="transparent"/>
	<path d = "M 464.06 264.84 L 417.19 210.94 L 386.72 192.19 L 351.56 185.16 L 311.72 189.84 L 255.47 222.66 L 201.56 300.00 L 178.12 365.62 L 175.78 393.75 L 185.16 435.94 L 229.69 468.75 L 304.69 478.12 L 339.84 454.69 L 370.31 405.47 L 372.66 349.22 L 365.62 318.75 L 307.03 208.59" stroke="black" fill="transparent"/>
	<path d = "M 53.91 222.66 L 39.84 215.62 L 25.78 194.53 L 16.41 140.62 L 28.12 89.06 L 53.91 67.97" stroke="black" fill="transparent"/>
	<path d = "M 175.78 157.03 L 154.69 133.59 L 150.00 103.12 L 157.03 72.66 L 180.47 35.16 L 220.31 0.00" stroke="black" fill="transparent"/>
	<path d = "M 358.59 114.84 L 358.59 114.84" stroke="black" fill="transparent"/>
</svg>