<?xml version="1.0" encoding="UTF-8" standalone="no"?>
<!--Created with ndjsontosvg (https:https://github.com/thompson318/ndjsontosvg) 
	from the simplified Google quickdraw data set. key_id = 4902777736134656-->
<svg width="600" height="600"
	xmlns="http://www.w3.org/2000/svg">
	xmlns:ndjsontosvg="https://github.com/thompson318/ndjsontosvg"
	xmlns:quickdraw="https://quickdraw.withgoogle.com/data"
	xmlns:scikit-surgery="https://doi.org/10.1007/s11548-020-02180-5">

	<rect width="100%" height="100%" fill="white" />
	<path d = "M 536.72 100.78 L 480.47 77.34 L 365.62 67.97 L 185.16 112.50 L 70.31 161.72 L 44.53 175.78 L 18.75 208.59 L 0.00 262.50 L 2.34 304.69 L 11.72 330.47 L 42.19 353.91 L 63.28 358.59 L 234.38 365.62 L 412.50 339.84 L 466.41 330.47 L 571.88 281.25 L 597.66 232.03 L 583.59 182.81 L 541.41 133.59 L 485.16 86.72" stroke="black" fill="transparent"/>
	<path d = "M 222.66 107.81 L 180.47 182.81 L 157.03 262.50 L 161.72 309.38 L 182.81 351.56 L 208.59 382.03" stroke="black" fill="transparent"/>
	<path d = "M 410.16 103.12 L 442.97 124.22 L 457.03 154.69 L 466.41 196.88 L 445.31 267.19 L 424.22 307.03 L 400.78 325.78" stroke="black" fill="transparent"/>
	<path d = "M 318.75 133.59 L 281.25 173.44 L 260.16 215.62 L 267.19 264.84 L 285.94 281.25 L 300.00 281.25 L 314.06 278.91 L 323.44 264.84 L 337.50 213.28 L 330.47 150.00" stroke="black" fill="transparent"/>
	<path d = "M 103.12 182.81 L 67.97 135.94 L 65.62 105.47" stroke="black" fill="transparent"/>
	<path d = "M 215.62 114.84 L 206.25 112.50 L 199.22 98.44 L 201.56 70.31 L 262.50 32.81" stroke="black" fill="transparent"/>
	<path d = "M 307.03 79.69 L 323.44 32.81 L 351.56 11.72 L 377.34 0.00" stroke="black" fill="transparent"/>
	<path d = "M 426.56 56.25 L 473.44 37.50" stroke="black" fill="transparent"/>
	<path d = "M 517.97 103.12 L 574.22 75.00" stroke="black" fill="transparent"/>
</svg>