<?xml version="1.0" encoding="UTF-8" standalone="no"?>
<!--Created with ndjsontosvg (https:https://github.com/thompson318/ndjsontosvg) 
	from the simplified Google quickdraw data set. key_id = 5325283420798976-->
<svg width="600" height="600"
	xmlns="http://www.w3.org/2000/svg">
	xmlns:ndjsontosvg="https://github.com/thompson318/ndjsontosvg"
	xmlns:quickdraw="https://quickdraw.withgoogle.com/data"
	xmlns:scikit-surgery="https://doi.org/10.1007/s11548-020-02180-5">

	<rect width="100%" height="100%" fill="white" />
	<path d = "M 257.81 194.53 L 316.41 199.22 L 318.75 206.25" stroke="black" fill="transparent"/>
	<path d = "M 241.41 187.50 L 241.41 187.50" stroke="black" fill="transparent"/>
	<path d = "M 255.47 194.53 L 255.47 171.09 L 246.09 142.97 L 232.03 128.91 L 187.50 110.16 L 154.69 103.12 L 128.91 107.81 L 103.12 121.88 L 82.03 145.31 L 67.97 180.47 L 67.97 208.59 L 89.06 239.06 L 121.88 264.84 L 164.06 260.16 L 248.44 206.25" stroke="black" fill="transparent"/>
	<path d = "M 314.06 210.94 L 339.84 203.91 L 335.16 145.31 L 353.91 105.47 L 386.72 82.03 L 414.84 75.00 L 452.34 79.69 L 475.78 107.81 L 480.47 164.06 L 464.06 201.56 L 400.78 248.44 L 344.53 262.50 L 323.44 257.81 L 314.06 241.41 L 311.72 225.00 L 330.47 185.16" stroke="black" fill="transparent"/>
	<path d = "M 471.09 187.50 L 548.44 84.38 L 597.66 35.16" stroke="black" fill="transparent"/>
	<path d = "M 65.62 206.25 L 49.22 206.25 L 28.12 159.38 L 0.00 0.00" stroke="black" fill="transparent"/>
</svg>