<?xml version="1.0" encoding="UTF-8" standalone="no"?>
<!--Created with ndjsontosvg (https:https://github.com/thompson318/ndjsontosvg) 
	from the simplified Google quickdraw data set. key_id = 4980036882923520-->
<svg width="600" height="600"
	xmlns="http://www.w3.org/2000/svg">
	xmlns:ndjsontosvg="https://github.com/thompson318/ndjsontosvg"
	xmlns:quickdraw="https://quickdraw.withgoogle.com/data"
	xmlns:scikit-surgery="https://doi.org/10.1007/s11548-020-02180-5">

	<rect width="100%" height="100%" fill="white" />
	<path d = "M 18.75 72.66 L 2.34 107.81 L 4.69 175.78 L 21.09 206.25 L 77.34 229.69 L 126.56 217.97 L 147.66 203.91 L 164.06 178.12 L 164.06 119.53 L 138.28 84.38 L 82.03 56.25 L 23.44 46.88 L 39.84 72.66" stroke="black" fill="transparent"/>
	<path d = "M 168.75 168.75 L 260.16 168.75" stroke="black" fill="transparent"/>
	<path d = "M 417.19 105.47 L 344.53 107.81 L 309.38 128.91 L 295.31 166.41 L 290.62 225.00 L 314.06 246.09 L 400.78 248.44 L 421.88 243.75 L 445.31 225.00 L 452.34 185.16 L 447.66 157.03 L 428.91 126.56 L 393.75 91.41" stroke="black" fill="transparent"/>
	<path d = "M 428.91 159.38 L 475.78 110.16 L 548.44 53.91 L 597.66 0.00" stroke="black" fill="transparent"/>
</svg>