<?xml version="1.0" encoding="UTF-8" standalone="no"?>
<!--Created with ndjsontosvg (https:https://github.com/thompson318/ndjsontosvg) 
	from the simplified Google quickdraw data set. key_id = 4755986692702208-->
<svg width="600" height="600"
	xmlns="http://www.w3.org/2000/svg">
	xmlns:ndjsontosvg="https://github.com/thompson318/ndjsontosvg"
	xmlns:quickdraw="https://quickdraw.withgoogle.com/data"
	xmlns:scikit-surgery="https://doi.org/10.1007/s11548-020-02180-5">

	<rect width="100%" height="100%" fill="white" />
	<path d = "M 44.53 131.25 L 44.53 159.38 L 60.94 210.94 L 98.44 281.25 L 131.25 297.66 L 168.75 285.94 L 225.00 217.97 L 248.44 164.06 L 250.78 145.31 L 46.88 128.91" stroke="black" fill="transparent"/>
	<path d = "M 246.09 154.69 L 433.59 147.66" stroke="black" fill="transparent"/>
	<path d = "M 382.03 164.06 L 379.69 227.34 L 386.72 260.16 L 417.19 297.66 L 435.94 302.34 L 452.34 297.66 L 508.59 227.34 L 555.47 154.69 L 398.44 140.62" stroke="black" fill="transparent"/>
	<path d = "M 543.75 168.75 L 585.94 72.66 L 597.66 21.09 L 590.62 0.00" stroke="black" fill="transparent"/>
	<path d = "M 56.25 161.72 L 16.41 103.12 L 2.34 63.28 L 0.00 37.50 L 9.38 21.09 L 30.47 7.03" stroke="black" fill="transparent"/>
	<path d = "M 93.75 166.41 L 119.53 173.44" stroke="black" fill="transparent"/>
	<path d = "M 89.06 199.22 L 91.41 194.53" stroke="black" fill="transparent"/>
</svg>