<?xml version="1.0" encoding="UTF-8" standalone="no"?>
<!--Created with ndjsontosvg (https:https://github.com/thompson318/ndjsontosvg) 
	from the simplified Google quickdraw data set. key_id = 5223211320999936-->
<svg width="600" height="600"
	xmlns="http://www.w3.org/2000/svg">
	xmlns:ndjsontosvg="https://github.com/thompson318/ndjsontosvg"
	xmlns:quickdraw="https://quickdraw.withgoogle.com/data"
	xmlns:scikit-surgery="https://doi.org/10.1007/s11548-020-02180-5">

	<rect width="100%" height="100%" fill="white" />
	<path d = "M 217.97 114.84 L 215.62 103.12 L 225.00 91.41 L 271.88 72.66 L 309.38 77.34 L 335.16 103.12" stroke="black" fill="transparent"/>
	<path d = "M 468.75 9.38 L 382.03 9.38 L 344.53 32.81 L 339.84 117.19 L 353.91 135.94 L 386.72 154.69 L 452.34 157.03 L 468.75 147.66 L 489.84 114.84 L 496.88 65.62 L 492.19 7.03 L 438.28 0.00" stroke="black" fill="transparent"/>
	<path d = "M 182.81 25.78 L 152.34 25.78 L 133.59 39.84 L 121.88 49.22 L 110.16 75.00 L 121.88 128.91 L 133.59 140.62 L 171.09 147.66 L 225.00 142.97 L 232.03 131.25 L 227.34 53.91 L 208.59 30.47 L 178.12 25.78" stroke="black" fill="transparent"/>
	<path d = "M 89.06 79.69 L 18.75 70.31 L 0.00 77.34" stroke="black" fill="transparent"/>
	<path d = "M 532.03 49.22 L 567.19 49.22 L 597.66 35.16" stroke="black" fill="transparent"/>
</svg>