<?xml version="1.0" encoding="UTF-8" standalone="no"?>
<!--Created with ndjsontosvg (https:https://github.com/thompson318/ndjsontosvg) 
	from the simplified Google quickdraw data set. key_id = 6256809964732416-->
<svg width="600" height="600"
	xmlns="http://www.w3.org/2000/svg">
	xmlns:ndjsontosvg="https://github.com/thompson318/ndjsontosvg"
	xmlns:quickdraw="https://quickdraw.withgoogle.com/data"
	xmlns:scikit-surgery="https://doi.org/10.1007/s11548-020-02180-5">

	<rect width="100%" height="100%" fill="white" />
	<path d = "M 161.72 2.34 L 142.97 4.69 L 46.88 49.22 L 23.44 77.34 L 2.34 138.28 L 0.00 227.34 L 9.38 255.47 L 28.12 264.84 L 91.41 264.84 L 103.12 257.81 L 168.75 203.91 L 189.84 164.06 L 199.22 126.56 L 199.22 84.38 L 182.81 39.84 L 140.62 0.00" stroke="black" fill="transparent"/>
	<path d = "M 203.91 150.00 L 318.75 150.00 L 393.75 168.75" stroke="black" fill="transparent"/>
	<path d = "M 501.56 25.78 L 442.97 46.88 L 419.53 79.69 L 405.47 117.19 L 407.81 206.25 L 417.19 222.66 L 452.34 239.06 L 529.69 222.66 L 578.91 201.56 L 595.31 180.47 L 592.97 121.88 L 571.88 72.66 L 539.06 32.81 L 510.94 25.78" stroke="black" fill="transparent"/>
</svg>