<?xml version="1.0" encoding="UTF-8" standalone="no"?>
<!--Created with ndjsontosvg (https:https://github.com/thompson318/ndjsontosvg) 
	from the simplified Google quickdraw data set. key_id = 5157983036112896-->
<svg width="600" height="600"
	xmlns="http://www.w3.org/2000/svg">
	xmlns:ndjsontosvg="https://github.com/thompson318/ndjsontosvg"
	xmlns:quickdraw="https://quickdraw.withgoogle.com/data"
	xmlns:scikit-surgery="https://doi.org/10.1007/s11548-020-02180-5">

	<rect width="100%" height="100%" fill="white" />
	<path d = "M 274.22 37.50 L 217.97 35.16 L 164.06 70.31 L 82.03 168.75 L 37.50 248.44 L 7.03 342.19 L 0.00 464.06 L 7.03 494.53 L 23.44 522.66 L 75.00 571.88 L 152.34 595.31 L 248.44 597.66 L 304.69 585.94 L 360.94 560.16 L 454.69 492.19 L 494.53 445.31 L 550.78 351.56 L 583.59 269.53 L 595.31 196.88 L 588.28 138.28 L 553.12 86.72 L 529.69 65.62 L 475.78 35.16 L 407.81 14.06 L 213.28 0.00" stroke="black" fill="transparent"/>
	<path d = "M 173.44 196.88 L 152.34 201.56 L 135.94 220.31 L 126.56 274.22 L 147.66 295.31 L 166.41 297.66 L 185.16 300.00 L 203.91 285.94 L 227.34 246.09 L 229.69 206.25 L 215.62 178.12 L 185.16 173.44 L 166.41 182.81 L 152.34 194.53 L 145.31 227.34" stroke="black" fill="transparent"/>
	<path d = "M 438.28 161.72 L 424.22 154.69 L 375.00 159.38 L 314.06 203.91 L 304.69 222.66 L 300.00 257.81 L 309.38 278.91 L 342.19 309.38 L 382.03 314.06 L 421.88 278.91 L 440.62 243.75 L 454.69 203.91 L 459.38 166.41 L 407.81 161.72 L 379.69 168.75 L 337.50 199.22 L 328.12 217.97" stroke="black" fill="transparent"/>
	<path d = "M 58.59 464.06 L 154.69 468.75 L 213.28 461.72 L 398.44 386.72" stroke="black" fill="transparent"/>
</svg>