<?xml version="1.0" encoding="UTF-8" standalone="no"?>
<!--Created with ndjsontosvg (https:https://github.com/thompson318/ndjsontosvg) 
	from the simplified Google quickdraw data set. key_id = 5917854018830336-->
<svg width="600" height="600"
	xmlns="http://www.w3.org/2000/svg">
	xmlns:ndjsontosvg="https://github.com/thompson318/ndjsontosvg"
	xmlns:quickdraw="https://quickdraw.withgoogle.com/data"
	xmlns:scikit-surgery="https://doi.org/10.1007/s11548-020-02180-5">

	<rect width="100%" height="100%" fill="white" />
	<path d = "M 271.88 14.06 L 213.28 18.75 L 168.75 39.84 L 107.81 84.38 L 51.56 164.06 L 11.72 253.12 L 0.00 325.78 L 0.00 396.09 L 11.72 438.28 L 60.94 513.28 L 117.19 560.16 L 182.81 592.97 L 349.22 595.31 L 426.56 569.53 L 482.81 539.06 L 520.31 513.28 L 562.50 447.66 L 564.84 288.28 L 541.41 215.62 L 517.97 178.12 L 447.66 107.81 L 349.22 35.16 L 309.38 9.38 L 255.47 2.34" stroke="black" fill="transparent"/>
	<path d = "M 159.38 241.41 L 161.72 166.41 L 171.09 135.94 L 187.50 110.16 L 196.88 110.16 L 215.62 150.00 L 241.41 257.81 L 180.47 253.12 L 161.72 243.75 L 182.81 208.59 L 196.88 246.09 L 185.16 225.00 L 180.47 241.41 L 178.12 225.00" stroke="black" fill="transparent"/>
	<path d = "M 267.19 262.50 L 267.19 157.03 L 281.25 110.16 L 288.28 107.81 L 321.09 159.38 L 342.19 241.41 L 342.19 250.78 L 267.19 260.16 L 278.91 255.47 L 304.69 201.56 L 307.03 262.50 L 295.31 220.31 L 285.94 239.06" stroke="black" fill="transparent"/>
	<path d = "M 171.09 325.78 L 194.53 363.28 L 234.38 375.00 L 290.62 370.31 L 316.41 349.22 L 323.44 335.16" stroke="black" fill="transparent"/>
	<path d = "M 241.41 295.31 L 232.03 309.38 L 250.78 311.72" stroke="black" fill="transparent"/>
</svg>