<?xml version="1.0" encoding="UTF-8" standalone="no"?>
<!--Created with ndjsontosvg (https:https://github.com/thompson318/ndjsontosvg) 
	from the simplified Google quickdraw data set. key_id = 6699180691030016-->
<svg width="600" height="600"
	xmlns="http://www.w3.org/2000/svg">
	xmlns:ndjsontosvg="https://github.com/thompson318/ndjsontosvg"
	xmlns:quickdraw="https://quickdraw.withgoogle.com/data"
	xmlns:scikit-surgery="https://doi.org/10.1007/s11548-020-02180-5">

	<rect width="100%" height="100%" fill="white" />
	<path d = "M 194.53 16.41 L 168.75 28.12 L 93.75 82.03 L 30.47 166.41 L 14.06 201.56 L 2.34 297.66 L 0.00 384.38 L 46.88 478.12 L 105.47 534.38 L 185.16 576.56 L 283.59 597.66 L 323.44 592.97 L 370.31 567.19 L 412.50 534.38 L 466.41 473.44 L 508.59 367.97 L 508.59 255.47 L 487.50 178.12 L 398.44 58.59 L 356.25 30.47 L 285.94 2.34 L 229.69 0.00 L 192.19 16.41" stroke="black" fill="transparent"/>
	<path d = "M 180.47 105.47 L 157.03 135.94 L 135.94 180.47 L 131.25 229.69 L 138.28 241.41 L 178.12 271.88 L 225.00 278.91 L 250.78 264.84 L 267.19 229.69 L 269.53 189.84 L 243.75 128.91 L 194.53 84.38 L 166.41 84.38" stroke="black" fill="transparent"/>
	<path d = "M 386.72 152.34 L 367.97 185.16 L 360.94 227.34 L 377.34 262.50 L 393.75 269.53 L 414.84 262.50 L 450.00 234.38 L 452.34 217.97 L 417.19 173.44 L 386.72 154.69 L 363.28 147.66 L 342.19 152.34" stroke="black" fill="transparent"/>
	<path d = "M 253.12 356.25 L 241.41 365.62 L 241.41 405.47 L 281.25 438.28 L 332.81 461.72 L 356.25 468.75 L 360.94 461.72 L 360.94 407.81 L 349.22 379.69 L 285.94 342.19 L 253.12 342.19 L 243.75 353.91" stroke="black" fill="transparent"/>
	<path d = "M 262.50 375.00 L 269.53 398.44 L 285.94 414.84 L 292.97 417.19 L 295.31 410.16 L 271.88 384.38" stroke="black" fill="transparent"/>
	<path d = "M 297.66 389.06 L 307.03 410.16 L 318.75 414.84 L 332.81 403.12 L 318.75 396.09" stroke="black" fill="transparent"/>
	<path d = "M 199.22 447.66 L 199.22 466.41 L 217.97 499.22 L 241.41 529.69 L 262.50 546.09" stroke="black" fill="transparent"/>
</svg>