<?xml version="1.0" encoding="UTF-8" standalone="no"?>
<!--Created with ndjsontosvg (https:https://github.com/thompson318/ndjsontosvg) 
	from the simplified Google quickdraw data set. key_id = 6543997944201216-->
<svg width="600" height="600"
	xmlns="http://www.w3.org/2000/svg">
	xmlns:ndjsontosvg="https://github.com/thompson318/ndjsontosvg"
	xmlns:quickdraw="https://quickdraw.withgoogle.com/data"
	xmlns:scikit-surgery="https://doi.org/10.1007/s11548-020-02180-5">

	<rect width="100%" height="100%" fill="white" />
	<path d = "M 203.91 206.25 L 145.31 246.09 L 86.72 316.41 L 65.62 363.28 L 65.62 398.44 L 79.69 414.84 L 119.53 421.88 L 157.03 414.84 L 196.88 389.06 L 229.69 337.50 L 236.72 290.62 L 232.03 236.72 L 227.34 213.28 L 215.62 203.91" stroke="black" fill="transparent"/>
	<path d = "M 382.03 2.34 L 335.16 4.69 L 283.59 28.12 L 246.09 56.25 L 203.91 105.47 L 192.19 135.94 L 196.88 150.00 L 239.06 164.06 L 281.25 154.69 L 323.44 126.56 L 353.91 84.38 L 351.56 46.88 L 328.12 21.09" stroke="black" fill="transparent"/>
	<path d = "M 232.03 159.38 L 217.97 157.03 L 203.91 171.09 L 203.91 196.88 L 215.62 203.91 L 234.38 189.84 L 246.09 154.69" stroke="black" fill="transparent"/>
	<path d = "M 253.12 171.09 L 281.25 164.06 L 351.56 168.75 L 393.75 189.84 L 438.28 220.31 L 480.47 271.88 L 482.81 302.34 L 468.75 332.81 L 417.19 349.22 L 358.59 325.78 L 309.38 281.25 L 239.06 185.16" stroke="black" fill="transparent"/>
	<path d = "M 227.34 166.41 L 128.91 114.84 L 79.69 114.84 L 42.19 128.91 L 2.34 164.06 L 0.00 180.47 L 18.75 192.19 L 180.47 194.53" stroke="black" fill="transparent"/>
	<path d = "M 232.03 227.34 L 239.06 281.25 L 234.38 391.41 L 239.06 522.66 L 253.12 597.66" stroke="black" fill="transparent"/>
</svg>