<?xml version="1.0" encoding="UTF-8" standalone="no"?>
<!--Created with ndjsontosvg (https:https://github.com/thompson318/ndjsontosvg) 
	from the simplified Google quickdraw data set. key_id = 4948342188539904-->
<svg width="600" height="600"
	xmlns="http://www.w3.org/2000/svg">
	xmlns:ndjsontosvg="https://github.com/thompson318/ndjsontosvg"
	xmlns:quickdraw="https://quickdraw.withgoogle.com/data"
	xmlns:scikit-surgery="https://doi.org/10.1007/s11548-020-02180-5">

	<rect width="100%" height="100%" fill="white" />
	<path d = "M 154.69 77.34 L 121.88 77.34 L 82.03 96.09 L 46.88 128.91 L 18.75 173.44 L 2.34 225.00 L 0.00 288.28 L 9.38 328.12 L 35.16 382.03 L 63.28 414.84 L 117.19 454.69 L 199.22 485.16 L 239.06 487.50 L 295.31 478.12 L 330.47 461.72 L 372.66 428.91 L 414.84 377.34 L 447.66 295.31 L 466.41 199.22 L 459.38 131.25 L 433.59 86.72 L 379.69 51.56 L 285.94 28.12 L 210.94 25.78" stroke="black" fill="transparent"/>
	<path d = "M 239.06 220.31 L 208.59 234.38 L 192.19 274.22 L 194.53 295.31 L 213.28 311.72 L 241.41 309.38 L 255.47 292.97 L 257.81 271.88 L 248.44 241.41 L 239.06 232.03" stroke="black" fill="transparent"/>
	<path d = "M 213.28 246.09 L 86.72 114.84" stroke="black" fill="transparent"/>
	<path d = "M 292.97 49.22 L 239.06 206.25" stroke="black" fill="transparent"/>
	<path d = "M 51.56 410.16 L 192.19 302.34" stroke="black" fill="transparent"/>
	<path d = "M 142.97 494.53 L 234.38 316.41" stroke="black" fill="transparent"/>
	<path d = "M 274.22 290.62 L 459.38 353.91" stroke="black" fill="transparent"/>
	<path d = "M 250.78 234.38 L 318.75 227.34 L 426.56 196.88" stroke="black" fill="transparent"/>
	<path d = "M 103.12 96.09 L 145.31 51.56 L 180.47 28.12 L 316.41 0.00" stroke="black" fill="transparent"/>
	<path d = "M 121.88 440.62 L 89.06 496.88 L 75.00 553.12 L 77.34 564.84 L 96.09 576.56 L 152.34 592.97 L 271.88 597.66 L 346.88 590.62 L 349.22 567.19 L 318.75 466.41" stroke="black" fill="transparent"/>
</svg>