<?xml version="1.0" encoding="UTF-8" standalone="no"?>
<!--Created with ndjsontosvg (https:https://github.com/thompson318/ndjsontosvg) 
	from the simplified Google quickdraw data set. key_id = 4876956745072640-->
<svg width="600" height="600"
	xmlns="http://www.w3.org/2000/svg">
	xmlns:ndjsontosvg="https://github.com/thompson318/ndjsontosvg"
	xmlns:quickdraw="https://quickdraw.withgoogle.com/data"
	xmlns:scikit-surgery="https://doi.org/10.1007/s11548-020-02180-5">

	<rect width="100%" height="100%" fill="white" />
	<path d = "M 217.97 25.78 L 199.22 4.69 L 147.66 0.00 L 82.03 21.09 L 46.88 53.91 L 30.47 100.78 L 35.16 164.06 L 67.97 208.59 L 107.81 232.03 L 180.47 229.69 L 227.34 194.53 L 257.81 147.66 L 269.53 96.09 L 262.50 51.56 L 232.03 32.81 L 180.47 18.75" stroke="black" fill="transparent"/>
	<path d = "M 128.91 103.12 L 124.22 135.94 L 133.59 157.03 L 161.72 152.34 L 189.84 124.22 L 187.50 112.50 L 173.44 105.47 L 121.88 96.09 L 126.56 103.12 L 145.31 96.09 L 142.97 4.69 L 145.31 142.97 L 154.69 119.53 L 175.78 103.12 L 285.94 53.91 L 248.44 67.97 L 164.06 114.84 L 222.66 138.28 L 262.50 171.09 L 255.47 154.69 L 243.75 152.34 L 166.41 152.34 L 159.38 253.12 L 159.38 164.06 L 152.34 140.62 L 56.25 178.12 L 0.00 185.16 L 75.00 168.75 L 145.31 133.59 L 110.16 117.19 L 79.69 35.16" stroke="black" fill="transparent"/>
	<path d = "M 157.03 243.75 L 166.41 367.97 L 164.06 567.19" stroke="black" fill="transparent"/>
	<path d = "M 161.72 424.22 L 271.88 424.22 L 274.22 503.91 L 300.00 597.66" stroke="black" fill="transparent"/>
</svg>