<?xml version="1.0" encoding="UTF-8" standalone="no"?>
<!--Created with ndjsontosvg (https:https://github.com/thompson318/ndjsontosvg) 
	from the simplified Google quickdraw data set. key_id = 4589509750554624-->
<svg width="600" height="600"
	xmlns="http://www.w3.org/2000/svg">
	xmlns:ndjsontosvg="https://github.com/thompson318/ndjsontosvg"
	xmlns:quickdraw="https://quickdraw.withgoogle.com/data"
	xmlns:scikit-surgery="https://doi.org/10.1007/s11548-020-02180-5">

	<rect width="100%" height="100%" fill="white" />
	<path d = "M 285.94 515.62 L 314.06 503.91 L 358.59 499.22 L 384.38 527.34 L 382.03 562.50 L 353.91 583.59 L 325.78 590.62 L 210.94 592.97 L 161.72 578.91 L 105.47 597.66 L 58.59 588.28 L 35.16 569.53 L 49.22 541.41 L 65.62 527.34 L 112.50 508.59 L 166.41 508.59 L 199.22 517.97 L 206.25 513.28 L 203.91 445.31 L 187.50 405.47 L 201.56 358.59 L 206.25 269.53 L 201.56 250.78 L 159.38 225.00 L 157.03 210.94 L 82.03 225.00 L 46.88 248.44 L 0.00 194.53 L 11.72 152.34 L 39.84 124.22 L 79.69 103.12 L 128.91 51.56 L 187.50 25.78 L 253.12 16.41 L 257.81 9.38 L 281.25 4.69 L 309.38 7.03 L 321.09 0.00 L 351.56 16.41 L 363.28 28.12 L 365.62 49.22 L 398.44 114.84 L 410.16 168.75 L 400.78 203.91 L 379.69 225.00 L 332.81 232.03 L 278.91 201.56 L 267.19 215.62 L 262.50 297.66 L 281.25 356.25 L 283.59 398.44 L 278.91 508.59 L 288.28 525.00 L 307.03 532.03" stroke="black" fill="transparent"/>
	<path d = "M 243.75 105.47 L 210.94 114.84 L 206.25 142.97 L 213.28 154.69 L 236.72 133.59 L 239.06 107.81 L 222.66 114.84 L 215.62 147.66 L 225.00 145.31 L 229.69 126.56 L 189.84 117.19 L 168.75 91.41 L 128.91 82.03 L 140.62 128.91 L 150.00 145.31 L 159.38 150.00 L 196.88 133.59 L 206.25 124.22 L 145.31 142.97 L 46.88 138.28 L 23.44 150.00 L 86.72 182.81 L 124.22 173.44 L 185.16 138.28 L 215.62 145.31 L 192.19 157.03 L 175.78 175.78 L 173.44 199.22 L 203.91 210.94 L 222.66 168.75" stroke="black" fill="transparent"/>
</svg>