<?xml version="1.0" encoding="UTF-8" standalone="no"?>
<!--Created with ndjsontosvg (https:https://github.com/thompson318/ndjsontosvg) 
	from the simplified Google quickdraw data set. key_id = 6239178905878528-->
<svg width="600" height="600"
	xmlns="http://www.w3.org/2000/svg">
	xmlns:ndjsontosvg="https://github.com/thompson318/ndjsontosvg"
	xmlns:quickdraw="https://quickdraw.withgoogle.com/data"
	xmlns:scikit-surgery="https://doi.org/10.1007/s11548-020-02180-5">

	<rect width="100%" height="100%" fill="white" />
	<path d = "M 292.97 590.62 L 180.47 597.66 L 135.94 585.94 L 117.19 557.81 L 133.59 529.69 L 171.09 532.03 L 185.16 522.66 L 201.56 403.12 L 175.78 407.81 L 138.28 393.75 L 65.62 382.03 L 39.84 360.94 L 21.09 328.12 L 4.69 262.50 L 0.00 152.34 L 4.69 131.25 L 42.19 100.78 L 103.12 98.44 L 234.38 117.19 L 344.53 145.31 L 407.81 171.09 L 440.62 201.56 L 445.31 269.53 L 407.81 375.00 L 386.72 384.38 L 276.56 393.75 L 262.50 398.44 L 250.78 414.84 L 241.41 445.31 L 241.41 515.62 L 255.47 525.00 L 330.47 529.69 L 349.22 562.50 L 346.88 583.59 L 332.81 595.31 L 260.16 590.62" stroke="black" fill="transparent"/>
	<path d = "M 201.56 232.03 L 189.84 236.72 L 192.19 250.78 L 208.59 264.84 L 217.97 264.84 L 217.97 232.03 L 201.56 232.03 L 189.84 203.91 L 114.84 103.12 L 89.06 46.88 L 86.72 4.69 L 91.41 4.69" stroke="black" fill="transparent"/>
	<path d = "M 110.16 100.78 L 217.97 131.25 L 217.97 180.47 L 192.19 229.69 L 267.19 199.22 L 335.16 196.88 L 391.41 227.34 L 428.91 285.94 L 407.81 321.09 L 353.91 325.78 L 288.28 309.38 L 222.66 260.16 L 215.62 304.69 L 201.56 328.12 L 175.78 344.53 L 124.22 351.56 L 72.66 339.84 L 56.25 328.12 L 60.94 307.03 L 72.66 292.97 L 124.22 271.88" stroke="black" fill="transparent"/>
</svg>