<?xml version="1.0" encoding="UTF-8" standalone="no"?>
<!--Created with ndjsontosvg (https:https://github.com/thompson318/ndjsontosvg) 
	from the simplified Google quickdraw data set. key_id = 6673064890728448-->
<svg width="600" height="600"
	xmlns="http://www.w3.org/2000/svg">
	xmlns:ndjsontosvg="https://github.com/thompson318/ndjsontosvg"
	xmlns:quickdraw="https://quickdraw.withgoogle.com/data"
	xmlns:scikit-surgery="https://doi.org/10.1007/s11548-020-02180-5">

	<rect width="100%" height="100%" fill="white" />
	<path d = "M 246.09 389.06 L 222.66 400.78 L 112.50 513.28 L 60.94 576.56 L 56.25 590.62 L 77.34 597.66 L 124.22 595.31 L 182.81 578.91 L 302.34 564.84 L 370.31 543.75 L 351.56 527.34 L 297.66 433.59 L 290.62 389.06 L 262.50 375.00 L 114.84 372.66 L 63.28 325.78 L 11.72 243.75 L 0.00 147.66 L 25.78 86.72 L 56.25 51.56 L 89.06 28.12 L 152.34 9.38 L 241.41 9.38 L 274.22 21.09 L 353.91 70.31 L 375.00 93.75 L 391.41 140.62 L 396.09 234.38 L 379.69 295.31 L 311.72 365.62 L 267.19 386.72" stroke="black" fill="transparent"/>
	<path d = "M 203.91 0.00 L 201.56 232.03 L 217.97 377.34" stroke="black" fill="transparent"/>
	<path d = "M 51.56 206.25 L 67.97 215.62 L 346.88 236.72 L 363.28 246.09" stroke="black" fill="transparent"/>
	<path d = "M 112.50 96.09 L 119.53 128.91 L 147.66 185.16 L 107.81 147.66" stroke="black" fill="transparent"/>
</svg>