<?xml version="1.0" encoding="UTF-8" standalone="no"?>
<!--Created with ndjsontosvg (https:https://github.com/thompson318/ndjsontosvg) 
	from the simplified Google quickdraw data set. key_id = 5110952116617216-->
<svg width="600" height="600"
	xmlns="http://www.w3.org/2000/svg">
	xmlns:ndjsontosvg="https://github.com/thompson318/ndjsontosvg"
	xmlns:quickdraw="https://quickdraw.withgoogle.com/data"
	xmlns:scikit-surgery="https://doi.org/10.1007/s11548-020-02180-5">

	<rect width="100%" height="100%" fill="white" />
	<path d = "M 217.97 297.66 L 217.97 260.16 L 225.00 248.44 L 246.09 239.06 L 278.91 239.06 L 300.00 253.12 L 316.41 285.94 L 321.09 344.53 L 292.97 379.69 L 276.56 384.38 L 262.50 379.69 L 229.69 344.53 L 220.31 278.91" stroke="black" fill="transparent"/>
	<path d = "M 215.62 236.72 L 215.62 145.31 L 232.03 98.44 L 248.44 89.06 L 358.59 84.38 L 393.75 126.56 L 396.09 159.38 L 316.41 264.84 L 332.81 264.84 L 412.50 225.00 L 485.16 208.59 L 503.91 225.00 L 517.97 264.84 L 515.62 346.88 L 501.56 377.34 L 480.47 396.09 L 433.59 417.19 L 398.44 417.19 L 323.44 386.72 L 393.75 503.91 L 363.28 557.81 L 342.19 567.19 L 297.66 576.56 L 248.44 557.81 L 241.41 527.34 L 241.41 396.09" stroke="black" fill="transparent"/>
	<path d = "M 215.62 264.84 L 131.25 196.88 L 72.66 180.47 L 53.91 196.88 L 35.16 241.41 L 30.47 316.41 L 51.56 342.19 L 82.03 353.91 L 246.09 356.25 L 239.06 365.62 L 128.91 398.44 L 84.38 431.25 L 84.38 459.38 L 96.09 485.16 L 142.97 536.72 L 171.09 532.03 L 248.44 464.06 L 262.50 438.28 L 255.47 419.53" stroke="black" fill="transparent"/>
	<path d = "M 114.84 546.09 L 93.75 539.06 L 79.69 525.00 L 51.56 473.44 L 30.47 424.22 L 9.38 344.53 L 0.00 215.62 L 9.38 187.50 L 42.19 131.25 L 98.44 65.62 L 135.94 32.81 L 178.12 9.38 L 222.66 0.00 L 339.84 0.00 L 445.31 37.50 L 485.16 67.97 L 534.38 161.72 L 560.16 290.62 L 555.47 386.72 L 532.03 457.03 L 487.50 525.00 L 412.50 576.56 L 377.34 590.62 L 264.84 597.66 L 185.16 588.28 L 119.53 571.88 L 86.72 534.38 L 67.97 492.19" stroke="black" fill="transparent"/>
	<path d = "M 253.12 63.28 L 189.84 77.34 L 154.69 110.16 L 105.47 196.88 L 91.41 264.84 L 91.41 356.25 L 107.81 403.12 L 142.97 454.69 L 213.28 501.56 L 281.25 529.69 L 332.81 525.00 L 403.12 487.50 L 454.69 442.97 L 475.78 412.50 L 480.47 384.38 L 480.47 196.88" stroke="black" fill="transparent"/>
</svg>