<?xml version="1.0" encoding="UTF-8" standalone="no"?>
<!--Created with ndjsontosvg (https:https://github.com/thompson318/ndjsontosvg) 
	from the simplified Google quickdraw data set. key_id = 6315764631994368-->
<svg width="600" height="600"
	xmlns="http://www.w3.org/2000/svg">
	xmlns:ndjsontosvg="https://github.com/thompson318/ndjsontosvg"
	xmlns:quickdraw="https://quickdraw.withgoogle.com/data"
	xmlns:scikit-surgery="https://doi.org/10.1007/s11548-020-02180-5">

	<rect width="100%" height="100%" fill="white" />
	<path d = "M 0.00 428.91 L 89.06 412.50 L 271.88 335.16 L 403.12 260.16 L 482.81 185.16" stroke="black" fill="transparent"/>
	<path d = "M 107.81 389.06 L 201.56 189.84 L 239.06 126.56 L 246.09 124.22 L 246.09 142.97 L 236.72 203.91 L 250.78 178.12 L 356.25 63.28 L 412.50 16.41 L 454.69 0.00 L 360.94 189.84 L 384.38 166.41 L 447.66 124.22 L 520.31 96.09 L 555.47 93.75 L 520.31 157.03 L 597.66 159.38 L 532.03 217.97 L 478.12 253.12 L 562.50 285.94 L 426.56 342.19 L 356.25 356.25 L 332.81 372.66 L 285.94 375.00 L 196.88 400.78 L 119.53 398.44" stroke="black" fill="transparent"/>
</svg>