<?xml version="1.0" encoding="UTF-8" standalone="no"?>
<!--Created with ndjsontosvg (https:https://github.com/thompson318/ndjsontosvg) 
	from the simplified Google quickdraw data set. key_id = 5000383703285760-->
<svg width="600" height="600"
	xmlns="http://www.w3.org/2000/svg">
	xmlns:ndjsontosvg="https://github.com/thompson318/ndjsontosvg"
	xmlns:quickdraw="https://quickdraw.withgoogle.com/data"
	xmlns:scikit-surgery="https://doi.org/10.1007/s11548-020-02180-5">

	<rect width="100%" height="100%" fill="white" />
	<path d = "M 196.88 466.41 L 201.56 595.31 L 210.94 546.09 L 215.62 482.81 L 201.56 546.09 L 180.47 574.22" stroke="black" fill="transparent"/>
	<path d = "M 203.91 496.88 L 189.84 417.19 L 135.94 307.03 L 70.31 236.72 L 35.16 217.97 L 0.00 213.28 L 18.75 208.59 L 63.28 208.59 L 121.88 222.66 L 46.88 150.00 L 2.34 121.88 L 138.28 152.34 L 84.38 23.44 L 67.97 0.00 L 173.44 49.22 L 213.28 82.03 L 232.03 107.81 L 253.12 187.50 L 278.91 346.88 L 276.56 412.50 L 264.84 445.31 L 241.41 475.78 L 185.16 506.25" stroke="black" fill="transparent"/>
</svg>