<?xml version="1.0" encoding="UTF-8" standalone="no"?>
<!--Created with ndjsontosvg (https:https://github.com/thompson318/ndjsontosvg) 
	from the simplified Google quickdraw data set. key_id = 6473836864208896-->
<svg width="600" height="600"
	xmlns="http://www.w3.org/2000/svg">
	xmlns:ndjsontosvg="https://github.com/thompson318/ndjsontosvg"
	xmlns:quickdraw="https://quickdraw.withgoogle.com/data"
	xmlns:scikit-surgery="https://doi.org/10.1007/s11548-020-02180-5">

	<rect width="100%" height="100%" fill="white" />
	<path d = "M 84.38 597.66 L 77.34 585.94 L 75.00 414.84 L 98.44 274.22 L 119.53 210.94 L 142.97 164.06" stroke="black" fill="transparent"/>
	<path d = "M 65.62 461.72 L 42.19 435.94 L 0.00 321.09 L 11.72 321.09 L 32.81 337.50 L 32.81 328.12 L 9.38 185.16 L 21.09 187.50 L 42.19 208.59 L 70.31 82.03 L 82.03 131.25 L 96.09 124.22 L 152.34 0.00 L 154.69 58.59 L 182.81 30.47 L 145.31 119.53 L 159.38 138.28" stroke="black" fill="transparent"/>
	<path d = "M 147.66 154.69 L 227.34 30.47 L 239.06 23.44 L 248.44 23.44 L 239.06 67.97 L 203.91 140.62 L 248.44 124.22 L 257.81 126.56 L 253.12 150.00 L 185.16 250.78 L 194.53 250.78" stroke="black" fill="transparent"/>
</svg>