<?xml version="1.0" encoding="UTF-8" standalone="no"?>
<!--Created with ndjsontosvg (https:https://github.com/thompson318/ndjsontosvg) 
	from the simplified Google quickdraw data set. key_id = 4779105314668544-->
<svg width="600" height="600"
	xmlns="http://www.w3.org/2000/svg">
	xmlns:ndjsontosvg="https://github.com/thompson318/ndjsontosvg"
	xmlns:quickdraw="https://quickdraw.withgoogle.com/data"
	xmlns:scikit-surgery="https://doi.org/10.1007/s11548-020-02180-5">

	<rect width="100%" height="100%" fill="white" />
	<path d = "M 302.34 597.66 L 295.31 450.00 L 264.84 267.19 L 171.09 18.75 L 53.91 46.88 L 0.00 77.34 L 147.66 77.34 L 166.41 70.31 L 124.22 112.50 L 58.59 157.03 L 46.88 182.81 L 147.66 173.44 L 196.88 159.38 L 105.47 225.00 L 98.44 236.72 L 229.69 236.72 L 208.59 260.16 L 70.31 339.84 L 138.28 330.47 L 283.59 328.12 L 419.53 253.12 L 325.78 250.78 L 330.47 225.00 L 365.62 164.06 L 363.28 135.94 L 241.41 140.62 L 250.78 121.88 L 323.44 84.38 L 246.09 79.69 L 246.09 75.00 L 295.31 30.47 L 300.00 14.06 L 283.59 4.69 L 173.44 4.69 L 180.47 0.00" stroke="black" fill="transparent"/>
</svg>