<?xml version="1.0" encoding="UTF-8" standalone="no"?>
<!--Created with ndjsontosvg (https:https://github.com/thompson318/ndjsontosvg) 
	from the simplified Google quickdraw data set. key_id = 5695651750871040-->
<svg width="600" height="600"
	xmlns="http://www.w3.org/2000/svg">
	xmlns:ndjsontosvg="https://github.com/thompson318/ndjsontosvg"
	xmlns:quickdraw="https://quickdraw.withgoogle.com/data"
	xmlns:scikit-surgery="https://doi.org/10.1007/s11548-020-02180-5">

	<rect width="100%" height="100%" fill="white" />
	<path d = "M 18.75 499.22 L 2.34 382.03 L 0.00 135.94 L 7.03 58.59 L 21.09 37.50 L 42.19 60.94 L 72.66 159.38 L 91.41 196.88 L 100.78 189.84 L 131.25 84.38 L 147.66 58.59 L 159.38 51.56 L 171.09 70.31 L 185.16 166.41 L 194.53 199.22 L 217.97 82.03 L 232.03 56.25 L 248.44 44.53 L 269.53 75.00 L 302.34 208.59 L 311.72 114.84 L 337.50 56.25 L 349.22 58.59 L 358.59 72.66 L 391.41 203.91 L 414.84 75.00 L 428.91 39.84 L 440.62 28.12 L 452.34 30.47 L 461.72 46.88 L 485.16 164.06 L 496.88 178.12 L 510.94 159.38 L 564.84 7.03 L 569.53 0.00 L 578.91 4.69 L 585.94 53.91 L 597.66 344.53 L 581.25 403.12 L 555.47 438.28 L 503.91 454.69 L 417.19 471.09 L 159.38 494.53 L 77.34 487.50 L 56.25 471.09" stroke="black" fill="transparent"/>
	<path d = "M 100.78 196.88 L 100.78 459.38" stroke="black" fill="transparent"/>
	<path d = "M 194.53 196.88 L 206.25 243.75 L 203.91 442.97 L 208.59 482.81" stroke="black" fill="transparent"/>
	<path d = "M 290.62 215.62 L 292.97 419.53 L 300.00 466.41" stroke="black" fill="transparent"/>
	<path d = "M 382.03 208.59 L 386.72 400.78 L 393.75 440.62" stroke="black" fill="transparent"/>
	<path d = "M 475.78 168.75 L 492.19 215.62 L 503.91 414.84 L 520.31 464.06" stroke="black" fill="transparent"/>
</svg>