<?xml version="1.0" encoding="UTF-8" standalone="no"?>
<!--Created with ndjsontosvg (https:https://github.com/thompson318/ndjsontosvg) 
	from the simplified Google quickdraw data set. key_id = 5601990912507904-->
<svg width="600" height="600"
	xmlns="http://www.w3.org/2000/svg">
	xmlns:ndjsontosvg="https://github.com/thompson318/ndjsontosvg"
	xmlns:quickdraw="https://quickdraw.withgoogle.com/data"
	xmlns:scikit-surgery="https://doi.org/10.1007/s11548-020-02180-5">

	<rect width="100%" height="100%" fill="white" />
	<path d = "M 4.69 180.47 L 2.34 257.81 L 18.75 363.28 L 79.69 595.31" stroke="black" fill="transparent"/>
	<path d = "M 14.06 192.19 L 16.41 147.66 L 25.78 100.78 L 77.34 112.50 L 96.09 246.09 L 133.59 389.06 L 161.72 546.09 L 157.03 569.53 L 110.16 597.66" stroke="black" fill="transparent"/>
	<path d = "M 112.50 147.66 L 147.66 349.22 L 201.56 553.12" stroke="black" fill="transparent"/>
	<path d = "M 119.53 138.28 L 150.00 46.88 L 210.94 93.75" stroke="black" fill="transparent"/>
	<path d = "M 194.53 77.34 L 260.16 358.59 L 309.38 494.53 L 307.03 503.91 L 248.44 529.69" stroke="black" fill="transparent"/>
	<path d = "M 248.44 56.25 L 309.38 414.84 L 353.91 555.47" stroke="black" fill="transparent"/>
	<path d = "M 253.12 67.97 L 253.12 49.22 L 276.56 0.00 L 339.84 37.50" stroke="black" fill="transparent"/>
	<path d = "M 332.81 23.44 L 346.88 100.78 L 391.41 248.44 L 410.16 346.88 L 445.31 473.44 L 445.31 487.50 L 433.59 496.88 L 365.62 539.06" stroke="black" fill="transparent"/>
	<path d = "M 21.09 234.38 L 150.00 220.31 L 424.22 173.44" stroke="black" fill="transparent"/>
</svg>