<?xml version="1.0" encoding="UTF-8" standalone="no"?>
<!--Created with ndjsontosvg (https:https://github.com/thompson318/ndjsontosvg) 
	from the simplified Google quickdraw data set. key_id = 6471078400491520-->
<svg width="600" height="600"
	xmlns="http://www.w3.org/2000/svg">
	xmlns:ndjsontosvg="https://github.com/thompson318/ndjsontosvg"
	xmlns:quickdraw="https://quickdraw.withgoogle.com/data"
	xmlns:scikit-surgery="https://doi.org/10.1007/s11548-020-02180-5">

	<rect width="100%" height="100%" fill="white" />
	<path d = "M 4.69 49.22 L 77.34 0.00 L 86.72 63.28 L 91.41 67.97 L 253.12 67.97 L 292.97 16.41 L 309.38 70.31 L 321.09 79.69 L 440.62 84.38 L 471.09 65.62 L 494.53 35.16 L 527.34 91.41 L 597.66 93.75" stroke="black" fill="transparent"/>
	<path d = "M 243.75 63.28 L 253.12 194.53 L 260.16 227.34 L 262.50 227.34" stroke="black" fill="transparent"/>
	<path d = "M 321.09 77.34 L 316.41 257.81" stroke="black" fill="transparent"/>
	<path d = "M 82.03 56.25 L 89.06 84.38 L 86.72 229.69" stroke="black" fill="transparent"/>
	<path d = "M 0.00 46.88 L 4.69 250.78" stroke="black" fill="transparent"/>
	<path d = "M 527.34 103.12 L 527.34 281.25" stroke="black" fill="transparent"/>
	<path d = "M 438.28 103.12 L 426.56 358.59" stroke="black" fill="transparent"/>
</svg>