<?xml version="1.0" encoding="UTF-8" standalone="no"?>
<!--Created with ndjsontosvg (https:https://github.com/thompson318/ndjsontosvg) 
	from the simplified Google quickdraw data set. key_id = 6578894649950208-->
<svg width="600" height="600"
	xmlns="http://www.w3.org/2000/svg">
	xmlns:ndjsontosvg="https://github.com/thompson318/ndjsontosvg"
	xmlns:quickdraw="https://quickdraw.withgoogle.com/data"
	xmlns:scikit-surgery="https://doi.org/10.1007/s11548-020-02180-5">

	<rect width="100%" height="100%" fill="white" />
	<path d = "M 9.38 84.38 L 2.34 91.41 L 227.34 93.75 L 377.34 112.50 L 597.66 126.56" stroke="black" fill="transparent"/>
	<path d = "M 16.41 86.72 L 70.31 32.81 L 93.75 103.12 L 119.53 46.88 L 140.62 30.47 L 173.44 103.12 L 192.19 46.88 L 213.28 21.09 L 248.44 96.09 L 269.53 42.19 L 297.66 0.00 L 304.69 9.38 L 328.12 110.16 L 382.03 28.12 L 414.84 112.50 L 447.66 53.91 L 475.78 39.84 L 485.16 96.09 L 499.22 126.56 L 539.06 23.44 L 539.06 46.88 L 564.84 117.19 L 564.84 131.25 L 560.16 126.56" stroke="black" fill="transparent"/>
	<path d = "M 496.88 128.91 L 494.53 206.25" stroke="black" fill="transparent"/>
	<path d = "M 412.50 105.47 L 405.47 206.25" stroke="black" fill="transparent"/>
	<path d = "M 321.09 110.16 L 318.75 196.88" stroke="black" fill="transparent"/>
	<path d = "M 241.41 98.44 L 241.41 199.22" stroke="black" fill="transparent"/>
	<path d = "M 178.12 96.09 L 175.78 210.94" stroke="black" fill="transparent"/>
	<path d = "M 98.44 114.84 L 93.75 112.50" stroke="black" fill="transparent"/>
	<path d = "M 597.66 63.28 L 595.31 72.66 L 555.47 96.09 L 492.19 105.47" stroke="black" fill="transparent"/>
	<path d = "M 482.81 103.12 L 342.19 58.59" stroke="black" fill="transparent"/>
</svg>