<?xml version="1.0" encoding="UTF-8" standalone="no"?>
<!--Created with ndjsontosvg (https:https://github.com/thompson318/ndjsontosvg) 
	from the simplified Google quickdraw data set. key_id = 5863731793756160-->
<svg width="600" height="600"
	xmlns="http://www.w3.org/2000/svg">
	xmlns:ndjsontosvg="https://github.com/thompson318/ndjsontosvg"
	xmlns:quickdraw="https://quickdraw.withgoogle.com/data"
	xmlns:scikit-surgery="https://doi.org/10.1007/s11548-020-02180-5">

	<rect width="100%" height="100%" fill="white" />
	<path d = "M 2.34 597.66 L 0.00 208.59 L 7.03 117.19 L 65.62 37.50 L 86.72 18.75 L 121.88 4.69 L 199.22 0.00 L 267.19 0.00 L 300.00 9.38 L 358.59 49.22 L 391.41 112.50 L 407.81 196.88 L 400.78 337.50 L 405.47 595.31" stroke="black" fill="transparent"/>
	<path d = "M 140.62 227.34 L 328.12 192.19 L 447.66 187.50 L 421.88 199.22 L 375.00 201.56 L 353.91 72.66 L 311.72 51.56 L 236.72 49.22 L 187.50 70.31 L 164.06 117.19 L 140.62 255.47" stroke="black" fill="transparent"/>
	<path d = "M 107.81 414.84 L 182.81 379.69 L 227.34 375.00 L 264.84 382.03 L 304.69 405.47" stroke="black" fill="transparent"/>
	<path d = "M 98.44 447.66 L 126.56 440.62 L 166.41 417.19 L 215.62 405.47 L 267.19 403.12 L 328.12 421.88" stroke="black" fill="transparent"/>
</svg>