<?xml version="1.0" encoding="UTF-8" standalone="no"?>
<!--Created with ndjsontosvg (https:https://github.com/thompson318/ndjsontosvg) 
	from the simplified Google quickdraw data set. key_id = 5890331243446272-->
<svg width="600" height="600"
	xmlns="http://www.w3.org/2000/svg">
	xmlns:ndjsontosvg="https://github.com/thompson318/ndjsontosvg"
	xmlns:quickdraw="https://quickdraw.withgoogle.com/data"
	xmlns:scikit-surgery="https://doi.org/10.1007/s11548-020-02180-5">

	<rect width="100%" height="100%" fill="white" />
	<path d = "M 49.22 597.66 L 28.12 553.12 L 0.00 375.00 L 4.69 234.38 L 23.44 126.56 L 39.84 84.38 L 67.97 37.50 L 117.19 2.34 L 138.28 4.69 L 166.41 28.12 L 189.84 70.31 L 208.59 135.94 L 253.12 433.59 L 257.81 548.44" stroke="black" fill="transparent"/>
	<path d = "M 0.00 189.84 L 77.34 203.91 L 199.22 187.50" stroke="black" fill="transparent"/>
	<path d = "M 11.72 168.75 L 79.69 37.50 L 63.28 135.94 L 77.34 126.56 L 135.94 21.09 L 82.03 147.66 L 65.62 208.59 L 75.00 208.59 L 86.72 194.53 L 131.25 100.78 L 135.94 157.03 L 150.00 196.88" stroke="black" fill="transparent"/>
</svg>