<?xml version="1.0" encoding="UTF-8" standalone="no"?>
<!--Created with ndjsontosvg (https:https://github.com/thompson318/ndjsontosvg) 
	from the simplified Google quickdraw data set. key_id = 5362135964057600-->
<svg width="600" height="600"
	xmlns="http://www.w3.org/2000/svg">
	xmlns:ndjsontosvg="https://github.com/thompson318/ndjsontosvg"
	xmlns:quickdraw="https://quickdraw.withgoogle.com/data"
	xmlns:scikit-surgery="https://doi.org/10.1007/s11548-020-02180-5">

	<rect width="100%" height="100%" fill="white" />
	<path d = "M 597.66 0.00 L 562.50 185.16 L 553.12 344.53" stroke="black" fill="transparent"/>
	<path d = "M 0.00 21.09 L 7.03 375.00" stroke="black" fill="transparent"/>
	<path d = "M 135.94 367.97 L 124.22 311.72 L 124.22 232.03 L 145.31 142.97 L 159.38 110.16 L 182.81 98.44 L 203.91 93.75 L 419.53 93.75 L 459.38 128.91 L 473.44 157.03 L 501.56 300.00 L 494.53 335.16 L 468.75 360.94 L 292.97 405.47" stroke="black" fill="transparent"/>
	<path d = "M 189.84 344.53 L 187.50 302.34 L 199.22 250.78 L 213.28 271.88 L 220.31 269.53 L 253.12 208.59 L 288.28 241.41 L 323.44 180.47 L 332.81 189.84 L 342.19 234.38 L 356.25 225.00 L 417.19 131.25" stroke="black" fill="transparent"/>
	<path d = "M 150.00 330.47 L 161.72 288.28 L 199.22 227.34 L 215.62 225.00 L 222.66 304.69 L 234.38 325.78 L 337.50 227.34 L 382.03 196.88 L 400.78 189.84" stroke="black" fill="transparent"/>
	<path d = "M 157.03 328.12 L 150.00 318.75 L 150.00 283.59 L 185.16 215.62 L 213.28 180.47 L 276.56 140.62 L 330.47 93.75 L 325.78 128.91 L 290.62 210.94 L 248.44 288.28 L 206.25 339.84" stroke="black" fill="transparent"/>
	<path d = "M 304.69 332.81 L 304.69 295.31 L 337.50 225.00 L 353.91 168.75 L 363.28 166.41 L 389.06 201.56 L 393.75 239.06 L 346.88 339.84" stroke="black" fill="transparent"/>
</svg>