<?xml version="1.0" encoding="UTF-8" standalone="no"?>
<!--Created with ndjsontosvg (https:https://github.com/thompson318/ndjsontosvg) 
	from the simplified Google quickdraw data set. key_id = 4566842423115776-->
<svg width="600" height="600"
	xmlns="http://www.w3.org/2000/svg">
	xmlns:ndjsontosvg="https://github.com/thompson318/ndjsontosvg"
	xmlns:quickdraw="https://quickdraw.withgoogle.com/data"
	xmlns:scikit-surgery="https://doi.org/10.1007/s11548-020-02180-5">

	<rect width="100%" height="100%" fill="white" />
	<path d = "M 2.34 112.50 L 11.72 473.44 L 14.06 513.28 L 28.12 543.75 L 302.34 548.44 L 588.28 581.25 L 597.66 576.56 L 569.53 307.03 L 569.53 46.88 L 564.84 2.34 L 428.91 44.53 L 0.00 103.12 L 2.34 98.44" stroke="black" fill="transparent"/>
	<path d = "M 150.00 539.06 L 133.59 515.62 L 126.56 457.03 L 126.56 342.19 L 138.28 285.94 L 164.06 234.38 L 206.25 187.50 L 257.81 164.06 L 311.72 157.03 L 377.34 175.78 L 417.19 210.94 L 435.94 241.41 L 461.72 367.97 L 461.72 541.41" stroke="black" fill="transparent"/>
	<path d = "M 208.59 494.53 L 199.22 492.19 L 196.88 485.16 L 213.28 375.00 L 185.16 271.88" stroke="black" fill="transparent"/>
	<path d = "M 222.66 550.78 L 248.44 485.16 L 257.81 396.09 L 253.12 330.47 L 227.34 307.03 L 222.66 295.31 L 229.69 271.88 L 260.16 232.03" stroke="black" fill="transparent"/>
	<path d = "M 267.19 564.84 L 307.03 520.31 L 335.16 447.66 L 332.81 398.44 L 316.41 365.62 L 264.84 335.16 L 255.47 311.72 L 262.50 274.22 L 290.62 241.41 L 316.41 229.69" stroke="black" fill="transparent"/>
	<path d = "M 379.69 529.69 L 377.34 487.50 L 365.62 461.72 L 283.59 360.94 L 283.59 335.16 L 295.31 307.03 L 323.44 269.53 L 346.88 260.16" stroke="black" fill="transparent"/>
	<path d = "M 384.38 510.94 L 349.22 382.03 L 346.88 335.16 L 356.25 290.62 L 382.03 248.44 L 403.12 232.03" stroke="black" fill="transparent"/>
	<path d = "M 292.97 501.56 L 283.59 459.38 L 260.16 421.88 L 255.47 375.00 L 262.50 318.75 L 274.22 300.00 L 290.62 292.97" stroke="black" fill="transparent"/>
	<path d = "M 213.28 520.31 L 213.28 520.31" stroke="black" fill="transparent"/>
</svg>