<?xml version="1.0" encoding="UTF-8" standalone="no"?>
<!--Created with ndjsontosvg (https:https://github.com/thompson318/ndjsontosvg) 
	from the simplified Google quickdraw data set. key_id = 6469516005474304-->
<svg width="600" height="600"
	xmlns="http://www.w3.org/2000/svg">
	xmlns:ndjsontosvg="https://github.com/thompson318/ndjsontosvg"
	xmlns:quickdraw="https://quickdraw.withgoogle.com/data"
	xmlns:scikit-surgery="https://doi.org/10.1007/s11548-020-02180-5">

	<rect width="100%" height="100%" fill="white" />
	<path d = "M 37.50 63.28 L 60.94 377.34 L 77.34 508.59 L 93.75 529.69 L 138.28 539.06 L 407.81 536.72 L 590.62 520.31 L 597.66 494.53 L 532.03 370.31 L 520.31 316.41 L 513.28 21.09 L 501.56 4.69 L 466.41 0.00 L 349.22 28.12 L 150.00 46.88 L 0.00 51.56" stroke="black" fill="transparent"/>
	<path d = "M 246.09 285.94 L 271.88 281.25" stroke="black" fill="transparent"/>
	<path d = "M 199.22 510.94 L 217.97 461.72 L 215.62 396.09 L 243.75 342.19 L 243.75 295.31 L 260.16 290.62" stroke="black" fill="transparent"/>
	<path d = "M 288.28 281.25 L 290.62 297.66 L 337.50 339.84 L 339.84 377.34 L 330.47 405.47 L 365.62 403.12 L 382.03 471.09 L 403.12 482.81" stroke="black" fill="transparent"/>
	<path d = "M 288.28 276.56 L 248.44 365.62 L 321.09 396.09 L 321.09 417.19 L 281.25 478.12 L 307.03 482.81 L 321.09 494.53 L 325.78 541.41" stroke="black" fill="transparent"/>
	<path d = "M 372.66 302.34 L 365.62 330.47 L 375.00 342.19 L 410.16 353.91 L 424.22 367.97 L 389.06 428.91 L 391.41 440.62 L 435.94 466.41 L 442.97 487.50 L 438.28 536.72" stroke="black" fill="transparent"/>
	<path d = "M 253.12 295.31 L 208.59 365.62 L 199.22 398.44 L 250.78 421.88 L 253.12 454.69 L 222.66 527.34 L 257.81 562.50 L 260.16 581.25" stroke="black" fill="transparent"/>
	<path d = "M 199.22 358.59 L 154.69 442.97 L 161.72 459.38 L 206.25 466.41 L 225.00 482.81 L 222.66 527.34 L 189.84 581.25" stroke="black" fill="transparent"/>
	<path d = "M 119.53 44.53 L 164.06 37.50 L 161.72 131.25 L 152.34 145.31 L 135.94 150.00 L 112.50 147.66 L 105.47 135.94" stroke="black" fill="transparent"/>
</svg>