<?xml version="1.0" encoding="UTF-8" standalone="no"?>
<!--Created with ndjsontosvg (https:https://github.com/thompson318/ndjsontosvg) 
	from the simplified Google quickdraw data set. key_id = 5634739048284160-->
<svg width="600" height="600"
	xmlns="http://www.w3.org/2000/svg">
	xmlns:ndjsontosvg="https://github.com/thompson318/ndjsontosvg"
	xmlns:quickdraw="https://quickdraw.withgoogle.com/data"
	xmlns:scikit-surgery="https://doi.org/10.1007/s11548-020-02180-5">

	<rect width="100%" height="100%" fill="white" />
	<path d = "M 21.09 18.75 L 9.38 105.47 L 0.00 567.19" stroke="black" fill="transparent"/>
	<path d = "M 39.84 0.00 L 103.12 7.03 L 461.72 11.72 L 595.31 23.44 L 592.97 548.44" stroke="black" fill="transparent"/>
	<path d = "M 82.03 564.84 L 96.09 386.72 L 98.44 133.59 L 344.53 124.22 L 468.75 112.50 L 485.16 112.50 L 492.19 150.00 L 501.56 363.28 L 525.00 529.69 L 522.66 550.78" stroke="black" fill="transparent"/>
	<path d = "M 199.22 534.38 L 199.22 464.06 L 159.38 367.97 L 161.72 292.97 L 168.75 292.97 L 175.78 321.09 L 206.25 356.25 L 194.53 267.19 L 194.53 229.69 L 201.56 222.66 L 229.69 264.84 L 243.75 314.06 L 257.81 325.78 L 260.16 255.47 L 295.31 189.84 L 307.03 229.69 L 292.97 304.69 L 307.03 314.06 L 330.47 314.06 L 344.53 300.00 L 377.34 227.34 L 396.09 220.31 L 398.44 227.34 L 377.34 288.28 L 370.31 337.50 L 379.69 344.53 L 398.44 332.81 L 391.41 398.44 L 400.78 431.25 L 454.69 431.25 L 457.03 438.28 L 445.31 471.09 L 386.72 543.75" stroke="black" fill="transparent"/>
</svg>