<?xml version="1.0" encoding="UTF-8" standalone="no"?>
<!--Created with ndjsontosvg (https:https://github.com/thompson318/ndjsontosvg) 
	from the simplified Google quickdraw data set. key_id = 5540089897680896-->
<svg width="600" height="600"
	xmlns="http://www.w3.org/2000/svg">
	xmlns:ndjsontosvg="https://github.com/thompson318/ndjsontosvg"
	xmlns:quickdraw="https://quickdraw.withgoogle.com/data"
	xmlns:scikit-surgery="https://doi.org/10.1007/s11548-020-02180-5">

	<rect width="100%" height="100%" fill="white" />
	<path d = "M 260.16 515.62 L 360.94 522.66 L 379.69 564.84 L 382.03 597.66 L 314.06 585.94 L 173.44 583.59 L 124.22 569.53 L 25.78 560.16 L 14.06 541.41 L 0.00 478.12 L 30.47 464.06 L 121.88 464.06 L 140.62 471.09 L 140.62 262.50 L 124.22 234.38 L 107.81 232.03 L 58.59 194.53 L 46.88 166.41 L 42.19 135.94 L 72.66 119.53 L 89.06 89.06 L 89.06 53.91 L 103.12 25.78 L 147.66 4.69 L 194.53 0.00 L 234.38 65.62 L 274.22 103.12 L 290.62 147.66 L 309.38 164.06 L 311.72 178.12 L 360.94 217.97 L 412.50 239.06 L 445.31 243.75 L 457.03 267.19 L 435.94 360.94 L 410.16 367.97 L 398.44 382.03 L 281.25 419.53 L 274.22 452.34 L 283.59 513.28 L 276.56 522.66" stroke="black" fill="transparent"/>
	<path d = "M 159.38 321.09 L 166.41 360.94 L 199.22 454.69 L 220.31 550.78 L 210.94 543.75" stroke="black" fill="transparent"/>
	<path d = "M 189.84 276.56 L 243.75 363.28" stroke="black" fill="transparent"/>
</svg>