<?xml version="1.0" encoding="UTF-8" standalone="no"?>
<!--Created with ndjsontosvg (https:https://github.com/thompson318/ndjsontosvg) 
	from the simplified Google quickdraw data set. key_id = 6482918501253120-->
<svg width="600" height="600"
	xmlns="http://www.w3.org/2000/svg">
	xmlns:ndjsontosvg="https://github.com/thompson318/ndjsontosvg"
	xmlns:quickdraw="https://quickdraw.withgoogle.com/data"
	xmlns:scikit-surgery="https://doi.org/10.1007/s11548-020-02180-5">

	<rect width="100%" height="100%" fill="white" />
	<path d = "M 82.03 285.94 L 75.00 161.72 L 84.38 133.59 L 100.78 107.81 L 128.91 91.41 L 213.28 84.38 L 269.53 103.12 L 295.31 119.53 L 321.09 152.34 L 353.91 297.66" stroke="black" fill="transparent"/>
	<path d = "M 145.31 79.69 L 138.28 4.69 L 220.31 2.34 L 246.09 11.72 L 246.09 79.69 L 250.78 98.44" stroke="black" fill="transparent"/>
	<path d = "M 138.28 25.78 L 89.06 32.81 L 72.66 44.53 L 82.03 49.22" stroke="black" fill="transparent"/>
	<path d = "M 246.09 58.59 L 271.88 49.22 L 346.88 49.22" stroke="black" fill="transparent"/>
	<path d = "M 72.66 285.94 L 379.69 283.59" stroke="black" fill="transparent"/>
	<path d = "M 79.69 278.91 L 0.00 281.25 L 9.38 295.31 L 16.41 330.47 L 23.44 597.66 L 58.59 578.91 L 114.84 564.84 L 175.78 555.47 L 372.66 548.44 L 457.03 520.31 L 454.69 466.41 L 412.50 370.31 L 363.28 302.34 L 302.34 267.19" stroke="black" fill="transparent"/>
</svg>