<?xml version="1.0" encoding="UTF-8" standalone="no"?>
<!--Created with ndjsontosvg (https:https://github.com/thompson318/ndjsontosvg) 
	from the simplified Google quickdraw data set. key_id = 5459205546835968-->
<svg width="600" height="600"
	xmlns="http://www.w3.org/2000/svg">
	xmlns:ndjsontosvg="https://github.com/thompson318/ndjsontosvg"
	xmlns:quickdraw="https://quickdraw.withgoogle.com/data"
	xmlns:scikit-surgery="https://doi.org/10.1007/s11548-020-02180-5">

	<rect width="100%" height="100%" fill="white" />
	<path d = "M 0.00 546.09 L 77.34 485.16 L 220.31 398.44 L 344.53 292.97 L 421.88 260.16 L 464.06 257.81 L 466.41 267.19 L 442.97 321.09 L 417.19 356.25 L 372.66 393.75 L 283.59 445.31 L 201.56 529.69 L 42.19 597.66 L 25.78 588.28 L 2.34 557.81 L 9.38 548.44" stroke="black" fill="transparent"/>
	<path d = "M 468.75 496.88 L 419.53 466.41 L 309.38 377.34 L 152.34 283.59 L 18.75 232.03 L 2.34 241.41 L 14.06 281.25 L 79.69 358.59 L 220.31 475.78 L 264.84 503.91 L 372.66 543.75 L 450.00 560.16 L 466.41 529.69 L 464.06 485.16" stroke="black" fill="transparent"/>
	<path d = "M 185.16 452.34 L 150.00 421.88 L 103.12 346.88 L 91.41 292.97 L 114.84 227.34 L 154.69 182.81 L 208.59 157.03 L 241.41 154.69 L 276.56 166.41 L 290.62 173.44 L 292.97 187.50 L 323.44 131.25 L 353.91 93.75 L 379.69 79.69 L 426.56 79.69 L 450.00 86.72 L 421.88 121.88 L 367.97 131.25 L 250.78 107.81 L 2.34 77.34 L 23.44 79.69 L 56.25 67.97 L 150.00 18.75 L 217.97 0.00 L 234.38 4.69 L 250.78 72.66 L 260.16 203.91 L 285.94 142.97 L 257.81 281.25 L 227.34 389.06 L 292.97 185.16 L 255.47 225.00 L 161.72 344.53 L 159.38 328.12 L 187.50 243.75 L 227.34 67.97 L 182.81 318.75 L 217.97 264.84 L 314.06 42.19 L 220.31 342.19 L 220.31 396.09 L 264.84 337.50 L 342.19 180.47 L 382.03 63.28 L 386.72 28.12 L 288.28 307.03 L 318.75 192.19 L 323.44 98.44 L 318.75 89.06 L 307.03 107.81 L 285.94 168.75 L 246.09 302.34 L 253.12 295.31 L 276.56 222.66" stroke="black" fill="transparent"/>
</svg>