<?xml version="1.0" encoding="UTF-8" standalone="no"?>
<!--Created with ndjsontosvg (https:https://github.com/thompson318/ndjsontosvg) 
	from the simplified Google quickdraw data set. key_id = 6069386366418944-->
<svg width="600" height="600"
	xmlns="http://www.w3.org/2000/svg">
	xmlns:ndjsontosvg="https://github.com/thompson318/ndjsontosvg"
	xmlns:quickdraw="https://quickdraw.withgoogle.com/data"
	xmlns:scikit-surgery="https://doi.org/10.1007/s11548-020-02180-5">

	<rect width="100%" height="100%" fill="white" />
	<path d = "M 0.00 236.72 L 46.88 133.59 L 131.25 91.41 L 215.62 75.00 L 267.19 75.00 L 597.66 133.59 L 597.66 161.72 L 581.25 220.31 L 541.41 278.91 L 464.06 276.56 L 304.69 253.12 L 239.06 250.78 L 25.78 220.31" stroke="black" fill="transparent"/>
	<path d = "M 86.72 215.62 L 18.75 269.53 L 79.69 217.97 L 126.56 210.94 L 145.31 229.69 L 152.34 250.78 L 150.00 269.53 L 133.59 295.31 L 72.66 295.31 L 39.84 288.28 L 21.09 274.22 L 18.75 250.78" stroke="black" fill="transparent"/>
	<path d = "M 450.00 241.41 L 391.41 241.41 L 353.91 288.28 L 349.22 311.72 L 412.50 356.25 L 494.53 356.25 L 515.62 344.53 L 520.31 307.03 L 482.81 222.66 L 466.41 213.28 L 428.91 208.59 L 400.78 229.69 L 377.34 262.50" stroke="black" fill="transparent"/>
	<path d = "M 210.94 84.38 L 227.34 70.31 L 421.88 9.38 L 307.03 35.16 L 175.78 49.22 L 166.41 60.94 L 178.12 79.69 L 196.88 96.09 L 203.91 82.03" stroke="black" fill="transparent"/>
	<path d = "M 222.66 0.00 L 225.00 35.16 L 239.06 86.72" stroke="black" fill="transparent"/>
</svg>