<?xml version="1.0" encoding="UTF-8" standalone="no"?>
<!--Created with ndjsontosvg (https:https://github.com/thompson318/ndjsontosvg) 
	from the simplified Google quickdraw data set. key_id = 6165931761860608-->
<svg width="600" height="600"
	xmlns="http://www.w3.org/2000/svg">
	xmlns:ndjsontosvg="https://github.com/thompson318/ndjsontosvg"
	xmlns:quickdraw="https://quickdraw.withgoogle.com/data"
	xmlns:scikit-surgery="https://doi.org/10.1007/s11548-020-02180-5">

	<rect width="100%" height="100%" fill="white" />
	<path d = "M 11.72 4.69 L 135.94 35.16 L 304.69 58.59 L 592.97 65.62 L 597.66 133.59 L 583.59 236.72 L 550.78 330.47 L 527.34 351.56 L 485.16 351.56 L 330.47 311.72 L 255.47 302.34 L 173.44 276.56 L 4.69 276.56 L 0.00 264.84 L 0.00 159.38 L 16.41 53.91 L 35.16 0.00" stroke="black" fill="transparent"/>
	<path d = "M 124.22 267.19 L 112.50 274.22 L 96.09 325.78 L 103.12 351.56 L 114.84 365.62 L 128.91 365.62 L 138.28 351.56 L 140.62 271.88 L 103.12 255.47" stroke="black" fill="transparent"/>
	<path d = "M 417.19 325.78 L 398.44 367.97 L 400.78 400.78 L 431.25 431.25 L 452.34 426.56 L 457.03 405.47 L 450.00 353.91 L 417.19 325.78" stroke="black" fill="transparent"/>
</svg>