<?xml version="1.0" encoding="UTF-8" standalone="no"?>
<!--Created with ndjsontosvg (https:https://github.com/thompson318/ndjsontosvg) 
	from the simplified Google quickdraw data set. key_id = 4817476833509376-->
<svg width="600" height="600"
	xmlns="http://www.w3.org/2000/svg">
	xmlns:ndjsontosvg="https://github.com/thompson318/ndjsontosvg"
	xmlns:quickdraw="https://quickdraw.withgoogle.com/data"
	xmlns:scikit-surgery="https://doi.org/10.1007/s11548-020-02180-5">

	<rect width="100%" height="100%" fill="white" />
	<path d = "M 114.84 220.31 L 107.81 480.47 L 89.06 590.62 L 154.69 595.31 L 255.47 585.94 L 260.16 576.56 L 269.53 478.12 L 267.19 307.03 L 281.25 210.94 L 267.19 199.22 L 98.44 185.16 L 82.03 152.34 L 84.38 128.91 L 131.25 117.19 L 210.94 131.25 L 262.50 131.25 L 300.00 203.91" stroke="black" fill="transparent"/>
	<path d = "M 192.19 60.94 L 192.19 60.94" stroke="black" fill="transparent"/>
	<path d = "M 140.62 91.41 L 180.47 7.03 L 194.53 0.00 L 227.34 25.78 L 255.47 63.28" stroke="black" fill="transparent"/>
	<path d = "M 236.72 37.50 L 253.12 187.50" stroke="black" fill="transparent"/>
	<path d = "M 114.84 285.94 L 77.34 281.25 L 25.78 300.00 L 11.72 311.72 L 0.00 337.50 L 4.69 351.56 L 37.50 367.97 L 86.72 375.00 L 128.91 363.28 L 150.00 342.19" stroke="black" fill="transparent"/>
</svg>