<?xml version="1.0" encoding="UTF-8" standalone="no"?>
<!--Created with ndjsontosvg (https:https://github.com/thompson318/ndjsontosvg) 
	from the simplified Google quickdraw data set. key_id = 5816122798505984-->
<svg width="600" height="600"
	xmlns="http://www.w3.org/2000/svg">
	xmlns:ndjsontosvg="https://github.com/thompson318/ndjsontosvg"
	xmlns:quickdraw="https://quickdraw.withgoogle.com/data"
	xmlns:scikit-surgery="https://doi.org/10.1007/s11548-020-02180-5">

	<rect width="100%" height="100%" fill="white" />
	<path d = "M 4.69 257.81 L 14.06 424.22 L 39.84 588.28 L 56.25 597.66 L 89.06 597.66 L 180.47 574.22 L 189.84 220.31 L 178.12 210.94 L 166.41 208.59 L 72.66 213.28 L 30.47 225.00 L 11.72 241.41 L 18.75 246.09" stroke="black" fill="transparent"/>
	<path d = "M 103.12 199.22 L 96.09 173.44 L 117.19 131.25 L 142.97 107.81 L 189.84 91.41 L 264.84 126.56 L 290.62 126.56 L 351.56 107.81 L 360.94 119.53 L 365.62 159.38 L 353.91 168.75 L 300.00 171.09 L 178.12 154.69 L 154.69 168.75 L 154.69 201.56" stroke="black" fill="transparent"/>
	<path d = "M 82.03 201.56 L 75.00 152.34 L 49.22 152.34 L 28.12 161.72 L 4.69 187.50 L 2.34 215.62 L 30.47 220.31 L 93.75 194.53" stroke="black" fill="transparent"/>
	<path d = "M 356.25 89.06 L 363.28 37.50 L 384.38 7.03 L 396.09 0.00 L 440.62 25.78 L 466.41 70.31 L 492.19 91.41 L 494.53 267.19 L 457.03 330.47 L 438.28 346.88 L 412.50 290.62 L 400.78 189.84 L 375.00 126.56" stroke="black" fill="transparent"/>
	<path d = "M 454.69 562.50 L 424.22 583.59 L 386.72 592.97 L 337.50 581.25 L 325.78 569.53 L 290.62 475.78 L 323.44 417.19 L 332.81 328.12 L 363.28 428.91 L 382.03 454.69 L 400.78 339.84 L 410.16 321.09 L 421.88 318.75 L 428.91 351.56 L 424.22 466.41 L 464.06 337.50 L 478.12 321.09 L 487.50 356.25 L 480.47 473.44 L 487.50 499.22 L 452.34 564.84" stroke="black" fill="transparent"/>
</svg>