<?xml version="1.0" encoding="UTF-8" standalone="no"?>
<!--Created with ndjsontosvg (https:https://github.com/thompson318/ndjsontosvg) 
	from the simplified Google quickdraw data set. key_id = 5161439843057664-->
<svg width="600" height="600"
	xmlns="http://www.w3.org/2000/svg">
	xmlns:ndjsontosvg="https://github.com/thompson318/ndjsontosvg"
	xmlns:quickdraw="https://quickdraw.withgoogle.com/data"
	xmlns:scikit-surgery="https://doi.org/10.1007/s11548-020-02180-5">

	<rect width="100%" height="100%" fill="white" />
	<path d = "M 25.78 16.41 L 28.12 194.53 L 14.06 501.56 L 28.12 520.31 L 77.34 541.41 L 206.25 562.50 L 569.53 564.84 L 583.59 471.09 L 583.59 351.56 L 564.84 199.22 L 536.72 100.78 L 510.94 65.62 L 447.66 7.03 L 178.12 0.00 L 0.00 7.03" stroke="black" fill="transparent"/>
	<path d = "M 428.91 2.34 L 597.66 32.81" stroke="black" fill="transparent"/>
	<path d = "M 164.06 529.69 L 168.75 454.69 L 222.66 304.69 L 262.50 255.47 L 283.59 248.44 L 330.47 248.44 L 377.34 271.88 L 419.53 321.09 L 510.94 513.28 L 527.34 562.50 L 517.97 564.84" stroke="black" fill="transparent"/>
	<path d = "M 419.53 527.34 L 419.53 478.12 L 384.38 452.34 L 365.62 450.00 L 379.69 489.84 L 360.94 532.03 L 300.00 532.03 L 292.97 520.31 L 300.00 499.22 L 356.25 445.31 L 358.59 426.56 L 332.81 410.16 L 274.22 398.44 L 161.72 407.81 L 213.28 445.31 L 217.97 459.38 L 210.94 494.53 L 227.34 492.19 L 281.25 440.62 L 234.38 499.22 L 234.38 513.28 L 330.47 489.84 L 358.59 428.91 L 358.59 419.53 L 300.00 442.97 L 257.81 473.44 L 304.69 450.00 L 342.19 421.88 L 372.66 375.00 L 379.69 339.84 L 360.94 433.59 L 370.31 475.78 L 382.03 489.84 L 396.09 492.19 L 417.19 414.84 L 396.09 426.56 L 386.72 452.34 L 386.72 501.56 L 393.75 510.94 L 407.81 492.19 L 414.84 461.72 L 412.50 433.59 L 398.44 403.12 L 372.66 398.44 L 337.50 417.19 L 262.50 482.81 L 257.81 496.88 L 285.94 499.22 L 318.75 466.41 L 318.75 457.03 L 292.97 459.38 L 274.22 480.47 L 285.94 464.06 L 290.62 440.62" stroke="black" fill="transparent"/>
</svg>