<?xml version="1.0" encoding="UTF-8" standalone="no"?>
<!--Created with ndjsontosvg (https:https://github.com/thompson318/ndjsontosvg) 
	from the simplified Google quickdraw data set. key_id = 5996382840160256-->
<svg width="600" height="600"
	xmlns="http://www.w3.org/2000/svg">
	xmlns:ndjsontosvg="https://github.com/thompson318/ndjsontosvg"
	xmlns:quickdraw="https://quickdraw.withgoogle.com/data"
	xmlns:scikit-surgery="https://doi.org/10.1007/s11548-020-02180-5">

	<rect width="100%" height="100%" fill="white" />
	<path d = "M 0.00 44.53 L 0.00 117.19 L 9.38 157.03" stroke="black" fill="transparent"/>
	<path d = "M 14.06 161.72 L 93.75 161.72" stroke="black" fill="transparent"/>
	<path d = "M 138.28 157.03 L 112.50 154.69 L 100.78 168.75 L 100.78 192.19 L 117.19 232.03 L 150.00 234.38 L 168.75 225.00 L 182.81 206.25 L 187.50 185.16 L 187.50 164.06 L 171.09 154.69 L 119.53 150.00" stroke="black" fill="transparent"/>
	<path d = "M 187.50 168.75 L 398.44 154.69" stroke="black" fill="transparent"/>
	<path d = "M 438.28 145.31 L 412.50 152.34 L 391.41 185.16 L 400.78 217.97 L 426.56 234.38 L 466.41 232.03 L 480.47 201.56 L 480.47 175.78 L 464.06 157.03 L 410.16 138.28" stroke="black" fill="transparent"/>
	<path d = "M 473.44 171.09 L 539.06 161.72 L 576.56 147.66" stroke="black" fill="transparent"/>
	<path d = "M 2.34 32.81 L 35.16 0.00 L 262.50 21.09 L 349.22 21.09 L 461.72 2.34 L 557.81 0.00 L 592.97 100.78 L 597.66 147.66" stroke="black" fill="transparent"/>
</svg>