<?xml version="1.0" encoding="UTF-8" standalone="no"?>
<!--Created with ndjsontosvg (https:https://github.com/thompson318/ndjsontosvg) 
	from the simplified Google quickdraw data set. key_id = 4908998660718592-->
<svg width="600" height="600"
	xmlns="http://www.w3.org/2000/svg">
	xmlns:ndjsontosvg="https://github.com/thompson318/ndjsontosvg"
	xmlns:quickdraw="https://quickdraw.withgoogle.com/data"
	xmlns:scikit-surgery="https://doi.org/10.1007/s11548-020-02180-5">

	<rect width="100%" height="100%" fill="white" />
	<path d = "M 100.78 203.91 L 187.50 175.78 L 353.91 166.41 L 360.94 154.69 L 360.94 91.41 L 339.84 44.53 L 297.66 11.72 L 239.06 0.00 L 93.75 67.97 L 86.72 114.84 L 128.91 150.00 L 147.66 157.03 L 154.69 168.75 L 117.19 187.50 L 110.16 208.59 L 138.28 309.38 L 142.97 344.53 L 135.94 360.94 L 147.66 386.72 L 168.75 592.97 L 173.44 597.66 L 365.62 595.31 L 393.75 583.59 L 393.75 576.56 L 360.94 459.38 L 353.91 405.47 L 360.94 281.25 L 386.72 140.62 L 379.69 145.31" stroke="black" fill="transparent"/>
	<path d = "M 234.38 199.22 L 241.41 260.16 L 239.06 398.44" stroke="black" fill="transparent"/>
	<path d = "M 262.50 140.62 L 264.84 400.78" stroke="black" fill="transparent"/>
	<path d = "M 110.16 124.22 L 107.81 150.00 L 159.38 255.47 L 178.12 335.16 L 189.84 353.91" stroke="black" fill="transparent"/>
	<path d = "M 110.16 246.09 L 21.09 267.19 L 0.00 276.56" stroke="black" fill="transparent"/>
</svg>