<?xml version="1.0" encoding="UTF-8" standalone="no"?>
<!--Created with ndjsontosvg (https:https://github.com/thompson318/ndjsontosvg) 
	from the simplified Google quickdraw data set. key_id = 5827078073090048-->
<svg width="600" height="600"
	xmlns="http://www.w3.org/2000/svg">
	xmlns:ndjsontosvg="https://github.com/thompson318/ndjsontosvg"
	xmlns:quickdraw="https://quickdraw.withgoogle.com/data"
	xmlns:scikit-surgery="https://doi.org/10.1007/s11548-020-02180-5">

	<rect width="100%" height="100%" fill="white" />
	<path d = "M 4.69 564.84 L 2.34 309.38 L 208.59 302.34 L 262.50 285.94 L 337.50 285.94 L 356.25 302.34 L 335.16 419.53 L 330.47 597.66 L 243.75 550.78 L 117.19 560.16 L 0.00 548.44" stroke="black" fill="transparent"/>
	<path d = "M 51.56 300.00 L 60.94 180.47 L 53.91 0.00 L 145.31 18.75 L 269.53 25.78 L 260.16 269.53" stroke="black" fill="transparent"/>
	<path d = "M 98.44 541.41 L 84.38 421.88" stroke="black" fill="transparent"/>
	<path d = "M 138.28 534.38 L 135.94 431.25" stroke="black" fill="transparent"/>
	<path d = "M 173.44 515.62 L 185.16 480.47 L 187.50 431.25 L 182.81 454.69 L 192.19 464.06 L 206.25 445.31 L 194.53 461.72 L 203.91 457.03 L 210.94 431.25 L 208.59 440.62 L 220.31 447.66 L 243.75 440.62 L 229.69 459.38 L 206.25 478.12 L 210.94 468.75 L 199.22 473.44 L 175.78 499.22 L 178.12 508.59 L 217.97 515.62 L 196.88 529.69 L 220.31 482.81 L 217.97 473.44 L 208.59 468.75 L 192.19 487.50 L 189.84 496.88 L 201.56 489.84 L 229.69 459.38" stroke="black" fill="transparent"/>
</svg>