<?xml version="1.0" encoding="UTF-8" standalone="no"?>
<!--Created with ndjsontosvg (https:https://github.com/thompson318/ndjsontosvg) 
	from the simplified Google quickdraw data set. key_id = 5605344090783744-->
<svg width="600" height="600"
	xmlns="http://www.w3.org/2000/svg">
	xmlns:ndjsontosvg="https://github.com/thompson318/ndjsontosvg"
	xmlns:quickdraw="https://quickdraw.withgoogle.com/data"
	xmlns:scikit-surgery="https://doi.org/10.1007/s11548-020-02180-5">

	<rect width="100%" height="100%" fill="white" />
	<path d = "M 173.44 597.66 L 152.34 452.34 L 152.34 307.03 L 159.38 255.47 L 196.88 164.06 L 215.62 133.59 L 243.75 107.81 L 283.59 86.72 L 400.78 84.38 L 426.56 187.50 L 438.28 290.62 L 440.62 459.38 L 403.12 548.44 L 398.44 539.06" stroke="black" fill="transparent"/>
	<path d = "M 307.03 79.69 L 292.97 14.06 L 344.53 2.34 L 358.59 58.59" stroke="black" fill="transparent"/>
	<path d = "M 421.88 185.16 L 445.31 178.12 L 515.62 182.81 L 567.19 175.78 L 574.22 187.50 L 574.22 243.75 L 447.66 267.19" stroke="black" fill="transparent"/>
	<path d = "M 147.66 257.81 L 72.66 283.59 L 7.03 290.62 L 0.00 314.06 L 0.00 330.47 L 11.72 344.53 L 35.16 349.22 L 145.31 335.16" stroke="black" fill="transparent"/>
</svg>