<?xml version="1.0" encoding="UTF-8" standalone="no"?>
<!--Created with ndjsontosvg (https:https://github.com/thompson318/ndjsontosvg) 
	from the simplified Google quickdraw data set. key_id = 5818574352416768-->
<svg width="600" height="600"
	xmlns="http://www.w3.org/2000/svg">
	xmlns:ndjsontosvg="https://github.com/thompson318/ndjsontosvg"
	xmlns:quickdraw="https://quickdraw.withgoogle.com/data"
	xmlns:scikit-surgery="https://doi.org/10.1007/s11548-020-02180-5">

	<rect width="100%" height="100%" fill="white" />
	<path d = "M 28.12 194.53 L 23.44 232.03 L 46.88 379.69 L 46.88 424.22 L 58.59 428.91 L 147.66 412.50 L 217.97 417.19 L 215.62 257.81 L 206.25 208.59 L 194.53 194.53 L 79.69 217.97 L 23.44 220.31 L 7.03 199.22 L 0.00 168.75 L 82.03 131.25 L 201.56 121.88 L 217.97 124.22 L 225.00 135.94 L 210.94 178.12 L 189.84 192.19 L 152.34 189.84" stroke="black" fill="transparent"/>
	<path d = "M 32.81 150.00 L 28.12 119.53 L 32.81 91.41 L 58.59 58.59 L 89.06 39.84 L 105.47 42.19 L 121.88 58.59 L 131.25 121.88" stroke="black" fill="transparent"/>
	<path d = "M 70.31 28.12 L 60.94 9.38 L 65.62 2.34 L 79.69 4.69 L 89.06 23.44" stroke="black" fill="transparent"/>
	<path d = "M 142.97 239.06 L 208.59 199.22 L 250.78 182.81 L 344.53 164.06 L 447.66 152.34 L 576.56 117.19" stroke="black" fill="transparent"/>
	<path d = "M 175.78 269.53 L 206.25 248.44 L 262.50 232.03 L 450.00 210.94 L 597.66 178.12" stroke="black" fill="transparent"/>
	<path d = "M 560.16 131.25 L 562.50 114.84 L 581.25 93.75" stroke="black" fill="transparent"/>
</svg>