<?xml version="1.0" encoding="UTF-8" standalone="no"?>
<!--Created with ndjsontosvg (https:https://github.com/thompson318/ndjsontosvg) 
	from the simplified Google quickdraw data set. key_id = 6048193332641792-->
<svg width="600" height="600"
	xmlns="http://www.w3.org/2000/svg">
	xmlns:ndjsontosvg="https://github.com/thompson318/ndjsontosvg"
	xmlns:quickdraw="https://quickdraw.withgoogle.com/data"
	xmlns:scikit-surgery="https://doi.org/10.1007/s11548-020-02180-5">

	<rect width="100%" height="100%" fill="white" />
	<path d = "M 72.66 241.41 L 72.66 145.31 L 82.03 131.25 L 168.75 121.88 L 353.91 121.88 L 360.94 248.44 L 410.16 260.16 L 433.59 274.22 L 452.34 311.72 L 452.34 370.31 L 433.59 426.56 L 421.88 440.62 L 393.75 452.34 L 260.16 466.41 L 65.62 466.41 L 35.16 459.38 L 9.38 435.94 L 0.00 391.41 L 0.00 304.69 L 7.03 274.22 L 44.53 257.81 L 124.22 257.81" stroke="black" fill="transparent"/>
	<path d = "M 131.25 527.34 L 114.84 510.94 L 98.44 464.06 L 96.09 428.91 L 107.81 414.84 L 157.03 417.19 L 182.81 440.62 L 187.50 478.12 L 182.81 503.91 L 145.31 536.72 L 103.12 543.75 L 98.44 527.34" stroke="black" fill="transparent"/>
	<path d = "M 332.81 515.62 L 311.72 503.91 L 302.34 487.50 L 290.62 450.00 L 292.97 419.53 L 328.12 405.47 L 367.97 412.50 L 384.38 433.59 L 389.06 473.44 L 384.38 499.22 L 365.62 515.62 L 323.44 525.00 L 283.59 517.97 L 271.88 489.84 L 271.88 471.09" stroke="black" fill="transparent"/>
	<path d = "M 147.66 168.75 L 32.81 344.53" stroke="black" fill="transparent"/>
	<path d = "M 276.56 161.72 L 96.09 407.81" stroke="black" fill="transparent"/>
	<path d = "M 114.84 241.41 L 225.00 229.69" stroke="black" fill="transparent"/>
	<path d = "M 72.66 318.75 L 189.84 318.75" stroke="black" fill="transparent"/>
	<path d = "M 58.59 377.34 L 133.59 372.66" stroke="black" fill="transparent"/>
	<path d = "M 126.56 110.16 L 126.56 67.97 L 135.94 25.78 L 157.03 7.03 L 220.31 0.00 L 290.62 0.00 L 323.44 21.09 L 339.84 46.88 L 339.84 107.81" stroke="black" fill="transparent"/>
	<path d = "M 489.84 503.91 L 440.62 485.16 L 431.25 468.75 L 492.19 367.97 L 499.22 292.97 L 473.44 243.75 L 489.84 260.16 L 506.25 344.53 L 546.09 346.88 L 564.84 424.22 L 564.84 435.94 L 506.25 520.31" stroke="black" fill="transparent"/>
	<path d = "M 489.84 478.12 L 473.44 454.69 L 473.44 442.97 L 482.81 435.94 L 499.22 435.94 L 506.25 454.69 L 506.25 473.44" stroke="black" fill="transparent"/>
	<path d = "M 318.75 241.41 L 473.44 187.50 L 506.25 182.81" stroke="black" fill="transparent"/>
	<path d = "M 307.03 356.25 L 353.91 302.34 L 541.41 175.78" stroke="black" fill="transparent"/>
	<path d = "M 459.38 154.69 L 466.41 135.94 L 515.62 91.41 L 583.59 53.91" stroke="black" fill="transparent"/>
	<path d = "M 457.03 142.97 L 487.50 114.84 L 569.53 70.31" stroke="black" fill="transparent"/>
	<path d = "M 520.31 192.19 L 529.69 173.44 L 583.59 140.62" stroke="black" fill="transparent"/>
	<path d = "M 510.94 229.69 L 508.59 213.28 L 597.66 140.62" stroke="black" fill="transparent"/>
	<path d = "M 475.78 250.78 L 588.28 182.81" stroke="black" fill="transparent"/>
	<path d = "M 494.53 236.72 L 583.59 173.44" stroke="black" fill="transparent"/>
	<path d = "M 494.53 164.06 L 496.88 150.00 L 588.28 84.38" stroke="black" fill="transparent"/>
</svg>