<?xml version="1.0" encoding="UTF-8" standalone="no"?>
<!--Created with ndjsontosvg (https:https://github.com/thompson318/ndjsontosvg) 
	from the simplified Google quickdraw data set. key_id = 5306980698685440-->
<svg width="600" height="600"
	xmlns="http://www.w3.org/2000/svg">
	xmlns:ndjsontosvg="https://github.com/thompson318/ndjsontosvg"
	xmlns:quickdraw="https://quickdraw.withgoogle.com/data"
	xmlns:scikit-surgery="https://doi.org/10.1007/s11548-020-02180-5">

	<rect width="100%" height="100%" fill="white" />
	<path d = "M 588.28 28.12 L 555.47 103.12 L 520.31 159.38 L 435.94 262.50 L 328.12 344.53 L 241.41 386.72 L 178.12 400.78 L 124.22 400.78 L 100.78 391.41 L 53.91 337.50 L 16.41 257.81 L 2.34 196.88 L 0.00 140.62 L 14.06 100.78 L 49.22 44.53 L 77.34 23.44 L 121.88 9.38 L 267.19 0.00 L 304.69 21.09 L 358.59 72.66 L 400.78 121.88 L 501.56 274.22 L 536.72 307.03 L 560.16 316.41 L 571.88 297.66 L 585.94 234.38 L 597.66 49.22" stroke="black" fill="transparent"/>
	<path d = "M 150.00 138.28 L 159.38 145.31 L 161.72 135.94 L 157.03 133.59" stroke="black" fill="transparent"/>
</svg>