<?xml version="1.0" encoding="UTF-8" standalone="no"?>
<!--Created with ndjsontosvg (https:https://github.com/thompson318/ndjsontosvg) 
	from the simplified Google quickdraw data set. key_id = 5017920105086976-->
<svg width="600" height="600"
	xmlns="http://www.w3.org/2000/svg">
	xmlns:ndjsontosvg="https://github.com/thompson318/ndjsontosvg"
	xmlns:quickdraw="https://quickdraw.withgoogle.com/data"
	xmlns:scikit-surgery="https://doi.org/10.1007/s11548-020-02180-5">

	<rect width="100%" height="100%" fill="white" />
	<path d = "M 203.91 215.62 L 206.25 180.47 L 239.06 110.16 L 264.84 67.97 L 297.66 35.16 L 328.12 16.41 L 389.06 0.00 L 464.06 2.34 L 525.00 56.25 L 550.78 86.72 L 581.25 142.97 L 597.66 229.69 L 597.66 342.19 L 583.59 391.41 L 560.16 421.88 L 478.12 475.78 L 410.16 496.88 L 328.12 489.84 L 243.75 454.69 L 210.94 414.84 L 185.16 342.19 L 185.16 264.84 L 201.56 248.44 L 206.25 220.31 L 199.22 229.69" stroke="black" fill="transparent"/>
	<path d = "M 199.22 229.69 L 196.88 213.28 L 86.72 84.38 L 44.53 56.25 L 28.12 70.31 L 4.69 234.38 L 0.00 391.41 L 44.53 367.97 L 208.59 358.59" stroke="black" fill="transparent"/>
	<path d = "M 37.50 206.25 L 154.69 206.25" stroke="black" fill="transparent"/>
	<path d = "M 11.72 255.47 L 89.06 255.47" stroke="black" fill="transparent"/>
</svg>