<?xml version="1.0" encoding="UTF-8" standalone="no"?>
<!--Created with ndjsontosvg (https:https://github.com/thompson318/ndjsontosvg) 
	from the simplified Google quickdraw data set. key_id = 6209039648161792-->
<svg width="600" height="600"
	xmlns="http://www.w3.org/2000/svg">
	xmlns:ndjsontosvg="https://github.com/thompson318/ndjsontosvg"
	xmlns:quickdraw="https://quickdraw.withgoogle.com/data"
	xmlns:scikit-surgery="https://doi.org/10.1007/s11548-020-02180-5">

	<rect width="100%" height="100%" fill="white" />
	<path d = "M 0.00 182.81 L 7.03 150.00 L 28.12 110.16 L 79.69 49.22 L 145.31 9.38 L 199.22 0.00 L 236.72 2.34 L 283.59 32.81 L 421.88 166.41 L 578.91 349.22" stroke="black" fill="transparent"/>
	<path d = "M 4.69 168.75 L 46.88 246.09 L 114.84 321.09 L 168.75 349.22 L 269.53 349.22 L 346.88 318.75 L 384.38 295.31 L 421.88 264.84 L 487.50 194.53 L 539.06 110.16 L 571.88 28.12 L 576.56 2.34 L 588.28 72.66 L 597.66 276.56 L 588.28 330.47 L 564.84 332.81" stroke="black" fill="transparent"/>
	<path d = "M 79.69 124.22 L 128.91 84.38" stroke="black" fill="transparent"/>
	<path d = "M 35.16 171.09 L 58.59 185.16 L 114.84 189.84" stroke="black" fill="transparent"/>
</svg>