<?xml version="1.0" encoding="UTF-8" standalone="no"?>
<!--Created with ndjsontosvg (https:https://github.com/thompson318/ndjsontosvg) 
	from the simplified Google quickdraw data set. key_id = 6684186222002176-->
<svg width="600" height="600"
	xmlns="http://www.w3.org/2000/svg">
	xmlns:ndjsontosvg="https://github.com/thompson318/ndjsontosvg"
	xmlns:quickdraw="https://quickdraw.withgoogle.com/data"
	xmlns:scikit-surgery="https://doi.org/10.1007/s11548-020-02180-5">

	<rect width="100%" height="100%" fill="white" />
	<path d = "M 157.03 180.47 L 128.91 180.47 L 110.16 166.41 L 103.12 133.59 L 110.16 35.16 L 93.75 16.41 L 65.62 2.34 L 39.84 4.69 L 7.03 35.16 L 2.34 84.38 L 25.78 112.50 L 14.06 79.69 L 23.44 46.88 L 37.50 37.50 L 77.34 35.16 L 93.75 67.97 L 93.75 105.47 L 82.03 145.31 L 89.06 182.81 L 154.69 229.69 L 215.62 248.44 L 297.66 253.12 L 358.59 220.31 L 389.06 157.03 L 349.22 189.84 L 250.78 203.91 L 199.22 199.22 L 140.62 173.44" stroke="black" fill="transparent"/>
	<path d = "M 281.25 243.75 L 292.97 325.78 L 302.34 525.00 L 264.84 555.47 L 246.09 595.31 L 241.41 595.31 L 246.09 583.59" stroke="black" fill="transparent"/>
	<path d = "M 304.69 515.62 L 281.25 585.94 L 292.97 569.53" stroke="black" fill="transparent"/>
</svg>