<?xml version="1.0" encoding="UTF-8" standalone="no"?>
<!--Created with ndjsontosvg (https:https://github.com/thompson318/ndjsontosvg) 
	from the simplified Google quickdraw data set. key_id = 5698077115547648-->
<svg width="600" height="600"
	xmlns="http://www.w3.org/2000/svg">
	xmlns:ndjsontosvg="https://github.com/thompson318/ndjsontosvg"
	xmlns:quickdraw="https://quickdraw.withgoogle.com/data"
	xmlns:scikit-surgery="https://doi.org/10.1007/s11548-020-02180-5">

	<rect width="100%" height="100%" fill="white" />
	<path d = "M 161.72 360.94 L 166.41 396.09 L 161.72 597.66" stroke="black" fill="transparent"/>
	<path d = "M 171.09 351.56 L 187.50 482.81 L 182.81 508.59 L 262.50 520.31" stroke="black" fill="transparent"/>
	<path d = "M 72.66 260.16 L 84.38 278.91 L 150.00 330.47 L 185.16 370.31 L 199.22 370.31 L 278.91 335.16 L 360.94 253.12 L 407.81 187.50 L 426.56 135.94 L 435.94 39.84" stroke="black" fill="transparent"/>
	<path d = "M 403.12 0.00 L 363.28 135.94 L 337.50 192.19 L 311.72 213.28 L 260.16 236.72 L 229.69 241.41 L 187.50 232.03 L 133.59 203.91 L 89.06 201.56 L 49.22 187.50 L 23.44 187.50 L 0.00 213.28 L 23.44 234.38 L 37.50 239.06 L 91.41 234.38 L 138.28 255.47" stroke="black" fill="transparent"/>
</svg>