<?xml version="1.0" encoding="UTF-8" standalone="no"?>
<!--Created with ndjsontosvg (https:https://github.com/thompson318/ndjsontosvg) 
	from the simplified Google quickdraw data set. key_id = 5284391238500352-->
<svg width="600" height="600"
	xmlns="http://www.w3.org/2000/svg">
	xmlns:ndjsontosvg="https://github.com/thompson318/ndjsontosvg"
	xmlns:quickdraw="https://quickdraw.withgoogle.com/data"
	xmlns:scikit-surgery="https://doi.org/10.1007/s11548-020-02180-5">

	<rect width="100%" height="100%" fill="white" />
	<path d = "M 86.72 281.25 L 72.66 379.69 L 75.00 442.97 L 171.09 494.53" stroke="black" fill="transparent"/>
	<path d = "M 84.38 447.66 L 82.03 475.78 L 91.41 541.41" stroke="black" fill="transparent"/>
	<path d = "M 89.06 424.22 L 166.41 421.88 L 222.66 431.25" stroke="black" fill="transparent"/>
	<path d = "M 0.00 225.00 L 35.16 229.69 L 154.69 318.75 L 192.19 325.78 L 297.66 304.69 L 353.91 276.56 L 398.44 243.75 L 403.12 210.94 L 370.31 201.56 L 145.31 220.31 L 103.12 213.28 L 65.62 217.97" stroke="black" fill="transparent"/>
	<path d = "M 311.72 189.84 L 292.97 98.44 L 295.31 35.16 L 414.84 21.09 L 506.25 0.00 L 571.88 32.81 L 597.66 37.50 L 527.34 39.84 L 360.94 75.00 L 351.56 96.09 L 370.31 150.00 L 365.62 187.50" stroke="black" fill="transparent"/>
</svg>