<?xml version="1.0" encoding="UTF-8" standalone="no"?>
<!--Created with ndjsontosvg (https:https://github.com/thompson318/ndjsontosvg) 
	from the simplified Google quickdraw data set. key_id = 6011375757295616-->
<svg width="600" height="600"
	xmlns="http://www.w3.org/2000/svg">
	xmlns:ndjsontosvg="https://github.com/thompson318/ndjsontosvg"
	xmlns:quickdraw="https://quickdraw.withgoogle.com/data"
	xmlns:scikit-surgery="https://doi.org/10.1007/s11548-020-02180-5">

	<rect width="100%" height="100%" fill="white" />
	<path d = "M 49.22 67.97 L 32.81 70.31 L 9.38 96.09 L 0.00 166.41 L 4.69 173.44 L 35.16 135.94 L 82.03 100.78 L 135.94 84.38 L 135.94 128.91 L 114.84 220.31 L 114.84 248.44 L 124.22 276.56 L 140.62 297.66 L 196.88 332.81 L 241.41 344.53 L 300.00 342.19 L 337.50 321.09 L 353.91 278.91 L 358.59 222.66 L 339.84 173.44 L 304.69 133.59 L 264.84 56.25 L 236.72 25.78 L 173.44 0.00 L 142.97 0.00 L 91.41 25.78 L 42.19 70.31 L 35.16 86.72" stroke="black" fill="transparent"/>
	<path d = "M 159.38 35.16 L 157.03 42.19 L 164.06 42.19 L 164.06 35.16 L 152.34 42.19" stroke="black" fill="transparent"/>
	<path d = "M 232.03 342.19 L 206.25 588.28" stroke="black" fill="transparent"/>
	<path d = "M 274.22 358.59 L 274.22 597.66" stroke="black" fill="transparent"/>
</svg>