<?xml version="1.0" encoding="UTF-8" standalone="no"?>
<!--Created with ndjsontosvg (https:https://github.com/thompson318/ndjsontosvg) 
	from the simplified Google quickdraw data set. key_id = 5504094825349120-->
<svg width="600" height="600"
	xmlns="http://www.w3.org/2000/svg">
	xmlns:ndjsontosvg="https://github.com/thompson318/ndjsontosvg"
	xmlns:quickdraw="https://quickdraw.withgoogle.com/data"
	xmlns:scikit-surgery="https://doi.org/10.1007/s11548-020-02180-5">

	<rect width="100%" height="100%" fill="white" />
	<path d = "M 281.25 152.34 L 281.25 93.75 L 264.84 72.66 L 250.78 63.28 L 171.09 42.19 L 164.06 58.59 L 147.66 290.62 L 152.34 311.72 L 246.09 314.06 L 276.56 292.97 L 290.62 260.16 L 297.66 199.22 L 295.31 159.38 L 283.59 128.91" stroke="black" fill="transparent"/>
	<path d = "M 290.62 98.44 L 520.31 98.44 L 546.09 105.47 L 569.53 124.22 L 595.31 168.75 L 597.66 199.22 L 588.28 220.31 L 543.75 250.78 L 494.53 269.53 L 426.56 276.56 L 370.31 262.50 L 325.78 239.06" stroke="black" fill="transparent"/>
	<path d = "M 117.19 35.16 L 63.28 0.00" stroke="black" fill="transparent"/>
	<path d = "M 72.66 128.91 L 25.78 124.22" stroke="black" fill="transparent"/>
	<path d = "M 42.19 232.03 L 0.00 234.38" stroke="black" fill="transparent"/>
	<path d = "M 67.97 356.25 L 11.72 377.34" stroke="black" fill="transparent"/>
	<path d = "M 159.38 84.38 L 135.94 100.78 L 124.22 138.28 L 128.91 213.28 L 147.66 234.38" stroke="black" fill="transparent"/>
</svg>