<?xml version="1.0" encoding="UTF-8" standalone="no"?>
<!--Created with ndjsontosvg (https:https://github.com/thompson318/ndjsontosvg) 
	from the simplified Google quickdraw data set. key_id = 5993470017667072-->
<svg width="600" height="600"
	xmlns="http://www.w3.org/2000/svg">
	xmlns:ndjsontosvg="https://github.com/thompson318/ndjsontosvg"
	xmlns:quickdraw="https://quickdraw.withgoogle.com/data"
	xmlns:scikit-surgery="https://doi.org/10.1007/s11548-020-02180-5">

	<rect width="100%" height="100%" fill="white" />
	<path d = "M 23.44 260.16 L 175.78 255.47 L 297.66 166.41 L 328.12 164.06 L 344.53 208.59 L 344.53 346.88 L 342.19 363.28 L 325.78 377.34 L 295.31 398.44 L 278.91 400.78 L 234.38 400.78 L 147.66 377.34 L 11.72 377.34 L 2.34 363.28 L 0.00 316.41 L 18.75 283.59" stroke="black" fill="transparent"/>
	<path d = "M 344.53 161.72 L 311.72 194.53 L 292.97 229.69 L 288.28 304.69 L 304.69 358.59 L 321.09 375.00 L 349.22 379.69" stroke="black" fill="transparent"/>
	<path d = "M 133.59 250.78 L 114.84 257.81 L 105.47 269.53 L 107.81 283.59 L 121.88 290.62 L 147.66 283.59" stroke="black" fill="transparent"/>
	<path d = "M 400.78 133.59 L 499.22 63.28 L 578.91 28.12 L 597.66 0.00" stroke="black" fill="transparent"/>
	<path d = "M 365.62 398.44 L 548.44 482.81 L 588.28 513.28" stroke="black" fill="transparent"/>
	<path d = "M 393.75 292.97 L 478.12 292.97 L 588.28 316.41" stroke="black" fill="transparent"/>
	<path d = "M 419.53 182.81 L 520.31 159.38 L 574.22 140.62 L 597.66 124.22" stroke="black" fill="transparent"/>
</svg>