<?xml version="1.0" encoding="UTF-8" standalone="no"?>
<!--Created with ndjsontosvg (https:https://github.com/thompson318/ndjsontosvg) 
	from the simplified Google quickdraw data set. key_id = 6467358438719488-->
<svg width="600" height="600"
	xmlns="http://www.w3.org/2000/svg">
	xmlns:ndjsontosvg="https://github.com/thompson318/ndjsontosvg"
	xmlns:quickdraw="https://quickdraw.withgoogle.com/data"
	xmlns:scikit-surgery="https://doi.org/10.1007/s11548-020-02180-5">

	<rect width="100%" height="100%" fill="white" />
	<path d = "M 0.00 332.81 L 131.25 215.62 L 229.69 138.28 L 241.41 138.28 L 309.38 201.56 L 314.06 213.28 L 77.34 471.09 L 60.94 468.75 L 28.12 433.59 L 0.00 367.97" stroke="black" fill="transparent"/>
	<path d = "M 243.75 140.62 L 210.94 93.75 L 208.59 77.34 L 217.97 72.66 L 260.16 86.72 L 314.06 131.25 L 363.28 189.84 L 365.62 201.56 L 349.22 210.94 L 321.09 210.94 L 307.03 208.59 L 292.97 192.19" stroke="black" fill="transparent"/>
	<path d = "M 309.38 89.06 L 339.84 44.53 L 386.72 0.00" stroke="black" fill="transparent"/>
	<path d = "M 379.69 100.78 L 438.28 60.94 L 536.72 25.78" stroke="black" fill="transparent"/>
	<path d = "M 417.19 157.03 L 557.81 142.97" stroke="black" fill="transparent"/>
	<path d = "M 450.00 227.34 L 597.66 241.41" stroke="black" fill="transparent"/>
	<path d = "M 264.84 63.28 L 274.22 9.38" stroke="black" fill="transparent"/>
</svg>