<?xml version="1.0" encoding="UTF-8" standalone="no"?>
<!--Created with ndjsontosvg (https:https://github.com/thompson318/ndjsontosvg) 
	from the simplified Google quickdraw data set. key_id = 6405592459509760-->
<svg width="600" height="600"
	xmlns="http://www.w3.org/2000/svg">
	xmlns:ndjsontosvg="https://github.com/thompson318/ndjsontosvg"
	xmlns:quickdraw="https://quickdraw.withgoogle.com/data"
	xmlns:scikit-surgery="https://doi.org/10.1007/s11548-020-02180-5">

	<rect width="100%" height="100%" fill="white" />
	<path d = "M 292.97 105.47 L 285.94 117.19 L 288.28 152.34 L 309.38 175.78 L 337.50 175.78 L 344.53 164.06 L 353.91 117.19 L 349.22 93.75 L 335.16 79.69 L 309.38 77.34 L 283.59 100.78" stroke="black" fill="transparent"/>
	<path d = "M 335.16 67.97 L 367.97 82.03 L 398.44 110.16" stroke="black" fill="transparent"/>
	<path d = "M 339.84 194.53 L 396.09 157.03 L 571.88 157.03 L 597.66 91.41 L 508.59 105.47 L 421.88 107.81 L 410.16 114.84" stroke="black" fill="transparent"/>
	<path d = "M 459.38 112.50 L 457.03 93.75 L 464.06 89.06 L 473.44 110.16" stroke="black" fill="transparent"/>
	<path d = "M 274.22 178.12 L 227.34 182.81 L 199.22 194.53 L 63.28 283.59" stroke="black" fill="transparent"/>
	<path d = "M 189.84 145.31 L 105.47 142.97 L 46.88 154.69" stroke="black" fill="transparent"/>
	<path d = "M 166.41 65.62 L 70.31 44.53 L 37.50 30.47 L 0.00 0.00" stroke="black" fill="transparent"/>
	<path d = "M 337.50 121.88 L 323.44 114.84 L 316.41 124.22 L 344.53 126.56" stroke="black" fill="transparent"/>
</svg>