<?xml version="1.0" encoding="UTF-8" standalone="no"?>
<!--Created with ndjsontosvg (https:https://github.com/thompson318/ndjsontosvg) 
	from the simplified Google quickdraw data set. key_id = 6392059810283520-->
<svg width="600" height="600"
	xmlns="http://www.w3.org/2000/svg">
	xmlns:ndjsontosvg="https://github.com/thompson318/ndjsontosvg"
	xmlns:quickdraw="https://quickdraw.withgoogle.com/data"
	xmlns:scikit-surgery="https://doi.org/10.1007/s11548-020-02180-5">

	<rect width="100%" height="100%" fill="white" />
	<path d = "M 119.53 11.72 L 150.00 58.59 L 161.72 93.75 L 159.38 138.28 L 142.97 185.16" stroke="black" fill="transparent"/>
	<path d = "M 119.53 4.69 L 206.25 4.69 L 220.31 11.72 L 236.72 28.12 L 253.12 105.47 L 255.47 192.19 L 248.44 239.06 L 213.28 246.09 L 159.38 239.06" stroke="black" fill="transparent"/>
	<path d = "M 262.50 86.72 L 288.28 79.69 L 466.41 93.75 L 578.91 91.41 L 597.66 93.75 L 595.31 110.16 L 571.88 208.59 L 520.31 196.88 L 435.94 201.56 L 248.44 182.81" stroke="black" fill="transparent"/>
	<path d = "M 70.31 60.94 L 18.75 32.81" stroke="black" fill="transparent"/>
	<path d = "M 51.56 86.72 L 7.03 96.09" stroke="black" fill="transparent"/>
	<path d = "M 30.47 140.62 L 7.03 157.03" stroke="black" fill="transparent"/>
	<path d = "M 18.75 215.62 L 0.00 236.72" stroke="black" fill="transparent"/>
	<path d = "M 110.16 18.75 L 96.09 166.41 L 135.94 241.41" stroke="black" fill="transparent"/>
	<path d = "M 150.00 166.41 L 135.94 229.69" stroke="black" fill="transparent"/>
	<path d = "M 431.25 138.28 L 466.41 173.44" stroke="black" fill="transparent"/>
</svg>