<?xml version="1.0" encoding="UTF-8" standalone="no"?>
<!--Created with ndjsontosvg (https:https://github.com/thompson318/ndjsontosvg) 
	from the simplified Google quickdraw data set. key_id = 5342530713419776-->
<svg width="600" height="600"
	xmlns="http://www.w3.org/2000/svg">
	xmlns:ndjsontosvg="https://github.com/thompson318/ndjsontosvg"
	xmlns:quickdraw="https://quickdraw.withgoogle.com/data"
	xmlns:scikit-surgery="https://doi.org/10.1007/s11548-020-02180-5">

	<rect width="100%" height="100%" fill="white" />
	<path d = "M 517.97 398.44 L 489.84 372.66 L 307.03 276.56 L 236.72 232.03 L 147.66 114.84 L 135.94 65.62 L 150.00 42.19 L 203.91 14.06 L 257.81 2.34 L 318.75 2.34 L 489.84 72.66 L 517.97 93.75 L 539.06 124.22 L 592.97 166.41 L 597.66 185.16 L 581.25 365.62 L 539.06 377.34 L 496.88 351.56" stroke="black" fill="transparent"/>
	<path d = "M 288.28 128.91 L 239.06 79.69 L 227.34 56.25 L 267.19 58.59 L 328.12 82.03" stroke="black" fill="transparent"/>
	<path d = "M 234.38 60.94 L 351.56 135.94" stroke="black" fill="transparent"/>
	<path d = "M 417.19 464.06 L 391.41 466.41 L 339.84 452.34 L 239.06 393.75 L 135.94 346.88 L 51.56 292.97 L 2.34 225.00 L 4.69 187.50 L 65.62 171.09 L 182.81 180.47 L 239.06 213.28 L 335.16 297.66 L 363.28 346.88 L 367.97 431.25 L 379.69 445.31" stroke="black" fill="transparent"/>
</svg>