<?xml version="1.0" encoding="UTF-8" standalone="no"?>
<!--Created with ndjsontosvg (https:https://github.com/thompson318/ndjsontosvg) 
	from the simplified Google quickdraw data set. key_id = 4840372784070656-->
<svg width="600" height="600"
	xmlns="http://www.w3.org/2000/svg">
	xmlns:ndjsontosvg="https://github.com/thompson318/ndjsontosvg"
	xmlns:quickdraw="https://quickdraw.withgoogle.com/data"
	xmlns:scikit-surgery="https://doi.org/10.1007/s11548-020-02180-5">

	<rect width="100%" height="100%" fill="white" />
	<path d = "M 93.75 7.03 L 215.62 7.03 L 239.06 9.38 L 243.75 21.09 L 215.62 213.28 L 215.62 426.56 L 203.91 450.00 L 171.09 468.75 L 46.88 473.44 L 21.09 457.03 L 2.34 407.81 L 0.00 248.44 L 11.72 147.66 L 35.16 82.03 L 89.06 9.38" stroke="black" fill="transparent"/>
	<path d = "M 393.75 9.38 L 567.19 2.34 L 576.56 14.06 L 590.62 53.91 L 597.66 103.12 L 590.62 185.16 L 588.28 419.53 L 581.25 431.25 L 532.03 450.00 L 466.41 461.72 L 431.25 459.38 L 414.84 440.62 L 410.16 349.22 L 428.91 206.25 L 428.91 105.47 L 407.81 0.00" stroke="black" fill="transparent"/>
	<path d = "M 475.78 23.44 L 473.44 46.88 L 431.25 124.22" stroke="black" fill="transparent"/>
	<path d = "M 480.47 14.06 L 527.34 86.72 L 553.12 114.84" stroke="black" fill="transparent"/>
	<path d = "M 171.09 16.41 L 77.34 79.69" stroke="black" fill="transparent"/>
	<path d = "M 196.88 11.72 L 203.91 103.12 L 222.66 135.94" stroke="black" fill="transparent"/>
</svg>