<?xml version="1.0" encoding="UTF-8" standalone="no"?>
<!--Created with ndjsontosvg (https:https://github.com/thompson318/ndjsontosvg) 
	from the simplified Google quickdraw data set. key_id = 6128281323569152-->
<svg width="600" height="600"
	xmlns="http://www.w3.org/2000/svg">
	xmlns:ndjsontosvg="https://github.com/thompson318/ndjsontosvg"
	xmlns:quickdraw="https://quickdraw.withgoogle.com/data"
	xmlns:scikit-surgery="https://doi.org/10.1007/s11548-020-02180-5">

	<rect width="100%" height="100%" fill="white" />
	<path d = "M 117.19 517.97 L 91.41 391.41 L 39.84 288.28 L 14.06 215.62 L 0.00 128.91 L 7.03 49.22 L 25.78 28.12 L 84.38 4.69 L 110.16 0.00 L 150.00 9.38 L 187.50 39.84 L 217.97 77.34 L 271.88 203.91 L 271.88 248.44 L 239.06 335.16 L 232.03 382.03 L 236.72 520.31 L 225.00 569.53 L 203.91 595.31 L 166.41 590.62 L 138.28 562.50 L 114.84 520.31" stroke="black" fill="transparent"/>
	<path d = "M 35.16 56.25 L 51.56 56.25 L 65.62 70.31 L 91.41 110.16 L 114.84 175.78" stroke="black" fill="transparent"/>
	<path d = "M 103.12 166.41 L 60.94 260.16 L 63.28 342.19 L 93.75 480.47" stroke="black" fill="transparent"/>
	<path d = "M 107.81 159.38 L 152.34 187.50 L 215.62 246.09 L 241.41 290.62 L 255.47 346.88" stroke="black" fill="transparent"/>
</svg>