<?xml version="1.0" encoding="UTF-8" standalone="no"?>
<!--Created with ndjsontosvg (https:https://github.com/thompson318/ndjsontosvg) 
	from the simplified Google quickdraw data set. key_id = 5260147100221440-->
<svg width="600" height="600"
	xmlns="http://www.w3.org/2000/svg">
	xmlns:ndjsontosvg="https://github.com/thompson318/ndjsontosvg"
	xmlns:quickdraw="https://quickdraw.withgoogle.com/data"
	xmlns:scikit-surgery="https://doi.org/10.1007/s11548-020-02180-5">

	<rect width="100%" height="100%" fill="white" />
	<path d = "M 0.00 229.69 L 2.34 142.97 L 11.72 105.47 L 11.72 63.28 L 25.78 23.44 L 44.53 9.38 L 82.03 4.69 L 154.69 2.34 L 187.50 7.03 L 201.56 16.41 L 264.84 77.34 L 304.69 103.12 L 330.47 135.94 L 337.50 178.12 L 342.19 328.12 L 328.12 487.50 L 316.41 520.31 L 300.00 539.06 L 253.12 576.56 L 210.94 595.31 L 96.09 597.66 L 70.31 585.94 L 21.09 522.66 L 7.03 489.84 L 14.06 274.22 L 7.03 241.41 L 7.03 182.81" stroke="black" fill="transparent"/>
	<path d = "M 147.66 0.00 L 135.94 9.38 L 112.50 60.94 L 103.12 142.97 L 107.81 201.56" stroke="black" fill="transparent"/>
	<path d = "M 7.03 217.97 L 58.59 210.94" stroke="black" fill="transparent"/>
</svg>