<?xml version="1.0" encoding="UTF-8" standalone="no"?>
<!--Created with ndjsontosvg (https:https://github.com/thompson318/ndjsontosvg) 
	from the simplified Google quickdraw data set. key_id = 6728143031238656-->
<svg width="600" height="600"
	xmlns="http://www.w3.org/2000/svg">
	xmlns:ndjsontosvg="https://github.com/thompson318/ndjsontosvg"
	xmlns:quickdraw="https://quickdraw.withgoogle.com/data"
	xmlns:scikit-surgery="https://doi.org/10.1007/s11548-020-02180-5">

	<rect width="100%" height="100%" fill="white" />
	<path d = "M 114.84 56.25 L 60.94 121.88 L 21.09 185.16 L 7.03 248.44 L 0.00 353.91 L 18.75 454.69 L 39.84 508.59 L 60.94 534.38 L 117.19 583.59 L 164.06 597.66 L 194.53 597.66 L 241.41 578.91 L 271.88 543.75 L 314.06 471.09 L 328.12 398.44 L 328.12 164.06 L 281.25 44.53 L 250.78 23.44 L 180.47 2.34 L 128.91 0.00 L 84.38 21.09 L 37.50 60.94" stroke="black" fill="transparent"/>
	<path d = "M 161.72 46.88 L 159.38 128.91 L 150.00 166.41 L 128.91 222.66 L 119.53 220.31" stroke="black" fill="transparent"/>
	<path d = "M 16.41 220.31 L 121.88 255.47 L 229.69 255.47 L 304.69 229.69 L 339.84 210.94 L 349.22 194.53" stroke="black" fill="transparent"/>
</svg>