<?xml version="1.0" encoding="UTF-8" standalone="no"?>
<!--Created with ndjsontosvg (https:https://github.com/thompson318/ndjsontosvg) 
	from the simplified Google quickdraw data set. key_id = 6158180251860992-->
<svg width="600" height="600"
	xmlns="http://www.w3.org/2000/svg">
	xmlns:ndjsontosvg="https://github.com/thompson318/ndjsontosvg"
	xmlns:quickdraw="https://quickdraw.withgoogle.com/data"
	xmlns:scikit-surgery="https://doi.org/10.1007/s11548-020-02180-5">

	<rect width="100%" height="100%" fill="white" />
	<path d = "M 161.72 595.31 L 217.97 583.59 L 335.16 595.31 L 325.78 562.50 L 278.91 492.19 L 281.25 482.81 L 267.19 482.81 L 201.56 482.81 L 98.44 496.88 L 79.69 503.91 L 60.94 520.31 L 0.00 555.47 L 121.88 590.62 L 168.75 595.31" stroke="black" fill="transparent"/>
	<path d = "M 157.03 499.22 L 161.72 229.69 L 175.78 147.66" stroke="black" fill="transparent"/>
	<path d = "M 60.94 157.03 L 180.47 180.47 L 257.81 175.78 L 267.19 142.97 L 271.88 91.41 L 257.81 30.47 L 239.06 18.75 L 142.97 0.00 L 124.22 0.00 L 77.34 23.44 L 56.25 44.53 L 35.16 98.44 L 56.25 152.34" stroke="black" fill="transparent"/>
</svg>