<?xml version="1.0" encoding="UTF-8" standalone="no"?>
<!--Created with ndjsontosvg (https:https://github.com/thompson318/ndjsontosvg) 
	from the simplified Google quickdraw data set. key_id = 4658919110606848-->
<svg width="600" height="600"
	xmlns="http://www.w3.org/2000/svg">
	xmlns:ndjsontosvg="https://github.com/thompson318/ndjsontosvg"
	xmlns:quickdraw="https://quickdraw.withgoogle.com/data"
	xmlns:scikit-surgery="https://doi.org/10.1007/s11548-020-02180-5">

	<rect width="100%" height="100%" fill="white" />
	<path d = "M 32.81 576.56 L 53.91 534.38 L 77.34 503.91 L 222.66 520.31 L 220.31 592.97 L 215.62 597.66 L 157.03 595.31 L 58.59 576.56 L 53.91 567.19" stroke="black" fill="transparent"/>
	<path d = "M 171.09 522.66 L 159.38 482.81 L 150.00 412.50 L 157.03 180.47" stroke="black" fill="transparent"/>
	<path d = "M 79.69 11.72 L 145.31 0.00 L 213.28 0.00 L 246.09 16.41 L 241.41 25.78 L 232.03 28.12 L 140.62 11.72 L 84.38 11.72" stroke="black" fill="transparent"/>
	<path d = "M 119.53 14.06 L 119.53 14.06" stroke="black" fill="transparent"/>
	<path d = "M 103.12 11.72 L 39.84 86.72 L 0.00 157.03 L 37.50 166.41 L 107.81 168.75" stroke="black" fill="transparent"/>
</svg>