<?xml version="1.0" encoding="UTF-8" standalone="no"?>
<!--Created with ndjsontosvg (https:https://github.com/thompson318/ndjsontosvg) 
	from the simplified Google quickdraw data set. key_id = 5462390063759360-->
<svg width="600" height="600"
	xmlns="http://www.w3.org/2000/svg">
	xmlns:ndjsontosvg="https://github.com/thompson318/ndjsontosvg"
	xmlns:quickdraw="https://quickdraw.withgoogle.com/data"
	xmlns:scikit-surgery="https://doi.org/10.1007/s11548-020-02180-5">

	<rect width="100%" height="100%" fill="white" />
	<path d = "M 86.72 597.66 L 84.38 585.94 L 93.75 548.44 L 133.59 499.22" stroke="black" fill="transparent"/>
	<path d = "M 79.69 590.62 L 278.91 595.31 L 318.75 585.94 L 328.12 576.56 L 332.81 555.47 L 285.94 475.78 L 260.16 309.38" stroke="black" fill="transparent"/>
	<path d = "M 124.22 492.19 L 142.97 475.78 L 161.72 435.94 L 180.47 417.19 L 192.19 328.12 L 150.00 339.84 L 2.34 342.19 L 0.00 330.47 L 23.44 173.44 L 70.31 67.97 L 79.69 35.16 L 278.91 0.00 L 342.19 0.00 L 405.47 11.72 L 424.22 77.34 L 510.94 290.62 L 471.09 304.69 L 365.62 323.44 L 182.81 328.12" stroke="black" fill="transparent"/>
</svg>