<?xml version="1.0" encoding="UTF-8" standalone="no"?>
<!--Created with ndjsontosvg (https:https://github.com/thompson318/ndjsontosvg) 
	from the simplified Google quickdraw data set. key_id = 4832430500347904-->
<svg width="600" height="600"
	xmlns="http://www.w3.org/2000/svg">
	xmlns:ndjsontosvg="https://github.com/thompson318/ndjsontosvg"
	xmlns:quickdraw="https://quickdraw.withgoogle.com/data"
	xmlns:scikit-surgery="https://doi.org/10.1007/s11548-020-02180-5">

	<rect width="100%" height="100%" fill="white" />
	<path d = "M 157.03 187.50 L 161.72 597.66" stroke="black" fill="transparent"/>
	<path d = "M 138.28 124.22 L 114.84 121.88 L 103.12 133.59 L 110.16 152.34 L 128.91 164.06 L 180.47 166.41 L 187.50 154.69 L 187.50 128.91 L 168.75 117.19 L 110.16 114.84" stroke="black" fill="transparent"/>
	<path d = "M 166.41 171.09 L 117.19 199.22 L 58.59 196.88 L 30.47 175.78 L 21.09 152.34 L 14.06 157.03 L 7.03 150.00 L 2.34 100.78 L 46.88 84.38 L 98.44 84.38 L 84.38 16.41 L 103.12 35.16 L 128.91 7.03 L 150.00 0.00 L 152.34 25.78 L 196.88 14.06 L 227.34 16.41 L 229.69 30.47 L 213.28 58.59 L 260.16 79.69 L 262.50 89.06 L 250.78 98.44 L 225.00 100.78 L 227.34 110.16 L 262.50 140.62 L 269.53 161.72 L 241.41 166.41 L 248.44 182.81 L 234.38 187.50 L 199.22 185.16 L 185.16 178.12 L 187.50 206.25 L 180.47 206.25 L 138.28 145.31" stroke="black" fill="transparent"/>
</svg>