<?xml version="1.0" encoding="UTF-8" standalone="no"?>
<!--Created with ndjsontosvg (https:https://github.com/thompson318/ndjsontosvg) 
	from the simplified Google quickdraw data set. key_id = 6292813853491200-->
<svg width="600" height="600"
	xmlns="http://www.w3.org/2000/svg">
	xmlns:ndjsontosvg="https://github.com/thompson318/ndjsontosvg"
	xmlns:quickdraw="https://quickdraw.withgoogle.com/data"
	xmlns:scikit-surgery="https://doi.org/10.1007/s11548-020-02180-5">

	<rect width="100%" height="100%" fill="white" />
	<path d = "M 121.88 182.81 L 121.88 482.81 L 126.56 574.22 L 147.66 440.62 L 171.09 393.75 L 278.91 248.44" stroke="black" fill="transparent"/>
	<path d = "M 290.62 229.69 L 248.44 239.06 L 215.62 255.47 L 175.78 292.97 L 138.28 370.31 L 128.91 435.94" stroke="black" fill="transparent"/>
	<path d = "M 274.22 215.62 L 292.97 295.31 L 292.97 356.25 L 278.91 403.12 L 234.38 492.19 L 147.66 597.66" stroke="black" fill="transparent"/>
	<path d = "M 124.22 178.12 L 105.47 161.72 L 107.81 117.19 L 140.62 96.09 L 173.44 103.12 L 171.09 128.91 L 161.72 142.97 L 133.59 159.38 L 110.16 159.38" stroke="black" fill="transparent"/>
	<path d = "M 110.16 25.78 L 140.62 0.00 L 147.66 46.88 L 210.94 37.50 L 215.62 79.69 L 250.78 84.38 L 271.88 105.47 L 274.22 138.28 L 248.44 161.72 L 248.44 185.16 L 239.06 194.53 L 196.88 215.62 L 164.06 217.97 L 150.00 203.91" stroke="black" fill="transparent"/>
	<path d = "M 112.50 11.72 L 70.31 25.78 L 53.91 39.84 L 56.25 56.25 L 75.00 84.38 L 28.12 110.16 L 23.44 121.88 L 35.16 128.91 L 9.38 164.06 L 0.00 194.53 L 16.41 196.88 L 37.50 173.44 L 32.81 243.75 L 42.19 250.78 L 86.72 246.09 L 133.59 201.56" stroke="black" fill="transparent"/>
</svg>