<?xml version="1.0" encoding="UTF-8" standalone="no"?>
<!--Created with ndjsontosvg (https:https://github.com/thompson318/ndjsontosvg) 
	from the simplified Google quickdraw data set. key_id = 5088851758415872-->
<svg width="600" height="600"
	xmlns="http://www.w3.org/2000/svg">
	xmlns:ndjsontosvg="https://github.com/thompson318/ndjsontosvg"
	xmlns:quickdraw="https://quickdraw.withgoogle.com/data"
	xmlns:scikit-surgery="https://doi.org/10.1007/s11548-020-02180-5">

	<rect width="100%" height="100%" fill="white" />
	<path d = "M 227.34 597.66 L 243.75 550.78 L 257.81 461.72 L 243.75 300.00 L 225.00 243.75 L 201.56 210.94 L 142.97 182.81 L 128.91 182.81 L 105.47 234.38 L 75.00 243.75 L 30.47 241.41 L 16.41 229.69 L 11.72 217.97 L 25.78 189.84 L 39.84 189.84 L 4.69 147.66 L 2.34 117.19 L 25.78 96.09 L 37.50 96.09 L 63.28 114.84 L 63.28 75.00 L 82.03 32.81 L 96.09 32.81 L 112.50 58.59 L 140.62 11.72 L 154.69 2.34 L 171.09 0.00 L 185.16 9.38 L 206.25 49.22 L 206.25 77.34 L 180.47 89.06 L 206.25 86.72 L 229.69 110.16 L 227.34 128.91 L 208.59 157.03 L 135.94 189.84" stroke="black" fill="transparent"/>
	<path d = "M 98.44 124.22 L 89.06 150.00 L 100.78 152.34 L 114.84 145.31 L 131.25 119.53 L 119.53 112.50 L 100.78 114.84" stroke="black" fill="transparent"/>
</svg>