<?xml version="1.0" encoding="UTF-8" standalone="no"?>
<!--Created with ndjsontosvg (https:https://github.com/thompson318/ndjsontosvg) 
	from the simplified Google quickdraw data set. key_id = 5960857278218240-->
<svg width="600" height="600"
	xmlns="http://www.w3.org/2000/svg">
	xmlns:ndjsontosvg="https://github.com/thompson318/ndjsontosvg"
	xmlns:quickdraw="https://quickdraw.withgoogle.com/data"
	xmlns:scikit-surgery="https://doi.org/10.1007/s11548-020-02180-5">

	<rect width="100%" height="100%" fill="white" />
	<path d = "M 227.34 365.62 L 239.06 452.34 L 229.69 597.66" stroke="black" fill="transparent"/>
	<path d = "M 152.34 316.41 L 154.69 353.91 L 178.12 370.31 L 229.69 363.28 L 243.75 339.84 L 283.59 346.88 L 302.34 328.12 L 311.72 285.94 L 328.12 260.16 L 288.28 201.56 L 269.53 196.88 L 201.56 157.03 L 157.03 138.28 L 51.56 128.91 L 28.12 147.66 L 18.75 164.06 L 25.78 178.12 L 9.38 185.16 L 0.00 203.91 L 18.75 225.00 L 44.53 234.38 L 131.25 232.03 L 79.69 283.59 L 82.03 292.97 L 103.12 311.72 L 128.91 309.38" stroke="black" fill="transparent"/>
	<path d = "M 227.34 241.41 L 173.44 255.47 L 161.72 267.19 L 161.72 283.59 L 168.75 302.34 L 187.50 314.06 L 236.72 307.03 L 260.16 269.53 L 257.81 262.50 L 229.69 255.47" stroke="black" fill="transparent"/>
	<path d = "M 201.56 154.69 L 290.62 56.25 L 365.62 0.00 L 391.41 23.44 L 424.22 75.00 L 428.91 164.06 L 419.53 189.84 L 377.34 227.34 L 328.12 229.69 L 365.62 222.66 L 403.12 232.03 L 419.53 250.78 L 419.53 278.91 L 393.75 297.66 L 314.06 311.72 L 215.62 304.69 L 182.81 295.31 L 182.81 285.94 L 189.84 292.97 L 189.84 316.41 L 161.72 346.88 L 105.47 370.31 L 82.03 370.31 L 28.12 346.88 L 18.75 328.12 L 28.12 302.34 L 60.94 278.91 L 114.84 248.44 L 135.94 253.12 L 124.22 255.47 L 110.16 246.09 L 93.75 208.59 L 86.72 161.72 L 100.78 56.25 L 171.09 105.47 L 220.31 154.69 L 239.06 135.94 L 267.19 138.28 L 285.94 150.00 L 304.69 171.09" stroke="black" fill="transparent"/>
</svg>