<?xml version="1.0" encoding="UTF-8" standalone="no"?>
<!--Created with ndjsontosvg (https:https://github.com/thompson318/ndjsontosvg) 
	from the simplified Google quickdraw data set. key_id = 6377605303369728-->
<svg width="600" height="600"
	xmlns="http://www.w3.org/2000/svg">
	xmlns:ndjsontosvg="https://github.com/thompson318/ndjsontosvg"
	xmlns:quickdraw="https://quickdraw.withgoogle.com/data"
	xmlns:scikit-surgery="https://doi.org/10.1007/s11548-020-02180-5">

	<rect width="100%" height="100%" fill="white" />
	<path d = "M 295.31 241.41 L 227.34 239.06 L 206.25 262.50 L 185.16 328.12 L 185.16 407.81 L 192.19 426.56 L 330.47 426.56 L 396.09 353.91 L 403.12 337.50 L 396.09 276.56 L 332.81 239.06 L 274.22 227.34" stroke="black" fill="transparent"/>
	<path d = "M 283.59 220.31 L 318.75 105.47 L 367.97 30.47 L 391.41 2.34 L 454.69 0.00 L 489.84 25.78 L 496.88 44.53 L 496.88 138.28 L 482.81 192.19 L 471.09 208.59 L 452.34 222.66 L 412.50 227.34 L 426.56 206.25 L 468.75 178.12 L 515.62 159.38 L 557.81 152.34 L 588.28 189.84 L 597.66 257.81 L 597.66 342.19 L 567.19 407.81 L 522.66 424.22 L 417.19 424.22 L 363.28 391.41 L 335.16 356.25 L 351.56 358.59 L 370.31 393.75 L 370.31 482.81 L 311.72 536.72 L 274.22 557.81 L 203.91 578.91 L 182.81 546.09 L 164.06 478.12 L 166.41 428.91 L 192.19 391.41 L 232.03 391.41 L 206.25 405.47 L 145.31 405.47 L 124.22 417.19 L 89.06 417.19 L 51.56 400.78 L 28.12 384.38 L 14.06 358.59 L 0.00 311.72 L 0.00 269.53 L 7.03 246.09 L 28.12 232.03 L 67.97 217.97 L 147.66 213.28 L 201.56 260.16 L 206.25 276.56 L 164.06 217.97 L 142.97 171.09 L 142.97 135.94 L 173.44 100.78 L 208.59 89.06 L 248.44 91.41 L 269.53 110.16 L 283.59 150.00 L 283.59 246.09" stroke="black" fill="transparent"/>
</svg>