<?xml version="1.0" encoding="UTF-8" standalone="no"?>
<!--Created with ndjsontosvg (https:https://github.com/thompson318/ndjsontosvg) 
	from the simplified Google quickdraw data set. key_id = 6497264769957888-->
<svg width="600" height="600"
	xmlns="http://www.w3.org/2000/svg">
	xmlns:ndjsontosvg="https://github.com/thompson318/ndjsontosvg"
	xmlns:quickdraw="https://quickdraw.withgoogle.com/data"
	xmlns:scikit-surgery="https://doi.org/10.1007/s11548-020-02180-5">

	<rect width="100%" height="100%" fill="white" />
	<path d = "M 309.38 117.19 L 278.91 105.47 L 234.38 112.50 L 182.81 145.31 L 154.69 173.44 L 138.28 208.59 L 135.94 260.16 L 154.69 292.97 L 199.22 323.44 L 262.50 330.47 L 300.00 323.44 L 358.59 288.28 L 393.75 241.41 L 400.78 189.84 L 377.34 147.66 L 323.44 110.16 L 288.28 107.81" stroke="black" fill="transparent"/>
	<path d = "M 147.66 208.59 L 107.81 185.16 L 86.72 154.69 L 82.03 107.81 L 98.44 77.34 L 142.97 42.19 L 208.59 11.72 L 257.81 0.00 L 325.78 0.00 L 360.94 14.06 L 379.69 32.81 L 386.72 75.00 L 375.00 105.47 L 426.56 67.97 L 492.19 49.22 L 522.66 51.56 L 550.78 63.28 L 574.22 79.69 L 590.62 105.47 L 597.66 168.75 L 574.22 201.56 L 534.38 227.34 L 480.47 246.09 L 440.62 250.78 L 431.25 234.38" stroke="black" fill="transparent"/>
	<path d = "M 124.22 187.50 L 77.34 182.81 L 53.91 196.88 L 4.69 255.47 L 2.34 297.66 L 44.53 332.81 L 89.06 342.19 L 142.97 332.81 L 203.91 302.34 L 192.19 330.47 L 192.19 379.69 L 215.62 405.47 L 234.38 412.50 L 288.28 412.50 L 314.06 403.12 L 372.66 370.31 L 433.59 307.03 L 452.34 264.84 L 454.69 236.72 L 450.00 225.00 L 428.91 213.28 L 410.16 213.28 L 372.66 229.69" stroke="black" fill="transparent"/>
	<path d = "M 328.12 377.34 L 323.44 489.84 L 335.16 546.09" stroke="black" fill="transparent"/>
</svg>