<?xml version="1.0" encoding="UTF-8" standalone="no"?>
<!--Created with ndjsontosvg (https:https://github.com/thompson318/ndjsontosvg) 
	from the simplified Google quickdraw data set. key_id = 4504383314198528-->
<svg width="600" height="600"
	xmlns="http://www.w3.org/2000/svg">
	xmlns:ndjsontosvg="https://github.com/thompson318/ndjsontosvg"
	xmlns:quickdraw="https://quickdraw.withgoogle.com/data"
	xmlns:scikit-surgery="https://doi.org/10.1007/s11548-020-02180-5">

	<rect width="100%" height="100%" fill="white" />
	<path d = "M 213.28 161.72 L 201.56 114.84 L 208.59 53.91 L 232.03 18.75 L 271.88 0.00 L 311.72 9.38 L 353.91 51.56 L 372.66 98.44 L 375.00 142.97" stroke="black" fill="transparent"/>
	<path d = "M 220.31 173.44 L 267.19 185.16 L 311.72 187.50 L 358.59 171.09 L 372.66 159.38 L 377.34 147.66" stroke="black" fill="transparent"/>
	<path d = "M 203.91 142.97 L 150.00 150.00 L 112.50 166.41 L 79.69 185.16 L 63.28 208.59 L 72.66 225.00 L 105.47 236.72 L 159.38 246.09 L 220.31 246.09 L 417.19 213.28 L 468.75 194.53 L 480.47 180.47 L 480.47 161.72 L 454.69 131.25 L 407.81 124.22 L 370.31 133.59" stroke="black" fill="transparent"/>
	<path d = "M 241.41 257.81 L 271.88 267.19 L 304.69 267.19 L 335.16 253.12 L 351.56 232.03" stroke="black" fill="transparent"/>
	<path d = "M 222.66 295.31 L 0.00 562.50" stroke="black" fill="transparent"/>
	<path d = "M 363.28 248.44 L 513.28 597.66" stroke="black" fill="transparent"/>
</svg>