<?xml version="1.0" encoding="UTF-8" standalone="no"?>
<!--Created with ndjsontosvg (https:https://github.com/thompson318/ndjsontosvg) 
	from the simplified Google quickdraw data set. key_id = 6236992905936896-->
<svg width="600" height="600"
	xmlns="http://www.w3.org/2000/svg">
	xmlns:ndjsontosvg="https://github.com/thompson318/ndjsontosvg"
	xmlns:quickdraw="https://quickdraw.withgoogle.com/data"
	xmlns:scikit-surgery="https://doi.org/10.1007/s11548-020-02180-5">

	<rect width="100%" height="100%" fill="white" />
	<path d = "M 135.94 150.00 L 138.28 63.28 L 154.69 28.12 L 185.16 4.69 L 253.12 2.34 L 300.00 16.41 L 339.84 42.19 L 363.28 89.06 L 358.59 93.75 L 351.56 86.72 L 344.53 117.19 L 318.75 142.97 L 210.94 180.47 L 168.75 182.81 L 126.56 154.69" stroke="black" fill="transparent"/>
	<path d = "M 112.50 131.25 L 89.06 152.34 L 35.16 180.47 L 7.03 208.59 L 0.00 250.78 L 23.44 285.94 L 103.12 295.31 L 339.84 236.72 L 386.72 217.97 L 475.78 159.38 L 557.81 96.09 L 597.66 56.25 L 571.88 32.81 L 468.75 11.72 L 391.41 25.78 L 351.56 42.19" stroke="black" fill="transparent"/>
	<path d = "M 457.03 37.50 L 421.88 46.88 L 414.84 60.94 L 414.84 91.41 L 438.28 103.12 L 473.44 89.06 L 473.44 63.28 L 452.34 51.56" stroke="black" fill="transparent"/>
	<path d = "M 386.72 131.25 L 351.56 133.59 L 342.19 154.69 L 349.22 185.16 L 375.00 180.47 L 379.69 161.72 L 372.66 145.31" stroke="black" fill="transparent"/>
	<path d = "M 253.12 201.56 L 227.34 206.25 L 229.69 229.69 L 257.81 222.66 L 255.47 210.94 L 241.41 201.56" stroke="black" fill="transparent"/>
</svg>