<?xml version="1.0" encoding="UTF-8" standalone="no"?>
<!--Created with ndjsontosvg (https:https://github.com/thompson318/ndjsontosvg) 
	from the simplified Google quickdraw data set. key_id = 5191650206810112-->
<svg width="600" height="600"
	xmlns="http://www.w3.org/2000/svg">
	xmlns:ndjsontosvg="https://github.com/thompson318/ndjsontosvg"
	xmlns:quickdraw="https://quickdraw.withgoogle.com/data"
	xmlns:scikit-surgery="https://doi.org/10.1007/s11548-020-02180-5">

	<rect width="100%" height="100%" fill="white" />
	<path d = "M 253.12 110.16 L 253.12 56.25 L 262.50 21.09 L 288.28 2.34 L 332.81 2.34 L 363.28 51.56 L 358.59 152.34" stroke="black" fill="transparent"/>
	<path d = "M 246.09 157.03 L 248.44 147.66 L 241.41 142.97 L 168.75 152.34 L 103.12 173.44 L 21.09 213.28 L 4.69 232.03 L 0.00 257.81 L 53.91 292.97 L 117.19 304.69 L 185.16 304.69 L 382.03 285.94 L 532.03 257.81 L 576.56 234.38 L 592.97 217.97 L 595.31 194.53 L 576.56 178.12 L 525.00 161.72 L 466.41 154.69 L 396.09 157.03 L 323.44 175.78" stroke="black" fill="transparent"/>
	<path d = "M 199.22 173.44 L 229.69 196.88 L 281.25 206.25 L 316.41 206.25 L 353.91 180.47" stroke="black" fill="transparent"/>
	<path d = "M 278.91 131.25 L 281.25 67.97" stroke="black" fill="transparent"/>
</svg>