<?xml version="1.0" encoding="UTF-8" standalone="no"?>
<!--Created with ndjsontosvg (https:https://github.com/thompson318/ndjsontosvg) 
	from the simplified Google quickdraw data set. key_id = 5175197462167552-->
<svg width="600" height="600"
	xmlns="http://www.w3.org/2000/svg">
	xmlns:ndjsontosvg="https://github.com/thompson318/ndjsontosvg"
	xmlns:quickdraw="https://quickdraw.withgoogle.com/data"
	xmlns:scikit-surgery="https://doi.org/10.1007/s11548-020-02180-5">

	<rect width="100%" height="100%" fill="white" />
	<path d = "M 135.94 150.00 L 72.66 135.94 L 18.75 150.00 L 4.69 173.44 L 0.00 208.59 L 11.72 248.44 L 30.47 278.91 L 67.97 307.03 L 164.06 339.84 L 199.22 346.88 L 335.16 346.88 L 553.12 288.28 L 592.97 217.97 L 597.66 182.81 L 588.28 171.09 L 546.09 152.34 L 379.69 107.81 L 292.97 114.84 L 154.69 147.66" stroke="black" fill="transparent"/>
	<path d = "M 150.00 196.88 L 147.66 117.19 L 166.41 70.31 L 203.91 25.78 L 274.22 0.00 L 304.69 0.00 L 459.38 42.19 L 475.78 72.66 L 480.47 103.12 L 480.47 201.56" stroke="black" fill="transparent"/>
	<path d = "M 246.09 192.19 L 243.75 138.28 L 269.53 67.97" stroke="black" fill="transparent"/>
</svg>