<?xml version="1.0" encoding="UTF-8" standalone="no"?>
<!--Created with ndjsontosvg (https:https://github.com/thompson318/ndjsontosvg) 
	from the simplified Google quickdraw data set. key_id = 6429538768650240-->
<svg width="600" height="600"
	xmlns="http://www.w3.org/2000/svg">
	xmlns:ndjsontosvg="https://github.com/thompson318/ndjsontosvg"
	xmlns:quickdraw="https://quickdraw.withgoogle.com/data"
	xmlns:scikit-surgery="https://doi.org/10.1007/s11548-020-02180-5">

	<rect width="100%" height="100%" fill="white" />
	<path d = "M 25.78 0.00 L 4.69 51.56 L 0.00 98.44 L 0.00 295.31 L 9.38 391.41 L 30.47 445.31 L 28.12 473.44 L 142.97 461.72 L 332.81 457.03 L 527.34 428.91 L 585.94 405.47 L 548.44 400.78 L 574.22 393.75 L 560.16 384.38 L 567.19 372.66 L 447.66 363.28 L 417.19 370.31 L 403.12 379.69 L 407.81 389.06" stroke="black" fill="transparent"/>
	<path d = "M 426.56 342.19 L 452.34 353.91 L 522.66 335.16 L 562.50 309.38 L 569.53 295.31 L 557.81 281.25 L 496.88 271.88 L 363.28 276.56 L 419.53 283.59 L 503.91 264.84 L 597.66 225.00 L 585.94 208.59 L 503.91 192.19 L 431.25 194.53 L 363.28 203.91 L 264.84 232.03" stroke="black" fill="transparent"/>
</svg>