<?xml version="1.0" encoding="UTF-8" standalone="no"?>
<!--Created with ndjsontosvg (https:https://github.com/thompson318/ndjsontosvg) 
	from the simplified Google quickdraw data set. key_id = 6490656136495104-->
<svg width="600" height="600"
	xmlns="http://www.w3.org/2000/svg">
	xmlns:ndjsontosvg="https://github.com/thompson318/ndjsontosvg"
	xmlns:quickdraw="https://quickdraw.withgoogle.com/data"
	xmlns:scikit-surgery="https://doi.org/10.1007/s11548-020-02180-5">

	<rect width="100%" height="100%" fill="white" />
	<path d = "M 232.03 485.16 L 225.00 466.41 L 229.69 307.03 L 161.72 133.59 L 150.00 37.50 L 164.06 23.44 L 196.88 25.78 L 215.62 56.25 L 220.31 82.03 L 248.44 28.12 L 267.19 11.72 L 278.91 11.72 L 288.28 53.91 L 297.66 53.91 L 337.50 21.09 L 367.97 21.09 L 382.03 46.88 L 398.44 9.38 L 417.19 0.00 L 433.59 4.69 L 440.62 30.47 L 438.28 112.50 L 403.12 192.19 L 372.66 307.03 L 372.66 379.69 L 393.75 485.16 L 396.09 553.12 L 363.28 588.28 L 344.53 595.31 L 285.94 597.66 L 267.19 588.28 L 257.81 569.53 L 248.44 501.56" stroke="black" fill="transparent"/>
	<path d = "M 220.31 281.25 L 206.25 283.59 L 4.69 114.84" stroke="black" fill="transparent"/>
	<path d = "M 257.81 520.31 L 248.44 501.56 L 159.38 435.94 L 77.34 356.25 L 18.75 311.72 L 2.34 292.97 L 0.00 276.56" stroke="black" fill="transparent"/>
</svg>