<?xml version="1.0" encoding="UTF-8" standalone="no"?>
<!--Created with ndjsontosvg (https:https://github.com/thompson318/ndjsontosvg) 
	from the simplified Google quickdraw data set. key_id = 6331292012511232-->
<svg width="600" height="600"
	xmlns="http://www.w3.org/2000/svg">
	xmlns:ndjsontosvg="https://github.com/thompson318/ndjsontosvg"
	xmlns:quickdraw="https://quickdraw.withgoogle.com/data"
	xmlns:scikit-surgery="https://doi.org/10.1007/s11548-020-02180-5">

	<rect width="100%" height="100%" fill="white" />
	<path d = "M 25.78 11.72 L 16.41 46.88 L 16.41 119.53 L 23.44 166.41 L 58.59 220.31 L 89.06 241.41 L 105.47 243.75 L 135.94 236.72 L 166.41 175.78 L 178.12 105.47 L 178.12 37.50 L 178.12 154.69 L 189.84 222.66 L 208.59 248.44 L 234.38 257.81 L 278.91 257.81 L 300.00 246.09 L 335.16 196.88 L 351.56 147.66 L 351.56 77.34 L 342.19 51.56 L 358.59 124.22 L 365.62 290.62 L 314.06 290.62 L 185.16 330.47 L 79.69 335.16 L 56.25 328.12 L 32.81 300.00 L 21.09 271.88 L 0.00 86.72 L 7.03 35.16" stroke="black" fill="transparent"/>
	<path d = "M 227.34 353.91 L 220.31 412.50 L 227.34 576.56" stroke="black" fill="transparent"/>
	<path d = "M 250.78 351.56 L 316.41 595.31" stroke="black" fill="transparent"/>
	<path d = "M 234.38 346.88 L 264.84 351.56 L 285.94 344.53 L 325.78 302.34 L 346.88 260.16 L 358.59 159.38 L 351.56 0.00 L 351.56 75.00 L 339.84 189.84 L 339.84 110.16 L 321.09 28.12 L 344.53 128.91 L 349.22 234.38 L 337.50 260.16 L 316.41 271.88 L 203.91 307.03 L 82.03 309.38 L 42.19 210.94 L 14.06 44.53 L 14.06 154.69" stroke="black" fill="transparent"/>
</svg>