<?xml version="1.0" encoding="UTF-8" standalone="no"?>
<!--Created with ndjsontosvg (https:https://github.com/thompson318/ndjsontosvg) 
	from the simplified Google quickdraw data set. key_id = 6060410002210816-->
<svg width="600" height="600"
	xmlns="http://www.w3.org/2000/svg">
	xmlns:ndjsontosvg="https://github.com/thompson318/ndjsontosvg"
	xmlns:quickdraw="https://quickdraw.withgoogle.com/data"
	xmlns:scikit-surgery="https://doi.org/10.1007/s11548-020-02180-5">

	<rect width="100%" height="100%" fill="white" />
	<path d = "M 77.34 168.75 L 77.34 592.97 L 84.38 597.66 L 114.84 597.66 L 138.28 553.12 L 138.28 213.28 L 131.25 208.59 L 128.91 168.75 L 119.53 154.69 L 65.62 157.03 L 60.94 58.59 L 65.62 16.41 L 93.75 11.72 L 82.03 44.53 L 84.38 86.72 L 93.75 103.12 L 93.75 142.97 L 114.84 147.66 L 119.53 63.28 L 110.16 53.91 L 110.16 28.12 L 119.53 7.03 L 126.56 7.03 L 131.25 154.69 L 138.28 49.22 L 147.66 37.50 L 152.34 7.03 L 173.44 0.00 L 192.19 4.69 L 192.19 53.91 L 138.28 168.75" stroke="black" fill="transparent"/>
	<path d = "M 72.66 157.03 L 53.91 91.41 L 0.00 32.81" stroke="black" fill="transparent"/>
</svg>