<?xml version="1.0" encoding="UTF-8" standalone="no"?>
<!--Created with ndjsontosvg (https:https://github.com/thompson318/ndjsontosvg) 
	from the simplified Google quickdraw data set. key_id = 5733510729957376-->
<svg width="600" height="600"
	xmlns="http://www.w3.org/2000/svg">
	xmlns:ndjsontosvg="https://github.com/thompson318/ndjsontosvg"
	xmlns:quickdraw="https://quickdraw.withgoogle.com/data"
	xmlns:scikit-surgery="https://doi.org/10.1007/s11548-020-02180-5">

	<rect width="100%" height="100%" fill="white" />
	<path d = "M 51.56 421.88 L 30.47 459.38 L 25.78 494.53 L 39.84 494.53 L 58.59 478.12 L 65.62 506.25 L 79.69 513.28 L 107.81 503.91 L 114.84 475.78 L 133.59 513.28 L 164.06 510.94 L 173.44 487.50 L 150.00 440.62" stroke="black" fill="transparent"/>
	<path d = "M 367.97 464.06 L 353.91 517.97 L 360.94 539.06 L 396.09 515.62 L 400.78 527.34 L 426.56 534.38 L 435.94 520.31 L 428.91 506.25 L 447.66 520.31 L 473.44 525.00 L 480.47 503.91 L 471.09 473.44 L 541.41 414.84 L 597.66 342.19 L 553.12 154.69 L 501.56 72.66 L 475.78 58.59 L 428.91 53.91 L 342.19 82.03 L 253.12 14.06 L 201.56 0.00 L 138.28 16.41 L 46.88 98.44 L 21.09 142.97 L 2.34 220.31 L 0.00 253.12 L 96.09 412.50 L 154.69 450.00 L 232.03 480.47 L 300.00 494.53 L 337.50 494.53 L 367.97 468.75 L 372.66 459.38" stroke="black" fill="transparent"/>
	<path d = "M 215.62 96.09 L 110.16 114.84 L 117.19 196.88 L 126.56 210.94 L 187.50 208.59 L 220.31 196.88 L 232.03 185.16 L 180.47 133.59 L 178.12 67.97" stroke="black" fill="transparent"/>
	<path d = "M 445.31 178.12 L 384.38 192.19 L 283.59 232.03 L 274.22 243.75 L 300.00 281.25 L 419.53 264.84 L 435.94 248.44 L 435.94 213.28 L 426.56 196.88" stroke="black" fill="transparent"/>
</svg>