<?xml version="1.0" encoding="UTF-8" standalone="no"?>
<!--Created with ndjsontosvg (https:https://github.com/thompson318/ndjsontosvg) 
	from the simplified Google quickdraw data set. key_id = 4547751729692672-->
<svg width="600" height="600"
	xmlns="http://www.w3.org/2000/svg">
	xmlns:ndjsontosvg="https://github.com/thompson318/ndjsontosvg"
	xmlns:quickdraw="https://quickdraw.withgoogle.com/data"
	xmlns:scikit-surgery="https://doi.org/10.1007/s11548-020-02180-5">

	<rect width="100%" height="100%" fill="white" />
	<path d = "M 360.94 150.00 L 321.09 117.19 L 271.88 110.16 L 203.91 145.31 L 168.75 175.78 L 145.31 220.31 L 131.25 290.62 L 138.28 321.09 L 157.03 349.22 L 187.50 365.62 L 227.34 375.00 L 281.25 367.97 L 332.81 349.22 L 410.16 295.31 L 435.94 262.50 L 450.00 210.94 L 431.25 168.75 L 382.03 126.56" stroke="black" fill="transparent"/>
	<path d = "M 138.28 339.84 L 7.03 489.84 L 2.34 503.91 L 77.34 513.28 L 121.88 506.25 L 171.09 398.44 L 201.56 372.66" stroke="black" fill="transparent"/>
	<path d = "M 360.94 321.09 L 367.97 370.31 L 389.06 424.22 L 412.50 461.72 L 435.94 482.81 L 457.03 478.12 L 452.34 445.31 L 433.59 393.75 L 398.44 342.19 L 398.44 328.12" stroke="black" fill="transparent"/>
	<path d = "M 440.62 161.72 L 475.78 77.34 L 543.75 7.03 L 571.88 0.00 L 590.62 7.03 L 597.66 25.78 L 595.31 65.62 L 564.84 135.94 L 522.66 194.53 L 494.53 225.00 L 426.56 274.22" stroke="black" fill="transparent"/>
</svg>