<?xml version="1.0" encoding="UTF-8" standalone="no"?>
<!--Created with ndjsontosvg (https:https://github.com/thompson318/ndjsontosvg) 
	from the simplified Google quickdraw data set. key_id = 6349413788155904-->
<svg width="600" height="600"
	xmlns="http://www.w3.org/2000/svg">
	xmlns:ndjsontosvg="https://github.com/thompson318/ndjsontosvg"
	xmlns:quickdraw="https://quickdraw.withgoogle.com/data"
	xmlns:scikit-surgery="https://doi.org/10.1007/s11548-020-02180-5">

	<rect width="100%" height="100%" fill="white" />
	<path d = "M 480.47 171.09 L 494.53 135.94 L 489.84 91.41 L 475.78 72.66 L 426.56 46.88 L 393.75 44.53 L 346.88 53.91 L 321.09 77.34 L 318.75 98.44 L 328.12 124.22 L 363.28 157.03 L 410.16 173.44 L 426.56 166.41" stroke="black" fill="transparent"/>
	<path d = "M 171.09 133.59 L 208.59 121.88 L 220.31 105.47 L 220.31 91.41 L 196.88 65.62 L 142.97 53.91 L 112.50 60.94 L 107.81 82.03 L 131.25 107.81 L 187.50 133.59" stroke="black" fill="transparent"/>
	<path d = "M 478.12 49.22 L 510.94 82.03 L 548.44 147.66 L 555.47 229.69 L 541.41 288.28 L 510.94 297.66 L 276.56 307.03 L 63.28 278.91 L 35.16 267.19 L 18.75 250.78 L 0.00 208.59 L 4.69 128.91 L 35.16 70.31 L 70.31 35.16 L 98.44 18.75 L 161.72 4.69 L 290.62 0.00 L 438.28 4.69 L 473.44 11.72 L 506.25 30.47" stroke="black" fill="transparent"/>
	<path d = "M 520.31 248.44 L 536.72 295.31 L 536.72 309.38 L 527.34 323.44 L 459.38 353.91 L 377.34 370.31 L 185.16 323.44 L 72.66 309.38 L 35.16 278.91" stroke="black" fill="transparent"/>
	<path d = "M 489.84 372.66 L 522.66 407.81 L 562.50 473.44 L 588.28 553.12 L 590.62 585.94" stroke="black" fill="transparent"/>
	<path d = "M 86.72 328.12 L 58.59 391.41 L 49.22 478.12 L 51.56 522.66 L 75.00 585.94" stroke="black" fill="transparent"/>
	<path d = "M 75.00 585.94 L 86.72 597.66" stroke="black" fill="transparent"/>
</svg>