<?xml version="1.0" encoding="UTF-8" standalone="no"?>
<!--Created with ndjsontosvg (https:https://github.com/thompson318/ndjsontosvg) 
	from the simplified Google quickdraw data set. key_id = 6352500678459392-->
<svg width="600" height="600"
	xmlns="http://www.w3.org/2000/svg">
	xmlns:ndjsontosvg="https://github.com/thompson318/ndjsontosvg"
	xmlns:quickdraw="https://quickdraw.withgoogle.com/data"
	xmlns:scikit-surgery="https://doi.org/10.1007/s11548-020-02180-5">

	<rect width="100%" height="100%" fill="white" />
	<path d = "M 168.75 93.75 L 161.72 79.69 L 164.06 56.25 L 196.88 18.75 L 241.41 16.41 L 260.16 39.84 L 276.56 75.00 L 297.66 86.72 L 363.28 14.06 L 393.75 0.00 L 414.84 0.00 L 438.28 25.78 L 457.03 105.47" stroke="black" fill="transparent"/>
	<path d = "M 403.12 46.88 L 382.03 49.22 L 360.94 67.97 L 360.94 86.72 L 372.66 100.78 L 407.81 103.12 L 428.91 82.03 L 431.25 63.28 L 419.53 46.88 L 396.09 42.19" stroke="black" fill="transparent"/>
	<path d = "M 236.72 58.59 L 210.94 53.91 L 194.53 75.00 L 201.56 96.09 L 234.38 105.47 L 257.81 96.09 L 267.19 75.00 L 229.69 58.59" stroke="black" fill="transparent"/>
	<path d = "M 173.44 67.97 L 182.81 114.84 L 201.56 147.66 L 206.25 217.97 L 175.78 241.41 L 63.28 236.72 L 39.84 243.75 L 2.34 274.22 L 0.00 304.69 L 9.38 309.38" stroke="black" fill="transparent"/>
	<path d = "M 452.34 72.66 L 459.38 121.88 L 447.66 232.03 L 466.41 260.16 L 489.84 274.22 L 576.56 285.94 L 595.31 309.38 L 597.66 335.16" stroke="black" fill="transparent"/>
	<path d = "M 255.47 189.84 L 290.62 229.69 L 332.81 246.09 L 360.94 248.44 L 428.91 178.12" stroke="black" fill="transparent"/>
</svg>