<?xml version="1.0" encoding="UTF-8" standalone="no"?>
<!--Created with ndjsontosvg (https:https://github.com/thompson318/ndjsontosvg) 
	from the simplified Google quickdraw data set. key_id = 6334085066653696-->
<svg width="600" height="600"
	xmlns="http://www.w3.org/2000/svg">
	xmlns:ndjsontosvg="https://github.com/thompson318/ndjsontosvg"
	xmlns:quickdraw="https://quickdraw.withgoogle.com/data"
	xmlns:scikit-surgery="https://doi.org/10.1007/s11548-020-02180-5">

	<rect width="100%" height="100%" fill="white" />
	<path d = "M 117.19 25.78 L 100.78 21.09 L 67.97 25.78 L 42.19 42.19 L 14.06 72.66 L 4.69 100.78 L 0.00 147.66 L 18.75 196.88 L 75.00 227.34 L 119.53 236.72 L 168.75 236.72 L 260.16 206.25 L 288.28 187.50 L 311.72 159.38 L 318.75 131.25 L 311.72 93.75 L 255.47 42.19 L 208.59 14.06 L 182.81 7.03 L 140.62 2.34 L 107.81 9.38 L 103.12 16.41" stroke="black" fill="transparent"/>
	<path d = "M 208.59 35.16 L 185.16 30.47 L 166.41 56.25 L 168.75 72.66 L 203.91 98.44 L 232.03 98.44 L 241.41 65.62 L 232.03 49.22 L 180.47 25.78" stroke="black" fill="transparent"/>
	<path d = "M 98.44 11.72 L 79.69 9.38 L 70.31 16.41 L 67.97 37.50 L 77.34 49.22 L 124.22 58.59 L 128.91 51.56 L 121.88 18.75 L 100.78 2.34 L 79.69 0.00" stroke="black" fill="transparent"/>
	<path d = "M 86.72 21.09 L 86.72 37.50 L 96.09 32.81" stroke="black" fill="transparent"/>
	<path d = "M 192.19 51.56 L 192.19 79.69" stroke="black" fill="transparent"/>
	<path d = "M 328.12 147.66 L 377.34 145.31 L 421.88 154.69 L 494.53 192.19 L 525.00 220.31 L 564.84 278.91 L 576.56 325.78 L 567.19 379.69 L 546.09 407.81 L 494.53 426.56 L 447.66 428.91 L 349.22 407.81 L 276.56 382.03 L 210.94 316.41 L 199.22 285.94 L 206.25 246.09" stroke="black" fill="transparent"/>
	<path d = "M 208.59 257.81 L 119.53 367.97" stroke="black" fill="transparent"/>
	<path d = "M 248.44 297.66 L 196.88 424.22" stroke="black" fill="transparent"/>
	<path d = "M 424.22 349.22 L 431.25 478.12" stroke="black" fill="transparent"/>
	<path d = "M 482.81 391.41 L 503.91 461.72" stroke="black" fill="transparent"/>
	<path d = "M 557.81 210.94 L 597.66 168.75" stroke="black" fill="transparent"/>
</svg>