<?xml version="1.0" encoding="UTF-8" standalone="no"?>
<!--Created with ndjsontosvg (https:https://github.com/thompson318/ndjsontosvg) 
	from the simplified Google quickdraw data set. key_id = 5977326024130560-->
<svg width="600" height="600"
	xmlns="http://www.w3.org/2000/svg">
	xmlns:ndjsontosvg="https://github.com/thompson318/ndjsontosvg"
	xmlns:quickdraw="https://quickdraw.withgoogle.com/data"
	xmlns:scikit-surgery="https://doi.org/10.1007/s11548-020-02180-5">

	<rect width="100%" height="100%" fill="white" />
	<path d = "M 53.91 400.78 L 16.41 424.22 L 0.00 464.06 L 7.03 482.81 L 35.16 499.22 L 239.06 529.69 L 297.66 529.69 L 452.34 487.50 L 471.09 447.66 L 459.38 428.91 L 440.62 417.19 L 157.03 417.19 L 79.69 400.78 L 86.72 377.34 L 208.59 239.06 L 290.62 173.44 L 372.66 128.91 L 393.75 145.31 L 412.50 182.81 L 433.59 253.12 L 435.94 292.97 L 428.91 309.38 L 410.16 325.78 L 285.94 372.66 L 271.88 389.06" stroke="black" fill="transparent"/>
	<path d = "M 412.50 110.16 L 468.75 44.53 L 508.59 16.41 L 548.44 0.00 L 569.53 11.72 L 592.97 75.00 L 597.66 135.94 L 569.53 199.22 L 555.47 220.31 L 508.59 243.75 L 435.94 243.75" stroke="black" fill="transparent"/>
</svg>