<?xml version="1.0" encoding="UTF-8" standalone="no"?>
<!--Created with ndjsontosvg (https:https://github.com/thompson318/ndjsontosvg) 
	from the simplified Google quickdraw data set. key_id = 6590521893978112-->
<svg width="600" height="600"
	xmlns="http://www.w3.org/2000/svg">
	xmlns:ndjsontosvg="https://github.com/thompson318/ndjsontosvg"
	xmlns:quickdraw="https://quickdraw.withgoogle.com/data"
	xmlns:scikit-surgery="https://doi.org/10.1007/s11548-020-02180-5">

	<rect width="100%" height="100%" fill="white" />
	<path d = "M 157.03 161.72 L 117.19 105.47 L 171.09 16.41 L 213.28 0.00 L 262.50 35.16 L 250.78 124.22 L 241.41 135.94 L 316.41 135.94 L 375.00 152.34 L 384.38 150.00 L 454.69 30.47 L 482.81 9.38 L 508.59 35.16 L 532.03 93.75 L 520.31 145.31 L 489.84 175.78 L 534.38 210.94 L 576.56 260.16 L 553.12 283.59 L 438.28 342.19 L 311.72 339.84 L 220.31 311.72 L 49.22 234.38 L 49.22 206.25 L 142.97 157.03" stroke="black" fill="transparent"/>
	<path d = "M 201.56 82.03 L 201.56 82.03" stroke="black" fill="transparent"/>
	<path d = "M 468.75 89.06 L 464.06 89.06" stroke="black" fill="transparent"/>
	<path d = "M 182.81 220.31 L 288.28 271.88 L 400.78 288.28 L 424.22 283.59 L 464.06 262.50 L 464.06 246.09 L 478.12 278.91" stroke="black" fill="transparent"/>
	<path d = "M 157.03 227.34 L 138.28 264.84" stroke="black" fill="transparent"/>
	<path d = "M 225.00 332.81 L 173.44 546.09 L 157.03 541.41 L 110.16 487.50 L 2.34 389.06 L 0.00 412.50 L 28.12 489.84 L 114.84 578.91 L 39.84 597.66" stroke="black" fill="transparent"/>
</svg>