<?xml version="1.0" encoding="UTF-8" standalone="no"?>
<!--Created with ndjsontosvg (https:https://github.com/thompson318/ndjsontosvg) 
	from the simplified Google quickdraw data set. key_id = 6043905818624000-->
<svg width="600" height="600"
	xmlns="http://www.w3.org/2000/svg">
	xmlns:ndjsontosvg="https://github.com/thompson318/ndjsontosvg"
	xmlns:quickdraw="https://quickdraw.withgoogle.com/data"
	xmlns:scikit-surgery="https://doi.org/10.1007/s11548-020-02180-5">

	<rect width="100%" height="100%" fill="white" />
	<path d = "M 325.78 25.78 L 227.34 25.78 L 107.81 89.06 L 53.91 133.59 L 21.09 171.09 L 2.34 210.94 L 0.00 255.47 L 25.78 295.31 L 79.69 311.72 L 227.34 307.03 L 414.84 269.53 L 496.88 234.38 L 555.47 185.16 L 595.31 114.84 L 597.66 67.97 L 588.28 46.88 L 543.75 16.41 L 438.28 0.00 L 353.91 2.34 L 283.59 37.50" stroke="black" fill="transparent"/>
	<path d = "M 503.91 25.78 L 494.53 98.44" stroke="black" fill="transparent"/>
	<path d = "M 585.94 138.28 L 553.12 138.28 L 452.34 178.12" stroke="black" fill="transparent"/>
	<path d = "M 199.22 210.94 L 178.12 208.59 L 98.44 241.41 L 70.31 302.34 L 70.31 344.53 L 86.72 370.31 L 124.22 398.44 L 232.03 431.25 L 318.75 433.59 L 339.84 419.53 L 349.22 403.12 L 337.50 396.09 L 222.66 365.62 L 203.91 349.22 L 182.81 234.38" stroke="black" fill="transparent"/>
</svg>