<?xml version="1.0" encoding="UTF-8" standalone="no"?>
<!--Created with ndjsontosvg (https:https://github.com/thompson318/ndjsontosvg) 
	from the simplified Google quickdraw data set. key_id = 5840956521709568-->
<svg width="600" height="600"
	xmlns="http://www.w3.org/2000/svg">
	xmlns:ndjsontosvg="https://github.com/thompson318/ndjsontosvg"
	xmlns:quickdraw="https://quickdraw.withgoogle.com/data"
	xmlns:scikit-surgery="https://doi.org/10.1007/s11548-020-02180-5">

	<rect width="100%" height="100%" fill="white" />
	<path d = "M 159.38 196.88 L 150.00 157.03 L 180.47 131.25 L 199.22 128.91 L 222.66 145.31 L 236.72 185.16 L 243.75 187.50 L 307.03 178.12 L 358.59 192.19 L 379.69 131.25 L 398.44 117.19 L 417.19 117.19 L 435.94 142.97 L 424.22 194.53 L 480.47 229.69 L 496.88 248.44 L 506.25 276.56 L 506.25 304.69 L 499.22 323.44 L 450.00 360.94 L 393.75 370.31 L 255.47 372.66 L 194.53 351.56 L 142.97 304.69 L 119.53 253.12 L 124.22 229.69 L 142.97 203.91 L 182.81 187.50" stroke="black" fill="transparent"/>
	<path d = "M 199.22 276.56 L 248.44 288.28 L 342.19 292.97 L 454.69 260.16" stroke="black" fill="transparent"/>
	<path d = "M 358.59 278.91 L 363.28 353.91 L 382.03 389.06 L 400.78 375.00 L 405.47 332.81 L 398.44 307.03" stroke="black" fill="transparent"/>
	<path d = "M 232.03 206.25 L 220.31 199.22 L 215.62 215.62 L 236.72 246.09 L 236.72 225.00 L 217.97 201.56" stroke="black" fill="transparent"/>
	<path d = "M 386.72 203.91 L 389.06 234.38 L 407.81 220.31 L 405.47 210.94 L 398.44 208.59" stroke="black" fill="transparent"/>
	<path d = "M 201.56 173.44 L 189.84 194.53 L 192.19 215.62 L 222.66 248.44 L 232.03 250.78 L 239.06 243.75 L 243.75 222.66 L 222.66 187.50" stroke="black" fill="transparent"/>
	<path d = "M 421.88 182.81 L 403.12 215.62 L 412.50 225.00 L 433.59 222.66 L 435.94 208.59 L 424.22 187.50" stroke="black" fill="transparent"/>
	<path d = "M 403.12 185.16 L 386.72 217.97 L 396.09 225.00 L 410.16 208.59" stroke="black" fill="transparent"/>
	<path d = "M 112.50 297.66 L 112.50 297.66" stroke="black" fill="transparent"/>
	<path d = "M 131.25 257.81 L 91.41 175.78 L 82.03 110.16 L 100.78 51.56 L 121.88 35.16 L 154.69 25.78 L 332.81 28.12 L 386.72 35.16 L 428.91 49.22 L 459.38 77.34 L 503.91 135.94 L 510.94 166.41 L 506.25 201.56" stroke="black" fill="transparent"/>
	<path d = "M 121.88 171.09 L 107.81 157.03 L 105.47 128.91 L 112.50 39.84 L 96.09 4.69 L 77.34 0.00 L 46.88 11.72 L 16.41 35.16 L 4.69 56.25 L 0.00 89.06 L 42.19 236.72 L 77.34 283.59" stroke="black" fill="transparent"/>
	<path d = "M 494.53 173.44 L 480.47 171.09 L 473.44 152.34 L 492.19 98.44 L 513.28 60.94 L 539.06 37.50 L 567.19 30.47 L 588.28 32.81 L 595.31 49.22 L 597.66 161.72 L 508.59 300.00" stroke="black" fill="transparent"/>
	<path d = "M 91.41 295.31 L 77.34 288.28" stroke="black" fill="transparent"/>
</svg>