<?xml version="1.0" encoding="UTF-8" standalone="no"?>
<!--Created with ndjsontosvg (https:https://github.com/thompson318/ndjsontosvg) 
	from the simplified Google quickdraw data set. key_id = 6512273801609216-->
<svg width="600" height="600"
	xmlns="http://www.w3.org/2000/svg">
	xmlns:ndjsontosvg="https://github.com/thompson318/ndjsontosvg"
	xmlns:quickdraw="https://quickdraw.withgoogle.com/data"
	xmlns:scikit-surgery="https://doi.org/10.1007/s11548-020-02180-5">

	<rect width="100%" height="100%" fill="white" />
	<path d = "M 414.84 39.84 L 379.69 4.69 L 339.84 0.00 L 318.75 21.09 L 297.66 56.25 L 285.94 58.59 L 210.94 14.06 L 159.38 9.38 L 112.50 35.16 L 35.16 100.78 L 4.69 161.72 L 0.00 269.53 L 25.78 318.75 L 51.56 344.53 L 119.53 379.69 L 185.16 389.06 L 300.00 386.72 L 342.19 372.66 L 377.34 349.22 L 393.75 328.12 L 450.00 215.62 L 461.72 157.03 L 461.72 98.44 L 454.69 63.28 L 431.25 30.47 L 386.72 14.06 L 365.62 21.09" stroke="black" fill="transparent"/>
	<path d = "M 96.09 98.44 L 86.72 98.44 L 86.72 110.16 L 100.78 161.72 L 117.19 185.16 L 135.94 189.84 L 150.00 187.50 L 164.06 161.72 L 173.44 100.78 L 140.62 70.31 L 105.47 67.97 L 89.06 89.06 L 82.03 131.25 L 89.06 140.62 L 117.19 142.97" stroke="black" fill="transparent"/>
	<path d = "M 131.25 103.12 L 114.84 121.88 L 117.19 152.34 L 133.59 166.41 L 150.00 150.00 L 150.00 126.56 L 133.59 119.53 L 121.88 128.91" stroke="black" fill="transparent"/>
	<path d = "M 405.47 77.34 L 375.00 86.72 L 363.28 98.44 L 358.59 121.88 L 360.94 154.69 L 370.31 175.78 L 382.03 187.50 L 400.78 187.50 L 412.50 164.06 L 414.84 91.41 L 396.09 84.38 L 360.94 89.06 L 339.84 110.16 L 344.53 121.88" stroke="black" fill="transparent"/>
	<path d = "M 396.09 110.16 L 384.38 142.97 L 389.06 150.00 L 405.47 150.00 L 410.16 131.25 L 403.12 124.22 L 370.31 128.91" stroke="black" fill="transparent"/>
	<path d = "M 194.53 232.03 L 215.62 210.94 L 243.75 206.25 L 255.47 225.00 L 239.06 241.41" stroke="black" fill="transparent"/>
	<path d = "M 138.28 262.50 L 133.59 292.97 L 166.41 323.44 L 206.25 328.12 L 229.69 309.38" stroke="black" fill="transparent"/>
	<path d = "M 103.12 337.50 L 93.75 339.84 L 91.41 450.00 L 110.16 499.22 L 164.06 571.88 L 196.88 588.28 L 248.44 597.66 L 292.97 595.31 L 356.25 508.59 L 375.00 433.59 L 365.62 346.88" stroke="black" fill="transparent"/>
	<path d = "M 171.09 396.09 L 171.09 396.09" stroke="black" fill="transparent"/>
	<path d = "M 189.84 372.66 L 194.53 471.09 L 225.00 501.56 L 253.12 503.91 L 271.88 480.47 L 290.62 428.91 L 295.31 351.56" stroke="black" fill="transparent"/>
</svg>