<?xml version="1.0" encoding="UTF-8" standalone="no"?>
<!--Created with ndjsontosvg (https:https://github.com/thompson318/ndjsontosvg) 
	from the simplified Google quickdraw data set. key_id = 4764997013995520-->
<svg width="600" height="600"
	xmlns="http://www.w3.org/2000/svg">
	xmlns:ndjsontosvg="https://github.com/thompson318/ndjsontosvg"
	xmlns:quickdraw="https://quickdraw.withgoogle.com/data"
	xmlns:scikit-surgery="https://doi.org/10.1007/s11548-020-02180-5">

	<rect width="100%" height="100%" fill="white" />
	<path d = "M 0.00 157.03 L 220.31 180.47" stroke="black" fill="transparent"/>
	<path d = "M 220.31 182.81 L 351.56 241.41 L 412.50 260.16 L 492.19 253.12 L 581.25 213.28" stroke="black" fill="transparent"/>
	<path d = "M 217.97 185.16 L 229.69 199.22 L 271.88 229.69 L 435.94 281.25 L 501.56 281.25 L 550.78 271.88 L 585.94 253.12 L 595.31 227.34" stroke="black" fill="transparent"/>
	<path d = "M 595.31 225.00 L 569.53 203.91" stroke="black" fill="transparent"/>
	<path d = "M 225.00 178.12 L 318.75 173.44 L 525.00 189.84 L 588.28 210.94" stroke="black" fill="transparent"/>
	<path d = "M 311.72 194.53 L 339.84 206.25 L 367.97 208.59 L 391.41 222.66 L 440.62 229.69 L 442.97 215.62 L 375.00 194.53 L 316.41 189.84" stroke="black" fill="transparent"/>
	<path d = "M 311.72 178.12 L 318.75 145.31 L 311.72 126.56" stroke="black" fill="transparent"/>
	<path d = "M 344.53 110.16 L 342.19 67.97 L 367.97 0.00" stroke="black" fill="transparent"/>
	<path d = "M 421.88 121.88 L 417.19 75.00 L 438.28 46.88 L 440.62 32.81" stroke="black" fill="transparent"/>
	<path d = "M 513.28 140.62 L 534.38 98.44 L 536.72 56.25" stroke="black" fill="transparent"/>
	<path d = "M 585.94 124.22 L 585.94 124.22" stroke="black" fill="transparent"/>
</svg>