<?xml version="1.0" encoding="UTF-8" standalone="no"?>
<!--Created with ndjsontosvg (https:https://github.com/thompson318/ndjsontosvg) 
	from the simplified Google quickdraw data set. key_id = 5092176163766272-->
<svg width="600" height="600"
	xmlns="http://www.w3.org/2000/svg">
	xmlns:ndjsontosvg="https://github.com/thompson318/ndjsontosvg"
	xmlns:quickdraw="https://quickdraw.withgoogle.com/data"
	xmlns:scikit-surgery="https://doi.org/10.1007/s11548-020-02180-5">

	<rect width="100%" height="100%" fill="white" />
	<path d = "M 119.53 360.94 L 138.28 384.38 L 257.81 421.88 L 459.38 435.94 L 571.88 358.59 L 583.59 328.12 L 583.59 271.88 L 520.31 234.38 L 447.66 208.59 L 300.00 203.91 L 248.44 210.94 L 180.47 229.69 L 152.34 253.12 L 126.56 297.66 L 114.84 349.22" stroke="black" fill="transparent"/>
	<path d = "M 126.56 386.72 L 124.22 431.25 L 138.28 447.66 L 325.78 487.50 L 445.31 492.19 L 525.00 461.72 L 581.25 424.22 L 590.62 412.50 L 597.66 377.34 L 597.66 314.06" stroke="black" fill="transparent"/>
	<path d = "M 187.50 222.66 L 51.56 100.78 L 2.34 28.12 L 2.34 4.69 L 37.50 2.34 L 89.06 32.81 L 255.47 178.12" stroke="black" fill="transparent"/>
	<path d = "M 133.59 424.22 L 112.50 358.59 L 112.50 321.09 L 131.25 400.78 L 159.38 428.91 L 189.84 445.31 L 318.75 473.44" stroke="black" fill="transparent"/>
</svg>