<?xml version="1.0" encoding="UTF-8" standalone="no"?>
<!--Created with ndjsontosvg (https:https://github.com/thompson318/ndjsontosvg) 
	from the simplified Google quickdraw data set. key_id = 5647911465517056-->
<svg width="600" height="600"
	xmlns="http://www.w3.org/2000/svg">
	xmlns:ndjsontosvg="https://github.com/thompson318/ndjsontosvg"
	xmlns:quickdraw="https://quickdraw.withgoogle.com/data"
	xmlns:scikit-surgery="https://doi.org/10.1007/s11548-020-02180-5">

	<rect width="100%" height="100%" fill="white" />
	<path d = "M 300.00 91.41 L 302.34 77.34 L 281.25 44.53 L 227.34 7.03 L 154.69 0.00 L 84.38 25.78 L 32.81 72.66 L 0.00 135.94 L 9.38 189.84 L 46.88 236.72 L 107.81 264.84 L 178.12 271.88 L 260.16 250.78 L 302.34 225.00 L 332.81 187.50 L 349.22 145.31 L 351.56 114.84 L 346.88 86.72 L 335.16 63.28 L 304.69 49.22 L 274.22 44.53 L 253.12 51.56" stroke="black" fill="transparent"/>
	<path d = "M 199.22 274.22 L 414.84 370.31 L 522.66 396.09 L 564.84 398.44 L 590.62 391.41 L 597.66 372.66 L 583.59 335.16 L 548.44 285.94 L 496.88 241.41 L 428.91 206.25 L 307.03 182.81" stroke="black" fill="transparent"/>
</svg>