<?xml version="1.0" encoding="UTF-8" standalone="no"?>
<!--Created with ndjsontosvg (https:https://github.com/thompson318/ndjsontosvg) 
	from the simplified Google quickdraw data set. key_id = 5855866802667520-->
<svg width="600" height="600"
	xmlns="http://www.w3.org/2000/svg">
	xmlns:ndjsontosvg="https://github.com/thompson318/ndjsontosvg"
	xmlns:quickdraw="https://quickdraw.withgoogle.com/data"
	xmlns:scikit-surgery="https://doi.org/10.1007/s11548-020-02180-5">

	<rect width="100%" height="100%" fill="white" />
	<path d = "M 82.03 121.88 L 72.66 131.25 L 37.50 351.56" stroke="black" fill="transparent"/>
	<path d = "M 39.84 150.00 L 25.78 128.91 L 23.44 75.00 L 37.50 37.50 L 56.25 18.75 L 84.38 9.38 L 107.81 9.38 L 126.56 16.41 L 140.62 35.16 L 180.47 39.84 L 196.88 56.25 L 201.56 96.09 L 189.84 119.53 L 154.69 142.97 L 180.47 168.75 L 185.16 182.81 L 173.44 194.53 L 140.62 201.56" stroke="black" fill="transparent"/>
	<path d = "M 32.81 112.50 L 11.72 126.56 L 0.00 150.00 L 11.72 168.75 L 49.22 180.47" stroke="black" fill="transparent"/>
	<path d = "M 297.66 363.28 L 335.16 121.88" stroke="black" fill="transparent"/>
	<path d = "M 253.12 147.66 L 255.47 91.41 L 271.88 44.53 L 285.94 25.78 L 328.12 2.34 L 405.47 7.03 L 438.28 21.09 L 450.00 35.16 L 454.69 60.94 L 435.94 86.72 L 450.00 89.06 L 468.75 112.50 L 480.47 150.00 L 473.44 166.41 L 445.31 187.50 L 386.72 210.94" stroke="black" fill="transparent"/>
	<path d = "M 234.38 135.94 L 227.34 138.28 L 213.28 161.72 L 210.94 194.53 L 232.03 213.28 L 269.53 222.66" stroke="black" fill="transparent"/>
	<path d = "M 363.28 128.91 L 353.91 152.34 L 349.22 241.41 L 367.97 342.19" stroke="black" fill="transparent"/>
	<path d = "M 93.75 72.66 L 89.06 185.16 L 100.78 243.75 L 140.62 335.16 L 164.06 367.97" stroke="black" fill="transparent"/>
	<path d = "M 454.69 389.06 L 461.72 292.97 L 487.50 171.09" stroke="black" fill="transparent"/>
	<path d = "M 517.97 377.34 L 508.59 292.97 L 510.94 196.88" stroke="black" fill="transparent"/>
	<path d = "M 457.03 210.94 L 440.62 203.91 L 433.59 180.47 L 428.91 124.22 L 438.28 93.75 L 454.69 86.72 L 478.12 91.41 L 482.81 110.16 L 475.78 107.81 L 466.41 82.03 L 468.75 51.56 L 478.12 35.16 L 510.94 28.12 L 548.44 51.56 L 576.56 93.75 L 585.94 142.97 L 583.59 187.50 L 548.44 243.75 L 555.47 229.69 L 574.22 225.00 L 590.62 236.72 L 597.66 255.47 L 590.62 281.25 L 548.44 304.69" stroke="black" fill="transparent"/>
</svg>