<?xml version="1.0" encoding="UTF-8" standalone="no"?>
<!--Created with ndjsontosvg (https:https://github.com/thompson318/ndjsontosvg) 
	from the simplified Google quickdraw data set. key_id = 5534743451926528-->
<svg width="600" height="600"
	xmlns="http://www.w3.org/2000/svg">
	xmlns:ndjsontosvg="https://github.com/thompson318/ndjsontosvg"
	xmlns:quickdraw="https://quickdraw.withgoogle.com/data"
	xmlns:scikit-surgery="https://doi.org/10.1007/s11548-020-02180-5">

	<rect width="100%" height="100%" fill="white" />
	<path d = "M 534.38 332.81 L 475.78 342.19 L 464.06 375.00 L 466.41 400.78 L 525.00 417.19 L 550.78 398.44 L 560.16 370.31 L 562.50 332.81 L 557.81 325.78 L 543.75 323.44 L 517.97 332.81" stroke="black" fill="transparent"/>
	<path d = "M 550.78 389.06 L 590.62 297.66 L 597.66 264.84 L 592.97 236.72 L 557.81 203.91 L 457.03 171.09 L 311.72 168.75 L 262.50 192.19 L 248.44 213.28" stroke="black" fill="transparent"/>
	<path d = "M 466.41 363.28 L 466.41 335.16 L 480.47 290.62 L 480.47 246.09 L 475.78 225.00 L 459.38 206.25 L 382.03 187.50 L 278.91 187.50 L 260.16 194.53" stroke="black" fill="transparent"/>
	<path d = "M 260.16 194.53 L 248.44 203.91 L 241.41 227.34 L 243.75 264.84 L 255.47 285.94 L 297.66 307.03 L 356.25 309.38 L 412.50 290.62 L 503.91 232.03 L 522.66 199.22 L 522.66 178.12 L 508.59 161.72 L 428.91 135.94 L 332.81 135.94 L 267.19 164.06 L 248.44 210.94 L 248.44 241.41 L 276.56 281.25 L 318.75 304.69 L 414.84 304.69 L 466.41 283.59 L 515.62 246.09 L 543.75 199.22 L 543.75 175.78 L 534.38 161.72 L 450.00 142.97 L 314.06 142.97 L 269.53 159.38 L 255.47 185.16 L 253.12 220.31 L 271.88 236.72 L 314.06 246.09 L 377.34 246.09 L 426.56 220.31 L 442.97 196.88 L 442.97 171.09" stroke="black" fill="transparent"/>
	<path d = "M 323.44 152.34 L 307.03 98.44 L 276.56 67.97 L 194.53 51.56 L 93.75 49.22 L 70.31 58.59" stroke="black" fill="transparent"/>
	<path d = "M 398.44 126.56 L 330.47 53.91 L 253.12 23.44 L 114.84 0.00 L 11.72 0.00 L 2.34 4.69 L 0.00 14.06" stroke="black" fill="transparent"/>
</svg>