<?xml version="1.0" encoding="UTF-8" standalone="no"?>
<!--Created with ndjsontosvg (https:https://github.com/thompson318/ndjsontosvg) 
	from the simplified Google quickdraw data set. key_id = 5972652495732736-->
<svg width="600" height="600"
	xmlns="http://www.w3.org/2000/svg">
	xmlns:ndjsontosvg="https://github.com/thompson318/ndjsontosvg"
	xmlns:quickdraw="https://quickdraw.withgoogle.com/data"
	xmlns:scikit-surgery="https://doi.org/10.1007/s11548-020-02180-5">

	<rect width="100%" height="100%" fill="white" />
	<path d = "M 37.50 25.78 L 150.00 42.19 L 297.66 37.50 L 325.78 44.53 L 342.19 65.62 L 351.56 105.47 L 342.19 124.22 L 314.06 138.28 L 269.53 145.31 L 4.69 159.38 L 0.00 142.97 L 7.03 100.78 L 58.59 39.84" stroke="black" fill="transparent"/>
	<path d = "M 393.75 112.50 L 379.69 107.81 L 400.78 72.66 L 290.62 98.44 L 318.75 72.66 L 424.22 11.72 L 480.47 2.34 L 405.47 53.91 L 480.47 30.47 L 475.78 39.84 L 501.56 42.19 L 506.25 60.94 L 555.47 60.94 L 471.09 89.06 L 569.53 67.97 L 496.88 103.12 L 595.31 79.69 L 520.31 105.47 L 569.53 75.00 L 513.28 89.06 L 574.22 53.91 L 527.34 70.31 L 499.22 75.00 L 499.22 70.31 L 564.84 9.38 L 513.28 28.12 L 475.78 32.81 L 525.00 0.00 L 424.22 42.19 L 487.50 11.72 L 391.41 53.91 L 466.41 32.81 L 597.66 11.72 L 499.22 70.31 L 550.78 58.59 L 447.66 98.44 L 548.44 82.03 L 494.53 107.81 L 557.81 91.41 L 510.94 110.16 L 590.62 70.31 L 536.72 75.00 L 522.66 84.38 L 567.19 65.62 L 520.31 72.66" stroke="black" fill="transparent"/>
</svg>