<?xml version="1.0" encoding="UTF-8" standalone="no"?>
<!--Created with ndjsontosvg (https:https://github.com/thompson318/ndjsontosvg) 
	from the simplified Google quickdraw data set. key_id = 6159834384695296-->
<svg width="600" height="600"
	xmlns="http://www.w3.org/2000/svg">
	xmlns:ndjsontosvg="https://github.com/thompson318/ndjsontosvg"
	xmlns:quickdraw="https://quickdraw.withgoogle.com/data"
	xmlns:scikit-surgery="https://doi.org/10.1007/s11548-020-02180-5">

	<rect width="100%" height="100%" fill="white" />
	<path d = "M 142.97 35.16 L 100.78 63.28 L 67.97 103.12 L 65.62 124.22 L 84.38 206.25 L 117.19 222.66 L 147.66 222.66 L 180.47 201.56 L 213.28 166.41 L 213.28 131.25 L 185.16 63.28 L 166.41 49.22 L 133.59 58.59" stroke="black" fill="transparent"/>
	<path d = "M 161.72 58.59 L 150.00 138.28" stroke="black" fill="transparent"/>
	<path d = "M 161.72 154.69 L 124.22 135.94 L 63.28 133.59" stroke="black" fill="transparent"/>
	<path d = "M 135.94 135.94 L 227.34 131.25" stroke="black" fill="transparent"/>
	<path d = "M 154.69 168.75 L 82.03 241.41 L 96.09 234.38" stroke="black" fill="transparent"/>
	<path d = "M 178.12 154.69 L 206.25 199.22" stroke="black" fill="transparent"/>
	<path d = "M 178.12 35.16 L 145.31 25.78 L 112.50 35.16 L 79.69 58.59 L 56.25 93.75 L 49.22 117.19 L 51.56 182.81 L 56.25 229.69 L 67.97 255.47 L 93.75 281.25 L 117.19 295.31 L 166.41 292.97 L 248.44 241.41 L 278.91 187.50 L 285.94 157.03 L 281.25 121.88 L 241.41 49.22 L 215.62 28.12 L 185.16 14.06 L 133.59 7.03 L 98.44 11.72 L 42.19 58.59 L 30.47 107.81 L 28.12 187.50 L 39.84 234.38 L 58.59 264.84 L 86.72 285.94 L 135.94 295.31 L 201.56 274.22 L 264.84 213.28 L 285.94 182.81 L 304.69 133.59 L 290.62 84.38 L 260.16 39.84 L 206.25 9.38 L 135.94 0.00 L 82.03 14.06 L 37.50 42.19 L 9.38 84.38 L 0.00 117.19 L 7.03 159.38 L 28.12 210.94 L 53.91 246.09 L 98.44 281.25 L 182.81 309.38 L 229.69 304.69 L 292.97 260.16 L 403.12 131.25 L 435.94 107.81 L 468.75 100.78 L 489.84 103.12 L 522.66 154.69 L 503.91 178.12 L 499.22 208.59 L 529.69 246.09 L 548.44 281.25 L 564.84 290.62 L 597.66 255.47" stroke="black" fill="transparent"/>
</svg>