<?xml version="1.0" encoding="UTF-8" standalone="no"?>
<!--Created with ndjsontosvg (https:https://github.com/thompson318/ndjsontosvg) 
	from the simplified Google quickdraw data set. key_id = 4881328015147008-->
<svg width="600" height="600"
	xmlns="http://www.w3.org/2000/svg">
	xmlns:ndjsontosvg="https://github.com/thompson318/ndjsontosvg"
	xmlns:quickdraw="https://quickdraw.withgoogle.com/data"
	xmlns:scikit-surgery="https://doi.org/10.1007/s11548-020-02180-5">

	<rect width="100%" height="100%" fill="white" />
	<path d = "M 597.66 0.00 L 585.94 63.28 L 555.47 119.53 L 520.31 150.00 L 464.06 182.81 L 433.59 187.50 L 398.44 175.78 L 335.16 145.31 L 271.88 96.09 L 217.97 77.34 L 150.00 72.66 L 117.19 79.69 L 49.22 117.19 L 16.41 164.06 L 0.00 232.03 L 0.00 257.81 L 21.09 292.97 L 79.69 337.50 L 147.66 372.66 L 168.75 377.34 L 227.34 370.31 L 250.78 360.94 L 281.25 332.81 L 297.66 239.06 L 295.31 213.28 L 250.78 171.09 L 157.03 138.28 L 133.59 138.28 L 100.78 187.50 L 100.78 248.44 L 124.22 276.56 L 152.34 288.28 L 173.44 288.28 L 241.41 236.72 L 227.34 215.62 L 199.22 201.56 L 175.78 199.22" stroke="black" fill="transparent"/>
</svg>