<?xml version="1.0" encoding="UTF-8" standalone="no"?>
<!--Created with ndjsontosvg (https:https://github.com/thompson318/ndjsontosvg) 
	from the simplified Google quickdraw data set. key_id = 6680224202752000-->
<svg width="600" height="600"
	xmlns="http://www.w3.org/2000/svg">
	xmlns:ndjsontosvg="https://github.com/thompson318/ndjsontosvg"
	xmlns:quickdraw="https://quickdraw.withgoogle.com/data"
	xmlns:scikit-surgery="https://doi.org/10.1007/s11548-020-02180-5">

	<rect width="100%" height="100%" fill="white" />
	<path d = "M 72.66 164.06 L 67.97 187.50 L 82.03 203.91 L 100.78 199.22 L 119.53 178.12 L 119.53 171.09 L 89.06 166.41" stroke="black" fill="transparent"/>
	<path d = "M 49.22 159.38 L 32.81 138.28 L 32.81 119.53 L 65.62 84.38 L 89.06 96.09 L 98.44 110.16 L 96.09 124.22 L 110.16 107.81 L 138.28 98.44 L 150.00 114.84 L 147.66 138.28 L 192.19 131.25 L 199.22 150.00 L 182.81 178.12 L 206.25 187.50 L 215.62 208.59 L 215.62 225.00 L 173.44 236.72 L 135.94 232.03 L 126.56 222.66" stroke="black" fill="transparent"/>
	<path d = "M 49.22 168.75 L 14.06 168.75 L 2.34 182.81 L 0.00 203.91 L 9.38 215.62 L 28.12 215.62 L 60.94 196.88 L 65.62 206.25 L 63.28 243.75 L 89.06 241.41 L 128.91 257.81 L 171.09 239.06 L 203.91 210.94" stroke="black" fill="transparent"/>
	<path d = "M 119.53 255.47 L 128.91 367.97" stroke="black" fill="transparent"/>
	<path d = "M 506.25 56.25 L 494.53 56.25 L 482.81 75.00 L 482.81 86.72 L 496.88 89.06 L 527.34 63.28 L 513.28 56.25" stroke="black" fill="transparent"/>
	<path d = "M 442.97 63.28 L 431.25 53.91 L 431.25 18.75 L 440.62 2.34 L 464.06 0.00 L 473.44 21.09 L 510.94 4.69 L 548.44 16.41 L 583.59 42.19 L 588.28 67.97" stroke="black" fill="transparent"/>
	<path d = "M 431.25 67.97 L 412.50 72.66 L 400.78 96.09 L 393.75 126.56 L 403.12 133.59 L 459.38 117.19 L 466.41 124.22 L 468.75 142.97 L 503.91 126.56 L 539.06 140.62 L 581.25 126.56 L 597.66 93.75" stroke="black" fill="transparent"/>
	<path d = "M 487.50 133.59 L 499.22 274.22" stroke="black" fill="transparent"/>
</svg>