<?xml version="1.0" encoding="UTF-8" standalone="no"?>
<!--Created with ndjsontosvg (https:https://github.com/thompson318/ndjsontosvg) 
	from the simplified Google quickdraw data set. key_id = 6502756758061056-->
<svg width="600" height="600"
	xmlns="http://www.w3.org/2000/svg">
	xmlns:ndjsontosvg="https://github.com/thompson318/ndjsontosvg"
	xmlns:quickdraw="https://quickdraw.withgoogle.com/data"
	xmlns:scikit-surgery="https://doi.org/10.1007/s11548-020-02180-5">

	<rect width="100%" height="100%" fill="white" />
	<path d = "M 0.00 457.03 L 187.50 447.66 L 564.84 452.34 L 597.66 440.62" stroke="black" fill="transparent"/>
	<path d = "M 119.53 438.28 L 103.12 323.44 L 103.12 250.78 L 107.81 225.00 L 121.88 213.28" stroke="black" fill="transparent"/>
	<path d = "M 182.81 447.66 L 171.09 382.03 L 168.75 215.62" stroke="black" fill="transparent"/>
	<path d = "M 117.19 220.31 L 98.44 213.28 L 65.62 229.69 L 39.84 232.03 L 30.47 217.97 L 21.09 175.78 L 30.47 135.94 L 63.28 112.50 L 44.53 107.81 L 39.84 96.09 L 46.88 58.59 L 89.06 21.09 L 135.94 0.00 L 154.69 0.00 L 150.00 35.16 L 217.97 42.19 L 210.94 124.22 L 255.47 142.97 L 257.81 166.41 L 236.72 213.28 L 215.62 225.00 L 196.88 225.00 L 171.09 185.16" stroke="black" fill="transparent"/>
	<path d = "M 363.28 379.69 L 360.94 445.31 L 367.97 454.69" stroke="black" fill="transparent"/>
	<path d = "M 407.81 382.03 L 398.44 442.97" stroke="black" fill="transparent"/>
	<path d = "M 360.94 370.31 L 344.53 389.06 L 321.09 386.72 L 302.34 342.19 L 307.03 323.44 L 346.88 344.53 L 370.31 316.41 L 414.84 309.38 L 421.88 316.41 L 421.88 330.47 L 450.00 328.12 L 452.34 342.19 L 433.59 358.59 L 412.50 360.94" stroke="black" fill="transparent"/>
</svg>