<?xml version="1.0" encoding="UTF-8" standalone="no"?>
<!--Created with ndjsontosvg (https:https://github.com/thompson318/ndjsontosvg) 
	from the simplified Google quickdraw data set. key_id = 6118546981519360-->
<svg width="600" height="600"
	xmlns="http://www.w3.org/2000/svg">
	xmlns:ndjsontosvg="https://github.com/thompson318/ndjsontosvg"
	xmlns:quickdraw="https://quickdraw.withgoogle.com/data"
	xmlns:scikit-surgery="https://doi.org/10.1007/s11548-020-02180-5">

	<rect width="100%" height="100%" fill="white" />
	<path d = "M 328.12 332.81 L 405.47 332.81 L 482.81 307.03 L 529.69 257.81 L 581.25 178.12 L 592.97 154.69 L 597.66 112.50 L 595.31 86.72 L 583.59 60.94 L 560.16 30.47 L 489.84 2.34 L 356.25 0.00 L 283.59 11.72 L 234.38 44.53 L 189.84 107.81 L 173.44 168.75 L 203.91 227.34 L 246.09 257.81 L 328.12 271.88 L 426.56 243.75 L 461.72 203.91 L 492.19 157.03 L 501.56 124.22 L 496.88 100.78 L 480.47 72.66 L 398.44 46.88 L 332.81 49.22 L 285.94 70.31 L 274.22 84.38 L 260.16 157.03 L 271.88 180.47 L 292.97 192.19 L 349.22 201.56 L 356.25 196.88 L 358.59 178.12 L 316.41 157.03 L 304.69 133.59 L 304.69 114.84 L 321.09 82.03 L 351.56 70.31 L 377.34 72.66 L 403.12 93.75 L 414.84 133.59 L 405.47 203.91 L 382.03 239.06 L 363.28 248.44 L 304.69 248.44 L 243.75 234.38 L 217.97 215.62 L 234.38 107.81 L 248.44 72.66 L 276.56 63.28 L 473.44 30.47 L 513.28 35.16 L 532.03 53.91 L 520.31 199.22 L 503.91 255.47 L 475.78 276.56 L 318.75 297.66 L 309.38 309.38 L 323.44 332.81" stroke="black" fill="transparent"/>
	<path d = "M 363.28 178.12 L 379.69 178.12 L 396.09 194.53 L 356.25 210.94 L 356.25 201.56" stroke="black" fill="transparent"/>
	<path d = "M 0.00 255.47 L 14.06 264.84 L 70.31 269.53" stroke="black" fill="transparent"/>
	<path d = "M 2.34 210.94 L 18.75 236.72" stroke="black" fill="transparent"/>
	<path d = "M 67.97 213.28 L 79.69 234.38" stroke="black" fill="transparent"/>
</svg>