<?xml version="1.0" encoding="UTF-8" standalone="no"?>
<!--Created with ndjsontosvg (https:https://github.com/thompson318/ndjsontosvg) 
	from the simplified Google quickdraw data set. key_id = 5308058320240640-->
<svg width="600" height="600"
	xmlns="http://www.w3.org/2000/svg">
	xmlns:ndjsontosvg="https://github.com/thompson318/ndjsontosvg"
	xmlns:quickdraw="https://quickdraw.withgoogle.com/data"
	xmlns:scikit-surgery="https://doi.org/10.1007/s11548-020-02180-5">

	<rect width="100%" height="100%" fill="white" />
	<path d = "M 182.81 323.44 L 201.56 182.81 L 187.50 133.59 L 154.69 82.03 L 152.34 58.59 L 157.03 46.88 L 168.75 46.88 L 196.88 96.09 L 185.16 30.47 L 201.56 0.00 L 206.25 46.88 L 215.62 37.50 L 225.00 56.25 L 213.28 72.66 L 215.62 77.34 L 257.81 63.28 L 292.97 63.28 L 323.44 84.38 L 335.16 107.81 L 325.78 128.91 L 278.91 142.97 L 269.53 164.06 L 269.53 302.34 L 283.59 464.06 L 283.59 569.53 L 276.56 595.31 L 232.03 597.66 L 232.03 536.72 L 220.31 595.31 L 171.09 595.31 L 159.38 510.94 L 157.03 560.16 L 133.59 590.62 L 77.34 595.31 L 67.97 557.81 L 72.66 527.34 L 60.94 590.62 L 25.78 595.31 L 11.72 583.59 L 0.00 546.09 L 4.69 384.38 L 18.75 330.47 L 72.66 297.66 L 152.34 302.34 L 192.19 318.75" stroke="black" fill="transparent"/>
</svg>