<?xml version="1.0" encoding="UTF-8" standalone="no"?>
<!--Created with ndjsontosvg (https:https://github.com/thompson318/ndjsontosvg) 
	from the simplified Google quickdraw data set. key_id = 6255853109772288-->
<svg width="600" height="600"
	xmlns="http://www.w3.org/2000/svg">
	xmlns:ndjsontosvg="https://github.com/thompson318/ndjsontosvg"
	xmlns:quickdraw="https://quickdraw.withgoogle.com/data"
	xmlns:scikit-surgery="https://doi.org/10.1007/s11548-020-02180-5">

	<rect width="100%" height="100%" fill="white" />
	<path d = "M 485.16 0.00 L 360.94 150.00" stroke="black" fill="transparent"/>
	<path d = "M 342.19 86.72 L 365.62 145.31" stroke="black" fill="transparent"/>
	<path d = "M 400.78 112.50 L 405.47 171.09" stroke="black" fill="transparent"/>
	<path d = "M 398.44 28.12 L 417.19 86.72" stroke="black" fill="transparent"/>
	<path d = "M 445.31 2.34 L 459.38 42.19" stroke="black" fill="transparent"/>
	<path d = "M 442.97 60.94 L 457.03 100.78" stroke="black" fill="transparent"/>
	<path d = "M 349.22 150.00 L 307.03 133.59 L 276.56 140.62 L 257.81 171.09 L 253.12 229.69 L 260.16 243.75 L 285.94 248.44 L 330.47 246.09 L 363.28 213.28 L 375.00 185.16 L 375.00 161.72 L 365.62 150.00 L 323.44 135.94" stroke="black" fill="transparent"/>
	<path d = "M 260.16 246.09 L 246.09 278.91 L 246.09 339.84 L 217.97 405.47 L 182.81 445.31 L 152.34 464.06 L 89.06 478.12 L 30.47 480.47 L 2.34 539.06 L 2.34 590.62" stroke="black" fill="transparent"/>
	<path d = "M 117.19 480.47 L 145.31 597.66" stroke="black" fill="transparent"/>
	<path d = "M 227.34 419.53 L 217.97 424.22 L 220.31 431.25 L 262.50 597.66" stroke="black" fill="transparent"/>
	<path d = "M 276.56 189.84 L 281.25 180.47 L 290.62 189.84 L 281.25 196.88" stroke="black" fill="transparent"/>
	<path d = "M 304.69 171.09 L 316.41 166.41 L 314.06 180.47 L 309.38 164.06" stroke="black" fill="transparent"/>
	<path d = "M 311.72 213.28 L 300.00 220.31" stroke="black" fill="transparent"/>
</svg>