<?xml version="1.0" encoding="UTF-8" standalone="no"?>
<!--Created with ndjsontosvg (https:https://github.com/thompson318/ndjsontosvg) 
	from the simplified Google quickdraw data set. key_id = 5924996075487232-->
<svg width="600" height="600"
	xmlns="http://www.w3.org/2000/svg">
	xmlns:ndjsontosvg="https://github.com/thompson318/ndjsontosvg"
	xmlns:quickdraw="https://quickdraw.withgoogle.com/data"
	xmlns:scikit-surgery="https://doi.org/10.1007/s11548-020-02180-5">

	<rect width="100%" height="100%" fill="white" />
	<path d = "M 0.00 450.00 L 9.38 578.91 L 14.06 592.97 L 25.78 597.66 L 82.03 588.28 L 67.97 517.97 L 65.62 457.03 L 77.34 454.69 L 154.69 464.06 L 166.41 510.94 L 171.09 576.56 L 264.84 562.50 L 271.88 548.44 L 262.50 433.59" stroke="black" fill="transparent"/>
	<path d = "M 262.50 433.59 L 260.16 328.12 L 300.00 274.22 L 309.38 199.22 L 323.44 185.16 L 365.62 89.06" stroke="black" fill="transparent"/>
	<path d = "M 365.62 89.06 L 407.81 91.41 L 440.62 77.34 L 459.38 37.50 L 459.38 23.44 L 445.31 9.38 L 391.41 0.00 L 370.31 7.03" stroke="black" fill="transparent"/>
</svg>