<?xml version="1.0" encoding="UTF-8" standalone="no"?>
<!--Created with ndjsontosvg (https:https://github.com/thompson318/ndjsontosvg) 
	from the simplified Google quickdraw data set. key_id = 5126517631746048-->
<svg width="600" height="600"
	xmlns="http://www.w3.org/2000/svg">
	xmlns:ndjsontosvg="https://github.com/thompson318/ndjsontosvg"
	xmlns:quickdraw="https://quickdraw.withgoogle.com/data"
	xmlns:scikit-surgery="https://doi.org/10.1007/s11548-020-02180-5">

	<rect width="100%" height="100%" fill="white" />
	<path d = "M 28.12 217.97 L 0.00 337.50 L 0.00 457.03 L 32.81 590.62 L 53.91 595.31 L 91.41 571.88 L 98.44 536.72 L 105.47 403.12 L 117.19 386.72 L 145.31 384.38 L 182.81 389.06 L 192.19 396.09 L 208.59 482.81 L 217.97 590.62 L 248.44 597.66 L 271.88 590.62 L 281.25 567.19 L 281.25 522.66 L 271.88 386.72 L 285.94 377.34 L 349.22 377.34 L 356.25 372.66 L 363.28 342.19 L 342.19 2.34 L 297.66 2.34 L 283.59 16.41 L 281.25 110.16 L 295.31 152.34 L 276.56 199.22 L 234.38 206.25 L 79.69 201.56 L 37.50 210.94" stroke="black" fill="transparent"/>
</svg>