<?xml version="1.0" encoding="UTF-8" standalone="no"?>
<!--Created with ndjsontosvg (https:https://github.com/thompson318/ndjsontosvg) 
	from the simplified Google quickdraw data set. key_id = 4798480314793984-->
<svg width="600" height="600"
	xmlns="http://www.w3.org/2000/svg">
	xmlns:ndjsontosvg="https://github.com/thompson318/ndjsontosvg"
	xmlns:quickdraw="https://quickdraw.withgoogle.com/data"
	xmlns:scikit-surgery="https://doi.org/10.1007/s11548-020-02180-5">

	<rect width="100%" height="100%" fill="white" />
	<path d = "M 454.69 302.34 L 440.62 283.59 L 419.53 278.91 L 295.31 276.56 L 194.53 257.81 L 135.94 257.81 L 135.94 89.06 L 121.88 4.69 L 32.81 0.00 L 11.72 23.44 L 0.00 67.97 L 23.44 105.47 L 72.66 117.19 L 51.56 234.38 L 56.25 342.19 L 65.62 367.97 L 100.78 391.41 L 208.59 428.91 L 264.84 438.28 L 367.97 438.28 L 431.25 410.16 L 471.09 370.31 L 473.44 337.50 L 442.97 290.62" stroke="black" fill="transparent"/>
	<path d = "M 135.94 414.84 L 126.56 597.66 L 199.22 590.62 L 206.25 421.88" stroke="black" fill="transparent"/>
	<path d = "M 318.75 414.84 L 318.75 550.78 L 386.72 550.78 L 398.44 464.06 L 393.75 435.94" stroke="black" fill="transparent"/>
</svg>