<?xml version="1.0" encoding="UTF-8" standalone="no"?>
<!--Created with ndjsontosvg (https:https://github.com/thompson318/ndjsontosvg) 
	from the simplified Google quickdraw data set. key_id = 6732907425038336-->
<svg width="600" height="600"
	xmlns="http://www.w3.org/2000/svg">
	xmlns:ndjsontosvg="https://github.com/thompson318/ndjsontosvg"
	xmlns:quickdraw="https://quickdraw.withgoogle.com/data"
	xmlns:scikit-surgery="https://doi.org/10.1007/s11548-020-02180-5">

	<rect width="100%" height="100%" fill="white" />
	<path d = "M 119.53 494.53 L 121.88 571.88 L 135.94 590.62 L 175.78 592.97 L 180.47 492.19 L 199.22 485.16 L 206.25 590.62 L 215.62 597.66 L 236.72 597.66 L 248.44 590.62 L 255.47 569.53 L 243.75 527.34 L 243.75 489.84 L 253.12 480.47 L 342.19 473.44 L 363.28 480.47 L 384.38 508.59 L 372.66 550.78 L 377.34 560.16 L 400.78 578.91 L 421.88 581.25 L 431.25 562.50 L 428.91 482.81 L 450.00 473.44 L 459.38 480.47 L 461.72 489.84 L 445.31 513.28 L 450.00 564.84 L 466.41 588.28 L 496.88 592.97 L 508.59 588.28 L 522.66 557.81 L 520.31 466.41 L 487.50 398.44 L 457.03 358.59 L 424.22 342.19 L 243.75 339.84 L 140.62 351.56 L 110.16 342.19 L 67.97 257.81 L 28.12 70.31 L 0.00 0.00" stroke="black" fill="transparent"/>
	<path d = "M 124.22 475.78 L 119.53 431.25 L 65.62 353.91 L 23.44 239.06 L 7.03 161.72" stroke="black" fill="transparent"/>
</svg>