<?xml version="1.0" encoding="UTF-8" standalone="no"?>
<!--Created with ndjsontosvg (https:https://github.com/thompson318/ndjsontosvg) 
	from the simplified Google quickdraw data set. key_id = 4955375012937728-->
<svg width="600" height="600"
	xmlns="http://www.w3.org/2000/svg">
	xmlns:ndjsontosvg="https://github.com/thompson318/ndjsontosvg"
	xmlns:quickdraw="https://quickdraw.withgoogle.com/data"
	xmlns:scikit-surgery="https://doi.org/10.1007/s11548-020-02180-5">

	<rect width="100%" height="100%" fill="white" />
	<path d = "M 269.53 60.94 L 321.09 39.84" stroke="black" fill="transparent"/>
	<path d = "M 58.59 98.44 L 37.50 93.75 L 28.12 100.78 L 25.78 159.38 L 0.00 187.50 L 7.03 203.91 L 39.84 208.59" stroke="black" fill="transparent"/>
	<path d = "M 63.28 82.03 L 63.28 51.56" stroke="black" fill="transparent"/>
	<path d = "M 70.31 0.00 L 51.56 7.03 L 49.22 14.06 L 70.31 28.12 L 56.25 11.72" stroke="black" fill="transparent"/>
	<path d = "M 75.00 93.75 L 119.53 98.44 L 121.88 91.41" stroke="black" fill="transparent"/>
	<path d = "M 119.53 51.56 L 119.53 77.34" stroke="black" fill="transparent"/>
	<path d = "M 121.88 0.00 L 114.84 9.38 L 121.88 16.41 L 117.19 7.03" stroke="black" fill="transparent"/>
	<path d = "M 121.88 89.06 L 121.88 135.94 L 100.78 241.41 L 93.75 407.81" stroke="black" fill="transparent"/>
	<path d = "M 105.47 396.09 L 201.56 405.47 L 260.16 424.22 L 271.88 466.41 L 262.50 562.50 L 267.19 597.66 L 241.41 592.97 L 225.00 553.12 L 225.00 487.50" stroke="black" fill="transparent"/>
</svg>