<?xml version="1.0" encoding="UTF-8" standalone="no"?>
<!--Created with ndjsontosvg (https:https://github.com/thompson318/ndjsontosvg) 
	from the simplified Google quickdraw data set. key_id = 5615307727044608-->
<svg width="600" height="600"
	xmlns="http://www.w3.org/2000/svg">
	xmlns:ndjsontosvg="https://github.com/thompson318/ndjsontosvg"
	xmlns:quickdraw="https://quickdraw.withgoogle.com/data"
	xmlns:scikit-surgery="https://doi.org/10.1007/s11548-020-02180-5">

	<rect width="100%" height="100%" fill="white" />
	<path d = "M 0.00 51.56 L 21.09 84.38 L 79.69 210.94 L 103.12 290.62 L 119.53 307.03 L 145.31 318.75 L 194.53 318.75 L 213.28 316.41 L 243.75 288.28 L 281.25 213.28 L 304.69 112.50 L 316.41 14.06" stroke="black" fill="transparent"/>
	<path d = "M 67.97 267.19 L 77.34 295.31 L 89.06 450.00 L 103.12 417.19 L 110.16 339.84 L 117.19 382.03 L 119.53 539.06 L 142.97 417.19 L 157.03 384.38 L 159.38 553.12 L 154.69 597.66 L 154.69 562.50 L 185.16 459.38 L 194.53 485.16 L 201.56 555.47 L 269.53 271.88 L 274.22 260.16 L 285.94 257.81" stroke="black" fill="transparent"/>
	<path d = "M 65.62 28.12 L 67.97 14.06 L 89.06 4.69 L 112.50 11.72 L 135.94 63.28" stroke="black" fill="transparent"/>
	<path d = "M 194.53 44.53 L 213.28 18.75 L 248.44 0.00 L 264.84 51.56" stroke="black" fill="transparent"/>
	<path d = "M 161.72 192.19 L 271.88 194.53" stroke="black" fill="transparent"/>
	<path d = "M 173.44 208.59 L 128.91 210.94" stroke="black" fill="transparent"/>
</svg>