<?xml version="1.0" encoding="UTF-8" standalone="no"?>
<!--Created with ndjsontosvg (https:https://github.com/thompson318/ndjsontosvg) 
	from the simplified Google quickdraw data set. key_id = 6712809557590016-->
<svg width="600" height="600"
	xmlns="http://www.w3.org/2000/svg">
	xmlns:ndjsontosvg="https://github.com/thompson318/ndjsontosvg"
	xmlns:quickdraw="https://quickdraw.withgoogle.com/data"
	xmlns:scikit-surgery="https://doi.org/10.1007/s11548-020-02180-5">

	<rect width="100%" height="100%" fill="white" />
	<path d = "M 119.53 382.03 L 9.38 175.78 L 0.00 100.78 L 7.03 72.66 L 121.88 11.72 L 213.28 0.00 L 321.09 7.03 L 414.84 53.91 L 438.28 117.19 L 440.62 192.19 L 410.16 269.53 L 360.94 328.12 L 274.22 400.78 L 227.34 461.72 L 215.62 466.41 L 182.81 442.97" stroke="black" fill="transparent"/>
	<path d = "M 110.16 337.50 L 138.28 386.72 L 199.22 419.53" stroke="black" fill="transparent"/>
	<path d = "M 159.38 396.09 L 154.69 433.59 L 157.03 391.41 L 145.31 335.16 L 128.91 396.09 L 126.56 452.34 L 72.66 337.50 L 100.78 543.75 L 112.50 384.38 L 138.28 482.81 L 142.97 412.50 L 152.34 384.38 L 154.69 508.59 L 154.69 461.72 L 168.75 410.16 L 185.16 541.41 L 185.16 450.00 L 192.19 414.84 L 201.56 435.94 L 201.56 529.69 L 225.00 454.69 L 239.06 539.06 L 269.53 424.22 L 295.31 597.66 L 295.31 485.16 L 302.34 426.56 L 302.34 527.34 L 285.94 398.44 L 283.59 428.91 L 264.84 351.56 L 250.78 433.59" stroke="black" fill="transparent"/>
</svg>