<?xml version="1.0" encoding="UTF-8" standalone="no"?>
<!--Created with ndjsontosvg (https:https://github.com/thompson318/ndjsontosvg) 
	from the simplified Google quickdraw data set. key_id = 5791729355587584-->
<svg width="600" height="600"
	xmlns="http://www.w3.org/2000/svg">
	xmlns:ndjsontosvg="https://github.com/thompson318/ndjsontosvg"
	xmlns:quickdraw="https://quickdraw.withgoogle.com/data"
	xmlns:scikit-surgery="https://doi.org/10.1007/s11548-020-02180-5">

	<rect width="100%" height="100%" fill="white" />
	<path d = "M 494.53 7.03 L 426.56 2.34 L 356.25 9.38 L 157.03 60.94 L 82.03 100.78 L 28.12 164.06 L 14.06 201.56 L 4.69 241.41 L 0.00 328.12 L 9.38 370.31 L 46.88 445.31 L 103.12 513.28 L 142.97 543.75 L 222.66 585.94 L 269.53 597.66 L 351.56 588.28 L 396.09 564.84 L 499.22 473.44 L 550.78 393.75 L 592.97 248.44 L 585.94 159.38 L 567.19 119.53 L 525.00 63.28 L 445.31 7.03 L 414.84 0.00 L 372.66 7.03" stroke="black" fill="transparent"/>
	<path d = "M 124.22 168.75 L 189.84 133.59 L 243.75 128.91 L 267.19 145.31 L 278.91 173.44" stroke="black" fill="transparent"/>
	<path d = "M 393.75 150.00 L 426.56 128.91 L 496.88 117.19 L 525.00 192.19" stroke="black" fill="transparent"/>
	<path d = "M 220.31 332.81 L 445.31 356.25 L 450.00 442.97 L 157.03 457.03 L 152.34 424.22 L 164.06 349.22 L 145.31 311.72 L 281.25 314.06" stroke="black" fill="transparent"/>
	<path d = "M 300.00 241.41 L 300.00 241.41" stroke="black" fill="transparent"/>
	<path d = "M 360.94 234.38 L 360.94 234.38" stroke="black" fill="transparent"/>
	<path d = "M 276.56 232.03 L 276.56 232.03" stroke="black" fill="transparent"/>
	<path d = "M 288.28 222.66 L 292.97 243.75 L 297.66 225.00 L 290.62 229.69" stroke="black" fill="transparent"/>
	<path d = "M 356.25 220.31 L 349.22 229.69" stroke="black" fill="transparent"/>
	<path d = "M 58.59 264.84 L 72.66 351.56 L 72.66 278.91 L 65.62 260.16 L 65.62 375.00 L 70.31 393.75 L 84.38 384.38 L 89.06 321.09" stroke="black" fill="transparent"/>
	<path d = "M 86.72 290.62 L 67.97 302.34 L 60.94 332.81 L 63.28 403.12 L 67.97 419.53 L 86.72 428.91 L 119.53 330.47 L 107.81 450.00 L 124.22 468.75 L 140.62 410.16 L 140.62 492.19 L 147.66 534.38 L 164.06 480.47 L 199.22 564.84 L 196.88 494.53 L 229.69 539.06 L 264.84 555.47 L 271.88 550.78 L 281.25 506.25 L 292.97 555.47 L 300.00 560.16 L 311.72 494.53 L 318.75 557.81 L 330.47 555.47" stroke="black" fill="transparent"/>
</svg>