<?xml version="1.0" encoding="UTF-8" standalone="no"?>
<!--Created with ndjsontosvg (https:https://github.com/thompson318/ndjsontosvg) 
	from the simplified Google quickdraw data set. key_id = 6675476430979072-->
<svg width="600" height="600"
	xmlns="http://www.w3.org/2000/svg">
	xmlns:ndjsontosvg="https://github.com/thompson318/ndjsontosvg"
	xmlns:quickdraw="https://quickdraw.withgoogle.com/data"
	xmlns:scikit-surgery="https://doi.org/10.1007/s11548-020-02180-5">

	<rect width="100%" height="100%" fill="white" />
	<path d = "M 7.03 222.66 L 0.00 281.25 L 4.69 375.00 L 18.75 417.19 L 35.16 438.28" stroke="black" fill="transparent"/>
	<path d = "M 337.50 213.28 L 339.84 407.81 L 330.47 431.25" stroke="black" fill="transparent"/>
	<path d = "M 42.19 412.50 L 25.78 466.41 L 23.44 543.75 L 82.03 438.28 L 77.34 532.03 L 84.38 536.72 L 112.50 482.81 L 121.88 440.62 L 112.50 529.69" stroke="black" fill="transparent"/>
	<path d = "M 63.28 461.72 L 63.28 532.03 L 86.72 574.22" stroke="black" fill="transparent"/>
	<path d = "M 150.00 508.59 L 157.03 529.69 L 154.69 583.59" stroke="black" fill="transparent"/>
	<path d = "M 175.78 466.41 L 178.12 585.94 L 175.78 592.97 L 173.44 590.62" stroke="black" fill="transparent"/>
	<path d = "M 201.56 480.47 L 213.28 499.22 L 217.97 597.66" stroke="black" fill="transparent"/>
	<path d = "M 236.72 480.47 L 253.12 515.62 L 260.16 555.47" stroke="black" fill="transparent"/>
	<path d = "M 297.66 457.03 L 300.00 517.97" stroke="black" fill="transparent"/>
	<path d = "M 330.47 431.25 L 330.47 557.81 L 321.09 578.91 L 288.28 592.97" stroke="black" fill="transparent"/>
	<path d = "M 107.81 248.44 L 107.81 248.44" stroke="black" fill="transparent"/>
	<path d = "M 96.09 246.09 L 93.75 267.19 L 91.41 250.78" stroke="black" fill="transparent"/>
	<path d = "M 232.03 250.78 L 232.03 271.88 L 222.66 262.50" stroke="black" fill="transparent"/>
	<path d = "M 11.72 210.94 L 16.41 196.88 L 44.53 168.75 L 86.72 147.66 L 152.34 135.94 L 232.03 131.25 L 300.00 178.12 L 330.47 220.31 L 342.19 253.12" stroke="black" fill="transparent"/>
	<path d = "M 91.41 133.59 L 96.09 44.53 L 110.16 0.00 L 124.22 142.97" stroke="black" fill="transparent"/>
	<path d = "M 243.75 133.59 L 276.56 32.81 L 281.25 112.50 L 269.53 171.09" stroke="black" fill="transparent"/>
</svg>