<?xml version="1.0" encoding="UTF-8" standalone="no"?>
<!--Created with ndjsontosvg (https:https://github.com/thompson318/ndjsontosvg) 
	from the simplified Google quickdraw data set. key_id = 4543631664873472-->
<svg width="600" height="600"
	xmlns="http://www.w3.org/2000/svg">
	xmlns:ndjsontosvg="https://github.com/thompson318/ndjsontosvg"
	xmlns:quickdraw="https://quickdraw.withgoogle.com/data"
	xmlns:scikit-surgery="https://doi.org/10.1007/s11548-020-02180-5">

	<rect width="100%" height="100%" fill="white" />
	<path d = "M 417.19 79.69 L 386.72 49.22 L 318.75 7.03 L 276.56 0.00 L 192.19 0.00 L 145.31 21.09 L 105.47 53.91 L 60.94 112.50 L 30.47 178.12 L 0.00 321.09 L 0.00 386.72 L 16.41 454.69 L 53.91 517.97 L 107.81 567.19 L 173.44 597.66 L 241.41 597.66 L 307.03 585.94 L 360.94 543.75 L 435.94 466.41 L 459.38 438.28 L 478.12 384.38 L 478.12 264.84 L 459.38 220.31 L 431.25 178.12 L 309.38 67.97" stroke="black" fill="transparent"/>
	<path d = "M 126.56 206.25 L 126.56 206.25" stroke="black" fill="transparent"/>
	<path d = "M 356.25 206.25 L 356.25 206.25" stroke="black" fill="transparent"/>
	<path d = "M 138.28 215.62 L 166.41 220.31 L 175.78 236.72 L 145.31 248.44" stroke="black" fill="transparent"/>
	<path d = "M 314.06 225.00 L 332.81 241.41 L 339.84 222.66 L 351.56 222.66" stroke="black" fill="transparent"/>
	<path d = "M 222.66 391.41 L 203.91 379.69 L 185.16 379.69 L 145.31 391.41 L 133.59 419.53 L 138.28 555.47 L 175.78 571.88 L 295.31 571.88 L 318.75 562.50 L 337.50 543.75 L 349.22 503.91 L 349.22 459.38 L 332.81 403.12 L 309.38 382.03 L 276.56 375.00" stroke="black" fill="transparent"/>
	<path d = "M 199.22 487.50 L 215.62 543.75 L 215.62 482.81 L 222.66 536.72 L 234.38 562.50 L 236.72 510.94 L 246.09 562.50 L 248.44 494.53 L 257.81 525.00 L 257.81 574.22 L 253.12 496.88" stroke="black" fill="transparent"/>
	<path d = "M 145.31 457.03 L 164.06 464.06 L 260.16 466.41" stroke="black" fill="transparent"/>
</svg>