<?xml version="1.0" encoding="UTF-8" standalone="no"?>
<!--Created with ndjsontosvg (https:https://github.com/thompson318/ndjsontosvg) 
	from the simplified Google quickdraw data set. key_id = 5683564467191808-->
<svg width="600" height="600"
	xmlns="http://www.w3.org/2000/svg">
	xmlns:ndjsontosvg="https://github.com/thompson318/ndjsontosvg"
	xmlns:quickdraw="https://quickdraw.withgoogle.com/data"
	xmlns:scikit-surgery="https://doi.org/10.1007/s11548-020-02180-5">

	<rect width="100%" height="100%" fill="white" />
	<path d = "M 16.41 208.59 L 30.47 253.12 L 79.69 264.84 L 192.19 278.91 L 203.91 178.12" stroke="black" fill="transparent"/>
	<path d = "M 234.38 182.81 L 210.94 417.19 L 189.84 489.84 L 173.44 503.91 L 152.34 379.69 L 142.97 534.38 L 140.62 539.06 L 133.59 541.41 L 119.53 522.66 L 93.75 403.12 L 84.38 424.22 L 77.34 517.97 L 91.41 459.38 L 91.41 576.56" stroke="black" fill="transparent"/>
	<path d = "M 84.38 597.66 L 84.38 475.78 L 72.66 585.94 L 63.28 541.41 L 63.28 468.75 L 58.59 461.72 L 51.56 471.09 L 35.16 517.97 L 25.78 513.28 L 7.03 281.25 L 4.69 398.44 L 0.00 375.00 L 7.03 201.56" stroke="black" fill="transparent"/>
	<path d = "M 18.75 248.44 L 11.72 128.91 L 23.44 93.75 L 49.22 75.00 L 89.06 63.28 L 161.72 60.94 L 208.59 77.34 L 222.66 89.06 L 229.69 117.19 L 234.38 189.84 L 229.69 232.03 L 220.31 253.12 L 206.25 262.50" stroke="black" fill="transparent"/>
	<path d = "M 51.56 91.41 L 44.53 0.00 L 67.97 84.38" stroke="black" fill="transparent"/>
</svg>