<?xml version="1.0" encoding="UTF-8" standalone="no"?>
<!--Created with ndjsontosvg (https:https://github.com/thompson318/ndjsontosvg) 
	from the simplified Google quickdraw data set. key_id = 6299610421133312-->
<svg width="600" height="600"
	xmlns="http://www.w3.org/2000/svg">
	xmlns:ndjsontosvg="https://github.com/thompson318/ndjsontosvg"
	xmlns:quickdraw="https://quickdraw.withgoogle.com/data"
	xmlns:scikit-surgery="https://doi.org/10.1007/s11548-020-02180-5">

	<rect width="100%" height="100%" fill="white" />
	<path d = "M 424.22 4.69 L 351.56 150.00 L 337.50 171.09 L 285.94 210.94" stroke="black" fill="transparent"/>
	<path d = "M 419.53 0.00 L 400.78 28.12 L 375.00 91.41 L 356.25 194.53 L 358.59 213.28 L 377.34 220.31 L 440.62 222.66" stroke="black" fill="transparent"/>
	<path d = "M 400.78 11.72 L 300.00 250.78 L 217.97 344.53 L 133.59 403.12" stroke="black" fill="transparent"/>
	<path d = "M 339.84 168.75 L 339.84 283.59 L 356.25 363.28 L 372.66 367.97" stroke="black" fill="transparent"/>
	<path d = "M 447.66 295.31 L 426.56 295.31 L 360.94 379.69 L 358.59 442.97 L 386.72 452.34 L 454.69 447.66 L 501.56 412.50 L 525.00 342.19 L 520.31 302.34 L 508.59 295.31" stroke="black" fill="transparent"/>
	<path d = "M 508.59 189.84 L 468.75 185.16 L 447.66 210.94 L 447.66 271.88 L 471.09 335.16 L 492.19 342.19 L 550.78 342.19 L 588.28 300.00 L 597.66 257.81 L 592.97 173.44 L 571.88 150.00 L 520.31 145.31" stroke="black" fill="transparent"/>
	<path d = "M 234.38 400.78 L 185.16 403.12 L 142.97 447.66 L 128.91 475.78 L 126.56 546.09 L 173.44 560.16 L 255.47 569.53 L 311.72 569.53 L 330.47 548.44 L 351.56 442.97 L 346.88 405.47 L 302.34 386.72 L 222.66 391.41" stroke="black" fill="transparent"/>
	<path d = "M 318.75 278.91 L 269.53 414.84" stroke="black" fill="transparent"/>
	<path d = "M 185.16 339.84 L 84.38 335.16 L 39.84 356.25 L 21.09 377.34 L 4.69 428.91 L 0.00 475.78 L 18.75 487.50 L 67.97 487.50" stroke="black" fill="transparent"/>
</svg>