<?xml version="1.0" encoding="UTF-8" standalone="no"?>
<!--Created with ndjsontosvg (https:https://github.com/thompson318/ndjsontosvg) 
	from the simplified Google quickdraw data set. key_id = 5854784370245632-->
<svg width="600" height="600"
	xmlns="http://www.w3.org/2000/svg">
	xmlns:ndjsontosvg="https://github.com/thompson318/ndjsontosvg"
	xmlns:quickdraw="https://quickdraw.withgoogle.com/data"
	xmlns:scikit-surgery="https://doi.org/10.1007/s11548-020-02180-5">

	<rect width="100%" height="100%" fill="white" />
	<path d = "M 14.06 51.56 L 4.69 75.00 L 9.38 124.22 L 49.22 154.69 L 86.72 157.03 L 119.53 150.00 L 135.94 138.28 L 145.31 91.41 L 124.22 63.28 L 86.72 39.84 L 28.12 28.12 L 0.00 32.81" stroke="black" fill="transparent"/>
	<path d = "M 225.00 39.84 L 187.50 82.03 L 185.16 126.56 L 194.53 140.62 L 232.03 145.31 L 262.50 133.59 L 283.59 117.19 L 290.62 96.09 L 290.62 56.25 L 281.25 42.19 L 267.19 35.16 L 201.56 39.84 L 175.78 56.25" stroke="black" fill="transparent"/>
	<path d = "M 323.44 63.28 L 311.72 100.78 L 311.72 119.53 L 452.34 63.28 L 445.31 37.50 L 433.59 28.12 L 295.31 0.00 L 267.19 4.69 L 262.50 18.75" stroke="black" fill="transparent"/>
	<path d = "M 473.44 42.19 L 457.03 44.53 L 426.56 70.31 L 412.50 98.44 L 407.81 138.28 L 445.31 166.41 L 529.69 166.41 L 583.59 140.62 L 595.31 121.88 L 597.66 100.78 L 581.25 75.00" stroke="black" fill="transparent"/>
	<path d = "M 147.66 135.94 L 119.53 150.00 L 112.50 175.78 L 117.19 192.19 L 150.00 222.66 L 217.97 217.97 L 229.69 210.94 L 246.09 182.81 L 246.09 166.41 L 203.91 117.19 L 142.97 110.16" stroke="black" fill="transparent"/>
	<path d = "M 241.41 168.75 L 227.34 175.78 L 217.97 192.19 L 217.97 227.34 L 232.03 246.09 L 274.22 274.22 L 318.75 285.94 L 344.53 243.75 L 349.22 217.97 L 349.22 206.25 L 328.12 178.12 L 300.00 159.38 L 283.59 152.34 L 241.41 154.69" stroke="black" fill="transparent"/>
	<path d = "M 382.03 140.62 L 363.28 147.66 L 344.53 173.44 L 337.50 234.38 L 365.62 246.09 L 398.44 229.69 L 417.19 192.19 L 417.19 178.12 L 407.81 166.41" stroke="black" fill="transparent"/>
	<path d = "M 182.81 236.72 L 196.88 283.59 L 215.62 302.34 L 234.38 311.72 L 260.16 311.72 L 276.56 307.03 L 292.97 283.59 L 300.00 250.78 L 285.94 232.03 L 232.03 225.00" stroke="black" fill="transparent"/>
</svg>