<?xml version="1.0" encoding="UTF-8" standalone="no"?>
<!--Created with ndjsontosvg (https:https://github.com/thompson318/ndjsontosvg) 
	from the simplified Google quickdraw data set. key_id = 6205372815638528-->
<svg width="600" height="600"
	xmlns="http://www.w3.org/2000/svg">
	xmlns:ndjsontosvg="https://github.com/thompson318/ndjsontosvg"
	xmlns:quickdraw="https://quickdraw.withgoogle.com/data"
	xmlns:scikit-surgery="https://doi.org/10.1007/s11548-020-02180-5">

	<rect width="100%" height="100%" fill="white" />
	<path d = "M 32.81 110.16 L 11.72 117.19 L 0.00 138.28 L 0.00 239.06 L 18.75 255.47 L 72.66 264.84 L 72.66 121.88 L 56.25 77.34 L 28.12 72.66" stroke="black" fill="transparent"/>
	<path d = "M 124.22 44.53 L 110.16 60.94 L 105.47 138.28 L 157.03 239.06 L 171.09 290.62 L 194.53 302.34 L 215.62 300.00 L 225.00 250.78 L 222.66 46.88 L 208.59 23.44 L 154.69 0.00 L 138.28 4.69" stroke="black" fill="transparent"/>
	<path d = "M 433.59 84.38 L 309.38 84.38 L 307.03 114.84 L 339.84 215.62 L 353.91 236.72 L 393.75 257.81 L 417.19 257.81 L 428.91 234.38 L 428.91 140.62 L 407.81 79.69 L 384.38 39.84 L 344.53 28.12 L 311.72 25.78 L 302.34 53.91" stroke="black" fill="transparent"/>
	<path d = "M 597.66 77.34 L 485.16 84.38 L 450.00 105.47 L 433.59 128.91 L 433.59 206.25 L 447.66 236.72 L 499.22 288.28 L 536.72 285.94 L 543.75 262.50 L 543.75 208.59 L 513.28 121.88 L 452.34 25.78 L 428.91 14.06 L 405.47 14.06 L 379.69 28.12" stroke="black" fill="transparent"/>
	<path d = "M 267.19 46.88 L 248.44 86.72 L 248.44 196.88 L 262.50 234.38 L 278.91 246.09 L 297.66 248.44 L 309.38 225.00 L 309.38 173.44 L 269.53 110.16 L 269.53 91.41 L 260.16 72.66 L 243.75 70.31" stroke="black" fill="transparent"/>
	<path d = "M 84.38 290.62 L 84.38 316.41 L 110.16 367.97 L 157.03 405.47 L 175.78 403.12 L 189.84 382.03 L 189.84 356.25 L 171.09 318.75 L 152.34 307.03 L 131.25 302.34" stroke="black" fill="transparent"/>
	<path d = "M 295.31 328.12 L 250.78 328.12 L 234.38 344.53 L 222.66 407.81 L 248.44 433.59 L 264.84 438.28 L 288.28 433.59 L 307.03 405.47 L 314.06 377.34 L 314.06 316.41 L 295.31 300.00 L 274.22 300.00" stroke="black" fill="transparent"/>
	<path d = "M 405.47 300.00 L 386.72 300.00 L 363.28 314.06 L 349.22 335.16 L 339.84 379.69 L 339.84 421.88 L 346.88 440.62 L 367.97 438.28 L 375.00 382.03 L 375.00 241.41 L 372.66 222.66 L 353.91 225.00" stroke="black" fill="transparent"/>
</svg>