<?xml version="1.0" encoding="UTF-8" standalone="no"?>
<!--Created with ndjsontosvg (https:https://github.com/thompson318/ndjsontosvg) 
	from the simplified Google quickdraw data set. key_id = 5289809843060736-->
<svg width="600" height="600"
	xmlns="http://www.w3.org/2000/svg">
	xmlns:ndjsontosvg="https://github.com/thompson318/ndjsontosvg"
	xmlns:quickdraw="https://quickdraw.withgoogle.com/data"
	xmlns:scikit-surgery="https://doi.org/10.1007/s11548-020-02180-5">

	<rect width="100%" height="100%" fill="white" />
	<path d = "M 222.66 271.88 L 178.12 203.91 L 152.34 187.50 L 124.22 182.81 L 77.34 189.84 L 49.22 208.59 L 11.72 255.47 L 0.00 300.00 L 39.84 337.50 L 79.69 349.22 L 121.88 349.22 L 159.38 335.16 L 210.94 292.97 L 227.34 262.50 L 222.66 213.28 L 206.25 194.53 L 196.88 192.19" stroke="black" fill="transparent"/>
	<path d = "M 344.53 150.00 L 307.03 157.03 L 248.44 185.16 L 199.22 232.03 L 180.47 269.53 L 173.44 302.34 L 180.47 323.44 L 196.88 342.19 L 229.69 356.25 L 264.84 353.91 L 307.03 332.81 L 360.94 281.25 L 386.72 241.41 L 384.38 196.88 L 377.34 187.50 L 356.25 178.12 L 328.12 185.16" stroke="black" fill="transparent"/>
	<path d = "M 513.28 150.00 L 480.47 154.69 L 457.03 166.41 L 412.50 217.97 L 393.75 253.12 L 389.06 285.94 L 396.09 311.72 L 412.50 328.12 L 454.69 346.88 L 480.47 337.50 L 536.72 260.16 L 553.12 220.31 L 564.84 164.06 L 560.16 147.66 L 508.59 150.00 L 459.38 173.44" stroke="black" fill="transparent"/>
	<path d = "M 255.47 346.88 L 196.88 323.44 L 147.66 332.81 L 126.56 346.88 L 93.75 391.41 L 84.38 421.88 L 84.38 450.00 L 96.09 473.44 L 159.38 508.59 L 246.09 478.12 L 300.00 426.56 L 321.09 375.00 L 316.41 360.94 L 304.69 356.25 L 264.84 358.59" stroke="black" fill="transparent"/>
	<path d = "M 417.19 311.72 L 377.34 321.09 L 344.53 342.19 L 292.97 400.78 L 276.56 450.00 L 281.25 466.41 L 295.31 478.12 L 328.12 478.12 L 367.97 464.06 L 403.12 438.28 L 452.34 377.34 L 457.03 323.44 L 452.34 314.06 L 428.91 307.03 L 400.78 318.75 L 372.66 342.19" stroke="black" fill="transparent"/>
	<path d = "M 274.22 464.06 L 255.47 466.41 L 225.00 492.19 L 206.25 539.06 L 210.94 560.16 L 225.00 578.91 L 246.09 590.62 L 283.59 597.66 L 311.72 578.91 L 358.59 520.31 L 370.31 487.50 L 370.31 459.38 L 363.28 442.97 L 307.03 438.28" stroke="black" fill="transparent"/>
	<path d = "M 257.81 192.19 L 246.09 185.16 L 217.97 145.31 L 210.94 121.88 L 213.28 103.12 L 232.03 84.38 L 330.47 30.47 L 337.50 16.41 L 328.12 0.00" stroke="black" fill="transparent"/>
</svg>