<?xml version="1.0" encoding="UTF-8" standalone="no"?>
<!--Created with ndjsontosvg (https:https://github.com/thompson318/ndjsontosvg) 
	from the simplified Google quickdraw data set. key_id = 5570152202502144-->
<svg width="600" height="600"
	xmlns="http://www.w3.org/2000/svg">
	xmlns:ndjsontosvg="https://github.com/thompson318/ndjsontosvg"
	xmlns:quickdraw="https://quickdraw.withgoogle.com/data"
	xmlns:scikit-surgery="https://doi.org/10.1007/s11548-020-02180-5">

	<rect width="100%" height="100%" fill="white" />
	<path d = "M 32.81 11.72 L 16.41 46.88 L 7.03 84.38 L 0.00 126.56 L 2.34 161.72 L 18.75 182.81 L 37.50 189.84 L 72.66 185.16 L 114.84 164.06 L 133.59 145.31 L 133.59 65.62 L 107.81 21.09 L 89.06 7.03 L 49.22 0.00 L 14.06 18.75" stroke="black" fill="transparent"/>
	<path d = "M 157.03 70.31 L 140.62 107.81 L 138.28 166.41 L 171.09 222.66 L 192.19 229.69 L 232.03 227.34 L 278.91 196.88 L 292.97 157.03 L 292.97 91.41 L 285.94 75.00 L 274.22 51.56 L 227.34 14.06 L 173.44 0.00 L 126.56 0.00 L 100.78 18.75 L 89.06 39.84" stroke="black" fill="transparent"/>
	<path d = "M 316.41 147.66 L 307.03 241.41 L 316.41 260.16 L 335.16 274.22 L 421.88 278.91 L 440.62 271.88 L 461.72 255.47 L 471.09 210.94 L 461.72 168.75 L 442.97 142.97 L 398.44 112.50 L 344.53 112.50 L 316.41 138.28" stroke="black" fill="transparent"/>
	<path d = "M 246.09 217.97 L 234.38 283.59 L 241.41 323.44 L 260.16 337.50 L 302.34 342.19 L 323.44 323.44 L 332.81 217.97 L 318.75 178.12 L 278.91 173.44 L 246.09 189.84" stroke="black" fill="transparent"/>
	<path d = "M 157.03 234.38 L 140.62 257.81 L 128.91 297.66 L 126.56 370.31 L 133.59 389.06 L 152.34 405.47 L 178.12 405.47 L 196.88 396.09 L 217.97 375.00 L 236.72 332.81 L 234.38 264.84 L 220.31 246.09 L 196.88 236.72 L 168.75 243.75 L 121.88 281.25" stroke="black" fill="transparent"/>
	<path d = "M 182.81 375.00 L 173.44 421.88 L 178.12 464.06 L 189.84 482.81 L 220.31 501.56 L 246.09 503.91 L 295.31 496.88 L 342.19 478.12 L 356.25 459.38 L 351.56 367.97 L 342.19 346.88 L 323.44 330.47 L 276.56 328.12 L 255.47 342.19 L 222.66 389.06" stroke="black" fill="transparent"/>
	<path d = "M 367.97 424.22 L 360.94 529.69 L 384.38 567.19 L 482.81 571.88 L 501.56 562.50 L 510.94 541.41 L 513.28 485.16 L 501.56 431.25 L 487.50 412.50 L 440.62 400.78 L 386.72 400.78 L 344.53 440.62" stroke="black" fill="transparent"/>
	<path d = "M 311.72 494.53 L 269.53 510.94 L 246.09 534.38 L 210.94 597.66" stroke="black" fill="transparent"/>
</svg>