<?xml version="1.0" encoding="UTF-8" standalone="no"?>
<!--Created with ndjsontosvg (https:https://github.com/thompson318/ndjsontosvg) 
	from the simplified Google quickdraw data set. key_id = 5737225692119040-->
<svg width="600" height="600"
	xmlns="http://www.w3.org/2000/svg">
	xmlns:ndjsontosvg="https://github.com/thompson318/ndjsontosvg"
	xmlns:quickdraw="https://quickdraw.withgoogle.com/data"
	xmlns:scikit-surgery="https://doi.org/10.1007/s11548-020-02180-5">

	<rect width="100%" height="100%" fill="white" />
	<path d = "M 86.72 201.56 L 67.97 203.91 L 56.25 229.69 L 49.22 300.00 L 67.97 330.47 L 98.44 346.88 L 126.56 339.84 L 157.03 311.72 L 178.12 276.56 L 178.12 243.75 L 150.00 222.66 L 58.59 199.22" stroke="black" fill="transparent"/>
	<path d = "M 168.75 217.97 L 166.41 311.72 L 215.62 349.22 L 269.53 358.59 L 323.44 351.56 L 342.19 335.16 L 351.56 295.31 L 351.56 262.50 L 325.78 239.06 L 292.97 227.34 L 187.50 225.00" stroke="black" fill="transparent"/>
	<path d = "M 180.47 337.50 L 152.34 346.88 L 131.25 363.28 L 124.22 386.72 L 135.94 400.78 L 199.22 421.88 L 285.94 424.22 L 297.66 407.81 L 295.31 377.34 L 285.94 358.59 L 227.34 307.03 L 217.97 307.03 L 213.28 321.09" stroke="black" fill="transparent"/>
	<path d = "M 91.41 342.19 L 32.81 351.56 L 4.69 372.66 L 2.34 424.22 L 18.75 445.31 L 30.47 447.66 L 56.25 450.00 L 82.03 431.25 L 89.06 403.12 L 82.03 391.41 L 70.31 389.06" stroke="black" fill="transparent"/>
	<path d = "M 86.72 431.25 L 70.31 457.03 L 70.31 478.12 L 100.78 503.91 L 150.00 517.97 L 274.22 522.66 L 283.59 508.59 L 278.91 473.44 L 243.75 419.53 L 220.31 403.12 L 178.12 403.12" stroke="black" fill="transparent"/>
	<path d = "M 344.53 403.12 L 332.81 412.50 L 316.41 442.97 L 316.41 452.34 L 342.19 464.06 L 384.38 468.75 L 400.78 459.38 L 421.88 428.91 L 431.25 377.34 L 370.31 365.62" stroke="black" fill="transparent"/>
	<path d = "M 175.78 206.25 L 175.78 91.41 L 196.88 49.22 L 241.41 21.09 L 295.31 7.03 L 358.59 0.00 L 377.34 7.03" stroke="black" fill="transparent"/>
	<path d = "M 133.59 482.81 L 114.84 482.81 L 84.38 520.31 L 72.66 548.44 L 70.31 583.59 L 89.06 597.66 L 203.91 595.31 L 199.22 503.91 L 175.78 478.12 L 150.00 475.78" stroke="black" fill="transparent"/>
</svg>