<?xml version="1.0" encoding="UTF-8" standalone="no"?>
<!--Created with ndjsontosvg (https:https://github.com/thompson318/ndjsontosvg) 
	from the simplified Google quickdraw data set. key_id = 6079013971820544-->
<svg width="600" height="600"
	xmlns="http://www.w3.org/2000/svg">
	xmlns:ndjsontosvg="https://github.com/thompson318/ndjsontosvg"
	xmlns:quickdraw="https://quickdraw.withgoogle.com/data"
	xmlns:scikit-surgery="https://doi.org/10.1007/s11548-020-02180-5">

	<rect width="100%" height="100%" fill="white" />
	<path d = "M 0.00 86.72 L 7.03 117.19 L 28.12 159.38 L 86.72 189.84 L 128.91 185.16 L 173.44 140.62 L 189.84 93.75 L 187.50 65.62 L 175.78 42.19 L 154.69 23.44 L 105.47 7.03 L 39.84 9.38" stroke="black" fill="transparent"/>
	<path d = "M 290.62 0.00 L 260.16 60.94 L 250.78 107.81 L 255.47 171.09 L 276.56 196.88 L 307.03 199.22 L 356.25 168.75 L 377.34 126.56 L 377.34 98.44 L 370.31 84.38 L 321.09 51.56 L 257.81 35.16" stroke="black" fill="transparent"/>
	<path d = "M 506.25 18.75 L 461.72 112.50" stroke="black" fill="transparent"/>
	<path d = "M 454.69 215.62 L 496.88 210.94 L 555.47 175.78 L 578.91 150.00 L 590.62 117.19 L 588.28 96.09 L 555.47 58.59 L 485.16 32.81" stroke="black" fill="transparent"/>
	<path d = "M 175.78 63.28 L 180.47 142.97 L 208.59 194.53 L 220.31 203.91 L 229.69 201.56 L 250.78 173.44 L 257.81 135.94 L 241.41 82.03 L 206.25 51.56" stroke="black" fill="transparent"/>
	<path d = "M 150.00 227.34 L 131.25 232.03 L 114.84 255.47 L 107.81 288.28 L 117.19 335.16 L 135.94 339.84 L 173.44 318.75 L 185.16 276.56 L 168.75 253.12 L 124.22 227.34" stroke="black" fill="transparent"/>
	<path d = "M 269.53 222.66 L 243.75 262.50 L 239.06 290.62 L 246.09 325.78 L 267.19 344.53 L 304.69 318.75 L 316.41 267.19 L 307.03 246.09 L 290.62 232.03 L 257.81 220.31 L 239.06 222.66" stroke="black" fill="transparent"/>
	<path d = "M 389.06 187.50 L 358.59 253.12" stroke="black" fill="transparent"/>
	<path d = "M 349.22 375.00 L 438.28 314.06 L 468.75 278.91 L 478.12 255.47 L 475.78 239.06 L 450.00 217.97 L 405.47 206.25 L 367.97 208.59" stroke="black" fill="transparent"/>
	<path d = "M 121.88 424.22 L 124.22 464.06 L 140.62 487.50 L 164.06 508.59 L 185.16 510.94 L 208.59 496.88 L 227.34 468.75 L 225.00 417.19 L 199.22 375.00 L 180.47 370.31 L 145.31 403.12 L 131.25 454.69" stroke="black" fill="transparent"/>
	<path d = "M 328.12 370.31 L 304.69 379.69 L 295.31 403.12 L 304.69 450.00 L 328.12 468.75 L 339.84 466.41 L 367.97 447.66 L 386.72 400.78 L 375.00 379.69 L 353.91 363.28 L 314.06 351.56 L 278.91 356.25" stroke="black" fill="transparent"/>
	<path d = "M 250.78 475.78 L 229.69 548.44 L 236.72 597.66 L 253.12 597.66 L 300.00 562.50 L 332.81 522.66 L 342.19 494.53 L 335.16 482.81 L 314.06 473.44 L 227.34 461.72" stroke="black" fill="transparent"/>
	<path d = "M 246.09 58.59 L 239.06 39.84" stroke="black" fill="transparent"/>
</svg>