<?xml version="1.0" encoding="UTF-8" standalone="no"?>
<!--Created with ndjsontosvg (https:https://github.com/thompson318/ndjsontosvg) 
	from the simplified Google quickdraw data set. key_id = 5604222466785280-->
<svg width="600" height="600"
	xmlns="http://www.w3.org/2000/svg">
	xmlns:ndjsontosvg="https://github.com/thompson318/ndjsontosvg"
	xmlns:quickdraw="https://quickdraw.withgoogle.com/data"
	xmlns:scikit-surgery="https://doi.org/10.1007/s11548-020-02180-5">

	<rect width="100%" height="100%" fill="white" />
	<path d = "M 11.72 405.47 L 0.00 375.00 L 0.00 292.97 L 23.44 171.09 L 63.28 53.91 L 51.56 150.00 L 49.22 292.97 L 65.62 232.03 L 89.06 187.50 L 121.88 150.00 L 140.62 147.66 L 150.00 182.81 L 150.00 309.38 L 140.62 295.31 L 140.62 227.34 L 159.38 194.53 L 196.88 168.75 L 213.28 166.41 L 236.72 182.81 L 239.06 337.50 L 243.75 288.28 L 267.19 243.75 L 316.41 178.12 L 337.50 164.06 L 356.25 161.72 L 363.28 192.19 L 365.62 262.50 L 351.56 269.53 L 342.19 255.47 L 344.53 203.91 L 367.97 168.75 L 405.47 142.97 L 442.97 147.66 L 445.31 257.81 L 433.59 225.00 L 433.59 173.44 L 471.09 100.78 L 489.84 82.03 L 503.91 82.03 L 508.59 147.66 L 501.56 194.53 L 482.81 241.41 L 466.41 243.75 L 459.38 220.31 L 459.38 100.78 L 499.22 11.72 L 515.62 0.00 L 527.34 21.09 L 529.69 138.28 L 513.28 328.12 L 515.62 199.22 L 532.03 145.31 L 553.12 135.94 L 576.56 142.97 L 597.66 243.75" stroke="black" fill="transparent"/>
</svg>