<?xml version="1.0" encoding="UTF-8" standalone="no"?>
<!--Created with ndjsontosvg (https:https://github.com/thompson318/ndjsontosvg) 
	from the simplified Google quickdraw data set. key_id = 4834851872047104-->
<svg width="600" height="600"
	xmlns="http://www.w3.org/2000/svg">
	xmlns:ndjsontosvg="https://github.com/thompson318/ndjsontosvg"
	xmlns:quickdraw="https://quickdraw.withgoogle.com/data"
	xmlns:scikit-surgery="https://doi.org/10.1007/s11548-020-02180-5">

	<rect width="100%" height="100%" fill="white" />
	<path d = "M 220.31 23.44 L 189.84 0.00 L 128.91 0.00 L 49.22 56.25 L 25.78 124.22 L 14.06 175.78 L 16.41 241.41 L 30.47 267.19 L 98.44 300.00 L 189.84 304.69 L 288.28 215.62 L 304.69 213.28 L 346.88 236.72 L 365.62 236.72 L 389.06 225.00 L 400.78 201.56" stroke="black" fill="transparent"/>
	<path d = "M 225.00 18.75 L 241.41 46.88 L 267.19 58.59 L 283.59 56.25 L 325.78 25.78 L 358.59 23.44 L 405.47 60.94 L 417.19 145.31 L 414.84 175.78 L 398.44 196.88" stroke="black" fill="transparent"/>
	<path d = "M 208.59 103.12 L 182.81 105.47 L 147.66 131.25 L 142.97 171.09 L 154.69 187.50 L 187.50 187.50 L 210.94 164.06 L 213.28 128.91 L 203.91 105.47 L 189.84 91.41" stroke="black" fill="transparent"/>
	<path d = "M 28.12 119.53 L 58.59 110.16 L 215.62 114.84 L 283.59 105.47 L 414.84 131.25 L 438.28 128.91" stroke="black" fill="transparent"/>
	<path d = "M 53.91 154.69 L 128.91 131.25 L 253.12 119.53 L 349.22 126.56 L 405.47 142.97 L 435.94 140.62" stroke="black" fill="transparent"/>
	<path d = "M 0.00 157.03 L 91.41 145.31 L 154.69 147.66 L 250.78 164.06 L 311.72 192.19 L 358.59 201.56 L 386.72 194.53 L 393.75 173.44 L 414.84 171.09 L 428.91 175.78" stroke="black" fill="transparent"/>
	<path d = "M 417.19 135.94 L 597.66 96.09" stroke="black" fill="transparent"/>
</svg>