<?xml version="1.0" encoding="UTF-8" standalone="no"?>
<!--Created with ndjsontosvg (https:https://github.com/thompson318/ndjsontosvg) 
	from the simplified Google quickdraw data set. key_id = 5921929032630272-->
<svg width="600" height="600"
	xmlns="http://www.w3.org/2000/svg">
	xmlns:ndjsontosvg="https://github.com/thompson318/ndjsontosvg"
	xmlns:quickdraw="https://quickdraw.withgoogle.com/data"
	xmlns:scikit-surgery="https://doi.org/10.1007/s11548-020-02180-5">

	<rect width="100%" height="100%" fill="white" />
	<path d = "M 250.78 288.28 L 180.47 281.25 L 72.66 304.69 L 35.16 337.50 L 9.38 391.41 L 0.00 435.94 L 7.03 503.91 L 63.28 553.12 L 142.97 592.97 L 215.62 597.66 L 328.12 569.53 L 403.12 527.34 L 426.56 468.75 L 431.25 398.44 L 424.22 372.66 L 398.44 344.53 L 339.84 309.38 L 339.84 300.00 L 377.34 262.50 L 403.12 220.31 L 426.56 159.38 L 433.59 75.00 L 412.50 4.69 L 396.09 0.00 L 382.03 7.03 L 346.88 32.81 L 309.38 72.66 L 269.53 171.09 L 250.78 253.12 L 236.72 283.59" stroke="black" fill="transparent"/>
	<path d = "M 431.25 23.44 L 442.97 25.78 L 457.03 56.25 L 454.69 65.62 L 438.28 67.97" stroke="black" fill="transparent"/>
	<path d = "M 330.47 21.09 L 309.38 21.09 L 295.31 39.84 L 297.66 60.94 L 316.41 60.94" stroke="black" fill="transparent"/>
	<path d = "M 382.03 4.69 L 372.66 60.94 L 342.19 147.66 L 239.06 351.56 L 171.09 445.31 L 98.44 525.00" stroke="black" fill="transparent"/>
	<path d = "M 187.50 367.97 L 185.16 358.59 L 173.44 360.94 L 152.34 393.75 L 154.69 424.22 L 178.12 447.66 L 206.25 464.06 L 239.06 461.72 L 250.78 438.28 L 250.78 417.19 L 248.44 379.69 L 236.72 353.91 L 208.59 332.81 L 187.50 344.53" stroke="black" fill="transparent"/>
	<path d = "M 396.09 16.41 L 367.97 203.91 L 314.06 342.19 L 274.22 393.75 L 105.47 539.06" stroke="black" fill="transparent"/>
</svg>