<?xml version="1.0" encoding="UTF-8" standalone="no"?>
<!--Created with ndjsontosvg (https:https://github.com/thompson318/ndjsontosvg) 
	from the simplified Google quickdraw data set. key_id = 5105279404343296-->
<svg width="600" height="600"
	xmlns="http://www.w3.org/2000/svg">
	xmlns:ndjsontosvg="https://github.com/thompson318/ndjsontosvg"
	xmlns:quickdraw="https://quickdraw.withgoogle.com/data"
	xmlns:scikit-surgery="https://doi.org/10.1007/s11548-020-02180-5">

	<rect width="100%" height="100%" fill="white" />
	<path d = "M 290.62 276.56 L 243.75 241.41 L 206.25 229.69 L 175.78 232.03 L 138.28 260.16 L 128.91 276.56 L 110.16 375.00 L 89.06 400.78 L 70.31 400.78 L 44.53 419.53 L 7.03 459.38 L 0.00 489.84 L 14.06 557.81 L 67.97 590.62 L 98.44 597.66 L 150.00 592.97 L 194.53 567.19 L 217.97 532.03 L 222.66 513.28 L 206.25 461.72 L 180.47 452.34 L 215.62 442.97 L 297.66 396.09 L 335.16 349.22 L 332.81 321.09 L 321.09 304.69 L 292.97 290.62 L 283.59 260.16 L 290.62 234.38 L 328.12 166.41 L 360.94 121.88 L 536.72 0.00 L 578.91 37.50 L 578.91 53.91 L 438.28 227.34 L 314.06 304.69" stroke="black" fill="transparent"/>
	<path d = "M 285.94 267.19 L 323.44 234.38 L 375.00 159.38 L 450.00 77.34 L 501.56 39.84" stroke="black" fill="transparent"/>
	<path d = "M 307.03 267.19 L 487.50 110.16 L 564.84 25.78" stroke="black" fill="transparent"/>
	<path d = "M 98.44 454.69 L 53.91 494.53 L 53.91 527.34 L 63.28 532.03 L 112.50 527.34 L 121.88 520.31 L 124.22 503.91" stroke="black" fill="transparent"/>
</svg>