<?xml version="1.0" encoding="UTF-8" standalone="no"?>
<!--Created with ndjsontosvg (https:https://github.com/thompson318/ndjsontosvg) 
	from the simplified Google quickdraw data set. key_id = 5750232182685696-->
<svg width="600" height="600"
	xmlns="http://www.w3.org/2000/svg">
	xmlns:ndjsontosvg="https://github.com/thompson318/ndjsontosvg"
	xmlns:quickdraw="https://quickdraw.withgoogle.com/data"
	xmlns:scikit-surgery="https://doi.org/10.1007/s11548-020-02180-5">

	<rect width="100%" height="100%" fill="white" />
	<path d = "M 65.62 255.47 L 84.38 264.84 L 314.06 307.03 L 452.34 307.03 L 459.38 321.09 L 452.34 337.50 L 407.81 363.28 L 358.59 372.66 L 339.84 358.59 L 185.16 309.38 L 79.69 290.62 L 25.78 271.88 L 37.50 255.47 L 84.38 243.75 L 84.38 236.72" stroke="black" fill="transparent"/>
	<path d = "M 49.22 241.41 L 82.03 232.03 L 133.59 232.03 L 351.56 253.12 L 417.19 253.12 L 485.16 269.53 L 485.16 285.94 L 468.75 288.28 L 433.59 271.88 L 274.22 281.25 L 166.41 253.12 L 105.47 246.09 L 91.41 236.72" stroke="black" fill="transparent"/>
	<path d = "M 9.38 253.12 L 0.00 344.53 L 7.03 363.28 L 21.09 375.00 L 142.97 412.50 L 255.47 428.91 L 403.12 428.91 L 450.00 400.78 L 464.06 384.38 L 464.06 339.84 L 428.91 288.28" stroke="black" fill="transparent"/>
	<path d = "M 39.84 199.22 L 79.69 215.62 L 210.94 220.31 L 419.53 250.78 L 532.03 253.12 L 567.19 229.69 L 595.31 180.47 L 597.66 112.50 L 574.22 58.59 L 527.34 21.09 L 473.44 2.34 L 255.47 0.00 L 171.09 91.41 L 124.22 112.50 L 56.25 215.62" stroke="black" fill="transparent"/>
	<path d = "M 236.72 112.50 L 246.09 103.12" stroke="black" fill="transparent"/>
	<path d = "M 435.94 39.84 L 440.62 39.84" stroke="black" fill="transparent"/>
	<path d = "M 342.19 124.22 L 342.19 140.62" stroke="black" fill="transparent"/>
</svg>