<?xml version="1.0" encoding="UTF-8" standalone="no"?>
<!--Created with ndjsontosvg (https:https://github.com/thompson318/ndjsontosvg) 
	from the simplified Google quickdraw data set. key_id = 6597292272386048-->
<svg width="600" height="600"
	xmlns="http://www.w3.org/2000/svg">
	xmlns:ndjsontosvg="https://github.com/thompson318/ndjsontosvg"
	xmlns:quickdraw="https://quickdraw.withgoogle.com/data"
	xmlns:scikit-surgery="https://doi.org/10.1007/s11548-020-02180-5">

	<rect width="100%" height="100%" fill="white" />
	<path d = "M 0.00 189.84 L 21.09 126.56 L 72.66 67.97 L 206.25 21.09 L 372.66 0.00 L 431.25 25.78 L 471.09 56.25 L 581.25 171.09 L 597.66 199.22 L 583.59 206.25 L 478.12 189.84 L 215.62 189.84 L 112.50 171.09 L 18.75 178.12" stroke="black" fill="transparent"/>
	<path d = "M 503.91 236.72 L 459.38 199.22 L 396.09 182.81 L 220.31 178.12 L 46.88 196.88 L 28.12 213.28 L 25.78 239.06 L 46.88 274.22 L 79.69 304.69 L 140.62 323.44 L 288.28 328.12 L 435.94 325.78 L 562.50 278.91 L 583.59 253.12 L 583.59 241.41 L 574.22 236.72" stroke="black" fill="transparent"/>
	<path d = "M 16.41 285.94 L 9.38 382.03 L 23.44 424.22 L 56.25 464.06 L 91.41 482.81 L 147.66 492.19 L 344.53 464.06 L 426.56 435.94 L 487.50 389.06 L 529.69 290.62" stroke="black" fill="transparent"/>
</svg>