<?xml version="1.0" encoding="UTF-8" standalone="no"?>
<!--Created with ndjsontosvg (https:https://github.com/thompson318/ndjsontosvg) 
	from the simplified Google quickdraw data set. key_id = 6451956820213760-->
<svg width="600" height="600"
	xmlns="http://www.w3.org/2000/svg">
	xmlns:ndjsontosvg="https://github.com/thompson318/ndjsontosvg"
	xmlns:quickdraw="https://quickdraw.withgoogle.com/data"
	xmlns:scikit-surgery="https://doi.org/10.1007/s11548-020-02180-5">

	<rect width="100%" height="100%" fill="white" />
	<path d = "M 0.00 243.75 L 150.00 232.03 L 475.78 234.38 L 513.28 225.00 L 527.34 206.25 L 517.97 124.22 L 489.84 75.00 L 450.00 37.50 L 393.75 9.38 L 309.38 0.00 L 217.97 0.00 L 161.72 16.41 L 91.41 70.31 L 28.12 168.75 L 0.00 246.09" stroke="black" fill="transparent"/>
	<path d = "M 42.19 471.09 L 42.19 510.94 L 70.31 543.75 L 145.31 574.22 L 232.03 590.62 L 318.75 597.66 L 403.12 595.31 L 480.47 539.06 L 510.94 499.22 L 529.69 433.59 L 529.69 414.84 L 496.88 400.78 L 393.75 377.34 L 257.81 372.66 L 208.59 382.03 L 138.28 414.84 L 91.41 417.19" stroke="black" fill="transparent"/>
	<path d = "M 126.56 201.56 L 119.53 262.50 L 119.53 351.56 L 126.56 360.94" stroke="black" fill="transparent"/>
	<path d = "M 473.44 253.12 L 450.00 365.62" stroke="black" fill="transparent"/>
</svg>