<?xml version="1.0" encoding="UTF-8" standalone="no"?>
<!--Created with ndjsontosvg (https:https://github.com/thompson318/ndjsontosvg) 
	from the simplified Google quickdraw data set. key_id = 4589445309267968-->
<svg width="600" height="600"
	xmlns="http://www.w3.org/2000/svg">
	xmlns:ndjsontosvg="https://github.com/thompson318/ndjsontosvg"
	xmlns:quickdraw="https://quickdraw.withgoogle.com/data"
	xmlns:scikit-surgery="https://doi.org/10.1007/s11548-020-02180-5">

	<rect width="100%" height="100%" fill="white" />
	<path d = "M 339.84 0.00 L 271.88 14.06 L 203.91 42.19 L 105.47 103.12 L 42.19 175.78 L 0.00 257.81 L 11.72 271.88 L 60.94 276.56 L 128.91 264.84 L 370.31 199.22 L 522.66 150.00" stroke="black" fill="transparent"/>
	<path d = "M 288.28 28.12 L 447.66 9.38 L 508.59 14.06 L 539.06 28.12 L 557.81 51.56 L 574.22 105.47 L 550.78 142.97 L 513.28 175.78" stroke="black" fill="transparent"/>
	<path d = "M 539.06 147.66 L 382.03 173.44 L 192.19 234.38 L 103.12 271.88 L 23.44 323.44 L 16.41 337.50 L 39.84 346.88 L 105.47 337.50 L 239.06 283.59 L 414.84 234.38 L 482.81 185.16 L 520.31 166.41 L 548.44 164.06" stroke="black" fill="transparent"/>
	<path d = "M 557.81 161.72 L 592.97 236.72 L 597.66 274.22 L 578.91 288.28 L 389.06 358.59 L 194.53 459.38 L 89.06 482.81 L 37.50 471.09 L 30.47 454.69 L 37.50 412.50 L 63.28 356.25 L 82.03 337.50" stroke="black" fill="transparent"/>
</svg>