<?xml version="1.0" encoding="UTF-8" standalone="no"?>
<!--Created with ndjsontosvg (https:https://github.com/thompson318/ndjsontosvg) 
	from the simplified Google quickdraw data set. key_id = 4515038847041536-->
<svg width="600" height="600"
	xmlns="http://www.w3.org/2000/svg">
	xmlns:ndjsontosvg="https://github.com/thompson318/ndjsontosvg"
	xmlns:quickdraw="https://quickdraw.withgoogle.com/data"
	xmlns:scikit-surgery="https://doi.org/10.1007/s11548-020-02180-5">

	<rect width="100%" height="100%" fill="white" />
	<path d = "M 2.34 53.91 L 37.50 30.47 L 107.81 14.06 L 215.62 0.00 L 290.62 0.00 L 360.94 9.38 L 424.22 25.78 L 522.66 72.66" stroke="black" fill="transparent"/>
	<path d = "M 25.78 63.28 L 7.03 67.97 L 0.00 75.00 L 53.91 67.97 L 185.16 67.97 L 72.66 124.22 L 16.41 173.44 L 166.41 131.25 L 227.34 124.22 L 349.22 126.56 L 473.44 166.41 L 478.12 175.78 L 468.75 199.22 L 471.09 229.69 L 475.78 241.41 L 496.88 248.44 L 522.66 246.09 L 548.44 232.03 L 567.19 208.59 L 592.97 152.34 L 592.97 110.16 L 585.94 79.69 L 564.84 60.94 L 525.00 65.62" stroke="black" fill="transparent"/>
	<path d = "M 239.06 128.91 L 239.06 168.75 L 217.97 325.78 L 206.25 480.47 L 206.25 576.56 L 210.94 588.28 L 241.41 597.66 L 257.81 597.66 L 260.16 588.28 L 260.16 435.94 L 285.94 168.75" stroke="black" fill="transparent"/>
</svg>