<?xml version="1.0" encoding="UTF-8" standalone="no"?>
<!--Created with ndjsontosvg (https:https://github.com/thompson318/ndjsontosvg) 
	from the simplified Google quickdraw data set. key_id = 6006624344866816-->
<svg width="600" height="600"
	xmlns="http://www.w3.org/2000/svg">
	xmlns:ndjsontosvg="https://github.com/thompson318/ndjsontosvg"
	xmlns:quickdraw="https://quickdraw.withgoogle.com/data"
	xmlns:scikit-surgery="https://doi.org/10.1007/s11548-020-02180-5">

	<rect width="100%" height="100%" fill="white" />
	<path d = "M 227.34 147.66 L 217.97 215.62 L 182.81 375.00 L 168.75 522.66 L 180.47 539.06 L 234.38 548.44 L 321.09 550.78 L 339.84 546.09 L 346.88 536.72 L 356.25 342.19 L 356.25 168.75 L 349.22 133.59 L 328.12 112.50 L 232.03 98.44 L 220.31 117.19 L 213.28 182.81" stroke="black" fill="transparent"/>
	<path d = "M 227.34 86.72 L 157.03 110.16 L 4.69 232.03 L 0.00 222.66 L 14.06 196.88 L 114.84 93.75 L 152.34 67.97 L 201.56 56.25 L 311.72 39.84 L 403.12 39.84 L 522.66 44.53 L 539.06 53.91 L 567.19 4.69 L 583.59 0.00 L 595.31 11.72 L 597.66 126.56" stroke="black" fill="transparent"/>
</svg>