<?xml version="1.0" encoding="UTF-8" standalone="no"?>
<!--Created with ndjsontosvg (https:https://github.com/thompson318/ndjsontosvg) 
	from the simplified Google quickdraw data set. key_id = 6100400866328576-->
<svg width="600" height="600"
	xmlns="http://www.w3.org/2000/svg">
	xmlns:ndjsontosvg="https://github.com/thompson318/ndjsontosvg"
	xmlns:quickdraw="https://quickdraw.withgoogle.com/data"
	xmlns:scikit-surgery="https://doi.org/10.1007/s11548-020-02180-5">

	<rect width="100%" height="100%" fill="white" />
	<path d = "M 133.59 588.28 L 147.66 508.59 L 152.34 295.31 L 164.06 166.41 L 173.44 161.72 L 199.22 166.41 L 253.12 161.72 L 337.50 145.31 L 349.22 182.81 L 367.97 182.81 L 382.03 154.69 L 384.38 49.22 L 377.34 21.09 L 358.59 2.34 L 344.53 0.00 L 325.78 14.06 L 321.09 60.94 L 316.41 51.56 L 269.53 32.81 L 128.91 23.44 L 63.28 82.03 L 28.12 145.31 L 11.72 203.91 L 0.00 309.38 L 14.06 297.66 L 63.28 206.25 L 84.38 311.72 L 103.12 201.56 L 114.84 164.06 L 121.88 180.47 L 124.22 386.72 L 105.47 503.91 L 105.47 550.78 L 117.19 583.59 L 150.00 585.94 L 159.38 595.31 L 154.69 597.66" stroke="black" fill="transparent"/>
</svg>