<?xml version="1.0" encoding="UTF-8" standalone="no"?>
<!--Created with ndjsontosvg (https:https://github.com/thompson318/ndjsontosvg) 
	from the simplified Google quickdraw data set. key_id = 5286578316378112-->
<svg width="600" height="600"
	xmlns="http://www.w3.org/2000/svg">
	xmlns:ndjsontosvg="https://github.com/thompson318/ndjsontosvg"
	xmlns:quickdraw="https://quickdraw.withgoogle.com/data"
	xmlns:scikit-surgery="https://doi.org/10.1007/s11548-020-02180-5">

	<rect width="100%" height="100%" fill="white" />
	<path d = "M 229.69 583.59 L 203.91 539.06 L 138.28 475.78 L 70.31 389.06 L 14.06 302.34 L 0.00 250.78 L 16.41 253.12 L 79.69 330.47 L 128.91 410.16 L 138.28 419.53 L 142.97 403.12 L 98.44 213.28 L 53.91 91.41 L 42.19 28.12 L 77.34 63.28 L 150.00 161.72 L 203.91 332.81 L 250.78 194.53 L 271.88 0.00 L 295.31 77.34 L 304.69 267.19 L 325.78 304.69 L 356.25 295.31 L 407.81 241.41 L 499.22 103.12 L 492.19 185.16 L 454.69 288.28 L 431.25 328.12 L 433.59 370.31 L 454.69 412.50 L 485.16 424.22 L 597.66 396.09" stroke="black" fill="transparent"/>
</svg>