<?xml version="1.0" encoding="UTF-8" standalone="no"?>
<!--Created with ndjsontosvg (https:https://github.com/thompson318/ndjsontosvg) 
	from the simplified Google quickdraw data set. key_id = 6362422908551168-->
<svg width="600" height="600"
	xmlns="http://www.w3.org/2000/svg">
	xmlns:ndjsontosvg="https://github.com/thompson318/ndjsontosvg"
	xmlns:quickdraw="https://quickdraw.withgoogle.com/data"
	xmlns:scikit-surgery="https://doi.org/10.1007/s11548-020-02180-5">

	<rect width="100%" height="100%" fill="white" />
	<path d = "M 241.41 597.66 L 264.84 525.00 L 267.19 461.72 L 234.38 360.94 L 203.91 318.75 L 173.44 297.66 L 51.56 250.78 L 2.34 206.25 L 2.34 180.47 L 42.19 171.09 L 67.97 180.47 L 192.19 257.81 L 138.28 135.94 L 126.56 70.31 L 126.56 11.72 L 138.28 0.00 L 152.34 0.00 L 182.81 16.41 L 194.53 35.16 L 225.00 119.53 L 246.09 234.38 L 222.66 131.25 L 215.62 67.97 L 220.31 53.91 L 271.88 21.09 L 304.69 30.47 L 318.75 56.25 L 321.09 203.91 L 328.12 124.22 L 342.19 77.34 L 365.62 51.56 L 391.41 42.19 L 403.12 53.91 L 403.12 100.78 L 379.69 206.25 L 421.88 220.31 L 450.00 274.22" stroke="black" fill="transparent"/>
</svg>