<?xml version="1.0" encoding="UTF-8" standalone="no"?>
<!--Created with ndjsontosvg (https:https://github.com/thompson318/ndjsontosvg) 
	from the simplified Google quickdraw data set. key_id = 5349011781320704-->
<svg width="600" height="600"
	xmlns="http://www.w3.org/2000/svg">
	xmlns:ndjsontosvg="https://github.com/thompson318/ndjsontosvg"
	xmlns:quickdraw="https://quickdraw.withgoogle.com/data"
	xmlns:scikit-surgery="https://doi.org/10.1007/s11548-020-02180-5">

	<rect width="100%" height="100%" fill="white" />
	<path d = "M 107.81 424.22 L 105.47 567.19" stroke="black" fill="transparent"/>
	<path d = "M 105.47 424.22 L 4.69 187.50 L 0.00 133.59 L 4.69 107.81 L 21.09 98.44 L 44.53 103.12 L 72.66 119.53 L 93.75 147.66 L 180.47 400.78 L 168.75 217.97 L 185.16 131.25 L 210.94 79.69 L 215.62 72.66 L 220.31 82.03 L 220.31 232.03 L 232.03 285.94 L 290.62 82.03 L 316.41 25.78 L 325.78 16.41 L 330.47 23.44 L 344.53 142.97 L 344.53 290.62 L 396.09 110.16 L 445.31 0.00 L 457.03 28.12 L 471.09 142.97 L 464.06 330.47 L 440.62 389.06 L 396.09 440.62 L 346.88 520.31 L 330.47 597.66" stroke="black" fill="transparent"/>
</svg>