<?xml version="1.0" encoding="UTF-8" standalone="no"?>
<!--Created with ndjsontosvg (https:https://github.com/thompson318/ndjsontosvg) 
	from the simplified Google quickdraw data set. key_id = 4961690963673088-->
<svg width="600" height="600"
	xmlns="http://www.w3.org/2000/svg">
	xmlns:ndjsontosvg="https://github.com/thompson318/ndjsontosvg"
	xmlns:quickdraw="https://quickdraw.withgoogle.com/data"
	xmlns:scikit-surgery="https://doi.org/10.1007/s11548-020-02180-5">

	<rect width="100%" height="100%" fill="white" />
	<path d = "M 0.00 318.75 L 98.44 215.62 L 119.53 166.41 L 128.91 110.16 L 157.03 65.62 L 182.81 51.56 L 189.84 65.62 L 192.19 100.78 L 171.09 168.75 L 168.75 182.81 L 173.44 182.81 L 234.38 128.91 L 262.50 86.72 L 290.62 23.44 L 311.72 2.34 L 328.12 0.00 L 335.16 4.69 L 335.16 46.88 L 328.12 86.72 L 285.94 157.03 L 260.16 178.12 L 332.81 121.88 L 384.38 46.88 L 419.53 16.41 L 435.94 14.06 L 438.28 25.78 L 419.53 86.72 L 382.03 152.34 L 356.25 175.78 L 379.69 150.00 L 494.53 63.28 L 515.62 39.84 L 520.31 103.12 L 508.59 135.94 L 471.09 182.81 L 438.28 203.91 L 525.00 135.94 L 590.62 112.50 L 597.66 117.19 L 595.31 150.00 L 560.16 217.97 L 527.34 257.81 L 506.25 264.84 L 447.66 332.81" stroke="black" fill="transparent"/>
</svg>