<?xml version="1.0" encoding="UTF-8" standalone="no"?>
<!--Created with ndjsontosvg (https:https://github.com/thompson318/ndjsontosvg) 
	from the simplified Google quickdraw data set. key_id = 4902266559528960-->
<svg width="600" height="600"
	xmlns="http://www.w3.org/2000/svg">
	xmlns:ndjsontosvg="https://github.com/thompson318/ndjsontosvg"
	xmlns:quickdraw="https://quickdraw.withgoogle.com/data"
	xmlns:scikit-surgery="https://doi.org/10.1007/s11548-020-02180-5">

	<rect width="100%" height="100%" fill="white" />
	<path d = "M 140.62 379.69 L 145.31 419.53 L 185.16 480.47 L 222.66 515.62 L 260.16 534.38 L 339.84 543.75 L 384.38 539.06 L 435.94 527.34 L 499.22 494.53 L 539.06 447.66 L 576.56 346.88 L 597.66 201.56 L 597.66 142.97 L 581.25 53.91 L 560.16 147.66 L 553.12 353.91 L 539.06 269.53 L 527.34 89.06 L 510.94 35.16 L 489.84 9.38 L 480.47 7.03 L 471.09 16.41 L 457.03 70.31 L 454.69 147.66 L 468.75 323.44 L 457.03 311.72 L 421.88 217.97 L 396.09 72.66 L 367.97 14.06 L 353.91 23.44 L 349.22 112.50 L 375.00 316.41 L 332.81 264.84 L 304.69 213.28 L 241.41 14.06 L 227.34 0.00 L 215.62 14.06 L 206.25 124.22 L 243.75 318.75 L 241.41 358.59 L 182.81 302.34 L 79.69 147.66 L 39.84 110.16 L 9.38 103.12 L 0.00 138.28 L 11.72 189.84 L 138.28 386.72 L 194.53 450.00" stroke="black" fill="transparent"/>
</svg>