<?xml version="1.0" encoding="UTF-8" standalone="no"?>
<!--Created with ndjsontosvg (https:https://github.com/thompson318/ndjsontosvg) 
	from the simplified Google quickdraw data set. key_id = 5539445048606720-->
<svg width="600" height="600"
	xmlns="http://www.w3.org/2000/svg">
	xmlns:ndjsontosvg="https://github.com/thompson318/ndjsontosvg"
	xmlns:quickdraw="https://quickdraw.withgoogle.com/data"
	xmlns:scikit-surgery="https://doi.org/10.1007/s11548-020-02180-5">

	<rect width="100%" height="100%" fill="white" />
	<path d = "M 257.81 232.03 L 353.91 175.78 L 407.81 133.59 L 431.25 58.59 L 452.34 96.09 L 445.31 124.22 L 471.09 79.69 L 525.00 49.22 L 539.06 63.28 L 529.69 93.75 L 480.47 126.56 L 501.56 107.81 L 553.12 86.72 L 560.16 105.47 L 550.78 124.22 L 527.34 133.59 L 499.22 135.94 L 588.28 128.91 L 597.66 142.97 L 571.88 154.69 L 499.22 154.69 L 564.84 171.09 L 571.88 187.50 L 546.09 194.53 L 496.88 189.84 L 513.28 196.88 L 517.97 213.28 L 503.91 227.34 L 473.44 222.66 L 445.31 210.94 L 396.09 225.00 L 382.03 232.03 L 360.94 269.53 L 344.53 283.59 L 135.94 304.69 L 21.09 264.84 L 0.00 250.78 L 7.03 168.75 L 21.09 128.91 L 67.97 67.97 L 114.84 37.50 L 164.06 18.75 L 290.62 0.00" stroke="black" fill="transparent"/>
</svg>