<?xml version="1.0" encoding="UTF-8" standalone="no"?>
<!--Created with ndjsontosvg (https:https://github.com/thompson318/ndjsontosvg) 
	from the simplified Google quickdraw data set. key_id = 6089689868009472-->
<svg width="600" height="600"
	xmlns="http://www.w3.org/2000/svg">
	xmlns:ndjsontosvg="https://github.com/thompson318/ndjsontosvg"
	xmlns:quickdraw="https://quickdraw.withgoogle.com/data"
	xmlns:scikit-surgery="https://doi.org/10.1007/s11548-020-02180-5">

	<rect width="100%" height="100%" fill="white" />
	<path d = "M 222.66 506.25 L 206.25 377.34 L 133.59 356.25 L 39.84 302.34 L 11.72 267.19 L 0.00 239.06 L 65.62 199.22 L 93.75 196.88 L 152.34 215.62 L 196.88 250.78 L 178.12 185.16 L 152.34 142.97 L 138.28 70.31 L 140.62 11.72 L 178.12 0.00 L 201.56 14.06 L 215.62 32.81 L 278.91 180.47 L 288.28 217.97 L 264.84 161.72 L 260.16 96.09 L 276.56 39.84 L 292.97 14.06 L 321.09 14.06 L 346.88 79.69 L 353.91 215.62 L 353.91 147.66 L 438.28 21.09 L 454.69 7.03 L 478.12 2.34 L 506.25 67.97 L 506.25 107.81 L 478.12 178.12 L 461.72 194.53 L 510.94 142.97 L 597.66 114.84" stroke="black" fill="transparent"/>
</svg>