<?xml version="1.0" encoding="UTF-8" standalone="no"?>
<!--Created with ndjsontosvg (https:https://github.com/thompson318/ndjsontosvg) 
	from the simplified Google quickdraw data set. key_id = 5014308599627776-->
<svg width="600" height="600"
	xmlns="http://www.w3.org/2000/svg">
	xmlns:ndjsontosvg="https://github.com/thompson318/ndjsontosvg"
	xmlns:quickdraw="https://quickdraw.withgoogle.com/data"
	xmlns:scikit-surgery="https://doi.org/10.1007/s11548-020-02180-5">

	<rect width="100%" height="100%" fill="white" />
	<path d = "M 194.53 597.66 L 199.22 560.16 L 192.19 478.12 L 171.09 447.66 L 72.66 360.94 L 35.16 311.72 L 0.00 220.31 L 11.72 147.66 L 30.47 140.62 L 60.94 175.78 L 142.97 236.72 L 189.84 302.34 L 208.59 344.53 L 196.88 285.94 L 192.19 194.53 L 206.25 150.00 L 215.62 14.06 L 232.03 0.00 L 241.41 4.69 L 269.53 84.38 L 274.22 335.16 L 281.25 314.06 L 281.25 67.97 L 292.97 18.75 L 321.09 7.03 L 351.56 32.81 L 375.00 107.81 L 367.97 356.25 L 367.97 154.69 L 382.03 56.25 L 391.41 46.88 L 433.59 35.16 L 466.41 70.31 L 468.75 133.59 L 445.31 264.84 L 445.31 363.28 L 440.62 142.97 L 452.34 124.22 L 471.09 112.50 L 517.97 159.38 L 536.72 199.22 L 553.12 271.88" stroke="black" fill="transparent"/>
</svg>