<?xml version="1.0" encoding="UTF-8" standalone="no"?>
<!--Created with ndjsontosvg (https:https://github.com/thompson318/ndjsontosvg) 
	from the simplified Google quickdraw data set. key_id = 4922338309046272-->
<svg width="600" height="600"
	xmlns="http://www.w3.org/2000/svg">
	xmlns:ndjsontosvg="https://github.com/thompson318/ndjsontosvg"
	xmlns:quickdraw="https://quickdraw.withgoogle.com/data"
	xmlns:scikit-surgery="https://doi.org/10.1007/s11548-020-02180-5">

	<rect width="100%" height="100%" fill="white" />
	<path d = "M 138.28 597.66 L 131.25 520.31 L 112.50 433.59 L 100.78 314.06 L 35.16 269.53 L 4.69 217.97 L 0.00 189.84 L 14.06 192.19 L 39.84 206.25 L 96.09 255.47 L 35.16 180.47 L 16.41 75.00 L 46.88 100.78 L 128.91 222.66 L 133.59 215.62 L 114.84 145.31 L 112.50 84.38 L 119.53 65.62 L 138.28 63.28 L 147.66 70.31 L 166.41 112.50 L 178.12 210.94 L 180.47 82.03 L 187.50 30.47 L 199.22 0.00 L 213.28 79.69 L 241.41 173.44 L 246.09 210.94 L 253.12 32.81 L 274.22 28.12 L 288.28 44.53 L 300.00 82.03 L 304.69 196.88 L 283.59 365.62 L 264.84 419.53 L 264.84 482.81 L 274.22 503.91" stroke="black" fill="transparent"/>
</svg>