<?xml version="1.0" encoding="UTF-8" standalone="no"?>
<!--Created with ndjsontosvg (https:https://github.com/thompson318/ndjsontosvg) 
	from the simplified Google quickdraw data set. key_id = 6395461759926272-->
<svg width="600" height="600"
	xmlns="http://www.w3.org/2000/svg">
	xmlns:ndjsontosvg="https://github.com/thompson318/ndjsontosvg"
	xmlns:quickdraw="https://quickdraw.withgoogle.com/data"
	xmlns:scikit-surgery="https://doi.org/10.1007/s11548-020-02180-5">

	<rect width="100%" height="100%" fill="white" />
	<path d = "M 0.00 89.06 L 9.38 100.78 L 42.19 222.66 L 63.28 426.56 L 96.09 541.41 L 124.22 597.66 L 159.38 569.53 L 232.03 482.81 L 393.75 344.53 L 529.69 215.62" stroke="black" fill="transparent"/>
	<path d = "M 4.69 91.41 L 25.78 42.19 L 60.94 18.75 L 119.53 9.38 L 206.25 11.72 L 253.12 32.81 L 262.50 44.53 L 292.97 126.56 L 473.44 175.78 L 492.19 192.19 L 508.59 220.31" stroke="black" fill="transparent"/>
	<path d = "M 91.41 39.84 L 93.75 119.53 L 75.00 295.31 L 75.00 431.25 L 103.12 541.41 L 114.84 569.53 L 117.19 550.78" stroke="black" fill="transparent"/>
	<path d = "M 157.03 11.72 L 159.38 157.03 L 117.19 410.16 L 110.16 529.69 L 119.53 478.12" stroke="black" fill="transparent"/>
	<path d = "M 281.25 0.00 L 264.84 58.59 L 203.91 196.88 L 171.09 450.00" stroke="black" fill="transparent"/>
	<path d = "M 342.19 105.47 L 342.19 128.91 L 271.88 307.03 L 229.69 391.41 L 192.19 431.25 L 220.31 382.03" stroke="black" fill="transparent"/>
	<path d = "M 426.56 168.75 L 426.56 220.31 L 398.44 276.56 L 360.94 377.34" stroke="black" fill="transparent"/>
</svg>