<?xml version="1.0" encoding="UTF-8" standalone="no"?>
<!--Created with ndjsontosvg (https:https://github.com/thompson318/ndjsontosvg) 
	from the simplified Google quickdraw data set. key_id = 6561969790255104-->
<svg width="600" height="600"
	xmlns="http://www.w3.org/2000/svg">
	xmlns:ndjsontosvg="https://github.com/thompson318/ndjsontosvg"
	xmlns:quickdraw="https://quickdraw.withgoogle.com/data"
	xmlns:scikit-surgery="https://doi.org/10.1007/s11548-020-02180-5">

	<rect width="100%" height="100%" fill="white" />
	<path d = "M 72.66 121.88 L 9.38 452.34 L 2.34 541.41 L 9.38 546.09 L 44.53 534.38 L 77.34 536.72 L 346.88 553.12 L 597.66 590.62 L 475.78 454.69 L 356.25 281.25 L 300.00 215.62 L 175.78 103.12 L 114.84 32.81 L 98.44 0.00 L 98.44 23.44 L 58.59 173.44 L 56.25 210.94 L 63.28 210.94" stroke="black" fill="transparent"/>
	<path d = "M 178.12 142.97 L 159.38 269.53 L 100.78 522.66" stroke="black" fill="transparent"/>
	<path d = "M 309.38 243.75 L 302.34 311.72 L 227.34 548.44 L 241.41 536.72" stroke="black" fill="transparent"/>
	<path d = "M 396.09 325.78 L 328.12 543.75 L 337.50 543.75" stroke="black" fill="transparent"/>
	<path d = "M 475.78 435.94 L 468.75 447.66 L 454.69 569.53" stroke="black" fill="transparent"/>
	<path d = "M 142.97 100.78 L 142.97 159.38" stroke="black" fill="transparent"/>
</svg>