<?xml version="1.0" encoding="UTF-8" standalone="no"?>
<!--Created with ndjsontosvg (https:https://github.com/thompson318/ndjsontosvg) 
	from the simplified Google quickdraw data set. key_id = 4973723901755392-->
<svg width="600" height="600"
	xmlns="http://www.w3.org/2000/svg">
	xmlns:ndjsontosvg="https://github.com/thompson318/ndjsontosvg"
	xmlns:quickdraw="https://quickdraw.withgoogle.com/data"
	xmlns:scikit-surgery="https://doi.org/10.1007/s11548-020-02180-5">

	<rect width="100%" height="100%" fill="white" />
	<path d = "M 419.53 7.03 L 344.53 0.00 L 262.50 2.34 L 199.22 28.12 L 199.22 67.97 L 208.59 79.69 L 292.97 93.75 L 452.34 93.75 L 461.72 56.25 L 424.22 11.72" stroke="black" fill="transparent"/>
	<path d = "M 203.91 82.03 L 206.25 274.22 L 196.88 302.34 L 173.44 321.09 L 142.97 330.47 L 11.72 342.19 L 0.00 346.88 L 7.03 370.31 L 128.91 377.34 L 557.81 379.69 L 597.66 351.56 L 588.28 328.12 L 536.72 307.03 L 450.00 297.66 L 426.56 283.59 L 417.19 250.78 L 417.19 196.88 L 450.00 107.81 L 450.00 79.69" stroke="black" fill="transparent"/>
</svg>