<?xml version="1.0" encoding="UTF-8" standalone="no"?>
<!--Created with ndjsontosvg (https:https://github.com/thompson318/ndjsontosvg) 
	from the simplified Google quickdraw data set. key_id = 6665029241798656-->
<svg width="600" height="600"
	xmlns="http://www.w3.org/2000/svg">
	xmlns:ndjsontosvg="https://github.com/thompson318/ndjsontosvg"
	xmlns:quickdraw="https://quickdraw.withgoogle.com/data"
	xmlns:scikit-surgery="https://doi.org/10.1007/s11548-020-02180-5">

	<rect width="100%" height="100%" fill="white" />
	<path d = "M 239.06 232.03 L 248.44 189.84 L 248.44 105.47 L 257.81 70.31 L 278.91 42.19 L 318.75 9.38 L 367.97 0.00 L 410.16 30.47 L 442.97 91.41 L 440.62 110.16 L 393.75 213.28 L 391.41 234.38 L 424.22 243.75 L 489.84 229.69 L 527.34 232.03 L 557.81 243.75 L 592.97 269.53 L 597.66 290.62 L 592.97 309.38 L 536.72 356.25 L 450.00 382.03 L 281.25 391.41 L 159.38 382.03 L 28.12 349.22 L 2.34 323.44 L 2.34 304.69 L 18.75 290.62 L 98.44 255.47 L 166.41 246.09 L 227.34 246.09" stroke="black" fill="transparent"/>
</svg>