<?xml version="1.0" encoding="UTF-8" standalone="no"?>
<!--Created with ndjsontosvg (https:https://github.com/thompson318/ndjsontosvg) 
	from the simplified Google quickdraw data set. key_id = 6313238721462272-->
<svg width="600" height="600"
	xmlns="http://www.w3.org/2000/svg">
	xmlns:ndjsontosvg="https://github.com/thompson318/ndjsontosvg"
	xmlns:quickdraw="https://quickdraw.withgoogle.com/data"
	xmlns:scikit-surgery="https://doi.org/10.1007/s11548-020-02180-5">

	<rect width="100%" height="100%" fill="white" />
	<path d = "M 124.22 536.72 L 121.88 567.19 L 103.12 576.56 L 63.28 576.56 L 25.78 548.44 L 2.34 489.84 L 2.34 405.47 L 18.75 384.38 L 77.34 356.25 L 173.44 353.91 L 201.56 370.31 L 227.34 431.25 L 227.34 499.22 L 213.28 525.00 L 189.84 539.06 L 119.53 557.81" stroke="black" fill="transparent"/>
	<path d = "M 110.16 351.56 L 107.81 269.53 L 77.34 93.75 L 79.69 60.94 L 187.50 53.91 L 440.62 2.34 L 532.03 0.00 L 536.72 14.06 L 525.00 271.88 L 515.62 314.06" stroke="black" fill="transparent"/>
	<path d = "M 405.47 349.22 L 405.47 314.06 L 424.22 295.31 L 473.44 278.91 L 550.78 278.91 L 576.56 297.66 L 592.97 323.44 L 597.66 349.22 L 597.66 417.19 L 576.56 440.62 L 541.41 461.72 L 454.69 466.41 L 412.50 459.38 L 375.00 435.94 L 342.19 391.41 L 342.19 346.88 L 421.88 314.06 L 487.50 302.34" stroke="black" fill="transparent"/>
</svg>