<?xml version="1.0" encoding="UTF-8" standalone="no"?>
<!--Created with ndjsontosvg (https:https://github.com/thompson318/ndjsontosvg) 
	from the simplified Google quickdraw data set. key_id = 6572559384444928-->
<svg width="600" height="600"
	xmlns="http://www.w3.org/2000/svg">
	xmlns:ndjsontosvg="https://github.com/thompson318/ndjsontosvg"
	xmlns:quickdraw="https://quickdraw.withgoogle.com/data"
	xmlns:scikit-surgery="https://doi.org/10.1007/s11548-020-02180-5">

	<rect width="100%" height="100%" fill="white" />
	<path d = "M 25.78 410.16 L 25.78 274.22 L 44.53 206.25 L 91.41 166.41 L 180.47 107.81 L 349.22 7.03 L 398.44 4.69 L 435.94 58.59 L 454.69 159.38 L 454.69 262.50 L 471.09 300.00 L 564.84 260.16 L 590.62 276.56 L 597.66 292.97 L 597.66 330.47 L 585.94 400.78 L 564.84 445.31 L 546.09 461.72 L 520.31 457.03 L 433.59 419.53 L 431.25 391.41 L 403.12 321.09 L 419.53 274.22 L 424.22 276.56" stroke="black" fill="transparent"/>
	<path d = "M 7.03 307.03 L 75.00 309.38 L 103.12 391.41 L 124.22 501.56 L 124.22 515.62 L 96.09 557.81 L 49.22 546.09 L 21.09 522.66 L 0.00 410.16 L 7.03 358.59 L 18.75 342.19 L 16.41 332.81" stroke="black" fill="transparent"/>
</svg>