<?xml version="1.0" encoding="UTF-8" standalone="no"?>
<!--Created with ndjsontosvg (https:https://github.com/thompson318/ndjsontosvg) 
	from the simplified Google quickdraw data set. key_id = 5058214380961792-->
<svg width="600" height="600"
	xmlns="http://www.w3.org/2000/svg">
	xmlns:ndjsontosvg="https://github.com/thompson318/ndjsontosvg"
	xmlns:quickdraw="https://quickdraw.withgoogle.com/data"
	xmlns:scikit-surgery="https://doi.org/10.1007/s11548-020-02180-5">

	<rect width="100%" height="100%" fill="white" />
	<path d = "M 2.34 220.31 L 0.00 349.22 L 11.72 389.06 L 51.56 424.22 L 70.31 424.22 L 100.78 412.50 L 175.78 360.94 L 189.84 339.84 L 203.91 307.03 L 201.56 255.47 L 171.09 215.62 L 133.59 194.53 L 65.62 194.53 L 32.81 201.56 L 18.75 213.28" stroke="black" fill="transparent"/>
	<path d = "M 147.66 210.94 L 194.53 131.25 L 257.81 67.97 L 356.25 14.06 L 398.44 2.34 L 438.28 0.00 L 471.09 60.94 L 496.88 133.59 L 506.25 199.22 L 508.59 283.59 L 499.22 239.06 L 440.62 239.06 L 414.84 248.44 L 372.66 342.19 L 370.31 412.50 L 391.41 464.06 L 426.56 482.81 L 520.31 461.72 L 583.59 419.53 L 597.66 372.66 L 597.66 335.16 L 583.59 304.69 L 562.50 278.91 L 529.69 264.84 L 478.12 262.50" stroke="black" fill="transparent"/>
	<path d = "M 206.25 220.31 L 225.00 199.22 L 281.25 154.69 L 314.06 140.62 L 358.59 135.94 L 382.03 152.34 L 445.31 236.72" stroke="black" fill="transparent"/>
</svg>