<?xml version="1.0" encoding="UTF-8" standalone="no"?>
<!--Created with ndjsontosvg (https:https://github.com/thompson318/ndjsontosvg) 
	from the simplified Google quickdraw data set. key_id = 6597381732696064-->
<svg width="600" height="600"
	xmlns="http://www.w3.org/2000/svg">
	xmlns:ndjsontosvg="https://github.com/thompson318/ndjsontosvg"
	xmlns:quickdraw="https://quickdraw.withgoogle.com/data"
	xmlns:scikit-surgery="https://doi.org/10.1007/s11548-020-02180-5">

	<rect width="100%" height="100%" fill="white" />
	<path d = "M 142.97 487.50 L 96.09 475.78 L 37.50 447.66 L 7.03 417.19 L 0.00 386.72 L 18.75 358.59 L 58.59 339.84 L 173.44 335.16" stroke="black" fill="transparent"/>
	<path d = "M 173.44 335.16 L 208.59 194.53 L 260.16 77.34 L 281.25 37.50 L 321.09 0.00 L 344.53 0.00 L 417.19 30.47 L 464.06 60.94 L 482.81 84.38 L 501.56 131.25 L 506.25 171.09 L 501.56 309.38" stroke="black" fill="transparent"/>
	<path d = "M 501.56 304.69 L 532.03 300.00 L 571.88 314.06 L 585.94 325.78 L 597.66 367.97 L 595.31 407.81 L 576.56 438.28 L 553.12 454.69 L 506.25 459.38" stroke="black" fill="transparent"/>
</svg>