<?xml version="1.0" encoding="UTF-8" standalone="no"?>
<!--Created with ndjsontosvg (https:https://github.com/thompson318/ndjsontosvg) 
	from the simplified Google quickdraw data set. key_id = 4549264782917632-->
<svg width="600" height="600"
	xmlns="http://www.w3.org/2000/svg">
	xmlns:ndjsontosvg="https://github.com/thompson318/ndjsontosvg"
	xmlns:quickdraw="https://quickdraw.withgoogle.com/data"
	xmlns:scikit-surgery="https://doi.org/10.1007/s11548-020-02180-5">

	<rect width="100%" height="100%" fill="white" />
	<path d = "M 0.00 496.88 L 21.09 412.50 L 21.09 349.22 L 35.16 253.12 L 65.62 241.41 L 79.69 243.75 L 93.75 250.78 L 110.16 278.91 L 112.50 428.91 L 93.75 485.16 L 58.59 520.31 L 25.78 525.00 L 11.72 536.72 L 9.38 529.69" stroke="black" fill="transparent"/>
	<path d = "M 65.62 269.53 L 67.97 234.38 L 91.41 171.09 L 145.31 91.41 L 161.72 75.00 L 260.16 16.41 L 328.12 0.00 L 419.53 4.69 L 517.97 44.53 L 557.81 75.00 L 590.62 112.50 L 597.66 171.09" stroke="black" fill="transparent"/>
	<path d = "M 595.31 199.22 L 583.59 250.78" stroke="black" fill="transparent"/>
</svg>