<?xml version="1.0" encoding="UTF-8" standalone="no"?>
<!--Created with ndjsontosvg (https:https://github.com/thompson318/ndjsontosvg) 
	from the simplified Google quickdraw data set. key_id = 6162633143091200-->
<svg width="600" height="600"
	xmlns="http://www.w3.org/2000/svg">
	xmlns:ndjsontosvg="https://github.com/thompson318/ndjsontosvg"
	xmlns:quickdraw="https://quickdraw.withgoogle.com/data"
	xmlns:scikit-surgery="https://doi.org/10.1007/s11548-020-02180-5">

	<rect width="100%" height="100%" fill="white" />
	<path d = "M 142.97 145.31 L 131.25 168.75 L 100.78 187.50 L 65.62 199.22 L 18.75 194.53 L 7.03 199.22 L 4.69 210.94 L 63.28 295.31 L 105.47 318.75 L 124.22 318.75" stroke="black" fill="transparent"/>
	<path d = "M 23.44 201.56 L 0.00 171.09 L 0.00 182.81 L 9.38 194.53 L 0.00 171.09 L 16.41 178.12" stroke="black" fill="transparent"/>
	<path d = "M 171.09 215.62 L 168.75 222.66" stroke="black" fill="transparent"/>
	<path d = "M 119.53 210.94 L 119.53 210.94" stroke="black" fill="transparent"/>
	<path d = "M 124.22 201.56 L 119.53 215.62 L 121.88 201.56" stroke="black" fill="transparent"/>
	<path d = "M 142.97 135.94 L 173.44 84.38 L 257.81 4.69 L 278.91 0.00 L 283.59 11.72 L 257.81 72.66 L 292.97 44.53 L 346.88 18.75 L 407.81 4.69 L 435.94 4.69 L 435.94 16.41 L 379.69 75.00 L 440.62 70.31 L 489.84 72.66 L 529.69 89.06 L 557.81 107.81 L 485.16 124.22 L 553.12 140.62 L 590.62 166.41 L 597.66 180.47 L 557.81 194.53 L 541.41 206.25 L 553.12 227.34" stroke="black" fill="transparent"/>
	<path d = "M 131.25 314.06 L 234.38 339.84 L 342.19 342.19 L 386.72 330.47 L 426.56 330.47 L 492.19 307.03 L 536.72 255.47 L 543.75 232.03" stroke="black" fill="transparent"/>
	<path d = "M 178.12 309.38 L 185.16 363.28 L 196.88 372.66 L 206.25 365.62 L 208.59 339.84" stroke="black" fill="transparent"/>
	<path d = "M 276.56 318.75 L 274.22 342.19 L 288.28 358.59 L 300.00 351.56 L 309.38 325.78" stroke="black" fill="transparent"/>
	<path d = "M 356.25 316.41 L 372.66 356.25 L 382.03 360.94 L 391.41 353.91 L 396.09 335.16" stroke="black" fill="transparent"/>
</svg>