<?xml version="1.0" encoding="UTF-8" standalone="no"?>
<!--Created with ndjsontosvg (https:https://github.com/thompson318/ndjsontosvg) 
	from the simplified Google quickdraw data set. key_id = 5377010463408128-->
<svg width="600" height="600"
	xmlns="http://www.w3.org/2000/svg">
	xmlns:ndjsontosvg="https://github.com/thompson318/ndjsontosvg"
	xmlns:quickdraw="https://quickdraw.withgoogle.com/data"
	xmlns:scikit-surgery="https://doi.org/10.1007/s11548-020-02180-5">

	<rect width="100%" height="100%" fill="white" />
	<path d = "M 11.72 257.81 L 14.06 196.88 L 23.44 168.75 L 56.25 131.25 L 114.84 96.09 L 161.72 86.72 L 227.34 86.72 L 271.88 96.09 L 367.97 131.25 L 424.22 175.78 L 454.69 215.62 L 454.69 271.88 L 440.62 292.97 L 424.22 302.34 L 339.84 311.72 L 206.25 281.25 L 121.88 278.91 L 82.03 264.84 L 0.00 253.12" stroke="black" fill="transparent"/>
	<path d = "M 461.72 257.81 L 520.31 255.47 L 536.72 269.53 L 536.72 288.28 L 506.25 297.66 L 442.97 292.97" stroke="black" fill="transparent"/>
	<path d = "M 414.84 166.41 L 583.59 253.12 L 595.31 267.19 L 595.31 283.59 L 562.50 297.66 L 487.50 300.00 L 375.00 267.19" stroke="black" fill="transparent"/>
	<path d = "M 145.31 89.06 L 150.00 192.19 L 152.34 208.59 L 161.72 213.28 L 213.28 121.88 L 220.31 121.88 L 236.72 208.59 L 290.62 126.56 L 332.81 77.34 L 342.19 75.00 L 346.88 82.03 L 344.53 128.91 L 398.44 79.69 L 417.19 75.00 L 417.19 82.03 L 353.91 173.44 L 335.16 178.12 L 307.03 164.06 L 239.06 98.44 L 206.25 51.56 L 192.19 11.72 L 168.75 112.50 L 154.69 126.56 L 112.50 126.56 L 96.09 114.84 L 51.56 114.84 L 32.81 65.62 L 28.12 89.06 L 44.53 128.91 L 84.38 166.41 L 121.88 173.44" stroke="black" fill="transparent"/>
	<path d = "M 128.91 166.41 L 135.94 140.62 L 145.31 0.00 L 171.09 60.94 L 180.47 135.94 L 239.06 79.69 L 281.25 63.28 L 288.28 84.38 L 292.97 180.47" stroke="black" fill="transparent"/>
</svg>