<?xml version="1.0" encoding="UTF-8" standalone="no"?>
<!--Created with ndjsontosvg (https:https://github.com/thompson318/ndjsontosvg) 
	from the simplified Google quickdraw data set. key_id = 5318892538822656-->
<svg width="600" height="600"
	xmlns="http://www.w3.org/2000/svg">
	xmlns:ndjsontosvg="https://github.com/thompson318/ndjsontosvg"
	xmlns:quickdraw="https://quickdraw.withgoogle.com/data"
	xmlns:scikit-surgery="https://doi.org/10.1007/s11548-020-02180-5">

	<rect width="100%" height="100%" fill="white" />
	<path d = "M 70.31 234.38 L 65.62 222.66 L 75.00 194.53 L 105.47 157.03 L 180.47 121.88 L 276.56 96.09 L 428.91 77.34 L 466.41 84.38 L 520.31 131.25 L 534.38 180.47 L 529.69 215.62 L 487.50 264.84 L 424.22 307.03 L 367.97 318.75 L 302.34 318.75 L 185.16 285.94 L 91.41 271.88" stroke="black" fill="transparent"/>
	<path d = "M 79.69 241.41 L 58.59 227.34 L 32.81 194.53 L 0.00 91.41 L 21.09 100.78 L 128.91 201.56 L 164.06 206.25 L 178.12 192.19 L 185.16 150.00 L 166.41 21.09 L 185.16 23.44 L 203.91 42.19 L 269.53 159.38 L 283.59 171.09 L 321.09 53.91 L 349.22 0.00 L 353.91 37.50 L 349.22 159.38 L 360.94 152.34 L 435.94 65.62 L 464.06 46.88 L 403.12 229.69 L 457.03 187.50 L 487.50 152.34 L 536.72 110.16 L 548.44 121.88 L 546.09 152.34 L 525.00 208.59 L 597.66 107.81 L 597.66 133.59 L 546.09 250.78 L 536.72 267.19 L 532.03 241.41 L 541.41 180.47 L 525.00 173.44 L 396.09 323.44 L 391.41 323.44 L 396.09 178.12 L 318.75 278.91 L 321.09 225.00 L 330.47 206.25 L 318.75 225.00 L 295.31 239.06 L 267.19 178.12 L 255.47 178.12 L 229.69 213.28 L 220.31 253.12" stroke="black" fill="transparent"/>
	<path d = "M 105.47 255.47 L 63.28 239.06 L 39.84 253.12 L 30.47 269.53 L 39.84 295.31 L 53.91 307.03 L 100.78 318.75 L 121.88 304.69 L 126.56 285.94 L 126.56 250.78 L 117.19 234.38 L 70.31 222.66 L 60.94 241.41 L 60.94 274.22" stroke="black" fill="transparent"/>
</svg>