<?xml version="1.0" encoding="UTF-8" standalone="no"?>
<!--Created with ndjsontosvg (https:https://github.com/thompson318/ndjsontosvg) 
	from the simplified Google quickdraw data set. key_id = 5660663839981568-->
<svg width="600" height="600"
	xmlns="http://www.w3.org/2000/svg">
	xmlns:ndjsontosvg="https://github.com/thompson318/ndjsontosvg"
	xmlns:quickdraw="https://quickdraw.withgoogle.com/data"
	xmlns:scikit-surgery="https://doi.org/10.1007/s11548-020-02180-5">

	<rect width="100%" height="100%" fill="white" />
	<path d = "M 250.78 131.25 L 253.12 222.66 L 243.75 175.78 L 255.47 126.56 L 234.38 119.53 L 255.47 117.19 L 246.09 124.22 L 117.19 119.53 L 0.00 140.62 L 105.47 117.19 L 208.59 119.53 L 250.78 114.84 L 152.34 0.00 L 220.31 70.31 L 257.81 131.25 L 283.59 82.03 L 304.69 63.28 L 339.84 49.22 L 372.66 46.88 L 241.41 117.19 L 201.56 159.38 L 292.97 138.28 L 386.72 128.91 L 459.38 126.56 L 517.97 138.28 L 457.03 140.62 L 346.88 107.81 L 194.53 103.12" stroke="black" fill="transparent"/>
	<path d = "M 243.75 208.59 L 201.56 199.22 L 159.38 201.56 L 53.91 248.44 L 37.50 264.84 L 37.50 276.56 L 44.53 311.72 L 63.28 342.19 L 217.97 358.59 L 309.38 351.56 L 405.47 335.16 L 595.31 182.81 L 592.97 159.38 L 583.59 157.03 L 532.03 194.53 L 461.72 229.69 L 426.56 220.31 L 351.56 213.28 L 271.88 215.62" stroke="black" fill="transparent"/>
</svg>