<?xml version="1.0" encoding="UTF-8" standalone="no"?>
<!--Created with ndjsontosvg (https:https://github.com/thompson318/ndjsontosvg) 
	from the simplified Google quickdraw data set. key_id = 5132677420154880-->
<svg width="600" height="600"
	xmlns="http://www.w3.org/2000/svg">
	xmlns:ndjsontosvg="https://github.com/thompson318/ndjsontosvg"
	xmlns:quickdraw="https://quickdraw.withgoogle.com/data"
	xmlns:scikit-surgery="https://doi.org/10.1007/s11548-020-02180-5">

	<rect width="100%" height="100%" fill="white" />
	<path d = "M 330.47 314.06 L 180.47 346.88 L 128.91 391.41 L 124.22 414.84 L 142.97 428.91 L 213.28 450.00 L 262.50 452.34 L 398.44 400.78 L 421.88 367.97 L 424.22 332.81 L 412.50 318.75 L 384.38 307.03 L 304.69 302.34" stroke="black" fill="transparent"/>
	<path d = "M 271.88 318.75 L 269.53 285.94" stroke="black" fill="transparent"/>
	<path d = "M 262.50 278.91 L 243.75 285.94 L 161.72 285.94 L 157.03 267.19 L 196.88 222.66 L 257.81 215.62 L 360.94 213.28 L 391.41 220.31 L 414.84 236.72 L 410.16 243.75 L 379.69 248.44 L 267.19 288.28" stroke="black" fill="transparent"/>
	<path d = "M 142.97 379.69 L 39.84 396.09" stroke="black" fill="transparent"/>
	<path d = "M 37.50 393.75 L 28.12 339.84 L 53.91 309.38 L 77.34 311.72 L 121.88 367.97" stroke="black" fill="transparent"/>
	<path d = "M 335.16 290.62 L 328.12 360.94 L 351.56 363.28 L 417.19 344.53" stroke="black" fill="transparent"/>
	<path d = "M 215.62 239.06 L 278.91 260.16" stroke="black" fill="transparent"/>
	<path d = "M 297.66 225.00 L 276.56 267.19" stroke="black" fill="transparent"/>
	<path d = "M 353.91 264.84 L 339.84 264.84 L 309.38 239.06" stroke="black" fill="transparent"/>
	<path d = "M 288.28 281.25 L 257.81 253.12" stroke="black" fill="transparent"/>
	<path d = "M 187.50 278.91 L 248.44 225.00" stroke="black" fill="transparent"/>
	<path d = "M 100.78 253.12 L 79.69 239.06 L 25.78 180.47 L 0.00 140.62 L 32.81 147.66 L 117.19 185.16 L 121.88 161.72 L 110.16 96.09" stroke="black" fill="transparent"/>
	<path d = "M 234.38 164.06 L 243.75 154.69 L 234.38 0.00" stroke="black" fill="transparent"/>
	<path d = "M 314.06 119.53 L 330.47 128.91 L 339.84 119.53 L 351.56 58.59" stroke="black" fill="transparent"/>
	<path d = "M 468.75 128.91 L 482.81 91.41" stroke="black" fill="transparent"/>
	<path d = "M 555.47 234.38 L 597.66 225.00" stroke="black" fill="transparent"/>
</svg>