<?xml version="1.0" encoding="UTF-8" standalone="no"?>
<!--Created with ndjsontosvg (https:https://github.com/thompson318/ndjsontosvg) 
	from the simplified Google quickdraw data set. key_id = 4610064797138944-->
<svg width="600" height="600"
	xmlns="http://www.w3.org/2000/svg">
	xmlns:ndjsontosvg="https://github.com/thompson318/ndjsontosvg"
	xmlns:quickdraw="https://quickdraw.withgoogle.com/data"
	xmlns:scikit-surgery="https://doi.org/10.1007/s11548-020-02180-5">

	<rect width="100%" height="100%" fill="white" />
	<path d = "M 332.81 325.78 L 196.88 302.34 L 126.56 311.72 L 58.59 342.19 L 25.78 370.31 L 0.00 407.81 L 7.03 433.59 L 35.16 450.00 L 89.06 454.69 L 157.03 440.62 L 271.88 403.12 L 328.12 398.44 L 405.47 421.88 L 501.56 464.06 L 527.34 466.41 L 560.16 447.66 L 578.91 417.19 L 588.28 351.56 L 578.91 323.44 L 564.84 307.03 L 508.59 269.53 L 464.06 262.50 L 410.16 271.88 L 332.81 302.34 L 264.84 342.19" stroke="black" fill="transparent"/>
	<path d = "M 260.16 321.09 L 260.16 302.34 L 295.31 215.62 L 297.66 180.47 L 290.62 112.50 L 180.47 98.44 L 138.28 107.81 L 121.88 119.53" stroke="black" fill="transparent"/>
	<path d = "M 250.78 135.94 L 248.44 105.47 L 283.59 58.59 L 344.53 7.03 L 372.66 0.00" stroke="black" fill="transparent"/>
	<path d = "M 281.25 112.50 L 314.06 96.09 L 419.53 82.03" stroke="black" fill="transparent"/>
	<path d = "M 269.53 133.59 L 173.44 196.88 L 114.84 222.66" stroke="black" fill="transparent"/>
	<path d = "M 288.28 119.53 L 339.84 150.00 L 468.75 180.47" stroke="black" fill="transparent"/>
	<path d = "M 234.38 431.25 L 255.47 515.62 L 250.78 536.72 L 154.69 557.81 L 117.19 576.56 L 121.88 585.94 L 171.09 597.66 L 325.78 576.56 L 330.47 567.19 L 276.56 419.53 L 274.22 384.38" stroke="black" fill="transparent"/>
</svg>