<?xml version="1.0" encoding="UTF-8" standalone="no"?>
<!--Created with ndjsontosvg (https:https://github.com/thompson318/ndjsontosvg) 
	from the simplified Google quickdraw data set. key_id = 5975146529554432-->
<svg width="600" height="600"
	xmlns="http://www.w3.org/2000/svg">
	xmlns:ndjsontosvg="https://github.com/thompson318/ndjsontosvg"
	xmlns:quickdraw="https://quickdraw.withgoogle.com/data"
	xmlns:scikit-surgery="https://doi.org/10.1007/s11548-020-02180-5">

	<rect width="100%" height="100%" fill="white" />
	<path d = "M 267.19 222.66 L 257.81 208.59 L 203.91 208.59 L 180.47 217.97 L 0.00 215.62" stroke="black" fill="transparent"/>
	<path d = "M 260.16 208.59 L 267.19 196.88 L 307.03 192.19 L 569.53 89.06" stroke="black" fill="transparent"/>
	<path d = "M 236.72 253.12 L 241.41 44.53 L 222.66 0.00" stroke="black" fill="transparent"/>
	<path d = "M 269.53 217.97 L 140.62 297.66 L 100.78 332.81 L 196.88 405.47" stroke="black" fill="transparent"/>
	<path d = "M 285.94 194.53 L 297.66 206.25 L 302.34 225.00 L 473.44 248.44" stroke="black" fill="transparent"/>
	<path d = "M 267.19 241.41 L 262.50 316.41 L 274.22 414.84" stroke="black" fill="transparent"/>
	<path d = "M 126.56 407.81 L 117.19 412.50 L 135.94 414.84 L 234.38 412.50 L 346.88 391.41 L 407.81 391.41 L 450.00 400.78 L 468.75 417.19 L 485.16 489.84 L 503.91 515.62 L 501.56 555.47 L 480.47 588.28 L 457.03 597.66 L 386.72 597.66 L 180.47 567.19 L 114.84 585.94 L 82.03 571.88 L 58.59 532.03 L 58.59 459.38 L 86.72 433.59 L 138.28 403.12 L 159.38 398.44 L 168.75 407.81 L 189.84 405.47" stroke="black" fill="transparent"/>
</svg>