<?xml version="1.0" encoding="UTF-8" standalone="no"?>
<!--Created with ndjsontosvg (https:https://github.com/thompson318/ndjsontosvg) 
	from the simplified Google quickdraw data set. key_id = 4593050753957888-->
<svg width="600" height="600"
	xmlns="http://www.w3.org/2000/svg">
	xmlns:ndjsontosvg="https://github.com/thompson318/ndjsontosvg"
	xmlns:quickdraw="https://quickdraw.withgoogle.com/data"
	xmlns:scikit-surgery="https://doi.org/10.1007/s11548-020-02180-5">

	<rect width="100%" height="100%" fill="white" />
	<path d = "M 215.62 182.81 L 159.38 206.25 L 93.75 253.12 L 65.62 285.94 L 18.75 309.38 L 0.00 349.22 L 0.00 379.69 L 9.38 386.72 L 32.81 398.44 L 75.00 396.09 L 168.75 372.66 L 208.59 372.66 L 337.50 351.56 L 522.66 351.56 L 548.44 396.09 L 567.19 487.50 L 583.59 419.53 L 583.59 356.25 L 597.66 274.22 L 590.62 185.16 L 581.25 182.81 L 578.91 192.19 L 550.78 288.28 L 527.34 297.66 L 433.59 297.66 L 375.00 288.28 L 337.50 271.88 L 328.12 253.12 L 328.12 196.88 L 316.41 173.44 L 262.50 161.72 L 225.00 168.75" stroke="black" fill="transparent"/>
	<path d = "M 217.97 370.31 L 217.97 466.41" stroke="black" fill="transparent"/>
	<path d = "M 271.88 356.25 L 269.53 454.69" stroke="black" fill="transparent"/>
	<path d = "M 58.59 454.69 L 56.25 466.41 L 65.62 475.78 L 91.41 485.16 L 250.78 468.75 L 337.50 468.75 L 377.34 452.34 L 424.22 396.09" stroke="black" fill="transparent"/>
	<path d = "M 234.38 159.38 L 236.72 112.50 L 246.09 103.12 L 269.53 103.12 L 271.88 147.66" stroke="black" fill="transparent"/>
	<path d = "M 239.06 100.78 L 37.50 105.47 L 21.09 91.41 L 63.28 72.66 L 239.06 100.78 L 274.22 98.44" stroke="black" fill="transparent"/>
	<path d = "M 276.56 105.47 L 358.59 121.88 L 414.84 119.53 L 487.50 103.12 L 494.53 84.38 L 471.09 75.00 L 246.09 100.78" stroke="black" fill="transparent"/>
	<path d = "M 239.06 98.44 L 243.75 89.06 L 288.28 51.56 L 349.22 14.06 L 384.38 2.34 L 410.16 2.34 L 421.88 9.38 L 407.81 25.78 L 300.00 84.38 L 236.72 107.81 L 145.31 164.06 L 117.19 208.59 L 154.69 201.56 L 271.88 107.81" stroke="black" fill="transparent"/>
	<path d = "M 46.88 309.38 L 89.06 304.69" stroke="black" fill="transparent"/>
</svg>