<?xml version="1.0" encoding="UTF-8" standalone="no"?>
<!--Created with ndjsontosvg (https:https://github.com/thompson318/ndjsontosvg) 
	from the simplified Google quickdraw data set. key_id = 5239652053155840-->
<svg width="600" height="600"
	xmlns="http://www.w3.org/2000/svg">
	xmlns:ndjsontosvg="https://github.com/thompson318/ndjsontosvg"
	xmlns:quickdraw="https://quickdraw.withgoogle.com/data"
	xmlns:scikit-surgery="https://doi.org/10.1007/s11548-020-02180-5">

	<rect width="100%" height="100%" fill="white" />
	<path d = "M 7.03 201.56 L 21.09 164.06 L 53.91 128.91 L 126.56 98.44 L 227.34 79.69 L 295.31 84.38 L 325.78 100.78 L 363.28 159.38 L 365.62 178.12 L 356.25 194.53 L 314.06 220.31 L 243.75 234.38 L 159.38 232.03 L 0.00 208.59" stroke="black" fill="transparent"/>
	<path d = "M 232.03 77.34 L 232.03 9.38" stroke="black" fill="transparent"/>
	<path d = "M 49.22 9.38 L 372.66 0.00" stroke="black" fill="transparent"/>
	<path d = "M 367.97 154.69 L 513.28 140.62 L 560.16 70.31 L 571.88 166.41 L 473.44 173.44 L 344.53 168.75" stroke="black" fill="transparent"/>
	<path d = "M 503.91 91.41 L 522.66 100.78 L 569.53 145.31 L 597.66 189.84" stroke="black" fill="transparent"/>
	<path d = "M 581.25 89.06 L 532.03 185.16" stroke="black" fill="transparent"/>
	<path d = "M 112.50 232.03 L 110.16 246.09" stroke="black" fill="transparent"/>
	<path d = "M 9.38 269.53 L 349.22 253.12" stroke="black" fill="transparent"/>
	<path d = "M 283.59 229.69 L 290.62 246.09" stroke="black" fill="transparent"/>
	<path d = "M 112.50 98.44 L 206.25 110.16 L 210.94 131.25 L 196.88 161.72 L 171.09 175.78 L 140.62 180.47 L 2.34 185.16" stroke="black" fill="transparent"/>
</svg>