<?xml version="1.0" encoding="UTF-8" standalone="no"?>
<!--Created with ndjsontosvg (https:https://github.com/thompson318/ndjsontosvg) 
	from the simplified Google quickdraw data set. key_id = 5748855859576832-->
<svg width="600" height="600"
	xmlns="http://www.w3.org/2000/svg">
	xmlns:ndjsontosvg="https://github.com/thompson318/ndjsontosvg"
	xmlns:quickdraw="https://quickdraw.withgoogle.com/data"
	xmlns:scikit-surgery="https://doi.org/10.1007/s11548-020-02180-5">

	<rect width="100%" height="100%" fill="white" />
	<path d = "M 16.41 318.75 L 96.09 318.75 L 159.38 295.31 L 185.16 295.31 L 297.66 309.38 L 382.03 351.56 L 503.91 342.19 L 532.03 255.47 L 541.41 65.62 L 496.88 32.81 L 337.50 0.00 L 241.41 9.38 L 168.75 37.50 L 133.59 63.28 L 86.72 119.53 L 39.84 203.91 L 0.00 295.31 L 4.69 309.38 L 21.09 309.38" stroke="black" fill="transparent"/>
	<path d = "M 105.47 121.88 L 119.53 121.88 L 154.69 96.09 L 257.81 39.84 L 311.72 23.44 L 367.97 23.44 L 403.12 32.81 L 473.44 72.66" stroke="black" fill="transparent"/>
	<path d = "M 131.25 152.34 L 196.88 150.00 L 302.34 110.16 L 398.44 114.84 L 414.84 126.56 L 419.53 145.31" stroke="black" fill="transparent"/>
	<path d = "M 246.09 311.72 L 241.41 506.25 L 232.03 560.16 L 208.59 567.19" stroke="black" fill="transparent"/>
	<path d = "M 91.41 335.16 L 93.75 517.97 L 107.81 548.44 L 145.31 588.28 L 157.03 592.97 L 187.50 588.28" stroke="black" fill="transparent"/>
	<path d = "M 187.50 588.28 L 182.81 527.34 L 215.62 546.09 L 225.00 592.97 L 215.62 597.66 L 196.88 590.62 L 199.22 553.12" stroke="black" fill="transparent"/>
</svg>