<?xml version="1.0" encoding="UTF-8" standalone="no"?>
<!--Created with ndjsontosvg (https:https://github.com/thompson318/ndjsontosvg) 
	from the simplified Google quickdraw data set. key_id = 6011573493563392-->
<svg width="600" height="600"
	xmlns="http://www.w3.org/2000/svg">
	xmlns:ndjsontosvg="https://github.com/thompson318/ndjsontosvg"
	xmlns:quickdraw="https://quickdraw.withgoogle.com/data"
	xmlns:scikit-surgery="https://doi.org/10.1007/s11548-020-02180-5">

	<rect width="100%" height="100%" fill="white" />
	<path d = "M 157.03 424.22 L 154.69 379.69 L 164.06 335.16 L 194.53 278.91 L 278.91 199.22 L 323.44 192.19 L 360.94 201.56 L 396.09 234.38 L 450.00 321.09 L 492.19 428.91 L 546.09 428.91 L 562.50 417.19 L 590.62 349.22 L 597.66 300.00 L 590.62 206.25 L 576.56 168.75 L 487.50 70.31 L 365.62 16.41 L 309.38 2.34 L 271.88 0.00 L 189.84 18.75 L 135.94 39.84 L 53.91 105.47 L 14.06 173.44 L 0.00 239.06 L 14.06 367.97 L 39.84 424.22 L 77.34 452.34 L 135.94 454.69 L 182.81 440.62" stroke="black" fill="transparent"/>
	<path d = "M 60.94 93.75 L 56.25 131.25 L 70.31 283.59 L 119.53 421.88" stroke="black" fill="transparent"/>
	<path d = "M 166.41 72.66 L 159.38 271.88 L 166.41 302.34" stroke="black" fill="transparent"/>
	<path d = "M 288.28 51.56 L 281.25 227.34" stroke="black" fill="transparent"/>
	<path d = "M 414.84 86.72 L 398.44 222.66" stroke="black" fill="transparent"/>
	<path d = "M 503.91 150.00 L 494.53 234.38 L 496.88 330.47" stroke="black" fill="transparent"/>
	<path d = "M 583.59 288.28 L 585.94 297.66" stroke="black" fill="transparent"/>
	<path d = "M 583.59 440.62 L 583.59 440.62" stroke="black" fill="transparent"/>
</svg>