<?xml version="1.0" encoding="UTF-8" standalone="no"?>
<!--Created with ndjsontosvg (https:https://github.com/thompson318/ndjsontosvg) 
	from the simplified Google quickdraw data set. key_id = 5615558718390272-->
<svg width="600" height="600"
	xmlns="http://www.w3.org/2000/svg">
	xmlns:ndjsontosvg="https://github.com/thompson318/ndjsontosvg"
	xmlns:quickdraw="https://quickdraw.withgoogle.com/data"
	xmlns:scikit-surgery="https://doi.org/10.1007/s11548-020-02180-5">

	<rect width="100%" height="100%" fill="white" />
	<path d = "M 30.47 285.94 L 72.66 318.75 L 119.53 339.84 L 227.34 351.56 L 391.41 356.25 L 464.06 342.19 L 597.66 276.56" stroke="black" fill="transparent"/>
	<path d = "M 16.41 262.50 L 0.00 246.09 L 9.38 203.91 L 51.56 140.62 L 121.88 70.31 L 178.12 39.84 L 246.09 14.06 L 325.78 0.00 L 414.84 0.00 L 471.09 14.06 L 539.06 82.03 L 569.53 121.88 L 576.56 142.97 L 588.28 271.88" stroke="black" fill="transparent"/>
	<path d = "M 267.19 150.00 L 269.53 91.41 L 288.28 82.03 L 344.53 82.03 L 346.88 164.06 L 426.56 164.06 L 435.94 175.78 L 433.59 189.84 L 419.53 203.91 L 379.69 225.00 L 309.38 222.66 L 307.03 300.00 L 295.31 307.03 L 257.81 307.03 L 250.78 288.28 L 250.78 215.62 L 243.75 203.91 L 199.22 201.56 L 192.19 180.47 L 196.88 166.41 L 271.88 157.03" stroke="black" fill="transparent"/>
</svg>