<?xml version="1.0" encoding="UTF-8" standalone="no"?>
<!--Created with ndjsontosvg (https:https://github.com/thompson318/ndjsontosvg) 
	from the simplified Google quickdraw data set. key_id = 6232445236019200-->
<svg width="600" height="600"
	xmlns="http://www.w3.org/2000/svg">
	xmlns:ndjsontosvg="https://github.com/thompson318/ndjsontosvg"
	xmlns:quickdraw="https://quickdraw.withgoogle.com/data"
	xmlns:scikit-surgery="https://doi.org/10.1007/s11548-020-02180-5">

	<rect width="100%" height="100%" fill="white" />
	<path d = "M 234.38 187.50 L 175.78 178.12 L 77.34 189.84 L 44.53 196.88 L 11.72 220.31 L 2.34 250.78 L 35.16 281.25 L 98.44 300.00 L 182.81 300.00 L 213.28 288.28 L 257.81 250.78 L 267.19 217.97 L 264.84 201.56 L 232.03 189.84" stroke="black" fill="transparent"/>
	<path d = "M 0.00 232.03 L 4.69 281.25 L 28.12 311.72 L 168.75 332.81 L 189.84 328.12 L 232.03 300.00 L 274.22 241.41" stroke="black" fill="transparent"/>
	<path d = "M 349.22 213.28 L 457.03 236.72 L 508.59 203.91 L 529.69 178.12 L 548.44 128.91 L 550.78 0.00 L 583.59 9.38 L 595.31 65.62 L 590.62 152.34 L 581.25 192.19 L 541.41 253.12 L 501.56 271.88 L 457.03 276.56 L 379.69 264.84 L 353.91 203.91" stroke="black" fill="transparent"/>
</svg>