<?xml version="1.0" encoding="UTF-8" standalone="no"?>
<!--Created with ndjsontosvg (https:https://github.com/thompson318/ndjsontosvg) 
	from the simplified Google quickdraw data set. key_id = 5115615301861376-->
<svg width="600" height="600"
	xmlns="http://www.w3.org/2000/svg">
	xmlns:ndjsontosvg="https://github.com/thompson318/ndjsontosvg"
	xmlns:quickdraw="https://quickdraw.withgoogle.com/data"
	xmlns:scikit-surgery="https://doi.org/10.1007/s11548-020-02180-5">

	<rect width="100%" height="100%" fill="white" />
	<path d = "M 508.59 89.06 L 510.94 93.75 L 571.88 119.53 L 597.66 100.78 L 595.31 84.38 L 585.94 65.62 L 569.53 53.91 L 543.75 56.25 L 510.94 39.84 L 487.50 0.00 L 428.91 23.44 L 440.62 51.56 L 382.03 96.09 L 339.84 114.84 L 264.84 107.81 L 152.34 117.19 L 91.41 131.25 L 37.50 182.81 L 0.00 246.09 L 25.78 262.50 L 60.94 234.38 L 70.31 203.91 L 93.75 208.59" stroke="black" fill="transparent"/>
	<path d = "M 112.50 203.91 L 124.22 225.00 L 168.75 241.41 L 180.47 288.28 L 225.00 307.03 L 246.09 290.62 L 241.41 234.38 L 311.72 243.75 L 311.72 288.28 L 339.84 290.62 L 377.34 281.25 L 367.97 225.00 L 417.19 255.47 L 412.50 288.28" stroke="black" fill="transparent"/>
</svg>