<?xml version="1.0" encoding="UTF-8" standalone="no"?>
<!--Created with ndjsontosvg (https:https://github.com/thompson318/ndjsontosvg) 
	from the simplified Google quickdraw data set. key_id = 5573659613724672-->
<svg width="600" height="600"
	xmlns="http://www.w3.org/2000/svg">
	xmlns:ndjsontosvg="https://github.com/thompson318/ndjsontosvg"
	xmlns:quickdraw="https://quickdraw.withgoogle.com/data"
	xmlns:scikit-surgery="https://doi.org/10.1007/s11548-020-02180-5">

	<rect width="100%" height="100%" fill="white" />
	<path d = "M 49.22 46.88 L 2.34 98.44 L 7.03 114.84 L 30.47 119.53 L 63.28 117.19 L 112.50 91.41" stroke="black" fill="transparent"/>
	<path d = "M 51.56 46.88 L 75.00 21.09 L 103.12 2.34 L 126.56 0.00 L 157.03 11.72 L 229.69 72.66 L 262.50 70.31 L 311.72 105.47 L 349.22 105.47 L 375.00 126.56 L 445.31 131.25 L 496.88 124.22 L 527.34 147.66 L 597.66 154.69" stroke="black" fill="transparent"/>
	<path d = "M 121.88 89.06 L 37.50 358.59 L 37.50 382.03 L 89.06 391.41 L 114.84 375.00 L 140.62 323.44 L 152.34 236.72 L 217.97 337.50 L 239.06 346.88 L 274.22 255.47 L 276.56 182.81 L 311.72 227.34 L 379.69 241.41 L 382.03 276.56 L 407.81 328.12 L 414.84 325.78 L 445.31 271.88 L 447.66 236.72 L 464.06 321.09 L 478.12 325.78 L 503.91 323.44 L 517.97 295.31 L 515.62 222.66" stroke="black" fill="transparent"/>
</svg>