<?xml version="1.0" encoding="UTF-8" standalone="no"?>
<!--Created with ndjsontosvg (https:https://github.com/thompson318/ndjsontosvg) 
	from the simplified Google quickdraw data set. key_id = 5794519750541312-->
<svg width="600" height="600"
	xmlns="http://www.w3.org/2000/svg">
	xmlns:ndjsontosvg="https://github.com/thompson318/ndjsontosvg"
	xmlns:quickdraw="https://quickdraw.withgoogle.com/data"
	xmlns:scikit-surgery="https://doi.org/10.1007/s11548-020-02180-5">

	<rect width="100%" height="100%" fill="white" />
	<path d = "M 255.47 445.31 L 257.81 241.41" stroke="black" fill="transparent"/>
	<path d = "M 213.28 236.72 L 194.53 337.50 L 192.19 424.22" stroke="black" fill="transparent"/>
	<path d = "M 459.38 236.72 L 457.03 309.38 L 424.22 442.97" stroke="black" fill="transparent"/>
	<path d = "M 536.72 232.03 L 485.16 398.44 L 475.78 473.44 L 466.41 471.09" stroke="black" fill="transparent"/>
	<path d = "M 164.06 187.50 L 173.44 220.31 L 208.59 248.44 L 330.47 283.59 L 386.72 288.28 L 450.00 271.88 L 590.62 253.12 L 597.66 217.97 L 592.97 189.84 L 555.47 150.00 L 433.59 112.50 L 367.97 110.16 L 208.59 135.94 L 171.09 161.72 L 157.03 187.50" stroke="black" fill="transparent"/>
	<path d = "M 161.72 157.03 L 161.72 30.47 L 152.34 18.75 L 93.75 0.00 L 60.94 0.00 L 0.00 51.56 L 11.72 67.97 L 51.56 72.66 L 121.88 67.97 L 142.97 96.09 L 154.69 175.78" stroke="black" fill="transparent"/>
	<path d = "M 56.25 21.09 L 63.28 28.12" stroke="black" fill="transparent"/>
</svg>