<?xml version="1.0" encoding="UTF-8" standalone="no"?>
<!--Created with ndjsontosvg (https:https://github.com/thompson318/ndjsontosvg) 
	from the simplified Google quickdraw data set. key_id = 5943341059407872-->
<svg width="600" height="600"
	xmlns="http://www.w3.org/2000/svg">
	xmlns:ndjsontosvg="https://github.com/thompson318/ndjsontosvg"
	xmlns:quickdraw="https://quickdraw.withgoogle.com/data"
	xmlns:scikit-surgery="https://doi.org/10.1007/s11548-020-02180-5">

	<rect width="100%" height="100%" fill="white" />
	<path d = "M 142.97 67.97 L 37.50 117.19 L 14.06 135.94 L 0.00 159.38 L 21.09 159.38 L 77.34 140.62 L 142.97 154.69 L 161.72 152.34" stroke="black" fill="transparent"/>
	<path d = "M 142.97 67.97 L 159.38 0.00 L 187.50 58.59 L 213.28 77.34 L 349.22 91.41 L 506.25 86.72 L 578.91 110.16 L 597.66 124.22" stroke="black" fill="transparent"/>
	<path d = "M 157.03 164.06 L 213.28 157.03 L 229.69 164.06 L 239.06 180.47 L 243.75 232.03 L 236.72 339.84 L 260.16 379.69 L 271.88 377.34 L 276.56 365.62 L 278.91 246.09 L 288.28 229.69 L 309.38 225.00 L 321.09 225.00 L 330.47 239.06 L 335.16 300.00 L 344.53 309.38 L 358.59 302.34 L 358.59 253.12 L 365.62 241.41 L 386.72 227.34 L 407.81 227.34 L 410.16 342.19 L 421.88 372.66 L 442.97 377.34 L 457.03 316.41 L 454.69 225.00 L 466.41 203.91 L 492.19 192.19" stroke="black" fill="transparent"/>
</svg>