<?xml version="1.0" encoding="UTF-8" standalone="no"?>
<!--Created with ndjsontosvg (https:https://github.com/thompson318/ndjsontosvg) 
	from the simplified Google quickdraw data set. key_id = 4924124356935680-->
<svg width="600" height="600"
	xmlns="http://www.w3.org/2000/svg">
	xmlns:ndjsontosvg="https://github.com/thompson318/ndjsontosvg"
	xmlns:quickdraw="https://quickdraw.withgoogle.com/data"
	xmlns:scikit-surgery="https://doi.org/10.1007/s11548-020-02180-5">

	<rect width="100%" height="100%" fill="white" />
	<path d = "M 86.72 75.00 L 21.09 103.12 L 2.34 131.25 L 0.00 171.09 L 16.41 196.88 L 30.47 201.56" stroke="black" fill="transparent"/>
	<path d = "M 103.12 70.31 L 152.34 25.78 L 159.38 93.75 L 171.09 93.75" stroke="black" fill="transparent"/>
	<path d = "M 70.31 56.25 L 91.41 21.09 L 126.56 2.34 L 150.00 0.00 L 157.03 28.12" stroke="black" fill="transparent"/>
	<path d = "M 178.12 84.38 L 300.00 60.94 L 471.09 60.94 L 499.22 67.97 L 534.38 93.75 L 562.50 147.66 L 588.28 276.56 L 597.66 426.56 L 585.94 442.97 L 550.78 447.66 L 489.84 407.81 L 475.78 384.38 L 471.09 358.59 L 468.75 288.28 L 457.03 292.97 L 403.12 353.91 L 367.97 382.03 L 311.72 403.12 L 253.12 400.78 L 220.31 375.00 L 217.97 307.03 L 243.75 253.12 L 215.62 285.94 L 171.09 309.38 L 107.81 325.78 L 51.56 328.12 L 16.41 307.03 L 7.03 290.62 L 11.72 253.12 L 44.53 227.34 L 37.50 213.28" stroke="black" fill="transparent"/>
</svg>