<?xml version="1.0" encoding="UTF-8" standalone="no"?>
<!--Created with ndjsontosvg (https:https://github.com/thompson318/ndjsontosvg) 
	from the simplified Google quickdraw data set. key_id = 4642927332556800-->
<svg width="600" height="600"
	xmlns="http://www.w3.org/2000/svg">
	xmlns:ndjsontosvg="https://github.com/thompson318/ndjsontosvg"
	xmlns:quickdraw="https://quickdraw.withgoogle.com/data"
	xmlns:scikit-surgery="https://doi.org/10.1007/s11548-020-02180-5">

	<rect width="100%" height="100%" fill="white" />
	<path d = "M 37.50 21.09 L 2.34 37.50 L 4.69 65.62 L 28.12 91.41 L 70.31 84.38 L 86.72 91.41 L 96.09 105.47 L 110.16 196.88 L 135.94 227.34 L 255.47 222.66" stroke="black" fill="transparent"/>
	<path d = "M 234.38 182.81 L 269.53 246.09 L 271.88 297.66 L 262.50 358.59 L 281.25 356.25 L 290.62 332.81 L 290.62 192.19" stroke="black" fill="transparent"/>
	<path d = "M 337.50 178.12 L 311.72 239.06 L 304.69 271.88 L 309.38 318.75 L 330.47 372.66 L 356.25 363.28 L 349.22 269.53 L 396.09 182.81" stroke="black" fill="transparent"/>
	<path d = "M 32.81 16.41 L 63.28 0.00 L 98.44 4.69 L 168.75 82.03 L 192.19 96.09 L 323.44 96.09 L 382.03 82.03 L 421.88 79.69 L 485.16 103.12 L 522.66 126.56 L 553.12 180.47 L 576.56 194.53 L 597.66 196.88 L 546.09 210.94 L 471.09 161.72 L 445.31 161.72 L 396.09 189.84" stroke="black" fill="transparent"/>
</svg>