<?xml version="1.0" encoding="UTF-8" standalone="no"?>
<!--Created with ndjsontosvg (https:https://github.com/thompson318/ndjsontosvg) 
	from the simplified Google quickdraw data set. key_id = 6343303488339968-->
<svg width="600" height="600"
	xmlns="http://www.w3.org/2000/svg">
	xmlns:ndjsontosvg="https://github.com/thompson318/ndjsontosvg"
	xmlns:quickdraw="https://quickdraw.withgoogle.com/data"
	xmlns:scikit-surgery="https://doi.org/10.1007/s11548-020-02180-5">

	<rect width="100%" height="100%" fill="white" />
	<path d = "M 199.22 60.94 L 91.41 182.81 L 11.72 304.69 L 0.00 344.53 L 4.69 370.31 L 37.50 377.34 L 67.97 351.56 L 60.94 346.88 L 30.47 375.00 L 25.78 410.16 L 51.56 419.53 L 107.81 412.50 L 285.94 248.44 L 323.44 203.91 L 335.16 180.47" stroke="black" fill="transparent"/>
	<path d = "M 135.94 133.59 L 189.84 75.00 L 215.62 14.06 L 234.38 70.31 L 248.44 56.25 L 269.53 0.00 L 316.41 63.28 L 454.69 157.03 L 442.97 175.78" stroke="black" fill="transparent"/>
	<path d = "M 271.88 264.84 L 379.69 346.88 L 482.81 396.09" stroke="black" fill="transparent"/>
	<path d = "M 445.31 164.06 L 457.03 166.41 L 522.66 246.09 L 574.22 285.94" stroke="black" fill="transparent"/>
	<path d = "M 159.38 84.38 L 135.94 91.41 L 110.16 117.19 L 152.34 70.31 L 150.00 89.06 L 103.12 157.03 L 157.03 96.09 L 175.78 63.28 L 166.41 65.62 L 145.31 105.47 L 135.94 138.28 L 171.09 105.47 L 189.84 75.00 L 185.16 63.28 L 166.41 75.00 L 180.47 79.69" stroke="black" fill="transparent"/>
	<path d = "M 215.62 60.94 L 239.06 49.22 L 225.00 51.56 L 239.06 51.56 L 222.66 56.25" stroke="black" fill="transparent"/>
	<path d = "M 288.28 53.91 L 379.69 100.78 L 330.47 44.53 L 353.91 79.69 L 424.22 145.31 L 414.84 117.19 L 365.62 56.25 L 386.72 86.72 L 487.50 175.78 L 597.66 295.31" stroke="black" fill="transparent"/>
	<path d = "M 51.56 264.84 L 65.62 262.50 L 107.81 290.62 L 157.03 367.97 L 164.06 370.31" stroke="black" fill="transparent"/>
</svg>