<?xml version="1.0" encoding="UTF-8" standalone="no"?>
<!--Created with ndjsontosvg (https:https://github.com/thompson318/ndjsontosvg) 
	from the simplified Google quickdraw data set. key_id = 5518286173241344-->
<svg width="600" height="600"
	xmlns="http://www.w3.org/2000/svg">
	xmlns:ndjsontosvg="https://github.com/thompson318/ndjsontosvg"
	xmlns:quickdraw="https://quickdraw.withgoogle.com/data"
	xmlns:scikit-surgery="https://doi.org/10.1007/s11548-020-02180-5">

	<rect width="100%" height="100%" fill="white" />
	<path d = "M 96.09 25.78 L 44.53 53.91 L 9.38 98.44 L 0.00 126.56 L 9.38 135.94 L 32.81 133.59 L 110.16 77.34 L 171.09 152.34 L 159.38 241.41 L 175.78 239.06 L 194.53 171.09 L 196.88 232.03 L 208.59 248.44 L 217.97 234.38 L 227.34 166.41 L 250.78 180.47 L 283.59 187.50 L 316.41 175.78 L 337.50 152.34 L 342.19 210.94 L 353.91 225.00 L 360.94 215.62 L 363.28 164.06 L 379.69 206.25 L 393.75 213.28 L 407.81 203.91 L 410.16 173.44 L 403.12 147.66 L 546.09 203.91 L 583.59 201.56 L 597.66 187.50 L 592.97 164.06 L 567.19 140.62 L 515.62 112.50 L 438.28 86.72 L 428.91 70.31 L 400.78 42.19 L 323.44 7.03 L 285.94 0.00 L 255.47 7.03 L 229.69 37.50 L 208.59 86.72 L 201.56 86.72 L 180.47 72.66" stroke="black" fill="transparent"/>
</svg>