<?xml version="1.0" encoding="UTF-8" standalone="no"?>
<!--Created with ndjsontosvg (https:https://github.com/thompson318/ndjsontosvg) 
	from the simplified Google quickdraw data set. key_id = 5186671970615296-->
<svg width="600" height="600"
	xmlns="http://www.w3.org/2000/svg">
	xmlns:ndjsontosvg="https://github.com/thompson318/ndjsontosvg"
	xmlns:quickdraw="https://quickdraw.withgoogle.com/data"
	xmlns:scikit-surgery="https://doi.org/10.1007/s11548-020-02180-5">

	<rect width="100%" height="100%" fill="white" />
	<path d = "M 503.91 28.12 L 487.50 23.44 L 452.34 32.81 L 403.12 65.62 L 384.38 110.16 L 375.00 175.78 L 365.62 185.16 L 180.47 173.44 L 126.56 185.16 L 121.88 274.22 L 142.97 363.28 L 154.69 386.72 L 187.50 389.06 L 182.81 314.06 L 199.22 297.66 L 222.66 302.34 L 243.75 367.97 L 262.50 375.00 L 283.59 372.66 L 292.97 353.91 L 288.28 309.38 L 314.06 292.97 L 339.84 307.03 L 344.53 379.69 L 370.31 377.34 L 379.69 356.25 L 379.69 295.31 L 391.41 285.94 L 400.78 290.62 L 414.84 318.75 L 421.88 370.31 L 435.94 379.69 L 450.00 372.66 L 459.38 344.53 L 440.62 267.19 L 464.06 248.44 L 438.28 217.97 L 410.16 199.22 L 407.81 185.16 L 440.62 145.31 L 492.19 110.16 L 532.03 93.75 L 564.84 105.47 L 585.94 103.12 L 597.66 77.34 L 592.97 46.88 L 555.47 11.72 L 515.62 0.00 L 482.81 4.69" stroke="black" fill="transparent"/>
	<path d = "M 124.22 199.22 L 105.47 194.53 L 84.38 201.56 L 28.12 255.47 L 2.34 307.03 L 4.69 384.38" stroke="black" fill="transparent"/>
	<path d = "M 117.19 236.72 L 89.06 241.41 L 46.88 290.62 L 23.44 363.28 L 25.78 431.25" stroke="black" fill="transparent"/>
	<path d = "M 121.88 220.31 L 96.09 227.34 L 70.31 246.09 L 49.22 264.84 L 28.12 297.66 L 14.06 370.31 L 30.47 424.22" stroke="black" fill="transparent"/>
	<path d = "M 98.44 192.19 L 77.34 199.22 L 46.88 227.34 L 7.03 304.69 L 0.00 382.03 L 18.75 447.66" stroke="black" fill="transparent"/>
</svg>