<?xml version="1.0" encoding="UTF-8" standalone="no"?>
<!--Created with ndjsontosvg (https:https://github.com/thompson318/ndjsontosvg) 
	from the simplified Google quickdraw data set. key_id = 5421889981775872-->
<svg width="600" height="600"
	xmlns="http://www.w3.org/2000/svg">
	xmlns:ndjsontosvg="https://github.com/thompson318/ndjsontosvg"
	xmlns:quickdraw="https://quickdraw.withgoogle.com/data"
	xmlns:scikit-surgery="https://doi.org/10.1007/s11548-020-02180-5">

	<rect width="100%" height="100%" fill="white" />
	<path d = "M 96.09 447.66 L 93.75 452.34 L 91.41 442.97 L 77.34 274.22 L 67.97 2.34 L 201.56 14.06 L 435.94 14.06 L 571.88 0.00 L 560.16 117.19 L 555.47 264.84 L 525.00 539.06 L 278.91 525.00 L 2.34 527.34 L 18.75 515.62" stroke="black" fill="transparent"/>
	<path d = "M 206.25 487.50 L 203.91 398.44 L 382.03 370.31 L 353.91 489.84 L 344.53 595.31 L 337.50 592.97" stroke="black" fill="transparent"/>
	<path d = "M 276.56 396.09 L 276.56 522.66" stroke="black" fill="transparent"/>
	<path d = "M 248.44 475.78 L 248.44 475.78" stroke="black" fill="transparent"/>
	<path d = "M 253.12 464.06 L 253.12 459.38 L 257.81 464.06 L 257.81 475.78 L 255.47 468.75" stroke="black" fill="transparent"/>
	<path d = "M 288.28 457.03 L 292.97 471.09 L 290.62 459.38" stroke="black" fill="transparent"/>
	<path d = "M 250.78 63.28 L 274.22 276.56" stroke="black" fill="transparent"/>
	<path d = "M 267.19 187.50 L 370.31 187.50" stroke="black" fill="transparent"/>
	<path d = "M 358.59 100.78 L 382.03 342.19" stroke="black" fill="transparent"/>
</svg>