<?xml version="1.0" encoding="UTF-8" standalone="no"?>
<!--Created with ndjsontosvg (https:https://github.com/thompson318/ndjsontosvg) 
	from the simplified Google quickdraw data set. key_id = 6288358835748864-->
<svg width="600" height="600"
	xmlns="http://www.w3.org/2000/svg">
	xmlns:ndjsontosvg="https://github.com/thompson318/ndjsontosvg"
	xmlns:quickdraw="https://quickdraw.withgoogle.com/data"
	xmlns:scikit-surgery="https://doi.org/10.1007/s11548-020-02180-5">

	<rect width="100%" height="100%" fill="white" />
	<path d = "M 2.34 86.72 L 119.53 98.44 L 241.41 100.78 L 257.81 7.03 L 391.41 2.34 L 405.47 28.12 L 414.84 91.41 L 424.22 114.84 L 520.31 112.50 L 583.59 121.88 L 597.66 222.66 L 597.66 332.81" stroke="black" fill="transparent"/>
	<path d = "M 2.34 79.69 L 2.34 114.84 L 18.75 178.12 L 23.44 318.75" stroke="black" fill="transparent"/>
	<path d = "M 309.38 185.16 L 311.72 248.44 L 323.44 318.75" stroke="black" fill="transparent"/>
	<path d = "M 309.38 175.78 L 389.06 180.47 L 407.81 318.75" stroke="black" fill="transparent"/>
	<path d = "M 82.03 166.41 L 103.12 241.41" stroke="black" fill="transparent"/>
	<path d = "M 96.09 208.59 L 119.53 189.84" stroke="black" fill="transparent"/>
	<path d = "M 114.84 152.34 L 114.84 164.06" stroke="black" fill="transparent"/>
</svg>