<?xml version="1.0" encoding="UTF-8" standalone="no"?>
<!--Created with ndjsontosvg (https:https://github.com/thompson318/ndjsontosvg) 
	from the simplified Google quickdraw data set. key_id = 5755824678895616-->
<svg width="600" height="600"
	xmlns="http://www.w3.org/2000/svg">
	xmlns:ndjsontosvg="https://github.com/thompson318/ndjsontosvg"
	xmlns:quickdraw="https://quickdraw.withgoogle.com/data"
	xmlns:scikit-surgery="https://doi.org/10.1007/s11548-020-02180-5">

	<rect width="100%" height="100%" fill="white" />
	<path d = "M 30.47 358.59 L 39.84 171.09 L 65.62 161.72 L 164.06 91.41 L 253.12 0.00 L 311.72 42.19 L 410.16 93.75 L 424.22 241.41 L 475.78 525.00 L 445.31 541.41 L 363.28 548.44 L 292.97 567.19 L 4.69 597.66 L 2.34 553.12 L 30.47 351.56" stroke="black" fill="transparent"/>
	<path d = "M 196.88 241.41 L 196.88 173.44 L 274.22 159.38 L 267.19 302.34 L 363.28 292.97 L 377.34 339.84 L 377.34 365.62 L 325.78 386.72 L 257.81 405.47 L 236.72 471.09 L 203.91 494.53 L 187.50 492.19 L 175.78 426.56 L 107.81 419.53 L 105.47 344.53 L 110.16 300.00 L 194.53 278.91 L 192.19 213.28" stroke="black" fill="transparent"/>
</svg>