<?xml version="1.0" encoding="UTF-8" standalone="no"?>
<!--Created with ndjsontosvg (https:https://github.com/thompson318/ndjsontosvg) 
	from the simplified Google quickdraw data set. key_id = 5831151044263936-->
<svg width="600" height="600"
	xmlns="http://www.w3.org/2000/svg">
	xmlns:ndjsontosvg="https://github.com/thompson318/ndjsontosvg"
	xmlns:quickdraw="https://quickdraw.withgoogle.com/data"
	xmlns:scikit-surgery="https://doi.org/10.1007/s11548-020-02180-5">

	<rect width="100%" height="100%" fill="white" />
	<path d = "M 70.31 239.06 L 135.94 239.06 L 585.94 185.16 L 595.31 180.47 L 597.66 161.72 L 532.03 89.06 L 496.88 91.41 L 431.25 119.53 L 175.78 196.88 L 53.91 206.25 L 49.22 222.66 L 77.34 253.12 L 103.12 239.06" stroke="black" fill="transparent"/>
	<path d = "M 56.25 196.88 L 18.75 201.56 L 7.03 194.53 L 0.00 166.41 L 21.09 145.31 L 147.66 114.84 L 370.31 9.38 L 489.84 2.34 L 590.62 35.16 L 597.66 60.94 L 583.59 67.97 L 489.84 70.31" stroke="black" fill="transparent"/>
	<path d = "M 60.94 128.91 L 56.25 84.38 L 257.81 0.00" stroke="black" fill="transparent"/>
</svg>