<?xml version="1.0" encoding="UTF-8" standalone="no"?>
<!--Created with ndjsontosvg (https:https://github.com/thompson318/ndjsontosvg) 
	from the simplified Google quickdraw data set. key_id = 4642244231430144-->
<svg width="600" height="600"
	xmlns="http://www.w3.org/2000/svg">
	xmlns:ndjsontosvg="https://github.com/thompson318/ndjsontosvg"
	xmlns:quickdraw="https://quickdraw.withgoogle.com/data"
	xmlns:scikit-surgery="https://doi.org/10.1007/s11548-020-02180-5">

	<rect width="100%" height="100%" fill="white" />
	<path d = "M 70.31 508.59 L 196.88 499.22 L 201.56 520.31 L 182.81 576.56 L 171.09 592.97 L 119.53 597.66 L 89.06 569.53 L 79.69 548.44 L 72.66 471.09 L 91.41 328.12" stroke="black" fill="transparent"/>
	<path d = "M 201.56 496.88 L 189.84 482.81 L 187.50 346.88" stroke="black" fill="transparent"/>
	<path d = "M 192.19 344.53 L 121.88 342.19 L 70.31 304.69 L 44.53 269.53 L 11.72 206.25 L 2.34 173.44 L 2.34 119.53 L 16.41 84.38 L 42.19 46.88 L 70.31 23.44 L 119.53 2.34 L 173.44 0.00 L 201.56 9.38 L 243.75 32.81 L 278.91 67.97 L 309.38 138.28 L 307.03 215.62 L 281.25 276.56 L 262.50 302.34 L 243.75 325.78 L 187.50 363.28" stroke="black" fill="transparent"/>
	<path d = "M 145.31 332.81 L 145.31 285.94 L 131.25 229.69 L 112.50 100.78 L 82.03 4.69" stroke="black" fill="transparent"/>
	<path d = "M 196.88 337.50 L 182.81 328.12 L 173.44 302.34 L 166.41 187.50 L 173.44 119.53 L 210.94 11.72" stroke="black" fill="transparent"/>
</svg>