<?xml version="1.0" encoding="UTF-8" standalone="no"?>
<!--Created with ndjsontosvg (https:https://github.com/thompson318/ndjsontosvg) 
	from the simplified Google quickdraw data set. key_id = 5001537455652864-->
<svg width="600" height="600"
	xmlns="http://www.w3.org/2000/svg">
	xmlns:ndjsontosvg="https://github.com/thompson318/ndjsontosvg"
	xmlns:quickdraw="https://quickdraw.withgoogle.com/data"
	xmlns:scikit-surgery="https://doi.org/10.1007/s11548-020-02180-5">

	<rect width="100%" height="100%" fill="white" />
	<path d = "M 138.28 370.31 L 257.81 351.56 L 332.81 349.22 L 389.06 292.97 L 419.53 243.75 L 433.59 194.53 L 433.59 157.03 L 398.44 42.19 L 372.66 2.34 L 119.53 0.00 L 63.28 23.44 L 32.81 46.88 L 9.38 93.75 L 0.00 131.25 L 4.69 213.28 L 23.44 253.12 L 70.31 290.62 L 112.50 353.91 L 138.28 367.97" stroke="black" fill="transparent"/>
	<path d = "M 142.97 365.62 L 152.34 480.47" stroke="black" fill="transparent"/>
	<path d = "M 316.41 363.28 L 307.03 442.97" stroke="black" fill="transparent"/>
	<path d = "M 145.31 482.81 L 208.59 466.41 L 358.59 459.38 L 363.28 546.09 L 351.56 569.53 L 309.38 585.94 L 225.00 597.66 L 192.19 597.66 L 175.78 583.59 L 140.62 517.97 L 135.94 478.12" stroke="black" fill="transparent"/>
</svg>