<?xml version="1.0" encoding="UTF-8" standalone="no"?>
<!--Created with ndjsontosvg (https:https://github.com/thompson318/ndjsontosvg) 
	from the simplified Google quickdraw data set. key_id = 6097574119342080-->
<svg width="600" height="600"
	xmlns="http://www.w3.org/2000/svg">
	xmlns:ndjsontosvg="https://github.com/thompson318/ndjsontosvg"
	xmlns:quickdraw="https://quickdraw.withgoogle.com/data"
	xmlns:scikit-surgery="https://doi.org/10.1007/s11548-020-02180-5">

	<rect width="100%" height="100%" fill="white" />
	<path d = "M 133.59 527.34 L 131.25 435.94" stroke="black" fill="transparent"/>
	<path d = "M 278.91 529.69 L 269.53 492.19 L 269.53 433.59" stroke="black" fill="transparent"/>
	<path d = "M 79.69 426.56 L 112.50 426.56 L 159.38 440.62 L 260.16 440.62 L 314.06 412.50 L 365.62 360.94 L 389.06 300.00 L 407.81 138.28 L 379.69 63.28 L 349.22 28.12 L 321.09 14.06 L 241.41 0.00 L 135.94 2.34 L 63.28 28.12 L 23.44 60.94 L 7.03 89.06 L 2.34 124.22 L 2.34 295.31 L 35.16 393.75 L 63.28 424.22 L 100.78 442.97" stroke="black" fill="transparent"/>
	<path d = "M 117.19 529.69 L 323.44 527.34 L 318.75 578.91 L 304.69 597.66 L 124.22 592.97" stroke="black" fill="transparent"/>
</svg>