<?xml version="1.0" encoding="UTF-8" standalone="no"?>
<!--Created with ndjsontosvg (https:https://github.com/thompson318/ndjsontosvg) 
	from the simplified Google quickdraw data set. key_id = 5190876445802496-->
<svg width="600" height="600"
	xmlns="http://www.w3.org/2000/svg">
	xmlns:ndjsontosvg="https://github.com/thompson318/ndjsontosvg"
	xmlns:quickdraw="https://quickdraw.withgoogle.com/data"
	xmlns:scikit-surgery="https://doi.org/10.1007/s11548-020-02180-5">

	<rect width="100%" height="100%" fill="white" />
	<path d = "M 159.38 517.97 L 44.53 403.12 L 2.34 328.12 L 67.97 304.69 L 208.59 290.62 L 468.75 300.00 L 508.59 307.03 L 478.12 403.12 L 442.97 480.47 L 414.84 506.25 L 358.59 515.62 L 150.00 515.62" stroke="black" fill="transparent"/>
	<path d = "M 147.66 257.81 L 110.16 234.38 L 98.44 210.94 L 119.53 119.53 L 75.00 30.47" stroke="black" fill="transparent"/>
	<path d = "M 300.00 246.09 L 243.75 199.22 L 241.41 173.44 L 295.31 86.72 L 274.22 16.41" stroke="black" fill="transparent"/>
	<path d = "M 407.81 222.66 L 407.81 210.94 L 363.28 142.97 L 363.28 100.78 L 398.44 39.84 L 367.97 0.00" stroke="black" fill="transparent"/>
	<path d = "M 159.38 527.34 L 145.31 597.66" stroke="black" fill="transparent"/>
	<path d = "M 414.84 513.28 L 442.97 562.50" stroke="black" fill="transparent"/>
	<path d = "M 7.03 328.12 L 51.56 346.88 L 257.81 375.00 L 445.31 330.47 L 485.16 307.03" stroke="black" fill="transparent"/>
	<path d = "M 79.69 360.94 L 110.16 335.16 L 159.38 318.75 L 222.66 328.12 L 323.44 316.41 L 393.75 321.09" stroke="black" fill="transparent"/>
</svg>