<?xml version="1.0" encoding="UTF-8" standalone="no"?>
<!--Created with ndjsontosvg (https:https://github.com/thompson318/ndjsontosvg) 
	from the simplified Google quickdraw data set. key_id = 5139208861646848-->
<svg width="600" height="600"
	xmlns="http://www.w3.org/2000/svg">
	xmlns:ndjsontosvg="https://github.com/thompson318/ndjsontosvg"
	xmlns:quickdraw="https://quickdraw.withgoogle.com/data"
	xmlns:scikit-surgery="https://doi.org/10.1007/s11548-020-02180-5">

	<rect width="100%" height="100%" fill="white" />
	<path d = "M 49.22 241.41 L 53.91 372.66 L 63.28 414.84 L 79.69 461.72 L 112.50 515.62 L 140.62 539.06 L 206.25 562.50 L 257.81 569.53 L 316.41 562.50 L 417.19 532.03 L 464.06 496.88 L 506.25 450.00 L 569.53 321.09 L 583.59 253.12 L 578.91 232.03 L 550.78 222.66 L 468.75 220.31 L 63.28 239.06" stroke="black" fill="transparent"/>
	<path d = "M 185.16 192.19 L 157.03 112.50 L 131.25 86.72 L 140.62 51.56 L 166.41 14.06" stroke="black" fill="transparent"/>
	<path d = "M 365.62 168.75 L 325.78 119.53 L 269.53 86.72 L 262.50 70.31 L 276.56 39.84 L 307.03 0.00" stroke="black" fill="transparent"/>
	<path d = "M 471.09 206.25 L 478.12 157.03 L 471.09 131.25 L 464.06 112.50 L 438.28 93.75 L 433.59 79.69 L 454.69 51.56" stroke="black" fill="transparent"/>
	<path d = "M 28.12 255.47 L 0.00 450.00 L 2.34 501.56 L 16.41 529.69 L 103.12 543.75 L 363.28 541.41 L 569.53 550.78" stroke="black" fill="transparent"/>
	<path d = "M 597.66 210.94 L 590.62 557.81" stroke="black" fill="transparent"/>
</svg>