<?xml version="1.0" encoding="UTF-8" standalone="no"?>
<!--Created with ndjsontosvg (https:https://github.com/thompson318/ndjsontosvg) 
	from the simplified Google quickdraw data set. key_id = 5460527725674496-->
<svg width="600" height="600"
	xmlns="http://www.w3.org/2000/svg">
	xmlns:ndjsontosvg="https://github.com/thompson318/ndjsontosvg"
	xmlns:quickdraw="https://quickdraw.withgoogle.com/data"
	xmlns:scikit-surgery="https://doi.org/10.1007/s11548-020-02180-5">

	<rect width="100%" height="100%" fill="white" />
	<path d = "M 25.78 98.44 L 39.84 105.47 L 353.91 105.47 L 527.34 58.59" stroke="black" fill="transparent"/>
	<path d = "M 25.78 75.00 L 9.38 121.88 L 7.03 164.06 L 49.22 210.94 L 119.53 236.72 L 182.81 243.75 L 267.19 243.75 L 403.12 227.34 L 508.59 182.81 L 555.47 154.69 L 564.84 140.62 L 574.22 65.62" stroke="black" fill="transparent"/>
	<path d = "M 175.78 21.09 L 51.56 21.09 L 14.06 35.16 L 2.34 44.53 L 0.00 58.59 L 18.75 79.69 L 58.59 91.41 L 173.44 93.75 L 405.47 77.34 L 597.66 21.09 L 576.56 9.38 L 527.34 0.00 L 405.47 0.00 L 161.72 32.81 L 35.16 39.84 L 267.19 44.53 L 508.59 25.78 L 410.16 28.12 L 178.12 72.66 L 147.66 72.66 L 164.06 67.97 L 276.56 63.28 L 546.09 28.12 L 133.59 32.81 L 107.81 42.19 L 114.84 53.91 L 201.56 75.00 L 316.41 75.00 L 480.47 46.88 L 386.72 75.00 L 302.34 86.72 L 168.75 86.72 L 135.94 89.06 L 114.84 98.44" stroke="black" fill="transparent"/>
</svg>