<?xml version="1.0" encoding="UTF-8" standalone="no"?>
<!--Created with ndjsontosvg (https:https://github.com/thompson318/ndjsontosvg) 
	from the simplified Google quickdraw data set. key_id = 5863829135163392-->
<svg width="600" height="600"
	xmlns="http://www.w3.org/2000/svg">
	xmlns:ndjsontosvg="https://github.com/thompson318/ndjsontosvg"
	xmlns:quickdraw="https://quickdraw.withgoogle.com/data"
	xmlns:scikit-surgery="https://doi.org/10.1007/s11548-020-02180-5">

	<rect width="100%" height="100%" fill="white" />
	<path d = "M 232.03 100.78 L 232.03 65.62 L 206.25 51.56 L 161.72 58.59 L 147.66 67.97 L 140.62 98.44 L 150.00 253.12 L 196.88 464.06 L 210.94 475.78 L 234.38 471.09 L 248.44 440.62 L 250.78 196.88 L 246.09 103.12" stroke="black" fill="transparent"/>
	<path d = "M 124.22 2.34 L 321.09 2.34 L 358.59 14.06 L 391.41 44.53 L 391.41 403.12 L 360.94 508.59 L 342.19 534.38 L 292.97 574.22 L 267.19 588.28 L 217.97 597.66 L 114.84 597.66 L 21.09 585.94 L 4.69 576.56 L 0.00 267.19 L 16.41 103.12 L 75.00 16.41 L 110.16 9.38" stroke="black" fill="transparent"/>
	<path d = "M 138.28 0.00 L 119.53 0.00 L 114.84 9.38 L 96.09 96.09 L 100.78 550.78" stroke="black" fill="transparent"/>
	<path d = "M 307.03 11.72 L 297.66 44.53 L 290.62 555.47" stroke="black" fill="transparent"/>
</svg>