<?xml version="1.0" encoding="UTF-8" standalone="no"?>
<!--Created with ndjsontosvg (https:https://github.com/thompson318/ndjsontosvg) 
	from the simplified Google quickdraw data set. key_id = 5954358757818368-->
<svg width="600" height="600"
	xmlns="http://www.w3.org/2000/svg">
	xmlns:ndjsontosvg="https://github.com/thompson318/ndjsontosvg"
	xmlns:quickdraw="https://quickdraw.withgoogle.com/data"
	xmlns:scikit-surgery="https://doi.org/10.1007/s11548-020-02180-5">

	<rect width="100%" height="100%" fill="white" />
	<path d = "M 35.16 185.16 L 164.06 316.41 L 213.28 384.38 L 515.62 384.38 L 520.31 370.31 L 499.22 344.53 L 325.78 229.69 L 276.56 157.03 L 114.84 152.34 L 39.84 171.09 L 9.38 187.50 L 0.00 199.22" stroke="black" fill="transparent"/>
	<path d = "M 16.41 173.44 L 63.28 304.69 L 105.47 447.66 L 114.84 532.03" stroke="black" fill="transparent"/>
	<path d = "M 215.62 400.78 L 215.62 527.34" stroke="black" fill="transparent"/>
	<path d = "M 522.66 379.69 L 515.62 506.25 L 503.91 578.91 L 494.53 597.66 L 407.81 553.12 L 321.09 543.75 L 222.66 543.75 L 171.09 520.31 L 128.91 513.28" stroke="black" fill="transparent"/>
	<path d = "M 110.16 192.19 L 180.47 288.28 L 227.34 323.44 L 227.34 335.16 L 217.97 339.84 L 208.59 321.09" stroke="black" fill="transparent"/>
	<path d = "M 199.22 203.91 L 241.41 248.44 L 302.34 339.84 L 318.75 351.56 L 311.72 344.53" stroke="black" fill="transparent"/>
	<path d = "M 264.84 210.94 L 328.12 271.88 L 337.50 300.00 L 365.62 342.19 L 396.09 360.94 L 389.06 349.22" stroke="black" fill="transparent"/>
	<path d = "M 58.59 98.44 L 86.72 60.94 L 86.72 23.44 L 98.44 9.38" stroke="black" fill="transparent"/>
	<path d = "M 171.09 82.03 L 196.88 84.38 L 236.72 56.25 L 248.44 42.19 L 253.12 0.00" stroke="black" fill="transparent"/>
	<path d = "M 337.50 175.78 L 384.38 131.25 L 386.72 105.47 L 407.81 79.69" stroke="black" fill="transparent"/>
	<path d = "M 410.16 269.53 L 442.97 241.41 L 450.00 194.53 L 473.44 166.41" stroke="black" fill="transparent"/>
</svg>