<?xml version="1.0" encoding="UTF-8" standalone="no"?>
<!--Created with ndjsontosvg (https:https://github.com/thompson318/ndjsontosvg) 
	from the simplified Google quickdraw data set. key_id = 6031436303826944-->
<svg width="600" height="600"
	xmlns="http://www.w3.org/2000/svg">
	xmlns:ndjsontosvg="https://github.com/thompson318/ndjsontosvg"
	xmlns:quickdraw="https://quickdraw.withgoogle.com/data"
	xmlns:scikit-surgery="https://doi.org/10.1007/s11548-020-02180-5">

	<rect width="100%" height="100%" fill="white" />
	<path d = "M 147.66 314.06 L 58.59 175.78 L 53.91 119.53 L 60.94 98.44 L 114.84 49.22 L 182.81 16.41 L 241.41 0.00 L 297.66 0.00 L 335.16 9.38 L 363.28 18.75 L 389.06 42.19 L 421.88 133.59 L 421.88 152.34 L 372.66 234.38 L 285.94 314.06 L 267.19 351.56" stroke="black" fill="transparent"/>
	<path d = "M 267.19 351.56 L 262.50 370.31" stroke="black" fill="transparent"/>
	<path d = "M 49.22 379.69 L 46.88 382.03" stroke="black" fill="transparent"/>
	<path d = "M 0.00 332.81 L 0.00 332.81" stroke="black" fill="transparent"/>
	<path d = "M 145.31 309.38 L 133.59 377.34 L 70.31 407.81 L 65.62 464.06 L 86.72 527.34 L 114.84 550.78 L 173.44 576.56 L 236.72 592.97 L 292.97 597.66 L 304.69 590.62 L 370.31 480.47 L 375.00 447.66 L 353.91 417.19 L 328.12 382.03 L 283.59 363.28" stroke="black" fill="transparent"/>
</svg>