<?xml version="1.0" encoding="UTF-8" standalone="no"?>
<!--Created with ndjsontosvg (https:https://github.com/thompson318/ndjsontosvg) 
	from the simplified Google quickdraw data set. key_id = 4586933713895424-->
<svg width="600" height="600"
	xmlns="http://www.w3.org/2000/svg">
	xmlns:ndjsontosvg="https://github.com/thompson318/ndjsontosvg"
	xmlns:quickdraw="https://quickdraw.withgoogle.com/data"
	xmlns:scikit-surgery="https://doi.org/10.1007/s11548-020-02180-5">

	<rect width="100%" height="100%" fill="white" />
	<path d = "M 140.62 42.19 L 121.88 37.50 L 58.59 63.28 L 51.56 72.66 L 67.97 79.69 L 405.47 89.06 L 496.88 84.38 L 503.91 51.56 L 492.19 42.19 L 379.69 25.78 L 124.22 25.78 L 77.34 37.50 L 58.59 49.22 L 51.56 72.66 L 93.75 75.00" stroke="black" fill="transparent"/>
	<path d = "M 103.12 0.00 L 11.72 63.28 L 2.34 77.34 L 0.00 105.47 L 7.03 126.56 L 21.09 145.31 L 51.56 164.06 L 105.47 175.78 L 283.59 166.41 L 396.09 154.69 L 452.34 131.25 L 546.09 121.88 L 595.31 93.75 L 597.66 82.03 L 571.88 56.25 L 527.34 42.19 L 321.09 11.72 L 72.66 11.72" stroke="black" fill="transparent"/>
</svg>