<?xml version="1.0" encoding="UTF-8" standalone="no"?>
<!--Created with ndjsontosvg (https:https://github.com/thompson318/ndjsontosvg) 
	from the simplified Google quickdraw data set. key_id = 6699079373422592-->
<svg width="600" height="600"
	xmlns="http://www.w3.org/2000/svg">
	xmlns:ndjsontosvg="https://github.com/thompson318/ndjsontosvg"
	xmlns:quickdraw="https://quickdraw.withgoogle.com/data"
	xmlns:scikit-surgery="https://doi.org/10.1007/s11548-020-02180-5">

	<rect width="100%" height="100%" fill="white" />
	<path d = "M 142.97 405.47 L 105.47 370.31 L 30.47 267.19 L 0.00 194.53 L 7.03 131.25 L 30.47 65.62 L 75.00 23.44 L 133.59 2.34 L 206.25 0.00 L 285.94 28.12 L 318.75 51.56 L 351.56 124.22 L 358.59 203.91 L 339.84 302.34 L 309.38 358.59 L 283.59 379.69 L 185.16 396.09 L 138.28 396.09 L 150.00 424.22 L 250.78 433.59 L 276.56 428.91 L 283.59 389.06" stroke="black" fill="transparent"/>
	<path d = "M 276.56 435.94 L 276.56 438.28" stroke="black" fill="transparent"/>
	<path d = "M 157.03 421.88 L 171.09 487.50" stroke="black" fill="transparent"/>
	<path d = "M 225.00 435.94 L 239.06 487.50" stroke="black" fill="transparent"/>
	<path d = "M 166.41 487.50 L 281.25 480.47 L 276.56 539.06 L 260.16 597.66" stroke="black" fill="transparent"/>
</svg>