<?xml version="1.0" encoding="UTF-8" standalone="no"?>
<!--Created with ndjsontosvg (https:https://github.com/thompson318/ndjsontosvg) 
	from the simplified Google quickdraw data set. key_id = 5352909518667776-->
<svg width="600" height="600"
	xmlns="http://www.w3.org/2000/svg">
	xmlns:ndjsontosvg="https://github.com/thompson318/ndjsontosvg"
	xmlns:quickdraw="https://quickdraw.withgoogle.com/data"
	xmlns:scikit-surgery="https://doi.org/10.1007/s11548-020-02180-5">

	<rect width="100%" height="100%" fill="white" />
	<path d = "M 0.00 0.00 L 290.62 0.00 L 318.75 7.03 L 332.81 32.81 L 330.47 53.91 L 321.09 63.28 L 182.81 91.41 L 138.28 91.41 L 63.28 67.97 L 16.41 67.97 L 9.38 51.56 L 9.38 2.34" stroke="black" fill="transparent"/>
	<path d = "M 25.78 63.28 L 18.75 65.62 L 2.34 103.12 L 4.69 161.72 L 44.53 225.00 L 93.75 276.56 L 140.62 349.22 L 140.62 375.00 L 124.22 400.78 L 16.41 496.88 L 32.81 571.88 L 58.59 585.94 L 96.09 595.31 L 229.69 592.97 L 264.84 576.56 L 316.41 529.69 L 325.78 499.22 L 325.78 459.38 L 271.88 396.09 L 248.44 356.25 L 239.06 318.75 L 253.12 290.62 L 321.09 208.59 L 335.16 171.09 L 337.50 98.44" stroke="black" fill="transparent"/>
</svg>