<?xml version="1.0" encoding="UTF-8" standalone="no"?>
<!--Created with ndjsontosvg (https:https://github.com/thompson318/ndjsontosvg) 
	from the simplified Google quickdraw data set. key_id = 4889740463570944-->
<svg width="600" height="600"
	xmlns="http://www.w3.org/2000/svg">
	xmlns:ndjsontosvg="https://github.com/thompson318/ndjsontosvg"
	xmlns:quickdraw="https://quickdraw.withgoogle.com/data"
	xmlns:scikit-surgery="https://doi.org/10.1007/s11548-020-02180-5">

	<rect width="100%" height="100%" fill="white" />
	<path d = "M 23.44 18.75 L 25.78 44.53 L 7.03 112.50 L 7.03 159.38 L 23.44 196.88 L 84.38 276.56 L 91.41 346.88 L 72.66 396.09 L 11.72 503.91 L 0.00 541.41 L 2.34 569.53 L 46.88 595.31 L 110.16 597.66 L 239.06 574.22 L 330.47 567.19 L 351.56 557.81 L 358.59 543.75 L 356.25 482.81 L 208.59 363.28 L 171.09 307.03 L 175.78 292.97 L 229.69 255.47 L 276.56 201.56 L 288.28 157.03 L 288.28 103.12 L 278.91 84.38 L 239.06 44.53 L 178.12 11.72 L 72.66 0.00 L 46.88 0.00 L 23.44 11.72" stroke="black" fill="transparent"/>
	<path d = "M 7.03 480.47 L 23.44 464.06 L 82.03 447.66 L 126.56 464.06 L 199.22 447.66 L 246.09 452.34 L 257.81 459.38" stroke="black" fill="transparent"/>
</svg>