<?xml version="1.0" encoding="UTF-8" standalone="no"?>
<!--Created with ndjsontosvg (https:https://github.com/thompson318/ndjsontosvg) 
	from the simplified Google quickdraw data set. key_id = 4667404422479872-->
<svg width="600" height="600"
	xmlns="http://www.w3.org/2000/svg">
	xmlns:ndjsontosvg="https://github.com/thompson318/ndjsontosvg"
	xmlns:quickdraw="https://quickdraw.withgoogle.com/data"
	xmlns:scikit-surgery="https://doi.org/10.1007/s11548-020-02180-5">

	<rect width="100%" height="100%" fill="white" />
	<path d = "M 236.72 4.69 L 103.12 21.09 L 9.38 46.88 L 86.72 164.06 L 131.25 246.09 L 138.28 323.44 L 119.53 372.66 L 4.69 513.28 L 0.00 539.06 L 107.81 576.56 L 292.97 595.31 L 447.66 597.66 L 450.00 588.28 L 412.50 541.41 L 295.31 403.12 L 250.78 316.41 L 236.72 260.16 L 234.38 189.84 L 257.81 133.59 L 309.38 70.31 L 314.06 42.19 L 302.34 23.44 L 269.53 4.69 L 229.69 0.00 L 225.00 9.38" stroke="black" fill="transparent"/>
	<path d = "M 135.94 213.28 L 145.31 217.97 L 257.81 217.97" stroke="black" fill="transparent"/>
</svg>