<?xml version="1.0" encoding="UTF-8" standalone="no"?>
<!--Created with ndjsontosvg (https:https://github.com/thompson318/ndjsontosvg) 
	from the simplified Google quickdraw data set. key_id = 6732326547488768-->
<svg width="600" height="600"
	xmlns="http://www.w3.org/2000/svg">
	xmlns:ndjsontosvg="https://github.com/thompson318/ndjsontosvg"
	xmlns:quickdraw="https://quickdraw.withgoogle.com/data"
	xmlns:scikit-surgery="https://doi.org/10.1007/s11548-020-02180-5">

	<rect width="100%" height="100%" fill="white" />
	<path d = "M 37.50 250.78 L 126.56 11.72 L 135.94 0.00 L 145.31 0.00 L 213.28 105.47 L 285.94 292.97 L 318.75 353.91 L 309.38 353.91 L 304.69 365.62 L 285.94 496.88 L 262.50 597.66 L 185.16 562.50 L 0.00 532.03 L 25.78 346.88 L 28.12 302.34 L 42.19 246.09 L 119.53 288.28 L 225.00 328.12 L 300.00 346.88" stroke="black" fill="transparent"/>
	<path d = "M 126.56 382.03 L 72.66 527.34 L 131.25 382.03 L 152.34 367.97 L 210.94 405.47 L 154.69 501.56" stroke="black" fill="transparent"/>
	<path d = "M 234.38 210.94 L 250.78 203.91 L 300.00 100.78 L 311.72 100.78 L 330.47 135.94 L 330.47 173.44 L 297.66 239.06" stroke="black" fill="transparent"/>
</svg>