<?xml version="1.0" encoding="UTF-8" standalone="no"?>
<!--Created with ndjsontosvg (https:https://github.com/thompson318/ndjsontosvg) 
	from the simplified Google quickdraw data set. key_id = 5341460561920000-->
<svg width="600" height="600"
	xmlns="http://www.w3.org/2000/svg">
	xmlns:ndjsontosvg="https://github.com/thompson318/ndjsontosvg"
	xmlns:quickdraw="https://quickdraw.withgoogle.com/data"
	xmlns:scikit-surgery="https://doi.org/10.1007/s11548-020-02180-5">

	<rect width="100%" height="100%" fill="white" />
	<path d = "M 21.09 194.53 L 42.19 292.97 L 53.91 393.75 L 49.22 478.12 L 35.16 576.56 L 105.47 578.91 L 217.97 597.66 L 339.84 595.31 L 363.28 588.28 L 370.31 576.56 L 363.28 400.78 L 349.22 285.94 L 349.22 201.56 L 257.81 189.84 L 150.00 189.84 L 51.56 210.94 L 0.00 192.19 L 42.19 140.62 L 77.34 67.97 L 135.94 0.00 L 358.59 140.62" stroke="black" fill="transparent"/>
	<path d = "M 358.59 196.88 L 344.53 203.91 L 288.28 278.91 L 217.97 417.19 L 145.31 525.00 L 114.84 553.12 L 67.97 562.50" stroke="black" fill="transparent"/>
	<path d = "M 82.03 246.09 L 77.34 215.62 L 58.59 213.28" stroke="black" fill="transparent"/>
</svg>