<?xml version="1.0" encoding="UTF-8" standalone="no"?>
<!--Created with ndjsontosvg (https:https://github.com/thompson318/ndjsontosvg) 
	from the simplified Google quickdraw data set. key_id = 4862119310786560-->
<svg width="600" height="600"
	xmlns="http://www.w3.org/2000/svg">
	xmlns:ndjsontosvg="https://github.com/thompson318/ndjsontosvg"
	xmlns:quickdraw="https://quickdraw.withgoogle.com/data"
	xmlns:scikit-surgery="https://doi.org/10.1007/s11548-020-02180-5">

	<rect width="100%" height="100%" fill="white" />
	<path d = "M 14.06 597.66 L 7.03 592.97 L 2.34 541.41 L 0.00 419.53 L 14.06 274.22 L 42.19 208.59 L 72.66 189.84 L 131.25 187.50 L 199.22 194.53 L 257.81 210.94 L 267.19 232.03 L 274.22 536.72 L 271.88 553.12 L 257.81 564.84 L 203.91 581.25 L 93.75 583.59 L 35.16 571.88" stroke="black" fill="transparent"/>
	<path d = "M 110.16 562.50 L 103.12 555.47 L 110.16 457.03 L 154.69 454.69 L 166.41 464.06 L 166.41 571.88" stroke="black" fill="transparent"/>
	<path d = "M 79.69 269.53 L 70.31 307.03 L 79.69 314.06 L 100.78 300.00 L 114.84 262.50 L 100.78 250.78 L 79.69 257.81" stroke="black" fill="transparent"/>
	<path d = "M 166.41 246.09 L 175.78 309.38 L 213.28 307.03 L 222.66 295.31 L 213.28 255.47 L 180.47 250.78" stroke="black" fill="transparent"/>
	<path d = "M 35.16 220.31 L 63.28 131.25 L 91.41 79.69 L 133.59 16.41 L 154.69 0.00 L 192.19 110.16 L 241.41 220.31" stroke="black" fill="transparent"/>
</svg>