<?xml version="1.0" encoding="UTF-8" standalone="no"?>
<!--Created with ndjsontosvg (https:https://github.com/thompson318/ndjsontosvg) 
	from the simplified Google quickdraw data set. key_id = 4517005686210560-->
<svg width="600" height="600"
	xmlns="http://www.w3.org/2000/svg">
	xmlns:ndjsontosvg="https://github.com/thompson318/ndjsontosvg"
	xmlns:quickdraw="https://quickdraw.withgoogle.com/data"
	xmlns:scikit-surgery="https://doi.org/10.1007/s11548-020-02180-5">

	<rect width="100%" height="100%" fill="white" />
	<path d = "M 16.41 356.25 L 21.09 585.94 L 46.88 597.66 L 166.41 597.66 L 255.47 588.28 L 274.22 574.22 L 260.16 452.34 L 246.09 426.56 L 210.94 410.16 L 56.25 396.09" stroke="black" fill="transparent"/>
	<path d = "M 98.44 389.06 L 58.59 314.06 L 56.25 281.25 L 75.00 271.88 L 96.09 283.59 L 133.59 353.91 L 135.94 377.34 L 140.62 314.06 L 164.06 295.31 L 192.19 290.62 L 210.94 311.72 L 208.59 346.88 L 147.66 396.09" stroke="black" fill="transparent"/>
	<path d = "M 140.62 384.38 L 124.22 112.50" stroke="black" fill="transparent"/>
	<path d = "M 124.22 112.50 L 105.47 124.22 L 84.38 124.22 L 21.09 110.16 L 18.75 96.09 L 25.78 86.72 L 63.28 70.31 L 42.19 70.31 L 0.00 56.25 L 14.06 14.06 L 46.88 18.75 L 51.56 9.38 L 67.97 7.03 L 131.25 0.00 L 168.75 39.84 L 269.53 53.91 L 276.56 60.94 L 276.56 77.34 L 260.16 96.09 L 241.41 100.78 L 234.38 119.53 L 192.19 119.53 L 164.06 96.09" stroke="black" fill="transparent"/>
</svg>