<?xml version="1.0" encoding="UTF-8" standalone="no"?>
<!--Created with ndjsontosvg (https:https://github.com/thompson318/ndjsontosvg) 
	from the simplified Google quickdraw data set. key_id = 5618280364507136-->
<svg width="600" height="600"
	xmlns="http://www.w3.org/2000/svg">
	xmlns:ndjsontosvg="https://github.com/thompson318/ndjsontosvg"
	xmlns:quickdraw="https://quickdraw.withgoogle.com/data"
	xmlns:scikit-surgery="https://doi.org/10.1007/s11548-020-02180-5">

	<rect width="100%" height="100%" fill="white" />
	<path d = "M 11.72 407.81 L 42.19 426.56 L 89.06 445.31 L 150.00 445.31 L 180.47 433.59 L 196.88 417.19 L 213.28 377.34 L 206.25 365.62 L 159.38 349.22 L 110.16 349.22 L 77.34 358.59 L 35.16 384.38 L 18.75 426.56 L 35.16 583.59 L 86.72 595.31 L 203.91 597.66 L 215.62 546.09 L 215.62 367.97" stroke="black" fill="transparent"/>
	<path d = "M 124.22 438.28 L 133.59 107.81" stroke="black" fill="transparent"/>
	<path d = "M 133.59 107.81 L 133.59 107.81" stroke="black" fill="transparent"/>
	<path d = "M 128.91 337.50 L 2.34 328.12" stroke="black" fill="transparent"/>
	<path d = "M 124.22 281.25 L 182.81 248.44 L 246.09 225.00" stroke="black" fill="transparent"/>
	<path d = "M 114.84 210.94 L 96.09 189.84 L 35.16 161.72" stroke="black" fill="transparent"/>
	<path d = "M 140.62 138.28 L 159.38 110.16 L 248.44 18.75" stroke="black" fill="transparent"/>
	<path d = "M 126.56 103.12 L 126.56 30.47 L 114.84 16.41 L 98.44 4.69 L 67.97 0.00 L 58.59 30.47 L 67.97 37.50 L 100.78 39.84 L 121.88 21.09" stroke="black" fill="transparent"/>
</svg>