<?xml version="1.0" encoding="UTF-8" standalone="no"?>
<!--Created with ndjsontosvg (https:https://github.com/thompson318/ndjsontosvg) 
	from the simplified Google quickdraw data set. key_id = 5786060397215744-->
<svg width="600" height="600"
	xmlns="http://www.w3.org/2000/svg">
	xmlns:ndjsontosvg="https://github.com/thompson318/ndjsontosvg"
	xmlns:quickdraw="https://quickdraw.withgoogle.com/data"
	xmlns:scikit-surgery="https://doi.org/10.1007/s11548-020-02180-5">

	<rect width="100%" height="100%" fill="white" />
	<path d = "M 152.34 585.94 L 82.03 466.41 L 58.59 438.28 L 332.81 438.28 L 337.50 454.69 L 321.09 595.31 L 152.34 590.62" stroke="black" fill="transparent"/>
	<path d = "M 138.28 421.88 L 121.88 274.22 L 105.47 227.34 L 89.06 121.88 L 117.19 150.00 L 124.22 278.91 L 150.00 360.94 L 166.41 461.72" stroke="black" fill="transparent"/>
	<path d = "M 232.03 431.25 L 232.03 358.59 L 260.16 147.66 L 262.50 0.00 L 285.94 21.09 L 285.94 84.38 L 283.59 185.16 L 264.84 307.03 L 260.16 417.19" stroke="black" fill="transparent"/>
	<path d = "M 110.16 332.81 L 39.84 311.72 L 2.34 276.56 L 4.69 229.69 L 32.81 185.16 L 14.06 138.28 L 49.22 114.84 L 49.22 79.69 L 67.97 46.88 L 100.78 42.19 L 124.22 91.41 L 159.38 117.19 L 182.81 164.06 L 171.09 203.91 L 180.47 250.78 L 161.72 269.53 L 131.25 274.22" stroke="black" fill="transparent"/>
</svg>