<?xml version="1.0" encoding="UTF-8" standalone="no"?>
<!--Created with ndjsontosvg (https:https://github.com/thompson318/ndjsontosvg) 
	from the simplified Google quickdraw data set. key_id = 4838142089625600-->
<svg width="600" height="600"
	xmlns="http://www.w3.org/2000/svg">
	xmlns:ndjsontosvg="https://github.com/thompson318/ndjsontosvg"
	xmlns:quickdraw="https://quickdraw.withgoogle.com/data"
	xmlns:scikit-surgery="https://doi.org/10.1007/s11548-020-02180-5">

	<rect width="100%" height="100%" fill="white" />
	<path d = "M 58.59 548.44 L 11.72 562.50 L 0.00 574.22 L 7.03 578.91 L 489.84 585.94 L 548.44 576.56 L 539.06 421.88 L 515.62 332.81 L 473.44 257.81 L 478.12 243.75 L 459.38 241.41 L 346.88 260.16 L 250.78 260.16 L 140.62 276.56 L 91.41 274.22 L 35.16 290.62 L 49.22 377.34 L 51.56 543.75 L 65.62 597.66 L 65.62 569.53" stroke="black" fill="transparent"/>
	<path d = "M 37.50 271.88 L 67.97 248.44 L 157.03 142.97 L 260.16 42.19 L 290.62 0.00 L 314.06 49.22 L 349.22 93.75 L 424.22 171.09 L 503.91 239.06" stroke="black" fill="transparent"/>
</svg>