<?xml version="1.0" encoding="UTF-8" standalone="no"?>
<!--Created with ndjsontosvg (https:https://github.com/thompson318/ndjsontosvg) 
	from the simplified Google quickdraw data set. key_id = 6325639265124352-->
<svg width="600" height="600"
	xmlns="http://www.w3.org/2000/svg">
	xmlns:ndjsontosvg="https://github.com/thompson318/ndjsontosvg"
	xmlns:quickdraw="https://quickdraw.withgoogle.com/data"
	xmlns:scikit-surgery="https://doi.org/10.1007/s11548-020-02180-5">

	<rect width="100%" height="100%" fill="white" />
	<path d = "M 302.34 131.25 L 271.88 133.59 L 241.41 157.03 L 227.34 173.44 L 227.34 196.88 L 241.41 210.94 L 283.59 227.34 L 346.88 232.03 L 363.28 217.97 L 367.97 185.16 L 210.94 161.72 L 67.97 164.06 L 35.16 171.09 L 0.00 194.53 L 0.00 203.91 L 30.47 222.66 L 145.31 269.53 L 243.75 292.97 L 208.59 281.25 L 292.97 276.56 L 236.72 262.50 L 201.56 262.50 L 187.50 278.91 L 255.47 300.00 L 321.09 307.03 L 164.06 222.66 L 351.56 285.94 L 386.72 309.38 L 398.44 323.44 L 370.31 300.00 L 330.47 278.91 L 297.66 300.00 L 342.19 358.59 L 335.16 407.81 L 311.72 452.34 L 311.72 428.91 L 208.59 391.41 L 260.16 400.78 L 318.75 400.78 L 339.84 398.44 L 278.91 379.69 L 285.94 372.66 L 503.91 367.97 L 597.66 356.25 L 257.81 255.47 L 386.72 236.72 L 332.81 215.62 L 300.00 185.16 L 300.00 145.31 L 346.88 135.94 L 325.78 121.88 L 161.72 35.16 L 21.09 0.00 L 117.19 25.78 L 196.88 60.94 L 250.78 107.81 L 295.31 166.41 L 302.34 192.19 L 274.22 182.81" stroke="black" fill="transparent"/>
</svg>