<?xml version="1.0" encoding="UTF-8" standalone="no"?>
<!--Created with ndjsontosvg (https:https://github.com/thompson318/ndjsontosvg) 
	from the simplified Google quickdraw data set. key_id = 4655774032723968-->
<svg width="600" height="600"
	xmlns="http://www.w3.org/2000/svg">
	xmlns:ndjsontosvg="https://github.com/thompson318/ndjsontosvg"
	xmlns:quickdraw="https://quickdraw.withgoogle.com/data"
	xmlns:scikit-surgery="https://doi.org/10.1007/s11548-020-02180-5">

	<rect width="100%" height="100%" fill="white" />
	<path d = "M 307.03 325.78 L 309.38 351.56 L 321.09 358.59 L 325.78 346.88 L 302.34 330.47 L 377.34 290.62 L 396.09 248.44 L 393.75 189.84 L 365.62 119.53 L 335.16 82.03 L 262.50 25.78 L 192.19 0.00 L 166.41 0.00 L 135.94 11.72" stroke="black" fill="transparent"/>
	<path d = "M 356.25 234.38 L 337.50 206.25 L 283.59 164.06 L 194.53 133.59 L 110.16 140.62 L 49.22 164.06 L 21.09 185.16" stroke="black" fill="transparent"/>
	<path d = "M 307.03 349.22 L 264.84 311.72 L 222.66 292.97 L 140.62 283.59 L 100.78 290.62 L 46.88 321.09 L 28.12 346.88 L 18.75 396.09" stroke="black" fill="transparent"/>
	<path d = "M 318.75 384.38 L 271.88 377.34 L 241.41 382.03 L 192.19 412.50 L 175.78 438.28 L 168.75 471.09 L 185.16 539.06 L 217.97 581.25 L 255.47 597.66" stroke="black" fill="transparent"/>
	<path d = "M 325.78 360.94 L 365.62 419.53 L 433.59 468.75 L 475.78 482.81 L 510.94 482.81 L 536.72 475.78 L 557.81 450.00" stroke="black" fill="transparent"/>
	<path d = "M 316.41 367.97 L 424.22 360.94 L 503.91 330.47 L 560.16 283.59 L 574.22 250.78 L 578.91 222.66" stroke="black" fill="transparent"/>
	<path d = "M 508.59 499.22 L 534.38 471.09 L 553.12 435.94 L 569.53 344.53 L 557.81 241.41 L 522.66 154.69 L 496.88 119.53 L 457.03 86.72 L 407.81 58.59 L 353.91 42.19 L 243.75 44.53 L 154.69 72.66 L 119.53 93.75 L 82.03 126.56 L 49.22 168.75 L 21.09 220.31 L 4.69 274.22 L 0.00 323.44 L 7.03 370.31 L 21.09 407.81 L 44.53 435.94 L 77.34 466.41 L 161.72 517.97 L 206.25 534.38 L 281.25 546.09 L 351.56 539.06 L 370.31 529.69" stroke="black" fill="transparent"/>
	<path d = "M 295.31 304.69 L 283.59 328.12 L 281.25 365.62 L 292.97 398.44 L 311.72 421.88 L 337.50 435.94 L 360.94 438.28 L 377.34 428.91 L 393.75 393.75 L 398.44 342.19 L 384.38 292.97 L 360.94 246.09 L 330.47 210.94 L 283.59 180.47 L 236.72 166.41 L 192.19 166.41 L 152.34 175.78 L 121.88 194.53 L 100.78 217.97 L 91.41 255.47 L 100.78 297.66 L 128.91 342.19 L 168.75 377.34 L 213.28 407.81 L 262.50 424.22 L 300.00 426.56 L 328.12 421.88 L 356.25 391.41 L 356.25 349.22 L 339.84 325.78 L 309.38 307.03 L 269.53 292.97 L 222.66 290.62 L 142.97 309.38 L 96.09 335.16 L 84.38 351.56 L 82.03 375.00 L 93.75 400.78 L 117.19 428.91 L 159.38 459.38 L 206.25 480.47 L 257.81 492.19 L 304.69 492.19 L 391.41 471.09 L 464.06 431.25 L 480.47 405.47 L 471.09 358.59 L 419.53 274.22 L 372.66 234.38 L 323.44 217.97 L 267.19 236.72 L 227.34 278.91 L 215.62 307.03 L 215.62 332.81 L 241.41 384.38 L 271.88 412.50 L 344.53 445.31 L 379.69 450.00 L 431.25 438.28 L 468.75 398.44 L 480.47 367.97 L 480.47 290.62 L 468.75 248.44 L 426.56 168.75 L 365.62 107.81 L 328.12 91.41 L 285.94 84.38 L 246.09 91.41 L 194.53 121.88" stroke="black" fill="transparent"/>
</svg>