<?xml version="1.0" encoding="UTF-8" standalone="no"?>
<!--Created with ndjsontosvg (https:https://github.com/thompson318/ndjsontosvg) 
	from the simplified Google quickdraw data set. key_id = 5099635716653056-->
<svg width="600" height="600"
	xmlns="http://www.w3.org/2000/svg">
	xmlns:ndjsontosvg="https://github.com/thompson318/ndjsontosvg"
	xmlns:quickdraw="https://quickdraw.withgoogle.com/data"
	xmlns:scikit-surgery="https://doi.org/10.1007/s11548-020-02180-5">

	<rect width="100%" height="100%" fill="white" />
	<path d = "M 168.75 4.69 L 131.25 16.41 L 84.38 58.59 L 70.31 79.69 L 70.31 117.19 L 110.16 138.28 L 192.19 135.94 L 225.00 119.53 L 250.78 93.75 L 264.84 63.28 L 264.84 35.16 L 248.44 16.41 L 213.28 0.00 L 152.34 0.00 L 117.19 9.38 L 49.22 46.88 L 2.34 100.78 L 4.69 128.91 L 16.41 147.66 L 56.25 166.41 L 131.25 164.06 L 185.16 150.00 L 285.94 140.62 L 428.91 93.75 L 445.31 82.03 L 452.34 63.28 L 435.94 35.16 L 417.19 21.09 L 375.00 2.34 L 182.81 4.69 L 105.47 21.09 L 60.94 42.19 L 2.34 105.47 L 0.00 135.94 L 30.47 208.59 L 63.28 236.72 L 93.75 248.44 L 154.69 246.09 L 239.06 213.28 L 325.78 192.19 L 344.53 175.78 L 351.56 140.62 L 314.06 124.22 L 232.03 128.91 L 147.66 178.12 L 114.84 201.56 L 105.47 222.66 L 142.97 246.09 L 189.84 253.12 L 248.44 250.78 L 330.47 215.62 L 356.25 189.84 L 337.50 178.12 L 262.50 185.16 L 166.41 232.03 L 121.88 271.88 L 121.88 281.25 L 140.62 300.00 L 196.88 314.06 L 267.19 307.03 L 304.69 283.59 L 304.69 274.22 L 271.88 281.25 L 159.38 344.53 L 154.69 353.91 L 192.19 377.34 L 227.34 384.38 L 349.22 379.69 L 386.72 365.62 L 396.09 344.53 L 365.62 330.47 L 316.41 330.47 L 196.88 384.38 L 178.12 400.78 L 227.34 417.19 L 283.59 417.19 L 304.69 407.81 L 311.72 379.69 L 292.97 370.31 L 262.50 377.34 L 217.97 412.50 L 206.25 447.66 L 236.72 464.06 L 370.31 459.38 L 349.22 454.69 L 328.12 459.38 L 257.81 510.94 L 250.78 525.00 L 250.78 534.38 L 283.59 546.09 L 358.59 541.41 L 328.12 536.72 L 262.50 569.53 L 264.84 578.91 L 281.25 585.94 L 309.38 585.94 L 330.47 578.91 L 337.50 569.53 L 330.47 564.84 L 302.34 590.62 L 318.75 597.66 L 339.84 592.97 L 328.12 590.62" stroke="black" fill="transparent"/>
</svg>