<?xml version="1.0" encoding="UTF-8" standalone="no"?>
<!--Created with ndjsontosvg (https:https://github.com/thompson318/ndjsontosvg) 
	from the simplified Google quickdraw data set. key_id = 5762094760722432-->
<svg width="600" height="600"
	xmlns="http://www.w3.org/2000/svg">
	xmlns:ndjsontosvg="https://github.com/thompson318/ndjsontosvg"
	xmlns:quickdraw="https://quickdraw.withgoogle.com/data"
	xmlns:scikit-surgery="https://doi.org/10.1007/s11548-020-02180-5">

	<rect width="100%" height="100%" fill="white" />
	<path d = "M 201.56 131.25 L 89.06 140.62 L 32.81 164.06 L 9.38 187.50 L 7.03 201.56 L 16.41 220.31 L 135.94 309.38 L 185.16 358.59 L 199.22 384.38 L 187.50 405.47 L 152.34 407.81 L 51.56 389.06 L 9.38 365.62 L 0.00 328.12 L 11.72 283.59 L 35.16 253.12 L 103.12 196.88 L 86.72 133.59 L 79.69 121.88 L 70.31 117.19 L 35.16 126.56 L 32.81 138.28 L 49.22 168.75 L 98.44 215.62 L 100.78 250.78 L 93.75 281.25 L 65.62 307.03 L 89.06 358.59 L 89.06 375.00 L 75.00 391.41 L 58.59 389.06 L 79.69 360.94 L 124.22 363.28" stroke="black" fill="transparent"/>
	<path d = "M 410.16 405.47 L 407.81 367.97 L 426.56 346.88 L 435.94 349.22 L 435.94 377.34 L 419.53 389.06 L 391.41 358.59 L 389.06 335.16 L 435.94 328.12 L 480.47 337.50 L 450.00 367.97 L 428.91 363.28 L 417.19 321.09 L 419.53 288.28 L 438.28 274.22 L 473.44 271.88 L 459.38 292.97 L 428.91 292.97 L 393.75 267.19 L 367.97 225.00 L 365.62 201.56 L 372.66 189.84 L 421.88 189.84 L 426.56 203.91 L 417.19 257.81 L 382.03 307.03 L 330.47 332.81 L 250.78 346.88 L 201.56 339.84 L 161.72 311.72 L 138.28 262.50 L 138.28 187.50 L 159.38 107.81 L 192.19 65.62 L 227.34 44.53 L 292.97 51.56 L 358.59 84.38 L 433.59 145.31 L 461.72 225.00 L 459.38 267.19 L 450.00 283.59 L 433.59 295.31 L 403.12 297.66 L 304.69 274.22 L 220.31 227.34 L 166.41 166.41 L 159.38 140.62 L 159.38 100.78 L 171.09 72.66 L 196.88 46.88 L 253.12 25.78 L 332.81 23.44 L 417.19 42.19 L 447.66 70.31 L 485.16 159.38 L 489.84 253.12 L 478.12 288.28 L 461.72 309.38 L 428.91 328.12 L 400.78 332.81 L 342.19 311.72 L 285.94 274.22 L 241.41 225.00 L 229.69 166.41 L 250.78 107.81 L 276.56 86.72 L 311.72 70.31 L 363.28 60.94 L 412.50 63.28 L 520.31 86.72 L 571.88 105.47 L 597.66 121.88 L 553.12 201.56 L 489.84 255.47 L 447.66 276.56 L 407.81 285.94 L 309.38 281.25 L 248.44 262.50 L 215.62 246.09 L 182.81 208.59 L 173.44 175.78 L 168.75 110.16 L 178.12 53.91 L 194.53 28.12 L 217.97 9.38 L 260.16 0.00 L 288.28 2.34 L 330.47 16.41 L 367.97 44.53 L 403.12 86.72 L 421.88 131.25 L 407.81 189.84 L 386.72 206.25 L 356.25 206.25 L 328.12 194.53 L 288.28 161.72 L 278.91 126.56 L 283.59 77.34 L 300.00 42.19 L 330.47 39.84 L 363.28 56.25 L 403.12 93.75 L 426.56 157.03 L 426.56 236.72 L 407.81 283.59 L 393.75 290.62 L 358.59 246.09 L 335.16 180.47 L 335.16 161.72 L 342.19 154.69 L 372.66 166.41 L 433.59 220.31" stroke="black" fill="transparent"/>
</svg>