<?xml version="1.0" encoding="UTF-8" standalone="no"?>
<!--Created with ndjsontosvg (https:https://github.com/thompson318/ndjsontosvg) 
	from the simplified Google quickdraw data set. key_id = 6665238000697344-->
<svg width="600" height="600"
	xmlns="http://www.w3.org/2000/svg">
	xmlns:ndjsontosvg="https://github.com/thompson318/ndjsontosvg"
	xmlns:quickdraw="https://quickdraw.withgoogle.com/data"
	xmlns:scikit-surgery="https://doi.org/10.1007/s11548-020-02180-5">

	<rect width="100%" height="100%" fill="white" />
	<path d = "M 135.94 189.84 L 274.22 452.34 L 316.41 513.28 L 349.22 536.72 L 365.62 513.28 L 410.16 325.78 L 485.16 194.53 L 384.38 175.78 L 213.28 161.72 L 9.38 161.72" stroke="black" fill="transparent"/>
	<path d = "M 128.91 180.47 L 65.62 112.50 L 56.25 49.22 L 91.41 11.72 L 131.25 0.00 L 173.44 0.00 L 229.69 7.03 L 276.56 25.78 L 342.19 67.97 L 363.28 89.06 L 377.34 121.88 L 372.66 150.00 L 356.25 166.41 L 323.44 185.16" stroke="black" fill="transparent"/>
	<path d = "M 344.53 128.91 L 450.00 9.38 L 482.81 0.00 L 510.94 7.03 L 541.41 28.12 L 574.22 75.00 L 597.66 150.00 L 581.25 157.03 L 522.66 150.00 L 431.25 154.69 L 330.47 140.62" stroke="black" fill="transparent"/>
	<path d = "M 503.91 154.69 L 489.84 246.09 L 447.66 342.19 L 321.09 515.62 L 227.34 323.44 L 217.97 274.22 L 215.62 210.94 L 225.00 173.44 L 239.06 159.38" stroke="black" fill="transparent"/>
</svg>