<?xml version="1.0" encoding="UTF-8" standalone="no"?>
<!--Created with ndjsontosvg (https:https://github.com/thompson318/ndjsontosvg) 
	from the simplified Google quickdraw data set. key_id = 5462182227607552-->
<svg width="600" height="600"
	xmlns="http://www.w3.org/2000/svg">
	xmlns:ndjsontosvg="https://github.com/thompson318/ndjsontosvg"
	xmlns:quickdraw="https://quickdraw.withgoogle.com/data"
	xmlns:scikit-surgery="https://doi.org/10.1007/s11548-020-02180-5">

	<rect width="100%" height="100%" fill="white" />
	<path d = "M 39.84 288.28 L 58.59 433.59 L 103.12 555.47 L 107.81 597.66 L 133.59 576.56 L 232.03 428.91 L 278.91 307.03 L 271.88 290.62 L 2.34 288.28" stroke="black" fill="transparent"/>
	<path d = "M 35.16 318.75 L 49.22 246.09 L 100.78 142.97 L 145.31 114.84 L 173.44 110.16 L 199.22 114.84 L 232.03 140.62 L 276.56 217.97 L 285.94 239.06 L 288.28 353.91" stroke="black" fill="transparent"/>
	<path d = "M 91.41 208.59 L 105.47 119.53 L 152.34 35.16 L 189.84 0.00 L 241.41 0.00 L 262.50 14.06 L 285.94 58.59 L 288.28 135.94 L 271.88 248.44" stroke="black" fill="transparent"/>
</svg>