<?xml version="1.0" encoding="UTF-8" standalone="no"?>
<!--Created with ndjsontosvg (https:https://github.com/thompson318/ndjsontosvg) 
	from the simplified Google quickdraw data set. key_id = 5256694751821824-->
<svg width="600" height="600"
	xmlns="http://www.w3.org/2000/svg">
	xmlns:ndjsontosvg="https://github.com/thompson318/ndjsontosvg"
	xmlns:quickdraw="https://quickdraw.withgoogle.com/data"
	xmlns:scikit-surgery="https://doi.org/10.1007/s11548-020-02180-5">

	<rect width="100%" height="100%" fill="white" />
	<path d = "M 375.00 2.34 L 274.22 23.44 L 225.00 25.78 L 152.34 0.00 L 84.38 75.00 L 11.72 180.47 L 0.00 203.91 L 4.69 213.28 L 42.19 248.44 L 110.16 178.12 L 159.38 105.47 L 157.03 377.34 L 159.38 384.38 L 180.47 391.41 L 288.28 393.75 L 419.53 375.00 L 421.88 243.75 L 377.34 107.81 L 548.44 239.06 L 560.16 234.38 L 592.97 171.09 L 597.66 150.00 L 590.62 145.31 L 447.66 44.53 L 379.69 2.34 L 363.28 0.00" stroke="black" fill="transparent"/>
	<path d = "M 281.25 67.97 L 241.41 79.69 L 274.22 89.06 L 274.22 96.09 L 248.44 119.53 L 271.88 135.94 L 255.47 159.38 L 271.88 168.75 L 264.84 192.19 L 281.25 203.91 L 271.88 222.66 L 283.59 241.41 L 271.88 255.47 L 288.28 274.22 L 283.59 290.62 L 304.69 307.03 L 292.97 318.75 L 297.66 332.81 L 285.94 346.88 L 292.97 356.25" stroke="black" fill="transparent"/>
</svg>