<?xml version="1.0" encoding="UTF-8" standalone="no"?>
<!--Created with ndjsontosvg (https:https://github.com/thompson318/ndjsontosvg) 
	from the simplified Google quickdraw data set. key_id = 4619491478601728-->
<svg width="600" height="600"
	xmlns="http://www.w3.org/2000/svg">
	xmlns:ndjsontosvg="https://github.com/thompson318/ndjsontosvg"
	xmlns:quickdraw="https://quickdraw.withgoogle.com/data"
	xmlns:scikit-surgery="https://doi.org/10.1007/s11548-020-02180-5">

	<rect width="100%" height="100%" fill="white" />
	<path d = "M 18.75 178.12 L 35.16 173.44 L 63.28 110.16 L 100.78 75.00 L 86.72 126.56 L 4.69 168.75 L 0.00 203.91 L 9.38 215.62 L 79.69 234.38 L 44.53 225.00 L 39.84 217.97 L 65.62 217.97 L 84.38 234.38 L 105.47 234.38 L 128.91 206.25 L 157.03 124.22 L 175.78 110.16 L 208.59 105.47 L 213.28 185.16 L 189.84 325.78 L 201.56 335.16 L 309.38 351.56 L 370.31 353.91 L 393.75 290.62 L 396.09 239.06 L 442.97 126.56 L 459.38 152.34 L 459.38 171.09 L 485.16 246.09 L 506.25 264.84 L 534.38 269.53 L 597.66 236.72 L 546.09 150.00 L 529.69 82.03 L 475.78 14.06 L 440.62 2.34 L 389.06 0.00 L 337.50 23.44 L 288.28 23.44 L 257.81 16.41 L 105.47 79.69 L 89.06 96.09 L 152.34 56.25 L 178.12 28.12 L 185.16 30.47" stroke="black" fill="transparent"/>
	<path d = "M 309.38 18.75 L 309.38 100.78 L 278.91 185.16 L 276.56 307.03 L 276.56 339.84 L 285.94 335.16 L 304.69 297.66 L 295.31 307.03 L 295.31 330.47 L 283.59 316.41 L 260.16 318.75 L 271.88 337.50 L 288.28 335.16 L 288.28 328.12 L 269.53 325.78 L 281.25 321.09" stroke="black" fill="transparent"/>
</svg>