<?xml version="1.0" encoding="UTF-8" standalone="no"?>
<!--Created with ndjsontosvg (https:https://github.com/thompson318/ndjsontosvg) 
	from the simplified Google quickdraw data set. key_id = 4847928017420288-->
<svg width="600" height="600"
	xmlns="http://www.w3.org/2000/svg">
	xmlns:ndjsontosvg="https://github.com/thompson318/ndjsontosvg"
	xmlns:quickdraw="https://quickdraw.withgoogle.com/data"
	xmlns:scikit-surgery="https://doi.org/10.1007/s11548-020-02180-5">

	<rect width="100%" height="100%" fill="white" />
	<path d = "M 178.12 105.47 L 86.72 253.12 L 37.50 316.41" stroke="black" fill="transparent"/>
	<path d = "M 28.12 311.72 L 35.16 292.97 L 30.47 271.88" stroke="black" fill="transparent"/>
	<path d = "M 7.03 262.50 L 4.69 297.66 L 21.09 314.06" stroke="black" fill="transparent"/>
	<path d = "M 0.00 243.75 L 58.59 171.09 L 135.94 100.78 L 161.72 60.94" stroke="black" fill="transparent"/>
	<path d = "M 185.16 103.12 L 173.44 161.72 L 175.78 271.88 L 180.47 323.44 L 201.56 384.38 L 213.28 398.44" stroke="black" fill="transparent"/>
	<path d = "M 217.97 389.06 L 384.38 400.78 L 396.09 328.12 L 419.53 260.16 L 428.91 126.56" stroke="black" fill="transparent"/>
	<path d = "M 428.91 126.56 L 431.25 138.28 L 464.06 171.09 L 503.91 236.72 L 550.78 285.94 L 553.12 314.06 L 590.62 283.59 L 595.31 257.81 L 574.22 239.06 L 548.44 241.41 L 522.66 253.12 L 513.28 276.56" stroke="black" fill="transparent"/>
	<path d = "M 595.31 234.38 L 510.94 157.03 L 492.19 131.25 L 452.34 25.78" stroke="black" fill="transparent"/>
	<path d = "M 168.75 51.56 L 227.34 44.53 L 269.53 53.91 L 302.34 0.00 L 323.44 49.22 L 339.84 63.28 L 365.62 51.56 L 382.03 14.06 L 426.56 51.56 L 464.06 46.88" stroke="black" fill="transparent"/>
</svg>