<?xml version="1.0" encoding="UTF-8" standalone="no"?>
<!--Created with ndjsontosvg (https:https://github.com/thompson318/ndjsontosvg) 
	from the simplified Google quickdraw data set. key_id = 6116327410368512-->
<svg width="600" height="600"
	xmlns="http://www.w3.org/2000/svg">
	xmlns:ndjsontosvg="https://github.com/thompson318/ndjsontosvg"
	xmlns:quickdraw="https://quickdraw.withgoogle.com/data"
	xmlns:scikit-surgery="https://doi.org/10.1007/s11548-020-02180-5">

	<rect width="100%" height="100%" fill="white" />
	<path d = "M 217.97 9.38 L 410.16 2.34 L 403.12 30.47 L 382.03 63.28 L 349.22 100.78 L 321.09 114.84 L 283.59 114.84 L 248.44 98.44 L 227.34 77.34 L 227.34 49.22" stroke="black" fill="transparent"/>
	<path d = "M 290.62 135.94 L 271.88 154.69 L 250.78 227.34 L 199.22 522.66 L 93.75 522.66 L 79.69 492.19 L 75.00 433.59 L 89.06 328.12 L 14.06 356.25 L 4.69 358.59 L 0.00 346.88 L 28.12 168.75 L 89.06 119.53 L 267.19 49.22" stroke="black" fill="transparent"/>
	<path d = "M 428.91 39.84 L 532.03 114.84 L 597.66 187.50 L 560.16 227.34 L 557.81 269.53 L 534.38 283.59 L 499.22 288.28 L 412.50 182.81 L 365.62 147.66 L 344.53 302.34 L 363.28 492.19 L 339.84 525.00 L 323.44 532.03 L 243.75 534.38 L 234.38 534.38 L 234.38 527.34" stroke="black" fill="transparent"/>
	<path d = "M 314.06 171.09 L 311.72 246.09 L 288.28 337.50 L 269.53 522.66" stroke="black" fill="transparent"/>
</svg>