<?xml version="1.0" encoding="UTF-8" standalone="no"?>
<!--Created with ndjsontosvg (https:https://github.com/thompson318/ndjsontosvg) 
	from the simplified Google quickdraw data set. key_id = 6019527336787968-->
<svg width="600" height="600"
	xmlns="http://www.w3.org/2000/svg">
	xmlns:ndjsontosvg="https://github.com/thompson318/ndjsontosvg"
	xmlns:quickdraw="https://quickdraw.withgoogle.com/data"
	xmlns:scikit-surgery="https://doi.org/10.1007/s11548-020-02180-5">

	<rect width="100%" height="100%" fill="white" />
	<path d = "M 229.69 42.19 L 196.88 65.62 L 119.53 168.75 L 0.00 393.75 L 89.06 391.41 L 117.19 384.38 L 131.25 367.97 L 164.06 295.31 L 185.16 274.22 L 201.56 269.53 L 187.50 314.06 L 159.38 513.28 L 166.41 562.50 L 182.81 578.91 L 210.94 588.28 L 257.81 592.97 L 346.88 588.28" stroke="black" fill="transparent"/>
	<path d = "M 271.88 285.94 L 276.56 321.09 L 288.28 311.72" stroke="black" fill="transparent"/>
	<path d = "M 285.94 457.03 L 292.97 461.72" stroke="black" fill="transparent"/>
	<path d = "M 285.94 543.75 L 285.94 564.84 L 264.84 585.94 L 264.84 597.66" stroke="black" fill="transparent"/>
	<path d = "M 271.88 576.56 L 480.47 560.16 L 489.84 550.78 L 501.56 508.59 L 508.59 447.66 L 506.25 23.44 L 482.81 11.72 L 285.94 18.75" stroke="black" fill="transparent"/>
	<path d = "M 468.75 0.00 L 501.56 25.78 L 520.31 56.25 L 562.50 142.97 L 567.19 166.41 L 578.91 288.28 L 574.22 396.09 L 567.19 407.81 L 536.72 428.91 L 525.00 412.50" stroke="black" fill="transparent"/>
</svg>