<?xml version="1.0" encoding="UTF-8" standalone="no"?>
<!--Created with ndjsontosvg (https:https://github.com/thompson318/ndjsontosvg) 
	from the simplified Google quickdraw data set. key_id = 6027074848423936-->
<svg width="600" height="600"
	xmlns="http://www.w3.org/2000/svg">
	xmlns:ndjsontosvg="https://github.com/thompson318/ndjsontosvg"
	xmlns:quickdraw="https://quickdraw.withgoogle.com/data"
	xmlns:scikit-surgery="https://doi.org/10.1007/s11548-020-02180-5">

	<rect width="100%" height="100%" fill="white" />
	<path d = "M 173.44 60.94 L 154.69 70.31 L 91.41 145.31 L 14.06 220.31 L 0.00 236.72 L 0.00 250.78 L 30.47 267.19 L 65.62 274.22 L 117.19 271.88 L 147.66 255.47 L 187.50 213.28 L 250.78 89.06 L 250.78 217.97 L 239.06 309.38 L 239.06 396.09 L 243.75 417.19 L 302.34 445.31 L 389.06 461.72 L 431.25 459.38 L 457.03 440.62 L 468.75 419.53 L 482.81 365.62 L 421.88 77.34 L 480.47 201.56 L 513.28 246.09 L 578.91 288.28 L 590.62 290.62 L 597.66 278.91 L 595.31 236.72 L 576.56 185.16 L 567.19 138.28 L 564.84 70.31 L 548.44 35.16 L 510.94 7.03 L 492.19 0.00 L 227.34 2.34 L 159.38 18.75 L 152.34 70.31" stroke="black" fill="transparent"/>
	<path d = "M 311.72 32.81 L 344.53 145.31 L 370.31 337.50 L 382.03 372.66 L 379.69 471.09 L 389.06 466.41" stroke="black" fill="transparent"/>
</svg>