<?xml version="1.0" encoding="UTF-8" standalone="no"?>
<!--Created with ndjsontosvg (https:https://github.com/thompson318/ndjsontosvg) 
	from the simplified Google quickdraw data set. key_id = 6025102653128704-->
<svg width="600" height="600"
	xmlns="http://www.w3.org/2000/svg">
	xmlns:ndjsontosvg="https://github.com/thompson318/ndjsontosvg"
	xmlns:quickdraw="https://quickdraw.withgoogle.com/data"
	xmlns:scikit-surgery="https://doi.org/10.1007/s11548-020-02180-5">

	<rect width="100%" height="100%" fill="white" />
	<path d = "M 0.00 23.44 L 25.78 18.75 L 220.31 18.75 L 239.06 11.72 L 525.00 11.72 L 571.88 0.00 L 578.91 14.06 L 578.91 30.47 L 567.19 37.50 L 431.25 30.47 L 358.59 42.19 L 243.75 42.19 L 140.62 60.94 L 7.03 58.59 L 0.00 23.44" stroke="black" fill="transparent"/>
	<path d = "M 25.78 384.38 L 590.62 382.03 L 597.66 391.41 L 597.66 419.53 L 574.22 431.25 L 300.00 431.25 L 100.78 450.00 L 53.91 450.00 L 42.19 442.97 L 37.50 405.47" stroke="black" fill="transparent"/>
	<path d = "M 60.94 46.88 L 53.91 60.94 L 53.91 328.12 L 60.94 346.88" stroke="black" fill="transparent"/>
	<path d = "M 234.38 46.88 L 227.34 56.25 L 227.34 264.84 L 215.62 323.44 L 215.62 372.66" stroke="black" fill="transparent"/>
	<path d = "M 382.03 42.19 L 393.75 89.06 L 407.81 382.03" stroke="black" fill="transparent"/>
	<path d = "M 532.03 25.78 L 550.78 365.62" stroke="black" fill="transparent"/>
	<path d = "M 44.53 335.16 L 42.19 365.62" stroke="black" fill="transparent"/>
	<path d = "M 562.50 370.31 L 562.50 382.03" stroke="black" fill="transparent"/>
	<path d = "M 60.94 339.84 L 49.22 365.62" stroke="black" fill="transparent"/>
	<path d = "M 107.81 72.66 L 107.81 377.34" stroke="black" fill="transparent"/>
	<path d = "M 166.41 60.94 L 173.44 70.31 L 178.12 189.84 L 192.19 239.06 L 192.19 382.03" stroke="black" fill="transparent"/>
	<path d = "M 271.88 65.62 L 281.25 84.38 L 285.94 145.31 L 292.97 281.25 L 292.97 367.97 L 285.94 400.78 L 285.94 370.31" stroke="black" fill="transparent"/>
	<path d = "M 323.44 56.25 L 328.12 84.38" stroke="black" fill="transparent"/>
</svg>