<?xml version="1.0" encoding="UTF-8" standalone="no"?>
<!--Created with ndjsontosvg (https:https://github.com/thompson318/ndjsontosvg) 
	from the simplified Google quickdraw data set. key_id = 6155633688576000-->
<svg width="600" height="600"
	xmlns="http://www.w3.org/2000/svg">
	xmlns:ndjsontosvg="https://github.com/thompson318/ndjsontosvg"
	xmlns:quickdraw="https://quickdraw.withgoogle.com/data"
	xmlns:scikit-surgery="https://doi.org/10.1007/s11548-020-02180-5">

	<rect width="100%" height="100%" fill="white" />
	<path d = "M 264.84 131.25 L 278.91 164.06 L 328.12 405.47 L 323.44 438.28 L 276.56 487.50 L 135.94 536.72 L 119.53 536.72 L 96.09 489.84" stroke="black" fill="transparent"/>
	<path d = "M 262.50 117.19 L 290.62 121.88 L 300.00 107.81 L 297.66 86.72 L 264.84 67.97 L 262.50 7.03 L 248.44 2.34 L 239.06 53.91 L 194.53 9.38 L 192.19 58.59 L 203.91 89.06 L 196.88 222.66 L 234.38 243.75 L 239.06 309.38 L 222.66 328.12 L 210.94 309.38 L 210.94 281.25 L 187.50 283.59 L 178.12 344.53 L 142.97 365.62 L 133.59 384.38 L 56.25 344.53 L 49.22 239.06 L 35.16 185.16 L 25.78 171.09 L 4.69 171.09 L 0.00 194.53 L 9.38 241.41 L 9.38 391.41 L 49.22 461.72 L 86.72 496.88" stroke="black" fill="transparent"/>
	<path d = "M 124.22 464.06 L 96.09 478.12 L 89.06 515.62 L 93.75 548.44 L 227.34 574.22 L 269.53 588.28 L 274.22 597.66 L 271.88 562.50 L 257.81 527.34 L 189.84 527.34 L 194.53 513.28" stroke="black" fill="transparent"/>
	<path d = "M 330.47 468.75 L 330.47 468.75" stroke="black" fill="transparent"/>
</svg>