<?xml version="1.0" encoding="UTF-8" standalone="no"?>
<!--Created with ndjsontosvg (https:https://github.com/thompson318/ndjsontosvg) 
	from the simplified Google quickdraw data set. key_id = 4894006800547840-->
<svg width="600" height="600"
	xmlns="http://www.w3.org/2000/svg">
	xmlns:ndjsontosvg="https://github.com/thompson318/ndjsontosvg"
	xmlns:quickdraw="https://quickdraw.withgoogle.com/data"
	xmlns:scikit-surgery="https://doi.org/10.1007/s11548-020-02180-5">

	<rect width="100%" height="100%" fill="white" />
	<path d = "M 98.44 527.34 L 9.38 539.06 L 0.00 553.12 L 9.38 583.59 L 37.50 597.66 L 150.00 583.59" stroke="black" fill="transparent"/>
	<path d = "M 297.66 494.53 L 318.75 506.25 L 410.16 510.94 L 431.25 527.34 L 421.88 546.09 L 377.34 571.88 L 328.12 574.22" stroke="black" fill="transparent"/>
	<path d = "M 14.06 548.44 L 84.38 543.75" stroke="black" fill="transparent"/>
	<path d = "M 37.50 567.19 L 53.91 569.53" stroke="black" fill="transparent"/>
	<path d = "M 421.88 501.56 L 339.84 515.62" stroke="black" fill="transparent"/>
	<path d = "M 410.16 529.69 L 389.06 541.41 L 349.22 541.41" stroke="black" fill="transparent"/>
	<path d = "M 161.72 576.56 L 171.09 403.12" stroke="black" fill="transparent"/>
	<path d = "M 96.09 517.97 L 96.09 496.88 L 124.22 421.88" stroke="black" fill="transparent"/>
	<path d = "M 316.41 480.47 L 307.03 457.03 L 309.38 426.56" stroke="black" fill="transparent"/>
	<path d = "M 344.53 590.62 L 297.66 585.94 L 271.88 564.84 L 262.50 435.94 L 257.81 428.91 L 201.56 412.50 L 192.19 405.47 L 192.19 389.06" stroke="black" fill="transparent"/>
	<path d = "M 323.44 414.84 L 346.88 370.31 L 346.88 325.78 L 309.38 257.81 L 271.88 232.03" stroke="black" fill="transparent"/>
	<path d = "M 126.56 450.00 L 105.47 435.94 L 86.72 410.16 L 75.00 370.31 L 79.69 323.44 L 93.75 283.59 L 114.84 255.47 L 201.56 215.62 L 166.41 168.75 L 166.41 133.59 L 173.44 110.16 L 192.19 93.75 L 217.97 86.72 L 260.16 96.09 L 304.69 147.66 L 307.03 196.88 L 271.88 234.38 L 220.31 232.03 L 201.56 227.34 L 203.91 222.66" stroke="black" fill="transparent"/>
	<path d = "M 290.62 93.75 L 304.69 65.62 L 344.53 23.44 L 370.31 4.69 L 396.09 4.69 L 393.75 30.47 L 365.62 72.66 L 304.69 126.56" stroke="black" fill="transparent"/>
</svg>