<?xml version="1.0" encoding="UTF-8" standalone="no"?>
<!--Created with ndjsontosvg (https:https://github.com/thompson318/ndjsontosvg) 
	from the simplified Google quickdraw data set. key_id = 5706322550980608-->
<svg width="600" height="600"
	xmlns="http://www.w3.org/2000/svg">
	xmlns:ndjsontosvg="https://github.com/thompson318/ndjsontosvg"
	xmlns:quickdraw="https://quickdraw.withgoogle.com/data"
	xmlns:scikit-surgery="https://doi.org/10.1007/s11548-020-02180-5">

	<rect width="100%" height="100%" fill="white" />
	<path d = "M 39.84 182.81 L 39.84 314.06 L 56.25 372.66 L 86.72 428.91 L 140.62 471.09 L 142.97 482.81 L 131.25 553.12 L 65.62 564.84 L 67.97 574.22 L 117.19 590.62 L 154.69 576.56 L 171.09 546.09 L 178.12 478.12 L 199.22 496.88 L 199.22 546.09 L 196.88 555.47 L 171.09 574.22 L 168.75 583.59 L 194.53 597.66 L 229.69 590.62 L 241.41 571.88 L 243.75 532.03 L 229.69 482.81 L 241.41 480.47 L 309.38 522.66 L 363.28 546.09 L 428.91 555.47 L 447.66 553.12 L 454.69 546.09 L 356.25 499.22 L 314.06 457.03 L 278.91 398.44 L 220.31 267.19 L 150.00 187.50 L 140.62 168.75 L 133.59 53.91 L 114.84 18.75 L 86.72 2.34 L 49.22 0.00 L 14.06 18.75 L 4.69 37.50 L 4.69 117.19 L 21.09 164.06 L 37.50 185.16" stroke="black" fill="transparent"/>
</svg>