<?xml version="1.0" encoding="UTF-8" standalone="no"?>
<!--Created with ndjsontosvg (https:https://github.com/thompson318/ndjsontosvg) 
	from the simplified Google quickdraw data set. key_id = 4773164062081024-->
<svg width="600" height="600"
	xmlns="http://www.w3.org/2000/svg">
	xmlns:ndjsontosvg="https://github.com/thompson318/ndjsontosvg"
	xmlns:quickdraw="https://quickdraw.withgoogle.com/data"
	xmlns:scikit-surgery="https://doi.org/10.1007/s11548-020-02180-5">

	<rect width="100%" height="100%" fill="white" />
	<path d = "M 459.38 168.75 L 459.38 147.66 L 487.50 96.09 L 503.91 98.44 L 525.00 152.34 L 520.31 175.78 L 506.25 182.81 L 480.47 182.81 L 442.97 150.00 L 457.03 117.19" stroke="black" fill="transparent"/>
	<path d = "M 412.50 105.47 L 412.50 84.38 L 426.56 58.59 L 473.44 16.41 L 517.97 0.00 L 560.16 7.03 L 590.62 53.91 L 597.66 110.16 L 592.97 173.44 L 560.16 196.88 L 520.31 208.59 L 447.66 208.59 L 424.22 192.19 L 417.19 161.72 L 407.81 159.38 L 140.62 154.69 L 142.97 250.78 L 107.81 253.12 L 93.75 241.41 L 82.03 217.97 L 82.03 157.03 L 84.38 173.44 L 58.59 222.66 L 44.53 276.56 L 30.47 290.62 L 11.72 276.56 L 0.00 215.62 L 2.34 140.62 L 23.44 124.22 L 86.72 114.84 L 339.84 103.12 L 447.66 86.72" stroke="black" fill="transparent"/>
</svg>