<?xml version="1.0" encoding="UTF-8" standalone="no"?>
<!--Created with ndjsontosvg (https:https://github.com/thompson318/ndjsontosvg) 
	from the simplified Google quickdraw data set. key_id = 6054223252815872-->
<svg width="600" height="600"
	xmlns="http://www.w3.org/2000/svg">
	xmlns:ndjsontosvg="https://github.com/thompson318/ndjsontosvg"
	xmlns:quickdraw="https://quickdraw.withgoogle.com/data"
	xmlns:scikit-surgery="https://doi.org/10.1007/s11548-020-02180-5">

	<rect width="100%" height="100%" fill="white" />
	<path d = "M 142.97 107.81 L 161.72 75.00 L 154.69 53.91 L 112.50 35.16 L 60.94 30.47 L 49.22 60.94 L 58.59 119.53 L 77.34 131.25 L 126.56 121.88" stroke="black" fill="transparent"/>
	<path d = "M 37.50 161.72 L 9.38 131.25 L 0.00 98.44 L 2.34 49.22 L 18.75 9.38 L 37.50 0.00 L 121.88 4.69 L 154.69 18.75 L 189.84 56.25" stroke="black" fill="transparent"/>
	<path d = "M 44.53 166.41 L 126.56 171.09 L 145.31 164.06 L 175.78 142.97 L 185.16 114.84" stroke="black" fill="transparent"/>
	<path d = "M 185.16 110.16 L 267.19 98.44 L 452.34 98.44" stroke="black" fill="transparent"/>
	<path d = "M 452.34 98.44 L 440.62 161.72 L 496.88 159.38 L 492.19 114.84 L 527.34 128.91 L 522.66 168.75 L 597.66 159.38 L 588.28 103.12 L 546.09 9.38 L 203.91 7.03" stroke="black" fill="transparent"/>
</svg>