<?xml version="1.0" encoding="UTF-8" standalone="no"?>
<!--Created with ndjsontosvg (https:https://github.com/thompson318/ndjsontosvg) 
	from the simplified Google quickdraw data set. key_id = 5091793089593344-->
<svg width="600" height="600"
	xmlns="http://www.w3.org/2000/svg">
	xmlns:ndjsontosvg="https://github.com/thompson318/ndjsontosvg"
	xmlns:quickdraw="https://quickdraw.withgoogle.com/data"
	xmlns:scikit-surgery="https://doi.org/10.1007/s11548-020-02180-5">

	<rect width="100%" height="100%" fill="white" />
	<path d = "M 217.97 307.03 L 260.16 281.25 L 300.00 276.56 L 300.00 314.06 L 283.59 382.03 L 307.03 384.38 L 365.62 356.25 L 370.31 433.59 L 384.38 442.97 L 457.03 442.97 L 461.72 496.88 L 473.44 501.56 L 541.41 501.56" stroke="black" fill="transparent"/>
	<path d = "M 525.00 510.94 L 562.50 494.53 L 585.94 468.75 L 597.66 445.31 L 597.66 417.19 L 457.03 267.19 L 403.12 220.31 L 318.75 178.12 L 250.78 173.44 L 213.28 187.50 L 210.94 171.09 L 220.31 147.66 L 278.91 49.22 L 267.19 28.12 L 232.03 4.69 L 147.66 0.00 L 77.34 32.81 L 30.47 72.66 L 2.34 131.25 L 0.00 213.28 L 11.72 257.81 L 30.47 292.97 L 67.97 330.47 L 98.44 346.88 L 147.66 356.25 L 182.81 351.56 L 210.94 321.09 L 222.66 297.66 L 241.41 164.06" stroke="black" fill="transparent"/>
	<path d = "M 114.84 220.31 L 107.81 159.38 L 114.84 112.50 L 142.97 96.09 L 152.34 98.44 L 164.06 110.16 L 173.44 133.59 L 178.12 199.22 L 154.69 232.03 L 124.22 248.44 L 89.06 243.75 L 77.34 213.28 L 82.03 178.12" stroke="black" fill="transparent"/>
</svg>