<?xml version="1.0" encoding="UTF-8" standalone="no"?>
<!--Created with ndjsontosvg (https:https://github.com/thompson318/ndjsontosvg) 
	from the simplified Google quickdraw data set. key_id = 5714468522688512-->
<svg width="600" height="600"
	xmlns="http://www.w3.org/2000/svg">
	xmlns:ndjsontosvg="https://github.com/thompson318/ndjsontosvg"
	xmlns:quickdraw="https://quickdraw.withgoogle.com/data"
	xmlns:scikit-surgery="https://doi.org/10.1007/s11548-020-02180-5">

	<rect width="100%" height="100%" fill="white" />
	<path d = "M 496.88 0.00 L 435.94 11.72 L 372.66 49.22 L 351.56 84.38 L 344.53 121.88 L 370.31 154.69 L 396.09 164.06 L 454.69 171.09 L 510.94 159.38 L 546.09 133.59 L 564.84 110.16 L 592.97 65.62 L 597.66 44.53 L 588.28 28.12 L 567.19 14.06 L 515.62 2.34 L 475.78 7.03" stroke="black" fill="transparent"/>
	<path d = "M 480.47 77.34 L 466.41 93.75 L 466.41 114.84 L 482.81 121.88 L 501.56 112.50 L 510.94 89.06" stroke="black" fill="transparent"/>
	<path d = "M 339.84 117.19 L 234.38 208.59 L 128.91 321.09 L 0.00 419.53 L 2.34 501.56 L 21.09 529.69 L 39.84 536.72 L 103.12 546.09 L 154.69 539.06 L 171.09 520.31 L 175.78 503.91 L 159.38 428.91 L 178.12 417.19 L 229.69 410.16 L 239.06 363.28 L 285.94 386.72 L 302.34 379.69 L 323.44 342.19 L 321.09 295.31 L 337.50 283.59 L 389.06 274.22 L 389.06 255.47 L 365.62 222.66 L 459.38 147.66" stroke="black" fill="transparent"/>
</svg>