<?xml version="1.0" encoding="UTF-8" standalone="no"?>
<!--Created with ndjsontosvg (https:https://github.com/thompson318/ndjsontosvg) 
	from the simplified Google quickdraw data set. key_id = 6561712700391424-->
<svg width="600" height="600"
	xmlns="http://www.w3.org/2000/svg">
	xmlns:ndjsontosvg="https://github.com/thompson318/ndjsontosvg"
	xmlns:quickdraw="https://quickdraw.withgoogle.com/data"
	xmlns:scikit-surgery="https://doi.org/10.1007/s11548-020-02180-5">

	<rect width="100%" height="100%" fill="white" />
	<path d = "M 194.53 0.00 L 107.81 32.81 L 39.84 70.31 L 14.06 100.78 L 7.03 131.25 L 9.38 157.03 L 32.81 185.16 L 51.56 187.50 L 126.56 166.41 L 154.69 145.31 L 192.19 91.41 L 203.91 21.09" stroke="black" fill="transparent"/>
	<path d = "M 60.94 201.56 L 75.00 225.00 L 72.66 307.03 L 0.00 377.34 L 53.91 386.72 L 63.28 391.41 L 63.28 403.12 L 28.12 440.62 L 9.38 482.81 L 37.50 489.84 L 91.41 489.84 L 18.75 578.91 L 114.84 597.66 L 187.50 592.97" stroke="black" fill="transparent"/>
	<path d = "M 67.97 550.78 L 178.12 543.75 L 189.84 525.00 L 187.50 471.09 L 203.91 466.41 L 241.41 482.81 L 154.69 372.66 L 159.38 358.59 L 194.53 344.53 L 255.47 337.50 L 236.72 309.38 L 161.72 255.47 L 201.56 227.34 L 255.47 201.56 L 239.06 187.50 L 159.38 157.03" stroke="black" fill="transparent"/>
</svg>