<?xml version="1.0" encoding="UTF-8" standalone="no"?>
<!--Created with ndjsontosvg (https:https://github.com/thompson318/ndjsontosvg) 
	from the simplified Google quickdraw data set. key_id = 5431555000369152-->
<svg width="600" height="600"
	xmlns="http://www.w3.org/2000/svg">
	xmlns:ndjsontosvg="https://github.com/thompson318/ndjsontosvg"
	xmlns:quickdraw="https://quickdraw.withgoogle.com/data"
	xmlns:scikit-surgery="https://doi.org/10.1007/s11548-020-02180-5">

	<rect width="100%" height="100%" fill="white" />
	<path d = "M 2.34 60.94 L 11.72 35.16 L 32.81 56.25 L 53.91 39.84 L 72.66 56.25 L 89.06 46.88 L 98.44 63.28 L 107.81 63.28 L 124.22 44.53 L 152.34 53.91" stroke="black" fill="transparent"/>
	<path d = "M 0.00 75.00 L 11.72 112.50 L 32.81 131.25 L 63.28 138.28 L 400.78 135.94" stroke="black" fill="transparent"/>
	<path d = "M 152.34 51.56 L 220.31 70.31 L 412.50 77.34 L 485.16 4.69 L 517.97 0.00 L 567.19 7.03 L 583.59 21.09 L 588.28 37.50 L 595.31 182.81 L 585.94 222.66 L 546.09 274.22 L 525.00 281.25 L 496.88 276.56 L 433.59 243.75 L 403.12 194.53 L 407.81 133.59" stroke="black" fill="transparent"/>
	<path d = "M 529.69 82.03 L 501.56 72.66 L 485.16 79.69 L 475.78 86.72 L 468.75 121.88 L 466.41 166.41 L 475.78 182.81 L 503.91 185.16 L 527.34 173.44 L 534.38 154.69 L 529.69 60.94" stroke="black" fill="transparent"/>
	<path d = "M 70.31 93.75 L 480.47 105.47" stroke="black" fill="transparent"/>
</svg>