<?xml version="1.0" encoding="UTF-8" standalone="no"?>
<!--Created with ndjsontosvg (https:https://github.com/thompson318/ndjsontosvg) 
	from the simplified Google quickdraw data set. key_id = 6426085682053120-->
<svg width="600" height="600"
	xmlns="http://www.w3.org/2000/svg">
	xmlns:ndjsontosvg="https://github.com/thompson318/ndjsontosvg"
	xmlns:quickdraw="https://quickdraw.withgoogle.com/data"
	xmlns:scikit-surgery="https://doi.org/10.1007/s11548-020-02180-5">

	<rect width="100%" height="100%" fill="white" />
	<path d = "M 0.00 114.84 L 75.00 91.41 L 178.12 16.41 L 210.94 2.34 L 283.59 9.38 L 304.69 44.53 L 321.09 100.78 L 335.16 117.19 L 466.41 142.97 L 590.62 135.94 L 595.31 241.41 L 583.59 243.75 L 539.06 217.97 L 532.03 220.31 L 529.69 250.78 L 503.91 217.97 L 494.53 217.97 L 468.75 236.72 L 426.56 225.00 L 405.47 239.06 L 379.69 246.09 L 363.28 232.03 L 353.91 210.94 L 311.72 196.88 L 274.22 262.50 L 225.00 309.38 L 187.50 314.06 L 145.31 283.59 L 72.66 157.03 L 42.19 128.91" stroke="black" fill="transparent"/>
	<path d = "M 201.56 82.03 L 180.47 173.44 L 180.47 192.19 L 194.53 201.56 L 217.97 203.91 L 248.44 159.38 L 250.78 128.91 L 227.34 96.09" stroke="black" fill="transparent"/>
	<path d = "M 332.81 164.06 L 576.56 168.75" stroke="black" fill="transparent"/>
</svg>