<?xml version="1.0" encoding="UTF-8" standalone="no"?>
<!--Created with ndjsontosvg (https:https://github.com/thompson318/ndjsontosvg) 
	from the simplified Google quickdraw data set. key_id = 5945732550885376-->
<svg width="600" height="600"
	xmlns="http://www.w3.org/2000/svg">
	xmlns:ndjsontosvg="https://github.com/thompson318/ndjsontosvg"
	xmlns:quickdraw="https://quickdraw.withgoogle.com/data"
	xmlns:scikit-surgery="https://doi.org/10.1007/s11548-020-02180-5">

	<rect width="100%" height="100%" fill="white" />
	<path d = "M 84.38 461.72 L 53.91 468.75 L 39.84 482.81 L 28.12 501.56 L 21.09 543.75 L 103.12 588.28 L 161.72 595.31 L 185.16 510.94 L 185.16 485.16 L 168.75 457.03 L 138.28 447.66 L 58.59 471.09" stroke="black" fill="transparent"/>
	<path d = "M 30.47 515.62 L 30.47 314.06 L 44.53 203.91 L 35.16 65.62 L 44.53 39.84 L 63.28 18.75 L 89.06 9.38 L 164.06 0.00 L 253.12 2.34 L 262.50 14.06 L 281.25 72.66 L 248.44 89.06 L 173.44 93.75 L 150.00 112.50 L 133.59 147.66 L 135.94 257.81 L 206.25 262.50 L 215.62 274.22 L 213.28 332.81 L 192.19 342.19 L 142.97 344.53 L 131.25 471.09 L 117.19 475.78 L 75.00 464.06 L 0.00 464.06" stroke="black" fill="transparent"/>
</svg>