<?xml version="1.0" encoding="UTF-8" standalone="no"?>
<!--Created with ndjsontosvg (https:https://github.com/thompson318/ndjsontosvg) 
	from the simplified Google quickdraw data set. key_id = 4815797786509312-->
<svg width="600" height="600"
	xmlns="http://www.w3.org/2000/svg">
	xmlns:ndjsontosvg="https://github.com/thompson318/ndjsontosvg"
	xmlns:quickdraw="https://quickdraw.withgoogle.com/data"
	xmlns:scikit-surgery="https://doi.org/10.1007/s11548-020-02180-5">

	<rect width="100%" height="100%" fill="white" />
	<path d = "M 25.78 14.06 L 114.84 0.00 L 166.41 4.69 L 178.12 35.16 L 175.78 98.44 L 194.53 107.81 L 360.94 75.00 L 583.59 65.62 L 597.66 77.34 L 597.66 133.59 L 590.62 173.44 L 578.91 182.81 L 562.50 182.81 L 536.72 154.69 L 525.00 154.69 L 501.56 201.56 L 489.84 187.50 L 475.78 187.50 L 454.69 215.62 L 428.91 175.78 L 407.81 206.25 L 393.75 206.25 L 377.34 171.09 L 365.62 164.06 L 346.88 192.19 L 330.47 189.84 L 328.12 178.12 L 314.06 180.47 L 292.97 208.59 L 276.56 199.22 L 276.56 185.16 L 253.12 217.97 L 243.75 217.97 L 229.69 182.81 L 194.53 215.62 L 206.25 217.97 L 213.28 232.03 L 215.62 274.22 L 203.91 325.78 L 187.50 356.25 L 131.25 375.00 L 82.03 377.34 L 25.78 393.75 L 18.75 377.34 L 0.00 199.22 L 16.41 21.09" stroke="black" fill="transparent"/>
	<path d = "M 42.19 44.53 L 35.16 75.00 L 39.84 119.53 L 51.56 124.22 L 75.00 119.53 L 82.03 107.81 L 77.34 37.50 L 42.19 53.91" stroke="black" fill="transparent"/>
</svg>