<?xml version="1.0" encoding="UTF-8" standalone="no"?>
<!--Created with ndjsontosvg (https:https://github.com/thompson318/ndjsontosvg) 
	from the simplified Google quickdraw data set. key_id = 6333111182819328-->
<svg width="600" height="600"
	xmlns="http://www.w3.org/2000/svg">
	xmlns:ndjsontosvg="https://github.com/thompson318/ndjsontosvg"
	xmlns:quickdraw="https://quickdraw.withgoogle.com/data"
	xmlns:scikit-surgery="https://doi.org/10.1007/s11548-020-02180-5">

	<rect width="100%" height="100%" fill="white" />
	<path d = "M 330.47 4.69 L 379.69 7.03 L 454.69 37.50 L 510.94 75.00 L 550.78 112.50 L 569.53 140.62 L 576.56 178.12 L 546.09 217.97 L 520.31 227.34 L 440.62 234.38 L 375.00 220.31 L 344.53 206.25 L 281.25 152.34 L 236.72 96.09 L 225.00 58.59 L 227.34 37.50 L 274.22 0.00 L 316.41 9.38" stroke="black" fill="transparent"/>
	<path d = "M 424.22 257.81 L 255.47 461.72 L 131.25 592.97 L 119.53 597.66 L 60.94 506.25 L 0.00 379.69 L 23.44 358.59 L 37.50 356.25 L 63.28 391.41 L 93.75 452.34 L 105.47 454.69 L 157.03 417.19 L 166.41 400.78 L 145.31 337.50 L 159.38 332.81 L 203.91 377.34 L 260.16 290.62 L 297.66 250.78" stroke="black" fill="transparent"/>
	<path d = "M 351.56 30.47 L 382.03 39.84 L 398.44 53.91 L 426.56 93.75 L 431.25 128.91 L 417.19 142.97 L 386.72 150.00 L 339.84 124.22" stroke="black" fill="transparent"/>
</svg>