<?xml version="1.0" encoding="UTF-8" standalone="no"?>
<!--Created with ndjsontosvg (https:https://github.com/thompson318/ndjsontosvg) 
	from the simplified Google quickdraw data set. key_id = 5602965685534720-->
<svg width="600" height="600"
	xmlns="http://www.w3.org/2000/svg">
	xmlns:ndjsontosvg="https://github.com/thompson318/ndjsontosvg"
	xmlns:quickdraw="https://quickdraw.withgoogle.com/data"
	xmlns:scikit-surgery="https://doi.org/10.1007/s11548-020-02180-5">

	<rect width="100%" height="100%" fill="white" />
	<path d = "M 196.88 297.66 L 182.81 248.44 L 185.16 344.53 L 164.06 407.81 L 126.56 473.44 L 16.41 588.28" stroke="black" fill="transparent"/>
	<path d = "M 274.22 278.91 L 274.22 428.91 L 295.31 501.56 L 330.47 548.44 L 370.31 576.56 L 414.84 595.31" stroke="black" fill="transparent"/>
	<path d = "M 0.00 564.84 L 53.91 578.91 L 243.75 595.31 L 367.97 597.66 L 447.66 588.28" stroke="black" fill="transparent"/>
	<path d = "M 269.53 311.72 L 264.84 213.28 L 255.47 206.25 L 164.06 217.97 L 178.12 267.19 L 180.47 318.75" stroke="black" fill="transparent"/>
	<path d = "M 196.88 77.34 L 196.88 77.34" stroke="black" fill="transparent"/>
	<path d = "M 142.97 49.22 L 229.69 63.28 L 264.84 46.88 L 321.09 0.00" stroke="black" fill="transparent"/>
	<path d = "M 154.69 46.88 L 142.97 70.31 L 84.38 110.16 L 0.00 152.34" stroke="black" fill="transparent"/>
	<path d = "M 0.00 178.12 L 63.28 192.19 L 213.28 269.53" stroke="black" fill="transparent"/>
	<path d = "M 175.78 241.41 L 199.22 222.66 L 285.94 208.59 L 318.75 208.59 L 384.38 225.00" stroke="black" fill="transparent"/>
	<path d = "M 370.31 239.06 L 363.28 166.41 L 377.34 98.44 L 414.84 44.53 L 464.06 7.03" stroke="black" fill="transparent"/>
</svg>