<?xml version="1.0" encoding="UTF-8" standalone="no"?>
<!--Created with ndjsontosvg (https:https://github.com/thompson318/ndjsontosvg) 
	from the simplified Google quickdraw data set. key_id = 6493619898810368-->
<svg width="600" height="600"
	xmlns="http://www.w3.org/2000/svg">
	xmlns:ndjsontosvg="https://github.com/thompson318/ndjsontosvg"
	xmlns:quickdraw="https://quickdraw.withgoogle.com/data"
	xmlns:scikit-surgery="https://doi.org/10.1007/s11548-020-02180-5">

	<rect width="100%" height="100%" fill="white" />
	<path d = "M 93.75 138.28 L 77.34 117.19 L 63.28 84.38 L 60.94 49.22 L 67.97 35.16 L 117.19 9.38 L 178.12 0.00 L 208.59 16.41 L 225.00 35.16 L 236.72 86.72 L 220.31 124.22 L 164.06 154.69" stroke="black" fill="transparent"/>
	<path d = "M 117.19 131.25 L 107.81 145.31 L 103.12 171.09 L 112.50 189.84 L 126.56 192.19" stroke="black" fill="transparent"/>
	<path d = "M 124.22 121.88 L 159.38 138.28 L 175.78 180.47 L 175.78 208.59" stroke="black" fill="transparent"/>
	<path d = "M 135.94 145.31 L 117.19 152.34 L 117.19 168.75 L 135.94 175.78 L 142.97 154.69" stroke="black" fill="transparent"/>
	<path d = "M 98.44 135.94 L 110.16 147.66" stroke="black" fill="transparent"/>
	<path d = "M 159.38 152.34 L 126.56 161.72" stroke="black" fill="transparent"/>
	<path d = "M 119.53 196.88 L 91.41 206.25 L 32.81 239.06" stroke="black" fill="transparent"/>
	<path d = "M 180.47 201.56 L 227.34 213.28" stroke="black" fill="transparent"/>
	<path d = "M 227.34 215.62 L 288.28 276.56" stroke="black" fill="transparent"/>
	<path d = "M 39.84 239.06 L 4.69 290.62" stroke="black" fill="transparent"/>
	<path d = "M 138.28 248.44 L 152.34 278.91" stroke="black" fill="transparent"/>
	<path d = "M 152.34 285.94 L 152.34 300.00" stroke="black" fill="transparent"/>
	<path d = "M 0.00 297.66 L 138.28 311.72" stroke="black" fill="transparent"/>
	<path d = "M 145.31 311.72 L 278.91 269.53" stroke="black" fill="transparent"/>
	<path d = "M 0.00 302.34 L 2.34 457.03 L 14.06 595.31" stroke="black" fill="transparent"/>
	<path d = "M 16.41 595.31 L 145.31 597.66 L 241.41 588.28 L 307.03 543.75 L 328.12 503.91" stroke="black" fill="transparent"/>
	<path d = "M 271.88 267.19 L 271.88 351.56 L 288.28 546.09" stroke="black" fill="transparent"/>
	<path d = "M 142.97 302.34 L 171.09 578.91" stroke="black" fill="transparent"/>
</svg>