<?xml version="1.0" encoding="UTF-8" standalone="no"?>
<!--Created with ndjsontosvg (https:https://github.com/thompson318/ndjsontosvg) 
	from the simplified Google quickdraw data set. key_id = 5530191222800384-->
<svg width="600" height="600"
	xmlns="http://www.w3.org/2000/svg">
	xmlns:ndjsontosvg="https://github.com/thompson318/ndjsontosvg"
	xmlns:quickdraw="https://quickdraw.withgoogle.com/data"
	xmlns:scikit-surgery="https://doi.org/10.1007/s11548-020-02180-5">

	<rect width="100%" height="100%" fill="white" />
	<path d = "M 117.19 159.38 L 225.00 145.31 L 365.62 145.31 L 363.28 157.03 L 316.41 225.00 L 372.66 278.91 L 386.72 304.69 L 403.12 353.91 L 405.47 405.47 L 398.44 426.56 L 379.69 445.31 L 325.78 468.75 L 344.53 555.47 L 67.97 597.66 L 63.28 590.62 L 79.69 553.12 L 133.59 473.44 L 70.31 454.69 L 32.81 431.25 L 4.69 398.44 L 0.00 365.62 L 9.38 332.81 L 28.12 300.00 L 124.22 227.34 L 126.56 215.62 L 103.12 152.34" stroke="black" fill="transparent"/>
	<path d = "M 103.12 330.47 L 117.19 295.31 L 150.00 271.88 L 194.53 260.16 L 239.06 264.84 L 269.53 283.59 L 285.94 314.06 L 290.62 349.22 L 281.25 384.38 L 262.50 414.84 L 222.66 435.94 L 166.41 440.62 L 131.25 426.56 L 103.12 391.41 L 93.75 360.94 L 98.44 318.75 L 121.88 281.25" stroke="black" fill="transparent"/>
	<path d = "M 131.25 424.22 L 166.41 300.00 L 185.16 269.53 L 208.59 295.31 L 257.81 417.19" stroke="black" fill="transparent"/>
	<path d = "M 103.12 323.44 L 131.25 349.22 L 175.78 360.94 L 217.97 346.88 L 253.12 309.38" stroke="black" fill="transparent"/>
	<path d = "M 93.75 150.00 L 96.09 117.19 L 126.56 44.53 L 164.06 14.06 L 210.94 0.00 L 267.19 4.69 L 309.38 32.81 L 330.47 79.69 L 330.47 138.28" stroke="black" fill="transparent"/>
</svg>