<?xml version="1.0" encoding="UTF-8" standalone="no"?>
<!--Created with ndjsontosvg (https:https://github.com/thompson318/ndjsontosvg) 
	from the simplified Google quickdraw data set. key_id = 6148159086526464-->
<svg width="600" height="600"
	xmlns="http://www.w3.org/2000/svg">
	xmlns:ndjsontosvg="https://github.com/thompson318/ndjsontosvg"
	xmlns:quickdraw="https://quickdraw.withgoogle.com/data"
	xmlns:scikit-surgery="https://doi.org/10.1007/s11548-020-02180-5">

	<rect width="100%" height="100%" fill="white" />
	<path d = "M 278.91 482.81 L 278.91 485.16" stroke="black" fill="transparent"/>
	<path d = "M 292.97 110.16 L 159.38 119.53 L 7.03 152.34 L 0.00 217.97 L 14.06 403.12 L 39.84 557.81 L 185.16 588.28 L 360.94 595.31 L 370.31 578.91 L 372.66 501.56 L 370.31 154.69 L 365.62 140.62 L 316.41 96.09 L 304.69 77.34" stroke="black" fill="transparent"/>
	<path d = "M 117.19 133.59 L 110.16 35.16 L 117.19 11.72 L 128.91 4.69 L 178.12 0.00 L 257.81 7.03 L 262.50 70.31 L 239.06 105.47" stroke="black" fill="transparent"/>
	<path d = "M 157.03 445.31 L 140.62 276.56 L 208.59 274.22 L 234.38 290.62 L 250.78 356.25 L 248.44 426.56 L 232.03 435.94 L 182.81 424.22" stroke="black" fill="transparent"/>
	<path d = "M 189.84 229.69 L 159.38 225.00 L 145.31 196.88 L 138.28 159.38 L 157.03 147.66 L 203.91 142.97 L 201.56 180.47 L 194.53 192.19 L 189.84 189.84" stroke="black" fill="transparent"/>
</svg>