<?xml version="1.0" encoding="UTF-8" standalone="no"?>
<!--Created with ndjsontosvg (https:https://github.com/thompson318/ndjsontosvg) 
	from the simplified Google quickdraw data set. key_id = 5062580718534656-->
<svg width="600" height="600"
	xmlns="http://www.w3.org/2000/svg">
	xmlns:ndjsontosvg="https://github.com/thompson318/ndjsontosvg"
	xmlns:quickdraw="https://quickdraw.withgoogle.com/data"
	xmlns:scikit-surgery="https://doi.org/10.1007/s11548-020-02180-5">

	<rect width="100%" height="100%" fill="white" />
	<path d = "M 131.25 0.00 L 121.88 103.12 L 75.00 112.50 L 44.53 138.28 L 11.72 187.50 L 0.00 225.00 L 67.97 138.28 L 93.75 117.19 L 126.56 105.47 L 187.50 119.53 L 241.41 173.44 L 271.88 229.69" stroke="black" fill="transparent"/>
	<path d = "M 11.72 276.56 L 7.03 260.16 L 14.06 246.09 L 39.84 241.41 L 164.06 260.16 L 285.94 260.16" stroke="black" fill="transparent"/>
	<path d = "M 18.75 260.16 L 16.41 435.94 L 25.78 560.16 L 37.50 590.62 L 51.56 597.66 L 91.41 595.31 L 267.19 557.81 L 330.47 555.47 L 342.19 534.38 L 330.47 365.62 L 290.62 217.97" stroke="black" fill="transparent"/>
	<path d = "M 86.72 567.19 L 185.16 403.12 L 274.22 300.00 L 342.19 243.75" stroke="black" fill="transparent"/>
	<path d = "M 63.28 234.38 L 248.44 435.94 L 351.56 529.69" stroke="black" fill="transparent"/>
</svg>