<?xml version="1.0" encoding="UTF-8" standalone="no"?>
<!--Created with ndjsontosvg (https:https://github.com/thompson318/ndjsontosvg) 
	from the simplified Google quickdraw data set. key_id = 6312976929783808-->
<svg width="600" height="600"
	xmlns="http://www.w3.org/2000/svg">
	xmlns:ndjsontosvg="https://github.com/thompson318/ndjsontosvg"
	xmlns:quickdraw="https://quickdraw.withgoogle.com/data"
	xmlns:scikit-surgery="https://doi.org/10.1007/s11548-020-02180-5">

	<rect width="100%" height="100%" fill="white" />
	<path d = "M 23.44 297.66 L 0.00 525.00 L 2.34 581.25 L 28.12 574.22 L 103.12 574.22 L 438.28 597.66 L 475.78 597.66 L 485.16 588.28 L 475.78 567.19 L 482.81 468.75 L 475.78 316.41 L 152.34 292.97 L 100.78 292.97 L 60.94 304.69 L 4.69 288.28" stroke="black" fill="transparent"/>
	<path d = "M 77.34 384.38 L 75.00 550.78 L 241.41 557.81 L 285.94 571.88 L 323.44 597.66 L 398.44 564.84 L 419.53 562.50 L 424.22 553.12 L 435.94 487.50 L 435.94 405.47 L 360.94 379.69 L 276.56 365.62 L 262.50 356.25 L 117.19 344.53 L 91.41 346.88 L 89.06 384.38" stroke="black" fill="transparent"/>
	<path d = "M 110.16 396.09 L 112.50 396.09" stroke="black" fill="transparent"/>
	<path d = "M 213.28 398.44 L 215.62 400.78" stroke="black" fill="transparent"/>
	<path d = "M 264.84 421.88 L 267.19 421.88" stroke="black" fill="transparent"/>
	<path d = "M 335.16 426.56 L 337.50 424.22" stroke="black" fill="transparent"/>
	<path d = "M 353.91 424.22 L 356.25 424.22" stroke="black" fill="transparent"/>
	<path d = "M 360.94 468.75 L 360.94 468.75" stroke="black" fill="transparent"/>
	<path d = "M 344.53 471.09 L 302.34 471.09" stroke="black" fill="transparent"/>
	<path d = "M 269.53 471.09 L 260.16 471.09" stroke="black" fill="transparent"/>
	<path d = "M 222.66 461.72 L 201.56 461.72" stroke="black" fill="transparent"/>
	<path d = "M 135.94 471.09 L 79.69 459.38" stroke="black" fill="transparent"/>
	<path d = "M 65.62 457.03 L 65.62 461.72" stroke="black" fill="transparent"/>
	<path d = "M 89.06 487.50 L 98.44 489.84" stroke="black" fill="transparent"/>
	<path d = "M 178.12 508.59 L 199.22 513.28" stroke="black" fill="transparent"/>
	<path d = "M 215.62 513.28 L 229.69 517.97" stroke="black" fill="transparent"/>
	<path d = "M 281.25 527.34 L 295.31 527.34" stroke="black" fill="transparent"/>
	<path d = "M 318.75 527.34 L 339.84 527.34" stroke="black" fill="transparent"/>
	<path d = "M 344.53 525.00 L 351.56 525.00" stroke="black" fill="transparent"/>
	<path d = "M 475.78 304.69 L 454.69 49.22 L 445.31 16.41 L 419.53 2.34 L 89.06 2.34 L 18.75 18.75 L 23.44 255.47" stroke="black" fill="transparent"/>
	<path d = "M 58.59 255.47 L 65.62 246.09 L 75.00 119.53 L 89.06 86.72" stroke="black" fill="transparent"/>
</svg>