<?xml version="1.0" encoding="UTF-8" standalone="no"?>
<!--Created with ndjsontosvg (https:https://github.com/thompson318/ndjsontosvg) 
	from the simplified Google quickdraw data set. key_id = 4680371532726272-->
<svg width="600" height="600"
	xmlns="http://www.w3.org/2000/svg">
	xmlns:ndjsontosvg="https://github.com/thompson318/ndjsontosvg"
	xmlns:quickdraw="https://quickdraw.withgoogle.com/data"
	xmlns:scikit-surgery="https://doi.org/10.1007/s11548-020-02180-5">

	<rect width="100%" height="100%" fill="white" />
	<path d = "M 210.94 461.72 L 196.88 597.66 L 192.19 588.28" stroke="black" fill="transparent"/>
	<path d = "M 196.88 459.38 L 79.69 278.91 L 14.06 114.84" stroke="black" fill="transparent"/>
	<path d = "M 16.41 100.78 L 16.41 100.78" stroke="black" fill="transparent"/>
	<path d = "M 7.03 133.59 L 18.75 131.25 L 142.97 25.78 L 194.53 9.38 L 264.84 0.00 L 332.81 18.75 L 389.06 44.53 L 485.16 192.19 L 503.91 269.53 L 503.91 337.50 L 492.19 358.59 L 396.09 450.00 L 363.28 468.75 L 307.03 480.47 L 194.53 482.81" stroke="black" fill="transparent"/>
	<path d = "M 192.19 487.50 L 217.97 196.88 L 234.38 182.81" stroke="black" fill="transparent"/>
	<path d = "M 225.00 365.62 L 269.53 356.25 L 372.66 346.88" stroke="black" fill="transparent"/>
	<path d = "M 201.56 307.03 L 318.75 267.19 L 370.31 239.06" stroke="black" fill="transparent"/>
	<path d = "M 213.28 271.88 L 175.78 278.91 L 126.56 267.19 L 46.88 222.66 L 0.00 175.78" stroke="black" fill="transparent"/>
	<path d = "M 206.25 243.75 L 131.25 67.97" stroke="black" fill="transparent"/>
	<path d = "M 217.97 391.41 L 159.38 391.41 L 103.12 372.66" stroke="black" fill="transparent"/>
</svg>