<?xml version="1.0" encoding="UTF-8" standalone="no"?>
<!--Created with ndjsontosvg (https:https://github.com/thompson318/ndjsontosvg) 
	from the simplified Google quickdraw data set. key_id = 5395266821685248-->
<svg width="600" height="600"
	xmlns="http://www.w3.org/2000/svg">
	xmlns:ndjsontosvg="https://github.com/thompson318/ndjsontosvg"
	xmlns:quickdraw="https://quickdraw.withgoogle.com/data"
	xmlns:scikit-surgery="https://doi.org/10.1007/s11548-020-02180-5">

	<rect width="100%" height="100%" fill="white" />
	<path d = "M 135.94 9.38 L 114.84 39.84 L 192.19 51.56 L 185.16 9.38 L 157.03 0.00 L 135.94 2.34" stroke="black" fill="transparent"/>
	<path d = "M 114.84 44.53 L 103.12 103.12" stroke="black" fill="transparent"/>
	<path d = "M 173.44 53.91 L 180.47 105.47" stroke="black" fill="transparent"/>
	<path d = "M 84.38 98.44 L 159.38 110.16 L 187.50 126.56 L 201.56 187.50 L 220.31 393.75 L 168.75 396.09 L 51.56 384.38 L 0.00 367.97 L 42.19 178.12 L 63.28 126.56 L 91.41 96.09" stroke="black" fill="transparent"/>
	<path d = "M 189.84 65.62 L 232.03 63.28 L 405.47 86.72 L 590.62 86.72" stroke="black" fill="transparent"/>
	<path d = "M 281.25 105.47 L 318.75 142.97 L 375.00 168.75 L 442.97 192.19 L 597.66 222.66" stroke="black" fill="transparent"/>
</svg>