<?xml version="1.0" encoding="UTF-8" standalone="no"?>
<!--Created with ndjsontosvg (https:https://github.com/thompson318/ndjsontosvg) 
	from the simplified Google quickdraw data set. key_id = 4971485955358720-->
<svg width="600" height="600"
	xmlns="http://www.w3.org/2000/svg">
	xmlns:ndjsontosvg="https://github.com/thompson318/ndjsontosvg"
	xmlns:quickdraw="https://quickdraw.withgoogle.com/data"
	xmlns:scikit-surgery="https://doi.org/10.1007/s11548-020-02180-5">

	<rect width="100%" height="100%" fill="white" />
	<path d = "M 278.91 239.06 L 229.69 349.22 L 239.06 384.38 L 264.84 403.12 L 342.19 431.25 L 372.66 428.91 L 377.34 351.56 L 353.91 292.97 L 316.41 248.44 L 281.25 229.69 L 269.53 229.69" stroke="black" fill="transparent"/>
	<path d = "M 292.97 225.00 L 292.97 152.34 L 281.25 84.38 L 276.56 0.00" stroke="black" fill="transparent"/>
	<path d = "M 227.34 499.22 L 173.44 520.31" stroke="black" fill="transparent"/>
	<path d = "M 274.22 550.78 L 292.97 595.31 L 295.31 585.94" stroke="black" fill="transparent"/>
	<path d = "M 396.09 532.03 L 445.31 555.47" stroke="black" fill="transparent"/>
	<path d = "M 297.66 250.78 L 297.66 311.72 L 278.91 332.81 L 281.25 342.19 L 300.00 349.22 L 281.25 318.75 L 300.00 325.78 L 290.62 332.81 L 304.69 344.53" stroke="black" fill="transparent"/>
	<path d = "M 435.94 285.94 L 496.88 276.56 L 506.25 309.38" stroke="black" fill="transparent"/>
	<path d = "M 492.19 417.19 L 569.53 438.28" stroke="black" fill="transparent"/>
	<path d = "M 77.34 276.56 L 0.00 269.53" stroke="black" fill="transparent"/>
	<path d = "M 138.28 344.53 L 67.97 379.69 L 42.19 407.81" stroke="black" fill="transparent"/>
</svg>