<?xml version="1.0" encoding="UTF-8" standalone="no"?>
<!--Created with ndjsontosvg (https:https://github.com/thompson318/ndjsontosvg) 
	from the simplified Google quickdraw data set. key_id = 4619989606727680-->
<svg width="600" height="600"
	xmlns="http://www.w3.org/2000/svg">
	xmlns:ndjsontosvg="https://github.com/thompson318/ndjsontosvg"
	xmlns:quickdraw="https://quickdraw.withgoogle.com/data"
	xmlns:scikit-surgery="https://doi.org/10.1007/s11548-020-02180-5">

	<rect width="100%" height="100%" fill="white" />
	<path d = "M 51.56 206.25 L 9.38 405.47 L 0.00 489.84 L 9.38 513.28 L 44.53 546.09 L 63.28 550.78 L 86.72 550.78 L 128.91 529.69 L 215.62 522.66 L 267.19 525.00 L 271.88 501.56 L 253.12 410.16 L 227.34 187.50 L 215.62 180.47 L 185.16 180.47 L 65.62 189.84" stroke="black" fill="transparent"/>
	<path d = "M 142.97 159.38 L 175.78 107.81 L 208.59 100.78 L 236.72 117.19 L 234.38 145.31 L 215.62 178.12 L 100.78 180.47 L 91.41 173.44 L 98.44 157.03 L 131.25 135.94 L 189.84 138.28" stroke="black" fill="transparent"/>
	<path d = "M 215.62 159.38 L 239.06 121.88 L 309.38 72.66 L 316.41 46.88 L 360.94 16.41 L 398.44 2.34 L 405.47 0.00 L 405.47 16.41 L 424.22 21.09 L 597.66 23.44 L 583.59 46.88 L 546.09 75.00" stroke="black" fill="transparent"/>
	<path d = "M 553.12 72.66 L 503.91 117.19" stroke="black" fill="transparent"/>
</svg>