<?xml version="1.0" encoding="UTF-8" standalone="no"?>
<!--Created with ndjsontosvg (https:https://github.com/thompson318/ndjsontosvg) 
	from the simplified Google quickdraw data set. key_id = 6323323891875840-->
<svg width="600" height="600"
	xmlns="http://www.w3.org/2000/svg">
	xmlns:ndjsontosvg="https://github.com/thompson318/ndjsontosvg"
	xmlns:quickdraw="https://quickdraw.withgoogle.com/data"
	xmlns:scikit-surgery="https://doi.org/10.1007/s11548-020-02180-5">

	<rect width="100%" height="100%" fill="white" />
	<path d = "M 227.34 567.19 L 220.31 431.25 L 227.34 135.94 L 217.97 131.25 L 67.97 175.78 L 32.81 175.78 L 0.00 234.38 L 11.72 302.34 L 46.88 450.00 L 100.78 585.94 L 112.50 597.66 L 159.38 571.88 L 250.78 550.78" stroke="black" fill="transparent"/>
	<path d = "M 42.19 196.88 L 32.81 161.72 L 49.22 18.75 L 166.41 11.72 L 208.59 11.72 L 213.28 21.09 L 220.31 82.03 L 246.09 154.69 L 236.72 194.53" stroke="black" fill="transparent"/>
	<path d = "M 178.12 145.31 L 157.03 65.62 L 145.31 49.22 L 133.59 46.88 L 89.06 65.62 L 70.31 79.69 L 67.97 124.22 L 86.72 173.44 L 105.47 196.88 L 114.84 194.53 L 138.28 173.44 L 147.66 152.34" stroke="black" fill="transparent"/>
	<path d = "M 274.22 142.97 L 314.06 192.19 L 410.16 260.16" stroke="black" fill="transparent"/>
	<path d = "M 389.06 243.75 L 442.97 309.38" stroke="black" fill="transparent"/>
	<path d = "M 229.69 82.03 L 318.75 114.84 L 419.53 128.91 L 457.03 126.56" stroke="black" fill="transparent"/>
	<path d = "M 203.91 30.47 L 328.12 0.00" stroke="black" fill="transparent"/>
</svg>