<?xml version="1.0" encoding="UTF-8" standalone="no"?>
<!--Created with ndjsontosvg (https:https://github.com/thompson318/ndjsontosvg) 
	from the simplified Google quickdraw data set. key_id = 5434229271822336-->
<svg width="600" height="600"
	xmlns="http://www.w3.org/2000/svg">
	xmlns:ndjsontosvg="https://github.com/thompson318/ndjsontosvg"
	xmlns:quickdraw="https://quickdraw.withgoogle.com/data"
	xmlns:scikit-surgery="https://doi.org/10.1007/s11548-020-02180-5">

	<rect width="100%" height="100%" fill="white" />
	<path d = "M 14.06 248.44 L 37.50 480.47 L 39.84 592.97 L 46.88 597.66 L 159.38 595.31 L 171.09 592.97 L 173.44 585.94 L 121.88 239.06 L 112.50 229.69 L 44.53 229.69 L 9.38 246.09" stroke="black" fill="transparent"/>
	<path d = "M 126.56 229.69 L 114.84 220.31 L 93.75 180.47 L 46.88 173.44 L 23.44 178.12 L 2.34 194.53 L 0.00 229.69 L 9.38 239.06" stroke="black" fill="transparent"/>
	<path d = "M 75.00 175.78 L 65.62 185.16 L 65.62 210.94 L 82.03 208.59 L 89.06 192.19 L 84.38 185.16 L 67.97 182.81 L 58.59 187.50 L 63.28 206.25 L 79.69 215.62 L 89.06 210.94 L 86.72 192.19 L 72.66 178.12 L 79.69 208.59 L 96.09 210.94 L 98.44 192.19 L 75.00 182.81 L 72.66 210.94 L 84.38 220.31 L 93.75 217.97 L 96.09 199.22 L 79.69 187.50 L 77.34 194.53 L 84.38 203.91 L 96.09 203.91 L 100.78 194.53 L 96.09 185.16 L 75.00 189.84 L 72.66 213.28 L 86.72 229.69 L 93.75 206.25 L 77.34 189.84 L 70.31 194.53 L 86.72 213.28 L 91.41 199.22 L 75.00 178.12 L 63.28 180.47 L 60.94 208.59 L 72.66 220.31 L 82.03 220.31 L 86.72 192.19 L 70.31 185.16 L 72.66 229.69 L 86.72 241.41 L 100.78 222.66 L 98.44 199.22 L 63.28 192.19 L 65.62 213.28 L 89.06 225.00 L 91.41 203.91 L 70.31 203.91" stroke="black" fill="transparent"/>
	<path d = "M 67.97 138.28 L 28.12 93.75 L 21.09 42.19 L 60.94 0.00 L 114.84 30.47 L 126.56 49.22 L 128.91 82.03 L 110.16 100.78 L 58.59 126.56" stroke="black" fill="transparent"/>
</svg>