<?xml version="1.0" encoding="UTF-8" standalone="no"?>
<!--Created with ndjsontosvg (https:https://github.com/thompson318/ndjsontosvg) 
	from the simplified Google quickdraw data set. key_id = 5926395161083904-->
<svg width="600" height="600"
	xmlns="http://www.w3.org/2000/svg">
	xmlns:ndjsontosvg="https://github.com/thompson318/ndjsontosvg"
	xmlns:quickdraw="https://quickdraw.withgoogle.com/data"
	xmlns:scikit-surgery="https://doi.org/10.1007/s11548-020-02180-5">

	<rect width="100%" height="100%" fill="white" />
	<path d = "M 46.88 356.25 L 2.34 421.88 L 2.34 447.66 L 35.16 461.72 L 9.38 510.94 L 4.69 541.41 L 21.09 553.12 L 49.22 553.12 L 65.62 595.31 L 100.78 597.66 L 196.88 557.81 L 220.31 536.72 L 222.66 494.53 L 180.47 487.50 L 201.56 459.38 L 201.56 445.31 L 187.50 438.28 L 185.16 389.06 L 161.72 349.22 L 164.06 335.16 L 281.25 232.03 L 337.50 166.41 L 351.56 135.94 L 351.56 110.16 L 323.44 51.56 L 281.25 7.03 L 267.19 2.34 L 234.38 0.00 L 187.50 9.38 L 100.78 39.84 L 53.91 65.62 L 28.12 182.81 L 28.12 281.25 L 21.09 311.72 L 28.12 351.56" stroke="black" fill="transparent"/>
	<path d = "M 100.78 311.72 L 100.78 281.25 L 119.53 215.62 L 152.34 199.22 L 164.06 199.22 L 168.75 210.94 L 171.09 225.00 L 140.62 232.03 L 100.78 217.97 L 79.69 201.56" stroke="black" fill="transparent"/>
</svg>