<?xml version="1.0" encoding="UTF-8" standalone="no"?>
<!--Created with ndjsontosvg (https:https://github.com/thompson318/ndjsontosvg) 
	from the simplified Google quickdraw data set. key_id = 5763973188157440-->
<svg width="600" height="600"
	xmlns="http://www.w3.org/2000/svg">
	xmlns:ndjsontosvg="https://github.com/thompson318/ndjsontosvg"
	xmlns:quickdraw="https://quickdraw.withgoogle.com/data"
	xmlns:scikit-surgery="https://doi.org/10.1007/s11548-020-02180-5">

	<rect width="100%" height="100%" fill="white" />
	<path d = "M 75.00 257.81 L 60.94 391.41 L 0.00 567.19" stroke="black" fill="transparent"/>
	<path d = "M 232.03 215.62 L 222.66 297.66 L 229.69 480.47 L 243.75 571.88 L 267.19 597.66" stroke="black" fill="transparent"/>
	<path d = "M 70.31 260.16 L 65.62 164.06" stroke="black" fill="transparent"/>
	<path d = "M 65.62 164.06 L 77.34 56.25 L 98.44 9.38 L 117.19 0.00 L 290.62 84.38 L 262.50 241.41" stroke="black" fill="transparent"/>
	<path d = "M 89.06 133.59 L 239.06 140.62" stroke="black" fill="transparent"/>
	<path d = "M 67.97 194.53 L 103.12 210.94 L 173.44 227.34 L 206.25 227.34 L 222.66 220.31" stroke="black" fill="transparent"/>
	<path d = "M 145.31 154.69 L 297.66 150.00 L 485.16 112.50" stroke="black" fill="transparent"/>
	<path d = "M 236.72 264.84 L 323.44 330.47 L 426.56 431.25 L 473.44 461.72" stroke="black" fill="transparent"/>
</svg>