<?xml version="1.0" encoding="UTF-8" standalone="no"?>
<!--Created with ndjsontosvg (https:https://github.com/thompson318/ndjsontosvg) 
	from the simplified Google quickdraw data set. key_id = 6054272846266368-->
<svg width="600" height="600"
	xmlns="http://www.w3.org/2000/svg">
	xmlns:ndjsontosvg="https://github.com/thompson318/ndjsontosvg"
	xmlns:quickdraw="https://quickdraw.withgoogle.com/data"
	xmlns:scikit-surgery="https://doi.org/10.1007/s11548-020-02180-5">

	<rect width="100%" height="100%" fill="white" />
	<path d = "M 142.97 489.84 L 142.97 588.28" stroke="black" fill="transparent"/>
	<path d = "M 220.31 503.91 L 206.25 597.66" stroke="black" fill="transparent"/>
	<path d = "M 159.38 592.97 L 208.59 583.59" stroke="black" fill="transparent"/>
	<path d = "M 164.06 548.44 L 220.31 543.75" stroke="black" fill="transparent"/>
	<path d = "M 133.59 508.59 L 189.84 510.94" stroke="black" fill="transparent"/>
	<path d = "M 166.41 494.53 L 203.91 489.84" stroke="black" fill="transparent"/>
	<path d = "M 140.62 473.44 L 142.97 337.50 L 23.44 222.66 L 0.00 159.38 L 2.34 110.16 L 56.25 23.44 L 98.44 2.34 L 168.75 0.00 L 332.81 23.44 L 372.66 44.53 L 389.06 77.34 L 391.41 124.22 L 379.69 185.16 L 342.19 250.78 L 269.53 307.03 L 246.09 346.88 L 220.31 417.19 L 213.28 496.88" stroke="black" fill="transparent"/>
</svg>