<?xml version="1.0" encoding="UTF-8" standalone="no"?>
<!--Created with ndjsontosvg (https:https://github.com/thompson318/ndjsontosvg) 
	from the simplified Google quickdraw data set. key_id = 5402271930122240-->
<svg width="600" height="600"
	xmlns="http://www.w3.org/2000/svg">
	xmlns:ndjsontosvg="https://github.com/thompson318/ndjsontosvg"
	xmlns:quickdraw="https://quickdraw.withgoogle.com/data"
	xmlns:scikit-surgery="https://doi.org/10.1007/s11548-020-02180-5">

	<rect width="100%" height="100%" fill="white" />
	<path d = "M 35.16 255.47 L 35.16 255.47" stroke="black" fill="transparent"/>
	<path d = "M 35.16 255.47 L 2.34 239.06 L 0.00 220.31 L 2.34 206.25 L 23.44 206.25 L 35.16 222.66 L 21.09 239.06 L 7.03 241.41 L 2.34 220.31 L 14.06 208.59 L 14.06 335.16 L 60.94 543.75 L 79.69 576.56 L 96.09 588.28 L 159.38 597.66 L 189.84 553.12 L 208.59 489.84 L 208.59 363.28 L 185.16 248.44 L 180.47 232.03 L 164.06 222.66 L 89.06 222.66 L 65.62 232.03" stroke="black" fill="transparent"/>
	<path d = "M 112.50 232.03 L 112.50 232.03" stroke="black" fill="transparent"/>
	<path d = "M 72.66 227.34 L 72.66 227.34" stroke="black" fill="transparent"/>
	<path d = "M 126.56 220.31 L 107.81 210.94 L 96.09 175.78 L 89.06 9.38 L 103.12 0.00 L 121.88 11.72 L 133.59 37.50 L 145.31 91.41 L 161.72 39.84 L 168.75 67.97 L 199.22 53.91 L 206.25 110.16 L 217.97 124.22 L 217.97 164.06 L 187.50 217.97" stroke="black" fill="transparent"/>
</svg>