<?xml version="1.0" encoding="UTF-8" standalone="no"?>
<!--Created with ndjsontosvg (https:https://github.com/thompson318/ndjsontosvg) 
	from the simplified Google quickdraw data set. key_id = 5191718024511488-->
<svg width="600" height="600"
	xmlns="http://www.w3.org/2000/svg">
	xmlns:ndjsontosvg="https://github.com/thompson318/ndjsontosvg"
	xmlns:quickdraw="https://quickdraw.withgoogle.com/data"
	xmlns:scikit-surgery="https://doi.org/10.1007/s11548-020-02180-5">

	<rect width="100%" height="100%" fill="white" />
	<path d = "M 133.59 590.62 L 140.62 382.03 L 248.44 386.72 L 311.72 403.12 L 311.72 471.09 L 285.94 595.31 L 253.12 592.97 L 107.81 553.12" stroke="black" fill="transparent"/>
	<path d = "M 138.28 433.59 L 189.84 452.34 L 234.38 442.97 L 246.09 426.56 L 243.75 414.84 L 206.25 389.06 L 187.50 393.75 L 185.16 405.47 L 222.66 450.00 L 264.84 471.09 L 300.00 475.78 L 304.69 468.75 L 288.28 445.31 L 257.81 438.28 L 257.81 464.06 L 271.88 482.81 L 297.66 485.16 L 302.34 478.12 L 295.31 468.75 L 257.81 445.31 L 222.66 447.66 L 206.25 464.06 L 217.97 506.25 L 239.06 527.34 L 257.81 534.38 L 262.50 529.69 L 253.12 513.28 L 206.25 494.53 L 180.47 501.56 L 178.12 515.62 L 194.53 536.72 L 213.28 543.75 L 217.97 534.38 L 199.22 515.62 L 159.38 503.91 L 152.34 510.94 L 194.53 555.47 L 241.41 576.56 L 253.12 571.88 L 250.78 555.47 L 227.34 522.66 L 201.56 517.97 L 194.53 543.75 L 215.62 567.19 L 239.06 571.88" stroke="black" fill="transparent"/>
	<path d = "M 140.62 349.22 L 140.62 360.94 L 133.59 360.94 L 49.22 304.69 L 21.09 269.53 L 4.69 222.66 L 4.69 161.72 L 21.09 107.81 L 46.88 63.28 L 105.47 18.75 L 140.62 7.03 L 192.19 0.00 L 297.66 14.06 L 363.28 51.56 L 410.16 117.19 L 433.59 178.12 L 433.59 267.19 L 421.88 330.47 L 384.38 384.38 L 328.12 412.50 L 264.84 419.53 L 196.88 396.09" stroke="black" fill="transparent"/>
	<path d = "M 147.66 321.09 L 168.75 342.19 L 192.19 349.22 L 264.84 344.53 L 292.97 328.12 L 309.38 300.00 L 307.03 264.84 L 269.53 208.59 L 243.75 192.19 L 220.31 192.19 L 201.56 203.91 L 187.50 225.00 L 217.97 236.72 L 264.84 229.69" stroke="black" fill="transparent"/>
</svg>