<?xml version="1.0" encoding="UTF-8" standalone="no"?>
<!--Created with ndjsontosvg (https:https://github.com/thompson318/ndjsontosvg) 
	from the simplified Google quickdraw data set. key_id = 6106888011776000-->
<svg width="600" height="600"
	xmlns="http://www.w3.org/2000/svg">
	xmlns:ndjsontosvg="https://github.com/thompson318/ndjsontosvg"
	xmlns:quickdraw="https://quickdraw.withgoogle.com/data"
	xmlns:scikit-surgery="https://doi.org/10.1007/s11548-020-02180-5">

	<rect width="100%" height="100%" fill="white" />
	<path d = "M 262.50 67.97 L 189.84 236.72 L 44.53 499.22" stroke="black" fill="transparent"/>
	<path d = "M 431.25 30.47 L 407.81 269.53 L 403.12 597.66" stroke="black" fill="transparent"/>
	<path d = "M 257.81 133.59 L 318.75 145.31 L 405.47 140.62" stroke="black" fill="transparent"/>
	<path d = "M 269.53 63.28 L 431.25 9.38" stroke="black" fill="transparent"/>
	<path d = "M 271.88 93.75 L 276.56 91.41 L 285.94 107.81 L 285.94 89.06" stroke="black" fill="transparent"/>
	<path d = "M 332.81 75.00 L 337.50 96.09 L 349.22 96.09 L 356.25 86.72 L 349.22 79.69" stroke="black" fill="transparent"/>
	<path d = "M 367.97 82.03 L 386.72 93.75 L 393.75 84.38" stroke="black" fill="transparent"/>
	<path d = "M 344.53 79.69 L 0.00 0.00 L 126.56 49.22 L 194.53 63.28 L 311.72 58.59 L 365.62 44.53 L 344.53 65.62 L 236.72 131.25" stroke="black" fill="transparent"/>
</svg>