<?xml version="1.0" encoding="UTF-8" standalone="no"?>
<!--Created with ndjsontosvg (https:https://github.com/thompson318/ndjsontosvg) 
	from the simplified Google quickdraw data set. key_id = 6420316601450496-->
<svg width="600" height="600"
	xmlns="http://www.w3.org/2000/svg">
	xmlns:ndjsontosvg="https://github.com/thompson318/ndjsontosvg"
	xmlns:quickdraw="https://quickdraw.withgoogle.com/data"
	xmlns:scikit-surgery="https://doi.org/10.1007/s11548-020-02180-5">

	<rect width="100%" height="100%" fill="white" />
	<path d = "M 288.28 121.88 L 264.84 292.97 L 382.03 267.19 L 344.53 145.31 L 339.84 89.06 L 288.28 91.41 L 285.94 150.00" stroke="black" fill="transparent"/>
	<path d = "M 285.94 133.59 L 328.12 119.53" stroke="black" fill="transparent"/>
	<path d = "M 285.94 180.47 L 290.62 187.50 L 314.06 187.50 L 344.53 178.12" stroke="black" fill="transparent"/>
	<path d = "M 276.56 246.09 L 358.59 208.59" stroke="black" fill="transparent"/>
	<path d = "M 278.91 100.78 L 269.53 70.31 L 271.88 32.81 L 283.59 11.72 L 304.69 0.00 L 344.53 9.38 L 351.56 56.25 L 335.16 96.09" stroke="black" fill="transparent"/>
	<path d = "M 276.56 18.75 L 150.00 16.41 L 82.03 23.44 L 0.00 44.53 L 16.41 63.28 L 32.81 166.41 L 75.00 138.28 L 175.78 105.47 L 271.88 51.56" stroke="black" fill="transparent"/>
	<path d = "M 344.53 18.75 L 597.66 58.59 L 553.12 142.97 L 410.16 84.38 L 321.09 37.50" stroke="black" fill="transparent"/>
	<path d = "M 283.59 18.75 L 292.97 23.44 L 290.62 56.25 L 281.25 63.28 L 274.22 60.94" stroke="black" fill="transparent"/>
	<path d = "M 342.19 18.75 L 328.12 30.47 L 323.44 44.53 L 328.12 53.91 L 339.84 56.25" stroke="black" fill="transparent"/>
	<path d = "M 332.81 105.47 L 332.81 105.47" stroke="black" fill="transparent"/>
</svg>