<?xml version="1.0" encoding="UTF-8" standalone="no"?>
<!--Created with ndjsontosvg (https:https://github.com/thompson318/ndjsontosvg) 
	from the simplified Google quickdraw data set. key_id = 6339333197922304-->
<svg width="600" height="600"
	xmlns="http://www.w3.org/2000/svg">
	xmlns:ndjsontosvg="https://github.com/thompson318/ndjsontosvg"
	xmlns:quickdraw="https://quickdraw.withgoogle.com/data"
	xmlns:scikit-surgery="https://doi.org/10.1007/s11548-020-02180-5">

	<rect width="100%" height="100%" fill="white" />
	<path d = "M 2.34 232.03 L 14.06 332.81 L 7.03 499.22" stroke="black" fill="transparent"/>
	<path d = "M 7.03 499.22 L 126.56 513.28 L 175.78 506.25 L 164.06 396.09 L 164.06 323.44 L 175.78 236.72 L 44.53 236.72 L 0.00 227.34" stroke="black" fill="transparent"/>
	<path d = "M 18.75 227.34 L 14.06 77.34" stroke="black" fill="transparent"/>
	<path d = "M 14.06 77.34 L 63.28 79.69 L 147.66 93.75 L 157.03 182.81 L 154.69 227.34" stroke="black" fill="transparent"/>
	<path d = "M 7.03 77.34 L 70.31 4.69 L 103.12 0.00 L 128.91 25.78 L 157.03 96.09" stroke="black" fill="transparent"/>
	<path d = "M 157.03 133.59 L 260.16 105.47 L 323.44 77.34 L 478.12 49.22 L 546.09 44.53" stroke="black" fill="transparent"/>
	<path d = "M 164.06 166.41 L 225.00 157.03 L 288.28 159.38 L 527.34 215.62 L 597.66 217.97" stroke="black" fill="transparent"/>
	<path d = "M 147.66 192.19 L 269.53 215.62 L 417.19 262.50 L 564.84 346.88" stroke="black" fill="transparent"/>
</svg>