<?xml version="1.0" encoding="UTF-8" standalone="no"?>
<!--Created with ndjsontosvg (https:https://github.com/thompson318/ndjsontosvg) 
	from the simplified Google quickdraw data set. key_id = 4992666150371328-->
<svg width="600" height="600"
	xmlns="http://www.w3.org/2000/svg">
	xmlns:ndjsontosvg="https://github.com/thompson318/ndjsontosvg"
	xmlns:quickdraw="https://quickdraw.withgoogle.com/data"
	xmlns:scikit-surgery="https://doi.org/10.1007/s11548-020-02180-5">

	<rect width="100%" height="100%" fill="white" />
	<path d = "M 51.56 590.62 L 46.88 581.25 L 51.56 461.72 L 35.16 304.69 L 42.19 234.38 L 32.81 201.56 L 25.78 194.53 L 192.19 210.94 L 199.22 217.97 L 194.53 267.19 L 300.00 285.94" stroke="black" fill="transparent"/>
	<path d = "M 175.78 260.16 L 232.03 234.38 L 281.25 239.06" stroke="black" fill="transparent"/>
	<path d = "M 285.94 288.28 L 276.56 442.97 L 262.50 567.19 L 253.12 592.97 L 215.62 597.66 L 145.31 590.62 L 32.81 567.19" stroke="black" fill="transparent"/>
	<path d = "M 283.59 166.41 L 332.81 121.88" stroke="black" fill="transparent"/>
	<path d = "M 332.81 236.72 L 386.72 213.28" stroke="black" fill="transparent"/>
	<path d = "M 318.75 246.09 L 414.84 269.53" stroke="black" fill="transparent"/>
	<path d = "M 39.84 189.84 L 25.78 173.44 L 2.34 98.44 L 0.00 32.81 L 11.72 7.03 L 28.12 0.00 L 46.88 18.75 L 60.94 51.56 L 65.62 138.28 L 44.53 208.59" stroke="black" fill="transparent"/>
</svg>