<?xml version="1.0" encoding="UTF-8" standalone="no"?>
<!--Created with ndjsontosvg (https:https://github.com/thompson318/ndjsontosvg) 
	from the simplified Google quickdraw data set. key_id = 6590358601334784-->
<svg width="600" height="600"
	xmlns="http://www.w3.org/2000/svg">
	xmlns:ndjsontosvg="https://github.com/thompson318/ndjsontosvg"
	xmlns:quickdraw="https://quickdraw.withgoogle.com/data"
	xmlns:scikit-surgery="https://doi.org/10.1007/s11548-020-02180-5">

	<rect width="100%" height="100%" fill="white" />
	<path d = "M 84.38 307.03 L 77.34 583.59 L 124.22 597.66 L 274.22 595.31 L 281.25 574.22 L 276.56 440.62 L 260.16 318.75 L 253.12 304.69 L 229.69 295.31 L 142.97 281.25 L 112.50 269.53" stroke="black" fill="transparent"/>
	<path d = "M 145.31 281.25 L 98.44 194.53 L 82.03 124.22 L 79.69 77.34 L 93.75 39.84 L 128.91 11.72 L 147.66 0.00 L 164.06 21.09 L 192.19 75.00 L 194.53 180.47 L 189.84 201.56 L 140.62 274.22" stroke="black" fill="transparent"/>
	<path d = "M 161.72 276.56 L 105.47 227.34 L 63.28 217.97 L 23.44 248.44 L 0.00 295.31 L 16.41 335.16 L 63.28 360.94 L 96.09 356.25 L 164.06 311.72" stroke="black" fill="transparent"/>
</svg>