<?xml version="1.0" encoding="UTF-8" standalone="no"?>
<!--Created with ndjsontosvg (https:https://github.com/thompson318/ndjsontosvg) 
	from the simplified Google quickdraw data set. key_id = 4647254918955008-->
<svg width="600" height="600"
	xmlns="http://www.w3.org/2000/svg">
	xmlns:ndjsontosvg="https://github.com/thompson318/ndjsontosvg"
	xmlns:quickdraw="https://quickdraw.withgoogle.com/data"
	xmlns:scikit-surgery="https://doi.org/10.1007/s11548-020-02180-5">

	<rect width="100%" height="100%" fill="white" />
	<path d = "M 124.22 124.22 L 103.12 171.09 L 84.38 185.16 L 56.25 187.50 L 18.75 157.03 L 0.00 114.84 L 7.03 72.66 L 53.91 44.53 L 93.75 42.19 L 98.44 9.38 L 173.44 0.00 L 250.78 18.75 L 267.19 11.72 L 323.44 9.38 L 349.22 23.44 L 360.94 46.88 L 360.94 65.62 L 316.41 77.34 L 314.06 86.72 L 314.06 196.88 L 271.88 208.59 L 246.09 246.09 L 210.94 250.78 L 196.88 241.41 L 114.84 128.91" stroke="black" fill="transparent"/>
	<path d = "M 171.09 189.84 L 142.97 208.59 L 79.69 276.56 L 58.59 328.12 L 75.00 328.12 L 145.31 304.69 L 182.81 304.69 L 185.16 330.47 L 32.81 468.75 L 11.72 506.25 L 105.47 461.72 L 182.81 435.94 L 178.12 454.69 L 110.16 555.47 L 98.44 597.66" stroke="black" fill="transparent"/>
	<path d = "M 126.56 553.12 L 131.25 532.03 L 232.03 428.91 L 246.09 393.75 L 161.72 396.09 L 161.72 386.72 L 260.16 253.12 L 187.50 253.12" stroke="black" fill="transparent"/>
</svg>