<?xml version="1.0" encoding="UTF-8" standalone="no"?>
<!--Created with ndjsontosvg (https:https://github.com/thompson318/ndjsontosvg) 
	from the simplified Google quickdraw data set. key_id = 5407535127330816-->
<svg width="600" height="600"
	xmlns="http://www.w3.org/2000/svg">
	xmlns:ndjsontosvg="https://github.com/thompson318/ndjsontosvg"
	xmlns:quickdraw="https://quickdraw.withgoogle.com/data"
	xmlns:scikit-surgery="https://doi.org/10.1007/s11548-020-02180-5">

	<rect width="100%" height="100%" fill="white" />
	<path d = "M 410.16 131.25 L 379.69 107.81 L 271.88 65.62 L 229.69 63.28 L 192.19 84.38 L 161.72 121.88 L 152.34 208.59 L 168.75 257.81 L 194.53 292.97 L 234.38 314.06 L 292.97 330.47 L 365.62 339.84 L 410.16 337.50 L 440.62 292.97 L 445.31 213.28 L 419.53 145.31 L 396.09 117.19" stroke="black" fill="transparent"/>
	<path d = "M 300.00 67.97 L 396.09 0.00 L 400.78 63.28 L 464.06 39.84 L 522.66 39.84 L 562.50 53.91 L 595.31 75.00 L 508.59 133.59 L 581.25 133.59 L 595.31 147.66 L 597.66 164.06 L 592.97 180.47 L 574.22 196.88 L 485.16 239.06 L 513.28 229.69 L 553.12 229.69 L 569.53 236.72 L 581.25 253.12 L 581.25 295.31 L 555.47 344.53 L 517.97 370.31 L 515.62 330.47 L 532.03 302.34 L 534.38 328.12 L 525.00 358.59 L 503.91 386.72 L 482.81 396.09 L 459.38 396.09 L 445.31 384.38 L 431.25 351.56 L 428.91 314.06 L 414.84 353.91 L 379.69 412.50 L 360.94 412.50 L 337.50 396.09 L 311.72 344.53 L 243.75 414.84 L 217.97 426.56 L 185.16 424.22 L 140.62 356.25 L 133.59 307.03 L 119.53 339.84 L 126.56 180.47 L 28.12 168.75 L 2.34 157.03 L 4.69 138.28" stroke="black" fill="transparent"/>
</svg>