<?xml version="1.0" encoding="UTF-8" standalone="no"?>
<!--Created with ndjsontosvg (https:https://github.com/thompson318/ndjsontosvg) 
	from the simplified Google quickdraw data set. key_id = 6466365126868992-->
<svg width="600" height="600"
	xmlns="http://www.w3.org/2000/svg">
	xmlns:ndjsontosvg="https://github.com/thompson318/ndjsontosvg"
	xmlns:quickdraw="https://quickdraw.withgoogle.com/data"
	xmlns:scikit-surgery="https://doi.org/10.1007/s11548-020-02180-5">

	<rect width="100%" height="100%" fill="white" />
	<path d = "M 342.19 124.22 L 328.12 114.84 L 269.53 114.84 L 239.06 131.25 L 215.62 152.34 L 185.16 201.56 L 161.72 285.94 L 168.75 356.25 L 215.62 410.16 L 260.16 433.59 L 337.50 435.94 L 372.66 419.53 L 410.16 372.66 L 424.22 335.16 L 426.56 262.50 L 410.16 215.62 L 372.66 168.75 L 330.47 147.66 L 267.19 142.97" stroke="black" fill="transparent"/>
	<path d = "M 185.16 168.75 L 182.81 142.97 L 199.22 72.66 L 215.62 23.44 L 227.34 9.38 L 225.00 142.97 L 236.72 133.59 L 307.03 37.50 L 342.19 9.38 L 365.62 0.00 L 379.69 0.00 L 384.38 14.06 L 379.69 93.75 L 452.34 53.91 L 503.91 44.53 L 522.66 51.56 L 529.69 77.34 L 527.34 96.09 L 506.25 154.69 L 574.22 98.44 L 592.97 98.44 L 597.66 126.56 L 553.12 367.97 L 553.12 278.91 L 543.75 494.53 L 534.38 503.91 L 522.66 499.22 L 475.78 417.19 L 464.06 414.84 L 426.56 585.94 L 412.50 592.97 L 403.12 578.91 L 370.31 473.44 L 351.56 473.44 L 283.59 550.78 L 248.44 555.47 L 196.88 478.12 L 171.09 475.78 L 117.19 515.62 L 96.09 510.94 L 79.69 461.72 L 63.28 363.28 L 51.56 335.16 L 30.47 337.50 L 2.34 379.69 L 9.38 302.34 L 58.59 140.62 L 67.97 164.06 L 79.69 157.03 L 138.28 67.97 L 154.69 49.22 L 178.12 37.50" stroke="black" fill="transparent"/>
	<path d = "M 260.16 367.97 L 253.12 396.09 L 285.94 370.31 L 288.28 410.16 L 330.47 375.00 L 339.84 405.47 L 346.88 410.16 L 365.62 375.00" stroke="black" fill="transparent"/>
</svg>