<?xml version="1.0" encoding="UTF-8" standalone="no"?>
<!--Created with ndjsontosvg (https:https://github.com/thompson318/ndjsontosvg) 
	from the simplified Google quickdraw data set. key_id = 6458754226716672-->
<svg width="600" height="600"
	xmlns="http://www.w3.org/2000/svg">
	xmlns:ndjsontosvg="https://github.com/thompson318/ndjsontosvg"
	xmlns:quickdraw="https://quickdraw.withgoogle.com/data"
	xmlns:scikit-surgery="https://doi.org/10.1007/s11548-020-02180-5">

	<rect width="100%" height="100%" fill="white" />
	<path d = "M 175.78 157.03 L 166.41 133.59 L 145.31 161.72 L 126.56 203.91 L 112.50 175.78 L 112.50 140.62 L 63.28 180.47 L 42.19 187.50 L 42.19 180.47 L 44.53 232.03 L 53.91 229.69 L 60.94 243.75 L 67.97 288.28 L 35.16 292.97 L 51.56 314.06 L 28.12 332.81 L 42.19 342.19 L 42.19 353.91 L 4.69 389.06 L 42.19 393.75 L 44.53 400.78 L 2.34 417.19 L 0.00 424.22 L 56.25 457.03 L 49.22 478.12 L 28.12 485.16 L 124.22 489.84 L 96.09 510.94 L 84.38 513.28 L 79.69 501.56 L 79.69 405.47" stroke="black" fill="transparent"/>
	<path d = "M 53.91 117.19 L 2.34 107.81" stroke="black" fill="transparent"/>
	<path d = "M 173.44 142.97 L 189.84 89.06 L 213.28 51.56 L 241.41 182.81 L 250.78 201.56 L 271.88 203.91 L 292.97 182.81 L 302.34 79.69 L 328.12 39.84 L 328.12 107.81 L 393.75 49.22 L 454.69 16.41 L 532.03 0.00 L 557.81 2.34 L 571.88 11.72 L 571.88 44.53 L 539.06 98.44 L 506.25 135.94 L 438.28 171.09 L 553.12 201.56 L 588.28 229.69 L 583.59 255.47 L 546.09 292.97 L 522.66 304.69 L 466.41 323.44 L 412.50 325.78 L 464.06 314.06 L 541.41 316.41 L 529.69 337.50 L 503.91 356.25 L 391.41 396.09 L 597.66 459.38 L 581.25 471.09 L 520.31 485.16 L 433.59 487.50 L 478.12 522.66 L 468.75 534.38 L 447.66 541.41 L 325.78 541.41 L 309.38 536.72 L 309.38 520.31 L 278.91 496.88" stroke="black" fill="transparent"/>
	<path d = "M 185.16 480.47 L 185.16 480.47" stroke="black" fill="transparent"/>
	<path d = "M 150.00 546.09 L 126.56 487.50 L 128.91 403.12 L 173.44 311.72 L 199.22 281.25 L 243.75 283.59 L 292.97 389.06 L 295.31 452.34 L 274.22 510.94 L 220.31 543.75 L 189.84 546.09 L 154.69 520.31 L 152.34 508.59" stroke="black" fill="transparent"/>
	<path d = "M 194.53 346.88 L 196.88 356.25" stroke="black" fill="transparent"/>
	<path d = "M 161.72 353.91 L 281.25 356.25" stroke="black" fill="transparent"/>
</svg>