<?xml version="1.0" encoding="UTF-8" standalone="no"?>
<!--Created with ndjsontosvg (https:https://github.com/thompson318/ndjsontosvg) 
	from the simplified Google quickdraw data set. key_id = 5549059936878592-->
<svg width="600" height="600"
	xmlns="http://www.w3.org/2000/svg">
	xmlns:ndjsontosvg="https://github.com/thompson318/ndjsontosvg"
	xmlns:quickdraw="https://quickdraw.withgoogle.com/data"
	xmlns:scikit-surgery="https://doi.org/10.1007/s11548-020-02180-5">

	<rect width="100%" height="100%" fill="white" />
	<path d = "M 150.00 210.94 L 124.22 257.81 L 124.22 328.12 L 182.81 412.50 L 220.31 431.25 L 253.12 440.62 L 328.12 442.97 L 382.03 431.25 L 396.09 421.88 L 419.53 375.00 L 426.56 283.59 L 382.03 201.56 L 325.78 189.84 L 227.34 189.84 L 171.09 201.56" stroke="black" fill="transparent"/>
	<path d = "M 185.16 271.88 L 192.19 283.59 L 194.53 278.91" stroke="black" fill="transparent"/>
	<path d = "M 314.06 262.50 L 342.19 243.75" stroke="black" fill="transparent"/>
	<path d = "M 267.19 307.03 L 283.59 328.12 L 302.34 330.47 L 304.69 300.00 L 290.62 307.03 L 290.62 318.75" stroke="black" fill="transparent"/>
	<path d = "M 274.22 337.50 L 253.12 393.75 L 222.66 405.47 L 225.00 391.41 L 241.41 386.72" stroke="black" fill="transparent"/>
	<path d = "M 274.22 330.47 L 271.88 346.88 L 278.91 372.66 L 302.34 386.72 L 328.12 384.38 L 339.84 370.31 L 342.19 351.56" stroke="black" fill="transparent"/>
	<path d = "M 208.59 89.06 L 161.72 37.50 L 110.16 53.91 L 75.00 96.09 L 67.97 126.56 L 23.44 164.06 L 21.09 192.19 L 0.00 206.25 L 0.00 281.25 L 7.03 302.34 L 2.34 403.12 L 21.09 417.19 L 18.75 471.09 L 56.25 496.88 L 84.38 541.41 L 110.16 553.12 L 142.97 550.78 L 225.00 597.66 L 257.81 539.06 L 274.22 557.81 L 302.34 564.84 L 342.19 508.59 L 419.53 525.00 L 452.34 492.19 L 522.66 501.56 L 548.44 466.41 L 548.44 440.62 L 574.22 440.62 L 576.56 370.31 L 574.22 346.88 L 557.81 330.47 L 546.09 278.91 L 515.62 222.66 L 499.22 110.16 L 471.09 89.06 L 421.88 117.19 L 358.59 16.41 L 335.16 0.00 L 300.00 23.44 L 288.28 44.53 L 281.25 32.81 L 260.16 30.47 L 239.06 56.25 L 208.59 70.31" stroke="black" fill="transparent"/>
</svg>