<?xml version="1.0" encoding="UTF-8" standalone="no"?>
<!--Created with ndjsontosvg (https:https://github.com/thompson318/ndjsontosvg) 
	from the simplified Google quickdraw data set. key_id = 5202070669885440-->
<svg width="600" height="600"
	xmlns="http://www.w3.org/2000/svg">
	xmlns:ndjsontosvg="https://github.com/thompson318/ndjsontosvg"
	xmlns:quickdraw="https://quickdraw.withgoogle.com/data"
	xmlns:scikit-surgery="https://doi.org/10.1007/s11548-020-02180-5">

	<rect width="100%" height="100%" fill="white" />
	<path d = "M 351.56 187.50 L 257.81 234.38 L 93.75 351.56 L 30.47 410.16 L 28.12 428.91 L 49.22 471.09 L 107.81 553.12 L 114.84 560.16 L 124.22 553.12 L 236.72 450.00 L 360.94 300.00 L 424.22 241.41 L 424.22 227.34 L 405.47 208.59 L 335.16 161.72 L 316.41 154.69" stroke="black" fill="transparent"/>
	<path d = "M 356.25 168.75 L 389.06 112.50 L 473.44 44.53 L 543.75 14.06 L 595.31 2.34 L 590.62 23.44 L 517.97 112.50 L 464.06 206.25 L 391.41 243.75" stroke="black" fill="transparent"/>
	<path d = "M 281.25 213.28 L 367.97 267.19 L 407.81 285.94 L 407.81 295.31 L 377.34 316.41" stroke="black" fill="transparent"/>
	<path d = "M 0.00 403.12 L 2.34 480.47 L 23.44 525.00 L 60.94 560.16 L 103.12 569.53" stroke="black" fill="transparent"/>
</svg>