<?xml version="1.0" encoding="UTF-8" standalone="no"?>
<!--Created with ndjsontosvg (https:https://github.com/thompson318/ndjsontosvg) 
	from the simplified Google quickdraw data set. key_id = 5486091958222848-->
<svg width="600" height="600"
	xmlns="http://www.w3.org/2000/svg">
	xmlns:ndjsontosvg="https://github.com/thompson318/ndjsontosvg"
	xmlns:quickdraw="https://quickdraw.withgoogle.com/data"
	xmlns:scikit-surgery="https://doi.org/10.1007/s11548-020-02180-5">

	<rect width="100%" height="100%" fill="white" />
	<path d = "M 164.06 128.91 L 142.97 267.19 L 157.03 353.91 L 175.78 412.50 L 201.56 433.59 L 241.41 431.25 L 285.94 414.84 L 316.41 372.66 L 335.16 311.72 L 339.84 246.09 L 325.78 173.44 L 285.94 114.84 L 234.38 105.47 L 187.50 128.91 L 152.34 161.72 L 128.91 201.56 L 121.88 236.72" stroke="black" fill="transparent"/>
	<path d = "M 351.56 234.38 L 372.66 185.16 L 435.94 105.47" stroke="black" fill="transparent"/>
	<path d = "M 339.84 337.50 L 382.03 360.94 L 503.91 466.41" stroke="black" fill="transparent"/>
	<path d = "M 496.88 471.09 L 508.59 503.91 L 543.75 532.03 L 541.41 466.41 L 515.62 459.38 L 492.19 466.41" stroke="black" fill="transparent"/>
	<path d = "M 501.56 457.03 L 578.91 492.19 L 597.66 482.81 L 578.91 466.41 L 555.47 457.03 L 520.31 459.38 L 503.91 466.41" stroke="black" fill="transparent"/>
	<path d = "M 440.62 100.78 L 424.22 39.84 L 435.94 14.06 L 459.38 25.78 L 468.75 51.56 L 468.75 79.69 L 445.31 91.41 L 527.34 63.28 L 543.75 65.62 L 548.44 84.38 L 541.41 93.75 L 503.91 112.50 L 410.16 114.84" stroke="black" fill="transparent"/>
	<path d = "M 140.62 217.97 L 84.38 107.81 L 67.97 89.06" stroke="black" fill="transparent"/>
	<path d = "M 42.19 70.31 L 44.53 70.31" stroke="black" fill="transparent"/>
	<path d = "M 72.66 89.06 L 18.75 60.94 L 0.00 35.16 L 21.09 32.81 L 42.19 44.53 L 82.03 96.09 L 63.28 42.19 L 65.62 16.41 L 75.00 0.00 L 91.41 9.38 L 98.44 25.78 L 98.44 84.38" stroke="black" fill="transparent"/>
</svg>