<?xml version="1.0" encoding="UTF-8" standalone="no"?>
<!--Created with ndjsontosvg (https:https://github.com/thompson318/ndjsontosvg) 
	from the simplified Google quickdraw data set. key_id = 4904907591122944-->
<svg width="600" height="600"
	xmlns="http://www.w3.org/2000/svg">
	xmlns:ndjsontosvg="https://github.com/thompson318/ndjsontosvg"
	xmlns:quickdraw="https://quickdraw.withgoogle.com/data"
	xmlns:scikit-surgery="https://doi.org/10.1007/s11548-020-02180-5">

	<rect width="100%" height="100%" fill="white" />
	<path d = "M 513.28 208.59 L 550.78 246.09 L 569.53 283.59 L 546.09 283.59 L 515.62 267.19 L 466.41 225.00 L 564.84 311.72 L 447.66 248.44 L 520.31 323.44 L 414.84 274.22 L 403.12 269.53 L 405.47 276.56 L 393.75 255.47 L 349.22 217.97 L 283.59 199.22 L 201.56 196.88 L 168.75 201.56 L 126.56 220.31 L 77.34 260.16 L 60.94 210.94 L 60.94 161.72 L 30.47 241.41 L 46.88 112.50 L 35.16 126.56 L 30.47 119.53 L 72.66 46.88 L 93.75 25.78 L 168.75 4.69 L 271.88 0.00 L 325.78 9.38 L 396.09 28.12 L 475.78 70.31 L 536.72 119.53 L 412.50 82.03 L 389.06 79.69 L 468.75 126.56 L 536.72 145.31 L 585.94 142.97 L 597.66 128.91 L 590.62 103.12 L 487.50 0.00 L 595.31 75.00 L 496.88 11.72 L 517.97 21.09" stroke="black" fill="transparent"/>
	<path d = "M 508.59 138.28 L 431.25 100.78 L 316.41 75.00 L 288.28 75.00 L 274.22 86.72 L 267.19 103.12 L 274.22 128.91 L 285.94 140.62 L 363.28 178.12 L 419.53 189.84 L 466.41 189.84 L 503.91 164.06 L 503.91 147.66 L 499.22 131.25 L 485.16 117.19 L 417.19 93.75 L 353.91 93.75 L 304.69 103.12 L 278.91 119.53 L 283.59 126.56 L 349.22 145.31 L 414.84 147.66 L 447.66 131.25 L 447.66 121.88 L 419.53 103.12 L 363.28 91.41 L 124.22 89.06 L 0.00 98.44" stroke="black" fill="transparent"/>
	<path d = "M 0.00 121.88 L 0.00 121.88" stroke="black" fill="transparent"/>
	<path d = "M 335.16 121.88 L 234.38 140.62 L 152.34 166.41 L 91.41 206.25 L 39.84 276.56" stroke="black" fill="transparent"/>
</svg>