<?xml version="1.0" encoding="UTF-8" standalone="no"?>
<!--Created with ndjsontosvg (https:https://github.com/thompson318/ndjsontosvg) 
	from the simplified Google quickdraw data set. key_id = 6119869311352832-->
<svg width="600" height="600"
	xmlns="http://www.w3.org/2000/svg">
	xmlns:ndjsontosvg="https://github.com/thompson318/ndjsontosvg"
	xmlns:quickdraw="https://quickdraw.withgoogle.com/data"
	xmlns:scikit-surgery="https://doi.org/10.1007/s11548-020-02180-5">

	<rect width="100%" height="100%" fill="white" />
	<path d = "M 257.81 255.47 L 236.72 196.88 L 215.62 161.72 L 175.78 117.19 L 145.31 98.44 L 107.81 84.38 L 56.25 82.03 L 28.12 98.44 L 7.03 133.59 L 0.00 215.62 L 35.16 292.97 L 121.88 407.81 L 154.69 440.62 L 196.88 466.41 L 232.03 480.47 L 283.59 485.16 L 304.69 473.44 L 311.72 459.38 L 304.69 384.38 L 283.59 321.09 L 215.62 234.38" stroke="black" fill="transparent"/>
	<path d = "M 241.41 480.47 L 253.12 569.53 L 264.84 597.66 L 267.19 592.97 L 227.34 520.31 L 222.66 499.22 L 290.62 595.31 L 281.25 562.50 L 248.44 515.62 L 267.19 548.44 L 250.78 506.25" stroke="black" fill="transparent"/>
	<path d = "M 285.94 482.81 L 398.44 508.59 L 304.69 473.44 L 377.34 487.50 L 332.81 471.09 L 300.00 466.41 L 316.41 473.44 L 377.34 489.84" stroke="black" fill="transparent"/>
	<path d = "M 246.09 271.88 L 260.16 274.22 L 290.62 262.50 L 335.16 217.97 L 351.56 182.81 L 323.44 154.69 L 304.69 114.84 L 295.31 7.03 L 370.31 91.41 L 391.41 58.59 L 447.66 0.00 L 419.53 96.09 L 391.41 147.66 L 360.94 173.44 L 335.16 185.16" stroke="black" fill="transparent"/>
</svg>