<?xml version="1.0" encoding="UTF-8" standalone="no"?>
<!--Created with ndjsontosvg (https:https://github.com/thompson318/ndjsontosvg) 
	from the simplified Google quickdraw data set. key_id = 5297064709718016-->
<svg width="600" height="600"
	xmlns="http://www.w3.org/2000/svg">
	xmlns:ndjsontosvg="https://github.com/thompson318/ndjsontosvg"
	xmlns:quickdraw="https://quickdraw.withgoogle.com/data"
	xmlns:scikit-surgery="https://doi.org/10.1007/s11548-020-02180-5">

	<rect width="100%" height="100%" fill="white" />
	<path d = "M 274.22 147.66 L 246.09 152.34 L 227.34 105.47 L 189.84 89.06 L 229.69 150.00 L 194.53 171.09 L 196.88 189.84 L 217.97 196.88 L 239.06 194.53 L 271.88 159.38" stroke="black" fill="transparent"/>
	<path d = "M 199.22 159.38 L 168.75 150.00 L 142.97 133.59 L 121.88 89.06 L 150.00 93.75 L 229.69 56.25 L 288.28 56.25 L 351.56 84.38 L 346.88 112.50 L 332.81 138.28 L 314.06 145.31 L 278.91 145.31" stroke="black" fill="transparent"/>
	<path d = "M 351.56 82.03 L 396.09 82.03 L 424.22 112.50 L 431.25 152.34 L 410.16 189.84 L 396.09 201.56 L 382.03 201.56 L 316.41 180.47 L 269.53 175.78" stroke="black" fill="transparent"/>
	<path d = "M 426.56 117.19 L 457.03 112.50 L 475.78 91.41 L 482.81 63.28 L 473.44 2.34 L 499.22 14.06 L 532.03 44.53 L 555.47 21.09 L 576.56 32.81 L 576.56 42.19 L 550.78 63.28 L 517.97 75.00 L 520.31 117.19 L 501.56 150.00 L 464.06 173.44 L 398.44 192.19" stroke="black" fill="transparent"/>
	<path d = "M 227.34 53.91 L 225.00 37.50 L 208.59 14.06 L 246.09 23.44 L 250.78 7.03 L 262.50 4.69 L 269.53 16.41 L 250.78 37.50 L 269.53 63.28" stroke="black" fill="transparent"/>
	<path d = "M 269.53 84.38 L 260.16 93.75 L 276.56 91.41 L 274.22 84.38 L 264.84 89.06 L 271.88 93.75 L 274.22 86.72 L 267.19 89.06" stroke="black" fill="transparent"/>
	<path d = "M 283.59 75.00 L 152.34 32.81 L 105.47 32.81 L 30.47 60.94" stroke="black" fill="transparent"/>
	<path d = "M 206.25 63.28 L 138.28 49.22 L 39.84 49.22 L 11.72 63.28 L 0.00 79.69" stroke="black" fill="transparent"/>
	<path d = "M 386.72 103.12 L 384.38 150.00 L 375.00 164.06 L 351.56 178.12" stroke="black" fill="transparent"/>
	<path d = "M 107.81 124.22 L 70.31 142.97 L 67.97 180.47 L 96.09 201.56 L 173.44 229.69 L 232.03 239.06 L 520.31 239.06 L 578.91 206.25 L 597.66 157.03 L 595.31 142.97 L 578.91 131.25 L 525.00 112.50" stroke="black" fill="transparent"/>
</svg>