<?xml version="1.0" encoding="UTF-8" standalone="no"?>
<!--Created with ndjsontosvg (https:https://github.com/thompson318/ndjsontosvg) 
	from the simplified Google quickdraw data set. key_id = 6089584792305664-->
<svg width="600" height="600"
	xmlns="http://www.w3.org/2000/svg">
	xmlns:ndjsontosvg="https://github.com/thompson318/ndjsontosvg"
	xmlns:quickdraw="https://quickdraw.withgoogle.com/data"
	xmlns:scikit-surgery="https://doi.org/10.1007/s11548-020-02180-5">

	<rect width="100%" height="100%" fill="white" />
	<path d = "M 318.75 21.09 L 255.47 30.47 L 234.38 42.19 L 201.56 75.00 L 182.81 107.81 L 171.09 147.66 L 171.09 178.12 L 185.16 196.88 L 250.78 213.28 L 346.88 210.94 L 379.69 178.12 L 431.25 75.00 L 433.59 28.12 L 360.94 4.69 L 257.81 0.00" stroke="black" fill="transparent"/>
	<path d = "M 316.41 0.00 L 215.62 2.34 L 166.41 30.47 L 112.50 77.34 L 98.44 100.78 L 82.03 159.38 L 89.06 379.69 L 82.03 396.09 L 53.91 424.22 L 0.00 447.66" stroke="black" fill="transparent"/>
	<path d = "M 398.44 35.16 L 485.16 56.25 L 503.91 70.31 L 515.62 105.47 L 510.94 142.97 L 473.44 278.91 L 473.44 360.94 L 508.59 379.69 L 597.66 382.03" stroke="black" fill="transparent"/>
	<path d = "M 260.16 82.03 L 269.53 96.09 L 281.25 93.75 L 285.94 77.34 L 271.88 70.31 L 269.53 82.03 L 274.22 86.72" stroke="black" fill="transparent"/>
</svg>