<?xml version="1.0" encoding="UTF-8" standalone="no"?>
<!--Created with ndjsontosvg (https:https://github.com/thompson318/ndjsontosvg) 
	from the simplified Google quickdraw data set. key_id = 5095422655725568-->
<svg width="600" height="600"
	xmlns="http://www.w3.org/2000/svg">
	xmlns:ndjsontosvg="https://github.com/thompson318/ndjsontosvg"
	xmlns:quickdraw="https://quickdraw.withgoogle.com/data"
	xmlns:scikit-surgery="https://doi.org/10.1007/s11548-020-02180-5">

	<rect width="100%" height="100%" fill="white" />
	<path d = "M 173.44 595.31 L 168.75 358.59 L 178.12 264.84" stroke="black" fill="transparent"/>
	<path d = "M 255.47 597.66 L 239.06 564.84 L 232.03 510.94 L 225.00 239.06" stroke="black" fill="transparent"/>
	<path d = "M 37.50 21.09 L 11.72 77.34 L 0.00 135.94 L 11.72 229.69 L 185.16 236.72 L 389.06 225.00 L 372.66 159.38 L 365.62 98.44 L 379.69 42.19 L 389.06 28.12 L 414.84 14.06 L 440.62 67.97 L 452.34 119.53 L 452.34 159.38 L 440.62 194.53" stroke="black" fill="transparent"/>
	<path d = "M 39.84 30.47 L 103.12 11.72 L 175.78 0.00 L 396.09 11.72" stroke="black" fill="transparent"/>
	<path d = "M 471.09 175.78 L 471.09 175.78" stroke="black" fill="transparent"/>
</svg>