<?xml version="1.0" encoding="UTF-8" standalone="no"?>
<!--Created with ndjsontosvg (https:https://github.com/thompson318/ndjsontosvg) 
	from the simplified Google quickdraw data set. key_id = 5717741958856704-->
<svg width="600" height="600"
	xmlns="http://www.w3.org/2000/svg">
	xmlns:ndjsontosvg="https://github.com/thompson318/ndjsontosvg"
	xmlns:quickdraw="https://quickdraw.withgoogle.com/data"
	xmlns:scikit-surgery="https://doi.org/10.1007/s11548-020-02180-5">

	<rect width="100%" height="100%" fill="white" />
	<path d = "M 42.19 201.56 L 42.19 178.12 L 72.66 117.19 L 100.78 84.38 L 171.09 75.00 L 220.31 84.38 L 232.03 100.78 L 229.69 140.62 L 173.44 304.69 L 161.72 321.09 L 147.66 323.44 L 77.34 307.03 L 2.34 300.00 L 0.00 292.97 L 53.91 222.66 L 58.59 175.78" stroke="black" fill="transparent"/>
	<path d = "M 217.97 75.00 L 332.81 98.44 L 590.62 89.06 L 592.97 98.44 L 527.34 199.22 L 510.94 234.38 L 496.88 283.59 L 496.88 370.31 L 489.84 377.34 L 466.41 379.69 L 262.50 351.56 L 142.97 314.06" stroke="black" fill="transparent"/>
	<path d = "M 267.19 349.22 L 264.84 391.41 L 243.75 473.44 L 225.00 597.66" stroke="black" fill="transparent"/>
	<path d = "M 377.34 196.88 L 391.41 145.31 L 400.78 75.00 L 426.56 16.41 L 445.31 2.34 L 473.44 2.34 L 482.81 7.03 L 482.81 30.47 L 457.03 82.03 L 445.31 84.38 L 400.78 72.66" stroke="black" fill="transparent"/>
</svg>