<?xml version="1.0" encoding="UTF-8" standalone="no"?>
<!--Created with ndjsontosvg (https:https://github.com/thompson318/ndjsontosvg) 
	from the simplified Google quickdraw data set. key_id = 6360682725376000-->
<svg width="600" height="600"
	xmlns="http://www.w3.org/2000/svg">
	xmlns:ndjsontosvg="https://github.com/thompson318/ndjsontosvg"
	xmlns:quickdraw="https://quickdraw.withgoogle.com/data"
	xmlns:scikit-surgery="https://doi.org/10.1007/s11548-020-02180-5">

	<rect width="100%" height="100%" fill="white" />
	<path d = "M 0.00 70.31 L 157.03 37.50 L 442.97 21.09 L 534.38 21.09 L 548.44 121.88 L 529.69 311.72 L 510.94 445.31 L 473.44 590.62 L 452.34 597.66 L 339.84 592.97 L 105.47 562.50 L 58.59 330.47 L 46.88 175.78 L 25.78 91.41 L 7.03 58.59" stroke="black" fill="transparent"/>
	<path d = "M 86.72 128.91 L 82.03 201.56 L 65.62 239.06 L 77.34 281.25 L 100.78 292.97 L 147.66 300.00 L 194.53 300.00 L 250.78 290.62 L 290.62 262.50 L 316.41 229.69 L 325.78 187.50 L 295.31 147.66 L 360.94 89.06 L 365.62 58.59 L 358.59 18.75 L 398.44 4.69" stroke="black" fill="transparent"/>
	<path d = "M 492.19 400.78 L 494.53 403.12" stroke="black" fill="transparent"/>
	<path d = "M 520.31 428.91 L 506.25 419.53 L 475.78 417.19 L 424.22 438.28 L 417.19 452.34 L 428.91 468.75 L 424.22 480.47 L 311.72 546.09 L 281.25 585.94 L 281.25 595.31 L 292.97 592.97" stroke="black" fill="transparent"/>
	<path d = "M 367.97 527.34 L 370.31 527.34" stroke="black" fill="transparent"/>
	<path d = "M 393.75 522.66 L 393.75 525.00" stroke="black" fill="transparent"/>
	<path d = "M 426.56 529.69 L 424.22 539.06" stroke="black" fill="transparent"/>
	<path d = "M 428.91 564.84 L 419.53 581.25" stroke="black" fill="transparent"/>
	<path d = "M 431.25 590.62 L 435.94 590.62" stroke="black" fill="transparent"/>
	<path d = "M 440.62 583.59 L 438.28 583.59" stroke="black" fill="transparent"/>
	<path d = "M 182.81 412.50 L 178.12 407.81 L 161.72 412.50" stroke="black" fill="transparent"/>
</svg>