<?xml version="1.0" encoding="UTF-8" standalone="no"?>
<!--Created with ndjsontosvg (https:https://github.com/thompson318/ndjsontosvg) 
	from the simplified Google quickdraw data set. key_id = 5947173189451776-->
<svg width="600" height="600"
	xmlns="http://www.w3.org/2000/svg">
	xmlns:ndjsontosvg="https://github.com/thompson318/ndjsontosvg"
	xmlns:quickdraw="https://quickdraw.withgoogle.com/data"
	xmlns:scikit-surgery="https://doi.org/10.1007/s11548-020-02180-5">

	<rect width="100%" height="100%" fill="white" />
	<path d = "M 107.81 30.47 L 492.19 0.00 L 574.22 260.16 L 595.31 304.69 L 597.66 316.41 L 585.94 321.09 L 121.88 384.38 L 0.00 84.38 L 32.81 63.28 L 112.50 39.84 L 128.91 25.78" stroke="black" fill="transparent"/>
	<path d = "M 147.66 86.72 L 119.53 100.78 L 121.88 119.53 L 232.03 150.00 L 250.78 196.88 L 269.53 220.31 L 344.53 239.06 L 382.03 232.03 L 403.12 241.41 L 410.16 267.19" stroke="black" fill="transparent"/>
	<path d = "M 447.66 262.50 L 435.94 262.50 L 435.94 271.88 L 457.03 300.00" stroke="black" fill="transparent"/>
	<path d = "M 461.72 267.19 L 421.88 302.34" stroke="black" fill="transparent"/>
	<path d = "M 145.31 86.72 L 161.72 84.38 L 159.38 75.00 L 150.00 70.31 L 145.31 79.69 L 173.44 86.72 L 168.75 75.00 L 154.69 75.00 L 154.69 82.03 L 164.06 77.34 L 154.69 72.66 L 154.69 82.03 L 161.72 75.00 L 154.69 70.31" stroke="black" fill="transparent"/>
	<path d = "M 140.62 65.62 L 145.31 70.31" stroke="black" fill="transparent"/>
</svg>