<?xml version="1.0" encoding="UTF-8" standalone="no"?>
<!--Created with ndjsontosvg (https:https://github.com/thompson318/ndjsontosvg) 
	from the simplified Google quickdraw data set. key_id = 6541309940596736-->
<svg width="600" height="600"
	xmlns="http://www.w3.org/2000/svg">
	xmlns:ndjsontosvg="https://github.com/thompson318/ndjsontosvg"
	xmlns:quickdraw="https://quickdraw.withgoogle.com/data"
	xmlns:scikit-surgery="https://doi.org/10.1007/s11548-020-02180-5">

	<rect width="100%" height="100%" fill="white" />
	<path d = "M 0.00 11.72 L 11.72 133.59 L 16.41 356.25 L 398.44 335.16 L 492.19 335.16 L 585.94 353.91 L 592.97 337.50 L 597.66 32.81 L 499.22 2.34 L 393.75 0.00 L 11.72 37.50" stroke="black" fill="transparent"/>
	<path d = "M 131.25 316.41 L 124.22 316.41 L 124.22 304.69 L 131.25 285.94 L 164.06 253.12 L 166.41 213.28 L 159.38 187.50 L 135.94 166.41 L 114.84 128.91 L 119.53 58.59 L 93.75 44.53" stroke="black" fill="transparent"/>
	<path d = "M 18.75 60.94 L 51.56 93.75 L 58.59 119.53 L 56.25 201.56 L 79.69 236.72 L 110.16 257.81 L 117.19 309.38" stroke="black" fill="transparent"/>
	<path d = "M 241.41 159.38 L 255.47 138.28 L 281.25 124.22 L 295.31 124.22 L 297.66 138.28 L 290.62 229.69 L 264.84 262.50 L 248.44 325.78 L 342.19 328.12 L 365.62 309.38 L 372.66 271.88 L 360.94 225.00 L 337.50 192.19 L 325.78 161.72 L 377.34 145.31 L 379.69 131.25 L 365.62 117.19 L 417.19 110.16 L 407.81 105.47" stroke="black" fill="transparent"/>
	<path d = "M 236.72 142.97 L 232.03 96.09 L 297.66 96.09 L 307.03 93.75 L 307.03 86.72 L 283.59 65.62 L 239.06 49.22 L 192.19 39.84 L 145.31 39.84 L 321.09 46.88 L 431.25 37.50 L 438.28 84.38 L 501.56 96.09" stroke="black" fill="transparent"/>
</svg>