<?xml version="1.0" encoding="UTF-8" standalone="no"?>
<!--Created with ndjsontosvg (https:https://github.com/thompson318/ndjsontosvg) 
	from the simplified Google quickdraw data set. key_id = 6676753965645824-->
<svg width="600" height="600"
	xmlns="http://www.w3.org/2000/svg">
	xmlns:ndjsontosvg="https://github.com/thompson318/ndjsontosvg"
	xmlns:quickdraw="https://quickdraw.withgoogle.com/data"
	xmlns:scikit-surgery="https://doi.org/10.1007/s11548-020-02180-5">

	<rect width="100%" height="100%" fill="white" />
	<path d = "M 46.88 236.72 L 84.38 492.19 L 86.72 548.44 L 100.78 555.47 L 140.62 555.47 L 150.00 452.34 L 131.25 246.09 L 126.56 234.38 L 51.56 232.03" stroke="black" fill="transparent"/>
	<path d = "M 56.25 239.06 L 28.12 208.59 L 2.34 138.28 L 0.00 105.47 L 7.03 86.72 L 37.50 60.94 L 63.28 60.94 L 89.06 72.66 L 110.16 9.38 L 128.91 4.69 L 157.03 51.56 L 171.09 89.06 L 180.47 178.12 L 126.56 271.88" stroke="black" fill="transparent"/>
	<path d = "M 285.94 541.41 L 285.94 288.28 L 292.97 260.16 L 309.38 253.12 L 379.69 255.47 L 379.69 323.44 L 365.62 396.09 L 346.88 595.31 L 330.47 597.66 L 297.66 576.56" stroke="black" fill="transparent"/>
	<path d = "M 292.97 262.50 L 250.78 44.53 L 257.81 21.09 L 269.53 4.69 L 307.03 2.34" stroke="black" fill="transparent"/>
</svg>