<?xml version="1.0" encoding="UTF-8" standalone="no"?>
<!--Created with ndjsontosvg (https:https://github.com/thompson318/ndjsontosvg) 
	from the simplified Google quickdraw data set. key_id = 6117971288129536-->
<svg width="600" height="600"
	xmlns="http://www.w3.org/2000/svg">
	xmlns:ndjsontosvg="https://github.com/thompson318/ndjsontosvg"
	xmlns:quickdraw="https://quickdraw.withgoogle.com/data"
	xmlns:scikit-surgery="https://doi.org/10.1007/s11548-020-02180-5">

	<rect width="100%" height="100%" fill="white" />
	<path d = "M 412.50 35.16 L 363.28 37.50 L 30.47 105.47" stroke="black" fill="transparent"/>
	<path d = "M 414.84 194.53 L 335.16 194.53 L 213.28 175.78 L 44.53 133.59" stroke="black" fill="transparent"/>
	<path d = "M 39.84 128.91 L 37.50 105.47 L 11.72 110.16 L 2.34 126.56 L 0.00 168.75 L 11.72 178.12 L 46.88 173.44 L 49.22 124.22" stroke="black" fill="transparent"/>
	<path d = "M 424.22 28.12 L 405.47 56.25 L 393.75 98.44 L 389.06 171.09 L 421.88 185.16 L 442.97 178.12 L 445.31 58.59 L 438.28 42.19" stroke="black" fill="transparent"/>
	<path d = "M 475.78 84.38 L 527.34 51.56" stroke="black" fill="transparent"/>
	<path d = "M 527.34 51.56 L 527.34 51.56" stroke="black" fill="transparent"/>
	<path d = "M 485.16 103.12 L 517.97 98.44" stroke="black" fill="transparent"/>
	<path d = "M 496.88 133.59 L 543.75 133.59" stroke="black" fill="transparent"/>
	<path d = "M 546.09 133.59 L 546.09 133.59" stroke="black" fill="transparent"/>
	<path d = "M 475.78 171.09 L 475.78 182.81 L 489.84 196.88 L 529.69 213.28 L 557.81 215.62" stroke="black" fill="transparent"/>
	<path d = "M 503.91 152.34 L 597.66 154.69" stroke="black" fill="transparent"/>
	<path d = "M 492.19 44.53 L 541.41 0.00" stroke="black" fill="transparent"/>
</svg>