<?xml version="1.0" encoding="UTF-8" standalone="no"?>
<!--Created with ndjsontosvg (https:https://github.com/thompson318/ndjsontosvg) 
	from the simplified Google quickdraw data set. key_id = 6549752759975936-->
<svg width="600" height="600"
	xmlns="http://www.w3.org/2000/svg">
	xmlns:ndjsontosvg="https://github.com/thompson318/ndjsontosvg"
	xmlns:quickdraw="https://quickdraw.withgoogle.com/data"
	xmlns:scikit-surgery="https://doi.org/10.1007/s11548-020-02180-5">

	<rect width="100%" height="100%" fill="white" />
	<path d = "M 21.09 379.69 L 0.00 309.38 L 4.69 267.19 L 28.12 236.72 L 42.19 234.38 L 53.91 243.75 L 70.31 281.25 L 75.00 339.84 L 58.59 360.94" stroke="black" fill="transparent"/>
	<path d = "M 39.84 227.34 L 121.88 239.06 L 182.81 269.53" stroke="black" fill="transparent"/>
	<path d = "M 121.88 400.78 L 121.88 400.78" stroke="black" fill="transparent"/>
	<path d = "M 203.91 372.66 L 203.91 372.66" stroke="black" fill="transparent"/>
	<path d = "M 39.84 417.19 L 171.09 356.25" stroke="black" fill="transparent"/>
	<path d = "M 182.81 274.22 L 220.31 229.69 L 464.06 11.72 L 510.94 0.00 L 539.06 9.38 L 548.44 23.44 L 557.81 56.25 L 555.47 107.81 L 508.59 274.22 L 499.22 335.16 L 489.84 592.97 L 459.38 595.31 L 398.44 567.19 L 325.78 522.66 L 283.59 485.16" stroke="black" fill="transparent"/>
	<path d = "M 154.69 344.53 L 154.69 344.53" stroke="black" fill="transparent"/>
</svg>