<?xml version="1.0" encoding="UTF-8" standalone="no"?>
<!--Created with ndjsontosvg (https:https://github.com/thompson318/ndjsontosvg) 
	from the simplified Google quickdraw data set. key_id = 4923521589313536-->
<svg width="600" height="600"
	xmlns="http://www.w3.org/2000/svg">
	xmlns:ndjsontosvg="https://github.com/thompson318/ndjsontosvg"
	xmlns:quickdraw="https://quickdraw.withgoogle.com/data"
	xmlns:scikit-surgery="https://doi.org/10.1007/s11548-020-02180-5">

	<rect width="100%" height="100%" fill="white" />
	<path d = "M 185.16 16.41 L 119.53 23.44 L 86.72 35.16 L 25.78 86.72 L 0.00 150.00 L 2.34 232.03 L 16.41 264.84 L 53.91 304.69 L 133.59 332.81 L 220.31 332.81 L 264.84 295.31 L 290.62 267.19 L 318.75 210.94 L 328.12 161.72 L 328.12 103.12 L 321.09 79.69 L 288.28 44.53 L 203.91 0.00" stroke="black" fill="transparent"/>
	<path d = "M 351.56 96.09 L 386.72 100.78 L 546.09 173.44" stroke="black" fill="transparent"/>
	<path d = "M 269.53 300.00 L 466.41 300.00 L 475.78 318.75 L 473.44 421.88 L 492.19 435.94 L 520.31 431.25 L 534.38 426.56 L 548.44 396.09 L 560.16 309.38 L 592.97 229.69 L 597.66 173.44" stroke="black" fill="transparent"/>
</svg>