<?xml version="1.0" encoding="UTF-8" standalone="no"?>
<!--Created with ndjsontosvg (https:https://github.com/thompson318/ndjsontosvg) 
	from the simplified Google quickdraw data set. key_id = 5915705541132288-->
<svg width="600" height="600"
	xmlns="http://www.w3.org/2000/svg">
	xmlns:ndjsontosvg="https://github.com/thompson318/ndjsontosvg"
	xmlns:quickdraw="https://quickdraw.withgoogle.com/data"
	xmlns:scikit-surgery="https://doi.org/10.1007/s11548-020-02180-5">

	<rect width="100%" height="100%" fill="white" />
	<path d = "M 147.66 126.56 L 192.19 121.88 L 243.75 126.56 L 384.38 185.16 L 412.50 206.25" stroke="black" fill="transparent"/>
	<path d = "M 412.50 206.25 L 412.50 206.25" stroke="black" fill="transparent"/>
	<path d = "M 138.28 128.91 L 135.94 309.38 L 241.41 314.06 L 262.50 307.03 L 358.59 234.38 L 398.44 222.66 L 475.78 217.97" stroke="black" fill="transparent"/>
	<path d = "M 138.28 138.28 L 152.34 98.44 L 154.69 70.31 L 142.97 44.53 L 124.22 28.12 L 79.69 21.09 L 42.19 49.22 L 28.12 75.00 L 9.38 135.94 L 0.00 285.94 L 0.00 391.41 L 11.72 410.16 L 72.66 414.84 L 89.06 405.47 L 126.56 370.31 L 135.94 332.81 L 157.03 25.78 L 157.03 9.38 L 140.62 0.00 L 77.34 21.09 L 18.75 84.38" stroke="black" fill="transparent"/>
	<path d = "M 161.72 9.38 L 421.88 135.94 L 475.78 189.84 L 501.56 232.03 L 501.56 248.44" stroke="black" fill="transparent"/>
	<path d = "M 140.62 351.56 L 217.97 314.06 L 417.19 292.97 L 480.47 208.59" stroke="black" fill="transparent"/>
	<path d = "M 482.81 206.25 L 496.88 185.16 L 557.81 138.28 L 576.56 91.41 L 597.66 86.72" stroke="black" fill="transparent"/>
</svg>