<?xml version="1.0" encoding="UTF-8" standalone="no"?>
<!--Created with ndjsontosvg (https:https://github.com/thompson318/ndjsontosvg) 
	from the simplified Google quickdraw data set. key_id = 5378461017309184-->
<svg width="600" height="600"
	xmlns="http://www.w3.org/2000/svg">
	xmlns:ndjsontosvg="https://github.com/thompson318/ndjsontosvg"
	xmlns:quickdraw="https://quickdraw.withgoogle.com/data"
	xmlns:scikit-surgery="https://doi.org/10.1007/s11548-020-02180-5">

	<rect width="100%" height="100%" fill="white" />
	<path d = "M 14.06 2.34 L 0.00 107.81 L 0.00 213.28 L 18.75 332.81 L 18.75 393.75 L 39.84 360.94 L 96.09 309.38 L 159.38 269.53 L 201.56 250.78 L 307.03 241.41 L 480.47 260.16 L 550.78 243.75 L 567.19 225.00 L 569.53 208.59 L 560.16 138.28 L 543.75 79.69 L 515.62 53.91 L 487.50 42.19 L 419.53 39.84 L 281.25 70.31 L 192.19 79.69 L 119.53 65.62 L 18.75 0.00" stroke="black" fill="transparent"/>
	<path d = "M 440.62 260.16 L 482.81 318.75 L 564.84 314.06 L 529.69 271.88 L 569.53 316.41 L 595.31 358.59 L 592.97 386.72 L 539.06 405.47 L 475.78 330.47 L 461.72 321.09" stroke="black" fill="transparent"/>
</svg>