<?xml version="1.0" encoding="UTF-8" standalone="no"?>
<!--Created with ndjsontosvg (https:https://github.com/thompson318/ndjsontosvg) 
	from the simplified Google quickdraw data set. key_id = 6565777492672512-->
<svg width="600" height="600"
	xmlns="http://www.w3.org/2000/svg">
	xmlns:ndjsontosvg="https://github.com/thompson318/ndjsontosvg"
	xmlns:quickdraw="https://quickdraw.withgoogle.com/data"
	xmlns:scikit-surgery="https://doi.org/10.1007/s11548-020-02180-5">

	<rect width="100%" height="100%" fill="white" />
	<path d = "M 267.19 154.69 L 217.97 147.66 L 180.47 168.75 L 159.38 281.25 L 135.94 337.50" stroke="black" fill="transparent"/>
	<path d = "M 196.88 372.66 L 208.59 307.03 L 225.00 278.91 L 257.81 257.81 L 297.66 253.12 L 323.44 232.03" stroke="black" fill="transparent"/>
	<path d = "M 133.59 353.91 L 21.09 353.91 L 0.00 360.94 L 18.75 377.34 L 77.34 410.16 L 119.53 419.53 L 154.69 419.53 L 210.94 517.97 L 220.31 468.75 L 215.62 363.28" stroke="black" fill="transparent"/>
	<path d = "M 346.88 241.41 L 262.50 145.31" stroke="black" fill="transparent"/>
	<path d = "M 276.56 150.00 L 358.59 117.19 L 389.06 100.78 L 386.72 91.41 L 292.97 77.34 L 210.94 93.75 L 152.34 93.75" stroke="black" fill="transparent"/>
	<path d = "M 154.69 93.75 L 157.03 60.94 L 180.47 32.81 L 290.62 32.81 L 358.59 9.38 L 412.50 0.00" stroke="black" fill="transparent"/>
	<path d = "M 367.97 250.78 L 414.84 210.94 L 424.22 206.25 L 431.25 217.97 L 398.44 302.34 L 391.41 339.84 L 393.75 365.62 L 405.47 377.34 L 419.53 379.69 L 435.94 370.31 L 459.38 342.19 L 482.81 281.25 L 487.50 206.25 L 473.44 124.22 L 489.84 105.47 L 541.41 124.22 L 569.53 117.19 L 597.66 77.34 L 597.66 60.94 L 578.91 25.78 L 557.81 14.06 L 517.97 2.34 L 489.84 0.00 L 466.41 7.03 L 454.69 51.56 L 386.72 25.78" stroke="black" fill="transparent"/>
	<path d = "M 239.06 178.12 L 236.72 285.94" stroke="black" fill="transparent"/>
	<path d = "M 213.28 196.88 L 217.97 253.12" stroke="black" fill="transparent"/>
	<path d = "M 185.16 246.09 L 194.53 297.66" stroke="black" fill="transparent"/>
	<path d = "M 173.44 323.44 L 180.47 339.84" stroke="black" fill="transparent"/>
</svg>