<?xml version="1.0" encoding="UTF-8" standalone="no"?>
<!--Created with ndjsontosvg (https:https://github.com/thompson318/ndjsontosvg) 
	from the simplified Google quickdraw data set. key_id = 5681677693091840-->
<svg width="600" height="600"
	xmlns="http://www.w3.org/2000/svg">
	xmlns:ndjsontosvg="https://github.com/thompson318/ndjsontosvg"
	xmlns:quickdraw="https://quickdraw.withgoogle.com/data"
	xmlns:scikit-surgery="https://doi.org/10.1007/s11548-020-02180-5">

	<rect width="100%" height="100%" fill="white" />
	<path d = "M 262.50 70.31 L 255.47 131.25 L 264.84 117.19 L 262.50 93.75 L 255.47 103.12" stroke="black" fill="transparent"/>
	<path d = "M 316.41 77.34 L 316.41 107.81" stroke="black" fill="transparent"/>
	<path d = "M 325.78 18.75 L 307.03 9.38 L 248.44 7.03 L 217.97 32.81 L 206.25 93.75 L 210.94 232.03 L 138.28 236.72 L 119.53 217.97" stroke="black" fill="transparent"/>
	<path d = "M 321.09 0.00 L 342.19 7.03 L 363.28 39.84 L 367.97 243.75 L 384.38 255.47 L 419.53 257.81 L 433.59 253.12 L 438.28 232.03" stroke="black" fill="transparent"/>
	<path d = "M 248.44 182.81 L 278.91 210.94 L 302.34 210.94 L 318.75 201.56" stroke="black" fill="transparent"/>
	<path d = "M 253.12 213.28 L 239.06 250.78 L 239.06 314.06 L 253.12 384.38 L 255.47 433.59 L 206.25 482.81 L 121.88 529.69 L 0.00 543.75 L 114.84 557.81 L 70.31 592.97 L 86.72 597.66 L 147.66 562.50 L 168.75 557.81 L 307.03 555.47 L 344.53 529.69 L 363.28 496.88 L 370.31 459.38 L 370.31 384.38 L 349.22 295.31 L 342.19 269.53 L 332.81 264.84" stroke="black" fill="transparent"/>
	<path d = "M 225.00 222.66 L 213.28 227.34 L 199.22 264.84 L 171.09 297.66 L 103.12 335.16" stroke="black" fill="transparent"/>
	<path d = "M 377.34 246.09 L 372.66 262.50 L 405.47 302.34 L 471.09 351.56 L 506.25 365.62" stroke="black" fill="transparent"/>
	<path d = "M 208.59 482.81 L 208.59 543.75" stroke="black" fill="transparent"/>
	<path d = "M 264.84 445.31 L 255.47 464.06 L 253.12 548.44" stroke="black" fill="transparent"/>
</svg>