<?xml version="1.0" encoding="UTF-8" standalone="no"?>
<!--Created with ndjsontosvg (https:https://github.com/thompson318/ndjsontosvg) 
	from the simplified Google quickdraw data set. key_id = 6242232229167104-->
<svg width="600" height="600"
	xmlns="http://www.w3.org/2000/svg">
	xmlns:ndjsontosvg="https://github.com/thompson318/ndjsontosvg"
	xmlns:quickdraw="https://quickdraw.withgoogle.com/data"
	xmlns:scikit-surgery="https://doi.org/10.1007/s11548-020-02180-5">

	<rect width="100%" height="100%" fill="white" />
	<path d = "M 171.09 217.97 L 189.84 271.88 L 196.88 438.28 L 182.81 487.50 L 145.31 541.41 L 138.28 578.91 L 185.16 588.28 L 206.25 571.88 L 236.72 527.34 L 264.84 574.22 L 290.62 592.97 L 311.72 597.66 L 325.78 576.56 L 328.12 527.34 L 300.00 457.03 L 283.59 330.47 L 281.25 246.09 L 290.62 217.97 L 255.47 210.94 L 192.19 215.62" stroke="black" fill="transparent"/>
	<path d = "M 194.53 208.59 L 210.94 166.41 L 210.94 89.06 L 175.78 84.38 L 161.72 91.41 L 135.94 124.22 L 114.84 185.16 L 112.50 271.88 L 119.53 307.03 L 114.84 328.12 L 82.03 337.50 L 65.62 323.44 L 42.19 337.50 L 25.78 339.84 L 14.06 309.38 L 7.03 309.38 L 0.00 295.31 L 0.00 253.12 L 11.72 222.66 L 96.09 100.78 L 121.88 70.31 L 180.47 37.50 L 196.88 0.00" stroke="black" fill="transparent"/>
	<path d = "M 302.34 189.84 L 295.31 100.78" stroke="black" fill="transparent"/>
</svg>