<?xml version="1.0" encoding="UTF-8" standalone="no"?>
<!--Created with ndjsontosvg (https:https://github.com/thompson318/ndjsontosvg) 
	from the simplified Google quickdraw data set. key_id = 5457730653388800-->
<svg width="600" height="600"
	xmlns="http://www.w3.org/2000/svg">
	xmlns:ndjsontosvg="https://github.com/thompson318/ndjsontosvg"
	xmlns:quickdraw="https://quickdraw.withgoogle.com/data"
	xmlns:scikit-surgery="https://doi.org/10.1007/s11548-020-02180-5">

	<rect width="100%" height="100%" fill="white" />
	<path d = "M 166.41 304.69 L 225.00 433.59 L 276.56 489.84 L 346.88 513.28 L 419.53 517.97 L 536.72 485.16 L 562.50 550.78 L 571.88 527.34 L 562.50 485.16 L 592.97 473.44 L 597.66 459.38 L 581.25 454.69 L 501.56 450.00 L 398.44 414.84 L 365.62 389.06 L 318.75 321.09 L 304.69 297.66 L 292.97 255.47" stroke="black" fill="transparent"/>
	<path d = "M 154.69 302.34 L 215.62 300.00 L 274.22 264.84" stroke="black" fill="transparent"/>
	<path d = "M 262.50 152.34 L 428.91 208.59 L 459.38 213.28 L 464.06 203.91 L 461.72 178.12 L 438.28 173.44 L 424.22 159.38 L 365.62 133.59 L 264.84 103.12" stroke="black" fill="transparent"/>
	<path d = "M 267.19 154.69 L 267.19 187.50 L 288.28 260.16" stroke="black" fill="transparent"/>
	<path d = "M 171.09 285.94 L 124.22 166.41" stroke="black" fill="transparent"/>
	<path d = "M 124.22 166.41 L 103.12 196.88 L 65.62 285.94 L 32.81 248.44 L 0.00 194.53 L 42.19 142.97 L 60.94 105.47" stroke="black" fill="transparent"/>
	<path d = "M 44.53 86.72 L 138.28 84.38 L 107.81 60.94 L 110.16 21.09 L 140.62 0.00 L 182.81 9.38" stroke="black" fill="transparent"/>
</svg>