<?xml version="1.0" encoding="UTF-8" standalone="no"?>
<!--Created with ndjsontosvg (https:https://github.com/thompson318/ndjsontosvg) 
	from the simplified Google quickdraw data set. key_id = 6676430014382080-->
<svg width="600" height="600"
	xmlns="http://www.w3.org/2000/svg">
	xmlns:ndjsontosvg="https://github.com/thompson318/ndjsontosvg"
	xmlns:quickdraw="https://quickdraw.withgoogle.com/data"
	xmlns:scikit-surgery="https://doi.org/10.1007/s11548-020-02180-5">

	<rect width="100%" height="100%" fill="white" />
	<path d = "M 100.78 295.31 L 117.19 379.69 L 112.50 464.06 L 86.72 492.19 L 44.53 494.53 L 23.44 466.41 L 16.41 410.16 L 2.34 442.97 L 0.00 503.91 L 32.81 583.59 L 63.28 595.31 L 103.12 597.66 L 107.81 585.94 L 84.38 546.09 L 84.38 527.34 L 138.28 501.56 L 166.41 473.44 L 196.88 391.41 L 196.88 330.47 L 182.81 292.97" stroke="black" fill="transparent"/>
	<path d = "M 117.19 285.94 L 210.94 285.94" stroke="black" fill="transparent"/>
	<path d = "M 93.75 285.94 L 100.78 150.00 L 117.19 121.88 L 145.31 112.50 L 178.12 114.84 L 206.25 142.97 L 210.94 220.31 L 194.53 281.25" stroke="black" fill="transparent"/>
	<path d = "M 124.22 110.16 L 119.53 100.78 L 121.88 75.00 L 135.94 42.19 L 150.00 30.47 L 182.81 28.12 L 201.56 53.91 L 194.53 98.44 L 175.78 114.84 L 135.94 112.50" stroke="black" fill="transparent"/>
	<path d = "M 152.34 28.12 L 89.06 150.00 L 93.75 114.84 L 119.53 56.25 L 147.66 23.44 L 157.03 18.75 L 161.72 23.44 L 140.62 98.44 L 147.66 56.25 L 178.12 0.00 L 196.88 63.28 L 187.50 37.50 L 187.50 56.25 L 201.56 128.91 L 210.94 147.66 L 215.62 138.28 L 201.56 84.38 L 232.03 166.41" stroke="black" fill="transparent"/>
	<path d = "M 201.56 166.41 L 246.09 138.28 L 302.34 84.38" stroke="black" fill="transparent"/>
</svg>