<?xml version="1.0" encoding="UTF-8" standalone="no"?>
<!--Created with ndjsontosvg (https:https://github.com/thompson318/ndjsontosvg) 
	from the simplified Google quickdraw data set. key_id = 6688906827268096-->
<svg width="600" height="600"
	xmlns="http://www.w3.org/2000/svg">
	xmlns:ndjsontosvg="https://github.com/thompson318/ndjsontosvg"
	xmlns:quickdraw="https://quickdraw.withgoogle.com/data"
	xmlns:scikit-surgery="https://doi.org/10.1007/s11548-020-02180-5">

	<rect width="100%" height="100%" fill="white" />
	<path d = "M 18.75 25.78 L 18.75 185.16 L 0.00 377.34 L 72.66 365.62 L 571.88 353.91 L 585.94 346.88 L 597.66 300.00 L 590.62 213.28 L 557.81 96.09 L 517.97 2.34 L 452.34 0.00 L 278.91 25.78 L 154.69 35.16 L 75.00 35.16 L 21.09 23.44" stroke="black" fill="transparent"/>
	<path d = "M 39.84 367.97 L 46.88 410.16 L 60.94 412.50 L 93.75 391.41 L 96.09 365.62 L 89.06 349.22" stroke="black" fill="transparent"/>
	<path d = "M 424.22 356.25 L 454.69 426.56 L 471.09 435.94 L 513.28 421.88 L 532.03 407.81 L 515.62 351.56" stroke="black" fill="transparent"/>
	<path d = "M 103.12 91.41 L 121.88 260.16 L 189.84 278.91 L 262.50 281.25 L 447.66 257.81 L 457.03 239.06 L 457.03 168.75 L 440.62 117.19 L 414.84 79.69 L 346.88 77.34 L 79.69 103.12" stroke="black" fill="transparent"/>
	<path d = "M 517.97 89.06 L 480.47 107.81 L 475.78 114.84 L 478.12 128.91 L 508.59 138.28 L 527.34 133.59 L 532.03 110.16 L 522.66 93.75" stroke="black" fill="transparent"/>
</svg>