<?xml version="1.0" encoding="UTF-8" standalone="no"?>
<!--Created with ndjsontosvg (https:https://github.com/thompson318/ndjsontosvg) 
	from the simplified Google quickdraw data set. key_id = 4994177278410752-->
<svg width="600" height="600"
	xmlns="http://www.w3.org/2000/svg">
	xmlns:ndjsontosvg="https://github.com/thompson318/ndjsontosvg"
	xmlns:quickdraw="https://quickdraw.withgoogle.com/data"
	xmlns:scikit-surgery="https://doi.org/10.1007/s11548-020-02180-5">

	<rect width="100%" height="100%" fill="white" />
	<path d = "M 28.12 32.81 L 2.34 229.69 L 0.00 375.00 L 65.62 363.28 L 288.28 360.94 L 459.38 389.06 L 569.53 384.38 L 525.00 67.97 L 510.94 58.59 L 482.81 56.25 L 353.91 56.25 L 63.28 32.81 L 25.78 18.75 L 16.41 0.00" stroke="black" fill="transparent"/>
	<path d = "M 93.75 128.91 L 84.38 248.44 L 133.59 255.47 L 365.62 255.47 L 407.81 262.50 L 410.16 246.09 L 386.72 159.38 L 358.59 121.88 L 187.50 114.84 L 107.81 121.88 L 105.47 126.56" stroke="black" fill="transparent"/>
	<path d = "M 400.78 171.09 L 410.16 372.66" stroke="black" fill="transparent"/>
	<path d = "M 410.16 185.16 L 421.88 180.47 L 597.66 180.47" stroke="black" fill="transparent"/>
	<path d = "M 459.38 250.78 L 459.38 250.78" stroke="black" fill="transparent"/>
	<path d = "M 503.91 276.56 L 503.91 276.56" stroke="black" fill="transparent"/>
	<path d = "M 539.06 278.91 L 539.06 278.91" stroke="black" fill="transparent"/>
	<path d = "M 508.59 358.59 L 508.59 358.59" stroke="black" fill="transparent"/>
	<path d = "M 473.44 349.22 L 473.44 349.22" stroke="black" fill="transparent"/>
	<path d = "M 471.09 278.91 L 471.09 278.91" stroke="black" fill="transparent"/>
	<path d = "M 482.81 358.59 L 482.81 332.81" stroke="black" fill="transparent"/>
	<path d = "M 487.50 281.25 L 489.84 255.47" stroke="black" fill="transparent"/>
	<path d = "M 525.00 260.16 L 525.00 290.62 L 536.72 307.03" stroke="black" fill="transparent"/>
</svg>