<?xml version="1.0" encoding="UTF-8" standalone="no"?>
<!--Created with ndjsontosvg (https:https://github.com/thompson318/ndjsontosvg) 
	from the simplified Google quickdraw data set. key_id = 6450917979193344-->
<svg width="600" height="600"
	xmlns="http://www.w3.org/2000/svg">
	xmlns:ndjsontosvg="https://github.com/thompson318/ndjsontosvg"
	xmlns:quickdraw="https://quickdraw.withgoogle.com/data"
	xmlns:scikit-surgery="https://doi.org/10.1007/s11548-020-02180-5">

	<rect width="100%" height="100%" fill="white" />
	<path d = "M 114.84 311.72 L 131.25 548.44 L 140.62 592.97 L 150.00 597.66 L 253.12 585.94 L 278.91 571.88 L 295.31 546.09 L 288.28 398.44 L 267.19 290.62 L 257.81 281.25 L 227.34 276.56 L 166.41 288.28 L 114.84 316.41 L 72.66 314.06 L 21.09 285.94 L 0.00 227.34 L 2.34 161.72 L 11.72 131.25 L 82.03 44.53 L 147.66 11.72 L 225.00 4.69 L 292.97 18.75 L 351.56 49.22 L 382.03 86.72 L 389.06 147.66 L 377.34 194.53 L 344.53 267.19 L 290.62 304.69 L 220.31 321.09" stroke="black" fill="transparent"/>
	<path d = "M 358.59 58.59 L 349.22 91.41 L 318.75 145.31 L 128.91 393.75" stroke="black" fill="transparent"/>
	<path d = "M 283.59 0.00 L 42.19 346.88" stroke="black" fill="transparent"/>
	<path d = "M 175.78 2.34 L 154.69 39.84 L 2.34 248.44" stroke="black" fill="transparent"/>
	<path d = "M 75.00 63.28 L 213.28 159.38 L 346.88 225.00" stroke="black" fill="transparent"/>
	<path d = "M 98.44 70.31 L 145.31 121.88 L 250.78 208.59" stroke="black" fill="transparent"/>
	<path d = "M 203.91 21.09 L 304.69 93.75 L 370.31 150.00" stroke="black" fill="transparent"/>
	<path d = "M 16.41 161.72 L 75.00 208.59 L 161.72 260.16" stroke="black" fill="transparent"/>
	<path d = "M 75.00 257.81 L 117.19 295.31 L 227.34 358.59" stroke="black" fill="transparent"/>
</svg>