<?xml version="1.0" encoding="UTF-8" standalone="no"?>
<!--Created with ndjsontosvg (https:https://github.com/thompson318/ndjsontosvg) 
	from the simplified Google quickdraw data set. key_id = 6071810476998656-->
<svg width="600" height="600"
	xmlns="http://www.w3.org/2000/svg">
	xmlns:ndjsontosvg="https://github.com/thompson318/ndjsontosvg"
	xmlns:quickdraw="https://quickdraw.withgoogle.com/data"
	xmlns:scikit-surgery="https://doi.org/10.1007/s11548-020-02180-5">

	<rect width="100%" height="100%" fill="white" />
	<path d = "M 65.62 201.56 L 42.19 185.16 L 30.47 164.06 L 21.09 70.31 L 44.53 25.78 L 60.94 11.72 L 131.25 0.00 L 164.06 39.84 L 173.44 79.69 L 171.09 119.53 L 119.53 171.09 L 56.25 194.53" stroke="black" fill="transparent"/>
	<path d = "M 35.16 173.44 L 0.00 597.66 L 89.06 597.66 L 107.81 595.31 L 119.53 536.72 L 133.59 171.09" stroke="black" fill="transparent"/>
	<path d = "M 53.91 175.78 L 56.25 44.53 L 63.28 21.09" stroke="black" fill="transparent"/>
	<path d = "M 84.38 14.06 L 79.69 166.41" stroke="black" fill="transparent"/>
	<path d = "M 117.19 16.41 L 114.84 131.25" stroke="black" fill="transparent"/>
	<path d = "M 152.34 21.09 L 147.66 135.94" stroke="black" fill="transparent"/>
	<path d = "M 114.84 126.56 L 114.84 199.22" stroke="black" fill="transparent"/>
</svg>