<?xml version="1.0" encoding="UTF-8" standalone="no"?>
<!--Created with ndjsontosvg (https:https://github.com/thompson318/ndjsontosvg) 
	from the simplified Google quickdraw data set. key_id = 6106740137394176-->
<svg width="600" height="600"
	xmlns="http://www.w3.org/2000/svg">
	xmlns:ndjsontosvg="https://github.com/thompson318/ndjsontosvg"
	xmlns:quickdraw="https://quickdraw.withgoogle.com/data"
	xmlns:scikit-surgery="https://doi.org/10.1007/s11548-020-02180-5">

	<rect width="100%" height="100%" fill="white" />
	<path d = "M 58.59 28.12 L 37.50 35.16 L 18.75 56.25 L 2.34 107.81 L 0.00 152.34 L 14.06 189.84 L 63.28 236.72 L 159.38 243.75 L 227.34 215.62 L 253.12 194.53 L 281.25 131.25 L 281.25 103.12 L 255.47 32.81 L 234.38 11.72 L 192.19 0.00 L 93.75 0.00 L 67.97 4.69 L 60.94 11.72" stroke="black" fill="transparent"/>
	<path d = "M 44.53 227.34 L 53.91 229.69 L 58.59 246.09 L 67.97 311.72 L 82.03 560.16 L 105.47 592.97 L 121.88 597.66 L 142.97 595.31 L 166.41 569.53 L 187.50 527.34 L 196.88 445.31 L 196.88 227.34" stroke="black" fill="transparent"/>
	<path d = "M 4.69 84.38 L 105.47 44.53 L 210.94 16.41" stroke="black" fill="transparent"/>
</svg>