<?xml version="1.0" encoding="UTF-8" standalone="no"?>
<!--Created with ndjsontosvg (https:https://github.com/thompson318/ndjsontosvg) 
	from the simplified Google quickdraw data set. key_id = 5738635032788992-->
<svg width="600" height="600"
	xmlns="http://www.w3.org/2000/svg">
	xmlns:ndjsontosvg="https://github.com/thompson318/ndjsontosvg"
	xmlns:quickdraw="https://quickdraw.withgoogle.com/data"
	xmlns:scikit-surgery="https://doi.org/10.1007/s11548-020-02180-5">

	<rect width="100%" height="100%" fill="white" />
	<path d = "M 89.06 210.94 L 93.75 229.69 L 93.75 457.03 L 105.47 553.12 L 98.44 590.62 L 187.50 597.66 L 210.94 475.78 L 276.56 274.22 L 290.62 210.94 L 257.81 206.25 L 124.22 220.31 L 79.69 215.62" stroke="black" fill="transparent"/>
	<path d = "M 96.09 225.00 L 65.62 217.97 L 21.09 166.41 L 0.00 114.84 L 2.34 60.94 L 18.75 32.81 L 44.53 14.06 L 135.94 0.00 L 185.16 2.34 L 295.31 35.16 L 332.81 63.28 L 358.59 100.78 L 365.62 147.66 L 346.88 182.81 L 304.69 213.28 L 260.16 220.31" stroke="black" fill="transparent"/>
	<path d = "M 42.19 32.81 L 65.62 63.28 L 82.03 107.81 L 107.81 208.59" stroke="black" fill="transparent"/>
	<path d = "M 173.44 2.34 L 208.59 121.88 L 220.31 203.91" stroke="black" fill="transparent"/>
	<path d = "M 295.31 39.84 L 300.00 206.25" stroke="black" fill="transparent"/>
	<path d = "M 28.12 124.22 L 28.12 124.22" stroke="black" fill="transparent"/>
</svg>