<?xml version="1.0" encoding="UTF-8" standalone="no"?>
<!--Created with ndjsontosvg (https:https://github.com/thompson318/ndjsontosvg) 
	from the simplified Google quickdraw data set. key_id = 6340367513288704-->
<svg width="600" height="600"
	xmlns="http://www.w3.org/2000/svg">
	xmlns:ndjsontosvg="https://github.com/thompson318/ndjsontosvg"
	xmlns:quickdraw="https://quickdraw.withgoogle.com/data"
	xmlns:scikit-surgery="https://doi.org/10.1007/s11548-020-02180-5">

	<rect width="100%" height="100%" fill="white" />
	<path d = "M 32.81 11.72 L 46.88 0.00 L 236.72 0.00 L 290.62 32.81 L 304.69 63.28 L 307.03 110.16 L 274.22 203.91 L 262.50 285.94" stroke="black" fill="transparent"/>
	<path d = "M 23.44 7.03 L 23.44 63.28 L 0.00 164.06 L 4.69 236.72 L 21.09 255.47 L 91.41 281.25 L 220.31 285.94" stroke="black" fill="transparent"/>
	<path d = "M 91.41 28.12 L 82.03 232.03" stroke="black" fill="transparent"/>
	<path d = "M 157.03 56.25 L 142.97 234.38" stroke="black" fill="transparent"/>
	<path d = "M 227.34 39.84 L 225.00 107.81 L 196.88 241.41" stroke="black" fill="transparent"/>
	<path d = "M 16.41 56.25 L 227.34 72.66 L 264.84 84.38" stroke="black" fill="transparent"/>
	<path d = "M 75.00 131.25 L 222.66 140.62 L 269.53 147.66 L 278.91 157.03" stroke="black" fill="transparent"/>
	<path d = "M 65.62 180.47 L 267.19 192.19" stroke="black" fill="transparent"/>
	<path d = "M 91.41 285.94 L 60.94 578.91 L 77.34 588.28 L 164.06 595.31 L 175.78 489.84 L 175.78 302.34" stroke="black" fill="transparent"/>
</svg>