<?xml version="1.0" encoding="UTF-8" standalone="no"?>
<!--Created with ndjsontosvg (https:https://github.com/thompson318/ndjsontosvg) 
	from the simplified Google quickdraw data set. key_id = 4844464717692928-->
<svg width="600" height="600"
	xmlns="http://www.w3.org/2000/svg">
	xmlns:ndjsontosvg="https://github.com/thompson318/ndjsontosvg"
	xmlns:quickdraw="https://quickdraw.withgoogle.com/data"
	xmlns:scikit-surgery="https://doi.org/10.1007/s11548-020-02180-5">

	<rect width="100%" height="100%" fill="white" />
	<path d = "M 0.00 4.69 L 11.72 264.84 L 25.78 358.59 L 58.59 353.91 L 515.62 431.25 L 590.62 438.28 L 597.66 428.91 L 548.44 325.78 L 550.78 220.31 L 569.53 42.19 L 555.47 14.06 L 536.72 7.03 L 346.88 0.00 L 173.44 7.03 L 56.25 30.47 L 35.16 25.78 L 46.88 21.09" stroke="black" fill="transparent"/>
	<path d = "M 58.59 28.12 L 58.59 28.12" stroke="black" fill="transparent"/>
	<path d = "M 75.00 84.38 L 119.53 264.84 L 157.03 276.56 L 234.38 288.28 L 330.47 290.62 L 419.53 278.91 L 424.22 271.88 L 407.81 199.22 L 410.16 96.09 L 403.12 18.75 L 393.75 11.72 L 82.03 86.72" stroke="black" fill="transparent"/>
</svg>