<?xml version="1.0" encoding="UTF-8" standalone="no"?>
<!--Created with ndjsontosvg (https:https://github.com/thompson318/ndjsontosvg) 
	from the simplified Google quickdraw data set. key_id = 5675450527383552-->
<svg width="600" height="600"
	xmlns="http://www.w3.org/2000/svg">
	xmlns:ndjsontosvg="https://github.com/thompson318/ndjsontosvg"
	xmlns:quickdraw="https://quickdraw.withgoogle.com/data"
	xmlns:scikit-surgery="https://doi.org/10.1007/s11548-020-02180-5">

	<rect width="100%" height="100%" fill="white" />
	<path d = "M 110.16 241.41 L 103.12 417.19 L 117.19 517.97 L 145.31 576.56 L 175.78 595.31 L 199.22 597.66 L 225.00 585.94 L 248.44 562.50 L 300.00 454.69 L 318.75 386.72 L 318.75 335.16 L 288.28 255.47 L 328.12 239.06 L 339.84 220.31 L 349.22 182.81 L 351.56 131.25 L 206.25 49.22 L 117.19 16.41 L 96.09 23.44 L 58.59 49.22 L 18.75 103.12 L 14.06 157.03 L 23.44 175.78 L 56.25 201.56 L 110.16 222.66 L 189.84 241.41 L 302.34 253.12 L 323.44 232.03 L 330.47 194.53" stroke="black" fill="transparent"/>
	<path d = "M 100.78 0.00 L 112.50 77.34 L 114.84 178.12 L 126.56 168.75" stroke="black" fill="transparent"/>
	<path d = "M 206.25 86.72 L 206.25 225.00 L 222.66 274.22 L 236.72 271.88 L 267.19 243.75 L 292.97 206.25" stroke="black" fill="transparent"/>
	<path d = "M 316.41 131.25 L 304.69 227.34" stroke="black" fill="transparent"/>
	<path d = "M 0.00 79.69 L 63.28 107.81 L 164.06 114.84 L 405.47 180.47" stroke="black" fill="transparent"/>
	<path d = "M 46.88 145.31 L 138.28 168.75 L 267.19 175.78 L 314.06 194.53 L 344.53 192.19" stroke="black" fill="transparent"/>
</svg>