<?xml version="1.0" encoding="UTF-8" standalone="no"?>
<!--Created with ndjsontosvg (https:https://github.com/thompson318/ndjsontosvg) 
	from the simplified Google quickdraw data set. key_id = 5769127014694912-->
<svg width="600" height="600"
	xmlns="http://www.w3.org/2000/svg">
	xmlns:ndjsontosvg="https://github.com/thompson318/ndjsontosvg"
	xmlns:quickdraw="https://quickdraw.withgoogle.com/data"
	xmlns:scikit-surgery="https://doi.org/10.1007/s11548-020-02180-5">

	<rect width="100%" height="100%" fill="white" />
	<path d = "M 77.34 131.25 L 225.00 98.44 L 325.78 100.78 L 382.03 114.84 L 414.84 133.59 L 426.56 154.69 L 414.84 180.47 L 382.03 203.91 L 323.44 227.34 L 241.41 241.41 L 161.72 243.75 L 98.44 229.69 L 58.59 203.91 L 44.53 173.44 L 63.28 142.97" stroke="black" fill="transparent"/>
	<path d = "M 302.34 217.97 L 342.19 269.53 L 435.94 295.31 L 464.06 316.41 L 468.75 335.16 L 457.03 358.59 L 424.22 367.97 L 398.44 363.28" stroke="black" fill="transparent"/>
	<path d = "M 110.16 246.09 L 103.12 269.53 L 18.75 344.53 L 2.34 375.00 L 14.06 393.75 L 46.88 398.44 L 93.75 384.38 L 119.53 370.31" stroke="black" fill="transparent"/>
	<path d = "M 375.00 363.28 L 309.38 351.56 L 342.19 442.97 L 342.19 480.47 L 332.81 494.53 L 311.72 482.81 L 269.53 433.59 L 236.72 482.81 L 213.28 489.84 L 189.84 482.81 L 152.34 447.66 L 121.88 377.34" stroke="black" fill="transparent"/>
	<path d = "M 318.75 75.00 L 330.47 44.53 L 377.34 11.72 L 424.22 0.00 L 464.06 7.03 L 475.78 23.44 L 471.09 58.59 L 450.00 96.09 L 412.50 131.25" stroke="black" fill="transparent"/>
	<path d = "M 194.53 119.53 L 180.47 91.41 L 142.97 58.59 L 107.81 49.22 L 63.28 56.25 L 21.09 84.38 L 0.00 124.22 L 14.06 150.00 L 60.94 164.06" stroke="black" fill="transparent"/>
	<path d = "M 171.09 138.28 L 232.03 121.88 L 311.72 119.53 L 358.59 131.25 L 370.31 150.00 L 360.94 164.06 L 323.44 187.50 L 274.22 196.88 L 185.16 206.25 L 114.84 201.56 L 96.09 189.84 L 105.47 168.75 L 126.56 150.00 L 178.12 131.25" stroke="black" fill="transparent"/>
	<path d = "M 330.47 414.84 L 330.47 426.56 L 346.88 433.59 L 396.09 435.94 L 445.31 419.53 L 473.44 398.44 L 487.50 377.34 L 492.19 351.56 L 473.44 246.09 L 480.47 187.50 L 501.56 154.69 L 532.03 131.25 L 560.16 119.53 L 581.25 121.88 L 595.31 138.28 L 597.66 154.69 L 585.94 166.41 L 548.44 180.47 L 534.38 194.53 L 525.00 297.66 L 485.16 379.69 L 435.94 433.59 L 414.84 442.97 L 375.00 442.97" stroke="black" fill="transparent"/>
</svg>