<?xml version="1.0" encoding="UTF-8" standalone="no"?>
<!--Created with ndjsontosvg (https:https://github.com/thompson318/ndjsontosvg) 
	from the simplified Google quickdraw data set. key_id = 5423103955959808-->
<svg width="600" height="600"
	xmlns="http://www.w3.org/2000/svg">
	xmlns:ndjsontosvg="https://github.com/thompson318/ndjsontosvg"
	xmlns:quickdraw="https://quickdraw.withgoogle.com/data"
	xmlns:scikit-surgery="https://doi.org/10.1007/s11548-020-02180-5">

	<rect width="100%" height="100%" fill="white" />
	<path d = "M 187.50 91.41 L 189.84 70.31 L 210.94 46.88 L 255.47 16.41 L 288.28 2.34 L 339.84 2.34 L 353.91 7.03 L 431.25 77.34 L 440.62 107.81 L 435.94 147.66 L 407.81 215.62 L 370.31 253.12 L 316.41 269.53 L 264.84 262.50 L 210.94 222.66 L 180.47 164.06 L 175.78 89.06 L 201.56 39.84" stroke="black" fill="transparent"/>
	<path d = "M 255.47 67.97 L 255.47 63.28" stroke="black" fill="transparent"/>
	<path d = "M 351.56 63.28 L 351.56 56.25" stroke="black" fill="transparent"/>
	<path d = "M 302.34 105.47 L 302.34 133.59" stroke="black" fill="transparent"/>
	<path d = "M 276.56 154.69 L 276.56 180.47 L 290.62 199.22 L 316.41 196.88 L 349.22 168.75" stroke="black" fill="transparent"/>
	<path d = "M 274.22 290.62 L 234.38 314.06 L 213.28 337.50 L 201.56 372.66 L 203.91 450.00 L 227.34 522.66 L 248.44 560.16 L 278.91 588.28 L 300.00 595.31 L 328.12 595.31 L 346.88 588.28 L 370.31 560.16 L 386.72 515.62 L 386.72 302.34 L 379.69 267.19" stroke="black" fill="transparent"/>
	<path d = "M 246.09 330.47 L 264.84 297.66 L 321.09 262.50" stroke="black" fill="transparent"/>
	<path d = "M 208.59 410.16 L 157.03 440.62 L 133.59 440.62 L 96.09 431.25 L 75.00 407.81 L 51.56 367.97 L 46.88 335.16 L 65.62 229.69 L 46.88 229.69 L 28.12 253.12 L 7.03 309.38 L 0.00 370.31 L 9.38 442.97 L 58.59 492.19 L 84.38 508.59 L 110.16 515.62 L 171.09 515.62 L 206.25 501.56" stroke="black" fill="transparent"/>
</svg>