<?xml version="1.0" encoding="UTF-8" standalone="no"?>
<!--Created with ndjsontosvg (https:https://github.com/thompson318/ndjsontosvg) 
	from the simplified Google quickdraw data set. key_id = 6546397283221504-->
<svg width="600" height="600"
	xmlns="http://www.w3.org/2000/svg">
	xmlns:ndjsontosvg="https://github.com/thompson318/ndjsontosvg"
	xmlns:quickdraw="https://quickdraw.withgoogle.com/data"
	xmlns:scikit-surgery="https://doi.org/10.1007/s11548-020-02180-5">

	<rect width="100%" height="100%" fill="white" />
	<path d = "M 325.78 79.69 L 307.03 56.25 L 269.53 39.84 L 210.94 39.84 L 178.12 58.59 L 145.31 103.12 L 135.94 142.97 L 140.62 166.41 L 175.78 199.22 L 255.47 234.38 L 407.81 255.47 L 435.94 236.72 L 454.69 199.22 L 457.03 152.34 L 438.28 103.12 L 414.84 79.69 L 290.62 16.41 L 227.34 0.00 L 225.00 7.03" stroke="black" fill="transparent"/>
	<path d = "M 297.66 84.38 L 255.47 75.00 L 210.94 75.00 L 201.56 79.69 L 187.50 117.19 L 199.22 157.03 L 220.31 178.12 L 262.50 201.56 L 386.72 225.00 L 428.91 203.91 L 442.97 175.78 L 442.97 152.34 L 414.84 100.78 L 377.34 77.34 L 307.03 60.94 L 264.84 65.62 L 236.72 84.38" stroke="black" fill="transparent"/>
	<path d = "M 225.00 121.88 L 246.09 117.19" stroke="black" fill="transparent"/>
	<path d = "M 255.47 114.84 L 255.47 117.19" stroke="black" fill="transparent"/>
	<path d = "M 255.47 112.50 L 267.19 114.84" stroke="black" fill="transparent"/>
	<path d = "M 269.53 110.16 L 250.78 119.53 L 262.50 114.84" stroke="black" fill="transparent"/>
	<path d = "M 335.16 114.84 L 344.53 124.22 L 351.56 119.53" stroke="black" fill="transparent"/>
	<path d = "M 351.56 112.50 L 356.25 110.16" stroke="black" fill="transparent"/>
	<path d = "M 351.56 107.81 L 346.88 117.19" stroke="black" fill="transparent"/>
	<path d = "M 271.88 152.34 L 278.91 164.06 L 360.94 166.41 L 370.31 154.69 L 372.66 133.59" stroke="black" fill="transparent"/>
	<path d = "M 276.56 234.38 L 281.25 389.06 L 260.16 421.88 L 264.84 433.59" stroke="black" fill="transparent"/>
	<path d = "M 389.06 250.78 L 391.41 417.19" stroke="black" fill="transparent"/>
	<path d = "M 389.06 311.72 L 412.50 311.72 L 454.69 295.31 L 480.47 271.88 L 492.19 236.72" stroke="black" fill="transparent"/>
	<path d = "M 271.88 292.97 L 178.12 189.84" stroke="black" fill="transparent"/>
	<path d = "M 276.56 370.31 L 236.72 358.59 L 201.56 339.84 L 107.81 257.81 L 91.41 253.12 L 84.38 210.94 L 53.91 168.75 L 79.69 86.72 L 56.25 63.28 L 44.53 58.59 L 25.78 77.34 L 0.00 150.00 L 63.28 262.50 L 131.25 337.50 L 178.12 375.00 L 267.19 375.00 L 318.75 393.75 L 318.75 403.12" stroke="black" fill="transparent"/>
	<path d = "M 264.84 393.75 L 246.09 438.28 L 208.59 473.44 L 213.28 487.50 L 260.16 513.28 L 304.69 522.66 L 309.38 510.94 L 288.28 478.12 L 321.09 440.62" stroke="black" fill="transparent"/>
	<path d = "M 337.50 431.25 L 332.81 435.94 L 353.91 438.28 L 356.25 515.62 L 363.28 525.00 L 384.38 510.94" stroke="black" fill="transparent"/>
	<path d = "M 506.25 227.34 L 522.66 269.53 L 543.75 285.94 L 562.50 283.59 L 597.66 243.75 L 546.09 206.25 L 527.34 166.41 L 522.66 131.25 L 494.53 152.34 L 482.81 180.47 L 485.16 217.97 L 508.59 236.72" stroke="black" fill="transparent"/>
</svg>