<?xml version="1.0" encoding="UTF-8" standalone="no"?>
<!--Created with ndjsontosvg (https:https://github.com/thompson318/ndjsontosvg) 
	from the simplified Google quickdraw data set. key_id = 5601740126683136-->
<svg width="600" height="600"
	xmlns="http://www.w3.org/2000/svg">
	xmlns:ndjsontosvg="https://github.com/thompson318/ndjsontosvg"
	xmlns:quickdraw="https://quickdraw.withgoogle.com/data"
	xmlns:scikit-surgery="https://doi.org/10.1007/s11548-020-02180-5">

	<rect width="100%" height="100%" fill="white" />
	<path d = "M 426.56 82.03 L 400.78 67.97 L 351.56 58.59 L 236.72 77.34 L 166.41 124.22 L 138.28 189.84 L 152.34 257.81 L 199.22 335.16 L 278.91 389.06 L 379.69 417.19 L 433.59 419.53 L 452.34 414.84 L 557.81 328.12 L 583.59 283.59 L 597.66 222.66 L 595.31 196.88 L 571.88 140.62 L 541.41 98.44 L 412.50 4.69 L 391.41 0.00 L 304.69 25.78 L 267.19 63.28" stroke="black" fill="transparent"/>
	<path d = "M 271.88 171.09 L 295.31 208.59 L 325.78 222.66 L 330.47 187.50 L 323.44 171.09 L 304.69 152.34 L 292.97 147.66 L 285.94 154.69" stroke="black" fill="transparent"/>
	<path d = "M 433.59 150.00 L 473.44 236.72 L 480.47 241.41 L 506.25 210.94 L 513.28 157.03 L 485.16 140.62 L 468.75 142.97" stroke="black" fill="transparent"/>
	<path d = "M 398.44 274.22 L 389.06 297.66 L 405.47 346.88 L 421.88 370.31 L 435.94 360.94 L 431.25 330.47 L 405.47 262.50" stroke="black" fill="transparent"/>
	<path d = "M 358.59 86.72 L 396.09 112.50 L 410.16 110.16 L 421.88 84.38 L 396.09 65.62 L 379.69 72.66" stroke="black" fill="transparent"/>
	<path d = "M 241.41 234.38 L 255.47 297.66 L 262.50 302.34 L 267.19 295.31 L 271.88 264.84 L 253.12 246.09" stroke="black" fill="transparent"/>
	<path d = "M 0.00 42.19 L 18.75 77.34 L 28.12 65.62 L 39.84 72.66" stroke="black" fill="transparent"/>
</svg>