<?xml version="1.0" encoding="UTF-8" standalone="no"?>
<!--Created with ndjsontosvg (https:https://github.com/thompson318/ndjsontosvg) 
	from the simplified Google quickdraw data set. key_id = 5284541629464576-->
<svg width="600" height="600"
	xmlns="http://www.w3.org/2000/svg">
	xmlns:ndjsontosvg="https://github.com/thompson318/ndjsontosvg"
	xmlns:quickdraw="https://quickdraw.withgoogle.com/data"
	xmlns:scikit-surgery="https://doi.org/10.1007/s11548-020-02180-5">

	<rect width="100%" height="100%" fill="white" />
	<path d = "M 86.72 393.75 L 79.69 421.88 L 30.47 471.09 L 0.00 536.72" stroke="black" fill="transparent"/>
	<path d = "M 82.03 391.41 L 100.78 325.78 L 171.09 229.69 L 248.44 225.00 L 292.97 241.41 L 304.69 253.12 L 321.09 314.06 L 321.09 372.66 L 307.03 398.44 L 278.91 417.19 L 220.31 438.28 L 128.91 440.62 L 107.81 433.59" stroke="black" fill="transparent"/>
	<path d = "M 295.31 246.09 L 297.66 232.03" stroke="black" fill="transparent"/>
	<path d = "M 300.00 232.03 L 398.44 206.25 L 525.00 201.56 L 576.56 246.09 L 597.66 307.03 L 592.97 353.91 L 553.12 382.03 L 450.00 398.44 L 321.09 400.78" stroke="black" fill="transparent"/>
	<path d = "M 323.44 234.38 L 325.78 206.25 L 426.56 56.25 L 450.00 32.81 L 513.28 32.81 L 536.72 53.91 L 550.78 82.03 L 557.81 112.50 L 555.47 152.34 L 506.25 192.19" stroke="black" fill="transparent"/>
	<path d = "M 309.38 208.59 L 295.31 192.19 L 295.31 105.47 L 316.41 35.16 L 330.47 16.41 L 356.25 2.34 L 410.16 0.00 L 414.84 42.19" stroke="black" fill="transparent"/>
</svg>