<?xml version="1.0" encoding="UTF-8" standalone="no"?>
<!--Created with ndjsontosvg (https:https://github.com/thompson318/ndjsontosvg) 
	from the simplified Google quickdraw data set. key_id = 6368296364408832-->
<svg width="600" height="600"
	xmlns="http://www.w3.org/2000/svg">
	xmlns:ndjsontosvg="https://github.com/thompson318/ndjsontosvg"
	xmlns:quickdraw="https://quickdraw.withgoogle.com/data"
	xmlns:scikit-surgery="https://doi.org/10.1007/s11548-020-02180-5">

	<rect width="100%" height="100%" fill="white" />
	<path d = "M 44.53 353.91 L 35.16 342.19 L 51.56 337.50 L 210.94 358.59 L 440.62 353.91" stroke="black" fill="transparent"/>
	<path d = "M 124.22 351.56 L 72.66 417.19 L 60.94 480.47 L 105.47 522.66" stroke="black" fill="transparent"/>
	<path d = "M 274.22 365.62 L 276.56 480.47 L 318.75 513.28" stroke="black" fill="transparent"/>
	<path d = "M 135.94 316.41 L 138.28 288.28 L 161.72 262.50 L 241.41 276.56" stroke="black" fill="transparent"/>
	<path d = "M 295.31 335.16 L 295.31 318.75 L 358.59 241.41 L 426.56 297.66" stroke="black" fill="transparent"/>
	<path d = "M 135.94 318.75 L 135.94 225.00 L 157.03 199.22 L 185.16 72.66 L 210.94 28.12 L 243.75 0.00 L 264.84 0.00 L 281.25 42.19 L 281.25 103.12 L 276.56 124.22 L 234.38 182.81 L 138.28 283.59 L 98.44 314.06 L 79.69 344.53" stroke="black" fill="transparent"/>
	<path d = "M 133.59 325.78 L 119.53 346.88 L 37.50 428.91 L 14.06 466.41 L 0.00 510.94 L 0.00 569.53 L 7.03 590.62 L 16.41 597.66 L 39.84 597.66 L 51.56 590.62 L 135.94 360.94" stroke="black" fill="transparent"/>
</svg>