<?xml version="1.0" encoding="UTF-8" standalone="no"?>
<!--Created with ndjsontosvg (https:https://github.com/thompson318/ndjsontosvg) 
	from the simplified Google quickdraw data set. key_id = 4959291301691392-->
<svg width="600" height="600"
	xmlns="http://www.w3.org/2000/svg">
	xmlns:ndjsontosvg="https://github.com/thompson318/ndjsontosvg"
	xmlns:quickdraw="https://quickdraw.withgoogle.com/data"
	xmlns:scikit-surgery="https://doi.org/10.1007/s11548-020-02180-5">

	<rect width="100%" height="100%" fill="white" />
	<path d = "M 84.38 208.59 L 56.25 250.78 L 42.19 304.69 L 42.19 328.12 L 49.22 342.19 L 72.66 353.91 L 138.28 349.22 L 173.44 339.84 L 222.66 307.03 L 227.34 276.56 L 152.34 225.00" stroke="black" fill="transparent"/>
	<path d = "M 215.62 290.62 L 217.97 271.88 L 255.47 227.34 L 314.06 196.88 L 349.22 185.16 L 367.97 248.44 L 356.25 285.94 L 346.88 300.00 L 311.72 318.75 L 276.56 328.12" stroke="black" fill="transparent"/>
	<path d = "M 389.06 281.25 L 543.75 360.94 L 597.66 377.34" stroke="black" fill="transparent"/>
	<path d = "M 77.34 229.69 L 44.53 201.56 L 0.00 142.97 L 4.69 96.09 L 25.78 44.53 L 77.34 9.38 L 105.47 14.06 L 140.62 35.16 L 171.09 100.78 L 164.06 175.78 L 173.44 133.59 L 210.94 49.22 L 239.06 21.09 L 276.56 0.00 L 292.97 7.03 L 292.97 65.62 L 264.84 157.03 L 227.34 239.06" stroke="black" fill="transparent"/>
	<path d = "M 353.91 339.84 L 255.47 332.81" stroke="black" fill="transparent"/>
</svg>