<?xml version="1.0" encoding="UTF-8" standalone="no"?>
<!--Created with ndjsontosvg (https:https://github.com/thompson318/ndjsontosvg) 
	from the simplified Google quickdraw data set. key_id = 5115880277016576-->
<svg width="600" height="600"
	xmlns="http://www.w3.org/2000/svg">
	xmlns:ndjsontosvg="https://github.com/thompson318/ndjsontosvg"
	xmlns:quickdraw="https://quickdraw.withgoogle.com/data"
	xmlns:scikit-surgery="https://doi.org/10.1007/s11548-020-02180-5">

	<rect width="100%" height="100%" fill="white" />
	<path d = "M 187.50 241.41 L 91.41 53.91 L 53.91 18.75 L 39.84 18.75 L 25.78 37.50 L 0.00 112.50 L 7.03 154.69 L 28.12 192.19 L 63.28 227.34 L 133.59 274.22 L 222.66 318.75 L 246.09 323.44" stroke="black" fill="transparent"/>
	<path d = "M 187.50 246.09 L 196.88 117.19 L 210.94 67.97 L 250.78 9.38 L 269.53 0.00 L 292.97 142.97 L 288.28 182.81 L 246.09 288.28 L 250.78 318.75" stroke="black" fill="transparent"/>
	<path d = "M 239.06 300.00 L 229.69 260.16 L 210.94 246.09 L 199.22 243.75 L 182.81 255.47 L 185.16 278.91 L 208.59 304.69 L 232.03 295.31 L 217.97 239.06 L 201.56 225.00 L 189.84 255.47 L 208.59 316.41 L 234.38 309.38 L 248.44 288.28 L 225.00 267.19 L 203.91 264.84 L 194.53 288.28 L 220.31 328.12 L 246.09 328.12 L 260.16 307.03 L 255.47 267.19 L 208.59 246.09 L 189.84 248.44 L 180.47 257.81 L 180.47 297.66 L 220.31 300.00 L 241.41 285.94 L 227.34 260.16 L 194.53 239.06 L 185.16 262.50 L 187.50 288.28 L 201.56 300.00 L 222.66 297.66 L 229.69 290.62 L 220.31 262.50 L 194.53 241.41 L 178.12 274.22 L 187.50 297.66 L 217.97 304.69 L 232.03 288.28 L 222.66 274.22 L 210.94 274.22 L 210.94 330.47 L 225.00 314.06 L 234.38 271.88 L 227.34 250.78 L 220.31 257.81 L 227.34 271.88 L 253.12 297.66 L 257.81 290.62 L 225.00 243.75 L 192.19 220.31 L 187.50 250.78 L 208.59 281.25 L 222.66 285.94 L 229.69 278.91 L 234.38 250.78 L 220.31 222.66 L 206.25 215.62 L 201.56 220.31 L 196.88 264.84 L 210.94 297.66 L 234.38 300.00 L 267.19 257.81 L 267.19 253.12 L 262.50 255.47 L 262.50 260.16 L 271.88 257.81 L 267.19 250.78 L 262.50 255.47 L 271.88 262.50 L 278.91 253.12 L 271.88 250.78 L 264.84 257.81 L 274.22 271.88 L 285.94 255.47 L 276.56 248.44 L 264.84 255.47 L 264.84 274.22 L 278.91 276.56 L 285.94 264.84 L 271.88 260.16 L 264.84 269.53 L 269.53 276.56 L 292.97 276.56 L 302.34 267.19 L 283.59 264.84 L 271.88 276.56 L 271.88 288.28 L 297.66 271.88 L 278.91 255.47 L 269.53 285.94 L 276.56 292.97 L 285.94 285.94 L 274.22 274.22 L 267.19 283.59 L 288.28 271.88 L 290.62 267.19 L 283.59 262.50 L 283.59 271.88" stroke="black" fill="transparent"/>
	<path d = "M 304.69 271.88 L 384.38 332.81 L 419.53 382.03 L 471.09 435.94" stroke="black" fill="transparent"/>
	<path d = "M 597.66 375.00 L 510.94 435.94" stroke="black" fill="transparent"/>
</svg>