<?xml version="1.0" encoding="UTF-8" standalone="no"?>
<!--Created with ndjsontosvg (https:https://github.com/thompson318/ndjsontosvg) 
	from the simplified Google quickdraw data set. key_id = 5666146516729856-->
<svg width="600" height="600"
	xmlns="http://www.w3.org/2000/svg">
	xmlns:ndjsontosvg="https://github.com/thompson318/ndjsontosvg"
	xmlns:quickdraw="https://quickdraw.withgoogle.com/data"
	xmlns:scikit-surgery="https://doi.org/10.1007/s11548-020-02180-5">

	<rect width="100%" height="100%" fill="white" />
	<path d = "M 56.25 379.69 L 4.69 318.75 L 0.00 196.88 L 11.72 171.09 L 46.88 135.94 L 75.00 124.22 L 114.84 124.22 L 171.09 192.19 L 178.12 225.00 L 98.44 328.12 L 23.44 346.88" stroke="black" fill="transparent"/>
	<path d = "M 510.94 377.34 L 578.91 344.53 L 595.31 318.75 L 597.66 281.25 L 592.97 236.72 L 564.84 201.56 L 510.94 159.38 L 464.06 161.72 L 417.19 203.91 L 410.16 222.66 L 410.16 276.56 L 428.91 330.47 L 468.75 384.38 L 510.94 405.47 L 548.44 407.81 L 557.81 403.12" stroke="black" fill="transparent"/>
	<path d = "M 391.41 290.62 L 297.66 290.62 L 227.34 274.22 L 72.66 250.78" stroke="black" fill="transparent"/>
	<path d = "M 23.44 105.47 L 51.56 46.88 L 75.00 23.44 L 121.88 25.78 L 159.38 77.34 L 199.22 84.38 L 253.12 65.62 L 365.62 2.34 L 379.69 2.34 L 428.91 30.47 L 485.16 96.09 L 499.22 154.69 L 499.22 206.25" stroke="black" fill="transparent"/>
</svg>