<?xml version="1.0" encoding="UTF-8" standalone="no"?>
<!--Created with ndjsontosvg (https:https://github.com/thompson318/ndjsontosvg) 
	from the simplified Google quickdraw data set. key_id = 6214121664020480-->
<svg width="600" height="600"
	xmlns="http://www.w3.org/2000/svg">
	xmlns:ndjsontosvg="https://github.com/thompson318/ndjsontosvg"
	xmlns:quickdraw="https://quickdraw.withgoogle.com/data"
	xmlns:scikit-surgery="https://doi.org/10.1007/s11548-020-02180-5">

	<rect width="100%" height="100%" fill="white" />
	<path d = "M 9.38 248.44 L 44.53 264.84 L 75.00 260.16 L 178.12 208.59 L 196.88 196.88 L 208.59 175.78 L 206.25 128.91 L 189.84 100.78 L 147.66 58.59 L 121.88 46.88 L 67.97 39.84 L 44.53 60.94 L 2.34 119.53 L 0.00 196.88 L 32.81 250.78 L 65.62 255.47 L 82.03 243.75" stroke="black" fill="transparent"/>
	<path d = "M 67.97 199.22 L 98.44 199.22 L 114.84 180.47 L 114.84 135.94 L 100.78 105.47 L 70.31 105.47 L 51.56 121.88 L 39.84 142.97 L 44.53 171.09 L 60.94 203.91 L 79.69 217.97 L 96.09 213.28" stroke="black" fill="transparent"/>
	<path d = "M 499.22 194.53 L 503.91 203.91 L 527.34 206.25 L 571.88 192.19 L 592.97 173.44 L 597.66 142.97 L 574.22 91.41 L 525.00 51.56 L 492.19 60.94 L 454.69 103.12 L 447.66 142.97 L 454.69 173.44 L 475.78 196.88 L 499.22 203.91 L 536.72 180.47 L 539.06 168.75" stroke="black" fill="transparent"/>
	<path d = "M 496.88 145.31 L 515.62 152.34 L 536.72 142.97 L 543.75 121.88 L 534.38 112.50 L 501.56 110.16 L 496.88 147.66 L 506.25 152.34" stroke="black" fill="transparent"/>
	<path d = "M 168.75 82.03 L 217.97 37.50 L 321.09 0.00 L 370.31 21.09 L 445.31 70.31 L 471.09 77.34" stroke="black" fill="transparent"/>
	<path d = "M 496.88 53.91 L 492.19 32.81" stroke="black" fill="transparent"/>
</svg>