<?xml version="1.0" encoding="UTF-8" standalone="no"?>
<!--Created with ndjsontosvg (https:https://github.com/thompson318/ndjsontosvg) 
	from the simplified Google quickdraw data set. key_id = 5662486734831616-->
<svg width="600" height="600"
	xmlns="http://www.w3.org/2000/svg">
	xmlns:ndjsontosvg="https://github.com/thompson318/ndjsontosvg"
	xmlns:quickdraw="https://quickdraw.withgoogle.com/data"
	xmlns:scikit-surgery="https://doi.org/10.1007/s11548-020-02180-5">

	<rect width="100%" height="100%" fill="white" />
	<path d = "M 37.50 86.72 L 75.00 53.91 L 199.22 0.00 L 164.06 63.28 L 164.06 79.69 L 175.78 89.06 L 356.25 93.75 L 389.06 84.38 L 445.31 51.56 L 489.84 44.53 L 539.06 51.56 L 571.88 65.62 L 597.66 103.12 L 475.78 98.44 L 426.56 105.47 L 384.38 131.25 L 353.91 140.62 L 271.88 152.34 L 239.06 150.00 L 142.97 119.53 L 0.00 112.50 L 82.03 65.62" stroke="black" fill="transparent"/>
	<path d = "M 91.41 124.22 L 44.53 152.34 L 30.47 168.75 L 23.44 196.88 L 30.47 210.94 L 86.72 246.09 L 121.88 250.78 L 171.09 229.69 L 203.91 192.19 L 210.94 152.34 L 173.44 140.62 L 96.09 138.28" stroke="black" fill="transparent"/>
	<path d = "M 513.28 105.47 L 450.00 117.19 L 407.81 145.31 L 393.75 168.75 L 396.09 203.91 L 419.53 241.41 L 464.06 260.16 L 508.59 255.47 L 555.47 234.38 L 592.97 189.84 L 578.91 147.66 L 560.16 124.22 L 508.59 128.91" stroke="black" fill="transparent"/>
</svg>