<?xml version="1.0" encoding="UTF-8" standalone="no"?>
<!--Created with ndjsontosvg (https:https://github.com/thompson318/ndjsontosvg) 
	from the simplified Google quickdraw data set. key_id = 5987660050989056-->
<svg width="600" height="600"
	xmlns="http://www.w3.org/2000/svg">
	xmlns:ndjsontosvg="https://github.com/thompson318/ndjsontosvg"
	xmlns:quickdraw="https://quickdraw.withgoogle.com/data"
	xmlns:scikit-surgery="https://doi.org/10.1007/s11548-020-02180-5">

	<rect width="100%" height="100%" fill="white" />
	<path d = "M 58.59 107.81 L 14.06 135.94" stroke="black" fill="transparent"/>
	<path d = "M 9.38 145.31 L 0.00 192.19 L 4.69 203.91 L 23.44 215.62 L 142.97 229.69 L 180.47 229.69 L 199.22 220.31 L 213.28 196.88 L 217.97 164.06 L 180.47 117.19 L 145.31 103.12 L 89.06 103.12 L 44.53 112.50" stroke="black" fill="transparent"/>
	<path d = "M 475.78 105.47 L 452.34 128.91" stroke="black" fill="transparent"/>
	<path d = "M 435.94 145.31 L 410.16 178.12 L 414.84 194.53 L 433.59 213.28 L 478.12 227.34 L 525.00 227.34 L 564.84 213.28 L 595.31 182.81 L 597.66 152.34 L 583.59 131.25 L 525.00 98.44 L 473.44 119.53" stroke="black" fill="transparent"/>
	<path d = "M 487.50 107.81 L 471.09 0.00 L 370.31 23.44 L 433.59 23.44 L 550.78 2.34" stroke="black" fill="transparent"/>
	<path d = "M 471.09 121.88 L 400.78 135.94" stroke="black" fill="transparent"/>
	<path d = "M 267.19 161.72 L 203.91 157.03 L 199.22 82.03 L 215.62 58.59 L 227.34 53.91 L 318.75 70.31 L 473.44 119.53 L 485.16 126.56 L 475.78 131.25 L 363.28 135.94 L 285.94 152.34 L 210.94 147.66 L 206.25 138.28" stroke="black" fill="transparent"/>
</svg>