<?xml version="1.0" encoding="UTF-8" standalone="no"?>
<!--Created with ndjsontosvg (https:https://github.com/thompson318/ndjsontosvg) 
	from the simplified Google quickdraw data set. key_id = 4822051795763200-->
<svg width="600" height="600"
	xmlns="http://www.w3.org/2000/svg">
	xmlns:ndjsontosvg="https://github.com/thompson318/ndjsontosvg"
	xmlns:quickdraw="https://quickdraw.withgoogle.com/data"
	xmlns:scikit-surgery="https://doi.org/10.1007/s11548-020-02180-5">

	<rect width="100%" height="100%" fill="white" />
	<path d = "M 58.59 203.91 L 44.53 161.72 L 49.22 117.19 L 79.69 86.72 L 110.16 65.62 L 133.59 60.94 L 154.69 65.62 L 189.84 77.34 L 222.66 103.12 L 241.41 138.28 L 250.78 180.47 L 222.66 185.16 L 189.84 173.44 L 164.06 124.22 L 142.97 110.16 L 121.88 119.53 L 110.16 138.28 L 114.84 194.53 L 96.09 208.59 L 75.00 208.59 L 126.56 187.50 L 281.25 159.38 L 344.53 133.59 L 384.38 128.91 L 428.91 138.28 L 501.56 168.75 L 534.38 201.56 L 567.19 253.12 L 583.59 309.38 L 583.59 332.81 L 569.53 403.12 L 543.75 447.66 L 499.22 492.19 L 435.94 529.69 L 384.38 543.75 L 288.28 541.41 L 157.03 503.91 L 96.09 475.78 L 65.62 445.31 L 7.03 330.47 L 0.00 288.28 L 7.03 262.50 L 46.88 171.09 L 58.59 164.06" stroke="black" fill="transparent"/>
	<path d = "M 407.81 126.56 L 398.44 63.28 L 410.16 37.50 L 438.28 14.06 L 464.06 2.34 L 510.94 4.69 L 571.88 56.25 L 590.62 91.41 L 595.31 147.66 L 567.19 210.94" stroke="black" fill="transparent"/>
	<path d = "M 464.06 147.66 L 475.78 114.84 L 515.62 82.03 L 536.72 72.66 L 550.78 89.06 L 557.81 124.22 L 539.06 178.12" stroke="black" fill="transparent"/>
</svg>