<?xml version="1.0" encoding="UTF-8" standalone="no"?>
<!--Created with ndjsontosvg (https:https://github.com/thompson318/ndjsontosvg) 
	from the simplified Google quickdraw data set. key_id = 6542889314156544-->
<svg width="600" height="600"
	xmlns="http://www.w3.org/2000/svg">
	xmlns:ndjsontosvg="https://github.com/thompson318/ndjsontosvg"
	xmlns:quickdraw="https://quickdraw.withgoogle.com/data"
	xmlns:scikit-surgery="https://doi.org/10.1007/s11548-020-02180-5">

	<rect width="100%" height="100%" fill="white" />
	<path d = "M 14.06 138.28 L 14.06 112.50 L 44.53 70.31 L 79.69 39.84 L 110.16 25.78 L 157.03 25.78 L 297.66 75.00 L 323.44 79.69 L 384.38 56.25 L 468.75 4.69 L 485.16 0.00 L 517.97 14.06 L 555.47 49.22 L 592.97 117.19 L 595.31 142.97 L 578.91 154.69 L 539.06 152.34 L 482.81 117.19 L 461.72 110.16 L 447.66 126.56 L 417.19 182.81 L 389.06 194.53 L 351.56 199.22 L 300.00 187.50 L 175.78 138.28 L 124.22 135.94 L 93.75 147.66 L 44.53 199.22 L 18.75 203.91 L 2.34 192.19 L 4.69 147.66 L 16.41 119.53 L 35.16 110.16" stroke="black" fill="transparent"/>
</svg>