<?xml version="1.0" encoding="UTF-8" standalone="no"?>
<!--Created with ndjsontosvg (https:https://github.com/thompson318/ndjsontosvg) 
	from the simplified Google quickdraw data set. key_id = 6312802111193088-->
<svg width="600" height="600"
	xmlns="http://www.w3.org/2000/svg">
	xmlns:ndjsontosvg="https://github.com/thompson318/ndjsontosvg"
	xmlns:quickdraw="https://quickdraw.withgoogle.com/data"
	xmlns:scikit-surgery="https://doi.org/10.1007/s11548-020-02180-5">

	<rect width="100%" height="100%" fill="white" />
	<path d = "M 77.34 11.72 L 194.53 0.00 L 267.19 11.72 L 314.06 37.50 L 325.78 63.28 L 304.69 70.31 L 290.62 60.94 L 285.94 77.34 L 262.50 96.09 L 232.03 96.09 L 210.94 82.03 L 206.25 107.81 L 189.84 114.84 L 168.75 114.84 L 150.00 100.78 L 93.75 145.31 L 70.31 138.28 L 63.28 112.50 L 42.19 128.91 L 14.06 133.59 L 2.34 105.47 L 2.34 79.69 L 30.47 56.25 L 70.31 4.69 L 79.69 4.69" stroke="black" fill="transparent"/>
	<path d = "M 461.72 16.41 L 438.28 51.56 L 405.47 77.34 L 344.53 84.38 L 386.72 93.75 L 426.56 82.03 L 452.34 51.56 L 461.72 18.75 L 485.16 67.97 L 534.38 93.75 L 595.31 110.16 L 592.97 96.09 L 468.75 28.12 L 452.34 9.38" stroke="black" fill="transparent"/>
</svg>