<?xml version="1.0" encoding="UTF-8" standalone="no"?>
<!--Created with ndjsontosvg (https:https://github.com/thompson318/ndjsontosvg) 
	from the simplified Google quickdraw data set. key_id = 6509725086646272-->
<svg width="600" height="600"
	xmlns="http://www.w3.org/2000/svg">
	xmlns:ndjsontosvg="https://github.com/thompson318/ndjsontosvg"
	xmlns:quickdraw="https://quickdraw.withgoogle.com/data"
	xmlns:scikit-surgery="https://doi.org/10.1007/s11548-020-02180-5">

	<rect width="100%" height="100%" fill="white" />
	<path d = "M 0.00 0.00 L 2.34 44.53 L 37.50 138.28 L 72.66 187.50 L 121.88 215.62" stroke="black" fill="transparent"/>
	<path d = "M 107.81 192.19 L 105.47 159.38 L 133.59 110.16 L 192.19 39.84 L 234.38 21.09 L 365.62 21.09 L 431.25 30.47 L 517.97 70.31 L 548.44 107.81 L 555.47 131.25 L 562.50 187.50 L 480.47 243.75 L 377.34 255.47 L 253.12 255.47 L 150.00 239.06 L 119.53 222.66 L 117.19 208.59" stroke="black" fill="transparent"/>
	<path d = "M 133.59 229.69 L 117.19 297.66" stroke="black" fill="transparent"/>
	<path d = "M 199.22 243.75 L 206.25 311.72" stroke="black" fill="transparent"/>
	<path d = "M 508.59 232.03 L 541.41 283.59" stroke="black" fill="transparent"/>
	<path d = "M 560.16 196.88 L 560.16 196.88" stroke="black" fill="transparent"/>
	<path d = "M 560.16 208.59 L 597.66 253.12" stroke="black" fill="transparent"/>
</svg>