<?xml version="1.0" encoding="UTF-8" standalone="no"?>
<!--Created with ndjsontosvg (https:https://github.com/thompson318/ndjsontosvg) 
	from the simplified Google quickdraw data set. key_id = 5356038670778368-->
<svg width="600" height="600"
	xmlns="http://www.w3.org/2000/svg">
	xmlns:ndjsontosvg="https://github.com/thompson318/ndjsontosvg"
	xmlns:quickdraw="https://quickdraw.withgoogle.com/data"
	xmlns:scikit-surgery="https://doi.org/10.1007/s11548-020-02180-5">

	<rect width="100%" height="100%" fill="white" />
	<path d = "M 323.44 58.59 L 304.69 28.12 L 278.91 9.38 L 257.81 2.34 L 220.31 2.34 L 157.03 32.81 L 105.47 110.16 L 77.34 135.94 L 49.22 147.66 L 0.00 140.62 L 28.12 171.09 L 53.91 187.50 L 103.12 201.56 L 161.72 201.56 L 208.59 187.50 L 253.12 164.06 L 292.97 121.88 L 307.03 98.44" stroke="black" fill="transparent"/>
	<path d = "M 325.78 53.91 L 377.34 21.09 L 433.59 18.75 L 459.38 35.16 L 496.88 100.78 L 525.00 128.91 L 597.66 140.62 L 510.94 180.47 L 452.34 189.84 L 405.47 185.16 L 360.94 175.78 L 335.16 159.38 L 309.38 124.22 L 304.69 98.44" stroke="black" fill="transparent"/>
</svg>