<?xml version="1.0" encoding="UTF-8" standalone="no"?>
<!--Created with ndjsontosvg (https:https://github.com/thompson318/ndjsontosvg) 
	from the simplified Google quickdraw data set. key_id = 5573648641425408-->
<svg width="600" height="600"
	xmlns="http://www.w3.org/2000/svg">
	xmlns:ndjsontosvg="https://github.com/thompson318/ndjsontosvg"
	xmlns:quickdraw="https://quickdraw.withgoogle.com/data"
	xmlns:scikit-surgery="https://doi.org/10.1007/s11548-020-02180-5">

	<rect width="100%" height="100%" fill="white" />
	<path d = "M 159.38 321.09 L 213.28 330.47 L 243.75 325.78 L 292.97 307.03 L 311.72 281.25 L 307.03 250.78 L 213.28 82.03 L 206.25 21.09 L 217.97 0.00" stroke="black" fill="transparent"/>
	<path d = "M 210.94 370.31 L 210.94 370.31" stroke="black" fill="transparent"/>
	<path d = "M 189.84 323.44 L 161.72 365.62 L 49.22 464.06 L 56.25 468.75 L 82.03 464.06 L 114.84 440.62 L 159.38 393.75 L 194.53 335.16 L 140.62 393.75 L 117.19 433.59 L 112.50 445.31 L 119.53 440.62 L 234.38 314.06 L 220.31 314.06 L 140.62 377.34 L 77.34 442.97 L 217.97 328.12 L 67.97 447.66 L 91.41 438.28 L 215.62 339.84 L 157.03 393.75 L 110.16 426.56 L 126.56 403.12 L 225.00 323.44 L 262.50 382.03 L 288.28 405.47 L 321.09 417.19 L 379.69 407.81 L 382.03 400.78 L 292.97 330.47 L 314.06 372.66 L 337.50 400.78 L 316.41 377.34 L 269.53 351.56 L 262.50 349.22 L 264.84 358.59 L 292.97 389.06 L 316.41 398.44 L 325.78 393.75 L 297.66 339.84 L 278.91 325.78 L 278.91 337.50 L 318.75 384.38 L 278.91 337.50 L 250.78 318.75 L 229.69 316.41 L 278.91 375.00 L 314.06 396.09 L 285.94 358.59 L 262.50 330.47 L 246.09 321.09 L 246.09 325.78 L 264.84 363.28 L 297.66 400.78 L 307.03 405.47 L 307.03 398.44 L 290.62 363.28 L 253.12 323.44 L 283.59 372.66 L 304.69 389.06 L 304.69 382.03 L 283.59 346.88 L 267.19 335.16 L 260.16 332.81 L 257.81 339.84 L 274.22 367.97 L 292.97 379.69 L 307.03 379.69 L 307.03 372.66 L 271.88 344.53 L 257.81 344.53 L 248.44 358.59 L 248.44 382.03 L 260.16 405.47 L 276.56 412.50 L 278.91 398.44 L 269.53 372.66 L 255.47 353.91 L 264.84 375.00 L 292.97 393.75 L 274.22 358.59 L 260.16 349.22 L 285.94 391.41 L 297.66 398.44 L 292.97 389.06 L 271.88 370.31 L 295.31 398.44 L 321.09 400.78 L 316.41 365.62 L 297.66 346.88 L 292.97 351.56 L 295.31 377.34 L 321.09 412.50 L 295.31 382.03 L 271.88 370.31 L 257.81 372.66 L 264.84 389.06 L 309.38 417.19 L 328.12 414.84 L 323.44 407.81 L 297.66 382.03 L 278.91 377.34 L 309.38 400.78 L 353.91 410.16 L 325.78 389.06 L 290.62 382.03 L 321.09 400.78 L 353.91 405.47 L 325.78 375.00 L 285.94 367.97 L 318.75 391.41 L 358.59 398.44 L 349.22 384.38 L 316.41 370.31 L 339.84 386.72 L 372.66 393.75 L 365.62 386.72 L 302.34 356.25 L 353.91 396.09 L 339.84 363.28 L 314.06 337.50 L 351.56 377.34 L 358.59 379.69 L 342.19 353.91 L 325.78 349.22 L 321.09 363.28" stroke="black" fill="transparent"/>
	<path d = "M 9.38 466.41 L 0.00 464.06 L 21.09 501.56 L 75.00 567.19 L 124.22 592.97 L 180.47 597.66 L 227.34 583.59 L 269.53 555.47 L 314.06 499.22 L 325.78 464.06 L 192.19 475.78 L 30.47 447.66 L 11.72 478.12 L 28.12 494.53 L 51.56 503.91 L 140.62 515.62 L 260.16 513.28 L 178.12 501.56 L 70.31 468.75 L 70.31 454.69 L 98.44 435.94 L 103.12 438.28 L 86.72 550.78 L 91.41 560.16 L 100.78 553.12" stroke="black" fill="transparent"/>
	<path d = "M 171.09 452.34 L 173.44 564.84" stroke="black" fill="transparent"/>
	<path d = "M 215.62 452.34 L 215.62 553.12 L 222.66 557.81 L 227.34 550.78" stroke="black" fill="transparent"/>
</svg>