<?xml version="1.0" encoding="UTF-8" standalone="no"?>
<!--Created with ndjsontosvg (https:https://github.com/thompson318/ndjsontosvg) 
	from the simplified Google quickdraw data set. key_id = 5099433416982528-->
<svg width="600" height="600"
	xmlns="http://www.w3.org/2000/svg">
	xmlns:ndjsontosvg="https://github.com/thompson318/ndjsontosvg"
	xmlns:quickdraw="https://quickdraw.withgoogle.com/data"
	xmlns:scikit-surgery="https://doi.org/10.1007/s11548-020-02180-5">

	<rect width="100%" height="100%" fill="white" />
	<path d = "M 46.88 117.19 L 14.06 187.50 L 0.00 250.78 L 0.00 295.31 L 9.38 332.81 L 39.84 389.06 L 67.97 419.53 L 105.47 433.59 L 154.69 428.91 L 213.28 396.09 L 234.38 372.66 L 260.16 288.28 L 255.47 236.72 L 194.53 135.94 L 135.94 98.44 L 86.72 82.03 L 65.62 84.38 L 39.84 121.88" stroke="black" fill="transparent"/>
	<path d = "M 53.91 91.41 L 49.22 46.88 L 53.91 30.47 L 98.44 9.38 L 173.44 0.00 L 201.56 32.81 L 201.56 63.28 L 194.53 82.03 L 168.75 93.75 L 100.78 91.41" stroke="black" fill="transparent"/>
	<path d = "M 222.66 175.78 L 290.62 157.03" stroke="black" fill="transparent"/>
	<path d = "M 255.47 234.38 L 288.28 243.75" stroke="black" fill="transparent"/>
	<path d = "M 114.84 428.91 L 100.78 445.31 L 103.12 487.50 L 117.19 501.56 L 117.19 536.72 L 135.94 557.81 L 135.94 595.31 L 145.31 597.66 L 157.03 539.06 L 131.25 442.97 L 119.53 428.91" stroke="black" fill="transparent"/>
	<path d = "M 100.78 30.47 L 100.78 30.47" stroke="black" fill="transparent"/>
</svg>