<?xml version="1.0" encoding="UTF-8" standalone="no"?>
<!--Created with ndjsontosvg (https:https://github.com/thompson318/ndjsontosvg) 
	from the simplified Google quickdraw data set. key_id = 4665947803615232-->
<svg width="600" height="600"
	xmlns="http://www.w3.org/2000/svg">
	xmlns:ndjsontosvg="https://github.com/thompson318/ndjsontosvg"
	xmlns:quickdraw="https://quickdraw.withgoogle.com/data"
	xmlns:scikit-surgery="https://doi.org/10.1007/s11548-020-02180-5">

	<rect width="100%" height="100%" fill="white" />
	<path d = "M 7.03 67.97 L 314.06 2.34 L 391.41 0.00 L 499.22 39.84 L 515.62 58.59 L 536.72 67.97 L 590.62 79.69 L 529.69 93.75 L 492.19 93.75 L 426.56 72.66 L 300.00 60.94 L 121.88 93.75 L 25.78 86.72" stroke="black" fill="transparent"/>
	<path d = "M 18.75 70.31 L 9.38 79.69" stroke="black" fill="transparent"/>
	<path d = "M 0.00 110.16 L 208.59 152.34 L 349.22 152.34 L 426.56 138.28 L 520.31 138.28 L 597.66 126.56 L 541.41 164.06 L 466.41 187.50 L 398.44 196.88 L 225.00 196.88 L 152.34 187.50 L 35.16 142.97 L 11.72 124.22" stroke="black" fill="transparent"/>
</svg>