<?xml version="1.0" encoding="UTF-8" standalone="no"?>
<!--Created with ndjsontosvg (https:https://github.com/thompson318/ndjsontosvg) 
	from the simplified Google quickdraw data set. key_id = 6007989712453632-->
<svg width="600" height="600"
	xmlns="http://www.w3.org/2000/svg">
	xmlns:ndjsontosvg="https://github.com/thompson318/ndjsontosvg"
	xmlns:quickdraw="https://quickdraw.withgoogle.com/data"
	xmlns:scikit-surgery="https://doi.org/10.1007/s11548-020-02180-5">

	<rect width="100%" height="100%" fill="white" />
	<path d = "M 260.16 21.09 L 239.06 86.72 L 206.25 285.94 L 208.59 400.78 L 217.97 419.53 L 243.75 440.62 L 297.66 457.03 L 510.94 450.00 L 578.91 274.22 L 597.66 166.41 L 590.62 86.72 L 583.59 60.94 L 564.84 46.88 L 482.81 70.31 L 375.00 70.31 L 292.97 42.19 L 274.22 28.12 L 300.00 11.72 L 375.00 0.00 L 529.69 7.03 L 553.12 16.41 L 564.84 32.81 L 571.88 51.56 L 567.19 53.91" stroke="black" fill="transparent"/>
	<path d = "M 271.88 28.12 L 145.31 39.84 L 63.28 70.31 L 28.12 105.47 L 7.03 145.31 L 0.00 229.69 L 4.69 276.56 L 16.41 300.00 L 72.66 330.47 L 185.16 330.47" stroke="black" fill="transparent"/>
</svg>