<?xml version="1.0" encoding="UTF-8" standalone="no"?>
<!--Created with ndjsontosvg (https:https://github.com/thompson318/ndjsontosvg) 
	from the simplified Google quickdraw data set. key_id = 6426388145897472-->
<svg width="600" height="600"
	xmlns="http://www.w3.org/2000/svg">
	xmlns:ndjsontosvg="https://github.com/thompson318/ndjsontosvg"
	xmlns:quickdraw="https://quickdraw.withgoogle.com/data"
	xmlns:scikit-surgery="https://doi.org/10.1007/s11548-020-02180-5">

	<rect width="100%" height="100%" fill="white" />
	<path d = "M 220.31 105.47 L 232.03 271.88 L 253.12 428.91 L 281.25 457.03 L 332.81 468.75 L 405.47 468.75 L 485.16 457.03 L 590.62 428.91 L 597.66 400.78 L 569.53 257.81 L 562.50 91.41 L 541.41 70.31 L 478.12 67.97 L 400.78 75.00 L 234.38 107.81" stroke="black" fill="transparent"/>
	<path d = "M 232.03 110.16 L 225.00 110.16 L 220.31 100.78 L 220.31 70.31 L 229.69 49.22 L 253.12 32.81 L 389.06 4.69 L 466.41 0.00 L 506.25 4.69 L 548.44 25.78 L 569.53 49.22 L 578.91 79.69 L 553.12 96.09 L 454.69 107.81" stroke="black" fill="transparent"/>
	<path d = "M 227.34 128.91 L 192.19 138.28 L 35.16 203.91 L 9.38 229.69 L 0.00 274.22 L 14.06 318.75 L 32.81 346.88 L 75.00 393.75 L 124.22 426.56 L 194.53 454.69 L 264.84 450.00" stroke="black" fill="transparent"/>
</svg>