<?xml version="1.0" encoding="UTF-8" standalone="no"?>
<!--Created with ndjsontosvg (https:https://github.com/thompson318/ndjsontosvg) 
	from the simplified Google quickdraw data set. key_id = 5866336888553472-->
<svg width="600" height="600"
	xmlns="http://www.w3.org/2000/svg">
	xmlns:ndjsontosvg="https://github.com/thompson318/ndjsontosvg"
	xmlns:quickdraw="https://quickdraw.withgoogle.com/data"
	xmlns:scikit-surgery="https://doi.org/10.1007/s11548-020-02180-5">

	<rect width="100%" height="100%" fill="white" />
	<path d = "M 466.41 32.81 L 363.28 0.00 L 232.03 0.00 L 105.47 21.09 L 49.22 42.19 L 14.06 96.09 L 11.72 135.94 L 46.88 159.38 L 121.88 180.47 L 271.88 187.50 L 332.81 178.12 L 407.81 152.34 L 482.81 98.44 L 492.19 60.94 L 489.84 28.12 L 464.06 14.06" stroke="black" fill="transparent"/>
	<path d = "M 471.09 44.53 L 485.16 60.94 L 492.19 117.19 L 492.19 496.88 L 471.09 532.03 L 417.19 564.84 L 304.69 592.97 L 201.56 597.66 L 51.56 581.25 L 18.75 412.50 L 0.00 208.59 L 0.00 114.84" stroke="black" fill="transparent"/>
	<path d = "M 492.19 107.81 L 492.19 107.81" stroke="black" fill="transparent"/>
</svg>