<?xml version="1.0" encoding="UTF-8" standalone="no"?>
<!--Created with ndjsontosvg (https:https://github.com/thompson318/ndjsontosvg) 
	from the simplified Google quickdraw data set. key_id = 6719258539065344-->
<svg width="600" height="600"
	xmlns="http://www.w3.org/2000/svg">
	xmlns:ndjsontosvg="https://github.com/thompson318/ndjsontosvg"
	xmlns:quickdraw="https://quickdraw.withgoogle.com/data"
	xmlns:scikit-surgery="https://doi.org/10.1007/s11548-020-02180-5">

	<rect width="100%" height="100%" fill="white" />
	<path d = "M 39.84 23.44 L 0.00 49.22 L 0.00 318.75 L 7.03 360.94 L 39.84 442.97 L 89.06 525.00 L 110.16 543.75 L 138.28 553.12 L 217.97 557.81 L 274.22 527.34 L 285.94 496.88 L 290.62 452.34 L 302.34 201.56 L 309.38 164.06 L 353.91 56.25 L 360.94 11.72 L 325.78 0.00 L 246.09 0.00 L 70.31 16.41 L 11.72 37.50 L 18.75 51.56" stroke="black" fill="transparent"/>
	<path d = "M 325.78 166.41 L 478.12 119.53 L 553.12 119.53 L 574.22 128.91 L 597.66 182.81 L 597.66 229.69 L 529.69 285.94 L 389.06 330.47 L 349.22 356.25" stroke="black" fill="transparent"/>
	<path d = "M 438.28 309.38 L 391.41 307.03 L 309.38 342.19" stroke="black" fill="transparent"/>
</svg>