<?xml version="1.0" encoding="UTF-8" standalone="no"?>
<!--Created with ndjsontosvg (https:https://github.com/thompson318/ndjsontosvg) 
	from the simplified Google quickdraw data set. key_id = 5732670308876288-->
<svg width="600" height="600"
	xmlns="http://www.w3.org/2000/svg">
	xmlns:ndjsontosvg="https://github.com/thompson318/ndjsontosvg"
	xmlns:quickdraw="https://quickdraw.withgoogle.com/data"
	xmlns:scikit-surgery="https://doi.org/10.1007/s11548-020-02180-5">

	<rect width="100%" height="100%" fill="white" />
	<path d = "M 241.41 403.12 L 166.41 321.09 L 63.28 271.88 L 44.53 276.56 L 0.00 321.09 L 0.00 349.22 L 4.69 372.66 L 56.25 438.28 L 213.28 560.16 L 225.00 576.56 L 262.50 597.66" stroke="black" fill="transparent"/>
	<path d = "M 255.47 393.75 L 194.53 307.03 L 147.66 157.03 L 147.66 138.28 L 159.38 119.53 L 182.81 110.16 L 227.34 114.84 L 274.22 145.31 L 292.97 161.72 L 314.06 199.22 L 330.47 262.50 L 283.59 178.12 L 309.38 14.06 L 325.78 0.00 L 384.38 9.38 L 442.97 70.31 L 466.41 121.88 L 478.12 185.16" stroke="black" fill="transparent"/>
</svg>