<?xml version="1.0" encoding="UTF-8" standalone="no"?>
<!--Created with ndjsontosvg (https:https://github.com/thompson318/ndjsontosvg) 
	from the simplified Google quickdraw data set. key_id = 5185847219453952-->
<svg width="600" height="600"
	xmlns="http://www.w3.org/2000/svg">
	xmlns:ndjsontosvg="https://github.com/thompson318/ndjsontosvg"
	xmlns:quickdraw="https://quickdraw.withgoogle.com/data"
	xmlns:scikit-surgery="https://doi.org/10.1007/s11548-020-02180-5">

	<rect width="100%" height="100%" fill="white" />
	<path d = "M 377.34 597.66 L 257.81 466.41 L 208.59 426.56 L 182.81 417.19 L 32.81 215.62 L 0.00 189.84 L 84.38 124.22 L 187.50 227.34 L 344.53 457.03 L 375.00 489.84 L 407.81 513.28 L 382.03 562.50 L 363.28 581.25" stroke="black" fill="transparent"/>
	<path d = "M 367.97 468.75 L 353.91 417.19 L 292.97 285.94 L 220.31 25.78 L 220.31 14.06 L 248.44 0.00 L 304.69 0.00 L 337.50 16.41 L 370.31 51.56 L 396.09 128.91 L 414.84 295.31 L 417.19 475.78 L 403.12 503.91" stroke="black" fill="transparent"/>
	<path d = "M 208.59 30.47 L 128.91 56.25 L 124.22 65.62 L 126.56 86.72 L 147.66 96.09 L 227.34 89.06 L 201.56 112.50 L 185.16 142.97 L 199.22 152.34 L 246.09 164.06 L 239.06 175.78 L 201.56 199.22 L 185.16 232.03 L 182.81 264.84 L 196.88 276.56 L 290.62 288.28 L 269.53 335.16 L 276.56 356.25 L 314.06 370.31 L 363.28 377.34" stroke="black" fill="transparent"/>
	<path d = "M 65.62 119.53 L 157.03 119.53 L 166.41 131.25 L 159.38 140.62" stroke="black" fill="transparent"/>
</svg>