<?xml version="1.0" encoding="UTF-8" standalone="no"?>
<!--Created with ndjsontosvg (https:https://github.com/thompson318/ndjsontosvg) 
	from the simplified Google quickdraw data set. key_id = 4935429788794880-->
<svg width="600" height="600"
	xmlns="http://www.w3.org/2000/svg">
	xmlns:ndjsontosvg="https://github.com/thompson318/ndjsontosvg"
	xmlns:quickdraw="https://quickdraw.withgoogle.com/data"
	xmlns:scikit-surgery="https://doi.org/10.1007/s11548-020-02180-5">

	<rect width="100%" height="100%" fill="white" />
	<path d = "M 159.38 0.00 L 159.38 150.00 L 150.00 255.47 L 46.88 382.03 L 16.41 445.31 L 0.00 534.38" stroke="black" fill="transparent"/>
	<path d = "M 454.69 14.06 L 438.28 128.91 L 438.28 271.88 L 517.97 356.25 L 597.66 555.47" stroke="black" fill="transparent"/>
	<path d = "M 147.66 255.47 L 175.78 267.19 L 178.12 255.47 L 152.34 250.78" stroke="black" fill="transparent"/>
	<path d = "M 192.19 267.19 L 180.47 274.22 L 182.81 285.94 L 206.25 290.62 L 208.59 276.56 L 196.88 267.19" stroke="black" fill="transparent"/>
	<path d = "M 232.03 276.56 L 222.66 283.59 L 220.31 290.62 L 227.34 302.34 L 239.06 302.34 L 243.75 283.59 L 239.06 274.22" stroke="black" fill="transparent"/>
	<path d = "M 278.91 288.28 L 253.12 302.34 L 276.56 304.69 L 276.56 285.94" stroke="black" fill="transparent"/>
	<path d = "M 344.53 297.66 L 316.41 311.72 L 321.09 318.75 L 335.16 318.75 L 342.19 311.72 L 339.84 300.00" stroke="black" fill="transparent"/>
	<path d = "M 300.00 297.66 L 295.31 309.38 L 311.72 311.72 L 311.72 295.31 L 300.00 283.59" stroke="black" fill="transparent"/>
</svg>