<?xml version="1.0" encoding="UTF-8" standalone="no"?>
<!--Created with ndjsontosvg (https:https://github.com/thompson318/ndjsontosvg) 
	from the simplified Google quickdraw data set. key_id = 5690066196234240-->
<svg width="600" height="600"
	xmlns="http://www.w3.org/2000/svg">
	xmlns:ndjsontosvg="https://github.com/thompson318/ndjsontosvg"
	xmlns:quickdraw="https://quickdraw.withgoogle.com/data"
	xmlns:scikit-surgery="https://doi.org/10.1007/s11548-020-02180-5">

	<rect width="100%" height="100%" fill="white" />
	<path d = "M 225.00 4.69 L 164.06 21.09 L 96.09 58.59 L 58.59 93.75 L 23.44 133.59 L 11.72 159.38 L 0.00 257.81 L 9.38 309.38 L 42.19 358.59 L 67.97 382.03 L 131.25 414.84 L 210.94 433.59 L 295.31 426.56 L 337.50 400.78 L 372.66 356.25 L 389.06 314.06 L 400.78 154.69 L 377.34 96.09 L 337.50 56.25 L 246.09 7.03 L 189.84 2.34" stroke="black" fill="transparent"/>
	<path d = "M 110.16 391.41 L 100.78 489.84 L 119.53 581.25 L 135.94 592.97 L 173.44 597.66 L 239.06 597.66 L 257.81 585.94 L 269.53 553.12 L 288.28 389.06" stroke="black" fill="transparent"/>
</svg>