<?xml version="1.0" encoding="UTF-8" standalone="no"?>
<!--Created with ndjsontosvg (https:https://github.com/thompson318/ndjsontosvg) 
	from the simplified Google quickdraw data set. key_id = 5572490040442880-->
<svg width="600" height="600"
	xmlns="http://www.w3.org/2000/svg">
	xmlns:ndjsontosvg="https://github.com/thompson318/ndjsontosvg"
	xmlns:quickdraw="https://quickdraw.withgoogle.com/data"
	xmlns:scikit-surgery="https://doi.org/10.1007/s11548-020-02180-5">

	<rect width="100%" height="100%" fill="white" />
	<path d = "M 220.31 133.59 L 154.69 138.28 L 126.56 147.66 L 89.06 180.47 L 44.53 250.78 L 7.03 384.38 L 0.00 471.09 L 7.03 499.22 L 23.44 510.94 L 79.69 522.66 L 295.31 522.66 L 431.25 478.12 L 492.19 445.31 L 525.00 419.53 L 553.12 382.03 L 574.22 318.75 L 588.28 246.09 L 592.97 180.47 L 574.22 121.88 L 536.72 67.97 L 515.62 56.25 L 440.62 58.59 L 250.78 119.53 L 150.00 140.62 L 138.28 150.00 L 150.00 166.41" stroke="black" fill="transparent"/>
	<path d = "M 164.06 135.94 L 96.09 150.00 L 65.62 161.72 L 70.31 175.78 L 112.50 189.84 L 112.50 208.59 L 72.66 243.75 L 65.62 271.88 L 4.69 325.78 L 23.44 398.44 L 77.34 433.59 L 37.50 522.66 L 353.91 522.66 L 367.97 517.97 L 372.66 522.66 L 393.75 489.84 L 400.78 433.59 L 471.09 412.50 L 546.09 375.00 L 576.56 346.88 L 597.66 304.69 L 597.66 297.66 L 581.25 288.28 L 520.31 271.88 L 532.03 239.06 L 571.88 187.50 L 583.59 159.38 L 567.19 145.31 L 515.62 128.91 L 525.00 65.62 L 513.28 28.12 L 482.81 0.00 L 438.28 0.00 L 189.84 46.88 L 142.97 63.28 L 119.53 84.38 L 89.06 138.28 L 86.72 164.06" stroke="black" fill="transparent"/>
</svg>