<?xml version="1.0" encoding="UTF-8" standalone="no"?>
<!--Created with ndjsontosvg (https:https://github.com/thompson318/ndjsontosvg) 
	from the simplified Google quickdraw data set. key_id = 5290940992323584-->
<svg width="600" height="600"
	xmlns="http://www.w3.org/2000/svg">
	xmlns:ndjsontosvg="https://github.com/thompson318/ndjsontosvg"
	xmlns:quickdraw="https://quickdraw.withgoogle.com/data"
	xmlns:scikit-surgery="https://doi.org/10.1007/s11548-020-02180-5">

	<rect width="100%" height="100%" fill="white" />
	<path d = "M 0.00 28.12 L 30.47 44.53 L 56.25 49.22 L 75.00 35.16 L 98.44 0.00 L 128.91 30.47 L 152.34 37.50 L 166.41 28.12 L 164.06 4.69 L 171.09 25.78 L 189.84 42.19 L 206.25 46.88 L 208.59 25.78 L 250.78 49.22 L 278.91 39.84 L 288.28 21.09 L 302.34 39.84 L 321.09 44.53 L 337.50 39.84 L 363.28 14.06 L 379.69 37.50 L 396.09 42.19 L 419.53 32.81 L 433.59 16.41 L 452.34 28.12 L 468.75 25.78 L 487.50 0.00 L 508.59 16.41 L 525.00 14.06 L 539.06 2.34 L 567.19 18.75 L 597.66 9.38" stroke="black" fill="transparent"/>
</svg>