<?xml version="1.0" encoding="UTF-8" standalone="no"?>
<!--Created with ndjsontosvg (https:https://github.com/thompson318/ndjsontosvg) 
	from the simplified Google quickdraw data set. key_id = 5443351648141312-->
<svg width="600" height="600"
	xmlns="http://www.w3.org/2000/svg">
	xmlns:ndjsontosvg="https://github.com/thompson318/ndjsontosvg"
	xmlns:quickdraw="https://quickdraw.withgoogle.com/data"
	xmlns:scikit-surgery="https://doi.org/10.1007/s11548-020-02180-5">

	<rect width="100%" height="100%" fill="white" />
	<path d = "M 0.00 182.81 L 128.91 145.31 L 154.69 142.97 L 178.12 150.00 L 196.88 187.50 L 210.94 199.22 L 267.19 222.66 L 471.09 243.75 L 564.84 234.38" stroke="black" fill="transparent"/>
	<path d = "M 32.81 314.06 L 225.00 269.53 L 241.41 274.22 L 255.47 328.12 L 269.53 342.19 L 323.44 367.97 L 372.66 372.66 L 471.09 351.56 L 567.19 339.84" stroke="black" fill="transparent"/>
	<path d = "M 67.97 546.09 L 196.88 492.19 L 311.72 426.56 L 330.47 452.34 L 356.25 468.75 L 466.41 492.19 L 557.81 489.84 L 597.66 480.47" stroke="black" fill="transparent"/>
	<path d = "M 79.69 0.00 L 117.19 23.44 L 213.28 25.78" stroke="black" fill="transparent"/>
	<path d = "M 220.31 25.78 L 344.53 23.44 L 424.22 11.72 L 424.22 37.50 L 450.00 53.91 L 522.66 67.97" stroke="black" fill="transparent"/>
</svg>