<?xml version="1.0" encoding="UTF-8" standalone="no"?>
<!--Created with ndjsontosvg (https:https://github.com/thompson318/ndjsontosvg) 
	from the simplified Google quickdraw data set. key_id = 5401893905891328-->
<svg width="600" height="600"
	xmlns="http://www.w3.org/2000/svg">
	xmlns:ndjsontosvg="https://github.com/thompson318/ndjsontosvg"
	xmlns:quickdraw="https://quickdraw.withgoogle.com/data"
	xmlns:scikit-surgery="https://doi.org/10.1007/s11548-020-02180-5">

	<rect width="100%" height="100%" fill="white" />
	<path d = "M 0.00 49.22 L 9.38 11.72 L 16.41 46.88 L 30.47 51.56 L 119.53 0.00 L 126.56 7.03 L 126.56 42.19 L 138.28 53.91 L 236.72 21.09 L 250.78 72.66 L 311.72 35.16 L 349.22 23.44 L 356.25 32.81 L 353.91 96.09 L 370.31 110.16 L 405.47 98.44 L 464.06 60.94 L 468.75 91.41 L 536.72 42.19 L 541.41 82.03 L 597.66 53.91" stroke="black" fill="transparent"/>
	<path d = "M 105.47 98.44 L 103.12 110.16 L 112.50 121.88 L 168.75 124.22 L 166.41 105.47 L 145.31 91.41 L 114.84 91.41 L 93.75 103.12" stroke="black" fill="transparent"/>
	<path d = "M 161.72 126.56 L 173.44 131.25" stroke="black" fill="transparent"/>
</svg>