<?xml version="1.0" encoding="UTF-8" standalone="no"?>
<!--Created with ndjsontosvg (https:https://github.com/thompson318/ndjsontosvg) 
	from the simplified Google quickdraw data set. key_id = 4969604222812160-->
<svg width="600" height="600"
	xmlns="http://www.w3.org/2000/svg">
	xmlns:ndjsontosvg="https://github.com/thompson318/ndjsontosvg"
	xmlns:quickdraw="https://quickdraw.withgoogle.com/data"
	xmlns:scikit-surgery="https://doi.org/10.1007/s11548-020-02180-5">

	<rect width="100%" height="100%" fill="white" />
	<path d = "M 199.22 206.25 L 192.19 126.56 L 227.34 37.50 L 264.84 7.03 L 332.81 2.34 L 346.88 16.41 L 363.28 49.22 L 367.97 140.62 L 384.38 187.50 L 412.50 201.56 L 487.50 206.25 L 510.94 213.28 L 555.47 241.41 L 588.28 283.59 L 597.66 323.44 L 597.66 379.69 L 581.25 407.81 L 557.81 428.91 L 522.66 431.25 L 494.53 403.12 L 489.84 375.00 L 520.31 342.19 L 515.62 288.28 L 489.84 274.22 L 403.12 274.22 L 396.09 288.28 L 396.09 332.81 L 405.47 405.47 L 389.06 433.59 L 372.66 442.97 L 337.50 445.31 L 314.06 400.78 L 311.72 370.31 L 321.09 337.50 L 307.03 335.16 L 285.94 363.28 L 260.16 447.66 L 232.03 464.06 L 189.84 466.41 L 171.09 424.22 L 171.09 351.56 L 180.47 328.12 L 215.62 290.62 L 192.19 300.00 L 117.19 389.06 L 84.38 391.41 L 72.66 363.28 L 70.31 281.25 L 79.69 255.47 L 93.75 243.75 L 121.88 241.41 L 89.06 215.62 L 16.41 213.28 L 4.69 196.88 L 0.00 138.28 L 11.72 114.84 L 25.78 107.81" stroke="black" fill="transparent"/>
</svg>