<?xml version="1.0" encoding="UTF-8" standalone="no"?>
<!--Created with ndjsontosvg (https:https://github.com/thompson318/ndjsontosvg) 
	from the simplified Google quickdraw data set. key_id = 6092169355984896-->
<svg width="600" height="600"
	xmlns="http://www.w3.org/2000/svg">
	xmlns:ndjsontosvg="https://github.com/thompson318/ndjsontosvg"
	xmlns:quickdraw="https://quickdraw.withgoogle.com/data"
	xmlns:scikit-surgery="https://doi.org/10.1007/s11548-020-02180-5">

	<rect width="100%" height="100%" fill="white" />
	<path d = "M 203.91 203.91 L 182.81 133.59 L 180.47 42.19 L 199.22 18.75 L 222.66 7.03 L 302.34 0.00 L 323.44 11.72 L 346.88 37.50 L 367.97 89.06 L 351.56 208.59 L 375.00 229.69 L 442.97 234.38 L 489.84 215.62 L 555.47 178.12 L 597.66 119.53 L 595.31 213.28 L 578.91 241.41 L 560.16 255.47 L 487.50 276.56 L 346.88 276.56 L 382.03 302.34 L 468.75 325.78 L 550.78 330.47 L 574.22 318.75 L 560.16 353.91 L 532.03 365.62 L 480.47 370.31 L 335.16 367.97 L 461.72 421.88 L 562.50 445.31 L 482.81 468.75 L 431.25 473.44 L 307.03 421.88 L 292.97 403.12" stroke="black" fill="transparent"/>
	<path d = "M 199.22 203.91 L 133.59 192.19 L 7.03 100.78 L 2.34 107.81 L 0.00 157.03 L 16.41 173.44 L 100.78 199.22 L 168.75 210.94 L 135.94 236.72 L 42.19 243.75 L 35.16 250.78 L 189.84 276.56" stroke="black" fill="transparent"/>
	<path d = "M 189.84 276.56 L 145.31 311.72 L 107.81 330.47 L 23.44 328.12 L 89.06 349.22 L 154.69 358.59 L 171.09 356.25 L 187.50 339.84 L 178.12 358.59 L 142.97 386.72 L 91.41 410.16 L 91.41 414.84 L 135.94 421.88 L 208.59 417.19 L 260.16 379.69 L 290.62 410.16" stroke="black" fill="transparent"/>
</svg>