<?xml version="1.0" encoding="UTF-8" standalone="no"?>
<!--Created with ndjsontosvg (https:https://github.com/thompson318/ndjsontosvg) 
	from the simplified Google quickdraw data set. key_id = 5107251347980288-->
<svg width="600" height="600"
	xmlns="http://www.w3.org/2000/svg">
	xmlns:ndjsontosvg="https://github.com/thompson318/ndjsontosvg"
	xmlns:quickdraw="https://quickdraw.withgoogle.com/data"
	xmlns:scikit-surgery="https://doi.org/10.1007/s11548-020-02180-5">

	<rect width="100%" height="100%" fill="white" />
	<path d = "M 220.31 150.00 L 196.88 103.12 L 194.53 49.22 L 215.62 14.06 L 241.41 2.34 L 267.19 2.34 L 302.34 16.41 L 323.44 58.59 L 325.78 119.53 L 304.69 168.75 L 393.75 124.22 L 438.28 150.00 L 487.50 166.41 L 560.16 152.34 L 597.66 206.25" stroke="black" fill="transparent"/>
	<path d = "M 220.31 152.34 L 178.12 135.94 L 138.28 150.00 L 89.06 201.56 L 7.03 239.06 L 0.00 257.81 L 4.69 288.28" stroke="black" fill="transparent"/>
	<path d = "M 217.97 157.03 L 185.16 201.56 L 173.44 274.22 L 138.28 351.56" stroke="black" fill="transparent"/>
	<path d = "M 302.34 168.75 L 321.09 180.47 L 372.66 236.72 L 419.53 248.44 L 438.28 260.16 L 471.09 314.06 L 475.78 335.16 L 471.09 335.16" stroke="black" fill="transparent"/>
	<path d = "M 241.41 173.44 L 227.34 203.91 L 239.06 241.41 L 208.59 309.38 L 203.91 330.47 L 210.94 335.16" stroke="black" fill="transparent"/>
	<path d = "M 267.19 182.81 L 285.94 196.88 L 297.66 243.75" stroke="black" fill="transparent"/>
</svg>