<?xml version="1.0" encoding="UTF-8" standalone="no"?>
<!--Created with ndjsontosvg (https:https://github.com/thompson318/ndjsontosvg) 
	from the simplified Google quickdraw data set. key_id = 5162877046489088-->
<svg width="600" height="600"
	xmlns="http://www.w3.org/2000/svg">
	xmlns:ndjsontosvg="https://github.com/thompson318/ndjsontosvg"
	xmlns:quickdraw="https://quickdraw.withgoogle.com/data"
	xmlns:scikit-surgery="https://doi.org/10.1007/s11548-020-02180-5">

	<rect width="100%" height="100%" fill="white" />
	<path d = "M 145.31 210.94 L 140.62 110.16 L 145.31 75.00 L 161.72 32.81 L 206.25 0.00 L 271.88 0.00 L 309.38 32.81 L 323.44 60.94 L 339.84 201.56 L 349.22 217.97 L 382.03 220.31 L 414.84 201.56 L 442.97 180.47 L 471.09 140.62 L 536.72 105.47 L 588.28 98.44 L 597.66 131.25 L 597.66 171.09 L 581.25 220.31 L 564.84 250.78 L 532.03 285.94 L 494.53 300.00 L 382.03 297.66 L 428.91 330.47 L 433.59 339.84 L 438.28 403.12 L 426.56 421.88 L 379.69 454.69 L 358.59 454.69 L 316.41 433.59 L 288.28 398.44 L 274.22 325.78 L 271.88 382.03 L 243.75 431.25 L 194.53 464.06 L 152.34 471.09 L 124.22 471.09 L 112.50 461.72 L 93.75 433.59 L 93.75 400.78 L 117.19 377.34 L 201.56 325.78 L 222.66 300.00 L 222.66 278.91 L 203.91 276.56 L 189.84 281.25 L 96.09 363.28 L 11.72 379.69 L 0.00 358.59 L 4.69 330.47 L 67.97 281.25 L 100.78 264.84 L 53.91 253.12 L 44.53 234.38 L 42.19 210.94" stroke="black" fill="transparent"/>
</svg>