<?xml version="1.0" encoding="UTF-8" standalone="no"?>
<!--Created with ndjsontosvg (https:https://github.com/thompson318/ndjsontosvg) 
	from the simplified Google quickdraw data set. key_id = 6053921481031680-->
<svg width="600" height="600"
	xmlns="http://www.w3.org/2000/svg">
	xmlns:ndjsontosvg="https://github.com/thompson318/ndjsontosvg"
	xmlns:quickdraw="https://quickdraw.withgoogle.com/data"
	xmlns:scikit-surgery="https://doi.org/10.1007/s11548-020-02180-5">

	<rect width="100%" height="100%" fill="white" />
	<path d = "M 135.94 147.66 L 89.06 173.44 L 63.28 199.22 L 16.41 281.25 L 0.00 328.12 L 2.34 447.66 L 23.44 475.78 L 84.38 506.25 L 257.81 560.16 L 304.69 555.47 L 335.16 543.75 L 367.97 520.31 L 389.06 489.84 L 417.19 466.41 L 435.94 433.59 L 435.94 351.56 L 428.91 318.75 L 405.47 281.25 L 276.56 196.88 L 210.94 164.06" stroke="black" fill="transparent"/>
	<path d = "M 133.59 135.94 L 114.84 84.38 L 72.66 9.38" stroke="black" fill="transparent"/>
	<path d = "M 168.75 135.94 L 168.75 67.97 L 180.47 0.00" stroke="black" fill="transparent"/>
	<path d = "M 208.59 138.28 L 215.62 119.53 L 246.09 89.06 L 335.16 18.75" stroke="black" fill="transparent"/>
	<path d = "M 140.62 553.12 L 133.59 590.62" stroke="black" fill="transparent"/>
	<path d = "M 175.78 515.62 L 175.78 550.78 L 185.16 567.19" stroke="black" fill="transparent"/>
	<path d = "M 206.25 515.62 L 217.97 557.81 L 239.06 592.97 L 250.78 597.66" stroke="black" fill="transparent"/>
	<path d = "M 255.47 562.50 L 278.91 595.31 L 297.66 597.66" stroke="black" fill="transparent"/>
	<path d = "M 297.66 562.50 L 297.66 588.28" stroke="black" fill="transparent"/>
</svg>