<?xml version="1.0" encoding="UTF-8" standalone="no"?>
<!--Created with ndjsontosvg (https:https://github.com/thompson318/ndjsontosvg) 
	from the simplified Google quickdraw data set. key_id = 6352285934288896-->
<svg width="600" height="600"
	xmlns="http://www.w3.org/2000/svg">
	xmlns:ndjsontosvg="https://github.com/thompson318/ndjsontosvg"
	xmlns:quickdraw="https://quickdraw.withgoogle.com/data"
	xmlns:scikit-surgery="https://doi.org/10.1007/s11548-020-02180-5">

	<rect width="100%" height="100%" fill="white" />
	<path d = "M 311.72 96.09 L 264.84 91.41 L 196.88 110.16 L 135.94 147.66 L 70.31 210.94 L 25.78 288.28 L 2.34 367.97 L 4.69 428.91 L 32.81 499.22 L 56.25 525.00 L 107.81 560.16 L 185.16 588.28 L 264.84 597.66 L 325.78 595.31 L 400.78 571.88 L 442.97 541.41 L 473.44 501.56 L 489.84 452.34 L 496.88 398.44 L 494.53 346.88 L 475.78 276.56 L 433.59 192.19 L 400.78 147.66 L 323.44 70.31 L 281.25 53.91" stroke="black" fill="transparent"/>
	<path d = "M 225.00 121.88 L 210.94 96.09 L 178.12 67.97" stroke="black" fill="transparent"/>
	<path d = "M 262.50 42.19 L 292.97 0.00" stroke="black" fill="transparent"/>
	<path d = "M 360.94 30.47 L 370.31 25.78" stroke="black" fill="transparent"/>
	<path d = "M 353.91 77.34 L 367.97 60.94 L 393.75 51.56" stroke="black" fill="transparent"/>
	<path d = "M 410.16 89.06 L 459.38 82.03 L 471.09 91.41" stroke="black" fill="transparent"/>
	<path d = "M 461.72 126.56 L 475.78 121.88" stroke="black" fill="transparent"/>
	<path d = "M 248.44 89.06 L 260.16 65.62 L 304.69 35.16" stroke="black" fill="transparent"/>
	<path d = "M 365.62 65.62 L 393.75 58.59" stroke="black" fill="transparent"/>
	<path d = "M 461.72 103.12 L 475.78 103.12" stroke="black" fill="transparent"/>
	<path d = "M 203.91 234.38 L 199.22 239.06" stroke="black" fill="transparent"/>
	<path d = "M 175.78 269.53 L 147.66 321.09 L 140.62 382.03" stroke="black" fill="transparent"/>
	<path d = "M 206.25 492.19 L 206.25 492.19" stroke="black" fill="transparent"/>
	<path d = "M 243.75 494.53 L 283.59 485.16" stroke="black" fill="transparent"/>
	<path d = "M 342.19 440.62 L 342.19 440.62" stroke="black" fill="transparent"/>
	<path d = "M 363.28 407.81 L 375.00 335.16 L 346.88 253.12" stroke="black" fill="transparent"/>
	<path d = "M 199.22 239.06 L 166.41 276.56 L 138.28 370.31 L 138.28 412.50 L 150.00 442.97 L 178.12 468.75" stroke="black" fill="transparent"/>
	<path d = "M 276.56 241.41 L 262.50 269.53 L 257.81 344.53" stroke="black" fill="transparent"/>
	<path d = "M 365.62 281.25 L 365.62 281.25" stroke="black" fill="transparent"/>
	<path d = "M 332.81 154.69 L 323.44 154.69 L 311.72 166.41 L 285.94 229.69 L 283.59 276.56 L 290.62 309.38" stroke="black" fill="transparent"/>
	<path d = "M 192.19 201.56 L 166.41 246.09 L 145.31 335.16" stroke="black" fill="transparent"/>
	<path d = "M 337.50 360.94 L 337.50 447.66 L 342.19 468.75 L 363.28 496.88" stroke="black" fill="transparent"/>
	<path d = "M 407.81 330.47 L 379.69 412.50" stroke="black" fill="transparent"/>
	<path d = "M 100.78 351.56 L 227.34 274.22 L 307.03 243.75" stroke="black" fill="transparent"/>
	<path d = "M 337.50 318.75 L 276.56 365.62 L 210.94 447.66" stroke="black" fill="transparent"/>
</svg>