<?xml version="1.0" encoding="UTF-8" standalone="no"?>
<!--Created with ndjsontosvg (https:https://github.com/thompson318/ndjsontosvg) 
	from the simplified Google quickdraw data set. key_id = 6019489365753856-->
<svg width="600" height="600"
	xmlns="http://www.w3.org/2000/svg">
	xmlns:ndjsontosvg="https://github.com/thompson318/ndjsontosvg"
	xmlns:quickdraw="https://quickdraw.withgoogle.com/data"
	xmlns:scikit-surgery="https://doi.org/10.1007/s11548-020-02180-5">

	<rect width="100%" height="100%" fill="white" />
	<path d = "M 208.59 63.28 L 255.47 117.19 L 323.44 140.62 L 370.31 126.56 L 391.41 93.75 L 389.06 65.62 L 356.25 23.44 L 328.12 11.72 L 262.50 11.72 L 203.91 37.50" stroke="black" fill="transparent"/>
	<path d = "M 196.88 51.56 L 119.53 142.97 L 51.56 253.12 L 30.47 335.16 L 46.88 389.06 L 89.06 428.91 L 124.22 450.00 L 203.91 468.75 L 391.41 459.38 L 450.00 445.31 L 501.56 421.88 L 564.84 370.31 L 590.62 323.44 L 597.66 267.19 L 569.53 187.50 L 499.22 100.78 L 424.22 44.53 L 367.97 28.12 L 241.41 21.09" stroke="black" fill="transparent"/>
	<path d = "M 253.12 0.00 L 239.06 7.03" stroke="black" fill="transparent"/>
	<path d = "M 234.38 98.44 L 187.50 154.69 L 140.62 234.38 L 107.81 323.44 L 103.12 360.94 L 112.50 389.06 L 128.91 412.50 L 171.09 447.66" stroke="black" fill="transparent"/>
	<path d = "M 328.12 159.38 L 314.06 171.09 L 276.56 232.03 L 243.75 335.16 L 241.41 382.03 L 250.78 419.53 L 288.28 478.12 L 302.34 475.78" stroke="black" fill="transparent"/>
	<path d = "M 396.09 131.25 L 426.56 180.47 L 457.03 283.59 L 478.12 410.16 L 475.78 431.25 L 464.06 407.81" stroke="black" fill="transparent"/>
	<path d = "M 424.22 103.12 L 424.22 103.12" stroke="black" fill="transparent"/>
	<path d = "M 421.88 75.00 L 487.50 145.31 L 550.78 255.47 L 571.88 325.78 L 576.56 382.03" stroke="black" fill="transparent"/>
	<path d = "M 232.03 7.03 L 199.22 7.03 L 145.31 39.84 L 37.50 164.06 L 7.03 232.03 L 0.00 278.91 L 11.72 335.16 L 30.47 367.97" stroke="black" fill="transparent"/>
</svg>