<?xml version="1.0" encoding="UTF-8" standalone="no"?>
<!--Created with ndjsontosvg (https:https://github.com/thompson318/ndjsontosvg) 
	from the simplified Google quickdraw data set. key_id = 6352745294462976-->
<svg width="600" height="600"
	xmlns="http://www.w3.org/2000/svg">
	xmlns:ndjsontosvg="https://github.com/thompson318/ndjsontosvg"
	xmlns:quickdraw="https://quickdraw.withgoogle.com/data"
	xmlns:scikit-surgery="https://doi.org/10.1007/s11548-020-02180-5">

	<rect width="100%" height="100%" fill="white" />
	<path d = "M 103.12 330.47 L 65.62 342.19 L 18.75 382.03 L 2.34 424.22 L 0.00 492.19 L 23.44 527.34 L 58.59 557.81 L 171.09 597.66 L 248.44 592.97 L 274.22 574.22 L 307.03 527.34 L 311.72 435.94 L 274.22 332.81" stroke="black" fill="transparent"/>
	<path d = "M 138.28 323.44 L 135.94 253.12 L 142.97 154.69 L 157.03 70.31 L 180.47 0.00" stroke="black" fill="transparent"/>
	<path d = "M 89.06 377.34 L 145.31 133.59 L 194.53 30.47" stroke="black" fill="transparent"/>
	<path d = "M 124.22 314.06 L 124.22 285.94 L 175.78 142.97 L 241.41 9.38" stroke="black" fill="transparent"/>
	<path d = "M 119.53 335.16 L 140.62 267.19 L 239.06 30.47" stroke="black" fill="transparent"/>
	<path d = "M 215.62 342.19 L 217.97 307.03 L 243.75 215.62 L 295.31 82.03" stroke="black" fill="transparent"/>
	<path d = "M 243.75 318.75 L 239.06 295.31 L 239.06 225.00 L 250.78 42.19" stroke="black" fill="transparent"/>
	<path d = "M 243.75 335.16 L 236.72 330.47 L 217.97 283.59 L 180.47 152.34" stroke="black" fill="transparent"/>
	<path d = "M 271.88 316.41 L 255.47 290.62 L 248.44 262.50 L 239.06 84.38" stroke="black" fill="transparent"/>
</svg>