<?xml version="1.0" encoding="UTF-8" standalone="no"?>
<!--Created with ndjsontosvg (https:https://github.com/thompson318/ndjsontosvg) 
	from the simplified Google quickdraw data set. key_id = 5671817769385984-->
<svg width="600" height="600"
	xmlns="http://www.w3.org/2000/svg">
	xmlns:ndjsontosvg="https://github.com/thompson318/ndjsontosvg"
	xmlns:quickdraw="https://quickdraw.withgoogle.com/data"
	xmlns:scikit-surgery="https://doi.org/10.1007/s11548-020-02180-5">

	<rect width="100%" height="100%" fill="white" />
	<path d = "M 142.97 267.19 L 140.62 180.47 L 154.69 77.34 L 175.78 14.06 L 358.59 0.00 L 499.22 0.00 L 532.03 4.69 L 546.09 21.09 L 499.22 103.12 L 466.41 283.59" stroke="black" fill="transparent"/>
	<path d = "M 152.34 269.53 L 112.50 300.00 L 0.00 431.25 L 253.12 428.91 L 398.44 403.12 L 597.66 391.41 L 583.59 393.75 L 550.78 372.66 L 459.38 271.88" stroke="black" fill="transparent"/>
	<path d = "M 152.34 302.34 L 307.03 300.00 L 459.38 283.59" stroke="black" fill="transparent"/>
	<path d = "M 217.97 346.88 L 199.22 344.53 L 175.78 363.28 L 154.69 405.47 L 161.72 435.94 L 194.53 447.66 L 253.12 445.31 L 271.88 428.91 L 278.91 386.72 L 274.22 372.66 L 236.72 346.88 L 182.81 342.19" stroke="black" fill="transparent"/>
	<path d = "M 447.66 318.75 L 377.34 328.12 L 346.88 360.94 L 346.88 379.69 L 363.28 398.44 L 389.06 410.16 L 421.88 410.16 L 440.62 389.06 L 442.97 351.56 L 403.12 328.12 L 365.62 328.12" stroke="black" fill="transparent"/>
	<path d = "M 222.66 365.62 L 234.38 440.62" stroke="black" fill="transparent"/>
	<path d = "M 159.38 403.12 L 182.81 393.75 L 217.97 393.75" stroke="black" fill="transparent"/>
	<path d = "M 389.06 318.75 L 421.88 393.75" stroke="black" fill="transparent"/>
	<path d = "M 356.25 363.28 L 405.47 375.00" stroke="black" fill="transparent"/>
	<path d = "M 255.47 67.97 L 234.38 77.34 L 220.31 96.09 L 220.31 126.56 L 225.00 138.28 L 260.16 140.62 L 271.88 124.22 L 267.19 91.41 L 241.41 86.72" stroke="black" fill="transparent"/>
	<path d = "M 417.19 75.00 L 389.06 79.69 L 375.00 89.06 L 372.66 112.50 L 375.00 131.25 L 396.09 140.62 L 419.53 140.62 L 431.25 131.25 L 438.28 96.09 L 419.53 84.38 L 386.72 89.06" stroke="black" fill="transparent"/>
	<path d = "M 208.59 222.66 L 431.25 222.66" stroke="black" fill="transparent"/>
</svg>