<?xml version="1.0" encoding="UTF-8" standalone="no"?>
<!--Created with ndjsontosvg (https:https://github.com/thompson318/ndjsontosvg) 
	from the simplified Google quickdraw data set. key_id = 5694782540087296-->
<svg width="600" height="600"
	xmlns="http://www.w3.org/2000/svg">
	xmlns:ndjsontosvg="https://github.com/thompson318/ndjsontosvg"
	xmlns:quickdraw="https://quickdraw.withgoogle.com/data"
	xmlns:scikit-surgery="https://doi.org/10.1007/s11548-020-02180-5">

	<rect width="100%" height="100%" fill="white" />
	<path d = "M 203.91 459.38 L 208.59 536.72" stroke="black" fill="transparent"/>
	<path d = "M 213.28 517.97 L 239.06 503.91 L 234.38 450.00" stroke="black" fill="transparent"/>
	<path d = "M 412.50 438.28 L 414.84 515.62 L 485.16 515.62 L 473.44 391.41" stroke="black" fill="transparent"/>
	<path d = "M 142.97 487.50 L 255.47 457.03 L 393.75 450.00 L 506.25 407.81 L 536.72 407.81 L 569.53 393.75 L 546.09 194.53 L 506.25 44.53 L 485.16 4.69 L 478.12 0.00 L 269.53 70.31 L 2.34 208.59 L 135.94 513.28 L 140.62 510.94" stroke="black" fill="transparent"/>
	<path d = "M 84.38 391.41 L 274.22 356.25 L 342.19 325.78 L 501.56 274.22 L 541.41 267.19 L 562.50 246.09 L 595.31 229.69 L 592.97 215.62" stroke="black" fill="transparent"/>
	<path d = "M 49.22 290.62 L 96.09 285.94 L 250.78 229.69 L 489.84 180.47 L 536.72 157.03 L 576.56 121.88 L 595.31 114.84" stroke="black" fill="transparent"/>
	<path d = "M 173.44 187.50 L 227.34 220.31 L 274.22 222.66 L 370.31 150.00 L 377.34 138.28 L 375.00 121.88" stroke="black" fill="transparent"/>
	<path d = "M 194.53 192.19 L 194.53 192.19" stroke="black" fill="transparent"/>
	<path d = "M 178.12 192.19 L 311.72 133.59 L 398.44 112.50" stroke="black" fill="transparent"/>
	<path d = "M 194.53 185.16 L 187.50 152.34 L 194.53 135.94 L 239.06 100.78 L 302.34 70.31 L 360.94 65.62 L 403.12 75.00 L 410.16 100.78 L 403.12 112.50" stroke="black" fill="transparent"/>
	<path d = "M 203.91 147.66 L 182.81 175.78 L 178.12 206.25 L 182.81 210.94 L 206.25 213.28 L 222.66 203.91 L 276.56 135.94 L 283.59 124.22 L 271.88 124.22 L 248.44 147.66 L 239.06 175.78 L 248.44 185.16 L 271.88 175.78" stroke="black" fill="transparent"/>
	<path d = "M 311.72 89.06 L 292.97 100.78 L 276.56 121.88 L 269.53 145.31 L 274.22 161.72 L 292.97 166.41 L 316.41 154.69 L 356.25 77.34 L 307.03 175.78 L 323.44 166.41 L 346.88 133.59" stroke="black" fill="transparent"/>
	<path d = "M 335.16 126.56 L 316.41 189.84" stroke="black" fill="transparent"/>
</svg>