<?xml version="1.0" encoding="UTF-8" standalone="no"?>
<!--Created with ndjsontosvg (https:https://github.com/thompson318/ndjsontosvg) 
	from the simplified Google quickdraw data set. key_id = 6615932044574720-->
<svg width="600" height="600"
	xmlns="http://www.w3.org/2000/svg">
	xmlns:ndjsontosvg="https://github.com/thompson318/ndjsontosvg"
	xmlns:quickdraw="https://quickdraw.withgoogle.com/data"
	xmlns:scikit-surgery="https://doi.org/10.1007/s11548-020-02180-5">

	<rect width="100%" height="100%" fill="white" />
	<path d = "M 25.78 391.41 L 25.78 112.50 L 14.06 21.09 L 119.53 9.38 L 384.38 9.38 L 585.94 0.00 L 592.97 56.25 L 597.66 339.84 L 590.62 379.69 L 290.62 384.38 L 161.72 344.53 L 0.00 318.75" stroke="black" fill="transparent"/>
	<path d = "M 520.31 126.56 L 494.53 119.53 L 492.19 126.56 L 513.28 126.56 L 515.62 112.50" stroke="black" fill="transparent"/>
	<path d = "M 489.84 253.12 L 475.78 269.53 L 473.44 285.94 L 515.62 285.94 L 527.34 267.19 L 520.31 246.09 L 492.19 227.34" stroke="black" fill="transparent"/>
	<path d = "M 105.47 82.03 L 119.53 30.47 L 133.59 30.47 L 276.56 77.34 L 351.56 91.41 L 393.75 91.41 L 393.75 128.91 L 372.66 199.22 L 372.66 274.22 L 363.28 288.28 L 314.06 300.00 L 264.84 300.00 L 114.84 267.19 L 124.22 60.94" stroke="black" fill="transparent"/>
</svg>