<?xml version="1.0" encoding="UTF-8" standalone="no"?>
<!--Created with ndjsontosvg (https:https://github.com/thompson318/ndjsontosvg) 
	from the simplified Google quickdraw data set. key_id = 6581446409977856-->
<svg width="600" height="600"
	xmlns="http://www.w3.org/2000/svg">
	xmlns:ndjsontosvg="https://github.com/thompson318/ndjsontosvg"
	xmlns:quickdraw="https://quickdraw.withgoogle.com/data"
	xmlns:scikit-surgery="https://doi.org/10.1007/s11548-020-02180-5">

	<rect width="100%" height="100%" fill="white" />
	<path d = "M 0.00 152.34 L 16.41 360.94 L 16.41 501.56 L 25.78 532.03 L 96.09 536.72 L 236.72 525.00 L 569.53 529.69 L 592.97 525.00 L 597.66 515.62 L 585.94 492.19 L 564.84 360.94 L 564.84 267.19 L 574.22 161.72 L 569.53 121.88 L 501.56 107.81 L 295.31 114.84 L 114.84 131.25 L 4.69 157.03" stroke="black" fill="transparent"/>
	<path d = "M 30.47 253.12 L 21.09 321.09 L 21.09 501.56 L 23.44 539.06 L 32.81 543.75 L 225.00 543.75 L 482.81 560.16 L 560.16 553.12 L 553.12 276.56" stroke="black" fill="transparent"/>
	<path d = "M 107.81 309.38 L 117.19 250.78 L 100.78 189.84 L 110.16 168.75 L 164.06 126.56 L 166.41 107.81 L 105.47 25.78" stroke="black" fill="transparent"/>
	<path d = "M 344.53 93.75 L 288.28 46.88 L 276.56 28.12" stroke="black" fill="transparent"/>
	<path d = "M 396.09 302.34 L 365.62 264.84 L 349.22 189.84 L 353.91 147.66 L 382.03 98.44 L 382.03 75.00 L 367.97 46.88 L 339.84 14.06" stroke="black" fill="transparent"/>
	<path d = "M 459.38 213.28 L 454.69 124.22 L 433.59 96.09 L 391.41 63.28 L 382.03 35.16 L 400.78 0.00" stroke="black" fill="transparent"/>
	<path d = "M 192.19 67.97 L 220.31 119.53 L 283.59 171.09 L 208.59 260.16 L 260.16 276.56 L 316.41 278.91" stroke="black" fill="transparent"/>
	<path d = "M 11.72 276.56 L 121.88 285.94 L 450.00 288.28 L 539.06 288.28 L 567.19 281.25" stroke="black" fill="transparent"/>
	<path d = "M 21.09 367.97 L 107.81 367.97 L 292.97 344.53 L 424.22 337.50 L 574.22 337.50" stroke="black" fill="transparent"/>
</svg>