<?xml version="1.0" encoding="UTF-8" standalone="no"?>
<!--Created with ndjsontosvg (https:https://github.com/thompson318/ndjsontosvg) 
	from the simplified Google quickdraw data set. key_id = 5533026157068288-->
<svg width="600" height="600"
	xmlns="http://www.w3.org/2000/svg">
	xmlns:ndjsontosvg="https://github.com/thompson318/ndjsontosvg"
	xmlns:quickdraw="https://quickdraw.withgoogle.com/data"
	xmlns:scikit-surgery="https://doi.org/10.1007/s11548-020-02180-5">

	<rect width="100%" height="100%" fill="white" />
	<path d = "M 7.03 84.38 L 7.03 185.16 L 23.44 72.66 L 35.16 131.25 L 56.25 65.62 L 53.91 128.91 L 77.34 70.31 L 79.69 114.84 L 86.72 91.41 L 93.75 135.94 L 103.12 107.81 L 103.12 180.47" stroke="black" fill="transparent"/>
	<path d = "M 0.00 175.78 L 154.69 178.12" stroke="black" fill="transparent"/>
	<path d = "M 53.91 189.84 L 49.22 248.44 L 46.88 595.31" stroke="black" fill="transparent"/>
	<path d = "M 21.09 7.03 L 2.34 208.59 L 25.78 16.41 L 35.16 159.38 L 60.94 0.00 L 60.94 166.41 L 89.06 51.56 L 98.44 173.44 L 142.97 37.50 L 161.72 112.50 L 192.19 25.78 L 217.97 196.88 L 239.06 126.56 L 271.88 60.94 L 260.16 138.28" stroke="black" fill="transparent"/>
</svg>