<?xml version="1.0" encoding="UTF-8" standalone="no"?>
<!--Created with ndjsontosvg (https:https://github.com/thompson318/ndjsontosvg) 
	from the simplified Google quickdraw data set. key_id = 4666651876261888-->
<svg width="600" height="600"
	xmlns="http://www.w3.org/2000/svg">
	xmlns:ndjsontosvg="https://github.com/thompson318/ndjsontosvg"
	xmlns:quickdraw="https://quickdraw.withgoogle.com/data"
	xmlns:scikit-surgery="https://doi.org/10.1007/s11548-020-02180-5">

	<rect width="100%" height="100%" fill="white" />
	<path d = "M 9.38 44.53 L 0.00 121.88 L 0.00 232.03 L 16.41 243.75 L 260.16 232.03 L 276.56 215.62 L 276.56 107.81 L 285.94 0.00 L 201.56 4.69 L 152.34 14.06 L 117.19 30.47 L 67.97 30.47 L 46.88 23.44 L 16.41 30.47" stroke="black" fill="transparent"/>
	<path d = "M 117.19 246.09 L 124.22 300.00 L 117.19 597.66" stroke="black" fill="transparent"/>
	<path d = "M 159.38 260.16 L 166.41 386.72 L 180.47 471.09 L 180.47 560.16 L 171.09 581.25 L 140.62 595.31" stroke="black" fill="transparent"/>
	<path d = "M 58.59 28.12 L 49.22 82.03 L 30.47 119.53 L 16.41 175.78 L 18.75 194.53 L 35.16 206.25" stroke="black" fill="transparent"/>
	<path d = "M 89.06 51.56 L 86.72 194.53" stroke="black" fill="transparent"/>
	<path d = "M 133.59 42.19 L 152.34 86.72 L 152.34 210.94" stroke="black" fill="transparent"/>
	<path d = "M 194.53 14.06 L 187.50 77.34 L 187.50 173.44 L 194.53 203.91" stroke="black" fill="transparent"/>
	<path d = "M 234.38 16.41 L 234.38 16.41" stroke="black" fill="transparent"/>
</svg>