<?xml version="1.0" encoding="UTF-8" standalone="no"?>
<!--Created with ndjsontosvg (https:https://github.com/thompson318/ndjsontosvg) 
	from the simplified Google quickdraw data set. key_id = 5077815739285504-->
<svg width="600" height="600"
	xmlns="http://www.w3.org/2000/svg">
	xmlns:ndjsontosvg="https://github.com/thompson318/ndjsontosvg"
	xmlns:quickdraw="https://quickdraw.withgoogle.com/data"
	xmlns:scikit-surgery="https://doi.org/10.1007/s11548-020-02180-5">

	<rect width="100%" height="100%" fill="white" />
	<path d = "M 11.72 379.69 L 2.34 414.84 L 0.00 513.28 L 16.41 548.44 L 56.25 578.91" stroke="black" fill="transparent"/>
	<path d = "M 96.09 431.25 L 96.09 492.19 L 39.84 597.66" stroke="black" fill="transparent"/>
	<path d = "M 21.09 367.97 L 75.00 370.31 L 98.44 377.34 L 119.53 393.75" stroke="black" fill="transparent"/>
	<path d = "M 100.78 433.59 L 100.78 382.03" stroke="black" fill="transparent"/>
	<path d = "M 18.75 337.50 L 25.78 281.25 L 67.97 175.78 L 157.03 16.41 L 173.44 2.34 L 196.88 0.00" stroke="black" fill="transparent"/>
	<path d = "M 206.25 2.34 L 248.44 2.34 L 260.16 7.03 L 255.47 77.34 L 215.62 147.66" stroke="black" fill="transparent"/>
	<path d = "M 213.28 150.00 L 203.91 189.84 L 103.12 335.16 L 82.03 384.38" stroke="black" fill="transparent"/>
	<path d = "M 42.19 377.34 L 42.19 513.28" stroke="black" fill="transparent"/>
</svg>