<?xml version="1.0" encoding="UTF-8" standalone="no"?>
<!--Created with ndjsontosvg (https:https://github.com/thompson318/ndjsontosvg) 
	from the simplified Google quickdraw data set. key_id = 5749196558696448-->
<svg width="600" height="600"
	xmlns="http://www.w3.org/2000/svg">
	xmlns:ndjsontosvg="https://github.com/thompson318/ndjsontosvg"
	xmlns:quickdraw="https://quickdraw.withgoogle.com/data"
	xmlns:scikit-surgery="https://doi.org/10.1007/s11548-020-02180-5">

	<rect width="100%" height="100%" fill="white" />
	<path d = "M 196.88 16.41 L 171.09 4.69 L 135.94 2.34 L 110.16 7.03 L 77.34 25.78 L 16.41 89.06 L 0.00 159.38 L 11.72 227.34 L 49.22 267.19 L 128.91 302.34 L 178.12 309.38 L 274.22 295.31 L 360.94 239.06 L 377.34 217.97 L 389.06 182.81 L 386.72 121.88 L 375.00 91.41 L 353.91 65.62 L 295.31 23.44 L 257.81 9.38 L 189.84 0.00 L 150.00 2.34 L 117.19 11.72" stroke="black" fill="transparent"/>
	<path d = "M 11.72 107.81 L 9.38 210.94 L 49.22 459.38 L 56.25 555.47 L 150.00 588.28 L 250.78 597.66 L 349.22 574.22 L 379.69 560.16 L 384.38 548.44 L 379.69 468.75 L 382.03 269.53 L 370.31 175.78 L 370.31 239.06 L 330.47 300.00 L 278.91 339.84 L 194.53 360.94 L 133.59 358.59 L 70.31 335.16 L 23.44 290.62 L 9.38 227.34" stroke="black" fill="transparent"/>
</svg>