<?xml version="1.0" encoding="UTF-8" standalone="no"?>
<!--Created with ndjsontosvg (https:https://github.com/thompson318/ndjsontosvg) 
	from the simplified Google quickdraw data set. key_id = 5346349576880128-->
<svg width="600" height="600"
	xmlns="http://www.w3.org/2000/svg">
	xmlns:ndjsontosvg="https://github.com/thompson318/ndjsontosvg"
	xmlns:quickdraw="https://quickdraw.withgoogle.com/data"
	xmlns:scikit-surgery="https://doi.org/10.1007/s11548-020-02180-5">

	<rect width="100%" height="100%" fill="white" />
	<path d = "M 161.72 386.72 L 161.72 597.66" stroke="black" fill="transparent"/>
	<path d = "M 150.00 583.59 L 232.03 588.28 L 239.06 567.19 L 239.06 384.38" stroke="black" fill="transparent"/>
	<path d = "M 107.81 379.69 L 32.81 375.00 L 9.38 375.00 L 44.53 379.69 L 225.00 391.41 L 400.78 396.09 L 410.16 391.41 L 414.84 372.66 L 414.84 330.47 L 407.81 297.66 L 400.78 292.97 L 229.69 304.69 L 2.34 292.97 L 0.00 370.31" stroke="black" fill="transparent"/>
	<path d = "M 0.00 283.59 L 0.00 2.34" stroke="black" fill="transparent"/>
	<path d = "M 37.50 285.94 L 46.88 194.53 L 42.19 9.38" stroke="black" fill="transparent"/>
	<path d = "M 91.41 255.47 L 105.47 11.72" stroke="black" fill="transparent"/>
	<path d = "M 159.38 288.28 L 180.47 25.78" stroke="black" fill="transparent"/>
	<path d = "M 246.09 269.53 L 255.47 192.19 L 255.47 7.03" stroke="black" fill="transparent"/>
	<path d = "M 332.81 260.16 L 342.19 213.28 L 342.19 14.06" stroke="black" fill="transparent"/>
	<path d = "M 417.19 278.91 L 417.19 164.06 L 396.09 9.38" stroke="black" fill="transparent"/>
	<path d = "M 4.69 0.00 L 46.88 7.03 L 363.28 2.34" stroke="black" fill="transparent"/>
</svg>