<?xml version="1.0" encoding="UTF-8" standalone="no"?>
<!--Created with ndjsontosvg (https:https://github.com/thompson318/ndjsontosvg) 
	from the simplified Google quickdraw data set. key_id = 6330715434123264-->
<svg width="600" height="600"
	xmlns="http://www.w3.org/2000/svg">
	xmlns:ndjsontosvg="https://github.com/thompson318/ndjsontosvg"
	xmlns:quickdraw="https://quickdraw.withgoogle.com/data"
	xmlns:scikit-surgery="https://doi.org/10.1007/s11548-020-02180-5">

	<rect width="100%" height="100%" fill="white" />
	<path d = "M 391.41 185.16 L 309.38 173.44 L 145.31 175.78 L 65.62 185.16 L 16.41 206.25 L 7.03 217.97 L 7.03 232.03 L 32.81 246.09 L 93.75 250.78 L 274.22 236.72 L 400.78 217.97 L 442.97 201.56 L 445.31 192.19 L 407.81 185.16" stroke="black" fill="transparent"/>
	<path d = "M 2.34 220.31 L 0.00 424.22 L 16.41 520.31 L 39.84 574.22 L 60.94 588.28 L 86.72 592.97 L 264.84 597.66 L 400.78 574.22 L 487.50 539.06 L 487.50 433.59 L 452.34 269.53 L 421.88 203.91" stroke="black" fill="transparent"/>
	<path d = "M 9.38 199.22 L 4.69 189.84 L 11.72 154.69 L 39.84 103.12 L 79.69 58.59 L 133.59 23.44 L 227.34 0.00 L 276.56 0.00 L 360.94 53.91 L 414.84 121.88 L 442.97 185.16" stroke="black" fill="transparent"/>
</svg>