<?xml version="1.0" encoding="UTF-8" standalone="no"?>
<!--Created with ndjsontosvg (https:https://github.com/thompson318/ndjsontosvg) 
	from the simplified Google quickdraw data set. key_id = 6271638423207936-->
<svg width="600" height="600"
	xmlns="http://www.w3.org/2000/svg">
	xmlns:ndjsontosvg="https://github.com/thompson318/ndjsontosvg"
	xmlns:quickdraw="https://quickdraw.withgoogle.com/data"
	xmlns:scikit-surgery="https://doi.org/10.1007/s11548-020-02180-5">

	<rect width="100%" height="100%" fill="white" />
	<path d = "M 100.78 349.22 L 91.41 337.50 L 89.06 316.41 L 126.56 124.22 L 154.69 30.47 L 166.41 4.69 L 175.78 2.34 L 182.81 49.22 L 182.81 194.53 L 161.72 346.88 L 142.97 367.97 L 72.66 358.59 L 42.19 438.28 L 121.88 459.38 L 140.62 377.34" stroke="black" fill="transparent"/>
	<path d = "M 49.22 414.84 L 21.09 440.62 L 0.00 475.78 L 9.38 595.31 L 56.25 595.31 L 140.62 532.03 L 147.66 510.94 L 145.31 459.38" stroke="black" fill="transparent"/>
	<path d = "M 142.97 450.00 L 154.69 475.78" stroke="black" fill="transparent"/>
	<path d = "M 32.81 454.69 L 35.16 583.59" stroke="black" fill="transparent"/>
	<path d = "M 65.62 447.66 L 53.91 489.84 L 58.59 548.44" stroke="black" fill="transparent"/>
	<path d = "M 96.09 478.12 L 93.75 576.56" stroke="black" fill="transparent"/>
	<path d = "M 105.47 452.34 L 103.12 581.25" stroke="black" fill="transparent"/>
	<path d = "M 140.62 468.75 L 128.91 562.50" stroke="black" fill="transparent"/>
	<path d = "M 126.56 480.47 L 100.78 550.78" stroke="black" fill="transparent"/>
	<path d = "M 70.31 510.94 L 67.97 590.62" stroke="black" fill="transparent"/>
	<path d = "M 360.94 332.81 L 421.88 180.47 L 452.34 138.28 L 471.09 124.22 L 485.16 138.28 L 480.47 210.94 L 417.19 346.88 L 337.50 344.53 L 344.53 398.44 L 400.78 400.78 L 424.22 396.09 L 435.94 389.06 L 435.94 370.31 L 419.53 337.50" stroke="black" fill="transparent"/>
</svg>