<?xml version="1.0" encoding="UTF-8" standalone="no"?>
<!--Created with ndjsontosvg (https:https://github.com/thompson318/ndjsontosvg) 
	from the simplified Google quickdraw data set. key_id = 6136115645906944-->
<svg width="600" height="600"
	xmlns="http://www.w3.org/2000/svg">
	xmlns:ndjsontosvg="https://github.com/thompson318/ndjsontosvg"
	xmlns:quickdraw="https://quickdraw.withgoogle.com/data"
	xmlns:scikit-surgery="https://doi.org/10.1007/s11548-020-02180-5">

	<rect width="100%" height="100%" fill="white" />
	<path d = "M 124.22 220.31 L 142.97 171.09 L 229.69 9.38 L 243.75 0.00 L 257.81 7.03 L 255.47 103.12 L 227.34 161.72 L 215.62 206.25 L 192.19 246.09 L 166.41 260.16 L 157.03 288.28 L 145.31 234.38 L 138.28 222.66 L 126.56 220.31 L 114.84 248.44 L 100.78 262.50 L 67.97 384.38 L 93.75 386.72 L 117.19 375.00 L 152.34 283.59" stroke="black" fill="transparent"/>
	<path d = "M 46.88 386.72 L 7.03 414.84 L 0.00 440.62 L 37.50 445.31 L 77.34 435.94 L 112.50 403.12 L 100.78 398.44 L 60.94 410.16 L 49.22 424.22 L 86.72 410.16 L 44.53 431.25 L 18.75 438.28 L 11.72 410.16 L 53.91 403.12 L 44.53 414.84 L 30.47 417.19 L 25.78 426.56 L 46.88 377.34 L 58.59 375.00 L 58.59 382.03" stroke="black" fill="transparent"/>
	<path d = "M 585.94 84.38 L 578.91 107.81 L 553.12 133.59 L 536.72 187.50 L 480.47 267.19 L 468.75 309.38 L 417.19 379.69 L 410.16 417.19 L 379.69 485.16" stroke="black" fill="transparent"/>
	<path d = "M 382.03 480.47 L 330.47 494.53 L 321.09 508.59 L 335.16 494.53 L 377.34 494.53 L 353.91 550.78 L 367.97 520.31 L 367.97 489.84 L 353.91 517.97 L 330.47 546.09 L 337.50 529.69 L 365.62 499.22 L 382.03 499.22 L 389.06 510.94 L 389.06 548.44 L 389.06 496.88 L 405.47 501.56 L 431.25 471.09 L 457.03 396.09 L 485.16 344.53 L 513.28 295.31 L 541.41 281.25 L 550.78 269.53 L 597.66 171.09" stroke="black" fill="transparent"/>
</svg>