<?xml version="1.0" encoding="UTF-8" standalone="no"?>
<!--Created with ndjsontosvg (https:https://github.com/thompson318/ndjsontosvg) 
	from the simplified Google quickdraw data set. key_id = 5114306641264640-->
<svg width="600" height="600"
	xmlns="http://www.w3.org/2000/svg">
	xmlns:ndjsontosvg="https://github.com/thompson318/ndjsontosvg"
	xmlns:quickdraw="https://quickdraw.withgoogle.com/data"
	xmlns:scikit-surgery="https://doi.org/10.1007/s11548-020-02180-5">

	<rect width="100%" height="100%" fill="white" />
	<path d = "M 318.75 2.34 L 248.44 2.34 L 138.28 37.50 L 39.84 100.78 L 7.03 135.94 L 0.00 168.75 L 9.38 182.81 L 46.88 206.25 L 107.81 220.31 L 215.62 239.06 L 325.78 232.03 L 384.38 201.56 L 419.53 166.41 L 435.94 124.22 L 435.94 91.41 L 419.53 53.91 L 358.59 23.44 L 288.28 23.44 L 199.22 46.88" stroke="black" fill="transparent"/>
	<path d = "M 9.38 199.22 L 11.72 421.88 L 46.88 597.66 L 65.62 595.31 L 135.94 557.81 L 339.84 489.84 L 407.81 478.12 L 442.97 485.16 L 433.59 438.28 L 384.38 349.22 L 363.28 271.88 L 363.28 196.88 L 372.66 171.09" stroke="black" fill="transparent"/>
	<path d = "M 30.47 398.44 L 67.97 356.25 L 103.12 339.84 L 135.94 342.19 L 199.22 372.66 L 234.38 375.00 L 349.22 351.56 L 384.38 330.47" stroke="black" fill="transparent"/>
</svg>