<?xml version="1.0" encoding="UTF-8" standalone="no"?>
<!--Created with ndjsontosvg (https:https://github.com/thompson318/ndjsontosvg) 
	from the simplified Google quickdraw data set. key_id = 6574641621499904-->
<svg width="600" height="600"
	xmlns="http://www.w3.org/2000/svg">
	xmlns:ndjsontosvg="https://github.com/thompson318/ndjsontosvg"
	xmlns:quickdraw="https://quickdraw.withgoogle.com/data"
	xmlns:scikit-surgery="https://doi.org/10.1007/s11548-020-02180-5">

	<rect width="100%" height="100%" fill="white" />
	<path d = "M 65.62 157.03 L 77.34 112.50 L 114.84 51.56 L 140.62 25.78 L 173.44 7.03 L 215.62 0.00 L 246.09 16.41 L 267.19 53.91 L 281.25 89.06 L 304.69 203.91" stroke="black" fill="transparent"/>
	<path d = "M 274.22 159.38 L 255.47 173.44 L 201.56 150.00 L 142.97 135.94 L 96.09 135.94 L 32.81 161.72 L 14.06 189.84 L 14.06 255.47 L 35.16 278.91 L 63.28 295.31 L 166.41 323.44 L 262.50 318.75 L 297.66 288.28 L 316.41 203.91 L 304.69 187.50 L 269.53 180.47 L 253.12 171.09" stroke="black" fill="transparent"/>
	<path d = "M 339.84 201.56 L 330.47 229.69 L 330.47 375.00 L 309.38 489.84 L 302.34 592.97 L 276.56 597.66 L 201.56 576.56 L 0.00 562.50 L 0.00 515.62 L 14.06 447.66 L 9.38 203.91" stroke="black" fill="transparent"/>
	<path d = "M 49.22 171.09 L 100.78 166.41 L 91.41 185.16 L 135.94 180.47 L 25.78 246.09 L 131.25 208.59 L 58.59 243.75 L 100.78 243.75 L 166.41 222.66 L 121.88 246.09 L 150.00 253.12 L 267.19 208.59 L 135.94 281.25 L 185.16 281.25 L 253.12 257.81 L 192.19 295.31 L 173.44 316.41 L 192.19 316.41 L 239.06 295.31 L 232.03 304.69" stroke="black" fill="transparent"/>
</svg>