<?xml version="1.0" encoding="UTF-8" standalone="no"?>
<!--Created with ndjsontosvg (https:https://github.com/thompson318/ndjsontosvg) 
	from the simplified Google quickdraw data set. key_id = 6079113976610816-->
<svg width="600" height="600"
	xmlns="http://www.w3.org/2000/svg">
	xmlns:ndjsontosvg="https://github.com/thompson318/ndjsontosvg"
	xmlns:quickdraw="https://quickdraw.withgoogle.com/data"
	xmlns:scikit-surgery="https://doi.org/10.1007/s11548-020-02180-5">

	<rect width="100%" height="100%" fill="white" />
	<path d = "M 157.03 283.59 L 185.16 405.47 L 241.41 529.69 L 290.62 597.66 L 297.66 532.03 L 274.22 464.06 L 246.09 309.38 L 234.38 178.12 L 206.25 86.72 L 201.56 79.69 L 196.88 86.72 L 192.19 201.56 L 164.06 152.34 L 145.31 82.03 L 161.72 159.38 L 128.91 110.16 L 112.50 96.09 L 124.22 171.09 L 96.09 103.12 L 79.69 84.38 L 75.00 91.41 L 82.03 145.31 L 117.19 260.16 L 147.66 311.72" stroke="black" fill="transparent"/>
	<path d = "M 93.75 84.38 L 89.06 135.94 L 86.72 77.34 L 126.56 161.72 L 135.94 51.56" stroke="black" fill="transparent"/>
	<path d = "M 135.94 39.84 L 135.94 9.38" stroke="black" fill="transparent"/>
	<path d = "M 255.47 208.59 L 243.75 213.28 L 217.97 126.56 L 203.91 96.09 L 182.81 75.00 L 133.59 56.25 L 63.28 53.91" stroke="black" fill="transparent"/>
	<path d = "M 239.06 225.00 L 220.31 178.12 L 140.62 107.81 L 93.75 86.72 L 28.12 79.69" stroke="black" fill="transparent"/>
	<path d = "M 203.91 199.22 L 145.31 142.97 L 98.44 112.50 L 37.50 96.09 L 21.09 96.09 L 0.00 107.81" stroke="black" fill="transparent"/>
	<path d = "M 159.38 225.00 L 131.25 227.34 L 77.34 89.06 L 28.12 23.44" stroke="black" fill="transparent"/>
	<path d = "M 210.94 199.22 L 91.41 103.12 L 35.16 77.34" stroke="black" fill="transparent"/>
	<path d = "M 208.59 208.59 L 124.22 44.53 L 93.75 14.06 L 58.59 0.00" stroke="black" fill="transparent"/>
	<path d = "M 187.50 154.69 L 112.50 82.03 L 77.34 70.31 L 37.50 67.97" stroke="black" fill="transparent"/>
	<path d = "M 189.84 232.03 L 164.06 201.56 L 107.81 91.41 L 75.00 75.00" stroke="black" fill="transparent"/>
	<path d = "M 178.12 203.91 L 98.44 77.34" stroke="black" fill="transparent"/>
	<path d = "M 196.88 199.22 L 114.84 84.38 L 75.00 51.56" stroke="black" fill="transparent"/>
</svg>