<?xml version="1.0" encoding="UTF-8" standalone="no"?>
<!--Created with ndjsontosvg (https:https://github.com/thompson318/ndjsontosvg) 
	from the simplified Google quickdraw data set. key_id = 5397518626062336-->
<svg width="600" height="600"
	xmlns="http://www.w3.org/2000/svg">
	xmlns:ndjsontosvg="https://github.com/thompson318/ndjsontosvg"
	xmlns:quickdraw="https://quickdraw.withgoogle.com/data"
	xmlns:scikit-surgery="https://doi.org/10.1007/s11548-020-02180-5">

	<rect width="100%" height="100%" fill="white" />
	<path d = "M 307.03 253.12 L 243.75 276.56 L 9.38 445.31 L 0.00 471.09 L 16.41 508.59 L 32.81 515.62 L 77.34 510.94 L 140.62 485.16 L 239.06 419.53 L 356.25 311.72 L 372.66 292.97 L 367.97 285.94 L 297.66 241.41" stroke="black" fill="transparent"/>
	<path d = "M 302.34 239.06 L 290.62 152.34 L 311.72 112.50 L 346.88 89.06 L 440.62 82.03 L 485.16 65.62 L 520.31 35.16 L 532.03 0.00 L 536.72 44.53 L 517.97 77.34 L 489.84 100.78 L 405.47 140.62 L 375.00 173.44 L 372.66 217.97 L 391.41 262.50 L 386.72 281.25 L 379.69 281.25" stroke="black" fill="transparent"/>
	<path d = "M 532.03 56.25 L 496.88 93.75 L 471.09 138.28 L 464.06 239.06 L 454.69 267.19 L 424.22 288.28 L 379.69 290.62" stroke="black" fill="transparent"/>
	<path d = "M 424.22 16.41 L 372.66 70.31 L 323.44 135.94" stroke="black" fill="transparent"/>
	<path d = "M 461.72 23.44 L 410.16 82.03 L 393.75 133.59" stroke="black" fill="transparent"/>
	<path d = "M 485.16 46.88 L 405.47 140.62 L 405.47 159.38" stroke="black" fill="transparent"/>
	<path d = "M 525.00 84.38 L 419.53 150.00 L 377.34 185.16 L 372.66 199.22" stroke="black" fill="transparent"/>
	<path d = "M 517.97 180.47 L 356.25 264.84" stroke="black" fill="transparent"/>
	<path d = "M 562.50 208.59 L 424.22 264.84 L 438.28 253.12" stroke="black" fill="transparent"/>
	<path d = "M 597.66 124.22 L 492.19 157.03 L 421.88 199.22" stroke="black" fill="transparent"/>
	<path d = "M 510.94 44.53 L 438.28 114.84 L 358.59 206.25" stroke="black" fill="transparent"/>
	<path d = "M 290.62 18.75 L 290.62 154.69 L 292.97 213.28 L 302.34 234.38" stroke="black" fill="transparent"/>
	<path d = "M 295.31 56.25 L 302.34 152.34 L 300.00 215.62" stroke="black" fill="transparent"/>
</svg>