<?xml version="1.0" encoding="UTF-8" standalone="no"?>
<!--Created with ndjsontosvg (https:https://github.com/thompson318/ndjsontosvg) 
	from the simplified Google quickdraw data set. key_id = 5197442720989184-->
<svg width="600" height="600"
	xmlns="http://www.w3.org/2000/svg">
	xmlns:ndjsontosvg="https://github.com/thompson318/ndjsontosvg"
	xmlns:quickdraw="https://quickdraw.withgoogle.com/data"
	xmlns:scikit-surgery="https://doi.org/10.1007/s11548-020-02180-5">

	<rect width="100%" height="100%" fill="white" />
	<path d = "M 23.44 304.69 L 51.56 304.69 L 72.66 328.12 L 89.06 543.75 L 98.44 583.59 L 121.88 597.66 L 131.25 581.25 L 145.31 513.28 L 157.03 342.19 L 168.75 321.09 L 201.56 295.31 L 215.62 222.66 L 164.06 217.97 L 14.06 227.34 L 23.44 292.97" stroke="black" fill="transparent"/>
	<path d = "M 18.75 227.34 L 7.03 171.09 L 0.00 32.81 L 18.75 11.72 L 35.16 32.81 L 56.25 28.12 L 77.34 35.16 L 96.09 11.72 L 121.88 14.06 L 145.31 2.34 L 173.44 11.72 L 185.16 2.34 L 215.62 14.06 L 227.34 60.94 L 229.69 112.50 L 215.62 255.47" stroke="black" fill="transparent"/>
	<path d = "M 37.50 225.00 L 18.75 77.34 L 21.09 21.09" stroke="black" fill="transparent"/>
	<path d = "M 46.88 227.34 L 53.91 2.34" stroke="black" fill="transparent"/>
	<path d = "M 77.34 201.56 L 67.97 105.47 L 75.00 37.50" stroke="black" fill="transparent"/>
	<path d = "M 98.44 225.00 L 96.09 86.72 L 100.78 30.47 L 110.16 0.00" stroke="black" fill="transparent"/>
	<path d = "M 117.19 203.91 L 112.50 201.56 L 112.50 117.19 L 128.91 14.06" stroke="black" fill="transparent"/>
	<path d = "M 140.62 192.19 L 138.28 140.62 L 147.66 23.44" stroke="black" fill="transparent"/>
	<path d = "M 157.03 196.88 L 154.69 86.72 L 164.06 35.16 L 178.12 7.03" stroke="black" fill="transparent"/>
	<path d = "M 175.78 201.56 L 173.44 131.25 L 196.88 0.00" stroke="black" fill="transparent"/>
	<path d = "M 196.88 192.19 L 196.88 131.25 L 213.28 7.03" stroke="black" fill="transparent"/>
	<path d = "M 213.28 194.53 L 210.94 150.00 L 222.66 39.84" stroke="black" fill="transparent"/>
</svg>