<?xml version="1.0" encoding="UTF-8" standalone="no"?>
<!--Created with ndjsontosvg (https:https://github.com/thompson318/ndjsontosvg) 
	from the simplified Google quickdraw data set. key_id = 6703952768794624-->
<svg width="600" height="600"
	xmlns="http://www.w3.org/2000/svg">
	xmlns:ndjsontosvg="https://github.com/thompson318/ndjsontosvg"
	xmlns:quickdraw="https://quickdraw.withgoogle.com/data"
	xmlns:scikit-surgery="https://doi.org/10.1007/s11548-020-02180-5">

	<rect width="100%" height="100%" fill="white" />
	<path d = "M 208.59 283.59 L 192.19 410.16 L 187.50 597.66" stroke="black" fill="transparent"/>
	<path d = "M 281.25 283.59 L 264.84 457.03 L 264.84 532.03 L 276.56 557.81" stroke="black" fill="transparent"/>
	<path d = "M 196.88 283.59 L 185.16 264.84 L 147.66 232.03 L 96.09 194.53 L 46.88 171.09 L 16.41 168.75" stroke="black" fill="transparent"/>
	<path d = "M 0.00 171.09 L 49.22 135.94 L 9.38 206.25 L 103.12 133.59 L 30.47 201.56 L 44.53 203.91 L 114.84 159.38 L 51.56 220.31 L 79.69 213.28 L 147.66 173.44 L 145.31 185.16 L 89.06 255.47 L 189.84 201.56 L 138.28 264.84 L 203.91 222.66 L 196.88 236.72" stroke="black" fill="transparent"/>
	<path d = "M 283.59 271.88 L 278.91 262.50 L 283.59 166.41 L 323.44 28.12 L 300.00 21.09 L 241.41 28.12 L 367.97 0.00 L 222.66 86.72 L 360.94 44.53 L 250.78 112.50 L 276.56 114.84 L 351.56 98.44 L 241.41 154.69 L 363.28 121.88 L 248.44 189.84 L 332.81 166.41 L 257.81 229.69" stroke="black" fill="transparent"/>
	<path d = "M 302.34 307.03 L 342.19 264.84 L 421.88 208.59 L 543.75 157.03 L 534.38 180.47 L 534.38 225.00 L 543.75 257.81 L 503.91 131.25 L 506.25 227.34 L 457.03 126.56 L 457.03 217.97 L 428.91 171.09 L 440.62 246.09 L 414.84 189.84 L 407.81 185.16 L 403.12 253.12 L 363.28 208.59 L 344.53 201.56 L 335.16 213.28 L 335.16 239.06 L 344.53 283.59" stroke="black" fill="transparent"/>
</svg>