<?xml version="1.0" encoding="UTF-8" standalone="no"?>
<!--Created with ndjsontosvg (https:https://github.com/thompson318/ndjsontosvg) 
	from the simplified Google quickdraw data set. key_id = 4998107840380928-->
<svg width="600" height="600"
	xmlns="http://www.w3.org/2000/svg">
	xmlns:ndjsontosvg="https://github.com/thompson318/ndjsontosvg"
	xmlns:quickdraw="https://quickdraw.withgoogle.com/data"
	xmlns:scikit-surgery="https://doi.org/10.1007/s11548-020-02180-5">

	<rect width="100%" height="100%" fill="white" />
	<path d = "M 0.00 178.12 L 18.75 203.91 L 37.50 255.47 L 49.22 342.19 L 42.19 508.59 L 18.75 576.56" stroke="black" fill="transparent"/>
	<path d = "M 194.53 161.72 L 157.03 178.12 L 133.59 203.91 L 105.47 295.31 L 110.16 386.72 L 159.38 597.66" stroke="black" fill="transparent"/>
	<path d = "M 171.09 145.31 L 229.69 161.72 L 260.16 178.12 L 335.16 260.16 L 372.66 314.06 L 372.66 210.94 L 342.19 168.75 L 300.00 133.59 L 236.72 91.41 L 185.16 77.34 L 140.62 79.69 L 107.81 105.47 L 166.41 72.66 L 248.44 39.84 L 278.91 32.81 L 360.94 42.19 L 407.81 70.31 L 466.41 166.41 L 447.66 121.88 L 400.78 49.22 L 367.97 16.41 L 332.81 2.34 L 248.44 2.34 L 133.59 28.12 L 96.09 53.91 L 49.22 133.59" stroke="black" fill="transparent"/>
</svg>