<?xml version="1.0" encoding="UTF-8" standalone="no"?>
<!--Created with ndjsontosvg (https:https://github.com/thompson318/ndjsontosvg) 
	from the simplified Google quickdraw data set. key_id = 6606071961485312-->
<svg width="600" height="600"
	xmlns="http://www.w3.org/2000/svg">
	xmlns:ndjsontosvg="https://github.com/thompson318/ndjsontosvg"
	xmlns:quickdraw="https://quickdraw.withgoogle.com/data"
	xmlns:scikit-surgery="https://doi.org/10.1007/s11548-020-02180-5">

	<rect width="100%" height="100%" fill="white" />
	<path d = "M 297.66 257.81 L 332.81 597.66" stroke="black" fill="transparent"/>
	<path d = "M 302.34 311.72 L 276.56 234.38 L 246.09 203.91 L 206.25 192.19 L 135.94 196.88 L 72.66 220.31 L 39.84 243.75 L 28.12 262.50 L 42.19 307.03 L 77.34 356.25 L 89.06 363.28" stroke="black" fill="transparent"/>
	<path d = "M 281.25 255.47 L 274.22 243.75 L 278.91 227.34 L 316.41 178.12 L 367.97 145.31 L 445.31 126.56 L 485.16 126.56 L 522.66 150.00 L 550.78 201.56 L 553.12 225.00" stroke="black" fill="transparent"/>
	<path d = "M 234.38 171.09 L 267.19 201.56 L 290.62 135.94 L 330.47 91.41 L 377.34 56.25 L 471.09 9.38 L 503.91 0.00 L 534.38 4.69 L 557.81 23.44 L 567.19 49.22" stroke="black" fill="transparent"/>
	<path d = "M 239.06 206.25 L 180.47 114.84 L 152.34 93.75 L 107.81 77.34 L 67.97 84.38 L 35.16 107.81 L 4.69 142.97 L 0.00 154.69 L 11.72 157.03" stroke="black" fill="transparent"/>
	<path d = "M 262.50 192.19 L 255.47 185.16 L 250.78 157.03 L 248.44 7.03" stroke="black" fill="transparent"/>
</svg>