<?xml version="1.0" encoding="UTF-8" standalone="no"?>
<!--Created with ndjsontosvg (https:https://github.com/thompson318/ndjsontosvg) 
	from the simplified Google quickdraw data set. key_id = 6561281622409216-->
<svg width="600" height="600"
	xmlns="http://www.w3.org/2000/svg">
	xmlns:ndjsontosvg="https://github.com/thompson318/ndjsontosvg"
	xmlns:quickdraw="https://quickdraw.withgoogle.com/data"
	xmlns:scikit-surgery="https://doi.org/10.1007/s11548-020-02180-5">

	<rect width="100%" height="100%" fill="white" />
	<path d = "M 257.81 187.50 L 246.09 220.31 L 225.00 372.66 L 222.66 452.34 L 208.59 515.62 L 173.44 581.25 L 135.94 595.31" stroke="black" fill="transparent"/>
	<path d = "M 375.00 206.25 L 351.56 384.38 L 349.22 466.41 L 375.00 529.69 L 419.53 569.53" stroke="black" fill="transparent"/>
	<path d = "M 377.34 206.25 L 311.72 206.25 L 262.50 194.53 L 229.69 154.69 L 187.50 133.59 L 107.81 145.31 L 32.81 180.47 L 0.00 206.25 L 2.34 199.22 L 91.41 91.41 L 140.62 63.28 L 192.19 75.00 L 222.66 98.44 L 257.81 140.62 L 271.88 189.84 L 278.91 180.47 L 292.97 98.44 L 321.09 46.88 L 351.56 18.75 L 382.03 2.34 L 424.22 0.00 L 421.88 9.38 L 335.16 84.38 L 307.03 119.53 L 278.91 220.31 L 335.16 164.06 L 393.75 124.22 L 442.97 98.44 L 482.81 91.41 L 513.28 107.81 L 546.09 133.59 L 576.56 192.19 L 583.59 227.34" stroke="black" fill="transparent"/>
</svg>