<?xml version="1.0" encoding="UTF-8" standalone="no"?>
<!--Created with ndjsontosvg (https:https://github.com/thompson318/ndjsontosvg) 
	from the simplified Google quickdraw data set. key_id = 5592536884183040-->
<svg width="600" height="600"
	xmlns="http://www.w3.org/2000/svg">
	xmlns:ndjsontosvg="https://github.com/thompson318/ndjsontosvg"
	xmlns:quickdraw="https://quickdraw.withgoogle.com/data"
	xmlns:scikit-surgery="https://doi.org/10.1007/s11548-020-02180-5">

	<rect width="100%" height="100%" fill="white" />
	<path d = "M 63.28 173.44 L 51.56 175.78 L 46.88 166.41 L 37.50 79.69 L 89.06 39.84 L 119.53 44.53 L 140.62 67.97 L 138.28 159.38" stroke="black" fill="transparent"/>
	<path d = "M 217.97 166.41 L 208.59 161.72 L 203.91 135.94 L 210.94 46.88 L 227.34 21.09 L 269.53 0.00 L 290.62 4.69 L 314.06 25.78 L 342.19 91.41 L 342.19 126.56 L 349.22 145.31" stroke="black" fill="transparent"/>
	<path d = "M 53.91 180.47 L 171.09 164.06 L 285.94 173.44 L 349.22 164.06 L 384.38 150.00" stroke="black" fill="transparent"/>
	<path d = "M 65.62 185.16 L 44.53 187.50 L 32.81 199.22 L 0.00 290.62 L 53.91 473.44 L 112.50 543.75 L 161.72 578.91 L 213.28 595.31 L 300.00 592.97 L 372.66 555.47 L 417.19 506.25 L 468.75 304.69 L 471.09 269.53 L 459.38 203.91 L 426.56 133.59 L 414.84 126.56 L 400.78 128.91" stroke="black" fill="transparent"/>
	<path d = "M 124.22 271.88 L 133.59 255.47 L 152.34 253.12 L 187.50 278.91 L 196.88 325.78 L 175.78 358.59 L 133.59 360.94 L 110.16 346.88 L 98.44 323.44 L 110.16 269.53 L 131.25 255.47 L 154.69 250.78" stroke="black" fill="transparent"/>
	<path d = "M 349.22 234.38 L 321.09 243.75 L 288.28 288.28 L 278.91 314.06 L 285.94 353.91 L 295.31 367.97 L 311.72 384.38 L 337.50 384.38 L 372.66 358.59 L 382.03 337.50 L 382.03 307.03 L 372.66 278.91 L 346.88 248.44 L 330.47 241.41 L 309.38 246.09" stroke="black" fill="transparent"/>
	<path d = "M 248.44 332.81 L 250.78 410.16" stroke="black" fill="transparent"/>
</svg>