<?xml version="1.0" encoding="UTF-8" standalone="no"?>
<!--Created with ndjsontosvg (https:https://github.com/thompson318/ndjsontosvg) 
	from the simplified Google quickdraw data set. key_id = 4729914781597696-->
<svg width="600" height="600"
	xmlns="http://www.w3.org/2000/svg">
	xmlns:ndjsontosvg="https://github.com/thompson318/ndjsontosvg"
	xmlns:quickdraw="https://quickdraw.withgoogle.com/data"
	xmlns:scikit-surgery="https://doi.org/10.1007/s11548-020-02180-5">

	<rect width="100%" height="100%" fill="white" />
	<path d = "M 339.84 220.31 L 321.09 201.56 L 295.31 192.19 L 182.81 192.19 L 91.41 239.06 L 28.12 302.34 L 0.00 367.97 L 0.00 421.88 L 7.03 447.66 L 39.84 489.84 L 89.06 536.72 L 145.31 567.19 L 208.59 590.62 L 278.91 597.66 L 391.41 595.31 L 494.53 550.78 L 541.41 506.25 L 557.81 480.47 L 581.25 428.91 L 585.94 342.19 L 548.44 271.88 L 508.59 234.38 L 457.03 203.91 L 407.81 192.19 L 302.34 194.53" stroke="black" fill="transparent"/>
	<path d = "M 459.38 168.75 L 426.56 166.41 L 417.19 145.31 L 421.88 65.62 L 454.69 23.44 L 475.78 7.03 L 520.31 0.00 L 536.72 7.03 L 550.78 49.22 L 555.47 166.41 L 539.06 232.03 L 517.97 267.19" stroke="black" fill="transparent"/>
	<path d = "M 217.97 194.53 L 206.25 187.50 L 189.84 133.59 L 159.38 98.44 L 119.53 75.00 L 67.97 70.31 L 35.16 157.03 L 35.16 210.94 L 56.25 255.47 L 82.03 283.59" stroke="black" fill="transparent"/>
	<path d = "M 217.97 290.62 L 173.44 295.31 L 145.31 330.47 L 145.31 342.19 L 175.78 363.28 L 215.62 363.28 L 239.06 349.22 L 250.78 332.81 L 246.09 318.75 L 217.97 314.06 L 168.75 316.41 L 152.34 328.12 L 159.38 346.88 L 222.66 346.88 L 236.72 323.44 L 236.72 300.00 L 215.62 285.94 L 189.84 285.94 L 175.78 300.00 L 175.78 314.06 L 215.62 330.47 L 222.66 311.72 L 192.19 309.38 L 171.09 318.75 L 166.41 337.50 L 189.84 344.53 L 206.25 325.78 L 206.25 311.72 L 182.81 309.38 L 171.09 330.47 L 201.56 337.50" stroke="black" fill="transparent"/>
	<path d = "M 396.09 292.97 L 377.34 285.94 L 318.75 285.94 L 311.72 328.12 L 328.12 346.88 L 410.16 356.25 L 424.22 351.56 L 435.94 335.16 L 421.88 318.75 L 403.12 314.06 L 339.84 314.06 L 323.44 328.12 L 328.12 356.25 L 356.25 360.94" stroke="black" fill="transparent"/>
</svg>