<?xml version="1.0" encoding="UTF-8" standalone="no"?>
<!--Created with ndjsontosvg (https:https://github.com/thompson318/ndjsontosvg) 
	from the simplified Google quickdraw data set. key_id = 5142094207254528-->
<svg width="600" height="600"
	xmlns="http://www.w3.org/2000/svg">
	xmlns:ndjsontosvg="https://github.com/thompson318/ndjsontosvg"
	xmlns:quickdraw="https://quickdraw.withgoogle.com/data"
	xmlns:scikit-surgery="https://doi.org/10.1007/s11548-020-02180-5">

	<rect width="100%" height="100%" fill="white" />
	<path d = "M 79.69 131.25 L 77.34 112.50 L 98.44 23.44 L 114.84 2.34 L 135.94 0.00 L 150.00 9.38 L 227.34 112.50" stroke="black" fill="transparent"/>
	<path d = "M 400.78 142.97 L 419.53 56.25 L 438.28 23.44 L 457.03 28.12 L 506.25 121.88" stroke="black" fill="transparent"/>
	<path d = "M 435.94 471.09 L 363.28 489.84 L 295.31 496.88 L 201.56 496.88 L 121.88 478.12 L 86.72 459.38 L 32.81 405.47 L 4.69 337.50 L 0.00 274.22 L 37.50 203.91 L 72.66 175.78 L 154.69 131.25 L 300.00 98.44 L 442.97 96.09 L 527.34 124.22 L 560.16 145.31 L 581.25 171.09 L 597.66 227.34 L 597.66 257.81 L 585.94 288.28 L 532.03 351.56 L 450.00 410.16 L 367.97 445.31 L 300.00 457.03" stroke="black" fill="transparent"/>
	<path d = "M 236.72 227.34 L 229.69 234.38 L 210.94 234.38 L 208.59 187.50 L 222.66 182.81 L 239.06 201.56" stroke="black" fill="transparent"/>
	<path d = "M 398.44 164.06 L 379.69 201.56 L 372.66 201.56 L 372.66 171.09 L 379.69 182.81 L 382.03 203.91" stroke="black" fill="transparent"/>
	<path d = "M 257.81 342.19 L 351.56 316.41 L 377.34 318.75 L 375.00 344.53 L 353.91 396.09 L 332.81 417.19 L 302.34 426.56 L 276.56 426.56 L 264.84 419.53 L 253.12 379.69 L 257.81 342.19" stroke="black" fill="transparent"/>
	<path d = "M 166.41 314.06 L 147.66 332.81 L 126.56 328.12 L 112.50 281.25 L 110.16 196.88 L 121.88 192.19 L 138.28 210.94 L 168.75 281.25 L 173.44 316.41 L 173.44 344.53 L 164.06 363.28 L 150.00 375.00 L 119.53 370.31 L 103.12 295.31 L 103.12 241.41 L 124.22 182.81 L 157.03 182.81 L 187.50 229.69 L 196.88 274.22 L 187.50 302.34 L 152.34 325.78 L 119.53 323.44 L 107.81 295.31 L 105.47 229.69 L 112.50 222.66 L 131.25 222.66 L 147.66 271.88 L 147.66 328.12 L 133.59 330.47 L 124.22 307.03 L 121.88 234.38 L 140.62 199.22 L 161.72 201.56 L 175.78 250.78 L 175.78 297.66 L 164.06 325.78 L 157.03 330.47 L 152.34 311.72 L 154.69 260.16 L 166.41 243.75 L 175.78 276.56 L 178.12 332.81" stroke="black" fill="transparent"/>
	<path d = "M 424.22 236.72 L 391.41 262.50 L 363.28 262.50 L 339.84 192.19 L 344.53 150.00 L 353.91 140.62 L 384.38 147.66 L 400.78 173.44 L 417.19 250.78 L 417.19 274.22 L 400.78 274.22 L 384.38 227.34 L 382.03 180.47 L 391.41 168.75 L 407.81 166.41 L 421.88 189.84 L 417.19 227.34 L 403.12 248.44 L 389.06 257.81 L 372.66 253.12 L 370.31 173.44 L 393.75 140.62 L 421.88 142.97 L 435.94 164.06 L 442.97 232.03" stroke="black" fill="transparent"/>
</svg>