<?xml version="1.0" encoding="UTF-8" standalone="no"?>
<!--Created with ndjsontosvg (https:https://github.com/thompson318/ndjsontosvg) 
	from the simplified Google quickdraw data set. key_id = 5173959152631808-->
<svg width="600" height="600"
	xmlns="http://www.w3.org/2000/svg">
	xmlns:ndjsontosvg="https://github.com/thompson318/ndjsontosvg"
	xmlns:quickdraw="https://quickdraw.withgoogle.com/data"
	xmlns:scikit-surgery="https://doi.org/10.1007/s11548-020-02180-5">

	<rect width="100%" height="100%" fill="white" />
	<path d = "M 171.09 117.19 L 173.44 96.09 L 161.72 72.66 L 119.53 42.19 L 70.31 42.19 L 37.50 65.62 L 37.50 84.38 L 67.97 135.94 L 77.34 178.12 L 77.34 234.38 L 53.91 323.44 L 49.22 424.22 L 51.56 445.31 L 72.66 482.81 L 124.22 532.03 L 192.19 578.91 L 239.06 595.31 L 335.16 597.66 L 398.44 581.25 L 440.62 553.12 L 489.84 485.16 L 517.97 407.81 L 527.34 344.53 L 520.31 295.31 L 473.44 208.59 L 459.38 164.06 L 464.06 140.62 L 485.16 86.72 L 492.19 18.75 L 471.09 0.00 L 433.59 2.34 L 405.47 14.06 L 375.00 32.81 L 337.50 91.41 L 302.34 110.16 L 264.84 119.53 L 157.03 114.84" stroke="black" fill="transparent"/>
	<path d = "M 412.50 173.44 L 403.12 168.75 L 382.03 178.12 L 360.94 208.59 L 356.25 227.34 L 382.03 243.75 L 424.22 243.75 L 435.94 222.66 L 433.59 199.22 L 407.81 185.16 L 377.34 185.16 L 363.28 194.53 L 351.56 213.28 L 353.91 236.72 L 375.00 250.78 L 393.75 248.44 L 403.12 241.41 L 407.81 206.25 L 391.41 185.16" stroke="black" fill="transparent"/>
	<path d = "M 199.22 210.94 L 194.53 201.56 L 178.12 201.56 L 157.03 222.66 L 154.69 253.12 L 171.09 262.50 L 187.50 255.47 L 201.56 239.06 L 201.56 208.59 L 180.47 196.88 L 147.66 199.22" stroke="black" fill="transparent"/>
	<path d = "M 185.16 192.19 L 182.81 239.06 L 199.22 264.84" stroke="black" fill="transparent"/>
	<path d = "M 445.31 508.59 L 400.78 529.69 L 295.31 534.38 L 267.19 527.34 L 234.38 508.59" stroke="black" fill="transparent"/>
	<path d = "M 208.59 75.00 L 229.69 93.75 L 260.16 161.72 L 271.88 264.84 L 260.16 295.31 L 210.94 339.84 L 152.34 356.25 L 56.25 353.91 L 0.00 337.50" stroke="black" fill="transparent"/>
</svg>