<?xml version="1.0" encoding="UTF-8" standalone="no"?>
<!--Created with ndjsontosvg (https:https://github.com/thompson318/ndjsontosvg) 
	from the simplified Google quickdraw data set. key_id = 6628642647965696-->
<svg width="600" height="600"
	xmlns="http://www.w3.org/2000/svg">
	xmlns:ndjsontosvg="https://github.com/thompson318/ndjsontosvg"
	xmlns:quickdraw="https://quickdraw.withgoogle.com/data"
	xmlns:scikit-surgery="https://doi.org/10.1007/s11548-020-02180-5">

	<rect width="100%" height="100%" fill="white" />
	<path d = "M 18.75 0.00 L 18.75 100.78 L 35.16 140.62 L 58.59 161.72 L 98.44 164.06 L 107.81 140.62 L 103.12 75.00 L 28.12 11.72 L 11.72 11.72 L 0.00 35.16 L 0.00 112.50 L 14.06 128.91 L 32.81 133.59 L 53.91 117.19 L 53.91 63.28 L 58.59 86.72 L 51.56 30.47 L 39.84 4.69 L 46.88 103.12 L 60.94 142.97 L 105.47 147.66 L 119.53 117.19 L 119.53 96.09 L 93.75 86.72 L 51.56 133.59 L 72.66 119.53 L 138.28 133.59" stroke="black" fill="transparent"/>
	<path d = "M 253.12 100.78 L 161.72 103.12 L 140.62 119.53 L 107.81 171.09 L 105.47 318.75 L 124.22 339.84 L 131.25 384.38 L 131.25 445.31 L 119.53 471.09 L 119.53 508.59 L 208.59 546.09 L 285.94 557.81 L 367.97 557.81 L 412.50 550.78 L 457.03 532.03 L 546.09 464.06 L 564.84 438.28 L 571.88 410.16 L 576.56 342.19 L 562.50 314.06 L 550.78 260.16 L 522.66 217.97 L 457.03 152.34 L 379.69 107.81 L 307.03 91.41 L 269.53 98.44 L 335.16 86.72 L 391.41 67.97 L 515.62 67.97 L 553.12 79.69 L 585.94 107.81 L 597.66 168.75 L 585.94 201.56 L 464.06 203.91 L 421.88 161.72 L 442.97 154.69 L 527.34 194.53 L 522.66 166.41 L 503.91 147.66 L 442.97 124.22 L 525.00 159.38 L 557.81 147.66 L 520.31 82.03 L 414.84 16.41 L 396.09 14.06 L 386.72 35.16 L 403.12 103.12 L 424.22 138.28 L 492.19 180.47 L 510.94 180.47 L 506.25 145.31 L 384.38 93.75 L 351.56 93.75 L 332.81 117.19 L 337.50 164.06 L 375.00 185.16 L 412.50 185.16 L 419.53 192.19" stroke="black" fill="transparent"/>
	<path d = "M 194.53 243.75 L 217.97 248.44 L 220.31 307.03 L 220.31 236.72 L 199.22 225.00 L 187.50 243.75 L 187.50 332.81 L 208.59 337.50 L 250.78 335.16 L 260.16 314.06 L 264.84 250.78 L 239.06 239.06 L 203.91 274.22 L 180.47 316.41 L 173.44 360.94 L 222.66 365.62 L 260.16 311.72 L 271.88 271.88 L 246.09 288.28 L 215.62 276.56 L 213.28 292.97" stroke="black" fill="transparent"/>
</svg>