<?xml version="1.0" encoding="UTF-8" standalone="no"?>
<!--Created with ndjsontosvg (https:https://github.com/thompson318/ndjsontosvg) 
	from the simplified Google quickdraw data set. key_id = 5247591870627840-->
<svg width="600" height="600"
	xmlns="http://www.w3.org/2000/svg">
	xmlns:ndjsontosvg="https://github.com/thompson318/ndjsontosvg"
	xmlns:quickdraw="https://quickdraw.withgoogle.com/data"
	xmlns:scikit-surgery="https://doi.org/10.1007/s11548-020-02180-5">

	<rect width="100%" height="100%" fill="white" />
	<path d = "M 349.22 0.00 L 225.00 7.03 L 138.28 28.12 L 131.25 147.66 L 171.09 194.53 L 222.66 227.34 L 278.91 250.78 L 398.44 253.12 L 464.06 222.66 L 496.88 194.53 L 503.91 182.81 L 503.91 124.22 L 454.69 37.50 L 424.22 11.72 L 375.00 11.72" stroke="black" fill="transparent"/>
	<path d = "M 161.72 203.91 L 112.50 220.31 L 89.06 248.44 L 89.06 295.31 L 72.66 358.59 L 72.66 398.44 L 93.75 557.81 L 107.81 564.84 L 182.81 567.19 L 356.25 597.66 L 426.56 597.66 L 435.94 576.56 L 459.38 553.12 L 506.25 527.34 L 536.72 459.38 L 543.75 382.03 L 525.00 339.84 L 513.28 278.91 L 487.50 239.06 L 454.69 213.28" stroke="black" fill="transparent"/>
	<path d = "M 98.44 243.75 L 77.34 243.75 L 51.56 260.16 L 0.00 328.12 L 0.00 412.50 L 21.09 442.97 L 42.19 454.69 L 72.66 464.06 L 117.19 464.06 L 171.09 447.66 L 178.12 435.94 L 171.09 375.00 L 100.78 246.09" stroke="black" fill="transparent"/>
	<path d = "M 445.31 304.69 L 447.66 365.62 L 466.41 393.75 L 475.78 419.53 L 548.44 459.38 L 588.28 452.34 L 592.97 428.91 L 525.00 323.44" stroke="black" fill="transparent"/>
	<path d = "M 267.19 67.97 L 222.66 67.97 L 178.12 93.75 L 178.12 119.53 L 189.84 145.31 L 229.69 171.09 L 330.47 180.47 L 316.41 107.81 L 295.31 82.03" stroke="black" fill="transparent"/>
</svg>