<?xml version="1.0" encoding="UTF-8" standalone="no"?>
<!--Created with ndjsontosvg (https:https://github.com/thompson318/ndjsontosvg) 
	from the simplified Google quickdraw data set. key_id = 4842254483062784-->
<svg width="600" height="600"
	xmlns="http://www.w3.org/2000/svg">
	xmlns:ndjsontosvg="https://github.com/thompson318/ndjsontosvg"
	xmlns:quickdraw="https://quickdraw.withgoogle.com/data"
	xmlns:scikit-surgery="https://doi.org/10.1007/s11548-020-02180-5">

	<rect width="100%" height="100%" fill="white" />
	<path d = "M 152.34 555.47 L 84.38 522.66 L 56.25 494.53 L 28.12 450.00 L 2.34 365.62 L 2.34 271.88 L 9.38 243.75 L 39.84 192.19 L 84.38 152.34 L 140.62 124.22 L 203.91 105.47 L 307.03 107.81 L 400.78 147.66 L 457.03 192.19 L 496.88 241.41 L 515.62 288.28 L 522.66 367.97 L 508.59 414.84 L 475.78 464.06 L 428.91 510.94 L 367.97 553.12 L 302.34 581.25 L 217.97 597.66 L 128.91 595.31 L 82.03 583.59 L 51.56 564.84" stroke="black" fill="transparent"/>
	<path d = "M 53.91 206.25 L 25.78 187.50 L 14.06 157.03 L 7.03 110.16 L 11.72 63.28 L 44.53 32.81 L 72.66 25.78 L 119.53 32.81 L 147.66 60.94 L 189.84 135.94" stroke="black" fill="transparent"/>
	<path d = "M 360.94 119.53 L 346.88 103.12 L 346.88 86.72 L 346.88 65.62 L 365.62 42.19 L 407.81 7.03 L 468.75 2.34 L 489.84 25.78 L 489.84 72.66 L 473.44 119.53 L 438.28 166.41" stroke="black" fill="transparent"/>
	<path d = "M 166.41 297.66 L 152.34 297.66 L 171.09 297.66 L 173.44 285.94 L 166.41 285.94 L 161.72 295.31" stroke="black" fill="transparent"/>
	<path d = "M 332.81 288.28 L 335.16 292.97 L 323.44 283.59" stroke="black" fill="transparent"/>
	<path d = "M 119.53 236.72 L 105.47 243.75 L 98.44 271.88 L 100.78 311.72 L 112.50 328.12 L 152.34 351.56 L 217.97 356.25 L 236.72 339.84 L 255.47 297.66 L 250.78 248.44 L 234.38 229.69 L 196.88 215.62 L 164.06 215.62 L 152.34 225.00" stroke="black" fill="transparent"/>
	<path d = "M 318.75 201.56 L 290.62 208.59 L 269.53 239.06 L 260.16 281.25 L 264.84 300.00 L 278.91 316.41 L 323.44 337.50 L 377.34 342.19 L 405.47 332.81 L 431.25 309.38 L 459.38 269.53 L 464.06 243.75 L 464.06 222.66 L 438.28 192.19 L 410.16 182.81 L 356.25 180.47 L 323.44 194.53 L 309.38 213.28" stroke="black" fill="transparent"/>
	<path d = "M 260.16 403.12 L 260.16 421.88 L 269.53 424.22 L 271.88 414.84 L 253.12 407.81 L 264.84 417.19 L 264.84 438.28 L 278.91 503.91 L 260.16 527.34 L 232.03 539.06 L 210.94 541.41 L 206.25 520.31" stroke="black" fill="transparent"/>
	<path d = "M 276.56 428.91 L 276.56 428.91" stroke="black" fill="transparent"/>
</svg>