<?xml version="1.0" encoding="UTF-8" standalone="no"?>
<!--Created with ndjsontosvg (https:https://github.com/thompson318/ndjsontosvg) 
	from the simplified Google quickdraw data set. key_id = 4585501052895232-->
<svg width="600" height="600"
	xmlns="http://www.w3.org/2000/svg">
	xmlns:ndjsontosvg="https://github.com/thompson318/ndjsontosvg"
	xmlns:quickdraw="https://quickdraw.withgoogle.com/data"
	xmlns:scikit-surgery="https://doi.org/10.1007/s11548-020-02180-5">

	<rect width="100%" height="100%" fill="white" />
	<path d = "M 124.22 49.22 L 117.19 110.16 L 100.78 145.31 L 79.69 292.97 L 42.19 450.00 L 18.75 468.75 L 0.00 515.62 L 14.06 520.31 L 98.44 520.31 L 161.72 534.38 L 168.75 520.31 L 166.41 489.84 L 194.53 452.34 L 213.28 377.34 L 243.75 147.66 L 264.84 145.31 L 328.12 147.66 L 332.81 187.50 L 349.22 222.66 L 365.62 311.72 L 370.31 513.28 L 384.38 515.62 L 407.81 496.88 L 508.59 492.19 L 581.25 494.53 L 595.31 503.91 L 588.28 419.53 L 564.84 375.00 L 529.69 213.28 L 510.94 86.72 L 489.84 42.19 L 492.19 4.69 L 405.47 0.00" stroke="black" fill="transparent"/>
</svg>