<?xml version="1.0" encoding="UTF-8" standalone="no"?>
<!--Created with ndjsontosvg (https:https://github.com/thompson318/ndjsontosvg) 
	from the simplified Google quickdraw data set. key_id = 5111666222039040-->
<svg width="600" height="600"
	xmlns="http://www.w3.org/2000/svg">
	xmlns:ndjsontosvg="https://github.com/thompson318/ndjsontosvg"
	xmlns:quickdraw="https://quickdraw.withgoogle.com/data"
	xmlns:scikit-surgery="https://doi.org/10.1007/s11548-020-02180-5">

	<rect width="100%" height="100%" fill="white" />
	<path d = "M 16.41 433.59 L 0.00 161.72 L 4.69 124.22 L 23.44 107.81 L 150.00 75.00 L 379.69 0.00 L 445.31 7.03 L 482.81 39.84 L 487.50 65.62 L 459.38 260.16 L 445.31 487.50 L 431.25 510.94 L 321.09 583.59 L 297.66 585.94 L 281.25 560.16 L 260.16 360.94 L 246.09 288.28 L 225.00 241.41 L 210.94 234.38 L 196.88 236.72 L 164.06 290.62 L 147.66 412.50 L 152.34 553.12 L 114.84 595.31 L 46.88 592.97 L 14.06 541.41 L 4.69 480.47 L 11.72 332.81" stroke="black" fill="transparent"/>
</svg>