<?xml version="1.0" encoding="UTF-8" standalone="no"?>
<!--Created with ndjsontosvg (https:https://github.com/thompson318/ndjsontosvg) 
	from the simplified Google quickdraw data set. key_id = 6110349700890624-->
<svg width="600" height="600"
	xmlns="http://www.w3.org/2000/svg">
	xmlns:ndjsontosvg="https://github.com/thompson318/ndjsontosvg"
	xmlns:quickdraw="https://quickdraw.withgoogle.com/data"
	xmlns:scikit-surgery="https://doi.org/10.1007/s11548-020-02180-5">

	<rect width="100%" height="100%" fill="white" />
	<path d = "M 0.00 447.66 L 7.03 253.12 L 18.75 196.88 L 65.62 72.66 L 93.75 21.09 L 131.25 0.00 L 173.44 23.44 L 210.94 107.81 L 232.03 178.12 L 232.03 255.47 L 217.97 386.72 L 196.88 414.84 L 152.34 438.28 L 133.59 393.75 L 131.25 314.06 L 161.72 234.38 L 161.72 201.56 L 140.62 154.69 L 114.84 152.34 L 84.38 166.41 L 56.25 227.34 L 51.56 250.78 L 56.25 250.78" stroke="black" fill="transparent"/>
	<path d = "M 499.22 14.06 L 435.94 159.38 L 428.91 194.53 L 433.59 220.31 L 454.69 255.47 L 485.16 278.91 L 510.94 278.91 L 543.75 253.12 L 574.22 215.62 L 592.97 171.09 L 597.66 135.94 L 597.66 100.78 L 578.91 63.28 L 532.03 9.38 L 513.28 4.69 L 513.28 9.38" stroke="black" fill="transparent"/>
</svg>