<?xml version="1.0" encoding="UTF-8" standalone="no"?>
<!--Created with ndjsontosvg (https:https://github.com/thompson318/ndjsontosvg) 
	from the simplified Google quickdraw data set. key_id = 5427969189216256-->
<svg width="600" height="600"
	xmlns="http://www.w3.org/2000/svg">
	xmlns:ndjsontosvg="https://github.com/thompson318/ndjsontosvg"
	xmlns:quickdraw="https://quickdraw.withgoogle.com/data"
	xmlns:scikit-surgery="https://doi.org/10.1007/s11548-020-02180-5">

	<rect width="100%" height="100%" fill="white" />
	<path d = "M 346.88 0.00 L 295.31 0.00 L 175.78 21.09 L 65.62 53.91 L 28.12 77.34 L 9.38 98.44 L 0.00 126.56 L 0.00 161.72 L 11.72 194.53 L 28.12 201.56 L 157.03 206.25 L 227.34 194.53 L 372.66 150.00 L 442.97 117.19 L 452.34 91.41 L 445.31 75.00 L 384.38 70.31 L 278.91 100.78 L 98.44 138.28 L 82.03 135.94 L 77.34 110.16 L 110.16 93.75 L 161.72 79.69" stroke="black" fill="transparent"/>
	<path d = "M 532.03 180.47 L 555.47 264.84" stroke="black" fill="transparent"/>
	<path d = "M 525.00 152.34 L 517.97 114.84" stroke="black" fill="transparent"/>
	<path d = "M 525.00 135.94 L 541.41 138.28 L 597.66 107.81" stroke="black" fill="transparent"/>
</svg>