<?xml version="1.0" encoding="UTF-8" standalone="no"?>
<!--Created with ndjsontosvg (https:https://github.com/thompson318/ndjsontosvg) 
	from the simplified Google quickdraw data set. key_id = 6060371938902016-->
<svg width="600" height="600"
	xmlns="http://www.w3.org/2000/svg">
	xmlns:ndjsontosvg="https://github.com/thompson318/ndjsontosvg"
	xmlns:quickdraw="https://quickdraw.withgoogle.com/data"
	xmlns:scikit-surgery="https://doi.org/10.1007/s11548-020-02180-5">

	<rect width="100%" height="100%" fill="white" />
	<path d = "M 46.88 100.78 L 46.88 100.78" stroke="black" fill="transparent"/>
	<path d = "M 225.00 16.41 L 128.91 14.06 L 77.34 39.84 L 44.53 89.06 L 0.00 227.34 L 0.00 309.38 L 16.41 412.50 L 32.81 466.41 L 72.66 543.75 L 110.16 585.94 L 126.56 595.31 L 161.72 597.66 L 187.50 588.28 L 215.62 567.19 L 285.94 450.00 L 309.38 379.69 L 311.72 288.28 L 290.62 189.84 L 257.81 131.25 L 225.00 46.88 L 196.88 0.00" stroke="black" fill="transparent"/>
	<path d = "M 84.38 157.03 L 84.38 288.28 L 103.12 344.53 L 128.91 375.00 L 145.31 384.38 L 178.12 382.03 L 196.88 363.28 L 213.28 323.44 L 213.28 246.09 L 189.84 196.88 L 180.47 152.34 L 161.72 208.59 L 161.72 276.56" stroke="black" fill="transparent"/>
</svg>