<?xml version="1.0" encoding="UTF-8" standalone="no"?>
<!--Created with ndjsontosvg (https:https://github.com/thompson318/ndjsontosvg) 
	from the simplified Google quickdraw data set. key_id = 4535012135272448-->
<svg width="600" height="600"
	xmlns="http://www.w3.org/2000/svg">
	xmlns:ndjsontosvg="https://github.com/thompson318/ndjsontosvg"
	xmlns:quickdraw="https://quickdraw.withgoogle.com/data"
	xmlns:scikit-surgery="https://doi.org/10.1007/s11548-020-02180-5">

	<rect width="100%" height="100%" fill="white" />
	<path d = "M 0.00 166.41 L 49.22 117.19 L 75.00 100.78 L 234.38 23.44 L 304.69 2.34 L 377.34 2.34 L 445.31 37.50 L 480.47 77.34 L 513.28 217.97 L 412.50 356.25 L 344.53 468.75 L 290.62 597.66 L 278.91 595.31" stroke="black" fill="transparent"/>
	<path d = "M 2.34 168.75 L 28.12 196.88 L 126.56 407.81 L 246.09 581.25" stroke="black" fill="transparent"/>
	<path d = "M 187.50 119.53 L 187.50 119.53" stroke="black" fill="transparent"/>
	<path d = "M 63.28 124.22 L 82.03 208.59 L 135.94 363.28 L 161.72 410.16 L 210.94 480.47 L 243.75 595.31" stroke="black" fill="transparent"/>
	<path d = "M 79.69 140.62 L 96.09 142.97 L 208.59 210.94 L 253.12 222.66 L 389.06 225.00 L 435.94 215.62 L 438.28 199.22" stroke="black" fill="transparent"/>
	<path d = "M 201.56 227.34 L 201.56 227.34" stroke="black" fill="transparent"/>
</svg>