<?xml version="1.0" encoding="UTF-8" standalone="no"?>
<!--Created with ndjsontosvg (https:https://github.com/thompson318/ndjsontosvg) 
	from the simplified Google quickdraw data set. key_id = 6542601635233792-->
<svg width="600" height="600"
	xmlns="http://www.w3.org/2000/svg">
	xmlns:ndjsontosvg="https://github.com/thompson318/ndjsontosvg"
	xmlns:quickdraw="https://quickdraw.withgoogle.com/data"
	xmlns:scikit-surgery="https://doi.org/10.1007/s11548-020-02180-5">

	<rect width="100%" height="100%" fill="white" />
	<path d = "M 7.03 264.84 L 2.34 187.50 L 32.81 103.12 L 53.91 77.34 L 126.56 23.44 L 171.09 4.69 L 220.31 0.00 L 267.19 14.06 L 309.38 35.16 L 370.31 96.09 L 410.16 180.47 L 426.56 246.09 L 426.56 285.94 L 417.19 295.31 L 375.00 302.34 L 229.69 309.38 L 7.03 309.38 L 2.34 304.69" stroke="black" fill="transparent"/>
	<path d = "M 86.72 311.72 L 133.59 339.84 L 175.78 393.75 L 220.31 478.12 L 255.47 581.25" stroke="black" fill="transparent"/>
	<path d = "M 375.00 332.81 L 367.97 325.78 L 356.25 330.47 L 321.09 367.97 L 281.25 466.41 L 257.81 548.44 L 250.78 557.81 L 229.69 569.53 L 234.38 562.50" stroke="black" fill="transparent"/>
	<path d = "M 243.75 567.19 L 194.53 562.50 L 152.34 571.88 L 145.31 585.94 L 157.03 597.66" stroke="black" fill="transparent"/>
	<path d = "M 208.59 553.12 L 173.44 571.88 L 173.44 588.28" stroke="black" fill="transparent"/>
	<path d = "M 217.97 539.06 L 185.16 555.47 L 178.12 597.66" stroke="black" fill="transparent"/>
</svg>