<?xml version="1.0" encoding="UTF-8" standalone="no"?>
<!--Created with ndjsontosvg (https:https://github.com/thompson318/ndjsontosvg) 
	from the simplified Google quickdraw data set. key_id = 4639934348525568-->
<svg width="600" height="600"
	xmlns="http://www.w3.org/2000/svg">
	xmlns:ndjsontosvg="https://github.com/thompson318/ndjsontosvg"
	xmlns:quickdraw="https://quickdraw.withgoogle.com/data"
	xmlns:scikit-surgery="https://doi.org/10.1007/s11548-020-02180-5">

	<rect width="100%" height="100%" fill="white" />
	<path d = "M 0.00 79.69 L 91.41 79.69 L 142.97 70.31 L 23.44 91.41 L 14.06 96.09 L 11.72 110.16 L 63.28 168.75 L 131.25 215.62 L 133.59 208.59" stroke="black" fill="transparent"/>
	<path d = "M 271.88 4.69 L 262.50 0.00 L 199.22 9.38 L 168.75 23.44 L 131.25 65.62 L 119.53 93.75 L 114.84 142.97 L 131.25 300.00 L 154.69 403.12 L 178.12 457.03 L 203.91 473.44 L 253.12 480.47 L 290.62 496.88 L 318.75 496.88 L 417.19 450.00 L 478.12 442.97 L 510.94 417.19 L 515.62 403.12 L 522.66 349.22 L 513.28 318.75 L 487.50 300.00 L 417.19 283.59 L 398.44 271.88 L 363.28 227.34 L 316.41 124.22 L 295.31 35.16 L 243.75 9.38 L 271.88 2.34" stroke="black" fill="transparent"/>
	<path d = "M 180.47 147.66 L 180.47 147.66" stroke="black" fill="transparent"/>
	<path d = "M 173.44 147.66 L 173.44 147.66" stroke="black" fill="transparent"/>
	<path d = "M 180.47 138.28 L 180.47 138.28" stroke="black" fill="transparent"/>
	<path d = "M 180.47 126.56 L 171.09 121.88" stroke="black" fill="transparent"/>
	<path d = "M 215.62 480.47 L 203.91 485.16 L 173.44 555.47 L 147.66 597.66" stroke="black" fill="transparent"/>
	<path d = "M 248.44 487.50 L 285.94 576.56" stroke="black" fill="transparent"/>
	<path d = "M 360.94 468.75 L 384.38 517.97 L 405.47 539.06" stroke="black" fill="transparent"/>
</svg>