<?xml version="1.0" encoding="UTF-8" standalone="no"?>
<!--Created with ndjsontosvg (https:https://github.com/thompson318/ndjsontosvg) 
	from the simplified Google quickdraw data set. key_id = 5337279570640896-->
<svg width="600" height="600"
	xmlns="http://www.w3.org/2000/svg">
	xmlns:ndjsontosvg="https://github.com/thompson318/ndjsontosvg"
	xmlns:quickdraw="https://quickdraw.withgoogle.com/data"
	xmlns:scikit-surgery="https://doi.org/10.1007/s11548-020-02180-5">

	<rect width="100%" height="100%" fill="white" />
	<path d = "M 353.91 234.38 L 316.41 246.09 L 297.66 246.09 L 290.62 239.06 L 274.22 142.97 L 278.91 91.41 L 290.62 53.91 L 321.09 18.75 L 351.56 4.69 L 424.22 0.00 L 468.75 4.69 L 503.91 25.78 L 529.69 63.28 L 546.09 105.47 L 550.78 142.97 L 536.72 189.84" stroke="black" fill="transparent"/>
	<path d = "M 288.28 206.25 L 300.00 255.47 L 295.31 302.34 L 255.47 426.56 L 208.59 503.91" stroke="black" fill="transparent"/>
	<path d = "M 318.75 330.47 L 302.34 414.84 L 278.91 464.06 L 323.44 442.97 L 370.31 407.81 L 372.66 421.88 L 351.56 492.19 L 314.06 550.78 L 435.94 438.28 L 424.22 492.19 L 428.91 499.22 L 440.62 499.22 L 485.16 370.31 L 485.16 332.81" stroke="black" fill="transparent"/>
	<path d = "M 215.62 480.47 L 199.22 492.19 L 166.41 492.19 L 72.66 475.78 L 46.88 461.72 L 28.12 473.44 L 42.19 494.53 L 70.31 503.91 L 37.50 494.53 L 16.41 501.56 L 14.06 522.66 L 49.22 541.41 L 11.72 548.44 L 0.00 564.84 L 37.50 595.31 L 72.66 595.31" stroke="black" fill="transparent"/>
</svg>