<?xml version="1.0" encoding="UTF-8" standalone="no"?>
<!--Created with ndjsontosvg (https:https://github.com/thompson318/ndjsontosvg) 
	from the simplified Google quickdraw data set. key_id = 6532428820643840-->
<svg width="600" height="600"
	xmlns="http://www.w3.org/2000/svg">
	xmlns:ndjsontosvg="https://github.com/thompson318/ndjsontosvg"
	xmlns:quickdraw="https://quickdraw.withgoogle.com/data"
	xmlns:scikit-surgery="https://doi.org/10.1007/s11548-020-02180-5">

	<rect width="100%" height="100%" fill="white" />
	<path d = "M 225.00 60.94 L 185.16 121.88 L 227.34 126.56" stroke="black" fill="transparent"/>
	<path d = "M 196.88 121.88 L 225.00 103.12" stroke="black" fill="transparent"/>
	<path d = "M 217.97 56.25 L 220.31 30.47 L 267.19 4.69 L 302.34 0.00 L 323.44 21.09 L 339.84 98.44 L 328.12 217.97" stroke="black" fill="transparent"/>
	<path d = "M 267.19 110.16 L 271.88 180.47 L 300.00 178.12" stroke="black" fill="transparent"/>
	<path d = "M 232.03 142.97 L 229.69 201.56 L 236.72 217.97 L 262.50 222.66 L 321.09 220.31" stroke="black" fill="transparent"/>
	<path d = "M 255.47 227.34 L 227.34 307.03" stroke="black" fill="transparent"/>
	<path d = "M 227.34 300.00 L 178.12 328.12" stroke="black" fill="transparent"/>
	<path d = "M 220.31 307.03 L 220.31 356.25" stroke="black" fill="transparent"/>
	<path d = "M 229.69 318.75 L 250.78 342.19" stroke="black" fill="transparent"/>
	<path d = "M 304.69 234.38 L 300.00 283.59" stroke="black" fill="transparent"/>
	<path d = "M 297.66 295.31 L 269.53 328.12" stroke="black" fill="transparent"/>
	<path d = "M 300.00 300.00 L 314.06 328.12" stroke="black" fill="transparent"/>
	<path d = "M 309.38 300.00 L 332.81 325.78" stroke="black" fill="transparent"/>
	<path d = "M 332.81 210.94 L 365.62 147.66 L 335.16 199.22 L 365.62 192.19 L 349.22 208.59 L 372.66 194.53 L 337.50 215.62" stroke="black" fill="transparent"/>
	<path d = "M 0.00 234.38 L 56.25 227.34 L 297.66 232.03" stroke="black" fill="transparent"/>
	<path d = "M 370.31 208.59 L 393.75 210.94" stroke="black" fill="transparent"/>
	<path d = "M 318.75 220.31 L 318.75 225.00 L 342.19 227.34 L 410.16 220.31 L 597.66 225.00" stroke="black" fill="transparent"/>
</svg>