<?xml version="1.0" encoding="UTF-8" standalone="no"?>
<!--Created with ndjsontosvg (https:https://github.com/thompson318/ndjsontosvg) 
	from the simplified Google quickdraw data set. key_id = 5071787534581760-->
<svg width="600" height="600"
	xmlns="http://www.w3.org/2000/svg">
	xmlns:ndjsontosvg="https://github.com/thompson318/ndjsontosvg"
	xmlns:quickdraw="https://quickdraw.withgoogle.com/data"
	xmlns:scikit-surgery="https://doi.org/10.1007/s11548-020-02180-5">

	<rect width="100%" height="100%" fill="white" />
	<path d = "M 77.34 304.69 L 103.12 314.06 L 140.62 314.06 L 161.72 304.69 L 253.12 119.53 L 309.38 49.22 L 372.66 7.03 L 398.44 0.00 L 438.28 2.34 L 527.34 96.09" stroke="black" fill="transparent"/>
	<path d = "M 522.66 107.81 L 513.28 114.84 L 466.41 112.50 L 426.56 91.41" stroke="black" fill="transparent"/>
	<path d = "M 412.50 86.72 L 426.56 110.16 L 489.84 147.66 L 499.22 178.12 L 508.59 267.19 L 496.88 307.03 L 464.06 360.94 L 428.91 391.41 L 304.69 468.75 L 255.47 478.12 L 227.34 496.88 L 124.22 499.22 L 89.06 473.44" stroke="black" fill="transparent"/>
	<path d = "M 227.34 150.00 L 0.00 89.06 L 25.78 131.25 L 114.84 234.38 L 145.31 257.81 L 159.38 257.81" stroke="black" fill="transparent"/>
	<path d = "M 67.97 314.06 L 42.19 311.72" stroke="black" fill="transparent"/>
	<path d = "M 379.69 311.72 L 386.72 328.12 L 419.53 360.94 L 447.66 377.34 L 494.53 389.06 L 499.22 400.78 L 452.34 435.94 L 370.31 464.06 L 311.72 461.72 L 276.56 440.62 L 203.91 372.66 L 196.88 342.19" stroke="black" fill="transparent"/>
	<path d = "M 375.00 60.94 L 384.38 49.22 L 433.59 39.84 L 475.78 42.19 L 513.28 79.69 L 539.06 126.56 L 541.41 152.34 L 529.69 168.75 L 450.00 213.28" stroke="black" fill="transparent"/>
	<path d = "M 525.00 49.22 L 597.66 63.28" stroke="black" fill="transparent"/>
</svg>