<?xml version="1.0" encoding="UTF-8" standalone="no"?>
<!--Created with ndjsontosvg (https:https://github.com/thompson318/ndjsontosvg) 
	from the simplified Google quickdraw data set. key_id = 5446173638787072-->
<svg width="600" height="600"
	xmlns="http://www.w3.org/2000/svg">
	xmlns:ndjsontosvg="https://github.com/thompson318/ndjsontosvg"
	xmlns:quickdraw="https://quickdraw.withgoogle.com/data"
	xmlns:scikit-surgery="https://doi.org/10.1007/s11548-020-02180-5">

	<rect width="100%" height="100%" fill="white" />
	<path d = "M 82.03 46.88 L 18.75 53.91 L 0.00 67.97 L 25.78 79.69 L 56.25 82.03" stroke="black" fill="transparent"/>
	<path d = "M 79.69 42.19 L 86.72 23.44 L 107.81 7.03 L 138.28 0.00 L 180.47 7.03 L 203.91 21.09 L 217.97 44.53 L 225.00 75.00 L 220.31 119.53 L 210.94 135.94 L 145.31 164.06 L 124.22 166.41 L 77.34 152.34 L 67.97 142.97 L 56.25 91.41 L 56.25 77.34 L 67.97 67.97" stroke="black" fill="transparent"/>
	<path d = "M 0.00 67.97 L 60.94 65.62" stroke="black" fill="transparent"/>
	<path d = "M 103.12 150.00 L 107.81 225.00 L 121.88 255.47 L 171.09 307.03 L 210.94 328.12 L 314.06 339.84 L 450.00 337.50 L 508.59 321.09 L 597.66 267.19" stroke="black" fill="transparent"/>
</svg>