<?xml version="1.0" encoding="UTF-8" standalone="no"?>
<!--Created with ndjsontosvg (https:https://github.com/thompson318/ndjsontosvg) 
	from the simplified Google quickdraw data set. key_id = 6058190103904256-->
<svg width="600" height="600"
	xmlns="http://www.w3.org/2000/svg">
	xmlns:ndjsontosvg="https://github.com/thompson318/ndjsontosvg"
	xmlns:quickdraw="https://quickdraw.withgoogle.com/data"
	xmlns:scikit-surgery="https://doi.org/10.1007/s11548-020-02180-5">

	<rect width="100%" height="100%" fill="white" />
	<path d = "M 311.72 79.69 L 396.09 100.78 L 471.09 147.66 L 457.03 154.69 L 311.72 152.34" stroke="black" fill="transparent"/>
	<path d = "M 396.09 142.97 L 295.31 215.62" stroke="black" fill="transparent"/>
	<path d = "M 321.09 72.66 L 311.72 44.53 L 274.22 11.72 L 171.09 0.00 L 119.53 2.34 L 77.34 23.44 L 51.56 77.34 L 46.88 110.16" stroke="black" fill="transparent"/>
	<path d = "M 248.44 39.84 L 239.06 53.91 L 243.75 25.78 L 241.41 49.22" stroke="black" fill="transparent"/>
	<path d = "M 37.50 84.38 L 37.50 168.75 L 58.59 264.84 L 58.59 323.44 L 30.47 435.94 L 11.72 482.81 L 0.00 597.66 L 79.69 569.53 L 110.16 548.44 L 140.62 510.94 L 292.97 225.00" stroke="black" fill="transparent"/>
	<path d = "M 152.34 309.38 L 262.50 325.78 L 466.41 311.72 L 454.69 339.84 L 419.53 367.97 L 398.44 375.00 L 248.44 389.06 L 168.75 384.38" stroke="black" fill="transparent"/>
</svg>