<?xml version="1.0" encoding="UTF-8" standalone="no"?>
<!--Created with ndjsontosvg (https:https://github.com/thompson318/ndjsontosvg) 
	from the simplified Google quickdraw data set. key_id = 5830346757111808-->
<svg width="600" height="600"
	xmlns="http://www.w3.org/2000/svg">
	xmlns:ndjsontosvg="https://github.com/thompson318/ndjsontosvg"
	xmlns:quickdraw="https://quickdraw.withgoogle.com/data"
	xmlns:scikit-surgery="https://doi.org/10.1007/s11548-020-02180-5">

	<rect width="100%" height="100%" fill="white" />
	<path d = "M 2.34 51.56 L 0.00 225.00 L 7.03 377.34 L 28.12 468.75 L 30.47 578.91 L 37.50 592.97 L 72.66 597.66 L 152.34 569.53 L 246.09 562.50 L 492.19 588.28 L 499.22 576.56 L 501.56 541.41 L 487.50 459.38 L 454.69 358.59 L 428.91 25.78 L 384.38 23.44 L 304.69 2.34 L 225.00 0.00 L 79.69 35.16 L 7.03 37.50" stroke="black" fill="transparent"/>
	<path d = "M 30.47 79.69 L 46.88 173.44 L 63.28 178.12 L 173.44 140.62 L 121.88 63.28 L 93.75 65.62 L 14.06 91.41" stroke="black" fill="transparent"/>
	<path d = "M 147.66 225.00 L 161.72 466.41 L 192.19 475.78 L 351.56 457.03 L 337.50 414.84 L 339.84 267.19 L 330.47 260.16 L 269.53 246.09 L 157.03 243.75" stroke="black" fill="transparent"/>
</svg>