<?xml version="1.0" encoding="UTF-8" standalone="no"?>
<!--Created with ndjsontosvg (https:https://github.com/thompson318/ndjsontosvg) 
	from the simplified Google quickdraw data set. key_id = 6224067180888064-->
<svg width="600" height="600"
	xmlns="http://www.w3.org/2000/svg">
	xmlns:ndjsontosvg="https://github.com/thompson318/ndjsontosvg"
	xmlns:quickdraw="https://quickdraw.withgoogle.com/data"
	xmlns:scikit-surgery="https://doi.org/10.1007/s11548-020-02180-5">

	<rect width="100%" height="100%" fill="white" />
	<path d = "M 56.25 128.91 L 91.41 225.00 L 150.00 494.53 L 161.72 597.66" stroke="black" fill="transparent"/>
	<path d = "M 0.00 133.59 L 4.69 107.81 L 30.47 91.41 L 157.03 37.50 L 316.41 2.34 L 377.34 2.34 L 379.69 53.91 L 428.91 398.44 L 431.25 459.38 L 335.16 506.25 L 194.53 550.78 L 150.00 555.47" stroke="black" fill="transparent"/>
	<path d = "M 182.81 131.25 L 189.84 328.12" stroke="black" fill="transparent"/>
	<path d = "M 152.34 103.12 L 328.12 35.16 L 330.47 42.19 L 358.59 185.16 L 367.97 292.97 L 210.94 328.12" stroke="black" fill="transparent"/>
	<path d = "M 250.78 164.06 L 236.72 168.75 L 222.66 189.84 L 210.94 222.66 L 213.28 246.09 L 229.69 260.16 L 257.81 262.50 L 281.25 250.78 L 300.00 225.00 L 309.38 199.22 L 309.38 164.06 L 288.28 142.97 L 255.47 140.62 L 236.72 161.72 L 227.34 243.75 L 236.72 257.81 L 239.06 185.16 L 255.47 175.78 L 314.06 180.47 L 332.81 199.22 L 346.88 225.00 L 360.94 316.41" stroke="black" fill="transparent"/>
	<path d = "M 274.22 126.56 L 229.69 201.56" stroke="black" fill="transparent"/>
</svg>