<?xml version="1.0" encoding="UTF-8" standalone="no"?>
<!--Created with ndjsontosvg (https:https://github.com/thompson318/ndjsontosvg) 
	from the simplified Google quickdraw data set. key_id = 6621173515288576-->
<svg width="600" height="600"
	xmlns="http://www.w3.org/2000/svg">
	xmlns:ndjsontosvg="https://github.com/thompson318/ndjsontosvg"
	xmlns:quickdraw="https://quickdraw.withgoogle.com/data"
	xmlns:scikit-surgery="https://doi.org/10.1007/s11548-020-02180-5">

	<rect width="100%" height="100%" fill="white" />
	<path d = "M 0.00 51.56 L 0.00 543.75 L 16.41 555.47 L 189.84 555.47 L 466.41 534.38 L 539.06 517.97 L 550.78 510.94 L 550.78 473.44 L 513.28 260.16 L 478.12 131.25 L 464.06 16.41 L 154.69 11.72 L 93.75 30.47 L 46.88 30.47" stroke="black" fill="transparent"/>
	<path d = "M 506.25 18.75 L 506.25 18.75" stroke="black" fill="transparent"/>
	<path d = "M 485.16 0.00 L 534.38 11.72 L 546.09 28.12 L 574.22 206.25 L 585.94 367.97 L 592.97 384.38 L 597.66 450.00 L 590.62 478.12 L 574.22 487.50 L 450.00 489.84" stroke="black" fill="transparent"/>
	<path d = "M 77.34 178.12 L 77.34 121.88 L 114.84 119.53 L 133.59 142.97 L 135.94 157.03 L 100.78 168.75" stroke="black" fill="transparent"/>
	<path d = "M 171.09 189.84 L 171.09 133.59 L 180.47 121.88 L 199.22 117.19 L 210.94 117.19 L 215.62 131.25 L 217.97 182.81" stroke="black" fill="transparent"/>
	<path d = "M 227.34 154.69 L 171.09 154.69 L 128.91 166.41" stroke="black" fill="transparent"/>
	<path d = "M 292.97 121.88 L 246.09 117.19 L 253.12 128.91 L 316.41 138.28 L 325.78 166.41 L 271.88 168.75" stroke="black" fill="transparent"/>
	<path d = "M 382.03 98.44 L 342.19 103.12 L 337.50 131.25 L 400.78 135.94" stroke="black" fill="transparent"/>
</svg>