<?xml version="1.0" encoding="UTF-8" standalone="no"?>
<!--Created with ndjsontosvg (https:https://github.com/thompson318/ndjsontosvg) 
	from the simplified Google quickdraw data set. key_id = 5794505645096960-->
<svg width="600" height="600"
	xmlns="http://www.w3.org/2000/svg">
	xmlns:ndjsontosvg="https://github.com/thompson318/ndjsontosvg"
	xmlns:quickdraw="https://quickdraw.withgoogle.com/data"
	xmlns:scikit-surgery="https://doi.org/10.1007/s11548-020-02180-5">

	<rect width="100%" height="100%" fill="white" />
	<path d = "M 314.06 30.47 L 321.09 150.00 L 290.62 243.75 L 285.94 290.62 L 288.28 342.19 L 302.34 351.56 L 309.38 321.09 L 311.72 189.84 L 332.81 100.78 L 332.81 77.34 L 307.03 18.75 L 213.28 18.75 L 96.09 0.00 L 58.59 0.00 L 53.91 7.03 L 60.94 150.00 L 9.38 283.59 L 2.34 330.47 L 241.41 335.16 L 346.88 346.88 L 571.88 344.53 L 588.28 222.66 L 597.66 25.78 L 482.81 11.72 L 290.62 14.06" stroke="black" fill="transparent"/>
	<path d = "M 133.59 56.25 L 131.25 133.59 L 114.84 150.00 L 124.22 154.69 L 239.06 159.38 L 260.16 105.47 L 260.16 79.69 L 255.47 58.59 L 236.72 46.88 L 133.59 37.50" stroke="black" fill="transparent"/>
</svg>