<?xml version="1.0" encoding="UTF-8" standalone="no"?>
<!--Created with ndjsontosvg (https:https://github.com/thompson318/ndjsontosvg) 
	from the simplified Google quickdraw data set. key_id = 4828528656777216-->
<svg width="600" height="600"
	xmlns="http://www.w3.org/2000/svg">
	xmlns:ndjsontosvg="https://github.com/thompson318/ndjsontosvg"
	xmlns:quickdraw="https://quickdraw.withgoogle.com/data"
	xmlns:scikit-surgery="https://doi.org/10.1007/s11548-020-02180-5">

	<rect width="100%" height="100%" fill="white" />
	<path d = "M 4.69 105.47 L 0.00 119.53 L 2.34 332.81 L 9.38 517.97 L 21.09 576.56 L 32.81 583.59 L 227.34 569.53 L 316.41 569.53 L 464.06 592.97 L 546.09 595.31 L 574.22 576.56 L 597.66 494.53 L 597.66 396.09 L 539.06 227.34 L 506.25 23.44 L 496.88 0.00 L 367.97 16.41 L 159.38 53.91 L 51.56 63.28 L 42.19 65.62 L 23.44 86.72" stroke="black" fill="transparent"/>
	<path d = "M 51.56 171.09 L 49.22 225.00 L 63.28 255.47 L 187.50 255.47 L 260.16 239.06 L 239.06 180.47 L 220.31 91.41 L 187.50 91.41 L 82.03 145.31" stroke="black" fill="transparent"/>
</svg>