<?xml version="1.0" encoding="UTF-8" standalone="no"?>
<!--Created with ndjsontosvg (https:https://github.com/thompson318/ndjsontosvg) 
	from the simplified Google quickdraw data set. key_id = 6593283121741824-->
<svg width="600" height="600"
	xmlns="http://www.w3.org/2000/svg">
	xmlns:ndjsontosvg="https://github.com/thompson318/ndjsontosvg"
	xmlns:quickdraw="https://quickdraw.withgoogle.com/data"
	xmlns:scikit-surgery="https://doi.org/10.1007/s11548-020-02180-5">

	<rect width="100%" height="100%" fill="white" />
	<path d = "M 292.97 145.31 L 292.97 217.97 L 316.41 466.41" stroke="black" fill="transparent"/>
	<path d = "M 295.31 128.91 L 229.69 126.56 L 79.69 98.44 L 14.06 98.44 L 9.38 114.84 L 0.00 517.97 L 4.69 534.38 L 21.09 541.41 L 105.47 543.75 L 269.53 496.88 L 302.34 475.78" stroke="black" fill="transparent"/>
	<path d = "M 253.12 161.72 L 278.91 135.94 L 508.59 18.75 L 557.81 0.00 L 571.88 18.75 L 571.88 262.50 L 597.66 417.19 L 597.66 468.75 L 578.91 485.16 L 541.41 485.16 L 412.50 454.69 L 290.62 445.31" stroke="black" fill="transparent"/>
	<path d = "M 433.59 140.62 L 433.59 215.62 L 457.03 236.72 L 478.12 241.41 L 492.19 236.72 L 499.22 210.94 L 494.53 147.66 L 447.66 112.50" stroke="black" fill="transparent"/>
	<path d = "M 471.09 241.41 L 459.38 267.19 L 445.31 337.50" stroke="black" fill="transparent"/>
</svg>