<?xml version="1.0" encoding="UTF-8" standalone="no"?>
<!--Created with ndjsontosvg (https:https://github.com/thompson318/ndjsontosvg) 
	from the simplified Google quickdraw data set. key_id = 5631871050317824-->
<svg width="600" height="600"
	xmlns="http://www.w3.org/2000/svg">
	xmlns:ndjsontosvg="https://github.com/thompson318/ndjsontosvg"
	xmlns:quickdraw="https://quickdraw.withgoogle.com/data"
	xmlns:scikit-surgery="https://doi.org/10.1007/s11548-020-02180-5">

	<rect width="100%" height="100%" fill="white" />
	<path d = "M 157.03 243.75 L 166.41 196.88 L 210.94 89.06 L 246.09 44.53 L 295.31 11.72 L 349.22 0.00 L 382.03 2.34 L 407.81 14.06 L 445.31 53.91 L 468.75 117.19 L 468.75 150.00 L 452.34 173.44 L 360.94 232.03 L 281.25 330.47 L 260.16 375.00 L 241.41 499.22 L 203.91 564.84 L 157.03 592.97 L 79.69 592.97 L 30.47 562.50 L 2.34 508.59 L 2.34 461.72 L 21.09 414.84 L 84.38 316.41 L 121.88 276.56" stroke="black" fill="transparent"/>
	<path d = "M 304.69 135.94 L 257.81 185.16" stroke="black" fill="transparent"/>
	<path d = "M 189.84 363.28 L 159.38 412.50 L 135.94 468.75" stroke="black" fill="transparent"/>
	<path d = "M 414.84 157.03 L 360.94 241.41" stroke="black" fill="transparent"/>
</svg>