<?xml version="1.0" encoding="UTF-8" standalone="no"?>
<!--Created with ndjsontosvg (https:https://github.com/thompson318/ndjsontosvg) 
	from the simplified Google quickdraw data set. key_id = 6472481546174464-->
<svg width="600" height="600"
	xmlns="http://www.w3.org/2000/svg">
	xmlns:ndjsontosvg="https://github.com/thompson318/ndjsontosvg"
	xmlns:quickdraw="https://quickdraw.withgoogle.com/data"
	xmlns:scikit-surgery="https://doi.org/10.1007/s11548-020-02180-5">

	<rect width="100%" height="100%" fill="white" />
	<path d = "M 203.91 588.28 L 250.78 597.66 L 325.78 583.59 L 360.94 543.75 L 375.00 492.19 L 346.88 445.31 L 276.56 356.25 L 210.94 314.06 L 269.53 225.00 L 316.41 189.84 L 332.81 161.72 L 335.16 117.19 L 328.12 77.34 L 199.22 4.69 L 161.72 0.00 L 128.91 11.72 L 89.06 46.88 L 39.84 75.00 L 11.72 128.91 L 0.00 178.12 L 18.75 236.72 L 77.34 260.16 L 11.72 349.22 L 0.00 403.12 L 14.06 466.41 L 77.34 527.34 L 185.16 590.62 L 276.56 592.97" stroke="black" fill="transparent"/>
</svg>