<?xml version="1.0" encoding="UTF-8" standalone="no"?>
<!--Created with ndjsontosvg (https:https://github.com/thompson318/ndjsontosvg) 
	from the simplified Google quickdraw data set. key_id = 5317946555498496-->
<svg width="600" height="600"
	xmlns="http://www.w3.org/2000/svg">
	xmlns:ndjsontosvg="https://github.com/thompson318/ndjsontosvg"
	xmlns:quickdraw="https://quickdraw.withgoogle.com/data"
	xmlns:scikit-surgery="https://doi.org/10.1007/s11548-020-02180-5">

	<rect width="100%" height="100%" fill="white" />
	<path d = "M 382.03 39.84 L 300.00 0.00 L 250.78 0.00 L 159.38 28.12 L 126.56 44.53 L 100.78 75.00 L 86.72 166.41 L 121.88 236.72 L 4.69 412.50 L 0.00 445.31 L 14.06 506.25 L 39.84 548.44 L 112.50 588.28 L 180.47 597.66 L 283.59 555.47 L 323.44 527.34 L 332.81 510.94 L 337.50 471.09 L 314.06 389.06 L 309.38 328.12 L 330.47 285.94 L 377.34 236.72 L 393.75 208.59 L 412.50 142.97 L 414.84 91.41 L 400.78 39.84 L 389.06 25.78 L 328.12 16.41" stroke="black" fill="transparent"/>
	<path d = "M 307.03 18.75 L 180.47 84.38 L 105.47 147.66 L 96.09 173.44" stroke="black" fill="transparent"/>
	<path d = "M 372.66 77.34 L 229.69 145.31 L 77.34 274.22" stroke="black" fill="transparent"/>
	<path d = "M 241.41 316.41 L 145.31 386.72 L 14.06 457.03" stroke="black" fill="transparent"/>
	<path d = "M 241.41 440.62 L 96.09 525.00" stroke="black" fill="transparent"/>
	<path d = "M 142.97 67.97 L 175.78 157.03 L 201.56 288.28" stroke="black" fill="transparent"/>
	<path d = "M 110.16 208.59 L 145.31 365.62 L 171.09 421.88" stroke="black" fill="transparent"/>
</svg>