<?xml version="1.0" encoding="UTF-8" standalone="no"?>
<!--Created with ndjsontosvg (https:https://github.com/thompson318/ndjsontosvg) 
	from the simplified Google quickdraw data set. key_id = 5751312534732800-->
<svg width="600" height="600"
	xmlns="http://www.w3.org/2000/svg">
	xmlns:ndjsontosvg="https://github.com/thompson318/ndjsontosvg"
	xmlns:quickdraw="https://quickdraw.withgoogle.com/data"
	xmlns:scikit-surgery="https://doi.org/10.1007/s11548-020-02180-5">

	<rect width="100%" height="100%" fill="white" />
	<path d = "M 384.38 253.12 L 398.44 241.41 L 403.12 208.59 L 375.00 84.38 L 351.56 39.84 L 309.38 18.75 L 225.00 0.00 L 138.28 18.75 L 86.72 49.22 L 21.09 121.88 L 0.00 168.75 L 0.00 196.88 L 21.09 264.84 L 70.31 290.62 L 192.19 318.75 L 164.06 335.16 L 138.28 363.28 L 107.81 407.81 L 110.16 421.88 L 128.91 454.69 L 187.50 503.91 L 225.00 564.84 L 250.78 588.28 L 335.16 597.66 L 447.66 590.62 L 510.94 564.84 L 571.88 520.31 L 578.91 450.00 L 520.31 344.53 L 457.03 307.03 L 426.56 297.66 L 353.91 297.66" stroke="black" fill="transparent"/>
</svg>