<?xml version="1.0" encoding="UTF-8" standalone="no"?>
<!--Created with ndjsontosvg (https:https://github.com/thompson318/ndjsontosvg) 
	from the simplified Google quickdraw data set. key_id = 6178972238872576-->
<svg width="600" height="600"
	xmlns="http://www.w3.org/2000/svg">
	xmlns:ndjsontosvg="https://github.com/thompson318/ndjsontosvg"
	xmlns:quickdraw="https://quickdraw.withgoogle.com/data"
	xmlns:scikit-surgery="https://doi.org/10.1007/s11548-020-02180-5">

	<rect width="100%" height="100%" fill="white" />
	<path d = "M 264.84 105.47 L 239.06 86.72 L 239.06 56.25 L 257.81 18.75 L 290.62 0.00 L 356.25 11.72 L 421.88 49.22 L 454.69 51.56 L 536.72 44.53 L 546.09 63.28 L 546.09 103.12 L 515.62 140.62 L 482.81 152.34 L 360.94 157.03 L 344.53 178.12 L 344.53 241.41 L 386.72 295.31 L 447.66 325.78 L 569.53 356.25 L 597.66 382.03 L 597.66 393.75 L 588.28 421.88 L 564.84 447.66 L 450.00 487.50 L 328.12 496.88 L 215.62 480.47" stroke="black" fill="transparent"/>
	<path d = "M 215.62 480.47 L 121.88 442.97 L 65.62 396.09" stroke="black" fill="transparent"/>
	<path d = "M 82.03 396.09 L 63.28 360.94 L 58.59 321.09 L 63.28 309.38 L 96.09 302.34 L 135.94 297.66 L 157.03 304.69 L 192.19 325.78 L 234.38 367.97 L 243.75 370.31 L 250.78 328.12 L 232.03 255.47 L 203.91 225.00 L 166.41 215.62 L 114.84 217.97 L 30.47 250.78 L 0.00 250.78" stroke="black" fill="transparent"/>
</svg>