<?xml version="1.0" encoding="UTF-8" standalone="no"?>
<!--Created with ndjsontosvg (https:https://github.com/thompson318/ndjsontosvg) 
	from the simplified Google quickdraw data set. key_id = 4557889731559424-->
<svg width="600" height="600"
	xmlns="http://www.w3.org/2000/svg">
	xmlns:ndjsontosvg="https://github.com/thompson318/ndjsontosvg"
	xmlns:quickdraw="https://quickdraw.withgoogle.com/data"
	xmlns:scikit-surgery="https://doi.org/10.1007/s11548-020-02180-5">

	<rect width="100%" height="100%" fill="white" />
	<path d = "M 0.00 44.53 L 67.97 84.38 L 150.00 119.53 L 389.06 135.94 L 445.31 135.94 L 496.88 117.19 L 539.06 91.41 L 590.62 46.88 L 595.31 21.09 L 515.62 4.69 L 246.09 11.72 L 119.53 0.00 L 11.72 28.12" stroke="black" fill="transparent"/>
	<path d = "M 117.19 21.09 L 100.78 58.59 L 100.78 79.69 L 121.88 72.66 L 142.97 51.56 L 142.97 25.78 L 124.22 30.47" stroke="black" fill="transparent"/>
	<path d = "M 236.72 30.47 L 220.31 30.47 L 201.56 67.97 L 201.56 121.88 L 229.69 93.75 L 250.78 51.56 L 246.09 16.41 L 225.00 21.09" stroke="black" fill="transparent"/>
	<path d = "M 375.00 46.88 L 356.25 49.22 L 342.19 70.31 L 332.81 98.44 L 337.50 114.84 L 410.16 119.53 L 433.59 103.12 L 442.97 82.03 L 438.28 49.22 L 417.19 44.53 L 384.38 56.25" stroke="black" fill="transparent"/>
	<path d = "M 543.75 23.44 L 532.03 28.12 L 520.31 42.19 L 515.62 89.06 L 548.44 84.38 L 564.84 67.97 L 567.19 49.22 L 541.41 30.47" stroke="black" fill="transparent"/>
</svg>