<?xml version="1.0" encoding="UTF-8" standalone="no"?>
<!--Created with ndjsontosvg (https:https://github.com/thompson318/ndjsontosvg) 
	from the simplified Google quickdraw data set. key_id = 6682214647463936-->
<svg width="600" height="600"
	xmlns="http://www.w3.org/2000/svg">
	xmlns:ndjsontosvg="https://github.com/thompson318/ndjsontosvg"
	xmlns:quickdraw="https://quickdraw.withgoogle.com/data"
	xmlns:scikit-surgery="https://doi.org/10.1007/s11548-020-02180-5">

	<rect width="100%" height="100%" fill="white" />
	<path d = "M 2.34 168.75 L 9.38 271.88 L 2.34 534.38" stroke="black" fill="transparent"/>
	<path d = "M 2.34 182.81 L 189.84 166.41 L 199.22 171.09 L 199.22 182.81 L 164.06 285.94 L 159.38 508.59 L 18.75 503.91" stroke="black" fill="transparent"/>
	<path d = "M 7.03 494.53 L 2.34 506.25 L 0.00 564.84 L 9.38 581.25 L 32.81 595.31 L 105.47 595.31 L 119.53 564.84 L 124.22 525.00" stroke="black" fill="transparent"/>
	<path d = "M 7.03 161.72 L 46.88 79.69 L 107.81 0.00 L 180.47 145.31" stroke="black" fill="transparent"/>
	<path d = "M 2.34 501.56 L 0.00 529.69 L 14.06 578.91 L 42.19 590.62 L 96.09 595.31 L 114.84 590.62 L 133.59 564.84 L 152.34 489.84" stroke="black" fill="transparent"/>
	<path d = "M 75.00 164.06 L 63.28 473.44" stroke="black" fill="transparent"/>
	<path d = "M 135.94 159.38 L 114.84 349.22 L 107.81 513.28" stroke="black" fill="transparent"/>
	<path d = "M 173.44 159.38 L 171.09 506.25" stroke="black" fill="transparent"/>
</svg>