<?xml version="1.0" encoding="UTF-8" standalone="no"?>
<!--Created with ndjsontosvg (https:https://github.com/thompson318/ndjsontosvg) 
	from the simplified Google quickdraw data set. key_id = 6357782229942272-->
<svg width="600" height="600"
	xmlns="http://www.w3.org/2000/svg">
	xmlns:ndjsontosvg="https://github.com/thompson318/ndjsontosvg"
	xmlns:quickdraw="https://quickdraw.withgoogle.com/data"
	xmlns:scikit-surgery="https://doi.org/10.1007/s11548-020-02180-5">

	<rect width="100%" height="100%" fill="white" />
	<path d = "M 185.16 82.03 L 187.50 39.84 L 161.72 30.47 L 145.31 42.19 L 135.94 208.59 L 117.19 297.66 L 98.44 501.56 L 124.22 510.94 L 171.09 515.62 L 239.06 496.88 L 260.16 480.47 L 285.94 442.97 L 300.00 389.06 L 295.31 234.38 L 250.78 75.00 L 239.06 9.38 L 175.78 0.00 L 164.06 11.72 L 161.72 37.50" stroke="black" fill="transparent"/>
	<path d = "M 175.78 79.69 L 182.81 154.69 L 194.53 161.72 L 208.59 124.22 L 208.59 72.66" stroke="black" fill="transparent"/>
	<path d = "M 138.28 175.78 L 93.75 215.62 L 60.94 267.19 L 0.00 424.22" stroke="black" fill="transparent"/>
	<path d = "M 290.62 201.56 L 356.25 269.53 L 389.06 321.09 L 417.19 351.56 L 421.88 360.94 L 412.50 370.31" stroke="black" fill="transparent"/>
	<path d = "M 124.22 508.59 L 124.22 574.22" stroke="black" fill="transparent"/>
	<path d = "M 124.22 581.25 L 112.50 597.66" stroke="black" fill="transparent"/>
	<path d = "M 253.12 485.16 L 246.09 517.97" stroke="black" fill="transparent"/>
</svg>