<?xml version="1.0" encoding="UTF-8" standalone="no"?>
<!--Created with ndjsontosvg (https:https://github.com/thompson318/ndjsontosvg) 
	from the simplified Google quickdraw data set. key_id = 5995750561415168-->
<svg width="600" height="600"
	xmlns="http://www.w3.org/2000/svg">
	xmlns:ndjsontosvg="https://github.com/thompson318/ndjsontosvg"
	xmlns:quickdraw="https://quickdraw.withgoogle.com/data"
	xmlns:scikit-surgery="https://doi.org/10.1007/s11548-020-02180-5">

	<rect width="100%" height="100%" fill="white" />
	<path d = "M 67.97 541.41 L 124.22 546.09 L 236.72 581.25 L 302.34 592.97 L 307.03 532.03 L 328.12 466.41 L 346.88 356.25 L 351.56 208.59 L 344.53 159.38 L 316.41 70.31 L 283.59 21.09 L 264.84 4.69 L 246.09 0.00 L 135.94 164.06 L 98.44 243.75 L 79.69 309.38 L 75.00 372.66 L 77.34 452.34 L 91.41 539.06" stroke="black" fill="transparent"/>
	<path d = "M 135.94 529.69 L 128.91 517.97 L 126.56 360.94 L 135.94 269.53 L 154.69 225.00 L 192.19 180.47 L 225.00 157.03 L 267.19 154.69 L 295.31 178.12 L 314.06 215.62 L 321.09 304.69 L 255.47 597.66" stroke="black" fill="transparent"/>
	<path d = "M 114.84 180.47 L 98.44 192.19 L 39.84 285.94 L 2.34 377.34 L 2.34 396.09 L 21.09 384.38 L 65.62 339.84 L 84.38 309.38" stroke="black" fill="transparent"/>
	<path d = "M 344.53 253.12 L 365.62 396.09 L 389.06 457.03 L 405.47 457.03 L 410.16 410.16 L 410.16 363.28 L 393.75 304.69" stroke="black" fill="transparent"/>
</svg>