<?xml version="1.0" encoding="UTF-8" standalone="no"?>
<!--Created with ndjsontosvg (https:https://github.com/thompson318/ndjsontosvg) 
	from the simplified Google quickdraw data set. key_id = 5946534883491840-->
<svg width="600" height="600"
	xmlns="http://www.w3.org/2000/svg">
	xmlns:ndjsontosvg="https://github.com/thompson318/ndjsontosvg"
	xmlns:quickdraw="https://quickdraw.withgoogle.com/data"
	xmlns:scikit-surgery="https://doi.org/10.1007/s11548-020-02180-5">

	<rect width="100%" height="100%" fill="white" />
	<path d = "M 203.91 121.88 L 201.56 166.41 L 227.34 356.25 L 222.66 435.94 L 201.56 482.81 L 192.19 492.19 L 157.03 492.19 L 128.91 468.75 L 100.78 419.53 L 70.31 323.44 L 63.28 222.66 L 72.66 178.12 L 105.47 114.84" stroke="black" fill="transparent"/>
	<path d = "M 199.22 131.25 L 194.53 152.34" stroke="black" fill="transparent"/>
	<path d = "M 178.12 178.12 L 225.00 107.81 L 229.69 79.69 L 229.69 60.94 L 213.28 28.12 L 189.84 11.72 L 157.03 0.00 L 110.16 4.69 L 86.72 18.75 L 51.56 56.25 L 44.53 84.38 L 112.50 138.28" stroke="black" fill="transparent"/>
	<path d = "M 208.59 213.28 L 274.22 332.81 L 288.28 372.66 L 292.97 424.22" stroke="black" fill="transparent"/>
	<path d = "M 292.97 424.22 L 295.31 459.38 L 283.59 457.03 L 232.03 344.53" stroke="black" fill="transparent"/>
	<path d = "M 51.56 227.34 L 32.81 255.47 L 14.06 304.69 L 0.00 452.34 L 18.75 496.88 L 37.50 520.31 L 60.94 527.34 L 72.66 513.28 L 84.38 440.62" stroke="black" fill="transparent"/>
	<path d = "M 135.94 503.91 L 131.25 597.66" stroke="black" fill="transparent"/>
</svg>