<?xml version="1.0" encoding="UTF-8" standalone="no"?>
<!--Created with ndjsontosvg (https:https://github.com/thompson318/ndjsontosvg) 
	from the simplified Google quickdraw data set. key_id = 5647320634884096-->
<svg width="600" height="600"
	xmlns="http://www.w3.org/2000/svg">
	xmlns:ndjsontosvg="https://github.com/thompson318/ndjsontosvg"
	xmlns:quickdraw="https://quickdraw.withgoogle.com/data"
	xmlns:scikit-surgery="https://doi.org/10.1007/s11548-020-02180-5">

	<rect width="100%" height="100%" fill="white" />
	<path d = "M 171.09 14.06 L 145.31 0.00 L 119.53 0.00 L 98.44 7.03 L 65.62 25.78 L 35.16 70.31 L 14.06 131.25 L 9.38 199.22 L 60.94 466.41 L 56.25 543.75" stroke="black" fill="transparent"/>
	<path d = "M 185.16 4.69 L 199.22 105.47 L 292.97 112.50 L 248.44 164.06 L 208.59 192.19 L 217.97 227.34 L 278.91 325.78 L 290.62 391.41 L 292.97 468.75 L 276.56 522.66 L 239.06 562.50 L 187.50 583.59 L 128.91 578.91" stroke="black" fill="transparent"/>
	<path d = "M 105.47 269.53 L 114.84 314.06 L 119.53 489.84 L 140.62 487.50 L 168.75 471.09 L 208.59 431.25 L 213.28 398.44 L 208.59 353.91 L 185.16 290.62" stroke="black" fill="transparent"/>
	<path d = "M 140.62 77.34 L 142.97 75.00" stroke="black" fill="transparent"/>
	<path d = "M 56.25 557.81 L 42.19 550.78 L 21.09 555.47 L 7.03 562.50 L 2.34 578.91 L 37.50 592.97 L 91.41 597.66" stroke="black" fill="transparent"/>
</svg>