<?xml version="1.0" encoding="UTF-8" standalone="no"?>
<!--Created with ndjsontosvg (https:https://github.com/thompson318/ndjsontosvg) 
	from the simplified Google quickdraw data set. key_id = 5730395406467072-->
<svg width="600" height="600"
	xmlns="http://www.w3.org/2000/svg">
	xmlns:ndjsontosvg="https://github.com/thompson318/ndjsontosvg"
	xmlns:quickdraw="https://quickdraw.withgoogle.com/data"
	xmlns:scikit-surgery="https://doi.org/10.1007/s11548-020-02180-5">

	<rect width="100%" height="100%" fill="white" />
	<path d = "M 0.00 4.69 L 28.12 0.00 L 452.34 28.12 L 597.66 25.78" stroke="black" fill="transparent"/>
	<path d = "M 75.00 18.75 L 84.38 58.59 L 75.00 264.84 L 119.53 288.28 L 217.97 264.84 L 241.41 243.75 L 267.19 2.34" stroke="black" fill="transparent"/>
	<path d = "M 428.91 372.66 L 414.84 360.94 L 407.81 253.12 L 417.19 234.38 L 494.53 232.03 L 527.34 234.38 L 539.06 243.75 L 543.75 278.91 L 529.69 377.34" stroke="black" fill="transparent"/>
	<path d = "M 417.19 260.16 L 445.31 227.34 L 410.16 269.53 L 442.97 232.03 L 414.84 311.72 L 454.69 262.50 L 421.88 318.75 L 454.69 285.94 L 454.69 316.41 L 461.72 323.44 L 501.56 278.91 L 454.69 356.25 L 508.59 328.12 L 496.88 372.66 L 534.38 358.59" stroke="black" fill="transparent"/>
	<path d = "M 142.97 25.78 L 103.12 168.75 L 161.72 63.28 L 208.59 2.34 L 121.88 178.12 L 206.25 67.97 L 150.00 199.22 L 201.56 124.22 L 225.00 126.56 L 178.12 232.03 L 210.94 196.88 L 241.41 175.78 L 206.25 250.78 L 203.91 271.88" stroke="black" fill="transparent"/>
	<path d = "M 464.06 49.22 L 440.62 189.84 L 454.69 194.53 L 581.25 168.75 L 585.94 157.03 L 581.25 126.56 L 555.47 16.41" stroke="black" fill="transparent"/>
	<path d = "M 452.34 67.97 L 461.72 56.25 L 489.84 51.56 L 461.72 138.28 L 513.28 72.66 L 546.09 49.22 L 501.56 161.72 L 562.50 93.75 L 569.53 98.44 L 536.72 171.09 L 534.38 187.50 L 597.66 100.78" stroke="black" fill="transparent"/>
</svg>