<?xml version="1.0" encoding="UTF-8" standalone="no"?>
<!--Created with ndjsontosvg (https:https://github.com/thompson318/ndjsontosvg) 
	from the simplified Google quickdraw data set. key_id = 5697112022974464-->
<svg width="600" height="600"
	xmlns="http://www.w3.org/2000/svg">
	xmlns:ndjsontosvg="https://github.com/thompson318/ndjsontosvg"
	xmlns:quickdraw="https://quickdraw.withgoogle.com/data"
	xmlns:scikit-surgery="https://doi.org/10.1007/s11548-020-02180-5">

	<rect width="100%" height="100%" fill="white" />
	<path d = "M 16.41 107.81 L 21.09 84.38 L 46.88 37.50 L 84.38 7.03 L 196.88 0.00 L 229.69 4.69 L 260.16 23.44 L 285.94 107.81 L 550.78 150.00 L 588.28 150.00 L 595.31 154.69 L 597.66 168.75 L 595.31 248.44 L 578.91 309.38 L 550.78 323.44 L 517.97 325.78 L 468.75 325.78 L 274.22 300.00 L 100.78 257.81 L 25.78 246.09 L 18.75 239.06 L 16.41 215.62" stroke="black" fill="transparent"/>
	<path d = "M 16.41 210.94 L 21.09 175.78 L 0.00 138.28 L 2.34 103.12" stroke="black" fill="transparent"/>
	<path d = "M 91.41 84.38 L 119.53 53.91 L 173.44 30.47 L 246.09 18.75 L 255.47 21.09 L 260.16 30.47 L 264.84 119.53 L 246.09 178.12 L 232.03 192.19 L 171.09 194.53 L 147.66 180.47 L 96.09 131.25 L 100.78 107.81" stroke="black" fill="transparent"/>
	<path d = "M 4.69 142.97 L 67.97 175.78 L 77.34 196.88 L 70.31 227.34" stroke="black" fill="transparent"/>
	<path d = "M 86.72 257.81 L 53.91 283.59 L 39.84 304.69 L 30.47 351.56 L 32.81 403.12 L 53.91 414.84 L 98.44 414.84 L 133.59 396.09 L 166.41 353.91 L 168.75 309.38 L 159.38 278.91 L 138.28 255.47 L 96.09 229.69" stroke="black" fill="transparent"/>
	<path d = "M 414.84 316.41 L 391.41 332.81 L 386.72 349.22 L 379.69 382.03 L 384.38 421.88 L 407.81 447.66 L 457.03 468.75 L 482.81 461.72 L 513.28 440.62 L 520.31 419.53 L 517.97 407.81 L 464.06 360.94 L 431.25 344.53" stroke="black" fill="transparent"/>
</svg>