<?xml version="1.0" encoding="UTF-8" standalone="no"?>
<!--Created with ndjsontosvg (https:https://github.com/thompson318/ndjsontosvg) 
	from the simplified Google quickdraw data set. key_id = 4649358676983808-->
<svg width="600" height="600"
	xmlns="http://www.w3.org/2000/svg">
	xmlns:ndjsontosvg="https://github.com/thompson318/ndjsontosvg"
	xmlns:quickdraw="https://quickdraw.withgoogle.com/data"
	xmlns:scikit-surgery="https://doi.org/10.1007/s11548-020-02180-5">

	<rect width="100%" height="100%" fill="white" />
	<path d = "M 9.38 217.97 L 0.00 96.09 L 124.22 103.12 L 269.53 98.44" stroke="black" fill="transparent"/>
	<path d = "M 0.00 222.66 L 285.94 220.31 L 278.91 103.12" stroke="black" fill="transparent"/>
	<path d = "M 283.59 105.47 L 283.59 4.69 L 288.28 0.00 L 492.19 2.34 L 548.44 14.06 L 581.25 39.84 L 595.31 79.69 L 592.97 248.44" stroke="black" fill="transparent"/>
	<path d = "M 285.94 213.28 L 501.56 234.38 L 585.94 236.72" stroke="black" fill="transparent"/>
	<path d = "M 117.19 215.62 L 86.72 201.56 L 56.25 208.59 L 42.19 241.41 L 46.88 278.91 L 75.00 288.28 L 98.44 283.59 L 112.50 269.53 L 119.53 250.78 L 119.53 206.25 L 105.47 187.50" stroke="black" fill="transparent"/>
	<path d = "M 499.22 220.31 L 473.44 208.59 L 440.62 208.59 L 424.22 229.69 L 421.88 262.50 L 426.56 276.56 L 457.03 290.62 L 494.53 290.62 L 506.25 283.59 L 513.28 274.22 L 510.94 250.78 L 485.16 229.69" stroke="black" fill="transparent"/>
</svg>