<?xml version="1.0" encoding="UTF-8" standalone="no"?>
<!--Created with ndjsontosvg (https:https://github.com/thompson318/ndjsontosvg) 
	from the simplified Google quickdraw data set. key_id = 4934391950213120-->
<svg width="600" height="600"
	xmlns="http://www.w3.org/2000/svg">
	xmlns:ndjsontosvg="https://github.com/thompson318/ndjsontosvg"
	xmlns:quickdraw="https://quickdraw.withgoogle.com/data"
	xmlns:scikit-surgery="https://doi.org/10.1007/s11548-020-02180-5">

	<rect width="100%" height="100%" fill="white" />
	<path d = "M 592.97 128.91 L 578.91 124.22 L 450.00 131.25 L 421.88 42.19 L 398.44 0.00 L 386.72 7.03 L 248.44 11.72 L 260.16 157.03 L 260.16 147.66 L 248.44 145.31 L 93.75 128.91 L 49.22 126.56 L 9.38 138.28 L 2.34 147.66 L 0.00 229.69 L 18.75 360.94 L 23.44 344.53 L 84.38 339.84 L 91.41 285.94 L 117.19 257.81 L 159.38 271.88 L 178.12 285.94 L 178.12 339.84 L 187.50 349.22 L 257.81 367.97 L 375.00 353.91 L 407.81 342.19 L 417.19 325.78 L 419.53 276.56 L 431.25 260.16 L 461.72 264.84 L 482.81 281.25 L 499.22 339.84 L 578.91 330.47 L 592.97 311.72 L 597.66 292.97 L 595.31 201.56 L 588.28 173.44 L 564.84 147.66" stroke="black" fill="transparent"/>
</svg>