<?xml version="1.0" encoding="UTF-8" standalone="no"?>
<!--Created with ndjsontosvg (https:https://github.com/thompson318/ndjsontosvg) 
	from the simplified Google quickdraw data set. key_id = 5236198752649216-->
<svg width="600" height="600"
	xmlns="http://www.w3.org/2000/svg">
	xmlns:ndjsontosvg="https://github.com/thompson318/ndjsontosvg"
	xmlns:quickdraw="https://quickdraw.withgoogle.com/data"
	xmlns:scikit-surgery="https://doi.org/10.1007/s11548-020-02180-5">

	<rect width="100%" height="100%" fill="white" />
	<path d = "M 133.59 161.72 L 98.44 138.28 L 63.28 142.97 L 56.25 180.47 L 72.66 199.22 L 103.12 201.56 L 114.84 192.19 L 128.91 166.41" stroke="black" fill="transparent"/>
	<path d = "M 426.56 173.44 L 391.41 175.78 L 386.72 189.84 L 403.12 208.59 L 440.62 225.00 L 466.41 203.91 L 473.44 187.50 L 471.09 173.44 L 433.59 164.06" stroke="black" fill="transparent"/>
	<path d = "M 475.78 189.84 L 597.66 189.84 L 588.28 171.09 L 578.91 93.75 L 525.00 114.84 L 447.66 126.56 L 391.41 126.56 L 241.41 107.81 L 236.72 86.72 L 241.41 2.34 L 166.41 0.00 L 133.59 49.22 L 117.19 58.59 L 9.38 60.94 L 0.00 114.84" stroke="black" fill="transparent"/>
</svg>