<?xml version="1.0" encoding="UTF-8" standalone="no"?>
<!--Created with ndjsontosvg (https:https://github.com/thompson318/ndjsontosvg) 
	from the simplified Google quickdraw data set. key_id = 5437445082447872-->
<svg width="600" height="600"
	xmlns="http://www.w3.org/2000/svg">
	xmlns:ndjsontosvg="https://github.com/thompson318/ndjsontosvg"
	xmlns:quickdraw="https://quickdraw.withgoogle.com/data"
	xmlns:scikit-surgery="https://doi.org/10.1007/s11548-020-02180-5">

	<rect width="100%" height="100%" fill="white" />
	<path d = "M 32.81 0.00 L 11.72 185.16 L 11.72 316.41 L 0.00 468.75 L 4.69 581.25 L 180.47 595.31 L 407.81 590.62 L 452.34 597.66 L 522.66 595.31 L 536.72 583.59 L 515.62 344.53 L 510.94 103.12 L 492.19 86.72 L 485.16 70.31 L 452.34 49.22 L 346.88 32.81 L 65.62 9.38" stroke="black" fill="transparent"/>
	<path d = "M 100.78 56.25 L 147.66 482.81 L 154.69 506.25 L 168.75 510.94 L 239.06 515.62 L 292.97 534.38 L 459.38 522.66 L 405.47 330.47 L 417.19 140.62 L 386.72 119.53 L 307.03 103.12 L 168.75 105.47 L 119.53 96.09" stroke="black" fill="transparent"/>
</svg>