<?xml version="1.0" encoding="UTF-8" standalone="no"?>
<!--Created with ndjsontosvg (https:https://github.com/thompson318/ndjsontosvg) 
	from the simplified Google quickdraw data set. key_id = 5726874674135040-->
<svg width="600" height="600"
	xmlns="http://www.w3.org/2000/svg">
	xmlns:ndjsontosvg="https://github.com/thompson318/ndjsontosvg"
	xmlns:quickdraw="https://quickdraw.withgoogle.com/data"
	xmlns:scikit-surgery="https://doi.org/10.1007/s11548-020-02180-5">

	<rect width="100%" height="100%" fill="white" />
	<path d = "M 32.81 21.09 L 173.44 32.81 L 351.56 32.81 L 527.34 0.00 L 588.28 2.34 L 597.66 32.81 L 588.28 571.88 L 569.53 581.25 L 510.94 585.94 L 410.16 585.94 L 135.94 546.09 L 0.00 543.75 L 23.44 323.44 L 25.78 128.91 L 32.81 65.62 L 46.88 25.78" stroke="black" fill="transparent"/>
	<path d = "M 93.75 75.00 L 234.38 79.69 L 503.91 70.31 L 520.31 65.62 L 506.25 119.53 L 506.25 250.78 L 541.41 419.53 L 543.75 475.78 L 532.03 536.72 L 468.75 548.44 L 379.69 548.44 L 330.47 532.03 L 157.03 503.91 L 79.69 503.91 L 114.84 419.53 L 121.88 75.00" stroke="black" fill="transparent"/>
</svg>