<?xml version="1.0" encoding="UTF-8" standalone="no"?>
<!--Created with ndjsontosvg (https:https://github.com/thompson318/ndjsontosvg) 
	from the simplified Google quickdraw data set. key_id = 4507763881279488-->
<svg width="600" height="600"
	xmlns="http://www.w3.org/2000/svg">
	xmlns:ndjsontosvg="https://github.com/thompson318/ndjsontosvg"
	xmlns:quickdraw="https://quickdraw.withgoogle.com/data"
	xmlns:scikit-surgery="https://doi.org/10.1007/s11548-020-02180-5">

	<rect width="100%" height="100%" fill="white" />
	<path d = "M 77.34 84.38 L 16.41 135.94 L 42.19 150.00 L 60.94 178.12 L 63.28 210.94 L 51.56 225.00 L 18.75 225.00 L 4.69 208.59 L 0.00 145.31 L 16.41 110.16" stroke="black" fill="transparent"/>
	<path d = "M 7.03 175.78 L 7.03 175.78" stroke="black" fill="transparent"/>
	<path d = "M 28.12 182.81 L 28.12 182.81" stroke="black" fill="transparent"/>
	<path d = "M 21.09 154.69 L 18.75 161.72" stroke="black" fill="transparent"/>
	<path d = "M 25.78 182.81 L 25.78 182.81" stroke="black" fill="transparent"/>
	<path d = "M 32.81 187.50 L 35.16 189.84" stroke="black" fill="transparent"/>
	<path d = "M 82.03 82.03 L 84.38 51.56 L 96.09 0.00 L 142.97 63.28 L 187.50 14.06 L 208.59 2.34 L 222.66 89.06" stroke="black" fill="transparent"/>
	<path d = "M 241.41 98.44 L 295.31 77.34 L 410.16 70.31 L 515.62 100.78 L 555.47 124.22 L 581.25 168.75 L 595.31 213.28 L 597.66 260.16 L 578.91 290.62 L 564.84 304.69 L 459.38 325.78 L 454.69 414.84 L 442.97 421.88 L 318.75 421.88 L 342.19 400.78 L 353.91 382.03 L 358.59 346.88 L 349.22 339.84 L 262.50 342.19 L 271.88 400.78 L 267.19 421.88 L 192.19 403.12 L 187.50 384.38 L 203.91 330.47 L 178.12 339.84" stroke="black" fill="transparent"/>
</svg>