<?xml version="1.0" encoding="UTF-8" standalone="no"?>
<!--Created with ndjsontosvg (https:https://github.com/thompson318/ndjsontosvg) 
	from the simplified Google quickdraw data set. key_id = 5701342301519872-->
<svg width="600" height="600"
	xmlns="http://www.w3.org/2000/svg">
	xmlns:ndjsontosvg="https://github.com/thompson318/ndjsontosvg"
	xmlns:quickdraw="https://quickdraw.withgoogle.com/data"
	xmlns:scikit-surgery="https://doi.org/10.1007/s11548-020-02180-5">

	<rect width="100%" height="100%" fill="white" />
	<path d = "M 342.19 133.59 L 300.00 131.25 L 239.06 142.97 L 213.28 159.38 L 206.25 180.47 L 215.62 192.19 L 257.81 208.59 L 353.91 217.97 L 367.97 196.88 L 370.31 152.34 L 295.31 152.34" stroke="black" fill="transparent"/>
	<path d = "M 269.53 166.41 L 269.53 173.44" stroke="black" fill="transparent"/>
	<path d = "M 330.47 182.81 L 316.41 180.47 L 328.12 180.47" stroke="black" fill="transparent"/>
	<path d = "M 412.50 91.41 L 389.06 65.62 L 349.22 39.84 L 300.00 21.09 L 255.47 16.41 L 114.84 16.41 L 11.72 58.59 L 2.34 86.72 L 0.00 159.38 L 21.09 239.06 L 51.56 302.34 L 103.12 379.69 L 159.38 426.56 L 438.28 428.91 L 513.28 410.16 L 560.16 379.69 L 592.97 295.31 L 597.66 215.62 L 588.28 189.84 L 560.16 157.03 L 534.38 138.28 L 396.09 84.38" stroke="black" fill="transparent"/>
	<path d = "M 389.06 65.62 L 389.06 44.53 L 405.47 18.75 L 440.62 2.34 L 468.75 2.34 L 499.22 51.56 L 461.72 42.19 L 440.62 46.88 L 426.56 89.06" stroke="black" fill="transparent"/>
</svg>