<?xml version="1.0" encoding="UTF-8" standalone="no"?>
<!--Created with ndjsontosvg (https:https://github.com/thompson318/ndjsontosvg) 
	from the simplified Google quickdraw data set. key_id = 6176573319282688-->
<svg width="600" height="600"
	xmlns="http://www.w3.org/2000/svg">
	xmlns:ndjsontosvg="https://github.com/thompson318/ndjsontosvg"
	xmlns:quickdraw="https://quickdraw.withgoogle.com/data"
	xmlns:scikit-surgery="https://doi.org/10.1007/s11548-020-02180-5">

	<rect width="100%" height="100%" fill="white" />
	<path d = "M 337.50 60.94 L 332.81 37.50 L 318.75 28.12 L 267.19 18.75 L 192.19 18.75 L 124.22 39.84 L 70.31 77.34 L 35.16 128.91 L 14.06 213.28 L 16.41 271.88 L 44.53 330.47 L 91.41 379.69 L 150.00 410.16 L 225.00 410.16 L 300.00 375.00 L 335.16 346.88 L 384.38 297.66 L 400.78 246.09 L 398.44 185.16 L 386.72 126.56 L 363.28 82.03 L 344.53 72.66" stroke="black" fill="transparent"/>
	<path d = "M 215.62 147.66 L 173.44 168.75 L 142.97 203.91 L 135.94 276.56 L 157.03 314.06 L 192.19 318.75 L 215.62 316.41 L 241.41 300.00 L 285.94 260.16 L 300.00 210.94 L 295.31 189.84 L 276.56 168.75 L 250.78 157.03 L 215.62 152.34" stroke="black" fill="transparent"/>
	<path d = "M 168.75 208.59 L 171.09 262.50" stroke="black" fill="transparent"/>
	<path d = "M 241.41 189.84 L 262.50 262.50" stroke="black" fill="transparent"/>
	<path d = "M 79.69 121.88 L 112.50 98.44 L 157.03 91.41 L 168.75 91.41 L 171.09 98.44 L 138.28 114.84 L 98.44 121.88 L 93.75 112.50 L 150.00 103.12 L 154.69 114.84 L 114.84 119.53" stroke="black" fill="transparent"/>
	<path d = "M 225.00 98.44 L 269.53 72.66 L 260.16 93.75 L 229.69 110.16 L 222.66 103.12 L 236.72 84.38 L 253.12 77.34 L 257.81 89.06" stroke="black" fill="transparent"/>
	<path d = "M 96.09 53.91 L 89.06 37.50 L 58.59 14.06 L 32.81 11.72 L 9.38 25.78 L 4.69 46.88 L 2.34 154.69" stroke="black" fill="transparent"/>
	<path d = "M 332.81 2.34 L 365.62 2.34 L 379.69 18.75 L 386.72 63.28 L 379.69 93.75" stroke="black" fill="transparent"/>
	<path d = "M 407.81 114.84 L 450.00 126.56 L 597.66 135.94" stroke="black" fill="transparent"/>
</svg>