<?xml version="1.0" encoding="UTF-8" standalone="no"?>
<!--Created with ndjsontosvg (https:https://github.com/thompson318/ndjsontosvg) 
	from the simplified Google quickdraw data set. key_id = 6376581834473472-->
<svg width="600" height="600"
	xmlns="http://www.w3.org/2000/svg">
	xmlns:ndjsontosvg="https://github.com/thompson318/ndjsontosvg"
	xmlns:quickdraw="https://quickdraw.withgoogle.com/data"
	xmlns:scikit-surgery="https://doi.org/10.1007/s11548-020-02180-5">

	<rect width="100%" height="100%" fill="white" />
	<path d = "M 510.94 103.12 L 442.97 103.12 L 412.50 119.53 L 367.97 180.47 L 346.88 243.75 L 346.88 292.97 L 363.28 316.41 L 424.22 353.91 L 452.34 363.28 L 482.81 360.94 L 553.12 318.75 L 578.91 271.88 L 585.94 225.00 L 583.59 201.56 L 564.84 171.09 L 489.84 112.50" stroke="black" fill="transparent"/>
	<path d = "M 473.44 225.00 L 438.28 229.69 L 428.91 241.41 L 454.69 255.47 L 466.41 250.78 L 480.47 229.69 L 468.75 199.22" stroke="black" fill="transparent"/>
	<path d = "M 412.50 98.44 L 403.12 32.81 L 405.47 0.00 L 403.12 82.03" stroke="black" fill="transparent"/>
	<path d = "M 506.25 133.59 L 517.97 124.22 L 571.88 44.53 L 581.25 49.22 L 597.66 86.72 L 597.66 138.28 L 567.19 217.97 L 548.44 236.72 L 546.09 232.03" stroke="black" fill="transparent"/>
	<path d = "M 375.00 161.72 L 250.78 147.66 L 185.16 147.66 L 117.19 166.41 L 56.25 194.53 L 18.75 220.31 L 2.34 243.75 L 0.00 271.88 L 7.03 285.94 L 35.16 300.00 L 96.09 311.72 L 243.75 309.38 L 332.81 292.97 L 367.97 283.59 L 363.28 276.56" stroke="black" fill="transparent"/>
	<path d = "M 56.25 180.47 L 79.69 175.78 L 84.38 161.72 L 65.62 142.97 L 49.22 140.62 L 44.53 171.09 L 58.59 180.47 L 82.03 178.12 L 107.81 166.41 L 114.84 145.31 L 89.06 119.53 L 67.97 112.50 L 42.19 110.16 L 37.50 124.22 L 84.38 128.91 L 96.09 117.19 L 100.78 98.44 L 93.75 84.38 L 75.00 67.97 L 32.81 56.25" stroke="black" fill="transparent"/>
</svg>