<?xml version="1.0" encoding="UTF-8" standalone="no"?>
<!--Created with ndjsontosvg (https:https://github.com/thompson318/ndjsontosvg) 
	from the simplified Google quickdraw data set. key_id = 4620327214645248-->
<svg width="600" height="600"
	xmlns="http://www.w3.org/2000/svg">
	xmlns:ndjsontosvg="https://github.com/thompson318/ndjsontosvg"
	xmlns:quickdraw="https://quickdraw.withgoogle.com/data"
	xmlns:scikit-surgery="https://doi.org/10.1007/s11548-020-02180-5">

	<rect width="100%" height="100%" fill="white" />
	<path d = "M 260.16 152.34 L 227.34 121.88 L 192.19 117.19 L 28.12 260.16 L 58.59 464.06 L 208.59 597.66 L 342.19 576.56 L 433.59 496.88 L 478.12 382.03 L 480.47 363.28 L 450.00 248.44 L 438.28 234.38 L 365.62 159.38 L 257.81 100.78" stroke="black" fill="transparent"/>
	<path d = "M 290.62 114.84 L 295.31 103.12 L 391.41 56.25 L 464.06 37.50 L 440.62 114.84 L 391.41 194.53" stroke="black" fill="transparent"/>
	<path d = "M 93.75 119.53 L 63.28 89.06 L 23.44 0.00 L 0.00 217.97 L 23.44 276.56 L 14.06 267.19" stroke="black" fill="transparent"/>
	<path d = "M 241.41 297.66 L 222.66 302.34 L 194.53 356.25 L 232.03 440.62 L 267.19 450.00 L 332.81 414.84 L 335.16 382.03 L 316.41 339.84 L 264.84 302.34" stroke="black" fill="transparent"/>
	<path d = "M 234.38 372.66 L 236.72 375.00" stroke="black" fill="transparent"/>
	<path d = "M 292.97 377.34 L 292.97 377.34" stroke="black" fill="transparent"/>
	<path d = "M 314.06 379.69 L 300.00 375.00" stroke="black" fill="transparent"/>
	<path d = "M 335.16 243.75 L 346.88 243.75" stroke="black" fill="transparent"/>
	<path d = "M 128.91 227.34 L 128.91 227.34" stroke="black" fill="transparent"/>
	<path d = "M 117.19 459.38 L 117.19 459.38" stroke="black" fill="transparent"/>
</svg>