<?xml version="1.0" encoding="UTF-8" standalone="no"?>
<!--Created with ndjsontosvg (https:https://github.com/thompson318/ndjsontosvg) 
	from the simplified Google quickdraw data set. key_id = 6699136751501312-->
<svg width="600" height="600"
	xmlns="http://www.w3.org/2000/svg">
	xmlns:ndjsontosvg="https://github.com/thompson318/ndjsontosvg"
	xmlns:quickdraw="https://quickdraw.withgoogle.com/data"
	xmlns:scikit-surgery="https://doi.org/10.1007/s11548-020-02180-5">

	<rect width="100%" height="100%" fill="white" />
	<path d = "M 161.72 389.06 L 196.88 356.25 L 267.19 323.44 L 309.38 318.75 L 337.50 339.84 L 356.25 363.28 L 363.28 396.09 L 351.56 440.62 L 297.66 475.78 L 239.06 489.84 L 196.88 480.47 L 168.75 454.69 L 164.06 438.28 L 180.47 396.09 L 189.84 389.06" stroke="black" fill="transparent"/>
	<path d = "M 309.38 384.38 L 318.75 384.38" stroke="black" fill="transparent"/>
	<path d = "M 246.09 407.81 L 246.09 407.81" stroke="black" fill="transparent"/>
	<path d = "M 248.44 405.47 L 248.44 405.47" stroke="black" fill="transparent"/>
	<path d = "M 229.69 426.56 L 229.69 426.56" stroke="black" fill="transparent"/>
	<path d = "M 241.41 389.06 L 248.44 393.75" stroke="black" fill="transparent"/>
	<path d = "M 166.41 248.44 L 185.16 234.38 L 227.34 222.66 L 307.03 210.94 L 358.59 220.31 L 421.88 267.19 L 457.03 339.84 L 461.72 391.41 L 438.28 473.44 L 393.75 517.97 L 309.38 543.75 L 232.03 539.06 L 182.81 517.97 L 150.00 480.47 L 110.16 407.81 L 82.03 335.16 L 82.03 316.41 L 150.00 255.47 L 206.25 227.34" stroke="black" fill="transparent"/>
	<path d = "M 164.06 100.78 L 173.44 96.09" stroke="black" fill="transparent"/>
	<path d = "M 442.97 84.38 L 442.97 84.38" stroke="black" fill="transparent"/>
	<path d = "M 386.72 150.00 L 393.75 150.00" stroke="black" fill="transparent"/>
	<path d = "M 384.38 168.75 L 384.38 168.75" stroke="black" fill="transparent"/>
	<path d = "M 442.97 9.38 L 384.38 14.06 L 278.91 0.00 L 213.28 4.69 L 154.69 25.78 L 93.75 60.94 L 42.19 112.50 L 11.72 173.44 L 4.69 203.91 L 0.00 323.44 L 30.47 431.25 L 96.09 510.94 L 173.44 546.09 L 255.47 562.50 L 332.81 562.50 L 494.53 522.66 L 583.59 461.72 L 597.66 426.56 L 592.97 335.16 L 567.19 182.81 L 525.00 93.75 L 480.47 42.19" stroke="black" fill="transparent"/>
</svg>