<?xml version="1.0" encoding="UTF-8" standalone="no"?>
<!--Created with ndjsontosvg (https:https://github.com/thompson318/ndjsontosvg) 
	from the simplified Google quickdraw data set. key_id = 6403277241450496-->
<svg width="600" height="600"
	xmlns="http://www.w3.org/2000/svg">
	xmlns:ndjsontosvg="https://github.com/thompson318/ndjsontosvg"
	xmlns:quickdraw="https://quickdraw.withgoogle.com/data"
	xmlns:scikit-surgery="https://doi.org/10.1007/s11548-020-02180-5">

	<rect width="100%" height="100%" fill="white" />
	<path d = "M 412.50 0.00 L 318.75 2.34 L 192.19 35.16 L 82.03 91.41 L 51.56 72.66 L 23.44 65.62 L 16.41 75.00 L 51.56 114.84 L 72.66 152.34 L 56.25 164.06 L 65.62 365.62 L 0.00 459.38" stroke="black" fill="transparent"/>
	<path d = "M 4.69 480.47 L 100.78 428.91 L 119.53 428.91" stroke="black" fill="transparent"/>
	<path d = "M 119.53 428.91 L 337.50 428.91 L 367.97 417.19 L 419.53 412.50 L 534.38 480.47 L 595.31 492.19 L 597.66 482.81 L 508.59 321.09 L 532.03 234.38 L 539.06 135.94 L 520.31 107.81 L 508.59 63.28 L 480.47 39.84 L 480.47 21.09 L 489.84 14.06" stroke="black" fill="transparent"/>
</svg>