<?xml version="1.0" encoding="UTF-8" standalone="no"?>
<!--Created with ndjsontosvg (https:https://github.com/thompson318/ndjsontosvg) 
	from the simplified Google quickdraw data set. key_id = 6114935572529152-->
<svg width="600" height="600"
	xmlns="http://www.w3.org/2000/svg">
	xmlns:ndjsontosvg="https://github.com/thompson318/ndjsontosvg"
	xmlns:quickdraw="https://quickdraw.withgoogle.com/data"
	xmlns:scikit-surgery="https://doi.org/10.1007/s11548-020-02180-5">

	<rect width="100%" height="100%" fill="white" />
	<path d = "M 93.75 150.00 L 72.66 283.59 L 72.66 433.59 L 91.41 485.16 L 126.56 536.72 L 175.78 571.88 L 234.38 595.31 L 281.25 595.31 L 351.56 534.38 L 384.38 471.09 L 391.41 325.78 L 384.38 276.56 L 342.19 220.31 L 309.38 187.50 L 267.19 150.00 L 227.34 131.25 L 196.88 124.22 L 145.31 126.56 L 65.62 166.41" stroke="black" fill="transparent"/>
	<path d = "M 42.19 63.28 L 77.34 110.16 L 107.81 131.25" stroke="black" fill="transparent"/>
	<path d = "M 49.22 42.19 L 119.53 63.28" stroke="black" fill="transparent"/>
	<path d = "M 147.66 11.72 L 140.62 65.62" stroke="black" fill="transparent"/>
	<path d = "M 147.66 0.00 L 194.53 56.25" stroke="black" fill="transparent"/>
	<path d = "M 262.50 7.03 L 217.97 79.69" stroke="black" fill="transparent"/>
	<path d = "M 276.56 16.41 L 283.59 28.12 L 283.59 140.62" stroke="black" fill="transparent"/>
	<path d = "M 194.53 51.56 L 229.69 70.31" stroke="black" fill="transparent"/>
	<path d = "M 53.91 124.22 L 25.78 128.91 L 0.00 178.12 L 60.94 171.09" stroke="black" fill="transparent"/>
	<path d = "M 138.28 161.72 L 138.28 283.59 L 161.72 445.31 L 180.47 506.25" stroke="black" fill="transparent"/>
	<path d = "M 239.06 159.38 L 269.53 384.38 L 278.91 525.00 L 285.94 534.38" stroke="black" fill="transparent"/>
	<path d = "M 332.81 217.97 L 363.28 445.31 L 367.97 557.81" stroke="black" fill="transparent"/>
	<path d = "M 58.59 370.31 L 187.50 332.81 L 349.22 311.72" stroke="black" fill="transparent"/>
</svg>