<?xml version="1.0" encoding="UTF-8" standalone="no"?>
<!--Created with ndjsontosvg (https:https://github.com/thompson318/ndjsontosvg) 
	from the simplified Google quickdraw data set. key_id = 4763132813639680-->
<svg width="600" height="600"
	xmlns="http://www.w3.org/2000/svg">
	xmlns:ndjsontosvg="https://github.com/thompson318/ndjsontosvg"
	xmlns:quickdraw="https://quickdraw.withgoogle.com/data"
	xmlns:scikit-surgery="https://doi.org/10.1007/s11548-020-02180-5">

	<rect width="100%" height="100%" fill="white" />
	<path d = "M 105.47 206.25 L 79.69 201.56 L 56.25 215.62 L 28.12 260.16 L 4.69 367.97 L 2.34 478.12 L 44.53 553.12 L 110.16 592.97 L 199.22 595.31 L 255.47 578.91 L 276.56 562.50 L 278.91 487.50 L 260.16 433.59 L 194.53 337.50 L 145.31 225.00 L 105.47 225.00 L 96.09 215.62" stroke="black" fill="transparent"/>
	<path d = "M 65.62 206.25 L 196.88 260.16" stroke="black" fill="transparent"/>
	<path d = "M 196.88 267.19 L 60.94 0.00 L 150.00 91.41 L 168.75 96.09 L 178.12 65.62 L 192.19 142.97 L 203.91 171.09 L 217.97 182.81 L 232.03 180.47 L 253.12 152.34 L 297.66 63.28 L 300.00 121.88 L 344.53 126.56 L 375.00 98.44 L 396.09 60.94 L 360.94 98.44 L 309.38 189.84 L 297.66 225.00 L 283.59 321.09" stroke="black" fill="transparent"/>
</svg>