<?xml version="1.0" encoding="UTF-8" standalone="no"?>
<!--Created with ndjsontosvg (https:https://github.com/thompson318/ndjsontosvg) 
	from the simplified Google quickdraw data set. key_id = 5262596020109312-->
<svg width="600" height="600"
	xmlns="http://www.w3.org/2000/svg">
	xmlns:ndjsontosvg="https://github.com/thompson318/ndjsontosvg"
	xmlns:quickdraw="https://quickdraw.withgoogle.com/data"
	xmlns:scikit-surgery="https://doi.org/10.1007/s11548-020-02180-5">

	<rect width="100%" height="100%" fill="white" />
	<path d = "M 23.44 346.88 L 14.06 351.56 L 16.41 440.62 L 23.44 471.09 L 56.25 543.75 L 117.19 590.62 L 166.41 595.31 L 189.84 578.91 L 217.97 532.03 L 222.66 318.75 L 213.28 300.00" stroke="black" fill="transparent"/>
	<path d = "M 0.00 358.59 L 30.47 295.31 L 91.41 246.09 L 150.00 236.72 L 210.94 248.44 L 227.34 269.53 L 236.72 302.34" stroke="black" fill="transparent"/>
	<path d = "M 79.69 262.50 L 58.59 246.09 L 25.78 192.19 L 18.75 150.00 L 25.78 107.81 L 39.84 98.44 L 53.91 114.84 L 72.66 175.78 L 100.78 232.03 L 100.78 243.75 L 86.72 131.25 L 91.41 77.34 L 103.12 70.31 L 147.66 173.44 L 159.38 243.75 L 157.03 210.94 L 171.09 110.16 L 210.94 0.00 L 201.56 56.25 L 201.56 206.25 L 196.88 255.47" stroke="black" fill="transparent"/>
</svg>