<?xml version="1.0" encoding="UTF-8" standalone="no"?>
<!--Created with ndjsontosvg (https:https://github.com/thompson318/ndjsontosvg) 
	from the simplified Google quickdraw data set. key_id = 5848549247942656-->
<svg width="600" height="600"
	xmlns="http://www.w3.org/2000/svg">
	xmlns:ndjsontosvg="https://github.com/thompson318/ndjsontosvg"
	xmlns:quickdraw="https://quickdraw.withgoogle.com/data"
	xmlns:scikit-surgery="https://doi.org/10.1007/s11548-020-02180-5">

	<rect width="100%" height="100%" fill="white" />
	<path d = "M 185.16 189.84 L 164.06 182.81 L 63.28 187.50 L 35.16 206.25 L 0.00 269.53 L 2.34 302.34 L 21.09 363.28 L 28.12 478.12 L 39.84 536.72 L 53.91 564.84 L 75.00 576.56 L 168.75 597.66 L 227.34 595.31 L 260.16 564.84 L 288.28 494.53 L 297.66 405.47 L 297.66 201.56 L 292.97 192.19 L 189.84 189.84" stroke="black" fill="transparent"/>
	<path d = "M 105.47 37.50 L 124.22 152.34 L 140.62 96.09" stroke="black" fill="transparent"/>
	<path d = "M 185.16 0.00 L 166.41 110.16 L 154.69 150.00 L 260.16 11.72 L 187.50 159.38 L 232.03 114.84 L 309.38 9.38 L 292.97 16.41 L 192.19 185.16" stroke="black" fill="transparent"/>
	<path d = "M 121.88 21.09 L 154.69 51.56" stroke="black" fill="transparent"/>
</svg>