<?xml version="1.0" encoding="UTF-8" standalone="no"?>
<!--Created with ndjsontosvg (https:https://github.com/thompson318/ndjsontosvg) 
	from the simplified Google quickdraw data set. key_id = 5793613965426688-->
<svg width="600" height="600"
	xmlns="http://www.w3.org/2000/svg">
	xmlns:ndjsontosvg="https://github.com/thompson318/ndjsontosvg"
	xmlns:quickdraw="https://quickdraw.withgoogle.com/data"
	xmlns:scikit-surgery="https://doi.org/10.1007/s11548-020-02180-5">

	<rect width="100%" height="100%" fill="white" />
	<path d = "M 161.72 210.94 L 147.66 210.94 L 96.09 227.34 L 37.50 271.88 L 16.41 304.69 L 0.00 382.03 L 0.00 466.41 L 21.09 527.34 L 77.34 590.62 L 128.91 597.66 L 232.03 546.09 L 304.69 489.84 L 339.84 442.97 L 384.38 358.59 L 396.09 295.31 L 246.09 187.50 L 199.22 159.38 L 173.44 152.34 L 147.66 159.38 L 128.91 220.31 L 114.84 227.34" stroke="black" fill="transparent"/>
	<path d = "M 98.44 257.81 L 75.00 182.81 L 44.53 49.22 L 178.12 140.62 L 175.78 103.12 L 150.00 25.78 L 150.00 2.34 L 161.72 0.00 L 257.81 56.25 L 274.22 58.59 L 300.00 30.47 L 269.53 84.38 L 274.22 105.47 L 304.69 105.47 L 356.25 89.06 L 363.28 98.44 L 367.97 145.31 L 349.22 192.19 L 360.94 203.91 L 358.59 236.72 L 335.16 253.12" stroke="black" fill="transparent"/>
	<path d = "M 164.06 271.88 L 164.06 321.09 L 178.12 332.81 L 185.16 328.12 L 194.53 307.03 L 194.53 274.22 L 185.16 278.91" stroke="black" fill="transparent"/>
	<path d = "M 124.22 372.66 L 117.19 414.84" stroke="black" fill="transparent"/>
</svg>