<?xml version="1.0" encoding="UTF-8" standalone="no"?>
<!--Created with ndjsontosvg (https:https://github.com/thompson318/ndjsontosvg) 
	from the simplified Google quickdraw data set. key_id = 6723353555501056-->
<svg width="600" height="600"
	xmlns="http://www.w3.org/2000/svg">
	xmlns:ndjsontosvg="https://github.com/thompson318/ndjsontosvg"
	xmlns:quickdraw="https://quickdraw.withgoogle.com/data"
	xmlns:scikit-surgery="https://doi.org/10.1007/s11548-020-02180-5">

	<rect width="100%" height="100%" fill="white" />
	<path d = "M 37.50 208.59 L 126.56 307.03 L 342.19 597.66 L 339.84 360.94 L 323.44 253.12 L 309.38 42.19 L 135.94 128.91 L 32.81 201.56 L 21.09 201.56 L 0.00 168.75 L 25.78 131.25 L 147.66 35.16 L 175.78 21.09 L 234.38 4.69 L 311.72 0.00 L 321.09 4.69 L 325.78 14.06 L 311.72 39.84 L 300.00 44.53" stroke="black" fill="transparent"/>
	<path d = "M 126.56 203.91 L 138.28 229.69 L 164.06 239.06 L 185.16 222.66 L 185.16 201.56 L 178.12 194.53 L 140.62 192.19 L 124.22 203.91" stroke="black" fill="transparent"/>
	<path d = "M 267.19 250.78 L 257.81 264.84 L 260.16 302.34 L 267.19 314.06 L 300.00 318.75 L 307.03 307.03 L 300.00 267.19 L 290.62 255.47 L 269.53 250.78" stroke="black" fill="transparent"/>
</svg>