<?xml version="1.0" encoding="UTF-8" standalone="no"?>
<!--Created with ndjsontosvg (https:https://github.com/thompson318/ndjsontosvg) 
	from the simplified Google quickdraw data set. key_id = 5905186025373696-->
<svg width="600" height="600"
	xmlns="http://www.w3.org/2000/svg">
	xmlns:ndjsontosvg="https://github.com/thompson318/ndjsontosvg"
	xmlns:quickdraw="https://quickdraw.withgoogle.com/data"
	xmlns:scikit-surgery="https://doi.org/10.1007/s11548-020-02180-5">

	<rect width="100%" height="100%" fill="white" />
	<path d = "M 23.44 60.94 L 241.41 82.03 L 377.34 103.12 L 532.03 100.78 L 506.25 46.88 L 480.47 23.44 L 384.38 11.72 L 187.50 0.00 L 0.00 2.34 L 14.06 16.41 L 39.84 23.44 L 49.22 37.50 L 49.22 51.56 L 35.16 60.94 L 42.19 79.69 L 96.09 164.06 L 140.62 285.94 L 171.09 349.22 L 271.88 457.03 L 339.84 560.16 L 386.72 597.66 L 398.44 592.97 L 419.53 555.47 L 426.56 499.22 L 442.97 445.31 L 503.91 318.75 L 503.91 271.88 L 480.47 206.25 L 485.16 161.72 L 494.53 147.66 L 475.78 105.47 L 485.16 84.38" stroke="black" fill="transparent"/>
	<path d = "M 178.12 161.72 L 178.12 161.72" stroke="black" fill="transparent"/>
	<path d = "M 269.53 194.53 L 175.78 201.56 L 175.78 217.97 L 215.62 264.84 L 257.81 278.91 L 271.88 269.53 L 278.91 257.81 L 278.91 225.00 L 257.81 182.81 L 243.75 178.12" stroke="black" fill="transparent"/>
	<path d = "M 398.44 206.25 L 391.41 267.19 L 407.81 295.31 L 421.88 297.66 L 450.00 281.25 L 468.75 250.78 L 447.66 208.59 L 431.25 196.88 L 417.19 203.91 L 405.47 239.06" stroke="black" fill="transparent"/>
</svg>