<?xml version="1.0" encoding="UTF-8" standalone="no"?>
<!--Created with ndjsontosvg (https:https://github.com/thompson318/ndjsontosvg) 
	from the simplified Google quickdraw data set. key_id = 4841350430195712-->
<svg width="600" height="600"
	xmlns="http://www.w3.org/2000/svg">
	xmlns:ndjsontosvg="https://github.com/thompson318/ndjsontosvg"
	xmlns:quickdraw="https://quickdraw.withgoogle.com/data"
	xmlns:scikit-surgery="https://doi.org/10.1007/s11548-020-02180-5">

	<rect width="100%" height="100%" fill="white" />
	<path d = "M 393.75 499.22 L 435.94 496.88 L 510.94 464.06 L 560.16 419.53 L 588.28 365.62 L 597.66 283.59 L 585.94 234.38 L 553.12 171.09 L 494.53 110.16 L 419.53 67.97 L 337.50 37.50 L 222.66 28.12 L 161.72 37.50 L 93.75 67.97 L 56.25 103.12 L 28.12 152.34 L 9.38 217.97 L 7.03 281.25 L 30.47 365.62 L 72.66 435.94 L 112.50 473.44 L 171.09 506.25 L 241.41 525.00 L 391.41 510.94" stroke="black" fill="transparent"/>
	<path d = "M 250.78 0.00 L 250.78 332.81 L 267.19 546.09" stroke="black" fill="transparent"/>
	<path d = "M 471.09 70.31 L 384.38 145.31 L 260.16 271.88 L 21.09 466.41" stroke="black" fill="transparent"/>
	<path d = "M 0.00 49.22 L 70.31 105.47 L 192.19 185.16 L 419.53 353.91 L 487.50 419.53 L 517.97 459.38" stroke="black" fill="transparent"/>
</svg>