<?xml version="1.0" encoding="UTF-8" standalone="no"?>
<!--Created with ndjsontosvg (https:https://github.com/thompson318/ndjsontosvg) 
	from the simplified Google quickdraw data set. key_id = 5277797587091456-->
<svg width="600" height="600"
	xmlns="http://www.w3.org/2000/svg">
	xmlns:ndjsontosvg="https://github.com/thompson318/ndjsontosvg"
	xmlns:quickdraw="https://quickdraw.withgoogle.com/data"
	xmlns:scikit-surgery="https://doi.org/10.1007/s11548-020-02180-5">

	<rect width="100%" height="100%" fill="white" />
	<path d = "M 389.06 28.12 L 325.78 2.34 L 283.59 0.00 L 175.78 23.44 L 119.53 58.59 L 67.97 114.84 L 30.47 175.78 L 7.03 260.16 L 0.00 332.81 L 21.09 428.91 L 58.59 475.78 L 91.41 501.56 L 154.69 532.03 L 342.19 574.22 L 403.12 578.91 L 447.66 562.50 L 501.56 532.03 L 576.56 440.62 L 597.66 339.84 L 592.97 257.81 L 578.91 201.56 L 550.78 150.00 L 508.59 86.72 L 473.44 58.59 L 428.91 37.50 L 382.03 30.47 L 337.50 25.78 L 307.03 32.81" stroke="black" fill="transparent"/>
	<path d = "M 309.38 14.06 L 274.22 522.66" stroke="black" fill="transparent"/>
	<path d = "M 30.47 246.09 L 67.97 241.41 L 196.88 241.41 L 344.53 255.47 L 487.50 278.91 L 564.84 304.69" stroke="black" fill="transparent"/>
	<path d = "M 360.94 138.28 L 360.94 175.78 L 367.97 189.84 L 386.72 199.22 L 403.12 192.19 L 405.47 166.41 L 400.78 147.66 L 377.34 142.97" stroke="black" fill="transparent"/>
	<path d = "M 431.25 351.56 L 400.78 370.31 L 391.41 389.06 L 389.06 426.56 L 405.47 433.59 L 428.91 414.84 L 433.59 398.44 L 410.16 365.62" stroke="black" fill="transparent"/>
	<path d = "M 126.56 370.31 L 140.62 389.06 L 178.12 403.12 L 192.19 400.78 L 159.38 377.34" stroke="black" fill="transparent"/>
	<path d = "M 201.56 145.31 L 203.91 168.75 L 217.97 189.84 L 213.28 150.00 L 192.19 126.56 L 173.44 114.84 L 138.28 117.19" stroke="black" fill="transparent"/>
</svg>