<?xml version="1.0" encoding="UTF-8" standalone="no"?>
<!--Created with ndjsontosvg (https:https://github.com/thompson318/ndjsontosvg) 
	from the simplified Google quickdraw data set. key_id = 6170768918446080-->
<svg width="600" height="600"
	xmlns="http://www.w3.org/2000/svg">
	xmlns:ndjsontosvg="https://github.com/thompson318/ndjsontosvg"
	xmlns:quickdraw="https://quickdraw.withgoogle.com/data"
	xmlns:scikit-surgery="https://doi.org/10.1007/s11548-020-02180-5">

	<rect width="100%" height="100%" fill="white" />
	<path d = "M 353.91 0.00 L 82.03 173.44 L 28.12 243.75 L 0.00 339.84 L 0.00 414.84 L 14.06 445.31 L 107.81 539.06 L 159.38 574.22 L 215.62 592.97 L 295.31 597.66 L 351.56 588.28 L 400.78 562.50 L 438.28 527.34 L 499.22 435.94 L 536.72 346.88 L 543.75 311.72 L 543.75 239.06 L 536.72 199.22 L 503.91 133.59 L 473.44 84.38 L 433.59 44.53 L 389.06 18.75 L 344.53 9.38 L 288.28 11.72 L 264.84 25.78" stroke="black" fill="transparent"/>
	<path d = "M 206.25 60.94 L 215.62 161.72 L 220.31 426.56 L 236.72 527.34" stroke="black" fill="transparent"/>
	<path d = "M 9.38 328.12 L 18.75 335.16 L 112.50 330.47 L 330.47 267.19 L 438.28 232.03 L 454.69 225.00 L 447.66 222.66" stroke="black" fill="transparent"/>
	<path d = "M 82.03 150.00 L 232.03 323.44 L 360.94 447.66 L 379.69 475.78 L 372.66 457.03" stroke="black" fill="transparent"/>
	<path d = "M 410.16 30.47 L 351.56 135.94 L 178.12 351.56 L 96.09 478.12 L 93.75 461.72" stroke="black" fill="transparent"/>
	<path d = "M 63.28 236.72 L 89.06 260.16 L 93.75 248.44 L 82.03 274.22 L 89.06 246.09 L 82.03 234.38" stroke="black" fill="transparent"/>
	<path d = "M 77.34 382.03 L 86.72 382.03 L 84.38 372.66 L 82.03 382.03 L 86.72 379.69" stroke="black" fill="transparent"/>
	<path d = "M 178.12 187.50 L 171.09 166.41 L 171.09 173.44 L 175.78 203.91" stroke="black" fill="transparent"/>
	<path d = "M 276.56 110.16 L 278.91 145.31 L 288.28 98.44 L 285.94 133.59 L 264.84 168.75" stroke="black" fill="transparent"/>
	<path d = "M 236.72 208.59 L 246.09 208.59 L 248.44 227.34" stroke="black" fill="transparent"/>
	<path d = "M 379.69 152.34 L 363.28 222.66 L 367.97 180.47 L 370.31 192.19" stroke="black" fill="transparent"/>
	<path d = "M 433.59 98.44 L 431.25 131.25" stroke="black" fill="transparent"/>
</svg>