<?xml version="1.0" encoding="UTF-8" standalone="no"?>
<!--Created with ndjsontosvg (https:https://github.com/thompson318/ndjsontosvg) 
	from the simplified Google quickdraw data set. key_id = 5209306012057600-->
<svg width="600" height="600"
	xmlns="http://www.w3.org/2000/svg">
	xmlns:ndjsontosvg="https://github.com/thompson318/ndjsontosvg"
	xmlns:quickdraw="https://quickdraw.withgoogle.com/data"
	xmlns:scikit-surgery="https://doi.org/10.1007/s11548-020-02180-5">

	<rect width="100%" height="100%" fill="white" />
	<path d = "M 250.78 2.34 L 206.25 2.34 L 171.09 16.41 L 91.41 72.66 L 46.88 131.25 L 16.41 189.84 L 0.00 262.50 L 14.06 356.25 L 42.19 410.16 L 75.00 461.72 L 142.97 517.97 L 185.16 527.34 L 260.16 525.00 L 316.41 513.28 L 365.62 489.84 L 400.78 450.00 L 445.31 346.88 L 447.66 300.00 L 433.59 236.72 L 375.00 72.66 L 318.75 39.84 L 250.78 37.50" stroke="black" fill="transparent"/>
	<path d = "M 255.47 49.22 L 248.44 196.88 L 213.28 506.25 L 217.97 597.66" stroke="black" fill="transparent"/>
	<path d = "M 51.56 264.84 L 180.47 304.69 L 384.38 321.09 L 487.50 346.88" stroke="black" fill="transparent"/>
	<path d = "M 344.53 157.03 L 260.16 274.22 L 140.62 400.78 L 84.38 482.81 L 72.66 494.53 L 65.62 492.19" stroke="black" fill="transparent"/>
	<path d = "M 117.19 133.59 L 236.72 339.84 L 321.09 431.25 L 358.59 459.38 L 379.69 466.41" stroke="black" fill="transparent"/>
	<path d = "M 281.25 147.66 L 283.59 147.66" stroke="black" fill="transparent"/>
	<path d = "M 375.00 253.12 L 377.34 253.12" stroke="black" fill="transparent"/>
	<path d = "M 356.25 393.75 L 358.59 393.75" stroke="black" fill="transparent"/>
	<path d = "M 243.75 487.50 L 246.09 485.16" stroke="black" fill="transparent"/>
	<path d = "M 142.97 400.78 L 142.97 403.12" stroke="black" fill="transparent"/>
	<path d = "M 75.00 307.03 L 77.34 304.69" stroke="black" fill="transparent"/>
</svg>