<?xml version="1.0" encoding="UTF-8" standalone="no"?>
<!--Created with ndjsontosvg (https:https://github.com/thompson318/ndjsontosvg) 
	from the simplified Google quickdraw data set. key_id = 5377679618473984-->
<svg width="600" height="600"
	xmlns="http://www.w3.org/2000/svg">
	xmlns:ndjsontosvg="https://github.com/thompson318/ndjsontosvg"
	xmlns:quickdraw="https://quickdraw.withgoogle.com/data"
	xmlns:scikit-surgery="https://doi.org/10.1007/s11548-020-02180-5">

	<rect width="100%" height="100%" fill="white" />
	<path d = "M 159.38 9.38 L 142.97 4.69 L 93.75 23.44 L 21.09 67.97 L 4.69 89.06 L 0.00 377.34 L 21.09 447.66 L 89.06 539.06 L 128.91 567.19 L 213.28 595.31 L 271.88 597.66 L 316.41 560.16 L 351.56 515.62 L 377.34 452.34 L 377.34 311.72 L 349.22 236.72 L 309.38 164.06 L 208.59 14.06" stroke="black" fill="transparent"/>
	<path d = "M 182.81 0.00 L 178.12 349.22 L 192.19 447.66 L 189.84 508.59" stroke="black" fill="transparent"/>
	<path d = "M 25.78 248.44 L 309.38 330.47 L 365.62 335.16 L 353.91 328.12" stroke="black" fill="transparent"/>
	<path d = "M 290.62 196.88 L 281.25 199.22 L 178.12 285.94 L 30.47 386.72 L 16.41 403.12" stroke="black" fill="transparent"/>
	<path d = "M 86.72 56.25 L 86.72 77.34 L 126.56 173.44 L 135.94 213.28 L 217.97 391.41 L 363.28 550.78" stroke="black" fill="transparent"/>
	<path d = "M 243.75 475.78 L 243.75 475.78" stroke="black" fill="transparent"/>
	<path d = "M 309.38 391.41 L 309.38 353.91" stroke="black" fill="transparent"/>
	<path d = "M 309.38 316.41 L 309.38 290.62" stroke="black" fill="transparent"/>
	<path d = "M 302.34 248.44 L 253.12 185.16" stroke="black" fill="transparent"/>
	<path d = "M 232.03 164.06 L 232.03 161.72" stroke="black" fill="transparent"/>
	<path d = "M 213.28 154.69 L 210.94 150.00" stroke="black" fill="transparent"/>
	<path d = "M 194.53 150.00 L 175.78 166.41" stroke="black" fill="transparent"/>
	<path d = "M 159.38 189.84 L 147.66 217.97" stroke="black" fill="transparent"/>
</svg>