<?xml version="1.0" encoding="UTF-8" standalone="no"?>
<!--Created with ndjsontosvg (https:https://github.com/thompson318/ndjsontosvg) 
	from the simplified Google quickdraw data set. key_id = 6684399510749184-->
<svg width="600" height="600"
	xmlns="http://www.w3.org/2000/svg">
	xmlns:ndjsontosvg="https://github.com/thompson318/ndjsontosvg"
	xmlns:quickdraw="https://quickdraw.withgoogle.com/data"
	xmlns:scikit-surgery="https://doi.org/10.1007/s11548-020-02180-5">

	<rect width="100%" height="100%" fill="white" />
	<path d = "M 363.28 16.41 L 297.66 11.72 L 175.78 23.44 L 60.94 58.59 L 30.47 77.34 L 4.69 105.47 L 4.69 140.62 L 39.84 168.75 L 112.50 185.16 L 250.78 187.50 L 396.09 171.09 L 499.22 150.00 L 569.53 119.53 L 597.66 93.75 L 592.97 65.62 L 569.53 39.84 L 534.38 18.75 L 499.22 7.03 L 379.69 2.34 L 276.56 18.75" stroke="black" fill="transparent"/>
	<path d = "M 32.81 180.47 L 126.56 431.25 L 166.41 508.59 L 210.94 569.53" stroke="black" fill="transparent"/>
	<path d = "M 539.06 77.34 L 525.00 133.59 L 457.03 246.09 L 302.34 562.50 L 290.62 569.53" stroke="black" fill="transparent"/>
	<path d = "M 203.91 255.47 L 189.84 274.22 L 187.50 304.69 L 201.56 323.44 L 227.34 332.81 L 271.88 321.09 L 307.03 276.56 L 304.69 253.12 L 283.59 225.00 L 253.12 213.28 L 217.97 215.62" stroke="black" fill="transparent"/>
	<path d = "M 400.78 166.41 L 363.28 217.97 L 363.28 246.09 L 379.69 257.81 L 403.12 255.47 L 426.56 239.06 L 447.66 206.25 L 442.97 178.12 L 428.91 168.75 L 414.84 168.75" stroke="black" fill="transparent"/>
	<path d = "M 203.91 379.69 L 201.56 403.12 L 215.62 445.31 L 232.03 459.38 L 246.09 461.72 L 271.88 450.00 L 290.62 431.25 L 314.06 403.12 L 321.09 375.00 L 314.06 356.25 L 281.25 349.22 L 255.47 358.59 L 234.38 377.34" stroke="black" fill="transparent"/>
	<path d = "M 107.81 203.91 L 103.12 248.44 L 110.16 285.94 L 119.53 297.66 L 135.94 300.00 L 164.06 283.59 L 182.81 248.44 L 173.44 201.56 L 150.00 178.12 L 133.59 180.47 L 121.88 192.19" stroke="black" fill="transparent"/>
	<path d = "M 358.59 309.38 L 332.81 349.22 L 337.50 375.00 L 365.62 367.97 L 389.06 351.56 L 398.44 330.47 L 398.44 300.00 L 386.72 285.94 L 367.97 281.25" stroke="black" fill="transparent"/>
	<path d = "M 180.47 475.78 L 196.88 510.94 L 217.97 522.66 L 250.78 515.62 L 269.53 496.88 L 274.22 485.16 L 239.06 487.50" stroke="black" fill="transparent"/>
</svg>