<?xml version="1.0" encoding="UTF-8" standalone="no"?>
<!--Created with ndjsontosvg (https:https://github.com/thompson318/ndjsontosvg) 
	from the simplified Google quickdraw data set. key_id = 4764704419348480-->
<svg width="600" height="600"
	xmlns="http://www.w3.org/2000/svg">
	xmlns:ndjsontosvg="https://github.com/thompson318/ndjsontosvg"
	xmlns:quickdraw="https://quickdraw.withgoogle.com/data"
	xmlns:scikit-surgery="https://doi.org/10.1007/s11548-020-02180-5">

	<rect width="100%" height="100%" fill="white" />
	<path d = "M 135.94 428.91 L 180.47 365.62 L 227.34 246.09 L 234.38 220.31 L 229.69 171.09 L 215.62 140.62 L 187.50 150.00 L 86.72 304.69 L 0.00 503.91 L 100.78 457.03 L 145.31 410.16" stroke="black" fill="transparent"/>
	<path d = "M 203.91 276.56 L 325.78 578.91 L 339.84 597.66 L 349.22 597.66 L 375.00 569.53 L 365.62 487.50 L 309.38 321.09 L 267.19 229.69 L 227.34 189.84" stroke="black" fill="transparent"/>
	<path d = "M 175.78 152.34 L 135.94 124.22 L 114.84 84.38 L 117.19 51.56 L 150.00 21.09 L 178.12 4.69 L 196.88 2.34 L 175.78 32.81 L 178.12 65.62 L 194.53 138.28" stroke="black" fill="transparent"/>
	<path d = "M 232.03 147.66 L 232.03 147.66" stroke="black" fill="transparent"/>
</svg>