<?xml version="1.0" encoding="UTF-8" standalone="no"?>
<!--Created with ndjsontosvg (https:https://github.com/thompson318/ndjsontosvg) 
	from the simplified Google quickdraw data set. key_id = 5899244273664000-->
<svg width="600" height="600"
	xmlns="http://www.w3.org/2000/svg">
	xmlns:ndjsontosvg="https://github.com/thompson318/ndjsontosvg"
	xmlns:quickdraw="https://quickdraw.withgoogle.com/data"
	xmlns:scikit-surgery="https://doi.org/10.1007/s11548-020-02180-5">

	<rect width="100%" height="100%" fill="white" />
	<path d = "M 159.38 567.19 L 180.47 464.06 L 215.62 389.06 L 260.16 321.09 L 349.22 210.94 L 349.22 192.19 L 332.81 180.47 L 274.22 178.12 L 227.34 194.53 L 206.25 208.59 L 112.50 314.06 L 18.75 473.44 L 2.34 525.00 L 4.69 569.53 L 14.06 585.94 L 35.16 597.66 L 72.66 597.66 L 159.38 569.53" stroke="black" fill="transparent"/>
	<path d = "M 585.94 564.84 L 576.56 487.50 L 536.72 332.81 L 515.62 292.97 L 478.12 250.78 L 442.97 232.03 L 403.12 241.41 L 389.06 267.19 L 384.38 379.69 L 407.81 447.66 L 433.59 489.84 L 450.00 543.75 L 487.50 578.91 L 548.44 592.97 L 581.25 592.97 L 590.62 550.78" stroke="black" fill="transparent"/>
	<path d = "M 307.03 185.16 L 323.44 147.66 L 403.12 79.69 L 438.28 42.19 L 496.88 9.38 L 532.03 14.06 L 534.38 28.12 L 527.34 49.22 L 494.53 93.75 L 417.19 168.75 L 335.16 213.28" stroke="black" fill="transparent"/>
	<path d = "M 508.59 255.47 L 482.81 201.56 L 344.53 28.12 L 297.66 0.00 L 288.28 23.44 L 290.62 51.56 L 302.34 77.34 L 344.53 124.22 L 424.22 243.75" stroke="black" fill="transparent"/>
</svg>