<?xml version="1.0" encoding="UTF-8" standalone="no"?>
<!--Created with ndjsontosvg (https:https://github.com/thompson318/ndjsontosvg) 
	from the simplified Google quickdraw data set. key_id = 5260997537300480-->
<svg width="600" height="600"
	xmlns="http://www.w3.org/2000/svg">
	xmlns:ndjsontosvg="https://github.com/thompson318/ndjsontosvg"
	xmlns:quickdraw="https://quickdraw.withgoogle.com/data"
	xmlns:scikit-surgery="https://doi.org/10.1007/s11548-020-02180-5">

	<rect width="100%" height="100%" fill="white" />
	<path d = "M 65.62 117.19 L 150.00 236.72 L 234.38 391.41 L 300.00 496.88 L 328.12 527.34 L 377.34 553.12 L 283.59 452.34 L 53.91 67.97" stroke="black" fill="transparent"/>
	<path d = "M 426.56 14.06 L 314.06 114.84 L 192.19 288.28 L 154.69 356.25 L 112.50 475.78 L 96.09 553.12 L 121.88 454.69 L 208.59 283.59 L 435.94 11.72 L 442.97 0.00 L 400.78 9.38" stroke="black" fill="transparent"/>
	<path d = "M 192.19 332.81 L 145.31 351.56 L 103.12 382.03 L 49.22 435.94 L 11.72 492.19 L 9.38 557.81 L 25.78 590.62 L 44.53 597.66 L 91.41 550.78 L 189.84 318.75 L 168.75 328.12 L 91.41 414.84 L 49.22 471.09 L 28.12 517.97 L 35.16 581.25 L 49.22 583.59 L 91.41 546.09 L 152.34 393.75 L 117.19 396.09 L 86.72 421.88 L 53.91 473.44 L 51.56 489.84 L 63.28 496.88" stroke="black" fill="transparent"/>
	<path d = "M 91.41 407.81 L 58.59 431.25 L 32.81 466.41 L 9.38 503.91 L 0.00 536.72 L 0.00 564.84 L 11.72 581.25 L 25.78 585.94 L 46.88 576.56 L 119.53 407.81 L 121.88 391.41 L 112.50 393.75 L 84.38 417.19 L 49.22 471.09 L 46.88 515.62 L 70.31 494.53" stroke="black" fill="transparent"/>
	<path d = "M 248.44 410.16 L 250.78 435.94" stroke="black" fill="transparent"/>
</svg>