<?xml version="1.0" encoding="UTF-8" standalone="no"?>
<!--Created with ndjsontosvg (https:https://github.com/thompson318/ndjsontosvg) 
	from the simplified Google quickdraw data set. key_id = 5348731522121728-->
<svg width="600" height="600"
	xmlns="http://www.w3.org/2000/svg">
	xmlns:ndjsontosvg="https://github.com/thompson318/ndjsontosvg"
	xmlns:quickdraw="https://quickdraw.withgoogle.com/data"
	xmlns:scikit-surgery="https://doi.org/10.1007/s11548-020-02180-5">

	<rect width="100%" height="100%" fill="white" />
	<path d = "M 140.62 98.44 L 140.62 18.75 L 147.66 16.41 L 435.94 0.00 L 445.31 11.72 L 435.94 67.97 L 445.31 100.78 L 529.69 82.03 L 595.31 77.34 L 597.66 98.44 L 585.94 164.06 L 555.47 152.34 L 431.25 159.38 L 424.22 135.94 L 407.81 126.56 L 370.31 133.59 L 346.88 168.75 L 257.81 154.69 L 201.56 157.03 L 201.56 128.91 L 185.16 117.19 L 138.28 133.59 L 128.91 168.75 L 0.00 164.06 L 14.06 154.69 L 11.72 110.16 L 147.66 93.75" stroke="black" fill="transparent"/>
	<path d = "M 182.81 119.53 L 164.06 114.84 L 138.28 128.91 L 124.22 150.00 L 121.88 173.44 L 126.56 182.81 L 147.66 189.84 L 194.53 166.41 L 206.25 145.31 L 203.91 131.25 L 194.53 114.84 L 178.12 110.16" stroke="black" fill="transparent"/>
	<path d = "M 396.09 128.91 L 346.88 150.00 L 335.16 168.75 L 360.94 185.16 L 386.72 192.19 L 435.94 164.06 L 440.62 152.34 L 431.25 138.28 L 391.41 119.53" stroke="black" fill="transparent"/>
</svg>