<?xml version="1.0" encoding="UTF-8" standalone="no"?>
<!--Created with ndjsontosvg (https:https://github.com/thompson318/ndjsontosvg) 
	from the simplified Google quickdraw data set. key_id = 6324472262950912-->
<svg width="600" height="600"
	xmlns="http://www.w3.org/2000/svg">
	xmlns:ndjsontosvg="https://github.com/thompson318/ndjsontosvg"
	xmlns:quickdraw="https://quickdraw.withgoogle.com/data"
	xmlns:scikit-surgery="https://doi.org/10.1007/s11548-020-02180-5">

	<rect width="100%" height="100%" fill="white" />
	<path d = "M 588.28 217.97 L 485.16 227.34 L 445.31 217.97 L 440.62 145.31 L 424.22 77.34 L 382.03 84.38 L 281.25 72.66 L 147.66 77.34 L 126.56 82.03 L 140.62 196.88 L 128.91 203.91 L 98.44 203.91 L 25.78 187.50 L 0.00 201.56 L 35.16 302.34 L 51.56 328.12 L 89.06 339.84 L 292.97 353.91 L 426.56 349.22 L 550.78 332.81 L 578.91 323.44 L 592.97 304.69 L 597.66 276.56 L 583.59 229.69 L 546.09 185.16" stroke="black" fill="transparent"/>
	<path d = "M 332.81 77.34 L 358.59 194.53 L 468.75 203.91" stroke="black" fill="transparent"/>
	<path d = "M 236.72 70.31 L 234.38 185.16 L 107.81 164.06" stroke="black" fill="transparent"/>
	<path d = "M 171.09 351.56 L 119.53 356.25 L 91.41 384.38 L 86.72 403.12 L 93.75 417.19 L 121.88 433.59 L 145.31 435.94 L 173.44 428.91 L 194.53 419.53 L 206.25 400.78 L 199.22 360.94 L 164.06 342.19 L 114.84 332.81" stroke="black" fill="transparent"/>
	<path d = "M 452.34 325.78 L 414.84 356.25 L 389.06 412.50 L 407.81 433.59 L 468.75 433.59 L 499.22 412.50 L 506.25 398.44 L 496.88 353.91 L 452.34 307.03" stroke="black" fill="transparent"/>
	<path d = "M 321.09 67.97 L 302.34 18.75 L 281.25 2.34 L 264.84 0.00 L 253.12 2.34 L 236.72 23.44 L 246.09 75.00" stroke="black" fill="transparent"/>
	<path d = "M 304.69 46.88 L 241.41 46.88" stroke="black" fill="transparent"/>
	<path d = "M 297.66 75.00 L 248.44 65.62" stroke="black" fill="transparent"/>
</svg>