<?xml version="1.0" encoding="UTF-8" standalone="no"?>
<!--Created with ndjsontosvg (https:https://github.com/thompson318/ndjsontosvg) 
	from the simplified Google quickdraw data set. key_id = 6055113586114560-->
<svg width="600" height="600"
	xmlns="http://www.w3.org/2000/svg">
	xmlns:ndjsontosvg="https://github.com/thompson318/ndjsontosvg"
	xmlns:quickdraw="https://quickdraw.withgoogle.com/data"
	xmlns:scikit-surgery="https://doi.org/10.1007/s11548-020-02180-5">

	<rect width="100%" height="100%" fill="white" />
	<path d = "M 452.34 248.44 L 419.53 260.16 L 398.44 292.97 L 391.41 330.47 L 407.81 346.88 L 452.34 332.81 L 482.81 292.97 L 480.47 276.56 L 454.69 248.44 L 424.22 243.75" stroke="black" fill="transparent"/>
	<path d = "M 145.31 274.22 L 119.53 300.00 L 117.19 328.12 L 135.94 337.50 L 173.44 337.50 L 196.88 323.44 L 201.56 290.62 L 175.78 271.88 L 161.72 269.53" stroke="black" fill="transparent"/>
	<path d = "M 91.41 351.56 L 96.09 330.47 L 138.28 278.91 L 168.75 260.16 L 203.91 248.44 L 222.66 253.12 L 234.38 300.00 L 250.78 316.41 L 278.91 323.44 L 356.25 316.41 L 360.94 262.50 L 370.31 241.41 L 391.41 222.66 L 438.28 203.91 L 468.75 203.91 L 513.28 239.06 L 522.66 255.47 L 527.34 297.66 L 532.03 302.34 L 548.44 300.00 L 581.25 276.56 L 597.66 248.44 L 597.66 217.97 L 564.84 159.38 L 492.19 100.78 L 428.91 75.00 L 372.66 60.94 L 311.72 58.59 L 269.53 77.34 L 157.03 145.31 L 93.75 201.56 L 4.69 309.38 L 0.00 349.22 L 14.06 367.97 L 51.56 386.72 L 77.34 382.03 L 114.84 353.91" stroke="black" fill="transparent"/>
	<path d = "M 208.59 84.38 L 203.91 75.00 L 208.59 16.41 L 264.84 4.69 L 377.34 0.00 L 407.81 2.34 L 417.19 84.38" stroke="black" fill="transparent"/>
	<path d = "M 311.72 14.06 L 321.09 79.69" stroke="black" fill="transparent"/>
</svg>