<?xml version="1.0" encoding="UTF-8" standalone="no"?>
<!--Created with ndjsontosvg (https:https://github.com/thompson318/ndjsontosvg) 
	from the simplified Google quickdraw data set. key_id = 4973079996399616-->
<svg width="600" height="600"
	xmlns="http://www.w3.org/2000/svg">
	xmlns:ndjsontosvg="https://github.com/thompson318/ndjsontosvg"
	xmlns:quickdraw="https://quickdraw.withgoogle.com/data"
	xmlns:scikit-surgery="https://doi.org/10.1007/s11548-020-02180-5">

	<rect width="100%" height="100%" fill="white" />
	<path d = "M 321.09 93.75 L 264.84 86.72 L 152.34 107.81 L 119.53 147.66 L 105.47 173.44 L 84.38 288.28 L 103.12 295.31 L 164.06 300.00 L 175.78 276.56 L 203.91 255.47 L 215.62 255.47 L 241.41 267.19 L 262.50 297.66 L 384.38 304.69 L 431.25 253.12 L 457.03 250.78 L 503.91 302.34 L 546.09 304.69 L 567.19 288.28 L 595.31 239.06 L 597.66 196.88 L 562.50 140.62 L 457.03 96.09 L 353.91 77.34 L 229.69 79.69 L 154.69 105.47 L 124.22 124.22 L 105.47 147.66 L 107.81 178.12 L 9.38 196.88 L 0.00 206.25 L 0.00 225.00 L 30.47 264.84 L 49.22 278.91 L 100.78 292.97 L 128.91 267.19" stroke="black" fill="transparent"/>
	<path d = "M 173.44 285.94 L 157.03 332.81 L 168.75 353.91 L 182.81 363.28 L 208.59 360.94 L 229.69 344.53 L 248.44 318.75 L 250.78 290.62" stroke="black" fill="transparent"/>
	<path d = "M 393.75 304.69 L 391.41 349.22 L 400.78 360.94 L 419.53 365.62 L 501.56 337.50 L 517.97 292.97 L 485.16 283.59" stroke="black" fill="transparent"/>
	<path d = "M 257.81 79.69 L 260.16 18.75 L 314.06 0.00 L 353.91 11.72 L 367.97 67.97" stroke="black" fill="transparent"/>
</svg>