<?xml version="1.0" encoding="UTF-8" standalone="no"?>
<!--Created with ndjsontosvg (https:https://github.com/thompson318/ndjsontosvg) 
	from the simplified Google quickdraw data set. key_id = 6542143013257216-->
<svg width="600" height="600"
	xmlns="http://www.w3.org/2000/svg">
	xmlns:ndjsontosvg="https://github.com/thompson318/ndjsontosvg"
	xmlns:quickdraw="https://quickdraw.withgoogle.com/data"
	xmlns:scikit-surgery="https://doi.org/10.1007/s11548-020-02180-5">

	<rect width="100%" height="100%" fill="white" />
	<path d = "M 157.03 133.59 L 171.09 241.41 L 166.41 344.53 L 154.69 351.56 L 23.44 332.81 L 0.00 384.38 L 0.00 464.06 L 7.03 471.09 L 217.97 478.12 L 225.00 473.44 L 232.03 410.16 L 257.81 405.47 L 290.62 419.53 L 297.66 457.03 L 311.72 468.75 L 424.22 468.75 L 435.94 450.00 L 440.62 405.47 L 459.38 398.44 L 506.25 426.56 L 520.31 450.00 L 522.66 475.78 L 534.38 487.50 L 571.88 492.19 L 590.62 480.47 L 597.66 445.31 L 571.88 353.91 L 550.78 232.03 L 548.44 168.75 L 517.97 164.06 L 396.09 182.81 L 264.84 175.78 L 110.16 180.47" stroke="black" fill="transparent"/>
	<path d = "M 260.16 166.41 L 269.53 135.94 L 283.59 124.22 L 330.47 128.91 L 321.09 168.75" stroke="black" fill="transparent"/>
	<path d = "M 234.38 0.00 L 255.47 25.78 L 264.84 70.31" stroke="black" fill="transparent"/>
</svg>