<?xml version="1.0" encoding="UTF-8" standalone="no"?>
<!--Created with ndjsontosvg (https:https://github.com/thompson318/ndjsontosvg) 
	from the simplified Google quickdraw data set. key_id = 5292135110672384-->
<svg width="600" height="600"
	xmlns="http://www.w3.org/2000/svg">
	xmlns:ndjsontosvg="https://github.com/thompson318/ndjsontosvg"
	xmlns:quickdraw="https://quickdraw.withgoogle.com/data"
	xmlns:scikit-surgery="https://doi.org/10.1007/s11548-020-02180-5">

	<rect width="100%" height="100%" fill="white" />
	<path d = "M 103.12 159.38 L 49.22 173.44 L 18.75 189.84 L 2.34 253.12 L 2.34 304.69 L 58.59 314.06 L 189.84 300.00 L 349.22 292.97 L 597.66 295.31 L 578.91 257.81 L 576.56 168.75 L 567.19 159.38 L 539.06 159.38 L 445.31 173.44 L 442.97 96.09 L 419.53 11.72 L 405.47 2.34 L 367.97 0.00 L 222.66 14.06 L 157.03 32.81 L 150.00 65.62 L 152.34 152.34 L 84.38 159.38" stroke="black" fill="transparent"/>
	<path d = "M 140.62 325.78 L 117.19 363.28 L 110.16 405.47 L 128.91 435.94 L 154.69 452.34 L 194.53 452.34 L 225.00 433.59 L 255.47 393.75 L 262.50 370.31 L 257.81 351.56 L 236.72 318.75 L 199.22 302.34 L 178.12 304.69 L 140.62 325.78 L 121.88 353.91 L 121.88 367.97 L 142.97 398.44" stroke="black" fill="transparent"/>
	<path d = "M 379.69 321.09 L 360.94 330.47 L 342.19 360.94 L 342.19 407.81 L 356.25 438.28 L 367.97 447.66 L 403.12 452.34 L 438.28 440.62 L 468.75 417.19 L 487.50 375.00 L 487.50 344.53 L 459.38 311.72 L 412.50 288.28 L 375.00 300.00 L 353.91 325.78" stroke="black" fill="transparent"/>
</svg>