<?xml version="1.0" encoding="UTF-8" standalone="no"?>
<!--Created with ndjsontosvg (https:https://github.com/thompson318/ndjsontosvg) 
	from the simplified Google quickdraw data set. key_id = 5579762313461760-->
<svg width="600" height="600"
	xmlns="http://www.w3.org/2000/svg">
	xmlns:ndjsontosvg="https://github.com/thompson318/ndjsontosvg"
	xmlns:quickdraw="https://quickdraw.withgoogle.com/data"
	xmlns:scikit-surgery="https://doi.org/10.1007/s11548-020-02180-5">

	<rect width="100%" height="100%" fill="white" />
	<path d = "M 194.53 485.16 L 182.81 485.16 L 161.72 496.88 L 145.31 539.06 L 164.06 578.91 L 199.22 590.62 L 250.78 597.66 L 297.66 592.97 L 360.94 567.19 L 372.66 550.78 L 370.31 532.03 L 370.31 546.09 L 393.75 555.47 L 440.62 536.72 L 475.78 480.47 L 475.78 445.31 L 464.06 424.22 L 414.84 405.47 L 349.22 410.16 L 307.03 377.34 L 267.19 367.97 L 196.88 391.41 L 152.34 386.72 L 84.38 464.06 L 82.03 482.81 L 135.94 543.75" stroke="black" fill="transparent"/>
	<path d = "M 105.47 379.69 L 112.50 367.97 L 98.44 328.12 L 96.09 262.50 L 67.97 185.16 L 49.22 98.44 L 44.53 107.81" stroke="black" fill="transparent"/>
	<path d = "M 28.12 100.78 L 4.69 79.69 L 0.00 58.59 L 28.12 0.00" stroke="black" fill="transparent"/>
</svg>