<?xml version="1.0" encoding="UTF-8" standalone="no"?>
<!--Created with ndjsontosvg (https:https://github.com/thompson318/ndjsontosvg) 
	from the simplified Google quickdraw data set. key_id = 4512403024773120-->
<svg width="600" height="600"
	xmlns="http://www.w3.org/2000/svg">
	xmlns:ndjsontosvg="https://github.com/thompson318/ndjsontosvg"
	xmlns:quickdraw="https://quickdraw.withgoogle.com/data"
	xmlns:scikit-surgery="https://doi.org/10.1007/s11548-020-02180-5">

	<rect width="100%" height="100%" fill="white" />
	<path d = "M 185.16 79.69 L 185.16 79.69" stroke="black" fill="transparent"/>
	<path d = "M 112.50 67.97 L 117.19 51.56 L 135.94 35.16 L 206.25 14.06 L 323.44 0.00 L 445.31 2.34 L 513.28 32.81 L 576.56 75.00 L 597.66 98.44 L 597.66 121.88 L 576.56 164.06 L 532.03 201.56 L 316.41 201.56 L 173.44 182.81 L 49.22 138.28 L 21.09 121.88 L 0.00 98.44 L 4.69 67.97 L 70.31 2.34 L 117.19 14.06" stroke="black" fill="transparent"/>
	<path d = "M 131.25 25.78 L 140.62 35.16" stroke="black" fill="transparent"/>
	<path d = "M 330.47 77.34 L 377.34 77.34 L 375.00 86.72 L 346.88 89.06 L 323.44 82.03 L 328.12 75.00" stroke="black" fill="transparent"/>
	<path d = "M 367.97 70.31 L 372.66 46.88 L 391.41 51.56" stroke="black" fill="transparent"/>
</svg>