<?xml version="1.0" encoding="UTF-8" standalone="no"?>
<!--Created with ndjsontosvg (https:https://github.com/thompson318/ndjsontosvg) 
	from the simplified Google quickdraw data set. key_id = 5600659845939200-->
<svg width="600" height="600"
	xmlns="http://www.w3.org/2000/svg">
	xmlns:ndjsontosvg="https://github.com/thompson318/ndjsontosvg"
	xmlns:quickdraw="https://quickdraw.withgoogle.com/data"
	xmlns:scikit-surgery="https://doi.org/10.1007/s11548-020-02180-5">

	<rect width="100%" height="100%" fill="white" />
	<path d = "M 440.62 18.75 L 389.06 7.03 L 283.59 0.00 L 222.66 0.00 L 192.19 14.06 L 117.19 77.34 L 75.00 105.47 L 9.38 206.25 L 0.00 260.16 L 23.44 363.28 L 39.84 382.03 L 72.66 396.09 L 84.38 419.53 L 103.12 424.22 L 309.38 442.97 L 351.56 433.59 L 400.78 398.44 L 485.16 363.28 L 515.62 342.19 L 553.12 297.66 L 581.25 276.56 L 597.66 213.28 L 592.97 131.25 L 569.53 56.25 L 555.47 49.22 L 473.44 46.88 L 452.34 32.81 L 426.56 25.78" stroke="black" fill="transparent"/>
	<path d = "M 128.91 114.84 L 161.72 152.34 L 250.78 157.03 L 269.53 140.62 L 302.34 161.72 L 328.12 166.41 L 360.94 126.56 L 407.81 135.94 L 475.78 128.91 L 487.50 121.88 L 494.53 107.81" stroke="black" fill="transparent"/>
</svg>