<?xml version="1.0" encoding="UTF-8" standalone="no"?>
<!--Created with ndjsontosvg (https:https://github.com/thompson318/ndjsontosvg) 
	from the simplified Google quickdraw data set. key_id = 4977103957131264-->
<svg width="600" height="600"
	xmlns="http://www.w3.org/2000/svg">
	xmlns:ndjsontosvg="https://github.com/thompson318/ndjsontosvg"
	xmlns:quickdraw="https://quickdraw.withgoogle.com/data"
	xmlns:scikit-surgery="https://doi.org/10.1007/s11548-020-02180-5">

	<rect width="100%" height="100%" fill="white" />
	<path d = "M 323.44 53.91 L 250.78 35.16 L 159.38 32.81 L 133.59 42.19 L 86.72 72.66 L 49.22 112.50 L 16.41 178.12 L 4.69 225.00 L 0.00 281.25 L 16.41 307.03 L 32.81 321.09 L 161.72 375.00 L 304.69 414.84 L 445.31 438.28 L 517.97 438.28 L 536.72 431.25 L 576.56 375.00 L 592.97 332.81 L 597.66 215.62 L 564.84 124.22 L 534.38 67.97 L 508.59 46.88 L 489.84 39.84 L 307.03 7.03 L 171.09 14.06 L 128.91 44.53" stroke="black" fill="transparent"/>
	<path d = "M 178.12 39.84 L 152.34 53.91 L 96.09 124.22 L 30.47 229.69 L 28.12 246.09 L 39.84 267.19 L 217.97 372.66 L 337.50 412.50 L 403.12 450.00 L 457.03 461.72 L 499.22 450.00 L 525.00 438.28 L 569.53 382.03 L 574.22 318.75 L 543.75 173.44 L 513.28 119.53 L 412.50 51.56 L 285.94 0.00 L 255.47 0.00 L 215.62 11.72 L 171.09 39.84 L 161.72 53.91" stroke="black" fill="transparent"/>
</svg>