<?xml version="1.0" encoding="UTF-8" standalone="no"?>
<!--Created with ndjsontosvg (https:https://github.com/thompson318/ndjsontosvg) 
	from the simplified Google quickdraw data set. key_id = 4776672752566272-->
<svg width="600" height="600"
	xmlns="http://www.w3.org/2000/svg">
	xmlns:ndjsontosvg="https://github.com/thompson318/ndjsontosvg"
	xmlns:quickdraw="https://quickdraw.withgoogle.com/data"
	xmlns:scikit-surgery="https://doi.org/10.1007/s11548-020-02180-5">

	<rect width="100%" height="100%" fill="white" />
	<path d = "M 28.12 110.16 L 30.47 98.44 L 89.06 53.91 L 166.41 21.09 L 229.69 7.03 L 363.28 0.00 L 466.41 21.09 L 541.41 58.59 L 583.59 114.84 L 595.31 157.03 L 597.66 210.94 L 590.62 229.69 L 560.16 257.81 L 473.44 290.62 L 342.19 302.34 L 255.47 288.28 L 103.12 234.38 L 39.84 201.56 L 18.75 180.47 L 0.00 140.62 L 2.34 119.53 L 37.50 79.69 L 96.09 63.28" stroke="black" fill="transparent"/>
	<path d = "M 79.69 126.56 L 96.09 105.47 L 117.19 96.09 L 145.31 96.09 L 175.78 117.19 L 232.03 110.16" stroke="black" fill="transparent"/>
	<path d = "M 344.53 58.59 L 424.22 72.66 L 475.78 58.59" stroke="black" fill="transparent"/>
	<path d = "M 192.19 227.34 L 269.53 192.19 L 292.97 192.19 L 328.12 208.59 L 363.28 208.59" stroke="black" fill="transparent"/>
	<path d = "M 464.06 241.41 L 485.16 248.44 L 550.78 227.34 L 564.84 229.69 L 569.53 239.06" stroke="black" fill="transparent"/>
	<path d = "M 424.22 157.03 L 426.56 152.34 L 459.38 145.31 L 501.56 154.69" stroke="black" fill="transparent"/>
</svg>