<?xml version="1.0" encoding="UTF-8" standalone="no"?>
<!--Created with ndjsontosvg (https:https://github.com/thompson318/ndjsontosvg) 
	from the simplified Google quickdraw data set. key_id = 4686024447885312-->
<svg width="600" height="600"
	xmlns="http://www.w3.org/2000/svg">
	xmlns:ndjsontosvg="https://github.com/thompson318/ndjsontosvg"
	xmlns:quickdraw="https://quickdraw.withgoogle.com/data"
	xmlns:scikit-surgery="https://doi.org/10.1007/s11548-020-02180-5">

	<rect width="100%" height="100%" fill="white" />
	<path d = "M 234.38 42.19 L 103.12 65.62 L 49.22 86.72 L 23.44 112.50 L 23.44 124.22 L 39.84 140.62 L 103.12 175.78 L 161.72 192.19 L 232.03 199.22 L 316.41 196.88 L 398.44 178.12 L 457.03 147.66 L 487.50 110.16 L 485.16 98.44 L 466.41 86.72 L 386.72 63.28 L 318.75 44.53 L 248.44 42.19" stroke="black" fill="transparent"/>
	<path d = "M 14.06 110.16 L 7.03 121.88 L 0.00 292.97 L 114.84 302.34 L 489.84 281.25 L 499.22 229.69 L 499.22 159.38 L 487.50 119.53" stroke="black" fill="transparent"/>
	<path d = "M 592.97 0.00 L 417.19 2.34 L 410.16 58.59 L 419.53 60.94 L 466.41 42.19 L 592.97 51.56 L 597.66 28.12 L 592.97 2.34" stroke="black" fill="transparent"/>
	<path d = "M 487.50 44.53 L 496.88 164.06 L 492.19 255.47" stroke="black" fill="transparent"/>
	<path d = "M 578.91 35.16 L 574.22 100.78" stroke="black" fill="transparent"/>
</svg>