<?xml version="1.0" encoding="UTF-8" standalone="no"?>
<!--Created with ndjsontosvg (https:https://github.com/thompson318/ndjsontosvg) 
	from the simplified Google quickdraw data set. key_id = 6233347615358976-->
<svg width="600" height="600"
	xmlns="http://www.w3.org/2000/svg">
	xmlns:ndjsontosvg="https://github.com/thompson318/ndjsontosvg"
	xmlns:quickdraw="https://quickdraw.withgoogle.com/data"
	xmlns:scikit-surgery="https://doi.org/10.1007/s11548-020-02180-5">

	<rect width="100%" height="100%" fill="white" />
	<path d = "M 86.72 16.41 L 592.97 0.00 L 592.97 11.72 L 525.00 126.56" stroke="black" fill="transparent"/>
	<path d = "M 91.41 11.72 L 0.00 107.81 L 14.06 117.19 L 250.78 124.22 L 452.34 105.47 L 543.75 105.47 L 510.94 112.50" stroke="black" fill="transparent"/>
	<path d = "M 96.09 84.38 L 110.16 70.31 L 117.19 37.50" stroke="black" fill="transparent"/>
	<path d = "M 208.59 89.06 L 215.62 65.62 L 234.38 49.22" stroke="black" fill="transparent"/>
	<path d = "M 358.59 93.75 L 356.25 75.00 L 372.66 51.56" stroke="black" fill="transparent"/>
	<path d = "M 501.56 35.16 L 459.38 35.16 L 438.28 44.53 L 435.94 53.91 L 471.09 56.25 L 520.31 49.22 L 529.69 39.84 L 494.53 37.50" stroke="black" fill="transparent"/>
	<path d = "M 475.78 42.19 L 466.41 46.88 L 494.53 46.88 L 513.28 44.53 L 480.47 42.19" stroke="black" fill="transparent"/>
	<path d = "M 28.12 86.72 L 28.12 16.41" stroke="black" fill="transparent"/>
</svg>