<?xml version="1.0" encoding="UTF-8" standalone="no"?>
<!--Created with ndjsontosvg (https:https://github.com/thompson318/ndjsontosvg) 
	from the simplified Google quickdraw data set. key_id = 6003934722260992-->
<svg width="600" height="600"
	xmlns="http://www.w3.org/2000/svg">
	xmlns:ndjsontosvg="https://github.com/thompson318/ndjsontosvg"
	xmlns:quickdraw="https://quickdraw.withgoogle.com/data"
	xmlns:scikit-surgery="https://doi.org/10.1007/s11548-020-02180-5">

	<rect width="100%" height="100%" fill="white" />
	<path d = "M 288.28 32.81 L 215.62 25.78 L 152.34 32.81 L 63.28 56.25 L 25.78 79.69 L 7.03 107.81 L 0.00 150.00 L 42.19 196.88 L 135.94 239.06 L 288.28 267.19 L 414.84 278.91 L 515.62 281.25 L 541.41 269.53 L 588.28 227.34 L 597.66 192.19 L 585.94 147.66 L 567.19 119.53 L 534.38 89.06 L 473.44 63.28 L 356.25 23.44 L 236.72 18.75" stroke="black" fill="transparent"/>
	<path d = "M 379.69 4.69 L 391.41 2.34 L 403.12 21.09 L 400.78 79.69" stroke="black" fill="transparent"/>
	<path d = "M 431.25 14.06 L 445.31 11.72 L 461.72 44.53 L 435.94 114.84" stroke="black" fill="transparent"/>
</svg>