<?xml version="1.0" encoding="UTF-8" standalone="no"?>
<!--Created with ndjsontosvg (https:https://github.com/thompson318/ndjsontosvg) 
	from the simplified Google quickdraw data set. key_id = 5353651277135872-->
<svg width="600" height="600"
	xmlns="http://www.w3.org/2000/svg">
	xmlns:ndjsontosvg="https://github.com/thompson318/ndjsontosvg"
	xmlns:quickdraw="https://quickdraw.withgoogle.com/data"
	xmlns:scikit-surgery="https://doi.org/10.1007/s11548-020-02180-5">

	<rect width="100%" height="100%" fill="white" />
	<path d = "M 546.09 135.94 L 527.34 117.19 L 468.75 89.06 L 386.72 67.97 L 330.47 60.94 L 189.84 65.62 L 79.69 86.72 L 11.72 121.88 L 0.00 142.97 L 2.34 175.78 L 30.47 220.31 L 86.72 250.78 L 152.34 267.19 L 302.34 283.59 L 417.19 278.91 L 464.06 257.81 L 508.59 208.59 L 539.06 199.22 L 595.31 199.22 L 592.97 159.38 L 562.50 133.59 L 527.34 117.19" stroke="black" fill="transparent"/>
	<path d = "M 220.31 51.56 L 213.28 35.16 L 220.31 9.38 L 229.69 0.00 L 250.78 0.00 L 274.22 16.41 L 267.19 42.19 L 199.22 46.88" stroke="black" fill="transparent"/>
	<path d = "M 206.25 39.84 L 201.56 119.53 L 206.25 126.56 L 285.94 133.59 L 281.25 60.94 L 269.53 9.38" stroke="black" fill="transparent"/>
	<path d = "M 203.91 96.09 L 182.81 96.09" stroke="black" fill="transparent"/>
</svg>