<?xml version="1.0" encoding="UTF-8" standalone="no"?>
<!--Created with ndjsontosvg (https:https://github.com/thompson318/ndjsontosvg) 
	from the simplified Google quickdraw data set. key_id = 6694963452575744-->
<svg width="600" height="600"
	xmlns="http://www.w3.org/2000/svg">
	xmlns:ndjsontosvg="https://github.com/thompson318/ndjsontosvg"
	xmlns:quickdraw="https://quickdraw.withgoogle.com/data"
	xmlns:scikit-surgery="https://doi.org/10.1007/s11548-020-02180-5">

	<rect width="100%" height="100%" fill="white" />
	<path d = "M 597.66 4.69 L 442.97 0.00 L 405.47 2.34 L 400.78 9.38 L 405.47 70.31 L 499.22 70.31 L 597.66 84.38" stroke="black" fill="transparent"/>
	<path d = "M 0.00 192.19 L 39.84 229.69 L 86.72 260.16 L 173.44 274.22 L 234.38 274.22 L 304.69 262.50 L 358.59 241.41 L 398.44 215.62 L 440.62 168.75" stroke="black" fill="transparent"/>
	<path d = "M 0.00 131.25 L 4.69 229.69 L 14.06 262.50 L 39.84 283.59 L 84.38 283.59 L 365.62 271.88 L 403.12 264.84 L 417.19 255.47 L 426.56 215.62 L 431.25 147.66 L 424.22 124.22" stroke="black" fill="transparent"/>
	<path d = "M 25.78 166.41 L 16.41 150.00 L 32.81 133.59 L 180.47 147.66 L 260.16 121.88 L 330.47 147.66 L 353.91 147.66 L 396.09 133.59 L 424.22 147.66 L 452.34 150.00" stroke="black" fill="transparent"/>
	<path d = "M 271.88 344.53 L 276.56 337.50" stroke="black" fill="transparent"/>
</svg>