<?xml version="1.0" encoding="UTF-8" standalone="no"?>
<!--Created with ndjsontosvg (https:https://github.com/thompson318/ndjsontosvg) 
	from the simplified Google quickdraw data set. key_id = 6319115562123264-->
<svg width="600" height="600"
	xmlns="http://www.w3.org/2000/svg">
	xmlns:ndjsontosvg="https://github.com/thompson318/ndjsontosvg"
	xmlns:quickdraw="https://quickdraw.withgoogle.com/data"
	xmlns:scikit-surgery="https://doi.org/10.1007/s11548-020-02180-5">

	<rect width="100%" height="100%" fill="white" />
	<path d = "M 344.53 112.50 L 229.69 96.09 L 35.16 154.69 L 9.38 178.12 L 0.00 217.97 L 0.00 262.50 L 23.44 321.09 L 70.31 346.88 L 171.09 363.28 L 370.31 363.28 L 510.94 325.78 L 567.19 295.31 L 590.62 267.19 L 597.66 222.66 L 583.59 196.88 L 553.12 178.12 L 480.47 152.34 L 314.06 121.88" stroke="black" fill="transparent"/>
	<path d = "M 164.06 189.84 L 171.09 178.12 L 159.38 171.09 L 147.66 187.50 L 154.69 194.53 L 164.06 189.84" stroke="black" fill="transparent"/>
	<path d = "M 142.97 192.19 L 145.31 246.09" stroke="black" fill="transparent"/>
	<path d = "M 133.59 217.97 L 103.12 241.41" stroke="black" fill="transparent"/>
	<path d = "M 142.97 217.97 L 164.06 246.09" stroke="black" fill="transparent"/>
	<path d = "M 135.94 246.09 L 114.84 257.81 L 107.81 269.53 L 112.50 269.53" stroke="black" fill="transparent"/>
	<path d = "M 138.28 250.78 L 142.97 255.47" stroke="black" fill="transparent"/>
	<path d = "M 140.62 159.38 L 121.88 154.69 L 103.12 161.72 L 89.06 187.50 L 89.06 196.88 L 98.44 192.19" stroke="black" fill="transparent"/>
	<path d = "M 157.03 157.03 L 227.34 157.03 L 229.69 196.88 L 208.59 220.31" stroke="black" fill="transparent"/>
	<path d = "M 384.38 35.16 L 377.34 93.75" stroke="black" fill="transparent"/>
	<path d = "M 377.34 21.09 L 356.25 11.72 L 342.19 11.72 L 344.53 18.75 L 363.28 39.84 L 391.41 42.19 L 419.53 23.44 L 419.53 7.03 L 370.31 0.00 L 358.59 16.41 L 363.28 21.09" stroke="black" fill="transparent"/>
</svg>