<?xml version="1.0" encoding="UTF-8" standalone="no"?>
<!--Created with ndjsontosvg (https:https://github.com/thompson318/ndjsontosvg) 
	from the simplified Google quickdraw data set. key_id = 5169058280374272-->
<svg width="600" height="600"
	xmlns="http://www.w3.org/2000/svg">
	xmlns:ndjsontosvg="https://github.com/thompson318/ndjsontosvg"
	xmlns:quickdraw="https://quickdraw.withgoogle.com/data"
	xmlns:scikit-surgery="https://doi.org/10.1007/s11548-020-02180-5">

	<rect width="100%" height="100%" fill="white" />
	<path d = "M 248.44 377.34 L 182.81 377.34 L 37.50 405.47 L 28.12 400.78 L 23.44 292.97 L 49.22 121.88 L 77.34 49.22 L 107.81 21.09 L 138.28 2.34 L 168.75 0.00 L 182.81 4.69 L 199.22 28.12 L 213.28 63.28 L 232.03 182.81 L 239.06 426.56" stroke="black" fill="transparent"/>
	<path d = "M 84.38 389.06 L 79.69 485.16 L 86.72 546.09 L 96.09 548.44 L 142.97 534.38 L 150.00 424.22" stroke="black" fill="transparent"/>
	<path d = "M 79.69 510.94 L 44.53 494.53 L 4.69 501.56 L 0.00 532.03 L 18.75 569.53 L 35.16 585.94 L 91.41 597.66 L 142.97 555.47" stroke="black" fill="transparent"/>
</svg>