<?xml version="1.0" encoding="UTF-8" standalone="no"?>
<!--Created with ndjsontosvg (https:https://github.com/thompson318/ndjsontosvg) 
	from the simplified Google quickdraw data set. key_id = 6386056591048704-->
<svg width="600" height="600"
	xmlns="http://www.w3.org/2000/svg">
	xmlns:ndjsontosvg="https://github.com/thompson318/ndjsontosvg"
	xmlns:quickdraw="https://quickdraw.withgoogle.com/data"
	xmlns:scikit-surgery="https://doi.org/10.1007/s11548-020-02180-5">

	<rect width="100%" height="100%" fill="white" />
	<path d = "M 2.34 189.84 L 18.75 330.47 L 79.69 501.56 L 91.41 564.84 L 100.78 569.53 L 194.53 539.06 L 412.50 445.31 L 595.31 405.47 L 475.78 28.12 L 457.03 0.00 L 398.44 32.81 L 86.72 131.25 L 23.44 164.06 L 11.72 180.47" stroke="black" fill="transparent"/>
	<path d = "M 60.94 215.62 L 65.62 257.81 L 72.66 281.25 L 79.69 285.94 L 93.75 253.12 L 112.50 271.88 L 128.91 271.88 L 147.66 262.50 L 180.47 227.34 L 210.94 215.62 L 239.06 187.50 L 318.75 178.12" stroke="black" fill="transparent"/>
	<path d = "M 93.75 358.59 L 112.50 372.66 L 138.28 372.66 L 168.75 344.53 L 208.59 344.53 L 229.69 335.16 L 283.59 281.25 L 309.38 274.22" stroke="black" fill="transparent"/>
	<path d = "M 349.22 140.62 L 386.72 311.72 L 407.81 372.66 L 424.22 389.06 L 576.56 316.41 L 592.97 302.34 L 592.97 288.28 L 527.34 276.56 L 471.09 135.94 L 442.97 100.78 L 414.84 79.69 L 396.09 72.66 L 372.66 77.34 L 314.06 150.00" stroke="black" fill="transparent"/>
</svg>