<?xml version="1.0" encoding="UTF-8" standalone="no"?>
<!--Created with ndjsontosvg (https:https://github.com/thompson318/ndjsontosvg) 
	from the simplified Google quickdraw data set. key_id = 6624235323654144-->
<svg width="600" height="600"
	xmlns="http://www.w3.org/2000/svg">
	xmlns:ndjsontosvg="https://github.com/thompson318/ndjsontosvg"
	xmlns:quickdraw="https://quickdraw.withgoogle.com/data"
	xmlns:scikit-surgery="https://doi.org/10.1007/s11548-020-02180-5">

	<rect width="100%" height="100%" fill="white" />
	<path d = "M 23.44 37.50 L 25.78 121.88 L 0.00 281.25 L 79.69 288.28 L 175.78 276.56 L 274.22 274.22 L 403.12 292.97 L 515.62 288.28 L 592.97 302.34 L 597.66 281.25 L 590.62 206.25 L 576.56 135.94 L 578.91 35.16 L 445.31 42.19 L 180.47 32.81 L 18.75 0.00 L 11.72 37.50" stroke="black" fill="transparent"/>
	<path d = "M 234.38 46.88 L 246.09 187.50 L 241.41 281.25" stroke="black" fill="transparent"/>
	<path d = "M 37.50 53.91 L 100.78 72.66 L 133.59 56.25 L 168.75 72.66 L 213.28 77.34 L 217.97 131.25 L 133.59 96.09 L 126.56 100.78 L 42.19 72.66 L 49.22 89.06 L 67.97 105.47 L 103.12 100.78 L 182.81 128.91 L 232.03 178.12 L 232.03 182.81 L 208.59 180.47 L 124.22 147.66 L 93.75 168.75 L 39.84 152.34 L 53.91 196.88 L 67.97 210.94 L 135.94 199.22 L 199.22 227.34 L 164.06 250.78 L 117.19 264.84" stroke="black" fill="transparent"/>
</svg>