<?xml version="1.0" encoding="UTF-8" standalone="no"?>
<!--Created with ndjsontosvg (https:https://github.com/thompson318/ndjsontosvg) 
	from the simplified Google quickdraw data set. key_id = 4680901554339840-->
<svg width="600" height="600"
	xmlns="http://www.w3.org/2000/svg">
	xmlns:ndjsontosvg="https://github.com/thompson318/ndjsontosvg"
	xmlns:quickdraw="https://quickdraw.withgoogle.com/data"
	xmlns:scikit-surgery="https://doi.org/10.1007/s11548-020-02180-5">

	<rect width="100%" height="100%" fill="white" />
	<path d = "M 21.09 4.69 L 37.50 98.44 L 67.97 412.50" stroke="black" fill="transparent"/>
	<path d = "M 0.00 2.34 L 414.84 0.00 L 534.38 7.03 L 581.25 14.06 L 590.62 18.75 L 595.31 35.16 L 597.66 121.88 L 562.50 269.53 L 543.75 393.75 L 529.69 398.44 L 128.91 396.09 L 53.91 386.72" stroke="black" fill="transparent"/>
	<path d = "M 428.91 14.06 L 442.97 145.31 L 457.03 152.34 L 588.28 142.97" stroke="black" fill="transparent"/>
	<path d = "M 37.50 58.59 L 63.28 72.66 L 110.16 67.97 L 142.97 44.53 L 206.25 67.97 L 356.25 60.94" stroke="black" fill="transparent"/>
	<path d = "M 112.50 154.69 L 128.91 180.47 L 185.16 161.72 L 222.66 138.28 L 346.88 142.97 L 414.84 133.59" stroke="black" fill="transparent"/>
	<path d = "M 98.44 269.53 L 187.50 257.81 L 271.88 220.31 L 330.47 213.28 L 435.94 232.03 L 475.78 232.03" stroke="black" fill="transparent"/>
</svg>