<?xml version="1.0" encoding="UTF-8" standalone="no"?>
<!--Created with ndjsontosvg (https:https://github.com/thompson318/ndjsontosvg) 
	from the simplified Google quickdraw data set. key_id = 6093763795484672-->
<svg width="600" height="600"
	xmlns="http://www.w3.org/2000/svg">
	xmlns:ndjsontosvg="https://github.com/thompson318/ndjsontosvg"
	xmlns:quickdraw="https://quickdraw.withgoogle.com/data"
	xmlns:scikit-surgery="https://doi.org/10.1007/s11548-020-02180-5">

	<rect width="100%" height="100%" fill="white" />
	<path d = "M 0.00 9.38 L 89.06 0.00 L 208.59 7.03 L 597.66 58.59 L 583.59 107.81 L 560.16 278.91 L 564.84 424.22 L 482.81 405.47 L 220.31 391.41 L 44.53 400.78 L 16.41 16.41" stroke="black" fill="transparent"/>
	<path d = "M 18.75 96.09 L 96.09 103.12 L 98.44 4.69" stroke="black" fill="transparent"/>
	<path d = "M 377.34 14.06 L 365.62 44.53 L 342.19 180.47 L 325.78 419.53" stroke="black" fill="transparent"/>
	<path d = "M 360.94 124.22 L 426.56 96.09 L 459.38 135.94 L 522.66 131.25 L 539.06 150.00" stroke="black" fill="transparent"/>
	<path d = "M 342.19 196.88 L 405.47 178.12 L 417.19 189.84 L 421.88 215.62 L 438.28 222.66 L 539.06 164.06 L 550.78 173.44 L 553.12 210.94" stroke="black" fill="transparent"/>
	<path d = "M 342.19 281.25 L 360.94 255.47 L 386.72 243.75 L 396.09 248.44 L 393.75 274.22 L 403.12 276.56 L 471.09 243.75 L 480.47 246.09 L 492.19 267.19 L 501.56 271.88 L 576.56 241.41" stroke="black" fill="transparent"/>
	<path d = "M 321.09 321.09 L 365.62 309.38 L 403.12 328.12 L 419.53 330.47 L 525.00 278.91 L 548.44 285.94 L 557.81 311.72 L 588.28 297.66" stroke="black" fill="transparent"/>
</svg>