<?xml version="1.0" encoding="UTF-8" standalone="no"?>
<!--Created with ndjsontosvg (https:https://github.com/thompson318/ndjsontosvg) 
	from the simplified Google quickdraw data set. key_id = 4574482129747968-->
<svg width="600" height="600"
	xmlns="http://www.w3.org/2000/svg">
	xmlns:ndjsontosvg="https://github.com/thompson318/ndjsontosvg"
	xmlns:quickdraw="https://quickdraw.withgoogle.com/data"
	xmlns:scikit-surgery="https://doi.org/10.1007/s11548-020-02180-5">

	<rect width="100%" height="100%" fill="white" />
	<path d = "M 16.41 39.84 L 58.59 25.78 L 154.69 11.72 L 588.28 0.00 L 583.59 79.69 L 597.66 255.47 L 597.66 309.38 L 588.28 321.09 L 492.19 318.75 L 241.41 278.91 L 112.50 264.84 L 65.62 253.12 L 37.50 227.34 L 7.03 91.41 L 0.00 35.16" stroke="black" fill="transparent"/>
	<path d = "M 382.03 107.81 L 377.34 93.75 L 393.75 51.56 L 414.84 25.78 L 435.94 16.41 L 487.50 35.16 L 548.44 42.19 L 583.59 58.59 L 592.97 75.00 L 569.53 112.50 L 501.56 142.97 L 414.84 150.00 L 384.38 128.91" stroke="black" fill="transparent"/>
	<path d = "M 60.94 93.75 L 168.75 98.44 L 281.25 77.34" stroke="black" fill="transparent"/>
	<path d = "M 84.38 154.69 L 314.06 152.34" stroke="black" fill="transparent"/>
	<path d = "M 58.59 210.94 L 281.25 206.25" stroke="black" fill="transparent"/>
</svg>