<?xml version="1.0" encoding="UTF-8" standalone="no"?>
<!--Created with ndjsontosvg (https:https://github.com/thompson318/ndjsontosvg) 
	from the simplified Google quickdraw data set. key_id = 6034809094668288-->
<svg width="600" height="600"
	xmlns="http://www.w3.org/2000/svg">
	xmlns:ndjsontosvg="https://github.com/thompson318/ndjsontosvg"
	xmlns:quickdraw="https://quickdraw.withgoogle.com/data"
	xmlns:scikit-surgery="https://doi.org/10.1007/s11548-020-02180-5">

	<rect width="100%" height="100%" fill="white" />
	<path d = "M 311.72 18.75 L 262.50 0.00 L 236.72 2.34 L 173.44 37.50 L 121.88 79.69 L 72.66 145.31 L 7.03 257.81 L 0.00 330.47 L 23.44 403.12 L 60.94 464.06 L 82.03 487.50 L 196.88 534.38 L 325.78 541.41 L 480.47 510.94 L 520.31 492.19 L 543.75 471.09 L 578.91 419.53 L 588.28 379.69 L 597.66 330.47 L 597.66 283.59 L 588.28 246.09 L 560.16 159.38 L 522.66 114.84 L 468.75 72.66 L 412.50 44.53 L 311.72 44.53 L 185.16 9.38 L 187.50 25.78" stroke="black" fill="transparent"/>
	<path d = "M 349.22 110.16 L 344.53 128.91 L 353.91 131.25 L 356.25 107.81" stroke="black" fill="transparent"/>
	<path d = "M 471.09 241.41 L 471.09 236.72" stroke="black" fill="transparent"/>
	<path d = "M 159.38 257.81 L 159.38 257.81" stroke="black" fill="transparent"/>
	<path d = "M 124.22 337.50 L 133.59 344.53" stroke="black" fill="transparent"/>
	<path d = "M 426.56 377.34 L 438.28 323.44" stroke="black" fill="transparent"/>
	<path d = "M 356.25 145.31 L 285.94 145.31" stroke="black" fill="transparent"/>
</svg>