<?xml version="1.0" encoding="UTF-8" standalone="no"?>
<!--Created with ndjsontosvg (https:https://github.com/thompson318/ndjsontosvg) 
	from the simplified Google quickdraw data set. key_id = 5158147515744256-->
<svg width="600" height="600"
	xmlns="http://www.w3.org/2000/svg">
	xmlns:ndjsontosvg="https://github.com/thompson318/ndjsontosvg"
	xmlns:quickdraw="https://quickdraw.withgoogle.com/data"
	xmlns:scikit-surgery="https://doi.org/10.1007/s11548-020-02180-5">

	<rect width="100%" height="100%" fill="white" />
	<path d = "M 253.12 23.44 L 215.62 37.50 L 171.09 70.31 L 145.31 75.00 L 131.25 112.50 L 65.62 168.75 L 18.75 234.38 L 4.69 267.19 L 0.00 391.41 L 75.00 485.16 L 166.41 555.47 L 220.31 564.84 L 365.62 569.53 L 461.72 555.47 L 520.31 532.03 L 564.84 475.78 L 574.22 405.47 L 597.66 323.44 L 583.59 89.06 L 553.12 37.50 L 527.34 18.75 L 405.47 0.00 L 342.19 0.00 L 316.41 9.38 L 269.53 9.38 L 243.75 18.75" stroke="black" fill="transparent"/>
	<path d = "M 192.19 70.31 L 192.19 70.31" stroke="black" fill="transparent"/>
	<path d = "M 257.81 89.06 L 262.50 89.06" stroke="black" fill="transparent"/>
	<path d = "M 262.50 135.94 L 262.50 150.00" stroke="black" fill="transparent"/>
	<path d = "M 220.31 234.38 L 239.06 234.38" stroke="black" fill="transparent"/>
	<path d = "M 428.91 220.31 L 428.91 220.31" stroke="black" fill="transparent"/>
	<path d = "M 335.16 377.34 L 335.16 377.34" stroke="black" fill="transparent"/>
	<path d = "M 447.66 367.97 L 457.03 367.97" stroke="black" fill="transparent"/>
	<path d = "M 367.97 117.19 L 367.97 117.19" stroke="black" fill="transparent"/>
	<path d = "M 321.09 234.38 L 304.69 292.97 L 271.88 353.91 L 234.38 386.72" stroke="black" fill="transparent"/>
	<path d = "M 276.56 377.34 L 344.53 318.75 L 471.09 229.69" stroke="black" fill="transparent"/>
	<path d = "M 442.97 168.75 L 405.47 145.31 L 311.72 131.25" stroke="black" fill="transparent"/>
	<path d = "M 234.38 316.41 L 271.88 316.41 L 323.44 330.47 L 396.09 330.47" stroke="black" fill="transparent"/>
</svg>