<?xml version="1.0" encoding="UTF-8" standalone="no"?>
<!--Created with ndjsontosvg (https:https://github.com/thompson318/ndjsontosvg) 
	from the simplified Google quickdraw data set. key_id = 4811620968562688-->
<svg width="600" height="600"
	xmlns="http://www.w3.org/2000/svg">
	xmlns:ndjsontosvg="https://github.com/thompson318/ndjsontosvg"
	xmlns:quickdraw="https://quickdraw.withgoogle.com/data"
	xmlns:scikit-surgery="https://doi.org/10.1007/s11548-020-02180-5">

	<rect width="100%" height="100%" fill="white" />
	<path d = "M 58.59 18.75 L 28.12 142.97 L 0.00 567.19 L 112.50 571.88 L 285.94 597.66 L 400.78 597.66 L 428.91 590.62 L 459.38 576.56 L 471.09 407.81 L 471.09 222.66 L 459.38 159.38 L 431.25 79.69 L 400.78 56.25 L 367.97 46.88 L 208.59 25.78 L 100.78 2.34 L 25.78 0.00" stroke="black" fill="transparent"/>
	<path d = "M 262.50 255.47 L 250.78 330.47 L 269.53 342.19 L 318.75 335.16 L 335.16 318.75 L 335.16 300.00 L 358.59 267.19 L 342.19 257.81 L 285.94 250.78" stroke="black" fill="transparent"/>
	<path d = "M 135.94 152.34 L 128.91 135.94 L 135.94 56.25" stroke="black" fill="transparent"/>
	<path d = "M 363.28 171.09 L 398.44 72.66" stroke="black" fill="transparent"/>
	<path d = "M 243.75 457.03 L 229.69 480.47 L 225.00 553.12 L 239.06 562.50 L 302.34 555.47 L 314.06 553.12 L 321.09 534.38 L 314.06 468.75 L 276.56 452.34 L 236.72 452.34 L 194.53 464.06" stroke="black" fill="transparent"/>
</svg>