<?xml version="1.0" encoding="UTF-8" standalone="no"?>
<!--Created with ndjsontosvg (https:https://github.com/thompson318/ndjsontosvg) 
	from the simplified Google quickdraw data set. key_id = 4903244847382528-->
<svg width="600" height="600"
	xmlns="http://www.w3.org/2000/svg">
	xmlns:ndjsontosvg="https://github.com/thompson318/ndjsontosvg"
	xmlns:quickdraw="https://quickdraw.withgoogle.com/data"
	xmlns:scikit-surgery="https://doi.org/10.1007/s11548-020-02180-5">

	<rect width="100%" height="100%" fill="white" />
	<path d = "M 14.06 121.88 L 4.69 161.72 L 0.00 250.78 L 0.00 410.16 L 14.06 475.78 L 46.88 506.25 L 119.53 522.66 L 494.53 522.66 L 548.44 503.91 L 574.22 480.47 L 597.66 75.00 L 541.41 37.50 L 482.81 23.44 L 311.72 0.00 L 140.62 0.00 L 77.34 14.06 L 56.25 28.12 L 37.50 51.56 L 32.81 178.12" stroke="black" fill="transparent"/>
	<path d = "M 173.44 135.94 L 154.69 166.41 L 159.38 302.34 L 178.12 328.12 L 206.25 353.91 L 276.56 391.41 L 344.53 391.41 L 405.47 365.62 L 433.59 335.16 L 452.34 290.62 L 461.72 232.03 L 461.72 152.34 L 433.59 96.09 L 393.75 70.31 L 300.00 65.62 L 257.81 70.31 L 206.25 105.47 L 173.44 159.38 L 168.75 253.12" stroke="black" fill="transparent"/>
	<path d = "M 239.06 220.31 L 239.06 220.31" stroke="black" fill="transparent"/>
	<path d = "M 353.91 220.31 L 367.97 225.00" stroke="black" fill="transparent"/>
	<path d = "M 225.00 215.62 L 220.31 239.06" stroke="black" fill="transparent"/>
</svg>