<?xml version="1.0" encoding="UTF-8" standalone="no"?>
<!--Created with ndjsontosvg (https:https://github.com/thompson318/ndjsontosvg) 
	from the simplified Google quickdraw data set. key_id = 5115019735859200-->
<svg width="600" height="600"
	xmlns="http://www.w3.org/2000/svg">
	xmlns:ndjsontosvg="https://github.com/thompson318/ndjsontosvg"
	xmlns:quickdraw="https://quickdraw.withgoogle.com/data"
	xmlns:scikit-surgery="https://doi.org/10.1007/s11548-020-02180-5">

	<rect width="100%" height="100%" fill="white" />
	<path d = "M 2.34 7.03 L 18.75 314.06 L 42.19 562.50" stroke="black" fill="transparent"/>
	<path d = "M 114.84 597.66 L 189.84 571.88 L 353.91 529.69 L 473.44 520.31 L 494.53 501.56 L 501.56 478.12 L 440.62 307.03 L 398.44 89.06 L 360.94 28.12 L 318.75 4.69 L 210.94 0.00 L 103.12 9.38 L 4.69 37.50" stroke="black" fill="transparent"/>
	<path d = "M 91.41 84.38 L 103.12 175.78 L 117.19 217.97 L 135.94 234.38 L 164.06 234.38 L 227.34 220.31 L 346.88 175.78 L 316.41 86.72 L 300.00 70.31 L 203.91 91.41 L 107.81 91.41" stroke="black" fill="transparent"/>
	<path d = "M 166.41 128.91 L 171.09 147.66" stroke="black" fill="transparent"/>
	<path d = "M 246.09 121.88 L 246.09 152.34" stroke="black" fill="transparent"/>
	<path d = "M 166.41 192.19 L 220.31 199.22" stroke="black" fill="transparent"/>
	<path d = "M 250.78 325.78 L 220.31 311.72 L 168.75 321.09 L 133.59 344.53 L 119.53 375.00 L 128.91 398.44 L 206.25 501.56 L 225.00 515.62 L 253.12 522.66" stroke="black" fill="transparent"/>
</svg>