<?xml version="1.0" encoding="UTF-8" standalone="no"?>
<!--Created with ndjsontosvg (https:https://github.com/thompson318/ndjsontosvg) 
	from the simplified Google quickdraw data set. key_id = 6536011108581376-->
<svg width="600" height="600"
	xmlns="http://www.w3.org/2000/svg">
	xmlns:ndjsontosvg="https://github.com/thompson318/ndjsontosvg"
	xmlns:quickdraw="https://quickdraw.withgoogle.com/data"
	xmlns:scikit-surgery="https://doi.org/10.1007/s11548-020-02180-5">

	<rect width="100%" height="100%" fill="white" />
	<path d = "M 23.44 318.75 L 21.09 435.94 L 30.47 592.97 L 63.28 597.66 L 332.81 597.66 L 445.31 585.94 L 482.81 574.22 L 503.91 487.50 L 503.91 358.59 L 487.50 281.25 L 480.47 276.56 L 473.44 271.88 L 292.97 274.22 L 215.62 295.31 L 0.00 304.69" stroke="black" fill="transparent"/>
	<path d = "M 131.25 386.72 L 105.47 229.69 L 103.12 84.38 L 119.53 44.53 L 133.59 30.47 L 185.16 4.69 L 217.97 0.00 L 269.53 0.00 L 288.28 9.38 L 314.06 30.47 L 342.19 82.03 L 360.94 147.66 L 382.03 199.22 L 393.75 363.28" stroke="black" fill="transparent"/>
</svg>