<?xml version="1.0" encoding="UTF-8" standalone="no"?>
<!--Created with ndjsontosvg (https:https://github.com/thompson318/ndjsontosvg) 
	from the simplified Google quickdraw data set. key_id = 4609708847529984-->
<svg width="600" height="600"
	xmlns="http://www.w3.org/2000/svg">
	xmlns:ndjsontosvg="https://github.com/thompson318/ndjsontosvg"
	xmlns:quickdraw="https://quickdraw.withgoogle.com/data"
	xmlns:scikit-surgery="https://doi.org/10.1007/s11548-020-02180-5">

	<rect width="100%" height="100%" fill="white" />
	<path d = "M 77.34 304.69 L 42.19 379.69 L 0.00 562.50 L 28.12 581.25 L 142.97 595.31 L 403.12 597.66 L 466.41 597.66 L 471.09 583.59 L 489.84 438.28 L 525.00 304.69 L 527.34 276.56 L 520.31 264.84 L 433.59 260.16 L 330.47 276.56 L 159.38 285.94 L 89.06 307.03" stroke="black" fill="transparent"/>
	<path d = "M 159.38 281.25 L 161.72 239.06 L 185.16 173.44 L 248.44 67.97 L 278.91 42.19 L 346.88 9.38 L 421.88 0.00 L 457.03 0.00 L 482.81 16.41 L 520.31 84.38 L 525.00 154.69 L 489.84 227.34 L 478.12 276.56" stroke="black" fill="transparent"/>
</svg>