<?xml version="1.0" encoding="UTF-8" standalone="no"?>
<!--Created with ndjsontosvg (https:https://github.com/thompson318/ndjsontosvg) 
	from the simplified Google quickdraw data set. key_id = 5579901040066560-->
<svg width="600" height="600"
	xmlns="http://www.w3.org/2000/svg">
	xmlns:ndjsontosvg="https://github.com/thompson318/ndjsontosvg"
	xmlns:quickdraw="https://quickdraw.withgoogle.com/data"
	xmlns:scikit-surgery="https://doi.org/10.1007/s11548-020-02180-5">

	<rect width="100%" height="100%" fill="white" />
	<path d = "M 46.88 304.69 L 63.28 346.88 L 75.00 515.62 L 103.12 543.75 L 192.19 567.19 L 276.56 567.19 L 438.28 550.78 L 485.16 550.78 L 510.94 564.84" stroke="black" fill="transparent"/>
	<path d = "M 0.00 283.59 L 522.66 264.84 L 543.75 281.25 L 550.78 309.38 L 534.38 571.88" stroke="black" fill="transparent"/>
	<path d = "M 14.06 271.88 L 14.06 232.03 L 46.88 161.72 L 89.06 107.81 L 150.00 56.25 L 276.56 7.03 L 382.03 0.00 L 471.09 49.22 L 522.66 121.88 L 571.88 217.97 L 597.66 339.84" stroke="black" fill="transparent"/>
	<path d = "M 220.31 349.22 L 220.31 421.88 L 215.62 403.12 L 225.00 344.53 L 248.44 398.44 L 264.84 393.75 L 300.00 311.72 L 300.00 482.81" stroke="black" fill="transparent"/>
	<path d = "M 349.22 304.69 L 365.62 475.78" stroke="black" fill="transparent"/>
	<path d = "M 372.66 445.31 L 412.50 330.47 L 426.56 309.38" stroke="black" fill="transparent"/>
	<path d = "M 346.88 419.53 L 372.66 417.19 L 389.06 421.88 L 445.31 461.72 L 478.12 475.78" stroke="black" fill="transparent"/>
</svg>