<?xml version="1.0" encoding="UTF-8" standalone="no"?>
<!--Created with ndjsontosvg (https:https://github.com/thompson318/ndjsontosvg) 
	from the simplified Google quickdraw data set. key_id = 6654550763110400-->
<svg width="600" height="600"
	xmlns="http://www.w3.org/2000/svg">
	xmlns:ndjsontosvg="https://github.com/thompson318/ndjsontosvg"
	xmlns:quickdraw="https://quickdraw.withgoogle.com/data"
	xmlns:scikit-surgery="https://doi.org/10.1007/s11548-020-02180-5">

	<rect width="100%" height="100%" fill="white" />
	<path d = "M 407.81 304.69 L 414.84 262.50 L 412.50 210.94 L 393.75 150.00 L 358.59 93.75 L 304.69 44.53 L 262.50 18.75 L 222.66 4.69 L 180.47 0.00 L 161.72 4.69 L 114.84 37.50 L 79.69 105.47 L 63.28 189.84 L 65.62 335.16" stroke="black" fill="transparent"/>
	<path d = "M 480.47 295.31 L 459.38 309.38 L 433.59 314.06 L 304.69 318.75 L 154.69 335.16 L 9.38 321.09 L 0.00 330.47 L 7.03 506.25 L 9.38 536.72 L 23.44 553.12 L 110.16 548.44 L 206.25 513.28 L 314.06 492.19 L 522.66 499.22 L 583.59 487.50 L 597.66 471.09 L 588.28 428.91 L 548.44 337.50 L 503.91 302.34" stroke="black" fill="transparent"/>
	<path d = "M 358.59 356.25 L 379.69 424.22 L 367.97 435.94 L 260.16 433.59 L 138.28 445.31 L 112.50 438.28 L 103.12 426.56 L 117.19 337.50" stroke="black" fill="transparent"/>
	<path d = "M 239.06 379.69 L 239.06 382.03" stroke="black" fill="transparent"/>
</svg>