<?xml version="1.0" encoding="UTF-8" standalone="no"?>
<!--Created with ndjsontosvg (https:https://github.com/thompson318/ndjsontosvg) 
	from the simplified Google quickdraw data set. key_id = 6752075058774016-->
<svg width="600" height="600"
	xmlns="http://www.w3.org/2000/svg">
	xmlns:ndjsontosvg="https://github.com/thompson318/ndjsontosvg"
	xmlns:quickdraw="https://quickdraw.withgoogle.com/data"
	xmlns:scikit-surgery="https://doi.org/10.1007/s11548-020-02180-5">

	<rect width="100%" height="100%" fill="white" />
	<path d = "M 159.38 236.72 L 152.34 185.16 L 154.69 58.59 L 171.09 28.12 L 239.06 0.00 L 318.75 4.69 L 358.59 23.44 L 389.06 51.56 L 433.59 112.50 L 459.38 220.31" stroke="black" fill="transparent"/>
	<path d = "M 157.03 227.34 L 77.34 232.03 L 0.00 262.50 L 2.34 271.88 L 28.12 283.59 L 49.22 321.09 L 110.16 482.81 L 157.03 485.16 L 257.81 464.06 L 379.69 426.56 L 597.66 377.34 L 585.94 262.50 L 564.84 192.19 L 555.47 185.16 L 501.56 217.97 L 428.91 222.66" stroke="black" fill="transparent"/>
	<path d = "M 133.59 232.03 L 227.34 196.88 L 346.88 168.75 L 372.66 154.69 L 438.28 154.69 L 454.69 166.41" stroke="black" fill="transparent"/>
</svg>