<?xml version="1.0" encoding="UTF-8" standalone="no"?>
<!--Created with ndjsontosvg (https:https://github.com/thompson318/ndjsontosvg) 
	from the simplified Google quickdraw data set. key_id = 6472470271885312-->
<svg width="600" height="600"
	xmlns="http://www.w3.org/2000/svg">
	xmlns:ndjsontosvg="https://github.com/thompson318/ndjsontosvg"
	xmlns:quickdraw="https://quickdraw.withgoogle.com/data"
	xmlns:scikit-surgery="https://doi.org/10.1007/s11548-020-02180-5">

	<rect width="100%" height="100%" fill="white" />
	<path d = "M 96.09 142.97 L 0.00 482.81" stroke="black" fill="transparent"/>
	<path d = "M 93.75 135.94 L 382.03 140.62 L 442.97 164.06 L 485.16 166.41 L 592.97 428.91 L 597.66 459.38 L 520.31 464.06 L 386.72 450.00 L 173.44 450.00 L 84.38 471.09 L 30.47 466.41" stroke="black" fill="transparent"/>
	<path d = "M 215.62 140.62 L 203.91 98.44 L 203.91 44.53 L 213.28 16.41 L 236.72 2.34 L 323.44 0.00 L 363.28 7.03 L 391.41 37.50 L 407.81 93.75 L 407.81 131.25 L 398.44 150.00" stroke="black" fill="transparent"/>
	<path d = "M 236.72 126.56 L 236.72 77.34 L 243.75 56.25 L 269.53 35.16 L 318.75 30.47 L 335.16 37.50 L 358.59 77.34 L 365.62 131.25" stroke="black" fill="transparent"/>
	<path d = "M 239.06 121.88 L 239.06 131.25" stroke="black" fill="transparent"/>
</svg>