<?xml version="1.0" encoding="UTF-8" standalone="no"?>
<!--Created with ndjsontosvg (https:https://github.com/thompson318/ndjsontosvg) 
	from the simplified Google quickdraw data set. key_id = 5914184803942400-->
<svg width="600" height="600"
	xmlns="http://www.w3.org/2000/svg">
	xmlns:ndjsontosvg="https://github.com/thompson318/ndjsontosvg"
	xmlns:quickdraw="https://quickdraw.withgoogle.com/data"
	xmlns:scikit-surgery="https://doi.org/10.1007/s11548-020-02180-5">

	<rect width="100%" height="100%" fill="white" />
	<path d = "M 168.75 203.91 L 166.41 206.25" stroke="black" fill="transparent"/>
	<path d = "M 142.97 236.72 L 150.00 21.09 L 154.69 2.34 L 161.72 2.34 L 192.19 70.31 L 215.62 147.66 L 222.66 189.84 L 222.66 267.19" stroke="black" fill="transparent"/>
	<path d = "M 110.16 304.69 L 135.94 283.59 L 194.53 260.16 L 292.97 255.47 L 339.84 278.91 L 375.00 346.88" stroke="black" fill="transparent"/>
	<path d = "M 311.72 288.28 L 332.81 189.84 L 393.75 0.00 L 393.75 67.97 L 349.22 281.25" stroke="black" fill="transparent"/>
	<path d = "M 112.50 314.06 L 75.00 382.03 L 72.66 419.53 L 82.03 438.28 L 114.84 468.75 L 187.50 508.59 L 257.81 525.00 L 323.44 515.62 L 346.88 494.53 L 396.09 396.09 L 396.09 353.91 L 386.72 323.44" stroke="black" fill="transparent"/>
	<path d = "M 171.09 351.56 L 199.22 325.78" stroke="black" fill="transparent"/>
	<path d = "M 295.31 330.47 L 295.31 344.53" stroke="black" fill="transparent"/>
	<path d = "M 232.03 391.41 L 232.03 407.81 L 241.41 405.47 L 250.78 393.75 L 243.75 386.72" stroke="black" fill="transparent"/>
	<path d = "M 203.91 435.94 L 140.62 407.81 L 51.56 400.78 L 0.00 428.91 L 9.38 447.66" stroke="black" fill="transparent"/>
	<path d = "M 180.47 442.97 L 84.38 499.22 L 49.22 536.72 L 49.22 543.75 L 60.94 548.44" stroke="black" fill="transparent"/>
	<path d = "M 290.62 442.97 L 370.31 396.09 L 410.16 384.38 L 452.34 386.72 L 468.75 396.09 L 478.12 417.19" stroke="black" fill="transparent"/>
	<path d = "M 292.97 503.91 L 363.28 478.12 L 438.28 471.09 L 482.81 475.78 L 494.53 482.81 L 499.22 496.88" stroke="black" fill="transparent"/>
	<path d = "M 267.19 506.25 L 213.28 513.28 L 166.41 539.06 L 119.53 578.91 L 117.19 597.66" stroke="black" fill="transparent"/>
</svg>