<?xml version="1.0" encoding="UTF-8" standalone="no"?>
<!--Created with ndjsontosvg (https:https://github.com/thompson318/ndjsontosvg) 
	from the simplified Google quickdraw data set. key_id = 4889529808846848-->
<svg width="600" height="600"
	xmlns="http://www.w3.org/2000/svg">
	xmlns:ndjsontosvg="https://github.com/thompson318/ndjsontosvg"
	xmlns:quickdraw="https://quickdraw.withgoogle.com/data"
	xmlns:scikit-surgery="https://doi.org/10.1007/s11548-020-02180-5">

	<rect width="100%" height="100%" fill="white" />
	<path d = "M 257.81 220.31 L 208.59 220.31 L 178.12 234.38 L 110.16 283.59 L 53.91 358.59 L 39.84 398.44 L 35.16 468.75 L 46.88 503.91 L 89.06 557.81 L 150.00 592.97 L 203.91 597.66 L 227.34 585.94 L 300.00 494.53 L 339.84 379.69 L 342.19 316.41 L 335.16 288.28 L 307.03 250.78 L 274.22 229.69 L 257.81 229.69" stroke="black" fill="transparent"/>
	<path d = "M 126.56 447.66 L 124.22 564.84" stroke="black" fill="transparent"/>
	<path d = "M 142.97 454.69 L 142.97 431.25 L 227.34 450.00 L 257.81 466.41" stroke="black" fill="transparent"/>
	<path d = "M 135.94 564.84 L 199.22 560.16 L 232.03 548.44 L 229.69 527.34 L 215.62 508.59 L 217.97 485.16" stroke="black" fill="transparent"/>
	<path d = "M 189.84 447.66 L 194.53 590.62 L 248.44 520.31 L 255.47 496.88 L 255.47 440.62 L 267.19 433.59" stroke="black" fill="transparent"/>
	<path d = "M 32.81 398.44 L 11.72 346.88 L 2.34 285.94 L 0.00 173.44 L 9.38 126.56 L 72.66 4.69 L 84.38 0.00 L 100.78 37.50 L 128.91 229.69" stroke="black" fill="transparent"/>
	<path d = "M 304.69 269.53 L 290.62 257.81 L 283.59 227.34 L 283.59 206.25 L 295.31 178.12 L 344.53 107.81 L 407.81 42.19 L 459.38 9.38 L 527.34 2.34 L 548.44 21.09 L 560.16 46.88 L 557.81 84.38 L 529.69 189.84 L 351.56 454.69" stroke="black" fill="transparent"/>
	<path d = "M 56.25 262.50 L 35.16 229.69 L 32.81 192.19 L 44.53 164.06 L 79.69 121.88 L 70.31 201.56 L 77.34 241.41" stroke="black" fill="transparent"/>
	<path d = "M 384.38 253.12 L 391.41 220.31 L 433.59 173.44 L 501.56 126.56 L 574.22 96.09 L 445.31 241.41" stroke="black" fill="transparent"/>
</svg>