<?xml version="1.0" encoding="UTF-8" standalone="no"?>
<!--Created with ndjsontosvg (https:https://github.com/thompson318/ndjsontosvg) 
	from the simplified Google quickdraw data set. key_id = 6105897010987008-->
<svg width="600" height="600"
	xmlns="http://www.w3.org/2000/svg">
	xmlns:ndjsontosvg="https://github.com/thompson318/ndjsontosvg"
	xmlns:quickdraw="https://quickdraw.withgoogle.com/data"
	xmlns:scikit-surgery="https://doi.org/10.1007/s11548-020-02180-5">

	<rect width="100%" height="100%" fill="white" />
	<path d = "M 164.06 182.81 L 150.00 161.72 L 119.53 145.31 L 72.66 140.62 L 30.47 152.34 L 16.41 164.06 L 4.69 192.19 L 0.00 257.81 L 18.75 281.25 L 77.34 297.66 L 138.28 300.00 L 178.12 285.94" stroke="black" fill="transparent"/>
	<path d = "M 178.12 213.28 L 166.41 203.91 L 164.06 142.97 L 185.16 84.38 L 232.03 44.53 L 262.50 42.19 L 285.94 51.56 L 304.69 75.00 L 307.03 107.81 L 253.12 213.28 L 215.62 239.06" stroke="black" fill="transparent"/>
	<path d = "M 199.22 89.06 L 182.81 30.47 L 164.06 4.69 L 126.56 0.00 L 112.50 14.06 L 100.78 110.16 L 145.31 185.16" stroke="black" fill="transparent"/>
	<path d = "M 187.50 285.94 L 180.47 300.00 L 173.44 377.34 L 119.53 410.16 L 103.12 410.16 L 63.28 391.41 L 18.75 396.09 L 7.03 405.47 L 4.69 426.56 L 21.09 457.03 L 46.88 485.16 L 93.75 485.16 L 168.75 442.97 L 199.22 412.50 L 203.91 421.88 L 180.47 468.75 L 171.09 473.44 L 150.00 459.38 L 117.19 459.38 L 110.16 471.09 L 107.81 489.84 L 124.22 510.94 L 159.38 520.31 L 182.81 517.97 L 206.25 501.56 L 278.91 407.81 L 489.84 410.16 L 454.69 440.62 L 445.31 496.88 L 450.00 445.31 L 442.97 431.25 L 398.44 428.91 L 382.03 435.94 L 356.25 461.72 L 344.53 492.19 L 344.53 532.03 L 365.62 550.78 L 410.16 555.47 L 398.44 546.09 L 330.47 532.03 L 292.97 532.03 L 281.25 539.06 L 278.91 548.44 L 302.34 569.53 L 377.34 595.31 L 426.56 595.31 L 536.72 569.53 L 595.31 379.69 L 592.97 353.91 L 581.25 332.81 L 592.97 370.31" stroke="black" fill="transparent"/>
</svg>