<?xml version="1.0" encoding="UTF-8" standalone="no"?>
<!--Created with ndjsontosvg (https:https://github.com/thompson318/ndjsontosvg) 
	from the simplified Google quickdraw data set. key_id = 4965960819671040-->
<svg width="600" height="600"
	xmlns="http://www.w3.org/2000/svg">
	xmlns:ndjsontosvg="https://github.com/thompson318/ndjsontosvg"
	xmlns:quickdraw="https://quickdraw.withgoogle.com/data"
	xmlns:scikit-surgery="https://doi.org/10.1007/s11548-020-02180-5">

	<rect width="100%" height="100%" fill="white" />
	<path d = "M 295.31 234.38 L 297.66 253.12 L 349.22 365.62 L 377.34 372.66 L 398.44 358.59 L 424.22 323.44 L 428.91 203.91" stroke="black" fill="transparent"/>
	<path d = "M 372.66 346.88 L 356.25 351.56 L 353.91 370.31 L 360.94 372.66 L 391.41 367.97 L 400.78 353.91 L 400.78 346.88 L 360.94 351.56 L 356.25 365.62 L 360.94 384.38 L 379.69 384.38 L 389.06 363.28 L 379.69 356.25 L 360.94 356.25 L 358.59 375.00 L 379.69 379.69 L 398.44 367.97 L 405.47 349.22 L 396.09 351.56 L 384.38 367.97" stroke="black" fill="transparent"/>
	<path d = "M 346.88 131.25 L 154.69 121.88 L 145.31 124.22 L 124.22 159.38 L 128.91 189.84 L 161.72 206.25 L 203.91 213.28 L 398.44 213.28 L 506.25 194.53 L 508.59 175.78 L 475.78 150.00 L 428.91 131.25 L 285.94 138.28" stroke="black" fill="transparent"/>
	<path d = "M 185.16 161.72 L 185.16 171.09 L 213.28 178.12 L 217.97 159.38 L 189.84 154.69" stroke="black" fill="transparent"/>
	<path d = "M 379.69 159.38 L 365.62 161.72 L 358.59 178.12 L 403.12 182.81 L 412.50 166.41 L 393.75 157.03" stroke="black" fill="transparent"/>
	<path d = "M 140.62 70.31 L 145.31 11.72 L 232.03 67.97 L 250.78 67.97 L 309.38 53.91 L 461.72 53.91 L 447.66 37.50 L 445.31 7.03 L 464.06 0.00 L 492.19 21.09 L 503.91 42.19 L 506.25 112.50" stroke="black" fill="transparent"/>
	<path d = "M 114.84 201.56 L 93.75 206.25 L 32.81 239.06 L 2.34 276.56 L 2.34 330.47 L 30.47 382.03 L 75.00 410.16 L 159.38 426.56 L 232.03 424.22 L 325.78 393.75" stroke="black" fill="transparent"/>
	<path d = "M 384.38 384.38 L 461.72 384.38 L 581.25 363.28 L 597.66 337.50 L 595.31 288.28 L 581.25 267.19 L 543.75 234.38" stroke="black" fill="transparent"/>
</svg>