<?xml version="1.0" encoding="UTF-8" standalone="no"?>
<!--Created with ndjsontosvg (https:https://github.com/thompson318/ndjsontosvg) 
	from the simplified Google quickdraw data set. key_id = 5569017525829632-->
<svg width="600" height="600"
	xmlns="http://www.w3.org/2000/svg">
	xmlns:ndjsontosvg="https://github.com/thompson318/ndjsontosvg"
	xmlns:quickdraw="https://quickdraw.withgoogle.com/data"
	xmlns:scikit-surgery="https://doi.org/10.1007/s11548-020-02180-5">

	<rect width="100%" height="100%" fill="white" />
	<path d = "M 225.00 131.25 L 180.47 140.62 L 110.16 208.59 L 93.75 267.19 L 114.84 288.28 L 182.81 285.94 L 241.41 246.09 L 257.81 178.12 L 253.12 147.66 L 241.41 135.94" stroke="black" fill="transparent"/>
	<path d = "M 199.22 213.28 L 180.47 189.84 L 206.25 173.44 L 203.91 215.62 L 196.88 213.28" stroke="black" fill="transparent"/>
	<path d = "M 487.50 297.66 L 457.03 271.88 L 419.53 203.91 L 419.53 173.44 L 438.28 131.25 L 466.41 119.53 L 529.69 121.88 L 571.88 166.41 L 597.66 222.66 L 595.31 264.84 L 564.84 281.25 L 513.28 292.97 L 503.91 283.59" stroke="black" fill="transparent"/>
	<path d = "M 501.56 203.91 L 494.53 213.28 L 489.84 187.50 L 515.62 189.84 L 501.56 215.62" stroke="black" fill="transparent"/>
	<path d = "M 250.78 295.31 L 318.75 278.91 L 290.62 314.06 L 271.88 321.09 L 255.47 285.94" stroke="black" fill="transparent"/>
	<path d = "M 201.56 407.81 L 217.97 407.81 L 264.84 389.06 L 276.56 372.66" stroke="black" fill="transparent"/>
	<path d = "M 288.28 370.31 L 316.41 393.75 L 356.25 410.16 L 365.62 410.16 L 389.06 379.69" stroke="black" fill="transparent"/>
	<path d = "M 14.06 222.66 L 105.47 210.94 L 105.47 222.66 L 77.34 264.84 L 0.00 276.56" stroke="black" fill="transparent"/>
	<path d = "M 0.00 337.50 L 21.09 330.47 L 103.12 325.78 L 75.00 365.62 L 9.38 370.31" stroke="black" fill="transparent"/>
	<path d = "M 28.12 412.50 L 23.44 403.12 L 46.88 396.09 L 105.47 396.09 L 114.84 400.78 L 112.50 421.88 L 60.94 435.94 L 11.72 424.22" stroke="black" fill="transparent"/>
	<path d = "M 28.12 192.19 L 79.69 145.31 L 159.38 91.41" stroke="black" fill="transparent"/>
	<path d = "M 96.09 142.97 L 96.09 35.16 L 103.12 2.34 L 121.88 0.00 L 210.94 28.12" stroke="black" fill="transparent"/>
</svg>