<?xml version="1.0" encoding="UTF-8" standalone="no"?>
<!--Created with ndjsontosvg (https:https://github.com/thompson318/ndjsontosvg) 
	from the simplified Google quickdraw data set. key_id = 6558829636485120-->
<svg width="600" height="600"
	xmlns="http://www.w3.org/2000/svg">
	xmlns:ndjsontosvg="https://github.com/thompson318/ndjsontosvg"
	xmlns:quickdraw="https://quickdraw.withgoogle.com/data"
	xmlns:scikit-surgery="https://doi.org/10.1007/s11548-020-02180-5">

	<rect width="100%" height="100%" fill="white" />
	<path d = "M 51.56 182.81 L 49.22 154.69 L 86.72 23.44 L 133.59 168.75 L 147.66 161.72 L 276.56 0.00 L 264.84 30.47 L 260.16 75.00 L 264.84 185.16 L 292.97 173.44 L 330.47 187.50 L 363.28 236.72 L 372.66 269.53 L 370.31 297.66 L 358.59 316.41 L 236.72 405.47 L 175.78 428.91 L 72.66 433.59 L 44.53 414.84 L 0.00 351.56 L 2.34 302.34 L 11.72 267.19 L 37.50 225.00 L 70.31 187.50" stroke="black" fill="transparent"/>
	<path d = "M 84.38 257.81 L 98.44 292.97" stroke="black" fill="transparent"/>
	<path d = "M 142.97 234.38 L 154.69 267.19" stroke="black" fill="transparent"/>
	<path d = "M 112.50 304.69 L 98.44 342.19 L 21.09 370.31 L 140.62 372.66 L 159.38 356.25 L 187.50 288.28" stroke="black" fill="transparent"/>
	<path d = "M 206.25 421.88 L 217.97 496.88 L 288.28 473.44 L 396.09 396.09 L 478.12 255.47 L 482.81 199.22 L 475.78 145.31 L 487.50 138.28 L 513.28 135.94 L 560.16 147.66 L 585.94 166.41 L 597.66 192.19 L 431.25 445.31 L 344.53 543.75 L 316.41 564.84 L 274.22 560.16 L 222.66 515.62" stroke="black" fill="transparent"/>
	<path d = "M 482.81 590.62 L 482.81 590.62" stroke="black" fill="transparent"/>
</svg>