<?xml version="1.0" encoding="UTF-8" standalone="no"?>
<!--Created with ndjsontosvg (https:https://github.com/thompson318/ndjsontosvg) 
	from the simplified Google quickdraw data set. key_id = 5147433854042112-->
<svg width="600" height="600"
	xmlns="http://www.w3.org/2000/svg">
	xmlns:ndjsontosvg="https://github.com/thompson318/ndjsontosvg"
	xmlns:quickdraw="https://quickdraw.withgoogle.com/data"
	xmlns:scikit-surgery="https://doi.org/10.1007/s11548-020-02180-5">

	<rect width="100%" height="100%" fill="white" />
	<path d = "M 49.22 403.12 L 32.81 410.16 L 23.44 396.09 L 37.50 382.03 L 51.56 396.09 L 49.22 428.91 L 32.81 433.59 L 16.41 424.22 L 28.12 407.81 L 46.88 403.12 L 51.56 419.53 L 35.16 426.56 L 18.75 421.88 L 9.38 407.81 L 25.78 389.06 L 58.59 382.03 L 63.28 396.09 L 65.62 414.84 L 35.16 428.91 L 14.06 428.91 L 0.00 414.84 L 18.75 398.44 L 51.56 391.41 L 63.28 407.81 L 35.16 417.19" stroke="black" fill="transparent"/>
	<path d = "M 53.91 375.00 L 86.72 367.97 L 135.94 332.81 L 152.34 283.59 L 154.69 217.97 L 187.50 171.09 L 225.00 138.28 L 257.81 135.94 L 271.88 145.31" stroke="black" fill="transparent"/>
	<path d = "M 241.41 142.97 L 232.03 126.56 L 229.69 89.06 L 253.12 14.06 L 297.66 65.62 L 321.09 112.50 L 367.97 100.78 L 403.12 100.78 L 419.53 91.41 L 454.69 35.16 L 503.91 0.00 L 517.97 16.41 L 529.69 100.78 L 555.47 185.16 L 583.59 239.06 L 597.66 307.03 L 597.66 325.78 L 574.22 360.94 L 513.28 386.72" stroke="black" fill="transparent"/>
	<path d = "M 180.47 246.09 L 178.12 229.69 L 227.34 213.28 L 461.72 161.72 L 564.84 159.38 L 564.84 152.34" stroke="black" fill="transparent"/>
	<path d = "M 171.09 309.38 L 157.03 304.69 L 135.94 314.06 L 152.34 302.34 L 367.97 241.41 L 424.22 236.72 L 520.31 239.06 L 534.38 232.03 L 532.03 215.62" stroke="black" fill="transparent"/>
	<path d = "M 194.53 246.09 L 196.88 229.69 L 213.28 225.00 L 215.62 239.06 L 206.25 253.12 L 175.78 257.81 L 157.03 248.44 L 161.72 215.62 L 201.56 217.97 L 215.62 227.34 L 220.31 241.41 L 187.50 255.47 L 171.09 241.41 L 178.12 227.34 L 194.53 227.34 L 203.91 241.41 L 203.91 257.81 L 182.81 271.88 L 168.75 267.19 L 161.72 253.12 L 168.75 236.72 L 210.94 229.69 L 222.66 246.09 L 215.62 264.84 L 180.47 281.25 L 164.06 281.25 L 147.66 267.19 L 142.97 250.78 L 157.03 232.03 L 175.78 222.66 L 215.62 229.69 L 225.00 246.09 L 194.53 257.81 L 173.44 250.78 L 171.09 234.38 L 206.25 220.31 L 225.00 220.31 L 234.38 234.38 L 229.69 236.72" stroke="black" fill="transparent"/>
	<path d = "M 248.44 213.28 L 222.66 220.31 L 215.62 239.06 L 225.00 255.47 L 255.47 262.50 L 304.69 241.41 L 314.06 210.94 L 304.69 194.53 L 271.88 185.16 L 255.47 187.50 L 203.91 225.00" stroke="black" fill="transparent"/>
	<path d = "M 325.78 206.25 L 375.00 194.53 L 410.16 194.53 L 396.09 210.94 L 323.44 225.00 L 367.97 194.53 L 384.38 194.53 L 389.06 210.94 L 372.66 220.31 L 321.09 229.69 L 314.06 213.28 L 318.75 196.88 L 367.97 196.88 L 375.00 213.28 L 365.62 210.94" stroke="black" fill="transparent"/>
	<path d = "M 410.16 159.38 L 398.44 175.78 L 396.09 210.94 L 445.31 229.69 L 471.09 222.66 L 487.50 208.59 L 510.94 173.44 L 513.28 157.03 L 464.06 142.97 L 426.56 161.72" stroke="black" fill="transparent"/>
	<path d = "M 503.91 147.66 L 520.31 215.62 L 520.31 154.69 L 536.72 152.34 L 546.09 189.84 L 532.03 210.94 L 494.53 208.59 L 475.78 180.47" stroke="black" fill="transparent"/>
	<path d = "M 25.78 428.91 L 152.34 398.44 L 192.19 393.75 L 253.12 403.12 L 337.50 459.38 L 375.00 464.06 L 407.81 452.34 L 428.91 454.69 L 445.31 442.97 L 454.69 419.53" stroke="black" fill="transparent"/>
</svg>