<?xml version="1.0" encoding="UTF-8" standalone="no"?>
<!--Created with ndjsontosvg (https:https://github.com/thompson318/ndjsontosvg) 
	from the simplified Google quickdraw data set. key_id = 5072253941186560-->
<svg width="600" height="600"
	xmlns="http://www.w3.org/2000/svg">
	xmlns:ndjsontosvg="https://github.com/thompson318/ndjsontosvg"
	xmlns:quickdraw="https://quickdraw.withgoogle.com/data"
	xmlns:scikit-surgery="https://doi.org/10.1007/s11548-020-02180-5">

	<rect width="100%" height="100%" fill="white" />
	<path d = "M 112.50 356.25 L 89.06 356.25 L 56.25 314.06 L 42.19 274.22 L 42.19 232.03 L 67.97 180.47 L 112.50 133.59 L 196.88 89.06 L 264.84 70.31 L 321.09 63.28 L 424.22 63.28 L 482.81 77.34 L 513.28 96.09 L 541.41 128.91 L 560.16 180.47 L 562.50 236.72 L 553.12 274.22 L 494.53 382.03 L 417.19 461.72 L 353.91 501.56 L 269.53 532.03 L 241.41 532.03 L 220.31 525.00 L 131.25 452.34 L 105.47 421.88 L 58.59 316.41" stroke="black" fill="transparent"/>
	<path d = "M 203.91 492.19 L 234.38 473.44 L 274.22 466.41 L 318.75 466.41 L 339.84 480.47 L 349.22 496.88 L 330.47 482.81 L 302.34 475.78 L 229.69 482.81 L 189.84 506.25 L 194.53 515.62 L 222.66 522.66 L 250.78 522.66 L 292.97 499.22 L 297.66 492.19 L 290.62 487.50 L 257.81 489.84 L 227.34 510.94 L 234.38 520.31 L 274.22 522.66 L 309.38 503.91 L 318.75 489.84 L 309.38 480.47 L 269.53 480.47 L 246.09 492.19" stroke="black" fill="transparent"/>
	<path d = "M 260.16 194.53 L 234.38 178.12 L 161.72 173.44 L 114.84 194.53 L 79.69 227.34 L 53.91 276.56 L 51.56 316.41 L 72.66 351.56 L 114.84 391.41 L 154.69 405.47 L 215.62 407.81 L 438.28 358.59 L 503.91 332.81 L 532.03 295.31 L 541.41 271.88 L 541.41 239.06 L 525.00 222.66 L 499.22 210.94 L 274.22 166.41 L 239.06 164.06 L 229.69 173.44" stroke="black" fill="transparent"/>
	<path d = "M 166.41 274.22 L 154.69 267.19 L 138.28 267.19 L 126.56 290.62 L 124.22 332.81 L 128.91 344.53 L 150.00 353.91 L 182.81 360.94 L 208.59 356.25 L 220.31 344.53 L 232.03 330.47 L 239.06 281.25 L 229.69 257.81 L 206.25 243.75 L 180.47 241.41 L 166.41 253.12" stroke="black" fill="transparent"/>
	<path d = "M 353.91 278.91 L 335.16 295.31 L 332.81 314.06 L 351.56 330.47 L 389.06 335.16 L 426.56 311.72 L 442.97 283.59 L 445.31 250.78 L 428.91 236.72 L 398.44 229.69" stroke="black" fill="transparent"/>
	<path d = "M 396.09 39.84 L 503.91 7.03 L 588.28 0.00 L 595.31 39.84 L 562.50 154.69" stroke="black" fill="transparent"/>
	<path d = "M 98.44 112.50 L 53.91 93.75 L 16.41 93.75 L 4.69 103.12 L 0.00 164.06 L 37.50 210.94" stroke="black" fill="transparent"/>
	<path d = "M 180.47 285.94 L 171.09 292.97 L 168.75 321.09 L 185.16 323.44 L 187.50 311.72 L 178.12 300.00" stroke="black" fill="transparent"/>
	<path d = "M 382.03 274.22 L 375.00 295.31 L 391.41 295.31 L 386.72 281.25" stroke="black" fill="transparent"/>
	<path d = "M 107.81 452.34 L 63.28 597.66" stroke="black" fill="transparent"/>
</svg>