<?xml version="1.0" encoding="UTF-8" standalone="no"?>
<!--Created with ndjsontosvg (https:https://github.com/thompson318/ndjsontosvg) 
	from the simplified Google quickdraw data set. key_id = 6492262542344192-->
<svg width="600" height="600"
	xmlns="http://www.w3.org/2000/svg">
	xmlns:ndjsontosvg="https://github.com/thompson318/ndjsontosvg"
	xmlns:quickdraw="https://quickdraw.withgoogle.com/data"
	xmlns:scikit-surgery="https://doi.org/10.1007/s11548-020-02180-5">

	<rect width="100%" height="100%" fill="white" />
	<path d = "M 79.69 138.28 L 79.69 96.09 L 67.97 53.91 L 39.84 0.00 L 91.41 16.41 L 110.16 44.53 L 142.97 70.31 L 164.06 114.84 L 370.31 105.47 L 410.16 119.53 L 419.53 117.19 L 461.72 32.81 L 517.97 2.34 L 525.00 11.72 L 487.50 65.62 L 452.34 150.00 L 492.19 171.09 L 501.56 199.22 L 503.91 292.97 L 487.50 349.22 L 471.09 382.03 L 417.19 431.25 L 356.25 503.91 L 316.41 583.59 L 290.62 592.97 L 229.69 597.66 L 173.44 585.94 L 145.31 564.84 L 114.84 501.56 L 89.06 466.41 L 30.47 426.56 L 16.41 407.81 L 2.34 360.94 L 2.34 246.09 L 11.72 217.97 L 46.88 182.81 L 70.31 135.94 L 79.69 128.91 L 82.03 142.97" stroke="black" fill="transparent"/>
	<path d = "M 89.06 196.88 L 53.91 222.66 L 39.84 281.25 L 56.25 304.69 L 110.16 325.78 L 140.62 283.59 L 142.97 234.38 L 119.53 199.22 L 79.69 201.56" stroke="black" fill="transparent"/>
	<path d = "M 96.09 253.12 L 91.41 257.81" stroke="black" fill="transparent"/>
	<path d = "M 396.09 220.31 L 335.16 206.25 L 269.53 206.25 L 241.41 220.31 L 236.72 239.06 L 253.12 288.28 L 274.22 314.06 L 295.31 323.44 L 370.31 323.44 L 393.75 304.69 L 414.84 264.84 L 412.50 241.41 L 396.09 220.31 L 356.25 201.56 L 328.12 199.22" stroke="black" fill="transparent"/>
	<path d = "M 321.09 248.44 L 307.03 267.19 L 316.41 271.88 L 316.41 257.81" stroke="black" fill="transparent"/>
</svg>