<?xml version="1.0" encoding="UTF-8" standalone="no"?>
<!--Created with ndjsontosvg (https:https://github.com/thompson318/ndjsontosvg) 
	from the simplified Google quickdraw data set. key_id = 4761194743201792-->
<svg width="600" height="600"
	xmlns="http://www.w3.org/2000/svg">
	xmlns:ndjsontosvg="https://github.com/thompson318/ndjsontosvg"
	xmlns:quickdraw="https://quickdraw.withgoogle.com/data"
	xmlns:scikit-surgery="https://doi.org/10.1007/s11548-020-02180-5">

	<rect width="100%" height="100%" fill="white" />
	<path d = "M 28.12 82.03 L 4.69 96.09 L 4.69 119.53 L 35.16 114.84 L 42.19 93.75 L 30.47 86.72" stroke="black" fill="transparent"/>
	<path d = "M 39.84 75.00 L 46.88 44.53 L 86.72 9.38 L 161.72 0.00 L 182.81 16.41 L 196.88 86.72" stroke="black" fill="transparent"/>
	<path d = "M 213.28 9.38 L 215.62 51.56 L 229.69 84.38 L 241.41 96.09 L 353.91 82.03 L 442.97 82.03 L 494.53 105.47 L 541.41 178.12 L 541.41 232.03 L 525.00 260.16 L 452.34 295.31 L 400.78 309.38 L 365.62 309.38 L 274.22 271.88 L 220.31 210.94 L 201.56 173.44 L 154.69 145.31 L 51.56 124.22" stroke="black" fill="transparent"/>
	<path d = "M 543.75 201.56 L 578.91 271.88 L 583.59 356.25 L 541.41 475.78 L 508.59 503.91 L 452.34 522.66 L 365.62 534.38 L 353.91 529.69 L 349.22 517.97 L 349.22 494.53 L 358.59 485.16 L 410.16 454.69 L 445.31 410.16 L 468.75 367.97 L 499.22 269.53" stroke="black" fill="transparent"/>
	<path d = "M 407.81 457.03 L 464.06 468.75 L 503.91 510.94" stroke="black" fill="transparent"/>
	<path d = "M 442.97 410.16 L 457.03 405.47 L 536.72 400.78 L 550.78 405.47 L 550.78 414.84" stroke="black" fill="transparent"/>
	<path d = "M 485.16 344.53 L 527.34 309.38 L 555.47 300.00 L 597.66 300.00" stroke="black" fill="transparent"/>
</svg>