<?xml version="1.0" encoding="UTF-8" standalone="no"?>
<!--Created with ndjsontosvg (https:https://github.com/thompson318/ndjsontosvg) 
	from the simplified Google quickdraw data set. key_id = 5019065804390400-->
<svg width="600" height="600"
	xmlns="http://www.w3.org/2000/svg">
	xmlns:ndjsontosvg="https://github.com/thompson318/ndjsontosvg"
	xmlns:quickdraw="https://quickdraw.withgoogle.com/data"
	xmlns:scikit-surgery="https://doi.org/10.1007/s11548-020-02180-5">

	<rect width="100%" height="100%" fill="white" />
	<path d = "M 7.03 367.97 L 0.00 365.62 L 9.38 358.59 L 56.25 337.50 L 290.62 278.91 L 363.28 248.44 L 400.78 227.34 L 433.59 194.53 L 440.62 178.12 L 435.94 150.00 L 442.97 145.31 L 487.50 147.66 L 557.81 192.19 L 571.88 210.94 L 571.88 257.81 L 550.78 384.38 L 548.44 527.34 L 344.53 576.56 L 28.12 597.66 L 32.81 407.81 L 9.38 332.81" stroke="black" fill="transparent"/>
	<path d = "M 152.34 332.81 L 147.66 314.06 L 171.09 178.12 L 171.09 121.88 L 150.00 124.22 L 107.81 103.12 L 93.75 77.34 L 98.44 39.84 L 124.22 9.38 L 173.44 0.00 L 189.84 7.03 L 220.31 37.50 L 248.44 86.72 L 243.75 107.81 L 213.28 126.56 L 142.97 128.91 L 119.53 117.19" stroke="black" fill="transparent"/>
	<path d = "M 180.47 525.00 L 166.41 346.88 L 342.19 344.53 L 440.62 323.44 L 426.56 360.94 L 426.56 473.44 L 412.50 482.81 L 342.19 499.22 L 269.53 501.56 L 185.16 501.56 L 157.03 489.84" stroke="black" fill="transparent"/>
</svg>