<?xml version="1.0" encoding="UTF-8" standalone="no"?>
<!--Created with ndjsontosvg (https:https://github.com/thompson318/ndjsontosvg) 
	from the simplified Google quickdraw data set. key_id = 4551281655939072-->
<svg width="600" height="600"
	xmlns="http://www.w3.org/2000/svg">
	xmlns:ndjsontosvg="https://github.com/thompson318/ndjsontosvg"
	xmlns:quickdraw="https://quickdraw.withgoogle.com/data"
	xmlns:scikit-surgery="https://doi.org/10.1007/s11548-020-02180-5">

	<rect width="100%" height="100%" fill="white" />
	<path d = "M 25.78 278.91 L 30.47 318.75 L 18.75 421.88 L 21.09 517.97 L 39.84 576.56 L 67.97 592.97 L 105.47 595.31 L 227.34 569.53 L 335.16 555.47 L 532.03 567.19 L 546.09 560.16 L 548.44 522.66 L 527.34 274.22 L 517.97 246.09 L 496.88 229.69 L 445.31 220.31 L 389.06 227.34 L 180.47 288.28 L 72.66 307.03 L 0.00 309.38" stroke="black" fill="transparent"/>
	<path d = "M 98.44 39.84 L 131.25 103.12 L 180.47 243.75 L 208.59 274.22" stroke="black" fill="transparent"/>
	<path d = "M 194.53 271.88 L 419.53 0.00" stroke="black" fill="transparent"/>
	<path d = "M 103.12 379.69 L 75.00 403.12 L 82.03 473.44 L 105.47 506.25 L 150.00 529.69 L 187.50 529.69 L 206.25 520.31 L 227.34 482.81 L 225.00 431.25 L 213.28 407.81 L 173.44 375.00 L 142.97 365.62 L 110.16 379.69" stroke="black" fill="transparent"/>
	<path d = "M 307.03 351.56 L 300.00 365.62 L 295.31 414.84 L 297.66 489.84 L 304.69 517.97 L 342.19 525.00 L 487.50 496.88 L 492.19 478.12 L 468.75 328.12 L 450.00 325.78 L 339.84 358.59 L 297.66 360.94" stroke="black" fill="transparent"/>
</svg>