<?xml version="1.0" encoding="UTF-8" standalone="no"?>
<!--Created with ndjsontosvg (https:https://github.com/thompson318/ndjsontosvg) 
	from the simplified Google quickdraw data set. key_id = 5662318945894400-->
<svg width="600" height="600"
	xmlns="http://www.w3.org/2000/svg">
	xmlns:ndjsontosvg="https://github.com/thompson318/ndjsontosvg"
	xmlns:quickdraw="https://quickdraw.withgoogle.com/data"
	xmlns:scikit-surgery="https://doi.org/10.1007/s11548-020-02180-5">

	<rect width="100%" height="100%" fill="white" />
	<path d = "M 0.00 332.81 L 16.41 428.91 L 25.78 595.31 L 51.56 595.31 L 140.62 571.88 L 187.50 571.88 L 290.62 597.66 L 496.88 583.59 L 457.03 475.78 L 442.97 419.53 L 426.56 274.22 L 363.28 304.69 L 311.72 316.41 L 203.91 318.75 L 157.03 342.19 L 126.56 342.19 L 42.19 316.41 L 32.81 316.41 L 21.09 330.47" stroke="black" fill="transparent"/>
	<path d = "M 358.59 300.00 L 372.66 0.00" stroke="black" fill="transparent"/>
	<path d = "M 311.72 98.44 L 358.59 93.75 L 389.06 103.12" stroke="black" fill="transparent"/>
	<path d = "M 337.50 145.31 L 386.72 168.75" stroke="black" fill="transparent"/>
	<path d = "M 353.91 189.84 L 356.25 220.31 L 382.03 234.38" stroke="black" fill="transparent"/>
</svg>