<?xml version="1.0" encoding="UTF-8" standalone="no"?>
<!--Created with ndjsontosvg (https:https://github.com/thompson318/ndjsontosvg) 
	from the simplified Google quickdraw data set. key_id = 6587313133977600-->
<svg width="600" height="600"
	xmlns="http://www.w3.org/2000/svg">
	xmlns:ndjsontosvg="https://github.com/thompson318/ndjsontosvg"
	xmlns:quickdraw="https://quickdraw.withgoogle.com/data"
	xmlns:scikit-surgery="https://doi.org/10.1007/s11548-020-02180-5">

	<rect width="100%" height="100%" fill="white" />
	<path d = "M 53.91 250.78 L 28.12 386.72 L 44.53 403.12 L 196.88 417.19 L 543.75 407.81" stroke="black" fill="transparent"/>
	<path d = "M 39.84 220.31 L 215.62 201.56 L 567.19 196.88 L 585.94 250.78 L 597.66 311.72 L 590.62 407.81 L 585.94 410.16 L 578.91 403.12" stroke="black" fill="transparent"/>
	<path d = "M 112.50 248.44 L 91.41 307.03 L 89.06 342.19 L 105.47 360.94 L 140.62 367.97 L 185.16 346.88 L 206.25 325.78 L 210.94 314.06 L 166.41 253.12 L 150.00 241.41 L 138.28 241.41" stroke="black" fill="transparent"/>
	<path d = "M 480.47 253.12 L 468.75 264.84 L 457.03 302.34 L 461.72 339.84 L 473.44 370.31 L 494.53 382.03 L 543.75 384.38 L 574.22 365.62 L 578.91 332.81 L 562.50 281.25 L 536.72 269.53 L 473.44 262.50" stroke="black" fill="transparent"/>
	<path d = "M 253.12 257.81 L 250.78 302.34 L 257.81 307.03 L 377.34 314.06" stroke="black" fill="transparent"/>
	<path d = "M 262.50 267.19 L 417.19 262.50 L 403.12 318.75" stroke="black" fill="transparent"/>
	<path d = "M 140.62 215.62 L 56.25 79.69 L 7.03 21.09" stroke="black" fill="transparent"/>
	<path d = "M 4.69 21.09 L 16.41 7.03 L 0.00 0.00" stroke="black" fill="transparent"/>
	<path d = "M 407.81 175.78 L 503.91 67.97 L 562.50 16.41 L 564.84 9.38 L 541.41 9.38 L 539.06 25.78 L 546.09 32.81 L 562.50 11.72" stroke="black" fill="transparent"/>
</svg>