<?xml version="1.0" encoding="UTF-8" standalone="no"?>
<!--Created with ndjsontosvg (https:https://github.com/thompson318/ndjsontosvg) 
	from the simplified Google quickdraw data set. key_id = 6597472359022592-->
<svg width="600" height="600"
	xmlns="http://www.w3.org/2000/svg">
	xmlns:ndjsontosvg="https://github.com/thompson318/ndjsontosvg"
	xmlns:quickdraw="https://quickdraw.withgoogle.com/data"
	xmlns:scikit-surgery="https://doi.org/10.1007/s11548-020-02180-5">

	<rect width="100%" height="100%" fill="white" />
	<path d = "M 14.06 63.28 L 98.44 11.72 L 161.72 0.00 L 185.16 25.78 L 206.25 93.75 L 236.72 63.28 L 285.94 42.19 L 321.09 42.19 L 342.19 49.22 L 372.66 72.66 L 386.72 93.75 L 480.47 60.94 L 520.31 60.94 L 557.81 82.03 L 583.59 112.50 L 595.31 159.38 L 562.50 199.22 L 536.72 215.62 L 482.81 236.72 L 414.84 239.06 L 363.28 206.25 L 356.25 185.16 L 302.34 236.72 L 278.91 246.09 L 236.72 248.44 L 185.16 215.62 L 166.41 185.16 L 131.25 194.53 L 117.19 192.19 L 107.81 117.19 L 65.62 138.28 L 30.47 126.56 L 23.44 112.50 L 28.12 91.41 L 44.53 79.69 L 67.97 75.00" stroke="black" fill="transparent"/>
	<path d = "M 86.72 210.94 L 77.34 225.00 L 77.34 353.91" stroke="black" fill="transparent"/>
	<path d = "M 201.56 300.00 L 206.25 377.34 L 215.62 405.47 L 225.00 407.81" stroke="black" fill="transparent"/>
	<path d = "M 386.72 342.19 L 398.44 417.19 L 405.47 440.62 L 414.84 442.97" stroke="black" fill="transparent"/>
	<path d = "M 522.66 360.94 L 510.94 475.78" stroke="black" fill="transparent"/>
	<path d = "M 0.00 461.72 L 0.00 567.19" stroke="black" fill="transparent"/>
	<path d = "M 185.16 534.38 L 180.47 590.62 L 185.16 597.66" stroke="black" fill="transparent"/>
	<path d = "M 304.69 525.00 L 311.72 585.94 L 314.06 592.97 L 330.47 588.28" stroke="black" fill="transparent"/>
	<path d = "M 450.00 553.12 L 452.34 592.97" stroke="black" fill="transparent"/>
</svg>