<?xml version="1.0" encoding="UTF-8" standalone="no"?>
<!--Created with ndjsontosvg (https:https://github.com/thompson318/ndjsontosvg) 
	from the simplified Google quickdraw data set. key_id = 6152880128000000-->
<svg width="600" height="600"
	xmlns="http://www.w3.org/2000/svg">
	xmlns:ndjsontosvg="https://github.com/thompson318/ndjsontosvg"
	xmlns:quickdraw="https://quickdraw.withgoogle.com/data"
	xmlns:scikit-surgery="https://doi.org/10.1007/s11548-020-02180-5">

	<rect width="100%" height="100%" fill="white" />
	<path d = "M 407.81 0.00 L 328.12 154.69 L 206.25 480.47 L 236.72 440.62 L 260.16 372.66 L 318.75 253.12 L 389.06 79.69 L 412.50 2.34" stroke="black" fill="transparent"/>
	<path d = "M 203.91 480.47 L 18.75 405.47 L 281.25 520.31 L 344.53 539.06" stroke="black" fill="transparent"/>
	<path d = "M 23.44 414.84 L 0.00 478.12" stroke="black" fill="transparent"/>
	<path d = "M 65.62 428.91 L 56.25 480.47" stroke="black" fill="transparent"/>
	<path d = "M 131.25 452.34 L 117.19 522.66" stroke="black" fill="transparent"/>
	<path d = "M 199.22 485.16 L 187.50 553.12" stroke="black" fill="transparent"/>
	<path d = "M 260.16 527.34 L 241.41 592.97" stroke="black" fill="transparent"/>
	<path d = "M 335.16 527.34 L 311.72 597.66" stroke="black" fill="transparent"/>
	<path d = "M 264.84 515.62 L 255.47 543.75" stroke="black" fill="transparent"/>
	<path d = "M 194.53 548.44 L 208.59 489.84" stroke="black" fill="transparent"/>
	<path d = "M 112.50 520.31 L 131.25 464.06" stroke="black" fill="transparent"/>
	<path d = "M 56.25 480.47 L 67.97 442.97" stroke="black" fill="transparent"/>
</svg>