<?xml version="1.0" encoding="UTF-8" standalone="no"?>
<!--Created with ndjsontosvg (https:https://github.com/thompson318/ndjsontosvg) 
	from the simplified Google quickdraw data set. key_id = 5150261905457152-->
<svg width="600" height="600"
	xmlns="http://www.w3.org/2000/svg">
	xmlns:ndjsontosvg="https://github.com/thompson318/ndjsontosvg"
	xmlns:quickdraw="https://quickdraw.withgoogle.com/data"
	xmlns:scikit-surgery="https://doi.org/10.1007/s11548-020-02180-5">

	<rect width="100%" height="100%" fill="white" />
	<path d = "M 428.91 21.09 L 407.81 161.72 L 426.56 168.75 L 440.62 189.84 L 522.66 379.69 L 557.81 386.72 L 592.97 375.00" stroke="black" fill="transparent"/>
	<path d = "M 510.94 332.81 L 583.59 295.31" stroke="black" fill="transparent"/>
	<path d = "M 471.09 260.16 L 541.41 227.34 L 576.56 201.56" stroke="black" fill="transparent"/>
	<path d = "M 435.94 178.12 L 560.16 105.47" stroke="black" fill="transparent"/>
	<path d = "M 414.84 70.31 L 517.97 39.84" stroke="black" fill="transparent"/>
	<path d = "M 0.00 187.50 L 51.56 196.88 L 166.41 196.88 L 339.84 225.00 L 452.34 232.03" stroke="black" fill="transparent"/>
	<path d = "M 421.88 18.75 L 447.66 18.75 L 506.25 0.00" stroke="black" fill="transparent"/>
	<path d = "M 403.12 140.62 L 555.47 70.31" stroke="black" fill="transparent"/>
	<path d = "M 452.34 225.00 L 459.38 215.62 L 501.56 201.56 L 595.31 150.00" stroke="black" fill="transparent"/>
	<path d = "M 478.12 297.66 L 543.75 274.22 L 583.59 253.12" stroke="black" fill="transparent"/>
	<path d = "M 503.91 356.25 L 569.53 335.16 L 597.66 316.41" stroke="black" fill="transparent"/>
</svg>