<?xml version="1.0" encoding="UTF-8" standalone="no"?>
<!--Created with ndjsontosvg (https:https://github.com/thompson318/ndjsontosvg) 
	from the simplified Google quickdraw data set. key_id = 6091757492109312-->
<svg width="600" height="600"
	xmlns="http://www.w3.org/2000/svg">
	xmlns:ndjsontosvg="https://github.com/thompson318/ndjsontosvg"
	xmlns:quickdraw="https://quickdraw.withgoogle.com/data"
	xmlns:scikit-surgery="https://doi.org/10.1007/s11548-020-02180-5">

	<rect width="100%" height="100%" fill="white" />
	<path d = "M 494.53 25.78 L 365.62 4.69 L 283.59 0.00 L 192.19 201.56 L 60.94 435.94 L 0.00 529.69 L 389.06 595.31 L 403.12 597.66 L 405.47 534.38 L 414.84 471.09 L 468.75 271.88 L 532.03 91.41 L 539.06 49.22 L 534.38 30.47" stroke="black" fill="transparent"/>
	<path d = "M 379.69 39.84 L 363.28 51.56 L 351.56 75.00 L 351.56 91.41 L 365.62 84.38 L 370.31 67.97 L 363.28 60.94" stroke="black" fill="transparent"/>
	<path d = "M 532.03 51.56 L 487.50 75.00" stroke="black" fill="transparent"/>
	<path d = "M 379.69 206.25 L 335.16 175.78 L 297.66 173.44 L 271.88 189.84 L 260.16 210.94 L 262.50 229.69 L 328.12 262.50 L 421.88 269.53 L 492.19 246.09 L 520.31 217.97 L 517.97 194.53 L 459.38 168.75 L 339.84 159.38" stroke="black" fill="transparent"/>
</svg>