<?xml version="1.0" encoding="UTF-8" standalone="no"?>
<!--Created with ndjsontosvg (https:https://github.com/thompson318/ndjsontosvg) 
	from the simplified Google quickdraw data set. key_id = 6631176850636800-->
<svg width="600" height="600"
	xmlns="http://www.w3.org/2000/svg">
	xmlns:ndjsontosvg="https://github.com/thompson318/ndjsontosvg"
	xmlns:quickdraw="https://quickdraw.withgoogle.com/data"
	xmlns:scikit-surgery="https://doi.org/10.1007/s11548-020-02180-5">

	<rect width="100%" height="100%" fill="white" />
	<path d = "M 370.31 473.44 L 358.59 386.72 L 349.22 2.34 L 4.69 4.69 L 2.34 128.91 L 18.75 360.94 L 11.72 574.22 L 14.06 595.31 L 58.59 597.66 L 182.81 590.62 L 276.56 578.91 L 318.75 564.84 L 365.62 564.84 L 358.59 375.00" stroke="black" fill="transparent"/>
	<path d = "M 86.72 65.62 L 56.25 70.31 L 56.25 96.09 L 93.75 126.56 L 133.59 131.25 L 150.00 112.50 L 145.31 98.44 L 98.44 77.34 L 67.97 72.66" stroke="black" fill="transparent"/>
	<path d = "M 222.66 51.56 L 178.12 86.72 L 241.41 135.94 L 255.47 131.25 L 267.19 89.06 L 260.16 72.66 L 213.28 65.62" stroke="black" fill="transparent"/>
	<path d = "M 114.84 215.62 L 82.03 241.41 L 72.66 285.94 L 77.34 302.34 L 107.81 314.06 L 135.94 290.62 L 135.94 239.06 L 131.25 227.34 L 86.72 217.97" stroke="black" fill="transparent"/>
	<path d = "M 257.81 217.97 L 161.72 222.66 L 157.03 283.59 L 175.78 309.38 L 229.69 344.53 L 281.25 335.16 L 290.62 323.44 L 292.97 309.38 L 274.22 225.00 L 236.72 217.97" stroke="black" fill="transparent"/>
	<path d = "M 152.34 370.31 L 103.12 367.97 L 44.53 393.75 L 39.84 433.59 L 70.31 450.00 L 98.44 452.34 L 119.53 450.00 L 150.00 410.16 L 135.94 375.00 L 100.78 367.97" stroke="black" fill="transparent"/>
	<path d = "M 292.97 396.09 L 250.78 400.78 L 229.69 417.19 L 234.38 442.97 L 262.50 478.12 L 295.31 480.47 L 314.06 461.72 L 318.75 445.31 L 304.69 398.44 L 274.22 375.00 L 255.47 370.31" stroke="black" fill="transparent"/>
</svg>