<?xml version="1.0" encoding="UTF-8" standalone="no"?>
<!--Created with ndjsontosvg (https:https://github.com/thompson318/ndjsontosvg) 
	from the simplified Google quickdraw data set. key_id = 5896765473554432-->
<svg width="600" height="600"
	xmlns="http://www.w3.org/2000/svg">
	xmlns:ndjsontosvg="https://github.com/thompson318/ndjsontosvg"
	xmlns:quickdraw="https://quickdraw.withgoogle.com/data"
	xmlns:scikit-surgery="https://doi.org/10.1007/s11548-020-02180-5">

	<rect width="100%" height="100%" fill="white" />
	<path d = "M 2.34 257.81 L 58.59 283.59 L 107.81 323.44 L 121.88 328.12 L 201.56 292.97 L 318.75 253.12 L 426.56 199.22 L 499.22 135.94 L 560.16 100.78 L 562.50 91.41 L 543.75 63.28 L 520.31 37.50 L 480.47 11.72 L 438.28 0.00 L 412.50 0.00 L 180.47 84.38 L 28.12 157.03 L 0.00 189.84 L 28.12 393.75 L 112.50 407.81 L 114.84 309.38 L 124.22 351.56 L 126.56 419.53 L 133.59 419.53 L 178.12 391.41 L 330.47 337.50 L 532.03 236.72 L 583.59 194.53 L 595.31 168.75 L 595.31 126.56 L 574.22 84.38" stroke="black" fill="transparent"/>
	<path d = "M 452.34 44.53 L 435.94 51.56 L 426.56 75.00 L 452.34 84.38 L 475.78 82.03 L 482.81 77.34 L 485.16 63.28 L 461.72 42.19" stroke="black" fill="transparent"/>
	<path d = "M 330.47 53.91 L 307.03 56.25 L 276.56 79.69 L 276.56 89.06 L 295.31 98.44 L 323.44 100.78 L 332.81 77.34 L 318.75 65.62" stroke="black" fill="transparent"/>
	<path d = "M 379.69 124.22 L 358.59 128.91 L 344.53 159.38 L 360.94 171.09 L 384.38 171.09 L 382.03 133.59" stroke="black" fill="transparent"/>
	<path d = "M 206.25 114.84 L 189.84 117.19 L 192.19 140.62 L 229.69 147.66 L 241.41 124.22 L 234.38 105.47 L 215.62 103.12 L 196.88 114.84" stroke="black" fill="transparent"/>
	<path d = "M 262.50 185.16 L 250.78 196.88 L 250.78 227.34 L 274.22 236.72 L 297.66 232.03 L 316.41 208.59 L 314.06 192.19 L 253.12 189.84" stroke="black" fill="transparent"/>
	<path d = "M 121.88 147.66 L 84.38 166.41 L 72.66 182.81 L 70.31 196.88 L 79.69 206.25 L 98.44 213.28 L 121.88 213.28 L 145.31 206.25 L 154.69 171.09 L 145.31 157.03 L 131.25 154.69" stroke="black" fill="transparent"/>
</svg>