<?xml version="1.0" encoding="UTF-8" standalone="no"?>
<!--Created with ndjsontosvg (https:https://github.com/thompson318/ndjsontosvg) 
	from the simplified Google quickdraw data set. key_id = 5734392154554368-->
<svg width="600" height="600"
	xmlns="http://www.w3.org/2000/svg">
	xmlns:ndjsontosvg="https://github.com/thompson318/ndjsontosvg"
	xmlns:quickdraw="https://quickdraw.withgoogle.com/data"
	xmlns:scikit-surgery="https://doi.org/10.1007/s11548-020-02180-5">

	<rect width="100%" height="100%" fill="white" />
	<path d = "M 4.69 100.78 L 0.00 185.16 L 9.38 292.97 L 30.47 370.31 L 32.81 595.31 L 53.91 595.31 L 124.22 571.88 L 168.75 567.19 L 304.69 567.19 L 314.06 562.50 L 321.09 553.12 L 330.47 175.78 L 314.06 72.66 L 292.97 32.81 L 86.72 44.53 L 11.72 75.00 L 4.69 84.38 L 4.69 105.47 L 9.38 114.84 L 16.41 110.16" stroke="black" fill="transparent"/>
	<path d = "M 128.91 14.06 L 140.62 25.78 L 159.38 23.44 L 152.34 18.75 L 147.66 25.78 L 157.03 32.81 L 166.41 25.78 L 164.06 7.03 L 147.66 0.00 L 140.62 30.47" stroke="black" fill="transparent"/>
</svg>