<?xml version="1.0" encoding="UTF-8" standalone="no"?>
<!--Created with ndjsontosvg (https:https://github.com/thompson318/ndjsontosvg) 
	from the simplified Google quickdraw data set. key_id = 4936907144298496-->
<svg width="600" height="600"
	xmlns="http://www.w3.org/2000/svg">
	xmlns:ndjsontosvg="https://github.com/thompson318/ndjsontosvg"
	xmlns:quickdraw="https://quickdraw.withgoogle.com/data"
	xmlns:scikit-surgery="https://doi.org/10.1007/s11548-020-02180-5">

	<rect width="100%" height="100%" fill="white" />
	<path d = "M 126.56 42.19 L 25.78 75.00 L 0.00 138.28 L 4.69 161.72 L 18.75 173.44 L 82.03 168.75 L 173.44 206.25 L 213.28 229.69 L 128.91 335.16 L 93.75 365.62 L 114.84 353.91 L 243.75 346.88 L 276.56 332.81 L 278.91 325.78 L 267.19 316.41" stroke="black" fill="transparent"/>
	<path d = "M 239.06 307.03 L 255.47 267.19 L 260.16 278.91" stroke="black" fill="transparent"/>
	<path d = "M 260.16 321.09 L 255.47 260.16 L 300.00 309.38 L 353.91 344.53 L 396.09 281.25 L 407.81 330.47 L 438.28 346.88 L 450.00 349.22 L 466.41 342.19 L 496.88 288.28 L 506.25 321.09 L 532.03 332.81 L 555.47 285.94 L 553.12 215.62 L 590.62 210.94 L 597.66 194.53 L 555.47 189.84 L 517.97 164.06 L 487.50 124.22 L 370.31 75.00 L 232.03 46.88 L 192.19 58.59 L 173.44 56.25 L 161.72 39.84 L 157.03 0.00 L 126.56 37.50" stroke="black" fill="transparent"/>
	<path d = "M 30.47 65.62 L 4.69 2.34 L 21.09 23.44 L 89.06 58.59" stroke="black" fill="transparent"/>
	<path d = "M 168.75 72.66 L 173.44 67.97 L 164.06 63.28 L 131.25 75.00 L 173.44 67.97" stroke="black" fill="transparent"/>
	<path d = "M 168.75 65.62 L 168.75 65.62" stroke="black" fill="transparent"/>
</svg>