<?xml version="1.0" encoding="UTF-8" standalone="no"?>
<!--Created with ndjsontosvg (https:https://github.com/thompson318/ndjsontosvg) 
	from the simplified Google quickdraw data set. key_id = 4625472061177856-->
<svg width="600" height="600"
	xmlns="http://www.w3.org/2000/svg">
	xmlns:ndjsontosvg="https://github.com/thompson318/ndjsontosvg"
	xmlns:quickdraw="https://quickdraw.withgoogle.com/data"
	xmlns:scikit-surgery="https://doi.org/10.1007/s11548-020-02180-5">

	<rect width="100%" height="100%" fill="white" />
	<path d = "M 283.59 49.22 L 248.44 39.84 L 117.19 39.84 L 53.91 70.31 L 23.44 114.84 L 2.34 182.81 L 0.00 297.66 L 4.69 304.69 L 37.50 309.38 L 51.56 295.31 L 60.94 192.19 L 138.28 175.78 L 206.25 173.44 L 213.28 182.81 L 206.25 262.50 L 215.62 283.59 L 243.75 311.72 L 292.97 314.06 L 311.72 290.62 L 309.38 241.41 L 295.31 185.16 L 297.66 117.19 L 325.78 117.19 L 450.00 152.34 L 471.09 157.03 L 485.16 150.00 L 503.91 121.88 L 503.91 72.66 L 487.50 32.81 L 454.69 4.69 L 379.69 2.34 L 309.38 23.44 L 276.56 44.53" stroke="black" fill="transparent"/>
	<path d = "M 496.88 44.53 L 597.66 21.09 L 571.88 46.88 L 503.91 70.31" stroke="black" fill="transparent"/>
</svg>