<?xml version="1.0" encoding="UTF-8" standalone="no"?>
<!--Created with ndjsontosvg (https:https://github.com/thompson318/ndjsontosvg) 
	from the simplified Google quickdraw data set. key_id = 4904814221721600-->
<svg width="600" height="600"
	xmlns="http://www.w3.org/2000/svg">
	xmlns:ndjsontosvg="https://github.com/thompson318/ndjsontosvg"
	xmlns:quickdraw="https://quickdraw.withgoogle.com/data"
	xmlns:scikit-surgery="https://doi.org/10.1007/s11548-020-02180-5">

	<rect width="100%" height="100%" fill="white" />
	<path d = "M 79.69 393.75 L 96.09 370.31 L 103.12 297.66 L 117.19 264.84 L 173.44 290.62 L 229.69 370.31 L 250.78 384.38 L 323.44 346.88 L 358.59 318.75 L 403.12 250.78 L 442.97 264.84 L 473.44 304.69 L 501.56 316.41 L 508.59 290.62 L 478.12 257.81 L 478.12 227.34 L 508.59 220.31 L 532.03 196.88 L 546.09 157.03 L 550.78 119.53 L 585.94 107.81 L 597.66 77.34 L 550.78 75.00 L 501.56 84.38 L 457.03 56.25 L 421.88 53.91 L 375.00 124.22 L 328.12 142.97" stroke="black" fill="transparent"/>
	<path d = "M 550.78 67.97 L 574.22 0.00 L 581.25 72.66" stroke="black" fill="transparent"/>
	<path d = "M 325.78 140.62 L 269.53 140.62 L 147.66 164.06 L 53.91 206.25 L 23.44 225.00 L 2.34 278.91 L 4.69 318.75 L 23.44 349.22 L 65.62 391.41" stroke="black" fill="transparent"/>
</svg>