<?xml version="1.0" encoding="UTF-8" standalone="no"?>
<!--Created with ndjsontosvg (https:https://github.com/thompson318/ndjsontosvg) 
	from the simplified Google quickdraw data set. key_id = 6471209145335808-->
<svg width="600" height="600"
	xmlns="http://www.w3.org/2000/svg">
	xmlns:ndjsontosvg="https://github.com/thompson318/ndjsontosvg"
	xmlns:quickdraw="https://quickdraw.withgoogle.com/data"
	xmlns:scikit-surgery="https://doi.org/10.1007/s11548-020-02180-5">

	<rect width="100%" height="100%" fill="white" />
	<path d = "M 592.97 2.34 L 597.66 14.06 L 592.97 30.47 L 576.56 42.19 L 494.53 60.94 L 417.19 58.59 L 246.09 42.19 L 37.50 42.19" stroke="black" fill="transparent"/>
	<path d = "M 567.19 18.75 L 508.59 32.81 L 447.66 37.50 L 112.50 11.72 L 70.31 18.75 L 56.25 39.84 L 53.91 82.03 L 63.28 147.66 L 75.00 175.78" stroke="black" fill="transparent"/>
	<path d = "M 152.34 49.22 L 142.97 75.00 L 112.50 98.44 L 79.69 110.16 L 53.91 110.16" stroke="black" fill="transparent"/>
	<path d = "M 79.69 159.38 L 42.19 159.38 L 28.12 152.34 L 23.44 140.62 L 28.12 82.03 L 0.00 18.75 L 11.72 9.38 L 49.22 0.00" stroke="black" fill="transparent"/>
</svg>