<?xml version="1.0" encoding="UTF-8" standalone="no"?>
<!--Created with ndjsontosvg (https:https://github.com/thompson318/ndjsontosvg) 
	from the simplified Google quickdraw data set. key_id = 5834042559692800-->
<svg width="600" height="600"
	xmlns="http://www.w3.org/2000/svg">
	xmlns:ndjsontosvg="https://github.com/thompson318/ndjsontosvg"
	xmlns:quickdraw="https://quickdraw.withgoogle.com/data"
	xmlns:scikit-surgery="https://doi.org/10.1007/s11548-020-02180-5">

	<rect width="100%" height="100%" fill="white" />
	<path d = "M 147.66 89.06 L 442.97 91.41 L 597.66 114.84 L 592.97 157.03 L 571.88 203.91 L 292.97 180.47 L 159.38 178.12 L 150.00 142.97" stroke="black" fill="transparent"/>
	<path d = "M 140.62 77.34 L 121.88 0.00 L 103.12 4.69 L 39.84 46.88 L 32.81 70.31 L 51.56 107.81 L 11.72 138.28 L 0.00 161.72 L 9.38 264.84 L 18.75 295.31 L 44.53 325.78 L 79.69 344.53 L 103.12 344.53 L 133.59 208.59 L 157.03 164.06" stroke="black" fill="transparent"/>
	<path d = "M 208.59 227.34 L 210.94 241.41 L 161.72 276.56 L 119.53 253.12 L 117.19 239.06" stroke="black" fill="transparent"/>
</svg>