<?xml version="1.0" encoding="UTF-8" standalone="no"?>
<!--Created with ndjsontosvg (https:https://github.com/thompson318/ndjsontosvg) 
	from the simplified Google quickdraw data set. key_id = 4599754304520192-->
<svg width="600" height="600"
	xmlns="http://www.w3.org/2000/svg">
	xmlns:ndjsontosvg="https://github.com/thompson318/ndjsontosvg"
	xmlns:quickdraw="https://quickdraw.withgoogle.com/data"
	xmlns:scikit-surgery="https://doi.org/10.1007/s11548-020-02180-5">

	<rect width="100%" height="100%" fill="white" />
	<path d = "M 11.72 548.44 L 0.00 550.78 L 0.00 539.06 L 14.06 468.75 L 32.81 424.22 L 60.94 400.78 L 126.56 367.97 L 164.06 318.75 L 196.88 248.44 L 253.12 96.09 L 281.25 51.56" stroke="black" fill="transparent"/>
	<path d = "M 187.50 597.66 L 314.06 506.25 L 370.31 438.28 L 386.72 154.69 L 396.09 128.91 L 459.38 46.88 L 478.12 0.00" stroke="black" fill="transparent"/>
	<path d = "M 145.31 501.56 L 175.78 438.28 L 217.97 391.41 L 281.25 241.41 L 318.75 180.47" stroke="black" fill="transparent"/>
	<path d = "M 278.91 457.03 L 292.97 407.81 L 325.78 358.59 L 328.12 292.97 L 349.22 248.44" stroke="black" fill="transparent"/>
</svg>