<?xml version="1.0" encoding="UTF-8" standalone="no"?>
<!--Created with ndjsontosvg (https:https://github.com/thompson318/ndjsontosvg) 
	from the simplified Google quickdraw data set. key_id = 6371854673510400-->
<svg width="600" height="600"
	xmlns="http://www.w3.org/2000/svg">
	xmlns:ndjsontosvg="https://github.com/thompson318/ndjsontosvg"
	xmlns:quickdraw="https://quickdraw.withgoogle.com/data"
	xmlns:scikit-surgery="https://doi.org/10.1007/s11548-020-02180-5">

	<rect width="100%" height="100%" fill="white" />
	<path d = "M 16.41 63.28 L 72.66 9.38 L 117.19 0.00 L 159.38 30.47 L 189.84 117.19 L 210.94 135.94 L 236.72 138.28 L 271.88 117.19 L 304.69 112.50 L 363.28 157.03 L 412.50 93.75 L 438.28 79.69 L 461.72 93.75 L 475.78 138.28 L 520.31 150.00" stroke="black" fill="transparent"/>
	<path d = "M 0.00 187.50 L 44.53 147.66 L 84.38 140.62 L 110.16 157.03 L 168.75 222.66 L 196.88 234.38 L 239.06 234.38 L 288.28 201.56 L 314.06 196.88 L 339.84 201.56 L 421.88 257.81 L 459.38 257.81 L 529.69 222.66 L 557.81 222.66 L 597.66 241.41" stroke="black" fill="transparent"/>
</svg>