<?xml version="1.0" encoding="UTF-8" standalone="no"?>
<!--Created with ndjsontosvg (https:https://github.com/thompson318/ndjsontosvg) 
	from the simplified Google quickdraw data set. key_id = 5730690786131968-->
<svg width="600" height="600"
	xmlns="http://www.w3.org/2000/svg">
	xmlns:ndjsontosvg="https://github.com/thompson318/ndjsontosvg"
	xmlns:quickdraw="https://quickdraw.withgoogle.com/data"
	xmlns:scikit-surgery="https://doi.org/10.1007/s11548-020-02180-5">

	<rect width="100%" height="100%" fill="white" />
	<path d = "M 597.66 0.00 L 536.72 2.34 L 506.25 49.22 L 426.56 72.66 L 405.47 70.31 L 365.62 35.16 L 325.78 18.75 L 269.53 14.06 L 264.84 56.25 L 283.59 100.78 L 292.97 114.84 L 335.16 133.59 L 339.84 142.97 L 335.16 159.38 L 304.69 187.50 L 276.56 187.50 L 243.75 161.72 L 229.69 121.88 L 227.34 82.03 L 213.28 60.94 L 189.84 46.88 L 168.75 58.59 L 150.00 89.06 L 75.00 138.28 L 46.88 150.00 L 0.00 154.69" stroke="black" fill="transparent"/>
	<path d = "M 21.09 182.81 L 86.72 168.75 L 164.06 117.19" stroke="black" fill="transparent"/>
</svg>