<?xml version="1.0" encoding="UTF-8" standalone="no"?>
<!--Created with ndjsontosvg (https:https://github.com/thompson318/ndjsontosvg) 
	from the simplified Google quickdraw data set. key_id = 4743738943340544-->
<svg width="600" height="600"
	xmlns="http://www.w3.org/2000/svg">
	xmlns:ndjsontosvg="https://github.com/thompson318/ndjsontosvg"
	xmlns:quickdraw="https://quickdraw.withgoogle.com/data"
	xmlns:scikit-surgery="https://doi.org/10.1007/s11548-020-02180-5">

	<rect width="100%" height="100%" fill="white" />
	<path d = "M 0.00 485.16 L 25.78 454.69 L 51.56 400.78 L 72.66 335.16 L 121.88 264.84 L 248.44 159.38 L 267.19 152.34 L 318.75 154.69 L 367.97 166.41 L 471.09 239.06 L 536.72 349.22 L 569.53 421.88 L 583.59 494.53 L 597.66 520.31" stroke="black" fill="transparent"/>
	<path d = "M 447.66 225.00 L 510.94 199.22 L 522.66 180.47 L 522.66 138.28 L 466.41 58.59 L 426.56 18.75 L 393.75 4.69 L 360.94 0.00 L 325.78 21.09 L 307.03 65.62 L 307.03 142.97" stroke="black" fill="transparent"/>
	<path d = "M 316.41 79.69 L 253.12 11.72 L 208.59 11.72 L 180.47 25.78 L 152.34 70.31 L 140.62 119.53 L 147.66 168.75 L 178.12 213.28" stroke="black" fill="transparent"/>
	<path d = "M 138.28 96.09 L 119.53 89.06 L 93.75 98.44" stroke="black" fill="transparent"/>
</svg>