<?xml version="1.0" encoding="UTF-8" standalone="no"?>
<!--Created with ndjsontosvg (https:https://github.com/thompson318/ndjsontosvg) 
	from the simplified Google quickdraw data set. key_id = 4790630922321920-->
<svg width="600" height="600"
	xmlns="http://www.w3.org/2000/svg">
	xmlns:ndjsontosvg="https://github.com/thompson318/ndjsontosvg"
	xmlns:quickdraw="https://quickdraw.withgoogle.com/data"
	xmlns:scikit-surgery="https://doi.org/10.1007/s11548-020-02180-5">

	<rect width="100%" height="100%" fill="white" />
	<path d = "M 145.31 135.94 L 150.00 63.28 L 126.56 14.06 L 114.84 4.69 L 35.16 2.34 L 0.00 18.75 L 14.06 185.16 L 14.06 328.12 L 23.44 342.19 L 126.56 346.88 L 227.34 330.47 L 311.72 328.12 L 393.75 311.72 L 506.25 300.00 L 567.19 281.25 L 588.28 262.50 L 597.66 178.12 L 569.53 145.31 L 546.09 128.91 L 445.31 126.56 L 344.53 138.28 L 192.19 142.97 L 168.75 131.25 L 161.72 119.53 L 159.38 72.66" stroke="black" fill="transparent"/>
	<path d = "M 128.91 328.12 L 96.09 337.50 L 77.34 372.66 L 82.03 435.94 L 107.81 459.38 L 140.62 475.78 L 178.12 478.12 L 213.28 468.75 L 236.72 442.97 L 241.41 412.50 L 236.72 384.38 L 173.44 353.91 L 107.81 349.22 L 140.62 360.94" stroke="black" fill="transparent"/>
	<path d = "M 435.94 337.50 L 379.69 335.16 L 353.91 356.25 L 351.56 398.44 L 367.97 419.53 L 400.78 433.59 L 445.31 433.59 L 501.56 412.50 L 564.84 370.31 L 569.53 353.91 L 564.84 339.84 L 492.19 318.75 L 410.16 316.41 L 398.44 330.47" stroke="black" fill="transparent"/>
	<path d = "M 72.66 32.81 L 72.66 18.75 L 112.50 16.41 L 121.88 23.44 L 121.88 49.22 L 105.47 70.31" stroke="black" fill="transparent"/>
	<path d = "M 227.34 96.09 L 199.22 93.75 L 175.78 105.47 L 159.38 131.25 L 159.38 175.78 L 189.84 189.84 L 239.06 192.19 L 248.44 187.50 L 246.09 175.78 L 222.66 159.38 L 248.44 171.09 L 278.91 171.09" stroke="black" fill="transparent"/>
</svg>