<?xml version="1.0" encoding="UTF-8" standalone="no"?>
<!--Created with ndjsontosvg (https:https://github.com/thompson318/ndjsontosvg) 
	from the simplified Google quickdraw data set. key_id = 4950406188761088-->
<svg width="600" height="600"
	xmlns="http://www.w3.org/2000/svg">
	xmlns:ndjsontosvg="https://github.com/thompson318/ndjsontosvg"
	xmlns:quickdraw="https://quickdraw.withgoogle.com/data"
	xmlns:scikit-surgery="https://doi.org/10.1007/s11548-020-02180-5">

	<rect width="100%" height="100%" fill="white" />
	<path d = "M 300.00 346.88 L 367.97 375.00 L 457.03 379.69 L 489.84 367.97 L 522.66 342.19 L 534.38 318.75" stroke="black" fill="transparent"/>
	<path d = "M 288.28 339.84 L 241.41 339.84 L 210.94 360.94 L 107.81 370.31 L 44.53 391.41 L 7.03 426.56 L 0.00 440.62 L 9.38 489.84 L 35.16 520.31 L 100.78 543.75 L 466.41 548.44 L 494.53 536.72 L 522.66 494.53 L 532.03 417.19 L 532.03 300.00" stroke="black" fill="transparent"/>
	<path d = "M 44.53 525.00 L 49.22 585.94 L 98.44 597.66 L 119.53 592.97 L 133.59 576.56 L 131.25 548.44 L 110.16 534.38 L 91.41 527.34 L 44.53 522.66" stroke="black" fill="transparent"/>
	<path d = "M 382.03 539.06 L 382.03 539.06" stroke="black" fill="transparent"/>
	<path d = "M 382.03 539.06 L 375.00 581.25" stroke="black" fill="transparent"/>
	<path d = "M 585.94 501.56 L 592.97 506.25" stroke="black" fill="transparent"/>
	<path d = "M 391.41 527.34 L 375.00 557.81 L 386.72 585.94 L 414.84 581.25 L 424.22 567.19 L 424.22 539.06 L 407.81 527.34 L 386.72 525.00" stroke="black" fill="transparent"/>
	<path d = "M 314.06 330.47 L 307.03 271.88 L 304.69 0.00" stroke="black" fill="transparent"/>
	<path d = "M 492.19 321.09 L 482.81 243.75 L 482.81 16.41" stroke="black" fill="transparent"/>
</svg>