<?xml version="1.0" encoding="UTF-8" standalone="no"?>
<!--Created with ndjsontosvg (https:https://github.com/thompson318/ndjsontosvg) 
	from the simplified Google quickdraw data set. key_id = 5841192879128576-->
<svg width="600" height="600"
	xmlns="http://www.w3.org/2000/svg">
	xmlns:ndjsontosvg="https://github.com/thompson318/ndjsontosvg"
	xmlns:quickdraw="https://quickdraw.withgoogle.com/data"
	xmlns:scikit-surgery="https://doi.org/10.1007/s11548-020-02180-5">

	<rect width="100%" height="100%" fill="white" />
	<path d = "M 173.44 18.75 L 225.00 21.09 L 457.03 9.38 L 499.22 7.03 L 501.56 0.00" stroke="black" fill="transparent"/>
	<path d = "M 152.34 21.09 L 150.00 53.91 L 168.75 105.47 L 180.47 173.44 L 192.19 353.91" stroke="black" fill="transparent"/>
	<path d = "M 196.88 344.53 L 154.69 349.22 L 70.31 372.66 L 23.44 400.78 L 4.69 433.59 L 0.00 501.56 L 4.69 515.62 L 30.47 536.72 L 131.25 543.75 L 215.62 527.34 L 496.88 442.97 L 520.31 426.56 L 525.00 372.66 L 475.78 84.38 L 475.78 60.94 L 487.50 46.88" stroke="black" fill="transparent"/>
	<path d = "M 461.72 461.72 L 431.25 459.38 L 396.09 487.50 L 391.41 534.38 L 410.16 553.12 L 457.03 557.81 L 468.75 546.09 L 473.44 487.50 L 447.66 457.03" stroke="black" fill="transparent"/>
	<path d = "M 189.84 536.72 L 131.25 546.09 L 126.56 581.25 L 159.38 597.66 L 192.19 597.66 L 206.25 585.94 L 220.31 546.09 L 217.97 536.72 L 194.53 529.69" stroke="black" fill="transparent"/>
</svg>