<?xml version="1.0" encoding="UTF-8" standalone="no"?>
<!--Created with ndjsontosvg (https:https://github.com/thompson318/ndjsontosvg) 
	from the simplified Google quickdraw data set. key_id = 6327818981998592-->
<svg width="600" height="600"
	xmlns="http://www.w3.org/2000/svg">
	xmlns:ndjsontosvg="https://github.com/thompson318/ndjsontosvg"
	xmlns:quickdraw="https://quickdraw.withgoogle.com/data"
	xmlns:scikit-surgery="https://doi.org/10.1007/s11548-020-02180-5">

	<rect width="100%" height="100%" fill="white" />
	<path d = "M 597.66 2.34 L 578.91 84.38 L 569.53 236.72 L 546.09 283.59 L 522.66 295.31 L 421.88 307.03 L 213.28 302.34" stroke="black" fill="transparent"/>
	<path d = "M 208.59 302.34 L 89.06 288.28 L 70.31 271.88 L 84.38 232.03 L 110.16 208.59 L 145.31 196.88 L 290.62 192.19 L 365.62 178.12 L 403.12 131.25 L 414.84 32.81 L 412.50 0.00" stroke="black" fill="transparent"/>
	<path d = "M 84.38 363.28 L 107.81 365.62 L 131.25 356.25 L 145.31 335.16 L 147.66 311.72 L 117.19 267.19 L 75.00 239.06 L 56.25 239.06 L 35.16 250.78 L 4.69 297.66 L 0.00 332.81 L 65.62 375.00 L 131.25 377.34" stroke="black" fill="transparent"/>
	<path d = "M 276.56 428.91 L 325.78 403.12 L 337.50 377.34 L 307.03 318.75 L 253.12 281.25 L 220.31 278.91 L 164.06 304.69 L 140.62 321.09 L 117.19 367.97 L 119.53 391.41 L 164.06 414.84 L 192.19 421.88 L 248.44 417.19" stroke="black" fill="transparent"/>
	<path d = "M 459.38 433.59 L 496.88 407.81 L 503.91 365.62 L 473.44 332.81 L 419.53 321.09 L 393.75 339.84 L 379.69 367.97 L 375.00 398.44 L 389.06 417.19 L 419.53 438.28 L 475.78 454.69 L 520.31 450.00 L 553.12 428.91" stroke="black" fill="transparent"/>
</svg>