<?xml version="1.0" encoding="UTF-8" standalone="no"?>
<!--Created with ndjsontosvg (https:https://github.com/thompson318/ndjsontosvg) 
	from the simplified Google quickdraw data set. key_id = 6125062832783360-->
<svg width="600" height="600"
	xmlns="http://www.w3.org/2000/svg">
	xmlns:ndjsontosvg="https://github.com/thompson318/ndjsontosvg"
	xmlns:quickdraw="https://quickdraw.withgoogle.com/data"
	xmlns:scikit-surgery="https://doi.org/10.1007/s11548-020-02180-5">

	<rect width="100%" height="100%" fill="white" />
	<path d = "M 7.03 0.00 L 4.69 77.34 L 16.41 114.84" stroke="black" fill="transparent"/>
	<path d = "M 23.44 89.06 L 16.41 328.12 L 21.09 342.19 L 51.56 367.97 L 126.56 367.97 L 236.72 351.56 L 288.28 356.25 L 379.69 379.69 L 525.00 389.06 L 562.50 372.66 L 585.94 349.22 L 595.31 328.12 L 592.97 292.97 L 574.22 262.50 L 532.03 246.09 L 358.59 234.38 L 229.69 206.25 L 189.84 168.75 L 161.72 121.88 L 147.66 56.25 L 147.66 2.34 L 98.44 7.03 L 0.00 37.50" stroke="black" fill="transparent"/>
	<path d = "M 239.06 393.75 L 210.94 386.72 L 187.50 391.41 L 142.97 414.84 L 142.97 473.44 L 157.03 525.00 L 171.09 541.41 L 203.91 555.47 L 257.81 543.75 L 297.66 517.97 L 332.81 468.75 L 337.50 438.28 L 328.12 398.44 L 297.66 349.22 L 260.16 316.41" stroke="black" fill="transparent"/>
	<path d = "M 515.62 410.16 L 494.53 400.78 L 461.72 400.78 L 405.47 428.91 L 377.34 454.69 L 367.97 496.88 L 384.38 525.00 L 405.47 543.75 L 442.97 557.81 L 482.81 557.81 L 520.31 543.75 L 541.41 515.62 L 550.78 492.19 L 548.44 450.00 L 541.41 433.59 L 529.69 412.50 L 485.16 386.72" stroke="black" fill="transparent"/>
</svg>