<?xml version="1.0" encoding="UTF-8" standalone="no"?>
<!--Created with ndjsontosvg (https:https://github.com/thompson318/ndjsontosvg) 
	from the simplified Google quickdraw data set. key_id = 5489638678462464-->
<svg width="600" height="600"
	xmlns="http://www.w3.org/2000/svg">
	xmlns:ndjsontosvg="https://github.com/thompson318/ndjsontosvg"
	xmlns:quickdraw="https://quickdraw.withgoogle.com/data"
	xmlns:scikit-surgery="https://doi.org/10.1007/s11548-020-02180-5">

	<rect width="100%" height="100%" fill="white" />
	<path d = "M 131.25 403.12 L 103.12 400.78 L 77.34 407.81 L 46.88 426.56 L 25.78 452.34 L 16.41 485.16 L 16.41 525.00 L 28.12 560.16 L 53.91 578.91 L 82.03 562.50 L 93.75 522.66 L 96.09 466.41 L 77.34 405.47" stroke="black" fill="transparent"/>
	<path d = "M 300.00 407.81 L 269.53 412.50 L 239.06 431.25 L 227.34 473.44 L 241.41 534.38 L 276.56 585.94 L 295.31 597.66 L 309.38 597.66 L 328.12 581.25 L 342.19 548.44 L 346.88 508.59 L 328.12 438.28 L 300.00 377.34" stroke="black" fill="transparent"/>
	<path d = "M 4.69 442.97 L 86.72 433.59 L 192.19 400.78 L 332.81 398.44 L 349.22 384.38 L 363.28 353.91 L 375.00 309.38 L 372.66 283.59 L 321.09 246.09 L 194.53 278.91 L 152.34 276.56 L 133.59 264.84 L 124.22 243.75 L 119.53 185.16 L 140.62 49.22 L 105.47 9.38 L 72.66 0.00 L 39.84 7.03 L 16.41 42.19 L 0.00 117.19 L 14.06 457.03" stroke="black" fill="transparent"/>
</svg>