<?xml version="1.0" encoding="UTF-8" standalone="no"?>
<!--Created with ndjsontosvg (https:https://github.com/thompson318/ndjsontosvg) 
	from the simplified Google quickdraw data set. key_id = 4839870310645760-->
<svg width="600" height="600"
	xmlns="http://www.w3.org/2000/svg">
	xmlns:ndjsontosvg="https://github.com/thompson318/ndjsontosvg"
	xmlns:quickdraw="https://quickdraw.withgoogle.com/data"
	xmlns:scikit-surgery="https://doi.org/10.1007/s11548-020-02180-5">

	<rect width="100%" height="100%" fill="white" />
	<path d = "M 25.78 318.75 L 541.41 321.09" stroke="black" fill="transparent"/>
	<path d = "M 21.09 288.28 L 39.84 274.22 L 58.59 290.62 L 82.03 290.62 L 121.88 274.22 L 124.22 290.62 L 138.28 292.97 L 173.44 283.59 L 206.25 288.28 L 229.69 274.22 L 262.50 271.88 L 292.97 288.28 L 384.38 285.94 L 412.50 300.00 L 480.47 311.72 L 510.94 311.72 L 513.28 302.34" stroke="black" fill="transparent"/>
	<path d = "M 16.41 215.62 L 16.41 222.66 L 53.91 208.59 L 60.94 225.00 L 117.19 199.22 L 128.91 215.62 L 166.41 215.62 L 241.41 232.03 L 349.22 285.94 L 382.03 285.94 L 405.47 274.22 L 464.06 269.53 L 555.47 278.91" stroke="black" fill="transparent"/>
	<path d = "M 28.12 236.72 L 145.31 236.72 L 222.66 246.09 L 271.88 264.84 L 365.62 274.22 L 517.97 274.22 L 595.31 285.94 L 595.31 290.62" stroke="black" fill="transparent"/>
	<path d = "M 0.00 166.41 L 56.25 166.41 L 220.31 189.84 L 597.66 189.84 L 595.31 171.09 L 529.69 91.41 L 391.41 16.41 L 325.78 0.00 L 192.19 4.69 L 119.53 16.41 L 98.44 28.12 L 44.53 84.38 L 25.78 166.41 L 0.00 175.78" stroke="black" fill="transparent"/>
	<path d = "M 18.75 304.69 L 16.41 323.44 L 25.78 344.53 L 58.59 358.59 L 213.28 375.00 L 342.19 405.47 L 475.78 412.50" stroke="black" fill="transparent"/>
</svg>