<?xml version="1.0" encoding="UTF-8" standalone="no"?>
<!--Created with ndjsontosvg (https:https://github.com/thompson318/ndjsontosvg) 
	from the simplified Google quickdraw data set. key_id = 5031157949267968-->
<svg width="600" height="600"
	xmlns="http://www.w3.org/2000/svg">
	xmlns:ndjsontosvg="https://github.com/thompson318/ndjsontosvg"
	xmlns:quickdraw="https://quickdraw.withgoogle.com/data"
	xmlns:scikit-surgery="https://doi.org/10.1007/s11548-020-02180-5">

	<rect width="100%" height="100%" fill="white" />
	<path d = "M 67.97 16.41 L 466.41 0.00 L 473.44 67.97 L 431.25 79.69 L 63.28 75.00 L 51.56 56.25 L 53.91 14.06" stroke="black" fill="transparent"/>
	<path d = "M 51.56 253.12 L 321.09 217.97 L 508.59 210.94 L 513.28 248.44 L 499.22 300.00 L 271.88 300.00 L 42.19 332.81 L 56.25 236.72" stroke="black" fill="transparent"/>
	<path d = "M 107.81 157.03 L 86.72 157.03 L 51.56 171.09 L 7.03 201.56 L 4.69 234.38 L 14.06 250.78 L 56.25 264.84 L 353.91 232.03 L 548.44 229.69 L 585.94 225.00 L 597.66 213.28 L 585.94 194.53 L 543.75 178.12 L 478.12 166.41 L 316.41 161.72 L 70.31 166.41" stroke="black" fill="transparent"/>
	<path d = "M 9.38 157.03 L 103.12 128.91 L 199.22 119.53 L 344.53 114.84 L 435.94 124.22 L 585.94 168.75 L 562.50 173.44 L 370.31 152.34 L 2.34 154.69" stroke="black" fill="transparent"/>
	<path d = "M 0.00 121.88 L 325.78 86.72 L 447.66 89.06 L 515.62 103.12 L 527.34 107.81 L 515.62 112.50 L 398.44 117.19 L 196.88 105.47 L 37.50 110.16" stroke="black" fill="transparent"/>
</svg>