<?xml version="1.0" encoding="UTF-8" standalone="no"?>
<!--Created with ndjsontosvg (https:https://github.com/thompson318/ndjsontosvg) 
	from the simplified Google quickdraw data set. key_id = 6461497838403584-->
<svg width="600" height="600"
	xmlns="http://www.w3.org/2000/svg">
	xmlns:ndjsontosvg="https://github.com/thompson318/ndjsontosvg"
	xmlns:quickdraw="https://quickdraw.withgoogle.com/data"
	xmlns:scikit-surgery="https://doi.org/10.1007/s11548-020-02180-5">

	<rect width="100%" height="100%" fill="white" />
	<path d = "M 35.16 421.88 L 110.16 262.50 L 278.91 7.03 L 295.31 0.00 L 311.72 11.72 L 353.91 63.28 L 520.31 302.34 L 576.56 405.47 L 555.47 419.53 L 428.91 440.62 L 196.88 435.94 L 86.72 442.97 L 77.34 438.28" stroke="black" fill="transparent"/>
	<path d = "M 281.25 49.22 L 206.25 28.12 L 201.56 44.53 L 213.28 86.72 L 182.81 91.41 L 173.44 133.59 L 133.59 138.28 L 128.91 164.06 L 142.97 217.97 L 72.66 225.00 L 86.72 276.56 L 25.78 292.97 L 23.44 309.38 L 37.50 342.19 L 56.25 372.66 L 4.69 393.75 L 0.00 410.16 L 11.72 459.38 L 25.78 461.72" stroke="black" fill="transparent"/>
	<path d = "M 332.81 25.78 L 403.12 23.44 L 403.12 63.28 L 393.75 100.78 L 452.34 133.59 L 475.78 166.41 L 517.97 189.84 L 529.69 203.91 L 520.31 250.78 L 564.84 321.09 L 564.84 353.91 L 597.66 400.78 L 576.56 445.31" stroke="black" fill="transparent"/>
	<path d = "M 4.69 482.81 L 4.69 471.09 L 16.41 464.06 L 75.00 478.12 L 147.66 450.00 L 199.22 471.09 L 248.44 461.72 L 297.66 480.47 L 323.44 471.09 L 367.97 421.88 L 494.53 403.12 L 543.75 419.53" stroke="black" fill="transparent"/>
</svg>