<?xml version="1.0" encoding="UTF-8" standalone="no"?>
<!--Created with ndjsontosvg (https:https://github.com/thompson318/ndjsontosvg) 
	from the simplified Google quickdraw data set. key_id = 4833812406075392-->
<svg width="600" height="600"
	xmlns="http://www.w3.org/2000/svg">
	xmlns:ndjsontosvg="https://github.com/thompson318/ndjsontosvg"
	xmlns:quickdraw="https://quickdraw.withgoogle.com/data"
	xmlns:scikit-surgery="https://doi.org/10.1007/s11548-020-02180-5">

	<rect width="100%" height="100%" fill="white" />
	<path d = "M 30.47 161.72 L 53.91 138.28 L 166.41 70.31 L 241.41 58.59 L 314.06 0.00 L 370.31 32.81 L 403.12 63.28 L 424.22 110.16 L 426.56 166.41 L 412.50 234.38 L 400.78 250.78 L 353.91 288.28 L 323.44 297.66 L 307.03 335.16 L 271.88 342.19 L 194.53 342.19 L 131.25 314.06 L 65.62 239.06 L 39.84 164.06" stroke="black" fill="transparent"/>
	<path d = "M 49.22 316.41 L 203.91 370.31 L 295.31 382.03 L 403.12 382.03 L 428.91 365.62 L 473.44 290.62 L 478.12 232.03 L 471.09 199.22" stroke="black" fill="transparent"/>
	<path d = "M 457.03 363.28 L 365.62 440.62 L 264.84 440.62 L 227.34 431.25 L 75.00 335.16" stroke="black" fill="transparent"/>
	<path d = "M 14.06 250.78 L 21.09 328.12 L 65.62 403.12 L 89.06 426.56 L 152.34 464.06 L 232.03 480.47 L 335.16 482.81 L 400.78 466.41 L 473.44 426.56 L 529.69 335.16 L 499.22 534.38 L 480.47 578.91 L 466.41 592.97 L 438.28 597.66 L 318.75 585.94 L 192.19 543.75 L 84.38 499.22 L 60.94 480.47 L 30.47 442.97 L 4.69 386.72 L 0.00 297.66 L 9.38 241.41" stroke="black" fill="transparent"/>
</svg>