<?xml version="1.0" encoding="UTF-8" standalone="no"?>
<!--Created with ndjsontosvg (https:https://github.com/thompson318/ndjsontosvg) 
	from the simplified Google quickdraw data set. key_id = 6224033110556672-->
<svg width="600" height="600"
	xmlns="http://www.w3.org/2000/svg">
	xmlns:ndjsontosvg="https://github.com/thompson318/ndjsontosvg"
	xmlns:quickdraw="https://quickdraw.withgoogle.com/data"
	xmlns:scikit-surgery="https://doi.org/10.1007/s11548-020-02180-5">

	<rect width="100%" height="100%" fill="white" />
	<path d = "M 201.56 236.72 L 150.00 267.19 L 112.50 311.72 L 128.91 318.75" stroke="black" fill="transparent"/>
	<path d = "M 128.91 318.75 L 138.28 316.41 L 192.19 276.56 L 210.94 255.47 L 243.75 292.97 L 264.84 302.34 L 264.84 276.56 L 217.97 210.94 L 189.84 215.62 L 201.56 232.03" stroke="black" fill="transparent"/>
	<path d = "M 213.28 208.59 L 255.47 161.72 L 417.19 35.16 L 459.38 11.72 L 513.28 0.00 L 527.34 7.03 L 597.66 103.12 L 546.09 159.38 L 494.53 105.47 L 517.97 208.59 L 452.34 180.47 L 468.75 222.66 L 386.72 206.25 L 450.00 255.47 L 332.81 239.06 L 414.84 297.66 L 292.97 257.81 L 379.69 316.41 L 316.41 337.50 L 241.41 278.91" stroke="black" fill="transparent"/>
	<path d = "M 201.56 229.69 L 121.88 180.47 L 82.03 171.09 L 39.84 175.78 L 9.38 227.34 L 0.00 297.66 L 16.41 330.47 L 42.19 356.25 L 82.03 379.69 L 147.66 389.06 L 180.47 386.72 L 246.09 363.28 L 164.06 201.56" stroke="black" fill="transparent"/>
	<path d = "M 21.09 227.34 L 21.09 100.78 L 60.94 98.44" stroke="black" fill="transparent"/>
</svg>