<?xml version="1.0" encoding="UTF-8" standalone="no"?>
<!--Created with ndjsontosvg (https:https://github.com/thompson318/ndjsontosvg) 
	from the simplified Google quickdraw data set. key_id = 5300042837524480-->
<svg width="600" height="600"
	xmlns="http://www.w3.org/2000/svg">
	xmlns:ndjsontosvg="https://github.com/thompson318/ndjsontosvg"
	xmlns:quickdraw="https://quickdraw.withgoogle.com/data"
	xmlns:scikit-surgery="https://doi.org/10.1007/s11548-020-02180-5">

	<rect width="100%" height="100%" fill="white" />
	<path d = "M 370.31 117.19 L 349.22 185.16 L 389.06 178.12 L 461.72 194.53 L 457.03 119.53 L 487.50 65.62 L 367.97 117.19" stroke="black" fill="transparent"/>
	<path d = "M 356.25 84.38 L 307.03 199.22 L 496.88 203.91 L 496.88 107.81 L 510.94 56.25 L 539.06 25.78 L 597.66 2.34 L 534.38 7.03 L 414.84 60.94 L 356.25 67.97" stroke="black" fill="transparent"/>
	<path d = "M 356.25 67.97 L 4.69 79.69 L 0.00 199.22 L 60.94 157.03 L 67.97 187.50 L 114.84 161.72 L 121.88 192.19 L 166.41 166.41 L 180.47 196.88 L 229.69 171.09 L 241.41 203.91 L 257.81 187.50 L 269.53 208.59 L 297.66 178.12 L 307.03 203.91" stroke="black" fill="transparent"/>
</svg>