<?xml version="1.0" encoding="UTF-8" standalone="no"?>
<!--Created with ndjsontosvg (https:https://github.com/thompson318/ndjsontosvg) 
	from the simplified Google quickdraw data set. key_id = 6045704189378560-->
<svg width="600" height="600"
	xmlns="http://www.w3.org/2000/svg">
	xmlns:ndjsontosvg="https://github.com/thompson318/ndjsontosvg"
	xmlns:quickdraw="https://quickdraw.withgoogle.com/data"
	xmlns:scikit-surgery="https://doi.org/10.1007/s11548-020-02180-5">

	<rect width="100%" height="100%" fill="white" />
	<path d = "M 35.16 9.38 L 96.09 131.25 L 112.50 300.00 L 126.56 342.19 L 152.34 372.66 L 206.25 410.16 L 253.12 473.44 L 271.88 480.47 L 292.97 478.12 L 344.53 442.97 L 405.47 424.22 L 421.88 414.84 L 438.28 379.69 L 529.69 435.94 L 541.41 454.69 L 532.03 489.84 L 499.22 492.19 L 480.47 485.16 L 468.75 468.75 L 403.12 541.41 L 330.47 562.50 L 290.62 590.62 L 229.69 595.31 L 152.34 548.44 L 117.19 525.00 L 103.12 503.91 L 79.69 393.75 L 56.25 337.50 L 49.22 297.66 L 18.75 243.75 L 0.00 171.09 L 0.00 65.62 L 18.75 0.00" stroke="black" fill="transparent"/>
	<path d = "M 49.22 196.88 L 49.22 171.09 L 110.16 133.59 L 112.50 121.88" stroke="black" fill="transparent"/>
	<path d = "M 56.25 229.69 L 98.44 229.69" stroke="black" fill="transparent"/>
</svg>