<?xml version="1.0" encoding="UTF-8" standalone="no"?>
<!--Created with ndjsontosvg (https:https://github.com/thompson318/ndjsontosvg) 
	from the simplified Google quickdraw data set. key_id = 6150601488465920-->
<svg width="600" height="600"
	xmlns="http://www.w3.org/2000/svg">
	xmlns:ndjsontosvg="https://github.com/thompson318/ndjsontosvg"
	xmlns:quickdraw="https://quickdraw.withgoogle.com/data"
	xmlns:scikit-surgery="https://doi.org/10.1007/s11548-020-02180-5">

	<rect width="100%" height="100%" fill="white" />
	<path d = "M 375.00 105.47 L 419.53 133.59 L 496.88 166.41 L 576.56 178.12 L 592.97 164.06 L 597.66 142.97 L 494.53 93.75 L 426.56 91.41 L 393.75 98.44 L 375.00 110.16 L 372.66 121.88 L 417.19 210.94 L 412.50 267.19 L 393.75 297.66 L 339.84 321.09 L 300.00 330.47 L 248.44 325.78 L 227.34 314.06 L 194.53 264.84 L 154.69 23.44 L 140.62 2.34 L 110.16 0.00 L 96.09 7.03 L 72.66 91.41 L 0.00 117.19 L 37.50 131.25 L 107.81 121.88 L 107.81 131.25" stroke="black" fill="transparent"/>
</svg>