<?xml version="1.0" encoding="UTF-8" standalone="no"?>
<!--Created with ndjsontosvg (https:https://github.com/thompson318/ndjsontosvg) 
	from the simplified Google quickdraw data set. key_id = 5055718048661504-->
<svg width="600" height="600"
	xmlns="http://www.w3.org/2000/svg">
	xmlns:ndjsontosvg="https://github.com/thompson318/ndjsontosvg"
	xmlns:quickdraw="https://quickdraw.withgoogle.com/data"
	xmlns:scikit-surgery="https://doi.org/10.1007/s11548-020-02180-5">

	<rect width="100%" height="100%" fill="white" />
	<path d = "M 503.91 60.94 L 595.31 72.66 L 597.66 65.62 L 564.84 32.81 L 508.59 4.69" stroke="black" fill="transparent"/>
	<path d = "M 513.28 67.97 L 468.75 77.34 L 433.59 100.78 L 414.84 126.56 L 400.78 185.16 L 396.09 295.31" stroke="black" fill="transparent"/>
	<path d = "M 536.72 0.00 L 445.31 14.06 L 414.84 28.12 L 379.69 53.91 L 332.81 107.81 L 302.34 159.38 L 285.94 236.72 L 281.25 290.62 L 260.16 318.75 L 239.06 332.81 L 208.59 328.12 L 171.09 295.31 L 117.19 206.25 L 114.84 180.47" stroke="black" fill="transparent"/>
	<path d = "M 414.84 281.25 L 412.50 316.41 L 400.78 356.25 L 349.22 428.91 L 264.84 471.09 L 234.38 471.09 L 182.81 457.03 L 110.16 419.53 L 79.69 384.38 L 39.84 311.72 L 14.06 217.97 L 46.88 217.97 L 77.34 206.25 L 138.28 157.03 L 100.78 145.31 L 65.62 145.31 L 14.06 166.41 L 0.00 189.84 L 0.00 208.59 L 9.38 229.69 L 25.78 239.06 L 46.88 232.03 L 67.97 182.81 L 67.97 164.06 L 51.56 159.38 L 35.16 171.09 L 30.47 192.19 L 42.19 196.88 L 60.94 185.16 L 65.62 173.44 L 56.25 166.41 L 39.84 173.44 L 25.78 189.84 L 63.28 166.41 L 51.56 152.34 L 42.19 152.34" stroke="black" fill="transparent"/>
	<path d = "M 307.03 262.50 L 255.47 196.88" stroke="black" fill="transparent"/>
	<path d = "M 236.72 225.00 L 236.72 225.00" stroke="black" fill="transparent"/>
</svg>