<?xml version="1.0" encoding="UTF-8" standalone="no"?>
<!--Created with ndjsontosvg (https:https://github.com/thompson318/ndjsontosvg) 
	from the simplified Google quickdraw data set. key_id = 5696878081474560-->
<svg width="600" height="600"
	xmlns="http://www.w3.org/2000/svg">
	xmlns:ndjsontosvg="https://github.com/thompson318/ndjsontosvg"
	xmlns:quickdraw="https://quickdraw.withgoogle.com/data"
	xmlns:scikit-surgery="https://doi.org/10.1007/s11548-020-02180-5">

	<rect width="100%" height="100%" fill="white" />
	<path d = "M 7.03 75.00 L 30.47 21.09 L 60.94 0.00 L 128.91 2.34 L 189.84 37.50 L 210.94 75.00 L 213.28 154.69 L 232.03 264.84 L 264.84 344.53 L 281.25 365.62 L 309.38 382.03 L 367.97 386.72 L 400.78 358.59 L 410.16 335.16 L 412.50 290.62 L 435.94 285.94 L 450.00 292.97 L 478.12 363.28 L 503.91 560.16 L 482.81 588.28 L 461.72 597.66 L 393.75 569.53 L 370.31 506.25 L 276.56 499.22 L 248.44 487.50 L 206.25 440.62 L 168.75 377.34 L 150.00 302.34 L 140.62 180.47 L 114.84 103.12 L 79.69 79.69 L 32.81 77.34 L 7.03 96.09 L 0.00 121.88" stroke="black" fill="transparent"/>
</svg>