<?xml version="1.0" encoding="UTF-8" standalone="no"?>
<!--Created with ndjsontosvg (https:https://github.com/thompson318/ndjsontosvg) 
	from the simplified Google quickdraw data set. key_id = 4831687554891776-->
<svg width="600" height="600"
	xmlns="http://www.w3.org/2000/svg">
	xmlns:ndjsontosvg="https://github.com/thompson318/ndjsontosvg"
	xmlns:quickdraw="https://quickdraw.withgoogle.com/data"
	xmlns:scikit-surgery="https://doi.org/10.1007/s11548-020-02180-5">

	<rect width="100%" height="100%" fill="white" />
	<path d = "M 82.03 473.44 L 89.06 442.97 L 124.22 396.09 L 173.44 389.06 L 201.56 396.09 L 215.62 426.56 L 217.97 473.44 L 196.88 513.28 L 178.12 532.03 L 133.59 536.72 L 119.53 527.34 L 103.12 499.22 L 100.78 466.41" stroke="black" fill="transparent"/>
	<path d = "M 428.91 433.59 L 438.28 400.78 L 461.72 386.72 L 480.47 384.38 L 508.59 412.50 L 522.66 447.66 L 525.00 471.09 L 485.16 503.91 L 445.31 513.28 L 421.88 506.25 L 407.81 478.12 L 407.81 445.31" stroke="black" fill="transparent"/>
	<path d = "M 86.72 360.94 L 107.81 353.91 L 290.62 353.91 L 311.72 358.59 L 323.44 459.38 L 372.66 442.97 L 377.34 316.41 L 428.91 311.72 L 541.41 325.78 L 576.56 285.94 L 588.28 229.69 L 581.25 37.50 L 578.91 16.41 L 567.19 7.03 L 276.56 16.41 L 110.16 7.03 L 23.44 18.75 L 0.00 32.81 L 9.38 42.19 L 32.81 194.53 L 44.53 330.47 L 56.25 351.56 L 75.00 358.59 L 126.56 356.25" stroke="black" fill="transparent"/>
	<path d = "M 23.44 159.38 L 412.50 152.34 L 421.88 145.31 L 426.56 56.25 L 421.88 9.38" stroke="black" fill="transparent"/>
	<path d = "M 426.56 164.06 L 482.81 164.06 L 522.66 152.34 L 597.66 152.34" stroke="black" fill="transparent"/>
	<path d = "M 241.41 18.75 L 236.72 30.47 L 232.03 159.38" stroke="black" fill="transparent"/>
	<path d = "M 121.88 4.69 L 100.78 161.72" stroke="black" fill="transparent"/>
	<path d = "M 297.66 0.00 L 300.00 114.84" stroke="black" fill="transparent"/>
</svg>