<?xml version="1.0" encoding="UTF-8" standalone="no"?>
<!--Created with ndjsontosvg (https:https://github.com/thompson318/ndjsontosvg) 
	from the simplified Google quickdraw data set. key_id = 5555449791250432-->
<svg width="600" height="600"
	xmlns="http://www.w3.org/2000/svg">
	xmlns:ndjsontosvg="https://github.com/thompson318/ndjsontosvg"
	xmlns:quickdraw="https://quickdraw.withgoogle.com/data"
	xmlns:scikit-surgery="https://doi.org/10.1007/s11548-020-02180-5">

	<rect width="100%" height="100%" fill="white" />
	<path d = "M 4.69 234.38 L 0.00 175.78 L 16.41 147.66 L 79.69 138.28 L 135.94 157.03 L 178.12 157.03 L 199.22 119.53 L 206.25 44.53 L 229.69 21.09 L 330.47 4.69 L 578.91 2.34 L 592.97 63.28 L 597.66 206.25 L 571.88 229.69 L 517.97 239.06 L 257.81 246.09 L 105.47 260.16 L 14.06 246.09" stroke="black" fill="transparent"/>
	<path d = "M 196.88 70.31 L 171.09 2.34 L 217.97 42.19" stroke="black" fill="transparent"/>
	<path d = "M 243.75 37.50 L 243.75 131.25 L 302.34 145.31 L 309.38 28.12 L 253.12 35.16" stroke="black" fill="transparent"/>
	<path d = "M 274.22 37.50 L 271.88 126.56" stroke="black" fill="transparent"/>
	<path d = "M 370.31 28.12 L 367.97 98.44 L 424.22 103.12 L 419.53 23.44 L 370.31 30.47" stroke="black" fill="transparent"/>
	<path d = "M 466.41 25.78 L 459.38 100.78 L 522.66 98.44 L 532.03 16.41 L 471.09 11.72" stroke="black" fill="transparent"/>
	<path d = "M 128.91 239.06 L 96.09 246.09 L 46.88 292.97 L 53.91 325.78 L 86.72 335.16 L 161.72 314.06 L 175.78 304.69 L 189.84 281.25 L 182.81 260.16 L 119.53 246.09" stroke="black" fill="transparent"/>
	<path d = "M 417.19 253.12 L 393.75 246.09 L 325.78 260.16 L 300.00 288.28 L 300.00 309.38 L 342.19 316.41 L 382.03 285.94 L 391.41 246.09 L 363.28 236.72" stroke="black" fill="transparent"/>
</svg>