<?xml version="1.0" encoding="UTF-8" standalone="no"?>
<!--Created with ndjsontosvg (https:https://github.com/thompson318/ndjsontosvg) 
	from the simplified Google quickdraw data set. key_id = 5039508980498432-->
<svg width="600" height="600"
	xmlns="http://www.w3.org/2000/svg">
	xmlns:ndjsontosvg="https://github.com/thompson318/ndjsontosvg"
	xmlns:quickdraw="https://quickdraw.withgoogle.com/data"
	xmlns:scikit-surgery="https://doi.org/10.1007/s11548-020-02180-5">

	<rect width="100%" height="100%" fill="white" />
	<path d = "M 91.41 370.31 L 67.97 370.31 L 42.19 396.09 L 16.41 440.62 L 0.00 501.56 L 2.34 527.34 L 14.06 557.81 L 23.44 571.88 L 63.28 585.94 L 112.50 571.88 L 159.38 534.38 L 182.81 494.53 L 194.53 438.28 L 182.81 396.09 L 161.72 372.66 L 114.84 358.59 L 70.31 367.97" stroke="black" fill="transparent"/>
	<path d = "M 257.81 358.59 L 229.69 356.25 L 194.53 367.97 L 180.47 386.72 L 178.12 405.47 L 213.28 560.16 L 248.44 592.97 L 283.59 597.66 L 325.78 585.94 L 375.00 539.06 L 398.44 482.81 L 396.09 438.28 L 370.31 393.75 L 323.44 358.59 L 269.53 346.88 L 227.34 363.28" stroke="black" fill="transparent"/>
	<path d = "M 91.41 379.69 L 63.28 405.47 L 51.56 426.56 L 46.88 494.53 L 58.59 517.97 L 77.34 527.34 L 103.12 520.31 L 119.53 501.56 L 128.91 466.41 L 117.19 419.53 L 98.44 398.44 L 79.69 398.44" stroke="black" fill="transparent"/>
	<path d = "M 260.16 398.44 L 255.47 501.56 L 271.88 557.81 L 292.97 574.22 L 311.72 569.53 L 330.47 550.78 L 339.84 522.66" stroke="black" fill="transparent"/>
	<path d = "M 321.09 431.25 L 297.66 386.72 L 274.22 372.66 L 236.72 382.03 L 208.59 407.81" stroke="black" fill="transparent"/>
	<path d = "M 157.03 367.97 L 180.47 339.84 L 187.50 295.31 L 171.09 150.00 L 142.97 0.00 L 150.00 4.69 L 189.84 53.91 L 213.28 121.88 L 215.62 196.88 L 192.19 400.78" stroke="black" fill="transparent"/>
</svg>