<?xml version="1.0" encoding="UTF-8" standalone="no"?>
<!--Created with ndjsontosvg (https:https://github.com/thompson318/ndjsontosvg) 
	from the simplified Google quickdraw data set. key_id = 6060875435737088-->
<svg width="600" height="600"
	xmlns="http://www.w3.org/2000/svg">
	xmlns:ndjsontosvg="https://github.com/thompson318/ndjsontosvg"
	xmlns:quickdraw="https://quickdraw.withgoogle.com/data"
	xmlns:scikit-surgery="https://doi.org/10.1007/s11548-020-02180-5">

	<rect width="100%" height="100%" fill="white" />
	<path d = "M 128.91 243.75 L 119.53 208.59 L 91.41 180.47 L 77.34 175.78 L 28.12 206.25 L 4.69 243.75 L 0.00 269.53 L 0.00 314.06 L 7.03 337.50 L 16.41 356.25 L 42.19 377.34 L 77.34 386.72 L 147.66 386.72 L 185.16 375.00 L 206.25 351.56 L 210.94 297.66 L 173.44 225.00 L 128.91 189.84" stroke="black" fill="transparent"/>
	<path d = "M 325.78 379.69 L 325.78 365.62 L 309.38 353.91 L 222.66 344.53 L 196.88 349.22 L 161.72 382.03 L 150.00 428.91 L 150.00 466.41 L 164.06 503.91 L 187.50 536.72 L 220.31 550.78 L 262.50 555.47 L 295.31 548.44 L 328.12 520.31 L 349.22 499.22 L 370.31 459.38 L 375.00 431.25 L 370.31 384.38 L 360.94 363.28 L 342.19 353.91" stroke="black" fill="transparent"/>
	<path d = "M 89.06 234.38 L 53.91 278.91 L 51.56 311.72 L 58.59 323.44 L 91.41 323.44 L 112.50 300.00 L 114.84 253.12 L 110.16 236.72 L 91.41 220.31" stroke="black" fill="transparent"/>
	<path d = "M 232.03 389.06 L 225.00 384.38 L 194.53 417.19 L 194.53 459.38 L 213.28 475.78 L 232.03 482.81 L 264.84 482.81 L 288.28 468.75 L 300.00 452.34 L 300.00 403.12 L 278.91 360.94 L 271.88 358.59" stroke="black" fill="transparent"/>
	<path d = "M 206.25 283.59 L 278.91 124.22 L 363.28 18.75 L 386.72 0.00 L 393.75 11.72 L 391.41 46.88 L 351.56 133.59 L 316.41 201.56 L 248.44 311.72 L 236.72 325.78 L 234.38 309.38" stroke="black" fill="transparent"/>
	<path d = "M 217.97 314.06 L 377.34 222.66 L 489.84 180.47 L 590.62 175.78 L 597.66 199.22 L 581.25 225.00 L 480.47 269.53 L 203.91 325.78" stroke="black" fill="transparent"/>
</svg>