<?xml version="1.0" encoding="UTF-8" standalone="no"?>
<!--Created with ndjsontosvg (https:https://github.com/thompson318/ndjsontosvg) 
	from the simplified Google quickdraw data set. key_id = 5063580254732288-->
<svg width="600" height="600"
	xmlns="http://www.w3.org/2000/svg">
	xmlns:ndjsontosvg="https://github.com/thompson318/ndjsontosvg"
	xmlns:quickdraw="https://quickdraw.withgoogle.com/data"
	xmlns:scikit-surgery="https://doi.org/10.1007/s11548-020-02180-5">

	<rect width="100%" height="100%" fill="white" />
	<path d = "M 112.50 2.34 L 75.00 9.38 L 56.25 23.44 L 53.91 37.50 L 75.00 60.94 L 98.44 63.28 L 121.88 56.25 L 145.31 35.16 L 135.94 21.09 L 114.84 11.72" stroke="black" fill="transparent"/>
	<path d = "M 128.91 126.56 L 86.72 98.44 L 28.12 110.16 L 7.03 124.22 L 0.00 140.62 L 2.34 154.69 L 18.75 178.12 L 39.84 187.50 L 86.72 185.16 L 126.56 171.09 L 154.69 145.31" stroke="black" fill="transparent"/>
	<path d = "M 145.31 140.62 L 353.91 63.28 L 548.44 32.81" stroke="black" fill="transparent"/>
	<path d = "M 548.44 32.81 L 525.00 37.50 L 386.72 93.75 L 288.28 117.19 L 210.94 145.31 L 152.34 157.03" stroke="black" fill="transparent"/>
	<path d = "M 135.94 32.81 L 206.25 32.81 L 351.56 53.91 L 503.91 84.38 L 597.66 124.22 L 363.28 117.19 L 107.81 72.66" stroke="black" fill="transparent"/>
</svg>