<?xml version="1.0" encoding="UTF-8" standalone="no"?>
<!--Created with ndjsontosvg (https:https://github.com/thompson318/ndjsontosvg) 
	from the simplified Google quickdraw data set. key_id = 6429069644136448-->
<svg width="600" height="600"
	xmlns="http://www.w3.org/2000/svg">
	xmlns:ndjsontosvg="https://github.com/thompson318/ndjsontosvg"
	xmlns:quickdraw="https://quickdraw.withgoogle.com/data"
	xmlns:scikit-surgery="https://doi.org/10.1007/s11548-020-02180-5">

	<rect width="100%" height="100%" fill="white" />
	<path d = "M 70.31 597.66 L 166.41 487.50 L 250.78 363.28 L 393.75 133.59 L 459.38 7.03 L 468.75 0.00 L 492.19 23.44 L 517.97 82.03 L 517.97 117.19 L 499.22 180.47 L 468.75 227.34 L 412.50 269.53 L 382.03 285.94 L 335.16 285.94" stroke="black" fill="transparent"/>
	<path d = "M 471.09 583.59 L 389.06 494.53 L 271.88 346.88 L 145.31 161.72 L 86.72 89.06 L 42.19 58.59 L 25.78 65.62 L 9.38 96.09 L 0.00 154.69 L 28.12 210.94 L 65.62 239.06 L 93.75 246.09 L 131.25 250.78 L 194.53 239.06" stroke="black" fill="transparent"/>
</svg>