<?xml version="1.0" encoding="UTF-8" standalone="no"?>
<!--Created with ndjsontosvg (https:https://github.com/thompson318/ndjsontosvg) 
	from the simplified Google quickdraw data set. key_id = 5306073281986560-->
<svg width="600" height="600"
	xmlns="http://www.w3.org/2000/svg">
	xmlns:ndjsontosvg="https://github.com/thompson318/ndjsontosvg"
	xmlns:quickdraw="https://quickdraw.withgoogle.com/data"
	xmlns:scikit-surgery="https://doi.org/10.1007/s11548-020-02180-5">

	<rect width="100%" height="100%" fill="white" />
	<path d = "M 203.91 271.88 L 131.25 278.91 L 67.97 257.81 L 32.81 225.00 L 11.72 194.53 L 0.00 138.28 L 4.69 96.09 L 16.41 65.62 L 46.88 18.75 L 65.62 4.69 L 114.84 4.69 L 201.56 56.25" stroke="black" fill="transparent"/>
	<path d = "M 468.75 227.34 L 337.50 217.97 L 267.19 227.34 L 220.31 246.09 L 199.22 274.22 L 199.22 300.00 L 213.28 318.75 L 262.50 328.12 L 391.41 314.06 L 499.22 314.06 L 522.66 309.38 L 527.34 302.34 L 522.66 278.91 L 494.53 255.47 L 426.56 227.34 L 346.88 217.97 L 281.25 220.31" stroke="black" fill="transparent"/>
	<path d = "M 208.59 189.84 L 255.47 227.34" stroke="black" fill="transparent"/>
	<path d = "M 288.28 173.44 L 330.47 210.94" stroke="black" fill="transparent"/>
	<path d = "M 365.62 161.72 L 419.53 222.66" stroke="black" fill="transparent"/>
	<path d = "M 274.22 339.84 L 225.00 370.31" stroke="black" fill="transparent"/>
	<path d = "M 370.31 337.50 L 349.22 335.16 L 335.16 351.56 L 325.78 407.81" stroke="black" fill="transparent"/>
	<path d = "M 452.34 309.38 L 440.62 311.72 L 426.56 328.12 L 414.84 372.66" stroke="black" fill="transparent"/>
	<path d = "M 550.78 213.28 L 532.03 194.53 L 510.94 203.91 L 494.53 236.72 L 496.88 267.19 L 534.38 300.00 L 548.44 302.34 L 576.56 288.28" stroke="black" fill="transparent"/>
	<path d = "M 597.66 243.75 L 578.91 217.97 L 550.78 206.25 L 527.34 199.22 L 492.19 203.91 L 501.56 206.25" stroke="black" fill="transparent"/>
	<path d = "M 576.56 232.03 L 595.31 246.09 L 597.66 267.19 L 581.25 292.97 L 555.47 295.31" stroke="black" fill="transparent"/>
	<path d = "M 150.00 82.03 L 199.22 53.91 L 234.38 21.09 L 246.09 46.88 L 248.44 86.72" stroke="black" fill="transparent"/>
</svg>