<?xml version="1.0" encoding="UTF-8" standalone="no"?>
<!--Created with ndjsontosvg (https:https://github.com/thompson318/ndjsontosvg) 
	from the simplified Google quickdraw data set. key_id = 6511308117639168-->
<svg width="600" height="600"
	xmlns="http://www.w3.org/2000/svg">
	xmlns:ndjsontosvg="https://github.com/thompson318/ndjsontosvg"
	xmlns:quickdraw="https://quickdraw.withgoogle.com/data"
	xmlns:scikit-surgery="https://doi.org/10.1007/s11548-020-02180-5">

	<rect width="100%" height="100%" fill="white" />
	<path d = "M 396.09 330.47 L 269.53 349.22 L 152.34 353.91 L 67.97 330.47 L 37.50 309.38 L 16.41 281.25 L 0.00 232.03 L 2.34 187.50 L 25.78 135.94 L 72.66 75.00 L 150.00 18.75 L 192.19 0.00 L 222.66 4.69 L 257.81 37.50" stroke="black" fill="transparent"/>
	<path d = "M 267.19 51.56 L 206.25 72.66 L 192.19 67.97 L 166.41 30.47" stroke="black" fill="transparent"/>
	<path d = "M 389.06 330.47 L 438.28 309.38 L 461.72 325.78 L 464.06 337.50 L 454.69 344.53 L 438.28 339.84 L 424.22 323.44" stroke="black" fill="transparent"/>
	<path d = "M 346.88 332.81 L 351.56 367.97 L 363.28 403.12 L 389.06 431.25 L 440.62 442.97 L 506.25 414.84" stroke="black" fill="transparent"/>
	<path d = "M 503.91 417.19 L 492.19 407.81 L 494.53 391.41 L 525.00 349.22 L 541.41 342.19 L 543.75 360.94 L 513.28 400.78 L 569.53 407.81 L 597.66 419.53 L 578.91 433.59 L 546.09 431.25 L 501.56 407.81" stroke="black" fill="transparent"/>
	<path d = "M 351.56 339.84 L 351.56 309.38 L 375.00 264.84 L 407.81 239.06 L 461.72 225.00" stroke="black" fill="transparent"/>
	<path d = "M 461.72 227.34 L 496.88 243.75 L 536.72 236.72 L 527.34 225.00 L 503.91 215.62 L 466.41 222.66 L 508.59 196.88 L 513.28 178.12 L 506.25 168.75 L 485.16 166.41 L 466.41 180.47 L 450.00 201.56 L 447.66 220.31" stroke="black" fill="transparent"/>
	<path d = "M 292.97 360.94 L 276.56 396.09 L 267.19 452.34" stroke="black" fill="transparent"/>
	<path d = "M 295.31 349.22 L 262.50 222.66" stroke="black" fill="transparent"/>
	<path d = "M 243.75 370.31 L 138.28 398.44" stroke="black" fill="transparent"/>
</svg>