<?xml version="1.0" encoding="UTF-8" standalone="no"?>
<!--Created with ndjsontosvg (https:https://github.com/thompson318/ndjsontosvg) 
	from the simplified Google quickdraw data set. key_id = 6091711954550784-->
<svg width="600" height="600"
	xmlns="http://www.w3.org/2000/svg">
	xmlns:ndjsontosvg="https://github.com/thompson318/ndjsontosvg"
	xmlns:quickdraw="https://quickdraw.withgoogle.com/data"
	xmlns:scikit-surgery="https://doi.org/10.1007/s11548-020-02180-5">

	<rect width="100%" height="100%" fill="white" />
	<path d = "M 161.72 246.09 L 135.94 225.00 L 93.75 225.00 L 46.88 248.44 L 16.41 271.88 L 2.34 304.69 L 4.69 342.19 L 25.78 363.28 L 63.28 377.34" stroke="black" fill="transparent"/>
	<path d = "M 241.41 304.69 L 283.59 351.56 L 281.25 400.78 L 253.12 426.56 L 217.97 433.59 L 187.50 433.59 L 168.75 410.16" stroke="black" fill="transparent"/>
	<path d = "M 189.84 246.09 L 220.31 229.69 L 264.84 229.69 L 346.88 264.84 L 412.50 269.53 L 459.38 239.06 L 485.16 206.25 L 508.59 157.03 L 508.59 117.19 L 499.22 89.06 L 482.81 70.31 L 454.69 53.91 L 407.81 46.88 L 365.62 53.91 L 351.56 72.66 L 346.88 96.09 L 342.19 89.06" stroke="black" fill="transparent"/>
	<path d = "M 346.88 77.34 L 337.50 63.28 L 342.19 53.91 L 400.78 7.03 L 487.50 0.00 L 520.31 9.38 L 553.12 39.84 L 578.91 82.03 L 590.62 142.97 L 581.25 192.19 L 567.19 222.66 L 534.38 260.16 L 473.44 304.69 L 452.34 314.06 L 365.62 316.41 L 269.53 288.28 L 255.47 288.28 L 241.41 300.00" stroke="black" fill="transparent"/>
	<path d = "M 278.91 255.47 L 278.91 255.47" stroke="black" fill="transparent"/>
	<path d = "M 314.06 255.47 L 332.81 264.84 L 351.56 304.69" stroke="black" fill="transparent"/>
	<path d = "M 403.12 271.88 L 438.28 267.19 L 461.72 276.56" stroke="black" fill="transparent"/>
	<path d = "M 492.19 185.16 L 513.28 173.44 L 555.47 173.44 L 567.19 185.16 L 569.53 201.56" stroke="black" fill="transparent"/>
	<path d = "M 513.28 147.66 L 513.28 124.22 L 529.69 98.44 L 562.50 91.41 L 597.66 96.09" stroke="black" fill="transparent"/>
	<path d = "M 468.75 58.59 L 480.47 35.16 L 515.62 23.44 L 539.06 25.78" stroke="black" fill="transparent"/>
	<path d = "M 159.38 271.88 L 142.97 269.53 L 110.16 295.31 L 103.12 307.03 L 124.22 323.44 L 128.91 318.75 L 103.12 332.81" stroke="black" fill="transparent"/>
	<path d = "M 220.31 290.62 L 215.62 328.12 L 199.22 337.50 L 168.75 344.53 L 164.06 328.12 L 173.44 325.78 L 180.47 325.78 L 185.16 335.16 L 157.03 346.88" stroke="black" fill="transparent"/>
</svg>