<?xml version="1.0" encoding="UTF-8" standalone="no"?>
<!--Created with ndjsontosvg (https:https://github.com/thompson318/ndjsontosvg) 
	from the simplified Google quickdraw data set. key_id = 6437163312873472-->
<svg width="600" height="600"
	xmlns="http://www.w3.org/2000/svg">
	xmlns:ndjsontosvg="https://github.com/thompson318/ndjsontosvg"
	xmlns:quickdraw="https://quickdraw.withgoogle.com/data"
	xmlns:scikit-surgery="https://doi.org/10.1007/s11548-020-02180-5">

	<rect width="100%" height="100%" fill="white" />
	<path d = "M 185.16 227.34 L 182.81 206.25 L 154.69 178.12 L 112.50 154.69 L 49.22 152.34 L 7.03 171.09 L 0.00 182.81 L 25.78 192.19 L 110.16 199.22 L 82.03 208.59 L 14.06 248.44 L 86.72 255.47 L 145.31 246.09 L 154.69 253.12 L 159.38 281.25 L 79.69 309.38 L 82.03 330.47 L 100.78 344.53 L 145.31 351.56 L 189.84 335.16 L 199.22 318.75 L 194.53 281.25 L 166.41 276.56 L 182.81 276.56 L 192.19 288.28 L 192.19 377.34 L 168.75 391.41 L 150.00 417.19 L 112.50 424.22 L 105.47 433.59 L 117.19 442.97 L 154.69 445.31 L 187.50 426.56 L 189.84 464.06 L 154.69 489.84 L 159.38 503.91 L 178.12 510.94 L 229.69 475.78 L 267.19 384.38 L 269.53 363.28 L 281.25 353.91 L 318.75 335.16 L 471.09 285.94 L 546.09 243.75 L 576.56 210.94 L 590.62 173.44 L 597.66 103.12 L 581.25 44.53 L 550.78 21.09 L 520.31 23.44 L 517.97 39.84 L 536.72 56.25 L 508.59 32.81 L 506.25 53.91 L 527.34 53.91 L 550.78 16.41 L 550.78 4.69 L 522.66 0.00 L 517.97 28.12 L 522.66 39.84 L 536.72 42.19 L 539.06 28.12 L 529.69 18.75 L 501.56 9.38 L 513.28 30.47 L 534.38 39.84 L 527.34 56.25 L 527.34 89.06 L 489.84 131.25 L 471.09 168.75 L 405.47 192.19 L 257.81 192.19 L 201.56 208.59 L 192.19 217.97" stroke="black" fill="transparent"/>
</svg>