<?xml version="1.0" encoding="UTF-8" standalone="no"?>
<!--Created with ndjsontosvg (https:https://github.com/thompson318/ndjsontosvg) 
	from the simplified Google quickdraw data set. key_id = 6494611117703168-->
<svg width="600" height="600"
	xmlns="http://www.w3.org/2000/svg">
	xmlns:ndjsontosvg="https://github.com/thompson318/ndjsontosvg"
	xmlns:quickdraw="https://quickdraw.withgoogle.com/data"
	xmlns:scikit-surgery="https://doi.org/10.1007/s11548-020-02180-5">

	<rect width="100%" height="100%" fill="white" />
	<path d = "M 222.66 285.94 L 208.59 271.88 L 166.41 262.50 L 107.81 278.91 L 49.22 351.56 L 44.53 407.81 L 133.59 503.91 L 227.34 515.62 L 300.00 466.41 L 318.75 414.84 L 318.75 365.62 L 311.72 339.84 L 292.97 311.72 L 236.72 285.94 L 187.50 288.28 L 173.44 337.50" stroke="black" fill="transparent"/>
	<path d = "M 318.75 370.31 L 316.41 405.47 L 353.91 445.31 L 379.69 377.34 L 321.09 346.88 L 300.00 365.62 L 316.41 405.47" stroke="black" fill="transparent"/>
	<path d = "M 400.78 377.34 L 391.41 396.09 L 431.25 414.84 L 447.66 405.47 L 442.97 372.66 L 424.22 360.94 L 403.12 360.94 L 389.06 396.09 L 410.16 414.84" stroke="black" fill="transparent"/>
	<path d = "M 489.84 372.66 L 482.81 389.06 L 494.53 403.12 L 515.62 407.81 L 532.03 389.06 L 522.66 358.59 L 492.19 358.59 L 478.12 372.66" stroke="black" fill="transparent"/>
	<path d = "M 138.28 309.38 L 117.19 208.59 L 105.47 187.50 L 32.81 145.31 L 4.69 114.84 L 0.00 51.56 L 21.09 0.00 L 25.78 21.09" stroke="black" fill="transparent"/>
	<path d = "M 103.12 187.50 L 140.62 185.16 L 140.62 178.12" stroke="black" fill="transparent"/>
	<path d = "M 447.66 330.47 L 464.06 342.19 L 539.06 365.62 L 581.25 283.59 L 588.28 250.78 L 588.28 178.12 L 578.91 140.62 L 546.09 110.16 L 515.62 100.78 L 466.41 103.12" stroke="black" fill="transparent"/>
	<path d = "M 466.41 105.47 L 454.69 39.84 L 447.66 30.47 L 454.69 18.75 L 445.31 21.09 L 433.59 60.94 L 440.62 86.72 L 464.06 96.09 L 426.56 114.84 L 424.22 131.25 L 442.97 128.91 L 466.41 105.47 L 461.72 135.94 L 471.09 121.88 L 445.31 187.50" stroke="black" fill="transparent"/>
	<path d = "M 154.69 527.34 L 128.91 536.72 L 117.19 590.62 L 126.56 539.06 L 145.31 510.94 L 107.81 597.66" stroke="black" fill="transparent"/>
	<path d = "M 145.31 541.41 L 145.31 541.41" stroke="black" fill="transparent"/>
</svg>