<?xml version="1.0" encoding="UTF-8" standalone="no"?>
<!--Created with ndjsontosvg (https:https://github.com/thompson318/ndjsontosvg) 
	from the simplified Google quickdraw data set. key_id = 6130809905872896-->
<svg width="600" height="600"
	xmlns="http://www.w3.org/2000/svg">
	xmlns:ndjsontosvg="https://github.com/thompson318/ndjsontosvg"
	xmlns:quickdraw="https://quickdraw.withgoogle.com/data"
	xmlns:scikit-surgery="https://doi.org/10.1007/s11548-020-02180-5">

	<rect width="100%" height="100%" fill="white" />
	<path d = "M 171.09 225.00 L 166.41 178.12 L 180.47 152.34 L 217.97 157.03 L 257.81 180.47 L 307.03 173.44 L 450.00 208.59 L 492.19 210.94 L 515.62 199.22 L 525.00 171.09 L 515.62 124.22 L 499.22 89.06 L 466.41 58.59 L 431.25 42.19 L 377.34 32.81 L 375.00 42.19 L 363.28 49.22 L 328.12 53.91 L 297.66 44.53 L 274.22 28.12 L 267.19 18.75 L 276.56 9.38 L 316.41 14.06 L 375.00 39.84" stroke="black" fill="transparent"/>
	<path d = "M 276.56 28.12 L 225.00 60.94" stroke="black" fill="transparent"/>
	<path d = "M 281.25 11.72 L 398.44 0.00 L 503.91 32.81 L 550.78 79.69 L 581.25 121.88 L 595.31 154.69 L 595.31 192.19 L 585.94 225.00 L 569.53 243.75 L 450.00 281.25 L 410.16 281.25 L 318.75 257.81 L 243.75 255.47" stroke="black" fill="transparent"/>
	<path d = "M 314.06 278.91 L 260.16 335.16 L 234.38 346.88" stroke="black" fill="transparent"/>
	<path d = "M 337.50 295.31 L 330.47 353.91" stroke="black" fill="transparent"/>
	<path d = "M 384.38 304.69 L 393.75 304.69 L 407.81 323.44" stroke="black" fill="transparent"/>
	<path d = "M 450.00 302.34 L 492.19 323.44" stroke="black" fill="transparent"/>
	<path d = "M 534.38 318.75 L 532.03 337.50" stroke="black" fill="transparent"/>
	<path d = "M 257.81 269.53 L 246.09 267.19 L 201.56 295.31 L 124.22 304.69 L 107.81 325.78 L 110.16 335.16 L 121.88 339.84 L 157.03 342.19 L 229.69 316.41 L 269.53 288.28 L 269.53 262.50" stroke="black" fill="transparent"/>
	<path d = "M 173.44 217.97 L 138.28 220.31 L 58.59 199.22 L 9.38 208.59 L 2.34 217.97 L 0.00 232.03 L 32.81 250.78 L 164.06 225.00" stroke="black" fill="transparent"/>
	<path d = "M 154.69 203.91 L 175.78 229.69 L 232.03 253.12" stroke="black" fill="transparent"/>
</svg>