<?xml version="1.0" encoding="UTF-8" standalone="no"?>
<!--Created with ndjsontosvg (https:https://github.com/thompson318/ndjsontosvg) 
	from the simplified Google quickdraw data set. key_id = 5208880894181376-->
<svg width="600" height="600"
	xmlns="http://www.w3.org/2000/svg">
	xmlns:ndjsontosvg="https://github.com/thompson318/ndjsontosvg"
	xmlns:quickdraw="https://quickdraw.withgoogle.com/data"
	xmlns:scikit-surgery="https://doi.org/10.1007/s11548-020-02180-5">

	<rect width="100%" height="100%" fill="white" />
	<path d = "M 208.59 217.97 L 215.62 304.69 L 217.97 239.06 L 206.25 203.91" stroke="black" fill="transparent"/>
	<path d = "M 225.00 248.44 L 232.03 292.97 L 243.75 304.69 L 262.50 271.88 L 267.19 232.03 L 255.47 220.31 L 220.31 208.59" stroke="black" fill="transparent"/>
	<path d = "M 295.31 239.06 L 290.62 307.03 L 314.06 274.22 L 318.75 229.69 L 290.62 222.66 L 253.12 239.06" stroke="black" fill="transparent"/>
	<path d = "M 206.25 246.09 L 98.44 208.59 L 65.62 180.47 L 51.56 135.94 L 49.22 0.00 L 0.00 16.41 L 0.00 23.44 L 42.19 60.94" stroke="black" fill="transparent"/>
	<path d = "M 314.06 220.31 L 314.06 267.19 L 325.78 281.25 L 330.47 267.19 L 328.12 217.97" stroke="black" fill="transparent"/>
	<path d = "M 349.22 236.72 L 353.91 304.69 L 365.62 307.03 L 372.66 239.06 L 365.62 227.34 L 325.78 203.91" stroke="black" fill="transparent"/>
	<path d = "M 375.00 229.69 L 440.62 168.75 L 492.19 103.12 L 534.38 75.00 L 574.22 60.94 L 595.31 60.94 L 595.31 77.34 L 557.81 119.53 L 464.06 178.12 L 405.47 232.03 L 360.94 246.09" stroke="black" fill="transparent"/>
	<path d = "M 379.69 255.47 L 529.69 321.09 L 555.47 342.19 L 564.84 365.62 L 532.03 379.69 L 501.56 384.38 L 461.72 382.03 L 426.56 372.66 L 403.12 360.94 L 370.31 325.78 L 358.59 285.94 L 372.66 285.94" stroke="black" fill="transparent"/>
	<path d = "M 168.75 208.59 L 178.12 264.84 L 196.88 288.28 L 201.56 248.44 L 187.50 215.62" stroke="black" fill="transparent"/>
	<path d = "M 264.84 217.97 L 267.19 271.88 L 283.59 283.59 L 295.31 243.75 L 290.62 199.22" stroke="black" fill="transparent"/>
</svg>