<?xml version="1.0" encoding="UTF-8" standalone="no"?>
<!--Created with ndjsontosvg (https:https://github.com/thompson318/ndjsontosvg) 
	from the simplified Google quickdraw data set. key_id = 5075065936805888-->
<svg width="600" height="600"
	xmlns="http://www.w3.org/2000/svg">
	xmlns:ndjsontosvg="https://github.com/thompson318/ndjsontosvg"
	xmlns:quickdraw="https://quickdraw.withgoogle.com/data"
	xmlns:scikit-surgery="https://doi.org/10.1007/s11548-020-02180-5">

	<rect width="100%" height="100%" fill="white" />
	<path d = "M 133.59 133.59 L 126.56 110.16 L 114.84 93.75 L 72.66 84.38 L 35.16 98.44 L 9.38 119.53 L 0.00 138.28 L 0.00 157.03 L 9.38 164.06 L 67.97 168.75 L 103.12 152.34 L 133.59 121.88" stroke="black" fill="transparent"/>
	<path d = "M 138.28 131.25 L 138.28 112.50 L 159.38 82.03 L 232.03 32.81 L 339.84 0.00 L 417.19 2.34 L 492.19 28.12 L 550.78 65.62 L 574.22 89.06 L 590.62 110.16 L 597.66 138.28 L 597.66 161.72 L 585.94 178.12 L 529.69 215.62 L 431.25 241.41 L 253.12 250.78 L 201.56 250.78 L 159.38 239.06 L 124.22 217.97 L 107.81 199.22 L 100.78 142.97 L 131.25 100.78 L 201.56 67.97" stroke="black" fill="transparent"/>
	<path d = "M 229.69 58.59 L 210.94 257.81" stroke="black" fill="transparent"/>
	<path d = "M 353.91 28.12 L 304.69 232.03" stroke="black" fill="transparent"/>
	<path d = "M 447.66 4.69 L 417.19 180.47 L 414.84 199.22 L 424.22 215.62" stroke="black" fill="transparent"/>
	<path d = "M 480.47 39.84 L 468.75 152.34 L 454.69 201.56" stroke="black" fill="transparent"/>
	<path d = "M 82.03 175.78 L 321.09 121.88 L 424.22 110.16 L 543.75 107.81" stroke="black" fill="transparent"/>
	<path d = "M 117.19 227.34 L 328.12 180.47 L 576.56 164.06" stroke="black" fill="transparent"/>
	<path d = "M 192.19 267.19 L 189.84 292.97 L 222.66 356.25 L 283.59 435.94 L 274.22 393.75 L 278.91 339.84 L 309.38 285.94 L 342.19 262.50" stroke="black" fill="transparent"/>
	<path d = "M 393.75 262.50 L 405.47 311.72 L 438.28 363.28 L 468.75 391.41 L 445.31 325.78 L 466.41 250.78 L 503.91 206.25" stroke="black" fill="transparent"/>
</svg>