<?xml version="1.0" encoding="UTF-8" standalone="no"?>
<!--Created with ndjsontosvg (https:https://github.com/thompson318/ndjsontosvg) 
	from the simplified Google quickdraw data set. key_id = 6602725410209792-->
<svg width="600" height="600"
	xmlns="http://www.w3.org/2000/svg">
	xmlns:ndjsontosvg="https://github.com/thompson318/ndjsontosvg"
	xmlns:quickdraw="https://quickdraw.withgoogle.com/data"
	xmlns:scikit-surgery="https://doi.org/10.1007/s11548-020-02180-5">

	<rect width="100%" height="100%" fill="white" />
	<path d = "M 166.41 103.12 L 96.09 75.00 L 63.28 72.66 L 30.47 86.72 L 4.69 110.16 L 0.00 145.31 L 18.75 166.41 L 56.25 175.78 L 119.53 168.75" stroke="black" fill="transparent"/>
	<path d = "M 159.38 103.12 L 332.81 44.53 L 400.78 32.81 L 482.81 84.38 L 532.03 150.00 L 553.12 213.28 L 548.44 267.19 L 520.31 304.69 L 482.81 323.44 L 417.19 335.16 L 339.84 337.50 L 248.44 302.34 L 182.81 260.16 L 152.34 229.69 L 124.22 171.09" stroke="black" fill="transparent"/>
	<path d = "M 201.56 91.41 L 201.56 23.44 L 210.94 4.69 L 222.66 0.00 L 236.72 60.94" stroke="black" fill="transparent"/>
	<path d = "M 457.03 75.00 L 525.00 44.53 L 595.31 35.16 L 595.31 67.97 L 576.56 91.41 L 539.06 112.50 L 506.25 117.19" stroke="black" fill="transparent"/>
	<path d = "M 503.91 311.72 L 517.97 349.22 L 517.97 382.03 L 510.94 398.44 L 494.53 405.47 L 473.44 410.16 L 452.34 393.75 L 438.28 335.16" stroke="black" fill="transparent"/>
	<path d = "M 164.06 236.72 L 121.88 250.78 L 98.44 264.84 L 91.41 288.28 L 112.50 297.66 L 182.81 297.66 L 239.06 246.09" stroke="black" fill="transparent"/>
	<path d = "M 77.34 96.09 L 70.31 98.44" stroke="black" fill="transparent"/>
</svg>