<?xml version="1.0" encoding="UTF-8" standalone="no"?>
<!--Created with ndjsontosvg (https:https://github.com/thompson318/ndjsontosvg) 
	from the simplified Google quickdraw data set. key_id = 5139899491549184-->
<svg width="600" height="600"
	xmlns="http://www.w3.org/2000/svg">
	xmlns:ndjsontosvg="https://github.com/thompson318/ndjsontosvg"
	xmlns:quickdraw="https://quickdraw.withgoogle.com/data"
	xmlns:scikit-surgery="https://doi.org/10.1007/s11548-020-02180-5">

	<rect width="100%" height="100%" fill="white" />
	<path d = "M 377.34 70.31 L 323.44 75.00 L 271.88 98.44 L 201.56 157.03 L 161.72 201.56 L 119.53 271.88 L 107.81 314.06 L 117.19 379.69 L 135.94 400.78 L 187.50 410.16 L 281.25 382.03 L 342.19 339.84 L 410.16 253.12 L 447.66 166.41 L 442.97 107.81 L 398.44 56.25 L 353.91 42.19 L 337.50 49.22" stroke="black" fill="transparent"/>
	<path d = "M 379.69 56.25 L 386.72 30.47 L 400.78 16.41 L 454.69 0.00 L 471.09 16.41 L 471.09 35.16 L 431.25 84.38" stroke="black" fill="transparent"/>
	<path d = "M 454.69 145.31 L 508.59 157.03 L 567.19 157.03 L 597.66 173.44 L 588.28 180.47 L 553.12 187.50 L 452.34 178.12" stroke="black" fill="transparent"/>
	<path d = "M 300.00 72.66 L 243.75 25.78 L 201.56 21.09 L 171.09 25.78 L 178.12 42.19 L 210.94 72.66 L 271.88 98.44" stroke="black" fill="transparent"/>
	<path d = "M 114.84 314.06 L 84.38 318.75 L 63.28 332.81 L 30.47 365.62 L 0.00 414.84 L 14.06 421.88 L 56.25 407.81 L 84.38 384.38 L 93.75 358.59 L 100.78 353.91" stroke="black" fill="transparent"/>
	<path d = "M 323.44 339.84 L 360.94 398.44 L 400.78 410.16 L 407.81 393.75 L 396.09 356.25 L 370.31 318.75 L 358.59 318.75" stroke="black" fill="transparent"/>
	<path d = "M 283.59 103.12 L 337.50 133.59 L 428.91 220.31" stroke="black" fill="transparent"/>
	<path d = "M 227.34 161.72 L 344.53 269.53 L 379.69 285.94" stroke="black" fill="transparent"/>
	<path d = "M 152.34 260.16 L 208.59 300.00 L 290.62 384.38 L 307.03 391.41" stroke="black" fill="transparent"/>
</svg>