<?xml version="1.0" encoding="UTF-8" standalone="no"?>
<!--Created with ndjsontosvg (https:https://github.com/thompson318/ndjsontosvg) 
	from the simplified Google quickdraw data set. key_id = 4751015234502656-->
<svg width="600" height="600"
	xmlns="http://www.w3.org/2000/svg">
	xmlns:ndjsontosvg="https://github.com/thompson318/ndjsontosvg"
	xmlns:quickdraw="https://quickdraw.withgoogle.com/data"
	xmlns:scikit-surgery="https://doi.org/10.1007/s11548-020-02180-5">

	<rect width="100%" height="100%" fill="white" />
	<path d = "M 63.28 100.78 L 100.78 117.19 L 147.66 124.22 L 222.66 164.06 L 339.84 203.91 L 499.22 236.72 L 466.41 314.06 L 457.03 314.06 L 424.22 311.72 L 292.97 253.12 L 152.34 225.00 L 53.91 187.50 L 58.59 100.78" stroke="black" fill="transparent"/>
	<path d = "M 84.38 2.34 L 60.94 0.00 L 51.56 7.03 L 35.16 28.12 L 30.47 51.56 L 35.16 63.28 L 53.91 70.31 L 91.41 58.59 L 103.12 25.78 L 77.34 9.38" stroke="black" fill="transparent"/>
	<path d = "M 77.34 70.31 L 84.38 199.22" stroke="black" fill="transparent"/>
	<path d = "M 70.31 86.72 L 0.00 189.84" stroke="black" fill="transparent"/>
	<path d = "M 93.75 82.03 L 171.09 126.56" stroke="black" fill="transparent"/>
	<path d = "M 79.69 175.78 L 39.84 260.16" stroke="black" fill="transparent"/>
	<path d = "M 84.38 187.50 L 121.88 215.62 L 150.00 255.47" stroke="black" fill="transparent"/>
	<path d = "M 517.97 166.41 L 485.16 166.41 L 452.34 206.25 L 442.97 257.81 L 454.69 267.19 L 487.50 267.19 L 503.91 257.81 L 536.72 215.62 L 534.38 199.22 L 506.25 164.06" stroke="black" fill="transparent"/>
	<path d = "M 489.84 262.50 L 471.09 375.00" stroke="black" fill="transparent"/>
	<path d = "M 492.19 269.53 L 424.22 290.62 L 379.69 316.41 L 351.56 358.59 L 351.56 375.00" stroke="black" fill="transparent"/>
	<path d = "M 492.19 253.12 L 522.66 253.12 L 550.78 276.56 L 578.91 316.41 L 597.66 370.31" stroke="black" fill="transparent"/>
	<path d = "M 473.44 339.84 L 431.25 377.34 L 396.09 419.53" stroke="black" fill="transparent"/>
	<path d = "M 475.78 342.19 L 534.38 389.06 L 574.22 438.28" stroke="black" fill="transparent"/>
</svg>