<?xml version="1.0" encoding="UTF-8" standalone="no"?>
<!--Created with ndjsontosvg (https:https://github.com/thompson318/ndjsontosvg) 
	from the simplified Google quickdraw data set. key_id = 6033199857664000-->
<svg width="600" height="600"
	xmlns="http://www.w3.org/2000/svg">
	xmlns:ndjsontosvg="https://github.com/thompson318/ndjsontosvg"
	xmlns:quickdraw="https://quickdraw.withgoogle.com/data"
	xmlns:scikit-surgery="https://doi.org/10.1007/s11548-020-02180-5">

	<rect width="100%" height="100%" fill="white" />
	<path d = "M 49.22 124.22 L 4.69 140.62 L 0.00 168.75 L 7.03 173.44 L 39.84 171.09 L 58.59 152.34 L 65.62 128.91 L 32.81 121.88" stroke="black" fill="transparent"/>
	<path d = "M 567.19 0.00 L 529.69 9.38 L 517.97 35.16 L 567.19 39.84 L 590.62 28.12 L 597.66 7.03 L 557.81 2.34" stroke="black" fill="transparent"/>
	<path d = "M 522.66 35.16 L 234.38 86.72 L 103.12 119.53 L 60.94 135.94" stroke="black" fill="transparent"/>
	<path d = "M 300.00 288.28 L 300.00 217.97 L 314.06 150.00 L 314.06 77.34 L 396.09 75.00 L 379.69 318.75" stroke="black" fill="transparent"/>
	<path d = "M 89.06 124.22 L 96.09 91.41 L 63.28 89.06" stroke="black" fill="transparent"/>
	<path d = "M 471.09 42.19 L 473.44 4.69 L 513.28 0.00" stroke="black" fill="transparent"/>
</svg>