<?xml version="1.0" encoding="UTF-8" standalone="no"?>
<!--Created with ndjsontosvg (https:https://github.com/thompson318/ndjsontosvg) 
	from the simplified Google quickdraw data set. key_id = 5326142359732224-->
<svg width="600" height="600"
	xmlns="http://www.w3.org/2000/svg">
	xmlns:ndjsontosvg="https://github.com/thompson318/ndjsontosvg"
	xmlns:quickdraw="https://quickdraw.withgoogle.com/data"
	xmlns:scikit-surgery="https://doi.org/10.1007/s11548-020-02180-5">

	<rect width="100%" height="100%" fill="white" />
	<path d = "M 91.41 0.00 L 53.91 11.72 L 35.16 35.16 L 37.50 58.59 L 51.56 77.34 L 89.06 93.75" stroke="black" fill="transparent"/>
	<path d = "M 82.03 86.72 L 0.00 145.31" stroke="black" fill="transparent"/>
	<path d = "M 9.38 142.97 L 112.50 159.38 L 166.41 182.81 L 157.03 194.53 L 35.16 276.56" stroke="black" fill="transparent"/>
	<path d = "M 35.16 276.56 L 82.03 307.03 L 161.72 325.78 L 335.16 349.22 L 461.72 335.16 L 536.72 309.38 L 574.22 283.59 L 585.94 267.19 L 578.91 262.50 L 499.22 253.12 L 494.53 246.09 L 508.59 222.66 L 529.69 210.94 L 597.66 138.28 L 590.62 133.59 L 464.06 168.75 L 382.03 175.78" stroke="black" fill="transparent"/>
	<path d = "M 384.38 166.41 L 382.03 11.72 L 307.03 103.12 L 292.97 152.34" stroke="black" fill="transparent"/>
	<path d = "M 295.31 147.66 L 241.41 152.34 L 91.41 107.81" stroke="black" fill="transparent"/>
</svg>