<?xml version="1.0" encoding="UTF-8" standalone="no"?>
<!--Created with ndjsontosvg (https:https://github.com/thompson318/ndjsontosvg) 
	from the simplified Google quickdraw data set. key_id = 4749020612263936-->
<svg width="600" height="600"
	xmlns="http://www.w3.org/2000/svg">
	xmlns:ndjsontosvg="https://github.com/thompson318/ndjsontosvg"
	xmlns:quickdraw="https://quickdraw.withgoogle.com/data"
	xmlns:scikit-surgery="https://doi.org/10.1007/s11548-020-02180-5">

	<rect width="100%" height="100%" fill="white" />
	<path d = "M 360.94 126.56 L 426.56 23.44 L 452.34 0.00 L 459.38 39.84 L 447.66 145.31" stroke="black" fill="transparent"/>
	<path d = "M 356.25 133.59 L 217.97 159.38 L 2.34 189.84" stroke="black" fill="transparent"/>
	<path d = "M 16.41 187.50 L 21.09 213.28 L 65.62 318.75 L 126.56 225.00 L 150.00 304.69 L 159.38 307.03 L 166.41 300.00 L 189.84 250.78 L 210.94 239.06 L 217.97 243.75 L 225.00 257.81 L 217.97 300.00" stroke="black" fill="transparent"/>
	<path d = "M 0.00 185.16 L 2.34 264.84 L 16.41 309.38 L 30.47 339.84 L 67.97 379.69 L 105.47 400.78 L 147.66 407.81 L 234.38 407.81" stroke="black" fill="transparent"/>
	<path d = "M 248.44 403.12 L 302.34 459.38 L 321.09 471.09 L 328.12 464.06 L 330.47 431.25 L 304.69 379.69" stroke="black" fill="transparent"/>
	<path d = "M 330.47 400.78 L 377.34 403.12 L 438.28 372.66 L 527.34 278.91 L 597.66 178.12" stroke="black" fill="transparent"/>
</svg>