<?xml version="1.0" encoding="UTF-8" standalone="no"?>
<!--Created with ndjsontosvg (https:https://github.com/thompson318/ndjsontosvg) 
	from the simplified Google quickdraw data set. key_id = 5326519599628288-->
<svg width="600" height="600"
	xmlns="http://www.w3.org/2000/svg">
	xmlns:ndjsontosvg="https://github.com/thompson318/ndjsontosvg"
	xmlns:quickdraw="https://quickdraw.withgoogle.com/data"
	xmlns:scikit-surgery="https://doi.org/10.1007/s11548-020-02180-5">

	<rect width="100%" height="100%" fill="white" />
	<path d = "M 23.44 145.31 L 51.56 110.16 L 86.72 96.09 L 147.66 93.75 L 248.44 112.50" stroke="black" fill="transparent"/>
	<path d = "M 21.09 147.66 L 11.72 173.44 L 0.00 180.47 L 11.72 189.84 L 46.88 199.22 L 84.38 178.12" stroke="black" fill="transparent"/>
	<path d = "M 182.81 107.81 L 264.84 65.62 L 360.94 0.00 L 323.44 67.97 L 325.78 98.44 L 342.19 126.56 L 335.16 124.22" stroke="black" fill="transparent"/>
	<path d = "M 196.88 103.12 L 253.12 112.50 L 419.53 112.50 L 461.72 121.88" stroke="black" fill="transparent"/>
	<path d = "M 56.25 189.84 L 133.59 217.97 L 239.06 222.66 L 321.09 215.62 L 398.44 192.19 L 464.06 178.12" stroke="black" fill="transparent"/>
	<path d = "M 428.91 110.16 L 482.81 112.50 L 597.66 192.19 L 398.44 189.84" stroke="black" fill="transparent"/>
</svg>