<?xml version="1.0" encoding="UTF-8" standalone="no"?>
<!--Created with ndjsontosvg (https:https://github.com/thompson318/ndjsontosvg) 
	from the simplified Google quickdraw data set. key_id = 5952509971529728-->
<svg width="600" height="600"
	xmlns="http://www.w3.org/2000/svg">
	xmlns:ndjsontosvg="https://github.com/thompson318/ndjsontosvg"
	xmlns:quickdraw="https://quickdraw.withgoogle.com/data"
	xmlns:scikit-surgery="https://doi.org/10.1007/s11548-020-02180-5">

	<rect width="100%" height="100%" fill="white" />
	<path d = "M 128.91 51.56 L 60.94 100.78 L 9.38 157.03 L 0.00 225.00 L 14.06 234.38 L 164.06 250.78 L 225.00 246.09 L 342.19 229.69 L 386.72 210.94 L 396.09 199.22" stroke="black" fill="transparent"/>
	<path d = "M 117.19 63.28 L 246.09 21.09 L 370.31 0.00 L 393.75 7.03 L 410.16 18.75 L 438.28 82.03" stroke="black" fill="transparent"/>
	<path d = "M 452.34 79.69 L 464.06 75.00" stroke="black" fill="transparent"/>
	<path d = "M 457.03 72.66 L 555.47 49.22 L 567.19 49.22 L 571.88 60.94" stroke="black" fill="transparent"/>
	<path d = "M 379.69 182.81 L 529.69 133.59 L 555.47 159.38 L 571.88 161.72" stroke="black" fill="transparent"/>
	<path d = "M 548.44 51.56 L 592.97 2.34 L 597.66 11.72 L 578.91 128.91 L 578.91 225.00" stroke="black" fill="transparent"/>
	<path d = "M 548.44 58.59 L 548.44 58.59" stroke="black" fill="transparent"/>
	<path d = "M 513.28 72.66 L 557.81 70.31" stroke="black" fill="transparent"/>
	<path d = "M 529.69 89.06 L 536.72 91.41" stroke="black" fill="transparent"/>
	<path d = "M 175.78 42.19 L 175.78 42.19" stroke="black" fill="transparent"/>
	<path d = "M 70.31 128.91 L 49.22 203.91 L 114.84 152.34" stroke="black" fill="transparent"/>
</svg>