<?xml version="1.0" encoding="UTF-8" standalone="no"?>
<!--Created with ndjsontosvg (https:https://github.com/thompson318/ndjsontosvg) 
	from the simplified Google quickdraw data set. key_id = 4973697125318656-->
<svg width="600" height="600"
	xmlns="http://www.w3.org/2000/svg">
	xmlns:ndjsontosvg="https://github.com/thompson318/ndjsontosvg"
	xmlns:quickdraw="https://quickdraw.withgoogle.com/data"
	xmlns:scikit-surgery="https://doi.org/10.1007/s11548-020-02180-5">

	<rect width="100%" height="100%" fill="white" />
	<path d = "M 82.03 4.69 L 4.69 67.97 L 0.00 117.19 L 18.75 121.88 L 39.84 117.19 L 72.66 82.03 L 121.88 56.25 L 124.22 72.66 L 103.12 124.22 L 119.53 128.91 L 110.16 142.97 L 117.19 157.03 L 157.03 154.69 L 140.62 168.75 L 140.62 180.47 L 150.00 185.16 L 138.28 189.84 L 140.62 208.59 L 166.41 210.94 L 180.47 201.56 L 168.75 206.25 L 154.69 232.03 L 154.69 267.19 L 164.06 271.88 L 175.78 262.50 L 178.12 246.09 L 175.78 253.12 L 182.81 262.50 L 210.94 262.50 L 234.38 250.78 L 260.16 278.91 L 274.22 274.22 L 281.25 255.47 L 304.69 274.22 L 323.44 269.53 L 342.19 255.47 L 382.03 257.81 L 398.44 229.69 L 440.62 250.78 L 452.34 250.78 L 464.06 236.72 L 503.91 243.75 L 508.59 192.19 L 534.38 206.25 L 553.12 168.75 L 553.12 145.31 L 541.41 128.91 L 557.81 77.34 L 555.47 67.97 L 532.03 67.97 L 541.41 46.88" stroke="black" fill="transparent"/>
	<path d = "M 541.41 63.28 L 581.25 60.94 L 597.66 28.12 L 564.84 18.75 L 532.03 21.09" stroke="black" fill="transparent"/>
	<path d = "M 539.06 21.09 L 525.00 4.69 L 501.56 4.69 L 478.12 28.12 L 492.19 4.69 L 466.41 2.34 L 433.59 14.06 L 419.53 25.78 L 428.91 11.72 L 419.53 2.34 L 386.72 2.34 L 337.50 39.84 L 321.09 70.31 L 325.78 70.31 L 346.88 44.53 L 353.91 18.75 L 330.47 14.06 L 290.62 44.53 L 253.12 89.06 L 248.44 98.44 L 257.81 96.09 L 271.88 79.69 L 269.53 70.31 L 248.44 70.31 L 213.28 91.41 L 203.91 117.19 L 227.34 119.53 L 232.03 107.81 L 225.00 98.44 L 203.91 96.09 L 178.12 117.19 L 175.78 142.97 L 180.47 135.94 L 173.44 128.91 L 147.66 131.25 L 147.66 159.38" stroke="black" fill="transparent"/>
</svg>