<?xml version="1.0" encoding="UTF-8" standalone="no"?>
<!--Created with ndjsontosvg (https:https://github.com/thompson318/ndjsontosvg) 
	from the simplified Google quickdraw data set. key_id = 5308894660263936-->
<svg width="600" height="600"
	xmlns="http://www.w3.org/2000/svg">
	xmlns:ndjsontosvg="https://github.com/thompson318/ndjsontosvg"
	xmlns:quickdraw="https://quickdraw.withgoogle.com/data"
	xmlns:scikit-surgery="https://doi.org/10.1007/s11548-020-02180-5">

	<rect width="100%" height="100%" fill="white" />
	<path d = "M 337.50 30.47 L 278.91 0.00 L 255.47 0.00 L 208.59 56.25 L 192.19 39.84 L 168.75 35.16 L 124.22 79.69 L 72.66 79.69 L 51.56 91.41 L 18.75 166.41 L 0.00 332.81 L 30.47 349.22 L 65.62 384.38 L 166.41 379.69 L 213.28 433.59 L 260.16 435.94 L 295.31 417.19 L 323.44 414.84 L 379.69 424.22 L 400.78 412.50 L 506.25 269.53 L 520.31 278.91 L 557.81 246.09 L 595.31 196.88 L 595.31 110.16 L 574.22 72.66 L 513.28 53.91 L 433.59 9.38 L 360.94 9.38" stroke="black" fill="transparent"/>
	<path d = "M 103.12 269.53 L 89.06 325.78 L 86.72 510.94 L 138.28 513.28 L 168.75 525.00 L 152.34 454.69 L 171.09 290.62" stroke="black" fill="transparent"/>
	<path d = "M 419.53 227.34 L 414.84 405.47 L 428.91 459.38 L 513.28 457.03 L 536.72 471.09 L 513.28 435.94 L 496.88 382.03 L 485.16 278.91" stroke="black" fill="transparent"/>
</svg>