<?xml version="1.0" encoding="UTF-8" standalone="no"?>
<!--Created with ndjsontosvg (https:https://github.com/thompson318/ndjsontosvg) 
	from the simplified Google quickdraw data set. key_id = 5296058315833344-->
<svg width="600" height="600"
	xmlns="http://www.w3.org/2000/svg">
	xmlns:ndjsontosvg="https://github.com/thompson318/ndjsontosvg"
	xmlns:quickdraw="https://quickdraw.withgoogle.com/data"
	xmlns:scikit-surgery="https://doi.org/10.1007/s11548-020-02180-5">

	<rect width="100%" height="100%" fill="white" />
	<path d = "M 199.22 309.38 L 182.81 304.69 L 126.56 260.16 L 117.19 217.97 L 124.22 210.94 L 147.66 208.59 L 126.56 210.94 L 75.00 185.16 L 65.62 178.12 L 70.31 152.34 L 107.81 138.28 L 180.47 126.56 L 187.50 86.72 L 225.00 60.94 L 262.50 63.28 L 288.28 100.78 L 337.50 70.31 L 384.38 65.62 L 407.81 79.69 L 475.78 63.28 L 525.00 63.28 L 548.44 98.44 L 543.75 152.34 L 588.28 178.12 L 597.66 208.59 L 550.78 234.38 L 492.19 250.78 L 494.53 297.66 L 466.41 330.47 L 421.88 335.16 L 396.09 325.78 L 384.38 344.53 L 339.84 344.53 L 278.91 297.66 L 271.88 314.06 L 253.12 314.06 L 157.03 246.09 L 175.78 271.88 L 166.41 276.56 L 124.22 236.72" stroke="black" fill="transparent"/>
	<path d = "M 98.44 145.31 L 30.47 131.25 L 18.75 119.53 L 18.75 100.78 L 28.12 82.03 L 60.94 49.22 L 82.03 37.50 L 117.19 44.53 L 189.84 100.78 L 192.19 128.91 L 182.81 154.69 L 175.78 157.03 L 164.06 138.28" stroke="black" fill="transparent"/>
	<path d = "M 35.16 70.31 L 25.78 70.31 L 11.72 56.25 L 2.34 39.84 L 2.34 21.09 L 37.50 16.41 L 51.56 2.34 L 67.97 0.00 L 79.69 16.41 L 75.00 42.19" stroke="black" fill="transparent"/>
	<path d = "M 121.88 42.19 L 133.59 14.06 L 175.78 7.03 L 178.12 23.44 L 168.75 37.50 L 168.75 58.59 L 154.69 70.31" stroke="black" fill="transparent"/>
	<path d = "M 180.47 281.25 L 171.09 325.78 L 182.81 393.75 L 171.09 442.97" stroke="black" fill="transparent"/>
	<path d = "M 278.91 304.69 L 276.56 379.69" stroke="black" fill="transparent"/>
</svg>