<?xml version="1.0" encoding="UTF-8" standalone="no"?>
<!--Created with ndjsontosvg (https:https://github.com/thompson318/ndjsontosvg) 
	from the simplified Google quickdraw data set. key_id = 6731519802474496-->
<svg width="600" height="600"
	xmlns="http://www.w3.org/2000/svg">
	xmlns:ndjsontosvg="https://github.com/thompson318/ndjsontosvg"
	xmlns:quickdraw="https://quickdraw.withgoogle.com/data"
	xmlns:scikit-surgery="https://doi.org/10.1007/s11548-020-02180-5">

	<rect width="100%" height="100%" fill="white" />
	<path d = "M 171.09 300.00 L 124.22 297.66 L 96.09 278.91 L 82.03 255.47 L 84.38 210.94 L 105.47 185.16 L 128.91 173.44 L 173.44 180.47 L 182.81 189.84 L 192.19 210.94 L 187.50 255.47 L 150.00 304.69" stroke="black" fill="transparent"/>
	<path d = "M 42.19 220.31 L 16.41 234.38 L 7.03 248.44 L 0.00 288.28 L 18.75 314.06 L 60.94 325.78 L 46.88 367.97 L 49.22 384.38 L 70.31 410.16 L 117.19 414.84 L 157.03 391.41 L 210.94 393.75 L 271.88 377.34 L 328.12 379.69 L 396.09 363.28" stroke="black" fill="transparent"/>
	<path d = "M 28.12 220.31 L 18.75 215.62 L 16.41 196.88 L 23.44 142.97 L 37.50 117.19 L 72.66 91.41 L 98.44 84.38 L 124.22 93.75 L 229.69 18.75 L 274.22 7.03 L 309.38 9.38 L 318.75 25.78 L 323.44 63.28 L 353.91 32.81 L 389.06 11.72 L 428.91 0.00 L 468.75 4.69 L 515.62 28.12 L 532.03 51.56 L 525.00 70.31 L 590.62 121.88 L 597.66 152.34 L 592.97 173.44 L 581.25 201.56 L 546.09 234.38 L 553.12 283.59 L 541.41 316.41 L 464.06 349.22 L 440.62 351.56 L 400.78 342.19" stroke="black" fill="transparent"/>
	<path d = "M 257.81 379.69 L 260.16 426.56" stroke="black" fill="transparent"/>
	<path d = "M 442.97 337.50 L 447.66 414.84" stroke="black" fill="transparent"/>
	<path d = "M 119.53 225.00 L 117.19 225.00" stroke="black" fill="transparent"/>
	<path d = "M 166.41 217.97 L 166.41 217.97" stroke="black" fill="transparent"/>
	<path d = "M 225.00 410.16 L 243.75 457.03 L 271.88 410.16" stroke="black" fill="transparent"/>
	<path d = "M 417.19 360.94 L 414.84 379.69 L 433.59 421.88 L 447.66 421.88" stroke="black" fill="transparent"/>
	<path d = "M 217.97 166.41 L 229.69 159.38 L 253.12 168.75 L 264.84 248.44 L 295.31 257.81 L 311.72 253.12 L 332.81 239.06 L 353.91 208.59 L 309.38 225.00" stroke="black" fill="transparent"/>
</svg>