<?xml version="1.0" encoding="UTF-8" standalone="no"?>
<!--Created with ndjsontosvg (https:https://github.com/thompson318/ndjsontosvg) 
	from the simplified Google quickdraw data set. key_id = 5801863641300992-->
<svg width="600" height="600"
	xmlns="http://www.w3.org/2000/svg">
	xmlns:ndjsontosvg="https://github.com/thompson318/ndjsontosvg"
	xmlns:quickdraw="https://quickdraw.withgoogle.com/data"
	xmlns:scikit-surgery="https://doi.org/10.1007/s11548-020-02180-5">

	<rect width="100%" height="100%" fill="white" />
	<path d = "M 107.81 77.34 L 30.47 114.84 L 2.34 164.06 L 4.69 220.31 L 18.75 248.44 L 32.81 264.84 L 63.28 278.91 L 28.12 332.81 L 23.44 358.59 L 39.84 410.16 L 58.59 431.25 L 121.88 466.41 L 192.19 475.78 L 234.38 461.72 L 253.12 447.66 L 276.56 489.84 L 295.31 501.56 L 346.88 506.25 L 403.12 487.50 L 452.34 457.03 L 475.78 419.53 L 478.12 386.72 L 508.59 407.81 L 517.97 407.81 L 555.47 386.72 L 574.22 363.28 L 597.66 274.22 L 585.94 229.69 L 567.19 199.22 L 515.62 166.41 L 471.09 161.72 L 464.06 147.66 L 464.06 91.41 L 454.69 51.56 L 435.94 21.09 L 405.47 4.69 L 370.31 0.00 L 342.19 9.38 L 321.09 21.09 L 300.00 49.22 L 257.81 21.09 L 203.91 16.41 L 150.00 30.47 L 98.44 56.25 L 67.97 82.03" stroke="black" fill="transparent"/>
	<path d = "M 281.25 150.00 L 311.72 126.56 L 339.84 124.22 L 375.00 145.31 L 396.09 175.78 L 405.47 217.97 L 400.78 234.38 L 389.06 262.50 L 346.88 290.62 L 316.41 278.91 L 307.03 267.19 L 330.47 234.38 L 335.16 203.91 L 321.09 171.09 L 297.66 154.69" stroke="black" fill="transparent"/>
	<path d = "M 269.53 126.56 L 217.97 114.84 L 168.75 126.56 L 131.25 154.69 L 124.22 168.75 L 124.22 208.59 L 157.03 239.06 L 203.91 255.47 L 253.12 253.12 L 297.66 239.06" stroke="black" fill="transparent"/>
	<path d = "M 124.22 124.22 L 70.31 154.69 L 46.88 187.50 L 58.59 241.41 L 86.72 269.53 L 121.88 278.91 L 152.34 276.56 L 152.34 260.16 L 126.56 239.06 L 112.50 210.94 L 112.50 182.81 L 150.00 140.62" stroke="black" fill="transparent"/>
	<path d = "M 173.44 161.72 L 192.19 173.44" stroke="black" fill="transparent"/>
	<path d = "M 250.78 161.72 L 253.12 171.09" stroke="black" fill="transparent"/>
	<path d = "M 112.50 466.41 L 121.88 541.41 L 138.28 553.12 L 168.75 553.12 L 178.12 536.72 L 187.50 464.06" stroke="black" fill="transparent"/>
	<path d = "M 424.22 473.44 L 433.59 529.69 L 457.03 539.06 L 480.47 536.72 L 489.84 496.88 L 485.16 447.66" stroke="black" fill="transparent"/>
	<path d = "M 243.75 475.78 L 236.72 515.62 L 241.41 569.53 L 297.66 555.47 L 318.75 501.56" stroke="black" fill="transparent"/>
</svg>