<?xml version="1.0" encoding="UTF-8" standalone="no"?>
<!--Created with ndjsontosvg (https:https://github.com/thompson318/ndjsontosvg) 
	from the simplified Google quickdraw data set. key_id = 6117693407100928-->
<svg width="600" height="600"
	xmlns="http://www.w3.org/2000/svg">
	xmlns:ndjsontosvg="https://github.com/thompson318/ndjsontosvg"
	xmlns:quickdraw="https://quickdraw.withgoogle.com/data"
	xmlns:scikit-surgery="https://doi.org/10.1007/s11548-020-02180-5">

	<rect width="100%" height="100%" fill="white" />
	<path d = "M 32.81 107.81 L 32.81 96.09 L 77.34 51.56 L 119.53 18.75 L 164.06 0.00 L 203.91 11.72 L 234.38 46.88 L 250.78 25.78 L 267.19 46.88 L 309.38 30.47 L 323.44 60.94 L 332.81 63.28 L 339.84 79.69 L 356.25 86.72 L 367.97 100.78 L 400.78 114.84 L 445.31 107.81 L 459.38 46.88 L 489.84 9.38 L 508.59 0.00 L 539.06 9.38 L 574.22 39.84 L 597.66 93.75 L 597.66 112.50 L 585.94 135.94 L 574.22 145.31 L 569.53 135.94 L 569.53 166.41 L 534.38 187.50 L 506.25 189.84 L 471.09 178.12 L 438.28 147.66 L 372.66 152.34 L 367.97 164.06 L 365.62 311.72 L 360.94 323.44 L 300.00 321.09 L 290.62 314.06 L 300.00 269.53 L 292.97 157.03 L 215.62 203.91 L 222.66 314.06 L 187.50 278.91 L 164.06 227.34 L 157.03 199.22 L 175.78 152.34 L 142.97 173.44 L 124.22 208.59 L 124.22 250.78 L 138.28 295.31 L 126.56 297.66 L 107.81 288.28 L 84.38 264.84 L 77.34 232.03 L 84.38 173.44 L 49.22 292.97 L 37.50 304.69 L 16.41 297.66 L 2.34 278.91 L 0.00 243.75 L 9.38 199.22 L 44.53 138.28 L 30.47 107.81" stroke="black" fill="transparent"/>
	<path d = "M 126.56 63.28 L 107.81 84.38 L 110.16 93.75 L 117.19 86.72" stroke="black" fill="transparent"/>
	<path d = "M 180.47 103.12 L 189.84 105.47" stroke="black" fill="transparent"/>
</svg>