<?xml version="1.0" encoding="UTF-8" standalone="no"?>
<!--Created with ndjsontosvg (https:https://github.com/thompson318/ndjsontosvg) 
	from the simplified Google quickdraw data set. key_id = 5215098396213248-->
<svg width="600" height="600"
	xmlns="http://www.w3.org/2000/svg">
	xmlns:ndjsontosvg="https://github.com/thompson318/ndjsontosvg"
	xmlns:quickdraw="https://quickdraw.withgoogle.com/data"
	xmlns:scikit-surgery="https://doi.org/10.1007/s11548-020-02180-5">

	<rect width="100%" height="100%" fill="white" />
	<path d = "M 262.50 243.75 L 295.31 208.59 L 356.25 196.88 L 358.59 222.66 L 377.34 229.69 L 487.50 220.31 L 501.56 260.16 L 562.50 248.44 L 574.22 260.16 L 595.31 344.53 L 597.66 335.16 L 592.97 400.78 L 546.09 403.12 L 534.38 377.34 L 496.88 424.22 L 482.81 410.16 L 447.66 337.50 L 435.94 339.84 L 398.44 396.09 L 360.94 433.59 L 330.47 356.25 L 318.75 349.22 L 264.84 349.22 L 217.97 365.62 L 196.88 346.88 L 182.81 346.88 L 128.91 377.34 L 103.12 377.34 L 49.22 358.59 L 30.47 339.84 L 7.03 304.69 L 0.00 264.84 L 0.00 171.09 L 18.75 152.34 L 96.09 124.22 L 206.25 124.22 L 229.69 133.59 L 236.72 145.31 L 243.75 225.00" stroke="black" fill="transparent"/>
	<path d = "M 243.75 225.00 L 253.12 246.09" stroke="black" fill="transparent"/>
	<path d = "M 133.59 119.53 L 147.66 77.34 L 210.94 16.41 L 253.12 0.00 L 267.19 9.38 L 269.53 44.53 L 262.50 60.94 L 250.78 77.34 L 185.16 112.50" stroke="black" fill="transparent"/>
	<path d = "M 189.84 112.50 L 234.38 103.12 L 325.78 67.97" stroke="black" fill="transparent"/>
</svg>