<?xml version="1.0" encoding="UTF-8" standalone="no"?>
<!--Created with ndjsontosvg (https:https://github.com/thompson318/ndjsontosvg) 
	from the simplified Google quickdraw data set. key_id = 5533790422171648-->
<svg width="600" height="600"
	xmlns="http://www.w3.org/2000/svg">
	xmlns:ndjsontosvg="https://github.com/thompson318/ndjsontosvg"
	xmlns:quickdraw="https://quickdraw.withgoogle.com/data"
	xmlns:scikit-surgery="https://doi.org/10.1007/s11548-020-02180-5">

	<rect width="100%" height="100%" fill="white" />
	<path d = "M 65.62 0.00 L 63.28 21.09 L 49.22 28.12 L 28.12 96.09 L 30.47 142.97 L 23.44 168.75 L 18.75 166.41 L 11.72 180.47 L 11.72 255.47 L 0.00 292.97 L 14.06 318.75 L 86.72 351.56 L 128.91 358.59 L 225.00 351.56 L 269.53 360.94 L 300.00 351.56 L 379.69 351.56 L 478.12 332.81 L 560.16 297.66 L 581.25 274.22 L 597.66 201.56 L 588.28 180.47 L 550.78 159.38 L 417.19 147.66 L 372.66 166.41 L 292.97 182.81 L 206.25 180.47 L 168.75 154.69 L 159.38 157.03 L 131.25 96.09 L 119.53 28.12 L 79.69 18.75" stroke="black" fill="transparent"/>
	<path d = "M 250.78 168.75 L 243.75 145.31 L 248.44 168.75 L 241.41 210.94" stroke="black" fill="transparent"/>
	<path d = "M 421.88 147.66 L 435.94 161.72" stroke="black" fill="transparent"/>
	<path d = "M 464.06 117.19 L 473.44 159.38" stroke="black" fill="transparent"/>
</svg>