<?xml version="1.0" encoding="UTF-8" standalone="no"?>
<!--Created with ndjsontosvg (https:https://github.com/thompson318/ndjsontosvg) 
	from the simplified Google quickdraw data set. key_id = 4917424950345728-->
<svg width="600" height="600"
	xmlns="http://www.w3.org/2000/svg">
	xmlns:ndjsontosvg="https://github.com/thompson318/ndjsontosvg"
	xmlns:quickdraw="https://quickdraw.withgoogle.com/data"
	xmlns:scikit-surgery="https://doi.org/10.1007/s11548-020-02180-5">

	<rect width="100%" height="100%" fill="white" />
	<path d = "M 0.00 30.47 L 14.06 236.72 L 7.03 452.34 L 18.75 489.84 L 75.00 513.28 L 215.62 527.34 L 424.22 489.84 L 562.50 485.16" stroke="black" fill="transparent"/>
	<path d = "M 35.16 2.34 L 86.72 0.00 L 96.09 2.34 L 105.47 16.41 L 112.50 124.22 L 105.47 227.34 L 117.19 248.44 L 145.31 248.44 L 288.28 222.66 L 321.09 225.00 L 539.06 267.19 L 567.19 292.97 L 588.28 335.16 L 597.66 442.97 L 585.94 485.16 L 569.53 499.22 L 527.34 503.91" stroke="black" fill="transparent"/>
	<path d = "M 208.59 236.72 L 283.59 290.62 L 307.03 297.66" stroke="black" fill="transparent"/>
	<path d = "M 323.44 243.75 L 283.59 304.69" stroke="black" fill="transparent"/>
	<path d = "M 309.38 304.69 L 386.72 314.06 L 421.88 309.38" stroke="black" fill="transparent"/>
	<path d = "M 407.81 264.84 L 384.38 311.72" stroke="black" fill="transparent"/>
</svg>