<?xml version="1.0" encoding="UTF-8" standalone="no"?>
<!--Created with ndjsontosvg (https:https://github.com/thompson318/ndjsontosvg) 
	from the simplified Google quickdraw data set. key_id = 6119970779955200-->
<svg width="600" height="600"
	xmlns="http://www.w3.org/2000/svg">
	xmlns:ndjsontosvg="https://github.com/thompson318/ndjsontosvg"
	xmlns:quickdraw="https://quickdraw.withgoogle.com/data"
	xmlns:scikit-surgery="https://doi.org/10.1007/s11548-020-02180-5">

	<rect width="100%" height="100%" fill="white" />
	<path d = "M 307.03 82.03 L 304.69 100.78 L 283.59 124.22 L 194.53 164.06 L 30.47 166.41 L 9.38 206.25 L 0.00 283.59 L 11.72 300.00 L 185.16 346.88 L 349.22 358.59 L 576.56 283.59 L 592.97 260.16 L 597.66 208.59 L 597.66 180.47 L 581.25 147.66 L 569.53 77.34 L 499.22 107.81 L 452.34 105.47 L 372.66 70.31 L 363.28 53.91 L 367.97 39.84 L 398.44 14.06 L 426.56 2.34 L 506.25 7.03 L 571.88 35.16 L 569.53 79.69" stroke="black" fill="transparent"/>
	<path d = "M 370.31 58.59 L 285.94 72.66" stroke="black" fill="transparent"/>
</svg>