<?xml version="1.0" encoding="UTF-8" standalone="no"?>
<!--Created with ndjsontosvg (https:https://github.com/thompson318/ndjsontosvg) 
	from the simplified Google quickdraw data set. key_id = 5438734210170880-->
<svg width="600" height="600"
	xmlns="http://www.w3.org/2000/svg">
	xmlns:ndjsontosvg="https://github.com/thompson318/ndjsontosvg"
	xmlns:quickdraw="https://quickdraw.withgoogle.com/data"
	xmlns:scikit-surgery="https://doi.org/10.1007/s11548-020-02180-5">

	<rect width="100%" height="100%" fill="white" />
	<path d = "M 0.00 487.50 L 114.84 506.25 L 128.91 508.59 L 142.97 499.22 L 157.03 435.94 L 203.91 384.38 L 243.75 304.69 L 288.28 260.16 L 307.03 210.94 L 316.41 239.06 L 358.59 288.28 L 375.00 330.47 L 384.38 412.50 L 386.72 525.00 L 424.22 532.03 L 489.84 525.00 L 578.91 501.56 L 597.66 459.38 L 564.84 363.28 L 555.47 309.38 L 555.47 161.72 L 546.09 18.75 L 492.19 0.00 L 428.91 0.00 L 349.22 14.06 L 269.53 44.53 L 100.78 84.38 L 89.06 96.09 L 75.00 161.72 L 23.44 243.75 L 4.69 328.12 L 0.00 452.34" stroke="black" fill="transparent"/>
</svg>