<?xml version="1.0" encoding="UTF-8" standalone="no"?>
<!--Created with ndjsontosvg (https:https://github.com/thompson318/ndjsontosvg) 
	from the simplified Google quickdraw data set. key_id = 6727541018591232-->
<svg width="600" height="600"
	xmlns="http://www.w3.org/2000/svg">
	xmlns:ndjsontosvg="https://github.com/thompson318/ndjsontosvg"
	xmlns:quickdraw="https://quickdraw.withgoogle.com/data"
	xmlns:scikit-surgery="https://doi.org/10.1007/s11548-020-02180-5">

	<rect width="100%" height="100%" fill="white" />
	<path d = "M 0.00 77.34 L 25.78 541.41 L 44.53 522.66 L 161.72 517.97 L 178.12 510.94 L 182.81 339.84 L 173.44 292.97 L 168.75 442.97 L 187.50 597.66 L 203.91 578.91 L 253.12 557.81 L 267.19 543.75" stroke="black" fill="transparent"/>
	<path d = "M 168.75 508.59 L 250.78 522.66 L 389.06 478.12 L 375.00 440.62 L 353.91 309.38 L 307.03 171.09 L 314.06 53.91 L 304.69 7.03 L 285.94 0.00 L 213.28 28.12 L 159.38 28.12 L 89.06 49.22 L 82.03 58.59 L 7.03 51.56 L 0.00 56.25" stroke="black" fill="transparent"/>
	<path d = "M 63.28 67.97 L 39.84 206.25 L 21.09 264.84 L 9.38 283.59" stroke="black" fill="transparent"/>
	<path d = "M 222.66 32.81 L 250.78 117.19 L 267.19 140.62" stroke="black" fill="transparent"/>
</svg>