<?xml version="1.0" encoding="UTF-8" standalone="no"?>
<!--Created with ndjsontosvg (https:https://github.com/thompson318/ndjsontosvg) 
	from the simplified Google quickdraw data set. key_id = 4809216403439616-->
<svg width="600" height="600"
	xmlns="http://www.w3.org/2000/svg">
	xmlns:ndjsontosvg="https://github.com/thompson318/ndjsontosvg"
	xmlns:quickdraw="https://quickdraw.withgoogle.com/data"
	xmlns:scikit-surgery="https://doi.org/10.1007/s11548-020-02180-5">

	<rect width="100%" height="100%" fill="white" />
	<path d = "M 206.25 128.91 L 161.72 119.53 L 142.97 98.44 L 135.94 65.62 L 168.75 25.78 L 229.69 0.00 L 276.56 7.03 L 377.34 56.25 L 386.72 72.66 L 389.06 103.12 L 360.94 128.91 L 295.31 131.25 L 264.84 140.62 L 257.81 171.09 L 210.94 248.44 L 159.38 367.97 L 112.50 442.97 L 131.25 489.84 L 166.41 534.38 L 152.34 560.16 L 128.91 583.59 L 86.72 597.66 L 11.72 595.31 L 0.00 571.88 L 4.69 489.84 L 46.88 452.34 L 28.12 445.31 L 21.09 426.56 L 49.22 405.47 L 119.53 391.41 L 135.94 372.66" stroke="black" fill="transparent"/>
</svg>