<?xml version="1.0" encoding="UTF-8" standalone="no"?>
<!--Created with ndjsontosvg (https:https://github.com/thompson318/ndjsontosvg) 
	from the simplified Google quickdraw data set. key_id = 5886821013651456-->
<svg width="600" height="600"
	xmlns="http://www.w3.org/2000/svg">
	xmlns:ndjsontosvg="https://github.com/thompson318/ndjsontosvg"
	xmlns:quickdraw="https://quickdraw.withgoogle.com/data"
	xmlns:scikit-surgery="https://doi.org/10.1007/s11548-020-02180-5">

	<rect width="100%" height="100%" fill="white" />
	<path d = "M 93.75 119.53 L 82.03 112.50 L 4.69 110.16 L 0.00 79.69 L 28.12 35.16 L 60.94 16.41 L 110.16 0.00 L 150.00 2.34 L 194.53 28.12 L 217.97 53.91 L 239.06 100.78 L 131.25 114.84" stroke="black" fill="transparent"/>
	<path d = "M 65.62 79.69 L 67.97 70.31 L 84.38 53.91 L 128.91 42.19 L 159.38 82.03" stroke="black" fill="transparent"/>
	<path d = "M 72.66 67.97 L 70.31 82.03 L 93.75 117.19 L 93.75 208.59" stroke="black" fill="transparent"/>
	<path d = "M 150.00 82.03 L 140.62 89.06 L 135.94 124.22 L 145.31 267.19" stroke="black" fill="transparent"/>
	<path d = "M 77.34 189.84 L 89.06 311.72 L 89.06 424.22" stroke="black" fill="transparent"/>
	<path d = "M 161.72 157.03 L 159.38 250.78 L 178.12 435.94" stroke="black" fill="transparent"/>
	<path d = "M 11.72 412.50 L 168.75 412.50 L 283.59 428.91 L 288.28 435.94 L 262.50 527.34 L 241.41 557.81 L 199.22 585.94 L 154.69 597.66 L 112.50 597.66 L 67.97 576.56 L 28.12 534.38 L 4.69 452.34 L 7.03 403.12" stroke="black" fill="transparent"/>
	<path d = "M 124.22 89.06 L 159.38 215.62 L 164.06 421.88" stroke="black" fill="transparent"/>
	<path d = "M 93.75 142.97 L 93.75 292.97 L 110.16 412.50 L 114.84 417.19" stroke="black" fill="transparent"/>
	<path d = "M 35.16 414.84 L 274.22 412.50 L 276.56 424.22" stroke="black" fill="transparent"/>
</svg>