<?xml version="1.0" encoding="UTF-8" standalone="no"?>
<!--Created with ndjsontosvg (https:https://github.com/thompson318/ndjsontosvg) 
	from the simplified Google quickdraw data set. key_id = 6093124554194944-->
<svg width="600" height="600"
	xmlns="http://www.w3.org/2000/svg">
	xmlns:ndjsontosvg="https://github.com/thompson318/ndjsontosvg"
	xmlns:quickdraw="https://quickdraw.withgoogle.com/data"
	xmlns:scikit-surgery="https://doi.org/10.1007/s11548-020-02180-5">

	<rect width="100%" height="100%" fill="white" />
	<path d = "M 142.97 428.91 L 96.09 421.88 L 77.34 435.94 L 72.66 461.72 L 103.12 478.12 L 185.16 475.78 L 250.78 457.03 L 248.44 447.66 L 199.22 438.28 L 192.19 417.19 L 185.16 384.38 L 187.50 150.00" stroke="black" fill="transparent"/>
	<path d = "M 138.28 424.22 L 128.91 250.78 L 145.31 152.34 L 77.34 138.28 L 215.62 140.62 L 248.44 135.94 L 253.12 121.88 L 248.44 63.28 L 229.69 25.78 L 201.56 7.03 L 133.59 0.00 L 98.44 9.38 L 77.34 28.12 L 63.28 56.25 L 58.59 110.16 L 67.97 142.97" stroke="black" fill="transparent"/>
	<path d = "M 150.00 4.69 L 152.34 86.72" stroke="black" fill="transparent"/>
	<path d = "M 142.97 91.41 L 142.97 133.59 L 147.66 154.69 L 150.00 140.62" stroke="black" fill="transparent"/>
	<path d = "M 150.00 117.19 L 150.00 93.75 L 182.81 79.69" stroke="black" fill="transparent"/>
	<path d = "M 63.28 360.94 L 28.12 398.44 L 4.69 438.28 L 2.34 494.53 L 28.12 536.72 L 60.94 560.16 L 98.44 564.84 L 114.84 553.12 L 133.59 485.16 L 128.91 412.50 L 103.12 351.56 L 89.06 339.84 L 79.69 342.19" stroke="black" fill="transparent"/>
	<path d = "M 262.50 410.16 L 260.16 405.47 L 239.06 403.12 L 208.59 414.84 L 178.12 438.28 L 154.69 471.09 L 133.59 525.00 L 131.25 569.53 L 138.28 590.62 L 173.44 597.66 L 234.38 578.91 L 288.28 541.41 L 321.09 501.56 L 323.44 452.34 L 300.00 405.47 L 248.44 365.62 L 222.66 363.28 L 206.25 372.66" stroke="black" fill="transparent"/>
</svg>