<?xml version="1.0" encoding="UTF-8" standalone="no"?>
<!--Created with ndjsontosvg (https:https://github.com/thompson318/ndjsontosvg) 
	from the simplified Google quickdraw data set. key_id = 5283152178184192-->
<svg width="600" height="600"
	xmlns="http://www.w3.org/2000/svg">
	xmlns:ndjsontosvg="https://github.com/thompson318/ndjsontosvg"
	xmlns:quickdraw="https://quickdraw.withgoogle.com/data"
	xmlns:scikit-surgery="https://doi.org/10.1007/s11548-020-02180-5">

	<rect width="100%" height="100%" fill="white" />
	<path d = "M 360.94 119.53 L 70.31 114.84 L 30.47 128.91 L 4.69 168.75 L 2.34 201.56 L 9.38 222.66 L 30.47 232.03 L 187.50 276.56 L 370.31 281.25 L 426.56 274.22 L 520.31 236.72 L 550.78 213.28 L 569.53 173.44 L 567.19 154.69 L 539.06 142.97 L 382.03 100.78" stroke="black" fill="transparent"/>
	<path d = "M 379.69 142.97 L 360.94 30.47 L 344.53 2.34 L 323.44 0.00 L 283.59 9.38 L 269.53 23.44 L 262.50 42.19 L 283.59 49.22 L 295.31 23.44 L 325.78 16.41 L 353.91 131.25" stroke="black" fill="transparent"/>
	<path d = "M 278.91 63.28 L 269.53 192.19" stroke="black" fill="transparent"/>
	<path d = "M 283.59 72.66 L 288.28 208.59" stroke="black" fill="transparent"/>
	<path d = "M 65.62 271.88 L 206.25 295.31 L 370.31 314.06 L 403.12 311.72 L 522.66 276.56 L 567.19 248.44 L 588.28 217.97 L 597.66 180.47 L 588.28 140.62 L 569.53 119.53 L 527.34 100.78 L 417.19 89.06" stroke="black" fill="transparent"/>
	<path d = "M 314.06 84.38 L 79.69 84.38 L 21.09 103.12 L 4.69 131.25 L 0.00 154.69" stroke="black" fill="transparent"/>
</svg>