<?xml version="1.0" encoding="UTF-8" standalone="no"?>
<!--Created with ndjsontosvg (https:https://github.com/thompson318/ndjsontosvg) 
	from the simplified Google quickdraw data set. key_id = 4654864523067392-->
<svg width="600" height="600"
	xmlns="http://www.w3.org/2000/svg">
	xmlns:ndjsontosvg="https://github.com/thompson318/ndjsontosvg"
	xmlns:quickdraw="https://quickdraw.withgoogle.com/data"
	xmlns:scikit-surgery="https://doi.org/10.1007/s11548-020-02180-5">

	<rect width="100%" height="100%" fill="white" />
	<path d = "M 140.62 222.66 L 140.62 421.88" stroke="black" fill="transparent"/>
	<path d = "M 311.72 229.69 L 311.72 438.28" stroke="black" fill="transparent"/>
	<path d = "M 142.97 222.66 L 44.53 220.31 L 11.72 201.56 L 0.00 166.41 L 2.34 72.66 L 11.72 67.97 L 285.94 103.12 L 595.31 96.09 L 562.50 173.44 L 520.31 243.75 L 457.03 302.34 L 421.88 325.78 L 389.06 330.47 L 351.56 321.09 L 323.44 302.34 L 304.69 267.19" stroke="black" fill="transparent"/>
	<path d = "M 225.00 91.41 L 225.00 28.12 L 234.38 7.03 L 297.66 0.00 L 304.69 7.03 L 307.03 23.44" stroke="black" fill="transparent"/>
	<path d = "M 384.38 89.06 L 428.91 77.34 L 375.00 75.00" stroke="black" fill="transparent"/>
	<path d = "M 150.00 77.34 L 107.81 72.66 L 147.66 67.97 L 147.66 79.69" stroke="black" fill="transparent"/>
	<path d = "M 316.41 37.50 L 304.69 107.81 L 300.00 58.59 L 300.00 86.72 L 314.06 58.59 L 314.06 77.34 L 311.72 67.97 L 307.03 86.72" stroke="black" fill="transparent"/>
</svg>