<?xml version="1.0" encoding="UTF-8" standalone="no"?>
<!--Created with ndjsontosvg (https:https://github.com/thompson318/ndjsontosvg) 
	from the simplified Google quickdraw data set. key_id = 6259080211464192-->
<svg width="600" height="600"
	xmlns="http://www.w3.org/2000/svg">
	xmlns:ndjsontosvg="https://github.com/thompson318/ndjsontosvg"
	xmlns:quickdraw="https://quickdraw.withgoogle.com/data"
	xmlns:scikit-surgery="https://doi.org/10.1007/s11548-020-02180-5">

	<rect width="100%" height="100%" fill="white" />
	<path d = "M 260.16 4.69 L 241.41 0.00 L 208.59 46.88 L 203.91 72.66 L 206.25 112.50 L 222.66 173.44 L 236.72 178.12 L 267.19 168.75 L 267.19 30.47" stroke="black" fill="transparent"/>
	<path d = "M 187.50 58.59 L 192.19 96.09 L 178.12 117.19 L 173.44 166.41" stroke="black" fill="transparent"/>
	<path d = "M 135.94 100.78 L 121.88 103.12 L 103.12 124.22 L 152.34 117.19 L 150.00 96.09 L 133.59 91.41" stroke="black" fill="transparent"/>
	<path d = "M 152.34 70.31 L 142.97 75.00 L 142.97 114.84 L 152.34 119.53 L 171.09 114.84 L 173.44 72.66 L 140.62 58.59" stroke="black" fill="transparent"/>
	<path d = "M 138.28 96.09 L 135.94 135.94 L 140.62 142.97 L 180.47 142.97 L 182.81 126.56 L 164.06 117.19" stroke="black" fill="transparent"/>
	<path d = "M 173.44 112.50 L 206.25 110.16 L 210.94 117.19 L 164.06 138.28 L 164.06 103.12" stroke="black" fill="transparent"/>
	<path d = "M 339.84 93.75 L 325.78 100.78 L 316.41 114.84 L 339.84 119.53 L 344.53 105.47 L 332.81 100.78" stroke="black" fill="transparent"/>
	<path d = "M 356.25 67.97 L 342.19 93.75 L 339.84 126.56 L 356.25 124.22 L 377.34 110.16 L 375.00 79.69 L 363.28 75.00" stroke="black" fill="transparent"/>
	<path d = "M 365.62 107.81 L 377.34 114.84 L 375.00 124.22 L 339.84 142.97" stroke="black" fill="transparent"/>
	<path d = "M 346.88 128.91 L 358.59 150.00 L 372.66 154.69 L 377.34 128.91 L 363.28 126.56" stroke="black" fill="transparent"/>
	<path d = "M 51.56 112.50 L 175.78 112.50" stroke="black" fill="transparent"/>
	<path d = "M 372.66 100.78 L 581.25 100.78 L 585.94 304.69 L 597.66 367.97 L 592.97 375.00 L 517.97 377.34 L 325.78 344.53 L 210.94 356.25 L 18.75 356.25 L 0.00 365.62 L 23.44 349.22 L 39.84 300.00 L 30.47 187.50 L 37.50 91.41 L 37.50 196.88 L 56.25 339.84" stroke="black" fill="transparent"/>
	<path d = "M 199.22 222.66 L 213.28 232.03 L 225.00 255.47 L 225.00 285.94 L 213.28 300.00 L 213.28 292.97" stroke="black" fill="transparent"/>
	<path d = "M 283.59 208.59 L 300.00 260.16" stroke="black" fill="transparent"/>
</svg>