<?xml version="1.0" encoding="UTF-8" standalone="no"?>
<!--Created with ndjsontosvg (https:https://github.com/thompson318/ndjsontosvg) 
	from the simplified Google quickdraw data set. key_id = 5944765990305792-->
<svg width="600" height="600"
	xmlns="http://www.w3.org/2000/svg">
	xmlns:ndjsontosvg="https://github.com/thompson318/ndjsontosvg"
	xmlns:quickdraw="https://quickdraw.withgoogle.com/data"
	xmlns:scikit-surgery="https://doi.org/10.1007/s11548-020-02180-5">

	<rect width="100%" height="100%" fill="white" />
	<path d = "M 25.78 213.28 L 110.16 227.34 L 571.88 232.03" stroke="black" fill="transparent"/>
	<path d = "M 23.44 220.31 L 0.00 358.59 L 4.69 482.81 L 35.16 515.62 L 96.09 543.75 L 215.62 557.81 L 297.66 557.81 L 344.53 548.44 L 452.34 503.91 L 527.34 447.66 L 562.50 389.06 L 571.88 309.38 L 588.28 271.88 L 597.66 220.31" stroke="black" fill="transparent"/>
	<path d = "M 264.84 227.34 L 253.12 135.94 L 253.12 46.88 L 276.56 4.69 L 300.00 4.69 L 328.12 56.25 L 353.91 128.91 L 356.25 147.66 L 330.47 187.50 L 330.47 215.62 L 346.88 227.34 L 382.03 215.62 L 384.38 206.25 L 363.28 171.09 L 356.25 189.84" stroke="black" fill="transparent"/>
	<path d = "M 342.19 248.44 L 358.59 248.44" stroke="black" fill="transparent"/>
</svg>