<?xml version="1.0" encoding="UTF-8" standalone="no"?>
<!--Created with ndjsontosvg (https:https://github.com/thompson318/ndjsontosvg) 
	from the simplified Google quickdraw data set. key_id = 4881601487962112-->
<svg width="600" height="600"
	xmlns="http://www.w3.org/2000/svg">
	xmlns:ndjsontosvg="https://github.com/thompson318/ndjsontosvg"
	xmlns:quickdraw="https://quickdraw.withgoogle.com/data"
	xmlns:scikit-surgery="https://doi.org/10.1007/s11548-020-02180-5">

	<rect width="100%" height="100%" fill="white" />
	<path d = "M 23.44 21.09 L 316.41 4.69 L 440.62 4.69 L 543.75 21.09 L 590.62 39.84 L 597.66 49.22 L 592.97 53.91 L 548.44 79.69 L 398.44 105.47 L 128.91 103.12 L 25.78 72.66 L 2.34 53.91 L 2.34 30.47 L 21.09 7.03 L 79.69 0.00" stroke="black" fill="transparent"/>
	<path d = "M 229.69 112.50 L 187.50 114.84 L 154.69 145.31 L 145.31 180.47 L 157.03 217.97 L 180.47 236.72 L 213.28 234.38 L 239.06 192.19 L 239.06 159.38 L 227.34 117.19" stroke="black" fill="transparent"/>
	<path d = "M 480.47 98.44 L 428.91 121.88 L 389.06 157.03 L 391.41 192.19 L 410.16 206.25 L 424.22 208.59 L 457.03 189.84 L 489.84 140.62 L 480.47 117.19 L 435.94 96.09" stroke="black" fill="transparent"/>
</svg>