<?xml version="1.0" encoding="UTF-8" standalone="no"?>
<!--Created with ndjsontosvg (https:https://github.com/thompson318/ndjsontosvg) 
	from the simplified Google quickdraw data set. key_id = 6638911818301440-->
<svg width="600" height="600"
	xmlns="http://www.w3.org/2000/svg">
	xmlns:ndjsontosvg="https://github.com/thompson318/ndjsontosvg"
	xmlns:quickdraw="https://quickdraw.withgoogle.com/data"
	xmlns:scikit-surgery="https://doi.org/10.1007/s11548-020-02180-5">

	<rect width="100%" height="100%" fill="white" />
	<path d = "M 91.41 128.91 L 89.06 159.38 L 152.34 171.09 L 159.38 150.00 L 157.03 117.19 L 114.84 96.09" stroke="black" fill="transparent"/>
	<path d = "M 433.59 147.66 L 398.44 147.66 L 379.69 154.69 L 363.28 171.09 L 365.62 194.53 L 389.06 208.59 L 440.62 215.62 L 461.72 203.91 L 478.12 185.16 L 478.12 135.94 L 450.00 107.81" stroke="black" fill="transparent"/>
	<path d = "M 0.00 0.00 L 7.03 28.12 L 32.81 67.97 L 96.09 96.09 L 239.06 117.19 L 339.84 114.84 L 450.00 124.22 L 508.59 135.94 L 548.44 135.94 L 588.28 117.19 L 597.66 72.66 L 592.97 14.06" stroke="black" fill="transparent"/>
</svg>