<?xml version="1.0" encoding="UTF-8" standalone="no"?>
<!--Created with ndjsontosvg (https:https://github.com/thompson318/ndjsontosvg) 
	from the simplified Google quickdraw data set. key_id = 6309997933756416-->
<svg width="600" height="600"
	xmlns="http://www.w3.org/2000/svg">
	xmlns:ndjsontosvg="https://github.com/thompson318/ndjsontosvg"
	xmlns:quickdraw="https://quickdraw.withgoogle.com/data"
	xmlns:scikit-surgery="https://doi.org/10.1007/s11548-020-02180-5">

	<rect width="100%" height="100%" fill="white" />
	<path d = "M 576.56 86.72 L 424.22 114.84 L 290.62 119.53 L 100.78 110.16 L 42.19 98.44 L 7.03 79.69 L 4.69 58.59 L 14.06 39.84 L 56.25 21.09 L 344.53 0.00 L 485.16 0.00 L 576.56 14.06 L 595.31 25.78 L 597.66 37.50 L 562.50 67.97" stroke="black" fill="transparent"/>
	<path d = "M 543.75 77.34 L 503.91 75.00 L 473.44 93.75 L 454.69 131.25 L 447.66 159.38 L 450.00 178.12 L 471.09 203.91 L 492.19 213.28 L 532.03 210.94 L 567.19 180.47 L 583.59 135.94 L 585.94 100.78 L 578.91 89.06 L 546.09 77.34" stroke="black" fill="transparent"/>
	<path d = "M 89.06 93.75 L 105.47 110.16 L 63.28 86.72 L 23.44 82.03 L 2.34 107.81 L 0.00 152.34 L 23.44 203.91 L 67.97 232.03 L 105.47 232.03 L 126.56 192.19 L 128.91 138.28 L 117.19 98.44 L 93.75 70.31" stroke="black" fill="transparent"/>
</svg>