<?xml version="1.0" encoding="UTF-8" standalone="no"?>
<!--Created with ndjsontosvg (https:https://github.com/thompson318/ndjsontosvg) 
	from the simplified Google quickdraw data set. key_id = 6209381613961216-->
<svg width="600" height="600"
	xmlns="http://www.w3.org/2000/svg">
	xmlns:ndjsontosvg="https://github.com/thompson318/ndjsontosvg"
	xmlns:quickdraw="https://quickdraw.withgoogle.com/data"
	xmlns:scikit-surgery="https://doi.org/10.1007/s11548-020-02180-5">

	<rect width="100%" height="100%" fill="white" />
	<path d = "M 215.62 14.06 L 215.62 14.06" stroke="black" fill="transparent"/>
	<path d = "M 236.72 14.06 L 290.62 32.81 L 447.66 58.59 L 585.94 107.81 L 597.66 124.22 L 597.66 142.97 L 578.91 157.03 L 525.00 175.78 L 466.41 185.16 L 356.25 178.12 L 220.31 131.25 L 112.50 103.12 L 18.75 67.97 L 0.00 30.47 L 0.00 11.72 L 18.75 2.34 L 96.09 0.00 L 192.19 14.06 L 201.56 21.09" stroke="black" fill="transparent"/>
	<path d = "M 82.03 103.12 L 65.62 89.06 L 86.72 145.31 L 133.59 175.78 L 189.84 178.12 L 208.59 168.75 L 217.97 142.97" stroke="black" fill="transparent"/>
	<path d = "M 367.97 147.66 L 365.62 208.59 L 372.66 229.69 L 447.66 229.69 L 475.78 189.84" stroke="black" fill="transparent"/>
</svg>