<?xml version="1.0" encoding="UTF-8" standalone="no"?>
<!--Created with ndjsontosvg (https:https://github.com/thompson318/ndjsontosvg) 
	from the simplified Google quickdraw data set. key_id = 5528462246805504-->
<svg width="600" height="600"
	xmlns="http://www.w3.org/2000/svg">
	xmlns:ndjsontosvg="https://github.com/thompson318/ndjsontosvg"
	xmlns:quickdraw="https://quickdraw.withgoogle.com/data"
	xmlns:scikit-surgery="https://doi.org/10.1007/s11548-020-02180-5">

	<rect width="100%" height="100%" fill="white" />
	<path d = "M 100.78 337.50 L 56.25 332.81 L 21.09 314.06 L 2.34 274.22 L 0.00 222.66" stroke="black" fill="transparent"/>
	<path d = "M 4.69 248.44 L 4.69 164.06 L 11.72 150.00 L 96.09 67.97 L 161.72 28.12 L 229.69 4.69 L 318.75 0.00 L 351.56 11.72 L 414.84 63.28 L 452.34 138.28 L 475.78 206.25 L 482.81 262.50 L 478.12 318.75 L 377.34 377.34 L 300.00 391.41 L 185.16 389.06 L 131.25 370.31 L 93.75 342.19" stroke="black" fill="transparent"/>
	<path d = "M 182.81 367.97 L 182.81 468.75 L 171.09 597.66 L 175.78 590.62 L 464.06 550.78 L 468.75 539.06 L 431.25 410.16 L 426.56 367.97" stroke="black" fill="transparent"/>
	<path d = "M 187.50 400.78 L 187.50 464.06 L 208.59 546.09" stroke="black" fill="transparent"/>
	<path d = "M 248.44 375.00 L 248.44 464.06 L 255.47 506.25 L 262.50 513.28" stroke="black" fill="transparent"/>
	<path d = "M 367.97 407.81 L 370.31 492.19 L 379.69 525.00" stroke="black" fill="transparent"/>
	<path d = "M 161.72 360.94 L 105.47 360.94 L 91.41 367.97 L 37.50 438.28 L 23.44 485.16 L 18.75 557.81 L 58.59 581.25 L 51.56 445.31 L 65.62 396.09 L 93.75 375.00 L 128.91 360.94 L 199.22 358.59" stroke="black" fill="transparent"/>
	<path d = "M 445.31 363.28 L 445.31 363.28" stroke="black" fill="transparent"/>
</svg>