<?xml version="1.0" encoding="UTF-8" standalone="no"?>
<!--Created with ndjsontosvg (https:https://github.com/thompson318/ndjsontosvg) 
	from the simplified Google quickdraw data set. key_id = 5653531329560576-->
<svg width="600" height="600"
	xmlns="http://www.w3.org/2000/svg">
	xmlns:ndjsontosvg="https://github.com/thompson318/ndjsontosvg"
	xmlns:quickdraw="https://quickdraw.withgoogle.com/data"
	xmlns:scikit-surgery="https://doi.org/10.1007/s11548-020-02180-5">

	<rect width="100%" height="100%" fill="white" />
	<path d = "M 91.41 407.81 L 46.88 372.66 L 14.06 302.34 L 0.00 222.66 L 0.00 157.03 L 21.09 96.09 L 96.09 25.78" stroke="black" fill="transparent"/>
	<path d = "M 140.62 400.78 L 126.56 365.62 L 65.62 117.19 L 75.00 65.62 L 100.78 37.50 L 140.62 18.75 L 281.25 0.00 L 438.28 53.91 L 478.12 84.38 L 513.28 128.91 L 532.03 180.47 L 532.03 243.75 L 496.88 323.44 L 459.38 367.97 L 398.44 398.44 L 344.53 412.50 L 159.38 426.56" stroke="black" fill="transparent"/>
	<path d = "M 150.00 442.97 L 154.69 529.69 L 185.16 590.62 L 323.44 597.66 L 363.28 585.94 L 370.31 576.56 L 377.34 426.56" stroke="black" fill="transparent"/>
	<path d = "M 182.81 571.88 L 192.19 543.75 L 206.25 529.69 L 232.03 564.84 L 260.16 546.09 L 285.94 557.81 L 321.09 543.75 L 337.50 574.22 L 346.88 578.91 L 356.25 571.88 L 346.88 555.47" stroke="black" fill="transparent"/>
	<path d = "M 164.06 435.94 L 189.84 475.78 L 196.88 482.81 L 201.56 478.12" stroke="black" fill="transparent"/>
	<path d = "M 229.69 468.75 L 250.78 487.50 L 269.53 489.84 L 309.38 468.75 L 339.84 461.72 L 363.28 489.84 L 375.00 475.78 L 386.72 426.56" stroke="black" fill="transparent"/>
	<path d = "M 457.03 241.41 L 405.47 243.75 L 367.97 232.03 L 328.12 196.88 L 321.09 154.69 L 342.19 114.84 L 377.34 96.09 L 398.44 91.41 L 431.25 100.78 L 471.09 128.91 L 489.84 173.44 L 487.50 194.53 L 478.12 210.94 L 440.62 222.66" stroke="black" fill="transparent"/>
	<path d = "M 133.59 225.00 L 77.34 180.47 L 75.00 159.38 L 96.09 121.88 L 119.53 105.47 L 171.09 84.38 L 232.03 77.34 L 276.56 103.12 L 285.94 126.56 L 283.59 147.66 L 250.78 189.84 L 168.75 234.38" stroke="black" fill="transparent"/>
	<path d = "M 269.53 203.91 L 185.16 328.12 L 185.16 344.53 L 194.53 351.56 L 236.72 358.59 L 300.00 337.50 L 344.53 307.03 L 346.88 288.28 L 330.47 248.44 L 285.94 201.56" stroke="black" fill="transparent"/>
</svg>