<?xml version="1.0" encoding="UTF-8" standalone="no"?>
<!--Created with ndjsontosvg (https:https://github.com/thompson318/ndjsontosvg) 
	from the simplified Google quickdraw data set. key_id = 6293796981571584-->
<svg width="600" height="600"
	xmlns="http://www.w3.org/2000/svg">
	xmlns:ndjsontosvg="https://github.com/thompson318/ndjsontosvg"
	xmlns:quickdraw="https://quickdraw.withgoogle.com/data"
	xmlns:scikit-surgery="https://doi.org/10.1007/s11548-020-02180-5">

	<rect width="100%" height="100%" fill="white" />
	<path d = "M 239.06 7.03 L 220.31 0.00 L 117.19 0.00 L 32.81 30.47 L 9.38 93.75 L 0.00 145.31 L 0.00 236.72 L 16.41 307.03 L 32.81 339.84 L 98.44 389.06 L 131.25 426.56 L 135.94 571.88 L 140.62 581.25 L 194.53 597.66 L 260.16 597.66 L 262.50 539.06 L 241.41 487.50 L 253.12 480.47 L 342.19 466.41 L 377.34 435.94 L 452.34 351.56 L 487.50 257.81 L 487.50 208.59 L 473.44 189.84 L 351.56 110.16 L 295.31 56.25 L 264.84 16.41 L 222.66 4.69" stroke="black" fill="transparent"/>
	<path d = "M 168.75 471.09 L 166.41 569.53" stroke="black" fill="transparent"/>
	<path d = "M 229.69 450.00 L 225.00 583.59" stroke="black" fill="transparent"/>
	<path d = "M 171.09 77.34 L 152.34 70.31 L 135.94 75.00 L 112.50 103.12 L 96.09 189.84 L 103.12 255.47 L 138.28 314.06 L 173.44 323.44 L 178.12 311.72 L 192.19 236.72 L 196.88 119.53 L 173.44 82.03" stroke="black" fill="transparent"/>
	<path d = "M 370.31 185.16 L 344.53 185.16 L 295.31 227.34 L 253.12 304.69 L 255.47 342.19 L 290.62 346.88 L 328.12 342.19 L 349.22 311.72 L 356.25 274.22" stroke="black" fill="transparent"/>
</svg>