<?xml version="1.0" encoding="UTF-8" standalone="no"?>
<!--Created with ndjsontosvg (https:https://github.com/thompson318/ndjsontosvg) 
	from the simplified Google quickdraw data set. key_id = 5139900867280896-->
<svg width="600" height="600"
	xmlns="http://www.w3.org/2000/svg">
	xmlns:ndjsontosvg="https://github.com/thompson318/ndjsontosvg"
	xmlns:quickdraw="https://quickdraw.withgoogle.com/data"
	xmlns:scikit-surgery="https://doi.org/10.1007/s11548-020-02180-5">

	<rect width="100%" height="100%" fill="white" />
	<path d = "M 255.47 110.16 L 250.78 70.31 L 232.03 39.84 L 189.84 18.75 L 142.97 16.41 L 79.69 23.44 L 42.19 42.19 L 14.06 100.78 L 0.00 264.84 L 18.75 346.88 L 37.50 370.31 L 79.69 379.69 L 100.78 396.09 L 110.16 489.84 L 140.62 557.81 L 168.75 597.66 L 264.84 590.62 L 316.41 574.22 L 323.44 562.50 L 330.47 546.09 L 337.50 480.47 L 337.50 424.22 L 325.78 375.00 L 365.62 356.25 L 393.75 325.78 L 403.12 269.53 L 400.78 206.25 L 396.09 168.75 L 367.97 114.84 L 321.09 44.53 L 276.56 4.69 L 147.66 2.34 L 121.88 9.38 L 112.50 30.47" stroke="black" fill="transparent"/>
	<path d = "M 75.00 152.34 L 168.75 185.16" stroke="black" fill="transparent"/>
	<path d = "M 152.34 131.25 L 110.16 164.06 L 91.41 201.56 L 96.09 203.91" stroke="black" fill="transparent"/>
	<path d = "M 257.81 166.41 L 288.28 168.75 L 335.16 187.50" stroke="black" fill="transparent"/>
	<path d = "M 311.72 135.94 L 285.94 178.12 L 276.56 220.31" stroke="black" fill="transparent"/>
	<path d = "M 210.94 292.97 L 196.88 285.94 L 173.44 292.97" stroke="black" fill="transparent"/>
</svg>