<?xml version="1.0" encoding="UTF-8" standalone="no"?>
<!--Created with ndjsontosvg (https:https://github.com/thompson318/ndjsontosvg) 
	from the simplified Google quickdraw data set. key_id = 5597742787198976-->
<svg width="600" height="600"
	xmlns="http://www.w3.org/2000/svg">
	xmlns:ndjsontosvg="https://github.com/thompson318/ndjsontosvg"
	xmlns:quickdraw="https://quickdraw.withgoogle.com/data"
	xmlns:scikit-surgery="https://doi.org/10.1007/s11548-020-02180-5">

	<rect width="100%" height="100%" fill="white" />
	<path d = "M 145.31 175.78 L 145.31 135.94 L 121.88 110.16 L 98.44 103.12 L 72.66 117.19 L 28.12 171.09 L 7.03 232.03 L 2.34 274.22 L 39.84 311.72 L 114.84 356.25 L 152.34 410.16 L 161.72 454.69 L 119.53 532.03 L 135.94 562.50 L 213.28 595.31 L 292.97 597.66 L 403.12 569.53 L 426.56 557.81 L 447.66 534.38 L 471.09 482.81 L 506.25 292.97 L 506.25 248.44 L 473.44 135.94 L 426.56 75.00 L 353.91 23.44 L 288.28 2.34 L 203.91 0.00 L 159.38 21.09 L 119.53 65.62 L 63.28 157.03 L 56.25 187.50" stroke="black" fill="transparent"/>
	<path d = "M 145.31 227.34 L 168.75 269.53 L 194.53 281.25 L 227.34 285.94 L 276.56 267.19 L 304.69 232.03 L 304.69 210.94 L 271.88 187.50 L 220.31 187.50 L 194.53 196.88 L 178.12 213.28 L 159.38 255.47" stroke="black" fill="transparent"/>
	<path d = "M 426.56 215.62 L 417.19 213.28 L 400.78 222.66 L 389.06 241.41 L 391.41 290.62 L 407.81 309.38 L 440.62 318.75 L 482.81 304.69 L 501.56 276.56 L 506.25 229.69 L 494.53 206.25 L 468.75 182.81 L 442.97 178.12 L 410.16 194.53 L 396.09 227.34 L 391.41 257.81" stroke="black" fill="transparent"/>
	<path d = "M 285.94 391.41 L 269.53 382.03 L 253.12 398.44 L 250.78 435.94 L 264.84 478.12 L 285.94 496.88 L 325.78 489.84 L 372.66 424.22 L 384.38 379.69 L 379.69 353.91 L 349.22 344.53 L 314.06 358.59 L 257.81 424.22" stroke="black" fill="transparent"/>
</svg>