<?xml version="1.0" encoding="UTF-8" standalone="no"?>
<!--Created with ndjsontosvg (https:https://github.com/thompson318/ndjsontosvg) 
	from the simplified Google quickdraw data set. key_id = 4547917958348800-->
<svg width="600" height="600"
	xmlns="http://www.w3.org/2000/svg">
	xmlns:ndjsontosvg="https://github.com/thompson318/ndjsontosvg"
	xmlns:quickdraw="https://quickdraw.withgoogle.com/data"
	xmlns:scikit-surgery="https://doi.org/10.1007/s11548-020-02180-5">

	<rect width="100%" height="100%" fill="white" />
	<path d = "M 7.03 18.75 L 11.72 145.31 L 23.44 182.81 L 138.28 194.53 L 292.97 192.19 L 412.50 206.25 L 473.44 199.22 L 489.84 189.84 L 499.22 175.78 L 485.16 103.12 L 485.16 16.41 L 478.12 7.03 L 384.38 0.00 L 213.28 16.41 L 126.56 7.03 L 91.41 16.41 L 0.00 16.41" stroke="black" fill="transparent"/>
	<path d = "M 503.91 159.38 L 567.19 161.72 L 590.62 152.34 L 595.31 145.31 L 597.66 105.47 L 581.25 30.47 L 550.78 7.03 L 529.69 11.72 L 508.59 35.16 L 517.97 161.72" stroke="black" fill="transparent"/>
	<path d = "M 405.47 4.69 L 428.91 201.56" stroke="black" fill="transparent"/>
	<path d = "M 337.50 196.88 L 328.12 28.12" stroke="black" fill="transparent"/>
</svg>