<?xml version="1.0" encoding="UTF-8" standalone="no"?>
<!--Created with ndjsontosvg (https:https://github.com/thompson318/ndjsontosvg) 
	from the simplified Google quickdraw data set. key_id = 5503144526086144-->
<svg width="600" height="600"
	xmlns="http://www.w3.org/2000/svg">
	xmlns:ndjsontosvg="https://github.com/thompson318/ndjsontosvg"
	xmlns:quickdraw="https://quickdraw.withgoogle.com/data"
	xmlns:scikit-surgery="https://doi.org/10.1007/s11548-020-02180-5">

	<rect width="100%" height="100%" fill="white" />
	<path d = "M 339.84 63.28 L 419.53 14.06 L 473.44 2.34 L 546.09 0.00 L 574.22 21.09 L 592.97 67.97 L 595.31 168.75 L 553.12 257.81 L 501.56 323.44 L 431.25 370.31 L 321.09 419.53 L 217.97 447.66 L 56.25 471.09 L 14.06 471.09 L 4.69 457.03 L 0.00 353.91 L 7.03 337.50 L 32.81 292.97 L 117.19 185.16 L 232.03 105.47 L 344.53 60.94" stroke="black" fill="transparent"/>
	<path d = "M 496.88 46.88 L 426.56 63.28 L 353.91 110.16 L 342.19 128.91 L 346.88 178.12 L 426.56 281.25 L 438.28 288.28 L 471.09 285.94 L 487.50 276.56 L 532.03 199.22 L 541.41 142.97 L 539.06 103.12 L 517.97 60.94 L 489.84 42.19" stroke="black" fill="transparent"/>
</svg>