<?xml version="1.0" encoding="UTF-8" standalone="no"?>
<!--Created with ndjsontosvg (https:https://github.com/thompson318/ndjsontosvg) 
	from the simplified Google quickdraw data set. key_id = 5513115372355584-->
<svg width="600" height="600"
	xmlns="http://www.w3.org/2000/svg">
	xmlns:ndjsontosvg="https://github.com/thompson318/ndjsontosvg"
	xmlns:quickdraw="https://quickdraw.withgoogle.com/data"
	xmlns:scikit-surgery="https://doi.org/10.1007/s11548-020-02180-5">

	<rect width="100%" height="100%" fill="white" />
	<path d = "M 14.06 142.97 L 0.00 128.91 L 0.00 60.94 L 18.75 21.09 L 44.53 0.00 L 241.41 2.34 L 269.53 18.75 L 292.97 49.22 L 297.66 75.00 L 271.88 89.06 L 173.44 114.84 L 32.81 124.22 L 30.47 138.28 L 42.19 271.88 L 46.88 525.00 L 75.00 569.53 L 100.78 592.97 L 119.53 597.66 L 208.59 592.97 L 243.75 564.84 L 276.56 510.94 L 304.69 367.97 L 304.69 260.16 L 276.56 107.81 L 274.22 18.75" stroke="black" fill="transparent"/>
	<path d = "M 145.31 32.81 L 133.59 44.53 L 133.59 77.34 L 138.28 91.41 L 154.69 98.44 L 196.88 100.78 L 220.31 67.97 L 220.31 46.88 L 210.94 32.81 L 189.84 30.47 L 171.09 37.50" stroke="black" fill="transparent"/>
	<path d = "M 227.34 86.72 L 217.97 103.12 L 210.94 288.28 L 180.47 344.53 L 126.56 478.12" stroke="black" fill="transparent"/>
	<path d = "M 274.22 288.28 L 269.53 332.81 L 318.75 431.25" stroke="black" fill="transparent"/>
	<path d = "M 133.59 203.91 L 166.41 215.62 L 232.03 220.31 L 339.84 210.94" stroke="black" fill="transparent"/>
	<path d = "M 311.72 335.16 L 269.53 328.12 L 243.75 295.31" stroke="black" fill="transparent"/>
</svg>