<?xml version="1.0" encoding="UTF-8" standalone="no"?>
<!--Created with ndjsontosvg (https:https://github.com/thompson318/ndjsontosvg) 
	from the simplified Google quickdraw data set. key_id = 5679924373356544-->
<svg width="600" height="600"
	xmlns="http://www.w3.org/2000/svg">
	xmlns:ndjsontosvg="https://github.com/thompson318/ndjsontosvg"
	xmlns:quickdraw="https://quickdraw.withgoogle.com/data"
	xmlns:scikit-surgery="https://doi.org/10.1007/s11548-020-02180-5">

	<rect width="100%" height="100%" fill="white" />
	<path d = "M 360.94 56.25 L 379.69 96.09 L 403.12 124.22 L 445.31 222.66 L 452.34 248.44 L 450.00 278.91 L 407.81 283.59 L 278.91 332.81 L 215.62 344.53 L 100.78 391.41 L 23.44 339.84 L 16.41 311.72 L 2.34 295.31 L 0.00 274.22 L 16.41 248.44 L 65.62 208.59 L 260.16 117.19 L 346.88 89.06" stroke="black" fill="transparent"/>
	<path d = "M 344.53 82.03 L 391.41 51.56 L 438.28 7.03 L 468.75 0.00 L 525.00 0.00 L 541.41 9.38 L 574.22 42.19 L 597.66 82.03 L 597.66 98.44 L 529.69 239.06 L 492.19 281.25 L 459.38 292.97 L 447.66 318.75" stroke="black" fill="transparent"/>
	<path d = "M 332.81 79.69 L 335.16 119.53 L 396.09 140.62 L 396.09 157.03 L 379.69 189.84 L 431.25 220.31 L 438.28 239.06 L 435.94 292.97" stroke="black" fill="transparent"/>
</svg>