<?xml version="1.0" encoding="UTF-8" standalone="no"?>
<!--Created with ndjsontosvg (https:https://github.com/thompson318/ndjsontosvg) 
	from the simplified Google quickdraw data set. key_id = 4891283619315712-->
<svg width="600" height="600"
	xmlns="http://www.w3.org/2000/svg">
	xmlns:ndjsontosvg="https://github.com/thompson318/ndjsontosvg"
	xmlns:quickdraw="https://quickdraw.withgoogle.com/data"
	xmlns:scikit-surgery="https://doi.org/10.1007/s11548-020-02180-5">

	<rect width="100%" height="100%" fill="white" />
	<path d = "M 260.16 2.34 L 189.84 0.00 L 152.34 11.72 L 110.16 51.56 L 79.69 107.81 L 4.69 353.91 L 0.00 560.16 L 16.41 576.56 L 51.56 595.31 L 171.09 595.31 L 236.72 560.16 L 288.28 506.25 L 297.66 487.50 L 309.38 447.66 L 337.50 269.53 L 344.53 72.66 L 328.12 30.47 L 316.41 21.09 L 267.19 9.38 L 253.12 16.41" stroke="black" fill="transparent"/>
	<path d = "M 112.50 56.25 L 112.50 98.44 L 126.56 131.25 L 164.06 187.50 L 189.84 206.25 L 264.84 215.62 L 318.75 157.03" stroke="black" fill="transparent"/>
	<path d = "M 201.56 42.19 L 234.38 49.22 L 253.12 72.66 L 220.31 103.12 L 189.84 98.44 L 182.81 86.72 L 182.81 60.94 L 208.59 49.22" stroke="black" fill="transparent"/>
</svg>