<?xml version="1.0" encoding="UTF-8" standalone="no"?>
<!--Created with ndjsontosvg (https:https://github.com/thompson318/ndjsontosvg) 
	from the simplified Google quickdraw data set. key_id = 4775702626828288-->
<svg width="600" height="600"
	xmlns="http://www.w3.org/2000/svg">
	xmlns:ndjsontosvg="https://github.com/thompson318/ndjsontosvg"
	xmlns:quickdraw="https://quickdraw.withgoogle.com/data"
	xmlns:scikit-surgery="https://doi.org/10.1007/s11548-020-02180-5">

	<rect width="100%" height="100%" fill="white" />
	<path d = "M 161.72 2.34 L 51.56 86.72 L 18.75 135.94 L 0.00 222.66 L 0.00 325.78 L 9.38 398.44 L 49.22 503.91 L 98.44 550.78 L 173.44 590.62 L 281.25 597.66 L 419.53 595.31 L 513.28 564.84 L 567.19 536.72 L 578.91 515.62 L 590.62 466.41 L 595.31 318.75 L 588.28 276.56 L 562.50 220.31 L 517.97 164.06 L 487.50 138.28 L 421.88 103.12 L 335.16 25.78 L 288.28 4.69 L 124.22 2.34" stroke="black" fill="transparent"/>
	<path d = "M 206.25 428.91 L 222.66 473.44 L 248.44 489.84 L 356.25 478.12 L 372.66 471.09 L 426.56 400.78 L 450.00 330.47" stroke="black" fill="transparent"/>
</svg>