<?xml version="1.0" encoding="UTF-8" standalone="no"?>
<!--Created with ndjsontosvg (https:https://github.com/thompson318/ndjsontosvg) 
	from the simplified Google quickdraw data set. key_id = 5302409565831168-->
<svg width="600" height="600"
	xmlns="http://www.w3.org/2000/svg">
	xmlns:ndjsontosvg="https://github.com/thompson318/ndjsontosvg"
	xmlns:quickdraw="https://quickdraw.withgoogle.com/data"
	xmlns:scikit-surgery="https://doi.org/10.1007/s11548-020-02180-5">

	<rect width="100%" height="100%" fill="white" />
	<path d = "M 14.06 210.94 L 21.09 292.97 L 77.34 410.16 L 105.47 447.66 L 199.22 525.00 L 274.22 546.09 L 314.06 548.44 L 424.22 508.59 L 525.00 447.66 L 564.84 393.75 L 597.66 276.56 L 585.94 168.75 L 527.34 65.62 L 494.53 39.84 L 450.00 23.44 L 351.56 2.34 L 222.66 0.00 L 201.56 2.34 L 159.38 21.09 L 96.09 60.94 L 63.28 93.75 L 44.53 126.56 L 7.03 227.34 L 0.00 302.34" stroke="black" fill="transparent"/>
	<path d = "M 142.97 131.25 L 152.34 164.06 L 232.03 217.97 L 281.25 210.94 L 314.06 173.44 L 309.38 138.28 L 292.97 119.53 L 250.78 93.75 L 196.88 82.03 L 166.41 114.84 L 145.31 236.72" stroke="black" fill="transparent"/>
	<path d = "M 367.97 159.38 L 372.66 210.94 L 386.72 234.38 L 419.53 257.81 L 442.97 264.84 L 478.12 262.50 L 522.66 232.03 L 541.41 206.25 L 550.78 178.12 L 534.38 154.69 L 513.28 142.97 L 431.25 140.62" stroke="black" fill="transparent"/>
	<path d = "M 93.75 278.91 L 100.78 302.34 L 187.50 398.44 L 274.22 457.03 L 314.06 461.72 L 393.75 445.31 L 440.62 433.59 L 475.78 410.16" stroke="black" fill="transparent"/>
</svg>