<?xml version="1.0" encoding="UTF-8" standalone="no"?>
<!--Created with ndjsontosvg (https:https://github.com/thompson318/ndjsontosvg) 
	from the simplified Google quickdraw data set. key_id = 5345480370290688-->
<svg width="600" height="600"
	xmlns="http://www.w3.org/2000/svg">
	xmlns:ndjsontosvg="https://github.com/thompson318/ndjsontosvg"
	xmlns:quickdraw="https://quickdraw.withgoogle.com/data"
	xmlns:scikit-surgery="https://doi.org/10.1007/s11548-020-02180-5">

	<rect width="100%" height="100%" fill="white" />
	<path d = "M 161.72 46.88 L 154.69 112.50" stroke="black" fill="transparent"/>
	<path d = "M 283.59 42.19 L 269.53 133.59" stroke="black" fill="transparent"/>
	<path d = "M 213.28 128.91 L 199.22 185.16" stroke="black" fill="transparent"/>
	<path d = "M 105.47 213.28 L 117.19 250.78 L 142.97 278.91 L 185.16 295.31 L 215.62 295.31 L 248.44 290.62 L 278.91 269.53 L 325.78 220.31" stroke="black" fill="transparent"/>
	<path d = "M 227.34 7.03 L 152.34 0.00 L 91.41 23.44 L 37.50 77.34 L 2.34 161.72 L 0.00 187.50 L 11.72 229.69 L 65.62 316.41 L 112.50 360.94 L 157.03 377.34 L 283.59 351.56 L 346.88 318.75 L 384.38 253.12 L 407.81 185.16 L 400.78 121.88 L 377.34 84.38 L 297.66 18.75 L 241.41 9.38" stroke="black" fill="transparent"/>
	<path d = "M 503.91 187.50 L 485.16 220.31 L 494.53 246.09 L 532.03 255.47 L 555.47 232.03 L 517.97 309.38 L 520.31 367.97 L 543.75 353.91 L 569.53 321.09 L 597.66 241.41" stroke="black" fill="transparent"/>
</svg>