<?xml version="1.0" encoding="UTF-8" standalone="no"?>
<!--Created with ndjsontosvg (https:https://github.com/thompson318/ndjsontosvg) 
	from the simplified Google quickdraw data set. key_id = 6588825281232896-->
<svg width="600" height="600"
	xmlns="http://www.w3.org/2000/svg">
	xmlns:ndjsontosvg="https://github.com/thompson318/ndjsontosvg"
	xmlns:quickdraw="https://quickdraw.withgoogle.com/data"
	xmlns:scikit-surgery="https://doi.org/10.1007/s11548-020-02180-5">

	<rect width="100%" height="100%" fill="white" />
	<path d = "M 307.03 0.00 L 253.12 0.00 L 229.69 7.03 L 112.50 100.78 L 46.88 185.16 L 18.75 250.78 L 0.00 316.41 L 0.00 426.56 L 11.72 464.06 L 46.88 520.31 L 72.66 541.41 L 131.25 576.56 L 201.56 592.97 L 360.94 597.66 L 433.59 569.53 L 492.19 527.34 L 564.84 440.62 L 590.62 372.66 L 597.66 314.06 L 597.66 206.25 L 590.62 168.75 L 541.41 98.44 L 499.22 67.97 L 412.50 39.84 L 358.59 39.84" stroke="black" fill="transparent"/>
	<path d = "M 178.12 283.59 L 168.75 307.03" stroke="black" fill="transparent"/>
	<path d = "M 393.75 290.62 L 393.75 290.62" stroke="black" fill="transparent"/>
	<path d = "M 405.47 271.88 L 386.72 297.66" stroke="black" fill="transparent"/>
	<path d = "M 131.25 442.97 L 159.38 464.06 L 199.22 475.78 L 316.41 489.84 L 351.56 475.78 L 412.50 426.56" stroke="black" fill="transparent"/>
</svg>