<?xml version="1.0" encoding="UTF-8" standalone="no"?>
<!--Created with ndjsontosvg (https:https://github.com/thompson318/ndjsontosvg) 
	from the simplified Google quickdraw data set. key_id = 5890159344091136-->
<svg width="600" height="600"
	xmlns="http://www.w3.org/2000/svg">
	xmlns:ndjsontosvg="https://github.com/thompson318/ndjsontosvg"
	xmlns:quickdraw="https://quickdraw.withgoogle.com/data"
	xmlns:scikit-surgery="https://doi.org/10.1007/s11548-020-02180-5">

	<rect width="100%" height="100%" fill="white" />
	<path d = "M 84.38 138.28 L 82.03 189.84 L 91.41 241.41 L 126.56 260.16 L 300.00 285.94 L 557.81 288.28" stroke="black" fill="transparent"/>
	<path d = "M 77.34 131.25 L 37.50 145.31 L 16.41 164.06 L 4.69 185.16 L 0.00 232.03 L 23.44 274.22 L 86.72 311.72 L 386.72 356.25 L 543.75 356.25 L 564.84 353.91 L 576.56 344.53 L 592.97 323.44 L 597.66 292.97 L 578.91 281.25 L 494.53 276.56" stroke="black" fill="transparent"/>
	<path d = "M 290.62 260.16 L 229.69 229.69 L 192.19 185.16 L 171.09 121.88 L 173.44 65.62 L 180.47 56.25 L 215.62 39.84 L 318.75 4.69 L 450.00 0.00 L 468.75 7.03 L 494.53 32.81 L 508.59 93.75 L 508.59 159.38 L 492.19 196.88 L 442.97 215.62 L 339.84 222.66 L 309.38 187.50 L 278.91 105.47 L 278.91 84.38 L 292.97 63.28 L 314.06 53.91 L 332.81 56.25 L 363.28 75.00 L 382.03 124.22 L 382.03 145.31 L 370.31 150.00 L 342.19 145.31 L 337.50 133.59" stroke="black" fill="transparent"/>
	<path d = "M 457.03 208.59 L 487.50 236.72" stroke="black" fill="transparent"/>
</svg>