<?xml version="1.0" encoding="UTF-8" standalone="no"?>
<!--Created with ndjsontosvg (https:https://github.com/thompson318/ndjsontosvg) 
	from the simplified Google quickdraw data set. key_id = 6092989531160576-->
<svg width="600" height="600"
	xmlns="http://www.w3.org/2000/svg">
	xmlns:ndjsontosvg="https://github.com/thompson318/ndjsontosvg"
	xmlns:quickdraw="https://quickdraw.withgoogle.com/data"
	xmlns:scikit-surgery="https://doi.org/10.1007/s11548-020-02180-5">

	<rect width="100%" height="100%" fill="white" />
	<path d = "M 382.03 431.25 L 339.84 405.47 L 309.38 372.66 L 281.25 314.06 L 274.22 274.22 L 271.88 225.00 L 311.72 60.94 L 365.62 11.72 L 389.06 2.34 L 450.00 0.00 L 506.25 23.44 L 560.16 67.97 L 592.97 126.56 L 597.66 192.19 L 590.62 225.00 L 550.78 276.56 L 496.88 311.72 L 412.50 321.09 L 391.41 307.03 L 363.28 274.22 L 360.94 241.41 L 370.31 220.31 L 445.31 159.38 L 471.09 150.00 L 506.25 147.66 L 520.31 173.44 L 517.97 215.62 L 501.56 241.41 L 471.09 255.47" stroke="black" fill="transparent"/>
	<path d = "M 339.84 356.25 L 271.88 349.22 L 96.09 269.53 L 91.41 225.00 L 114.84 145.31 L 117.19 114.84 L 30.47 98.44 L 7.03 133.59 L 9.38 145.31 L 32.81 166.41 L 35.16 189.84 L 4.69 255.47 L 2.34 321.09 L 49.22 342.19 L 182.81 370.31" stroke="black" fill="transparent"/>
</svg>