<?xml version="1.0" encoding="UTF-8" standalone="no"?>
<!--Created with ndjsontosvg (https:https://github.com/thompson318/ndjsontosvg) 
	from the simplified Google quickdraw data set. key_id = 4757085348691968-->
<svg width="600" height="600"
	xmlns="http://www.w3.org/2000/svg">
	xmlns:ndjsontosvg="https://github.com/thompson318/ndjsontosvg"
	xmlns:quickdraw="https://quickdraw.withgoogle.com/data"
	xmlns:scikit-surgery="https://doi.org/10.1007/s11548-020-02180-5">

	<rect width="100%" height="100%" fill="white" />
	<path d = "M 302.34 517.97 L 246.09 450.00 L 178.12 344.53 L 150.00 285.94 L 121.88 180.47 L 124.22 98.44 L 133.59 82.03 L 192.19 28.12 L 257.81 2.34 L 321.09 4.69 L 412.50 46.88 L 452.34 79.69 L 480.47 121.88 L 510.94 220.31 L 510.94 302.34 L 496.88 356.25 L 466.41 400.78 L 419.53 426.56 L 377.34 426.56 L 335.16 419.53 L 274.22 375.00 L 243.75 330.47 L 222.66 246.09 L 225.00 168.75 L 255.47 107.81 L 295.31 86.72 L 330.47 84.38 L 389.06 140.62 L 445.31 232.03 L 457.03 285.94 L 447.66 328.12 L 426.56 358.59 L 386.72 365.62 L 339.84 335.16 L 314.06 276.56 L 309.38 232.03 L 318.75 189.84 L 344.53 164.06 L 365.62 166.41 L 384.38 196.88" stroke="black" fill="transparent"/>
	<path d = "M 447.66 454.69 L 168.75 403.12 L 56.25 396.09 L 28.12 412.50 L 0.00 475.78 L 7.03 534.38 L 30.47 560.16 L 98.44 585.94 L 161.72 595.31 L 269.53 590.62 L 309.38 571.88 L 384.38 520.31 L 428.91 468.75 L 424.22 442.97" stroke="black" fill="transparent"/>
	<path d = "M 70.31 464.06 L 67.97 454.69" stroke="black" fill="transparent"/>
	<path d = "M 49.22 520.31 L 49.22 520.31" stroke="black" fill="transparent"/>
</svg>