<?xml version="1.0" encoding="UTF-8" standalone="no"?>
<!--Created with ndjsontosvg (https:https://github.com/thompson318/ndjsontosvg) 
	from the simplified Google quickdraw data set. key_id = 6423209597468672-->
<svg width="600" height="600"
	xmlns="http://www.w3.org/2000/svg">
	xmlns:ndjsontosvg="https://github.com/thompson318/ndjsontosvg"
	xmlns:quickdraw="https://quickdraw.withgoogle.com/data"
	xmlns:scikit-surgery="https://doi.org/10.1007/s11548-020-02180-5">

	<rect width="100%" height="100%" fill="white" />
	<path d = "M 557.81 119.53 L 541.41 110.16 L 522.66 114.84 L 487.50 173.44 L 440.62 213.28 L 360.94 234.38 L 332.81 208.59 L 372.66 180.47 L 398.44 135.94 L 407.81 100.78 L 403.12 65.62 L 370.31 30.47 L 300.00 0.00 L 222.66 4.69 L 168.75 35.16 L 131.25 89.06 L 128.91 135.94 L 138.28 166.41 L 194.53 234.38 L 260.16 271.88 L 323.44 278.91 L 382.03 307.03 L 424.22 311.72 L 473.44 285.94 L 543.75 206.25 L 569.53 154.69 L 576.56 105.47 L 536.72 77.34 L 527.34 35.16 L 546.09 16.41 L 597.66 18.75 L 564.84 9.38 L 564.84 21.09 L 588.28 28.12 L 588.28 7.03 L 567.19 4.69 L 564.84 14.06 L 574.22 28.12 L 590.62 30.47 L 595.31 16.41 L 571.88 7.03 L 574.22 23.44 L 583.59 30.47" stroke="black" fill="transparent"/>
	<path d = "M 201.56 91.41 L 210.94 75.00 L 250.78 58.59 L 288.28 53.91 L 304.69 63.28 L 335.16 110.16 L 337.50 142.97 L 330.47 161.72 L 288.28 192.19 L 243.75 194.53 L 217.97 164.06 L 217.97 133.59 L 225.00 114.84 L 243.75 105.47 L 278.91 103.12 L 295.31 114.84 L 297.66 138.28 L 290.62 150.00 L 271.88 157.03 L 250.78 142.97" stroke="black" fill="transparent"/>
	<path d = "M 557.81 131.25 L 541.41 135.94 L 543.75 142.97 L 539.06 133.59 L 539.06 142.97 L 548.44 147.66 L 548.44 135.94 L 541.41 142.97 L 550.78 150.00 L 560.16 147.66 L 555.47 140.62" stroke="black" fill="transparent"/>
	<path d = "M 346.88 196.88 L 346.88 196.88" stroke="black" fill="transparent"/>
	<path d = "M 356.25 290.62 L 307.03 307.03 L 203.91 316.41 L 145.31 316.41 L 46.88 292.97 L 14.06 276.56 L 0.00 257.81 L 9.38 248.44 L 49.22 234.38 L 140.62 241.41 L 203.91 267.19 L 269.53 267.19" stroke="black" fill="transparent"/>
</svg>