<?xml version="1.0" encoding="UTF-8" standalone="no"?>
<!--Created with ndjsontosvg (https:https://github.com/thompson318/ndjsontosvg) 
	from the simplified Google quickdraw data set. key_id = 5682549080719360-->
<svg width="600" height="600"
	xmlns="http://www.w3.org/2000/svg">
	xmlns:ndjsontosvg="https://github.com/thompson318/ndjsontosvg"
	xmlns:quickdraw="https://quickdraw.withgoogle.com/data"
	xmlns:scikit-surgery="https://doi.org/10.1007/s11548-020-02180-5">

	<rect width="100%" height="100%" fill="white" />
	<path d = "M 192.19 442.97 L 178.12 375.00 L 189.84 297.66 L 210.94 269.53 L 255.47 257.81 L 311.72 257.81 L 485.16 285.94 L 529.69 321.09 L 541.41 375.00 L 527.34 440.62 L 513.28 464.06 L 492.19 478.12 L 391.41 494.53 L 292.97 496.88 L 192.19 473.44" stroke="black" fill="transparent"/>
	<path d = "M 363.28 267.19 L 335.16 508.59" stroke="black" fill="transparent"/>
	<path d = "M 180.47 548.44 L 147.66 541.41 L 93.75 466.41 L 67.97 351.56 L 67.97 241.41 L 79.69 173.44 L 98.44 100.78 L 121.88 46.88 L 140.62 25.78 L 140.62 14.06 L 107.81 0.00 L 75.00 7.03 L 51.56 23.44 L 14.06 75.00 L 0.00 145.31 L 4.69 264.84 L 23.44 367.97 L 56.25 433.59 L 84.38 532.03 L 135.94 585.94 L 159.38 597.66 L 185.16 592.97" stroke="black" fill="transparent"/>
	<path d = "M 72.66 25.78 L 114.84 46.88" stroke="black" fill="transparent"/>
	<path d = "M 53.91 44.53 L 91.41 91.41" stroke="black" fill="transparent"/>
</svg>