<?xml version="1.0" encoding="UTF-8" standalone="no"?>
<!--Created with ndjsontosvg (https:https://github.com/thompson318/ndjsontosvg) 
	from the simplified Google quickdraw data set. key_id = 6452498338414592-->
<svg width="600" height="600"
	xmlns="http://www.w3.org/2000/svg">
	xmlns:ndjsontosvg="https://github.com/thompson318/ndjsontosvg"
	xmlns:quickdraw="https://quickdraw.withgoogle.com/data"
	xmlns:scikit-surgery="https://doi.org/10.1007/s11548-020-02180-5">

	<rect width="100%" height="100%" fill="white" />
	<path d = "M 578.91 300.00 L 506.25 314.06 L 175.78 309.38 L 145.31 384.38 L 131.25 452.34 L 135.94 494.53 L 166.41 520.31 L 206.25 534.38 L 260.16 536.72 L 309.38 496.88 L 330.47 487.50 L 379.69 525.00 L 424.22 546.09 L 482.81 555.47 L 520.31 555.47 L 543.75 546.09 L 567.19 532.03 L 590.62 487.50 L 597.66 342.19 L 583.59 300.00" stroke="black" fill="transparent"/>
	<path d = "M 140.62 393.75 L 100.78 398.44 L 86.72 391.41 L 53.91 353.91 L 46.88 337.50 L 44.53 241.41 L 82.03 9.38 L 70.31 0.00 L 35.16 0.00 L 30.47 14.06 L 28.12 145.31 L 4.69 297.66 L 0.00 393.75 L 9.38 419.53 L 46.88 445.31 L 142.97 452.34" stroke="black" fill="transparent"/>
</svg>