<?xml version="1.0" encoding="UTF-8" standalone="no"?>
<!--Created with ndjsontosvg (https:https://github.com/thompson318/ndjsontosvg) 
	from the simplified Google quickdraw data set. key_id = 4806589863165952-->
<svg width="600" height="600"
	xmlns="http://www.w3.org/2000/svg">
	xmlns:ndjsontosvg="https://github.com/thompson318/ndjsontosvg"
	xmlns:quickdraw="https://quickdraw.withgoogle.com/data"
	xmlns:scikit-surgery="https://doi.org/10.1007/s11548-020-02180-5">

	<rect width="100%" height="100%" fill="white" />
	<path d = "M 93.75 227.34 L 178.12 227.34 L 264.84 239.06 L 379.69 239.06 L 517.97 300.00 L 534.38 318.75 L 534.38 358.59 L 487.50 435.94 L 445.31 433.59 L 365.62 396.09 L 307.03 435.94 L 171.09 435.94 L 142.97 428.91 L 11.72 353.91 L 0.00 332.81 L 0.00 290.62 L 4.69 274.22 L 25.78 248.44 L 117.19 220.31 L 180.47 217.97 L 206.25 234.38" stroke="black" fill="transparent"/>
	<path d = "M 529.69 325.78 L 539.06 196.88 L 515.62 145.31 L 492.19 114.84 L 475.78 60.94 L 532.03 98.44 L 574.22 168.75 L 590.62 227.34 L 597.66 328.12 L 541.41 389.06" stroke="black" fill="transparent"/>
	<path d = "M 424.22 0.00 L 424.22 0.00" stroke="black" fill="transparent"/>
</svg>