<?xml version="1.0" encoding="UTF-8" standalone="no"?>
<!--Created with ndjsontosvg (https:https://github.com/thompson318/ndjsontosvg) 
	from the simplified Google quickdraw data set. key_id = 4530133903867904-->
<svg width="600" height="600"
	xmlns="http://www.w3.org/2000/svg">
	xmlns:ndjsontosvg="https://github.com/thompson318/ndjsontosvg"
	xmlns:quickdraw="https://quickdraw.withgoogle.com/data"
	xmlns:scikit-surgery="https://doi.org/10.1007/s11548-020-02180-5">

	<rect width="100%" height="100%" fill="white" />
	<path d = "M 382.03 367.97 L 367.97 353.91 L 307.03 335.16 L 222.66 335.16 L 159.38 351.56 L 105.47 391.41 L 84.38 426.56 L 82.03 503.91 L 100.78 529.69 L 257.81 590.62 L 297.66 597.66 L 314.06 592.97 L 335.16 550.78 L 403.12 480.47 L 412.50 454.69 L 407.81 391.41 L 377.34 360.94 L 328.12 339.84" stroke="black" fill="transparent"/>
	<path d = "M 487.50 267.19 L 475.78 248.44 L 442.97 225.00 L 201.56 164.06 L 100.78 154.69 L 4.69 187.50 L 2.34 217.97 L 91.41 323.44 L 140.62 356.25 L 175.78 370.31 L 201.56 372.66 L 311.72 330.47 L 367.97 321.09 L 496.88 318.75 L 494.53 281.25 L 468.75 257.81" stroke="black" fill="transparent"/>
	<path d = "M 335.16 96.09 L 290.62 44.53 L 199.22 2.34 L 154.69 9.38 L 147.66 23.44 L 150.00 65.62 L 175.78 103.12 L 241.41 150.00 L 297.66 182.81 L 356.25 199.22 L 372.66 185.16 L 442.97 161.72 L 454.69 140.62 L 344.53 53.91 L 307.03 35.16" stroke="black" fill="transparent"/>
	<path d = "M 210.94 49.22 L 164.06 133.59" stroke="black" fill="transparent"/>
</svg>