<?xml version="1.0" encoding="UTF-8" standalone="no"?>
<!--Created with ndjsontosvg (https:https://github.com/thompson318/ndjsontosvg) 
	from the simplified Google quickdraw data set. key_id = 4590787671097344-->
<svg width="600" height="600"
	xmlns="http://www.w3.org/2000/svg">
	xmlns:ndjsontosvg="https://github.com/thompson318/ndjsontosvg"
	xmlns:quickdraw="https://quickdraw.withgoogle.com/data"
	xmlns:scikit-surgery="https://doi.org/10.1007/s11548-020-02180-5">

	<rect width="100%" height="100%" fill="white" />
	<path d = "M 419.53 255.47 L 339.84 243.75 L 253.12 239.06 L 185.16 250.78 L 142.97 269.53 L 91.41 309.38 L 77.34 342.19 L 75.00 370.31 L 89.06 389.06 L 145.31 398.44 L 297.66 398.44 L 367.97 379.69 L 414.84 353.91 L 438.28 325.78 L 440.62 290.62 L 412.50 264.84 L 372.66 253.12" stroke="black" fill="transparent"/>
	<path d = "M 281.25 135.94 L 229.69 126.56 L 194.53 133.59 L 157.03 171.09 L 147.66 192.19 L 147.66 220.31 L 168.75 232.03 L 201.56 236.72 L 325.78 229.69 L 360.94 206.25 L 365.62 189.84 L 358.59 171.09 L 325.78 154.69 L 250.78 145.31" stroke="black" fill="transparent"/>
	<path d = "M 384.38 175.78 L 461.72 201.56 L 527.34 234.38 L 578.91 248.44" stroke="black" fill="transparent"/>
	<path d = "M 525.00 255.47 L 522.66 285.94" stroke="black" fill="transparent"/>
	<path d = "M 560.16 229.69 L 560.16 229.69" stroke="black" fill="transparent"/>
	<path d = "M 532.03 243.75 L 597.66 232.03" stroke="black" fill="transparent"/>
	<path d = "M 135.94 178.12 L 60.94 180.47 L 4.69 201.56" stroke="black" fill="transparent"/>
	<path d = "M 16.41 187.50 L 14.06 166.41 L 0.00 150.00" stroke="black" fill="transparent"/>
	<path d = "M 28.12 220.31 L 28.12 220.31" stroke="black" fill="transparent"/>
	<path d = "M 14.06 192.19 L 18.75 203.91 L 4.69 239.06" stroke="black" fill="transparent"/>
	<path d = "M 318.75 25.78 L 278.91 4.69 L 243.75 0.00 L 220.31 9.38 L 185.16 44.53 L 171.09 86.72 L 178.12 119.53 L 189.84 126.56 L 250.78 128.91 L 321.09 110.16 L 349.22 98.44 L 356.25 84.38 L 344.53 51.56 L 309.38 37.50 L 271.88 30.47" stroke="black" fill="transparent"/>
	<path d = "M 232.03 84.38 L 328.12 150.00 L 328.12 142.97" stroke="black" fill="transparent"/>
</svg>