<?xml version="1.0" encoding="UTF-8" standalone="no"?>
<!--Created with ndjsontosvg (https:https://github.com/thompson318/ndjsontosvg) 
	from the simplified Google quickdraw data set. key_id = 4884212492533760-->
<svg width="600" height="600"
	xmlns="http://www.w3.org/2000/svg">
	xmlns:ndjsontosvg="https://github.com/thompson318/ndjsontosvg"
	xmlns:quickdraw="https://quickdraw.withgoogle.com/data"
	xmlns:scikit-surgery="https://doi.org/10.1007/s11548-020-02180-5">

	<rect width="100%" height="100%" fill="white" />
	<path d = "M 182.81 0.00 L 229.69 14.06 L 264.84 150.00 L 217.97 182.81 L 152.34 187.50 L 98.44 152.34 L 91.41 107.81 L 100.78 86.72 L 133.59 46.88 L 159.38 30.47 L 232.03 23.44 L 260.16 32.81" stroke="black" fill="transparent"/>
	<path d = "M 121.88 199.22 L 164.06 189.84 L 264.84 220.31 L 292.97 253.12 L 302.34 292.97 L 297.66 323.44 L 283.59 349.22 L 253.12 370.31 L 194.53 377.34 L 124.22 360.94 L 84.38 325.78 L 75.00 288.28 L 124.22 257.81 L 210.94 232.03 L 225.00 229.69 L 229.69 236.72" stroke="black" fill="transparent"/>
	<path d = "M 236.72 379.69 L 271.88 382.03 L 290.62 391.41 L 307.03 412.50 L 323.44 466.41 L 314.06 532.03 L 283.59 581.25 L 260.16 595.31 L 227.34 597.66 L 182.81 588.28 L 112.50 529.69 L 82.03 475.78 L 82.03 450.00 L 98.44 421.88 L 164.06 400.78 L 220.31 421.88" stroke="black" fill="transparent"/>
	<path d = "M 379.69 28.12 L 222.66 21.09 L 0.00 23.44" stroke="black" fill="transparent"/>
</svg>