<?xml version="1.0" encoding="UTF-8" standalone="no"?>
<!--Created with ndjsontosvg (https:https://github.com/thompson318/ndjsontosvg) 
	from the simplified Google quickdraw data set. key_id = 4567865267060736-->
<svg width="600" height="600"
	xmlns="http://www.w3.org/2000/svg">
	xmlns:ndjsontosvg="https://github.com/thompson318/ndjsontosvg"
	xmlns:quickdraw="https://quickdraw.withgoogle.com/data"
	xmlns:scikit-surgery="https://doi.org/10.1007/s11548-020-02180-5">

	<rect width="100%" height="100%" fill="white" />
	<path d = "M 281.25 442.97 L 241.41 386.72 L 203.91 360.94 L 107.81 356.25 L 70.31 375.00 L 51.56 405.47 L 44.53 438.28 L 42.19 508.59 L 53.91 529.69 L 96.09 569.53 L 128.91 588.28 L 194.53 597.66 L 243.75 597.66 L 276.56 588.28 L 311.72 548.44 L 323.44 513.28 L 325.78 471.09 L 241.41 384.38" stroke="black" fill="transparent"/>
	<path d = "M 171.09 203.91 L 28.12 199.22 L 7.03 208.59 L 7.03 241.41 L 32.81 267.19 L 65.62 288.28 L 124.22 307.03 L 159.38 307.03 L 178.12 292.97 L 192.19 250.78 L 192.19 215.62 L 185.16 206.25 L 152.34 178.12 L 110.16 164.06 L 63.28 161.72 L 25.78 180.47" stroke="black" fill="transparent"/>
	<path d = "M 110.16 51.56 L 44.53 32.81 L 21.09 32.81 L 2.34 58.59 L 2.34 126.56 L 18.75 140.62 L 75.00 142.97 L 114.84 114.84 L 114.84 44.53 L 96.09 16.41 L 67.97 0.00" stroke="black" fill="transparent"/>
</svg>