<?xml version="1.0" encoding="UTF-8" standalone="no"?>
<!--Created with ndjsontosvg (https:https://github.com/thompson318/ndjsontosvg) 
	from the simplified Google quickdraw data set. key_id = 4730880960495616-->
<svg width="600" height="600"
	xmlns="http://www.w3.org/2000/svg">
	xmlns:ndjsontosvg="https://github.com/thompson318/ndjsontosvg"
	xmlns:quickdraw="https://quickdraw.withgoogle.com/data"
	xmlns:scikit-surgery="https://doi.org/10.1007/s11548-020-02180-5">

	<rect width="100%" height="100%" fill="white" />
	<path d = "M 21.09 161.72 L 124.22 171.09 L 269.53 173.44 L 278.91 171.09 L 285.94 117.19 L 178.12 119.53 L 46.88 103.12 L 46.88 178.12" stroke="black" fill="transparent"/>
	<path d = "M 98.44 114.84 L 100.78 7.03 L 220.31 0.00 L 234.38 140.62" stroke="black" fill="transparent"/>
	<path d = "M 96.09 166.41 L 84.38 168.75 L 49.22 220.31 L 44.53 250.78 L 49.22 276.56 L 72.66 304.69 L 107.81 328.12 L 154.69 339.84 L 210.94 339.84 L 239.06 335.16 L 278.91 314.06 L 295.31 290.62 L 300.00 243.75 L 285.94 206.25 L 253.12 171.09 L 199.22 152.34" stroke="black" fill="transparent"/>
	<path d = "M 128.91 264.84 L 316.41 260.16 L 166.41 292.97" stroke="black" fill="transparent"/>
	<path d = "M 168.75 330.47 L 128.91 318.75 L 72.66 328.12 L 37.50 360.94 L 35.16 384.38 L 42.19 400.78 L 65.62 419.53 L 131.25 442.97 L 236.72 447.66 L 269.53 438.28 L 316.41 400.78 L 321.09 377.34 L 309.38 344.53 L 271.88 318.75 L 225.00 304.69 L 157.03 307.03 L 133.59 332.81" stroke="black" fill="transparent"/>
	<path d = "M 173.44 466.41 L 114.84 447.66 L 49.22 447.66 L 21.09 459.38 L 2.34 480.47 L 2.34 517.97 L 25.78 550.78 L 86.72 590.62 L 124.22 597.66 L 210.94 595.31 L 283.59 553.12 L 323.44 515.62 L 339.84 478.12 L 339.84 452.34 L 307.03 428.91" stroke="black" fill="transparent"/>
</svg>