<?xml version="1.0" encoding="UTF-8" standalone="no"?>
<!--Created with ndjsontosvg (https:https://github.com/thompson318/ndjsontosvg) 
	from the simplified Google quickdraw data set. key_id = 4964735625723904-->
<svg width="600" height="600"
	xmlns="http://www.w3.org/2000/svg">
	xmlns:ndjsontosvg="https://github.com/thompson318/ndjsontosvg"
	xmlns:quickdraw="https://quickdraw.withgoogle.com/data"
	xmlns:scikit-surgery="https://doi.org/10.1007/s11548-020-02180-5">

	<rect width="100%" height="100%" fill="white" />
	<path d = "M 260.16 276.56 L 248.44 417.19 L 236.72 478.12 L 236.72 543.75" stroke="black" fill="transparent"/>
	<path d = "M 267.19 271.88 L 597.66 304.69" stroke="black" fill="transparent"/>
	<path d = "M 271.88 283.59 L 189.84 276.56 L 11.72 276.56" stroke="black" fill="transparent"/>
	<path d = "M 260.16 253.12 L 271.88 84.38" stroke="black" fill="transparent"/>
	<path d = "M 267.19 267.19 L 370.31 464.06 L 398.44 508.59 L 431.25 541.41" stroke="black" fill="transparent"/>
	<path d = "M 239.06 304.69 L 121.88 414.84 L 21.09 482.81 L 7.03 515.62 L 7.03 539.06 L 0.00 541.41" stroke="black" fill="transparent"/>
	<path d = "M 267.19 271.88 L 283.59 269.53 L 342.19 227.34 L 419.53 131.25" stroke="black" fill="transparent"/>
	<path d = "M 283.59 267.19 L 210.94 203.91 L 82.03 0.00" stroke="black" fill="transparent"/>
</svg>