<?xml version="1.0" encoding="UTF-8" standalone="no"?>
<!--Created with ndjsontosvg (https:https://github.com/thompson318/ndjsontosvg) 
	from the simplified Google quickdraw data set. key_id = 4744146558386176-->
<svg width="600" height="600"
	xmlns="http://www.w3.org/2000/svg">
	xmlns:ndjsontosvg="https://github.com/thompson318/ndjsontosvg"
	xmlns:quickdraw="https://quickdraw.withgoogle.com/data"
	xmlns:scikit-surgery="https://doi.org/10.1007/s11548-020-02180-5">

	<rect width="100%" height="100%" fill="white" />
	<path d = "M 187.50 339.84 L 91.41 433.59 L 70.31 527.34 L 75.00 543.75 L 100.78 588.28 L 117.19 595.31 L 180.47 597.66 L 304.69 583.59 L 358.59 567.19 L 398.44 527.34 L 412.50 464.06 L 442.97 403.12 L 438.28 384.38 L 391.41 339.84 L 220.31 307.03 L 173.44 321.09 L 152.34 365.62 L 100.78 391.41 L 56.25 400.78 L 39.84 370.31 L 28.12 332.81 L 28.12 311.72 L 49.22 260.16 L 96.09 194.53 L 133.59 166.41 L 215.62 154.69 L 300.00 166.41 L 353.91 192.19 L 398.44 260.16 L 384.38 295.31 L 349.22 330.47 L 342.19 332.81 L 342.19 328.12" stroke="black" fill="transparent"/>
	<path d = "M 79.69 199.22 L 46.88 203.91 L 16.41 194.53 L 2.34 178.12 L 0.00 142.97 L 14.06 91.41 L 91.41 9.38 L 138.28 0.00 L 192.19 21.09 L 213.28 84.38 L 208.59 110.16 L 187.50 152.34" stroke="black" fill="transparent"/>
	<path d = "M 126.56 86.72 L 180.47 75.00" stroke="black" fill="transparent"/>
</svg>