<?xml version="1.0" encoding="UTF-8" standalone="no"?>
<!--Created with ndjsontosvg (https:https://github.com/thompson318/ndjsontosvg) 
	from the simplified Google quickdraw data set. key_id = 5532457589800960-->
<svg width="600" height="600"
	xmlns="http://www.w3.org/2000/svg">
	xmlns:ndjsontosvg="https://github.com/thompson318/ndjsontosvg"
	xmlns:quickdraw="https://quickdraw.withgoogle.com/data"
	xmlns:scikit-surgery="https://doi.org/10.1007/s11548-020-02180-5">

	<rect width="100%" height="100%" fill="white" />
	<path d = "M 112.50 84.38 L 145.31 23.44 L 182.81 0.00 L 220.31 0.00 L 250.78 7.03 L 290.62 51.56 L 309.38 84.38 L 309.38 128.91 L 285.94 159.38 L 232.03 182.81 L 199.22 182.81 L 166.41 161.72 L 114.84 93.75 L 107.81 51.56" stroke="black" fill="transparent"/>
	<path d = "M 210.94 187.50 L 194.53 206.25 L 178.12 248.44 L 173.44 276.56 L 178.12 297.66 L 206.25 330.47 L 271.88 377.34 L 323.44 393.75 L 335.16 379.69 L 356.25 297.66 L 356.25 234.38 L 323.44 173.44 L 278.91 145.31 L 239.06 142.97" stroke="black" fill="transparent"/>
	<path d = "M 210.94 353.91 L 65.62 363.28 L 0.00 431.25 L 4.69 499.22 L 30.47 539.06 L 77.34 574.22 L 145.31 595.31 L 203.91 597.66 L 377.34 583.59 L 562.50 562.50 L 574.22 546.09 L 574.22 457.03 L 567.19 435.94 L 525.00 386.72 L 475.78 356.25 L 405.47 344.53 L 314.06 370.31" stroke="black" fill="transparent"/>
</svg>