<?xml version="1.0" encoding="UTF-8" standalone="no"?>
<!--Created with ndjsontosvg (https:https://github.com/thompson318/ndjsontosvg) 
	from the simplified Google quickdraw data set. key_id = 6313482381164544-->
<svg width="600" height="600"
	xmlns="http://www.w3.org/2000/svg">
	xmlns:ndjsontosvg="https://github.com/thompson318/ndjsontosvg"
	xmlns:quickdraw="https://quickdraw.withgoogle.com/data"
	xmlns:scikit-surgery="https://doi.org/10.1007/s11548-020-02180-5">

	<rect width="100%" height="100%" fill="white" />
	<path d = "M 318.75 412.50 L 225.00 386.72 L 105.47 377.34 L 70.31 389.06 L 28.12 426.56 L 0.00 482.81 L 0.00 510.94 L 14.06 534.38 L 49.22 564.84 L 91.41 581.25 L 196.88 597.66 L 255.47 597.66 L 302.34 583.59 L 400.78 522.66 L 452.34 464.06 L 457.03 431.25 L 445.31 419.53 L 274.22 410.16" stroke="black" fill="transparent"/>
	<path d = "M 72.66 210.94 L 53.91 246.09 L 51.56 302.34 L 58.59 321.09 L 75.00 337.50 L 142.97 353.91 L 262.50 365.62 L 302.34 365.62 L 339.84 344.53 L 358.59 300.00 L 353.91 248.44 L 325.78 217.97 L 264.84 189.84 L 192.19 171.09 L 121.88 166.41 L 82.03 196.88 L 44.53 239.06" stroke="black" fill="transparent"/>
	<path d = "M 239.06 0.00 L 178.12 2.34 L 135.94 23.44 L 100.78 72.66 L 96.09 110.16 L 128.91 159.38 L 161.72 178.12 L 203.91 175.78 L 292.97 131.25 L 314.06 105.47 L 321.09 60.94 L 295.31 35.16 L 243.75 14.06" stroke="black" fill="transparent"/>
</svg>