<?xml version="1.0" encoding="UTF-8" standalone="no"?>
<!--Created with ndjsontosvg (https:https://github.com/thompson318/ndjsontosvg) 
	from the simplified Google quickdraw data set. key_id = 4846625799274496-->
<svg width="600" height="600"
	xmlns="http://www.w3.org/2000/svg">
	xmlns:ndjsontosvg="https://github.com/thompson318/ndjsontosvg"
	xmlns:quickdraw="https://quickdraw.withgoogle.com/data"
	xmlns:scikit-surgery="https://doi.org/10.1007/s11548-020-02180-5">

	<rect width="100%" height="100%" fill="white" />
	<path d = "M 222.66 363.28 L 175.78 349.22 L 110.16 382.03 L 58.59 447.66 L 49.22 478.12 L 53.91 520.31 L 82.03 560.16 L 126.56 585.94 L 330.47 597.66 L 400.78 583.59 L 424.22 555.47 L 445.31 452.34 L 442.97 379.69 L 428.91 342.19 L 405.47 325.78 L 330.47 325.78 L 246.09 342.19 L 175.78 367.97" stroke="black" fill="transparent"/>
	<path d = "M 142.97 356.25 L 98.44 346.88 L 58.59 325.78 L 30.47 295.31 L 16.41 269.53 L 28.12 222.66 L 70.31 126.56 L 100.78 100.78 L 138.28 82.03 L 243.75 86.72 L 318.75 124.22 L 346.88 147.66 L 372.66 199.22 L 351.56 318.75" stroke="black" fill="transparent"/>
	<path d = "M 44.53 171.09 L 23.44 150.00 L 4.69 112.50 L 2.34 89.06 L 23.44 60.94 L 51.56 42.19 L 110.16 16.41 L 194.53 0.00 L 269.53 18.75 L 295.31 39.84 L 295.31 67.97 L 288.28 86.72" stroke="black" fill="transparent"/>
	<path d = "M 142.97 65.62 L 187.50 70.31 L 217.97 51.56 L 217.97 39.84" stroke="black" fill="transparent"/>
</svg>