<?xml version="1.0" encoding="UTF-8" standalone="no"?>
<!--Created with ndjsontosvg (https:https://github.com/thompson318/ndjsontosvg) 
	from the simplified Google quickdraw data set. key_id = 4995561075769344-->
<svg width="600" height="600"
	xmlns="http://www.w3.org/2000/svg">
	xmlns:ndjsontosvg="https://github.com/thompson318/ndjsontosvg"
	xmlns:quickdraw="https://quickdraw.withgoogle.com/data"
	xmlns:scikit-surgery="https://doi.org/10.1007/s11548-020-02180-5">

	<rect width="100%" height="100%" fill="white" />
	<path d = "M 67.97 2.34 L 65.62 105.47" stroke="black" fill="transparent"/>
	<path d = "M 75.00 0.00 L 217.97 0.00 L 222.66 110.16 L 321.09 103.12 L 332.81 110.16 L 304.69 171.09 L 7.03 173.44 L 14.06 114.84 L 65.62 110.16" stroke="black" fill="transparent"/>
	<path d = "M 82.03 157.03 L 42.19 171.09 L 23.44 189.84 L 21.09 253.12 L 37.50 295.31 L 60.94 321.09 L 110.16 349.22 L 232.03 358.59 L 264.84 337.50 L 271.88 283.59 L 262.50 234.38 L 243.75 203.91 L 220.31 185.16" stroke="black" fill="transparent"/>
	<path d = "M 103.12 344.53 L 63.28 363.28 L 30.47 400.78 L 11.72 435.94 L 0.00 492.19 L 7.03 517.97 L 91.41 576.56 L 131.25 592.97 L 168.75 597.66 L 250.78 597.66 L 302.34 574.22 L 321.09 553.12 L 351.56 452.34 L 351.56 419.53 L 307.03 372.66 L 276.56 353.91 L 246.09 351.56 L 206.25 396.09" stroke="black" fill="transparent"/>
	<path d = "M 175.78 398.44 L 185.16 400.78 L 182.81 405.47" stroke="black" fill="transparent"/>
	<path d = "M 182.81 464.06 L 178.12 473.44" stroke="black" fill="transparent"/>
</svg>