<?xml version="1.0" encoding="UTF-8" standalone="no"?>
<!--Created with ndjsontosvg (https:https://github.com/thompson318/ndjsontosvg) 
	from the simplified Google quickdraw data set. key_id = 6469055156322304-->
<svg width="600" height="600"
	xmlns="http://www.w3.org/2000/svg">
	xmlns:ndjsontosvg="https://github.com/thompson318/ndjsontosvg"
	xmlns:quickdraw="https://quickdraw.withgoogle.com/data"
	xmlns:scikit-surgery="https://doi.org/10.1007/s11548-020-02180-5">

	<rect width="100%" height="100%" fill="white" />
	<path d = "M 264.84 225.00 L 178.12 227.34 L 133.59 196.88 L 131.25 140.62 L 161.72 67.97 L 192.19 37.50 L 260.16 0.00 L 353.91 7.03 L 396.09 39.84 L 412.50 84.38 L 410.16 117.19 L 367.97 159.38 L 229.69 187.50 L 173.44 213.28 L 63.28 307.03 L 28.12 356.25 L 4.69 407.81 L 0.00 435.94 L 2.34 489.84 L 9.38 517.97 L 44.53 567.19 L 103.12 592.97 L 182.81 595.31 L 232.03 585.94 L 323.44 550.78 L 442.97 435.94 L 454.69 405.47 L 459.38 332.81 L 431.25 262.50 L 379.69 215.62 L 283.59 175.78" stroke="black" fill="transparent"/>
	<path d = "M 203.91 124.22 L 199.22 208.59 L 217.97 201.56 L 255.47 138.28 L 271.88 98.44 L 236.72 91.41" stroke="black" fill="transparent"/>
	<path d = "M 323.44 49.22 L 323.44 49.22" stroke="black" fill="transparent"/>
	<path d = "M 225.00 70.31 L 225.00 70.31" stroke="black" fill="transparent"/>
</svg>