<?xml version="1.0" encoding="UTF-8" standalone="no"?>
<!--Created with ndjsontosvg (https:https://github.com/thompson318/ndjsontosvg) 
	from the simplified Google quickdraw data set. key_id = 4714110916755456-->
<svg width="600" height="600"
	xmlns="http://www.w3.org/2000/svg">
	xmlns:ndjsontosvg="https://github.com/thompson318/ndjsontosvg"
	xmlns:quickdraw="https://quickdraw.withgoogle.com/data"
	xmlns:scikit-surgery="https://doi.org/10.1007/s11548-020-02180-5">

	<rect width="100%" height="100%" fill="white" />
	<path d = "M 440.62 25.78 L 382.03 9.38 L 300.00 7.03 L 246.09 18.75 L 192.19 49.22 L 138.28 89.06 L 93.75 138.28 L 53.91 203.91 L 28.12 264.84 L 18.75 386.72 L 39.84 438.28 L 77.34 480.47 L 124.22 513.28 L 180.47 539.06 L 241.41 553.12 L 309.38 555.47 L 372.66 548.44 L 431.25 525.00 L 482.81 489.84 L 525.00 445.31 L 557.81 391.41 L 595.31 264.84 L 597.66 203.91 L 590.62 147.66 L 567.19 96.09 L 534.38 53.91 L 487.50 25.78 L 426.56 14.06 L 360.94 9.38" stroke="black" fill="transparent"/>
	<path d = "M 150.00 100.78 L 107.81 194.53 L 98.44 248.44 L 236.72 257.81 L 262.50 246.09 L 290.62 201.56 L 314.06 121.88 L 314.06 53.91 L 264.84 56.25 L 152.34 86.72 L 117.19 105.47" stroke="black" fill="transparent"/>
	<path d = "M 419.53 161.72 L 360.94 192.19 L 264.84 260.16 L 203.91 316.41 L 166.41 360.94 L 260.16 370.31 L 367.97 400.78 L 410.16 400.78 L 431.25 382.03 L 457.03 332.81 L 487.50 225.00 L 492.19 182.81 L 482.81 173.44 L 389.06 178.12" stroke="black" fill="transparent"/>
	<path d = "M 323.44 16.41 L 311.72 35.16 L 316.41 96.09 L 330.47 128.91 L 344.53 135.94 L 503.91 126.56 L 527.34 110.16 L 536.72 72.66 L 475.78 21.09 L 428.91 0.00 L 386.72 0.00 L 311.72 16.41" stroke="black" fill="transparent"/>
	<path d = "M 131.25 264.84 L 114.84 257.81 L 0.00 339.84 L 65.62 349.22 L 105.47 454.69 L 135.94 482.81 L 196.88 510.94 L 232.03 375.00 L 185.16 356.25 L 133.59 304.69 L 96.09 285.94" stroke="black" fill="transparent"/>
	<path d = "M 292.97 428.91 L 367.97 494.53 L 398.44 508.59 L 414.84 508.59 L 442.97 487.50 L 468.75 457.03 L 501.56 384.38 L 393.75 391.41 L 290.62 440.62" stroke="black" fill="transparent"/>
</svg>