<?xml version="1.0" encoding="UTF-8" standalone="no"?>
<!--Created with ndjsontosvg (https:https://github.com/thompson318/ndjsontosvg) 
	from the simplified Google quickdraw data set. key_id = 5657874346803200-->
<svg width="600" height="600"
	xmlns="http://www.w3.org/2000/svg">
	xmlns:ndjsontosvg="https://github.com/thompson318/ndjsontosvg"
	xmlns:quickdraw="https://quickdraw.withgoogle.com/data"
	xmlns:scikit-surgery="https://doi.org/10.1007/s11548-020-02180-5">

	<rect width="100%" height="100%" fill="white" />
	<path d = "M 585.94 152.34 L 562.50 98.44 L 527.34 56.25 L 482.81 28.12 L 414.84 0.00 L 339.84 9.38 L 262.50 51.56 L 164.06 84.38 L 63.28 175.78 L 32.81 257.81 L 7.03 396.09 L 7.03 440.62 L 25.78 508.59 L 53.91 527.34 L 107.81 541.41 L 389.06 543.75 L 421.88 527.34 L 459.38 489.84 L 562.50 342.19 L 578.91 318.75 L 590.62 276.56 L 597.66 217.97 L 590.62 196.88 L 571.88 168.75 L 529.69 133.59" stroke="black" fill="transparent"/>
	<path d = "M 564.84 107.81 L 461.72 91.41 L 314.06 117.19 L 318.75 126.56 L 421.88 173.44 L 590.62 210.94 L 571.88 215.62 L 534.38 248.44 L 471.09 283.59 L 314.06 318.75 L 75.00 330.47 L 46.88 250.78 L 0.00 171.09 L 32.81 154.69 L 82.03 142.97 L 330.47 142.97 L 442.97 337.50 L 487.50 367.97 L 571.88 391.41 L 597.66 410.16 L 217.97 410.16 L 180.47 417.19 L 178.12 194.53 L 128.91 241.41 L 23.44 304.69 L 58.59 454.69 L 75.00 492.19 L 84.38 494.53 L 260.16 417.19 L 274.22 431.25 L 297.66 525.00 L 318.75 564.84 L 325.78 562.50 L 393.75 515.62 L 442.97 447.66 L 438.28 438.28 L 386.72 407.81 L 337.50 382.03 L 300.00 375.00 L 300.00 527.34 L 330.47 464.06 L 332.81 487.50 L 344.53 485.16 L 407.81 447.66 L 358.59 473.44 L 330.47 506.25 L 323.44 517.97 L 367.97 496.88" stroke="black" fill="transparent"/>
	<path d = "M 356.25 126.56 L 344.53 84.38 L 344.53 39.84 L 377.34 35.16 L 459.38 91.41 L 325.78 96.09" stroke="black" fill="transparent"/>
	<path d = "M 325.78 96.09 L 253.12 84.38 L 248.44 39.84 L 227.34 145.31 L 203.91 203.91 L 203.91 194.53" stroke="black" fill="transparent"/>
</svg>