<?xml version="1.0" encoding="UTF-8" standalone="no"?>
<!--Created with ndjsontosvg (https:https://github.com/thompson318/ndjsontosvg) 
	from the simplified Google quickdraw data set. key_id = 5602389824372736-->
<svg width="600" height="600"
	xmlns="http://www.w3.org/2000/svg">
	xmlns:ndjsontosvg="https://github.com/thompson318/ndjsontosvg"
	xmlns:quickdraw="https://quickdraw.withgoogle.com/data"
	xmlns:scikit-surgery="https://doi.org/10.1007/s11548-020-02180-5">

	<rect width="100%" height="100%" fill="white" />
	<path d = "M 225.00 25.78 L 215.62 2.34 L 189.84 0.00 L 86.72 75.00 L 56.25 117.19 L 35.16 159.38 L 14.06 215.62 L 0.00 278.91 L 9.38 400.78 L 51.56 496.88 L 77.34 529.69 L 119.53 562.50 L 154.69 583.59 L 199.22 592.97 L 314.06 597.66 L 367.97 588.28 L 447.66 555.47 L 487.50 529.69 L 513.28 501.56 L 543.75 433.59 L 553.12 389.06 L 553.12 292.97 L 536.72 206.25 L 506.25 138.28 L 473.44 89.06 L 433.59 56.25 L 367.97 18.75 L 325.78 9.38 L 187.50 0.00 L 171.09 16.41" stroke="black" fill="transparent"/>
	<path d = "M 175.78 16.41 L 234.38 70.31 L 241.41 82.03 L 232.03 107.81 L 185.16 142.97 L 166.41 147.66 L 75.00 145.31" stroke="black" fill="transparent"/>
	<path d = "M 274.22 257.81 L 246.09 236.72 L 217.97 241.41 L 187.50 274.22 L 178.12 295.31 L 178.12 335.16 L 217.97 365.62 L 267.19 365.62 L 290.62 342.19 L 292.97 309.38 L 285.94 290.62" stroke="black" fill="transparent"/>
	<path d = "M 382.03 86.72 L 358.59 91.41 L 344.53 105.47 L 318.75 145.31 L 316.41 196.88 L 332.81 215.62 L 356.25 229.69 L 386.72 236.72 L 417.19 234.38 L 440.62 225.00 L 461.72 192.19 L 447.66 147.66" stroke="black" fill="transparent"/>
	<path d = "M 461.72 407.81 L 464.06 389.06 L 447.66 365.62 L 421.88 356.25 L 398.44 365.62 L 386.72 405.47 L 386.72 431.25 L 405.47 464.06 L 426.56 471.09 L 452.34 473.44 L 489.84 459.38 L 501.56 445.31 L 496.88 417.19" stroke="black" fill="transparent"/>
	<path d = "M 51.56 307.03 L 25.78 372.66 L 21.09 421.88 L 32.81 431.25 L 75.00 431.25 L 91.41 417.19 L 93.75 405.47 L 77.34 344.53 L 49.22 311.72 L 35.16 302.34" stroke="black" fill="transparent"/>
	<path d = "M 147.66 553.12 L 124.22 510.94 L 126.56 485.16 L 150.00 468.75 L 194.53 459.38 L 250.78 468.75 L 276.56 480.47 L 321.09 517.97 L 339.84 550.78" stroke="black" fill="transparent"/>
</svg>