<?xml version="1.0" encoding="UTF-8" standalone="no"?>
<!--Created with ndjsontosvg (https:https://github.com/thompson318/ndjsontosvg) 
	from the simplified Google quickdraw data set. key_id = 4694406659571712-->
<svg width="600" height="600"
	xmlns="http://www.w3.org/2000/svg">
	xmlns:ndjsontosvg="https://github.com/thompson318/ndjsontosvg"
	xmlns:quickdraw="https://quickdraw.withgoogle.com/data"
	xmlns:scikit-surgery="https://doi.org/10.1007/s11548-020-02180-5">

	<rect width="100%" height="100%" fill="white" />
	<path d = "M 300.00 508.59 L 264.84 534.38 L 196.88 562.50 L 145.31 567.19 L 121.88 562.50 L 46.88 471.09 L 39.84 433.59 L 4.69 353.91 L 0.00 278.91 L 7.03 225.00 L 37.50 150.00 L 67.97 96.09 L 103.12 44.53 L 147.66 9.38 L 222.66 0.00 L 292.97 2.34 L 321.09 28.12 L 410.16 290.62 L 419.53 356.25 L 414.84 473.44 L 396.09 522.66 L 382.03 541.41 L 349.22 574.22 L 297.66 597.66 L 278.91 597.66 L 217.97 555.47 L 121.88 513.28" stroke="black" fill="transparent"/>
	<path d = "M 138.28 46.88 L 182.81 164.06 L 159.38 185.16 L 119.53 260.16 L 32.81 248.44" stroke="black" fill="transparent"/>
	<path d = "M 194.53 142.97 L 217.97 152.34 L 360.94 154.69" stroke="black" fill="transparent"/>
	<path d = "M 145.31 260.16 L 147.66 274.22 L 182.81 335.16 L 199.22 375.00 L 210.94 384.38 L 297.66 372.66 L 332.81 351.56 L 400.78 339.84" stroke="black" fill="transparent"/>
</svg>