<?xml version="1.0" encoding="UTF-8" standalone="no"?>
<!--Created with ndjsontosvg (https:https://github.com/thompson318/ndjsontosvg) 
	from the simplified Google quickdraw data set. key_id = 6203575774478336-->
<svg width="600" height="600"
	xmlns="http://www.w3.org/2000/svg">
	xmlns:ndjsontosvg="https://github.com/thompson318/ndjsontosvg"
	xmlns:quickdraw="https://quickdraw.withgoogle.com/data"
	xmlns:scikit-surgery="https://doi.org/10.1007/s11548-020-02180-5">

	<rect width="100%" height="100%" fill="white" />
	<path d = "M 428.91 28.12 L 337.50 21.09 L 232.03 0.00 L 206.25 0.00 L 194.53 7.03 L 189.84 37.50 L 199.22 79.69 L 239.06 203.91 L 253.12 391.41 L 227.34 386.72 L 171.09 351.56 L 84.38 325.78 L 30.47 330.47 L 7.03 342.19 L 0.00 356.25 L 14.06 445.31 L 35.16 496.88 L 124.22 567.19 L 164.06 581.25 L 302.34 597.66 L 384.38 592.97 L 445.31 578.91 L 478.12 539.06 L 489.84 489.84 L 485.16 454.69 L 475.78 447.66 L 459.38 133.59 L 428.91 18.75" stroke="black" fill="transparent"/>
	<path d = "M 182.81 180.47 L 346.88 178.12 L 438.28 187.50" stroke="black" fill="transparent"/>
	<path d = "M 196.88 114.84 L 337.50 98.44 L 445.31 105.47 L 461.72 114.84" stroke="black" fill="transparent"/>
</svg>