<?xml version="1.0" encoding="UTF-8" standalone="no"?>
<!--Created with ndjsontosvg (https:https://github.com/thompson318/ndjsontosvg) 
	from the simplified Google quickdraw data set. key_id = 5906333788274688-->
<svg width="600" height="600"
	xmlns="http://www.w3.org/2000/svg">
	xmlns:ndjsontosvg="https://github.com/thompson318/ndjsontosvg"
	xmlns:quickdraw="https://quickdraw.withgoogle.com/data"
	xmlns:scikit-surgery="https://doi.org/10.1007/s11548-020-02180-5">

	<rect width="100%" height="100%" fill="white" />
	<path d = "M 0.00 140.62 L 35.16 152.34 L 75.00 147.66 L 173.44 96.09 L 222.66 131.25 L 260.16 142.97 L 307.03 138.28 L 382.03 114.84 L 475.78 145.31 L 567.19 138.28" stroke="black" fill="transparent"/>
	<path d = "M 217.97 128.91 L 225.00 103.12 L 215.62 49.22 L 222.66 44.53 L 464.06 44.53 L 578.91 30.47 L 590.62 35.16 L 597.66 51.56 L 583.59 147.66" stroke="black" fill="transparent"/>
	<path d = "M 283.59 28.12 L 283.59 11.72 L 332.81 23.44 L 367.97 7.03 L 363.28 39.84" stroke="black" fill="transparent"/>
	<path d = "M 375.00 39.84 L 419.53 37.50 L 428.91 2.34 L 494.53 0.00 L 508.59 7.03 L 520.31 35.16" stroke="black" fill="transparent"/>
</svg>