<?xml version="1.0" encoding="UTF-8" standalone="no"?>
<!--Created with ndjsontosvg (https:https://github.com/thompson318/ndjsontosvg) 
	from the simplified Google quickdraw data set. key_id = 5679321744146432-->
<svg width="600" height="600"
	xmlns="http://www.w3.org/2000/svg">
	xmlns:ndjsontosvg="https://github.com/thompson318/ndjsontosvg"
	xmlns:quickdraw="https://quickdraw.withgoogle.com/data"
	xmlns:scikit-surgery="https://doi.org/10.1007/s11548-020-02180-5">

	<rect width="100%" height="100%" fill="white" />
	<path d = "M 121.88 140.62 L 168.75 206.25 L 210.94 234.38 L 267.19 260.16 L 325.78 267.19 L 461.72 255.47 L 473.44 250.78 L 485.16 229.69 L 513.28 105.47 L 508.59 96.09 L 304.69 65.62 L 227.34 46.88 L 65.62 37.50 L 70.31 63.28 L 96.09 105.47 L 117.19 133.59 L 147.66 152.34" stroke="black" fill="transparent"/>
	<path d = "M 248.44 46.88 L 292.97 35.16 L 344.53 0.00 L 353.91 56.25" stroke="black" fill="transparent"/>
	<path d = "M 517.97 107.81 L 517.97 58.59 L 527.34 21.09 L 590.62 28.12 L 597.66 39.84 L 590.62 147.66 L 581.25 159.38 L 508.59 150.00 L 510.94 215.62 L 541.41 255.47 L 532.03 269.53 L 489.84 271.88 L 482.81 257.81 L 489.84 239.06" stroke="black" fill="transparent"/>
	<path d = "M 0.00 288.28 L 21.09 314.06 L 49.22 332.81 L 96.09 318.75 L 117.19 302.34 L 126.56 300.00 L 161.72 318.75 L 182.81 314.06 L 222.66 292.97 L 250.78 321.09 L 264.84 325.78 L 278.91 323.44 L 304.69 307.03 L 316.41 307.03 L 346.88 337.50" stroke="black" fill="transparent"/>
</svg>