<?xml version="1.0" encoding="UTF-8" standalone="no"?>
<!--Created with ndjsontosvg (https:https://github.com/thompson318/ndjsontosvg) 
	from the simplified Google quickdraw data set. key_id = 6448106897932288-->
<svg width="600" height="600"
	xmlns="http://www.w3.org/2000/svg">
	xmlns:ndjsontosvg="https://github.com/thompson318/ndjsontosvg"
	xmlns:quickdraw="https://quickdraw.withgoogle.com/data"
	xmlns:scikit-surgery="https://doi.org/10.1007/s11548-020-02180-5">

	<rect width="100%" height="100%" fill="white" />
	<path d = "M 100.78 25.78 L 86.72 98.44 L 86.72 119.53 L 93.75 121.88 L 157.03 124.22 L 227.34 135.94 L 468.75 140.62 L 562.50 112.50 L 595.31 86.72 L 597.66 39.84 L 529.69 14.06 L 393.75 0.00 L 253.12 18.75 L 107.81 21.09" stroke="black" fill="transparent"/>
	<path d = "M 2.34 121.88 L 0.00 112.50 L 16.41 86.72 L 28.12 117.19 L 49.22 114.84 L 84.38 138.28 L 133.59 145.31 L 180.47 164.06 L 222.66 154.69 L 292.97 171.09 L 321.09 166.41 L 365.62 175.78 L 585.94 128.91" stroke="black" fill="transparent"/>
	<path d = "M 417.19 89.06 L 367.97 44.53 L 328.12 23.44" stroke="black" fill="transparent"/>
	<path d = "M 421.88 96.09 L 292.97 86.72 L 75.00 98.44" stroke="black" fill="transparent"/>
	<path d = "M 309.38 35.16 L 285.94 30.47 L 278.91 37.50 L 311.72 56.25" stroke="black" fill="transparent"/>
</svg>