<?xml version="1.0" encoding="UTF-8" standalone="no"?>
<!--Created with ndjsontosvg (https:https://github.com/thompson318/ndjsontosvg) 
	from the simplified Google quickdraw data set. key_id = 5133574506283008-->
<svg width="600" height="600"
	xmlns="http://www.w3.org/2000/svg">
	xmlns:ndjsontosvg="https://github.com/thompson318/ndjsontosvg"
	xmlns:quickdraw="https://quickdraw.withgoogle.com/data"
	xmlns:scikit-surgery="https://doi.org/10.1007/s11548-020-02180-5">

	<rect width="100%" height="100%" fill="white" />
	<path d = "M 124.22 23.44 L 103.12 23.44 L 93.75 30.47 L 103.12 35.16 L 407.81 35.16" stroke="black" fill="transparent"/>
	<path d = "M 93.75 67.97 L 117.19 70.31 L 227.34 145.31 L 283.59 161.72 L 379.69 161.72 L 407.81 145.31 L 435.94 110.16 L 440.62 58.59 L 431.25 46.88" stroke="black" fill="transparent"/>
	<path d = "M 117.19 79.69 L 117.19 63.28" stroke="black" fill="transparent"/>
	<path d = "M 112.50 67.97 L 117.19 53.91" stroke="black" fill="transparent"/>
	<path d = "M 166.41 30.47 L 187.50 25.78 L 215.62 0.00 L 208.59 28.12 L 248.44 30.47 L 239.06 25.78" stroke="black" fill="transparent"/>
	<path d = "M 0.00 199.22 L 37.50 166.41 L 56.25 159.38 L 98.44 164.06 L 128.91 175.78 L 234.38 180.47 L 283.59 196.88 L 442.97 194.53 L 517.97 154.69 L 597.66 152.34" stroke="black" fill="transparent"/>
	<path d = "M 28.12 189.84 L 75.00 164.06 L 152.34 147.66 L 164.06 147.66 L 210.94 185.16 L 285.94 196.88 L 400.78 196.88 L 426.56 178.12 L 457.03 168.75 L 534.38 161.72" stroke="black" fill="transparent"/>
</svg>