<?xml version="1.0" encoding="UTF-8" standalone="no"?>
<!--Created with ndjsontosvg (https:https://github.com/thompson318/ndjsontosvg) 
	from the simplified Google quickdraw data set. key_id = 4577967378268160-->
<svg width="600" height="600"
	xmlns="http://www.w3.org/2000/svg">
	xmlns:ndjsontosvg="https://github.com/thompson318/ndjsontosvg"
	xmlns:quickdraw="https://quickdraw.withgoogle.com/data"
	xmlns:scikit-surgery="https://doi.org/10.1007/s11548-020-02180-5">

	<rect width="100%" height="100%" fill="white" />
	<path d = "M 257.81 107.81 L 452.34 98.44 L 597.66 79.69" stroke="black" fill="transparent"/>
	<path d = "M 309.38 53.91 L 393.75 65.62 L 592.97 67.97" stroke="black" fill="transparent"/>
	<path d = "M 592.97 86.72 L 349.22 164.06 L 246.09 180.47 L 213.28 178.12 L 199.22 168.75 L 70.31 166.41 L 93.75 93.75 L 316.41 126.56" stroke="black" fill="transparent"/>
	<path d = "M 114.84 91.41 L 248.44 82.03 L 344.53 60.94" stroke="black" fill="transparent"/>
	<path d = "M 121.88 63.28 L 93.75 93.75 L 128.91 49.22 L 346.88 44.53" stroke="black" fill="transparent"/>
	<path d = "M 344.53 44.53 L 248.44 126.56 L 241.41 119.53" stroke="black" fill="transparent"/>
	<path d = "M 46.88 63.28 L 46.88 39.84 L 67.97 4.69 L 77.34 0.00 L 105.47 9.38 L 128.91 37.50 L 98.44 91.41" stroke="black" fill="transparent"/>
	<path d = "M 51.56 63.28 L 98.44 86.72" stroke="black" fill="transparent"/>
	<path d = "M 72.66 82.03 L 39.84 154.69 L 23.44 107.81 L 35.16 140.62 L 46.88 138.28 L 23.44 164.06 L 0.00 171.09 L 21.09 145.31 L 23.44 161.72 L 56.25 142.97 L 56.25 159.38 L 49.22 166.41 L 23.44 164.06 L 14.06 154.69 L 72.66 189.84 L 67.97 180.47" stroke="black" fill="transparent"/>
</svg>