<?xml version="1.0" encoding="UTF-8" standalone="no"?>
<!--Created with ndjsontosvg (https:https://github.com/thompson318/ndjsontosvg) 
	from the simplified Google quickdraw data set. key_id = 5028035105390592-->
<svg width="600" height="600"
	xmlns="http://www.w3.org/2000/svg">
	xmlns:ndjsontosvg="https://github.com/thompson318/ndjsontosvg"
	xmlns:quickdraw="https://quickdraw.withgoogle.com/data"
	xmlns:scikit-surgery="https://doi.org/10.1007/s11548-020-02180-5">

	<rect width="100%" height="100%" fill="white" />
	<path d = "M 307.03 2.34 L 276.56 2.34 L 208.59 39.84 L 164.06 84.38 L 150.00 121.88 L 154.69 175.78 L 189.84 236.72 L 227.34 253.12 L 281.25 255.47 L 342.19 241.41 L 377.34 213.28 L 410.16 166.41 L 426.56 110.16 L 412.50 58.59 L 391.41 32.81 L 330.47 4.69 L 290.62 2.34" stroke="black" fill="transparent"/>
	<path d = "M 410.16 46.88 L 405.47 37.50 L 431.25 21.09 L 506.25 4.69 L 548.44 4.69 L 583.59 32.81 L 595.31 91.41" stroke="black" fill="transparent"/>
	<path d = "M 412.50 98.44 L 438.28 84.38 L 487.50 72.66 L 548.44 70.31 L 574.22 82.03 L 588.28 96.09 L 597.66 126.56 L 588.28 128.91" stroke="black" fill="transparent"/>
	<path d = "M 414.84 147.66 L 546.09 142.97 L 581.25 164.06 L 590.62 192.19" stroke="black" fill="transparent"/>
	<path d = "M 386.72 187.50 L 473.44 185.16 L 501.56 192.19 L 534.38 215.62 L 553.12 264.84" stroke="black" fill="transparent"/>
	<path d = "M 199.22 25.78 L 192.19 16.41 L 103.12 2.34 L 53.91 18.75 L 30.47 37.50 L 11.72 70.31 L 0.00 140.62" stroke="black" fill="transparent"/>
	<path d = "M 150.00 79.69 L 112.50 60.94 L 72.66 60.94 L 56.25 67.97 L 21.09 103.12 L 14.06 166.41" stroke="black" fill="transparent"/>
</svg>