<?xml version="1.0" encoding="UTF-8" standalone="no"?>
<!--Created with ndjsontosvg (https:https://github.com/thompson318/ndjsontosvg) 
	from the simplified Google quickdraw data set. key_id = 4861552458989568-->
<svg width="600" height="600"
	xmlns="http://www.w3.org/2000/svg">
	xmlns:ndjsontosvg="https://github.com/thompson318/ndjsontosvg"
	xmlns:quickdraw="https://quickdraw.withgoogle.com/data"
	xmlns:scikit-surgery="https://doi.org/10.1007/s11548-020-02180-5">

	<rect width="100%" height="100%" fill="white" />
	<path d = "M 292.97 7.03 L 271.88 21.09 L 246.09 75.00 L 239.06 178.12 L 253.12 215.62 L 271.88 241.41 L 302.34 257.81 L 353.91 255.47 L 379.69 215.62 L 393.75 159.38 L 398.44 53.91 L 386.72 21.09 L 367.97 4.69 L 318.75 0.00 L 297.66 4.69 L 285.94 16.41" stroke="black" fill="transparent"/>
	<path d = "M 255.47 14.06 L 203.91 11.72 L 166.41 23.44 L 82.03 93.75 L 42.19 142.97 L 11.72 201.56 L 0.00 236.72 L 0.00 267.19 L 4.69 295.31 L 49.22 316.41" stroke="black" fill="transparent"/>
	<path d = "M 267.19 133.59 L 234.38 145.31 L 164.06 208.59 L 89.06 330.47 L 67.97 393.75 L 63.28 442.97 L 70.31 494.53 L 110.16 536.72 L 166.41 569.53" stroke="black" fill="transparent"/>
	<path d = "M 257.81 262.50 L 229.69 262.50 L 215.62 271.88 L 199.22 304.69 L 175.78 424.22 L 175.78 489.84 L 192.19 546.09 L 227.34 578.91 L 274.22 597.66" stroke="black" fill="transparent"/>
	<path d = "M 375.00 56.25 L 424.22 32.81 L 473.44 32.81 L 501.56 49.22 L 520.31 72.66 L 539.06 114.84 L 557.81 203.91 L 557.81 349.22" stroke="black" fill="transparent"/>
	<path d = "M 386.72 135.94 L 438.28 150.00 L 480.47 178.12 L 543.75 253.12 L 562.50 302.34 L 569.53 339.84 L 562.50 405.47 L 517.97 473.44" stroke="black" fill="transparent"/>
	<path d = "M 365.62 229.69 L 461.72 332.81 L 487.50 377.34 L 496.88 440.62 L 475.78 560.16" stroke="black" fill="transparent"/>
</svg>