<?xml version="1.0" encoding="UTF-8" standalone="no"?>
<!--Created with ndjsontosvg (https:https://github.com/thompson318/ndjsontosvg) 
	from the simplified Google quickdraw data set. key_id = 6432396670926848-->
<svg width="600" height="600"
	xmlns="http://www.w3.org/2000/svg">
	xmlns:ndjsontosvg="https://github.com/thompson318/ndjsontosvg"
	xmlns:quickdraw="https://quickdraw.withgoogle.com/data"
	xmlns:scikit-surgery="https://doi.org/10.1007/s11548-020-02180-5">

	<rect width="100%" height="100%" fill="white" />
	<path d = "M 196.88 21.09 L 196.88 21.09" stroke="black" fill="transparent"/>
	<path d = "M 215.62 70.31 L 208.59 119.53 L 222.66 215.62 L 236.72 239.06 L 262.50 232.03 L 302.34 182.81 L 325.78 100.78 L 323.44 58.59 L 314.06 39.84 L 295.31 28.12 L 260.16 23.44 L 241.41 35.16 L 225.00 65.62" stroke="black" fill="transparent"/>
	<path d = "M 208.59 154.69 L 171.09 150.00 L 124.22 203.91 L 82.03 239.06" stroke="black" fill="transparent"/>
	<path d = "M 206.25 110.16 L 166.41 84.38 L 126.56 72.66 L 65.62 100.78 L 18.75 138.28 L 0.00 145.31 L 9.38 138.28" stroke="black" fill="transparent"/>
	<path d = "M 215.62 49.22 L 201.56 28.12 L 159.38 0.00 L 110.16 9.38 L 58.59 30.47 L 9.38 37.50" stroke="black" fill="transparent"/>
	<path d = "M 283.59 192.19 L 344.53 196.88 L 393.75 243.75 L 438.28 267.19 L 508.59 260.16 L 532.03 250.78 L 522.66 243.75" stroke="black" fill="transparent"/>
	<path d = "M 316.41 133.59 L 365.62 126.56 L 426.56 166.41 L 466.41 173.44 L 543.75 171.09 L 557.81 166.41 L 527.34 161.72" stroke="black" fill="transparent"/>
	<path d = "M 323.44 65.62 L 351.56 42.19 L 386.72 37.50 L 475.78 77.34 L 560.16 105.47 L 597.66 105.47" stroke="black" fill="transparent"/>
	<path d = "M 234.38 175.78 L 241.41 178.12" stroke="black" fill="transparent"/>
	<path d = "M 292.97 208.59 L 292.97 208.59" stroke="black" fill="transparent"/>
</svg>