<?xml version="1.0" encoding="UTF-8" standalone="no"?>
<!--Created with ndjsontosvg (https:https://github.com/thompson318/ndjsontosvg) 
	from the simplified Google quickdraw data set. key_id = 4595475896336384-->
<svg width="600" height="600"
	xmlns="http://www.w3.org/2000/svg">
	xmlns:ndjsontosvg="https://github.com/thompson318/ndjsontosvg"
	xmlns:quickdraw="https://quickdraw.withgoogle.com/data"
	xmlns:scikit-surgery="https://doi.org/10.1007/s11548-020-02180-5">

	<rect width="100%" height="100%" fill="white" />
	<path d = "M 330.47 53.91 L 304.69 23.44 L 283.59 16.41 L 241.41 23.44 L 217.97 42.19 L 206.25 110.16 L 217.97 131.25 L 257.81 166.41 L 285.94 180.47 L 344.53 178.12 L 367.97 166.41 L 389.06 126.56 L 384.38 89.06 L 351.56 39.84 L 321.09 18.75 L 274.22 18.75" stroke="black" fill="transparent"/>
	<path d = "M 206.25 23.44 L 192.19 23.44 L 147.66 2.34 L 98.44 2.34 L 60.94 21.09 L 0.00 70.31" stroke="black" fill="transparent"/>
	<path d = "M 217.97 110.16 L 199.22 103.12 L 131.25 107.81 L 0.00 217.97" stroke="black" fill="transparent"/>
	<path d = "M 248.44 147.66 L 227.34 145.31 L 208.59 157.03 L 98.44 281.25" stroke="black" fill="transparent"/>
	<path d = "M 346.88 23.44 L 382.03 9.38 L 433.59 16.41 L 520.31 60.94 L 597.66 114.84" stroke="black" fill="transparent"/>
	<path d = "M 344.53 126.56 L 419.53 121.88 L 468.75 135.94 L 578.91 232.03" stroke="black" fill="transparent"/>
	<path d = "M 339.84 178.12 L 372.66 173.44 L 403.12 185.16 L 473.44 283.59" stroke="black" fill="transparent"/>
</svg>