<?xml version="1.0" encoding="UTF-8" standalone="no"?>
<!--Created with ndjsontosvg (https:https://github.com/thompson318/ndjsontosvg) 
	from the simplified Google quickdraw data set. key_id = 4975810198896640-->
<svg width="600" height="600"
	xmlns="http://www.w3.org/2000/svg">
	xmlns:ndjsontosvg="https://github.com/thompson318/ndjsontosvg"
	xmlns:quickdraw="https://quickdraw.withgoogle.com/data"
	xmlns:scikit-surgery="https://doi.org/10.1007/s11548-020-02180-5">

	<rect width="100%" height="100%" fill="white" />
	<path d = "M 65.62 217.97 L 58.59 316.41 L 58.59 534.38 L 49.22 576.56" stroke="black" fill="transparent"/>
	<path d = "M 72.66 210.94 L 145.31 194.53 L 178.12 159.38 L 192.19 133.59 L 194.53 93.75 L 189.84 77.34 L 175.78 56.25 L 138.28 28.12" stroke="black" fill="transparent"/>
	<path d = "M 91.41 2.34 L 67.97 4.69 L 44.53 23.44" stroke="black" fill="transparent"/>
	<path d = "M 138.28 23.44 L 70.31 0.00" stroke="black" fill="transparent"/>
	<path d = "M 46.88 21.09 L 23.44 37.50 L 7.03 63.28 L 2.34 110.16 L 16.41 150.00 L 86.72 220.31" stroke="black" fill="transparent"/>
	<path d = "M 96.09 206.25 L 84.38 372.66 L 84.38 578.91 L 82.03 585.94 L 56.25 597.66 L 46.88 564.84" stroke="black" fill="transparent"/>
</svg>