<?xml version="1.0" encoding="UTF-8" standalone="no"?>
<!--Created with ndjsontosvg (https:https://github.com/thompson318/ndjsontosvg) 
	from the simplified Google quickdraw data set. key_id = 6649460195065856-->
<svg width="600" height="600"
	xmlns="http://www.w3.org/2000/svg">
	xmlns:ndjsontosvg="https://github.com/thompson318/ndjsontosvg"
	xmlns:quickdraw="https://quickdraw.withgoogle.com/data"
	xmlns:scikit-surgery="https://doi.org/10.1007/s11548-020-02180-5">

	<rect width="100%" height="100%" fill="white" />
	<path d = "M 2.34 56.25 L 21.09 400.78 L 133.59 377.34 L 222.66 377.34 L 410.16 398.44 L 585.94 393.75 L 595.31 370.31 L 597.66 339.84 L 574.22 11.72 L 435.94 0.00 L 330.47 2.34 L 173.44 35.16 L 100.78 30.47 L 37.50 37.50 L 16.41 46.88 L 11.72 65.62" stroke="black" fill="transparent"/>
	<path d = "M 4.69 89.06 L 9.38 105.47 L 65.62 105.47 L 119.53 96.09 L 171.09 75.00 L 215.62 67.97 L 459.38 67.97 L 529.69 82.03 L 567.19 82.03 L 311.72 77.34" stroke="black" fill="transparent"/>
	<path d = "M 114.84 30.47 L 119.53 407.81 L 112.50 428.91" stroke="black" fill="transparent"/>
	<path d = "M 213.28 11.72 L 234.38 152.34 L 232.03 307.03 L 243.75 323.44 L 243.75 379.69" stroke="black" fill="transparent"/>
	<path d = "M 344.53 14.06 L 339.84 192.19 L 351.56 250.78 L 344.53 302.34" stroke="black" fill="transparent"/>
</svg>