<?xml version="1.0" encoding="UTF-8" standalone="no"?>
<!--Created with ndjsontosvg (https:https://github.com/thompson318/ndjsontosvg) 
	from the simplified Google quickdraw data set. key_id = 5307436518866944-->
<svg width="600" height="600"
	xmlns="http://www.w3.org/2000/svg">
	xmlns:ndjsontosvg="https://github.com/thompson318/ndjsontosvg"
	xmlns:quickdraw="https://quickdraw.withgoogle.com/data"
	xmlns:scikit-surgery="https://doi.org/10.1007/s11548-020-02180-5">

	<rect width="100%" height="100%" fill="white" />
	<path d = "M 37.50 98.44 L 25.78 248.44 L 32.81 290.62 L 365.62 283.59 L 557.81 311.72 L 569.53 295.31 L 546.09 67.97 L 459.38 35.16 L 375.00 16.41 L 239.06 0.00 L 18.75 11.72 L 2.34 18.75 L 0.00 28.12 L 23.44 79.69 L 35.16 133.59" stroke="black" fill="transparent"/>
	<path d = "M 110.16 21.09 L 131.25 253.12" stroke="black" fill="transparent"/>
	<path d = "M 42.19 107.81 L 232.03 110.16 L 386.72 124.22 L 482.81 140.62 L 557.81 164.06" stroke="black" fill="transparent"/>
	<path d = "M 70.31 187.50 L 147.66 180.47 L 276.56 178.12 L 471.09 192.19 L 597.66 213.28" stroke="black" fill="transparent"/>
	<path d = "M 70.31 227.34 L 253.12 220.31 L 417.19 225.00 L 588.28 243.75" stroke="black" fill="transparent"/>
	<path d = "M 253.12 11.72 L 241.41 110.16" stroke="black" fill="transparent"/>
	<path d = "M 358.59 30.47 L 358.59 114.84 L 372.66 135.94" stroke="black" fill="transparent"/>
	<path d = "M 487.50 65.62 L 492.19 84.38 L 485.16 140.62" stroke="black" fill="transparent"/>
</svg>