<?xml version="1.0" encoding="UTF-8" standalone="no"?>
<!--Created with ndjsontosvg (https:https://github.com/thompson318/ndjsontosvg) 
	from the simplified Google quickdraw data set. key_id = 5180521522921472-->
<svg width="600" height="600"
	xmlns="http://www.w3.org/2000/svg">
	xmlns:ndjsontosvg="https://github.com/thompson318/ndjsontosvg"
	xmlns:quickdraw="https://quickdraw.withgoogle.com/data"
	xmlns:scikit-surgery="https://doi.org/10.1007/s11548-020-02180-5">

	<rect width="100%" height="100%" fill="white" />
	<path d = "M 557.81 14.06 L 564.84 213.28 L 588.28 407.81 L 588.28 485.16 L 578.91 492.19 L 541.41 499.22 L 431.25 499.22 L 250.78 520.31 L 126.56 520.31 L 75.00 508.59 L 60.94 499.22 L 53.91 473.44 L 53.91 164.06 L 14.06 4.69 L 35.16 0.00 L 264.84 21.09 L 419.53 25.78 L 489.84 35.16 L 578.91 63.28" stroke="black" fill="transparent"/>
	<path d = "M 597.66 178.12 L 527.34 178.12 L 192.19 93.75 L 49.22 91.41 L 0.00 100.78" stroke="black" fill="transparent"/>
	<path d = "M 532.03 339.84 L 217.97 292.97 L 72.66 290.62 L 30.47 295.31" stroke="black" fill="transparent"/>
	<path d = "M 590.62 412.50 L 515.62 428.91 L 421.88 431.25 L 243.75 400.78 L 147.66 398.44 L 84.38 403.12" stroke="black" fill="transparent"/>
	<path d = "M 44.53 182.81 L 166.41 182.81 L 217.97 196.88 L 335.16 253.12 L 438.28 253.12 L 461.72 262.50" stroke="black" fill="transparent"/>
	<path d = "M 349.22 274.22 L 405.47 290.62 L 478.12 290.62" stroke="black" fill="transparent"/>
</svg>