<?xml version="1.0" encoding="UTF-8" standalone="no"?>
<!--Created with ndjsontosvg (https:https://github.com/thompson318/ndjsontosvg) 
	from the simplified Google quickdraw data set. key_id = 6346881523253248-->
<svg width="600" height="600"
	xmlns="http://www.w3.org/2000/svg">
	xmlns:ndjsontosvg="https://github.com/thompson318/ndjsontosvg"
	xmlns:quickdraw="https://quickdraw.withgoogle.com/data"
	xmlns:scikit-surgery="https://doi.org/10.1007/s11548-020-02180-5">

	<rect width="100%" height="100%" fill="white" />
	<path d = "M 0.00 30.47 L 0.00 297.66 L 35.16 564.84 L 213.28 562.50 L 339.84 590.62 L 339.84 192.19 L 323.44 124.22 L 318.75 2.34 L 154.69 0.00 L 2.34 21.09" stroke="black" fill="transparent"/>
	<path d = "M 44.53 93.75 L 227.34 93.75" stroke="black" fill="transparent"/>
	<path d = "M 21.09 159.38 L 91.41 159.38 L 208.59 138.28 L 300.00 135.94" stroke="black" fill="transparent"/>
	<path d = "M 86.72 201.56 L 269.53 199.22" stroke="black" fill="transparent"/>
	<path d = "M 138.28 257.81 L 283.59 257.81" stroke="black" fill="transparent"/>
	<path d = "M 112.50 304.69 L 314.06 304.69" stroke="black" fill="transparent"/>
	<path d = "M 128.91 339.84 L 325.78 339.84 L 332.81 342.19 L 335.16 351.56" stroke="black" fill="transparent"/>
	<path d = "M 82.03 389.06 L 349.22 386.72" stroke="black" fill="transparent"/>
	<path d = "M 100.78 414.84 L 110.16 428.91 L 37.50 424.22 L 21.09 431.25 L 77.34 492.19 L 124.22 471.09 L 114.84 468.75" stroke="black" fill="transparent"/>
	<path d = "M 114.84 468.75 L 283.59 454.69" stroke="black" fill="transparent"/>
	<path d = "M 112.50 513.28 L 271.88 510.94" stroke="black" fill="transparent"/>
	<path d = "M 53.91 23.44 L 56.25 522.66" stroke="black" fill="transparent"/>
	<path d = "M 91.41 53.91 L 91.41 597.66" stroke="black" fill="transparent"/>
	<path d = "M 147.66 119.53 L 152.34 358.59 L 175.78 473.44 L 180.47 541.41" stroke="black" fill="transparent"/>
	<path d = "M 206.25 152.34 L 206.25 342.19 L 225.00 553.12" stroke="black" fill="transparent"/>
</svg>