<?xml version="1.0" encoding="UTF-8" standalone="no"?>
<!--Created with ndjsontosvg (https:https://github.com/thompson318/ndjsontosvg) 
	from the simplified Google quickdraw data set. key_id = 4508212361428992-->
<svg width="600" height="600"
	xmlns="http://www.w3.org/2000/svg">
	xmlns:ndjsontosvg="https://github.com/thompson318/ndjsontosvg"
	xmlns:quickdraw="https://quickdraw.withgoogle.com/data"
	xmlns:scikit-surgery="https://doi.org/10.1007/s11548-020-02180-5">

	<rect width="100%" height="100%" fill="white" />
	<path d = "M 0.00 25.78 L 7.03 39.84 L 4.69 178.12 L 18.75 358.59 L 4.69 597.66 L 91.41 574.22 L 206.25 557.81 L 389.06 557.81 L 431.25 569.53 L 438.28 564.84 L 412.50 0.00 L 283.59 4.69 L 138.28 21.09 L 9.38 18.75" stroke="black" fill="transparent"/>
	<path d = "M 44.53 89.06 L 44.53 114.84 L 53.91 119.53 L 65.62 107.81 L 63.28 100.78 L 49.22 93.75" stroke="black" fill="transparent"/>
	<path d = "M 44.53 260.16 L 60.94 281.25 L 72.66 276.56 L 75.00 250.78 L 63.28 236.72" stroke="black" fill="transparent"/>
	<path d = "M 49.22 457.03 L 56.25 480.47 L 65.62 487.50 L 77.34 485.16 L 86.72 457.03 L 72.66 428.91 L 49.22 421.88" stroke="black" fill="transparent"/>
	<path d = "M 133.59 42.19 L 150.00 295.31 L 142.97 445.31 L 147.66 473.44" stroke="black" fill="transparent"/>
	<path d = "M 217.97 58.59 L 225.00 91.41 L 227.34 161.72 L 210.94 370.31 L 222.66 450.00 L 241.41 503.91" stroke="black" fill="transparent"/>
	<path d = "M 304.69 7.03 L 309.38 25.78 L 288.28 215.62 L 297.66 499.22" stroke="black" fill="transparent"/>
	<path d = "M 353.91 16.41 L 346.88 194.53 L 360.94 403.12 L 356.25 506.25" stroke="black" fill="transparent"/>
	<path d = "M 271.88 23.44 L 257.81 91.41 L 257.81 173.44 L 278.91 325.78 L 278.91 496.88" stroke="black" fill="transparent"/>
	<path d = "M 142.97 91.41 L 318.75 89.06 L 370.31 93.75 L 405.47 105.47" stroke="black" fill="transparent"/>
	<path d = "M 105.47 194.53 L 358.59 178.12 L 403.12 187.50" stroke="black" fill="transparent"/>
	<path d = "M 131.25 304.69 L 346.88 297.66 L 400.78 309.38" stroke="black" fill="transparent"/>
	<path d = "M 133.59 419.53 L 407.81 414.84 L 438.28 421.88" stroke="black" fill="transparent"/>
	<path d = "M 159.38 508.59 L 239.06 517.97 L 407.81 520.31" stroke="black" fill="transparent"/>
	<path d = "M 112.50 257.81 L 337.50 248.44 L 410.16 257.81" stroke="black" fill="transparent"/>
</svg>