<?xml version="1.0" encoding="UTF-8" standalone="no"?>
<!--Created with ndjsontosvg (https:https://github.com/thompson318/ndjsontosvg) 
	from the simplified Google quickdraw data set. key_id = 4652645274877952-->
<svg width="600" height="600"
	xmlns="http://www.w3.org/2000/svg">
	xmlns:ndjsontosvg="https://github.com/thompson318/ndjsontosvg"
	xmlns:quickdraw="https://quickdraw.withgoogle.com/data"
	xmlns:scikit-surgery="https://doi.org/10.1007/s11548-020-02180-5">

	<rect width="100%" height="100%" fill="white" />
	<path d = "M 28.12 42.19 L 11.72 232.03 L 18.75 278.91 L 35.16 295.31 L 325.78 283.59 L 571.88 297.66 L 590.62 290.62 L 597.66 271.88 L 585.94 150.00 L 564.84 77.34 L 546.09 46.88 L 522.66 28.12 L 485.16 21.09 L 220.31 16.41 L 89.06 25.78 L 0.00 44.53" stroke="black" fill="transparent"/>
	<path d = "M 51.56 84.38 L 56.25 72.66 L 70.31 63.28 L 105.47 56.25 L 133.59 60.94 L 196.88 89.06 L 271.88 65.62 L 300.00 65.62 L 375.00 91.41 L 440.62 65.62 L 468.75 89.06 L 489.84 93.75 L 543.75 65.62" stroke="black" fill="transparent"/>
	<path d = "M 70.31 128.91 L 96.09 112.50 L 142.97 110.16 L 248.44 159.38 L 276.56 166.41 L 302.34 161.72 L 379.69 126.56 L 485.16 157.03 L 569.53 117.19" stroke="black" fill="transparent"/>
	<path d = "M 84.38 196.88 L 124.22 171.09 L 161.72 161.72 L 185.16 166.41 L 262.50 210.94 L 292.97 220.31 L 330.47 217.97 L 382.03 194.53 L 447.66 220.31 L 557.81 173.44" stroke="black" fill="transparent"/>
	<path d = "M 110.16 232.03 L 154.69 222.66 L 267.19 253.12 L 335.16 243.75 L 407.81 253.12 L 459.38 246.09 L 525.00 255.47 L 562.50 250.78" stroke="black" fill="transparent"/>
	<path d = "M 246.09 18.75 L 175.78 246.09" stroke="black" fill="transparent"/>
	<path d = "M 173.44 91.41 L 182.81 128.91 L 201.56 353.91 L 201.56 435.94" stroke="black" fill="transparent"/>
	<path d = "M 283.59 0.00 L 295.31 60.94 L 274.22 201.56 L 276.56 248.44 L 295.31 335.16" stroke="black" fill="transparent"/>
	<path d = "M 292.97 72.66 L 288.28 166.41 L 330.47 330.47" stroke="black" fill="transparent"/>
</svg>