<?xml version="1.0" encoding="UTF-8" standalone="no"?>
<!--Created with ndjsontosvg (https:https://github.com/thompson318/ndjsontosvg) 
	from the simplified Google quickdraw data set. key_id = 5492808817311744-->
<svg width="600" height="600"
	xmlns="http://www.w3.org/2000/svg">
	xmlns:ndjsontosvg="https://github.com/thompson318/ndjsontosvg"
	xmlns:quickdraw="https://quickdraw.withgoogle.com/data"
	xmlns:scikit-surgery="https://doi.org/10.1007/s11548-020-02180-5">

	<rect width="100%" height="100%" fill="white" />
	<path d = "M 417.19 171.09 L 332.81 208.59 L 292.97 248.44 L 264.84 318.75 L 250.78 403.12 L 257.81 447.66 L 281.25 499.22 L 300.00 515.62 L 358.59 517.97 L 391.41 503.91 L 412.50 485.16 L 454.69 405.47 L 459.38 363.28 L 452.34 281.25 L 438.28 234.38 L 417.19 194.53" stroke="black" fill="transparent"/>
	<path d = "M 457.03 281.25 L 468.75 271.88 L 517.97 276.56" stroke="black" fill="transparent"/>
	<path d = "M 473.44 328.12 L 494.53 314.06 L 532.03 314.06" stroke="black" fill="transparent"/>
	<path d = "M 550.78 241.41 L 532.03 285.94 L 522.66 335.16 L 571.88 332.81 L 585.94 318.75 L 583.59 232.03 L 578.91 234.38" stroke="black" fill="transparent"/>
	<path d = "M 560.16 201.56 L 560.16 255.47" stroke="black" fill="transparent"/>
	<path d = "M 543.75 243.75 L 588.28 232.03 L 595.31 232.03 L 597.66 241.41" stroke="black" fill="transparent"/>
	<path d = "M 285.94 480.47 L 157.03 466.41 L 105.47 452.34 L 58.59 424.22 L 28.12 377.34 L 14.06 321.09 L 9.38 210.94 L 35.16 281.25 L 7.03 180.47 L 0.00 114.84 L 4.69 107.81 L 28.12 159.38 L 37.50 164.06 L 39.84 56.25 L 56.25 46.88 L 79.69 75.00 L 110.16 93.75 L 112.50 16.41 L 124.22 0.00 L 140.62 58.59 L 157.03 82.03 L 166.41 89.06 L 171.09 51.56 L 185.16 260.16 L 185.16 342.19 L 180.47 332.81 L 178.12 346.88 L 187.50 419.53 L 201.56 431.25 L 243.75 494.53" stroke="black" fill="transparent"/>
	<path d = "M 377.34 51.56 L 363.28 56.25 L 307.03 121.88 L 297.66 154.69 L 309.38 192.19 L 323.44 201.56 L 379.69 208.59 L 414.84 187.50 L 431.25 159.38 L 447.66 107.81 L 447.66 77.34 L 431.25 56.25 L 370.31 51.56" stroke="black" fill="transparent"/>
	<path d = "M 292.97 515.62 L 234.38 522.66 L 213.28 543.75 L 215.62 550.78 L 253.12 564.84 L 295.31 562.50 L 314.06 550.78 L 328.12 522.66 L 304.69 517.97 L 274.22 529.69" stroke="black" fill="transparent"/>
	<path d = "M 400.78 496.88 L 325.78 527.34 L 309.38 536.72 L 314.06 550.78 L 403.12 557.81 L 433.59 548.44 L 440.62 536.72 L 440.62 525.00 L 414.84 508.59" stroke="black" fill="transparent"/>
	<path d = "M 346.88 501.56 L 318.75 503.91" stroke="black" fill="transparent"/>
</svg>