<?xml version="1.0" encoding="UTF-8" standalone="no"?>
<!--Created with ndjsontosvg (https:https://github.com/thompson318/ndjsontosvg) 
	from the simplified Google quickdraw data set. key_id = 6392212466171904-->
<svg width="600" height="600"
	xmlns="http://www.w3.org/2000/svg">
	xmlns:ndjsontosvg="https://github.com/thompson318/ndjsontosvg"
	xmlns:quickdraw="https://quickdraw.withgoogle.com/data"
	xmlns:scikit-surgery="https://doi.org/10.1007/s11548-020-02180-5">

	<rect width="100%" height="100%" fill="white" />
	<path d = "M 194.53 152.34 L 166.41 159.38 L 140.62 185.16 L 124.22 222.66 L 128.91 236.72 L 180.47 267.19 L 227.34 264.84 L 281.25 210.94 L 300.00 168.75 L 304.69 138.28 L 295.31 110.16 L 274.22 86.72 L 208.59 44.53 L 150.00 32.81 L 107.81 46.88 L 58.59 86.72 L 16.41 159.38 L 2.34 217.97 L 2.34 274.22 L 28.12 344.53 L 65.62 382.03 L 164.06 435.94 L 210.94 450.00 L 243.75 450.00" stroke="black" fill="transparent"/>
	<path d = "M 307.03 185.16 L 300.00 217.97 L 232.03 356.25 L 234.38 384.38 L 267.19 410.16" stroke="black" fill="transparent"/>
	<path d = "M 304.69 131.25 L 309.38 89.06 L 332.81 44.53 L 358.59 25.78 L 412.50 0.00 L 447.66 4.69 L 513.28 60.94 L 506.25 79.69 L 487.50 96.09 L 414.84 142.97 L 421.88 220.31 L 400.78 466.41 L 424.22 513.28 L 468.75 583.59 L 468.75 592.97 L 450.00 597.66 L 396.09 590.62 L 335.16 571.88 L 278.91 529.69 L 292.97 527.34 L 302.34 508.59 L 304.69 459.38 L 262.50 473.44 L 236.72 466.41" stroke="black" fill="transparent"/>
	<path d = "M 344.53 243.75 L 433.59 290.62 L 424.22 304.69 L 405.47 316.41 L 358.59 311.72" stroke="black" fill="transparent"/>
	<path d = "M 457.03 46.88 L 440.62 60.94 L 447.66 65.62" stroke="black" fill="transparent"/>
	<path d = "M 353.91 63.28 L 335.16 37.50 L 335.16 11.72 L 365.62 0.00 L 386.72 14.06" stroke="black" fill="transparent"/>
	<path d = "M 403.12 407.81 L 384.38 407.81 L 370.31 382.03 L 377.34 328.12" stroke="black" fill="transparent"/>
	<path d = "M 419.53 185.16 L 396.09 220.31 L 393.75 269.53" stroke="black" fill="transparent"/>
</svg>