<?xml version="1.0" encoding="UTF-8" standalone="no"?>
<!--Created with ndjsontosvg (https:https://github.com/thompson318/ndjsontosvg) 
	from the simplified Google quickdraw data set. key_id = 5093221715673088-->
<svg width="600" height="600"
	xmlns="http://www.w3.org/2000/svg">
	xmlns:ndjsontosvg="https://github.com/thompson318/ndjsontosvg"
	xmlns:quickdraw="https://quickdraw.withgoogle.com/data"
	xmlns:scikit-surgery="https://doi.org/10.1007/s11548-020-02180-5">

	<rect width="100%" height="100%" fill="white" />
	<path d = "M 124.22 271.88 L 72.66 281.25 L 37.50 269.53 L 11.72 243.75 L 2.34 215.62 L 0.00 173.44 L 18.75 140.62 L 53.91 114.84 L 112.50 96.09 L 173.44 96.09 L 234.38 124.22 L 325.78 185.16 L 328.12 225.00 L 316.41 292.97 L 255.47 442.97 L 253.12 466.41 L 267.19 487.50 L 304.69 506.25 L 400.78 510.94 L 433.59 499.22 L 510.94 457.03 L 585.94 403.12 L 597.66 372.66 L 592.97 356.25 L 546.09 314.06 L 510.94 292.97 L 440.62 290.62 L 379.69 377.34 L 353.91 386.72 L 321.09 475.78 L 309.38 473.44" stroke="black" fill="transparent"/>
	<path d = "M 126.56 271.88 L 133.59 330.47 L 105.47 417.19 L 89.06 445.31 L 91.41 459.38 L 145.31 513.28 L 196.88 541.41 L 241.41 529.69 L 267.19 508.59 L 264.84 503.91" stroke="black" fill="transparent"/>
	<path d = "M 93.75 133.59 L 96.09 133.59" stroke="black" fill="transparent"/>
	<path d = "M 86.72 178.12 L 89.06 180.47" stroke="black" fill="transparent"/>
	<path d = "M 28.12 217.97 L 9.38 300.00 L 56.25 309.38 L 72.66 311.72 L 75.00 300.00 L 75.00 239.06 L 16.41 217.97" stroke="black" fill="transparent"/>
	<path d = "M 128.91 107.81 L 131.25 51.56 L 154.69 2.34 L 171.09 4.69 L 175.78 65.62 L 168.75 96.09 L 152.34 96.09" stroke="black" fill="transparent"/>
	<path d = "M 203.91 117.19 L 203.91 82.03 L 225.00 35.16 L 234.38 35.16 L 267.19 51.56 L 292.97 86.72 L 292.97 119.53 L 271.88 128.91" stroke="black" fill="transparent"/>
	<path d = "M 175.78 323.44 L 147.66 304.69 L 105.47 311.72 L 67.97 330.47 L 58.59 353.91 L 65.62 358.59" stroke="black" fill="transparent"/>
	<path d = "M 192.19 363.28 L 107.81 356.25 L 105.47 384.38" stroke="black" fill="transparent"/>
	<path d = "M 147.66 440.62 L 119.53 482.81 L 103.12 546.09 L 110.16 536.72" stroke="black" fill="transparent"/>
	<path d = "M 222.66 473.44 L 243.75 539.06 L 248.44 576.56" stroke="black" fill="transparent"/>
</svg>