<?xml version="1.0" encoding="UTF-8" standalone="no"?>
<!--Created with ndjsontosvg (https:https://github.com/thompson318/ndjsontosvg) 
	from the simplified Google quickdraw data set. key_id = 6531908106190848-->
<svg width="600" height="600"
	xmlns="http://www.w3.org/2000/svg">
	xmlns:ndjsontosvg="https://github.com/thompson318/ndjsontosvg"
	xmlns:quickdraw="https://quickdraw.withgoogle.com/data"
	xmlns:scikit-surgery="https://doi.org/10.1007/s11548-020-02180-5">

	<rect width="100%" height="100%" fill="white" />
	<path d = "M 128.91 112.50 L 86.72 110.16 L 56.25 117.19 L 32.81 128.91 L 11.72 154.69 L 0.00 196.88 L 0.00 239.06 L 42.19 255.47 L 110.16 250.78 L 128.91 243.75 L 161.72 206.25 L 178.12 152.34 L 171.09 133.59 L 145.31 112.50" stroke="black" fill="transparent"/>
	<path d = "M 142.97 114.84 L 269.53 37.50 L 316.41 21.09 L 339.84 32.81 L 344.53 103.12 L 304.69 225.00 L 292.97 400.78 L 281.25 438.28 L 248.44 489.84 L 234.38 499.22 L 157.03 496.88 L 128.91 450.00 L 93.75 232.03" stroke="black" fill="transparent"/>
	<path d = "M 339.84 328.12 L 314.06 365.62 L 332.81 360.94 L 346.88 339.84 L 372.66 269.53 L 403.12 131.25 L 445.31 70.31 L 499.22 21.09 L 541.41 0.00 L 583.59 7.03 L 597.66 28.12 L 597.66 56.25 L 546.09 82.03 L 496.88 121.88 L 473.44 278.91 L 428.91 365.62 L 370.31 414.84 L 323.44 428.91 L 285.94 431.25" stroke="black" fill="transparent"/>
</svg>