<?xml version="1.0" encoding="UTF-8" standalone="no"?>
<!--Created with ndjsontosvg (https:https://github.com/thompson318/ndjsontosvg) 
	from the simplified Google quickdraw data set. key_id = 5207348194836480-->
<svg width="600" height="600"
	xmlns="http://www.w3.org/2000/svg">
	xmlns:ndjsontosvg="https://github.com/thompson318/ndjsontosvg"
	xmlns:quickdraw="https://quickdraw.withgoogle.com/data"
	xmlns:scikit-surgery="https://doi.org/10.1007/s11548-020-02180-5">

	<rect width="100%" height="100%" fill="white" />
	<path d = "M 365.62 246.09 L 346.88 227.34 L 250.78 215.62 L 178.12 234.38 L 117.19 271.88 L 128.91 269.53 L 128.91 255.47 L 112.50 217.97 L 79.69 201.56 L 46.88 201.56 L 21.09 213.28 L 4.69 239.06 L 0.00 278.91 L 9.38 309.38 L 37.50 342.19 L 82.03 356.25 L 110.16 353.91 L 126.56 342.19 L 133.59 318.75 L 126.56 309.38 L 121.88 311.72 L 222.66 335.16 L 264.84 337.50 L 250.78 384.38 L 260.16 386.72 L 302.34 382.03 L 300.00 335.16 L 325.78 330.47 L 344.53 339.84 L 332.81 379.69 L 360.94 382.03 L 377.34 377.34 L 377.34 295.31 L 391.41 285.94 L 459.38 290.62 L 503.91 269.53 L 555.47 220.31 L 581.25 182.81 L 595.31 142.97 L 595.31 77.34 L 574.22 32.81 L 525.00 4.69 L 464.06 2.34 L 431.25 14.06 L 405.47 35.16 L 389.06 82.03 L 398.44 159.38 L 438.28 210.94 L 440.62 229.69 L 424.22 246.09 L 407.81 250.78 L 370.31 236.72 L 353.91 222.66" stroke="black" fill="transparent"/>
	<path d = "M 56.25 222.66 L 82.03 222.66 L 65.62 213.28 L 44.53 227.34 L 44.53 248.44 L 63.28 262.50 L 79.69 264.84 L 91.41 253.12 L 77.34 229.69" stroke="black" fill="transparent"/>
	<path d = "M 67.97 208.59 L 75.00 178.12 L 51.56 142.97 L 35.16 152.34 L 18.75 182.81" stroke="black" fill="transparent"/>
	<path d = "M 192.19 325.78 L 182.81 337.50 L 178.12 358.59 L 203.91 363.28 L 208.59 321.09 L 225.00 332.81 L 210.94 363.28 L 229.69 365.62 L 241.41 358.59 L 239.06 328.12" stroke="black" fill="transparent"/>
</svg>