<?xml version="1.0" encoding="UTF-8" standalone="no"?>
<!--Created with ndjsontosvg (https:https://github.com/thompson318/ndjsontosvg) 
	from the simplified Google quickdraw data set. key_id = 5786031938863104-->
<svg width="600" height="600"
	xmlns="http://www.w3.org/2000/svg">
	xmlns:ndjsontosvg="https://github.com/thompson318/ndjsontosvg"
	xmlns:quickdraw="https://quickdraw.withgoogle.com/data"
	xmlns:scikit-surgery="https://doi.org/10.1007/s11548-020-02180-5">

	<rect width="100%" height="100%" fill="white" />
	<path d = "M 135.94 250.78 L 110.16 196.88 L 79.69 182.81 L 44.53 187.50 L 37.50 232.03 L 63.28 257.81 L 93.75 269.53 L 124.22 264.84 L 133.59 257.81 L 133.59 246.09" stroke="black" fill="transparent"/>
	<path d = "M 135.94 246.09 L 171.09 278.91 L 189.84 307.03 L 227.34 332.81 L 283.59 332.81 L 323.44 302.34 L 318.75 346.88 L 288.28 400.78 L 260.16 421.88 L 232.03 426.56 L 189.84 424.22 L 159.38 414.84 L 100.78 360.94 L 86.72 288.28" stroke="black" fill="transparent"/>
	<path d = "M 110.16 365.62 L 37.50 375.00" stroke="black" fill="transparent"/>
	<path d = "M 126.56 389.06 L 131.25 464.06 L 138.28 471.09" stroke="black" fill="transparent"/>
	<path d = "M 185.16 421.88 L 203.91 480.47" stroke="black" fill="transparent"/>
	<path d = "M 314.06 412.50 L 309.38 419.53" stroke="black" fill="transparent"/>
	<path d = "M 278.91 410.16 L 283.59 450.00" stroke="black" fill="transparent"/>
	<path d = "M 325.78 302.34 L 323.44 241.41 L 360.94 166.41 L 421.88 82.03 L 501.56 2.34 L 508.59 0.00 L 548.44 23.44 L 585.94 56.25 L 597.66 86.72 L 592.97 128.91 L 569.53 164.06 L 480.47 159.38 L 445.31 180.47 L 400.78 260.16 L 323.44 307.03" stroke="black" fill="transparent"/>
</svg>