<?xml version="1.0" encoding="UTF-8" standalone="no"?>
<!--Created with ndjsontosvg (https:https://github.com/thompson318/ndjsontosvg) 
	from the simplified Google quickdraw data set. key_id = 4851583185584128-->
<svg width="600" height="600"
	xmlns="http://www.w3.org/2000/svg">
	xmlns:ndjsontosvg="https://github.com/thompson318/ndjsontosvg"
	xmlns:quickdraw="https://quickdraw.withgoogle.com/data"
	xmlns:scikit-surgery="https://doi.org/10.1007/s11548-020-02180-5">

	<rect width="100%" height="100%" fill="white" />
	<path d = "M 203.91 166.41 L 201.56 314.06 L 220.31 445.31 L 232.03 447.66 L 243.75 438.28 L 276.56 389.06 L 307.03 300.00 L 330.47 180.47 L 356.25 135.94 L 372.66 145.31 L 393.75 189.84 L 403.12 314.06 L 382.03 417.19 L 342.19 487.50 L 297.66 541.41 L 271.88 550.78 L 203.91 550.78 L 150.00 541.41 L 84.38 510.94 L 39.84 548.44 L 23.44 553.12 L 14.06 541.41 L 16.41 515.62 L 35.16 478.12 L 60.94 459.38 L 70.31 440.62 L 93.75 318.75 L 93.75 225.00 L 35.16 248.44 L 4.69 248.44 L 0.00 239.06 L 28.12 208.59 L 70.31 194.53 L 46.88 124.22 L 51.56 98.44 L 105.47 51.56 L 133.59 44.53 L 171.09 49.22 L 201.56 75.00 L 220.31 119.53 L 220.31 154.69 L 201.56 194.53" stroke="black" fill="transparent"/>
	<path d = "M 208.59 112.50 L 246.09 77.34 L 248.44 42.19 L 241.41 35.16 L 215.62 35.16 L 194.53 70.31" stroke="black" fill="transparent"/>
	<path d = "M 159.38 77.34 L 142.97 4.69 L 124.22 0.00 L 112.50 9.38 L 103.12 32.81" stroke="black" fill="transparent"/>
	<path d = "M 117.19 119.53 L 117.19 119.53" stroke="black" fill="transparent"/>
	<path d = "M 82.03 124.22 L 82.03 121.88" stroke="black" fill="transparent"/>
	<path d = "M 138.28 152.34 L 114.84 173.44 L 82.03 166.41" stroke="black" fill="transparent"/>
	<path d = "M 316.41 302.34 L 246.09 168.75" stroke="black" fill="transparent"/>
	<path d = "M 332.81 194.53 L 295.31 114.84" stroke="black" fill="transparent"/>
	<path d = "M 356.25 161.72 L 356.25 121.88 L 370.31 86.72" stroke="black" fill="transparent"/>
	<path d = "M 321.09 135.94 L 400.78 110.16" stroke="black" fill="transparent"/>
	<path d = "M 363.28 215.62 L 424.22 220.31" stroke="black" fill="transparent"/>
	<path d = "M 375.00 253.12 L 417.19 267.19 L 428.91 290.62" stroke="black" fill="transparent"/>
	<path d = "M 377.34 349.22 L 403.12 358.59 L 414.84 396.09" stroke="black" fill="transparent"/>
	<path d = "M 400.78 461.72 L 410.16 482.81 L 410.16 536.72" stroke="black" fill="transparent"/>
	<path d = "M 370.31 527.34 L 351.56 564.84" stroke="black" fill="transparent"/>
	<path d = "M 344.53 496.88 L 300.00 597.66" stroke="black" fill="transparent"/>
	<path d = "M 281.25 386.72 L 239.06 342.19" stroke="black" fill="transparent"/>
</svg>