<?xml version="1.0" encoding="UTF-8" standalone="no"?>
<!--Created with ndjsontosvg (https:https://github.com/thompson318/ndjsontosvg) 
	from the simplified Google quickdraw data set. key_id = 5551246826012672-->
<svg width="600" height="600"
	xmlns="http://www.w3.org/2000/svg">
	xmlns:ndjsontosvg="https://github.com/thompson318/ndjsontosvg"
	xmlns:quickdraw="https://quickdraw.withgoogle.com/data"
	xmlns:scikit-surgery="https://doi.org/10.1007/s11548-020-02180-5">

	<rect width="100%" height="100%" fill="white" />
	<path d = "M 222.66 220.31 L 147.66 164.06 L 105.47 114.84 L 91.41 86.72 L 14.06 157.03 L 2.34 201.56 L 11.72 215.62 L 25.78 220.31 L 112.50 217.97" stroke="black" fill="transparent"/>
	<path d = "M 222.66 206.25 L 335.16 161.72 L 414.84 154.69 L 442.97 159.38 L 464.06 173.44 L 482.81 199.22 L 492.19 234.38 L 492.19 267.19 L 482.81 290.62 L 464.06 302.34 L 428.91 309.38 L 140.62 321.09 L 82.03 304.69 L 63.28 278.91 L 63.28 248.44 L 72.66 215.62 L 96.09 192.19 L 114.84 199.22" stroke="black" fill="transparent"/>
	<path d = "M 403.12 147.66 L 393.75 140.62 L 389.06 98.44 L 391.41 60.94 L 400.78 39.84 L 464.06 4.69 L 520.31 0.00 L 550.78 14.06 L 576.56 39.84 L 595.31 96.09 L 595.31 128.91 L 492.19 138.28 L 466.41 147.66 L 457.03 157.03" stroke="black" fill="transparent"/>
	<path d = "M 576.56 60.94 L 576.56 82.03 L 581.25 84.38 L 583.59 72.66" stroke="black" fill="transparent"/>
	<path d = "M 494.53 25.78 L 508.59 23.44" stroke="black" fill="transparent"/>
	<path d = "M 539.06 32.81 L 539.06 35.16" stroke="black" fill="transparent"/>
	<path d = "M 501.56 105.47 L 501.56 79.69 L 508.59 67.97 L 560.16 58.59 L 585.94 79.69 L 595.31 117.19 L 569.53 128.91 L 550.78 128.91 L 532.03 124.22 L 532.03 112.50" stroke="black" fill="transparent"/>
	<path d = "M 365.62 321.09 L 323.44 407.81 L 318.75 393.75" stroke="black" fill="transparent"/>
	<path d = "M 253.12 288.28 L 248.44 304.69" stroke="black" fill="transparent"/>
	<path d = "M 243.75 332.81 L 243.75 349.22 L 213.28 393.75 L 225.00 384.38" stroke="black" fill="transparent"/>
	<path d = "M 135.94 311.72 L 128.91 332.81 L 110.16 337.50" stroke="black" fill="transparent"/>
	<path d = "M 91.41 309.38 L 0.00 316.41" stroke="black" fill="transparent"/>
</svg>