<?xml version="1.0" encoding="UTF-8" standalone="no"?>
<!--Created with ndjsontosvg (https:https://github.com/thompson318/ndjsontosvg) 
	from the simplified Google quickdraw data set. key_id = 5706928304947200-->
<svg width="600" height="600"
	xmlns="http://www.w3.org/2000/svg">
	xmlns:ndjsontosvg="https://github.com/thompson318/ndjsontosvg"
	xmlns:quickdraw="https://quickdraw.withgoogle.com/data"
	xmlns:scikit-surgery="https://doi.org/10.1007/s11548-020-02180-5">

	<rect width="100%" height="100%" fill="white" />
	<path d = "M 264.84 35.16 L 203.91 161.72 L 35.16 459.38" stroke="black" fill="transparent"/>
	<path d = "M 564.84 51.56 L 492.19 206.25 L 426.56 398.44 L 382.03 503.91" stroke="black" fill="transparent"/>
	<path d = "M 281.25 53.91 L 285.94 84.38 L 248.44 93.75 L 255.47 152.34 L 208.59 154.69 L 208.59 222.66 L 175.78 220.31 L 168.75 232.03 L 168.75 274.22 L 140.62 271.88 L 135.94 344.53 L 103.12 337.50 L 100.78 403.12 L 72.66 398.44 L 65.62 407.81 L 53.91 466.41" stroke="black" fill="transparent"/>
	<path d = "M 65.62 403.12 L 168.75 407.81 L 257.81 428.91 L 393.75 440.62 L 414.84 447.66" stroke="black" fill="transparent"/>
	<path d = "M 93.75 353.91 L 250.78 365.62 L 431.25 389.06" stroke="black" fill="transparent"/>
	<path d = "M 126.56 297.66 L 189.84 304.69 L 344.53 304.69 L 454.69 316.41" stroke="black" fill="transparent"/>
	<path d = "M 140.62 262.50 L 189.84 274.22 L 485.16 281.25" stroke="black" fill="transparent"/>
	<path d = "M 161.72 227.34 L 175.78 232.03 L 367.97 227.34 L 480.47 239.06" stroke="black" fill="transparent"/>
	<path d = "M 199.22 164.06 L 527.34 180.47" stroke="black" fill="transparent"/>
	<path d = "M 227.34 142.97 L 546.09 157.03" stroke="black" fill="transparent"/>
	<path d = "M 253.12 93.75 L 585.94 93.75" stroke="black" fill="transparent"/>
	<path d = "M 278.91 42.19 L 595.31 39.84" stroke="black" fill="transparent"/>
	<path d = "M 283.59 2.34 L 503.91 0.00 L 597.66 9.38" stroke="black" fill="transparent"/>
	<path d = "M 0.00 471.09 L 53.91 473.44 L 124.22 457.03 L 187.50 454.69 L 435.94 487.50" stroke="black" fill="transparent"/>
</svg>