<?xml version="1.0" encoding="UTF-8" standalone="no"?>
<!--Created with ndjsontosvg (https:https://github.com/thompson318/ndjsontosvg) 
	from the simplified Google quickdraw data set. key_id = 6576407691919360-->
<svg width="600" height="600"
	xmlns="http://www.w3.org/2000/svg">
	xmlns:ndjsontosvg="https://github.com/thompson318/ndjsontosvg"
	xmlns:quickdraw="https://quickdraw.withgoogle.com/data"
	xmlns:scikit-surgery="https://doi.org/10.1007/s11548-020-02180-5">

	<rect width="100%" height="100%" fill="white" />
	<path d = "M 0.00 461.72 L 119.53 445.31 L 260.16 440.62 L 410.16 426.56 L 428.91 440.62 L 447.66 517.97 L 447.66 578.91 L 428.91 595.31 L 63.28 581.25 L 14.06 578.91 L 4.69 567.19 L 2.34 480.47" stroke="black" fill="transparent"/>
	<path d = "M 16.41 459.38 L 16.41 370.31 L 28.12 337.50 L 39.84 332.81 L 248.44 328.12 L 356.25 316.41 L 365.62 330.47 L 360.94 435.94" stroke="black" fill="transparent"/>
	<path d = "M 63.28 321.09 L 58.59 180.47 L 96.09 164.06 L 269.53 159.38 L 283.59 199.22 L 283.59 297.66" stroke="black" fill="transparent"/>
	<path d = "M 82.03 161.72 L 98.44 103.12 L 114.84 79.69 L 232.03 82.03 L 241.41 103.12 L 236.72 157.03" stroke="black" fill="transparent"/>
	<path d = "M 140.62 75.00 L 142.97 42.19 L 159.38 9.38 L 182.81 0.00 L 232.03 0.00 L 234.38 23.44 L 210.94 75.00" stroke="black" fill="transparent"/>
</svg>