<?xml version="1.0" encoding="UTF-8" standalone="no"?>
<!--Created with ndjsontosvg (https:https://github.com/thompson318/ndjsontosvg) 
	from the simplified Google quickdraw data set. key_id = 6083164759916544-->
<svg width="600" height="600"
	xmlns="http://www.w3.org/2000/svg">
	xmlns:ndjsontosvg="https://github.com/thompson318/ndjsontosvg"
	xmlns:quickdraw="https://quickdraw.withgoogle.com/data"
	xmlns:scikit-surgery="https://doi.org/10.1007/s11548-020-02180-5">

	<rect width="100%" height="100%" fill="white" />
	<path d = "M 0.00 384.38 L 96.09 370.31 L 302.34 367.97 L 501.56 342.19 L 553.12 344.53 L 583.59 358.59 L 595.31 375.00 L 588.28 525.00 L 576.56 567.19 L 508.59 578.91 L 253.12 581.25 L 187.50 569.53 L 110.16 546.09 L 11.72 529.69 L 0.00 489.84 L 11.72 339.84" stroke="black" fill="transparent"/>
	<path d = "M 119.53 375.00 L 119.53 375.00" stroke="black" fill="transparent"/>
	<path d = "M 65.62 396.09 L 79.69 344.53 L 79.69 262.50 L 84.38 246.09 L 253.12 229.69 L 323.44 225.00 L 452.34 234.38 L 527.34 253.12 L 536.72 267.19 L 539.06 344.53" stroke="black" fill="transparent"/>
	<path d = "M 142.97 243.75 L 142.97 210.94 L 161.72 133.59 L 178.12 124.22 L 450.00 133.59 L 461.72 152.34 L 466.41 213.28" stroke="black" fill="transparent"/>
	<path d = "M 253.12 110.16 L 264.84 23.44 L 283.59 0.00 L 356.25 21.09 L 379.69 56.25" stroke="black" fill="transparent"/>
	<path d = "M 267.19 46.88 L 389.06 46.88 L 396.09 58.59 L 398.44 124.22" stroke="black" fill="transparent"/>
	<path d = "M 255.47 42.19 L 260.16 35.16" stroke="black" fill="transparent"/>
</svg>