<?xml version="1.0" encoding="UTF-8" standalone="no"?>
<!--Created with ndjsontosvg (https:https://github.com/thompson318/ndjsontosvg) 
	from the simplified Google quickdraw data set. key_id = 5391692721029120-->
<svg width="600" height="600"
	xmlns="http://www.w3.org/2000/svg">
	xmlns:ndjsontosvg="https://github.com/thompson318/ndjsontosvg"
	xmlns:quickdraw="https://quickdraw.withgoogle.com/data"
	xmlns:scikit-surgery="https://doi.org/10.1007/s11548-020-02180-5">

	<rect width="100%" height="100%" fill="white" />
	<path d = "M 510.94 264.84 L 489.84 290.62 L 435.94 332.81 L 405.47 344.53 L 290.62 363.28 L 145.31 363.28 L 51.56 349.22 L 18.75 328.12 L 4.69 309.38 L 2.34 262.50 L 49.22 213.28 L 86.72 196.88 L 150.00 194.53 L 220.31 180.47 L 255.47 161.72 L 330.47 30.47 L 353.91 11.72 L 398.44 0.00 L 487.50 0.00 L 534.38 11.72 L 555.47 25.78 L 590.62 70.31 L 597.66 96.09 L 548.44 234.38 L 517.97 283.59 L 396.09 356.25" stroke="black" fill="transparent"/>
	<path d = "M 86.72 206.25 L 110.16 302.34 L 142.97 393.75 L 142.97 414.84" stroke="black" fill="transparent"/>
	<path d = "M 182.81 194.53 L 203.91 253.12 L 220.31 365.62" stroke="black" fill="transparent"/>
	<path d = "M 297.66 124.22 L 328.12 189.84 L 365.62 309.38" stroke="black" fill="transparent"/>
</svg>