<?xml version="1.0" encoding="UTF-8" standalone="no"?>
<!--Created with ndjsontosvg (https:https://github.com/thompson318/ndjsontosvg) 
	from the simplified Google quickdraw data set. key_id = 5450528156811264-->
<svg width="600" height="600"
	xmlns="http://www.w3.org/2000/svg">
	xmlns:ndjsontosvg="https://github.com/thompson318/ndjsontosvg"
	xmlns:quickdraw="https://quickdraw.withgoogle.com/data"
	xmlns:scikit-surgery="https://doi.org/10.1007/s11548-020-02180-5">

	<rect width="100%" height="100%" fill="white" />
	<path d = "M 67.97 0.00 L 173.44 11.72 L 185.16 18.75 L 178.12 72.66 L 201.56 241.41 L 201.56 267.19 L 194.53 288.28 L 42.19 281.25 L 0.00 271.88 L 21.09 9.38" stroke="black" fill="transparent"/>
	<path d = "M 435.94 4.69 L 574.22 2.34 L 592.97 11.72 L 585.94 187.50 L 597.66 271.88 L 569.53 288.28 L 445.31 281.25 L 414.84 274.22 L 424.22 210.94 L 419.53 79.69 L 428.91 35.16" stroke="black" fill="transparent"/>
	<path d = "M 480.47 51.56 L 468.75 70.31 L 471.09 91.41 L 487.50 112.50 L 508.59 119.53 L 532.03 110.16 L 539.06 77.34 L 534.38 51.56 L 515.62 51.56" stroke="black" fill="transparent"/>
</svg>