<?xml version="1.0" encoding="UTF-8" standalone="no"?>
<!--Created with ndjsontosvg (https:https://github.com/thompson318/ndjsontosvg) 
	from the simplified Google quickdraw data set. key_id = 5172280512479232-->
<svg width="600" height="600"
	xmlns="http://www.w3.org/2000/svg">
	xmlns:ndjsontosvg="https://github.com/thompson318/ndjsontosvg"
	xmlns:quickdraw="https://quickdraw.withgoogle.com/data"
	xmlns:scikit-surgery="https://doi.org/10.1007/s11548-020-02180-5">

	<rect width="100%" height="100%" fill="white" />
	<path d = "M 37.50 2.34 L 7.03 239.06 L 0.00 325.78 L 7.03 330.47 L 135.94 351.56 L 389.06 351.56 L 499.22 335.16 L 555.47 335.16 L 583.59 328.12 L 597.66 28.12 L 288.28 25.78 L 117.19 0.00 L 58.59 0.00" stroke="black" fill="transparent"/>
	<path d = "M 213.28 107.81 L 128.91 105.47 L 110.16 114.84 L 98.44 157.03 L 103.12 213.28 L 121.88 220.31 L 192.19 220.31 L 213.28 210.94 L 222.66 189.84 L 229.69 140.62 L 225.00 91.41" stroke="black" fill="transparent"/>
	<path d = "M 553.12 150.00 L 536.72 140.62 L 485.16 142.97 L 372.66 173.44 L 356.25 187.50 L 335.16 220.31 L 332.81 255.47 L 337.50 264.84 L 438.28 262.50 L 489.84 232.03 L 508.59 187.50 L 508.59 145.31 L 494.53 121.88 L 461.72 114.84" stroke="black" fill="transparent"/>
</svg>