<?xml version="1.0" encoding="UTF-8" standalone="no"?>
<!--Created with ndjsontosvg (https:https://github.com/thompson318/ndjsontosvg) 
	from the simplified Google quickdraw data set. key_id = 5313688649072640-->
<svg width="600" height="600"
	xmlns="http://www.w3.org/2000/svg">
	xmlns:ndjsontosvg="https://github.com/thompson318/ndjsontosvg"
	xmlns:quickdraw="https://quickdraw.withgoogle.com/data"
	xmlns:scikit-surgery="https://doi.org/10.1007/s11548-020-02180-5">

	<rect width="100%" height="100%" fill="white" />
	<path d = "M 0.00 7.03 L 16.41 241.41 L 189.84 278.91 L 316.41 283.59 L 447.66 297.66 L 595.31 302.34 L 588.28 150.00 L 592.97 56.25 L 583.59 46.88 L 482.81 32.81 L 332.81 23.44 L 248.44 0.00 L 145.31 21.09 L 67.97 4.69 L 28.12 11.72 L 4.69 4.69" stroke="black" fill="transparent"/>
	<path d = "M 126.56 70.31 L 63.28 53.91 L 51.56 56.25 L 42.19 70.31 L 39.84 135.94 L 63.28 168.75 L 91.41 187.50 L 140.62 182.81 L 161.72 168.75 L 150.00 119.53 L 121.88 79.69" stroke="black" fill="transparent"/>
	<path d = "M 473.44 105.47 L 438.28 126.56 L 424.22 145.31 L 424.22 159.38 L 440.62 194.53 L 482.81 215.62 L 525.00 199.22 L 539.06 178.12 L 527.34 140.62 L 501.56 131.25 L 473.44 131.25" stroke="black" fill="transparent"/>
</svg>