<?xml version="1.0" encoding="UTF-8" standalone="no"?>
<!--Created with ndjsontosvg (https:https://github.com/thompson318/ndjsontosvg) 
	from the simplified Google quickdraw data set. key_id = 5871057342824448-->
<svg width="600" height="600"
	xmlns="http://www.w3.org/2000/svg">
	xmlns:ndjsontosvg="https://github.com/thompson318/ndjsontosvg"
	xmlns:quickdraw="https://quickdraw.withgoogle.com/data"
	xmlns:scikit-surgery="https://doi.org/10.1007/s11548-020-02180-5">

	<rect width="100%" height="100%" fill="white" />
	<path d = "M 39.84 232.03 L 7.03 138.28 L 0.00 91.41 L 187.50 70.31 L 520.31 51.56 L 550.78 53.91 L 557.81 60.94 L 555.47 75.00 L 578.91 142.97 L 597.66 253.12 L 592.97 262.50 L 527.34 269.53 L 248.44 292.97 L 46.88 292.97 L 39.84 278.91" stroke="black" fill="transparent"/>
	<path d = "M 133.59 135.94 L 112.50 138.28 L 100.78 159.38 L 79.69 196.88 L 77.34 227.34 L 114.84 271.88 L 168.75 292.97 L 196.88 292.97 L 229.69 278.91 L 257.81 243.75 L 260.16 227.34 L 250.78 199.22 L 225.00 164.06 L 185.16 140.62 L 159.38 138.28" stroke="black" fill="transparent"/>
	<path d = "M 363.28 135.94 L 342.19 157.03 L 332.81 206.25 L 346.88 234.38 L 400.78 260.16 L 466.41 262.50 L 534.38 248.44 L 539.06 206.25 L 525.00 178.12 L 485.16 154.69 L 440.62 142.97 L 407.81 142.97 L 379.69 152.34" stroke="black" fill="transparent"/>
	<path d = "M 269.53 58.59 L 194.53 0.00 L 201.56 14.06 L 274.22 67.97 L 295.31 63.28 L 307.03 11.72" stroke="black" fill="transparent"/>
</svg>