<?xml version="1.0" encoding="UTF-8" standalone="no"?>
<!--Created with ndjsontosvg (https:https://github.com/thompson318/ndjsontosvg) 
	from the simplified Google quickdraw data set. key_id = 5317947562131456-->
<svg width="600" height="600"
	xmlns="http://www.w3.org/2000/svg">
	xmlns:ndjsontosvg="https://github.com/thompson318/ndjsontosvg"
	xmlns:quickdraw="https://quickdraw.withgoogle.com/data"
	xmlns:scikit-surgery="https://doi.org/10.1007/s11548-020-02180-5">

	<rect width="100%" height="100%" fill="white" />
	<path d = "M 49.22 360.94 L 18.75 264.84 L 14.06 222.66 L 16.41 178.12" stroke="black" fill="transparent"/>
	<path d = "M 23.44 241.41 L 4.69 253.12 L 0.00 283.59 L 25.78 339.84 L 60.94 342.19 L 72.66 321.09 L 60.94 271.88 L 30.47 239.06 L 18.75 236.72" stroke="black" fill="transparent"/>
	<path d = "M 28.12 166.41 L 96.09 150.00 L 126.56 283.59" stroke="black" fill="transparent"/>
	<path d = "M 161.72 360.94 L 138.28 316.41 L 124.22 269.53 L 110.16 178.12 L 112.50 93.75 L 135.94 56.25" stroke="black" fill="transparent"/>
	<path d = "M 98.44 65.62 L 133.59 39.84 L 178.12 23.44 L 318.75 2.34 L 414.84 0.00 L 407.81 98.44 L 417.19 290.62" stroke="black" fill="transparent"/>
	<path d = "M 433.59 349.22 L 417.19 325.78 L 407.81 285.94 L 398.44 208.59 L 400.78 159.38 L 576.56 107.81 L 585.94 114.84 L 595.31 161.72 L 597.66 353.91" stroke="black" fill="transparent"/>
	<path d = "M 496.88 210.94 L 452.34 227.34 L 442.97 255.47 L 442.97 278.91 L 454.69 304.69 L 485.16 323.44 L 513.28 323.44 L 534.38 309.38 L 546.09 292.97 L 546.09 269.53 L 539.06 239.06 L 525.00 222.66 L 480.47 208.59" stroke="black" fill="transparent"/>
	<path d = "M 278.91 65.62 L 227.34 82.03 L 196.88 112.50 L 168.75 154.69 L 154.69 217.97 L 168.75 276.56 L 199.22 309.38 L 260.16 332.81 L 318.75 318.75 L 344.53 295.31 L 370.31 257.81 L 382.03 178.12 L 372.66 128.91 L 337.50 82.03 L 297.66 58.59 L 257.81 63.28 L 206.25 100.78" stroke="black" fill="transparent"/>
	<path d = "M 215.62 98.44 L 171.09 182.81 L 161.72 267.19" stroke="black" fill="transparent"/>
	<path d = "M 250.78 89.06 L 206.25 185.16 L 185.16 274.22" stroke="black" fill="transparent"/>
	<path d = "M 281.25 84.38 L 203.91 292.97 L 201.56 314.06" stroke="black" fill="transparent"/>
	<path d = "M 166.41 189.84 L 178.12 232.03 L 239.06 248.44 L 264.84 264.84" stroke="black" fill="transparent"/>
	<path d = "M 175.78 168.75 L 213.28 194.53 L 295.31 229.69" stroke="black" fill="transparent"/>
</svg>