<?xml version="1.0" encoding="UTF-8" standalone="no"?>
<!--Created with ndjsontosvg (https:https://github.com/thompson318/ndjsontosvg) 
	from the simplified Google quickdraw data set. key_id = 6056431574843392-->
<svg width="600" height="600"
	xmlns="http://www.w3.org/2000/svg">
	xmlns:ndjsontosvg="https://github.com/thompson318/ndjsontosvg"
	xmlns:quickdraw="https://quickdraw.withgoogle.com/data"
	xmlns:scikit-surgery="https://doi.org/10.1007/s11548-020-02180-5">

	<rect width="100%" height="100%" fill="white" />
	<path d = "M 7.03 42.19 L 0.00 56.25 L 4.69 157.03 L 46.88 468.75" stroke="black" fill="transparent"/>
	<path d = "M 44.53 0.00 L 145.31 18.75 L 285.94 30.47 L 541.41 35.16 L 564.84 98.44 L 597.66 398.44 L 597.66 440.62 L 585.94 452.34 L 473.44 466.41 L 304.69 457.03 L 86.72 426.56 L 58.59 410.16" stroke="black" fill="transparent"/>
	<path d = "M 189.84 96.09 L 133.59 117.19 L 98.44 154.69 L 89.06 182.81 L 89.06 253.12 L 105.47 288.28 L 145.31 323.44 L 189.84 328.12 L 210.94 318.75 L 241.41 276.56 L 246.09 199.22 L 213.28 173.44 L 145.31 161.72 L 135.94 157.03 L 135.94 150.00" stroke="black" fill="transparent"/>
	<path d = "M 438.28 154.69 L 377.34 164.06 L 353.91 187.50 L 344.53 227.34 L 344.53 253.12 L 367.97 295.31 L 384.38 314.06 L 424.22 337.50 L 492.19 344.53 L 513.28 332.81 L 548.44 302.34 L 560.16 262.50 L 560.16 236.72 L 532.03 185.16 L 473.44 135.94 L 435.94 124.22 L 365.62 126.56" stroke="black" fill="transparent"/>
	<path d = "M 91.41 86.72 L 86.72 96.09 L 100.78 103.12" stroke="black" fill="transparent"/>
</svg>