<?xml version="1.0" encoding="UTF-8" standalone="no"?>
<!--Created with ndjsontosvg (https:https://github.com/thompson318/ndjsontosvg) 
	from the simplified Google quickdraw data set. key_id = 5269126383665152-->
<svg width="600" height="600"
	xmlns="http://www.w3.org/2000/svg">
	xmlns:ndjsontosvg="https://github.com/thompson318/ndjsontosvg"
	xmlns:quickdraw="https://quickdraw.withgoogle.com/data"
	xmlns:scikit-surgery="https://doi.org/10.1007/s11548-020-02180-5">

	<rect width="100%" height="100%" fill="white" />
	<path d = "M 9.38 56.25 L 4.69 112.50 L 42.19 194.53 L 70.31 215.62 L 126.56 239.06 L 187.50 239.06 L 236.72 217.97 L 260.16 194.53 L 274.22 131.25 L 257.81 77.34 L 239.06 53.91 L 196.88 32.81 L 164.06 35.16" stroke="black" fill="transparent"/>
	<path d = "M 187.50 236.72 L 220.31 321.09 L 246.09 356.25 L 271.88 377.34 L 351.56 403.12 L 459.38 407.81 L 489.84 400.78 L 532.03 377.34 L 562.50 346.88 L 574.22 318.75 L 574.22 271.88 L 560.16 243.75 L 525.00 229.69 L 501.56 232.03 L 482.81 253.12 L 480.47 281.25 L 501.56 339.84 L 517.97 356.25 L 557.81 372.66 L 574.22 370.31 L 592.97 358.59 L 592.97 321.09 L 555.47 246.09 L 539.06 229.69" stroke="black" fill="transparent"/>
	<path d = "M 532.03 271.88 L 546.09 278.91 L 560.16 309.38 L 560.16 321.09 L 548.44 335.16 L 534.38 325.78 L 527.34 304.69 L 529.69 276.56 L 543.75 269.53" stroke="black" fill="transparent"/>
	<path d = "M 150.00 37.50 L 152.34 9.38 L 166.41 0.00 L 187.50 30.47 L 189.84 51.56 L 168.75 53.91 L 157.03 30.47" stroke="black" fill="transparent"/>
	<path d = "M 25.78 44.53 L 18.75 37.50 L 4.69 37.50 L 0.00 56.25 L 7.03 72.66 L 16.41 72.66 L 21.09 58.59 L 11.72 32.81" stroke="black" fill="transparent"/>
</svg>