<?xml version="1.0" encoding="UTF-8" standalone="no"?>
<!--Created with ndjsontosvg (https:https://github.com/thompson318/ndjsontosvg) 
	from the simplified Google quickdraw data set. key_id = 5018309755928576-->
<svg width="600" height="600"
	xmlns="http://www.w3.org/2000/svg">
	xmlns:ndjsontosvg="https://github.com/thompson318/ndjsontosvg"
	xmlns:quickdraw="https://quickdraw.withgoogle.com/data"
	xmlns:scikit-surgery="https://doi.org/10.1007/s11548-020-02180-5">

	<rect width="100%" height="100%" fill="white" />
	<path d = "M 46.88 0.00 L 25.78 18.75 L 7.03 51.56 L 0.00 117.19 L 32.81 307.03 L 58.59 356.25" stroke="black" fill="transparent"/>
	<path d = "M 196.88 0.00 L 239.06 60.94 L 276.56 161.72 L 285.94 356.25 L 271.88 410.16" stroke="black" fill="transparent"/>
	<path d = "M 49.22 2.34 L 63.28 9.38 L 51.56 21.09 L 51.56 11.72 L 65.62 2.34 L 56.25 9.38 L 65.62 7.03 L 70.31 16.41 L 56.25 18.75 L 51.56 9.38 L 60.94 2.34 L 63.28 9.38 L 49.22 16.41 L 46.88 11.72 L 60.94 9.38" stroke="black" fill="transparent"/>
	<path d = "M 65.62 11.72 L 56.25 16.41" stroke="black" fill="transparent"/>
	<path d = "M 199.22 7.03 L 180.47 11.72 L 178.12 7.03 L 206.25 2.34 L 194.53 16.41 L 182.81 16.41 L 194.53 2.34 L 182.81 14.06" stroke="black" fill="transparent"/>
	<path d = "M 51.56 351.56 L 84.38 375.00 L 114.84 414.84 L 140.62 475.78" stroke="black" fill="transparent"/>
	<path d = "M 276.56 400.78 L 182.81 475.78 L 150.00 492.19 L 126.56 534.38" stroke="black" fill="transparent"/>
	<path d = "M 140.62 466.41 L 124.22 539.06" stroke="black" fill="transparent"/>
	<path d = "M 126.56 539.06 L 98.44 532.03 L 72.66 550.78 L 63.28 576.56 L 72.66 597.66" stroke="black" fill="transparent"/>
</svg>