<?xml version="1.0" encoding="UTF-8" standalone="no"?>
<!--Created with ndjsontosvg (https:https://github.com/thompson318/ndjsontosvg) 
	from the simplified Google quickdraw data set. key_id = 6295950035255296-->
<svg width="600" height="600"
	xmlns="http://www.w3.org/2000/svg">
	xmlns:ndjsontosvg="https://github.com/thompson318/ndjsontosvg"
	xmlns:quickdraw="https://quickdraw.withgoogle.com/data"
	xmlns:scikit-surgery="https://doi.org/10.1007/s11548-020-02180-5">

	<rect width="100%" height="100%" fill="white" />
	<path d = "M 53.91 9.38 L 46.88 16.41 L 49.22 39.84 L 65.62 56.25 L 79.69 53.91 L 89.06 16.41 L 53.91 0.00 L 46.88 14.06 L 53.91 46.88 L 77.34 49.22 L 89.06 21.09 L 60.94 14.06 L 58.59 32.81 L 65.62 39.84 L 67.97 30.47 L 58.59 18.75 L 58.59 35.16" stroke="black" fill="transparent"/>
	<path d = "M 53.91 16.41 L 30.47 25.78 L 2.34 70.31 L 0.00 131.25 L 11.72 199.22 L 39.84 257.81 L 75.00 311.72 L 187.50 400.78 L 182.81 522.66 L 152.34 550.78 L 150.00 588.28 L 161.72 597.66 L 180.47 597.66 L 208.59 564.84 L 213.28 539.06 L 201.56 525.00 L 180.47 517.97 L 192.19 515.62" stroke="black" fill="transparent"/>
	<path d = "M 196.88 386.72 L 217.97 384.38" stroke="black" fill="transparent"/>
</svg>