<?xml version="1.0" encoding="UTF-8" standalone="no"?>
<!--Created with ndjsontosvg (https:https://github.com/thompson318/ndjsontosvg) 
	from the simplified Google quickdraw data set. key_id = 6096121380208640-->
<svg width="600" height="600"
	xmlns="http://www.w3.org/2000/svg">
	xmlns:ndjsontosvg="https://github.com/thompson318/ndjsontosvg"
	xmlns:quickdraw="https://quickdraw.withgoogle.com/data"
	xmlns:scikit-surgery="https://doi.org/10.1007/s11548-020-02180-5">

	<rect width="100%" height="100%" fill="white" />
	<path d = "M 28.12 25.78 L 14.06 42.19 L 0.00 107.81 L 4.69 159.38 L 23.44 203.91 L 46.88 243.75 L 70.31 262.50 L 107.81 281.25 L 159.38 288.28" stroke="black" fill="transparent"/>
	<path d = "M 140.62 285.94 L 164.06 292.97 L 227.34 276.56 L 264.84 250.78 L 288.28 210.94 L 302.34 150.00 L 302.34 77.34 L 292.97 35.16 L 271.88 0.00" stroke="black" fill="transparent"/>
	<path d = "M 154.69 288.28 L 140.62 365.62 L 150.00 489.84 L 164.06 532.03 L 182.81 562.50 L 213.28 578.91" stroke="black" fill="transparent"/>
	<path d = "M 225.00 567.19 L 220.31 543.75 L 239.06 525.00 L 285.94 517.97 L 302.34 525.00 L 314.06 564.84 L 290.62 590.62 L 243.75 597.66 L 217.97 581.25 L 210.94 562.50 L 215.62 541.41 L 234.38 529.69" stroke="black" fill="transparent"/>
</svg>