<?xml version="1.0" encoding="UTF-8" standalone="no"?>
<!--Created with ndjsontosvg (https:https://github.com/thompson318/ndjsontosvg) 
	from the simplified Google quickdraw data set. key_id = 6195564804833280-->
<svg width="600" height="600"
	xmlns="http://www.w3.org/2000/svg">
	xmlns:ndjsontosvg="https://github.com/thompson318/ndjsontosvg"
	xmlns:quickdraw="https://quickdraw.withgoogle.com/data"
	xmlns:scikit-surgery="https://doi.org/10.1007/s11548-020-02180-5">

	<rect width="100%" height="100%" fill="white" />
	<path d = "M 0.00 246.09 L 0.00 246.09" stroke="black" fill="transparent"/>
	<path d = "M 18.75 161.72 L 18.75 161.72" stroke="black" fill="transparent"/>
	<path d = "M 9.38 46.88 L 9.38 46.88" stroke="black" fill="transparent"/>
	<path d = "M 53.91 42.19 L 58.59 39.84" stroke="black" fill="transparent"/>
	<path d = "M 105.47 37.50 L 105.47 37.50" stroke="black" fill="transparent"/>
	<path d = "M 103.12 35.16 L 103.12 35.16" stroke="black" fill="transparent"/>
	<path d = "M 152.34 37.50 L 152.34 37.50" stroke="black" fill="transparent"/>
	<path d = "M 201.56 37.50 L 201.56 37.50" stroke="black" fill="transparent"/>
	<path d = "M 255.47 37.50 L 255.47 37.50" stroke="black" fill="transparent"/>
	<path d = "M 0.00 42.19 L 133.59 35.16 L 597.66 35.16" stroke="black" fill="transparent"/>
	<path d = "M 14.06 23.44 L 23.44 23.44 L 42.19 63.28 L 70.31 0.00 L 114.84 49.22 L 140.62 9.38 L 152.34 7.03 L 171.09 18.75 L 196.88 72.66 L 246.09 14.06 L 283.59 49.22 L 314.06 7.03 L 330.47 4.69 L 339.84 7.03 L 372.66 56.25 L 398.44 14.06 L 407.81 9.38 L 452.34 46.88 L 482.81 11.72 L 492.19 11.72 L 513.28 53.91 L 522.66 51.56 L 539.06 23.44 L 555.47 16.41 L 574.22 21.09 L 581.25 37.50 L 595.31 46.88" stroke="black" fill="transparent"/>
</svg>