<?xml version="1.0" encoding="UTF-8" standalone="no"?>
<!--Created with ndjsontosvg (https:https://github.com/thompson318/ndjsontosvg) 
	from the simplified Google quickdraw data set. key_id = 4530353693786112-->
<svg width="600" height="600"
	xmlns="http://www.w3.org/2000/svg">
	xmlns:ndjsontosvg="https://github.com/thompson318/ndjsontosvg"
	xmlns:quickdraw="https://quickdraw.withgoogle.com/data"
	xmlns:scikit-surgery="https://doi.org/10.1007/s11548-020-02180-5">

	<rect width="100%" height="100%" fill="white" />
	<path d = "M 63.28 403.12 L 63.28 367.97 L 82.03 367.97 L 208.59 414.84 L 222.66 435.94 L 222.66 457.03" stroke="black" fill="transparent"/>
	<path d = "M 112.50 314.06 L 114.84 271.88 L 131.25 262.50 L 175.78 271.88 L 229.69 297.66 L 243.75 314.06 L 243.75 353.91" stroke="black" fill="transparent"/>
	<path d = "M 182.81 215.62 L 180.47 194.53 L 187.50 159.38 L 278.91 159.38 L 292.97 178.12 L 285.94 257.81" stroke="black" fill="transparent"/>
	<path d = "M 75.00 597.66 L 77.34 557.81 L 105.47 466.41 L 147.66 398.44 L 187.50 292.97 L 262.50 140.62 L 269.53 65.62 L 283.59 21.09 L 297.66 0.00" stroke="black" fill="transparent"/>
	<path d = "M 220.31 53.91 L 384.38 98.44" stroke="black" fill="transparent"/>
	<path d = "M 182.81 133.59 L 225.00 138.28 L 356.25 175.78" stroke="black" fill="transparent"/>
	<path d = "M 126.56 276.56 L 304.69 321.09" stroke="black" fill="transparent"/>
	<path d = "M 42.19 356.25 L 119.53 384.38 L 292.97 478.12 L 353.91 501.56" stroke="black" fill="transparent"/>
	<path d = "M 0.00 480.47 L 25.78 485.16 L 215.62 562.50" stroke="black" fill="transparent"/>
</svg>