<?xml version="1.0" encoding="UTF-8" standalone="no"?>
<!--Created with ndjsontosvg (https:https://github.com/thompson318/ndjsontosvg) 
	from the simplified Google quickdraw data set. key_id = 6177079991205888-->
<svg width="600" height="600"
	xmlns="http://www.w3.org/2000/svg">
	xmlns:ndjsontosvg="https://github.com/thompson318/ndjsontosvg"
	xmlns:quickdraw="https://quickdraw.withgoogle.com/data"
	xmlns:scikit-surgery="https://doi.org/10.1007/s11548-020-02180-5">

	<rect width="100%" height="100%" fill="white" />
	<path d = "M 269.53 597.66 L 222.66 480.47 L 229.69 370.31 L 208.59 288.28 L 206.25 213.28 L 84.38 215.62 L 70.31 187.50 L 11.72 150.00 L 0.00 133.59 L 21.09 119.53 L 49.22 79.69 L 51.56 63.28 L 37.50 32.81 L 46.88 25.78 L 166.41 2.34 L 330.47 2.34 L 372.66 49.22 L 405.47 117.19 L 370.31 147.66 L 360.94 187.50 L 349.22 199.22 L 227.34 222.66 L 210.94 220.31" stroke="black" fill="transparent"/>
	<path d = "M 131.25 56.25 L 110.16 77.34 L 159.38 107.81" stroke="black" fill="transparent"/>
	<path d = "M 178.12 56.25 L 194.53 112.50" stroke="black" fill="transparent"/>
	<path d = "M 166.41 79.69 L 196.88 67.97" stroke="black" fill="transparent"/>
</svg>