<?xml version="1.0" encoding="UTF-8" standalone="no"?>
<!--Created with ndjsontosvg (https:https://github.com/thompson318/ndjsontosvg) 
	from the simplified Google quickdraw data set. key_id = 5278722330460160-->
<svg width="600" height="600"
	xmlns="http://www.w3.org/2000/svg">
	xmlns:ndjsontosvg="https://github.com/thompson318/ndjsontosvg"
	xmlns:quickdraw="https://quickdraw.withgoogle.com/data"
	xmlns:scikit-surgery="https://doi.org/10.1007/s11548-020-02180-5">

	<rect width="100%" height="100%" fill="white" />
	<path d = "M 485.16 14.06 L 445.31 2.34 L 386.72 0.00 L 227.34 28.12 L 79.69 42.19 L 42.19 100.78 L 21.09 157.03 L 0.00 187.50 L 0.00 199.22 L 18.75 220.31 L 58.59 292.97 L 96.09 379.69 L 506.25 356.25 L 553.12 269.53 L 597.66 145.31 L 564.84 124.22 L 482.81 21.09" stroke="black" fill="transparent"/>
	<path d = "M 206.25 161.72 L 189.84 145.31 L 164.06 138.28 L 138.28 145.31 L 124.22 159.38 L 140.62 180.47 L 210.94 229.69 L 215.62 253.12 L 157.03 274.22 L 124.22 271.88 L 103.12 262.50" stroke="black" fill="transparent"/>
	<path d = "M 260.16 267.19 L 276.56 96.09" stroke="black" fill="transparent"/>
	<path d = "M 290.62 178.12 L 208.59 180.47" stroke="black" fill="transparent"/>
	<path d = "M 300.00 215.62 L 307.03 264.84 L 328.12 297.66 L 346.88 295.31 L 358.59 285.94 L 367.97 264.84 L 363.28 241.41 L 328.12 208.59 L 276.56 201.56" stroke="black" fill="transparent"/>
	<path d = "M 396.09 194.53 L 391.41 325.78 L 396.09 382.03 L 396.09 342.19" stroke="black" fill="transparent"/>
	<path d = "M 403.12 196.88 L 440.62 173.44 L 457.03 171.09 L 471.09 187.50 L 471.09 217.97 L 459.38 236.72 L 438.28 246.09 L 396.09 227.34" stroke="black" fill="transparent"/>
	<path d = "M 300.00 377.34 L 309.38 412.50 L 318.75 543.75" stroke="black" fill="transparent"/>
</svg>