<?xml version="1.0" encoding="UTF-8" standalone="no"?>
<!--Created with ndjsontosvg (https:https://github.com/thompson318/ndjsontosvg) 
	from the simplified Google quickdraw data set. key_id = 6111168785547264-->
<svg width="600" height="600"
	xmlns="http://www.w3.org/2000/svg">
	xmlns:ndjsontosvg="https://github.com/thompson318/ndjsontosvg"
	xmlns:quickdraw="https://quickdraw.withgoogle.com/data"
	xmlns:scikit-surgery="https://doi.org/10.1007/s11548-020-02180-5">

	<rect width="100%" height="100%" fill="white" />
	<path d = "M 250.78 597.66 L 236.72 525.00 L 225.00 330.47" stroke="black" fill="transparent"/>
	<path d = "M 229.69 323.44 L 117.19 316.41 L 82.03 309.38 L 49.22 290.62 L 18.75 253.12 L 2.34 203.91 L 2.34 135.94 L 14.06 91.41 L 46.88 49.22 L 84.38 23.44 L 180.47 0.00 L 274.22 9.38 L 332.81 35.16 L 377.34 67.97 L 405.47 114.84 L 424.22 168.75 L 428.91 210.94 L 421.88 255.47 L 382.03 302.34 L 339.84 323.44 L 276.56 328.12 L 215.62 309.38" stroke="black" fill="transparent"/>
	<path d = "M 117.19 103.12 L 89.06 128.91 L 79.69 164.06 L 114.84 225.00 L 93.75 241.41 L 77.34 241.41 L 42.19 210.94" stroke="black" fill="transparent"/>
	<path d = "M 175.78 248.44 L 182.81 178.12 L 180.47 159.38 L 164.06 140.62 L 222.66 126.56" stroke="black" fill="transparent"/>
	<path d = "M 239.06 159.38 L 222.66 199.22 L 225.00 250.78" stroke="black" fill="transparent"/>
	<path d = "M 253.12 278.91 L 288.28 236.72 L 288.28 189.84" stroke="black" fill="transparent"/>
	<path d = "M 278.91 161.72 L 255.47 154.69" stroke="black" fill="transparent"/>
	<path d = "M 342.19 271.88 L 332.81 182.81 L 346.88 166.41 L 384.38 157.03" stroke="black" fill="transparent"/>
</svg>