<?xml version="1.0" encoding="UTF-8" standalone="no"?>
<!--Created with ndjsontosvg (https:https://github.com/thompson318/ndjsontosvg) 
	from the simplified Google quickdraw data set. key_id = 5942013071458304-->
<svg width="600" height="600"
	xmlns="http://www.w3.org/2000/svg">
	xmlns:ndjsontosvg="https://github.com/thompson318/ndjsontosvg"
	xmlns:quickdraw="https://quickdraw.withgoogle.com/data"
	xmlns:scikit-surgery="https://doi.org/10.1007/s11548-020-02180-5">

	<rect width="100%" height="100%" fill="white" />
	<path d = "M 196.88 597.66 L 187.50 269.53" stroke="black" fill="transparent"/>
	<path d = "M 225.00 574.22 L 243.75 400.78 L 250.78 227.34 L 309.38 159.38 L 325.78 53.91 L 250.78 16.41 L 140.62 0.00 L 121.88 2.34 L 53.91 37.50 L 11.72 70.31 L 0.00 175.78 L 2.34 185.16 L 67.97 210.94 L 175.78 232.03 L 180.47 262.50 L 194.53 229.69 L 225.00 225.00 L 232.03 215.62" stroke="black" fill="transparent"/>
	<path d = "M 140.62 100.78 L 117.19 114.84 L 110.16 133.59 L 114.84 152.34 L 105.47 159.38" stroke="black" fill="transparent"/>
	<path d = "M 171.09 96.09 L 154.69 168.75" stroke="black" fill="transparent"/>
	<path d = "M 147.66 124.22 L 182.81 131.25" stroke="black" fill="transparent"/>
	<path d = "M 187.50 147.66 L 187.50 164.06 L 194.53 166.41 L 201.56 157.03 L 201.56 142.97 L 182.81 164.06" stroke="black" fill="transparent"/>
	<path d = "M 225.00 131.25 L 225.00 178.12 L 222.66 161.72 L 229.69 145.31 L 262.50 119.53 L 269.53 124.22 L 269.53 140.62 L 255.47 161.72 L 236.72 164.06 L 227.34 152.34 L 229.69 140.62" stroke="black" fill="transparent"/>
</svg>