<?xml version="1.0" encoding="UTF-8" standalone="no"?>
<!--Created with ndjsontosvg (https:https://github.com/thompson318/ndjsontosvg) 
	from the simplified Google quickdraw data set. key_id = 6430545674240000-->
<svg width="600" height="600"
	xmlns="http://www.w3.org/2000/svg">
	xmlns:ndjsontosvg="https://github.com/thompson318/ndjsontosvg"
	xmlns:quickdraw="https://quickdraw.withgoogle.com/data"
	xmlns:scikit-surgery="https://doi.org/10.1007/s11548-020-02180-5">

	<rect width="100%" height="100%" fill="white" />
	<path d = "M 89.06 35.16 L 150.00 14.06 L 389.06 0.00 L 440.62 35.16 L 576.56 150.00" stroke="black" fill="transparent"/>
	<path d = "M 98.44 37.50 L 28.12 121.88 L 0.00 142.97 L 14.06 253.12 L 9.38 386.72" stroke="black" fill="transparent"/>
	<path d = "M 543.75 152.34 L 550.78 314.06 L 445.31 419.53" stroke="black" fill="transparent"/>
	<path d = "M 32.81 400.78 L 16.41 400.78 L 103.12 492.19 L 353.91 466.41 L 461.72 473.44" stroke="black" fill="transparent"/>
	<path d = "M 215.62 93.75 L 185.16 110.16 L 150.00 150.00 L 138.28 192.19 L 150.00 229.69 L 220.31 311.72 L 234.38 346.88 L 234.38 377.34 L 217.97 407.81 L 175.78 426.56 L 124.22 424.22 L 112.50 410.16" stroke="black" fill="transparent"/>
	<path d = "M 353.91 178.12 L 330.47 227.34 L 304.69 316.41" stroke="black" fill="transparent"/>
	<path d = "M 271.88 243.75 L 384.38 236.72" stroke="black" fill="transparent"/>
	<path d = "M 466.41 199.22 L 450.00 199.22 L 424.22 222.66 L 391.41 269.53 L 405.47 271.88 L 438.28 220.31" stroke="black" fill="transparent"/>
	<path d = "M 532.03 140.62 L 529.69 196.88 L 517.97 253.12 L 503.91 288.28 L 487.50 302.34 L 478.12 271.88 L 478.12 246.09 L 494.53 196.88 L 539.06 147.66 L 560.16 140.62 L 574.22 145.31 L 560.16 173.44 L 494.53 217.97" stroke="black" fill="transparent"/>
	<path d = "M 302.34 382.03 L 290.62 478.12 L 292.97 555.47 L 304.69 597.66" stroke="black" fill="transparent"/>
</svg>