<?xml version="1.0" encoding="UTF-8" standalone="no"?>
<!--Created with ndjsontosvg (https:https://github.com/thompson318/ndjsontosvg) 
	from the simplified Google quickdraw data set. key_id = 6410567466090496-->
<svg width="600" height="600"
	xmlns="http://www.w3.org/2000/svg">
	xmlns:ndjsontosvg="https://github.com/thompson318/ndjsontosvg"
	xmlns:quickdraw="https://quickdraw.withgoogle.com/data"
	xmlns:scikit-surgery="https://doi.org/10.1007/s11548-020-02180-5">

	<rect width="100%" height="100%" fill="white" />
	<path d = "M 217.97 0.00 L 14.06 215.62 L 0.00 232.03 L 11.72 239.06 L 56.25 246.09 L 257.81 241.41 L 363.28 269.53 L 515.62 133.59 L 590.62 82.03 L 592.97 72.66 L 478.12 44.53 L 220.31 18.75" stroke="black" fill="transparent"/>
	<path d = "M 9.38 243.75 L 28.12 557.81 L 42.19 597.66" stroke="black" fill="transparent"/>
	<path d = "M 360.94 255.47 L 358.59 506.25 L 349.22 517.97" stroke="black" fill="transparent"/>
	<path d = "M 84.38 553.12 L 84.38 574.22 L 138.28 574.22 L 396.09 536.72" stroke="black" fill="transparent"/>
	<path d = "M 339.84 522.66 L 578.91 335.16" stroke="black" fill="transparent"/>
	<path d = "M 592.97 283.59 L 592.97 75.00 L 585.94 67.97" stroke="black" fill="transparent"/>
	<path d = "M 70.31 300.00 L 75.00 487.50 L 103.12 494.53 L 220.31 482.81 L 239.06 489.84 L 250.78 297.66 L 227.34 292.97 L 196.88 297.66 L 126.56 328.12 L 82.03 335.16 L 67.97 335.16 L 63.28 321.09" stroke="black" fill="transparent"/>
	<path d = "M 117.19 152.34 L 89.06 180.47 L 98.44 199.22 L 138.28 203.91 L 161.72 189.84 L 166.41 152.34 L 145.31 140.62 L 107.81 150.00 L 100.78 159.38 L 105.47 171.09" stroke="black" fill="transparent"/>
	<path d = "M 213.28 46.88 L 187.50 93.75 L 199.22 103.12 L 234.38 107.81 L 246.09 96.09 L 253.12 67.97 L 239.06 46.88 L 213.28 49.22 L 199.22 72.66 L 210.94 103.12" stroke="black" fill="transparent"/>
	<path d = "M 339.84 152.34 L 309.38 180.47 L 311.72 192.19 L 339.84 201.56 L 365.62 189.84 L 377.34 152.34 L 365.62 133.59 L 335.16 133.59 L 323.44 142.97 L 316.41 161.72 L 321.09 171.09" stroke="black" fill="transparent"/>
	<path d = "M 438.28 58.59 L 412.50 84.38 L 419.53 98.44 L 454.69 107.81 L 478.12 91.41 L 482.81 58.59 L 473.44 46.88 L 457.03 42.19 L 428.91 49.22 L 414.84 58.59 L 412.50 70.31 L 419.53 79.69" stroke="black" fill="transparent"/>
</svg>