<?xml version="1.0" encoding="UTF-8" standalone="no"?>
<!--Created with ndjsontosvg (https:https://github.com/thompson318/ndjsontosvg) 
	from the simplified Google quickdraw data set. key_id = 5915434987552768-->
<svg width="600" height="600"
	xmlns="http://www.w3.org/2000/svg">
	xmlns:ndjsontosvg="https://github.com/thompson318/ndjsontosvg"
	xmlns:quickdraw="https://quickdraw.withgoogle.com/data"
	xmlns:scikit-surgery="https://doi.org/10.1007/s11548-020-02180-5">

	<rect width="100%" height="100%" fill="white" />
	<path d = "M 100.78 424.22 L 126.56 351.56 L 210.94 210.94 L 246.09 171.09" stroke="black" fill="transparent"/>
	<path d = "M 248.44 168.75 L 250.78 173.44" stroke="black" fill="transparent"/>
	<path d = "M 229.69 262.50 L 241.41 396.09" stroke="black" fill="transparent"/>
	<path d = "M 241.41 396.09 L 225.00 398.44 L 201.56 391.41 L 159.38 356.25 L 117.19 243.75 L 269.53 203.91" stroke="black" fill="transparent"/>
	<path d = "M 140.62 466.41 L 121.88 435.94" stroke="black" fill="transparent"/>
	<path d = "M 121.88 426.56 L 128.91 410.16 L 164.06 391.41 L 330.47 344.53 L 372.66 318.75 L 372.66 110.16" stroke="black" fill="transparent"/>
	<path d = "M 421.88 297.66 L 466.41 311.72 L 473.44 323.44 L 457.03 344.53 L 405.47 370.31" stroke="black" fill="transparent"/>
	<path d = "M 405.47 370.31 L 269.53 433.59" stroke="black" fill="transparent"/>
	<path d = "M 382.03 246.09 L 367.97 217.97 L 335.16 182.81 L 267.19 142.97" stroke="black" fill="transparent"/>
	<path d = "M 267.19 142.97 L 391.41 0.00 L 260.16 135.94 L 360.94 0.00 L 248.44 133.59 L 351.56 2.34 L 236.72 135.94 L 328.12 14.06 L 213.28 150.00 L 316.41 23.44 L 194.53 159.38 L 295.31 44.53 L 150.00 189.84 L 267.19 84.38 L 142.97 199.22 L 257.81 119.53 L 126.56 225.00 L 255.47 175.78 L 117.19 239.06 L 255.47 194.53 L 117.19 239.06 L 257.81 208.59 L 117.19 239.06" stroke="black" fill="transparent"/>
	<path d = "M 117.19 239.06 L 260.16 253.12 L 117.19 239.06 L 262.50 292.97 L 117.19 239.06 L 264.84 311.72 L 117.19 239.06" stroke="black" fill="transparent"/>
	<path d = "M 82.03 309.38 L 53.91 372.66" stroke="black" fill="transparent"/>
	<path d = "M 53.91 372.66 L 28.12 419.53 L 9.38 314.06 L 0.00 194.53" stroke="black" fill="transparent"/>
	<path d = "M 227.34 157.03 L 239.06 128.91 L 248.44 126.56 L 257.81 140.62" stroke="black" fill="transparent"/>
	<path d = "M 257.81 140.62 L 307.03 178.12 L 391.41 220.31 L 201.56 110.16" stroke="black" fill="transparent"/>
	<path d = "M 98.44 44.53 L 49.22 131.25 L 18.75 208.59" stroke="black" fill="transparent"/>
	<path d = "M 18.75 208.59 L 9.38 260.16 L 16.41 269.53 L 53.91 262.50 L 96.09 213.28" stroke="black" fill="transparent"/>
	<path d = "M 157.03 103.12 L 157.03 103.12" stroke="black" fill="transparent"/>
	<path d = "M 157.03 103.12 L 42.19 213.28" stroke="black" fill="transparent"/>
	<path d = "M 18.75 290.62 L 18.75 290.62" stroke="black" fill="transparent"/>
	<path d = "M 18.75 290.62 L 126.56 220.31 L 185.16 192.19" stroke="black" fill="transparent"/>
	<path d = "M 171.09 199.22 L 75.00 262.50 L 14.06 321.09" stroke="black" fill="transparent"/>
	<path d = "M 14.06 321.09 L 0.00 332.81" stroke="black" fill="transparent"/>
	<path d = "M 142.97 365.62 L 142.97 365.62" stroke="black" fill="transparent"/>
	<path d = "M 142.97 365.62 L 117.19 386.72 L 91.41 421.88" stroke="black" fill="transparent"/>
	<path d = "M 91.41 421.88 L 96.09 496.88 L 128.91 553.12 L 171.09 597.66" stroke="black" fill="transparent"/>
	<path d = "M 171.09 597.66 L 241.41 597.66 L 67.97 206.25" stroke="black" fill="transparent"/>
</svg>