<?xml version="1.0" encoding="UTF-8" standalone="no"?>
<!--Created with ndjsontosvg (https:https://github.com/thompson318/ndjsontosvg) 
	from the simplified Google quickdraw data set. key_id = 5203701146845184-->
<svg width="600" height="600"
	xmlns="http://www.w3.org/2000/svg">
	xmlns:ndjsontosvg="https://github.com/thompson318/ndjsontosvg"
	xmlns:quickdraw="https://quickdraw.withgoogle.com/data"
	xmlns:scikit-surgery="https://doi.org/10.1007/s11548-020-02180-5">

	<rect width="100%" height="100%" fill="white" />
	<path d = "M 201.56 7.03 L 597.66 63.28 L 496.88 128.91 L 445.31 147.66 L 222.66 126.56 L 93.75 105.47 L 0.00 75.00 L 79.69 35.16 L 192.19 0.00" stroke="black" fill="transparent"/>
	<path d = "M 464.06 56.25 L 464.06 89.06 L 452.34 112.50 L 417.19 131.25 L 363.28 133.59 L 342.19 110.16 L 342.19 91.41 L 351.56 79.69 L 372.66 77.34 L 419.53 77.34 L 435.94 84.38 L 442.97 100.78 L 431.25 128.91 L 407.81 135.94" stroke="black" fill="transparent"/>
	<path d = "M 147.66 39.84 L 203.91 46.88 L 210.94 86.72 L 194.53 110.16 L 154.69 93.75 L 114.84 49.22 L 114.84 37.50 L 133.59 30.47 L 150.00 28.12 L 168.75 37.50" stroke="black" fill="transparent"/>
	<path d = "M 182.81 72.66 L 208.59 72.66" stroke="black" fill="transparent"/>
	<path d = "M 271.88 49.22 L 281.25 53.91 L 281.25 67.97 L 250.78 70.31 L 239.06 49.22 L 257.81 42.19" stroke="black" fill="transparent"/>
	<path d = "M 332.81 35.16 L 330.47 49.22 L 309.38 53.91 L 295.31 51.56 L 290.62 32.81 L 321.09 35.16" stroke="black" fill="transparent"/>
	<path d = "M 414.84 32.81 L 417.19 46.88 L 407.81 60.94 L 365.62 75.00 L 335.16 58.59 L 332.81 39.84 L 346.88 32.81 L 393.75 32.81" stroke="black" fill="transparent"/>
	<path d = "M 447.66 152.34 L 461.72 194.53" stroke="black" fill="transparent"/>
</svg>