<?xml version="1.0" encoding="UTF-8" standalone="no"?>
<!--Created with ndjsontosvg (https:https://github.com/thompson318/ndjsontosvg) 
	from the simplified Google quickdraw data set. key_id = 5713969786388480-->
<svg width="600" height="600"
	xmlns="http://www.w3.org/2000/svg">
	xmlns:ndjsontosvg="https://github.com/thompson318/ndjsontosvg"
	xmlns:quickdraw="https://quickdraw.withgoogle.com/data"
	xmlns:scikit-surgery="https://doi.org/10.1007/s11548-020-02180-5">

	<rect width="100%" height="100%" fill="white" />
	<path d = "M 18.75 138.28 L 53.91 135.94 L 180.47 152.34 L 189.84 154.69 L 192.19 171.09" stroke="black" fill="transparent"/>
	<path d = "M 23.44 128.91 L 53.91 222.66 L 77.34 250.78 L 171.09 262.50 L 344.53 269.53 L 346.88 276.56 L 344.53 271.88" stroke="black" fill="transparent"/>
	<path d = "M 550.78 154.69 L 520.31 194.53 L 496.88 257.81 L 482.81 264.84 L 428.91 269.53 L 370.31 283.59 L 356.25 276.56" stroke="black" fill="transparent"/>
	<path d = "M 548.44 159.38 L 330.47 164.06 L 192.19 152.34" stroke="black" fill="transparent"/>
	<path d = "M 16.41 138.28 L 25.78 246.09 L 25.78 393.75 L 39.84 379.69" stroke="black" fill="transparent"/>
	<path d = "M 77.34 248.44 L 72.66 311.72 L 75.00 520.31 L 39.84 372.66" stroke="black" fill="transparent"/>
	<path d = "M 110.16 522.66 L 241.41 527.34 L 288.28 541.41" stroke="black" fill="transparent"/>
	<path d = "M 499.22 285.94 L 520.31 407.81 L 517.97 557.81 L 421.88 560.16 L 300.00 543.75" stroke="black" fill="transparent"/>
	<path d = "M 560.16 192.19 L 581.25 309.38 L 597.66 471.09 L 550.78 555.47" stroke="black" fill="transparent"/>
	<path d = "M 2.34 150.00 L 16.41 0.00" stroke="black" fill="transparent"/>
</svg>