<?xml version="1.0" encoding="UTF-8" standalone="no"?>
<!--Created with ndjsontosvg (https:https://github.com/thompson318/ndjsontosvg) 
	from the simplified Google quickdraw data set. key_id = 4699614793957376-->
<svg width="600" height="600"
	xmlns="http://www.w3.org/2000/svg">
	xmlns:ndjsontosvg="https://github.com/thompson318/ndjsontosvg"
	xmlns:quickdraw="https://quickdraw.withgoogle.com/data"
	xmlns:scikit-surgery="https://doi.org/10.1007/s11548-020-02180-5">

	<rect width="100%" height="100%" fill="white" />
	<path d = "M 161.72 581.25 L 105.47 546.09 L 70.31 506.25 L 16.41 419.53 L 2.34 363.28 L 0.00 314.06 L 23.44 246.09 L 58.59 208.59 L 110.16 180.47 L 173.44 161.72 L 274.22 152.34 L 367.97 164.06 L 412.50 187.50 L 461.72 227.34 L 485.16 264.84 L 494.53 304.69 L 494.53 393.75 L 487.50 445.31 L 471.09 485.16 L 433.59 534.38 L 382.03 564.84 L 292.97 597.66 L 236.72 595.31 L 171.09 576.56" stroke="black" fill="transparent"/>
	<path d = "M 164.06 157.03 L 103.12 77.34 L 145.31 107.81 L 157.03 23.44 L 166.41 25.78 L 192.19 67.97 L 199.22 65.62 L 236.72 18.75 L 260.16 0.00 L 271.88 2.34 L 278.91 14.06 L 281.25 53.91 L 304.69 30.47 L 318.75 30.47 L 314.06 63.28 L 269.53 128.91" stroke="black" fill="transparent"/>
	<path d = "M 93.75 290.62 L 91.41 288.28" stroke="black" fill="transparent"/>
	<path d = "M 278.91 271.88 L 281.25 274.22" stroke="black" fill="transparent"/>
	<path d = "M 321.09 314.06 L 321.09 314.06" stroke="black" fill="transparent"/>
	<path d = "M 220.31 438.28 L 217.97 440.62" stroke="black" fill="transparent"/>
	<path d = "M 267.19 468.75 L 269.53 468.75" stroke="black" fill="transparent"/>
	<path d = "M 410.16 428.91 L 410.16 428.91" stroke="black" fill="transparent"/>
	<path d = "M 96.09 407.81 L 96.09 410.16" stroke="black" fill="transparent"/>
	<path d = "M 370.31 360.94 L 370.31 360.94" stroke="black" fill="transparent"/>
</svg>