<?xml version="1.0" encoding="UTF-8" standalone="no"?>
<!--Created with ndjsontosvg (https:https://github.com/thompson318/ndjsontosvg) 
	from the simplified Google quickdraw data set. key_id = 5535280960372736-->
<svg width="600" height="600"
	xmlns="http://www.w3.org/2000/svg">
	xmlns:ndjsontosvg="https://github.com/thompson318/ndjsontosvg"
	xmlns:quickdraw="https://quickdraw.withgoogle.com/data"
	xmlns:scikit-surgery="https://doi.org/10.1007/s11548-020-02180-5">

	<rect width="100%" height="100%" fill="white" />
	<path d = "M 0.00 452.34 L 9.38 452.34 L 16.41 461.72 L 67.97 576.56 L 93.75 597.66 L 128.91 576.56 L 168.75 536.72 L 222.66 431.25 L 246.09 339.84 L 243.75 246.09 L 232.03 201.56 L 192.19 142.97 L 145.31 121.88 L 105.47 124.22 L 70.31 138.28 L 46.88 157.03 L 14.06 210.94 L 0.00 262.50 L 0.00 328.12 L 30.47 459.38" stroke="black" fill="transparent"/>
	<path d = "M 96.09 107.81 L 79.69 63.28 L 79.69 44.53 L 96.09 11.72 L 117.19 0.00 L 135.94 0.00 L 140.62 9.38 L 145.31 49.22 L 140.62 63.28 L 126.56 65.62 L 121.88 51.56 L 126.56 35.16 L 142.97 25.78 L 178.12 49.22 L 203.91 25.78 L 220.31 23.44 L 229.69 32.81 L 206.25 67.97 L 161.72 84.38 L 121.88 79.69 L 133.59 84.38 L 135.94 98.44 L 96.09 131.25 L 79.69 133.59 L 67.97 124.22 L 79.69 98.44 L 117.19 72.66 L 58.59 100.78 L 67.97 86.72 L 150.00 46.88 L 114.84 67.97 L 60.94 79.69 L 133.59 75.00" stroke="black" fill="transparent"/>
</svg>