<?xml version="1.0" encoding="UTF-8" standalone="no"?>
<!--Created with ndjsontosvg (https:https://github.com/thompson318/ndjsontosvg) 
	from the simplified Google quickdraw data set. key_id = 4779269139988480-->
<svg width="600" height="600"
	xmlns="http://www.w3.org/2000/svg">
	xmlns:ndjsontosvg="https://github.com/thompson318/ndjsontosvg"
	xmlns:quickdraw="https://quickdraw.withgoogle.com/data"
	xmlns:scikit-surgery="https://doi.org/10.1007/s11548-020-02180-5">

	<rect width="100%" height="100%" fill="white" />
	<path d = "M 152.34 21.09 L 152.34 84.38 L 189.84 84.38 L 201.56 65.62 L 196.88 4.69 L 182.81 0.00 L 152.34 11.72" stroke="black" fill="transparent"/>
	<path d = "M 145.31 89.06 L 112.50 89.06 L 91.41 117.19 L 44.53 142.97 L 7.03 264.84 L 0.00 353.91 L 65.62 489.84 L 84.38 510.94 L 128.91 541.41 L 173.44 583.59 L 239.06 597.66 L 257.81 592.97 L 335.16 543.75 L 365.62 508.59 L 386.72 447.66 L 403.12 321.09 L 403.12 243.75 L 398.44 222.66 L 377.34 189.84 L 314.06 154.69 L 285.94 131.25 L 262.50 124.22 L 239.06 93.75 L 206.25 84.38" stroke="black" fill="transparent"/>
	<path d = "M 199.22 84.38 L 194.53 84.38" stroke="black" fill="transparent"/>
	<path d = "M 98.44 346.88 L 98.44 351.56" stroke="black" fill="transparent"/>
	<path d = "M 128.91 421.88 L 142.97 445.31" stroke="black" fill="transparent"/>
	<path d = "M 260.16 466.41 L 276.56 454.69" stroke="black" fill="transparent"/>
</svg>