<?xml version="1.0" encoding="UTF-8" standalone="no"?>
<!--Created with ndjsontosvg (https:https://github.com/thompson318/ndjsontosvg) 
	from the simplified Google quickdraw data set. key_id = 5797264389832704-->
<svg width="600" height="600"
	xmlns="http://www.w3.org/2000/svg">
	xmlns:ndjsontosvg="https://github.com/thompson318/ndjsontosvg"
	xmlns:quickdraw="https://quickdraw.withgoogle.com/data"
	xmlns:scikit-surgery="https://doi.org/10.1007/s11548-020-02180-5">

	<rect width="100%" height="100%" fill="white" />
	<path d = "M 150.00 578.91 L 124.22 525.00 L 70.31 450.00 L 16.41 328.12 L 0.00 269.53 L 4.69 217.97 L 18.75 194.53 L 138.28 124.22 L 213.28 164.06 L 232.03 185.16" stroke="black" fill="transparent"/>
	<path d = "M 232.03 185.16 L 283.59 138.28 L 330.47 145.31 L 356.25 180.47 L 363.28 239.06 L 290.62 447.66 L 246.09 532.03 L 213.28 569.53 L 138.28 597.66" stroke="black" fill="transparent"/>
	<path d = "M 138.28 117.19 L 98.44 107.81 L 77.34 91.41 L 77.34 56.25 L 86.72 35.16 L 114.84 9.38 L 138.28 4.69 L 157.03 25.78 L 166.41 105.47 L 180.47 117.19" stroke="black" fill="transparent"/>
	<path d = "M 180.47 117.19 L 180.47 96.09 L 206.25 25.78 L 222.66 0.00 L 248.44 0.00 L 260.16 25.78 L 255.47 63.28 L 227.34 100.78 L 210.94 138.28" stroke="black" fill="transparent"/>
	<path d = "M 232.03 84.38 L 342.19 28.12 L 363.28 25.78 L 370.31 44.53 L 363.28 89.06" stroke="black" fill="transparent"/>
</svg>