<?xml version="1.0" encoding="UTF-8" standalone="no"?>
<!--Created with ndjsontosvg (https:https://github.com/thompson318/ndjsontosvg) 
	from the simplified Google quickdraw data set. key_id = 5034983930462208-->
<svg width="600" height="600"
	xmlns="http://www.w3.org/2000/svg">
	xmlns:ndjsontosvg="https://github.com/thompson318/ndjsontosvg"
	xmlns:quickdraw="https://quickdraw.withgoogle.com/data"
	xmlns:scikit-surgery="https://doi.org/10.1007/s11548-020-02180-5">

	<rect width="100%" height="100%" fill="white" />
	<path d = "M 227.34 91.41 L 112.50 96.09 L 35.16 138.28 L 16.41 168.75 L 11.72 302.34 L 18.75 351.56 L 32.81 384.38 L 2.34 473.44 L 0.00 560.16 L 4.69 571.88 L 35.16 595.31 L 63.28 597.66 L 112.50 583.59 L 208.59 527.34 L 255.47 494.53 L 300.00 447.66 L 344.53 367.97 L 403.12 213.28 L 400.78 180.47 L 384.38 147.66 L 339.84 103.12 L 255.47 77.34 L 210.94 75.00 L 182.81 89.06" stroke="black" fill="transparent"/>
	<path d = "M 189.84 89.06 L 175.78 0.00 L 239.06 63.28 L 260.16 30.47 L 260.16 75.00 L 325.78 28.12 L 288.28 89.06" stroke="black" fill="transparent"/>
</svg>