<?xml version="1.0" encoding="UTF-8" standalone="no"?>
<!--Created with ndjsontosvg (https:https://github.com/thompson318/ndjsontosvg) 
	from the simplified Google quickdraw data set. key_id = 5438263609262080-->
<svg width="600" height="600"
	xmlns="http://www.w3.org/2000/svg">
	xmlns:ndjsontosvg="https://github.com/thompson318/ndjsontosvg"
	xmlns:quickdraw="https://quickdraw.withgoogle.com/data"
	xmlns:scikit-surgery="https://doi.org/10.1007/s11548-020-02180-5">

	<rect width="100%" height="100%" fill="white" />
	<path d = "M 42.19 248.44 L 35.16 281.25 L 25.78 539.06 L 37.50 283.59 L 51.56 196.88 L 44.53 175.78 L 9.38 147.66 L 0.00 131.25 L 9.38 77.34 L 23.44 53.91 L 58.59 25.78 L 96.09 9.38 L 147.66 0.00 L 175.78 2.34 L 199.22 11.72 L 220.31 35.16 L 232.03 60.94 L 217.97 112.50 L 196.88 133.59 L 77.34 178.12 L 107.81 171.09 L 128.91 152.34 L 133.59 157.03 L 110.16 257.81 L 107.81 438.28 L 96.09 539.06 L 77.34 595.31 L 82.03 597.66" stroke="black" fill="transparent"/>
	<path d = "M 44.53 215.62 L 28.12 243.75 L 14.06 332.81 L 2.34 457.03 L 4.69 468.75 L 14.06 464.06" stroke="black" fill="transparent"/>
	<path d = "M 185.16 166.41 L 220.31 264.84 L 255.47 328.12" stroke="black" fill="transparent"/>
	<path d = "M 236.72 152.34 L 246.09 182.81 L 278.91 234.38 L 325.78 285.94" stroke="black" fill="transparent"/>
	<path d = "M 269.53 114.84 L 328.12 128.91 L 407.81 128.91" stroke="black" fill="transparent"/>
	<path d = "M 276.56 63.28 L 421.88 75.00 L 438.28 84.38" stroke="black" fill="transparent"/>
</svg>