<?xml version="1.0" encoding="UTF-8" standalone="no"?>
<!--Created with ndjsontosvg (https:https://github.com/thompson318/ndjsontosvg) 
	from the simplified Google quickdraw data set. key_id = 5799244633997312-->
<svg width="600" height="600"
	xmlns="http://www.w3.org/2000/svg">
	xmlns:ndjsontosvg="https://github.com/thompson318/ndjsontosvg"
	xmlns:quickdraw="https://quickdraw.withgoogle.com/data"
	xmlns:scikit-surgery="https://doi.org/10.1007/s11548-020-02180-5">

	<rect width="100%" height="100%" fill="white" />
	<path d = "M 103.12 595.31 L 107.81 323.44 L 7.03 318.75 L 4.69 311.72 L 2.34 2.34 L 96.09 16.41 L 309.38 23.44 L 302.34 292.97 L 253.12 314.06 L 145.31 321.09 L 145.31 597.66 L 98.44 585.94" stroke="black" fill="transparent"/>
	<path d = "M 124.22 203.91 L 98.44 229.69 L 89.06 248.44 L 89.06 276.56 L 98.44 288.28 L 114.84 297.66 L 157.03 300.00 L 173.44 295.31 L 189.84 276.56 L 187.50 248.44 L 164.06 217.97 L 142.97 208.59 L 124.22 217.97" stroke="black" fill="transparent"/>
	<path d = "M 117.19 119.53 L 100.78 147.66 L 107.81 180.47 L 145.31 182.81 L 168.75 166.41 L 175.78 150.00 L 173.44 121.88 L 159.38 110.16 L 131.25 100.78 L 121.88 103.12 L 119.53 112.50" stroke="black" fill="transparent"/>
	<path d = "M 131.25 39.84 L 121.88 46.88 L 124.22 82.03 L 164.06 98.44 L 185.16 93.75 L 196.88 82.03 L 206.25 42.19 L 194.53 23.44 L 161.72 18.75 L 138.28 35.16 L 135.94 60.94" stroke="black" fill="transparent"/>
</svg>