<?xml version="1.0" encoding="UTF-8" standalone="no"?>
<!--Created with ndjsontosvg (https:https://github.com/thompson318/ndjsontosvg) 
	from the simplified Google quickdraw data set. key_id = 5054023684063232-->
<svg width="600" height="600"
	xmlns="http://www.w3.org/2000/svg">
	xmlns:ndjsontosvg="https://github.com/thompson318/ndjsontosvg"
	xmlns:quickdraw="https://quickdraw.withgoogle.com/data"
	xmlns:scikit-surgery="https://doi.org/10.1007/s11548-020-02180-5">

	<rect width="100%" height="100%" fill="white" />
	<path d = "M 241.41 60.94 L 192.19 65.62 L 18.75 110.16 L 7.03 119.53 L 0.00 138.28 L 4.69 161.72 L 21.09 185.16 L 49.22 194.53 L 229.69 220.31 L 403.12 225.00 L 471.09 264.84 L 501.56 267.19 L 546.09 243.75 L 567.19 215.62 L 583.59 178.12 L 597.66 63.28 L 595.31 14.06 L 585.94 7.03 L 557.81 0.00 L 435.94 14.06 L 405.47 35.16 L 391.41 79.69 L 382.03 84.38 L 276.56 75.00 L 236.72 65.62" stroke="black" fill="transparent"/>
	<path d = "M 262.50 65.62 L 311.72 11.72 L 335.16 0.00 L 342.19 4.69 L 342.19 18.75 L 325.78 58.59" stroke="black" fill="transparent"/>
	<path d = "M 147.66 121.88 L 140.62 164.06 L 159.38 175.78 L 171.09 173.44 L 199.22 126.56 L 180.47 110.16 L 145.31 110.16" stroke="black" fill="transparent"/>
	<path d = "M 171.09 103.12 L 159.38 159.38" stroke="black" fill="transparent"/>
	<path d = "M 133.59 138.28 L 161.72 133.59 L 192.19 145.31" stroke="black" fill="transparent"/>
	<path d = "M 281.25 126.56 L 281.25 199.22 L 292.97 201.56 L 307.03 189.84 L 307.03 152.34 L 302.34 140.62 L 283.59 133.59" stroke="black" fill="transparent"/>
	<path d = "M 307.03 133.59 L 292.97 166.41 L 295.31 206.25" stroke="black" fill="transparent"/>
</svg>