<?xml version="1.0" encoding="UTF-8" standalone="no"?>
<!--Created with ndjsontosvg (https:https://github.com/thompson318/ndjsontosvg) 
	from the simplified Google quickdraw data set. key_id = 6382975790874624-->
<svg width="600" height="600"
	xmlns="http://www.w3.org/2000/svg">
	xmlns:ndjsontosvg="https://github.com/thompson318/ndjsontosvg"
	xmlns:quickdraw="https://quickdraw.withgoogle.com/data"
	xmlns:scikit-surgery="https://doi.org/10.1007/s11548-020-02180-5">

	<rect width="100%" height="100%" fill="white" />
	<path d = "M 82.03 255.47 L 133.59 217.97 L 171.09 201.56 L 370.31 187.50 L 522.66 192.19 L 567.19 220.31 L 597.66 274.22 L 595.31 304.69 L 557.81 367.97 L 529.69 382.03 L 386.72 382.03 L 117.19 367.97 L 75.00 316.41 L 18.75 267.19 L 100.78 262.50 L 126.56 220.31" stroke="black" fill="transparent"/>
	<path d = "M 58.59 257.81 L 11.72 199.22 L 0.00 215.62 L 18.75 227.34 L 42.19 255.47" stroke="black" fill="transparent"/>
	<path d = "M 39.84 302.34 L 2.34 330.47 L 16.41 344.53 L 30.47 344.53 L 63.28 314.06" stroke="black" fill="transparent"/>
	<path d = "M 428.91 175.78 L 421.88 82.03 L 428.91 16.41 L 447.66 0.00 L 564.84 0.00 L 571.88 7.03 L 571.88 30.47 L 515.62 39.84 L 501.56 46.88 L 489.84 65.62 L 489.84 180.47" stroke="black" fill="transparent"/>
	<path d = "M 398.44 225.00 L 405.47 300.00 L 468.75 300.00 L 480.47 290.62 L 480.47 250.78 L 468.75 215.62 L 447.66 210.94 L 391.41 215.62" stroke="black" fill="transparent"/>
</svg>