<?xml version="1.0" encoding="UTF-8" standalone="no"?>
<!--Created with ndjsontosvg (https:https://github.com/thompson318/ndjsontosvg) 
	from the simplified Google quickdraw data set. key_id = 5165961990635520-->
<svg width="600" height="600"
	xmlns="http://www.w3.org/2000/svg">
	xmlns:ndjsontosvg="https://github.com/thompson318/ndjsontosvg"
	xmlns:quickdraw="https://quickdraw.withgoogle.com/data"
	xmlns:scikit-surgery="https://doi.org/10.1007/s11548-020-02180-5">

	<rect width="100%" height="100%" fill="white" />
	<path d = "M 82.03 166.41 L 342.19 126.56 L 539.06 121.88 L 576.56 131.25 L 590.62 142.97 L 597.66 178.12 L 564.84 239.06 L 492.19 260.16 L 382.03 278.91 L 222.66 288.28 L 44.53 283.59 L 35.16 269.53 L 35.16 225.00 L 89.06 166.41 L 72.66 173.44 L 18.75 225.00 L 11.72 208.59 L 11.72 150.00 L 0.00 276.56 L 0.00 225.00 L 14.06 203.91 L 16.41 232.03 L 14.06 199.22 L 7.03 264.84 L 7.03 210.94 L 23.44 138.28" stroke="black" fill="transparent"/>
	<path d = "M 452.34 114.84 L 433.59 70.31 L 349.22 67.97 L 274.22 91.41 L 260.16 105.47 L 255.47 131.25" stroke="black" fill="transparent"/>
	<path d = "M 328.12 60.94 L 332.81 4.69 L 309.38 2.34 L 281.25 35.16 L 281.25 89.06" stroke="black" fill="transparent"/>
	<path d = "M 421.88 159.38 L 424.22 142.97 L 435.94 135.94 L 454.69 135.94 L 466.41 150.00 L 461.72 180.47 L 435.94 187.50 L 403.12 178.12 L 417.19 147.66" stroke="black" fill="transparent"/>
	<path d = "M 292.97 161.72 L 304.69 150.00 L 323.44 145.31 L 337.50 171.09 L 330.47 187.50 L 304.69 189.84 L 295.31 175.78 L 300.00 157.03 L 292.97 159.38" stroke="black" fill="transparent"/>
	<path d = "M 187.50 175.78 L 217.97 161.72 L 236.72 161.72 L 243.75 199.22 L 227.34 215.62 L 194.53 213.28 L 201.56 173.44" stroke="black" fill="transparent"/>
</svg>