<?xml version="1.0" encoding="UTF-8" standalone="no"?>
<!--Created with ndjsontosvg (https:https://github.com/thompson318/ndjsontosvg) 
	from the simplified Google quickdraw data set. key_id = 4752490778066944-->
<svg width="600" height="600"
	xmlns="http://www.w3.org/2000/svg">
	xmlns:ndjsontosvg="https://github.com/thompson318/ndjsontosvg"
	xmlns:quickdraw="https://quickdraw.withgoogle.com/data"
	xmlns:scikit-surgery="https://doi.org/10.1007/s11548-020-02180-5">

	<rect width="100%" height="100%" fill="white" />
	<path d = "M 377.34 11.72 L 503.91 0.00 L 583.59 82.03 L 597.66 126.56 L 592.97 164.06 L 557.81 222.66 L 510.94 253.12 L 405.47 297.66 L 328.12 307.03 L 89.06 246.09 L 56.25 229.69 L 46.88 189.84 L 53.91 157.03 L 89.06 112.50 L 150.00 67.97 L 325.78 14.06 L 391.41 4.69" stroke="black" fill="transparent"/>
	<path d = "M 72.66 112.50 L 9.38 86.72 L 7.03 93.75 L 28.12 119.53 L 60.94 133.59" stroke="black" fill="transparent"/>
	<path d = "M 44.53 133.59 L 9.38 133.59 L 2.34 140.62 L 0.00 168.75 L 28.12 178.12 L 49.22 175.78 L 49.22 168.75" stroke="black" fill="transparent"/>
	<path d = "M 37.50 171.09 L 16.41 180.47 L 9.38 201.56 L 37.50 229.69 L 51.56 229.69 L 58.59 203.91 L 30.47 178.12" stroke="black" fill="transparent"/>
	<path d = "M 60.94 126.56 L 32.81 128.91 L 30.47 159.38 L 44.53 173.44 L 63.28 171.09 L 70.31 135.94 L 58.59 119.53 L 49.22 131.25 L 46.88 152.34 L 67.97 154.69 L 79.69 140.62 L 79.69 135.94 L 72.66 135.94 L 53.91 154.69 L 75.00 147.66 L 79.69 128.91 L 60.94 131.25 L 37.50 150.00 L 25.78 171.09 L 35.16 166.41 L 46.88 150.00 L 39.84 140.62 L 28.12 145.31 L 18.75 164.06 L 21.09 180.47 L 37.50 173.44 L 63.28 150.00 L 53.91 164.06" stroke="black" fill="transparent"/>
	<path d = "M 253.12 35.16 L 253.12 28.12" stroke="black" fill="transparent"/>
</svg>