<?xml version="1.0" encoding="UTF-8" standalone="no"?>
<!--Created with ndjsontosvg (https:https://github.com/thompson318/ndjsontosvg) 
	from the simplified Google quickdraw data set. key_id = 6352511583649792-->
<svg width="600" height="600"
	xmlns="http://www.w3.org/2000/svg">
	xmlns:ndjsontosvg="https://github.com/thompson318/ndjsontosvg"
	xmlns:quickdraw="https://quickdraw.withgoogle.com/data"
	xmlns:scikit-surgery="https://doi.org/10.1007/s11548-020-02180-5">

	<rect width="100%" height="100%" fill="white" />
	<path d = "M 0.00 35.16 L 4.69 49.22 L 16.41 51.56 L 100.78 37.50 L 199.22 51.56 L 297.66 7.03 L 349.22 0.00 L 375.00 49.22 L 405.47 49.22 L 466.41 23.44 L 499.22 18.75 L 508.59 25.78 L 517.97 56.25 L 529.69 70.31 L 597.66 63.28" stroke="black" fill="transparent"/>
	<path d = "M 323.44 246.09 L 316.41 236.72 L 288.28 227.34 L 234.38 220.31 L 168.75 220.31 L 131.25 236.72 L 58.59 297.66 L 37.50 349.22 L 39.84 393.75 L 60.94 417.19 L 89.06 433.59 L 152.34 440.62 L 283.59 384.38 L 346.88 351.56" stroke="black" fill="transparent"/>
	<path d = "M 330.47 227.34 L 342.19 236.72 L 363.28 239.06 L 419.53 201.56 L 478.12 189.84 L 478.12 208.59 L 412.50 264.84 L 403.12 285.94 L 407.81 300.00 L 466.41 337.50 L 487.50 360.94 L 489.84 386.72 L 464.06 405.47" stroke="black" fill="transparent"/>
</svg>