<?xml version="1.0" encoding="UTF-8" standalone="no"?>
<!--Created with ndjsontosvg (https:https://github.com/thompson318/ndjsontosvg) 
	from the simplified Google quickdraw data set. key_id = 5240156695035904-->
<svg width="600" height="600"
	xmlns="http://www.w3.org/2000/svg">
	xmlns:ndjsontosvg="https://github.com/thompson318/ndjsontosvg"
	xmlns:quickdraw="https://quickdraw.withgoogle.com/data"
	xmlns:scikit-surgery="https://doi.org/10.1007/s11548-020-02180-5">

	<rect width="100%" height="100%" fill="white" />
	<path d = "M 23.44 215.62 L 46.88 199.22 L 93.75 180.47 L 208.59 166.41 L 386.72 161.72 L 482.81 182.81 L 520.31 196.88 L 562.50 225.00 L 597.66 276.56 L 597.66 307.03 L 588.28 335.16 L 564.84 363.28 L 529.69 384.38 L 445.31 410.16 L 393.75 417.19 L 264.84 421.88 L 196.88 407.81 L 117.19 379.69 L 67.97 356.25 L 30.47 330.47 L 9.38 304.69 L 2.34 281.25 L 0.00 248.44 L 9.38 232.03 L 65.62 196.88" stroke="black" fill="transparent"/>
	<path d = "M 194.53 161.72 L 192.19 93.75 L 185.16 67.97 L 168.75 53.91 L 131.25 56.25 L 119.53 21.09 L 128.91 7.03 L 192.19 0.00 L 208.59 11.72 L 227.34 49.22 L 229.69 164.06" stroke="black" fill="transparent"/>
</svg>