<?xml version="1.0" encoding="UTF-8" standalone="no"?>
<!--Created with ndjsontosvg (https:https://github.com/thompson318/ndjsontosvg) 
	from the simplified Google quickdraw data set. key_id = 5092901530894336-->
<svg width="600" height="600"
	xmlns="http://www.w3.org/2000/svg">
	xmlns:ndjsontosvg="https://github.com/thompson318/ndjsontosvg"
	xmlns:quickdraw="https://quickdraw.withgoogle.com/data"
	xmlns:scikit-surgery="https://doi.org/10.1007/s11548-020-02180-5">

	<rect width="100%" height="100%" fill="white" />
	<path d = "M 51.56 96.09 L 84.38 110.16 L 234.38 131.25 L 379.69 142.97 L 445.31 128.91 L 583.59 133.59 L 597.66 142.97 L 578.91 360.94 L 548.44 557.81 L 532.03 562.50 L 475.78 548.44 L 431.25 560.16 L 405.47 550.78 L 339.84 548.44 L 311.72 534.38 L 225.00 532.03 L 140.62 510.94 L 39.84 503.91 L 11.72 482.81 L 0.00 466.41 L 0.00 363.28 L 14.06 332.81 L 14.06 283.59 L 32.81 220.31 L 42.19 131.25 L 60.94 82.03" stroke="black" fill="transparent"/>
	<path d = "M 180.47 114.84 L 180.47 96.09 L 196.88 67.97 L 232.03 25.78 L 271.88 0.00 L 300.00 9.38 L 382.03 9.38 L 410.16 18.75 L 440.62 60.94 L 440.62 100.78" stroke="black" fill="transparent"/>
	<path d = "M 225.00 119.53 L 264.84 82.03 L 339.84 67.97 L 377.34 124.22" stroke="black" fill="transparent"/>
</svg>