<?xml version="1.0" encoding="UTF-8" standalone="no"?>
<!--Created with ndjsontosvg (https:https://github.com/thompson318/ndjsontosvg) 
	from the simplified Google quickdraw data set. key_id = 5729787265941504-->
<svg width="600" height="600"
	xmlns="http://www.w3.org/2000/svg">
	xmlns:ndjsontosvg="https://github.com/thompson318/ndjsontosvg"
	xmlns:quickdraw="https://quickdraw.withgoogle.com/data"
	xmlns:scikit-surgery="https://doi.org/10.1007/s11548-020-02180-5">

	<rect width="100%" height="100%" fill="white" />
	<path d = "M 346.88 98.44 L 241.41 98.44 L 227.34 112.50 L 215.62 145.31 L 217.97 323.44 L 239.06 356.25 L 285.94 398.44 L 325.78 410.16 L 391.41 410.16 L 424.22 384.38 L 452.34 335.16 L 452.34 241.41 L 353.91 91.41 L 325.78 91.41 L 300.00 119.53" stroke="black" fill="transparent"/>
	<path d = "M 435.94 154.69 L 597.66 67.97" stroke="black" fill="transparent"/>
	<path d = "M 447.66 253.12 L 450.00 271.88 L 574.22 398.44" stroke="black" fill="transparent"/>
	<path d = "M 424.22 398.44 L 440.62 447.66 L 506.25 543.75 L 494.53 550.78 L 353.91 548.44" stroke="black" fill="transparent"/>
	<path d = "M 281.25 363.28 L 241.41 384.38 L 0.00 389.06" stroke="black" fill="transparent"/>
	<path d = "M 196.88 241.41 L 51.56 241.41 L 44.53 227.34 L 58.59 196.88 L 51.56 189.84" stroke="black" fill="transparent"/>
	<path d = "M 178.12 0.00 L 246.09 112.50" stroke="black" fill="transparent"/>
	<path d = "M 372.66 28.12 L 302.34 82.03 L 274.22 117.19" stroke="black" fill="transparent"/>
</svg>