<?xml version="1.0" encoding="UTF-8" standalone="no"?>
<!--Created with ndjsontosvg (https:https://github.com/thompson318/ndjsontosvg) 
	from the simplified Google quickdraw data set. key_id = 5833145653919744-->
<svg width="600" height="600"
	xmlns="http://www.w3.org/2000/svg">
	xmlns:ndjsontosvg="https://github.com/thompson318/ndjsontosvg"
	xmlns:quickdraw="https://quickdraw.withgoogle.com/data"
	xmlns:scikit-surgery="https://doi.org/10.1007/s11548-020-02180-5">

	<rect width="100%" height="100%" fill="white" />
	<path d = "M 297.66 178.12 L 260.16 168.75 L 210.94 166.41 L 185.16 178.12 L 135.94 210.94 L 103.12 262.50 L 93.75 290.62 L 91.41 367.97 L 105.47 393.75 L 142.97 435.94 L 234.38 489.84 L 302.34 494.53 L 358.59 478.12 L 382.03 464.06 L 407.81 414.84 L 417.19 351.56 L 412.50 300.00 L 391.41 250.78 L 351.56 199.22 L 292.97 142.97" stroke="black" fill="transparent"/>
	<path d = "M 217.97 152.34 L 217.97 37.50 L 222.66 0.00" stroke="black" fill="transparent"/>
	<path d = "M 365.62 192.19 L 407.81 121.88 L 433.59 98.44 L 487.50 75.00" stroke="black" fill="transparent"/>
	<path d = "M 457.03 311.72 L 569.53 323.44" stroke="black" fill="transparent"/>
	<path d = "M 421.88 508.59 L 475.78 597.66" stroke="black" fill="transparent"/>
	<path d = "M 274.22 452.34 L 241.41 471.09 L 215.62 496.88 L 164.06 578.91" stroke="black" fill="transparent"/>
	<path d = "M 138.28 398.44 L 110.16 391.41 L 82.03 400.78 L 9.38 464.06" stroke="black" fill="transparent"/>
	<path d = "M 91.41 255.47 L 35.16 250.78 L 0.00 264.84" stroke="black" fill="transparent"/>
</svg>