<?xml version="1.0" encoding="UTF-8" standalone="no"?>
<!--Created with ndjsontosvg (https:https://github.com/thompson318/ndjsontosvg) 
	from the simplified Google quickdraw data set. key_id = 5902814653972480-->
<svg width="600" height="600"
	xmlns="http://www.w3.org/2000/svg">
	xmlns:ndjsontosvg="https://github.com/thompson318/ndjsontosvg"
	xmlns:quickdraw="https://quickdraw.withgoogle.com/data"
	xmlns:scikit-surgery="https://doi.org/10.1007/s11548-020-02180-5">

	<rect width="100%" height="100%" fill="white" />
	<path d = "M 307.03 217.97 L 260.16 222.66 L 236.72 241.41 L 215.62 309.38 L 215.62 330.47 L 225.00 344.53 L 246.09 356.25 L 300.00 353.91 L 346.88 328.12 L 365.62 309.38 L 377.34 269.53 L 360.94 229.69 L 330.47 210.94 L 302.34 210.94" stroke="black" fill="transparent"/>
	<path d = "M 386.72 161.72 L 503.91 91.41" stroke="black" fill="transparent"/>
	<path d = "M 445.31 236.72 L 597.66 229.69" stroke="black" fill="transparent"/>
	<path d = "M 464.06 330.47 L 506.25 342.19 L 557.81 375.00" stroke="black" fill="transparent"/>
	<path d = "M 276.56 135.94 L 264.84 103.12 L 271.88 0.00" stroke="black" fill="transparent"/>
	<path d = "M 203.91 222.66 L 119.53 140.62" stroke="black" fill="transparent"/>
	<path d = "M 171.09 353.91 L 49.22 346.88 L 0.00 360.94" stroke="black" fill="transparent"/>
	<path d = "M 189.84 407.81 L 117.19 457.03 L 63.28 503.91" stroke="black" fill="transparent"/>
	<path d = "M 271.88 393.75 L 264.84 496.88" stroke="black" fill="transparent"/>
	<path d = "M 363.28 393.75 L 433.59 450.00 L 480.47 506.25" stroke="black" fill="transparent"/>
</svg>