<?xml version="1.0" encoding="UTF-8" standalone="no"?>
<!--Created with ndjsontosvg (https:https://github.com/thompson318/ndjsontosvg) 
	from the simplified Google quickdraw data set. key_id = 5367522054373376-->
<svg width="600" height="600"
	xmlns="http://www.w3.org/2000/svg">
	xmlns:ndjsontosvg="https://github.com/thompson318/ndjsontosvg"
	xmlns:quickdraw="https://quickdraw.withgoogle.com/data"
	xmlns:scikit-surgery="https://doi.org/10.1007/s11548-020-02180-5">

	<rect width="100%" height="100%" fill="white" />
	<path d = "M 421.88 44.53 L 375.00 42.19 L 300.00 84.38 L 276.56 107.81 L 255.47 152.34 L 253.12 210.94 L 269.53 250.78 L 309.38 278.91 L 356.25 274.22 L 391.41 253.12 L 421.88 220.31 L 457.03 152.34 L 466.41 112.50 L 466.41 86.72 L 433.59 46.88 L 396.09 44.53 L 382.03 58.59" stroke="black" fill="transparent"/>
	<path d = "M 482.81 93.75 L 527.34 56.25 L 597.66 21.09" stroke="black" fill="transparent"/>
	<path d = "M 510.94 166.41 L 532.03 187.50 L 567.19 246.09" stroke="black" fill="transparent"/>
	<path d = "M 360.94 330.47 L 323.44 365.62 L 257.81 447.66" stroke="black" fill="transparent"/>
	<path d = "M 222.66 203.91 L 114.84 187.50 L 79.69 192.19" stroke="black" fill="transparent"/>
	<path d = "M 271.88 44.53 L 222.66 0.00" stroke="black" fill="transparent"/>
	<path d = "M 7.03 119.53 L 0.00 114.84 L 2.34 107.81 L 23.44 79.69 L 65.62 63.28 L 105.47 65.62" stroke="black" fill="transparent"/>
</svg>