<?xml version="1.0" encoding="UTF-8" standalone="no"?>
<!--Created with ndjsontosvg (https:https://github.com/thompson318/ndjsontosvg) 
	from the simplified Google quickdraw data set. key_id = 6038402774335488-->
<svg width="600" height="600"
	xmlns="http://www.w3.org/2000/svg">
	xmlns:ndjsontosvg="https://github.com/thompson318/ndjsontosvg"
	xmlns:quickdraw="https://quickdraw.withgoogle.com/data"
	xmlns:scikit-surgery="https://doi.org/10.1007/s11548-020-02180-5">

	<rect width="100%" height="100%" fill="white" />
	<path d = "M 290.62 126.56 L 241.41 138.28 L 196.88 168.75 L 173.44 210.94 L 157.03 257.81 L 150.00 304.69 L 154.69 360.94 L 189.84 391.41 L 213.28 398.44 L 253.12 407.81 L 292.97 405.47 L 337.50 372.66 L 367.97 330.47 L 375.00 307.03 L 379.69 236.72 L 367.97 203.91 L 328.12 150.00 L 269.53 119.53" stroke="black" fill="transparent"/>
	<path d = "M 405.47 140.62 L 513.28 107.81 L 513.28 114.84" stroke="black" fill="transparent"/>
	<path d = "M 475.78 309.38 L 478.12 314.06 L 557.81 323.44 L 588.28 346.88" stroke="black" fill="transparent"/>
	<path d = "M 417.19 485.16 L 414.84 581.25 L 384.38 597.66" stroke="black" fill="transparent"/>
	<path d = "M 225.00 447.66 L 166.41 480.47 L 98.44 482.81" stroke="black" fill="transparent"/>
	<path d = "M 119.53 360.94 L 63.28 302.34 L 7.03 213.28 L 0.00 189.84" stroke="black" fill="transparent"/>
	<path d = "M 67.97 159.38 L 96.09 117.19 L 114.84 53.91 L 140.62 0.00" stroke="black" fill="transparent"/>
</svg>