<?xml version="1.0" encoding="UTF-8" standalone="no"?>
<!--Created with ndjsontosvg (https:https://github.com/thompson318/ndjsontosvg) 
	from the simplified Google quickdraw data set. key_id = 5716293351112704-->
<svg width="600" height="600"
	xmlns="http://www.w3.org/2000/svg">
	xmlns:ndjsontosvg="https://github.com/thompson318/ndjsontosvg"
	xmlns:quickdraw="https://quickdraw.withgoogle.com/data"
	xmlns:scikit-surgery="https://doi.org/10.1007/s11548-020-02180-5">

	<rect width="100%" height="100%" fill="white" />
	<path d = "M 475.78 79.69 L 475.78 213.28 L 452.34 246.09 L 403.12 274.22 L 344.53 274.22 L 236.72 300.00 L 117.19 309.38 L 75.00 342.19 L 60.94 372.66 L 60.94 400.78 L 96.09 435.94 L 150.00 459.38 L 225.00 475.78 L 344.53 471.09 L 431.25 428.91 L 473.44 398.44 L 513.28 346.88 L 536.72 292.97 L 550.78 175.78 L 550.78 135.94 L 539.06 110.16 L 550.78 96.09 L 581.25 91.41 L 597.66 75.00 L 532.03 63.28 L 501.56 0.00 L 482.81 0.00 L 471.09 25.78 L 471.09 60.94 L 494.53 60.94" stroke="black" fill="transparent"/>
	<path d = "M 508.59 28.12 L 499.22 30.47 L 496.88 44.53 L 506.25 44.53 L 503.91 39.84" stroke="black" fill="transparent"/>
	<path d = "M 215.62 379.69 L 171.09 517.97 L 159.38 517.97 L 142.97 532.03" stroke="black" fill="transparent"/>
	<path d = "M 398.44 370.31 L 405.47 428.91 L 419.53 480.47" stroke="black" fill="transparent"/>
	<path d = "M 126.56 304.69 L 4.69 304.69 L 4.69 321.09 L 39.84 346.88 L 86.72 353.91" stroke="black" fill="transparent"/>
	<path d = "M 412.50 278.91 L 412.50 314.06 L 396.09 349.22 L 363.28 375.00 L 323.44 386.72 L 194.53 410.16 L 103.12 410.16 L 77.34 396.09 L 65.62 365.62" stroke="black" fill="transparent"/>
</svg>