<?xml version="1.0" encoding="UTF-8" standalone="no"?>
<!--Created with ndjsontosvg (https:https://github.com/thompson318/ndjsontosvg) 
	from the simplified Google quickdraw data set. key_id = 6032901294522368-->
<svg width="600" height="600"
	xmlns="http://www.w3.org/2000/svg">
	xmlns:ndjsontosvg="https://github.com/thompson318/ndjsontosvg"
	xmlns:quickdraw="https://quickdraw.withgoogle.com/data"
	xmlns:scikit-surgery="https://doi.org/10.1007/s11548-020-02180-5">

	<rect width="100%" height="100%" fill="white" />
	<path d = "M 424.22 321.09 L 300.00 337.50 L 255.47 332.81 L 222.66 323.44 L 213.28 309.38 L 208.59 274.22 L 199.22 140.62 L 201.56 23.44 L 182.81 0.00 L 145.31 7.03 L 93.75 32.81 L 0.00 159.38 L 16.41 161.72 L 42.19 150.00 L 93.75 110.16 L 107.81 124.22 L 112.50 150.00 L 96.09 330.47 L 105.47 367.97 L 154.69 433.59 L 178.12 454.69 L 222.66 473.44 L 330.47 489.84 L 435.94 487.50 L 539.06 452.34 L 576.56 433.59 L 585.94 421.88 L 597.66 384.38 L 588.28 349.22 L 578.91 337.50 L 548.44 325.78 L 435.94 316.41" stroke="black" fill="transparent"/>
	<path d = "M 253.12 389.06 L 342.19 421.88" stroke="black" fill="transparent"/>
</svg>