<?xml version="1.0" encoding="UTF-8" standalone="no"?>
<!--Created with ndjsontosvg (https:https://github.com/thompson318/ndjsontosvg) 
	from the simplified Google quickdraw data set. key_id = 4718414419460096-->
<svg width="600" height="600"
	xmlns="http://www.w3.org/2000/svg">
	xmlns:ndjsontosvg="https://github.com/thompson318/ndjsontosvg"
	xmlns:quickdraw="https://quickdraw.withgoogle.com/data"
	xmlns:scikit-surgery="https://doi.org/10.1007/s11548-020-02180-5">

	<rect width="100%" height="100%" fill="white" />
	<path d = "M 0.00 346.88 L 124.22 295.31 L 196.88 290.62 L 257.81 307.03 L 316.41 349.22 L 321.09 274.22 L 297.66 124.22 L 300.00 67.97 L 304.69 46.88 L 325.78 25.78 L 363.28 7.03 L 398.44 0.00 L 471.09 0.00 L 517.97 18.75 L 571.88 56.25 L 590.62 70.31 L 597.66 86.72 L 525.00 135.94 L 468.75 157.03 L 461.72 173.44 L 480.47 253.12 L 482.81 314.06 L 461.72 428.91 L 428.91 457.03 L 335.16 471.09 L 330.47 492.19 L 290.62 527.34 L 274.22 534.38 L 225.00 520.31 L 103.12 515.62 L 44.53 506.25 L 18.75 447.66 L 18.75 339.84 L 30.47 300.00" stroke="black" fill="transparent"/>
</svg>