<?xml version="1.0" encoding="UTF-8" standalone="no"?>
<!--Created with ndjsontosvg (https:https://github.com/thompson318/ndjsontosvg) 
	from the simplified Google quickdraw data set. key_id = 6457106301452288-->
<svg width="600" height="600"
	xmlns="http://www.w3.org/2000/svg">
	xmlns:ndjsontosvg="https://github.com/thompson318/ndjsontosvg"
	xmlns:quickdraw="https://quickdraw.withgoogle.com/data"
	xmlns:scikit-surgery="https://doi.org/10.1007/s11548-020-02180-5">

	<rect width="100%" height="100%" fill="white" />
	<path d = "M 82.03 18.75 L 117.19 2.34 L 161.72 2.34 L 194.53 18.75 L 227.34 53.91 L 225.00 110.16 L 150.00 232.03 L 142.97 271.88 L 147.66 295.31 L 185.16 304.69 L 248.44 302.34 L 382.03 271.88 L 457.03 274.22 L 515.62 295.31 L 529.69 307.03 L 487.50 328.12 L 489.84 337.50 L 522.66 365.62 L 492.19 372.66 L 581.25 389.06 L 597.66 405.47 L 590.62 435.94 L 564.84 464.06 L 503.91 494.53 L 300.00 534.38 L 150.00 534.38 L 103.12 527.34 L 32.81 482.81 L 2.34 445.31 L 2.34 330.47 L 25.78 278.91 L 70.31 234.38 L 138.28 185.16 L 185.16 114.84 L 189.84 77.34" stroke="black" fill="transparent"/>
</svg>