<?xml version="1.0" encoding="UTF-8" standalone="no"?>
<!--Created with ndjsontosvg (https:https://github.com/thompson318/ndjsontosvg) 
	from the simplified Google quickdraw data set. key_id = 6371802131464192-->
<svg width="600" height="600"
	xmlns="http://www.w3.org/2000/svg">
	xmlns:ndjsontosvg="https://github.com/thompson318/ndjsontosvg"
	xmlns:quickdraw="https://quickdraw.withgoogle.com/data"
	xmlns:scikit-surgery="https://doi.org/10.1007/s11548-020-02180-5">

	<rect width="100%" height="100%" fill="white" />
	<path d = "M 236.72 0.00 L 255.47 67.97 L 269.53 234.38 L 260.16 220.31 L 220.31 35.16 L 199.22 2.34 L 182.81 0.00 L 152.34 28.12 L 157.03 91.41 L 142.97 105.47 L 42.19 128.91 L 11.72 142.97 L 0.00 159.38 L 9.38 192.19 L 25.78 203.91 L 42.19 208.59 L 72.66 189.84 L 105.47 187.50 L 119.53 189.84 L 152.34 217.97 L 180.47 227.34 L 194.53 246.09 L 203.91 302.34 L 248.44 405.47 L 246.09 454.69 L 290.62 468.75 L 375.00 445.31 L 473.44 452.34 L 553.12 445.31 L 588.28 435.94 L 597.66 405.47 L 592.97 370.31 L 534.38 243.75 L 517.97 232.03 L 461.72 229.69 L 335.16 267.19 L 300.00 255.47 L 285.94 234.38" stroke="black" fill="transparent"/>
</svg>