<?xml version="1.0" encoding="UTF-8" standalone="no"?>
<!--Created with ndjsontosvg (https:https://github.com/thompson318/ndjsontosvg) 
	from the simplified Google quickdraw data set. key_id = 5524630011904000-->
<svg width="600" height="600"
	xmlns="http://www.w3.org/2000/svg">
	xmlns:ndjsontosvg="https://github.com/thompson318/ndjsontosvg"
	xmlns:quickdraw="https://quickdraw.withgoogle.com/data"
	xmlns:scikit-surgery="https://doi.org/10.1007/s11548-020-02180-5">

	<rect width="100%" height="100%" fill="white" />
	<path d = "M 70.31 309.38 L 213.28 257.81 L 311.72 255.47 L 337.50 257.81 L 391.41 295.31 L 433.59 302.34 L 454.69 253.12 L 454.69 178.12 L 428.91 100.78 L 428.91 42.19 L 440.62 21.09 L 494.53 0.00 L 520.31 49.22 L 597.66 53.91 L 562.50 70.31 L 529.69 75.00 L 527.34 82.03 L 536.72 236.72 L 508.59 330.47 L 503.91 412.50 L 473.44 438.28 L 398.44 468.75 L 321.09 485.16 L 255.47 487.50 L 147.66 445.31 L 49.22 379.69 L 16.41 339.84 L 2.34 281.25 L 75.00 300.00 L 100.78 300.00" stroke="black" fill="transparent"/>
</svg>