<?xml version="1.0" encoding="UTF-8" standalone="no"?>
<!--Created with ndjsontosvg (https:https://github.com/thompson318/ndjsontosvg) 
	from the simplified Google quickdraw data set. key_id = 6131964241248256-->
<svg width="600" height="600"
	xmlns="http://www.w3.org/2000/svg">
	xmlns:ndjsontosvg="https://github.com/thompson318/ndjsontosvg"
	xmlns:quickdraw="https://quickdraw.withgoogle.com/data"
	xmlns:scikit-surgery="https://doi.org/10.1007/s11548-020-02180-5">

	<rect width="100%" height="100%" fill="white" />
	<path d = "M 213.28 9.38 L 128.91 152.34 L 93.75 178.12 L 30.47 189.84 L 2.34 208.59 L 2.34 255.47 L 16.41 295.31 L 53.91 292.97 L 98.44 260.16 L 142.97 203.91 L 182.81 112.50 L 192.19 100.78 L 215.62 91.41 L 225.00 232.03 L 180.47 335.16 L 180.47 360.94 L 400.78 379.69 L 405.47 337.50 L 398.44 138.28" stroke="black" fill="transparent"/>
	<path d = "M 337.50 0.00 L 370.31 39.84 L 421.88 82.03 L 555.47 175.78 L 597.66 194.53 L 588.28 257.81 L 562.50 271.88 L 529.69 271.88 L 496.88 248.44 L 445.31 161.72 L 407.81 140.62 L 398.44 126.56" stroke="black" fill="transparent"/>
</svg>