<?xml version="1.0" encoding="UTF-8" standalone="no"?>
<!--Created with ndjsontosvg (https:https://github.com/thompson318/ndjsontosvg) 
	from the simplified Google quickdraw data set. key_id = 5423565270679552-->
<svg width="600" height="600"
	xmlns="http://www.w3.org/2000/svg">
	xmlns:ndjsontosvg="https://github.com/thompson318/ndjsontosvg"
	xmlns:quickdraw="https://quickdraw.withgoogle.com/data"
	xmlns:scikit-surgery="https://doi.org/10.1007/s11548-020-02180-5">

	<rect width="100%" height="100%" fill="white" />
	<path d = "M 239.06 16.41 L 260.16 46.88 L 285.94 63.28 L 332.81 70.31 L 358.59 60.94 L 384.38 23.44 L 389.06 0.00 L 328.12 39.84 L 300.00 37.50 L 260.16 14.06 L 236.72 9.38 L 152.34 56.25 L 4.69 152.34 L 0.00 161.72 L 42.19 227.34 L 77.34 227.34 L 117.19 215.62 L 185.16 173.44 L 142.97 285.94 L 140.62 365.62 L 152.34 386.72 L 253.12 405.47 L 370.31 407.81 L 412.50 382.03 L 431.25 356.25 L 419.53 269.53 L 424.22 182.81 L 431.25 206.25 L 457.03 246.09 L 475.78 264.84 L 494.53 274.22 L 539.06 271.88 L 588.28 241.41 L 597.66 222.66 L 595.31 194.53 L 459.38 32.81 L 428.91 9.38 L 396.09 2.34" stroke="black" fill="transparent"/>
</svg>