<?xml version="1.0" encoding="UTF-8" standalone="no"?>
<!--Created with ndjsontosvg (https:https://github.com/thompson318/ndjsontosvg) 
	from the simplified Google quickdraw data set. key_id = 6209704562786304-->
<svg width="600" height="600"
	xmlns="http://www.w3.org/2000/svg">
	xmlns:ndjsontosvg="https://github.com/thompson318/ndjsontosvg"
	xmlns:quickdraw="https://quickdraw.withgoogle.com/data"
	xmlns:scikit-surgery="https://doi.org/10.1007/s11548-020-02180-5">

	<rect width="100%" height="100%" fill="white" />
	<path d = "M 0.00 168.75 L 44.53 210.94" stroke="black" fill="transparent"/>
	<path d = "M 4.69 168.75 L 79.69 126.56 L 152.34 56.25 L 213.28 25.78" stroke="black" fill="transparent"/>
	<path d = "M 44.53 208.59 L 229.69 89.06 L 236.72 103.12 L 232.03 267.19 L 246.09 321.09 L 267.19 337.50 L 304.69 346.88 L 379.69 351.56 L 405.47 344.53 L 424.22 297.66 L 414.84 128.91 L 506.25 189.84 L 571.88 210.94 L 585.94 210.94 L 597.66 152.34 L 510.94 126.56 L 445.31 91.41 L 428.91 65.62 L 412.50 11.72 L 400.78 0.00 L 321.09 4.69" stroke="black" fill="transparent"/>
	<path d = "M 206.25 23.44 L 210.94 25.78" stroke="black" fill="transparent"/>
</svg>