<?xml version="1.0" encoding="UTF-8" standalone="no"?>
<!--Created with ndjsontosvg (https:https://github.com/thompson318/ndjsontosvg) 
	from the simplified Google quickdraw data set. key_id = 5019794623430656-->
<svg width="600" height="600"
	xmlns="http://www.w3.org/2000/svg">
	xmlns:ndjsontosvg="https://github.com/thompson318/ndjsontosvg"
	xmlns:quickdraw="https://quickdraw.withgoogle.com/data"
	xmlns:scikit-surgery="https://doi.org/10.1007/s11548-020-02180-5">

	<rect width="100%" height="100%" fill="white" />
	<path d = "M 217.97 0.00 L 241.41 65.62 L 260.16 82.03 L 278.91 77.34 L 288.28 65.62 L 302.34 9.38 L 309.38 4.69" stroke="black" fill="transparent"/>
	<path d = "M 321.09 2.34 L 475.78 159.38 L 585.94 304.69 L 569.53 337.50 L 529.69 360.94 L 480.47 351.56 L 438.28 332.81 L 405.47 307.03 L 351.56 229.69 L 337.50 553.12" stroke="black" fill="transparent"/>
	<path d = "M 206.25 4.69 L 138.28 91.41 L 63.28 206.25 L 0.00 271.88 L 9.38 283.59 L 35.16 290.62 L 126.56 285.94 L 138.28 292.97 L 150.00 384.38 L 152.34 583.59 L 161.72 592.97 L 314.06 597.66 L 332.81 583.59 L 344.53 529.69" stroke="black" fill="transparent"/>
</svg>