<?xml version="1.0" encoding="UTF-8" standalone="no"?>
<!--Created with ndjsontosvg (https:https://github.com/thompson318/ndjsontosvg) 
	from the simplified Google quickdraw data set. key_id = 4618635718950912-->
<svg width="600" height="600"
	xmlns="http://www.w3.org/2000/svg">
	xmlns:ndjsontosvg="https://github.com/thompson318/ndjsontosvg"
	xmlns:quickdraw="https://quickdraw.withgoogle.com/data"
	xmlns:scikit-surgery="https://doi.org/10.1007/s11548-020-02180-5">

	<rect width="100%" height="100%" fill="white" />
	<path d = "M 133.59 592.97 L 119.53 503.91 L 117.19 454.69 L 124.22 447.66 L 150.00 466.41 L 171.09 578.91 L 171.09 595.31 L 164.06 597.66 L 131.25 592.97" stroke="black" fill="transparent"/>
	<path d = "M 44.53 433.59 L 112.50 445.31 L 274.22 450.00 L 262.50 391.41 L 253.12 379.69 L 7.03 370.31 L 18.75 426.56 L 42.19 438.28 L 70.31 438.28" stroke="black" fill="transparent"/>
	<path d = "M 89.06 360.94 L 70.31 332.81 L 39.84 236.72 L 14.06 150.00 L 0.00 58.59 L 7.03 46.88 L 96.09 0.00 L 126.56 32.81 L 189.84 65.62 L 173.44 121.88 L 171.09 173.44 L 171.09 255.47 L 185.16 403.12" stroke="black" fill="transparent"/>
	<path d = "M 39.84 72.66 L 65.62 93.75 L 107.81 110.16 L 131.25 110.16 L 147.66 103.12" stroke="black" fill="transparent"/>
</svg>