<?xml version="1.0" encoding="UTF-8" standalone="no"?>
<!--Created with ndjsontosvg (https:https://github.com/thompson318/ndjsontosvg) 
	from the simplified Google quickdraw data set. key_id = 5014198700474368-->
<svg width="600" height="600"
	xmlns="http://www.w3.org/2000/svg">
	xmlns:ndjsontosvg="https://github.com/thompson318/ndjsontosvg"
	xmlns:quickdraw="https://quickdraw.withgoogle.com/data"
	xmlns:scikit-surgery="https://doi.org/10.1007/s11548-020-02180-5">

	<rect width="100%" height="100%" fill="white" />
	<path d = "M 154.69 0.00 L 86.72 67.97 L 91.41 382.03 L 168.75 384.38 L 264.84 358.59 L 271.88 346.88 L 267.19 232.03 L 241.41 121.88 L 215.62 51.56 L 164.06 7.03" stroke="black" fill="transparent"/>
	<path d = "M 110.16 393.75 L 4.69 391.41 L 0.00 417.19 L 7.03 438.28 L 30.47 475.78 L 264.84 485.16 L 332.81 461.72 L 349.22 435.94 L 351.56 393.75 L 330.47 367.97 L 285.94 360.94 L 255.47 367.97" stroke="black" fill="transparent"/>
	<path d = "M 121.88 471.09 L 126.56 592.97 L 135.94 597.66 L 194.53 581.25 L 232.03 581.25 L 232.03 492.19" stroke="black" fill="transparent"/>
</svg>