<?xml version="1.0" encoding="UTF-8" standalone="no"?>
<!--Created with ndjsontosvg (https:https://github.com/thompson318/ndjsontosvg) 
	from the simplified Google quickdraw data set. key_id = 5944173591003136-->
<svg width="600" height="600"
	xmlns="http://www.w3.org/2000/svg">
	xmlns:ndjsontosvg="https://github.com/thompson318/ndjsontosvg"
	xmlns:quickdraw="https://quickdraw.withgoogle.com/data"
	xmlns:scikit-surgery="https://doi.org/10.1007/s11548-020-02180-5">

	<rect width="100%" height="100%" fill="white" />
	<path d = "M 0.00 164.06 L 171.09 164.06" stroke="black" fill="transparent"/>
	<path d = "M 157.03 119.53 L 168.75 178.12 L 189.84 199.22 L 192.19 150.00 L 175.78 117.19 L 168.75 114.84" stroke="black" fill="transparent"/>
	<path d = "M 173.44 107.81 L 442.97 107.81 L 489.84 112.50 L 517.97 124.22" stroke="black" fill="transparent"/>
	<path d = "M 203.91 185.16 L 419.53 175.78 L 517.97 159.38" stroke="black" fill="transparent"/>
	<path d = "M 435.94 0.00 L 475.78 243.75 L 475.78 103.12" stroke="black" fill="transparent"/>
	<path d = "M 461.72 89.06 L 567.19 98.44 L 555.47 164.06 L 576.56 194.53 L 588.28 192.19 L 595.31 182.81 L 595.31 124.22 L 546.09 117.19" stroke="black" fill="transparent"/>
	<path d = "M 457.03 164.06 L 546.09 168.75" stroke="black" fill="transparent"/>
</svg>