<?xml version="1.0" encoding="UTF-8" standalone="no"?>
<!--Created with ndjsontosvg (https:https://github.com/thompson318/ndjsontosvg) 
	from the simplified Google quickdraw data set. key_id = 6568405547089920-->
<svg width="600" height="600"
	xmlns="http://www.w3.org/2000/svg">
	xmlns:ndjsontosvg="https://github.com/thompson318/ndjsontosvg"
	xmlns:quickdraw="https://quickdraw.withgoogle.com/data"
	xmlns:scikit-surgery="https://doi.org/10.1007/s11548-020-02180-5">

	<rect width="100%" height="100%" fill="white" />
	<path d = "M 185.16 28.12 L 234.38 79.69 L 271.88 103.12 L 304.69 110.16 L 346.88 107.81 L 389.06 84.38 L 410.16 46.88 L 421.88 0.00 L 468.75 2.34 L 487.50 11.72 L 571.88 79.69 L 597.66 112.50 L 585.94 114.84 L 534.38 166.41 L 532.03 157.03 L 499.22 126.56 L 466.41 107.81 L 450.00 105.47 L 447.66 229.69 L 459.38 243.75 L 459.38 346.88 L 442.97 353.91 L 372.66 344.53 L 225.00 344.53 L 217.97 307.03 L 227.34 274.22 L 232.03 135.94 L 208.59 124.22 L 201.56 114.84 L 194.53 112.50 L 154.69 166.41 L 100.78 220.31 L 60.94 248.44 L 39.84 196.88 L 0.00 150.00 L 9.38 147.66" stroke="black" fill="transparent"/>
</svg>