<?xml version="1.0" encoding="UTF-8" standalone="no"?>
<!--Created with ndjsontosvg (https:https://github.com/thompson318/ndjsontosvg) 
	from the simplified Google quickdraw data set. key_id = 6718365873733632-->
<svg width="600" height="600"
	xmlns="http://www.w3.org/2000/svg">
	xmlns:ndjsontosvg="https://github.com/thompson318/ndjsontosvg"
	xmlns:quickdraw="https://quickdraw.withgoogle.com/data"
	xmlns:scikit-surgery="https://doi.org/10.1007/s11548-020-02180-5">

	<rect width="100%" height="100%" fill="white" />
	<path d = "M 112.50 60.94 L 110.16 86.72 L 46.88 199.22 L 0.00 304.69 L 140.62 337.50 L 159.38 185.16 L 171.09 236.72 L 213.28 581.25" stroke="black" fill="transparent"/>
	<path d = "M 384.38 164.06 L 396.09 241.41 L 398.44 564.84" stroke="black" fill="transparent"/>
	<path d = "M 384.38 133.59 L 403.12 140.62 L 435.94 255.47 L 457.03 283.59 L 583.59 234.38 L 597.66 217.97 L 536.72 128.91 L 410.16 2.34 L 386.72 4.69 L 356.25 49.22 L 335.16 70.31 L 300.00 89.06 L 267.19 93.75 L 203.91 77.34 L 185.16 56.25 L 166.41 16.41 L 154.69 11.72 L 110.16 53.91 L 89.06 100.78" stroke="black" fill="transparent"/>
</svg>