<?xml version="1.0" encoding="UTF-8" standalone="no"?>
<!--Created with ndjsontosvg (https:https://github.com/thompson318/ndjsontosvg) 
	from the simplified Google quickdraw data set. key_id = 4967884021301248-->
<svg width="600" height="600"
	xmlns="http://www.w3.org/2000/svg">
	xmlns:ndjsontosvg="https://github.com/thompson318/ndjsontosvg"
	xmlns:quickdraw="https://quickdraw.withgoogle.com/data"
	xmlns:scikit-surgery="https://doi.org/10.1007/s11548-020-02180-5">

	<rect width="100%" height="100%" fill="white" />
	<path d = "M 110.16 18.75 L 84.38 60.94 L 0.00 152.34 L 32.81 175.78 L 112.50 292.97" stroke="black" fill="transparent"/>
	<path d = "M 135.94 16.41 L 178.12 42.19 L 236.72 60.94 L 349.22 67.97 L 410.16 42.19 L 461.72 9.38" stroke="black" fill="transparent"/>
	<path d = "M 480.47 18.75 L 546.09 82.03 L 597.66 164.06 L 534.38 236.72 L 510.94 290.62 L 499.22 292.97 L 480.47 283.59 L 421.88 243.75" stroke="black" fill="transparent"/>
	<path d = "M 140.62 297.66 L 173.44 208.59 L 192.19 260.16 L 196.88 426.56 L 187.50 534.38 L 330.47 527.34 L 478.12 532.03 L 466.41 457.03 L 421.88 302.34 L 417.19 232.03" stroke="black" fill="transparent"/>
	<path d = "M 154.69 23.44 L 356.25 0.00 L 426.56 0.00 L 466.41 11.72" stroke="black" fill="transparent"/>
</svg>