<?xml version="1.0" encoding="UTF-8" standalone="no"?>
<!--Created with ndjsontosvg (https:https://github.com/thompson318/ndjsontosvg) 
	from the simplified Google quickdraw data set. key_id = 4572485053841408-->
<svg width="600" height="600"
	xmlns="http://www.w3.org/2000/svg">
	xmlns:ndjsontosvg="https://github.com/thompson318/ndjsontosvg"
	xmlns:quickdraw="https://quickdraw.withgoogle.com/data"
	xmlns:scikit-surgery="https://doi.org/10.1007/s11548-020-02180-5">

	<rect width="100%" height="100%" fill="white" />
	<path d = "M 14.06 72.66 L 25.78 58.59 L 63.28 42.19 L 185.16 2.34 L 382.03 0.00 L 426.56 11.72 L 482.81 46.88 L 536.72 103.12 L 555.47 135.94 L 557.81 164.06 L 494.53 203.91 L 389.06 229.69 L 302.34 232.03 L 267.19 225.00 L 82.03 138.28 L 44.53 100.78 L 0.00 77.34 L 0.00 93.75 L 110.16 358.59 L 114.84 344.53" stroke="black" fill="transparent"/>
	<path d = "M 194.53 203.91 L 196.88 243.75 L 222.66 323.44 L 241.41 356.25 L 257.81 358.59" stroke="black" fill="transparent"/>
	<path d = "M 379.69 236.72 L 370.31 278.91 L 393.75 382.03 L 414.84 393.75" stroke="black" fill="transparent"/>
	<path d = "M 499.22 208.59 L 499.22 232.03 L 513.28 260.16 L 567.19 353.91 L 597.66 389.06" stroke="black" fill="transparent"/>
</svg>