<?xml version="1.0" encoding="UTF-8" standalone="no"?>
<!--Created with ndjsontosvg (https:https://github.com/thompson318/ndjsontosvg) 
	from the simplified Google quickdraw data set. key_id = 4881179238989824-->
<svg width="600" height="600"
	xmlns="http://www.w3.org/2000/svg">
	xmlns:ndjsontosvg="https://github.com/thompson318/ndjsontosvg"
	xmlns:quickdraw="https://quickdraw.withgoogle.com/data"
	xmlns:scikit-surgery="https://doi.org/10.1007/s11548-020-02180-5">

	<rect width="100%" height="100%" fill="white" />
	<path d = "M 435.94 192.19 L 288.28 194.53 L 227.34 187.50 L 217.97 173.44 L 227.34 117.19 L 236.72 98.44 L 267.19 77.34 L 344.53 82.03 L 410.16 119.53 L 426.56 142.97 L 428.91 161.72 L 412.50 199.22" stroke="black" fill="transparent"/>
	<path d = "M 269.53 67.97 L 267.19 37.50 L 274.22 18.75 L 295.31 0.00 L 309.38 2.34 L 332.81 32.81 L 337.50 82.03" stroke="black" fill="transparent"/>
	<path d = "M 424.22 208.59 L 450.00 281.25 L 445.31 351.56 L 426.56 372.66 L 410.16 379.69 L 335.16 386.72 L 276.56 367.97 L 236.72 316.41 L 232.03 269.53 L 243.75 182.81" stroke="black" fill="transparent"/>
	<path d = "M 243.75 196.88 L 203.91 182.81 L 161.72 154.69 L 103.12 63.28 L 58.59 44.53 L 21.09 39.84 L 0.00 44.53 L 49.22 112.50 L 138.28 182.81 L 187.50 199.22" stroke="black" fill="transparent"/>
	<path d = "M 478.12 250.78 L 475.78 239.06 L 503.91 234.38 L 548.44 246.09 L 574.22 262.50 L 597.66 302.34 L 592.97 316.41 L 560.16 325.78" stroke="black" fill="transparent"/>
</svg>