<?xml version="1.0" encoding="UTF-8" standalone="no"?>
<!--Created with ndjsontosvg (https:https://github.com/thompson318/ndjsontosvg) 
	from the simplified Google quickdraw data set. key_id = 5699228837871616-->
<svg width="600" height="600"
	xmlns="http://www.w3.org/2000/svg">
	xmlns:ndjsontosvg="https://github.com/thompson318/ndjsontosvg"
	xmlns:quickdraw="https://quickdraw.withgoogle.com/data"
	xmlns:scikit-surgery="https://doi.org/10.1007/s11548-020-02180-5">

	<rect width="100%" height="100%" fill="white" />
	<path d = "M 464.06 140.62 L 393.75 147.66 L 288.28 145.31 L 250.78 142.97 L 246.09 124.22 L 262.50 82.03 L 278.91 70.31 L 316.41 63.28 L 384.38 75.00 L 466.41 121.88" stroke="black" fill="transparent"/>
	<path d = "M 314.06 4.69 L 349.22 0.00 L 377.34 9.38 L 386.72 44.53 L 379.69 53.91 L 365.62 58.59 L 351.56 51.56 L 344.53 21.09 L 346.88 7.03 L 360.94 7.03" stroke="black" fill="transparent"/>
	<path d = "M 459.38 142.97 L 468.75 138.28 L 494.53 150.00 L 525.00 185.16 L 550.78 243.75 L 557.81 278.91 L 560.16 356.25 L 536.72 405.47 L 510.94 421.88" stroke="black" fill="transparent"/>
	<path d = "M 255.47 147.66 L 232.03 173.44 L 210.94 229.69 L 213.28 274.22 L 243.75 349.22 L 281.25 379.69 L 405.47 431.25 L 426.56 433.59 L 489.84 419.53" stroke="black" fill="transparent"/>
	<path d = "M 532.03 192.19 L 532.03 180.47 L 550.78 168.75 L 571.88 168.75 L 597.66 234.38 L 590.62 269.53 L 571.88 274.22" stroke="black" fill="transparent"/>
	<path d = "M 215.62 208.59 L 189.84 182.81 L 133.59 161.72 L 89.06 128.91 L 70.31 89.06 L 65.62 56.25 L 58.59 49.22 L 28.12 56.25 L 0.00 105.47 L 168.75 246.09 L 213.28 269.53 L 241.41 274.22" stroke="black" fill="transparent"/>
</svg>