<?xml version="1.0" encoding="UTF-8" standalone="no"?>
<!--Created with ndjsontosvg (https:https://github.com/thompson318/ndjsontosvg) 
	from the simplified Google quickdraw data set. key_id = 4794670204846080-->
<svg width="600" height="600"
	xmlns="http://www.w3.org/2000/svg">
	xmlns:ndjsontosvg="https://github.com/thompson318/ndjsontosvg"
	xmlns:quickdraw="https://quickdraw.withgoogle.com/data"
	xmlns:scikit-surgery="https://doi.org/10.1007/s11548-020-02180-5">

	<rect width="100%" height="100%" fill="white" />
	<path d = "M 147.66 60.94 L 86.72 56.25 L 21.09 82.03 L 4.69 91.41 L 0.00 107.81 L 0.00 121.88 L 25.78 164.06 L 103.12 203.91 L 138.28 215.62" stroke="black" fill="transparent"/>
	<path d = "M 164.06 56.25 L 159.38 103.12 L 117.19 208.59 L 121.88 239.06 L 142.97 269.53 L 234.38 330.47 L 285.94 358.59 L 370.31 363.28 L 424.22 363.28 L 464.06 351.56 L 480.47 337.50 L 501.56 246.09 L 510.94 105.47 L 522.66 91.41 L 564.84 86.72 L 597.66 100.78 L 597.66 86.72 L 585.94 70.31 L 539.06 56.25 L 328.12 51.56 L 278.91 39.84 L 234.38 39.84 L 173.44 51.56 L 173.44 56.25" stroke="black" fill="transparent"/>
	<path d = "M 281.25 25.78 L 342.19 0.00 L 403.12 21.09" stroke="black" fill="transparent"/>
</svg>