<?xml version="1.0" encoding="UTF-8" standalone="no"?>
<!--Created with ndjsontosvg (https:https://github.com/thompson318/ndjsontosvg) 
	from the simplified Google quickdraw data set. key_id = 5175908484775936-->
<svg width="600" height="600"
	xmlns="http://www.w3.org/2000/svg">
	xmlns:ndjsontosvg="https://github.com/thompson318/ndjsontosvg"
	xmlns:quickdraw="https://quickdraw.withgoogle.com/data"
	xmlns:scikit-surgery="https://doi.org/10.1007/s11548-020-02180-5">

	<rect width="100%" height="100%" fill="white" />
	<path d = "M 520.31 168.75 L 501.56 100.78 L 482.81 72.66 L 454.69 51.56 L 412.50 39.84 L 370.31 39.84 L 321.09 67.97 L 309.38 93.75 L 309.38 164.06" stroke="black" fill="transparent"/>
	<path d = "M 325.78 152.34 L 325.78 131.25 L 344.53 107.81 L 372.66 93.75 L 412.50 86.72 L 433.59 96.09 L 454.69 117.19 L 487.50 173.44" stroke="black" fill="transparent"/>
	<path d = "M 517.97 166.41 L 353.91 166.41 L 269.53 154.69" stroke="black" fill="transparent"/>
	<path d = "M 501.56 161.72 L 515.62 159.38 L 536.72 168.75 L 574.22 220.31 L 592.97 269.53 L 597.66 358.59 L 585.94 403.12 L 557.81 445.31 L 529.69 461.72 L 475.78 475.78 L 375.00 466.41 L 283.59 442.97 L 236.72 412.50 L 189.84 351.56 L 178.12 323.44 L 175.78 276.56 L 180.47 241.41 L 194.53 213.28 L 232.03 178.12 L 307.03 166.41" stroke="black" fill="transparent"/>
	<path d = "M 225.00 168.75 L 196.88 159.38 L 161.72 128.91 L 140.62 103.12 L 112.50 42.19 L 89.06 18.75 L 42.19 0.00 L 0.00 2.34 L 14.06 32.81 L 91.41 89.06 L 225.00 232.03" stroke="black" fill="transparent"/>
	<path d = "M 482.81 232.03 L 426.56 229.69 L 410.16 234.38 L 405.47 250.78 L 414.84 271.88 L 471.09 367.97 L 450.00 370.31" stroke="black" fill="transparent"/>
</svg>