<?xml version="1.0" encoding="UTF-8" standalone="no"?>
<!--Created with ndjsontosvg (https:https://github.com/thompson318/ndjsontosvg) 
	from the simplified Google quickdraw data set. key_id = 6017927662796800-->
<svg width="600" height="600"
	xmlns="http://www.w3.org/2000/svg">
	xmlns:ndjsontosvg="https://github.com/thompson318/ndjsontosvg"
	xmlns:quickdraw="https://quickdraw.withgoogle.com/data"
	xmlns:scikit-surgery="https://doi.org/10.1007/s11548-020-02180-5">

	<rect width="100%" height="100%" fill="white" />
	<path d = "M 208.59 128.91 L 196.88 166.41 L 203.91 206.25 L 241.41 253.12 L 295.31 290.62 L 332.81 302.34 L 363.28 300.00 L 389.06 274.22 L 405.47 239.06 L 412.50 142.97 L 393.75 110.16 L 346.88 86.72 L 246.09 84.38 L 189.84 98.44 L 178.12 117.19 L 147.66 82.03 L 131.25 42.19 L 131.25 9.38 L 154.69 7.03 L 199.22 46.88 L 222.66 77.34" stroke="black" fill="transparent"/>
	<path d = "M 295.31 77.34 L 302.34 56.25 L 321.09 32.81 L 367.97 2.34 L 386.72 0.00 L 386.72 82.03 L 367.97 128.91" stroke="black" fill="transparent"/>
	<path d = "M 283.59 295.31 L 178.12 300.00 L 105.47 316.41 L 9.38 358.59 L 0.00 367.97 L 2.34 386.72 L 18.75 405.47 L 77.34 433.59 L 107.81 440.62 L 175.78 440.62 L 220.31 407.81 L 325.78 300.00 L 407.81 283.59 L 459.38 281.25 L 499.22 309.38 L 513.28 351.56 L 506.25 372.66 L 405.47 379.69 L 304.69 332.81 L 281.25 351.56 L 257.81 391.41 L 241.41 445.31 L 241.41 492.19 L 269.53 520.31 L 344.53 522.66 L 377.34 431.25 L 382.03 379.69 L 379.69 405.47 L 358.59 471.09 L 339.84 499.22 L 206.25 492.19 L 180.47 520.31 L 178.12 564.84 L 182.81 574.22 L 201.56 595.31 L 227.34 597.66 L 276.56 543.75 L 360.94 560.16 L 426.56 560.16 L 440.62 539.06 L 440.62 515.62 L 414.84 494.53 L 382.03 489.84" stroke="black" fill="transparent"/>
</svg>