<?xml version="1.0" encoding="UTF-8" standalone="no"?>
<!--Created with ndjsontosvg (https:https://github.com/thompson318/ndjsontosvg) 
	from the simplified Google quickdraw data set. key_id = 6093190081806336-->
<svg width="600" height="600"
	xmlns="http://www.w3.org/2000/svg">
	xmlns:ndjsontosvg="https://github.com/thompson318/ndjsontosvg"
	xmlns:quickdraw="https://quickdraw.withgoogle.com/data"
	xmlns:scikit-surgery="https://doi.org/10.1007/s11548-020-02180-5">

	<rect width="100%" height="100%" fill="white" />
	<path d = "M 70.31 438.28 L 25.78 452.34 L 18.75 461.72 L 7.03 494.53 L 0.00 548.44 L 4.69 564.84 L 56.25 571.88 L 89.06 557.81 L 105.47 534.38 L 119.53 489.84 L 152.34 480.47 L 199.22 515.62 L 241.41 585.94 L 255.47 595.31 L 295.31 595.31 L 323.44 564.84 L 328.12 522.66 L 213.28 421.88 L 192.19 375.00 L 189.84 339.84 L 220.31 290.62 L 246.09 281.25 L 288.28 365.62 L 351.56 396.09 L 391.41 344.53 L 403.12 314.06 L 407.81 281.25 L 393.75 253.12 L 316.41 194.53 L 220.31 192.19 L 194.53 178.12 L 178.12 142.97 L 173.44 105.47 L 232.03 60.94 L 227.34 35.16 L 199.22 7.03 L 142.97 14.06 L 131.25 30.47 L 128.91 65.62 L 119.53 70.31 L 96.09 65.62 L 79.69 7.03 L 56.25 0.00 L 30.47 14.06 L 23.44 35.16 L 28.12 79.69 L 35.16 121.88 L 63.28 166.41 L 60.94 208.59" stroke="black" fill="transparent"/>
</svg>