<?xml version="1.0" encoding="UTF-8" standalone="no"?>
<!--Created with ndjsontosvg (https:https://github.com/thompson318/ndjsontosvg) 
	from the simplified Google quickdraw data set. key_id = 4632485126209536-->
<svg width="600" height="600"
	xmlns="http://www.w3.org/2000/svg">
	xmlns:ndjsontosvg="https://github.com/thompson318/ndjsontosvg"
	xmlns:quickdraw="https://quickdraw.withgoogle.com/data"
	xmlns:scikit-surgery="https://doi.org/10.1007/s11548-020-02180-5">

	<rect width="100%" height="100%" fill="white" />
	<path d = "M 49.22 21.09 L 32.81 28.12 L 11.72 60.94 L 0.00 145.31 L 28.12 161.72 L 51.56 159.38" stroke="black" fill="transparent"/>
	<path d = "M 42.19 28.12 L 46.88 14.06 L 60.94 16.41 L 70.31 39.84 L 65.62 128.91 L 56.25 150.00" stroke="black" fill="transparent"/>
	<path d = "M 35.16 2.34 L 189.84 0.00 L 227.34 18.75 L 267.19 44.53 L 318.75 89.06 L 330.47 107.81 L 349.22 178.12 L 356.25 358.59 L 332.81 414.84 L 269.53 464.06 L 220.31 487.50 L 185.16 496.88 L 86.72 501.56 L 70.31 492.19 L 60.94 480.47 L 60.94 433.59 L 75.00 398.44 L 89.06 389.06 L 110.16 391.41 L 135.94 426.56 L 135.94 471.09 L 105.47 496.88" stroke="black" fill="transparent"/>
	<path d = "M 98.44 400.78 L 229.69 403.12 L 248.44 396.09 L 281.25 346.88 L 288.28 269.53 L 267.19 229.69 L 210.94 187.50 L 173.44 173.44 L 65.62 152.34" stroke="black" fill="transparent"/>
	<path d = "M 403.12 393.75 L 367.97 414.84 L 351.56 438.28 L 346.88 494.53 L 377.34 506.25 L 426.56 499.22 L 464.06 466.41 L 450.00 457.03 L 433.59 471.09 L 433.59 525.00 L 450.00 543.75 L 510.94 546.09 L 527.34 539.06 L 597.66 489.84" stroke="black" fill="transparent"/>
</svg>