<?xml version="1.0" encoding="UTF-8" standalone="no"?>
<!--Created with ndjsontosvg (https:https://github.com/thompson318/ndjsontosvg) 
	from the simplified Google quickdraw data set. key_id = 4870260761034752-->
<svg width="600" height="600"
	xmlns="http://www.w3.org/2000/svg">
	xmlns:ndjsontosvg="https://github.com/thompson318/ndjsontosvg"
	xmlns:quickdraw="https://quickdraw.withgoogle.com/data"
	xmlns:scikit-surgery="https://doi.org/10.1007/s11548-020-02180-5">

	<rect width="100%" height="100%" fill="white" />
	<path d = "M 16.41 194.53 L 21.09 515.62 L 11.72 597.66 L 60.94 574.22 L 103.12 567.19 L 321.09 574.22 L 487.50 557.81 L 485.16 478.12 L 471.09 412.50 L 480.47 274.22 L 471.09 257.81 L 438.28 243.75 L 365.62 234.38 L 135.94 229.69 L 46.88 217.97" stroke="black" fill="transparent"/>
	<path d = "M 51.56 220.31 L 0.00 220.31" stroke="black" fill="transparent"/>
	<path d = "M 103.12 269.53 L 89.06 389.06 L 91.41 473.44 L 135.94 482.81 L 269.53 482.81 L 419.53 501.56 L 424.22 471.09 L 403.12 405.47 L 398.44 344.53 L 372.66 302.34 L 353.91 297.66 L 154.69 295.31 L 96.09 283.59" stroke="black" fill="transparent"/>
	<path d = "M 124.22 225.00 L 124.22 135.94 L 103.12 25.78" stroke="black" fill="transparent"/>
	<path d = "M 103.12 25.78 L 103.12 0.00 L 103.12 16.41 L 89.06 28.12 L 82.03 2.34 L 110.16 4.69 L 103.12 18.75 L 91.41 4.69 L 110.16 4.69 L 119.53 16.41 L 112.50 18.75" stroke="black" fill="transparent"/>
</svg>