<?xml version="1.0" encoding="UTF-8" standalone="no"?>
<!--Created with ndjsontosvg (https:https://github.com/thompson318/ndjsontosvg) 
	from the simplified Google quickdraw data set. key_id = 4554160877862912-->
<svg width="600" height="600"
	xmlns="http://www.w3.org/2000/svg">
	xmlns:ndjsontosvg="https://github.com/thompson318/ndjsontosvg"
	xmlns:quickdraw="https://quickdraw.withgoogle.com/data"
	xmlns:scikit-surgery="https://doi.org/10.1007/s11548-020-02180-5">

	<rect width="100%" height="100%" fill="white" />
	<path d = "M 534.38 403.12 L 536.72 363.28 L 562.50 281.25 L 597.66 65.62 L 597.66 30.47 L 585.94 16.41 L 496.88 0.00 L 18.75 0.00 L 14.06 7.03 L 14.06 98.44 L 0.00 271.88 L 0.00 400.78 L 126.56 407.81 L 250.78 426.56 L 365.62 431.25 L 450.00 431.25 L 496.88 414.84 L 534.38 410.16" stroke="black" fill="transparent"/>
	<path d = "M 49.22 25.78 L 56.25 206.25 L 49.22 283.59 L 82.03 297.66 L 375.00 297.66 L 508.59 309.38 L 529.69 196.88 L 562.50 93.75 L 555.47 63.28 L 529.69 53.91 L 431.25 46.88 L 152.34 46.88 L 63.28 37.50" stroke="black" fill="transparent"/>
	<path d = "M 58.59 353.91 L 39.84 321.09 L 25.78 346.88 L 32.81 363.28 L 42.19 370.31 L 79.69 365.62 L 84.38 360.94 L 79.69 351.56" stroke="black" fill="transparent"/>
	<path d = "M 138.28 342.19 L 124.22 325.78 L 103.12 337.50 L 107.81 356.25 L 133.59 360.94 L 145.31 353.91 L 147.66 339.84" stroke="black" fill="transparent"/>
</svg>