<?xml version="1.0" encoding="UTF-8" standalone="no"?>
<!--Created with ndjsontosvg (https:https://github.com/thompson318/ndjsontosvg) 
	from the simplified Google quickdraw data set. key_id = 4636438794600448-->
<svg width="600" height="600"
	xmlns="http://www.w3.org/2000/svg">
	xmlns:ndjsontosvg="https://github.com/thompson318/ndjsontosvg"
	xmlns:quickdraw="https://quickdraw.withgoogle.com/data"
	xmlns:scikit-surgery="https://doi.org/10.1007/s11548-020-02180-5">

	<rect width="100%" height="100%" fill="white" />
	<path d = "M 42.19 588.28 L 21.09 517.97 L 0.00 314.06 L 2.34 241.41 L 21.09 182.81 L 32.81 175.78 L 335.16 145.31 L 377.34 152.34 L 396.09 187.50 L 396.09 515.62 L 377.34 576.56 L 260.16 574.22 L 58.59 597.66 L 44.53 595.31 L 53.91 592.97 L 105.47 583.59" stroke="black" fill="transparent"/>
	<path d = "M 96.09 222.66 L 84.38 253.12 L 75.00 344.53 L 96.09 525.00 L 302.34 503.91 L 360.94 489.84 L 367.97 457.03 L 351.56 302.34 L 332.81 246.09 L 93.75 225.00 L 37.50 232.03" stroke="black" fill="transparent"/>
	<path d = "M 142.97 138.28 L 14.06 35.16" stroke="black" fill="transparent"/>
	<path d = "M 217.97 135.94 L 248.44 112.50 L 335.16 0.00" stroke="black" fill="transparent"/>
</svg>