<?xml version="1.0" encoding="UTF-8" standalone="no"?>
<!--Created with ndjsontosvg (https:https://github.com/thompson318/ndjsontosvg) 
	from the simplified Google quickdraw data set. key_id = 5696889494175744-->
<svg width="600" height="600"
	xmlns="http://www.w3.org/2000/svg">
	xmlns:ndjsontosvg="https://github.com/thompson318/ndjsontosvg"
	xmlns:quickdraw="https://quickdraw.withgoogle.com/data"
	xmlns:scikit-surgery="https://doi.org/10.1007/s11548-020-02180-5">

	<rect width="100%" height="100%" fill="white" />
	<path d = "M 142.97 16.41 L 128.91 4.69 L 96.09 0.00 L 49.22 44.53 L 7.03 152.34 L 0.00 295.31 L 37.50 384.38 L 70.31 419.53 L 131.25 450.00 L 161.72 452.34 L 187.50 412.50 L 196.88 356.25 L 140.62 342.19 L 126.56 332.81 L 112.50 307.03 L 112.50 175.78 L 121.88 107.81 L 131.25 96.09 L 203.91 100.78 L 248.44 39.84 L 196.88 16.41 L 147.66 14.06" stroke="black" fill="transparent"/>
	<path d = "M 539.06 128.91 L 466.41 292.97 L 431.25 480.47 L 442.97 489.84 L 515.62 503.91 L 597.66 508.59" stroke="black" fill="transparent"/>
</svg>