<?xml version="1.0" encoding="UTF-8" standalone="no"?>
<!--Created with ndjsontosvg (https:https://github.com/thompson318/ndjsontosvg) 
	from the simplified Google quickdraw data set. key_id = 6462552034770944-->
<svg width="600" height="600"
	xmlns="http://www.w3.org/2000/svg">
	xmlns:ndjsontosvg="https://github.com/thompson318/ndjsontosvg"
	xmlns:quickdraw="https://quickdraw.withgoogle.com/data"
	xmlns:scikit-surgery="https://doi.org/10.1007/s11548-020-02180-5">

	<rect width="100%" height="100%" fill="white" />
	<path d = "M 39.84 192.19 L 246.09 182.81 L 407.81 161.72 L 396.09 208.59 L 389.06 328.12 L 389.06 428.91 L 405.47 553.12 L 400.78 571.88 L 375.00 583.59 L 285.94 595.31 L 192.19 597.66 L 86.72 583.59 L 49.22 571.88 L 18.75 548.44 L 7.03 532.03 L 0.00 494.53 L 4.69 365.62 L 44.53 185.16" stroke="black" fill="transparent"/>
	<path d = "M 82.03 236.72 L 215.62 227.34 L 353.91 199.22 L 360.94 210.94 L 349.22 274.22 L 353.91 461.72 L 346.88 525.00 L 335.16 541.41 L 152.34 553.12 L 82.03 534.38 L 60.94 517.97 L 53.91 447.66 L 89.06 253.12" stroke="black" fill="transparent"/>
	<path d = "M 199.22 140.62 L 171.09 117.19 L 133.59 58.59 L 82.03 0.00" stroke="black" fill="transparent"/>
	<path d = "M 236.72 157.03 L 276.56 105.47 L 339.84 58.59 L 344.53 46.88" stroke="black" fill="transparent"/>
</svg>