<?xml version="1.0" encoding="UTF-8" standalone="no"?>
<!--Created with ndjsontosvg (https:https://github.com/thompson318/ndjsontosvg) 
	from the simplified Google quickdraw data set. key_id = 4816194735439872-->
<svg width="600" height="600"
	xmlns="http://www.w3.org/2000/svg">
	xmlns:ndjsontosvg="https://github.com/thompson318/ndjsontosvg"
	xmlns:quickdraw="https://quickdraw.withgoogle.com/data"
	xmlns:scikit-surgery="https://doi.org/10.1007/s11548-020-02180-5">

	<rect width="100%" height="100%" fill="white" />
	<path d = "M 14.06 203.91 L 4.69 412.50 L 75.00 438.28 L 210.94 468.75 L 290.62 478.12 L 442.97 478.12 L 452.34 440.62 L 452.34 243.75 L 445.31 236.72 L 323.44 187.50 L 140.62 182.81 L 56.25 171.09" stroke="black" fill="transparent"/>
	<path d = "M 0.00 201.56 L 18.75 180.47 L 35.16 173.44" stroke="black" fill="transparent"/>
	<path d = "M 28.12 405.47 L 44.53 454.69 L 56.25 597.66" stroke="black" fill="transparent"/>
	<path d = "M 363.28 482.81 L 363.28 569.53" stroke="black" fill="transparent"/>
	<path d = "M 344.53 192.19 L 363.28 0.00" stroke="black" fill="transparent"/>
	<path d = "M 70.31 236.72 L 56.25 297.66 L 56.25 328.12 L 98.44 349.22 L 220.31 377.34 L 332.81 379.69 L 344.53 375.00 L 356.25 328.12 L 356.25 267.19 L 323.44 241.41 L 264.84 225.00 L 168.75 225.00 L 107.81 234.38 L 60.94 250.78" stroke="black" fill="transparent"/>
	<path d = "M 393.75 285.94 L 393.75 281.25" stroke="black" fill="transparent"/>
</svg>