<?xml version="1.0" encoding="UTF-8" standalone="no"?>
<!--Created with ndjsontosvg (https:https://github.com/thompson318/ndjsontosvg) 
	from the simplified Google quickdraw data set. key_id = 4835373828014080-->
<svg width="600" height="600"
	xmlns="http://www.w3.org/2000/svg">
	xmlns:ndjsontosvg="https://github.com/thompson318/ndjsontosvg"
	xmlns:quickdraw="https://quickdraw.withgoogle.com/data"
	xmlns:scikit-surgery="https://doi.org/10.1007/s11548-020-02180-5">

	<rect width="100%" height="100%" fill="white" />
	<path d = "M 96.09 290.62 L 42.19 592.97 L 112.50 597.66 L 138.28 450.00 L 145.31 342.19 L 145.31 288.28 L 119.53 288.28" stroke="black" fill="transparent"/>
	<path d = "M 114.84 288.28 L 75.00 278.91 L 28.12 232.03 L 14.06 194.53 L 14.06 166.41 L 23.44 152.34 L 63.28 124.22 L 112.50 114.84 L 302.34 107.81 L 316.41 110.16 L 346.88 138.28 L 363.28 182.81 L 360.94 203.91 L 309.38 246.09 L 267.19 269.53 L 150.00 290.62" stroke="black" fill="transparent"/>
	<path d = "M 77.34 178.12 L 145.31 264.84" stroke="black" fill="transparent"/>
	<path d = "M 126.56 196.88 L 239.06 314.06" stroke="black" fill="transparent"/>
	<path d = "M 192.19 194.53 L 274.22 241.41" stroke="black" fill="transparent"/>
	<path d = "M 257.81 142.97 L 309.38 182.81" stroke="black" fill="transparent"/>
	<path d = "M 307.03 173.44 L 77.34 269.53" stroke="black" fill="transparent"/>
	<path d = "M 246.09 173.44 L 225.00 164.06 L 154.69 171.09 L 9.38 248.44" stroke="black" fill="transparent"/>
	<path d = "M 51.56 175.78 L 274.22 173.44 L 276.56 161.72" stroke="black" fill="transparent"/>
	<path d = "M 89.06 300.00 L 37.50 274.22 L 18.75 250.78 L 4.69 203.91 L 0.00 138.28 L 21.09 110.16 L 105.47 39.84 L 161.72 16.41 L 260.16 0.00 L 339.84 0.00 L 382.03 42.19 L 400.78 96.09 L 412.50 241.41 L 386.72 264.84 L 358.59 276.56 L 213.28 309.38 L 107.81 316.41 L 70.31 302.34" stroke="black" fill="transparent"/>
</svg>