<?xml version="1.0" encoding="UTF-8" standalone="no"?>
<!--Created with ndjsontosvg (https:https://github.com/thompson318/ndjsontosvg) 
	from the simplified Google quickdraw data set. key_id = 5735032171790336-->
<svg width="600" height="600"
	xmlns="http://www.w3.org/2000/svg">
	xmlns:ndjsontosvg="https://github.com/thompson318/ndjsontosvg"
	xmlns:quickdraw="https://quickdraw.withgoogle.com/data"
	xmlns:scikit-surgery="https://doi.org/10.1007/s11548-020-02180-5">

	<rect width="100%" height="100%" fill="white" />
	<path d = "M 157.03 220.31 L 157.03 342.19 L 171.09 466.41" stroke="black" fill="transparent"/>
	<path d = "M 150.00 203.91 L 60.94 217.97 L 39.84 203.91 L 32.81 187.50 L 30.47 128.91 L 37.50 98.44 L 53.91 58.59 L 96.09 23.44 L 161.72 4.69 L 253.12 2.34 L 323.44 35.16 L 346.88 58.59 L 353.91 75.00 L 349.22 107.81 L 321.09 145.31 L 210.94 203.91 L 164.06 217.97 L 131.25 210.94" stroke="black" fill="transparent"/>
	<path d = "M 93.75 25.78 L 93.75 25.78" stroke="black" fill="transparent"/>
	<path d = "M 70.31 49.22 L 93.75 225.00" stroke="black" fill="transparent"/>
	<path d = "M 0.00 150.00 L 128.91 126.56 L 405.47 96.09" stroke="black" fill="transparent"/>
	<path d = "M 117.19 23.44 L 142.97 166.41" stroke="black" fill="transparent"/>
	<path d = "M 117.19 18.75 L 117.19 18.75" stroke="black" fill="transparent"/>
	<path d = "M 597.66 229.69 L 117.19 21.09 L 597.66 229.69" stroke="black" fill="transparent"/>
</svg>