<?xml version="1.0" encoding="UTF-8" standalone="no"?>
<!--Created with ndjsontosvg (https:https://github.com/thompson318/ndjsontosvg) 
	from the simplified Google quickdraw data set. key_id = 4856338087673856-->
<svg width="600" height="600"
	xmlns="http://www.w3.org/2000/svg">
	xmlns:ndjsontosvg="https://github.com/thompson318/ndjsontosvg"
	xmlns:quickdraw="https://quickdraw.withgoogle.com/data"
	xmlns:scikit-surgery="https://doi.org/10.1007/s11548-020-02180-5">

	<rect width="100%" height="100%" fill="white" />
	<path d = "M 487.50 30.47 L 403.12 0.00 L 335.16 0.00 L 323.44 4.69 L 253.12 65.62 L 210.94 117.19 L 192.19 180.47 L 189.84 288.28 L 194.53 314.06 L 217.97 335.16" stroke="black" fill="transparent"/>
	<path d = "M 517.97 25.78 L 534.38 77.34 L 536.72 161.72 L 513.28 225.00 L 468.75 297.66 L 438.28 325.78 L 393.75 351.56 L 267.19 389.06 L 234.38 428.91 L 32.81 597.66 L 25.78 597.66 L 11.72 571.88 L 0.00 515.62 L 4.69 503.91 L 107.81 440.62 L 194.53 360.94 L 246.09 302.34" stroke="black" fill="transparent"/>
	<path d = "M 250.78 323.44 L 243.75 304.69 L 239.06 196.88 L 248.44 161.72 L 285.94 105.47 L 314.06 75.00 L 339.84 60.94 L 389.06 49.22 L 466.41 53.91 L 485.16 75.00 L 494.53 103.12 L 496.88 157.03 L 475.78 225.00 L 452.34 264.84 L 396.09 304.69 L 328.12 325.78 L 253.12 328.12 L 229.69 307.03" stroke="black" fill="transparent"/>
	<path d = "M 210.94 220.31 L 325.78 335.16" stroke="black" fill="transparent"/>
	<path d = "M 276.56 140.62 L 365.62 262.50" stroke="black" fill="transparent"/>
	<path d = "M 335.16 70.31 L 356.25 131.25 L 442.97 253.12" stroke="black" fill="transparent"/>
</svg>