<?xml version="1.0" encoding="UTF-8" standalone="no"?>
<!--Created with ndjsontosvg (https:https://github.com/thompson318/ndjsontosvg) 
	from the simplified Google quickdraw data set. key_id = 6265263232122880-->
<svg width="600" height="600"
	xmlns="http://www.w3.org/2000/svg">
	xmlns:ndjsontosvg="https://github.com/thompson318/ndjsontosvg"
	xmlns:quickdraw="https://quickdraw.withgoogle.com/data"
	xmlns:scikit-surgery="https://doi.org/10.1007/s11548-020-02180-5">

	<rect width="100%" height="100%" fill="white" />
	<path d = "M 0.00 567.19 L 25.78 386.72 L 96.09 150.00 L 138.28 56.25 L 175.78 16.41 L 227.34 4.69 L 302.34 0.00 L 386.72 4.69 L 452.34 18.75 L 482.81 28.12 L 534.38 63.28 L 562.50 105.47 L 574.22 135.94 L 571.88 185.16 L 548.44 271.88 L 529.69 297.66 L 450.00 300.00 L 330.47 236.72 L 248.44 213.28 L 225.00 239.06 L 199.22 290.62 L 157.03 447.66 L 131.25 517.97 L 63.28 564.84" stroke="black" fill="transparent"/>
	<path d = "M 117.19 131.25 L 243.75 121.88 L 431.25 126.56 L 517.97 142.97 L 541.41 152.34 L 536.72 157.03" stroke="black" fill="transparent"/>
	<path d = "M 154.69 16.41 L 166.41 49.22 L 194.53 82.03 L 302.34 138.28 L 426.56 164.06 L 527.34 166.41 L 597.66 157.03" stroke="black" fill="transparent"/>
	<path d = "M 300.00 67.97 L 332.81 89.06 L 365.62 171.09 L 431.25 271.88 L 447.66 288.28 L 452.34 271.88" stroke="black" fill="transparent"/>
	<path d = "M 522.66 42.19 L 496.88 63.28 L 438.28 86.72 L 262.50 133.59 L 173.44 145.31 L 173.44 140.62" stroke="black" fill="transparent"/>
	<path d = "M 452.34 166.41 L 337.50 187.50 L 339.84 180.47" stroke="black" fill="transparent"/>
</svg>