<?xml version="1.0" encoding="UTF-8" standalone="no"?>
<!--Created with ndjsontosvg (https:https://github.com/thompson318/ndjsontosvg) 
	from the simplified Google quickdraw data set. key_id = 6519358010425344-->
<svg width="600" height="600"
	xmlns="http://www.w3.org/2000/svg">
	xmlns:ndjsontosvg="https://github.com/thompson318/ndjsontosvg"
	xmlns:quickdraw="https://quickdraw.withgoogle.com/data"
	xmlns:scikit-surgery="https://doi.org/10.1007/s11548-020-02180-5">

	<rect width="100%" height="100%" fill="white" />
	<path d = "M 264.84 597.66 L 260.16 302.34 L 250.78 529.69 L 246.09 492.19" stroke="black" fill="transparent"/>
	<path d = "M 250.78 283.59 L 128.91 274.22 L 89.06 262.50 L 58.59 241.41 L 37.50 215.62 L 23.44 166.41 L 25.78 91.41 L 53.91 39.84 L 112.50 2.34 L 215.62 0.00 L 241.41 16.41 L 290.62 82.03 L 300.00 128.91 L 295.31 234.38 L 271.88 285.94 L 246.09 295.31" stroke="black" fill="transparent"/>
	<path d = "M 110.16 25.78 L 121.88 30.47 L 189.84 208.59 L 241.41 300.00 L 255.47 302.34" stroke="black" fill="transparent"/>
	<path d = "M 0.00 229.69 L 117.19 182.81 L 377.34 107.81" stroke="black" fill="transparent"/>
	<path d = "M 67.97 39.84 L 84.38 56.25 L 161.72 194.53 L 229.69 278.91 L 267.19 339.84" stroke="black" fill="transparent"/>
	<path d = "M 42.19 260.16 L 58.59 208.59 L 86.72 171.09 L 135.94 133.59 L 267.19 100.78 L 351.56 96.09" stroke="black" fill="transparent"/>
	<path d = "M 67.97 107.81 L 114.84 107.81" stroke="black" fill="transparent"/>
	<path d = "M 210.94 44.53 L 210.94 44.53" stroke="black" fill="transparent"/>
</svg>