<?xml version="1.0" encoding="UTF-8" standalone="no"?>
<!--Created with ndjsontosvg (https:https://github.com/thompson318/ndjsontosvg) 
	from the simplified Google quickdraw data set. key_id = 4677789754064896-->
<svg width="600" height="600"
	xmlns="http://www.w3.org/2000/svg">
	xmlns:ndjsontosvg="https://github.com/thompson318/ndjsontosvg"
	xmlns:quickdraw="https://quickdraw.withgoogle.com/data"
	xmlns:scikit-surgery="https://doi.org/10.1007/s11548-020-02180-5">

	<rect width="100%" height="100%" fill="white" />
	<path d = "M 215.62 344.53 L 187.50 325.78 L 166.41 300.00 L 154.69 267.19 L 152.34 173.44 L 175.78 107.81 L 222.66 56.25 L 250.78 39.84 L 278.91 32.81 L 337.50 32.81 L 379.69 77.34 L 391.41 107.81 L 398.44 196.88 L 372.66 264.84 L 332.81 318.75 L 288.28 349.22 L 220.31 349.22 L 199.22 328.12 L 185.16 276.56" stroke="black" fill="transparent"/>
	<path d = "M 236.72 351.56 L 229.69 487.50 L 232.03 583.59 L 241.41 592.97 L 274.22 597.66 L 292.97 590.62 L 321.09 546.09 L 304.69 407.81 L 307.03 351.56" stroke="black" fill="transparent"/>
	<path d = "M 229.69 344.53 L 222.66 283.59 L 220.31 126.56 L 234.38 63.28 L 248.44 39.84" stroke="black" fill="transparent"/>
	<path d = "M 255.47 344.53 L 255.47 304.69 L 269.53 185.16 L 285.94 91.41 L 307.03 39.84" stroke="black" fill="transparent"/>
	<path d = "M 309.38 346.88 L 302.34 239.06 L 311.72 138.28 L 332.81 49.22 L 360.94 0.00" stroke="black" fill="transparent"/>
	<path d = "M 360.94 304.69 L 365.62 157.03 L 398.44 32.81" stroke="black" fill="transparent"/>
	<path d = "M 185.16 335.16 L 194.53 182.81 L 225.00 32.81" stroke="black" fill="transparent"/>
	<path d = "M 168.75 248.44 L 164.06 255.47 L 185.16 262.50 L 316.41 262.50 L 382.03 248.44 L 386.72 239.06" stroke="black" fill="transparent"/>
	<path d = "M 166.41 192.19 L 358.59 208.59 L 384.38 206.25 L 398.44 196.88" stroke="black" fill="transparent"/>
	<path d = "M 196.88 124.22 L 328.12 128.91 L 379.69 114.84" stroke="black" fill="transparent"/>
	<path d = "M 229.69 65.62 L 393.75 63.28" stroke="black" fill="transparent"/>
	<path d = "M 72.66 117.19 L 21.09 159.38 L 0.00 196.88 L 7.03 232.03 L 23.44 262.50 L 72.66 276.56 L 98.44 267.19 L 119.53 243.75 L 131.25 175.78 L 105.47 124.22 L 82.03 110.16" stroke="black" fill="transparent"/>
</svg>