<?xml version="1.0" encoding="UTF-8" standalone="no"?>
<!--Created with ndjsontosvg (https:https://github.com/thompson318/ndjsontosvg) 
	from the simplified Google quickdraw data set. key_id = 6385261413924864-->
<svg width="600" height="600"
	xmlns="http://www.w3.org/2000/svg">
	xmlns:ndjsontosvg="https://github.com/thompson318/ndjsontosvg"
	xmlns:quickdraw="https://quickdraw.withgoogle.com/data"
	xmlns:scikit-surgery="https://doi.org/10.1007/s11548-020-02180-5">

	<rect width="100%" height="100%" fill="white" />
	<path d = "M 14.06 152.34 L 316.41 133.59" stroke="black" fill="transparent"/>
	<path d = "M 35.16 206.25 L 307.03 173.44 L 328.12 208.59 L 351.56 225.00 L 428.91 234.38 L 517.97 196.88 L 553.12 161.72 L 576.56 112.50 L 581.25 84.38 L 578.91 46.88 L 564.84 14.06 L 546.09 4.69 L 501.56 0.00 L 450.00 16.41 L 384.38 56.25 L 342.19 91.41 L 323.44 117.19 L 321.09 135.94" stroke="black" fill="transparent"/>
	<path d = "M 328.12 107.81 L 356.25 210.94" stroke="black" fill="transparent"/>
	<path d = "M 358.59 84.38 L 382.03 185.16 L 398.44 227.34 L 398.44 213.28" stroke="black" fill="transparent"/>
	<path d = "M 396.09 60.94 L 450.00 215.62" stroke="black" fill="transparent"/>
	<path d = "M 431.25 46.88 L 454.69 135.94 L 478.12 185.16" stroke="black" fill="transparent"/>
	<path d = "M 452.34 2.34 L 532.03 175.78" stroke="black" fill="transparent"/>
	<path d = "M 503.91 7.03 L 564.84 142.97" stroke="black" fill="transparent"/>
	<path d = "M 321.09 135.94 L 454.69 84.38 L 557.81 25.78" stroke="black" fill="transparent"/>
	<path d = "M 321.09 192.19 L 529.69 110.16 L 597.66 70.31" stroke="black" fill="transparent"/>
	<path d = "M 0.00 150.00 L 39.84 217.97" stroke="black" fill="transparent"/>
	<path d = "M 365.62 208.59 L 386.72 210.94 L 438.28 196.88 L 588.28 133.59" stroke="black" fill="transparent"/>
	<path d = "M 353.91 77.34 L 548.44 16.41" stroke="black" fill="transparent"/>
</svg>