<?xml version="1.0" encoding="UTF-8" standalone="no"?>
<!--Created with ndjsontosvg (https:https://github.com/thompson318/ndjsontosvg) 
	from the simplified Google quickdraw data set. key_id = 6405183753945088-->
<svg width="600" height="600"
	xmlns="http://www.w3.org/2000/svg">
	xmlns:ndjsontosvg="https://github.com/thompson318/ndjsontosvg"
	xmlns:quickdraw="https://quickdraw.withgoogle.com/data"
	xmlns:scikit-surgery="https://doi.org/10.1007/s11548-020-02180-5">

	<rect width="100%" height="100%" fill="white" />
	<path d = "M 28.12 229.69 L 32.81 147.66 L 60.94 107.81 L 119.53 56.25 L 161.72 30.47 L 194.53 21.09 L 255.47 18.75 L 292.97 25.78 L 367.97 63.28 L 407.81 96.09 L 438.28 135.94 L 464.06 203.91 L 466.41 257.81 L 457.03 290.62 L 421.88 335.16 L 360.94 382.03 L 318.75 403.12 L 246.09 414.84 L 150.00 412.50 L 128.91 405.47 L 75.00 370.31 L 14.06 297.66 L 0.00 257.81 L 2.34 220.31" stroke="black" fill="transparent"/>
	<path d = "M 335.16 403.12 L 349.22 424.22 L 482.81 536.72 L 496.88 536.72 L 597.66 478.12 L 597.66 471.09 L 529.69 414.84 L 377.34 328.12" stroke="black" fill="transparent"/>
	<path d = "M 21.09 164.06 L 39.84 164.06 L 173.44 269.53 L 323.44 353.91" stroke="black" fill="transparent"/>
	<path d = "M 93.75 91.41 L 91.41 82.03 L 100.78 75.00 L 121.88 77.34 L 257.81 171.09 L 382.03 283.59 L 389.06 304.69 L 384.38 309.38" stroke="black" fill="transparent"/>
	<path d = "M 157.03 0.00 L 239.06 30.47 L 393.75 150.00 L 454.69 210.94" stroke="black" fill="transparent"/>
	<path d = "M 35.16 236.72 L 44.53 227.34 L 75.00 246.09 L 142.97 325.78 L 194.53 363.28 L 255.47 396.09 L 297.66 405.47" stroke="black" fill="transparent"/>
	<path d = "M 63.28 316.41 L 63.28 297.66 L 75.00 278.91 L 152.34 206.25 L 288.28 42.19" stroke="black" fill="transparent"/>
	<path d = "M 133.59 358.59 L 152.34 356.25 L 180.47 332.81 L 323.44 145.31 L 358.59 114.84" stroke="black" fill="transparent"/>
	<path d = "M 391.41 335.16 L 391.41 335.16" stroke="black" fill="transparent"/>
	<path d = "M 274.22 403.12 L 274.22 379.69 L 398.44 225.00 L 419.53 180.47" stroke="black" fill="transparent"/>
</svg>