<?xml version="1.0" encoding="UTF-8" standalone="no"?>
<!--Created with ndjsontosvg (https:https://github.com/thompson318/ndjsontosvg) 
	from the simplified Google quickdraw data set. key_id = 6518629224939520-->
<svg width="600" height="600"
	xmlns="http://www.w3.org/2000/svg">
	xmlns:ndjsontosvg="https://github.com/thompson318/ndjsontosvg"
	xmlns:quickdraw="https://quickdraw.withgoogle.com/data"
	xmlns:scikit-surgery="https://doi.org/10.1007/s11548-020-02180-5">

	<rect width="100%" height="100%" fill="white" />
	<path d = "M 126.56 597.66 L 107.81 386.72 L 60.94 339.84 L 16.41 267.19 L 4.69 227.34 L 0.00 161.72 L 9.38 103.12 L 23.44 63.28 L 56.25 23.44 L 86.72 7.03 L 168.75 0.00 L 210.94 7.03 L 236.72 21.09 L 253.12 49.22 L 262.50 107.81 L 246.09 189.84 L 142.97 386.72 L 138.28 553.12 L 135.94 571.88 L 128.91 567.19" stroke="black" fill="transparent"/>
	<path d = "M 142.97 46.88 L 107.81 44.53 L 89.06 51.56 L 58.59 96.09 L 46.88 189.84 L 63.28 267.19 L 77.34 304.69 L 96.09 325.78 L 128.91 339.84 L 147.66 337.50 L 182.81 318.75 L 215.62 243.75 L 220.31 147.66 L 213.28 91.41 L 206.25 72.66 L 171.09 35.16 L 135.94 21.09" stroke="black" fill="transparent"/>
	<path d = "M 56.25 185.16 L 114.84 292.97 L 166.41 349.22" stroke="black" fill="transparent"/>
	<path d = "M 70.31 105.47 L 140.62 243.75 L 178.12 285.94" stroke="black" fill="transparent"/>
	<path d = "M 124.22 32.81 L 246.09 236.72" stroke="black" fill="transparent"/>
	<path d = "M 189.84 49.22 L 121.88 112.50 L 65.62 196.88 L 30.47 271.88" stroke="black" fill="transparent"/>
	<path d = "M 187.50 107.81 L 133.59 267.19" stroke="black" fill="transparent"/>
	<path d = "M 241.41 154.69 L 145.31 281.25 L 91.41 372.66" stroke="black" fill="transparent"/>
</svg>