<?xml version="1.0" encoding="UTF-8" standalone="no"?>
<!--Created with ndjsontosvg (https:https://github.com/thompson318/ndjsontosvg) 
	from the simplified Google quickdraw data set. key_id = 4586330136772608-->
<svg width="600" height="600"
	xmlns="http://www.w3.org/2000/svg">
	xmlns:ndjsontosvg="https://github.com/thompson318/ndjsontosvg"
	xmlns:quickdraw="https://quickdraw.withgoogle.com/data"
	xmlns:scikit-surgery="https://doi.org/10.1007/s11548-020-02180-5">

	<rect width="100%" height="100%" fill="white" />
	<path d = "M 91.41 321.09 L 114.84 440.62 L 121.88 588.28 L 173.44 597.66 L 175.78 492.19 L 189.84 389.06 L 225.00 337.50 L 262.50 314.06 L 281.25 283.59 L 300.00 77.34 L 278.91 37.50 L 243.75 11.72 L 178.12 0.00 L 138.28 9.38 L 82.03 46.88 L 30.47 93.75 L 4.69 142.97 L 2.34 227.34 L 93.75 335.16" stroke="black" fill="transparent"/>
	<path d = "M 103.12 339.84 L 210.94 344.53 L 138.28 276.56 L 18.75 124.22 L 164.06 201.56 L 274.22 234.38 L 257.81 182.81 L 225.00 140.62 L 194.53 82.03 L 152.34 32.81 L 140.62 7.03 L 152.34 18.75 L 201.56 44.53 L 285.94 70.31 L 292.97 86.72 L 257.81 154.69 L 89.06 344.53 L 75.00 353.91 L 75.00 302.34" stroke="black" fill="transparent"/>
</svg>