<?xml version="1.0" encoding="UTF-8" standalone="no"?>
<!--Created with ndjsontosvg (https:https://github.com/thompson318/ndjsontosvg) 
	from the simplified Google quickdraw data set. key_id = 5714363300184064-->
<svg width="600" height="600"
	xmlns="http://www.w3.org/2000/svg">
	xmlns:ndjsontosvg="https://github.com/thompson318/ndjsontosvg"
	xmlns:quickdraw="https://quickdraw.withgoogle.com/data"
	xmlns:scikit-surgery="https://doi.org/10.1007/s11548-020-02180-5">

	<rect width="100%" height="100%" fill="white" />
	<path d = "M 11.72 199.22 L 0.00 124.22 L 124.22 98.44 L 271.88 84.38 L 576.56 86.72 L 597.66 164.06" stroke="black" fill="transparent"/>
	<path d = "M 9.38 189.84 L 597.66 157.03" stroke="black" fill="transparent"/>
	<path d = "M 203.91 16.41 L 189.84 11.72 L 168.75 23.44 L 157.03 39.84 L 159.38 63.28 L 180.47 72.66 L 229.69 65.62" stroke="black" fill="transparent"/>
	<path d = "M 241.41 18.75 L 248.44 67.97 L 241.41 44.53 L 281.25 39.84 L 295.31 25.78" stroke="black" fill="transparent"/>
	<path d = "M 297.66 21.09 L 285.94 4.69 L 288.28 14.06 L 304.69 75.00" stroke="black" fill="transparent"/>
	<path d = "M 337.50 0.00 L 351.56 72.66" stroke="black" fill="transparent"/>
	<path d = "M 386.72 2.34 L 389.06 30.47 L 403.12 53.91" stroke="black" fill="transparent"/>
	<path d = "M 377.34 14.06 L 464.06 58.59 L 466.41 46.88 L 450.00 0.00" stroke="black" fill="transparent"/>
</svg>