<?xml version="1.0" encoding="UTF-8" standalone="no"?>
<!--Created with ndjsontosvg (https:https://github.com/thompson318/ndjsontosvg) 
	from the simplified Google quickdraw data set. key_id = 5412972841140224-->
<svg width="600" height="600"
	xmlns="http://www.w3.org/2000/svg">
	xmlns:ndjsontosvg="https://github.com/thompson318/ndjsontosvg"
	xmlns:quickdraw="https://quickdraw.withgoogle.com/data"
	xmlns:scikit-surgery="https://doi.org/10.1007/s11548-020-02180-5">

	<rect width="100%" height="100%" fill="white" />
	<path d = "M 70.31 360.94 L 72.66 318.75 L 103.12 194.53 L 171.09 56.25 L 206.25 0.00 L 227.34 49.22 L 271.88 124.22 L 342.19 325.78 L 370.31 391.41 L 398.44 431.25 L 382.03 417.19" stroke="black" fill="transparent"/>
	<path d = "M 86.72 342.19 L 51.56 398.44 L 2.34 520.31 L 2.34 567.19 L 37.50 578.91" stroke="black" fill="transparent"/>
	<path d = "M 398.44 400.78 L 421.88 478.12 L 459.38 541.41 L 487.50 567.19 L 508.59 576.56" stroke="black" fill="transparent"/>
	<path d = "M 208.59 107.81 L 154.69 300.00 L 159.38 360.94 L 182.81 377.34 L 260.16 377.34 L 300.00 363.28 L 316.41 344.53 L 210.94 107.81" stroke="black" fill="transparent"/>
	<path d = "M 126.56 431.25 L 107.81 466.41 L 79.69 597.66" stroke="black" fill="transparent"/>
	<path d = "M 150.00 414.84 L 199.22 421.88 L 297.66 412.50 L 332.81 421.88 L 353.91 471.09 L 419.53 574.22 L 438.28 583.59 L 445.31 578.91" stroke="black" fill="transparent"/>
</svg>