<?xml version="1.0" encoding="UTF-8" standalone="no"?>
<!--Created with ndjsontosvg (https:https://github.com/thompson318/ndjsontosvg) 
	from the simplified Google quickdraw data set. key_id = 5015216444145664-->
<svg width="600" height="600"
	xmlns="http://www.w3.org/2000/svg">
	xmlns:ndjsontosvg="https://github.com/thompson318/ndjsontosvg"
	xmlns:quickdraw="https://quickdraw.withgoogle.com/data"
	xmlns:scikit-surgery="https://doi.org/10.1007/s11548-020-02180-5">

	<rect width="100%" height="100%" fill="white" />
	<path d = "M 398.44 4.69 L 196.88 16.41 L 56.25 11.72 L 46.88 35.16 L 35.16 171.09 L 7.03 318.75 L 0.00 553.12 L 9.38 564.84 L 107.81 567.19 L 353.91 597.66 L 475.78 595.31 L 532.03 583.59 L 539.06 525.00 L 539.06 403.12 L 555.47 278.91 L 555.47 131.25 L 564.84 32.81 L 515.62 16.41 L 452.34 16.41 L 384.38 0.00" stroke="black" fill="transparent"/>
	<path d = "M 255.47 142.97 L 250.78 201.56 L 264.84 220.31 L 330.47 241.41 L 360.94 208.59 L 365.62 147.66 L 257.81 140.62 L 222.66 187.50 L 225.00 178.12 L 239.06 157.03 L 234.38 220.31 L 241.41 157.03 L 199.22 260.16 L 206.25 203.91 L 213.28 267.19 L 225.00 210.94 L 260.16 154.69 L 269.53 114.84 L 262.50 112.50 L 250.78 126.56 L 260.16 133.59 L 356.25 128.91 L 358.59 135.94 L 367.97 135.94 L 384.38 124.22 L 370.31 267.19 L 365.62 241.41 L 370.31 262.50 L 372.66 225.00 L 375.00 243.75" stroke="black" fill="transparent"/>
	<path d = "M 288.28 164.06 L 290.62 164.06" stroke="black" fill="transparent"/>
	<path d = "M 328.12 164.06 L 328.12 164.06" stroke="black" fill="transparent"/>
	<path d = "M 288.28 192.19 L 316.41 199.22 L 339.84 192.19" stroke="black" fill="transparent"/>
	<path d = "M 309.38 175.78 L 309.38 175.78" stroke="black" fill="transparent"/>
	<path d = "M 283.59 229.69 L 267.19 232.03 L 246.09 255.47 L 239.06 304.69 L 257.81 365.62 L 281.25 384.38 L 300.00 389.06" stroke="black" fill="transparent"/>
	<path d = "M 332.81 217.97 L 349.22 222.66 L 367.97 239.06 L 396.09 295.31 L 398.44 332.81 L 393.75 339.84 L 358.59 358.59 L 339.84 360.94 L 330.47 346.88 L 344.53 323.44 L 353.91 290.62 L 344.53 269.53" stroke="black" fill="transparent"/>
	<path d = "M 307.03 370.31 L 307.03 321.09 L 285.94 292.97 L 295.31 269.53" stroke="black" fill="transparent"/>
</svg>