<?xml version="1.0" encoding="UTF-8" standalone="no"?>
<!--Created with ndjsontosvg (https:https://github.com/thompson318/ndjsontosvg) 
	from the simplified Google quickdraw data set. key_id = 4659039986253824-->
<svg width="600" height="600"
	xmlns="http://www.w3.org/2000/svg">
	xmlns:ndjsontosvg="https://github.com/thompson318/ndjsontosvg"
	xmlns:quickdraw="https://quickdraw.withgoogle.com/data"
	xmlns:scikit-surgery="https://doi.org/10.1007/s11548-020-02180-5">

	<rect width="100%" height="100%" fill="white" />
	<path d = "M 269.53 325.78 L 220.31 328.12 L 192.19 323.44 L 180.47 314.06 L 168.75 290.62 L 164.06 225.00 L 173.44 189.84 L 187.50 159.38 L 220.31 142.97 L 269.53 154.69 L 328.12 194.53 L 342.19 222.66 L 342.19 239.06 L 328.12 271.88 L 248.44 328.12" stroke="black" fill="transparent"/>
	<path d = "M 213.28 250.78 L 232.03 267.19 L 255.47 257.81" stroke="black" fill="transparent"/>
	<path d = "M 227.34 201.56 L 227.34 201.56" stroke="black" fill="transparent"/>
	<path d = "M 276.56 201.56 L 276.56 201.56" stroke="black" fill="transparent"/>
	<path d = "M 227.34 203.91 L 227.34 203.91" stroke="black" fill="transparent"/>
	<path d = "M 243.75 206.25 L 243.75 206.25" stroke="black" fill="transparent"/>
	<path d = "M 225.00 225.00 L 220.31 203.91" stroke="black" fill="transparent"/>
	<path d = "M 260.16 194.53 L 260.16 201.56 L 276.56 171.09" stroke="black" fill="transparent"/>
	<path d = "M 135.94 206.25 L 98.44 292.97 L 91.41 358.59 L 91.41 321.09 L 110.16 229.69 L 119.53 185.16 L 133.59 164.06 L 145.31 157.03 L 150.00 178.12 L 96.09 332.81 L 107.81 278.91 L 126.56 241.41 L 187.50 140.62 L 112.50 255.47 L 89.06 318.75 L 107.81 269.53 L 178.12 171.09 L 246.09 110.16 L 264.84 103.12 L 283.59 107.81 L 321.09 159.38 L 337.50 217.97 L 356.25 316.41 L 356.25 391.41 L 339.84 365.62 L 356.25 157.03 L 325.78 133.59 L 290.62 91.41 L 255.47 77.34 L 208.59 86.72 L 117.19 138.28 L 96.09 168.75" stroke="black" fill="transparent"/>
	<path d = "M 37.50 63.28 L 14.06 321.09 L 11.72 407.81 L 35.16 494.53 L 67.97 550.78 L 82.03 555.47 L 229.69 569.53 L 391.41 597.66 L 454.69 588.28 L 475.78 574.22 L 414.84 426.56 L 396.09 227.34 L 356.25 60.94 L 339.84 23.44 L 297.66 2.34 L 227.34 0.00 L 110.16 18.75 L 0.00 53.91" stroke="black" fill="transparent"/>
</svg>