<?xml version="1.0" encoding="UTF-8" standalone="no"?>
<!--Created with ndjsontosvg (https:https://github.com/thompson318/ndjsontosvg) 
	from the simplified Google quickdraw data set. key_id = 5781201325391872-->
<svg width="600" height="600"
	xmlns="http://www.w3.org/2000/svg">
	xmlns:ndjsontosvg="https://github.com/thompson318/ndjsontosvg"
	xmlns:quickdraw="https://quickdraw.withgoogle.com/data"
	xmlns:scikit-surgery="https://doi.org/10.1007/s11548-020-02180-5">

	<rect width="100%" height="100%" fill="white" />
	<path d = "M 246.09 105.47 L 194.53 105.47 L 166.41 126.56 L 159.38 192.19 L 192.19 302.34 L 192.19 358.59 L 180.47 386.72 L 159.38 400.78 L 112.50 405.47 L 100.78 393.75 L 89.06 339.84" stroke="black" fill="transparent"/>
	<path d = "M 234.38 103.12 L 253.12 103.12 L 269.53 114.84 L 297.66 187.50 L 314.06 363.28 L 344.53 466.41 L 360.94 480.47 L 396.09 492.19 L 417.19 489.84 L 431.25 473.44" stroke="black" fill="transparent"/>
	<path d = "M 14.06 103.12 L 37.50 351.56 L 75.00 576.56 L 126.56 595.31 L 239.06 597.66 L 297.66 592.97 L 457.03 560.16 L 515.62 562.50 L 522.66 492.19 L 503.91 363.28 L 499.22 236.72 L 447.66 18.75 L 431.25 4.69 L 414.84 0.00 L 295.31 2.34 L 53.91 39.84 L 0.00 70.31" stroke="black" fill="transparent"/>
	<path d = "M 271.88 16.41 L 323.44 60.94 L 393.75 180.47 L 480.47 255.47 L 499.22 283.59" stroke="black" fill="transparent"/>
</svg>