<?xml version="1.0" encoding="UTF-8" standalone="no"?>
<!--Created with ndjsontosvg (https:https://github.com/thompson318/ndjsontosvg) 
	from the simplified Google quickdraw data set. key_id = 6727211946082304-->
<svg width="600" height="600"
	xmlns="http://www.w3.org/2000/svg">
	xmlns:ndjsontosvg="https://github.com/thompson318/ndjsontosvg"
	xmlns:quickdraw="https://quickdraw.withgoogle.com/data"
	xmlns:scikit-surgery="https://doi.org/10.1007/s11548-020-02180-5">

	<rect width="100%" height="100%" fill="white" />
	<path d = "M 2.34 91.41 L 9.38 243.75 L 35.16 503.91 L 51.56 567.19 L 79.69 581.25 L 121.88 588.28 L 295.31 571.88 L 550.78 569.53 L 571.88 154.69 L 557.81 93.75 L 527.34 46.88 L 487.50 21.09 L 438.28 7.03 L 210.94 0.00 L 107.81 32.81 L 32.81 77.34 L 30.47 84.38" stroke="black" fill="transparent"/>
	<path d = "M 213.28 562.50 L 180.47 517.97 L 171.09 426.56 L 194.53 337.50 L 203.91 321.09 L 220.31 314.06" stroke="black" fill="transparent"/>
	<path d = "M 403.12 597.66 L 426.56 459.38 L 426.56 386.72 L 417.19 367.97 L 393.75 353.91 L 300.00 335.16" stroke="black" fill="transparent"/>
	<path d = "M 201.56 321.09 L 201.56 283.59 L 232.03 213.28 L 253.12 199.22 L 292.97 199.22 L 311.72 227.34 L 318.75 278.91 L 311.72 300.00 L 281.25 332.81" stroke="black" fill="transparent"/>
	<path d = "M 304.69 192.19 L 330.47 189.84 L 358.59 215.62 L 367.97 281.25 L 370.31 365.62" stroke="black" fill="transparent"/>
	<path d = "M 290.62 199.22 L 321.09 208.59 L 349.22 243.75 L 358.59 288.28 L 356.25 335.16" stroke="black" fill="transparent"/>
	<path d = "M 295.31 232.03 L 337.50 229.69 L 370.31 250.78 L 391.41 297.66 L 393.75 349.22 L 386.72 351.56" stroke="black" fill="transparent"/>
	<path d = "M 269.53 201.56 L 257.81 194.53 L 213.28 192.19 L 182.81 210.94 L 166.41 246.09 L 166.41 307.03" stroke="black" fill="transparent"/>
</svg>