<?xml version="1.0" encoding="UTF-8" standalone="no"?>
<!--Created with ndjsontosvg (https:https://github.com/thompson318/ndjsontosvg) 
	from the simplified Google quickdraw data set. key_id = 5987929828622336-->
<svg width="600" height="600"
	xmlns="http://www.w3.org/2000/svg">
	xmlns:ndjsontosvg="https://github.com/thompson318/ndjsontosvg"
	xmlns:quickdraw="https://quickdraw.withgoogle.com/data"
	xmlns:scikit-surgery="https://doi.org/10.1007/s11548-020-02180-5">

	<rect width="100%" height="100%" fill="white" />
	<path d = "M 16.41 517.97 L 70.31 473.44 L 154.69 349.22 L 229.69 278.91 L 243.75 208.59 L 260.16 0.00 L 281.25 89.06 L 297.66 103.12 L 339.84 100.78 L 325.78 161.72 L 325.78 267.19 L 353.91 285.94 L 412.50 358.59 L 482.81 478.12 L 567.19 581.25 L 517.97 574.22 L 360.94 592.97 L 229.69 592.97 L 37.50 576.56 L 0.00 564.84 L 72.66 520.31 L 274.22 337.50 L 189.84 562.50" stroke="black" fill="transparent"/>
	<path d = "M 304.69 339.84 L 328.12 419.53 L 382.03 515.62 L 410.16 597.66" stroke="black" fill="transparent"/>
	<path d = "M 321.09 346.88 L 393.75 428.91 L 473.44 560.16" stroke="black" fill="transparent"/>
	<path d = "M 262.50 25.78 L 309.38 39.84 L 330.47 60.94 L 332.81 93.75" stroke="black" fill="transparent"/>
</svg>