<?xml version="1.0" encoding="UTF-8" standalone="no"?>
<!--Created with ndjsontosvg (https:https://github.com/thompson318/ndjsontosvg) 
	from the simplified Google quickdraw data set. key_id = 6185938625495040-->
<svg width="600" height="600"
	xmlns="http://www.w3.org/2000/svg">
	xmlns:ndjsontosvg="https://github.com/thompson318/ndjsontosvg"
	xmlns:quickdraw="https://quickdraw.withgoogle.com/data"
	xmlns:scikit-surgery="https://doi.org/10.1007/s11548-020-02180-5">

	<rect width="100%" height="100%" fill="white" />
	<path d = "M 157.03 417.19 L 154.69 489.84" stroke="black" fill="transparent"/>
	<path d = "M 264.84 433.59 L 260.16 435.94" stroke="black" fill="transparent"/>
	<path d = "M 239.06 421.88 L 227.34 489.84" stroke="black" fill="transparent"/>
	<path d = "M 281.25 417.19 L 278.91 426.56 L 285.94 440.62 L 321.09 461.72 L 363.28 457.03 L 440.62 426.56" stroke="black" fill="transparent"/>
	<path d = "M 464.06 424.22 L 454.69 506.25" stroke="black" fill="transparent"/>
	<path d = "M 517.97 417.19 L 515.62 464.06" stroke="black" fill="transparent"/>
	<path d = "M 142.97 405.47 L 114.84 389.06 L 110.16 274.22" stroke="black" fill="transparent"/>
	<path d = "M 220.31 262.50 L 227.34 253.12 L 295.31 236.72 L 412.50 225.00 L 480.47 227.34" stroke="black" fill="transparent"/>
	<path d = "M 459.38 215.62 L 482.81 203.91 L 506.25 175.78 L 541.41 51.56 L 562.50 11.72 L 581.25 0.00 L 592.97 2.34 L 597.66 37.50 L 588.28 110.16 L 569.53 138.28 L 499.22 210.94" stroke="black" fill="transparent"/>
	<path d = "M 496.88 229.69 L 515.62 297.66 L 513.28 428.91" stroke="black" fill="transparent"/>
	<path d = "M 332.81 222.66 L 297.66 358.59 L 269.53 421.88 L 278.91 435.94" stroke="black" fill="transparent"/>
	<path d = "M 400.78 248.44 L 346.88 382.03 L 325.78 450.00 L 328.12 464.06" stroke="black" fill="transparent"/>
	<path d = "M 433.59 234.38 L 424.22 292.97 L 386.72 407.81 L 386.72 438.28" stroke="black" fill="transparent"/>
	<path d = "M 468.75 239.06 L 419.53 452.34" stroke="black" fill="transparent"/>
	<path d = "M 276.56 260.16 L 250.78 389.06 L 255.47 400.78" stroke="black" fill="transparent"/>
	<path d = "M 196.88 248.44 L 185.16 246.09 L 110.16 189.84 L 42.19 171.09 L 14.06 189.84 L 0.00 215.62" stroke="black" fill="transparent"/>
	<path d = "M 37.50 178.12 L 51.56 89.06" stroke="black" fill="transparent"/>
</svg>