<?xml version="1.0" encoding="UTF-8" standalone="no"?>
<!--Created with ndjsontosvg (https:https://github.com/thompson318/ndjsontosvg) 
	from the simplified Google quickdraw data set. key_id = 4995946012213248-->
<svg width="600" height="600"
	xmlns="http://www.w3.org/2000/svg">
	xmlns:ndjsontosvg="https://github.com/thompson318/ndjsontosvg"
	xmlns:quickdraw="https://quickdraw.withgoogle.com/data"
	xmlns:scikit-surgery="https://doi.org/10.1007/s11548-020-02180-5">

	<rect width="100%" height="100%" fill="white" />
	<path d = "M 466.41 53.91 L 412.50 60.94 L 389.06 72.66 L 363.28 98.44 L 332.81 152.34 L 321.09 194.53 L 323.44 239.06 L 339.84 278.91 L 363.28 314.06 L 412.50 356.25 L 468.75 382.03 L 496.88 382.03 L 527.34 372.66 L 553.12 349.22 L 595.31 262.50 L 597.66 201.56 L 583.59 145.31 L 543.75 103.12 L 489.84 84.38 L 452.34 84.38 L 389.06 103.12" stroke="black" fill="transparent"/>
	<path d = "M 431.25 283.59 L 447.66 328.12 L 473.44 337.50 L 485.16 332.81 L 499.22 304.69 L 520.31 325.78 L 536.72 325.78 L 546.09 307.03 L 534.38 281.25" stroke="black" fill="transparent"/>
	<path d = "M 410.16 187.50 L 424.22 255.47" stroke="black" fill="transparent"/>
	<path d = "M 522.66 208.59 L 532.03 206.25 L 539.06 239.06" stroke="black" fill="transparent"/>
	<path d = "M 382.03 79.69 L 391.41 77.34 L 377.34 51.56 L 351.56 44.53 L 332.81 60.94 L 318.75 84.38 L 316.41 110.16 L 332.81 135.94 L 351.56 138.28 L 370.31 121.88" stroke="black" fill="transparent"/>
	<path d = "M 508.59 91.41 L 534.38 49.22 L 557.81 37.50 L 571.88 42.19 L 588.28 60.94 L 595.31 98.44 L 588.28 114.84 L 571.88 131.25 L 553.12 128.91" stroke="black" fill="transparent"/>
	<path d = "M 316.41 302.34 L 351.56 501.56 L 370.31 560.16" stroke="black" fill="transparent"/>
	<path d = "M 419.53 325.78 L 445.31 489.84 L 468.75 562.50" stroke="black" fill="transparent"/>
	<path d = "M 382.03 557.81 L 450.00 576.56 L 492.19 562.50" stroke="black" fill="transparent"/>
	<path d = "M 508.59 393.75 L 503.91 527.34" stroke="black" fill="transparent"/>
	<path d = "M 564.84 339.84 L 569.53 367.97 L 564.84 454.69 L 546.09 557.81" stroke="black" fill="transparent"/>
	<path d = "M 346.88 236.72 L 182.81 267.19 L 121.88 290.62" stroke="black" fill="transparent"/>
	<path d = "M 159.38 267.19 L 133.59 290.62 L 121.88 349.22 L 124.22 414.84 L 145.31 527.34" stroke="black" fill="transparent"/>
	<path d = "M 140.62 513.28 L 175.78 534.38 L 260.16 539.06 L 241.41 421.88 L 229.69 384.38 L 225.00 377.34 L 225.00 382.03" stroke="black" fill="transparent"/>
	<path d = "M 239.06 393.75 L 248.44 384.38 L 316.41 382.03" stroke="black" fill="transparent"/>
	<path d = "M 300.00 393.75 L 321.09 520.31 L 262.50 522.66 L 243.75 515.62" stroke="black" fill="transparent"/>
	<path d = "M 145.31 267.19 L 157.03 246.09 L 161.72 222.66 L 152.34 196.88 L 140.62 187.50 L 128.91 187.50 L 72.66 199.22 L 53.91 182.81 L 56.25 140.62 L 86.72 4.69 L 37.50 4.69 L 25.78 11.72 L 11.72 30.47 L 0.00 67.97 L 4.69 79.69 L 35.16 91.41 L 44.53 110.16 L 11.72 189.84 L 18.75 210.94 L 35.16 229.69 L 63.28 236.72 L 152.34 210.94 L 145.31 269.53" stroke="black" fill="transparent"/>
	<path d = "M 110.16 210.94 L 117.19 199.22 L 93.75 213.28 L 114.84 189.84 L 91.41 217.97 L 79.69 222.66" stroke="black" fill="transparent"/>
</svg>