<?xml version="1.0" encoding="UTF-8" standalone="no"?>
<!--Created with ndjsontosvg (https:https://github.com/thompson318/ndjsontosvg) 
	from the simplified Google quickdraw data set. key_id = 5874648405245952-->
<svg width="600" height="600"
	xmlns="http://www.w3.org/2000/svg">
	xmlns:ndjsontosvg="https://github.com/thompson318/ndjsontosvg"
	xmlns:quickdraw="https://quickdraw.withgoogle.com/data"
	xmlns:scikit-surgery="https://doi.org/10.1007/s11548-020-02180-5">

	<rect width="100%" height="100%" fill="white" />
	<path d = "M 110.16 84.38 L 84.38 82.03 L 28.12 105.47 L 4.69 131.25 L 2.34 150.00 L 2.34 187.50 L 35.16 246.09 L 53.91 260.16 L 93.75 269.53 L 147.66 248.44 L 164.06 229.69 L 185.16 199.22 L 189.84 157.03 L 171.09 110.16 L 138.28 89.06 L 77.34 72.66 L 63.28 79.69" stroke="black" fill="transparent"/>
	<path d = "M 150.00 199.22 L 243.75 164.06 L 307.03 157.03 L 421.88 161.72 L 478.12 175.78 L 550.78 206.25 L 588.28 236.72 L 597.66 274.22 L 574.22 318.75 L 562.50 330.47 L 489.84 363.28 L 431.25 372.66 L 358.59 370.31 L 236.72 337.50 L 100.78 255.47" stroke="black" fill="transparent"/>
	<path d = "M 161.72 288.28 L 138.28 440.62 L 194.53 431.25 L 222.66 339.84 L 234.38 421.88 L 250.78 461.72 L 260.16 461.72 L 271.88 450.00 L 321.09 379.69 L 344.53 464.06" stroke="black" fill="transparent"/>
	<path d = "M 351.56 471.09 L 346.88 468.75" stroke="black" fill="transparent"/>
	<path d = "M 356.25 468.75 L 372.66 452.34 L 393.75 412.50 L 412.50 365.62 L 424.22 445.31 L 445.31 464.06" stroke="black" fill="transparent"/>
	<path d = "M 452.34 468.75 L 452.34 468.75" stroke="black" fill="transparent"/>
	<path d = "M 452.34 468.75 L 480.47 435.94 L 501.56 382.03" stroke="black" fill="transparent"/>
	<path d = "M 18.75 96.09 L 9.38 0.00 L 79.69 89.06" stroke="black" fill="transparent"/>
	<path d = "M 135.94 96.09 L 187.50 18.75 L 194.53 28.12 L 194.53 121.88" stroke="black" fill="transparent"/>
	<path d = "M 58.59 142.97 L 58.59 140.62" stroke="black" fill="transparent"/>
	<path d = "M 119.53 124.22 L 121.88 128.91" stroke="black" fill="transparent"/>
	<path d = "M 105.47 168.75 L 35.16 180.47" stroke="black" fill="transparent"/>
	<path d = "M 100.78 166.41 L 145.31 159.38" stroke="black" fill="transparent"/>
	<path d = "M 100.78 178.12 L 58.59 206.25" stroke="black" fill="transparent"/>
	<path d = "M 91.41 173.44 L 161.72 182.81" stroke="black" fill="transparent"/>
</svg>