<?xml version="1.0" encoding="UTF-8" standalone="no"?>
<!--Created with ndjsontosvg (https:https://github.com/thompson318/ndjsontosvg) 
	from the simplified Google quickdraw data set. key_id = 5939135208488960-->
<svg width="600" height="600"
	xmlns="http://www.w3.org/2000/svg">
	xmlns:ndjsontosvg="https://github.com/thompson318/ndjsontosvg"
	xmlns:quickdraw="https://quickdraw.withgoogle.com/data"
	xmlns:scikit-surgery="https://doi.org/10.1007/s11548-020-02180-5">

	<rect width="100%" height="100%" fill="white" />
	<path d = "M 28.12 175.78 L 11.72 142.97 L 9.38 100.78 L 42.19 67.97 L 103.12 56.25 L 189.84 53.91 L 206.25 58.59 L 227.34 82.03 L 234.38 171.09 L 210.94 210.94 L 173.44 220.31 L 93.75 220.31 L 58.59 213.28 L 35.16 196.88" stroke="black" fill="transparent"/>
	<path d = "M 7.03 114.84 L 0.00 58.59 L 23.44 23.44 L 49.22 16.41 L 63.28 49.22" stroke="black" fill="transparent"/>
	<path d = "M 178.12 60.94 L 208.59 16.41 L 232.03 0.00 L 241.41 16.41 L 243.75 93.75" stroke="black" fill="transparent"/>
	<path d = "M 75.00 117.19 L 96.09 114.84" stroke="black" fill="transparent"/>
	<path d = "M 182.81 117.19 L 187.50 112.50" stroke="black" fill="transparent"/>
	<path d = "M 110.16 154.69 L 124.22 154.69" stroke="black" fill="transparent"/>
	<path d = "M 246.09 119.53 L 250.78 114.84 L 363.28 84.38 L 459.38 72.66 L 529.69 72.66 L 569.53 89.06 L 585.94 105.47 L 597.66 128.91 L 595.31 178.12 L 557.81 229.69 L 503.91 255.47 L 442.97 255.47 L 332.81 232.03 L 210.94 227.34" stroke="black" fill="transparent"/>
	<path d = "M 269.53 119.53 L 264.84 217.97" stroke="black" fill="transparent"/>
	<path d = "M 349.22 86.72 L 328.12 236.72" stroke="black" fill="transparent"/>
	<path d = "M 410.16 114.84 L 403.12 246.09" stroke="black" fill="transparent"/>
	<path d = "M 508.59 93.75 L 492.19 243.75" stroke="black" fill="transparent"/>
	<path d = "M 239.06 232.03 L 213.28 278.91 L 159.38 342.19" stroke="black" fill="transparent"/>
	<path d = "M 431.25 236.72 L 482.81 304.69" stroke="black" fill="transparent"/>
	<path d = "M 571.88 124.22 L 576.56 117.19" stroke="black" fill="transparent"/>
</svg>