<?xml version="1.0" encoding="UTF-8" standalone="no"?>
<!--Created with ndjsontosvg (https:https://github.com/thompson318/ndjsontosvg) 
	from the simplified Google quickdraw data set. key_id = 6711642085654528-->
<svg width="600" height="600"
	xmlns="http://www.w3.org/2000/svg">
	xmlns:ndjsontosvg="https://github.com/thompson318/ndjsontosvg"
	xmlns:quickdraw="https://quickdraw.withgoogle.com/data"
	xmlns:scikit-surgery="https://doi.org/10.1007/s11548-020-02180-5">

	<rect width="100%" height="100%" fill="white" />
	<path d = "M 342.19 157.03 L 321.09 131.25 L 307.03 124.22 L 210.94 121.88 L 150.00 154.69 L 114.84 199.22 L 103.12 227.34 L 98.44 330.47 L 114.84 363.28 L 138.28 389.06 L 203.91 433.59 L 283.59 438.28 L 316.41 433.59 L 339.84 417.19 L 356.25 393.75 L 372.66 344.53 L 375.00 234.38 L 356.25 185.16 L 325.78 135.94 L 302.34 124.22 L 264.84 124.22" stroke="black" fill="transparent"/>
	<path d = "M 105.47 157.03 L 70.31 84.38 L 53.91 0.00 L 117.19 44.53 L 187.50 117.19" stroke="black" fill="transparent"/>
	<path d = "M 285.94 91.41 L 367.97 30.47 L 398.44 18.75 L 405.47 32.81 L 403.12 67.97 L 377.34 135.94" stroke="black" fill="transparent"/>
	<path d = "M 159.38 297.66 L 142.97 285.94 L 21.09 271.88" stroke="black" fill="transparent"/>
	<path d = "M 182.81 330.47 L 91.41 321.09 L 16.41 321.09 L 14.06 325.78" stroke="black" fill="transparent"/>
	<path d = "M 175.78 346.88 L 117.19 356.25 L 0.00 393.75" stroke="black" fill="transparent"/>
	<path d = "M 323.44 290.62 L 433.59 281.25" stroke="black" fill="transparent"/>
	<path d = "M 307.03 318.75 L 417.19 328.12 L 421.88 342.19" stroke="black" fill="transparent"/>
	<path d = "M 353.91 360.94 L 464.06 375.00" stroke="black" fill="transparent"/>
	<path d = "M 192.19 283.59 L 194.53 360.94 L 236.72 297.66 L 248.44 292.97 L 292.97 386.72 L 292.97 325.78 L 304.69 274.22 L 314.06 264.84" stroke="black" fill="transparent"/>
	<path d = "M 161.72 267.19 L 323.44 267.19" stroke="black" fill="transparent"/>
	<path d = "M 201.56 178.12 L 201.56 178.12" stroke="black" fill="transparent"/>
	<path d = "M 262.50 171.09 L 262.50 171.09" stroke="black" fill="transparent"/>
	<path d = "M 206.25 206.25 L 201.56 201.56" stroke="black" fill="transparent"/>
	<path d = "M 295.31 192.19 L 295.31 192.19" stroke="black" fill="transparent"/>
	<path d = "M 435.94 236.72 L 597.66 262.50" stroke="black" fill="transparent"/>
</svg>