<?xml version="1.0" encoding="UTF-8" standalone="no"?>
<!--Created with ndjsontosvg (https:https://github.com/thompson318/ndjsontosvg) 
	from the simplified Google quickdraw data set. key_id = 6146482690326528-->
<svg width="600" height="600"
	xmlns="http://www.w3.org/2000/svg">
	xmlns:ndjsontosvg="https://github.com/thompson318/ndjsontosvg"
	xmlns:quickdraw="https://quickdraw.withgoogle.com/data"
	xmlns:scikit-surgery="https://doi.org/10.1007/s11548-020-02180-5">

	<rect width="100%" height="100%" fill="white" />
	<path d = "M 133.59 77.34 L 150.00 51.56 L 152.34 103.12" stroke="black" fill="transparent"/>
	<path d = "M 131.25 75.00 L 100.78 63.28 L 53.91 72.66 L 30.47 49.22 L 23.44 82.03 L 25.78 112.50 L 16.41 140.62 L 0.00 159.38 L 4.69 196.88 L 63.28 220.31 L 93.75 217.97 L 110.16 206.25 L 131.25 201.56 L 145.31 185.16 L 154.69 189.84 L 164.06 213.28 L 164.06 332.81 L 114.84 370.31 L 114.84 389.06 L 192.19 393.75 L 227.34 372.66 L 236.72 353.91 L 239.06 246.09 L 339.84 246.09 L 382.03 262.50 L 386.72 269.53 L 386.72 323.44 L 372.66 356.25 L 372.66 400.78 L 384.38 410.16 L 426.56 410.16 L 450.00 398.44 L 471.09 351.56 L 475.78 208.59 L 529.69 192.19 L 564.84 168.75 L 574.22 154.69 L 597.66 63.28 L 597.66 35.16 L 581.25 16.41 L 543.75 0.00 L 520.31 16.41 L 520.31 147.66 L 513.28 168.75 L 492.19 185.16 L 407.81 185.16 L 379.69 168.75 L 243.75 112.50 L 189.84 93.75 L 166.41 100.78" stroke="black" fill="transparent"/>
	<path d = "M 180.47 91.41 L 178.12 145.31" stroke="black" fill="transparent"/>
	<path d = "M 217.97 103.12 L 208.59 154.69" stroke="black" fill="transparent"/>
	<path d = "M 278.91 140.62 L 278.91 192.19" stroke="black" fill="transparent"/>
	<path d = "M 332.81 145.31 L 332.81 208.59" stroke="black" fill="transparent"/>
	<path d = "M 384.38 157.03 L 386.72 192.19" stroke="black" fill="transparent"/>
</svg>