<?xml version="1.0" encoding="UTF-8" standalone="no"?>
<!--Created with ndjsontosvg (https:https://github.com/thompson318/ndjsontosvg) 
	from the simplified Google quickdraw data set. key_id = 6382863043788800-->
<svg width="600" height="600"
	xmlns="http://www.w3.org/2000/svg">
	xmlns:ndjsontosvg="https://github.com/thompson318/ndjsontosvg"
	xmlns:quickdraw="https://quickdraw.withgoogle.com/data"
	xmlns:scikit-surgery="https://doi.org/10.1007/s11548-020-02180-5">

	<rect width="100%" height="100%" fill="white" />
	<path d = "M 318.75 110.16 L 131.25 107.81 L 0.00 145.31 L 46.88 234.38 L 84.38 377.34 L 100.78 396.09 L 250.78 370.31 L 464.06 365.62 L 592.97 384.38 L 597.66 372.66 L 590.62 269.53 L 522.66 70.31 L 457.03 103.12 L 285.94 103.12" stroke="black" fill="transparent"/>
	<path d = "M 2.34 126.56 L 21.09 30.47 L 152.34 0.00 L 325.78 0.00 L 482.81 21.09 L 515.62 60.94" stroke="black" fill="transparent"/>
	<path d = "M 431.25 56.25 L 300.00 39.84 L 110.16 65.62 L 103.12 75.00 L 131.25 82.03 L 203.91 79.69 L 248.44 89.06 L 396.09 79.69 L 414.84 70.31 L 440.62 65.62" stroke="black" fill="transparent"/>
</svg>