<?xml version="1.0" encoding="UTF-8" standalone="no"?>
<!--Created with ndjsontosvg (https:https://github.com/thompson318/ndjsontosvg) 
	from the simplified Google quickdraw data set. key_id = 4748898407022592-->
<svg width="600" height="600"
	xmlns="http://www.w3.org/2000/svg">
	xmlns:ndjsontosvg="https://github.com/thompson318/ndjsontosvg"
	xmlns:quickdraw="https://quickdraw.withgoogle.com/data"
	xmlns:scikit-surgery="https://doi.org/10.1007/s11548-020-02180-5">

	<rect width="100%" height="100%" fill="white" />
	<path d = "M 112.50 105.47 L 234.38 166.41 L 412.50 288.28 L 426.56 311.72 L 417.19 323.44 L 375.00 325.78 L 332.81 316.41 L 192.19 196.88 L 72.66 124.22 L 63.28 112.50 L 67.97 103.12 L 93.75 96.09" stroke="black" fill="transparent"/>
	<path d = "M 196.88 49.22 L 229.69 39.84 L 262.50 39.84 L 466.41 201.56 L 496.88 250.78 L 489.84 262.50 L 478.12 264.84 L 412.50 232.03 L 271.88 100.78 L 185.16 56.25 L 196.88 37.50" stroke="black" fill="transparent"/>
	<path d = "M 248.44 0.00 L 89.06 44.53 L 28.12 84.38 L 14.06 96.09 L 9.38 119.53 L 51.56 178.12 L 206.25 307.03 L 274.22 353.91 L 337.50 384.38 L 375.00 386.72 L 426.56 365.62 L 562.50 278.91 L 597.66 229.69 L 576.56 199.22 L 393.75 89.06 L 318.75 28.12 L 285.94 14.06 L 239.06 7.03" stroke="black" fill="transparent"/>
	<path d = "M 4.69 93.75 L 0.00 255.47 L 14.06 393.75 L 53.91 487.50 L 91.41 520.31 L 128.91 539.06 L 236.72 557.81 L 360.94 592.97 L 398.44 588.28 L 452.34 557.81 L 534.38 492.19 L 571.88 442.97 L 576.56 314.06 L 588.28 255.47" stroke="black" fill="transparent"/>
	<path d = "M 358.59 389.06 L 358.59 438.28 L 330.47 576.56" stroke="black" fill="transparent"/>
	<path d = "M 400.78 438.28 L 428.91 424.22 L 445.31 426.56 L 445.31 445.31 L 424.22 457.03 L 384.38 454.69 L 382.03 450.00 L 398.44 433.59" stroke="black" fill="transparent"/>
</svg>