<?xml version="1.0" encoding="UTF-8" standalone="no"?>
<!--Created with ndjsontosvg (https:https://github.com/thompson318/ndjsontosvg) 
	from the simplified Google quickdraw data set. key_id = 5970554488094720-->
<svg width="600" height="600"
	xmlns="http://www.w3.org/2000/svg">
	xmlns:ndjsontosvg="https://github.com/thompson318/ndjsontosvg"
	xmlns:quickdraw="https://quickdraw.withgoogle.com/data"
	xmlns:scikit-surgery="https://doi.org/10.1007/s11548-020-02180-5">

	<rect width="100%" height="100%" fill="white" />
	<path d = "M 60.94 133.59 L 63.28 164.06 L 42.19 262.50 L 28.12 445.31 L 213.28 442.97 L 440.62 478.12 L 508.59 471.09 L 595.31 445.31 L 576.56 260.16 L 590.62 210.94 L 588.28 159.38 L 571.88 140.62 L 527.34 119.53 L 363.28 89.06 L 276.56 89.06 L 208.59 103.12 L 133.59 105.47 L 100.78 119.53 L 75.00 157.03" stroke="black" fill="transparent"/>
	<path d = "M 147.66 96.09 L 152.34 25.78 L 161.72 18.75 L 311.72 4.69 L 438.28 0.00 L 468.75 4.69 L 506.25 30.47 L 522.66 124.22" stroke="black" fill="transparent"/>
	<path d = "M 60.94 225.00 L 2.34 225.00 L 28.12 217.97" stroke="black" fill="transparent"/>
</svg>