<?xml version="1.0" encoding="UTF-8" standalone="no"?>
<!--Created with ndjsontosvg (https:https://github.com/thompson318/ndjsontosvg) 
	from the simplified Google quickdraw data set. key_id = 6465950477975552-->
<svg width="600" height="600"
	xmlns="http://www.w3.org/2000/svg">
	xmlns:ndjsontosvg="https://github.com/thompson318/ndjsontosvg"
	xmlns:quickdraw="https://quickdraw.withgoogle.com/data"
	xmlns:scikit-surgery="https://doi.org/10.1007/s11548-020-02180-5">

	<rect width="100%" height="100%" fill="white" />
	<path d = "M 23.44 379.69 L 49.22 342.19 L 77.34 196.88 L 103.12 103.12 L 142.97 32.81 L 168.75 9.38 L 192.19 0.00 L 229.69 7.03 L 234.38 65.62 L 248.44 42.19 L 288.28 28.12 L 300.00 30.47 L 309.38 42.19 L 311.72 79.69 L 344.53 58.59 L 375.00 53.91 L 386.72 60.94 L 393.75 98.44 L 433.59 93.75 L 450.00 103.12 L 450.00 140.62 L 468.75 164.06 L 466.41 189.84 L 407.81 283.59 L 375.00 379.69" stroke="black" fill="transparent"/>
	<path d = "M 16.41 412.50 L 2.34 440.62 L 0.00 517.97" stroke="black" fill="transparent"/>
	<path d = "M 398.44 405.47 L 398.44 454.69 L 382.03 515.62 L 360.94 562.50 L 323.44 597.66" stroke="black" fill="transparent"/>
	<path d = "M 157.03 56.25 L 159.38 42.19 L 196.88 32.81 L 210.94 39.84 L 217.97 70.31 L 206.25 82.03 L 150.00 84.38" stroke="black" fill="transparent"/>
	<path d = "M 250.78 65.62 L 281.25 63.28 L 290.62 77.34 L 260.16 86.72 L 248.44 84.38 L 248.44 70.31" stroke="black" fill="transparent"/>
	<path d = "M 342.19 60.94 L 365.62 77.34 L 342.19 91.41 L 335.16 70.31" stroke="black" fill="transparent"/>
	<path d = "M 428.91 110.16 L 452.34 117.19 L 433.59 124.22 L 407.81 124.22 L 400.78 117.19" stroke="black" fill="transparent"/>
	<path d = "M 431.25 171.09 L 457.03 168.75" stroke="black" fill="transparent"/>
</svg>