<?xml version="1.0" encoding="UTF-8" standalone="no"?>
<!--Created with ndjsontosvg (https:https://github.com/thompson318/ndjsontosvg) 
	from the simplified Google quickdraw data set. key_id = 6303596989644800-->
<svg width="600" height="600"
	xmlns="http://www.w3.org/2000/svg">
	xmlns:ndjsontosvg="https://github.com/thompson318/ndjsontosvg"
	xmlns:quickdraw="https://quickdraw.withgoogle.com/data"
	xmlns:scikit-surgery="https://doi.org/10.1007/s11548-020-02180-5">

	<rect width="100%" height="100%" fill="white" />
	<path d = "M 56.25 269.53 L 37.50 295.31 L 2.34 403.12 L 0.00 487.50 L 9.38 515.62 L 32.81 553.12 L 67.97 576.56 L 133.59 595.31 L 196.88 597.66 L 232.03 588.28 L 264.84 567.19 L 300.00 532.03 L 321.09 501.56 L 351.56 372.66 L 356.25 246.09" stroke="black" fill="transparent"/>
	<path d = "M 93.75 353.91 L 75.00 501.56 L 96.09 527.34 L 128.91 539.06 L 180.47 534.38 L 217.97 508.59 L 255.47 461.72 L 262.50 431.25 L 257.81 377.34 L 232.03 353.91 L 187.50 328.12 L 159.38 318.75 L 105.47 316.41 L 103.12 349.22 L 86.72 372.66" stroke="black" fill="transparent"/>
	<path d = "M 32.81 274.22 L 65.62 234.38 L 82.03 199.22 L 96.09 103.12 L 112.50 53.91 L 131.25 23.44 L 154.69 9.38 L 178.12 0.00 L 246.09 0.00 L 269.53 11.72 L 292.97 35.16 L 339.84 121.88 L 367.97 257.81 L 321.09 253.12 L 255.47 264.84 L 168.75 264.84 L 72.66 253.12" stroke="black" fill="transparent"/>
</svg>