<?xml version="1.0" encoding="UTF-8" standalone="no"?>
<!--Created with ndjsontosvg (https:https://github.com/thompson318/ndjsontosvg) 
	from the simplified Google quickdraw data set. key_id = 6135035381940224-->
<svg width="600" height="600"
	xmlns="http://www.w3.org/2000/svg">
	xmlns:ndjsontosvg="https://github.com/thompson318/ndjsontosvg"
	xmlns:quickdraw="https://quickdraw.withgoogle.com/data"
	xmlns:scikit-surgery="https://doi.org/10.1007/s11548-020-02180-5">

	<rect width="100%" height="100%" fill="white" />
	<path d = "M 28.12 271.88 L 39.84 185.16 L 21.09 79.69 L 9.38 35.16 L 0.00 25.78" stroke="black" fill="transparent"/>
	<path d = "M 18.75 23.44 L 86.72 25.78 L 236.72 0.00 L 253.12 4.69 L 257.81 16.41" stroke="black" fill="transparent"/>
	<path d = "M 271.88 9.38 L 243.75 114.84 L 239.06 166.41 L 241.41 239.06 L 255.47 283.59" stroke="black" fill="transparent"/>
	<path d = "M 37.50 271.88 L 37.50 323.44 L 63.28 396.09 L 107.81 426.56 L 173.44 428.91 L 217.97 410.16 L 239.06 393.75 L 260.16 349.22 L 255.47 311.72 L 241.41 292.97 L 213.28 267.19 L 187.50 257.81 L 135.94 260.16 L 84.38 269.53 L 72.66 262.50" stroke="black" fill="transparent"/>
	<path d = "M 25.78 304.69 L 49.22 452.34" stroke="black" fill="transparent"/>
	<path d = "M 267.19 356.25 L 180.47 508.59" stroke="black" fill="transparent"/>
	<path d = "M 51.56 454.69 L 70.31 487.50 L 77.34 532.03 L 70.31 567.19 L 63.28 578.91 L 56.25 574.22" stroke="black" fill="transparent"/>
	<path d = "M 178.12 499.22 L 173.44 527.34 L 178.12 562.50 L 189.84 585.94 L 201.56 592.97" stroke="black" fill="transparent"/>
	<path d = "M 65.62 597.66 L 213.28 588.28" stroke="black" fill="transparent"/>
	<path d = "M 44.53 75.00 L 63.28 84.38 L 35.16 82.03 L 46.88 84.38 L 65.62 75.00" stroke="black" fill="transparent"/>
</svg>