<?xml version="1.0" encoding="UTF-8" standalone="no"?>
<!--Created with ndjsontosvg (https:https://github.com/thompson318/ndjsontosvg) 
	from the simplified Google quickdraw data set. key_id = 4850961057054720-->
<svg width="600" height="600"
	xmlns="http://www.w3.org/2000/svg">
	xmlns:ndjsontosvg="https://github.com/thompson318/ndjsontosvg"
	xmlns:quickdraw="https://quickdraw.withgoogle.com/data"
	xmlns:scikit-surgery="https://doi.org/10.1007/s11548-020-02180-5">

	<rect width="100%" height="100%" fill="white" />
	<path d = "M 325.78 112.50 L 323.44 217.97 L 335.16 349.22 L 335.16 597.66" stroke="black" fill="transparent"/>
	<path d = "M 339.84 403.12 L 274.22 412.50 L 117.19 403.12 L 89.06 346.88 L 7.03 281.25 L 0.00 267.19 L 0.00 241.41 L 16.41 232.03 L 150.00 227.34 L 194.53 210.94 L 323.44 201.56" stroke="black" fill="transparent"/>
	<path d = "M 321.09 140.62 L 325.78 56.25 L 316.41 0.00" stroke="black" fill="transparent"/>
	<path d = "M 75.00 222.66 L 89.06 243.75 L 180.47 314.06 L 236.72 323.44 L 255.47 307.03 L 257.81 255.47 L 234.38 227.34 L 187.50 210.94" stroke="black" fill="transparent"/>
	<path d = "M 257.81 269.53 L 262.50 283.59 L 309.38 300.00 L 452.34 325.78" stroke="black" fill="transparent"/>
</svg>