<?xml version="1.0" encoding="UTF-8" standalone="no"?>
<!--Created with ndjsontosvg (https:https://github.com/thompson318/ndjsontosvg) 
	from the simplified Google quickdraw data set. key_id = 5740963911696384-->
<svg width="600" height="600"
	xmlns="http://www.w3.org/2000/svg">
	xmlns:ndjsontosvg="https://github.com/thompson318/ndjsontosvg"
	xmlns:quickdraw="https://quickdraw.withgoogle.com/data"
	xmlns:scikit-surgery="https://doi.org/10.1007/s11548-020-02180-5">

	<rect width="100%" height="100%" fill="white" />
	<path d = "M 35.16 302.34 L 25.78 292.97 L 23.44 232.03 L 30.47 145.31 L 53.91 72.66 L 100.78 7.03 L 138.28 0.00 L 175.78 4.69 L 248.44 44.53 L 264.84 77.34 L 269.53 166.41" stroke="black" fill="transparent"/>
	<path d = "M 49.22 314.06 L 39.84 328.12 L 32.81 435.94 L 7.03 513.28 L 9.38 560.16 L 21.09 592.97 L 35.16 597.66 L 84.38 583.59 L 107.81 590.62 L 182.81 578.91 L 229.69 517.97 L 236.72 459.38 L 217.97 405.47 L 217.97 384.38 L 232.03 339.84 L 264.84 283.59 L 283.59 232.03 L 276.56 192.19 L 260.16 157.03 L 248.44 157.03" stroke="black" fill="transparent"/>
	<path d = "M 75.00 337.50 L 65.62 346.88 L 65.62 384.38 L 75.00 410.16 L 91.41 421.88 L 124.22 433.59 L 173.44 438.28 L 210.94 435.94 L 234.38 424.22 L 255.47 367.97 L 232.03 292.97 L 180.47 243.75 L 135.94 236.72 L 138.28 262.50" stroke="black" fill="transparent"/>
	<path d = "M 189.84 337.50 L 168.75 304.69 L 150.00 288.28 L 112.50 288.28 L 28.12 323.44 L 0.00 358.59 L 37.50 396.09 L 82.03 410.16 L 135.94 417.19 L 178.12 405.47 L 201.56 389.06 L 199.22 337.50 L 180.47 309.38 L 152.34 292.97 L 112.50 290.62 L 67.97 300.00 L 37.50 318.75 L 32.81 351.56 L 44.53 386.72 L 82.03 417.19 L 119.53 428.91 L 164.06 419.53 L 194.53 393.75 L 203.91 344.53 L 194.53 300.00 L 171.09 290.62 L 150.00 297.66 L 96.09 389.06 L 96.09 414.84 L 114.84 424.22 L 185.16 398.44 L 262.50 339.84 L 295.31 267.19 L 278.91 225.00 L 213.28 208.59" stroke="black" fill="transparent"/>
	<path d = "M 105.47 349.22 L 121.88 379.69 L 140.62 382.03" stroke="black" fill="transparent"/>
</svg>