<?xml version="1.0" encoding="UTF-8" standalone="no"?>
<!--Created with ndjsontosvg (https:https://github.com/thompson318/ndjsontosvg) 
	from the simplified Google quickdraw data set. key_id = 6628196948639744-->
<svg width="600" height="600"
	xmlns="http://www.w3.org/2000/svg">
	xmlns:ndjsontosvg="https://github.com/thompson318/ndjsontosvg"
	xmlns:quickdraw="https://quickdraw.withgoogle.com/data"
	xmlns:scikit-surgery="https://doi.org/10.1007/s11548-020-02180-5">

	<rect width="100%" height="100%" fill="white" />
	<path d = "M 100.78 32.81 L 117.19 119.53 L 117.19 363.28 L 124.22 370.31 L 145.31 370.31 L 229.69 353.91 L 311.72 349.22 L 328.12 168.75 L 353.91 103.12 L 353.91 7.03 L 328.12 0.00 L 133.59 0.00 L 82.03 16.41 L 60.94 35.16" stroke="black" fill="transparent"/>
	<path d = "M 117.19 86.72 L 182.81 105.47 L 365.62 93.75" stroke="black" fill="transparent"/>
	<path d = "M 119.53 363.28 L 119.53 372.66 L 152.34 412.50 L 154.69 435.94 L 138.28 480.47 L 138.28 506.25 L 100.78 585.94 L 89.06 597.66 L 0.00 595.31" stroke="black" fill="transparent"/>
	<path d = "M 304.69 344.53 L 225.00 541.41" stroke="black" fill="transparent"/>
</svg>