<?xml version="1.0" encoding="UTF-8" standalone="no"?>
<!--Created with ndjsontosvg (https:https://github.com/thompson318/ndjsontosvg) 
	from the simplified Google quickdraw data set. key_id = 6232432116236288-->
<svg width="600" height="600"
	xmlns="http://www.w3.org/2000/svg">
	xmlns:ndjsontosvg="https://github.com/thompson318/ndjsontosvg"
	xmlns:quickdraw="https://quickdraw.withgoogle.com/data"
	xmlns:scikit-surgery="https://doi.org/10.1007/s11548-020-02180-5">

	<rect width="100%" height="100%" fill="white" />
	<path d = "M 0.00 201.56 L 342.19 147.66 L 461.72 117.19 L 590.62 72.66 L 595.31 121.88 L 428.91 157.03 L 330.47 189.84 L 164.06 206.25 L 16.41 234.38 L 11.72 199.22 L 23.44 168.75 L 65.62 171.09" stroke="black" fill="transparent"/>
	<path d = "M 461.72 124.22 L 457.03 18.75 L 471.09 96.09 L 480.47 51.56 L 489.84 82.03 L 496.88 72.66 L 499.22 42.19 L 503.91 60.94 L 513.28 60.94 L 515.62 32.81 L 527.34 84.38 L 543.75 100.78 L 553.12 98.44 L 560.16 75.00 L 557.81 7.03 L 553.12 46.88 L 562.50 51.56 L 583.59 0.00 L 583.59 51.56 L 581.25 16.41 L 571.88 18.75 L 564.84 30.47 L 555.47 67.97 L 546.09 32.81 L 522.66 103.12 L 525.00 51.56 L 517.97 70.31 L 517.97 39.84 L 513.28 30.47 L 508.59 39.84" stroke="black" fill="transparent"/>
</svg>