<?xml version="1.0" encoding="UTF-8" standalone="no"?>
<!--Created with ndjsontosvg (https:https://github.com/thompson318/ndjsontosvg) 
	from the simplified Google quickdraw data set. key_id = 6031653874958336-->
<svg width="600" height="600"
	xmlns="http://www.w3.org/2000/svg">
	xmlns:ndjsontosvg="https://github.com/thompson318/ndjsontosvg"
	xmlns:quickdraw="https://quickdraw.withgoogle.com/data"
	xmlns:scikit-surgery="https://doi.org/10.1007/s11548-020-02180-5">

	<rect width="100%" height="100%" fill="white" />
	<path d = "M 288.28 267.19 L 267.19 250.78 L 262.50 267.19 L 339.84 335.16" stroke="black" fill="transparent"/>
	<path d = "M 253.12 274.22 L 236.72 281.25 L 199.22 321.09 L 0.00 454.69 L 82.03 543.75 L 264.84 424.22 L 356.25 346.88" stroke="black" fill="transparent"/>
	<path d = "M 260.16 297.66 L 292.97 276.56 L 307.03 250.78 L 330.47 232.03 L 398.44 262.50 L 386.72 283.59 L 342.19 309.38" stroke="black" fill="transparent"/>
	<path d = "M 367.97 220.31 L 372.66 161.72 L 353.91 119.53 L 370.31 96.09 L 433.59 46.88 L 428.91 121.88 L 459.38 100.78 L 534.38 18.75 L 564.84 2.34 L 597.66 0.00" stroke="black" fill="transparent"/>
</svg>