<?xml version="1.0" encoding="UTF-8" standalone="no"?>
<!--Created with ndjsontosvg (https:https://github.com/thompson318/ndjsontosvg) 
	from the simplified Google quickdraw data set. key_id = 4820153940312064-->
<svg width="600" height="600"
	xmlns="http://www.w3.org/2000/svg">
	xmlns:ndjsontosvg="https://github.com/thompson318/ndjsontosvg"
	xmlns:quickdraw="https://quickdraw.withgoogle.com/data"
	xmlns:scikit-surgery="https://doi.org/10.1007/s11548-020-02180-5">

	<rect width="100%" height="100%" fill="white" />
	<path d = "M 28.12 14.06 L 4.69 91.41 L 0.00 140.62 L 7.03 142.97 L 11.72 133.59 L 42.19 46.88 L 44.53 11.72 L 23.44 0.00" stroke="black" fill="transparent"/>
	<path d = "M 30.47 0.00 L 164.06 16.41" stroke="black" fill="transparent"/>
	<path d = "M 25.78 126.56 L 67.97 138.28 L 138.28 142.97 L 168.75 86.72 L 192.19 4.69" stroke="black" fill="transparent"/>
	<path d = "M 194.53 14.06 L 292.97 7.03 L 597.66 23.44 L 576.56 114.84 L 569.53 201.56 L 529.69 206.25 L 152.34 131.25" stroke="black" fill="transparent"/>
	<path d = "M 532.03 30.47 L 527.34 189.84" stroke="black" fill="transparent"/>
	<path d = "M 532.03 35.16 L 567.19 44.53" stroke="black" fill="transparent"/>
	<path d = "M 543.75 70.31 L 571.88 75.00" stroke="black" fill="transparent"/>
	<path d = "M 532.03 114.84 L 560.16 126.56" stroke="black" fill="transparent"/>
	<path d = "M 539.06 173.44 L 564.84 178.12" stroke="black" fill="transparent"/>
	<path d = "M 539.06 206.25 L 567.19 208.59" stroke="black" fill="transparent"/>
</svg>