<?xml version="1.0" encoding="UTF-8" standalone="no"?>
<!--Created with ndjsontosvg (https:https://github.com/thompson318/ndjsontosvg) 
	from the simplified Google quickdraw data set. key_id = 5797121749942272-->
<svg width="600" height="600"
	xmlns="http://www.w3.org/2000/svg">
	xmlns:ndjsontosvg="https://github.com/thompson318/ndjsontosvg"
	xmlns:quickdraw="https://quickdraw.withgoogle.com/data"
	xmlns:scikit-surgery="https://doi.org/10.1007/s11548-020-02180-5">

	<rect width="100%" height="100%" fill="white" />
	<path d = "M 478.12 4.69 L 468.75 23.44 L 466.41 72.66 L 492.19 89.06 L 525.00 93.75 L 564.84 65.62 L 569.53 32.81 L 550.78 11.72 L 508.59 0.00 L 499.22 4.69 L 494.53 16.41" stroke="black" fill="transparent"/>
	<path d = "M 412.50 0.00 L 454.69 42.19 L 513.28 121.88 L 550.78 154.69" stroke="black" fill="transparent"/>
	<path d = "M 419.53 16.41 L 339.84 79.69 L 152.34 260.16 L 65.62 328.12 L 0.00 414.84 L 103.12 546.09 L 124.22 548.44 L 180.47 525.00 L 311.72 438.28 L 431.25 349.22 L 517.97 260.16 L 557.81 208.59 L 597.66 131.25 L 557.81 131.25" stroke="black" fill="transparent"/>
</svg>