<?xml version="1.0" encoding="UTF-8" standalone="no"?>
<!--Created with ndjsontosvg (https:https://github.com/thompson318/ndjsontosvg) 
	from the simplified Google quickdraw data set. key_id = 4566106020773888-->
<svg width="600" height="600"
	xmlns="http://www.w3.org/2000/svg">
	xmlns:ndjsontosvg="https://github.com/thompson318/ndjsontosvg"
	xmlns:quickdraw="https://quickdraw.withgoogle.com/data"
	xmlns:scikit-surgery="https://doi.org/10.1007/s11548-020-02180-5">

	<rect width="100%" height="100%" fill="white" />
	<path d = "M 302.34 89.06 L 271.88 91.41 L 255.47 114.84 L 253.12 168.75 L 269.53 187.50 L 241.41 206.25 L 215.62 206.25 L 203.91 192.19 L 206.25 201.56 L 239.06 232.03 L 269.53 232.03 L 292.97 220.31 L 318.75 173.44 L 300.00 138.28 L 302.34 121.88 L 314.06 114.84" stroke="black" fill="transparent"/>
	<path d = "M 285.94 70.31 L 311.72 107.81 L 330.47 114.84 L 330.47 91.41 L 295.31 65.62 L 283.59 70.31" stroke="black" fill="transparent"/>
	<path d = "M 292.97 70.31 L 335.16 23.44 L 389.06 0.00 L 454.69 2.34 L 555.47 35.16 L 578.91 35.16 L 595.31 23.44 L 583.59 103.12 L 527.34 126.56 L 499.22 128.91 L 389.06 98.44 L 328.12 96.09" stroke="black" fill="transparent"/>
	<path d = "M 161.72 210.94 L 335.16 213.28 L 323.44 274.22 L 241.41 276.56 L 192.19 264.84 L 175.78 248.44 L 161.72 206.25" stroke="black" fill="transparent"/>
	<path d = "M 175.78 243.75 L 0.00 243.75 L 16.41 250.78 L 25.78 290.62 L 112.50 278.91 L 295.31 283.59 L 337.50 271.88 L 332.81 267.19" stroke="black" fill="transparent"/>
</svg>