<?xml version="1.0" encoding="UTF-8" standalone="no"?>
<!--Created with ndjsontosvg (https:https://github.com/thompson318/ndjsontosvg) 
	from the simplified Google quickdraw data set. key_id = 5589679170650112-->
<svg width="600" height="600"
	xmlns="http://www.w3.org/2000/svg">
	xmlns:ndjsontosvg="https://github.com/thompson318/ndjsontosvg"
	xmlns:quickdraw="https://quickdraw.withgoogle.com/data"
	xmlns:scikit-surgery="https://doi.org/10.1007/s11548-020-02180-5">

	<rect width="100%" height="100%" fill="white" />
	<path d = "M 300.00 110.16 L 295.31 131.25 L 278.91 157.03 L 180.47 269.53 L 91.41 398.44 L 0.00 482.81 L 2.34 494.53 L 39.84 515.62 L 253.12 590.62 L 264.84 583.59 L 332.81 487.50 L 384.38 386.72 L 433.59 309.38 L 503.91 133.59" stroke="black" fill="transparent"/>
	<path d = "M 325.78 91.41 L 325.78 91.41" stroke="black" fill="transparent"/>
	<path d = "M 281.25 138.28 L 377.34 60.94 L 440.62 98.44 L 520.31 105.47" stroke="black" fill="transparent"/>
	<path d = "M 363.28 51.56 L 433.59 28.12 L 468.75 0.00 L 595.31 25.78 L 592.97 42.19 L 496.88 98.44" stroke="black" fill="transparent"/>
	<path d = "M 503.91 32.81 L 459.38 65.62 L 435.94 75.00" stroke="black" fill="transparent"/>
	<path d = "M 503.91 51.56 L 468.75 86.72" stroke="black" fill="transparent"/>
</svg>