<?xml version="1.0" encoding="UTF-8" standalone="no"?>
<!--Created with ndjsontosvg (https:https://github.com/thompson318/ndjsontosvg) 
	from the simplified Google quickdraw data set. key_id = 6680578097152000-->
<svg width="600" height="600"
	xmlns="http://www.w3.org/2000/svg">
	xmlns:ndjsontosvg="https://github.com/thompson318/ndjsontosvg"
	xmlns:quickdraw="https://quickdraw.withgoogle.com/data"
	xmlns:scikit-surgery="https://doi.org/10.1007/s11548-020-02180-5">

	<rect width="100%" height="100%" fill="white" />
	<path d = "M 121.88 553.12 L 49.22 391.41 L 4.69 232.03 L 0.00 67.97 L 16.41 37.50 L 42.19 14.06 L 89.06 0.00 L 121.88 0.00 L 154.69 28.12 L 171.09 58.59 L 222.66 159.38 L 234.38 208.59 L 253.12 96.09 L 297.66 18.75 L 325.78 9.38 L 353.91 18.75 L 393.75 89.06 L 403.12 135.94 L 403.12 203.91 L 353.91 353.91 L 335.16 433.59 L 339.84 592.97 L 302.34 525.00 L 267.19 398.44 L 253.12 485.16 L 199.22 592.97 L 175.78 597.66 L 131.25 529.69 L 98.44 496.88" stroke="black" fill="transparent"/>
</svg>