<?xml version="1.0" encoding="UTF-8" standalone="no"?>
<!--Created with ndjsontosvg (https:https://github.com/thompson318/ndjsontosvg) 
	from the simplified Google quickdraw data set. key_id = 5299029304934400-->
<svg width="600" height="600"
	xmlns="http://www.w3.org/2000/svg">
	xmlns:ndjsontosvg="https://github.com/thompson318/ndjsontosvg"
	xmlns:quickdraw="https://quickdraw.withgoogle.com/data"
	xmlns:scikit-surgery="https://doi.org/10.1007/s11548-020-02180-5">

	<rect width="100%" height="100%" fill="white" />
	<path d = "M 84.38 21.09 L 86.72 67.97 L 70.31 234.38 L 21.09 452.34 L 0.00 592.97 L 11.72 571.88" stroke="black" fill="transparent"/>
	<path d = "M 96.09 14.06 L 150.00 18.75 L 157.03 25.78 L 152.34 58.59 L 58.59 391.41 L 37.50 541.41 L 7.03 571.88 L 11.72 557.81" stroke="black" fill="transparent"/>
	<path d = "M 147.66 11.72 L 232.03 18.75 L 199.22 56.25 L 236.72 56.25 L 234.38 63.28 L 196.88 82.03 L 276.56 89.06 L 302.34 103.12 L 189.84 140.62 L 246.09 142.97 L 246.09 147.66 L 145.31 187.50 L 217.97 194.53 L 225.00 201.56 L 166.41 232.03 L 138.28 236.72 L 152.34 178.12 L 150.00 133.59 L 173.44 60.94 L 171.09 37.50 L 154.69 25.78 L 142.97 53.91 L 133.59 112.50 L 93.75 241.41 L 96.09 248.44 L 142.97 213.28 L 152.34 222.66 L 213.28 213.28 L 349.22 173.44 L 260.16 152.34 L 276.56 131.25 L 365.62 77.34 L 276.56 63.28 L 325.78 28.12 L 243.75 28.12 L 241.41 23.44 L 271.88 2.34 L 264.84 0.00 L 203.91 7.03" stroke="black" fill="transparent"/>
</svg>