<?xml version="1.0" encoding="UTF-8" standalone="no"?>
<!--Created with ndjsontosvg (https:https://github.com/thompson318/ndjsontosvg) 
	from the simplified Google quickdraw data set. key_id = 6411074171568128-->
<svg width="600" height="600"
	xmlns="http://www.w3.org/2000/svg">
	xmlns:ndjsontosvg="https://github.com/thompson318/ndjsontosvg"
	xmlns:quickdraw="https://quickdraw.withgoogle.com/data"
	xmlns:scikit-surgery="https://doi.org/10.1007/s11548-020-02180-5">

	<rect width="100%" height="100%" fill="white" />
	<path d = "M 386.72 583.59 L 349.22 583.59 L 278.91 553.12 L 264.84 541.41 L 264.84 513.28 L 295.31 478.12 L 363.28 454.69 L 426.56 454.69 L 454.69 471.09 L 428.91 492.19 L 267.19 499.22 L 236.72 464.06 L 236.72 447.66 L 267.19 398.44 L 325.78 358.59 L 461.72 339.84 L 391.41 375.00 L 248.44 379.69 L 220.31 375.00 L 166.41 346.88 L 157.03 330.47 L 152.34 297.66 L 182.81 260.16 L 220.31 232.03 L 285.94 208.59 L 398.44 194.53 L 513.28 194.53 L 510.94 220.31 L 499.22 227.34 L 335.16 278.91 L 271.88 285.94 L 185.16 283.59 L 147.66 271.88 L 103.12 239.06 L 86.72 215.62 L 82.03 161.72 L 105.47 114.84 L 145.31 77.34 L 246.09 23.44 L 353.91 9.38 L 447.66 9.38 L 543.75 32.81 L 557.81 44.53 L 560.16 75.00 L 513.28 114.84 L 454.69 138.28 L 342.19 152.34 L 131.25 152.34 L 39.84 135.94 L 0.00 107.81 L 0.00 91.41 L 39.84 58.59 L 131.25 21.09 L 250.78 0.00 L 492.19 0.00 L 597.66 42.19 L 583.59 53.91 L 550.78 60.94 L 410.16 84.38 L 257.81 96.09 L 114.84 96.09" stroke="black" fill="transparent"/>
</svg>