<?xml version="1.0" encoding="UTF-8" standalone="no"?>
<!--Created with ndjsontosvg (https:https://github.com/thompson318/ndjsontosvg) 
	from the simplified Google quickdraw data set. key_id = 5829949896261632-->
<svg width="600" height="600"
	xmlns="http://www.w3.org/2000/svg">
	xmlns:ndjsontosvg="https://github.com/thompson318/ndjsontosvg"
	xmlns:quickdraw="https://quickdraw.withgoogle.com/data"
	xmlns:scikit-surgery="https://doi.org/10.1007/s11548-020-02180-5">

	<rect width="100%" height="100%" fill="white" />
	<path d = "M 452.34 28.12 L 239.06 4.69 L 96.09 0.00 L 53.91 16.41 L 11.72 53.91 L 0.00 82.03 L 4.69 119.53 L 65.62 145.31 L 140.62 157.03 L 314.06 168.75 L 485.16 173.44 L 536.72 164.06 L 597.66 126.56 L 496.88 117.19 L 318.75 117.19 L 229.69 119.53 L 178.12 131.25 L 159.38 150.00 L 154.69 173.44 L 161.72 187.50 L 192.19 206.25 L 292.97 239.06 L 375.00 243.75 L 407.81 239.06 L 501.56 194.53 L 557.81 131.25 L 562.50 114.84 L 543.75 107.81 L 417.19 105.47 L 323.44 114.84 L 140.62 150.00 L 84.38 182.81 L 56.25 232.03 L 56.25 255.47 L 65.62 269.53 L 124.22 318.75 L 168.75 342.19 L 229.69 356.25 L 290.62 358.59 L 346.88 346.88 L 421.88 304.69 L 447.66 283.59 L 450.00 269.53 L 236.72 262.50 L 152.34 281.25 L 117.19 304.69 L 117.19 337.50 L 142.97 363.28 L 187.50 386.72 L 246.09 398.44 L 370.31 396.09 L 421.88 372.66 L 445.31 353.91 L 464.06 335.16 L 468.75 309.38 L 457.03 300.00 L 412.50 292.97 L 236.72 302.34 L 173.44 318.75 L 79.69 358.59 L 60.94 377.34 L 53.91 419.53 L 89.06 457.03 L 112.50 471.09 L 187.50 466.41 L 236.72 438.28 L 264.84 407.81 L 241.41 405.47 L 203.91 414.84 L 100.78 468.75 L 79.69 492.19 L 84.38 508.59 L 152.34 510.94 L 180.47 494.53 L 166.41 492.19 L 131.25 503.91 L 112.50 527.34 L 114.84 536.72 L 131.25 539.06" stroke="black" fill="transparent"/>
</svg>