<?xml version="1.0" encoding="UTF-8" standalone="no"?>
<!--Created with ndjsontosvg (https:https://github.com/thompson318/ndjsontosvg) 
	from the simplified Google quickdraw data set. key_id = 5271303864975360-->
<svg width="600" height="600"
	xmlns="http://www.w3.org/2000/svg">
	xmlns:ndjsontosvg="https://github.com/thompson318/ndjsontosvg"
	xmlns:quickdraw="https://quickdraw.withgoogle.com/data"
	xmlns:scikit-surgery="https://doi.org/10.1007/s11548-020-02180-5">

	<rect width="100%" height="100%" fill="white" />
	<path d = "M 217.97 16.41 L 189.84 14.06 L 166.41 28.12 L 145.31 63.28 L 140.62 103.12 L 145.31 128.91 L 168.75 164.06 L 189.84 175.78 L 229.69 173.44 L 262.50 147.66 L 274.22 126.56 L 278.91 70.31 L 269.53 46.88 L 241.41 25.78 L 201.56 21.09 L 164.06 42.19 L 152.34 63.28" stroke="black" fill="transparent"/>
	<path d = "M 220.31 203.91 L 187.50 173.44 L 150.00 166.41 L 128.91 171.09 L 142.97 234.38 L 166.41 276.56 L 189.84 285.94 L 208.59 283.59 L 217.97 271.88 L 225.00 234.38 L 222.66 189.84 L 196.88 135.94 L 171.09 126.56 L 142.97 140.62 L 128.91 159.38 L 119.53 199.22" stroke="black" fill="transparent"/>
	<path d = "M 187.50 236.72 L 159.38 236.72 L 142.97 243.75 L 138.28 302.34 L 154.69 335.16 L 189.84 372.66 L 199.22 375.00 L 215.62 363.28 L 232.03 332.81 L 232.03 304.69 L 225.00 283.59 L 210.94 269.53 L 187.50 255.47 L 147.66 260.16 L 117.19 290.62 L 107.81 328.12 L 119.53 344.53" stroke="black" fill="transparent"/>
	<path d = "M 203.91 337.50 L 147.66 332.81 L 131.25 379.69 L 131.25 417.19 L 145.31 457.03 L 164.06 471.09 L 178.12 471.09 L 203.91 454.69 L 210.94 438.28 L 213.28 398.44 L 189.84 360.94 L 159.38 337.50 L 133.59 342.19 L 121.88 365.62 L 121.88 400.78 L 138.28 426.56" stroke="black" fill="transparent"/>
	<path d = "M 182.81 459.38 L 142.97 468.75 L 126.56 492.19 L 126.56 520.31 L 171.09 555.47 L 194.53 562.50 L 210.94 550.78 L 206.25 525.00 L 194.53 503.91 L 159.38 480.47 L 140.62 475.78 L 124.22 494.53 L 124.22 520.31 L 157.03 553.12" stroke="black" fill="transparent"/>
	<path d = "M 140.62 546.09 L 119.53 560.16 L 121.88 578.91 L 161.72 595.31 L 201.56 595.31 L 213.28 574.22 L 196.88 550.78 L 166.41 532.03 L 150.00 534.38 L 142.97 555.47 L 168.75 567.19" stroke="black" fill="transparent"/>
	<path d = "M 342.19 63.28 L 323.44 32.81 L 302.34 16.41 L 232.03 0.00 L 189.84 0.00 L 135.94 30.47 L 86.72 70.31 L 58.59 107.81 L 49.22 128.91 L 46.88 192.19 L 60.94 227.34 L 105.47 283.59 L 168.75 332.81 L 215.62 349.22 L 255.47 351.56 L 269.53 346.88 L 307.03 318.75 L 339.84 267.19 L 349.22 239.06 L 351.56 166.41 L 314.06 67.97 L 278.91 28.12 L 257.81 21.09 L 199.22 23.44 L 119.53 56.25 L 100.78 72.66 L 86.72 98.44" stroke="black" fill="transparent"/>
	<path d = "M 189.84 246.09 L 84.38 229.69 L 32.81 234.38 L 4.69 262.50 L 2.34 321.09 L 32.81 379.69 L 58.59 410.16 L 126.56 459.38 L 161.72 468.75 L 220.31 464.06 L 269.53 417.19 L 288.28 384.38 L 300.00 311.72 L 297.66 257.81 L 285.94 229.69 L 241.41 171.09 L 210.94 157.03 L 142.97 164.06 L 107.81 180.47 L 46.88 220.31 L 14.06 257.81 L 9.38 276.56 L 14.06 302.34 L 37.50 337.50" stroke="black" fill="transparent"/>
	<path d = "M 168.75 351.56 L 100.78 342.19 L 75.00 349.22 L 30.47 398.44 L 23.44 450.00 L 49.22 485.16 L 121.88 532.03 L 203.91 557.81 L 264.84 553.12 L 283.59 541.41 L 295.31 522.66 L 297.66 494.53 L 285.94 466.41 L 241.41 417.19 L 166.41 372.66 L 133.59 363.28 L 96.09 377.34 L 79.69 396.09" stroke="black" fill="transparent"/>
</svg>