<?xml version="1.0" encoding="UTF-8" standalone="no"?>
<!--Created with ndjsontosvg (https:https://github.com/thompson318/ndjsontosvg) 
	from the simplified Google quickdraw data set. key_id = 6076078479114240-->
<svg width="600" height="600"
	xmlns="http://www.w3.org/2000/svg">
	xmlns:ndjsontosvg="https://github.com/thompson318/ndjsontosvg"
	xmlns:quickdraw="https://quickdraw.withgoogle.com/data"
	xmlns:scikit-surgery="https://doi.org/10.1007/s11548-020-02180-5">

	<rect width="100%" height="100%" fill="white" />
	<path d = "M 7.03 79.69 L 89.06 67.97 L 145.31 39.84 L 161.72 18.75 L 105.47 0.00 L 39.84 4.69 L 21.09 21.09 L 7.03 51.56 L 0.00 84.38 L 2.34 135.94 L 23.44 159.38 L 49.22 173.44 L 124.22 178.12 L 159.38 168.75 L 185.16 152.34 L 199.22 138.28 L 201.56 119.53 L 161.72 110.16 L 107.81 119.53 L 58.59 161.72 L 46.88 180.47 L 44.53 213.28 L 60.94 229.69 L 119.53 255.47 L 222.66 269.53 L 107.81 360.94 L 70.31 410.16 L 65.62 438.28 L 84.38 450.00 L 145.31 457.03 L 222.66 454.69 L 91.41 567.19 L 70.31 592.97 L 159.38 595.31 L 274.22 555.47" stroke="black" fill="transparent"/>
</svg>