<?xml version="1.0" encoding="UTF-8" standalone="no"?>
<!--Created with ndjsontosvg (https:https://github.com/thompson318/ndjsontosvg) 
	from the simplified Google quickdraw data set. key_id = 5800766713364480-->
<svg width="600" height="600"
	xmlns="http://www.w3.org/2000/svg">
	xmlns:ndjsontosvg="https://github.com/thompson318/ndjsontosvg"
	xmlns:quickdraw="https://quickdraw.withgoogle.com/data"
	xmlns:scikit-surgery="https://doi.org/10.1007/s11548-020-02180-5">

	<rect width="100%" height="100%" fill="white" />
	<path d = "M 450.00 4.69 L 412.50 4.69 L 370.31 21.09 L 290.62 65.62 L 271.88 82.03 L 267.19 98.44 L 281.25 105.47 L 349.22 105.47 L 494.53 91.41 L 513.28 82.03 L 517.97 63.28 L 508.59 46.88 L 489.84 39.84 L 351.56 32.81 L 267.19 44.53 L 199.22 65.62 L 164.06 98.44 L 157.03 119.53 L 159.38 133.59 L 180.47 154.69 L 229.69 175.78 L 339.84 178.12 L 426.56 164.06 L 489.84 131.25 L 532.03 91.41 L 548.44 49.22 L 548.44 25.78 L 536.72 7.03 L 506.25 0.00 L 457.03 2.34 L 382.03 25.78 L 255.47 96.09 L 222.66 119.53 L 185.16 173.44 L 189.84 192.19 L 203.91 199.22 L 260.16 217.97 L 438.28 215.62 L 520.31 194.53 L 576.56 164.06 L 597.66 126.56 L 597.66 117.19 L 581.25 103.12 L 543.75 96.09 L 473.44 96.09 L 370.31 112.50 L 278.91 145.31 L 217.97 185.16 L 206.25 201.56 L 203.91 225.00 L 227.34 248.44 L 260.16 262.50 L 342.19 278.91 L 454.69 276.56 L 482.81 262.50 L 508.59 236.72 L 515.62 178.12 L 494.53 142.97 L 438.28 107.81 L 302.34 86.72 L 112.50 91.41 L 60.94 100.78 L 23.44 117.19 L 4.69 131.25 L 0.00 142.97 L 2.34 159.38 L 35.16 192.19 L 124.22 232.03 L 236.72 255.47 L 330.47 257.81 L 367.97 250.78 L 414.84 222.66 L 428.91 168.75 L 414.84 135.94 L 375.00 114.84 L 339.84 114.84 L 255.47 119.53 L 206.25 131.25 L 110.16 175.78 L 77.34 203.91 L 58.59 229.69 L 53.91 253.12 L 67.97 288.28 L 119.53 318.75 L 157.03 325.78 L 248.44 328.12 L 323.44 304.69 L 377.34 264.84 L 398.44 227.34 L 396.09 206.25 L 389.06 199.22 L 356.25 194.53 L 292.97 208.59 L 222.66 239.06 L 171.09 281.25 L 161.72 309.38 L 178.12 330.47 L 206.25 342.19 L 292.97 349.22 L 405.47 349.22 L 485.16 321.09 L 508.59 304.69 L 515.62 290.62 L 508.59 269.53 L 492.19 255.47 L 426.56 236.72 L 337.50 239.06 L 290.62 253.12 L 225.00 285.94 L 201.56 323.44 L 201.56 342.19 L 229.69 377.34 L 290.62 405.47 L 332.81 417.19 L 431.25 417.19 L 447.66 412.50 L 452.34 398.44 L 398.44 393.75 L 353.91 405.47 L 330.47 428.91 L 351.56 442.97 L 471.09 445.31 L 501.56 433.59 L 503.91 419.53 L 459.38 403.12 L 330.47 403.12 L 255.47 419.53 L 215.62 445.31 L 213.28 471.09 L 241.41 492.19 L 274.22 503.91 L 344.53 508.59 L 360.94 501.56 L 358.59 489.84 L 349.22 492.19 L 349.22 506.25 L 377.34 510.94 L 367.97 508.59 L 360.94 515.62 L 405.47 515.62 L 351.56 517.97 L 346.88 517.97 L 356.25 522.66 L 417.19 520.31 L 431.25 513.28 L 431.25 506.25 L 318.75 503.91 L 431.25 508.59 L 386.72 532.03 L 384.38 541.41 L 391.41 541.41 L 508.59 529.69 L 539.06 515.62 L 541.41 503.91 L 508.59 501.56 L 398.44 517.97 L 424.22 520.31 L 510.94 508.59 L 403.12 539.06 L 403.12 543.75 L 417.19 543.75" stroke="black" fill="transparent"/>
</svg>