<?xml version="1.0" encoding="UTF-8" standalone="no"?>
<!--Created with ndjsontosvg (https:https://github.com/thompson318/ndjsontosvg) 
	from the simplified Google quickdraw data set. key_id = 4754209201192960-->
<svg width="600" height="600"
	xmlns="http://www.w3.org/2000/svg">
	xmlns:ndjsontosvg="https://github.com/thompson318/ndjsontosvg"
	xmlns:quickdraw="https://quickdraw.withgoogle.com/data"
	xmlns:scikit-surgery="https://doi.org/10.1007/s11548-020-02180-5">

	<rect width="100%" height="100%" fill="white" />
	<path d = "M 77.34 9.38 L 328.12 0.00 L 567.19 2.34 L 578.91 4.69 L 581.25 14.06 L 576.56 39.84 L 567.19 49.22 L 534.38 63.28 L 452.34 67.97 L 328.12 42.19" stroke="black" fill="transparent"/>
	<path d = "M 0.00 77.34 L 269.53 25.78 L 370.31 11.72 L 510.94 11.72 L 555.47 21.09 L 588.28 42.19 L 597.66 70.31 L 562.50 110.16 L 536.72 124.22 L 471.09 135.94 L 260.16 138.28 L 53.91 114.84 L 82.03 105.47 L 332.81 60.94 L 513.28 58.59 L 562.50 65.62 L 501.56 100.78 L 255.47 150.00 L 173.44 154.69 L 246.09 147.66 L 487.50 147.66 L 517.97 154.69 L 527.34 166.41 L 496.88 180.47 L 365.62 199.22 L 117.19 199.22 L 241.41 196.88 L 250.78 203.91 L 236.72 217.97 L 168.75 234.38 L 304.69 248.44 L 379.69 276.56 L 367.97 288.28 L 292.97 304.69 L 332.81 321.09 L 274.22 349.22 L 285.94 360.94 L 356.25 389.06 L 379.69 417.19 L 372.66 428.91 L 318.75 452.34 L 304.69 466.41 L 302.34 487.50 L 332.81 506.25 L 438.28 517.97" stroke="black" fill="transparent"/>
</svg>