<?xml version="1.0" encoding="UTF-8" standalone="no"?>
<!--Created with ndjsontosvg (https:https://github.com/thompson318/ndjsontosvg) 
	from the simplified Google quickdraw data set. key_id = 5142787588620288-->
<svg width="600" height="600"
	xmlns="http://www.w3.org/2000/svg">
	xmlns:ndjsontosvg="https://github.com/thompson318/ndjsontosvg"
	xmlns:quickdraw="https://quickdraw.withgoogle.com/data"
	xmlns:scikit-surgery="https://doi.org/10.1007/s11548-020-02180-5">

	<rect width="100%" height="100%" fill="white" />
	<path d = "M 82.03 562.50 L 51.56 532.03 L 23.44 482.81 L 2.34 421.88 L 0.00 391.41 L 4.69 335.16 L 23.44 285.94 L 44.53 262.50 L 77.34 253.12 L 140.62 262.50 L 229.69 311.72 L 267.19 363.28 L 281.25 417.19 L 281.25 442.97 L 260.16 489.84 L 203.91 534.38 L 133.59 562.50 L 75.00 562.50" stroke="black" fill="transparent"/>
	<path d = "M 281.25 403.12 L 398.44 396.09" stroke="black" fill="transparent"/>
	<path d = "M 513.28 529.69 L 478.12 517.97 L 419.53 471.09 L 393.75 431.25 L 386.72 396.09 L 403.12 351.56 L 445.31 323.44 L 503.91 304.69 L 550.78 309.38 L 578.91 330.47 L 595.31 384.38 L 595.31 442.97 L 581.25 487.50 L 548.44 517.97 L 499.22 532.03 L 468.75 527.34 L 452.34 508.59" stroke="black" fill="transparent"/>
	<path d = "M 178.12 309.38 L 168.75 271.88 L 168.75 189.84 L 210.94 0.00 L 356.25 182.81 L 471.09 358.59" stroke="black" fill="transparent"/>
	<path d = "M 217.97 16.41 L 250.78 21.09 L 405.47 16.41 L 447.66 25.78 L 473.44 424.22" stroke="black" fill="transparent"/>
</svg>