<?xml version="1.0" encoding="UTF-8" standalone="no"?>
<!--Created with ndjsontosvg (https:https://github.com/thompson318/ndjsontosvg) 
	from the simplified Google quickdraw data set. key_id = 4839841768407040-->
<svg width="600" height="600"
	xmlns="http://www.w3.org/2000/svg">
	xmlns:ndjsontosvg="https://github.com/thompson318/ndjsontosvg"
	xmlns:quickdraw="https://quickdraw.withgoogle.com/data"
	xmlns:scikit-surgery="https://doi.org/10.1007/s11548-020-02180-5">

	<rect width="100%" height="100%" fill="white" />
	<path d = "M 30.47 210.94 L 121.88 206.25 L 145.31 210.94 L 161.72 220.31 L 201.56 283.59 L 215.62 321.09 L 217.97 363.28 L 203.91 389.06 L 135.94 391.41 L 75.00 370.31 L 53.91 356.25 L 39.84 297.66 L 51.56 206.25" stroke="black" fill="transparent"/>
	<path d = "M 389.06 229.69 L 471.09 225.00 L 494.53 229.69 L 527.34 253.12 L 548.44 295.31 L 550.78 339.84 L 513.28 398.44 L 475.78 410.16 L 426.56 396.09 L 389.06 360.94 L 372.66 323.44 L 370.31 257.81 L 391.41 232.03" stroke="black" fill="transparent"/>
	<path d = "M 597.66 248.44 L 536.72 194.53 L 506.25 182.81 L 321.09 189.84 L 300.00 7.03 L 215.62 0.00 L 210.94 2.34 L 196.88 56.25 L 199.22 121.88 L 112.50 131.25 L 53.91 164.06 L 14.06 201.56 L 0.00 241.41" stroke="black" fill="transparent"/>
	<path d = "M 210.94 246.09 L 210.94 246.09" stroke="black" fill="transparent"/>
</svg>