<?xml version="1.0" encoding="UTF-8" standalone="no"?>
<!--Created with ndjsontosvg (https:https://github.com/thompson318/ndjsontosvg) 
	from the simplified Google quickdraw data set. key_id = 6423456394510336-->
<svg width="600" height="600"
	xmlns="http://www.w3.org/2000/svg">
	xmlns:ndjsontosvg="https://github.com/thompson318/ndjsontosvg"
	xmlns:quickdraw="https://quickdraw.withgoogle.com/data"
	xmlns:scikit-surgery="https://doi.org/10.1007/s11548-020-02180-5">

	<rect width="100%" height="100%" fill="white" />
	<path d = "M 145.31 178.12 L 103.12 182.81 L 51.56 210.94 L 21.09 262.50 L 0.00 351.56 L 2.34 403.12 L 35.16 489.84 L 63.28 522.66 L 121.88 550.78 L 234.38 555.47 L 339.84 532.03 L 405.47 492.19 L 419.53 468.75 L 424.22 435.94 L 421.88 382.03 L 400.78 321.09 L 356.25 255.47 L 321.09 220.31 L 283.59 196.88 L 222.66 178.12 L 178.12 173.44 L 124.22 173.44" stroke="black" fill="transparent"/>
	<path d = "M 428.91 346.88 L 527.34 344.53 L 553.12 447.66 L 475.78 450.00" stroke="black" fill="transparent"/>
	<path d = "M 532.03 405.47 L 536.72 433.59 L 560.16 450.00 L 595.31 442.97 L 597.66 414.84 L 578.91 393.75 L 557.81 389.06 L 536.72 405.47 L 539.06 428.91" stroke="black" fill="transparent"/>
	<path d = "M 201.56 285.94 L 386.72 285.94 L 384.38 234.38 L 360.94 124.22 L 358.59 44.53 L 351.56 18.75 L 335.16 0.00 L 222.66 30.47 L 157.03 39.84 L 145.31 77.34 L 145.31 199.22 L 161.72 307.03" stroke="black" fill="transparent"/>
	<path d = "M 173.44 307.03 L 199.22 290.62 L 234.38 281.25" stroke="black" fill="transparent"/>
</svg>