<?xml version="1.0" encoding="UTF-8" standalone="no"?>
<!--Created with ndjsontosvg (https:https://github.com/thompson318/ndjsontosvg) 
	from the simplified Google quickdraw data set. key_id = 5017219857645568-->
<svg width="600" height="600"
	xmlns="http://www.w3.org/2000/svg">
	xmlns:ndjsontosvg="https://github.com/thompson318/ndjsontosvg"
	xmlns:quickdraw="https://quickdraw.withgoogle.com/data"
	xmlns:scikit-surgery="https://doi.org/10.1007/s11548-020-02180-5">

	<rect width="100%" height="100%" fill="white" />
	<path d = "M 227.34 220.31 L 196.88 220.31 L 157.03 239.06 L 138.28 257.81 L 124.22 304.69 L 131.25 325.78 L 154.69 342.19 L 217.97 342.19 L 248.44 332.81 L 274.22 314.06 L 281.25 292.97 L 276.56 260.16 L 257.81 234.38 L 229.69 220.31 L 201.56 220.31 L 178.12 234.38" stroke="black" fill="transparent"/>
	<path d = "M 217.97 276.56 L 201.56 269.53 L 189.84 274.22 L 187.50 295.31 L 194.53 307.03 L 217.97 309.38 L 229.69 295.31 L 225.00 271.88 L 203.91 269.53" stroke="black" fill="transparent"/>
	<path d = "M 412.50 232.03 L 379.69 236.72 L 358.59 257.81 L 346.88 292.97 L 351.56 311.72 L 363.28 323.44 L 421.88 325.78 L 461.72 302.34 L 464.06 274.22 L 454.69 248.44 L 440.62 232.03 L 419.53 222.66 L 386.72 227.34 L 363.28 243.75" stroke="black" fill="transparent"/>
	<path d = "M 417.19 267.19 L 400.78 264.84 L 391.41 292.97 L 396.09 304.69 L 419.53 304.69 L 426.56 271.88 L 417.19 262.50" stroke="black" fill="transparent"/>
	<path d = "M 269.53 239.06 L 386.72 229.69" stroke="black" fill="transparent"/>
	<path d = "M 440.62 229.69 L 482.81 232.03 L 494.53 185.16 L 597.66 171.09 L 588.28 96.09 L 478.12 89.06 L 464.06 9.38 L 274.22 14.06 L 150.00 0.00 L 65.62 9.38 L 14.06 7.03 L 0.00 18.75 L 4.69 77.34" stroke="black" fill="transparent"/>
</svg>