<?xml version="1.0" encoding="UTF-8" standalone="no"?>
<!--Created with ndjsontosvg (https:https://github.com/thompson318/ndjsontosvg) 
	from the simplified Google quickdraw data set. key_id = 4796813745848320-->
<svg width="600" height="600"
	xmlns="http://www.w3.org/2000/svg">
	xmlns:ndjsontosvg="https://github.com/thompson318/ndjsontosvg"
	xmlns:quickdraw="https://quickdraw.withgoogle.com/data"
	xmlns:scikit-surgery="https://doi.org/10.1007/s11548-020-02180-5">

	<rect width="100%" height="100%" fill="white" />
	<path d = "M 185.16 295.31 L 164.06 278.91 L 131.25 269.53 L 84.38 267.19 L 53.91 276.56 L 28.12 302.34 L 0.00 356.25 L 0.00 398.44 L 18.75 433.59 L 51.56 461.72 L 91.41 475.78 L 154.69 475.78 L 206.25 452.34 L 236.72 419.53 L 248.44 384.38 L 243.75 349.22 L 206.25 297.66 L 182.81 285.94 L 173.44 288.28" stroke="black" fill="transparent"/>
	<path d = "M 585.94 386.72 L 550.78 382.03 L 543.75 391.41 L 543.75 412.50 L 574.22 440.62 L 592.97 435.94 L 597.66 421.88 L 595.31 398.44 L 578.91 382.03" stroke="black" fill="transparent"/>
	<path d = "M 253.12 386.72 L 328.12 403.12 L 471.09 405.47 L 557.81 424.22" stroke="black" fill="transparent"/>
	<path d = "M 110.16 260.16 L 121.88 234.38 L 152.34 46.88 L 166.41 2.34 L 353.91 21.09 L 379.69 28.12 L 382.03 35.16 L 375.00 210.94 L 571.88 234.38 L 578.91 243.75 L 576.56 353.91" stroke="black" fill="transparent"/>
</svg>