<?xml version="1.0" encoding="UTF-8" standalone="no"?>
<!--Created with ndjsontosvg (https:https://github.com/thompson318/ndjsontosvg) 
	from the simplified Google quickdraw data set. key_id = 6386458468286464-->
<svg width="600" height="600"
	xmlns="http://www.w3.org/2000/svg">
	xmlns:ndjsontosvg="https://github.com/thompson318/ndjsontosvg"
	xmlns:quickdraw="https://quickdraw.withgoogle.com/data"
	xmlns:scikit-surgery="https://doi.org/10.1007/s11548-020-02180-5">

	<rect width="100%" height="100%" fill="white" />
	<path d = "M 232.03 271.88 L 210.94 267.19 L 180.47 274.22 L 126.56 304.69 L 96.09 337.50 L 75.00 398.44 L 75.00 471.09 L 86.72 501.56 L 133.59 539.06 L 185.16 541.41 L 222.66 517.97 L 255.47 471.09 L 290.62 396.09 L 295.31 360.94 L 295.31 337.50 L 283.59 314.06 L 208.59 276.56" stroke="black" fill="transparent"/>
	<path d = "M 426.56 278.91 L 414.84 276.56 L 393.75 297.66 L 311.72 379.69 L 302.34 400.78 L 302.34 499.22 L 309.38 532.03 L 339.84 583.59 L 379.69 597.66 L 426.56 585.94 L 471.09 555.47 L 492.19 527.34 L 503.91 485.16 L 503.91 396.09 L 487.50 337.50 L 454.69 295.31 L 421.88 276.56 L 405.47 278.91" stroke="black" fill="transparent"/>
	<path d = "M 63.28 393.75 L 2.34 386.72 L 0.00 379.69 L 7.03 335.16 L 4.69 239.06 L 30.47 189.84 L 77.34 154.69 L 215.62 147.66 L 300.00 168.75 L 323.44 89.06 L 332.81 0.00 L 391.41 16.41 L 536.72 9.38 L 576.56 25.78 L 581.25 276.56" stroke="black" fill="transparent"/>
</svg>