<?xml version="1.0" encoding="UTF-8" standalone="no"?>
<!--Created with ndjsontosvg (https:https://github.com/thompson318/ndjsontosvg) 
	from the simplified Google quickdraw data set. key_id = 5526780871966720-->
<svg width="600" height="600"
	xmlns="http://www.w3.org/2000/svg">
	xmlns:ndjsontosvg="https://github.com/thompson318/ndjsontosvg"
	xmlns:quickdraw="https://quickdraw.withgoogle.com/data"
	xmlns:scikit-surgery="https://doi.org/10.1007/s11548-020-02180-5">

	<rect width="100%" height="100%" fill="white" />
	<path d = "M 131.25 253.12 L 91.41 246.09 L 58.59 253.12 L 25.78 278.91 L 11.72 304.69 L 7.03 346.88 L 23.44 400.78 L 56.25 440.62 L 91.41 447.66 L 166.41 433.59 L 192.19 414.84 L 217.97 372.66 L 225.00 344.53 L 225.00 318.75 L 213.28 283.59 L 194.53 264.84 L 138.28 248.44 L 91.41 250.78" stroke="black" fill="transparent"/>
	<path d = "M 0.00 253.12 L 4.69 227.34 L 18.75 215.62 L 75.00 201.56 L 360.94 215.62" stroke="black" fill="transparent"/>
	<path d = "M 7.03 217.97 L 2.34 199.22 L 11.72 159.38 L 60.94 150.00" stroke="black" fill="transparent"/>
	<path d = "M 37.50 173.44 L 30.47 157.03 L 23.44 110.16 L 44.53 25.78 L 114.84 4.69 L 159.38 0.00 L 229.69 23.44 L 243.75 44.53 L 241.41 89.06 L 250.78 142.97 L 292.97 164.06 L 363.28 173.44 L 560.16 159.38 L 595.31 229.69 L 487.50 234.38 L 384.38 225.00 L 396.09 217.97" stroke="black" fill="transparent"/>
	<path d = "M 550.78 295.31 L 553.12 281.25 L 532.03 269.53 L 510.94 269.53 L 489.84 285.94 L 494.53 330.47 L 501.56 353.91 L 522.66 377.34 L 560.16 372.66 L 581.25 353.91 L 597.66 307.03 L 592.97 267.19 L 576.56 248.44 L 553.12 236.72 L 520.31 234.38 L 501.56 239.06 L 475.78 264.84" stroke="black" fill="transparent"/>
</svg>