<?xml version="1.0" encoding="UTF-8" standalone="no"?>
<!--Created with ndjsontosvg (https:https://github.com/thompson318/ndjsontosvg) 
	from the simplified Google quickdraw data set. key_id = 5296719803711488-->
<svg width="600" height="600"
	xmlns="http://www.w3.org/2000/svg">
	xmlns:ndjsontosvg="https://github.com/thompson318/ndjsontosvg"
	xmlns:quickdraw="https://quickdraw.withgoogle.com/data"
	xmlns:scikit-surgery="https://doi.org/10.1007/s11548-020-02180-5">

	<rect width="100%" height="100%" fill="white" />
	<path d = "M 32.81 44.53 L 37.50 447.66 L 0.00 590.62 L 28.12 597.66 L 297.66 562.50 L 337.50 550.78" stroke="black" fill="transparent"/>
	<path d = "M 51.56 18.75 L 171.09 0.00 L 239.06 2.34 L 253.12 16.41 L 278.91 173.44 L 304.69 264.84 L 314.06 482.81 L 311.72 541.41" stroke="black" fill="transparent"/>
	<path d = "M 128.91 96.09 L 100.78 161.72 L 98.44 194.53 L 105.47 206.25 L 152.34 220.31 L 185.16 215.62 L 206.25 194.53 L 210.94 145.31 L 185.16 121.88 L 138.28 128.91" stroke="black" fill="transparent"/>
	<path d = "M 178.12 300.00 L 154.69 290.62 L 135.94 304.69 L 126.56 332.81 L 128.91 363.28 L 152.34 386.72 L 189.84 389.06 L 222.66 363.28 L 227.34 311.72 L 215.62 297.66 L 180.47 285.94 L 159.38 288.28 L 138.28 307.03" stroke="black" fill="transparent"/>
	<path d = "M 199.22 440.62 L 187.50 431.25 L 164.06 431.25 L 145.31 457.03 L 142.97 471.09 L 175.78 506.25 L 213.28 508.59 L 241.41 496.88 L 257.81 464.06 L 248.44 414.84 L 234.38 412.50 L 180.47 428.91" stroke="black" fill="transparent"/>
</svg>