<?xml version="1.0" encoding="UTF-8" standalone="no"?>
<!--Created with ndjsontosvg (https:https://github.com/thompson318/ndjsontosvg) 
	from the simplified Google quickdraw data set. key_id = 4876673143013376-->
<svg width="600" height="600"
	xmlns="http://www.w3.org/2000/svg">
	xmlns:ndjsontosvg="https://github.com/thompson318/ndjsontosvg"
	xmlns:quickdraw="https://quickdraw.withgoogle.com/data"
	xmlns:scikit-surgery="https://doi.org/10.1007/s11548-020-02180-5">

	<rect width="100%" height="100%" fill="white" />
	<path d = "M 7.03 14.06 L 21.09 243.75 L 7.03 360.94 L 7.03 468.75 L 14.06 534.38 L 30.47 578.91" stroke="black" fill="transparent"/>
	<path d = "M 0.00 0.00 L 178.12 7.03 L 227.34 18.75 L 234.38 28.12 L 232.03 300.00 L 222.66 370.31 L 213.28 585.94 L 150.00 597.66 L 30.47 595.31" stroke="black" fill="transparent"/>
	<path d = "M 131.25 79.69 L 105.47 98.44 L 98.44 140.62 L 124.22 164.06 L 159.38 171.09 L 185.16 145.31 L 192.19 131.25 L 187.50 84.38 L 166.41 67.97 L 133.59 67.97 L 124.22 70.31 L 107.81 96.09" stroke="black" fill="transparent"/>
	<path d = "M 110.16 255.47 L 84.38 288.28 L 82.03 321.09 L 100.78 353.91 L 145.31 360.94 L 164.06 330.47 L 164.06 281.25 L 157.03 271.88 L 135.94 257.81 L 103.12 250.78" stroke="black" fill="transparent"/>
	<path d = "M 93.75 478.12 L 75.00 489.84 L 49.22 525.00 L 49.22 553.12 L 79.69 581.25 L 110.16 581.25 L 142.97 560.16 L 145.31 499.22 L 126.56 482.81" stroke="black" fill="transparent"/>
</svg>