<?xml version="1.0" encoding="UTF-8" standalone="no"?>
<!--Created with ndjsontosvg (https:https://github.com/thompson318/ndjsontosvg) 
	from the simplified Google quickdraw data set. key_id = 5306888914731008-->
<svg width="600" height="600"
	xmlns="http://www.w3.org/2000/svg">
	xmlns:ndjsontosvg="https://github.com/thompson318/ndjsontosvg"
	xmlns:quickdraw="https://quickdraw.withgoogle.com/data"
	xmlns:scikit-surgery="https://doi.org/10.1007/s11548-020-02180-5">

	<rect width="100%" height="100%" fill="white" />
	<path d = "M 192.19 590.62 L 192.19 590.62" stroke="black" fill="transparent"/>
	<path d = "M 46.88 49.22 L 46.88 328.12 L 75.00 527.34 L 77.34 597.66 L 330.47 595.31 L 346.88 398.44 L 349.22 168.75 L 339.84 110.16 L 344.53 2.34 L 7.03 0.00 L 0.00 4.69 L 51.56 49.22 L 56.25 65.62 L 49.22 75.00" stroke="black" fill="transparent"/>
	<path d = "M 147.66 39.84 L 138.28 39.84 L 117.19 58.59 L 100.78 93.75 L 98.44 117.19 L 112.50 138.28 L 145.31 157.03 L 194.53 168.75 L 210.94 168.75 L 232.03 150.00 L 248.44 79.69 L 232.03 67.97 L 157.03 49.22" stroke="black" fill="transparent"/>
	<path d = "M 166.41 199.22 L 138.28 213.28 L 128.91 283.59 L 168.75 328.12 L 220.31 342.19 L 243.75 311.72 L 248.44 278.91 L 250.78 257.81 L 239.06 241.41 L 222.66 227.34 L 185.16 213.28" stroke="black" fill="transparent"/>
	<path d = "M 196.88 393.75 L 175.78 393.75 L 152.34 407.81 L 147.66 494.53 L 173.44 529.69 L 213.28 562.50 L 257.81 581.25" stroke="black" fill="transparent"/>
</svg>