<?xml version="1.0" encoding="UTF-8" standalone="no"?>
<!--Created with ndjsontosvg (https:https://github.com/thompson318/ndjsontosvg) 
	from the simplified Google quickdraw data set. key_id = 5864388198137856-->
<svg width="600" height="600"
	xmlns="http://www.w3.org/2000/svg">
	xmlns:ndjsontosvg="https://github.com/thompson318/ndjsontosvg"
	xmlns:quickdraw="https://quickdraw.withgoogle.com/data"
	xmlns:scikit-surgery="https://doi.org/10.1007/s11548-020-02180-5">

	<rect width="100%" height="100%" fill="white" />
	<path d = "M 0.00 53.91 L 11.72 56.25 L 16.41 65.62 L 23.44 124.22 L 30.47 585.94 L 65.62 595.31 L 285.94 597.66 L 316.41 595.31 L 400.78 567.19 L 391.41 459.38 L 302.34 105.47 L 295.31 7.03 L 278.91 0.00 L 196.88 2.34 L 53.91 30.47 L 0.00 35.16" stroke="black" fill="transparent"/>
	<path d = "M 147.66 168.75 L 135.94 168.75 L 126.56 152.34 L 121.88 119.53 L 128.91 96.09 L 142.97 91.41 L 192.19 91.41 L 203.91 96.09 L 215.62 124.22 L 215.62 145.31 L 206.25 154.69 L 180.47 171.09 L 131.25 189.84" stroke="black" fill="transparent"/>
	<path d = "M 131.25 543.75 L 107.81 525.00 L 100.78 506.25 L 93.75 426.56 L 114.84 389.06 L 131.25 372.66 L 175.78 353.91 L 208.59 358.59 L 246.09 391.41 L 264.84 440.62 L 264.84 541.41 L 257.81 553.12 L 236.72 562.50 L 150.00 555.47" stroke="black" fill="transparent"/>
	<path d = "M 159.38 276.56 L 150.00 253.12 L 164.06 243.75 L 208.59 229.69 L 255.47 234.38 L 262.50 264.84 L 253.12 288.28 L 232.03 297.66 L 182.81 292.97" stroke="black" fill="transparent"/>
</svg>