<?xml version="1.0" encoding="UTF-8" standalone="no"?>
<!--Created with ndjsontosvg (https:https://github.com/thompson318/ndjsontosvg) 
	from the simplified Google quickdraw data set. key_id = 4590619731165184-->
<svg width="600" height="600"
	xmlns="http://www.w3.org/2000/svg">
	xmlns:ndjsontosvg="https://github.com/thompson318/ndjsontosvg"
	xmlns:quickdraw="https://quickdraw.withgoogle.com/data"
	xmlns:scikit-surgery="https://doi.org/10.1007/s11548-020-02180-5">

	<rect width="100%" height="100%" fill="white" />
	<path d = "M 0.00 67.97 L 18.75 213.28 L 28.12 574.22 L 42.19 588.28 L 302.34 597.66 L 309.38 595.31 L 311.72 588.28 L 307.03 356.25 L 316.41 16.41 L 307.03 2.34 L 236.72 0.00 L 114.84 28.12 L 2.34 42.19 L 0.00 58.59 L 9.38 96.09" stroke="black" fill="transparent"/>
	<path d = "M 152.34 84.38 L 124.22 82.03 L 84.38 110.16 L 72.66 157.03 L 82.03 189.84 L 126.56 222.66 L 166.41 232.03 L 199.22 229.69 L 220.31 203.91 L 225.00 161.72 L 222.66 112.50 L 189.84 84.38 L 154.69 72.66" stroke="black" fill="transparent"/>
	<path d = "M 145.31 295.31 L 135.94 290.62 L 107.81 290.62 L 82.03 321.09 L 89.06 349.22 L 121.88 382.03 L 187.50 379.69 L 213.28 346.88 L 222.66 300.00 L 215.62 288.28 L 180.47 276.56 L 142.97 274.22 L 121.88 281.25" stroke="black" fill="transparent"/>
</svg>