<?xml version="1.0" encoding="UTF-8" standalone="no"?>
<!--Created with ndjsontosvg (https:https://github.com/thompson318/ndjsontosvg) 
	from the simplified Google quickdraw data set. key_id = 5313732106256384-->
<svg width="600" height="600"
	xmlns="http://www.w3.org/2000/svg">
	xmlns:ndjsontosvg="https://github.com/thompson318/ndjsontosvg"
	xmlns:quickdraw="https://quickdraw.withgoogle.com/data"
	xmlns:scikit-surgery="https://doi.org/10.1007/s11548-020-02180-5">

	<rect width="100%" height="100%" fill="white" />
	<path d = "M 14.06 243.75 L 112.50 225.00 L 154.69 229.69 L 182.81 246.09 L 194.53 274.22 L 192.19 337.50 L 180.47 393.75 L 171.09 403.12 L 112.50 410.16 L 44.53 405.47 L 11.72 393.75 L 2.34 349.22 L 0.00 278.91 L 7.03 250.78 L 18.75 241.41" stroke="black" fill="transparent"/>
	<path d = "M 194.53 271.88 L 260.16 236.72 L 288.28 232.03 L 337.50 236.72 L 349.22 246.09 L 353.91 271.88 L 351.56 318.75 L 325.78 363.28 L 208.59 372.66" stroke="black" fill="transparent"/>
	<path d = "M 367.97 255.47 L 405.47 236.72 L 461.72 229.69 L 468.75 246.09 L 459.38 349.22 L 328.12 367.97" stroke="black" fill="transparent"/>
	<path d = "M 475.78 236.72 L 567.19 215.62 L 574.22 246.09 L 574.22 332.81 L 569.53 344.53 L 553.12 351.56 L 454.69 353.91" stroke="black" fill="transparent"/>
	<path d = "M 70.31 182.81 L 70.31 220.31" stroke="black" fill="transparent"/>
	<path d = "M 105.47 175.78 L 114.84 215.62" stroke="black" fill="transparent"/>
	<path d = "M 103.12 150.00 L 98.44 107.81 L 131.25 65.62 L 91.41 42.19 L 110.16 28.12 L 128.91 25.78" stroke="black" fill="transparent"/>
	<path d = "M 44.53 135.94 L 63.28 112.50 L 56.25 77.34 L 75.00 25.78 L 67.97 2.34 L 60.94 0.00" stroke="black" fill="transparent"/>
	<path d = "M 597.66 229.69 L 585.94 225.00" stroke="black" fill="transparent"/>
</svg>