<?xml version="1.0" encoding="UTF-8" standalone="no"?>
<!--Created with ndjsontosvg (https:https://github.com/thompson318/ndjsontosvg) 
	from the simplified Google quickdraw data set. key_id = 6217101448577024-->
<svg width="600" height="600"
	xmlns="http://www.w3.org/2000/svg">
	xmlns:ndjsontosvg="https://github.com/thompson318/ndjsontosvg"
	xmlns:quickdraw="https://quickdraw.withgoogle.com/data"
	xmlns:scikit-surgery="https://doi.org/10.1007/s11548-020-02180-5">

	<rect width="100%" height="100%" fill="white" />
	<path d = "M 194.53 114.84 L 201.56 201.56 L 480.47 194.53 L 485.16 89.06 L 447.66 82.03 L 274.22 77.34 L 192.19 100.78" stroke="black" fill="transparent"/>
	<path d = "M 269.53 159.38 L 248.44 152.34 L 236.72 166.41 L 234.38 203.91 L 248.44 222.66 L 285.94 227.34 L 318.75 201.56 L 321.09 168.75 L 314.06 154.69 L 302.34 145.31 L 281.25 145.31 L 264.84 147.66 L 236.72 175.78 L 236.72 210.94" stroke="black" fill="transparent"/>
	<path d = "M 445.31 145.31 L 421.88 142.97 L 403.12 152.34 L 386.72 173.44 L 384.38 189.84 L 396.09 217.97 L 445.31 227.34 L 471.09 210.94 L 475.78 175.78 L 468.75 159.38 L 454.69 145.31 L 435.94 140.62 L 417.19 140.62 L 384.38 159.38" stroke="black" fill="transparent"/>
	<path d = "M 187.50 128.91 L 119.53 128.91 L 105.47 133.59 L 103.12 150.00 L 110.16 194.53 L 159.38 201.56 L 185.16 189.84" stroke="black" fill="transparent"/>
	<path d = "M 215.62 84.38 L 208.59 42.19 L 213.28 0.00 L 262.50 11.72 L 262.50 82.03" stroke="black" fill="transparent"/>
	<path d = "M 23.44 246.09 L 288.28 227.34 L 597.66 241.41" stroke="black" fill="transparent"/>
	<path d = "M 25.78 274.22 L 358.59 248.44 L 562.50 260.16" stroke="black" fill="transparent"/>
	<path d = "M 0.00 199.22 L 103.12 194.53" stroke="black" fill="transparent"/>
</svg>