<?xml version="1.0" encoding="UTF-8" standalone="no"?>
<!--Created with ndjsontosvg (https:https://github.com/thompson318/ndjsontosvg) 
	from the simplified Google quickdraw data set. key_id = 5181598154620928-->
<svg width="600" height="600"
	xmlns="http://www.w3.org/2000/svg">
	xmlns:ndjsontosvg="https://github.com/thompson318/ndjsontosvg"
	xmlns:quickdraw="https://quickdraw.withgoogle.com/data"
	xmlns:scikit-surgery="https://doi.org/10.1007/s11548-020-02180-5">

	<rect width="100%" height="100%" fill="white" />
	<path d = "M 140.62 117.19 L 260.16 112.50 L 264.84 93.75 L 229.69 67.97 L 128.91 63.28 L 84.38 70.31 L 72.66 128.91 L 157.03 117.19" stroke="black" fill="transparent"/>
	<path d = "M 145.31 63.28 L 150.00 39.84" stroke="black" fill="transparent"/>
	<path d = "M 157.03 58.59 L 157.03 35.16" stroke="black" fill="transparent"/>
	<path d = "M 145.31 35.16 L 140.62 21.09" stroke="black" fill="transparent"/>
	<path d = "M 147.66 37.50 L 173.44 21.09" stroke="black" fill="transparent"/>
	<path d = "M 157.03 35.16 L 178.12 28.12" stroke="black" fill="transparent"/>
	<path d = "M 124.22 142.97 L 117.19 126.56 L 128.91 114.84 L 138.28 112.50 L 147.66 131.25 L 145.31 142.97 L 128.91 145.31 L 119.53 126.56 L 124.22 119.53" stroke="black" fill="transparent"/>
	<path d = "M 182.81 142.97 L 194.53 121.88 L 206.25 117.19 L 215.62 121.88 L 213.28 135.94 L 201.56 140.62 L 173.44 112.50" stroke="black" fill="transparent"/>
	<path d = "M 42.19 11.72 L 86.72 4.69 L 529.69 0.00" stroke="black" fill="transparent"/>
	<path d = "M 72.66 25.78 L 98.44 18.75 L 164.06 18.75 L 213.28 28.12 L 346.88 25.78" stroke="black" fill="transparent"/>
	<path d = "M 0.00 192.19 L 595.31 175.78" stroke="black" fill="transparent"/>
</svg>