<?xml version="1.0" encoding="UTF-8" standalone="no"?>
<!--Created with ndjsontosvg (https:https://github.com/thompson318/ndjsontosvg) 
	from the simplified Google quickdraw data set. key_id = 5192326399918080-->
<svg width="600" height="600"
	xmlns="http://www.w3.org/2000/svg">
	xmlns:ndjsontosvg="https://github.com/thompson318/ndjsontosvg"
	xmlns:quickdraw="https://quickdraw.withgoogle.com/data"
	xmlns:scikit-surgery="https://doi.org/10.1007/s11548-020-02180-5">

	<rect width="100%" height="100%" fill="white" />
	<path d = "M 18.75 283.59 L 0.00 229.69 L 11.72 164.06 L 30.47 133.59 L 53.91 110.16 L 107.81 79.69 L 325.78 67.97 L 532.03 93.75 L 583.59 93.75" stroke="black" fill="transparent"/>
	<path d = "M 11.72 288.28 L 203.91 264.84 L 405.47 274.22 L 590.62 253.12" stroke="black" fill="transparent"/>
	<path d = "M 124.22 91.41 L 140.62 126.56 L 135.94 166.41 L 124.22 178.12 L 91.41 187.50 L 39.84 189.84" stroke="black" fill="transparent"/>
	<path d = "M 241.41 173.44 L 236.72 147.66 L 241.41 126.56 L 267.19 110.16 L 285.94 114.84 L 292.97 124.22 L 292.97 145.31 L 278.91 164.06 L 248.44 166.41" stroke="black" fill="transparent"/>
	<path d = "M 382.03 166.41 L 377.34 138.28 L 391.41 128.91 L 421.88 142.97 L 421.88 168.75 L 400.78 185.16 L 367.97 187.50" stroke="black" fill="transparent"/>
	<path d = "M 494.53 192.19 L 482.81 147.66 L 487.50 126.56 L 499.22 114.84 L 525.00 124.22 L 541.41 147.66 L 543.75 168.75 L 501.56 199.22" stroke="black" fill="transparent"/>
	<path d = "M 98.44 262.50 L 105.47 309.38 L 142.97 321.09 L 330.47 311.72 L 513.28 285.94 L 597.66 292.97" stroke="black" fill="transparent"/>
	<path d = "M 145.31 353.91 L 152.34 332.81 L 171.09 318.75 L 196.88 321.09 L 210.94 335.16 L 201.56 344.53 L 173.44 342.19" stroke="black" fill="transparent"/>
	<path d = "M 311.72 363.28 L 304.69 323.44 L 330.47 307.03 L 360.94 311.72 L 370.31 325.78 L 370.31 344.53 L 342.19 370.31 L 321.09 382.03 L 300.00 377.34" stroke="black" fill="transparent"/>
	<path d = "M 482.81 356.25 L 459.38 323.44 L 454.69 292.97 L 492.19 281.25 L 513.28 285.94 L 522.66 295.31 L 508.59 316.41 L 475.78 330.47" stroke="black" fill="transparent"/>
	<path d = "M 199.22 86.72 L 201.56 37.50 L 192.19 0.00" stroke="black" fill="transparent"/>
</svg>