<?xml version="1.0" encoding="UTF-8" standalone="no"?>
<!--Created with ndjsontosvg (https:https://github.com/thompson318/ndjsontosvg) 
	from the simplified Google quickdraw data set. key_id = 6611633721835520-->
<svg width="600" height="600"
	xmlns="http://www.w3.org/2000/svg">
	xmlns:ndjsontosvg="https://github.com/thompson318/ndjsontosvg"
	xmlns:quickdraw="https://quickdraw.withgoogle.com/data"
	xmlns:scikit-surgery="https://doi.org/10.1007/s11548-020-02180-5">

	<rect width="100%" height="100%" fill="white" />
	<path d = "M 300.00 2.34 L 117.19 0.00 L 77.34 4.69 L 18.75 42.19 L 2.34 65.62 L 0.00 89.06 L 39.84 98.44 L 307.03 96.09 L 307.03 11.72" stroke="black" fill="transparent"/>
	<path d = "M 311.72 79.69 L 414.84 79.69" stroke="black" fill="transparent"/>
	<path d = "M 426.56 14.06 L 419.53 103.12 L 590.62 103.12 L 595.31 11.72 L 520.31 2.34 L 431.25 4.69" stroke="black" fill="transparent"/>
	<path d = "M 583.59 100.78 L 578.91 114.84 L 595.31 121.88 L 597.66 112.50 L 590.62 107.81 L 583.59 119.53" stroke="black" fill="transparent"/>
	<path d = "M 574.22 103.12 L 447.66 105.47" stroke="black" fill="transparent"/>
	<path d = "M 480.47 112.50 L 464.06 110.16 L 461.72 121.88 L 473.44 114.84 L 475.78 103.12 L 468.75 110.16" stroke="black" fill="transparent"/>
	<path d = "M 503.91 100.78 L 499.22 117.19 L 510.94 107.81 L 513.28 98.44" stroke="black" fill="transparent"/>
	<path d = "M 546.09 103.12 L 546.09 110.16 L 555.47 100.78 L 543.75 98.44" stroke="black" fill="transparent"/>
</svg>