<?xml version="1.0" encoding="UTF-8" standalone="no"?>
<!--Created with ndjsontosvg (https:https://github.com/thompson318/ndjsontosvg) 
	from the simplified Google quickdraw data set. key_id = 5379781652643840-->
<svg width="600" height="600"
	xmlns="http://www.w3.org/2000/svg">
	xmlns:ndjsontosvg="https://github.com/thompson318/ndjsontosvg"
	xmlns:quickdraw="https://quickdraw.withgoogle.com/data"
	xmlns:scikit-surgery="https://doi.org/10.1007/s11548-020-02180-5">

	<rect width="100%" height="100%" fill="white" />
	<path d = "M 178.12 14.06 L 178.12 67.97" stroke="black" fill="transparent"/>
	<path d = "M 178.12 9.38 L 318.75 0.00 L 316.41 70.31 L 180.47 70.31" stroke="black" fill="transparent"/>
	<path d = "M 321.09 56.25 L 353.91 51.56" stroke="black" fill="transparent"/>
	<path d = "M 356.25 9.38 L 356.25 86.72 L 489.84 77.34 L 487.50 18.75 L 351.56 18.75" stroke="black" fill="transparent"/>
	<path d = "M 492.19 60.94 L 532.03 60.94" stroke="black" fill="transparent"/>
	<path d = "M 546.09 23.44 L 541.41 75.00" stroke="black" fill="transparent"/>
	<path d = "M 576.56 25.78 L 597.66 30.47" stroke="black" fill="transparent"/>
	<path d = "M 546.09 79.69 L 597.66 77.34" stroke="black" fill="transparent"/>
	<path d = "M 175.78 65.62 L 0.00 79.69" stroke="black" fill="transparent"/>
	<path d = "M 2.34 91.41 L 257.81 91.41 L 325.78 82.03 L 597.66 82.03" stroke="black" fill="transparent"/>
	<path d = "M 28.12 72.66 L 30.47 91.41" stroke="black" fill="transparent"/>
	<path d = "M 53.91 75.00 L 63.28 93.75" stroke="black" fill="transparent"/>
	<path d = "M 91.41 75.00 L 103.12 105.47" stroke="black" fill="transparent"/>
	<path d = "M 147.66 75.00 L 161.72 93.75" stroke="black" fill="transparent"/>
	<path d = "M 175.78 70.31 L 208.59 100.78" stroke="black" fill="transparent"/>
	<path d = "M 239.06 72.66 L 257.81 91.41" stroke="black" fill="transparent"/>
</svg>