<?xml version="1.0" encoding="UTF-8" standalone="no"?>
<!--Created with ndjsontosvg (https:https://github.com/thompson318/ndjsontosvg) 
	from the simplified Google quickdraw data set. key_id = 6107596257755136-->
<svg width="600" height="600"
	xmlns="http://www.w3.org/2000/svg">
	xmlns:ndjsontosvg="https://github.com/thompson318/ndjsontosvg"
	xmlns:quickdraw="https://quickdraw.withgoogle.com/data"
	xmlns:scikit-surgery="https://doi.org/10.1007/s11548-020-02180-5">

	<rect width="100%" height="100%" fill="white" />
	<path d = "M 0.00 46.88 L 192.19 35.16 L 201.56 46.88 L 201.56 91.41 L 199.22 119.53 L 187.50 121.88 L 67.97 121.88 L 7.03 138.28 L 4.69 100.78 L 21.09 44.53" stroke="black" fill="transparent"/>
	<path d = "M 189.84 86.72 L 255.47 84.38" stroke="black" fill="transparent"/>
	<path d = "M 253.12 23.44 L 255.47 103.12 L 288.28 126.56 L 307.03 131.25 L 403.12 128.91 L 407.81 25.78 L 342.19 23.44 L 316.41 32.81 L 264.84 32.81" stroke="black" fill="transparent"/>
	<path d = "M 403.12 72.66 L 426.56 77.34 L 457.03 70.31" stroke="black" fill="transparent"/>
	<path d = "M 459.38 0.00 L 464.06 119.53 L 508.59 124.22 L 590.62 112.50 L 597.66 100.78 L 595.31 30.47 L 583.59 16.41 L 442.97 14.06" stroke="black" fill="transparent"/>
	<path d = "M 487.50 119.53 L 478.12 131.25 L 475.78 154.69 L 489.84 159.38 L 506.25 121.88 L 496.88 117.19" stroke="black" fill="transparent"/>
	<path d = "M 564.84 107.81 L 543.75 121.88 L 546.09 154.69 L 555.47 159.38 L 557.81 126.56" stroke="black" fill="transparent"/>
	<path d = "M 382.03 131.25 L 367.97 147.66 L 367.97 161.72 L 386.72 166.41 L 398.44 152.34 L 396.09 133.59 L 379.69 128.91" stroke="black" fill="transparent"/>
	<path d = "M 295.31 138.28 L 271.88 142.97" stroke="black" fill="transparent"/>
</svg>