<?xml version="1.0" encoding="UTF-8" standalone="no"?>
<!--Created with ndjsontosvg (https:https://github.com/thompson318/ndjsontosvg) 
	from the simplified Google quickdraw data set. key_id = 6006847783829504-->
<svg width="600" height="600"
	xmlns="http://www.w3.org/2000/svg">
	xmlns:ndjsontosvg="https://github.com/thompson318/ndjsontosvg"
	xmlns:quickdraw="https://quickdraw.withgoogle.com/data"
	xmlns:scikit-surgery="https://doi.org/10.1007/s11548-020-02180-5">

	<rect width="100%" height="100%" fill="white" />
	<path d = "M 189.84 250.78 L 206.25 302.34 L 189.84 454.69 L 168.75 553.12 L 157.03 578.91 L 140.62 585.94" stroke="black" fill="transparent"/>
	<path d = "M 353.91 217.97 L 297.66 276.56 L 262.50 344.53 L 260.16 410.16 L 234.38 571.88 L 236.72 588.28 L 257.81 597.66" stroke="black" fill="transparent"/>
	<path d = "M 147.66 353.91 L 110.16 349.22 L 67.97 325.78 L 44.53 307.03 L 21.09 274.22 L 4.69 215.62 L 0.00 124.22 L 14.06 96.09 L 25.78 84.38 L 86.72 65.62 L 145.31 14.06 L 180.47 2.34 L 349.22 0.00 L 384.38 7.03 L 440.62 58.59 L 468.75 98.44 L 501.56 131.25 L 522.66 185.16 L 529.69 229.69 L 501.56 302.34 L 485.16 325.78 L 428.91 337.50 L 346.88 337.50 L 300.00 330.47" stroke="black" fill="transparent"/>
</svg>