<?xml version="1.0" encoding="UTF-8" standalone="no"?>
<!--Created with ndjsontosvg (https:https://github.com/thompson318/ndjsontosvg) 
	from the simplified Google quickdraw data set. key_id = 5514627620274176-->
<svg width="600" height="600"
	xmlns="http://www.w3.org/2000/svg">
	xmlns:ndjsontosvg="https://github.com/thompson318/ndjsontosvg"
	xmlns:quickdraw="https://quickdraw.withgoogle.com/data"
	xmlns:scikit-surgery="https://doi.org/10.1007/s11548-020-02180-5">

	<rect width="100%" height="100%" fill="white" />
	<path d = "M 178.12 304.69 L 166.41 311.72 L 171.09 435.94 L 220.31 592.97 L 227.34 597.66 L 232.03 583.59" stroke="black" fill="transparent"/>
	<path d = "M 171.09 304.69 L 98.44 311.72 L 60.94 302.34 L 32.81 274.22 L 2.34 217.97 L 4.69 142.97 L 28.12 117.19 L 39.84 114.84 L 46.88 121.88 L 37.50 114.84 L 39.84 84.38 L 70.31 37.50 L 96.09 25.78 L 107.81 46.88 L 135.94 21.09 L 182.81 0.00 L 225.00 9.38 L 246.09 28.12 L 304.69 28.12 L 335.16 39.84 L 351.56 60.94 L 351.56 75.00 L 328.12 93.75 L 389.06 105.47 L 428.91 133.59 L 431.25 150.00 L 426.56 166.41 L 384.38 192.19 L 421.88 206.25 L 435.94 220.31 L 438.28 246.09 L 421.88 269.53 L 367.97 309.38 L 292.97 309.38 L 255.47 297.66 L 250.78 304.69 L 267.19 417.19 L 295.31 541.41 L 300.00 539.06" stroke="black" fill="transparent"/>
</svg>