<?xml version="1.0" encoding="UTF-8" standalone="no"?>
<!--Created with ndjsontosvg (https:https://github.com/thompson318/ndjsontosvg) 
	from the simplified Google quickdraw data set. key_id = 5007297073905664-->
<svg width="600" height="600"
	xmlns="http://www.w3.org/2000/svg">
	xmlns:ndjsontosvg="https://github.com/thompson318/ndjsontosvg"
	xmlns:quickdraw="https://quickdraw.withgoogle.com/data"
	xmlns:scikit-surgery="https://doi.org/10.1007/s11548-020-02180-5">

	<rect width="100%" height="100%" fill="white" />
	<path d = "M 225.00 578.91 L 253.12 496.88 L 260.16 346.88 L 215.62 342.19 L 196.88 330.47 L 192.19 307.03 L 206.25 278.91 L 112.50 314.06 L 82.03 309.38 L 53.91 290.62 L 39.84 220.31 L 18.75 215.62 L 2.34 192.19 L 0.00 150.00 L 14.06 119.53 L 28.12 110.16 L 58.59 103.12 L 70.31 110.16 L 51.56 79.69 L 56.25 46.88 L 96.09 25.78 L 159.38 23.44 L 182.81 32.81 L 215.62 11.72 L 264.84 0.00 L 407.81 2.34 L 421.88 7.03 L 421.88 21.09 L 426.56 14.06 L 485.16 14.06 L 539.06 25.78 L 557.81 37.50 L 564.84 56.25 L 555.47 70.31 L 585.94 105.47 L 595.31 126.56 L 585.94 154.69 L 564.84 180.47 L 560.16 206.25 L 595.31 241.41 L 592.97 257.81 L 534.38 292.97 L 496.88 302.34 L 492.19 321.09 L 435.94 349.22 L 363.28 351.56" stroke="black" fill="transparent"/>
	<path d = "M 278.91 351.56 L 375.00 344.53" stroke="black" fill="transparent"/>
	<path d = "M 372.66 351.56 L 365.62 419.53 L 426.56 553.12" stroke="black" fill="transparent"/>
</svg>