<?xml version="1.0" encoding="UTF-8" standalone="no"?>
<!--Created with ndjsontosvg (https:https://github.com/thompson318/ndjsontosvg) 
	from the simplified Google quickdraw data set. key_id = 5620337234411520-->
<svg width="600" height="600"
	xmlns="http://www.w3.org/2000/svg">
	xmlns:ndjsontosvg="https://github.com/thompson318/ndjsontosvg"
	xmlns:quickdraw="https://quickdraw.withgoogle.com/data"
	xmlns:scikit-surgery="https://doi.org/10.1007/s11548-020-02180-5">

	<rect width="100%" height="100%" fill="white" />
	<path d = "M 215.62 358.59 L 227.34 405.47 L 210.94 515.62 L 175.78 597.66" stroke="black" fill="transparent"/>
	<path d = "M 302.34 356.25 L 307.03 424.22 L 372.66 506.25" stroke="black" fill="transparent"/>
	<path d = "M 217.97 377.34 L 105.47 360.94 L 67.97 349.22 L 2.34 304.69 L 2.34 267.19 L 70.31 283.59 L 39.84 203.91 L 56.25 178.12 L 91.41 157.03 L 142.97 150.00 L 178.12 157.03 L 203.91 173.44 L 213.28 145.31 L 255.47 77.34 L 297.66 44.53 L 372.66 2.34 L 428.91 0.00 L 466.41 14.06 L 501.56 39.84 L 525.00 91.41 L 473.44 164.06 L 428.91 201.56 L 459.38 199.22 L 475.78 213.28 L 464.06 257.81 L 445.31 295.31 L 424.22 316.41 L 379.69 339.84 L 292.97 353.91" stroke="black" fill="transparent"/>
</svg>