<?xml version="1.0" encoding="UTF-8" standalone="no"?>
<!--Created with ndjsontosvg (https:https://github.com/thompson318/ndjsontosvg) 
	from the simplified Google quickdraw data set. key_id = 6275497354854400-->
<svg width="600" height="600"
	xmlns="http://www.w3.org/2000/svg">
	xmlns:ndjsontosvg="https://github.com/thompson318/ndjsontosvg"
	xmlns:quickdraw="https://quickdraw.withgoogle.com/data"
	xmlns:scikit-surgery="https://doi.org/10.1007/s11548-020-02180-5">

	<rect width="100%" height="100%" fill="white" />
	<path d = "M 250.78 597.66 L 250.78 297.66" stroke="black" fill="transparent"/>
	<path d = "M 367.97 578.91 L 344.53 513.28 L 314.06 271.88 L 297.66 248.44" stroke="black" fill="transparent"/>
	<path d = "M 227.34 389.06 L 189.84 384.38 L 103.12 328.12 L 70.31 285.94 L 18.75 248.44 L 0.00 194.53 L 51.56 168.75 L 91.41 25.78 L 105.47 18.75 L 234.38 11.72 L 267.19 0.00 L 318.75 7.03 L 330.47 96.09 L 339.84 114.84 L 403.12 131.25 L 417.19 166.41 L 384.38 236.72 L 396.09 262.50 L 457.03 290.62 L 461.72 311.72 L 447.66 342.19 L 393.75 400.78 L 356.25 426.56 L 309.38 431.25" stroke="black" fill="transparent"/>
	<path d = "M 290.62 255.47 L 274.22 274.22 L 260.16 330.47" stroke="black" fill="transparent"/>
	<path d = "M 65.62 578.91 L 595.31 578.91" stroke="black" fill="transparent"/>
	<path d = "M 124.22 187.50 L 159.38 222.66" stroke="black" fill="transparent"/>
	<path d = "M 189.84 135.94 L 246.09 135.94" stroke="black" fill="transparent"/>
	<path d = "M 150.00 89.06 L 210.94 89.06" stroke="black" fill="transparent"/>
	<path d = "M 107.81 79.69 L 220.31 79.69" stroke="black" fill="transparent"/>
</svg>