<?xml version="1.0" encoding="UTF-8" standalone="no"?>
<!--Created with ndjsontosvg (https:https://github.com/thompson318/ndjsontosvg) 
	from the simplified Google quickdraw data set. key_id = 5108026660880384-->
<svg width="600" height="600"
	xmlns="http://www.w3.org/2000/svg">
	xmlns:ndjsontosvg="https://github.com/thompson318/ndjsontosvg"
	xmlns:quickdraw="https://quickdraw.withgoogle.com/data"
	xmlns:scikit-surgery="https://doi.org/10.1007/s11548-020-02180-5">

	<rect width="100%" height="100%" fill="white" />
	<path d = "M 220.31 590.62 L 210.94 487.50 L 208.59 318.75" stroke="black" fill="transparent"/>
	<path d = "M 290.62 567.19 L 269.53 412.50 L 267.19 318.75" stroke="black" fill="transparent"/>
	<path d = "M 269.53 307.03 L 283.59 328.12 L 316.41 342.19 L 342.19 337.50 L 360.94 323.44 L 400.78 269.53 L 412.50 185.16 L 391.41 119.53 L 351.56 58.59 L 311.72 32.81 L 278.91 60.94 L 250.78 7.03 L 236.72 0.00 L 140.62 49.22 L 93.75 89.06 L 70.31 98.44 L 39.84 131.25 L 30.47 164.06 L 2.34 208.59 L 4.69 241.41 L 39.84 276.56 L 58.59 274.22 L 79.69 302.34 L 138.28 316.41 L 189.84 316.41" stroke="black" fill="transparent"/>
	<path d = "M 119.53 597.66 L 321.09 569.53 L 485.16 564.84 L 553.12 576.56" stroke="black" fill="transparent"/>
</svg>