<?xml version="1.0" encoding="UTF-8" standalone="no"?>
<!--Created with ndjsontosvg (https:https://github.com/thompson318/ndjsontosvg) 
	from the simplified Google quickdraw data set. key_id = 6098756728520704-->
<svg width="600" height="600"
	xmlns="http://www.w3.org/2000/svg">
	xmlns:ndjsontosvg="https://github.com/thompson318/ndjsontosvg"
	xmlns:quickdraw="https://quickdraw.withgoogle.com/data"
	xmlns:scikit-surgery="https://doi.org/10.1007/s11548-020-02180-5">

	<rect width="100%" height="100%" fill="white" />
	<path d = "M 77.34 203.91 L 103.12 281.25 L 105.47 417.19 L 72.66 508.59 L 42.19 553.12 L 0.00 597.66" stroke="black" fill="transparent"/>
	<path d = "M 217.97 189.84 L 187.50 243.75 L 175.78 281.25 L 175.78 398.44 L 199.22 464.06 L 234.38 527.34 L 260.16 555.47 L 288.28 569.53" stroke="black" fill="transparent"/>
	<path d = "M 84.38 192.19 L 53.91 194.53 L 37.50 182.81 L 32.81 131.25 L 42.19 112.50 L 70.31 103.12 L 98.44 128.91 L 105.47 75.00 L 126.56 49.22 L 152.34 39.84 L 180.47 46.88 L 182.81 89.06 L 194.53 39.84 L 208.59 11.72 L 232.03 2.34 L 264.84 2.34 L 290.62 21.09 L 300.00 49.22 L 262.50 89.06 L 304.69 79.69 L 344.53 84.38 L 370.31 117.19 L 372.66 145.31 L 349.22 178.12 L 307.03 201.56 L 241.41 220.31 L 182.81 225.00" stroke="black" fill="transparent"/>
</svg>