<?xml version="1.0" encoding="UTF-8" standalone="no"?>
<!--Created with ndjsontosvg (https:https://github.com/thompson318/ndjsontosvg) 
	from the simplified Google quickdraw data set. key_id = 4767085592838144-->
<svg width="600" height="600"
	xmlns="http://www.w3.org/2000/svg">
	xmlns:ndjsontosvg="https://github.com/thompson318/ndjsontosvg"
	xmlns:quickdraw="https://quickdraw.withgoogle.com/data"
	xmlns:scikit-surgery="https://doi.org/10.1007/s11548-020-02180-5">

	<rect width="100%" height="100%" fill="white" />
	<path d = "M 0.00 597.66 L 65.62 508.59 L 96.09 438.28 L 145.31 220.31" stroke="black" fill="transparent"/>
	<path d = "M 377.34 581.25 L 339.84 569.53 L 318.75 555.47 L 295.31 522.66 L 283.59 482.81 L 278.91 440.62 L 307.03 220.31" stroke="black" fill="transparent"/>
	<path d = "M 131.25 281.25 L 60.94 281.25 L 39.84 264.84 L 28.12 243.75 L 23.44 215.62 L 30.47 150.00 L 53.91 91.41 L 96.09 44.53 L 157.03 11.72 L 222.66 0.00 L 337.50 7.03 L 400.78 30.47 L 447.66 75.00 L 468.75 142.97 L 466.41 178.12 L 457.03 208.59 L 435.94 239.06 L 379.69 285.94 L 344.53 302.34 L 260.16 309.38" stroke="black" fill="transparent"/>
</svg>