<?xml version="1.0" encoding="UTF-8" standalone="no"?>
<!--Created with ndjsontosvg (https:https://github.com/thompson318/ndjsontosvg) 
	from the simplified Google quickdraw data set. key_id = 5164268964020224-->
<svg width="600" height="600"
	xmlns="http://www.w3.org/2000/svg">
	xmlns:ndjsontosvg="https://github.com/thompson318/ndjsontosvg"
	xmlns:quickdraw="https://quickdraw.withgoogle.com/data"
	xmlns:scikit-surgery="https://doi.org/10.1007/s11548-020-02180-5">

	<rect width="100%" height="100%" fill="white" />
	<path d = "M 386.72 196.88 L 382.03 4.69 L 389.06 0.00 L 412.50 4.69 L 433.59 35.16 L 461.72 100.78 L 468.75 135.94 L 461.72 180.47 L 431.25 201.56 L 396.09 196.88" stroke="black" fill="transparent"/>
	<path d = "M 379.69 79.69 L 246.09 67.97 L 110.16 86.72 L 21.09 117.19 L 2.34 159.38 L 0.00 194.53 L 39.84 213.28 L 173.44 250.78 L 274.22 260.16 L 330.47 285.94 L 379.69 297.66 L 513.28 290.62 L 592.97 274.22" stroke="black" fill="transparent"/>
	<path d = "M 597.66 264.84 L 499.22 255.47 L 382.03 213.28 L 304.69 225.00 L 243.75 215.62 L 187.50 192.19 L 56.25 180.47 L 46.88 145.31 L 63.28 126.56 L 86.72 117.19 L 213.28 100.78 L 389.06 117.19" stroke="black" fill="transparent"/>
	<path d = "M 128.91 75.00 L 117.19 187.50" stroke="black" fill="transparent"/>
</svg>