<?xml version="1.0" encoding="UTF-8" standalone="no"?>
<!--Created with ndjsontosvg (https:https://github.com/thompson318/ndjsontosvg) 
	from the simplified Google quickdraw data set. key_id = 5143219283165184-->
<svg width="600" height="600"
	xmlns="http://www.w3.org/2000/svg">
	xmlns:ndjsontosvg="https://github.com/thompson318/ndjsontosvg"
	xmlns:quickdraw="https://quickdraw.withgoogle.com/data"
	xmlns:scikit-surgery="https://doi.org/10.1007/s11548-020-02180-5">

	<rect width="100%" height="100%" fill="white" />
	<path d = "M 391.41 11.72 L 372.66 0.00 L 346.88 0.00 L 295.31 16.41 L 264.84 46.88 L 260.16 84.38 L 323.44 117.19 L 393.75 119.53 L 410.16 112.50 L 424.22 100.78 L 431.25 56.25 L 421.88 35.16 L 391.41 7.03" stroke="black" fill="transparent"/>
	<path d = "M 363.28 49.22 L 351.56 42.19 L 339.84 44.53 L 330.47 65.62 L 349.22 70.31 L 358.59 58.59 L 358.59 42.19" stroke="black" fill="transparent"/>
	<path d = "M 260.16 46.88 L 246.09 39.84 L 28.12 35.16 L 14.06 49.22 L 0.00 93.75 L 0.00 112.50 L 9.38 126.56 L 44.53 154.69 L 84.38 171.09 L 424.22 166.41 L 525.00 173.44 L 578.91 168.75 L 595.31 161.72 L 592.97 145.31 L 400.78 142.97 L 363.28 154.69 L 321.09 154.69 L 276.56 145.31 L 140.62 138.28 L 53.91 119.53 L 30.47 103.12 L 30.47 93.75 L 46.88 82.03 L 290.62 82.03" stroke="black" fill="transparent"/>
</svg>