<?xml version="1.0" encoding="UTF-8" standalone="no"?>
<!--Created with ndjsontosvg (https:https://github.com/thompson318/ndjsontosvg) 
	from the simplified Google quickdraw data set. key_id = 5147154257543168-->
<svg width="600" height="600"
	xmlns="http://www.w3.org/2000/svg">
	xmlns:ndjsontosvg="https://github.com/thompson318/ndjsontosvg"
	xmlns:quickdraw="https://quickdraw.withgoogle.com/data"
	xmlns:scikit-surgery="https://doi.org/10.1007/s11548-020-02180-5">

	<rect width="100%" height="100%" fill="white" />
	<path d = "M 300.00 11.72 L 267.19 0.00 L 225.00 0.00 L 16.41 30.47 L 0.00 79.69 L 0.00 114.84 L 9.38 157.03 L 25.78 164.06 L 35.16 145.31 L 37.50 105.47 L 14.06 39.84" stroke="black" fill="transparent"/>
	<path d = "M 21.09 178.12 L 58.59 168.75 L 126.56 114.84 L 203.91 70.31 L 243.75 58.59 L 316.41 53.91" stroke="black" fill="transparent"/>
	<path d = "M 276.56 9.38 L 346.88 28.12 L 520.31 25.78 L 431.25 44.53 L 344.53 49.22 L 271.88 65.62" stroke="black" fill="transparent"/>
	<path d = "M 271.88 53.91 L 203.91 67.97 L 138.28 103.12 L 103.12 142.97 L 100.78 161.72 L 110.16 171.09 L 161.72 185.16 L 255.47 185.16 L 454.69 166.41 L 550.78 147.66 L 595.31 119.53 L 597.66 98.44 L 581.25 72.66 L 548.44 49.22 L 517.97 37.50 L 546.09 2.34 L 560.16 2.34 L 562.50 18.75 L 557.81 23.44 L 517.97 21.09" stroke="black" fill="transparent"/>
</svg>