<?xml version="1.0" encoding="UTF-8" standalone="no"?>
<!--Created with ndjsontosvg (https:https://github.com/thompson318/ndjsontosvg) 
	from the simplified Google quickdraw data set. key_id = 6326678844342272-->
<svg width="600" height="600"
	xmlns="http://www.w3.org/2000/svg">
	xmlns:ndjsontosvg="https://github.com/thompson318/ndjsontosvg"
	xmlns:quickdraw="https://quickdraw.withgoogle.com/data"
	xmlns:scikit-surgery="https://doi.org/10.1007/s11548-020-02180-5">

	<rect width="100%" height="100%" fill="white" />
	<path d = "M 93.75 107.81 L 89.06 58.59 L 119.53 30.47 L 182.81 16.41 L 246.09 18.75 L 281.25 35.16 L 300.00 58.59 L 304.69 105.47 L 292.97 135.94 L 232.03 194.53 L 178.12 215.62 L 91.41 217.97 L 28.12 203.91 L 25.78 173.44 L 9.38 166.41 L 0.00 201.56 L 30.47 194.53 L 25.78 201.56" stroke="black" fill="transparent"/>
	<path d = "M 23.44 164.06 L 39.84 171.09 L 168.75 166.41 L 227.34 142.97 L 246.09 112.50 L 241.41 70.31 L 208.59 42.19 L 180.47 37.50 L 142.97 77.34 L 133.59 124.22 L 164.06 152.34 L 192.19 164.06" stroke="black" fill="transparent"/>
	<path d = "M 86.72 96.09 L 98.44 119.53 L 126.56 145.31 L 171.09 171.09" stroke="black" fill="transparent"/>
	<path d = "M 276.56 159.38 L 321.09 159.38 L 389.06 135.94 L 475.78 67.97" stroke="black" fill="transparent"/>
	<path d = "M 243.75 185.16 L 290.62 196.88 L 400.78 192.19 L 475.78 178.12 L 569.53 135.94" stroke="black" fill="transparent"/>
	<path d = "M 471.09 65.62 L 464.06 42.19 L 468.75 16.41 L 487.50 2.34 L 517.97 0.00 L 550.78 11.72 L 569.53 30.47 L 595.31 86.72 L 595.31 133.59 L 581.25 157.03 L 567.19 159.38 L 541.41 147.66 L 503.91 110.16 L 480.47 82.03 L 466.41 51.56" stroke="black" fill="transparent"/>
	<path d = "M 365.62 138.28 L 356.25 107.81 L 339.84 110.16 L 335.16 96.09 L 377.34 84.38 L 375.00 93.75 L 358.59 105.47" stroke="black" fill="transparent"/>
	<path d = "M 365.62 103.12 L 365.62 103.12" stroke="black" fill="transparent"/>
	<path d = "M 424.22 124.22 L 417.19 91.41" stroke="black" fill="transparent"/>
	<path d = "M 414.84 93.75 L 400.78 86.72 L 412.50 70.31 L 424.22 70.31 L 426.56 84.38 L 403.12 98.44" stroke="black" fill="transparent"/>
	<path d = "M 435.94 82.03 L 442.97 105.47" stroke="black" fill="transparent"/>
	<path d = "M 440.62 89.06 L 424.22 67.97 L 426.56 56.25 L 435.94 51.56 L 447.66 53.91 L 452.34 67.97 L 445.31 89.06" stroke="black" fill="transparent"/>
	<path d = "M 389.06 135.94 L 384.38 107.81 L 367.97 96.09 L 398.44 86.72 L 410.16 89.06 L 407.81 103.12 L 365.62 105.47" stroke="black" fill="transparent"/>
	<path d = "M 330.47 161.72 L 318.75 124.22 L 307.03 121.88 L 302.34 110.16 L 332.81 103.12 L 330.47 117.19" stroke="black" fill="transparent"/>
</svg>