<?xml version="1.0" encoding="UTF-8" standalone="no"?>
<!--Created with ndjsontosvg (https:https://github.com/thompson318/ndjsontosvg) 
	from the simplified Google quickdraw data set. key_id = 5777575286669312-->
<svg width="600" height="600"
	xmlns="http://www.w3.org/2000/svg">
	xmlns:ndjsontosvg="https://github.com/thompson318/ndjsontosvg"
	xmlns:quickdraw="https://quickdraw.withgoogle.com/data"
	xmlns:scikit-surgery="https://doi.org/10.1007/s11548-020-02180-5">

	<rect width="100%" height="100%" fill="white" />
	<path d = "M 356.25 107.81 L 346.88 58.59 L 332.81 32.81 L 288.28 4.69 L 220.31 0.00 L 112.50 23.44 L 96.09 37.50 L 89.06 128.91 L 44.53 126.56 L 9.38 140.62 L 0.00 168.75 L 14.06 189.84 L 49.22 210.94 L 98.44 215.62 L 457.03 178.12 L 578.91 189.84 L 595.31 175.78 L 597.66 168.75 L 564.84 100.78 L 539.06 82.03 L 482.81 77.34 L 337.50 91.41" stroke="black" fill="transparent"/>
	<path d = "M 550.78 185.16 L 527.34 189.84 L 499.22 220.31 L 506.25 250.78 L 532.03 260.16 L 560.16 241.41 L 567.19 215.62 L 555.47 196.88 L 527.34 189.84" stroke="black" fill="transparent"/>
	<path d = "M 351.56 192.19 L 321.09 203.91 L 304.69 229.69 L 318.75 253.12 L 351.56 264.84 L 389.06 248.44 L 396.09 234.38 L 396.09 213.28 L 367.97 189.84 L 323.44 194.53" stroke="black" fill="transparent"/>
	<path d = "M 124.22 208.59 L 107.81 213.28 L 96.09 225.00 L 96.09 255.47 L 124.22 288.28 L 142.97 285.94 L 154.69 276.56 L 164.06 255.47 L 145.31 220.31 L 131.25 210.94 L 107.81 210.94 L 89.06 229.69" stroke="black" fill="transparent"/>
	<path d = "M 196.88 217.97 L 178.12 229.69 L 185.16 248.44 L 201.56 229.69 L 196.88 220.31 L 187.50 213.28" stroke="black" fill="transparent"/>
	<path d = "M 138.28 39.84 L 135.94 84.38 L 142.97 93.75 L 210.94 105.47 L 201.56 65.62" stroke="black" fill="transparent"/>
</svg>