<?xml version="1.0" encoding="UTF-8" standalone="no"?>
<!--Created with ndjsontosvg (https:https://github.com/thompson318/ndjsontosvg) 
	from the simplified Google quickdraw data set. key_id = 5895373220478976-->
<svg width="600" height="600"
	xmlns="http://www.w3.org/2000/svg">
	xmlns:ndjsontosvg="https://github.com/thompson318/ndjsontosvg"
	xmlns:quickdraw="https://quickdraw.withgoogle.com/data"
	xmlns:scikit-surgery="https://doi.org/10.1007/s11548-020-02180-5">

	<rect width="100%" height="100%" fill="white" />
	<path d = "M 128.91 257.81 L 105.47 255.47 L 89.06 269.53 L 86.72 292.97 L 93.75 337.50 L 114.84 356.25 L 178.12 379.69 L 232.03 391.41 L 234.38 367.97 L 206.25 332.81" stroke="black" fill="transparent"/>
	<path d = "M 128.91 253.12 L 154.69 248.44 L 192.19 260.16 L 220.31 316.41 L 225.00 356.25 L 210.94 358.59" stroke="black" fill="transparent"/>
	<path d = "M 100.78 253.12 L 356.25 253.12" stroke="black" fill="transparent"/>
	<path d = "M 337.50 267.19 L 307.03 271.88 L 304.69 290.62 L 318.75 316.41 L 349.22 342.19 L 424.22 365.62 L 506.25 365.62 L 510.94 335.16 L 473.44 290.62 L 323.44 267.19 L 285.94 274.22" stroke="black" fill="transparent"/>
	<path d = "M 150.00 241.41 L 60.94 246.09 L 35.16 232.03 L 4.69 194.53 L 4.69 145.31 L 89.06 128.91 L 154.69 121.88 L 274.22 126.56 L 478.12 164.06 L 473.44 178.12 L 466.41 171.09 L 543.75 173.44 L 581.25 182.81 L 597.66 203.91 L 590.62 236.72 L 557.81 281.25 L 496.88 339.84 L 454.69 353.91 L 417.19 342.19 L 363.28 339.84 L 360.94 332.81" stroke="black" fill="transparent"/>
	<path d = "M 292.97 133.59 L 297.66 112.50 L 304.69 107.81 L 292.97 96.09 L 309.38 65.62 L 311.72 32.81 L 332.81 2.34 L 433.59 4.69 L 529.69 28.12 L 557.81 42.19 L 557.81 75.00 L 541.41 157.03 L 546.09 173.44" stroke="black" fill="transparent"/>
	<path d = "M 375.00 58.59 L 370.31 56.25 L 372.66 65.62 L 344.53 105.47 L 344.53 140.62 L 382.03 168.75 L 417.19 178.12 L 492.19 178.12 L 494.53 131.25 L 482.81 82.03" stroke="black" fill="transparent"/>
</svg>