<?xml version="1.0" encoding="UTF-8" standalone="no"?>
<!--Created with ndjsontosvg (https:https://github.com/thompson318/ndjsontosvg) 
	from the simplified Google quickdraw data set. key_id = 5086032670228480-->
<svg width="600" height="600"
	xmlns="http://www.w3.org/2000/svg">
	xmlns:ndjsontosvg="https://github.com/thompson318/ndjsontosvg"
	xmlns:quickdraw="https://quickdraw.withgoogle.com/data"
	xmlns:scikit-surgery="https://doi.org/10.1007/s11548-020-02180-5">

	<rect width="100%" height="100%" fill="white" />
	<path d = "M 75.00 0.00 L 46.88 18.75 L 9.38 82.03 L 0.00 138.28 L 11.72 171.09 L 25.78 189.84 L 58.59 189.84 L 93.75 171.09 L 117.19 133.59 L 126.56 100.78 L 126.56 51.56 L 112.50 21.09 L 100.78 11.72 L 82.03 14.06" stroke="black" fill="transparent"/>
	<path d = "M 65.62 37.50 L 37.50 77.34 L 30.47 124.22 L 39.84 138.28 L 58.59 131.25 L 72.66 110.16 L 75.00 84.38" stroke="black" fill="transparent"/>
	<path d = "M 79.69 11.72 L 173.44 67.97 L 248.44 89.06 L 346.88 86.72 L 461.72 58.59" stroke="black" fill="transparent"/>
	<path d = "M 75.00 173.44 L 290.62 131.25 L 480.47 117.19" stroke="black" fill="transparent"/>
	<path d = "M 468.75 51.56 L 571.88 18.75 L 597.66 103.12 L 520.31 105.47 L 466.41 114.84" stroke="black" fill="transparent"/>
	<path d = "M 576.56 21.09 L 574.22 67.97" stroke="black" fill="transparent"/>
	<path d = "M 569.53 44.53 L 557.81 37.50 L 560.16 65.62 L 567.19 82.03 L 569.53 65.62 L 583.59 93.75" stroke="black" fill="transparent"/>
	<path d = "M 203.91 138.28 L 215.62 206.25 L 232.03 243.75 L 257.81 269.53 L 292.97 285.94 L 370.31 295.31 L 424.22 283.59 L 457.03 267.19 L 485.16 220.31 L 489.84 157.03 L 475.78 135.94 L 450.00 142.97 L 382.03 142.97 L 398.44 187.50 L 405.47 232.03 L 398.44 269.53 L 382.03 278.91 L 342.19 269.53 L 300.00 241.41 L 267.19 192.19 L 262.50 161.72" stroke="black" fill="transparent"/>
	<path d = "M 241.41 86.72 L 241.41 16.41" stroke="black" fill="transparent"/>
	<path d = "M 309.38 98.44 L 316.41 39.84" stroke="black" fill="transparent"/>
	<path d = "M 391.41 89.06 L 398.44 35.16" stroke="black" fill="transparent"/>
	<path d = "M 417.19 0.00 L 417.19 0.00" stroke="black" fill="transparent"/>
</svg>