<?xml version="1.0" encoding="UTF-8" standalone="no"?>
<!--Created with ndjsontosvg (https:https://github.com/thompson318/ndjsontosvg) 
	from the simplified Google quickdraw data set. key_id = 5809384246476800-->
<svg width="600" height="600"
	xmlns="http://www.w3.org/2000/svg">
	xmlns:ndjsontosvg="https://github.com/thompson318/ndjsontosvg"
	xmlns:quickdraw="https://quickdraw.withgoogle.com/data"
	xmlns:scikit-surgery="https://doi.org/10.1007/s11548-020-02180-5">

	<rect width="100%" height="100%" fill="white" />
	<path d = "M 60.94 189.84 L 77.34 182.81 L 203.91 189.84 L 307.03 182.81 L 393.75 159.38" stroke="black" fill="transparent"/>
	<path d = "M 414.84 150.00 L 421.88 119.53 L 440.62 96.09 L 475.78 67.97 L 550.78 35.16 L 562.50 16.41" stroke="black" fill="transparent"/>
	<path d = "M 426.56 154.69 L 428.91 203.91 L 454.69 246.09 L 517.97 274.22 L 578.91 274.22" stroke="black" fill="transparent"/>
	<path d = "M 597.66 0.00 L 576.56 124.22 L 571.88 325.78" stroke="black" fill="transparent"/>
	<path d = "M 49.22 199.22 L 98.44 124.22 L 159.38 98.44 L 222.66 84.38 L 260.16 82.03 L 335.16 93.75 L 365.62 114.84 L 377.34 164.06 L 372.66 217.97 L 328.12 290.62 L 297.66 316.41 L 187.50 337.50 L 145.31 328.12 L 89.06 283.59 L 44.53 222.66 L 44.53 189.84 L 100.78 147.66 L 173.44 140.62 L 360.94 140.62 L 410.16 166.41" stroke="black" fill="transparent"/>
	<path d = "M 353.91 180.47 L 25.78 196.88 L 0.00 187.50" stroke="black" fill="transparent"/>
</svg>