<?xml version="1.0" encoding="UTF-8" standalone="no"?>
<!--Created with ndjsontosvg (https:https://github.com/thompson318/ndjsontosvg) 
	from the simplified Google quickdraw data set. key_id = 6574926335049728-->
<svg width="600" height="600"
	xmlns="http://www.w3.org/2000/svg">
	xmlns:ndjsontosvg="https://github.com/thompson318/ndjsontosvg"
	xmlns:quickdraw="https://quickdraw.withgoogle.com/data"
	xmlns:scikit-surgery="https://doi.org/10.1007/s11548-020-02180-5">

	<rect width="100%" height="100%" fill="white" />
	<path d = "M 18.75 0.00 L 0.00 222.66 L 35.16 171.09 L 58.59 150.00 L 285.94 128.91 L 445.31 121.88" stroke="black" fill="transparent"/>
	<path d = "M 16.41 7.03 L 46.88 93.75 L 58.59 100.78 L 243.75 105.47 L 241.41 89.06 L 260.16 39.84 L 358.59 42.19 L 363.28 49.22 L 391.41 42.19 L 428.91 42.19 L 452.34 46.88 L 442.97 86.72 L 553.12 86.72" stroke="black" fill="transparent"/>
	<path d = "M 494.53 121.88 L 560.16 121.88 L 567.19 124.22 L 567.19 138.28 L 581.25 133.59 L 597.66 121.88 L 597.66 112.50 L 581.25 98.44 L 574.22 79.69 L 555.47 72.66 L 550.78 84.38" stroke="black" fill="transparent"/>
	<path d = "M 424.22 126.56 L 503.91 121.88" stroke="black" fill="transparent"/>
	<path d = "M 283.59 42.19 L 288.28 89.06" stroke="black" fill="transparent"/>
	<path d = "M 323.44 44.53 L 330.47 89.06" stroke="black" fill="transparent"/>
	<path d = "M 353.91 42.19 L 353.91 91.41" stroke="black" fill="transparent"/>
</svg>