<?xml version="1.0" encoding="UTF-8" standalone="no"?>
<!--Created with ndjsontosvg (https:https://github.com/thompson318/ndjsontosvg) 
	from the simplified Google quickdraw data set. key_id = 6002706361614336-->
<svg width="600" height="600"
	xmlns="http://www.w3.org/2000/svg">
	xmlns:ndjsontosvg="https://github.com/thompson318/ndjsontosvg"
	xmlns:quickdraw="https://quickdraw.withgoogle.com/data"
	xmlns:scikit-surgery="https://doi.org/10.1007/s11548-020-02180-5">

	<rect width="100%" height="100%" fill="white" />
	<path d = "M 107.81 2.34 L 77.34 2.34 L 32.81 44.53 L 4.69 91.41 L 0.00 124.22 L 0.00 154.69 L 25.78 196.88 L 79.69 229.69 L 107.81 234.38 L 138.28 222.66 L 180.47 166.41 L 182.81 103.12 L 166.41 60.94 L 128.91 32.81 L 70.31 14.06" stroke="black" fill="transparent"/>
	<path d = "M 182.81 150.00 L 405.47 117.19 L 539.06 124.22 L 588.28 135.94 L 597.66 147.66 L 543.75 175.78 L 494.53 185.16 L 440.62 194.53 L 264.84 199.22 L 133.59 217.97" stroke="black" fill="transparent"/>
	<path d = "M 248.44 117.19 L 269.53 133.59" stroke="black" fill="transparent"/>
	<path d = "M 309.38 107.81 L 330.47 119.53" stroke="black" fill="transparent"/>
	<path d = "M 412.50 82.03 L 412.50 82.03" stroke="black" fill="transparent"/>
</svg>