<?xml version="1.0" encoding="UTF-8" standalone="no"?>
<!--Created with ndjsontosvg (https:https://github.com/thompson318/ndjsontosvg) 
	from the simplified Google quickdraw data set. key_id = 5873310925586432-->
<svg width="600" height="600"
	xmlns="http://www.w3.org/2000/svg">
	xmlns:ndjsontosvg="https://github.com/thompson318/ndjsontosvg"
	xmlns:quickdraw="https://quickdraw.withgoogle.com/data"
	xmlns:scikit-surgery="https://doi.org/10.1007/s11548-020-02180-5">

	<rect width="100%" height="100%" fill="white" />
	<path d = "M 346.88 560.16 L 309.38 210.94 L 278.91 267.19 L 253.12 295.31 L 227.34 307.03 L 208.59 309.38 L 154.69 232.03 L 142.97 267.19 L 126.56 278.91 L 51.56 285.94 L 11.72 260.16 L 0.00 227.34 L 58.59 128.91 L 96.09 91.41 L 164.06 44.53 L 260.16 7.03 L 344.53 0.00 L 450.00 53.91 L 508.59 100.78 L 571.88 168.75 L 597.66 227.34 L 581.25 262.50 L 567.19 274.22 L 546.09 283.59 L 522.66 278.91 L 487.50 262.50 L 466.41 217.97 L 454.69 168.75 L 431.25 288.28 L 414.84 318.75 L 396.09 337.50 L 370.31 344.53 L 290.62 255.47 L 271.88 210.94 L 292.97 225.00" stroke="black" fill="transparent"/>
</svg>