<?xml version="1.0" encoding="UTF-8" standalone="no"?>
<!--Created with ndjsontosvg (https:https://github.com/thompson318/ndjsontosvg) 
	from the simplified Google quickdraw data set. key_id = 6083672182620160-->
<svg width="600" height="600"
	xmlns="http://www.w3.org/2000/svg">
	xmlns:ndjsontosvg="https://github.com/thompson318/ndjsontosvg"
	xmlns:quickdraw="https://quickdraw.withgoogle.com/data"
	xmlns:scikit-surgery="https://doi.org/10.1007/s11548-020-02180-5">

	<rect width="100%" height="100%" fill="white" />
	<path d = "M 21.09 77.34 L 53.91 49.22 L 175.78 30.47 L 450.00 23.44 L 529.69 44.53 L 578.91 96.09 L 597.66 154.69 L 578.91 157.03 L 541.41 126.56 L 515.62 150.00 L 487.50 152.34 L 452.34 140.62 L 391.41 159.38 L 318.75 112.50 L 239.06 150.00 L 173.44 119.53 L 70.31 133.59 L 21.09 103.12 L 0.00 79.69 L 9.38 65.62 L 25.78 63.28 L 56.25 44.53" stroke="black" fill="transparent"/>
	<path d = "M 264.84 0.00 L 271.88 18.75" stroke="black" fill="transparent"/>
	<path d = "M 271.88 18.75 L 285.94 2.34 L 292.97 25.78" stroke="black" fill="transparent"/>
	<path d = "M 300.00 117.19 L 323.44 229.69 L 318.75 309.38 L 307.03 337.50 L 285.94 346.88 L 264.84 342.19 L 253.12 318.75" stroke="black" fill="transparent"/>
</svg>