<?xml version="1.0" encoding="UTF-8" standalone="no"?>
<!--Created with ndjsontosvg (https:https://github.com/thompson318/ndjsontosvg) 
	from the simplified Google quickdraw data set. key_id = 4931540851097600-->
<svg width="600" height="600"
	xmlns="http://www.w3.org/2000/svg">
	xmlns:ndjsontosvg="https://github.com/thompson318/ndjsontosvg"
	xmlns:quickdraw="https://quickdraw.withgoogle.com/data"
	xmlns:scikit-surgery="https://doi.org/10.1007/s11548-020-02180-5">

	<rect width="100%" height="100%" fill="white" />
	<path d = "M 18.75 11.72 L 150.00 9.38 L 257.81 30.47 L 330.47 56.25 L 367.97 60.94 L 595.31 46.88 L 597.66 107.81 L 562.50 159.38 L 431.25 264.84 L 403.12 316.41 L 379.69 339.84 L 292.97 400.78 L 241.41 447.66 L 213.28 464.06 L 180.47 468.75 L 150.00 403.12 L 70.31 164.06 L 9.38 42.19 L 0.00 7.03 L 14.06 0.00 L 35.16 2.34 L 58.59 86.72 L 79.69 131.25 L 107.81 178.12 L 171.09 250.78 L 215.62 328.12 L 241.41 356.25 L 285.94 367.97 L 353.91 295.31" stroke="black" fill="transparent"/>
</svg>