<?xml version="1.0" encoding="UTF-8" standalone="no"?>
<!--Created with ndjsontosvg (https:https://github.com/thompson318/ndjsontosvg) 
	from the simplified Google quickdraw data set. key_id = 6079191143415808-->
<svg width="600" height="600"
	xmlns="http://www.w3.org/2000/svg">
	xmlns:ndjsontosvg="https://github.com/thompson318/ndjsontosvg"
	xmlns:quickdraw="https://quickdraw.withgoogle.com/data"
	xmlns:scikit-surgery="https://doi.org/10.1007/s11548-020-02180-5">

	<rect width="100%" height="100%" fill="white" />
	<path d = "M 39.84 63.28 L 65.62 63.28 L 89.06 79.69 L 161.72 180.47 L 161.72 208.59 L 175.78 264.84 L 175.78 360.94 L 206.25 367.97 L 382.03 367.97 L 396.09 304.69 L 407.81 140.62 L 421.88 89.06 L 445.31 58.59 L 515.62 18.75 L 562.50 4.69 L 7.03 0.00 L 0.00 25.78 L 49.22 53.91" stroke="black" fill="transparent"/>
	<path d = "M 14.06 44.53 L 4.69 72.66 L 4.69 175.78 L 39.84 269.53 L 84.38 318.75 L 157.03 337.50" stroke="black" fill="transparent"/>
	<path d = "M 553.12 18.75 L 576.56 37.50 L 592.97 67.97 L 597.66 119.53 L 597.66 232.03 L 562.50 358.59 L 536.72 367.97 L 391.41 367.97" stroke="black" fill="transparent"/>
	<path d = "M 171.09 126.56 L 337.50 112.50" stroke="black" fill="transparent"/>
</svg>