<?xml version="1.0" encoding="UTF-8" standalone="no"?>
<!--Created with ndjsontosvg (https:https://github.com/thompson318/ndjsontosvg) 
	from the simplified Google quickdraw data set. key_id = 6183698938462208-->
<svg width="600" height="600"
	xmlns="http://www.w3.org/2000/svg">
	xmlns:ndjsontosvg="https://github.com/thompson318/ndjsontosvg"
	xmlns:quickdraw="https://quickdraw.withgoogle.com/data"
	xmlns:scikit-surgery="https://doi.org/10.1007/s11548-020-02180-5">

	<rect width="100%" height="100%" fill="white" />
	<path d = "M 7.03 335.16 L 0.00 168.75 L 18.75 35.16 L 32.81 2.34 L 447.66 9.38 L 478.12 21.09 L 485.16 77.34 L 482.81 171.09 L 567.19 208.59 L 592.97 243.75 L 597.66 311.72 L 581.25 349.22 L 522.66 351.56 L 445.31 337.50 L 421.88 290.62 L 414.84 208.59 L 391.41 196.88 L 372.66 199.22 L 358.59 213.28 L 335.16 276.56 L 309.38 309.38 L 271.88 309.38 L 225.00 288.28 L 215.62 267.19 L 217.97 210.94 L 199.22 194.53 L 171.09 192.19 L 145.31 213.28 L 121.88 255.47 L 107.81 295.31 L 89.06 316.41 L 46.88 328.12 L 9.38 328.12 L 0.00 323.44" stroke="black" fill="transparent"/>
	<path d = "M 173.44 353.91 L 150.00 353.91 L 131.25 325.78 L 126.56 300.00 L 133.59 220.31 L 145.31 203.91 L 173.44 185.16 L 213.28 189.84 L 220.31 241.41 L 199.22 285.94 L 157.03 342.19 L 135.94 346.88 L 128.91 332.81" stroke="black" fill="transparent"/>
	<path d = "M 386.72 367.97 L 370.31 370.31 L 349.22 351.56 L 332.81 321.09 L 332.81 288.28 L 351.56 255.47 L 386.72 222.66 L 410.16 227.34 L 419.53 255.47 L 419.53 311.72 L 410.16 344.53 L 377.34 386.72 L 356.25 391.41 L 332.81 389.06" stroke="black" fill="transparent"/>
</svg>