<?xml version="1.0" encoding="UTF-8" standalone="no"?>
<!--Created with ndjsontosvg (https:https://github.com/thompson318/ndjsontosvg) 
	from the simplified Google quickdraw data set. key_id = 5357637321359360-->
<svg width="600" height="600"
	xmlns="http://www.w3.org/2000/svg">
	xmlns:ndjsontosvg="https://github.com/thompson318/ndjsontosvg"
	xmlns:quickdraw="https://quickdraw.withgoogle.com/data"
	xmlns:scikit-surgery="https://doi.org/10.1007/s11548-020-02180-5">

	<rect width="100%" height="100%" fill="white" />
	<path d = "M 365.62 18.75 L 189.84 16.41 L 103.12 32.81 L 56.25 53.91 L 28.12 93.75 L 4.69 187.50 L 0.00 264.84 L 9.38 292.97 L 42.19 304.69 L 166.41 309.38 L 192.19 304.69 L 225.00 264.84 L 239.06 260.16 L 250.78 262.50 L 276.56 309.38 L 302.34 323.44 L 342.19 276.56 L 393.75 255.47 L 410.16 255.47 L 424.22 288.28 L 454.69 300.00 L 520.31 295.31 L 571.88 274.22 L 597.66 234.38 L 581.25 189.84 L 564.84 173.44 L 499.22 180.47 L 473.44 173.44 L 459.38 159.38 L 426.56 79.69 L 433.59 16.41 L 426.56 2.34 L 412.50 0.00 L 353.91 28.12" stroke="black" fill="transparent"/>
	<path d = "M 119.53 96.09 L 107.81 103.12 L 103.12 117.19 L 100.78 157.03 L 110.16 168.75 L 196.88 173.44 L 222.66 161.72 L 201.56 117.19 L 182.81 110.16 L 126.56 119.53" stroke="black" fill="transparent"/>
	<path d = "M 410.16 25.78 L 337.50 63.28 L 332.81 77.34 L 337.50 133.59 L 353.91 145.31 L 421.88 112.50 L 450.00 112.50" stroke="black" fill="transparent"/>
	<path d = "M 248.44 267.19 L 215.62 281.25 L 206.25 300.00 L 206.25 353.91 L 222.66 367.97 L 243.75 360.94 L 262.50 325.78 L 271.88 292.97 L 264.84 267.19 L 229.69 269.53" stroke="black" fill="transparent"/>
	<path d = "M 393.75 260.16 L 356.25 285.94 L 346.88 300.00 L 344.53 337.50 L 363.28 370.31 L 382.03 384.38 L 398.44 389.06 L 417.19 382.03 L 438.28 344.53 L 438.28 302.34 L 421.88 283.59 L 379.69 260.16 L 365.62 267.19 L 356.25 290.62" stroke="black" fill="transparent"/>
</svg>