<?xml version="1.0" encoding="UTF-8" standalone="no"?>
<!--Created with ndjsontosvg (https:https://github.com/thompson318/ndjsontosvg) 
	from the simplified Google quickdraw data set. key_id = 6657669916000256-->
<svg width="600" height="600"
	xmlns="http://www.w3.org/2000/svg">
	xmlns:ndjsontosvg="https://github.com/thompson318/ndjsontosvg"
	xmlns:quickdraw="https://quickdraw.withgoogle.com/data"
	xmlns:scikit-surgery="https://doi.org/10.1007/s11548-020-02180-5">

	<rect width="100%" height="100%" fill="white" />
	<path d = "M 389.06 4.69 L 295.31 0.00 L 171.09 37.50 L 150.00 60.94 L 157.03 161.72 L 60.94 164.06 L 9.38 185.16 L 0.00 206.25 L 7.03 225.00 L 35.16 248.44 L 79.69 267.19 L 154.69 267.19 L 173.44 246.09 L 208.59 246.09 L 220.31 215.62 L 243.75 208.59 L 257.81 217.97 L 281.25 264.84 L 283.59 300.00 L 276.56 311.72 L 236.72 309.38 L 196.88 288.28 L 175.78 262.50 L 171.09 229.69" stroke="black" fill="transparent"/>
	<path d = "M 262.50 232.03 L 332.81 185.16 L 370.31 168.75 L 424.22 171.09 L 508.59 220.31 L 515.62 246.09 L 501.56 274.22 L 457.03 278.91 L 417.19 271.88 L 367.97 246.09 L 353.91 225.00 L 346.88 196.88 L 370.31 150.00" stroke="black" fill="transparent"/>
	<path d = "M 482.81 164.06 L 499.22 182.81 L 553.12 180.47 L 588.28 140.62 L 597.66 114.84 L 592.97 98.44 L 550.78 63.28 L 496.88 37.50 L 363.28 7.03" stroke="black" fill="transparent"/>
	<path d = "M 522.66 173.44 L 440.62 201.56" stroke="black" fill="transparent"/>
	<path d = "M 510.94 37.50 L 532.03 110.16 L 532.03 168.75" stroke="black" fill="transparent"/>
	<path d = "M 557.81 96.09 L 555.47 128.91" stroke="black" fill="transparent"/>
	<path d = "M 576.56 103.12 L 585.94 133.59" stroke="black" fill="transparent"/>
	<path d = "M 557.81 96.09 L 557.81 51.56" stroke="black" fill="transparent"/>
	<path d = "M 555.47 121.88 L 562.50 175.78" stroke="black" fill="transparent"/>
</svg>