<?xml version="1.0" encoding="UTF-8" standalone="no"?>
<!--Created with ndjsontosvg (https:https://github.com/thompson318/ndjsontosvg) 
	from the simplified Google quickdraw data set. key_id = 5863242750492672-->
<svg width="600" height="600"
	xmlns="http://www.w3.org/2000/svg">
	xmlns:ndjsontosvg="https://github.com/thompson318/ndjsontosvg"
	xmlns:quickdraw="https://quickdraw.withgoogle.com/data"
	xmlns:scikit-surgery="https://doi.org/10.1007/s11548-020-02180-5">

	<rect width="100%" height="100%" fill="white" />
	<path d = "M 93.75 112.50 L 70.31 185.16 L 44.53 217.97" stroke="black" fill="transparent"/>
	<path d = "M 98.44 114.84 L 201.56 105.47 L 255.47 126.56 L 246.09 157.03 L 227.34 173.44 L 126.56 201.56 L 53.91 194.53" stroke="black" fill="transparent"/>
	<path d = "M 75.00 84.38 L 35.16 142.97 L 0.00 292.97 L 2.34 321.09 L 18.75 351.56 L 42.19 384.38 L 65.62 396.09 L 157.03 393.75 L 304.69 330.47 L 496.88 274.22 L 595.31 199.22 L 595.31 112.50 L 585.94 51.56 L 571.88 9.38 L 541.41 2.34 L 478.12 0.00 L 346.88 23.44 L 152.34 77.34 L 82.03 98.44 L 53.91 114.84" stroke="black" fill="transparent"/>
	<path d = "M 145.31 335.16 L 131.25 360.94 L 135.94 386.72 L 154.69 393.75 L 196.88 393.75 L 234.38 386.72 L 241.41 356.25 L 236.72 328.12 L 225.00 314.06 L 166.41 328.12 L 154.69 398.44 L 171.09 405.47 L 206.25 382.03 L 215.62 351.56 L 194.53 307.03 L 166.41 295.31 L 157.03 356.25 L 168.75 384.38 L 182.81 400.78 L 196.88 396.09 L 225.00 332.81 L 217.97 325.78 L 187.50 328.12 L 171.09 363.28 L 171.09 386.72 L 180.47 393.75 L 208.59 332.81 L 189.84 332.81 L 164.06 358.59 L 161.72 375.00 L 168.75 379.69 L 189.84 379.69 L 276.56 342.19" stroke="black" fill="transparent"/>
	<path d = "M 557.81 229.69 L 520.31 225.00 L 487.50 241.41 L 473.44 281.25 L 475.78 300.00 L 482.81 304.69 L 532.03 278.91 L 543.75 246.09 L 543.75 225.00 L 529.69 203.91 L 496.88 232.03 L 475.78 269.53 L 464.06 304.69 L 466.41 316.41 L 485.16 328.12 L 499.22 325.78 L 529.69 304.69 L 539.06 260.16 L 529.69 239.06 L 508.59 217.97 L 482.81 213.28 L 471.09 225.00 L 468.75 262.50 L 494.53 274.22 L 534.38 250.78 L 543.75 217.97 L 513.28 210.94 L 494.53 232.03 L 503.91 267.19 L 525.00 285.94 L 534.38 278.91 L 534.38 262.50 L 520.31 227.34" stroke="black" fill="transparent"/>
	<path d = "M 288.28 124.22 L 309.38 135.94 L 325.78 135.94 L 461.72 100.78 L 485.16 89.06 L 496.88 49.22" stroke="black" fill="transparent"/>
</svg>