<?xml version="1.0" encoding="UTF-8" standalone="no"?>
<!--Created with ndjsontosvg (https:https://github.com/thompson318/ndjsontosvg) 
	from the simplified Google quickdraw data set. key_id = 5102865884381184-->
<svg width="600" height="600"
	xmlns="http://www.w3.org/2000/svg">
	xmlns:ndjsontosvg="https://github.com/thompson318/ndjsontosvg"
	xmlns:quickdraw="https://quickdraw.withgoogle.com/data"
	xmlns:scikit-surgery="https://doi.org/10.1007/s11548-020-02180-5">

	<rect width="100%" height="100%" fill="white" />
	<path d = "M 67.97 309.38 L 135.94 328.12 L 264.84 337.50 L 393.75 360.94 L 592.97 360.94 L 595.31 37.50 L 560.16 14.06 L 466.41 0.00 L 309.38 7.03 L 215.62 30.47 L 154.69 53.91 L 119.53 77.34 L 77.34 145.31 L 44.53 227.34 L 11.72 260.16 L 0.00 290.62 L 72.66 292.97 L 105.47 309.38" stroke="black" fill="transparent"/>
	<path d = "M 152.34 63.28 L 138.28 187.50 L 142.97 229.69 L 222.66 246.09 L 241.41 243.75 L 248.44 234.38 L 267.19 135.94 L 271.88 82.03 L 267.19 65.62 L 241.41 53.91 L 150.00 70.31" stroke="black" fill="transparent"/>
	<path d = "M 77.34 285.94 L 60.94 295.31 L 98.44 302.34 L 82.03 314.06 L 98.44 311.72" stroke="black" fill="transparent"/>
	<path d = "M 124.22 323.44 L 77.34 328.12 L 53.91 346.88 L 25.78 396.09 L 23.44 426.56 L 25.78 452.34 L 44.53 475.78 L 84.38 478.12 L 131.25 457.03 L 152.34 414.84 L 157.03 358.59 L 150.00 330.47 L 131.25 325.78 L 114.84 335.16 L 60.94 386.72 L 35.16 440.62 L 53.91 450.00 L 75.00 447.66 L 124.22 405.47" stroke="black" fill="transparent"/>
</svg>