<?xml version="1.0" encoding="UTF-8" standalone="no"?>
<!--Created with ndjsontosvg (https:https://github.com/thompson318/ndjsontosvg) 
	from the simplified Google quickdraw data set. key_id = 5408575264391168-->
<svg width="600" height="600"
	xmlns="http://www.w3.org/2000/svg">
	xmlns:ndjsontosvg="https://github.com/thompson318/ndjsontosvg"
	xmlns:quickdraw="https://quickdraw.withgoogle.com/data"
	xmlns:scikit-surgery="https://doi.org/10.1007/s11548-020-02180-5">

	<rect width="100%" height="100%" fill="white" />
	<path d = "M 91.41 0.00 L 72.66 46.88 L 2.34 154.69 L 0.00 168.75 L 7.03 171.09 L 271.88 196.88 L 501.56 194.53 L 585.94 185.16 L 597.66 157.03 L 595.31 114.84 L 527.34 103.12 L 473.44 114.84 L 466.41 58.59 L 442.97 30.47 L 375.00 28.12 L 278.91 39.84 L 49.22 37.50" stroke="black" fill="transparent"/>
	<path d = "M 70.31 175.78 L 35.16 178.12 L 25.78 213.28 L 37.50 234.38 L 82.03 255.47 L 121.88 260.16 L 140.62 241.41 L 150.00 220.31 L 142.97 194.53 L 119.53 173.44 L 98.44 166.41 L 82.03 178.12" stroke="black" fill="transparent"/>
	<path d = "M 339.84 196.88 L 262.50 199.22 L 227.34 222.66 L 215.62 248.44 L 215.62 269.53 L 243.75 283.59 L 271.88 288.28 L 328.12 288.28 L 356.25 257.81 L 363.28 222.66 L 356.25 203.91 L 337.50 196.88 L 304.69 194.53" stroke="black" fill="transparent"/>
</svg>