<?xml version="1.0" encoding="UTF-8" standalone="no"?>
<!--Created with ndjsontosvg (https:https://github.com/thompson318/ndjsontosvg) 
	from the simplified Google quickdraw data set. key_id = 5995667900071936-->
<svg width="600" height="600"
	xmlns="http://www.w3.org/2000/svg">
	xmlns:ndjsontosvg="https://github.com/thompson318/ndjsontosvg"
	xmlns:quickdraw="https://quickdraw.withgoogle.com/data"
	xmlns:scikit-surgery="https://doi.org/10.1007/s11548-020-02180-5">

	<rect width="100%" height="100%" fill="white" />
	<path d = "M 89.06 77.34 L 100.78 201.56 L 100.78 278.91" stroke="black" fill="transparent"/>
	<path d = "M 75.00 49.22 L 194.53 96.09 L 295.31 98.44 L 335.16 77.34 L 346.88 58.59 L 264.84 4.69 L 185.16 0.00 L 114.84 18.75 L 79.69 51.56 L 91.41 67.97 L 161.72 72.66" stroke="black" fill="transparent"/>
	<path d = "M 311.72 189.84 L 250.78 250.78 L 314.06 311.72 L 363.28 386.72 L 372.66 466.41 L 346.88 522.66 L 278.91 576.56 L 222.66 597.66 L 138.28 597.66 L 84.38 569.53 L 46.88 527.34 L 2.34 417.19 L 0.00 375.00 L 107.81 302.34" stroke="black" fill="transparent"/>
	<path d = "M 295.31 201.56 L 356.25 84.38" stroke="black" fill="transparent"/>
</svg>