<?xml version="1.0" encoding="UTF-8" standalone="no"?>
<!--Created with ndjsontosvg (https:https://github.com/thompson318/ndjsontosvg) 
	from the simplified Google quickdraw data set. key_id = 6109224775974912-->
<svg width="600" height="600"
	xmlns="http://www.w3.org/2000/svg">
	xmlns:ndjsontosvg="https://github.com/thompson318/ndjsontosvg"
	xmlns:quickdraw="https://quickdraw.withgoogle.com/data"
	xmlns:scikit-surgery="https://doi.org/10.1007/s11548-020-02180-5">

	<rect width="100%" height="100%" fill="white" />
	<path d = "M 117.19 150.00 L 37.50 260.16 L 2.34 351.56 L 4.69 438.28 L 39.84 501.56 L 79.69 543.75 L 119.53 564.84 L 194.53 585.94 L 274.22 597.66 L 339.84 595.31 L 372.66 585.94 L 398.44 564.84 L 431.25 520.31 L 438.28 421.88 L 421.88 342.19 L 400.78 288.28 L 356.25 232.03 L 358.59 196.88 L 400.78 105.47 L 410.16 56.25 L 353.91 98.44 L 311.72 107.81 L 257.81 107.81 L 89.06 32.81 L 107.81 142.97 L 98.44 196.88" stroke="black" fill="transparent"/>
	<path d = "M 428.91 53.91 L 353.91 14.06 L 269.53 2.34 L 157.03 7.03 L 103.12 25.78" stroke="black" fill="transparent"/>
</svg>