<?xml version="1.0" encoding="UTF-8" standalone="no"?>
<!--Created with ndjsontosvg (https:https://github.com/thompson318/ndjsontosvg) 
	from the simplified Google quickdraw data set. key_id = 5133522660491264-->
<svg width="600" height="600"
	xmlns="http://www.w3.org/2000/svg">
	xmlns:ndjsontosvg="https://github.com/thompson318/ndjsontosvg"
	xmlns:quickdraw="https://quickdraw.withgoogle.com/data"
	xmlns:scikit-surgery="https://doi.org/10.1007/s11548-020-02180-5">

	<rect width="100%" height="100%" fill="white" />
	<path d = "M 360.94 53.91 L 346.88 32.81 L 316.41 18.75 L 229.69 0.00 L 39.84 30.47 L 16.41 56.25 L 2.34 98.44 L 4.69 147.66 L 30.47 185.16 L 89.06 241.41 L 114.84 290.62 L 105.47 358.59 L 42.19 515.62 L 44.53 553.12 L 70.31 583.59 L 126.56 597.66 L 213.28 588.28 L 274.22 555.47 L 342.19 478.12 L 389.06 391.41 L 396.09 360.94 L 400.78 276.56 L 393.75 269.53 L 363.28 267.19 L 356.25 239.06 L 367.97 182.81 L 410.16 82.03" stroke="black" fill="transparent"/>
	<path d = "M 260.16 232.03 L 283.59 189.84 L 431.25 51.56 L 150.00 365.62 L 82.03 431.25 L 35.16 464.06 L 18.75 466.41 L 23.44 447.66 L 56.25 400.78 L 192.19 243.75 L 367.97 77.34 L 433.59 35.16 L 452.34 32.81 L 435.94 53.91" stroke="black" fill="transparent"/>
</svg>