<?xml version="1.0" encoding="UTF-8" standalone="no"?>
<!--Created with ndjsontosvg (https:https://github.com/thompson318/ndjsontosvg) 
	from the simplified Google quickdraw data set. key_id = 5457352520105984-->
<svg width="600" height="600"
	xmlns="http://www.w3.org/2000/svg">
	xmlns:ndjsontosvg="https://github.com/thompson318/ndjsontosvg"
	xmlns:quickdraw="https://quickdraw.withgoogle.com/data"
	xmlns:scikit-surgery="https://doi.org/10.1007/s11548-020-02180-5">

	<rect width="100%" height="100%" fill="white" />
	<path d = "M 206.25 23.44 L 142.97 4.69 L 56.25 0.00 L 23.44 32.81 L 23.44 75.00 L 44.53 98.44 L 75.00 114.84 L 128.91 119.53 L 194.53 114.84 L 213.28 98.44 L 234.38 56.25 L 234.38 46.88 L 206.25 28.12" stroke="black" fill="transparent"/>
	<path d = "M 2.34 49.22 L 0.00 105.47 L 11.72 152.34 L 35.16 199.22 L 89.06 262.50 L 100.78 307.03 L 100.78 356.25 L 75.00 410.16 L 35.16 466.41 L 32.81 513.28 L 51.56 555.47 L 75.00 576.56 L 138.28 597.66 L 180.47 597.66 L 222.66 585.94 L 262.50 560.16 L 274.22 532.03 L 276.56 424.22 L 241.41 344.53 L 234.38 316.41 L 234.38 227.34 L 262.50 152.34 L 264.84 96.09 L 260.16 72.66 L 234.38 63.28" stroke="black" fill="transparent"/>
</svg>