<?xml version="1.0" encoding="UTF-8" standalone="no"?>
<!--Created with ndjsontosvg (https:https://github.com/thompson318/ndjsontosvg) 
	from the simplified Google quickdraw data set. key_id = 5675681008582656-->
<svg width="600" height="600"
	xmlns="http://www.w3.org/2000/svg">
	xmlns:ndjsontosvg="https://github.com/thompson318/ndjsontosvg"
	xmlns:quickdraw="https://quickdraw.withgoogle.com/data"
	xmlns:scikit-surgery="https://doi.org/10.1007/s11548-020-02180-5">

	<rect width="100%" height="100%" fill="white" />
	<path d = "M 0.00 49.22 L 35.16 49.22 L 84.38 72.66 L 128.91 154.69 L 128.91 257.81 L 91.41 438.28 L 86.72 536.72 L 100.78 555.47 L 140.62 581.25 L 206.25 597.66 L 274.22 597.66 L 307.03 588.28 L 365.62 517.97 L 379.69 457.03 L 377.34 379.69 L 356.25 323.44 L 318.75 264.84 L 300.00 220.31 L 297.66 147.66 L 316.41 103.12 L 346.88 75.00 L 414.84 51.56 L 452.34 51.56" stroke="black" fill="transparent"/>
	<path d = "M 25.78 39.84 L 103.12 51.56 L 253.12 53.91 L 318.75 53.91 L 421.88 39.84" stroke="black" fill="transparent"/>
	<path d = "M 14.06 32.81 L 175.78 7.03 L 288.28 0.00 L 424.22 0.00 L 438.28 4.69 L 442.97 25.78" stroke="black" fill="transparent"/>
</svg>