<?xml version="1.0" encoding="UTF-8" standalone="no"?>
<!--Created with ndjsontosvg (https:https://github.com/thompson318/ndjsontosvg) 
	from the simplified Google quickdraw data set. key_id = 4531112959279104-->
<svg width="600" height="600"
	xmlns="http://www.w3.org/2000/svg">
	xmlns:ndjsontosvg="https://github.com/thompson318/ndjsontosvg"
	xmlns:quickdraw="https://quickdraw.withgoogle.com/data"
	xmlns:scikit-surgery="https://doi.org/10.1007/s11548-020-02180-5">

	<rect width="100%" height="100%" fill="white" />
	<path d = "M 60.94 135.94 L 56.25 166.41 L 63.28 173.44 L 67.97 206.25 L 70.31 281.25 L 42.19 307.03 L 35.16 356.25 L 46.88 377.34 L 98.44 412.50 L 112.50 442.97 L 119.53 517.97 L 98.44 548.44 L 96.09 571.88 L 131.25 590.62 L 215.62 597.66 L 330.47 574.22 L 375.00 539.06 L 410.16 471.09 L 405.47 428.91 L 389.06 417.19 L 292.97 407.81 L 278.91 386.72 L 276.56 358.59 L 285.94 342.19 L 325.78 321.09 L 342.19 304.69 L 379.69 236.72 L 382.03 206.25 L 316.41 173.44 L 262.50 159.38 L 232.03 159.38 L 194.53 182.81 L 157.03 189.84 L 145.31 175.78 L 140.62 114.84 L 121.88 58.59" stroke="black" fill="transparent"/>
	<path d = "M 53.91 157.03 L 53.91 100.78 L 44.53 63.28 L 9.38 53.91 L 0.00 18.75 L 124.22 11.72 L 171.09 0.00 L 175.78 11.72 L 154.69 67.97 L 79.69 56.25" stroke="black" fill="transparent"/>
	<path d = "M 79.69 56.25 L 21.09 56.25" stroke="black" fill="transparent"/>
	<path d = "M 56.25 58.59 L 91.41 182.81 L 110.16 302.34 L 117.19 295.31" stroke="black" fill="transparent"/>
	<path d = "M 84.38 49.22 L 98.44 171.09 L 133.59 337.50" stroke="black" fill="transparent"/>
	<path d = "M 93.75 63.28 L 117.19 145.31 L 138.28 281.25" stroke="black" fill="transparent"/>
</svg>