<?xml version="1.0" encoding="UTF-8" standalone="no"?>
<!--Created with ndjsontosvg (https:https://github.com/thompson318/ndjsontosvg) 
	from the simplified Google quickdraw data set. key_id = 5555540241416192-->
<svg width="600" height="600"
	xmlns="http://www.w3.org/2000/svg">
	xmlns:ndjsontosvg="https://github.com/thompson318/ndjsontosvg"
	xmlns:quickdraw="https://quickdraw.withgoogle.com/data"
	xmlns:scikit-surgery="https://doi.org/10.1007/s11548-020-02180-5">

	<rect width="100%" height="100%" fill="white" />
	<path d = "M 257.81 75.00 L 222.66 133.59 L 161.72 285.94 L 150.00 337.50 L 138.28 351.56" stroke="black" fill="transparent"/>
	<path d = "M 311.72 86.72 L 281.25 112.50 L 225.00 290.62 L 194.53 339.84" stroke="black" fill="transparent"/>
	<path d = "M 145.31 314.06 L 72.66 330.47 L 39.84 353.91 L 9.38 421.88 L 0.00 501.56 L 7.03 546.09 L 23.44 574.22 L 51.56 595.31 L 271.88 592.97 L 356.25 536.72 L 372.66 501.56 L 353.91 379.69 L 332.81 332.81 L 276.56 311.72 L 208.59 318.75" stroke="black" fill="transparent"/>
	<path d = "M 255.47 60.94 L 269.53 28.12 L 295.31 14.06 L 377.34 0.00 L 412.50 14.06 L 424.22 28.12 L 367.97 28.12 L 316.41 46.88 L 311.72 98.44" stroke="black" fill="transparent"/>
	<path d = "M 246.09 124.22 L 180.47 243.75 L 157.03 300.00" stroke="black" fill="transparent"/>
</svg>