<?xml version="1.0" encoding="UTF-8" standalone="no"?>
<!--Created with ndjsontosvg (https:https://github.com/thompson318/ndjsontosvg) 
	from the simplified Google quickdraw data set. key_id = 6313378425339904-->
<svg width="600" height="600"
	xmlns="http://www.w3.org/2000/svg">
	xmlns:ndjsontosvg="https://github.com/thompson318/ndjsontosvg"
	xmlns:quickdraw="https://quickdraw.withgoogle.com/data"
	xmlns:scikit-surgery="https://doi.org/10.1007/s11548-020-02180-5">

	<rect width="100%" height="100%" fill="white" />
	<path d = "M 51.56 243.75 L 28.12 264.84 L 4.69 309.38 L 2.34 372.66 L 28.12 414.84 L 46.88 428.91 L 93.75 445.31 L 124.22 445.31 L 152.34 433.59 L 182.81 407.81 L 210.94 344.53 L 232.03 323.44 L 255.47 314.06 L 304.69 311.72 L 342.19 300.00 L 365.62 283.59 L 379.69 260.16 L 393.75 199.22" stroke="black" fill="transparent"/>
	<path d = "M 49.22 246.09 L 105.47 236.72 L 138.28 217.97 L 173.44 157.03 L 215.62 133.59 L 297.66 114.84 L 360.94 114.84 L 382.03 121.88" stroke="black" fill="transparent"/>
	<path d = "M 323.44 203.91 L 356.25 171.09 L 407.81 135.94 L 520.31 72.66" stroke="black" fill="transparent"/>
	<path d = "M 309.38 182.81 L 358.59 138.28 L 478.12 79.69 L 529.69 37.50" stroke="black" fill="transparent"/>
	<path d = "M 489.84 44.53 L 517.97 67.97 L 527.34 105.47" stroke="black" fill="transparent"/>
	<path d = "M 506.25 32.81 L 590.62 0.00 L 597.66 37.50 L 576.56 63.28 L 541.41 84.38 L 496.88 91.41" stroke="black" fill="transparent"/>
	<path d = "M 93.75 325.78 L 84.38 351.56 L 96.09 363.28 L 131.25 349.22 L 161.72 316.41 L 138.28 304.69 L 98.44 335.16" stroke="black" fill="transparent"/>
	<path d = "M 103.12 337.50 L 206.25 264.84 L 318.75 194.53 L 403.12 124.22" stroke="black" fill="transparent"/>
</svg>