<?xml version="1.0" encoding="UTF-8" standalone="no"?>
<!--Created with ndjsontosvg (https:https://github.com/thompson318/ndjsontosvg) 
	from the simplified Google quickdraw data set. key_id = 4874107634057216-->
<svg width="600" height="600"
	xmlns="http://www.w3.org/2000/svg">
	xmlns:ndjsontosvg="https://github.com/thompson318/ndjsontosvg"
	xmlns:quickdraw="https://quickdraw.withgoogle.com/data"
	xmlns:scikit-surgery="https://doi.org/10.1007/s11548-020-02180-5">

	<rect width="100%" height="100%" fill="white" />
	<path d = "M 98.44 203.91 L 72.66 206.25 L 18.75 220.31 L 4.69 246.09 L 0.00 276.56 L 11.72 302.34 L 60.94 360.94 L 63.28 370.31 L 49.22 407.81 L 16.41 459.38 L 9.38 506.25 L 42.19 574.22 L 84.38 597.66 L 112.50 590.62 L 157.03 550.78 L 178.12 494.53 L 161.72 431.25 L 220.31 370.31 L 234.38 330.47 L 229.69 292.97 L 199.22 239.06 L 140.62 203.91" stroke="black" fill="transparent"/>
	<path d = "M 152.34 203.91 L 128.91 185.16 L 119.53 164.06 L 105.47 103.12 L 98.44 30.47 L 124.22 14.06 L 173.44 0.00 L 182.81 30.47 L 187.50 157.03" stroke="black" fill="transparent"/>
	<path d = "M 124.22 82.03 L 117.19 93.75 L 72.66 89.06" stroke="black" fill="transparent"/>
	<path d = "M 248.44 35.16 L 248.44 56.25 L 243.75 35.16" stroke="black" fill="transparent"/>
	<path d = "M 236.72 142.97 L 210.94 161.72 L 206.25 138.28" stroke="black" fill="transparent"/>
	<path d = "M 133.59 189.84 L 107.81 421.88 L 107.81 553.12" stroke="black" fill="transparent"/>
</svg>