<?xml version="1.0" encoding="UTF-8" standalone="no"?>
<!--Created with ndjsontosvg (https:https://github.com/thompson318/ndjsontosvg) 
	from the simplified Google quickdraw data set. key_id = 5734943688753152-->
<svg width="600" height="600"
	xmlns="http://www.w3.org/2000/svg">
	xmlns:ndjsontosvg="https://github.com/thompson318/ndjsontosvg"
	xmlns:quickdraw="https://quickdraw.withgoogle.com/data"
	xmlns:scikit-surgery="https://doi.org/10.1007/s11548-020-02180-5">

	<rect width="100%" height="100%" fill="white" />
	<path d = "M 60.94 126.56 L 39.84 117.19 L 39.84 281.25 L 0.00 525.00 L 0.00 557.81 L 23.44 571.88 L 309.38 595.31 L 567.19 597.66 L 583.59 581.25 L 590.62 555.47 L 588.28 110.16 L 578.91 93.75 L 536.72 82.03 L 379.69 82.03 L 304.69 98.44 L 49.22 98.44" stroke="black" fill="transparent"/>
	<path d = "M 128.91 96.09 L 117.19 7.03 L 140.62 0.00 L 485.16 9.38 L 487.50 72.66" stroke="black" fill="transparent"/>
	<path d = "M 264.84 248.44 L 222.66 246.09 L 206.25 253.12 L 180.47 285.94 L 161.72 363.28 L 166.41 466.41 L 192.19 501.56 L 210.94 513.28 L 264.84 532.03 L 353.91 527.34 L 384.38 515.62 L 435.94 473.44 L 468.75 424.22 L 478.12 389.06 L 480.47 314.06 L 478.12 292.97 L 464.06 276.56 L 442.97 260.16 L 375.00 232.03 L 314.06 220.31 L 250.78 220.31 L 222.66 225.00 L 199.22 241.41 L 182.81 264.84 L 173.44 300.00" stroke="black" fill="transparent"/>
	<path d = "M 189.84 56.25 L 227.34 63.28 L 234.38 44.53 L 215.62 25.78 L 196.88 25.78 L 192.19 32.81" stroke="black" fill="transparent"/>
	<path d = "M 365.62 37.50 L 351.56 58.59 L 351.56 77.34 L 367.97 89.06 L 398.44 82.03 L 417.19 58.59 L 417.19 42.19 L 372.66 39.84" stroke="black" fill="transparent"/>
</svg>