<?xml version="1.0" encoding="UTF-8" standalone="no"?>
<!--Created with ndjsontosvg (https:https://github.com/thompson318/ndjsontosvg) 
	from the simplified Google quickdraw data set. key_id = 4868850615058432-->
<svg width="600" height="600"
	xmlns="http://www.w3.org/2000/svg">
	xmlns:ndjsontosvg="https://github.com/thompson318/ndjsontosvg"
	xmlns:quickdraw="https://quickdraw.withgoogle.com/data"
	xmlns:scikit-surgery="https://doi.org/10.1007/s11548-020-02180-5">

	<rect width="100%" height="100%" fill="white" />
	<path d = "M 0.00 46.88 L 30.47 393.75 L 44.53 482.81" stroke="black" fill="transparent"/>
	<path d = "M 35.16 9.38 L 103.12 23.44 L 208.59 28.12 L 541.41 0.00 L 595.31 2.34 L 597.66 16.41 L 557.81 96.09 L 520.31 255.47 L 513.28 386.72 L 527.34 508.59 L 522.66 522.66 L 503.91 539.06 L 475.78 548.44 L 199.22 501.56 L 112.50 501.56 L 51.56 513.28" stroke="black" fill="transparent"/>
	<path d = "M 307.03 285.94 L 269.53 243.75 L 248.44 239.06 L 196.88 241.41 L 175.78 262.50 L 171.09 318.75 L 189.84 454.69 L 196.88 480.47 L 246.09 517.97 L 304.69 522.66 L 330.47 515.62 L 363.28 492.19 L 377.34 468.75 L 396.09 412.50 L 386.72 342.19 L 363.28 290.62 L 325.78 253.12 L 232.03 215.62 L 208.59 210.94 L 171.09 215.62" stroke="black" fill="transparent"/>
	<path d = "M 58.59 121.88 L 100.78 138.28 L 166.41 140.62 L 520.31 100.78 L 597.66 124.22" stroke="black" fill="transparent"/>
	<path d = "M 178.12 51.56 L 140.62 60.94 L 135.94 82.03 L 147.66 103.12 L 182.81 114.84 L 189.84 98.44 L 171.09 42.19" stroke="black" fill="transparent"/>
	<path d = "M 311.72 60.94 L 300.00 60.94" stroke="black" fill="transparent"/>
</svg>