<?xml version="1.0" encoding="UTF-8" standalone="no"?>
<!--Created with ndjsontosvg (https:https://github.com/thompson318/ndjsontosvg) 
	from the simplified Google quickdraw data set. key_id = 6102389650096128-->
<svg width="600" height="600"
	xmlns="http://www.w3.org/2000/svg">
	xmlns:ndjsontosvg="https://github.com/thompson318/ndjsontosvg"
	xmlns:quickdraw="https://quickdraw.withgoogle.com/data"
	xmlns:scikit-surgery="https://doi.org/10.1007/s11548-020-02180-5">

	<rect width="100%" height="100%" fill="white" />
	<path d = "M 103.12 25.78 L 363.28 25.78 L 527.34 46.88 L 590.62 39.84 L 597.66 56.25 L 592.97 438.28 L 585.94 471.09 L 571.88 485.16 L 407.81 478.12 L 304.69 459.38 L 220.31 433.59 L 0.00 403.12 L 0.00 21.09 L 4.69 4.69 L 21.09 0.00 L 145.31 0.00 L 173.44 9.38" stroke="black" fill="transparent"/>
	<path d = "M 281.25 157.03 L 278.91 140.62 L 262.50 135.94 L 206.25 138.28 L 178.12 157.03 L 145.31 208.59 L 135.94 269.53 L 140.62 321.09 L 154.69 335.16 L 203.91 353.91 L 276.56 365.62 L 346.88 363.28 L 377.34 337.50 L 396.09 304.69 L 391.41 213.28 L 314.06 150.00 L 276.56 142.97" stroke="black" fill="transparent"/>
	<path d = "M 234.38 173.44 L 208.59 196.88 L 203.91 210.94 L 220.31 236.72 L 220.31 281.25 L 192.19 290.62 L 189.84 276.56 L 203.91 257.81 L 267.19 229.69 L 274.22 203.91 L 271.88 222.66 L 330.47 281.25 L 332.81 297.66 L 271.88 323.44 L 257.81 321.09 L 260.16 290.62 L 323.44 262.50 L 328.12 246.09 L 290.62 234.38 L 208.59 232.03 L 210.94 246.09 L 260.16 248.44 L 241.41 241.41 L 257.81 246.09 L 269.53 194.53" stroke="black" fill="transparent"/>
</svg>