<?xml version="1.0" encoding="UTF-8" standalone="no"?>
<!--Created with ndjsontosvg (https:https://github.com/thompson318/ndjsontosvg) 
	from the simplified Google quickdraw data set. key_id = 5662957507706880-->
<svg width="600" height="600"
	xmlns="http://www.w3.org/2000/svg">
	xmlns:ndjsontosvg="https://github.com/thompson318/ndjsontosvg"
	xmlns:quickdraw="https://quickdraw.withgoogle.com/data"
	xmlns:scikit-surgery="https://doi.org/10.1007/s11548-020-02180-5">

	<rect width="100%" height="100%" fill="white" />
	<path d = "M 35.16 555.47 L 23.44 405.47 L 2.34 267.19 L 0.00 46.88 L 107.81 23.44 L 335.16 16.41 L 522.66 0.00 L 550.78 0.00 L 557.81 16.41 L 564.84 278.91 L 536.72 555.47 L 510.94 564.84 L 346.88 585.94 L 46.88 597.66 L 30.47 585.94 L 30.47 527.34" stroke="black" fill="transparent"/>
	<path d = "M 255.47 234.38 L 229.69 234.38 L 203.91 243.75 L 175.78 271.88 L 164.06 314.06 L 164.06 375.00 L 196.88 421.88 L 213.28 438.28 L 274.22 442.97 L 307.03 431.25 L 346.88 391.41 L 363.28 346.88 L 365.62 311.72 L 353.91 278.91 L 314.06 234.38 L 281.25 225.00 L 241.41 227.34" stroke="black" fill="transparent"/>
	<path d = "M 393.75 35.16 L 389.06 79.69 L 396.09 89.06 L 482.81 89.06 L 489.84 35.16 L 414.84 30.47 L 379.69 39.84" stroke="black" fill="transparent"/>
	<path d = "M 342.19 262.50 L 396.09 234.38 L 421.88 271.88 L 398.44 307.03 L 358.59 330.47" stroke="black" fill="transparent"/>
</svg>