<?xml version="1.0" encoding="UTF-8" standalone="no"?>
<!--Created with ndjsontosvg (https:https://github.com/thompson318/ndjsontosvg) 
	from the simplified Google quickdraw data set. key_id = 6011077621972992-->
<svg width="600" height="600"
	xmlns="http://www.w3.org/2000/svg">
	xmlns:ndjsontosvg="https://github.com/thompson318/ndjsontosvg"
	xmlns:quickdraw="https://quickdraw.withgoogle.com/data"
	xmlns:scikit-surgery="https://doi.org/10.1007/s11548-020-02180-5">

	<rect width="100%" height="100%" fill="white" />
	<path d = "M 28.12 107.81 L 25.78 311.72 L 32.81 494.53" stroke="black" fill="transparent"/>
	<path d = "M 35.16 89.06 L 46.88 98.44 L 93.75 100.78 L 332.81 79.69 L 564.84 70.31 L 571.88 84.38 L 567.19 171.09 L 597.66 412.50 L 597.66 492.19" stroke="black" fill="transparent"/>
	<path d = "M 28.12 496.88 L 257.81 468.75 L 592.97 480.47" stroke="black" fill="transparent"/>
	<path d = "M 0.00 147.66 L 7.03 42.19 L 42.19 30.47 L 309.38 0.00 L 553.12 4.69 L 571.88 42.19 L 578.91 103.12" stroke="black" fill="transparent"/>
	<path d = "M 325.78 164.06 L 262.50 178.12 L 192.19 213.28 L 138.28 269.53 L 126.56 300.00 L 126.56 328.12 L 159.38 379.69 L 217.97 407.81 L 276.56 426.56 L 358.59 424.22 L 447.66 403.12 L 487.50 365.62 L 506.25 311.72 L 489.84 225.00 L 459.38 171.09 L 435.94 140.62 L 419.53 131.25 L 393.75 128.91 L 262.50 173.44" stroke="black" fill="transparent"/>
	<path d = "M 358.59 236.72 L 316.41 236.72 L 267.19 255.47 L 215.62 290.62 L 194.53 325.78 L 225.00 346.88 L 304.69 372.66 L 391.41 356.25 L 433.59 335.16 L 447.66 316.41 L 412.50 274.22 L 377.34 262.50 L 311.72 274.22" stroke="black" fill="transparent"/>
	<path d = "M 37.50 466.41 L 103.12 595.31" stroke="black" fill="transparent"/>
	<path d = "M 576.56 457.03 L 571.88 564.84" stroke="black" fill="transparent"/>
</svg>