<?xml version="1.0" encoding="UTF-8" standalone="no"?>
<!--Created with ndjsontosvg (https:https://github.com/thompson318/ndjsontosvg) 
	from the simplified Google quickdraw data set. key_id = 6707774517936128-->
<svg width="600" height="600"
	xmlns="http://www.w3.org/2000/svg">
	xmlns:ndjsontosvg="https://github.com/thompson318/ndjsontosvg"
	xmlns:quickdraw="https://quickdraw.withgoogle.com/data"
	xmlns:scikit-surgery="https://doi.org/10.1007/s11548-020-02180-5">

	<rect width="100%" height="100%" fill="white" />
	<path d = "M 51.56 25.78 L 65.62 67.97 L 53.91 232.03 L 56.25 375.00 L 82.03 417.19 L 100.78 431.25 L 140.62 445.31 L 222.66 445.31 L 393.75 412.50 L 522.66 403.12 L 567.19 389.06 L 583.59 377.34 L 592.97 356.25 L 597.66 297.66 L 564.84 25.78 L 553.12 7.03 L 532.03 0.00 L 63.28 11.72 L 0.00 21.09" stroke="black" fill="transparent"/>
	<path d = "M 410.16 84.38 L 372.66 56.25 L 304.69 65.62 L 189.84 133.59 L 164.06 164.06 L 154.69 189.84 L 157.03 250.78 L 201.56 311.72 L 271.88 353.91 L 339.84 358.59 L 407.81 325.78 L 435.94 304.69 L 452.34 281.25 L 457.03 225.00 L 450.00 192.19 L 412.50 128.91 L 370.31 93.75 L 335.16 86.72" stroke="black" fill="transparent"/>
	<path d = "M 452.34 58.59 L 475.78 105.47 L 492.19 105.47 L 501.56 89.06 L 503.91 53.91 L 461.72 37.50" stroke="black" fill="transparent"/>
	<path d = "M 314.06 175.78 L 349.22 142.97 L 304.69 142.97 L 278.91 154.69 L 248.44 189.84 L 243.75 225.00 L 250.78 236.72 L 281.25 253.12 L 318.75 255.47 L 337.50 248.44 L 370.31 213.28 L 393.75 171.09 L 393.75 159.38 L 382.03 147.66 L 351.56 142.97 L 314.06 145.31 L 253.12 180.47 L 234.38 208.59 L 232.03 225.00 L 239.06 248.44 L 267.19 262.50 L 342.19 264.84 L 384.38 250.78 L 410.16 234.38 L 414.84 220.31 L 410.16 208.59 L 372.66 203.91 L 318.75 210.94 L 239.06 253.12 L 220.31 274.22 L 220.31 290.62 L 243.75 302.34 L 292.97 302.34 L 403.12 278.91 L 372.66 276.56 L 292.97 292.97 L 180.47 339.84 L 457.03 213.28 L 314.06 271.88 L 246.09 316.41 L 257.81 318.75 L 445.31 248.44 L 278.91 307.03 L 407.81 234.38 L 398.44 229.69 L 295.31 274.22 L 360.94 234.38 L 389.06 206.25 L 386.72 201.56 L 288.28 201.56 L 288.28 192.19 L 379.69 138.28 L 260.16 180.47 L 351.56 135.94" stroke="black" fill="transparent"/>
</svg>