<?xml version="1.0" encoding="UTF-8" standalone="no"?>
<!--Created with ndjsontosvg (https:https://github.com/thompson318/ndjsontosvg) 
	from the simplified Google quickdraw data set. key_id = 5252232465350656-->
<svg width="600" height="600"
	xmlns="http://www.w3.org/2000/svg">
	xmlns:ndjsontosvg="https://github.com/thompson318/ndjsontosvg"
	xmlns:quickdraw="https://quickdraw.withgoogle.com/data"
	xmlns:scikit-surgery="https://doi.org/10.1007/s11548-020-02180-5">

	<rect width="100%" height="100%" fill="white" />
	<path d = "M 11.72 454.69 L 14.06 44.53 L 25.78 39.84 L 592.97 35.16 L 597.66 46.88 L 592.97 154.69 L 576.56 234.38 L 564.84 426.56 L 550.78 499.22 L 536.72 501.56 L 482.81 487.50 L 386.72 487.50 L 316.41 496.88 L 7.03 499.22 L 2.34 480.47 L 18.75 440.62" stroke="black" fill="transparent"/>
	<path d = "M 285.94 215.62 L 241.41 217.97 L 213.28 229.69 L 196.88 274.22 L 201.56 328.12 L 229.69 365.62 L 278.91 396.09 L 349.22 400.78 L 382.03 384.38 L 412.50 332.81 L 414.84 262.50 L 403.12 229.69 L 360.94 208.59 L 304.69 192.19 L 269.53 189.84 L 203.91 208.59 L 196.88 215.62 L 196.88 234.38" stroke="black" fill="transparent"/>
	<path d = "M 58.59 91.41 L 56.25 124.22 L 93.75 133.59 L 135.94 114.84 L 133.59 91.41 L 105.47 77.34 L 72.66 77.34 L 70.31 91.41" stroke="black" fill="transparent"/>
	<path d = "M 91.41 82.03 L 91.41 121.88" stroke="black" fill="transparent"/>
	<path d = "M 72.66 28.12 L 89.06 2.34 L 150.00 0.00 L 157.03 30.47" stroke="black" fill="transparent"/>
	<path d = "M 196.88 182.81 L 173.44 187.50 L 168.75 196.88 L 161.72 278.91 L 171.09 316.41 L 220.31 400.78 L 250.78 419.53 L 300.00 421.88 L 442.97 367.97 L 454.69 309.38 L 452.34 262.50 L 424.22 206.25 L 398.44 175.78 L 351.56 159.38 L 239.06 164.06 L 178.12 194.53 L 166.41 227.34" stroke="black" fill="transparent"/>
	<path d = "M 283.59 253.12 L 264.84 255.47 L 260.16 264.84 L 262.50 276.56 L 288.28 269.53 L 290.62 250.78 L 283.59 241.41 L 267.19 241.41 L 264.84 255.47 L 276.56 271.88 L 283.59 267.19" stroke="black" fill="transparent"/>
	<path d = "M 267.19 318.75 L 267.19 318.75" stroke="black" fill="transparent"/>
</svg>