<?xml version="1.0" encoding="UTF-8" standalone="no"?>
<!--Created with ndjsontosvg (https:https://github.com/thompson318/ndjsontosvg) 
	from the simplified Google quickdraw data set. key_id = 6713861510004736-->
<svg width="600" height="600"
	xmlns="http://www.w3.org/2000/svg">
	xmlns:ndjsontosvg="https://github.com/thompson318/ndjsontosvg"
	xmlns:quickdraw="https://quickdraw.withgoogle.com/data"
	xmlns:scikit-surgery="https://doi.org/10.1007/s11548-020-02180-5">

	<rect width="100%" height="100%" fill="white" />
	<path d = "M 89.06 417.19 L 288.28 412.50 L 353.91 403.12 L 440.62 370.31 L 482.81 335.16 L 515.62 283.59 L 536.72 215.62 L 546.09 112.50 L 527.34 67.97 L 499.22 42.19 L 396.09 9.38 L 314.06 2.34 L 215.62 0.00 L 98.44 46.88 L 56.25 79.69 L 30.47 121.88 L 21.09 171.09 L 21.09 250.78 L 25.78 276.56 L 58.59 339.84 L 114.84 405.47 L 157.03 438.28 L 194.53 450.00 L 248.44 442.97" stroke="black" fill="transparent"/>
	<path d = "M 46.88 98.44 L 56.25 91.41 L 290.62 70.31 L 461.72 70.31 L 597.66 96.09" stroke="black" fill="transparent"/>
	<path d = "M 0.00 206.25 L 227.34 189.84 L 358.59 189.84 L 534.38 206.25" stroke="black" fill="transparent"/>
	<path d = "M 21.09 323.44 L 187.50 323.44 L 480.47 339.84" stroke="black" fill="transparent"/>
	<path d = "M 89.06 53.91 L 117.19 46.88 L 346.88 51.56 L 471.09 65.62" stroke="black" fill="transparent"/>
</svg>