<?xml version="1.0" encoding="UTF-8" standalone="no"?>
<!--Created with ndjsontosvg (https:https://github.com/thompson318/ndjsontosvg) 
	from the simplified Google quickdraw data set. key_id = 6276806078365696-->
<svg width="600" height="600"
	xmlns="http://www.w3.org/2000/svg">
	xmlns:ndjsontosvg="https://github.com/thompson318/ndjsontosvg"
	xmlns:quickdraw="https://quickdraw.withgoogle.com/data"
	xmlns:scikit-surgery="https://doi.org/10.1007/s11548-020-02180-5">

	<rect width="100%" height="100%" fill="white" />
	<path d = "M 86.72 541.41 L 91.41 410.16 L 70.31 140.62 L 67.97 32.81 L 75.00 23.44" stroke="black" fill="transparent"/>
	<path d = "M 11.72 506.25 L 7.03 496.88 L 11.72 269.53 L 2.34 222.66 L 0.00 142.97 L 23.44 16.41" stroke="black" fill="transparent"/>
	<path d = "M 21.09 452.34 L 72.66 485.16" stroke="black" fill="transparent"/>
	<path d = "M 25.78 384.38 L 46.88 398.44 L 86.72 405.47" stroke="black" fill="transparent"/>
	<path d = "M 37.50 295.31 L 86.72 311.72" stroke="black" fill="transparent"/>
	<path d = "M 16.41 241.41 L 28.12 248.44 L 82.03 246.09" stroke="black" fill="transparent"/>
	<path d = "M 28.12 159.38 L 75.00 159.38" stroke="black" fill="transparent"/>
	<path d = "M 7.03 89.06 L 16.41 96.09 L 46.88 96.09" stroke="black" fill="transparent"/>
	<path d = "M 79.69 32.81 L 131.25 91.41 L 168.75 173.44 L 217.97 372.66 L 241.41 445.31 L 309.38 527.34 L 370.31 571.88 L 442.97 597.66 L 513.28 595.31 L 569.53 569.53 L 576.56 557.81" stroke="black" fill="transparent"/>
	<path d = "M 86.72 9.38 L 103.12 0.00 L 147.66 2.34 L 178.12 14.06 L 194.53 32.81 L 241.41 131.25 L 332.81 283.59" stroke="black" fill="transparent"/>
	<path d = "M 337.50 292.97 L 382.03 384.38" stroke="black" fill="transparent"/>
</svg>