<?xml version="1.0" encoding="UTF-8" standalone="no"?>
<!--Created with ndjsontosvg (https:https://github.com/thompson318/ndjsontosvg) 
	from the simplified Google quickdraw data set. key_id = 5931257114394624-->
<svg width="600" height="600"
	xmlns="http://www.w3.org/2000/svg">
	xmlns:ndjsontosvg="https://github.com/thompson318/ndjsontosvg"
	xmlns:quickdraw="https://quickdraw.withgoogle.com/data"
	xmlns:scikit-surgery="https://doi.org/10.1007/s11548-020-02180-5">

	<rect width="100%" height="100%" fill="white" />
	<path d = "M 389.06 23.44 L 295.31 11.72 L 217.97 28.12 L 138.28 63.28 L 77.34 105.47 L 46.88 140.62 L 23.44 192.19 L 7.03 255.47 L 0.00 330.47 L 7.03 389.06 L 35.16 442.97 L 86.72 492.19 L 145.31 515.62 L 239.06 525.00 L 325.78 510.94 L 407.81 485.16 L 492.19 438.28 L 541.41 398.44 L 578.91 344.53 L 595.31 295.31 L 595.31 213.28 L 560.16 152.34 L 506.25 96.09 L 459.38 60.94 L 389.06 35.16" stroke="black" fill="transparent"/>
	<path d = "M 178.12 44.53 L 147.66 278.91" stroke="black" fill="transparent"/>
	<path d = "M 346.88 0.00 L 288.28 246.09" stroke="black" fill="transparent"/>
	<path d = "M 447.66 51.56 L 400.78 269.53" stroke="black" fill="transparent"/>
	<path d = "M 339.84 445.31 L 285.94 576.56" stroke="black" fill="transparent"/>
	<path d = "M 215.62 396.09 L 203.91 417.19 L 166.41 539.06" stroke="black" fill="transparent"/>
</svg>