<?xml version="1.0" encoding="UTF-8" standalone="no"?>
<!--Created with ndjsontosvg (https:https://github.com/thompson318/ndjsontosvg) 
	from the simplified Google quickdraw data set. key_id = 5699214292025344-->
<svg width="600" height="600"
	xmlns="http://www.w3.org/2000/svg">
	xmlns:ndjsontosvg="https://github.com/thompson318/ndjsontosvg"
	xmlns:quickdraw="https://quickdraw.withgoogle.com/data"
	xmlns:scikit-surgery="https://doi.org/10.1007/s11548-020-02180-5">

	<rect width="100%" height="100%" fill="white" />
	<path d = "M 208.59 23.44 L 112.50 25.78 L 42.19 75.00 L 2.34 173.44 L 2.34 199.22 L 21.09 236.72 L 56.25 255.47 L 199.22 290.62 L 285.94 304.69 L 450.00 304.69 L 473.44 302.34 L 515.62 283.59 L 590.62 178.12 L 597.66 126.56 L 578.91 58.59 L 461.72 28.12 L 372.66 18.75 L 292.97 0.00 L 264.84 0.00 L 185.16 25.78 L 157.03 25.78" stroke="black" fill="transparent"/>
	<path d = "M 35.16 77.34 L 103.12 70.31 L 417.19 67.97 L 560.16 84.38 L 590.62 103.12" stroke="black" fill="transparent"/>
	<path d = "M 25.78 119.53 L 133.59 93.75 L 403.12 93.75 L 457.03 100.78 L 588.28 157.03" stroke="black" fill="transparent"/>
	<path d = "M 0.00 182.81 L 18.75 180.47 L 178.12 117.19 L 297.66 110.16 L 398.44 131.25 L 454.69 154.69 L 501.56 182.81 L 522.66 213.28 L 539.06 222.66" stroke="black" fill="transparent"/>
	<path d = "M 23.44 215.62 L 82.03 196.88 L 164.06 185.16 L 346.88 182.81 L 440.62 201.56 L 480.47 217.97" stroke="black" fill="transparent"/>
</svg>