<?xml version="1.0" encoding="UTF-8" standalone="no"?>
<!--Created with ndjsontosvg (https:https://github.com/thompson318/ndjsontosvg) 
	from the simplified Google quickdraw data set. key_id = 6749892263280640-->
<svg width="600" height="600"
	xmlns="http://www.w3.org/2000/svg">
	xmlns:ndjsontosvg="https://github.com/thompson318/ndjsontosvg"
	xmlns:quickdraw="https://quickdraw.withgoogle.com/data"
	xmlns:scikit-surgery="https://doi.org/10.1007/s11548-020-02180-5">

	<rect width="100%" height="100%" fill="white" />
	<path d = "M 398.44 23.44 L 335.16 4.69 L 236.72 2.34 L 110.16 65.62 L 18.75 142.97 L 0.00 196.88 L 0.00 225.00 L 16.41 260.16 L 72.66 307.03 L 145.31 328.12 L 302.34 344.53 L 452.34 342.19 L 541.41 311.72 L 578.91 285.94 L 595.31 253.12 L 597.66 189.84 L 574.22 131.25 L 517.97 77.34 L 475.78 46.88 L 410.16 23.44 L 375.00 18.75" stroke="black" fill="transparent"/>
	<path d = "M 267.19 25.78 L 215.62 39.84 L 182.81 56.25 L 124.22 100.78 L 84.38 142.97 L 65.62 187.50 L 67.97 213.28 L 77.34 236.72 L 119.53 262.50 L 189.84 285.94 L 452.34 311.72 L 496.88 307.03 L 548.44 248.44 L 555.47 178.12 L 546.09 138.28 L 496.88 107.81 L 452.34 93.75 L 379.69 84.38 L 257.81 30.47" stroke="black" fill="transparent"/>
	<path d = "M 201.56 75.00 L 201.56 77.34" stroke="black" fill="transparent"/>
	<path d = "M 178.12 110.16 L 175.78 121.88" stroke="black" fill="transparent"/>
	<path d = "M 166.41 147.66 L 166.41 157.03" stroke="black" fill="transparent"/>
	<path d = "M 154.69 201.56 L 150.00 208.59" stroke="black" fill="transparent"/>
	<path d = "M 154.69 222.66 L 178.12 222.66" stroke="black" fill="transparent"/>
	<path d = "M 229.69 220.31 L 232.03 210.94" stroke="black" fill="transparent"/>
	<path d = "M 229.69 189.84 L 229.69 187.50" stroke="black" fill="transparent"/>
	<path d = "M 229.69 157.03 L 229.69 157.03" stroke="black" fill="transparent"/>
	<path d = "M 229.69 142.97 L 232.03 138.28" stroke="black" fill="transparent"/>
	<path d = "M 234.38 126.56 L 246.09 124.22" stroke="black" fill="transparent"/>
	<path d = "M 321.09 121.88 L 321.09 121.88" stroke="black" fill="transparent"/>
	<path d = "M 285.94 173.44 L 285.94 173.44" stroke="black" fill="transparent"/>
	<path d = "M 281.25 187.50 L 281.25 187.50" stroke="black" fill="transparent"/>
	<path d = "M 309.38 135.94 L 311.72 135.94" stroke="black" fill="transparent"/>
	<path d = "M 398.44 105.47 L 398.44 105.47" stroke="black" fill="transparent"/>
	<path d = "M 426.56 164.06 L 424.22 175.78" stroke="black" fill="transparent"/>
	<path d = "M 328.12 203.91 L 328.12 203.91" stroke="black" fill="transparent"/>
	<path d = "M 328.12 173.44 L 342.19 164.06" stroke="black" fill="transparent"/>
	<path d = "M 363.28 157.03 L 386.72 161.72" stroke="black" fill="transparent"/>
	<path d = "M 435.94 189.84 L 438.28 203.91" stroke="black" fill="transparent"/>
	<path d = "M 431.25 241.41 L 454.69 246.09" stroke="black" fill="transparent"/>
	<path d = "M 485.16 220.31 L 492.19 199.22" stroke="black" fill="transparent"/>
	<path d = "M 487.50 147.66 L 473.44 152.34" stroke="black" fill="transparent"/>
</svg>