<?xml version="1.0" encoding="UTF-8" standalone="no"?>
<!--Created with ndjsontosvg (https:https://github.com/thompson318/ndjsontosvg) 
	from the simplified Google quickdraw data set. key_id = 5110499366666240-->
<svg width="600" height="600"
	xmlns="http://www.w3.org/2000/svg">
	xmlns:ndjsontosvg="https://github.com/thompson318/ndjsontosvg"
	xmlns:quickdraw="https://quickdraw.withgoogle.com/data"
	xmlns:scikit-surgery="https://doi.org/10.1007/s11548-020-02180-5">

	<rect width="100%" height="100%" fill="white" />
	<path d = "M 269.53 51.56 L 164.06 51.56 L 51.56 93.75 L 23.44 117.19 L 4.69 150.00 L 4.69 215.62 L 32.81 243.75 L 135.94 267.19 L 302.34 264.84 L 386.72 243.75" stroke="black" fill="transparent"/>
	<path d = "M 264.84 56.25 L 276.56 11.72 L 300.00 0.00 L 325.78 18.75 L 346.88 53.91 L 440.62 46.88 L 508.59 93.75" stroke="black" fill="transparent"/>
	<path d = "M 494.53 30.47 L 520.31 201.56 L 539.06 262.50 L 550.78 278.91 L 590.62 220.31 L 597.66 124.22 L 590.62 96.09 L 574.22 67.97 L 510.94 30.47" stroke="black" fill="transparent"/>
	<path d = "M 386.72 243.75 L 482.81 201.56 L 517.97 159.38" stroke="black" fill="transparent"/>
	<path d = "M 225.00 72.66 L 220.31 60.94 L 199.22 53.91 L 187.50 79.69 L 203.91 96.09 L 215.62 96.09 L 220.31 70.31" stroke="black" fill="transparent"/>
</svg>