<?xml version="1.0" encoding="UTF-8" standalone="no"?>
<!--Created with ndjsontosvg (https:https://github.com/thompson318/ndjsontosvg) 
	from the simplified Google quickdraw data set. key_id = 6314704546824192-->
<svg width="600" height="600"
	xmlns="http://www.w3.org/2000/svg">
	xmlns:ndjsontosvg="https://github.com/thompson318/ndjsontosvg"
	xmlns:quickdraw="https://quickdraw.withgoogle.com/data"
	xmlns:scikit-surgery="https://doi.org/10.1007/s11548-020-02180-5">

	<rect width="100%" height="100%" fill="white" />
	<path d = "M 128.91 302.34 L 103.12 297.66 L 58.59 260.16 L 35.16 250.78 L 16.41 248.44 L 4.69 269.53 L 0.00 283.59 L 7.03 316.41 L 70.31 398.44 L 16.41 478.12 L 14.06 503.91 L 30.47 510.94 L 96.09 510.94 L 178.12 487.50 L 517.97 471.09 L 560.16 454.69 L 585.94 417.19 L 592.97 370.31 L 597.66 189.84 L 588.28 173.44 L 564.84 159.38 L 527.34 152.34 L 349.22 150.00 L 187.50 161.72 L 161.72 168.75 L 124.22 210.94 L 114.84 229.69 L 114.84 262.50" stroke="black" fill="transparent"/>
	<path d = "M 564.84 398.44 L 325.78 400.78 L 278.91 417.19 L 253.12 452.34" stroke="black" fill="transparent"/>
	<path d = "M 363.28 400.78 L 375.00 452.34" stroke="black" fill="transparent"/>
	<path d = "M 459.38 426.56 L 475.78 485.16" stroke="black" fill="transparent"/>
	<path d = "M 543.75 414.84 L 548.44 442.97" stroke="black" fill="transparent"/>
	<path d = "M 506.25 229.69 L 506.25 264.84" stroke="black" fill="transparent"/>
	<path d = "M 356.25 189.84 L 365.62 93.75 L 382.03 51.56 L 428.91 0.00" stroke="black" fill="transparent"/>
	<path d = "M 344.53 182.81 L 342.19 103.12 L 328.12 67.97 L 297.66 30.47 L 271.88 16.41 L 229.69 4.69" stroke="black" fill="transparent"/>
</svg>