<?xml version="1.0" encoding="UTF-8" standalone="no"?>
<!--Created with ndjsontosvg (https:https://github.com/thompson318/ndjsontosvg) 
	from the simplified Google quickdraw data set. key_id = 4612570654703616-->
<svg width="600" height="600"
	xmlns="http://www.w3.org/2000/svg">
	xmlns:ndjsontosvg="https://github.com/thompson318/ndjsontosvg"
	xmlns:quickdraw="https://quickdraw.withgoogle.com/data"
	xmlns:scikit-surgery="https://doi.org/10.1007/s11548-020-02180-5">

	<rect width="100%" height="100%" fill="white" />
	<path d = "M 0.00 63.28 L 18.75 75.00 L 91.41 91.41 L 145.31 86.72 L 166.41 67.97 L 187.50 23.44 L 206.25 14.06 L 234.38 14.06 L 281.25 21.09 L 332.81 39.84 L 435.94 39.84 L 529.69 58.59 L 574.22 75.00 L 595.31 100.78 L 597.66 135.94 L 583.59 159.38 L 555.47 173.44 L 506.25 175.78 L 412.50 138.28 L 318.75 124.22 L 189.84 119.53 L 58.59 100.78 L 7.03 79.69 L 2.34 70.31" stroke="black" fill="transparent"/>
	<path d = "M 210.94 35.16 L 239.06 35.16" stroke="black" fill="transparent"/>
	<path d = "M 328.12 89.06 L 346.88 126.56 L 391.41 173.44 L 431.25 194.53 L 445.31 182.81 L 506.25 192.19 L 510.94 182.81 L 466.41 135.94 L 382.03 93.75" stroke="black" fill="transparent"/>
	<path d = "M 330.47 32.81 L 405.47 0.00" stroke="black" fill="transparent"/>
</svg>