<?xml version="1.0" encoding="UTF-8" standalone="no"?>
<!--Created with ndjsontosvg (https:https://github.com/thompson318/ndjsontosvg) 
	from the simplified Google quickdraw data set. key_id = 5370531371024384-->
<svg width="600" height="600"
	xmlns="http://www.w3.org/2000/svg">
	xmlns:ndjsontosvg="https://github.com/thompson318/ndjsontosvg"
	xmlns:quickdraw="https://quickdraw.withgoogle.com/data"
	xmlns:scikit-surgery="https://doi.org/10.1007/s11548-020-02180-5">

	<rect width="100%" height="100%" fill="white" />
	<path d = "M 285.94 14.06 L 222.66 14.06 L 187.50 25.78 L 142.97 46.88 L 103.12 79.69 L 67.97 124.22 L 18.75 220.31 L 9.38 271.88 L 7.03 346.88 L 21.09 391.41 L 58.59 445.31 L 142.97 517.97 L 194.53 536.72 L 243.75 546.09 L 353.91 543.75 L 419.53 520.31 L 473.44 485.16 L 543.75 403.12 L 567.19 353.91 L 583.59 304.69 L 581.25 159.38 L 546.09 112.50 L 475.78 72.66 L 365.62 42.19 L 295.31 42.19" stroke="black" fill="transparent"/>
	<path d = "M 295.31 210.94 L 267.19 225.00 L 241.41 262.50 L 234.38 307.03 L 239.06 337.50 L 281.25 384.38 L 311.72 398.44 L 344.53 405.47 L 393.75 398.44 L 414.84 372.66 L 424.22 344.53 L 426.56 260.16 L 405.47 239.06 L 353.91 217.97 L 295.31 210.94" stroke="black" fill="transparent"/>
	<path d = "M 246.09 215.62 L 63.28 161.72 L 0.00 159.38" stroke="black" fill="transparent"/>
	<path d = "M 285.94 342.19 L 227.34 480.47 L 199.22 503.91" stroke="black" fill="transparent"/>
	<path d = "M 363.28 391.41 L 372.66 534.38" stroke="black" fill="transparent"/>
	<path d = "M 440.62 349.22 L 513.28 342.19 L 597.66 363.28" stroke="black" fill="transparent"/>
	<path d = "M 351.56 152.34 L 375.00 171.09 L 522.66 180.47" stroke="black" fill="transparent"/>
	<path d = "M 269.53 199.22 L 290.62 171.09 L 300.00 145.31 L 307.03 84.38 L 302.34 32.81 L 285.94 0.00" stroke="black" fill="transparent"/>
	<path d = "M 194.53 164.06 L 53.91 39.84" stroke="black" fill="transparent"/>
</svg>