<?xml version="1.0" encoding="UTF-8" standalone="no"?>
<!--Created with ndjsontosvg (https:https://github.com/thompson318/ndjsontosvg) 
	from the simplified Google quickdraw data set. key_id = 4748227028975616-->
<svg width="600" height="600"
	xmlns="http://www.w3.org/2000/svg">
	xmlns:ndjsontosvg="https://github.com/thompson318/ndjsontosvg"
	xmlns:quickdraw="https://quickdraw.withgoogle.com/data"
	xmlns:scikit-surgery="https://doi.org/10.1007/s11548-020-02180-5">

	<rect width="100%" height="100%" fill="white" />
	<path d = "M 534.38 119.53 L 412.50 65.62 L 295.31 49.22 L 227.34 49.22 L 157.03 70.31 L 105.47 110.16 L 60.94 173.44 L 37.50 225.00 L 9.38 314.06 L 0.00 379.69 L 2.34 435.94 L 25.78 482.81 L 112.50 541.41 L 215.62 585.94 L 267.19 597.66 L 339.84 595.31 L 386.72 581.25 L 428.91 557.81 L 492.19 503.91 L 536.72 438.28 L 560.16 358.59 L 550.78 290.62 L 515.62 236.72 L 421.88 154.69 L 377.34 135.94 L 363.28 135.94 L 363.28 142.97" stroke="black" fill="transparent"/>
	<path d = "M 255.47 304.69 L 182.81 300.00 L 171.09 342.19 L 180.47 370.31 L 225.00 410.16 L 253.12 424.22 L 297.66 414.84 L 318.75 396.09 L 342.19 356.25 L 339.84 323.44 L 318.75 302.34 L 271.88 278.91 L 232.03 278.91 L 217.97 283.59 L 217.97 300.00" stroke="black" fill="transparent"/>
	<path d = "M 222.66 278.91 L 243.75 96.09 L 239.06 2.34 L 255.47 23.44 L 257.81 39.84" stroke="black" fill="transparent"/>
	<path d = "M 307.03 330.47 L 527.34 356.25" stroke="black" fill="transparent"/>
	<path d = "M 314.06 410.16 L 365.62 489.84 L 365.62 525.00" stroke="black" fill="transparent"/>
	<path d = "M 194.53 382.03 L 112.50 440.62 L 63.28 454.69 L 44.53 452.34" stroke="black" fill="transparent"/>
	<path d = "M 185.16 278.91 L 100.78 248.44 L 77.34 234.38 L 44.53 192.19" stroke="black" fill="transparent"/>
</svg>