<?xml version="1.0" encoding="UTF-8" standalone="no"?>
<!--Created with ndjsontosvg (https:https://github.com/thompson318/ndjsontosvg) 
	from the simplified Google quickdraw data set. key_id = 5777302283616256-->
<svg width="600" height="600"
	xmlns="http://www.w3.org/2000/svg">
	xmlns:ndjsontosvg="https://github.com/thompson318/ndjsontosvg"
	xmlns:quickdraw="https://quickdraw.withgoogle.com/data"
	xmlns:scikit-surgery="https://doi.org/10.1007/s11548-020-02180-5">

	<rect width="100%" height="100%" fill="white" />
	<path d = "M 419.53 35.16 L 414.84 21.09 L 377.34 2.34 L 300.00 2.34 L 243.75 28.12 L 121.88 121.88 L 63.28 189.84 L 2.34 285.94 L 0.00 311.72 L 14.06 339.84 L 49.22 360.94 L 114.84 375.00 L 269.53 382.03 L 405.47 342.19 L 525.00 276.56 L 567.19 239.06 L 590.62 203.91 L 597.66 173.44 L 590.62 138.28 L 564.84 105.47 L 529.69 82.03 L 480.47 63.28" stroke="black" fill="transparent"/>
	<path d = "M 126.56 79.69 L 292.97 161.72 L 485.16 281.25" stroke="black" fill="transparent"/>
	<path d = "M 447.66 16.41 L 382.03 39.84 L 332.81 72.66 L 271.88 128.91 L 131.25 304.69 L 44.53 398.44" stroke="black" fill="transparent"/>
	<path d = "M 208.59 35.16 L 232.03 91.41 L 248.44 206.25 L 250.78 297.66 L 232.03 349.22" stroke="black" fill="transparent"/>
	<path d = "M 21.09 222.66 L 86.72 225.00 L 452.34 173.44 L 581.25 166.41" stroke="black" fill="transparent"/>
</svg>