<?xml version="1.0" encoding="UTF-8" standalone="no"?>
<!--Created with ndjsontosvg (https:https://github.com/thompson318/ndjsontosvg) 
	from the simplified Google quickdraw data set. key_id = 5370562106884096-->
<svg width="600" height="600"
	xmlns="http://www.w3.org/2000/svg">
	xmlns:ndjsontosvg="https://github.com/thompson318/ndjsontosvg"
	xmlns:quickdraw="https://quickdraw.withgoogle.com/data"
	xmlns:scikit-surgery="https://doi.org/10.1007/s11548-020-02180-5">

	<rect width="100%" height="100%" fill="white" />
	<path d = "M 217.97 70.31 L 171.09 72.66 L 114.84 98.44 L 44.53 161.72 L 2.34 217.97 L 7.03 440.62 L 63.28 532.03 L 178.12 562.50 L 250.78 597.66 L 290.62 581.25 L 363.28 571.88 L 431.25 536.72 L 525.00 452.34 L 560.16 396.09 L 569.53 304.69 L 595.31 213.28 L 578.91 175.78 L 532.03 117.19 L 494.53 79.69 L 403.12 16.41 L 356.25 0.00 L 292.97 0.00 L 194.53 16.41 L 140.62 56.25 L 96.09 100.78 L 96.09 168.75" stroke="black" fill="transparent"/>
	<path d = "M 335.16 98.44 L 318.75 91.41 L 278.91 93.75 L 194.53 138.28 L 135.94 201.56 L 126.56 274.22 L 203.91 393.75 L 241.41 435.94 L 325.78 428.91 L 344.53 414.84 L 356.25 384.38 L 400.78 332.81 L 424.22 283.59 L 424.22 255.47 L 407.81 215.62 L 405.47 185.16 L 379.69 126.56 L 363.28 112.50 L 337.50 110.16" stroke="black" fill="transparent"/>
	<path d = "M 262.50 121.88 L 255.47 264.84 L 257.81 452.34" stroke="black" fill="transparent"/>
	<path d = "M 321.09 128.91 L 309.38 196.88 L 323.44 307.03 L 318.75 386.72" stroke="black" fill="transparent"/>
	<path d = "M 159.38 292.97 L 194.53 300.00 L 410.16 187.50" stroke="black" fill="transparent"/>
	<path d = "M 199.22 358.59 L 213.28 358.59 L 274.22 302.34 L 314.06 288.28 L 438.28 271.88" stroke="black" fill="transparent"/>
	<path d = "M 185.16 199.22 L 203.91 225.00 L 302.34 269.53 L 417.19 353.91" stroke="black" fill="transparent"/>
</svg>