<?xml version="1.0" encoding="UTF-8" standalone="no"?>
<!--Created with ndjsontosvg (https:https://github.com/thompson318/ndjsontosvg) 
	from the simplified Google quickdraw data set. key_id = 5681471366889472-->
<svg width="600" height="600"
	xmlns="http://www.w3.org/2000/svg">
	xmlns:ndjsontosvg="https://github.com/thompson318/ndjsontosvg"
	xmlns:quickdraw="https://quickdraw.withgoogle.com/data"
	xmlns:scikit-surgery="https://doi.org/10.1007/s11548-020-02180-5">

	<rect width="100%" height="100%" fill="white" />
	<path d = "M 91.41 592.97 L 91.41 562.50 L 138.28 281.25" stroke="black" fill="transparent"/>
	<path d = "M 278.91 597.66 L 236.72 421.88 L 206.25 236.72" stroke="black" fill="transparent"/>
	<path d = "M 201.56 147.66 L 168.75 142.97 L 138.28 166.41 L 128.91 196.88 L 128.91 239.06 L 157.03 262.50 L 187.50 262.50 L 201.56 255.47 L 215.62 225.00 L 222.66 192.19 L 220.31 173.44 L 201.56 154.69" stroke="black" fill="transparent"/>
	<path d = "M 145.31 147.66 L 147.66 119.53 L 164.06 84.38 L 208.59 23.44 L 236.72 0.00 L 234.38 67.97 L 215.62 150.00" stroke="black" fill="transparent"/>
	<path d = "M 225.00 182.81 L 255.47 154.69 L 332.81 117.19 L 382.03 105.47 L 396.09 107.81 L 398.44 117.19 L 396.09 142.97 L 382.03 173.44 L 349.22 206.25 L 300.00 227.34 L 227.34 232.03" stroke="black" fill="transparent"/>
	<path d = "M 131.25 182.81 L 93.75 135.94 L 60.94 114.84 L 0.00 121.88 L 7.03 164.06 L 23.44 194.53 L 60.94 217.97 L 142.97 236.72" stroke="black" fill="transparent"/>
	<path d = "M 119.53 260.16 L 89.06 283.59 L 53.91 332.81 L 49.22 367.97 L 56.25 398.44 L 103.12 372.66 L 159.38 330.47 L 175.78 311.72 L 194.53 269.53" stroke="black" fill="transparent"/>
	<path d = "M 185.16 274.22 L 208.59 339.84 L 246.09 377.34 L 288.28 391.41 L 311.72 389.06 L 316.41 379.69 L 304.69 351.56" stroke="black" fill="transparent"/>
</svg>