<?xml version="1.0" encoding="UTF-8" standalone="no"?>
<!--Created with ndjsontosvg (https:https://github.com/thompson318/ndjsontosvg) 
	from the simplified Google quickdraw data set. key_id = 6287659024515072-->
<svg width="600" height="600"
	xmlns="http://www.w3.org/2000/svg">
	xmlns:ndjsontosvg="https://github.com/thompson318/ndjsontosvg"
	xmlns:quickdraw="https://quickdraw.withgoogle.com/data"
	xmlns:scikit-surgery="https://doi.org/10.1007/s11548-020-02180-5">

	<rect width="100%" height="100%" fill="white" />
	<path d = "M 203.91 330.47 L 201.56 356.25 L 192.19 377.34 L 150.00 435.94 L 98.44 522.66" stroke="black" fill="transparent"/>
	<path d = "M 330.47 344.53 L 344.53 417.19 L 377.34 492.19 L 389.06 506.25 L 417.19 522.66 L 431.25 522.66 L 438.28 501.56" stroke="black" fill="transparent"/>
	<path d = "M 321.09 339.84 L 353.91 321.09 L 400.78 321.09 L 435.94 332.81 L 501.56 335.16 L 588.28 367.97 L 595.31 353.91 L 597.66 318.75 L 585.94 297.66 L 590.62 264.84 L 583.59 257.81 L 464.06 264.84 L 396.09 246.09 L 346.88 243.75 L 377.34 145.31 L 410.16 77.34 L 412.50 28.12 L 377.34 9.38 L 311.72 0.00 L 307.03 4.69 L 253.12 100.78 L 239.06 185.16 L 182.81 67.97 L 166.41 39.84 L 114.84 30.47 L 67.97 49.22 L 2.34 93.75 L 2.34 103.12 L 100.78 164.06 L 166.41 246.09 L 159.38 262.50 L 42.19 372.66 L 21.09 400.78 L 72.66 421.88 L 142.97 438.28 L 164.06 396.09 L 201.56 353.91 L 225.00 309.38" stroke="black" fill="transparent"/>
	<path d = "M 281.25 206.25 L 264.84 203.91 L 241.41 220.31 L 229.69 248.44 L 229.69 283.59 L 241.41 304.69 L 253.12 316.41 L 276.56 314.06 L 309.38 264.84 L 311.72 236.72 L 302.34 217.97 L 262.50 206.25 L 232.03 246.09" stroke="black" fill="transparent"/>
	<path d = "M 264.84 351.56 L 239.06 424.22 L 229.69 478.12 L 236.72 473.44" stroke="black" fill="transparent"/>
	<path d = "M 318.75 370.31 L 316.41 464.06 L 325.78 503.91" stroke="black" fill="transparent"/>
	<path d = "M 253.12 351.56 L 220.31 396.09 L 203.91 452.34" stroke="black" fill="transparent"/>
</svg>