<?xml version="1.0" encoding="UTF-8" standalone="no"?>
<!--Created with ndjsontosvg (https:https://github.com/thompson318/ndjsontosvg) 
	from the simplified Google quickdraw data set. key_id = 5513456675454976-->
<svg width="600" height="600"
	xmlns="http://www.w3.org/2000/svg">
	xmlns:ndjsontosvg="https://github.com/thompson318/ndjsontosvg"
	xmlns:quickdraw="https://quickdraw.withgoogle.com/data"
	xmlns:scikit-surgery="https://doi.org/10.1007/s11548-020-02180-5">

	<rect width="100%" height="100%" fill="white" />
	<path d = "M 208.59 346.88 L 229.69 410.16 L 232.03 461.72 L 201.56 562.50 L 201.56 588.28 L 232.03 597.66 L 311.72 597.66 L 379.69 590.62 L 393.75 583.59 L 365.62 522.66 L 328.12 403.12 L 314.06 255.47 L 292.97 201.56 L 271.88 180.47 L 241.41 178.12 L 192.19 210.94 L 180.47 234.38 L 180.47 262.50 L 201.56 337.50" stroke="black" fill="transparent"/>
	<path d = "M 213.28 288.28 L 201.56 288.28 L 166.41 307.03 L 72.66 396.09 L 157.03 396.09 L 255.47 269.53" stroke="black" fill="transparent"/>
	<path d = "M 222.66 239.06 L 164.06 222.66 L 4.69 196.88 L 0.00 201.56 L 18.75 100.78 L 72.66 131.25 L 173.44 210.94" stroke="black" fill="transparent"/>
	<path d = "M 194.53 217.97 L 196.88 35.16 L 187.50 0.00 L 260.16 4.69 L 234.38 114.84 L 222.66 210.94" stroke="black" fill="transparent"/>
</svg>