<?xml version="1.0" encoding="UTF-8" standalone="no"?>
<!--Created with ndjsontosvg (https:https://github.com/thompson318/ndjsontosvg) 
	from the simplified Google quickdraw data set. key_id = 6733238393372672-->
<svg width="600" height="600"
	xmlns="http://www.w3.org/2000/svg">
	xmlns:ndjsontosvg="https://github.com/thompson318/ndjsontosvg"
	xmlns:quickdraw="https://quickdraw.withgoogle.com/data"
	xmlns:scikit-surgery="https://doi.org/10.1007/s11548-020-02180-5">

	<rect width="100%" height="100%" fill="white" />
	<path d = "M 243.75 140.62 L 93.75 23.44 L 51.56 4.69 L 9.38 2.34 L 0.00 30.47 L 9.38 63.28 L 35.16 103.12 L 70.31 142.97 L 121.88 168.75 L 220.31 178.12" stroke="black" fill="transparent"/>
	<path d = "M 262.50 105.47 L 248.44 107.81 L 229.69 126.56 L 189.84 189.84 L 194.53 222.66 L 210.94 232.03 L 227.34 232.03 L 278.91 199.22 L 300.00 168.75 L 276.56 140.62 L 241.41 112.50" stroke="black" fill="transparent"/>
	<path d = "M 248.44 145.31 L 332.81 67.97 L 414.84 25.78 L 480.47 11.72 L 546.09 28.12 L 550.78 42.19 L 466.41 100.78 L 283.59 182.81" stroke="black" fill="transparent"/>
	<path d = "M 182.81 203.91 L 159.38 213.28 L 126.56 236.72 L 28.12 328.12 L 2.34 372.66 L 21.09 384.38 L 70.31 363.28 L 138.28 316.41 L 239.06 222.66" stroke="black" fill="transparent"/>
	<path d = "M 276.56 178.12 L 276.56 194.53 L 297.66 239.06 L 346.88 314.06 L 370.31 339.84 L 410.16 351.56 L 407.81 307.03 L 384.38 255.47 L 344.53 185.16 L 307.03 147.66" stroke="black" fill="transparent"/>
	<path d = "M 229.69 210.94 L 152.34 447.66 L 142.97 510.94 L 147.66 525.00" stroke="black" fill="transparent"/>
	<path d = "M 255.47 217.97 L 267.19 234.38 L 274.22 288.28 L 278.91 592.97" stroke="black" fill="transparent"/>
	<path d = "M 304.69 590.62 L 302.34 597.66 L 283.59 597.66 L 124.22 557.81" stroke="black" fill="transparent"/>
</svg>