<?xml version="1.0" encoding="UTF-8" standalone="no"?>
<!--Created with ndjsontosvg (https:https://github.com/thompson318/ndjsontosvg) 
	from the simplified Google quickdraw data set. key_id = 6294317297565696-->
<svg width="600" height="600"
	xmlns="http://www.w3.org/2000/svg">
	xmlns:ndjsontosvg="https://github.com/thompson318/ndjsontosvg"
	xmlns:quickdraw="https://quickdraw.withgoogle.com/data"
	xmlns:scikit-surgery="https://doi.org/10.1007/s11548-020-02180-5">

	<rect width="100%" height="100%" fill="white" />
	<path d = "M 63.28 147.66 L 89.06 262.50 L 124.22 342.19 L 173.44 386.72 L 220.31 407.81 L 255.47 407.81 L 262.50 445.31 L 292.97 503.91 L 295.31 515.62 L 255.47 534.38 L 161.72 560.16 L 114.84 583.59 L 213.28 597.66 L 440.62 595.31 L 473.44 583.59 L 414.84 555.47 L 370.31 555.47 L 358.59 543.75 L 353.91 440.62 L 356.25 428.91 L 431.25 403.12 L 475.78 375.00 L 496.88 318.75 L 501.56 290.62 L 496.88 175.78 L 445.31 53.91 L 370.31 63.28 L 250.78 58.59 L 77.34 0.00 L 28.12 9.38 L 2.34 30.47 L 0.00 39.84 L 4.69 51.56 L 56.25 84.38 L 103.12 89.06 L 410.16 56.25 L 508.59 30.47 L 454.69 9.38 L 60.94 14.06 L 51.56 25.78 L 51.56 70.31 L 23.44 157.03" stroke="black" fill="transparent"/>
</svg>