<?xml version="1.0" encoding="UTF-8" standalone="no"?>
<!--Created with ndjsontosvg (https:https://github.com/thompson318/ndjsontosvg) 
	from the simplified Google quickdraw data set. key_id = 5948271107244032-->
<svg width="600" height="600"
	xmlns="http://www.w3.org/2000/svg">
	xmlns:ndjsontosvg="https://github.com/thompson318/ndjsontosvg"
	xmlns:quickdraw="https://quickdraw.withgoogle.com/data"
	xmlns:scikit-surgery="https://doi.org/10.1007/s11548-020-02180-5">

	<rect width="100%" height="100%" fill="white" />
	<path d = "M 77.34 44.53 L 131.25 70.31 L 215.62 65.62 L 274.22 51.56 L 281.25 30.47 L 267.19 9.38 L 175.78 0.00 L 56.25 11.72 L 60.94 42.19 L 86.72 49.22" stroke="black" fill="transparent"/>
	<path d = "M 82.03 51.56 L 77.34 51.56" stroke="black" fill="transparent"/>
	<path d = "M 63.28 51.56 L 53.91 105.47 L 53.91 142.97 L 60.94 166.41 L 112.50 208.59 L 227.34 234.38 L 246.09 227.34 L 288.28 194.53 L 330.47 135.94 L 314.06 58.59 L 295.31 53.91 L 292.97 44.53" stroke="black" fill="transparent"/>
	<path d = "M 161.72 217.97 L 168.75 295.31 L 161.72 410.16 L 128.91 403.12 L 86.72 424.22 L 44.53 431.25 L 0.00 457.03 L 9.38 517.97 L 21.09 539.06 L 39.84 564.84 L 91.41 595.31 L 189.84 597.66 L 288.28 578.91 L 353.91 543.75 L 370.31 508.59 L 372.66 471.09 L 367.97 457.03 L 332.81 431.25 L 267.19 421.88" stroke="black" fill="transparent"/>
</svg>