<?xml version="1.0" encoding="UTF-8" standalone="no"?>
<!--Created with ndjsontosvg (https:https://github.com/thompson318/ndjsontosvg) 
	from the simplified Google quickdraw data set. key_id = 5309365932261376-->
<svg width="600" height="600"
	xmlns="http://www.w3.org/2000/svg">
	xmlns:ndjsontosvg="https://github.com/thompson318/ndjsontosvg"
	xmlns:quickdraw="https://quickdraw.withgoogle.com/data"
	xmlns:scikit-surgery="https://doi.org/10.1007/s11548-020-02180-5">

	<rect width="100%" height="100%" fill="white" />
	<path d = "M 65.62 77.34 L 269.53 89.06 L 302.34 105.47 L 356.25 105.47 L 407.81 82.03 L 412.50 65.62 L 351.56 56.25 L 166.41 56.25 L 46.88 65.62 L 46.88 82.03 L 75.00 117.19 L 131.25 164.06 L 157.03 220.31 L 175.78 222.66" stroke="black" fill="transparent"/>
	<path d = "M 168.75 239.06 L 203.91 250.78 L 255.47 250.78 L 358.59 215.62 L 386.72 185.16 L 407.81 145.31 L 431.25 91.41 L 428.91 72.66" stroke="black" fill="transparent"/>
	<path d = "M 42.19 60.94 L 25.78 51.56 L 0.00 16.41 L 28.12 2.34 L 311.72 0.00 L 389.06 14.06 L 508.59 14.06 L 414.84 89.06" stroke="black" fill="transparent"/>
	<path d = "M 180.47 255.47 L 250.78 309.38 L 267.19 346.88 L 271.88 403.12 L 257.81 438.28 L 241.41 454.69 L 213.28 510.94 L 180.47 546.09 L 96.09 581.25 L 121.88 590.62 L 208.59 588.28 L 267.19 597.66 L 391.41 578.91 L 407.81 567.19 L 375.00 564.84 L 302.34 487.50 L 288.28 417.19 L 297.66 323.44 L 339.84 239.06 L 342.19 215.62" stroke="black" fill="transparent"/>
</svg>