<?xml version="1.0" encoding="UTF-8" standalone="no"?>
<!--Created with ndjsontosvg (https:https://github.com/thompson318/ndjsontosvg) 
	from the simplified Google quickdraw data set. key_id = 6316917344174080-->
<svg width="600" height="600"
	xmlns="http://www.w3.org/2000/svg">
	xmlns:ndjsontosvg="https://github.com/thompson318/ndjsontosvg"
	xmlns:quickdraw="https://quickdraw.withgoogle.com/data"
	xmlns:scikit-surgery="https://doi.org/10.1007/s11548-020-02180-5">

	<rect width="100%" height="100%" fill="white" />
	<path d = "M 107.81 150.00 L 84.38 157.03 L 56.25 182.81 L 14.06 248.44 L 0.00 302.34 L 4.69 363.28 L 21.09 375.00 L 75.00 377.34 L 105.47 356.25 L 168.75 288.28 L 201.56 222.66 L 199.22 178.12 L 96.09 128.91" stroke="black" fill="transparent"/>
	<path d = "M 75.00 157.03 L 84.38 117.19 L 114.84 75.00 L 187.50 18.75 L 220.31 4.69 L 255.47 0.00 L 346.88 4.69 L 375.00 21.09 L 391.41 65.62 L 405.47 175.78 L 407.81 267.19 L 372.66 384.38 L 297.66 510.94 L 239.06 567.19 L 178.12 595.31 L 107.81 597.66 L 79.69 590.62 L 37.50 557.81 L 21.09 529.69 L 11.72 492.19 L 14.06 421.88 L 35.16 377.34 L 63.28 344.53" stroke="black" fill="transparent"/>
	<path d = "M 140.62 126.56 L 180.47 84.38 L 217.97 60.94 L 283.59 37.50 L 332.81 42.19 L 393.75 77.34" stroke="black" fill="transparent"/>
	<path d = "M 60.94 377.34 L 63.28 452.34 L 72.66 492.19 L 89.06 515.62 L 133.59 548.44 L 225.00 555.47 L 269.53 534.38 L 346.88 478.12" stroke="black" fill="transparent"/>
	<path d = "M 65.62 253.12 L 70.31 269.53 L 91.41 260.16 L 82.03 250.78 L 82.03 236.72 L 107.81 178.12" stroke="black" fill="transparent"/>
	<path d = "M 89.06 243.75 L 150.00 241.41" stroke="black" fill="transparent"/>
</svg>