<?xml version="1.0" encoding="UTF-8" standalone="no"?>
<!--Created with ndjsontosvg (https:https://github.com/thompson318/ndjsontosvg) 
	from the simplified Google quickdraw data set. key_id = 4526454534569984-->
<svg width="600" height="600"
	xmlns="http://www.w3.org/2000/svg">
	xmlns:ndjsontosvg="https://github.com/thompson318/ndjsontosvg"
	xmlns:quickdraw="https://quickdraw.withgoogle.com/data"
	xmlns:scikit-surgery="https://doi.org/10.1007/s11548-020-02180-5">

	<rect width="100%" height="100%" fill="white" />
	<path d = "M 248.44 21.09 L 232.03 49.22 L 222.66 79.69 L 222.66 114.84 L 234.38 138.28 L 257.81 161.72 L 302.34 182.81 L 351.56 182.81 L 372.66 168.75 L 400.78 128.91 L 405.47 72.66 L 393.75 44.53 L 363.28 14.06 L 330.47 0.00 L 276.56 2.34 L 250.78 18.75" stroke="black" fill="transparent"/>
	<path d = "M 398.44 46.88 L 583.59 28.12 L 592.97 53.91 L 597.66 117.19 L 384.38 121.88" stroke="black" fill="transparent"/>
	<path d = "M 236.72 37.50 L 0.00 37.50 L 14.06 58.59 L 32.81 145.31 L 42.19 157.03 L 91.41 157.03 L 257.81 131.25" stroke="black" fill="transparent"/>
	<path d = "M 309.38 21.09 L 309.38 21.09" stroke="black" fill="transparent"/>
</svg>