<?xml version="1.0" encoding="UTF-8" standalone="no"?>
<!--Created with ndjsontosvg (https:https://github.com/thompson318/ndjsontosvg) 
	from the simplified Google quickdraw data set. key_id = 5444347740815360-->
<svg width="600" height="600"
	xmlns="http://www.w3.org/2000/svg">
	xmlns:ndjsontosvg="https://github.com/thompson318/ndjsontosvg"
	xmlns:quickdraw="https://quickdraw.withgoogle.com/data"
	xmlns:scikit-surgery="https://doi.org/10.1007/s11548-020-02180-5">

	<rect width="100%" height="100%" fill="white" />
	<path d = "M 173.44 225.00 L 145.31 217.97 L 77.34 217.97 L 16.41 257.81 L 0.00 304.69 L 0.00 351.56 L 9.38 363.28 L 60.94 389.06 L 164.06 410.16 L 217.97 407.81 L 241.41 393.75 L 243.75 295.31 L 232.03 269.53 L 213.28 241.41 L 175.78 217.97 L 138.28 210.94" stroke="black" fill="transparent"/>
	<path d = "M 103.12 255.47 L 67.97 278.91 L 58.59 302.34 L 60.94 337.50 L 98.44 365.62 L 196.88 372.66 L 208.59 360.94 L 208.59 337.50 L 196.88 307.03 L 154.69 257.81 L 142.97 250.78 L 96.09 248.44" stroke="black" fill="transparent"/>
	<path d = "M 121.88 222.66 L 112.50 161.72 L 114.84 9.38 L 128.91 0.00 L 260.16 0.00 L 260.16 107.81 L 232.03 234.38" stroke="black" fill="transparent"/>
	<path d = "M 77.34 405.47 L 79.69 506.25 L 100.78 574.22 L 152.34 595.31 L 206.25 597.66 L 217.97 585.94 L 222.66 548.44 L 222.66 412.50 L 213.28 384.38" stroke="black" fill="transparent"/>
	<path d = "M 124.22 271.88 L 128.91 318.75" stroke="black" fill="transparent"/>
	<path d = "M 128.91 318.75 L 178.12 318.75" stroke="black" fill="transparent"/>
</svg>