<?xml version="1.0" encoding="UTF-8" standalone="no"?>
<!--Created with ndjsontosvg (https:https://github.com/thompson318/ndjsontosvg) 
	from the simplified Google quickdraw data set. key_id = 6439147550015488-->
<svg width="600" height="600"
	xmlns="http://www.w3.org/2000/svg">
	xmlns:ndjsontosvg="https://github.com/thompson318/ndjsontosvg"
	xmlns:quickdraw="https://quickdraw.withgoogle.com/data"
	xmlns:scikit-surgery="https://doi.org/10.1007/s11548-020-02180-5">

	<rect width="100%" height="100%" fill="white" />
	<path d = "M 152.34 257.81 L 128.91 236.72 L 98.44 227.34 L 53.91 234.38 L 16.41 255.47 L 0.00 290.62 L 7.03 360.94 L 32.81 393.75 L 63.28 405.47 L 119.53 398.44 L 171.09 370.31 L 180.47 346.88 L 175.78 269.53 L 159.38 241.41 L 140.62 229.69" stroke="black" fill="transparent"/>
	<path d = "M 86.72 253.12 L 91.41 278.91" stroke="black" fill="transparent"/>
	<path d = "M 25.78 309.38 L 63.28 311.72" stroke="black" fill="transparent"/>
	<path d = "M 180.47 328.12 L 150.00 323.44" stroke="black" fill="transparent"/>
	<path d = "M 96.09 365.62 L 91.41 325.78" stroke="black" fill="transparent"/>
	<path d = "M 44.53 236.72 L 89.06 119.53 L 154.69 0.00" stroke="black" fill="transparent"/>
	<path d = "M 154.69 232.03 L 229.69 35.16" stroke="black" fill="transparent"/>
	<path d = "M 91.41 405.47 L 93.75 461.72 L 133.59 588.28" stroke="black" fill="transparent"/>
	<path d = "M 142.97 384.38 L 142.97 405.47 L 154.69 445.31 L 225.00 585.94" stroke="black" fill="transparent"/>
</svg>