<?xml version="1.0" encoding="UTF-8" standalone="no"?>
<!--Created with ndjsontosvg (https:https://github.com/thompson318/ndjsontosvg) 
	from the simplified Google quickdraw data set. key_id = 5378343727792128-->
<svg width="600" height="600"
	xmlns="http://www.w3.org/2000/svg">
	xmlns:ndjsontosvg="https://github.com/thompson318/ndjsontosvg"
	xmlns:quickdraw="https://quickdraw.withgoogle.com/data"
	xmlns:scikit-surgery="https://doi.org/10.1007/s11548-020-02180-5">

	<rect width="100%" height="100%" fill="white" />
	<path d = "M 337.50 2.34 L 307.03 7.03 L 250.78 49.22 L 225.00 105.47 L 232.03 138.28 L 255.47 161.72 L 283.59 173.44 L 309.38 175.78 L 339.84 154.69 L 410.16 77.34 L 414.84 25.78 L 410.16 16.41 L 360.94 7.03" stroke="black" fill="transparent"/>
	<path d = "M 220.31 75.00 L 182.81 77.34 L 98.44 98.44 L 37.50 140.62 L 11.72 182.81 L 0.00 215.62 L 0.00 297.66 L 9.38 367.97 L 49.22 398.44 L 91.41 405.47 L 180.47 386.72 L 471.09 358.59 L 557.81 316.41 L 581.25 288.28 L 592.97 257.81 L 597.66 201.56 L 588.28 154.69 L 578.91 140.62 L 529.69 110.16 L 421.88 67.97" stroke="black" fill="transparent"/>
	<path d = "M 405.47 91.41 L 527.34 185.16 L 541.41 206.25 L 536.72 262.50 L 520.31 290.62 L 508.59 302.34 L 473.44 314.06 L 203.91 328.12 L 161.72 321.09 L 93.75 267.19 L 67.97 227.34 L 67.97 194.53 L 77.34 180.47 L 152.34 135.94" stroke="black" fill="transparent"/>
</svg>