<?xml version="1.0" encoding="UTF-8" standalone="no"?>
<!--Created with ndjsontosvg (https:https://github.com/thompson318/ndjsontosvg) 
	from the simplified Google quickdraw data set. key_id = 5378313830793216-->
<svg width="600" height="600"
	xmlns="http://www.w3.org/2000/svg">
	xmlns:ndjsontosvg="https://github.com/thompson318/ndjsontosvg"
	xmlns:quickdraw="https://quickdraw.withgoogle.com/data"
	xmlns:scikit-surgery="https://doi.org/10.1007/s11548-020-02180-5">

	<rect width="100%" height="100%" fill="white" />
	<path d = "M 128.91 414.84 L 300.00 431.25 L 419.53 450.00 L 496.88 447.66" stroke="black" fill="transparent"/>
	<path d = "M 171.09 412.50 L 131.25 405.47 L 56.25 410.16 L 7.03 426.56 L 0.00 438.28" stroke="black" fill="transparent"/>
	<path d = "M 440.62 433.59 L 506.25 452.34 L 597.66 459.38" stroke="black" fill="transparent"/>
	<path d = "M 208.59 377.34 L 393.75 384.38 L 435.94 239.06 L 435.94 159.38 L 428.91 131.25" stroke="black" fill="transparent"/>
	<path d = "M 464.06 39.84 L 428.91 35.16 L 391.41 44.53 L 365.62 63.28 L 353.91 98.44 L 375.00 117.19 L 393.75 121.88 L 431.25 119.53 L 461.72 105.47 L 480.47 77.34 L 482.81 56.25 L 473.44 16.41 L 459.38 0.00" stroke="black" fill="transparent"/>
	<path d = "M 391.41 75.00 L 391.41 75.00" stroke="black" fill="transparent"/>
	<path d = "M 442.97 46.88 L 442.97 46.88" stroke="black" fill="transparent"/>
	<path d = "M 431.25 210.94 L 365.62 213.28 L 328.12 227.34 L 257.81 274.22" stroke="black" fill="transparent"/>
	<path d = "M 438.28 203.91 L 494.53 260.16 L 578.91 382.03" stroke="black" fill="transparent"/>
</svg>