<?xml version="1.0" encoding="UTF-8" standalone="no"?>
<!--Created with ndjsontosvg (https:https://github.com/thompson318/ndjsontosvg) 
	from the simplified Google quickdraw data set. key_id = 6427636811169792-->
<svg width="600" height="600"
	xmlns="http://www.w3.org/2000/svg">
	xmlns:ndjsontosvg="https://github.com/thompson318/ndjsontosvg"
	xmlns:quickdraw="https://quickdraw.withgoogle.com/data"
	xmlns:scikit-surgery="https://doi.org/10.1007/s11548-020-02180-5">

	<rect width="100%" height="100%" fill="white" />
	<path d = "M 372.66 30.47 L 346.88 16.41 L 288.28 0.00 L 215.62 7.03 L 180.47 32.81 L 150.00 70.31 L 128.91 126.56 L 121.88 243.75 L 147.66 300.00 L 178.12 342.19 L 215.62 367.97 L 267.19 377.34 L 330.47 372.66 L 386.72 339.84 L 438.28 295.31 L 473.44 239.06 L 489.84 185.16 L 485.16 96.09 L 452.34 58.59 L 410.16 32.81 L 363.28 16.41 L 236.72 7.03" stroke="black" fill="transparent"/>
	<path d = "M 297.66 370.31 L 297.66 482.81 L 285.94 522.66 L 276.56 532.03 L 173.44 529.69 L 112.50 539.06 L 39.84 562.50 L 0.00 583.59 L 0.00 590.62" stroke="black" fill="transparent"/>
	<path d = "M 250.78 529.69 L 417.19 560.16 L 515.62 597.66" stroke="black" fill="transparent"/>
	<path d = "M 445.31 574.22 L 447.66 543.75 L 421.88 508.59 L 382.03 478.12 L 314.06 442.97 L 260.16 431.25 L 157.03 431.25 L 98.44 442.97 L 72.66 459.38 L 44.53 522.66" stroke="black" fill="transparent"/>
	<path d = "M 150.00 548.44 L 150.00 548.44" stroke="black" fill="transparent"/>
</svg>