<?xml version="1.0" encoding="UTF-8" standalone="no"?>
<!--Created with ndjsontosvg (https:https://github.com/thompson318/ndjsontosvg) 
	from the simplified Google quickdraw data set. key_id = 5594561558609920-->
<svg width="600" height="600"
	xmlns="http://www.w3.org/2000/svg">
	xmlns:ndjsontosvg="https://github.com/thompson318/ndjsontosvg"
	xmlns:quickdraw="https://quickdraw.withgoogle.com/data"
	xmlns:scikit-surgery="https://doi.org/10.1007/s11548-020-02180-5">

	<rect width="100%" height="100%" fill="white" />
	<path d = "M 529.69 46.88 L 473.44 56.25 L 442.97 75.00 L 414.84 112.50 L 403.12 140.62 L 419.53 189.84 L 438.28 208.59 L 471.09 215.62 L 517.97 208.59 L 539.06 192.19 L 569.53 150.00 L 574.22 126.56 L 557.81 98.44 L 506.25 77.34 L 461.72 75.00 L 435.94 82.03" stroke="black" fill="transparent"/>
	<path d = "M 407.81 189.84 L 391.41 201.56 L 356.25 201.56 L 309.38 84.38 L 257.81 0.00" stroke="black" fill="transparent"/>
	<path d = "M 323.44 194.53 L 342.19 213.28 L 372.66 292.97 L 417.19 508.59" stroke="black" fill="transparent"/>
	<path d = "M 330.47 208.59 L 234.38 257.81 L 157.03 309.38 L 44.53 356.25 L 28.12 510.94 L 0.00 595.31" stroke="black" fill="transparent"/>
</svg>