<?xml version="1.0" encoding="UTF-8" standalone="no"?>
<!--Created with ndjsontosvg (https:https://github.com/thompson318/ndjsontosvg) 
	from the simplified Google quickdraw data set. key_id = 5865548225183744-->
<svg width="600" height="600"
	xmlns="http://www.w3.org/2000/svg">
	xmlns:ndjsontosvg="https://github.com/thompson318/ndjsontosvg"
	xmlns:quickdraw="https://quickdraw.withgoogle.com/data"
	xmlns:scikit-surgery="https://doi.org/10.1007/s11548-020-02180-5">

	<rect width="100%" height="100%" fill="white" />
	<path d = "M 0.00 377.34 L 7.03 215.62 L 14.06 180.47 L 32.81 157.03 L 105.47 121.88 L 346.88 119.53 L 379.69 112.50 L 414.84 93.75 L 442.97 51.56 L 480.47 18.75 L 550.78 0.00 L 585.94 37.50 L 597.66 70.31 L 597.66 96.09 L 588.28 103.12 L 515.62 103.12 L 501.56 119.53 L 478.12 225.00 L 489.84 400.78" stroke="black" fill="transparent"/>
	<path d = "M 14.06 377.34 L 98.44 358.59 L 100.78 295.31 L 112.50 283.59 L 150.00 281.25 L 164.06 285.94 L 171.09 321.09 L 164.06 389.06 L 220.31 382.03 L 246.09 363.28 L 253.12 342.19 L 246.09 288.28 L 264.84 278.91 L 285.94 297.66 L 309.38 360.94 L 304.69 386.72 L 318.75 384.38 L 349.22 351.56 L 353.91 274.22 L 363.28 262.50 L 391.41 281.25 L 417.19 316.41 L 424.22 393.75 L 452.34 403.12 L 510.94 398.44" stroke="black" fill="transparent"/>
	<path d = "M 51.56 138.28 L 46.88 283.59 L 32.81 349.22 L 49.22 323.44" stroke="black" fill="transparent"/>
	<path d = "M 86.72 128.91 L 103.12 250.78 L 131.25 189.84 L 142.97 128.91" stroke="black" fill="transparent"/>
	<path d = "M 157.03 126.56 L 192.19 178.12 L 210.94 255.47 L 250.78 185.16 L 260.16 112.50" stroke="black" fill="transparent"/>
	<path d = "M 316.41 128.91 L 356.25 243.75 L 391.41 131.25" stroke="black" fill="transparent"/>
</svg>