<?xml version="1.0" encoding="UTF-8" standalone="no"?>
<!--Created with ndjsontosvg (https:https://github.com/thompson318/ndjsontosvg) 
	from the simplified Google quickdraw data set. key_id = 6090534047186944-->
<svg width="600" height="600"
	xmlns="http://www.w3.org/2000/svg">
	xmlns:ndjsontosvg="https://github.com/thompson318/ndjsontosvg"
	xmlns:quickdraw="https://quickdraw.withgoogle.com/data"
	xmlns:scikit-surgery="https://doi.org/10.1007/s11548-020-02180-5">

	<rect width="100%" height="100%" fill="white" />
	<path d = "M 164.06 168.75 L 25.78 185.16 L 4.69 159.38 L 0.00 121.88 L 18.75 82.03 L 96.09 18.75 L 121.88 9.38 L 189.84 9.38 L 248.44 46.88 L 267.19 75.00 L 292.97 171.09 L 311.72 192.19 L 332.81 199.22 L 419.53 199.22 L 494.53 213.28 L 543.75 248.44 L 571.88 281.25 L 583.59 330.47 L 578.91 339.84 L 510.94 391.41 L 457.03 478.12 L 438.28 543.75 L 414.84 585.94 L 382.03 597.66 L 363.28 583.59 L 349.22 555.47 L 344.53 520.31 L 367.97 450.00 L 363.28 410.16 L 337.50 389.06 L 290.62 372.66 L 255.47 372.66 L 239.06 382.03 L 220.31 442.97 L 213.28 513.28 L 199.22 541.41 L 175.78 564.84 L 154.69 578.91 L 135.94 581.25 L 105.47 555.47 L 93.75 487.50 L 96.09 431.25 L 161.72 360.94 L 187.50 316.41 L 201.56 271.88 L 203.91 220.31 L 159.38 203.91 L 150.00 182.81" stroke="black" fill="transparent"/>
	<path d = "M 175.78 0.00 L 171.09 161.72" stroke="black" fill="transparent"/>
	<path d = "M 227.34 56.25 L 227.34 203.91 L 243.75 271.88" stroke="black" fill="transparent"/>
	<path d = "M 283.59 140.62 L 290.62 311.72 L 302.34 384.38 L 304.69 391.41 L 316.41 391.41" stroke="black" fill="transparent"/>
	<path d = "M 445.31 227.34 L 464.06 379.69 L 471.09 391.41" stroke="black" fill="transparent"/>
	<path d = "M 494.53 234.38 L 494.53 384.38 L 503.91 370.31" stroke="black" fill="transparent"/>
	<path d = "M 520.31 325.78 L 522.66 363.28" stroke="black" fill="transparent"/>
	<path d = "M 454.69 241.41 L 403.12 410.16" stroke="black" fill="transparent"/>
	<path d = "M 318.75 189.84 L 321.09 339.84" stroke="black" fill="transparent"/>
	<path d = "M 323.44 255.47 L 389.06 461.72 L 400.78 489.84 L 403.12 487.50" stroke="black" fill="transparent"/>
	<path d = "M 382.03 358.59 L 382.03 461.72 L 393.75 513.28" stroke="black" fill="transparent"/>
	<path d = "M 400.78 515.62 L 396.09 532.03" stroke="black" fill="transparent"/>
</svg>